%FSAX25Y25*%
%MOIN*%
G70*
G01*
G75*
G04 Layer_Physical_Order=5*
G04 Layer_Color=16737945*
%ADD10R,0.90000X0.25000*%
%ADD11R,0.07874X0.07874*%
%ADD12R,0.07480X0.17323*%
%ADD13R,0.02559X0.04724*%
%ADD14R,0.02756X0.01969*%
%ADD15R,0.18504X0.17716*%
%ADD16R,0.21654X0.27559*%
%ADD17C,0.03937*%
%ADD18R,0.07874X0.15748*%
%ADD19R,0.03937X0.44094*%
%ADD20R,0.03937X0.25984*%
%ADD21R,0.10630X0.05118*%
%ADD22R,0.06300X0.05000*%
%ADD23R,0.03740X0.03937*%
%ADD24R,0.04724X0.02559*%
%ADD25R,0.01969X0.02756*%
%ADD26R,0.17716X0.18504*%
%ADD27R,0.07874X0.07874*%
%ADD28P,0.07072X4X90.0*%
%ADD29C,0.02400*%
%ADD30C,0.01200*%
%ADD31C,0.01000*%
%ADD32C,0.00800*%
%ADD33C,0.31496*%
%ADD34C,0.08700*%
%ADD35C,0.47244*%
%ADD36C,0.01575*%
%ADD37C,0.02400*%
%ADD38C,0.03800*%
%ADD39C,0.00700*%
G36*
X0452200Y0342278D02*
X0451906Y0341400D01*
X0451200Y0341400D01*
X0404494D01*
X0404431Y0341337D01*
Y0332337D01*
X0451200Y0332213D01*
X0451906Y0332211D01*
X0452200Y0331332D01*
Y0155400D01*
X0071200D01*
Y0516400D01*
X0452200D01*
Y0342278D01*
D02*
G37*
%LPC*%
G36*
X0356200Y0310498D02*
X0354751Y0310307D01*
X0353401Y0309748D01*
X0352242Y0308858D01*
X0351352Y0307699D01*
X0350793Y0306349D01*
X0350602Y0304900D01*
X0350793Y0303451D01*
X0351352Y0302101D01*
X0352242Y0300942D01*
X0353401Y0300052D01*
X0354751Y0299493D01*
X0356200Y0299302D01*
X0357649Y0299493D01*
X0358999Y0300052D01*
X0360158Y0300942D01*
X0361048Y0302101D01*
X0361607Y0303451D01*
X0361798Y0304900D01*
X0361607Y0306349D01*
X0361048Y0307699D01*
X0360158Y0308858D01*
X0358999Y0309748D01*
X0357649Y0310307D01*
X0356200Y0310498D01*
D02*
G37*
G36*
X0265200Y0300847D02*
X0264264Y0300661D01*
X0263470Y0300130D01*
X0262939Y0299336D01*
X0262753Y0298400D01*
X0262939Y0297464D01*
X0263470Y0296670D01*
X0264264Y0296139D01*
X0265200Y0295953D01*
X0266136Y0296139D01*
X0266930Y0296670D01*
X0267461Y0297464D01*
X0267647Y0298400D01*
X0267461Y0299336D01*
X0266930Y0300130D01*
X0266136Y0300661D01*
X0265200Y0300847D01*
D02*
G37*
G36*
X0343200Y0308027D02*
X0342391Y0307920D01*
X0341637Y0307608D01*
X0340989Y0307111D01*
X0340492Y0306463D01*
X0340180Y0305709D01*
X0340073Y0304900D01*
X0340180Y0304091D01*
X0340492Y0303337D01*
X0340989Y0302689D01*
X0341637Y0302192D01*
X0342391Y0301880D01*
X0343200Y0301773D01*
X0344009Y0301880D01*
X0344763Y0302192D01*
X0345411Y0302689D01*
X0345908Y0303337D01*
X0346220Y0304091D01*
X0346327Y0304900D01*
X0346220Y0305709D01*
X0345908Y0306463D01*
X0345411Y0307111D01*
X0344763Y0307608D01*
X0344009Y0307920D01*
X0343200Y0308027D01*
D02*
G37*
G36*
X0323700D02*
X0322891Y0307920D01*
X0322137Y0307608D01*
X0321489Y0307111D01*
X0320992Y0306463D01*
X0320680Y0305709D01*
X0320573Y0304900D01*
X0320680Y0304091D01*
X0320992Y0303337D01*
X0321489Y0302689D01*
X0322137Y0302192D01*
X0322891Y0301880D01*
X0323700Y0301773D01*
X0324509Y0301880D01*
X0325263Y0302192D01*
X0325911Y0302689D01*
X0326408Y0303337D01*
X0326720Y0304091D01*
X0326827Y0304900D01*
X0326720Y0305709D01*
X0326408Y0306463D01*
X0325911Y0307111D01*
X0325263Y0307608D01*
X0324509Y0307920D01*
X0323700Y0308027D01*
D02*
G37*
G36*
X0169700Y0280347D02*
X0168764Y0280161D01*
X0167970Y0279630D01*
X0167439Y0278836D01*
X0167253Y0277900D01*
X0167439Y0276964D01*
X0167970Y0276170D01*
X0168764Y0275639D01*
X0169700Y0275453D01*
X0170636Y0275639D01*
X0171430Y0276170D01*
X0171961Y0276964D01*
X0172147Y0277900D01*
X0171961Y0278836D01*
X0171430Y0279630D01*
X0170636Y0280161D01*
X0169700Y0280347D01*
D02*
G37*
G36*
X0202708Y0275347D02*
X0201771Y0275161D01*
X0200977Y0274630D01*
X0200447Y0273836D01*
X0200261Y0272900D01*
X0200447Y0271964D01*
X0200977Y0271170D01*
X0201771Y0270639D01*
X0202708Y0270453D01*
X0203644Y0270639D01*
X0204438Y0271170D01*
X0204968Y0271964D01*
X0205155Y0272900D01*
X0204968Y0273836D01*
X0204438Y0274630D01*
X0203644Y0275161D01*
X0202708Y0275347D01*
D02*
G37*
G36*
X0194600Y0295347D02*
X0193664Y0295161D01*
X0192870Y0294630D01*
X0192696Y0294371D01*
X0191504D01*
X0191330Y0294630D01*
X0190536Y0295161D01*
X0189600Y0295347D01*
X0188664Y0295161D01*
X0187870Y0294630D01*
X0187696Y0294371D01*
X0186504D01*
X0186330Y0294630D01*
X0185536Y0295161D01*
X0184600Y0295347D01*
X0183664Y0295161D01*
X0182870Y0294630D01*
X0182339Y0293836D01*
X0182153Y0292900D01*
X0182339Y0291964D01*
X0182870Y0291170D01*
X0183616Y0290671D01*
X0183664Y0290333D01*
Y0289967D01*
X0183616Y0289629D01*
X0182870Y0289130D01*
X0182339Y0288336D01*
X0182153Y0287400D01*
X0182339Y0286464D01*
X0182870Y0285670D01*
X0183616Y0285171D01*
X0183664Y0284833D01*
Y0284467D01*
X0183616Y0284129D01*
X0182870Y0283630D01*
X0182339Y0282836D01*
X0182153Y0281900D01*
X0182339Y0280964D01*
X0182870Y0280170D01*
X0183664Y0279639D01*
X0184600Y0279453D01*
X0185536Y0279639D01*
X0186330Y0280170D01*
X0186504Y0280429D01*
X0187696D01*
X0187870Y0280170D01*
X0188664Y0279639D01*
X0189600Y0279453D01*
X0190536Y0279639D01*
X0191330Y0280170D01*
X0191504Y0280429D01*
X0192696D01*
X0192870Y0280170D01*
X0193664Y0279639D01*
X0194600Y0279453D01*
X0195536Y0279639D01*
X0196330Y0280170D01*
X0196861Y0280964D01*
X0197047Y0281900D01*
X0196861Y0282836D01*
X0196330Y0283630D01*
X0195584Y0284129D01*
X0195536Y0284467D01*
Y0284833D01*
X0195584Y0285171D01*
X0196330Y0285670D01*
X0196861Y0286464D01*
X0197047Y0287400D01*
X0196861Y0288336D01*
X0196330Y0289130D01*
X0195584Y0289629D01*
X0195536Y0289967D01*
Y0290333D01*
X0195584Y0290671D01*
X0196330Y0291170D01*
X0196861Y0291964D01*
X0197047Y0292900D01*
X0196861Y0293836D01*
X0196330Y0294630D01*
X0195536Y0295161D01*
X0194600Y0295347D01*
D02*
G37*
G36*
X0138700Y0283847D02*
X0137764Y0283661D01*
X0136970Y0283130D01*
X0136796Y0282871D01*
X0135604D01*
X0135430Y0283130D01*
X0134636Y0283661D01*
X0133700Y0283847D01*
X0132764Y0283661D01*
X0131970Y0283130D01*
X0131796Y0282871D01*
X0130604D01*
X0130430Y0283130D01*
X0129636Y0283661D01*
X0128700Y0283847D01*
X0127764Y0283661D01*
X0126970Y0283130D01*
X0126796Y0282871D01*
X0125604D01*
X0125430Y0283130D01*
X0124636Y0283661D01*
X0123700Y0283847D01*
X0122764Y0283661D01*
X0121970Y0283130D01*
X0121796Y0282871D01*
X0120604D01*
X0120430Y0283130D01*
X0119636Y0283661D01*
X0118700Y0283847D01*
X0117764Y0283661D01*
X0116970Y0283130D01*
X0116796Y0282871D01*
X0115604D01*
X0115430Y0283130D01*
X0114636Y0283661D01*
X0113700Y0283847D01*
X0112764Y0283661D01*
X0111970Y0283130D01*
X0111439Y0282336D01*
X0111253Y0281400D01*
X0111439Y0280464D01*
X0111970Y0279670D01*
X0112229Y0279496D01*
Y0278304D01*
X0111970Y0278130D01*
X0111439Y0277336D01*
X0111253Y0276400D01*
X0111439Y0275464D01*
X0111970Y0274670D01*
X0112764Y0274139D01*
X0113700Y0273953D01*
X0114636Y0274139D01*
X0115430Y0274670D01*
X0115604Y0274929D01*
X0116796D01*
X0116970Y0274670D01*
X0117764Y0274139D01*
X0118700Y0273953D01*
X0119636Y0274139D01*
X0120430Y0274670D01*
X0120477Y0274740D01*
X0120701Y0274792D01*
X0121634Y0274672D01*
X0121970Y0274170D01*
X0122764Y0273639D01*
X0123700Y0273453D01*
X0124636Y0273639D01*
X0125430Y0274170D01*
X0125766Y0274672D01*
X0126699Y0274792D01*
X0126923Y0274740D01*
X0126970Y0274670D01*
X0127764Y0274139D01*
X0128700Y0273953D01*
X0129636Y0274139D01*
X0130430Y0274670D01*
X0130604Y0274929D01*
X0131796D01*
X0131970Y0274670D01*
X0132764Y0274139D01*
X0133700Y0273953D01*
X0134636Y0274139D01*
X0135430Y0274670D01*
X0135604Y0274929D01*
X0136796D01*
X0136970Y0274670D01*
X0137764Y0274139D01*
X0138700Y0273953D01*
X0139636Y0274139D01*
X0140430Y0274670D01*
X0140961Y0275464D01*
X0141147Y0276400D01*
X0140961Y0277336D01*
X0140430Y0278130D01*
X0140171Y0278304D01*
Y0279496D01*
X0140430Y0279670D01*
X0140961Y0280464D01*
X0141147Y0281400D01*
X0140961Y0282336D01*
X0140430Y0283130D01*
X0139636Y0283661D01*
X0138700Y0283847D01*
D02*
G37*
G36*
X0320700Y0319847D02*
X0319764Y0319661D01*
X0318970Y0319130D01*
X0318439Y0318336D01*
X0318253Y0317400D01*
X0318439Y0316464D01*
X0318970Y0315670D01*
X0319764Y0315139D01*
X0320700Y0314953D01*
X0321636Y0315139D01*
X0322430Y0315670D01*
X0322961Y0316464D01*
X0323147Y0317400D01*
X0322961Y0318336D01*
X0322430Y0319130D01*
X0321636Y0319661D01*
X0320700Y0319847D01*
D02*
G37*
G36*
X0251200Y0316847D02*
X0250264Y0316661D01*
X0249470Y0316130D01*
X0248939Y0315336D01*
X0248753Y0314400D01*
X0248939Y0313464D01*
X0249470Y0312670D01*
X0250264Y0312139D01*
X0251200Y0311953D01*
X0252136Y0312139D01*
X0252930Y0312670D01*
X0253461Y0313464D01*
X0253647Y0314400D01*
X0253461Y0315336D01*
X0252930Y0316130D01*
X0252136Y0316661D01*
X0251200Y0316847D01*
D02*
G37*
G36*
X0360700Y0328998D02*
X0359251Y0328807D01*
X0357901Y0328248D01*
X0356742Y0327358D01*
X0355852Y0326199D01*
X0355293Y0324849D01*
X0355102Y0323400D01*
X0355293Y0321951D01*
X0355852Y0320601D01*
X0356742Y0319442D01*
X0357901Y0318552D01*
X0359251Y0317993D01*
X0360700Y0317802D01*
X0362149Y0317993D01*
X0363499Y0318552D01*
X0364658Y0319442D01*
X0365548Y0320601D01*
X0366107Y0321951D01*
X0366298Y0323400D01*
X0366107Y0324849D01*
X0365548Y0326199D01*
X0364658Y0327358D01*
X0363499Y0328248D01*
X0362149Y0328807D01*
X0360700Y0328998D01*
D02*
G37*
G36*
X0244444Y0321591D02*
X0243508Y0321405D01*
X0242714Y0320874D01*
X0242183Y0320080D01*
X0241997Y0319144D01*
X0242183Y0318208D01*
X0242714Y0317414D01*
X0243508Y0316883D01*
X0244444Y0316697D01*
X0245380Y0316883D01*
X0246174Y0317414D01*
X0246705Y0318208D01*
X0246891Y0319144D01*
X0246705Y0320080D01*
X0246174Y0320874D01*
X0245380Y0321405D01*
X0244444Y0321591D01*
D02*
G37*
G36*
X0226200Y0310847D02*
X0225264Y0310661D01*
X0224470Y0310130D01*
X0223939Y0309336D01*
X0223753Y0308400D01*
X0223939Y0307464D01*
X0224470Y0306670D01*
X0225264Y0306139D01*
X0226200Y0305953D01*
X0227136Y0306139D01*
X0227930Y0306670D01*
X0228461Y0307464D01*
X0228647Y0308400D01*
X0228461Y0309336D01*
X0227930Y0310130D01*
X0227136Y0310661D01*
X0226200Y0310847D01*
D02*
G37*
G36*
X0220700Y0306347D02*
X0219764Y0306161D01*
X0219428Y0305937D01*
X0218700Y0305713D01*
X0217972Y0305937D01*
X0217636Y0306161D01*
X0216700Y0306347D01*
X0215764Y0306161D01*
X0215428Y0305937D01*
X0214700Y0305713D01*
X0213972Y0305937D01*
X0213636Y0306161D01*
X0212700Y0306347D01*
X0211764Y0306161D01*
X0210970Y0305630D01*
X0210439Y0304836D01*
X0210253Y0303900D01*
X0210439Y0302964D01*
X0210894Y0302283D01*
X0210999Y0301907D01*
Y0301393D01*
X0210894Y0301017D01*
X0210439Y0300336D01*
X0210253Y0299400D01*
X0210439Y0298464D01*
X0210894Y0297783D01*
X0210999Y0297407D01*
Y0297287D01*
X0210483Y0296684D01*
X0209430Y0296630D01*
X0208636Y0297161D01*
X0207700Y0297347D01*
X0206764Y0297161D01*
X0205970Y0296630D01*
X0205439Y0295836D01*
X0205253Y0294900D01*
X0205439Y0293964D01*
X0205970Y0293170D01*
X0206764Y0292639D01*
X0207700Y0292453D01*
X0208636Y0292639D01*
X0209430Y0293170D01*
X0209604Y0293429D01*
X0210796D01*
X0210970Y0293170D01*
X0211764Y0292639D01*
X0212700Y0292453D01*
X0213636Y0292639D01*
X0214430Y0293170D01*
X0214961Y0293964D01*
X0215147Y0294900D01*
X0215257Y0295031D01*
X0216030Y0295586D01*
X0216700Y0295453D01*
X0217636Y0295639D01*
X0218430Y0296170D01*
X0218961Y0296964D01*
X0219050Y0297413D01*
X0219606Y0297979D01*
X0220122Y0298068D01*
X0220700Y0297953D01*
X0221636Y0298139D01*
X0222430Y0298670D01*
X0222961Y0299464D01*
X0223147Y0300400D01*
X0222961Y0301336D01*
X0222961Y0301336D01*
X0222961Y0301336D01*
X0222443Y0302150D01*
X0222462Y0302180D01*
X0222961Y0302963D01*
X0222961Y0302964D01*
X0222961Y0302964D01*
X0223147Y0303900D01*
X0222961Y0304836D01*
X0222430Y0305630D01*
X0221636Y0306161D01*
X0220700Y0306347D01*
D02*
G37*
G36*
X0265200Y0314634D02*
X0264264Y0314448D01*
X0263470Y0313918D01*
X0262939Y0313124D01*
X0262753Y0312187D01*
X0262939Y0311251D01*
X0263470Y0310457D01*
X0264264Y0309927D01*
X0265200Y0309740D01*
X0266136Y0309927D01*
X0266930Y0310457D01*
X0267461Y0311251D01*
X0267647Y0312187D01*
X0267461Y0313124D01*
X0266930Y0313918D01*
X0266136Y0314448D01*
X0265200Y0314634D01*
D02*
G37*
G36*
X0310200Y0311347D02*
X0309264Y0311161D01*
X0308470Y0310630D01*
X0307939Y0309836D01*
X0307753Y0308900D01*
X0307939Y0307964D01*
X0308470Y0307170D01*
X0309264Y0306639D01*
X0310200Y0306453D01*
X0311136Y0306639D01*
X0311930Y0307170D01*
X0312461Y0307964D01*
X0312647Y0308900D01*
X0312461Y0309836D01*
X0311930Y0310630D01*
X0311136Y0311161D01*
X0310200Y0311347D01*
D02*
G37*
G36*
X0178700Y0275347D02*
X0177764Y0275161D01*
X0176970Y0274630D01*
X0176439Y0273836D01*
X0176253Y0272900D01*
X0176439Y0271964D01*
X0176970Y0271170D01*
X0177764Y0270639D01*
X0178700Y0270453D01*
X0179636Y0270639D01*
X0180430Y0271170D01*
X0180961Y0271964D01*
X0181147Y0272900D01*
X0180961Y0273836D01*
X0180430Y0274630D01*
X0179636Y0275161D01*
X0178700Y0275347D01*
D02*
G37*
G36*
X0315200Y0235847D02*
X0314264Y0235661D01*
X0313470Y0235130D01*
X0313296Y0234871D01*
X0312104D01*
X0311930Y0235130D01*
X0311136Y0235661D01*
X0310200Y0235847D01*
X0309264Y0235661D01*
X0308470Y0235130D01*
X0307971Y0234384D01*
X0307633Y0234336D01*
X0307267D01*
X0306929Y0234384D01*
X0306430Y0235130D01*
X0305636Y0235661D01*
X0304700Y0235847D01*
X0303764Y0235661D01*
X0302970Y0235130D01*
X0302439Y0234336D01*
X0302253Y0233400D01*
X0302439Y0232464D01*
X0302970Y0231670D01*
X0303764Y0231139D01*
X0304700Y0230953D01*
X0305636Y0231139D01*
X0306430Y0231670D01*
X0306929Y0232416D01*
X0307267Y0232464D01*
X0307633D01*
X0307971Y0232416D01*
X0308470Y0231670D01*
X0309264Y0231139D01*
X0310200Y0230953D01*
X0311136Y0231139D01*
X0311930Y0231670D01*
X0312104Y0231929D01*
X0313296D01*
X0313470Y0231670D01*
X0314264Y0231139D01*
X0315200Y0230953D01*
X0316136Y0231139D01*
X0316930Y0231670D01*
X0317461Y0232464D01*
X0317647Y0233400D01*
X0317461Y0234336D01*
X0316930Y0235130D01*
X0316136Y0235661D01*
X0315200Y0235847D01*
D02*
G37*
G36*
X0361200D02*
X0360264Y0235661D01*
X0359470Y0235130D01*
X0358971Y0234384D01*
X0358633Y0234336D01*
X0358267D01*
X0357929Y0234384D01*
X0357430Y0235130D01*
X0356636Y0235661D01*
X0355700Y0235847D01*
X0354764Y0235661D01*
X0353970Y0235130D01*
X0353471Y0234384D01*
X0353133Y0234336D01*
X0352767D01*
X0352429Y0234384D01*
X0351930Y0235130D01*
X0351136Y0235661D01*
X0350200Y0235847D01*
X0349264Y0235661D01*
X0348470Y0235130D01*
X0347939Y0234336D01*
X0347753Y0233400D01*
X0347939Y0232464D01*
X0348470Y0231670D01*
X0349264Y0231139D01*
X0350200Y0230953D01*
X0351136Y0231139D01*
X0351930Y0231670D01*
X0352429Y0232416D01*
X0352767Y0232464D01*
X0353133D01*
X0353471Y0232416D01*
X0353970Y0231670D01*
X0354764Y0231139D01*
X0355700Y0230953D01*
X0356636Y0231139D01*
X0357430Y0231670D01*
X0357929Y0232416D01*
X0358267Y0232464D01*
X0358633D01*
X0358971Y0232416D01*
X0359470Y0231670D01*
X0360264Y0231139D01*
X0361200Y0230953D01*
X0362136Y0231139D01*
X0362930Y0231670D01*
X0363461Y0232464D01*
X0363647Y0233400D01*
X0363461Y0234336D01*
X0362930Y0235130D01*
X0362136Y0235661D01*
X0361200Y0235847D01*
D02*
G37*
G36*
X0386700Y0250998D02*
X0385251Y0250807D01*
X0383901Y0250248D01*
X0382742Y0249358D01*
X0381852Y0248199D01*
X0381293Y0246849D01*
X0381102Y0245400D01*
X0381293Y0243951D01*
X0381852Y0242601D01*
X0382742Y0241442D01*
X0383901Y0240552D01*
X0385251Y0239993D01*
X0386700Y0239802D01*
X0388149Y0239993D01*
X0389499Y0240552D01*
X0390658Y0241442D01*
X0391548Y0242601D01*
X0392107Y0243951D01*
X0392298Y0245400D01*
X0392107Y0246849D01*
X0391548Y0248199D01*
X0390658Y0249358D01*
X0389499Y0250248D01*
X0388149Y0250807D01*
X0386700Y0250998D01*
D02*
G37*
G36*
X0419200Y0252261D02*
X0416416Y0252105D01*
X0413668Y0251638D01*
X0410989Y0250866D01*
X0408413Y0249799D01*
X0405973Y0248450D01*
X0403699Y0246837D01*
X0401620Y0244980D01*
X0399763Y0242901D01*
X0398149Y0240627D01*
X0396801Y0238187D01*
X0396722Y0237997D01*
X0395594Y0237886D01*
X0395430Y0238130D01*
X0394636Y0238661D01*
X0393700Y0238847D01*
X0392764Y0238661D01*
X0391970Y0238130D01*
X0391796Y0237871D01*
X0390604D01*
X0390430Y0238130D01*
X0389636Y0238661D01*
X0388700Y0238847D01*
X0387764Y0238661D01*
X0386970Y0238130D01*
X0386796Y0237871D01*
X0385604D01*
X0385430Y0238130D01*
X0384636Y0238661D01*
X0383700Y0238847D01*
X0382764Y0238661D01*
X0381970Y0238130D01*
X0381439Y0237336D01*
X0381253Y0236400D01*
X0381439Y0235464D01*
X0381970Y0234670D01*
X0382229Y0234496D01*
Y0233304D01*
X0381970Y0233130D01*
X0381439Y0232336D01*
X0381253Y0231400D01*
X0381439Y0230464D01*
X0381970Y0229670D01*
X0382229Y0229496D01*
Y0228304D01*
X0381970Y0228130D01*
X0381439Y0227336D01*
X0381253Y0226400D01*
X0381439Y0225464D01*
X0381970Y0224670D01*
X0382229Y0224496D01*
Y0223304D01*
X0381970Y0223130D01*
X0381439Y0222336D01*
X0381253Y0221400D01*
X0381439Y0220464D01*
X0381970Y0219670D01*
X0382229Y0219496D01*
Y0218304D01*
X0381970Y0218130D01*
X0381439Y0217336D01*
X0381253Y0216400D01*
X0381439Y0215464D01*
X0381970Y0214670D01*
X0382764Y0214139D01*
X0383700Y0213953D01*
X0384636Y0214139D01*
X0385430Y0214670D01*
X0385604Y0214929D01*
X0386796D01*
X0386970Y0214670D01*
X0387764Y0214139D01*
X0388700Y0213953D01*
X0389636Y0214139D01*
X0390430Y0214670D01*
X0390604Y0214929D01*
X0391796D01*
X0391970Y0214670D01*
X0392764Y0214139D01*
X0393700Y0213953D01*
X0394636Y0214139D01*
X0395430Y0214670D01*
X0395961Y0215464D01*
X0396049Y0215907D01*
X0397101Y0216070D01*
X0398149Y0214173D01*
X0399763Y0211899D01*
X0401620Y0209821D01*
X0403699Y0207963D01*
X0405973Y0206349D01*
X0408413Y0205001D01*
X0410989Y0203934D01*
X0413668Y0203162D01*
X0416416Y0202695D01*
X0419200Y0202539D01*
X0421984Y0202695D01*
X0424732Y0203162D01*
X0427411Y0203934D01*
X0429987Y0205001D01*
X0432427Y0206349D01*
X0434701Y0207963D01*
X0436779Y0209821D01*
X0438637Y0211899D01*
X0440250Y0214173D01*
X0441599Y0216613D01*
X0442666Y0219189D01*
X0443438Y0221868D01*
X0443905Y0224616D01*
X0444061Y0227400D01*
X0443905Y0230184D01*
X0443438Y0232932D01*
X0442666Y0235611D01*
X0441599Y0238187D01*
X0440250Y0240627D01*
X0438637Y0242901D01*
X0436779Y0244980D01*
X0434701Y0246837D01*
X0432427Y0248450D01*
X0429987Y0249799D01*
X0427411Y0250866D01*
X0424732Y0251638D01*
X0421984Y0252105D01*
X0419200Y0252261D01*
D02*
G37*
G36*
X0429700Y0190384D02*
X0427483Y0190239D01*
X0425304Y0189806D01*
X0423200Y0189092D01*
X0421208Y0188109D01*
X0419361Y0186875D01*
X0417690Y0185410D01*
X0416225Y0183739D01*
X0414991Y0181892D01*
X0414009Y0179900D01*
X0413294Y0177796D01*
X0412861Y0175617D01*
X0412716Y0173400D01*
X0412861Y0171183D01*
X0413294Y0169004D01*
X0414009Y0166900D01*
X0414991Y0164908D01*
X0416225Y0163061D01*
X0417690Y0161390D01*
X0419361Y0159925D01*
X0421208Y0158691D01*
X0423200Y0157709D01*
X0425304Y0156994D01*
X0427483Y0156561D01*
X0429700Y0156416D01*
X0431917Y0156561D01*
X0434096Y0156994D01*
X0436200Y0157709D01*
X0438192Y0158691D01*
X0440039Y0159925D01*
X0441710Y0161390D01*
X0443175Y0163061D01*
X0444409Y0164908D01*
X0445392Y0166900D01*
X0446106Y0169004D01*
X0446539Y0171183D01*
X0446684Y0173400D01*
X0446539Y0175617D01*
X0446106Y0177796D01*
X0445392Y0179900D01*
X0444409Y0181892D01*
X0443175Y0183739D01*
X0441710Y0185410D01*
X0440039Y0186875D01*
X0438192Y0188109D01*
X0436200Y0189092D01*
X0434096Y0189806D01*
X0431917Y0190239D01*
X0429700Y0190384D01*
D02*
G37*
G36*
X0089200D02*
X0086983Y0190239D01*
X0084804Y0189806D01*
X0082700Y0189092D01*
X0080708Y0188109D01*
X0078861Y0186875D01*
X0077190Y0185410D01*
X0075725Y0183739D01*
X0074491Y0181892D01*
X0073509Y0179900D01*
X0072794Y0177796D01*
X0072361Y0175617D01*
X0072216Y0173400D01*
X0072361Y0171183D01*
X0072794Y0169004D01*
X0073509Y0166900D01*
X0074491Y0164908D01*
X0075725Y0163061D01*
X0077190Y0161390D01*
X0078861Y0159925D01*
X0080708Y0158691D01*
X0082700Y0157709D01*
X0084804Y0156994D01*
X0086983Y0156561D01*
X0089200Y0156416D01*
X0091417Y0156561D01*
X0093596Y0156994D01*
X0095700Y0157709D01*
X0097692Y0158691D01*
X0099539Y0159925D01*
X0101210Y0161390D01*
X0102675Y0163061D01*
X0103909Y0164908D01*
X0104892Y0166900D01*
X0105606Y0169004D01*
X0106039Y0171183D01*
X0106184Y0173400D01*
X0106039Y0175617D01*
X0105606Y0177796D01*
X0104892Y0179900D01*
X0103909Y0181892D01*
X0102675Y0183739D01*
X0101210Y0185410D01*
X0099539Y0186875D01*
X0097692Y0188109D01*
X0095700Y0189092D01*
X0093596Y0189806D01*
X0091417Y0190239D01*
X0089200Y0190384D01*
D02*
G37*
G36*
X0390200Y0186596D02*
X0389373Y0186487D01*
X0388602Y0186168D01*
X0387940Y0185660D01*
X0387432Y0184998D01*
X0387113Y0184227D01*
X0387004Y0183400D01*
X0387113Y0182573D01*
X0387432Y0181802D01*
X0387940Y0181140D01*
X0388602Y0180632D01*
X0389373Y0180313D01*
X0390200Y0180204D01*
X0391027Y0180313D01*
X0391798Y0180632D01*
X0392460Y0181140D01*
X0392968Y0181802D01*
X0393287Y0182573D01*
X0393396Y0183400D01*
X0393287Y0184227D01*
X0392968Y0184998D01*
X0392460Y0185660D01*
X0391798Y0186168D01*
X0391027Y0186487D01*
X0390200Y0186596D01*
D02*
G37*
G36*
X0133200D02*
X0132373Y0186487D01*
X0131602Y0186168D01*
X0130940Y0185660D01*
X0130432Y0184998D01*
X0130113Y0184227D01*
X0130004Y0183400D01*
X0130113Y0182573D01*
X0130432Y0181802D01*
X0130940Y0181140D01*
X0131602Y0180632D01*
X0132373Y0180313D01*
X0133200Y0180204D01*
X0134027Y0180313D01*
X0134798Y0180632D01*
X0135460Y0181140D01*
X0135968Y0181802D01*
X0136287Y0182573D01*
X0136396Y0183400D01*
X0136287Y0184227D01*
X0135968Y0184998D01*
X0135460Y0185660D01*
X0134798Y0186168D01*
X0134027Y0186487D01*
X0133200Y0186596D01*
D02*
G37*
G36*
X0162100Y0262247D02*
X0161164Y0262061D01*
X0160370Y0261530D01*
X0159871Y0260784D01*
X0159533Y0260736D01*
X0159167D01*
X0158829Y0260784D01*
X0158330Y0261530D01*
X0157536Y0262061D01*
X0156600Y0262247D01*
X0155664Y0262061D01*
X0154870Y0261530D01*
X0154371Y0260784D01*
X0154033Y0260736D01*
X0153667D01*
X0153329Y0260784D01*
X0152830Y0261530D01*
X0152036Y0262061D01*
X0151100Y0262247D01*
X0150164Y0262061D01*
X0149370Y0261530D01*
X0148839Y0260736D01*
X0148653Y0259800D01*
X0148839Y0258864D01*
X0149370Y0258070D01*
X0149629Y0257896D01*
Y0256704D01*
X0149370Y0256530D01*
X0148839Y0255736D01*
X0148653Y0254800D01*
X0148839Y0253864D01*
X0149370Y0253070D01*
X0149629Y0252896D01*
Y0251704D01*
X0149370Y0251530D01*
X0148839Y0250736D01*
X0148653Y0249800D01*
X0148839Y0248864D01*
X0149370Y0248070D01*
X0150164Y0247539D01*
X0151100Y0247353D01*
X0152036Y0247539D01*
X0152830Y0248070D01*
X0153329Y0248816D01*
X0153667Y0248864D01*
X0154033D01*
X0154371Y0248816D01*
X0154870Y0248070D01*
X0155664Y0247539D01*
X0156600Y0247353D01*
X0157536Y0247539D01*
X0158330Y0248070D01*
X0158829Y0248816D01*
X0159167Y0248864D01*
X0159533D01*
X0159871Y0248816D01*
X0160370Y0248070D01*
X0161164Y0247539D01*
X0162100Y0247353D01*
X0163036Y0247539D01*
X0163830Y0248070D01*
X0164361Y0248864D01*
X0164547Y0249800D01*
X0164361Y0250736D01*
X0163830Y0251530D01*
X0163571Y0251704D01*
Y0252896D01*
X0163830Y0253070D01*
X0164361Y0253864D01*
X0164547Y0254800D01*
X0164361Y0255736D01*
X0163830Y0256530D01*
X0163571Y0256704D01*
Y0257896D01*
X0163830Y0258070D01*
X0164361Y0258864D01*
X0164547Y0259800D01*
X0164361Y0260736D01*
X0163830Y0261530D01*
X0163036Y0262061D01*
X0162100Y0262247D01*
D02*
G37*
G36*
X0296700Y0261847D02*
X0295764Y0261661D01*
X0294970Y0261130D01*
X0294471Y0260384D01*
X0294133Y0260336D01*
X0293767D01*
X0293429Y0260384D01*
X0292930Y0261130D01*
X0292136Y0261661D01*
X0291200Y0261847D01*
X0290264Y0261661D01*
X0289470Y0261130D01*
X0288939Y0260336D01*
X0288753Y0259400D01*
X0288939Y0258464D01*
X0289470Y0257670D01*
X0289878Y0257397D01*
X0289883Y0257383D01*
X0289864Y0256277D01*
X0289434Y0255989D01*
X0288903Y0255195D01*
X0288717Y0254259D01*
X0288903Y0253323D01*
X0289434Y0252529D01*
X0290041Y0252123D01*
X0290121Y0251776D01*
X0290127Y0251458D01*
X0290045Y0251015D01*
X0289470Y0250630D01*
X0288939Y0249836D01*
X0288753Y0248900D01*
X0288939Y0247964D01*
X0289470Y0247170D01*
X0289729Y0246996D01*
Y0245804D01*
X0289470Y0245630D01*
X0288939Y0244836D01*
X0288753Y0243900D01*
X0288939Y0242964D01*
X0289470Y0242170D01*
X0289729Y0241996D01*
Y0240804D01*
X0289470Y0240630D01*
X0288939Y0239836D01*
X0288753Y0238900D01*
X0288939Y0237964D01*
X0289470Y0237170D01*
X0290216Y0236671D01*
X0290264Y0236333D01*
Y0235967D01*
X0290216Y0235629D01*
X0289470Y0235130D01*
X0288939Y0234336D01*
X0288753Y0233400D01*
X0288939Y0232464D01*
X0289470Y0231670D01*
X0290264Y0231139D01*
X0291200Y0230953D01*
X0292136Y0231139D01*
X0292930Y0231670D01*
X0293104Y0231929D01*
X0294296D01*
X0294470Y0231670D01*
X0295264Y0231139D01*
X0296200Y0230953D01*
X0297136Y0231139D01*
X0297930Y0231670D01*
X0298461Y0232464D01*
X0298647Y0233400D01*
X0298461Y0234336D01*
X0297930Y0235130D01*
X0297184Y0235629D01*
X0297136Y0235967D01*
Y0236333D01*
X0297184Y0236671D01*
X0297930Y0237170D01*
X0298461Y0237964D01*
X0298647Y0238900D01*
X0298461Y0239836D01*
X0297930Y0240630D01*
X0297860Y0240677D01*
X0297808Y0240900D01*
X0297928Y0241834D01*
X0298430Y0242170D01*
X0298961Y0242964D01*
X0299147Y0243900D01*
X0298961Y0244836D01*
X0298430Y0245630D01*
X0298171Y0245804D01*
Y0246996D01*
X0298430Y0247170D01*
X0298961Y0247964D01*
X0299147Y0248900D01*
X0298961Y0249836D01*
X0298430Y0250630D01*
X0297684Y0251129D01*
X0297636Y0251467D01*
Y0251833D01*
X0297684Y0252171D01*
X0298430Y0252670D01*
X0298961Y0253464D01*
X0299147Y0254400D01*
X0298961Y0255336D01*
X0298430Y0256130D01*
X0298171Y0256304D01*
Y0257496D01*
X0298430Y0257670D01*
X0298961Y0258464D01*
X0299147Y0259400D01*
X0298961Y0260336D01*
X0298430Y0261130D01*
X0297636Y0261661D01*
X0296700Y0261847D01*
D02*
G37*
G36*
X0149200Y0275347D02*
X0148264Y0275161D01*
X0147470Y0274630D01*
X0146939Y0273836D01*
X0146753Y0272900D01*
X0146939Y0271964D01*
X0147470Y0271170D01*
X0148264Y0270639D01*
X0149200Y0270453D01*
X0150136Y0270639D01*
X0150930Y0271170D01*
X0151461Y0271964D01*
X0151647Y0272900D01*
X0151461Y0273836D01*
X0150930Y0274630D01*
X0150136Y0275161D01*
X0149200Y0275347D01*
D02*
G37*
G36*
X0191700Y0262247D02*
X0190764Y0262061D01*
X0189970Y0261530D01*
X0189471Y0260784D01*
X0189133Y0260736D01*
X0188767D01*
X0188429Y0260784D01*
X0187930Y0261530D01*
X0187136Y0262061D01*
X0186200Y0262247D01*
X0185264Y0262061D01*
X0184470Y0261530D01*
X0183971Y0260784D01*
X0183633Y0260736D01*
X0183267D01*
X0182929Y0260784D01*
X0182430Y0261530D01*
X0181636Y0262061D01*
X0180700Y0262247D01*
X0179764Y0262061D01*
X0178970Y0261530D01*
X0178439Y0260736D01*
X0178253Y0259800D01*
X0178439Y0258864D01*
X0178970Y0258070D01*
X0179229Y0257896D01*
Y0256704D01*
X0178970Y0256530D01*
X0178439Y0255736D01*
X0178253Y0254800D01*
X0178439Y0253864D01*
X0178970Y0253070D01*
X0179229Y0252896D01*
Y0251704D01*
X0178970Y0251530D01*
X0178439Y0250736D01*
X0178253Y0249800D01*
X0178439Y0248864D01*
X0178970Y0248070D01*
X0179764Y0247539D01*
X0180700Y0247353D01*
X0181636Y0247539D01*
X0182430Y0248070D01*
X0182929Y0248816D01*
X0183267Y0248864D01*
X0183633D01*
X0183971Y0248816D01*
X0184470Y0248070D01*
X0185264Y0247539D01*
X0186200Y0247353D01*
X0187136Y0247539D01*
X0187930Y0248070D01*
X0188429Y0248816D01*
X0188767Y0248864D01*
X0189133D01*
X0189471Y0248816D01*
X0189970Y0248070D01*
X0190764Y0247539D01*
X0191700Y0247353D01*
X0192636Y0247539D01*
X0193430Y0248070D01*
X0193961Y0248864D01*
X0194147Y0249800D01*
X0193961Y0250736D01*
X0193430Y0251530D01*
X0193171Y0251704D01*
Y0252896D01*
X0193430Y0253070D01*
X0193961Y0253864D01*
X0194147Y0254800D01*
X0193961Y0255736D01*
X0193430Y0256530D01*
X0193171Y0256704D01*
Y0257896D01*
X0193430Y0258070D01*
X0193961Y0258864D01*
X0194147Y0259800D01*
X0193961Y0260736D01*
X0193430Y0261530D01*
X0192636Y0262061D01*
X0191700Y0262247D01*
D02*
G37*
G36*
X0281251Y0248847D02*
X0280315Y0248661D01*
X0279521Y0248130D01*
X0278990Y0247336D01*
X0278804Y0246400D01*
X0278990Y0245464D01*
X0279521Y0244670D01*
X0280315Y0244139D01*
X0281251Y0243953D01*
X0282188Y0244139D01*
X0282981Y0244670D01*
X0283512Y0245464D01*
X0283698Y0246400D01*
X0283512Y0247336D01*
X0282981Y0248130D01*
X0282188Y0248661D01*
X0281251Y0248847D01*
D02*
G37*
G36*
X0274700D02*
X0273764Y0248661D01*
X0272970Y0248130D01*
X0272439Y0247336D01*
X0272253Y0246400D01*
X0272439Y0245464D01*
X0272970Y0244670D01*
X0273764Y0244139D01*
X0274700Y0243953D01*
X0275636Y0244139D01*
X0276430Y0244670D01*
X0276961Y0245464D01*
X0277147Y0246400D01*
X0276961Y0247336D01*
X0276430Y0248130D01*
X0275636Y0248661D01*
X0274700Y0248847D01*
D02*
G37*
G36*
X0265200Y0254847D02*
X0264264Y0254661D01*
X0263928Y0254437D01*
X0263200Y0254213D01*
X0262472Y0254437D01*
X0262136Y0254661D01*
X0261200Y0254847D01*
X0260264Y0254661D01*
X0259928Y0254437D01*
X0259200Y0254213D01*
X0258472Y0254437D01*
X0258136Y0254661D01*
X0257200Y0254847D01*
X0256264Y0254661D01*
X0255470Y0254130D01*
X0255296Y0253871D01*
X0254104D01*
X0253930Y0254130D01*
X0253136Y0254661D01*
X0252200Y0254847D01*
X0251264Y0254661D01*
X0250470Y0254130D01*
X0250296Y0253871D01*
X0249104D01*
X0248930Y0254130D01*
X0248136Y0254661D01*
X0247200Y0254847D01*
X0246264Y0254661D01*
X0245470Y0254130D01*
X0245296Y0253871D01*
X0244104D01*
X0243930Y0254130D01*
X0243136Y0254661D01*
X0242200Y0254847D01*
X0241264Y0254661D01*
X0240470Y0254130D01*
X0240296Y0253871D01*
X0239104D01*
X0238930Y0254130D01*
X0238136Y0254661D01*
X0237200Y0254847D01*
X0236264Y0254661D01*
X0235470Y0254130D01*
X0235296Y0253871D01*
X0234104D01*
X0233930Y0254130D01*
X0233136Y0254661D01*
X0232200Y0254847D01*
X0231264Y0254661D01*
X0230470Y0254130D01*
X0230296Y0253871D01*
X0229104D01*
X0228930Y0254130D01*
X0228136Y0254661D01*
X0227200Y0254847D01*
X0226264Y0254661D01*
X0225470Y0254130D01*
X0225296Y0253871D01*
X0224104D01*
X0223930Y0254130D01*
X0223136Y0254661D01*
X0222200Y0254847D01*
X0221264Y0254661D01*
X0220470Y0254130D01*
X0220296Y0253871D01*
X0219104D01*
X0218930Y0254130D01*
X0218136Y0254661D01*
X0217200Y0254847D01*
X0216264Y0254661D01*
X0215470Y0254130D01*
X0215296Y0253871D01*
X0214104D01*
X0213930Y0254130D01*
X0213136Y0254661D01*
X0212200Y0254847D01*
X0211264Y0254661D01*
X0210470Y0254130D01*
X0209939Y0253336D01*
X0209753Y0252400D01*
X0209939Y0251464D01*
X0210470Y0250670D01*
X0210729Y0250496D01*
Y0249304D01*
X0210470Y0249130D01*
X0209939Y0248336D01*
X0209753Y0247400D01*
X0209939Y0246464D01*
X0210470Y0245670D01*
X0211264Y0245139D01*
X0212200Y0244953D01*
X0213136Y0245139D01*
X0213930Y0245670D01*
X0214104Y0245929D01*
X0215296D01*
X0215470Y0245670D01*
X0216264Y0245139D01*
X0217200Y0244953D01*
X0218136Y0245139D01*
X0218930Y0245670D01*
X0219104Y0245929D01*
X0220296D01*
X0220470Y0245670D01*
X0221264Y0245139D01*
X0222200Y0244953D01*
X0223136Y0245139D01*
X0223930Y0245670D01*
X0224104Y0245929D01*
X0225296D01*
X0225470Y0245670D01*
X0226264Y0245139D01*
X0227200Y0244953D01*
X0228136Y0245139D01*
X0228930Y0245670D01*
X0229104Y0245929D01*
X0230296D01*
X0230470Y0245670D01*
X0231264Y0245139D01*
X0232200Y0244953D01*
X0233136Y0245139D01*
X0233930Y0245670D01*
X0234104Y0245929D01*
X0235296D01*
X0235470Y0245670D01*
X0236264Y0245139D01*
X0237200Y0244953D01*
X0238136Y0245139D01*
X0238930Y0245670D01*
X0239104Y0245929D01*
X0240296D01*
X0240470Y0245670D01*
X0241264Y0245139D01*
X0242200Y0244953D01*
X0243136Y0245139D01*
X0243930Y0245670D01*
X0244104Y0245929D01*
X0245296D01*
X0245470Y0245670D01*
X0246264Y0245139D01*
X0247200Y0244953D01*
X0248136Y0245139D01*
X0248930Y0245670D01*
X0249104Y0245929D01*
X0250296D01*
X0250470Y0245670D01*
X0251264Y0245139D01*
X0252200Y0244953D01*
X0253136Y0245139D01*
X0253930Y0245670D01*
X0254104Y0245929D01*
X0255296D01*
X0255470Y0245670D01*
X0256264Y0245139D01*
X0257200Y0244953D01*
X0258136Y0245139D01*
X0258541Y0244836D01*
X0258709Y0244290D01*
X0258470Y0244130D01*
X0257939Y0243336D01*
X0257753Y0242400D01*
X0257939Y0241464D01*
X0258470Y0240670D01*
X0258729Y0240496D01*
Y0239304D01*
X0258470Y0239130D01*
X0257939Y0238336D01*
X0257753Y0237400D01*
X0257939Y0236464D01*
X0258470Y0235670D01*
X0258729Y0235496D01*
Y0234304D01*
X0258470Y0234130D01*
X0257939Y0233336D01*
X0257753Y0232400D01*
X0257939Y0231464D01*
X0258470Y0230670D01*
X0259264Y0230139D01*
X0260200Y0229953D01*
X0261136Y0230139D01*
X0261930Y0230670D01*
X0262104Y0230929D01*
X0263296D01*
X0263470Y0230670D01*
X0264264Y0230139D01*
X0265200Y0229953D01*
X0266136Y0230139D01*
X0266930Y0230670D01*
X0267461Y0231464D01*
X0267647Y0232400D01*
X0267461Y0233336D01*
X0266930Y0234130D01*
X0266671Y0234304D01*
Y0235496D01*
X0266930Y0235670D01*
X0267461Y0236464D01*
X0267647Y0237400D01*
X0267461Y0238336D01*
X0266930Y0239130D01*
X0266671Y0239304D01*
Y0240496D01*
X0266930Y0240670D01*
X0267461Y0241464D01*
X0267647Y0242400D01*
X0267461Y0243336D01*
X0266930Y0244130D01*
X0266671Y0244304D01*
Y0245496D01*
X0266930Y0245670D01*
X0267461Y0246464D01*
X0267647Y0247400D01*
X0267461Y0248336D01*
X0266930Y0249130D01*
X0266671Y0249304D01*
Y0250496D01*
X0266930Y0250670D01*
X0267461Y0251464D01*
X0267647Y0252400D01*
X0267461Y0253336D01*
X0266930Y0254130D01*
X0266136Y0254661D01*
X0265200Y0254847D01*
D02*
G37*
G36*
X0400200Y0256027D02*
X0399391Y0255920D01*
X0398637Y0255608D01*
X0397989Y0255111D01*
X0397492Y0254463D01*
X0397180Y0253709D01*
X0397073Y0252900D01*
X0397180Y0252091D01*
X0397492Y0251337D01*
X0397989Y0250689D01*
X0398637Y0250192D01*
X0399391Y0249880D01*
X0400200Y0249773D01*
X0401009Y0249880D01*
X0401763Y0250192D01*
X0402411Y0250689D01*
X0402908Y0251337D01*
X0403220Y0252091D01*
X0403327Y0252900D01*
X0403220Y0253709D01*
X0402908Y0254463D01*
X0402411Y0255111D01*
X0401763Y0255608D01*
X0401009Y0255920D01*
X0400200Y0256027D01*
D02*
G37*
G36*
X0179200Y0404103D02*
X0178264Y0403917D01*
X0177470Y0403386D01*
X0176939Y0402592D01*
X0176753Y0401656D01*
X0176939Y0400719D01*
X0177470Y0399926D01*
X0178230Y0399418D01*
X0178264Y0399203D01*
Y0398597D01*
X0178230Y0398382D01*
X0177470Y0397874D01*
X0176939Y0397080D01*
X0176753Y0396144D01*
X0176939Y0395208D01*
X0177470Y0394414D01*
X0178264Y0393883D01*
X0179200Y0393697D01*
X0180136Y0393883D01*
X0180930Y0394414D01*
X0181461Y0395208D01*
X0181647Y0396144D01*
X0181461Y0397080D01*
X0180930Y0397874D01*
X0180170Y0398382D01*
X0180136Y0398597D01*
Y0399203D01*
X0180170Y0399418D01*
X0180930Y0399926D01*
X0181461Y0400719D01*
X0181647Y0401656D01*
X0181461Y0402592D01*
X0180930Y0403386D01*
X0180136Y0403917D01*
X0179200Y0404103D01*
D02*
G37*
G36*
X0208700Y0404152D02*
X0207764Y0403966D01*
X0206970Y0403435D01*
X0206439Y0402641D01*
X0206253Y0401705D01*
X0206439Y0400769D01*
X0206970Y0399975D01*
X0207764Y0399444D01*
X0207937Y0399410D01*
Y0398390D01*
X0207764Y0398356D01*
X0206970Y0397825D01*
X0206439Y0397031D01*
X0206253Y0396095D01*
X0206439Y0395158D01*
X0206970Y0394365D01*
X0207764Y0393834D01*
X0208700Y0393648D01*
X0209636Y0393834D01*
X0210430Y0394365D01*
X0210961Y0395158D01*
X0211147Y0396095D01*
X0210961Y0397031D01*
X0210430Y0397825D01*
X0209636Y0398356D01*
X0209463Y0398390D01*
Y0399410D01*
X0209636Y0399444D01*
X0210430Y0399975D01*
X0210961Y0400769D01*
X0211147Y0401705D01*
X0210961Y0402641D01*
X0210430Y0403435D01*
X0209636Y0403966D01*
X0208700Y0404152D01*
D02*
G37*
G36*
X0290700Y0411347D02*
X0289764Y0411161D01*
X0288970Y0410630D01*
X0288439Y0409836D01*
X0288253Y0408900D01*
X0288439Y0407964D01*
X0288970Y0407170D01*
X0289764Y0406639D01*
X0290700Y0406453D01*
X0291636Y0406639D01*
X0292430Y0407170D01*
X0292961Y0407964D01*
X0293147Y0408900D01*
X0292961Y0409836D01*
X0292430Y0410630D01*
X0291636Y0411161D01*
X0290700Y0411347D01*
D02*
G37*
G36*
X0140700Y0394847D02*
X0139764Y0394661D01*
X0138970Y0394130D01*
X0138796Y0393871D01*
X0137604D01*
X0137430Y0394130D01*
X0136636Y0394661D01*
X0135700Y0394847D01*
X0134764Y0394661D01*
X0133970Y0394130D01*
X0133796Y0393871D01*
X0132604D01*
X0132430Y0394130D01*
X0131636Y0394661D01*
X0130700Y0394847D01*
X0129764Y0394661D01*
X0128970Y0394130D01*
X0128796Y0393871D01*
X0127604D01*
X0127430Y0394130D01*
X0126636Y0394661D01*
X0125700Y0394847D01*
X0124764Y0394661D01*
X0123970Y0394130D01*
X0123796Y0393871D01*
X0122604D01*
X0122430Y0394130D01*
X0121636Y0394661D01*
X0120700Y0394847D01*
X0119764Y0394661D01*
X0118970Y0394130D01*
X0118796Y0393871D01*
X0117604D01*
X0117430Y0394130D01*
X0116636Y0394661D01*
X0115700Y0394847D01*
X0114764Y0394661D01*
X0113970Y0394130D01*
X0113439Y0393336D01*
X0113253Y0392400D01*
X0113439Y0391464D01*
X0113970Y0390670D01*
X0114229Y0390496D01*
Y0389304D01*
X0113970Y0389130D01*
X0113439Y0388336D01*
X0113253Y0387400D01*
X0113439Y0386464D01*
X0113970Y0385670D01*
X0114764Y0385139D01*
X0115700Y0384953D01*
X0116636Y0385139D01*
X0117430Y0385670D01*
X0117604Y0385929D01*
X0118796D01*
X0118970Y0385670D01*
X0119764Y0385139D01*
X0120700Y0384953D01*
X0121636Y0385139D01*
X0122430Y0385670D01*
X0122604Y0385929D01*
X0123796D01*
X0123970Y0385670D01*
X0124764Y0385139D01*
X0125700Y0384953D01*
X0126636Y0385139D01*
X0127430Y0385670D01*
X0127604Y0385929D01*
X0128796D01*
X0128970Y0385670D01*
X0129764Y0385139D01*
X0130700Y0384953D01*
X0131636Y0385139D01*
X0132430Y0385670D01*
X0132604Y0385929D01*
X0133796D01*
X0133970Y0385670D01*
X0134764Y0385139D01*
X0135700Y0384953D01*
X0136636Y0385139D01*
X0137430Y0385670D01*
X0137604Y0385929D01*
X0138796D01*
X0138970Y0385670D01*
X0139764Y0385139D01*
X0140700Y0384953D01*
X0141636Y0385139D01*
X0142430Y0385670D01*
X0142961Y0386464D01*
X0143147Y0387400D01*
X0142961Y0388336D01*
X0142430Y0389130D01*
X0142171Y0389304D01*
Y0390496D01*
X0142430Y0390670D01*
X0142961Y0391464D01*
X0143147Y0392400D01*
X0142961Y0393336D01*
X0142430Y0394130D01*
X0141636Y0394661D01*
X0140700Y0394847D01*
D02*
G37*
G36*
X0207700Y0391347D02*
X0206764Y0391161D01*
X0205970Y0390630D01*
X0205439Y0389836D01*
X0205253Y0388900D01*
X0205439Y0387964D01*
X0205970Y0387170D01*
X0206764Y0386639D01*
X0207700Y0386453D01*
X0208217Y0386556D01*
X0208597Y0386178D01*
X0208915Y0385714D01*
X0208753Y0384900D01*
X0208939Y0383964D01*
X0209470Y0383170D01*
X0210216Y0382671D01*
X0210264Y0382333D01*
Y0381967D01*
X0210216Y0381629D01*
X0209470Y0381130D01*
X0208939Y0380336D01*
X0208753Y0379400D01*
X0208939Y0378464D01*
X0209470Y0377670D01*
X0210264Y0377139D01*
X0211200Y0376953D01*
X0212136Y0377139D01*
X0212880Y0377636D01*
X0213094Y0377580D01*
X0213810Y0377186D01*
X0213753Y0376900D01*
X0213939Y0375964D01*
X0214470Y0375170D01*
X0215264Y0374639D01*
X0216200Y0374453D01*
X0217136Y0374639D01*
X0217930Y0375170D01*
X0218020Y0375304D01*
X0219169Y0375476D01*
X0219513Y0375203D01*
X0219484Y0374140D01*
X0219470Y0374130D01*
X0218939Y0373336D01*
X0218753Y0372400D01*
X0218939Y0371464D01*
X0219470Y0370670D01*
X0220264Y0370139D01*
X0221200Y0369953D01*
X0222136Y0370139D01*
X0222930Y0370670D01*
X0223461Y0371464D01*
X0223647Y0372400D01*
X0223461Y0373336D01*
X0222930Y0374130D01*
X0222671Y0374304D01*
Y0375496D01*
X0222930Y0375670D01*
X0223461Y0376464D01*
X0223647Y0377400D01*
X0223461Y0378336D01*
X0222930Y0379130D01*
X0222136Y0379661D01*
X0221200Y0379847D01*
X0220264Y0379661D01*
X0219470Y0379130D01*
X0219380Y0378996D01*
X0218231Y0378824D01*
X0217887Y0379097D01*
X0217916Y0380160D01*
X0217930Y0380170D01*
X0218461Y0380964D01*
X0218647Y0381900D01*
X0218461Y0382836D01*
X0217930Y0383630D01*
X0217136Y0384161D01*
X0216200Y0384347D01*
X0215264Y0384161D01*
X0214470Y0383630D01*
X0213939Y0382836D01*
X0213753Y0381900D01*
X0213787Y0381730D01*
X0212930Y0381269D01*
X0212226Y0381737D01*
X0212237Y0382707D01*
X0212930Y0383170D01*
X0213461Y0383964D01*
X0213647Y0384900D01*
X0213461Y0385836D01*
X0212930Y0386630D01*
X0212136Y0387161D01*
X0211200Y0387347D01*
X0210683Y0387244D01*
X0210303Y0387622D01*
X0209985Y0388086D01*
X0210147Y0388900D01*
X0209961Y0389836D01*
X0209430Y0390630D01*
X0208636Y0391161D01*
X0207700Y0391347D01*
D02*
G37*
G36*
X0211200Y0371847D02*
X0210264Y0371661D01*
X0209470Y0371130D01*
X0208939Y0370336D01*
X0208753Y0369400D01*
X0208939Y0368464D01*
X0209470Y0367670D01*
X0209729Y0367496D01*
Y0366304D01*
X0209470Y0366130D01*
X0208939Y0365336D01*
X0208885Y0365064D01*
X0208743Y0364399D01*
X0207799Y0364338D01*
X0207755Y0364347D01*
X0206819Y0364161D01*
X0206025Y0363630D01*
X0205494Y0362836D01*
X0205308Y0361900D01*
X0205494Y0360964D01*
X0206025Y0360170D01*
X0206819Y0359639D01*
X0207755Y0359453D01*
X0207847Y0359471D01*
X0208753Y0358900D01*
X0208939Y0357964D01*
X0209470Y0357170D01*
X0210216Y0356671D01*
X0210264Y0356333D01*
Y0355967D01*
X0210216Y0355629D01*
X0209470Y0355130D01*
X0208939Y0354336D01*
X0208753Y0353400D01*
X0208939Y0352464D01*
X0209470Y0351670D01*
X0209729Y0351496D01*
Y0350304D01*
X0209470Y0350130D01*
X0208939Y0349336D01*
X0208753Y0348400D01*
X0208939Y0347464D01*
X0209470Y0346670D01*
X0210264Y0346139D01*
X0211200Y0345953D01*
X0212136Y0346139D01*
X0212930Y0346670D01*
X0213461Y0347464D01*
X0213647Y0348400D01*
X0213461Y0349336D01*
X0212930Y0350130D01*
X0212671Y0350304D01*
Y0351496D01*
X0212930Y0351670D01*
X0213461Y0352464D01*
X0213647Y0353400D01*
X0213461Y0354336D01*
X0212930Y0355130D01*
X0212184Y0355629D01*
X0212136Y0355967D01*
Y0356333D01*
X0212184Y0356671D01*
X0212930Y0357170D01*
X0213429Y0357916D01*
X0213767Y0357964D01*
X0214133D01*
X0214471Y0357916D01*
X0214970Y0357170D01*
X0215764Y0356639D01*
X0216700Y0356453D01*
X0217636Y0356639D01*
X0218430Y0357170D01*
X0218929Y0357916D01*
X0219267Y0357964D01*
X0219633D01*
X0219971Y0357916D01*
X0220470Y0357170D01*
X0221216Y0356671D01*
X0221264Y0356333D01*
Y0355967D01*
X0221216Y0355629D01*
X0220470Y0355130D01*
X0219939Y0354336D01*
X0219753Y0353400D01*
X0219939Y0352464D01*
X0220470Y0351670D01*
X0220729Y0351496D01*
Y0350304D01*
X0220470Y0350130D01*
X0219939Y0349336D01*
X0219753Y0348400D01*
X0219939Y0347464D01*
X0220470Y0346670D01*
X0220729Y0346496D01*
Y0345304D01*
X0220470Y0345130D01*
X0219939Y0344336D01*
X0219753Y0343400D01*
X0219939Y0342464D01*
X0220470Y0341670D01*
X0220729Y0341496D01*
Y0340304D01*
X0220470Y0340130D01*
X0219939Y0339336D01*
X0219753Y0338400D01*
X0219939Y0337464D01*
X0220470Y0336670D01*
X0221264Y0336139D01*
X0221899Y0336013D01*
X0222274Y0335180D01*
X0222293Y0334993D01*
X0221700Y0334400D01*
Y0332400D01*
X0221811Y0332289D01*
X0221482Y0331204D01*
X0221264Y0331161D01*
X0220470Y0330630D01*
X0219939Y0329836D01*
X0219753Y0328900D01*
X0219939Y0327964D01*
X0220470Y0327170D01*
X0220729Y0326996D01*
Y0325804D01*
X0220470Y0325630D01*
X0219939Y0324836D01*
X0219753Y0323900D01*
X0219939Y0322964D01*
X0220470Y0322170D01*
X0220729Y0321996D01*
Y0320804D01*
X0220470Y0320630D01*
X0219939Y0319836D01*
X0219753Y0318900D01*
X0219939Y0317964D01*
X0220470Y0317170D01*
X0220729Y0316996D01*
Y0315804D01*
X0220470Y0315630D01*
X0219939Y0314836D01*
X0219753Y0313900D01*
X0219939Y0312964D01*
X0220470Y0312170D01*
X0221264Y0311639D01*
X0222200Y0311453D01*
X0223136Y0311639D01*
X0223930Y0312170D01*
X0224461Y0312964D01*
X0224647Y0313900D01*
X0224461Y0314836D01*
X0223930Y0315630D01*
X0223671Y0315804D01*
Y0316996D01*
X0223930Y0317170D01*
X0224461Y0317964D01*
X0224647Y0318900D01*
X0224461Y0319836D01*
X0223930Y0320630D01*
X0223671Y0320804D01*
Y0321996D01*
X0223930Y0322170D01*
X0224461Y0322964D01*
X0224647Y0323900D01*
X0224461Y0324836D01*
X0223930Y0325630D01*
X0223671Y0325804D01*
Y0326996D01*
X0223930Y0327170D01*
X0224461Y0327964D01*
X0224647Y0328900D01*
X0224461Y0329836D01*
X0224366Y0329978D01*
X0224833Y0331079D01*
X0224835Y0331079D01*
X0225136Y0331139D01*
X0225374Y0331249D01*
X0225700Y0331400D01*
X0226571Y0331089D01*
X0226637Y0331030D01*
Y0330847D01*
X0229434D01*
X0230200Y0331624D01*
Y0335060D01*
X0229413Y0335847D01*
X0226637D01*
Y0335770D01*
X0226558Y0335698D01*
X0226063Y0335459D01*
X0225700Y0335400D01*
X0225374Y0335551D01*
X0225136Y0335661D01*
X0224833Y0335721D01*
X0224430Y0335801D01*
X0224153Y0336282D01*
X0224101Y0336423D01*
X0224032Y0336822D01*
X0224461Y0337464D01*
X0224647Y0338400D01*
X0224461Y0339336D01*
X0223930Y0340130D01*
X0223671Y0340304D01*
Y0341496D01*
X0223930Y0341670D01*
X0224461Y0342464D01*
X0224647Y0343400D01*
X0224461Y0344336D01*
X0223930Y0345130D01*
X0223671Y0345304D01*
Y0346496D01*
X0223930Y0346670D01*
X0224461Y0347464D01*
X0224647Y0348400D01*
X0224461Y0349336D01*
X0223930Y0350130D01*
X0223671Y0350304D01*
Y0351496D01*
X0223930Y0351670D01*
X0224461Y0352464D01*
X0224647Y0353400D01*
X0224461Y0354336D01*
X0223930Y0355130D01*
X0223184Y0355629D01*
X0223136Y0355967D01*
Y0356333D01*
X0223184Y0356671D01*
X0223930Y0357170D01*
X0224461Y0357964D01*
X0224647Y0358900D01*
X0224757Y0359031D01*
X0225530Y0359586D01*
X0226200Y0359453D01*
X0227136Y0359639D01*
X0227930Y0360170D01*
X0228461Y0360964D01*
X0228647Y0361900D01*
X0228461Y0362836D01*
X0227930Y0363630D01*
X0227136Y0364161D01*
X0226200Y0364347D01*
X0225264Y0364161D01*
X0224470Y0363630D01*
X0223939Y0362836D01*
X0223753Y0361900D01*
X0223643Y0361769D01*
X0222870Y0361214D01*
X0222200Y0361347D01*
X0221264Y0361161D01*
X0220470Y0360630D01*
X0219971Y0359884D01*
X0219633Y0359836D01*
X0219267D01*
X0218929Y0359884D01*
X0218430Y0360630D01*
X0217684Y0361129D01*
X0217636Y0361467D01*
Y0361833D01*
X0217684Y0362171D01*
X0218430Y0362670D01*
X0218961Y0363464D01*
X0219147Y0364400D01*
X0218961Y0365336D01*
X0218430Y0366130D01*
X0217636Y0366661D01*
X0216700Y0366847D01*
X0215764Y0366661D01*
X0214970Y0366130D01*
X0214471Y0365384D01*
X0214133Y0365336D01*
X0213767D01*
X0213429Y0365384D01*
X0212930Y0366130D01*
X0212671Y0366304D01*
Y0367496D01*
X0212930Y0367670D01*
X0213461Y0368464D01*
X0213647Y0369400D01*
X0213461Y0370336D01*
X0212930Y0371130D01*
X0212136Y0371661D01*
X0211200Y0371847D01*
D02*
G37*
G36*
X0193200Y0389347D02*
X0192264Y0389161D01*
X0191470Y0388630D01*
X0191296Y0388371D01*
X0190104D01*
X0189930Y0388630D01*
X0189136Y0389161D01*
X0188200Y0389347D01*
X0187264Y0389161D01*
X0186470Y0388630D01*
X0186296Y0388371D01*
X0185104D01*
X0184930Y0388630D01*
X0184136Y0389161D01*
X0183200Y0389347D01*
X0182264Y0389161D01*
X0181470Y0388630D01*
X0180939Y0387836D01*
X0180753Y0386900D01*
X0180939Y0385964D01*
X0181470Y0385170D01*
X0182216Y0384671D01*
X0182264Y0384333D01*
Y0383967D01*
X0182216Y0383629D01*
X0181470Y0383130D01*
X0180939Y0382336D01*
X0180753Y0381400D01*
X0180939Y0380464D01*
X0181470Y0379670D01*
X0182216Y0379171D01*
X0182264Y0378833D01*
Y0378467D01*
X0182216Y0378129D01*
X0181470Y0377630D01*
X0180939Y0376836D01*
X0180753Y0375900D01*
X0180939Y0374964D01*
X0181470Y0374170D01*
X0182264Y0373639D01*
X0183200Y0373453D01*
X0184136Y0373639D01*
X0184930Y0374170D01*
X0185104Y0374429D01*
X0186296D01*
X0186470Y0374170D01*
X0187264Y0373639D01*
X0188200Y0373453D01*
X0189136Y0373639D01*
X0189930Y0374170D01*
X0190104Y0374429D01*
X0191296D01*
X0191470Y0374170D01*
X0192264Y0373639D01*
X0193200Y0373453D01*
X0194136Y0373639D01*
X0194930Y0374170D01*
X0195461Y0374964D01*
X0195647Y0375900D01*
X0195461Y0376836D01*
X0194930Y0377630D01*
X0194184Y0378129D01*
X0194136Y0378467D01*
Y0378833D01*
X0194184Y0379171D01*
X0194930Y0379670D01*
X0195461Y0380464D01*
X0195647Y0381400D01*
X0195461Y0382336D01*
X0194930Y0383130D01*
X0194184Y0383629D01*
X0194136Y0383967D01*
Y0384333D01*
X0194184Y0384671D01*
X0194930Y0385170D01*
X0195461Y0385964D01*
X0195647Y0386900D01*
X0195461Y0387836D01*
X0194930Y0388630D01*
X0194136Y0389161D01*
X0193200Y0389347D01*
D02*
G37*
G36*
X0170700Y0392847D02*
X0169764Y0392661D01*
X0168970Y0392130D01*
X0168439Y0391336D01*
X0168253Y0390400D01*
X0168439Y0389464D01*
X0168970Y0388670D01*
X0169764Y0388139D01*
X0170700Y0387953D01*
X0171636Y0388139D01*
X0172430Y0388670D01*
X0172961Y0389464D01*
X0173147Y0390400D01*
X0172961Y0391336D01*
X0172430Y0392130D01*
X0171636Y0392661D01*
X0170700Y0392847D01*
D02*
G37*
G36*
X0386200Y0430498D02*
X0384751Y0430307D01*
X0383401Y0429748D01*
X0382242Y0428858D01*
X0381352Y0427699D01*
X0380793Y0426349D01*
X0380602Y0424900D01*
X0380793Y0423451D01*
X0381352Y0422101D01*
X0382242Y0420942D01*
X0383401Y0420052D01*
X0384751Y0419493D01*
X0386200Y0419302D01*
X0387649Y0419493D01*
X0388999Y0420052D01*
X0390158Y0420942D01*
X0391048Y0422101D01*
X0391607Y0423451D01*
X0391798Y0424900D01*
X0391607Y0426349D01*
X0391048Y0427699D01*
X0390158Y0428858D01*
X0388999Y0429748D01*
X0387649Y0430307D01*
X0386200Y0430498D01*
D02*
G37*
G36*
X0089200Y0515384D02*
X0086983Y0515239D01*
X0084804Y0514806D01*
X0082700Y0514091D01*
X0080708Y0513109D01*
X0078861Y0511875D01*
X0077190Y0510410D01*
X0075725Y0508739D01*
X0074491Y0506892D01*
X0073509Y0504900D01*
X0072794Y0502796D01*
X0072361Y0500617D01*
X0072216Y0498400D01*
X0072361Y0496183D01*
X0072794Y0494004D01*
X0073509Y0491900D01*
X0074491Y0489908D01*
X0075725Y0488061D01*
X0077190Y0486390D01*
X0078861Y0484925D01*
X0080708Y0483691D01*
X0082700Y0482709D01*
X0084804Y0481994D01*
X0086983Y0481561D01*
X0089200Y0481416D01*
X0091417Y0481561D01*
X0093596Y0481994D01*
X0095700Y0482709D01*
X0097692Y0483691D01*
X0099539Y0484925D01*
X0101210Y0486390D01*
X0102675Y0488061D01*
X0103909Y0489908D01*
X0104892Y0491900D01*
X0105606Y0494004D01*
X0106039Y0496183D01*
X0106184Y0498400D01*
X0106039Y0500617D01*
X0105606Y0502796D01*
X0104892Y0504900D01*
X0103909Y0506892D01*
X0102675Y0508739D01*
X0101210Y0510410D01*
X0099539Y0511875D01*
X0097692Y0513109D01*
X0095700Y0514091D01*
X0093596Y0514806D01*
X0091417Y0515239D01*
X0089200Y0515384D01*
D02*
G37*
G36*
X0419200Y0471261D02*
X0416416Y0471105D01*
X0413668Y0470638D01*
X0410989Y0469866D01*
X0408413Y0468799D01*
X0405973Y0467451D01*
X0403699Y0465837D01*
X0401620Y0463979D01*
X0399763Y0461901D01*
X0398149Y0459627D01*
X0396955Y0457465D01*
X0396412Y0457395D01*
X0396114Y0457415D01*
X0395849Y0457503D01*
X0395430Y0458130D01*
X0394636Y0458661D01*
X0393700Y0458847D01*
X0392764Y0458661D01*
X0391970Y0458130D01*
X0391796Y0457871D01*
X0390604D01*
X0390430Y0458130D01*
X0389636Y0458661D01*
X0388700Y0458847D01*
X0387764Y0458661D01*
X0386970Y0458130D01*
X0386796Y0457871D01*
X0385604D01*
X0385430Y0458130D01*
X0384636Y0458661D01*
X0383700Y0458847D01*
X0382764Y0458661D01*
X0381970Y0458130D01*
X0381439Y0457336D01*
X0381253Y0456400D01*
X0381439Y0455464D01*
X0381970Y0454670D01*
X0382229Y0454496D01*
Y0453304D01*
X0381970Y0453130D01*
X0381439Y0452336D01*
X0381253Y0451400D01*
X0381439Y0450464D01*
X0381970Y0449670D01*
X0382229Y0449496D01*
Y0448304D01*
X0381970Y0448130D01*
X0381439Y0447336D01*
X0381253Y0446400D01*
X0381439Y0445464D01*
X0381970Y0444670D01*
X0382229Y0444496D01*
Y0443304D01*
X0381970Y0443130D01*
X0381439Y0442336D01*
X0381253Y0441400D01*
X0381439Y0440464D01*
X0381970Y0439670D01*
X0382229Y0439496D01*
Y0438304D01*
X0381970Y0438130D01*
X0381439Y0437336D01*
X0381253Y0436400D01*
X0381439Y0435464D01*
X0381970Y0434670D01*
X0382764Y0434139D01*
X0383700Y0433953D01*
X0384636Y0434139D01*
X0385430Y0434670D01*
X0385604Y0434929D01*
X0386796D01*
X0386970Y0434670D01*
X0387764Y0434139D01*
X0388700Y0433953D01*
X0389636Y0434139D01*
X0390430Y0434670D01*
X0390604Y0434929D01*
X0391796D01*
X0391970Y0434670D01*
X0392764Y0434139D01*
X0393700Y0433953D01*
X0394636Y0434139D01*
X0395430Y0434670D01*
X0395849Y0435297D01*
X0396114Y0435385D01*
X0396412Y0435405D01*
X0396955Y0435335D01*
X0398149Y0433173D01*
X0399763Y0430899D01*
X0401620Y0428821D01*
X0403699Y0426963D01*
X0405973Y0425350D01*
X0408413Y0424001D01*
X0410989Y0422934D01*
X0413668Y0422162D01*
X0416416Y0421695D01*
X0419200Y0421539D01*
X0421984Y0421695D01*
X0424732Y0422162D01*
X0427411Y0422934D01*
X0429987Y0424001D01*
X0432427Y0425350D01*
X0434701Y0426963D01*
X0436779Y0428821D01*
X0438637Y0430899D01*
X0440250Y0433173D01*
X0441599Y0435613D01*
X0442666Y0438189D01*
X0443438Y0440868D01*
X0443905Y0443616D01*
X0444061Y0446400D01*
X0443905Y0449184D01*
X0443438Y0451932D01*
X0442666Y0454611D01*
X0441599Y0457187D01*
X0440250Y0459627D01*
X0438637Y0461901D01*
X0436779Y0463979D01*
X0434701Y0465837D01*
X0432427Y0467451D01*
X0429987Y0468799D01*
X0427411Y0469866D01*
X0424732Y0470638D01*
X0421984Y0471105D01*
X0419200Y0471261D01*
D02*
G37*
G36*
X0133200Y0491596D02*
X0132373Y0491487D01*
X0131602Y0491168D01*
X0130940Y0490660D01*
X0130432Y0489998D01*
X0130113Y0489227D01*
X0130004Y0488400D01*
X0130113Y0487573D01*
X0130432Y0486802D01*
X0130940Y0486140D01*
X0131602Y0485632D01*
X0132373Y0485313D01*
X0133200Y0485204D01*
X0134027Y0485313D01*
X0134798Y0485632D01*
X0135460Y0486140D01*
X0135968Y0486802D01*
X0136287Y0487573D01*
X0136396Y0488400D01*
X0136287Y0489227D01*
X0135968Y0489998D01*
X0135460Y0490660D01*
X0134798Y0491168D01*
X0134027Y0491487D01*
X0133200Y0491596D01*
D02*
G37*
G36*
X0429700Y0515384D02*
X0427483Y0515239D01*
X0425304Y0514806D01*
X0423200Y0514091D01*
X0421208Y0513109D01*
X0419361Y0511875D01*
X0417690Y0510410D01*
X0416225Y0508739D01*
X0414991Y0506892D01*
X0414009Y0504900D01*
X0413294Y0502796D01*
X0412861Y0500617D01*
X0412716Y0498400D01*
X0412861Y0496183D01*
X0413294Y0494004D01*
X0414009Y0491900D01*
X0414991Y0489908D01*
X0416225Y0488061D01*
X0417690Y0486390D01*
X0419361Y0484925D01*
X0421208Y0483691D01*
X0423200Y0482709D01*
X0425304Y0481994D01*
X0427483Y0481561D01*
X0429700Y0481416D01*
X0431917Y0481561D01*
X0434096Y0481994D01*
X0436200Y0482709D01*
X0438192Y0483691D01*
X0440039Y0484925D01*
X0441710Y0486390D01*
X0443175Y0488061D01*
X0444409Y0489908D01*
X0445392Y0491900D01*
X0446106Y0494004D01*
X0446539Y0496183D01*
X0446684Y0498400D01*
X0446539Y0500617D01*
X0446106Y0502796D01*
X0445392Y0504900D01*
X0444409Y0506892D01*
X0443175Y0508739D01*
X0441710Y0510410D01*
X0440039Y0511875D01*
X0438192Y0513109D01*
X0436200Y0514091D01*
X0434096Y0514806D01*
X0431917Y0515239D01*
X0429700Y0515384D01*
D02*
G37*
G36*
X0170200Y0422847D02*
X0169264Y0422661D01*
X0168470Y0422130D01*
X0167971Y0421384D01*
X0167633Y0421336D01*
X0167267D01*
X0166929Y0421384D01*
X0166430Y0422130D01*
X0165636Y0422661D01*
X0164700Y0422847D01*
X0163764Y0422661D01*
X0162970Y0422130D01*
X0162471Y0421384D01*
X0162133Y0421336D01*
X0161767D01*
X0161429Y0421384D01*
X0160930Y0422130D01*
X0160136Y0422661D01*
X0159200Y0422847D01*
X0158264Y0422661D01*
X0157470Y0422130D01*
X0156939Y0421336D01*
X0156753Y0420400D01*
X0156939Y0419464D01*
X0157470Y0418670D01*
X0157729Y0418496D01*
Y0417304D01*
X0157470Y0417130D01*
X0156939Y0416336D01*
X0156753Y0415400D01*
X0156939Y0414464D01*
X0157470Y0413670D01*
X0157729Y0413496D01*
Y0412304D01*
X0157470Y0412130D01*
X0156939Y0411336D01*
X0156753Y0410400D01*
X0156939Y0409464D01*
X0157470Y0408670D01*
X0158264Y0408139D01*
X0159200Y0407953D01*
X0160136Y0408139D01*
X0160930Y0408670D01*
X0161429Y0409416D01*
X0161767Y0409464D01*
X0162133D01*
X0162471Y0409416D01*
X0162970Y0408670D01*
X0163764Y0408139D01*
X0164700Y0407953D01*
X0165636Y0408139D01*
X0166430Y0408670D01*
X0166929Y0409416D01*
X0167267Y0409464D01*
X0167633D01*
X0167971Y0409416D01*
X0168470Y0408670D01*
X0169264Y0408139D01*
X0170200Y0407953D01*
X0171136Y0408139D01*
X0171930Y0408670D01*
X0172461Y0409464D01*
X0172647Y0410400D01*
X0172461Y0411336D01*
X0171930Y0412130D01*
X0171671Y0412304D01*
Y0413496D01*
X0171930Y0413670D01*
X0172461Y0414464D01*
X0172647Y0415400D01*
X0172461Y0416336D01*
X0171930Y0417130D01*
X0171671Y0417304D01*
Y0418496D01*
X0171930Y0418670D01*
X0172461Y0419464D01*
X0172647Y0420400D01*
X0172461Y0421336D01*
X0171930Y0422130D01*
X0171136Y0422661D01*
X0170200Y0422847D01*
D02*
G37*
G36*
X0199200Y0422347D02*
X0198264Y0422161D01*
X0197470Y0421630D01*
X0196971Y0420884D01*
X0196633Y0420836D01*
X0196267D01*
X0195929Y0420884D01*
X0195430Y0421630D01*
X0194636Y0422161D01*
X0193700Y0422347D01*
X0192764Y0422161D01*
X0191970Y0421630D01*
X0191471Y0420884D01*
X0191133Y0420836D01*
X0190767D01*
X0190429Y0420884D01*
X0189930Y0421630D01*
X0189136Y0422161D01*
X0188200Y0422347D01*
X0187264Y0422161D01*
X0186470Y0421630D01*
X0185939Y0420836D01*
X0185753Y0419900D01*
X0185939Y0418964D01*
X0186470Y0418170D01*
X0186729Y0417996D01*
Y0416804D01*
X0186470Y0416630D01*
X0185939Y0415836D01*
X0185753Y0414900D01*
X0185939Y0413964D01*
X0186470Y0413170D01*
X0186729Y0412996D01*
Y0411804D01*
X0186470Y0411630D01*
X0185939Y0410836D01*
X0185753Y0409900D01*
X0185939Y0408964D01*
X0186470Y0408170D01*
X0187264Y0407639D01*
X0188200Y0407453D01*
X0189136Y0407639D01*
X0189930Y0408170D01*
X0190429Y0408916D01*
X0190767Y0408964D01*
X0191133D01*
X0191471Y0408916D01*
X0191970Y0408170D01*
X0192764Y0407639D01*
X0193700Y0407453D01*
X0194636Y0407639D01*
X0195430Y0408170D01*
X0195929Y0408916D01*
X0196267Y0408964D01*
X0196633D01*
X0196971Y0408916D01*
X0197470Y0408170D01*
X0198264Y0407639D01*
X0199200Y0407453D01*
X0200136Y0407639D01*
X0200930Y0408170D01*
X0201461Y0408964D01*
X0201647Y0409900D01*
X0201461Y0410836D01*
X0200930Y0411630D01*
X0200671Y0411804D01*
Y0412996D01*
X0200930Y0413170D01*
X0201461Y0413964D01*
X0201647Y0414900D01*
X0201461Y0415836D01*
X0200930Y0416630D01*
X0200671Y0416804D01*
Y0417996D01*
X0200930Y0418170D01*
X0201461Y0418964D01*
X0201647Y0419900D01*
X0201461Y0420836D01*
X0200930Y0421630D01*
X0200136Y0422161D01*
X0199200Y0422347D01*
D02*
G37*
G36*
X0337700Y0434847D02*
X0336764Y0434661D01*
X0335970Y0434130D01*
X0335950Y0434101D01*
X0334950D01*
X0334930Y0434130D01*
X0334136Y0434661D01*
X0333200Y0434847D01*
X0332264Y0434661D01*
X0331470Y0434130D01*
X0331296Y0433871D01*
X0330104D01*
X0329930Y0434130D01*
X0329136Y0434661D01*
X0328200Y0434847D01*
X0327264Y0434661D01*
X0326470Y0434130D01*
X0325939Y0433336D01*
X0325753Y0432400D01*
X0325939Y0431464D01*
X0326470Y0430670D01*
X0327264Y0430139D01*
X0328200Y0429953D01*
X0329136Y0430139D01*
X0329930Y0430670D01*
X0330104Y0430929D01*
X0331296D01*
X0331470Y0430670D01*
X0332264Y0430139D01*
X0333200Y0429953D01*
X0334136Y0430139D01*
X0334930Y0430670D01*
X0334950Y0430699D01*
X0335950D01*
X0335970Y0430670D01*
X0336764Y0430139D01*
X0337700Y0429953D01*
X0338636Y0430139D01*
X0339430Y0430670D01*
X0339961Y0431464D01*
X0340147Y0432400D01*
X0339961Y0433336D01*
X0339430Y0434130D01*
X0338636Y0434661D01*
X0337700Y0434847D01*
D02*
G37*
G36*
X0269700Y0422847D02*
X0268764Y0422661D01*
X0267970Y0422130D01*
X0267796Y0421871D01*
X0266604D01*
X0266430Y0422130D01*
X0265636Y0422661D01*
X0264700Y0422847D01*
X0263764Y0422661D01*
X0262970Y0422130D01*
X0262796Y0421871D01*
X0261604D01*
X0261430Y0422130D01*
X0260636Y0422661D01*
X0259700Y0422847D01*
X0258764Y0422661D01*
X0257970Y0422130D01*
X0257796Y0421871D01*
X0256604D01*
X0256430Y0422130D01*
X0255636Y0422661D01*
X0254700Y0422847D01*
X0253764Y0422661D01*
X0252970Y0422130D01*
X0252796Y0421871D01*
X0251604D01*
X0251430Y0422130D01*
X0250636Y0422661D01*
X0249700Y0422847D01*
X0248764Y0422661D01*
X0247970Y0422130D01*
X0247796Y0421871D01*
X0246604D01*
X0246430Y0422130D01*
X0245636Y0422661D01*
X0244700Y0422847D01*
X0243764Y0422661D01*
X0242970Y0422130D01*
X0242796Y0421871D01*
X0241604D01*
X0241430Y0422130D01*
X0240636Y0422661D01*
X0239700Y0422847D01*
X0238764Y0422661D01*
X0237970Y0422130D01*
X0237796Y0421871D01*
X0236604D01*
X0236430Y0422130D01*
X0235636Y0422661D01*
X0234700Y0422847D01*
X0233764Y0422661D01*
X0232970Y0422130D01*
X0232796Y0421871D01*
X0231604D01*
X0231430Y0422130D01*
X0230636Y0422661D01*
X0229700Y0422847D01*
X0228764Y0422661D01*
X0227970Y0422130D01*
X0227796Y0421871D01*
X0226604D01*
X0226430Y0422130D01*
X0225636Y0422661D01*
X0224700Y0422847D01*
X0223764Y0422661D01*
X0222970Y0422130D01*
X0222796Y0421871D01*
X0221604D01*
X0221430Y0422130D01*
X0220636Y0422661D01*
X0219700Y0422847D01*
X0218764Y0422661D01*
X0217970Y0422130D01*
X0217796Y0421871D01*
X0216604D01*
X0216430Y0422130D01*
X0215636Y0422661D01*
X0214700Y0422847D01*
X0213764Y0422661D01*
X0212970Y0422130D01*
X0212439Y0421336D01*
X0212253Y0420400D01*
X0212439Y0419464D01*
X0212894Y0418783D01*
X0212999Y0418407D01*
Y0417893D01*
X0212894Y0417517D01*
X0212439Y0416836D01*
X0212253Y0415900D01*
X0212439Y0414964D01*
X0212970Y0414170D01*
X0213764Y0413639D01*
X0214700Y0413453D01*
X0215636Y0413639D01*
X0216430Y0414170D01*
X0216604Y0414429D01*
X0217796D01*
X0217970Y0414170D01*
X0218764Y0413639D01*
X0219700Y0413453D01*
X0220636Y0413639D01*
X0221430Y0414170D01*
X0221604Y0414429D01*
X0222796D01*
X0222970Y0414170D01*
X0223764Y0413639D01*
X0224700Y0413453D01*
X0225636Y0413639D01*
X0226430Y0414170D01*
X0226604Y0414429D01*
X0227796D01*
X0227970Y0414170D01*
X0228764Y0413639D01*
X0229700Y0413453D01*
X0230636Y0413639D01*
X0231430Y0414170D01*
X0231604Y0414429D01*
X0232796D01*
X0232970Y0414170D01*
X0233764Y0413639D01*
X0234700Y0413453D01*
X0235636Y0413639D01*
X0236430Y0414170D01*
X0236604Y0414429D01*
X0237796D01*
X0237970Y0414170D01*
X0238764Y0413639D01*
X0239700Y0413453D01*
X0240636Y0413639D01*
X0241430Y0414170D01*
X0241604Y0414429D01*
X0242796D01*
X0242970Y0414170D01*
X0243764Y0413639D01*
X0244700Y0413453D01*
X0245636Y0413639D01*
X0246430Y0414170D01*
X0246604Y0414429D01*
X0247796D01*
X0247970Y0414170D01*
X0248764Y0413639D01*
X0249700Y0413453D01*
X0250636Y0413639D01*
X0251430Y0414170D01*
X0251604Y0414429D01*
X0252796D01*
X0252970Y0414170D01*
X0253764Y0413639D01*
X0254700Y0413453D01*
X0255636Y0413639D01*
X0256430Y0414170D01*
X0256604Y0414429D01*
X0257796D01*
X0257970Y0414170D01*
X0258764Y0413639D01*
X0259700Y0413453D01*
X0260636Y0413639D01*
X0261430Y0414170D01*
X0261604Y0414429D01*
X0262796D01*
X0262970Y0414170D01*
X0263764Y0413639D01*
X0264700Y0413453D01*
X0265636Y0413639D01*
X0266430Y0414170D01*
X0266604Y0414429D01*
X0267796D01*
X0267970Y0414170D01*
X0268764Y0413639D01*
X0269700Y0413453D01*
X0270636Y0413639D01*
X0271430Y0414170D01*
X0271961Y0414964D01*
X0272147Y0415900D01*
X0271961Y0416836D01*
X0271506Y0417517D01*
X0271401Y0417893D01*
Y0418407D01*
X0271506Y0418783D01*
X0271961Y0419464D01*
X0272147Y0420400D01*
X0271961Y0421336D01*
X0271430Y0422130D01*
X0270636Y0422661D01*
X0269700Y0422847D01*
D02*
G37*
G36*
X0347200Y0338347D02*
X0346264Y0338161D01*
X0345470Y0337630D01*
X0344939Y0336836D01*
X0344753Y0335900D01*
X0344939Y0334964D01*
X0345470Y0334170D01*
X0346264Y0333639D01*
X0347200Y0333453D01*
X0348136Y0333639D01*
X0348930Y0334170D01*
X0349461Y0334964D01*
X0349647Y0335900D01*
X0349461Y0336836D01*
X0348930Y0337630D01*
X0348136Y0338161D01*
X0347200Y0338347D01*
D02*
G37*
G36*
X0354200Y0337347D02*
X0353264Y0337161D01*
X0352470Y0336630D01*
X0351939Y0335836D01*
X0351753Y0334900D01*
X0351939Y0333964D01*
X0352470Y0333170D01*
X0353264Y0332639D01*
X0354200Y0332453D01*
X0355136Y0332639D01*
X0355930Y0333170D01*
X0356461Y0333964D01*
X0356647Y0334900D01*
X0356461Y0335836D01*
X0355930Y0336630D01*
X0355136Y0337161D01*
X0354200Y0337347D01*
D02*
G37*
G36*
X0255200Y0344347D02*
X0254264Y0344161D01*
X0253470Y0343630D01*
X0252939Y0342836D01*
X0252753Y0341900D01*
X0252886Y0341230D01*
X0252331Y0340457D01*
X0252200Y0340347D01*
X0251264Y0340161D01*
X0250470Y0339630D01*
X0249939Y0338836D01*
X0249753Y0337900D01*
X0249939Y0336964D01*
X0250470Y0336170D01*
X0251264Y0335639D01*
X0252200Y0335453D01*
X0253136Y0335639D01*
X0253930Y0336170D01*
X0254461Y0336964D01*
X0254647Y0337900D01*
X0254514Y0338570D01*
X0255069Y0339343D01*
X0255200Y0339453D01*
X0255349Y0339483D01*
X0256253Y0338900D01*
X0256439Y0337964D01*
X0256970Y0337170D01*
X0257764Y0336639D01*
X0258700Y0336453D01*
X0259636Y0336639D01*
X0260430Y0337170D01*
X0260961Y0337964D01*
X0261147Y0338900D01*
X0260961Y0339836D01*
X0260430Y0340630D01*
X0259636Y0341161D01*
X0258700Y0341347D01*
X0258551Y0341317D01*
X0257647Y0341900D01*
X0257461Y0342836D01*
X0256930Y0343630D01*
X0256136Y0344161D01*
X0255200Y0344347D01*
D02*
G37*
G36*
X0381200Y0339847D02*
X0380264Y0339661D01*
X0379470Y0339130D01*
X0378939Y0338336D01*
X0378753Y0337400D01*
X0378939Y0336464D01*
X0379470Y0335670D01*
X0380264Y0335139D01*
X0381200Y0334953D01*
X0382136Y0335139D01*
X0382930Y0335670D01*
X0383461Y0336464D01*
X0383647Y0337400D01*
X0383461Y0338336D01*
X0382930Y0339130D01*
X0382136Y0339661D01*
X0381200Y0339847D01*
D02*
G37*
G36*
X0256700Y0327347D02*
X0255764Y0327161D01*
X0254970Y0326630D01*
X0254439Y0325836D01*
X0254253Y0324900D01*
X0254439Y0323964D01*
X0254970Y0323170D01*
X0255764Y0322639D01*
X0256700Y0322453D01*
X0257636Y0322639D01*
X0258430Y0323170D01*
X0258961Y0323964D01*
X0259147Y0324900D01*
X0258961Y0325836D01*
X0258430Y0326630D01*
X0257636Y0327161D01*
X0256700Y0327347D01*
D02*
G37*
G36*
X0194600Y0322347D02*
X0193664Y0322161D01*
X0192870Y0321630D01*
X0192696Y0321371D01*
X0191504D01*
X0191330Y0321630D01*
X0190536Y0322161D01*
X0189600Y0322347D01*
X0188664Y0322161D01*
X0187870Y0321630D01*
X0187696Y0321371D01*
X0186504D01*
X0186330Y0321630D01*
X0185536Y0322161D01*
X0184600Y0322347D01*
X0183664Y0322161D01*
X0182870Y0321630D01*
X0182339Y0320836D01*
X0182153Y0319900D01*
X0182339Y0318964D01*
X0182870Y0318170D01*
X0183616Y0317671D01*
X0183664Y0317333D01*
Y0316967D01*
X0183616Y0316629D01*
X0182870Y0316130D01*
X0182339Y0315336D01*
X0182153Y0314400D01*
X0182339Y0313464D01*
X0182870Y0312670D01*
X0183616Y0312171D01*
X0183664Y0311833D01*
Y0311467D01*
X0183616Y0311129D01*
X0182870Y0310630D01*
X0182339Y0309836D01*
X0182153Y0308900D01*
X0182339Y0307964D01*
X0182870Y0307170D01*
X0183664Y0306639D01*
X0184600Y0306453D01*
X0185536Y0306639D01*
X0186330Y0307170D01*
X0186504Y0307429D01*
X0187696D01*
X0187870Y0307170D01*
X0188664Y0306639D01*
X0189600Y0306453D01*
X0190536Y0306639D01*
X0191330Y0307170D01*
X0191504Y0307429D01*
X0192696D01*
X0192870Y0307170D01*
X0193664Y0306639D01*
X0194600Y0306453D01*
X0195536Y0306639D01*
X0196330Y0307170D01*
X0196861Y0307964D01*
X0197047Y0308900D01*
X0196861Y0309836D01*
X0196330Y0310630D01*
X0195584Y0311129D01*
X0195536Y0311467D01*
Y0311833D01*
X0195584Y0312171D01*
X0196330Y0312670D01*
X0196861Y0313464D01*
X0197047Y0314400D01*
X0196861Y0315336D01*
X0196330Y0316130D01*
X0195584Y0316629D01*
X0195536Y0316967D01*
Y0317333D01*
X0195584Y0317671D01*
X0196330Y0318170D01*
X0196861Y0318964D01*
X0197047Y0319900D01*
X0196861Y0320836D01*
X0196330Y0321630D01*
X0195536Y0322161D01*
X0194600Y0322347D01*
D02*
G37*
G36*
X0258700Y0333347D02*
X0257764Y0333161D01*
X0256970Y0332630D01*
X0256439Y0331836D01*
X0256253Y0330900D01*
X0256439Y0329964D01*
X0256970Y0329170D01*
X0257764Y0328639D01*
X0258700Y0328453D01*
X0259636Y0328639D01*
X0260430Y0329170D01*
X0260961Y0329964D01*
X0261147Y0330900D01*
X0260961Y0331836D01*
X0260430Y0332630D01*
X0259636Y0333161D01*
X0258700Y0333347D01*
D02*
G37*
G36*
X0211200Y0340847D02*
X0210264Y0340661D01*
X0209470Y0340130D01*
X0208939Y0339336D01*
X0208753Y0338400D01*
X0208939Y0337464D01*
X0209394Y0336783D01*
X0209499Y0336407D01*
Y0335893D01*
X0209394Y0335517D01*
X0208939Y0334836D01*
X0208753Y0333900D01*
X0208939Y0332964D01*
X0209470Y0332170D01*
X0209729Y0331996D01*
Y0330804D01*
X0209470Y0330630D01*
X0208939Y0329836D01*
X0208753Y0328900D01*
X0208939Y0327964D01*
X0209470Y0327170D01*
X0209729Y0326996D01*
Y0325804D01*
X0209470Y0325630D01*
X0208939Y0324836D01*
X0207818Y0324324D01*
X0207700Y0324347D01*
X0206764Y0324161D01*
X0205970Y0323630D01*
X0205439Y0322836D01*
X0205253Y0321900D01*
X0205439Y0320964D01*
X0205970Y0320170D01*
X0206764Y0319639D01*
X0207700Y0319453D01*
X0207849Y0319483D01*
X0208753Y0318900D01*
X0208939Y0317964D01*
X0209470Y0317170D01*
X0209729Y0316996D01*
Y0315804D01*
X0209470Y0315630D01*
X0208939Y0314836D01*
X0208753Y0313900D01*
X0208939Y0312964D01*
X0209470Y0312170D01*
X0210264Y0311639D01*
X0211200Y0311453D01*
X0212136Y0311639D01*
X0212930Y0312170D01*
X0213461Y0312964D01*
X0213647Y0313900D01*
X0213461Y0314836D01*
X0212930Y0315630D01*
X0212671Y0315804D01*
Y0316996D01*
X0212930Y0317170D01*
X0213461Y0317964D01*
X0213647Y0318900D01*
X0213461Y0319836D01*
X0212930Y0320630D01*
X0212671Y0320804D01*
Y0321996D01*
X0212930Y0322170D01*
X0213461Y0322964D01*
X0213647Y0323900D01*
X0213461Y0324836D01*
X0212930Y0325630D01*
X0212671Y0325804D01*
Y0326996D01*
X0212930Y0327170D01*
X0213461Y0327964D01*
X0213647Y0328900D01*
X0213461Y0329836D01*
X0212930Y0330630D01*
X0212671Y0330804D01*
Y0331996D01*
X0212930Y0332170D01*
X0213461Y0332964D01*
X0213647Y0333900D01*
X0213461Y0334836D01*
X0213006Y0335517D01*
X0212901Y0335893D01*
Y0336407D01*
X0213006Y0336783D01*
X0213461Y0337464D01*
X0213647Y0338400D01*
X0213461Y0339336D01*
X0212930Y0340130D01*
X0212136Y0340661D01*
X0211200Y0340847D01*
D02*
G37*
G36*
X0295700Y0343910D02*
X0294764Y0343724D01*
X0293970Y0343193D01*
X0293439Y0342399D01*
X0293253Y0341463D01*
X0293439Y0340527D01*
X0293970Y0339733D01*
X0294764Y0339202D01*
X0295700Y0339016D01*
X0296637Y0339202D01*
X0297430Y0339733D01*
X0297961Y0340527D01*
X0298147Y0341463D01*
X0297961Y0342399D01*
X0297430Y0343193D01*
X0296637Y0343724D01*
X0295700Y0343910D01*
D02*
G37*
G36*
X0277700Y0372498D02*
X0276251Y0372307D01*
X0274901Y0371748D01*
X0273742Y0370858D01*
X0272852Y0369699D01*
X0272293Y0368349D01*
X0272102Y0366900D01*
X0272293Y0365451D01*
X0272852Y0364101D01*
X0273742Y0362942D01*
X0274901Y0362052D01*
X0276251Y0361493D01*
X0277700Y0361302D01*
X0279149Y0361493D01*
X0280499Y0362052D01*
X0281658Y0362942D01*
X0282548Y0364101D01*
X0283107Y0365451D01*
X0283298Y0366900D01*
X0283107Y0368349D01*
X0282548Y0369699D01*
X0281658Y0370858D01*
X0280499Y0371748D01*
X0279149Y0372307D01*
X0277700Y0372498D01*
D02*
G37*
G36*
X0248700Y0357847D02*
X0247764Y0357661D01*
X0246970Y0357130D01*
X0246439Y0356336D01*
X0246253Y0355400D01*
X0246439Y0354464D01*
X0246970Y0353670D01*
X0247764Y0353139D01*
X0248700Y0352953D01*
X0249636Y0353139D01*
X0250430Y0353670D01*
X0250961Y0354464D01*
X0251147Y0355400D01*
X0250961Y0356336D01*
X0250430Y0357130D01*
X0249636Y0357661D01*
X0248700Y0357847D01*
D02*
G37*
G36*
X0349700Y0367347D02*
X0348764Y0367161D01*
X0347970Y0366630D01*
X0347439Y0365836D01*
X0347253Y0364900D01*
X0347439Y0363964D01*
X0347970Y0363170D01*
X0348764Y0362639D01*
X0349700Y0362453D01*
X0350636Y0362639D01*
X0351430Y0363170D01*
X0351961Y0363964D01*
X0352147Y0364900D01*
X0351961Y0365836D01*
X0351430Y0366630D01*
X0350636Y0367161D01*
X0349700Y0367347D01*
D02*
G37*
G36*
X0193200Y0362347D02*
X0192264Y0362161D01*
X0191470Y0361630D01*
X0191296Y0361371D01*
X0190104D01*
X0189930Y0361630D01*
X0189136Y0362161D01*
X0188200Y0362347D01*
X0187264Y0362161D01*
X0186470Y0361630D01*
X0186296Y0361371D01*
X0185104D01*
X0184930Y0361630D01*
X0184136Y0362161D01*
X0183200Y0362347D01*
X0182264Y0362161D01*
X0181470Y0361630D01*
X0180939Y0360836D01*
X0180753Y0359900D01*
X0180939Y0358964D01*
X0181470Y0358170D01*
X0182216Y0357671D01*
X0182264Y0357333D01*
Y0356967D01*
X0182216Y0356629D01*
X0181470Y0356130D01*
X0180939Y0355336D01*
X0180753Y0354400D01*
X0180939Y0353464D01*
X0181470Y0352670D01*
X0182216Y0352171D01*
X0182264Y0351833D01*
Y0351467D01*
X0182216Y0351129D01*
X0181470Y0350630D01*
X0180939Y0349836D01*
X0180753Y0348900D01*
X0180939Y0347964D01*
X0181470Y0347170D01*
X0182264Y0346639D01*
X0183200Y0346453D01*
X0184136Y0346639D01*
X0184930Y0347170D01*
X0185104Y0347429D01*
X0186296D01*
X0186470Y0347170D01*
X0187264Y0346639D01*
X0188200Y0346453D01*
X0189136Y0346639D01*
X0189930Y0347170D01*
X0190104Y0347429D01*
X0191296D01*
X0191470Y0347170D01*
X0192264Y0346639D01*
X0193200Y0346453D01*
X0194136Y0346639D01*
X0194930Y0347170D01*
X0195461Y0347964D01*
X0195647Y0348900D01*
X0195461Y0349836D01*
X0194930Y0350630D01*
X0194184Y0351129D01*
X0194136Y0351467D01*
Y0351833D01*
X0194184Y0352171D01*
X0194930Y0352670D01*
X0195461Y0353464D01*
X0195647Y0354400D01*
X0195461Y0355336D01*
X0194930Y0356130D01*
X0194184Y0356629D01*
X0194136Y0356967D01*
Y0357333D01*
X0194184Y0357671D01*
X0194930Y0358170D01*
X0195461Y0358964D01*
X0195647Y0359900D01*
X0195461Y0360836D01*
X0194930Y0361630D01*
X0194136Y0362161D01*
X0193200Y0362347D01*
D02*
G37*
G36*
X0294700Y0351910D02*
X0293764Y0351724D01*
X0292970Y0351193D01*
X0292439Y0350399D01*
X0292253Y0349463D01*
X0292439Y0348527D01*
X0292970Y0347733D01*
X0293764Y0347202D01*
X0294700Y0347016D01*
X0295637Y0347202D01*
X0296430Y0347733D01*
X0296961Y0348527D01*
X0297147Y0349463D01*
X0296961Y0350399D01*
X0296430Y0351193D01*
X0295637Y0351724D01*
X0294700Y0351910D01*
D02*
G37*
G36*
X0258700Y0349847D02*
X0257764Y0349661D01*
X0256970Y0349130D01*
X0256439Y0348336D01*
X0256253Y0347400D01*
X0256439Y0346464D01*
X0256970Y0345670D01*
X0257764Y0345139D01*
X0258700Y0344953D01*
X0259636Y0345139D01*
X0260430Y0345670D01*
X0260961Y0346464D01*
X0261147Y0347400D01*
X0260961Y0348336D01*
X0260430Y0349130D01*
X0259636Y0349661D01*
X0258700Y0349847D01*
D02*
G37*
G36*
X0358700Y0353847D02*
X0357764Y0353661D01*
X0356970Y0353130D01*
X0356439Y0352336D01*
X0356253Y0351400D01*
X0356439Y0350464D01*
X0356970Y0349670D01*
X0357764Y0349139D01*
X0358700Y0348953D01*
X0359636Y0349139D01*
X0360430Y0349670D01*
X0360961Y0350464D01*
X0361147Y0351400D01*
X0360961Y0352336D01*
X0360430Y0353130D01*
X0359636Y0353661D01*
X0358700Y0353847D01*
D02*
G37*
G36*
X0311700Y0362347D02*
X0310764Y0362161D01*
X0309970Y0361630D01*
X0309439Y0360836D01*
X0309253Y0359900D01*
X0309439Y0358964D01*
X0309970Y0358170D01*
X0310590Y0357756D01*
X0310729Y0357034D01*
X0310706Y0356631D01*
X0310470Y0356473D01*
X0309939Y0355679D01*
X0309753Y0354743D01*
X0309939Y0353806D01*
X0310393Y0353127D01*
X0310225Y0352641D01*
X0309919Y0352178D01*
X0309043Y0352003D01*
X0308249Y0351473D01*
X0307719Y0350679D01*
X0307533Y0349743D01*
X0307719Y0348806D01*
X0308249Y0348012D01*
X0309043Y0347482D01*
X0309980Y0347295D01*
X0310916Y0347482D01*
X0311710Y0348012D01*
X0312240Y0348806D01*
X0312427Y0349743D01*
X0312240Y0350679D01*
X0311787Y0351358D01*
X0311955Y0351844D01*
X0312261Y0352308D01*
X0313136Y0352482D01*
X0313930Y0353012D01*
X0314461Y0353806D01*
X0314647Y0354743D01*
X0314461Y0355679D01*
X0313930Y0356473D01*
X0313311Y0356887D01*
X0313171Y0357608D01*
X0313193Y0358012D01*
X0313430Y0358170D01*
X0313961Y0358964D01*
X0314147Y0359900D01*
X0313961Y0360836D01*
X0313430Y0361630D01*
X0312636Y0362161D01*
X0311700Y0362347D01*
D02*
G37*
%LPD*%
G54D31*
X0497200Y0080717D02*
Y0101050D01*
X0413200Y0080717D02*
Y0101050D01*
X0040000Y0080717D02*
X0700200D01*
X0040000Y0060383D02*
X0700000D01*
X0040000Y0040050D02*
X0440500D01*
X0040050Y0101050D02*
X0700200D01*
X0040050Y0040050D02*
Y0101050D01*
Y0040050D02*
X0197600D01*
X0040000D02*
Y0101050D01*
X0286500Y0040050D02*
Y0101050D01*
X0700200Y0040050D02*
Y0101050D01*
X0440500Y0040050D02*
X0700200D01*
X0559400Y0039400D02*
Y0059683D01*
G54D32*
X0567400Y0087833D02*
Y0093831D01*
X0571399Y0087833D01*
Y0093831D01*
X0574398Y0087833D02*
X0576397D01*
X0577397Y0088833D01*
Y0090832D01*
X0576397Y0091832D01*
X0574398D01*
X0573398Y0090832D01*
Y0088833D01*
X0574398Y0087833D01*
X0580396Y0092832D02*
Y0091832D01*
X0579396D01*
X0581395D01*
X0580396D01*
Y0088833D01*
X0581395Y0087833D01*
X0590393Y0093831D02*
X0592392D01*
X0591392D01*
Y0087833D01*
X0590393D01*
X0592392D01*
X0595391D02*
Y0091832D01*
X0598390D01*
X0599390Y0090832D01*
Y0087833D01*
X0607387Y0093831D02*
Y0089833D01*
X0609386Y0087833D01*
X0611386Y0089833D01*
Y0093831D01*
X0616384Y0087833D02*
X0614385D01*
X0613385Y0088833D01*
Y0090832D01*
X0614385Y0091832D01*
X0616384D01*
X0617384Y0090832D01*
Y0089833D01*
X0613385D01*
X0619383Y0091832D02*
Y0087833D01*
Y0089833D01*
X0620383Y0090832D01*
X0621383Y0091832D01*
X0622382D01*
X0625381Y0087833D02*
X0628380D01*
X0629380Y0088833D01*
X0628380Y0089833D01*
X0626381D01*
X0625381Y0090832D01*
X0626381Y0091832D01*
X0629380D01*
X0631379Y0087833D02*
X0633379D01*
X0632379D01*
Y0091832D01*
X0631379D01*
X0637377Y0087833D02*
X0639377D01*
X0640376Y0088833D01*
Y0090832D01*
X0639377Y0091832D01*
X0637377D01*
X0636378Y0090832D01*
Y0088833D01*
X0637377Y0087833D01*
X0642376D02*
Y0091832D01*
X0645375D01*
X0646374Y0090832D01*
Y0087833D01*
X0652373Y0092832D02*
X0651373Y0093831D01*
X0649373D01*
X0648374Y0092832D01*
Y0088833D01*
X0649373Y0087833D01*
X0651373D01*
X0652373Y0088833D01*
X0655372Y0087833D02*
X0657371D01*
X0658371Y0088833D01*
Y0090832D01*
X0657371Y0091832D01*
X0655372D01*
X0654372Y0090832D01*
Y0088833D01*
X0655372Y0087833D01*
X0660370D02*
Y0091832D01*
X0663369D01*
X0664369Y0090832D01*
Y0087833D01*
X0667368Y0092832D02*
Y0091832D01*
X0666368D01*
X0668367D01*
X0667368D01*
Y0088833D01*
X0668367Y0087833D01*
X0671366Y0091832D02*
Y0087833D01*
Y0089833D01*
X0672366Y0090832D01*
X0673366Y0091832D01*
X0674365D01*
X0678364Y0087833D02*
X0680364D01*
X0681363Y0088833D01*
Y0090832D01*
X0680364Y0091832D01*
X0678364D01*
X0677364Y0090832D01*
Y0088833D01*
X0678364Y0087833D01*
X0683362D02*
X0685362D01*
X0684362D01*
Y0093831D01*
X0683362D01*
X0520799Y0092832D02*
X0519799Y0093831D01*
X0517800D01*
X0516800Y0092832D01*
Y0091832D01*
X0517800Y0090832D01*
X0519799D01*
X0520799Y0089833D01*
Y0088833D01*
X0519799Y0087833D01*
X0517800D01*
X0516800Y0088833D01*
X0522798Y0093831D02*
Y0089833D01*
X0524797Y0087833D01*
X0526797Y0089833D01*
Y0093831D01*
X0528796Y0087833D02*
Y0093831D01*
X0532795Y0087833D01*
Y0093831D01*
X0540792Y0087833D02*
Y0093831D01*
X0543791D01*
X0544791Y0092832D01*
Y0090832D01*
X0543791Y0089833D01*
X0540792D01*
X0542792D02*
X0544791Y0087833D01*
X0550789Y0093831D02*
X0546790D01*
Y0087833D01*
X0550789D01*
X0546790Y0090832D02*
X0548790D01*
X0552788Y0093831D02*
Y0089833D01*
X0554788Y0087833D01*
X0556787Y0089833D01*
Y0093831D01*
X0558786Y0091832D02*
X0559786D01*
Y0090832D01*
X0558786D01*
Y0091832D01*
Y0088833D02*
X0559786D01*
Y0087833D01*
X0558786D01*
Y0088833D01*
X0433000Y0087833D02*
Y0093831D01*
X0435999D01*
X0436999Y0092832D01*
Y0090832D01*
X0435999Y0089833D01*
X0433000D01*
X0434999D02*
X0436999Y0087833D01*
X0442997Y0093831D02*
X0438998D01*
Y0087833D01*
X0442997D01*
X0438998Y0090832D02*
X0440997D01*
X0444996Y0093831D02*
Y0089833D01*
X0446995Y0087833D01*
X0448995Y0089833D01*
Y0093831D01*
X0450994Y0091832D02*
X0451994D01*
Y0090832D01*
X0450994D01*
Y0091832D01*
Y0088833D02*
X0451994D01*
Y0087833D01*
X0450994D01*
Y0088833D01*
X0130899Y0051965D02*
X0129899Y0052965D01*
X0127900D01*
X0126900Y0051965D01*
Y0050965D01*
X0127900Y0049966D01*
X0129899D01*
X0130899Y0048966D01*
Y0047966D01*
X0129899Y0046966D01*
X0127900D01*
X0126900Y0047966D01*
X0132898Y0052965D02*
Y0048966D01*
X0134897Y0046966D01*
X0136897Y0048966D01*
Y0052965D01*
X0142895D02*
X0140895Y0051965D01*
X0138896Y0049966D01*
Y0047966D01*
X0139896Y0046966D01*
X0141895D01*
X0142895Y0047966D01*
Y0048966D01*
X0141895Y0049966D01*
X0138896D01*
X0144894Y0051965D02*
X0145894Y0052965D01*
X0147893D01*
X0148893Y0051965D01*
Y0047966D01*
X0147893Y0046966D01*
X0145894D01*
X0144894Y0047966D01*
Y0051965D01*
X0150892Y0046966D02*
X0152892D01*
X0151892D01*
Y0052965D01*
X0150892Y0051965D01*
X0155891Y0046966D02*
X0157890D01*
X0156890D01*
Y0052965D01*
X0155891Y0051965D01*
X0164888Y0052965D02*
X0160889D01*
Y0049966D01*
X0162888Y0050965D01*
X0163888D01*
X0164888Y0049966D01*
Y0047966D01*
X0163888Y0046966D01*
X0161889D01*
X0160889Y0047966D01*
X0166887Y0052965D02*
X0170886D01*
Y0051965D01*
X0166887Y0047966D01*
Y0046966D01*
X0172885D02*
Y0050965D01*
X0174884Y0052965D01*
X0176884Y0050965D01*
Y0046966D01*
Y0049966D01*
X0172885D01*
X0178883Y0046966D02*
Y0047966D01*
X0179883D01*
Y0046966D01*
X0178883D01*
X0187880Y0051965D02*
X0186881Y0052965D01*
X0184881D01*
X0183882Y0051965D01*
Y0047966D01*
X0184881Y0046966D01*
X0186881D01*
X0187880Y0047966D01*
Y0049966D01*
X0185881D01*
X0192879Y0046966D02*
Y0052965D01*
X0189880Y0049966D01*
X0193878D01*
X0381150Y0051965D02*
X0382150Y0052965D01*
X0384149D01*
X0385149Y0051965D01*
Y0050965D01*
X0384149Y0049966D01*
X0383149D01*
X0384149D01*
X0385149Y0048966D01*
Y0047966D01*
X0384149Y0046966D01*
X0382150D01*
X0381150Y0047966D01*
X0387148Y0046966D02*
X0391147Y0050965D01*
X0393146Y0046966D02*
X0395146D01*
X0394146D01*
Y0052965D01*
X0393146Y0051965D01*
X0398145D02*
X0399144Y0052965D01*
X0401144D01*
X0402143Y0051965D01*
Y0050965D01*
X0401144Y0049966D01*
X0400144D01*
X0401144D01*
X0402143Y0048966D01*
Y0047966D01*
X0401144Y0046966D01*
X0399144D01*
X0398145Y0047966D01*
X0404143Y0046966D02*
X0408141Y0050965D01*
X0414139Y0046966D02*
X0410141D01*
X0414139Y0050965D01*
Y0051965D01*
X0413140Y0052965D01*
X0411140D01*
X0410141Y0051965D01*
X0416139D02*
X0417138Y0052965D01*
X0419138D01*
X0420137Y0051965D01*
Y0047966D01*
X0419138Y0046966D01*
X0417138D01*
X0416139Y0047966D01*
Y0051965D01*
X0422137Y0046966D02*
X0424136D01*
X0423136D01*
Y0052965D01*
X0422137Y0051965D01*
X0431134Y0052965D02*
X0427135D01*
Y0049966D01*
X0429135Y0050965D01*
X0430134D01*
X0431134Y0049966D01*
Y0047966D01*
X0430134Y0046966D01*
X0428135D01*
X0427135Y0047966D01*
X0298199Y0051965D02*
X0297199Y0052965D01*
X0295200D01*
X0294200Y0051965D01*
Y0047966D01*
X0295200Y0046966D01*
X0297199D01*
X0298199Y0047966D01*
Y0049966D01*
X0296199D01*
X0304197Y0052965D02*
X0300198D01*
Y0046966D01*
X0304197D01*
X0300198Y0049966D02*
X0302197D01*
X0306196Y0046966D02*
Y0052965D01*
X0310195Y0046966D01*
Y0052965D01*
X0316193D02*
X0312194D01*
Y0046966D01*
X0316193D01*
X0312194Y0049966D02*
X0314194D01*
X0318192Y0046966D02*
Y0052965D01*
X0321191D01*
X0322191Y0051965D01*
Y0049966D01*
X0321191Y0048966D01*
X0318192D01*
X0320192D02*
X0322191Y0046966D01*
X0324190D02*
Y0050965D01*
X0326190Y0052965D01*
X0328189Y0050965D01*
Y0046966D01*
Y0049966D01*
X0324190D01*
X0330188Y0052965D02*
X0334187D01*
X0332188D01*
Y0046966D01*
X0340185Y0052965D02*
X0336186D01*
Y0046966D01*
X0340185D01*
X0336186Y0049966D02*
X0338186D01*
X0342184Y0052965D02*
Y0046966D01*
X0345183D01*
X0346183Y0047966D01*
Y0051965D01*
X0345183Y0052965D01*
X0342184D01*
X0372175Y0050965D02*
X0373175D01*
Y0049966D01*
X0372175D01*
Y0050965D01*
Y0047966D02*
X0373175D01*
Y0046966D01*
X0372175D01*
Y0047966D01*
X0046350Y0087833D02*
Y0091832D01*
X0048349Y0093831D01*
X0050349Y0091832D01*
Y0087833D01*
Y0090832D01*
X0046350D01*
X0052348Y0093831D02*
Y0087833D01*
X0056347D01*
X0058346Y0093831D02*
Y0087833D01*
X0062345D01*
X0070342D02*
Y0091832D01*
X0072342Y0093831D01*
X0074341Y0091832D01*
Y0087833D01*
Y0090832D01*
X0070342D01*
X0076340Y0087833D02*
Y0093831D01*
X0079339D01*
X0080339Y0092832D01*
Y0090832D01*
X0079339Y0089833D01*
X0076340D01*
X0078340D02*
X0080339Y0087833D01*
X0082338Y0093831D02*
X0086337D01*
X0084338D01*
Y0087833D01*
X0088336Y0093831D02*
Y0087833D01*
X0090336Y0089833D01*
X0092335Y0087833D01*
Y0093831D01*
X0097334D02*
X0095334D01*
X0094335Y0092832D01*
Y0088833D01*
X0095334Y0087833D01*
X0097334D01*
X0098333Y0088833D01*
Y0092832D01*
X0097334Y0093831D01*
X0100332Y0087833D02*
Y0093831D01*
X0103332D01*
X0104331Y0092832D01*
Y0090832D01*
X0103332Y0089833D01*
X0100332D01*
X0102332D02*
X0104331Y0087833D01*
X0106331Y0093831D02*
Y0087833D01*
Y0089833D01*
X0110329Y0093831D01*
X0107330Y0090832D01*
X0110329Y0087833D01*
X0118327Y0093831D02*
Y0089833D01*
X0120326Y0087833D01*
X0122325Y0089833D01*
Y0093831D01*
X0124325D02*
X0126324D01*
X0125324D01*
Y0087833D01*
X0124325D01*
X0126324D01*
X0133322Y0093831D02*
X0129323D01*
Y0087833D01*
X0133322D01*
X0129323Y0090832D02*
X0131323D01*
X0135321Y0093831D02*
Y0087833D01*
X0137321Y0089833D01*
X0139320Y0087833D01*
Y0093831D01*
X0145318D02*
X0141319D01*
Y0087833D01*
X0145318D01*
X0141319Y0090832D02*
X0143319D01*
X0147317Y0093831D02*
Y0087833D01*
X0150316D01*
X0151316Y0088833D01*
Y0092832D01*
X0150316Y0093831D01*
X0147317D01*
X0163312D02*
X0159313D01*
Y0090832D01*
X0161313D01*
X0159313D01*
Y0087833D01*
X0165312D02*
Y0093831D01*
X0168310D01*
X0169310Y0092832D01*
Y0090832D01*
X0168310Y0089833D01*
X0165312D01*
X0167311D02*
X0169310Y0087833D01*
X0174309Y0093831D02*
X0172309D01*
X0171310Y0092832D01*
Y0088833D01*
X0172309Y0087833D01*
X0174309D01*
X0175308Y0088833D01*
Y0092832D01*
X0174309Y0093831D01*
X0177308Y0087833D02*
Y0093831D01*
X0179307Y0091832D01*
X0181306Y0093831D01*
Y0087833D01*
X0189304Y0093831D02*
X0193303D01*
X0191303D01*
Y0087833D01*
X0198301Y0093831D02*
X0196301D01*
X0195302Y0092832D01*
Y0088833D01*
X0196301Y0087833D01*
X0198301D01*
X0199301Y0088833D01*
Y0092832D01*
X0198301Y0093831D01*
X0201300Y0087833D02*
Y0093831D01*
X0204299D01*
X0205299Y0092832D01*
Y0090832D01*
X0204299Y0089833D01*
X0201300D01*
X0217295Y0092832D02*
X0216295Y0093831D01*
X0214296D01*
X0213296Y0092832D01*
Y0091832D01*
X0214296Y0090832D01*
X0216295D01*
X0217295Y0089833D01*
Y0088833D01*
X0216295Y0087833D01*
X0214296D01*
X0213296Y0088833D01*
X0219294Y0093831D02*
X0221293D01*
X0220294D01*
Y0087833D01*
X0219294D01*
X0221293D01*
X0224292Y0093831D02*
Y0087833D01*
X0227291D01*
X0228291Y0088833D01*
Y0092832D01*
X0227291Y0093831D01*
X0224292D01*
X0234289D02*
X0230291D01*
Y0087833D01*
X0234289D01*
X0230291Y0090832D02*
X0232290D01*
X0462150Y0087833D02*
Y0091832D01*
X0464149Y0093831D01*
X0466149Y0091832D01*
Y0087833D01*
Y0090832D01*
X0462150D01*
X0352549Y0092832D02*
X0351549Y0093831D01*
X0349550D01*
X0348550Y0092832D01*
Y0091832D01*
X0349550Y0090832D01*
X0351549D01*
X0352549Y0089833D01*
Y0088833D01*
X0351549Y0087833D01*
X0349550D01*
X0348550Y0088833D01*
X0354548Y0093831D02*
Y0089833D01*
X0356547Y0087833D01*
X0358547Y0089833D01*
Y0093831D01*
X0364545D02*
X0362545Y0092832D01*
X0360546Y0090832D01*
Y0088833D01*
X0361546Y0087833D01*
X0363545D01*
X0364545Y0088833D01*
Y0089833D01*
X0363545Y0090832D01*
X0360546D01*
X0366544Y0092832D02*
X0367544Y0093831D01*
X0369543D01*
X0370543Y0092832D01*
Y0088833D01*
X0369543Y0087833D01*
X0367544D01*
X0366544Y0088833D01*
Y0092832D01*
X0372542Y0087833D02*
X0374542D01*
X0373542D01*
Y0093831D01*
X0372542Y0092832D01*
X0377541Y0087833D02*
X0379540D01*
X0378540D01*
Y0093831D01*
X0377541Y0092832D01*
X0386538Y0093831D02*
X0382539D01*
Y0090832D01*
X0384538Y0091832D01*
X0385538D01*
X0386538Y0090832D01*
Y0088833D01*
X0385538Y0087833D01*
X0383539D01*
X0382539Y0088833D01*
X0388537Y0093831D02*
X0392536D01*
Y0092832D01*
X0388537Y0088833D01*
Y0087833D01*
X0294000Y0093831D02*
Y0087833D01*
X0296999D01*
X0297999Y0088833D01*
Y0089833D01*
X0296999Y0090832D01*
X0294000D01*
X0296999D01*
X0297999Y0091832D01*
Y0092832D01*
X0296999Y0093831D01*
X0294000D01*
X0302997D02*
X0300998D01*
X0299998Y0092832D01*
Y0088833D01*
X0300998Y0087833D01*
X0302997D01*
X0303997Y0088833D01*
Y0092832D01*
X0302997Y0093831D01*
X0305996Y0087833D02*
Y0091832D01*
X0307996Y0093831D01*
X0309995Y0091832D01*
Y0087833D01*
Y0090832D01*
X0305996D01*
X0311994Y0087833D02*
Y0093831D01*
X0314993D01*
X0315993Y0092832D01*
Y0090832D01*
X0314993Y0089833D01*
X0311994D01*
X0313994D02*
X0315993Y0087833D01*
X0317992Y0093831D02*
Y0087833D01*
X0320991D01*
X0321991Y0088833D01*
Y0092832D01*
X0320991Y0093831D01*
X0317992D01*
X0330988Y0087833D02*
Y0093831D01*
X0332987D02*
Y0087833D01*
X0329988Y0091832D02*
X0332987D01*
X0333987D01*
X0329988Y0089833D02*
X0333987D01*
X0335986Y0091832D02*
X0336986D01*
Y0090832D01*
X0335986D01*
Y0091832D01*
Y0088833D02*
X0336986D01*
Y0087833D01*
X0335986D01*
Y0088833D01*
X0046350Y0073549D02*
Y0067551D01*
X0050349D01*
X0052348D02*
Y0071549D01*
X0054347Y0073549D01*
X0056347Y0071549D01*
Y0067551D01*
Y0070550D01*
X0052348D01*
X0058346Y0073549D02*
Y0072549D01*
X0060346Y0070550D01*
X0062345Y0072549D01*
Y0073549D01*
X0060346Y0070550D02*
Y0067551D01*
X0068343Y0073549D02*
X0064344D01*
Y0067551D01*
X0068343D01*
X0064344Y0070550D02*
X0066343D01*
X0070342Y0067551D02*
Y0073549D01*
X0073341D01*
X0074341Y0072549D01*
Y0070550D01*
X0073341Y0069550D01*
X0070342D01*
X0072342D02*
X0074341Y0067551D01*
X0082338D02*
Y0073549D01*
X0086337Y0067551D01*
Y0073549D01*
X0088336Y0067551D02*
Y0071549D01*
X0090336Y0073549D01*
X0092335Y0071549D01*
Y0067551D01*
Y0070550D01*
X0088336D01*
X0094335Y0067551D02*
Y0073549D01*
X0096334Y0071549D01*
X0098333Y0073549D01*
Y0067551D01*
X0104331Y0073549D02*
X0100332D01*
Y0067551D01*
X0104331D01*
X0100332Y0070550D02*
X0102332D01*
X0112329Y0069550D02*
X0116327D01*
X0112329Y0071549D02*
X0116327D01*
X0046350Y0046966D02*
Y0052965D01*
X0049349D01*
X0050349Y0051965D01*
Y0049966D01*
X0049349Y0048966D01*
X0046350D01*
X0052348Y0052965D02*
Y0046966D01*
X0056347D01*
X0061345Y0052965D02*
X0059346D01*
X0058346Y0051965D01*
Y0047966D01*
X0059346Y0046966D01*
X0061345D01*
X0062345Y0047966D01*
Y0051965D01*
X0061345Y0052965D01*
X0064344D02*
X0068343D01*
X0066343D01*
Y0046966D01*
X0076340D02*
Y0052965D01*
X0080339Y0046966D01*
Y0052965D01*
X0082338Y0046966D02*
Y0050965D01*
X0084338Y0052965D01*
X0086337Y0050965D01*
Y0046966D01*
Y0049966D01*
X0082338D01*
X0088336Y0046966D02*
Y0052965D01*
X0090336Y0050965D01*
X0092335Y0052965D01*
Y0046966D01*
X0098333Y0052965D02*
X0094335D01*
Y0046966D01*
X0098333D01*
X0094335Y0049966D02*
X0096334D01*
X0106331Y0048966D02*
X0110329D01*
X0106331Y0050965D02*
X0110329D01*
X0454050Y0051965D02*
X0455050Y0052965D01*
X0457049D01*
X0458049Y0051965D01*
Y0050965D01*
X0457049Y0049966D01*
X0456049D01*
X0457049D01*
X0458049Y0048966D01*
Y0047966D01*
X0457049Y0046966D01*
X0455050D01*
X0454050Y0047966D01*
X0460048Y0050965D02*
X0461048D01*
Y0049966D01*
X0460048D01*
Y0050965D01*
Y0047966D02*
X0461048D01*
Y0046966D01*
X0460048D01*
Y0047966D01*
X0469045Y0046966D02*
X0465046D01*
X0469045Y0050965D01*
Y0051965D01*
X0468046Y0052965D01*
X0466046D01*
X0465046Y0051965D01*
X0471044Y0047966D02*
X0472044Y0046966D01*
X0474044D01*
X0475043Y0047966D01*
Y0051965D01*
X0474044Y0052965D01*
X0472044D01*
X0471044Y0051965D01*
Y0050965D01*
X0472044Y0049966D01*
X0475043D01*
X0477043Y0050965D02*
X0478042D01*
Y0049966D01*
X0477043D01*
Y0050965D01*
Y0047966D02*
X0478042D01*
Y0046966D01*
X0477043D01*
Y0047966D01*
X0482041Y0051965D02*
X0483041Y0052965D01*
X0485040D01*
X0486040Y0051965D01*
Y0047966D01*
X0485040Y0046966D01*
X0483041D01*
X0482041Y0047966D01*
Y0051965D01*
X0488039D02*
X0489039Y0052965D01*
X0491038D01*
X0492038Y0051965D01*
Y0050965D01*
X0491038Y0049966D01*
X0490038D01*
X0491038D01*
X0492038Y0048966D01*
Y0047966D01*
X0491038Y0046966D01*
X0489039D01*
X0488039Y0047966D01*
X0500035Y0046966D02*
Y0052965D01*
X0503034D01*
X0504034Y0051965D01*
Y0049966D01*
X0503034Y0048966D01*
X0500035D01*
X0506033Y0046966D02*
Y0052965D01*
X0508033Y0050965D01*
X0510032Y0052965D01*
Y0046966D01*
X0580500Y0052965D02*
X0584499D01*
X0582499D01*
Y0046966D01*
X0590497Y0052965D02*
X0586498D01*
Y0046966D01*
X0590497D01*
X0586498Y0049966D02*
X0588497D01*
X0592496Y0052965D02*
X0596495Y0046966D01*
Y0052965D02*
X0592496Y0046966D01*
X0598494D02*
Y0050965D01*
X0600493Y0052965D01*
X0602493Y0050965D01*
Y0046966D01*
Y0049966D01*
X0598494D01*
X0608491Y0051965D02*
X0607491Y0052965D01*
X0605492D01*
X0604492Y0051965D01*
Y0050965D01*
X0605492Y0049966D01*
X0607491D01*
X0608491Y0048966D01*
Y0047966D01*
X0607491Y0046966D01*
X0605492D01*
X0604492Y0047966D01*
X0616488Y0052965D02*
X0618488D01*
X0617488D01*
Y0046966D01*
X0616488D01*
X0618488D01*
X0621487D02*
Y0052965D01*
X0625486Y0046966D01*
Y0052965D01*
X0631484Y0051965D02*
X0630484Y0052965D01*
X0628484D01*
X0627485Y0051965D01*
Y0050965D01*
X0628484Y0049966D01*
X0630484D01*
X0631484Y0048966D01*
Y0047966D01*
X0630484Y0046966D01*
X0628484D01*
X0627485Y0047966D01*
X0633483Y0052965D02*
X0637482D01*
X0635482D01*
Y0046966D01*
X0639481D02*
Y0052965D01*
X0642480D01*
X0643480Y0051965D01*
Y0049966D01*
X0642480Y0048966D01*
X0639481D01*
X0641480D02*
X0643480Y0046966D01*
X0645479Y0052965D02*
Y0047966D01*
X0646479Y0046966D01*
X0648478D01*
X0649478Y0047966D01*
Y0052965D01*
X0651477Y0046966D02*
Y0052965D01*
X0653476Y0050965D01*
X0655476Y0052965D01*
Y0046966D01*
X0661474Y0052965D02*
X0657475D01*
Y0046966D01*
X0661474D01*
X0657475Y0049966D02*
X0659474D01*
X0663473Y0046966D02*
Y0052965D01*
X0667472Y0046966D01*
Y0052965D01*
X0669471D02*
X0673470D01*
X0671471D01*
Y0046966D01*
X0679468Y0051965D02*
X0678468Y0052965D01*
X0676469D01*
X0675469Y0051965D01*
Y0050965D01*
X0676469Y0049966D01*
X0678468D01*
X0679468Y0048966D01*
Y0047966D01*
X0678468Y0046966D01*
X0676469D01*
X0675469Y0047966D01*
G54D34*
X0386700Y0280400D02*
D03*
X0386200Y0389900D02*
D03*
G54D35*
X0419200Y0302400D02*
D03*
Y0371400D02*
D03*
G54D36*
X0273763Y0340337D02*
D03*
X0277700D02*
D03*
X0281637D02*
D03*
Y0332463D02*
D03*
Y0328526D02*
D03*
Y0324589D02*
D03*
Y0336400D02*
D03*
X0277700D02*
D03*
X0273763D02*
D03*
Y0324589D02*
D03*
X0277700D02*
D03*
X0273763Y0328526D02*
D03*
X0277700D02*
D03*
X0273763Y0332463D02*
D03*
X0277700D02*
D03*
G54D37*
X0244700Y0372400D02*
D03*
Y0377400D02*
D03*
Y0381900D02*
D03*
X0235200D02*
D03*
X0239700Y0377400D02*
D03*
Y0381900D02*
D03*
X0241200Y0353900D02*
D03*
X0237200Y0357400D02*
D03*
X0233200Y0360900D02*
D03*
X0229700Y0364900D02*
D03*
X0230200Y0293900D02*
D03*
Y0288900D02*
D03*
Y0283900D02*
D03*
X0234700D02*
D03*
Y0288900D02*
D03*
Y0293900D02*
D03*
Y0298900D02*
D03*
X0229700Y0353400D02*
D03*
Y0348400D02*
D03*
Y0343400D02*
D03*
Y0338400D02*
D03*
Y0318900D02*
D03*
Y0328400D02*
D03*
Y0323900D02*
D03*
X0328700Y0377400D02*
D03*
X0337889D02*
D03*
X0333200D02*
D03*
X0347700Y0287400D02*
D03*
X0303200D02*
D03*
X0322200D02*
D03*
X0327200D02*
D03*
X0332700D02*
D03*
X0338200D02*
D03*
X0257200Y0280400D02*
D03*
X0267200D02*
D03*
X0262200D02*
D03*
X0252200D02*
D03*
X0247200D02*
D03*
X0242200D02*
D03*
X0237200D02*
D03*
X0232200D02*
D03*
X0227200D02*
D03*
X0222200D02*
D03*
X0269700Y0386400D02*
D03*
X0264700D02*
D03*
X0259700D02*
D03*
X0254700D02*
D03*
X0249700D02*
D03*
X0244700D02*
D03*
X0239700D02*
D03*
X0234700D02*
D03*
X0229700D02*
D03*
X0224700Y0391400D02*
D03*
X0229700D02*
D03*
X0234700D02*
D03*
X0239700D02*
D03*
X0244700D02*
D03*
X0249700D02*
D03*
X0254700D02*
D03*
X0259700D02*
D03*
X0264700D02*
D03*
X0269700D02*
D03*
X0267200Y0275400D02*
D03*
X0217200D02*
D03*
X0222200D02*
D03*
X0227200D02*
D03*
X0232200D02*
D03*
X0237200D02*
D03*
X0242200D02*
D03*
X0247200D02*
D03*
X0252200D02*
D03*
X0257200D02*
D03*
X0262200D02*
D03*
X0253700Y0331400D02*
D03*
X0308200Y0374900D02*
D03*
X0245001Y0305203D02*
D03*
X0239200Y0283900D02*
D03*
Y0288900D02*
D03*
Y0293900D02*
D03*
X0383700Y0297400D02*
D03*
Y0292400D02*
D03*
X0388700D02*
D03*
Y0297400D02*
D03*
Y0312400D02*
D03*
X0383700D02*
D03*
Y0307400D02*
D03*
X0388700D02*
D03*
X0383700Y0302400D02*
D03*
X0388700D02*
D03*
X0383700Y0366400D02*
D03*
Y0361400D02*
D03*
X0388700D02*
D03*
Y0366400D02*
D03*
Y0381400D02*
D03*
X0383700D02*
D03*
Y0376400D02*
D03*
X0388700D02*
D03*
X0383700Y0371400D02*
D03*
X0388700D02*
D03*
X0393200Y0302400D02*
D03*
X0393700Y0307400D02*
D03*
Y0312400D02*
D03*
Y0297400D02*
D03*
Y0292400D02*
D03*
X0393200Y0371400D02*
D03*
X0393700Y0376400D02*
D03*
Y0381400D02*
D03*
Y0366400D02*
D03*
Y0361400D02*
D03*
G54D39*
X0126700Y0067400D02*
Y0073398D01*
X0128699Y0071399D01*
X0130699Y0073398D01*
Y0067400D01*
X0132698D02*
X0134697D01*
X0133698D01*
Y0071399D01*
X0132698D01*
X0141695Y0073398D02*
Y0067400D01*
X0138696D01*
X0137696Y0068400D01*
Y0070399D01*
X0138696Y0071399D01*
X0141695D01*
X0143694Y0073398D02*
Y0067400D01*
X0147693D01*
X0150692Y0071399D02*
X0152692D01*
X0153691Y0070399D01*
Y0067400D01*
X0150692D01*
X0149693Y0068400D01*
X0150692Y0069399D01*
X0153691D01*
X0155691Y0071399D02*
Y0068400D01*
X0156690Y0067400D01*
X0159689D01*
Y0066400D01*
X0158690Y0065401D01*
X0157690D01*
X0159689Y0067400D02*
Y0071399D01*
X0164688Y0067400D02*
X0162688D01*
X0161689Y0068400D01*
Y0070399D01*
X0162688Y0071399D01*
X0164688D01*
X0165687Y0070399D01*
Y0069399D01*
X0161689D01*
X0167687Y0071399D02*
Y0067400D01*
Y0069399D01*
X0168686Y0070399D01*
X0169686Y0071399D01*
X0170686D01*
X0176684Y0067400D02*
Y0073398D01*
X0173685Y0070399D01*
X0177683D01*
M02*
