%FSAX25Y25*%
%MOIN*%
G70*
G01*
G75*
G04 Layer_Physical_Order=6*
G04 Layer_Color=16711680*
%ADD10R,0.90000X0.25000*%
%ADD11R,0.07874X0.07874*%
%ADD12R,0.07480X0.17323*%
%ADD13R,0.02559X0.04724*%
%ADD14R,0.02756X0.01969*%
%ADD15R,0.18504X0.17716*%
%ADD16R,0.21654X0.27559*%
%ADD17C,0.03937*%
%ADD18R,0.07874X0.15748*%
%ADD19R,0.03937X0.44094*%
%ADD20R,0.03937X0.25984*%
%ADD21R,0.10630X0.05118*%
%ADD22R,0.06300X0.05000*%
%ADD23R,0.03740X0.03937*%
%ADD24R,0.04724X0.02559*%
%ADD25R,0.01969X0.02756*%
%ADD26R,0.17716X0.18504*%
%ADD27R,0.07874X0.07874*%
%ADD28P,0.07072X4X90.0*%
%ADD29C,0.02400*%
%ADD30C,0.01200*%
%ADD31C,0.01000*%
%ADD32C,0.00800*%
%ADD33C,0.31496*%
%ADD34C,0.08700*%
%ADD35C,0.47244*%
%ADD36C,0.01575*%
%ADD37C,0.02400*%
%ADD38C,0.03800*%
%ADD39C,0.00700*%
%ADD40R,0.03937X0.06299*%
%ADD41R,0.02362X0.02362*%
%ADD42R,0.12205X0.20394*%
%ADD43O,0.06693X0.01378*%
%ADD44R,0.03347X0.03150*%
%ADD45R,0.03000X0.03000*%
%ADD46R,0.03150X0.03347*%
%ADD47C,0.01600*%
G36*
X0197599Y0276483D02*
X0196895Y0275773D01*
X0189169D01*
Y0275347D01*
X0178700D01*
X0177764Y0275161D01*
X0176970Y0274630D01*
X0176439Y0273836D01*
X0176253Y0272900D01*
X0176439Y0271964D01*
X0176970Y0271170D01*
X0177764Y0270639D01*
X0178700Y0270453D01*
X0187676D01*
X0187996Y0269900D01*
X0187676Y0269347D01*
X0152714D01*
X0151647Y0270414D01*
Y0272900D01*
X0151461Y0273836D01*
X0150930Y0274630D01*
X0150136Y0275161D01*
X0149200Y0275347D01*
X0148264Y0275161D01*
X0147470Y0274630D01*
X0146939Y0273836D01*
X0146753Y0272900D01*
Y0269400D01*
X0146908Y0268619D01*
X0146939Y0268464D01*
X0147470Y0267670D01*
X0149739Y0265400D01*
X0149443Y0264491D01*
X0149373Y0264400D01*
X0108692D01*
Y0317400D01*
X0161192D01*
X0170692Y0326900D01*
X0197179D01*
X0197599Y0276483D01*
D02*
G37*
G36*
X0343700Y0309463D02*
X0320353Y0308789D01*
X0319719Y0309772D01*
Y0314128D01*
X0320352Y0314800D01*
X0320700Y0314953D01*
X0321636Y0315139D01*
X0322430Y0315670D01*
X0322961Y0316464D01*
X0323147Y0317400D01*
X0322961Y0318336D01*
X0322430Y0319130D01*
X0321636Y0319661D01*
X0320700Y0319847D01*
X0319731Y0320273D01*
Y0320273D01*
X0319731Y0320273D01*
X0315559D01*
X0314859Y0320987D01*
X0314961Y0326590D01*
X0319719D01*
Y0327396D01*
X0320700D01*
X0320700Y0372400D01*
X0343700D01*
Y0309463D01*
D02*
G37*
G36*
X0449200Y0341400D02*
X0404200D01*
Y0331836D01*
X0404431D01*
Y0331773D01*
X0449200D01*
Y0264400D01*
X0318433D01*
Y0294400D01*
Y0298369D01*
X0319573D01*
Y0303881D01*
Y0306342D01*
X0320324Y0306826D01*
X0320728Y0305826D01*
X0320680Y0305709D01*
X0320573Y0304900D01*
X0320680Y0304091D01*
X0320992Y0303337D01*
X0321489Y0302689D01*
X0322137Y0302192D01*
X0322891Y0301880D01*
X0323700Y0301773D01*
X0324509Y0301880D01*
X0325263Y0302192D01*
X0325911Y0302689D01*
X0326277Y0303167D01*
X0328169D01*
Y0302027D01*
X0339231D01*
Y0303167D01*
X0340622D01*
X0340989Y0302689D01*
X0341637Y0302192D01*
X0342391Y0301880D01*
X0343200Y0301773D01*
X0344009Y0301880D01*
X0344763Y0302192D01*
X0345411Y0302689D01*
X0345908Y0303337D01*
X0346220Y0304091D01*
X0346327Y0304900D01*
X0346220Y0305709D01*
X0345908Y0306463D01*
X0345411Y0307111D01*
X0344823Y0307562D01*
X0344752Y0307657D01*
X0344621Y0308317D01*
X0344659Y0308734D01*
X0344707Y0308811D01*
X0344830Y0308995D01*
X0344834Y0309012D01*
X0344843Y0309028D01*
X0344880Y0309246D01*
X0344923Y0309463D01*
Y0311947D01*
X0345923Y0312250D01*
X0345974Y0312174D01*
X0351088Y0307061D01*
X0350793Y0306349D01*
X0350602Y0304900D01*
X0350793Y0303451D01*
X0351352Y0302101D01*
X0352242Y0300942D01*
X0353401Y0300052D01*
X0354751Y0299493D01*
X0356200Y0299302D01*
X0357649Y0299493D01*
X0358999Y0300052D01*
X0360158Y0300942D01*
X0361048Y0302101D01*
X0361607Y0303451D01*
X0361798Y0304900D01*
X0361607Y0306349D01*
X0361048Y0307699D01*
X0360158Y0308858D01*
X0358999Y0309748D01*
X0357649Y0310307D01*
X0356200Y0310498D01*
X0354751Y0310307D01*
X0353401Y0309748D01*
X0353346Y0309705D01*
X0348933Y0314118D01*
Y0322369D01*
X0350073D01*
Y0327881D01*
Y0333431D01*
X0349483D01*
X0349105Y0334431D01*
X0349461Y0334964D01*
X0349647Y0335900D01*
X0349510Y0336590D01*
X0350068Y0337590D01*
X0350231D01*
Y0338730D01*
X0352419D01*
X0352467Y0338682D01*
Y0336626D01*
X0351939Y0335836D01*
X0351753Y0334900D01*
X0351939Y0333964D01*
X0352470Y0333170D01*
X0353264Y0332639D01*
X0354200Y0332453D01*
X0355136Y0332639D01*
X0355926Y0333167D01*
X0371031D01*
Y0330523D01*
X0377368D01*
Y0338299D01*
Y0338299D01*
X0377368Y0338471D01*
X0377376Y0338529D01*
X0377379Y0338552D01*
X0378271Y0339223D01*
X0378380Y0339198D01*
X0378939Y0338336D01*
X0378753Y0337400D01*
X0378939Y0336464D01*
X0379470Y0335670D01*
X0380264Y0335139D01*
X0381200Y0334953D01*
X0382136Y0335139D01*
X0382930Y0335670D01*
X0383461Y0336464D01*
X0383647Y0337400D01*
X0383461Y0338336D01*
X0383299Y0338578D01*
X0383834Y0339578D01*
X0384258D01*
Y0348277D01*
X0377921D01*
Y0340501D01*
Y0340318D01*
X0377921Y0340318D01*
Y0340329D01*
Y0340329D01*
X0377921Y0340331D01*
X0377916Y0340283D01*
X0377914Y0340271D01*
X0377863Y0339939D01*
X0377846Y0339888D01*
X0377747Y0339750D01*
X0377734Y0339731D01*
X0377722Y0339716D01*
X0377722Y0339716D01*
X0377633Y0339591D01*
X0377544Y0339468D01*
X0377497Y0339401D01*
X0377497Y0339401D01*
X0377487Y0339397D01*
X0377484Y0339395D01*
X0377484Y0339395D01*
X0377482Y0339395D01*
X0377342Y0339336D01*
X0377331Y0339332D01*
X0377244Y0339295D01*
X0376930Y0339234D01*
X0376890Y0339226D01*
X0376870Y0339222D01*
X0376870Y0339222D01*
X0376870D01*
X0376822Y0339222D01*
X0376551Y0339222D01*
X0376517D01*
X0371031D01*
Y0336633D01*
X0355933D01*
Y0339400D01*
X0355801Y0340063D01*
X0355426Y0340626D01*
X0355426Y0340626D01*
X0354363Y0341689D01*
X0353800Y0342064D01*
X0353137Y0342196D01*
X0350231D01*
Y0343336D01*
X0350231D01*
Y0346953D01*
X0352084D01*
X0356840Y0342197D01*
X0357634Y0341667D01*
X0358570Y0341480D01*
X0364700D01*
Y0339900D01*
X0370200D01*
Y0347900D01*
X0367076D01*
X0366369Y0348607D01*
Y0354799D01*
Y0354800D01*
X0366369Y0354971D01*
X0366376Y0355029D01*
X0366426Y0355361D01*
X0366444Y0355412D01*
X0366465Y0355442D01*
X0366499Y0355488D01*
X0366535Y0355539D01*
X0366557Y0355570D01*
X0366568Y0355585D01*
X0366670Y0355727D01*
X0366746Y0355833D01*
X0366793Y0355899D01*
X0366794Y0355900D01*
X0366803Y0355903D01*
X0366806Y0355905D01*
X0366806Y0355905D01*
X0366806D01*
X0366815Y0355908D01*
X0366948Y0355964D01*
X0366959Y0355968D01*
X0367002Y0355986D01*
X0367174Y0356030D01*
X0367400Y0356074D01*
X0367420Y0356078D01*
X0367420D01*
X0367467Y0356078D01*
X0367739Y0356078D01*
X0367773D01*
X0373258D01*
Y0364777D01*
X0366921D01*
Y0357001D01*
Y0357000D01*
X0366921Y0356829D01*
X0366914Y0356771D01*
X0366863Y0356439D01*
X0366846Y0356388D01*
X0366825Y0356358D01*
X0366791Y0356311D01*
X0366755Y0356261D01*
X0366733Y0356230D01*
X0366722Y0356215D01*
X0366620Y0356073D01*
X0366544Y0355967D01*
X0366496Y0355901D01*
X0366496Y0355901D01*
X0366487Y0355897D01*
X0366484Y0355895D01*
X0366484Y0355895D01*
X0366484D01*
X0366475Y0355892D01*
X0366342Y0355836D01*
X0366331Y0355832D01*
X0366288Y0355814D01*
X0366116Y0355770D01*
X0365890Y0355726D01*
X0365870Y0355722D01*
X0365870Y0355722D01*
X0365870D01*
X0365823Y0355722D01*
X0365551Y0355722D01*
X0365517D01*
X0360032D01*
Y0354508D01*
X0359032Y0353781D01*
X0358700Y0353847D01*
X0357764Y0353661D01*
X0356970Y0353130D01*
X0356439Y0352336D01*
X0356253Y0351400D01*
X0356323Y0351050D01*
X0355401Y0350557D01*
X0354828Y0351130D01*
X0354034Y0351661D01*
X0353879Y0351692D01*
X0353098Y0351847D01*
X0344923D01*
Y0357980D01*
X0353700D01*
Y0356400D01*
X0359200D01*
Y0364400D01*
X0353700D01*
Y0362875D01*
X0352436D01*
X0351901Y0363875D01*
X0351961Y0363964D01*
X0352147Y0364900D01*
X0352123Y0365023D01*
X0352869Y0366023D01*
X0352869D01*
Y0374307D01*
X0353293Y0374899D01*
X0353721Y0375078D01*
X0359758D01*
Y0383777D01*
X0358372D01*
X0358309Y0384096D01*
X0358285Y0384213D01*
X0357888Y0384808D01*
X0357433Y0385262D01*
X0356838Y0385660D01*
X0356721Y0385683D01*
X0356135Y0385800D01*
X0317896D01*
X0312242Y0391454D01*
X0311646Y0391851D01*
X0311530Y0391875D01*
X0310944Y0391991D01*
X0303073D01*
Y0392931D01*
X0297327D01*
Y0392182D01*
X0293081D01*
Y0392612D01*
X0292535D01*
Y0403900D01*
X0449200D01*
Y0341400D01*
D02*
G37*
G36*
X0275700Y0248400D02*
X0273700D01*
X0272700Y0247400D01*
Y0245400D01*
X0273700Y0244400D01*
X0275700D01*
Y0192400D01*
X0178700D01*
X0128700Y0242400D01*
Y0262400D01*
X0275700D01*
Y0248400D01*
D02*
G37*
G36*
X0449200Y0192400D02*
X0280700D01*
Y0244400D01*
X0282200D01*
X0283200Y0245400D01*
Y0247400D01*
X0282200Y0248400D01*
X0280700D01*
Y0262400D01*
X0449200D01*
Y0192400D01*
D02*
G37*
G36*
X0308377Y0311771D02*
X0308470Y0310630D01*
X0307939Y0309836D01*
X0307753Y0308900D01*
X0307939Y0307964D01*
X0308109Y0307710D01*
Y0297273D01*
X0307169D01*
Y0291527D01*
X0314967D01*
Y0264400D01*
X0283458D01*
X0283075Y0265324D01*
X0300926Y0283174D01*
X0300926Y0283174D01*
X0301301Y0283737D01*
X0301433Y0284400D01*
Y0293182D01*
X0303426Y0295174D01*
X0303801Y0295737D01*
X0303933Y0296400D01*
Y0297369D01*
X0305073D01*
Y0302881D01*
Y0308431D01*
X0304731D01*
Y0313273D01*
X0303689D01*
Y0315045D01*
X0304689Y0315459D01*
X0308377Y0311771D01*
D02*
G37*
G36*
X0288865Y0392612D02*
X0288319D01*
Y0387850D01*
X0293081D01*
Y0388512D01*
X0297327D01*
Y0387381D01*
Y0381869D01*
X0298467D01*
Y0358706D01*
X0297467Y0358292D01*
X0296998Y0358761D01*
X0296402Y0359159D01*
X0296286Y0359182D01*
X0295700Y0359298D01*
X0293731D01*
Y0360773D01*
X0293573D01*
Y0365444D01*
Y0370994D01*
X0292535D01*
Y0379188D01*
X0293081D01*
Y0383950D01*
X0288319D01*
Y0379188D01*
X0288865D01*
Y0370994D01*
X0287827D01*
Y0365444D01*
Y0359932D01*
X0288181D01*
Y0355027D01*
X0293731D01*
Y0355628D01*
X0294865D01*
Y0352885D01*
X0294700Y0351910D01*
X0293764Y0351724D01*
X0292970Y0351193D01*
X0292727Y0350830D01*
X0292384D01*
X0292315Y0350876D01*
X0291578Y0351023D01*
X0286263D01*
X0285526Y0350876D01*
X0284901Y0350459D01*
X0284484Y0349834D01*
X0284337Y0349097D01*
X0284484Y0348360D01*
X0284846Y0347817D01*
X0284484Y0347275D01*
X0284337Y0346538D01*
X0284484Y0345801D01*
X0284846Y0345258D01*
X0284484Y0344716D01*
X0284337Y0343979D01*
X0284484Y0343242D01*
X0284846Y0342699D01*
X0284484Y0342157D01*
X0284337Y0341420D01*
X0284484Y0340683D01*
X0284846Y0340140D01*
X0284484Y0339598D01*
X0284337Y0338861D01*
X0284484Y0338124D01*
X0284846Y0337581D01*
X0284484Y0337039D01*
X0284337Y0336302D01*
X0284484Y0335564D01*
X0284846Y0335022D01*
X0284484Y0334480D01*
X0284337Y0333742D01*
X0284484Y0333005D01*
X0284846Y0332463D01*
X0284484Y0331921D01*
X0284337Y0331184D01*
X0284484Y0330446D01*
X0284846Y0329904D01*
X0284484Y0329362D01*
X0284337Y0328624D01*
X0283743Y0327901D01*
X0282200D01*
X0281498Y0327761D01*
X0280902Y0327363D01*
X0280504Y0326768D01*
X0280365Y0326065D01*
X0280504Y0325363D01*
X0280902Y0324768D01*
X0281498Y0324370D01*
X0282200Y0324230D01*
X0283743D01*
X0284337Y0323506D01*
X0284484Y0322769D01*
X0284846Y0322227D01*
X0284484Y0321684D01*
X0284337Y0320947D01*
X0284484Y0320210D01*
X0284846Y0319668D01*
X0284484Y0319125D01*
X0284337Y0318388D01*
X0284484Y0317651D01*
X0284846Y0317109D01*
X0284484Y0316566D01*
X0284337Y0315829D01*
X0284484Y0315092D01*
X0284901Y0314467D01*
X0285526Y0314050D01*
X0286263Y0313903D01*
X0291578D01*
X0292315Y0314050D01*
X0292318Y0314051D01*
X0293016Y0313937D01*
X0293669Y0313273D01*
Y0313273D01*
X0293669Y0313273D01*
X0293669Y0313273D01*
Y0308431D01*
X0292827D01*
Y0302881D01*
Y0297369D01*
X0293967D01*
Y0296400D01*
X0294099Y0295737D01*
X0294474Y0295174D01*
X0296179Y0293469D01*
Y0285858D01*
X0275687Y0265366D01*
X0275311Y0264804D01*
X0275231Y0264400D01*
X0208700D01*
Y0273400D01*
X0226697Y0291398D01*
X0226923Y0291623D01*
Y0291727D01*
X0227060Y0291932D01*
X0227153Y0292400D01*
Y0305953D01*
X0227117Y0306135D01*
X0227136Y0306139D01*
X0227930Y0306670D01*
X0228461Y0307464D01*
X0228647Y0308400D01*
X0228461Y0309336D01*
X0227930Y0310130D01*
X0227681Y0310297D01*
X0227701Y0310505D01*
X0228743Y0310878D01*
X0244247Y0295374D01*
X0244809Y0294999D01*
X0245472Y0294867D01*
X0251000D01*
Y0293300D01*
X0256400D01*
Y0297083D01*
X0257440D01*
X0257501Y0295100D01*
X0261500D01*
X0262062Y0294538D01*
Y0297113D01*
X0262155Y0297150D01*
X0263062Y0297280D01*
X0263470Y0296670D01*
X0264264Y0296139D01*
X0265200Y0295953D01*
X0266136Y0296139D01*
X0266930Y0296670D01*
X0267461Y0297464D01*
X0267647Y0298400D01*
X0267554Y0298869D01*
X0268073Y0299869D01*
X0268073D01*
X0268073Y0299869D01*
Y0305381D01*
Y0310931D01*
X0268073Y0310931D01*
X0268073D01*
X0267596Y0311931D01*
X0267647Y0312187D01*
X0267505Y0312903D01*
X0268051Y0313903D01*
X0269137D01*
X0269874Y0314050D01*
X0270499Y0314467D01*
X0270916Y0315092D01*
X0271063Y0315829D01*
X0270916Y0316566D01*
X0270554Y0317109D01*
X0270916Y0317651D01*
X0271063Y0318388D01*
X0270916Y0319125D01*
X0270554Y0319668D01*
X0270916Y0320210D01*
X0271063Y0320947D01*
X0270916Y0321684D01*
X0270554Y0322227D01*
X0270916Y0322769D01*
X0271063Y0323506D01*
X0270916Y0324243D01*
X0270554Y0324786D01*
X0270916Y0325328D01*
X0271063Y0326065D01*
X0270916Y0326802D01*
X0270554Y0327345D01*
X0270916Y0327887D01*
X0271063Y0328624D01*
X0270916Y0329362D01*
X0270554Y0329904D01*
X0270916Y0330446D01*
X0271063Y0331183D01*
X0271657Y0331907D01*
X0276420D01*
X0277123Y0332047D01*
X0277718Y0332445D01*
X0278116Y0333040D01*
X0278256Y0333742D01*
X0278116Y0334445D01*
X0277718Y0335040D01*
X0277123Y0335438D01*
X0276420Y0335578D01*
X0271657D01*
X0271063Y0336302D01*
X0270916Y0337039D01*
X0270554Y0337581D01*
X0270916Y0338124D01*
X0271063Y0338861D01*
X0270916Y0339598D01*
X0270554Y0340140D01*
X0270916Y0340683D01*
X0271063Y0341420D01*
X0270916Y0342157D01*
X0270554Y0342699D01*
X0270916Y0343242D01*
X0271063Y0343979D01*
X0270916Y0344716D01*
X0270554Y0345258D01*
X0270916Y0345801D01*
X0271063Y0346538D01*
X0270916Y0347275D01*
X0270554Y0347817D01*
X0270916Y0348360D01*
X0271063Y0349097D01*
X0270916Y0349834D01*
X0270499Y0350459D01*
X0269874Y0350876D01*
X0269137Y0351023D01*
X0263822D01*
X0263366Y0350932D01*
X0261763D01*
X0259742Y0352954D01*
X0259146Y0353351D01*
X0259030Y0353375D01*
X0258444Y0353491D01*
X0251573D01*
Y0354431D01*
X0251147D01*
Y0355400D01*
X0250961Y0356336D01*
X0250430Y0357130D01*
X0249636Y0357661D01*
X0248700Y0357847D01*
X0247764Y0357661D01*
X0246970Y0357130D01*
X0246439Y0356336D01*
X0246253Y0355400D01*
Y0354431D01*
X0245827D01*
Y0349255D01*
X0245737Y0349156D01*
X0245038Y0348782D01*
X0244827Y0348756D01*
X0244572Y0348926D01*
X0244455Y0348949D01*
X0243869Y0349066D01*
X0239081D01*
Y0349612D01*
X0234319D01*
Y0344850D01*
X0239081D01*
Y0345395D01*
X0243109D01*
X0243658Y0344846D01*
X0244056Y0344581D01*
X0244254Y0344448D01*
X0244956Y0344309D01*
X0245120D01*
X0245203Y0344225D01*
X0245048Y0343420D01*
X0244675Y0343100D01*
X0242350D01*
Y0340609D01*
X0239081D01*
Y0340950D01*
X0234319D01*
Y0336188D01*
X0234661D01*
Y0334612D01*
X0234319D01*
Y0329850D01*
X0239081D01*
Y0334612D01*
X0238739D01*
Y0336188D01*
X0239081D01*
Y0336530D01*
X0242350D01*
Y0335700D01*
X0245540D01*
X0245543Y0335698D01*
X0245698Y0335667D01*
X0246480Y0335512D01*
X0251903D01*
X0252200Y0335453D01*
X0252497Y0335512D01*
X0254514D01*
X0254816Y0335068D01*
Y0334618D01*
X0254045Y0333847D01*
X0246700D01*
X0245764Y0333661D01*
X0244970Y0333130D01*
X0244439Y0332336D01*
X0244253Y0331400D01*
X0244439Y0330464D01*
X0244970Y0329670D01*
X0245764Y0329139D01*
X0246700Y0328953D01*
X0252851D01*
X0253234Y0328029D01*
X0252073Y0326869D01*
X0251073Y0327283D01*
Y0327431D01*
X0245327D01*
Y0326491D01*
X0244956D01*
X0244370Y0326375D01*
X0244254Y0326351D01*
X0243658Y0325954D01*
X0243109Y0325405D01*
X0239081D01*
Y0325950D01*
X0234319D01*
Y0321188D01*
X0239081D01*
Y0321734D01*
X0242200D01*
X0242460Y0321299D01*
X0242620Y0320734D01*
X0242183Y0320080D01*
X0241997Y0319144D01*
X0242183Y0318208D01*
X0242714Y0317414D01*
X0243508Y0316883D01*
X0244444Y0316697D01*
X0245327D01*
Y0316369D01*
X0248427D01*
X0248961Y0315369D01*
X0248939Y0315336D01*
X0248753Y0314400D01*
X0248939Y0313464D01*
X0249470Y0312670D01*
X0250264Y0312139D01*
X0250317Y0312129D01*
X0251169Y0311773D01*
Y0306027D01*
X0252109D01*
Y0304300D01*
X0251000D01*
Y0300550D01*
X0246501D01*
X0228721Y0318331D01*
Y0330852D01*
X0229434D01*
X0229481Y0330900D01*
X0231769D01*
Y0335800D01*
X0229465D01*
X0229413Y0335852D01*
X0228032D01*
X0227153Y0336305D01*
Y0359507D01*
X0227130Y0359625D01*
Y0359638D01*
X0227136Y0359639D01*
X0227930Y0360170D01*
X0228461Y0360964D01*
X0228647Y0361900D01*
X0228492Y0362681D01*
X0228461Y0362836D01*
X0227930Y0363630D01*
X0226923Y0364637D01*
Y0366264D01*
X0226954Y0366310D01*
X0227060Y0366469D01*
X0227153Y0366937D01*
Y0377400D01*
X0227060Y0377868D01*
X0226923Y0378073D01*
Y0378176D01*
X0211573Y0393527D01*
Y0398881D01*
Y0403900D01*
X0288865D01*
Y0392612D01*
D02*
G37*
G36*
X0339700Y0375900D02*
X0340363D01*
Y0373623D01*
X0320700D01*
X0320573Y0373598D01*
X0319738Y0374102D01*
X0319573Y0374293D01*
Y0375381D01*
Y0380931D01*
X0318535D01*
Y0382129D01*
X0339700D01*
Y0375900D01*
D02*
G37*
G36*
X0197200Y0329900D02*
X0183200D01*
X0160700Y0352400D01*
X0108424D01*
Y0376786D01*
X0108700Y0404400D01*
X0176327D01*
Y0398881D01*
Y0393369D01*
X0182073D01*
Y0398881D01*
Y0404400D01*
X0197200D01*
Y0329900D01*
D02*
G37*
G36*
X0449439Y0405836D02*
X0133049D01*
Y0437447D01*
X0176439Y0480836D01*
X0449439D01*
Y0405836D01*
D02*
G37*
G36*
X0205827Y0393400D02*
Y0393369D01*
X0209961D01*
X0225930Y0377400D01*
Y0366937D01*
X0225006Y0366555D01*
X0214430Y0377130D01*
X0213636Y0377661D01*
X0213481Y0377692D01*
X0212700Y0377847D01*
X0210147D01*
Y0379144D01*
X0210073Y0379515D01*
Y0381881D01*
Y0384285D01*
X0210147Y0384656D01*
Y0388900D01*
X0209961Y0389836D01*
X0209430Y0390630D01*
X0208636Y0391161D01*
X0207700Y0391347D01*
X0206764Y0391161D01*
X0205970Y0390630D01*
X0205439Y0389836D01*
X0205253Y0388900D01*
Y0387431D01*
X0204327D01*
Y0381881D01*
Y0376369D01*
X0205253D01*
Y0375400D01*
Y0374931D01*
X0204327D01*
Y0369381D01*
Y0363869D01*
X0205253D01*
Y0361955D01*
X0205439Y0361019D01*
X0205970Y0360225D01*
X0206003Y0360203D01*
X0206025Y0360170D01*
X0206819Y0359639D01*
X0207755Y0359453D01*
X0208692Y0359639D01*
X0209485Y0360170D01*
X0210016Y0360964D01*
X0210202Y0361900D01*
X0210147Y0362177D01*
Y0366644D01*
X0210073Y0367015D01*
Y0369381D01*
Y0371785D01*
X0210147Y0372156D01*
Y0372953D01*
X0211686D01*
X0224470Y0360170D01*
X0225264Y0359639D01*
X0225419Y0359608D01*
X0225930Y0359507D01*
Y0336305D01*
X0225700Y0335400D01*
X0222700D01*
X0221700Y0334400D01*
Y0332400D01*
X0222700Y0331400D01*
X0224200D01*
Y0315400D01*
X0225700Y0313900D01*
Y0313900D01*
X0225930Y0312995D01*
Y0310847D01*
X0210147D01*
Y0312644D01*
X0210073Y0313015D01*
Y0315381D01*
Y0317785D01*
X0210147Y0318156D01*
Y0321900D01*
X0209961Y0322836D01*
X0209430Y0323630D01*
X0208636Y0324161D01*
X0207700Y0324347D01*
X0206764Y0324161D01*
X0205970Y0323630D01*
X0205439Y0322836D01*
X0205253Y0321900D01*
Y0320931D01*
X0204327D01*
Y0315381D01*
Y0309869D01*
X0205253D01*
Y0307431D01*
X0204327D01*
Y0301881D01*
Y0296369D01*
X0205253D01*
Y0294900D01*
X0205439Y0293964D01*
X0205970Y0293170D01*
X0206764Y0292639D01*
X0207700Y0292453D01*
X0208636Y0292639D01*
X0209430Y0293170D01*
X0209961Y0293964D01*
X0210147Y0294900D01*
Y0299144D01*
X0210073Y0299515D01*
Y0301881D01*
Y0304285D01*
X0210147Y0304656D01*
Y0305953D01*
X0225930D01*
Y0292400D01*
X0208930Y0275400D01*
X0200231Y0275400D01*
Y0275773D01*
X0199700D01*
Y0392693D01*
X0200407Y0393400D01*
X0205827Y0393400D01*
D02*
G37*
G36*
X0314865Y0383640D02*
Y0380931D01*
X0313827D01*
Y0375381D01*
Y0369869D01*
X0314973D01*
X0315099Y0369237D01*
X0315211Y0369069D01*
Y0367773D01*
X0314169D01*
Y0362184D01*
X0313662Y0361914D01*
X0313169Y0361805D01*
X0312636Y0362161D01*
X0311700Y0362347D01*
X0310764Y0362161D01*
X0309970Y0361630D01*
X0309439Y0360836D01*
X0309253Y0359900D01*
X0309439Y0358964D01*
X0309970Y0358170D01*
X0310055Y0358113D01*
X0310280Y0356875D01*
X0309991Y0356476D01*
X0309980D01*
X0309316Y0356344D01*
X0308754Y0355968D01*
X0302857Y0350071D01*
X0301933Y0350454D01*
Y0381869D01*
X0303073D01*
Y0387381D01*
Y0388321D01*
X0310184D01*
X0314865Y0383640D01*
D02*
G37*
%LPC*%
G36*
X0277700Y0372498D02*
X0276251Y0372307D01*
X0274901Y0371748D01*
X0273742Y0370858D01*
X0272852Y0369699D01*
X0272293Y0368349D01*
X0272102Y0366900D01*
X0272293Y0365451D01*
X0272852Y0364101D01*
X0273742Y0362942D01*
X0274901Y0362052D01*
X0276251Y0361493D01*
X0277700Y0361302D01*
X0279149Y0361493D01*
X0280499Y0362052D01*
X0281658Y0362942D01*
X0282548Y0364101D01*
X0283107Y0365451D01*
X0283298Y0366900D01*
X0283107Y0368349D01*
X0282548Y0369699D01*
X0281658Y0370858D01*
X0280499Y0371748D01*
X0279149Y0372307D01*
X0277700Y0372498D01*
D02*
G37*
G36*
X0360700Y0328998D02*
X0359251Y0328807D01*
X0357901Y0328248D01*
X0356742Y0327358D01*
X0355852Y0326199D01*
X0355293Y0324849D01*
X0355102Y0323400D01*
X0355293Y0321951D01*
X0355852Y0320601D01*
X0356742Y0319442D01*
X0357901Y0318552D01*
X0359251Y0317993D01*
X0360700Y0317802D01*
X0362149Y0317993D01*
X0363499Y0318552D01*
X0364658Y0319442D01*
X0365548Y0320601D01*
X0366107Y0321951D01*
X0366298Y0323400D01*
X0366107Y0324849D01*
X0365548Y0326199D01*
X0364658Y0327358D01*
X0363499Y0328248D01*
X0362149Y0328807D01*
X0360700Y0328998D01*
D02*
G37*
%LPD*%
G54D21*
X0217385Y0258691D02*
D03*
Y0270109D02*
D03*
X0231385Y0258691D02*
D03*
Y0270109D02*
D03*
G54D22*
X0246700Y0331400D02*
D03*
Y0339400D02*
D03*
G54D28*
X0077500Y0195000D02*
D03*
Y0202500D02*
D03*
Y0210000D02*
D03*
Y0217500D02*
D03*
Y0225000D02*
D03*
Y0232500D02*
D03*
Y0240000D02*
D03*
Y0247500D02*
D03*
Y0255000D02*
D03*
Y0262500D02*
D03*
Y0270000D02*
D03*
Y0277500D02*
D03*
Y0285000D02*
D03*
Y0292500D02*
D03*
Y0300000D02*
D03*
Y0307500D02*
D03*
Y0315000D02*
D03*
Y0322500D02*
D03*
Y0330000D02*
D03*
Y0337500D02*
D03*
Y0345000D02*
D03*
Y0352500D02*
D03*
Y0360000D02*
D03*
Y0367500D02*
D03*
Y0375000D02*
D03*
Y0382500D02*
D03*
Y0390000D02*
D03*
Y0397500D02*
D03*
Y0405000D02*
D03*
Y0412500D02*
D03*
Y0420000D02*
D03*
Y0427500D02*
D03*
Y0435000D02*
D03*
Y0442500D02*
D03*
Y0450000D02*
D03*
Y0457500D02*
D03*
Y0465000D02*
D03*
Y0472500D02*
D03*
Y0480000D02*
D03*
X0085000Y0195000D02*
D03*
Y0202500D02*
D03*
Y0210000D02*
D03*
Y0217500D02*
D03*
Y0225000D02*
D03*
Y0232500D02*
D03*
Y0240000D02*
D03*
Y0247500D02*
D03*
Y0255000D02*
D03*
Y0262500D02*
D03*
Y0270000D02*
D03*
Y0277500D02*
D03*
Y0285000D02*
D03*
Y0292500D02*
D03*
Y0300000D02*
D03*
Y0307500D02*
D03*
Y0315000D02*
D03*
Y0322500D02*
D03*
Y0330000D02*
D03*
Y0337500D02*
D03*
Y0345000D02*
D03*
Y0352500D02*
D03*
Y0360000D02*
D03*
Y0367500D02*
D03*
Y0375000D02*
D03*
Y0382500D02*
D03*
Y0390000D02*
D03*
Y0397500D02*
D03*
Y0405000D02*
D03*
Y0412500D02*
D03*
Y0420000D02*
D03*
Y0427500D02*
D03*
Y0435000D02*
D03*
Y0442500D02*
D03*
Y0450000D02*
D03*
Y0457500D02*
D03*
Y0465000D02*
D03*
Y0472500D02*
D03*
X0092500Y0195000D02*
D03*
Y0202500D02*
D03*
Y0210000D02*
D03*
Y0217500D02*
D03*
Y0225000D02*
D03*
Y0232500D02*
D03*
Y0240000D02*
D03*
Y0247500D02*
D03*
Y0255000D02*
D03*
Y0262500D02*
D03*
Y0270000D02*
D03*
Y0277500D02*
D03*
Y0285000D02*
D03*
Y0292500D02*
D03*
Y0300000D02*
D03*
Y0307500D02*
D03*
Y0315000D02*
D03*
Y0322500D02*
D03*
Y0330000D02*
D03*
Y0337500D02*
D03*
Y0345000D02*
D03*
Y0352500D02*
D03*
Y0360000D02*
D03*
Y0367500D02*
D03*
Y0375000D02*
D03*
Y0382500D02*
D03*
Y0390000D02*
D03*
Y0397500D02*
D03*
Y0405000D02*
D03*
Y0412500D02*
D03*
Y0420000D02*
D03*
Y0427500D02*
D03*
Y0435000D02*
D03*
Y0442500D02*
D03*
Y0450000D02*
D03*
Y0457500D02*
D03*
Y0465000D02*
D03*
Y0472500D02*
D03*
X0100000Y0195000D02*
D03*
Y0202500D02*
D03*
Y0210000D02*
D03*
Y0217500D02*
D03*
Y0225000D02*
D03*
Y0232500D02*
D03*
Y0240000D02*
D03*
Y0247500D02*
D03*
Y0255000D02*
D03*
Y0262500D02*
D03*
Y0270000D02*
D03*
Y0277500D02*
D03*
Y0285000D02*
D03*
Y0292500D02*
D03*
Y0300000D02*
D03*
Y0307500D02*
D03*
Y0315000D02*
D03*
Y0322500D02*
D03*
Y0330000D02*
D03*
Y0337500D02*
D03*
Y0345000D02*
D03*
Y0352500D02*
D03*
Y0360000D02*
D03*
Y0367500D02*
D03*
Y0375000D02*
D03*
Y0382500D02*
D03*
Y0390000D02*
D03*
Y0397500D02*
D03*
Y0405000D02*
D03*
Y0412500D02*
D03*
Y0420000D02*
D03*
Y0427500D02*
D03*
Y0435000D02*
D03*
Y0442500D02*
D03*
Y0450000D02*
D03*
Y0457500D02*
D03*
Y0465000D02*
D03*
Y0472500D02*
D03*
Y0480000D02*
D03*
X0107500Y0187500D02*
D03*
Y0195000D02*
D03*
Y0202500D02*
D03*
Y0210000D02*
D03*
Y0217500D02*
D03*
Y0225000D02*
D03*
Y0232500D02*
D03*
Y0240000D02*
D03*
Y0247500D02*
D03*
Y0255000D02*
D03*
Y0412500D02*
D03*
Y0420000D02*
D03*
Y0427500D02*
D03*
Y0435000D02*
D03*
Y0442500D02*
D03*
Y0450000D02*
D03*
Y0457500D02*
D03*
Y0465000D02*
D03*
Y0472500D02*
D03*
Y0480000D02*
D03*
Y0487500D02*
D03*
Y0510000D02*
D03*
X0115000Y0165000D02*
D03*
Y0172500D02*
D03*
Y0180000D02*
D03*
Y0187500D02*
D03*
Y0195000D02*
D03*
Y0202500D02*
D03*
Y0210000D02*
D03*
Y0217500D02*
D03*
Y0225000D02*
D03*
Y0232500D02*
D03*
Y0240000D02*
D03*
Y0247500D02*
D03*
Y0255000D02*
D03*
Y0412500D02*
D03*
Y0420000D02*
D03*
Y0427500D02*
D03*
Y0435000D02*
D03*
Y0442500D02*
D03*
Y0450000D02*
D03*
Y0457500D02*
D03*
Y0465000D02*
D03*
Y0472500D02*
D03*
Y0480000D02*
D03*
Y0487500D02*
D03*
Y0495000D02*
D03*
Y0502500D02*
D03*
Y0510000D02*
D03*
X0122500Y0165000D02*
D03*
Y0172500D02*
D03*
Y0180000D02*
D03*
Y0187500D02*
D03*
Y0195000D02*
D03*
Y0202500D02*
D03*
Y0210000D02*
D03*
Y0217500D02*
D03*
Y0225000D02*
D03*
Y0232500D02*
D03*
Y0240000D02*
D03*
Y0247500D02*
D03*
Y0255000D02*
D03*
Y0412500D02*
D03*
Y0420000D02*
D03*
Y0427500D02*
D03*
Y0435000D02*
D03*
Y0442500D02*
D03*
Y0450000D02*
D03*
Y0457500D02*
D03*
Y0465000D02*
D03*
Y0472500D02*
D03*
Y0480000D02*
D03*
Y0487500D02*
D03*
Y0495000D02*
D03*
Y0502500D02*
D03*
Y0510000D02*
D03*
X0130000Y0195000D02*
D03*
Y0202500D02*
D03*
Y0210000D02*
D03*
Y0217500D02*
D03*
Y0225000D02*
D03*
Y0232500D02*
D03*
Y0442500D02*
D03*
Y0450000D02*
D03*
Y0457500D02*
D03*
Y0465000D02*
D03*
Y0472500D02*
D03*
Y0502500D02*
D03*
Y0510000D02*
D03*
X0137500Y0195000D02*
D03*
Y0202500D02*
D03*
Y0210000D02*
D03*
Y0217500D02*
D03*
Y0225000D02*
D03*
Y0450000D02*
D03*
Y0457500D02*
D03*
Y0465000D02*
D03*
Y0472500D02*
D03*
Y0502500D02*
D03*
Y0510000D02*
D03*
X0145000Y0180000D02*
D03*
Y0187500D02*
D03*
Y0195000D02*
D03*
Y0202500D02*
D03*
Y0210000D02*
D03*
Y0217500D02*
D03*
Y0457500D02*
D03*
Y0465000D02*
D03*
Y0472500D02*
D03*
Y0480000D02*
D03*
Y0487500D02*
D03*
Y0495000D02*
D03*
Y0502500D02*
D03*
Y0510000D02*
D03*
X0152500Y0180000D02*
D03*
Y0187500D02*
D03*
Y0195000D02*
D03*
Y0202500D02*
D03*
Y0210000D02*
D03*
Y0465000D02*
D03*
Y0472500D02*
D03*
Y0480000D02*
D03*
Y0487500D02*
D03*
Y0495000D02*
D03*
Y0502500D02*
D03*
Y0510000D02*
D03*
X0160000Y0180000D02*
D03*
Y0187500D02*
D03*
Y0195000D02*
D03*
Y0202500D02*
D03*
Y0472500D02*
D03*
Y0480000D02*
D03*
Y0487500D02*
D03*
Y0495000D02*
D03*
Y0502500D02*
D03*
Y0510000D02*
D03*
X0167500Y0180000D02*
D03*
Y0187500D02*
D03*
Y0195000D02*
D03*
Y0480000D02*
D03*
Y0487500D02*
D03*
Y0495000D02*
D03*
Y0502500D02*
D03*
Y0510000D02*
D03*
X0175000Y0180000D02*
D03*
Y0187500D02*
D03*
Y0487500D02*
D03*
Y0495000D02*
D03*
Y0502500D02*
D03*
Y0510000D02*
D03*
X0182500Y0180000D02*
D03*
Y0487500D02*
D03*
Y0495000D02*
D03*
Y0502500D02*
D03*
Y0510000D02*
D03*
X0190000Y0180000D02*
D03*
Y0487500D02*
D03*
Y0495000D02*
D03*
Y0502500D02*
D03*
Y0510000D02*
D03*
X0197500Y0180000D02*
D03*
Y0487500D02*
D03*
Y0495000D02*
D03*
Y0502500D02*
D03*
Y0510000D02*
D03*
X0205000Y0165000D02*
D03*
Y0172500D02*
D03*
Y0180000D02*
D03*
Y0487500D02*
D03*
Y0495000D02*
D03*
Y0502500D02*
D03*
Y0510000D02*
D03*
X0212500Y0165000D02*
D03*
Y0172500D02*
D03*
Y0180000D02*
D03*
Y0487500D02*
D03*
Y0495000D02*
D03*
Y0502500D02*
D03*
Y0510000D02*
D03*
X0220000Y0165000D02*
D03*
Y0172500D02*
D03*
Y0180000D02*
D03*
Y0487500D02*
D03*
Y0495000D02*
D03*
Y0502500D02*
D03*
Y0510000D02*
D03*
X0227500Y0165000D02*
D03*
Y0172500D02*
D03*
Y0180000D02*
D03*
Y0487500D02*
D03*
Y0495000D02*
D03*
Y0502500D02*
D03*
Y0510000D02*
D03*
X0235000Y0165000D02*
D03*
Y0172500D02*
D03*
Y0180000D02*
D03*
Y0487500D02*
D03*
Y0495000D02*
D03*
Y0502500D02*
D03*
Y0510000D02*
D03*
X0242500Y0165000D02*
D03*
Y0172500D02*
D03*
Y0180000D02*
D03*
Y0487500D02*
D03*
Y0495000D02*
D03*
Y0502500D02*
D03*
Y0510000D02*
D03*
X0250000Y0165000D02*
D03*
Y0172500D02*
D03*
Y0180000D02*
D03*
Y0487500D02*
D03*
Y0495000D02*
D03*
Y0502500D02*
D03*
Y0510000D02*
D03*
X0257500Y0165000D02*
D03*
Y0172500D02*
D03*
Y0180000D02*
D03*
Y0487500D02*
D03*
Y0495000D02*
D03*
Y0502500D02*
D03*
Y0510000D02*
D03*
X0265000Y0165000D02*
D03*
Y0172500D02*
D03*
Y0180000D02*
D03*
Y0487500D02*
D03*
Y0495000D02*
D03*
Y0502500D02*
D03*
Y0510000D02*
D03*
X0272500Y0165000D02*
D03*
Y0172500D02*
D03*
Y0180000D02*
D03*
Y0487500D02*
D03*
Y0495000D02*
D03*
Y0502500D02*
D03*
Y0510000D02*
D03*
X0280000Y0180000D02*
D03*
Y0487500D02*
D03*
Y0495000D02*
D03*
Y0502500D02*
D03*
Y0510000D02*
D03*
X0287500Y0180000D02*
D03*
Y0487500D02*
D03*
Y0495000D02*
D03*
Y0502500D02*
D03*
Y0510000D02*
D03*
X0295000Y0180000D02*
D03*
Y0487500D02*
D03*
Y0495000D02*
D03*
Y0502500D02*
D03*
Y0510000D02*
D03*
X0302500Y0180000D02*
D03*
Y0487500D02*
D03*
Y0495000D02*
D03*
Y0502500D02*
D03*
Y0510000D02*
D03*
X0310000Y0180000D02*
D03*
Y0487500D02*
D03*
Y0495000D02*
D03*
Y0502500D02*
D03*
Y0510000D02*
D03*
X0317500Y0180000D02*
D03*
Y0487500D02*
D03*
Y0495000D02*
D03*
Y0502500D02*
D03*
Y0510000D02*
D03*
X0325000Y0180000D02*
D03*
Y0487500D02*
D03*
Y0495000D02*
D03*
Y0502500D02*
D03*
Y0510000D02*
D03*
X0332500Y0165000D02*
D03*
Y0172500D02*
D03*
Y0180000D02*
D03*
Y0487500D02*
D03*
Y0495000D02*
D03*
Y0502500D02*
D03*
Y0510000D02*
D03*
X0340000Y0165000D02*
D03*
Y0172500D02*
D03*
Y0180000D02*
D03*
Y0487500D02*
D03*
Y0495000D02*
D03*
Y0502500D02*
D03*
Y0510000D02*
D03*
X0347500Y0165000D02*
D03*
Y0172500D02*
D03*
Y0180000D02*
D03*
Y0487500D02*
D03*
Y0495000D02*
D03*
Y0502500D02*
D03*
Y0510000D02*
D03*
X0355000Y0165000D02*
D03*
Y0172500D02*
D03*
Y0180000D02*
D03*
Y0487500D02*
D03*
Y0495000D02*
D03*
Y0502500D02*
D03*
Y0510000D02*
D03*
X0362500Y0165000D02*
D03*
Y0172500D02*
D03*
Y0180000D02*
D03*
Y0487500D02*
D03*
Y0495000D02*
D03*
Y0502500D02*
D03*
Y0510000D02*
D03*
X0370000Y0165000D02*
D03*
Y0172500D02*
D03*
Y0180000D02*
D03*
Y0487500D02*
D03*
Y0495000D02*
D03*
Y0502500D02*
D03*
Y0510000D02*
D03*
X0377500Y0165000D02*
D03*
Y0172500D02*
D03*
Y0180000D02*
D03*
Y0487500D02*
D03*
Y0495000D02*
D03*
Y0502500D02*
D03*
Y0510000D02*
D03*
X0385000Y0165000D02*
D03*
Y0172500D02*
D03*
Y0487500D02*
D03*
Y0495000D02*
D03*
Y0502500D02*
D03*
Y0510000D02*
D03*
X0392500Y0165000D02*
D03*
Y0172500D02*
D03*
Y0487500D02*
D03*
Y0495000D02*
D03*
Y0502500D02*
D03*
Y0510000D02*
D03*
X0400000Y0165000D02*
D03*
Y0172500D02*
D03*
Y0180000D02*
D03*
Y0487500D02*
D03*
Y0495000D02*
D03*
Y0502500D02*
D03*
Y0510000D02*
D03*
X0407500Y0165000D02*
D03*
Y0172500D02*
D03*
Y0180000D02*
D03*
Y0487500D02*
D03*
Y0495000D02*
D03*
Y0502500D02*
D03*
Y0510000D02*
D03*
G54D29*
X0207700Y0308400D02*
Y0312644D01*
Y0304656D02*
Y0308400D01*
X0246480Y0337959D02*
X0255141D01*
X0245869Y0338569D02*
X0246480Y0337959D01*
X0207700Y0375400D02*
Y0379144D01*
Y0372156D02*
Y0375400D01*
Y0361955D02*
Y0366644D01*
Y0384656D02*
Y0388900D01*
Y0294900D02*
Y0299144D01*
Y0318156D02*
Y0321900D01*
X0248700Y0351656D02*
Y0355400D01*
X0212700Y0375400D02*
X0226200Y0361900D01*
X0207700Y0375400D02*
X0212700D01*
X0244444Y0319144D02*
X0248200D01*
X0197456Y0266900D02*
X0201700D01*
X0202708Y0267908D01*
Y0272900D01*
X0197456D02*
X0202708D01*
X0178700D02*
X0191944D01*
X0151700Y0266900D02*
X0191944D01*
X0149200Y0269400D02*
X0151700Y0266900D01*
X0149200Y0269400D02*
Y0272900D01*
X0207700Y0308400D02*
X0226200D01*
X0342672Y0360428D02*
X0356310D01*
X0342200Y0360900D02*
X0342672Y0360428D01*
X0342810Y0371510D02*
Y0379428D01*
X0358570Y0343928D02*
X0367310D01*
X0353098Y0349400D02*
X0358570Y0343928D01*
X0342200Y0349400D02*
X0353098D01*
X0246700Y0331400D02*
X0253700D01*
X0254700D01*
G54D30*
X0290700Y0357707D02*
Y0362707D01*
Y0357463D02*
X0295700D01*
X0259700Y0304156D02*
Y0314400D01*
X0253700Y0308144D02*
Y0311900D01*
X0255275Y0341825D02*
X0260700D01*
X0258287Y0343813D02*
X0266313D01*
X0255956Y0346144D02*
X0258287Y0343813D01*
X0309944Y0308644D02*
X0310200Y0308900D01*
X0309944Y0294400D02*
Y0308644D01*
X0244956Y0346144D02*
X0248700D01*
X0243869Y0347231D02*
X0244956Y0346144D01*
X0236700Y0347231D02*
X0243869D01*
X0244956Y0324656D02*
X0248200D01*
X0243869Y0323569D02*
X0244956Y0324656D01*
X0236700Y0323569D02*
X0243869D01*
X0288920Y0326065D02*
X0293700D01*
X0288920Y0346538D02*
X0295775D01*
X0296700Y0352380D02*
X0297287Y0351793D01*
X0296700Y0352380D02*
Y0356463D01*
X0295700Y0357463D02*
X0296700Y0356463D01*
X0290700Y0368219D02*
Y0381569D01*
X0295775Y0346538D02*
X0297287Y0348050D01*
Y0351793D01*
X0256798Y0336302D02*
X0266479D01*
X0266313Y0343813D02*
X0266479Y0343979D01*
X0261003Y0349097D02*
X0266479D01*
X0258444Y0351656D02*
X0261003Y0349097D01*
X0248700Y0351656D02*
X0258444D01*
X0248700Y0346144D02*
X0255956D01*
X0259562Y0346538D02*
X0266479D01*
X0261105Y0341420D02*
X0266479D01*
X0260700Y0341825D02*
X0261105Y0341420D01*
X0255200Y0341900D02*
X0255275Y0341825D01*
X0258739Y0338861D02*
X0266479D01*
X0258983Y0331184D02*
X0266479D01*
X0260924Y0328624D02*
X0266479D01*
X0260613Y0328313D02*
X0260924Y0328624D01*
X0248200Y0324656D02*
X0252456D01*
X0256113Y0328313D01*
X0260613D01*
X0257865Y0326065D02*
X0266479D01*
X0256700Y0324900D02*
X0257865Y0326065D01*
X0258965Y0323506D02*
X0266479D01*
X0254603Y0319144D02*
X0258965Y0323506D01*
X0248200Y0319144D02*
X0254603D01*
X0261129Y0315829D02*
X0266479D01*
X0259747Y0320947D02*
X0266479D01*
X0253700Y0314900D02*
X0259747Y0320947D01*
X0290700Y0390347D02*
Y0408900D01*
X0253700Y0311900D02*
X0260188Y0318388D01*
X0266479D01*
X0259700Y0314400D02*
X0261129Y0315829D01*
X0253944Y0302444D02*
Y0308900D01*
X0300200Y0390156D02*
X0310944D01*
X0316700Y0384400D01*
Y0378156D02*
Y0378400D01*
Y0384400D01*
X0265200Y0298400D02*
Y0302644D01*
X0251700Y0314900D02*
X0253700D01*
X0251200Y0314400D02*
X0251700Y0314900D01*
X0381090Y0337510D02*
Y0343928D01*
X0356590Y0379428D02*
Y0383510D01*
X0356135Y0383965D02*
X0356590Y0383510D01*
X0317135Y0383965D02*
X0356135D01*
X0316700Y0384400D02*
X0317135Y0383965D01*
X0282200Y0326065D02*
X0288920D01*
X0260043Y0333742D02*
X0266479D01*
X0276420D01*
X0290700Y0390347D02*
X0300009D01*
X0316700Y0378400D02*
X0316700D01*
G54D31*
X0311444Y0317400D02*
Y0322463D01*
X0358700Y0351400D02*
X0363200D01*
X0225200Y0316872D02*
X0245472Y0296600D01*
X0226987Y0317613D02*
Y0332303D01*
X0225200Y0316872D02*
Y0332400D01*
X0315456Y0294400D02*
X0316700D01*
X0310200Y0312400D02*
X0316944D01*
X0316700Y0306656D02*
Y0312156D01*
X0323700Y0304900D02*
X0330444D01*
X0288920Y0328624D02*
X0307861D01*
X0308944Y0329707D01*
X0311700D01*
X0316700D01*
X0312456Y0334463D02*
X0316944D01*
X0288920Y0331184D02*
X0305420D01*
X0307700Y0333463D01*
Y0338463D01*
X0308700Y0339463D01*
X0316944D01*
X0288920Y0333742D02*
X0303980D01*
X0305913Y0335676D01*
Y0340676D01*
X0309980Y0344742D01*
X0316664D01*
X0288920Y0336302D02*
X0302140D01*
X0304125Y0338287D01*
Y0343888D01*
X0309980Y0349743D01*
X0316664D01*
X0288920Y0338861D02*
X0300735D01*
X0302338Y0340463D01*
Y0347101D01*
X0309980Y0354743D01*
X0288920Y0349097D02*
X0294334D01*
X0294700Y0349463D01*
X0288920Y0343979D02*
X0295885D01*
X0288920Y0341420D02*
X0295657D01*
X0295700Y0341463D01*
X0288920Y0323506D02*
X0307657D01*
X0279700Y0246400D02*
X0281251D01*
X0278700Y0247400D02*
X0279700Y0246400D01*
X0274700D02*
X0275913D01*
X0276913Y0247400D01*
X0300200Y0348294D02*
Y0384644D01*
X0295885Y0343979D02*
X0300200Y0348294D01*
X0224200Y0333400D02*
X0225200Y0332400D01*
X0226987Y0332303D02*
X0228200Y0333516D01*
X0288920Y0320947D02*
X0301653D01*
X0310200Y0312400D01*
X0307657Y0323506D02*
X0308700Y0322463D01*
X0316956Y0317400D02*
X0320700D01*
X0311700Y0359900D02*
X0316944D01*
X0316944Y0359900D02*
X0316944Y0359900D01*
X0316944Y0359900D02*
Y0364900D01*
X0309980Y0354743D02*
X0312200D01*
X0316664D01*
X0316944Y0364900D02*
Y0369656D01*
X0316700Y0369900D02*
X0316944Y0369656D01*
X0316700Y0369900D02*
Y0372644D01*
X0265200Y0308156D02*
Y0311400D01*
X0288920Y0315829D02*
X0294271D01*
X0296444Y0313656D01*
Y0310400D02*
Y0313656D01*
X0288920Y0318388D02*
X0299712D01*
X0301956Y0316144D01*
Y0310400D02*
Y0316144D01*
X0296444Y0306400D02*
Y0310400D01*
X0301956Y0305900D02*
Y0310400D01*
X0302200Y0296400D02*
Y0300144D01*
X0299700Y0293900D02*
X0302200Y0296400D01*
X0299700Y0284400D02*
Y0293900D01*
X0278700Y0263400D02*
X0299700Y0284400D01*
X0278700Y0247400D02*
Y0263400D01*
X0295700Y0296400D02*
Y0300144D01*
Y0296400D02*
X0297913Y0294187D01*
Y0285140D02*
Y0294187D01*
X0276913Y0264140D02*
X0297913Y0285140D01*
X0276913Y0247400D02*
Y0264140D01*
X0347200Y0330656D02*
Y0335900D01*
Y0313400D02*
Y0325144D01*
X0314858Y0253557D02*
X0316700Y0255400D01*
X0310200Y0253557D02*
X0314858D01*
X0349700Y0364900D02*
Y0370372D01*
X0347456Y0340463D02*
Y0345463D01*
Y0340463D02*
X0347456Y0340463D01*
X0353137D01*
X0354200Y0339400D01*
Y0334900D02*
Y0339400D01*
Y0334900D02*
X0374172D01*
X0226987Y0317613D02*
X0245783Y0298816D01*
X0255737D02*
X0259117D01*
X0255733Y0298813D02*
X0255737Y0298816D01*
X0251667Y0298813D02*
X0255733D01*
X0251663Y0298816D02*
X0251667Y0298813D01*
X0245783Y0298816D02*
X0251663D01*
X0336005Y0304900D02*
X0336456D01*
X0343200D01*
X0308700Y0322463D02*
X0311438D01*
X0311444D01*
X0347200Y0313400D02*
X0355982Y0304618D01*
X0316700Y0294400D02*
Y0301144D01*
Y0255400D02*
Y0294400D01*
X0245472Y0296600D02*
X0253700D01*
X0194200Y0162050D02*
Y0168048D01*
X0192201Y0166049D01*
X0190201Y0168048D01*
Y0162050D01*
X0188202D02*
Y0166049D01*
X0186203Y0168048D01*
X0184203Y0166049D01*
Y0162050D01*
Y0165049D01*
X0188202D01*
X0182204Y0168048D02*
Y0162050D01*
X0179205D01*
X0178205Y0163050D01*
Y0167048D01*
X0179205Y0168048D01*
X0182204D01*
X0172207D02*
X0176206D01*
Y0162050D01*
X0172207D01*
X0176206Y0165049D02*
X0174206D01*
X0164210Y0168048D02*
X0162210D01*
X0163210D01*
Y0162050D01*
X0164210D01*
X0162210D01*
X0159211D02*
Y0168048D01*
X0155213Y0162050D01*
Y0168048D01*
X0147215D02*
Y0163050D01*
X0146215Y0162050D01*
X0144216D01*
X0143217Y0163050D01*
Y0168048D01*
X0141217Y0162050D02*
Y0163050D01*
X0140217D01*
Y0162050D01*
X0141217D01*
X0132220Y0167048D02*
X0133220Y0168048D01*
X0135219D01*
X0136219Y0167048D01*
Y0166049D01*
X0135219Y0165049D01*
X0133220D01*
X0132220Y0164049D01*
Y0163050D01*
X0133220Y0162050D01*
X0135219D01*
X0136219Y0163050D01*
X0130221Y0162050D02*
Y0163050D01*
X0129221D01*
Y0162050D01*
X0130221D01*
X0322150Y0168048D02*
Y0163050D01*
X0321150Y0162050D01*
X0319151D01*
X0318151Y0163050D01*
Y0168048D01*
X0316152D02*
Y0162050D01*
X0312153D01*
X0310154Y0163050D02*
X0309154Y0162050D01*
X0307155D01*
X0306155Y0163050D01*
Y0167048D01*
X0307155Y0168048D01*
X0309154D01*
X0310154Y0167048D01*
Y0166049D01*
X0309154Y0165049D01*
X0306155D01*
X0301157Y0162050D02*
Y0168048D01*
X0304156Y0165049D01*
X0300157D01*
X0298158Y0168048D02*
Y0164049D01*
X0296158Y0162050D01*
X0294159Y0164049D01*
Y0168048D01*
X0292160Y0165049D02*
X0288161D01*
X0286162Y0167048D02*
X0285162Y0168048D01*
X0283163D01*
X0282163Y0167048D01*
Y0163050D01*
X0283163Y0162050D01*
X0285162D01*
X0286162Y0163050D01*
Y0167048D01*
X0497200Y0080717D02*
Y0101050D01*
X0413200Y0080717D02*
Y0101050D01*
X0040000Y0080717D02*
X0700200D01*
X0040000Y0060383D02*
X0700000D01*
X0040000Y0040050D02*
X0440500D01*
X0040050Y0101050D02*
X0700200D01*
X0040050Y0040050D02*
Y0101050D01*
Y0040050D02*
X0197600D01*
X0040000D02*
Y0101050D01*
X0286500Y0040050D02*
Y0101050D01*
X0700200Y0040050D02*
Y0101050D01*
X0440500Y0040050D02*
X0700200D01*
X0559400Y0039400D02*
Y0059683D01*
G54D32*
X0126900Y0073549D02*
Y0067551D01*
X0129899D01*
X0130899Y0068550D01*
Y0069550D01*
X0129899Y0070550D01*
X0126900D01*
X0129899D01*
X0130899Y0071549D01*
Y0072549D01*
X0129899Y0073549D01*
X0126900D01*
X0133898Y0067551D02*
X0135897D01*
X0136897Y0068550D01*
Y0070550D01*
X0135897Y0071549D01*
X0133898D01*
X0132898Y0070550D01*
Y0068550D01*
X0133898Y0067551D01*
X0139896Y0072549D02*
Y0071549D01*
X0138896D01*
X0140895D01*
X0139896D01*
Y0068550D01*
X0140895Y0067551D01*
X0144894Y0072549D02*
Y0071549D01*
X0143895D01*
X0145894D01*
X0144894D01*
Y0068550D01*
X0145894Y0067551D01*
X0149893D02*
X0151892D01*
X0152892Y0068550D01*
Y0070550D01*
X0151892Y0071549D01*
X0149893D01*
X0148893Y0070550D01*
Y0068550D01*
X0149893Y0067551D01*
X0154891D02*
Y0071549D01*
X0155891D01*
X0156890Y0070550D01*
Y0067551D01*
Y0070550D01*
X0157890Y0071549D01*
X0158890Y0070550D01*
Y0067551D01*
X0166887Y0073549D02*
Y0067551D01*
X0170886D01*
X0173885Y0071549D02*
X0175884D01*
X0176884Y0070550D01*
Y0067551D01*
X0173885D01*
X0172885Y0068550D01*
X0173885Y0069550D01*
X0176884D01*
X0178883Y0071549D02*
Y0068550D01*
X0179883Y0067551D01*
X0182882D01*
Y0066551D01*
X0181882Y0065551D01*
X0180883D01*
X0182882Y0067551D02*
Y0071549D01*
X0187880Y0067551D02*
X0185881D01*
X0184881Y0068550D01*
Y0070550D01*
X0185881Y0071549D01*
X0187880D01*
X0188880Y0070550D01*
Y0069550D01*
X0184881D01*
X0190879Y0071549D02*
Y0067551D01*
Y0069550D01*
X0191879Y0070550D01*
X0192879Y0071549D01*
X0193878D01*
X0567400Y0087833D02*
Y0093831D01*
X0571399Y0087833D01*
Y0093831D01*
X0574398Y0087833D02*
X0576397D01*
X0577397Y0088833D01*
Y0090832D01*
X0576397Y0091832D01*
X0574398D01*
X0573398Y0090832D01*
Y0088833D01*
X0574398Y0087833D01*
X0580396Y0092832D02*
Y0091832D01*
X0579396D01*
X0581395D01*
X0580396D01*
Y0088833D01*
X0581395Y0087833D01*
X0590393Y0093831D02*
X0592392D01*
X0591392D01*
Y0087833D01*
X0590393D01*
X0592392D01*
X0595391D02*
Y0091832D01*
X0598390D01*
X0599390Y0090832D01*
Y0087833D01*
X0607387Y0093831D02*
Y0089833D01*
X0609386Y0087833D01*
X0611386Y0089833D01*
Y0093831D01*
X0616384Y0087833D02*
X0614385D01*
X0613385Y0088833D01*
Y0090832D01*
X0614385Y0091832D01*
X0616384D01*
X0617384Y0090832D01*
Y0089833D01*
X0613385D01*
X0619383Y0091832D02*
Y0087833D01*
Y0089833D01*
X0620383Y0090832D01*
X0621383Y0091832D01*
X0622382D01*
X0625381Y0087833D02*
X0628380D01*
X0629380Y0088833D01*
X0628380Y0089833D01*
X0626381D01*
X0625381Y0090832D01*
X0626381Y0091832D01*
X0629380D01*
X0631379Y0087833D02*
X0633379D01*
X0632379D01*
Y0091832D01*
X0631379D01*
X0637377Y0087833D02*
X0639377D01*
X0640376Y0088833D01*
Y0090832D01*
X0639377Y0091832D01*
X0637377D01*
X0636378Y0090832D01*
Y0088833D01*
X0637377Y0087833D01*
X0642376D02*
Y0091832D01*
X0645375D01*
X0646374Y0090832D01*
Y0087833D01*
X0652373Y0092832D02*
X0651373Y0093831D01*
X0649373D01*
X0648374Y0092832D01*
Y0088833D01*
X0649373Y0087833D01*
X0651373D01*
X0652373Y0088833D01*
X0655372Y0087833D02*
X0657371D01*
X0658371Y0088833D01*
Y0090832D01*
X0657371Y0091832D01*
X0655372D01*
X0654372Y0090832D01*
Y0088833D01*
X0655372Y0087833D01*
X0660370D02*
Y0091832D01*
X0663369D01*
X0664369Y0090832D01*
Y0087833D01*
X0667368Y0092832D02*
Y0091832D01*
X0666368D01*
X0668367D01*
X0667368D01*
Y0088833D01*
X0668367Y0087833D01*
X0671366Y0091832D02*
Y0087833D01*
Y0089833D01*
X0672366Y0090832D01*
X0673366Y0091832D01*
X0674365D01*
X0678364Y0087833D02*
X0680364D01*
X0681363Y0088833D01*
Y0090832D01*
X0680364Y0091832D01*
X0678364D01*
X0677364Y0090832D01*
Y0088833D01*
X0678364Y0087833D01*
X0683362D02*
X0685362D01*
X0684362D01*
Y0093831D01*
X0683362D01*
X0520799Y0092832D02*
X0519799Y0093831D01*
X0517800D01*
X0516800Y0092832D01*
Y0091832D01*
X0517800Y0090832D01*
X0519799D01*
X0520799Y0089833D01*
Y0088833D01*
X0519799Y0087833D01*
X0517800D01*
X0516800Y0088833D01*
X0522798Y0093831D02*
Y0089833D01*
X0524797Y0087833D01*
X0526797Y0089833D01*
Y0093831D01*
X0528796Y0087833D02*
Y0093831D01*
X0532795Y0087833D01*
Y0093831D01*
X0540792Y0087833D02*
Y0093831D01*
X0543791D01*
X0544791Y0092832D01*
Y0090832D01*
X0543791Y0089833D01*
X0540792D01*
X0542792D02*
X0544791Y0087833D01*
X0550789Y0093831D02*
X0546790D01*
Y0087833D01*
X0550789D01*
X0546790Y0090832D02*
X0548790D01*
X0552788Y0093831D02*
Y0089833D01*
X0554788Y0087833D01*
X0556787Y0089833D01*
Y0093831D01*
X0558786Y0091832D02*
X0559786D01*
Y0090832D01*
X0558786D01*
Y0091832D01*
Y0088833D02*
X0559786D01*
Y0087833D01*
X0558786D01*
Y0088833D01*
X0433000Y0087833D02*
Y0093831D01*
X0435999D01*
X0436999Y0092832D01*
Y0090832D01*
X0435999Y0089833D01*
X0433000D01*
X0434999D02*
X0436999Y0087833D01*
X0442997Y0093831D02*
X0438998D01*
Y0087833D01*
X0442997D01*
X0438998Y0090832D02*
X0440997D01*
X0444996Y0093831D02*
Y0089833D01*
X0446995Y0087833D01*
X0448995Y0089833D01*
Y0093831D01*
X0450994Y0091832D02*
X0451994D01*
Y0090832D01*
X0450994D01*
Y0091832D01*
Y0088833D02*
X0451994D01*
Y0087833D01*
X0450994D01*
Y0088833D01*
X0130899Y0051965D02*
X0129899Y0052965D01*
X0127900D01*
X0126900Y0051965D01*
Y0050965D01*
X0127900Y0049966D01*
X0129899D01*
X0130899Y0048966D01*
Y0047966D01*
X0129899Y0046966D01*
X0127900D01*
X0126900Y0047966D01*
X0132898Y0052965D02*
Y0048966D01*
X0134897Y0046966D01*
X0136897Y0048966D01*
Y0052965D01*
X0142895D02*
X0140895Y0051965D01*
X0138896Y0049966D01*
Y0047966D01*
X0139896Y0046966D01*
X0141895D01*
X0142895Y0047966D01*
Y0048966D01*
X0141895Y0049966D01*
X0138896D01*
X0144894Y0051965D02*
X0145894Y0052965D01*
X0147893D01*
X0148893Y0051965D01*
Y0047966D01*
X0147893Y0046966D01*
X0145894D01*
X0144894Y0047966D01*
Y0051965D01*
X0150892Y0046966D02*
X0152892D01*
X0151892D01*
Y0052965D01*
X0150892Y0051965D01*
X0155891Y0046966D02*
X0157890D01*
X0156890D01*
Y0052965D01*
X0155891Y0051965D01*
X0164888Y0052965D02*
X0160889D01*
Y0049966D01*
X0162888Y0050965D01*
X0163888D01*
X0164888Y0049966D01*
Y0047966D01*
X0163888Y0046966D01*
X0161889D01*
X0160889Y0047966D01*
X0166887Y0052965D02*
X0170886D01*
Y0051965D01*
X0166887Y0047966D01*
Y0046966D01*
X0172885D02*
Y0050965D01*
X0174884Y0052965D01*
X0176884Y0050965D01*
Y0046966D01*
Y0049966D01*
X0172885D01*
X0178883Y0046966D02*
Y0047966D01*
X0179883D01*
Y0046966D01*
X0178883D01*
X0187880Y0051965D02*
X0186881Y0052965D01*
X0184881D01*
X0183882Y0051965D01*
Y0047966D01*
X0184881Y0046966D01*
X0186881D01*
X0187880Y0047966D01*
Y0049966D01*
X0185881D01*
X0189880Y0052965D02*
Y0046966D01*
X0192879D01*
X0193878Y0047966D01*
Y0048966D01*
X0192879Y0049966D01*
X0189880D01*
X0192879D01*
X0193878Y0050965D01*
Y0051965D01*
X0192879Y0052965D01*
X0189880D01*
X0195878D02*
Y0046966D01*
X0199876D01*
X0381150Y0051965D02*
X0382150Y0052965D01*
X0384149D01*
X0385149Y0051965D01*
Y0050965D01*
X0384149Y0049966D01*
X0383149D01*
X0384149D01*
X0385149Y0048966D01*
Y0047966D01*
X0384149Y0046966D01*
X0382150D01*
X0381150Y0047966D01*
X0387148Y0046966D02*
X0391147Y0050965D01*
X0393146Y0046966D02*
X0395146D01*
X0394146D01*
Y0052965D01*
X0393146Y0051965D01*
X0398145D02*
X0399144Y0052965D01*
X0401144D01*
X0402143Y0051965D01*
Y0050965D01*
X0401144Y0049966D01*
X0400144D01*
X0401144D01*
X0402143Y0048966D01*
Y0047966D01*
X0401144Y0046966D01*
X0399144D01*
X0398145Y0047966D01*
X0404143Y0046966D02*
X0408141Y0050965D01*
X0414139Y0046966D02*
X0410141D01*
X0414139Y0050965D01*
Y0051965D01*
X0413140Y0052965D01*
X0411140D01*
X0410141Y0051965D01*
X0416139D02*
X0417138Y0052965D01*
X0419138D01*
X0420137Y0051965D01*
Y0047966D01*
X0419138Y0046966D01*
X0417138D01*
X0416139Y0047966D01*
Y0051965D01*
X0422137Y0046966D02*
X0424136D01*
X0423136D01*
Y0052965D01*
X0422137Y0051965D01*
X0431134Y0052965D02*
X0427135D01*
Y0049966D01*
X0429135Y0050965D01*
X0430134D01*
X0431134Y0049966D01*
Y0047966D01*
X0430134Y0046966D01*
X0428135D01*
X0427135Y0047966D01*
X0298199Y0051965D02*
X0297199Y0052965D01*
X0295200D01*
X0294200Y0051965D01*
Y0047966D01*
X0295200Y0046966D01*
X0297199D01*
X0298199Y0047966D01*
Y0049966D01*
X0296199D01*
X0304197Y0052965D02*
X0300198D01*
Y0046966D01*
X0304197D01*
X0300198Y0049966D02*
X0302197D01*
X0306196Y0046966D02*
Y0052965D01*
X0310195Y0046966D01*
Y0052965D01*
X0316193D02*
X0312194D01*
Y0046966D01*
X0316193D01*
X0312194Y0049966D02*
X0314194D01*
X0318192Y0046966D02*
Y0052965D01*
X0321191D01*
X0322191Y0051965D01*
Y0049966D01*
X0321191Y0048966D01*
X0318192D01*
X0320192D02*
X0322191Y0046966D01*
X0324190D02*
Y0050965D01*
X0326190Y0052965D01*
X0328189Y0050965D01*
Y0046966D01*
Y0049966D01*
X0324190D01*
X0330188Y0052965D02*
X0334187D01*
X0332188D01*
Y0046966D01*
X0340185Y0052965D02*
X0336186D01*
Y0046966D01*
X0340185D01*
X0336186Y0049966D02*
X0338186D01*
X0342184Y0052965D02*
Y0046966D01*
X0345183D01*
X0346183Y0047966D01*
Y0051965D01*
X0345183Y0052965D01*
X0342184D01*
X0372175Y0050965D02*
X0373175D01*
Y0049966D01*
X0372175D01*
Y0050965D01*
Y0047966D02*
X0373175D01*
Y0046966D01*
X0372175D01*
Y0047966D01*
X0046350Y0087833D02*
Y0091832D01*
X0048349Y0093831D01*
X0050349Y0091832D01*
Y0087833D01*
Y0090832D01*
X0046350D01*
X0052348Y0093831D02*
Y0087833D01*
X0056347D01*
X0058346Y0093831D02*
Y0087833D01*
X0062345D01*
X0070342D02*
Y0091832D01*
X0072342Y0093831D01*
X0074341Y0091832D01*
Y0087833D01*
Y0090832D01*
X0070342D01*
X0076340Y0087833D02*
Y0093831D01*
X0079339D01*
X0080339Y0092832D01*
Y0090832D01*
X0079339Y0089833D01*
X0076340D01*
X0078340D02*
X0080339Y0087833D01*
X0082338Y0093831D02*
X0086337D01*
X0084338D01*
Y0087833D01*
X0088336Y0093831D02*
Y0087833D01*
X0090336Y0089833D01*
X0092335Y0087833D01*
Y0093831D01*
X0097334D02*
X0095334D01*
X0094335Y0092832D01*
Y0088833D01*
X0095334Y0087833D01*
X0097334D01*
X0098333Y0088833D01*
Y0092832D01*
X0097334Y0093831D01*
X0100332Y0087833D02*
Y0093831D01*
X0103332D01*
X0104331Y0092832D01*
Y0090832D01*
X0103332Y0089833D01*
X0100332D01*
X0102332D02*
X0104331Y0087833D01*
X0106331Y0093831D02*
Y0087833D01*
Y0089833D01*
X0110329Y0093831D01*
X0107330Y0090832D01*
X0110329Y0087833D01*
X0118327Y0093831D02*
Y0089833D01*
X0120326Y0087833D01*
X0122325Y0089833D01*
Y0093831D01*
X0124325D02*
X0126324D01*
X0125324D01*
Y0087833D01*
X0124325D01*
X0126324D01*
X0133322Y0093831D02*
X0129323D01*
Y0087833D01*
X0133322D01*
X0129323Y0090832D02*
X0131323D01*
X0135321Y0093831D02*
Y0087833D01*
X0137321Y0089833D01*
X0139320Y0087833D01*
Y0093831D01*
X0145318D02*
X0141319D01*
Y0087833D01*
X0145318D01*
X0141319Y0090832D02*
X0143319D01*
X0147317Y0093831D02*
Y0087833D01*
X0150316D01*
X0151316Y0088833D01*
Y0092832D01*
X0150316Y0093831D01*
X0147317D01*
X0163312D02*
X0159313D01*
Y0090832D01*
X0161313D01*
X0159313D01*
Y0087833D01*
X0165312D02*
Y0093831D01*
X0168310D01*
X0169310Y0092832D01*
Y0090832D01*
X0168310Y0089833D01*
X0165312D01*
X0167311D02*
X0169310Y0087833D01*
X0174309Y0093831D02*
X0172309D01*
X0171310Y0092832D01*
Y0088833D01*
X0172309Y0087833D01*
X0174309D01*
X0175308Y0088833D01*
Y0092832D01*
X0174309Y0093831D01*
X0177308Y0087833D02*
Y0093831D01*
X0179307Y0091832D01*
X0181306Y0093831D01*
Y0087833D01*
X0189304Y0093831D02*
X0193303D01*
X0191303D01*
Y0087833D01*
X0198301Y0093831D02*
X0196301D01*
X0195302Y0092832D01*
Y0088833D01*
X0196301Y0087833D01*
X0198301D01*
X0199301Y0088833D01*
Y0092832D01*
X0198301Y0093831D01*
X0201300Y0087833D02*
Y0093831D01*
X0204299D01*
X0205299Y0092832D01*
Y0090832D01*
X0204299Y0089833D01*
X0201300D01*
X0217295Y0092832D02*
X0216295Y0093831D01*
X0214296D01*
X0213296Y0092832D01*
Y0091832D01*
X0214296Y0090832D01*
X0216295D01*
X0217295Y0089833D01*
Y0088833D01*
X0216295Y0087833D01*
X0214296D01*
X0213296Y0088833D01*
X0219294Y0093831D02*
X0221293D01*
X0220294D01*
Y0087833D01*
X0219294D01*
X0221293D01*
X0224292Y0093831D02*
Y0087833D01*
X0227291D01*
X0228291Y0088833D01*
Y0092832D01*
X0227291Y0093831D01*
X0224292D01*
X0234289D02*
X0230291D01*
Y0087833D01*
X0234289D01*
X0230291Y0090832D02*
X0232290D01*
X0462150Y0087833D02*
Y0091832D01*
X0464149Y0093831D01*
X0466149Y0091832D01*
Y0087833D01*
Y0090832D01*
X0462150D01*
X0352549Y0092832D02*
X0351549Y0093831D01*
X0349550D01*
X0348550Y0092832D01*
Y0091832D01*
X0349550Y0090832D01*
X0351549D01*
X0352549Y0089833D01*
Y0088833D01*
X0351549Y0087833D01*
X0349550D01*
X0348550Y0088833D01*
X0354548Y0093831D02*
Y0089833D01*
X0356547Y0087833D01*
X0358547Y0089833D01*
Y0093831D01*
X0364545D02*
X0362545Y0092832D01*
X0360546Y0090832D01*
Y0088833D01*
X0361546Y0087833D01*
X0363545D01*
X0364545Y0088833D01*
Y0089833D01*
X0363545Y0090832D01*
X0360546D01*
X0366544Y0092832D02*
X0367544Y0093831D01*
X0369543D01*
X0370543Y0092832D01*
Y0088833D01*
X0369543Y0087833D01*
X0367544D01*
X0366544Y0088833D01*
Y0092832D01*
X0372542Y0087833D02*
X0374542D01*
X0373542D01*
Y0093831D01*
X0372542Y0092832D01*
X0377541Y0087833D02*
X0379540D01*
X0378540D01*
Y0093831D01*
X0377541Y0092832D01*
X0386538Y0093831D02*
X0382539D01*
Y0090832D01*
X0384538Y0091832D01*
X0385538D01*
X0386538Y0090832D01*
Y0088833D01*
X0385538Y0087833D01*
X0383539D01*
X0382539Y0088833D01*
X0388537Y0093831D02*
X0392536D01*
Y0092832D01*
X0388537Y0088833D01*
Y0087833D01*
X0294000Y0093831D02*
Y0087833D01*
X0296999D01*
X0297999Y0088833D01*
Y0089833D01*
X0296999Y0090832D01*
X0294000D01*
X0296999D01*
X0297999Y0091832D01*
Y0092832D01*
X0296999Y0093831D01*
X0294000D01*
X0302997D02*
X0300998D01*
X0299998Y0092832D01*
Y0088833D01*
X0300998Y0087833D01*
X0302997D01*
X0303997Y0088833D01*
Y0092832D01*
X0302997Y0093831D01*
X0305996Y0087833D02*
Y0091832D01*
X0307996Y0093831D01*
X0309995Y0091832D01*
Y0087833D01*
Y0090832D01*
X0305996D01*
X0311994Y0087833D02*
Y0093831D01*
X0314993D01*
X0315993Y0092832D01*
Y0090832D01*
X0314993Y0089833D01*
X0311994D01*
X0313994D02*
X0315993Y0087833D01*
X0317992Y0093831D02*
Y0087833D01*
X0320991D01*
X0321991Y0088833D01*
Y0092832D01*
X0320991Y0093831D01*
X0317992D01*
X0330988Y0087833D02*
Y0093831D01*
X0332987D02*
Y0087833D01*
X0329988Y0091832D02*
X0332987D01*
X0333987D01*
X0329988Y0089833D02*
X0333987D01*
X0335986Y0091832D02*
X0336986D01*
Y0090832D01*
X0335986D01*
Y0091832D01*
Y0088833D02*
X0336986D01*
Y0087833D01*
X0335986D01*
Y0088833D01*
X0046350Y0073549D02*
Y0067551D01*
X0050349D01*
X0052348D02*
Y0071549D01*
X0054347Y0073549D01*
X0056347Y0071549D01*
Y0067551D01*
Y0070550D01*
X0052348D01*
X0058346Y0073549D02*
Y0072549D01*
X0060346Y0070550D01*
X0062345Y0072549D01*
Y0073549D01*
X0060346Y0070550D02*
Y0067551D01*
X0068343Y0073549D02*
X0064344D01*
Y0067551D01*
X0068343D01*
X0064344Y0070550D02*
X0066343D01*
X0070342Y0067551D02*
Y0073549D01*
X0073341D01*
X0074341Y0072549D01*
Y0070550D01*
X0073341Y0069550D01*
X0070342D01*
X0072342D02*
X0074341Y0067551D01*
X0082338D02*
Y0073549D01*
X0086337Y0067551D01*
Y0073549D01*
X0088336Y0067551D02*
Y0071549D01*
X0090336Y0073549D01*
X0092335Y0071549D01*
Y0067551D01*
Y0070550D01*
X0088336D01*
X0094335Y0067551D02*
Y0073549D01*
X0096334Y0071549D01*
X0098333Y0073549D01*
Y0067551D01*
X0104331Y0073549D02*
X0100332D01*
Y0067551D01*
X0104331D01*
X0100332Y0070550D02*
X0102332D01*
X0112329Y0069550D02*
X0116327D01*
X0112329Y0071549D02*
X0116327D01*
X0046350Y0046966D02*
Y0052965D01*
X0049349D01*
X0050349Y0051965D01*
Y0049966D01*
X0049349Y0048966D01*
X0046350D01*
X0052348Y0052965D02*
Y0046966D01*
X0056347D01*
X0061345Y0052965D02*
X0059346D01*
X0058346Y0051965D01*
Y0047966D01*
X0059346Y0046966D01*
X0061345D01*
X0062345Y0047966D01*
Y0051965D01*
X0061345Y0052965D01*
X0064344D02*
X0068343D01*
X0066343D01*
Y0046966D01*
X0076340D02*
Y0052965D01*
X0080339Y0046966D01*
Y0052965D01*
X0082338Y0046966D02*
Y0050965D01*
X0084338Y0052965D01*
X0086337Y0050965D01*
Y0046966D01*
Y0049966D01*
X0082338D01*
X0088336Y0046966D02*
Y0052965D01*
X0090336Y0050965D01*
X0092335Y0052965D01*
Y0046966D01*
X0098333Y0052965D02*
X0094335D01*
Y0046966D01*
X0098333D01*
X0094335Y0049966D02*
X0096334D01*
X0106331Y0048966D02*
X0110329D01*
X0106331Y0050965D02*
X0110329D01*
X0454050Y0051965D02*
X0455050Y0052965D01*
X0457049D01*
X0458049Y0051965D01*
Y0050965D01*
X0457049Y0049966D01*
X0456049D01*
X0457049D01*
X0458049Y0048966D01*
Y0047966D01*
X0457049Y0046966D01*
X0455050D01*
X0454050Y0047966D01*
X0460048Y0050965D02*
X0461048D01*
Y0049966D01*
X0460048D01*
Y0050965D01*
Y0047966D02*
X0461048D01*
Y0046966D01*
X0460048D01*
Y0047966D01*
X0469045Y0046966D02*
X0465046D01*
X0469045Y0050965D01*
Y0051965D01*
X0468046Y0052965D01*
X0466046D01*
X0465046Y0051965D01*
X0471044Y0047966D02*
X0472044Y0046966D01*
X0474044D01*
X0475043Y0047966D01*
Y0051965D01*
X0474044Y0052965D01*
X0472044D01*
X0471044Y0051965D01*
Y0050965D01*
X0472044Y0049966D01*
X0475043D01*
X0477043Y0050965D02*
X0478042D01*
Y0049966D01*
X0477043D01*
Y0050965D01*
Y0047966D02*
X0478042D01*
Y0046966D01*
X0477043D01*
Y0047966D01*
X0482041Y0051965D02*
X0483041Y0052965D01*
X0485040D01*
X0486040Y0051965D01*
Y0047966D01*
X0485040Y0046966D01*
X0483041D01*
X0482041Y0047966D01*
Y0051965D01*
X0491038Y0046966D02*
Y0052965D01*
X0488039Y0049966D01*
X0492038D01*
X0500035Y0046966D02*
Y0052965D01*
X0503034D01*
X0504034Y0051965D01*
Y0049966D01*
X0503034Y0048966D01*
X0500035D01*
X0506033Y0046966D02*
Y0052965D01*
X0508033Y0050965D01*
X0510032Y0052965D01*
Y0046966D01*
X0580500Y0052965D02*
X0584499D01*
X0582499D01*
Y0046966D01*
X0590497Y0052965D02*
X0586498D01*
Y0046966D01*
X0590497D01*
X0586498Y0049966D02*
X0588497D01*
X0592496Y0052965D02*
X0596495Y0046966D01*
Y0052965D02*
X0592496Y0046966D01*
X0598494D02*
Y0050965D01*
X0600493Y0052965D01*
X0602493Y0050965D01*
Y0046966D01*
Y0049966D01*
X0598494D01*
X0608491Y0051965D02*
X0607491Y0052965D01*
X0605492D01*
X0604492Y0051965D01*
Y0050965D01*
X0605492Y0049966D01*
X0607491D01*
X0608491Y0048966D01*
Y0047966D01*
X0607491Y0046966D01*
X0605492D01*
X0604492Y0047966D01*
X0616488Y0052965D02*
X0618488D01*
X0617488D01*
Y0046966D01*
X0616488D01*
X0618488D01*
X0621487D02*
Y0052965D01*
X0625486Y0046966D01*
Y0052965D01*
X0631484Y0051965D02*
X0630484Y0052965D01*
X0628484D01*
X0627485Y0051965D01*
Y0050965D01*
X0628484Y0049966D01*
X0630484D01*
X0631484Y0048966D01*
Y0047966D01*
X0630484Y0046966D01*
X0628484D01*
X0627485Y0047966D01*
X0633483Y0052965D02*
X0637482D01*
X0635482D01*
Y0046966D01*
X0639481D02*
Y0052965D01*
X0642480D01*
X0643480Y0051965D01*
Y0049966D01*
X0642480Y0048966D01*
X0639481D01*
X0641480D02*
X0643480Y0046966D01*
X0645479Y0052965D02*
Y0047966D01*
X0646479Y0046966D01*
X0648478D01*
X0649478Y0047966D01*
Y0052965D01*
X0651477Y0046966D02*
Y0052965D01*
X0653476Y0050965D01*
X0655476Y0052965D01*
Y0046966D01*
X0661474Y0052965D02*
X0657475D01*
Y0046966D01*
X0661474D01*
X0657475Y0049966D02*
X0659474D01*
X0663473Y0046966D02*
Y0052965D01*
X0667472Y0046966D01*
Y0052965D01*
X0669471D02*
X0673470D01*
X0671471D01*
Y0046966D01*
X0679468Y0051965D02*
X0678468Y0052965D01*
X0676469D01*
X0675469Y0051965D01*
Y0050965D01*
X0676469Y0049966D01*
X0678468D01*
X0679468Y0048966D01*
Y0047966D01*
X0678468Y0046966D01*
X0676469D01*
X0675469Y0047966D01*
G54D33*
X0429700Y0173400D02*
D03*
X0089200Y0498400D02*
D03*
X0429700D02*
D03*
X0089200Y0173400D02*
D03*
G54D34*
X0277700Y0366900D02*
D03*
X0386700Y0280400D02*
D03*
X0386200Y0424900D02*
D03*
Y0389900D02*
D03*
X0356200Y0304900D02*
D03*
X0360700Y0323400D02*
D03*
X0386700Y0245400D02*
D03*
G54D35*
X0419200Y0446400D02*
D03*
Y0302400D02*
D03*
Y0227400D02*
D03*
Y0371400D02*
D03*
G54D36*
X0273763Y0340337D02*
D03*
X0277700D02*
D03*
X0281637D02*
D03*
Y0332463D02*
D03*
Y0328526D02*
D03*
Y0324589D02*
D03*
Y0336400D02*
D03*
X0277700D02*
D03*
X0273763D02*
D03*
Y0324589D02*
D03*
X0277700D02*
D03*
X0273763Y0328526D02*
D03*
X0277700D02*
D03*
X0273763Y0332463D02*
D03*
X0277700D02*
D03*
G54D37*
X0244700Y0372400D02*
D03*
Y0377400D02*
D03*
Y0381900D02*
D03*
X0235200D02*
D03*
X0239700Y0377400D02*
D03*
Y0381900D02*
D03*
X0241200Y0353900D02*
D03*
X0237200Y0357400D02*
D03*
X0233200Y0360900D02*
D03*
X0229700Y0364900D02*
D03*
X0230200Y0293900D02*
D03*
Y0288900D02*
D03*
Y0283900D02*
D03*
X0234700D02*
D03*
Y0288900D02*
D03*
Y0293900D02*
D03*
Y0298900D02*
D03*
X0229700Y0353400D02*
D03*
Y0348400D02*
D03*
Y0343400D02*
D03*
Y0338400D02*
D03*
Y0318900D02*
D03*
Y0328400D02*
D03*
Y0323900D02*
D03*
X0328700Y0377400D02*
D03*
X0337889D02*
D03*
X0333200D02*
D03*
X0337700Y0432400D02*
D03*
X0328200D02*
D03*
X0333200D02*
D03*
X0260200Y0242400D02*
D03*
Y0237400D02*
D03*
Y0232400D02*
D03*
X0265200D02*
D03*
Y0237400D02*
D03*
Y0242400D02*
D03*
X0296700Y0259400D02*
D03*
Y0254400D02*
D03*
Y0248900D02*
D03*
Y0243900D02*
D03*
X0296200Y0238900D02*
D03*
Y0233400D02*
D03*
X0291200D02*
D03*
Y0238900D02*
D03*
Y0243900D02*
D03*
Y0248900D02*
D03*
X0291164Y0254259D02*
D03*
X0291200Y0259400D02*
D03*
X0217200Y0247400D02*
D03*
X0212200D02*
D03*
X0222200D02*
D03*
X0227200D02*
D03*
X0232200D02*
D03*
X0237200D02*
D03*
X0242200D02*
D03*
X0247200D02*
D03*
X0252200D02*
D03*
X0257200D02*
D03*
X0261200D02*
D03*
X0265200D02*
D03*
X0269700Y0420400D02*
D03*
X0264700D02*
D03*
X0259700D02*
D03*
X0254700D02*
D03*
X0249700D02*
D03*
X0244700D02*
D03*
X0239700D02*
D03*
X0234700D02*
D03*
X0229700D02*
D03*
X0224700D02*
D03*
X0214700D02*
D03*
X0219700D02*
D03*
X0347700Y0287400D02*
D03*
X0303200D02*
D03*
X0322200D02*
D03*
X0327200D02*
D03*
X0332700D02*
D03*
X0338200D02*
D03*
X0304700Y0233400D02*
D03*
X0315200D02*
D03*
X0361200D02*
D03*
X0350200D02*
D03*
X0355700D02*
D03*
X0310200D02*
D03*
X0123700Y0275900D02*
D03*
X0128700Y0276400D02*
D03*
X0133700D02*
D03*
X0138700D02*
D03*
X0118700D02*
D03*
X0113700D02*
D03*
Y0281400D02*
D03*
X0118700D02*
D03*
X0123700D02*
D03*
X0128700D02*
D03*
X0133700D02*
D03*
X0138700D02*
D03*
X0140700Y0392400D02*
D03*
X0135700D02*
D03*
X0130700D02*
D03*
X0125700D02*
D03*
X0120700D02*
D03*
X0115700D02*
D03*
Y0387400D02*
D03*
X0120700D02*
D03*
X0140700D02*
D03*
X0135700D02*
D03*
X0130700D02*
D03*
X0125700D02*
D03*
X0257200Y0280400D02*
D03*
X0267200D02*
D03*
X0262200D02*
D03*
X0252200D02*
D03*
X0247200D02*
D03*
X0242200D02*
D03*
X0237200D02*
D03*
X0232200D02*
D03*
X0227200D02*
D03*
X0222200D02*
D03*
X0269700Y0386400D02*
D03*
X0264700D02*
D03*
X0259700D02*
D03*
X0254700D02*
D03*
X0249700D02*
D03*
X0244700D02*
D03*
X0239700D02*
D03*
X0234700D02*
D03*
X0229700D02*
D03*
X0224700Y0391400D02*
D03*
X0229700D02*
D03*
X0234700D02*
D03*
X0239700D02*
D03*
X0244700D02*
D03*
X0249700D02*
D03*
X0254700D02*
D03*
X0259700D02*
D03*
X0264700D02*
D03*
X0269700D02*
D03*
X0219700Y0415900D02*
D03*
X0214700D02*
D03*
X0224700D02*
D03*
X0229700D02*
D03*
X0234700D02*
D03*
X0239700D02*
D03*
X0244700D02*
D03*
X0249700D02*
D03*
X0254700D02*
D03*
X0259700D02*
D03*
X0264700D02*
D03*
X0269700D02*
D03*
X0188200Y0409900D02*
D03*
Y0414900D02*
D03*
Y0419900D02*
D03*
X0193700Y0409900D02*
D03*
Y0414900D02*
D03*
Y0419900D02*
D03*
X0199200Y0409900D02*
D03*
Y0414900D02*
D03*
Y0419900D02*
D03*
X0159200Y0410400D02*
D03*
Y0415400D02*
D03*
Y0420400D02*
D03*
X0164700Y0410400D02*
D03*
Y0415400D02*
D03*
Y0420400D02*
D03*
X0170200Y0410400D02*
D03*
Y0415400D02*
D03*
Y0420400D02*
D03*
X0151100Y0249800D02*
D03*
Y0254800D02*
D03*
Y0259800D02*
D03*
X0156600Y0249800D02*
D03*
Y0254800D02*
D03*
Y0259800D02*
D03*
X0162100Y0249800D02*
D03*
Y0254800D02*
D03*
Y0259800D02*
D03*
X0180700Y0249800D02*
D03*
Y0254800D02*
D03*
Y0259800D02*
D03*
X0186200Y0249800D02*
D03*
Y0254800D02*
D03*
Y0259800D02*
D03*
X0191700Y0249800D02*
D03*
Y0254800D02*
D03*
Y0259800D02*
D03*
X0184600Y0292900D02*
D03*
X0189600D02*
D03*
X0194600D02*
D03*
X0184600Y0287400D02*
D03*
X0189600D02*
D03*
X0194600D02*
D03*
X0184600Y0281900D02*
D03*
X0189600D02*
D03*
X0194600D02*
D03*
X0184600Y0319900D02*
D03*
X0189600D02*
D03*
X0194600D02*
D03*
X0184600Y0314400D02*
D03*
X0189600D02*
D03*
X0194600D02*
D03*
X0184600Y0308900D02*
D03*
X0189600D02*
D03*
X0194600D02*
D03*
X0183200Y0359900D02*
D03*
X0188200D02*
D03*
X0193200D02*
D03*
X0183200Y0354400D02*
D03*
X0188200D02*
D03*
X0193200D02*
D03*
X0183200Y0348900D02*
D03*
X0188200D02*
D03*
X0193200D02*
D03*
Y0375900D02*
D03*
X0188200D02*
D03*
X0183200D02*
D03*
X0193200Y0381400D02*
D03*
X0188200D02*
D03*
X0183200D02*
D03*
X0193200Y0386900D02*
D03*
X0188200D02*
D03*
X0183200D02*
D03*
X0265200Y0252400D02*
D03*
X0267200Y0275400D02*
D03*
X0217200D02*
D03*
X0222200D02*
D03*
X0227200D02*
D03*
X0232200D02*
D03*
X0237200D02*
D03*
X0242200D02*
D03*
X0247200D02*
D03*
X0252200D02*
D03*
X0257200D02*
D03*
X0262200D02*
D03*
X0261200Y0252400D02*
D03*
X0257200D02*
D03*
X0252200D02*
D03*
X0247200D02*
D03*
X0242200D02*
D03*
X0237200D02*
D03*
X0232200D02*
D03*
X0227200D02*
D03*
X0222200D02*
D03*
X0212200D02*
D03*
X0217200D02*
D03*
X0258700Y0338900D02*
D03*
X0252200Y0337900D02*
D03*
X0309980Y0349743D02*
D03*
X0347200Y0335900D02*
D03*
X0310200Y0308900D02*
D03*
X0207700Y0294900D02*
D03*
Y0321900D02*
D03*
X0207755Y0361900D02*
D03*
X0207700Y0388900D02*
D03*
X0228200Y0333516D02*
D03*
X0224200Y0333400D02*
D03*
X0258700Y0347400D02*
D03*
X0255200Y0341900D02*
D03*
X0256700Y0324900D02*
D03*
X0258700Y0330900D02*
D03*
X0253700Y0331400D02*
D03*
X0294700Y0349463D02*
D03*
X0295700Y0341463D02*
D03*
X0248700Y0355400D02*
D03*
X0170700Y0390400D02*
D03*
X0226200Y0361900D02*
D03*
X0178700Y0272900D02*
D03*
X0149200D02*
D03*
X0202708D02*
D03*
X0169700Y0277900D02*
D03*
X0226200Y0308400D02*
D03*
X0281251Y0246400D02*
D03*
X0274700D02*
D03*
X0290700Y0408900D02*
D03*
X0208700Y0401705D02*
D03*
Y0396095D02*
D03*
X0179200Y0401656D02*
D03*
X0311700Y0359900D02*
D03*
X0312200Y0354743D02*
D03*
X0320700Y0317400D02*
D03*
X0265200Y0312187D02*
D03*
X0244444Y0319144D02*
D03*
X0251200Y0314400D02*
D03*
X0179200Y0396144D02*
D03*
X0308200Y0374900D02*
D03*
X0245001Y0305203D02*
D03*
X0212700Y0294900D02*
D03*
Y0299400D02*
D03*
Y0303900D02*
D03*
X0216700Y0297900D02*
D03*
X0220700Y0300400D02*
D03*
Y0303900D02*
D03*
X0216700D02*
D03*
X0222200Y0313900D02*
D03*
Y0318900D02*
D03*
Y0323900D02*
D03*
Y0338400D02*
D03*
Y0343400D02*
D03*
Y0348400D02*
D03*
Y0353400D02*
D03*
X0211200Y0338400D02*
D03*
Y0348400D02*
D03*
Y0353400D02*
D03*
Y0333900D02*
D03*
Y0328900D02*
D03*
Y0318900D02*
D03*
X0222200Y0328900D02*
D03*
X0211200Y0313900D02*
D03*
Y0323900D02*
D03*
Y0384900D02*
D03*
X0216200Y0381900D02*
D03*
X0221200Y0377400D02*
D03*
X0211200Y0379400D02*
D03*
X0222200Y0358900D02*
D03*
X0216700D02*
D03*
X0211200D02*
D03*
Y0364400D02*
D03*
X0216700D02*
D03*
X0211200Y0369400D02*
D03*
X0221200Y0372400D02*
D03*
X0216200Y0376900D02*
D03*
X0265200Y0298400D02*
D03*
X0381200Y0337400D02*
D03*
X0354200Y0334900D02*
D03*
X0358700Y0351400D02*
D03*
X0349700Y0364900D02*
D03*
X0239200Y0283900D02*
D03*
Y0288900D02*
D03*
Y0293900D02*
D03*
X0388700Y0226400D02*
D03*
X0383700D02*
D03*
X0388700Y0231400D02*
D03*
X0383700D02*
D03*
Y0236400D02*
D03*
X0388700D02*
D03*
Y0221400D02*
D03*
Y0216400D02*
D03*
X0383700D02*
D03*
Y0221400D02*
D03*
Y0297400D02*
D03*
Y0292400D02*
D03*
X0388700D02*
D03*
Y0297400D02*
D03*
Y0312400D02*
D03*
X0383700D02*
D03*
Y0307400D02*
D03*
X0388700D02*
D03*
X0383700Y0302400D02*
D03*
X0388700D02*
D03*
X0383700Y0366400D02*
D03*
Y0361400D02*
D03*
X0388700D02*
D03*
Y0366400D02*
D03*
Y0381400D02*
D03*
X0383700D02*
D03*
Y0376400D02*
D03*
X0388700D02*
D03*
X0383700Y0371400D02*
D03*
X0388700D02*
D03*
X0383700Y0441400D02*
D03*
Y0436400D02*
D03*
X0388700D02*
D03*
Y0441400D02*
D03*
Y0456400D02*
D03*
X0383700D02*
D03*
Y0451400D02*
D03*
X0388700D02*
D03*
X0383700Y0446400D02*
D03*
X0388700D02*
D03*
X0393200Y0302400D02*
D03*
X0393700Y0307400D02*
D03*
Y0312400D02*
D03*
Y0297400D02*
D03*
Y0292400D02*
D03*
X0393200Y0226400D02*
D03*
X0393700Y0231400D02*
D03*
Y0236400D02*
D03*
Y0221400D02*
D03*
Y0216400D02*
D03*
X0393200Y0446400D02*
D03*
X0393700Y0451400D02*
D03*
Y0456400D02*
D03*
Y0441400D02*
D03*
Y0436400D02*
D03*
X0393200Y0371400D02*
D03*
X0393700Y0376400D02*
D03*
Y0381400D02*
D03*
Y0366400D02*
D03*
Y0361400D02*
D03*
G54D38*
X0323700Y0304900D02*
D03*
X0343200D02*
D03*
X0400200Y0252900D02*
D03*
G54D40*
X0367310Y0343928D02*
D03*
X0381090D02*
D03*
X0374200Y0334872D02*
D03*
X0356310Y0360428D02*
D03*
X0370090D02*
D03*
X0363200Y0351372D02*
D03*
X0342810Y0379428D02*
D03*
X0356590D02*
D03*
X0349700Y0370372D02*
D03*
G54D41*
X0290700Y0381569D02*
D03*
Y0390231D02*
D03*
X0236700Y0338569D02*
D03*
Y0347231D02*
D03*
Y0332231D02*
D03*
Y0323569D02*
D03*
G54D42*
X0277700Y0332463D02*
D03*
G54D43*
X0266479Y0315829D02*
D03*
Y0318388D02*
D03*
Y0320947D02*
D03*
Y0323506D02*
D03*
Y0326065D02*
D03*
Y0328624D02*
D03*
Y0331184D02*
D03*
Y0333742D02*
D03*
Y0336302D02*
D03*
Y0338861D02*
D03*
Y0341420D02*
D03*
Y0343979D02*
D03*
Y0346538D02*
D03*
Y0349097D02*
D03*
X0288920Y0315829D02*
D03*
Y0318388D02*
D03*
Y0320947D02*
D03*
Y0323506D02*
D03*
Y0326065D02*
D03*
Y0328624D02*
D03*
Y0331184D02*
D03*
Y0333742D02*
D03*
Y0336302D02*
D03*
Y0338861D02*
D03*
Y0341420D02*
D03*
Y0343979D02*
D03*
Y0346538D02*
D03*
Y0349097D02*
D03*
G54D44*
X0207200Y0312644D02*
D03*
Y0318156D02*
D03*
X0295700Y0305656D02*
D03*
Y0300144D02*
D03*
X0302200Y0305656D02*
D03*
Y0300144D02*
D03*
X0300200Y0384644D02*
D03*
Y0390156D02*
D03*
X0290700Y0362707D02*
D03*
Y0368219D02*
D03*
X0311700Y0329707D02*
D03*
Y0335219D02*
D03*
X0248200Y0324656D02*
D03*
Y0319144D02*
D03*
X0248700Y0351656D02*
D03*
Y0346144D02*
D03*
X0316700Y0301144D02*
D03*
Y0306656D02*
D03*
Y0372644D02*
D03*
Y0378156D02*
D03*
X0265200Y0302644D02*
D03*
Y0308156D02*
D03*
X0207200Y0384656D02*
D03*
Y0379144D02*
D03*
Y0366644D02*
D03*
Y0372156D02*
D03*
X0179200Y0401656D02*
D03*
Y0396144D02*
D03*
X0208700Y0401656D02*
D03*
Y0396144D02*
D03*
X0347200Y0325144D02*
D03*
Y0330656D02*
D03*
X0207200Y0304656D02*
D03*
Y0299144D02*
D03*
G54D45*
X0253700Y0301600D02*
D03*
Y0296000D02*
D03*
X0259700Y0303700D02*
D03*
Y0298100D02*
D03*
G54D46*
X0290956Y0357900D02*
D03*
X0285444D02*
D03*
X0322456Y0334463D02*
D03*
X0316944D02*
D03*
X0316950Y0322463D02*
D03*
X0311438D02*
D03*
X0322176Y0349743D02*
D03*
X0316664D02*
D03*
X0341944Y0345463D02*
D03*
X0347456D02*
D03*
X0322456Y0359900D02*
D03*
X0316944D02*
D03*
Y0312400D02*
D03*
X0322456D02*
D03*
X0316664Y0344742D02*
D03*
X0322176D02*
D03*
X0316944Y0329463D02*
D03*
X0322456D02*
D03*
X0316664Y0354743D02*
D03*
X0322176D02*
D03*
X0347456Y0340463D02*
D03*
X0341944D02*
D03*
X0301956Y0310400D02*
D03*
X0296444D02*
D03*
X0316944Y0364900D02*
D03*
X0322456D02*
D03*
X0316944Y0339463D02*
D03*
X0322456D02*
D03*
X0311444Y0317400D02*
D03*
X0316956D02*
D03*
X0315456Y0294400D02*
D03*
X0309944D02*
D03*
X0336456Y0304900D02*
D03*
X0330944D02*
D03*
X0253944Y0308900D02*
D03*
X0259456D02*
D03*
X0197456Y0272900D02*
D03*
X0191944D02*
D03*
X0197456Y0266900D02*
D03*
X0191944D02*
D03*
G54D47*
X0255141Y0337959D02*
X0256798Y0336302D01*
X0236700Y0338569D02*
X0245869D01*
X0236700Y0332231D02*
Y0338569D01*
X0293700Y0326065D02*
X0321302D01*
X0321700Y0326463D01*
X0254700Y0331400D02*
X0257043Y0333742D01*
X0260043D01*
M02*
