M48
;DRILL file {KiCad 4.0.7-e0-6372~58~ubuntu16.10.1} date Tue Oct  3 15:20:17 2017
;FORMAT={-:-/ absolute / metric / decimal}
FMAT,2
METRIC,TZ
T1C0.400
T2C0.550
T3C0.600
T4C0.762
T5C1.000
T6C4.300
%
G90
G05
M71
T1
X17.6Y-9.8
X27.Y-22.5
X27.Y-24.
T2
X7.4Y-12.2
X9.6Y-10.5
X10.6Y-13.1
X10.7Y-11.5
X12.2Y-14.4
X13.8Y-14.4
X15.7Y-14.9
X25.4Y-9.6
X25.8Y-20.2
X29.7Y-13.5
X30.4Y-20.
X31.2Y-24.
X31.6Y-21.3
X32.6Y-24.5
X35.5Y-9.25
X35.7Y-11.1
X36.4Y-23.6
X36.5Y-21.5
X41.4Y-22.8
X41.5Y-16.4
X41.6Y-20.6
X43.2Y-16.6
X43.2Y-20.
X44.8Y-21.1
X45.2Y-16.1
T3
X2.775Y-6.
X2.775Y-23.
X3.72Y-3.72
X3.72Y-8.28
X3.72Y-20.72
X3.72Y-25.28
X6.Y-2.775
X6.Y-9.225
X6.Y-19.775
X6.Y-26.225
X8.28Y-3.72
X8.28Y-8.28
X8.28Y-20.72
X8.28Y-25.28
X9.225Y-6.
X9.225Y-23.
X56.775Y-6.
X56.775Y-23.
X57.72Y-3.72
X57.72Y-8.28
X57.72Y-20.72
X57.72Y-25.28
X60.Y-2.775
X60.Y-9.225
X60.Y-19.775
X60.Y-26.225
X62.28Y-3.72
X62.28Y-8.28
X62.28Y-20.72
X62.28Y-25.28
X63.225Y-6.
X63.225Y-23.
T4
X47.8Y-7.765
X47.8Y-21.235
X51.2Y-7.765
X51.2Y-21.235
T5
X13.46Y-22.6
X16.Y-22.6
T6
X6.Y-6.
X6.Y-23.
X60.Y-6.
X60.Y-23.
T0
M30
