G04 #@! TF.FileFunction,Legend,Bot*
%FSLAX46Y46*%
G04 Gerber Fmt 4.6, Leading zero omitted, Abs format (unit mm)*
G04 Created by KiCad (PCBNEW 4.0.2-4+6225~38~ubuntu15.04.1-stable) date Sa 02 Apr 2016 14:44:10 CEST*
%MOMM*%
G01*
G04 APERTURE LIST*
%ADD10C,0.150000*%
%ADD11C,0.200000*%
%ADD12C,0.300000*%
%ADD13R,1.500000X1.300000*%
%ADD14C,3.000000*%
%ADD15R,0.800100X0.800100*%
%ADD16C,4.000000*%
%ADD17R,0.450000X1.450000*%
%ADD18R,1.300000X1.500000*%
%ADD19R,1.300000X1.300000*%
%ADD20C,1.300000*%
%ADD21R,1.250000X1.000000*%
%ADD22C,6.000000*%
%ADD23R,1.000000X1.250000*%
%ADD24R,2.600960X1.600200*%
%ADD25C,3.649980*%
%ADD26R,1.501140X1.501140*%
%ADD27C,1.501140*%
%ADD28R,1.100000X0.250000*%
%ADD29C,1.651000*%
%ADD30R,1.500000X0.600000*%
%ADD31R,1.727200X1.727200*%
%ADD32O,1.727200X1.727200*%
%ADD33C,2.000000*%
%ADD34O,3.014980X2.000000*%
%ADD35R,0.500000X0.900000*%
%ADD36R,2.000000X1.600000*%
%ADD37R,3.599180X1.600200*%
%ADD38R,1.198880X1.198880*%
%ADD39R,1.270000X3.270000*%
%ADD40R,1.100000X4.600000*%
%ADD41R,10.800000X9.400000*%
%ADD42R,1.600000X2.000000*%
%ADD43R,0.508000X0.304800*%
%ADD44R,1.800860X3.500120*%
%ADD45C,0.889000*%
G04 APERTURE END LIST*
D10*
D11*
X46736000Y-37338000D02*
X43815000Y-37338000D01*
X47371000Y-37973000D02*
X46736000Y-37973000D01*
X47371000Y-37973000D02*
X47371000Y-37338000D01*
X46736000Y-37338000D02*
X47371000Y-37973000D01*
X31623000Y-54737000D02*
X31623000Y-53975000D01*
X26670000Y-53848000D02*
X26670000Y-54610000D01*
X29845000Y-53848000D02*
X26670000Y-53848000D01*
X29845000Y-53848000D02*
X31623000Y-53848000D01*
X39370000Y-66675000D02*
X38989000Y-67056000D01*
X39370000Y-66675000D02*
X39751000Y-67056000D01*
X39370000Y-67691000D02*
X39370000Y-66675000D01*
X6096000Y-50800000D02*
X2032000Y-50800000D01*
X6096000Y-55372000D02*
X6096000Y-50800000D01*
X6858000Y-56134000D02*
X6096000Y-55372000D01*
X6858000Y-56769000D02*
X6350000Y-57277000D01*
X6858000Y-56134000D02*
X6858000Y-56769000D01*
X18750000Y-65500000D02*
G75*
G03X18750000Y-65500000I-750000J0D01*
G01*
X38309017Y-73000000D02*
G75*
G03X38309017Y-73000000I-559017J0D01*
G01*
X40809017Y-60750000D02*
G75*
G03X40809017Y-60750000I-559017J0D01*
G01*
X35500000Y-31000000D02*
X39000000Y-31000000D01*
X34000000Y-32500000D02*
X35500000Y-31000000D01*
X26500000Y-33500000D02*
X28500000Y-33500000D01*
X26000000Y-34000000D02*
X26500000Y-33500000D01*
X33000000Y-33500000D02*
X34000000Y-32500000D01*
X28500000Y-33500000D02*
X33000000Y-33500000D01*
X31623000Y-53784500D02*
X31623000Y-54038500D01*
X31877000Y-53530500D02*
X31623000Y-53784500D01*
X30480000Y-51054000D02*
X30924500Y-51054000D01*
X30480000Y-51054000D02*
X30480000Y-50482500D01*
X31051500Y-50482500D02*
X30480000Y-51054000D01*
X14250000Y-88250000D02*
X14250000Y-88000000D01*
X15000000Y-88250000D02*
X14250000Y-88250000D01*
X15000000Y-95250000D02*
X15000000Y-88250000D01*
X9000000Y-95250000D02*
X15000000Y-95250000D01*
X9000000Y-85500000D02*
X9000000Y-95250000D01*
X14250000Y-85500000D02*
X14250000Y-88000000D01*
X9000000Y-85500000D02*
X14250000Y-85500000D01*
X14250000Y-81500000D02*
X14250000Y-88000000D01*
X43000000Y-75000000D02*
X41750000Y-75000000D01*
X48500000Y-72750000D02*
X42000000Y-72750000D01*
X48500000Y-75000000D02*
X48500000Y-72750000D01*
X43000000Y-75000000D02*
X48500000Y-75000000D01*
X49000000Y-72500000D02*
X49500000Y-72500000D01*
X49000000Y-70500000D02*
X49000000Y-72500000D01*
X46750000Y-68250000D02*
X49000000Y-70500000D01*
X44000000Y-68250000D02*
X46750000Y-68250000D01*
X43750000Y-68500000D02*
X44000000Y-68250000D01*
X42000000Y-70250000D02*
X43750000Y-68500000D01*
X42000000Y-72500000D02*
X42000000Y-70250000D01*
X13000000Y-67000000D02*
X13500000Y-66500000D01*
X13000000Y-67000000D02*
X13500000Y-67500000D01*
X14250000Y-67000000D02*
X13000000Y-67000000D01*
X14250000Y-74000000D02*
X14250000Y-67000000D01*
X13250000Y-74000000D02*
X13750000Y-73500000D01*
X13250000Y-74000000D02*
X13750000Y-74500000D01*
X14250000Y-74000000D02*
X13250000Y-74000000D01*
X14250000Y-81500000D02*
X14250000Y-74000000D01*
X13250000Y-81500000D02*
X13750000Y-81000000D01*
X13750000Y-82000000D02*
X13250000Y-81500000D01*
X13250000Y-81500000D02*
X13750000Y-82000000D01*
X14250000Y-81500000D02*
X13250000Y-81500000D01*
X29700000Y-61200000D02*
X29700000Y-55600000D01*
X35100000Y-62200000D02*
X35100000Y-60100000D01*
X30000000Y-62200000D02*
X35100000Y-62200000D01*
X30000000Y-55500000D02*
X30000000Y-62200000D01*
X35100000Y-55500000D02*
X30000000Y-55500000D01*
X35100000Y-57000000D02*
X35100000Y-55500000D01*
X33300000Y-69700000D02*
X33400000Y-69700000D01*
X33300000Y-67600000D02*
X33300000Y-69700000D01*
X28218000Y-71630000D02*
X28218000Y-71122000D01*
X27710000Y-72138000D02*
X28218000Y-71630000D01*
X27710000Y-73916000D02*
X27710000Y-72138000D01*
X34568000Y-66296000D02*
X34568000Y-67058000D01*
X33806000Y-66296000D02*
X34568000Y-66296000D01*
X33298000Y-67566000D02*
X34314000Y-66550000D01*
X26186000Y-55628000D02*
X29742000Y-55628000D01*
X26186000Y-61216000D02*
X29742000Y-61216000D01*
X26186000Y-60962000D02*
X26186000Y-61216000D01*
X26186000Y-55628000D02*
X26186000Y-60962000D01*
X35076000Y-56898000D02*
X35076000Y-60200000D01*
X29996000Y-56898000D02*
X29996000Y-60200000D01*
X34822000Y-54104000D02*
X34314000Y-54612000D01*
X34822000Y-54104000D02*
X34314000Y-53596000D01*
X33806000Y-54104000D02*
X34822000Y-54104000D01*
X54126000Y-53088000D02*
X53618000Y-53088000D01*
X54126000Y-51564000D02*
X54126000Y-53088000D01*
X52348000Y-51564000D02*
X54126000Y-51564000D01*
X52348000Y-47754000D02*
X52348000Y-51564000D01*
X48792000Y-47754000D02*
X52348000Y-47754000D01*
X48792000Y-53088000D02*
X48792000Y-47754000D01*
X53618000Y-53088000D02*
X48792000Y-53088000D01*
X49046000Y-44198000D02*
X49300000Y-44198000D01*
X48538000Y-43690000D02*
X49046000Y-44198000D01*
X48538000Y-42674000D02*
X48538000Y-43690000D01*
X25678000Y-34292000D02*
X26694000Y-34292000D01*
X25678000Y-33276000D02*
X25678000Y-34292000D01*
X22884000Y-34292000D02*
X22884000Y-35816000D01*
X25424000Y-34292000D02*
X22884000Y-34292000D01*
X25424000Y-35816000D02*
X25424000Y-34292000D01*
D12*
X41750000Y-20378571D02*
X41750000Y-18878571D01*
X41035714Y-19378571D02*
X41035714Y-20378571D01*
X41035714Y-19521429D02*
X40964286Y-19450000D01*
X40821428Y-19378571D01*
X40607143Y-19378571D01*
X40464286Y-19450000D01*
X40392857Y-19592857D01*
X40392857Y-20378571D01*
X37892857Y-20307143D02*
X38035714Y-20378571D01*
X38321428Y-20378571D01*
X38464286Y-20307143D01*
X38535714Y-20235714D01*
X38607143Y-20092857D01*
X38607143Y-19664286D01*
X38535714Y-19521429D01*
X38464286Y-19450000D01*
X38321428Y-19378571D01*
X38035714Y-19378571D01*
X37892857Y-19450000D01*
X36607143Y-20378571D02*
X36607143Y-19592857D01*
X36678572Y-19450000D01*
X36821429Y-19378571D01*
X37107143Y-19378571D01*
X37250000Y-19450000D01*
X36607143Y-20307143D02*
X36750000Y-20378571D01*
X37107143Y-20378571D01*
X37250000Y-20307143D01*
X37321429Y-20164286D01*
X37321429Y-20021429D01*
X37250000Y-19878571D01*
X37107143Y-19807143D01*
X36750000Y-19807143D01*
X36607143Y-19735714D01*
X35964286Y-20307143D02*
X35821429Y-20378571D01*
X35535714Y-20378571D01*
X35392857Y-20307143D01*
X35321429Y-20164286D01*
X35321429Y-20092857D01*
X35392857Y-19950000D01*
X35535714Y-19878571D01*
X35750000Y-19878571D01*
X35892857Y-19807143D01*
X35964286Y-19664286D01*
X35964286Y-19592857D01*
X35892857Y-19450000D01*
X35750000Y-19378571D01*
X35535714Y-19378571D01*
X35392857Y-19450000D01*
X34107143Y-20307143D02*
X34250000Y-20378571D01*
X34535714Y-20378571D01*
X34678571Y-20307143D01*
X34750000Y-20164286D01*
X34750000Y-19592857D01*
X34678571Y-19450000D01*
X34535714Y-19378571D01*
X34250000Y-19378571D01*
X34107143Y-19450000D01*
X34035714Y-19592857D01*
X34035714Y-19735714D01*
X34750000Y-19878571D01*
X32035714Y-20378571D02*
X32178572Y-20307143D01*
X32250000Y-20235714D01*
X32321429Y-20092857D01*
X32321429Y-19664286D01*
X32250000Y-19521429D01*
X32178572Y-19450000D01*
X32035714Y-19378571D01*
X31821429Y-19378571D01*
X31678572Y-19450000D01*
X31607143Y-19521429D01*
X31535714Y-19664286D01*
X31535714Y-20092857D01*
X31607143Y-20235714D01*
X31678572Y-20307143D01*
X31821429Y-20378571D01*
X32035714Y-20378571D01*
X31107143Y-19378571D02*
X30535714Y-19378571D01*
X30892857Y-20378571D02*
X30892857Y-19092857D01*
X30821429Y-18950000D01*
X30678571Y-18878571D01*
X30535714Y-18878571D01*
X44500000Y-21778571D02*
X44500000Y-23278571D01*
X44500000Y-21850000D02*
X44357143Y-21778571D01*
X44071429Y-21778571D01*
X43928572Y-21850000D01*
X43857143Y-21921429D01*
X43785714Y-22064286D01*
X43785714Y-22492857D01*
X43857143Y-22635714D01*
X43928572Y-22707143D01*
X44071429Y-22778571D01*
X44357143Y-22778571D01*
X44500000Y-22707143D01*
X42928571Y-22778571D02*
X43071429Y-22707143D01*
X43142857Y-22635714D01*
X43214286Y-22492857D01*
X43214286Y-22064286D01*
X43142857Y-21921429D01*
X43071429Y-21850000D01*
X42928571Y-21778571D01*
X42714286Y-21778571D01*
X42571429Y-21850000D01*
X42500000Y-21921429D01*
X42428571Y-22064286D01*
X42428571Y-22492857D01*
X42500000Y-22635714D01*
X42571429Y-22707143D01*
X42714286Y-22778571D01*
X42928571Y-22778571D01*
X41928571Y-21778571D02*
X41642857Y-22778571D01*
X41357143Y-22064286D01*
X41071428Y-22778571D01*
X40785714Y-21778571D01*
X39642857Y-22707143D02*
X39785714Y-22778571D01*
X40071428Y-22778571D01*
X40214285Y-22707143D01*
X40285714Y-22564286D01*
X40285714Y-21992857D01*
X40214285Y-21850000D01*
X40071428Y-21778571D01*
X39785714Y-21778571D01*
X39642857Y-21850000D01*
X39571428Y-21992857D01*
X39571428Y-22135714D01*
X40285714Y-22278571D01*
X38928571Y-22778571D02*
X38928571Y-21778571D01*
X38928571Y-22064286D02*
X38857143Y-21921429D01*
X38785714Y-21850000D01*
X38642857Y-21778571D01*
X38500000Y-21778571D01*
X37071429Y-21778571D02*
X36500000Y-21778571D01*
X36857143Y-22778571D02*
X36857143Y-21492857D01*
X36785715Y-21350000D01*
X36642857Y-21278571D01*
X36500000Y-21278571D01*
X35357143Y-22778571D02*
X35357143Y-21992857D01*
X35428572Y-21850000D01*
X35571429Y-21778571D01*
X35857143Y-21778571D01*
X36000000Y-21850000D01*
X35357143Y-22707143D02*
X35500000Y-22778571D01*
X35857143Y-22778571D01*
X36000000Y-22707143D01*
X36071429Y-22564286D01*
X36071429Y-22421429D01*
X36000000Y-22278571D01*
X35857143Y-22207143D01*
X35500000Y-22207143D01*
X35357143Y-22135714D01*
X34642857Y-22778571D02*
X34642857Y-21778571D01*
X34642857Y-21278571D02*
X34714286Y-21350000D01*
X34642857Y-21421429D01*
X34571429Y-21350000D01*
X34642857Y-21278571D01*
X34642857Y-21421429D01*
X33714285Y-22778571D02*
X33857143Y-22707143D01*
X33928571Y-22564286D01*
X33928571Y-21278571D01*
X32000000Y-21778571D02*
X32000000Y-23278571D01*
X32000000Y-21850000D02*
X31857143Y-21778571D01*
X31571429Y-21778571D01*
X31428572Y-21850000D01*
X31357143Y-21921429D01*
X31285714Y-22064286D01*
X31285714Y-22492857D01*
X31357143Y-22635714D01*
X31428572Y-22707143D01*
X31571429Y-22778571D01*
X31857143Y-22778571D01*
X32000000Y-22707143D01*
X30000000Y-21778571D02*
X30000000Y-22778571D01*
X30642857Y-21778571D02*
X30642857Y-22564286D01*
X30571429Y-22707143D01*
X30428571Y-22778571D01*
X30214286Y-22778571D01*
X30071429Y-22707143D01*
X30000000Y-22635714D01*
X29500000Y-21778571D02*
X28928571Y-21778571D01*
X29285714Y-21278571D02*
X29285714Y-22564286D01*
X29214286Y-22707143D01*
X29071428Y-22778571D01*
X28928571Y-22778571D01*
X39714285Y-24178571D02*
X39714285Y-25464286D01*
X39785714Y-25607143D01*
X39928571Y-25678571D01*
X39999999Y-25678571D01*
X39714285Y-23678571D02*
X39785714Y-23750000D01*
X39714285Y-23821429D01*
X39642857Y-23750000D01*
X39714285Y-23678571D01*
X39714285Y-23821429D01*
X38357142Y-24178571D02*
X38357142Y-25178571D01*
X38999999Y-24178571D02*
X38999999Y-24964286D01*
X38928571Y-25107143D01*
X38785713Y-25178571D01*
X38571428Y-25178571D01*
X38428571Y-25107143D01*
X38357142Y-25035714D01*
X37642856Y-25178571D02*
X37642856Y-24178571D01*
X37642856Y-24321429D02*
X37571428Y-24250000D01*
X37428570Y-24178571D01*
X37214285Y-24178571D01*
X37071428Y-24250000D01*
X36999999Y-24392857D01*
X36999999Y-25178571D01*
X36999999Y-24392857D02*
X36928570Y-24250000D01*
X36785713Y-24178571D01*
X36571428Y-24178571D01*
X36428570Y-24250000D01*
X36357142Y-24392857D01*
X36357142Y-25178571D01*
X35642856Y-24178571D02*
X35642856Y-25678571D01*
X35642856Y-24250000D02*
X35499999Y-24178571D01*
X35214285Y-24178571D01*
X35071428Y-24250000D01*
X34999999Y-24321429D01*
X34928570Y-24464286D01*
X34928570Y-24892857D01*
X34999999Y-25035714D01*
X35071428Y-25107143D01*
X35214285Y-25178571D01*
X35499999Y-25178571D01*
X35642856Y-25107143D01*
X33714285Y-25107143D02*
X33857142Y-25178571D01*
X34142856Y-25178571D01*
X34285713Y-25107143D01*
X34357142Y-24964286D01*
X34357142Y-24392857D01*
X34285713Y-24250000D01*
X34142856Y-24178571D01*
X33857142Y-24178571D01*
X33714285Y-24250000D01*
X33642856Y-24392857D01*
X33642856Y-24535714D01*
X34357142Y-24678571D01*
X32999999Y-25178571D02*
X32999999Y-24178571D01*
X32999999Y-24464286D02*
X32928571Y-24321429D01*
X32857142Y-24250000D01*
X32714285Y-24178571D01*
X32571428Y-24178571D01*
X41607143Y-27578571D02*
X41750001Y-27507143D01*
X41821429Y-27435714D01*
X41892858Y-27292857D01*
X41892858Y-26864286D01*
X41821429Y-26721429D01*
X41750001Y-26650000D01*
X41607143Y-26578571D01*
X41392858Y-26578571D01*
X41250001Y-26650000D01*
X41178572Y-26721429D01*
X41107143Y-26864286D01*
X41107143Y-27292857D01*
X41178572Y-27435714D01*
X41250001Y-27507143D01*
X41392858Y-27578571D01*
X41607143Y-27578571D01*
X40464286Y-26578571D02*
X40464286Y-27578571D01*
X40464286Y-26721429D02*
X40392858Y-26650000D01*
X40250000Y-26578571D01*
X40035715Y-26578571D01*
X39892858Y-26650000D01*
X39821429Y-26792857D01*
X39821429Y-27578571D01*
X38035715Y-27507143D02*
X37892858Y-27578571D01*
X37607143Y-27578571D01*
X37464286Y-27507143D01*
X37392858Y-27364286D01*
X37392858Y-27292857D01*
X37464286Y-27150000D01*
X37607143Y-27078571D01*
X37821429Y-27078571D01*
X37964286Y-27007143D01*
X38035715Y-26864286D01*
X38035715Y-26792857D01*
X37964286Y-26650000D01*
X37821429Y-26578571D01*
X37607143Y-26578571D01*
X37464286Y-26650000D01*
X36750000Y-27578571D02*
X36750000Y-26078571D01*
X36107143Y-27578571D02*
X36107143Y-26792857D01*
X36178572Y-26650000D01*
X36321429Y-26578571D01*
X36535714Y-26578571D01*
X36678572Y-26650000D01*
X36750000Y-26721429D01*
X35178571Y-27578571D02*
X35321429Y-27507143D01*
X35392857Y-27435714D01*
X35464286Y-27292857D01*
X35464286Y-26864286D01*
X35392857Y-26721429D01*
X35321429Y-26650000D01*
X35178571Y-26578571D01*
X34964286Y-26578571D01*
X34821429Y-26650000D01*
X34750000Y-26721429D01*
X34678571Y-26864286D01*
X34678571Y-27292857D01*
X34750000Y-27435714D01*
X34821429Y-27507143D01*
X34964286Y-27578571D01*
X35178571Y-27578571D01*
X34178571Y-26578571D02*
X33892857Y-27578571D01*
X33607143Y-26864286D01*
X33321428Y-27578571D01*
X33035714Y-26578571D01*
X32464285Y-26578571D02*
X32464285Y-27578571D01*
X32464285Y-26721429D02*
X32392857Y-26650000D01*
X32249999Y-26578571D01*
X32035714Y-26578571D01*
X31892857Y-26650000D01*
X31821428Y-26792857D01*
X31821428Y-27578571D01*
X38642857Y-29978571D02*
X38642857Y-28478571D01*
X38071429Y-28478571D01*
X37928571Y-28550000D01*
X37857143Y-28621429D01*
X37785714Y-28764286D01*
X37785714Y-28978571D01*
X37857143Y-29121429D01*
X37928571Y-29192857D01*
X38071429Y-29264286D01*
X38642857Y-29264286D01*
X37142857Y-29978571D02*
X37142857Y-28978571D01*
X37142857Y-28478571D02*
X37214286Y-28550000D01*
X37142857Y-28621429D01*
X37071429Y-28550000D01*
X37142857Y-28478571D01*
X37142857Y-28621429D01*
X36428571Y-28978571D02*
X36428571Y-29978571D01*
X36428571Y-29121429D02*
X36357143Y-29050000D01*
X36214285Y-28978571D01*
X36000000Y-28978571D01*
X35857143Y-29050000D01*
X35785714Y-29192857D01*
X35785714Y-29978571D01*
X35142857Y-29907143D02*
X35000000Y-29978571D01*
X34714285Y-29978571D01*
X34571428Y-29907143D01*
X34500000Y-29764286D01*
X34500000Y-29692857D01*
X34571428Y-29550000D01*
X34714285Y-29478571D01*
X34928571Y-29478571D01*
X35071428Y-29407143D01*
X35142857Y-29264286D01*
X35142857Y-29192857D01*
X35071428Y-29050000D01*
X34928571Y-28978571D01*
X34714285Y-28978571D01*
X34571428Y-29050000D01*
X33857142Y-29835714D02*
X33785714Y-29907143D01*
X33857142Y-29978571D01*
X33928571Y-29907143D01*
X33857142Y-29835714D01*
X33857142Y-29978571D01*
D11*
X6253000Y-57377400D02*
X6964200Y-57377400D01*
X6253000Y-56539200D02*
X6253000Y-57377400D01*
X6253000Y-57377400D02*
X6253000Y-56539200D01*
D12*
X13271429Y-92892857D02*
X14771429Y-92892857D01*
X14771429Y-92321429D01*
X14700000Y-92178571D01*
X14628571Y-92107143D01*
X14485714Y-92035714D01*
X14271429Y-92035714D01*
X14128571Y-92107143D01*
X14057143Y-92178571D01*
X13985714Y-92321429D01*
X13985714Y-92892857D01*
X13271429Y-91178571D02*
X13342857Y-91321429D01*
X13485714Y-91392857D01*
X14771429Y-91392857D01*
X14271429Y-89964286D02*
X13271429Y-89964286D01*
X14271429Y-90607143D02*
X13485714Y-90607143D01*
X13342857Y-90535715D01*
X13271429Y-90392857D01*
X13271429Y-90178572D01*
X13342857Y-90035715D01*
X13414286Y-89964286D01*
X14271429Y-88607143D02*
X13057143Y-88607143D01*
X12914286Y-88678572D01*
X12842857Y-88750000D01*
X12771429Y-88892857D01*
X12771429Y-89107143D01*
X12842857Y-89250000D01*
X13342857Y-88607143D02*
X13271429Y-88750000D01*
X13271429Y-89035714D01*
X13342857Y-89178572D01*
X13414286Y-89250000D01*
X13557143Y-89321429D01*
X13985714Y-89321429D01*
X14128571Y-89250000D01*
X14200000Y-89178572D01*
X14271429Y-89035714D01*
X14271429Y-88750000D01*
X14200000Y-88607143D01*
X10871429Y-94714285D02*
X12371429Y-94714285D01*
X12371429Y-94142857D01*
X12300000Y-93999999D01*
X12228571Y-93928571D01*
X12085714Y-93857142D01*
X11871429Y-93857142D01*
X11728571Y-93928571D01*
X11657143Y-93999999D01*
X11585714Y-94142857D01*
X11585714Y-94714285D01*
X10871429Y-92999999D02*
X10942857Y-93142857D01*
X11014286Y-93214285D01*
X11157143Y-93285714D01*
X11585714Y-93285714D01*
X11728571Y-93214285D01*
X11800000Y-93142857D01*
X11871429Y-92999999D01*
X11871429Y-92785714D01*
X11800000Y-92642857D01*
X11728571Y-92571428D01*
X11585714Y-92499999D01*
X11157143Y-92499999D01*
X11014286Y-92571428D01*
X10942857Y-92642857D01*
X10871429Y-92785714D01*
X10871429Y-92999999D01*
X10871429Y-91642856D02*
X10942857Y-91785714D01*
X11085714Y-91857142D01*
X12371429Y-91857142D01*
X10871429Y-90428571D02*
X11657143Y-90428571D01*
X11800000Y-90500000D01*
X11871429Y-90642857D01*
X11871429Y-90928571D01*
X11800000Y-91071428D01*
X10942857Y-90428571D02*
X10871429Y-90571428D01*
X10871429Y-90928571D01*
X10942857Y-91071428D01*
X11085714Y-91142857D01*
X11228571Y-91142857D01*
X11371429Y-91071428D01*
X11442857Y-90928571D01*
X11442857Y-90571428D01*
X11514286Y-90428571D01*
X10871429Y-89714285D02*
X11871429Y-89714285D01*
X11585714Y-89714285D02*
X11728571Y-89642857D01*
X11800000Y-89571428D01*
X11871429Y-89428571D01*
X11871429Y-89285714D01*
X10871429Y-88785714D02*
X11871429Y-88785714D01*
X12371429Y-88785714D02*
X12300000Y-88857143D01*
X12228571Y-88785714D01*
X12300000Y-88714286D01*
X12371429Y-88785714D01*
X12228571Y-88785714D01*
X11871429Y-88285714D02*
X11871429Y-87714285D01*
X12371429Y-88071428D02*
X11085714Y-88071428D01*
X10942857Y-88000000D01*
X10871429Y-87857142D01*
X10871429Y-87714285D01*
X11871429Y-87357142D02*
X10871429Y-86999999D01*
X11871429Y-86642857D02*
X10871429Y-86999999D01*
X10514286Y-87142857D01*
X10442857Y-87214285D01*
X10371429Y-87357142D01*
X9857143Y-93071428D02*
X9857143Y-91928571D01*
X9428572Y-86357143D02*
X10571429Y-86357143D01*
X10000000Y-86928571D02*
X10000000Y-85785714D01*
D10*
X29810000Y-53862000D02*
X28610000Y-53862000D01*
X28610000Y-55612000D02*
X29810000Y-55612000D01*
X16016760Y-70208160D02*
X16016760Y-70159900D01*
X16717800Y-67409180D02*
X16016760Y-67409180D01*
X16016760Y-67409180D02*
X16016760Y-67658100D01*
X16016760Y-70208160D02*
X16016760Y-70408820D01*
X16016760Y-70408820D02*
X16717800Y-70408820D01*
X57400000Y-19810000D02*
X50900000Y-14810000D01*
X57400000Y-6610000D02*
X50900000Y-11610000D01*
X15800000Y-6610000D02*
X22300000Y-11610000D01*
X15900000Y-19760000D02*
X22300000Y-14810000D01*
X52550000Y-4460000D02*
G75*
G02X52350000Y-4160000I50000J250000D01*
G01*
X52800000Y-4360000D02*
G75*
G02X52450000Y-4410000I-200000J150000D01*
G01*
X53150000Y-6860000D02*
G75*
G02X53200000Y-6510000I200000J150000D01*
G01*
X53500000Y-6910000D02*
G75*
G02X53150000Y-6860000I-150000J200000D01*
G01*
X53100000Y-19660000D02*
G75*
G02X53400000Y-19460000I250000J-50000D01*
G01*
X53200000Y-19910000D02*
G75*
G02X53150000Y-19560000I150000J200000D01*
G01*
X52400000Y-22060000D02*
G75*
G02X52750000Y-22010000I200000J-150000D01*
G01*
X52350000Y-22260000D02*
G75*
G02X52550000Y-21960000I250000J50000D01*
G01*
X57400000Y-24810000D02*
G75*
G02X57500000Y-25510000I-300000J-400000D01*
G01*
X57500000Y-25510000D02*
G75*
G02X56800000Y-25610000I-400000J300000D01*
G01*
X57400000Y-19810000D02*
G75*
G02X57500000Y-20510000I-300000J-400000D01*
G01*
X57600000Y-20260000D02*
G75*
G02X57050000Y-20710000I-500000J50000D01*
G01*
X56900000Y-5760000D02*
G75*
G02X57550000Y-6010000I200000J-450000D01*
G01*
X57500000Y-5910000D02*
G75*
G02X57400000Y-6610000I-400000J-300000D01*
G01*
X57400000Y-810000D02*
G75*
G02X57500000Y-1510000I-300000J-400000D01*
G01*
X56800000Y-810000D02*
G75*
G02X57450000Y-860000I300000J-350000D01*
G01*
X52750000Y-4410000D02*
X56800000Y-810000D01*
X53100000Y-1210000D02*
X52350000Y-4210000D01*
X53200000Y-6510000D02*
X57500000Y-1510000D01*
X53500000Y-6910000D02*
X56900000Y-5760000D01*
X53400000Y-19460000D02*
X57050000Y-20710000D01*
X53150000Y-19860000D02*
X57400000Y-24810000D01*
X52750000Y-22010000D02*
X56800000Y-25610000D01*
X53100000Y-25210000D02*
X52350000Y-22260000D01*
X19700000Y-19510000D02*
G75*
G02X20050000Y-19560000I150000J-200000D01*
G01*
X20000000Y-19510000D02*
G75*
G02X20050000Y-19860000I-150000J-200000D01*
G01*
X20400000Y-22060000D02*
G75*
G02X20750000Y-22010000I200000J-150000D01*
G01*
X20650000Y-21960000D02*
G75*
G02X20850000Y-22260000I-50000J-250000D01*
G01*
X20050000Y-6610000D02*
G75*
G02X19950000Y-6910000I-200000J-100000D01*
G01*
X20050000Y-6810000D02*
G75*
G02X19750000Y-6910000I-200000J100000D01*
G01*
X20850000Y-4160000D02*
G75*
G02X20650000Y-4460000I-250000J-50000D01*
G01*
X20800000Y-4360000D02*
G75*
G02X20450000Y-4410000I-200000J150000D01*
G01*
X45100000Y-1210000D02*
X45100000Y-12210000D01*
X16300000Y-20660000D02*
G75*
G02X15650000Y-20410000I-200000J450000D01*
G01*
X15650000Y-20410000D02*
G75*
G02X15900000Y-19760000I450000J200000D01*
G01*
X16400000Y-25610000D02*
G75*
G02X15700000Y-25510000I-300000J400000D01*
G01*
X15800000Y-25610000D02*
G75*
G02X15700000Y-24910000I300000J400000D01*
G01*
X19700000Y-19510000D02*
X16300000Y-20660000D01*
X15750000Y-860000D02*
G75*
G02X16450000Y-860000I350000J-350000D01*
G01*
X15750000Y-1560000D02*
G75*
G02X15750000Y-860000I350000J350000D01*
G01*
X15650000Y-6010000D02*
G75*
G02X16300000Y-5760000I450000J-200000D01*
G01*
X15800000Y-6610000D02*
G75*
G02X15700000Y-5910000I300000J400000D01*
G01*
X28100000Y-1210000D02*
X28100000Y-12210000D01*
X16300000Y-5760000D02*
X19700000Y-6910000D01*
X15750000Y-1560000D02*
X20050000Y-6560000D01*
X16500000Y-910000D02*
X20450000Y-4410000D01*
X20100000Y-1210000D02*
X20850000Y-4210000D01*
X20050000Y-19860000D02*
X15700000Y-24910000D01*
X20400000Y-22060000D02*
X16450000Y-25560000D01*
X28100000Y-25210000D02*
X28100000Y-14210000D01*
X45100000Y-25210000D02*
X45100000Y-14210000D01*
X20850000Y-22210000D02*
X20100000Y-25210000D01*
X52150000Y-1010000D02*
X49100000Y-6460000D01*
X52150000Y-1010000D02*
G75*
G02X52800000Y-760000I450000J-200000D01*
G01*
X21000000Y-910000D02*
X24100000Y-6460000D01*
X20300000Y-810000D02*
G75*
G02X21000000Y-910000I300000J-400000D01*
G01*
X21100000Y-25460000D02*
X24100000Y-19960000D01*
X21100000Y-25460000D02*
G75*
G02X20400000Y-25660000I-450000J250000D01*
G01*
X49100000Y-19960000D02*
X52200000Y-25510000D01*
X52900000Y-25610000D02*
G75*
G02X52200000Y-25510000I-300000J400000D01*
G01*
X49100000Y-6460000D02*
G75*
G02X47350000Y-6710000I-1000000J750000D01*
G01*
X48100000Y-6960000D02*
G75*
G02X46850000Y-5710000I0J1250000D01*
G01*
X26350000Y-5710000D02*
G75*
G02X25100000Y-6960000I-1250000J0D01*
G01*
X25850000Y-6710000D02*
G75*
G02X24100000Y-6460000I-750000J1000000D01*
G01*
X24100000Y-19960000D02*
G75*
G02X25850000Y-19710000I1000000J-750000D01*
G01*
X25100000Y-19460000D02*
G75*
G02X26350000Y-20710000I0J-1250000D01*
G01*
X47350000Y-19710000D02*
G75*
G02X49100000Y-19960000I750000J-1000000D01*
G01*
X46850000Y-20710000D02*
G75*
G02X48100000Y-19460000I1250000J0D01*
G01*
X46850000Y-5710000D02*
X46100000Y-1210000D01*
X26350000Y-5710000D02*
X27100000Y-1210000D01*
X46100000Y-25210000D02*
X46850000Y-20710000D01*
X27100000Y-25210000D02*
X26350000Y-20710000D01*
X20600000Y-25710000D02*
G75*
G02X20100000Y-25210000I0J500000D01*
G01*
X53100000Y-25210000D02*
G75*
G02X52600000Y-25710000I-500000J0D01*
G01*
X52600000Y-710000D02*
G75*
G02X53100000Y-1210000I0J-500000D01*
G01*
X20100000Y-1210000D02*
G75*
G02X20600000Y-710000I500000J0D01*
G01*
X27600000Y-25710000D02*
G75*
G02X27100000Y-25210000I0J500000D01*
G01*
X28100000Y-25210000D02*
G75*
G02X27600000Y-25710000I-500000J0D01*
G01*
X27100000Y-1210000D02*
G75*
G02X27600000Y-710000I500000J0D01*
G01*
X27600000Y-710000D02*
G75*
G02X28100000Y-1210000I0J-500000D01*
G01*
X45600000Y-710000D02*
G75*
G02X46100000Y-1210000I0J-500000D01*
G01*
X45100000Y-1210000D02*
G75*
G02X45600000Y-710000I500000J0D01*
G01*
X46100000Y-25210000D02*
G75*
G02X45600000Y-25710000I-500000J0D01*
G01*
X45600000Y-25710000D02*
G75*
G02X45100000Y-25210000I0J500000D01*
G01*
X38350000Y-13460000D02*
X38350000Y-12960000D01*
X34850000Y-13460000D02*
X34850000Y-12960000D01*
X38350000Y-12460000D02*
X38350000Y-12210000D01*
X34850000Y-12210000D02*
X34850000Y-12460000D01*
X38350000Y-14210000D02*
X38350000Y-13960000D01*
X34850000Y-14210000D02*
X34850000Y-13960000D01*
X45100000Y-12210000D02*
X28100000Y-12210000D01*
X28100000Y-14210000D02*
X45100000Y-14210000D01*
X40876000Y-61822500D02*
X40651000Y-61822500D01*
X40876000Y-57172500D02*
X40651000Y-57172500D01*
X35626000Y-57172500D02*
X35851000Y-57172500D01*
X35626000Y-61822500D02*
X35851000Y-61822500D01*
X40876000Y-61822500D02*
X40876000Y-57172500D01*
X35626000Y-61822500D02*
X35626000Y-57172500D01*
X40651000Y-61822500D02*
X40651000Y-63172500D01*
X27211840Y-64766520D02*
X27211840Y-65966520D01*
X28961840Y-65966520D02*
X28961840Y-64766520D01*
X63775000Y-35199000D02*
X63775000Y-25201000D01*
X63915000Y-35195000D02*
X63915000Y-25205000D01*
X64055000Y-35187000D02*
X64055000Y-25213000D01*
X64195000Y-35175000D02*
X64195000Y-25225000D01*
X64335000Y-35160000D02*
X64335000Y-25240000D01*
X64475000Y-35140000D02*
X64475000Y-25260000D01*
X64615000Y-35116000D02*
X64615000Y-25284000D01*
X64755000Y-35087000D02*
X64755000Y-25313000D01*
X64895000Y-35055000D02*
X64895000Y-25345000D01*
X65035000Y-35018000D02*
X65035000Y-25382000D01*
X65175000Y-34977000D02*
X65175000Y-25423000D01*
X65315000Y-34932000D02*
X65315000Y-30666000D01*
X65315000Y-29734000D02*
X65315000Y-25468000D01*
X65455000Y-34882000D02*
X65455000Y-30867000D01*
X65455000Y-29533000D02*
X65455000Y-25518000D01*
X65595000Y-34827000D02*
X65595000Y-30996000D01*
X65595000Y-29404000D02*
X65595000Y-25573000D01*
X65735000Y-34767000D02*
X65735000Y-31085000D01*
X65735000Y-29315000D02*
X65735000Y-25633000D01*
X65875000Y-34702000D02*
X65875000Y-31146000D01*
X65875000Y-29254000D02*
X65875000Y-25698000D01*
X66015000Y-34632000D02*
X66015000Y-31183000D01*
X66015000Y-29217000D02*
X66015000Y-25768000D01*
X66155000Y-34556000D02*
X66155000Y-31199000D01*
X66155000Y-29201000D02*
X66155000Y-25844000D01*
X66295000Y-34474000D02*
X66295000Y-31195000D01*
X66295000Y-29205000D02*
X66295000Y-25926000D01*
X66435000Y-34386000D02*
X66435000Y-31172000D01*
X66435000Y-29228000D02*
X66435000Y-26014000D01*
X66575000Y-34291000D02*
X66575000Y-31127000D01*
X66575000Y-29273000D02*
X66575000Y-26109000D01*
X66715000Y-34189000D02*
X66715000Y-31057000D01*
X66715000Y-29343000D02*
X66715000Y-26211000D01*
X66855000Y-34079000D02*
X66855000Y-30956000D01*
X66855000Y-29444000D02*
X66855000Y-26321000D01*
X66995000Y-33961000D02*
X66995000Y-30807000D01*
X66995000Y-29593000D02*
X66995000Y-26439000D01*
X67135000Y-33833000D02*
X67135000Y-30555000D01*
X67135000Y-29845000D02*
X67135000Y-26567000D01*
X67275000Y-33696000D02*
X67275000Y-26704000D01*
X67415000Y-33546000D02*
X67415000Y-26854000D01*
X67555000Y-33384000D02*
X67555000Y-27016000D01*
X67695000Y-33207000D02*
X67695000Y-27193000D01*
X67835000Y-33011000D02*
X67835000Y-27389000D01*
X67975000Y-32793000D02*
X67975000Y-27607000D01*
X68115000Y-32547000D02*
X68115000Y-27853000D01*
X68255000Y-32262000D02*
X68255000Y-28138000D01*
X68395000Y-31920000D02*
X68395000Y-28480000D01*
X68535000Y-31474000D02*
X68535000Y-28926000D01*
X68675000Y-30699000D02*
X68675000Y-29701000D01*
X67200000Y-30200000D02*
G75*
G03X67200000Y-30200000I-1000000J0D01*
G01*
X68737500Y-30200000D02*
G75*
G03X68737500Y-30200000I-5037500J0D01*
G01*
X32126000Y-64649000D02*
X30926000Y-64649000D01*
X30926000Y-66399000D02*
X32126000Y-66399000D01*
X33210000Y-74753000D02*
X33210000Y-73753000D01*
X34910000Y-73753000D02*
X34910000Y-74753000D01*
X37735000Y-54950000D02*
X36735000Y-54950000D01*
X36735000Y-53250000D02*
X37735000Y-53250000D01*
X32243000Y-71149500D02*
X32243000Y-72149500D01*
X30543000Y-72149500D02*
X30543000Y-71149500D01*
X49568000Y-53498000D02*
X50568000Y-53498000D01*
X50568000Y-55198000D02*
X49568000Y-55198000D01*
X31153000Y-62596280D02*
X32153000Y-62596280D01*
X32153000Y-64296280D02*
X31153000Y-64296280D01*
X66824000Y-78058000D02*
X65824000Y-78058000D01*
X65824000Y-76358000D02*
X66824000Y-76358000D01*
X9082000Y-57973000D02*
X10282000Y-57973000D01*
X10282000Y-56223000D02*
X9082000Y-56223000D01*
X34740000Y-66532000D02*
X34740000Y-65532000D01*
X36440000Y-65532000D02*
X36440000Y-66532000D01*
X50401000Y-63250000D02*
X49639000Y-63250000D01*
X50020000Y-63631000D02*
X50020000Y-62869000D01*
X50274000Y-60964000D02*
X46464000Y-60964000D01*
X51036000Y-64774000D02*
X51036000Y-61726000D01*
X50274000Y-60964000D02*
X51036000Y-61726000D01*
X50274000Y-65536000D02*
X46464000Y-65536000D01*
X50274000Y-65536000D02*
X51036000Y-64774000D01*
X46718000Y-63123000D02*
X46718000Y-63377000D01*
X46845000Y-63885000D02*
X46845000Y-62615000D01*
X46972000Y-62361000D02*
X46972000Y-64139000D01*
X47099000Y-62107000D02*
X47099000Y-64393000D01*
X47226000Y-64520000D02*
X47226000Y-61980000D01*
X47353000Y-61853000D02*
X47353000Y-64647000D01*
X47480000Y-64774000D02*
X47480000Y-61726000D01*
X47607000Y-64901000D02*
X47607000Y-61599000D01*
X46464000Y-65536000D02*
X46464000Y-60964000D01*
X50782000Y-63250000D02*
G75*
G03X50782000Y-63250000I-2032000J0D01*
G01*
X63904000Y-94270000D02*
X48664000Y-94270000D01*
X48664000Y-94270000D02*
X48664000Y-76236000D01*
X48664000Y-76236000D02*
X63904000Y-76236000D01*
X63904000Y-76236000D02*
X63904000Y-94270000D01*
X46886000Y-94270000D02*
X31646000Y-94270000D01*
X31646000Y-94270000D02*
X31646000Y-76236000D01*
X31646000Y-76236000D02*
X46886000Y-76236000D01*
X46886000Y-76236000D02*
X46886000Y-94270000D01*
X15508760Y-74907160D02*
X15508760Y-74858900D01*
X16209800Y-72108180D02*
X15508760Y-72108180D01*
X15508760Y-72108180D02*
X15508760Y-72357100D01*
X15508760Y-74907160D02*
X15508760Y-75107820D01*
X15508760Y-75107820D02*
X16209800Y-75107820D01*
X70915000Y-63165000D02*
X70915000Y-61965000D01*
X69165000Y-61965000D02*
X69165000Y-63165000D01*
X70865000Y-68265000D02*
X70865000Y-67065000D01*
X69115000Y-67065000D02*
X69115000Y-68265000D01*
X70865000Y-73565000D02*
X70865000Y-72365000D01*
X69115000Y-72365000D02*
X69115000Y-73565000D01*
X30226760Y-70660440D02*
X30226760Y-69460440D01*
X28476760Y-69460440D02*
X28476760Y-70660440D01*
X28286000Y-51068000D02*
X27086000Y-51068000D01*
X27086000Y-52818000D02*
X28286000Y-52818000D01*
X21147000Y-75245000D02*
X22347000Y-75245000D01*
X22347000Y-73495000D02*
X21147000Y-73495000D01*
X36879000Y-73543000D02*
X36879000Y-73268000D01*
X40129000Y-73543000D02*
X40129000Y-73268000D01*
X40129000Y-70293000D02*
X40129000Y-70568000D01*
X36879000Y-70293000D02*
X36879000Y-70568000D01*
X36879000Y-73543000D02*
X40129000Y-73543000D01*
X36879000Y-70293000D02*
X40129000Y-70293000D01*
X36879000Y-73268000D02*
X35804000Y-73268000D01*
X30250000Y-16766000D02*
X30250000Y-15369000D01*
X30250000Y-15369000D02*
X42950000Y-15369000D01*
X42950000Y-15369000D02*
X42950000Y-17909000D01*
X42950000Y-17909000D02*
X30250000Y-17909000D01*
X30250000Y-17909000D02*
X30250000Y-16766000D01*
X42950000Y-9654000D02*
X42950000Y-11051000D01*
X42950000Y-11051000D02*
X30250000Y-11051000D01*
X30250000Y-11051000D02*
X30250000Y-8511000D01*
X30250000Y-8511000D02*
X42950000Y-8511000D01*
X42950000Y-8511000D02*
X42950000Y-9654000D01*
X16094000Y-66741000D02*
X16094000Y-66386000D01*
X23844000Y-66741000D02*
X23844000Y-66386000D01*
X23844000Y-56091000D02*
X23844000Y-56446000D01*
X16094000Y-56091000D02*
X16094000Y-56446000D01*
X16094000Y-66741000D02*
X23844000Y-66741000D01*
X16094000Y-56091000D02*
X23844000Y-56091000D01*
X16094000Y-66386000D02*
X14569000Y-66386000D01*
X63380000Y-74985000D02*
X63380000Y-59745000D01*
X68460000Y-62285000D02*
X68460000Y-74985000D01*
X63380000Y-74985000D02*
X68460000Y-74985000D01*
X63380000Y-59745000D02*
X65920000Y-59745000D01*
X67190000Y-59465000D02*
X68740000Y-59465000D01*
X65920000Y-59745000D02*
X65920000Y-62285000D01*
X65920000Y-62285000D02*
X68460000Y-62285000D01*
X68740000Y-59465000D02*
X68740000Y-61015000D01*
X39750000Y-66350000D02*
X38750000Y-66350000D01*
X38750000Y-64650000D02*
X39750000Y-64650000D01*
X36586000Y-46830000D02*
X36586000Y-45630000D01*
X34836000Y-45630000D02*
X34836000Y-46830000D01*
X37884000Y-45630000D02*
X37884000Y-46830000D01*
X39634000Y-46830000D02*
X39634000Y-45630000D01*
X13080000Y-32580000D02*
X13080000Y-22420000D01*
X13080000Y-22420000D02*
X2920000Y-22420000D01*
X2920000Y-22420000D02*
X2920000Y-32580000D01*
X2920000Y-32580000D02*
X13080000Y-32580000D01*
X13080000Y-48080000D02*
X13080000Y-37920000D01*
X13080000Y-37920000D02*
X2920000Y-37920000D01*
X2920000Y-37920000D02*
X2920000Y-48080000D01*
X2920000Y-48080000D02*
X13080000Y-48080000D01*
X13080000Y-21580000D02*
X13080000Y-11420000D01*
X13080000Y-11420000D02*
X2920000Y-11420000D01*
X2920000Y-11420000D02*
X2920000Y-21580000D01*
X2920000Y-21580000D02*
X13080000Y-21580000D01*
X61920000Y-11920000D02*
X61920000Y-22080000D01*
X61920000Y-22080000D02*
X72080000Y-22080000D01*
X72080000Y-22080000D02*
X72080000Y-11920000D01*
X72080000Y-11920000D02*
X61920000Y-11920000D01*
X61920000Y-37920000D02*
X61920000Y-48080000D01*
X61920000Y-48080000D02*
X72080000Y-48080000D01*
X72080000Y-48080000D02*
X72080000Y-37920000D01*
X72080000Y-37920000D02*
X61920000Y-37920000D01*
X34861000Y-51175000D02*
X34861000Y-50175000D01*
X36561000Y-50175000D02*
X36561000Y-51175000D01*
X39609000Y-50175000D02*
X39609000Y-51175000D01*
X37909000Y-51175000D02*
X37909000Y-50175000D01*
X9209000Y-60005000D02*
X10409000Y-60005000D01*
X10409000Y-58255000D02*
X9209000Y-58255000D01*
X12850000Y-77750000D02*
X1050000Y-77750000D01*
X12850000Y-70750000D02*
X1050000Y-70750000D01*
X9270000Y-70750000D02*
X9270000Y-77750000D01*
X12850000Y-77750000D02*
X12850000Y-70750000D01*
X1050000Y-70750000D02*
X1050000Y-77750000D01*
X12850000Y-70250000D02*
X1050000Y-70250000D01*
X12850000Y-63250000D02*
X1050000Y-63250000D01*
X9270000Y-63250000D02*
X9270000Y-70250000D01*
X12850000Y-70250000D02*
X12850000Y-63250000D01*
X1050000Y-63250000D02*
X1050000Y-70250000D01*
X12850000Y-85250000D02*
X1050000Y-85250000D01*
X12850000Y-78250000D02*
X1050000Y-78250000D01*
X9270000Y-78250000D02*
X9270000Y-85250000D01*
X12850000Y-85250000D02*
X12850000Y-78250000D01*
X1050000Y-78250000D02*
X1050000Y-85250000D01*
X4975000Y-59725000D02*
X3975000Y-59725000D01*
X3975000Y-61075000D02*
X4975000Y-61075000D01*
X3975000Y-59551000D02*
X4975000Y-59551000D01*
X4975000Y-58201000D02*
X3975000Y-58201000D01*
X4975000Y-56550000D02*
X3975000Y-56550000D01*
X3975000Y-57900000D02*
X4975000Y-57900000D01*
X4975000Y-61249000D02*
X3975000Y-61249000D01*
X3975000Y-62599000D02*
X4975000Y-62599000D01*
X23279000Y-67551000D02*
X24279000Y-67551000D01*
X24279000Y-69251000D02*
X23279000Y-69251000D01*
X46214000Y-45685000D02*
X46214000Y-44485000D01*
X44464000Y-44485000D02*
X44464000Y-45685000D01*
X46256700Y-50604600D02*
X46256700Y-49404600D01*
X44506700Y-49404600D02*
X44506700Y-50604600D01*
X33106440Y-58395520D02*
X31906440Y-58395520D01*
X31906440Y-60145520D02*
X33106440Y-60145520D01*
X26528600Y-58757440D02*
X26576860Y-58757440D01*
X29327580Y-59458480D02*
X29327580Y-58757440D01*
X29327580Y-58757440D02*
X29078660Y-58757440D01*
X26528600Y-58757440D02*
X26327940Y-58757440D01*
X26327940Y-58757440D02*
X26327940Y-59458480D01*
X49264140Y-49100360D02*
X49312400Y-49100360D01*
X52063120Y-49801400D02*
X52063120Y-49100360D01*
X52063120Y-49100360D02*
X51814200Y-49100360D01*
X49264140Y-49100360D02*
X49063480Y-49100360D01*
X49063480Y-49100360D02*
X49063480Y-49801400D01*
X48770060Y-46338060D02*
X48770060Y-46289800D01*
X49471100Y-43539080D02*
X48770060Y-43539080D01*
X48770060Y-43539080D02*
X48770060Y-43788000D01*
X48770060Y-46338060D02*
X48770060Y-46538720D01*
X48770060Y-46538720D02*
X49471100Y-46538720D01*
X52812500Y-48414000D02*
X52812500Y-49614000D01*
X54562500Y-49614000D02*
X54562500Y-48414000D01*
X52344400Y-40887300D02*
X51144400Y-40887300D01*
X51144400Y-42637300D02*
X52344400Y-42637300D01*
X46754200Y-50377600D02*
X46754200Y-49377600D01*
X48454200Y-49377600D02*
X48454200Y-50377600D01*
X42202000Y-53244000D02*
X43202000Y-53244000D01*
X43202000Y-54944000D02*
X42202000Y-54944000D01*
X45501000Y-41896000D02*
X46701000Y-41896000D01*
X46701000Y-40146000D02*
X45501000Y-40146000D01*
X58688000Y-67521000D02*
X56688000Y-67521000D01*
X56688000Y-65471000D02*
X58688000Y-65471000D01*
X61625000Y-54602000D02*
X61625000Y-56126000D01*
X61498000Y-56507000D02*
X61498000Y-54221000D01*
X61371000Y-53967000D02*
X61371000Y-56761000D01*
X61244000Y-57015000D02*
X61244000Y-53713000D01*
X61117000Y-53586000D02*
X61117000Y-57142000D01*
X62006000Y-52062000D02*
X62006000Y-58666000D01*
X62006000Y-58666000D02*
X56164000Y-58666000D01*
X56164000Y-58666000D02*
X55402000Y-57904000D01*
X55402000Y-57904000D02*
X55402000Y-52824000D01*
X55402000Y-52824000D02*
X56164000Y-52062000D01*
X56164000Y-52062000D02*
X62006000Y-52062000D01*
X56545000Y-55364000D02*
X57307000Y-55364000D01*
X56926000Y-54983000D02*
X56926000Y-55745000D01*
X61752000Y-55364000D02*
G75*
G03X61752000Y-55364000I-3048000J0D01*
G01*
X70496520Y-33778880D02*
X70496520Y-31078880D01*
X71996520Y-33778880D02*
X71996520Y-31078880D01*
X71096520Y-32278880D02*
X71346520Y-32278880D01*
X71346520Y-32278880D02*
X71196520Y-32428880D01*
X71596520Y-32528880D02*
X70896520Y-32528880D01*
X71246520Y-32178880D02*
X71246520Y-31828880D01*
X71246520Y-32528880D02*
X71596520Y-32178880D01*
X71596520Y-32178880D02*
X70896520Y-32178880D01*
X70896520Y-32178880D02*
X71246520Y-32528880D01*
X6583400Y-52592160D02*
X9283400Y-52592160D01*
X6583400Y-54092160D02*
X9283400Y-54092160D01*
X8083400Y-53192160D02*
X8083400Y-53442160D01*
X8083400Y-53442160D02*
X7933400Y-53292160D01*
X7833400Y-53692160D02*
X7833400Y-52992160D01*
X8183400Y-53342160D02*
X8533400Y-53342160D01*
X7833400Y-53342160D02*
X8183400Y-53692160D01*
X8183400Y-53692160D02*
X8183400Y-52992160D01*
X8183400Y-52992160D02*
X7833400Y-53342160D01*
X22627680Y-54698320D02*
X22627680Y-51998320D01*
X24127680Y-54698320D02*
X24127680Y-51998320D01*
X23227680Y-53198320D02*
X23477680Y-53198320D01*
X23477680Y-53198320D02*
X23327680Y-53348320D01*
X23727680Y-53448320D02*
X23027680Y-53448320D01*
X23377680Y-53098320D02*
X23377680Y-52748320D01*
X23377680Y-53448320D02*
X23727680Y-53098320D01*
X23727680Y-53098320D02*
X23027680Y-53098320D01*
X23027680Y-53098320D02*
X23377680Y-53448320D01*
X29367000Y-46531400D02*
X29367000Y-50531400D01*
X29367000Y-46531400D02*
X29367000Y-50531400D01*
X21747000Y-46531400D02*
X21747000Y-50531400D01*
X23652000Y-45356400D02*
X24922000Y-45356400D01*
X27462000Y-45356400D02*
X26192000Y-45356400D01*
X26192000Y-42781400D02*
X27462000Y-42781400D01*
X24922000Y-42781400D02*
X23652000Y-42781400D01*
X23652000Y-46531400D02*
X23652000Y-36466400D01*
X23652000Y-36466400D02*
X22382000Y-36466400D01*
X22382000Y-36466400D02*
X22382000Y-46531400D01*
X26192000Y-46531400D02*
X26192000Y-36466400D01*
X26192000Y-36466400D02*
X24922000Y-36466400D01*
X24922000Y-36466400D02*
X24922000Y-46531400D01*
X28732000Y-46531400D02*
X28732000Y-36466400D01*
X28732000Y-36466400D02*
X27462000Y-36466400D01*
X27462000Y-36466400D02*
X27462000Y-46531400D01*
X29367000Y-46531400D02*
X21747000Y-46531400D01*
X21747000Y-50531400D02*
X29367000Y-50531400D01*
X72167240Y-28567560D02*
X72167240Y-27367560D01*
X70417240Y-27367560D02*
X70417240Y-28567560D01*
X12582120Y-54171440D02*
X13782120Y-54171440D01*
X13782120Y-52421440D02*
X12582120Y-52421440D01*
X19695240Y-53305360D02*
X18495240Y-53305360D01*
X18495240Y-55055360D02*
X19695240Y-55055360D01*
X19740960Y-50988880D02*
X18540960Y-50988880D01*
X18540960Y-52738880D02*
X19740960Y-52738880D01*
X14842000Y-88126000D02*
X16092000Y-88126000D01*
X14842000Y-88126000D02*
X14842000Y-86626000D01*
X24842000Y-88126000D02*
X24842000Y-86626000D01*
X24842000Y-88126000D02*
X23592000Y-88126000D01*
X33055640Y-60463080D02*
X31855640Y-60463080D01*
X31855640Y-62213080D02*
X33055640Y-62213080D01*
X46750000Y-72525000D02*
X44750000Y-72525000D01*
X44750000Y-70475000D02*
X46750000Y-70475000D01*
X44000000Y-74600000D02*
X43000000Y-74600000D01*
X43000000Y-72900000D02*
X44000000Y-72900000D01*
X71025000Y-78000000D02*
X71025000Y-80000000D01*
X68975000Y-80000000D02*
X68975000Y-78000000D01*
X16524000Y-35722000D02*
X16524000Y-36922000D01*
X18274000Y-36922000D02*
X18274000Y-35722000D01*
X46849760Y-32799160D02*
X46849760Y-32750900D01*
X47550800Y-30000180D02*
X46849760Y-30000180D01*
X46849760Y-30000180D02*
X46849760Y-30249100D01*
X46849760Y-32799160D02*
X46849760Y-32999820D01*
X46849760Y-32999820D02*
X47550800Y-32999820D01*
X50052000Y-30261000D02*
X50052000Y-31461000D01*
X51802000Y-31461000D02*
X51802000Y-30261000D01*
X21272500Y-36195000D02*
X21272500Y-38227000D01*
X21272500Y-38227000D02*
X20002500Y-38227000D01*
X20002500Y-38227000D02*
X20002500Y-36195000D01*
X20002500Y-36195000D02*
X21272500Y-36195000D01*
X24292000Y-28561000D02*
X25492000Y-28561000D01*
X25492000Y-26811000D02*
X24292000Y-26811000D01*
X18788000Y-40410500D02*
X17788000Y-40410500D01*
X17788000Y-38710500D02*
X18788000Y-38710500D01*
X54894000Y-34286000D02*
X54444000Y-34836000D01*
X54444000Y-34836000D02*
X55344000Y-34836000D01*
X55344000Y-34836000D02*
X54894000Y-34286000D01*
X54344000Y-34286000D02*
X55444000Y-34286000D01*
X56644060Y-32736860D02*
X56293540Y-32736860D01*
X53143940Y-32736860D02*
X53494460Y-32736860D01*
X56644060Y-36786440D02*
X56293540Y-36786440D01*
X56644060Y-32285560D02*
X56293540Y-32285560D01*
X53143940Y-32285560D02*
X53494460Y-32285560D01*
X53143940Y-36786440D02*
X53494460Y-36786440D01*
X56644060Y-32285560D02*
X56644060Y-36786440D01*
X53143940Y-32285560D02*
X53143940Y-36786440D01*
X48522000Y-38139000D02*
X49522000Y-38139000D01*
X49522000Y-39839000D02*
X48522000Y-39839000D01*
X31408666Y-53347881D02*
X31742000Y-52871690D01*
X31980095Y-53347881D02*
X31980095Y-52347881D01*
X31599142Y-52347881D01*
X31503904Y-52395500D01*
X31456285Y-52443119D01*
X31408666Y-52538357D01*
X31408666Y-52681214D01*
X31456285Y-52776452D01*
X31503904Y-52824071D01*
X31599142Y-52871690D01*
X31980095Y-52871690D01*
X30551523Y-52347881D02*
X30742000Y-52347881D01*
X30837238Y-52395500D01*
X30884857Y-52443119D01*
X30980095Y-52585976D01*
X31027714Y-52776452D01*
X31027714Y-53157405D01*
X30980095Y-53252643D01*
X30932476Y-53300262D01*
X30837238Y-53347881D01*
X30646761Y-53347881D01*
X30551523Y-53300262D01*
X30503904Y-53252643D01*
X30456285Y-53157405D01*
X30456285Y-52919310D01*
X30503904Y-52824071D01*
X30551523Y-52776452D01*
X30646761Y-52728833D01*
X30837238Y-52728833D01*
X30932476Y-52776452D01*
X30980095Y-52824071D01*
X31027714Y-52919310D01*
X20084819Y-69169362D02*
X20037200Y-69074124D01*
X19941962Y-68978886D01*
X19799105Y-68836029D01*
X19751486Y-68740790D01*
X19751486Y-68645552D01*
X19989581Y-68693171D02*
X19941962Y-68597933D01*
X19846724Y-68502695D01*
X19656248Y-68455076D01*
X19322914Y-68455076D01*
X19132438Y-68502695D01*
X19037200Y-68597933D01*
X18989581Y-68693171D01*
X18989581Y-68883648D01*
X19037200Y-68978886D01*
X19132438Y-69074124D01*
X19322914Y-69121743D01*
X19656248Y-69121743D01*
X19846724Y-69074124D01*
X19941962Y-68978886D01*
X19989581Y-68883648D01*
X19989581Y-68693171D01*
X19084819Y-69502695D02*
X19037200Y-69550314D01*
X18989581Y-69645552D01*
X18989581Y-69883648D01*
X19037200Y-69978886D01*
X19084819Y-70026505D01*
X19180057Y-70074124D01*
X19275295Y-70074124D01*
X19418152Y-70026505D01*
X19989581Y-69455076D01*
X19989581Y-70074124D01*
X41488095Y-13702381D02*
X41488095Y-12702381D01*
X41488095Y-13178571D02*
X40916666Y-13178571D01*
X40916666Y-13702381D02*
X40916666Y-12702381D01*
X40488095Y-13654762D02*
X40345238Y-13702381D01*
X40107142Y-13702381D01*
X40011904Y-13654762D01*
X39964285Y-13607143D01*
X39916666Y-13511905D01*
X39916666Y-13416667D01*
X39964285Y-13321429D01*
X40011904Y-13273810D01*
X40107142Y-13226190D01*
X40297619Y-13178571D01*
X40392857Y-13130952D01*
X40440476Y-13083333D01*
X40488095Y-12988095D01*
X40488095Y-12892857D01*
X40440476Y-12797619D01*
X40392857Y-12750000D01*
X40297619Y-12702381D01*
X40059523Y-12702381D01*
X39916666Y-12750000D01*
X38964285Y-13702381D02*
X39535714Y-13702381D01*
X39250000Y-13702381D02*
X39250000Y-12702381D01*
X39345238Y-12845238D01*
X39440476Y-12940476D01*
X39535714Y-12988095D01*
X41253381Y-58735595D02*
X42062905Y-58735595D01*
X42158143Y-58783214D01*
X42205762Y-58830833D01*
X42253381Y-58926071D01*
X42253381Y-59116548D01*
X42205762Y-59211786D01*
X42158143Y-59259405D01*
X42062905Y-59307024D01*
X41253381Y-59307024D01*
X42253381Y-59830833D02*
X42253381Y-60021309D01*
X42205762Y-60116548D01*
X42158143Y-60164167D01*
X42015286Y-60259405D01*
X41824810Y-60307024D01*
X41443857Y-60307024D01*
X41348619Y-60259405D01*
X41301000Y-60211786D01*
X41253381Y-60116548D01*
X41253381Y-59926071D01*
X41301000Y-59830833D01*
X41348619Y-59783214D01*
X41443857Y-59735595D01*
X41681952Y-59735595D01*
X41777190Y-59783214D01*
X41824810Y-59830833D01*
X41872429Y-59926071D01*
X41872429Y-60116548D01*
X41824810Y-60211786D01*
X41777190Y-60259405D01*
X41681952Y-60307024D01*
X26892381Y-64637143D02*
X26416190Y-64303809D01*
X26892381Y-64065714D02*
X25892381Y-64065714D01*
X25892381Y-64446667D01*
X25940000Y-64541905D01*
X25987619Y-64589524D01*
X26082857Y-64637143D01*
X26225714Y-64637143D01*
X26320952Y-64589524D01*
X26368571Y-64541905D01*
X26416190Y-64446667D01*
X26416190Y-64065714D01*
X25892381Y-64970476D02*
X25892381Y-65589524D01*
X26273333Y-65256190D01*
X26273333Y-65399048D01*
X26320952Y-65494286D01*
X26368571Y-65541905D01*
X26463810Y-65589524D01*
X26701905Y-65589524D01*
X26797143Y-65541905D01*
X26844762Y-65494286D01*
X26892381Y-65399048D01*
X26892381Y-65113333D01*
X26844762Y-65018095D01*
X26797143Y-64970476D01*
X25892381Y-66494286D02*
X25892381Y-66018095D01*
X26368571Y-65970476D01*
X26320952Y-66018095D01*
X26273333Y-66113333D01*
X26273333Y-66351429D01*
X26320952Y-66446667D01*
X26368571Y-66494286D01*
X26463810Y-66541905D01*
X26701905Y-66541905D01*
X26797143Y-66494286D01*
X26844762Y-66446667D01*
X26892381Y-66351429D01*
X26892381Y-66113333D01*
X26844762Y-66018095D01*
X26797143Y-65970476D01*
X64160666Y-24556381D02*
X64636857Y-24556381D01*
X64636857Y-23556381D01*
X63922571Y-23556381D02*
X63303523Y-23556381D01*
X63636857Y-23937333D01*
X63493999Y-23937333D01*
X63398761Y-23984952D01*
X63351142Y-24032571D01*
X63303523Y-24127810D01*
X63303523Y-24365905D01*
X63351142Y-24461143D01*
X63398761Y-24508762D01*
X63493999Y-24556381D01*
X63779714Y-24556381D01*
X63874952Y-24508762D01*
X63922571Y-24461143D01*
X32168857Y-68076381D02*
X32502191Y-67600190D01*
X32740286Y-68076381D02*
X32740286Y-67076381D01*
X32359333Y-67076381D01*
X32264095Y-67124000D01*
X32216476Y-67171619D01*
X32168857Y-67266857D01*
X32168857Y-67409714D01*
X32216476Y-67504952D01*
X32264095Y-67552571D01*
X32359333Y-67600190D01*
X32740286Y-67600190D01*
X31835524Y-67076381D02*
X31216476Y-67076381D01*
X31549810Y-67457333D01*
X31406952Y-67457333D01*
X31311714Y-67504952D01*
X31264095Y-67552571D01*
X31216476Y-67647810D01*
X31216476Y-67885905D01*
X31264095Y-67981143D01*
X31311714Y-68028762D01*
X31406952Y-68076381D01*
X31692667Y-68076381D01*
X31787905Y-68028762D01*
X31835524Y-67981143D01*
X30597429Y-67076381D02*
X30502190Y-67076381D01*
X30406952Y-67124000D01*
X30359333Y-67171619D01*
X30311714Y-67266857D01*
X30264095Y-67457333D01*
X30264095Y-67695429D01*
X30311714Y-67885905D01*
X30359333Y-67981143D01*
X30406952Y-68028762D01*
X30502190Y-68076381D01*
X30597429Y-68076381D01*
X30692667Y-68028762D01*
X30740286Y-67981143D01*
X30787905Y-67885905D01*
X30835524Y-67695429D01*
X30835524Y-67457333D01*
X30787905Y-67266857D01*
X30740286Y-67171619D01*
X30692667Y-67124000D01*
X30597429Y-67076381D01*
X32949943Y-73727143D02*
X32997562Y-73679524D01*
X33045181Y-73536667D01*
X33045181Y-73441429D01*
X32997562Y-73298571D01*
X32902324Y-73203333D01*
X32807086Y-73155714D01*
X32616610Y-73108095D01*
X32473752Y-73108095D01*
X32283276Y-73155714D01*
X32188038Y-73203333D01*
X32092800Y-73298571D01*
X32045181Y-73441429D01*
X32045181Y-73536667D01*
X32092800Y-73679524D01*
X32140419Y-73727143D01*
X32045181Y-74060476D02*
X32045181Y-74679524D01*
X32426133Y-74346190D01*
X32426133Y-74489048D01*
X32473752Y-74584286D01*
X32521371Y-74631905D01*
X32616610Y-74679524D01*
X32854705Y-74679524D01*
X32949943Y-74631905D01*
X32997562Y-74584286D01*
X33045181Y-74489048D01*
X33045181Y-74203333D01*
X32997562Y-74108095D01*
X32949943Y-74060476D01*
X33045181Y-75631905D02*
X33045181Y-75060476D01*
X33045181Y-75346190D02*
X32045181Y-75346190D01*
X32188038Y-75250952D01*
X32283276Y-75155714D01*
X32330895Y-75060476D01*
X33401143Y-53461143D02*
X33448762Y-53413524D01*
X33496381Y-53270667D01*
X33496381Y-53175429D01*
X33448762Y-53032571D01*
X33353524Y-52937333D01*
X33258286Y-52889714D01*
X33067810Y-52842095D01*
X32924952Y-52842095D01*
X32734476Y-52889714D01*
X32639238Y-52937333D01*
X32544000Y-53032571D01*
X32496381Y-53175429D01*
X32496381Y-53270667D01*
X32544000Y-53413524D01*
X32591619Y-53461143D01*
X32591619Y-53842095D02*
X32544000Y-53889714D01*
X32496381Y-53984952D01*
X32496381Y-54223048D01*
X32544000Y-54318286D01*
X32591619Y-54365905D01*
X32686857Y-54413524D01*
X32782095Y-54413524D01*
X32924952Y-54365905D01*
X33496381Y-53794476D01*
X33496381Y-54413524D01*
X33496381Y-55365905D02*
X33496381Y-54794476D01*
X33496381Y-55080190D02*
X32496381Y-55080190D01*
X32639238Y-54984952D01*
X32734476Y-54889714D01*
X32782095Y-54794476D01*
X33357143Y-70607143D02*
X33404762Y-70559524D01*
X33452381Y-70416667D01*
X33452381Y-70321429D01*
X33404762Y-70178571D01*
X33309524Y-70083333D01*
X33214286Y-70035714D01*
X33023810Y-69988095D01*
X32880952Y-69988095D01*
X32690476Y-70035714D01*
X32595238Y-70083333D01*
X32500000Y-70178571D01*
X32452381Y-70321429D01*
X32452381Y-70416667D01*
X32500000Y-70559524D01*
X32547619Y-70607143D01*
X32452381Y-70940476D02*
X32452381Y-71559524D01*
X32833333Y-71226190D01*
X32833333Y-71369048D01*
X32880952Y-71464286D01*
X32928571Y-71511905D01*
X33023810Y-71559524D01*
X33261905Y-71559524D01*
X33357143Y-71511905D01*
X33404762Y-71464286D01*
X33452381Y-71369048D01*
X33452381Y-71083333D01*
X33404762Y-70988095D01*
X33357143Y-70940476D01*
X32547619Y-71940476D02*
X32500000Y-71988095D01*
X32452381Y-72083333D01*
X32452381Y-72321429D01*
X32500000Y-72416667D01*
X32547619Y-72464286D01*
X32642857Y-72511905D01*
X32738095Y-72511905D01*
X32880952Y-72464286D01*
X33452381Y-71892857D01*
X33452381Y-72511905D01*
X50837857Y-56609143D02*
X50885476Y-56656762D01*
X51028333Y-56704381D01*
X51123571Y-56704381D01*
X51266429Y-56656762D01*
X51361667Y-56561524D01*
X51409286Y-56466286D01*
X51456905Y-56275810D01*
X51456905Y-56132952D01*
X51409286Y-55942476D01*
X51361667Y-55847238D01*
X51266429Y-55752000D01*
X51123571Y-55704381D01*
X51028333Y-55704381D01*
X50885476Y-55752000D01*
X50837857Y-55799619D01*
X50504524Y-55704381D02*
X49885476Y-55704381D01*
X50218810Y-56085333D01*
X50075952Y-56085333D01*
X49980714Y-56132952D01*
X49933095Y-56180571D01*
X49885476Y-56275810D01*
X49885476Y-56513905D01*
X49933095Y-56609143D01*
X49980714Y-56656762D01*
X50075952Y-56704381D01*
X50361667Y-56704381D01*
X50456905Y-56656762D01*
X50504524Y-56609143D01*
X49552143Y-55704381D02*
X48933095Y-55704381D01*
X49266429Y-56085333D01*
X49123571Y-56085333D01*
X49028333Y-56132952D01*
X48980714Y-56180571D01*
X48933095Y-56275810D01*
X48933095Y-56513905D01*
X48980714Y-56609143D01*
X49028333Y-56656762D01*
X49123571Y-56704381D01*
X49409286Y-56704381D01*
X49504524Y-56656762D01*
X49552143Y-56609143D01*
X34417143Y-62859143D02*
X34464762Y-62811524D01*
X34512381Y-62668667D01*
X34512381Y-62573429D01*
X34464762Y-62430571D01*
X34369524Y-62335333D01*
X34274286Y-62287714D01*
X34083810Y-62240095D01*
X33940952Y-62240095D01*
X33750476Y-62287714D01*
X33655238Y-62335333D01*
X33560000Y-62430571D01*
X33512381Y-62573429D01*
X33512381Y-62668667D01*
X33560000Y-62811524D01*
X33607619Y-62859143D01*
X33512381Y-63192476D02*
X33512381Y-63811524D01*
X33893333Y-63478190D01*
X33893333Y-63621048D01*
X33940952Y-63716286D01*
X33988571Y-63763905D01*
X34083810Y-63811524D01*
X34321905Y-63811524D01*
X34417143Y-63763905D01*
X34464762Y-63716286D01*
X34512381Y-63621048D01*
X34512381Y-63335333D01*
X34464762Y-63240095D01*
X34417143Y-63192476D01*
X33512381Y-64716286D02*
X33512381Y-64240095D01*
X33988571Y-64192476D01*
X33940952Y-64240095D01*
X33893333Y-64335333D01*
X33893333Y-64573429D01*
X33940952Y-64668667D01*
X33988571Y-64716286D01*
X34083810Y-64763905D01*
X34321905Y-64763905D01*
X34417143Y-64716286D01*
X34464762Y-64668667D01*
X34512381Y-64573429D01*
X34512381Y-64335333D01*
X34464762Y-64240095D01*
X34417143Y-64192476D01*
X66966857Y-79665143D02*
X67014476Y-79712762D01*
X67157333Y-79760381D01*
X67252571Y-79760381D01*
X67395429Y-79712762D01*
X67490667Y-79617524D01*
X67538286Y-79522286D01*
X67585905Y-79331810D01*
X67585905Y-79188952D01*
X67538286Y-78998476D01*
X67490667Y-78903238D01*
X67395429Y-78808000D01*
X67252571Y-78760381D01*
X67157333Y-78760381D01*
X67014476Y-78808000D01*
X66966857Y-78855619D01*
X66109714Y-79093714D02*
X66109714Y-79760381D01*
X66347810Y-78712762D02*
X66585905Y-79427048D01*
X65966857Y-79427048D01*
X65681143Y-78760381D02*
X65062095Y-78760381D01*
X65395429Y-79141333D01*
X65252571Y-79141333D01*
X65157333Y-79188952D01*
X65109714Y-79236571D01*
X65062095Y-79331810D01*
X65062095Y-79569905D01*
X65109714Y-79665143D01*
X65157333Y-79712762D01*
X65252571Y-79760381D01*
X65538286Y-79760381D01*
X65633524Y-79712762D01*
X65681143Y-79665143D01*
X10324857Y-55562381D02*
X10658191Y-55086190D01*
X10896286Y-55562381D02*
X10896286Y-54562381D01*
X10515333Y-54562381D01*
X10420095Y-54610000D01*
X10372476Y-54657619D01*
X10324857Y-54752857D01*
X10324857Y-54895714D01*
X10372476Y-54990952D01*
X10420095Y-55038571D01*
X10515333Y-55086190D01*
X10896286Y-55086190D01*
X9372476Y-55562381D02*
X9943905Y-55562381D01*
X9658191Y-55562381D02*
X9658191Y-54562381D01*
X9753429Y-54705238D01*
X9848667Y-54800476D01*
X9943905Y-54848095D01*
X8515333Y-54562381D02*
X8705810Y-54562381D01*
X8801048Y-54610000D01*
X8848667Y-54657619D01*
X8943905Y-54800476D01*
X8991524Y-54990952D01*
X8991524Y-55371905D01*
X8943905Y-55467143D01*
X8896286Y-55514762D01*
X8801048Y-55562381D01*
X8610571Y-55562381D01*
X8515333Y-55514762D01*
X8467714Y-55467143D01*
X8420095Y-55371905D01*
X8420095Y-55133810D01*
X8467714Y-55038571D01*
X8515333Y-54990952D01*
X8610571Y-54943333D01*
X8801048Y-54943333D01*
X8896286Y-54990952D01*
X8943905Y-55038571D01*
X8991524Y-55133810D01*
X34417143Y-67939143D02*
X34464762Y-67891524D01*
X34512381Y-67748667D01*
X34512381Y-67653429D01*
X34464762Y-67510571D01*
X34369524Y-67415333D01*
X34274286Y-67367714D01*
X34083810Y-67320095D01*
X33940952Y-67320095D01*
X33750476Y-67367714D01*
X33655238Y-67415333D01*
X33560000Y-67510571D01*
X33512381Y-67653429D01*
X33512381Y-67748667D01*
X33560000Y-67891524D01*
X33607619Y-67939143D01*
X34512381Y-68891524D02*
X34512381Y-68320095D01*
X34512381Y-68605809D02*
X33512381Y-68605809D01*
X33655238Y-68510571D01*
X33750476Y-68415333D01*
X33798095Y-68320095D01*
X33512381Y-69796286D02*
X33512381Y-69320095D01*
X33988571Y-69272476D01*
X33940952Y-69320095D01*
X33893333Y-69415333D01*
X33893333Y-69653429D01*
X33940952Y-69748667D01*
X33988571Y-69796286D01*
X34083810Y-69843905D01*
X34321905Y-69843905D01*
X34417143Y-69796286D01*
X34464762Y-69748667D01*
X34512381Y-69653429D01*
X34512381Y-69415333D01*
X34464762Y-69320095D01*
X34417143Y-69272476D01*
X49392857Y-66782143D02*
X49440476Y-66829762D01*
X49583333Y-66877381D01*
X49678571Y-66877381D01*
X49821429Y-66829762D01*
X49916667Y-66734524D01*
X49964286Y-66639286D01*
X50011905Y-66448810D01*
X50011905Y-66305952D01*
X49964286Y-66115476D01*
X49916667Y-66020238D01*
X49821429Y-65925000D01*
X49678571Y-65877381D01*
X49583333Y-65877381D01*
X49440476Y-65925000D01*
X49392857Y-65972619D01*
X49059524Y-65877381D02*
X48440476Y-65877381D01*
X48773810Y-66258333D01*
X48630952Y-66258333D01*
X48535714Y-66305952D01*
X48488095Y-66353571D01*
X48440476Y-66448810D01*
X48440476Y-66686905D01*
X48488095Y-66782143D01*
X48535714Y-66829762D01*
X48630952Y-66877381D01*
X48916667Y-66877381D01*
X49011905Y-66829762D01*
X49059524Y-66782143D01*
X47869048Y-66305952D02*
X47964286Y-66258333D01*
X48011905Y-66210714D01*
X48059524Y-66115476D01*
X48059524Y-66067857D01*
X48011905Y-65972619D01*
X47964286Y-65925000D01*
X47869048Y-65877381D01*
X47678571Y-65877381D01*
X47583333Y-65925000D01*
X47535714Y-65972619D01*
X47488095Y-66067857D01*
X47488095Y-66115476D01*
X47535714Y-66210714D01*
X47583333Y-66258333D01*
X47678571Y-66305952D01*
X47869048Y-66305952D01*
X47964286Y-66353571D01*
X48011905Y-66401190D01*
X48059524Y-66496429D01*
X48059524Y-66686905D01*
X48011905Y-66782143D01*
X47964286Y-66829762D01*
X47869048Y-66877381D01*
X47678571Y-66877381D01*
X47583333Y-66829762D01*
X47535714Y-66782143D01*
X47488095Y-66686905D01*
X47488095Y-66496429D01*
X47535714Y-66401190D01*
X47583333Y-66353571D01*
X47678571Y-66305952D01*
X56363333Y-90674381D02*
X56363333Y-91388667D01*
X56410953Y-91531524D01*
X56506191Y-91626762D01*
X56649048Y-91674381D01*
X56744286Y-91674381D01*
X55934762Y-90769619D02*
X55887143Y-90722000D01*
X55791905Y-90674381D01*
X55553809Y-90674381D01*
X55458571Y-90722000D01*
X55410952Y-90769619D01*
X55363333Y-90864857D01*
X55363333Y-90960095D01*
X55410952Y-91102952D01*
X55982381Y-91674381D01*
X55363333Y-91674381D01*
X39345333Y-90674381D02*
X39345333Y-91388667D01*
X39392953Y-91531524D01*
X39488191Y-91626762D01*
X39631048Y-91674381D01*
X39726286Y-91674381D01*
X38964381Y-90674381D02*
X38345333Y-90674381D01*
X38678667Y-91055333D01*
X38535809Y-91055333D01*
X38440571Y-91102952D01*
X38392952Y-91150571D01*
X38345333Y-91245810D01*
X38345333Y-91483905D01*
X38392952Y-91579143D01*
X38440571Y-91626762D01*
X38535809Y-91674381D01*
X38821524Y-91674381D01*
X38916762Y-91626762D01*
X38964381Y-91579143D01*
X19106919Y-73779462D02*
X19059300Y-73684224D01*
X18964062Y-73588986D01*
X18821205Y-73446129D01*
X18773586Y-73350890D01*
X18773586Y-73255652D01*
X19011681Y-73303271D02*
X18964062Y-73208033D01*
X18868824Y-73112795D01*
X18678348Y-73065176D01*
X18345014Y-73065176D01*
X18154538Y-73112795D01*
X18059300Y-73208033D01*
X18011681Y-73303271D01*
X18011681Y-73493748D01*
X18059300Y-73588986D01*
X18154538Y-73684224D01*
X18345014Y-73731843D01*
X18678348Y-73731843D01*
X18868824Y-73684224D01*
X18964062Y-73588986D01*
X19011681Y-73493748D01*
X19011681Y-73303271D01*
X19011681Y-74684224D02*
X19011681Y-74112795D01*
X19011681Y-74398509D02*
X18011681Y-74398509D01*
X18154538Y-74303271D01*
X18249776Y-74208033D01*
X18297395Y-74112795D01*
X73120381Y-61843143D02*
X72644190Y-61509809D01*
X73120381Y-61271714D02*
X72120381Y-61271714D01*
X72120381Y-61652667D01*
X72168000Y-61747905D01*
X72215619Y-61795524D01*
X72310857Y-61843143D01*
X72453714Y-61843143D01*
X72548952Y-61795524D01*
X72596571Y-61747905D01*
X72644190Y-61652667D01*
X72644190Y-61271714D01*
X72215619Y-62224095D02*
X72168000Y-62271714D01*
X72120381Y-62366952D01*
X72120381Y-62605048D01*
X72168000Y-62700286D01*
X72215619Y-62747905D01*
X72310857Y-62795524D01*
X72406095Y-62795524D01*
X72548952Y-62747905D01*
X73120381Y-62176476D01*
X73120381Y-62795524D01*
X72120381Y-63128857D02*
X72120381Y-63747905D01*
X72501333Y-63414571D01*
X72501333Y-63557429D01*
X72548952Y-63652667D01*
X72596571Y-63700286D01*
X72691810Y-63747905D01*
X72929905Y-63747905D01*
X73025143Y-63700286D01*
X73072762Y-63652667D01*
X73120381Y-63557429D01*
X73120381Y-63271714D01*
X73072762Y-63176476D01*
X73025143Y-63128857D01*
X73120381Y-67177143D02*
X72644190Y-66843809D01*
X73120381Y-66605714D02*
X72120381Y-66605714D01*
X72120381Y-66986667D01*
X72168000Y-67081905D01*
X72215619Y-67129524D01*
X72310857Y-67177143D01*
X72453714Y-67177143D01*
X72548952Y-67129524D01*
X72596571Y-67081905D01*
X72644190Y-66986667D01*
X72644190Y-66605714D01*
X72215619Y-67558095D02*
X72168000Y-67605714D01*
X72120381Y-67700952D01*
X72120381Y-67939048D01*
X72168000Y-68034286D01*
X72215619Y-68081905D01*
X72310857Y-68129524D01*
X72406095Y-68129524D01*
X72548952Y-68081905D01*
X73120381Y-67510476D01*
X73120381Y-68129524D01*
X72453714Y-68986667D02*
X73120381Y-68986667D01*
X72072762Y-68748571D02*
X72787048Y-68510476D01*
X72787048Y-69129524D01*
X73374381Y-72257143D02*
X72898190Y-71923809D01*
X73374381Y-71685714D02*
X72374381Y-71685714D01*
X72374381Y-72066667D01*
X72422000Y-72161905D01*
X72469619Y-72209524D01*
X72564857Y-72257143D01*
X72707714Y-72257143D01*
X72802952Y-72209524D01*
X72850571Y-72161905D01*
X72898190Y-72066667D01*
X72898190Y-71685714D01*
X72469619Y-72638095D02*
X72422000Y-72685714D01*
X72374381Y-72780952D01*
X72374381Y-73019048D01*
X72422000Y-73114286D01*
X72469619Y-73161905D01*
X72564857Y-73209524D01*
X72660095Y-73209524D01*
X72802952Y-73161905D01*
X73374381Y-72590476D01*
X73374381Y-73209524D01*
X72374381Y-74114286D02*
X72374381Y-73638095D01*
X72850571Y-73590476D01*
X72802952Y-73638095D01*
X72755333Y-73733333D01*
X72755333Y-73971429D01*
X72802952Y-74066667D01*
X72850571Y-74114286D01*
X72945810Y-74161905D01*
X73183905Y-74161905D01*
X73279143Y-74114286D01*
X73326762Y-74066667D01*
X73374381Y-73971429D01*
X73374381Y-73733333D01*
X73326762Y-73638095D01*
X73279143Y-73590476D01*
X27400381Y-72257143D02*
X26924190Y-71923809D01*
X27400381Y-71685714D02*
X26400381Y-71685714D01*
X26400381Y-72066667D01*
X26448000Y-72161905D01*
X26495619Y-72209524D01*
X26590857Y-72257143D01*
X26733714Y-72257143D01*
X26828952Y-72209524D01*
X26876571Y-72161905D01*
X26924190Y-72066667D01*
X26924190Y-71685714D01*
X26495619Y-72638095D02*
X26448000Y-72685714D01*
X26400381Y-72780952D01*
X26400381Y-73019048D01*
X26448000Y-73114286D01*
X26495619Y-73161905D01*
X26590857Y-73209524D01*
X26686095Y-73209524D01*
X26828952Y-73161905D01*
X27400381Y-72590476D01*
X27400381Y-73209524D01*
X27400381Y-73685714D02*
X27400381Y-73876190D01*
X27352762Y-73971429D01*
X27305143Y-74019048D01*
X27162286Y-74114286D01*
X26971810Y-74161905D01*
X26590857Y-74161905D01*
X26495619Y-74114286D01*
X26448000Y-74066667D01*
X26400381Y-73971429D01*
X26400381Y-73780952D01*
X26448000Y-73685714D01*
X26495619Y-73638095D01*
X26590857Y-73590476D01*
X26828952Y-73590476D01*
X26924190Y-73638095D01*
X26971810Y-73685714D01*
X27019429Y-73780952D01*
X27019429Y-73971429D01*
X26971810Y-74066667D01*
X26924190Y-74114286D01*
X26828952Y-74161905D01*
X31630857Y-50109381D02*
X31964191Y-49633190D01*
X32202286Y-50109381D02*
X32202286Y-49109381D01*
X31821333Y-49109381D01*
X31726095Y-49157000D01*
X31678476Y-49204619D01*
X31630857Y-49299857D01*
X31630857Y-49442714D01*
X31678476Y-49537952D01*
X31726095Y-49585571D01*
X31821333Y-49633190D01*
X32202286Y-49633190D01*
X31297524Y-49109381D02*
X30678476Y-49109381D01*
X31011810Y-49490333D01*
X30868952Y-49490333D01*
X30773714Y-49537952D01*
X30726095Y-49585571D01*
X30678476Y-49680810D01*
X30678476Y-49918905D01*
X30726095Y-50014143D01*
X30773714Y-50061762D01*
X30868952Y-50109381D01*
X31154667Y-50109381D01*
X31249905Y-50061762D01*
X31297524Y-50014143D01*
X29726095Y-50109381D02*
X30297524Y-50109381D01*
X30011810Y-50109381D02*
X30011810Y-49109381D01*
X30107048Y-49252238D01*
X30202286Y-49347476D01*
X30297524Y-49395095D01*
X22764857Y-73098381D02*
X23098191Y-72622190D01*
X23336286Y-73098381D02*
X23336286Y-72098381D01*
X22955333Y-72098381D01*
X22860095Y-72146000D01*
X22812476Y-72193619D01*
X22764857Y-72288857D01*
X22764857Y-72431714D01*
X22812476Y-72526952D01*
X22860095Y-72574571D01*
X22955333Y-72622190D01*
X23336286Y-72622190D01*
X22431524Y-72098381D02*
X21812476Y-72098381D01*
X22145810Y-72479333D01*
X22002952Y-72479333D01*
X21907714Y-72526952D01*
X21860095Y-72574571D01*
X21812476Y-72669810D01*
X21812476Y-72907905D01*
X21860095Y-73003143D01*
X21907714Y-73050762D01*
X22002952Y-73098381D01*
X22288667Y-73098381D01*
X22383905Y-73050762D01*
X22431524Y-73003143D01*
X21479143Y-72098381D02*
X20812476Y-72098381D01*
X21241048Y-73098381D01*
X39265905Y-73920381D02*
X39265905Y-74729905D01*
X39218286Y-74825143D01*
X39170667Y-74872762D01*
X39075429Y-74920381D01*
X38884952Y-74920381D01*
X38789714Y-74872762D01*
X38742095Y-74825143D01*
X38694476Y-74729905D01*
X38694476Y-73920381D01*
X37742095Y-73920381D02*
X38218286Y-73920381D01*
X38265905Y-74396571D01*
X38218286Y-74348952D01*
X38123048Y-74301333D01*
X37884952Y-74301333D01*
X37789714Y-74348952D01*
X37742095Y-74396571D01*
X37694476Y-74491810D01*
X37694476Y-74729905D01*
X37742095Y-74825143D01*
X37789714Y-74872762D01*
X37884952Y-74920381D01*
X38123048Y-74920381D01*
X38218286Y-74872762D01*
X38265905Y-74825143D01*
X44761905Y-16452381D02*
X44761905Y-17261905D01*
X44714286Y-17357143D01*
X44666667Y-17404762D01*
X44571429Y-17452381D01*
X44380952Y-17452381D01*
X44285714Y-17404762D01*
X44238095Y-17357143D01*
X44190476Y-17261905D01*
X44190476Y-16452381D01*
X43285714Y-16452381D02*
X43476191Y-16452381D01*
X43571429Y-16500000D01*
X43619048Y-16547619D01*
X43714286Y-16690476D01*
X43761905Y-16880952D01*
X43761905Y-17261905D01*
X43714286Y-17357143D01*
X43666667Y-17404762D01*
X43571429Y-17452381D01*
X43380952Y-17452381D01*
X43285714Y-17404762D01*
X43238095Y-17357143D01*
X43190476Y-17261905D01*
X43190476Y-17023810D01*
X43238095Y-16928571D01*
X43285714Y-16880952D01*
X43380952Y-16833333D01*
X43571429Y-16833333D01*
X43666667Y-16880952D01*
X43714286Y-16928571D01*
X43761905Y-17023810D01*
X44761905Y-9202381D02*
X44761905Y-10011905D01*
X44714286Y-10107143D01*
X44666667Y-10154762D01*
X44571429Y-10202381D01*
X44380952Y-10202381D01*
X44285714Y-10154762D01*
X44238095Y-10107143D01*
X44190476Y-10011905D01*
X44190476Y-9202381D01*
X43809524Y-9202381D02*
X43142857Y-9202381D01*
X43571429Y-10202381D01*
X21702395Y-60995381D02*
X21702395Y-61804905D01*
X21654776Y-61900143D01*
X21607157Y-61947762D01*
X21511919Y-61995381D01*
X21321442Y-61995381D01*
X21226204Y-61947762D01*
X21178585Y-61900143D01*
X21130966Y-61804905D01*
X21130966Y-60995381D01*
X20130966Y-61995381D02*
X20702395Y-61995381D01*
X20416681Y-61995381D02*
X20416681Y-60995381D01*
X20511919Y-61138238D01*
X20607157Y-61233476D01*
X20702395Y-61281095D01*
X19797633Y-60995381D02*
X19178585Y-60995381D01*
X19511919Y-61376333D01*
X19369061Y-61376333D01*
X19273823Y-61423952D01*
X19226204Y-61471571D01*
X19178585Y-61566810D01*
X19178585Y-61804905D01*
X19226204Y-61900143D01*
X19273823Y-61947762D01*
X19369061Y-61995381D01*
X19654776Y-61995381D01*
X19750014Y-61947762D01*
X19797633Y-61900143D01*
X67988095Y-58952381D02*
X67988095Y-57952381D01*
X67607142Y-57952381D01*
X67511904Y-58000000D01*
X67464285Y-58047619D01*
X67416666Y-58142857D01*
X67416666Y-58285714D01*
X67464285Y-58380952D01*
X67511904Y-58428571D01*
X67607142Y-58476190D01*
X67988095Y-58476190D01*
X67083333Y-57952381D02*
X66416666Y-57952381D01*
X66845238Y-58952381D01*
X41142857Y-68857143D02*
X41190476Y-68904762D01*
X41333333Y-68952381D01*
X41428571Y-68952381D01*
X41571429Y-68904762D01*
X41666667Y-68809524D01*
X41714286Y-68714286D01*
X41761905Y-68523810D01*
X41761905Y-68380952D01*
X41714286Y-68190476D01*
X41666667Y-68095238D01*
X41571429Y-68000000D01*
X41428571Y-67952381D01*
X41333333Y-67952381D01*
X41190476Y-68000000D01*
X41142857Y-68047619D01*
X40190476Y-68952381D02*
X40761905Y-68952381D01*
X40476191Y-68952381D02*
X40476191Y-67952381D01*
X40571429Y-68095238D01*
X40666667Y-68190476D01*
X40761905Y-68238095D01*
X39809524Y-68047619D02*
X39761905Y-68000000D01*
X39666667Y-67952381D01*
X39428571Y-67952381D01*
X39333333Y-68000000D01*
X39285714Y-68047619D01*
X39238095Y-68142857D01*
X39238095Y-68238095D01*
X39285714Y-68380952D01*
X39857143Y-68952381D01*
X39238095Y-68952381D01*
X34063381Y-45587143D02*
X33587190Y-45253809D01*
X34063381Y-45015714D02*
X33063381Y-45015714D01*
X33063381Y-45396667D01*
X33111000Y-45491905D01*
X33158619Y-45539524D01*
X33253857Y-45587143D01*
X33396714Y-45587143D01*
X33491952Y-45539524D01*
X33539571Y-45491905D01*
X33587190Y-45396667D01*
X33587190Y-45015714D01*
X33063381Y-45920476D02*
X33063381Y-46539524D01*
X33444333Y-46206190D01*
X33444333Y-46349048D01*
X33491952Y-46444286D01*
X33539571Y-46491905D01*
X33634810Y-46539524D01*
X33872905Y-46539524D01*
X33968143Y-46491905D01*
X34015762Y-46444286D01*
X34063381Y-46349048D01*
X34063381Y-46063333D01*
X34015762Y-45968095D01*
X33968143Y-45920476D01*
X33063381Y-46872857D02*
X33063381Y-47491905D01*
X33444333Y-47158571D01*
X33444333Y-47301429D01*
X33491952Y-47396667D01*
X33539571Y-47444286D01*
X33634810Y-47491905D01*
X33872905Y-47491905D01*
X33968143Y-47444286D01*
X34015762Y-47396667D01*
X34063381Y-47301429D01*
X34063381Y-47015714D01*
X34015762Y-46920476D01*
X33968143Y-46872857D01*
X41311381Y-45587143D02*
X40835190Y-45253809D01*
X41311381Y-45015714D02*
X40311381Y-45015714D01*
X40311381Y-45396667D01*
X40359000Y-45491905D01*
X40406619Y-45539524D01*
X40501857Y-45587143D01*
X40644714Y-45587143D01*
X40739952Y-45539524D01*
X40787571Y-45491905D01*
X40835190Y-45396667D01*
X40835190Y-45015714D01*
X40311381Y-45920476D02*
X40311381Y-46539524D01*
X40692333Y-46206190D01*
X40692333Y-46349048D01*
X40739952Y-46444286D01*
X40787571Y-46491905D01*
X40882810Y-46539524D01*
X41120905Y-46539524D01*
X41216143Y-46491905D01*
X41263762Y-46444286D01*
X41311381Y-46349048D01*
X41311381Y-46063333D01*
X41263762Y-45968095D01*
X41216143Y-45920476D01*
X40644714Y-47396667D02*
X41311381Y-47396667D01*
X40263762Y-47158571D02*
X40978048Y-46920476D01*
X40978048Y-47539524D01*
X1578571Y-25761905D02*
X1626190Y-25904762D01*
X1673810Y-25952381D01*
X1769048Y-26000000D01*
X1911905Y-26000000D01*
X2007143Y-25952381D01*
X2054762Y-25904762D01*
X2102381Y-25809524D01*
X2102381Y-25428571D01*
X1102381Y-25428571D01*
X1102381Y-25761905D01*
X1150000Y-25857143D01*
X1197619Y-25904762D01*
X1292857Y-25952381D01*
X1388095Y-25952381D01*
X1483333Y-25904762D01*
X1530952Y-25857143D01*
X1578571Y-25761905D01*
X1578571Y-25428571D01*
X1816667Y-26380952D02*
X1816667Y-26857143D01*
X2102381Y-26285714D02*
X1102381Y-26619047D01*
X2102381Y-26952381D01*
X1102381Y-27142857D02*
X1102381Y-27714286D01*
X2102381Y-27428571D02*
X1102381Y-27428571D01*
X1102381Y-27904762D02*
X1102381Y-28476191D01*
X2102381Y-28190476D02*
X1102381Y-28190476D01*
X1721429Y-28809524D02*
X1721429Y-29571429D01*
X2102381Y-29190477D02*
X1340476Y-29190477D01*
X1578571Y-41261905D02*
X1626190Y-41404762D01*
X1673810Y-41452381D01*
X1769048Y-41500000D01*
X1911905Y-41500000D01*
X2007143Y-41452381D01*
X2054762Y-41404762D01*
X2102381Y-41309524D01*
X2102381Y-40928571D01*
X1102381Y-40928571D01*
X1102381Y-41261905D01*
X1150000Y-41357143D01*
X1197619Y-41404762D01*
X1292857Y-41452381D01*
X1388095Y-41452381D01*
X1483333Y-41404762D01*
X1530952Y-41357143D01*
X1578571Y-41261905D01*
X1578571Y-40928571D01*
X1816667Y-41880952D02*
X1816667Y-42357143D01*
X2102381Y-41785714D02*
X1102381Y-42119047D01*
X2102381Y-42452381D01*
X1102381Y-42642857D02*
X1102381Y-43214286D01*
X2102381Y-42928571D02*
X1102381Y-42928571D01*
X1102381Y-43404762D02*
X1102381Y-43976191D01*
X2102381Y-43690476D02*
X1102381Y-43690476D01*
X1721429Y-44309524D02*
X1721429Y-45071429D01*
X1578571Y-14952382D02*
X1626190Y-15095239D01*
X1673810Y-15142858D01*
X1769048Y-15190477D01*
X1911905Y-15190477D01*
X2007143Y-15142858D01*
X2054762Y-15095239D01*
X2102381Y-15000001D01*
X2102381Y-14619048D01*
X1102381Y-14619048D01*
X1102381Y-14952382D01*
X1150000Y-15047620D01*
X1197619Y-15095239D01*
X1292857Y-15142858D01*
X1388095Y-15142858D01*
X1483333Y-15095239D01*
X1530952Y-15047620D01*
X1578571Y-14952382D01*
X1578571Y-14619048D01*
X1102381Y-15476191D02*
X1102381Y-16047620D01*
X2102381Y-15761905D02*
X1102381Y-15761905D01*
X2054762Y-16333334D02*
X2102381Y-16476191D01*
X2102381Y-16714287D01*
X2054762Y-16809525D01*
X2007143Y-16857144D01*
X1911905Y-16904763D01*
X1816667Y-16904763D01*
X1721429Y-16857144D01*
X1673810Y-16809525D01*
X1626190Y-16714287D01*
X1578571Y-16523810D01*
X1530952Y-16428572D01*
X1483333Y-16380953D01*
X1388095Y-16333334D01*
X1292857Y-16333334D01*
X1197619Y-16380953D01*
X1150000Y-16428572D01*
X1102381Y-16523810D01*
X1102381Y-16761906D01*
X1150000Y-16904763D01*
X2102381Y-17333334D02*
X1102381Y-17333334D01*
X2102381Y-17809524D02*
X1102381Y-17809524D01*
X2102381Y-18380953D01*
X1102381Y-18380953D01*
X73802381Y-15214286D02*
X72802381Y-15214286D01*
X73802381Y-15785715D02*
X73230952Y-15357143D01*
X72802381Y-15785715D02*
X73373810Y-15214286D01*
X73278571Y-16547620D02*
X73278571Y-16214286D01*
X73802381Y-16214286D02*
X72802381Y-16214286D01*
X72802381Y-16690477D01*
X72802381Y-16976191D02*
X72802381Y-17642858D01*
X73802381Y-16976191D01*
X73802381Y-17642858D01*
X73421429Y-18023810D02*
X73421429Y-18785715D01*
X73802381Y-18404763D02*
X73040476Y-18404763D01*
X73802381Y-41214286D02*
X72802381Y-41214286D01*
X73802381Y-41785715D02*
X73230952Y-41357143D01*
X72802381Y-41785715D02*
X73373810Y-41214286D01*
X73278571Y-42547620D02*
X73278571Y-42214286D01*
X73802381Y-42214286D02*
X72802381Y-42214286D01*
X72802381Y-42690477D01*
X72802381Y-42976191D02*
X72802381Y-43642858D01*
X73802381Y-42976191D01*
X73802381Y-43642858D01*
X73421429Y-44023810D02*
X73421429Y-44785715D01*
X33968143Y-50032143D02*
X34015762Y-49984524D01*
X34063381Y-49841667D01*
X34063381Y-49746429D01*
X34015762Y-49603571D01*
X33920524Y-49508333D01*
X33825286Y-49460714D01*
X33634810Y-49413095D01*
X33491952Y-49413095D01*
X33301476Y-49460714D01*
X33206238Y-49508333D01*
X33111000Y-49603571D01*
X33063381Y-49746429D01*
X33063381Y-49841667D01*
X33111000Y-49984524D01*
X33158619Y-50032143D01*
X33158619Y-50413095D02*
X33111000Y-50460714D01*
X33063381Y-50555952D01*
X33063381Y-50794048D01*
X33111000Y-50889286D01*
X33158619Y-50936905D01*
X33253857Y-50984524D01*
X33349095Y-50984524D01*
X33491952Y-50936905D01*
X34063381Y-50365476D01*
X34063381Y-50984524D01*
X33491952Y-51555952D02*
X33444333Y-51460714D01*
X33396714Y-51413095D01*
X33301476Y-51365476D01*
X33253857Y-51365476D01*
X33158619Y-51413095D01*
X33111000Y-51460714D01*
X33063381Y-51555952D01*
X33063381Y-51746429D01*
X33111000Y-51841667D01*
X33158619Y-51889286D01*
X33253857Y-51936905D01*
X33301476Y-51936905D01*
X33396714Y-51889286D01*
X33444333Y-51841667D01*
X33491952Y-51746429D01*
X33491952Y-51555952D01*
X33539571Y-51460714D01*
X33587190Y-51413095D01*
X33682429Y-51365476D01*
X33872905Y-51365476D01*
X33968143Y-51413095D01*
X34015762Y-51460714D01*
X34063381Y-51555952D01*
X34063381Y-51746429D01*
X34015762Y-51841667D01*
X33968143Y-51889286D01*
X33872905Y-51936905D01*
X33682429Y-51936905D01*
X33587190Y-51889286D01*
X33539571Y-51841667D01*
X33491952Y-51746429D01*
X41216143Y-50032143D02*
X41263762Y-49984524D01*
X41311381Y-49841667D01*
X41311381Y-49746429D01*
X41263762Y-49603571D01*
X41168524Y-49508333D01*
X41073286Y-49460714D01*
X40882810Y-49413095D01*
X40739952Y-49413095D01*
X40549476Y-49460714D01*
X40454238Y-49508333D01*
X40359000Y-49603571D01*
X40311381Y-49746429D01*
X40311381Y-49841667D01*
X40359000Y-49984524D01*
X40406619Y-50032143D01*
X40406619Y-50413095D02*
X40359000Y-50460714D01*
X40311381Y-50555952D01*
X40311381Y-50794048D01*
X40359000Y-50889286D01*
X40406619Y-50936905D01*
X40501857Y-50984524D01*
X40597095Y-50984524D01*
X40739952Y-50936905D01*
X41311381Y-50365476D01*
X41311381Y-50984524D01*
X41311381Y-51460714D02*
X41311381Y-51651190D01*
X41263762Y-51746429D01*
X41216143Y-51794048D01*
X41073286Y-51889286D01*
X40882810Y-51936905D01*
X40501857Y-51936905D01*
X40406619Y-51889286D01*
X40359000Y-51841667D01*
X40311381Y-51746429D01*
X40311381Y-51555952D01*
X40359000Y-51460714D01*
X40406619Y-51413095D01*
X40501857Y-51365476D01*
X40739952Y-51365476D01*
X40835190Y-51413095D01*
X40882810Y-51460714D01*
X40930429Y-51555952D01*
X40930429Y-51746429D01*
X40882810Y-51841667D01*
X40835190Y-51889286D01*
X40739952Y-51936905D01*
X10642857Y-62452381D02*
X10976191Y-61976190D01*
X11214286Y-62452381D02*
X11214286Y-61452381D01*
X10833333Y-61452381D01*
X10738095Y-61500000D01*
X10690476Y-61547619D01*
X10642857Y-61642857D01*
X10642857Y-61785714D01*
X10690476Y-61880952D01*
X10738095Y-61928571D01*
X10833333Y-61976190D01*
X11214286Y-61976190D01*
X10309524Y-61452381D02*
X9690476Y-61452381D01*
X10023810Y-61833333D01*
X9880952Y-61833333D01*
X9785714Y-61880952D01*
X9738095Y-61928571D01*
X9690476Y-62023810D01*
X9690476Y-62261905D01*
X9738095Y-62357143D01*
X9785714Y-62404762D01*
X9880952Y-62452381D01*
X10166667Y-62452381D01*
X10261905Y-62404762D01*
X10309524Y-62357143D01*
X8833333Y-61452381D02*
X9023810Y-61452381D01*
X9119048Y-61500000D01*
X9166667Y-61547619D01*
X9261905Y-61690476D01*
X9309524Y-61880952D01*
X9309524Y-62261905D01*
X9261905Y-62357143D01*
X9214286Y-62404762D01*
X9119048Y-62452381D01*
X8928571Y-62452381D01*
X8833333Y-62404762D01*
X8785714Y-62357143D01*
X8738095Y-62261905D01*
X8738095Y-62023810D01*
X8785714Y-61928571D01*
X8833333Y-61880952D01*
X8928571Y-61833333D01*
X9119048Y-61833333D01*
X9214286Y-61880952D01*
X9261905Y-61928571D01*
X9309524Y-62023810D01*
X8610381Y-73631905D02*
X7610381Y-73631905D01*
X7610381Y-74012858D01*
X7658000Y-74108096D01*
X7705619Y-74155715D01*
X7800857Y-74203334D01*
X7943714Y-74203334D01*
X8038952Y-74155715D01*
X8086571Y-74108096D01*
X8134190Y-74012858D01*
X8134190Y-73631905D01*
X7610381Y-74536667D02*
X7610381Y-75155715D01*
X7991333Y-74822381D01*
X7991333Y-74965239D01*
X8038952Y-75060477D01*
X8086571Y-75108096D01*
X8181810Y-75155715D01*
X8419905Y-75155715D01*
X8515143Y-75108096D01*
X8562762Y-75060477D01*
X8610381Y-74965239D01*
X8610381Y-74679524D01*
X8562762Y-74584286D01*
X8515143Y-74536667D01*
X8343681Y-65637314D02*
X7343681Y-65637314D01*
X7343681Y-66018267D01*
X7391300Y-66113505D01*
X7438919Y-66161124D01*
X7534157Y-66208743D01*
X7677014Y-66208743D01*
X7772252Y-66161124D01*
X7819871Y-66113505D01*
X7867490Y-66018267D01*
X7867490Y-65637314D01*
X8343681Y-67161124D02*
X8343681Y-66589695D01*
X8343681Y-66875409D02*
X7343681Y-66875409D01*
X7486538Y-66780171D01*
X7581776Y-66684933D01*
X7629395Y-66589695D01*
X7438919Y-67542076D02*
X7391300Y-67589695D01*
X7343681Y-67684933D01*
X7343681Y-67923029D01*
X7391300Y-68018267D01*
X7438919Y-68065886D01*
X7534157Y-68113505D01*
X7629395Y-68113505D01*
X7772252Y-68065886D01*
X8343681Y-67494457D01*
X8343681Y-68113505D01*
X8889781Y-80445514D02*
X7889781Y-80445514D01*
X7889781Y-80826467D01*
X7937400Y-80921705D01*
X7985019Y-80969324D01*
X8080257Y-81016943D01*
X8223114Y-81016943D01*
X8318352Y-80969324D01*
X8365971Y-80921705D01*
X8413590Y-80826467D01*
X8413590Y-80445514D01*
X8889781Y-81969324D02*
X8889781Y-81397895D01*
X8889781Y-81683609D02*
X7889781Y-81683609D01*
X8032638Y-81588371D01*
X8127876Y-81493133D01*
X8175495Y-81397895D01*
X7889781Y-82826467D02*
X7889781Y-82635990D01*
X7937400Y-82540752D01*
X7985019Y-82493133D01*
X8127876Y-82397895D01*
X8318352Y-82350276D01*
X8699305Y-82350276D01*
X8794543Y-82397895D01*
X8842162Y-82445514D01*
X8889781Y-82540752D01*
X8889781Y-82731229D01*
X8842162Y-82826467D01*
X8794543Y-82874086D01*
X8699305Y-82921705D01*
X8461210Y-82921705D01*
X8365971Y-82874086D01*
X8318352Y-82826467D01*
X8270733Y-82731229D01*
X8270733Y-82540752D01*
X8318352Y-82445514D01*
X8365971Y-82397895D01*
X8461210Y-82350276D01*
X4042857Y-54852381D02*
X4376191Y-54376190D01*
X4614286Y-54852381D02*
X4614286Y-53852381D01*
X4233333Y-53852381D01*
X4138095Y-53900000D01*
X4090476Y-53947619D01*
X4042857Y-54042857D01*
X4042857Y-54185714D01*
X4090476Y-54280952D01*
X4138095Y-54328571D01*
X4233333Y-54376190D01*
X4614286Y-54376190D01*
X3661905Y-53947619D02*
X3614286Y-53900000D01*
X3519048Y-53852381D01*
X3280952Y-53852381D01*
X3185714Y-53900000D01*
X3138095Y-53947619D01*
X3090476Y-54042857D01*
X3090476Y-54138095D01*
X3138095Y-54280952D01*
X3709524Y-54852381D01*
X3090476Y-54852381D01*
X2138095Y-54852381D02*
X2709524Y-54852381D01*
X2423810Y-54852381D02*
X2423810Y-53852381D01*
X2519048Y-53995238D01*
X2614286Y-54090476D01*
X2709524Y-54138095D01*
X4042857Y-52052381D02*
X4376191Y-51576190D01*
X4614286Y-52052381D02*
X4614286Y-51052381D01*
X4233333Y-51052381D01*
X4138095Y-51100000D01*
X4090476Y-51147619D01*
X4042857Y-51242857D01*
X4042857Y-51385714D01*
X4090476Y-51480952D01*
X4138095Y-51528571D01*
X4233333Y-51576190D01*
X4614286Y-51576190D01*
X3709524Y-51052381D02*
X3090476Y-51052381D01*
X3423810Y-51433333D01*
X3280952Y-51433333D01*
X3185714Y-51480952D01*
X3138095Y-51528571D01*
X3090476Y-51623810D01*
X3090476Y-51861905D01*
X3138095Y-51957143D01*
X3185714Y-52004762D01*
X3280952Y-52052381D01*
X3566667Y-52052381D01*
X3661905Y-52004762D01*
X3709524Y-51957143D01*
X2519048Y-51480952D02*
X2614286Y-51433333D01*
X2661905Y-51385714D01*
X2709524Y-51290476D01*
X2709524Y-51242857D01*
X2661905Y-51147619D01*
X2614286Y-51100000D01*
X2519048Y-51052381D01*
X2328571Y-51052381D01*
X2233333Y-51100000D01*
X2185714Y-51147619D01*
X2138095Y-51242857D01*
X2138095Y-51290476D01*
X2185714Y-51385714D01*
X2233333Y-51433333D01*
X2328571Y-51480952D01*
X2519048Y-51480952D01*
X2614286Y-51528571D01*
X2661905Y-51576190D01*
X2709524Y-51671429D01*
X2709524Y-51861905D01*
X2661905Y-51957143D01*
X2614286Y-52004762D01*
X2519048Y-52052381D01*
X2328571Y-52052381D01*
X2233333Y-52004762D01*
X2185714Y-51957143D01*
X2138095Y-51861905D01*
X2138095Y-51671429D01*
X2185714Y-51576190D01*
X2233333Y-51528571D01*
X2328571Y-51480952D01*
X4042857Y-53452381D02*
X4376191Y-52976190D01*
X4614286Y-53452381D02*
X4614286Y-52452381D01*
X4233333Y-52452381D01*
X4138095Y-52500000D01*
X4090476Y-52547619D01*
X4042857Y-52642857D01*
X4042857Y-52785714D01*
X4090476Y-52880952D01*
X4138095Y-52928571D01*
X4233333Y-52976190D01*
X4614286Y-52976190D01*
X3709524Y-52452381D02*
X3090476Y-52452381D01*
X3423810Y-52833333D01*
X3280952Y-52833333D01*
X3185714Y-52880952D01*
X3138095Y-52928571D01*
X3090476Y-53023810D01*
X3090476Y-53261905D01*
X3138095Y-53357143D01*
X3185714Y-53404762D01*
X3280952Y-53452381D01*
X3566667Y-53452381D01*
X3661905Y-53404762D01*
X3709524Y-53357143D01*
X2614286Y-53452381D02*
X2423810Y-53452381D01*
X2328571Y-53404762D01*
X2280952Y-53357143D01*
X2185714Y-53214286D01*
X2138095Y-53023810D01*
X2138095Y-52642857D01*
X2185714Y-52547619D01*
X2233333Y-52500000D01*
X2328571Y-52452381D01*
X2519048Y-52452381D01*
X2614286Y-52500000D01*
X2661905Y-52547619D01*
X2709524Y-52642857D01*
X2709524Y-52880952D01*
X2661905Y-52976190D01*
X2614286Y-53023810D01*
X2519048Y-53071429D01*
X2328571Y-53071429D01*
X2233333Y-53023810D01*
X2185714Y-52976190D01*
X2138095Y-52880952D01*
X4042857Y-56252381D02*
X4376191Y-55776190D01*
X4614286Y-56252381D02*
X4614286Y-55252381D01*
X4233333Y-55252381D01*
X4138095Y-55300000D01*
X4090476Y-55347619D01*
X4042857Y-55442857D01*
X4042857Y-55585714D01*
X4090476Y-55680952D01*
X4138095Y-55728571D01*
X4233333Y-55776190D01*
X4614286Y-55776190D01*
X3185714Y-55585714D02*
X3185714Y-56252381D01*
X3423810Y-55204762D02*
X3661905Y-55919048D01*
X3042857Y-55919048D01*
X2471429Y-55252381D02*
X2376190Y-55252381D01*
X2280952Y-55300000D01*
X2233333Y-55347619D01*
X2185714Y-55442857D01*
X2138095Y-55633333D01*
X2138095Y-55871429D01*
X2185714Y-56061905D01*
X2233333Y-56157143D01*
X2280952Y-56204762D01*
X2376190Y-56252381D01*
X2471429Y-56252381D01*
X2566667Y-56204762D01*
X2614286Y-56157143D01*
X2661905Y-56061905D01*
X2709524Y-55871429D01*
X2709524Y-55633333D01*
X2661905Y-55442857D01*
X2614286Y-55347619D01*
X2566667Y-55300000D01*
X2471429Y-55252381D01*
X24288857Y-71479143D02*
X24336476Y-71526762D01*
X24479333Y-71574381D01*
X24574571Y-71574381D01*
X24717429Y-71526762D01*
X24812667Y-71431524D01*
X24860286Y-71336286D01*
X24907905Y-71145810D01*
X24907905Y-71002952D01*
X24860286Y-70812476D01*
X24812667Y-70717238D01*
X24717429Y-70622000D01*
X24574571Y-70574381D01*
X24479333Y-70574381D01*
X24336476Y-70622000D01*
X24288857Y-70669619D01*
X23431714Y-70907714D02*
X23431714Y-71574381D01*
X23669810Y-70526762D02*
X23907905Y-71241048D01*
X23288857Y-71241048D01*
X22765048Y-71002952D02*
X22860286Y-70955333D01*
X22907905Y-70907714D01*
X22955524Y-70812476D01*
X22955524Y-70764857D01*
X22907905Y-70669619D01*
X22860286Y-70622000D01*
X22765048Y-70574381D01*
X22574571Y-70574381D01*
X22479333Y-70622000D01*
X22431714Y-70669619D01*
X22384095Y-70764857D01*
X22384095Y-70812476D01*
X22431714Y-70907714D01*
X22479333Y-70955333D01*
X22574571Y-71002952D01*
X22765048Y-71002952D01*
X22860286Y-71050571D01*
X22907905Y-71098190D01*
X22955524Y-71193429D01*
X22955524Y-71383905D01*
X22907905Y-71479143D01*
X22860286Y-71526762D01*
X22765048Y-71574381D01*
X22574571Y-71574381D01*
X22479333Y-71526762D01*
X22431714Y-71479143D01*
X22384095Y-71383905D01*
X22384095Y-71193429D01*
X22431714Y-71098190D01*
X22479333Y-71050571D01*
X22574571Y-71002952D01*
X43691381Y-44442143D02*
X43215190Y-44108809D01*
X43691381Y-43870714D02*
X42691381Y-43870714D01*
X42691381Y-44251667D01*
X42739000Y-44346905D01*
X42786619Y-44394524D01*
X42881857Y-44442143D01*
X43024714Y-44442143D01*
X43119952Y-44394524D01*
X43167571Y-44346905D01*
X43215190Y-44251667D01*
X43215190Y-43870714D01*
X43024714Y-45299286D02*
X43691381Y-45299286D01*
X42643762Y-45061190D02*
X43358048Y-44823095D01*
X43358048Y-45442143D01*
X43691381Y-46346905D02*
X43691381Y-45775476D01*
X43691381Y-46061190D02*
X42691381Y-46061190D01*
X42834238Y-45965952D01*
X42929476Y-45870714D01*
X42977095Y-45775476D01*
X43910381Y-49397143D02*
X43434190Y-49063809D01*
X43910381Y-48825714D02*
X42910381Y-48825714D01*
X42910381Y-49206667D01*
X42958000Y-49301905D01*
X43005619Y-49349524D01*
X43100857Y-49397143D01*
X43243714Y-49397143D01*
X43338952Y-49349524D01*
X43386571Y-49301905D01*
X43434190Y-49206667D01*
X43434190Y-48825714D01*
X43243714Y-50254286D02*
X43910381Y-50254286D01*
X42862762Y-50016190D02*
X43577048Y-49778095D01*
X43577048Y-50397143D01*
X42910381Y-50682857D02*
X42910381Y-51349524D01*
X43910381Y-50920952D01*
X33542857Y-56752381D02*
X33876191Y-56276190D01*
X34114286Y-56752381D02*
X34114286Y-55752381D01*
X33733333Y-55752381D01*
X33638095Y-55800000D01*
X33590476Y-55847619D01*
X33542857Y-55942857D01*
X33542857Y-56085714D01*
X33590476Y-56180952D01*
X33638095Y-56228571D01*
X33733333Y-56276190D01*
X34114286Y-56276190D01*
X32685714Y-56085714D02*
X32685714Y-56752381D01*
X32923810Y-55704762D02*
X33161905Y-56419048D01*
X32542857Y-56419048D01*
X32019048Y-56180952D02*
X32114286Y-56133333D01*
X32161905Y-56085714D01*
X32209524Y-55990476D01*
X32209524Y-55942857D01*
X32161905Y-55847619D01*
X32114286Y-55800000D01*
X32019048Y-55752381D01*
X31828571Y-55752381D01*
X31733333Y-55800000D01*
X31685714Y-55847619D01*
X31638095Y-55942857D01*
X31638095Y-55990476D01*
X31685714Y-56085714D01*
X31733333Y-56133333D01*
X31828571Y-56180952D01*
X32019048Y-56180952D01*
X32114286Y-56228571D01*
X32161905Y-56276190D01*
X32209524Y-56371429D01*
X32209524Y-56561905D01*
X32161905Y-56657143D01*
X32114286Y-56704762D01*
X32019048Y-56752381D01*
X31828571Y-56752381D01*
X31733333Y-56704762D01*
X31685714Y-56657143D01*
X31638095Y-56561905D01*
X31638095Y-56371429D01*
X31685714Y-56276190D01*
X31733333Y-56228571D01*
X31828571Y-56180952D01*
X29456095Y-55842381D02*
X29456095Y-56651905D01*
X29408476Y-56747143D01*
X29360857Y-56794762D01*
X29265619Y-56842381D01*
X29075142Y-56842381D01*
X28979904Y-56794762D01*
X28932285Y-56747143D01*
X28884666Y-56651905D01*
X28884666Y-55842381D01*
X27884666Y-56842381D02*
X28456095Y-56842381D01*
X28170381Y-56842381D02*
X28170381Y-55842381D01*
X28265619Y-55985238D01*
X28360857Y-56080476D01*
X28456095Y-56128095D01*
X27503714Y-55937619D02*
X27456095Y-55890000D01*
X27360857Y-55842381D01*
X27122761Y-55842381D01*
X27027523Y-55890000D01*
X26979904Y-55937619D01*
X26932285Y-56032857D01*
X26932285Y-56128095D01*
X26979904Y-56270952D01*
X27551333Y-56842381D01*
X26932285Y-56842381D01*
X52443238Y-52873619D02*
X52538476Y-52826000D01*
X52633714Y-52730762D01*
X52776571Y-52587905D01*
X52871810Y-52540286D01*
X52967048Y-52540286D01*
X52919429Y-52778381D02*
X53014667Y-52730762D01*
X53109905Y-52635524D01*
X53157524Y-52445048D01*
X53157524Y-52111714D01*
X53109905Y-51921238D01*
X53014667Y-51826000D01*
X52919429Y-51778381D01*
X52728952Y-51778381D01*
X52633714Y-51826000D01*
X52538476Y-51921238D01*
X52490857Y-52111714D01*
X52490857Y-52445048D01*
X52538476Y-52635524D01*
X52633714Y-52730762D01*
X52728952Y-52778381D01*
X52919429Y-52778381D01*
X51633714Y-52111714D02*
X51633714Y-52778381D01*
X51871810Y-51730762D02*
X52109905Y-52445048D01*
X51490857Y-52445048D01*
X48172619Y-42957762D02*
X48125000Y-42862524D01*
X48029762Y-42767286D01*
X47886905Y-42624429D01*
X47839286Y-42529190D01*
X47839286Y-42433952D01*
X48077381Y-42481571D02*
X48029762Y-42386333D01*
X47934524Y-42291095D01*
X47744048Y-42243476D01*
X47410714Y-42243476D01*
X47220238Y-42291095D01*
X47125000Y-42386333D01*
X47077381Y-42481571D01*
X47077381Y-42672048D01*
X47125000Y-42767286D01*
X47220238Y-42862524D01*
X47410714Y-42910143D01*
X47744048Y-42910143D01*
X47934524Y-42862524D01*
X48029762Y-42767286D01*
X48077381Y-42672048D01*
X48077381Y-42481571D01*
X47077381Y-43814905D02*
X47077381Y-43338714D01*
X47553571Y-43291095D01*
X47505952Y-43338714D01*
X47458333Y-43433952D01*
X47458333Y-43672048D01*
X47505952Y-43767286D01*
X47553571Y-43814905D01*
X47648810Y-43862524D01*
X47886905Y-43862524D01*
X47982143Y-43814905D01*
X48029762Y-43767286D01*
X48077381Y-43672048D01*
X48077381Y-43433952D01*
X48029762Y-43338714D01*
X47982143Y-43291095D01*
X56239881Y-48371143D02*
X55763690Y-48037809D01*
X56239881Y-47799714D02*
X55239881Y-47799714D01*
X55239881Y-48180667D01*
X55287500Y-48275905D01*
X55335119Y-48323524D01*
X55430357Y-48371143D01*
X55573214Y-48371143D01*
X55668452Y-48323524D01*
X55716071Y-48275905D01*
X55763690Y-48180667D01*
X55763690Y-47799714D01*
X55573214Y-49228286D02*
X56239881Y-49228286D01*
X55192262Y-48990190D02*
X55906548Y-48752095D01*
X55906548Y-49371143D01*
X56239881Y-49799714D02*
X56239881Y-49990190D01*
X56192262Y-50085429D01*
X56144643Y-50133048D01*
X56001786Y-50228286D01*
X55811310Y-50275905D01*
X55430357Y-50275905D01*
X55335119Y-50228286D01*
X55287500Y-50180667D01*
X55239881Y-50085429D01*
X55239881Y-49894952D01*
X55287500Y-49799714D01*
X55335119Y-49752095D01*
X55430357Y-49704476D01*
X55668452Y-49704476D01*
X55763690Y-49752095D01*
X55811310Y-49799714D01*
X55858929Y-49894952D01*
X55858929Y-50085429D01*
X55811310Y-50180667D01*
X55763690Y-50228286D01*
X55668452Y-50275905D01*
X53220857Y-40330381D02*
X53554191Y-39854190D01*
X53792286Y-40330381D02*
X53792286Y-39330381D01*
X53411333Y-39330381D01*
X53316095Y-39378000D01*
X53268476Y-39425619D01*
X53220857Y-39520857D01*
X53220857Y-39663714D01*
X53268476Y-39758952D01*
X53316095Y-39806571D01*
X53411333Y-39854190D01*
X53792286Y-39854190D01*
X52316095Y-39330381D02*
X52792286Y-39330381D01*
X52839905Y-39806571D01*
X52792286Y-39758952D01*
X52697048Y-39711333D01*
X52458952Y-39711333D01*
X52363714Y-39758952D01*
X52316095Y-39806571D01*
X52268476Y-39901810D01*
X52268476Y-40139905D01*
X52316095Y-40235143D01*
X52363714Y-40282762D01*
X52458952Y-40330381D01*
X52697048Y-40330381D01*
X52792286Y-40282762D01*
X52839905Y-40235143D01*
X51649429Y-39330381D02*
X51554190Y-39330381D01*
X51458952Y-39378000D01*
X51411333Y-39425619D01*
X51363714Y-39520857D01*
X51316095Y-39711333D01*
X51316095Y-39949429D01*
X51363714Y-40139905D01*
X51411333Y-40235143D01*
X51458952Y-40282762D01*
X51554190Y-40330381D01*
X51649429Y-40330381D01*
X51744667Y-40282762D01*
X51792286Y-40235143D01*
X51839905Y-40139905D01*
X51887524Y-39949429D01*
X51887524Y-39711333D01*
X51839905Y-39520857D01*
X51792286Y-39425619D01*
X51744667Y-39378000D01*
X51649429Y-39330381D01*
X47879143Y-46095143D02*
X47926762Y-46047524D01*
X47974381Y-45904667D01*
X47974381Y-45809429D01*
X47926762Y-45666571D01*
X47831524Y-45571333D01*
X47736286Y-45523714D01*
X47545810Y-45476095D01*
X47402952Y-45476095D01*
X47212476Y-45523714D01*
X47117238Y-45571333D01*
X47022000Y-45666571D01*
X46974381Y-45809429D01*
X46974381Y-45904667D01*
X47022000Y-46047524D01*
X47069619Y-46095143D01*
X47307714Y-46952286D02*
X47974381Y-46952286D01*
X46926762Y-46714190D02*
X47641048Y-46476095D01*
X47641048Y-47095143D01*
X47974381Y-47523714D02*
X47974381Y-47714190D01*
X47926762Y-47809429D01*
X47879143Y-47857048D01*
X47736286Y-47952286D01*
X47545810Y-47999905D01*
X47164857Y-47999905D01*
X47069619Y-47952286D01*
X47022000Y-47904667D01*
X46974381Y-47809429D01*
X46974381Y-47618952D01*
X47022000Y-47523714D01*
X47069619Y-47476095D01*
X47164857Y-47428476D01*
X47402952Y-47428476D01*
X47498190Y-47476095D01*
X47545810Y-47523714D01*
X47593429Y-47618952D01*
X47593429Y-47809429D01*
X47545810Y-47904667D01*
X47498190Y-47952286D01*
X47402952Y-47999905D01*
X43592857Y-52429143D02*
X43640476Y-52476762D01*
X43783333Y-52524381D01*
X43878571Y-52524381D01*
X44021429Y-52476762D01*
X44116667Y-52381524D01*
X44164286Y-52286286D01*
X44211905Y-52095810D01*
X44211905Y-51952952D01*
X44164286Y-51762476D01*
X44116667Y-51667238D01*
X44021429Y-51572000D01*
X43878571Y-51524381D01*
X43783333Y-51524381D01*
X43640476Y-51572000D01*
X43592857Y-51619619D01*
X42688095Y-51524381D02*
X43164286Y-51524381D01*
X43211905Y-52000571D01*
X43164286Y-51952952D01*
X43069048Y-51905333D01*
X42830952Y-51905333D01*
X42735714Y-51952952D01*
X42688095Y-52000571D01*
X42640476Y-52095810D01*
X42640476Y-52333905D01*
X42688095Y-52429143D01*
X42735714Y-52476762D01*
X42830952Y-52524381D01*
X43069048Y-52524381D01*
X43164286Y-52476762D01*
X43211905Y-52429143D01*
X42021429Y-51524381D02*
X41926190Y-51524381D01*
X41830952Y-51572000D01*
X41783333Y-51619619D01*
X41735714Y-51714857D01*
X41688095Y-51905333D01*
X41688095Y-52143429D01*
X41735714Y-52333905D01*
X41783333Y-52429143D01*
X41830952Y-52476762D01*
X41926190Y-52524381D01*
X42021429Y-52524381D01*
X42116667Y-52476762D01*
X42164286Y-52429143D01*
X42211905Y-52333905D01*
X42259524Y-52143429D01*
X42259524Y-51905333D01*
X42211905Y-51714857D01*
X42164286Y-51619619D01*
X42116667Y-51572000D01*
X42021429Y-51524381D01*
X45918333Y-38568381D02*
X45918333Y-39282667D01*
X45965953Y-39425524D01*
X46061191Y-39520762D01*
X46204048Y-39568381D01*
X46299286Y-39568381D01*
X45442143Y-39568381D02*
X45442143Y-38568381D01*
X45061190Y-38568381D01*
X44965952Y-38616000D01*
X44918333Y-38663619D01*
X44870714Y-38758857D01*
X44870714Y-38901714D01*
X44918333Y-38996952D01*
X44965952Y-39044571D01*
X45061190Y-39092190D01*
X45442143Y-39092190D01*
X44537381Y-38568381D02*
X43918333Y-38568381D01*
X44251667Y-38949333D01*
X44108809Y-38949333D01*
X44013571Y-38996952D01*
X43965952Y-39044571D01*
X43918333Y-39139810D01*
X43918333Y-39377905D01*
X43965952Y-39473143D01*
X44013571Y-39520762D01*
X44108809Y-39568381D01*
X44394524Y-39568381D01*
X44489762Y-39520762D01*
X44537381Y-39473143D01*
X58330857Y-69153143D02*
X58378476Y-69200762D01*
X58521333Y-69248381D01*
X58616571Y-69248381D01*
X58759429Y-69200762D01*
X58854667Y-69105524D01*
X58902286Y-69010286D01*
X58949905Y-68819810D01*
X58949905Y-68676952D01*
X58902286Y-68486476D01*
X58854667Y-68391238D01*
X58759429Y-68296000D01*
X58616571Y-68248381D01*
X58521333Y-68248381D01*
X58378476Y-68296000D01*
X58330857Y-68343619D01*
X57997524Y-68248381D02*
X57378476Y-68248381D01*
X57711810Y-68629333D01*
X57568952Y-68629333D01*
X57473714Y-68676952D01*
X57426095Y-68724571D01*
X57378476Y-68819810D01*
X57378476Y-69057905D01*
X57426095Y-69153143D01*
X57473714Y-69200762D01*
X57568952Y-69248381D01*
X57854667Y-69248381D01*
X57949905Y-69200762D01*
X57997524Y-69153143D01*
X56759429Y-68248381D02*
X56664190Y-68248381D01*
X56568952Y-68296000D01*
X56521333Y-68343619D01*
X56473714Y-68438857D01*
X56426095Y-68629333D01*
X56426095Y-68867429D01*
X56473714Y-69057905D01*
X56521333Y-69153143D01*
X56568952Y-69200762D01*
X56664190Y-69248381D01*
X56759429Y-69248381D01*
X56854667Y-69200762D01*
X56902286Y-69153143D01*
X56949905Y-69057905D01*
X56997524Y-68867429D01*
X56997524Y-68629333D01*
X56949905Y-68438857D01*
X56902286Y-68343619D01*
X56854667Y-68296000D01*
X56759429Y-68248381D01*
X59346857Y-51403143D02*
X59394476Y-51450762D01*
X59537333Y-51498381D01*
X59632571Y-51498381D01*
X59775429Y-51450762D01*
X59870667Y-51355524D01*
X59918286Y-51260286D01*
X59965905Y-51069810D01*
X59965905Y-50926952D01*
X59918286Y-50736476D01*
X59870667Y-50641238D01*
X59775429Y-50546000D01*
X59632571Y-50498381D01*
X59537333Y-50498381D01*
X59394476Y-50546000D01*
X59346857Y-50593619D01*
X58442095Y-50498381D02*
X58918286Y-50498381D01*
X58965905Y-50974571D01*
X58918286Y-50926952D01*
X58823048Y-50879333D01*
X58584952Y-50879333D01*
X58489714Y-50926952D01*
X58442095Y-50974571D01*
X58394476Y-51069810D01*
X58394476Y-51307905D01*
X58442095Y-51403143D01*
X58489714Y-51450762D01*
X58584952Y-51498381D01*
X58823048Y-51498381D01*
X58918286Y-51450762D01*
X58965905Y-51403143D01*
X58061143Y-50498381D02*
X57442095Y-50498381D01*
X57775429Y-50879333D01*
X57632571Y-50879333D01*
X57537333Y-50926952D01*
X57489714Y-50974571D01*
X57442095Y-51069810D01*
X57442095Y-51307905D01*
X57489714Y-51403143D01*
X57537333Y-51450762D01*
X57632571Y-51498381D01*
X57918286Y-51498381D01*
X58013524Y-51450762D01*
X58061143Y-51403143D01*
X73628381Y-31521905D02*
X72628381Y-31521905D01*
X72628381Y-31760000D01*
X72676000Y-31902858D01*
X72771238Y-31998096D01*
X72866476Y-32045715D01*
X73056952Y-32093334D01*
X73199810Y-32093334D01*
X73390286Y-32045715D01*
X73485524Y-31998096D01*
X73580762Y-31902858D01*
X73628381Y-31760000D01*
X73628381Y-31521905D01*
X72628381Y-32998096D02*
X72628381Y-32521905D01*
X73104571Y-32474286D01*
X73056952Y-32521905D01*
X73009333Y-32617143D01*
X73009333Y-32855239D01*
X73056952Y-32950477D01*
X73104571Y-32998096D01*
X73199810Y-33045715D01*
X73437905Y-33045715D01*
X73533143Y-32998096D01*
X73580762Y-32950477D01*
X73628381Y-32855239D01*
X73628381Y-32617143D01*
X73580762Y-32521905D01*
X73533143Y-32474286D01*
X8896095Y-52006381D02*
X8896095Y-51006381D01*
X8658000Y-51006381D01*
X8515142Y-51054000D01*
X8419904Y-51149238D01*
X8372285Y-51244476D01*
X8324666Y-51434952D01*
X8324666Y-51577810D01*
X8372285Y-51768286D01*
X8419904Y-51863524D01*
X8515142Y-51958762D01*
X8658000Y-52006381D01*
X8896095Y-52006381D01*
X7467523Y-51006381D02*
X7658000Y-51006381D01*
X7753238Y-51054000D01*
X7800857Y-51101619D01*
X7896095Y-51244476D01*
X7943714Y-51434952D01*
X7943714Y-51815905D01*
X7896095Y-51911143D01*
X7848476Y-51958762D01*
X7753238Y-52006381D01*
X7562761Y-52006381D01*
X7467523Y-51958762D01*
X7419904Y-51911143D01*
X7372285Y-51815905D01*
X7372285Y-51577810D01*
X7419904Y-51482571D01*
X7467523Y-51434952D01*
X7562761Y-51387333D01*
X7753238Y-51387333D01*
X7848476Y-51434952D01*
X7896095Y-51482571D01*
X7943714Y-51577810D01*
X25471381Y-53109905D02*
X24471381Y-53109905D01*
X24471381Y-53348000D01*
X24519000Y-53490858D01*
X24614238Y-53586096D01*
X24709476Y-53633715D01*
X24899952Y-53681334D01*
X25042810Y-53681334D01*
X25233286Y-53633715D01*
X25328524Y-53586096D01*
X25423762Y-53490858D01*
X25471381Y-53348000D01*
X25471381Y-53109905D01*
X24471381Y-54014667D02*
X24471381Y-54681334D01*
X25471381Y-54252762D01*
X31538095Y-47052381D02*
X31538095Y-46052381D01*
X31157142Y-46052381D01*
X31061904Y-46100000D01*
X31014285Y-46147619D01*
X30966666Y-46242857D01*
X30966666Y-46385714D01*
X31014285Y-46480952D01*
X31061904Y-46528571D01*
X31157142Y-46576190D01*
X31538095Y-46576190D01*
X30014285Y-47052381D02*
X30585714Y-47052381D01*
X30300000Y-47052381D02*
X30300000Y-46052381D01*
X30395238Y-46195238D01*
X30490476Y-46290476D01*
X30585714Y-46338095D01*
X73628381Y-27775334D02*
X73152190Y-27442000D01*
X73628381Y-27203905D02*
X72628381Y-27203905D01*
X72628381Y-27584858D01*
X72676000Y-27680096D01*
X72723619Y-27727715D01*
X72818857Y-27775334D01*
X72961714Y-27775334D01*
X73056952Y-27727715D01*
X73104571Y-27680096D01*
X73152190Y-27584858D01*
X73152190Y-27203905D01*
X73628381Y-28727715D02*
X73628381Y-28156286D01*
X73628381Y-28442000D02*
X72628381Y-28442000D01*
X72771238Y-28346762D01*
X72866476Y-28251524D01*
X72914095Y-28156286D01*
X13348786Y-51648821D02*
X13682120Y-51172630D01*
X13920215Y-51648821D02*
X13920215Y-50648821D01*
X13539262Y-50648821D01*
X13444024Y-50696440D01*
X13396405Y-50744059D01*
X13348786Y-50839297D01*
X13348786Y-50982154D01*
X13396405Y-51077392D01*
X13444024Y-51125011D01*
X13539262Y-51172630D01*
X13920215Y-51172630D01*
X12967834Y-50744059D02*
X12920215Y-50696440D01*
X12824977Y-50648821D01*
X12586881Y-50648821D01*
X12491643Y-50696440D01*
X12444024Y-50744059D01*
X12396405Y-50839297D01*
X12396405Y-50934535D01*
X12444024Y-51077392D01*
X13015453Y-51648821D01*
X12396405Y-51648821D01*
X19246666Y-50228381D02*
X19580000Y-49752190D01*
X19818095Y-50228381D02*
X19818095Y-49228381D01*
X19437142Y-49228381D01*
X19341904Y-49276000D01*
X19294285Y-49323619D01*
X19246666Y-49418857D01*
X19246666Y-49561714D01*
X19294285Y-49656952D01*
X19341904Y-49704571D01*
X19437142Y-49752190D01*
X19818095Y-49752190D01*
X18913333Y-49228381D02*
X18294285Y-49228381D01*
X18627619Y-49609333D01*
X18484761Y-49609333D01*
X18389523Y-49656952D01*
X18341904Y-49704571D01*
X18294285Y-49799810D01*
X18294285Y-50037905D01*
X18341904Y-50133143D01*
X18389523Y-50180762D01*
X18484761Y-50228381D01*
X18770476Y-50228381D01*
X18865714Y-50180762D01*
X18913333Y-50133143D01*
X19246666Y-48704381D02*
X19580000Y-48228190D01*
X19818095Y-48704381D02*
X19818095Y-47704381D01*
X19437142Y-47704381D01*
X19341904Y-47752000D01*
X19294285Y-47799619D01*
X19246666Y-47894857D01*
X19246666Y-48037714D01*
X19294285Y-48132952D01*
X19341904Y-48180571D01*
X19437142Y-48228190D01*
X19818095Y-48228190D01*
X18389523Y-48037714D02*
X18389523Y-48704381D01*
X18627619Y-47656762D02*
X18865714Y-48371048D01*
X18246666Y-48371048D01*
X21080095Y-86578381D02*
X21080095Y-87387905D01*
X21032476Y-87483143D01*
X20984857Y-87530762D01*
X20889619Y-87578381D01*
X20699142Y-87578381D01*
X20603904Y-87530762D01*
X20556285Y-87483143D01*
X20508666Y-87387905D01*
X20508666Y-86578381D01*
X19508666Y-87578381D02*
X20080095Y-87578381D01*
X19794381Y-87578381D02*
X19794381Y-86578381D01*
X19889619Y-86721238D01*
X19984857Y-86816476D01*
X20080095Y-86864095D01*
X18651523Y-86578381D02*
X18842000Y-86578381D01*
X18937238Y-86626000D01*
X18984857Y-86673619D01*
X19080095Y-86816476D01*
X19127714Y-87006952D01*
X19127714Y-87387905D01*
X19080095Y-87483143D01*
X19032476Y-87530762D01*
X18937238Y-87578381D01*
X18746761Y-87578381D01*
X18651523Y-87530762D01*
X18603904Y-87483143D01*
X18556285Y-87387905D01*
X18556285Y-87149810D01*
X18603904Y-87054571D01*
X18651523Y-87006952D01*
X18746761Y-86959333D01*
X18937238Y-86959333D01*
X19032476Y-87006952D01*
X19080095Y-87054571D01*
X19127714Y-87149810D01*
X32866666Y-58252381D02*
X33200000Y-57776190D01*
X33438095Y-58252381D02*
X33438095Y-57252381D01*
X33057142Y-57252381D01*
X32961904Y-57300000D01*
X32914285Y-57347619D01*
X32866666Y-57442857D01*
X32866666Y-57585714D01*
X32914285Y-57680952D01*
X32961904Y-57728571D01*
X33057142Y-57776190D01*
X33438095Y-57776190D01*
X31961904Y-57252381D02*
X32438095Y-57252381D01*
X32485714Y-57728571D01*
X32438095Y-57680952D01*
X32342857Y-57633333D01*
X32104761Y-57633333D01*
X32009523Y-57680952D01*
X31961904Y-57728571D01*
X31914285Y-57823810D01*
X31914285Y-58061905D01*
X31961904Y-58157143D01*
X32009523Y-58204762D01*
X32104761Y-58252381D01*
X32342857Y-58252381D01*
X32438095Y-58204762D01*
X32485714Y-58157143D01*
X45666666Y-69607143D02*
X45714285Y-69654762D01*
X45857142Y-69702381D01*
X45952380Y-69702381D01*
X46095238Y-69654762D01*
X46190476Y-69559524D01*
X46238095Y-69464286D01*
X46285714Y-69273810D01*
X46285714Y-69130952D01*
X46238095Y-68940476D01*
X46190476Y-68845238D01*
X46095238Y-68750000D01*
X45952380Y-68702381D01*
X45857142Y-68702381D01*
X45714285Y-68750000D01*
X45666666Y-68797619D01*
X44714285Y-69702381D02*
X45285714Y-69702381D01*
X45000000Y-69702381D02*
X45000000Y-68702381D01*
X45095238Y-68845238D01*
X45190476Y-68940476D01*
X45285714Y-68988095D01*
X46766666Y-74157143D02*
X46814285Y-74204762D01*
X46957142Y-74252381D01*
X47052380Y-74252381D01*
X47195238Y-74204762D01*
X47290476Y-74109524D01*
X47338095Y-74014286D01*
X47385714Y-73823810D01*
X47385714Y-73680952D01*
X47338095Y-73490476D01*
X47290476Y-73395238D01*
X47195238Y-73300000D01*
X47052380Y-73252381D01*
X46957142Y-73252381D01*
X46814285Y-73300000D01*
X46766666Y-73347619D01*
X46385714Y-73347619D02*
X46338095Y-73300000D01*
X46242857Y-73252381D01*
X46004761Y-73252381D01*
X45909523Y-73300000D01*
X45861904Y-73347619D01*
X45814285Y-73442857D01*
X45814285Y-73538095D01*
X45861904Y-73680952D01*
X46433333Y-74252381D01*
X45814285Y-74252381D01*
X72657143Y-78833334D02*
X72704762Y-78785715D01*
X72752381Y-78642858D01*
X72752381Y-78547620D01*
X72704762Y-78404762D01*
X72609524Y-78309524D01*
X72514286Y-78261905D01*
X72323810Y-78214286D01*
X72180952Y-78214286D01*
X71990476Y-78261905D01*
X71895238Y-78309524D01*
X71800000Y-78404762D01*
X71752381Y-78547620D01*
X71752381Y-78642858D01*
X71800000Y-78785715D01*
X71847619Y-78833334D01*
X71752381Y-79166667D02*
X71752381Y-79785715D01*
X72133333Y-79452381D01*
X72133333Y-79595239D01*
X72180952Y-79690477D01*
X72228571Y-79738096D01*
X72323810Y-79785715D01*
X72561905Y-79785715D01*
X72657143Y-79738096D01*
X72704762Y-79690477D01*
X72752381Y-79595239D01*
X72752381Y-79309524D01*
X72704762Y-79214286D01*
X72657143Y-79166667D01*
X15819381Y-36155334D02*
X15343190Y-35822000D01*
X15819381Y-35583905D02*
X14819381Y-35583905D01*
X14819381Y-35964858D01*
X14867000Y-36060096D01*
X14914619Y-36107715D01*
X15009857Y-36155334D01*
X15152714Y-36155334D01*
X15247952Y-36107715D01*
X15295571Y-36060096D01*
X15343190Y-35964858D01*
X15343190Y-35583905D01*
X14819381Y-36488667D02*
X14819381Y-37155334D01*
X15819381Y-36726762D01*
X48103238Y-29253619D02*
X48198476Y-29206000D01*
X48293714Y-29110762D01*
X48436571Y-28967905D01*
X48531810Y-28920286D01*
X48627048Y-28920286D01*
X48579429Y-29158381D02*
X48674667Y-29110762D01*
X48769905Y-29015524D01*
X48817524Y-28825048D01*
X48817524Y-28491714D01*
X48769905Y-28301238D01*
X48674667Y-28206000D01*
X48579429Y-28158381D01*
X48388952Y-28158381D01*
X48293714Y-28206000D01*
X48198476Y-28301238D01*
X48150857Y-28491714D01*
X48150857Y-28825048D01*
X48198476Y-29015524D01*
X48293714Y-29110762D01*
X48388952Y-29158381D01*
X48579429Y-29158381D01*
X47817524Y-28158381D02*
X47198476Y-28158381D01*
X47531810Y-28539333D01*
X47388952Y-28539333D01*
X47293714Y-28586952D01*
X47246095Y-28634571D01*
X47198476Y-28729810D01*
X47198476Y-28967905D01*
X47246095Y-29063143D01*
X47293714Y-29110762D01*
X47388952Y-29158381D01*
X47674667Y-29158381D01*
X47769905Y-29110762D01*
X47817524Y-29063143D01*
X51093666Y-28011381D02*
X51427000Y-27535190D01*
X51665095Y-28011381D02*
X51665095Y-27011381D01*
X51284142Y-27011381D01*
X51188904Y-27059000D01*
X51141285Y-27106619D01*
X51093666Y-27201857D01*
X51093666Y-27344714D01*
X51141285Y-27439952D01*
X51188904Y-27487571D01*
X51284142Y-27535190D01*
X51665095Y-27535190D01*
X50522238Y-27439952D02*
X50617476Y-27392333D01*
X50665095Y-27344714D01*
X50712714Y-27249476D01*
X50712714Y-27201857D01*
X50665095Y-27106619D01*
X50617476Y-27059000D01*
X50522238Y-27011381D01*
X50331761Y-27011381D01*
X50236523Y-27059000D01*
X50188904Y-27106619D01*
X50141285Y-27201857D01*
X50141285Y-27249476D01*
X50188904Y-27344714D01*
X50236523Y-27392333D01*
X50331761Y-27439952D01*
X50522238Y-27439952D01*
X50617476Y-27487571D01*
X50665095Y-27535190D01*
X50712714Y-27630429D01*
X50712714Y-27820905D01*
X50665095Y-27916143D01*
X50617476Y-27963762D01*
X50522238Y-28011381D01*
X50331761Y-28011381D01*
X50236523Y-27963762D01*
X50188904Y-27916143D01*
X50141285Y-27820905D01*
X50141285Y-27630429D01*
X50188904Y-27535190D01*
X50236523Y-27487571D01*
X50331761Y-27439952D01*
X20089881Y-34163095D02*
X20899405Y-34163095D01*
X20994643Y-34210714D01*
X21042262Y-34258333D01*
X21089881Y-34353571D01*
X21089881Y-34544048D01*
X21042262Y-34639286D01*
X20994643Y-34686905D01*
X20899405Y-34734524D01*
X20089881Y-34734524D01*
X21089881Y-35734524D02*
X21089881Y-35163095D01*
X21089881Y-35448809D02*
X20089881Y-35448809D01*
X20232738Y-35353571D01*
X20327976Y-35258333D01*
X20375595Y-35163095D01*
X25058666Y-26038381D02*
X25392000Y-25562190D01*
X25630095Y-26038381D02*
X25630095Y-25038381D01*
X25249142Y-25038381D01*
X25153904Y-25086000D01*
X25106285Y-25133619D01*
X25058666Y-25228857D01*
X25058666Y-25371714D01*
X25106285Y-25466952D01*
X25153904Y-25514571D01*
X25249142Y-25562190D01*
X25630095Y-25562190D01*
X24582476Y-26038381D02*
X24392000Y-26038381D01*
X24296761Y-25990762D01*
X24249142Y-25943143D01*
X24153904Y-25800286D01*
X24106285Y-25609810D01*
X24106285Y-25228857D01*
X24153904Y-25133619D01*
X24201523Y-25086000D01*
X24296761Y-25038381D01*
X24487238Y-25038381D01*
X24582476Y-25086000D01*
X24630095Y-25133619D01*
X24677714Y-25228857D01*
X24677714Y-25466952D01*
X24630095Y-25562190D01*
X24582476Y-25609810D01*
X24487238Y-25657429D01*
X24296761Y-25657429D01*
X24201523Y-25609810D01*
X24153904Y-25562190D01*
X24106285Y-25466952D01*
X18518166Y-41759143D02*
X18565785Y-41806762D01*
X18708642Y-41854381D01*
X18803880Y-41854381D01*
X18946738Y-41806762D01*
X19041976Y-41711524D01*
X19089595Y-41616286D01*
X19137214Y-41425810D01*
X19137214Y-41282952D01*
X19089595Y-41092476D01*
X19041976Y-40997238D01*
X18946738Y-40902000D01*
X18803880Y-40854381D01*
X18708642Y-40854381D01*
X18565785Y-40902000D01*
X18518166Y-40949619D01*
X17661023Y-41187714D02*
X17661023Y-41854381D01*
X17899119Y-40806762D02*
X18137214Y-41521048D01*
X17518166Y-41521048D01*
X52496381Y-33797905D02*
X51496381Y-33797905D01*
X51496381Y-34036000D01*
X51544000Y-34178858D01*
X51639238Y-34274096D01*
X51734476Y-34321715D01*
X51924952Y-34369334D01*
X52067810Y-34369334D01*
X52258286Y-34321715D01*
X52353524Y-34274096D01*
X52448762Y-34178858D01*
X52496381Y-34036000D01*
X52496381Y-33797905D01*
X51591619Y-34750286D02*
X51544000Y-34797905D01*
X51496381Y-34893143D01*
X51496381Y-35131239D01*
X51544000Y-35226477D01*
X51591619Y-35274096D01*
X51686857Y-35321715D01*
X51782095Y-35321715D01*
X51924952Y-35274096D01*
X52496381Y-34702667D01*
X52496381Y-35321715D01*
X58246381Y-31024095D02*
X57246381Y-31024095D01*
X58246381Y-31595524D02*
X57674952Y-31166952D01*
X57246381Y-31595524D02*
X57817810Y-31024095D01*
X57910667Y-37347905D02*
X57910667Y-37824096D01*
X58196381Y-37252667D02*
X57196381Y-37586000D01*
X58196381Y-37919334D01*
X45378666Y-36806143D02*
X45426285Y-36853762D01*
X45569142Y-36901381D01*
X45664380Y-36901381D01*
X45807238Y-36853762D01*
X45902476Y-36758524D01*
X45950095Y-36663286D01*
X45997714Y-36472810D01*
X45997714Y-36329952D01*
X45950095Y-36139476D01*
X45902476Y-36044238D01*
X45807238Y-35949000D01*
X45664380Y-35901381D01*
X45569142Y-35901381D01*
X45426285Y-35949000D01*
X45378666Y-35996619D01*
X44473904Y-35901381D02*
X44950095Y-35901381D01*
X44997714Y-36377571D01*
X44950095Y-36329952D01*
X44854857Y-36282333D01*
X44616761Y-36282333D01*
X44521523Y-36329952D01*
X44473904Y-36377571D01*
X44426285Y-36472810D01*
X44426285Y-36710905D01*
X44473904Y-36806143D01*
X44521523Y-36853762D01*
X44616761Y-36901381D01*
X44854857Y-36901381D01*
X44950095Y-36853762D01*
X44997714Y-36806143D01*
%LPC*%
D13*
X27860000Y-54737000D03*
X30560000Y-54737000D03*
D14*
X27500000Y-30500000D03*
X15501220Y-30497040D03*
X48641000Y-35749000D03*
X48643960Y-23750220D03*
D15*
X17667760Y-67959000D03*
X17667760Y-69859000D03*
X15668780Y-68909000D03*
D16*
X23900000Y-13210000D03*
X49300000Y-13210000D03*
D17*
X40201000Y-62447500D03*
X39551000Y-62447500D03*
X38901000Y-62447500D03*
X38251000Y-62447500D03*
X37601000Y-62447500D03*
X36951000Y-62447500D03*
X36301000Y-62447500D03*
X36301000Y-56547500D03*
X36951000Y-56547500D03*
X37601000Y-56547500D03*
X38251000Y-56547500D03*
X38901000Y-56547500D03*
X39551000Y-56547500D03*
X40201000Y-56547500D03*
D18*
X28086840Y-66716520D03*
X28086840Y-64016520D03*
D19*
X61200000Y-30200000D03*
D20*
X66200000Y-30200000D03*
D13*
X30176000Y-65524000D03*
X32876000Y-65524000D03*
D21*
X34060000Y-73253000D03*
X34060000Y-75253000D03*
D22*
X68500000Y-90000000D03*
D23*
X36235000Y-54100000D03*
X38235000Y-54100000D03*
D21*
X31393000Y-72649500D03*
X31393000Y-70649500D03*
D23*
X51068000Y-54348000D03*
X49068000Y-54348000D03*
X32653000Y-63446280D03*
X30653000Y-63446280D03*
X65324000Y-77208000D03*
X67324000Y-77208000D03*
D13*
X11032000Y-57098000D03*
X8332000Y-57098000D03*
D21*
X35590000Y-65032000D03*
X35590000Y-67032000D03*
D24*
X50550860Y-63250000D03*
X46949140Y-63250000D03*
D25*
X50345480Y-86396000D03*
X62214900Y-86396000D03*
D26*
X60729000Y-80046000D03*
D27*
X59459000Y-77506000D03*
X58189000Y-80046000D03*
X56919000Y-77506000D03*
X55649000Y-80046000D03*
X54379000Y-77506000D03*
X53109000Y-80046000D03*
X51839000Y-77506000D03*
D25*
X33327480Y-86396000D03*
X45196900Y-86396000D03*
D26*
X43711000Y-80046000D03*
D27*
X42441000Y-77506000D03*
X41171000Y-80046000D03*
X39901000Y-77506000D03*
X38631000Y-80046000D03*
X37361000Y-77506000D03*
X36091000Y-80046000D03*
X34821000Y-77506000D03*
D22*
X6500000Y-7000000D03*
X68500000Y-7000000D03*
X6500000Y-90000000D03*
D15*
X17159760Y-72658000D03*
X17159760Y-74558000D03*
X15160780Y-73608000D03*
D18*
X70040000Y-61215000D03*
X70040000Y-63915000D03*
X69990000Y-66315000D03*
X69990000Y-69015000D03*
X69990000Y-71615000D03*
X69990000Y-74315000D03*
X29351760Y-68710440D03*
X29351760Y-71410440D03*
D13*
X26336000Y-51943000D03*
X29036000Y-51943000D03*
X23097000Y-74370000D03*
X20397000Y-74370000D03*
D28*
X36354000Y-72918000D03*
X36354000Y-72418000D03*
X36354000Y-71918000D03*
X36354000Y-71418000D03*
X36354000Y-70918000D03*
X40654000Y-70918000D03*
X40654000Y-71418000D03*
X40654000Y-71918000D03*
X40654000Y-72418000D03*
X40654000Y-72918000D03*
D29*
X41680000Y-16766000D03*
X31520000Y-16766000D03*
X36600000Y-16766000D03*
X34060000Y-16766000D03*
X39140000Y-16766000D03*
X31520000Y-9654000D03*
X41680000Y-9654000D03*
X36600000Y-9654000D03*
X39140000Y-9654000D03*
X34060000Y-9654000D03*
D30*
X15319000Y-65861000D03*
X15319000Y-64591000D03*
X15319000Y-63321000D03*
X15319000Y-62051000D03*
X15319000Y-60781000D03*
X15319000Y-59511000D03*
X15319000Y-58241000D03*
X15319000Y-56971000D03*
X24619000Y-56971000D03*
X24619000Y-58241000D03*
X24619000Y-59511000D03*
X24619000Y-60781000D03*
X24619000Y-62051000D03*
X24619000Y-63321000D03*
X24619000Y-64591000D03*
X24619000Y-65861000D03*
D31*
X67190000Y-61015000D03*
D32*
X64650000Y-61015000D03*
X67190000Y-63555000D03*
X64650000Y-63555000D03*
X67190000Y-66095000D03*
X64650000Y-66095000D03*
X67190000Y-68635000D03*
X64650000Y-68635000D03*
X67190000Y-71175000D03*
X64650000Y-71175000D03*
X67190000Y-73715000D03*
X64650000Y-73715000D03*
D23*
X38250000Y-65500000D03*
X40250000Y-65500000D03*
D18*
X35711000Y-44880000D03*
X35711000Y-47580000D03*
X38759000Y-47580000D03*
X38759000Y-44880000D03*
D33*
X9270000Y-23690000D03*
X6730000Y-23690000D03*
X4190000Y-23690000D03*
X4190000Y-26230000D03*
X4190000Y-28770000D03*
X9270000Y-31310000D03*
X6730000Y-31310000D03*
X4190000Y-31310000D03*
X11810000Y-31310000D03*
X11810000Y-23690000D03*
X11810000Y-26230000D03*
X9270000Y-26230000D03*
X6730000Y-26230000D03*
X11810000Y-28770000D03*
X9270000Y-28770000D03*
X6730000Y-28770000D03*
X9270000Y-39190000D03*
X6730000Y-39190000D03*
X4190000Y-39190000D03*
X4190000Y-41730000D03*
X4190000Y-44270000D03*
X9270000Y-46810000D03*
X6730000Y-46810000D03*
X4190000Y-46810000D03*
X11810000Y-46810000D03*
X11810000Y-39190000D03*
X11810000Y-41730000D03*
X9270000Y-41730000D03*
X6730000Y-41730000D03*
X11810000Y-44270000D03*
X9270000Y-44270000D03*
X6730000Y-44270000D03*
X9270000Y-12690000D03*
X6730000Y-12690000D03*
X4190000Y-12690000D03*
X4190000Y-15230000D03*
X4190000Y-17770000D03*
X9270000Y-20310000D03*
X6730000Y-20310000D03*
X4190000Y-20310000D03*
X11810000Y-20310000D03*
X11810000Y-12690000D03*
X11810000Y-15230000D03*
X9270000Y-15230000D03*
X6730000Y-15230000D03*
X11810000Y-17770000D03*
X9270000Y-17770000D03*
X6730000Y-17770000D03*
X65730000Y-20810000D03*
X68270000Y-20810000D03*
X70810000Y-20810000D03*
X70810000Y-18270000D03*
X70810000Y-15730000D03*
X65730000Y-13190000D03*
X68270000Y-13190000D03*
X70810000Y-13190000D03*
X63190000Y-13190000D03*
X63190000Y-20810000D03*
X63190000Y-18270000D03*
X65730000Y-18270000D03*
X68270000Y-18270000D03*
X63190000Y-15730000D03*
X65730000Y-15730000D03*
X68270000Y-15730000D03*
X65730000Y-46810000D03*
X68270000Y-46810000D03*
X70810000Y-46810000D03*
X70810000Y-44270000D03*
X70810000Y-41730000D03*
X65730000Y-39190000D03*
X68270000Y-39190000D03*
X70810000Y-39190000D03*
X63190000Y-39190000D03*
X63190000Y-46810000D03*
X63190000Y-44270000D03*
X65730000Y-44270000D03*
X68270000Y-44270000D03*
X63190000Y-41730000D03*
X65730000Y-41730000D03*
X68270000Y-41730000D03*
D21*
X35711000Y-49675000D03*
X35711000Y-51675000D03*
X38759000Y-51675000D03*
X38759000Y-49675000D03*
D13*
X11159000Y-59130000D03*
X8459000Y-59130000D03*
D34*
X4250000Y-72500000D03*
X4250000Y-76000000D03*
X11250000Y-76000000D03*
X11250000Y-72500000D03*
X4250000Y-65000000D03*
X4250000Y-68500000D03*
X11250000Y-68500000D03*
X11250000Y-65000000D03*
X4250000Y-80000000D03*
X4250000Y-83500000D03*
X11250000Y-83500000D03*
X11250000Y-80000000D03*
D35*
X3725000Y-60400000D03*
X5225000Y-60400000D03*
X5225000Y-58876000D03*
X3725000Y-58876000D03*
X3725000Y-57225000D03*
X5225000Y-57225000D03*
X3725000Y-61924000D03*
X5225000Y-61924000D03*
D23*
X24779000Y-68401000D03*
X22779000Y-68401000D03*
D18*
X45339000Y-43735000D03*
X45339000Y-46435000D03*
X45381700Y-48654600D03*
X45381700Y-51354600D03*
D13*
X31156440Y-59270520D03*
X33856440Y-59270520D03*
D15*
X28777760Y-60408440D03*
X26877760Y-60408440D03*
X27827760Y-58409460D03*
X51513300Y-50751360D03*
X49613300Y-50751360D03*
X50563300Y-48752380D03*
X50421060Y-44088900D03*
X50421060Y-45988900D03*
X48422080Y-45038900D03*
D18*
X53687500Y-50364000D03*
X53687500Y-47664000D03*
D13*
X50394400Y-41762300D03*
X53094400Y-41762300D03*
D21*
X47604200Y-48877600D03*
X47604200Y-50877600D03*
D23*
X43702000Y-54094000D03*
X41702000Y-54094000D03*
D13*
X47451000Y-41021000D03*
X44751000Y-41021000D03*
D36*
X55688000Y-66496000D03*
X59688000Y-66496000D03*
D37*
X55953180Y-55364000D03*
X61454820Y-55364000D03*
D38*
X71246520Y-31129860D03*
X71246520Y-33227900D03*
X9232420Y-53342160D03*
X7134380Y-53342160D03*
X23377680Y-52049300D03*
X23377680Y-54147340D03*
D39*
X23017000Y-48531400D03*
X25557000Y-48531400D03*
X28097000Y-48531400D03*
D18*
X71292240Y-26617560D03*
X71292240Y-29317560D03*
D13*
X14532120Y-53296440D03*
X11832120Y-53296440D03*
X17745240Y-54180360D03*
X20445240Y-54180360D03*
X17790960Y-51863880D03*
X20490960Y-51863880D03*
D40*
X16442000Y-90626000D03*
X18142000Y-90626000D03*
X21542000Y-90626000D03*
D41*
X19842000Y-81476000D03*
D40*
X23242000Y-90626000D03*
D13*
X31105640Y-61338080D03*
X33805640Y-61338080D03*
D36*
X43750000Y-71500000D03*
X47750000Y-71500000D03*
D23*
X42500000Y-73750000D03*
X44500000Y-73750000D03*
D42*
X70000000Y-81000000D03*
X70000000Y-77000000D03*
D18*
X17399000Y-37672000D03*
X17399000Y-34972000D03*
D15*
X48500760Y-30550000D03*
X48500760Y-32450000D03*
X46501780Y-31500000D03*
D18*
X50927000Y-32211000D03*
X50927000Y-29511000D03*
D43*
X19621500Y-37846000D03*
X19621500Y-36576000D03*
X21653500Y-37846000D03*
X19621500Y-37211000D03*
X21653500Y-36576000D03*
D13*
X26242000Y-27686000D03*
X23542000Y-27686000D03*
D23*
X17288000Y-39560500D03*
X19288000Y-39560500D03*
D14*
X31500000Y-30500000D03*
X43498780Y-30502960D03*
D44*
X54894000Y-32036640D03*
X54894000Y-37035360D03*
D23*
X50022000Y-38989000D03*
X48022000Y-38989000D03*
D45*
X47750000Y-60500000D03*
X47750000Y-57000000D03*
D33*
X26948000Y-69554000D03*
X43712000Y-69046000D03*
D45*
X51250000Y-60750000D03*
X51250000Y-59500000D03*
X51250000Y-58250000D03*
X51250000Y-57000000D03*
X59586000Y-82078000D03*
X58316000Y-83094000D03*
X56792000Y-84110000D03*
X55268000Y-85126000D03*
X53467000Y-56896000D03*
X53467000Y-60833000D03*
D33*
X30885000Y-75015000D03*
X48030000Y-75015000D03*
D45*
X58000000Y-61000000D03*
X56250000Y-59750000D03*
X56250000Y-61000000D03*
X58000000Y-59750000D03*
X35584000Y-43436000D03*
X13589000Y-56959500D03*
X17081500Y-57023000D03*
X16065500Y-54546500D03*
X22636000Y-66750000D03*
X24000000Y-70250000D03*
X17250000Y-94250000D03*
X2000000Y-78000000D03*
X9750000Y-60750000D03*
X1750000Y-54000000D03*
X2000000Y-63250000D03*
X2500000Y-94000000D03*
X9750000Y-94000000D03*
X18500000Y-75750000D03*
X20000000Y-71750000D03*
X7750000Y-78000000D03*
X50000000Y-73530000D03*
X43750000Y-75360000D03*
X45640000Y-75310000D03*
X45750000Y-61333000D03*
X44226000Y-64508000D03*
X44250000Y-60250000D03*
X45750000Y-60250000D03*
X51500000Y-73500000D03*
X31000000Y-89000000D03*
X59500000Y-89000000D03*
X31000000Y-80500000D03*
X46000000Y-79500000D03*
X65308000Y-56126000D03*
X67848000Y-56126000D03*
X67848000Y-54602000D03*
X65308000Y-54602000D03*
X30891000Y-56761000D03*
X38886000Y-43436000D03*
X27813000Y-57213500D03*
X29321280Y-62567440D03*
X5145560Y-54287040D03*
X24932160Y-90421080D03*
X2392200Y-61968000D03*
X6512080Y-57995440D03*
X58958000Y-85209000D03*
X60482000Y-83685000D03*
X47909000Y-54348000D03*
X34885500Y-70570000D03*
X59681900Y-64438600D03*
X60621700Y-62152600D03*
X61269400Y-60082500D03*
X58450000Y-70985000D03*
X59161200Y-69975800D03*
X59770800Y-68591500D03*
X16921000Y-65988000D03*
X35647500Y-75142000D03*
X31012000Y-69046000D03*
X37846000Y-25908000D03*
X39116000Y-25908000D03*
X40386000Y-25908000D03*
X41656000Y-25908000D03*
X35500000Y-58250000D03*
X40500000Y-67000000D03*
X41656000Y-55626000D03*
X43878500Y-55816500D03*
X37465000Y-60833000D03*
X37235000Y-41404000D03*
X36195000Y-40251000D03*
X36195000Y-38981000D03*
X36195000Y-37711000D03*
X38227000Y-37711000D03*
X38227000Y-38981000D03*
X38227000Y-40251000D03*
X37235000Y-46230000D03*
X38892000Y-64000000D03*
X37114000Y-67048000D03*
M02*
