G04 #@! TF.FileFunction,Soldermask,Bot*
%FSLAX46Y46*%
G04 Gerber Fmt 4.6, Leading zero omitted, Abs format (unit mm)*
G04 Created by KiCad (PCBNEW 4.0.2+e4-6225~38~ubuntu15.04.1-stable) date Do 30 Jun 2016 00:48:15 CEST*
%MOMM*%
G01*
G04 APERTURE LIST*
%ADD10C,0.150000*%
%ADD11O,1.506220X3.014980*%
%ADD12R,1.727200X1.727200*%
%ADD13O,1.727200X1.727200*%
%ADD14R,1.050000X1.050000*%
%ADD15C,1.050000*%
%ADD16C,6.000000*%
%ADD17C,0.889000*%
%ADD18C,0.600000*%
%ADD19C,2.000000*%
G04 APERTURE END LIST*
D10*
D11*
X4695000Y-72340280D03*
X7235000Y-72340280D03*
X9775000Y-72340280D03*
X12315000Y-72340280D03*
X27555000Y-72340280D03*
X25015000Y-72340280D03*
X22475000Y-72340280D03*
X19935000Y-72340280D03*
X17395000Y-72340280D03*
X14855000Y-72340280D03*
D12*
X55749000Y-91009280D03*
D13*
X55749000Y-93549280D03*
X53209000Y-91009280D03*
X53209000Y-93549280D03*
X50669000Y-91009280D03*
X50669000Y-93549280D03*
X48129000Y-91009280D03*
X48129000Y-93549280D03*
X45589000Y-91009280D03*
X45589000Y-93549280D03*
X43049000Y-91009280D03*
X43049000Y-93549280D03*
X40509000Y-91009280D03*
X40509000Y-93549280D03*
X37969000Y-91009280D03*
X37969000Y-93549280D03*
X35429000Y-91009280D03*
X35429000Y-93549280D03*
X32889000Y-91009280D03*
X32889000Y-93549280D03*
D14*
X41200000Y-44050000D03*
D15*
X41200000Y-42780000D03*
X41200000Y-41510000D03*
X41200000Y-40240000D03*
X41200000Y-38970000D03*
X39930000Y-42780000D03*
X39930000Y-41510000D03*
X39930000Y-40240000D03*
X39930000Y-38970000D03*
X39930000Y-44050000D03*
D11*
X19757200Y-6909880D03*
X17217200Y-6909880D03*
X14677200Y-6909880D03*
X12137200Y-6909880D03*
X42160000Y-6935280D03*
X39620000Y-6935280D03*
X37080000Y-6935280D03*
X33905000Y-6935280D03*
X31365000Y-6935280D03*
X28825000Y-6935280D03*
X4695000Y-86310280D03*
X7235000Y-86310280D03*
X9775000Y-86310280D03*
X12315000Y-86310280D03*
X27555000Y-86310280D03*
X25015000Y-86310280D03*
X22475000Y-86310280D03*
X19935000Y-86310280D03*
X17395000Y-86310280D03*
X14855000Y-86310280D03*
X25650000Y-6935280D03*
X23110000Y-6935280D03*
X62480000Y-77420280D03*
X65020000Y-77420280D03*
X67560000Y-77420280D03*
X70100000Y-77420280D03*
X85340000Y-77420280D03*
X82800000Y-77420280D03*
X80260000Y-77420280D03*
X77720000Y-77420280D03*
X75180000Y-77420280D03*
X72640000Y-77420280D03*
X68830000Y-16460280D03*
X71370000Y-16460280D03*
X73910000Y-16460280D03*
X76450000Y-16460280D03*
X91690000Y-16460280D03*
X89150000Y-16460280D03*
X86610000Y-16460280D03*
X84070000Y-16460280D03*
X81530000Y-16460280D03*
X78990000Y-16460280D03*
X62480000Y-91390280D03*
X65020000Y-91390280D03*
X67560000Y-91390280D03*
X70100000Y-91390280D03*
X85340000Y-91390280D03*
X82800000Y-91390280D03*
X80260000Y-91390280D03*
X77720000Y-91390280D03*
X75180000Y-91390280D03*
X72640000Y-91390280D03*
X68830000Y-25350280D03*
X71370000Y-25350280D03*
X73910000Y-25350280D03*
X76450000Y-25350280D03*
X91690000Y-25350280D03*
X89150000Y-25350280D03*
X86610000Y-25350280D03*
X84070000Y-25350280D03*
X81530000Y-25350280D03*
X78990000Y-25350280D03*
X58035000Y-6935280D03*
X55495000Y-6935280D03*
X52955000Y-6935280D03*
X50415000Y-6935280D03*
X47875000Y-6935280D03*
X45335000Y-6935280D03*
X73275000Y-6935280D03*
X70735000Y-6935280D03*
X68195000Y-6935280D03*
X65655000Y-6935280D03*
X63115000Y-6935280D03*
X60575000Y-6935280D03*
D16*
X93250000Y-93750280D03*
X6250000Y-6250280D03*
X93250000Y-6250280D03*
X6250000Y-93750280D03*
D17*
X37334000Y-33986280D03*
X46478000Y-21794280D03*
X36826000Y-21286280D03*
X35810000Y-61926280D03*
X42750000Y-79750000D03*
X38250000Y-79750000D03*
X38750000Y-84750000D03*
X45750000Y-85750000D03*
X49250000Y-85750000D03*
X49250000Y-80250000D03*
X45750000Y-75750000D03*
X42750000Y-75750000D03*
X42750000Y-73750000D03*
X45750000Y-73750000D03*
X45750000Y-71750000D03*
X42750000Y-71750000D03*
X42750000Y-69750000D03*
X45750000Y-69750000D03*
X45750000Y-67750000D03*
X42750000Y-67750000D03*
X26250000Y-97250000D03*
X57200000Y-87250000D03*
X69350000Y-12050000D03*
X88050000Y-21050000D03*
X43750000Y-38250000D03*
X4250000Y-32250000D03*
X2750000Y-32250000D03*
X46000000Y-48150000D03*
X34050000Y-37000000D03*
X37080000Y-45081000D03*
X36445000Y-42287000D03*
X1250000Y-32250000D03*
X51250000Y-40250000D03*
X49250000Y-40250000D03*
X49250000Y-41750000D03*
X51250000Y-41750000D03*
X50750000Y-44750000D03*
X49250000Y-43250000D03*
X51250000Y-43250000D03*
X55750000Y-44750000D03*
X55250000Y-43250000D03*
X53250000Y-43250000D03*
X84750000Y-59250000D03*
X82750000Y-59250000D03*
X80250000Y-59250000D03*
X78250000Y-59250000D03*
X76250000Y-59250000D03*
X74250000Y-59250000D03*
X72250000Y-59250000D03*
X70250000Y-59250000D03*
X68250000Y-59250000D03*
X66250000Y-59250000D03*
X64250000Y-59250000D03*
X62250000Y-59250000D03*
X60250000Y-59250000D03*
X58250000Y-59250000D03*
X56250000Y-59250000D03*
X54750000Y-58250000D03*
X57750000Y-75750000D03*
X59250000Y-68250000D03*
X60750000Y-62750000D03*
X89250000Y-72250000D03*
X87750000Y-72250000D03*
X86250000Y-72250000D03*
X88388000Y-63323280D03*
X88388000Y-62053280D03*
X88388000Y-60656280D03*
X88261000Y-50750280D03*
X88261000Y-48972280D03*
X88261000Y-47194280D03*
X88261000Y-45670280D03*
X89150000Y-30938280D03*
X87880000Y-30938280D03*
X87880000Y-29414280D03*
X89150000Y-29414280D03*
X84750000Y-72250000D03*
X32571500Y-56193500D03*
X51431000Y-58924000D03*
X49907000Y-60956000D03*
X46668500Y-66861500D03*
X43684000Y-63496000D03*
X37143500Y-63178500D03*
X41715500Y-60067000D03*
X38477000Y-61019500D03*
X70700000Y-65550000D03*
X30550000Y-51250000D03*
X29650000Y-86450000D03*
X31301500Y-83198780D03*
X20450000Y-43250000D03*
X22475000Y-67941000D03*
X19250000Y-41050000D03*
X28250000Y-67850000D03*
X8050000Y-40650000D03*
X13966000Y-33651000D03*
X7108000Y-61718000D03*
X7362000Y-59940000D03*
X5584000Y-77720000D03*
X18919000Y-58289000D03*
D18*
X20062000Y-45543280D03*
X18665000Y-30095000D03*
X42160000Y-27936000D03*
D17*
X33397000Y-24126000D03*
X31873000Y-24126000D03*
D18*
X67650000Y-31850000D03*
X67650000Y-33050000D03*
X25650000Y-41150000D03*
D17*
X18250000Y-10750000D03*
X18250000Y-12250000D03*
X18250000Y-13750000D03*
X19750000Y-13750000D03*
X19750000Y-12250000D03*
X19750000Y-10750000D03*
X10250000Y-14250000D03*
X8750000Y-14250000D03*
X7250000Y-14250000D03*
X5750000Y-14250000D03*
X12250000Y-17250000D03*
X12250000Y-18750000D03*
X16250000Y-20750000D03*
X12250000Y-20750000D03*
X31428500Y-13285280D03*
X27491500Y-76975780D03*
X37080000Y-27826780D03*
X50034000Y-18174780D03*
X49145000Y-21540280D03*
X73021000Y-44463780D03*
X82482500Y-44590780D03*
X82419000Y-43384280D03*
X84387500Y-42431780D03*
X85086000Y-43320780D03*
X85086000Y-44908280D03*
X85086000Y-46114780D03*
X84959000Y-47321280D03*
X66607500Y-44527280D03*
X65147000Y-44019280D03*
X66036000Y-42304780D03*
X71370000Y-44781280D03*
X71179500Y-43384280D03*
X26666000Y-56465280D03*
X27174000Y-57862280D03*
X71370000Y-46178280D03*
X67814000Y-47194280D03*
X67814000Y-46178280D03*
X29206000Y-43130280D03*
X33524000Y-42541000D03*
X80895000Y-83770280D03*
X85213000Y-33224280D03*
X80895000Y-85040280D03*
X82673000Y-31192280D03*
X80895000Y-86564280D03*
X79879000Y-29668280D03*
X77593000Y-33478280D03*
X68703000Y-82500280D03*
X75307000Y-32462280D03*
X68703000Y-83770280D03*
X78863000Y-70181280D03*
X59432000Y-35510280D03*
X78863000Y-71832280D03*
X57527000Y-34494280D03*
X78990000Y-67514280D03*
X67433000Y-36399280D03*
X78863000Y-68911280D03*
X65401000Y-36272280D03*
X68322000Y-68784280D03*
X61337000Y-38558280D03*
X68322000Y-67514280D03*
X63369000Y-39193280D03*
X68322000Y-71578280D03*
X53717000Y-34875280D03*
X68322000Y-70181280D03*
X55749000Y-38050280D03*
D18*
X34050000Y-33950000D03*
X34050000Y-31950000D03*
X30550000Y-35350000D03*
X28190000Y-35256280D03*
X28150000Y-35250000D03*
X21150000Y-30550000D03*
X21150000Y-32550000D03*
X21350000Y-34850000D03*
X22750000Y-29650000D03*
X27850000Y-38050000D03*
X25777000Y-35256280D03*
X25950000Y-37450000D03*
X26250000Y-29668280D03*
X29550000Y-29650000D03*
X32450000Y-29668280D03*
X33650000Y-30250000D03*
X33350000Y-35250000D03*
D17*
X69973000Y-30430280D03*
X68703000Y-86310280D03*
X72767000Y-31446280D03*
X68703000Y-85040280D03*
D19*
X17331500Y-60130500D03*
X32063500Y-60130500D03*
D18*
X31500000Y-40000000D03*
X30500000Y-39000000D03*
D19*
X5250000Y-50450000D03*
X11450000Y-50450000D03*
X68068000Y-41288780D03*
X46795500Y-41271000D03*
M02*
