M48
;DRILL file {KiCad 4.0.2+e4-6225~38~ubuntu14.04.1-stable} date Do 30 Jun 2016 13:05:13 CEST
;FORMAT={-:-/ absolute / metric / decimal}
FMAT,2
METRIC,TZ
T1C0.300
T2C0.508
T3C0.650
T4C0.998
T5C1.000
T6C1.016
T7C3.000
%
G90
G05
M71
T1
X18.665Y-30.095
X20.062Y-45.543
X21.15Y-30.55
X21.15Y-32.55
X21.35Y-34.85
X22.75Y-29.65
X25.65Y-41.15
X25.777Y-35.256
X25.95Y-37.45
X26.25Y-29.668
X27.85Y-38.05
X28.15Y-35.25
X28.19Y-35.256
X29.55Y-29.65
X30.5Y-39.
X30.55Y-35.35
X31.5Y-40.
X32.45Y-29.668
X33.35Y-35.25
X33.65Y-30.25
X34.05Y-31.95
X34.05Y-33.95
X42.16Y-27.936
X67.65Y-31.85
X67.65Y-33.05
T2
X1.25Y-32.25
X2.75Y-32.25
X4.25Y-32.25
X5.584Y-77.72
X5.75Y-14.25
X7.108Y-61.718
X7.25Y-14.25
X7.362Y-59.94
X8.05Y-40.65
X8.75Y-14.25
X10.25Y-14.25
X12.25Y-17.25
X12.25Y-18.75
X12.25Y-20.75
X13.966Y-33.651
X16.25Y-20.75
X18.25Y-10.75
X18.25Y-12.25
X18.25Y-13.75
X18.919Y-58.289
X19.25Y-41.05
X19.75Y-10.75
X19.75Y-12.25
X19.75Y-13.75
X20.45Y-43.25
X22.475Y-67.941
X26.25Y-97.25
X26.666Y-56.465
X27.174Y-57.862
X27.491Y-76.975
X28.25Y-67.85
X29.206Y-43.13
X29.65Y-86.45
X30.55Y-51.25
X31.301Y-83.198
X31.428Y-13.285
X31.873Y-24.126
X32.572Y-56.193
X33.397Y-24.126
X33.524Y-42.541
X34.05Y-37.
X35.81Y-61.926
X36.445Y-42.287
X36.826Y-21.286
X37.08Y-27.826
X37.08Y-45.081
X37.143Y-63.178
X37.334Y-33.986
X38.25Y-79.75
X38.477Y-61.019
X38.75Y-84.75
X41.715Y-60.067
X42.75Y-67.75
X42.75Y-69.75
X42.75Y-71.75
X42.75Y-73.75
X42.75Y-75.75
X42.75Y-79.75
X43.684Y-63.496
X43.75Y-38.25
X45.75Y-67.75
X45.75Y-69.75
X45.75Y-71.75
X45.75Y-73.75
X45.75Y-75.75
X45.75Y-85.75
X46.Y-48.15
X46.478Y-21.794
X46.668Y-66.861
X49.145Y-21.54
X49.25Y-40.25
X49.25Y-41.75
X49.25Y-43.25
X49.25Y-80.25
X49.25Y-85.75
X49.907Y-60.956
X50.034Y-18.174
X50.75Y-44.75
X51.25Y-40.25
X51.25Y-41.75
X51.25Y-43.25
X51.431Y-58.924
X53.25Y-43.25
X53.717Y-34.875
X54.75Y-58.25
X55.25Y-43.25
X55.749Y-38.05
X55.75Y-44.75
X56.25Y-59.25
X57.2Y-87.25
X57.527Y-34.494
X57.75Y-75.75
X58.25Y-59.25
X59.25Y-68.25
X59.432Y-35.51
X60.25Y-59.25
X60.75Y-62.75
X61.337Y-38.558
X62.25Y-59.25
X63.369Y-39.193
X64.25Y-59.25
X65.147Y-44.019
X65.401Y-36.272
X66.036Y-42.304
X66.25Y-59.25
X66.608Y-44.527
X67.433Y-36.399
X67.814Y-46.178
X67.814Y-47.194
X68.25Y-59.25
X68.322Y-67.514
X68.322Y-68.784
X68.322Y-70.181
X68.322Y-71.578
X68.703Y-82.5
X68.703Y-83.77
X68.703Y-85.04
X68.703Y-86.31
X69.35Y-12.05
X69.973Y-30.43
X70.25Y-59.25
X70.7Y-65.55
X71.179Y-43.384
X71.37Y-44.781
X71.37Y-46.178
X72.25Y-59.25
X72.767Y-31.446
X73.021Y-44.463
X74.25Y-59.25
X75.307Y-32.462
X76.25Y-59.25
X77.593Y-33.478
X78.25Y-59.25
X78.863Y-68.911
X78.863Y-70.181
X78.863Y-71.832
X78.99Y-67.514
X79.879Y-29.668
X80.25Y-59.25
X80.895Y-83.77
X80.895Y-85.04
X80.895Y-86.564
X82.419Y-43.384
X82.483Y-44.59
X82.673Y-31.192
X82.75Y-59.25
X84.388Y-42.431
X84.75Y-59.25
X84.75Y-72.25
X84.959Y-47.321
X85.086Y-43.32
X85.086Y-44.908
X85.086Y-46.114
X85.213Y-33.224
X86.25Y-72.25
X87.75Y-72.25
X87.88Y-29.414
X87.88Y-30.938
X88.05Y-21.05
X88.261Y-45.67
X88.261Y-47.194
X88.261Y-48.972
X88.261Y-50.75
X88.388Y-60.656
X88.388Y-62.053
X88.388Y-63.323
X89.15Y-29.414
X89.15Y-30.938
X89.25Y-72.25
T3
X39.93Y-38.97
X39.93Y-40.24
X39.93Y-41.51
X39.93Y-42.78
X39.93Y-44.05
X41.2Y-38.97
X41.2Y-40.24
X41.2Y-41.51
X41.2Y-42.78
X41.2Y-44.05
T4
X4.695Y-72.34
X4.695Y-86.31
X7.235Y-72.34
X7.235Y-86.31
X9.775Y-72.34
X9.775Y-86.31
X12.137Y-6.91
X12.315Y-72.34
X12.315Y-86.31
X14.677Y-6.91
X14.855Y-72.34
X14.855Y-86.31
X17.217Y-6.91
X17.395Y-72.34
X17.395Y-86.31
X19.757Y-6.91
X19.935Y-72.34
X19.935Y-86.31
X22.475Y-72.34
X22.475Y-86.31
X23.11Y-6.935
X25.015Y-72.34
X25.015Y-86.31
X25.65Y-6.935
X27.555Y-72.34
X27.555Y-86.31
X28.825Y-6.935
X31.365Y-6.935
X33.905Y-6.935
X37.08Y-6.935
X39.62Y-6.935
X42.16Y-6.935
X45.335Y-6.935
X47.875Y-6.935
X50.415Y-6.935
X52.955Y-6.935
X55.495Y-6.935
X58.035Y-6.935
X60.575Y-6.935
X62.48Y-77.42
X62.48Y-91.39
X63.115Y-6.935
X65.02Y-77.42
X65.02Y-91.39
X65.655Y-6.935
X67.56Y-77.42
X67.56Y-91.39
X68.195Y-6.935
X68.83Y-16.46
X68.83Y-25.35
X70.1Y-77.42
X70.1Y-91.39
X70.735Y-6.935
X71.37Y-16.46
X71.37Y-25.35
X72.64Y-77.42
X72.64Y-91.39
X73.275Y-6.935
X73.91Y-16.46
X73.91Y-25.35
X75.18Y-77.42
X75.18Y-91.39
X76.45Y-16.46
X76.45Y-25.35
X77.72Y-77.42
X77.72Y-91.39
X78.99Y-16.46
X78.99Y-25.35
X80.26Y-77.42
X80.26Y-91.39
X81.53Y-16.46
X81.53Y-25.35
X82.8Y-77.42
X82.8Y-91.39
X84.07Y-16.46
X84.07Y-25.35
X85.34Y-77.42
X85.34Y-91.39
X86.61Y-16.46
X86.61Y-25.35
X89.15Y-16.46
X89.15Y-25.35
X91.69Y-16.46
X91.69Y-25.35
T5
X5.25Y-50.45
X11.45Y-50.45
X17.331Y-60.13
X32.063Y-60.13
X46.795Y-41.271
X68.068Y-41.288
T6
X32.889Y-91.009
X32.889Y-93.549
X35.429Y-91.009
X35.429Y-93.549
X37.969Y-91.009
X37.969Y-93.549
X40.509Y-91.009
X40.509Y-93.549
X43.049Y-91.009
X43.049Y-93.549
X45.589Y-91.009
X45.589Y-93.549
X48.129Y-91.009
X48.129Y-93.549
X50.669Y-91.009
X50.669Y-93.549
X53.209Y-91.009
X53.209Y-93.549
X55.749Y-91.009
X55.749Y-93.549
T7
X6.25Y-6.25
X6.25Y-93.75
X93.25Y-6.25
X93.25Y-93.75
T0
M30
