G04 #@! TF.FileFunction,Soldermask,Top*
%FSLAX46Y46*%
G04 Gerber Fmt 4.6, Leading zero omitted, Abs format (unit mm)*
G04 Created by KiCad (PCBNEW 4.0.2+e4-6225~38~ubuntu15.04.1-stable) date Do 30 Jun 2016 00:48:15 CEST*
%MOMM*%
G01*
G04 APERTURE LIST*
%ADD10C,0.150000*%
%ADD11O,1.506220X3.014980*%
%ADD12R,0.900000X0.900000*%
%ADD13R,1.900000X1.100000*%
%ADD14R,1.250000X1.000000*%
%ADD15R,1.000000X1.250000*%
%ADD16R,1.727200X1.727200*%
%ADD17O,1.727200X1.727200*%
%ADD18R,2.000000X0.600000*%
%ADD19R,1.950000X0.600000*%
%ADD20O,2.286000X1.574800*%
%ADD21R,1.500000X0.600000*%
%ADD22R,1.300000X1.500000*%
%ADD23R,1.500000X1.300000*%
%ADD24R,1.700000X0.900000*%
%ADD25R,0.600000X1.550000*%
%ADD26R,0.800100X1.800860*%
%ADD27R,1.800860X0.800100*%
%ADD28R,1.000000X1.600000*%
%ADD29R,1.600000X1.000000*%
%ADD30R,1.651000X3.048000*%
%ADD31R,6.096000X6.096000*%
%ADD32R,0.250000X1.300000*%
%ADD33R,1.300000X0.250000*%
%ADD34R,1.600200X2.600960*%
%ADD35R,1.050000X1.050000*%
%ADD36C,1.050000*%
%ADD37R,0.900000X0.600000*%
%ADD38C,0.050000*%
%ADD39R,0.300000X1.450000*%
%ADD40C,6.000000*%
%ADD41C,0.889000*%
%ADD42C,0.600000*%
%ADD43C,2.000000*%
G04 APERTURE END LIST*
D10*
D11*
X4695000Y-72340280D03*
X7235000Y-72340280D03*
X9775000Y-72340280D03*
X12315000Y-72340280D03*
X27555000Y-72340280D03*
X25015000Y-72340280D03*
X22475000Y-72340280D03*
X19935000Y-72340280D03*
X17395000Y-72340280D03*
X14855000Y-72340280D03*
D12*
X5870000Y-67490280D03*
X9870000Y-67490280D03*
X7210000Y-67490280D03*
X8530000Y-67490280D03*
X7210000Y-64490280D03*
X5870000Y-64490280D03*
X9870000Y-64490280D03*
X8530000Y-64490280D03*
D13*
X25421400Y-31192280D03*
X29688600Y-33732280D03*
X29688600Y-31192280D03*
X25421400Y-33732280D03*
D14*
X22729000Y-31462280D03*
X22729000Y-33462280D03*
X32127000Y-33462280D03*
X32127000Y-31462280D03*
X33841500Y-41145780D03*
X33841500Y-39145780D03*
X36572000Y-41145780D03*
X36572000Y-39145780D03*
X15490000Y-45478000D03*
X15490000Y-47478000D03*
X28825000Y-59370280D03*
X28825000Y-57370280D03*
X52574000Y-44797280D03*
X52574000Y-46797280D03*
D15*
X49065500Y-19952780D03*
X47065500Y-19952780D03*
X43255500Y-60829000D03*
X45255500Y-60829000D03*
D14*
X4750000Y-30750000D03*
X4750000Y-28750000D03*
X33550000Y-20850000D03*
X33550000Y-22850000D03*
D16*
X55749000Y-91009280D03*
D17*
X55749000Y-93549280D03*
X53209000Y-91009280D03*
X53209000Y-93549280D03*
X50669000Y-91009280D03*
X50669000Y-93549280D03*
X48129000Y-91009280D03*
X48129000Y-93549280D03*
X45589000Y-91009280D03*
X45589000Y-93549280D03*
X43049000Y-91009280D03*
X43049000Y-93549280D03*
X40509000Y-91009280D03*
X40509000Y-93549280D03*
X37969000Y-91009280D03*
X37969000Y-93549280D03*
X35429000Y-91009280D03*
X35429000Y-93549280D03*
X32889000Y-91009280D03*
X32889000Y-93549280D03*
D18*
X39365000Y-63115000D03*
X39365000Y-64385000D03*
X39365000Y-65655000D03*
X39365000Y-66925000D03*
X39365000Y-68195000D03*
X39365000Y-69465000D03*
X39365000Y-70735000D03*
X39365000Y-72005000D03*
X39365000Y-73275000D03*
X39365000Y-74545000D03*
X39365000Y-75815000D03*
X39365000Y-77085000D03*
X48765000Y-77085000D03*
X48765000Y-75815000D03*
X48765000Y-74545000D03*
X48765000Y-73275000D03*
X48765000Y-72005000D03*
X48765000Y-70735000D03*
X48765000Y-69465000D03*
X48765000Y-68195000D03*
X48765000Y-66925000D03*
X48765000Y-65655000D03*
X48765000Y-64385000D03*
X48765000Y-63115000D03*
D19*
X73401000Y-46051280D03*
X73401000Y-47321280D03*
X73401000Y-48591280D03*
X73401000Y-49861280D03*
X73401000Y-51131280D03*
X73401000Y-52401280D03*
X73401000Y-53671280D03*
X73401000Y-54941280D03*
X73401000Y-56211280D03*
X73401000Y-57481280D03*
X82801000Y-57481280D03*
X82801000Y-56211280D03*
X82801000Y-54941280D03*
X82801000Y-53671280D03*
X82801000Y-52401280D03*
X82801000Y-51131280D03*
X82801000Y-49861280D03*
X82801000Y-48591280D03*
X82801000Y-47321280D03*
X82801000Y-46051280D03*
D20*
X22475000Y-20443000D03*
X22475000Y-22983000D03*
X22475000Y-25523000D03*
X30095000Y-25523000D03*
X30095000Y-22983000D03*
X30095000Y-20443000D03*
D21*
X38885000Y-19420280D03*
X38885000Y-20690280D03*
X38885000Y-21960280D03*
X38885000Y-23230280D03*
X38885000Y-24500280D03*
X38885000Y-25770280D03*
X38885000Y-27040280D03*
X44285000Y-27040280D03*
X44285000Y-25770280D03*
X44285000Y-24500280D03*
X44285000Y-23230280D03*
X44285000Y-21960280D03*
X44285000Y-20690280D03*
X44285000Y-19420280D03*
D22*
X26285000Y-78610280D03*
X26285000Y-81310280D03*
X20570000Y-67386000D03*
X20570000Y-64686000D03*
X28825000Y-78610280D03*
X28825000Y-81310280D03*
X31365000Y-81310280D03*
X31365000Y-78610280D03*
X52701000Y-62273000D03*
X52701000Y-64973000D03*
X22475000Y-12570280D03*
X22475000Y-15270280D03*
X35585000Y-26080280D03*
X35585000Y-23380280D03*
X60575000Y-15270280D03*
X60575000Y-12570280D03*
X63115000Y-15270280D03*
X63115000Y-12570280D03*
D10*
G36*
X49184543Y-14310585D02*
X48265305Y-15229823D01*
X47204645Y-14169163D01*
X48123883Y-13249925D01*
X49184543Y-14310585D01*
X49184543Y-14310585D01*
G37*
G36*
X47275355Y-12401397D02*
X46356117Y-13320635D01*
X45295457Y-12259975D01*
X46214695Y-11340737D01*
X47275355Y-12401397D01*
X47275355Y-12401397D01*
G37*
G36*
X52994543Y-14310585D02*
X52075305Y-15229823D01*
X51014645Y-14169163D01*
X51933883Y-13249925D01*
X52994543Y-14310585D01*
X52994543Y-14310585D01*
G37*
G36*
X51085355Y-12401397D02*
X50166117Y-13320635D01*
X49105457Y-12259975D01*
X50024695Y-11340737D01*
X51085355Y-12401397D01*
X51085355Y-12401397D01*
G37*
D22*
X42160000Y-14635280D03*
X42160000Y-11935280D03*
X37080000Y-14635280D03*
X37080000Y-11935280D03*
X33905000Y-14635280D03*
X33905000Y-11935280D03*
X28825000Y-14635280D03*
X28825000Y-11935280D03*
X48600000Y-46650000D03*
X48600000Y-49350000D03*
D23*
X34269500Y-56320500D03*
X36969500Y-56320500D03*
D22*
X85750000Y-62400000D03*
X85750000Y-65100000D03*
D23*
X65600000Y-62750000D03*
X62900000Y-62750000D03*
D22*
X82673000Y-68450280D03*
X82673000Y-71150280D03*
X57750000Y-71400000D03*
X57750000Y-74100000D03*
X52574000Y-48892280D03*
X52574000Y-51592280D03*
D24*
X69719000Y-48474780D03*
X69719000Y-51374780D03*
D23*
X18839000Y-50496280D03*
X21539000Y-50496280D03*
D25*
X21840000Y-58530280D03*
X23110000Y-58530280D03*
X24380000Y-58530280D03*
X25650000Y-58530280D03*
X25650000Y-53130280D03*
X24380000Y-53130280D03*
X23110000Y-53130280D03*
X21840000Y-53130280D03*
D10*
G36*
X30847695Y-65758043D02*
X29928457Y-64838805D01*
X30989117Y-63778145D01*
X31908355Y-64697383D01*
X30847695Y-65758043D01*
X30847695Y-65758043D01*
G37*
G36*
X32756883Y-63848855D02*
X31837645Y-62929617D01*
X32898305Y-61868957D01*
X33817543Y-62788195D01*
X32756883Y-63848855D01*
X32756883Y-63848855D01*
G37*
D26*
X57300000Y-65751140D03*
X59200000Y-65751140D03*
X58250000Y-62748860D03*
D27*
X56748860Y-83800000D03*
X56748860Y-85700000D03*
X59751140Y-84750000D03*
X69614860Y-62119280D03*
X69614860Y-64019280D03*
X72617140Y-63069280D03*
D28*
X45359000Y-17222280D03*
X48359000Y-17222280D03*
X30750000Y-97250000D03*
X27750000Y-97250000D03*
D29*
X31428500Y-17706280D03*
X31428500Y-14706280D03*
D28*
X73695500Y-11697780D03*
X70695500Y-11697780D03*
D15*
X13650000Y-31850000D03*
X15650000Y-31850000D03*
X91550000Y-20950000D03*
X89550000Y-20950000D03*
D14*
X7298500Y-78261780D03*
X7298500Y-80261780D03*
D15*
X5568000Y-62226000D03*
X3568000Y-62226000D03*
D29*
X3628200Y-77698280D03*
X3628200Y-80698280D03*
D28*
X6068000Y-59432000D03*
X3068000Y-59432000D03*
D15*
X11029000Y-41652000D03*
X9029000Y-41652000D03*
D14*
X32000000Y-51400000D03*
X32000000Y-49400000D03*
X18157000Y-45478000D03*
X18157000Y-47478000D03*
X35600000Y-45400000D03*
X35600000Y-47400000D03*
D15*
X30750000Y-37000000D03*
X32750000Y-37000000D03*
X10553000Y-33651000D03*
X12553000Y-33651000D03*
D30*
X5464000Y-25250280D03*
D31*
X7750000Y-18900280D03*
D30*
X10036000Y-25250280D03*
D32*
X29225500Y-39542280D03*
X28725500Y-39542280D03*
X28225500Y-39542280D03*
X27725500Y-39542280D03*
X27225500Y-39542280D03*
X26725500Y-39542280D03*
X26225500Y-39542280D03*
X25725500Y-39542280D03*
X25225500Y-39542280D03*
X24725500Y-39542280D03*
X24225500Y-39542280D03*
X23725500Y-39542280D03*
D33*
X22125500Y-41142280D03*
X22125500Y-41642280D03*
X22125500Y-42142280D03*
X22125500Y-42642280D03*
X22125500Y-43142280D03*
X22125500Y-43642280D03*
X22125500Y-44142280D03*
X22125500Y-44642280D03*
X22125500Y-45142280D03*
X22125500Y-45642280D03*
X22125500Y-46142280D03*
X22125500Y-46642280D03*
D32*
X23725500Y-48242280D03*
X24225500Y-48242280D03*
X24725500Y-48242280D03*
X25225500Y-48242280D03*
X25725500Y-48242280D03*
X26225500Y-48242280D03*
X26725500Y-48242280D03*
X27225500Y-48242280D03*
X27725500Y-48242280D03*
X28225500Y-48242280D03*
X28725500Y-48242280D03*
X29225500Y-48242280D03*
D33*
X30825500Y-46642280D03*
X30825500Y-46142280D03*
X30825500Y-45642280D03*
X30825500Y-45142280D03*
X30825500Y-44642280D03*
X30825500Y-44142280D03*
X30825500Y-43642280D03*
X30825500Y-43142280D03*
X30825500Y-42642280D03*
X30825500Y-42142280D03*
X30825500Y-41642280D03*
X30825500Y-41142280D03*
D29*
X2250000Y-28250000D03*
X2250000Y-31250000D03*
D34*
X14250000Y-24551140D03*
X14250000Y-20949420D03*
D15*
X24250000Y-36450000D03*
X22250000Y-36450000D03*
D22*
X18650000Y-34600000D03*
X18650000Y-31900000D03*
D14*
X37000000Y-35350000D03*
X37000000Y-37350000D03*
D35*
X41200000Y-44050000D03*
D36*
X41200000Y-42780000D03*
X41200000Y-41510000D03*
X41200000Y-40240000D03*
X41200000Y-38970000D03*
X39930000Y-42780000D03*
X39930000Y-41510000D03*
X39930000Y-40240000D03*
X39930000Y-38970000D03*
X39930000Y-44050000D03*
D12*
X64155000Y-82405280D03*
X64155000Y-86405280D03*
X64155000Y-83745280D03*
X64155000Y-85065280D03*
X67155000Y-83745280D03*
X67155000Y-82405280D03*
X67155000Y-86405280D03*
X67155000Y-85065280D03*
X75585000Y-82405280D03*
X75585000Y-86405280D03*
X75585000Y-83745280D03*
X75585000Y-85065280D03*
X78585000Y-83745280D03*
X78585000Y-82405280D03*
X78585000Y-86405280D03*
X78585000Y-85065280D03*
X66647000Y-71546280D03*
X66647000Y-67546280D03*
X66647000Y-70206280D03*
X66647000Y-68886280D03*
X63647000Y-70206280D03*
X63647000Y-71546280D03*
X63647000Y-67546280D03*
X63647000Y-68886280D03*
X77315000Y-71546280D03*
X77315000Y-67546280D03*
X77315000Y-70206280D03*
X77315000Y-68886280D03*
X74315000Y-70206280D03*
X74315000Y-71546280D03*
X74315000Y-67546280D03*
X74315000Y-68886280D03*
X10315000Y-81460280D03*
X14315000Y-81460280D03*
X11655000Y-81460280D03*
X12975000Y-81460280D03*
X11655000Y-78460280D03*
X10315000Y-78460280D03*
X14315000Y-78460280D03*
X12975000Y-78460280D03*
X17935000Y-81460280D03*
X21935000Y-81460280D03*
X19275000Y-81460280D03*
X20595000Y-81460280D03*
X19275000Y-78460280D03*
X17935000Y-78460280D03*
X21935000Y-78460280D03*
X20595000Y-78460280D03*
X13490000Y-67490280D03*
X17490000Y-67490280D03*
X14830000Y-67490280D03*
X16150000Y-67490280D03*
X14830000Y-64490280D03*
X13490000Y-64490280D03*
X17490000Y-64490280D03*
X16150000Y-64490280D03*
D11*
X19757200Y-6909880D03*
X17217200Y-6909880D03*
X14677200Y-6909880D03*
X12137200Y-6909880D03*
D37*
X24507000Y-16460280D03*
X26793000Y-16460280D03*
D11*
X42160000Y-6935280D03*
X39620000Y-6935280D03*
X37080000Y-6935280D03*
X33905000Y-6935280D03*
X31365000Y-6935280D03*
X28825000Y-6935280D03*
X4695000Y-86310280D03*
X7235000Y-86310280D03*
X9775000Y-86310280D03*
X12315000Y-86310280D03*
X27555000Y-86310280D03*
X25015000Y-86310280D03*
X22475000Y-86310280D03*
X19935000Y-86310280D03*
X17395000Y-86310280D03*
X14855000Y-86310280D03*
X25650000Y-6935280D03*
X23110000Y-6935280D03*
X62480000Y-77420280D03*
X65020000Y-77420280D03*
X67560000Y-77420280D03*
X70100000Y-77420280D03*
X85340000Y-77420280D03*
X82800000Y-77420280D03*
X80260000Y-77420280D03*
X77720000Y-77420280D03*
X75180000Y-77420280D03*
X72640000Y-77420280D03*
X68830000Y-16460280D03*
X71370000Y-16460280D03*
X73910000Y-16460280D03*
X76450000Y-16460280D03*
X91690000Y-16460280D03*
X89150000Y-16460280D03*
X86610000Y-16460280D03*
X84070000Y-16460280D03*
X81530000Y-16460280D03*
X78990000Y-16460280D03*
X62480000Y-91390280D03*
X65020000Y-91390280D03*
X67560000Y-91390280D03*
X70100000Y-91390280D03*
X85340000Y-91390280D03*
X82800000Y-91390280D03*
X80260000Y-91390280D03*
X77720000Y-91390280D03*
X75180000Y-91390280D03*
X72640000Y-91390280D03*
X68830000Y-25350280D03*
X71370000Y-25350280D03*
X73910000Y-25350280D03*
X76450000Y-25350280D03*
X91690000Y-25350280D03*
X89150000Y-25350280D03*
X86610000Y-25350280D03*
X84070000Y-25350280D03*
X81530000Y-25350280D03*
X78990000Y-25350280D03*
X58035000Y-6935280D03*
X55495000Y-6935280D03*
X52955000Y-6935280D03*
X50415000Y-6935280D03*
X47875000Y-6935280D03*
X45335000Y-6935280D03*
X73275000Y-6935280D03*
X70735000Y-6935280D03*
X68195000Y-6935280D03*
X65655000Y-6935280D03*
X63115000Y-6935280D03*
X60575000Y-6935280D03*
D14*
X69528500Y-45209780D03*
X69528500Y-43209780D03*
D38*
X25777000Y-37396280D03*
X25777000Y-38196280D03*
D14*
X18919000Y-56957280D03*
X18919000Y-54957280D03*
D39*
X9279000Y-39315000D03*
X9779000Y-39315000D03*
X10279000Y-39315000D03*
X10779000Y-39315000D03*
X10779000Y-36115000D03*
X10279000Y-36115000D03*
X9779000Y-36115000D03*
X9279000Y-36115000D03*
D19*
X56256000Y-46051280D03*
X56256000Y-47321280D03*
X56256000Y-48591280D03*
X56256000Y-49861280D03*
X56256000Y-51131280D03*
X56256000Y-52401280D03*
X56256000Y-53671280D03*
X56256000Y-54941280D03*
X56256000Y-56211280D03*
X56256000Y-57481280D03*
X65656000Y-57481280D03*
X65656000Y-56211280D03*
X65656000Y-54941280D03*
X65656000Y-53671280D03*
X65656000Y-52401280D03*
X65656000Y-51131280D03*
X65656000Y-49861280D03*
X65656000Y-48591280D03*
X65656000Y-47321280D03*
X65656000Y-46051280D03*
D22*
X17050000Y-26600000D03*
X17050000Y-29300000D03*
D15*
X14550000Y-11150000D03*
X16550000Y-11150000D03*
D28*
X13750000Y-13550000D03*
X16750000Y-13550000D03*
D14*
X11150000Y-10850000D03*
X11150000Y-12850000D03*
D22*
X47494000Y-54559000D03*
X47494000Y-51859000D03*
X49399000Y-54559000D03*
X49399000Y-51859000D03*
X41779000Y-54559000D03*
X41779000Y-51859000D03*
X43684000Y-54559000D03*
X43684000Y-51859000D03*
X45589000Y-54559000D03*
X45589000Y-51859000D03*
D28*
X46946500Y-58860500D03*
X49946500Y-58860500D03*
D23*
X41033500Y-58289000D03*
X38333500Y-58289000D03*
D15*
X42700000Y-48150000D03*
X44700000Y-48150000D03*
D23*
X41300000Y-46350000D03*
X38600000Y-46350000D03*
D14*
X43750000Y-41750000D03*
X43750000Y-39750000D03*
D40*
X93250000Y-93750280D03*
X6250000Y-6250280D03*
X93250000Y-6250280D03*
X6250000Y-93750280D03*
D41*
X37334000Y-33986280D03*
X46478000Y-21794280D03*
X36826000Y-21286280D03*
X35810000Y-61926280D03*
X42750000Y-79750000D03*
X38250000Y-79750000D03*
X38750000Y-84750000D03*
X45750000Y-85750000D03*
X49250000Y-85750000D03*
X49250000Y-80250000D03*
X45750000Y-75750000D03*
X42750000Y-75750000D03*
X42750000Y-73750000D03*
X45750000Y-73750000D03*
X45750000Y-71750000D03*
X42750000Y-71750000D03*
X42750000Y-69750000D03*
X45750000Y-69750000D03*
X45750000Y-67750000D03*
X42750000Y-67750000D03*
X26250000Y-97250000D03*
X57200000Y-87250000D03*
X69350000Y-12050000D03*
X88050000Y-21050000D03*
X43750000Y-38250000D03*
X4250000Y-32250000D03*
X2750000Y-32250000D03*
X46000000Y-48150000D03*
X34050000Y-37000000D03*
X37080000Y-45081000D03*
X36445000Y-42287000D03*
X1250000Y-32250000D03*
X51250000Y-40250000D03*
X49250000Y-40250000D03*
X49250000Y-41750000D03*
X51250000Y-41750000D03*
X50750000Y-44750000D03*
X49250000Y-43250000D03*
X51250000Y-43250000D03*
X55750000Y-44750000D03*
X55250000Y-43250000D03*
X53250000Y-43250000D03*
X84750000Y-59250000D03*
X82750000Y-59250000D03*
X80250000Y-59250000D03*
X78250000Y-59250000D03*
X76250000Y-59250000D03*
X74250000Y-59250000D03*
X72250000Y-59250000D03*
X70250000Y-59250000D03*
X68250000Y-59250000D03*
X66250000Y-59250000D03*
X64250000Y-59250000D03*
X62250000Y-59250000D03*
X60250000Y-59250000D03*
X58250000Y-59250000D03*
X56250000Y-59250000D03*
X54750000Y-58250000D03*
X57750000Y-75750000D03*
X59250000Y-68250000D03*
X60750000Y-62750000D03*
X89250000Y-72250000D03*
X87750000Y-72250000D03*
X86250000Y-72250000D03*
X88388000Y-63323280D03*
X88388000Y-62053280D03*
X88388000Y-60656280D03*
X88261000Y-50750280D03*
X88261000Y-48972280D03*
X88261000Y-47194280D03*
X88261000Y-45670280D03*
X89150000Y-30938280D03*
X87880000Y-30938280D03*
X87880000Y-29414280D03*
X89150000Y-29414280D03*
X84750000Y-72250000D03*
X32571500Y-56193500D03*
X51431000Y-58924000D03*
X49907000Y-60956000D03*
X46668500Y-66861500D03*
X43684000Y-63496000D03*
X37143500Y-63178500D03*
X41715500Y-60067000D03*
X38477000Y-61019500D03*
X70700000Y-65550000D03*
X30550000Y-51250000D03*
X29650000Y-86450000D03*
X31301500Y-83198780D03*
X20450000Y-43250000D03*
X22475000Y-67941000D03*
X19250000Y-41050000D03*
X28250000Y-67850000D03*
X8050000Y-40650000D03*
X13966000Y-33651000D03*
X7108000Y-61718000D03*
X7362000Y-59940000D03*
X5584000Y-77720000D03*
X18919000Y-58289000D03*
D42*
X20062000Y-45543280D03*
X18665000Y-30095000D03*
X42160000Y-27936000D03*
D41*
X33397000Y-24126000D03*
X31873000Y-24126000D03*
D42*
X67650000Y-31850000D03*
X67650000Y-33050000D03*
X25650000Y-41150000D03*
D41*
X18250000Y-10750000D03*
X18250000Y-12250000D03*
X18250000Y-13750000D03*
X19750000Y-13750000D03*
X19750000Y-12250000D03*
X19750000Y-10750000D03*
X10250000Y-14250000D03*
X8750000Y-14250000D03*
X7250000Y-14250000D03*
X5750000Y-14250000D03*
X12250000Y-17250000D03*
X12250000Y-18750000D03*
X16250000Y-20750000D03*
X12250000Y-20750000D03*
X31428500Y-13285280D03*
X27491500Y-76975780D03*
X37080000Y-27826780D03*
X50034000Y-18174780D03*
X49145000Y-21540280D03*
X73021000Y-44463780D03*
X82482500Y-44590780D03*
X82419000Y-43384280D03*
X84387500Y-42431780D03*
X85086000Y-43320780D03*
X85086000Y-44908280D03*
X85086000Y-46114780D03*
X84959000Y-47321280D03*
X66607500Y-44527280D03*
X65147000Y-44019280D03*
X66036000Y-42304780D03*
X71370000Y-44781280D03*
X71179500Y-43384280D03*
X26666000Y-56465280D03*
X27174000Y-57862280D03*
X71370000Y-46178280D03*
X67814000Y-47194280D03*
X67814000Y-46178280D03*
X29206000Y-43130280D03*
X33524000Y-42541000D03*
X80895000Y-83770280D03*
X85213000Y-33224280D03*
X80895000Y-85040280D03*
X82673000Y-31192280D03*
X80895000Y-86564280D03*
X79879000Y-29668280D03*
X77593000Y-33478280D03*
X68703000Y-82500280D03*
X75307000Y-32462280D03*
X68703000Y-83770280D03*
X78863000Y-70181280D03*
X59432000Y-35510280D03*
X78863000Y-71832280D03*
X57527000Y-34494280D03*
X78990000Y-67514280D03*
X67433000Y-36399280D03*
X78863000Y-68911280D03*
X65401000Y-36272280D03*
X68322000Y-68784280D03*
X61337000Y-38558280D03*
X68322000Y-67514280D03*
X63369000Y-39193280D03*
X68322000Y-71578280D03*
X53717000Y-34875280D03*
X68322000Y-70181280D03*
X55749000Y-38050280D03*
D42*
X34050000Y-33950000D03*
X34050000Y-31950000D03*
X30550000Y-35350000D03*
X28190000Y-35256280D03*
X28150000Y-35250000D03*
X21150000Y-30550000D03*
X21150000Y-32550000D03*
X21350000Y-34850000D03*
X22750000Y-29650000D03*
X27850000Y-38050000D03*
X25777000Y-35256280D03*
X25950000Y-37450000D03*
X26250000Y-29668280D03*
X29550000Y-29650000D03*
X32450000Y-29668280D03*
X33650000Y-30250000D03*
X33350000Y-35250000D03*
D41*
X69973000Y-30430280D03*
X68703000Y-86310280D03*
X72767000Y-31446280D03*
X68703000Y-85040280D03*
D43*
X17331500Y-60130500D03*
X32063500Y-60130500D03*
D42*
X31500000Y-40000000D03*
X30500000Y-39000000D03*
D43*
X5250000Y-50450000D03*
X11450000Y-50450000D03*
X68068000Y-41288780D03*
X46795500Y-41271000D03*
M02*
