G04 #@! TF.FileFunction,Legend,Top*
%FSLAX46Y46*%
G04 Gerber Fmt 4.6, Leading zero omitted, Abs format (unit mm)*
G04 Created by KiCad (PCBNEW 4.0.2+e4-6225~38~ubuntu15.04.1-stable) date Do 30 Jun 2016 00:48:15 CEST*
%MOMM*%
G01*
G04 APERTURE LIST*
%ADD10C,0.150000*%
%ADD11C,0.300000*%
%ADD12C,0.250000*%
%ADD13C,0.200000*%
%ADD14C,0.127000*%
%ADD15C,0.381000*%
%ADD16C,0.152400*%
%ADD17O,1.506220X3.014980*%
%ADD18R,0.900000X0.900000*%
%ADD19R,1.900000X1.100000*%
%ADD20R,1.250000X1.000000*%
%ADD21R,1.000000X1.250000*%
%ADD22R,1.727200X1.727200*%
%ADD23O,1.727200X1.727200*%
%ADD24R,2.000000X0.600000*%
%ADD25R,1.950000X0.600000*%
%ADD26O,2.286000X1.574800*%
%ADD27R,1.500000X0.600000*%
%ADD28R,1.300000X1.500000*%
%ADD29R,1.500000X1.300000*%
%ADD30R,1.700000X0.900000*%
%ADD31R,0.600000X1.550000*%
%ADD32R,0.800100X1.800860*%
%ADD33R,1.800860X0.800100*%
%ADD34R,1.000000X1.600000*%
%ADD35R,1.600000X1.000000*%
%ADD36R,1.651000X3.048000*%
%ADD37R,6.096000X6.096000*%
%ADD38R,0.250000X1.300000*%
%ADD39R,1.300000X0.250000*%
%ADD40R,1.600200X2.600960*%
%ADD41R,1.050000X1.050000*%
%ADD42C,1.050000*%
%ADD43R,0.900000X0.600000*%
%ADD44C,0.050000*%
%ADD45R,0.300000X1.450000*%
%ADD46C,6.000000*%
%ADD47C,0.889000*%
%ADD48C,0.600000*%
%ADD49C,2.000000*%
G04 APERTURE END LIST*
D10*
D11*
X13514286Y-92138851D02*
X13514286Y-90638851D01*
X13871429Y-90638851D01*
X14085714Y-90710280D01*
X14228572Y-90853137D01*
X14300000Y-90995994D01*
X14371429Y-91281709D01*
X14371429Y-91495994D01*
X14300000Y-91781709D01*
X14228572Y-91924566D01*
X14085714Y-92067423D01*
X13871429Y-92138851D01*
X13514286Y-92138851D01*
X15657143Y-91138851D02*
X15657143Y-92138851D01*
X15014286Y-91138851D02*
X15014286Y-91924566D01*
X15085714Y-92067423D01*
X15228572Y-92138851D01*
X15442857Y-92138851D01*
X15585714Y-92067423D01*
X15657143Y-91995994D01*
X17014286Y-92138851D02*
X17014286Y-91353137D01*
X16942857Y-91210280D01*
X16800000Y-91138851D01*
X16514286Y-91138851D01*
X16371429Y-91210280D01*
X17014286Y-92067423D02*
X16871429Y-92138851D01*
X16514286Y-92138851D01*
X16371429Y-92067423D01*
X16300000Y-91924566D01*
X16300000Y-91781709D01*
X16371429Y-91638851D01*
X16514286Y-91567423D01*
X16871429Y-91567423D01*
X17014286Y-91495994D01*
X17942858Y-92138851D02*
X17800000Y-92067423D01*
X17728572Y-91924566D01*
X17728572Y-90638851D01*
X20157143Y-91353137D02*
X20371429Y-91424566D01*
X20442857Y-91495994D01*
X20514286Y-91638851D01*
X20514286Y-91853137D01*
X20442857Y-91995994D01*
X20371429Y-92067423D01*
X20228571Y-92138851D01*
X19657143Y-92138851D01*
X19657143Y-90638851D01*
X20157143Y-90638851D01*
X20300000Y-90710280D01*
X20371429Y-90781709D01*
X20442857Y-90924566D01*
X20442857Y-91067423D01*
X20371429Y-91210280D01*
X20300000Y-91281709D01*
X20157143Y-91353137D01*
X19657143Y-91353137D01*
X21371429Y-92138851D02*
X21228571Y-92067423D01*
X21157143Y-91924566D01*
X21157143Y-90638851D01*
X22157143Y-92138851D02*
X22014285Y-92067423D01*
X21942857Y-91995994D01*
X21871428Y-91853137D01*
X21871428Y-91424566D01*
X21942857Y-91281709D01*
X22014285Y-91210280D01*
X22157143Y-91138851D01*
X22371428Y-91138851D01*
X22514285Y-91210280D01*
X22585714Y-91281709D01*
X22657143Y-91424566D01*
X22657143Y-91853137D01*
X22585714Y-91995994D01*
X22514285Y-92067423D01*
X22371428Y-92138851D01*
X22157143Y-92138851D01*
X23942857Y-92067423D02*
X23800000Y-92138851D01*
X23514286Y-92138851D01*
X23371428Y-92067423D01*
X23300000Y-91995994D01*
X23228571Y-91853137D01*
X23228571Y-91424566D01*
X23300000Y-91281709D01*
X23371428Y-91210280D01*
X23514286Y-91138851D01*
X23800000Y-91138851D01*
X23942857Y-91210280D01*
X24585714Y-92138851D02*
X24585714Y-90638851D01*
X24728571Y-91567423D02*
X25157142Y-92138851D01*
X25157142Y-91138851D02*
X24585714Y-91710280D01*
X12121428Y-94538851D02*
X12121428Y-93038851D01*
X12692856Y-93038851D01*
X12835714Y-93110280D01*
X12907142Y-93181709D01*
X12978571Y-93324566D01*
X12978571Y-93538851D01*
X12907142Y-93681709D01*
X12835714Y-93753137D01*
X12692856Y-93824566D01*
X12121428Y-93824566D01*
X14264285Y-93538851D02*
X14264285Y-94538851D01*
X13621428Y-93538851D02*
X13621428Y-94324566D01*
X13692856Y-94467423D01*
X13835714Y-94538851D01*
X14049999Y-94538851D01*
X14192856Y-94467423D01*
X14264285Y-94395994D01*
X14907142Y-94467423D02*
X15049999Y-94538851D01*
X15335714Y-94538851D01*
X15478571Y-94467423D01*
X15549999Y-94324566D01*
X15549999Y-94253137D01*
X15478571Y-94110280D01*
X15335714Y-94038851D01*
X15121428Y-94038851D01*
X14978571Y-93967423D01*
X14907142Y-93824566D01*
X14907142Y-93753137D01*
X14978571Y-93610280D01*
X15121428Y-93538851D01*
X15335714Y-93538851D01*
X15478571Y-93610280D01*
X16192857Y-94538851D02*
X16192857Y-93038851D01*
X16835714Y-94538851D02*
X16835714Y-93753137D01*
X16764285Y-93610280D01*
X16621428Y-93538851D01*
X16407143Y-93538851D01*
X16264285Y-93610280D01*
X16192857Y-93681709D01*
X19192857Y-93753137D02*
X19407143Y-93824566D01*
X19478571Y-93895994D01*
X19550000Y-94038851D01*
X19550000Y-94253137D01*
X19478571Y-94395994D01*
X19407143Y-94467423D01*
X19264285Y-94538851D01*
X18692857Y-94538851D01*
X18692857Y-93038851D01*
X19192857Y-93038851D01*
X19335714Y-93110280D01*
X19407143Y-93181709D01*
X19478571Y-93324566D01*
X19478571Y-93467423D01*
X19407143Y-93610280D01*
X19335714Y-93681709D01*
X19192857Y-93753137D01*
X18692857Y-93753137D01*
X20835714Y-93538851D02*
X20835714Y-94538851D01*
X20192857Y-93538851D02*
X20192857Y-94324566D01*
X20264285Y-94467423D01*
X20407143Y-94538851D01*
X20621428Y-94538851D01*
X20764285Y-94467423D01*
X20835714Y-94395994D01*
X21335714Y-93538851D02*
X21907143Y-93538851D01*
X21550000Y-93038851D02*
X21550000Y-94324566D01*
X21621428Y-94467423D01*
X21764286Y-94538851D01*
X21907143Y-94538851D01*
X22192857Y-93538851D02*
X22764286Y-93538851D01*
X22407143Y-93038851D02*
X22407143Y-94324566D01*
X22478571Y-94467423D01*
X22621429Y-94538851D01*
X22764286Y-94538851D01*
X23478572Y-94538851D02*
X23335714Y-94467423D01*
X23264286Y-94395994D01*
X23192857Y-94253137D01*
X23192857Y-93824566D01*
X23264286Y-93681709D01*
X23335714Y-93610280D01*
X23478572Y-93538851D01*
X23692857Y-93538851D01*
X23835714Y-93610280D01*
X23907143Y-93681709D01*
X23978572Y-93824566D01*
X23978572Y-94253137D01*
X23907143Y-94395994D01*
X23835714Y-94467423D01*
X23692857Y-94538851D01*
X23478572Y-94538851D01*
X24621429Y-93538851D02*
X24621429Y-94538851D01*
X24621429Y-93681709D02*
X24692857Y-93610280D01*
X24835715Y-93538851D01*
X25050000Y-93538851D01*
X25192857Y-93610280D01*
X25264286Y-93753137D01*
X25264286Y-94538851D01*
X25907143Y-94467423D02*
X26050000Y-94538851D01*
X26335715Y-94538851D01*
X26478572Y-94467423D01*
X26550000Y-94324566D01*
X26550000Y-94253137D01*
X26478572Y-94110280D01*
X26335715Y-94038851D01*
X26121429Y-94038851D01*
X25978572Y-93967423D01*
X25907143Y-93824566D01*
X25907143Y-93753137D01*
X25978572Y-93610280D01*
X26121429Y-93538851D01*
X26335715Y-93538851D01*
X26478572Y-93610280D01*
D12*
X31890712Y-95922661D02*
X32557379Y-95922661D01*
X32128807Y-96922661D01*
X33652617Y-96875042D02*
X33747855Y-96922661D01*
X33938331Y-96922661D01*
X34033570Y-96875042D01*
X34081189Y-96779804D01*
X34081189Y-96732185D01*
X34033570Y-96636947D01*
X33938331Y-96589328D01*
X33795474Y-96589328D01*
X33700236Y-96541709D01*
X33652617Y-96446470D01*
X33652617Y-96398851D01*
X33700236Y-96303613D01*
X33795474Y-96255994D01*
X33938331Y-96255994D01*
X34033570Y-96303613D01*
X34890713Y-96875042D02*
X34795475Y-96922661D01*
X34604998Y-96922661D01*
X34509760Y-96875042D01*
X34462141Y-96779804D01*
X34462141Y-96398851D01*
X34509760Y-96303613D01*
X34604998Y-96255994D01*
X34795475Y-96255994D01*
X34890713Y-96303613D01*
X34938332Y-96398851D01*
X34938332Y-96494090D01*
X34462141Y-96589328D01*
X35795475Y-96255994D02*
X35795475Y-97065518D01*
X35747856Y-97160756D01*
X35700237Y-97208375D01*
X35604998Y-97255994D01*
X35462141Y-97255994D01*
X35366903Y-97208375D01*
X35795475Y-96875042D02*
X35700237Y-96922661D01*
X35509760Y-96922661D01*
X35414522Y-96875042D01*
X35366903Y-96827423D01*
X35319284Y-96732185D01*
X35319284Y-96446470D01*
X35366903Y-96351232D01*
X35414522Y-96303613D01*
X35509760Y-96255994D01*
X35700237Y-96255994D01*
X35795475Y-96303613D01*
X36271665Y-96922661D02*
X36271665Y-96255994D01*
X36271665Y-96351232D02*
X36319284Y-96303613D01*
X36414522Y-96255994D01*
X36557380Y-96255994D01*
X36652618Y-96303613D01*
X36700237Y-96398851D01*
X36700237Y-96922661D01*
X36700237Y-96398851D02*
X36747856Y-96303613D01*
X36843094Y-96255994D01*
X36985951Y-96255994D01*
X37081189Y-96303613D01*
X37128808Y-96398851D01*
X37128808Y-96922661D01*
X37985951Y-96875042D02*
X37890713Y-96922661D01*
X37700236Y-96922661D01*
X37604998Y-96875042D01*
X37557379Y-96779804D01*
X37557379Y-96398851D01*
X37604998Y-96303613D01*
X37700236Y-96255994D01*
X37890713Y-96255994D01*
X37985951Y-96303613D01*
X38033570Y-96398851D01*
X38033570Y-96494090D01*
X37557379Y-96589328D01*
X38462141Y-96255994D02*
X38462141Y-96922661D01*
X38462141Y-96351232D02*
X38509760Y-96303613D01*
X38604998Y-96255994D01*
X38747856Y-96255994D01*
X38843094Y-96303613D01*
X38890713Y-96398851D01*
X38890713Y-96922661D01*
X39224046Y-96255994D02*
X39604998Y-96255994D01*
X39366903Y-95922661D02*
X39366903Y-96779804D01*
X39414522Y-96875042D01*
X39509760Y-96922661D01*
X39604998Y-96922661D01*
X40700237Y-96922661D02*
X40700237Y-96255994D01*
X40700237Y-96351232D02*
X40747856Y-96303613D01*
X40843094Y-96255994D01*
X40985952Y-96255994D01*
X41081190Y-96303613D01*
X41128809Y-96398851D01*
X41128809Y-96922661D01*
X41128809Y-96398851D02*
X41176428Y-96303613D01*
X41271666Y-96255994D01*
X41414523Y-96255994D01*
X41509761Y-96303613D01*
X41557380Y-96398851D01*
X41557380Y-96922661D01*
X42033570Y-96922661D02*
X42033570Y-96255994D01*
X42033570Y-95922661D02*
X41985951Y-95970280D01*
X42033570Y-96017899D01*
X42081189Y-95970280D01*
X42033570Y-95922661D01*
X42033570Y-96017899D01*
X42938332Y-96922661D02*
X42938332Y-95922661D01*
X42938332Y-96875042D02*
X42843094Y-96922661D01*
X42652617Y-96922661D01*
X42557379Y-96875042D01*
X42509760Y-96827423D01*
X42462141Y-96732185D01*
X42462141Y-96446470D01*
X42509760Y-96351232D01*
X42557379Y-96303613D01*
X42652617Y-96255994D01*
X42843094Y-96255994D01*
X42938332Y-96303613D01*
X43414522Y-96922661D02*
X43414522Y-96255994D01*
X43414522Y-95922661D02*
X43366903Y-95970280D01*
X43414522Y-96017899D01*
X43462141Y-95970280D01*
X43414522Y-95922661D01*
X43414522Y-96017899D01*
X45081189Y-96875042D02*
X44985951Y-96922661D01*
X44795474Y-96922661D01*
X44700236Y-96875042D01*
X44652617Y-96827423D01*
X44604998Y-96732185D01*
X44604998Y-96446470D01*
X44652617Y-96351232D01*
X44700236Y-96303613D01*
X44795474Y-96255994D01*
X44985951Y-96255994D01*
X45081189Y-96303613D01*
X45509760Y-96922661D02*
X45509760Y-95922661D01*
X45938332Y-96922661D02*
X45938332Y-96398851D01*
X45890713Y-96303613D01*
X45795475Y-96255994D01*
X45652617Y-96255994D01*
X45557379Y-96303613D01*
X45509760Y-96351232D01*
X46843094Y-96922661D02*
X46843094Y-96398851D01*
X46795475Y-96303613D01*
X46700237Y-96255994D01*
X46509760Y-96255994D01*
X46414522Y-96303613D01*
X46843094Y-96875042D02*
X46747856Y-96922661D01*
X46509760Y-96922661D01*
X46414522Y-96875042D01*
X46366903Y-96779804D01*
X46366903Y-96684566D01*
X46414522Y-96589328D01*
X46509760Y-96541709D01*
X46747856Y-96541709D01*
X46843094Y-96494090D01*
X47319284Y-96255994D02*
X47319284Y-96922661D01*
X47319284Y-96351232D02*
X47366903Y-96303613D01*
X47462141Y-96255994D01*
X47604999Y-96255994D01*
X47700237Y-96303613D01*
X47747856Y-96398851D01*
X47747856Y-96922661D01*
X48224046Y-96255994D02*
X48224046Y-96922661D01*
X48224046Y-96351232D02*
X48271665Y-96303613D01*
X48366903Y-96255994D01*
X48509761Y-96255994D01*
X48604999Y-96303613D01*
X48652618Y-96398851D01*
X48652618Y-96922661D01*
X49509761Y-96875042D02*
X49414523Y-96922661D01*
X49224046Y-96922661D01*
X49128808Y-96875042D01*
X49081189Y-96779804D01*
X49081189Y-96398851D01*
X49128808Y-96303613D01*
X49224046Y-96255994D01*
X49414523Y-96255994D01*
X49509761Y-96303613D01*
X49557380Y-96398851D01*
X49557380Y-96494090D01*
X49081189Y-96589328D01*
X50128808Y-96922661D02*
X50033570Y-96875042D01*
X49985951Y-96779804D01*
X49985951Y-95922661D01*
X51414523Y-96922661D02*
X51319285Y-96875042D01*
X51271666Y-96779804D01*
X51271666Y-95922661D01*
X52176429Y-96875042D02*
X52081191Y-96922661D01*
X51890714Y-96922661D01*
X51795476Y-96875042D01*
X51747857Y-96779804D01*
X51747857Y-96398851D01*
X51795476Y-96303613D01*
X51890714Y-96255994D01*
X52081191Y-96255994D01*
X52176429Y-96303613D01*
X52224048Y-96398851D01*
X52224048Y-96494090D01*
X51747857Y-96589328D01*
X53081191Y-96922661D02*
X53081191Y-95922661D01*
X53081191Y-96875042D02*
X52985953Y-96922661D01*
X52795476Y-96922661D01*
X52700238Y-96875042D01*
X52652619Y-96827423D01*
X52605000Y-96732185D01*
X52605000Y-96446470D01*
X52652619Y-96351232D01*
X52700238Y-96303613D01*
X52795476Y-96255994D01*
X52985953Y-96255994D01*
X53081191Y-96303613D01*
X54747858Y-96875042D02*
X54652620Y-96922661D01*
X54462143Y-96922661D01*
X54366905Y-96875042D01*
X54319286Y-96827423D01*
X54271667Y-96732185D01*
X54271667Y-96446470D01*
X54319286Y-96351232D01*
X54366905Y-96303613D01*
X54462143Y-96255994D01*
X54652620Y-96255994D01*
X54747858Y-96303613D01*
X55319286Y-96922661D02*
X55224048Y-96875042D01*
X55176429Y-96827423D01*
X55128810Y-96732185D01*
X55128810Y-96446470D01*
X55176429Y-96351232D01*
X55224048Y-96303613D01*
X55319286Y-96255994D01*
X55462144Y-96255994D01*
X55557382Y-96303613D01*
X55605001Y-96351232D01*
X55652620Y-96446470D01*
X55652620Y-96732185D01*
X55605001Y-96827423D01*
X55557382Y-96875042D01*
X55462144Y-96922661D01*
X55319286Y-96922661D01*
X56081191Y-96255994D02*
X56081191Y-96922661D01*
X56081191Y-96351232D02*
X56128810Y-96303613D01*
X56224048Y-96255994D01*
X56366906Y-96255994D01*
X56462144Y-96303613D01*
X56509763Y-96398851D01*
X56509763Y-96922661D01*
X56985953Y-96255994D02*
X56985953Y-96922661D01*
X56985953Y-96351232D02*
X57033572Y-96303613D01*
X57128810Y-96255994D01*
X57271668Y-96255994D01*
X57366906Y-96303613D01*
X57414525Y-96398851D01*
X57414525Y-96922661D01*
X58271668Y-96875042D02*
X58176430Y-96922661D01*
X57985953Y-96922661D01*
X57890715Y-96875042D01*
X57843096Y-96779804D01*
X57843096Y-96398851D01*
X57890715Y-96303613D01*
X57985953Y-96255994D01*
X58176430Y-96255994D01*
X58271668Y-96303613D01*
X58319287Y-96398851D01*
X58319287Y-96494090D01*
X57843096Y-96589328D01*
X59176430Y-96875042D02*
X59081192Y-96922661D01*
X58890715Y-96922661D01*
X58795477Y-96875042D01*
X58747858Y-96827423D01*
X58700239Y-96732185D01*
X58700239Y-96446470D01*
X58747858Y-96351232D01*
X58795477Y-96303613D01*
X58890715Y-96255994D01*
X59081192Y-96255994D01*
X59176430Y-96303613D01*
X59462144Y-96255994D02*
X59843096Y-96255994D01*
X59605001Y-95922661D02*
X59605001Y-96779804D01*
X59652620Y-96875042D01*
X59747858Y-96922661D01*
X59843096Y-96922661D01*
X60319287Y-96922661D02*
X60224049Y-96875042D01*
X60176430Y-96827423D01*
X60128811Y-96732185D01*
X60128811Y-96446470D01*
X60176430Y-96351232D01*
X60224049Y-96303613D01*
X60319287Y-96255994D01*
X60462145Y-96255994D01*
X60557383Y-96303613D01*
X60605002Y-96351232D01*
X60652621Y-96446470D01*
X60652621Y-96732185D01*
X60605002Y-96827423D01*
X60557383Y-96875042D01*
X60462145Y-96922661D01*
X60319287Y-96922661D01*
X61081192Y-96922661D02*
X61081192Y-96255994D01*
X61081192Y-96446470D02*
X61128811Y-96351232D01*
X61176430Y-96303613D01*
X61271668Y-96255994D01*
X61366907Y-96255994D01*
D11*
X88848572Y-88258851D02*
X88134286Y-88258851D01*
X88134286Y-86758851D01*
X89348572Y-87473137D02*
X89848572Y-87473137D01*
X90062858Y-88258851D02*
X89348572Y-88258851D01*
X89348572Y-86758851D01*
X90062858Y-86758851D01*
X90705715Y-88258851D02*
X90705715Y-86758851D01*
X91062858Y-86758851D01*
X91277143Y-86830280D01*
X91420001Y-86973137D01*
X91491429Y-87115994D01*
X91562858Y-87401709D01*
X91562858Y-87615994D01*
X91491429Y-87901709D01*
X91420001Y-88044566D01*
X91277143Y-88187423D01*
X91062858Y-88258851D01*
X90705715Y-88258851D01*
X92134286Y-88187423D02*
X92277143Y-88258851D01*
X92562858Y-88258851D01*
X92705715Y-88187423D01*
X92777143Y-88044566D01*
X92777143Y-87973137D01*
X92705715Y-87830280D01*
X92562858Y-87758851D01*
X92348572Y-87758851D01*
X92205715Y-87687423D01*
X92134286Y-87544566D01*
X92134286Y-87473137D01*
X92205715Y-87330280D01*
X92348572Y-87258851D01*
X92562858Y-87258851D01*
X92705715Y-87330280D01*
X88848572Y-78098851D02*
X88134286Y-78098851D01*
X88134286Y-76598851D01*
X89348572Y-77313137D02*
X89848572Y-77313137D01*
X90062858Y-78098851D02*
X89348572Y-78098851D01*
X89348572Y-76598851D01*
X90062858Y-76598851D01*
X90705715Y-78098851D02*
X90705715Y-76598851D01*
X91062858Y-76598851D01*
X91277143Y-76670280D01*
X91420001Y-76813137D01*
X91491429Y-76955994D01*
X91562858Y-77241709D01*
X91562858Y-77455994D01*
X91491429Y-77741709D01*
X91420001Y-77884566D01*
X91277143Y-78027423D01*
X91062858Y-78098851D01*
X90705715Y-78098851D01*
X92134286Y-78027423D02*
X92277143Y-78098851D01*
X92562858Y-78098851D01*
X92705715Y-78027423D01*
X92777143Y-77884566D01*
X92777143Y-77813137D01*
X92705715Y-77670280D01*
X92562858Y-77598851D01*
X92348572Y-77598851D01*
X92205715Y-77527423D01*
X92134286Y-77384566D01*
X92134286Y-77313137D01*
X92205715Y-77170280D01*
X92348572Y-77098851D01*
X92562858Y-77098851D01*
X92705715Y-77170280D01*
D12*
X55098809Y-18377661D02*
X55098809Y-17377661D01*
X55479762Y-17377661D01*
X55575000Y-17425280D01*
X55622619Y-17472899D01*
X55670238Y-17568137D01*
X55670238Y-17710994D01*
X55622619Y-17806232D01*
X55575000Y-17853851D01*
X55479762Y-17901470D01*
X55098809Y-17901470D01*
X56527381Y-17710994D02*
X56527381Y-18377661D01*
X56098809Y-17710994D02*
X56098809Y-18234804D01*
X56146428Y-18330042D01*
X56241666Y-18377661D01*
X56384524Y-18377661D01*
X56479762Y-18330042D01*
X56527381Y-18282423D01*
X56860714Y-17710994D02*
X57241666Y-17710994D01*
X57003571Y-17377661D02*
X57003571Y-18234804D01*
X57051190Y-18330042D01*
X57146428Y-18377661D01*
X57241666Y-18377661D01*
X58336905Y-18377661D02*
X58336905Y-17710994D01*
X58336905Y-17377661D02*
X58289286Y-17425280D01*
X58336905Y-17472899D01*
X58384524Y-17425280D01*
X58336905Y-17377661D01*
X58336905Y-17472899D01*
X58813095Y-17710994D02*
X58813095Y-18377661D01*
X58813095Y-17806232D02*
X58860714Y-17758613D01*
X58955952Y-17710994D01*
X59098810Y-17710994D01*
X59194048Y-17758613D01*
X59241667Y-17853851D01*
X59241667Y-18377661D01*
X61051191Y-18377661D02*
X60717857Y-17901470D01*
X60479762Y-18377661D02*
X60479762Y-17377661D01*
X60860715Y-17377661D01*
X60955953Y-17425280D01*
X61003572Y-17472899D01*
X61051191Y-17568137D01*
X61051191Y-17710994D01*
X61003572Y-17806232D01*
X60955953Y-17853851D01*
X60860715Y-17901470D01*
X60479762Y-17901470D01*
X61860715Y-18330042D02*
X61765477Y-18377661D01*
X61575000Y-18377661D01*
X61479762Y-18330042D01*
X61432143Y-18234804D01*
X61432143Y-17853851D01*
X61479762Y-17758613D01*
X61575000Y-17710994D01*
X61765477Y-17710994D01*
X61860715Y-17758613D01*
X61908334Y-17853851D01*
X61908334Y-17949090D01*
X61432143Y-18044328D01*
X62289286Y-18330042D02*
X62384524Y-18377661D01*
X62575000Y-18377661D01*
X62670239Y-18330042D01*
X62717858Y-18234804D01*
X62717858Y-18187185D01*
X62670239Y-18091947D01*
X62575000Y-18044328D01*
X62432143Y-18044328D01*
X62336905Y-17996709D01*
X62289286Y-17901470D01*
X62289286Y-17853851D01*
X62336905Y-17758613D01*
X62432143Y-17710994D01*
X62575000Y-17710994D01*
X62670239Y-17758613D01*
X63146429Y-18377661D02*
X63146429Y-17710994D01*
X63146429Y-17377661D02*
X63098810Y-17425280D01*
X63146429Y-17472899D01*
X63194048Y-17425280D01*
X63146429Y-17377661D01*
X63146429Y-17472899D01*
X63575000Y-18330042D02*
X63670238Y-18377661D01*
X63860714Y-18377661D01*
X63955953Y-18330042D01*
X64003572Y-18234804D01*
X64003572Y-18187185D01*
X63955953Y-18091947D01*
X63860714Y-18044328D01*
X63717857Y-18044328D01*
X63622619Y-17996709D01*
X63575000Y-17901470D01*
X63575000Y-17853851D01*
X63622619Y-17758613D01*
X63717857Y-17710994D01*
X63860714Y-17710994D01*
X63955953Y-17758613D01*
X64289286Y-17710994D02*
X64670238Y-17710994D01*
X64432143Y-17377661D02*
X64432143Y-18234804D01*
X64479762Y-18330042D01*
X64575000Y-18377661D01*
X64670238Y-18377661D01*
X65146429Y-18377661D02*
X65051191Y-18330042D01*
X65003572Y-18282423D01*
X64955953Y-18187185D01*
X64955953Y-17901470D01*
X65003572Y-17806232D01*
X65051191Y-17758613D01*
X65146429Y-17710994D01*
X65289287Y-17710994D01*
X65384525Y-17758613D01*
X65432144Y-17806232D01*
X65479763Y-17901470D01*
X65479763Y-18187185D01*
X65432144Y-18282423D01*
X65384525Y-18330042D01*
X65289287Y-18377661D01*
X65146429Y-18377661D01*
X65908334Y-18377661D02*
X65908334Y-17710994D01*
X65908334Y-17901470D02*
X65955953Y-17806232D01*
X66003572Y-17758613D01*
X66098810Y-17710994D01*
X66194049Y-17710994D01*
X55408334Y-20027661D02*
X55075000Y-19551470D01*
X54836905Y-20027661D02*
X54836905Y-19027661D01*
X55217858Y-19027661D01*
X55313096Y-19075280D01*
X55360715Y-19122899D01*
X55408334Y-19218137D01*
X55408334Y-19360994D01*
X55360715Y-19456232D01*
X55313096Y-19503851D01*
X55217858Y-19551470D01*
X54836905Y-19551470D01*
X55789286Y-19122899D02*
X55836905Y-19075280D01*
X55932143Y-19027661D01*
X56170239Y-19027661D01*
X56265477Y-19075280D01*
X56313096Y-19122899D01*
X56360715Y-19218137D01*
X56360715Y-19313375D01*
X56313096Y-19456232D01*
X55741667Y-20027661D01*
X56360715Y-20027661D01*
X56741667Y-19122899D02*
X56789286Y-19075280D01*
X56884524Y-19027661D01*
X57122620Y-19027661D01*
X57217858Y-19075280D01*
X57265477Y-19122899D01*
X57313096Y-19218137D01*
X57313096Y-19313375D01*
X57265477Y-19456232D01*
X56694048Y-20027661D01*
X57313096Y-20027661D01*
X57789286Y-19980042D02*
X57789286Y-20027661D01*
X57741667Y-20122899D01*
X57694048Y-20170518D01*
X59551191Y-20027661D02*
X59217857Y-19551470D01*
X58979762Y-20027661D02*
X58979762Y-19027661D01*
X59360715Y-19027661D01*
X59455953Y-19075280D01*
X59503572Y-19122899D01*
X59551191Y-19218137D01*
X59551191Y-19360994D01*
X59503572Y-19456232D01*
X59455953Y-19503851D01*
X59360715Y-19551470D01*
X58979762Y-19551470D01*
X59932143Y-19122899D02*
X59979762Y-19075280D01*
X60075000Y-19027661D01*
X60313096Y-19027661D01*
X60408334Y-19075280D01*
X60455953Y-19122899D01*
X60503572Y-19218137D01*
X60503572Y-19313375D01*
X60455953Y-19456232D01*
X59884524Y-20027661D01*
X60503572Y-20027661D01*
X61360715Y-19360994D02*
X61360715Y-20027661D01*
X61122619Y-18980042D02*
X60884524Y-19694328D01*
X61503572Y-19694328D01*
X61932143Y-19980042D02*
X61932143Y-20027661D01*
X61884524Y-20122899D01*
X61836905Y-20170518D01*
X63694048Y-20027661D02*
X63360714Y-19551470D01*
X63122619Y-20027661D02*
X63122619Y-19027661D01*
X63503572Y-19027661D01*
X63598810Y-19075280D01*
X63646429Y-19122899D01*
X63694048Y-19218137D01*
X63694048Y-19360994D01*
X63646429Y-19456232D01*
X63598810Y-19503851D01*
X63503572Y-19551470D01*
X63122619Y-19551470D01*
X64075000Y-19122899D02*
X64122619Y-19075280D01*
X64217857Y-19027661D01*
X64455953Y-19027661D01*
X64551191Y-19075280D01*
X64598810Y-19122899D01*
X64646429Y-19218137D01*
X64646429Y-19313375D01*
X64598810Y-19456232D01*
X64027381Y-20027661D01*
X64646429Y-20027661D01*
X65551191Y-19027661D02*
X65075000Y-19027661D01*
X65027381Y-19503851D01*
X65075000Y-19456232D01*
X65170238Y-19408613D01*
X65408334Y-19408613D01*
X65503572Y-19456232D01*
X65551191Y-19503851D01*
X65598810Y-19599090D01*
X65598810Y-19837185D01*
X65551191Y-19932423D01*
X65503572Y-19980042D01*
X65408334Y-20027661D01*
X65170238Y-20027661D01*
X65075000Y-19980042D01*
X65027381Y-19932423D01*
X58051191Y-21677661D02*
X58051191Y-21153851D01*
X58003572Y-21058613D01*
X57908334Y-21010994D01*
X57717857Y-21010994D01*
X57622619Y-21058613D01*
X58051191Y-21630042D02*
X57955953Y-21677661D01*
X57717857Y-21677661D01*
X57622619Y-21630042D01*
X57575000Y-21534804D01*
X57575000Y-21439566D01*
X57622619Y-21344328D01*
X57717857Y-21296709D01*
X57955953Y-21296709D01*
X58051191Y-21249090D01*
X58527381Y-21010994D02*
X58527381Y-21677661D01*
X58527381Y-21106232D02*
X58575000Y-21058613D01*
X58670238Y-21010994D01*
X58813096Y-21010994D01*
X58908334Y-21058613D01*
X58955953Y-21153851D01*
X58955953Y-21677661D01*
X59860715Y-21677661D02*
X59860715Y-20677661D01*
X59860715Y-21630042D02*
X59765477Y-21677661D01*
X59575000Y-21677661D01*
X59479762Y-21630042D01*
X59432143Y-21582423D01*
X59384524Y-21487185D01*
X59384524Y-21201470D01*
X59432143Y-21106232D01*
X59479762Y-21058613D01*
X59575000Y-21010994D01*
X59765477Y-21010994D01*
X59860715Y-21058613D01*
X61670239Y-21677661D02*
X61336905Y-21201470D01*
X61098810Y-21677661D02*
X61098810Y-20677661D01*
X61479763Y-20677661D01*
X61575001Y-20725280D01*
X61622620Y-20772899D01*
X61670239Y-20868137D01*
X61670239Y-21010994D01*
X61622620Y-21106232D01*
X61575001Y-21153851D01*
X61479763Y-21201470D01*
X61098810Y-21201470D01*
X62051191Y-20772899D02*
X62098810Y-20725280D01*
X62194048Y-20677661D01*
X62432144Y-20677661D01*
X62527382Y-20725280D01*
X62575001Y-20772899D01*
X62622620Y-20868137D01*
X62622620Y-20963375D01*
X62575001Y-21106232D01*
X62003572Y-21677661D01*
X62622620Y-21677661D01*
X63479763Y-20677661D02*
X63289286Y-20677661D01*
X63194048Y-20725280D01*
X63146429Y-20772899D01*
X63051191Y-20915756D01*
X63003572Y-21106232D01*
X63003572Y-21487185D01*
X63051191Y-21582423D01*
X63098810Y-21630042D01*
X63194048Y-21677661D01*
X63384525Y-21677661D01*
X63479763Y-21630042D01*
X63527382Y-21582423D01*
X63575001Y-21487185D01*
X63575001Y-21249090D01*
X63527382Y-21153851D01*
X63479763Y-21106232D01*
X63384525Y-21058613D01*
X63194048Y-21058613D01*
X63098810Y-21106232D01*
X63051191Y-21153851D01*
X63003572Y-21249090D01*
X56741666Y-22327661D02*
X57313095Y-22327661D01*
X57027380Y-23327661D02*
X57027380Y-22327661D01*
X57789285Y-23327661D02*
X57694047Y-23280042D01*
X57646428Y-23232423D01*
X57598809Y-23137185D01*
X57598809Y-22851470D01*
X57646428Y-22756232D01*
X57694047Y-22708613D01*
X57789285Y-22660994D01*
X57932143Y-22660994D01*
X58027381Y-22708613D01*
X58075000Y-22756232D01*
X58122619Y-22851470D01*
X58122619Y-23137185D01*
X58075000Y-23232423D01*
X58027381Y-23280042D01*
X57932143Y-23327661D01*
X57789285Y-23327661D01*
X59265476Y-23280042D02*
X59360714Y-23327661D01*
X59551190Y-23327661D01*
X59646429Y-23280042D01*
X59694048Y-23184804D01*
X59694048Y-23137185D01*
X59646429Y-23041947D01*
X59551190Y-22994328D01*
X59408333Y-22994328D01*
X59313095Y-22946709D01*
X59265476Y-22851470D01*
X59265476Y-22803851D01*
X59313095Y-22708613D01*
X59408333Y-22660994D01*
X59551190Y-22660994D01*
X59646429Y-22708613D01*
X60027381Y-22660994D02*
X60217857Y-23327661D01*
X60408334Y-22851470D01*
X60598810Y-23327661D01*
X60789286Y-22660994D01*
X61170238Y-23327661D02*
X61170238Y-22660994D01*
X61170238Y-22327661D02*
X61122619Y-22375280D01*
X61170238Y-22422899D01*
X61217857Y-22375280D01*
X61170238Y-22327661D01*
X61170238Y-22422899D01*
X61503571Y-22660994D02*
X61884523Y-22660994D01*
X61646428Y-22327661D02*
X61646428Y-23184804D01*
X61694047Y-23280042D01*
X61789285Y-23327661D01*
X61884523Y-23327661D01*
X62646429Y-23280042D02*
X62551191Y-23327661D01*
X62360714Y-23327661D01*
X62265476Y-23280042D01*
X62217857Y-23232423D01*
X62170238Y-23137185D01*
X62170238Y-22851470D01*
X62217857Y-22756232D01*
X62265476Y-22708613D01*
X62360714Y-22660994D01*
X62551191Y-22660994D01*
X62646429Y-22708613D01*
X63075000Y-23327661D02*
X63075000Y-22327661D01*
X63503572Y-23327661D02*
X63503572Y-22803851D01*
X63455953Y-22708613D01*
X63360715Y-22660994D01*
X63217857Y-22660994D01*
X63122619Y-22708613D01*
X63075000Y-22756232D01*
X56908333Y-24977661D02*
X56908333Y-23977661D01*
X57289286Y-23977661D01*
X57384524Y-24025280D01*
X57432143Y-24072899D01*
X57479762Y-24168137D01*
X57479762Y-24310994D01*
X57432143Y-24406232D01*
X57384524Y-24453851D01*
X57289286Y-24501470D01*
X56908333Y-24501470D01*
X57908333Y-24977661D02*
X57908333Y-23977661D01*
X58336905Y-24977661D02*
X58336905Y-24453851D01*
X58289286Y-24358613D01*
X58194048Y-24310994D01*
X58051190Y-24310994D01*
X57955952Y-24358613D01*
X57908333Y-24406232D01*
X58955952Y-24977661D02*
X58860714Y-24930042D01*
X58813095Y-24882423D01*
X58765476Y-24787185D01*
X58765476Y-24501470D01*
X58813095Y-24406232D01*
X58860714Y-24358613D01*
X58955952Y-24310994D01*
X59098810Y-24310994D01*
X59194048Y-24358613D01*
X59241667Y-24406232D01*
X59289286Y-24501470D01*
X59289286Y-24787185D01*
X59241667Y-24882423D01*
X59194048Y-24930042D01*
X59098810Y-24977661D01*
X58955952Y-24977661D01*
X59575000Y-24310994D02*
X59955952Y-24310994D01*
X59717857Y-23977661D02*
X59717857Y-24834804D01*
X59765476Y-24930042D01*
X59860714Y-24977661D01*
X59955952Y-24977661D01*
X60432143Y-24977661D02*
X60336905Y-24930042D01*
X60289286Y-24882423D01*
X60241667Y-24787185D01*
X60241667Y-24501470D01*
X60289286Y-24406232D01*
X60336905Y-24358613D01*
X60432143Y-24310994D01*
X60575001Y-24310994D01*
X60670239Y-24358613D01*
X60717858Y-24406232D01*
X60765477Y-24501470D01*
X60765477Y-24787185D01*
X60717858Y-24882423D01*
X60670239Y-24930042D01*
X60575001Y-24977661D01*
X60432143Y-24977661D01*
X61194048Y-24977661D02*
X61194048Y-24310994D01*
X61194048Y-24406232D02*
X61241667Y-24358613D01*
X61336905Y-24310994D01*
X61479763Y-24310994D01*
X61575001Y-24358613D01*
X61622620Y-24453851D01*
X61622620Y-24977661D01*
X61622620Y-24453851D02*
X61670239Y-24358613D01*
X61765477Y-24310994D01*
X61908334Y-24310994D01*
X62003572Y-24358613D01*
X62051191Y-24453851D01*
X62051191Y-24977661D01*
X62670238Y-24977661D02*
X62575000Y-24930042D01*
X62527381Y-24882423D01*
X62479762Y-24787185D01*
X62479762Y-24501470D01*
X62527381Y-24406232D01*
X62575000Y-24358613D01*
X62670238Y-24310994D01*
X62813096Y-24310994D01*
X62908334Y-24358613D01*
X62955953Y-24406232D01*
X63003572Y-24501470D01*
X63003572Y-24787185D01*
X62955953Y-24882423D01*
X62908334Y-24930042D01*
X62813096Y-24977661D01*
X62670238Y-24977661D01*
X63384524Y-24930042D02*
X63479762Y-24977661D01*
X63670238Y-24977661D01*
X63765477Y-24930042D01*
X63813096Y-24834804D01*
X63813096Y-24787185D01*
X63765477Y-24691947D01*
X63670238Y-24644328D01*
X63527381Y-24644328D01*
X63432143Y-24596709D01*
X63384524Y-24501470D01*
X63384524Y-24453851D01*
X63432143Y-24358613D01*
X63527381Y-24310994D01*
X63670238Y-24310994D01*
X63765477Y-24358613D01*
X64241667Y-24882423D02*
X64289286Y-24930042D01*
X64241667Y-24977661D01*
X64194048Y-24930042D01*
X64241667Y-24882423D01*
X64241667Y-24977661D01*
X56908333Y-26103851D02*
X56574999Y-26103851D01*
X56574999Y-26627661D02*
X56574999Y-25627661D01*
X57051190Y-25627661D01*
X57574999Y-26627661D02*
X57479761Y-26580042D01*
X57432142Y-26532423D01*
X57384523Y-26437185D01*
X57384523Y-26151470D01*
X57432142Y-26056232D01*
X57479761Y-26008613D01*
X57574999Y-25960994D01*
X57717857Y-25960994D01*
X57813095Y-26008613D01*
X57860714Y-26056232D01*
X57908333Y-26151470D01*
X57908333Y-26437185D01*
X57860714Y-26532423D01*
X57813095Y-26580042D01*
X57717857Y-26627661D01*
X57574999Y-26627661D01*
X58336904Y-26627661D02*
X58336904Y-25960994D01*
X58336904Y-26151470D02*
X58384523Y-26056232D01*
X58432142Y-26008613D01*
X58527380Y-25960994D01*
X58622619Y-25960994D01*
X60289286Y-26627661D02*
X59955952Y-26151470D01*
X59717857Y-26627661D02*
X59717857Y-25627661D01*
X60098810Y-25627661D01*
X60194048Y-25675280D01*
X60241667Y-25722899D01*
X60289286Y-25818137D01*
X60289286Y-25960994D01*
X60241667Y-26056232D01*
X60194048Y-26103851D01*
X60098810Y-26151470D01*
X59717857Y-26151470D01*
X61098810Y-26580042D02*
X61003572Y-26627661D01*
X60813095Y-26627661D01*
X60717857Y-26580042D01*
X60670238Y-26484804D01*
X60670238Y-26103851D01*
X60717857Y-26008613D01*
X60813095Y-25960994D01*
X61003572Y-25960994D01*
X61098810Y-26008613D01*
X61146429Y-26103851D01*
X61146429Y-26199090D01*
X60670238Y-26294328D01*
X61717857Y-26627661D02*
X61622619Y-26580042D01*
X61575000Y-26484804D01*
X61575000Y-25627661D01*
X62527382Y-26627661D02*
X62527382Y-26103851D01*
X62479763Y-26008613D01*
X62384525Y-25960994D01*
X62194048Y-25960994D01*
X62098810Y-26008613D01*
X62527382Y-26580042D02*
X62432144Y-26627661D01*
X62194048Y-26627661D01*
X62098810Y-26580042D01*
X62051191Y-26484804D01*
X62051191Y-26389566D01*
X62098810Y-26294328D01*
X62194048Y-26246709D01*
X62432144Y-26246709D01*
X62527382Y-26199090D01*
X63003572Y-26627661D02*
X63003572Y-25960994D01*
X63003572Y-25627661D02*
X62955953Y-25675280D01*
X63003572Y-25722899D01*
X63051191Y-25675280D01*
X63003572Y-25627661D01*
X63003572Y-25722899D01*
X63432143Y-26580042D02*
X63527381Y-26627661D01*
X63717857Y-26627661D01*
X63813096Y-26580042D01*
X63860715Y-26484804D01*
X63860715Y-26437185D01*
X63813096Y-26341947D01*
X63717857Y-26294328D01*
X63575000Y-26294328D01*
X63479762Y-26246709D01*
X63432143Y-26151470D01*
X63432143Y-26103851D01*
X63479762Y-26008613D01*
X63575000Y-25960994D01*
X63717857Y-25960994D01*
X63813096Y-26008613D01*
X56908333Y-28230042D02*
X57003571Y-28277661D01*
X57194047Y-28277661D01*
X57289286Y-28230042D01*
X57336905Y-28134804D01*
X57336905Y-28087185D01*
X57289286Y-27991947D01*
X57194047Y-27944328D01*
X57051190Y-27944328D01*
X56955952Y-27896709D01*
X56908333Y-27801470D01*
X56908333Y-27753851D01*
X56955952Y-27658613D01*
X57051190Y-27610994D01*
X57194047Y-27610994D01*
X57289286Y-27658613D01*
X57670238Y-27610994D02*
X57860714Y-28277661D01*
X58051191Y-27801470D01*
X58241667Y-28277661D01*
X58432143Y-27610994D01*
X58813095Y-28277661D02*
X58813095Y-27610994D01*
X58813095Y-27277661D02*
X58765476Y-27325280D01*
X58813095Y-27372899D01*
X58860714Y-27325280D01*
X58813095Y-27277661D01*
X58813095Y-27372899D01*
X59146428Y-27610994D02*
X59527380Y-27610994D01*
X59289285Y-27277661D02*
X59289285Y-28134804D01*
X59336904Y-28230042D01*
X59432142Y-28277661D01*
X59527380Y-28277661D01*
X60289286Y-28230042D02*
X60194048Y-28277661D01*
X60003571Y-28277661D01*
X59908333Y-28230042D01*
X59860714Y-28182423D01*
X59813095Y-28087185D01*
X59813095Y-27801470D01*
X59860714Y-27706232D01*
X59908333Y-27658613D01*
X60003571Y-27610994D01*
X60194048Y-27610994D01*
X60289286Y-27658613D01*
X60717857Y-28277661D02*
X60717857Y-27277661D01*
X61146429Y-28277661D02*
X61146429Y-27753851D01*
X61098810Y-27658613D01*
X61003572Y-27610994D01*
X60860714Y-27610994D01*
X60765476Y-27658613D01*
X60717857Y-27706232D01*
X61622619Y-28277661D02*
X61622619Y-27610994D01*
X61622619Y-27277661D02*
X61575000Y-27325280D01*
X61622619Y-27372899D01*
X61670238Y-27325280D01*
X61622619Y-27277661D01*
X61622619Y-27372899D01*
X62098809Y-27610994D02*
X62098809Y-28277661D01*
X62098809Y-27706232D02*
X62146428Y-27658613D01*
X62241666Y-27610994D01*
X62384524Y-27610994D01*
X62479762Y-27658613D01*
X62527381Y-27753851D01*
X62527381Y-28277661D01*
X63432143Y-27610994D02*
X63432143Y-28420518D01*
X63384524Y-28515756D01*
X63336905Y-28563375D01*
X63241666Y-28610994D01*
X63098809Y-28610994D01*
X63003571Y-28563375D01*
X63432143Y-28230042D02*
X63336905Y-28277661D01*
X63146428Y-28277661D01*
X63051190Y-28230042D01*
X63003571Y-28182423D01*
X62955952Y-28087185D01*
X62955952Y-27801470D01*
X63003571Y-27706232D01*
X63051190Y-27658613D01*
X63146428Y-27610994D01*
X63336905Y-27610994D01*
X63432143Y-27658613D01*
X57146429Y-29260994D02*
X57146429Y-29927661D01*
X56717857Y-29260994D02*
X56717857Y-29784804D01*
X56765476Y-29880042D01*
X56860714Y-29927661D01*
X57003572Y-29927661D01*
X57098810Y-29880042D01*
X57146429Y-29832423D01*
X57575000Y-29880042D02*
X57670238Y-29927661D01*
X57860714Y-29927661D01*
X57955953Y-29880042D01*
X58003572Y-29784804D01*
X58003572Y-29737185D01*
X57955953Y-29641947D01*
X57860714Y-29594328D01*
X57717857Y-29594328D01*
X57622619Y-29546709D01*
X57575000Y-29451470D01*
X57575000Y-29403851D01*
X57622619Y-29308613D01*
X57717857Y-29260994D01*
X57860714Y-29260994D01*
X57955953Y-29308613D01*
X58813096Y-29880042D02*
X58717858Y-29927661D01*
X58527381Y-29927661D01*
X58432143Y-29880042D01*
X58384524Y-29784804D01*
X58384524Y-29403851D01*
X58432143Y-29308613D01*
X58527381Y-29260994D01*
X58717858Y-29260994D01*
X58813096Y-29308613D01*
X58860715Y-29403851D01*
X58860715Y-29499090D01*
X58384524Y-29594328D01*
X60241667Y-28927661D02*
X60336906Y-28927661D01*
X60432144Y-28975280D01*
X60479763Y-29022899D01*
X60527382Y-29118137D01*
X60575001Y-29308613D01*
X60575001Y-29546709D01*
X60527382Y-29737185D01*
X60479763Y-29832423D01*
X60432144Y-29880042D01*
X60336906Y-29927661D01*
X60241667Y-29927661D01*
X60146429Y-29880042D01*
X60098810Y-29832423D01*
X60051191Y-29737185D01*
X60003572Y-29546709D01*
X60003572Y-29308613D01*
X60051191Y-29118137D01*
X60098810Y-29022899D01*
X60146429Y-28975280D01*
X60241667Y-28927661D01*
X61908334Y-29927661D02*
X61813096Y-29880042D01*
X61765477Y-29832423D01*
X61717858Y-29737185D01*
X61717858Y-29451470D01*
X61765477Y-29356232D01*
X61813096Y-29308613D01*
X61908334Y-29260994D01*
X62051192Y-29260994D01*
X62146430Y-29308613D01*
X62194049Y-29356232D01*
X62241668Y-29451470D01*
X62241668Y-29737185D01*
X62194049Y-29832423D01*
X62146430Y-29880042D01*
X62051192Y-29927661D01*
X61908334Y-29927661D01*
X62670239Y-29927661D02*
X62670239Y-28927661D01*
X63098811Y-29927661D02*
X63098811Y-29403851D01*
X63051192Y-29308613D01*
X62955954Y-29260994D01*
X62813096Y-29260994D01*
X62717858Y-29308613D01*
X62670239Y-29356232D01*
X63575001Y-29927661D02*
X63575001Y-29260994D01*
X63575001Y-29356232D02*
X63622620Y-29308613D01*
X63717858Y-29260994D01*
X63860716Y-29260994D01*
X63955954Y-29308613D01*
X64003573Y-29403851D01*
X64003573Y-29927661D01*
X64003573Y-29403851D02*
X64051192Y-29308613D01*
X64146430Y-29260994D01*
X64289287Y-29260994D01*
X64384525Y-29308613D01*
X64432144Y-29403851D01*
X64432144Y-29927661D01*
X58027381Y-30910994D02*
X58027381Y-31768137D01*
X57979762Y-31863375D01*
X57884524Y-31910994D01*
X57836905Y-31910994D01*
X58027381Y-30577661D02*
X57979762Y-30625280D01*
X58027381Y-30672899D01*
X58075000Y-30625280D01*
X58027381Y-30577661D01*
X58027381Y-30672899D01*
X58932143Y-30910994D02*
X58932143Y-31577661D01*
X58503571Y-30910994D02*
X58503571Y-31434804D01*
X58551190Y-31530042D01*
X58646428Y-31577661D01*
X58789286Y-31577661D01*
X58884524Y-31530042D01*
X58932143Y-31482423D01*
X59408333Y-31577661D02*
X59408333Y-30910994D01*
X59408333Y-31006232D02*
X59455952Y-30958613D01*
X59551190Y-30910994D01*
X59694048Y-30910994D01*
X59789286Y-30958613D01*
X59836905Y-31053851D01*
X59836905Y-31577661D01*
X59836905Y-31053851D02*
X59884524Y-30958613D01*
X59979762Y-30910994D01*
X60122619Y-30910994D01*
X60217857Y-30958613D01*
X60265476Y-31053851D01*
X60265476Y-31577661D01*
X60741666Y-30910994D02*
X60741666Y-31910994D01*
X60741666Y-30958613D02*
X60836904Y-30910994D01*
X61027381Y-30910994D01*
X61122619Y-30958613D01*
X61170238Y-31006232D01*
X61217857Y-31101470D01*
X61217857Y-31387185D01*
X61170238Y-31482423D01*
X61122619Y-31530042D01*
X61027381Y-31577661D01*
X60836904Y-31577661D01*
X60741666Y-31530042D01*
X62027381Y-31530042D02*
X61932143Y-31577661D01*
X61741666Y-31577661D01*
X61646428Y-31530042D01*
X61598809Y-31434804D01*
X61598809Y-31053851D01*
X61646428Y-30958613D01*
X61741666Y-30910994D01*
X61932143Y-30910994D01*
X62027381Y-30958613D01*
X62075000Y-31053851D01*
X62075000Y-31149090D01*
X61598809Y-31244328D01*
X62503571Y-31577661D02*
X62503571Y-30910994D01*
X62503571Y-31101470D02*
X62551190Y-31006232D01*
X62598809Y-30958613D01*
X62694047Y-30910994D01*
X62789286Y-30910994D01*
X63122619Y-31482423D02*
X63170238Y-31530042D01*
X63122619Y-31577661D01*
X63075000Y-31530042D01*
X63122619Y-31482423D01*
X63122619Y-31577661D01*
D11*
X79101429Y-6483851D02*
X79101429Y-4983851D01*
X79458572Y-4983851D01*
X79672857Y-5055280D01*
X79815715Y-5198137D01*
X79887143Y-5340994D01*
X79958572Y-5626709D01*
X79958572Y-5840994D01*
X79887143Y-6126709D01*
X79815715Y-6269566D01*
X79672857Y-6412423D01*
X79458572Y-6483851D01*
X79101429Y-6483851D01*
X80601429Y-4983851D02*
X80601429Y-6198137D01*
X80672857Y-6340994D01*
X80744286Y-6412423D01*
X80887143Y-6483851D01*
X81172857Y-6483851D01*
X81315715Y-6412423D01*
X81387143Y-6340994D01*
X81458572Y-6198137D01*
X81458572Y-4983851D01*
X82101429Y-6055280D02*
X82815715Y-6055280D01*
X81958572Y-6483851D02*
X82458572Y-4983851D01*
X82958572Y-6483851D01*
X84172858Y-6483851D02*
X83458572Y-6483851D01*
X83458572Y-4983851D01*
X77708571Y-8740994D02*
X77637142Y-8812423D01*
X77422856Y-8883851D01*
X77279999Y-8883851D01*
X77065714Y-8812423D01*
X76922856Y-8669566D01*
X76851428Y-8526709D01*
X76779999Y-8240994D01*
X76779999Y-8026709D01*
X76851428Y-7740994D01*
X76922856Y-7598137D01*
X77065714Y-7455280D01*
X77279999Y-7383851D01*
X77422856Y-7383851D01*
X77637142Y-7455280D01*
X77708571Y-7526709D01*
X78351428Y-8883851D02*
X78351428Y-7383851D01*
X78351428Y-8098137D02*
X79208571Y-8098137D01*
X79208571Y-8883851D02*
X79208571Y-7383851D01*
X79851428Y-8455280D02*
X80565714Y-8455280D01*
X79708571Y-8883851D02*
X80208571Y-7383851D01*
X80708571Y-8883851D01*
X81208571Y-8883851D02*
X81208571Y-7383851D01*
X82065714Y-8883851D01*
X82065714Y-7383851D01*
X82780000Y-8883851D02*
X82780000Y-7383851D01*
X83637143Y-8883851D01*
X83637143Y-7383851D01*
X84351429Y-8098137D02*
X84851429Y-8098137D01*
X85065715Y-8883851D02*
X84351429Y-8883851D01*
X84351429Y-7383851D01*
X85065715Y-7383851D01*
X86422858Y-8883851D02*
X85708572Y-8883851D01*
X85708572Y-7383851D01*
X78994286Y-11283851D02*
X78494286Y-10569566D01*
X78137143Y-11283851D02*
X78137143Y-9783851D01*
X78708571Y-9783851D01*
X78851429Y-9855280D01*
X78922857Y-9926709D01*
X78994286Y-10069566D01*
X78994286Y-10283851D01*
X78922857Y-10426709D01*
X78851429Y-10498137D01*
X78708571Y-10569566D01*
X78137143Y-10569566D01*
X79637143Y-10498137D02*
X80137143Y-10498137D01*
X80351429Y-11283851D02*
X79637143Y-11283851D01*
X79637143Y-9783851D01*
X80351429Y-9783851D01*
X81708572Y-11283851D02*
X80994286Y-11283851D01*
X80994286Y-9783851D01*
X82137143Y-10855280D02*
X82851429Y-10855280D01*
X81994286Y-11283851D02*
X82494286Y-9783851D01*
X82994286Y-11283851D01*
X83494286Y-11283851D02*
X83494286Y-9783851D01*
X84137143Y-11212423D02*
X84351429Y-11283851D01*
X84708572Y-11283851D01*
X84851429Y-11212423D01*
X84922858Y-11140994D01*
X84994286Y-10998137D01*
X84994286Y-10855280D01*
X84922858Y-10712423D01*
X84851429Y-10640994D01*
X84708572Y-10569566D01*
X84422858Y-10498137D01*
X84280000Y-10426709D01*
X84208572Y-10355280D01*
X84137143Y-10212423D01*
X84137143Y-10069566D01*
X84208572Y-9926709D01*
X84280000Y-9855280D01*
X84422858Y-9783851D01*
X84780000Y-9783851D01*
X84994286Y-9855280D01*
X64389286Y-3168851D02*
X63889286Y-2454566D01*
X63532143Y-3168851D02*
X63532143Y-1668851D01*
X64103571Y-1668851D01*
X64246429Y-1740280D01*
X64317857Y-1811709D01*
X64389286Y-1954566D01*
X64389286Y-2168851D01*
X64317857Y-2311709D01*
X64246429Y-2383137D01*
X64103571Y-2454566D01*
X63532143Y-2454566D01*
X65032143Y-2383137D02*
X65532143Y-2383137D01*
X65746429Y-3168851D02*
X65032143Y-3168851D01*
X65032143Y-1668851D01*
X65746429Y-1668851D01*
X67103572Y-3168851D02*
X66389286Y-3168851D01*
X66389286Y-1668851D01*
X67532143Y-2740280D02*
X68246429Y-2740280D01*
X67389286Y-3168851D02*
X67889286Y-1668851D01*
X68389286Y-3168851D01*
X68889286Y-3168851D02*
X68889286Y-1668851D01*
X69532143Y-3097423D02*
X69746429Y-3168851D01*
X70103572Y-3168851D01*
X70246429Y-3097423D01*
X70317858Y-3025994D01*
X70389286Y-2883137D01*
X70389286Y-2740280D01*
X70317858Y-2597423D01*
X70246429Y-2525994D01*
X70103572Y-2454566D01*
X69817858Y-2383137D01*
X69675000Y-2311709D01*
X69603572Y-2240280D01*
X69532143Y-2097423D01*
X69532143Y-1954566D01*
X69603572Y-1811709D01*
X69675000Y-1740280D01*
X69817858Y-1668851D01*
X70175000Y-1668851D01*
X70389286Y-1740280D01*
X48514286Y-3168851D02*
X48014286Y-2454566D01*
X47657143Y-3168851D02*
X47657143Y-1668851D01*
X48228571Y-1668851D01*
X48371429Y-1740280D01*
X48442857Y-1811709D01*
X48514286Y-1954566D01*
X48514286Y-2168851D01*
X48442857Y-2311709D01*
X48371429Y-2383137D01*
X48228571Y-2454566D01*
X47657143Y-2454566D01*
X49157143Y-2383137D02*
X49657143Y-2383137D01*
X49871429Y-3168851D02*
X49157143Y-3168851D01*
X49157143Y-1668851D01*
X49871429Y-1668851D01*
X51228572Y-3168851D02*
X50514286Y-3168851D01*
X50514286Y-1668851D01*
X51657143Y-2740280D02*
X52371429Y-2740280D01*
X51514286Y-3168851D02*
X52014286Y-1668851D01*
X52514286Y-3168851D01*
X53014286Y-3168851D02*
X53014286Y-1668851D01*
X53657143Y-3097423D02*
X53871429Y-3168851D01*
X54228572Y-3168851D01*
X54371429Y-3097423D01*
X54442858Y-3025994D01*
X54514286Y-2883137D01*
X54514286Y-2740280D01*
X54442858Y-2597423D01*
X54371429Y-2525994D01*
X54228572Y-2454566D01*
X53942858Y-2383137D01*
X53800000Y-2311709D01*
X53728572Y-2240280D01*
X53657143Y-2097423D01*
X53657143Y-1954566D01*
X53728572Y-1811709D01*
X53800000Y-1740280D01*
X53942858Y-1668851D01*
X54300000Y-1668851D01*
X54514286Y-1740280D01*
D12*
X36881905Y-2942661D02*
X36881905Y-1942661D01*
X37215239Y-2656947D01*
X37548572Y-1942661D01*
X37548572Y-2942661D01*
X38024762Y-2942661D02*
X38024762Y-1942661D01*
X38500952Y-2942661D02*
X38500952Y-1942661D01*
X38739047Y-1942661D01*
X38881905Y-1990280D01*
X38977143Y-2085518D01*
X39024762Y-2180756D01*
X39072381Y-2371232D01*
X39072381Y-2514090D01*
X39024762Y-2704566D01*
X38977143Y-2799804D01*
X38881905Y-2895042D01*
X38739047Y-2942661D01*
X38500952Y-2942661D01*
X39500952Y-2942661D02*
X39500952Y-1942661D01*
X40167618Y-1942661D02*
X40358095Y-1942661D01*
X40453333Y-1990280D01*
X40548571Y-2085518D01*
X40596190Y-2275994D01*
X40596190Y-2609328D01*
X40548571Y-2799804D01*
X40453333Y-2895042D01*
X40358095Y-2942661D01*
X40167618Y-2942661D01*
X40072380Y-2895042D01*
X39977142Y-2799804D01*
X39929523Y-2609328D01*
X39929523Y-2275994D01*
X39977142Y-2085518D01*
X40072380Y-1990280D01*
X40167618Y-1942661D01*
X41024761Y-1942661D02*
X41024761Y-2752185D01*
X41072380Y-2847423D01*
X41119999Y-2895042D01*
X41215237Y-2942661D01*
X41405714Y-2942661D01*
X41500952Y-2895042D01*
X41548571Y-2847423D01*
X41596190Y-2752185D01*
X41596190Y-1942661D01*
X41929523Y-1942661D02*
X42500952Y-1942661D01*
X42215237Y-2942661D02*
X42215237Y-1942661D01*
X28650715Y-2942661D02*
X28650715Y-1942661D01*
X28984049Y-2656947D01*
X29317382Y-1942661D01*
X29317382Y-2942661D01*
X29793572Y-2942661D02*
X29793572Y-1942661D01*
X30269762Y-2942661D02*
X30269762Y-1942661D01*
X30507857Y-1942661D01*
X30650715Y-1990280D01*
X30745953Y-2085518D01*
X30793572Y-2180756D01*
X30841191Y-2371232D01*
X30841191Y-2514090D01*
X30793572Y-2704566D01*
X30745953Y-2799804D01*
X30650715Y-2895042D01*
X30507857Y-2942661D01*
X30269762Y-2942661D01*
X31269762Y-2942661D02*
X31269762Y-1942661D01*
X31603095Y-1942661D02*
X32174524Y-1942661D01*
X31888809Y-2942661D02*
X31888809Y-1942661D01*
X32507857Y-2942661D02*
X32507857Y-1942661D01*
X32507857Y-2418851D02*
X33079286Y-2418851D01*
X33079286Y-2942661D02*
X33079286Y-1942661D01*
X34126905Y-2942661D02*
X33793571Y-2466470D01*
X33555476Y-2942661D02*
X33555476Y-1942661D01*
X33936429Y-1942661D01*
X34031667Y-1990280D01*
X34079286Y-2037899D01*
X34126905Y-2133137D01*
X34126905Y-2275994D01*
X34079286Y-2371232D01*
X34031667Y-2418851D01*
X33936429Y-2466470D01*
X33555476Y-2466470D01*
X22094286Y-2942661D02*
X22094286Y-1942661D01*
X22427620Y-2656947D01*
X22760953Y-1942661D01*
X22760953Y-2942661D01*
X23237143Y-2942661D02*
X23237143Y-1942661D01*
X23713333Y-2942661D02*
X23713333Y-1942661D01*
X23951428Y-1942661D01*
X24094286Y-1990280D01*
X24189524Y-2085518D01*
X24237143Y-2180756D01*
X24284762Y-2371232D01*
X24284762Y-2514090D01*
X24237143Y-2704566D01*
X24189524Y-2799804D01*
X24094286Y-2895042D01*
X23951428Y-2942661D01*
X23713333Y-2942661D01*
X24713333Y-2942661D02*
X24713333Y-1942661D01*
X25760952Y-2942661D02*
X25427618Y-2466470D01*
X25189523Y-2942661D02*
X25189523Y-1942661D01*
X25570476Y-1942661D01*
X25665714Y-1990280D01*
X25713333Y-2037899D01*
X25760952Y-2133137D01*
X25760952Y-2275994D01*
X25713333Y-2371232D01*
X25665714Y-2418851D01*
X25570476Y-2466470D01*
X25189523Y-2466470D01*
X26094285Y-1942661D02*
X26760952Y-2942661D01*
X26760952Y-1942661D02*
X26094285Y-2942661D01*
D11*
X18157143Y-1105280D02*
X18014286Y-1033851D01*
X17800000Y-1033851D01*
X17585715Y-1105280D01*
X17442857Y-1248137D01*
X17371429Y-1390994D01*
X17300000Y-1676709D01*
X17300000Y-1890994D01*
X17371429Y-2176709D01*
X17442857Y-2319566D01*
X17585715Y-2462423D01*
X17800000Y-2533851D01*
X17942857Y-2533851D01*
X18157143Y-2462423D01*
X18228572Y-2390994D01*
X18228572Y-1890994D01*
X17942857Y-1890994D01*
X18871429Y-2533851D02*
X18871429Y-1033851D01*
X19728572Y-2533851D01*
X19728572Y-1033851D01*
X20442858Y-2533851D02*
X20442858Y-1033851D01*
X20800001Y-1033851D01*
X21014286Y-1105280D01*
X21157144Y-1248137D01*
X21228572Y-1390994D01*
X21300001Y-1676709D01*
X21300001Y-1890994D01*
X21228572Y-2176709D01*
X21157144Y-2319566D01*
X21014286Y-2462423D01*
X20800001Y-2533851D01*
X20442858Y-2533851D01*
X11100715Y-1033851D02*
X10386429Y-1033851D01*
X10315000Y-1748137D01*
X10386429Y-1676709D01*
X10529286Y-1605280D01*
X10886429Y-1605280D01*
X11029286Y-1676709D01*
X11100715Y-1748137D01*
X11172143Y-1890994D01*
X11172143Y-2248137D01*
X11100715Y-2390994D01*
X11029286Y-2462423D01*
X10886429Y-2533851D01*
X10529286Y-2533851D01*
X10386429Y-2462423D01*
X10315000Y-2390994D01*
X11600714Y-1033851D02*
X12100714Y-2533851D01*
X12600714Y-1033851D01*
X13100714Y-1962423D02*
X14243571Y-1962423D01*
X13672142Y-2533851D02*
X13672142Y-1390994D01*
X43543600Y-33706737D02*
X43472171Y-33849594D01*
X43472171Y-34063880D01*
X43543600Y-34278165D01*
X43686457Y-34421023D01*
X43829314Y-34492451D01*
X44115029Y-34563880D01*
X44329314Y-34563880D01*
X44615029Y-34492451D01*
X44757886Y-34421023D01*
X44900743Y-34278165D01*
X44972171Y-34063880D01*
X44972171Y-33921023D01*
X44900743Y-33706737D01*
X44829314Y-33635308D01*
X44329314Y-33635308D01*
X44329314Y-33921023D01*
X44972171Y-32992451D02*
X43472171Y-32992451D01*
X44972171Y-32135308D01*
X43472171Y-32135308D01*
X44972171Y-31421022D02*
X43472171Y-31421022D01*
X43472171Y-31063879D01*
X43543600Y-30849594D01*
X43686457Y-30706736D01*
X43829314Y-30635308D01*
X44115029Y-30563879D01*
X44329314Y-30563879D01*
X44615029Y-30635308D01*
X44757886Y-30706736D01*
X44900743Y-30849594D01*
X44972171Y-31063879D01*
X44972171Y-31421022D01*
D13*
X45360400Y-29668280D02*
X45284200Y-29668280D01*
X45360400Y-34849880D02*
X45360400Y-29668280D01*
X44877800Y-35332480D02*
X45360400Y-34849880D01*
X43379200Y-36831080D02*
X44877800Y-35332480D01*
X34794000Y-38050280D02*
X34794000Y-35510280D01*
X29714000Y-38050280D02*
X34794000Y-38050280D01*
X29714000Y-36018280D02*
X29714000Y-38050280D01*
X32762000Y-36018280D02*
X29714000Y-36018280D01*
X34286000Y-36018280D02*
X32762000Y-36018280D01*
X35810000Y-34494280D02*
X34286000Y-36018280D01*
X35810000Y-32970280D02*
X35810000Y-34494280D01*
X35302000Y-32970280D02*
X38350000Y-32970280D01*
X42033000Y-38177280D02*
X43366500Y-36843780D01*
D10*
X18665000Y-73610280D02*
X28698000Y-73610280D01*
X28698000Y-69165280D02*
X18665000Y-69165280D01*
X18665000Y-69165280D02*
X3075000Y-69165280D01*
X18665000Y-73610280D02*
X3075000Y-73610280D01*
X18665000Y-75515280D02*
X3075000Y-75515280D01*
X28698000Y-75515280D02*
X18665000Y-75515280D01*
X28698000Y-75515280D02*
X28698000Y-69165280D01*
X3075000Y-75515280D02*
X3075000Y-69165280D01*
X10545000Y-64940280D02*
X10545000Y-67040280D01*
X5195000Y-64940280D02*
X5195000Y-67040280D01*
X25055000Y-34062280D02*
X25055000Y-30862280D01*
D14*
X30055000Y-30862280D02*
X30055000Y-34062280D01*
X27936000Y-33097280D02*
X27936000Y-32462280D01*
X27936000Y-32462280D02*
X27936000Y-31827280D01*
X27682000Y-32716280D02*
X27682000Y-32208280D01*
X27682000Y-32208280D02*
X27428000Y-32208280D01*
X27428000Y-32208280D02*
X27428000Y-32716280D01*
X27428000Y-32716280D02*
X27682000Y-32716280D01*
X27174000Y-33097280D02*
X27174000Y-32462280D01*
X27174000Y-32462280D02*
X27174000Y-31827280D01*
X26920000Y-32462280D02*
X27174000Y-32462280D01*
X28190000Y-32462280D02*
X27936000Y-32462280D01*
X30055000Y-34062280D02*
X25055000Y-34062280D01*
X30055000Y-30862280D02*
X25055000Y-30862280D01*
D10*
X23579000Y-32962280D02*
X23579000Y-31962280D01*
X21879000Y-31962280D02*
X21879000Y-32962280D01*
X31277000Y-31962280D02*
X31277000Y-32962280D01*
X32977000Y-32962280D02*
X32977000Y-31962280D01*
X32991500Y-39645780D02*
X32991500Y-40645780D01*
X34691500Y-40645780D02*
X34691500Y-39645780D01*
X35722000Y-39645780D02*
X35722000Y-40645780D01*
X37422000Y-40645780D02*
X37422000Y-39645780D01*
X16340000Y-46978000D02*
X16340000Y-45978000D01*
X14640000Y-45978000D02*
X14640000Y-46978000D01*
X27975000Y-57870280D02*
X27975000Y-58870280D01*
X29675000Y-58870280D02*
X29675000Y-57870280D01*
X53424000Y-46297280D02*
X53424000Y-45297280D01*
X51724000Y-45297280D02*
X51724000Y-46297280D01*
X47565500Y-20802780D02*
X48565500Y-20802780D01*
X48565500Y-19102780D02*
X47565500Y-19102780D01*
X44755500Y-59979000D02*
X43755500Y-59979000D01*
X43755500Y-61679000D02*
X44755500Y-61679000D01*
X3900000Y-29250000D02*
X3900000Y-30250000D01*
X5600000Y-30250000D02*
X5600000Y-29250000D01*
X34400000Y-22350000D02*
X34400000Y-21350000D01*
X32700000Y-21350000D02*
X32700000Y-22350000D01*
X31619000Y-94819280D02*
X57019000Y-94819280D01*
X54479000Y-89739280D02*
X31619000Y-89739280D01*
X31619000Y-94819280D02*
X31619000Y-89739280D01*
X57019000Y-94819280D02*
X57019000Y-92279280D01*
X57299000Y-91009280D02*
X57299000Y-89459280D01*
X57019000Y-92279280D02*
X54479000Y-92279280D01*
X54479000Y-92279280D02*
X54479000Y-89739280D01*
X57299000Y-89459280D02*
X55749000Y-89459280D01*
X40190000Y-62225000D02*
X40190000Y-62590000D01*
X47940000Y-62225000D02*
X47940000Y-62590000D01*
X47940000Y-77975000D02*
X47940000Y-77610000D01*
X40190000Y-77975000D02*
X40190000Y-77610000D01*
X40190000Y-62225000D02*
X47940000Y-62225000D01*
X40190000Y-77975000D02*
X47940000Y-77975000D01*
X40190000Y-62590000D02*
X38365000Y-62590000D01*
X74226000Y-45191280D02*
X74226000Y-45526280D01*
X81976000Y-45191280D02*
X81976000Y-45526280D01*
X81976000Y-58341280D02*
X81976000Y-58006280D01*
X74226000Y-58341280D02*
X74226000Y-58006280D01*
X74226000Y-45191280D02*
X81976000Y-45191280D01*
X74226000Y-58341280D02*
X81976000Y-58341280D01*
X74226000Y-45526280D02*
X72426000Y-45526280D01*
D15*
X28825000Y-18538000D02*
X28825000Y-27428000D01*
X28825000Y-27428000D02*
X23745000Y-27428000D01*
X23745000Y-27428000D02*
X23745000Y-18538000D01*
X23745000Y-18538000D02*
X28825000Y-18538000D01*
X26920000Y-18538000D02*
X26920000Y-19808000D01*
X26920000Y-19808000D02*
X25650000Y-19808000D01*
X25650000Y-19808000D02*
X25650000Y-18538000D01*
D10*
X39510000Y-18780280D02*
X39510000Y-18895280D01*
X43660000Y-18780280D02*
X43660000Y-18895280D01*
X43660000Y-27680280D02*
X43660000Y-27565280D01*
X39510000Y-27680280D02*
X39510000Y-27565280D01*
X39510000Y-18780280D02*
X43660000Y-18780280D01*
X39510000Y-27680280D02*
X43660000Y-27680280D01*
X39510000Y-18895280D02*
X38135000Y-18895280D01*
X25410000Y-80560280D02*
X25410000Y-79360280D01*
X27160000Y-79360280D02*
X27160000Y-80560280D01*
X21445000Y-65436000D02*
X21445000Y-66636000D01*
X19695000Y-66636000D02*
X19695000Y-65436000D01*
X27950000Y-80560280D02*
X27950000Y-79360280D01*
X29700000Y-79360280D02*
X29700000Y-80560280D01*
X32240000Y-79360280D02*
X32240000Y-80560280D01*
X30490000Y-80560280D02*
X30490000Y-79360280D01*
X51826000Y-64223000D02*
X51826000Y-63023000D01*
X53576000Y-63023000D02*
X53576000Y-64223000D01*
X21600000Y-14520280D02*
X21600000Y-13320280D01*
X23350000Y-13320280D02*
X23350000Y-14520280D01*
X36460000Y-24130280D02*
X36460000Y-25330280D01*
X34710000Y-25330280D02*
X34710000Y-24130280D01*
X61450000Y-13320280D02*
X61450000Y-14520280D01*
X59700000Y-14520280D02*
X59700000Y-13320280D01*
X63990000Y-13320280D02*
X63990000Y-14520280D01*
X62240000Y-14520280D02*
X62240000Y-13320280D01*
X47434454Y-12242297D02*
X48282983Y-13090826D01*
X47045546Y-14328263D02*
X46197017Y-13479734D01*
X51244454Y-12242297D02*
X52092983Y-13090826D01*
X50855546Y-14328263D02*
X50007017Y-13479734D01*
X43035000Y-12685280D02*
X43035000Y-13885280D01*
X41285000Y-13885280D02*
X41285000Y-12685280D01*
X37955000Y-12685280D02*
X37955000Y-13885280D01*
X36205000Y-13885280D02*
X36205000Y-12685280D01*
X34780000Y-12685280D02*
X34780000Y-13885280D01*
X33030000Y-13885280D02*
X33030000Y-12685280D01*
X29700000Y-12685280D02*
X29700000Y-13885280D01*
X27950000Y-13885280D02*
X27950000Y-12685280D01*
X47725000Y-48600000D02*
X47725000Y-47400000D01*
X49475000Y-47400000D02*
X49475000Y-48600000D01*
X36219500Y-57195500D02*
X35019500Y-57195500D01*
X35019500Y-55445500D02*
X36219500Y-55445500D01*
X84875000Y-64350000D02*
X84875000Y-63150000D01*
X86625000Y-63150000D02*
X86625000Y-64350000D01*
X63650000Y-61875000D02*
X64850000Y-61875000D01*
X64850000Y-63625000D02*
X63650000Y-63625000D01*
X81798000Y-70400280D02*
X81798000Y-69200280D01*
X83548000Y-69200280D02*
X83548000Y-70400280D01*
X56875000Y-73350000D02*
X56875000Y-72150000D01*
X58625000Y-72150000D02*
X58625000Y-73350000D01*
X51699000Y-50842280D02*
X51699000Y-49642280D01*
X53449000Y-49642280D02*
X53449000Y-50842280D01*
X68644000Y-50924780D02*
X68644000Y-48924780D01*
X70794000Y-48924780D02*
X70794000Y-50924780D01*
X20789000Y-51371280D02*
X19589000Y-51371280D01*
X19589000Y-49621280D02*
X20789000Y-49621280D01*
X21170000Y-57905280D02*
X21315000Y-57905280D01*
X21170000Y-53755280D02*
X21315000Y-53755280D01*
X26320000Y-53755280D02*
X26175000Y-53755280D01*
X26320000Y-57905280D02*
X26175000Y-57905280D01*
X21170000Y-57905280D02*
X21170000Y-53755280D01*
X26320000Y-57905280D02*
X26320000Y-53755280D01*
X21315000Y-57905280D02*
X21315000Y-59305280D01*
X32915983Y-64007954D02*
X32067454Y-64856483D01*
X30830017Y-63619046D02*
X31678546Y-62770517D01*
X56750180Y-64300800D02*
X56750180Y-63599760D01*
X56750180Y-63599760D02*
X56999100Y-63599760D01*
X59549160Y-63599760D02*
X59749820Y-63599760D01*
X59749820Y-63599760D02*
X59749820Y-64300800D01*
X58199200Y-83250180D02*
X58900240Y-83250180D01*
X58900240Y-83250180D02*
X58900240Y-83499100D01*
X58900240Y-86049160D02*
X58900240Y-86249820D01*
X58900240Y-86249820D02*
X58199200Y-86249820D01*
X71065200Y-61569460D02*
X71766240Y-61569460D01*
X71766240Y-61569460D02*
X71766240Y-61818380D01*
X71766240Y-64368440D02*
X71766240Y-64569100D01*
X71766240Y-64569100D02*
X71065200Y-64569100D01*
X47859000Y-16197280D02*
X45859000Y-16197280D01*
X45859000Y-18247280D02*
X47859000Y-18247280D01*
X28250000Y-98275000D02*
X30250000Y-98275000D01*
X30250000Y-96225000D02*
X28250000Y-96225000D01*
X30403500Y-15206280D02*
X30403500Y-17206280D01*
X32453500Y-17206280D02*
X32453500Y-15206280D01*
X71195500Y-12722780D02*
X73195500Y-12722780D01*
X73195500Y-10672780D02*
X71195500Y-10672780D01*
X15150000Y-31000000D02*
X14150000Y-31000000D01*
X14150000Y-32700000D02*
X15150000Y-32700000D01*
X90050000Y-21800000D02*
X91050000Y-21800000D01*
X91050000Y-20100000D02*
X90050000Y-20100000D01*
X8148500Y-79761780D02*
X8148500Y-78761780D01*
X6448500Y-78761780D02*
X6448500Y-79761780D01*
X4068000Y-63076000D02*
X5068000Y-63076000D01*
X5068000Y-61376000D02*
X4068000Y-61376000D01*
X4653200Y-80198280D02*
X4653200Y-78198280D01*
X2603200Y-78198280D02*
X2603200Y-80198280D01*
X3568000Y-60457000D02*
X5568000Y-60457000D01*
X5568000Y-58407000D02*
X3568000Y-58407000D01*
X9529000Y-42502000D02*
X10529000Y-42502000D01*
X10529000Y-40802000D02*
X9529000Y-40802000D01*
X31150000Y-49900000D02*
X31150000Y-50900000D01*
X32850000Y-50900000D02*
X32850000Y-49900000D01*
X19007000Y-46978000D02*
X19007000Y-45978000D01*
X17307000Y-45978000D02*
X17307000Y-46978000D01*
X36450000Y-46900000D02*
X36450000Y-45900000D01*
X34750000Y-45900000D02*
X34750000Y-46900000D01*
X32250000Y-36150000D02*
X31250000Y-36150000D01*
X31250000Y-37850000D02*
X32250000Y-37850000D01*
X12053000Y-32801000D02*
X11053000Y-32801000D01*
X11053000Y-34501000D02*
X12053000Y-34501000D01*
X9147000Y-23726280D02*
X9147000Y-26901280D01*
X9147000Y-26901280D02*
X10925000Y-26901280D01*
X10925000Y-26901280D02*
X10925000Y-23726280D01*
X4575000Y-23726280D02*
X4575000Y-26901280D01*
X4575000Y-26901280D02*
X6353000Y-26901280D01*
X6353000Y-26901280D02*
X6353000Y-23726280D01*
X11179000Y-17630280D02*
X11179000Y-23726280D01*
X11179000Y-23726280D02*
X4321000Y-23726280D01*
X4321000Y-23726280D02*
X4321000Y-15852280D01*
X4321000Y-15725280D02*
X11179000Y-15725280D01*
X11179000Y-15852280D02*
X11179000Y-17630280D01*
X30100500Y-40267280D02*
X29575500Y-40267280D01*
X30100500Y-47517280D02*
X29575500Y-47517280D01*
X22850500Y-47517280D02*
X23375500Y-47517280D01*
X22850500Y-40267280D02*
X23375500Y-40267280D01*
X30100500Y-40267280D02*
X30100500Y-40792280D01*
X22850500Y-40267280D02*
X22850500Y-40792280D01*
X22850500Y-47517280D02*
X22850500Y-46992280D01*
X30100500Y-47517280D02*
X30100500Y-46992280D01*
X29575500Y-40267280D02*
X29575500Y-38892280D01*
X3275000Y-30750000D02*
X3275000Y-28750000D01*
X1225000Y-28750000D02*
X1225000Y-30750000D01*
X14250000Y-24401280D02*
X14250000Y-23639280D01*
X14631000Y-24020280D02*
X13869000Y-24020280D01*
X11964000Y-24274280D02*
X11964000Y-20464280D01*
X15774000Y-25036280D02*
X12726000Y-25036280D01*
X11964000Y-24274280D02*
X12726000Y-25036280D01*
X16536000Y-24274280D02*
X16536000Y-20464280D01*
X16536000Y-24274280D02*
X15774000Y-25036280D01*
X14123000Y-20718280D02*
X14377000Y-20718280D01*
X14885000Y-20845280D02*
X13615000Y-20845280D01*
X13361000Y-20972280D02*
X15139000Y-20972280D01*
X13107000Y-21099280D02*
X15393000Y-21099280D01*
X15520000Y-21226280D02*
X12980000Y-21226280D01*
X12853000Y-21353280D02*
X15647000Y-21353280D01*
X15774000Y-21480280D02*
X12726000Y-21480280D01*
X15901000Y-21607280D02*
X12599000Y-21607280D01*
X16536000Y-20464280D02*
X11964000Y-20464280D01*
X16282000Y-22750280D02*
G75*
G03X16282000Y-22750280I-2032000J0D01*
G01*
X22750000Y-37300000D02*
X23750000Y-37300000D01*
X23750000Y-35600000D02*
X22750000Y-35600000D01*
X19525000Y-32650000D02*
X19525000Y-33850000D01*
X17775000Y-33850000D02*
X17775000Y-32650000D01*
X37850000Y-36850000D02*
X37850000Y-35850000D01*
X36150000Y-35850000D02*
X36150000Y-36850000D01*
X42050900Y-43567400D02*
X42050900Y-42678400D01*
X42050900Y-42678400D02*
X42045820Y-42637760D01*
X39955400Y-44852640D02*
X40676760Y-44850100D01*
X39100000Y-44850000D02*
X39900000Y-44850000D01*
X39100000Y-38200000D02*
X39100000Y-44850000D01*
X39100000Y-38200000D02*
X42050000Y-38200000D01*
X42050000Y-38200000D02*
X42050000Y-42750000D01*
X40700000Y-44850000D02*
X42050000Y-44850000D01*
X42050000Y-44850000D02*
X42050000Y-43550000D01*
X66705000Y-87080280D02*
X64605000Y-87080280D01*
X66705000Y-81730280D02*
X64605000Y-81730280D01*
X78135000Y-87080280D02*
X76035000Y-87080280D01*
X78135000Y-81730280D02*
X76035000Y-81730280D01*
X64097000Y-66871280D02*
X66197000Y-66871280D01*
X64097000Y-72221280D02*
X66197000Y-72221280D01*
X74765000Y-66871280D02*
X76865000Y-66871280D01*
X74765000Y-72221280D02*
X76865000Y-72221280D01*
X14990000Y-78910280D02*
X14990000Y-81010280D01*
X9640000Y-78910280D02*
X9640000Y-81010280D01*
X22610000Y-78910280D02*
X22610000Y-81010280D01*
X17260000Y-78910280D02*
X17260000Y-81010280D01*
X18165000Y-64940280D02*
X18165000Y-67040280D01*
X12815000Y-64940280D02*
X12815000Y-67040280D01*
X15947200Y-3734880D02*
X21535200Y-3734880D01*
X21535200Y-10084880D02*
X15947200Y-10084880D01*
X15947200Y-8179880D02*
X21535200Y-8179880D01*
X15947200Y-3734880D02*
X10359200Y-3734880D01*
X15947200Y-8179880D02*
X10359200Y-8179880D01*
X15947200Y-10084880D02*
X10359200Y-10084880D01*
X21535200Y-10084880D02*
X21535200Y-3734880D01*
X10359200Y-10084880D02*
X10359200Y-3734880D01*
X25900000Y-16460280D02*
X26150000Y-16460280D01*
X25400000Y-16460280D02*
X25150000Y-16460280D01*
X25400000Y-16460280D02*
X25900000Y-16110280D01*
X25900000Y-16110280D02*
X25900000Y-16810280D01*
X25900000Y-16810280D02*
X25400000Y-16460280D01*
X25400000Y-16110280D02*
X25400000Y-16810280D01*
X24350000Y-17260280D02*
X26750000Y-17260280D01*
X24350000Y-15660280D02*
X26750000Y-15660280D01*
X38350000Y-3760280D02*
X43938000Y-3760280D01*
X43938000Y-10110280D02*
X38350000Y-10110280D01*
X38350000Y-8205280D02*
X43938000Y-8205280D01*
X38350000Y-3760280D02*
X35810000Y-3760280D01*
X38350000Y-8205280D02*
X35810000Y-8205280D01*
X38350000Y-10110280D02*
X35810000Y-10110280D01*
X43938000Y-10110280D02*
X43938000Y-3760280D01*
X35810000Y-10110280D02*
X35810000Y-3760280D01*
X30095000Y-3760280D02*
X35683000Y-3760280D01*
X35683000Y-10110280D02*
X30095000Y-10110280D01*
X30095000Y-8205280D02*
X35683000Y-8205280D01*
X30095000Y-3760280D02*
X27555000Y-3760280D01*
X30095000Y-8205280D02*
X27555000Y-8205280D01*
X30095000Y-10110280D02*
X27555000Y-10110280D01*
X35683000Y-10110280D02*
X35683000Y-3760280D01*
X27555000Y-10110280D02*
X27555000Y-3760280D01*
X18665000Y-87580280D02*
X28698000Y-87580280D01*
X28698000Y-83135280D02*
X18665000Y-83135280D01*
X18665000Y-83135280D02*
X3075000Y-83135280D01*
X18665000Y-87580280D02*
X3075000Y-87580280D01*
X18665000Y-89485280D02*
X3075000Y-89485280D01*
X28698000Y-89485280D02*
X18665000Y-89485280D01*
X28698000Y-89485280D02*
X28698000Y-83135280D01*
X3075000Y-89485280D02*
X3075000Y-83135280D01*
X21840000Y-3760280D02*
X27428000Y-3760280D01*
X27428000Y-10110280D02*
X21840000Y-10110280D01*
X21840000Y-8205280D02*
X27428000Y-8205280D01*
X23110000Y-3760280D02*
X21840000Y-3760280D01*
X23110000Y-8205280D02*
X21840000Y-8205280D01*
X23110000Y-10110280D02*
X21840000Y-10110280D01*
X27428000Y-10110280D02*
X27428000Y-3760280D01*
X21840000Y-10110280D02*
X21840000Y-3760280D01*
X76450000Y-78690280D02*
X86483000Y-78690280D01*
X86483000Y-74245280D02*
X76450000Y-74245280D01*
X76450000Y-74245280D02*
X60860000Y-74245280D01*
X76450000Y-78690280D02*
X60860000Y-78690280D01*
X76450000Y-80595280D02*
X60860000Y-80595280D01*
X86483000Y-80595280D02*
X76450000Y-80595280D01*
X86483000Y-80595280D02*
X86483000Y-74245280D01*
X60860000Y-80595280D02*
X60860000Y-74245280D01*
X82800000Y-17730280D02*
X92833000Y-17730280D01*
X92833000Y-13285280D02*
X82800000Y-13285280D01*
X82800000Y-13285280D02*
X67210000Y-13285280D01*
X82800000Y-17730280D02*
X67210000Y-17730280D01*
X82800000Y-19635280D02*
X67210000Y-19635280D01*
X92833000Y-19635280D02*
X82800000Y-19635280D01*
X92833000Y-19635280D02*
X92833000Y-13285280D01*
X67210000Y-19635280D02*
X67210000Y-13285280D01*
X76450000Y-92660280D02*
X86483000Y-92660280D01*
X86483000Y-88215280D02*
X76450000Y-88215280D01*
X76450000Y-88215280D02*
X60860000Y-88215280D01*
X76450000Y-92660280D02*
X60860000Y-92660280D01*
X76450000Y-94565280D02*
X60860000Y-94565280D01*
X86483000Y-94565280D02*
X76450000Y-94565280D01*
X86483000Y-94565280D02*
X86483000Y-88215280D01*
X60860000Y-94565280D02*
X60860000Y-88215280D01*
X82800000Y-26620280D02*
X92833000Y-26620280D01*
X92833000Y-22175280D02*
X82800000Y-22175280D01*
X82800000Y-22175280D02*
X67210000Y-22175280D01*
X82800000Y-26620280D02*
X67210000Y-26620280D01*
X82800000Y-28525280D02*
X67210000Y-28525280D01*
X92833000Y-28525280D02*
X82800000Y-28525280D01*
X92833000Y-28525280D02*
X92833000Y-22175280D01*
X67210000Y-28525280D02*
X67210000Y-22175280D01*
X49145000Y-8205280D02*
X59178000Y-8205280D01*
X59178000Y-3760280D02*
X49145000Y-3760280D01*
X49145000Y-3760280D02*
X44112000Y-3760280D01*
X49145000Y-8205280D02*
X44112000Y-8205280D01*
X49145000Y-10110280D02*
X44112000Y-10110280D01*
X59178000Y-10110280D02*
X49145000Y-10110280D01*
X59178000Y-10110280D02*
X59178000Y-3760280D01*
X44065000Y-10110280D02*
X44065000Y-3760280D01*
X64385000Y-8205280D02*
X74418000Y-8205280D01*
X74418000Y-3760280D02*
X64385000Y-3760280D01*
X64385000Y-3760280D02*
X59352000Y-3760280D01*
X64385000Y-8205280D02*
X59352000Y-8205280D01*
X64385000Y-10110280D02*
X59352000Y-10110280D01*
X74418000Y-10110280D02*
X64385000Y-10110280D01*
X74418000Y-10110280D02*
X74418000Y-3760280D01*
X59305000Y-10110280D02*
X59305000Y-3760280D01*
X68678500Y-43709780D02*
X68678500Y-44709780D01*
X70378500Y-44709780D02*
X70378500Y-43709780D01*
X18069000Y-55457280D02*
X18069000Y-56457280D01*
X19769000Y-56457280D02*
X19769000Y-55457280D01*
X8654000Y-39390000D02*
X8904000Y-39390000D01*
X8654000Y-36040000D02*
X8904000Y-36040000D01*
X11404000Y-36040000D02*
X11154000Y-36040000D01*
X11404000Y-39390000D02*
X11154000Y-39390000D01*
X8654000Y-39390000D02*
X8654000Y-36040000D01*
X11404000Y-39390000D02*
X11404000Y-36040000D01*
X8904000Y-39390000D02*
X8904000Y-39940000D01*
X57081000Y-45191280D02*
X57081000Y-45526280D01*
X64831000Y-45191280D02*
X64831000Y-45526280D01*
X64831000Y-58341280D02*
X64831000Y-58006280D01*
X57081000Y-58341280D02*
X57081000Y-58006280D01*
X57081000Y-45191280D02*
X64831000Y-45191280D01*
X57081000Y-58341280D02*
X64831000Y-58341280D01*
X57081000Y-45526280D02*
X55281000Y-45526280D01*
X16175000Y-28550000D02*
X16175000Y-27350000D01*
X17925000Y-27350000D02*
X17925000Y-28550000D01*
X16050000Y-10300000D02*
X15050000Y-10300000D01*
X15050000Y-12000000D02*
X16050000Y-12000000D01*
X16250000Y-12525000D02*
X14250000Y-12525000D01*
X14250000Y-14575000D02*
X16250000Y-14575000D01*
X12000000Y-12350000D02*
X12000000Y-11350000D01*
X10300000Y-11350000D02*
X10300000Y-12350000D01*
X48369000Y-52609000D02*
X48369000Y-53809000D01*
X46619000Y-53809000D02*
X46619000Y-52609000D01*
X50274000Y-52609000D02*
X50274000Y-53809000D01*
X48524000Y-53809000D02*
X48524000Y-52609000D01*
X42654000Y-52609000D02*
X42654000Y-53809000D01*
X40904000Y-53809000D02*
X40904000Y-52609000D01*
X44559000Y-52609000D02*
X44559000Y-53809000D01*
X42809000Y-53809000D02*
X42809000Y-52609000D01*
X46464000Y-52609000D02*
X46464000Y-53809000D01*
X44714000Y-53809000D02*
X44714000Y-52609000D01*
X49446500Y-57835500D02*
X47446500Y-57835500D01*
X47446500Y-59885500D02*
X49446500Y-59885500D01*
X39083500Y-57414000D02*
X40283500Y-57414000D01*
X40283500Y-59164000D02*
X39083500Y-59164000D01*
X44200000Y-47300000D02*
X43200000Y-47300000D01*
X43200000Y-49000000D02*
X44200000Y-49000000D01*
X39350000Y-45475000D02*
X40550000Y-45475000D01*
X40550000Y-47225000D02*
X39350000Y-47225000D01*
X42900000Y-40250000D02*
X42900000Y-41250000D01*
X44600000Y-41250000D02*
X44600000Y-40250000D01*
X15386905Y-75332661D02*
X15386905Y-74332661D01*
X15767858Y-74332661D01*
X15863096Y-74380280D01*
X15910715Y-74427899D01*
X15958334Y-74523137D01*
X15958334Y-74665994D01*
X15910715Y-74761232D01*
X15863096Y-74808851D01*
X15767858Y-74856470D01*
X15386905Y-74856470D01*
X16291667Y-74332661D02*
X16910715Y-74332661D01*
X16577381Y-74713613D01*
X16720239Y-74713613D01*
X16815477Y-74761232D01*
X16863096Y-74808851D01*
X16910715Y-74904090D01*
X16910715Y-75142185D01*
X16863096Y-75237423D01*
X16815477Y-75285042D01*
X16720239Y-75332661D01*
X16434524Y-75332661D01*
X16339286Y-75285042D01*
X16291667Y-75237423D01*
X7584334Y-63585161D02*
X7251000Y-63108970D01*
X7012905Y-63585161D02*
X7012905Y-62585161D01*
X7393858Y-62585161D01*
X7489096Y-62632780D01*
X7536715Y-62680399D01*
X7584334Y-62775637D01*
X7584334Y-62918494D01*
X7536715Y-63013732D01*
X7489096Y-63061351D01*
X7393858Y-63108970D01*
X7012905Y-63108970D01*
X8012905Y-63585161D02*
X8012905Y-62585161D01*
X8393858Y-62585161D01*
X8489096Y-62632780D01*
X8536715Y-62680399D01*
X8584334Y-62775637D01*
X8584334Y-62918494D01*
X8536715Y-63013732D01*
X8489096Y-63061351D01*
X8393858Y-63108970D01*
X8012905Y-63108970D01*
X8917667Y-62585161D02*
X9584334Y-62585161D01*
X9155762Y-63585161D01*
X24162534Y-30127023D02*
X24114915Y-30174642D01*
X23972058Y-30222261D01*
X23876820Y-30222261D01*
X23733962Y-30174642D01*
X23638724Y-30079404D01*
X23591105Y-29984166D01*
X23543486Y-29793690D01*
X23543486Y-29650832D01*
X23591105Y-29460356D01*
X23638724Y-29365118D01*
X23733962Y-29269880D01*
X23876820Y-29222261D01*
X23972058Y-29222261D01*
X24114915Y-29269880D01*
X24162534Y-29317499D01*
X24495867Y-29222261D02*
X25114915Y-29222261D01*
X24781581Y-29603213D01*
X24924439Y-29603213D01*
X25019677Y-29650832D01*
X25067296Y-29698451D01*
X25114915Y-29793690D01*
X25114915Y-30031785D01*
X25067296Y-30127023D01*
X25019677Y-30174642D01*
X24924439Y-30222261D01*
X24638724Y-30222261D01*
X24543486Y-30174642D01*
X24495867Y-30127023D01*
X30868134Y-29923823D02*
X30820515Y-29971442D01*
X30677658Y-30019061D01*
X30582420Y-30019061D01*
X30439562Y-29971442D01*
X30344324Y-29876204D01*
X30296705Y-29780966D01*
X30249086Y-29590490D01*
X30249086Y-29447632D01*
X30296705Y-29257156D01*
X30344324Y-29161918D01*
X30439562Y-29066680D01*
X30582420Y-29019061D01*
X30677658Y-29019061D01*
X30820515Y-29066680D01*
X30868134Y-29114299D01*
X31725277Y-29352394D02*
X31725277Y-30019061D01*
X31487181Y-28971442D02*
X31249086Y-29685728D01*
X31868134Y-29685728D01*
X35468643Y-43804946D02*
X35516262Y-43852565D01*
X35563881Y-43995422D01*
X35563881Y-44090660D01*
X35516262Y-44233518D01*
X35421024Y-44328756D01*
X35325786Y-44376375D01*
X35135310Y-44423994D01*
X34992452Y-44423994D01*
X34801976Y-44376375D01*
X34706738Y-44328756D01*
X34611500Y-44233518D01*
X34563881Y-44090660D01*
X34563881Y-43995422D01*
X34611500Y-43852565D01*
X34659119Y-43804946D01*
X34563881Y-42900184D02*
X34563881Y-43376375D01*
X35040071Y-43423994D01*
X34992452Y-43376375D01*
X34944833Y-43281137D01*
X34944833Y-43043041D01*
X34992452Y-42947803D01*
X35040071Y-42900184D01*
X35135310Y-42852565D01*
X35373405Y-42852565D01*
X35468643Y-42900184D01*
X35516262Y-42947803D01*
X35563881Y-43043041D01*
X35563881Y-43281137D01*
X35516262Y-43376375D01*
X35468643Y-43423994D01*
X38643643Y-40248946D02*
X38691262Y-40296565D01*
X38738881Y-40439422D01*
X38738881Y-40534660D01*
X38691262Y-40677518D01*
X38596024Y-40772756D01*
X38500786Y-40820375D01*
X38310310Y-40867994D01*
X38167452Y-40867994D01*
X37976976Y-40820375D01*
X37881738Y-40772756D01*
X37786500Y-40677518D01*
X37738881Y-40534660D01*
X37738881Y-40439422D01*
X37786500Y-40296565D01*
X37834119Y-40248946D01*
X37738881Y-39391803D02*
X37738881Y-39582280D01*
X37786500Y-39677518D01*
X37834119Y-39725137D01*
X37976976Y-39820375D01*
X38167452Y-39867994D01*
X38548405Y-39867994D01*
X38643643Y-39820375D01*
X38691262Y-39772756D01*
X38738881Y-39677518D01*
X38738881Y-39487041D01*
X38691262Y-39391803D01*
X38643643Y-39344184D01*
X38548405Y-39296565D01*
X38310310Y-39296565D01*
X38215071Y-39344184D01*
X38167452Y-39391803D01*
X38119833Y-39487041D01*
X38119833Y-39677518D01*
X38167452Y-39772756D01*
X38215071Y-39820375D01*
X38310310Y-39867994D01*
X12672143Y-46662446D02*
X12719762Y-46710065D01*
X12767381Y-46852922D01*
X12767381Y-46948160D01*
X12719762Y-47091018D01*
X12624524Y-47186256D01*
X12529286Y-47233875D01*
X12338810Y-47281494D01*
X12195952Y-47281494D01*
X12005476Y-47233875D01*
X11910238Y-47186256D01*
X11815000Y-47091018D01*
X11767381Y-46948160D01*
X11767381Y-46852922D01*
X11815000Y-46710065D01*
X11862619Y-46662446D01*
X11767381Y-46329113D02*
X11767381Y-45662446D01*
X12767381Y-46091018D01*
X31036343Y-57673346D02*
X31083962Y-57720965D01*
X31131581Y-57863822D01*
X31131581Y-57959060D01*
X31083962Y-58101918D01*
X30988724Y-58197156D01*
X30893486Y-58244775D01*
X30703010Y-58292394D01*
X30560152Y-58292394D01*
X30369676Y-58244775D01*
X30274438Y-58197156D01*
X30179200Y-58101918D01*
X30131581Y-57959060D01*
X30131581Y-57863822D01*
X30179200Y-57720965D01*
X30226819Y-57673346D01*
X31131581Y-57197156D02*
X31131581Y-57006680D01*
X31083962Y-56911441D01*
X31036343Y-56863822D01*
X30893486Y-56768584D01*
X30703010Y-56720965D01*
X30322057Y-56720965D01*
X30226819Y-56768584D01*
X30179200Y-56816203D01*
X30131581Y-56911441D01*
X30131581Y-57101918D01*
X30179200Y-57197156D01*
X30226819Y-57244775D01*
X30322057Y-57292394D01*
X30560152Y-57292394D01*
X30655390Y-57244775D01*
X30703010Y-57197156D01*
X30750629Y-57101918D01*
X30750629Y-56911441D01*
X30703010Y-56816203D01*
X30655390Y-56768584D01*
X30560152Y-56720965D01*
X55031143Y-46440137D02*
X55078762Y-46487756D01*
X55126381Y-46630613D01*
X55126381Y-46725851D01*
X55078762Y-46868709D01*
X54983524Y-46963947D01*
X54888286Y-47011566D01*
X54697810Y-47059185D01*
X54554952Y-47059185D01*
X54364476Y-47011566D01*
X54269238Y-46963947D01*
X54174000Y-46868709D01*
X54126381Y-46725851D01*
X54126381Y-46630613D01*
X54174000Y-46487756D01*
X54221619Y-46440137D01*
X55126381Y-45487756D02*
X55126381Y-46059185D01*
X55126381Y-45773471D02*
X54126381Y-45773471D01*
X54269238Y-45868709D01*
X54364476Y-45963947D01*
X54412095Y-46059185D01*
X54126381Y-44868709D02*
X54126381Y-44773470D01*
X54174000Y-44678232D01*
X54221619Y-44630613D01*
X54316857Y-44582994D01*
X54507333Y-44535375D01*
X54745429Y-44535375D01*
X54935905Y-44582994D01*
X55031143Y-44630613D01*
X55078762Y-44678232D01*
X55126381Y-44773470D01*
X55126381Y-44868709D01*
X55078762Y-44963947D01*
X55031143Y-45011566D01*
X54935905Y-45059185D01*
X54745429Y-45106804D01*
X54507333Y-45106804D01*
X54316857Y-45059185D01*
X54221619Y-45011566D01*
X54174000Y-44963947D01*
X54126381Y-44868709D01*
X51473943Y-20475023D02*
X51426324Y-20522642D01*
X51283467Y-20570261D01*
X51188229Y-20570261D01*
X51045371Y-20522642D01*
X50950133Y-20427404D01*
X50902514Y-20332166D01*
X50854895Y-20141690D01*
X50854895Y-19998832D01*
X50902514Y-19808356D01*
X50950133Y-19713118D01*
X51045371Y-19617880D01*
X51188229Y-19570261D01*
X51283467Y-19570261D01*
X51426324Y-19617880D01*
X51473943Y-19665499D01*
X52426324Y-20570261D02*
X51854895Y-20570261D01*
X52140609Y-20570261D02*
X52140609Y-19570261D01*
X52045371Y-19713118D01*
X51950133Y-19808356D01*
X51854895Y-19855975D01*
X53378705Y-20570261D02*
X52807276Y-20570261D01*
X53092990Y-20570261D02*
X53092990Y-19570261D01*
X52997752Y-19713118D01*
X52902514Y-19808356D01*
X52807276Y-19855975D01*
X43612643Y-59489423D02*
X43565024Y-59537042D01*
X43422167Y-59584661D01*
X43326929Y-59584661D01*
X43184071Y-59537042D01*
X43088833Y-59441804D01*
X43041214Y-59346566D01*
X42993595Y-59156090D01*
X42993595Y-59013232D01*
X43041214Y-58822756D01*
X43088833Y-58727518D01*
X43184071Y-58632280D01*
X43326929Y-58584661D01*
X43422167Y-58584661D01*
X43565024Y-58632280D01*
X43612643Y-58679899D01*
X44565024Y-59584661D02*
X43993595Y-59584661D01*
X44279309Y-59584661D02*
X44279309Y-58584661D01*
X44184071Y-58727518D01*
X44088833Y-58822756D01*
X43993595Y-58870375D01*
X44945976Y-58679899D02*
X44993595Y-58632280D01*
X45088833Y-58584661D01*
X45326929Y-58584661D01*
X45422167Y-58632280D01*
X45469786Y-58679899D01*
X45517405Y-58775137D01*
X45517405Y-58870375D01*
X45469786Y-59013232D01*
X44898357Y-59584661D01*
X45517405Y-59584661D01*
X8735143Y-30565137D02*
X8782762Y-30612756D01*
X8830381Y-30755613D01*
X8830381Y-30850851D01*
X8782762Y-30993709D01*
X8687524Y-31088947D01*
X8592286Y-31136566D01*
X8401810Y-31184185D01*
X8258952Y-31184185D01*
X8068476Y-31136566D01*
X7973238Y-31088947D01*
X7878000Y-30993709D01*
X7830381Y-30850851D01*
X7830381Y-30755613D01*
X7878000Y-30612756D01*
X7925619Y-30565137D01*
X8830381Y-29612756D02*
X8830381Y-30184185D01*
X8830381Y-29898471D02*
X7830381Y-29898471D01*
X7973238Y-29993709D01*
X8068476Y-30088947D01*
X8116095Y-30184185D01*
X7830381Y-29279423D02*
X7830381Y-28660375D01*
X8211333Y-28993709D01*
X8211333Y-28850851D01*
X8258952Y-28755613D01*
X8306571Y-28707994D01*
X8401810Y-28660375D01*
X8639905Y-28660375D01*
X8735143Y-28707994D01*
X8782762Y-28755613D01*
X8830381Y-28850851D01*
X8830381Y-29136566D01*
X8782762Y-29231804D01*
X8735143Y-29279423D01*
X36014743Y-21471937D02*
X36062362Y-21519556D01*
X36109981Y-21662413D01*
X36109981Y-21757651D01*
X36062362Y-21900509D01*
X35967124Y-21995747D01*
X35871886Y-22043366D01*
X35681410Y-22090985D01*
X35538552Y-22090985D01*
X35348076Y-22043366D01*
X35252838Y-21995747D01*
X35157600Y-21900509D01*
X35109981Y-21757651D01*
X35109981Y-21662413D01*
X35157600Y-21519556D01*
X35205219Y-21471937D01*
X36109981Y-20519556D02*
X36109981Y-21090985D01*
X36109981Y-20805271D02*
X35109981Y-20805271D01*
X35252838Y-20900509D01*
X35348076Y-20995747D01*
X35395695Y-21090985D01*
X35443314Y-19662413D02*
X36109981Y-19662413D01*
X35062362Y-19900509D02*
X35776648Y-20138604D01*
X35776648Y-19519556D01*
X44914405Y-89112161D02*
X44914405Y-88112161D01*
X45295358Y-88112161D01*
X45390596Y-88159780D01*
X45438215Y-88207399D01*
X45485834Y-88302637D01*
X45485834Y-88445494D01*
X45438215Y-88540732D01*
X45390596Y-88588351D01*
X45295358Y-88635970D01*
X44914405Y-88635970D01*
X46342977Y-88112161D02*
X46152500Y-88112161D01*
X46057262Y-88159780D01*
X46009643Y-88207399D01*
X45914405Y-88350256D01*
X45866786Y-88540732D01*
X45866786Y-88921685D01*
X45914405Y-89016923D01*
X45962024Y-89064542D01*
X46057262Y-89112161D01*
X46247739Y-89112161D01*
X46342977Y-89064542D01*
X46390596Y-89016923D01*
X46438215Y-88921685D01*
X46438215Y-88683590D01*
X46390596Y-88588351D01*
X46342977Y-88540732D01*
X46247739Y-88493113D01*
X46057262Y-88493113D01*
X45962024Y-88540732D01*
X45914405Y-88588351D01*
X45866786Y-88683590D01*
X43493595Y-78714161D02*
X43493595Y-79523685D01*
X43541214Y-79618923D01*
X43588833Y-79666542D01*
X43684071Y-79714161D01*
X43874548Y-79714161D01*
X43969786Y-79666542D01*
X44017405Y-79618923D01*
X44065024Y-79523685D01*
X44065024Y-78714161D01*
X44969786Y-79047494D02*
X44969786Y-79714161D01*
X44731690Y-78666542D02*
X44493595Y-79380828D01*
X45112643Y-79380828D01*
X77339095Y-43718661D02*
X77339095Y-44528185D01*
X77386714Y-44623423D01*
X77434333Y-44671042D01*
X77529571Y-44718661D01*
X77720048Y-44718661D01*
X77815286Y-44671042D01*
X77862905Y-44623423D01*
X77910524Y-44528185D01*
X77910524Y-43718661D01*
X78862905Y-43718661D02*
X78386714Y-43718661D01*
X78339095Y-44194851D01*
X78386714Y-44147232D01*
X78481952Y-44099613D01*
X78720048Y-44099613D01*
X78815286Y-44147232D01*
X78862905Y-44194851D01*
X78910524Y-44290090D01*
X78910524Y-44528185D01*
X78862905Y-44623423D01*
X78815286Y-44671042D01*
X78720048Y-44718661D01*
X78481952Y-44718661D01*
X78386714Y-44671042D01*
X78339095Y-44623423D01*
D16*
X26466429Y-23757095D02*
X27700143Y-23757095D01*
X27845286Y-23708714D01*
X27917857Y-23660333D01*
X27990429Y-23563571D01*
X27990429Y-23370048D01*
X27917857Y-23273286D01*
X27845286Y-23224905D01*
X27700143Y-23176524D01*
X26466429Y-23176524D01*
X27990429Y-22644333D02*
X27990429Y-22450809D01*
X27917857Y-22354048D01*
X27845286Y-22305667D01*
X27627571Y-22208905D01*
X27337286Y-22160524D01*
X26756714Y-22160524D01*
X26611571Y-22208905D01*
X26539000Y-22257286D01*
X26466429Y-22354048D01*
X26466429Y-22547571D01*
X26539000Y-22644333D01*
X26611571Y-22692714D01*
X26756714Y-22741095D01*
X27119571Y-22741095D01*
X27264714Y-22692714D01*
X27337286Y-22644333D01*
X27409857Y-22547571D01*
X27409857Y-22354048D01*
X27337286Y-22257286D01*
X27264714Y-22208905D01*
X27119571Y-22160524D01*
X25589524Y-24930333D02*
X24319524Y-24930333D01*
X24319524Y-24591667D01*
X24380000Y-24507000D01*
X24440476Y-24464667D01*
X24561429Y-24422333D01*
X24742857Y-24422333D01*
X24863810Y-24464667D01*
X24924286Y-24507000D01*
X24984762Y-24591667D01*
X24984762Y-24930333D01*
X25468571Y-23533333D02*
X25529048Y-23575667D01*
X25589524Y-23702667D01*
X25589524Y-23787333D01*
X25529048Y-23914333D01*
X25408095Y-23999000D01*
X25287143Y-24041333D01*
X25045238Y-24083667D01*
X24863810Y-24083667D01*
X24621905Y-24041333D01*
X24500952Y-23999000D01*
X24380000Y-23914333D01*
X24319524Y-23787333D01*
X24319524Y-23702667D01*
X24380000Y-23575667D01*
X24440476Y-23533333D01*
X25589524Y-23110000D02*
X25589524Y-22940667D01*
X25529048Y-22856000D01*
X25468571Y-22813667D01*
X25287143Y-22729000D01*
X25045238Y-22686667D01*
X24561429Y-22686667D01*
X24440476Y-22729000D01*
X24380000Y-22771333D01*
X24319524Y-22856000D01*
X24319524Y-23025333D01*
X24380000Y-23110000D01*
X24440476Y-23152333D01*
X24561429Y-23194667D01*
X24863810Y-23194667D01*
X24984762Y-23152333D01*
X25045238Y-23110000D01*
X25105714Y-23025333D01*
X25105714Y-22856000D01*
X25045238Y-22771333D01*
X24984762Y-22729000D01*
X24863810Y-22686667D01*
X24319524Y-22136333D02*
X24319524Y-22051666D01*
X24380000Y-21967000D01*
X24440476Y-21924666D01*
X24561429Y-21882333D01*
X24803333Y-21840000D01*
X25105714Y-21840000D01*
X25347619Y-21882333D01*
X25468571Y-21924666D01*
X25529048Y-21967000D01*
X25589524Y-22051666D01*
X25589524Y-22136333D01*
X25529048Y-22221000D01*
X25468571Y-22263333D01*
X25347619Y-22305666D01*
X25105714Y-22348000D01*
X24803333Y-22348000D01*
X24561429Y-22305666D01*
X24440476Y-22263333D01*
X24380000Y-22221000D01*
X24319524Y-22136333D01*
X24319524Y-21289666D02*
X24319524Y-21204999D01*
X24380000Y-21120333D01*
X24440476Y-21077999D01*
X24561429Y-21035666D01*
X24803333Y-20993333D01*
X25105714Y-20993333D01*
X25347619Y-21035666D01*
X25468571Y-21077999D01*
X25529048Y-21120333D01*
X25589524Y-21204999D01*
X25589524Y-21289666D01*
X25529048Y-21374333D01*
X25468571Y-21416666D01*
X25347619Y-21458999D01*
X25105714Y-21501333D01*
X24803333Y-21501333D01*
X24561429Y-21458999D01*
X24440476Y-21416666D01*
X24380000Y-21374333D01*
X24319524Y-21289666D01*
D10*
X40346905Y-17307661D02*
X40346905Y-18117185D01*
X40394524Y-18212423D01*
X40442143Y-18260042D01*
X40537381Y-18307661D01*
X40727858Y-18307661D01*
X40823096Y-18260042D01*
X40870715Y-18212423D01*
X40918334Y-18117185D01*
X40918334Y-17307661D01*
X41918334Y-18307661D02*
X41346905Y-18307661D01*
X41632619Y-18307661D02*
X41632619Y-17307661D01*
X41537381Y-17450518D01*
X41442143Y-17545756D01*
X41346905Y-17593375D01*
X42870715Y-18307661D02*
X42299286Y-18307661D01*
X42585000Y-18307661D02*
X42585000Y-17307661D01*
X42489762Y-17450518D01*
X42394524Y-17545756D01*
X42299286Y-17593375D01*
X25076934Y-76958261D02*
X24743600Y-76482070D01*
X24505505Y-76958261D02*
X24505505Y-75958261D01*
X24886458Y-75958261D01*
X24981696Y-76005880D01*
X25029315Y-76053499D01*
X25076934Y-76148737D01*
X25076934Y-76291594D01*
X25029315Y-76386832D01*
X24981696Y-76434451D01*
X24886458Y-76482070D01*
X24505505Y-76482070D01*
X26029315Y-76958261D02*
X25457886Y-76958261D01*
X25743600Y-76958261D02*
X25743600Y-75958261D01*
X25648362Y-76101118D01*
X25553124Y-76196356D01*
X25457886Y-76243975D01*
X20504934Y-63445461D02*
X20171600Y-62969270D01*
X19933505Y-63445461D02*
X19933505Y-62445461D01*
X20314458Y-62445461D01*
X20409696Y-62493080D01*
X20457315Y-62540699D01*
X20504934Y-62635937D01*
X20504934Y-62778794D01*
X20457315Y-62874032D01*
X20409696Y-62921651D01*
X20314458Y-62969270D01*
X19933505Y-62969270D01*
X20885886Y-62540699D02*
X20933505Y-62493080D01*
X21028743Y-62445461D01*
X21266839Y-62445461D01*
X21362077Y-62493080D01*
X21409696Y-62540699D01*
X21457315Y-62635937D01*
X21457315Y-62731175D01*
X21409696Y-62874032D01*
X20838267Y-63445461D01*
X21457315Y-63445461D01*
X29090134Y-77009061D02*
X28756800Y-76532870D01*
X28518705Y-77009061D02*
X28518705Y-76009061D01*
X28899658Y-76009061D01*
X28994896Y-76056680D01*
X29042515Y-76104299D01*
X29090134Y-76199537D01*
X29090134Y-76342394D01*
X29042515Y-76437632D01*
X28994896Y-76485251D01*
X28899658Y-76532870D01*
X28518705Y-76532870D01*
X29423467Y-76009061D02*
X30042515Y-76009061D01*
X29709181Y-76390013D01*
X29852039Y-76390013D01*
X29947277Y-76437632D01*
X29994896Y-76485251D01*
X30042515Y-76580490D01*
X30042515Y-76818585D01*
X29994896Y-76913823D01*
X29947277Y-76961442D01*
X29852039Y-77009061D01*
X29566324Y-77009061D01*
X29471086Y-76961442D01*
X29423467Y-76913823D01*
X31325334Y-77009061D02*
X30992000Y-76532870D01*
X30753905Y-77009061D02*
X30753905Y-76009061D01*
X31134858Y-76009061D01*
X31230096Y-76056680D01*
X31277715Y-76104299D01*
X31325334Y-76199537D01*
X31325334Y-76342394D01*
X31277715Y-76437632D01*
X31230096Y-76485251D01*
X31134858Y-76532870D01*
X30753905Y-76532870D01*
X32182477Y-76342394D02*
X32182477Y-77009061D01*
X31944381Y-75961442D02*
X31706286Y-76675728D01*
X32325334Y-76675728D01*
X55253381Y-64265857D02*
X54777190Y-64599191D01*
X55253381Y-64837286D02*
X54253381Y-64837286D01*
X54253381Y-64456333D01*
X54301000Y-64361095D01*
X54348619Y-64313476D01*
X54443857Y-64265857D01*
X54586714Y-64265857D01*
X54681952Y-64313476D01*
X54729571Y-64361095D01*
X54777190Y-64456333D01*
X54777190Y-64837286D01*
X55253381Y-63313476D02*
X55253381Y-63884905D01*
X55253381Y-63599191D02*
X54253381Y-63599191D01*
X54396238Y-63694429D01*
X54491476Y-63789667D01*
X54539095Y-63884905D01*
X54253381Y-62456333D02*
X54253381Y-62646810D01*
X54301000Y-62742048D01*
X54348619Y-62789667D01*
X54491476Y-62884905D01*
X54681952Y-62932524D01*
X55062905Y-62932524D01*
X55158143Y-62884905D01*
X55205762Y-62837286D01*
X55253381Y-62742048D01*
X55253381Y-62551571D01*
X55205762Y-62456333D01*
X55158143Y-62408714D01*
X55062905Y-62361095D01*
X54824810Y-62361095D01*
X54729571Y-62408714D01*
X54681952Y-62456333D01*
X54634333Y-62551571D01*
X54634333Y-62742048D01*
X54681952Y-62837286D01*
X54729571Y-62884905D01*
X54824810Y-62932524D01*
X21276381Y-14512337D02*
X20800190Y-14845671D01*
X21276381Y-15083766D02*
X20276381Y-15083766D01*
X20276381Y-14702813D01*
X20324000Y-14607575D01*
X20371619Y-14559956D01*
X20466857Y-14512337D01*
X20609714Y-14512337D01*
X20704952Y-14559956D01*
X20752571Y-14607575D01*
X20800190Y-14702813D01*
X20800190Y-15083766D01*
X21276381Y-13559956D02*
X21276381Y-14131385D01*
X21276381Y-13845671D02*
X20276381Y-13845671D01*
X20419238Y-13940909D01*
X20514476Y-14036147D01*
X20562095Y-14131385D01*
X20704952Y-12988528D02*
X20657333Y-13083766D01*
X20609714Y-13131385D01*
X20514476Y-13179004D01*
X20466857Y-13179004D01*
X20371619Y-13131385D01*
X20324000Y-13083766D01*
X20276381Y-12988528D01*
X20276381Y-12798051D01*
X20324000Y-12702813D01*
X20371619Y-12655194D01*
X20466857Y-12607575D01*
X20514476Y-12607575D01*
X20609714Y-12655194D01*
X20657333Y-12702813D01*
X20704952Y-12798051D01*
X20704952Y-12988528D01*
X20752571Y-13083766D01*
X20800190Y-13131385D01*
X20895429Y-13179004D01*
X21085905Y-13179004D01*
X21181143Y-13131385D01*
X21228762Y-13083766D01*
X21276381Y-12988528D01*
X21276381Y-12798051D01*
X21228762Y-12702813D01*
X21181143Y-12655194D01*
X21085905Y-12607575D01*
X20895429Y-12607575D01*
X20800190Y-12655194D01*
X20752571Y-12702813D01*
X20704952Y-12798051D01*
X34077981Y-27212337D02*
X33601790Y-27545671D01*
X34077981Y-27783766D02*
X33077981Y-27783766D01*
X33077981Y-27402813D01*
X33125600Y-27307575D01*
X33173219Y-27259956D01*
X33268457Y-27212337D01*
X33411314Y-27212337D01*
X33506552Y-27259956D01*
X33554171Y-27307575D01*
X33601790Y-27402813D01*
X33601790Y-27783766D01*
X33173219Y-26831385D02*
X33125600Y-26783766D01*
X33077981Y-26688528D01*
X33077981Y-26450432D01*
X33125600Y-26355194D01*
X33173219Y-26307575D01*
X33268457Y-26259956D01*
X33363695Y-26259956D01*
X33506552Y-26307575D01*
X34077981Y-26879004D01*
X34077981Y-26259956D01*
X33077981Y-25640909D02*
X33077981Y-25545670D01*
X33125600Y-25450432D01*
X33173219Y-25402813D01*
X33268457Y-25355194D01*
X33458933Y-25307575D01*
X33697029Y-25307575D01*
X33887505Y-25355194D01*
X33982743Y-25402813D01*
X34030362Y-25450432D01*
X34077981Y-25545670D01*
X34077981Y-25640909D01*
X34030362Y-25736147D01*
X33982743Y-25783766D01*
X33887505Y-25831385D01*
X33697029Y-25879004D01*
X33458933Y-25879004D01*
X33268457Y-25831385D01*
X33173219Y-25783766D01*
X33125600Y-25736147D01*
X33077981Y-25640909D01*
X57217381Y-14227857D02*
X56741190Y-14561191D01*
X57217381Y-14799286D02*
X56217381Y-14799286D01*
X56217381Y-14418333D01*
X56265000Y-14323095D01*
X56312619Y-14275476D01*
X56407857Y-14227857D01*
X56550714Y-14227857D01*
X56645952Y-14275476D01*
X56693571Y-14323095D01*
X56741190Y-14418333D01*
X56741190Y-14799286D01*
X56312619Y-13846905D02*
X56265000Y-13799286D01*
X56217381Y-13704048D01*
X56217381Y-13465952D01*
X56265000Y-13370714D01*
X56312619Y-13323095D01*
X56407857Y-13275476D01*
X56503095Y-13275476D01*
X56645952Y-13323095D01*
X57217381Y-13894524D01*
X57217381Y-13275476D01*
X56312619Y-12894524D02*
X56265000Y-12846905D01*
X56217381Y-12751667D01*
X56217381Y-12513571D01*
X56265000Y-12418333D01*
X56312619Y-12370714D01*
X56407857Y-12323095D01*
X56503095Y-12323095D01*
X56645952Y-12370714D01*
X57217381Y-12942143D01*
X57217381Y-12323095D01*
X59122381Y-14227857D02*
X58646190Y-14561191D01*
X59122381Y-14799286D02*
X58122381Y-14799286D01*
X58122381Y-14418333D01*
X58170000Y-14323095D01*
X58217619Y-14275476D01*
X58312857Y-14227857D01*
X58455714Y-14227857D01*
X58550952Y-14275476D01*
X58598571Y-14323095D01*
X58646190Y-14418333D01*
X58646190Y-14799286D01*
X58217619Y-13846905D02*
X58170000Y-13799286D01*
X58122381Y-13704048D01*
X58122381Y-13465952D01*
X58170000Y-13370714D01*
X58217619Y-13323095D01*
X58312857Y-13275476D01*
X58408095Y-13275476D01*
X58550952Y-13323095D01*
X59122381Y-13894524D01*
X59122381Y-13275476D01*
X58455714Y-12418333D02*
X59122381Y-12418333D01*
X58074762Y-12656429D02*
X58789048Y-12894524D01*
X58789048Y-12275476D01*
X49310350Y-15919193D02*
X49411365Y-15346773D01*
X48906288Y-15515132D02*
X49613395Y-14808025D01*
X49882770Y-15077399D01*
X49916441Y-15178415D01*
X49916441Y-15245758D01*
X49882770Y-15346773D01*
X49781755Y-15447788D01*
X49680739Y-15481460D01*
X49613396Y-15481460D01*
X49512381Y-15447788D01*
X49243006Y-15178414D01*
X50219487Y-15548804D02*
X50286830Y-15548804D01*
X50387845Y-15582475D01*
X50556205Y-15750835D01*
X50589876Y-15851850D01*
X50589876Y-15919193D01*
X50556205Y-16020208D01*
X50488861Y-16087552D01*
X50354174Y-16154895D01*
X49546052Y-16154895D01*
X49983785Y-16592628D01*
X51330655Y-16525285D02*
X50993937Y-16188567D01*
X50623548Y-16491612D01*
X50690892Y-16491612D01*
X50791907Y-16525284D01*
X50960266Y-16693643D01*
X50993938Y-16794658D01*
X50993938Y-16862002D01*
X50960265Y-16963018D01*
X50791907Y-17131376D01*
X50690892Y-17165048D01*
X50623548Y-17165048D01*
X50522533Y-17131376D01*
X50354174Y-16963017D01*
X50320502Y-16862002D01*
X50320502Y-16794658D01*
X53272750Y-16071592D02*
X53373765Y-15499172D01*
X52868688Y-15667531D02*
X53575795Y-14960424D01*
X53845170Y-15229798D01*
X53878841Y-15330814D01*
X53878841Y-15398157D01*
X53845170Y-15499172D01*
X53744155Y-15600187D01*
X53643139Y-15633859D01*
X53575796Y-15633859D01*
X53474781Y-15600187D01*
X53205406Y-15330813D01*
X54181887Y-15701203D02*
X54249230Y-15701203D01*
X54350245Y-15734874D01*
X54518605Y-15903234D01*
X54552276Y-16004249D01*
X54552276Y-16071592D01*
X54518605Y-16172607D01*
X54451261Y-16239951D01*
X54316574Y-16307294D01*
X53508452Y-16307294D01*
X53946185Y-16745027D01*
X55259383Y-16644012D02*
X55124696Y-16509324D01*
X55023681Y-16475653D01*
X54956337Y-16475653D01*
X54787978Y-16509324D01*
X54619620Y-16610340D01*
X54350245Y-16879714D01*
X54316574Y-16980729D01*
X54316574Y-17048073D01*
X54350245Y-17149088D01*
X54484933Y-17283775D01*
X54585948Y-17317447D01*
X54653292Y-17317447D01*
X54754307Y-17283775D01*
X54922665Y-17115417D01*
X54956338Y-17014401D01*
X54956338Y-16947057D01*
X54922666Y-16846042D01*
X54787978Y-16711355D01*
X54686963Y-16677683D01*
X54619620Y-16677683D01*
X54518604Y-16711355D01*
X40885181Y-13902737D02*
X40408990Y-14236071D01*
X40885181Y-14474166D02*
X39885181Y-14474166D01*
X39885181Y-14093213D01*
X39932800Y-13997975D01*
X39980419Y-13950356D01*
X40075657Y-13902737D01*
X40218514Y-13902737D01*
X40313752Y-13950356D01*
X40361371Y-13997975D01*
X40408990Y-14093213D01*
X40408990Y-14474166D01*
X39980419Y-13521785D02*
X39932800Y-13474166D01*
X39885181Y-13378928D01*
X39885181Y-13140832D01*
X39932800Y-13045594D01*
X39980419Y-12997975D01*
X40075657Y-12950356D01*
X40170895Y-12950356D01*
X40313752Y-12997975D01*
X40885181Y-13569404D01*
X40885181Y-12950356D01*
X39885181Y-12617023D02*
X39885181Y-11950356D01*
X40885181Y-12378928D01*
X35957581Y-13851937D02*
X35481390Y-14185271D01*
X35957581Y-14423366D02*
X34957581Y-14423366D01*
X34957581Y-14042413D01*
X35005200Y-13947175D01*
X35052819Y-13899556D01*
X35148057Y-13851937D01*
X35290914Y-13851937D01*
X35386152Y-13899556D01*
X35433771Y-13947175D01*
X35481390Y-14042413D01*
X35481390Y-14423366D01*
X35052819Y-13470985D02*
X35005200Y-13423366D01*
X34957581Y-13328128D01*
X34957581Y-13090032D01*
X35005200Y-12994794D01*
X35052819Y-12947175D01*
X35148057Y-12899556D01*
X35243295Y-12899556D01*
X35386152Y-12947175D01*
X35957581Y-13518604D01*
X35957581Y-12899556D01*
X35386152Y-12328128D02*
X35338533Y-12423366D01*
X35290914Y-12470985D01*
X35195676Y-12518604D01*
X35148057Y-12518604D01*
X35052819Y-12470985D01*
X35005200Y-12423366D01*
X34957581Y-12328128D01*
X34957581Y-12137651D01*
X35005200Y-12042413D01*
X35052819Y-11994794D01*
X35148057Y-11947175D01*
X35195676Y-11947175D01*
X35290914Y-11994794D01*
X35338533Y-12042413D01*
X35386152Y-12137651D01*
X35386152Y-12328128D01*
X35433771Y-12423366D01*
X35481390Y-12470985D01*
X35576629Y-12518604D01*
X35767105Y-12518604D01*
X35862343Y-12470985D01*
X35909962Y-12423366D01*
X35957581Y-12328128D01*
X35957581Y-12137651D01*
X35909962Y-12042413D01*
X35862343Y-11994794D01*
X35767105Y-11947175D01*
X35576629Y-11947175D01*
X35481390Y-11994794D01*
X35433771Y-12042413D01*
X35386152Y-12137651D01*
X32706381Y-12277137D02*
X32230190Y-12610471D01*
X32706381Y-12848566D02*
X31706381Y-12848566D01*
X31706381Y-12467613D01*
X31754000Y-12372375D01*
X31801619Y-12324756D01*
X31896857Y-12277137D01*
X32039714Y-12277137D01*
X32134952Y-12324756D01*
X32182571Y-12372375D01*
X32230190Y-12467613D01*
X32230190Y-12848566D01*
X31801619Y-11896185D02*
X31754000Y-11848566D01*
X31706381Y-11753328D01*
X31706381Y-11515232D01*
X31754000Y-11419994D01*
X31801619Y-11372375D01*
X31896857Y-11324756D01*
X31992095Y-11324756D01*
X32134952Y-11372375D01*
X32706381Y-11943804D01*
X32706381Y-11324756D01*
X32706381Y-10848566D02*
X32706381Y-10658090D01*
X32658762Y-10562851D01*
X32611143Y-10515232D01*
X32468286Y-10419994D01*
X32277810Y-10372375D01*
X31896857Y-10372375D01*
X31801619Y-10419994D01*
X31754000Y-10467613D01*
X31706381Y-10562851D01*
X31706381Y-10753328D01*
X31754000Y-10848566D01*
X31801619Y-10896185D01*
X31896857Y-10943804D01*
X32134952Y-10943804D01*
X32230190Y-10896185D01*
X32277810Y-10848566D01*
X32325429Y-10753328D01*
X32325429Y-10562851D01*
X32277810Y-10467613D01*
X32230190Y-10419994D01*
X32134952Y-10372375D01*
X27423181Y-13851937D02*
X26946990Y-14185271D01*
X27423181Y-14423366D02*
X26423181Y-14423366D01*
X26423181Y-14042413D01*
X26470800Y-13947175D01*
X26518419Y-13899556D01*
X26613657Y-13851937D01*
X26756514Y-13851937D01*
X26851752Y-13899556D01*
X26899371Y-13947175D01*
X26946990Y-14042413D01*
X26946990Y-14423366D01*
X26423181Y-13518604D02*
X26423181Y-12899556D01*
X26804133Y-13232890D01*
X26804133Y-13090032D01*
X26851752Y-12994794D01*
X26899371Y-12947175D01*
X26994610Y-12899556D01*
X27232705Y-12899556D01*
X27327943Y-12947175D01*
X27375562Y-12994794D01*
X27423181Y-13090032D01*
X27423181Y-13375747D01*
X27375562Y-13470985D01*
X27327943Y-13518604D01*
X26423181Y-12280509D02*
X26423181Y-12185270D01*
X26470800Y-12090032D01*
X26518419Y-12042413D01*
X26613657Y-11994794D01*
X26804133Y-11947175D01*
X27042229Y-11947175D01*
X27232705Y-11994794D01*
X27327943Y-12042413D01*
X27375562Y-12090032D01*
X27423181Y-12185270D01*
X27423181Y-12280509D01*
X27375562Y-12375747D01*
X27327943Y-12423366D01*
X27232705Y-12470985D01*
X27042229Y-12518604D01*
X26804133Y-12518604D01*
X26613657Y-12470985D01*
X26518419Y-12423366D01*
X26470800Y-12375747D01*
X26423181Y-12280509D01*
X51152381Y-48642857D02*
X50676190Y-48976191D01*
X51152381Y-49214286D02*
X50152381Y-49214286D01*
X50152381Y-48833333D01*
X50200000Y-48738095D01*
X50247619Y-48690476D01*
X50342857Y-48642857D01*
X50485714Y-48642857D01*
X50580952Y-48690476D01*
X50628571Y-48738095D01*
X50676190Y-48833333D01*
X50676190Y-49214286D01*
X50152381Y-48309524D02*
X50152381Y-47690476D01*
X50533333Y-48023810D01*
X50533333Y-47880952D01*
X50580952Y-47785714D01*
X50628571Y-47738095D01*
X50723810Y-47690476D01*
X50961905Y-47690476D01*
X51057143Y-47738095D01*
X51104762Y-47785714D01*
X51152381Y-47880952D01*
X51152381Y-48166667D01*
X51104762Y-48261905D01*
X51057143Y-48309524D01*
X50247619Y-47309524D02*
X50200000Y-47261905D01*
X50152381Y-47166667D01*
X50152381Y-46928571D01*
X50200000Y-46833333D01*
X50247619Y-46785714D01*
X50342857Y-46738095D01*
X50438095Y-46738095D01*
X50580952Y-46785714D01*
X51152381Y-47357143D01*
X51152381Y-46738095D01*
X34976643Y-54672881D02*
X34643309Y-54196690D01*
X34405214Y-54672881D02*
X34405214Y-53672881D01*
X34786167Y-53672881D01*
X34881405Y-53720500D01*
X34929024Y-53768119D01*
X34976643Y-53863357D01*
X34976643Y-54006214D01*
X34929024Y-54101452D01*
X34881405Y-54149071D01*
X34786167Y-54196690D01*
X34405214Y-54196690D01*
X35881405Y-53672881D02*
X35405214Y-53672881D01*
X35357595Y-54149071D01*
X35405214Y-54101452D01*
X35500452Y-54053833D01*
X35738548Y-54053833D01*
X35833786Y-54101452D01*
X35881405Y-54149071D01*
X35929024Y-54244310D01*
X35929024Y-54482405D01*
X35881405Y-54577643D01*
X35833786Y-54625262D01*
X35738548Y-54672881D01*
X35500452Y-54672881D01*
X35405214Y-54625262D01*
X35357595Y-54577643D01*
X36881405Y-54672881D02*
X36309976Y-54672881D01*
X36595690Y-54672881D02*
X36595690Y-53672881D01*
X36500452Y-53815738D01*
X36405214Y-53910976D01*
X36309976Y-53958595D01*
X88302381Y-64392857D02*
X87826190Y-64726191D01*
X88302381Y-64964286D02*
X87302381Y-64964286D01*
X87302381Y-64583333D01*
X87350000Y-64488095D01*
X87397619Y-64440476D01*
X87492857Y-64392857D01*
X87635714Y-64392857D01*
X87730952Y-64440476D01*
X87778571Y-64488095D01*
X87826190Y-64583333D01*
X87826190Y-64964286D01*
X87302381Y-63488095D02*
X87302381Y-63964286D01*
X87778571Y-64011905D01*
X87730952Y-63964286D01*
X87683333Y-63869048D01*
X87683333Y-63630952D01*
X87730952Y-63535714D01*
X87778571Y-63488095D01*
X87873810Y-63440476D01*
X88111905Y-63440476D01*
X88207143Y-63488095D01*
X88254762Y-63535714D01*
X88302381Y-63630952D01*
X88302381Y-63869048D01*
X88254762Y-63964286D01*
X88207143Y-64011905D01*
X87397619Y-63059524D02*
X87350000Y-63011905D01*
X87302381Y-62916667D01*
X87302381Y-62678571D01*
X87350000Y-62583333D01*
X87397619Y-62535714D01*
X87492857Y-62488095D01*
X87588095Y-62488095D01*
X87730952Y-62535714D01*
X88302381Y-63107143D01*
X88302381Y-62488095D01*
X63607143Y-65302381D02*
X63273809Y-64826190D01*
X63035714Y-65302381D02*
X63035714Y-64302381D01*
X63416667Y-64302381D01*
X63511905Y-64350000D01*
X63559524Y-64397619D01*
X63607143Y-64492857D01*
X63607143Y-64635714D01*
X63559524Y-64730952D01*
X63511905Y-64778571D01*
X63416667Y-64826190D01*
X63035714Y-64826190D01*
X64511905Y-64302381D02*
X64035714Y-64302381D01*
X63988095Y-64778571D01*
X64035714Y-64730952D01*
X64130952Y-64683333D01*
X64369048Y-64683333D01*
X64464286Y-64730952D01*
X64511905Y-64778571D01*
X64559524Y-64873810D01*
X64559524Y-65111905D01*
X64511905Y-65207143D01*
X64464286Y-65254762D01*
X64369048Y-65302381D01*
X64130952Y-65302381D01*
X64035714Y-65254762D01*
X63988095Y-65207143D01*
X64892857Y-64302381D02*
X65511905Y-64302381D01*
X65178571Y-64683333D01*
X65321429Y-64683333D01*
X65416667Y-64730952D01*
X65464286Y-64778571D01*
X65511905Y-64873810D01*
X65511905Y-65111905D01*
X65464286Y-65207143D01*
X65416667Y-65254762D01*
X65321429Y-65302381D01*
X65035714Y-65302381D01*
X64940476Y-65254762D01*
X64892857Y-65207143D01*
X85225381Y-70443137D02*
X84749190Y-70776471D01*
X85225381Y-71014566D02*
X84225381Y-71014566D01*
X84225381Y-70633613D01*
X84273000Y-70538375D01*
X84320619Y-70490756D01*
X84415857Y-70443137D01*
X84558714Y-70443137D01*
X84653952Y-70490756D01*
X84701571Y-70538375D01*
X84749190Y-70633613D01*
X84749190Y-71014566D01*
X84225381Y-69538375D02*
X84225381Y-70014566D01*
X84701571Y-70062185D01*
X84653952Y-70014566D01*
X84606333Y-69919328D01*
X84606333Y-69681232D01*
X84653952Y-69585994D01*
X84701571Y-69538375D01*
X84796810Y-69490756D01*
X85034905Y-69490756D01*
X85130143Y-69538375D01*
X85177762Y-69585994D01*
X85225381Y-69681232D01*
X85225381Y-69919328D01*
X85177762Y-70014566D01*
X85130143Y-70062185D01*
X84558714Y-68633613D02*
X85225381Y-68633613D01*
X84177762Y-68871709D02*
X84892048Y-69109804D01*
X84892048Y-68490756D01*
X60302381Y-73392857D02*
X59826190Y-73726191D01*
X60302381Y-73964286D02*
X59302381Y-73964286D01*
X59302381Y-73583333D01*
X59350000Y-73488095D01*
X59397619Y-73440476D01*
X59492857Y-73392857D01*
X59635714Y-73392857D01*
X59730952Y-73440476D01*
X59778571Y-73488095D01*
X59826190Y-73583333D01*
X59826190Y-73964286D01*
X59302381Y-72488095D02*
X59302381Y-72964286D01*
X59778571Y-73011905D01*
X59730952Y-72964286D01*
X59683333Y-72869048D01*
X59683333Y-72630952D01*
X59730952Y-72535714D01*
X59778571Y-72488095D01*
X59873810Y-72440476D01*
X60111905Y-72440476D01*
X60207143Y-72488095D01*
X60254762Y-72535714D01*
X60302381Y-72630952D01*
X60302381Y-72869048D01*
X60254762Y-72964286D01*
X60207143Y-73011905D01*
X59302381Y-71535714D02*
X59302381Y-72011905D01*
X59778571Y-72059524D01*
X59730952Y-72011905D01*
X59683333Y-71916667D01*
X59683333Y-71678571D01*
X59730952Y-71583333D01*
X59778571Y-71535714D01*
X59873810Y-71488095D01*
X60111905Y-71488095D01*
X60207143Y-71535714D01*
X60254762Y-71583333D01*
X60302381Y-71678571D01*
X60302381Y-71916667D01*
X60254762Y-72011905D01*
X60207143Y-72059524D01*
X55126381Y-50885137D02*
X54650190Y-51218471D01*
X55126381Y-51456566D02*
X54126381Y-51456566D01*
X54126381Y-51075613D01*
X54174000Y-50980375D01*
X54221619Y-50932756D01*
X54316857Y-50885137D01*
X54459714Y-50885137D01*
X54554952Y-50932756D01*
X54602571Y-50980375D01*
X54650190Y-51075613D01*
X54650190Y-51456566D01*
X54126381Y-49980375D02*
X54126381Y-50456566D01*
X54602571Y-50504185D01*
X54554952Y-50456566D01*
X54507333Y-50361328D01*
X54507333Y-50123232D01*
X54554952Y-50027994D01*
X54602571Y-49980375D01*
X54697810Y-49932756D01*
X54935905Y-49932756D01*
X55031143Y-49980375D01*
X55078762Y-50027994D01*
X55126381Y-50123232D01*
X55126381Y-50361328D01*
X55078762Y-50456566D01*
X55031143Y-50504185D01*
X54126381Y-49075613D02*
X54126381Y-49266090D01*
X54174000Y-49361328D01*
X54221619Y-49408947D01*
X54364476Y-49504185D01*
X54554952Y-49551804D01*
X54935905Y-49551804D01*
X55031143Y-49504185D01*
X55078762Y-49456566D01*
X55126381Y-49361328D01*
X55126381Y-49170851D01*
X55078762Y-49075613D01*
X55031143Y-49027994D01*
X54935905Y-48980375D01*
X54697810Y-48980375D01*
X54602571Y-49027994D01*
X54554952Y-49075613D01*
X54507333Y-49170851D01*
X54507333Y-49361328D01*
X54554952Y-49456566D01*
X54602571Y-49504185D01*
X54697810Y-49551804D01*
X72471381Y-50567637D02*
X71995190Y-50900971D01*
X72471381Y-51139066D02*
X71471381Y-51139066D01*
X71471381Y-50758113D01*
X71519000Y-50662875D01*
X71566619Y-50615256D01*
X71661857Y-50567637D01*
X71804714Y-50567637D01*
X71899952Y-50615256D01*
X71947571Y-50662875D01*
X71995190Y-50758113D01*
X71995190Y-51139066D01*
X71471381Y-49662875D02*
X71471381Y-50139066D01*
X71947571Y-50186685D01*
X71899952Y-50139066D01*
X71852333Y-50043828D01*
X71852333Y-49805732D01*
X71899952Y-49710494D01*
X71947571Y-49662875D01*
X72042810Y-49615256D01*
X72280905Y-49615256D01*
X72376143Y-49662875D01*
X72423762Y-49710494D01*
X72471381Y-49805732D01*
X72471381Y-50043828D01*
X72423762Y-50139066D01*
X72376143Y-50186685D01*
X71471381Y-49281923D02*
X71471381Y-48615256D01*
X72471381Y-49043828D01*
X19546143Y-49170661D02*
X19212809Y-48694470D01*
X18974714Y-49170661D02*
X18974714Y-48170661D01*
X19355667Y-48170661D01*
X19450905Y-48218280D01*
X19498524Y-48265899D01*
X19546143Y-48361137D01*
X19546143Y-48503994D01*
X19498524Y-48599232D01*
X19450905Y-48646851D01*
X19355667Y-48694470D01*
X18974714Y-48694470D01*
X20403286Y-48170661D02*
X20212809Y-48170661D01*
X20117571Y-48218280D01*
X20069952Y-48265899D01*
X19974714Y-48408756D01*
X19927095Y-48599232D01*
X19927095Y-48980185D01*
X19974714Y-49075423D01*
X20022333Y-49123042D01*
X20117571Y-49170661D01*
X20308048Y-49170661D01*
X20403286Y-49123042D01*
X20450905Y-49075423D01*
X20498524Y-48980185D01*
X20498524Y-48742090D01*
X20450905Y-48646851D01*
X20403286Y-48599232D01*
X20308048Y-48551613D01*
X20117571Y-48551613D01*
X20022333Y-48599232D01*
X19974714Y-48646851D01*
X19927095Y-48742090D01*
X20974714Y-49170661D02*
X21165190Y-49170661D01*
X21260429Y-49123042D01*
X21308048Y-49075423D01*
X21403286Y-48932566D01*
X21450905Y-48742090D01*
X21450905Y-48361137D01*
X21403286Y-48265899D01*
X21355667Y-48218280D01*
X21260429Y-48170661D01*
X21069952Y-48170661D01*
X20974714Y-48218280D01*
X20927095Y-48265899D01*
X20879476Y-48361137D01*
X20879476Y-48599232D01*
X20927095Y-48694470D01*
X20974714Y-48742090D01*
X21069952Y-48789709D01*
X21260429Y-48789709D01*
X21355667Y-48742090D01*
X21403286Y-48694470D01*
X21450905Y-48599232D01*
X23110095Y-59956261D02*
X23110095Y-60765785D01*
X23157714Y-60861023D01*
X23205333Y-60908642D01*
X23300571Y-60956261D01*
X23491048Y-60956261D01*
X23586286Y-60908642D01*
X23633905Y-60861023D01*
X23681524Y-60765785D01*
X23681524Y-59956261D01*
X24681524Y-60956261D02*
X24110095Y-60956261D01*
X24395809Y-60956261D02*
X24395809Y-59956261D01*
X24300571Y-60099118D01*
X24205333Y-60194356D01*
X24110095Y-60241975D01*
X29985713Y-63361130D02*
X29413293Y-63260115D01*
X29581652Y-63765192D02*
X28874545Y-63058085D01*
X29143919Y-62788710D01*
X29244935Y-62755039D01*
X29312278Y-62755039D01*
X29413293Y-62788710D01*
X29514308Y-62889725D01*
X29547980Y-62990741D01*
X29547980Y-63058084D01*
X29514308Y-63159099D01*
X29244934Y-63428474D01*
X29514308Y-62418321D02*
X29985713Y-61946917D01*
X30389774Y-62957070D01*
X30187743Y-61744886D02*
X30625476Y-61307153D01*
X30659147Y-61812230D01*
X30760163Y-61711214D01*
X30861178Y-61677542D01*
X30928522Y-61677542D01*
X31029538Y-61711215D01*
X31197896Y-61879573D01*
X31231568Y-61980588D01*
X31231568Y-62047932D01*
X31197896Y-62148947D01*
X30995865Y-62350978D01*
X30894850Y-62384650D01*
X30827507Y-62384650D01*
X58154762Y-60987619D02*
X58059524Y-60940000D01*
X57964286Y-60844762D01*
X57821429Y-60701905D01*
X57726190Y-60654286D01*
X57630952Y-60654286D01*
X57678571Y-60892381D02*
X57583333Y-60844762D01*
X57488095Y-60749524D01*
X57440476Y-60559048D01*
X57440476Y-60225714D01*
X57488095Y-60035238D01*
X57583333Y-59940000D01*
X57678571Y-59892381D01*
X57869048Y-59892381D01*
X57964286Y-59940000D01*
X58059524Y-60035238D01*
X58107143Y-60225714D01*
X58107143Y-60559048D01*
X58059524Y-60749524D01*
X57964286Y-60844762D01*
X57869048Y-60892381D01*
X57678571Y-60892381D01*
X59059524Y-60892381D02*
X58488095Y-60892381D01*
X58773809Y-60892381D02*
X58773809Y-59892381D01*
X58678571Y-60035238D01*
X58583333Y-60130476D01*
X58488095Y-60178095D01*
X58257262Y-82539899D02*
X58162024Y-82492280D01*
X58066786Y-82397042D01*
X57923929Y-82254185D01*
X57828690Y-82206566D01*
X57733452Y-82206566D01*
X57781071Y-82444661D02*
X57685833Y-82397042D01*
X57590595Y-82301804D01*
X57542976Y-82111328D01*
X57542976Y-81777994D01*
X57590595Y-81587518D01*
X57685833Y-81492280D01*
X57781071Y-81444661D01*
X57971548Y-81444661D01*
X58066786Y-81492280D01*
X58162024Y-81587518D01*
X58209643Y-81777994D01*
X58209643Y-82111328D01*
X58162024Y-82301804D01*
X58066786Y-82397042D01*
X57971548Y-82444661D01*
X57781071Y-82444661D01*
X58590595Y-81539899D02*
X58638214Y-81492280D01*
X58733452Y-81444661D01*
X58971548Y-81444661D01*
X59066786Y-81492280D01*
X59114405Y-81539899D01*
X59162024Y-81635137D01*
X59162024Y-81730375D01*
X59114405Y-81873232D01*
X58542976Y-82444661D01*
X59162024Y-82444661D01*
X75473619Y-63164518D02*
X75426000Y-63259756D01*
X75330762Y-63354994D01*
X75187905Y-63497851D01*
X75140286Y-63593090D01*
X75140286Y-63688328D01*
X75378381Y-63640709D02*
X75330762Y-63735947D01*
X75235524Y-63831185D01*
X75045048Y-63878804D01*
X74711714Y-63878804D01*
X74521238Y-63831185D01*
X74426000Y-63735947D01*
X74378381Y-63640709D01*
X74378381Y-63450232D01*
X74426000Y-63354994D01*
X74521238Y-63259756D01*
X74711714Y-63212137D01*
X75045048Y-63212137D01*
X75235524Y-63259756D01*
X75330762Y-63354994D01*
X75378381Y-63450232D01*
X75378381Y-63640709D01*
X74378381Y-62878804D02*
X74378381Y-62259756D01*
X74759333Y-62593090D01*
X74759333Y-62450232D01*
X74806952Y-62354994D01*
X74854571Y-62307375D01*
X74949810Y-62259756D01*
X75187905Y-62259756D01*
X75283143Y-62307375D01*
X75330762Y-62354994D01*
X75378381Y-62450232D01*
X75378381Y-62735947D01*
X75330762Y-62831185D01*
X75283143Y-62878804D01*
X51696134Y-18189023D02*
X51648515Y-18236642D01*
X51505658Y-18284261D01*
X51410420Y-18284261D01*
X51267562Y-18236642D01*
X51172324Y-18141404D01*
X51124705Y-18046166D01*
X51077086Y-17855690D01*
X51077086Y-17712832D01*
X51124705Y-17522356D01*
X51172324Y-17427118D01*
X51267562Y-17331880D01*
X51410420Y-17284261D01*
X51505658Y-17284261D01*
X51648515Y-17331880D01*
X51696134Y-17379499D01*
X52267562Y-17712832D02*
X52172324Y-17665213D01*
X52124705Y-17617594D01*
X52077086Y-17522356D01*
X52077086Y-17474737D01*
X52124705Y-17379499D01*
X52172324Y-17331880D01*
X52267562Y-17284261D01*
X52458039Y-17284261D01*
X52553277Y-17331880D01*
X52600896Y-17379499D01*
X52648515Y-17474737D01*
X52648515Y-17522356D01*
X52600896Y-17617594D01*
X52553277Y-17665213D01*
X52458039Y-17712832D01*
X52267562Y-17712832D01*
X52172324Y-17760451D01*
X52124705Y-17808070D01*
X52077086Y-17903309D01*
X52077086Y-18093785D01*
X52124705Y-18189023D01*
X52172324Y-18236642D01*
X52267562Y-18284261D01*
X52458039Y-18284261D01*
X52553277Y-18236642D01*
X52600896Y-18189023D01*
X52648515Y-18093785D01*
X52648515Y-17903309D01*
X52600896Y-17808070D01*
X52553277Y-17760451D01*
X52458039Y-17712832D01*
X28626643Y-95303423D02*
X28579024Y-95351042D01*
X28436167Y-95398661D01*
X28340929Y-95398661D01*
X28198071Y-95351042D01*
X28102833Y-95255804D01*
X28055214Y-95160566D01*
X28007595Y-94970090D01*
X28007595Y-94827232D01*
X28055214Y-94636756D01*
X28102833Y-94541518D01*
X28198071Y-94446280D01*
X28340929Y-94398661D01*
X28436167Y-94398661D01*
X28579024Y-94446280D01*
X28626643Y-94493899D01*
X29579024Y-95398661D02*
X29007595Y-95398661D01*
X29293309Y-95398661D02*
X29293309Y-94398661D01*
X29198071Y-94541518D01*
X29102833Y-94636756D01*
X29007595Y-94684375D01*
X30483786Y-94398661D02*
X30007595Y-94398661D01*
X29959976Y-94874851D01*
X30007595Y-94827232D01*
X30102833Y-94779613D01*
X30340929Y-94779613D01*
X30436167Y-94827232D01*
X30483786Y-94874851D01*
X30531405Y-94970090D01*
X30531405Y-95208185D01*
X30483786Y-95303423D01*
X30436167Y-95351042D01*
X30340929Y-95398661D01*
X30102833Y-95398661D01*
X30007595Y-95351042D01*
X29959976Y-95303423D01*
X29485643Y-16849137D02*
X29533262Y-16896756D01*
X29580881Y-17039613D01*
X29580881Y-17134851D01*
X29533262Y-17277709D01*
X29438024Y-17372947D01*
X29342786Y-17420566D01*
X29152310Y-17468185D01*
X29009452Y-17468185D01*
X28818976Y-17420566D01*
X28723738Y-17372947D01*
X28628500Y-17277709D01*
X28580881Y-17134851D01*
X28580881Y-17039613D01*
X28628500Y-16896756D01*
X28676119Y-16849137D01*
X29580881Y-15896756D02*
X29580881Y-16468185D01*
X29580881Y-16182471D02*
X28580881Y-16182471D01*
X28723738Y-16277709D01*
X28818976Y-16372947D01*
X28866595Y-16468185D01*
X28580881Y-15039613D02*
X28580881Y-15230090D01*
X28628500Y-15325328D01*
X28676119Y-15372947D01*
X28818976Y-15468185D01*
X29009452Y-15515804D01*
X29390405Y-15515804D01*
X29485643Y-15468185D01*
X29533262Y-15420566D01*
X29580881Y-15325328D01*
X29580881Y-15134851D01*
X29533262Y-15039613D01*
X29485643Y-14991994D01*
X29390405Y-14944375D01*
X29152310Y-14944375D01*
X29057071Y-14991994D01*
X29009452Y-15039613D01*
X28961833Y-15134851D01*
X28961833Y-15325328D01*
X29009452Y-15420566D01*
X29057071Y-15468185D01*
X29152310Y-15515804D01*
X66663143Y-12042223D02*
X66615524Y-12089842D01*
X66472667Y-12137461D01*
X66377429Y-12137461D01*
X66234571Y-12089842D01*
X66139333Y-11994604D01*
X66091714Y-11899366D01*
X66044095Y-11708890D01*
X66044095Y-11566032D01*
X66091714Y-11375556D01*
X66139333Y-11280318D01*
X66234571Y-11185080D01*
X66377429Y-11137461D01*
X66472667Y-11137461D01*
X66615524Y-11185080D01*
X66663143Y-11232699D01*
X67615524Y-12137461D02*
X67044095Y-12137461D01*
X67329809Y-12137461D02*
X67329809Y-11137461D01*
X67234571Y-11280318D01*
X67139333Y-11375556D01*
X67044095Y-11423175D01*
X67948857Y-11137461D02*
X68615524Y-11137461D01*
X68186952Y-12137461D01*
X13958143Y-30342923D02*
X13910524Y-30390542D01*
X13767667Y-30438161D01*
X13672429Y-30438161D01*
X13529571Y-30390542D01*
X13434333Y-30295304D01*
X13386714Y-30200066D01*
X13339095Y-30009590D01*
X13339095Y-29866732D01*
X13386714Y-29676256D01*
X13434333Y-29581018D01*
X13529571Y-29485780D01*
X13672429Y-29438161D01*
X13767667Y-29438161D01*
X13910524Y-29485780D01*
X13958143Y-29533399D01*
X14910524Y-30438161D02*
X14339095Y-30438161D01*
X14624809Y-30438161D02*
X14624809Y-29438161D01*
X14529571Y-29581018D01*
X14434333Y-29676256D01*
X14339095Y-29723875D01*
X15481952Y-29866732D02*
X15386714Y-29819113D01*
X15339095Y-29771494D01*
X15291476Y-29676256D01*
X15291476Y-29628637D01*
X15339095Y-29533399D01*
X15386714Y-29485780D01*
X15481952Y-29438161D01*
X15672429Y-29438161D01*
X15767667Y-29485780D01*
X15815286Y-29533399D01*
X15862905Y-29628637D01*
X15862905Y-29676256D01*
X15815286Y-29771494D01*
X15767667Y-29819113D01*
X15672429Y-29866732D01*
X15481952Y-29866732D01*
X15386714Y-29914351D01*
X15339095Y-29961970D01*
X15291476Y-30057209D01*
X15291476Y-30247685D01*
X15339095Y-30342923D01*
X15386714Y-30390542D01*
X15481952Y-30438161D01*
X15672429Y-30438161D01*
X15767667Y-30390542D01*
X15815286Y-30342923D01*
X15862905Y-30247685D01*
X15862905Y-30057209D01*
X15815286Y-29961970D01*
X15767667Y-29914351D01*
X15672429Y-29866732D01*
X89907143Y-23407143D02*
X89859524Y-23454762D01*
X89716667Y-23502381D01*
X89621429Y-23502381D01*
X89478571Y-23454762D01*
X89383333Y-23359524D01*
X89335714Y-23264286D01*
X89288095Y-23073810D01*
X89288095Y-22930952D01*
X89335714Y-22740476D01*
X89383333Y-22645238D01*
X89478571Y-22550000D01*
X89621429Y-22502381D01*
X89716667Y-22502381D01*
X89859524Y-22550000D01*
X89907143Y-22597619D01*
X90288095Y-22597619D02*
X90335714Y-22550000D01*
X90430952Y-22502381D01*
X90669048Y-22502381D01*
X90764286Y-22550000D01*
X90811905Y-22597619D01*
X90859524Y-22692857D01*
X90859524Y-22788095D01*
X90811905Y-22930952D01*
X90240476Y-23502381D01*
X90859524Y-23502381D01*
X91478571Y-22502381D02*
X91573810Y-22502381D01*
X91669048Y-22550000D01*
X91716667Y-22597619D01*
X91764286Y-22692857D01*
X91811905Y-22883333D01*
X91811905Y-23121429D01*
X91764286Y-23311905D01*
X91716667Y-23407143D01*
X91669048Y-23454762D01*
X91573810Y-23502381D01*
X91478571Y-23502381D01*
X91383333Y-23454762D01*
X91335714Y-23407143D01*
X91288095Y-23311905D01*
X91240476Y-23121429D01*
X91240476Y-22883333D01*
X91288095Y-22692857D01*
X91335714Y-22597619D01*
X91383333Y-22550000D01*
X91478571Y-22502381D01*
X6820743Y-76761423D02*
X6773124Y-76809042D01*
X6630267Y-76856661D01*
X6535029Y-76856661D01*
X6392171Y-76809042D01*
X6296933Y-76713804D01*
X6249314Y-76618566D01*
X6201695Y-76428090D01*
X6201695Y-76285232D01*
X6249314Y-76094756D01*
X6296933Y-75999518D01*
X6392171Y-75904280D01*
X6535029Y-75856661D01*
X6630267Y-75856661D01*
X6773124Y-75904280D01*
X6820743Y-75951899D01*
X7201695Y-75951899D02*
X7249314Y-75904280D01*
X7344552Y-75856661D01*
X7582648Y-75856661D01*
X7677886Y-75904280D01*
X7725505Y-75951899D01*
X7773124Y-76047137D01*
X7773124Y-76142375D01*
X7725505Y-76285232D01*
X7154076Y-76856661D01*
X7773124Y-76856661D01*
X8725505Y-76856661D02*
X8154076Y-76856661D01*
X8439790Y-76856661D02*
X8439790Y-75856661D01*
X8344552Y-75999518D01*
X8249314Y-76094756D01*
X8154076Y-76142375D01*
X8814643Y-61775423D02*
X8767024Y-61823042D01*
X8624167Y-61870661D01*
X8528929Y-61870661D01*
X8386071Y-61823042D01*
X8290833Y-61727804D01*
X8243214Y-61632566D01*
X8195595Y-61442090D01*
X8195595Y-61299232D01*
X8243214Y-61108756D01*
X8290833Y-61013518D01*
X8386071Y-60918280D01*
X8528929Y-60870661D01*
X8624167Y-60870661D01*
X8767024Y-60918280D01*
X8814643Y-60965899D01*
X9195595Y-60965899D02*
X9243214Y-60918280D01*
X9338452Y-60870661D01*
X9576548Y-60870661D01*
X9671786Y-60918280D01*
X9719405Y-60965899D01*
X9767024Y-61061137D01*
X9767024Y-61156375D01*
X9719405Y-61299232D01*
X9147976Y-61870661D01*
X9767024Y-61870661D01*
X10147976Y-60965899D02*
X10195595Y-60918280D01*
X10290833Y-60870661D01*
X10528929Y-60870661D01*
X10624167Y-60918280D01*
X10671786Y-60965899D01*
X10719405Y-61061137D01*
X10719405Y-61156375D01*
X10671786Y-61299232D01*
X10100357Y-61870661D01*
X10719405Y-61870661D01*
X3010743Y-76659823D02*
X2963124Y-76707442D01*
X2820267Y-76755061D01*
X2725029Y-76755061D01*
X2582171Y-76707442D01*
X2486933Y-76612204D01*
X2439314Y-76516966D01*
X2391695Y-76326490D01*
X2391695Y-76183632D01*
X2439314Y-75993156D01*
X2486933Y-75897918D01*
X2582171Y-75802680D01*
X2725029Y-75755061D01*
X2820267Y-75755061D01*
X2963124Y-75802680D01*
X3010743Y-75850299D01*
X3391695Y-75850299D02*
X3439314Y-75802680D01*
X3534552Y-75755061D01*
X3772648Y-75755061D01*
X3867886Y-75802680D01*
X3915505Y-75850299D01*
X3963124Y-75945537D01*
X3963124Y-76040775D01*
X3915505Y-76183632D01*
X3344076Y-76755061D01*
X3963124Y-76755061D01*
X4296457Y-75755061D02*
X4915505Y-75755061D01*
X4582171Y-76136013D01*
X4725029Y-76136013D01*
X4820267Y-76183632D01*
X4867886Y-76231251D01*
X4915505Y-76326490D01*
X4915505Y-76564585D01*
X4867886Y-76659823D01*
X4820267Y-76707442D01*
X4725029Y-76755061D01*
X4439314Y-76755061D01*
X4344076Y-76707442D01*
X4296457Y-76659823D01*
X8814643Y-59806923D02*
X8767024Y-59854542D01*
X8624167Y-59902161D01*
X8528929Y-59902161D01*
X8386071Y-59854542D01*
X8290833Y-59759304D01*
X8243214Y-59664066D01*
X8195595Y-59473590D01*
X8195595Y-59330732D01*
X8243214Y-59140256D01*
X8290833Y-59045018D01*
X8386071Y-58949780D01*
X8528929Y-58902161D01*
X8624167Y-58902161D01*
X8767024Y-58949780D01*
X8814643Y-58997399D01*
X9195595Y-58997399D02*
X9243214Y-58949780D01*
X9338452Y-58902161D01*
X9576548Y-58902161D01*
X9671786Y-58949780D01*
X9719405Y-58997399D01*
X9767024Y-59092637D01*
X9767024Y-59187875D01*
X9719405Y-59330732D01*
X9147976Y-59902161D01*
X9767024Y-59902161D01*
X10624167Y-59235494D02*
X10624167Y-59902161D01*
X10386071Y-58854542D02*
X10147976Y-59568828D01*
X10767024Y-59568828D01*
X9386143Y-44109143D02*
X9338524Y-44156762D01*
X9195667Y-44204381D01*
X9100429Y-44204381D01*
X8957571Y-44156762D01*
X8862333Y-44061524D01*
X8814714Y-43966286D01*
X8767095Y-43775810D01*
X8767095Y-43632952D01*
X8814714Y-43442476D01*
X8862333Y-43347238D01*
X8957571Y-43252000D01*
X9100429Y-43204381D01*
X9195667Y-43204381D01*
X9338524Y-43252000D01*
X9386143Y-43299619D01*
X9767095Y-43299619D02*
X9814714Y-43252000D01*
X9909952Y-43204381D01*
X10148048Y-43204381D01*
X10243286Y-43252000D01*
X10290905Y-43299619D01*
X10338524Y-43394857D01*
X10338524Y-43490095D01*
X10290905Y-43632952D01*
X9719476Y-44204381D01*
X10338524Y-44204381D01*
X11195667Y-43204381D02*
X11005190Y-43204381D01*
X10909952Y-43252000D01*
X10862333Y-43299619D01*
X10767095Y-43442476D01*
X10719476Y-43632952D01*
X10719476Y-44013905D01*
X10767095Y-44109143D01*
X10814714Y-44156762D01*
X10909952Y-44204381D01*
X11100429Y-44204381D01*
X11195667Y-44156762D01*
X11243286Y-44109143D01*
X11290905Y-44013905D01*
X11290905Y-43775810D01*
X11243286Y-43680571D01*
X11195667Y-43632952D01*
X11100429Y-43585333D01*
X10909952Y-43585333D01*
X10814714Y-43632952D01*
X10767095Y-43680571D01*
X10719476Y-43775810D01*
X29563143Y-51520137D02*
X29610762Y-51567756D01*
X29658381Y-51710613D01*
X29658381Y-51805851D01*
X29610762Y-51948709D01*
X29515524Y-52043947D01*
X29420286Y-52091566D01*
X29229810Y-52139185D01*
X29086952Y-52139185D01*
X28896476Y-52091566D01*
X28801238Y-52043947D01*
X28706000Y-51948709D01*
X28658381Y-51805851D01*
X28658381Y-51710613D01*
X28706000Y-51567756D01*
X28753619Y-51520137D01*
X28753619Y-51139185D02*
X28706000Y-51091566D01*
X28658381Y-50996328D01*
X28658381Y-50758232D01*
X28706000Y-50662994D01*
X28753619Y-50615375D01*
X28848857Y-50567756D01*
X28944095Y-50567756D01*
X29086952Y-50615375D01*
X29658381Y-51186804D01*
X29658381Y-50567756D01*
X28658381Y-50234423D02*
X28658381Y-49567756D01*
X29658381Y-49996328D01*
X14196143Y-47138637D02*
X14243762Y-47186256D01*
X14291381Y-47329113D01*
X14291381Y-47424351D01*
X14243762Y-47567209D01*
X14148524Y-47662447D01*
X14053286Y-47710066D01*
X13862810Y-47757685D01*
X13719952Y-47757685D01*
X13529476Y-47710066D01*
X13434238Y-47662447D01*
X13339000Y-47567209D01*
X13291381Y-47424351D01*
X13291381Y-47329113D01*
X13339000Y-47186256D01*
X13386619Y-47138637D01*
X13386619Y-46757685D02*
X13339000Y-46710066D01*
X13291381Y-46614828D01*
X13291381Y-46376732D01*
X13339000Y-46281494D01*
X13386619Y-46233875D01*
X13481857Y-46186256D01*
X13577095Y-46186256D01*
X13719952Y-46233875D01*
X14291381Y-46805304D01*
X14291381Y-46186256D01*
X13719952Y-45614828D02*
X13672333Y-45710066D01*
X13624714Y-45757685D01*
X13529476Y-45805304D01*
X13481857Y-45805304D01*
X13386619Y-45757685D01*
X13339000Y-45710066D01*
X13291381Y-45614828D01*
X13291381Y-45424351D01*
X13339000Y-45329113D01*
X13386619Y-45281494D01*
X13481857Y-45233875D01*
X13529476Y-45233875D01*
X13624714Y-45281494D01*
X13672333Y-45329113D01*
X13719952Y-45424351D01*
X13719952Y-45614828D01*
X13767571Y-45710066D01*
X13815190Y-45757685D01*
X13910429Y-45805304D01*
X14100905Y-45805304D01*
X14196143Y-45757685D01*
X14243762Y-45710066D01*
X14291381Y-45614828D01*
X14291381Y-45424351D01*
X14243762Y-45329113D01*
X14196143Y-45281494D01*
X14100905Y-45233875D01*
X13910429Y-45233875D01*
X13815190Y-45281494D01*
X13767571Y-45329113D01*
X13719952Y-45424351D01*
X35976643Y-50377137D02*
X36024262Y-50424756D01*
X36071881Y-50567613D01*
X36071881Y-50662851D01*
X36024262Y-50805709D01*
X35929024Y-50900947D01*
X35833786Y-50948566D01*
X35643310Y-50996185D01*
X35500452Y-50996185D01*
X35309976Y-50948566D01*
X35214738Y-50900947D01*
X35119500Y-50805709D01*
X35071881Y-50662851D01*
X35071881Y-50567613D01*
X35119500Y-50424756D01*
X35167119Y-50377137D01*
X35167119Y-49996185D02*
X35119500Y-49948566D01*
X35071881Y-49853328D01*
X35071881Y-49615232D01*
X35119500Y-49519994D01*
X35167119Y-49472375D01*
X35262357Y-49424756D01*
X35357595Y-49424756D01*
X35500452Y-49472375D01*
X36071881Y-50043804D01*
X36071881Y-49424756D01*
X36071881Y-48948566D02*
X36071881Y-48758090D01*
X36024262Y-48662851D01*
X35976643Y-48615232D01*
X35833786Y-48519994D01*
X35643310Y-48472375D01*
X35262357Y-48472375D01*
X35167119Y-48519994D01*
X35119500Y-48567613D01*
X35071881Y-48662851D01*
X35071881Y-48853328D01*
X35119500Y-48948566D01*
X35167119Y-48996185D01*
X35262357Y-49043804D01*
X35500452Y-49043804D01*
X35595690Y-48996185D01*
X35643310Y-48948566D01*
X35690929Y-48853328D01*
X35690929Y-48662851D01*
X35643310Y-48567613D01*
X35595690Y-48519994D01*
X35500452Y-48472375D01*
X36183143Y-32311423D02*
X36135524Y-32359042D01*
X35992667Y-32406661D01*
X35897429Y-32406661D01*
X35754571Y-32359042D01*
X35659333Y-32263804D01*
X35611714Y-32168566D01*
X35564095Y-31978090D01*
X35564095Y-31835232D01*
X35611714Y-31644756D01*
X35659333Y-31549518D01*
X35754571Y-31454280D01*
X35897429Y-31406661D01*
X35992667Y-31406661D01*
X36135524Y-31454280D01*
X36183143Y-31501899D01*
X36516476Y-31406661D02*
X37135524Y-31406661D01*
X36802190Y-31787613D01*
X36945048Y-31787613D01*
X37040286Y-31835232D01*
X37087905Y-31882851D01*
X37135524Y-31978090D01*
X37135524Y-32216185D01*
X37087905Y-32311423D01*
X37040286Y-32359042D01*
X36945048Y-32406661D01*
X36659333Y-32406661D01*
X36564095Y-32359042D01*
X36516476Y-32311423D01*
X37754571Y-31406661D02*
X37849810Y-31406661D01*
X37945048Y-31454280D01*
X37992667Y-31501899D01*
X38040286Y-31597137D01*
X38087905Y-31787613D01*
X38087905Y-32025709D01*
X38040286Y-32216185D01*
X37992667Y-32311423D01*
X37945048Y-32359042D01*
X37849810Y-32406661D01*
X37754571Y-32406661D01*
X37659333Y-32359042D01*
X37611714Y-32311423D01*
X37564095Y-32216185D01*
X37516476Y-32025709D01*
X37516476Y-31787613D01*
X37564095Y-31597137D01*
X37611714Y-31501899D01*
X37659333Y-31454280D01*
X37754571Y-31406661D01*
X10656143Y-32057423D02*
X10608524Y-32105042D01*
X10465667Y-32152661D01*
X10370429Y-32152661D01*
X10227571Y-32105042D01*
X10132333Y-32009804D01*
X10084714Y-31914566D01*
X10037095Y-31724090D01*
X10037095Y-31581232D01*
X10084714Y-31390756D01*
X10132333Y-31295518D01*
X10227571Y-31200280D01*
X10370429Y-31152661D01*
X10465667Y-31152661D01*
X10608524Y-31200280D01*
X10656143Y-31247899D01*
X10989476Y-31152661D02*
X11608524Y-31152661D01*
X11275190Y-31533613D01*
X11418048Y-31533613D01*
X11513286Y-31581232D01*
X11560905Y-31628851D01*
X11608524Y-31724090D01*
X11608524Y-31962185D01*
X11560905Y-32057423D01*
X11513286Y-32105042D01*
X11418048Y-32152661D01*
X11132333Y-32152661D01*
X11037095Y-32105042D01*
X10989476Y-32057423D01*
X12560905Y-32152661D02*
X11989476Y-32152661D01*
X12275190Y-32152661D02*
X12275190Y-31152661D01*
X12179952Y-31295518D01*
X12084714Y-31390756D01*
X11989476Y-31438375D01*
X6988095Y-14288661D02*
X6988095Y-15098185D01*
X7035714Y-15193423D01*
X7083333Y-15241042D01*
X7178571Y-15288661D01*
X7369048Y-15288661D01*
X7464286Y-15241042D01*
X7511905Y-15193423D01*
X7559524Y-15098185D01*
X7559524Y-14288661D01*
X7940476Y-14288661D02*
X8559524Y-14288661D01*
X8226190Y-14669613D01*
X8369048Y-14669613D01*
X8464286Y-14717232D01*
X8511905Y-14764851D01*
X8559524Y-14860090D01*
X8559524Y-15098185D01*
X8511905Y-15193423D01*
X8464286Y-15241042D01*
X8369048Y-15288661D01*
X8083333Y-15288661D01*
X7988095Y-15241042D01*
X7940476Y-15193423D01*
X31927881Y-44654185D02*
X32737405Y-44654185D01*
X32832643Y-44606566D01*
X32880262Y-44558947D01*
X32927881Y-44463709D01*
X32927881Y-44273232D01*
X32880262Y-44177994D01*
X32832643Y-44130375D01*
X32737405Y-44082756D01*
X31927881Y-44082756D01*
X31927881Y-43177994D02*
X31927881Y-43368471D01*
X31975500Y-43463709D01*
X32023119Y-43511328D01*
X32165976Y-43606566D01*
X32356452Y-43654185D01*
X32737405Y-43654185D01*
X32832643Y-43606566D01*
X32880262Y-43558947D01*
X32927881Y-43463709D01*
X32927881Y-43273232D01*
X32880262Y-43177994D01*
X32832643Y-43130375D01*
X32737405Y-43082756D01*
X32499310Y-43082756D01*
X32404071Y-43130375D01*
X32356452Y-43177994D01*
X32308833Y-43273232D01*
X32308833Y-43463709D01*
X32356452Y-43558947D01*
X32404071Y-43606566D01*
X32499310Y-43654185D01*
X7211143Y-30088946D02*
X7258762Y-30136565D01*
X7306381Y-30279422D01*
X7306381Y-30374660D01*
X7258762Y-30517518D01*
X7163524Y-30612756D01*
X7068286Y-30660375D01*
X6877810Y-30707994D01*
X6734952Y-30707994D01*
X6544476Y-30660375D01*
X6449238Y-30612756D01*
X6354000Y-30517518D01*
X6306381Y-30374660D01*
X6306381Y-30279422D01*
X6354000Y-30136565D01*
X6401619Y-30088946D01*
X7306381Y-29136565D02*
X7306381Y-29707994D01*
X7306381Y-29422280D02*
X6306381Y-29422280D01*
X6449238Y-29517518D01*
X6544476Y-29612756D01*
X6592095Y-29707994D01*
X17782143Y-22916946D02*
X17829762Y-22964565D01*
X17877381Y-23107422D01*
X17877381Y-23202660D01*
X17829762Y-23345518D01*
X17734524Y-23440756D01*
X17639286Y-23488375D01*
X17448810Y-23535994D01*
X17305952Y-23535994D01*
X17115476Y-23488375D01*
X17020238Y-23440756D01*
X16925000Y-23345518D01*
X16877381Y-23202660D01*
X16877381Y-23107422D01*
X16925000Y-22964565D01*
X16972619Y-22916946D01*
X16972619Y-22535994D02*
X16925000Y-22488375D01*
X16877381Y-22393137D01*
X16877381Y-22155041D01*
X16925000Y-22059803D01*
X16972619Y-22012184D01*
X17067857Y-21964565D01*
X17163095Y-21964565D01*
X17305952Y-22012184D01*
X17877381Y-22583613D01*
X17877381Y-21964565D01*
X20282743Y-38915423D02*
X20235124Y-38963042D01*
X20092267Y-39010661D01*
X19997029Y-39010661D01*
X19854171Y-38963042D01*
X19758933Y-38867804D01*
X19711314Y-38772566D01*
X19663695Y-38582090D01*
X19663695Y-38439232D01*
X19711314Y-38248756D01*
X19758933Y-38153518D01*
X19854171Y-38058280D01*
X19997029Y-38010661D01*
X20092267Y-38010661D01*
X20235124Y-38058280D01*
X20282743Y-38105899D01*
X20663695Y-38105899D02*
X20711314Y-38058280D01*
X20806552Y-38010661D01*
X21044648Y-38010661D01*
X21139886Y-38058280D01*
X21187505Y-38105899D01*
X21235124Y-38201137D01*
X21235124Y-38296375D01*
X21187505Y-38439232D01*
X20616076Y-39010661D01*
X21235124Y-39010661D01*
X22139886Y-38010661D02*
X21663695Y-38010661D01*
X21616076Y-38486851D01*
X21663695Y-38439232D01*
X21758933Y-38391613D01*
X21997029Y-38391613D01*
X22092267Y-38439232D01*
X22139886Y-38486851D01*
X22187505Y-38582090D01*
X22187505Y-38820185D01*
X22139886Y-38915423D01*
X22092267Y-38963042D01*
X21997029Y-39010661D01*
X21758933Y-39010661D01*
X21663695Y-38963042D01*
X21616076Y-38915423D01*
X17339381Y-34819637D02*
X16863190Y-35152971D01*
X17339381Y-35391066D02*
X16339381Y-35391066D01*
X16339381Y-35010113D01*
X16387000Y-34914875D01*
X16434619Y-34867256D01*
X16529857Y-34819637D01*
X16672714Y-34819637D01*
X16767952Y-34867256D01*
X16815571Y-34914875D01*
X16863190Y-35010113D01*
X16863190Y-35391066D01*
X16434619Y-34438685D02*
X16387000Y-34391066D01*
X16339381Y-34295828D01*
X16339381Y-34057732D01*
X16387000Y-33962494D01*
X16434619Y-33914875D01*
X16529857Y-33867256D01*
X16625095Y-33867256D01*
X16767952Y-33914875D01*
X17339381Y-34486304D01*
X17339381Y-33867256D01*
X16339381Y-33533923D02*
X16339381Y-32914875D01*
X16720333Y-33248209D01*
X16720333Y-33105351D01*
X16767952Y-33010113D01*
X16815571Y-32962494D01*
X16910810Y-32914875D01*
X17148905Y-32914875D01*
X17244143Y-32962494D01*
X17291762Y-33010113D01*
X17339381Y-33105351D01*
X17339381Y-33391066D01*
X17291762Y-33486304D01*
X17244143Y-33533923D01*
X39457143Y-36992857D02*
X39504762Y-37040476D01*
X39552381Y-37183333D01*
X39552381Y-37278571D01*
X39504762Y-37421429D01*
X39409524Y-37516667D01*
X39314286Y-37564286D01*
X39123810Y-37611905D01*
X38980952Y-37611905D01*
X38790476Y-37564286D01*
X38695238Y-37516667D01*
X38600000Y-37421429D01*
X38552381Y-37278571D01*
X38552381Y-37183333D01*
X38600000Y-37040476D01*
X38647619Y-36992857D01*
X38552381Y-36659524D02*
X38552381Y-36040476D01*
X38933333Y-36373810D01*
X38933333Y-36230952D01*
X38980952Y-36135714D01*
X39028571Y-36088095D01*
X39123810Y-36040476D01*
X39361905Y-36040476D01*
X39457143Y-36088095D01*
X39504762Y-36135714D01*
X39552381Y-36230952D01*
X39552381Y-36516667D01*
X39504762Y-36611905D01*
X39457143Y-36659524D01*
X38647619Y-35659524D02*
X38600000Y-35611905D01*
X38552381Y-35516667D01*
X38552381Y-35278571D01*
X38600000Y-35183333D01*
X38647619Y-35135714D01*
X38742857Y-35088095D01*
X38838095Y-35088095D01*
X38980952Y-35135714D01*
X39552381Y-35707143D01*
X39552381Y-35088095D01*
X43374381Y-44757375D02*
X42374381Y-44757375D01*
X42374381Y-44376422D01*
X42422000Y-44281184D01*
X42469619Y-44233565D01*
X42564857Y-44185946D01*
X42707714Y-44185946D01*
X42802952Y-44233565D01*
X42850571Y-44281184D01*
X42898190Y-44376422D01*
X42898190Y-44757375D01*
X42469619Y-43804994D02*
X42422000Y-43757375D01*
X42374381Y-43662137D01*
X42374381Y-43424041D01*
X42422000Y-43328803D01*
X42469619Y-43281184D01*
X42564857Y-43233565D01*
X42660095Y-43233565D01*
X42802952Y-43281184D01*
X43374381Y-43852613D01*
X43374381Y-43233565D01*
X42878457Y-34530565D02*
X42951029Y-34312851D01*
X42951029Y-33949994D01*
X42878457Y-33804851D01*
X42805886Y-33732280D01*
X42660743Y-33659708D01*
X42515600Y-33659708D01*
X42370457Y-33732280D01*
X42297886Y-33804851D01*
X42225314Y-33949994D01*
X42152743Y-34240280D01*
X42080171Y-34385422D01*
X42007600Y-34457994D01*
X41862457Y-34530565D01*
X41717314Y-34530565D01*
X41572171Y-34457994D01*
X41499600Y-34385422D01*
X41427029Y-34240280D01*
X41427029Y-33877422D01*
X41499600Y-33659708D01*
X41427029Y-33151708D02*
X42951029Y-32788851D01*
X41862457Y-32498565D01*
X42951029Y-32208279D01*
X41427029Y-31845422D01*
X42951029Y-31264851D02*
X41427029Y-31264851D01*
X41427029Y-30901994D01*
X41499600Y-30684279D01*
X41644743Y-30539137D01*
X41789886Y-30466565D01*
X42080171Y-30393994D01*
X42297886Y-30393994D01*
X42588171Y-30466565D01*
X42733314Y-30539137D01*
X42878457Y-30684279D01*
X42951029Y-30901994D01*
X42951029Y-31264851D01*
X62868881Y-85071946D02*
X62392690Y-85405280D01*
X62868881Y-85643375D02*
X61868881Y-85643375D01*
X61868881Y-85262422D01*
X61916500Y-85167184D01*
X61964119Y-85119565D01*
X62059357Y-85071946D01*
X62202214Y-85071946D01*
X62297452Y-85119565D01*
X62345071Y-85167184D01*
X62392690Y-85262422D01*
X62392690Y-85643375D01*
X62868881Y-84643375D02*
X61868881Y-84643375D01*
X61868881Y-84262422D01*
X61916500Y-84167184D01*
X61964119Y-84119565D01*
X62059357Y-84071946D01*
X62202214Y-84071946D01*
X62297452Y-84119565D01*
X62345071Y-84167184D01*
X62392690Y-84262422D01*
X62392690Y-84643375D01*
X62868881Y-83119565D02*
X62868881Y-83690994D01*
X62868881Y-83405280D02*
X61868881Y-83405280D01*
X62011738Y-83500518D01*
X62106976Y-83595756D01*
X62154595Y-83690994D01*
X74425881Y-85071946D02*
X73949690Y-85405280D01*
X74425881Y-85643375D02*
X73425881Y-85643375D01*
X73425881Y-85262422D01*
X73473500Y-85167184D01*
X73521119Y-85119565D01*
X73616357Y-85071946D01*
X73759214Y-85071946D01*
X73854452Y-85119565D01*
X73902071Y-85167184D01*
X73949690Y-85262422D01*
X73949690Y-85643375D01*
X74425881Y-84643375D02*
X73425881Y-84643375D01*
X73425881Y-84262422D01*
X73473500Y-84167184D01*
X73521119Y-84119565D01*
X73616357Y-84071946D01*
X73759214Y-84071946D01*
X73854452Y-84119565D01*
X73902071Y-84167184D01*
X73949690Y-84262422D01*
X73949690Y-84643375D01*
X73521119Y-83690994D02*
X73473500Y-83643375D01*
X73425881Y-83548137D01*
X73425881Y-83310041D01*
X73473500Y-83214803D01*
X73521119Y-83167184D01*
X73616357Y-83119565D01*
X73711595Y-83119565D01*
X73854452Y-83167184D01*
X74425881Y-83738613D01*
X74425881Y-83119565D01*
X62297381Y-70149446D02*
X61821190Y-70482780D01*
X62297381Y-70720875D02*
X61297381Y-70720875D01*
X61297381Y-70339922D01*
X61345000Y-70244684D01*
X61392619Y-70197065D01*
X61487857Y-70149446D01*
X61630714Y-70149446D01*
X61725952Y-70197065D01*
X61773571Y-70244684D01*
X61821190Y-70339922D01*
X61821190Y-70720875D01*
X62297381Y-69720875D02*
X61297381Y-69720875D01*
X61297381Y-69339922D01*
X61345000Y-69244684D01*
X61392619Y-69197065D01*
X61487857Y-69149446D01*
X61630714Y-69149446D01*
X61725952Y-69197065D01*
X61773571Y-69244684D01*
X61821190Y-69339922D01*
X61821190Y-69720875D01*
X61297381Y-68816113D02*
X61297381Y-68197065D01*
X61678333Y-68530399D01*
X61678333Y-68387541D01*
X61725952Y-68292303D01*
X61773571Y-68244684D01*
X61868810Y-68197065D01*
X62106905Y-68197065D01*
X62202143Y-68244684D01*
X62249762Y-68292303D01*
X62297381Y-68387541D01*
X62297381Y-68673256D01*
X62249762Y-68768494D01*
X62202143Y-68816113D01*
X72838381Y-70212946D02*
X72362190Y-70546280D01*
X72838381Y-70784375D02*
X71838381Y-70784375D01*
X71838381Y-70403422D01*
X71886000Y-70308184D01*
X71933619Y-70260565D01*
X72028857Y-70212946D01*
X72171714Y-70212946D01*
X72266952Y-70260565D01*
X72314571Y-70308184D01*
X72362190Y-70403422D01*
X72362190Y-70784375D01*
X72838381Y-69784375D02*
X71838381Y-69784375D01*
X71838381Y-69403422D01*
X71886000Y-69308184D01*
X71933619Y-69260565D01*
X72028857Y-69212946D01*
X72171714Y-69212946D01*
X72266952Y-69260565D01*
X72314571Y-69308184D01*
X72362190Y-69403422D01*
X72362190Y-69784375D01*
X72171714Y-68355803D02*
X72838381Y-68355803D01*
X71790762Y-68593899D02*
X72505048Y-68831994D01*
X72505048Y-68212946D01*
X11652334Y-77160381D02*
X11319000Y-76684190D01*
X11080905Y-77160381D02*
X11080905Y-76160381D01*
X11461858Y-76160381D01*
X11557096Y-76208000D01*
X11604715Y-76255619D01*
X11652334Y-76350857D01*
X11652334Y-76493714D01*
X11604715Y-76588952D01*
X11557096Y-76636571D01*
X11461858Y-76684190D01*
X11080905Y-76684190D01*
X12080905Y-77160381D02*
X12080905Y-76160381D01*
X12461858Y-76160381D01*
X12557096Y-76208000D01*
X12604715Y-76255619D01*
X12652334Y-76350857D01*
X12652334Y-76493714D01*
X12604715Y-76588952D01*
X12557096Y-76636571D01*
X12461858Y-76684190D01*
X12080905Y-76684190D01*
X13557096Y-76160381D02*
X13080905Y-76160381D01*
X13033286Y-76636571D01*
X13080905Y-76588952D01*
X13176143Y-76541333D01*
X13414239Y-76541333D01*
X13509477Y-76588952D01*
X13557096Y-76636571D01*
X13604715Y-76731810D01*
X13604715Y-76969905D01*
X13557096Y-77065143D01*
X13509477Y-77112762D01*
X13414239Y-77160381D01*
X13176143Y-77160381D01*
X13080905Y-77112762D01*
X13033286Y-77065143D01*
X19145334Y-77160381D02*
X18812000Y-76684190D01*
X18573905Y-77160381D02*
X18573905Y-76160381D01*
X18954858Y-76160381D01*
X19050096Y-76208000D01*
X19097715Y-76255619D01*
X19145334Y-76350857D01*
X19145334Y-76493714D01*
X19097715Y-76588952D01*
X19050096Y-76636571D01*
X18954858Y-76684190D01*
X18573905Y-76684190D01*
X19573905Y-77160381D02*
X19573905Y-76160381D01*
X19954858Y-76160381D01*
X20050096Y-76208000D01*
X20097715Y-76255619D01*
X20145334Y-76350857D01*
X20145334Y-76493714D01*
X20097715Y-76588952D01*
X20050096Y-76636571D01*
X19954858Y-76684190D01*
X19573905Y-76684190D01*
X21002477Y-76160381D02*
X20812000Y-76160381D01*
X20716762Y-76208000D01*
X20669143Y-76255619D01*
X20573905Y-76398476D01*
X20526286Y-76588952D01*
X20526286Y-76969905D01*
X20573905Y-77065143D01*
X20621524Y-77112762D01*
X20716762Y-77160381D01*
X20907239Y-77160381D01*
X21002477Y-77112762D01*
X21050096Y-77065143D01*
X21097715Y-76969905D01*
X21097715Y-76731810D01*
X21050096Y-76636571D01*
X21002477Y-76588952D01*
X20907239Y-76541333D01*
X20716762Y-76541333D01*
X20621524Y-76588952D01*
X20573905Y-76636571D01*
X20526286Y-76731810D01*
X14823334Y-63547061D02*
X14490000Y-63070870D01*
X14251905Y-63547061D02*
X14251905Y-62547061D01*
X14632858Y-62547061D01*
X14728096Y-62594680D01*
X14775715Y-62642299D01*
X14823334Y-62737537D01*
X14823334Y-62880394D01*
X14775715Y-62975632D01*
X14728096Y-63023251D01*
X14632858Y-63070870D01*
X14251905Y-63070870D01*
X15251905Y-63547061D02*
X15251905Y-62547061D01*
X15632858Y-62547061D01*
X15728096Y-62594680D01*
X15775715Y-62642299D01*
X15823334Y-62737537D01*
X15823334Y-62880394D01*
X15775715Y-62975632D01*
X15728096Y-63023251D01*
X15632858Y-63070870D01*
X15251905Y-63070870D01*
X16394762Y-62975632D02*
X16299524Y-62928013D01*
X16251905Y-62880394D01*
X16204286Y-62785156D01*
X16204286Y-62737537D01*
X16251905Y-62642299D01*
X16299524Y-62594680D01*
X16394762Y-62547061D01*
X16585239Y-62547061D01*
X16680477Y-62594680D01*
X16728096Y-62642299D01*
X16775715Y-62737537D01*
X16775715Y-62785156D01*
X16728096Y-62880394D01*
X16680477Y-62928013D01*
X16585239Y-62975632D01*
X16394762Y-62975632D01*
X16299524Y-63023251D01*
X16251905Y-63070870D01*
X16204286Y-63166109D01*
X16204286Y-63356585D01*
X16251905Y-63451823D01*
X16299524Y-63499442D01*
X16394762Y-63547061D01*
X16585239Y-63547061D01*
X16680477Y-63499442D01*
X16728096Y-63451823D01*
X16775715Y-63356585D01*
X16775715Y-63166109D01*
X16728096Y-63070870D01*
X16680477Y-63023251D01*
X16585239Y-62975632D01*
X15386905Y-9927661D02*
X15386905Y-8927661D01*
X15767858Y-8927661D01*
X15863096Y-8975280D01*
X15910715Y-9022899D01*
X15958334Y-9118137D01*
X15958334Y-9260994D01*
X15910715Y-9356232D01*
X15863096Y-9403851D01*
X15767858Y-9451470D01*
X15386905Y-9451470D01*
X16910715Y-9927661D02*
X16339286Y-9927661D01*
X16625000Y-9927661D02*
X16625000Y-8927661D01*
X16529762Y-9070518D01*
X16434524Y-9165756D01*
X16339286Y-9213375D01*
X24302305Y-14779061D02*
X24302305Y-13779061D01*
X24540400Y-13779061D01*
X24683258Y-13826680D01*
X24778496Y-13921918D01*
X24826115Y-14017156D01*
X24873734Y-14207632D01*
X24873734Y-14350490D01*
X24826115Y-14540966D01*
X24778496Y-14636204D01*
X24683258Y-14731442D01*
X24540400Y-14779061D01*
X24302305Y-14779061D01*
X25826115Y-14779061D02*
X25254686Y-14779061D01*
X25540400Y-14779061D02*
X25540400Y-13779061D01*
X25445162Y-13921918D01*
X25349924Y-14017156D01*
X25254686Y-14064775D01*
X38881905Y-9927661D02*
X38881905Y-8927661D01*
X39453334Y-9927661D02*
X39024762Y-9356232D01*
X39453334Y-8927661D02*
X38881905Y-9499090D01*
X39786667Y-8927661D02*
X40405715Y-8927661D01*
X40072381Y-9308613D01*
X40215239Y-9308613D01*
X40310477Y-9356232D01*
X40358096Y-9403851D01*
X40405715Y-9499090D01*
X40405715Y-9737185D01*
X40358096Y-9832423D01*
X40310477Y-9880042D01*
X40215239Y-9927661D01*
X39929524Y-9927661D01*
X39834286Y-9880042D01*
X39786667Y-9832423D01*
X30626905Y-9927661D02*
X30626905Y-8927661D01*
X31198334Y-9927661D02*
X30769762Y-9356232D01*
X31198334Y-8927661D02*
X30626905Y-9499090D01*
X32055477Y-9260994D02*
X32055477Y-9927661D01*
X31817381Y-8880042D02*
X31579286Y-9594328D01*
X32198334Y-9594328D01*
X15386905Y-89302661D02*
X15386905Y-88302661D01*
X15767858Y-88302661D01*
X15863096Y-88350280D01*
X15910715Y-88397899D01*
X15958334Y-88493137D01*
X15958334Y-88635994D01*
X15910715Y-88731232D01*
X15863096Y-88778851D01*
X15767858Y-88826470D01*
X15386905Y-88826470D01*
X16815477Y-88635994D02*
X16815477Y-89302661D01*
X16577381Y-88255042D02*
X16339286Y-88969328D01*
X16958334Y-88969328D01*
X23641905Y-9927661D02*
X23641905Y-8927661D01*
X24022858Y-8927661D01*
X24118096Y-8975280D01*
X24165715Y-9022899D01*
X24213334Y-9118137D01*
X24213334Y-9260994D01*
X24165715Y-9356232D01*
X24118096Y-9403851D01*
X24022858Y-9451470D01*
X23641905Y-9451470D01*
X24546667Y-8927661D02*
X25213334Y-8927661D01*
X24784762Y-9927661D01*
X73171905Y-82000161D02*
X73171905Y-81000161D01*
X73552858Y-81000161D01*
X73648096Y-81047780D01*
X73695715Y-81095399D01*
X73743334Y-81190637D01*
X73743334Y-81333494D01*
X73695715Y-81428732D01*
X73648096Y-81476351D01*
X73552858Y-81523970D01*
X73171905Y-81523970D01*
X74219524Y-82000161D02*
X74410000Y-82000161D01*
X74505239Y-81952542D01*
X74552858Y-81904923D01*
X74648096Y-81762066D01*
X74695715Y-81571590D01*
X74695715Y-81190637D01*
X74648096Y-81095399D01*
X74600477Y-81047780D01*
X74505239Y-81000161D01*
X74314762Y-81000161D01*
X74219524Y-81047780D01*
X74171905Y-81095399D01*
X74124286Y-81190637D01*
X74124286Y-81428732D01*
X74171905Y-81523970D01*
X74219524Y-81571590D01*
X74314762Y-81619209D01*
X74505239Y-81619209D01*
X74600477Y-81571590D01*
X74648096Y-81523970D01*
X74695715Y-81428732D01*
X79045714Y-19452661D02*
X79045714Y-18452661D01*
X79426667Y-18452661D01*
X79521905Y-18500280D01*
X79569524Y-18547899D01*
X79617143Y-18643137D01*
X79617143Y-18785994D01*
X79569524Y-18881232D01*
X79521905Y-18928851D01*
X79426667Y-18976470D01*
X79045714Y-18976470D01*
X80569524Y-19452661D02*
X79998095Y-19452661D01*
X80283809Y-19452661D02*
X80283809Y-18452661D01*
X80188571Y-18595518D01*
X80093333Y-18690756D01*
X79998095Y-18738375D01*
X81188571Y-18452661D02*
X81283810Y-18452661D01*
X81379048Y-18500280D01*
X81426667Y-18547899D01*
X81474286Y-18643137D01*
X81521905Y-18833613D01*
X81521905Y-19071709D01*
X81474286Y-19262185D01*
X81426667Y-19357423D01*
X81379048Y-19405042D01*
X81283810Y-19452661D01*
X81188571Y-19452661D01*
X81093333Y-19405042D01*
X81045714Y-19357423D01*
X80998095Y-19262185D01*
X80950476Y-19071709D01*
X80950476Y-18833613D01*
X80998095Y-18643137D01*
X81045714Y-18547899D01*
X81093333Y-18500280D01*
X81188571Y-18452661D01*
X72695714Y-95906661D02*
X72695714Y-94906661D01*
X73076667Y-94906661D01*
X73171905Y-94954280D01*
X73219524Y-95001899D01*
X73267143Y-95097137D01*
X73267143Y-95239994D01*
X73219524Y-95335232D01*
X73171905Y-95382851D01*
X73076667Y-95430470D01*
X72695714Y-95430470D01*
X74219524Y-95906661D02*
X73648095Y-95906661D01*
X73933809Y-95906661D02*
X73933809Y-94906661D01*
X73838571Y-95049518D01*
X73743333Y-95144756D01*
X73648095Y-95192375D01*
X75171905Y-95906661D02*
X74600476Y-95906661D01*
X74886190Y-95906661D02*
X74886190Y-94906661D01*
X74790952Y-95049518D01*
X74695714Y-95144756D01*
X74600476Y-95192375D01*
X79045714Y-28342661D02*
X79045714Y-27342661D01*
X79426667Y-27342661D01*
X79521905Y-27390280D01*
X79569524Y-27437899D01*
X79617143Y-27533137D01*
X79617143Y-27675994D01*
X79569524Y-27771232D01*
X79521905Y-27818851D01*
X79426667Y-27866470D01*
X79045714Y-27866470D01*
X80569524Y-28342661D02*
X79998095Y-28342661D01*
X80283809Y-28342661D02*
X80283809Y-27342661D01*
X80188571Y-27485518D01*
X80093333Y-27580756D01*
X79998095Y-27628375D01*
X80902857Y-27342661D02*
X81521905Y-27342661D01*
X81188571Y-27723613D01*
X81331429Y-27723613D01*
X81426667Y-27771232D01*
X81474286Y-27818851D01*
X81521905Y-27914090D01*
X81521905Y-28152185D01*
X81474286Y-28247423D01*
X81426667Y-28295042D01*
X81331429Y-28342661D01*
X81045714Y-28342661D01*
X80950476Y-28295042D01*
X80902857Y-28247423D01*
X50470714Y-9927661D02*
X50470714Y-8927661D01*
X50851667Y-8927661D01*
X50946905Y-8975280D01*
X50994524Y-9022899D01*
X51042143Y-9118137D01*
X51042143Y-9260994D01*
X50994524Y-9356232D01*
X50946905Y-9403851D01*
X50851667Y-9451470D01*
X50470714Y-9451470D01*
X51994524Y-9927661D02*
X51423095Y-9927661D01*
X51708809Y-9927661D02*
X51708809Y-8927661D01*
X51613571Y-9070518D01*
X51518333Y-9165756D01*
X51423095Y-9213375D01*
X52851667Y-9260994D02*
X52851667Y-9927661D01*
X52613571Y-8880042D02*
X52375476Y-9594328D01*
X52994524Y-9594328D01*
X65710714Y-9927661D02*
X65710714Y-8927661D01*
X66091667Y-8927661D01*
X66186905Y-8975280D01*
X66234524Y-9022899D01*
X66282143Y-9118137D01*
X66282143Y-9260994D01*
X66234524Y-9356232D01*
X66186905Y-9403851D01*
X66091667Y-9451470D01*
X65710714Y-9451470D01*
X67234524Y-9927661D02*
X66663095Y-9927661D01*
X66948809Y-9927661D02*
X66948809Y-8927661D01*
X66853571Y-9070518D01*
X66758333Y-9165756D01*
X66663095Y-9213375D01*
X68139286Y-8927661D02*
X67663095Y-8927661D01*
X67615476Y-9403851D01*
X67663095Y-9356232D01*
X67758333Y-9308613D01*
X67996429Y-9308613D01*
X68091667Y-9356232D01*
X68139286Y-9403851D01*
X68186905Y-9499090D01*
X68186905Y-9737185D01*
X68139286Y-9832423D01*
X68091667Y-9880042D01*
X67996429Y-9927661D01*
X67758333Y-9927661D01*
X67663095Y-9880042D01*
X67615476Y-9832423D01*
X67785643Y-44852637D02*
X67833262Y-44900256D01*
X67880881Y-45043113D01*
X67880881Y-45138351D01*
X67833262Y-45281209D01*
X67738024Y-45376447D01*
X67642786Y-45424066D01*
X67452310Y-45471685D01*
X67309452Y-45471685D01*
X67118976Y-45424066D01*
X67023738Y-45376447D01*
X66928500Y-45281209D01*
X66880881Y-45138351D01*
X66880881Y-45043113D01*
X66928500Y-44900256D01*
X66976119Y-44852637D01*
X66880881Y-44519304D02*
X66880881Y-43900256D01*
X67261833Y-44233590D01*
X67261833Y-44090732D01*
X67309452Y-43995494D01*
X67357071Y-43947875D01*
X67452310Y-43900256D01*
X67690405Y-43900256D01*
X67785643Y-43947875D01*
X67833262Y-43995494D01*
X67880881Y-44090732D01*
X67880881Y-44376447D01*
X67833262Y-44471685D01*
X67785643Y-44519304D01*
X66880881Y-43566923D02*
X66880881Y-42947875D01*
X67261833Y-43281209D01*
X67261833Y-43138351D01*
X67309452Y-43043113D01*
X67357071Y-42995494D01*
X67452310Y-42947875D01*
X67690405Y-42947875D01*
X67785643Y-42995494D01*
X67833262Y-43043113D01*
X67880881Y-43138351D01*
X67880881Y-43424066D01*
X67833262Y-43519304D01*
X67785643Y-43566923D01*
X17176143Y-56600137D02*
X17223762Y-56647756D01*
X17271381Y-56790613D01*
X17271381Y-56885851D01*
X17223762Y-57028709D01*
X17128524Y-57123947D01*
X17033286Y-57171566D01*
X16842810Y-57219185D01*
X16699952Y-57219185D01*
X16509476Y-57171566D01*
X16414238Y-57123947D01*
X16319000Y-57028709D01*
X16271381Y-56885851D01*
X16271381Y-56790613D01*
X16319000Y-56647756D01*
X16366619Y-56600137D01*
X16271381Y-56266804D02*
X16271381Y-55647756D01*
X16652333Y-55981090D01*
X16652333Y-55838232D01*
X16699952Y-55742994D01*
X16747571Y-55695375D01*
X16842810Y-55647756D01*
X17080905Y-55647756D01*
X17176143Y-55695375D01*
X17223762Y-55742994D01*
X17271381Y-55838232D01*
X17271381Y-56123947D01*
X17223762Y-56219185D01*
X17176143Y-56266804D01*
X16604714Y-54790613D02*
X17271381Y-54790613D01*
X16223762Y-55028709D02*
X16938048Y-55266804D01*
X16938048Y-54647756D01*
X6881381Y-38476905D02*
X7690905Y-38476905D01*
X7786143Y-38429286D01*
X7833762Y-38381667D01*
X7881381Y-38286429D01*
X7881381Y-38095952D01*
X7833762Y-38000714D01*
X7786143Y-37953095D01*
X7690905Y-37905476D01*
X6881381Y-37905476D01*
X6881381Y-37524524D02*
X6881381Y-36857857D01*
X7881381Y-37286429D01*
X60194095Y-43718661D02*
X60194095Y-44528185D01*
X60241714Y-44623423D01*
X60289333Y-44671042D01*
X60384571Y-44718661D01*
X60575048Y-44718661D01*
X60670286Y-44671042D01*
X60717905Y-44623423D01*
X60765524Y-44528185D01*
X60765524Y-43718661D01*
X61384571Y-44147232D02*
X61289333Y-44099613D01*
X61241714Y-44051994D01*
X61194095Y-43956756D01*
X61194095Y-43909137D01*
X61241714Y-43813899D01*
X61289333Y-43766280D01*
X61384571Y-43718661D01*
X61575048Y-43718661D01*
X61670286Y-43766280D01*
X61717905Y-43813899D01*
X61765524Y-43909137D01*
X61765524Y-43956756D01*
X61717905Y-44051994D01*
X61670286Y-44099613D01*
X61575048Y-44147232D01*
X61384571Y-44147232D01*
X61289333Y-44194851D01*
X61241714Y-44242470D01*
X61194095Y-44337709D01*
X61194095Y-44528185D01*
X61241714Y-44623423D01*
X61289333Y-44671042D01*
X61384571Y-44718661D01*
X61575048Y-44718661D01*
X61670286Y-44671042D01*
X61717905Y-44623423D01*
X61765524Y-44528185D01*
X61765524Y-44337709D01*
X61717905Y-44242470D01*
X61670286Y-44194851D01*
X61575048Y-44147232D01*
X19602381Y-28116666D02*
X19126190Y-28450000D01*
X19602381Y-28688095D02*
X18602381Y-28688095D01*
X18602381Y-28307142D01*
X18650000Y-28211904D01*
X18697619Y-28164285D01*
X18792857Y-28116666D01*
X18935714Y-28116666D01*
X19030952Y-28164285D01*
X19078571Y-28211904D01*
X19126190Y-28307142D01*
X19126190Y-28688095D01*
X18602381Y-27211904D02*
X18602381Y-27688095D01*
X19078571Y-27735714D01*
X19030952Y-27688095D01*
X18983333Y-27592857D01*
X18983333Y-27354761D01*
X19030952Y-27259523D01*
X19078571Y-27211904D01*
X19173810Y-27164285D01*
X19411905Y-27164285D01*
X19507143Y-27211904D01*
X19554762Y-27259523D01*
X19602381Y-27354761D01*
X19602381Y-27592857D01*
X19554762Y-27688095D01*
X19507143Y-27735714D01*
X15407143Y-16007143D02*
X15359524Y-16054762D01*
X15216667Y-16102381D01*
X15121429Y-16102381D01*
X14978571Y-16054762D01*
X14883333Y-15959524D01*
X14835714Y-15864286D01*
X14788095Y-15673810D01*
X14788095Y-15530952D01*
X14835714Y-15340476D01*
X14883333Y-15245238D01*
X14978571Y-15150000D01*
X15121429Y-15102381D01*
X15216667Y-15102381D01*
X15359524Y-15150000D01*
X15407143Y-15197619D01*
X15740476Y-15102381D02*
X16359524Y-15102381D01*
X16026190Y-15483333D01*
X16169048Y-15483333D01*
X16264286Y-15530952D01*
X16311905Y-15578571D01*
X16359524Y-15673810D01*
X16359524Y-15911905D01*
X16311905Y-16007143D01*
X16264286Y-16054762D01*
X16169048Y-16102381D01*
X15883333Y-16102381D01*
X15788095Y-16054762D01*
X15740476Y-16007143D01*
X17264286Y-15102381D02*
X16788095Y-15102381D01*
X16740476Y-15578571D01*
X16788095Y-15530952D01*
X16883333Y-15483333D01*
X17121429Y-15483333D01*
X17216667Y-15530952D01*
X17264286Y-15578571D01*
X17311905Y-15673810D01*
X17311905Y-15911905D01*
X17264286Y-16007143D01*
X17216667Y-16054762D01*
X17121429Y-16102381D01*
X16883333Y-16102381D01*
X16788095Y-16054762D01*
X16740476Y-16007143D01*
X15407143Y-17607143D02*
X15359524Y-17654762D01*
X15216667Y-17702381D01*
X15121429Y-17702381D01*
X14978571Y-17654762D01*
X14883333Y-17559524D01*
X14835714Y-17464286D01*
X14788095Y-17273810D01*
X14788095Y-17130952D01*
X14835714Y-16940476D01*
X14883333Y-16845238D01*
X14978571Y-16750000D01*
X15121429Y-16702381D01*
X15216667Y-16702381D01*
X15359524Y-16750000D01*
X15407143Y-16797619D01*
X15740476Y-16702381D02*
X16359524Y-16702381D01*
X16026190Y-17083333D01*
X16169048Y-17083333D01*
X16264286Y-17130952D01*
X16311905Y-17178571D01*
X16359524Y-17273810D01*
X16359524Y-17511905D01*
X16311905Y-17607143D01*
X16264286Y-17654762D01*
X16169048Y-17702381D01*
X15883333Y-17702381D01*
X15788095Y-17654762D01*
X15740476Y-17607143D01*
X17216667Y-16702381D02*
X17026190Y-16702381D01*
X16930952Y-16750000D01*
X16883333Y-16797619D01*
X16788095Y-16940476D01*
X16740476Y-17130952D01*
X16740476Y-17511905D01*
X16788095Y-17607143D01*
X16835714Y-17654762D01*
X16930952Y-17702381D01*
X17121429Y-17702381D01*
X17216667Y-17654762D01*
X17264286Y-17607143D01*
X17311905Y-17511905D01*
X17311905Y-17273810D01*
X17264286Y-17178571D01*
X17216667Y-17130952D01*
X17121429Y-17083333D01*
X16930952Y-17083333D01*
X16835714Y-17130952D01*
X16788095Y-17178571D01*
X16740476Y-17273810D01*
X9607143Y-12492857D02*
X9654762Y-12540476D01*
X9702381Y-12683333D01*
X9702381Y-12778571D01*
X9654762Y-12921429D01*
X9559524Y-13016667D01*
X9464286Y-13064286D01*
X9273810Y-13111905D01*
X9130952Y-13111905D01*
X8940476Y-13064286D01*
X8845238Y-13016667D01*
X8750000Y-12921429D01*
X8702381Y-12778571D01*
X8702381Y-12683333D01*
X8750000Y-12540476D01*
X8797619Y-12492857D01*
X8702381Y-12159524D02*
X8702381Y-11540476D01*
X9083333Y-11873810D01*
X9083333Y-11730952D01*
X9130952Y-11635714D01*
X9178571Y-11588095D01*
X9273810Y-11540476D01*
X9511905Y-11540476D01*
X9607143Y-11588095D01*
X9654762Y-11635714D01*
X9702381Y-11730952D01*
X9702381Y-12016667D01*
X9654762Y-12111905D01*
X9607143Y-12159524D01*
X8702381Y-11207143D02*
X8702381Y-10540476D01*
X9702381Y-10969048D01*
X48009881Y-56695446D02*
X47533690Y-57028780D01*
X48009881Y-57266875D02*
X47009881Y-57266875D01*
X47009881Y-56885922D01*
X47057500Y-56790684D01*
X47105119Y-56743065D01*
X47200357Y-56695446D01*
X47343214Y-56695446D01*
X47438452Y-56743065D01*
X47486071Y-56790684D01*
X47533690Y-56885922D01*
X47533690Y-57266875D01*
X47009881Y-55838303D02*
X47009881Y-56028780D01*
X47057500Y-56124018D01*
X47105119Y-56171637D01*
X47247976Y-56266875D01*
X47438452Y-56314494D01*
X47819405Y-56314494D01*
X47914643Y-56266875D01*
X47962262Y-56219256D01*
X48009881Y-56124018D01*
X48009881Y-55933541D01*
X47962262Y-55838303D01*
X47914643Y-55790684D01*
X47819405Y-55743065D01*
X47581310Y-55743065D01*
X47486071Y-55790684D01*
X47438452Y-55838303D01*
X47390833Y-55933541D01*
X47390833Y-56124018D01*
X47438452Y-56219256D01*
X47486071Y-56266875D01*
X47581310Y-56314494D01*
X49851381Y-56631946D02*
X49375190Y-56965280D01*
X49851381Y-57203375D02*
X48851381Y-57203375D01*
X48851381Y-56822422D01*
X48899000Y-56727184D01*
X48946619Y-56679565D01*
X49041857Y-56631946D01*
X49184714Y-56631946D01*
X49279952Y-56679565D01*
X49327571Y-56727184D01*
X49375190Y-56822422D01*
X49375190Y-57203375D01*
X48851381Y-56298613D02*
X48851381Y-55631946D01*
X49851381Y-56060518D01*
X42231381Y-56631946D02*
X41755190Y-56965280D01*
X42231381Y-57203375D02*
X41231381Y-57203375D01*
X41231381Y-56822422D01*
X41279000Y-56727184D01*
X41326619Y-56679565D01*
X41421857Y-56631946D01*
X41564714Y-56631946D01*
X41659952Y-56679565D01*
X41707571Y-56727184D01*
X41755190Y-56822422D01*
X41755190Y-57203375D01*
X41659952Y-56060518D02*
X41612333Y-56155756D01*
X41564714Y-56203375D01*
X41469476Y-56250994D01*
X41421857Y-56250994D01*
X41326619Y-56203375D01*
X41279000Y-56155756D01*
X41231381Y-56060518D01*
X41231381Y-55870041D01*
X41279000Y-55774803D01*
X41326619Y-55727184D01*
X41421857Y-55679565D01*
X41469476Y-55679565D01*
X41564714Y-55727184D01*
X41612333Y-55774803D01*
X41659952Y-55870041D01*
X41659952Y-56060518D01*
X41707571Y-56155756D01*
X41755190Y-56203375D01*
X41850429Y-56250994D01*
X42040905Y-56250994D01*
X42136143Y-56203375D01*
X42183762Y-56155756D01*
X42231381Y-56060518D01*
X42231381Y-55870041D01*
X42183762Y-55774803D01*
X42136143Y-55727184D01*
X42040905Y-55679565D01*
X41850429Y-55679565D01*
X41755190Y-55727184D01*
X41707571Y-55774803D01*
X41659952Y-55870041D01*
X44263381Y-56631946D02*
X43787190Y-56965280D01*
X44263381Y-57203375D02*
X43263381Y-57203375D01*
X43263381Y-56822422D01*
X43311000Y-56727184D01*
X43358619Y-56679565D01*
X43453857Y-56631946D01*
X43596714Y-56631946D01*
X43691952Y-56679565D01*
X43739571Y-56727184D01*
X43787190Y-56822422D01*
X43787190Y-57203375D01*
X44263381Y-56155756D02*
X44263381Y-55965280D01*
X44215762Y-55870041D01*
X44168143Y-55822422D01*
X44025286Y-55727184D01*
X43834810Y-55679565D01*
X43453857Y-55679565D01*
X43358619Y-55727184D01*
X43311000Y-55774803D01*
X43263381Y-55870041D01*
X43263381Y-56060518D01*
X43311000Y-56155756D01*
X43358619Y-56203375D01*
X43453857Y-56250994D01*
X43691952Y-56250994D01*
X43787190Y-56203375D01*
X43834810Y-56155756D01*
X43882429Y-56060518D01*
X43882429Y-55870041D01*
X43834810Y-55774803D01*
X43787190Y-55727184D01*
X43691952Y-55679565D01*
X45977881Y-57616137D02*
X45501690Y-57949471D01*
X45977881Y-58187566D02*
X44977881Y-58187566D01*
X44977881Y-57806613D01*
X45025500Y-57711375D01*
X45073119Y-57663756D01*
X45168357Y-57616137D01*
X45311214Y-57616137D01*
X45406452Y-57663756D01*
X45454071Y-57711375D01*
X45501690Y-57806613D01*
X45501690Y-58187566D01*
X45977881Y-56663756D02*
X45977881Y-57235185D01*
X45977881Y-56949471D02*
X44977881Y-56949471D01*
X45120738Y-57044709D01*
X45215976Y-57139947D01*
X45263595Y-57235185D01*
X44977881Y-56044709D02*
X44977881Y-55949470D01*
X45025500Y-55854232D01*
X45073119Y-55806613D01*
X45168357Y-55758994D01*
X45358833Y-55711375D01*
X45596929Y-55711375D01*
X45787405Y-55758994D01*
X45882643Y-55806613D01*
X45930262Y-55854232D01*
X45977881Y-55949470D01*
X45977881Y-56044709D01*
X45930262Y-56139947D01*
X45882643Y-56187566D01*
X45787405Y-56235185D01*
X45596929Y-56282804D01*
X45358833Y-56282804D01*
X45168357Y-56235185D01*
X45073119Y-56187566D01*
X45025500Y-56139947D01*
X44977881Y-56044709D01*
X47232143Y-61140423D02*
X47184524Y-61188042D01*
X47041667Y-61235661D01*
X46946429Y-61235661D01*
X46803571Y-61188042D01*
X46708333Y-61092804D01*
X46660714Y-60997566D01*
X46613095Y-60807090D01*
X46613095Y-60664232D01*
X46660714Y-60473756D01*
X46708333Y-60378518D01*
X46803571Y-60283280D01*
X46946429Y-60235661D01*
X47041667Y-60235661D01*
X47184524Y-60283280D01*
X47232143Y-60330899D01*
X48184524Y-61235661D02*
X47613095Y-61235661D01*
X47898809Y-61235661D02*
X47898809Y-60235661D01*
X47803571Y-60378518D01*
X47708333Y-60473756D01*
X47613095Y-60521375D01*
X48660714Y-61235661D02*
X48851190Y-61235661D01*
X48946429Y-61188042D01*
X48994048Y-61140423D01*
X49089286Y-60997566D01*
X49136905Y-60807090D01*
X49136905Y-60426137D01*
X49089286Y-60330899D01*
X49041667Y-60283280D01*
X48946429Y-60235661D01*
X48755952Y-60235661D01*
X48660714Y-60283280D01*
X48613095Y-60330899D01*
X48565476Y-60426137D01*
X48565476Y-60664232D01*
X48613095Y-60759470D01*
X48660714Y-60807090D01*
X48755952Y-60854709D01*
X48946429Y-60854709D01*
X49041667Y-60807090D01*
X49089286Y-60759470D01*
X49136905Y-60664232D01*
X39040643Y-60410161D02*
X38707309Y-59933970D01*
X38469214Y-60410161D02*
X38469214Y-59410161D01*
X38850167Y-59410161D01*
X38945405Y-59457780D01*
X38993024Y-59505399D01*
X39040643Y-59600637D01*
X39040643Y-59743494D01*
X38993024Y-59838732D01*
X38945405Y-59886351D01*
X38850167Y-59933970D01*
X38469214Y-59933970D01*
X39993024Y-60410161D02*
X39421595Y-60410161D01*
X39707309Y-60410161D02*
X39707309Y-59410161D01*
X39612071Y-59553018D01*
X39516833Y-59648256D01*
X39421595Y-59695875D01*
X40945405Y-60410161D02*
X40373976Y-60410161D01*
X40659690Y-60410161D02*
X40659690Y-59410161D01*
X40564452Y-59553018D01*
X40469214Y-59648256D01*
X40373976Y-59695875D01*
X43041143Y-50345423D02*
X42993524Y-50393042D01*
X42850667Y-50440661D01*
X42755429Y-50440661D01*
X42612571Y-50393042D01*
X42517333Y-50297804D01*
X42469714Y-50202566D01*
X42422095Y-50012090D01*
X42422095Y-49869232D01*
X42469714Y-49678756D01*
X42517333Y-49583518D01*
X42612571Y-49488280D01*
X42755429Y-49440661D01*
X42850667Y-49440661D01*
X42993524Y-49488280D01*
X43041143Y-49535899D01*
X43374476Y-49440661D02*
X43993524Y-49440661D01*
X43660190Y-49821613D01*
X43803048Y-49821613D01*
X43898286Y-49869232D01*
X43945905Y-49916851D01*
X43993524Y-50012090D01*
X43993524Y-50250185D01*
X43945905Y-50345423D01*
X43898286Y-50393042D01*
X43803048Y-50440661D01*
X43517333Y-50440661D01*
X43422095Y-50393042D01*
X43374476Y-50345423D01*
X44564952Y-49869232D02*
X44469714Y-49821613D01*
X44422095Y-49773994D01*
X44374476Y-49678756D01*
X44374476Y-49631137D01*
X44422095Y-49535899D01*
X44469714Y-49488280D01*
X44564952Y-49440661D01*
X44755429Y-49440661D01*
X44850667Y-49488280D01*
X44898286Y-49535899D01*
X44945905Y-49631137D01*
X44945905Y-49678756D01*
X44898286Y-49773994D01*
X44850667Y-49821613D01*
X44755429Y-49869232D01*
X44564952Y-49869232D01*
X44469714Y-49916851D01*
X44422095Y-49964470D01*
X44374476Y-50059709D01*
X44374476Y-50250185D01*
X44422095Y-50345423D01*
X44469714Y-50393042D01*
X44564952Y-50440661D01*
X44755429Y-50440661D01*
X44850667Y-50393042D01*
X44898286Y-50345423D01*
X44945905Y-50250185D01*
X44945905Y-50059709D01*
X44898286Y-49964470D01*
X44850667Y-49916851D01*
X44755429Y-49869232D01*
X39231143Y-48726161D02*
X38897809Y-48249970D01*
X38659714Y-48726161D02*
X38659714Y-47726161D01*
X39040667Y-47726161D01*
X39135905Y-47773780D01*
X39183524Y-47821399D01*
X39231143Y-47916637D01*
X39231143Y-48059494D01*
X39183524Y-48154732D01*
X39135905Y-48202351D01*
X39040667Y-48249970D01*
X38659714Y-48249970D01*
X40183524Y-48726161D02*
X39612095Y-48726161D01*
X39897809Y-48726161D02*
X39897809Y-47726161D01*
X39802571Y-47869018D01*
X39707333Y-47964256D01*
X39612095Y-48011875D01*
X40564476Y-47821399D02*
X40612095Y-47773780D01*
X40707333Y-47726161D01*
X40945429Y-47726161D01*
X41040667Y-47773780D01*
X41088286Y-47821399D01*
X41135905Y-47916637D01*
X41135905Y-48011875D01*
X41088286Y-48154732D01*
X40516857Y-48726161D01*
X41135905Y-48726161D01*
X45768343Y-39099537D02*
X45815962Y-39147156D01*
X45863581Y-39290013D01*
X45863581Y-39385251D01*
X45815962Y-39528109D01*
X45720724Y-39623347D01*
X45625486Y-39670966D01*
X45435010Y-39718585D01*
X45292152Y-39718585D01*
X45101676Y-39670966D01*
X45006438Y-39623347D01*
X44911200Y-39528109D01*
X44863581Y-39385251D01*
X44863581Y-39290013D01*
X44911200Y-39147156D01*
X44958819Y-39099537D01*
X44863581Y-38766204D02*
X44863581Y-38147156D01*
X45244533Y-38480490D01*
X45244533Y-38337632D01*
X45292152Y-38242394D01*
X45339771Y-38194775D01*
X45435010Y-38147156D01*
X45673105Y-38147156D01*
X45768343Y-38194775D01*
X45815962Y-38242394D01*
X45863581Y-38337632D01*
X45863581Y-38623347D01*
X45815962Y-38718585D01*
X45768343Y-38766204D01*
X45863581Y-37670966D02*
X45863581Y-37480490D01*
X45815962Y-37385251D01*
X45768343Y-37337632D01*
X45625486Y-37242394D01*
X45435010Y-37194775D01*
X45054057Y-37194775D01*
X44958819Y-37242394D01*
X44911200Y-37290013D01*
X44863581Y-37385251D01*
X44863581Y-37575728D01*
X44911200Y-37670966D01*
X44958819Y-37718585D01*
X45054057Y-37766204D01*
X45292152Y-37766204D01*
X45387390Y-37718585D01*
X45435010Y-37670966D01*
X45482629Y-37575728D01*
X45482629Y-37385251D01*
X45435010Y-37290013D01*
X45387390Y-37242394D01*
X45292152Y-37194775D01*
%LPC*%
D17*
X4695000Y-72340280D03*
X7235000Y-72340280D03*
X9775000Y-72340280D03*
X12315000Y-72340280D03*
X27555000Y-72340280D03*
X25015000Y-72340280D03*
X22475000Y-72340280D03*
X19935000Y-72340280D03*
X17395000Y-72340280D03*
X14855000Y-72340280D03*
D18*
X5870000Y-67490280D03*
X9870000Y-67490280D03*
X7210000Y-67490280D03*
X8530000Y-67490280D03*
X7210000Y-64490280D03*
X5870000Y-64490280D03*
X9870000Y-64490280D03*
X8530000Y-64490280D03*
D19*
X25421400Y-31192280D03*
X29688600Y-33732280D03*
X29688600Y-31192280D03*
X25421400Y-33732280D03*
D20*
X22729000Y-31462280D03*
X22729000Y-33462280D03*
X32127000Y-33462280D03*
X32127000Y-31462280D03*
X33841500Y-41145780D03*
X33841500Y-39145780D03*
X36572000Y-41145780D03*
X36572000Y-39145780D03*
X15490000Y-45478000D03*
X15490000Y-47478000D03*
X28825000Y-59370280D03*
X28825000Y-57370280D03*
X52574000Y-44797280D03*
X52574000Y-46797280D03*
D21*
X49065500Y-19952780D03*
X47065500Y-19952780D03*
X43255500Y-60829000D03*
X45255500Y-60829000D03*
D20*
X4750000Y-30750000D03*
X4750000Y-28750000D03*
X33550000Y-20850000D03*
X33550000Y-22850000D03*
D22*
X55749000Y-91009280D03*
D23*
X55749000Y-93549280D03*
X53209000Y-91009280D03*
X53209000Y-93549280D03*
X50669000Y-91009280D03*
X50669000Y-93549280D03*
X48129000Y-91009280D03*
X48129000Y-93549280D03*
X45589000Y-91009280D03*
X45589000Y-93549280D03*
X43049000Y-91009280D03*
X43049000Y-93549280D03*
X40509000Y-91009280D03*
X40509000Y-93549280D03*
X37969000Y-91009280D03*
X37969000Y-93549280D03*
X35429000Y-91009280D03*
X35429000Y-93549280D03*
X32889000Y-91009280D03*
X32889000Y-93549280D03*
D24*
X39365000Y-63115000D03*
X39365000Y-64385000D03*
X39365000Y-65655000D03*
X39365000Y-66925000D03*
X39365000Y-68195000D03*
X39365000Y-69465000D03*
X39365000Y-70735000D03*
X39365000Y-72005000D03*
X39365000Y-73275000D03*
X39365000Y-74545000D03*
X39365000Y-75815000D03*
X39365000Y-77085000D03*
X48765000Y-77085000D03*
X48765000Y-75815000D03*
X48765000Y-74545000D03*
X48765000Y-73275000D03*
X48765000Y-72005000D03*
X48765000Y-70735000D03*
X48765000Y-69465000D03*
X48765000Y-68195000D03*
X48765000Y-66925000D03*
X48765000Y-65655000D03*
X48765000Y-64385000D03*
X48765000Y-63115000D03*
D25*
X73401000Y-46051280D03*
X73401000Y-47321280D03*
X73401000Y-48591280D03*
X73401000Y-49861280D03*
X73401000Y-51131280D03*
X73401000Y-52401280D03*
X73401000Y-53671280D03*
X73401000Y-54941280D03*
X73401000Y-56211280D03*
X73401000Y-57481280D03*
X82801000Y-57481280D03*
X82801000Y-56211280D03*
X82801000Y-54941280D03*
X82801000Y-53671280D03*
X82801000Y-52401280D03*
X82801000Y-51131280D03*
X82801000Y-49861280D03*
X82801000Y-48591280D03*
X82801000Y-47321280D03*
X82801000Y-46051280D03*
D26*
X22475000Y-20443000D03*
X22475000Y-22983000D03*
X22475000Y-25523000D03*
X30095000Y-25523000D03*
X30095000Y-22983000D03*
X30095000Y-20443000D03*
D27*
X38885000Y-19420280D03*
X38885000Y-20690280D03*
X38885000Y-21960280D03*
X38885000Y-23230280D03*
X38885000Y-24500280D03*
X38885000Y-25770280D03*
X38885000Y-27040280D03*
X44285000Y-27040280D03*
X44285000Y-25770280D03*
X44285000Y-24500280D03*
X44285000Y-23230280D03*
X44285000Y-21960280D03*
X44285000Y-20690280D03*
X44285000Y-19420280D03*
D28*
X26285000Y-78610280D03*
X26285000Y-81310280D03*
X20570000Y-67386000D03*
X20570000Y-64686000D03*
X28825000Y-78610280D03*
X28825000Y-81310280D03*
X31365000Y-81310280D03*
X31365000Y-78610280D03*
X52701000Y-62273000D03*
X52701000Y-64973000D03*
X22475000Y-12570280D03*
X22475000Y-15270280D03*
X35585000Y-26080280D03*
X35585000Y-23380280D03*
X60575000Y-15270280D03*
X60575000Y-12570280D03*
X63115000Y-15270280D03*
X63115000Y-12570280D03*
D10*
G36*
X49184543Y-14310585D02*
X48265305Y-15229823D01*
X47204645Y-14169163D01*
X48123883Y-13249925D01*
X49184543Y-14310585D01*
X49184543Y-14310585D01*
G37*
G36*
X47275355Y-12401397D02*
X46356117Y-13320635D01*
X45295457Y-12259975D01*
X46214695Y-11340737D01*
X47275355Y-12401397D01*
X47275355Y-12401397D01*
G37*
G36*
X52994543Y-14310585D02*
X52075305Y-15229823D01*
X51014645Y-14169163D01*
X51933883Y-13249925D01*
X52994543Y-14310585D01*
X52994543Y-14310585D01*
G37*
G36*
X51085355Y-12401397D02*
X50166117Y-13320635D01*
X49105457Y-12259975D01*
X50024695Y-11340737D01*
X51085355Y-12401397D01*
X51085355Y-12401397D01*
G37*
D28*
X42160000Y-14635280D03*
X42160000Y-11935280D03*
X37080000Y-14635280D03*
X37080000Y-11935280D03*
X33905000Y-14635280D03*
X33905000Y-11935280D03*
X28825000Y-14635280D03*
X28825000Y-11935280D03*
X48600000Y-46650000D03*
X48600000Y-49350000D03*
D29*
X34269500Y-56320500D03*
X36969500Y-56320500D03*
D28*
X85750000Y-62400000D03*
X85750000Y-65100000D03*
D29*
X65600000Y-62750000D03*
X62900000Y-62750000D03*
D28*
X82673000Y-68450280D03*
X82673000Y-71150280D03*
X57750000Y-71400000D03*
X57750000Y-74100000D03*
X52574000Y-48892280D03*
X52574000Y-51592280D03*
D30*
X69719000Y-48474780D03*
X69719000Y-51374780D03*
D29*
X18839000Y-50496280D03*
X21539000Y-50496280D03*
D31*
X21840000Y-58530280D03*
X23110000Y-58530280D03*
X24380000Y-58530280D03*
X25650000Y-58530280D03*
X25650000Y-53130280D03*
X24380000Y-53130280D03*
X23110000Y-53130280D03*
X21840000Y-53130280D03*
D10*
G36*
X30847695Y-65758043D02*
X29928457Y-64838805D01*
X30989117Y-63778145D01*
X31908355Y-64697383D01*
X30847695Y-65758043D01*
X30847695Y-65758043D01*
G37*
G36*
X32756883Y-63848855D02*
X31837645Y-62929617D01*
X32898305Y-61868957D01*
X33817543Y-62788195D01*
X32756883Y-63848855D01*
X32756883Y-63848855D01*
G37*
D32*
X57300000Y-65751140D03*
X59200000Y-65751140D03*
X58250000Y-62748860D03*
D33*
X56748860Y-83800000D03*
X56748860Y-85700000D03*
X59751140Y-84750000D03*
X69614860Y-62119280D03*
X69614860Y-64019280D03*
X72617140Y-63069280D03*
D34*
X45359000Y-17222280D03*
X48359000Y-17222280D03*
X30750000Y-97250000D03*
X27750000Y-97250000D03*
D35*
X31428500Y-17706280D03*
X31428500Y-14706280D03*
D34*
X73695500Y-11697780D03*
X70695500Y-11697780D03*
D21*
X13650000Y-31850000D03*
X15650000Y-31850000D03*
X91550000Y-20950000D03*
X89550000Y-20950000D03*
D20*
X7298500Y-78261780D03*
X7298500Y-80261780D03*
D21*
X5568000Y-62226000D03*
X3568000Y-62226000D03*
D35*
X3628200Y-77698280D03*
X3628200Y-80698280D03*
D34*
X6068000Y-59432000D03*
X3068000Y-59432000D03*
D21*
X11029000Y-41652000D03*
X9029000Y-41652000D03*
D20*
X32000000Y-51400000D03*
X32000000Y-49400000D03*
X18157000Y-45478000D03*
X18157000Y-47478000D03*
X35600000Y-45400000D03*
X35600000Y-47400000D03*
D21*
X30750000Y-37000000D03*
X32750000Y-37000000D03*
X10553000Y-33651000D03*
X12553000Y-33651000D03*
D36*
X5464000Y-25250280D03*
D37*
X7750000Y-18900280D03*
D36*
X10036000Y-25250280D03*
D38*
X29225500Y-39542280D03*
X28725500Y-39542280D03*
X28225500Y-39542280D03*
X27725500Y-39542280D03*
X27225500Y-39542280D03*
X26725500Y-39542280D03*
X26225500Y-39542280D03*
X25725500Y-39542280D03*
X25225500Y-39542280D03*
X24725500Y-39542280D03*
X24225500Y-39542280D03*
X23725500Y-39542280D03*
D39*
X22125500Y-41142280D03*
X22125500Y-41642280D03*
X22125500Y-42142280D03*
X22125500Y-42642280D03*
X22125500Y-43142280D03*
X22125500Y-43642280D03*
X22125500Y-44142280D03*
X22125500Y-44642280D03*
X22125500Y-45142280D03*
X22125500Y-45642280D03*
X22125500Y-46142280D03*
X22125500Y-46642280D03*
D38*
X23725500Y-48242280D03*
X24225500Y-48242280D03*
X24725500Y-48242280D03*
X25225500Y-48242280D03*
X25725500Y-48242280D03*
X26225500Y-48242280D03*
X26725500Y-48242280D03*
X27225500Y-48242280D03*
X27725500Y-48242280D03*
X28225500Y-48242280D03*
X28725500Y-48242280D03*
X29225500Y-48242280D03*
D39*
X30825500Y-46642280D03*
X30825500Y-46142280D03*
X30825500Y-45642280D03*
X30825500Y-45142280D03*
X30825500Y-44642280D03*
X30825500Y-44142280D03*
X30825500Y-43642280D03*
X30825500Y-43142280D03*
X30825500Y-42642280D03*
X30825500Y-42142280D03*
X30825500Y-41642280D03*
X30825500Y-41142280D03*
D35*
X2250000Y-28250000D03*
X2250000Y-31250000D03*
D40*
X14250000Y-24551140D03*
X14250000Y-20949420D03*
D21*
X24250000Y-36450000D03*
X22250000Y-36450000D03*
D28*
X18650000Y-34600000D03*
X18650000Y-31900000D03*
D20*
X37000000Y-35350000D03*
X37000000Y-37350000D03*
D41*
X41200000Y-44050000D03*
D42*
X41200000Y-42780000D03*
X41200000Y-41510000D03*
X41200000Y-40240000D03*
X41200000Y-38970000D03*
X39930000Y-42780000D03*
X39930000Y-41510000D03*
X39930000Y-40240000D03*
X39930000Y-38970000D03*
X39930000Y-44050000D03*
D18*
X64155000Y-82405280D03*
X64155000Y-86405280D03*
X64155000Y-83745280D03*
X64155000Y-85065280D03*
X67155000Y-83745280D03*
X67155000Y-82405280D03*
X67155000Y-86405280D03*
X67155000Y-85065280D03*
X75585000Y-82405280D03*
X75585000Y-86405280D03*
X75585000Y-83745280D03*
X75585000Y-85065280D03*
X78585000Y-83745280D03*
X78585000Y-82405280D03*
X78585000Y-86405280D03*
X78585000Y-85065280D03*
X66647000Y-71546280D03*
X66647000Y-67546280D03*
X66647000Y-70206280D03*
X66647000Y-68886280D03*
X63647000Y-70206280D03*
X63647000Y-71546280D03*
X63647000Y-67546280D03*
X63647000Y-68886280D03*
X77315000Y-71546280D03*
X77315000Y-67546280D03*
X77315000Y-70206280D03*
X77315000Y-68886280D03*
X74315000Y-70206280D03*
X74315000Y-71546280D03*
X74315000Y-67546280D03*
X74315000Y-68886280D03*
X10315000Y-81460280D03*
X14315000Y-81460280D03*
X11655000Y-81460280D03*
X12975000Y-81460280D03*
X11655000Y-78460280D03*
X10315000Y-78460280D03*
X14315000Y-78460280D03*
X12975000Y-78460280D03*
X17935000Y-81460280D03*
X21935000Y-81460280D03*
X19275000Y-81460280D03*
X20595000Y-81460280D03*
X19275000Y-78460280D03*
X17935000Y-78460280D03*
X21935000Y-78460280D03*
X20595000Y-78460280D03*
X13490000Y-67490280D03*
X17490000Y-67490280D03*
X14830000Y-67490280D03*
X16150000Y-67490280D03*
X14830000Y-64490280D03*
X13490000Y-64490280D03*
X17490000Y-64490280D03*
X16150000Y-64490280D03*
D17*
X19757200Y-6909880D03*
X17217200Y-6909880D03*
X14677200Y-6909880D03*
X12137200Y-6909880D03*
D43*
X24507000Y-16460280D03*
X26793000Y-16460280D03*
D17*
X42160000Y-6935280D03*
X39620000Y-6935280D03*
X37080000Y-6935280D03*
X33905000Y-6935280D03*
X31365000Y-6935280D03*
X28825000Y-6935280D03*
X4695000Y-86310280D03*
X7235000Y-86310280D03*
X9775000Y-86310280D03*
X12315000Y-86310280D03*
X27555000Y-86310280D03*
X25015000Y-86310280D03*
X22475000Y-86310280D03*
X19935000Y-86310280D03*
X17395000Y-86310280D03*
X14855000Y-86310280D03*
X25650000Y-6935280D03*
X23110000Y-6935280D03*
X62480000Y-77420280D03*
X65020000Y-77420280D03*
X67560000Y-77420280D03*
X70100000Y-77420280D03*
X85340000Y-77420280D03*
X82800000Y-77420280D03*
X80260000Y-77420280D03*
X77720000Y-77420280D03*
X75180000Y-77420280D03*
X72640000Y-77420280D03*
X68830000Y-16460280D03*
X71370000Y-16460280D03*
X73910000Y-16460280D03*
X76450000Y-16460280D03*
X91690000Y-16460280D03*
X89150000Y-16460280D03*
X86610000Y-16460280D03*
X84070000Y-16460280D03*
X81530000Y-16460280D03*
X78990000Y-16460280D03*
X62480000Y-91390280D03*
X65020000Y-91390280D03*
X67560000Y-91390280D03*
X70100000Y-91390280D03*
X85340000Y-91390280D03*
X82800000Y-91390280D03*
X80260000Y-91390280D03*
X77720000Y-91390280D03*
X75180000Y-91390280D03*
X72640000Y-91390280D03*
X68830000Y-25350280D03*
X71370000Y-25350280D03*
X73910000Y-25350280D03*
X76450000Y-25350280D03*
X91690000Y-25350280D03*
X89150000Y-25350280D03*
X86610000Y-25350280D03*
X84070000Y-25350280D03*
X81530000Y-25350280D03*
X78990000Y-25350280D03*
X58035000Y-6935280D03*
X55495000Y-6935280D03*
X52955000Y-6935280D03*
X50415000Y-6935280D03*
X47875000Y-6935280D03*
X45335000Y-6935280D03*
X73275000Y-6935280D03*
X70735000Y-6935280D03*
X68195000Y-6935280D03*
X65655000Y-6935280D03*
X63115000Y-6935280D03*
X60575000Y-6935280D03*
D20*
X69528500Y-45209780D03*
X69528500Y-43209780D03*
D44*
X25777000Y-37396280D03*
X25777000Y-38196280D03*
D20*
X18919000Y-56957280D03*
X18919000Y-54957280D03*
D45*
X9279000Y-39315000D03*
X9779000Y-39315000D03*
X10279000Y-39315000D03*
X10779000Y-39315000D03*
X10779000Y-36115000D03*
X10279000Y-36115000D03*
X9779000Y-36115000D03*
X9279000Y-36115000D03*
D25*
X56256000Y-46051280D03*
X56256000Y-47321280D03*
X56256000Y-48591280D03*
X56256000Y-49861280D03*
X56256000Y-51131280D03*
X56256000Y-52401280D03*
X56256000Y-53671280D03*
X56256000Y-54941280D03*
X56256000Y-56211280D03*
X56256000Y-57481280D03*
X65656000Y-57481280D03*
X65656000Y-56211280D03*
X65656000Y-54941280D03*
X65656000Y-53671280D03*
X65656000Y-52401280D03*
X65656000Y-51131280D03*
X65656000Y-49861280D03*
X65656000Y-48591280D03*
X65656000Y-47321280D03*
X65656000Y-46051280D03*
D28*
X17050000Y-26600000D03*
X17050000Y-29300000D03*
D21*
X14550000Y-11150000D03*
X16550000Y-11150000D03*
D34*
X13750000Y-13550000D03*
X16750000Y-13550000D03*
D20*
X11150000Y-10850000D03*
X11150000Y-12850000D03*
D28*
X47494000Y-54559000D03*
X47494000Y-51859000D03*
X49399000Y-54559000D03*
X49399000Y-51859000D03*
X41779000Y-54559000D03*
X41779000Y-51859000D03*
X43684000Y-54559000D03*
X43684000Y-51859000D03*
X45589000Y-54559000D03*
X45589000Y-51859000D03*
D34*
X46946500Y-58860500D03*
X49946500Y-58860500D03*
D29*
X41033500Y-58289000D03*
X38333500Y-58289000D03*
D21*
X42700000Y-48150000D03*
X44700000Y-48150000D03*
D29*
X41300000Y-46350000D03*
X38600000Y-46350000D03*
D20*
X43750000Y-41750000D03*
X43750000Y-39750000D03*
D46*
X93250000Y-93750280D03*
X6250000Y-6250280D03*
X93250000Y-6250280D03*
X6250000Y-93750280D03*
D47*
X37334000Y-33986280D03*
X46478000Y-21794280D03*
X36826000Y-21286280D03*
X35810000Y-61926280D03*
X42750000Y-79750000D03*
X38250000Y-79750000D03*
X38750000Y-84750000D03*
X45750000Y-85750000D03*
X49250000Y-85750000D03*
X49250000Y-80250000D03*
X45750000Y-75750000D03*
X42750000Y-75750000D03*
X42750000Y-73750000D03*
X45750000Y-73750000D03*
X45750000Y-71750000D03*
X42750000Y-71750000D03*
X42750000Y-69750000D03*
X45750000Y-69750000D03*
X45750000Y-67750000D03*
X42750000Y-67750000D03*
X26250000Y-97250000D03*
X57200000Y-87250000D03*
X69350000Y-12050000D03*
X88050000Y-21050000D03*
X43750000Y-38250000D03*
X4250000Y-32250000D03*
X2750000Y-32250000D03*
X46000000Y-48150000D03*
X34050000Y-37000000D03*
X37080000Y-45081000D03*
X36445000Y-42287000D03*
X1250000Y-32250000D03*
X51250000Y-40250000D03*
X49250000Y-40250000D03*
X49250000Y-41750000D03*
X51250000Y-41750000D03*
X50750000Y-44750000D03*
X49250000Y-43250000D03*
X51250000Y-43250000D03*
X55750000Y-44750000D03*
X55250000Y-43250000D03*
X53250000Y-43250000D03*
X84750000Y-59250000D03*
X82750000Y-59250000D03*
X80250000Y-59250000D03*
X78250000Y-59250000D03*
X76250000Y-59250000D03*
X74250000Y-59250000D03*
X72250000Y-59250000D03*
X70250000Y-59250000D03*
X68250000Y-59250000D03*
X66250000Y-59250000D03*
X64250000Y-59250000D03*
X62250000Y-59250000D03*
X60250000Y-59250000D03*
X58250000Y-59250000D03*
X56250000Y-59250000D03*
X54750000Y-58250000D03*
X57750000Y-75750000D03*
X59250000Y-68250000D03*
X60750000Y-62750000D03*
X89250000Y-72250000D03*
X87750000Y-72250000D03*
X86250000Y-72250000D03*
X88388000Y-63323280D03*
X88388000Y-62053280D03*
X88388000Y-60656280D03*
X88261000Y-50750280D03*
X88261000Y-48972280D03*
X88261000Y-47194280D03*
X88261000Y-45670280D03*
X89150000Y-30938280D03*
X87880000Y-30938280D03*
X87880000Y-29414280D03*
X89150000Y-29414280D03*
X84750000Y-72250000D03*
X32571500Y-56193500D03*
X51431000Y-58924000D03*
X49907000Y-60956000D03*
X46668500Y-66861500D03*
X43684000Y-63496000D03*
X37143500Y-63178500D03*
X41715500Y-60067000D03*
X38477000Y-61019500D03*
X70700000Y-65550000D03*
X30550000Y-51250000D03*
X29650000Y-86450000D03*
X31301500Y-83198780D03*
X20450000Y-43250000D03*
X22475000Y-67941000D03*
X19250000Y-41050000D03*
X28250000Y-67850000D03*
X8050000Y-40650000D03*
X13966000Y-33651000D03*
X7108000Y-61718000D03*
X7362000Y-59940000D03*
X5584000Y-77720000D03*
X18919000Y-58289000D03*
D48*
X20062000Y-45543280D03*
X18665000Y-30095000D03*
X42160000Y-27936000D03*
D47*
X33397000Y-24126000D03*
X31873000Y-24126000D03*
D48*
X67650000Y-31850000D03*
X67650000Y-33050000D03*
X25650000Y-41150000D03*
D47*
X18250000Y-10750000D03*
X18250000Y-12250000D03*
X18250000Y-13750000D03*
X19750000Y-13750000D03*
X19750000Y-12250000D03*
X19750000Y-10750000D03*
X10250000Y-14250000D03*
X8750000Y-14250000D03*
X7250000Y-14250000D03*
X5750000Y-14250000D03*
X12250000Y-17250000D03*
X12250000Y-18750000D03*
X16250000Y-20750000D03*
X12250000Y-20750000D03*
X31428500Y-13285280D03*
X27491500Y-76975780D03*
X37080000Y-27826780D03*
X50034000Y-18174780D03*
X49145000Y-21540280D03*
X73021000Y-44463780D03*
X82482500Y-44590780D03*
X82419000Y-43384280D03*
X84387500Y-42431780D03*
X85086000Y-43320780D03*
X85086000Y-44908280D03*
X85086000Y-46114780D03*
X84959000Y-47321280D03*
X66607500Y-44527280D03*
X65147000Y-44019280D03*
X66036000Y-42304780D03*
X71370000Y-44781280D03*
X71179500Y-43384280D03*
X26666000Y-56465280D03*
X27174000Y-57862280D03*
X71370000Y-46178280D03*
X67814000Y-47194280D03*
X67814000Y-46178280D03*
X29206000Y-43130280D03*
X33524000Y-42541000D03*
X80895000Y-83770280D03*
X85213000Y-33224280D03*
X80895000Y-85040280D03*
X82673000Y-31192280D03*
X80895000Y-86564280D03*
X79879000Y-29668280D03*
X77593000Y-33478280D03*
X68703000Y-82500280D03*
X75307000Y-32462280D03*
X68703000Y-83770280D03*
X78863000Y-70181280D03*
X59432000Y-35510280D03*
X78863000Y-71832280D03*
X57527000Y-34494280D03*
X78990000Y-67514280D03*
X67433000Y-36399280D03*
X78863000Y-68911280D03*
X65401000Y-36272280D03*
X68322000Y-68784280D03*
X61337000Y-38558280D03*
X68322000Y-67514280D03*
X63369000Y-39193280D03*
X68322000Y-71578280D03*
X53717000Y-34875280D03*
X68322000Y-70181280D03*
X55749000Y-38050280D03*
D48*
X34050000Y-33950000D03*
X34050000Y-31950000D03*
X30550000Y-35350000D03*
X28190000Y-35256280D03*
X28150000Y-35250000D03*
X21150000Y-30550000D03*
X21150000Y-32550000D03*
X21350000Y-34850000D03*
X22750000Y-29650000D03*
X27850000Y-38050000D03*
X25777000Y-35256280D03*
X25950000Y-37450000D03*
X26250000Y-29668280D03*
X29550000Y-29650000D03*
X32450000Y-29668280D03*
X33650000Y-30250000D03*
X33350000Y-35250000D03*
D47*
X69973000Y-30430280D03*
X68703000Y-86310280D03*
X72767000Y-31446280D03*
X68703000Y-85040280D03*
D49*
X17331500Y-60130500D03*
X32063500Y-60130500D03*
D48*
X31500000Y-40000000D03*
X30500000Y-39000000D03*
D49*
X5250000Y-50450000D03*
X11450000Y-50450000D03*
X68068000Y-41288780D03*
X46795500Y-41271000D03*
M02*
