G04 #@! TF.FileFunction,Legend,Bot*
%FSLAX46Y46*%
G04 Gerber Fmt 4.6, Leading zero omitted, Abs format (unit mm)*
G04 Created by KiCad (PCBNEW 4.0.6-e0-6349~52~ubuntu16.10.1) date Fri May 26 15:17:48 2017*
%MOMM*%
%LPD*%
G01*
G04 APERTURE LIST*
%ADD10C,0.150000*%
%ADD11C,0.120000*%
%ADD12C,0.125000*%
%ADD13C,1.300000*%
%ADD14C,4.000000*%
%ADD15C,2.000000*%
%ADD16R,1.250000X1.000000*%
%ADD17R,1.000000X1.250000*%
%ADD18R,2.500000X2.300000*%
%ADD19R,1.050000X1.050000*%
%ADD20C,1.050000*%
%ADD21C,6.000000*%
%ADD22R,1.300000X1.000000*%
%ADD23R,1.000000X1.300000*%
%ADD24R,0.420000X1.300000*%
%ADD25R,1.100000X0.250000*%
%ADD26C,0.900000*%
%ADD27C,2.600000*%
%ADD28R,2.500000X1.800000*%
%ADD29R,2.300000X2.500000*%
%ADD30R,0.900000X1.700000*%
%ADD31C,1.500000*%
%ADD32R,0.200000X0.600000*%
%ADD33R,0.430000X0.760000*%
%ADD34R,1.060000X0.650000*%
%ADD35R,0.800000X0.750000*%
%ADD36O,0.300000X0.750000*%
%ADD37O,0.750000X0.300000*%
%ADD38R,0.900000X0.900000*%
%ADD39R,1.400000X1.200000*%
%ADD40R,1.400000X1.000000*%
%ADD41R,0.250000X0.600000*%
%ADD42R,0.700000X0.600000*%
%ADD43C,0.889000*%
%ADD44C,0.600000*%
%ADD45C,0.254000*%
G04 APERTURE END LIST*
D10*
X2350000Y-27100000D02*
X2350000Y-28100000D01*
X650000Y-28100000D02*
X650000Y-27100000D01*
X8850000Y-24400000D02*
X8850000Y-23400000D01*
X10550000Y-23400000D02*
X10550000Y-24400000D01*
X39704594Y-15497487D02*
X38997487Y-16204594D01*
X37795406Y-15002513D02*
X38502513Y-14295406D01*
X34295406Y-18502513D02*
X35002513Y-17795406D01*
X36204594Y-18997487D02*
X35497487Y-19704594D01*
X4750000Y-18350000D02*
X5750000Y-18350000D01*
X5750000Y-20050000D02*
X4750000Y-20050000D01*
X25700000Y-7150000D02*
X24700000Y-7150000D01*
X24700000Y-5450000D02*
X25700000Y-5450000D01*
X37646566Y-19408856D02*
X37680691Y-19374731D01*
X40121454Y-17925388D02*
X39625744Y-17429678D01*
X39625744Y-17429678D02*
X39449731Y-17605691D01*
X37646566Y-19408856D02*
X37504678Y-19550744D01*
X37504678Y-19550744D02*
X38000388Y-20046454D01*
D11*
X6375000Y-28525000D02*
X5375000Y-28525000D01*
X5375000Y-26825000D02*
X6375000Y-26825000D01*
X21450000Y-5150000D02*
X21450000Y-850000D01*
X21450000Y-850000D02*
X27150000Y-850000D01*
X21450000Y-5150000D02*
X27150000Y-5150000D01*
D10*
X1275000Y-19075000D02*
X1275000Y-20275000D01*
X3025000Y-20275000D02*
X3025000Y-19075000D01*
X8475000Y-23500000D02*
X8475000Y-22300000D01*
X6725000Y-22300000D02*
X6725000Y-23500000D01*
X3650000Y-30625000D02*
X4850000Y-30625000D01*
X4850000Y-28875000D02*
X3650000Y-28875000D01*
X4150000Y-30825000D02*
X2950000Y-30825000D01*
X2950000Y-32575000D02*
X4150000Y-32575000D01*
X3125000Y-21575000D02*
X3375000Y-21575000D01*
X3125000Y-24975000D02*
X3375000Y-24975000D01*
X6275000Y-24975000D02*
X6025000Y-24975000D01*
X6275000Y-21625000D02*
X6025000Y-21625000D01*
X3125000Y-21625000D02*
X3125000Y-24975000D01*
X6275000Y-21625000D02*
X6275000Y-24975000D01*
X3375000Y-21525000D02*
X3375000Y-20975000D01*
X46888047Y-23146447D02*
X46852691Y-23181802D01*
X43953553Y-20211953D02*
X43851023Y-20314484D01*
X40311953Y-23853553D02*
X40414484Y-23751023D01*
X43246447Y-26788047D02*
X43348977Y-26685516D01*
X46888047Y-23146447D02*
X43953553Y-20211953D01*
X43246447Y-26788047D02*
X40311953Y-23853553D01*
X46852691Y-23181802D02*
X47842641Y-24171751D01*
X12375000Y-25375000D02*
X12375000Y-25200000D01*
X15625000Y-25375000D02*
X15625000Y-25100000D01*
X15625000Y-22125000D02*
X15625000Y-22400000D01*
X12375000Y-22125000D02*
X12375000Y-22400000D01*
X12375000Y-25375000D02*
X15625000Y-25375000D01*
X12375000Y-22125000D02*
X15625000Y-22125000D01*
X12375000Y-25200000D02*
X11300000Y-25200000D01*
D11*
X30200000Y-33500000D02*
X30200000Y-36800000D01*
X30200000Y-36800000D02*
X24800000Y-36800000D01*
X30200000Y-33500000D02*
X24800000Y-33500000D01*
X18950000Y-40950000D02*
X23250000Y-40950000D01*
X23250000Y-40950000D02*
X23250000Y-46650000D01*
X18950000Y-40950000D02*
X18950000Y-46650000D01*
X27250000Y-37380000D02*
X25250000Y-37380000D01*
X25250000Y-39520000D02*
X27250000Y-39520000D01*
D10*
X37650000Y-38450000D02*
X37650000Y-39450000D01*
X33850000Y-38450000D02*
X33850000Y-39450000D01*
D11*
X39000000Y-36650000D02*
X39000000Y-34450000D01*
X32400000Y-36650000D02*
X32400000Y-34450000D01*
X38900000Y-32860000D02*
X37100000Y-32860000D01*
X37100000Y-29640000D02*
X39550000Y-29640000D01*
X32600000Y-29640000D02*
X34400000Y-29640000D01*
X34400000Y-32860000D02*
X31950000Y-32860000D01*
X47676777Y-28071751D02*
X48171751Y-27576777D01*
X47323223Y-26728249D02*
X46828249Y-27223223D01*
X1975000Y-17825000D02*
X1975000Y-14525000D01*
X1975000Y-14525000D02*
X7375000Y-14525000D01*
X1975000Y-17825000D02*
X7375000Y-17825000D01*
X13100000Y-26890000D02*
X14900000Y-26890000D01*
X14900000Y-30110000D02*
X12450000Y-30110000D01*
X44900000Y-31350000D02*
X45600000Y-31350000D01*
X45600000Y-30150000D02*
X44900000Y-30150000D01*
X26476777Y-26121751D02*
X26971751Y-25626777D01*
X26123223Y-24778249D02*
X25628249Y-25273223D01*
D10*
X24375000Y-25375000D02*
X23875000Y-25375000D01*
X21125000Y-28625000D02*
X21625000Y-28625000D01*
X21125000Y-25375000D02*
X21625000Y-25375000D01*
X24375000Y-28625000D02*
X24375000Y-28125000D01*
X21125000Y-28625000D02*
X21125000Y-28125000D01*
X21125000Y-25375000D02*
X21125000Y-25875000D01*
X24375000Y-25375000D02*
X24375000Y-25875000D01*
D11*
X9800000Y-40200000D02*
X12200000Y-40200000D01*
X12200000Y-43300000D02*
X9250000Y-43300000D01*
X17950000Y-25750000D02*
X17250000Y-25750000D01*
X17250000Y-26950000D02*
X17950000Y-26950000D01*
X14950000Y-46400000D02*
X14950000Y-49700000D01*
X14950000Y-49700000D02*
X9550000Y-49700000D01*
X14950000Y-46400000D02*
X9550000Y-46400000D01*
X5950000Y-40600000D02*
X1650000Y-40600000D01*
X1650000Y-40600000D02*
X1650000Y-34900000D01*
X5950000Y-40600000D02*
X5950000Y-34900000D01*
X11800000Y-43680000D02*
X9800000Y-43680000D01*
X9800000Y-45820000D02*
X11800000Y-45820000D01*
X42719741Y-28412635D02*
X43186432Y-27945944D01*
X41545944Y-29586432D02*
X42012635Y-29119741D01*
X41545944Y-29586432D02*
X40110517Y-28151005D01*
X42189411Y-26948924D02*
X43186432Y-27945944D01*
D10*
X25300000Y-31150000D02*
X26300000Y-31150000D01*
X26300000Y-31150000D02*
X26300000Y-32950000D01*
X26300000Y-32950000D02*
X25300000Y-32950000D01*
X25300000Y-32950000D02*
X25300000Y-31150000D01*
X13950000Y-43450000D02*
X14950000Y-43450000D01*
X14950000Y-43450000D02*
X14950000Y-45250000D01*
X14950000Y-45250000D02*
X13950000Y-45250000D01*
X13950000Y-45250000D02*
X13950000Y-43450000D01*
X16925000Y-44700000D02*
X16925000Y-43700000D01*
X15575000Y-43700000D02*
X15575000Y-44700000D01*
X18525000Y-44700000D02*
X18525000Y-43700000D01*
X17175000Y-43700000D02*
X17175000Y-44700000D01*
X29750000Y-31775000D02*
X28750000Y-31775000D01*
X28750000Y-33125000D02*
X29750000Y-33125000D01*
X13500000Y-37825000D02*
X12500000Y-37825000D01*
X12500000Y-39175000D02*
X13500000Y-39175000D01*
X17250000Y-37825000D02*
X16250000Y-37825000D01*
X16250000Y-39175000D02*
X17250000Y-39175000D01*
X17350000Y-47325000D02*
X16350000Y-47325000D01*
X16350000Y-48675000D02*
X17350000Y-48675000D01*
X27525000Y-13250000D02*
X27525000Y-14250000D01*
X28875000Y-14250000D02*
X28875000Y-13250000D01*
X21725000Y-14750000D02*
X21725000Y-15750000D01*
X23075000Y-15750000D02*
X23075000Y-14750000D01*
X9675000Y-28150000D02*
X9675000Y-27150000D01*
X8325000Y-27150000D02*
X8325000Y-28150000D01*
D11*
X27850000Y-26550000D02*
X27850000Y-25550000D01*
X29550000Y-25550000D02*
X29550000Y-26550000D01*
D10*
X26625000Y-16700000D02*
X26625000Y-17700000D01*
X27975000Y-17700000D02*
X27975000Y-16700000D01*
D12*
X1678571Y-24678572D02*
X1702381Y-24654762D01*
X1726190Y-24583334D01*
X1726190Y-24535715D01*
X1702381Y-24464286D01*
X1654762Y-24416667D01*
X1607143Y-24392858D01*
X1511905Y-24369048D01*
X1440476Y-24369048D01*
X1345238Y-24392858D01*
X1297619Y-24416667D01*
X1250000Y-24464286D01*
X1226190Y-24535715D01*
X1226190Y-24583334D01*
X1250000Y-24654762D01*
X1273810Y-24678572D01*
X1726190Y-25154762D02*
X1726190Y-24869048D01*
X1726190Y-25011905D02*
X1226190Y-25011905D01*
X1297619Y-24964286D01*
X1345238Y-24916667D01*
X1369048Y-24869048D01*
X1226190Y-25321429D02*
X1226190Y-25654762D01*
X1726190Y-25440476D01*
X11178571Y-25678572D02*
X11202381Y-25654762D01*
X11226190Y-25583334D01*
X11226190Y-25535715D01*
X11202381Y-25464286D01*
X11154762Y-25416667D01*
X11107143Y-25392858D01*
X11011905Y-25369048D01*
X10940476Y-25369048D01*
X10845238Y-25392858D01*
X10797619Y-25416667D01*
X10750000Y-25464286D01*
X10726190Y-25535715D01*
X10726190Y-25583334D01*
X10750000Y-25654762D01*
X10773810Y-25678572D01*
X10773810Y-25869048D02*
X10750000Y-25892858D01*
X10726190Y-25940477D01*
X10726190Y-26059524D01*
X10750000Y-26107143D01*
X10773810Y-26130953D01*
X10821429Y-26154762D01*
X10869048Y-26154762D01*
X10940476Y-26130953D01*
X11226190Y-25845239D01*
X11226190Y-26154762D01*
X10726190Y-26321429D02*
X10726190Y-26630952D01*
X10916667Y-26464286D01*
X10916667Y-26535714D01*
X10940476Y-26583333D01*
X10964286Y-26607143D01*
X11011905Y-26630952D01*
X11130952Y-26630952D01*
X11178571Y-26607143D01*
X11202381Y-26583333D01*
X11226190Y-26535714D01*
X11226190Y-26392857D01*
X11202381Y-26345238D01*
X11178571Y-26321429D01*
D10*
X38707106Y-13047970D02*
X38774449Y-13047970D01*
X38909136Y-12980626D01*
X38976480Y-12913283D01*
X39043824Y-12778595D01*
X39043824Y-12643908D01*
X39010152Y-12542893D01*
X38909137Y-12374535D01*
X38808121Y-12273519D01*
X38639762Y-12172504D01*
X38538747Y-12138832D01*
X38404060Y-12138832D01*
X38269373Y-12206176D01*
X38202029Y-12273519D01*
X38134686Y-12408206D01*
X38134686Y-12475550D01*
X37865312Y-12744924D02*
X37797969Y-12744924D01*
X37696954Y-12778595D01*
X37528594Y-12946955D01*
X37494923Y-13047970D01*
X37494923Y-13115313D01*
X37528594Y-13216328D01*
X37595938Y-13283672D01*
X37730625Y-13351015D01*
X38538747Y-13351015D01*
X38101014Y-13788748D01*
X36754144Y-13721405D02*
X37090862Y-13384687D01*
X37461251Y-13687732D01*
X37393907Y-13687732D01*
X37292892Y-13721404D01*
X37124533Y-13889763D01*
X37090861Y-13990778D01*
X37090861Y-14058122D01*
X37124534Y-14159138D01*
X37292892Y-14327496D01*
X37393907Y-14361168D01*
X37461251Y-14361168D01*
X37562266Y-14327496D01*
X37730625Y-14159137D01*
X37764297Y-14058122D01*
X37764297Y-13990778D01*
X36707107Y-20297970D02*
X36774450Y-20297970D01*
X36909137Y-20230626D01*
X36976481Y-20163283D01*
X37043825Y-20028595D01*
X37043825Y-19893908D01*
X37010153Y-19792893D01*
X36909138Y-19624535D01*
X36808122Y-19523519D01*
X36639763Y-19422504D01*
X36538748Y-19388832D01*
X36404061Y-19388832D01*
X36269374Y-19456176D01*
X36202030Y-19523519D01*
X36134687Y-19658206D01*
X36134687Y-19725550D01*
X35865313Y-19994924D02*
X35797970Y-19994924D01*
X35696955Y-20028595D01*
X35528595Y-20196955D01*
X35494924Y-20297970D01*
X35494924Y-20365313D01*
X35528595Y-20466328D01*
X35595939Y-20533672D01*
X35730626Y-20601015D01*
X36538748Y-20601015D01*
X36101015Y-21038748D01*
X34787817Y-20937733D02*
X34922504Y-20803045D01*
X35023519Y-20769374D01*
X35090863Y-20769374D01*
X35259222Y-20803045D01*
X35427580Y-20904061D01*
X35696955Y-21173435D01*
X35730626Y-21274450D01*
X35730626Y-21341794D01*
X35696955Y-21442809D01*
X35562267Y-21577496D01*
X35461252Y-21611168D01*
X35393908Y-21611168D01*
X35292893Y-21577496D01*
X35124535Y-21409138D01*
X35090862Y-21308122D01*
X35090862Y-21240778D01*
X35124534Y-21139763D01*
X35259222Y-21005076D01*
X35360237Y-20971404D01*
X35427580Y-20971404D01*
X35528596Y-21005076D01*
X9142857Y-18857143D02*
X9190476Y-18904762D01*
X9333333Y-18952381D01*
X9428571Y-18952381D01*
X9571429Y-18904762D01*
X9666667Y-18809524D01*
X9714286Y-18714286D01*
X9761905Y-18523810D01*
X9761905Y-18380952D01*
X9714286Y-18190476D01*
X9666667Y-18095238D01*
X9571429Y-18000000D01*
X9428571Y-17952381D01*
X9333333Y-17952381D01*
X9190476Y-18000000D01*
X9142857Y-18047619D01*
X8190476Y-18952381D02*
X8761905Y-18952381D01*
X8476191Y-18952381D02*
X8476191Y-17952381D01*
X8571429Y-18095238D01*
X8666667Y-18190476D01*
X8761905Y-18238095D01*
X7571429Y-17952381D02*
X7476190Y-17952381D01*
X7380952Y-18000000D01*
X7333333Y-18047619D01*
X7285714Y-18142857D01*
X7238095Y-18333333D01*
X7238095Y-18571429D01*
X7285714Y-18761905D01*
X7333333Y-18857143D01*
X7380952Y-18904762D01*
X7476190Y-18952381D01*
X7571429Y-18952381D01*
X7666667Y-18904762D01*
X7714286Y-18857143D01*
X7761905Y-18761905D01*
X7809524Y-18571429D01*
X7809524Y-18333333D01*
X7761905Y-18142857D01*
X7714286Y-18047619D01*
X7666667Y-18000000D01*
X7571429Y-17952381D01*
X21142857Y-6607143D02*
X21190476Y-6654762D01*
X21333333Y-6702381D01*
X21428571Y-6702381D01*
X21571429Y-6654762D01*
X21666667Y-6559524D01*
X21714286Y-6464286D01*
X21761905Y-6273810D01*
X21761905Y-6130952D01*
X21714286Y-5940476D01*
X21666667Y-5845238D01*
X21571429Y-5750000D01*
X21428571Y-5702381D01*
X21333333Y-5702381D01*
X21190476Y-5750000D01*
X21142857Y-5797619D01*
X20190476Y-6702381D02*
X20761905Y-6702381D01*
X20476191Y-6702381D02*
X20476191Y-5702381D01*
X20571429Y-5845238D01*
X20666667Y-5940476D01*
X20761905Y-5988095D01*
X19333333Y-5702381D02*
X19523810Y-5702381D01*
X19619048Y-5750000D01*
X19666667Y-5797619D01*
X19761905Y-5940476D01*
X19809524Y-6130952D01*
X19809524Y-6511905D01*
X19761905Y-6607143D01*
X19714286Y-6654762D01*
X19619048Y-6702381D01*
X19428571Y-6702381D01*
X19333333Y-6654762D01*
X19285714Y-6607143D01*
X19238095Y-6511905D01*
X19238095Y-6273810D01*
X19285714Y-6178571D01*
X19333333Y-6130952D01*
X19428571Y-6083333D01*
X19619048Y-6083333D01*
X19714286Y-6130952D01*
X19761905Y-6178571D01*
X19809524Y-6273810D01*
X42341794Y-17547970D02*
X41634687Y-16840863D01*
X41466328Y-17009222D01*
X41398984Y-17143909D01*
X41398984Y-17278596D01*
X41432656Y-17379611D01*
X41533671Y-17547970D01*
X41634687Y-17648986D01*
X41803045Y-17750001D01*
X41904061Y-17783672D01*
X42038747Y-17783672D01*
X42173435Y-17716328D01*
X42341794Y-17547970D01*
X40994924Y-17480626D02*
X40557190Y-17918359D01*
X41062267Y-17952030D01*
X40961251Y-18053046D01*
X40927579Y-18154061D01*
X40927579Y-18221405D01*
X40961252Y-18322421D01*
X41129610Y-18490779D01*
X41230626Y-18524451D01*
X41297969Y-18524451D01*
X41398984Y-18490779D01*
X41601015Y-18288748D01*
X41634687Y-18187733D01*
X41634687Y-18120390D01*
D12*
X6321428Y-26428571D02*
X6345238Y-26452381D01*
X6416666Y-26476190D01*
X6464285Y-26476190D01*
X6535714Y-26452381D01*
X6583333Y-26404762D01*
X6607142Y-26357143D01*
X6630952Y-26261905D01*
X6630952Y-26190476D01*
X6607142Y-26095238D01*
X6583333Y-26047619D01*
X6535714Y-26000000D01*
X6464285Y-25976190D01*
X6416666Y-25976190D01*
X6345238Y-26000000D01*
X6321428Y-26023810D01*
X5892857Y-25976190D02*
X5988095Y-25976190D01*
X6035714Y-26000000D01*
X6059523Y-26023810D01*
X6107142Y-26095238D01*
X6130952Y-26190476D01*
X6130952Y-26380952D01*
X6107142Y-26428571D01*
X6083333Y-26452381D01*
X6035714Y-26476190D01*
X5940476Y-26476190D01*
X5892857Y-26452381D01*
X5869047Y-26428571D01*
X5845238Y-26380952D01*
X5845238Y-26261905D01*
X5869047Y-26214286D01*
X5892857Y-26190476D01*
X5940476Y-26166667D01*
X6035714Y-26166667D01*
X6083333Y-26190476D01*
X6107142Y-26214286D01*
X6130952Y-26261905D01*
X5416667Y-26142857D02*
X5416667Y-26476190D01*
X5535714Y-25952381D02*
X5654762Y-26309524D01*
X5345238Y-26309524D01*
D10*
X18988095Y-3452381D02*
X18988095Y-2452381D01*
X18750000Y-2452381D01*
X18607142Y-2500000D01*
X18511904Y-2595238D01*
X18464285Y-2690476D01*
X18416666Y-2880952D01*
X18416666Y-3023810D01*
X18464285Y-3214286D01*
X18511904Y-3309524D01*
X18607142Y-3404762D01*
X18750000Y-3452381D01*
X18988095Y-3452381D01*
X17464285Y-3452381D02*
X18035714Y-3452381D01*
X17750000Y-3452381D02*
X17750000Y-2452381D01*
X17845238Y-2595238D01*
X17940476Y-2690476D01*
X18035714Y-2738095D01*
D12*
X2321428Y-22226190D02*
X2488095Y-21988095D01*
X2607142Y-22226190D02*
X2607142Y-21726190D01*
X2416666Y-21726190D01*
X2369047Y-21750000D01*
X2345238Y-21773810D01*
X2321428Y-21821429D01*
X2321428Y-21892857D01*
X2345238Y-21940476D01*
X2369047Y-21964286D01*
X2416666Y-21988095D01*
X2607142Y-21988095D01*
X2130952Y-21773810D02*
X2107142Y-21750000D01*
X2059523Y-21726190D01*
X1940476Y-21726190D01*
X1892857Y-21750000D01*
X1869047Y-21773810D01*
X1845238Y-21821429D01*
X1845238Y-21869048D01*
X1869047Y-21940476D01*
X2154761Y-22226190D01*
X1845238Y-22226190D01*
X1654762Y-21773810D02*
X1630952Y-21750000D01*
X1583333Y-21726190D01*
X1464286Y-21726190D01*
X1416667Y-21750000D01*
X1392857Y-21773810D01*
X1369048Y-21821429D01*
X1369048Y-21869048D01*
X1392857Y-21940476D01*
X1678571Y-22226190D01*
X1369048Y-22226190D01*
D10*
X10452381Y-20107143D02*
X9976190Y-19773809D01*
X10452381Y-19535714D02*
X9452381Y-19535714D01*
X9452381Y-19916667D01*
X9500000Y-20011905D01*
X9547619Y-20059524D01*
X9642857Y-20107143D01*
X9785714Y-20107143D01*
X9880952Y-20059524D01*
X9928571Y-20011905D01*
X9976190Y-19916667D01*
X9976190Y-19535714D01*
X9547619Y-20488095D02*
X9500000Y-20535714D01*
X9452381Y-20630952D01*
X9452381Y-20869048D01*
X9500000Y-20964286D01*
X9547619Y-21011905D01*
X9642857Y-21059524D01*
X9738095Y-21059524D01*
X9880952Y-21011905D01*
X10452381Y-20440476D01*
X10452381Y-21059524D01*
X9452381Y-21392857D02*
X9452381Y-22011905D01*
X9833333Y-21678571D01*
X9833333Y-21821429D01*
X9880952Y-21916667D01*
X9928571Y-21964286D01*
X10023810Y-22011905D01*
X10261905Y-22011905D01*
X10357143Y-21964286D01*
X10404762Y-21916667D01*
X10452381Y-21821429D01*
X10452381Y-21535714D01*
X10404762Y-21440476D01*
X10357143Y-21392857D01*
D12*
X7571428Y-29476190D02*
X7738095Y-29238095D01*
X7857142Y-29476190D02*
X7857142Y-28976190D01*
X7666666Y-28976190D01*
X7619047Y-29000000D01*
X7595238Y-29023810D01*
X7571428Y-29071429D01*
X7571428Y-29142857D01*
X7595238Y-29190476D01*
X7619047Y-29214286D01*
X7666666Y-29238095D01*
X7857142Y-29238095D01*
X7380952Y-29023810D02*
X7357142Y-29000000D01*
X7309523Y-28976190D01*
X7190476Y-28976190D01*
X7142857Y-29000000D01*
X7119047Y-29023810D01*
X7095238Y-29071429D01*
X7095238Y-29119048D01*
X7119047Y-29190476D01*
X7404761Y-29476190D01*
X7095238Y-29476190D01*
X6809524Y-29190476D02*
X6857143Y-29166667D01*
X6880952Y-29142857D01*
X6904762Y-29095238D01*
X6904762Y-29071429D01*
X6880952Y-29023810D01*
X6857143Y-29000000D01*
X6809524Y-28976190D01*
X6714286Y-28976190D01*
X6666667Y-29000000D01*
X6642857Y-29023810D01*
X6619048Y-29071429D01*
X6619048Y-29095238D01*
X6642857Y-29142857D01*
X6666667Y-29166667D01*
X6714286Y-29190476D01*
X6809524Y-29190476D01*
X6857143Y-29214286D01*
X6880952Y-29238095D01*
X6904762Y-29285714D01*
X6904762Y-29380952D01*
X6880952Y-29428571D01*
X6857143Y-29452381D01*
X6809524Y-29476190D01*
X6714286Y-29476190D01*
X6666667Y-29452381D01*
X6642857Y-29428571D01*
X6619048Y-29380952D01*
X6619048Y-29285714D01*
X6642857Y-29238095D01*
X6666667Y-29214286D01*
X6714286Y-29190476D01*
X6571428Y-31726190D02*
X6738095Y-31488095D01*
X6857142Y-31726190D02*
X6857142Y-31226190D01*
X6666666Y-31226190D01*
X6619047Y-31250000D01*
X6595238Y-31273810D01*
X6571428Y-31321429D01*
X6571428Y-31392857D01*
X6595238Y-31440476D01*
X6619047Y-31464286D01*
X6666666Y-31488095D01*
X6857142Y-31488095D01*
X6404761Y-31226190D02*
X6095238Y-31226190D01*
X6261904Y-31416667D01*
X6190476Y-31416667D01*
X6142857Y-31440476D01*
X6119047Y-31464286D01*
X6095238Y-31511905D01*
X6095238Y-31630952D01*
X6119047Y-31678571D01*
X6142857Y-31702381D01*
X6190476Y-31726190D01*
X6333333Y-31726190D01*
X6380952Y-31702381D01*
X6404761Y-31678571D01*
X5642857Y-31226190D02*
X5880952Y-31226190D01*
X5904762Y-31464286D01*
X5880952Y-31440476D01*
X5833333Y-31416667D01*
X5714286Y-31416667D01*
X5666667Y-31440476D01*
X5642857Y-31464286D01*
X5619048Y-31511905D01*
X5619048Y-31630952D01*
X5642857Y-31678571D01*
X5666667Y-31702381D01*
X5714286Y-31726190D01*
X5833333Y-31726190D01*
X5880952Y-31702381D01*
X5904762Y-31678571D01*
X2880952Y-22976190D02*
X2880952Y-23380952D01*
X2857143Y-23428571D01*
X2833333Y-23452381D01*
X2785714Y-23476190D01*
X2690476Y-23476190D01*
X2642857Y-23452381D01*
X2619048Y-23428571D01*
X2595238Y-23380952D01*
X2595238Y-22976190D01*
X2142857Y-22976190D02*
X2238095Y-22976190D01*
X2285714Y-23000000D01*
X2309523Y-23023810D01*
X2357142Y-23095238D01*
X2380952Y-23190476D01*
X2380952Y-23380952D01*
X2357142Y-23428571D01*
X2333333Y-23452381D01*
X2285714Y-23476190D01*
X2190476Y-23476190D01*
X2142857Y-23452381D01*
X2119047Y-23428571D01*
X2095238Y-23380952D01*
X2095238Y-23261905D01*
X2119047Y-23214286D01*
X2142857Y-23190476D01*
X2190476Y-23166667D01*
X2285714Y-23166667D01*
X2333333Y-23190476D01*
X2357142Y-23214286D01*
X2380952Y-23261905D01*
D10*
X36512690Y-12738240D02*
X35940271Y-13310660D01*
X35839255Y-13344332D01*
X35771912Y-13344332D01*
X35670897Y-13310660D01*
X35536209Y-13175973D01*
X35502538Y-13074957D01*
X35502538Y-13007614D01*
X35536209Y-12906599D01*
X36108629Y-12334179D01*
X34694416Y-12334179D02*
X35098477Y-12738240D01*
X34896447Y-12536210D02*
X35603553Y-11829103D01*
X35569882Y-11997462D01*
X35569882Y-12132149D01*
X35603553Y-12233164D01*
X34559729Y-11256683D02*
X34088324Y-11728087D01*
X34997462Y-11155668D02*
X34660744Y-11829103D01*
X34223011Y-11391370D01*
X45512690Y-19738240D02*
X44940271Y-20310660D01*
X44839255Y-20344332D01*
X44771912Y-20344332D01*
X44670897Y-20310660D01*
X44536209Y-20175973D01*
X44502538Y-20074957D01*
X44502538Y-20007614D01*
X44536209Y-19906599D01*
X45108629Y-19334179D01*
X43694416Y-19334179D02*
X44098477Y-19738240D01*
X43896447Y-19536210D02*
X44603553Y-18829103D01*
X44569882Y-18997462D01*
X44569882Y-19132149D01*
X44603553Y-19233164D01*
X43694416Y-18526057D02*
X43795431Y-18559729D01*
X43862775Y-18559729D01*
X43963790Y-18526057D01*
X43997462Y-18492385D01*
X44031133Y-18391370D01*
X44031133Y-18324027D01*
X43997462Y-18223012D01*
X43862774Y-18088324D01*
X43761759Y-18054652D01*
X43694416Y-18054652D01*
X43593400Y-18088324D01*
X43559729Y-18121996D01*
X43526057Y-18223011D01*
X43526057Y-18290354D01*
X43559729Y-18391369D01*
X43694416Y-18526057D01*
X43728088Y-18627072D01*
X43728088Y-18694416D01*
X43694416Y-18795431D01*
X43559729Y-18930118D01*
X43458714Y-18963790D01*
X43391370Y-18963790D01*
X43290355Y-18930118D01*
X43155667Y-18795431D01*
X43121996Y-18694416D01*
X43121996Y-18627072D01*
X43155667Y-18526057D01*
X43290354Y-18391370D01*
X43391370Y-18357698D01*
X43458714Y-18357698D01*
X43559729Y-18391369D01*
X14761905Y-20702381D02*
X14761905Y-21511905D01*
X14714286Y-21607143D01*
X14666667Y-21654762D01*
X14571429Y-21702381D01*
X14380952Y-21702381D01*
X14285714Y-21654762D01*
X14238095Y-21607143D01*
X14190476Y-21511905D01*
X14190476Y-20702381D01*
X13809524Y-20702381D02*
X13190476Y-20702381D01*
X13523810Y-21083333D01*
X13380952Y-21083333D01*
X13285714Y-21130952D01*
X13238095Y-21178571D01*
X13190476Y-21273810D01*
X13190476Y-21511905D01*
X13238095Y-21607143D01*
X13285714Y-21654762D01*
X13380952Y-21702381D01*
X13666667Y-21702381D01*
X13761905Y-21654762D01*
X13809524Y-21607143D01*
X31988095Y-37202381D02*
X31988095Y-36202381D01*
X31750000Y-36202381D01*
X31607142Y-36250000D01*
X31511904Y-36345238D01*
X31464285Y-36440476D01*
X31416666Y-36630952D01*
X31416666Y-36773810D01*
X31464285Y-36964286D01*
X31511904Y-37059524D01*
X31607142Y-37154762D01*
X31750000Y-37202381D01*
X31988095Y-37202381D01*
X31035714Y-36297619D02*
X30988095Y-36250000D01*
X30892857Y-36202381D01*
X30654761Y-36202381D01*
X30559523Y-36250000D01*
X30511904Y-36297619D01*
X30464285Y-36392857D01*
X30464285Y-36488095D01*
X30511904Y-36630952D01*
X31083333Y-37202381D01*
X30464285Y-37202381D01*
X20488095Y-40702381D02*
X20488095Y-39702381D01*
X20250000Y-39702381D01*
X20107142Y-39750000D01*
X20011904Y-39845238D01*
X19964285Y-39940476D01*
X19916666Y-40130952D01*
X19916666Y-40273810D01*
X19964285Y-40464286D01*
X20011904Y-40559524D01*
X20107142Y-40654762D01*
X20250000Y-40702381D01*
X20488095Y-40702381D01*
X19059523Y-40035714D02*
X19059523Y-40702381D01*
X19297619Y-39654762D02*
X19535714Y-40369048D01*
X18916666Y-40369048D01*
X26583333Y-40428571D02*
X26916667Y-40428571D01*
X26916667Y-40952381D02*
X26916667Y-39952381D01*
X26440476Y-39952381D01*
X25535714Y-40952381D02*
X26107143Y-40952381D01*
X25821429Y-40952381D02*
X25821429Y-39952381D01*
X25916667Y-40095238D01*
X26011905Y-40190476D01*
X26107143Y-40238095D01*
X41261905Y-39452381D02*
X41261905Y-38452381D01*
X41023810Y-38452381D01*
X40880952Y-38500000D01*
X40785714Y-38595238D01*
X40738095Y-38690476D01*
X40690476Y-38880952D01*
X40690476Y-39023810D01*
X40738095Y-39214286D01*
X40785714Y-39309524D01*
X40880952Y-39404762D01*
X41023810Y-39452381D01*
X41261905Y-39452381D01*
X40261905Y-39452381D02*
X40261905Y-38452381D01*
X39690476Y-39452381D01*
X39690476Y-38452381D01*
X38690476Y-39452381D02*
X39261905Y-39452381D01*
X38976191Y-39452381D02*
X38976191Y-38452381D01*
X39071429Y-38595238D01*
X39166667Y-38690476D01*
X39261905Y-38738095D01*
X41440476Y-35952381D02*
X41773810Y-35476190D01*
X42011905Y-35952381D02*
X42011905Y-34952381D01*
X41630952Y-34952381D01*
X41535714Y-35000000D01*
X41488095Y-35047619D01*
X41440476Y-35142857D01*
X41440476Y-35285714D01*
X41488095Y-35380952D01*
X41535714Y-35428571D01*
X41630952Y-35476190D01*
X42011905Y-35476190D01*
X41011905Y-35952381D02*
X41011905Y-34952381D01*
X40440476Y-35952381D01*
X40440476Y-34952381D01*
X40011905Y-35047619D02*
X39964286Y-35000000D01*
X39869048Y-34952381D01*
X39630952Y-34952381D01*
X39535714Y-35000000D01*
X39488095Y-35047619D01*
X39440476Y-35142857D01*
X39440476Y-35238095D01*
X39488095Y-35380952D01*
X40059524Y-35952381D01*
X39440476Y-35952381D01*
X38761905Y-27802381D02*
X38761905Y-28611905D01*
X38714286Y-28707143D01*
X38666667Y-28754762D01*
X38571429Y-28802381D01*
X38380952Y-28802381D01*
X38285714Y-28754762D01*
X38238095Y-28707143D01*
X38190476Y-28611905D01*
X38190476Y-27802381D01*
X37238095Y-27802381D02*
X37714286Y-27802381D01*
X37761905Y-28278571D01*
X37714286Y-28230952D01*
X37619048Y-28183333D01*
X37380952Y-28183333D01*
X37285714Y-28230952D01*
X37238095Y-28278571D01*
X37190476Y-28373810D01*
X37190476Y-28611905D01*
X37238095Y-28707143D01*
X37285714Y-28754762D01*
X37380952Y-28802381D01*
X37619048Y-28802381D01*
X37714286Y-28754762D01*
X37761905Y-28707143D01*
X35011905Y-27952381D02*
X35011905Y-28761905D01*
X34964286Y-28857143D01*
X34916667Y-28904762D01*
X34821429Y-28952381D01*
X34630952Y-28952381D01*
X34535714Y-28904762D01*
X34488095Y-28857143D01*
X34440476Y-28761905D01*
X34440476Y-27952381D01*
X33535714Y-28285714D02*
X33535714Y-28952381D01*
X33773810Y-27904762D02*
X34011905Y-28619048D01*
X33392857Y-28619048D01*
X49267767Y-28258630D02*
X49335110Y-28258630D01*
X49469797Y-28191286D01*
X49537141Y-28123943D01*
X49604485Y-27989255D01*
X49604485Y-27854568D01*
X49570813Y-27753553D01*
X49469798Y-27585195D01*
X49368782Y-27484179D01*
X49200423Y-27383164D01*
X49099408Y-27349492D01*
X48964721Y-27349492D01*
X48830034Y-27416836D01*
X48762690Y-27484179D01*
X48695347Y-27618866D01*
X48695347Y-27686210D01*
X48998393Y-28662690D02*
X48863706Y-28797377D01*
X48762690Y-28831050D01*
X48695347Y-28831050D01*
X48526988Y-28797378D01*
X48358630Y-28696363D01*
X48089255Y-28426988D01*
X48055584Y-28325973D01*
X48055584Y-28258630D01*
X48089255Y-28157615D01*
X48223943Y-28022927D01*
X48324958Y-27989255D01*
X48392301Y-27989255D01*
X48493317Y-28022927D01*
X48661675Y-28191286D01*
X48695347Y-28292301D01*
X48695348Y-28359645D01*
X48661676Y-28460660D01*
X48526988Y-28595348D01*
X48425973Y-28629019D01*
X48358629Y-28629019D01*
X48257614Y-28595347D01*
X47988240Y-29672843D02*
X48392301Y-29268782D01*
X48190271Y-29470812D02*
X47483164Y-28763705D01*
X47651523Y-28797377D01*
X47786210Y-28797377D01*
X47887225Y-28763705D01*
X6238095Y-14202381D02*
X6238095Y-13202381D01*
X6000000Y-13202381D01*
X5857142Y-13250000D01*
X5761904Y-13345238D01*
X5714285Y-13440476D01*
X5666666Y-13630952D01*
X5666666Y-13773810D01*
X5714285Y-13964286D01*
X5761904Y-14059524D01*
X5857142Y-14154762D01*
X6000000Y-14202381D01*
X6238095Y-14202381D01*
X5095238Y-13630952D02*
X5190476Y-13583333D01*
X5238095Y-13535714D01*
X5285714Y-13440476D01*
X5285714Y-13392857D01*
X5238095Y-13297619D01*
X5190476Y-13250000D01*
X5095238Y-13202381D01*
X4904761Y-13202381D01*
X4809523Y-13250000D01*
X4761904Y-13297619D01*
X4714285Y-13392857D01*
X4714285Y-13440476D01*
X4761904Y-13535714D01*
X4809523Y-13583333D01*
X4904761Y-13630952D01*
X5095238Y-13630952D01*
X5190476Y-13678571D01*
X5238095Y-13726190D01*
X5285714Y-13821429D01*
X5285714Y-14011905D01*
X5238095Y-14107143D01*
X5190476Y-14154762D01*
X5095238Y-14202381D01*
X4904761Y-14202381D01*
X4809523Y-14154762D01*
X4761904Y-14107143D01*
X4714285Y-14011905D01*
X4714285Y-13821429D01*
X4761904Y-13726190D01*
X4809523Y-13678571D01*
X4904761Y-13630952D01*
X18261905Y-29202381D02*
X18261905Y-30011905D01*
X18214286Y-30107143D01*
X18166667Y-30154762D01*
X18071429Y-30202381D01*
X17880952Y-30202381D01*
X17785714Y-30154762D01*
X17738095Y-30107143D01*
X17690476Y-30011905D01*
X17690476Y-29202381D01*
X17309524Y-29202381D02*
X16642857Y-29202381D01*
X17071429Y-30202381D01*
X44166666Y-32607143D02*
X44214285Y-32654762D01*
X44357142Y-32702381D01*
X44452380Y-32702381D01*
X44595238Y-32654762D01*
X44690476Y-32559524D01*
X44738095Y-32464286D01*
X44785714Y-32273810D01*
X44785714Y-32130952D01*
X44738095Y-31940476D01*
X44690476Y-31845238D01*
X44595238Y-31750000D01*
X44452380Y-31702381D01*
X44357142Y-31702381D01*
X44214285Y-31750000D01*
X44166666Y-31797619D01*
X43833333Y-31702381D02*
X43214285Y-31702381D01*
X43547619Y-32083333D01*
X43404761Y-32083333D01*
X43309523Y-32130952D01*
X43261904Y-32178571D01*
X43214285Y-32273810D01*
X43214285Y-32511905D01*
X43261904Y-32607143D01*
X43309523Y-32654762D01*
X43404761Y-32702381D01*
X43690476Y-32702381D01*
X43785714Y-32654762D01*
X43833333Y-32607143D01*
X28620389Y-23884688D02*
X28687732Y-23884688D01*
X28822419Y-23817344D01*
X28889763Y-23750001D01*
X28957107Y-23615313D01*
X28957107Y-23480626D01*
X28923435Y-23379611D01*
X28822420Y-23211253D01*
X28721404Y-23110237D01*
X28553045Y-23009222D01*
X28452030Y-22975550D01*
X28317343Y-22975550D01*
X28182656Y-23042894D01*
X28115312Y-23110237D01*
X28047969Y-23244924D01*
X28047969Y-23312268D01*
X27610236Y-24086718D02*
X28081641Y-24558123D01*
X27509222Y-23648985D02*
X28182657Y-23985703D01*
X27744924Y-24423436D01*
X25702381Y-27488095D02*
X26511905Y-27488095D01*
X26607143Y-27535714D01*
X26654762Y-27583333D01*
X26702381Y-27678571D01*
X26702381Y-27869048D01*
X26654762Y-27964286D01*
X26607143Y-28011905D01*
X26511905Y-28059524D01*
X25702381Y-28059524D01*
X26702381Y-28583333D02*
X26702381Y-28773809D01*
X26654762Y-28869048D01*
X26607143Y-28916667D01*
X26464286Y-29011905D01*
X26273810Y-29059524D01*
X25892857Y-29059524D01*
X25797619Y-29011905D01*
X25750000Y-28964286D01*
X25702381Y-28869048D01*
X25702381Y-28678571D01*
X25750000Y-28583333D01*
X25797619Y-28535714D01*
X25892857Y-28488095D01*
X26130952Y-28488095D01*
X26226190Y-28535714D01*
X26273810Y-28583333D01*
X26321429Y-28678571D01*
X26321429Y-28869048D01*
X26273810Y-28964286D01*
X26226190Y-29011905D01*
X26130952Y-29059524D01*
D12*
X11619047Y-39226190D02*
X11619047Y-39630952D01*
X11595238Y-39678571D01*
X11571428Y-39702381D01*
X11523809Y-39726190D01*
X11428571Y-39726190D01*
X11380952Y-39702381D01*
X11357143Y-39678571D01*
X11333333Y-39630952D01*
X11333333Y-39226190D01*
X10833333Y-39726190D02*
X11119047Y-39726190D01*
X10976190Y-39726190D02*
X10976190Y-39226190D01*
X11023809Y-39297619D01*
X11071428Y-39345238D01*
X11119047Y-39369048D01*
X10523809Y-39226190D02*
X10476190Y-39226190D01*
X10428571Y-39250000D01*
X10404762Y-39273810D01*
X10380952Y-39321429D01*
X10357143Y-39416667D01*
X10357143Y-39535714D01*
X10380952Y-39630952D01*
X10404762Y-39678571D01*
X10428571Y-39702381D01*
X10476190Y-39726190D01*
X10523809Y-39726190D01*
X10571428Y-39702381D01*
X10595238Y-39678571D01*
X10619047Y-39630952D01*
X10642857Y-39535714D01*
X10642857Y-39416667D01*
X10619047Y-39321429D01*
X10595238Y-39273810D01*
X10571428Y-39250000D01*
X10523809Y-39226190D01*
D10*
X20119047Y-24107143D02*
X20166666Y-24154762D01*
X20309523Y-24202381D01*
X20404761Y-24202381D01*
X20547619Y-24154762D01*
X20642857Y-24059524D01*
X20690476Y-23964286D01*
X20738095Y-23773810D01*
X20738095Y-23630952D01*
X20690476Y-23440476D01*
X20642857Y-23345238D01*
X20547619Y-23250000D01*
X20404761Y-23202381D01*
X20309523Y-23202381D01*
X20166666Y-23250000D01*
X20119047Y-23297619D01*
X19738095Y-23297619D02*
X19690476Y-23250000D01*
X19595238Y-23202381D01*
X19357142Y-23202381D01*
X19261904Y-23250000D01*
X19214285Y-23297619D01*
X19166666Y-23392857D01*
X19166666Y-23488095D01*
X19214285Y-23630952D01*
X19785714Y-24202381D01*
X19166666Y-24202381D01*
X18547619Y-23202381D02*
X18452380Y-23202381D01*
X18357142Y-23250000D01*
X18309523Y-23297619D01*
X18261904Y-23392857D01*
X18214285Y-23583333D01*
X18214285Y-23821429D01*
X18261904Y-24011905D01*
X18309523Y-24107143D01*
X18357142Y-24154762D01*
X18452380Y-24202381D01*
X18547619Y-24202381D01*
X18642857Y-24154762D01*
X18690476Y-24107143D01*
X18738095Y-24011905D01*
X18785714Y-23821429D01*
X18785714Y-23583333D01*
X18738095Y-23392857D01*
X18690476Y-23297619D01*
X18642857Y-23250000D01*
X18547619Y-23202381D01*
X17261904Y-24202381D02*
X17833333Y-24202381D01*
X17547619Y-24202381D02*
X17547619Y-23202381D01*
X17642857Y-23345238D01*
X17738095Y-23440476D01*
X17833333Y-23488095D01*
D12*
X16119047Y-49476190D02*
X16119047Y-48976190D01*
X16000000Y-48976190D01*
X15928571Y-49000000D01*
X15880952Y-49047619D01*
X15857143Y-49095238D01*
X15833333Y-49190476D01*
X15833333Y-49261905D01*
X15857143Y-49357143D01*
X15880952Y-49404762D01*
X15928571Y-49452381D01*
X16000000Y-49476190D01*
X16119047Y-49476190D01*
X15380952Y-48976190D02*
X15619047Y-48976190D01*
X15642857Y-49214286D01*
X15619047Y-49190476D01*
X15571428Y-49166667D01*
X15452381Y-49166667D01*
X15404762Y-49190476D01*
X15380952Y-49214286D01*
X15357143Y-49261905D01*
X15357143Y-49380952D01*
X15380952Y-49428571D01*
X15404762Y-49452381D01*
X15452381Y-49476190D01*
X15571428Y-49476190D01*
X15619047Y-49452381D01*
X15642857Y-49428571D01*
D10*
X7988095Y-36452381D02*
X7988095Y-35452381D01*
X7750000Y-35452381D01*
X7607142Y-35500000D01*
X7511904Y-35595238D01*
X7464285Y-35690476D01*
X7416666Y-35880952D01*
X7416666Y-36023810D01*
X7464285Y-36214286D01*
X7511904Y-36309524D01*
X7607142Y-36404762D01*
X7750000Y-36452381D01*
X7988095Y-36452381D01*
X6559523Y-35452381D02*
X6750000Y-35452381D01*
X6845238Y-35500000D01*
X6892857Y-35547619D01*
X6988095Y-35690476D01*
X7035714Y-35880952D01*
X7035714Y-36261905D01*
X6988095Y-36357143D01*
X6940476Y-36404762D01*
X6845238Y-36452381D01*
X6654761Y-36452381D01*
X6559523Y-36404762D01*
X6511904Y-36357143D01*
X6464285Y-36261905D01*
X6464285Y-36023810D01*
X6511904Y-35928571D01*
X6559523Y-35880952D01*
X6654761Y-35833333D01*
X6845238Y-35833333D01*
X6940476Y-35880952D01*
X6988095Y-35928571D01*
X7035714Y-36023810D01*
D12*
X8166666Y-44464286D02*
X8333332Y-44464286D01*
X8333332Y-44726190D02*
X8333332Y-44226190D01*
X8095237Y-44226190D01*
X7928571Y-44273810D02*
X7904761Y-44250000D01*
X7857142Y-44226190D01*
X7738095Y-44226190D01*
X7690476Y-44250000D01*
X7666666Y-44273810D01*
X7642857Y-44321429D01*
X7642857Y-44369048D01*
X7666666Y-44440476D01*
X7952380Y-44726190D01*
X7642857Y-44726190D01*
D10*
X41180119Y-31204569D02*
X41281134Y-31238240D01*
X41415821Y-31238240D01*
X41617852Y-31238240D01*
X41718868Y-31271913D01*
X41786211Y-31339256D01*
X41584181Y-31473943D02*
X41685196Y-31507615D01*
X41819883Y-31507615D01*
X41988241Y-31406600D01*
X42223944Y-31170897D01*
X42324959Y-31002538D01*
X42324959Y-30867851D01*
X42291287Y-30766836D01*
X42156600Y-30632149D01*
X42055585Y-30598477D01*
X41920898Y-30598477D01*
X41752539Y-30699492D01*
X41516837Y-30935195D01*
X41415821Y-31103553D01*
X41415821Y-31238240D01*
X41449493Y-31339255D01*
X41584181Y-31473943D01*
X40607699Y-30497462D02*
X41011761Y-30901523D01*
X40809730Y-30699493D02*
X41516837Y-29992386D01*
X41483165Y-30160745D01*
X41483165Y-30295431D01*
X41516837Y-30396447D01*
X25595238Y-30797619D02*
X25690476Y-30750000D01*
X25785714Y-30654762D01*
X25928571Y-30511905D01*
X26023810Y-30464286D01*
X26119048Y-30464286D01*
X26071429Y-30702381D02*
X26166667Y-30654762D01*
X26261905Y-30559524D01*
X26309524Y-30369048D01*
X26309524Y-30035714D01*
X26261905Y-29845238D01*
X26166667Y-29750000D01*
X26071429Y-29702381D01*
X25880952Y-29702381D01*
X25785714Y-29750000D01*
X25690476Y-29845238D01*
X25642857Y-30035714D01*
X25642857Y-30369048D01*
X25690476Y-30559524D01*
X25785714Y-30654762D01*
X25880952Y-30702381D01*
X26071429Y-30702381D01*
X25261905Y-29797619D02*
X25214286Y-29750000D01*
X25119048Y-29702381D01*
X24880952Y-29702381D01*
X24785714Y-29750000D01*
X24738095Y-29797619D01*
X24690476Y-29892857D01*
X24690476Y-29988095D01*
X24738095Y-30130952D01*
X25309524Y-30702381D01*
X24690476Y-30702381D01*
D12*
X14797619Y-42773810D02*
X14845238Y-42750000D01*
X14892857Y-42702381D01*
X14964286Y-42630952D01*
X15011905Y-42607143D01*
X15059524Y-42607143D01*
X15035714Y-42726190D02*
X15083333Y-42702381D01*
X15130952Y-42654762D01*
X15154762Y-42559524D01*
X15154762Y-42392857D01*
X15130952Y-42297619D01*
X15083333Y-42250000D01*
X15035714Y-42226190D01*
X14940476Y-42226190D01*
X14892857Y-42250000D01*
X14845238Y-42297619D01*
X14821429Y-42392857D01*
X14821429Y-42559524D01*
X14845238Y-42654762D01*
X14892857Y-42702381D01*
X14940476Y-42726190D01*
X15035714Y-42726190D01*
X14392857Y-42392857D02*
X14392857Y-42726190D01*
X14511904Y-42202381D02*
X14630952Y-42559524D01*
X14321428Y-42559524D01*
D10*
X16702381Y-41083334D02*
X16226190Y-40750000D01*
X16702381Y-40511905D02*
X15702381Y-40511905D01*
X15702381Y-40892858D01*
X15750000Y-40988096D01*
X15797619Y-41035715D01*
X15892857Y-41083334D01*
X16035714Y-41083334D01*
X16130952Y-41035715D01*
X16178571Y-40988096D01*
X16226190Y-40892858D01*
X16226190Y-40511905D01*
X16702381Y-42035715D02*
X16702381Y-41464286D01*
X16702381Y-41750000D02*
X15702381Y-41750000D01*
X15845238Y-41654762D01*
X15940476Y-41559524D01*
X15988095Y-41464286D01*
X18452381Y-41083334D02*
X17976190Y-40750000D01*
X18452381Y-40511905D02*
X17452381Y-40511905D01*
X17452381Y-40892858D01*
X17500000Y-40988096D01*
X17547619Y-41035715D01*
X17642857Y-41083334D01*
X17785714Y-41083334D01*
X17880952Y-41035715D01*
X17928571Y-40988096D01*
X17976190Y-40892858D01*
X17976190Y-40511905D01*
X17547619Y-41464286D02*
X17500000Y-41511905D01*
X17452381Y-41607143D01*
X17452381Y-41845239D01*
X17500000Y-41940477D01*
X17547619Y-41988096D01*
X17642857Y-42035715D01*
X17738095Y-42035715D01*
X17880952Y-41988096D01*
X18452381Y-41416667D01*
X18452381Y-42035715D01*
X30416666Y-30452381D02*
X30750000Y-29976190D01*
X30988095Y-30452381D02*
X30988095Y-29452381D01*
X30607142Y-29452381D01*
X30511904Y-29500000D01*
X30464285Y-29547619D01*
X30416666Y-29642857D01*
X30416666Y-29785714D01*
X30464285Y-29880952D01*
X30511904Y-29928571D01*
X30607142Y-29976190D01*
X30988095Y-29976190D01*
X30083333Y-29452381D02*
X29464285Y-29452381D01*
X29797619Y-29833333D01*
X29654761Y-29833333D01*
X29559523Y-29880952D01*
X29511904Y-29928571D01*
X29464285Y-30023810D01*
X29464285Y-30261905D01*
X29511904Y-30357143D01*
X29559523Y-30404762D01*
X29654761Y-30452381D01*
X29940476Y-30452381D01*
X30035714Y-30404762D01*
X30083333Y-30357143D01*
D12*
X13071428Y-37476190D02*
X13238095Y-37238095D01*
X13357142Y-37476190D02*
X13357142Y-36976190D01*
X13166666Y-36976190D01*
X13119047Y-37000000D01*
X13095238Y-37023810D01*
X13071428Y-37071429D01*
X13071428Y-37142857D01*
X13095238Y-37190476D01*
X13119047Y-37214286D01*
X13166666Y-37238095D01*
X13357142Y-37238095D01*
X12595238Y-37476190D02*
X12880952Y-37476190D01*
X12738095Y-37476190D02*
X12738095Y-36976190D01*
X12785714Y-37047619D01*
X12833333Y-37095238D01*
X12880952Y-37119048D01*
X12285714Y-36976190D02*
X12238095Y-36976190D01*
X12190476Y-37000000D01*
X12166667Y-37023810D01*
X12142857Y-37071429D01*
X12119048Y-37166667D01*
X12119048Y-37285714D01*
X12142857Y-37380952D01*
X12166667Y-37428571D01*
X12190476Y-37452381D01*
X12238095Y-37476190D01*
X12285714Y-37476190D01*
X12333333Y-37452381D01*
X12357143Y-37428571D01*
X12380952Y-37380952D01*
X12404762Y-37285714D01*
X12404762Y-37166667D01*
X12380952Y-37071429D01*
X12357143Y-37023810D01*
X12333333Y-37000000D01*
X12285714Y-36976190D01*
X17071428Y-37476190D02*
X17238095Y-37238095D01*
X17357142Y-37476190D02*
X17357142Y-36976190D01*
X17166666Y-36976190D01*
X17119047Y-37000000D01*
X17095238Y-37023810D01*
X17071428Y-37071429D01*
X17071428Y-37142857D01*
X17095238Y-37190476D01*
X17119047Y-37214286D01*
X17166666Y-37238095D01*
X17357142Y-37238095D01*
X16595238Y-37476190D02*
X16880952Y-37476190D01*
X16738095Y-37476190D02*
X16738095Y-36976190D01*
X16785714Y-37047619D01*
X16833333Y-37095238D01*
X16880952Y-37119048D01*
X16119048Y-37476190D02*
X16404762Y-37476190D01*
X16261905Y-37476190D02*
X16261905Y-36976190D01*
X16309524Y-37047619D01*
X16357143Y-37095238D01*
X16404762Y-37119048D01*
X17071428Y-46976190D02*
X17238095Y-46738095D01*
X17357142Y-46976190D02*
X17357142Y-46476190D01*
X17166666Y-46476190D01*
X17119047Y-46500000D01*
X17095238Y-46523810D01*
X17071428Y-46571429D01*
X17071428Y-46642857D01*
X17095238Y-46690476D01*
X17119047Y-46714286D01*
X17166666Y-46738095D01*
X17357142Y-46738095D01*
X16595238Y-46976190D02*
X16880952Y-46976190D01*
X16738095Y-46976190D02*
X16738095Y-46476190D01*
X16785714Y-46547619D01*
X16833333Y-46595238D01*
X16880952Y-46619048D01*
X16404762Y-46523810D02*
X16380952Y-46500000D01*
X16333333Y-46476190D01*
X16214286Y-46476190D01*
X16166667Y-46500000D01*
X16142857Y-46523810D01*
X16119048Y-46571429D01*
X16119048Y-46619048D01*
X16142857Y-46690476D01*
X16428571Y-46976190D01*
X16119048Y-46976190D01*
D10*
X28642857Y-11702381D02*
X28976191Y-11226190D01*
X29214286Y-11702381D02*
X29214286Y-10702381D01*
X28833333Y-10702381D01*
X28738095Y-10750000D01*
X28690476Y-10797619D01*
X28642857Y-10892857D01*
X28642857Y-11035714D01*
X28690476Y-11130952D01*
X28738095Y-11178571D01*
X28833333Y-11226190D01*
X29214286Y-11226190D01*
X28261905Y-10797619D02*
X28214286Y-10750000D01*
X28119048Y-10702381D01*
X27880952Y-10702381D01*
X27785714Y-10750000D01*
X27738095Y-10797619D01*
X27690476Y-10892857D01*
X27690476Y-10988095D01*
X27738095Y-11130952D01*
X28309524Y-11702381D01*
X27690476Y-11702381D01*
X26833333Y-11035714D02*
X26833333Y-11702381D01*
X27071429Y-10654762D02*
X27309524Y-11369048D01*
X26690476Y-11369048D01*
X22892857Y-12952381D02*
X23226191Y-12476190D01*
X23464286Y-12952381D02*
X23464286Y-11952381D01*
X23083333Y-11952381D01*
X22988095Y-12000000D01*
X22940476Y-12047619D01*
X22892857Y-12142857D01*
X22892857Y-12285714D01*
X22940476Y-12380952D01*
X22988095Y-12428571D01*
X23083333Y-12476190D01*
X23464286Y-12476190D01*
X22511905Y-12047619D02*
X22464286Y-12000000D01*
X22369048Y-11952381D01*
X22130952Y-11952381D01*
X22035714Y-12000000D01*
X21988095Y-12047619D01*
X21940476Y-12142857D01*
X21940476Y-12238095D01*
X21988095Y-12380952D01*
X22559524Y-12952381D01*
X21940476Y-12952381D01*
X21035714Y-11952381D02*
X21511905Y-11952381D01*
X21559524Y-12428571D01*
X21511905Y-12380952D01*
X21416667Y-12333333D01*
X21178571Y-12333333D01*
X21083333Y-12380952D01*
X21035714Y-12428571D01*
X20988095Y-12523810D01*
X20988095Y-12761905D01*
X21035714Y-12857143D01*
X21083333Y-12904762D01*
X21178571Y-12952381D01*
X21416667Y-12952381D01*
X21511905Y-12904762D01*
X21559524Y-12857143D01*
D12*
X10476190Y-26940477D02*
X10238095Y-26773810D01*
X10476190Y-26654763D02*
X9976190Y-26654763D01*
X9976190Y-26845239D01*
X10000000Y-26892858D01*
X10023810Y-26916667D01*
X10071429Y-26940477D01*
X10142857Y-26940477D01*
X10190476Y-26916667D01*
X10214286Y-26892858D01*
X10238095Y-26845239D01*
X10238095Y-26654763D01*
X10023810Y-27130953D02*
X10000000Y-27154763D01*
X9976190Y-27202382D01*
X9976190Y-27321429D01*
X10000000Y-27369048D01*
X10023810Y-27392858D01*
X10071429Y-27416667D01*
X10119048Y-27416667D01*
X10190476Y-27392858D01*
X10476190Y-27107144D01*
X10476190Y-27416667D01*
X9976190Y-27726191D02*
X9976190Y-27773810D01*
X10000000Y-27821429D01*
X10023810Y-27845238D01*
X10071429Y-27869048D01*
X10166667Y-27892857D01*
X10285714Y-27892857D01*
X10380952Y-27869048D01*
X10428571Y-27845238D01*
X10452381Y-27821429D01*
X10476190Y-27773810D01*
X10476190Y-27726191D01*
X10452381Y-27678572D01*
X10428571Y-27654762D01*
X10380952Y-27630953D01*
X10285714Y-27607143D01*
X10166667Y-27607143D01*
X10071429Y-27630953D01*
X10023810Y-27654762D01*
X10000000Y-27678572D01*
X9976190Y-27726191D01*
X10023810Y-28083333D02*
X10000000Y-28107143D01*
X9976190Y-28154762D01*
X9976190Y-28273809D01*
X10000000Y-28321428D01*
X10023810Y-28345238D01*
X10071429Y-28369047D01*
X10119048Y-28369047D01*
X10190476Y-28345238D01*
X10476190Y-28059524D01*
X10476190Y-28369047D01*
D10*
X30607143Y-24833334D02*
X30654762Y-24785715D01*
X30702381Y-24642858D01*
X30702381Y-24547620D01*
X30654762Y-24404762D01*
X30559524Y-24309524D01*
X30464286Y-24261905D01*
X30273810Y-24214286D01*
X30130952Y-24214286D01*
X29940476Y-24261905D01*
X29845238Y-24309524D01*
X29750000Y-24404762D01*
X29702381Y-24547620D01*
X29702381Y-24642858D01*
X29750000Y-24785715D01*
X29797619Y-24833334D01*
X29702381Y-25738096D02*
X29702381Y-25261905D01*
X30178571Y-25214286D01*
X30130952Y-25261905D01*
X30083333Y-25357143D01*
X30083333Y-25595239D01*
X30130952Y-25690477D01*
X30178571Y-25738096D01*
X30273810Y-25785715D01*
X30511905Y-25785715D01*
X30607143Y-25738096D01*
X30654762Y-25690477D01*
X30702381Y-25595239D01*
X30702381Y-25357143D01*
X30654762Y-25261905D01*
X30607143Y-25214286D01*
X26202381Y-18107143D02*
X25726190Y-17773809D01*
X26202381Y-17535714D02*
X25202381Y-17535714D01*
X25202381Y-17916667D01*
X25250000Y-18011905D01*
X25297619Y-18059524D01*
X25392857Y-18107143D01*
X25535714Y-18107143D01*
X25630952Y-18059524D01*
X25678571Y-18011905D01*
X25726190Y-17916667D01*
X25726190Y-17535714D01*
X26202381Y-19059524D02*
X26202381Y-18488095D01*
X26202381Y-18773809D02*
X25202381Y-18773809D01*
X25345238Y-18678571D01*
X25440476Y-18583333D01*
X25488095Y-18488095D01*
X25202381Y-19392857D02*
X25202381Y-20011905D01*
X25583333Y-19678571D01*
X25583333Y-19821429D01*
X25630952Y-19916667D01*
X25678571Y-19964286D01*
X25773810Y-20011905D01*
X26011905Y-20011905D01*
X26107143Y-19964286D01*
X26154762Y-19916667D01*
X26202381Y-19821429D01*
X26202381Y-19535714D01*
X26154762Y-19440476D01*
X26107143Y-19392857D01*
%LPC*%
D13*
X29325000Y-8140000D03*
X35415000Y-8140000D03*
X31355000Y-8140000D03*
X33385000Y-8140000D03*
X30345000Y-9920000D03*
X32375000Y-9920000D03*
X34405000Y-9920000D03*
X36435000Y-9920000D03*
D14*
X10775000Y-5600000D03*
D15*
X41000000Y-9030000D03*
D13*
X20685000Y-9920000D03*
X18655000Y-9920000D03*
X16625000Y-9920000D03*
X14595000Y-9920000D03*
X17635000Y-8140000D03*
X15605000Y-8140000D03*
X19665000Y-8140000D03*
X13575000Y-8140000D03*
D14*
X39225000Y-5600000D03*
D15*
X9000000Y-9030000D03*
D16*
X1500000Y-28600000D03*
X1500000Y-26600000D03*
X9700000Y-22900000D03*
X9700000Y-24900000D03*
D10*
G36*
X38131281Y-16752602D02*
X37247398Y-15868719D01*
X37954505Y-15161612D01*
X38838388Y-16045495D01*
X38131281Y-16752602D01*
X38131281Y-16752602D01*
G37*
G36*
X39545495Y-15338388D02*
X38661612Y-14454505D01*
X39368719Y-13747398D01*
X40252602Y-14631281D01*
X39545495Y-15338388D01*
X39545495Y-15338388D01*
G37*
G36*
X35868719Y-17247398D02*
X36752602Y-18131281D01*
X36045495Y-18838388D01*
X35161612Y-17954505D01*
X35868719Y-17247398D01*
X35868719Y-17247398D01*
G37*
G36*
X34454505Y-18661612D02*
X35338388Y-19545495D01*
X34631281Y-20252602D01*
X33747398Y-19368719D01*
X34454505Y-18661612D01*
X34454505Y-18661612D01*
G37*
D17*
X6250000Y-19200000D03*
X4250000Y-19200000D03*
X24200000Y-6300000D03*
X26200000Y-6300000D03*
D10*
G36*
X40404396Y-18420137D02*
X40970152Y-18985893D01*
X40404396Y-19551649D01*
X39838640Y-18985893D01*
X40404396Y-18420137D01*
X40404396Y-18420137D01*
G37*
G36*
X39060893Y-19763640D02*
X39626649Y-20329396D01*
X39060893Y-20895152D01*
X38495137Y-20329396D01*
X39060893Y-19763640D01*
X39060893Y-19763640D01*
G37*
G36*
X38319152Y-17678396D02*
X38884908Y-18244152D01*
X38319152Y-18809908D01*
X37753396Y-18244152D01*
X38319152Y-17678396D01*
X38319152Y-17678396D01*
G37*
D17*
X4875000Y-27675000D03*
X6875000Y-27675000D03*
D18*
X22850000Y-3000000D03*
X27150000Y-3000000D03*
D19*
X48000000Y-14000000D03*
D20*
X46730000Y-14000000D03*
X45460000Y-14000000D03*
X44190000Y-14000000D03*
X42920000Y-14000000D03*
X46730000Y-15270000D03*
X45460000Y-15270000D03*
X44190000Y-15270000D03*
X42920000Y-15270000D03*
X48000000Y-15270000D03*
D21*
X46000000Y-4000000D03*
X46000000Y-36000000D03*
X4000000Y-4000000D03*
X4000000Y-46000000D03*
D22*
X2150000Y-20725000D03*
X2150000Y-18625000D03*
X7600000Y-21850000D03*
X7600000Y-23950000D03*
D23*
X5300000Y-29750000D03*
X3200000Y-29750000D03*
X2500000Y-31700000D03*
X4600000Y-31700000D03*
D24*
X3725000Y-22125000D03*
X4375000Y-22125000D03*
X5025000Y-22125000D03*
X5675000Y-22125000D03*
X5675000Y-24475000D03*
X5025000Y-24475000D03*
X4375000Y-24475000D03*
X3725000Y-24475000D03*
D10*
G36*
X35207107Y-14924264D02*
X35772792Y-14358579D01*
X36762741Y-15348528D01*
X36197056Y-15914213D01*
X35207107Y-14924264D01*
X35207107Y-14924264D01*
G37*
G36*
X32237259Y-13651472D02*
X32802944Y-13085787D01*
X33792893Y-14075736D01*
X33227208Y-14641421D01*
X32237259Y-13651472D01*
X32237259Y-13651472D01*
G37*
G36*
X34358579Y-15772792D02*
X34924264Y-15207107D01*
X35914213Y-16197056D01*
X35348528Y-16762741D01*
X34358579Y-15772792D01*
X34358579Y-15772792D01*
G37*
G36*
X33085787Y-12802944D02*
X33651472Y-12237259D01*
X34641421Y-13227208D01*
X34075736Y-13792893D01*
X33085787Y-12802944D01*
X33085787Y-12802944D01*
G37*
G36*
X47616367Y-24398026D02*
X47192103Y-24822290D01*
X46096087Y-23726274D01*
X46520351Y-23302010D01*
X47616367Y-24398026D01*
X47616367Y-24398026D01*
G37*
G36*
X46718341Y-25296052D02*
X46294077Y-25720316D01*
X45198061Y-24624300D01*
X45622325Y-24200036D01*
X46718341Y-25296052D01*
X46718341Y-25296052D01*
G37*
G36*
X45820316Y-26194077D02*
X45396052Y-26618341D01*
X44300036Y-25522325D01*
X44724300Y-25098061D01*
X45820316Y-26194077D01*
X45820316Y-26194077D01*
G37*
G36*
X44922290Y-27092103D02*
X44498026Y-27516367D01*
X43402010Y-26420351D01*
X43826274Y-25996087D01*
X44922290Y-27092103D01*
X44922290Y-27092103D01*
G37*
G36*
X41103913Y-23273726D02*
X40679649Y-23697990D01*
X39583633Y-22601974D01*
X40007897Y-22177710D01*
X41103913Y-23273726D01*
X41103913Y-23273726D01*
G37*
G36*
X42001939Y-22375700D02*
X41577675Y-22799964D01*
X40481659Y-21703948D01*
X40905923Y-21279684D01*
X42001939Y-22375700D01*
X42001939Y-22375700D01*
G37*
G36*
X42899964Y-21477675D02*
X42475700Y-21901939D01*
X41379684Y-20805923D01*
X41803948Y-20381659D01*
X42899964Y-21477675D01*
X42899964Y-21477675D01*
G37*
G36*
X43797990Y-20579649D02*
X43373726Y-21003913D01*
X42277710Y-19907897D01*
X42701974Y-19483633D01*
X43797990Y-20579649D01*
X43797990Y-20579649D01*
G37*
D25*
X11850000Y-24750000D03*
X11850000Y-24250000D03*
X11850000Y-23750000D03*
X11850000Y-23250000D03*
X11850000Y-22750000D03*
X16150000Y-22750000D03*
X16150000Y-23250000D03*
X16150000Y-23750000D03*
X16150000Y-24250000D03*
X16150000Y-24750000D03*
D26*
X19000000Y-31500000D03*
X17000000Y-31500000D03*
X15000000Y-31500000D03*
X13000000Y-31500000D03*
X18500000Y-33000000D03*
X16000000Y-33000000D03*
X14000000Y-33000000D03*
X11000000Y-31500000D03*
X11500000Y-33000000D03*
X19000000Y-34700000D03*
X17000000Y-34700000D03*
X15000000Y-34700000D03*
X13000000Y-34700000D03*
X11000000Y-34700000D03*
X18500000Y-36200000D03*
X16000000Y-36200000D03*
X14000000Y-36200000D03*
D27*
X21570000Y-32520000D03*
X8430000Y-32520000D03*
X8430000Y-38200000D03*
D26*
X11500000Y-36200000D03*
D27*
X21570000Y-38200000D03*
D28*
X28800000Y-35150000D03*
X24800000Y-35150000D03*
D29*
X21100000Y-42350000D03*
X21100000Y-46650000D03*
D30*
X24800000Y-38450000D03*
X27700000Y-38450000D03*
D31*
X41000000Y-47200000D03*
X38500000Y-47200000D03*
X38500000Y-42200000D03*
X41000000Y-42200000D03*
X48500000Y-42200000D03*
X48500000Y-47200000D03*
X46000000Y-47200000D03*
X46000000Y-42200000D03*
X43500000Y-47200000D03*
X43500000Y-42200000D03*
X28000000Y-47200000D03*
X25500000Y-47200000D03*
X25500000Y-42200000D03*
X28000000Y-42200000D03*
X35500000Y-42200000D03*
X35500000Y-47200000D03*
X33000000Y-47200000D03*
X33000000Y-42200000D03*
X30500000Y-47200000D03*
X30500000Y-42200000D03*
D32*
X37050000Y-38450000D03*
X37450000Y-39450000D03*
X36550000Y-39450000D03*
X34050000Y-39450000D03*
X34950000Y-39450000D03*
X34450000Y-38450000D03*
X35350000Y-38450000D03*
X36150000Y-38450000D03*
X35750000Y-39450000D03*
D33*
X35300000Y-34790000D03*
X35300000Y-36310000D03*
X36100000Y-34790000D03*
X36100000Y-36310000D03*
X34500000Y-34790000D03*
X36900000Y-34790000D03*
X36900000Y-36310000D03*
X34500000Y-36310000D03*
X37700000Y-34790000D03*
X38500000Y-34790000D03*
X32900000Y-34790000D03*
X33700000Y-34790000D03*
X33700000Y-36310000D03*
X32900000Y-36310000D03*
X38500000Y-36310000D03*
X37700000Y-36310000D03*
D34*
X39100000Y-30300000D03*
X39100000Y-31250000D03*
X39100000Y-32200000D03*
X36900000Y-32200000D03*
X36900000Y-30300000D03*
X36900000Y-31250000D03*
X32400000Y-32200000D03*
X32400000Y-31250000D03*
X32400000Y-30300000D03*
X34600000Y-30300000D03*
X34600000Y-32200000D03*
X34600000Y-31250000D03*
D10*
G36*
X46951992Y-28478338D02*
X46421662Y-27948008D01*
X46987348Y-27382322D01*
X47517678Y-27912652D01*
X46951992Y-28478338D01*
X46951992Y-28478338D01*
G37*
G36*
X48012652Y-27417678D02*
X47482322Y-26887348D01*
X48048008Y-26321662D01*
X48578338Y-26851992D01*
X48012652Y-27417678D01*
X48012652Y-27417678D01*
G37*
D28*
X3375000Y-16175000D03*
X7375000Y-16175000D03*
D34*
X12900000Y-29450000D03*
X12900000Y-28500000D03*
X12900000Y-27550000D03*
X15100000Y-27550000D03*
X15100000Y-29450000D03*
X15100000Y-28500000D03*
D35*
X44500000Y-30750000D03*
X46000000Y-30750000D03*
D10*
G36*
X25751992Y-26528338D02*
X25221662Y-25998008D01*
X25787348Y-25432322D01*
X26317678Y-25962652D01*
X25751992Y-26528338D01*
X25751992Y-26528338D01*
G37*
G36*
X26812652Y-25467678D02*
X26282322Y-24937348D01*
X26848008Y-24371662D01*
X27378338Y-24901992D01*
X26812652Y-25467678D01*
X26812652Y-25467678D01*
G37*
D36*
X23500000Y-28475000D03*
X23000000Y-28475000D03*
X22500000Y-28475000D03*
X22000000Y-28475000D03*
D37*
X21275000Y-27750000D03*
X21275000Y-27250000D03*
X21275000Y-26750000D03*
X21275000Y-26250000D03*
D36*
X22000000Y-25525000D03*
X22500000Y-25525000D03*
X23000000Y-25525000D03*
X23500000Y-25525000D03*
D37*
X24225000Y-26250000D03*
X24225000Y-26750000D03*
X24225000Y-27250000D03*
X24225000Y-27750000D03*
D38*
X22300000Y-26550000D03*
X23200000Y-26550000D03*
X22300000Y-27450000D03*
X23200000Y-27450000D03*
D39*
X9900000Y-42520000D03*
D40*
X9900000Y-40800000D03*
X12100000Y-40800000D03*
X12100000Y-42700000D03*
D35*
X18350000Y-26350000D03*
X16850000Y-26350000D03*
D28*
X13550000Y-48050000D03*
X9550000Y-48050000D03*
D29*
X3800000Y-39200000D03*
X3800000Y-34900000D03*
D30*
X9350000Y-44750000D03*
X12250000Y-44750000D03*
D10*
G36*
X40771662Y-28409099D02*
X40276688Y-27914125D01*
X40594886Y-27595927D01*
X41089860Y-28090901D01*
X40771662Y-28409099D01*
X40771662Y-28409099D01*
G37*
G36*
X41690901Y-27489860D02*
X41195927Y-26994886D01*
X41514125Y-26676688D01*
X42009099Y-27171662D01*
X41690901Y-27489860D01*
X41690901Y-27489860D01*
G37*
G36*
X42645495Y-29363693D02*
X42150521Y-28868719D01*
X42468719Y-28550521D01*
X42963693Y-29045495D01*
X42645495Y-29363693D01*
X42645495Y-29363693D01*
G37*
D41*
X26025000Y-32500000D03*
X25575000Y-32500000D03*
D42*
X25800000Y-31600000D03*
D41*
X14675000Y-44800000D03*
X14225000Y-44800000D03*
D42*
X14450000Y-43900000D03*
D38*
X16250000Y-43250000D03*
X16250000Y-45150000D03*
X17850000Y-43250000D03*
X17850000Y-45150000D03*
X28300000Y-32450000D03*
X30200000Y-32450000D03*
X12050000Y-38500000D03*
X13950000Y-38500000D03*
X15800000Y-38500000D03*
X17700000Y-38500000D03*
X15900000Y-48000000D03*
X17800000Y-48000000D03*
X28200000Y-14700000D03*
X28200000Y-12800000D03*
X22400000Y-16200000D03*
X22400000Y-14300000D03*
X9000000Y-26700000D03*
X9000000Y-28600000D03*
D16*
X28700000Y-25050000D03*
X28700000Y-27050000D03*
D38*
X27300000Y-18150000D03*
X27300000Y-16250000D03*
D43*
X24500000Y-9500000D03*
X35500000Y-4750000D03*
X28750000Y-5250000D03*
X48100000Y-18200000D03*
D44*
X37300000Y-26150000D03*
X36000000Y-25350000D03*
D43*
X3500000Y-26100000D03*
X36300000Y-22400000D03*
X38000000Y-22600000D03*
X20250000Y-1250000D03*
X20250000Y-3250000D03*
X20250000Y-5000000D03*
X23000000Y-5000000D03*
X40600000Y-16800000D03*
X3750000Y-27650000D03*
X37000000Y-1250000D03*
X32250000Y-3000000D03*
X29500000Y-1250000D03*
X2000000Y-34750000D03*
X5500000Y-35000000D03*
D44*
X31250000Y-25000000D03*
D43*
X48500000Y-26000000D03*
X47500000Y-30750000D03*
D44*
X21500000Y-24600000D03*
D43*
X37200000Y-17200000D03*
X47400000Y-10400000D03*
X33650000Y-20250000D03*
X21800000Y-22900000D03*
X20750000Y-14500000D03*
X12000000Y-14500000D03*
X20750000Y-16000000D03*
X9500000Y-16000000D03*
X8250000Y-11500000D03*
X11750000Y-16000000D03*
X24000000Y-32500000D03*
X29550000Y-39050000D03*
X32900000Y-38800000D03*
X19000000Y-47000000D03*
X28700000Y-30400000D03*
X31000000Y-31200000D03*
X40150000Y-13850000D03*
X31000000Y-20500000D03*
D44*
X29100000Y-19650000D03*
X20250000Y-27500000D03*
D43*
X17750000Y-25250000D03*
X1450000Y-40050000D03*
X5950000Y-40050000D03*
X8600000Y-42550000D03*
X1650000Y-30450000D03*
X8700000Y-21000000D03*
X46150000Y-22150000D03*
X29000000Y-16250000D03*
X11750000Y-28500000D03*
X16000000Y-15750000D03*
X19250000Y-16250000D03*
X16750000Y-21500000D03*
X24500000Y-23250000D03*
X16412500Y-17981250D03*
X16400000Y-19000000D03*
X17250000Y-19000000D03*
X16412500Y-20118750D03*
X17237500Y-20118750D03*
X17237500Y-17981250D03*
X11475000Y-18675000D03*
X11175000Y-20925000D03*
X40800000Y-33000000D03*
D44*
X26200000Y-26900000D03*
X30100000Y-27800000D03*
X30500000Y-26550000D03*
X31050000Y-21850000D03*
X31800000Y-22950000D03*
X35750000Y-37450000D03*
X26000000Y-23750000D03*
X26500000Y-20350000D03*
D43*
X24600000Y-16500000D03*
X24000000Y-14750000D03*
X23500000Y-17750000D03*
X32700000Y-28700000D03*
X27050000Y-29250000D03*
X25800000Y-15200000D03*
X10000000Y-29750000D03*
X31000000Y-35100000D03*
X16500000Y-28500000D03*
X17950000Y-27550000D03*
X13600000Y-42350000D03*
X1450000Y-36500000D03*
X43050000Y-30850000D03*
X33000000Y-17700000D03*
X45550000Y-28850000D03*
X46050000Y-20400000D03*
X8000000Y-14475000D03*
X1250000Y-17500000D03*
X1250000Y-16250000D03*
X1250000Y-14750000D03*
D44*
X32200000Y-22100000D03*
D43*
X20600000Y-21200000D03*
D44*
X37700000Y-34100000D03*
X38500000Y-34100000D03*
X35300000Y-34100000D03*
X36100000Y-34100000D03*
X34500000Y-34100000D03*
X36900000Y-34100000D03*
X32900000Y-34100000D03*
X33700000Y-34100000D03*
X24150000Y-24650000D03*
X20750000Y-25250000D03*
X25250000Y-28500000D03*
X21750000Y-29500000D03*
X22500000Y-24500000D03*
X23250000Y-30000000D03*
D43*
X7800000Y-41350000D03*
X13350000Y-40450000D03*
D44*
X44300000Y-24350000D03*
X5750000Y-33000000D03*
X8600000Y-29450000D03*
X6600000Y-30350000D03*
D45*
G36*
X17723000Y-20523000D02*
X15977000Y-20523000D01*
X15977000Y-17577000D01*
X17723000Y-17577000D01*
X17723000Y-20523000D01*
X17723000Y-20523000D01*
G37*
X17723000Y-20523000D02*
X15977000Y-20523000D01*
X15977000Y-17577000D01*
X17723000Y-17577000D01*
X17723000Y-20523000D01*
M02*
