G04 #@! TF.FileFunction,Copper,L3,Inr*
%FSLAX46Y46*%
G04 Gerber Fmt 4.6, Leading zero omitted, Abs format (unit mm)*
G04 Created by KiCad (PCBNEW 4.0.6-e0-6349~52~ubuntu16.10.1) date Fri May 26 15:17:48 2017*
%MOMM*%
%LPD*%
G01*
G04 APERTURE LIST*
%ADD10C,0.150000*%
%ADD11C,1.300000*%
%ADD12C,4.000000*%
%ADD13C,2.000000*%
%ADD14R,1.050000X1.050000*%
%ADD15C,1.050000*%
%ADD16C,6.000000*%
%ADD17C,0.900000*%
%ADD18C,2.600000*%
%ADD19C,1.500000*%
%ADD20C,0.889000*%
%ADD21C,0.600000*%
%ADD22C,0.254000*%
G04 APERTURE END LIST*
D10*
D11*
X29325000Y-8140000D03*
X35415000Y-8140000D03*
X31355000Y-8140000D03*
X33385000Y-8140000D03*
X30345000Y-9920000D03*
X32375000Y-9920000D03*
X34405000Y-9920000D03*
X36435000Y-9920000D03*
D12*
X10775000Y-5600000D03*
D13*
X41000000Y-9030000D03*
D11*
X20685000Y-9920000D03*
X18655000Y-9920000D03*
X16625000Y-9920000D03*
X14595000Y-9920000D03*
X17635000Y-8140000D03*
X15605000Y-8140000D03*
X19665000Y-8140000D03*
X13575000Y-8140000D03*
D12*
X39225000Y-5600000D03*
D13*
X9000000Y-9030000D03*
D14*
X48000000Y-14000000D03*
D15*
X46730000Y-14000000D03*
X45460000Y-14000000D03*
X44190000Y-14000000D03*
X42920000Y-14000000D03*
X46730000Y-15270000D03*
X45460000Y-15270000D03*
X44190000Y-15270000D03*
X42920000Y-15270000D03*
X48000000Y-15270000D03*
D16*
X46000000Y-4000000D03*
X46000000Y-36000000D03*
X4000000Y-4000000D03*
X4000000Y-46000000D03*
D17*
X19000000Y-31500000D03*
X17000000Y-31500000D03*
X15000000Y-31500000D03*
X13000000Y-31500000D03*
X18500000Y-33000000D03*
X16000000Y-33000000D03*
X14000000Y-33000000D03*
X11000000Y-31500000D03*
X11500000Y-33000000D03*
X19000000Y-34700000D03*
X17000000Y-34700000D03*
X15000000Y-34700000D03*
X13000000Y-34700000D03*
X11000000Y-34700000D03*
X18500000Y-36200000D03*
X16000000Y-36200000D03*
X14000000Y-36200000D03*
D18*
X21570000Y-32520000D03*
X8430000Y-32520000D03*
X8430000Y-38200000D03*
D17*
X11500000Y-36200000D03*
D18*
X21570000Y-38200000D03*
D19*
X41000000Y-47200000D03*
X38500000Y-47200000D03*
X38500000Y-42200000D03*
X41000000Y-42200000D03*
X48500000Y-42200000D03*
X48500000Y-47200000D03*
X46000000Y-47200000D03*
X46000000Y-42200000D03*
X43500000Y-47200000D03*
X43500000Y-42200000D03*
X28000000Y-47200000D03*
X25500000Y-47200000D03*
X25500000Y-42200000D03*
X28000000Y-42200000D03*
X35500000Y-42200000D03*
X35500000Y-47200000D03*
X33000000Y-47200000D03*
X33000000Y-42200000D03*
X30500000Y-47200000D03*
X30500000Y-42200000D03*
D20*
X24500000Y-9500000D03*
X35500000Y-4750000D03*
X28750000Y-5250000D03*
X48100000Y-18200000D03*
D21*
X37300000Y-26150000D03*
X36000000Y-25350000D03*
D20*
X3500000Y-26100000D03*
X36300000Y-22400000D03*
X38000000Y-22600000D03*
X20250000Y-1250000D03*
X20250000Y-3250000D03*
X20250000Y-5000000D03*
X23000000Y-5000000D03*
X40600000Y-16800000D03*
X3750000Y-27650000D03*
X37000000Y-1250000D03*
X32250000Y-3000000D03*
X29500000Y-1250000D03*
X2000000Y-34750000D03*
X5500000Y-35000000D03*
D21*
X31250000Y-25000000D03*
D20*
X48500000Y-26000000D03*
X47500000Y-30750000D03*
D21*
X21500000Y-24600000D03*
D20*
X37200000Y-17200000D03*
X47400000Y-10400000D03*
X33650000Y-20250000D03*
X21800000Y-22900000D03*
X20750000Y-14500000D03*
X12000000Y-14500000D03*
X20750000Y-16000000D03*
X9500000Y-16000000D03*
X8250000Y-11500000D03*
X11750000Y-16000000D03*
X24000000Y-32500000D03*
X29550000Y-39050000D03*
X32900000Y-38800000D03*
X19000000Y-47000000D03*
X28700000Y-30400000D03*
X31000000Y-31200000D03*
X40150000Y-13850000D03*
X31000000Y-20500000D03*
D21*
X29100000Y-19650000D03*
X20250000Y-27500000D03*
D20*
X17750000Y-25250000D03*
X1450000Y-40050000D03*
X5950000Y-40050000D03*
X8600000Y-42550000D03*
X1650000Y-30450000D03*
X8700000Y-21000000D03*
X46150000Y-22150000D03*
X29000000Y-16250000D03*
X11750000Y-28500000D03*
X16000000Y-15750000D03*
X19250000Y-16250000D03*
X16750000Y-21500000D03*
X24500000Y-23250000D03*
X16412500Y-17981250D03*
X16400000Y-19000000D03*
X17250000Y-19000000D03*
X16412500Y-20118750D03*
X17237500Y-20118750D03*
X17237500Y-17981250D03*
X11475000Y-18675000D03*
X11175000Y-20925000D03*
X40800000Y-33000000D03*
D21*
X26200000Y-26900000D03*
X30100000Y-27800000D03*
X30500000Y-26550000D03*
X31050000Y-21850000D03*
X31800000Y-22950000D03*
X35750000Y-37450000D03*
X26000000Y-23750000D03*
X26500000Y-20350000D03*
D20*
X24600000Y-16500000D03*
X24000000Y-14750000D03*
X23500000Y-17750000D03*
X32700000Y-28700000D03*
X27050000Y-29250000D03*
X25800000Y-15200000D03*
X10000000Y-29750000D03*
X31000000Y-35100000D03*
X16500000Y-28500000D03*
X17950000Y-27550000D03*
X13600000Y-42350000D03*
X1450000Y-36500000D03*
X43050000Y-30850000D03*
X33000000Y-17700000D03*
X45550000Y-28850000D03*
X46050000Y-20400000D03*
X8000000Y-14475000D03*
X1250000Y-17500000D03*
X1250000Y-16250000D03*
X1250000Y-14750000D03*
D21*
X32200000Y-22100000D03*
D20*
X20600000Y-21200000D03*
D21*
X37700000Y-34100000D03*
X38500000Y-34100000D03*
X35300000Y-34100000D03*
X36100000Y-34100000D03*
X34500000Y-34100000D03*
X36900000Y-34100000D03*
X32900000Y-34100000D03*
X33700000Y-34100000D03*
X24150000Y-24650000D03*
X20750000Y-25250000D03*
X25250000Y-28500000D03*
X21750000Y-29500000D03*
X22500000Y-24500000D03*
X23250000Y-30000000D03*
D20*
X7800000Y-41350000D03*
X13350000Y-40450000D03*
D21*
X44300000Y-24350000D03*
X5750000Y-33000000D03*
X8600000Y-29450000D03*
X6600000Y-30350000D03*
D22*
G36*
X49623000Y-49623000D02*
X377000Y-49623000D01*
X377000Y-46658878D01*
X672424Y-46658878D01*
X1177862Y-47882132D01*
X2112945Y-48818849D01*
X3335315Y-49326421D01*
X4658878Y-49327576D01*
X5882132Y-48822138D01*
X6818849Y-47887055D01*
X7123743Y-47152788D01*
X18228366Y-47152788D01*
X18345572Y-47436449D01*
X18562410Y-47653665D01*
X18845866Y-47771366D01*
X19152788Y-47771634D01*
X19436449Y-47654428D01*
X19653665Y-47437590D01*
X19663755Y-47413289D01*
X24422813Y-47413289D01*
X24586431Y-47809275D01*
X24889132Y-48112504D01*
X25284832Y-48276813D01*
X25713289Y-48277187D01*
X26109275Y-48113569D01*
X26412504Y-47810868D01*
X26576813Y-47415168D01*
X26576814Y-47413289D01*
X26922813Y-47413289D01*
X27086431Y-47809275D01*
X27389132Y-48112504D01*
X27784832Y-48276813D01*
X28213289Y-48277187D01*
X28609275Y-48113569D01*
X28912504Y-47810868D01*
X29076813Y-47415168D01*
X29076814Y-47413289D01*
X29422813Y-47413289D01*
X29586431Y-47809275D01*
X29889132Y-48112504D01*
X30284832Y-48276813D01*
X30713289Y-48277187D01*
X31109275Y-48113569D01*
X31412504Y-47810868D01*
X31576813Y-47415168D01*
X31576814Y-47413289D01*
X31922813Y-47413289D01*
X32086431Y-47809275D01*
X32389132Y-48112504D01*
X32784832Y-48276813D01*
X33213289Y-48277187D01*
X33609275Y-48113569D01*
X33912504Y-47810868D01*
X34076813Y-47415168D01*
X34076814Y-47413289D01*
X34422813Y-47413289D01*
X34586431Y-47809275D01*
X34889132Y-48112504D01*
X35284832Y-48276813D01*
X35713289Y-48277187D01*
X36109275Y-48113569D01*
X36412504Y-47810868D01*
X36576813Y-47415168D01*
X36576814Y-47413289D01*
X37422813Y-47413289D01*
X37586431Y-47809275D01*
X37889132Y-48112504D01*
X38284832Y-48276813D01*
X38713289Y-48277187D01*
X39109275Y-48113569D01*
X39412504Y-47810868D01*
X39576813Y-47415168D01*
X39576814Y-47413289D01*
X39922813Y-47413289D01*
X40086431Y-47809275D01*
X40389132Y-48112504D01*
X40784832Y-48276813D01*
X41213289Y-48277187D01*
X41609275Y-48113569D01*
X41912504Y-47810868D01*
X42076813Y-47415168D01*
X42076814Y-47413289D01*
X42422813Y-47413289D01*
X42586431Y-47809275D01*
X42889132Y-48112504D01*
X43284832Y-48276813D01*
X43713289Y-48277187D01*
X44109275Y-48113569D01*
X44412504Y-47810868D01*
X44576813Y-47415168D01*
X44576814Y-47413289D01*
X44922813Y-47413289D01*
X45086431Y-47809275D01*
X45389132Y-48112504D01*
X45784832Y-48276813D01*
X46213289Y-48277187D01*
X46609275Y-48113569D01*
X46912504Y-47810868D01*
X47076813Y-47415168D01*
X47076814Y-47413289D01*
X47422813Y-47413289D01*
X47586431Y-47809275D01*
X47889132Y-48112504D01*
X48284832Y-48276813D01*
X48713289Y-48277187D01*
X49109275Y-48113569D01*
X49412504Y-47810868D01*
X49576813Y-47415168D01*
X49577187Y-46986711D01*
X49413569Y-46590725D01*
X49110868Y-46287496D01*
X48715168Y-46123187D01*
X48286711Y-46122813D01*
X47890725Y-46286431D01*
X47587496Y-46589132D01*
X47423187Y-46984832D01*
X47422813Y-47413289D01*
X47076814Y-47413289D01*
X47077187Y-46986711D01*
X46913569Y-46590725D01*
X46610868Y-46287496D01*
X46215168Y-46123187D01*
X45786711Y-46122813D01*
X45390725Y-46286431D01*
X45087496Y-46589132D01*
X44923187Y-46984832D01*
X44922813Y-47413289D01*
X44576814Y-47413289D01*
X44577187Y-46986711D01*
X44413569Y-46590725D01*
X44110868Y-46287496D01*
X43715168Y-46123187D01*
X43286711Y-46122813D01*
X42890725Y-46286431D01*
X42587496Y-46589132D01*
X42423187Y-46984832D01*
X42422813Y-47413289D01*
X42076814Y-47413289D01*
X42077187Y-46986711D01*
X41913569Y-46590725D01*
X41610868Y-46287496D01*
X41215168Y-46123187D01*
X40786711Y-46122813D01*
X40390725Y-46286431D01*
X40087496Y-46589132D01*
X39923187Y-46984832D01*
X39922813Y-47413289D01*
X39576814Y-47413289D01*
X39577187Y-46986711D01*
X39413569Y-46590725D01*
X39110868Y-46287496D01*
X38715168Y-46123187D01*
X38286711Y-46122813D01*
X37890725Y-46286431D01*
X37587496Y-46589132D01*
X37423187Y-46984832D01*
X37422813Y-47413289D01*
X36576814Y-47413289D01*
X36577187Y-46986711D01*
X36413569Y-46590725D01*
X36110868Y-46287496D01*
X35715168Y-46123187D01*
X35286711Y-46122813D01*
X34890725Y-46286431D01*
X34587496Y-46589132D01*
X34423187Y-46984832D01*
X34422813Y-47413289D01*
X34076814Y-47413289D01*
X34077187Y-46986711D01*
X33913569Y-46590725D01*
X33610868Y-46287496D01*
X33215168Y-46123187D01*
X32786711Y-46122813D01*
X32390725Y-46286431D01*
X32087496Y-46589132D01*
X31923187Y-46984832D01*
X31922813Y-47413289D01*
X31576814Y-47413289D01*
X31577187Y-46986711D01*
X31413569Y-46590725D01*
X31110868Y-46287496D01*
X30715168Y-46123187D01*
X30286711Y-46122813D01*
X29890725Y-46286431D01*
X29587496Y-46589132D01*
X29423187Y-46984832D01*
X29422813Y-47413289D01*
X29076814Y-47413289D01*
X29077187Y-46986711D01*
X28913569Y-46590725D01*
X28610868Y-46287496D01*
X28215168Y-46123187D01*
X27786711Y-46122813D01*
X27390725Y-46286431D01*
X27087496Y-46589132D01*
X26923187Y-46984832D01*
X26922813Y-47413289D01*
X26576814Y-47413289D01*
X26577187Y-46986711D01*
X26413569Y-46590725D01*
X26110868Y-46287496D01*
X25715168Y-46123187D01*
X25286711Y-46122813D01*
X24890725Y-46286431D01*
X24587496Y-46589132D01*
X24423187Y-46984832D01*
X24422813Y-47413289D01*
X19663755Y-47413289D01*
X19771366Y-47154134D01*
X19771634Y-46847212D01*
X19654428Y-46563551D01*
X19437590Y-46346335D01*
X19154134Y-46228634D01*
X18847212Y-46228366D01*
X18563551Y-46345572D01*
X18346335Y-46562410D01*
X18228634Y-46845866D01*
X18228366Y-47152788D01*
X7123743Y-47152788D01*
X7326421Y-46664685D01*
X7327576Y-45341122D01*
X6822138Y-44117868D01*
X5887055Y-43181151D01*
X4664685Y-42673579D01*
X3341122Y-42672424D01*
X2117868Y-43177862D01*
X1181151Y-44112945D01*
X673579Y-45335315D01*
X672424Y-46658878D01*
X377000Y-46658878D01*
X377000Y-41502788D01*
X7028366Y-41502788D01*
X7145572Y-41786449D01*
X7362410Y-42003665D01*
X7645866Y-42121366D01*
X7942509Y-42121625D01*
X7828634Y-42395866D01*
X7828366Y-42702788D01*
X7945572Y-42986449D01*
X8162410Y-43203665D01*
X8445866Y-43321366D01*
X8752788Y-43321634D01*
X9036449Y-43204428D01*
X9253665Y-42987590D01*
X9371366Y-42704134D01*
X9371619Y-42413289D01*
X24422813Y-42413289D01*
X24586431Y-42809275D01*
X24889132Y-43112504D01*
X25284832Y-43276813D01*
X25713289Y-43277187D01*
X26109275Y-43113569D01*
X26412504Y-42810868D01*
X26576813Y-42415168D01*
X26576814Y-42413289D01*
X26922813Y-42413289D01*
X27086431Y-42809275D01*
X27389132Y-43112504D01*
X27784832Y-43276813D01*
X28213289Y-43277187D01*
X28609275Y-43113569D01*
X28912504Y-42810868D01*
X29076813Y-42415168D01*
X29076814Y-42413289D01*
X29422813Y-42413289D01*
X29586431Y-42809275D01*
X29889132Y-43112504D01*
X30284832Y-43276813D01*
X30713289Y-43277187D01*
X31109275Y-43113569D01*
X31412504Y-42810868D01*
X31576813Y-42415168D01*
X31576814Y-42413289D01*
X31922813Y-42413289D01*
X32086431Y-42809275D01*
X32389132Y-43112504D01*
X32784832Y-43276813D01*
X33213289Y-43277187D01*
X33609275Y-43113569D01*
X33912504Y-42810868D01*
X34076813Y-42415168D01*
X34076814Y-42413289D01*
X34422813Y-42413289D01*
X34586431Y-42809275D01*
X34889132Y-43112504D01*
X35284832Y-43276813D01*
X35713289Y-43277187D01*
X36109275Y-43113569D01*
X36412504Y-42810868D01*
X36576813Y-42415168D01*
X36576814Y-42413289D01*
X37422813Y-42413289D01*
X37586431Y-42809275D01*
X37889132Y-43112504D01*
X38284832Y-43276813D01*
X38713289Y-43277187D01*
X39109275Y-43113569D01*
X39412504Y-42810868D01*
X39576813Y-42415168D01*
X39576814Y-42413289D01*
X39922813Y-42413289D01*
X40086431Y-42809275D01*
X40389132Y-43112504D01*
X40784832Y-43276813D01*
X41213289Y-43277187D01*
X41609275Y-43113569D01*
X41912504Y-42810868D01*
X42076813Y-42415168D01*
X42076814Y-42413289D01*
X42422813Y-42413289D01*
X42586431Y-42809275D01*
X42889132Y-43112504D01*
X43284832Y-43276813D01*
X43713289Y-43277187D01*
X44109275Y-43113569D01*
X44412504Y-42810868D01*
X44576813Y-42415168D01*
X44576814Y-42413289D01*
X44922813Y-42413289D01*
X45086431Y-42809275D01*
X45389132Y-43112504D01*
X45784832Y-43276813D01*
X46213289Y-43277187D01*
X46609275Y-43113569D01*
X46912504Y-42810868D01*
X47076813Y-42415168D01*
X47076814Y-42413289D01*
X47422813Y-42413289D01*
X47586431Y-42809275D01*
X47889132Y-43112504D01*
X48284832Y-43276813D01*
X48713289Y-43277187D01*
X49109275Y-43113569D01*
X49412504Y-42810868D01*
X49576813Y-42415168D01*
X49577187Y-41986711D01*
X49413569Y-41590725D01*
X49110868Y-41287496D01*
X48715168Y-41123187D01*
X48286711Y-41122813D01*
X47890725Y-41286431D01*
X47587496Y-41589132D01*
X47423187Y-41984832D01*
X47422813Y-42413289D01*
X47076814Y-42413289D01*
X47077187Y-41986711D01*
X46913569Y-41590725D01*
X46610868Y-41287496D01*
X46215168Y-41123187D01*
X45786711Y-41122813D01*
X45390725Y-41286431D01*
X45087496Y-41589132D01*
X44923187Y-41984832D01*
X44922813Y-42413289D01*
X44576814Y-42413289D01*
X44577187Y-41986711D01*
X44413569Y-41590725D01*
X44110868Y-41287496D01*
X43715168Y-41123187D01*
X43286711Y-41122813D01*
X42890725Y-41286431D01*
X42587496Y-41589132D01*
X42423187Y-41984832D01*
X42422813Y-42413289D01*
X42076814Y-42413289D01*
X42077187Y-41986711D01*
X41913569Y-41590725D01*
X41610868Y-41287496D01*
X41215168Y-41123187D01*
X40786711Y-41122813D01*
X40390725Y-41286431D01*
X40087496Y-41589132D01*
X39923187Y-41984832D01*
X39922813Y-42413289D01*
X39576814Y-42413289D01*
X39577187Y-41986711D01*
X39413569Y-41590725D01*
X39110868Y-41287496D01*
X38715168Y-41123187D01*
X38286711Y-41122813D01*
X37890725Y-41286431D01*
X37587496Y-41589132D01*
X37423187Y-41984832D01*
X37422813Y-42413289D01*
X36576814Y-42413289D01*
X36577187Y-41986711D01*
X36413569Y-41590725D01*
X36110868Y-41287496D01*
X35715168Y-41123187D01*
X35286711Y-41122813D01*
X34890725Y-41286431D01*
X34587496Y-41589132D01*
X34423187Y-41984832D01*
X34422813Y-42413289D01*
X34076814Y-42413289D01*
X34077187Y-41986711D01*
X33913569Y-41590725D01*
X33610868Y-41287496D01*
X33215168Y-41123187D01*
X32786711Y-41122813D01*
X32390725Y-41286431D01*
X32087496Y-41589132D01*
X31923187Y-41984832D01*
X31922813Y-42413289D01*
X31576814Y-42413289D01*
X31577187Y-41986711D01*
X31413569Y-41590725D01*
X31110868Y-41287496D01*
X30715168Y-41123187D01*
X30286711Y-41122813D01*
X29890725Y-41286431D01*
X29587496Y-41589132D01*
X29423187Y-41984832D01*
X29422813Y-42413289D01*
X29076814Y-42413289D01*
X29077187Y-41986711D01*
X28913569Y-41590725D01*
X28610868Y-41287496D01*
X28215168Y-41123187D01*
X27786711Y-41122813D01*
X27390725Y-41286431D01*
X27087496Y-41589132D01*
X26923187Y-41984832D01*
X26922813Y-42413289D01*
X26576814Y-42413289D01*
X26577187Y-41986711D01*
X26413569Y-41590725D01*
X26110868Y-41287496D01*
X25715168Y-41123187D01*
X25286711Y-41122813D01*
X24890725Y-41286431D01*
X24587496Y-41589132D01*
X24423187Y-41984832D01*
X24422813Y-42413289D01*
X9371619Y-42413289D01*
X9371634Y-42397212D01*
X9254428Y-42113551D01*
X9037590Y-41896335D01*
X8754134Y-41778634D01*
X8457491Y-41778375D01*
X8571366Y-41504134D01*
X8571634Y-41197212D01*
X8454428Y-40913551D01*
X8237590Y-40696335D01*
X8012304Y-40602788D01*
X12578366Y-40602788D01*
X12695572Y-40886449D01*
X12912410Y-41103665D01*
X13195866Y-41221366D01*
X13502788Y-41221634D01*
X13786449Y-41104428D01*
X14003665Y-40887590D01*
X14121366Y-40604134D01*
X14121634Y-40297212D01*
X14004428Y-40013551D01*
X13787590Y-39796335D01*
X13504134Y-39678634D01*
X13197212Y-39678366D01*
X12913551Y-39795572D01*
X12696335Y-40012410D01*
X12578634Y-40295866D01*
X12578366Y-40602788D01*
X8012304Y-40602788D01*
X7954134Y-40578634D01*
X7647212Y-40578366D01*
X7363551Y-40695572D01*
X7146335Y-40912410D01*
X7028634Y-41195866D01*
X7028366Y-41502788D01*
X377000Y-41502788D01*
X377000Y-40202788D01*
X678366Y-40202788D01*
X795572Y-40486449D01*
X1012410Y-40703665D01*
X1295866Y-40821366D01*
X1602788Y-40821634D01*
X1886449Y-40704428D01*
X2103665Y-40487590D01*
X2221366Y-40204134D01*
X2221367Y-40202788D01*
X5178366Y-40202788D01*
X5295572Y-40486449D01*
X5512410Y-40703665D01*
X5795866Y-40821366D01*
X6102788Y-40821634D01*
X6386449Y-40704428D01*
X6603665Y-40487590D01*
X6721366Y-40204134D01*
X6721634Y-39897212D01*
X6604428Y-39613551D01*
X6387590Y-39396335D01*
X6104134Y-39278634D01*
X5797212Y-39278366D01*
X5513551Y-39395572D01*
X5296335Y-39612410D01*
X5178634Y-39895866D01*
X5178366Y-40202788D01*
X2221367Y-40202788D01*
X2221634Y-39897212D01*
X2104428Y-39613551D01*
X1887590Y-39396335D01*
X1604134Y-39278634D01*
X1297212Y-39278366D01*
X1013551Y-39395572D01*
X796335Y-39612410D01*
X678634Y-39895866D01*
X678366Y-40202788D01*
X377000Y-40202788D01*
X377000Y-38522211D01*
X6802718Y-38522211D01*
X7049892Y-39120418D01*
X7507175Y-39578499D01*
X8104950Y-39826717D01*
X8752211Y-39827282D01*
X9350418Y-39580108D01*
X9808499Y-39122825D01*
X10056717Y-38525050D01*
X10056719Y-38522211D01*
X19942718Y-38522211D01*
X20189892Y-39120418D01*
X20647175Y-39578499D01*
X21244950Y-39826717D01*
X21892211Y-39827282D01*
X22490418Y-39580108D01*
X22868396Y-39202788D01*
X28778366Y-39202788D01*
X28895572Y-39486449D01*
X29112410Y-39703665D01*
X29395866Y-39821366D01*
X29702788Y-39821634D01*
X29986449Y-39704428D01*
X30203665Y-39487590D01*
X30321366Y-39204134D01*
X30321585Y-38952788D01*
X32128366Y-38952788D01*
X32245572Y-39236449D01*
X32462410Y-39453665D01*
X32745866Y-39571366D01*
X33052788Y-39571634D01*
X33336449Y-39454428D01*
X33553665Y-39237590D01*
X33671366Y-38954134D01*
X33671634Y-38647212D01*
X33554428Y-38363551D01*
X33337590Y-38146335D01*
X33054134Y-38028634D01*
X32747212Y-38028366D01*
X32463551Y-38145572D01*
X32246335Y-38362410D01*
X32128634Y-38645866D01*
X32128366Y-38952788D01*
X30321585Y-38952788D01*
X30321634Y-38897212D01*
X30204428Y-38613551D01*
X29987590Y-38396335D01*
X29704134Y-38278634D01*
X29397212Y-38278366D01*
X29113551Y-38395572D01*
X28896335Y-38612410D01*
X28778634Y-38895866D01*
X28778366Y-39202788D01*
X22868396Y-39202788D01*
X22948499Y-39122825D01*
X23196717Y-38525050D01*
X23197282Y-37877789D01*
X23071830Y-37574171D01*
X35122891Y-37574171D01*
X35218145Y-37804703D01*
X35394369Y-37981235D01*
X35624735Y-38076891D01*
X35874171Y-38077109D01*
X36104703Y-37981855D01*
X36281235Y-37805631D01*
X36376891Y-37575265D01*
X36377109Y-37325829D01*
X36281855Y-37095297D01*
X36105631Y-36918765D01*
X35875265Y-36823109D01*
X35625829Y-36822891D01*
X35395297Y-36918145D01*
X35218765Y-37094369D01*
X35123109Y-37324735D01*
X35122891Y-37574171D01*
X23071830Y-37574171D01*
X22950108Y-37279582D01*
X22492825Y-36821501D01*
X22101186Y-36658878D01*
X42672424Y-36658878D01*
X43177862Y-37882132D01*
X44112945Y-38818849D01*
X45335315Y-39326421D01*
X46658878Y-39327576D01*
X47882132Y-38822138D01*
X48818849Y-37887055D01*
X49326421Y-36664685D01*
X49327576Y-35341122D01*
X48822138Y-34117868D01*
X47887055Y-33181151D01*
X46664685Y-32673579D01*
X45341122Y-32672424D01*
X44117868Y-33177862D01*
X43181151Y-34112945D01*
X42673579Y-35335315D01*
X42672424Y-36658878D01*
X22101186Y-36658878D01*
X21895050Y-36573283D01*
X21247789Y-36572718D01*
X20649582Y-36819892D01*
X20191501Y-37277175D01*
X19943283Y-37874950D01*
X19942718Y-38522211D01*
X10056719Y-38522211D01*
X10057282Y-37877789D01*
X9810108Y-37279582D01*
X9352825Y-36821501D01*
X8755050Y-36573283D01*
X8107789Y-36572718D01*
X7509582Y-36819892D01*
X7051501Y-37277175D01*
X6803283Y-37874950D01*
X6802718Y-38522211D01*
X377000Y-38522211D01*
X377000Y-36353877D01*
X10722866Y-36353877D01*
X10840908Y-36639560D01*
X11059290Y-36858324D01*
X11344767Y-36976865D01*
X11653877Y-36977134D01*
X11939560Y-36859092D01*
X12158324Y-36640710D01*
X12276865Y-36355233D01*
X12276866Y-36353877D01*
X13222866Y-36353877D01*
X13340908Y-36639560D01*
X13559290Y-36858324D01*
X13844767Y-36976865D01*
X14153877Y-36977134D01*
X14439560Y-36859092D01*
X14658324Y-36640710D01*
X14776865Y-36355233D01*
X14776866Y-36353877D01*
X15222866Y-36353877D01*
X15340908Y-36639560D01*
X15559290Y-36858324D01*
X15844767Y-36976865D01*
X16153877Y-36977134D01*
X16439560Y-36859092D01*
X16658324Y-36640710D01*
X16776865Y-36355233D01*
X16776866Y-36353877D01*
X17722866Y-36353877D01*
X17840908Y-36639560D01*
X18059290Y-36858324D01*
X18344767Y-36976865D01*
X18653877Y-36977134D01*
X18939560Y-36859092D01*
X19158324Y-36640710D01*
X19276865Y-36355233D01*
X19277134Y-36046123D01*
X19159092Y-35760440D01*
X18940710Y-35541676D01*
X18655233Y-35423135D01*
X18346123Y-35422866D01*
X18060440Y-35540908D01*
X17841676Y-35759290D01*
X17723135Y-36044767D01*
X17722866Y-36353877D01*
X16776866Y-36353877D01*
X16777134Y-36046123D01*
X16659092Y-35760440D01*
X16440710Y-35541676D01*
X16155233Y-35423135D01*
X15846123Y-35422866D01*
X15560440Y-35540908D01*
X15341676Y-35759290D01*
X15223135Y-36044767D01*
X15222866Y-36353877D01*
X14776866Y-36353877D01*
X14777134Y-36046123D01*
X14659092Y-35760440D01*
X14440710Y-35541676D01*
X14155233Y-35423135D01*
X13846123Y-35422866D01*
X13560440Y-35540908D01*
X13341676Y-35759290D01*
X13223135Y-36044767D01*
X13222866Y-36353877D01*
X12276866Y-36353877D01*
X12277134Y-36046123D01*
X12159092Y-35760440D01*
X11940710Y-35541676D01*
X11655233Y-35423135D01*
X11346123Y-35422866D01*
X11060440Y-35540908D01*
X10841676Y-35759290D01*
X10723135Y-36044767D01*
X10722866Y-36353877D01*
X377000Y-36353877D01*
X377000Y-34902788D01*
X1228366Y-34902788D01*
X1345572Y-35186449D01*
X1562410Y-35403665D01*
X1845866Y-35521366D01*
X2152788Y-35521634D01*
X2436449Y-35404428D01*
X2653665Y-35187590D01*
X2668116Y-35152788D01*
X4728366Y-35152788D01*
X4845572Y-35436449D01*
X5062410Y-35653665D01*
X5345866Y-35771366D01*
X5652788Y-35771634D01*
X5936449Y-35654428D01*
X6153665Y-35437590D01*
X6271366Y-35154134D01*
X6271628Y-34853877D01*
X10222866Y-34853877D01*
X10340908Y-35139560D01*
X10559290Y-35358324D01*
X10844767Y-35476865D01*
X11153877Y-35477134D01*
X11439560Y-35359092D01*
X11658324Y-35140710D01*
X11776865Y-34855233D01*
X11776866Y-34853877D01*
X12222866Y-34853877D01*
X12340908Y-35139560D01*
X12559290Y-35358324D01*
X12844767Y-35476865D01*
X13153877Y-35477134D01*
X13439560Y-35359092D01*
X13658324Y-35140710D01*
X13776865Y-34855233D01*
X13776866Y-34853877D01*
X14222866Y-34853877D01*
X14340908Y-35139560D01*
X14559290Y-35358324D01*
X14844767Y-35476865D01*
X15153877Y-35477134D01*
X15439560Y-35359092D01*
X15658324Y-35140710D01*
X15776865Y-34855233D01*
X15776866Y-34853877D01*
X16222866Y-34853877D01*
X16340908Y-35139560D01*
X16559290Y-35358324D01*
X16844767Y-35476865D01*
X17153877Y-35477134D01*
X17439560Y-35359092D01*
X17658324Y-35140710D01*
X17776865Y-34855233D01*
X17776866Y-34853877D01*
X18222866Y-34853877D01*
X18340908Y-35139560D01*
X18559290Y-35358324D01*
X18844767Y-35476865D01*
X19153877Y-35477134D01*
X19439560Y-35359092D01*
X19658324Y-35140710D01*
X19776865Y-34855233D01*
X19777134Y-34546123D01*
X19659092Y-34260440D01*
X19622887Y-34224171D01*
X32272891Y-34224171D01*
X32368145Y-34454703D01*
X32544369Y-34631235D01*
X32774735Y-34726891D01*
X33024171Y-34727109D01*
X33254703Y-34631855D01*
X33299924Y-34586713D01*
X33344369Y-34631235D01*
X33574735Y-34726891D01*
X33824171Y-34727109D01*
X34054703Y-34631855D01*
X34099924Y-34586713D01*
X34144369Y-34631235D01*
X34374735Y-34726891D01*
X34624171Y-34727109D01*
X34854703Y-34631855D01*
X34899924Y-34586713D01*
X34944369Y-34631235D01*
X35174735Y-34726891D01*
X35424171Y-34727109D01*
X35654703Y-34631855D01*
X35699924Y-34586713D01*
X35744369Y-34631235D01*
X35974735Y-34726891D01*
X36224171Y-34727109D01*
X36454703Y-34631855D01*
X36499924Y-34586713D01*
X36544369Y-34631235D01*
X36774735Y-34726891D01*
X37024171Y-34727109D01*
X37254703Y-34631855D01*
X37299924Y-34586713D01*
X37344369Y-34631235D01*
X37574735Y-34726891D01*
X37824171Y-34727109D01*
X38054703Y-34631855D01*
X38099924Y-34586713D01*
X38144369Y-34631235D01*
X38374735Y-34726891D01*
X38624171Y-34727109D01*
X38854703Y-34631855D01*
X39031235Y-34455631D01*
X39126891Y-34225265D01*
X39127109Y-33975829D01*
X39031855Y-33745297D01*
X38855631Y-33568765D01*
X38625265Y-33473109D01*
X38375829Y-33472891D01*
X38145297Y-33568145D01*
X38100076Y-33613287D01*
X38055631Y-33568765D01*
X37825265Y-33473109D01*
X37575829Y-33472891D01*
X37345297Y-33568145D01*
X37300076Y-33613287D01*
X37255631Y-33568765D01*
X37025265Y-33473109D01*
X36775829Y-33472891D01*
X36545297Y-33568145D01*
X36500076Y-33613287D01*
X36455631Y-33568765D01*
X36225265Y-33473109D01*
X35975829Y-33472891D01*
X35745297Y-33568145D01*
X35700076Y-33613287D01*
X35655631Y-33568765D01*
X35425265Y-33473109D01*
X35175829Y-33472891D01*
X34945297Y-33568145D01*
X34900076Y-33613287D01*
X34855631Y-33568765D01*
X34625265Y-33473109D01*
X34375829Y-33472891D01*
X34145297Y-33568145D01*
X34100076Y-33613287D01*
X34055631Y-33568765D01*
X33825265Y-33473109D01*
X33575829Y-33472891D01*
X33345297Y-33568145D01*
X33300076Y-33613287D01*
X33255631Y-33568765D01*
X33025265Y-33473109D01*
X32775829Y-33472891D01*
X32545297Y-33568145D01*
X32368765Y-33744369D01*
X32273109Y-33974735D01*
X32272891Y-34224171D01*
X19622887Y-34224171D01*
X19440710Y-34041676D01*
X19155233Y-33923135D01*
X18846123Y-33922866D01*
X18560440Y-34040908D01*
X18341676Y-34259290D01*
X18223135Y-34544767D01*
X18222866Y-34853877D01*
X17776866Y-34853877D01*
X17777134Y-34546123D01*
X17659092Y-34260440D01*
X17440710Y-34041676D01*
X17155233Y-33923135D01*
X16846123Y-33922866D01*
X16560440Y-34040908D01*
X16341676Y-34259290D01*
X16223135Y-34544767D01*
X16222866Y-34853877D01*
X15776866Y-34853877D01*
X15777134Y-34546123D01*
X15659092Y-34260440D01*
X15440710Y-34041676D01*
X15155233Y-33923135D01*
X14846123Y-33922866D01*
X14560440Y-34040908D01*
X14341676Y-34259290D01*
X14223135Y-34544767D01*
X14222866Y-34853877D01*
X13776866Y-34853877D01*
X13777134Y-34546123D01*
X13659092Y-34260440D01*
X13440710Y-34041676D01*
X13155233Y-33923135D01*
X12846123Y-33922866D01*
X12560440Y-34040908D01*
X12341676Y-34259290D01*
X12223135Y-34544767D01*
X12222866Y-34853877D01*
X11776866Y-34853877D01*
X11777134Y-34546123D01*
X11659092Y-34260440D01*
X11440710Y-34041676D01*
X11155233Y-33923135D01*
X10846123Y-33922866D01*
X10560440Y-34040908D01*
X10341676Y-34259290D01*
X10223135Y-34544767D01*
X10222866Y-34853877D01*
X6271628Y-34853877D01*
X6271634Y-34847212D01*
X6154428Y-34563551D01*
X5937590Y-34346335D01*
X5654134Y-34228634D01*
X5347212Y-34228366D01*
X5063551Y-34345572D01*
X4846335Y-34562410D01*
X4728634Y-34845866D01*
X4728366Y-35152788D01*
X2668116Y-35152788D01*
X2771366Y-34904134D01*
X2771634Y-34597212D01*
X2654428Y-34313551D01*
X2437590Y-34096335D01*
X2154134Y-33978634D01*
X1847212Y-33978366D01*
X1563551Y-34095572D01*
X1346335Y-34312410D01*
X1228634Y-34595866D01*
X1228366Y-34902788D01*
X377000Y-34902788D01*
X377000Y-33124171D01*
X5122891Y-33124171D01*
X5218145Y-33354703D01*
X5394369Y-33531235D01*
X5624735Y-33626891D01*
X5874171Y-33627109D01*
X6104703Y-33531855D01*
X6281235Y-33355631D01*
X6376891Y-33125265D01*
X6377109Y-32875829D01*
X6363219Y-32842211D01*
X6802718Y-32842211D01*
X7049892Y-33440418D01*
X7507175Y-33898499D01*
X8104950Y-34146717D01*
X8752211Y-34147282D01*
X9350418Y-33900108D01*
X9808499Y-33442825D01*
X9928480Y-33153877D01*
X10722866Y-33153877D01*
X10840908Y-33439560D01*
X11059290Y-33658324D01*
X11344767Y-33776865D01*
X11653877Y-33777134D01*
X11939560Y-33659092D01*
X12158324Y-33440710D01*
X12276865Y-33155233D01*
X12276866Y-33153877D01*
X13222866Y-33153877D01*
X13340908Y-33439560D01*
X13559290Y-33658324D01*
X13844767Y-33776865D01*
X14153877Y-33777134D01*
X14439560Y-33659092D01*
X14658324Y-33440710D01*
X14776865Y-33155233D01*
X14776866Y-33153877D01*
X15222866Y-33153877D01*
X15340908Y-33439560D01*
X15559290Y-33658324D01*
X15844767Y-33776865D01*
X16153877Y-33777134D01*
X16439560Y-33659092D01*
X16658324Y-33440710D01*
X16776865Y-33155233D01*
X16776866Y-33153877D01*
X17722866Y-33153877D01*
X17840908Y-33439560D01*
X18059290Y-33658324D01*
X18344767Y-33776865D01*
X18653877Y-33777134D01*
X18939560Y-33659092D01*
X19158324Y-33440710D01*
X19276865Y-33155233D01*
X19277134Y-32846123D01*
X19275518Y-32842211D01*
X19942718Y-32842211D01*
X20189892Y-33440418D01*
X20647175Y-33898499D01*
X21244950Y-34146717D01*
X21892211Y-34147282D01*
X22490418Y-33900108D01*
X22948499Y-33442825D01*
X23196717Y-32845050D01*
X23196884Y-32652788D01*
X23228366Y-32652788D01*
X23345572Y-32936449D01*
X23562410Y-33153665D01*
X23845866Y-33271366D01*
X24152788Y-33271634D01*
X24436449Y-33154428D01*
X24438091Y-33152788D01*
X40028366Y-33152788D01*
X40145572Y-33436449D01*
X40362410Y-33653665D01*
X40645866Y-33771366D01*
X40952788Y-33771634D01*
X41236449Y-33654428D01*
X41453665Y-33437590D01*
X41571366Y-33154134D01*
X41571634Y-32847212D01*
X41454428Y-32563551D01*
X41237590Y-32346335D01*
X40954134Y-32228634D01*
X40647212Y-32228366D01*
X40363551Y-32345572D01*
X40146335Y-32562410D01*
X40028634Y-32845866D01*
X40028366Y-33152788D01*
X24438091Y-33152788D01*
X24653665Y-32937590D01*
X24771366Y-32654134D01*
X24771634Y-32347212D01*
X24654428Y-32063551D01*
X24437590Y-31846335D01*
X24154134Y-31728634D01*
X23847212Y-31728366D01*
X23563551Y-31845572D01*
X23346335Y-32062410D01*
X23228634Y-32345866D01*
X23228366Y-32652788D01*
X23196884Y-32652788D01*
X23197282Y-32197789D01*
X22950108Y-31599582D01*
X22703744Y-31352788D01*
X30228366Y-31352788D01*
X30345572Y-31636449D01*
X30562410Y-31853665D01*
X30845866Y-31971366D01*
X31152788Y-31971634D01*
X31436449Y-31854428D01*
X31653665Y-31637590D01*
X31771366Y-31354134D01*
X31771634Y-31047212D01*
X31711960Y-30902788D01*
X46728366Y-30902788D01*
X46845572Y-31186449D01*
X47062410Y-31403665D01*
X47345866Y-31521366D01*
X47652788Y-31521634D01*
X47936449Y-31404428D01*
X48153665Y-31187590D01*
X48271366Y-30904134D01*
X48271634Y-30597212D01*
X48154428Y-30313551D01*
X47937590Y-30096335D01*
X47654134Y-29978634D01*
X47347212Y-29978366D01*
X47063551Y-30095572D01*
X46846335Y-30312410D01*
X46728634Y-30595866D01*
X46728366Y-30902788D01*
X31711960Y-30902788D01*
X31654428Y-30763551D01*
X31437590Y-30546335D01*
X31154134Y-30428634D01*
X30847212Y-30428366D01*
X30563551Y-30545572D01*
X30346335Y-30762410D01*
X30228634Y-31045866D01*
X30228366Y-31352788D01*
X22703744Y-31352788D01*
X22492825Y-31141501D01*
X21895050Y-30893283D01*
X21247789Y-30892718D01*
X20649582Y-31139892D01*
X20191501Y-31597175D01*
X19943283Y-32194950D01*
X19942718Y-32842211D01*
X19275518Y-32842211D01*
X19159092Y-32560440D01*
X18940710Y-32341676D01*
X18655233Y-32223135D01*
X18346123Y-32222866D01*
X18060440Y-32340908D01*
X17841676Y-32559290D01*
X17723135Y-32844767D01*
X17722866Y-33153877D01*
X16776866Y-33153877D01*
X16777134Y-32846123D01*
X16659092Y-32560440D01*
X16440710Y-32341676D01*
X16155233Y-32223135D01*
X15846123Y-32222866D01*
X15560440Y-32340908D01*
X15341676Y-32559290D01*
X15223135Y-32844767D01*
X15222866Y-33153877D01*
X14776866Y-33153877D01*
X14777134Y-32846123D01*
X14659092Y-32560440D01*
X14440710Y-32341676D01*
X14155233Y-32223135D01*
X13846123Y-32222866D01*
X13560440Y-32340908D01*
X13341676Y-32559290D01*
X13223135Y-32844767D01*
X13222866Y-33153877D01*
X12276866Y-33153877D01*
X12277134Y-32846123D01*
X12159092Y-32560440D01*
X11940710Y-32341676D01*
X11655233Y-32223135D01*
X11346123Y-32222866D01*
X11060440Y-32340908D01*
X10841676Y-32559290D01*
X10723135Y-32844767D01*
X10722866Y-33153877D01*
X9928480Y-33153877D01*
X10056717Y-32845050D01*
X10057282Y-32197789D01*
X9832543Y-31653877D01*
X10222866Y-31653877D01*
X10340908Y-31939560D01*
X10559290Y-32158324D01*
X10844767Y-32276865D01*
X11153877Y-32277134D01*
X11439560Y-32159092D01*
X11658324Y-31940710D01*
X11776865Y-31655233D01*
X11776866Y-31653877D01*
X12222866Y-31653877D01*
X12340908Y-31939560D01*
X12559290Y-32158324D01*
X12844767Y-32276865D01*
X13153877Y-32277134D01*
X13439560Y-32159092D01*
X13658324Y-31940710D01*
X13776865Y-31655233D01*
X13776866Y-31653877D01*
X14222866Y-31653877D01*
X14340908Y-31939560D01*
X14559290Y-32158324D01*
X14844767Y-32276865D01*
X15153877Y-32277134D01*
X15439560Y-32159092D01*
X15658324Y-31940710D01*
X15776865Y-31655233D01*
X15776866Y-31653877D01*
X16222866Y-31653877D01*
X16340908Y-31939560D01*
X16559290Y-32158324D01*
X16844767Y-32276865D01*
X17153877Y-32277134D01*
X17439560Y-32159092D01*
X17658324Y-31940710D01*
X17776865Y-31655233D01*
X17776866Y-31653877D01*
X18222866Y-31653877D01*
X18340908Y-31939560D01*
X18559290Y-32158324D01*
X18844767Y-32276865D01*
X19153877Y-32277134D01*
X19439560Y-32159092D01*
X19658324Y-31940710D01*
X19776865Y-31655233D01*
X19777134Y-31346123D01*
X19659092Y-31060440D01*
X19440710Y-30841676D01*
X19155233Y-30723135D01*
X18846123Y-30722866D01*
X18560440Y-30840908D01*
X18341676Y-31059290D01*
X18223135Y-31344767D01*
X18222866Y-31653877D01*
X17776866Y-31653877D01*
X17777134Y-31346123D01*
X17659092Y-31060440D01*
X17440710Y-30841676D01*
X17155233Y-30723135D01*
X16846123Y-30722866D01*
X16560440Y-30840908D01*
X16341676Y-31059290D01*
X16223135Y-31344767D01*
X16222866Y-31653877D01*
X15776866Y-31653877D01*
X15777134Y-31346123D01*
X15659092Y-31060440D01*
X15440710Y-30841676D01*
X15155233Y-30723135D01*
X14846123Y-30722866D01*
X14560440Y-30840908D01*
X14341676Y-31059290D01*
X14223135Y-31344767D01*
X14222866Y-31653877D01*
X13776866Y-31653877D01*
X13777134Y-31346123D01*
X13659092Y-31060440D01*
X13440710Y-30841676D01*
X13155233Y-30723135D01*
X12846123Y-30722866D01*
X12560440Y-30840908D01*
X12341676Y-31059290D01*
X12223135Y-31344767D01*
X12222866Y-31653877D01*
X11776866Y-31653877D01*
X11777134Y-31346123D01*
X11659092Y-31060440D01*
X11440710Y-30841676D01*
X11155233Y-30723135D01*
X10846123Y-30722866D01*
X10560440Y-30840908D01*
X10341676Y-31059290D01*
X10223135Y-31344767D01*
X10222866Y-31653877D01*
X9832543Y-31653877D01*
X9810108Y-31599582D01*
X9352825Y-31141501D01*
X8755050Y-30893283D01*
X8107789Y-30892718D01*
X7509582Y-31139892D01*
X7051501Y-31597175D01*
X6803283Y-32194950D01*
X6802718Y-32842211D01*
X6363219Y-32842211D01*
X6281855Y-32645297D01*
X6105631Y-32468765D01*
X5875265Y-32373109D01*
X5625829Y-32372891D01*
X5395297Y-32468145D01*
X5218765Y-32644369D01*
X5123109Y-32874735D01*
X5122891Y-33124171D01*
X377000Y-33124171D01*
X377000Y-30602788D01*
X878366Y-30602788D01*
X995572Y-30886449D01*
X1212410Y-31103665D01*
X1495866Y-31221366D01*
X1802788Y-31221634D01*
X2086449Y-31104428D01*
X2303665Y-30887590D01*
X2421366Y-30604134D01*
X2421479Y-30474171D01*
X5972891Y-30474171D01*
X6068145Y-30704703D01*
X6244369Y-30881235D01*
X6474735Y-30976891D01*
X6724171Y-30977109D01*
X6954703Y-30881855D01*
X7131235Y-30705631D01*
X7226891Y-30475265D01*
X7227109Y-30225829D01*
X7131855Y-29995297D01*
X6955631Y-29818765D01*
X6725265Y-29723109D01*
X6475829Y-29722891D01*
X6245297Y-29818145D01*
X6068765Y-29994369D01*
X5973109Y-30224735D01*
X5972891Y-30474171D01*
X2421479Y-30474171D01*
X2421634Y-30297212D01*
X2304428Y-30013551D01*
X2087590Y-29796335D01*
X1804134Y-29678634D01*
X1497212Y-29678366D01*
X1213551Y-29795572D01*
X996335Y-30012410D01*
X878634Y-30295866D01*
X878366Y-30602788D01*
X377000Y-30602788D01*
X377000Y-29574171D01*
X7972891Y-29574171D01*
X8068145Y-29804703D01*
X8244369Y-29981235D01*
X8474735Y-30076891D01*
X8724171Y-30077109D01*
X8954703Y-29981855D01*
X9131235Y-29805631D01*
X9206583Y-29624171D01*
X21122891Y-29624171D01*
X21218145Y-29854703D01*
X21394369Y-30031235D01*
X21624735Y-30126891D01*
X21874171Y-30127109D01*
X21881281Y-30124171D01*
X22622891Y-30124171D01*
X22718145Y-30354703D01*
X22894369Y-30531235D01*
X23124735Y-30626891D01*
X23374171Y-30627109D01*
X23554041Y-30552788D01*
X27928366Y-30552788D01*
X28045572Y-30836449D01*
X28262410Y-31053665D01*
X28545866Y-31171366D01*
X28852788Y-31171634D01*
X29136449Y-31054428D01*
X29353665Y-30837590D01*
X29471366Y-30554134D01*
X29471634Y-30247212D01*
X29354428Y-29963551D01*
X29137590Y-29746335D01*
X28854134Y-29628634D01*
X28547212Y-29628366D01*
X28263551Y-29745572D01*
X28046335Y-29962410D01*
X27928634Y-30245866D01*
X27928366Y-30552788D01*
X23554041Y-30552788D01*
X23604703Y-30531855D01*
X23781235Y-30355631D01*
X23876891Y-30125265D01*
X23877109Y-29875829D01*
X23781855Y-29645297D01*
X23605631Y-29468765D01*
X23375265Y-29373109D01*
X23125829Y-29372891D01*
X22895297Y-29468145D01*
X22718765Y-29644369D01*
X22623109Y-29874735D01*
X22622891Y-30124171D01*
X21881281Y-30124171D01*
X22104703Y-30031855D01*
X22281235Y-29855631D01*
X22376891Y-29625265D01*
X22377109Y-29375829D01*
X22281855Y-29145297D01*
X22105631Y-28968765D01*
X21875265Y-28873109D01*
X21625829Y-28872891D01*
X21395297Y-28968145D01*
X21218765Y-29144369D01*
X21123109Y-29374735D01*
X21122891Y-29624171D01*
X9206583Y-29624171D01*
X9226891Y-29575265D01*
X9227109Y-29325829D01*
X9131855Y-29095297D01*
X8955631Y-28918765D01*
X8725265Y-28823109D01*
X8475829Y-28822891D01*
X8245297Y-28918145D01*
X8068765Y-29094369D01*
X7973109Y-29324735D01*
X7972891Y-29574171D01*
X377000Y-29574171D01*
X377000Y-28652788D01*
X10978366Y-28652788D01*
X11095572Y-28936449D01*
X11312410Y-29153665D01*
X11595866Y-29271366D01*
X11902788Y-29271634D01*
X12186449Y-29154428D01*
X12403665Y-28937590D01*
X12521366Y-28654134D01*
X12521392Y-28624171D01*
X24622891Y-28624171D01*
X24718145Y-28854703D01*
X24894369Y-29031235D01*
X25124735Y-29126891D01*
X25374171Y-29127109D01*
X25604703Y-29031855D01*
X25781235Y-28855631D01*
X25876891Y-28625265D01*
X25877109Y-28375829D01*
X25781855Y-28145297D01*
X25605631Y-27968765D01*
X25375265Y-27873109D01*
X25125829Y-27872891D01*
X24895297Y-27968145D01*
X24718765Y-28144369D01*
X24623109Y-28374735D01*
X24622891Y-28624171D01*
X12521392Y-28624171D01*
X12521634Y-28347212D01*
X12404428Y-28063551D01*
X12187590Y-27846335D01*
X11904134Y-27728634D01*
X11597212Y-27728366D01*
X11313551Y-27845572D01*
X11096335Y-28062410D01*
X10978634Y-28345866D01*
X10978366Y-28652788D01*
X377000Y-28652788D01*
X377000Y-27802788D01*
X2978366Y-27802788D01*
X3095572Y-28086449D01*
X3312410Y-28303665D01*
X3595866Y-28421366D01*
X3902788Y-28421634D01*
X4186449Y-28304428D01*
X4403665Y-28087590D01*
X4521366Y-27804134D01*
X4521523Y-27624171D01*
X19622891Y-27624171D01*
X19718145Y-27854703D01*
X19894369Y-28031235D01*
X20124735Y-28126891D01*
X20374171Y-28127109D01*
X20604703Y-28031855D01*
X20781235Y-27855631D01*
X20876891Y-27625265D01*
X20877109Y-27375829D01*
X20781855Y-27145297D01*
X20605631Y-26968765D01*
X20375265Y-26873109D01*
X20125829Y-26872891D01*
X19895297Y-26968145D01*
X19718765Y-27144369D01*
X19623109Y-27374735D01*
X19622891Y-27624171D01*
X4521523Y-27624171D01*
X4521634Y-27497212D01*
X4404428Y-27213551D01*
X4187590Y-26996335D01*
X3904134Y-26878634D01*
X3597212Y-26878366D01*
X3313551Y-26995572D01*
X3096335Y-27212410D01*
X2978634Y-27495866D01*
X2978366Y-27802788D01*
X377000Y-27802788D01*
X377000Y-26252788D01*
X2728366Y-26252788D01*
X2845572Y-26536449D01*
X3062410Y-26753665D01*
X3345866Y-26871366D01*
X3652788Y-26871634D01*
X3936449Y-26754428D01*
X4153665Y-26537590D01*
X4271366Y-26254134D01*
X4271634Y-25947212D01*
X4154428Y-25663551D01*
X3937590Y-25446335D01*
X3832717Y-25402788D01*
X16978366Y-25402788D01*
X17095572Y-25686449D01*
X17312410Y-25903665D01*
X17595866Y-26021366D01*
X17902788Y-26021634D01*
X18186449Y-25904428D01*
X18403665Y-25687590D01*
X18521366Y-25404134D01*
X18521392Y-25374171D01*
X20122891Y-25374171D01*
X20218145Y-25604703D01*
X20394369Y-25781235D01*
X20624735Y-25876891D01*
X20874171Y-25877109D01*
X21104703Y-25781855D01*
X21281235Y-25605631D01*
X21376891Y-25375265D01*
X21377021Y-25226893D01*
X21624171Y-25227109D01*
X21854703Y-25131855D01*
X22031235Y-24955631D01*
X22042299Y-24928986D01*
X22144369Y-25031235D01*
X22374735Y-25126891D01*
X22624171Y-25127109D01*
X22854703Y-25031855D01*
X23031235Y-24855631D01*
X23065060Y-24774171D01*
X23522891Y-24774171D01*
X23618145Y-25004703D01*
X23794369Y-25181235D01*
X24024735Y-25276891D01*
X24274171Y-25277109D01*
X24504703Y-25181855D01*
X24681235Y-25005631D01*
X24776891Y-24775265D01*
X24777109Y-24525829D01*
X24681855Y-24295297D01*
X24505631Y-24118765D01*
X24275265Y-24023109D01*
X24025829Y-24022891D01*
X23795297Y-24118145D01*
X23618765Y-24294369D01*
X23523109Y-24524735D01*
X23522891Y-24774171D01*
X23065060Y-24774171D01*
X23126891Y-24625265D01*
X23127109Y-24375829D01*
X23031855Y-24145297D01*
X22855631Y-23968765D01*
X22625265Y-23873109D01*
X22375829Y-23872891D01*
X22145297Y-23968145D01*
X21968765Y-24144369D01*
X21957701Y-24171014D01*
X21855631Y-24068765D01*
X21625265Y-23973109D01*
X21375829Y-23972891D01*
X21145297Y-24068145D01*
X20968765Y-24244369D01*
X20873109Y-24474735D01*
X20872979Y-24623107D01*
X20625829Y-24622891D01*
X20395297Y-24718145D01*
X20218765Y-24894369D01*
X20123109Y-25124735D01*
X20122891Y-25374171D01*
X18521392Y-25374171D01*
X18521634Y-25097212D01*
X18404428Y-24813551D01*
X18187590Y-24596335D01*
X17904134Y-24478634D01*
X17597212Y-24478366D01*
X17313551Y-24595572D01*
X17096335Y-24812410D01*
X16978634Y-25095866D01*
X16978366Y-25402788D01*
X3832717Y-25402788D01*
X3654134Y-25328634D01*
X3347212Y-25328366D01*
X3063551Y-25445572D01*
X2846335Y-25662410D01*
X2728634Y-25945866D01*
X2728366Y-26252788D01*
X377000Y-26252788D01*
X377000Y-23052788D01*
X21028366Y-23052788D01*
X21145572Y-23336449D01*
X21362410Y-23553665D01*
X21645866Y-23671366D01*
X21952788Y-23671634D01*
X22236449Y-23554428D01*
X22388353Y-23402788D01*
X23728366Y-23402788D01*
X23845572Y-23686449D01*
X24062410Y-23903665D01*
X24345866Y-24021366D01*
X24652788Y-24021634D01*
X24936449Y-23904428D01*
X24966758Y-23874171D01*
X25372891Y-23874171D01*
X25373000Y-23874435D01*
X25373000Y-27000000D01*
X25383006Y-27049410D01*
X25410197Y-27089803D01*
X26910197Y-28589803D01*
X26952211Y-28617666D01*
X27000000Y-28627000D01*
X30250000Y-28627000D01*
X30299410Y-28616994D01*
X30339803Y-28589803D01*
X31339803Y-27589803D01*
X31367666Y-27547789D01*
X31377000Y-27500000D01*
X31377000Y-26274171D01*
X36672891Y-26274171D01*
X36768145Y-26504703D01*
X36944369Y-26681235D01*
X37174735Y-26776891D01*
X37424171Y-26777109D01*
X37654703Y-26681855D01*
X37831235Y-26505631D01*
X37926891Y-26275265D01*
X37926998Y-26152788D01*
X47728366Y-26152788D01*
X47845572Y-26436449D01*
X48062410Y-26653665D01*
X48345866Y-26771366D01*
X48652788Y-26771634D01*
X48936449Y-26654428D01*
X49153665Y-26437590D01*
X49271366Y-26154134D01*
X49271634Y-25847212D01*
X49154428Y-25563551D01*
X48937590Y-25346335D01*
X48654134Y-25228634D01*
X48347212Y-25228366D01*
X48063551Y-25345572D01*
X47846335Y-25562410D01*
X47728634Y-25845866D01*
X47728366Y-26152788D01*
X37926998Y-26152788D01*
X37927109Y-26025829D01*
X37831855Y-25795297D01*
X37655631Y-25618765D01*
X37425265Y-25523109D01*
X37175829Y-25522891D01*
X36945297Y-25618145D01*
X36768765Y-25794369D01*
X36673109Y-26024735D01*
X36672891Y-26274171D01*
X31377000Y-26274171D01*
X31377000Y-25802606D01*
X31552606Y-25627000D01*
X34800000Y-25627000D01*
X34849410Y-25616994D01*
X34891035Y-25588553D01*
X34918315Y-25546159D01*
X34927000Y-25500000D01*
X34927000Y-25474171D01*
X35372891Y-25474171D01*
X35468145Y-25704703D01*
X35644369Y-25881235D01*
X35874735Y-25976891D01*
X36124171Y-25977109D01*
X36354703Y-25881855D01*
X36531235Y-25705631D01*
X36626891Y-25475265D01*
X36627109Y-25225829D01*
X36531855Y-24995297D01*
X36355631Y-24818765D01*
X36125265Y-24723109D01*
X35875829Y-24722891D01*
X35645297Y-24818145D01*
X35468765Y-24994369D01*
X35373109Y-25224735D01*
X35372891Y-25474171D01*
X34927000Y-25474171D01*
X34927000Y-24474171D01*
X43672891Y-24474171D01*
X43768145Y-24704703D01*
X43944369Y-24881235D01*
X44174735Y-24976891D01*
X44424171Y-24977109D01*
X44654703Y-24881855D01*
X44831235Y-24705631D01*
X44926891Y-24475265D01*
X44927109Y-24225829D01*
X44831855Y-23995297D01*
X44655631Y-23818765D01*
X44425265Y-23723109D01*
X44175829Y-23722891D01*
X43945297Y-23818145D01*
X43768765Y-23994369D01*
X43673109Y-24224735D01*
X43672891Y-24474171D01*
X34927000Y-24474171D01*
X34927000Y-22552788D01*
X35528366Y-22552788D01*
X35645572Y-22836449D01*
X35862410Y-23053665D01*
X36145866Y-23171366D01*
X36452788Y-23171634D01*
X36736449Y-23054428D01*
X36953665Y-22837590D01*
X36988877Y-22752788D01*
X37228366Y-22752788D01*
X37345572Y-23036449D01*
X37562410Y-23253665D01*
X37845866Y-23371366D01*
X38152788Y-23371634D01*
X38436449Y-23254428D01*
X38653665Y-23037590D01*
X38771366Y-22754134D01*
X38771634Y-22447212D01*
X38711960Y-22302788D01*
X45378366Y-22302788D01*
X45495572Y-22586449D01*
X45712410Y-22803665D01*
X45995866Y-22921366D01*
X46302788Y-22921634D01*
X46586449Y-22804428D01*
X46803665Y-22587590D01*
X46921366Y-22304134D01*
X46921634Y-21997212D01*
X46804428Y-21713551D01*
X46587590Y-21496335D01*
X46304134Y-21378634D01*
X45997212Y-21378366D01*
X45713551Y-21495572D01*
X45496335Y-21712410D01*
X45378634Y-21995866D01*
X45378366Y-22302788D01*
X38711960Y-22302788D01*
X38654428Y-22163551D01*
X38437590Y-21946335D01*
X38154134Y-21828634D01*
X37847212Y-21828366D01*
X37563551Y-21945572D01*
X37346335Y-22162410D01*
X37228634Y-22445866D01*
X37228366Y-22752788D01*
X36988877Y-22752788D01*
X37071366Y-22554134D01*
X37071634Y-22247212D01*
X36954428Y-21963551D01*
X36737590Y-21746335D01*
X36454134Y-21628634D01*
X36147212Y-21628366D01*
X35863551Y-21745572D01*
X35646335Y-21962410D01*
X35528634Y-22245866D01*
X35528366Y-22552788D01*
X34927000Y-22552788D01*
X34927000Y-22500000D01*
X34916994Y-22450590D01*
X34888553Y-22408965D01*
X34846159Y-22381685D01*
X34800000Y-22373000D01*
X32765546Y-22373000D01*
X32826891Y-22225265D01*
X32827109Y-21975829D01*
X32731855Y-21745297D01*
X32555631Y-21568765D01*
X32325265Y-21473109D01*
X32075829Y-21472891D01*
X31845297Y-21568145D01*
X31677100Y-21736048D01*
X31677109Y-21725829D01*
X31627000Y-21604556D01*
X31627000Y-21500000D01*
X31616994Y-21450590D01*
X31589803Y-21410197D01*
X31363978Y-21184372D01*
X31436449Y-21154428D01*
X31653665Y-20937590D01*
X31771366Y-20654134D01*
X31771585Y-20402788D01*
X32878366Y-20402788D01*
X32995572Y-20686449D01*
X33212410Y-20903665D01*
X33495866Y-21021366D01*
X33802788Y-21021634D01*
X34086449Y-20904428D01*
X34303665Y-20687590D01*
X34421366Y-20404134D01*
X34421634Y-20097212D01*
X34304428Y-19813551D01*
X34087590Y-19596335D01*
X33804134Y-19478634D01*
X33497212Y-19478366D01*
X33213551Y-19595572D01*
X32996335Y-19812410D01*
X32878634Y-20095866D01*
X32878366Y-20402788D01*
X31771585Y-20402788D01*
X31771634Y-20347212D01*
X31654428Y-20063551D01*
X31437590Y-19846335D01*
X31154134Y-19728634D01*
X30847212Y-19728366D01*
X30627000Y-19819355D01*
X30627000Y-19750000D01*
X30616994Y-19700590D01*
X30589803Y-19660197D01*
X30089803Y-19160197D01*
X30047789Y-19132334D01*
X30000000Y-19123000D01*
X29459859Y-19123000D01*
X29455631Y-19118765D01*
X29225265Y-19023109D01*
X28975829Y-19022891D01*
X28745297Y-19118145D01*
X28740434Y-19123000D01*
X26500000Y-19123000D01*
X26450590Y-19133006D01*
X26410197Y-19160197D01*
X25410197Y-20160197D01*
X25382334Y-20202211D01*
X25373000Y-20250000D01*
X25373000Y-23749453D01*
X25372891Y-23874171D01*
X24966758Y-23874171D01*
X25153665Y-23687590D01*
X25271366Y-23404134D01*
X25271634Y-23097212D01*
X25154428Y-22813551D01*
X24937590Y-22596335D01*
X24654134Y-22478634D01*
X24347212Y-22478366D01*
X24063551Y-22595572D01*
X23846335Y-22812410D01*
X23728634Y-23095866D01*
X23728366Y-23402788D01*
X22388353Y-23402788D01*
X22453665Y-23337590D01*
X22571366Y-23054134D01*
X22571634Y-22747212D01*
X22454428Y-22463551D01*
X22237590Y-22246335D01*
X21954134Y-22128634D01*
X21647212Y-22128366D01*
X21363551Y-22245572D01*
X21146335Y-22462410D01*
X21028634Y-22745866D01*
X21028366Y-23052788D01*
X377000Y-23052788D01*
X377000Y-21152788D01*
X7928366Y-21152788D01*
X8045572Y-21436449D01*
X8262410Y-21653665D01*
X8545866Y-21771366D01*
X8852788Y-21771634D01*
X9136449Y-21654428D01*
X9353665Y-21437590D01*
X9471366Y-21154134D01*
X9471432Y-21077788D01*
X10403366Y-21077788D01*
X10520572Y-21361449D01*
X10737410Y-21578665D01*
X11020866Y-21696366D01*
X11327788Y-21696634D01*
X11611449Y-21579428D01*
X11828665Y-21362590D01*
X11946366Y-21079134D01*
X11946634Y-20772212D01*
X11829428Y-20488551D01*
X11612590Y-20271335D01*
X11329134Y-20153634D01*
X11022212Y-20153366D01*
X10738551Y-20270572D01*
X10521335Y-20487410D01*
X10403634Y-20770866D01*
X10403366Y-21077788D01*
X9471432Y-21077788D01*
X9471634Y-20847212D01*
X9354428Y-20563551D01*
X9137590Y-20346335D01*
X8854134Y-20228634D01*
X8547212Y-20228366D01*
X8263551Y-20345572D01*
X8046335Y-20562410D01*
X7928634Y-20845866D01*
X7928366Y-21152788D01*
X377000Y-21152788D01*
X377000Y-18827788D01*
X10703366Y-18827788D01*
X10820572Y-19111449D01*
X11037410Y-19328665D01*
X11320866Y-19446366D01*
X11627788Y-19446634D01*
X11911449Y-19329428D01*
X12088396Y-19152788D01*
X15628366Y-19152788D01*
X15745572Y-19436449D01*
X15874547Y-19565649D01*
X15758835Y-19681160D01*
X15641134Y-19964616D01*
X15640866Y-20271538D01*
X15758072Y-20555199D01*
X15974910Y-20772415D01*
X16258366Y-20890116D01*
X16268920Y-20890125D01*
X16096335Y-21062410D01*
X15978634Y-21345866D01*
X15978366Y-21652788D01*
X16095572Y-21936449D01*
X16312410Y-22153665D01*
X16595866Y-22271366D01*
X16902788Y-22271634D01*
X17186449Y-22154428D01*
X17403665Y-21937590D01*
X17521366Y-21654134D01*
X17521629Y-21352788D01*
X19828366Y-21352788D01*
X19945572Y-21636449D01*
X20162410Y-21853665D01*
X20445866Y-21971366D01*
X20752788Y-21971634D01*
X21036449Y-21854428D01*
X21253665Y-21637590D01*
X21371366Y-21354134D01*
X21371634Y-21047212D01*
X21254428Y-20763551D01*
X21037590Y-20546335D01*
X20754134Y-20428634D01*
X20447212Y-20428366D01*
X20163551Y-20545572D01*
X19946335Y-20762410D01*
X19828634Y-21045866D01*
X19828366Y-21352788D01*
X17521629Y-21352788D01*
X17521634Y-21347212D01*
X17404428Y-21063551D01*
X17231424Y-20890245D01*
X17390288Y-20890384D01*
X17673949Y-20773178D01*
X17891165Y-20556340D01*
X18008866Y-20272884D01*
X18009134Y-19965962D01*
X17891928Y-19682301D01*
X17775431Y-19565601D01*
X17903665Y-19437590D01*
X18021366Y-19154134D01*
X18021634Y-18847212D01*
X17904428Y-18563551D01*
X17825453Y-18484438D01*
X17891165Y-18418840D01*
X17918592Y-18352788D01*
X47328366Y-18352788D01*
X47445572Y-18636449D01*
X47662410Y-18853665D01*
X47945866Y-18971366D01*
X48252788Y-18971634D01*
X48536449Y-18854428D01*
X48753665Y-18637590D01*
X48871366Y-18354134D01*
X48871634Y-18047212D01*
X48754428Y-17763551D01*
X48537590Y-17546335D01*
X48254134Y-17428634D01*
X47947212Y-17428366D01*
X47663551Y-17545572D01*
X47446335Y-17762410D01*
X47328634Y-18045866D01*
X47328366Y-18352788D01*
X17918592Y-18352788D01*
X18008866Y-18135384D01*
X18009134Y-17828462D01*
X17891928Y-17544801D01*
X17700250Y-17352788D01*
X36428366Y-17352788D01*
X36545572Y-17636449D01*
X36762410Y-17853665D01*
X37045866Y-17971366D01*
X37352788Y-17971634D01*
X37636449Y-17854428D01*
X37853665Y-17637590D01*
X37971366Y-17354134D01*
X37971634Y-17047212D01*
X37932619Y-16952788D01*
X39828366Y-16952788D01*
X39945572Y-17236449D01*
X40162410Y-17453665D01*
X40445866Y-17571366D01*
X40752788Y-17571634D01*
X41036449Y-17454428D01*
X41253665Y-17237590D01*
X41371366Y-16954134D01*
X41371634Y-16647212D01*
X41254428Y-16363551D01*
X41037590Y-16146335D01*
X40754134Y-16028634D01*
X40447212Y-16028366D01*
X40163551Y-16145572D01*
X39946335Y-16362410D01*
X39828634Y-16645866D01*
X39828366Y-16952788D01*
X37932619Y-16952788D01*
X37854428Y-16763551D01*
X37637590Y-16546335D01*
X37354134Y-16428634D01*
X37047212Y-16428366D01*
X36763551Y-16545572D01*
X36546335Y-16762410D01*
X36428634Y-17045866D01*
X36428366Y-17352788D01*
X17700250Y-17352788D01*
X17675090Y-17327585D01*
X17391634Y-17209884D01*
X17084712Y-17209616D01*
X16824710Y-17317046D01*
X16566634Y-17209884D01*
X16259712Y-17209616D01*
X15976051Y-17326822D01*
X15758835Y-17543660D01*
X15641134Y-17827116D01*
X15640866Y-18134038D01*
X15758072Y-18417699D01*
X15824569Y-18484312D01*
X15746335Y-18562410D01*
X15628634Y-18845866D01*
X15628366Y-19152788D01*
X12088396Y-19152788D01*
X12128665Y-19112590D01*
X12246366Y-18829134D01*
X12246634Y-18522212D01*
X12129428Y-18238551D01*
X11912590Y-18021335D01*
X11629134Y-17903634D01*
X11322212Y-17903366D01*
X11038551Y-18020572D01*
X10821335Y-18237410D01*
X10703634Y-18520866D01*
X10703366Y-18827788D01*
X377000Y-18827788D01*
X377000Y-14902788D01*
X478366Y-14902788D01*
X595572Y-15186449D01*
X812410Y-15403665D01*
X1044632Y-15500092D01*
X813551Y-15595572D01*
X596335Y-15812410D01*
X478634Y-16095866D01*
X478366Y-16402788D01*
X595572Y-16686449D01*
X783933Y-16875138D01*
X596335Y-17062410D01*
X478634Y-17345866D01*
X478366Y-17652788D01*
X595572Y-17936449D01*
X812410Y-18153665D01*
X1095866Y-18271366D01*
X1402788Y-18271634D01*
X1686449Y-18154428D01*
X1903665Y-17937590D01*
X2021366Y-17654134D01*
X2021634Y-17347212D01*
X1904428Y-17063551D01*
X1716067Y-16874862D01*
X1903665Y-16687590D01*
X2021366Y-16404134D01*
X2021585Y-16152788D01*
X8728366Y-16152788D01*
X8845572Y-16436449D01*
X9062410Y-16653665D01*
X9345866Y-16771366D01*
X9652788Y-16771634D01*
X9936449Y-16654428D01*
X10153665Y-16437590D01*
X10271366Y-16154134D01*
X10271367Y-16152788D01*
X10978366Y-16152788D01*
X11095572Y-16436449D01*
X11312410Y-16653665D01*
X11595866Y-16771366D01*
X11902788Y-16771634D01*
X12186449Y-16654428D01*
X12403665Y-16437590D01*
X12521366Y-16154134D01*
X12521585Y-15902788D01*
X15228366Y-15902788D01*
X15345572Y-16186449D01*
X15562410Y-16403665D01*
X15845866Y-16521366D01*
X16152788Y-16521634D01*
X16436449Y-16404428D01*
X16438091Y-16402788D01*
X18478366Y-16402788D01*
X18595572Y-16686449D01*
X18812410Y-16903665D01*
X19095866Y-17021366D01*
X19402788Y-17021634D01*
X19686449Y-16904428D01*
X19903665Y-16687590D01*
X20021366Y-16404134D01*
X20021494Y-16257167D01*
X20095572Y-16436449D01*
X20312410Y-16653665D01*
X20595866Y-16771366D01*
X20902788Y-16771634D01*
X21186449Y-16654428D01*
X21403665Y-16437590D01*
X21418116Y-16402788D01*
X28228366Y-16402788D01*
X28345572Y-16686449D01*
X28562410Y-16903665D01*
X28845866Y-17021366D01*
X29152788Y-17021634D01*
X29436449Y-16904428D01*
X29653665Y-16687590D01*
X29771366Y-16404134D01*
X29771634Y-16097212D01*
X29654428Y-15813551D01*
X29437590Y-15596335D01*
X29154134Y-15478634D01*
X28847212Y-15478366D01*
X28563551Y-15595572D01*
X28346335Y-15812410D01*
X28228634Y-16095866D01*
X28228366Y-16402788D01*
X21418116Y-16402788D01*
X21521366Y-16154134D01*
X21521634Y-15847212D01*
X21404428Y-15563551D01*
X21187590Y-15346335D01*
X20955368Y-15249908D01*
X21186449Y-15154428D01*
X21403665Y-14937590D01*
X21521366Y-14654134D01*
X21521634Y-14347212D01*
X21404428Y-14063551D01*
X21343771Y-14002788D01*
X39378366Y-14002788D01*
X39495572Y-14286449D01*
X39712410Y-14503665D01*
X39995866Y-14621366D01*
X40302788Y-14621634D01*
X40586449Y-14504428D01*
X40803665Y-14287590D01*
X40853019Y-14168730D01*
X42067852Y-14168730D01*
X42197288Y-14481989D01*
X42350089Y-14635057D01*
X42198130Y-14786750D01*
X42068148Y-15099783D01*
X42067852Y-15438730D01*
X42197288Y-15751989D01*
X42436750Y-15991870D01*
X42749783Y-16121852D01*
X43088730Y-16122148D01*
X43401989Y-15992712D01*
X43555057Y-15839911D01*
X43706750Y-15991870D01*
X44019783Y-16121852D01*
X44358730Y-16122148D01*
X44671989Y-15992712D01*
X44825057Y-15839911D01*
X44976750Y-15991870D01*
X45289783Y-16121852D01*
X45628730Y-16122148D01*
X45941989Y-15992712D01*
X46095057Y-15839911D01*
X46246750Y-15991870D01*
X46559783Y-16121852D01*
X46898730Y-16122148D01*
X47211989Y-15992712D01*
X47365057Y-15839911D01*
X47516750Y-15991870D01*
X47829783Y-16121852D01*
X48168730Y-16122148D01*
X48481989Y-15992712D01*
X48721870Y-15753250D01*
X48851852Y-15440217D01*
X48852148Y-15101270D01*
X48722712Y-14788011D01*
X48483250Y-14548130D01*
X48170217Y-14418148D01*
X47831270Y-14417852D01*
X47518011Y-14547288D01*
X47364943Y-14700089D01*
X47299911Y-14634943D01*
X47451870Y-14483250D01*
X47581852Y-14170217D01*
X47582148Y-13831270D01*
X47452712Y-13518011D01*
X47213250Y-13278130D01*
X46900217Y-13148148D01*
X46561270Y-13147852D01*
X46248011Y-13277288D01*
X46094943Y-13430089D01*
X45943250Y-13278130D01*
X45630217Y-13148148D01*
X45291270Y-13147852D01*
X44978011Y-13277288D01*
X44824943Y-13430089D01*
X44673250Y-13278130D01*
X44360217Y-13148148D01*
X44021270Y-13147852D01*
X43708011Y-13277288D01*
X43554943Y-13430089D01*
X43403250Y-13278130D01*
X43090217Y-13148148D01*
X42751270Y-13147852D01*
X42438011Y-13277288D01*
X42198130Y-13516750D01*
X42068148Y-13829783D01*
X42067852Y-14168730D01*
X40853019Y-14168730D01*
X40921366Y-14004134D01*
X40921634Y-13697212D01*
X40804428Y-13413551D01*
X40587590Y-13196335D01*
X40304134Y-13078634D01*
X39997212Y-13078366D01*
X39713551Y-13195572D01*
X39496335Y-13412410D01*
X39378634Y-13695866D01*
X39378366Y-14002788D01*
X21343771Y-14002788D01*
X21187590Y-13846335D01*
X20904134Y-13728634D01*
X20597212Y-13728366D01*
X20313551Y-13845572D01*
X20096335Y-14062410D01*
X19978634Y-14345866D01*
X19978366Y-14652788D01*
X20095572Y-14936449D01*
X20312410Y-15153665D01*
X20544632Y-15250092D01*
X20313551Y-15345572D01*
X20096335Y-15562410D01*
X19978634Y-15845866D01*
X19978506Y-15992833D01*
X19904428Y-15813551D01*
X19687590Y-15596335D01*
X19404134Y-15478634D01*
X19097212Y-15478366D01*
X18813551Y-15595572D01*
X18596335Y-15812410D01*
X18478634Y-16095866D01*
X18478366Y-16402788D01*
X16438091Y-16402788D01*
X16653665Y-16187590D01*
X16771366Y-15904134D01*
X16771634Y-15597212D01*
X16654428Y-15313551D01*
X16437590Y-15096335D01*
X16154134Y-14978634D01*
X15847212Y-14978366D01*
X15563551Y-15095572D01*
X15346335Y-15312410D01*
X15228634Y-15595866D01*
X15228366Y-15902788D01*
X12521585Y-15902788D01*
X12521634Y-15847212D01*
X12404428Y-15563551D01*
X12187590Y-15346335D01*
X12007384Y-15271507D01*
X12152788Y-15271634D01*
X12436449Y-15154428D01*
X12653665Y-14937590D01*
X12771366Y-14654134D01*
X12771634Y-14347212D01*
X12654428Y-14063551D01*
X12437590Y-13846335D01*
X12154134Y-13728634D01*
X11847212Y-13728366D01*
X11563551Y-13845572D01*
X11346335Y-14062410D01*
X11228634Y-14345866D01*
X11228366Y-14652788D01*
X11345572Y-14936449D01*
X11562410Y-15153665D01*
X11742616Y-15228493D01*
X11597212Y-15228366D01*
X11313551Y-15345572D01*
X11096335Y-15562410D01*
X10978634Y-15845866D01*
X10978366Y-16152788D01*
X10271367Y-16152788D01*
X10271634Y-15847212D01*
X10154428Y-15563551D01*
X9937590Y-15346335D01*
X9654134Y-15228634D01*
X9347212Y-15228366D01*
X9063551Y-15345572D01*
X8846335Y-15562410D01*
X8728634Y-15845866D01*
X8728366Y-16152788D01*
X2021585Y-16152788D01*
X2021634Y-16097212D01*
X1904428Y-15813551D01*
X1687590Y-15596335D01*
X1455368Y-15499908D01*
X1686449Y-15404428D01*
X1903665Y-15187590D01*
X2021366Y-14904134D01*
X2021607Y-14627788D01*
X7228366Y-14627788D01*
X7345572Y-14911449D01*
X7562410Y-15128665D01*
X7845866Y-15246366D01*
X8152788Y-15246634D01*
X8436449Y-15129428D01*
X8653665Y-14912590D01*
X8771366Y-14629134D01*
X8771634Y-14322212D01*
X8654428Y-14038551D01*
X8437590Y-13821335D01*
X8154134Y-13703634D01*
X7847212Y-13703366D01*
X7563551Y-13820572D01*
X7346335Y-14037410D01*
X7228634Y-14320866D01*
X7228366Y-14627788D01*
X2021607Y-14627788D01*
X2021634Y-14597212D01*
X1904428Y-14313551D01*
X1687590Y-14096335D01*
X1404134Y-13978634D01*
X1097212Y-13978366D01*
X813551Y-14095572D01*
X596335Y-14312410D01*
X478634Y-14595866D01*
X478366Y-14902788D01*
X377000Y-14902788D01*
X377000Y-11652788D01*
X7478366Y-11652788D01*
X7595572Y-11936449D01*
X7812410Y-12153665D01*
X8095866Y-12271366D01*
X8402788Y-12271634D01*
X8686449Y-12154428D01*
X8903665Y-11937590D01*
X9021366Y-11654134D01*
X9021634Y-11347212D01*
X8904428Y-11063551D01*
X8687590Y-10846335D01*
X8404134Y-10728634D01*
X8097212Y-10728366D01*
X7813551Y-10845572D01*
X7596335Y-11062410D01*
X7478634Y-11345866D01*
X7478366Y-11652788D01*
X377000Y-11652788D01*
X377000Y-9292798D01*
X7672771Y-9292798D01*
X7874369Y-9780703D01*
X8247334Y-10154319D01*
X8734885Y-10356769D01*
X9262798Y-10357229D01*
X9750703Y-10155631D01*
X9792922Y-10113485D01*
X13617830Y-10113485D01*
X13766256Y-10472703D01*
X14040851Y-10747778D01*
X14399810Y-10896830D01*
X14788485Y-10897170D01*
X15147703Y-10748744D01*
X15422778Y-10474149D01*
X15571830Y-10115190D01*
X15571831Y-10113485D01*
X15647830Y-10113485D01*
X15796256Y-10472703D01*
X16070851Y-10747778D01*
X16429810Y-10896830D01*
X16818485Y-10897170D01*
X17177703Y-10748744D01*
X17452778Y-10474149D01*
X17601830Y-10115190D01*
X17601831Y-10113485D01*
X17677830Y-10113485D01*
X17826256Y-10472703D01*
X18100851Y-10747778D01*
X18459810Y-10896830D01*
X18848485Y-10897170D01*
X19207703Y-10748744D01*
X19482778Y-10474149D01*
X19631830Y-10115190D01*
X19631831Y-10113485D01*
X19707830Y-10113485D01*
X19856256Y-10472703D01*
X20130851Y-10747778D01*
X20489810Y-10896830D01*
X20878485Y-10897170D01*
X21237703Y-10748744D01*
X21512778Y-10474149D01*
X21661830Y-10115190D01*
X21662170Y-9726515D01*
X21631707Y-9652788D01*
X23728366Y-9652788D01*
X23845572Y-9936449D01*
X24062410Y-10153665D01*
X24345866Y-10271366D01*
X24652788Y-10271634D01*
X24936449Y-10154428D01*
X24977463Y-10113485D01*
X29367830Y-10113485D01*
X29516256Y-10472703D01*
X29790851Y-10747778D01*
X30149810Y-10896830D01*
X30538485Y-10897170D01*
X30897703Y-10748744D01*
X31172778Y-10474149D01*
X31321830Y-10115190D01*
X31321831Y-10113485D01*
X31397830Y-10113485D01*
X31546256Y-10472703D01*
X31820851Y-10747778D01*
X32179810Y-10896830D01*
X32568485Y-10897170D01*
X32927703Y-10748744D01*
X33202778Y-10474149D01*
X33351830Y-10115190D01*
X33351831Y-10113485D01*
X33427830Y-10113485D01*
X33576256Y-10472703D01*
X33850851Y-10747778D01*
X34209810Y-10896830D01*
X34598485Y-10897170D01*
X34957703Y-10748744D01*
X35232778Y-10474149D01*
X35381830Y-10115190D01*
X35381831Y-10113485D01*
X35457830Y-10113485D01*
X35606256Y-10472703D01*
X35880851Y-10747778D01*
X36239810Y-10896830D01*
X36628485Y-10897170D01*
X36987703Y-10748744D01*
X37184001Y-10552788D01*
X46628366Y-10552788D01*
X46745572Y-10836449D01*
X46962410Y-11053665D01*
X47245866Y-11171366D01*
X47552788Y-11171634D01*
X47836449Y-11054428D01*
X48053665Y-10837590D01*
X48171366Y-10554134D01*
X48171634Y-10247212D01*
X48054428Y-9963551D01*
X47837590Y-9746335D01*
X47554134Y-9628634D01*
X47247212Y-9628366D01*
X46963551Y-9745572D01*
X46746335Y-9962410D01*
X46628634Y-10245866D01*
X46628366Y-10552788D01*
X37184001Y-10552788D01*
X37262778Y-10474149D01*
X37411830Y-10115190D01*
X37412170Y-9726515D01*
X37263744Y-9367297D01*
X37189375Y-9292798D01*
X39672771Y-9292798D01*
X39874369Y-9780703D01*
X40247334Y-10154319D01*
X40734885Y-10356769D01*
X41262798Y-10357229D01*
X41750703Y-10155631D01*
X42124319Y-9782666D01*
X42326769Y-9295115D01*
X42327229Y-8767202D01*
X42125631Y-8279297D01*
X41752666Y-7905681D01*
X41265115Y-7703231D01*
X40737202Y-7702771D01*
X40249297Y-7904369D01*
X39875681Y-8277334D01*
X39673231Y-8764885D01*
X39672771Y-9292798D01*
X37189375Y-9292798D01*
X36989149Y-9092222D01*
X36630190Y-8943170D01*
X36241515Y-8942830D01*
X35882297Y-9091256D01*
X35607222Y-9365851D01*
X35458170Y-9724810D01*
X35457830Y-10113485D01*
X35381831Y-10113485D01*
X35382170Y-9726515D01*
X35233744Y-9367297D01*
X34959149Y-9092222D01*
X34600190Y-8943170D01*
X34211515Y-8942830D01*
X33852297Y-9091256D01*
X33577222Y-9365851D01*
X33428170Y-9724810D01*
X33427830Y-10113485D01*
X33351831Y-10113485D01*
X33352170Y-9726515D01*
X33203744Y-9367297D01*
X32929149Y-9092222D01*
X32570190Y-8943170D01*
X32181515Y-8942830D01*
X31822297Y-9091256D01*
X31547222Y-9365851D01*
X31398170Y-9724810D01*
X31397830Y-10113485D01*
X31321831Y-10113485D01*
X31322170Y-9726515D01*
X31173744Y-9367297D01*
X30899149Y-9092222D01*
X30540190Y-8943170D01*
X30151515Y-8942830D01*
X29792297Y-9091256D01*
X29517222Y-9365851D01*
X29368170Y-9724810D01*
X29367830Y-10113485D01*
X24977463Y-10113485D01*
X25153665Y-9937590D01*
X25271366Y-9654134D01*
X25271634Y-9347212D01*
X25154428Y-9063551D01*
X24937590Y-8846335D01*
X24654134Y-8728634D01*
X24347212Y-8728366D01*
X24063551Y-8845572D01*
X23846335Y-9062410D01*
X23728634Y-9345866D01*
X23728366Y-9652788D01*
X21631707Y-9652788D01*
X21513744Y-9367297D01*
X21239149Y-9092222D01*
X20880190Y-8943170D01*
X20491515Y-8942830D01*
X20132297Y-9091256D01*
X19857222Y-9365851D01*
X19708170Y-9724810D01*
X19707830Y-10113485D01*
X19631831Y-10113485D01*
X19632170Y-9726515D01*
X19483744Y-9367297D01*
X19209149Y-9092222D01*
X18850190Y-8943170D01*
X18461515Y-8942830D01*
X18102297Y-9091256D01*
X17827222Y-9365851D01*
X17678170Y-9724810D01*
X17677830Y-10113485D01*
X17601831Y-10113485D01*
X17602170Y-9726515D01*
X17453744Y-9367297D01*
X17179149Y-9092222D01*
X16820190Y-8943170D01*
X16431515Y-8942830D01*
X16072297Y-9091256D01*
X15797222Y-9365851D01*
X15648170Y-9724810D01*
X15647830Y-10113485D01*
X15571831Y-10113485D01*
X15572170Y-9726515D01*
X15423744Y-9367297D01*
X15149149Y-9092222D01*
X14790190Y-8943170D01*
X14401515Y-8942830D01*
X14042297Y-9091256D01*
X13767222Y-9365851D01*
X13618170Y-9724810D01*
X13617830Y-10113485D01*
X9792922Y-10113485D01*
X10124319Y-9782666D01*
X10326769Y-9295115D01*
X10327229Y-8767202D01*
X10148021Y-8333485D01*
X12597830Y-8333485D01*
X12746256Y-8692703D01*
X13020851Y-8967778D01*
X13379810Y-9116830D01*
X13768485Y-9117170D01*
X14127703Y-8968744D01*
X14402778Y-8694149D01*
X14551830Y-8335190D01*
X14551831Y-8333485D01*
X14627830Y-8333485D01*
X14776256Y-8692703D01*
X15050851Y-8967778D01*
X15409810Y-9116830D01*
X15798485Y-9117170D01*
X16157703Y-8968744D01*
X16432778Y-8694149D01*
X16581830Y-8335190D01*
X16581831Y-8333485D01*
X16657830Y-8333485D01*
X16806256Y-8692703D01*
X17080851Y-8967778D01*
X17439810Y-9116830D01*
X17828485Y-9117170D01*
X18187703Y-8968744D01*
X18462778Y-8694149D01*
X18611830Y-8335190D01*
X18611831Y-8333485D01*
X18687830Y-8333485D01*
X18836256Y-8692703D01*
X19110851Y-8967778D01*
X19469810Y-9116830D01*
X19858485Y-9117170D01*
X20217703Y-8968744D01*
X20492778Y-8694149D01*
X20641830Y-8335190D01*
X20641831Y-8333485D01*
X28347830Y-8333485D01*
X28496256Y-8692703D01*
X28770851Y-8967778D01*
X29129810Y-9116830D01*
X29518485Y-9117170D01*
X29877703Y-8968744D01*
X30152778Y-8694149D01*
X30301830Y-8335190D01*
X30301831Y-8333485D01*
X30377830Y-8333485D01*
X30526256Y-8692703D01*
X30800851Y-8967778D01*
X31159810Y-9116830D01*
X31548485Y-9117170D01*
X31907703Y-8968744D01*
X32182778Y-8694149D01*
X32331830Y-8335190D01*
X32331831Y-8333485D01*
X32407830Y-8333485D01*
X32556256Y-8692703D01*
X32830851Y-8967778D01*
X33189810Y-9116830D01*
X33578485Y-9117170D01*
X33937703Y-8968744D01*
X34212778Y-8694149D01*
X34361830Y-8335190D01*
X34361831Y-8333485D01*
X34437830Y-8333485D01*
X34586256Y-8692703D01*
X34860851Y-8967778D01*
X35219810Y-9116830D01*
X35608485Y-9117170D01*
X35967703Y-8968744D01*
X36242778Y-8694149D01*
X36391830Y-8335190D01*
X36392170Y-7946515D01*
X36243744Y-7587297D01*
X35969149Y-7312222D01*
X35610190Y-7163170D01*
X35221515Y-7162830D01*
X34862297Y-7311256D01*
X34587222Y-7585851D01*
X34438170Y-7944810D01*
X34437830Y-8333485D01*
X34361831Y-8333485D01*
X34362170Y-7946515D01*
X34213744Y-7587297D01*
X33939149Y-7312222D01*
X33580190Y-7163170D01*
X33191515Y-7162830D01*
X32832297Y-7311256D01*
X32557222Y-7585851D01*
X32408170Y-7944810D01*
X32407830Y-8333485D01*
X32331831Y-8333485D01*
X32332170Y-7946515D01*
X32183744Y-7587297D01*
X31909149Y-7312222D01*
X31550190Y-7163170D01*
X31161515Y-7162830D01*
X30802297Y-7311256D01*
X30527222Y-7585851D01*
X30378170Y-7944810D01*
X30377830Y-8333485D01*
X30301831Y-8333485D01*
X30302170Y-7946515D01*
X30153744Y-7587297D01*
X29879149Y-7312222D01*
X29520190Y-7163170D01*
X29131515Y-7162830D01*
X28772297Y-7311256D01*
X28497222Y-7585851D01*
X28348170Y-7944810D01*
X28347830Y-8333485D01*
X20641831Y-8333485D01*
X20642170Y-7946515D01*
X20493744Y-7587297D01*
X20219149Y-7312222D01*
X19860190Y-7163170D01*
X19471515Y-7162830D01*
X19112297Y-7311256D01*
X18837222Y-7585851D01*
X18688170Y-7944810D01*
X18687830Y-8333485D01*
X18611831Y-8333485D01*
X18612170Y-7946515D01*
X18463744Y-7587297D01*
X18189149Y-7312222D01*
X17830190Y-7163170D01*
X17441515Y-7162830D01*
X17082297Y-7311256D01*
X16807222Y-7585851D01*
X16658170Y-7944810D01*
X16657830Y-8333485D01*
X16581831Y-8333485D01*
X16582170Y-7946515D01*
X16433744Y-7587297D01*
X16159149Y-7312222D01*
X15800190Y-7163170D01*
X15411515Y-7162830D01*
X15052297Y-7311256D01*
X14777222Y-7585851D01*
X14628170Y-7944810D01*
X14627830Y-8333485D01*
X14551831Y-8333485D01*
X14552170Y-7946515D01*
X14403744Y-7587297D01*
X14129149Y-7312222D01*
X13770190Y-7163170D01*
X13381515Y-7162830D01*
X13022297Y-7311256D01*
X12747222Y-7585851D01*
X12598170Y-7944810D01*
X12597830Y-8333485D01*
X10148021Y-8333485D01*
X10125631Y-8279297D01*
X9752666Y-7905681D01*
X9265115Y-7703231D01*
X8737202Y-7702771D01*
X8249297Y-7904369D01*
X7875681Y-8277334D01*
X7673231Y-8764885D01*
X7672771Y-9292798D01*
X377000Y-9292798D01*
X377000Y-4658878D01*
X672424Y-4658878D01*
X1177862Y-5882132D01*
X2112945Y-6818849D01*
X3335315Y-7326421D01*
X4658878Y-7327576D01*
X5882132Y-6822138D01*
X6644762Y-6060838D01*
X8447597Y-6060838D01*
X8801115Y-6916418D01*
X9455139Y-7571585D01*
X10310100Y-7926596D01*
X11235838Y-7927403D01*
X12091418Y-7573885D01*
X12746585Y-6919861D01*
X13101596Y-6064900D01*
X13101599Y-6060838D01*
X36897597Y-6060838D01*
X37251115Y-6916418D01*
X37905139Y-7571585D01*
X38760100Y-7926596D01*
X39685838Y-7927403D01*
X40541418Y-7573885D01*
X41196585Y-6919861D01*
X41551596Y-6064900D01*
X41552403Y-5139162D01*
X41353954Y-4658878D01*
X42672424Y-4658878D01*
X43177862Y-5882132D01*
X44112945Y-6818849D01*
X45335315Y-7326421D01*
X46658878Y-7327576D01*
X47882132Y-6822138D01*
X48818849Y-5887055D01*
X49326421Y-4664685D01*
X49327576Y-3341122D01*
X48822138Y-2117868D01*
X47887055Y-1181151D01*
X46664685Y-673579D01*
X45341122Y-672424D01*
X44117868Y-1177862D01*
X43181151Y-2112945D01*
X42673579Y-3335315D01*
X42672424Y-4658878D01*
X41353954Y-4658878D01*
X41198885Y-4283582D01*
X40544861Y-3628415D01*
X39689900Y-3273404D01*
X38764162Y-3272597D01*
X37908582Y-3626115D01*
X37253415Y-4280139D01*
X36898404Y-5135100D01*
X36897597Y-6060838D01*
X13101599Y-6060838D01*
X13102391Y-5152788D01*
X19478366Y-5152788D01*
X19595572Y-5436449D01*
X19812410Y-5653665D01*
X20095866Y-5771366D01*
X20402788Y-5771634D01*
X20686449Y-5654428D01*
X20903665Y-5437590D01*
X21021366Y-5154134D01*
X21021367Y-5152788D01*
X22228366Y-5152788D01*
X22345572Y-5436449D01*
X22562410Y-5653665D01*
X22845866Y-5771366D01*
X23152788Y-5771634D01*
X23436449Y-5654428D01*
X23653665Y-5437590D01*
X23668116Y-5402788D01*
X27978366Y-5402788D01*
X28095572Y-5686449D01*
X28312410Y-5903665D01*
X28595866Y-6021366D01*
X28902788Y-6021634D01*
X29186449Y-5904428D01*
X29403665Y-5687590D01*
X29521366Y-5404134D01*
X29521634Y-5097212D01*
X29441300Y-4902788D01*
X34728366Y-4902788D01*
X34845572Y-5186449D01*
X35062410Y-5403665D01*
X35345866Y-5521366D01*
X35652788Y-5521634D01*
X35936449Y-5404428D01*
X36153665Y-5187590D01*
X36271366Y-4904134D01*
X36271634Y-4597212D01*
X36154428Y-4313551D01*
X35937590Y-4096335D01*
X35654134Y-3978634D01*
X35347212Y-3978366D01*
X35063551Y-4095572D01*
X34846335Y-4312410D01*
X34728634Y-4595866D01*
X34728366Y-4902788D01*
X29441300Y-4902788D01*
X29404428Y-4813551D01*
X29187590Y-4596335D01*
X28904134Y-4478634D01*
X28597212Y-4478366D01*
X28313551Y-4595572D01*
X28096335Y-4812410D01*
X27978634Y-5095866D01*
X27978366Y-5402788D01*
X23668116Y-5402788D01*
X23771366Y-5154134D01*
X23771634Y-4847212D01*
X23654428Y-4563551D01*
X23437590Y-4346335D01*
X23154134Y-4228634D01*
X22847212Y-4228366D01*
X22563551Y-4345572D01*
X22346335Y-4562410D01*
X22228634Y-4845866D01*
X22228366Y-5152788D01*
X21021367Y-5152788D01*
X21021634Y-4847212D01*
X20904428Y-4563551D01*
X20687590Y-4346335D01*
X20404134Y-4228634D01*
X20097212Y-4228366D01*
X19813551Y-4345572D01*
X19596335Y-4562410D01*
X19478634Y-4845866D01*
X19478366Y-5152788D01*
X13102391Y-5152788D01*
X13102403Y-5139162D01*
X12748885Y-4283582D01*
X12094861Y-3628415D01*
X11551492Y-3402788D01*
X19478366Y-3402788D01*
X19595572Y-3686449D01*
X19812410Y-3903665D01*
X20095866Y-4021366D01*
X20402788Y-4021634D01*
X20686449Y-3904428D01*
X20903665Y-3687590D01*
X21021366Y-3404134D01*
X21021585Y-3152788D01*
X31478366Y-3152788D01*
X31595572Y-3436449D01*
X31812410Y-3653665D01*
X32095866Y-3771366D01*
X32402788Y-3771634D01*
X32686449Y-3654428D01*
X32903665Y-3437590D01*
X33021366Y-3154134D01*
X33021634Y-2847212D01*
X32904428Y-2563551D01*
X32687590Y-2346335D01*
X32404134Y-2228634D01*
X32097212Y-2228366D01*
X31813551Y-2345572D01*
X31596335Y-2562410D01*
X31478634Y-2845866D01*
X31478366Y-3152788D01*
X21021585Y-3152788D01*
X21021634Y-3097212D01*
X20904428Y-2813551D01*
X20687590Y-2596335D01*
X20404134Y-2478634D01*
X20097212Y-2478366D01*
X19813551Y-2595572D01*
X19596335Y-2812410D01*
X19478634Y-3095866D01*
X19478366Y-3402788D01*
X11551492Y-3402788D01*
X11239900Y-3273404D01*
X10314162Y-3272597D01*
X9458582Y-3626115D01*
X8803415Y-4280139D01*
X8448404Y-5135100D01*
X8447597Y-6060838D01*
X6644762Y-6060838D01*
X6818849Y-5887055D01*
X7326421Y-4664685D01*
X7327576Y-3341122D01*
X6822138Y-2117868D01*
X6108306Y-1402788D01*
X19478366Y-1402788D01*
X19595572Y-1686449D01*
X19812410Y-1903665D01*
X20095866Y-2021366D01*
X20402788Y-2021634D01*
X20686449Y-1904428D01*
X20903665Y-1687590D01*
X21021366Y-1404134D01*
X21021367Y-1402788D01*
X28728366Y-1402788D01*
X28845572Y-1686449D01*
X29062410Y-1903665D01*
X29345866Y-2021366D01*
X29652788Y-2021634D01*
X29936449Y-1904428D01*
X30153665Y-1687590D01*
X30271366Y-1404134D01*
X30271367Y-1402788D01*
X36228366Y-1402788D01*
X36345572Y-1686449D01*
X36562410Y-1903665D01*
X36845866Y-2021366D01*
X37152788Y-2021634D01*
X37436449Y-1904428D01*
X37653665Y-1687590D01*
X37771366Y-1404134D01*
X37771634Y-1097212D01*
X37654428Y-813551D01*
X37437590Y-596335D01*
X37154134Y-478634D01*
X36847212Y-478366D01*
X36563551Y-595572D01*
X36346335Y-812410D01*
X36228634Y-1095866D01*
X36228366Y-1402788D01*
X30271367Y-1402788D01*
X30271634Y-1097212D01*
X30154428Y-813551D01*
X29937590Y-596335D01*
X29654134Y-478634D01*
X29347212Y-478366D01*
X29063551Y-595572D01*
X28846335Y-812410D01*
X28728634Y-1095866D01*
X28728366Y-1402788D01*
X21021367Y-1402788D01*
X21021634Y-1097212D01*
X20904428Y-813551D01*
X20687590Y-596335D01*
X20404134Y-478634D01*
X20097212Y-478366D01*
X19813551Y-595572D01*
X19596335Y-812410D01*
X19478634Y-1095866D01*
X19478366Y-1402788D01*
X6108306Y-1402788D01*
X5887055Y-1181151D01*
X4664685Y-673579D01*
X3341122Y-672424D01*
X2117868Y-1177862D01*
X1181151Y-2112945D01*
X673579Y-3335315D01*
X672424Y-4658878D01*
X377000Y-4658878D01*
X377000Y-377000D01*
X49623000Y-377000D01*
X49623000Y-49623000D01*
X49623000Y-49623000D01*
G37*
X49623000Y-49623000D02*
X377000Y-49623000D01*
X377000Y-46658878D01*
X672424Y-46658878D01*
X1177862Y-47882132D01*
X2112945Y-48818849D01*
X3335315Y-49326421D01*
X4658878Y-49327576D01*
X5882132Y-48822138D01*
X6818849Y-47887055D01*
X7123743Y-47152788D01*
X18228366Y-47152788D01*
X18345572Y-47436449D01*
X18562410Y-47653665D01*
X18845866Y-47771366D01*
X19152788Y-47771634D01*
X19436449Y-47654428D01*
X19653665Y-47437590D01*
X19663755Y-47413289D01*
X24422813Y-47413289D01*
X24586431Y-47809275D01*
X24889132Y-48112504D01*
X25284832Y-48276813D01*
X25713289Y-48277187D01*
X26109275Y-48113569D01*
X26412504Y-47810868D01*
X26576813Y-47415168D01*
X26576814Y-47413289D01*
X26922813Y-47413289D01*
X27086431Y-47809275D01*
X27389132Y-48112504D01*
X27784832Y-48276813D01*
X28213289Y-48277187D01*
X28609275Y-48113569D01*
X28912504Y-47810868D01*
X29076813Y-47415168D01*
X29076814Y-47413289D01*
X29422813Y-47413289D01*
X29586431Y-47809275D01*
X29889132Y-48112504D01*
X30284832Y-48276813D01*
X30713289Y-48277187D01*
X31109275Y-48113569D01*
X31412504Y-47810868D01*
X31576813Y-47415168D01*
X31576814Y-47413289D01*
X31922813Y-47413289D01*
X32086431Y-47809275D01*
X32389132Y-48112504D01*
X32784832Y-48276813D01*
X33213289Y-48277187D01*
X33609275Y-48113569D01*
X33912504Y-47810868D01*
X34076813Y-47415168D01*
X34076814Y-47413289D01*
X34422813Y-47413289D01*
X34586431Y-47809275D01*
X34889132Y-48112504D01*
X35284832Y-48276813D01*
X35713289Y-48277187D01*
X36109275Y-48113569D01*
X36412504Y-47810868D01*
X36576813Y-47415168D01*
X36576814Y-47413289D01*
X37422813Y-47413289D01*
X37586431Y-47809275D01*
X37889132Y-48112504D01*
X38284832Y-48276813D01*
X38713289Y-48277187D01*
X39109275Y-48113569D01*
X39412504Y-47810868D01*
X39576813Y-47415168D01*
X39576814Y-47413289D01*
X39922813Y-47413289D01*
X40086431Y-47809275D01*
X40389132Y-48112504D01*
X40784832Y-48276813D01*
X41213289Y-48277187D01*
X41609275Y-48113569D01*
X41912504Y-47810868D01*
X42076813Y-47415168D01*
X42076814Y-47413289D01*
X42422813Y-47413289D01*
X42586431Y-47809275D01*
X42889132Y-48112504D01*
X43284832Y-48276813D01*
X43713289Y-48277187D01*
X44109275Y-48113569D01*
X44412504Y-47810868D01*
X44576813Y-47415168D01*
X44576814Y-47413289D01*
X44922813Y-47413289D01*
X45086431Y-47809275D01*
X45389132Y-48112504D01*
X45784832Y-48276813D01*
X46213289Y-48277187D01*
X46609275Y-48113569D01*
X46912504Y-47810868D01*
X47076813Y-47415168D01*
X47076814Y-47413289D01*
X47422813Y-47413289D01*
X47586431Y-47809275D01*
X47889132Y-48112504D01*
X48284832Y-48276813D01*
X48713289Y-48277187D01*
X49109275Y-48113569D01*
X49412504Y-47810868D01*
X49576813Y-47415168D01*
X49577187Y-46986711D01*
X49413569Y-46590725D01*
X49110868Y-46287496D01*
X48715168Y-46123187D01*
X48286711Y-46122813D01*
X47890725Y-46286431D01*
X47587496Y-46589132D01*
X47423187Y-46984832D01*
X47422813Y-47413289D01*
X47076814Y-47413289D01*
X47077187Y-46986711D01*
X46913569Y-46590725D01*
X46610868Y-46287496D01*
X46215168Y-46123187D01*
X45786711Y-46122813D01*
X45390725Y-46286431D01*
X45087496Y-46589132D01*
X44923187Y-46984832D01*
X44922813Y-47413289D01*
X44576814Y-47413289D01*
X44577187Y-46986711D01*
X44413569Y-46590725D01*
X44110868Y-46287496D01*
X43715168Y-46123187D01*
X43286711Y-46122813D01*
X42890725Y-46286431D01*
X42587496Y-46589132D01*
X42423187Y-46984832D01*
X42422813Y-47413289D01*
X42076814Y-47413289D01*
X42077187Y-46986711D01*
X41913569Y-46590725D01*
X41610868Y-46287496D01*
X41215168Y-46123187D01*
X40786711Y-46122813D01*
X40390725Y-46286431D01*
X40087496Y-46589132D01*
X39923187Y-46984832D01*
X39922813Y-47413289D01*
X39576814Y-47413289D01*
X39577187Y-46986711D01*
X39413569Y-46590725D01*
X39110868Y-46287496D01*
X38715168Y-46123187D01*
X38286711Y-46122813D01*
X37890725Y-46286431D01*
X37587496Y-46589132D01*
X37423187Y-46984832D01*
X37422813Y-47413289D01*
X36576814Y-47413289D01*
X36577187Y-46986711D01*
X36413569Y-46590725D01*
X36110868Y-46287496D01*
X35715168Y-46123187D01*
X35286711Y-46122813D01*
X34890725Y-46286431D01*
X34587496Y-46589132D01*
X34423187Y-46984832D01*
X34422813Y-47413289D01*
X34076814Y-47413289D01*
X34077187Y-46986711D01*
X33913569Y-46590725D01*
X33610868Y-46287496D01*
X33215168Y-46123187D01*
X32786711Y-46122813D01*
X32390725Y-46286431D01*
X32087496Y-46589132D01*
X31923187Y-46984832D01*
X31922813Y-47413289D01*
X31576814Y-47413289D01*
X31577187Y-46986711D01*
X31413569Y-46590725D01*
X31110868Y-46287496D01*
X30715168Y-46123187D01*
X30286711Y-46122813D01*
X29890725Y-46286431D01*
X29587496Y-46589132D01*
X29423187Y-46984832D01*
X29422813Y-47413289D01*
X29076814Y-47413289D01*
X29077187Y-46986711D01*
X28913569Y-46590725D01*
X28610868Y-46287496D01*
X28215168Y-46123187D01*
X27786711Y-46122813D01*
X27390725Y-46286431D01*
X27087496Y-46589132D01*
X26923187Y-46984832D01*
X26922813Y-47413289D01*
X26576814Y-47413289D01*
X26577187Y-46986711D01*
X26413569Y-46590725D01*
X26110868Y-46287496D01*
X25715168Y-46123187D01*
X25286711Y-46122813D01*
X24890725Y-46286431D01*
X24587496Y-46589132D01*
X24423187Y-46984832D01*
X24422813Y-47413289D01*
X19663755Y-47413289D01*
X19771366Y-47154134D01*
X19771634Y-46847212D01*
X19654428Y-46563551D01*
X19437590Y-46346335D01*
X19154134Y-46228634D01*
X18847212Y-46228366D01*
X18563551Y-46345572D01*
X18346335Y-46562410D01*
X18228634Y-46845866D01*
X18228366Y-47152788D01*
X7123743Y-47152788D01*
X7326421Y-46664685D01*
X7327576Y-45341122D01*
X6822138Y-44117868D01*
X5887055Y-43181151D01*
X4664685Y-42673579D01*
X3341122Y-42672424D01*
X2117868Y-43177862D01*
X1181151Y-44112945D01*
X673579Y-45335315D01*
X672424Y-46658878D01*
X377000Y-46658878D01*
X377000Y-41502788D01*
X7028366Y-41502788D01*
X7145572Y-41786449D01*
X7362410Y-42003665D01*
X7645866Y-42121366D01*
X7942509Y-42121625D01*
X7828634Y-42395866D01*
X7828366Y-42702788D01*
X7945572Y-42986449D01*
X8162410Y-43203665D01*
X8445866Y-43321366D01*
X8752788Y-43321634D01*
X9036449Y-43204428D01*
X9253665Y-42987590D01*
X9371366Y-42704134D01*
X9371619Y-42413289D01*
X24422813Y-42413289D01*
X24586431Y-42809275D01*
X24889132Y-43112504D01*
X25284832Y-43276813D01*
X25713289Y-43277187D01*
X26109275Y-43113569D01*
X26412504Y-42810868D01*
X26576813Y-42415168D01*
X26576814Y-42413289D01*
X26922813Y-42413289D01*
X27086431Y-42809275D01*
X27389132Y-43112504D01*
X27784832Y-43276813D01*
X28213289Y-43277187D01*
X28609275Y-43113569D01*
X28912504Y-42810868D01*
X29076813Y-42415168D01*
X29076814Y-42413289D01*
X29422813Y-42413289D01*
X29586431Y-42809275D01*
X29889132Y-43112504D01*
X30284832Y-43276813D01*
X30713289Y-43277187D01*
X31109275Y-43113569D01*
X31412504Y-42810868D01*
X31576813Y-42415168D01*
X31576814Y-42413289D01*
X31922813Y-42413289D01*
X32086431Y-42809275D01*
X32389132Y-43112504D01*
X32784832Y-43276813D01*
X33213289Y-43277187D01*
X33609275Y-43113569D01*
X33912504Y-42810868D01*
X34076813Y-42415168D01*
X34076814Y-42413289D01*
X34422813Y-42413289D01*
X34586431Y-42809275D01*
X34889132Y-43112504D01*
X35284832Y-43276813D01*
X35713289Y-43277187D01*
X36109275Y-43113569D01*
X36412504Y-42810868D01*
X36576813Y-42415168D01*
X36576814Y-42413289D01*
X37422813Y-42413289D01*
X37586431Y-42809275D01*
X37889132Y-43112504D01*
X38284832Y-43276813D01*
X38713289Y-43277187D01*
X39109275Y-43113569D01*
X39412504Y-42810868D01*
X39576813Y-42415168D01*
X39576814Y-42413289D01*
X39922813Y-42413289D01*
X40086431Y-42809275D01*
X40389132Y-43112504D01*
X40784832Y-43276813D01*
X41213289Y-43277187D01*
X41609275Y-43113569D01*
X41912504Y-42810868D01*
X42076813Y-42415168D01*
X42076814Y-42413289D01*
X42422813Y-42413289D01*
X42586431Y-42809275D01*
X42889132Y-43112504D01*
X43284832Y-43276813D01*
X43713289Y-43277187D01*
X44109275Y-43113569D01*
X44412504Y-42810868D01*
X44576813Y-42415168D01*
X44576814Y-42413289D01*
X44922813Y-42413289D01*
X45086431Y-42809275D01*
X45389132Y-43112504D01*
X45784832Y-43276813D01*
X46213289Y-43277187D01*
X46609275Y-43113569D01*
X46912504Y-42810868D01*
X47076813Y-42415168D01*
X47076814Y-42413289D01*
X47422813Y-42413289D01*
X47586431Y-42809275D01*
X47889132Y-43112504D01*
X48284832Y-43276813D01*
X48713289Y-43277187D01*
X49109275Y-43113569D01*
X49412504Y-42810868D01*
X49576813Y-42415168D01*
X49577187Y-41986711D01*
X49413569Y-41590725D01*
X49110868Y-41287496D01*
X48715168Y-41123187D01*
X48286711Y-41122813D01*
X47890725Y-41286431D01*
X47587496Y-41589132D01*
X47423187Y-41984832D01*
X47422813Y-42413289D01*
X47076814Y-42413289D01*
X47077187Y-41986711D01*
X46913569Y-41590725D01*
X46610868Y-41287496D01*
X46215168Y-41123187D01*
X45786711Y-41122813D01*
X45390725Y-41286431D01*
X45087496Y-41589132D01*
X44923187Y-41984832D01*
X44922813Y-42413289D01*
X44576814Y-42413289D01*
X44577187Y-41986711D01*
X44413569Y-41590725D01*
X44110868Y-41287496D01*
X43715168Y-41123187D01*
X43286711Y-41122813D01*
X42890725Y-41286431D01*
X42587496Y-41589132D01*
X42423187Y-41984832D01*
X42422813Y-42413289D01*
X42076814Y-42413289D01*
X42077187Y-41986711D01*
X41913569Y-41590725D01*
X41610868Y-41287496D01*
X41215168Y-41123187D01*
X40786711Y-41122813D01*
X40390725Y-41286431D01*
X40087496Y-41589132D01*
X39923187Y-41984832D01*
X39922813Y-42413289D01*
X39576814Y-42413289D01*
X39577187Y-41986711D01*
X39413569Y-41590725D01*
X39110868Y-41287496D01*
X38715168Y-41123187D01*
X38286711Y-41122813D01*
X37890725Y-41286431D01*
X37587496Y-41589132D01*
X37423187Y-41984832D01*
X37422813Y-42413289D01*
X36576814Y-42413289D01*
X36577187Y-41986711D01*
X36413569Y-41590725D01*
X36110868Y-41287496D01*
X35715168Y-41123187D01*
X35286711Y-41122813D01*
X34890725Y-41286431D01*
X34587496Y-41589132D01*
X34423187Y-41984832D01*
X34422813Y-42413289D01*
X34076814Y-42413289D01*
X34077187Y-41986711D01*
X33913569Y-41590725D01*
X33610868Y-41287496D01*
X33215168Y-41123187D01*
X32786711Y-41122813D01*
X32390725Y-41286431D01*
X32087496Y-41589132D01*
X31923187Y-41984832D01*
X31922813Y-42413289D01*
X31576814Y-42413289D01*
X31577187Y-41986711D01*
X31413569Y-41590725D01*
X31110868Y-41287496D01*
X30715168Y-41123187D01*
X30286711Y-41122813D01*
X29890725Y-41286431D01*
X29587496Y-41589132D01*
X29423187Y-41984832D01*
X29422813Y-42413289D01*
X29076814Y-42413289D01*
X29077187Y-41986711D01*
X28913569Y-41590725D01*
X28610868Y-41287496D01*
X28215168Y-41123187D01*
X27786711Y-41122813D01*
X27390725Y-41286431D01*
X27087496Y-41589132D01*
X26923187Y-41984832D01*
X26922813Y-42413289D01*
X26576814Y-42413289D01*
X26577187Y-41986711D01*
X26413569Y-41590725D01*
X26110868Y-41287496D01*
X25715168Y-41123187D01*
X25286711Y-41122813D01*
X24890725Y-41286431D01*
X24587496Y-41589132D01*
X24423187Y-41984832D01*
X24422813Y-42413289D01*
X9371619Y-42413289D01*
X9371634Y-42397212D01*
X9254428Y-42113551D01*
X9037590Y-41896335D01*
X8754134Y-41778634D01*
X8457491Y-41778375D01*
X8571366Y-41504134D01*
X8571634Y-41197212D01*
X8454428Y-40913551D01*
X8237590Y-40696335D01*
X8012304Y-40602788D01*
X12578366Y-40602788D01*
X12695572Y-40886449D01*
X12912410Y-41103665D01*
X13195866Y-41221366D01*
X13502788Y-41221634D01*
X13786449Y-41104428D01*
X14003665Y-40887590D01*
X14121366Y-40604134D01*
X14121634Y-40297212D01*
X14004428Y-40013551D01*
X13787590Y-39796335D01*
X13504134Y-39678634D01*
X13197212Y-39678366D01*
X12913551Y-39795572D01*
X12696335Y-40012410D01*
X12578634Y-40295866D01*
X12578366Y-40602788D01*
X8012304Y-40602788D01*
X7954134Y-40578634D01*
X7647212Y-40578366D01*
X7363551Y-40695572D01*
X7146335Y-40912410D01*
X7028634Y-41195866D01*
X7028366Y-41502788D01*
X377000Y-41502788D01*
X377000Y-40202788D01*
X678366Y-40202788D01*
X795572Y-40486449D01*
X1012410Y-40703665D01*
X1295866Y-40821366D01*
X1602788Y-40821634D01*
X1886449Y-40704428D01*
X2103665Y-40487590D01*
X2221366Y-40204134D01*
X2221367Y-40202788D01*
X5178366Y-40202788D01*
X5295572Y-40486449D01*
X5512410Y-40703665D01*
X5795866Y-40821366D01*
X6102788Y-40821634D01*
X6386449Y-40704428D01*
X6603665Y-40487590D01*
X6721366Y-40204134D01*
X6721634Y-39897212D01*
X6604428Y-39613551D01*
X6387590Y-39396335D01*
X6104134Y-39278634D01*
X5797212Y-39278366D01*
X5513551Y-39395572D01*
X5296335Y-39612410D01*
X5178634Y-39895866D01*
X5178366Y-40202788D01*
X2221367Y-40202788D01*
X2221634Y-39897212D01*
X2104428Y-39613551D01*
X1887590Y-39396335D01*
X1604134Y-39278634D01*
X1297212Y-39278366D01*
X1013551Y-39395572D01*
X796335Y-39612410D01*
X678634Y-39895866D01*
X678366Y-40202788D01*
X377000Y-40202788D01*
X377000Y-38522211D01*
X6802718Y-38522211D01*
X7049892Y-39120418D01*
X7507175Y-39578499D01*
X8104950Y-39826717D01*
X8752211Y-39827282D01*
X9350418Y-39580108D01*
X9808499Y-39122825D01*
X10056717Y-38525050D01*
X10056719Y-38522211D01*
X19942718Y-38522211D01*
X20189892Y-39120418D01*
X20647175Y-39578499D01*
X21244950Y-39826717D01*
X21892211Y-39827282D01*
X22490418Y-39580108D01*
X22868396Y-39202788D01*
X28778366Y-39202788D01*
X28895572Y-39486449D01*
X29112410Y-39703665D01*
X29395866Y-39821366D01*
X29702788Y-39821634D01*
X29986449Y-39704428D01*
X30203665Y-39487590D01*
X30321366Y-39204134D01*
X30321585Y-38952788D01*
X32128366Y-38952788D01*
X32245572Y-39236449D01*
X32462410Y-39453665D01*
X32745866Y-39571366D01*
X33052788Y-39571634D01*
X33336449Y-39454428D01*
X33553665Y-39237590D01*
X33671366Y-38954134D01*
X33671634Y-38647212D01*
X33554428Y-38363551D01*
X33337590Y-38146335D01*
X33054134Y-38028634D01*
X32747212Y-38028366D01*
X32463551Y-38145572D01*
X32246335Y-38362410D01*
X32128634Y-38645866D01*
X32128366Y-38952788D01*
X30321585Y-38952788D01*
X30321634Y-38897212D01*
X30204428Y-38613551D01*
X29987590Y-38396335D01*
X29704134Y-38278634D01*
X29397212Y-38278366D01*
X29113551Y-38395572D01*
X28896335Y-38612410D01*
X28778634Y-38895866D01*
X28778366Y-39202788D01*
X22868396Y-39202788D01*
X22948499Y-39122825D01*
X23196717Y-38525050D01*
X23197282Y-37877789D01*
X23071830Y-37574171D01*
X35122891Y-37574171D01*
X35218145Y-37804703D01*
X35394369Y-37981235D01*
X35624735Y-38076891D01*
X35874171Y-38077109D01*
X36104703Y-37981855D01*
X36281235Y-37805631D01*
X36376891Y-37575265D01*
X36377109Y-37325829D01*
X36281855Y-37095297D01*
X36105631Y-36918765D01*
X35875265Y-36823109D01*
X35625829Y-36822891D01*
X35395297Y-36918145D01*
X35218765Y-37094369D01*
X35123109Y-37324735D01*
X35122891Y-37574171D01*
X23071830Y-37574171D01*
X22950108Y-37279582D01*
X22492825Y-36821501D01*
X22101186Y-36658878D01*
X42672424Y-36658878D01*
X43177862Y-37882132D01*
X44112945Y-38818849D01*
X45335315Y-39326421D01*
X46658878Y-39327576D01*
X47882132Y-38822138D01*
X48818849Y-37887055D01*
X49326421Y-36664685D01*
X49327576Y-35341122D01*
X48822138Y-34117868D01*
X47887055Y-33181151D01*
X46664685Y-32673579D01*
X45341122Y-32672424D01*
X44117868Y-33177862D01*
X43181151Y-34112945D01*
X42673579Y-35335315D01*
X42672424Y-36658878D01*
X22101186Y-36658878D01*
X21895050Y-36573283D01*
X21247789Y-36572718D01*
X20649582Y-36819892D01*
X20191501Y-37277175D01*
X19943283Y-37874950D01*
X19942718Y-38522211D01*
X10056719Y-38522211D01*
X10057282Y-37877789D01*
X9810108Y-37279582D01*
X9352825Y-36821501D01*
X8755050Y-36573283D01*
X8107789Y-36572718D01*
X7509582Y-36819892D01*
X7051501Y-37277175D01*
X6803283Y-37874950D01*
X6802718Y-38522211D01*
X377000Y-38522211D01*
X377000Y-36353877D01*
X10722866Y-36353877D01*
X10840908Y-36639560D01*
X11059290Y-36858324D01*
X11344767Y-36976865D01*
X11653877Y-36977134D01*
X11939560Y-36859092D01*
X12158324Y-36640710D01*
X12276865Y-36355233D01*
X12276866Y-36353877D01*
X13222866Y-36353877D01*
X13340908Y-36639560D01*
X13559290Y-36858324D01*
X13844767Y-36976865D01*
X14153877Y-36977134D01*
X14439560Y-36859092D01*
X14658324Y-36640710D01*
X14776865Y-36355233D01*
X14776866Y-36353877D01*
X15222866Y-36353877D01*
X15340908Y-36639560D01*
X15559290Y-36858324D01*
X15844767Y-36976865D01*
X16153877Y-36977134D01*
X16439560Y-36859092D01*
X16658324Y-36640710D01*
X16776865Y-36355233D01*
X16776866Y-36353877D01*
X17722866Y-36353877D01*
X17840908Y-36639560D01*
X18059290Y-36858324D01*
X18344767Y-36976865D01*
X18653877Y-36977134D01*
X18939560Y-36859092D01*
X19158324Y-36640710D01*
X19276865Y-36355233D01*
X19277134Y-36046123D01*
X19159092Y-35760440D01*
X18940710Y-35541676D01*
X18655233Y-35423135D01*
X18346123Y-35422866D01*
X18060440Y-35540908D01*
X17841676Y-35759290D01*
X17723135Y-36044767D01*
X17722866Y-36353877D01*
X16776866Y-36353877D01*
X16777134Y-36046123D01*
X16659092Y-35760440D01*
X16440710Y-35541676D01*
X16155233Y-35423135D01*
X15846123Y-35422866D01*
X15560440Y-35540908D01*
X15341676Y-35759290D01*
X15223135Y-36044767D01*
X15222866Y-36353877D01*
X14776866Y-36353877D01*
X14777134Y-36046123D01*
X14659092Y-35760440D01*
X14440710Y-35541676D01*
X14155233Y-35423135D01*
X13846123Y-35422866D01*
X13560440Y-35540908D01*
X13341676Y-35759290D01*
X13223135Y-36044767D01*
X13222866Y-36353877D01*
X12276866Y-36353877D01*
X12277134Y-36046123D01*
X12159092Y-35760440D01*
X11940710Y-35541676D01*
X11655233Y-35423135D01*
X11346123Y-35422866D01*
X11060440Y-35540908D01*
X10841676Y-35759290D01*
X10723135Y-36044767D01*
X10722866Y-36353877D01*
X377000Y-36353877D01*
X377000Y-34902788D01*
X1228366Y-34902788D01*
X1345572Y-35186449D01*
X1562410Y-35403665D01*
X1845866Y-35521366D01*
X2152788Y-35521634D01*
X2436449Y-35404428D01*
X2653665Y-35187590D01*
X2668116Y-35152788D01*
X4728366Y-35152788D01*
X4845572Y-35436449D01*
X5062410Y-35653665D01*
X5345866Y-35771366D01*
X5652788Y-35771634D01*
X5936449Y-35654428D01*
X6153665Y-35437590D01*
X6271366Y-35154134D01*
X6271628Y-34853877D01*
X10222866Y-34853877D01*
X10340908Y-35139560D01*
X10559290Y-35358324D01*
X10844767Y-35476865D01*
X11153877Y-35477134D01*
X11439560Y-35359092D01*
X11658324Y-35140710D01*
X11776865Y-34855233D01*
X11776866Y-34853877D01*
X12222866Y-34853877D01*
X12340908Y-35139560D01*
X12559290Y-35358324D01*
X12844767Y-35476865D01*
X13153877Y-35477134D01*
X13439560Y-35359092D01*
X13658324Y-35140710D01*
X13776865Y-34855233D01*
X13776866Y-34853877D01*
X14222866Y-34853877D01*
X14340908Y-35139560D01*
X14559290Y-35358324D01*
X14844767Y-35476865D01*
X15153877Y-35477134D01*
X15439560Y-35359092D01*
X15658324Y-35140710D01*
X15776865Y-34855233D01*
X15776866Y-34853877D01*
X16222866Y-34853877D01*
X16340908Y-35139560D01*
X16559290Y-35358324D01*
X16844767Y-35476865D01*
X17153877Y-35477134D01*
X17439560Y-35359092D01*
X17658324Y-35140710D01*
X17776865Y-34855233D01*
X17776866Y-34853877D01*
X18222866Y-34853877D01*
X18340908Y-35139560D01*
X18559290Y-35358324D01*
X18844767Y-35476865D01*
X19153877Y-35477134D01*
X19439560Y-35359092D01*
X19658324Y-35140710D01*
X19776865Y-34855233D01*
X19777134Y-34546123D01*
X19659092Y-34260440D01*
X19622887Y-34224171D01*
X32272891Y-34224171D01*
X32368145Y-34454703D01*
X32544369Y-34631235D01*
X32774735Y-34726891D01*
X33024171Y-34727109D01*
X33254703Y-34631855D01*
X33299924Y-34586713D01*
X33344369Y-34631235D01*
X33574735Y-34726891D01*
X33824171Y-34727109D01*
X34054703Y-34631855D01*
X34099924Y-34586713D01*
X34144369Y-34631235D01*
X34374735Y-34726891D01*
X34624171Y-34727109D01*
X34854703Y-34631855D01*
X34899924Y-34586713D01*
X34944369Y-34631235D01*
X35174735Y-34726891D01*
X35424171Y-34727109D01*
X35654703Y-34631855D01*
X35699924Y-34586713D01*
X35744369Y-34631235D01*
X35974735Y-34726891D01*
X36224171Y-34727109D01*
X36454703Y-34631855D01*
X36499924Y-34586713D01*
X36544369Y-34631235D01*
X36774735Y-34726891D01*
X37024171Y-34727109D01*
X37254703Y-34631855D01*
X37299924Y-34586713D01*
X37344369Y-34631235D01*
X37574735Y-34726891D01*
X37824171Y-34727109D01*
X38054703Y-34631855D01*
X38099924Y-34586713D01*
X38144369Y-34631235D01*
X38374735Y-34726891D01*
X38624171Y-34727109D01*
X38854703Y-34631855D01*
X39031235Y-34455631D01*
X39126891Y-34225265D01*
X39127109Y-33975829D01*
X39031855Y-33745297D01*
X38855631Y-33568765D01*
X38625265Y-33473109D01*
X38375829Y-33472891D01*
X38145297Y-33568145D01*
X38100076Y-33613287D01*
X38055631Y-33568765D01*
X37825265Y-33473109D01*
X37575829Y-33472891D01*
X37345297Y-33568145D01*
X37300076Y-33613287D01*
X37255631Y-33568765D01*
X37025265Y-33473109D01*
X36775829Y-33472891D01*
X36545297Y-33568145D01*
X36500076Y-33613287D01*
X36455631Y-33568765D01*
X36225265Y-33473109D01*
X35975829Y-33472891D01*
X35745297Y-33568145D01*
X35700076Y-33613287D01*
X35655631Y-33568765D01*
X35425265Y-33473109D01*
X35175829Y-33472891D01*
X34945297Y-33568145D01*
X34900076Y-33613287D01*
X34855631Y-33568765D01*
X34625265Y-33473109D01*
X34375829Y-33472891D01*
X34145297Y-33568145D01*
X34100076Y-33613287D01*
X34055631Y-33568765D01*
X33825265Y-33473109D01*
X33575829Y-33472891D01*
X33345297Y-33568145D01*
X33300076Y-33613287D01*
X33255631Y-33568765D01*
X33025265Y-33473109D01*
X32775829Y-33472891D01*
X32545297Y-33568145D01*
X32368765Y-33744369D01*
X32273109Y-33974735D01*
X32272891Y-34224171D01*
X19622887Y-34224171D01*
X19440710Y-34041676D01*
X19155233Y-33923135D01*
X18846123Y-33922866D01*
X18560440Y-34040908D01*
X18341676Y-34259290D01*
X18223135Y-34544767D01*
X18222866Y-34853877D01*
X17776866Y-34853877D01*
X17777134Y-34546123D01*
X17659092Y-34260440D01*
X17440710Y-34041676D01*
X17155233Y-33923135D01*
X16846123Y-33922866D01*
X16560440Y-34040908D01*
X16341676Y-34259290D01*
X16223135Y-34544767D01*
X16222866Y-34853877D01*
X15776866Y-34853877D01*
X15777134Y-34546123D01*
X15659092Y-34260440D01*
X15440710Y-34041676D01*
X15155233Y-33923135D01*
X14846123Y-33922866D01*
X14560440Y-34040908D01*
X14341676Y-34259290D01*
X14223135Y-34544767D01*
X14222866Y-34853877D01*
X13776866Y-34853877D01*
X13777134Y-34546123D01*
X13659092Y-34260440D01*
X13440710Y-34041676D01*
X13155233Y-33923135D01*
X12846123Y-33922866D01*
X12560440Y-34040908D01*
X12341676Y-34259290D01*
X12223135Y-34544767D01*
X12222866Y-34853877D01*
X11776866Y-34853877D01*
X11777134Y-34546123D01*
X11659092Y-34260440D01*
X11440710Y-34041676D01*
X11155233Y-33923135D01*
X10846123Y-33922866D01*
X10560440Y-34040908D01*
X10341676Y-34259290D01*
X10223135Y-34544767D01*
X10222866Y-34853877D01*
X6271628Y-34853877D01*
X6271634Y-34847212D01*
X6154428Y-34563551D01*
X5937590Y-34346335D01*
X5654134Y-34228634D01*
X5347212Y-34228366D01*
X5063551Y-34345572D01*
X4846335Y-34562410D01*
X4728634Y-34845866D01*
X4728366Y-35152788D01*
X2668116Y-35152788D01*
X2771366Y-34904134D01*
X2771634Y-34597212D01*
X2654428Y-34313551D01*
X2437590Y-34096335D01*
X2154134Y-33978634D01*
X1847212Y-33978366D01*
X1563551Y-34095572D01*
X1346335Y-34312410D01*
X1228634Y-34595866D01*
X1228366Y-34902788D01*
X377000Y-34902788D01*
X377000Y-33124171D01*
X5122891Y-33124171D01*
X5218145Y-33354703D01*
X5394369Y-33531235D01*
X5624735Y-33626891D01*
X5874171Y-33627109D01*
X6104703Y-33531855D01*
X6281235Y-33355631D01*
X6376891Y-33125265D01*
X6377109Y-32875829D01*
X6363219Y-32842211D01*
X6802718Y-32842211D01*
X7049892Y-33440418D01*
X7507175Y-33898499D01*
X8104950Y-34146717D01*
X8752211Y-34147282D01*
X9350418Y-33900108D01*
X9808499Y-33442825D01*
X9928480Y-33153877D01*
X10722866Y-33153877D01*
X10840908Y-33439560D01*
X11059290Y-33658324D01*
X11344767Y-33776865D01*
X11653877Y-33777134D01*
X11939560Y-33659092D01*
X12158324Y-33440710D01*
X12276865Y-33155233D01*
X12276866Y-33153877D01*
X13222866Y-33153877D01*
X13340908Y-33439560D01*
X13559290Y-33658324D01*
X13844767Y-33776865D01*
X14153877Y-33777134D01*
X14439560Y-33659092D01*
X14658324Y-33440710D01*
X14776865Y-33155233D01*
X14776866Y-33153877D01*
X15222866Y-33153877D01*
X15340908Y-33439560D01*
X15559290Y-33658324D01*
X15844767Y-33776865D01*
X16153877Y-33777134D01*
X16439560Y-33659092D01*
X16658324Y-33440710D01*
X16776865Y-33155233D01*
X16776866Y-33153877D01*
X17722866Y-33153877D01*
X17840908Y-33439560D01*
X18059290Y-33658324D01*
X18344767Y-33776865D01*
X18653877Y-33777134D01*
X18939560Y-33659092D01*
X19158324Y-33440710D01*
X19276865Y-33155233D01*
X19277134Y-32846123D01*
X19275518Y-32842211D01*
X19942718Y-32842211D01*
X20189892Y-33440418D01*
X20647175Y-33898499D01*
X21244950Y-34146717D01*
X21892211Y-34147282D01*
X22490418Y-33900108D01*
X22948499Y-33442825D01*
X23196717Y-32845050D01*
X23196884Y-32652788D01*
X23228366Y-32652788D01*
X23345572Y-32936449D01*
X23562410Y-33153665D01*
X23845866Y-33271366D01*
X24152788Y-33271634D01*
X24436449Y-33154428D01*
X24438091Y-33152788D01*
X40028366Y-33152788D01*
X40145572Y-33436449D01*
X40362410Y-33653665D01*
X40645866Y-33771366D01*
X40952788Y-33771634D01*
X41236449Y-33654428D01*
X41453665Y-33437590D01*
X41571366Y-33154134D01*
X41571634Y-32847212D01*
X41454428Y-32563551D01*
X41237590Y-32346335D01*
X40954134Y-32228634D01*
X40647212Y-32228366D01*
X40363551Y-32345572D01*
X40146335Y-32562410D01*
X40028634Y-32845866D01*
X40028366Y-33152788D01*
X24438091Y-33152788D01*
X24653665Y-32937590D01*
X24771366Y-32654134D01*
X24771634Y-32347212D01*
X24654428Y-32063551D01*
X24437590Y-31846335D01*
X24154134Y-31728634D01*
X23847212Y-31728366D01*
X23563551Y-31845572D01*
X23346335Y-32062410D01*
X23228634Y-32345866D01*
X23228366Y-32652788D01*
X23196884Y-32652788D01*
X23197282Y-32197789D01*
X22950108Y-31599582D01*
X22703744Y-31352788D01*
X30228366Y-31352788D01*
X30345572Y-31636449D01*
X30562410Y-31853665D01*
X30845866Y-31971366D01*
X31152788Y-31971634D01*
X31436449Y-31854428D01*
X31653665Y-31637590D01*
X31771366Y-31354134D01*
X31771634Y-31047212D01*
X31711960Y-30902788D01*
X46728366Y-30902788D01*
X46845572Y-31186449D01*
X47062410Y-31403665D01*
X47345866Y-31521366D01*
X47652788Y-31521634D01*
X47936449Y-31404428D01*
X48153665Y-31187590D01*
X48271366Y-30904134D01*
X48271634Y-30597212D01*
X48154428Y-30313551D01*
X47937590Y-30096335D01*
X47654134Y-29978634D01*
X47347212Y-29978366D01*
X47063551Y-30095572D01*
X46846335Y-30312410D01*
X46728634Y-30595866D01*
X46728366Y-30902788D01*
X31711960Y-30902788D01*
X31654428Y-30763551D01*
X31437590Y-30546335D01*
X31154134Y-30428634D01*
X30847212Y-30428366D01*
X30563551Y-30545572D01*
X30346335Y-30762410D01*
X30228634Y-31045866D01*
X30228366Y-31352788D01*
X22703744Y-31352788D01*
X22492825Y-31141501D01*
X21895050Y-30893283D01*
X21247789Y-30892718D01*
X20649582Y-31139892D01*
X20191501Y-31597175D01*
X19943283Y-32194950D01*
X19942718Y-32842211D01*
X19275518Y-32842211D01*
X19159092Y-32560440D01*
X18940710Y-32341676D01*
X18655233Y-32223135D01*
X18346123Y-32222866D01*
X18060440Y-32340908D01*
X17841676Y-32559290D01*
X17723135Y-32844767D01*
X17722866Y-33153877D01*
X16776866Y-33153877D01*
X16777134Y-32846123D01*
X16659092Y-32560440D01*
X16440710Y-32341676D01*
X16155233Y-32223135D01*
X15846123Y-32222866D01*
X15560440Y-32340908D01*
X15341676Y-32559290D01*
X15223135Y-32844767D01*
X15222866Y-33153877D01*
X14776866Y-33153877D01*
X14777134Y-32846123D01*
X14659092Y-32560440D01*
X14440710Y-32341676D01*
X14155233Y-32223135D01*
X13846123Y-32222866D01*
X13560440Y-32340908D01*
X13341676Y-32559290D01*
X13223135Y-32844767D01*
X13222866Y-33153877D01*
X12276866Y-33153877D01*
X12277134Y-32846123D01*
X12159092Y-32560440D01*
X11940710Y-32341676D01*
X11655233Y-32223135D01*
X11346123Y-32222866D01*
X11060440Y-32340908D01*
X10841676Y-32559290D01*
X10723135Y-32844767D01*
X10722866Y-33153877D01*
X9928480Y-33153877D01*
X10056717Y-32845050D01*
X10057282Y-32197789D01*
X9832543Y-31653877D01*
X10222866Y-31653877D01*
X10340908Y-31939560D01*
X10559290Y-32158324D01*
X10844767Y-32276865D01*
X11153877Y-32277134D01*
X11439560Y-32159092D01*
X11658324Y-31940710D01*
X11776865Y-31655233D01*
X11776866Y-31653877D01*
X12222866Y-31653877D01*
X12340908Y-31939560D01*
X12559290Y-32158324D01*
X12844767Y-32276865D01*
X13153877Y-32277134D01*
X13439560Y-32159092D01*
X13658324Y-31940710D01*
X13776865Y-31655233D01*
X13776866Y-31653877D01*
X14222866Y-31653877D01*
X14340908Y-31939560D01*
X14559290Y-32158324D01*
X14844767Y-32276865D01*
X15153877Y-32277134D01*
X15439560Y-32159092D01*
X15658324Y-31940710D01*
X15776865Y-31655233D01*
X15776866Y-31653877D01*
X16222866Y-31653877D01*
X16340908Y-31939560D01*
X16559290Y-32158324D01*
X16844767Y-32276865D01*
X17153877Y-32277134D01*
X17439560Y-32159092D01*
X17658324Y-31940710D01*
X17776865Y-31655233D01*
X17776866Y-31653877D01*
X18222866Y-31653877D01*
X18340908Y-31939560D01*
X18559290Y-32158324D01*
X18844767Y-32276865D01*
X19153877Y-32277134D01*
X19439560Y-32159092D01*
X19658324Y-31940710D01*
X19776865Y-31655233D01*
X19777134Y-31346123D01*
X19659092Y-31060440D01*
X19440710Y-30841676D01*
X19155233Y-30723135D01*
X18846123Y-30722866D01*
X18560440Y-30840908D01*
X18341676Y-31059290D01*
X18223135Y-31344767D01*
X18222866Y-31653877D01*
X17776866Y-31653877D01*
X17777134Y-31346123D01*
X17659092Y-31060440D01*
X17440710Y-30841676D01*
X17155233Y-30723135D01*
X16846123Y-30722866D01*
X16560440Y-30840908D01*
X16341676Y-31059290D01*
X16223135Y-31344767D01*
X16222866Y-31653877D01*
X15776866Y-31653877D01*
X15777134Y-31346123D01*
X15659092Y-31060440D01*
X15440710Y-30841676D01*
X15155233Y-30723135D01*
X14846123Y-30722866D01*
X14560440Y-30840908D01*
X14341676Y-31059290D01*
X14223135Y-31344767D01*
X14222866Y-31653877D01*
X13776866Y-31653877D01*
X13777134Y-31346123D01*
X13659092Y-31060440D01*
X13440710Y-30841676D01*
X13155233Y-30723135D01*
X12846123Y-30722866D01*
X12560440Y-30840908D01*
X12341676Y-31059290D01*
X12223135Y-31344767D01*
X12222866Y-31653877D01*
X11776866Y-31653877D01*
X11777134Y-31346123D01*
X11659092Y-31060440D01*
X11440710Y-30841676D01*
X11155233Y-30723135D01*
X10846123Y-30722866D01*
X10560440Y-30840908D01*
X10341676Y-31059290D01*
X10223135Y-31344767D01*
X10222866Y-31653877D01*
X9832543Y-31653877D01*
X9810108Y-31599582D01*
X9352825Y-31141501D01*
X8755050Y-30893283D01*
X8107789Y-30892718D01*
X7509582Y-31139892D01*
X7051501Y-31597175D01*
X6803283Y-32194950D01*
X6802718Y-32842211D01*
X6363219Y-32842211D01*
X6281855Y-32645297D01*
X6105631Y-32468765D01*
X5875265Y-32373109D01*
X5625829Y-32372891D01*
X5395297Y-32468145D01*
X5218765Y-32644369D01*
X5123109Y-32874735D01*
X5122891Y-33124171D01*
X377000Y-33124171D01*
X377000Y-30602788D01*
X878366Y-30602788D01*
X995572Y-30886449D01*
X1212410Y-31103665D01*
X1495866Y-31221366D01*
X1802788Y-31221634D01*
X2086449Y-31104428D01*
X2303665Y-30887590D01*
X2421366Y-30604134D01*
X2421479Y-30474171D01*
X5972891Y-30474171D01*
X6068145Y-30704703D01*
X6244369Y-30881235D01*
X6474735Y-30976891D01*
X6724171Y-30977109D01*
X6954703Y-30881855D01*
X7131235Y-30705631D01*
X7226891Y-30475265D01*
X7227109Y-30225829D01*
X7131855Y-29995297D01*
X6955631Y-29818765D01*
X6725265Y-29723109D01*
X6475829Y-29722891D01*
X6245297Y-29818145D01*
X6068765Y-29994369D01*
X5973109Y-30224735D01*
X5972891Y-30474171D01*
X2421479Y-30474171D01*
X2421634Y-30297212D01*
X2304428Y-30013551D01*
X2087590Y-29796335D01*
X1804134Y-29678634D01*
X1497212Y-29678366D01*
X1213551Y-29795572D01*
X996335Y-30012410D01*
X878634Y-30295866D01*
X878366Y-30602788D01*
X377000Y-30602788D01*
X377000Y-29574171D01*
X7972891Y-29574171D01*
X8068145Y-29804703D01*
X8244369Y-29981235D01*
X8474735Y-30076891D01*
X8724171Y-30077109D01*
X8954703Y-29981855D01*
X9131235Y-29805631D01*
X9206583Y-29624171D01*
X21122891Y-29624171D01*
X21218145Y-29854703D01*
X21394369Y-30031235D01*
X21624735Y-30126891D01*
X21874171Y-30127109D01*
X21881281Y-30124171D01*
X22622891Y-30124171D01*
X22718145Y-30354703D01*
X22894369Y-30531235D01*
X23124735Y-30626891D01*
X23374171Y-30627109D01*
X23554041Y-30552788D01*
X27928366Y-30552788D01*
X28045572Y-30836449D01*
X28262410Y-31053665D01*
X28545866Y-31171366D01*
X28852788Y-31171634D01*
X29136449Y-31054428D01*
X29353665Y-30837590D01*
X29471366Y-30554134D01*
X29471634Y-30247212D01*
X29354428Y-29963551D01*
X29137590Y-29746335D01*
X28854134Y-29628634D01*
X28547212Y-29628366D01*
X28263551Y-29745572D01*
X28046335Y-29962410D01*
X27928634Y-30245866D01*
X27928366Y-30552788D01*
X23554041Y-30552788D01*
X23604703Y-30531855D01*
X23781235Y-30355631D01*
X23876891Y-30125265D01*
X23877109Y-29875829D01*
X23781855Y-29645297D01*
X23605631Y-29468765D01*
X23375265Y-29373109D01*
X23125829Y-29372891D01*
X22895297Y-29468145D01*
X22718765Y-29644369D01*
X22623109Y-29874735D01*
X22622891Y-30124171D01*
X21881281Y-30124171D01*
X22104703Y-30031855D01*
X22281235Y-29855631D01*
X22376891Y-29625265D01*
X22377109Y-29375829D01*
X22281855Y-29145297D01*
X22105631Y-28968765D01*
X21875265Y-28873109D01*
X21625829Y-28872891D01*
X21395297Y-28968145D01*
X21218765Y-29144369D01*
X21123109Y-29374735D01*
X21122891Y-29624171D01*
X9206583Y-29624171D01*
X9226891Y-29575265D01*
X9227109Y-29325829D01*
X9131855Y-29095297D01*
X8955631Y-28918765D01*
X8725265Y-28823109D01*
X8475829Y-28822891D01*
X8245297Y-28918145D01*
X8068765Y-29094369D01*
X7973109Y-29324735D01*
X7972891Y-29574171D01*
X377000Y-29574171D01*
X377000Y-28652788D01*
X10978366Y-28652788D01*
X11095572Y-28936449D01*
X11312410Y-29153665D01*
X11595866Y-29271366D01*
X11902788Y-29271634D01*
X12186449Y-29154428D01*
X12403665Y-28937590D01*
X12521366Y-28654134D01*
X12521392Y-28624171D01*
X24622891Y-28624171D01*
X24718145Y-28854703D01*
X24894369Y-29031235D01*
X25124735Y-29126891D01*
X25374171Y-29127109D01*
X25604703Y-29031855D01*
X25781235Y-28855631D01*
X25876891Y-28625265D01*
X25877109Y-28375829D01*
X25781855Y-28145297D01*
X25605631Y-27968765D01*
X25375265Y-27873109D01*
X25125829Y-27872891D01*
X24895297Y-27968145D01*
X24718765Y-28144369D01*
X24623109Y-28374735D01*
X24622891Y-28624171D01*
X12521392Y-28624171D01*
X12521634Y-28347212D01*
X12404428Y-28063551D01*
X12187590Y-27846335D01*
X11904134Y-27728634D01*
X11597212Y-27728366D01*
X11313551Y-27845572D01*
X11096335Y-28062410D01*
X10978634Y-28345866D01*
X10978366Y-28652788D01*
X377000Y-28652788D01*
X377000Y-27802788D01*
X2978366Y-27802788D01*
X3095572Y-28086449D01*
X3312410Y-28303665D01*
X3595866Y-28421366D01*
X3902788Y-28421634D01*
X4186449Y-28304428D01*
X4403665Y-28087590D01*
X4521366Y-27804134D01*
X4521523Y-27624171D01*
X19622891Y-27624171D01*
X19718145Y-27854703D01*
X19894369Y-28031235D01*
X20124735Y-28126891D01*
X20374171Y-28127109D01*
X20604703Y-28031855D01*
X20781235Y-27855631D01*
X20876891Y-27625265D01*
X20877109Y-27375829D01*
X20781855Y-27145297D01*
X20605631Y-26968765D01*
X20375265Y-26873109D01*
X20125829Y-26872891D01*
X19895297Y-26968145D01*
X19718765Y-27144369D01*
X19623109Y-27374735D01*
X19622891Y-27624171D01*
X4521523Y-27624171D01*
X4521634Y-27497212D01*
X4404428Y-27213551D01*
X4187590Y-26996335D01*
X3904134Y-26878634D01*
X3597212Y-26878366D01*
X3313551Y-26995572D01*
X3096335Y-27212410D01*
X2978634Y-27495866D01*
X2978366Y-27802788D01*
X377000Y-27802788D01*
X377000Y-26252788D01*
X2728366Y-26252788D01*
X2845572Y-26536449D01*
X3062410Y-26753665D01*
X3345866Y-26871366D01*
X3652788Y-26871634D01*
X3936449Y-26754428D01*
X4153665Y-26537590D01*
X4271366Y-26254134D01*
X4271634Y-25947212D01*
X4154428Y-25663551D01*
X3937590Y-25446335D01*
X3832717Y-25402788D01*
X16978366Y-25402788D01*
X17095572Y-25686449D01*
X17312410Y-25903665D01*
X17595866Y-26021366D01*
X17902788Y-26021634D01*
X18186449Y-25904428D01*
X18403665Y-25687590D01*
X18521366Y-25404134D01*
X18521392Y-25374171D01*
X20122891Y-25374171D01*
X20218145Y-25604703D01*
X20394369Y-25781235D01*
X20624735Y-25876891D01*
X20874171Y-25877109D01*
X21104703Y-25781855D01*
X21281235Y-25605631D01*
X21376891Y-25375265D01*
X21377021Y-25226893D01*
X21624171Y-25227109D01*
X21854703Y-25131855D01*
X22031235Y-24955631D01*
X22042299Y-24928986D01*
X22144369Y-25031235D01*
X22374735Y-25126891D01*
X22624171Y-25127109D01*
X22854703Y-25031855D01*
X23031235Y-24855631D01*
X23065060Y-24774171D01*
X23522891Y-24774171D01*
X23618145Y-25004703D01*
X23794369Y-25181235D01*
X24024735Y-25276891D01*
X24274171Y-25277109D01*
X24504703Y-25181855D01*
X24681235Y-25005631D01*
X24776891Y-24775265D01*
X24777109Y-24525829D01*
X24681855Y-24295297D01*
X24505631Y-24118765D01*
X24275265Y-24023109D01*
X24025829Y-24022891D01*
X23795297Y-24118145D01*
X23618765Y-24294369D01*
X23523109Y-24524735D01*
X23522891Y-24774171D01*
X23065060Y-24774171D01*
X23126891Y-24625265D01*
X23127109Y-24375829D01*
X23031855Y-24145297D01*
X22855631Y-23968765D01*
X22625265Y-23873109D01*
X22375829Y-23872891D01*
X22145297Y-23968145D01*
X21968765Y-24144369D01*
X21957701Y-24171014D01*
X21855631Y-24068765D01*
X21625265Y-23973109D01*
X21375829Y-23972891D01*
X21145297Y-24068145D01*
X20968765Y-24244369D01*
X20873109Y-24474735D01*
X20872979Y-24623107D01*
X20625829Y-24622891D01*
X20395297Y-24718145D01*
X20218765Y-24894369D01*
X20123109Y-25124735D01*
X20122891Y-25374171D01*
X18521392Y-25374171D01*
X18521634Y-25097212D01*
X18404428Y-24813551D01*
X18187590Y-24596335D01*
X17904134Y-24478634D01*
X17597212Y-24478366D01*
X17313551Y-24595572D01*
X17096335Y-24812410D01*
X16978634Y-25095866D01*
X16978366Y-25402788D01*
X3832717Y-25402788D01*
X3654134Y-25328634D01*
X3347212Y-25328366D01*
X3063551Y-25445572D01*
X2846335Y-25662410D01*
X2728634Y-25945866D01*
X2728366Y-26252788D01*
X377000Y-26252788D01*
X377000Y-23052788D01*
X21028366Y-23052788D01*
X21145572Y-23336449D01*
X21362410Y-23553665D01*
X21645866Y-23671366D01*
X21952788Y-23671634D01*
X22236449Y-23554428D01*
X22388353Y-23402788D01*
X23728366Y-23402788D01*
X23845572Y-23686449D01*
X24062410Y-23903665D01*
X24345866Y-24021366D01*
X24652788Y-24021634D01*
X24936449Y-23904428D01*
X24966758Y-23874171D01*
X25372891Y-23874171D01*
X25373000Y-23874435D01*
X25373000Y-27000000D01*
X25383006Y-27049410D01*
X25410197Y-27089803D01*
X26910197Y-28589803D01*
X26952211Y-28617666D01*
X27000000Y-28627000D01*
X30250000Y-28627000D01*
X30299410Y-28616994D01*
X30339803Y-28589803D01*
X31339803Y-27589803D01*
X31367666Y-27547789D01*
X31377000Y-27500000D01*
X31377000Y-26274171D01*
X36672891Y-26274171D01*
X36768145Y-26504703D01*
X36944369Y-26681235D01*
X37174735Y-26776891D01*
X37424171Y-26777109D01*
X37654703Y-26681855D01*
X37831235Y-26505631D01*
X37926891Y-26275265D01*
X37926998Y-26152788D01*
X47728366Y-26152788D01*
X47845572Y-26436449D01*
X48062410Y-26653665D01*
X48345866Y-26771366D01*
X48652788Y-26771634D01*
X48936449Y-26654428D01*
X49153665Y-26437590D01*
X49271366Y-26154134D01*
X49271634Y-25847212D01*
X49154428Y-25563551D01*
X48937590Y-25346335D01*
X48654134Y-25228634D01*
X48347212Y-25228366D01*
X48063551Y-25345572D01*
X47846335Y-25562410D01*
X47728634Y-25845866D01*
X47728366Y-26152788D01*
X37926998Y-26152788D01*
X37927109Y-26025829D01*
X37831855Y-25795297D01*
X37655631Y-25618765D01*
X37425265Y-25523109D01*
X37175829Y-25522891D01*
X36945297Y-25618145D01*
X36768765Y-25794369D01*
X36673109Y-26024735D01*
X36672891Y-26274171D01*
X31377000Y-26274171D01*
X31377000Y-25802606D01*
X31552606Y-25627000D01*
X34800000Y-25627000D01*
X34849410Y-25616994D01*
X34891035Y-25588553D01*
X34918315Y-25546159D01*
X34927000Y-25500000D01*
X34927000Y-25474171D01*
X35372891Y-25474171D01*
X35468145Y-25704703D01*
X35644369Y-25881235D01*
X35874735Y-25976891D01*
X36124171Y-25977109D01*
X36354703Y-25881855D01*
X36531235Y-25705631D01*
X36626891Y-25475265D01*
X36627109Y-25225829D01*
X36531855Y-24995297D01*
X36355631Y-24818765D01*
X36125265Y-24723109D01*
X35875829Y-24722891D01*
X35645297Y-24818145D01*
X35468765Y-24994369D01*
X35373109Y-25224735D01*
X35372891Y-25474171D01*
X34927000Y-25474171D01*
X34927000Y-24474171D01*
X43672891Y-24474171D01*
X43768145Y-24704703D01*
X43944369Y-24881235D01*
X44174735Y-24976891D01*
X44424171Y-24977109D01*
X44654703Y-24881855D01*
X44831235Y-24705631D01*
X44926891Y-24475265D01*
X44927109Y-24225829D01*
X44831855Y-23995297D01*
X44655631Y-23818765D01*
X44425265Y-23723109D01*
X44175829Y-23722891D01*
X43945297Y-23818145D01*
X43768765Y-23994369D01*
X43673109Y-24224735D01*
X43672891Y-24474171D01*
X34927000Y-24474171D01*
X34927000Y-22552788D01*
X35528366Y-22552788D01*
X35645572Y-22836449D01*
X35862410Y-23053665D01*
X36145866Y-23171366D01*
X36452788Y-23171634D01*
X36736449Y-23054428D01*
X36953665Y-22837590D01*
X36988877Y-22752788D01*
X37228366Y-22752788D01*
X37345572Y-23036449D01*
X37562410Y-23253665D01*
X37845866Y-23371366D01*
X38152788Y-23371634D01*
X38436449Y-23254428D01*
X38653665Y-23037590D01*
X38771366Y-22754134D01*
X38771634Y-22447212D01*
X38711960Y-22302788D01*
X45378366Y-22302788D01*
X45495572Y-22586449D01*
X45712410Y-22803665D01*
X45995866Y-22921366D01*
X46302788Y-22921634D01*
X46586449Y-22804428D01*
X46803665Y-22587590D01*
X46921366Y-22304134D01*
X46921634Y-21997212D01*
X46804428Y-21713551D01*
X46587590Y-21496335D01*
X46304134Y-21378634D01*
X45997212Y-21378366D01*
X45713551Y-21495572D01*
X45496335Y-21712410D01*
X45378634Y-21995866D01*
X45378366Y-22302788D01*
X38711960Y-22302788D01*
X38654428Y-22163551D01*
X38437590Y-21946335D01*
X38154134Y-21828634D01*
X37847212Y-21828366D01*
X37563551Y-21945572D01*
X37346335Y-22162410D01*
X37228634Y-22445866D01*
X37228366Y-22752788D01*
X36988877Y-22752788D01*
X37071366Y-22554134D01*
X37071634Y-22247212D01*
X36954428Y-21963551D01*
X36737590Y-21746335D01*
X36454134Y-21628634D01*
X36147212Y-21628366D01*
X35863551Y-21745572D01*
X35646335Y-21962410D01*
X35528634Y-22245866D01*
X35528366Y-22552788D01*
X34927000Y-22552788D01*
X34927000Y-22500000D01*
X34916994Y-22450590D01*
X34888553Y-22408965D01*
X34846159Y-22381685D01*
X34800000Y-22373000D01*
X32765546Y-22373000D01*
X32826891Y-22225265D01*
X32827109Y-21975829D01*
X32731855Y-21745297D01*
X32555631Y-21568765D01*
X32325265Y-21473109D01*
X32075829Y-21472891D01*
X31845297Y-21568145D01*
X31677100Y-21736048D01*
X31677109Y-21725829D01*
X31627000Y-21604556D01*
X31627000Y-21500000D01*
X31616994Y-21450590D01*
X31589803Y-21410197D01*
X31363978Y-21184372D01*
X31436449Y-21154428D01*
X31653665Y-20937590D01*
X31771366Y-20654134D01*
X31771585Y-20402788D01*
X32878366Y-20402788D01*
X32995572Y-20686449D01*
X33212410Y-20903665D01*
X33495866Y-21021366D01*
X33802788Y-21021634D01*
X34086449Y-20904428D01*
X34303665Y-20687590D01*
X34421366Y-20404134D01*
X34421634Y-20097212D01*
X34304428Y-19813551D01*
X34087590Y-19596335D01*
X33804134Y-19478634D01*
X33497212Y-19478366D01*
X33213551Y-19595572D01*
X32996335Y-19812410D01*
X32878634Y-20095866D01*
X32878366Y-20402788D01*
X31771585Y-20402788D01*
X31771634Y-20347212D01*
X31654428Y-20063551D01*
X31437590Y-19846335D01*
X31154134Y-19728634D01*
X30847212Y-19728366D01*
X30627000Y-19819355D01*
X30627000Y-19750000D01*
X30616994Y-19700590D01*
X30589803Y-19660197D01*
X30089803Y-19160197D01*
X30047789Y-19132334D01*
X30000000Y-19123000D01*
X29459859Y-19123000D01*
X29455631Y-19118765D01*
X29225265Y-19023109D01*
X28975829Y-19022891D01*
X28745297Y-19118145D01*
X28740434Y-19123000D01*
X26500000Y-19123000D01*
X26450590Y-19133006D01*
X26410197Y-19160197D01*
X25410197Y-20160197D01*
X25382334Y-20202211D01*
X25373000Y-20250000D01*
X25373000Y-23749453D01*
X25372891Y-23874171D01*
X24966758Y-23874171D01*
X25153665Y-23687590D01*
X25271366Y-23404134D01*
X25271634Y-23097212D01*
X25154428Y-22813551D01*
X24937590Y-22596335D01*
X24654134Y-22478634D01*
X24347212Y-22478366D01*
X24063551Y-22595572D01*
X23846335Y-22812410D01*
X23728634Y-23095866D01*
X23728366Y-23402788D01*
X22388353Y-23402788D01*
X22453665Y-23337590D01*
X22571366Y-23054134D01*
X22571634Y-22747212D01*
X22454428Y-22463551D01*
X22237590Y-22246335D01*
X21954134Y-22128634D01*
X21647212Y-22128366D01*
X21363551Y-22245572D01*
X21146335Y-22462410D01*
X21028634Y-22745866D01*
X21028366Y-23052788D01*
X377000Y-23052788D01*
X377000Y-21152788D01*
X7928366Y-21152788D01*
X8045572Y-21436449D01*
X8262410Y-21653665D01*
X8545866Y-21771366D01*
X8852788Y-21771634D01*
X9136449Y-21654428D01*
X9353665Y-21437590D01*
X9471366Y-21154134D01*
X9471432Y-21077788D01*
X10403366Y-21077788D01*
X10520572Y-21361449D01*
X10737410Y-21578665D01*
X11020866Y-21696366D01*
X11327788Y-21696634D01*
X11611449Y-21579428D01*
X11828665Y-21362590D01*
X11946366Y-21079134D01*
X11946634Y-20772212D01*
X11829428Y-20488551D01*
X11612590Y-20271335D01*
X11329134Y-20153634D01*
X11022212Y-20153366D01*
X10738551Y-20270572D01*
X10521335Y-20487410D01*
X10403634Y-20770866D01*
X10403366Y-21077788D01*
X9471432Y-21077788D01*
X9471634Y-20847212D01*
X9354428Y-20563551D01*
X9137590Y-20346335D01*
X8854134Y-20228634D01*
X8547212Y-20228366D01*
X8263551Y-20345572D01*
X8046335Y-20562410D01*
X7928634Y-20845866D01*
X7928366Y-21152788D01*
X377000Y-21152788D01*
X377000Y-18827788D01*
X10703366Y-18827788D01*
X10820572Y-19111449D01*
X11037410Y-19328665D01*
X11320866Y-19446366D01*
X11627788Y-19446634D01*
X11911449Y-19329428D01*
X12088396Y-19152788D01*
X15628366Y-19152788D01*
X15745572Y-19436449D01*
X15874547Y-19565649D01*
X15758835Y-19681160D01*
X15641134Y-19964616D01*
X15640866Y-20271538D01*
X15758072Y-20555199D01*
X15974910Y-20772415D01*
X16258366Y-20890116D01*
X16268920Y-20890125D01*
X16096335Y-21062410D01*
X15978634Y-21345866D01*
X15978366Y-21652788D01*
X16095572Y-21936449D01*
X16312410Y-22153665D01*
X16595866Y-22271366D01*
X16902788Y-22271634D01*
X17186449Y-22154428D01*
X17403665Y-21937590D01*
X17521366Y-21654134D01*
X17521629Y-21352788D01*
X19828366Y-21352788D01*
X19945572Y-21636449D01*
X20162410Y-21853665D01*
X20445866Y-21971366D01*
X20752788Y-21971634D01*
X21036449Y-21854428D01*
X21253665Y-21637590D01*
X21371366Y-21354134D01*
X21371634Y-21047212D01*
X21254428Y-20763551D01*
X21037590Y-20546335D01*
X20754134Y-20428634D01*
X20447212Y-20428366D01*
X20163551Y-20545572D01*
X19946335Y-20762410D01*
X19828634Y-21045866D01*
X19828366Y-21352788D01*
X17521629Y-21352788D01*
X17521634Y-21347212D01*
X17404428Y-21063551D01*
X17231424Y-20890245D01*
X17390288Y-20890384D01*
X17673949Y-20773178D01*
X17891165Y-20556340D01*
X18008866Y-20272884D01*
X18009134Y-19965962D01*
X17891928Y-19682301D01*
X17775431Y-19565601D01*
X17903665Y-19437590D01*
X18021366Y-19154134D01*
X18021634Y-18847212D01*
X17904428Y-18563551D01*
X17825453Y-18484438D01*
X17891165Y-18418840D01*
X17918592Y-18352788D01*
X47328366Y-18352788D01*
X47445572Y-18636449D01*
X47662410Y-18853665D01*
X47945866Y-18971366D01*
X48252788Y-18971634D01*
X48536449Y-18854428D01*
X48753665Y-18637590D01*
X48871366Y-18354134D01*
X48871634Y-18047212D01*
X48754428Y-17763551D01*
X48537590Y-17546335D01*
X48254134Y-17428634D01*
X47947212Y-17428366D01*
X47663551Y-17545572D01*
X47446335Y-17762410D01*
X47328634Y-18045866D01*
X47328366Y-18352788D01*
X17918592Y-18352788D01*
X18008866Y-18135384D01*
X18009134Y-17828462D01*
X17891928Y-17544801D01*
X17700250Y-17352788D01*
X36428366Y-17352788D01*
X36545572Y-17636449D01*
X36762410Y-17853665D01*
X37045866Y-17971366D01*
X37352788Y-17971634D01*
X37636449Y-17854428D01*
X37853665Y-17637590D01*
X37971366Y-17354134D01*
X37971634Y-17047212D01*
X37932619Y-16952788D01*
X39828366Y-16952788D01*
X39945572Y-17236449D01*
X40162410Y-17453665D01*
X40445866Y-17571366D01*
X40752788Y-17571634D01*
X41036449Y-17454428D01*
X41253665Y-17237590D01*
X41371366Y-16954134D01*
X41371634Y-16647212D01*
X41254428Y-16363551D01*
X41037590Y-16146335D01*
X40754134Y-16028634D01*
X40447212Y-16028366D01*
X40163551Y-16145572D01*
X39946335Y-16362410D01*
X39828634Y-16645866D01*
X39828366Y-16952788D01*
X37932619Y-16952788D01*
X37854428Y-16763551D01*
X37637590Y-16546335D01*
X37354134Y-16428634D01*
X37047212Y-16428366D01*
X36763551Y-16545572D01*
X36546335Y-16762410D01*
X36428634Y-17045866D01*
X36428366Y-17352788D01*
X17700250Y-17352788D01*
X17675090Y-17327585D01*
X17391634Y-17209884D01*
X17084712Y-17209616D01*
X16824710Y-17317046D01*
X16566634Y-17209884D01*
X16259712Y-17209616D01*
X15976051Y-17326822D01*
X15758835Y-17543660D01*
X15641134Y-17827116D01*
X15640866Y-18134038D01*
X15758072Y-18417699D01*
X15824569Y-18484312D01*
X15746335Y-18562410D01*
X15628634Y-18845866D01*
X15628366Y-19152788D01*
X12088396Y-19152788D01*
X12128665Y-19112590D01*
X12246366Y-18829134D01*
X12246634Y-18522212D01*
X12129428Y-18238551D01*
X11912590Y-18021335D01*
X11629134Y-17903634D01*
X11322212Y-17903366D01*
X11038551Y-18020572D01*
X10821335Y-18237410D01*
X10703634Y-18520866D01*
X10703366Y-18827788D01*
X377000Y-18827788D01*
X377000Y-14902788D01*
X478366Y-14902788D01*
X595572Y-15186449D01*
X812410Y-15403665D01*
X1044632Y-15500092D01*
X813551Y-15595572D01*
X596335Y-15812410D01*
X478634Y-16095866D01*
X478366Y-16402788D01*
X595572Y-16686449D01*
X783933Y-16875138D01*
X596335Y-17062410D01*
X478634Y-17345866D01*
X478366Y-17652788D01*
X595572Y-17936449D01*
X812410Y-18153665D01*
X1095866Y-18271366D01*
X1402788Y-18271634D01*
X1686449Y-18154428D01*
X1903665Y-17937590D01*
X2021366Y-17654134D01*
X2021634Y-17347212D01*
X1904428Y-17063551D01*
X1716067Y-16874862D01*
X1903665Y-16687590D01*
X2021366Y-16404134D01*
X2021585Y-16152788D01*
X8728366Y-16152788D01*
X8845572Y-16436449D01*
X9062410Y-16653665D01*
X9345866Y-16771366D01*
X9652788Y-16771634D01*
X9936449Y-16654428D01*
X10153665Y-16437590D01*
X10271366Y-16154134D01*
X10271367Y-16152788D01*
X10978366Y-16152788D01*
X11095572Y-16436449D01*
X11312410Y-16653665D01*
X11595866Y-16771366D01*
X11902788Y-16771634D01*
X12186449Y-16654428D01*
X12403665Y-16437590D01*
X12521366Y-16154134D01*
X12521585Y-15902788D01*
X15228366Y-15902788D01*
X15345572Y-16186449D01*
X15562410Y-16403665D01*
X15845866Y-16521366D01*
X16152788Y-16521634D01*
X16436449Y-16404428D01*
X16438091Y-16402788D01*
X18478366Y-16402788D01*
X18595572Y-16686449D01*
X18812410Y-16903665D01*
X19095866Y-17021366D01*
X19402788Y-17021634D01*
X19686449Y-16904428D01*
X19903665Y-16687590D01*
X20021366Y-16404134D01*
X20021494Y-16257167D01*
X20095572Y-16436449D01*
X20312410Y-16653665D01*
X20595866Y-16771366D01*
X20902788Y-16771634D01*
X21186449Y-16654428D01*
X21403665Y-16437590D01*
X21418116Y-16402788D01*
X28228366Y-16402788D01*
X28345572Y-16686449D01*
X28562410Y-16903665D01*
X28845866Y-17021366D01*
X29152788Y-17021634D01*
X29436449Y-16904428D01*
X29653665Y-16687590D01*
X29771366Y-16404134D01*
X29771634Y-16097212D01*
X29654428Y-15813551D01*
X29437590Y-15596335D01*
X29154134Y-15478634D01*
X28847212Y-15478366D01*
X28563551Y-15595572D01*
X28346335Y-15812410D01*
X28228634Y-16095866D01*
X28228366Y-16402788D01*
X21418116Y-16402788D01*
X21521366Y-16154134D01*
X21521634Y-15847212D01*
X21404428Y-15563551D01*
X21187590Y-15346335D01*
X20955368Y-15249908D01*
X21186449Y-15154428D01*
X21403665Y-14937590D01*
X21521366Y-14654134D01*
X21521634Y-14347212D01*
X21404428Y-14063551D01*
X21343771Y-14002788D01*
X39378366Y-14002788D01*
X39495572Y-14286449D01*
X39712410Y-14503665D01*
X39995866Y-14621366D01*
X40302788Y-14621634D01*
X40586449Y-14504428D01*
X40803665Y-14287590D01*
X40853019Y-14168730D01*
X42067852Y-14168730D01*
X42197288Y-14481989D01*
X42350089Y-14635057D01*
X42198130Y-14786750D01*
X42068148Y-15099783D01*
X42067852Y-15438730D01*
X42197288Y-15751989D01*
X42436750Y-15991870D01*
X42749783Y-16121852D01*
X43088730Y-16122148D01*
X43401989Y-15992712D01*
X43555057Y-15839911D01*
X43706750Y-15991870D01*
X44019783Y-16121852D01*
X44358730Y-16122148D01*
X44671989Y-15992712D01*
X44825057Y-15839911D01*
X44976750Y-15991870D01*
X45289783Y-16121852D01*
X45628730Y-16122148D01*
X45941989Y-15992712D01*
X46095057Y-15839911D01*
X46246750Y-15991870D01*
X46559783Y-16121852D01*
X46898730Y-16122148D01*
X47211989Y-15992712D01*
X47365057Y-15839911D01*
X47516750Y-15991870D01*
X47829783Y-16121852D01*
X48168730Y-16122148D01*
X48481989Y-15992712D01*
X48721870Y-15753250D01*
X48851852Y-15440217D01*
X48852148Y-15101270D01*
X48722712Y-14788011D01*
X48483250Y-14548130D01*
X48170217Y-14418148D01*
X47831270Y-14417852D01*
X47518011Y-14547288D01*
X47364943Y-14700089D01*
X47299911Y-14634943D01*
X47451870Y-14483250D01*
X47581852Y-14170217D01*
X47582148Y-13831270D01*
X47452712Y-13518011D01*
X47213250Y-13278130D01*
X46900217Y-13148148D01*
X46561270Y-13147852D01*
X46248011Y-13277288D01*
X46094943Y-13430089D01*
X45943250Y-13278130D01*
X45630217Y-13148148D01*
X45291270Y-13147852D01*
X44978011Y-13277288D01*
X44824943Y-13430089D01*
X44673250Y-13278130D01*
X44360217Y-13148148D01*
X44021270Y-13147852D01*
X43708011Y-13277288D01*
X43554943Y-13430089D01*
X43403250Y-13278130D01*
X43090217Y-13148148D01*
X42751270Y-13147852D01*
X42438011Y-13277288D01*
X42198130Y-13516750D01*
X42068148Y-13829783D01*
X42067852Y-14168730D01*
X40853019Y-14168730D01*
X40921366Y-14004134D01*
X40921634Y-13697212D01*
X40804428Y-13413551D01*
X40587590Y-13196335D01*
X40304134Y-13078634D01*
X39997212Y-13078366D01*
X39713551Y-13195572D01*
X39496335Y-13412410D01*
X39378634Y-13695866D01*
X39378366Y-14002788D01*
X21343771Y-14002788D01*
X21187590Y-13846335D01*
X20904134Y-13728634D01*
X20597212Y-13728366D01*
X20313551Y-13845572D01*
X20096335Y-14062410D01*
X19978634Y-14345866D01*
X19978366Y-14652788D01*
X20095572Y-14936449D01*
X20312410Y-15153665D01*
X20544632Y-15250092D01*
X20313551Y-15345572D01*
X20096335Y-15562410D01*
X19978634Y-15845866D01*
X19978506Y-15992833D01*
X19904428Y-15813551D01*
X19687590Y-15596335D01*
X19404134Y-15478634D01*
X19097212Y-15478366D01*
X18813551Y-15595572D01*
X18596335Y-15812410D01*
X18478634Y-16095866D01*
X18478366Y-16402788D01*
X16438091Y-16402788D01*
X16653665Y-16187590D01*
X16771366Y-15904134D01*
X16771634Y-15597212D01*
X16654428Y-15313551D01*
X16437590Y-15096335D01*
X16154134Y-14978634D01*
X15847212Y-14978366D01*
X15563551Y-15095572D01*
X15346335Y-15312410D01*
X15228634Y-15595866D01*
X15228366Y-15902788D01*
X12521585Y-15902788D01*
X12521634Y-15847212D01*
X12404428Y-15563551D01*
X12187590Y-15346335D01*
X12007384Y-15271507D01*
X12152788Y-15271634D01*
X12436449Y-15154428D01*
X12653665Y-14937590D01*
X12771366Y-14654134D01*
X12771634Y-14347212D01*
X12654428Y-14063551D01*
X12437590Y-13846335D01*
X12154134Y-13728634D01*
X11847212Y-13728366D01*
X11563551Y-13845572D01*
X11346335Y-14062410D01*
X11228634Y-14345866D01*
X11228366Y-14652788D01*
X11345572Y-14936449D01*
X11562410Y-15153665D01*
X11742616Y-15228493D01*
X11597212Y-15228366D01*
X11313551Y-15345572D01*
X11096335Y-15562410D01*
X10978634Y-15845866D01*
X10978366Y-16152788D01*
X10271367Y-16152788D01*
X10271634Y-15847212D01*
X10154428Y-15563551D01*
X9937590Y-15346335D01*
X9654134Y-15228634D01*
X9347212Y-15228366D01*
X9063551Y-15345572D01*
X8846335Y-15562410D01*
X8728634Y-15845866D01*
X8728366Y-16152788D01*
X2021585Y-16152788D01*
X2021634Y-16097212D01*
X1904428Y-15813551D01*
X1687590Y-15596335D01*
X1455368Y-15499908D01*
X1686449Y-15404428D01*
X1903665Y-15187590D01*
X2021366Y-14904134D01*
X2021607Y-14627788D01*
X7228366Y-14627788D01*
X7345572Y-14911449D01*
X7562410Y-15128665D01*
X7845866Y-15246366D01*
X8152788Y-15246634D01*
X8436449Y-15129428D01*
X8653665Y-14912590D01*
X8771366Y-14629134D01*
X8771634Y-14322212D01*
X8654428Y-14038551D01*
X8437590Y-13821335D01*
X8154134Y-13703634D01*
X7847212Y-13703366D01*
X7563551Y-13820572D01*
X7346335Y-14037410D01*
X7228634Y-14320866D01*
X7228366Y-14627788D01*
X2021607Y-14627788D01*
X2021634Y-14597212D01*
X1904428Y-14313551D01*
X1687590Y-14096335D01*
X1404134Y-13978634D01*
X1097212Y-13978366D01*
X813551Y-14095572D01*
X596335Y-14312410D01*
X478634Y-14595866D01*
X478366Y-14902788D01*
X377000Y-14902788D01*
X377000Y-11652788D01*
X7478366Y-11652788D01*
X7595572Y-11936449D01*
X7812410Y-12153665D01*
X8095866Y-12271366D01*
X8402788Y-12271634D01*
X8686449Y-12154428D01*
X8903665Y-11937590D01*
X9021366Y-11654134D01*
X9021634Y-11347212D01*
X8904428Y-11063551D01*
X8687590Y-10846335D01*
X8404134Y-10728634D01*
X8097212Y-10728366D01*
X7813551Y-10845572D01*
X7596335Y-11062410D01*
X7478634Y-11345866D01*
X7478366Y-11652788D01*
X377000Y-11652788D01*
X377000Y-9292798D01*
X7672771Y-9292798D01*
X7874369Y-9780703D01*
X8247334Y-10154319D01*
X8734885Y-10356769D01*
X9262798Y-10357229D01*
X9750703Y-10155631D01*
X9792922Y-10113485D01*
X13617830Y-10113485D01*
X13766256Y-10472703D01*
X14040851Y-10747778D01*
X14399810Y-10896830D01*
X14788485Y-10897170D01*
X15147703Y-10748744D01*
X15422778Y-10474149D01*
X15571830Y-10115190D01*
X15571831Y-10113485D01*
X15647830Y-10113485D01*
X15796256Y-10472703D01*
X16070851Y-10747778D01*
X16429810Y-10896830D01*
X16818485Y-10897170D01*
X17177703Y-10748744D01*
X17452778Y-10474149D01*
X17601830Y-10115190D01*
X17601831Y-10113485D01*
X17677830Y-10113485D01*
X17826256Y-10472703D01*
X18100851Y-10747778D01*
X18459810Y-10896830D01*
X18848485Y-10897170D01*
X19207703Y-10748744D01*
X19482778Y-10474149D01*
X19631830Y-10115190D01*
X19631831Y-10113485D01*
X19707830Y-10113485D01*
X19856256Y-10472703D01*
X20130851Y-10747778D01*
X20489810Y-10896830D01*
X20878485Y-10897170D01*
X21237703Y-10748744D01*
X21512778Y-10474149D01*
X21661830Y-10115190D01*
X21662170Y-9726515D01*
X21631707Y-9652788D01*
X23728366Y-9652788D01*
X23845572Y-9936449D01*
X24062410Y-10153665D01*
X24345866Y-10271366D01*
X24652788Y-10271634D01*
X24936449Y-10154428D01*
X24977463Y-10113485D01*
X29367830Y-10113485D01*
X29516256Y-10472703D01*
X29790851Y-10747778D01*
X30149810Y-10896830D01*
X30538485Y-10897170D01*
X30897703Y-10748744D01*
X31172778Y-10474149D01*
X31321830Y-10115190D01*
X31321831Y-10113485D01*
X31397830Y-10113485D01*
X31546256Y-10472703D01*
X31820851Y-10747778D01*
X32179810Y-10896830D01*
X32568485Y-10897170D01*
X32927703Y-10748744D01*
X33202778Y-10474149D01*
X33351830Y-10115190D01*
X33351831Y-10113485D01*
X33427830Y-10113485D01*
X33576256Y-10472703D01*
X33850851Y-10747778D01*
X34209810Y-10896830D01*
X34598485Y-10897170D01*
X34957703Y-10748744D01*
X35232778Y-10474149D01*
X35381830Y-10115190D01*
X35381831Y-10113485D01*
X35457830Y-10113485D01*
X35606256Y-10472703D01*
X35880851Y-10747778D01*
X36239810Y-10896830D01*
X36628485Y-10897170D01*
X36987703Y-10748744D01*
X37184001Y-10552788D01*
X46628366Y-10552788D01*
X46745572Y-10836449D01*
X46962410Y-11053665D01*
X47245866Y-11171366D01*
X47552788Y-11171634D01*
X47836449Y-11054428D01*
X48053665Y-10837590D01*
X48171366Y-10554134D01*
X48171634Y-10247212D01*
X48054428Y-9963551D01*
X47837590Y-9746335D01*
X47554134Y-9628634D01*
X47247212Y-9628366D01*
X46963551Y-9745572D01*
X46746335Y-9962410D01*
X46628634Y-10245866D01*
X46628366Y-10552788D01*
X37184001Y-10552788D01*
X37262778Y-10474149D01*
X37411830Y-10115190D01*
X37412170Y-9726515D01*
X37263744Y-9367297D01*
X37189375Y-9292798D01*
X39672771Y-9292798D01*
X39874369Y-9780703D01*
X40247334Y-10154319D01*
X40734885Y-10356769D01*
X41262798Y-10357229D01*
X41750703Y-10155631D01*
X42124319Y-9782666D01*
X42326769Y-9295115D01*
X42327229Y-8767202D01*
X42125631Y-8279297D01*
X41752666Y-7905681D01*
X41265115Y-7703231D01*
X40737202Y-7702771D01*
X40249297Y-7904369D01*
X39875681Y-8277334D01*
X39673231Y-8764885D01*
X39672771Y-9292798D01*
X37189375Y-9292798D01*
X36989149Y-9092222D01*
X36630190Y-8943170D01*
X36241515Y-8942830D01*
X35882297Y-9091256D01*
X35607222Y-9365851D01*
X35458170Y-9724810D01*
X35457830Y-10113485D01*
X35381831Y-10113485D01*
X35382170Y-9726515D01*
X35233744Y-9367297D01*
X34959149Y-9092222D01*
X34600190Y-8943170D01*
X34211515Y-8942830D01*
X33852297Y-9091256D01*
X33577222Y-9365851D01*
X33428170Y-9724810D01*
X33427830Y-10113485D01*
X33351831Y-10113485D01*
X33352170Y-9726515D01*
X33203744Y-9367297D01*
X32929149Y-9092222D01*
X32570190Y-8943170D01*
X32181515Y-8942830D01*
X31822297Y-9091256D01*
X31547222Y-9365851D01*
X31398170Y-9724810D01*
X31397830Y-10113485D01*
X31321831Y-10113485D01*
X31322170Y-9726515D01*
X31173744Y-9367297D01*
X30899149Y-9092222D01*
X30540190Y-8943170D01*
X30151515Y-8942830D01*
X29792297Y-9091256D01*
X29517222Y-9365851D01*
X29368170Y-9724810D01*
X29367830Y-10113485D01*
X24977463Y-10113485D01*
X25153665Y-9937590D01*
X25271366Y-9654134D01*
X25271634Y-9347212D01*
X25154428Y-9063551D01*
X24937590Y-8846335D01*
X24654134Y-8728634D01*
X24347212Y-8728366D01*
X24063551Y-8845572D01*
X23846335Y-9062410D01*
X23728634Y-9345866D01*
X23728366Y-9652788D01*
X21631707Y-9652788D01*
X21513744Y-9367297D01*
X21239149Y-9092222D01*
X20880190Y-8943170D01*
X20491515Y-8942830D01*
X20132297Y-9091256D01*
X19857222Y-9365851D01*
X19708170Y-9724810D01*
X19707830Y-10113485D01*
X19631831Y-10113485D01*
X19632170Y-9726515D01*
X19483744Y-9367297D01*
X19209149Y-9092222D01*
X18850190Y-8943170D01*
X18461515Y-8942830D01*
X18102297Y-9091256D01*
X17827222Y-9365851D01*
X17678170Y-9724810D01*
X17677830Y-10113485D01*
X17601831Y-10113485D01*
X17602170Y-9726515D01*
X17453744Y-9367297D01*
X17179149Y-9092222D01*
X16820190Y-8943170D01*
X16431515Y-8942830D01*
X16072297Y-9091256D01*
X15797222Y-9365851D01*
X15648170Y-9724810D01*
X15647830Y-10113485D01*
X15571831Y-10113485D01*
X15572170Y-9726515D01*
X15423744Y-9367297D01*
X15149149Y-9092222D01*
X14790190Y-8943170D01*
X14401515Y-8942830D01*
X14042297Y-9091256D01*
X13767222Y-9365851D01*
X13618170Y-9724810D01*
X13617830Y-10113485D01*
X9792922Y-10113485D01*
X10124319Y-9782666D01*
X10326769Y-9295115D01*
X10327229Y-8767202D01*
X10148021Y-8333485D01*
X12597830Y-8333485D01*
X12746256Y-8692703D01*
X13020851Y-8967778D01*
X13379810Y-9116830D01*
X13768485Y-9117170D01*
X14127703Y-8968744D01*
X14402778Y-8694149D01*
X14551830Y-8335190D01*
X14551831Y-8333485D01*
X14627830Y-8333485D01*
X14776256Y-8692703D01*
X15050851Y-8967778D01*
X15409810Y-9116830D01*
X15798485Y-9117170D01*
X16157703Y-8968744D01*
X16432778Y-8694149D01*
X16581830Y-8335190D01*
X16581831Y-8333485D01*
X16657830Y-8333485D01*
X16806256Y-8692703D01*
X17080851Y-8967778D01*
X17439810Y-9116830D01*
X17828485Y-9117170D01*
X18187703Y-8968744D01*
X18462778Y-8694149D01*
X18611830Y-8335190D01*
X18611831Y-8333485D01*
X18687830Y-8333485D01*
X18836256Y-8692703D01*
X19110851Y-8967778D01*
X19469810Y-9116830D01*
X19858485Y-9117170D01*
X20217703Y-8968744D01*
X20492778Y-8694149D01*
X20641830Y-8335190D01*
X20641831Y-8333485D01*
X28347830Y-8333485D01*
X28496256Y-8692703D01*
X28770851Y-8967778D01*
X29129810Y-9116830D01*
X29518485Y-9117170D01*
X29877703Y-8968744D01*
X30152778Y-8694149D01*
X30301830Y-8335190D01*
X30301831Y-8333485D01*
X30377830Y-8333485D01*
X30526256Y-8692703D01*
X30800851Y-8967778D01*
X31159810Y-9116830D01*
X31548485Y-9117170D01*
X31907703Y-8968744D01*
X32182778Y-8694149D01*
X32331830Y-8335190D01*
X32331831Y-8333485D01*
X32407830Y-8333485D01*
X32556256Y-8692703D01*
X32830851Y-8967778D01*
X33189810Y-9116830D01*
X33578485Y-9117170D01*
X33937703Y-8968744D01*
X34212778Y-8694149D01*
X34361830Y-8335190D01*
X34361831Y-8333485D01*
X34437830Y-8333485D01*
X34586256Y-8692703D01*
X34860851Y-8967778D01*
X35219810Y-9116830D01*
X35608485Y-9117170D01*
X35967703Y-8968744D01*
X36242778Y-8694149D01*
X36391830Y-8335190D01*
X36392170Y-7946515D01*
X36243744Y-7587297D01*
X35969149Y-7312222D01*
X35610190Y-7163170D01*
X35221515Y-7162830D01*
X34862297Y-7311256D01*
X34587222Y-7585851D01*
X34438170Y-7944810D01*
X34437830Y-8333485D01*
X34361831Y-8333485D01*
X34362170Y-7946515D01*
X34213744Y-7587297D01*
X33939149Y-7312222D01*
X33580190Y-7163170D01*
X33191515Y-7162830D01*
X32832297Y-7311256D01*
X32557222Y-7585851D01*
X32408170Y-7944810D01*
X32407830Y-8333485D01*
X32331831Y-8333485D01*
X32332170Y-7946515D01*
X32183744Y-7587297D01*
X31909149Y-7312222D01*
X31550190Y-7163170D01*
X31161515Y-7162830D01*
X30802297Y-7311256D01*
X30527222Y-7585851D01*
X30378170Y-7944810D01*
X30377830Y-8333485D01*
X30301831Y-8333485D01*
X30302170Y-7946515D01*
X30153744Y-7587297D01*
X29879149Y-7312222D01*
X29520190Y-7163170D01*
X29131515Y-7162830D01*
X28772297Y-7311256D01*
X28497222Y-7585851D01*
X28348170Y-7944810D01*
X28347830Y-8333485D01*
X20641831Y-8333485D01*
X20642170Y-7946515D01*
X20493744Y-7587297D01*
X20219149Y-7312222D01*
X19860190Y-7163170D01*
X19471515Y-7162830D01*
X19112297Y-7311256D01*
X18837222Y-7585851D01*
X18688170Y-7944810D01*
X18687830Y-8333485D01*
X18611831Y-8333485D01*
X18612170Y-7946515D01*
X18463744Y-7587297D01*
X18189149Y-7312222D01*
X17830190Y-7163170D01*
X17441515Y-7162830D01*
X17082297Y-7311256D01*
X16807222Y-7585851D01*
X16658170Y-7944810D01*
X16657830Y-8333485D01*
X16581831Y-8333485D01*
X16582170Y-7946515D01*
X16433744Y-7587297D01*
X16159149Y-7312222D01*
X15800190Y-7163170D01*
X15411515Y-7162830D01*
X15052297Y-7311256D01*
X14777222Y-7585851D01*
X14628170Y-7944810D01*
X14627830Y-8333485D01*
X14551831Y-8333485D01*
X14552170Y-7946515D01*
X14403744Y-7587297D01*
X14129149Y-7312222D01*
X13770190Y-7163170D01*
X13381515Y-7162830D01*
X13022297Y-7311256D01*
X12747222Y-7585851D01*
X12598170Y-7944810D01*
X12597830Y-8333485D01*
X10148021Y-8333485D01*
X10125631Y-8279297D01*
X9752666Y-7905681D01*
X9265115Y-7703231D01*
X8737202Y-7702771D01*
X8249297Y-7904369D01*
X7875681Y-8277334D01*
X7673231Y-8764885D01*
X7672771Y-9292798D01*
X377000Y-9292798D01*
X377000Y-4658878D01*
X672424Y-4658878D01*
X1177862Y-5882132D01*
X2112945Y-6818849D01*
X3335315Y-7326421D01*
X4658878Y-7327576D01*
X5882132Y-6822138D01*
X6644762Y-6060838D01*
X8447597Y-6060838D01*
X8801115Y-6916418D01*
X9455139Y-7571585D01*
X10310100Y-7926596D01*
X11235838Y-7927403D01*
X12091418Y-7573885D01*
X12746585Y-6919861D01*
X13101596Y-6064900D01*
X13101599Y-6060838D01*
X36897597Y-6060838D01*
X37251115Y-6916418D01*
X37905139Y-7571585D01*
X38760100Y-7926596D01*
X39685838Y-7927403D01*
X40541418Y-7573885D01*
X41196585Y-6919861D01*
X41551596Y-6064900D01*
X41552403Y-5139162D01*
X41353954Y-4658878D01*
X42672424Y-4658878D01*
X43177862Y-5882132D01*
X44112945Y-6818849D01*
X45335315Y-7326421D01*
X46658878Y-7327576D01*
X47882132Y-6822138D01*
X48818849Y-5887055D01*
X49326421Y-4664685D01*
X49327576Y-3341122D01*
X48822138Y-2117868D01*
X47887055Y-1181151D01*
X46664685Y-673579D01*
X45341122Y-672424D01*
X44117868Y-1177862D01*
X43181151Y-2112945D01*
X42673579Y-3335315D01*
X42672424Y-4658878D01*
X41353954Y-4658878D01*
X41198885Y-4283582D01*
X40544861Y-3628415D01*
X39689900Y-3273404D01*
X38764162Y-3272597D01*
X37908582Y-3626115D01*
X37253415Y-4280139D01*
X36898404Y-5135100D01*
X36897597Y-6060838D01*
X13101599Y-6060838D01*
X13102391Y-5152788D01*
X19478366Y-5152788D01*
X19595572Y-5436449D01*
X19812410Y-5653665D01*
X20095866Y-5771366D01*
X20402788Y-5771634D01*
X20686449Y-5654428D01*
X20903665Y-5437590D01*
X21021366Y-5154134D01*
X21021367Y-5152788D01*
X22228366Y-5152788D01*
X22345572Y-5436449D01*
X22562410Y-5653665D01*
X22845866Y-5771366D01*
X23152788Y-5771634D01*
X23436449Y-5654428D01*
X23653665Y-5437590D01*
X23668116Y-5402788D01*
X27978366Y-5402788D01*
X28095572Y-5686449D01*
X28312410Y-5903665D01*
X28595866Y-6021366D01*
X28902788Y-6021634D01*
X29186449Y-5904428D01*
X29403665Y-5687590D01*
X29521366Y-5404134D01*
X29521634Y-5097212D01*
X29441300Y-4902788D01*
X34728366Y-4902788D01*
X34845572Y-5186449D01*
X35062410Y-5403665D01*
X35345866Y-5521366D01*
X35652788Y-5521634D01*
X35936449Y-5404428D01*
X36153665Y-5187590D01*
X36271366Y-4904134D01*
X36271634Y-4597212D01*
X36154428Y-4313551D01*
X35937590Y-4096335D01*
X35654134Y-3978634D01*
X35347212Y-3978366D01*
X35063551Y-4095572D01*
X34846335Y-4312410D01*
X34728634Y-4595866D01*
X34728366Y-4902788D01*
X29441300Y-4902788D01*
X29404428Y-4813551D01*
X29187590Y-4596335D01*
X28904134Y-4478634D01*
X28597212Y-4478366D01*
X28313551Y-4595572D01*
X28096335Y-4812410D01*
X27978634Y-5095866D01*
X27978366Y-5402788D01*
X23668116Y-5402788D01*
X23771366Y-5154134D01*
X23771634Y-4847212D01*
X23654428Y-4563551D01*
X23437590Y-4346335D01*
X23154134Y-4228634D01*
X22847212Y-4228366D01*
X22563551Y-4345572D01*
X22346335Y-4562410D01*
X22228634Y-4845866D01*
X22228366Y-5152788D01*
X21021367Y-5152788D01*
X21021634Y-4847212D01*
X20904428Y-4563551D01*
X20687590Y-4346335D01*
X20404134Y-4228634D01*
X20097212Y-4228366D01*
X19813551Y-4345572D01*
X19596335Y-4562410D01*
X19478634Y-4845866D01*
X19478366Y-5152788D01*
X13102391Y-5152788D01*
X13102403Y-5139162D01*
X12748885Y-4283582D01*
X12094861Y-3628415D01*
X11551492Y-3402788D01*
X19478366Y-3402788D01*
X19595572Y-3686449D01*
X19812410Y-3903665D01*
X20095866Y-4021366D01*
X20402788Y-4021634D01*
X20686449Y-3904428D01*
X20903665Y-3687590D01*
X21021366Y-3404134D01*
X21021585Y-3152788D01*
X31478366Y-3152788D01*
X31595572Y-3436449D01*
X31812410Y-3653665D01*
X32095866Y-3771366D01*
X32402788Y-3771634D01*
X32686449Y-3654428D01*
X32903665Y-3437590D01*
X33021366Y-3154134D01*
X33021634Y-2847212D01*
X32904428Y-2563551D01*
X32687590Y-2346335D01*
X32404134Y-2228634D01*
X32097212Y-2228366D01*
X31813551Y-2345572D01*
X31596335Y-2562410D01*
X31478634Y-2845866D01*
X31478366Y-3152788D01*
X21021585Y-3152788D01*
X21021634Y-3097212D01*
X20904428Y-2813551D01*
X20687590Y-2596335D01*
X20404134Y-2478634D01*
X20097212Y-2478366D01*
X19813551Y-2595572D01*
X19596335Y-2812410D01*
X19478634Y-3095866D01*
X19478366Y-3402788D01*
X11551492Y-3402788D01*
X11239900Y-3273404D01*
X10314162Y-3272597D01*
X9458582Y-3626115D01*
X8803415Y-4280139D01*
X8448404Y-5135100D01*
X8447597Y-6060838D01*
X6644762Y-6060838D01*
X6818849Y-5887055D01*
X7326421Y-4664685D01*
X7327576Y-3341122D01*
X6822138Y-2117868D01*
X6108306Y-1402788D01*
X19478366Y-1402788D01*
X19595572Y-1686449D01*
X19812410Y-1903665D01*
X20095866Y-2021366D01*
X20402788Y-2021634D01*
X20686449Y-1904428D01*
X20903665Y-1687590D01*
X21021366Y-1404134D01*
X21021367Y-1402788D01*
X28728366Y-1402788D01*
X28845572Y-1686449D01*
X29062410Y-1903665D01*
X29345866Y-2021366D01*
X29652788Y-2021634D01*
X29936449Y-1904428D01*
X30153665Y-1687590D01*
X30271366Y-1404134D01*
X30271367Y-1402788D01*
X36228366Y-1402788D01*
X36345572Y-1686449D01*
X36562410Y-1903665D01*
X36845866Y-2021366D01*
X37152788Y-2021634D01*
X37436449Y-1904428D01*
X37653665Y-1687590D01*
X37771366Y-1404134D01*
X37771634Y-1097212D01*
X37654428Y-813551D01*
X37437590Y-596335D01*
X37154134Y-478634D01*
X36847212Y-478366D01*
X36563551Y-595572D01*
X36346335Y-812410D01*
X36228634Y-1095866D01*
X36228366Y-1402788D01*
X30271367Y-1402788D01*
X30271634Y-1097212D01*
X30154428Y-813551D01*
X29937590Y-596335D01*
X29654134Y-478634D01*
X29347212Y-478366D01*
X29063551Y-595572D01*
X28846335Y-812410D01*
X28728634Y-1095866D01*
X28728366Y-1402788D01*
X21021367Y-1402788D01*
X21021634Y-1097212D01*
X20904428Y-813551D01*
X20687590Y-596335D01*
X20404134Y-478634D01*
X20097212Y-478366D01*
X19813551Y-595572D01*
X19596335Y-812410D01*
X19478634Y-1095866D01*
X19478366Y-1402788D01*
X6108306Y-1402788D01*
X5887055Y-1181151D01*
X4664685Y-673579D01*
X3341122Y-672424D01*
X2117868Y-1177862D01*
X1181151Y-2112945D01*
X673579Y-3335315D01*
X672424Y-4658878D01*
X377000Y-4658878D01*
X377000Y-377000D01*
X49623000Y-377000D01*
X49623000Y-49623000D01*
G36*
X30023000Y-19852606D02*
X30023000Y-20800000D01*
X30033006Y-20849410D01*
X30060197Y-20889803D01*
X31023000Y-21852606D01*
X31023000Y-22500000D01*
X31033006Y-22549410D01*
X31060197Y-22589803D01*
X31410197Y-22939803D01*
X31452211Y-22967666D01*
X31500000Y-22977000D01*
X34273000Y-22977000D01*
X34273000Y-25173000D01*
X31250000Y-25173000D01*
X31200590Y-25183006D01*
X31168697Y-25202436D01*
X30868697Y-25452436D01*
X30837144Y-25491754D01*
X30823000Y-25550000D01*
X30823000Y-27297394D01*
X30097394Y-28023000D01*
X27052606Y-28023000D01*
X26027000Y-26997394D01*
X26027000Y-20552606D01*
X26902606Y-19677000D01*
X29847394Y-19677000D01*
X30023000Y-19852606D01*
X30023000Y-19852606D01*
G37*
X30023000Y-19852606D02*
X30023000Y-20800000D01*
X30033006Y-20849410D01*
X30060197Y-20889803D01*
X31023000Y-21852606D01*
X31023000Y-22500000D01*
X31033006Y-22549410D01*
X31060197Y-22589803D01*
X31410197Y-22939803D01*
X31452211Y-22967666D01*
X31500000Y-22977000D01*
X34273000Y-22977000D01*
X34273000Y-25173000D01*
X31250000Y-25173000D01*
X31200590Y-25183006D01*
X31168697Y-25202436D01*
X30868697Y-25452436D01*
X30837144Y-25491754D01*
X30823000Y-25550000D01*
X30823000Y-27297394D01*
X30097394Y-28023000D01*
X27052606Y-28023000D01*
X26027000Y-26997394D01*
X26027000Y-20552606D01*
X26902606Y-19677000D01*
X29847394Y-19677000D01*
X30023000Y-19852606D01*
M02*
