G04 #@! TF.FileFunction,Copper,L4,Bot,Signal*
%FSLAX46Y46*%
G04 Gerber Fmt 4.6, Leading zero omitted, Abs format (unit mm)*
G04 Created by KiCad (PCBNEW 4.0.6-e0-6349~52~ubuntu16.10.1) date Fri May 26 15:17:48 2017*
%MOMM*%
%LPD*%
G01*
G04 APERTURE LIST*
%ADD10C,0.150000*%
%ADD11C,1.300000*%
%ADD12C,4.000000*%
%ADD13C,2.000000*%
%ADD14R,1.250000X1.000000*%
%ADD15R,1.000000X1.250000*%
%ADD16R,2.500000X2.300000*%
%ADD17R,1.050000X1.050000*%
%ADD18C,1.050000*%
%ADD19C,6.000000*%
%ADD20R,1.300000X1.000000*%
%ADD21R,1.000000X1.300000*%
%ADD22R,0.420000X1.300000*%
%ADD23R,1.100000X0.250000*%
%ADD24C,0.900000*%
%ADD25C,2.600000*%
%ADD26R,2.500000X1.800000*%
%ADD27R,2.300000X2.500000*%
%ADD28R,0.900000X1.700000*%
%ADD29C,1.500000*%
%ADD30R,0.200000X0.600000*%
%ADD31R,0.430000X0.760000*%
%ADD32R,1.060000X0.650000*%
%ADD33R,0.800000X0.750000*%
%ADD34O,0.300000X0.750000*%
%ADD35O,0.750000X0.300000*%
%ADD36R,0.900000X0.900000*%
%ADD37R,1.400000X1.200000*%
%ADD38R,1.400000X1.000000*%
%ADD39R,0.250000X0.600000*%
%ADD40R,0.700000X0.600000*%
%ADD41C,0.889000*%
%ADD42C,0.600000*%
%ADD43C,0.400000*%
%ADD44C,0.254000*%
%ADD45C,0.762000*%
%ADD46C,0.200000*%
%ADD47C,0.508000*%
%ADD48C,1.270000*%
G04 APERTURE END LIST*
D10*
D11*
X29325000Y-8140000D03*
X35415000Y-8140000D03*
X31355000Y-8140000D03*
X33385000Y-8140000D03*
X30345000Y-9920000D03*
X32375000Y-9920000D03*
X34405000Y-9920000D03*
X36435000Y-9920000D03*
D12*
X10775000Y-5600000D03*
D13*
X41000000Y-9030000D03*
D11*
X20685000Y-9920000D03*
X18655000Y-9920000D03*
X16625000Y-9920000D03*
X14595000Y-9920000D03*
X17635000Y-8140000D03*
X15605000Y-8140000D03*
X19665000Y-8140000D03*
X13575000Y-8140000D03*
D12*
X39225000Y-5600000D03*
D13*
X9000000Y-9030000D03*
D14*
X1500000Y-28600000D03*
X1500000Y-26600000D03*
X9700000Y-22900000D03*
X9700000Y-24900000D03*
D10*
G36*
X38131281Y-16752602D02*
X37247398Y-15868719D01*
X37954505Y-15161612D01*
X38838388Y-16045495D01*
X38131281Y-16752602D01*
X38131281Y-16752602D01*
G37*
G36*
X39545495Y-15338388D02*
X38661612Y-14454505D01*
X39368719Y-13747398D01*
X40252602Y-14631281D01*
X39545495Y-15338388D01*
X39545495Y-15338388D01*
G37*
G36*
X35868719Y-17247398D02*
X36752602Y-18131281D01*
X36045495Y-18838388D01*
X35161612Y-17954505D01*
X35868719Y-17247398D01*
X35868719Y-17247398D01*
G37*
G36*
X34454505Y-18661612D02*
X35338388Y-19545495D01*
X34631281Y-20252602D01*
X33747398Y-19368719D01*
X34454505Y-18661612D01*
X34454505Y-18661612D01*
G37*
D15*
X6250000Y-19200000D03*
X4250000Y-19200000D03*
X24200000Y-6300000D03*
X26200000Y-6300000D03*
D10*
G36*
X40404396Y-18420137D02*
X40970152Y-18985893D01*
X40404396Y-19551649D01*
X39838640Y-18985893D01*
X40404396Y-18420137D01*
X40404396Y-18420137D01*
G37*
G36*
X39060893Y-19763640D02*
X39626649Y-20329396D01*
X39060893Y-20895152D01*
X38495137Y-20329396D01*
X39060893Y-19763640D01*
X39060893Y-19763640D01*
G37*
G36*
X38319152Y-17678396D02*
X38884908Y-18244152D01*
X38319152Y-18809908D01*
X37753396Y-18244152D01*
X38319152Y-17678396D01*
X38319152Y-17678396D01*
G37*
D15*
X4875000Y-27675000D03*
X6875000Y-27675000D03*
D16*
X22850000Y-3000000D03*
X27150000Y-3000000D03*
D17*
X48000000Y-14000000D03*
D18*
X46730000Y-14000000D03*
X45460000Y-14000000D03*
X44190000Y-14000000D03*
X42920000Y-14000000D03*
X46730000Y-15270000D03*
X45460000Y-15270000D03*
X44190000Y-15270000D03*
X42920000Y-15270000D03*
X48000000Y-15270000D03*
D19*
X46000000Y-4000000D03*
X46000000Y-36000000D03*
X4000000Y-4000000D03*
X4000000Y-46000000D03*
D20*
X2150000Y-20725000D03*
X2150000Y-18625000D03*
X7600000Y-21850000D03*
X7600000Y-23950000D03*
D21*
X5300000Y-29750000D03*
X3200000Y-29750000D03*
X2500000Y-31700000D03*
X4600000Y-31700000D03*
D22*
X3725000Y-22125000D03*
X4375000Y-22125000D03*
X5025000Y-22125000D03*
X5675000Y-22125000D03*
X5675000Y-24475000D03*
X5025000Y-24475000D03*
X4375000Y-24475000D03*
X3725000Y-24475000D03*
D10*
G36*
X35207107Y-14924264D02*
X35772792Y-14358579D01*
X36762741Y-15348528D01*
X36197056Y-15914213D01*
X35207107Y-14924264D01*
X35207107Y-14924264D01*
G37*
G36*
X32237259Y-13651472D02*
X32802944Y-13085787D01*
X33792893Y-14075736D01*
X33227208Y-14641421D01*
X32237259Y-13651472D01*
X32237259Y-13651472D01*
G37*
G36*
X34358579Y-15772792D02*
X34924264Y-15207107D01*
X35914213Y-16197056D01*
X35348528Y-16762741D01*
X34358579Y-15772792D01*
X34358579Y-15772792D01*
G37*
G36*
X33085787Y-12802944D02*
X33651472Y-12237259D01*
X34641421Y-13227208D01*
X34075736Y-13792893D01*
X33085787Y-12802944D01*
X33085787Y-12802944D01*
G37*
G36*
X47616367Y-24398026D02*
X47192103Y-24822290D01*
X46096087Y-23726274D01*
X46520351Y-23302010D01*
X47616367Y-24398026D01*
X47616367Y-24398026D01*
G37*
G36*
X46718341Y-25296052D02*
X46294077Y-25720316D01*
X45198061Y-24624300D01*
X45622325Y-24200036D01*
X46718341Y-25296052D01*
X46718341Y-25296052D01*
G37*
G36*
X45820316Y-26194077D02*
X45396052Y-26618341D01*
X44300036Y-25522325D01*
X44724300Y-25098061D01*
X45820316Y-26194077D01*
X45820316Y-26194077D01*
G37*
G36*
X44922290Y-27092103D02*
X44498026Y-27516367D01*
X43402010Y-26420351D01*
X43826274Y-25996087D01*
X44922290Y-27092103D01*
X44922290Y-27092103D01*
G37*
G36*
X41103913Y-23273726D02*
X40679649Y-23697990D01*
X39583633Y-22601974D01*
X40007897Y-22177710D01*
X41103913Y-23273726D01*
X41103913Y-23273726D01*
G37*
G36*
X42001939Y-22375700D02*
X41577675Y-22799964D01*
X40481659Y-21703948D01*
X40905923Y-21279684D01*
X42001939Y-22375700D01*
X42001939Y-22375700D01*
G37*
G36*
X42899964Y-21477675D02*
X42475700Y-21901939D01*
X41379684Y-20805923D01*
X41803948Y-20381659D01*
X42899964Y-21477675D01*
X42899964Y-21477675D01*
G37*
G36*
X43797990Y-20579649D02*
X43373726Y-21003913D01*
X42277710Y-19907897D01*
X42701974Y-19483633D01*
X43797990Y-20579649D01*
X43797990Y-20579649D01*
G37*
D23*
X11850000Y-24750000D03*
X11850000Y-24250000D03*
X11850000Y-23750000D03*
X11850000Y-23250000D03*
X11850000Y-22750000D03*
X16150000Y-22750000D03*
X16150000Y-23250000D03*
X16150000Y-23750000D03*
X16150000Y-24250000D03*
X16150000Y-24750000D03*
D24*
X19000000Y-31500000D03*
X17000000Y-31500000D03*
X15000000Y-31500000D03*
X13000000Y-31500000D03*
X18500000Y-33000000D03*
X16000000Y-33000000D03*
X14000000Y-33000000D03*
X11000000Y-31500000D03*
X11500000Y-33000000D03*
X19000000Y-34700000D03*
X17000000Y-34700000D03*
X15000000Y-34700000D03*
X13000000Y-34700000D03*
X11000000Y-34700000D03*
X18500000Y-36200000D03*
X16000000Y-36200000D03*
X14000000Y-36200000D03*
D25*
X21570000Y-32520000D03*
X8430000Y-32520000D03*
X8430000Y-38200000D03*
D24*
X11500000Y-36200000D03*
D25*
X21570000Y-38200000D03*
D26*
X28800000Y-35150000D03*
X24800000Y-35150000D03*
D27*
X21100000Y-42350000D03*
X21100000Y-46650000D03*
D28*
X24800000Y-38450000D03*
X27700000Y-38450000D03*
D29*
X41000000Y-47200000D03*
X38500000Y-47200000D03*
X38500000Y-42200000D03*
X41000000Y-42200000D03*
X48500000Y-42200000D03*
X48500000Y-47200000D03*
X46000000Y-47200000D03*
X46000000Y-42200000D03*
X43500000Y-47200000D03*
X43500000Y-42200000D03*
X28000000Y-47200000D03*
X25500000Y-47200000D03*
X25500000Y-42200000D03*
X28000000Y-42200000D03*
X35500000Y-42200000D03*
X35500000Y-47200000D03*
X33000000Y-47200000D03*
X33000000Y-42200000D03*
X30500000Y-47200000D03*
X30500000Y-42200000D03*
D30*
X37050000Y-38450000D03*
X37450000Y-39450000D03*
X36550000Y-39450000D03*
X34050000Y-39450000D03*
X34950000Y-39450000D03*
X34450000Y-38450000D03*
X35350000Y-38450000D03*
X36150000Y-38450000D03*
X35750000Y-39450000D03*
D31*
X35300000Y-34790000D03*
X35300000Y-36310000D03*
X36100000Y-34790000D03*
X36100000Y-36310000D03*
X34500000Y-34790000D03*
X36900000Y-34790000D03*
X36900000Y-36310000D03*
X34500000Y-36310000D03*
X37700000Y-34790000D03*
X38500000Y-34790000D03*
X32900000Y-34790000D03*
X33700000Y-34790000D03*
X33700000Y-36310000D03*
X32900000Y-36310000D03*
X38500000Y-36310000D03*
X37700000Y-36310000D03*
D32*
X39100000Y-30300000D03*
X39100000Y-31250000D03*
X39100000Y-32200000D03*
X36900000Y-32200000D03*
X36900000Y-30300000D03*
X36900000Y-31250000D03*
X32400000Y-32200000D03*
X32400000Y-31250000D03*
X32400000Y-30300000D03*
X34600000Y-30300000D03*
X34600000Y-32200000D03*
X34600000Y-31250000D03*
D10*
G36*
X46951992Y-28478338D02*
X46421662Y-27948008D01*
X46987348Y-27382322D01*
X47517678Y-27912652D01*
X46951992Y-28478338D01*
X46951992Y-28478338D01*
G37*
G36*
X48012652Y-27417678D02*
X47482322Y-26887348D01*
X48048008Y-26321662D01*
X48578338Y-26851992D01*
X48012652Y-27417678D01*
X48012652Y-27417678D01*
G37*
D26*
X3375000Y-16175000D03*
X7375000Y-16175000D03*
D32*
X12900000Y-29450000D03*
X12900000Y-28500000D03*
X12900000Y-27550000D03*
X15100000Y-27550000D03*
X15100000Y-29450000D03*
X15100000Y-28500000D03*
D33*
X44500000Y-30750000D03*
X46000000Y-30750000D03*
D10*
G36*
X25751992Y-26528338D02*
X25221662Y-25998008D01*
X25787348Y-25432322D01*
X26317678Y-25962652D01*
X25751992Y-26528338D01*
X25751992Y-26528338D01*
G37*
G36*
X26812652Y-25467678D02*
X26282322Y-24937348D01*
X26848008Y-24371662D01*
X27378338Y-24901992D01*
X26812652Y-25467678D01*
X26812652Y-25467678D01*
G37*
D34*
X23500000Y-28475000D03*
X23000000Y-28475000D03*
X22500000Y-28475000D03*
X22000000Y-28475000D03*
D35*
X21275000Y-27750000D03*
X21275000Y-27250000D03*
X21275000Y-26750000D03*
X21275000Y-26250000D03*
D34*
X22000000Y-25525000D03*
X22500000Y-25525000D03*
X23000000Y-25525000D03*
X23500000Y-25525000D03*
D35*
X24225000Y-26250000D03*
X24225000Y-26750000D03*
X24225000Y-27250000D03*
X24225000Y-27750000D03*
D36*
X22300000Y-26550000D03*
X23200000Y-26550000D03*
X22300000Y-27450000D03*
X23200000Y-27450000D03*
D37*
X9900000Y-42520000D03*
D38*
X9900000Y-40800000D03*
X12100000Y-40800000D03*
X12100000Y-42700000D03*
D33*
X18350000Y-26350000D03*
X16850000Y-26350000D03*
D26*
X13550000Y-48050000D03*
X9550000Y-48050000D03*
D27*
X3800000Y-39200000D03*
X3800000Y-34900000D03*
D28*
X9350000Y-44750000D03*
X12250000Y-44750000D03*
D10*
G36*
X40771662Y-28409099D02*
X40276688Y-27914125D01*
X40594886Y-27595927D01*
X41089860Y-28090901D01*
X40771662Y-28409099D01*
X40771662Y-28409099D01*
G37*
G36*
X41690901Y-27489860D02*
X41195927Y-26994886D01*
X41514125Y-26676688D01*
X42009099Y-27171662D01*
X41690901Y-27489860D01*
X41690901Y-27489860D01*
G37*
G36*
X42645495Y-29363693D02*
X42150521Y-28868719D01*
X42468719Y-28550521D01*
X42963693Y-29045495D01*
X42645495Y-29363693D01*
X42645495Y-29363693D01*
G37*
D39*
X26025000Y-32500000D03*
X25575000Y-32500000D03*
D40*
X25800000Y-31600000D03*
D39*
X14675000Y-44800000D03*
X14225000Y-44800000D03*
D40*
X14450000Y-43900000D03*
D36*
X16250000Y-43250000D03*
X16250000Y-45150000D03*
X17850000Y-43250000D03*
X17850000Y-45150000D03*
X28300000Y-32450000D03*
X30200000Y-32450000D03*
X12050000Y-38500000D03*
X13950000Y-38500000D03*
X15800000Y-38500000D03*
X17700000Y-38500000D03*
X15900000Y-48000000D03*
X17800000Y-48000000D03*
X28200000Y-14700000D03*
X28200000Y-12800000D03*
X22400000Y-16200000D03*
X22400000Y-14300000D03*
X9000000Y-26700000D03*
X9000000Y-28600000D03*
D14*
X28700000Y-25050000D03*
X28700000Y-27050000D03*
D36*
X27300000Y-18150000D03*
X27300000Y-16250000D03*
D41*
X24500000Y-9500000D03*
X35500000Y-4750000D03*
X28750000Y-5250000D03*
X48100000Y-18200000D03*
D42*
X37300000Y-26150000D03*
X36000000Y-25350000D03*
D41*
X3500000Y-26100000D03*
X36300000Y-22400000D03*
X38000000Y-22600000D03*
X20250000Y-1250000D03*
X20250000Y-3250000D03*
X20250000Y-5000000D03*
X23000000Y-5000000D03*
X40600000Y-16800000D03*
X3750000Y-27650000D03*
X37000000Y-1250000D03*
X32250000Y-3000000D03*
X29500000Y-1250000D03*
X2000000Y-34750000D03*
X5500000Y-35000000D03*
D42*
X31250000Y-25000000D03*
D41*
X48500000Y-26000000D03*
X47500000Y-30750000D03*
D42*
X21500000Y-24600000D03*
D41*
X37200000Y-17200000D03*
X47400000Y-10400000D03*
X33650000Y-20250000D03*
X21800000Y-22900000D03*
X20750000Y-14500000D03*
X12000000Y-14500000D03*
X20750000Y-16000000D03*
X9500000Y-16000000D03*
X8250000Y-11500000D03*
X11750000Y-16000000D03*
X24000000Y-32500000D03*
X29550000Y-39050000D03*
X32900000Y-38800000D03*
X19000000Y-47000000D03*
X28700000Y-30400000D03*
X31000000Y-31200000D03*
X40150000Y-13850000D03*
X31000000Y-20500000D03*
D42*
X29100000Y-19650000D03*
X20250000Y-27500000D03*
D41*
X17750000Y-25250000D03*
X1450000Y-40050000D03*
X5950000Y-40050000D03*
X8600000Y-42550000D03*
X1650000Y-30450000D03*
X8700000Y-21000000D03*
X46150000Y-22150000D03*
X29000000Y-16250000D03*
X11750000Y-28500000D03*
X16000000Y-15750000D03*
X19250000Y-16250000D03*
X16750000Y-21500000D03*
X24500000Y-23250000D03*
X16412500Y-17981250D03*
X16400000Y-19000000D03*
X17250000Y-19000000D03*
X16412500Y-20118750D03*
X17237500Y-20118750D03*
X17237500Y-17981250D03*
X11475000Y-18675000D03*
X11175000Y-20925000D03*
X40800000Y-33000000D03*
D42*
X26200000Y-26900000D03*
X30100000Y-27800000D03*
X30500000Y-26550000D03*
X31050000Y-21850000D03*
X31800000Y-22950000D03*
X35750000Y-37450000D03*
X26000000Y-23750000D03*
X26500000Y-20350000D03*
D41*
X24600000Y-16500000D03*
X24000000Y-14750000D03*
X23500000Y-17750000D03*
X32700000Y-28700000D03*
X27050000Y-29250000D03*
X25800000Y-15200000D03*
X10000000Y-29750000D03*
X31000000Y-35100000D03*
X16500000Y-28500000D03*
X17950000Y-27550000D03*
X13600000Y-42350000D03*
X1450000Y-36500000D03*
X43050000Y-30850000D03*
X33000000Y-17700000D03*
X45550000Y-28850000D03*
X46050000Y-20400000D03*
X8000000Y-14475000D03*
X1250000Y-17500000D03*
X1250000Y-16250000D03*
X1250000Y-14750000D03*
D42*
X32200000Y-22100000D03*
D41*
X20600000Y-21200000D03*
D42*
X37700000Y-34100000D03*
X38500000Y-34100000D03*
X35300000Y-34100000D03*
X36100000Y-34100000D03*
X34500000Y-34100000D03*
X36900000Y-34100000D03*
X32900000Y-34100000D03*
X33700000Y-34100000D03*
X24150000Y-24650000D03*
X20750000Y-25250000D03*
X25250000Y-28500000D03*
X21750000Y-29500000D03*
X22500000Y-24500000D03*
X23250000Y-30000000D03*
D41*
X7800000Y-41350000D03*
X13350000Y-40450000D03*
D42*
X44300000Y-24350000D03*
X5750000Y-33000000D03*
X8600000Y-29450000D03*
X6600000Y-30350000D03*
D43*
X42920000Y-17120000D02*
X42920000Y-15270000D01*
X43900000Y-18100000D02*
X42920000Y-17120000D01*
X48000000Y-18100000D02*
X43900000Y-18100000D01*
X48100000Y-18200000D02*
X48000000Y-18100000D01*
D44*
X37300000Y-26150000D02*
X37300000Y-25565998D01*
X36434002Y-23909002D02*
X35712500Y-23187500D01*
X36434002Y-24700000D02*
X36434002Y-23909002D01*
X37300000Y-25565998D02*
X36434002Y-24700000D01*
X33175000Y-21225000D02*
X34900000Y-21225000D01*
X35525000Y-23000000D02*
X35712500Y-23187500D01*
X35525000Y-21850000D02*
X35525000Y-23000000D01*
X34900000Y-21225000D02*
X35525000Y-21850000D01*
X30300000Y-13300000D02*
X32100000Y-15100000D01*
X29100000Y-13300000D02*
X30300000Y-13300000D01*
X32700000Y-20750000D02*
X32987500Y-21037500D01*
X32987500Y-21037500D02*
X33175000Y-21225000D01*
X32700000Y-18700000D02*
X32700000Y-20750000D01*
X32100000Y-18100000D02*
X32700000Y-18700000D01*
X32100000Y-15100000D02*
X32100000Y-18100000D01*
X29100000Y-13300000D02*
X28300000Y-13300000D01*
X28300000Y-13300000D02*
X28200000Y-13200000D01*
X28200000Y-13200000D02*
X28200000Y-12800000D01*
X13315998Y-14850000D02*
X13315998Y-14684002D01*
X14700000Y-13300000D02*
X29100000Y-13300000D01*
X13315998Y-14684002D02*
X14700000Y-13300000D01*
X12931140Y-23250000D02*
X13315998Y-22865142D01*
X13315998Y-22865142D02*
X13315998Y-14850000D01*
X11850000Y-23250000D02*
X12931140Y-23250000D01*
X36000000Y-25350000D02*
X36000000Y-24088772D01*
X32995230Y-21659002D02*
X32911228Y-21575000D01*
X34720230Y-21659002D02*
X32995230Y-21659002D01*
X35090998Y-22029770D02*
X34720230Y-21659002D01*
X35090998Y-23179770D02*
X35090998Y-22029770D01*
X36000000Y-24088772D02*
X35090998Y-23179770D01*
X23500000Y-13734002D02*
X22415998Y-13734002D01*
X22400000Y-13750000D02*
X22400000Y-14300000D01*
X22415998Y-13734002D02*
X22400000Y-13750000D01*
X13750000Y-20750000D02*
X13750000Y-14863772D01*
X12750000Y-24250000D02*
X13000000Y-24000000D01*
X13000000Y-24000000D02*
X13000000Y-23794912D01*
X13000000Y-23794912D02*
X13750000Y-23044912D01*
X13750000Y-23044912D02*
X13750000Y-20750000D01*
X11850000Y-24250000D02*
X12750000Y-24250000D01*
X32265998Y-20929770D02*
X32875000Y-21538772D01*
X23500000Y-13734002D02*
X30120230Y-13734002D01*
X30120230Y-13734002D02*
X31665998Y-15279770D01*
X31665998Y-15279770D02*
X31665998Y-18279770D01*
X31665998Y-18279770D02*
X32265998Y-18879770D01*
X32265998Y-18879770D02*
X32265998Y-20929770D01*
X14879770Y-13734002D02*
X23500000Y-13734002D01*
X13750000Y-14863772D02*
X14879770Y-13734002D01*
D43*
X3500000Y-26100000D02*
X2000000Y-26100000D01*
X2000000Y-26100000D02*
X1500000Y-26600000D01*
X3725000Y-24475000D02*
X3725000Y-25875000D01*
X3725000Y-25875000D02*
X3500000Y-26100000D01*
D44*
X45250000Y-23550000D02*
X41850000Y-23550000D01*
X41850000Y-23550000D02*
X41500000Y-23200000D01*
X36300000Y-22400000D02*
X36450000Y-22550000D01*
X36450000Y-22550000D02*
X36750000Y-22550000D01*
X36750000Y-22550000D02*
X37600000Y-21700000D01*
X37600000Y-21700000D02*
X40000000Y-21700000D01*
X40000000Y-21700000D02*
X41500000Y-23200000D01*
X45250000Y-23550000D02*
X46344077Y-23550000D01*
X46344077Y-23550000D02*
X46856227Y-24062150D01*
X46856227Y-24062150D02*
X46856227Y-24056227D01*
X42755923Y-25350000D02*
X44162150Y-26756227D01*
X40750000Y-25350000D02*
X42755923Y-25350000D01*
X38000000Y-22600000D02*
X40750000Y-25350000D01*
X29325000Y-8140000D02*
X29325000Y-9075000D01*
X15600000Y-9550000D02*
X14190000Y-8140000D01*
X15600000Y-10600000D02*
X15600000Y-9550000D01*
X16550000Y-11550000D02*
X15600000Y-10600000D01*
X26850000Y-11550000D02*
X16550000Y-11550000D01*
X29325000Y-9075000D02*
X26850000Y-11550000D01*
X14190000Y-8140000D02*
X13575000Y-8140000D01*
X31350000Y-9500000D02*
X31350000Y-10501472D01*
X31350000Y-10501472D02*
X33863604Y-13015076D01*
X29325000Y-8140000D02*
X29990000Y-8140000D01*
X29990000Y-8140000D02*
X31350000Y-9500000D01*
X33565076Y-13015076D02*
X33863604Y-13015076D01*
X14431362Y-11903393D02*
X14483884Y-11945278D01*
X14595000Y-9920000D02*
X14595000Y-10208772D01*
X15671706Y-11327494D02*
X15732232Y-11356642D01*
X14742577Y-11974425D02*
X14803103Y-11945278D01*
X14936228Y-10550000D02*
X14978113Y-10602522D01*
X14978113Y-10602522D02*
X15007260Y-10663048D01*
X15539033Y-11312546D02*
X15606212Y-11312546D01*
X14595000Y-10208772D02*
X14936228Y-10550000D01*
X15007260Y-10663048D02*
X15022209Y-10728542D01*
X15022209Y-10728542D02*
X15022209Y-10795721D01*
X14389477Y-11531651D02*
X14360329Y-11592177D01*
X15022209Y-10795721D02*
X15007260Y-10861215D01*
X14345381Y-11724850D02*
X14360329Y-11790344D01*
X15007260Y-10861215D02*
X14978113Y-10921741D01*
X14978113Y-10921741D02*
X14936228Y-10974264D01*
X14936228Y-10974264D02*
X14431362Y-11479129D01*
X14677083Y-11989374D02*
X14742577Y-11974425D01*
X14345381Y-11657671D02*
X14345381Y-11724850D01*
X14609904Y-11989374D02*
X14677083Y-11989374D01*
X14431362Y-11479129D02*
X14389477Y-11531651D01*
X15473539Y-11327494D02*
X15539033Y-11312546D01*
X14360329Y-11592177D02*
X14345381Y-11657671D01*
X14360329Y-11790344D02*
X14389477Y-11850870D01*
X15360491Y-11398527D02*
X15413013Y-11356642D01*
X14389477Y-11850870D02*
X14431362Y-11903393D01*
X14483884Y-11945278D02*
X14544410Y-11974425D01*
X14544410Y-11974425D02*
X14609904Y-11989374D01*
X14803103Y-11945278D02*
X14855626Y-11903393D01*
X14855626Y-11903393D02*
X15360491Y-11398527D01*
X15606212Y-11312546D02*
X15671706Y-11327494D01*
X15413013Y-11356642D02*
X15473539Y-11327494D01*
X15732232Y-11356642D02*
X15784756Y-11398528D01*
X15784756Y-11398528D02*
X16370230Y-11984002D01*
X16370230Y-11984002D02*
X27029770Y-11984002D01*
X27029770Y-11984002D02*
X29093772Y-9920000D01*
X29093772Y-9920000D02*
X30345000Y-9920000D01*
X30345000Y-9920000D02*
X30345000Y-11193528D01*
X30981395Y-11829923D02*
X31191223Y-11620096D01*
X31303042Y-11549834D02*
X31367825Y-11535047D01*
X30345000Y-11193528D02*
X30386885Y-11246050D01*
X30386885Y-11246050D02*
X30416032Y-11306576D01*
X30416032Y-11306576D02*
X30430981Y-11372070D01*
X30130947Y-12161701D02*
X30172832Y-12214223D01*
X30430981Y-11372070D02*
X30430981Y-11439249D01*
X30416032Y-11504743D02*
X30386885Y-11565269D01*
X30430981Y-11439249D02*
X30416032Y-11504743D01*
X30386885Y-11565269D02*
X30345000Y-11617792D01*
X31700533Y-11867755D02*
X31685746Y-11932537D01*
X31434273Y-11535046D02*
X31499056Y-11549833D01*
X30345000Y-11617792D02*
X30172832Y-11789959D01*
X31558925Y-11578665D02*
X31610877Y-11620095D01*
X30130947Y-11842482D02*
X30101799Y-11903008D01*
X31545223Y-12352193D02*
X31574054Y-12412062D01*
X30172832Y-11789959D02*
X30130947Y-11842482D01*
X30086850Y-11968502D02*
X30086850Y-12035681D01*
X30101799Y-11903008D02*
X30086850Y-11968502D01*
X31191223Y-11620096D02*
X31243173Y-11578664D01*
X30101799Y-12101175D02*
X30130947Y-12161701D01*
X31656915Y-11992406D02*
X31615485Y-12044359D01*
X30086850Y-12035681D02*
X30101799Y-12101175D01*
X30172832Y-12214223D02*
X30225354Y-12256108D01*
X30544573Y-12256108D02*
X30597096Y-12214223D01*
X30225354Y-12256108D02*
X30285880Y-12285255D01*
X31700533Y-11801307D02*
X31700533Y-11867755D01*
X30285880Y-12285255D02*
X30351374Y-12300204D01*
X31530436Y-12220961D02*
X31530437Y-12287411D01*
X30484047Y-12285255D02*
X30544573Y-12256108D01*
X30351374Y-12300204D02*
X30418553Y-12300204D01*
X30418553Y-12300204D02*
X30484047Y-12285255D01*
X30597096Y-12214223D02*
X30981395Y-11829923D01*
X31243173Y-11578664D02*
X31303042Y-11549834D01*
X31367825Y-11535047D02*
X31434273Y-11535046D01*
X31499056Y-11549833D02*
X31558925Y-11578665D01*
X31610877Y-11620095D02*
X31615485Y-11624703D01*
X31615485Y-11624703D02*
X31656915Y-11676654D01*
X31656915Y-11676654D02*
X31685746Y-11736523D01*
X31685746Y-11736523D02*
X31700533Y-11801307D01*
X31685746Y-11932537D02*
X31656915Y-11992406D01*
X31615485Y-12044359D02*
X31574054Y-12096310D01*
X31574054Y-12096310D02*
X31545223Y-12156179D01*
X31545223Y-12156179D02*
X31530436Y-12220961D01*
X31530437Y-12287411D02*
X31545223Y-12352193D01*
X31574054Y-12412062D02*
X31615484Y-12464013D01*
X31615484Y-12464013D02*
X32115471Y-12963999D01*
X32115471Y-12963999D02*
X33015076Y-13863604D01*
D45*
X22850000Y-3000000D02*
X22000000Y-3000000D01*
X22000000Y-3000000D02*
X20250000Y-1250000D01*
X20250000Y-3250000D02*
X20250000Y-5000000D01*
D43*
X5675000Y-24475000D02*
X5675000Y-22125000D01*
X5675000Y-22125000D02*
X5675000Y-19775000D01*
X5675000Y-19775000D02*
X6250000Y-19200000D01*
D45*
X7600000Y-23950000D02*
X7600000Y-25200000D01*
X6875000Y-25925000D02*
X6875000Y-27675000D01*
X7600000Y-25200000D02*
X6875000Y-25925000D01*
D43*
X5675000Y-24475000D02*
X5675000Y-25454754D01*
X6875000Y-26654754D02*
X6875000Y-27675000D01*
X5675000Y-25454754D02*
X6875000Y-26654754D01*
X40600000Y-16800000D02*
X41600000Y-17800000D01*
X41600000Y-18805923D02*
X43037850Y-20243773D01*
X41600000Y-17800000D02*
X41600000Y-18805923D01*
D44*
X43400000Y-20605923D02*
X43037850Y-20243773D01*
X43037850Y-20243773D02*
X43037850Y-20337850D01*
D43*
X5025000Y-22125000D02*
X5025000Y-19975000D01*
X5025000Y-19975000D02*
X4250000Y-19200000D01*
X4875000Y-27675000D02*
X3775000Y-27675000D01*
X3775000Y-27675000D02*
X3750000Y-27650000D01*
X4375000Y-24475000D02*
X4375000Y-27175000D01*
X4375000Y-27175000D02*
X4875000Y-27675000D01*
D45*
X4875000Y-27675000D02*
X4575000Y-27675000D01*
X4575000Y-27675000D02*
X3200000Y-29050000D01*
X3200000Y-29050000D02*
X3200000Y-29750000D01*
X4875000Y-27675000D02*
X4825000Y-27675000D01*
X4800000Y-27600000D02*
X4875000Y-27675000D01*
D46*
X29500000Y-1250000D02*
X37000000Y-1250000D01*
X29500000Y-1250000D02*
X30500000Y-1250000D01*
X30500000Y-1250000D02*
X32250000Y-3000000D01*
D45*
X27750000Y-3000000D02*
X29500000Y-1250000D01*
D44*
X2150000Y-34900000D02*
X2000000Y-34750000D01*
X2150000Y-34900000D02*
X3800000Y-34900000D01*
D45*
X27150000Y-3000000D02*
X27750000Y-3000000D01*
X48030330Y-26869670D02*
X48119670Y-26869670D01*
X48119670Y-26869670D02*
X48500000Y-26489340D01*
X48500000Y-26489340D02*
X48500000Y-26000000D01*
X46000000Y-30750000D02*
X47500000Y-30750000D01*
D44*
X22000000Y-25525000D02*
X22000000Y-25200000D01*
X22000000Y-25200000D02*
X21500000Y-24700000D01*
X21500000Y-24700000D02*
X21500000Y-24600000D01*
D45*
X38319152Y-18244152D02*
X38244152Y-18244152D01*
X38244152Y-18244152D02*
X37200000Y-17200000D01*
D47*
X34442893Y-19457107D02*
X33650000Y-20250000D01*
D45*
X26830330Y-24919670D02*
X28569670Y-24919670D01*
X28569670Y-24919670D02*
X28700000Y-25050000D01*
X4000000Y-34700000D02*
X3800000Y-34900000D01*
X2500000Y-31700000D02*
X2150000Y-31700000D01*
X2150000Y-31700000D02*
X1650000Y-31200000D01*
X1650000Y-31200000D02*
X1650000Y-30450000D01*
X19000000Y-47000000D02*
X19000000Y-46300000D01*
X19000000Y-46300000D02*
X17850000Y-45150000D01*
X17850000Y-45150000D02*
X16250000Y-45150000D01*
D47*
X26830330Y-24919670D02*
X26780330Y-24919670D01*
X26780330Y-24919670D02*
X26560660Y-24700000D01*
X26560660Y-24700000D02*
X25450000Y-24700000D01*
X25450000Y-24700000D02*
X24500000Y-23750000D01*
X24500000Y-23750000D02*
X24500000Y-23250000D01*
D44*
X24225000Y-26250000D02*
X24600000Y-26250000D01*
X24600000Y-26250000D02*
X24800000Y-26050000D01*
X24800000Y-26050000D02*
X24800000Y-25250000D01*
X24800000Y-25250000D02*
X25350000Y-24700000D01*
X25350000Y-24700000D02*
X26560660Y-24700000D01*
X26560660Y-24700000D02*
X26730330Y-24869670D01*
D45*
X31000000Y-31200000D02*
X30550000Y-31200000D01*
D47*
X31050000Y-31250000D02*
X31000000Y-31200000D01*
X32400000Y-31250000D02*
X31050000Y-31250000D01*
D45*
X30200000Y-31550000D02*
X30200000Y-32450000D01*
X30550000Y-31200000D02*
X30200000Y-31550000D01*
D48*
X20750000Y-47000000D02*
X19000000Y-47000000D01*
D47*
X19000000Y-47000000D02*
X18000000Y-48000000D01*
D48*
X20750000Y-47000000D02*
X21100000Y-46650000D01*
D47*
X17800000Y-48000000D02*
X18000000Y-48000000D01*
X39457107Y-14542893D02*
X40150000Y-13850000D01*
D44*
X21275000Y-27750000D02*
X20500000Y-27750000D01*
X20500000Y-27250000D02*
X20250000Y-27500000D01*
X20500000Y-27250000D02*
X21275000Y-27250000D01*
X20500000Y-27750000D02*
X20250000Y-27500000D01*
D45*
X18350000Y-26350000D02*
X18350000Y-25850000D01*
X18350000Y-25850000D02*
X17750000Y-25250000D01*
X9900000Y-42520000D02*
X8630000Y-42520000D01*
X8630000Y-42520000D02*
X8600000Y-42550000D01*
D47*
X34542893Y-19457107D02*
X34442893Y-19457107D01*
D45*
X3800000Y-34900000D02*
X4200000Y-34900000D01*
X1500000Y-28600000D02*
X1500000Y-30300000D01*
X1500000Y-30300000D02*
X1650000Y-30450000D01*
D44*
X11850000Y-22750000D02*
X9850000Y-22750000D01*
X9850000Y-22750000D02*
X9700000Y-22900000D01*
D43*
X7600000Y-21850000D02*
X7850000Y-21850000D01*
X7850000Y-21850000D02*
X8700000Y-21000000D01*
X12900000Y-28500000D02*
X11750000Y-28500000D01*
D46*
X38294152Y-18294152D02*
X38394152Y-18294152D01*
D47*
X39100000Y-31250000D02*
X40050000Y-31250000D01*
X40050000Y-31250000D02*
X40800000Y-32000000D01*
X40800000Y-32000000D02*
X40800000Y-33000000D01*
D46*
X35750000Y-39450000D02*
X35750000Y-37450000D01*
D43*
X45958201Y-24960176D02*
X45960176Y-24960176D01*
X45960176Y-24960176D02*
X47692893Y-26692893D01*
X47692893Y-26692893D02*
X48207107Y-26692893D01*
D45*
X24600000Y-16500000D02*
X24600000Y-16650000D01*
X24300000Y-16200000D02*
X24600000Y-16500000D01*
X22400000Y-16200000D02*
X24300000Y-16200000D01*
X24600000Y-16650000D02*
X23500000Y-17750000D01*
X27300000Y-16250000D02*
X26850000Y-16250000D01*
X26850000Y-16250000D02*
X25800000Y-15200000D01*
X43050000Y-30850000D02*
X42050000Y-30850000D01*
X42050000Y-30850000D02*
X40000000Y-28800000D01*
X40000000Y-28800000D02*
X36100000Y-28800000D01*
X36100000Y-28800000D02*
X35700000Y-29200000D01*
D43*
X28700000Y-27050000D02*
X27200000Y-27050000D01*
D47*
X27050000Y-27050000D02*
X27050000Y-29250000D01*
D45*
X27200000Y-29100000D02*
X27050000Y-29250000D01*
X27200000Y-27300000D02*
X27200000Y-29100000D01*
D43*
X27050000Y-28250000D02*
X27050000Y-29250000D01*
X27200000Y-28100000D02*
X27050000Y-28250000D01*
X27200000Y-27050000D02*
X27200000Y-28100000D01*
D47*
X25769670Y-25980330D02*
X26380330Y-25980330D01*
X27200000Y-26800000D02*
X27200000Y-27300000D01*
X26380330Y-25980330D02*
X27200000Y-26800000D01*
D45*
X27450000Y-27050000D02*
X27200000Y-27300000D01*
X28700000Y-27050000D02*
X27450000Y-27050000D01*
X28200000Y-14700000D02*
X26300000Y-14700000D01*
X26300000Y-14700000D02*
X25800000Y-15200000D01*
D47*
X10500000Y-26850000D02*
X10500000Y-27650000D01*
X10500000Y-27650000D02*
X10388998Y-27761002D01*
X10388998Y-29361002D02*
X10000000Y-29750000D01*
X10388998Y-27761002D02*
X10388998Y-29361002D01*
D43*
X9700000Y-26150000D02*
X10100000Y-26150000D01*
X10500000Y-26550000D02*
X10500000Y-26850000D01*
X10100000Y-26150000D02*
X10500000Y-26550000D01*
X9700000Y-24900000D02*
X9700000Y-26150000D01*
X9700000Y-26150000D02*
X9150000Y-26700000D01*
D44*
X24225000Y-26750000D02*
X25000000Y-26750000D01*
X25000000Y-26750000D02*
X25769670Y-25980330D01*
D47*
X43050000Y-30850000D02*
X44400000Y-30850000D01*
X44400000Y-30850000D02*
X44500000Y-30750000D01*
X42557107Y-28957107D02*
X43750000Y-30150000D01*
X43900000Y-30150000D02*
X44500000Y-30750000D01*
X43750000Y-30150000D02*
X43900000Y-30150000D01*
X43050000Y-30650000D02*
X43050000Y-30850000D01*
X15100000Y-28500000D02*
X16500000Y-28500000D01*
D44*
X16850000Y-26350000D02*
X16850000Y-25050000D01*
X16850000Y-25050000D02*
X16550000Y-24750000D01*
X16550000Y-24750000D02*
X16150000Y-24750000D01*
D47*
X16850000Y-26350000D02*
X16850000Y-26450000D01*
X16850000Y-26450000D02*
X17950000Y-27550000D01*
X14450000Y-43900000D02*
X14450000Y-43200000D01*
D45*
X13250000Y-42700000D02*
X13600000Y-42350000D01*
X13250000Y-42700000D02*
X12100000Y-42700000D01*
D47*
X14450000Y-43200000D02*
X13600000Y-42350000D01*
D44*
X11850000Y-24750000D02*
X9850000Y-24750000D01*
X9850000Y-24750000D02*
X9700000Y-24900000D01*
D47*
X35700000Y-31250000D02*
X35700000Y-29200000D01*
X40000000Y-28800000D02*
X42050000Y-30850000D01*
X36100000Y-28800000D02*
X40000000Y-28800000D01*
X35700000Y-29200000D02*
X36100000Y-28800000D01*
D45*
X36900000Y-31250000D02*
X35700000Y-31250000D01*
X35700000Y-31250000D02*
X34600000Y-31250000D01*
D47*
X45550000Y-28850000D02*
X45900000Y-28500000D01*
X45900000Y-28500000D02*
X46400000Y-28500000D01*
X46400000Y-28500000D02*
X46969670Y-27930330D01*
D43*
X45060176Y-25858201D02*
X45060176Y-25860176D01*
X45060176Y-25860176D02*
X46792893Y-27592893D01*
X46792893Y-27592893D02*
X46792893Y-28107107D01*
X38042893Y-15957107D02*
X37607107Y-15957107D01*
X37607107Y-15957107D02*
X37150000Y-15500000D01*
X35984924Y-15136396D02*
X36786396Y-15136396D01*
X36786396Y-15136396D02*
X37150000Y-15500000D01*
X37150000Y-15500000D02*
X40404396Y-18754396D01*
X40404396Y-18754396D02*
X40404396Y-18985893D01*
X40404396Y-18904396D02*
X40404396Y-18985893D01*
X40404396Y-18985893D02*
X40404396Y-19406371D01*
X40404396Y-19406371D02*
X42139824Y-21141799D01*
D47*
X42139824Y-21141799D02*
X42139824Y-21139824D01*
X42139824Y-21141799D02*
X42139824Y-21039824D01*
D43*
X35957107Y-18042893D02*
X36392893Y-18042893D01*
X36392893Y-18042893D02*
X37000000Y-18650000D01*
X35136396Y-15984924D02*
X35136396Y-16786396D01*
X35136396Y-16786396D02*
X37000000Y-18650000D01*
X37000000Y-18650000D02*
X38679396Y-20329396D01*
X38679396Y-20329396D02*
X39060893Y-20329396D01*
X38929396Y-20329396D02*
X39060893Y-20329396D01*
X38829396Y-20329396D02*
X39060893Y-20329396D01*
X39060893Y-20329396D02*
X39531371Y-20329396D01*
X39531371Y-20329396D02*
X41241799Y-22039824D01*
D47*
X41241799Y-22039824D02*
X41239824Y-22039824D01*
D45*
X7375000Y-16175000D02*
X7375000Y-15100000D01*
X7375000Y-15100000D02*
X8000000Y-14475000D01*
D43*
X4375000Y-22125000D02*
X4375000Y-21125000D01*
X3975000Y-20725000D02*
X3275000Y-20725000D01*
X4375000Y-21125000D02*
X3975000Y-20725000D01*
X3725000Y-22125000D02*
X3725000Y-21175000D01*
X3275000Y-20725000D02*
X2150000Y-20725000D01*
X3725000Y-21175000D02*
X3275000Y-20725000D01*
D45*
X1250000Y-17500000D02*
X1250000Y-16250000D01*
X4600000Y-31700000D02*
X4600000Y-30450000D01*
X4600000Y-30450000D02*
X5300000Y-29750000D01*
D43*
X5025000Y-24475000D02*
X5025000Y-25625000D01*
X5900000Y-29150000D02*
X5300000Y-29750000D01*
X5900000Y-26500000D02*
X5900000Y-29150000D01*
X5025000Y-25625000D02*
X5900000Y-26500000D01*
D44*
X31831996Y-20100000D02*
X31831996Y-19059540D01*
X31831996Y-19059540D02*
X30922456Y-18150000D01*
X30922456Y-18150000D02*
X27150000Y-18150000D01*
X27150000Y-18150000D02*
X26500000Y-18800000D01*
X24100000Y-21200000D02*
X26500000Y-18800000D01*
X31831996Y-20100000D02*
X31831996Y-21731996D01*
X31831996Y-21731996D02*
X32200000Y-22100000D01*
X20600000Y-21200000D02*
X24100000Y-21200000D01*
D43*
X16000000Y-36200000D02*
X16750000Y-36950000D01*
X16250000Y-42100000D02*
X16250000Y-43250000D01*
X16750000Y-41600000D02*
X16250000Y-42100000D01*
X16750000Y-36950000D02*
X16750000Y-41600000D01*
X16000000Y-36200000D02*
X15750000Y-36200000D01*
X15750000Y-36200000D02*
X14050000Y-37900000D01*
X14050000Y-37900000D02*
X14050000Y-38500000D01*
D44*
X16000000Y-36200000D02*
X16200000Y-36200000D01*
X14050000Y-38500000D02*
X14050000Y-37950000D01*
X14050000Y-37950000D02*
X15800000Y-36200000D01*
X15800000Y-36200000D02*
X16000000Y-36200000D01*
D43*
X17850000Y-43250000D02*
X17850000Y-38650000D01*
X17850000Y-38650000D02*
X17700000Y-38500000D01*
D44*
X17800000Y-38500000D02*
X17800000Y-36800000D01*
X17800000Y-36800000D02*
X16000000Y-35000000D01*
X16000000Y-35000000D02*
X16000000Y-33000000D01*
D43*
X14000000Y-36200000D02*
X14000000Y-33000000D01*
D44*
X21950000Y-23750000D02*
X21300000Y-23750000D01*
X17650000Y-22750000D02*
X16150000Y-22750000D01*
X18350000Y-22050000D02*
X17650000Y-22750000D01*
X20250000Y-22050000D02*
X18350000Y-22050000D01*
X20850000Y-22650000D02*
X20250000Y-22050000D01*
X20850000Y-23300000D02*
X20850000Y-22650000D01*
X21300000Y-23750000D02*
X20850000Y-23300000D01*
X23000000Y-25525000D02*
X23000000Y-24861228D01*
X23000000Y-23750000D02*
X21950000Y-23750000D01*
X23200000Y-23950000D02*
X23000000Y-23750000D01*
X23200000Y-24661228D02*
X23200000Y-23950000D01*
X23000000Y-24861228D02*
X23200000Y-24661228D01*
X16150000Y-22750000D02*
X14658684Y-22750000D01*
X13300000Y-27150000D02*
X12850000Y-27600000D01*
X13300000Y-24313772D02*
X13300000Y-27150000D01*
X13450000Y-24163772D02*
X13300000Y-24313772D01*
X13450000Y-23958684D02*
X13450000Y-24163772D01*
X14658684Y-22750000D02*
X13450000Y-23958684D01*
X12850000Y-27600000D02*
X11400000Y-27600000D01*
X10950000Y-28050000D02*
X10950000Y-31450000D01*
X11400000Y-27600000D02*
X10950000Y-28050000D01*
X10950000Y-31450000D02*
X11000000Y-31500000D01*
X12900000Y-27550000D02*
X12550000Y-27550000D01*
X11000000Y-31256946D02*
X11000000Y-31500000D01*
X11000000Y-34700000D02*
X10950000Y-34700000D01*
X10950000Y-34700000D02*
X10500000Y-34250000D01*
X10500000Y-34250000D02*
X10500000Y-32000000D01*
X10500000Y-32000000D02*
X11000000Y-31500000D01*
X12900000Y-29450000D02*
X11950000Y-29450000D01*
X11950000Y-29450000D02*
X11700000Y-29700000D01*
X20743114Y-24200000D02*
X20743114Y-23806886D01*
X17829770Y-23184002D02*
X17515998Y-23184002D01*
X18529770Y-22484002D02*
X17829770Y-23184002D01*
X20070230Y-22484002D02*
X18529770Y-22484002D01*
X20415998Y-22829770D02*
X20070230Y-22484002D01*
X20415998Y-23479770D02*
X20415998Y-22829770D01*
X20743114Y-23806886D02*
X20415998Y-23479770D01*
X21275000Y-26750000D02*
X20400000Y-26750000D01*
X17450000Y-23250000D02*
X16150000Y-23250000D01*
X17515998Y-23184002D02*
X17450000Y-23250000D01*
X20743114Y-24256886D02*
X20743114Y-24200000D01*
X20000000Y-25000000D02*
X20743114Y-24256886D01*
X20000000Y-26350000D02*
X20000000Y-25000000D01*
X20400000Y-26750000D02*
X20000000Y-26350000D01*
X16150000Y-23250000D02*
X14772456Y-23250000D01*
X13750000Y-29150000D02*
X13450000Y-29450000D01*
X13750000Y-26300000D02*
X13750000Y-29150000D01*
X13900000Y-26150000D02*
X13750000Y-26300000D01*
X13450000Y-29450000D02*
X11950000Y-29450000D01*
X13900000Y-24122456D02*
X13900000Y-26150000D01*
X14772456Y-23250000D02*
X13900000Y-24122456D01*
X11700000Y-29700000D02*
X11700000Y-30750000D01*
X11950000Y-29450000D02*
X11700000Y-29700000D01*
X11700000Y-30750000D02*
X12450000Y-31500000D01*
X12450000Y-31500000D02*
X13000000Y-31500000D01*
X13000000Y-31500000D02*
X12650000Y-31500000D01*
X13000000Y-31500000D02*
X12950000Y-31500000D01*
X12950000Y-29400000D02*
X12900000Y-29450000D01*
X13000000Y-34700000D02*
X12950000Y-34700000D01*
X12950000Y-34700000D02*
X12500000Y-34250000D01*
X12500000Y-34250000D02*
X12500000Y-32000000D01*
X12500000Y-32000000D02*
X13000000Y-31500000D01*
D43*
X12800000Y-29450000D02*
X12900000Y-29450000D01*
D44*
X15100000Y-29450000D02*
X16650000Y-29450000D01*
X16650000Y-29450000D02*
X17015998Y-29815998D01*
X17000000Y-31500000D02*
X17550000Y-31500000D01*
X17550000Y-31500000D02*
X17700000Y-31350000D01*
X22500000Y-28475000D02*
X22500000Y-29900000D01*
X21263738Y-28695952D02*
X21263738Y-28634372D01*
X18947096Y-23750000D02*
X18942000Y-23750000D01*
X19949925Y-29278285D02*
X19889888Y-29291988D01*
X20914865Y-29917235D02*
X20866720Y-29955629D01*
X22500000Y-29900000D02*
X22150000Y-30250000D01*
X19528881Y-23752380D02*
X19508822Y-23759399D01*
X22150000Y-30250000D02*
X21550000Y-30250000D01*
X21184922Y-28470708D02*
X21136775Y-28432312D01*
X21550000Y-30250000D02*
X21255628Y-29955629D01*
X18101694Y-23654951D02*
X18091126Y-23651253D01*
X19700000Y-28788908D02*
X19738394Y-28740763D01*
X19950000Y-23750000D02*
X19550000Y-23750000D01*
X20313825Y-30206156D02*
X20265680Y-30167762D01*
X18949475Y-23866023D02*
X18947096Y-23844904D01*
X18148825Y-23739091D02*
X18140908Y-23731174D01*
X20866720Y-29955629D02*
X20654588Y-30167762D01*
X21250035Y-28574335D02*
X21223315Y-28518852D01*
X19475801Y-23785733D02*
X19464494Y-23803727D01*
X21255628Y-29955629D02*
X21207483Y-29917235D01*
X18956494Y-23886082D02*
X18949475Y-23866023D01*
X21021258Y-28391892D02*
X20959676Y-28391891D01*
X18440368Y-23257671D02*
X18434000Y-23314192D01*
X20490924Y-30246578D02*
X20429344Y-30246578D01*
X19765113Y-28503627D02*
X19738394Y-28448145D01*
X21207483Y-29917235D02*
X21152001Y-29890516D01*
X21152001Y-29890516D02*
X21091964Y-29876813D01*
X19738394Y-28448145D02*
X19700000Y-28400000D01*
X18434000Y-23314192D02*
X18434000Y-23496000D01*
X19464494Y-23803727D02*
X19457475Y-23823786D01*
X20606443Y-30206156D02*
X20550961Y-30232875D01*
X20200567Y-29882481D02*
X20227285Y-29826998D01*
X20227285Y-29826998D02*
X20265680Y-29778853D01*
X21091964Y-29876813D02*
X21030384Y-29876813D01*
X18131253Y-23711126D02*
X18128746Y-23688873D01*
X20550961Y-30232875D02*
X20490924Y-30246578D01*
X20899641Y-28405595D02*
X20844157Y-28432312D01*
X21030384Y-29876813D02*
X20970347Y-29890516D01*
X21081293Y-28405594D02*
X21021258Y-28391892D01*
X19599531Y-29109544D02*
X19585828Y-29049507D01*
X20654588Y-30167762D02*
X20606443Y-30206156D01*
X20970347Y-29890516D02*
X20914865Y-29917235D01*
X19000822Y-23930410D02*
X18982828Y-23919103D01*
X19042000Y-23939808D02*
X19020881Y-23937429D01*
X20429344Y-30246578D02*
X20369307Y-30232875D01*
X20265680Y-30167762D02*
X20227285Y-30119616D01*
X20369307Y-30232875D02*
X20313825Y-30206156D01*
X20200567Y-30064134D02*
X20186864Y-30004097D01*
X21136775Y-28432312D02*
X21081293Y-28405594D01*
X20227285Y-30119616D02*
X20200567Y-30064134D01*
X17603174Y-23739091D02*
X17593694Y-23745048D01*
X19565998Y-24820220D02*
X20150000Y-24236218D01*
X19490828Y-23770706D02*
X19475801Y-23785733D01*
X19889888Y-29291988D02*
X19828308Y-29291988D01*
X19765113Y-28685281D02*
X19778816Y-28625244D01*
X20186864Y-30004097D02*
X20186864Y-29942517D01*
X18529633Y-23115606D02*
X18489414Y-23155825D01*
X20186864Y-29942517D02*
X20200567Y-29882481D01*
X19445697Y-23886082D02*
X19434390Y-23904076D01*
X19565998Y-28265998D02*
X19565998Y-24820220D01*
X19778816Y-28625244D02*
X19778816Y-28563664D01*
X18134951Y-23721694D02*
X18131253Y-23711126D01*
X20265680Y-29778853D02*
X21184922Y-28859616D01*
X21223315Y-28518852D02*
X21184922Y-28470708D01*
X19434390Y-23904076D02*
X19419363Y-23919103D01*
X21184922Y-28859616D02*
X21223315Y-28811470D01*
X20796014Y-28470709D02*
X20053552Y-29213172D01*
X18489414Y-23155825D02*
X18459153Y-23203985D01*
X19626249Y-29165026D02*
X19599531Y-29109544D01*
X18427631Y-23552520D02*
X18408846Y-23606206D01*
X18916846Y-23203985D02*
X18886585Y-23155825D01*
X19738394Y-28740763D02*
X19765113Y-28685281D01*
X18125048Y-23678305D02*
X18119091Y-23668825D01*
X21223315Y-28811470D02*
X21250035Y-28755989D01*
X21250035Y-28755989D02*
X21263738Y-28695952D01*
X18236520Y-23743631D02*
X18180000Y-23750000D01*
X20844157Y-28432312D02*
X20796014Y-28470709D01*
X21263738Y-28634372D02*
X21250035Y-28574335D01*
X19700000Y-28400000D02*
X19565998Y-28265998D01*
X20959676Y-28391891D02*
X20899641Y-28405595D01*
X20053552Y-29213172D02*
X20005407Y-29251566D01*
X20150000Y-24236218D02*
X20150000Y-23950000D01*
X20005407Y-29251566D02*
X19949925Y-29278285D01*
X19828308Y-29291988D02*
X19768271Y-29278285D01*
X18577793Y-23085345D02*
X18529633Y-23115606D01*
X18947096Y-23844904D02*
X18947096Y-23750000D01*
X18408846Y-23606206D02*
X18378585Y-23654366D01*
X19768271Y-29278285D02*
X19712789Y-29251566D01*
X19020881Y-23937429D02*
X19000822Y-23930410D01*
X19664644Y-29213172D02*
X19626249Y-29165026D01*
X18180000Y-23750000D02*
X18168873Y-23748746D01*
X20150000Y-23950000D02*
X19950000Y-23750000D01*
X19712789Y-29251566D02*
X19664644Y-29213172D01*
X19585828Y-29049507D02*
X19585828Y-28987927D01*
X19585828Y-28987927D02*
X19599531Y-28927890D01*
X19664644Y-28824263D02*
X19700000Y-28788908D01*
X19599531Y-28927890D02*
X19626249Y-28872408D01*
X17620746Y-23711126D02*
X17617048Y-23721694D01*
X19626249Y-28872408D02*
X19664644Y-28824263D01*
X18631479Y-23066560D02*
X18577793Y-23085345D01*
X19778816Y-28563664D02*
X19765113Y-28503627D01*
X19550000Y-23750000D02*
X19528881Y-23752380D01*
X18140908Y-23731174D02*
X18134951Y-23721694D01*
X19508822Y-23759399D02*
X19490828Y-23770706D01*
X18688000Y-23060192D02*
X18631479Y-23066560D01*
X19457475Y-23823786D02*
X19452716Y-23866023D01*
X19452716Y-23866023D02*
X19445697Y-23886082D01*
X18886585Y-23155825D02*
X18846366Y-23115606D01*
X16209234Y-23750000D02*
X16150000Y-23750000D01*
X18158305Y-23745048D02*
X18148825Y-23739091D01*
X18935631Y-23257671D02*
X18916846Y-23203985D01*
X19419363Y-23919103D02*
X19401369Y-23930410D01*
X19360192Y-23939808D02*
X19042000Y-23939808D01*
X19401369Y-23930410D02*
X19381310Y-23937429D01*
X17611091Y-23731174D02*
X17603174Y-23739091D01*
X19381310Y-23937429D02*
X19360192Y-23939808D01*
X18982828Y-23919103D02*
X18967801Y-23904076D01*
X18967801Y-23904076D02*
X18956494Y-23886082D01*
X18378585Y-23654366D02*
X18338366Y-23694585D01*
X18942000Y-23750000D02*
X18942000Y-23314192D01*
X18942000Y-23314192D02*
X18935631Y-23257671D01*
X18846366Y-23115606D02*
X18798206Y-23085345D01*
X18798206Y-23085345D02*
X18744520Y-23066560D01*
X18744520Y-23066560D02*
X18688000Y-23060192D01*
X18459153Y-23203985D02*
X18440368Y-23257671D01*
X18434000Y-23496000D02*
X18427631Y-23552520D01*
X18338366Y-23694585D02*
X18290206Y-23724846D01*
X18290206Y-23724846D02*
X18236520Y-23743631D01*
X18168873Y-23748746D02*
X18158305Y-23745048D01*
X18128746Y-23688873D02*
X18125048Y-23678305D01*
X18119091Y-23668825D02*
X18111174Y-23660908D01*
X18111174Y-23660908D02*
X18101694Y-23654951D01*
X18091126Y-23651253D02*
X18080000Y-23650000D01*
X18080000Y-23650000D02*
X17672000Y-23650000D01*
X17632908Y-23668825D02*
X17626951Y-23678305D01*
X17672000Y-23650000D02*
X17660873Y-23651253D01*
X17660873Y-23651253D02*
X17650305Y-23654951D01*
X17650305Y-23654951D02*
X17640825Y-23660908D01*
X17640825Y-23660908D02*
X17632908Y-23668825D01*
X17572000Y-23750000D02*
X16209234Y-23750000D01*
X17626951Y-23678305D02*
X17623253Y-23688873D01*
X17623253Y-23688873D02*
X17620746Y-23711126D01*
X17617048Y-23721694D02*
X17611091Y-23731174D01*
X17593694Y-23745048D02*
X17583126Y-23748746D01*
X17583126Y-23748746D02*
X17572000Y-23750000D01*
X17286228Y-30436228D02*
X17700000Y-30850000D01*
X17700000Y-30850000D02*
X17700000Y-31350000D01*
X17700000Y-31350000D02*
X17550000Y-31500000D01*
X17286228Y-30400000D02*
X17015998Y-30129770D01*
X17286228Y-30400000D02*
X17286228Y-30436228D01*
X14886228Y-23750000D02*
X16150000Y-23750000D01*
X14334002Y-24302226D02*
X14886228Y-23750000D01*
X14334002Y-26400000D02*
X14334002Y-24302226D01*
X14184002Y-26550000D02*
X14334002Y-26400000D01*
X14184002Y-29200000D02*
X14184002Y-26550000D01*
X14434002Y-29450000D02*
X14184002Y-29200000D01*
X16650000Y-29450000D02*
X14434002Y-29450000D01*
X17015998Y-29815998D02*
X16650000Y-29450000D01*
X17015998Y-30129770D02*
X17015998Y-29815998D01*
X17000000Y-34700000D02*
X17000000Y-34250000D01*
X17000000Y-34250000D02*
X17500000Y-33750000D01*
X17500000Y-32000000D02*
X17000000Y-31500000D01*
X17500000Y-33750000D02*
X17500000Y-32000000D01*
X24225000Y-27250000D02*
X25150000Y-27250000D01*
X18658684Y-24250000D02*
X16150000Y-24250000D01*
X19131996Y-24723312D02*
X18658684Y-24250000D01*
X19131996Y-29881996D02*
X19131996Y-24723312D01*
X19934002Y-30684002D02*
X19131996Y-29881996D01*
X24465998Y-30684002D02*
X19934002Y-30684002D01*
X25950000Y-29200000D02*
X24465998Y-30684002D01*
X25950000Y-28050000D02*
X25950000Y-29200000D01*
X25150000Y-27250000D02*
X25950000Y-28050000D01*
X18269219Y-29855042D02*
X18321742Y-29813157D01*
X16150000Y-24250000D02*
X15000000Y-24250000D01*
X18640962Y-29813158D02*
X18693483Y-29855042D01*
X15000000Y-24250000D02*
X14768004Y-24481996D01*
X17450000Y-29950000D02*
X17600000Y-30100000D01*
X18447763Y-29769061D02*
X18514941Y-29769060D01*
X14768004Y-24481996D02*
X14768004Y-27218004D01*
X18514941Y-29769060D02*
X18580436Y-29784010D01*
X18764515Y-29968090D02*
X18779465Y-30033585D01*
X14768004Y-27218004D02*
X15050000Y-27500000D01*
X15050000Y-27500000D02*
X16800000Y-27500000D01*
X17778541Y-30185980D02*
X17845721Y-30185981D01*
X17971741Y-30141885D02*
X18024264Y-30100000D01*
X17450000Y-28150000D02*
X17450000Y-29950000D01*
X18448528Y-30948528D02*
X19000000Y-31500000D01*
X16800000Y-27500000D02*
X17450000Y-28150000D01*
X18321742Y-29813157D02*
X18382268Y-29784010D01*
X18779465Y-30033585D02*
X18779464Y-30100763D01*
X17845721Y-30185981D02*
X17911214Y-30171031D01*
X17600000Y-30100000D02*
X17652521Y-30141884D01*
X17652521Y-30141884D02*
X17713048Y-30171032D01*
X17713048Y-30171032D02*
X17778541Y-30185980D01*
X18735369Y-29907565D02*
X18764515Y-29968090D01*
X17911214Y-30171031D02*
X17971741Y-30141885D01*
X18024264Y-30100000D02*
X18269219Y-29855042D01*
X18764516Y-30166258D02*
X18735368Y-30226783D01*
X18382268Y-29784010D02*
X18447763Y-29769061D01*
X18580436Y-29784010D02*
X18640962Y-29813158D01*
X18693483Y-29855042D02*
X18735369Y-29907565D01*
X18779464Y-30100763D02*
X18764516Y-30166258D01*
X18735368Y-30226783D02*
X18693483Y-30279306D01*
X18693483Y-30279306D02*
X18448527Y-30524263D01*
X18448527Y-30524263D02*
X18406642Y-30576786D01*
X18406642Y-30576786D02*
X18377493Y-30637310D01*
X18377493Y-30637310D02*
X18362544Y-30702805D01*
X18362544Y-30702805D02*
X18362545Y-30769985D01*
X18362545Y-30769985D02*
X18377493Y-30835478D01*
X18377493Y-30835478D02*
X18406641Y-30896004D01*
X18406641Y-30896004D02*
X18448528Y-30948528D01*
X19000000Y-34700000D02*
X19000000Y-34000000D01*
X19500000Y-32000000D02*
X19000000Y-31500000D01*
X19500000Y-33500000D02*
X19500000Y-32000000D01*
X19000000Y-34000000D02*
X19500000Y-33500000D01*
X26025000Y-32500000D02*
X26025000Y-32875000D01*
X28100000Y-33350000D02*
X28300000Y-33350000D01*
X28200000Y-33350000D02*
X28100000Y-33350000D01*
X28300000Y-33450000D02*
X28200000Y-33350000D01*
X26600000Y-33450000D02*
X28300000Y-33450000D01*
X26025000Y-32875000D02*
X26600000Y-33450000D01*
D45*
X28300000Y-32450000D02*
X28300000Y-33350000D01*
X28300000Y-33350000D02*
X28300000Y-34650000D01*
X28300000Y-34650000D02*
X28800000Y-35150000D01*
X27700000Y-38450000D02*
X27700000Y-37350000D01*
X26500000Y-36850000D02*
X24800000Y-35150000D01*
X27200000Y-36850000D02*
X26500000Y-36850000D01*
X27700000Y-37350000D02*
X27200000Y-36850000D01*
X25575000Y-33500000D02*
X25575000Y-35075000D01*
X25575000Y-35075000D02*
X25650000Y-35150000D01*
D47*
X25575000Y-33250000D02*
X25575000Y-33500000D01*
X25575000Y-35075000D02*
X25650000Y-35150000D01*
D44*
X25575000Y-32500000D02*
X25575000Y-33250000D01*
X25575000Y-35075000D02*
X25650000Y-35150000D01*
X24550000Y-34600000D02*
X24550000Y-34650000D01*
D48*
X41000000Y-42200000D02*
X41000000Y-47200000D01*
D46*
X36150000Y-38450000D02*
X36150000Y-37900000D01*
X36150000Y-37900000D02*
X36350000Y-37700000D01*
X36150000Y-38450000D02*
X36150000Y-40250000D01*
X39700000Y-40900000D02*
X41000000Y-42200000D01*
X36800000Y-40900000D02*
X39700000Y-40900000D01*
X36150000Y-40250000D02*
X36800000Y-40900000D01*
X36100000Y-36900000D02*
X36100000Y-36310000D01*
X36350000Y-37150000D02*
X36100000Y-36900000D01*
X36350000Y-37700000D02*
X36350000Y-37150000D01*
D48*
X38500000Y-42200000D02*
X38500000Y-47200000D01*
X25500000Y-42200000D02*
X21250000Y-42200000D01*
X21250000Y-42200000D02*
X21100000Y-42350000D01*
D45*
X21100000Y-42350000D02*
X25350000Y-42350000D01*
X25350000Y-42350000D02*
X25500000Y-42200000D01*
X24800000Y-38450000D02*
X24800000Y-38950000D01*
X24800000Y-38950000D02*
X21400000Y-42350000D01*
X21400000Y-42350000D02*
X21100000Y-42350000D01*
D48*
X48500000Y-42200000D02*
X48500000Y-47200000D01*
D46*
X37450000Y-38800000D02*
X37450000Y-39450000D01*
X37450000Y-39450000D02*
X37450000Y-39300000D01*
X37450000Y-39450000D02*
X37450000Y-39559994D01*
X37450000Y-39559994D02*
X37650000Y-39759994D01*
X37650000Y-39759994D02*
X44409994Y-39759994D01*
X44409994Y-39759994D02*
X45400000Y-40750000D01*
X45400000Y-40750000D02*
X47050000Y-40750000D01*
X47050000Y-40750000D02*
X48500000Y-42200000D01*
X38500000Y-36310000D02*
X38500000Y-37750000D01*
X38500000Y-37750000D02*
X37450000Y-38800000D01*
D48*
X46000000Y-42200000D02*
X46000000Y-47200000D01*
D46*
X46000000Y-42200000D02*
X46000000Y-42825000D01*
X37050000Y-38450000D02*
X37050000Y-38100000D01*
X37050000Y-38100000D02*
X37700000Y-37450000D01*
X37050000Y-38450000D02*
X37050000Y-39939996D01*
X43539996Y-40139996D02*
X45600000Y-42200000D01*
X37250000Y-40139996D02*
X43539996Y-40139996D01*
X37050000Y-39939996D02*
X37250000Y-40139996D01*
X45600000Y-42200000D02*
X46000000Y-42200000D01*
X37700000Y-37450000D02*
X37700000Y-36310000D01*
D48*
X43500000Y-42200000D02*
X43500000Y-47200000D01*
D46*
X43500000Y-42200000D02*
X43500000Y-42400000D01*
X36550000Y-39450000D02*
X36550000Y-39000000D01*
X36600000Y-38950000D02*
X36600000Y-38000000D01*
X36550000Y-39000000D02*
X36600000Y-38950000D01*
X36550000Y-39450000D02*
X36550000Y-40112596D01*
X41819998Y-40519998D02*
X43500000Y-42200000D01*
X36957402Y-40519998D02*
X41819998Y-40519998D01*
X36550000Y-40112596D02*
X36957402Y-40519998D01*
X36800000Y-37800000D02*
X36800000Y-36410000D01*
X36600000Y-38000000D02*
X36800000Y-37800000D01*
X36800000Y-36410000D02*
X36900000Y-36310000D01*
D48*
X28000000Y-47200000D02*
X28000000Y-42200000D01*
D46*
X32900000Y-37350000D02*
X32900000Y-36310000D01*
X34050000Y-39450000D02*
X34050000Y-40012596D01*
X29880002Y-40319998D02*
X28000000Y-42200000D01*
X33742598Y-40319998D02*
X29880002Y-40319998D01*
X34050000Y-40012596D02*
X33742598Y-40319998D01*
X34050000Y-39450000D02*
X34050000Y-38500000D01*
X34050000Y-38500000D02*
X32900000Y-37350000D01*
D48*
X35500000Y-47200000D02*
X35500000Y-42200000D01*
D46*
X35500000Y-42200000D02*
X35500000Y-41400000D01*
X35500000Y-41400000D02*
X35350000Y-41250000D01*
X35350000Y-41250000D02*
X35350000Y-38469998D01*
X35300000Y-36900000D02*
X35300000Y-36310000D01*
X35150000Y-37050000D02*
X35300000Y-36900000D01*
X35150000Y-37700000D02*
X35150000Y-37050000D01*
X35350000Y-38469998D02*
X35369998Y-38450000D01*
X35369998Y-38450000D02*
X35350000Y-38450000D01*
X35350000Y-38450000D02*
X35350000Y-37900000D01*
X35350000Y-37900000D02*
X35150000Y-37700000D01*
D48*
X33000000Y-47200000D02*
X33000000Y-42200000D01*
D46*
X34500000Y-36900000D02*
X34500000Y-36310000D01*
X34769998Y-37169998D02*
X34500000Y-36900000D01*
X34769998Y-37857402D02*
X34769998Y-37169998D01*
X34950000Y-39450000D02*
X34950000Y-40250000D01*
X34950000Y-40250000D02*
X33000000Y-42200000D01*
X34950000Y-39450000D02*
X34950000Y-38037404D01*
X34950000Y-38037404D02*
X34769998Y-37857402D01*
D48*
X30500000Y-47200000D02*
X30500000Y-42200000D01*
D46*
X33700000Y-37350000D02*
X33700000Y-36310000D01*
X34450000Y-38450000D02*
X34450000Y-40150000D01*
X32000000Y-40700000D02*
X30500000Y-42200000D01*
X33900000Y-40700000D02*
X32000000Y-40700000D01*
X34450000Y-40150000D02*
X33900000Y-40700000D01*
X34450000Y-38450000D02*
X34450000Y-38100000D01*
X34450000Y-38100000D02*
X33700000Y-37350000D01*
D44*
X39100000Y-30300000D02*
X38534002Y-30300000D01*
X37700000Y-33513772D02*
X37700000Y-34100000D01*
X38234002Y-32979770D02*
X37700000Y-33513772D01*
X38234002Y-30600000D02*
X38234002Y-32979770D01*
X38534002Y-30300000D02*
X38234002Y-30600000D01*
D46*
X37700000Y-34790000D02*
X37700000Y-34100000D01*
D44*
X39100000Y-32200000D02*
X39100000Y-32727544D01*
X38500000Y-33327544D02*
X38500000Y-34100000D01*
X39100000Y-32727544D02*
X38500000Y-33327544D01*
D46*
X38500000Y-34790000D02*
X38500000Y-34100000D01*
D44*
X34600000Y-32200000D02*
X34600000Y-33100000D01*
X35300000Y-33800000D02*
X35300000Y-34100000D01*
X34600000Y-33100000D02*
X35300000Y-33800000D01*
D46*
X35300000Y-34100000D02*
X35300000Y-34790000D01*
D44*
X36100000Y-34100000D02*
X36100000Y-33000000D01*
X36100000Y-33000000D02*
X36900000Y-32200000D01*
D46*
X36100000Y-34100000D02*
X36100000Y-34790000D01*
D44*
X34500000Y-34100000D02*
X34500000Y-33886228D01*
X33900000Y-30300000D02*
X34600000Y-30300000D01*
X33734002Y-30465998D02*
X33900000Y-30300000D01*
X33734002Y-33120230D02*
X33734002Y-30465998D01*
X34500000Y-33886228D02*
X33734002Y-33120230D01*
D46*
X34500000Y-34100000D02*
X34500000Y-34790000D01*
D44*
X36900000Y-34100000D02*
X36900000Y-33700000D01*
X37600000Y-30300000D02*
X36900000Y-30300000D01*
X37800000Y-30500000D02*
X37600000Y-30300000D01*
X37800000Y-32800000D02*
X37800000Y-30500000D01*
X36900000Y-33700000D02*
X37800000Y-32800000D01*
X36900000Y-34100000D02*
X36900000Y-33986228D01*
D46*
X36900000Y-34100000D02*
X36900000Y-34790000D01*
D44*
X32900000Y-34100000D02*
X32900000Y-33500000D01*
X32400000Y-33000000D02*
X32400000Y-32200000D01*
X32900000Y-33500000D02*
X32400000Y-33000000D01*
D46*
X32900000Y-34100000D02*
X32900000Y-34790000D01*
D44*
X32400000Y-30300000D02*
X33100000Y-30300000D01*
X33700000Y-33700000D02*
X33700000Y-34100000D01*
X33300000Y-33300000D02*
X33700000Y-33700000D01*
X33300000Y-30500000D02*
X33300000Y-33300000D01*
X33100000Y-30300000D02*
X33300000Y-30500000D01*
D46*
X33700000Y-34100000D02*
X33700000Y-34790000D01*
D44*
X23500000Y-25525000D02*
X23500000Y-24975000D01*
X23825000Y-24650000D02*
X24150000Y-24650000D01*
X23500000Y-24975000D02*
X23825000Y-24650000D01*
X20613772Y-26250000D02*
X20434002Y-26070230D01*
X20434002Y-26070230D02*
X20434002Y-25565998D01*
X20434002Y-25565998D02*
X20750000Y-25250000D01*
X21275000Y-26250000D02*
X20613772Y-26250000D01*
X24225000Y-27750000D02*
X24750000Y-27750000D01*
X25250000Y-28250000D02*
X25250000Y-28500000D01*
X24750000Y-27750000D02*
X25250000Y-28250000D01*
X22000000Y-28475000D02*
X22000000Y-29250000D01*
X22000000Y-29250000D02*
X21750000Y-29500000D01*
X23500000Y-28475000D02*
X23500000Y-29750000D01*
X23500000Y-29750000D02*
X23250000Y-30000000D01*
X22500000Y-25525000D02*
X22500000Y-24500000D01*
X23000000Y-29750000D02*
X23000000Y-28475000D01*
X23000000Y-29750000D02*
X23250000Y-30000000D01*
D43*
X8350000Y-40800000D02*
X9900000Y-40800000D01*
X7800000Y-41350000D02*
X8350000Y-40800000D01*
D44*
X11950000Y-38500000D02*
X11950000Y-38550000D01*
D47*
X11950000Y-38550000D02*
X9900000Y-40600000D01*
D44*
X9900000Y-40600000D02*
X9900000Y-40800000D01*
D45*
X13350000Y-40450000D02*
X12450000Y-40450000D01*
X12450000Y-40450000D02*
X12100000Y-40800000D01*
D43*
X13350000Y-40450000D02*
X13650000Y-39850000D01*
X13650000Y-39850000D02*
X13650000Y-39800000D01*
X13650000Y-39800000D02*
X13650000Y-39850000D01*
X15700000Y-38500000D02*
X15700000Y-39450000D01*
X13050000Y-39850000D02*
X12100000Y-40800000D01*
X15300000Y-39850000D02*
X13650000Y-39850000D01*
X13650000Y-39850000D02*
X13050000Y-39850000D01*
X15700000Y-39450000D02*
X15300000Y-39850000D01*
D44*
X12100000Y-40800000D02*
X12200000Y-40800000D01*
X12200000Y-40800000D02*
X13250000Y-39750000D01*
X13250000Y-39750000D02*
X15250000Y-39750000D01*
X15250000Y-39750000D02*
X15700000Y-39300000D01*
X15700000Y-39300000D02*
X15700000Y-38500000D01*
D47*
X14675000Y-46150000D02*
X14675000Y-46925000D01*
D45*
X15900000Y-48000000D02*
X13600000Y-48000000D01*
X13600000Y-48000000D02*
X13550000Y-48050000D01*
D47*
X14675000Y-46925000D02*
X13550000Y-48050000D01*
X13600000Y-48000000D02*
X13550000Y-48050000D01*
D44*
X14675000Y-44800000D02*
X14675000Y-46150000D01*
X14675000Y-46925000D02*
X13550000Y-48050000D01*
D47*
X13600000Y-45950000D02*
X13850000Y-45950000D01*
X13600000Y-45950000D02*
X12550000Y-45950000D01*
X12550000Y-45950000D02*
X12250000Y-45650000D01*
X12250000Y-45650000D02*
X12250000Y-44750000D01*
D44*
X14225000Y-44800000D02*
X14225000Y-45575000D01*
X12550000Y-45950000D02*
X12250000Y-45650000D01*
X14225000Y-45575000D02*
X13850000Y-45950000D01*
D47*
X9550000Y-48050000D02*
X9850000Y-48050000D01*
X9850000Y-48050000D02*
X12250000Y-45650000D01*
X12250000Y-45650000D02*
X12250000Y-44750000D01*
D45*
X7350000Y-36050000D02*
X10000000Y-36050000D01*
X10000000Y-36050000D02*
X10150000Y-36200000D01*
D43*
X11500000Y-33000000D02*
X11500000Y-33157002D01*
X11500000Y-33157002D02*
X11992998Y-33650000D01*
X11992998Y-33650000D02*
X11992998Y-35707002D01*
X11992998Y-35707002D02*
X11500000Y-36200000D01*
D45*
X9350000Y-44750000D02*
X8650000Y-44750000D01*
X8650000Y-44750000D02*
X3800000Y-39900000D01*
X3800000Y-39900000D02*
X3800000Y-39200000D01*
X11500000Y-36200000D02*
X10150000Y-36200000D01*
X7350000Y-36050000D02*
X4200000Y-39200000D01*
X4200000Y-39200000D02*
X3800000Y-39200000D01*
D44*
X43250000Y-28100000D02*
X40780761Y-28100000D01*
X43400000Y-28250000D02*
X43250000Y-28100000D01*
X45000000Y-28250000D02*
X43400000Y-28250000D01*
X45600000Y-27650000D02*
X45000000Y-28250000D01*
X45600000Y-27300000D02*
X45600000Y-27650000D01*
X43850000Y-25550000D02*
X45600000Y-27300000D01*
X43850000Y-25100000D02*
X43850000Y-25550000D01*
X44350000Y-24600000D02*
X43850000Y-25100000D01*
X44350000Y-24400000D02*
X44350000Y-24600000D01*
X44300000Y-24350000D02*
X44350000Y-24400000D01*
X40780761Y-28100000D02*
X40683274Y-28002513D01*
D47*
X30898707Y-29698707D02*
X30898707Y-28501293D01*
X31650000Y-27750000D02*
X35500000Y-27750000D01*
X30898707Y-28501293D02*
X31650000Y-27750000D01*
X25800000Y-31600000D02*
X26650000Y-31600000D01*
X26950000Y-31300000D02*
X29297414Y-31300000D01*
X26650000Y-31600000D02*
X26950000Y-31300000D01*
X29297414Y-31300000D02*
X29698707Y-30898707D01*
X29297414Y-31300000D02*
X29698707Y-30898707D01*
X29698707Y-30898707D02*
X30898707Y-29698707D01*
X41219239Y-26700000D02*
X41602513Y-27083274D01*
X35500000Y-27750000D02*
X39150000Y-27750000D01*
X39150000Y-27750000D02*
X40200000Y-26700000D01*
X40200000Y-26700000D02*
X41219239Y-26700000D01*
D43*
X6350000Y-32350000D02*
X6350000Y-32650000D01*
X6350000Y-32350000D02*
X6350000Y-31700000D01*
X8600000Y-29450000D02*
X6350000Y-31700000D01*
X6000000Y-33000000D02*
X5750000Y-33000000D01*
X6350000Y-32650000D02*
X6000000Y-33000000D01*
D47*
X9000000Y-28600000D02*
X9000000Y-29050000D01*
X9000000Y-29050000D02*
X8600000Y-29450000D01*
D44*
X9500000Y-23900000D02*
X8950000Y-23900000D01*
X10850000Y-23750000D02*
X10700000Y-23900000D01*
X10700000Y-23900000D02*
X9500000Y-23900000D01*
X11850000Y-23750000D02*
X10850000Y-23750000D01*
X7900000Y-25950000D02*
X7900000Y-26350000D01*
X8650000Y-25200000D02*
X7900000Y-25950000D01*
X8650000Y-24200000D02*
X8650000Y-25200000D01*
X8950000Y-23900000D02*
X8650000Y-24200000D01*
X7900000Y-26350000D02*
X7900000Y-27750000D01*
X7900000Y-28550000D02*
X6600000Y-29850000D01*
X6600000Y-29850000D02*
X6600000Y-30350000D01*
X7900000Y-27750000D02*
X7900000Y-28550000D01*
G36*
X4373000Y-18241594D02*
X3750000Y-18241594D01*
X3628821Y-18264395D01*
X3517526Y-18336012D01*
X3442862Y-18445286D01*
X3416594Y-18575000D01*
X3416594Y-19123000D01*
X377000Y-19123000D01*
X377000Y-13877000D01*
X4373000Y-13877000D01*
X4373000Y-18241594D01*
X4373000Y-18241594D01*
G37*
X4373000Y-18241594D02*
X3750000Y-18241594D01*
X3628821Y-18264395D01*
X3517526Y-18336012D01*
X3442862Y-18445286D01*
X3416594Y-18575000D01*
X3416594Y-19123000D01*
X377000Y-19123000D01*
X377000Y-13877000D01*
X4373000Y-13877000D01*
X4373000Y-18241594D01*
G36*
X26373000Y-48500000D02*
X26383006Y-48549410D01*
X26411447Y-48591035D01*
X26453841Y-48618315D01*
X26500000Y-48627000D01*
X37250000Y-48627000D01*
X37299410Y-48616994D01*
X37341035Y-48588553D01*
X37368315Y-48546159D01*
X37377000Y-48500000D01*
X37377000Y-46377000D01*
X39373000Y-46377000D01*
X39373000Y-49623000D01*
X23377000Y-49623000D01*
X23377000Y-43750000D01*
X23366994Y-43700590D01*
X23338553Y-43658965D01*
X23296159Y-43631685D01*
X23250000Y-43623000D01*
X22127000Y-43623000D01*
X22127000Y-41377000D01*
X26373000Y-41377000D01*
X26373000Y-48500000D01*
X26373000Y-48500000D01*
G37*
X26373000Y-48500000D02*
X26383006Y-48549410D01*
X26411447Y-48591035D01*
X26453841Y-48618315D01*
X26500000Y-48627000D01*
X37250000Y-48627000D01*
X37299410Y-48616994D01*
X37341035Y-48588553D01*
X37368315Y-48546159D01*
X37377000Y-48500000D01*
X37377000Y-46377000D01*
X39373000Y-46377000D01*
X39373000Y-49623000D01*
X23377000Y-49623000D01*
X23377000Y-43750000D01*
X23366994Y-43700590D01*
X23338553Y-43658965D01*
X23296159Y-43631685D01*
X23250000Y-43623000D01*
X22127000Y-43623000D01*
X22127000Y-41377000D01*
X26373000Y-41377000D01*
X26373000Y-48500000D01*
G36*
X12373000Y-21990000D02*
X12135750Y-21990000D01*
X11977000Y-22148750D01*
X11977000Y-22687500D01*
X11997000Y-22687500D01*
X11997000Y-22791594D01*
X11703000Y-22791594D01*
X11703000Y-22687500D01*
X11723000Y-22687500D01*
X11723000Y-22148750D01*
X11564250Y-21990000D01*
X11173691Y-21990000D01*
X10940302Y-22086673D01*
X10899454Y-22127521D01*
X10863327Y-22040302D01*
X10684699Y-21861673D01*
X10451310Y-21765000D01*
X9985750Y-21765000D01*
X9827000Y-21923750D01*
X9827000Y-22773000D01*
X9847000Y-22773000D01*
X9847000Y-23027000D01*
X9827000Y-23027000D01*
X9827000Y-23047000D01*
X9573000Y-23047000D01*
X9573000Y-23027000D01*
X9553000Y-23027000D01*
X9553000Y-22773000D01*
X9573000Y-22773000D01*
X9573000Y-21923750D01*
X9414250Y-21765000D01*
X8948690Y-21765000D01*
X8885000Y-21791381D01*
X8885000Y-21722998D01*
X8726252Y-21722998D01*
X8885000Y-21564250D01*
X8885000Y-21223691D01*
X8788327Y-20990302D01*
X8609699Y-20811673D01*
X8376310Y-20715000D01*
X7885750Y-20715000D01*
X7727000Y-20873750D01*
X7727000Y-21723000D01*
X7747000Y-21723000D01*
X7747000Y-21977000D01*
X7727000Y-21977000D01*
X7727000Y-21997000D01*
X7473000Y-21997000D01*
X7473000Y-21977000D01*
X7453000Y-21977000D01*
X7453000Y-21723000D01*
X7473000Y-21723000D01*
X7473000Y-20873750D01*
X7389428Y-20790178D01*
X7802606Y-20377000D01*
X8750000Y-20377000D01*
X8799410Y-20366994D01*
X8841035Y-20338553D01*
X8868315Y-20296159D01*
X8877000Y-20250000D01*
X8877000Y-17877000D01*
X12373000Y-17877000D01*
X12373000Y-21990000D01*
X12373000Y-21990000D01*
G37*
X12373000Y-21990000D02*
X12135750Y-21990000D01*
X11977000Y-22148750D01*
X11977000Y-22687500D01*
X11997000Y-22687500D01*
X11997000Y-22791594D01*
X11703000Y-22791594D01*
X11703000Y-22687500D01*
X11723000Y-22687500D01*
X11723000Y-22148750D01*
X11564250Y-21990000D01*
X11173691Y-21990000D01*
X10940302Y-22086673D01*
X10899454Y-22127521D01*
X10863327Y-22040302D01*
X10684699Y-21861673D01*
X10451310Y-21765000D01*
X9985750Y-21765000D01*
X9827000Y-21923750D01*
X9827000Y-22773000D01*
X9847000Y-22773000D01*
X9847000Y-23027000D01*
X9827000Y-23027000D01*
X9827000Y-23047000D01*
X9573000Y-23047000D01*
X9573000Y-23027000D01*
X9553000Y-23027000D01*
X9553000Y-22773000D01*
X9573000Y-22773000D01*
X9573000Y-21923750D01*
X9414250Y-21765000D01*
X8948690Y-21765000D01*
X8885000Y-21791381D01*
X8885000Y-21722998D01*
X8726252Y-21722998D01*
X8885000Y-21564250D01*
X8885000Y-21223691D01*
X8788327Y-20990302D01*
X8609699Y-20811673D01*
X8376310Y-20715000D01*
X7885750Y-20715000D01*
X7727000Y-20873750D01*
X7727000Y-21723000D01*
X7747000Y-21723000D01*
X7747000Y-21977000D01*
X7727000Y-21977000D01*
X7727000Y-21997000D01*
X7473000Y-21997000D01*
X7473000Y-21977000D01*
X7453000Y-21977000D01*
X7453000Y-21723000D01*
X7473000Y-21723000D01*
X7473000Y-20873750D01*
X7389428Y-20790178D01*
X7802606Y-20377000D01*
X8750000Y-20377000D01*
X8799410Y-20366994D01*
X8841035Y-20338553D01*
X8868315Y-20296159D01*
X8877000Y-20250000D01*
X8877000Y-17877000D01*
X12373000Y-17877000D01*
X12373000Y-21990000D01*
G36*
X25323000Y-23923000D02*
X24002606Y-23923000D01*
X23539803Y-23460197D01*
X23497789Y-23432334D01*
X23450000Y-23423000D01*
X23312085Y-23423000D01*
X23173738Y-23330559D01*
X23165770Y-23328974D01*
X23000000Y-23296000D01*
X21488053Y-23296000D01*
X21327000Y-23134948D01*
X21327000Y-22550000D01*
X21316994Y-22500590D01*
X21289803Y-22460197D01*
X21196090Y-22366484D01*
X21171026Y-22328973D01*
X20795881Y-21953828D01*
X21036449Y-21854428D01*
X21237226Y-21654000D01*
X24100000Y-21654000D01*
X24273738Y-21619441D01*
X24421026Y-21521026D01*
X25323000Y-20619052D01*
X25323000Y-23923000D01*
X25323000Y-23923000D01*
G37*
X25323000Y-23923000D02*
X24002606Y-23923000D01*
X23539803Y-23460197D01*
X23497789Y-23432334D01*
X23450000Y-23423000D01*
X23312085Y-23423000D01*
X23173738Y-23330559D01*
X23165770Y-23328974D01*
X23000000Y-23296000D01*
X21488053Y-23296000D01*
X21327000Y-23134948D01*
X21327000Y-22550000D01*
X21316994Y-22500590D01*
X21289803Y-22460197D01*
X21196090Y-22366484D01*
X21171026Y-22328973D01*
X20795881Y-21953828D01*
X21036449Y-21854428D01*
X21237226Y-21654000D01*
X24100000Y-21654000D01*
X24273738Y-21619441D01*
X24421026Y-21521026D01*
X25323000Y-20619052D01*
X25323000Y-23923000D01*
G36*
X21323000Y-17300000D02*
X21333006Y-17349410D01*
X21361447Y-17391035D01*
X21403841Y-17418315D01*
X21450000Y-17427000D01*
X22573000Y-17427000D01*
X22573000Y-18550000D01*
X22583006Y-18599410D01*
X22611447Y-18641035D01*
X22653841Y-18668315D01*
X22700000Y-18677000D01*
X25323000Y-18677000D01*
X25323000Y-19334947D01*
X23911948Y-20746000D01*
X21236908Y-20746000D01*
X21037590Y-20546335D01*
X20754134Y-20428634D01*
X20447212Y-20428366D01*
X20163551Y-20545572D01*
X19946335Y-20762410D01*
X19828634Y-21045866D01*
X19828366Y-21352788D01*
X19928859Y-21596000D01*
X18350000Y-21596000D01*
X18205086Y-21624825D01*
X18176261Y-21630559D01*
X18028973Y-21728974D01*
X17584948Y-22173000D01*
X14577000Y-22173000D01*
X14577000Y-14852606D01*
X15241604Y-14188002D01*
X21323000Y-14188002D01*
X21323000Y-17300000D01*
X21323000Y-17300000D01*
G37*
X21323000Y-17300000D02*
X21333006Y-17349410D01*
X21361447Y-17391035D01*
X21403841Y-17418315D01*
X21450000Y-17427000D01*
X22573000Y-17427000D01*
X22573000Y-18550000D01*
X22583006Y-18599410D01*
X22611447Y-18641035D01*
X22653841Y-18668315D01*
X22700000Y-18677000D01*
X25323000Y-18677000D01*
X25323000Y-19334947D01*
X23911948Y-20746000D01*
X21236908Y-20746000D01*
X21037590Y-20546335D01*
X20754134Y-20428634D01*
X20447212Y-20428366D01*
X20163551Y-20545572D01*
X19946335Y-20762410D01*
X19828634Y-21045866D01*
X19828366Y-21352788D01*
X19928859Y-21596000D01*
X18350000Y-21596000D01*
X18205086Y-21624825D01*
X18176261Y-21630559D01*
X18028973Y-21728974D01*
X17584948Y-22173000D01*
X14577000Y-22173000D01*
X14577000Y-14852606D01*
X15241604Y-14188002D01*
X21323000Y-14188002D01*
X21323000Y-17300000D01*
G36*
X37873000Y-3661635D02*
X37253415Y-4280139D01*
X36898404Y-5135100D01*
X36897597Y-6060838D01*
X37251115Y-6916418D01*
X37873000Y-7539390D01*
X37873000Y-10623000D01*
X37113667Y-10623000D01*
X37262778Y-10474149D01*
X37411830Y-10115190D01*
X37412170Y-9726515D01*
X37263744Y-9367297D01*
X36989149Y-9092222D01*
X36630190Y-8943170D01*
X36241515Y-8942830D01*
X35882297Y-9091256D01*
X35607222Y-9365851D01*
X35458170Y-9724810D01*
X35457830Y-10113485D01*
X35606256Y-10472703D01*
X35756291Y-10623000D01*
X35083667Y-10623000D01*
X35232778Y-10474149D01*
X35381830Y-10115190D01*
X35382170Y-9726515D01*
X35233744Y-9367297D01*
X34959149Y-9092222D01*
X34600190Y-8943170D01*
X34211515Y-8942830D01*
X33852297Y-9091256D01*
X33577222Y-9365851D01*
X33428170Y-9724810D01*
X33427830Y-10113485D01*
X33576256Y-10472703D01*
X33726291Y-10623000D01*
X33053667Y-10623000D01*
X33202778Y-10474149D01*
X33351830Y-10115190D01*
X33352170Y-9726515D01*
X33203744Y-9367297D01*
X32929149Y-9092222D01*
X32570190Y-8943170D01*
X32181515Y-8942830D01*
X31822297Y-9091256D01*
X31696394Y-9216939D01*
X31671026Y-9178973D01*
X30825538Y-8333485D01*
X32407830Y-8333485D01*
X32556256Y-8692703D01*
X32830851Y-8967778D01*
X33189810Y-9116830D01*
X33578485Y-9117170D01*
X33937703Y-8968744D01*
X34212778Y-8694149D01*
X34361830Y-8335190D01*
X34362170Y-7946515D01*
X34213744Y-7587297D01*
X33939149Y-7312222D01*
X33580190Y-7163170D01*
X33191515Y-7162830D01*
X32832297Y-7311256D01*
X32557222Y-7585851D01*
X32408170Y-7944810D01*
X32407830Y-8333485D01*
X30825538Y-8333485D01*
X30311026Y-7818974D01*
X30225995Y-7762158D01*
X30153744Y-7587297D01*
X29879149Y-7312222D01*
X29520190Y-7163170D01*
X29131515Y-7162830D01*
X28772297Y-7311256D01*
X28497222Y-7585851D01*
X28348170Y-7944810D01*
X28347830Y-8333485D01*
X28496256Y-8692703D01*
X28770851Y-8967778D01*
X28784501Y-8973446D01*
X27134948Y-10623000D01*
X21363667Y-10623000D01*
X21512778Y-10474149D01*
X21661830Y-10115190D01*
X21662170Y-9726515D01*
X21631707Y-9652788D01*
X23728366Y-9652788D01*
X23845572Y-9936449D01*
X24062410Y-10153665D01*
X24345866Y-10271366D01*
X24652788Y-10271634D01*
X24936449Y-10154428D01*
X25153665Y-9937590D01*
X25271366Y-9654134D01*
X25271634Y-9347212D01*
X25154428Y-9063551D01*
X24937590Y-8846335D01*
X24654134Y-8728634D01*
X24347212Y-8728366D01*
X24063551Y-8845572D01*
X23846335Y-9062410D01*
X23728634Y-9345866D01*
X23728366Y-9652788D01*
X21631707Y-9652788D01*
X21513744Y-9367297D01*
X21239149Y-9092222D01*
X20880190Y-8943170D01*
X20491515Y-8942830D01*
X20132297Y-9091256D01*
X19857222Y-9365851D01*
X19708170Y-9724810D01*
X19707830Y-10113485D01*
X19856256Y-10472703D01*
X20006291Y-10623000D01*
X19333667Y-10623000D01*
X19482778Y-10474149D01*
X19631830Y-10115190D01*
X19632170Y-9726515D01*
X19483744Y-9367297D01*
X19209149Y-9092222D01*
X18850190Y-8943170D01*
X18461515Y-8942830D01*
X18102297Y-9091256D01*
X17827222Y-9365851D01*
X17678170Y-9724810D01*
X17677830Y-10113485D01*
X17826256Y-10472703D01*
X17976291Y-10623000D01*
X17303667Y-10623000D01*
X17452778Y-10474149D01*
X17601830Y-10115190D01*
X17602170Y-9726515D01*
X17453744Y-9367297D01*
X17179149Y-9092222D01*
X16820190Y-8943170D01*
X16431515Y-8942830D01*
X16072297Y-9091256D01*
X15926353Y-9236945D01*
X15921026Y-9228973D01*
X15025538Y-8333485D01*
X16657830Y-8333485D01*
X16806256Y-8692703D01*
X17080851Y-8967778D01*
X17439810Y-9116830D01*
X17828485Y-9117170D01*
X18187703Y-8968744D01*
X18462778Y-8694149D01*
X18611830Y-8335190D01*
X18612170Y-7946515D01*
X18463744Y-7587297D01*
X18189149Y-7312222D01*
X17830190Y-7163170D01*
X17441515Y-7162830D01*
X17082297Y-7311256D01*
X16807222Y-7585851D01*
X16658170Y-7944810D01*
X16657830Y-8333485D01*
X15025538Y-8333485D01*
X14511026Y-7818974D01*
X14495064Y-7808309D01*
X14403744Y-7587297D01*
X14377000Y-7560506D01*
X14377000Y-7127000D01*
X21623000Y-7127000D01*
X21623000Y-8000000D01*
X21633006Y-8049410D01*
X21661447Y-8091035D01*
X21703841Y-8118315D01*
X21750000Y-8127000D01*
X25750000Y-8127000D01*
X25799410Y-8116994D01*
X25841035Y-8088553D01*
X25868315Y-8046159D01*
X25877000Y-8000000D01*
X25877000Y-5402788D01*
X27978366Y-5402788D01*
X28095572Y-5686449D01*
X28312410Y-5903665D01*
X28595866Y-6021366D01*
X28902788Y-6021634D01*
X29186449Y-5904428D01*
X29403665Y-5687590D01*
X29521366Y-5404134D01*
X29521634Y-5097212D01*
X29441300Y-4902788D01*
X34728366Y-4902788D01*
X34845572Y-5186449D01*
X35062410Y-5403665D01*
X35345866Y-5521366D01*
X35652788Y-5521634D01*
X35936449Y-5404428D01*
X36153665Y-5187590D01*
X36271366Y-4904134D01*
X36271634Y-4597212D01*
X36154428Y-4313551D01*
X35937590Y-4096335D01*
X35654134Y-3978634D01*
X35347212Y-3978366D01*
X35063551Y-4095572D01*
X34846335Y-4312410D01*
X34728634Y-4595866D01*
X34728366Y-4902788D01*
X29441300Y-4902788D01*
X29404428Y-4813551D01*
X29187590Y-4596335D01*
X28904134Y-4478634D01*
X28597212Y-4478366D01*
X28313551Y-4595572D01*
X28096335Y-4812410D01*
X27978634Y-5095866D01*
X27978366Y-5402788D01*
X25877000Y-5402788D01*
X25877000Y-377000D01*
X37873000Y-377000D01*
X37873000Y-3661635D01*
X37873000Y-3661635D01*
G37*
X37873000Y-3661635D02*
X37253415Y-4280139D01*
X36898404Y-5135100D01*
X36897597Y-6060838D01*
X37251115Y-6916418D01*
X37873000Y-7539390D01*
X37873000Y-10623000D01*
X37113667Y-10623000D01*
X37262778Y-10474149D01*
X37411830Y-10115190D01*
X37412170Y-9726515D01*
X37263744Y-9367297D01*
X36989149Y-9092222D01*
X36630190Y-8943170D01*
X36241515Y-8942830D01*
X35882297Y-9091256D01*
X35607222Y-9365851D01*
X35458170Y-9724810D01*
X35457830Y-10113485D01*
X35606256Y-10472703D01*
X35756291Y-10623000D01*
X35083667Y-10623000D01*
X35232778Y-10474149D01*
X35381830Y-10115190D01*
X35382170Y-9726515D01*
X35233744Y-9367297D01*
X34959149Y-9092222D01*
X34600190Y-8943170D01*
X34211515Y-8942830D01*
X33852297Y-9091256D01*
X33577222Y-9365851D01*
X33428170Y-9724810D01*
X33427830Y-10113485D01*
X33576256Y-10472703D01*
X33726291Y-10623000D01*
X33053667Y-10623000D01*
X33202778Y-10474149D01*
X33351830Y-10115190D01*
X33352170Y-9726515D01*
X33203744Y-9367297D01*
X32929149Y-9092222D01*
X32570190Y-8943170D01*
X32181515Y-8942830D01*
X31822297Y-9091256D01*
X31696394Y-9216939D01*
X31671026Y-9178973D01*
X30825538Y-8333485D01*
X32407830Y-8333485D01*
X32556256Y-8692703D01*
X32830851Y-8967778D01*
X33189810Y-9116830D01*
X33578485Y-9117170D01*
X33937703Y-8968744D01*
X34212778Y-8694149D01*
X34361830Y-8335190D01*
X34362170Y-7946515D01*
X34213744Y-7587297D01*
X33939149Y-7312222D01*
X33580190Y-7163170D01*
X33191515Y-7162830D01*
X32832297Y-7311256D01*
X32557222Y-7585851D01*
X32408170Y-7944810D01*
X32407830Y-8333485D01*
X30825538Y-8333485D01*
X30311026Y-7818974D01*
X30225995Y-7762158D01*
X30153744Y-7587297D01*
X29879149Y-7312222D01*
X29520190Y-7163170D01*
X29131515Y-7162830D01*
X28772297Y-7311256D01*
X28497222Y-7585851D01*
X28348170Y-7944810D01*
X28347830Y-8333485D01*
X28496256Y-8692703D01*
X28770851Y-8967778D01*
X28784501Y-8973446D01*
X27134948Y-10623000D01*
X21363667Y-10623000D01*
X21512778Y-10474149D01*
X21661830Y-10115190D01*
X21662170Y-9726515D01*
X21631707Y-9652788D01*
X23728366Y-9652788D01*
X23845572Y-9936449D01*
X24062410Y-10153665D01*
X24345866Y-10271366D01*
X24652788Y-10271634D01*
X24936449Y-10154428D01*
X25153665Y-9937590D01*
X25271366Y-9654134D01*
X25271634Y-9347212D01*
X25154428Y-9063551D01*
X24937590Y-8846335D01*
X24654134Y-8728634D01*
X24347212Y-8728366D01*
X24063551Y-8845572D01*
X23846335Y-9062410D01*
X23728634Y-9345866D01*
X23728366Y-9652788D01*
X21631707Y-9652788D01*
X21513744Y-9367297D01*
X21239149Y-9092222D01*
X20880190Y-8943170D01*
X20491515Y-8942830D01*
X20132297Y-9091256D01*
X19857222Y-9365851D01*
X19708170Y-9724810D01*
X19707830Y-10113485D01*
X19856256Y-10472703D01*
X20006291Y-10623000D01*
X19333667Y-10623000D01*
X19482778Y-10474149D01*
X19631830Y-10115190D01*
X19632170Y-9726515D01*
X19483744Y-9367297D01*
X19209149Y-9092222D01*
X18850190Y-8943170D01*
X18461515Y-8942830D01*
X18102297Y-9091256D01*
X17827222Y-9365851D01*
X17678170Y-9724810D01*
X17677830Y-10113485D01*
X17826256Y-10472703D01*
X17976291Y-10623000D01*
X17303667Y-10623000D01*
X17452778Y-10474149D01*
X17601830Y-10115190D01*
X17602170Y-9726515D01*
X17453744Y-9367297D01*
X17179149Y-9092222D01*
X16820190Y-8943170D01*
X16431515Y-8942830D01*
X16072297Y-9091256D01*
X15926353Y-9236945D01*
X15921026Y-9228973D01*
X15025538Y-8333485D01*
X16657830Y-8333485D01*
X16806256Y-8692703D01*
X17080851Y-8967778D01*
X17439810Y-9116830D01*
X17828485Y-9117170D01*
X18187703Y-8968744D01*
X18462778Y-8694149D01*
X18611830Y-8335190D01*
X18612170Y-7946515D01*
X18463744Y-7587297D01*
X18189149Y-7312222D01*
X17830190Y-7163170D01*
X17441515Y-7162830D01*
X17082297Y-7311256D01*
X16807222Y-7585851D01*
X16658170Y-7944810D01*
X16657830Y-8333485D01*
X15025538Y-8333485D01*
X14511026Y-7818974D01*
X14495064Y-7808309D01*
X14403744Y-7587297D01*
X14377000Y-7560506D01*
X14377000Y-7127000D01*
X21623000Y-7127000D01*
X21623000Y-8000000D01*
X21633006Y-8049410D01*
X21661447Y-8091035D01*
X21703841Y-8118315D01*
X21750000Y-8127000D01*
X25750000Y-8127000D01*
X25799410Y-8116994D01*
X25841035Y-8088553D01*
X25868315Y-8046159D01*
X25877000Y-8000000D01*
X25877000Y-5402788D01*
X27978366Y-5402788D01*
X28095572Y-5686449D01*
X28312410Y-5903665D01*
X28595866Y-6021366D01*
X28902788Y-6021634D01*
X29186449Y-5904428D01*
X29403665Y-5687590D01*
X29521366Y-5404134D01*
X29521634Y-5097212D01*
X29441300Y-4902788D01*
X34728366Y-4902788D01*
X34845572Y-5186449D01*
X35062410Y-5403665D01*
X35345866Y-5521366D01*
X35652788Y-5521634D01*
X35936449Y-5404428D01*
X36153665Y-5187590D01*
X36271366Y-4904134D01*
X36271634Y-4597212D01*
X36154428Y-4313551D01*
X35937590Y-4096335D01*
X35654134Y-3978634D01*
X35347212Y-3978366D01*
X35063551Y-4095572D01*
X34846335Y-4312410D01*
X34728634Y-4595866D01*
X34728366Y-4902788D01*
X29441300Y-4902788D01*
X29404428Y-4813551D01*
X29187590Y-4596335D01*
X28904134Y-4478634D01*
X28597212Y-4478366D01*
X28313551Y-4595572D01*
X28096335Y-4812410D01*
X27978634Y-5095866D01*
X27978366Y-5402788D01*
X25877000Y-5402788D01*
X25877000Y-377000D01*
X37873000Y-377000D01*
X37873000Y-3661635D01*
G36*
X24623000Y-6873000D02*
X22627000Y-6873000D01*
X22627000Y-5500000D01*
X22616994Y-5450590D01*
X22588553Y-5408965D01*
X22546159Y-5381685D01*
X22500000Y-5373000D01*
X18877000Y-5373000D01*
X18877000Y-377000D01*
X24623000Y-377000D01*
X24623000Y-6873000D01*
X24623000Y-6873000D01*
G37*
X24623000Y-6873000D02*
X22627000Y-6873000D01*
X22627000Y-5500000D01*
X22616994Y-5450590D01*
X22588553Y-5408965D01*
X22546159Y-5381685D01*
X22500000Y-5373000D01*
X18877000Y-5373000D01*
X18877000Y-377000D01*
X24623000Y-377000D01*
X24623000Y-6873000D01*
G36*
X5122891Y-33124171D02*
X5218145Y-33354703D01*
X5394369Y-33531235D01*
X5624735Y-33626891D01*
X5874171Y-33627109D01*
X6104703Y-33531855D01*
X6136831Y-33499783D01*
X6201675Y-33486885D01*
X6372645Y-33372645D01*
X6373000Y-33372290D01*
X6373000Y-36025737D01*
X6275737Y-36123000D01*
X2250000Y-36123000D01*
X2200590Y-36133006D01*
X2158965Y-36161447D01*
X2150386Y-36174779D01*
X2104428Y-36063551D01*
X1887590Y-35846335D01*
X1604134Y-35728634D01*
X1297212Y-35728366D01*
X1013551Y-35845572D01*
X796335Y-36062410D01*
X678634Y-36345866D01*
X678366Y-36652788D01*
X795572Y-36936449D01*
X981798Y-37123000D01*
X377000Y-37123000D01*
X377000Y-32877000D01*
X5123107Y-32877000D01*
X5122891Y-33124171D01*
X5122891Y-33124171D01*
G37*
X5122891Y-33124171D02*
X5218145Y-33354703D01*
X5394369Y-33531235D01*
X5624735Y-33626891D01*
X5874171Y-33627109D01*
X6104703Y-33531855D01*
X6136831Y-33499783D01*
X6201675Y-33486885D01*
X6372645Y-33372645D01*
X6373000Y-33372290D01*
X6373000Y-36025737D01*
X6275737Y-36123000D01*
X2250000Y-36123000D01*
X2200590Y-36133006D01*
X2158965Y-36161447D01*
X2150386Y-36174779D01*
X2104428Y-36063551D01*
X1887590Y-35846335D01*
X1604134Y-35728634D01*
X1297212Y-35728366D01*
X1013551Y-35845572D01*
X796335Y-36062410D01*
X678634Y-36345866D01*
X678366Y-36652788D01*
X795572Y-36936449D01*
X981798Y-37123000D01*
X377000Y-37123000D01*
X377000Y-32877000D01*
X5123107Y-32877000D01*
X5122891Y-33124171D01*
M02*
