G04 #@! TF.FileFunction,Legend,Top*
%FSLAX46Y46*%
G04 Gerber Fmt 4.6, Leading zero omitted, Abs format (unit mm)*
G04 Created by KiCad (PCBNEW 4.0.6-e0-6349~52~ubuntu16.10.1) date Fri May 26 15:17:48 2017*
%MOMM*%
%LPD*%
G01*
G04 APERTURE LIST*
%ADD10C,0.150000*%
%ADD11C,0.120000*%
%ADD12C,0.125000*%
%ADD13C,1.300000*%
%ADD14C,4.000000*%
%ADD15C,2.000000*%
%ADD16R,1.000000X1.600000*%
%ADD17R,1.000000X1.250000*%
%ADD18R,1.250000X1.000000*%
%ADD19R,2.500000X1.000000*%
%ADD20R,0.800000X0.750000*%
%ADD21R,1.050000X1.050000*%
%ADD22C,1.050000*%
%ADD23C,6.000000*%
%ADD24R,1.300000X1.000000*%
%ADD25R,0.405000X1.300000*%
%ADD26R,2.235000X1.725000*%
%ADD27R,1.300000X0.250000*%
%ADD28R,0.250000X1.300000*%
%ADD29R,0.890000X0.420000*%
%ADD30R,0.825000X0.712500*%
%ADD31R,0.400000X1.500000*%
%ADD32C,0.900000*%
%ADD33C,2.600000*%
%ADD34C,1.500000*%
%ADD35R,0.430000X0.760000*%
%ADD36R,0.750000X0.800000*%
%ADD37R,1.300000X1.600000*%
%ADD38R,1.600000X3.500000*%
%ADD39R,1.500000X0.400000*%
%ADD40R,0.600000X0.250000*%
%ADD41R,0.600000X0.700000*%
%ADD42R,0.900000X0.900000*%
%ADD43C,0.889000*%
%ADD44C,0.600000*%
%ADD45C,0.254000*%
G04 APERTURE END LIST*
D10*
X41200000Y40000D02*
X8800000Y40000D01*
X41200000Y-15710000D02*
X8800000Y-15710000D01*
X8800000Y40000D02*
X8800000Y-15710000D01*
X41200000Y40000D02*
X41200000Y-15710000D01*
D11*
X16250000Y-24405000D02*
X14250000Y-24405000D01*
X14250000Y-26445000D02*
X16250000Y-26445000D01*
X16250000Y-22300000D02*
X15250000Y-22300000D01*
X15250000Y-24000000D02*
X16250000Y-24000000D01*
X20400000Y-18250000D02*
X20400000Y-19250000D01*
X22100000Y-19250000D02*
X22100000Y-18250000D01*
X22520000Y-19500000D02*
X22520000Y-21500000D01*
X25480000Y-21500000D02*
X25480000Y-19500000D01*
X27300000Y-16250000D02*
X26300000Y-16250000D01*
X26300000Y-17950000D02*
X27300000Y-17950000D01*
X48200000Y-21650000D02*
X48200000Y-20650000D01*
X46500000Y-20650000D02*
X46500000Y-21650000D01*
X30200000Y-18550000D02*
X31200000Y-18550000D01*
X31200000Y-16850000D02*
X30200000Y-16850000D01*
X30000000Y-30100000D02*
X31000000Y-30100000D01*
X31000000Y-28400000D02*
X30000000Y-28400000D01*
X45950000Y-30000000D02*
X44950000Y-30000000D01*
X44950000Y-31700000D02*
X45950000Y-31700000D01*
X28000000Y-26550000D02*
X28700000Y-26550000D01*
X28700000Y-27750000D02*
X28000000Y-27750000D01*
X28750000Y-21000000D02*
X28050000Y-21000000D01*
X28050000Y-19800000D02*
X28750000Y-19800000D01*
D10*
X47517400Y-13149100D02*
X46628400Y-13149100D01*
X46628400Y-13149100D02*
X46587760Y-13154180D01*
X48802640Y-15244600D02*
X48800100Y-14523240D01*
X48800000Y-16100000D02*
X48800000Y-15300000D01*
X42150000Y-16100000D02*
X48800000Y-16100000D01*
X42150000Y-16100000D02*
X42150000Y-13150000D01*
X42150000Y-13150000D02*
X46700000Y-13150000D01*
X48800000Y-14500000D02*
X48800000Y-13150000D01*
X48800000Y-13150000D02*
X47500000Y-13150000D01*
X6125000Y-23325000D02*
X6125000Y-24525000D01*
X4375000Y-24525000D02*
X4375000Y-23325000D01*
X1700000Y-11775000D02*
X1700000Y-10125000D01*
X1700000Y-10125000D02*
X5000000Y-10125000D01*
X5000000Y-10125000D02*
X5000000Y-13425000D01*
X5000000Y-13425000D02*
X1700000Y-13425000D01*
X1700000Y-13425000D02*
X1700000Y-11725000D01*
X1600000Y-19325000D02*
X1600000Y-17675000D01*
X1600000Y-17675000D02*
X4900000Y-17675000D01*
X4900000Y-17675000D02*
X4900000Y-20975000D01*
X4900000Y-20975000D02*
X1600000Y-20975000D01*
X1600000Y-20975000D02*
X1600000Y-19275000D01*
X34475000Y-20800000D02*
X34475000Y-21250000D01*
X41725000Y-20800000D02*
X41725000Y-21325000D01*
X41725000Y-28050000D02*
X41725000Y-27525000D01*
X34475000Y-28050000D02*
X34475000Y-27525000D01*
X34475000Y-20800000D02*
X35000000Y-20800000D01*
X34475000Y-28050000D02*
X35000000Y-28050000D01*
X41725000Y-28050000D02*
X41200000Y-28050000D01*
X41725000Y-20800000D02*
X41200000Y-20800000D01*
X34475000Y-21250000D02*
X33100000Y-21250000D01*
X18450000Y-16925000D02*
X18450000Y-16990000D01*
X18450000Y-21175000D02*
X18450000Y-21110000D01*
X15200000Y-21175000D02*
X15200000Y-21110000D01*
X15200000Y-16925000D02*
X18450000Y-16925000D01*
X15200000Y-21175000D02*
X18450000Y-21175000D01*
X15200000Y-16925000D02*
X14275000Y-16925000D01*
D11*
X2490000Y-38200000D02*
X2490000Y-40100000D01*
X4810000Y-39600000D02*
X4810000Y-38200000D01*
D10*
X7250000Y-49980000D02*
X7250000Y-30480000D01*
X22750000Y-49980000D02*
X22750000Y-30480000D01*
X7250000Y-30480000D02*
X22750000Y-30480000D01*
X22750000Y-49980000D02*
X7250000Y-49980000D01*
X36150000Y-50000000D02*
X36150000Y-40000000D01*
X49150000Y-50000000D02*
X49150000Y-40000000D01*
X36150000Y-40000000D02*
X49150000Y-40000000D01*
X36150000Y-50000000D02*
X49150000Y-50000000D01*
X23150000Y-50000000D02*
X23150000Y-40000000D01*
X36150000Y-50000000D02*
X36150000Y-40000000D01*
X23150000Y-40000000D02*
X36150000Y-40000000D01*
X23150000Y-50000000D02*
X36150000Y-50000000D01*
D11*
X32400000Y-33750000D02*
X32400000Y-31550000D01*
X39000000Y-33750000D02*
X39000000Y-31550000D01*
X45650000Y-21050000D02*
X45650000Y-21750000D01*
X44450000Y-21750000D02*
X44450000Y-21050000D01*
X32000000Y-20150000D02*
X31300000Y-20150000D01*
X31300000Y-18950000D02*
X32000000Y-18950000D01*
X41450000Y-32250000D02*
X40750000Y-32250000D01*
X40750000Y-31050000D02*
X41450000Y-31050000D01*
X30900000Y-26600000D02*
X30900000Y-25900000D01*
X32100000Y-25900000D02*
X32100000Y-26600000D01*
X34550000Y-17100000D02*
X35250000Y-17100000D01*
X35250000Y-18300000D02*
X34550000Y-18300000D01*
X46823223Y-24921751D02*
X46328249Y-24426777D01*
X47176777Y-23578249D02*
X47671751Y-24073223D01*
D10*
X30550000Y-26200000D02*
G75*
G03X30550000Y-26200000I-200000J0D01*
G01*
X26350000Y-26200000D02*
X26350000Y-21400000D01*
X26350000Y-21400000D02*
X30350000Y-21400000D01*
X30350000Y-21400000D02*
X30350000Y-26200000D01*
X30350000Y-26200000D02*
X26350000Y-26200000D01*
D11*
X12365000Y-24675000D02*
X10945000Y-24675000D01*
X13125000Y-18075000D02*
X10945000Y-18075000D01*
X6525000Y-18075000D02*
X8705000Y-18075000D01*
X7285000Y-24675000D02*
X8705000Y-24675000D01*
X13125000Y-18075000D02*
X13125000Y-23915000D01*
X13125000Y-23915000D02*
X12365000Y-24675000D01*
X7285000Y-24675000D02*
X6525000Y-23915000D01*
X6525000Y-23915000D02*
X6525000Y-18075000D01*
X850000Y-38600000D02*
X850000Y-37900000D01*
X2050000Y-37900000D02*
X2050000Y-38600000D01*
X2480000Y-32650000D02*
X2480000Y-33350000D01*
X1280000Y-33350000D02*
X1280000Y-32650000D01*
X29800000Y-35390000D02*
X27900000Y-35390000D01*
X28400000Y-37710000D02*
X29800000Y-37710000D01*
X32600000Y-37100000D02*
X32600000Y-36400000D01*
X33800000Y-36400000D02*
X33800000Y-37100000D01*
D10*
X15050000Y-28500000D02*
X15050000Y-27500000D01*
X15050000Y-27500000D02*
X13250000Y-27500000D01*
X13250000Y-27500000D02*
X13250000Y-28500000D01*
X13250000Y-28500000D02*
X15050000Y-28500000D01*
D11*
X2770000Y-31940000D02*
X2770000Y-33840000D01*
X5090000Y-33340000D02*
X5090000Y-31940000D01*
D10*
X27125000Y-30950000D02*
X27125000Y-31950000D01*
X25775000Y-31950000D02*
X25775000Y-30950000D01*
X22800000Y-25750000D02*
X23800000Y-25750000D01*
X23800000Y-27100000D02*
X22800000Y-27100000D01*
X25575000Y-30250000D02*
X25575000Y-31250000D01*
X24225000Y-31250000D02*
X24225000Y-30250000D01*
X19550000Y-25875000D02*
X20550000Y-25875000D01*
X20550000Y-27225000D02*
X19550000Y-27225000D01*
X22750000Y-27825000D02*
X23750000Y-27825000D01*
X23750000Y-29175000D02*
X22750000Y-29175000D01*
X19550000Y-27825000D02*
X20550000Y-27825000D01*
X20550000Y-29175000D02*
X19550000Y-29175000D01*
X44725000Y-9725000D02*
X45725000Y-9725000D01*
X45725000Y-11075000D02*
X44725000Y-11075000D01*
X6000000Y-12925000D02*
X6000000Y-11925000D01*
X7350000Y-11925000D02*
X7350000Y-12925000D01*
X24666667Y-12152381D02*
X24666667Y-12866667D01*
X24619047Y-13009524D01*
X24523809Y-13104762D01*
X24380952Y-13152381D01*
X24285714Y-13152381D01*
X25666667Y-13152381D02*
X25095238Y-13152381D01*
X25380952Y-13152381D02*
X25380952Y-12152381D01*
X25285714Y-12295238D01*
X25190476Y-12390476D01*
X25095238Y-12438095D01*
X18857143Y-24857143D02*
X18809524Y-24904762D01*
X18666667Y-24952381D01*
X18571429Y-24952381D01*
X18428571Y-24904762D01*
X18333333Y-24809524D01*
X18285714Y-24714286D01*
X18238095Y-24523810D01*
X18238095Y-24380952D01*
X18285714Y-24190476D01*
X18333333Y-24095238D01*
X18428571Y-24000000D01*
X18571429Y-23952381D01*
X18666667Y-23952381D01*
X18809524Y-24000000D01*
X18857143Y-24047619D01*
X19809524Y-24952381D02*
X19238095Y-24952381D01*
X19523809Y-24952381D02*
X19523809Y-23952381D01*
X19428571Y-24095238D01*
X19333333Y-24190476D01*
X19238095Y-24238095D01*
X20285714Y-24952381D02*
X20476190Y-24952381D01*
X20571429Y-24904762D01*
X20619048Y-24857143D01*
X20714286Y-24714286D01*
X20761905Y-24523810D01*
X20761905Y-24142857D01*
X20714286Y-24047619D01*
X20666667Y-24000000D01*
X20571429Y-23952381D01*
X20380952Y-23952381D01*
X20285714Y-24000000D01*
X20238095Y-24047619D01*
X20190476Y-24142857D01*
X20190476Y-24380952D01*
X20238095Y-24476190D01*
X20285714Y-24523810D01*
X20380952Y-24571429D01*
X20571429Y-24571429D01*
X20666667Y-24523810D01*
X20714286Y-24476190D01*
X20761905Y-24380952D01*
X18357143Y-23607143D02*
X18309524Y-23654762D01*
X18166667Y-23702381D01*
X18071429Y-23702381D01*
X17928571Y-23654762D01*
X17833333Y-23559524D01*
X17785714Y-23464286D01*
X17738095Y-23273810D01*
X17738095Y-23130952D01*
X17785714Y-22940476D01*
X17833333Y-22845238D01*
X17928571Y-22750000D01*
X18071429Y-22702381D01*
X18166667Y-22702381D01*
X18309524Y-22750000D01*
X18357143Y-22797619D01*
X19214286Y-23035714D02*
X19214286Y-23702381D01*
X18976190Y-22654762D02*
X18738095Y-23369048D01*
X19357143Y-23369048D01*
X19928571Y-22702381D02*
X20023810Y-22702381D01*
X20119048Y-22750000D01*
X20166667Y-22797619D01*
X20214286Y-22892857D01*
X20261905Y-23083333D01*
X20261905Y-23321429D01*
X20214286Y-23511905D01*
X20166667Y-23607143D01*
X20119048Y-23654762D01*
X20023810Y-23702381D01*
X19928571Y-23702381D01*
X19833333Y-23654762D01*
X19785714Y-23607143D01*
X19738095Y-23511905D01*
X19690476Y-23321429D01*
X19690476Y-23083333D01*
X19738095Y-22892857D01*
X19785714Y-22797619D01*
X19833333Y-22750000D01*
X19928571Y-22702381D01*
D12*
X21678572Y-16678571D02*
X21654762Y-16702381D01*
X21583334Y-16726190D01*
X21535715Y-16726190D01*
X21464286Y-16702381D01*
X21416667Y-16654762D01*
X21392858Y-16607143D01*
X21369048Y-16511905D01*
X21369048Y-16440476D01*
X21392858Y-16345238D01*
X21416667Y-16297619D01*
X21464286Y-16250000D01*
X21535715Y-16226190D01*
X21583334Y-16226190D01*
X21654762Y-16250000D01*
X21678572Y-16273810D01*
X22107143Y-16392857D02*
X22107143Y-16726190D01*
X21988096Y-16202381D02*
X21869048Y-16559524D01*
X22178572Y-16559524D01*
X22630952Y-16726190D02*
X22345238Y-16726190D01*
X22488095Y-16726190D02*
X22488095Y-16226190D01*
X22440476Y-16297619D01*
X22392857Y-16345238D01*
X22345238Y-16369048D01*
X22178571Y-21821428D02*
X22202381Y-21845238D01*
X22226190Y-21916666D01*
X22226190Y-21964285D01*
X22202381Y-22035714D01*
X22154762Y-22083333D01*
X22107143Y-22107142D01*
X22011905Y-22130952D01*
X21940476Y-22130952D01*
X21845238Y-22107142D01*
X21797619Y-22083333D01*
X21750000Y-22035714D01*
X21726190Y-21964285D01*
X21726190Y-21916666D01*
X21750000Y-21845238D01*
X21773810Y-21821428D01*
X21892857Y-21392857D02*
X22226190Y-21392857D01*
X21702381Y-21511904D02*
X22059524Y-21630952D01*
X22059524Y-21321428D01*
X21773810Y-21154762D02*
X21750000Y-21130952D01*
X21726190Y-21083333D01*
X21726190Y-20964286D01*
X21750000Y-20916667D01*
X21773810Y-20892857D01*
X21821429Y-20869048D01*
X21869048Y-20869048D01*
X21940476Y-20892857D01*
X22226190Y-21178571D01*
X22226190Y-20869048D01*
X26428572Y-18678571D02*
X26404762Y-18702381D01*
X26333334Y-18726190D01*
X26285715Y-18726190D01*
X26214286Y-18702381D01*
X26166667Y-18654762D01*
X26142858Y-18607143D01*
X26119048Y-18511905D01*
X26119048Y-18440476D01*
X26142858Y-18345238D01*
X26166667Y-18297619D01*
X26214286Y-18250000D01*
X26285715Y-18226190D01*
X26333334Y-18226190D01*
X26404762Y-18250000D01*
X26428572Y-18273810D01*
X26857143Y-18392857D02*
X26857143Y-18726190D01*
X26738096Y-18202381D02*
X26619048Y-18559524D01*
X26928572Y-18559524D01*
X27071429Y-18226190D02*
X27380952Y-18226190D01*
X27214286Y-18416667D01*
X27285714Y-18416667D01*
X27333333Y-18440476D01*
X27357143Y-18464286D01*
X27380952Y-18511905D01*
X27380952Y-18630952D01*
X27357143Y-18678571D01*
X27333333Y-18702381D01*
X27285714Y-18726190D01*
X27142857Y-18726190D01*
X27095238Y-18702381D01*
X27071429Y-18678571D01*
D10*
X49357143Y-22369047D02*
X49404762Y-22416666D01*
X49452381Y-22559523D01*
X49452381Y-22654761D01*
X49404762Y-22797619D01*
X49309524Y-22892857D01*
X49214286Y-22940476D01*
X49023810Y-22988095D01*
X48880952Y-22988095D01*
X48690476Y-22940476D01*
X48595238Y-22892857D01*
X48500000Y-22797619D01*
X48452381Y-22654761D01*
X48452381Y-22559523D01*
X48500000Y-22416666D01*
X48547619Y-22369047D01*
X49452381Y-21416666D02*
X49452381Y-21988095D01*
X49452381Y-21702381D02*
X48452381Y-21702381D01*
X48595238Y-21797619D01*
X48690476Y-21892857D01*
X48738095Y-21988095D01*
X48452381Y-20797619D02*
X48452381Y-20702380D01*
X48500000Y-20607142D01*
X48547619Y-20559523D01*
X48642857Y-20511904D01*
X48833333Y-20464285D01*
X49071429Y-20464285D01*
X49261905Y-20511904D01*
X49357143Y-20559523D01*
X49404762Y-20607142D01*
X49452381Y-20702380D01*
X49452381Y-20797619D01*
X49404762Y-20892857D01*
X49357143Y-20940476D01*
X49261905Y-20988095D01*
X49071429Y-21035714D01*
X48833333Y-21035714D01*
X48642857Y-20988095D01*
X48547619Y-20940476D01*
X48500000Y-20892857D01*
X48452381Y-20797619D01*
X48452381Y-19607142D02*
X48452381Y-19797619D01*
X48500000Y-19892857D01*
X48547619Y-19940476D01*
X48690476Y-20035714D01*
X48880952Y-20083333D01*
X49261905Y-20083333D01*
X49357143Y-20035714D01*
X49404762Y-19988095D01*
X49452381Y-19892857D01*
X49452381Y-19702380D01*
X49404762Y-19607142D01*
X49357143Y-19559523D01*
X49261905Y-19511904D01*
X49023810Y-19511904D01*
X48928571Y-19559523D01*
X48880952Y-19607142D01*
X48833333Y-19702380D01*
X48833333Y-19892857D01*
X48880952Y-19988095D01*
X48928571Y-20035714D01*
X49023810Y-20083333D01*
D12*
X30190477Y-16428571D02*
X30166667Y-16452381D01*
X30095239Y-16476190D01*
X30047620Y-16476190D01*
X29976191Y-16452381D01*
X29928572Y-16404762D01*
X29904763Y-16357143D01*
X29880953Y-16261905D01*
X29880953Y-16190476D01*
X29904763Y-16095238D01*
X29928572Y-16047619D01*
X29976191Y-16000000D01*
X30047620Y-15976190D01*
X30095239Y-15976190D01*
X30166667Y-16000000D01*
X30190477Y-16023810D01*
X30666667Y-16476190D02*
X30380953Y-16476190D01*
X30523810Y-16476190D02*
X30523810Y-15976190D01*
X30476191Y-16047619D01*
X30428572Y-16095238D01*
X30380953Y-16119048D01*
X30976191Y-15976190D02*
X31023810Y-15976190D01*
X31071429Y-16000000D01*
X31095238Y-16023810D01*
X31119048Y-16071429D01*
X31142857Y-16166667D01*
X31142857Y-16285714D01*
X31119048Y-16380952D01*
X31095238Y-16428571D01*
X31071429Y-16452381D01*
X31023810Y-16476190D01*
X30976191Y-16476190D01*
X30928572Y-16452381D01*
X30904762Y-16428571D01*
X30880953Y-16380952D01*
X30857143Y-16285714D01*
X30857143Y-16166667D01*
X30880953Y-16071429D01*
X30904762Y-16023810D01*
X30928572Y-16000000D01*
X30976191Y-15976190D01*
X31309524Y-15976190D02*
X31642857Y-15976190D01*
X31428571Y-16476190D01*
X30178571Y-32059523D02*
X30202381Y-32083333D01*
X30226190Y-32154761D01*
X30226190Y-32202380D01*
X30202381Y-32273809D01*
X30154762Y-32321428D01*
X30107143Y-32345237D01*
X30011905Y-32369047D01*
X29940476Y-32369047D01*
X29845238Y-32345237D01*
X29797619Y-32321428D01*
X29750000Y-32273809D01*
X29726190Y-32202380D01*
X29726190Y-32154761D01*
X29750000Y-32083333D01*
X29773810Y-32059523D01*
X30226190Y-31583333D02*
X30226190Y-31869047D01*
X30226190Y-31726190D02*
X29726190Y-31726190D01*
X29797619Y-31773809D01*
X29845238Y-31821428D01*
X29869048Y-31869047D01*
X29726190Y-31273809D02*
X29726190Y-31226190D01*
X29750000Y-31178571D01*
X29773810Y-31154762D01*
X29821429Y-31130952D01*
X29916667Y-31107143D01*
X30035714Y-31107143D01*
X30130952Y-31130952D01*
X30178571Y-31154762D01*
X30202381Y-31178571D01*
X30226190Y-31226190D01*
X30226190Y-31273809D01*
X30202381Y-31321428D01*
X30178571Y-31345238D01*
X30130952Y-31369047D01*
X30035714Y-31392857D01*
X29916667Y-31392857D01*
X29821429Y-31369047D01*
X29773810Y-31345238D01*
X29750000Y-31321428D01*
X29726190Y-31273809D01*
X29940476Y-30821429D02*
X29916667Y-30869048D01*
X29892857Y-30892857D01*
X29845238Y-30916667D01*
X29821429Y-30916667D01*
X29773810Y-30892857D01*
X29750000Y-30869048D01*
X29726190Y-30821429D01*
X29726190Y-30726191D01*
X29750000Y-30678572D01*
X29773810Y-30654762D01*
X29821429Y-30630953D01*
X29845238Y-30630953D01*
X29892857Y-30654762D01*
X29916667Y-30678572D01*
X29940476Y-30726191D01*
X29940476Y-30821429D01*
X29964286Y-30869048D01*
X29988095Y-30892857D01*
X30035714Y-30916667D01*
X30130952Y-30916667D01*
X30178571Y-30892857D01*
X30202381Y-30869048D01*
X30226190Y-30821429D01*
X30226190Y-30726191D01*
X30202381Y-30678572D01*
X30178571Y-30654762D01*
X30130952Y-30630953D01*
X30035714Y-30630953D01*
X29988095Y-30654762D01*
X29964286Y-30678572D01*
X29940476Y-30726191D01*
D10*
X46880953Y-29607143D02*
X46833334Y-29654762D01*
X46690477Y-29702381D01*
X46595239Y-29702381D01*
X46452381Y-29654762D01*
X46357143Y-29559524D01*
X46309524Y-29464286D01*
X46261905Y-29273810D01*
X46261905Y-29130952D01*
X46309524Y-28940476D01*
X46357143Y-28845238D01*
X46452381Y-28750000D01*
X46595239Y-28702381D01*
X46690477Y-28702381D01*
X46833334Y-28750000D01*
X46880953Y-28797619D01*
X47833334Y-29702381D02*
X47261905Y-29702381D01*
X47547619Y-29702381D02*
X47547619Y-28702381D01*
X47452381Y-28845238D01*
X47357143Y-28940476D01*
X47261905Y-28988095D01*
X48452381Y-28702381D02*
X48547620Y-28702381D01*
X48642858Y-28750000D01*
X48690477Y-28797619D01*
X48738096Y-28892857D01*
X48785715Y-29083333D01*
X48785715Y-29321429D01*
X48738096Y-29511905D01*
X48690477Y-29607143D01*
X48642858Y-29654762D01*
X48547620Y-29702381D01*
X48452381Y-29702381D01*
X48357143Y-29654762D01*
X48309524Y-29607143D01*
X48261905Y-29511905D01*
X48214286Y-29321429D01*
X48214286Y-29083333D01*
X48261905Y-28892857D01*
X48309524Y-28797619D01*
X48357143Y-28750000D01*
X48452381Y-28702381D01*
X49261905Y-29702381D02*
X49452381Y-29702381D01*
X49547620Y-29654762D01*
X49595239Y-29607143D01*
X49690477Y-29464286D01*
X49738096Y-29273810D01*
X49738096Y-28892857D01*
X49690477Y-28797619D01*
X49642858Y-28750000D01*
X49547620Y-28702381D01*
X49357143Y-28702381D01*
X49261905Y-28750000D01*
X49214286Y-28797619D01*
X49166667Y-28892857D01*
X49166667Y-29130952D01*
X49214286Y-29226190D01*
X49261905Y-29273810D01*
X49357143Y-29321429D01*
X49547620Y-29321429D01*
X49642858Y-29273810D01*
X49690477Y-29226190D01*
X49738096Y-29130952D01*
D12*
X26940477Y-28428571D02*
X26916667Y-28452381D01*
X26845239Y-28476190D01*
X26797620Y-28476190D01*
X26726191Y-28452381D01*
X26678572Y-28404762D01*
X26654763Y-28357143D01*
X26630953Y-28261905D01*
X26630953Y-28190476D01*
X26654763Y-28095238D01*
X26678572Y-28047619D01*
X26726191Y-28000000D01*
X26797620Y-27976190D01*
X26845239Y-27976190D01*
X26916667Y-28000000D01*
X26940477Y-28023810D01*
X27416667Y-28476190D02*
X27130953Y-28476190D01*
X27273810Y-28476190D02*
X27273810Y-27976190D01*
X27226191Y-28047619D01*
X27178572Y-28095238D01*
X27130953Y-28119048D01*
X27892857Y-28476190D02*
X27607143Y-28476190D01*
X27750000Y-28476190D02*
X27750000Y-27976190D01*
X27702381Y-28047619D01*
X27654762Y-28095238D01*
X27607143Y-28119048D01*
X28369047Y-28476190D02*
X28083333Y-28476190D01*
X28226190Y-28476190D02*
X28226190Y-27976190D01*
X28178571Y-28047619D01*
X28130952Y-28095238D01*
X28083333Y-28119048D01*
X26940477Y-19678571D02*
X26916667Y-19702381D01*
X26845239Y-19726190D01*
X26797620Y-19726190D01*
X26726191Y-19702381D01*
X26678572Y-19654762D01*
X26654763Y-19607143D01*
X26630953Y-19511905D01*
X26630953Y-19440476D01*
X26654763Y-19345238D01*
X26678572Y-19297619D01*
X26726191Y-19250000D01*
X26797620Y-19226190D01*
X26845239Y-19226190D01*
X26916667Y-19250000D01*
X26940477Y-19273810D01*
X27416667Y-19726190D02*
X27130953Y-19726190D01*
X27273810Y-19726190D02*
X27273810Y-19226190D01*
X27226191Y-19297619D01*
X27178572Y-19345238D01*
X27130953Y-19369048D01*
X27892857Y-19726190D02*
X27607143Y-19726190D01*
X27750000Y-19726190D02*
X27750000Y-19226190D01*
X27702381Y-19297619D01*
X27654762Y-19345238D01*
X27607143Y-19369048D01*
X28083333Y-19273810D02*
X28107143Y-19250000D01*
X28154762Y-19226190D01*
X28273809Y-19226190D01*
X28321428Y-19250000D01*
X28345238Y-19273810D01*
X28369047Y-19321429D01*
X28369047Y-19369048D01*
X28345238Y-19440476D01*
X28059524Y-19726190D01*
X28369047Y-19726190D01*
D10*
X47261905Y-12702381D02*
X47261905Y-11702381D01*
X47642858Y-11702381D01*
X47738096Y-11750000D01*
X47785715Y-11797619D01*
X47833334Y-11892857D01*
X47833334Y-12035714D01*
X47785715Y-12130952D01*
X47738096Y-12178571D01*
X47642858Y-12226190D01*
X47261905Y-12226190D01*
X48214286Y-11797619D02*
X48261905Y-11750000D01*
X48357143Y-11702381D01*
X48595239Y-11702381D01*
X48690477Y-11750000D01*
X48738096Y-11797619D01*
X48785715Y-11892857D01*
X48785715Y-11988095D01*
X48738096Y-12130952D01*
X48166667Y-12702381D01*
X48785715Y-12702381D01*
X44785714Y-4452381D02*
X44785714Y-3452381D01*
X45166667Y-3452381D01*
X45261905Y-3500000D01*
X45309524Y-3547619D01*
X45357143Y-3642857D01*
X45357143Y-3785714D01*
X45309524Y-3880952D01*
X45261905Y-3928571D01*
X45166667Y-3976190D01*
X44785714Y-3976190D01*
X46309524Y-4452381D02*
X45738095Y-4452381D01*
X46023809Y-4452381D02*
X46023809Y-3452381D01*
X45928571Y-3595238D01*
X45833333Y-3690476D01*
X45738095Y-3738095D01*
X46928571Y-3452381D02*
X47023810Y-3452381D01*
X47119048Y-3500000D01*
X47166667Y-3547619D01*
X47214286Y-3642857D01*
X47261905Y-3833333D01*
X47261905Y-4071429D01*
X47214286Y-4261905D01*
X47166667Y-4357143D01*
X47119048Y-4404762D01*
X47023810Y-4452381D01*
X46928571Y-4452381D01*
X46833333Y-4404762D01*
X46785714Y-4357143D01*
X46738095Y-4261905D01*
X46690476Y-4071429D01*
X46690476Y-3833333D01*
X46738095Y-3642857D01*
X46785714Y-3547619D01*
X46833333Y-3500000D01*
X46928571Y-3452381D01*
X44785714Y-4452381D02*
X44785714Y-3452381D01*
X45166667Y-3452381D01*
X45261905Y-3500000D01*
X45309524Y-3547619D01*
X45357143Y-3642857D01*
X45357143Y-3785714D01*
X45309524Y-3880952D01*
X45261905Y-3928571D01*
X45166667Y-3976190D01*
X44785714Y-3976190D01*
X46309524Y-4452381D02*
X45738095Y-4452381D01*
X46023809Y-4452381D02*
X46023809Y-3452381D01*
X45928571Y-3595238D01*
X45833333Y-3690476D01*
X45738095Y-3738095D01*
X46928571Y-3452381D02*
X47023810Y-3452381D01*
X47119048Y-3500000D01*
X47166667Y-3547619D01*
X47214286Y-3642857D01*
X47261905Y-3833333D01*
X47261905Y-4071429D01*
X47214286Y-4261905D01*
X47166667Y-4357143D01*
X47119048Y-4404762D01*
X47023810Y-4452381D01*
X46928571Y-4452381D01*
X46833333Y-4404762D01*
X46785714Y-4357143D01*
X46738095Y-4261905D01*
X46690476Y-4071429D01*
X46690476Y-3833333D01*
X46738095Y-3642857D01*
X46785714Y-3547619D01*
X46833333Y-3500000D01*
X46928571Y-3452381D01*
X44785714Y-36452381D02*
X44785714Y-35452381D01*
X45166667Y-35452381D01*
X45261905Y-35500000D01*
X45309524Y-35547619D01*
X45357143Y-35642857D01*
X45357143Y-35785714D01*
X45309524Y-35880952D01*
X45261905Y-35928571D01*
X45166667Y-35976190D01*
X44785714Y-35976190D01*
X45738095Y-35547619D02*
X45785714Y-35500000D01*
X45880952Y-35452381D01*
X46119048Y-35452381D01*
X46214286Y-35500000D01*
X46261905Y-35547619D01*
X46309524Y-35642857D01*
X46309524Y-35738095D01*
X46261905Y-35880952D01*
X45690476Y-36452381D01*
X46309524Y-36452381D01*
X47261905Y-36452381D02*
X46690476Y-36452381D01*
X46976190Y-36452381D02*
X46976190Y-35452381D01*
X46880952Y-35595238D01*
X46785714Y-35690476D01*
X46690476Y-35738095D01*
X44785714Y-36452381D02*
X44785714Y-35452381D01*
X45166667Y-35452381D01*
X45261905Y-35500000D01*
X45309524Y-35547619D01*
X45357143Y-35642857D01*
X45357143Y-35785714D01*
X45309524Y-35880952D01*
X45261905Y-35928571D01*
X45166667Y-35976190D01*
X44785714Y-35976190D01*
X45738095Y-35547619D02*
X45785714Y-35500000D01*
X45880952Y-35452381D01*
X46119048Y-35452381D01*
X46214286Y-35500000D01*
X46261905Y-35547619D01*
X46309524Y-35642857D01*
X46309524Y-35738095D01*
X46261905Y-35880952D01*
X45690476Y-36452381D01*
X46309524Y-36452381D01*
X47261905Y-36452381D02*
X46690476Y-36452381D01*
X46976190Y-36452381D02*
X46976190Y-35452381D01*
X46880952Y-35595238D01*
X46785714Y-35690476D01*
X46690476Y-35738095D01*
X2785714Y-4452381D02*
X2785714Y-3452381D01*
X3166667Y-3452381D01*
X3261905Y-3500000D01*
X3309524Y-3547619D01*
X3357143Y-3642857D01*
X3357143Y-3785714D01*
X3309524Y-3880952D01*
X3261905Y-3928571D01*
X3166667Y-3976190D01*
X2785714Y-3976190D01*
X3738095Y-3547619D02*
X3785714Y-3500000D01*
X3880952Y-3452381D01*
X4119048Y-3452381D01*
X4214286Y-3500000D01*
X4261905Y-3547619D01*
X4309524Y-3642857D01*
X4309524Y-3738095D01*
X4261905Y-3880952D01*
X3690476Y-4452381D01*
X4309524Y-4452381D01*
X4690476Y-3547619D02*
X4738095Y-3500000D01*
X4833333Y-3452381D01*
X5071429Y-3452381D01*
X5166667Y-3500000D01*
X5214286Y-3547619D01*
X5261905Y-3642857D01*
X5261905Y-3738095D01*
X5214286Y-3880952D01*
X4642857Y-4452381D01*
X5261905Y-4452381D01*
X2785714Y-4452381D02*
X2785714Y-3452381D01*
X3166667Y-3452381D01*
X3261905Y-3500000D01*
X3309524Y-3547619D01*
X3357143Y-3642857D01*
X3357143Y-3785714D01*
X3309524Y-3880952D01*
X3261905Y-3928571D01*
X3166667Y-3976190D01*
X2785714Y-3976190D01*
X3738095Y-3547619D02*
X3785714Y-3500000D01*
X3880952Y-3452381D01*
X4119048Y-3452381D01*
X4214286Y-3500000D01*
X4261905Y-3547619D01*
X4309524Y-3642857D01*
X4309524Y-3738095D01*
X4261905Y-3880952D01*
X3690476Y-4452381D01*
X4309524Y-4452381D01*
X4690476Y-3547619D02*
X4738095Y-3500000D01*
X4833333Y-3452381D01*
X5071429Y-3452381D01*
X5166667Y-3500000D01*
X5214286Y-3547619D01*
X5261905Y-3642857D01*
X5261905Y-3738095D01*
X5214286Y-3880952D01*
X4642857Y-4452381D01*
X5261905Y-4452381D01*
X2785714Y-46452381D02*
X2785714Y-45452381D01*
X3166667Y-45452381D01*
X3261905Y-45500000D01*
X3309524Y-45547619D01*
X3357143Y-45642857D01*
X3357143Y-45785714D01*
X3309524Y-45880952D01*
X3261905Y-45928571D01*
X3166667Y-45976190D01*
X2785714Y-45976190D01*
X3738095Y-45547619D02*
X3785714Y-45500000D01*
X3880952Y-45452381D01*
X4119048Y-45452381D01*
X4214286Y-45500000D01*
X4261905Y-45547619D01*
X4309524Y-45642857D01*
X4309524Y-45738095D01*
X4261905Y-45880952D01*
X3690476Y-46452381D01*
X4309524Y-46452381D01*
X5166667Y-45785714D02*
X5166667Y-46452381D01*
X4928571Y-45404762D02*
X4690476Y-46119048D01*
X5309524Y-46119048D01*
X2785714Y-46452381D02*
X2785714Y-45452381D01*
X3166667Y-45452381D01*
X3261905Y-45500000D01*
X3309524Y-45547619D01*
X3357143Y-45642857D01*
X3357143Y-45785714D01*
X3309524Y-45880952D01*
X3261905Y-45928571D01*
X3166667Y-45976190D01*
X2785714Y-45976190D01*
X3738095Y-45547619D02*
X3785714Y-45500000D01*
X3880952Y-45452381D01*
X4119048Y-45452381D01*
X4214286Y-45500000D01*
X4261905Y-45547619D01*
X4309524Y-45642857D01*
X4309524Y-45738095D01*
X4261905Y-45880952D01*
X3690476Y-46452381D01*
X4309524Y-46452381D01*
X5166667Y-45785714D02*
X5166667Y-46452381D01*
X4928571Y-45404762D02*
X4690476Y-46119048D01*
X5309524Y-46119048D01*
X2702381Y-25642857D02*
X2226190Y-25976191D01*
X2702381Y-26214286D02*
X1702381Y-26214286D01*
X1702381Y-25833333D01*
X1750000Y-25738095D01*
X1797619Y-25690476D01*
X1892857Y-25642857D01*
X2035714Y-25642857D01*
X2130952Y-25690476D01*
X2178571Y-25738095D01*
X2226190Y-25833333D01*
X2226190Y-26214286D01*
X1797619Y-25261905D02*
X1750000Y-25214286D01*
X1702381Y-25119048D01*
X1702381Y-24880952D01*
X1750000Y-24785714D01*
X1797619Y-24738095D01*
X1892857Y-24690476D01*
X1988095Y-24690476D01*
X2130952Y-24738095D01*
X2702381Y-25309524D01*
X2702381Y-24690476D01*
X1702381Y-24357143D02*
X1702381Y-23690476D01*
X2702381Y-24119048D01*
X1547619Y-9071428D02*
X1500000Y-9166666D01*
X1404762Y-9261904D01*
X1261905Y-9404761D01*
X1214286Y-9500000D01*
X1214286Y-9595238D01*
X1452381Y-9547619D02*
X1404762Y-9642857D01*
X1309524Y-9738095D01*
X1119048Y-9785714D01*
X785714Y-9785714D01*
X595238Y-9738095D01*
X500000Y-9642857D01*
X452381Y-9547619D01*
X452381Y-9357142D01*
X500000Y-9261904D01*
X595238Y-9166666D01*
X785714Y-9119047D01*
X1119048Y-9119047D01*
X1309524Y-9166666D01*
X1404762Y-9261904D01*
X1452381Y-9357142D01*
X1452381Y-9547619D01*
X1452381Y-8166666D02*
X1452381Y-8738095D01*
X1452381Y-8452381D02*
X452381Y-8452381D01*
X595238Y-8547619D01*
X690476Y-8642857D01*
X738095Y-8738095D01*
X1452381Y-7214285D02*
X1452381Y-7785714D01*
X1452381Y-7500000D02*
X452381Y-7500000D01*
X595238Y-7595238D01*
X690476Y-7690476D01*
X738095Y-7785714D01*
X6297619Y-19821428D02*
X6250000Y-19916666D01*
X6154762Y-20011904D01*
X6011905Y-20154761D01*
X5964286Y-20250000D01*
X5964286Y-20345238D01*
X6202381Y-20297619D02*
X6154762Y-20392857D01*
X6059524Y-20488095D01*
X5869048Y-20535714D01*
X5535714Y-20535714D01*
X5345238Y-20488095D01*
X5250000Y-20392857D01*
X5202381Y-20297619D01*
X5202381Y-20107142D01*
X5250000Y-20011904D01*
X5345238Y-19916666D01*
X5535714Y-19869047D01*
X5869048Y-19869047D01*
X6059524Y-19916666D01*
X6154762Y-20011904D01*
X6202381Y-20107142D01*
X6202381Y-20297619D01*
X6202381Y-18916666D02*
X6202381Y-19488095D01*
X6202381Y-19202381D02*
X5202381Y-19202381D01*
X5345238Y-19297619D01*
X5440476Y-19392857D01*
X5488095Y-19488095D01*
X5297619Y-18535714D02*
X5250000Y-18488095D01*
X5202381Y-18392857D01*
X5202381Y-18154761D01*
X5250000Y-18059523D01*
X5297619Y-18011904D01*
X5392857Y-17964285D01*
X5488095Y-17964285D01*
X5630952Y-18011904D01*
X6202381Y-18583333D01*
X6202381Y-17964285D01*
X43952381Y-28238095D02*
X44761905Y-28238095D01*
X44857143Y-28190476D01*
X44904762Y-28142857D01*
X44952381Y-28047619D01*
X44952381Y-27857142D01*
X44904762Y-27761904D01*
X44857143Y-27714285D01*
X44761905Y-27666666D01*
X43952381Y-27666666D01*
X44952381Y-26666666D02*
X44952381Y-27238095D01*
X44952381Y-26952381D02*
X43952381Y-26952381D01*
X44095238Y-27047619D01*
X44190476Y-27142857D01*
X44238095Y-27238095D01*
X43952381Y-26047619D02*
X43952381Y-25952380D01*
X44000000Y-25857142D01*
X44047619Y-25809523D01*
X44142857Y-25761904D01*
X44333333Y-25714285D01*
X44571429Y-25714285D01*
X44761905Y-25761904D01*
X44857143Y-25809523D01*
X44904762Y-25857142D01*
X44952381Y-25952380D01*
X44952381Y-26047619D01*
X44904762Y-26142857D01*
X44857143Y-26190476D01*
X44761905Y-26238095D01*
X44571429Y-26285714D01*
X44333333Y-26285714D01*
X44142857Y-26238095D01*
X44047619Y-26190476D01*
X44000000Y-26142857D01*
X43952381Y-26047619D01*
X17511905Y-21452381D02*
X17511905Y-22261905D01*
X17559524Y-22357143D01*
X17607143Y-22404762D01*
X17702381Y-22452381D01*
X17892858Y-22452381D01*
X17988096Y-22404762D01*
X18035715Y-22357143D01*
X18083334Y-22261905D01*
X18083334Y-21452381D01*
X19083334Y-22452381D02*
X18511905Y-22452381D01*
X18797619Y-22452381D02*
X18797619Y-21452381D01*
X18702381Y-21595238D01*
X18607143Y-21690476D01*
X18511905Y-21738095D01*
X19416667Y-21452381D02*
X20083334Y-21452381D01*
X19654762Y-22452381D01*
X952381Y-42511905D02*
X1761905Y-42511905D01*
X1857143Y-42464286D01*
X1904762Y-42416667D01*
X1952381Y-42321429D01*
X1952381Y-42130952D01*
X1904762Y-42035714D01*
X1857143Y-41988095D01*
X1761905Y-41940476D01*
X952381Y-41940476D01*
X1952381Y-40940476D02*
X1952381Y-41511905D01*
X1952381Y-41226191D02*
X952381Y-41226191D01*
X1095238Y-41321429D01*
X1190476Y-41416667D01*
X1238095Y-41511905D01*
X14238095Y-42452381D02*
X14238095Y-43261905D01*
X14285714Y-43357143D01*
X14333333Y-43404762D01*
X14428571Y-43452381D01*
X14619048Y-43452381D01*
X14714286Y-43404762D01*
X14761905Y-43357143D01*
X14809524Y-43261905D01*
X14809524Y-42452381D01*
X15238095Y-42547619D02*
X15285714Y-42500000D01*
X15380952Y-42452381D01*
X15619048Y-42452381D01*
X15714286Y-42500000D01*
X15761905Y-42547619D01*
X15809524Y-42642857D01*
X15809524Y-42738095D01*
X15761905Y-42880952D01*
X15190476Y-43452381D01*
X15809524Y-43452381D01*
X46738095Y-49452381D02*
X46738095Y-48452381D01*
X47119048Y-48452381D01*
X47214286Y-48500000D01*
X47261905Y-48547619D01*
X47309524Y-48642857D01*
X47309524Y-48785714D01*
X47261905Y-48880952D01*
X47214286Y-48928571D01*
X47119048Y-48976190D01*
X46738095Y-48976190D01*
X48261905Y-49452381D02*
X47690476Y-49452381D01*
X47976190Y-49452381D02*
X47976190Y-48452381D01*
X47880952Y-48595238D01*
X47785714Y-48690476D01*
X47690476Y-48738095D01*
X33738095Y-49452381D02*
X33738095Y-48452381D01*
X34119048Y-48452381D01*
X34214286Y-48500000D01*
X34261905Y-48547619D01*
X34309524Y-48642857D01*
X34309524Y-48785714D01*
X34261905Y-48880952D01*
X34214286Y-48928571D01*
X34119048Y-48976190D01*
X33738095Y-48976190D01*
X34642857Y-48452381D02*
X35261905Y-48452381D01*
X34928571Y-48833333D01*
X35071429Y-48833333D01*
X35166667Y-48880952D01*
X35214286Y-48928571D01*
X35261905Y-49023810D01*
X35261905Y-49261905D01*
X35214286Y-49357143D01*
X35166667Y-49404762D01*
X35071429Y-49452381D01*
X34785714Y-49452381D01*
X34690476Y-49404762D01*
X34642857Y-49357143D01*
X36059524Y-35702381D02*
X35726190Y-35226190D01*
X35488095Y-35702381D02*
X35488095Y-34702381D01*
X35869048Y-34702381D01*
X35964286Y-34750000D01*
X36011905Y-34797619D01*
X36059524Y-34892857D01*
X36059524Y-35035714D01*
X36011905Y-35130952D01*
X35964286Y-35178571D01*
X35869048Y-35226190D01*
X35488095Y-35226190D01*
X36488095Y-35702381D02*
X36488095Y-34702381D01*
X37059524Y-35702381D01*
X37059524Y-34702381D01*
X38059524Y-35702381D02*
X37488095Y-35702381D01*
X37773809Y-35702381D02*
X37773809Y-34702381D01*
X37678571Y-34845238D01*
X37583333Y-34940476D01*
X37488095Y-34988095D01*
X43130953Y-19107143D02*
X43083334Y-19154762D01*
X42940477Y-19202381D01*
X42845239Y-19202381D01*
X42702381Y-19154762D01*
X42607143Y-19059524D01*
X42559524Y-18964286D01*
X42511905Y-18773810D01*
X42511905Y-18630952D01*
X42559524Y-18440476D01*
X42607143Y-18345238D01*
X42702381Y-18250000D01*
X42845239Y-18202381D01*
X42940477Y-18202381D01*
X43083334Y-18250000D01*
X43130953Y-18297619D01*
X44083334Y-19202381D02*
X43511905Y-19202381D01*
X43797619Y-19202381D02*
X43797619Y-18202381D01*
X43702381Y-18345238D01*
X43607143Y-18440476D01*
X43511905Y-18488095D01*
X44702381Y-18202381D02*
X44797620Y-18202381D01*
X44892858Y-18250000D01*
X44940477Y-18297619D01*
X44988096Y-18392857D01*
X45035715Y-18583333D01*
X45035715Y-18821429D01*
X44988096Y-19011905D01*
X44940477Y-19107143D01*
X44892858Y-19154762D01*
X44797620Y-19202381D01*
X44702381Y-19202381D01*
X44607143Y-19154762D01*
X44559524Y-19107143D01*
X44511905Y-19011905D01*
X44464286Y-18821429D01*
X44464286Y-18583333D01*
X44511905Y-18392857D01*
X44559524Y-18297619D01*
X44607143Y-18250000D01*
X44702381Y-18202381D01*
X45988096Y-19202381D02*
X45416667Y-19202381D01*
X45702381Y-19202381D02*
X45702381Y-18202381D01*
X45607143Y-18345238D01*
X45511905Y-18440476D01*
X45416667Y-18488095D01*
D12*
X33440477Y-19428571D02*
X33416667Y-19452381D01*
X33345239Y-19476190D01*
X33297620Y-19476190D01*
X33226191Y-19452381D01*
X33178572Y-19404762D01*
X33154763Y-19357143D01*
X33130953Y-19261905D01*
X33130953Y-19190476D01*
X33154763Y-19095238D01*
X33178572Y-19047619D01*
X33226191Y-19000000D01*
X33297620Y-18976190D01*
X33345239Y-18976190D01*
X33416667Y-19000000D01*
X33440477Y-19023810D01*
X33916667Y-19476190D02*
X33630953Y-19476190D01*
X33773810Y-19476190D02*
X33773810Y-18976190D01*
X33726191Y-19047619D01*
X33678572Y-19095238D01*
X33630953Y-19119048D01*
X34226191Y-18976190D02*
X34273810Y-18976190D01*
X34321429Y-19000000D01*
X34345238Y-19023810D01*
X34369048Y-19071429D01*
X34392857Y-19166667D01*
X34392857Y-19285714D01*
X34369048Y-19380952D01*
X34345238Y-19428571D01*
X34321429Y-19452381D01*
X34273810Y-19476190D01*
X34226191Y-19476190D01*
X34178572Y-19452381D01*
X34154762Y-19428571D01*
X34130953Y-19380952D01*
X34107143Y-19285714D01*
X34107143Y-19166667D01*
X34130953Y-19071429D01*
X34154762Y-19023810D01*
X34178572Y-19000000D01*
X34226191Y-18976190D01*
X34583333Y-19023810D02*
X34607143Y-19000000D01*
X34654762Y-18976190D01*
X34773809Y-18976190D01*
X34821428Y-19000000D01*
X34845238Y-19023810D01*
X34869047Y-19071429D01*
X34869047Y-19119048D01*
X34845238Y-19190476D01*
X34559524Y-19476190D01*
X34869047Y-19476190D01*
D10*
X39880953Y-34607143D02*
X39833334Y-34654762D01*
X39690477Y-34702381D01*
X39595239Y-34702381D01*
X39452381Y-34654762D01*
X39357143Y-34559524D01*
X39309524Y-34464286D01*
X39261905Y-34273810D01*
X39261905Y-34130952D01*
X39309524Y-33940476D01*
X39357143Y-33845238D01*
X39452381Y-33750000D01*
X39595239Y-33702381D01*
X39690477Y-33702381D01*
X39833334Y-33750000D01*
X39880953Y-33797619D01*
X40833334Y-34702381D02*
X40261905Y-34702381D01*
X40547619Y-34702381D02*
X40547619Y-33702381D01*
X40452381Y-33845238D01*
X40357143Y-33940476D01*
X40261905Y-33988095D01*
X41452381Y-33702381D02*
X41547620Y-33702381D01*
X41642858Y-33750000D01*
X41690477Y-33797619D01*
X41738096Y-33892857D01*
X41785715Y-34083333D01*
X41785715Y-34321429D01*
X41738096Y-34511905D01*
X41690477Y-34607143D01*
X41642858Y-34654762D01*
X41547620Y-34702381D01*
X41452381Y-34702381D01*
X41357143Y-34654762D01*
X41309524Y-34607143D01*
X41261905Y-34511905D01*
X41214286Y-34321429D01*
X41214286Y-34083333D01*
X41261905Y-33892857D01*
X41309524Y-33797619D01*
X41357143Y-33750000D01*
X41452381Y-33702381D01*
X42119048Y-33702381D02*
X42738096Y-33702381D01*
X42404762Y-34083333D01*
X42547620Y-34083333D01*
X42642858Y-34130952D01*
X42690477Y-34178571D01*
X42738096Y-34273810D01*
X42738096Y-34511905D01*
X42690477Y-34607143D01*
X42642858Y-34654762D01*
X42547620Y-34702381D01*
X42261905Y-34702381D01*
X42166667Y-34654762D01*
X42119048Y-34607143D01*
D12*
X32678571Y-26809523D02*
X32702381Y-26833333D01*
X32726190Y-26904761D01*
X32726190Y-26952380D01*
X32702381Y-27023809D01*
X32654762Y-27071428D01*
X32607143Y-27095237D01*
X32511905Y-27119047D01*
X32440476Y-27119047D01*
X32345238Y-27095237D01*
X32297619Y-27071428D01*
X32250000Y-27023809D01*
X32226190Y-26952380D01*
X32226190Y-26904761D01*
X32250000Y-26833333D01*
X32273810Y-26809523D01*
X32726190Y-26333333D02*
X32726190Y-26619047D01*
X32726190Y-26476190D02*
X32226190Y-26476190D01*
X32297619Y-26523809D01*
X32345238Y-26571428D01*
X32369048Y-26619047D01*
X32226190Y-26023809D02*
X32226190Y-25976190D01*
X32250000Y-25928571D01*
X32273810Y-25904762D01*
X32321429Y-25880952D01*
X32416667Y-25857143D01*
X32535714Y-25857143D01*
X32630952Y-25880952D01*
X32678571Y-25904762D01*
X32702381Y-25928571D01*
X32726190Y-25976190D01*
X32726190Y-26023809D01*
X32702381Y-26071428D01*
X32678571Y-26095238D01*
X32630952Y-26119047D01*
X32535714Y-26142857D01*
X32416667Y-26142857D01*
X32321429Y-26119047D01*
X32273810Y-26095238D01*
X32250000Y-26071428D01*
X32226190Y-26023809D01*
X32392857Y-25428572D02*
X32726190Y-25428572D01*
X32202381Y-25547619D02*
X32559524Y-25666667D01*
X32559524Y-25357143D01*
X34190477Y-16678571D02*
X34166667Y-16702381D01*
X34095239Y-16726190D01*
X34047620Y-16726190D01*
X33976191Y-16702381D01*
X33928572Y-16654762D01*
X33904763Y-16607143D01*
X33880953Y-16511905D01*
X33880953Y-16440476D01*
X33904763Y-16345238D01*
X33928572Y-16297619D01*
X33976191Y-16250000D01*
X34047620Y-16226190D01*
X34095239Y-16226190D01*
X34166667Y-16250000D01*
X34190477Y-16273810D01*
X34666667Y-16726190D02*
X34380953Y-16726190D01*
X34523810Y-16726190D02*
X34523810Y-16226190D01*
X34476191Y-16297619D01*
X34428572Y-16345238D01*
X34380953Y-16369048D01*
X34976191Y-16226190D02*
X35023810Y-16226190D01*
X35071429Y-16250000D01*
X35095238Y-16273810D01*
X35119048Y-16321429D01*
X35142857Y-16416667D01*
X35142857Y-16535714D01*
X35119048Y-16630952D01*
X35095238Y-16678571D01*
X35071429Y-16702381D01*
X35023810Y-16726190D01*
X34976191Y-16726190D01*
X34928572Y-16702381D01*
X34904762Y-16678571D01*
X34880953Y-16630952D01*
X34857143Y-16535714D01*
X34857143Y-16416667D01*
X34880953Y-16321429D01*
X34904762Y-16273810D01*
X34928572Y-16250000D01*
X34976191Y-16226190D01*
X35595238Y-16226190D02*
X35357143Y-16226190D01*
X35333333Y-16464286D01*
X35357143Y-16440476D01*
X35404762Y-16416667D01*
X35523809Y-16416667D01*
X35571428Y-16440476D01*
X35595238Y-16464286D01*
X35619047Y-16511905D01*
X35619047Y-16630952D01*
X35595238Y-16678571D01*
X35571428Y-16702381D01*
X35523809Y-16726190D01*
X35404762Y-16726190D01*
X35357143Y-16702381D01*
X35333333Y-16678571D01*
D10*
X45206176Y-25211253D02*
X45138833Y-25211253D01*
X45004146Y-25143909D01*
X44936802Y-25076566D01*
X44869458Y-24941878D01*
X44869458Y-24807191D01*
X44903130Y-24706176D01*
X45004145Y-24537817D01*
X45105161Y-24436802D01*
X45273519Y-24335786D01*
X45374535Y-24302115D01*
X45509222Y-24302115D01*
X45643909Y-24369459D01*
X45711253Y-24436802D01*
X45778596Y-24571489D01*
X45778596Y-24638833D01*
X45812268Y-25952031D02*
X45408206Y-25547970D01*
X45610237Y-25750000D02*
X46317343Y-25042893D01*
X46148985Y-25076565D01*
X46014298Y-25076565D01*
X45913283Y-25042893D01*
X46485703Y-26625466D02*
X46081641Y-26221405D01*
X46283672Y-26423435D02*
X46990778Y-25716328D01*
X46822420Y-25750000D01*
X46687733Y-25750000D01*
X46586718Y-25716328D01*
X47630542Y-26356092D02*
X47697886Y-26423436D01*
X47731558Y-26524451D01*
X47731558Y-26591794D01*
X47697886Y-26692810D01*
X47596871Y-26861168D01*
X47428512Y-27029527D01*
X47260153Y-27130543D01*
X47159138Y-27164214D01*
X47091794Y-27164214D01*
X46990779Y-27130543D01*
X46923435Y-27063198D01*
X46889763Y-26962183D01*
X46889763Y-26894840D01*
X46923435Y-26793825D01*
X47024450Y-26625466D01*
X47192810Y-26457107D01*
X47361168Y-26356092D01*
X47462183Y-26322420D01*
X47529527Y-26322420D01*
X47630542Y-26356092D01*
X30561905Y-24359524D02*
X31209524Y-24359524D01*
X31285714Y-24321429D01*
X31323810Y-24283333D01*
X31361905Y-24207143D01*
X31361905Y-24054762D01*
X31323810Y-23978571D01*
X31285714Y-23940476D01*
X31209524Y-23902381D01*
X30561905Y-23902381D01*
X30904762Y-23407143D02*
X30866667Y-23483334D01*
X30828571Y-23521429D01*
X30752381Y-23559524D01*
X30714286Y-23559524D01*
X30638095Y-23521429D01*
X30600000Y-23483334D01*
X30561905Y-23407143D01*
X30561905Y-23254762D01*
X30600000Y-23178572D01*
X30638095Y-23140476D01*
X30714286Y-23102381D01*
X30752381Y-23102381D01*
X30828571Y-23140476D01*
X30866667Y-23178572D01*
X30904762Y-23254762D01*
X30904762Y-23407143D01*
X30942857Y-23483334D01*
X30980952Y-23521429D01*
X31057143Y-23559524D01*
X31209524Y-23559524D01*
X31285714Y-23521429D01*
X31323810Y-23483334D01*
X31361905Y-23407143D01*
X31361905Y-23254762D01*
X31323810Y-23178572D01*
X31285714Y-23140476D01*
X31209524Y-23102381D01*
X31057143Y-23102381D01*
X30980952Y-23140476D01*
X30942857Y-23178572D01*
X30904762Y-23254762D01*
X11857143Y-17607143D02*
X11809524Y-17654762D01*
X11666667Y-17702381D01*
X11571429Y-17702381D01*
X11428571Y-17654762D01*
X11333333Y-17559524D01*
X11285714Y-17464286D01*
X11238095Y-17273810D01*
X11238095Y-17130952D01*
X11285714Y-16940476D01*
X11333333Y-16845238D01*
X11428571Y-16750000D01*
X11571429Y-16702381D01*
X11666667Y-16702381D01*
X11809524Y-16750000D01*
X11857143Y-16797619D01*
X12809524Y-17702381D02*
X12238095Y-17702381D01*
X12523809Y-17702381D02*
X12523809Y-16702381D01*
X12428571Y-16845238D01*
X12333333Y-16940476D01*
X12238095Y-16988095D01*
X13380952Y-17130952D02*
X13285714Y-17083333D01*
X13238095Y-17035714D01*
X13190476Y-16940476D01*
X13190476Y-16892857D01*
X13238095Y-16797619D01*
X13285714Y-16750000D01*
X13380952Y-16702381D01*
X13571429Y-16702381D01*
X13666667Y-16750000D01*
X13714286Y-16797619D01*
X13761905Y-16892857D01*
X13761905Y-16940476D01*
X13714286Y-17035714D01*
X13666667Y-17083333D01*
X13571429Y-17130952D01*
X13380952Y-17130952D01*
X13285714Y-17178571D01*
X13238095Y-17226190D01*
X13190476Y-17321429D01*
X13190476Y-17511905D01*
X13238095Y-17607143D01*
X13285714Y-17654762D01*
X13380952Y-17702381D01*
X13571429Y-17702381D01*
X13666667Y-17654762D01*
X13714286Y-17607143D01*
X13761905Y-17511905D01*
X13761905Y-17321429D01*
X13714286Y-17226190D01*
X13666667Y-17178571D01*
X13571429Y-17130952D01*
X11571429Y-25880952D02*
X11571429Y-25119047D01*
X11952381Y-25499999D02*
X11190476Y-25499999D01*
X3333334Y-36107143D02*
X3285715Y-36154762D01*
X3142858Y-36202381D01*
X3047620Y-36202381D01*
X2904762Y-36154762D01*
X2809524Y-36059524D01*
X2761905Y-35964286D01*
X2714286Y-35773810D01*
X2714286Y-35630952D01*
X2761905Y-35440476D01*
X2809524Y-35345238D01*
X2904762Y-35250000D01*
X3047620Y-35202381D01*
X3142858Y-35202381D01*
X3285715Y-35250000D01*
X3333334Y-35297619D01*
X4285715Y-36202381D02*
X3714286Y-36202381D01*
X4000000Y-36202381D02*
X4000000Y-35202381D01*
X3904762Y-35345238D01*
X3809524Y-35440476D01*
X3714286Y-35488095D01*
X2107143Y-29166666D02*
X2154762Y-29214285D01*
X2202381Y-29357142D01*
X2202381Y-29452380D01*
X2154762Y-29595238D01*
X2059524Y-29690476D01*
X1964286Y-29738095D01*
X1773810Y-29785714D01*
X1630952Y-29785714D01*
X1440476Y-29738095D01*
X1345238Y-29690476D01*
X1250000Y-29595238D01*
X1202381Y-29452380D01*
X1202381Y-29357142D01*
X1250000Y-29214285D01*
X1297619Y-29166666D01*
X1297619Y-28785714D02*
X1250000Y-28738095D01*
X1202381Y-28642857D01*
X1202381Y-28404761D01*
X1250000Y-28309523D01*
X1297619Y-28261904D01*
X1392857Y-28214285D01*
X1488095Y-28214285D01*
X1630952Y-28261904D01*
X2202381Y-28833333D01*
X2202381Y-28214285D01*
X27861905Y-34002381D02*
X27861905Y-34811905D01*
X27909524Y-34907143D01*
X27957143Y-34954762D01*
X28052381Y-35002381D01*
X28242858Y-35002381D01*
X28338096Y-34954762D01*
X28385715Y-34907143D01*
X28433334Y-34811905D01*
X28433334Y-34002381D01*
X29433334Y-35002381D02*
X28861905Y-35002381D01*
X29147619Y-35002381D02*
X29147619Y-34002381D01*
X29052381Y-34145238D01*
X28957143Y-34240476D01*
X28861905Y-34288095D01*
X30385715Y-35002381D02*
X29814286Y-35002381D01*
X30100000Y-35002381D02*
X30100000Y-34002381D01*
X30004762Y-34145238D01*
X29909524Y-34240476D01*
X29814286Y-34288095D01*
X34857143Y-38119047D02*
X34904762Y-38166666D01*
X34952381Y-38309523D01*
X34952381Y-38404761D01*
X34904762Y-38547619D01*
X34809524Y-38642857D01*
X34714286Y-38690476D01*
X34523810Y-38738095D01*
X34380952Y-38738095D01*
X34190476Y-38690476D01*
X34095238Y-38642857D01*
X34000000Y-38547619D01*
X33952381Y-38404761D01*
X33952381Y-38309523D01*
X34000000Y-38166666D01*
X34047619Y-38119047D01*
X34047619Y-37738095D02*
X34000000Y-37690476D01*
X33952381Y-37595238D01*
X33952381Y-37357142D01*
X34000000Y-37261904D01*
X34047619Y-37214285D01*
X34142857Y-37166666D01*
X34238095Y-37166666D01*
X34380952Y-37214285D01*
X34952381Y-37785714D01*
X34952381Y-37166666D01*
X33952381Y-36547619D02*
X33952381Y-36452380D01*
X34000000Y-36357142D01*
X34047619Y-36309523D01*
X34142857Y-36261904D01*
X34333333Y-36214285D01*
X34571429Y-36214285D01*
X34761905Y-36261904D01*
X34857143Y-36309523D01*
X34904762Y-36357142D01*
X34952381Y-36452380D01*
X34952381Y-36547619D01*
X34904762Y-36642857D01*
X34857143Y-36690476D01*
X34761905Y-36738095D01*
X34571429Y-36785714D01*
X34333333Y-36785714D01*
X34142857Y-36738095D01*
X34047619Y-36690476D01*
X34000000Y-36642857D01*
X33952381Y-36547619D01*
X34047619Y-35833333D02*
X34000000Y-35785714D01*
X33952381Y-35690476D01*
X33952381Y-35452380D01*
X34000000Y-35357142D01*
X34047619Y-35309523D01*
X34142857Y-35261904D01*
X34238095Y-35261904D01*
X34380952Y-35309523D01*
X34952381Y-35880952D01*
X34952381Y-35261904D01*
X14154762Y-30047619D02*
X14059524Y-30000000D01*
X13964286Y-29904762D01*
X13821429Y-29761905D01*
X13726190Y-29714286D01*
X13630952Y-29714286D01*
X13678571Y-29952381D02*
X13583333Y-29904762D01*
X13488095Y-29809524D01*
X13440476Y-29619048D01*
X13440476Y-29285714D01*
X13488095Y-29095238D01*
X13583333Y-29000000D01*
X13678571Y-28952381D01*
X13869048Y-28952381D01*
X13964286Y-29000000D01*
X14059524Y-29095238D01*
X14107143Y-29285714D01*
X14107143Y-29619048D01*
X14059524Y-29809524D01*
X13964286Y-29904762D01*
X13869048Y-29952381D01*
X13678571Y-29952381D01*
X14440476Y-28952381D02*
X15059524Y-28952381D01*
X14726190Y-29333333D01*
X14869048Y-29333333D01*
X14964286Y-29380952D01*
X15011905Y-29428571D01*
X15059524Y-29523810D01*
X15059524Y-29761905D01*
X15011905Y-29857143D01*
X14964286Y-29904762D01*
X14869048Y-29952381D01*
X14583333Y-29952381D01*
X14488095Y-29904762D01*
X14440476Y-29857143D01*
X4702381Y-29488095D02*
X5511905Y-29488095D01*
X5607143Y-29440476D01*
X5654762Y-29392857D01*
X5702381Y-29297619D01*
X5702381Y-29107142D01*
X5654762Y-29011904D01*
X5607143Y-28964285D01*
X5511905Y-28916666D01*
X4702381Y-28916666D01*
X5702381Y-27916666D02*
X5702381Y-28488095D01*
X5702381Y-28202381D02*
X4702381Y-28202381D01*
X4845238Y-28297619D01*
X4940476Y-28392857D01*
X4988095Y-28488095D01*
X4702381Y-27583333D02*
X4702381Y-26964285D01*
X5083333Y-27297619D01*
X5083333Y-27154761D01*
X5130952Y-27059523D01*
X5178571Y-27011904D01*
X5273810Y-26964285D01*
X5511905Y-26964285D01*
X5607143Y-27011904D01*
X5654762Y-27059523D01*
X5702381Y-27154761D01*
X5702381Y-27440476D01*
X5654762Y-27535714D01*
X5607143Y-27583333D01*
D12*
X26726190Y-33833333D02*
X26488095Y-34000000D01*
X26726190Y-34119047D02*
X26226190Y-34119047D01*
X26226190Y-33928571D01*
X26250000Y-33880952D01*
X26273810Y-33857143D01*
X26321429Y-33833333D01*
X26392857Y-33833333D01*
X26440476Y-33857143D01*
X26464286Y-33880952D01*
X26488095Y-33928571D01*
X26488095Y-34119047D01*
X26392857Y-33404762D02*
X26726190Y-33404762D01*
X26202381Y-33523809D02*
X26559524Y-33642857D01*
X26559524Y-33333333D01*
X23166667Y-25476190D02*
X23000000Y-25238095D01*
X22880953Y-25476190D02*
X22880953Y-24976190D01*
X23071429Y-24976190D01*
X23119048Y-25000000D01*
X23142857Y-25023810D01*
X23166667Y-25071429D01*
X23166667Y-25142857D01*
X23142857Y-25190476D01*
X23119048Y-25214286D01*
X23071429Y-25238095D01*
X22880953Y-25238095D01*
X23619048Y-24976190D02*
X23380953Y-24976190D01*
X23357143Y-25214286D01*
X23380953Y-25190476D01*
X23428572Y-25166667D01*
X23547619Y-25166667D01*
X23595238Y-25190476D01*
X23619048Y-25214286D01*
X23642857Y-25261905D01*
X23642857Y-25380952D01*
X23619048Y-25428571D01*
X23595238Y-25452381D01*
X23547619Y-25476190D01*
X23428572Y-25476190D01*
X23380953Y-25452381D01*
X23357143Y-25428571D01*
X24976190Y-33833333D02*
X24738095Y-34000000D01*
X24976190Y-34119047D02*
X24476190Y-34119047D01*
X24476190Y-33928571D01*
X24500000Y-33880952D01*
X24523810Y-33857143D01*
X24571429Y-33833333D01*
X24642857Y-33833333D01*
X24690476Y-33857143D01*
X24714286Y-33880952D01*
X24738095Y-33928571D01*
X24738095Y-34119047D01*
X24476190Y-33404762D02*
X24476190Y-33500000D01*
X24500000Y-33547619D01*
X24523810Y-33571428D01*
X24595238Y-33619047D01*
X24690476Y-33642857D01*
X24880952Y-33642857D01*
X24928571Y-33619047D01*
X24952381Y-33595238D01*
X24976190Y-33547619D01*
X24976190Y-33452381D01*
X24952381Y-33404762D01*
X24928571Y-33380952D01*
X24880952Y-33357143D01*
X24761905Y-33357143D01*
X24714286Y-33380952D01*
X24690476Y-33404762D01*
X24666667Y-33452381D01*
X24666667Y-33547619D01*
X24690476Y-33595238D01*
X24714286Y-33619047D01*
X24761905Y-33642857D01*
X19666667Y-25726190D02*
X19500000Y-25488095D01*
X19380953Y-25726190D02*
X19380953Y-25226190D01*
X19571429Y-25226190D01*
X19619048Y-25250000D01*
X19642857Y-25273810D01*
X19666667Y-25321429D01*
X19666667Y-25392857D01*
X19642857Y-25440476D01*
X19619048Y-25464286D01*
X19571429Y-25488095D01*
X19380953Y-25488095D01*
X19833334Y-25226190D02*
X20166667Y-25226190D01*
X19952381Y-25726190D01*
X22416667Y-29976190D02*
X22250000Y-29738095D01*
X22130953Y-29976190D02*
X22130953Y-29476190D01*
X22321429Y-29476190D01*
X22369048Y-29500000D01*
X22392857Y-29523810D01*
X22416667Y-29571429D01*
X22416667Y-29642857D01*
X22392857Y-29690476D01*
X22369048Y-29714286D01*
X22321429Y-29738095D01*
X22130953Y-29738095D01*
X22702381Y-29690476D02*
X22654762Y-29666667D01*
X22630953Y-29642857D01*
X22607143Y-29595238D01*
X22607143Y-29571429D01*
X22630953Y-29523810D01*
X22654762Y-29500000D01*
X22702381Y-29476190D01*
X22797619Y-29476190D01*
X22845238Y-29500000D01*
X22869048Y-29523810D01*
X22892857Y-29571429D01*
X22892857Y-29595238D01*
X22869048Y-29642857D01*
X22845238Y-29666667D01*
X22797619Y-29690476D01*
X22702381Y-29690476D01*
X22654762Y-29714286D01*
X22630953Y-29738095D01*
X22607143Y-29785714D01*
X22607143Y-29880952D01*
X22630953Y-29928571D01*
X22654762Y-29952381D01*
X22702381Y-29976190D01*
X22797619Y-29976190D01*
X22845238Y-29952381D01*
X22869048Y-29928571D01*
X22892857Y-29880952D01*
X22892857Y-29785714D01*
X22869048Y-29738095D01*
X22845238Y-29714286D01*
X22797619Y-29690476D01*
X19916667Y-29976190D02*
X19750000Y-29738095D01*
X19630953Y-29976190D02*
X19630953Y-29476190D01*
X19821429Y-29476190D01*
X19869048Y-29500000D01*
X19892857Y-29523810D01*
X19916667Y-29571429D01*
X19916667Y-29642857D01*
X19892857Y-29690476D01*
X19869048Y-29714286D01*
X19821429Y-29738095D01*
X19630953Y-29738095D01*
X20154762Y-29976190D02*
X20250000Y-29976190D01*
X20297619Y-29952381D01*
X20321429Y-29928571D01*
X20369048Y-29857143D01*
X20392857Y-29761905D01*
X20392857Y-29571429D01*
X20369048Y-29523810D01*
X20345238Y-29500000D01*
X20297619Y-29476190D01*
X20202381Y-29476190D01*
X20154762Y-29500000D01*
X20130953Y-29523810D01*
X20107143Y-29571429D01*
X20107143Y-29690476D01*
X20130953Y-29738095D01*
X20154762Y-29761905D01*
X20202381Y-29785714D01*
X20297619Y-29785714D01*
X20345238Y-29761905D01*
X20369048Y-29738095D01*
X20392857Y-29690476D01*
D10*
X44607143Y-8702381D02*
X44273809Y-8226190D01*
X44035714Y-8702381D02*
X44035714Y-7702381D01*
X44416667Y-7702381D01*
X44511905Y-7750000D01*
X44559524Y-7797619D01*
X44607143Y-7892857D01*
X44607143Y-8035714D01*
X44559524Y-8130952D01*
X44511905Y-8178571D01*
X44416667Y-8226190D01*
X44035714Y-8226190D01*
X45559524Y-8702381D02*
X44988095Y-8702381D01*
X45273809Y-8702381D02*
X45273809Y-7702381D01*
X45178571Y-7845238D01*
X45083333Y-7940476D01*
X44988095Y-7988095D01*
X45892857Y-7702381D02*
X46559524Y-7702381D01*
X46130952Y-8702381D01*
X6952381Y-9642857D02*
X6476190Y-9976191D01*
X6952381Y-10214286D02*
X5952381Y-10214286D01*
X5952381Y-9833333D01*
X6000000Y-9738095D01*
X6047619Y-9690476D01*
X6142857Y-9642857D01*
X6285714Y-9642857D01*
X6380952Y-9690476D01*
X6428571Y-9738095D01*
X6476190Y-9833333D01*
X6476190Y-10214286D01*
X6952381Y-8690476D02*
X6952381Y-9261905D01*
X6952381Y-8976191D02*
X5952381Y-8976191D01*
X6095238Y-9071429D01*
X6190476Y-9166667D01*
X6238095Y-9261905D01*
X6952381Y-8214286D02*
X6952381Y-8023810D01*
X6904762Y-7928571D01*
X6857143Y-7880952D01*
X6714286Y-7785714D01*
X6523810Y-7738095D01*
X6142857Y-7738095D01*
X6047619Y-7785714D01*
X6000000Y-7833333D01*
X5952381Y-7928571D01*
X5952381Y-8119048D01*
X6000000Y-8214286D01*
X6047619Y-8261905D01*
X6142857Y-8309524D01*
X6380952Y-8309524D01*
X6476190Y-8261905D01*
X6523810Y-8214286D01*
X6571429Y-8119048D01*
X6571429Y-7928571D01*
X6523810Y-7833333D01*
X6476190Y-7785714D01*
X6380952Y-7738095D01*
%LPC*%
D13*
X29325000Y-8140000D03*
X35415000Y-8140000D03*
X31355000Y-8140000D03*
X33385000Y-8140000D03*
X30345000Y-9920000D03*
X32375000Y-9920000D03*
X34405000Y-9920000D03*
X36435000Y-9920000D03*
D14*
X10775000Y-5600000D03*
D15*
X41000000Y-9030000D03*
D13*
X20685000Y-9920000D03*
X18655000Y-9920000D03*
X16625000Y-9920000D03*
X14595000Y-9920000D03*
X17635000Y-8140000D03*
X15605000Y-8140000D03*
X19665000Y-8140000D03*
X13575000Y-8140000D03*
D14*
X39225000Y-5600000D03*
D15*
X9000000Y-9030000D03*
D16*
X13750000Y-25425000D03*
X16750000Y-25425000D03*
D17*
X14750000Y-23150000D03*
X16750000Y-23150000D03*
D18*
X21250000Y-19750000D03*
X21250000Y-17750000D03*
D19*
X24000000Y-22000000D03*
X24000000Y-19000000D03*
D17*
X25800000Y-17100000D03*
X27800000Y-17100000D03*
D18*
X47350000Y-20150000D03*
X47350000Y-22150000D03*
D17*
X31700000Y-17700000D03*
X29700000Y-17700000D03*
X31500000Y-29250000D03*
X29500000Y-29250000D03*
X44450000Y-30850000D03*
X46450000Y-30850000D03*
D20*
X27600000Y-27150000D03*
X29100000Y-27150000D03*
X29150000Y-20400000D03*
X27650000Y-20400000D03*
D21*
X48000000Y-14000000D03*
D22*
X46730000Y-14000000D03*
X45460000Y-14000000D03*
X44190000Y-14000000D03*
X42920000Y-14000000D03*
X46730000Y-15270000D03*
X45460000Y-15270000D03*
X44190000Y-15270000D03*
X42920000Y-15270000D03*
X48000000Y-15270000D03*
D23*
X46000000Y-4000000D03*
X46000000Y-36000000D03*
X4000000Y-4000000D03*
X4000000Y-46000000D03*
D24*
X5250000Y-24975000D03*
X5250000Y-22875000D03*
D25*
X4325000Y-10025000D03*
X3675000Y-10025000D03*
X3025000Y-10025000D03*
X2375000Y-10025000D03*
X2375000Y-13510000D03*
X3025000Y-13510000D03*
X3675000Y-13510000D03*
X4325000Y-13510000D03*
D26*
X3350000Y-11375000D03*
D25*
X4225000Y-17575000D03*
X3575000Y-17575000D03*
X2925000Y-17575000D03*
X2275000Y-17575000D03*
X2275000Y-21060000D03*
X2925000Y-21060000D03*
X3575000Y-21060000D03*
X4225000Y-21060000D03*
D26*
X3250000Y-18925000D03*
D27*
X33750000Y-21675000D03*
X33750000Y-22175000D03*
X33750000Y-22675000D03*
X33750000Y-23175000D03*
X33750000Y-23675000D03*
X33750000Y-24175000D03*
X33750000Y-24675000D03*
X33750000Y-25175000D03*
X33750000Y-25675000D03*
X33750000Y-26175000D03*
X33750000Y-26675000D03*
X33750000Y-27175000D03*
D28*
X35350000Y-28775000D03*
X35850000Y-28775000D03*
X36350000Y-28775000D03*
X36850000Y-28775000D03*
X37350000Y-28775000D03*
X37850000Y-28775000D03*
X38350000Y-28775000D03*
X38850000Y-28775000D03*
X39350000Y-28775000D03*
X39850000Y-28775000D03*
X40350000Y-28775000D03*
X40850000Y-28775000D03*
D27*
X42450000Y-27175000D03*
X42450000Y-26675000D03*
X42450000Y-26175000D03*
X42450000Y-25675000D03*
X42450000Y-25175000D03*
X42450000Y-24675000D03*
X42450000Y-24175000D03*
X42450000Y-23675000D03*
X42450000Y-23175000D03*
X42450000Y-22675000D03*
X42450000Y-22175000D03*
X42450000Y-21675000D03*
D28*
X40850000Y-20075000D03*
X40350000Y-20075000D03*
X39850000Y-20075000D03*
X39350000Y-20075000D03*
X38850000Y-20075000D03*
X38350000Y-20075000D03*
X37850000Y-20075000D03*
X37350000Y-20075000D03*
X36850000Y-20075000D03*
X36350000Y-20075000D03*
X35850000Y-20075000D03*
X35350000Y-20075000D03*
D29*
X14720000Y-17425000D03*
X14720000Y-18075000D03*
X14720000Y-18725000D03*
X14720000Y-19375000D03*
X14720000Y-20025000D03*
X14720000Y-20675000D03*
X18930000Y-20675000D03*
X18930000Y-20025000D03*
X18930000Y-19375000D03*
X18930000Y-18725000D03*
X18930000Y-18075000D03*
X18930000Y-17425000D03*
D30*
X17237500Y-20118750D03*
X17237500Y-19406250D03*
X17237500Y-18693750D03*
X17237500Y-17981250D03*
X16412500Y-20118750D03*
X16412500Y-19406250D03*
X16412500Y-18693750D03*
X16412500Y-17981250D03*
D31*
X3000000Y-40230000D03*
X3650000Y-40230000D03*
X4300000Y-40230000D03*
X4300000Y-37570000D03*
X3000000Y-37570000D03*
D32*
X19000000Y-31500000D03*
X17000000Y-31500000D03*
X15000000Y-31500000D03*
X13000000Y-31500000D03*
X18500000Y-33000000D03*
X16000000Y-33000000D03*
X14000000Y-33000000D03*
X11000000Y-31500000D03*
X11500000Y-33000000D03*
X19000000Y-34700000D03*
X17000000Y-34700000D03*
X15000000Y-34700000D03*
X13000000Y-34700000D03*
X11000000Y-34700000D03*
X18500000Y-36200000D03*
X16000000Y-36200000D03*
X14000000Y-36200000D03*
D33*
X21570000Y-32520000D03*
X8430000Y-32520000D03*
X8430000Y-38200000D03*
D32*
X11500000Y-36200000D03*
D33*
X21570000Y-38200000D03*
D34*
X41000000Y-47200000D03*
X38500000Y-47200000D03*
X38500000Y-42200000D03*
X41000000Y-42200000D03*
X48500000Y-42200000D03*
X48500000Y-47200000D03*
X46000000Y-47200000D03*
X46000000Y-42200000D03*
X43500000Y-47200000D03*
X43500000Y-42200000D03*
X28000000Y-47200000D03*
X25500000Y-47200000D03*
X25500000Y-42200000D03*
X28000000Y-42200000D03*
X35500000Y-42200000D03*
X35500000Y-47200000D03*
X33000000Y-47200000D03*
X33000000Y-42200000D03*
X30500000Y-47200000D03*
X30500000Y-42200000D03*
D35*
X36100000Y-31890000D03*
X36100000Y-33410000D03*
X35300000Y-31890000D03*
X35300000Y-33410000D03*
X36900000Y-31890000D03*
X34500000Y-31890000D03*
X34500000Y-33410000D03*
X36900000Y-33410000D03*
X33700000Y-31890000D03*
X32900000Y-31890000D03*
X38500000Y-31890000D03*
X37700000Y-31890000D03*
X37700000Y-33410000D03*
X38500000Y-33410000D03*
X32900000Y-33410000D03*
X33700000Y-33410000D03*
D36*
X45050000Y-20650000D03*
X45050000Y-22150000D03*
D20*
X32400000Y-19550000D03*
X30900000Y-19550000D03*
X41850000Y-31650000D03*
X40350000Y-31650000D03*
D36*
X31500000Y-27000000D03*
X31500000Y-25500000D03*
D20*
X34150000Y-17700000D03*
X35650000Y-17700000D03*
D10*
G36*
X48078338Y-24798008D02*
X47548008Y-25328338D01*
X46982322Y-24762652D01*
X47512652Y-24232322D01*
X48078338Y-24798008D01*
X48078338Y-24798008D01*
G37*
G36*
X47017678Y-23737348D02*
X46487348Y-24267678D01*
X45921662Y-23701992D01*
X46451992Y-23171662D01*
X47017678Y-23737348D01*
X47017678Y-23737348D01*
G37*
D37*
X29400000Y-25050000D03*
X29400000Y-22550000D03*
X27300000Y-22550000D03*
X27300000Y-25050000D03*
D38*
X9825000Y-24075000D03*
X9825000Y-18675000D03*
D36*
X1450000Y-39000000D03*
X1450000Y-37500000D03*
X1880000Y-32250000D03*
X1880000Y-33750000D03*
D39*
X27770000Y-35900000D03*
X27770000Y-36550000D03*
X27770000Y-37200000D03*
X30430000Y-37200000D03*
X30430000Y-35900000D03*
D36*
X33200000Y-37500000D03*
X33200000Y-36000000D03*
D40*
X13700000Y-27775000D03*
X13700000Y-28225000D03*
D41*
X14600000Y-28000000D03*
D31*
X3280000Y-33970000D03*
X3930000Y-33970000D03*
X4580000Y-33970000D03*
X4580000Y-31310000D03*
X3280000Y-31310000D03*
D42*
X26450000Y-32400000D03*
X26450000Y-30500000D03*
X24250000Y-26425000D03*
X22350000Y-26425000D03*
X24900000Y-31700000D03*
X24900000Y-29800000D03*
X21000000Y-26550000D03*
X19100000Y-26550000D03*
X24200000Y-28500000D03*
X22300000Y-28500000D03*
X21000000Y-28500000D03*
X19100000Y-28500000D03*
X46175000Y-10400000D03*
X44275000Y-10400000D03*
X6675000Y-11475000D03*
X6675000Y-13375000D03*
D43*
X24500000Y-9500000D03*
X35500000Y-4750000D03*
X28750000Y-5250000D03*
X48100000Y-18200000D03*
D44*
X37300000Y-26150000D03*
X36000000Y-25350000D03*
D43*
X3500000Y-26100000D03*
X36300000Y-22400000D03*
X38000000Y-22600000D03*
X20250000Y-1250000D03*
X20250000Y-3250000D03*
X20250000Y-5000000D03*
X23000000Y-5000000D03*
X40600000Y-16800000D03*
X3750000Y-27650000D03*
X37000000Y-1250000D03*
X32250000Y-3000000D03*
X29500000Y-1250000D03*
X2000000Y-34750000D03*
X5500000Y-35000000D03*
D44*
X31250000Y-25000000D03*
D43*
X48500000Y-26000000D03*
X47500000Y-30750000D03*
D44*
X21500000Y-24600000D03*
D43*
X37200000Y-17200000D03*
X47400000Y-10400000D03*
X33650000Y-20250000D03*
X21800000Y-22900000D03*
X20750000Y-14500000D03*
X12000000Y-14500000D03*
X20750000Y-16000000D03*
X9500000Y-16000000D03*
X8250000Y-11500000D03*
X11750000Y-16000000D03*
X24000000Y-32500000D03*
X29550000Y-39050000D03*
X32900000Y-38800000D03*
X19000000Y-47000000D03*
X28700000Y-30400000D03*
X31000000Y-31200000D03*
X40150000Y-13850000D03*
X31000000Y-20500000D03*
D44*
X29100000Y-19650000D03*
X20250000Y-27500000D03*
D43*
X17750000Y-25250000D03*
X1450000Y-40050000D03*
X5950000Y-40050000D03*
X8600000Y-42550000D03*
X1650000Y-30450000D03*
X8700000Y-21000000D03*
X46150000Y-22150000D03*
X29000000Y-16250000D03*
X11750000Y-28500000D03*
X16000000Y-15750000D03*
X19250000Y-16250000D03*
X16750000Y-21500000D03*
X24500000Y-23250000D03*
X16412500Y-17981250D03*
X16400000Y-19000000D03*
X17250000Y-19000000D03*
X16412500Y-20118750D03*
X17237500Y-20118750D03*
X17237500Y-17981250D03*
X11475000Y-18675000D03*
X11175000Y-20925000D03*
X40800000Y-33000000D03*
D44*
X26200000Y-26900000D03*
X30100000Y-27800000D03*
X30500000Y-26550000D03*
X31050000Y-21850000D03*
X31800000Y-22950000D03*
X35750000Y-37450000D03*
X26000000Y-23750000D03*
X26500000Y-20350000D03*
D43*
X24600000Y-16500000D03*
X24000000Y-14750000D03*
X23500000Y-17750000D03*
X32700000Y-28700000D03*
X27050000Y-29250000D03*
X25800000Y-15200000D03*
X10000000Y-29750000D03*
X31000000Y-35100000D03*
X16500000Y-28500000D03*
X17950000Y-27550000D03*
X13600000Y-42350000D03*
X1450000Y-36500000D03*
X43050000Y-30850000D03*
X33000000Y-17700000D03*
X45550000Y-28850000D03*
X46050000Y-20400000D03*
X8000000Y-14475000D03*
X1250000Y-17500000D03*
X1250000Y-16250000D03*
X1250000Y-14750000D03*
D44*
X32200000Y-22100000D03*
D43*
X20600000Y-21200000D03*
D44*
X37700000Y-34100000D03*
X38500000Y-34100000D03*
X35300000Y-34100000D03*
X36100000Y-34100000D03*
X34500000Y-34100000D03*
X36900000Y-34100000D03*
X32900000Y-34100000D03*
X33700000Y-34100000D03*
X24150000Y-24650000D03*
X20750000Y-25250000D03*
X25250000Y-28500000D03*
X21750000Y-29500000D03*
X22500000Y-24500000D03*
X23250000Y-30000000D03*
D43*
X7800000Y-41350000D03*
X13350000Y-40450000D03*
D44*
X44300000Y-24350000D03*
X5750000Y-33000000D03*
X8600000Y-29450000D03*
X6600000Y-30350000D03*
D45*
G36*
X4373000Y-12123000D02*
X2127000Y-12123000D01*
X2127000Y-8377000D01*
X4373000Y-8377000D01*
X4373000Y-12123000D01*
X4373000Y-12123000D01*
G37*
X4373000Y-12123000D02*
X2127000Y-12123000D01*
X2127000Y-8377000D01*
X4373000Y-8377000D01*
X4373000Y-12123000D01*
G36*
X3623000Y-15623000D02*
X2127000Y-15623000D01*
X2127000Y-12877000D01*
X3623000Y-12877000D01*
X3623000Y-15623000D01*
X3623000Y-15623000D01*
G37*
X3623000Y-15623000D02*
X2127000Y-15623000D01*
X2127000Y-12877000D01*
X3623000Y-12877000D01*
X3623000Y-15623000D01*
G36*
X4373000Y-19623000D02*
X2127000Y-19623000D01*
X2127000Y-16377000D01*
X4373000Y-16377000D01*
X4373000Y-19623000D01*
X4373000Y-19623000D01*
G37*
X4373000Y-19623000D02*
X2127000Y-19623000D01*
X2127000Y-16377000D01*
X4373000Y-16377000D01*
X4373000Y-19623000D01*
G36*
X3623000Y-22873000D02*
X1877000Y-22873000D01*
X1877000Y-20377000D01*
X3623000Y-20377000D01*
X3623000Y-22873000D01*
X3623000Y-22873000D01*
G37*
X3623000Y-22873000D02*
X1877000Y-22873000D01*
X1877000Y-20377000D01*
X3623000Y-20377000D01*
X3623000Y-22873000D01*
M02*
