G04 #@! TF.FileFunction,Copper,L2,Inr*
%FSLAX46Y46*%
G04 Gerber Fmt 4.6, Leading zero omitted, Abs format (unit mm)*
G04 Created by KiCad (PCBNEW 4.0.6-e0-6349~52~ubuntu16.10.1) date Fri May 26 15:17:48 2017*
%MOMM*%
%LPD*%
G01*
G04 APERTURE LIST*
%ADD10C,0.150000*%
%ADD11C,1.300000*%
%ADD12C,4.000000*%
%ADD13C,2.000000*%
%ADD14R,1.050000X1.050000*%
%ADD15C,1.050000*%
%ADD16C,6.000000*%
%ADD17C,0.900000*%
%ADD18C,2.600000*%
%ADD19C,1.500000*%
%ADD20C,0.889000*%
%ADD21C,0.600000*%
%ADD22C,0.400000*%
%ADD23C,0.200000*%
%ADD24C,0.254000*%
G04 APERTURE END LIST*
D10*
D11*
X29325000Y-8140000D03*
X35415000Y-8140000D03*
X31355000Y-8140000D03*
X33385000Y-8140000D03*
X30345000Y-9920000D03*
X32375000Y-9920000D03*
X34405000Y-9920000D03*
X36435000Y-9920000D03*
D12*
X10775000Y-5600000D03*
D13*
X41000000Y-9030000D03*
D11*
X20685000Y-9920000D03*
X18655000Y-9920000D03*
X16625000Y-9920000D03*
X14595000Y-9920000D03*
X17635000Y-8140000D03*
X15605000Y-8140000D03*
X19665000Y-8140000D03*
X13575000Y-8140000D03*
D12*
X39225000Y-5600000D03*
D13*
X9000000Y-9030000D03*
D14*
X48000000Y-14000000D03*
D15*
X46730000Y-14000000D03*
X45460000Y-14000000D03*
X44190000Y-14000000D03*
X42920000Y-14000000D03*
X46730000Y-15270000D03*
X45460000Y-15270000D03*
X44190000Y-15270000D03*
X42920000Y-15270000D03*
X48000000Y-15270000D03*
D16*
X46000000Y-4000000D03*
X46000000Y-36000000D03*
X4000000Y-4000000D03*
X4000000Y-46000000D03*
D17*
X19000000Y-31500000D03*
X17000000Y-31500000D03*
X15000000Y-31500000D03*
X13000000Y-31500000D03*
X18500000Y-33000000D03*
X16000000Y-33000000D03*
X14000000Y-33000000D03*
X11000000Y-31500000D03*
X11500000Y-33000000D03*
X19000000Y-34700000D03*
X17000000Y-34700000D03*
X15000000Y-34700000D03*
X13000000Y-34700000D03*
X11000000Y-34700000D03*
X18500000Y-36200000D03*
X16000000Y-36200000D03*
X14000000Y-36200000D03*
D18*
X21570000Y-32520000D03*
X8430000Y-32520000D03*
X8430000Y-38200000D03*
D17*
X11500000Y-36200000D03*
D18*
X21570000Y-38200000D03*
D19*
X41000000Y-47200000D03*
X38500000Y-47200000D03*
X38500000Y-42200000D03*
X41000000Y-42200000D03*
X48500000Y-42200000D03*
X48500000Y-47200000D03*
X46000000Y-47200000D03*
X46000000Y-42200000D03*
X43500000Y-47200000D03*
X43500000Y-42200000D03*
X28000000Y-47200000D03*
X25500000Y-47200000D03*
X25500000Y-42200000D03*
X28000000Y-42200000D03*
X35500000Y-42200000D03*
X35500000Y-47200000D03*
X33000000Y-47200000D03*
X33000000Y-42200000D03*
X30500000Y-47200000D03*
X30500000Y-42200000D03*
D20*
X24500000Y-9500000D03*
X35500000Y-4750000D03*
X28750000Y-5250000D03*
X48100000Y-18200000D03*
D21*
X37300000Y-26150000D03*
X36000000Y-25350000D03*
D20*
X3500000Y-26100000D03*
X36300000Y-22400000D03*
X38000000Y-22600000D03*
X20250000Y-1250000D03*
X20250000Y-3250000D03*
X20250000Y-5000000D03*
X23000000Y-5000000D03*
X40600000Y-16800000D03*
X3750000Y-27650000D03*
X37000000Y-1250000D03*
X32250000Y-3000000D03*
X29500000Y-1250000D03*
X2000000Y-34750000D03*
X5500000Y-35000000D03*
D21*
X31250000Y-25000000D03*
D20*
X48500000Y-26000000D03*
X47500000Y-30750000D03*
D21*
X21500000Y-24600000D03*
D20*
X37200000Y-17200000D03*
X47400000Y-10400000D03*
X33650000Y-20250000D03*
X21800000Y-22900000D03*
X20750000Y-14500000D03*
X12000000Y-14500000D03*
X20750000Y-16000000D03*
X9500000Y-16000000D03*
X8250000Y-11500000D03*
X11750000Y-16000000D03*
X24000000Y-32500000D03*
X29550000Y-39050000D03*
X32900000Y-38800000D03*
X19000000Y-47000000D03*
X28700000Y-30400000D03*
X31000000Y-31200000D03*
X40150000Y-13850000D03*
X31000000Y-20500000D03*
D21*
X29100000Y-19650000D03*
X20250000Y-27500000D03*
D20*
X17750000Y-25250000D03*
X1450000Y-40050000D03*
X5950000Y-40050000D03*
X8600000Y-42550000D03*
X1650000Y-30450000D03*
X8700000Y-21000000D03*
X46150000Y-22150000D03*
X29000000Y-16250000D03*
X11750000Y-28500000D03*
X16000000Y-15750000D03*
X19250000Y-16250000D03*
X16750000Y-21500000D03*
X24500000Y-23250000D03*
X16412500Y-17981250D03*
X16400000Y-19000000D03*
X17250000Y-19000000D03*
X16412500Y-20118750D03*
X17237500Y-20118750D03*
X17237500Y-17981250D03*
X11475000Y-18675000D03*
X11175000Y-20925000D03*
X40800000Y-33000000D03*
D21*
X26200000Y-26900000D03*
X30100000Y-27800000D03*
X30500000Y-26550000D03*
X31050000Y-21850000D03*
X31800000Y-22950000D03*
X35750000Y-37450000D03*
X26000000Y-23750000D03*
X26500000Y-20350000D03*
D20*
X24600000Y-16500000D03*
X24000000Y-14750000D03*
X23500000Y-17750000D03*
X32700000Y-28700000D03*
X27050000Y-29250000D03*
X25800000Y-15200000D03*
X10000000Y-29750000D03*
X31000000Y-35100000D03*
X16500000Y-28500000D03*
X17950000Y-27550000D03*
X13600000Y-42350000D03*
X1450000Y-36500000D03*
X43050000Y-30850000D03*
X33000000Y-17700000D03*
X45550000Y-28850000D03*
X46050000Y-20400000D03*
X8000000Y-14475000D03*
X1250000Y-17500000D03*
X1250000Y-16250000D03*
X1250000Y-14750000D03*
D21*
X32200000Y-22100000D03*
D20*
X20600000Y-21200000D03*
D21*
X37700000Y-34100000D03*
X38500000Y-34100000D03*
X35300000Y-34100000D03*
X36100000Y-34100000D03*
X34500000Y-34100000D03*
X36900000Y-34100000D03*
X32900000Y-34100000D03*
X33700000Y-34100000D03*
X24150000Y-24650000D03*
X20750000Y-25250000D03*
X25250000Y-28500000D03*
X21750000Y-29500000D03*
X22500000Y-24500000D03*
X23250000Y-30000000D03*
D20*
X7800000Y-41350000D03*
X13350000Y-40450000D03*
D21*
X44300000Y-24350000D03*
X5750000Y-33000000D03*
X8600000Y-29450000D03*
X6600000Y-30350000D03*
D22*
X31250000Y-25000000D02*
X32250000Y-26000000D01*
X37000000Y-29200000D02*
X40800000Y-33000000D01*
X37000000Y-27750000D02*
X37000000Y-29200000D01*
X35250000Y-26000000D02*
X37000000Y-27750000D01*
X32250000Y-26000000D02*
X35250000Y-26000000D01*
D23*
X24500000Y-23250000D02*
X22150000Y-23250000D01*
X22150000Y-23250000D02*
X21800000Y-22900000D01*
X20750000Y-16000000D02*
X20750000Y-14500000D01*
X20750000Y-14500000D02*
X12000000Y-14500000D01*
X11750000Y-16000000D02*
X9500000Y-16000000D01*
X11000000Y-14500000D02*
X9500000Y-16000000D01*
X8250000Y-11500000D02*
X11250000Y-14500000D01*
X11250000Y-14500000D02*
X12000000Y-14500000D01*
X12000000Y-14500000D02*
X11000000Y-14500000D01*
D22*
X16412500Y-19987500D02*
X16412500Y-18981250D01*
X16431250Y-19000000D02*
X16412500Y-18981250D01*
X16431250Y-19000000D02*
X16500000Y-19000000D01*
X16412500Y-19987500D02*
X16400000Y-20000000D01*
X17237500Y-18981250D02*
X17237500Y-19987500D01*
X17237500Y-19987500D02*
X17250000Y-20000000D01*
X17250000Y-19000000D02*
X17250000Y-18993750D01*
X17250000Y-18993750D02*
X17237500Y-18981250D01*
D24*
G36*
X30023000Y-19852606D02*
X30023000Y-20800000D01*
X30033006Y-20849410D01*
X30060197Y-20889803D01*
X31023000Y-21852606D01*
X31023000Y-22500000D01*
X31033006Y-22549410D01*
X31060197Y-22589803D01*
X31410197Y-22939803D01*
X31452211Y-22967666D01*
X31500000Y-22977000D01*
X34273000Y-22977000D01*
X34273000Y-25173000D01*
X31250000Y-25173000D01*
X31200590Y-25183006D01*
X31168697Y-25202436D01*
X30868697Y-25452436D01*
X30837144Y-25491754D01*
X30823000Y-25550000D01*
X30823000Y-27297394D01*
X30097394Y-28023000D01*
X27052606Y-28023000D01*
X26027000Y-26997394D01*
X26027000Y-20552606D01*
X26902606Y-19677000D01*
X29847394Y-19677000D01*
X30023000Y-19852606D01*
X30023000Y-19852606D01*
G37*
X30023000Y-19852606D02*
X30023000Y-20800000D01*
X30033006Y-20849410D01*
X30060197Y-20889803D01*
X31023000Y-21852606D01*
X31023000Y-22500000D01*
X31033006Y-22549410D01*
X31060197Y-22589803D01*
X31410197Y-22939803D01*
X31452211Y-22967666D01*
X31500000Y-22977000D01*
X34273000Y-22977000D01*
X34273000Y-25173000D01*
X31250000Y-25173000D01*
X31200590Y-25183006D01*
X31168697Y-25202436D01*
X30868697Y-25452436D01*
X30837144Y-25491754D01*
X30823000Y-25550000D01*
X30823000Y-27297394D01*
X30097394Y-28023000D01*
X27052606Y-28023000D01*
X26027000Y-26997394D01*
X26027000Y-20552606D01*
X26902606Y-19677000D01*
X29847394Y-19677000D01*
X30023000Y-19852606D01*
G36*
X49623000Y-49623000D02*
X377000Y-49623000D01*
X377000Y-46658878D01*
X672424Y-46658878D01*
X1177862Y-47882132D01*
X2112945Y-48818849D01*
X3335315Y-49326421D01*
X4658878Y-49327576D01*
X5882132Y-48822138D01*
X6818849Y-47887055D01*
X7015573Y-47413289D01*
X24422813Y-47413289D01*
X24586431Y-47809275D01*
X24889132Y-48112504D01*
X25284832Y-48276813D01*
X25713289Y-48277187D01*
X26109275Y-48113569D01*
X26412504Y-47810868D01*
X26576813Y-47415168D01*
X26576814Y-47413289D01*
X26922813Y-47413289D01*
X27086431Y-47809275D01*
X27389132Y-48112504D01*
X27784832Y-48276813D01*
X28213289Y-48277187D01*
X28609275Y-48113569D01*
X28912504Y-47810868D01*
X29076813Y-47415168D01*
X29076814Y-47413289D01*
X29422813Y-47413289D01*
X29586431Y-47809275D01*
X29889132Y-48112504D01*
X30284832Y-48276813D01*
X30713289Y-48277187D01*
X31109275Y-48113569D01*
X31412504Y-47810868D01*
X31576813Y-47415168D01*
X31576814Y-47413289D01*
X31922813Y-47413289D01*
X32086431Y-47809275D01*
X32389132Y-48112504D01*
X32784832Y-48276813D01*
X33213289Y-48277187D01*
X33609275Y-48113569D01*
X33912504Y-47810868D01*
X34076813Y-47415168D01*
X34076814Y-47413289D01*
X34422813Y-47413289D01*
X34586431Y-47809275D01*
X34889132Y-48112504D01*
X35284832Y-48276813D01*
X35713289Y-48277187D01*
X36109275Y-48113569D01*
X36412504Y-47810868D01*
X36576813Y-47415168D01*
X36576814Y-47413289D01*
X37422813Y-47413289D01*
X37586431Y-47809275D01*
X37889132Y-48112504D01*
X38284832Y-48276813D01*
X38713289Y-48277187D01*
X39109275Y-48113569D01*
X39412504Y-47810868D01*
X39576813Y-47415168D01*
X39576814Y-47413289D01*
X39922813Y-47413289D01*
X40086431Y-47809275D01*
X40389132Y-48112504D01*
X40784832Y-48276813D01*
X41213289Y-48277187D01*
X41609275Y-48113569D01*
X41912504Y-47810868D01*
X42076813Y-47415168D01*
X42076814Y-47413289D01*
X42422813Y-47413289D01*
X42586431Y-47809275D01*
X42889132Y-48112504D01*
X43284832Y-48276813D01*
X43713289Y-48277187D01*
X44109275Y-48113569D01*
X44412504Y-47810868D01*
X44576813Y-47415168D01*
X44576814Y-47413289D01*
X44922813Y-47413289D01*
X45086431Y-47809275D01*
X45389132Y-48112504D01*
X45784832Y-48276813D01*
X46213289Y-48277187D01*
X46609275Y-48113569D01*
X46912504Y-47810868D01*
X47076813Y-47415168D01*
X47076814Y-47413289D01*
X47422813Y-47413289D01*
X47586431Y-47809275D01*
X47889132Y-48112504D01*
X48284832Y-48276813D01*
X48713289Y-48277187D01*
X49109275Y-48113569D01*
X49412504Y-47810868D01*
X49576813Y-47415168D01*
X49577187Y-46986711D01*
X49413569Y-46590725D01*
X49110868Y-46287496D01*
X48715168Y-46123187D01*
X48286711Y-46122813D01*
X47890725Y-46286431D01*
X47587496Y-46589132D01*
X47423187Y-46984832D01*
X47422813Y-47413289D01*
X47076814Y-47413289D01*
X47077187Y-46986711D01*
X46913569Y-46590725D01*
X46610868Y-46287496D01*
X46215168Y-46123187D01*
X45786711Y-46122813D01*
X45390725Y-46286431D01*
X45087496Y-46589132D01*
X44923187Y-46984832D01*
X44922813Y-47413289D01*
X44576814Y-47413289D01*
X44577187Y-46986711D01*
X44413569Y-46590725D01*
X44110868Y-46287496D01*
X43715168Y-46123187D01*
X43286711Y-46122813D01*
X42890725Y-46286431D01*
X42587496Y-46589132D01*
X42423187Y-46984832D01*
X42422813Y-47413289D01*
X42076814Y-47413289D01*
X42077187Y-46986711D01*
X41913569Y-46590725D01*
X41610868Y-46287496D01*
X41215168Y-46123187D01*
X40786711Y-46122813D01*
X40390725Y-46286431D01*
X40087496Y-46589132D01*
X39923187Y-46984832D01*
X39922813Y-47413289D01*
X39576814Y-47413289D01*
X39577187Y-46986711D01*
X39413569Y-46590725D01*
X39110868Y-46287496D01*
X38715168Y-46123187D01*
X38286711Y-46122813D01*
X37890725Y-46286431D01*
X37587496Y-46589132D01*
X37423187Y-46984832D01*
X37422813Y-47413289D01*
X36576814Y-47413289D01*
X36577187Y-46986711D01*
X36413569Y-46590725D01*
X36110868Y-46287496D01*
X35715168Y-46123187D01*
X35286711Y-46122813D01*
X34890725Y-46286431D01*
X34587496Y-46589132D01*
X34423187Y-46984832D01*
X34422813Y-47413289D01*
X34076814Y-47413289D01*
X34077187Y-46986711D01*
X33913569Y-46590725D01*
X33610868Y-46287496D01*
X33215168Y-46123187D01*
X32786711Y-46122813D01*
X32390725Y-46286431D01*
X32087496Y-46589132D01*
X31923187Y-46984832D01*
X31922813Y-47413289D01*
X31576814Y-47413289D01*
X31577187Y-46986711D01*
X31413569Y-46590725D01*
X31110868Y-46287496D01*
X30715168Y-46123187D01*
X30286711Y-46122813D01*
X29890725Y-46286431D01*
X29587496Y-46589132D01*
X29423187Y-46984832D01*
X29422813Y-47413289D01*
X29076814Y-47413289D01*
X29077187Y-46986711D01*
X28913569Y-46590725D01*
X28610868Y-46287496D01*
X28215168Y-46123187D01*
X27786711Y-46122813D01*
X27390725Y-46286431D01*
X27087496Y-46589132D01*
X26923187Y-46984832D01*
X26922813Y-47413289D01*
X26576814Y-47413289D01*
X26577187Y-46986711D01*
X26413569Y-46590725D01*
X26110868Y-46287496D01*
X25715168Y-46123187D01*
X25286711Y-46122813D01*
X24890725Y-46286431D01*
X24587496Y-46589132D01*
X24423187Y-46984832D01*
X24422813Y-47413289D01*
X7015573Y-47413289D01*
X7326421Y-46664685D01*
X7327576Y-45341122D01*
X6822138Y-44117868D01*
X5887055Y-43181151D01*
X4664685Y-42673579D01*
X3341122Y-42672424D01*
X2117868Y-43177862D01*
X1181151Y-44112945D01*
X673579Y-45335315D01*
X672424Y-46658878D01*
X377000Y-46658878D01*
X377000Y-42502788D01*
X12828366Y-42502788D01*
X12945572Y-42786449D01*
X13162410Y-43003665D01*
X13445866Y-43121366D01*
X13752788Y-43121634D01*
X14036449Y-43004428D01*
X14253665Y-42787590D01*
X14371366Y-42504134D01*
X14371445Y-42413289D01*
X24422813Y-42413289D01*
X24586431Y-42809275D01*
X24889132Y-43112504D01*
X25284832Y-43276813D01*
X25713289Y-43277187D01*
X26109275Y-43113569D01*
X26412504Y-42810868D01*
X26576813Y-42415168D01*
X26576814Y-42413289D01*
X26922813Y-42413289D01*
X27086431Y-42809275D01*
X27389132Y-43112504D01*
X27784832Y-43276813D01*
X28213289Y-43277187D01*
X28609275Y-43113569D01*
X28912504Y-42810868D01*
X29076813Y-42415168D01*
X29076814Y-42413289D01*
X29422813Y-42413289D01*
X29586431Y-42809275D01*
X29889132Y-43112504D01*
X30284832Y-43276813D01*
X30713289Y-43277187D01*
X31109275Y-43113569D01*
X31412504Y-42810868D01*
X31576813Y-42415168D01*
X31576814Y-42413289D01*
X31922813Y-42413289D01*
X32086431Y-42809275D01*
X32389132Y-43112504D01*
X32784832Y-43276813D01*
X33213289Y-43277187D01*
X33609275Y-43113569D01*
X33912504Y-42810868D01*
X34076813Y-42415168D01*
X34076814Y-42413289D01*
X34422813Y-42413289D01*
X34586431Y-42809275D01*
X34889132Y-43112504D01*
X35284832Y-43276813D01*
X35713289Y-43277187D01*
X36109275Y-43113569D01*
X36412504Y-42810868D01*
X36576813Y-42415168D01*
X36576814Y-42413289D01*
X37422813Y-42413289D01*
X37586431Y-42809275D01*
X37889132Y-43112504D01*
X38284832Y-43276813D01*
X38713289Y-43277187D01*
X39109275Y-43113569D01*
X39412504Y-42810868D01*
X39576813Y-42415168D01*
X39576814Y-42413289D01*
X39922813Y-42413289D01*
X40086431Y-42809275D01*
X40389132Y-43112504D01*
X40784832Y-43276813D01*
X41213289Y-43277187D01*
X41609275Y-43113569D01*
X41912504Y-42810868D01*
X42076813Y-42415168D01*
X42076814Y-42413289D01*
X42422813Y-42413289D01*
X42586431Y-42809275D01*
X42889132Y-43112504D01*
X43284832Y-43276813D01*
X43713289Y-43277187D01*
X44109275Y-43113569D01*
X44412504Y-42810868D01*
X44576813Y-42415168D01*
X44576814Y-42413289D01*
X44922813Y-42413289D01*
X45086431Y-42809275D01*
X45389132Y-43112504D01*
X45784832Y-43276813D01*
X46213289Y-43277187D01*
X46609275Y-43113569D01*
X46912504Y-42810868D01*
X47076813Y-42415168D01*
X47076814Y-42413289D01*
X47422813Y-42413289D01*
X47586431Y-42809275D01*
X47889132Y-43112504D01*
X48284832Y-43276813D01*
X48713289Y-43277187D01*
X49109275Y-43113569D01*
X49412504Y-42810868D01*
X49576813Y-42415168D01*
X49577187Y-41986711D01*
X49413569Y-41590725D01*
X49110868Y-41287496D01*
X48715168Y-41123187D01*
X48286711Y-41122813D01*
X47890725Y-41286431D01*
X47587496Y-41589132D01*
X47423187Y-41984832D01*
X47422813Y-42413289D01*
X47076814Y-42413289D01*
X47077187Y-41986711D01*
X46913569Y-41590725D01*
X46610868Y-41287496D01*
X46215168Y-41123187D01*
X45786711Y-41122813D01*
X45390725Y-41286431D01*
X45087496Y-41589132D01*
X44923187Y-41984832D01*
X44922813Y-42413289D01*
X44576814Y-42413289D01*
X44577187Y-41986711D01*
X44413569Y-41590725D01*
X44110868Y-41287496D01*
X43715168Y-41123187D01*
X43286711Y-41122813D01*
X42890725Y-41286431D01*
X42587496Y-41589132D01*
X42423187Y-41984832D01*
X42422813Y-42413289D01*
X42076814Y-42413289D01*
X42077187Y-41986711D01*
X41913569Y-41590725D01*
X41610868Y-41287496D01*
X41215168Y-41123187D01*
X40786711Y-41122813D01*
X40390725Y-41286431D01*
X40087496Y-41589132D01*
X39923187Y-41984832D01*
X39922813Y-42413289D01*
X39576814Y-42413289D01*
X39577187Y-41986711D01*
X39413569Y-41590725D01*
X39110868Y-41287496D01*
X38715168Y-41123187D01*
X38286711Y-41122813D01*
X37890725Y-41286431D01*
X37587496Y-41589132D01*
X37423187Y-41984832D01*
X37422813Y-42413289D01*
X36576814Y-42413289D01*
X36577187Y-41986711D01*
X36413569Y-41590725D01*
X36110868Y-41287496D01*
X35715168Y-41123187D01*
X35286711Y-41122813D01*
X34890725Y-41286431D01*
X34587496Y-41589132D01*
X34423187Y-41984832D01*
X34422813Y-42413289D01*
X34076814Y-42413289D01*
X34077187Y-41986711D01*
X33913569Y-41590725D01*
X33610868Y-41287496D01*
X33215168Y-41123187D01*
X32786711Y-41122813D01*
X32390725Y-41286431D01*
X32087496Y-41589132D01*
X31923187Y-41984832D01*
X31922813Y-42413289D01*
X31576814Y-42413289D01*
X31577187Y-41986711D01*
X31413569Y-41590725D01*
X31110868Y-41287496D01*
X30715168Y-41123187D01*
X30286711Y-41122813D01*
X29890725Y-41286431D01*
X29587496Y-41589132D01*
X29423187Y-41984832D01*
X29422813Y-42413289D01*
X29076814Y-42413289D01*
X29077187Y-41986711D01*
X28913569Y-41590725D01*
X28610868Y-41287496D01*
X28215168Y-41123187D01*
X27786711Y-41122813D01*
X27390725Y-41286431D01*
X27087496Y-41589132D01*
X26923187Y-41984832D01*
X26922813Y-42413289D01*
X26576814Y-42413289D01*
X26577187Y-41986711D01*
X26413569Y-41590725D01*
X26110868Y-41287496D01*
X25715168Y-41123187D01*
X25286711Y-41122813D01*
X24890725Y-41286431D01*
X24587496Y-41589132D01*
X24423187Y-41984832D01*
X24422813Y-42413289D01*
X14371445Y-42413289D01*
X14371634Y-42197212D01*
X14254428Y-41913551D01*
X14037590Y-41696335D01*
X13754134Y-41578634D01*
X13447212Y-41578366D01*
X13163551Y-41695572D01*
X12946335Y-41912410D01*
X12828634Y-42195866D01*
X12828366Y-42502788D01*
X377000Y-42502788D01*
X377000Y-41502788D01*
X7028366Y-41502788D01*
X7145572Y-41786449D01*
X7362410Y-42003665D01*
X7645866Y-42121366D01*
X7952788Y-42121634D01*
X8236449Y-42004428D01*
X8453665Y-41787590D01*
X8571366Y-41504134D01*
X8571634Y-41197212D01*
X8454428Y-40913551D01*
X8237590Y-40696335D01*
X8012304Y-40602788D01*
X12578366Y-40602788D01*
X12695572Y-40886449D01*
X12912410Y-41103665D01*
X13195866Y-41221366D01*
X13502788Y-41221634D01*
X13786449Y-41104428D01*
X14003665Y-40887590D01*
X14121366Y-40604134D01*
X14121634Y-40297212D01*
X14004428Y-40013551D01*
X13787590Y-39796335D01*
X13504134Y-39678634D01*
X13197212Y-39678366D01*
X12913551Y-39795572D01*
X12696335Y-40012410D01*
X12578634Y-40295866D01*
X12578366Y-40602788D01*
X8012304Y-40602788D01*
X7954134Y-40578634D01*
X7647212Y-40578366D01*
X7363551Y-40695572D01*
X7146335Y-40912410D01*
X7028634Y-41195866D01*
X7028366Y-41502788D01*
X377000Y-41502788D01*
X377000Y-38522211D01*
X6802718Y-38522211D01*
X7049892Y-39120418D01*
X7507175Y-39578499D01*
X8104950Y-39826717D01*
X8752211Y-39827282D01*
X9350418Y-39580108D01*
X9808499Y-39122825D01*
X10056717Y-38525050D01*
X10056719Y-38522211D01*
X19942718Y-38522211D01*
X20189892Y-39120418D01*
X20647175Y-39578499D01*
X21244950Y-39826717D01*
X21892211Y-39827282D01*
X22490418Y-39580108D01*
X22948499Y-39122825D01*
X23196717Y-38525050D01*
X23197282Y-37877789D01*
X22950108Y-37279582D01*
X22492825Y-36821501D01*
X22101186Y-36658878D01*
X42672424Y-36658878D01*
X43177862Y-37882132D01*
X44112945Y-38818849D01*
X45335315Y-39326421D01*
X46658878Y-39327576D01*
X47882132Y-38822138D01*
X48818849Y-37887055D01*
X49326421Y-36664685D01*
X49327576Y-35341122D01*
X48822138Y-34117868D01*
X47887055Y-33181151D01*
X46664685Y-32673579D01*
X45341122Y-32672424D01*
X44117868Y-33177862D01*
X43181151Y-34112945D01*
X42673579Y-35335315D01*
X42672424Y-36658878D01*
X22101186Y-36658878D01*
X21895050Y-36573283D01*
X21247789Y-36572718D01*
X20649582Y-36819892D01*
X20191501Y-37277175D01*
X19943283Y-37874950D01*
X19942718Y-38522211D01*
X10056719Y-38522211D01*
X10057282Y-37877789D01*
X9810108Y-37279582D01*
X9352825Y-36821501D01*
X8755050Y-36573283D01*
X8107789Y-36572718D01*
X7509582Y-36819892D01*
X7051501Y-37277175D01*
X6803283Y-37874950D01*
X6802718Y-38522211D01*
X377000Y-38522211D01*
X377000Y-36652788D01*
X678366Y-36652788D01*
X795572Y-36936449D01*
X1012410Y-37153665D01*
X1295866Y-37271366D01*
X1602788Y-37271634D01*
X1886449Y-37154428D01*
X2103665Y-36937590D01*
X2221366Y-36654134D01*
X2221628Y-36353877D01*
X10722866Y-36353877D01*
X10840908Y-36639560D01*
X11059290Y-36858324D01*
X11344767Y-36976865D01*
X11653877Y-36977134D01*
X11939560Y-36859092D01*
X12158324Y-36640710D01*
X12276865Y-36355233D01*
X12276866Y-36353877D01*
X13222866Y-36353877D01*
X13340908Y-36639560D01*
X13559290Y-36858324D01*
X13844767Y-36976865D01*
X14153877Y-36977134D01*
X14439560Y-36859092D01*
X14658324Y-36640710D01*
X14776865Y-36355233D01*
X14776866Y-36353877D01*
X15222866Y-36353877D01*
X15340908Y-36639560D01*
X15559290Y-36858324D01*
X15844767Y-36976865D01*
X16153877Y-36977134D01*
X16439560Y-36859092D01*
X16658324Y-36640710D01*
X16776865Y-36355233D01*
X16777134Y-36046123D01*
X16659092Y-35760440D01*
X16440710Y-35541676D01*
X16155233Y-35423135D01*
X15846123Y-35422866D01*
X15560440Y-35540908D01*
X15341676Y-35759290D01*
X15223135Y-36044767D01*
X15222866Y-36353877D01*
X14776866Y-36353877D01*
X14777134Y-36046123D01*
X14659092Y-35760440D01*
X14440710Y-35541676D01*
X14155233Y-35423135D01*
X13846123Y-35422866D01*
X13560440Y-35540908D01*
X13341676Y-35759290D01*
X13223135Y-36044767D01*
X13222866Y-36353877D01*
X12276866Y-36353877D01*
X12277134Y-36046123D01*
X12159092Y-35760440D01*
X11940710Y-35541676D01*
X11655233Y-35423135D01*
X11346123Y-35422866D01*
X11060440Y-35540908D01*
X10841676Y-35759290D01*
X10723135Y-36044767D01*
X10722866Y-36353877D01*
X2221628Y-36353877D01*
X2221634Y-36347212D01*
X2104428Y-36063551D01*
X1887590Y-35846335D01*
X1604134Y-35728634D01*
X1297212Y-35728366D01*
X1013551Y-35845572D01*
X796335Y-36062410D01*
X678634Y-36345866D01*
X678366Y-36652788D01*
X377000Y-36652788D01*
X377000Y-34853877D01*
X10222866Y-34853877D01*
X10340908Y-35139560D01*
X10559290Y-35358324D01*
X10844767Y-35476865D01*
X11153877Y-35477134D01*
X11439560Y-35359092D01*
X11658324Y-35140710D01*
X11776865Y-34855233D01*
X11776866Y-34853877D01*
X12222866Y-34853877D01*
X12340908Y-35139560D01*
X12559290Y-35358324D01*
X12844767Y-35476865D01*
X13153877Y-35477134D01*
X13439560Y-35359092D01*
X13658324Y-35140710D01*
X13776865Y-34855233D01*
X13776866Y-34853877D01*
X16222866Y-34853877D01*
X16340908Y-35139560D01*
X16559290Y-35358324D01*
X16844767Y-35476865D01*
X17153877Y-35477134D01*
X17439560Y-35359092D01*
X17658324Y-35140710D01*
X17776865Y-34855233D01*
X17776866Y-34853877D01*
X18222866Y-34853877D01*
X18340908Y-35139560D01*
X18559290Y-35358324D01*
X18844767Y-35476865D01*
X19153877Y-35477134D01*
X19439560Y-35359092D01*
X19546049Y-35252788D01*
X30228366Y-35252788D01*
X30345572Y-35536449D01*
X30562410Y-35753665D01*
X30845866Y-35871366D01*
X31152788Y-35871634D01*
X31436449Y-35754428D01*
X31653665Y-35537590D01*
X31771366Y-35254134D01*
X31771634Y-34947212D01*
X31654428Y-34663551D01*
X31437590Y-34446335D01*
X31154134Y-34328634D01*
X30847212Y-34328366D01*
X30563551Y-34445572D01*
X30346335Y-34662410D01*
X30228634Y-34945866D01*
X30228366Y-35252788D01*
X19546049Y-35252788D01*
X19658324Y-35140710D01*
X19776865Y-34855233D01*
X19777134Y-34546123D01*
X19659092Y-34260440D01*
X19622887Y-34224171D01*
X32272891Y-34224171D01*
X32368145Y-34454703D01*
X32544369Y-34631235D01*
X32774735Y-34726891D01*
X33024171Y-34727109D01*
X33254703Y-34631855D01*
X33299924Y-34586713D01*
X33344369Y-34631235D01*
X33574735Y-34726891D01*
X33824171Y-34727109D01*
X34054703Y-34631855D01*
X34099924Y-34586713D01*
X34144369Y-34631235D01*
X34374735Y-34726891D01*
X34624171Y-34727109D01*
X34854703Y-34631855D01*
X34899924Y-34586713D01*
X34944369Y-34631235D01*
X35174735Y-34726891D01*
X35424171Y-34727109D01*
X35654703Y-34631855D01*
X35699924Y-34586713D01*
X35744369Y-34631235D01*
X35974735Y-34726891D01*
X36224171Y-34727109D01*
X36454703Y-34631855D01*
X36499924Y-34586713D01*
X36544369Y-34631235D01*
X36774735Y-34726891D01*
X37024171Y-34727109D01*
X37254703Y-34631855D01*
X37299924Y-34586713D01*
X37344369Y-34631235D01*
X37574735Y-34726891D01*
X37824171Y-34727109D01*
X38054703Y-34631855D01*
X38099924Y-34586713D01*
X38144369Y-34631235D01*
X38374735Y-34726891D01*
X38624171Y-34727109D01*
X38854703Y-34631855D01*
X39031235Y-34455631D01*
X39126891Y-34225265D01*
X39127109Y-33975829D01*
X39031855Y-33745297D01*
X38855631Y-33568765D01*
X38625265Y-33473109D01*
X38375829Y-33472891D01*
X38145297Y-33568145D01*
X38100076Y-33613287D01*
X38055631Y-33568765D01*
X37825265Y-33473109D01*
X37575829Y-33472891D01*
X37345297Y-33568145D01*
X37300076Y-33613287D01*
X37255631Y-33568765D01*
X37025265Y-33473109D01*
X36775829Y-33472891D01*
X36545297Y-33568145D01*
X36500076Y-33613287D01*
X36455631Y-33568765D01*
X36225265Y-33473109D01*
X35975829Y-33472891D01*
X35745297Y-33568145D01*
X35700076Y-33613287D01*
X35655631Y-33568765D01*
X35425265Y-33473109D01*
X35175829Y-33472891D01*
X34945297Y-33568145D01*
X34900076Y-33613287D01*
X34855631Y-33568765D01*
X34625265Y-33473109D01*
X34375829Y-33472891D01*
X34145297Y-33568145D01*
X34100076Y-33613287D01*
X34055631Y-33568765D01*
X33825265Y-33473109D01*
X33575829Y-33472891D01*
X33345297Y-33568145D01*
X33300076Y-33613287D01*
X33255631Y-33568765D01*
X33025265Y-33473109D01*
X32775829Y-33472891D01*
X32545297Y-33568145D01*
X32368765Y-33744369D01*
X32273109Y-33974735D01*
X32272891Y-34224171D01*
X19622887Y-34224171D01*
X19440710Y-34041676D01*
X19155233Y-33923135D01*
X18846123Y-33922866D01*
X18560440Y-34040908D01*
X18341676Y-34259290D01*
X18223135Y-34544767D01*
X18222866Y-34853877D01*
X17776866Y-34853877D01*
X17777134Y-34546123D01*
X17659092Y-34260440D01*
X17440710Y-34041676D01*
X17155233Y-33923135D01*
X16846123Y-33922866D01*
X16560440Y-34040908D01*
X16341676Y-34259290D01*
X16223135Y-34544767D01*
X16222866Y-34853877D01*
X13776866Y-34853877D01*
X13777134Y-34546123D01*
X13659092Y-34260440D01*
X13440710Y-34041676D01*
X13155233Y-33923135D01*
X12846123Y-33922866D01*
X12560440Y-34040908D01*
X12341676Y-34259290D01*
X12223135Y-34544767D01*
X12222866Y-34853877D01*
X11776866Y-34853877D01*
X11777134Y-34546123D01*
X11659092Y-34260440D01*
X11440710Y-34041676D01*
X11155233Y-33923135D01*
X10846123Y-33922866D01*
X10560440Y-34040908D01*
X10341676Y-34259290D01*
X10223135Y-34544767D01*
X10222866Y-34853877D01*
X377000Y-34853877D01*
X377000Y-33124171D01*
X5122891Y-33124171D01*
X5218145Y-33354703D01*
X5394369Y-33531235D01*
X5624735Y-33626891D01*
X5874171Y-33627109D01*
X6104703Y-33531855D01*
X6281235Y-33355631D01*
X6376891Y-33125265D01*
X6377109Y-32875829D01*
X6363219Y-32842211D01*
X6802718Y-32842211D01*
X7049892Y-33440418D01*
X7507175Y-33898499D01*
X8104950Y-34146717D01*
X8752211Y-34147282D01*
X9350418Y-33900108D01*
X9808499Y-33442825D01*
X9928480Y-33153877D01*
X10722866Y-33153877D01*
X10840908Y-33439560D01*
X11059290Y-33658324D01*
X11344767Y-33776865D01*
X11653877Y-33777134D01*
X11939560Y-33659092D01*
X12158324Y-33440710D01*
X12276865Y-33155233D01*
X12276866Y-33153877D01*
X13222866Y-33153877D01*
X13340908Y-33439560D01*
X13559290Y-33658324D01*
X13844767Y-33776865D01*
X14153877Y-33777134D01*
X14439560Y-33659092D01*
X14658324Y-33440710D01*
X14776865Y-33155233D01*
X14776866Y-33153877D01*
X15222866Y-33153877D01*
X15340908Y-33439560D01*
X15559290Y-33658324D01*
X15844767Y-33776865D01*
X16153877Y-33777134D01*
X16439560Y-33659092D01*
X16658324Y-33440710D01*
X16776865Y-33155233D01*
X16777134Y-32846123D01*
X16775518Y-32842211D01*
X19942718Y-32842211D01*
X20189892Y-33440418D01*
X20647175Y-33898499D01*
X21244950Y-34146717D01*
X21892211Y-34147282D01*
X22490418Y-33900108D01*
X22948499Y-33442825D01*
X23196717Y-32845050D01*
X23197282Y-32197789D01*
X22950108Y-31599582D01*
X22492825Y-31141501D01*
X22158768Y-31002788D01*
X42278366Y-31002788D01*
X42395572Y-31286449D01*
X42612410Y-31503665D01*
X42895866Y-31621366D01*
X43202788Y-31621634D01*
X43486449Y-31504428D01*
X43703665Y-31287590D01*
X43821366Y-31004134D01*
X43821634Y-30697212D01*
X43704428Y-30413551D01*
X43487590Y-30196335D01*
X43204134Y-30078634D01*
X42897212Y-30078366D01*
X42613551Y-30195572D01*
X42396335Y-30412410D01*
X42278634Y-30695866D01*
X42278366Y-31002788D01*
X22158768Y-31002788D01*
X21895050Y-30893283D01*
X21247789Y-30892718D01*
X20649582Y-31139892D01*
X20191501Y-31597175D01*
X19943283Y-32194950D01*
X19942718Y-32842211D01*
X16775518Y-32842211D01*
X16659092Y-32560440D01*
X16440710Y-32341676D01*
X16155233Y-32223135D01*
X15846123Y-32222866D01*
X15560440Y-32340908D01*
X15341676Y-32559290D01*
X15223135Y-32844767D01*
X15222866Y-33153877D01*
X14776866Y-33153877D01*
X14777134Y-32846123D01*
X14659092Y-32560440D01*
X14440710Y-32341676D01*
X14155233Y-32223135D01*
X13846123Y-32222866D01*
X13560440Y-32340908D01*
X13341676Y-32559290D01*
X13223135Y-32844767D01*
X13222866Y-33153877D01*
X12276866Y-33153877D01*
X12277134Y-32846123D01*
X12159092Y-32560440D01*
X11940710Y-32341676D01*
X11655233Y-32223135D01*
X11346123Y-32222866D01*
X11060440Y-32340908D01*
X10841676Y-32559290D01*
X10723135Y-32844767D01*
X10722866Y-33153877D01*
X9928480Y-33153877D01*
X10056717Y-32845050D01*
X10057282Y-32197789D01*
X9832543Y-31653877D01*
X10222866Y-31653877D01*
X10340908Y-31939560D01*
X10559290Y-32158324D01*
X10844767Y-32276865D01*
X11153877Y-32277134D01*
X11439560Y-32159092D01*
X11658324Y-31940710D01*
X11776865Y-31655233D01*
X11776866Y-31653877D01*
X12222866Y-31653877D01*
X12340908Y-31939560D01*
X12559290Y-32158324D01*
X12844767Y-32276865D01*
X13153877Y-32277134D01*
X13439560Y-32159092D01*
X13658324Y-31940710D01*
X13776865Y-31655233D01*
X13776866Y-31653877D01*
X16222866Y-31653877D01*
X16340908Y-31939560D01*
X16559290Y-32158324D01*
X16844767Y-32276865D01*
X17153877Y-32277134D01*
X17439560Y-32159092D01*
X17658324Y-31940710D01*
X17776865Y-31655233D01*
X17776866Y-31653877D01*
X18222866Y-31653877D01*
X18340908Y-31939560D01*
X18559290Y-32158324D01*
X18844767Y-32276865D01*
X19153877Y-32277134D01*
X19439560Y-32159092D01*
X19658324Y-31940710D01*
X19776865Y-31655233D01*
X19777134Y-31346123D01*
X19659092Y-31060440D01*
X19440710Y-30841676D01*
X19155233Y-30723135D01*
X18846123Y-30722866D01*
X18560440Y-30840908D01*
X18341676Y-31059290D01*
X18223135Y-31344767D01*
X18222866Y-31653877D01*
X17776866Y-31653877D01*
X17777134Y-31346123D01*
X17659092Y-31060440D01*
X17440710Y-30841676D01*
X17155233Y-30723135D01*
X16846123Y-30722866D01*
X16560440Y-30840908D01*
X16341676Y-31059290D01*
X16223135Y-31344767D01*
X16222866Y-31653877D01*
X13776866Y-31653877D01*
X13777134Y-31346123D01*
X13659092Y-31060440D01*
X13440710Y-30841676D01*
X13155233Y-30723135D01*
X12846123Y-30722866D01*
X12560440Y-30840908D01*
X12341676Y-31059290D01*
X12223135Y-31344767D01*
X12222866Y-31653877D01*
X11776866Y-31653877D01*
X11777134Y-31346123D01*
X11659092Y-31060440D01*
X11440710Y-30841676D01*
X11155233Y-30723135D01*
X10846123Y-30722866D01*
X10560440Y-30840908D01*
X10341676Y-31059290D01*
X10223135Y-31344767D01*
X10222866Y-31653877D01*
X9832543Y-31653877D01*
X9810108Y-31599582D01*
X9352825Y-31141501D01*
X8755050Y-30893283D01*
X8107789Y-30892718D01*
X7509582Y-31139892D01*
X7051501Y-31597175D01*
X6803283Y-32194950D01*
X6802718Y-32842211D01*
X6363219Y-32842211D01*
X6281855Y-32645297D01*
X6105631Y-32468765D01*
X5875265Y-32373109D01*
X5625829Y-32372891D01*
X5395297Y-32468145D01*
X5218765Y-32644369D01*
X5123109Y-32874735D01*
X5122891Y-33124171D01*
X377000Y-33124171D01*
X377000Y-30474171D01*
X5972891Y-30474171D01*
X6068145Y-30704703D01*
X6244369Y-30881235D01*
X6474735Y-30976891D01*
X6724171Y-30977109D01*
X6954703Y-30881855D01*
X7131235Y-30705631D01*
X7226891Y-30475265D01*
X7227109Y-30225829D01*
X7131855Y-29995297D01*
X6955631Y-29818765D01*
X6725265Y-29723109D01*
X6475829Y-29722891D01*
X6245297Y-29818145D01*
X6068765Y-29994369D01*
X5973109Y-30224735D01*
X5972891Y-30474171D01*
X377000Y-30474171D01*
X377000Y-29574171D01*
X7972891Y-29574171D01*
X8068145Y-29804703D01*
X8244369Y-29981235D01*
X8474735Y-30076891D01*
X8724171Y-30077109D01*
X8954703Y-29981855D01*
X9033908Y-29902788D01*
X9228366Y-29902788D01*
X9345572Y-30186449D01*
X9562410Y-30403665D01*
X9845866Y-30521366D01*
X10152788Y-30521634D01*
X10436449Y-30404428D01*
X10653665Y-30187590D01*
X10771366Y-29904134D01*
X10771610Y-29624171D01*
X21122891Y-29624171D01*
X21218145Y-29854703D01*
X21394369Y-30031235D01*
X21624735Y-30126891D01*
X21874171Y-30127109D01*
X21881281Y-30124171D01*
X22622891Y-30124171D01*
X22718145Y-30354703D01*
X22894369Y-30531235D01*
X23124735Y-30626891D01*
X23374171Y-30627109D01*
X23604703Y-30531855D01*
X23781235Y-30355631D01*
X23876891Y-30125265D01*
X23877109Y-29875829D01*
X23781855Y-29645297D01*
X23605631Y-29468765D01*
X23375265Y-29373109D01*
X23125829Y-29372891D01*
X22895297Y-29468145D01*
X22718765Y-29644369D01*
X22623109Y-29874735D01*
X22622891Y-30124171D01*
X21881281Y-30124171D01*
X22104703Y-30031855D01*
X22281235Y-29855631D01*
X22376891Y-29625265D01*
X22377109Y-29375829D01*
X22281855Y-29145297D01*
X22105631Y-28968765D01*
X21875265Y-28873109D01*
X21625829Y-28872891D01*
X21395297Y-28968145D01*
X21218765Y-29144369D01*
X21123109Y-29374735D01*
X21122891Y-29624171D01*
X10771610Y-29624171D01*
X10771634Y-29597212D01*
X10654428Y-29313551D01*
X10437590Y-29096335D01*
X10154134Y-28978634D01*
X9847212Y-28978366D01*
X9563551Y-29095572D01*
X9346335Y-29312410D01*
X9228634Y-29595866D01*
X9228366Y-29902788D01*
X9033908Y-29902788D01*
X9131235Y-29805631D01*
X9226891Y-29575265D01*
X9227109Y-29325829D01*
X9131855Y-29095297D01*
X8955631Y-28918765D01*
X8725265Y-28823109D01*
X8475829Y-28822891D01*
X8245297Y-28918145D01*
X8068765Y-29094369D01*
X7973109Y-29324735D01*
X7972891Y-29574171D01*
X377000Y-29574171D01*
X377000Y-28652788D01*
X15728366Y-28652788D01*
X15845572Y-28936449D01*
X16062410Y-29153665D01*
X16345866Y-29271366D01*
X16652788Y-29271634D01*
X16936449Y-29154428D01*
X17153665Y-28937590D01*
X17271366Y-28654134D01*
X17271392Y-28624171D01*
X24622891Y-28624171D01*
X24718145Y-28854703D01*
X24894369Y-29031235D01*
X25124735Y-29126891D01*
X25374171Y-29127109D01*
X25604703Y-29031855D01*
X25781235Y-28855631D01*
X25876891Y-28625265D01*
X25877109Y-28375829D01*
X25781855Y-28145297D01*
X25605631Y-27968765D01*
X25375265Y-27873109D01*
X25125829Y-27872891D01*
X24895297Y-27968145D01*
X24718765Y-28144369D01*
X24623109Y-28374735D01*
X24622891Y-28624171D01*
X17271392Y-28624171D01*
X17271634Y-28347212D01*
X17154428Y-28063551D01*
X16937590Y-27846335D01*
X16654134Y-27728634D01*
X16347212Y-27728366D01*
X16063551Y-27845572D01*
X15846335Y-28062410D01*
X15728634Y-28345866D01*
X15728366Y-28652788D01*
X377000Y-28652788D01*
X377000Y-27802788D01*
X2978366Y-27802788D01*
X3095572Y-28086449D01*
X3312410Y-28303665D01*
X3595866Y-28421366D01*
X3902788Y-28421634D01*
X4186449Y-28304428D01*
X4403665Y-28087590D01*
X4521366Y-27804134D01*
X4521454Y-27702788D01*
X17178366Y-27702788D01*
X17295572Y-27986449D01*
X17512410Y-28203665D01*
X17795866Y-28321366D01*
X18102788Y-28321634D01*
X18386449Y-28204428D01*
X18603665Y-27987590D01*
X18721366Y-27704134D01*
X18721634Y-27397212D01*
X18604428Y-27113551D01*
X18387590Y-26896335D01*
X18104134Y-26778634D01*
X17797212Y-26778366D01*
X17513551Y-26895572D01*
X17296335Y-27112410D01*
X17178634Y-27395866D01*
X17178366Y-27702788D01*
X4521454Y-27702788D01*
X4521634Y-27497212D01*
X4404428Y-27213551D01*
X4187590Y-26996335D01*
X3904134Y-26878634D01*
X3597212Y-26878366D01*
X3313551Y-26995572D01*
X3096335Y-27212410D01*
X2978634Y-27495866D01*
X2978366Y-27802788D01*
X377000Y-27802788D01*
X377000Y-26252788D01*
X2728366Y-26252788D01*
X2845572Y-26536449D01*
X3062410Y-26753665D01*
X3345866Y-26871366D01*
X3652788Y-26871634D01*
X3936449Y-26754428D01*
X4153665Y-26537590D01*
X4271366Y-26254134D01*
X4271634Y-25947212D01*
X4154428Y-25663551D01*
X3937590Y-25446335D01*
X3763800Y-25374171D01*
X20122891Y-25374171D01*
X20218145Y-25604703D01*
X20394369Y-25781235D01*
X20624735Y-25876891D01*
X20874171Y-25877109D01*
X21104703Y-25781855D01*
X21281235Y-25605631D01*
X21376891Y-25375265D01*
X21377109Y-25125829D01*
X21281855Y-24895297D01*
X21105631Y-24718765D01*
X20877823Y-24624171D01*
X21872891Y-24624171D01*
X21968145Y-24854703D01*
X22144369Y-25031235D01*
X22374735Y-25126891D01*
X22624171Y-25127109D01*
X22854703Y-25031855D01*
X23031235Y-24855631D01*
X23065060Y-24774171D01*
X23522891Y-24774171D01*
X23618145Y-25004703D01*
X23794369Y-25181235D01*
X24024735Y-25276891D01*
X24274171Y-25277109D01*
X24504703Y-25181855D01*
X24681235Y-25005631D01*
X24776891Y-24775265D01*
X24777109Y-24525829D01*
X24681855Y-24295297D01*
X24505631Y-24118765D01*
X24275265Y-24023109D01*
X24025829Y-24022891D01*
X23795297Y-24118145D01*
X23618765Y-24294369D01*
X23523109Y-24524735D01*
X23522891Y-24774171D01*
X23065060Y-24774171D01*
X23126891Y-24625265D01*
X23127109Y-24375829D01*
X23031855Y-24145297D01*
X22855631Y-23968765D01*
X22625265Y-23873109D01*
X22375829Y-23872891D01*
X22145297Y-23968145D01*
X21968765Y-24144369D01*
X21873109Y-24374735D01*
X21872891Y-24624171D01*
X20877823Y-24624171D01*
X20875265Y-24623109D01*
X20625829Y-24622891D01*
X20395297Y-24718145D01*
X20218765Y-24894369D01*
X20123109Y-25124735D01*
X20122891Y-25374171D01*
X3763800Y-25374171D01*
X3654134Y-25328634D01*
X3347212Y-25328366D01*
X3063551Y-25445572D01*
X2846335Y-25662410D01*
X2728634Y-25945866D01*
X2728366Y-26252788D01*
X377000Y-26252788D01*
X377000Y-21352788D01*
X19828366Y-21352788D01*
X19945572Y-21636449D01*
X20162410Y-21853665D01*
X20445866Y-21971366D01*
X20752788Y-21971634D01*
X21036449Y-21854428D01*
X21253665Y-21637590D01*
X21371366Y-21354134D01*
X21371634Y-21047212D01*
X21254428Y-20763551D01*
X21037590Y-20546335D01*
X20754134Y-20428634D01*
X20447212Y-20428366D01*
X20163551Y-20545572D01*
X19946335Y-20762410D01*
X19828634Y-21045866D01*
X19828366Y-21352788D01*
X377000Y-21352788D01*
X377000Y-20250000D01*
X25373000Y-20250000D01*
X25373000Y-27000000D01*
X25383006Y-27049410D01*
X25410197Y-27089803D01*
X26827546Y-28507152D01*
X26613551Y-28595572D01*
X26396335Y-28812410D01*
X26278634Y-29095866D01*
X26278366Y-29402788D01*
X26395572Y-29686449D01*
X26612410Y-29903665D01*
X26895866Y-30021366D01*
X27202788Y-30021634D01*
X27486449Y-29904428D01*
X27703665Y-29687590D01*
X27821366Y-29404134D01*
X27821634Y-29097212D01*
X27720641Y-28852788D01*
X31928366Y-28852788D01*
X32045572Y-29136449D01*
X32262410Y-29353665D01*
X32545866Y-29471366D01*
X32852788Y-29471634D01*
X33136449Y-29354428D01*
X33353665Y-29137590D01*
X33409639Y-29002788D01*
X44778366Y-29002788D01*
X44895572Y-29286449D01*
X45112410Y-29503665D01*
X45395866Y-29621366D01*
X45702788Y-29621634D01*
X45986449Y-29504428D01*
X46203665Y-29287590D01*
X46321366Y-29004134D01*
X46321634Y-28697212D01*
X46204428Y-28413551D01*
X45987590Y-28196335D01*
X45704134Y-28078634D01*
X45397212Y-28078366D01*
X45113551Y-28195572D01*
X44896335Y-28412410D01*
X44778634Y-28695866D01*
X44778366Y-29002788D01*
X33409639Y-29002788D01*
X33471366Y-28854134D01*
X33471634Y-28547212D01*
X33354428Y-28263551D01*
X33137590Y-28046335D01*
X32854134Y-27928634D01*
X32547212Y-27928366D01*
X32263551Y-28045572D01*
X32046335Y-28262410D01*
X31928634Y-28545866D01*
X31928366Y-28852788D01*
X27720641Y-28852788D01*
X27704428Y-28813551D01*
X27518202Y-28627000D01*
X30250000Y-28627000D01*
X30299410Y-28616994D01*
X30339803Y-28589803D01*
X31339803Y-27589803D01*
X31367666Y-27547789D01*
X31377000Y-27500000D01*
X31377000Y-26274171D01*
X36672891Y-26274171D01*
X36768145Y-26504703D01*
X36944369Y-26681235D01*
X37174735Y-26776891D01*
X37424171Y-26777109D01*
X37654703Y-26681855D01*
X37831235Y-26505631D01*
X37926891Y-26275265D01*
X37927109Y-26025829D01*
X37831855Y-25795297D01*
X37655631Y-25618765D01*
X37425265Y-25523109D01*
X37175829Y-25522891D01*
X36945297Y-25618145D01*
X36768765Y-25794369D01*
X36673109Y-26024735D01*
X36672891Y-26274171D01*
X31377000Y-26274171D01*
X31377000Y-25802606D01*
X31552606Y-25627000D01*
X34800000Y-25627000D01*
X34849410Y-25616994D01*
X34891035Y-25588553D01*
X34918315Y-25546159D01*
X34927000Y-25500000D01*
X34927000Y-25474171D01*
X35372891Y-25474171D01*
X35468145Y-25704703D01*
X35644369Y-25881235D01*
X35874735Y-25976891D01*
X36124171Y-25977109D01*
X36354703Y-25881855D01*
X36531235Y-25705631D01*
X36626891Y-25475265D01*
X36627109Y-25225829D01*
X36531855Y-24995297D01*
X36355631Y-24818765D01*
X36125265Y-24723109D01*
X35875829Y-24722891D01*
X35645297Y-24818145D01*
X35468765Y-24994369D01*
X35373109Y-25224735D01*
X35372891Y-25474171D01*
X34927000Y-25474171D01*
X34927000Y-24474171D01*
X43672891Y-24474171D01*
X43768145Y-24704703D01*
X43944369Y-24881235D01*
X44174735Y-24976891D01*
X44424171Y-24977109D01*
X44654703Y-24881855D01*
X44831235Y-24705631D01*
X44926891Y-24475265D01*
X44927109Y-24225829D01*
X44831855Y-23995297D01*
X44655631Y-23818765D01*
X44425265Y-23723109D01*
X44175829Y-23722891D01*
X43945297Y-23818145D01*
X43768765Y-23994369D01*
X43673109Y-24224735D01*
X43672891Y-24474171D01*
X34927000Y-24474171D01*
X34927000Y-22552788D01*
X35528366Y-22552788D01*
X35645572Y-22836449D01*
X35862410Y-23053665D01*
X36145866Y-23171366D01*
X36452788Y-23171634D01*
X36736449Y-23054428D01*
X36953665Y-22837590D01*
X36988877Y-22752788D01*
X37228366Y-22752788D01*
X37345572Y-23036449D01*
X37562410Y-23253665D01*
X37845866Y-23371366D01*
X38152788Y-23371634D01*
X38436449Y-23254428D01*
X38653665Y-23037590D01*
X38771366Y-22754134D01*
X38771634Y-22447212D01*
X38654428Y-22163551D01*
X38437590Y-21946335D01*
X38154134Y-21828634D01*
X37847212Y-21828366D01*
X37563551Y-21945572D01*
X37346335Y-22162410D01*
X37228634Y-22445866D01*
X37228366Y-22752788D01*
X36988877Y-22752788D01*
X37071366Y-22554134D01*
X37071634Y-22247212D01*
X36954428Y-21963551D01*
X36737590Y-21746335D01*
X36454134Y-21628634D01*
X36147212Y-21628366D01*
X35863551Y-21745572D01*
X35646335Y-21962410D01*
X35528634Y-22245866D01*
X35528366Y-22552788D01*
X34927000Y-22552788D01*
X34927000Y-22500000D01*
X34916994Y-22450590D01*
X34888553Y-22408965D01*
X34846159Y-22381685D01*
X34800000Y-22373000D01*
X32765546Y-22373000D01*
X32826891Y-22225265D01*
X32827109Y-21975829D01*
X32731855Y-21745297D01*
X32555631Y-21568765D01*
X32325265Y-21473109D01*
X32075829Y-21472891D01*
X31845297Y-21568145D01*
X31668765Y-21744369D01*
X31627000Y-21844951D01*
X31627000Y-21500000D01*
X31616994Y-21450590D01*
X31589803Y-21410197D01*
X30732394Y-20552788D01*
X45278366Y-20552788D01*
X45395572Y-20836449D01*
X45612410Y-21053665D01*
X45895866Y-21171366D01*
X46202788Y-21171634D01*
X46486449Y-21054428D01*
X46703665Y-20837590D01*
X46821366Y-20554134D01*
X46821634Y-20247212D01*
X46704428Y-19963551D01*
X46487590Y-19746335D01*
X46204134Y-19628634D01*
X45897212Y-19628366D01*
X45613551Y-19745572D01*
X45396335Y-19962410D01*
X45278634Y-20245866D01*
X45278366Y-20552788D01*
X30732394Y-20552788D01*
X30627000Y-20447394D01*
X30627000Y-19750000D01*
X30616994Y-19700590D01*
X30589803Y-19660197D01*
X30089803Y-19160197D01*
X30047789Y-19132334D01*
X30000000Y-19123000D01*
X26500000Y-19123000D01*
X26450590Y-19133006D01*
X26410197Y-19160197D01*
X25410197Y-20160197D01*
X25382334Y-20202211D01*
X25373000Y-20250000D01*
X377000Y-20250000D01*
X377000Y-14902788D01*
X478366Y-14902788D01*
X595572Y-15186449D01*
X812410Y-15403665D01*
X1044632Y-15500092D01*
X813551Y-15595572D01*
X596335Y-15812410D01*
X478634Y-16095866D01*
X478366Y-16402788D01*
X595572Y-16686449D01*
X783933Y-16875138D01*
X596335Y-17062410D01*
X478634Y-17345866D01*
X478366Y-17652788D01*
X595572Y-17936449D01*
X812410Y-18153665D01*
X1095866Y-18271366D01*
X1402788Y-18271634D01*
X1686449Y-18154428D01*
X1903665Y-17937590D01*
X1918116Y-17902788D01*
X22728366Y-17902788D01*
X22845572Y-18186449D01*
X23062410Y-18403665D01*
X23345866Y-18521366D01*
X23652788Y-18521634D01*
X23936449Y-18404428D01*
X24153665Y-18187590D01*
X24271366Y-17904134D01*
X24271410Y-17852788D01*
X32228366Y-17852788D01*
X32345572Y-18136449D01*
X32562410Y-18353665D01*
X32845866Y-18471366D01*
X33152788Y-18471634D01*
X33436449Y-18354428D01*
X33438091Y-18352788D01*
X47328366Y-18352788D01*
X47445572Y-18636449D01*
X47662410Y-18853665D01*
X47945866Y-18971366D01*
X48252788Y-18971634D01*
X48536449Y-18854428D01*
X48753665Y-18637590D01*
X48871366Y-18354134D01*
X48871634Y-18047212D01*
X48754428Y-17763551D01*
X48537590Y-17546335D01*
X48254134Y-17428634D01*
X47947212Y-17428366D01*
X47663551Y-17545572D01*
X47446335Y-17762410D01*
X47328634Y-18045866D01*
X47328366Y-18352788D01*
X33438091Y-18352788D01*
X33653665Y-18137590D01*
X33771366Y-17854134D01*
X33771634Y-17547212D01*
X33654428Y-17263551D01*
X33437590Y-17046335D01*
X33212304Y-16952788D01*
X39828366Y-16952788D01*
X39945572Y-17236449D01*
X40162410Y-17453665D01*
X40445866Y-17571366D01*
X40752788Y-17571634D01*
X41036449Y-17454428D01*
X41253665Y-17237590D01*
X41371366Y-16954134D01*
X41371634Y-16647212D01*
X41254428Y-16363551D01*
X41037590Y-16146335D01*
X40754134Y-16028634D01*
X40447212Y-16028366D01*
X40163551Y-16145572D01*
X39946335Y-16362410D01*
X39828634Y-16645866D01*
X39828366Y-16952788D01*
X33212304Y-16952788D01*
X33154134Y-16928634D01*
X32847212Y-16928366D01*
X32563551Y-17045572D01*
X32346335Y-17262410D01*
X32228634Y-17545866D01*
X32228366Y-17852788D01*
X24271410Y-17852788D01*
X24271634Y-17597212D01*
X24154428Y-17313551D01*
X23937590Y-17096335D01*
X23654134Y-16978634D01*
X23347212Y-16978366D01*
X23063551Y-17095572D01*
X22846335Y-17312410D01*
X22728634Y-17595866D01*
X22728366Y-17902788D01*
X1918116Y-17902788D01*
X2021366Y-17654134D01*
X2021634Y-17347212D01*
X1904428Y-17063551D01*
X1716067Y-16874862D01*
X1903665Y-16687590D01*
X1918116Y-16652788D01*
X23828366Y-16652788D01*
X23945572Y-16936449D01*
X24162410Y-17153665D01*
X24445866Y-17271366D01*
X24752788Y-17271634D01*
X25036449Y-17154428D01*
X25253665Y-16937590D01*
X25371366Y-16654134D01*
X25371634Y-16347212D01*
X25254428Y-16063551D01*
X25037590Y-15846335D01*
X24754134Y-15728634D01*
X24447212Y-15728366D01*
X24163551Y-15845572D01*
X23946335Y-16062410D01*
X23828634Y-16345866D01*
X23828366Y-16652788D01*
X1918116Y-16652788D01*
X2021366Y-16404134D01*
X2021634Y-16097212D01*
X1904428Y-15813551D01*
X1687590Y-15596335D01*
X1455368Y-15499908D01*
X1686449Y-15404428D01*
X1903665Y-15187590D01*
X2021366Y-14904134D01*
X2021607Y-14627788D01*
X7228366Y-14627788D01*
X7345572Y-14911449D01*
X7562410Y-15128665D01*
X7845866Y-15246366D01*
X8152788Y-15246634D01*
X8436449Y-15129428D01*
X8653665Y-14912590D01*
X8657735Y-14902788D01*
X23228366Y-14902788D01*
X23345572Y-15186449D01*
X23562410Y-15403665D01*
X23845866Y-15521366D01*
X24152788Y-15521634D01*
X24436449Y-15404428D01*
X24488179Y-15352788D01*
X25028366Y-15352788D01*
X25145572Y-15636449D01*
X25362410Y-15853665D01*
X25645866Y-15971366D01*
X25952788Y-15971634D01*
X26236449Y-15854428D01*
X26453665Y-15637590D01*
X26536238Y-15438730D01*
X42067852Y-15438730D01*
X42197288Y-15751989D01*
X42436750Y-15991870D01*
X42749783Y-16121852D01*
X43088730Y-16122148D01*
X43401989Y-15992712D01*
X43555057Y-15839911D01*
X43706750Y-15991870D01*
X44019783Y-16121852D01*
X44358730Y-16122148D01*
X44671989Y-15992712D01*
X44825057Y-15839911D01*
X44976750Y-15991870D01*
X45289783Y-16121852D01*
X45628730Y-16122148D01*
X45941989Y-15992712D01*
X46095057Y-15839911D01*
X46246750Y-15991870D01*
X46559783Y-16121852D01*
X46898730Y-16122148D01*
X47211989Y-15992712D01*
X47365057Y-15839911D01*
X47516750Y-15991870D01*
X47829783Y-16121852D01*
X48168730Y-16122148D01*
X48481989Y-15992712D01*
X48721870Y-15753250D01*
X48851852Y-15440217D01*
X48852148Y-15101270D01*
X48722712Y-14788011D01*
X48721707Y-14787004D01*
X48757474Y-14763988D01*
X48832138Y-14654714D01*
X48858406Y-14525000D01*
X48858406Y-13475000D01*
X48835605Y-13353821D01*
X48763988Y-13242526D01*
X48654714Y-13167862D01*
X48525000Y-13141594D01*
X47475000Y-13141594D01*
X47353821Y-13164395D01*
X47242526Y-13236012D01*
X47167862Y-13345286D01*
X47141594Y-13475000D01*
X47141594Y-14518376D01*
X46900217Y-14418148D01*
X46561270Y-14417852D01*
X46248011Y-14547288D01*
X46094943Y-14700089D01*
X45943250Y-14548130D01*
X45630217Y-14418148D01*
X45291270Y-14417852D01*
X44978011Y-14547288D01*
X44824943Y-14700089D01*
X44673250Y-14548130D01*
X44360217Y-14418148D01*
X44021270Y-14417852D01*
X43708011Y-14547288D01*
X43554943Y-14700089D01*
X43403250Y-14548130D01*
X43090217Y-14418148D01*
X42751270Y-14417852D01*
X42438011Y-14547288D01*
X42198130Y-14786750D01*
X42068148Y-15099783D01*
X42067852Y-15438730D01*
X26536238Y-15438730D01*
X26571366Y-15354134D01*
X26571634Y-15047212D01*
X26454428Y-14763551D01*
X26237590Y-14546335D01*
X25954134Y-14428634D01*
X25647212Y-14428366D01*
X25363551Y-14545572D01*
X25146335Y-14762410D01*
X25028634Y-15045866D01*
X25028366Y-15352788D01*
X24488179Y-15352788D01*
X24653665Y-15187590D01*
X24771366Y-14904134D01*
X24771634Y-14597212D01*
X24654428Y-14313551D01*
X24437590Y-14096335D01*
X24154134Y-13978634D01*
X23847212Y-13978366D01*
X23563551Y-14095572D01*
X23346335Y-14312410D01*
X23228634Y-14595866D01*
X23228366Y-14902788D01*
X8657735Y-14902788D01*
X8771366Y-14629134D01*
X8771634Y-14322212D01*
X8654428Y-14038551D01*
X8437590Y-13821335D01*
X8154134Y-13703634D01*
X7847212Y-13703366D01*
X7563551Y-13820572D01*
X7346335Y-14037410D01*
X7228634Y-14320866D01*
X7228366Y-14627788D01*
X2021607Y-14627788D01*
X2021634Y-14597212D01*
X1904428Y-14313551D01*
X1687590Y-14096335D01*
X1404134Y-13978634D01*
X1097212Y-13978366D01*
X813551Y-14095572D01*
X596335Y-14312410D01*
X478634Y-14595866D01*
X478366Y-14902788D01*
X377000Y-14902788D01*
X377000Y-9292798D01*
X7672771Y-9292798D01*
X7874369Y-9780703D01*
X8247334Y-10154319D01*
X8734885Y-10356769D01*
X9262798Y-10357229D01*
X9750703Y-10155631D01*
X9792922Y-10113485D01*
X13617830Y-10113485D01*
X13766256Y-10472703D01*
X14040851Y-10747778D01*
X14399810Y-10896830D01*
X14788485Y-10897170D01*
X15147703Y-10748744D01*
X15422778Y-10474149D01*
X15571830Y-10115190D01*
X15571831Y-10113485D01*
X15647830Y-10113485D01*
X15796256Y-10472703D01*
X16070851Y-10747778D01*
X16429810Y-10896830D01*
X16818485Y-10897170D01*
X17177703Y-10748744D01*
X17452778Y-10474149D01*
X17601830Y-10115190D01*
X17601831Y-10113485D01*
X17677830Y-10113485D01*
X17826256Y-10472703D01*
X18100851Y-10747778D01*
X18459810Y-10896830D01*
X18848485Y-10897170D01*
X19207703Y-10748744D01*
X19482778Y-10474149D01*
X19631830Y-10115190D01*
X19631831Y-10113485D01*
X19707830Y-10113485D01*
X19856256Y-10472703D01*
X20130851Y-10747778D01*
X20489810Y-10896830D01*
X20878485Y-10897170D01*
X21237703Y-10748744D01*
X21512778Y-10474149D01*
X21661830Y-10115190D01*
X21662170Y-9726515D01*
X21631707Y-9652788D01*
X23728366Y-9652788D01*
X23845572Y-9936449D01*
X24062410Y-10153665D01*
X24345866Y-10271366D01*
X24652788Y-10271634D01*
X24936449Y-10154428D01*
X24977463Y-10113485D01*
X29367830Y-10113485D01*
X29516256Y-10472703D01*
X29790851Y-10747778D01*
X30149810Y-10896830D01*
X30538485Y-10897170D01*
X30897703Y-10748744D01*
X31172778Y-10474149D01*
X31321830Y-10115190D01*
X31321831Y-10113485D01*
X31397830Y-10113485D01*
X31546256Y-10472703D01*
X31820851Y-10747778D01*
X32179810Y-10896830D01*
X32568485Y-10897170D01*
X32927703Y-10748744D01*
X33202778Y-10474149D01*
X33351830Y-10115190D01*
X33351831Y-10113485D01*
X33427830Y-10113485D01*
X33576256Y-10472703D01*
X33850851Y-10747778D01*
X34209810Y-10896830D01*
X34598485Y-10897170D01*
X34957703Y-10748744D01*
X35232778Y-10474149D01*
X35381830Y-10115190D01*
X35381831Y-10113485D01*
X35457830Y-10113485D01*
X35606256Y-10472703D01*
X35880851Y-10747778D01*
X36239810Y-10896830D01*
X36628485Y-10897170D01*
X36987703Y-10748744D01*
X37262778Y-10474149D01*
X37411830Y-10115190D01*
X37412170Y-9726515D01*
X37263744Y-9367297D01*
X37189375Y-9292798D01*
X39672771Y-9292798D01*
X39874369Y-9780703D01*
X40247334Y-10154319D01*
X40734885Y-10356769D01*
X41262798Y-10357229D01*
X41750703Y-10155631D01*
X42124319Y-9782666D01*
X42326769Y-9295115D01*
X42327229Y-8767202D01*
X42125631Y-8279297D01*
X41752666Y-7905681D01*
X41265115Y-7703231D01*
X40737202Y-7702771D01*
X40249297Y-7904369D01*
X39875681Y-8277334D01*
X39673231Y-8764885D01*
X39672771Y-9292798D01*
X37189375Y-9292798D01*
X36989149Y-9092222D01*
X36630190Y-8943170D01*
X36241515Y-8942830D01*
X35882297Y-9091256D01*
X35607222Y-9365851D01*
X35458170Y-9724810D01*
X35457830Y-10113485D01*
X35381831Y-10113485D01*
X35382170Y-9726515D01*
X35233744Y-9367297D01*
X34959149Y-9092222D01*
X34600190Y-8943170D01*
X34211515Y-8942830D01*
X33852297Y-9091256D01*
X33577222Y-9365851D01*
X33428170Y-9724810D01*
X33427830Y-10113485D01*
X33351831Y-10113485D01*
X33352170Y-9726515D01*
X33203744Y-9367297D01*
X32929149Y-9092222D01*
X32570190Y-8943170D01*
X32181515Y-8942830D01*
X31822297Y-9091256D01*
X31547222Y-9365851D01*
X31398170Y-9724810D01*
X31397830Y-10113485D01*
X31321831Y-10113485D01*
X31322170Y-9726515D01*
X31173744Y-9367297D01*
X30899149Y-9092222D01*
X30540190Y-8943170D01*
X30151515Y-8942830D01*
X29792297Y-9091256D01*
X29517222Y-9365851D01*
X29368170Y-9724810D01*
X29367830Y-10113485D01*
X24977463Y-10113485D01*
X25153665Y-9937590D01*
X25271366Y-9654134D01*
X25271634Y-9347212D01*
X25154428Y-9063551D01*
X24937590Y-8846335D01*
X24654134Y-8728634D01*
X24347212Y-8728366D01*
X24063551Y-8845572D01*
X23846335Y-9062410D01*
X23728634Y-9345866D01*
X23728366Y-9652788D01*
X21631707Y-9652788D01*
X21513744Y-9367297D01*
X21239149Y-9092222D01*
X20880190Y-8943170D01*
X20491515Y-8942830D01*
X20132297Y-9091256D01*
X19857222Y-9365851D01*
X19708170Y-9724810D01*
X19707830Y-10113485D01*
X19631831Y-10113485D01*
X19632170Y-9726515D01*
X19483744Y-9367297D01*
X19209149Y-9092222D01*
X18850190Y-8943170D01*
X18461515Y-8942830D01*
X18102297Y-9091256D01*
X17827222Y-9365851D01*
X17678170Y-9724810D01*
X17677830Y-10113485D01*
X17601831Y-10113485D01*
X17602170Y-9726515D01*
X17453744Y-9367297D01*
X17179149Y-9092222D01*
X16820190Y-8943170D01*
X16431515Y-8942830D01*
X16072297Y-9091256D01*
X15797222Y-9365851D01*
X15648170Y-9724810D01*
X15647830Y-10113485D01*
X15571831Y-10113485D01*
X15572170Y-9726515D01*
X15423744Y-9367297D01*
X15149149Y-9092222D01*
X14790190Y-8943170D01*
X14401515Y-8942830D01*
X14042297Y-9091256D01*
X13767222Y-9365851D01*
X13618170Y-9724810D01*
X13617830Y-10113485D01*
X9792922Y-10113485D01*
X10124319Y-9782666D01*
X10326769Y-9295115D01*
X10327229Y-8767202D01*
X10148021Y-8333485D01*
X12597830Y-8333485D01*
X12746256Y-8692703D01*
X13020851Y-8967778D01*
X13379810Y-9116830D01*
X13768485Y-9117170D01*
X14127703Y-8968744D01*
X14402778Y-8694149D01*
X14551830Y-8335190D01*
X14551831Y-8333485D01*
X16657830Y-8333485D01*
X16806256Y-8692703D01*
X17080851Y-8967778D01*
X17439810Y-9116830D01*
X17828485Y-9117170D01*
X18187703Y-8968744D01*
X18462778Y-8694149D01*
X18611830Y-8335190D01*
X18611831Y-8333485D01*
X28347830Y-8333485D01*
X28496256Y-8692703D01*
X28770851Y-8967778D01*
X29129810Y-9116830D01*
X29518485Y-9117170D01*
X29877703Y-8968744D01*
X30152778Y-8694149D01*
X30301830Y-8335190D01*
X30301831Y-8333485D01*
X32407830Y-8333485D01*
X32556256Y-8692703D01*
X32830851Y-8967778D01*
X33189810Y-9116830D01*
X33578485Y-9117170D01*
X33937703Y-8968744D01*
X34212778Y-8694149D01*
X34361830Y-8335190D01*
X34362170Y-7946515D01*
X34213744Y-7587297D01*
X33939149Y-7312222D01*
X33580190Y-7163170D01*
X33191515Y-7162830D01*
X32832297Y-7311256D01*
X32557222Y-7585851D01*
X32408170Y-7944810D01*
X32407830Y-8333485D01*
X30301831Y-8333485D01*
X30302170Y-7946515D01*
X30153744Y-7587297D01*
X29879149Y-7312222D01*
X29520190Y-7163170D01*
X29131515Y-7162830D01*
X28772297Y-7311256D01*
X28497222Y-7585851D01*
X28348170Y-7944810D01*
X28347830Y-8333485D01*
X18611831Y-8333485D01*
X18612170Y-7946515D01*
X18463744Y-7587297D01*
X18189149Y-7312222D01*
X17830190Y-7163170D01*
X17441515Y-7162830D01*
X17082297Y-7311256D01*
X16807222Y-7585851D01*
X16658170Y-7944810D01*
X16657830Y-8333485D01*
X14551831Y-8333485D01*
X14552170Y-7946515D01*
X14403744Y-7587297D01*
X14129149Y-7312222D01*
X13770190Y-7163170D01*
X13381515Y-7162830D01*
X13022297Y-7311256D01*
X12747222Y-7585851D01*
X12598170Y-7944810D01*
X12597830Y-8333485D01*
X10148021Y-8333485D01*
X10125631Y-8279297D01*
X9752666Y-7905681D01*
X9265115Y-7703231D01*
X8737202Y-7702771D01*
X8249297Y-7904369D01*
X7875681Y-8277334D01*
X7673231Y-8764885D01*
X7672771Y-9292798D01*
X377000Y-9292798D01*
X377000Y-4658878D01*
X672424Y-4658878D01*
X1177862Y-5882132D01*
X2112945Y-6818849D01*
X3335315Y-7326421D01*
X4658878Y-7327576D01*
X5882132Y-6822138D01*
X6644762Y-6060838D01*
X8447597Y-6060838D01*
X8801115Y-6916418D01*
X9455139Y-7571585D01*
X10310100Y-7926596D01*
X11235838Y-7927403D01*
X12091418Y-7573885D01*
X12746585Y-6919861D01*
X13101596Y-6064900D01*
X13101599Y-6060838D01*
X36897597Y-6060838D01*
X37251115Y-6916418D01*
X37905139Y-7571585D01*
X38760100Y-7926596D01*
X39685838Y-7927403D01*
X40541418Y-7573885D01*
X41196585Y-6919861D01*
X41551596Y-6064900D01*
X41552403Y-5139162D01*
X41353954Y-4658878D01*
X42672424Y-4658878D01*
X43177862Y-5882132D01*
X44112945Y-6818849D01*
X45335315Y-7326421D01*
X46658878Y-7327576D01*
X47882132Y-6822138D01*
X48818849Y-5887055D01*
X49326421Y-4664685D01*
X49327576Y-3341122D01*
X48822138Y-2117868D01*
X47887055Y-1181151D01*
X46664685Y-673579D01*
X45341122Y-672424D01*
X44117868Y-1177862D01*
X43181151Y-2112945D01*
X42673579Y-3335315D01*
X42672424Y-4658878D01*
X41353954Y-4658878D01*
X41198885Y-4283582D01*
X40544861Y-3628415D01*
X39689900Y-3273404D01*
X38764162Y-3272597D01*
X37908582Y-3626115D01*
X37253415Y-4280139D01*
X36898404Y-5135100D01*
X36897597Y-6060838D01*
X13101599Y-6060838D01*
X13102391Y-5152788D01*
X19478366Y-5152788D01*
X19595572Y-5436449D01*
X19812410Y-5653665D01*
X20095866Y-5771366D01*
X20402788Y-5771634D01*
X20686449Y-5654428D01*
X20903665Y-5437590D01*
X21021366Y-5154134D01*
X21021367Y-5152788D01*
X22228366Y-5152788D01*
X22345572Y-5436449D01*
X22562410Y-5653665D01*
X22845866Y-5771366D01*
X23152788Y-5771634D01*
X23436449Y-5654428D01*
X23653665Y-5437590D01*
X23668116Y-5402788D01*
X27978366Y-5402788D01*
X28095572Y-5686449D01*
X28312410Y-5903665D01*
X28595866Y-6021366D01*
X28902788Y-6021634D01*
X29186449Y-5904428D01*
X29403665Y-5687590D01*
X29521366Y-5404134D01*
X29521634Y-5097212D01*
X29441300Y-4902788D01*
X34728366Y-4902788D01*
X34845572Y-5186449D01*
X35062410Y-5403665D01*
X35345866Y-5521366D01*
X35652788Y-5521634D01*
X35936449Y-5404428D01*
X36153665Y-5187590D01*
X36271366Y-4904134D01*
X36271634Y-4597212D01*
X36154428Y-4313551D01*
X35937590Y-4096335D01*
X35654134Y-3978634D01*
X35347212Y-3978366D01*
X35063551Y-4095572D01*
X34846335Y-4312410D01*
X34728634Y-4595866D01*
X34728366Y-4902788D01*
X29441300Y-4902788D01*
X29404428Y-4813551D01*
X29187590Y-4596335D01*
X28904134Y-4478634D01*
X28597212Y-4478366D01*
X28313551Y-4595572D01*
X28096335Y-4812410D01*
X27978634Y-5095866D01*
X27978366Y-5402788D01*
X23668116Y-5402788D01*
X23771366Y-5154134D01*
X23771634Y-4847212D01*
X23654428Y-4563551D01*
X23437590Y-4346335D01*
X23154134Y-4228634D01*
X22847212Y-4228366D01*
X22563551Y-4345572D01*
X22346335Y-4562410D01*
X22228634Y-4845866D01*
X22228366Y-5152788D01*
X21021367Y-5152788D01*
X21021634Y-4847212D01*
X20904428Y-4563551D01*
X20687590Y-4346335D01*
X20404134Y-4228634D01*
X20097212Y-4228366D01*
X19813551Y-4345572D01*
X19596335Y-4562410D01*
X19478634Y-4845866D01*
X19478366Y-5152788D01*
X13102391Y-5152788D01*
X13102403Y-5139162D01*
X12748885Y-4283582D01*
X12094861Y-3628415D01*
X11551492Y-3402788D01*
X19478366Y-3402788D01*
X19595572Y-3686449D01*
X19812410Y-3903665D01*
X20095866Y-4021366D01*
X20402788Y-4021634D01*
X20686449Y-3904428D01*
X20903665Y-3687590D01*
X21021366Y-3404134D01*
X21021634Y-3097212D01*
X20904428Y-2813551D01*
X20687590Y-2596335D01*
X20404134Y-2478634D01*
X20097212Y-2478366D01*
X19813551Y-2595572D01*
X19596335Y-2812410D01*
X19478634Y-3095866D01*
X19478366Y-3402788D01*
X11551492Y-3402788D01*
X11239900Y-3273404D01*
X10314162Y-3272597D01*
X9458582Y-3626115D01*
X8803415Y-4280139D01*
X8448404Y-5135100D01*
X8447597Y-6060838D01*
X6644762Y-6060838D01*
X6818849Y-5887055D01*
X7326421Y-4664685D01*
X7327576Y-3341122D01*
X6822138Y-2117868D01*
X6108306Y-1402788D01*
X19478366Y-1402788D01*
X19595572Y-1686449D01*
X19812410Y-1903665D01*
X20095866Y-2021366D01*
X20402788Y-2021634D01*
X20686449Y-1904428D01*
X20903665Y-1687590D01*
X21021366Y-1404134D01*
X21021634Y-1097212D01*
X20904428Y-813551D01*
X20687590Y-596335D01*
X20404134Y-478634D01*
X20097212Y-478366D01*
X19813551Y-595572D01*
X19596335Y-812410D01*
X19478634Y-1095866D01*
X19478366Y-1402788D01*
X6108306Y-1402788D01*
X5887055Y-1181151D01*
X4664685Y-673579D01*
X3341122Y-672424D01*
X2117868Y-1177862D01*
X1181151Y-2112945D01*
X673579Y-3335315D01*
X672424Y-4658878D01*
X377000Y-4658878D01*
X377000Y-377000D01*
X49623000Y-377000D01*
X49623000Y-49623000D01*
X49623000Y-49623000D01*
G37*
X49623000Y-49623000D02*
X377000Y-49623000D01*
X377000Y-46658878D01*
X672424Y-46658878D01*
X1177862Y-47882132D01*
X2112945Y-48818849D01*
X3335315Y-49326421D01*
X4658878Y-49327576D01*
X5882132Y-48822138D01*
X6818849Y-47887055D01*
X7015573Y-47413289D01*
X24422813Y-47413289D01*
X24586431Y-47809275D01*
X24889132Y-48112504D01*
X25284832Y-48276813D01*
X25713289Y-48277187D01*
X26109275Y-48113569D01*
X26412504Y-47810868D01*
X26576813Y-47415168D01*
X26576814Y-47413289D01*
X26922813Y-47413289D01*
X27086431Y-47809275D01*
X27389132Y-48112504D01*
X27784832Y-48276813D01*
X28213289Y-48277187D01*
X28609275Y-48113569D01*
X28912504Y-47810868D01*
X29076813Y-47415168D01*
X29076814Y-47413289D01*
X29422813Y-47413289D01*
X29586431Y-47809275D01*
X29889132Y-48112504D01*
X30284832Y-48276813D01*
X30713289Y-48277187D01*
X31109275Y-48113569D01*
X31412504Y-47810868D01*
X31576813Y-47415168D01*
X31576814Y-47413289D01*
X31922813Y-47413289D01*
X32086431Y-47809275D01*
X32389132Y-48112504D01*
X32784832Y-48276813D01*
X33213289Y-48277187D01*
X33609275Y-48113569D01*
X33912504Y-47810868D01*
X34076813Y-47415168D01*
X34076814Y-47413289D01*
X34422813Y-47413289D01*
X34586431Y-47809275D01*
X34889132Y-48112504D01*
X35284832Y-48276813D01*
X35713289Y-48277187D01*
X36109275Y-48113569D01*
X36412504Y-47810868D01*
X36576813Y-47415168D01*
X36576814Y-47413289D01*
X37422813Y-47413289D01*
X37586431Y-47809275D01*
X37889132Y-48112504D01*
X38284832Y-48276813D01*
X38713289Y-48277187D01*
X39109275Y-48113569D01*
X39412504Y-47810868D01*
X39576813Y-47415168D01*
X39576814Y-47413289D01*
X39922813Y-47413289D01*
X40086431Y-47809275D01*
X40389132Y-48112504D01*
X40784832Y-48276813D01*
X41213289Y-48277187D01*
X41609275Y-48113569D01*
X41912504Y-47810868D01*
X42076813Y-47415168D01*
X42076814Y-47413289D01*
X42422813Y-47413289D01*
X42586431Y-47809275D01*
X42889132Y-48112504D01*
X43284832Y-48276813D01*
X43713289Y-48277187D01*
X44109275Y-48113569D01*
X44412504Y-47810868D01*
X44576813Y-47415168D01*
X44576814Y-47413289D01*
X44922813Y-47413289D01*
X45086431Y-47809275D01*
X45389132Y-48112504D01*
X45784832Y-48276813D01*
X46213289Y-48277187D01*
X46609275Y-48113569D01*
X46912504Y-47810868D01*
X47076813Y-47415168D01*
X47076814Y-47413289D01*
X47422813Y-47413289D01*
X47586431Y-47809275D01*
X47889132Y-48112504D01*
X48284832Y-48276813D01*
X48713289Y-48277187D01*
X49109275Y-48113569D01*
X49412504Y-47810868D01*
X49576813Y-47415168D01*
X49577187Y-46986711D01*
X49413569Y-46590725D01*
X49110868Y-46287496D01*
X48715168Y-46123187D01*
X48286711Y-46122813D01*
X47890725Y-46286431D01*
X47587496Y-46589132D01*
X47423187Y-46984832D01*
X47422813Y-47413289D01*
X47076814Y-47413289D01*
X47077187Y-46986711D01*
X46913569Y-46590725D01*
X46610868Y-46287496D01*
X46215168Y-46123187D01*
X45786711Y-46122813D01*
X45390725Y-46286431D01*
X45087496Y-46589132D01*
X44923187Y-46984832D01*
X44922813Y-47413289D01*
X44576814Y-47413289D01*
X44577187Y-46986711D01*
X44413569Y-46590725D01*
X44110868Y-46287496D01*
X43715168Y-46123187D01*
X43286711Y-46122813D01*
X42890725Y-46286431D01*
X42587496Y-46589132D01*
X42423187Y-46984832D01*
X42422813Y-47413289D01*
X42076814Y-47413289D01*
X42077187Y-46986711D01*
X41913569Y-46590725D01*
X41610868Y-46287496D01*
X41215168Y-46123187D01*
X40786711Y-46122813D01*
X40390725Y-46286431D01*
X40087496Y-46589132D01*
X39923187Y-46984832D01*
X39922813Y-47413289D01*
X39576814Y-47413289D01*
X39577187Y-46986711D01*
X39413569Y-46590725D01*
X39110868Y-46287496D01*
X38715168Y-46123187D01*
X38286711Y-46122813D01*
X37890725Y-46286431D01*
X37587496Y-46589132D01*
X37423187Y-46984832D01*
X37422813Y-47413289D01*
X36576814Y-47413289D01*
X36577187Y-46986711D01*
X36413569Y-46590725D01*
X36110868Y-46287496D01*
X35715168Y-46123187D01*
X35286711Y-46122813D01*
X34890725Y-46286431D01*
X34587496Y-46589132D01*
X34423187Y-46984832D01*
X34422813Y-47413289D01*
X34076814Y-47413289D01*
X34077187Y-46986711D01*
X33913569Y-46590725D01*
X33610868Y-46287496D01*
X33215168Y-46123187D01*
X32786711Y-46122813D01*
X32390725Y-46286431D01*
X32087496Y-46589132D01*
X31923187Y-46984832D01*
X31922813Y-47413289D01*
X31576814Y-47413289D01*
X31577187Y-46986711D01*
X31413569Y-46590725D01*
X31110868Y-46287496D01*
X30715168Y-46123187D01*
X30286711Y-46122813D01*
X29890725Y-46286431D01*
X29587496Y-46589132D01*
X29423187Y-46984832D01*
X29422813Y-47413289D01*
X29076814Y-47413289D01*
X29077187Y-46986711D01*
X28913569Y-46590725D01*
X28610868Y-46287496D01*
X28215168Y-46123187D01*
X27786711Y-46122813D01*
X27390725Y-46286431D01*
X27087496Y-46589132D01*
X26923187Y-46984832D01*
X26922813Y-47413289D01*
X26576814Y-47413289D01*
X26577187Y-46986711D01*
X26413569Y-46590725D01*
X26110868Y-46287496D01*
X25715168Y-46123187D01*
X25286711Y-46122813D01*
X24890725Y-46286431D01*
X24587496Y-46589132D01*
X24423187Y-46984832D01*
X24422813Y-47413289D01*
X7015573Y-47413289D01*
X7326421Y-46664685D01*
X7327576Y-45341122D01*
X6822138Y-44117868D01*
X5887055Y-43181151D01*
X4664685Y-42673579D01*
X3341122Y-42672424D01*
X2117868Y-43177862D01*
X1181151Y-44112945D01*
X673579Y-45335315D01*
X672424Y-46658878D01*
X377000Y-46658878D01*
X377000Y-42502788D01*
X12828366Y-42502788D01*
X12945572Y-42786449D01*
X13162410Y-43003665D01*
X13445866Y-43121366D01*
X13752788Y-43121634D01*
X14036449Y-43004428D01*
X14253665Y-42787590D01*
X14371366Y-42504134D01*
X14371445Y-42413289D01*
X24422813Y-42413289D01*
X24586431Y-42809275D01*
X24889132Y-43112504D01*
X25284832Y-43276813D01*
X25713289Y-43277187D01*
X26109275Y-43113569D01*
X26412504Y-42810868D01*
X26576813Y-42415168D01*
X26576814Y-42413289D01*
X26922813Y-42413289D01*
X27086431Y-42809275D01*
X27389132Y-43112504D01*
X27784832Y-43276813D01*
X28213289Y-43277187D01*
X28609275Y-43113569D01*
X28912504Y-42810868D01*
X29076813Y-42415168D01*
X29076814Y-42413289D01*
X29422813Y-42413289D01*
X29586431Y-42809275D01*
X29889132Y-43112504D01*
X30284832Y-43276813D01*
X30713289Y-43277187D01*
X31109275Y-43113569D01*
X31412504Y-42810868D01*
X31576813Y-42415168D01*
X31576814Y-42413289D01*
X31922813Y-42413289D01*
X32086431Y-42809275D01*
X32389132Y-43112504D01*
X32784832Y-43276813D01*
X33213289Y-43277187D01*
X33609275Y-43113569D01*
X33912504Y-42810868D01*
X34076813Y-42415168D01*
X34076814Y-42413289D01*
X34422813Y-42413289D01*
X34586431Y-42809275D01*
X34889132Y-43112504D01*
X35284832Y-43276813D01*
X35713289Y-43277187D01*
X36109275Y-43113569D01*
X36412504Y-42810868D01*
X36576813Y-42415168D01*
X36576814Y-42413289D01*
X37422813Y-42413289D01*
X37586431Y-42809275D01*
X37889132Y-43112504D01*
X38284832Y-43276813D01*
X38713289Y-43277187D01*
X39109275Y-43113569D01*
X39412504Y-42810868D01*
X39576813Y-42415168D01*
X39576814Y-42413289D01*
X39922813Y-42413289D01*
X40086431Y-42809275D01*
X40389132Y-43112504D01*
X40784832Y-43276813D01*
X41213289Y-43277187D01*
X41609275Y-43113569D01*
X41912504Y-42810868D01*
X42076813Y-42415168D01*
X42076814Y-42413289D01*
X42422813Y-42413289D01*
X42586431Y-42809275D01*
X42889132Y-43112504D01*
X43284832Y-43276813D01*
X43713289Y-43277187D01*
X44109275Y-43113569D01*
X44412504Y-42810868D01*
X44576813Y-42415168D01*
X44576814Y-42413289D01*
X44922813Y-42413289D01*
X45086431Y-42809275D01*
X45389132Y-43112504D01*
X45784832Y-43276813D01*
X46213289Y-43277187D01*
X46609275Y-43113569D01*
X46912504Y-42810868D01*
X47076813Y-42415168D01*
X47076814Y-42413289D01*
X47422813Y-42413289D01*
X47586431Y-42809275D01*
X47889132Y-43112504D01*
X48284832Y-43276813D01*
X48713289Y-43277187D01*
X49109275Y-43113569D01*
X49412504Y-42810868D01*
X49576813Y-42415168D01*
X49577187Y-41986711D01*
X49413569Y-41590725D01*
X49110868Y-41287496D01*
X48715168Y-41123187D01*
X48286711Y-41122813D01*
X47890725Y-41286431D01*
X47587496Y-41589132D01*
X47423187Y-41984832D01*
X47422813Y-42413289D01*
X47076814Y-42413289D01*
X47077187Y-41986711D01*
X46913569Y-41590725D01*
X46610868Y-41287496D01*
X46215168Y-41123187D01*
X45786711Y-41122813D01*
X45390725Y-41286431D01*
X45087496Y-41589132D01*
X44923187Y-41984832D01*
X44922813Y-42413289D01*
X44576814Y-42413289D01*
X44577187Y-41986711D01*
X44413569Y-41590725D01*
X44110868Y-41287496D01*
X43715168Y-41123187D01*
X43286711Y-41122813D01*
X42890725Y-41286431D01*
X42587496Y-41589132D01*
X42423187Y-41984832D01*
X42422813Y-42413289D01*
X42076814Y-42413289D01*
X42077187Y-41986711D01*
X41913569Y-41590725D01*
X41610868Y-41287496D01*
X41215168Y-41123187D01*
X40786711Y-41122813D01*
X40390725Y-41286431D01*
X40087496Y-41589132D01*
X39923187Y-41984832D01*
X39922813Y-42413289D01*
X39576814Y-42413289D01*
X39577187Y-41986711D01*
X39413569Y-41590725D01*
X39110868Y-41287496D01*
X38715168Y-41123187D01*
X38286711Y-41122813D01*
X37890725Y-41286431D01*
X37587496Y-41589132D01*
X37423187Y-41984832D01*
X37422813Y-42413289D01*
X36576814Y-42413289D01*
X36577187Y-41986711D01*
X36413569Y-41590725D01*
X36110868Y-41287496D01*
X35715168Y-41123187D01*
X35286711Y-41122813D01*
X34890725Y-41286431D01*
X34587496Y-41589132D01*
X34423187Y-41984832D01*
X34422813Y-42413289D01*
X34076814Y-42413289D01*
X34077187Y-41986711D01*
X33913569Y-41590725D01*
X33610868Y-41287496D01*
X33215168Y-41123187D01*
X32786711Y-41122813D01*
X32390725Y-41286431D01*
X32087496Y-41589132D01*
X31923187Y-41984832D01*
X31922813Y-42413289D01*
X31576814Y-42413289D01*
X31577187Y-41986711D01*
X31413569Y-41590725D01*
X31110868Y-41287496D01*
X30715168Y-41123187D01*
X30286711Y-41122813D01*
X29890725Y-41286431D01*
X29587496Y-41589132D01*
X29423187Y-41984832D01*
X29422813Y-42413289D01*
X29076814Y-42413289D01*
X29077187Y-41986711D01*
X28913569Y-41590725D01*
X28610868Y-41287496D01*
X28215168Y-41123187D01*
X27786711Y-41122813D01*
X27390725Y-41286431D01*
X27087496Y-41589132D01*
X26923187Y-41984832D01*
X26922813Y-42413289D01*
X26576814Y-42413289D01*
X26577187Y-41986711D01*
X26413569Y-41590725D01*
X26110868Y-41287496D01*
X25715168Y-41123187D01*
X25286711Y-41122813D01*
X24890725Y-41286431D01*
X24587496Y-41589132D01*
X24423187Y-41984832D01*
X24422813Y-42413289D01*
X14371445Y-42413289D01*
X14371634Y-42197212D01*
X14254428Y-41913551D01*
X14037590Y-41696335D01*
X13754134Y-41578634D01*
X13447212Y-41578366D01*
X13163551Y-41695572D01*
X12946335Y-41912410D01*
X12828634Y-42195866D01*
X12828366Y-42502788D01*
X377000Y-42502788D01*
X377000Y-41502788D01*
X7028366Y-41502788D01*
X7145572Y-41786449D01*
X7362410Y-42003665D01*
X7645866Y-42121366D01*
X7952788Y-42121634D01*
X8236449Y-42004428D01*
X8453665Y-41787590D01*
X8571366Y-41504134D01*
X8571634Y-41197212D01*
X8454428Y-40913551D01*
X8237590Y-40696335D01*
X8012304Y-40602788D01*
X12578366Y-40602788D01*
X12695572Y-40886449D01*
X12912410Y-41103665D01*
X13195866Y-41221366D01*
X13502788Y-41221634D01*
X13786449Y-41104428D01*
X14003665Y-40887590D01*
X14121366Y-40604134D01*
X14121634Y-40297212D01*
X14004428Y-40013551D01*
X13787590Y-39796335D01*
X13504134Y-39678634D01*
X13197212Y-39678366D01*
X12913551Y-39795572D01*
X12696335Y-40012410D01*
X12578634Y-40295866D01*
X12578366Y-40602788D01*
X8012304Y-40602788D01*
X7954134Y-40578634D01*
X7647212Y-40578366D01*
X7363551Y-40695572D01*
X7146335Y-40912410D01*
X7028634Y-41195866D01*
X7028366Y-41502788D01*
X377000Y-41502788D01*
X377000Y-38522211D01*
X6802718Y-38522211D01*
X7049892Y-39120418D01*
X7507175Y-39578499D01*
X8104950Y-39826717D01*
X8752211Y-39827282D01*
X9350418Y-39580108D01*
X9808499Y-39122825D01*
X10056717Y-38525050D01*
X10056719Y-38522211D01*
X19942718Y-38522211D01*
X20189892Y-39120418D01*
X20647175Y-39578499D01*
X21244950Y-39826717D01*
X21892211Y-39827282D01*
X22490418Y-39580108D01*
X22948499Y-39122825D01*
X23196717Y-38525050D01*
X23197282Y-37877789D01*
X22950108Y-37279582D01*
X22492825Y-36821501D01*
X22101186Y-36658878D01*
X42672424Y-36658878D01*
X43177862Y-37882132D01*
X44112945Y-38818849D01*
X45335315Y-39326421D01*
X46658878Y-39327576D01*
X47882132Y-38822138D01*
X48818849Y-37887055D01*
X49326421Y-36664685D01*
X49327576Y-35341122D01*
X48822138Y-34117868D01*
X47887055Y-33181151D01*
X46664685Y-32673579D01*
X45341122Y-32672424D01*
X44117868Y-33177862D01*
X43181151Y-34112945D01*
X42673579Y-35335315D01*
X42672424Y-36658878D01*
X22101186Y-36658878D01*
X21895050Y-36573283D01*
X21247789Y-36572718D01*
X20649582Y-36819892D01*
X20191501Y-37277175D01*
X19943283Y-37874950D01*
X19942718Y-38522211D01*
X10056719Y-38522211D01*
X10057282Y-37877789D01*
X9810108Y-37279582D01*
X9352825Y-36821501D01*
X8755050Y-36573283D01*
X8107789Y-36572718D01*
X7509582Y-36819892D01*
X7051501Y-37277175D01*
X6803283Y-37874950D01*
X6802718Y-38522211D01*
X377000Y-38522211D01*
X377000Y-36652788D01*
X678366Y-36652788D01*
X795572Y-36936449D01*
X1012410Y-37153665D01*
X1295866Y-37271366D01*
X1602788Y-37271634D01*
X1886449Y-37154428D01*
X2103665Y-36937590D01*
X2221366Y-36654134D01*
X2221628Y-36353877D01*
X10722866Y-36353877D01*
X10840908Y-36639560D01*
X11059290Y-36858324D01*
X11344767Y-36976865D01*
X11653877Y-36977134D01*
X11939560Y-36859092D01*
X12158324Y-36640710D01*
X12276865Y-36355233D01*
X12276866Y-36353877D01*
X13222866Y-36353877D01*
X13340908Y-36639560D01*
X13559290Y-36858324D01*
X13844767Y-36976865D01*
X14153877Y-36977134D01*
X14439560Y-36859092D01*
X14658324Y-36640710D01*
X14776865Y-36355233D01*
X14776866Y-36353877D01*
X15222866Y-36353877D01*
X15340908Y-36639560D01*
X15559290Y-36858324D01*
X15844767Y-36976865D01*
X16153877Y-36977134D01*
X16439560Y-36859092D01*
X16658324Y-36640710D01*
X16776865Y-36355233D01*
X16777134Y-36046123D01*
X16659092Y-35760440D01*
X16440710Y-35541676D01*
X16155233Y-35423135D01*
X15846123Y-35422866D01*
X15560440Y-35540908D01*
X15341676Y-35759290D01*
X15223135Y-36044767D01*
X15222866Y-36353877D01*
X14776866Y-36353877D01*
X14777134Y-36046123D01*
X14659092Y-35760440D01*
X14440710Y-35541676D01*
X14155233Y-35423135D01*
X13846123Y-35422866D01*
X13560440Y-35540908D01*
X13341676Y-35759290D01*
X13223135Y-36044767D01*
X13222866Y-36353877D01*
X12276866Y-36353877D01*
X12277134Y-36046123D01*
X12159092Y-35760440D01*
X11940710Y-35541676D01*
X11655233Y-35423135D01*
X11346123Y-35422866D01*
X11060440Y-35540908D01*
X10841676Y-35759290D01*
X10723135Y-36044767D01*
X10722866Y-36353877D01*
X2221628Y-36353877D01*
X2221634Y-36347212D01*
X2104428Y-36063551D01*
X1887590Y-35846335D01*
X1604134Y-35728634D01*
X1297212Y-35728366D01*
X1013551Y-35845572D01*
X796335Y-36062410D01*
X678634Y-36345866D01*
X678366Y-36652788D01*
X377000Y-36652788D01*
X377000Y-34853877D01*
X10222866Y-34853877D01*
X10340908Y-35139560D01*
X10559290Y-35358324D01*
X10844767Y-35476865D01*
X11153877Y-35477134D01*
X11439560Y-35359092D01*
X11658324Y-35140710D01*
X11776865Y-34855233D01*
X11776866Y-34853877D01*
X12222866Y-34853877D01*
X12340908Y-35139560D01*
X12559290Y-35358324D01*
X12844767Y-35476865D01*
X13153877Y-35477134D01*
X13439560Y-35359092D01*
X13658324Y-35140710D01*
X13776865Y-34855233D01*
X13776866Y-34853877D01*
X16222866Y-34853877D01*
X16340908Y-35139560D01*
X16559290Y-35358324D01*
X16844767Y-35476865D01*
X17153877Y-35477134D01*
X17439560Y-35359092D01*
X17658324Y-35140710D01*
X17776865Y-34855233D01*
X17776866Y-34853877D01*
X18222866Y-34853877D01*
X18340908Y-35139560D01*
X18559290Y-35358324D01*
X18844767Y-35476865D01*
X19153877Y-35477134D01*
X19439560Y-35359092D01*
X19546049Y-35252788D01*
X30228366Y-35252788D01*
X30345572Y-35536449D01*
X30562410Y-35753665D01*
X30845866Y-35871366D01*
X31152788Y-35871634D01*
X31436449Y-35754428D01*
X31653665Y-35537590D01*
X31771366Y-35254134D01*
X31771634Y-34947212D01*
X31654428Y-34663551D01*
X31437590Y-34446335D01*
X31154134Y-34328634D01*
X30847212Y-34328366D01*
X30563551Y-34445572D01*
X30346335Y-34662410D01*
X30228634Y-34945866D01*
X30228366Y-35252788D01*
X19546049Y-35252788D01*
X19658324Y-35140710D01*
X19776865Y-34855233D01*
X19777134Y-34546123D01*
X19659092Y-34260440D01*
X19622887Y-34224171D01*
X32272891Y-34224171D01*
X32368145Y-34454703D01*
X32544369Y-34631235D01*
X32774735Y-34726891D01*
X33024171Y-34727109D01*
X33254703Y-34631855D01*
X33299924Y-34586713D01*
X33344369Y-34631235D01*
X33574735Y-34726891D01*
X33824171Y-34727109D01*
X34054703Y-34631855D01*
X34099924Y-34586713D01*
X34144369Y-34631235D01*
X34374735Y-34726891D01*
X34624171Y-34727109D01*
X34854703Y-34631855D01*
X34899924Y-34586713D01*
X34944369Y-34631235D01*
X35174735Y-34726891D01*
X35424171Y-34727109D01*
X35654703Y-34631855D01*
X35699924Y-34586713D01*
X35744369Y-34631235D01*
X35974735Y-34726891D01*
X36224171Y-34727109D01*
X36454703Y-34631855D01*
X36499924Y-34586713D01*
X36544369Y-34631235D01*
X36774735Y-34726891D01*
X37024171Y-34727109D01*
X37254703Y-34631855D01*
X37299924Y-34586713D01*
X37344369Y-34631235D01*
X37574735Y-34726891D01*
X37824171Y-34727109D01*
X38054703Y-34631855D01*
X38099924Y-34586713D01*
X38144369Y-34631235D01*
X38374735Y-34726891D01*
X38624171Y-34727109D01*
X38854703Y-34631855D01*
X39031235Y-34455631D01*
X39126891Y-34225265D01*
X39127109Y-33975829D01*
X39031855Y-33745297D01*
X38855631Y-33568765D01*
X38625265Y-33473109D01*
X38375829Y-33472891D01*
X38145297Y-33568145D01*
X38100076Y-33613287D01*
X38055631Y-33568765D01*
X37825265Y-33473109D01*
X37575829Y-33472891D01*
X37345297Y-33568145D01*
X37300076Y-33613287D01*
X37255631Y-33568765D01*
X37025265Y-33473109D01*
X36775829Y-33472891D01*
X36545297Y-33568145D01*
X36500076Y-33613287D01*
X36455631Y-33568765D01*
X36225265Y-33473109D01*
X35975829Y-33472891D01*
X35745297Y-33568145D01*
X35700076Y-33613287D01*
X35655631Y-33568765D01*
X35425265Y-33473109D01*
X35175829Y-33472891D01*
X34945297Y-33568145D01*
X34900076Y-33613287D01*
X34855631Y-33568765D01*
X34625265Y-33473109D01*
X34375829Y-33472891D01*
X34145297Y-33568145D01*
X34100076Y-33613287D01*
X34055631Y-33568765D01*
X33825265Y-33473109D01*
X33575829Y-33472891D01*
X33345297Y-33568145D01*
X33300076Y-33613287D01*
X33255631Y-33568765D01*
X33025265Y-33473109D01*
X32775829Y-33472891D01*
X32545297Y-33568145D01*
X32368765Y-33744369D01*
X32273109Y-33974735D01*
X32272891Y-34224171D01*
X19622887Y-34224171D01*
X19440710Y-34041676D01*
X19155233Y-33923135D01*
X18846123Y-33922866D01*
X18560440Y-34040908D01*
X18341676Y-34259290D01*
X18223135Y-34544767D01*
X18222866Y-34853877D01*
X17776866Y-34853877D01*
X17777134Y-34546123D01*
X17659092Y-34260440D01*
X17440710Y-34041676D01*
X17155233Y-33923135D01*
X16846123Y-33922866D01*
X16560440Y-34040908D01*
X16341676Y-34259290D01*
X16223135Y-34544767D01*
X16222866Y-34853877D01*
X13776866Y-34853877D01*
X13777134Y-34546123D01*
X13659092Y-34260440D01*
X13440710Y-34041676D01*
X13155233Y-33923135D01*
X12846123Y-33922866D01*
X12560440Y-34040908D01*
X12341676Y-34259290D01*
X12223135Y-34544767D01*
X12222866Y-34853877D01*
X11776866Y-34853877D01*
X11777134Y-34546123D01*
X11659092Y-34260440D01*
X11440710Y-34041676D01*
X11155233Y-33923135D01*
X10846123Y-33922866D01*
X10560440Y-34040908D01*
X10341676Y-34259290D01*
X10223135Y-34544767D01*
X10222866Y-34853877D01*
X377000Y-34853877D01*
X377000Y-33124171D01*
X5122891Y-33124171D01*
X5218145Y-33354703D01*
X5394369Y-33531235D01*
X5624735Y-33626891D01*
X5874171Y-33627109D01*
X6104703Y-33531855D01*
X6281235Y-33355631D01*
X6376891Y-33125265D01*
X6377109Y-32875829D01*
X6363219Y-32842211D01*
X6802718Y-32842211D01*
X7049892Y-33440418D01*
X7507175Y-33898499D01*
X8104950Y-34146717D01*
X8752211Y-34147282D01*
X9350418Y-33900108D01*
X9808499Y-33442825D01*
X9928480Y-33153877D01*
X10722866Y-33153877D01*
X10840908Y-33439560D01*
X11059290Y-33658324D01*
X11344767Y-33776865D01*
X11653877Y-33777134D01*
X11939560Y-33659092D01*
X12158324Y-33440710D01*
X12276865Y-33155233D01*
X12276866Y-33153877D01*
X13222866Y-33153877D01*
X13340908Y-33439560D01*
X13559290Y-33658324D01*
X13844767Y-33776865D01*
X14153877Y-33777134D01*
X14439560Y-33659092D01*
X14658324Y-33440710D01*
X14776865Y-33155233D01*
X14776866Y-33153877D01*
X15222866Y-33153877D01*
X15340908Y-33439560D01*
X15559290Y-33658324D01*
X15844767Y-33776865D01*
X16153877Y-33777134D01*
X16439560Y-33659092D01*
X16658324Y-33440710D01*
X16776865Y-33155233D01*
X16777134Y-32846123D01*
X16775518Y-32842211D01*
X19942718Y-32842211D01*
X20189892Y-33440418D01*
X20647175Y-33898499D01*
X21244950Y-34146717D01*
X21892211Y-34147282D01*
X22490418Y-33900108D01*
X22948499Y-33442825D01*
X23196717Y-32845050D01*
X23197282Y-32197789D01*
X22950108Y-31599582D01*
X22492825Y-31141501D01*
X22158768Y-31002788D01*
X42278366Y-31002788D01*
X42395572Y-31286449D01*
X42612410Y-31503665D01*
X42895866Y-31621366D01*
X43202788Y-31621634D01*
X43486449Y-31504428D01*
X43703665Y-31287590D01*
X43821366Y-31004134D01*
X43821634Y-30697212D01*
X43704428Y-30413551D01*
X43487590Y-30196335D01*
X43204134Y-30078634D01*
X42897212Y-30078366D01*
X42613551Y-30195572D01*
X42396335Y-30412410D01*
X42278634Y-30695866D01*
X42278366Y-31002788D01*
X22158768Y-31002788D01*
X21895050Y-30893283D01*
X21247789Y-30892718D01*
X20649582Y-31139892D01*
X20191501Y-31597175D01*
X19943283Y-32194950D01*
X19942718Y-32842211D01*
X16775518Y-32842211D01*
X16659092Y-32560440D01*
X16440710Y-32341676D01*
X16155233Y-32223135D01*
X15846123Y-32222866D01*
X15560440Y-32340908D01*
X15341676Y-32559290D01*
X15223135Y-32844767D01*
X15222866Y-33153877D01*
X14776866Y-33153877D01*
X14777134Y-32846123D01*
X14659092Y-32560440D01*
X14440710Y-32341676D01*
X14155233Y-32223135D01*
X13846123Y-32222866D01*
X13560440Y-32340908D01*
X13341676Y-32559290D01*
X13223135Y-32844767D01*
X13222866Y-33153877D01*
X12276866Y-33153877D01*
X12277134Y-32846123D01*
X12159092Y-32560440D01*
X11940710Y-32341676D01*
X11655233Y-32223135D01*
X11346123Y-32222866D01*
X11060440Y-32340908D01*
X10841676Y-32559290D01*
X10723135Y-32844767D01*
X10722866Y-33153877D01*
X9928480Y-33153877D01*
X10056717Y-32845050D01*
X10057282Y-32197789D01*
X9832543Y-31653877D01*
X10222866Y-31653877D01*
X10340908Y-31939560D01*
X10559290Y-32158324D01*
X10844767Y-32276865D01*
X11153877Y-32277134D01*
X11439560Y-32159092D01*
X11658324Y-31940710D01*
X11776865Y-31655233D01*
X11776866Y-31653877D01*
X12222866Y-31653877D01*
X12340908Y-31939560D01*
X12559290Y-32158324D01*
X12844767Y-32276865D01*
X13153877Y-32277134D01*
X13439560Y-32159092D01*
X13658324Y-31940710D01*
X13776865Y-31655233D01*
X13776866Y-31653877D01*
X16222866Y-31653877D01*
X16340908Y-31939560D01*
X16559290Y-32158324D01*
X16844767Y-32276865D01*
X17153877Y-32277134D01*
X17439560Y-32159092D01*
X17658324Y-31940710D01*
X17776865Y-31655233D01*
X17776866Y-31653877D01*
X18222866Y-31653877D01*
X18340908Y-31939560D01*
X18559290Y-32158324D01*
X18844767Y-32276865D01*
X19153877Y-32277134D01*
X19439560Y-32159092D01*
X19658324Y-31940710D01*
X19776865Y-31655233D01*
X19777134Y-31346123D01*
X19659092Y-31060440D01*
X19440710Y-30841676D01*
X19155233Y-30723135D01*
X18846123Y-30722866D01*
X18560440Y-30840908D01*
X18341676Y-31059290D01*
X18223135Y-31344767D01*
X18222866Y-31653877D01*
X17776866Y-31653877D01*
X17777134Y-31346123D01*
X17659092Y-31060440D01*
X17440710Y-30841676D01*
X17155233Y-30723135D01*
X16846123Y-30722866D01*
X16560440Y-30840908D01*
X16341676Y-31059290D01*
X16223135Y-31344767D01*
X16222866Y-31653877D01*
X13776866Y-31653877D01*
X13777134Y-31346123D01*
X13659092Y-31060440D01*
X13440710Y-30841676D01*
X13155233Y-30723135D01*
X12846123Y-30722866D01*
X12560440Y-30840908D01*
X12341676Y-31059290D01*
X12223135Y-31344767D01*
X12222866Y-31653877D01*
X11776866Y-31653877D01*
X11777134Y-31346123D01*
X11659092Y-31060440D01*
X11440710Y-30841676D01*
X11155233Y-30723135D01*
X10846123Y-30722866D01*
X10560440Y-30840908D01*
X10341676Y-31059290D01*
X10223135Y-31344767D01*
X10222866Y-31653877D01*
X9832543Y-31653877D01*
X9810108Y-31599582D01*
X9352825Y-31141501D01*
X8755050Y-30893283D01*
X8107789Y-30892718D01*
X7509582Y-31139892D01*
X7051501Y-31597175D01*
X6803283Y-32194950D01*
X6802718Y-32842211D01*
X6363219Y-32842211D01*
X6281855Y-32645297D01*
X6105631Y-32468765D01*
X5875265Y-32373109D01*
X5625829Y-32372891D01*
X5395297Y-32468145D01*
X5218765Y-32644369D01*
X5123109Y-32874735D01*
X5122891Y-33124171D01*
X377000Y-33124171D01*
X377000Y-30474171D01*
X5972891Y-30474171D01*
X6068145Y-30704703D01*
X6244369Y-30881235D01*
X6474735Y-30976891D01*
X6724171Y-30977109D01*
X6954703Y-30881855D01*
X7131235Y-30705631D01*
X7226891Y-30475265D01*
X7227109Y-30225829D01*
X7131855Y-29995297D01*
X6955631Y-29818765D01*
X6725265Y-29723109D01*
X6475829Y-29722891D01*
X6245297Y-29818145D01*
X6068765Y-29994369D01*
X5973109Y-30224735D01*
X5972891Y-30474171D01*
X377000Y-30474171D01*
X377000Y-29574171D01*
X7972891Y-29574171D01*
X8068145Y-29804703D01*
X8244369Y-29981235D01*
X8474735Y-30076891D01*
X8724171Y-30077109D01*
X8954703Y-29981855D01*
X9033908Y-29902788D01*
X9228366Y-29902788D01*
X9345572Y-30186449D01*
X9562410Y-30403665D01*
X9845866Y-30521366D01*
X10152788Y-30521634D01*
X10436449Y-30404428D01*
X10653665Y-30187590D01*
X10771366Y-29904134D01*
X10771610Y-29624171D01*
X21122891Y-29624171D01*
X21218145Y-29854703D01*
X21394369Y-30031235D01*
X21624735Y-30126891D01*
X21874171Y-30127109D01*
X21881281Y-30124171D01*
X22622891Y-30124171D01*
X22718145Y-30354703D01*
X22894369Y-30531235D01*
X23124735Y-30626891D01*
X23374171Y-30627109D01*
X23604703Y-30531855D01*
X23781235Y-30355631D01*
X23876891Y-30125265D01*
X23877109Y-29875829D01*
X23781855Y-29645297D01*
X23605631Y-29468765D01*
X23375265Y-29373109D01*
X23125829Y-29372891D01*
X22895297Y-29468145D01*
X22718765Y-29644369D01*
X22623109Y-29874735D01*
X22622891Y-30124171D01*
X21881281Y-30124171D01*
X22104703Y-30031855D01*
X22281235Y-29855631D01*
X22376891Y-29625265D01*
X22377109Y-29375829D01*
X22281855Y-29145297D01*
X22105631Y-28968765D01*
X21875265Y-28873109D01*
X21625829Y-28872891D01*
X21395297Y-28968145D01*
X21218765Y-29144369D01*
X21123109Y-29374735D01*
X21122891Y-29624171D01*
X10771610Y-29624171D01*
X10771634Y-29597212D01*
X10654428Y-29313551D01*
X10437590Y-29096335D01*
X10154134Y-28978634D01*
X9847212Y-28978366D01*
X9563551Y-29095572D01*
X9346335Y-29312410D01*
X9228634Y-29595866D01*
X9228366Y-29902788D01*
X9033908Y-29902788D01*
X9131235Y-29805631D01*
X9226891Y-29575265D01*
X9227109Y-29325829D01*
X9131855Y-29095297D01*
X8955631Y-28918765D01*
X8725265Y-28823109D01*
X8475829Y-28822891D01*
X8245297Y-28918145D01*
X8068765Y-29094369D01*
X7973109Y-29324735D01*
X7972891Y-29574171D01*
X377000Y-29574171D01*
X377000Y-28652788D01*
X15728366Y-28652788D01*
X15845572Y-28936449D01*
X16062410Y-29153665D01*
X16345866Y-29271366D01*
X16652788Y-29271634D01*
X16936449Y-29154428D01*
X17153665Y-28937590D01*
X17271366Y-28654134D01*
X17271392Y-28624171D01*
X24622891Y-28624171D01*
X24718145Y-28854703D01*
X24894369Y-29031235D01*
X25124735Y-29126891D01*
X25374171Y-29127109D01*
X25604703Y-29031855D01*
X25781235Y-28855631D01*
X25876891Y-28625265D01*
X25877109Y-28375829D01*
X25781855Y-28145297D01*
X25605631Y-27968765D01*
X25375265Y-27873109D01*
X25125829Y-27872891D01*
X24895297Y-27968145D01*
X24718765Y-28144369D01*
X24623109Y-28374735D01*
X24622891Y-28624171D01*
X17271392Y-28624171D01*
X17271634Y-28347212D01*
X17154428Y-28063551D01*
X16937590Y-27846335D01*
X16654134Y-27728634D01*
X16347212Y-27728366D01*
X16063551Y-27845572D01*
X15846335Y-28062410D01*
X15728634Y-28345866D01*
X15728366Y-28652788D01*
X377000Y-28652788D01*
X377000Y-27802788D01*
X2978366Y-27802788D01*
X3095572Y-28086449D01*
X3312410Y-28303665D01*
X3595866Y-28421366D01*
X3902788Y-28421634D01*
X4186449Y-28304428D01*
X4403665Y-28087590D01*
X4521366Y-27804134D01*
X4521454Y-27702788D01*
X17178366Y-27702788D01*
X17295572Y-27986449D01*
X17512410Y-28203665D01*
X17795866Y-28321366D01*
X18102788Y-28321634D01*
X18386449Y-28204428D01*
X18603665Y-27987590D01*
X18721366Y-27704134D01*
X18721634Y-27397212D01*
X18604428Y-27113551D01*
X18387590Y-26896335D01*
X18104134Y-26778634D01*
X17797212Y-26778366D01*
X17513551Y-26895572D01*
X17296335Y-27112410D01*
X17178634Y-27395866D01*
X17178366Y-27702788D01*
X4521454Y-27702788D01*
X4521634Y-27497212D01*
X4404428Y-27213551D01*
X4187590Y-26996335D01*
X3904134Y-26878634D01*
X3597212Y-26878366D01*
X3313551Y-26995572D01*
X3096335Y-27212410D01*
X2978634Y-27495866D01*
X2978366Y-27802788D01*
X377000Y-27802788D01*
X377000Y-26252788D01*
X2728366Y-26252788D01*
X2845572Y-26536449D01*
X3062410Y-26753665D01*
X3345866Y-26871366D01*
X3652788Y-26871634D01*
X3936449Y-26754428D01*
X4153665Y-26537590D01*
X4271366Y-26254134D01*
X4271634Y-25947212D01*
X4154428Y-25663551D01*
X3937590Y-25446335D01*
X3763800Y-25374171D01*
X20122891Y-25374171D01*
X20218145Y-25604703D01*
X20394369Y-25781235D01*
X20624735Y-25876891D01*
X20874171Y-25877109D01*
X21104703Y-25781855D01*
X21281235Y-25605631D01*
X21376891Y-25375265D01*
X21377109Y-25125829D01*
X21281855Y-24895297D01*
X21105631Y-24718765D01*
X20877823Y-24624171D01*
X21872891Y-24624171D01*
X21968145Y-24854703D01*
X22144369Y-25031235D01*
X22374735Y-25126891D01*
X22624171Y-25127109D01*
X22854703Y-25031855D01*
X23031235Y-24855631D01*
X23065060Y-24774171D01*
X23522891Y-24774171D01*
X23618145Y-25004703D01*
X23794369Y-25181235D01*
X24024735Y-25276891D01*
X24274171Y-25277109D01*
X24504703Y-25181855D01*
X24681235Y-25005631D01*
X24776891Y-24775265D01*
X24777109Y-24525829D01*
X24681855Y-24295297D01*
X24505631Y-24118765D01*
X24275265Y-24023109D01*
X24025829Y-24022891D01*
X23795297Y-24118145D01*
X23618765Y-24294369D01*
X23523109Y-24524735D01*
X23522891Y-24774171D01*
X23065060Y-24774171D01*
X23126891Y-24625265D01*
X23127109Y-24375829D01*
X23031855Y-24145297D01*
X22855631Y-23968765D01*
X22625265Y-23873109D01*
X22375829Y-23872891D01*
X22145297Y-23968145D01*
X21968765Y-24144369D01*
X21873109Y-24374735D01*
X21872891Y-24624171D01*
X20877823Y-24624171D01*
X20875265Y-24623109D01*
X20625829Y-24622891D01*
X20395297Y-24718145D01*
X20218765Y-24894369D01*
X20123109Y-25124735D01*
X20122891Y-25374171D01*
X3763800Y-25374171D01*
X3654134Y-25328634D01*
X3347212Y-25328366D01*
X3063551Y-25445572D01*
X2846335Y-25662410D01*
X2728634Y-25945866D01*
X2728366Y-26252788D01*
X377000Y-26252788D01*
X377000Y-21352788D01*
X19828366Y-21352788D01*
X19945572Y-21636449D01*
X20162410Y-21853665D01*
X20445866Y-21971366D01*
X20752788Y-21971634D01*
X21036449Y-21854428D01*
X21253665Y-21637590D01*
X21371366Y-21354134D01*
X21371634Y-21047212D01*
X21254428Y-20763551D01*
X21037590Y-20546335D01*
X20754134Y-20428634D01*
X20447212Y-20428366D01*
X20163551Y-20545572D01*
X19946335Y-20762410D01*
X19828634Y-21045866D01*
X19828366Y-21352788D01*
X377000Y-21352788D01*
X377000Y-20250000D01*
X25373000Y-20250000D01*
X25373000Y-27000000D01*
X25383006Y-27049410D01*
X25410197Y-27089803D01*
X26827546Y-28507152D01*
X26613551Y-28595572D01*
X26396335Y-28812410D01*
X26278634Y-29095866D01*
X26278366Y-29402788D01*
X26395572Y-29686449D01*
X26612410Y-29903665D01*
X26895866Y-30021366D01*
X27202788Y-30021634D01*
X27486449Y-29904428D01*
X27703665Y-29687590D01*
X27821366Y-29404134D01*
X27821634Y-29097212D01*
X27720641Y-28852788D01*
X31928366Y-28852788D01*
X32045572Y-29136449D01*
X32262410Y-29353665D01*
X32545866Y-29471366D01*
X32852788Y-29471634D01*
X33136449Y-29354428D01*
X33353665Y-29137590D01*
X33409639Y-29002788D01*
X44778366Y-29002788D01*
X44895572Y-29286449D01*
X45112410Y-29503665D01*
X45395866Y-29621366D01*
X45702788Y-29621634D01*
X45986449Y-29504428D01*
X46203665Y-29287590D01*
X46321366Y-29004134D01*
X46321634Y-28697212D01*
X46204428Y-28413551D01*
X45987590Y-28196335D01*
X45704134Y-28078634D01*
X45397212Y-28078366D01*
X45113551Y-28195572D01*
X44896335Y-28412410D01*
X44778634Y-28695866D01*
X44778366Y-29002788D01*
X33409639Y-29002788D01*
X33471366Y-28854134D01*
X33471634Y-28547212D01*
X33354428Y-28263551D01*
X33137590Y-28046335D01*
X32854134Y-27928634D01*
X32547212Y-27928366D01*
X32263551Y-28045572D01*
X32046335Y-28262410D01*
X31928634Y-28545866D01*
X31928366Y-28852788D01*
X27720641Y-28852788D01*
X27704428Y-28813551D01*
X27518202Y-28627000D01*
X30250000Y-28627000D01*
X30299410Y-28616994D01*
X30339803Y-28589803D01*
X31339803Y-27589803D01*
X31367666Y-27547789D01*
X31377000Y-27500000D01*
X31377000Y-26274171D01*
X36672891Y-26274171D01*
X36768145Y-26504703D01*
X36944369Y-26681235D01*
X37174735Y-26776891D01*
X37424171Y-26777109D01*
X37654703Y-26681855D01*
X37831235Y-26505631D01*
X37926891Y-26275265D01*
X37927109Y-26025829D01*
X37831855Y-25795297D01*
X37655631Y-25618765D01*
X37425265Y-25523109D01*
X37175829Y-25522891D01*
X36945297Y-25618145D01*
X36768765Y-25794369D01*
X36673109Y-26024735D01*
X36672891Y-26274171D01*
X31377000Y-26274171D01*
X31377000Y-25802606D01*
X31552606Y-25627000D01*
X34800000Y-25627000D01*
X34849410Y-25616994D01*
X34891035Y-25588553D01*
X34918315Y-25546159D01*
X34927000Y-25500000D01*
X34927000Y-25474171D01*
X35372891Y-25474171D01*
X35468145Y-25704703D01*
X35644369Y-25881235D01*
X35874735Y-25976891D01*
X36124171Y-25977109D01*
X36354703Y-25881855D01*
X36531235Y-25705631D01*
X36626891Y-25475265D01*
X36627109Y-25225829D01*
X36531855Y-24995297D01*
X36355631Y-24818765D01*
X36125265Y-24723109D01*
X35875829Y-24722891D01*
X35645297Y-24818145D01*
X35468765Y-24994369D01*
X35373109Y-25224735D01*
X35372891Y-25474171D01*
X34927000Y-25474171D01*
X34927000Y-24474171D01*
X43672891Y-24474171D01*
X43768145Y-24704703D01*
X43944369Y-24881235D01*
X44174735Y-24976891D01*
X44424171Y-24977109D01*
X44654703Y-24881855D01*
X44831235Y-24705631D01*
X44926891Y-24475265D01*
X44927109Y-24225829D01*
X44831855Y-23995297D01*
X44655631Y-23818765D01*
X44425265Y-23723109D01*
X44175829Y-23722891D01*
X43945297Y-23818145D01*
X43768765Y-23994369D01*
X43673109Y-24224735D01*
X43672891Y-24474171D01*
X34927000Y-24474171D01*
X34927000Y-22552788D01*
X35528366Y-22552788D01*
X35645572Y-22836449D01*
X35862410Y-23053665D01*
X36145866Y-23171366D01*
X36452788Y-23171634D01*
X36736449Y-23054428D01*
X36953665Y-22837590D01*
X36988877Y-22752788D01*
X37228366Y-22752788D01*
X37345572Y-23036449D01*
X37562410Y-23253665D01*
X37845866Y-23371366D01*
X38152788Y-23371634D01*
X38436449Y-23254428D01*
X38653665Y-23037590D01*
X38771366Y-22754134D01*
X38771634Y-22447212D01*
X38654428Y-22163551D01*
X38437590Y-21946335D01*
X38154134Y-21828634D01*
X37847212Y-21828366D01*
X37563551Y-21945572D01*
X37346335Y-22162410D01*
X37228634Y-22445866D01*
X37228366Y-22752788D01*
X36988877Y-22752788D01*
X37071366Y-22554134D01*
X37071634Y-22247212D01*
X36954428Y-21963551D01*
X36737590Y-21746335D01*
X36454134Y-21628634D01*
X36147212Y-21628366D01*
X35863551Y-21745572D01*
X35646335Y-21962410D01*
X35528634Y-22245866D01*
X35528366Y-22552788D01*
X34927000Y-22552788D01*
X34927000Y-22500000D01*
X34916994Y-22450590D01*
X34888553Y-22408965D01*
X34846159Y-22381685D01*
X34800000Y-22373000D01*
X32765546Y-22373000D01*
X32826891Y-22225265D01*
X32827109Y-21975829D01*
X32731855Y-21745297D01*
X32555631Y-21568765D01*
X32325265Y-21473109D01*
X32075829Y-21472891D01*
X31845297Y-21568145D01*
X31668765Y-21744369D01*
X31627000Y-21844951D01*
X31627000Y-21500000D01*
X31616994Y-21450590D01*
X31589803Y-21410197D01*
X30732394Y-20552788D01*
X45278366Y-20552788D01*
X45395572Y-20836449D01*
X45612410Y-21053665D01*
X45895866Y-21171366D01*
X46202788Y-21171634D01*
X46486449Y-21054428D01*
X46703665Y-20837590D01*
X46821366Y-20554134D01*
X46821634Y-20247212D01*
X46704428Y-19963551D01*
X46487590Y-19746335D01*
X46204134Y-19628634D01*
X45897212Y-19628366D01*
X45613551Y-19745572D01*
X45396335Y-19962410D01*
X45278634Y-20245866D01*
X45278366Y-20552788D01*
X30732394Y-20552788D01*
X30627000Y-20447394D01*
X30627000Y-19750000D01*
X30616994Y-19700590D01*
X30589803Y-19660197D01*
X30089803Y-19160197D01*
X30047789Y-19132334D01*
X30000000Y-19123000D01*
X26500000Y-19123000D01*
X26450590Y-19133006D01*
X26410197Y-19160197D01*
X25410197Y-20160197D01*
X25382334Y-20202211D01*
X25373000Y-20250000D01*
X377000Y-20250000D01*
X377000Y-14902788D01*
X478366Y-14902788D01*
X595572Y-15186449D01*
X812410Y-15403665D01*
X1044632Y-15500092D01*
X813551Y-15595572D01*
X596335Y-15812410D01*
X478634Y-16095866D01*
X478366Y-16402788D01*
X595572Y-16686449D01*
X783933Y-16875138D01*
X596335Y-17062410D01*
X478634Y-17345866D01*
X478366Y-17652788D01*
X595572Y-17936449D01*
X812410Y-18153665D01*
X1095866Y-18271366D01*
X1402788Y-18271634D01*
X1686449Y-18154428D01*
X1903665Y-17937590D01*
X1918116Y-17902788D01*
X22728366Y-17902788D01*
X22845572Y-18186449D01*
X23062410Y-18403665D01*
X23345866Y-18521366D01*
X23652788Y-18521634D01*
X23936449Y-18404428D01*
X24153665Y-18187590D01*
X24271366Y-17904134D01*
X24271410Y-17852788D01*
X32228366Y-17852788D01*
X32345572Y-18136449D01*
X32562410Y-18353665D01*
X32845866Y-18471366D01*
X33152788Y-18471634D01*
X33436449Y-18354428D01*
X33438091Y-18352788D01*
X47328366Y-18352788D01*
X47445572Y-18636449D01*
X47662410Y-18853665D01*
X47945866Y-18971366D01*
X48252788Y-18971634D01*
X48536449Y-18854428D01*
X48753665Y-18637590D01*
X48871366Y-18354134D01*
X48871634Y-18047212D01*
X48754428Y-17763551D01*
X48537590Y-17546335D01*
X48254134Y-17428634D01*
X47947212Y-17428366D01*
X47663551Y-17545572D01*
X47446335Y-17762410D01*
X47328634Y-18045866D01*
X47328366Y-18352788D01*
X33438091Y-18352788D01*
X33653665Y-18137590D01*
X33771366Y-17854134D01*
X33771634Y-17547212D01*
X33654428Y-17263551D01*
X33437590Y-17046335D01*
X33212304Y-16952788D01*
X39828366Y-16952788D01*
X39945572Y-17236449D01*
X40162410Y-17453665D01*
X40445866Y-17571366D01*
X40752788Y-17571634D01*
X41036449Y-17454428D01*
X41253665Y-17237590D01*
X41371366Y-16954134D01*
X41371634Y-16647212D01*
X41254428Y-16363551D01*
X41037590Y-16146335D01*
X40754134Y-16028634D01*
X40447212Y-16028366D01*
X40163551Y-16145572D01*
X39946335Y-16362410D01*
X39828634Y-16645866D01*
X39828366Y-16952788D01*
X33212304Y-16952788D01*
X33154134Y-16928634D01*
X32847212Y-16928366D01*
X32563551Y-17045572D01*
X32346335Y-17262410D01*
X32228634Y-17545866D01*
X32228366Y-17852788D01*
X24271410Y-17852788D01*
X24271634Y-17597212D01*
X24154428Y-17313551D01*
X23937590Y-17096335D01*
X23654134Y-16978634D01*
X23347212Y-16978366D01*
X23063551Y-17095572D01*
X22846335Y-17312410D01*
X22728634Y-17595866D01*
X22728366Y-17902788D01*
X1918116Y-17902788D01*
X2021366Y-17654134D01*
X2021634Y-17347212D01*
X1904428Y-17063551D01*
X1716067Y-16874862D01*
X1903665Y-16687590D01*
X1918116Y-16652788D01*
X23828366Y-16652788D01*
X23945572Y-16936449D01*
X24162410Y-17153665D01*
X24445866Y-17271366D01*
X24752788Y-17271634D01*
X25036449Y-17154428D01*
X25253665Y-16937590D01*
X25371366Y-16654134D01*
X25371634Y-16347212D01*
X25254428Y-16063551D01*
X25037590Y-15846335D01*
X24754134Y-15728634D01*
X24447212Y-15728366D01*
X24163551Y-15845572D01*
X23946335Y-16062410D01*
X23828634Y-16345866D01*
X23828366Y-16652788D01*
X1918116Y-16652788D01*
X2021366Y-16404134D01*
X2021634Y-16097212D01*
X1904428Y-15813551D01*
X1687590Y-15596335D01*
X1455368Y-15499908D01*
X1686449Y-15404428D01*
X1903665Y-15187590D01*
X2021366Y-14904134D01*
X2021607Y-14627788D01*
X7228366Y-14627788D01*
X7345572Y-14911449D01*
X7562410Y-15128665D01*
X7845866Y-15246366D01*
X8152788Y-15246634D01*
X8436449Y-15129428D01*
X8653665Y-14912590D01*
X8657735Y-14902788D01*
X23228366Y-14902788D01*
X23345572Y-15186449D01*
X23562410Y-15403665D01*
X23845866Y-15521366D01*
X24152788Y-15521634D01*
X24436449Y-15404428D01*
X24488179Y-15352788D01*
X25028366Y-15352788D01*
X25145572Y-15636449D01*
X25362410Y-15853665D01*
X25645866Y-15971366D01*
X25952788Y-15971634D01*
X26236449Y-15854428D01*
X26453665Y-15637590D01*
X26536238Y-15438730D01*
X42067852Y-15438730D01*
X42197288Y-15751989D01*
X42436750Y-15991870D01*
X42749783Y-16121852D01*
X43088730Y-16122148D01*
X43401989Y-15992712D01*
X43555057Y-15839911D01*
X43706750Y-15991870D01*
X44019783Y-16121852D01*
X44358730Y-16122148D01*
X44671989Y-15992712D01*
X44825057Y-15839911D01*
X44976750Y-15991870D01*
X45289783Y-16121852D01*
X45628730Y-16122148D01*
X45941989Y-15992712D01*
X46095057Y-15839911D01*
X46246750Y-15991870D01*
X46559783Y-16121852D01*
X46898730Y-16122148D01*
X47211989Y-15992712D01*
X47365057Y-15839911D01*
X47516750Y-15991870D01*
X47829783Y-16121852D01*
X48168730Y-16122148D01*
X48481989Y-15992712D01*
X48721870Y-15753250D01*
X48851852Y-15440217D01*
X48852148Y-15101270D01*
X48722712Y-14788011D01*
X48721707Y-14787004D01*
X48757474Y-14763988D01*
X48832138Y-14654714D01*
X48858406Y-14525000D01*
X48858406Y-13475000D01*
X48835605Y-13353821D01*
X48763988Y-13242526D01*
X48654714Y-13167862D01*
X48525000Y-13141594D01*
X47475000Y-13141594D01*
X47353821Y-13164395D01*
X47242526Y-13236012D01*
X47167862Y-13345286D01*
X47141594Y-13475000D01*
X47141594Y-14518376D01*
X46900217Y-14418148D01*
X46561270Y-14417852D01*
X46248011Y-14547288D01*
X46094943Y-14700089D01*
X45943250Y-14548130D01*
X45630217Y-14418148D01*
X45291270Y-14417852D01*
X44978011Y-14547288D01*
X44824943Y-14700089D01*
X44673250Y-14548130D01*
X44360217Y-14418148D01*
X44021270Y-14417852D01*
X43708011Y-14547288D01*
X43554943Y-14700089D01*
X43403250Y-14548130D01*
X43090217Y-14418148D01*
X42751270Y-14417852D01*
X42438011Y-14547288D01*
X42198130Y-14786750D01*
X42068148Y-15099783D01*
X42067852Y-15438730D01*
X26536238Y-15438730D01*
X26571366Y-15354134D01*
X26571634Y-15047212D01*
X26454428Y-14763551D01*
X26237590Y-14546335D01*
X25954134Y-14428634D01*
X25647212Y-14428366D01*
X25363551Y-14545572D01*
X25146335Y-14762410D01*
X25028634Y-15045866D01*
X25028366Y-15352788D01*
X24488179Y-15352788D01*
X24653665Y-15187590D01*
X24771366Y-14904134D01*
X24771634Y-14597212D01*
X24654428Y-14313551D01*
X24437590Y-14096335D01*
X24154134Y-13978634D01*
X23847212Y-13978366D01*
X23563551Y-14095572D01*
X23346335Y-14312410D01*
X23228634Y-14595866D01*
X23228366Y-14902788D01*
X8657735Y-14902788D01*
X8771366Y-14629134D01*
X8771634Y-14322212D01*
X8654428Y-14038551D01*
X8437590Y-13821335D01*
X8154134Y-13703634D01*
X7847212Y-13703366D01*
X7563551Y-13820572D01*
X7346335Y-14037410D01*
X7228634Y-14320866D01*
X7228366Y-14627788D01*
X2021607Y-14627788D01*
X2021634Y-14597212D01*
X1904428Y-14313551D01*
X1687590Y-14096335D01*
X1404134Y-13978634D01*
X1097212Y-13978366D01*
X813551Y-14095572D01*
X596335Y-14312410D01*
X478634Y-14595866D01*
X478366Y-14902788D01*
X377000Y-14902788D01*
X377000Y-9292798D01*
X7672771Y-9292798D01*
X7874369Y-9780703D01*
X8247334Y-10154319D01*
X8734885Y-10356769D01*
X9262798Y-10357229D01*
X9750703Y-10155631D01*
X9792922Y-10113485D01*
X13617830Y-10113485D01*
X13766256Y-10472703D01*
X14040851Y-10747778D01*
X14399810Y-10896830D01*
X14788485Y-10897170D01*
X15147703Y-10748744D01*
X15422778Y-10474149D01*
X15571830Y-10115190D01*
X15571831Y-10113485D01*
X15647830Y-10113485D01*
X15796256Y-10472703D01*
X16070851Y-10747778D01*
X16429810Y-10896830D01*
X16818485Y-10897170D01*
X17177703Y-10748744D01*
X17452778Y-10474149D01*
X17601830Y-10115190D01*
X17601831Y-10113485D01*
X17677830Y-10113485D01*
X17826256Y-10472703D01*
X18100851Y-10747778D01*
X18459810Y-10896830D01*
X18848485Y-10897170D01*
X19207703Y-10748744D01*
X19482778Y-10474149D01*
X19631830Y-10115190D01*
X19631831Y-10113485D01*
X19707830Y-10113485D01*
X19856256Y-10472703D01*
X20130851Y-10747778D01*
X20489810Y-10896830D01*
X20878485Y-10897170D01*
X21237703Y-10748744D01*
X21512778Y-10474149D01*
X21661830Y-10115190D01*
X21662170Y-9726515D01*
X21631707Y-9652788D01*
X23728366Y-9652788D01*
X23845572Y-9936449D01*
X24062410Y-10153665D01*
X24345866Y-10271366D01*
X24652788Y-10271634D01*
X24936449Y-10154428D01*
X24977463Y-10113485D01*
X29367830Y-10113485D01*
X29516256Y-10472703D01*
X29790851Y-10747778D01*
X30149810Y-10896830D01*
X30538485Y-10897170D01*
X30897703Y-10748744D01*
X31172778Y-10474149D01*
X31321830Y-10115190D01*
X31321831Y-10113485D01*
X31397830Y-10113485D01*
X31546256Y-10472703D01*
X31820851Y-10747778D01*
X32179810Y-10896830D01*
X32568485Y-10897170D01*
X32927703Y-10748744D01*
X33202778Y-10474149D01*
X33351830Y-10115190D01*
X33351831Y-10113485D01*
X33427830Y-10113485D01*
X33576256Y-10472703D01*
X33850851Y-10747778D01*
X34209810Y-10896830D01*
X34598485Y-10897170D01*
X34957703Y-10748744D01*
X35232778Y-10474149D01*
X35381830Y-10115190D01*
X35381831Y-10113485D01*
X35457830Y-10113485D01*
X35606256Y-10472703D01*
X35880851Y-10747778D01*
X36239810Y-10896830D01*
X36628485Y-10897170D01*
X36987703Y-10748744D01*
X37262778Y-10474149D01*
X37411830Y-10115190D01*
X37412170Y-9726515D01*
X37263744Y-9367297D01*
X37189375Y-9292798D01*
X39672771Y-9292798D01*
X39874369Y-9780703D01*
X40247334Y-10154319D01*
X40734885Y-10356769D01*
X41262798Y-10357229D01*
X41750703Y-10155631D01*
X42124319Y-9782666D01*
X42326769Y-9295115D01*
X42327229Y-8767202D01*
X42125631Y-8279297D01*
X41752666Y-7905681D01*
X41265115Y-7703231D01*
X40737202Y-7702771D01*
X40249297Y-7904369D01*
X39875681Y-8277334D01*
X39673231Y-8764885D01*
X39672771Y-9292798D01*
X37189375Y-9292798D01*
X36989149Y-9092222D01*
X36630190Y-8943170D01*
X36241515Y-8942830D01*
X35882297Y-9091256D01*
X35607222Y-9365851D01*
X35458170Y-9724810D01*
X35457830Y-10113485D01*
X35381831Y-10113485D01*
X35382170Y-9726515D01*
X35233744Y-9367297D01*
X34959149Y-9092222D01*
X34600190Y-8943170D01*
X34211515Y-8942830D01*
X33852297Y-9091256D01*
X33577222Y-9365851D01*
X33428170Y-9724810D01*
X33427830Y-10113485D01*
X33351831Y-10113485D01*
X33352170Y-9726515D01*
X33203744Y-9367297D01*
X32929149Y-9092222D01*
X32570190Y-8943170D01*
X32181515Y-8942830D01*
X31822297Y-9091256D01*
X31547222Y-9365851D01*
X31398170Y-9724810D01*
X31397830Y-10113485D01*
X31321831Y-10113485D01*
X31322170Y-9726515D01*
X31173744Y-9367297D01*
X30899149Y-9092222D01*
X30540190Y-8943170D01*
X30151515Y-8942830D01*
X29792297Y-9091256D01*
X29517222Y-9365851D01*
X29368170Y-9724810D01*
X29367830Y-10113485D01*
X24977463Y-10113485D01*
X25153665Y-9937590D01*
X25271366Y-9654134D01*
X25271634Y-9347212D01*
X25154428Y-9063551D01*
X24937590Y-8846335D01*
X24654134Y-8728634D01*
X24347212Y-8728366D01*
X24063551Y-8845572D01*
X23846335Y-9062410D01*
X23728634Y-9345866D01*
X23728366Y-9652788D01*
X21631707Y-9652788D01*
X21513744Y-9367297D01*
X21239149Y-9092222D01*
X20880190Y-8943170D01*
X20491515Y-8942830D01*
X20132297Y-9091256D01*
X19857222Y-9365851D01*
X19708170Y-9724810D01*
X19707830Y-10113485D01*
X19631831Y-10113485D01*
X19632170Y-9726515D01*
X19483744Y-9367297D01*
X19209149Y-9092222D01*
X18850190Y-8943170D01*
X18461515Y-8942830D01*
X18102297Y-9091256D01*
X17827222Y-9365851D01*
X17678170Y-9724810D01*
X17677830Y-10113485D01*
X17601831Y-10113485D01*
X17602170Y-9726515D01*
X17453744Y-9367297D01*
X17179149Y-9092222D01*
X16820190Y-8943170D01*
X16431515Y-8942830D01*
X16072297Y-9091256D01*
X15797222Y-9365851D01*
X15648170Y-9724810D01*
X15647830Y-10113485D01*
X15571831Y-10113485D01*
X15572170Y-9726515D01*
X15423744Y-9367297D01*
X15149149Y-9092222D01*
X14790190Y-8943170D01*
X14401515Y-8942830D01*
X14042297Y-9091256D01*
X13767222Y-9365851D01*
X13618170Y-9724810D01*
X13617830Y-10113485D01*
X9792922Y-10113485D01*
X10124319Y-9782666D01*
X10326769Y-9295115D01*
X10327229Y-8767202D01*
X10148021Y-8333485D01*
X12597830Y-8333485D01*
X12746256Y-8692703D01*
X13020851Y-8967778D01*
X13379810Y-9116830D01*
X13768485Y-9117170D01*
X14127703Y-8968744D01*
X14402778Y-8694149D01*
X14551830Y-8335190D01*
X14551831Y-8333485D01*
X16657830Y-8333485D01*
X16806256Y-8692703D01*
X17080851Y-8967778D01*
X17439810Y-9116830D01*
X17828485Y-9117170D01*
X18187703Y-8968744D01*
X18462778Y-8694149D01*
X18611830Y-8335190D01*
X18611831Y-8333485D01*
X28347830Y-8333485D01*
X28496256Y-8692703D01*
X28770851Y-8967778D01*
X29129810Y-9116830D01*
X29518485Y-9117170D01*
X29877703Y-8968744D01*
X30152778Y-8694149D01*
X30301830Y-8335190D01*
X30301831Y-8333485D01*
X32407830Y-8333485D01*
X32556256Y-8692703D01*
X32830851Y-8967778D01*
X33189810Y-9116830D01*
X33578485Y-9117170D01*
X33937703Y-8968744D01*
X34212778Y-8694149D01*
X34361830Y-8335190D01*
X34362170Y-7946515D01*
X34213744Y-7587297D01*
X33939149Y-7312222D01*
X33580190Y-7163170D01*
X33191515Y-7162830D01*
X32832297Y-7311256D01*
X32557222Y-7585851D01*
X32408170Y-7944810D01*
X32407830Y-8333485D01*
X30301831Y-8333485D01*
X30302170Y-7946515D01*
X30153744Y-7587297D01*
X29879149Y-7312222D01*
X29520190Y-7163170D01*
X29131515Y-7162830D01*
X28772297Y-7311256D01*
X28497222Y-7585851D01*
X28348170Y-7944810D01*
X28347830Y-8333485D01*
X18611831Y-8333485D01*
X18612170Y-7946515D01*
X18463744Y-7587297D01*
X18189149Y-7312222D01*
X17830190Y-7163170D01*
X17441515Y-7162830D01*
X17082297Y-7311256D01*
X16807222Y-7585851D01*
X16658170Y-7944810D01*
X16657830Y-8333485D01*
X14551831Y-8333485D01*
X14552170Y-7946515D01*
X14403744Y-7587297D01*
X14129149Y-7312222D01*
X13770190Y-7163170D01*
X13381515Y-7162830D01*
X13022297Y-7311256D01*
X12747222Y-7585851D01*
X12598170Y-7944810D01*
X12597830Y-8333485D01*
X10148021Y-8333485D01*
X10125631Y-8279297D01*
X9752666Y-7905681D01*
X9265115Y-7703231D01*
X8737202Y-7702771D01*
X8249297Y-7904369D01*
X7875681Y-8277334D01*
X7673231Y-8764885D01*
X7672771Y-9292798D01*
X377000Y-9292798D01*
X377000Y-4658878D01*
X672424Y-4658878D01*
X1177862Y-5882132D01*
X2112945Y-6818849D01*
X3335315Y-7326421D01*
X4658878Y-7327576D01*
X5882132Y-6822138D01*
X6644762Y-6060838D01*
X8447597Y-6060838D01*
X8801115Y-6916418D01*
X9455139Y-7571585D01*
X10310100Y-7926596D01*
X11235838Y-7927403D01*
X12091418Y-7573885D01*
X12746585Y-6919861D01*
X13101596Y-6064900D01*
X13101599Y-6060838D01*
X36897597Y-6060838D01*
X37251115Y-6916418D01*
X37905139Y-7571585D01*
X38760100Y-7926596D01*
X39685838Y-7927403D01*
X40541418Y-7573885D01*
X41196585Y-6919861D01*
X41551596Y-6064900D01*
X41552403Y-5139162D01*
X41353954Y-4658878D01*
X42672424Y-4658878D01*
X43177862Y-5882132D01*
X44112945Y-6818849D01*
X45335315Y-7326421D01*
X46658878Y-7327576D01*
X47882132Y-6822138D01*
X48818849Y-5887055D01*
X49326421Y-4664685D01*
X49327576Y-3341122D01*
X48822138Y-2117868D01*
X47887055Y-1181151D01*
X46664685Y-673579D01*
X45341122Y-672424D01*
X44117868Y-1177862D01*
X43181151Y-2112945D01*
X42673579Y-3335315D01*
X42672424Y-4658878D01*
X41353954Y-4658878D01*
X41198885Y-4283582D01*
X40544861Y-3628415D01*
X39689900Y-3273404D01*
X38764162Y-3272597D01*
X37908582Y-3626115D01*
X37253415Y-4280139D01*
X36898404Y-5135100D01*
X36897597Y-6060838D01*
X13101599Y-6060838D01*
X13102391Y-5152788D01*
X19478366Y-5152788D01*
X19595572Y-5436449D01*
X19812410Y-5653665D01*
X20095866Y-5771366D01*
X20402788Y-5771634D01*
X20686449Y-5654428D01*
X20903665Y-5437590D01*
X21021366Y-5154134D01*
X21021367Y-5152788D01*
X22228366Y-5152788D01*
X22345572Y-5436449D01*
X22562410Y-5653665D01*
X22845866Y-5771366D01*
X23152788Y-5771634D01*
X23436449Y-5654428D01*
X23653665Y-5437590D01*
X23668116Y-5402788D01*
X27978366Y-5402788D01*
X28095572Y-5686449D01*
X28312410Y-5903665D01*
X28595866Y-6021366D01*
X28902788Y-6021634D01*
X29186449Y-5904428D01*
X29403665Y-5687590D01*
X29521366Y-5404134D01*
X29521634Y-5097212D01*
X29441300Y-4902788D01*
X34728366Y-4902788D01*
X34845572Y-5186449D01*
X35062410Y-5403665D01*
X35345866Y-5521366D01*
X35652788Y-5521634D01*
X35936449Y-5404428D01*
X36153665Y-5187590D01*
X36271366Y-4904134D01*
X36271634Y-4597212D01*
X36154428Y-4313551D01*
X35937590Y-4096335D01*
X35654134Y-3978634D01*
X35347212Y-3978366D01*
X35063551Y-4095572D01*
X34846335Y-4312410D01*
X34728634Y-4595866D01*
X34728366Y-4902788D01*
X29441300Y-4902788D01*
X29404428Y-4813551D01*
X29187590Y-4596335D01*
X28904134Y-4478634D01*
X28597212Y-4478366D01*
X28313551Y-4595572D01*
X28096335Y-4812410D01*
X27978634Y-5095866D01*
X27978366Y-5402788D01*
X23668116Y-5402788D01*
X23771366Y-5154134D01*
X23771634Y-4847212D01*
X23654428Y-4563551D01*
X23437590Y-4346335D01*
X23154134Y-4228634D01*
X22847212Y-4228366D01*
X22563551Y-4345572D01*
X22346335Y-4562410D01*
X22228634Y-4845866D01*
X22228366Y-5152788D01*
X21021367Y-5152788D01*
X21021634Y-4847212D01*
X20904428Y-4563551D01*
X20687590Y-4346335D01*
X20404134Y-4228634D01*
X20097212Y-4228366D01*
X19813551Y-4345572D01*
X19596335Y-4562410D01*
X19478634Y-4845866D01*
X19478366Y-5152788D01*
X13102391Y-5152788D01*
X13102403Y-5139162D01*
X12748885Y-4283582D01*
X12094861Y-3628415D01*
X11551492Y-3402788D01*
X19478366Y-3402788D01*
X19595572Y-3686449D01*
X19812410Y-3903665D01*
X20095866Y-4021366D01*
X20402788Y-4021634D01*
X20686449Y-3904428D01*
X20903665Y-3687590D01*
X21021366Y-3404134D01*
X21021634Y-3097212D01*
X20904428Y-2813551D01*
X20687590Y-2596335D01*
X20404134Y-2478634D01*
X20097212Y-2478366D01*
X19813551Y-2595572D01*
X19596335Y-2812410D01*
X19478634Y-3095866D01*
X19478366Y-3402788D01*
X11551492Y-3402788D01*
X11239900Y-3273404D01*
X10314162Y-3272597D01*
X9458582Y-3626115D01*
X8803415Y-4280139D01*
X8448404Y-5135100D01*
X8447597Y-6060838D01*
X6644762Y-6060838D01*
X6818849Y-5887055D01*
X7326421Y-4664685D01*
X7327576Y-3341122D01*
X6822138Y-2117868D01*
X6108306Y-1402788D01*
X19478366Y-1402788D01*
X19595572Y-1686449D01*
X19812410Y-1903665D01*
X20095866Y-2021366D01*
X20402788Y-2021634D01*
X20686449Y-1904428D01*
X20903665Y-1687590D01*
X21021366Y-1404134D01*
X21021634Y-1097212D01*
X20904428Y-813551D01*
X20687590Y-596335D01*
X20404134Y-478634D01*
X20097212Y-478366D01*
X19813551Y-595572D01*
X19596335Y-812410D01*
X19478634Y-1095866D01*
X19478366Y-1402788D01*
X6108306Y-1402788D01*
X5887055Y-1181151D01*
X4664685Y-673579D01*
X3341122Y-672424D01*
X2117868Y-1177862D01*
X1181151Y-2112945D01*
X673579Y-3335315D01*
X672424Y-4658878D01*
X377000Y-4658878D01*
X377000Y-377000D01*
X49623000Y-377000D01*
X49623000Y-49623000D01*
M02*
