G04 #@! TF.FileFunction,Legend,Bot*
%FSLAX46Y46*%
G04 Gerber Fmt 4.6, Leading zero omitted, Abs format (unit mm)*
G04 Created by KiCad (PCBNEW 4.0.7-e0-6372~58~ubuntu16.10.1) date Mon Feb 25 01:17:52 2019*
%MOMM*%
%LPD*%
G01*
G04 APERTURE LIST*
%ADD10C,0.100000*%
%ADD11C,0.120000*%
%ADD12C,0.150000*%
G04 APERTURE END LIST*
D10*
D11*
X17640000Y-1170000D02*
X17640000Y-3830000D01*
X9960000Y-1170000D02*
X17640000Y-1170000D01*
X9960000Y-3830000D02*
X17640000Y-3830000D01*
X9960000Y-1170000D02*
X9960000Y-3830000D01*
X8690000Y-1170000D02*
X7360000Y-1170000D01*
X7360000Y-1170000D02*
X7360000Y-2500000D01*
X7360000Y-32830000D02*
X7360000Y-30170000D01*
X15040000Y-32830000D02*
X7360000Y-32830000D01*
X15040000Y-30170000D02*
X7360000Y-30170000D01*
X15040000Y-32830000D02*
X15040000Y-30170000D01*
X16310000Y-32830000D02*
X17640000Y-32830000D01*
X17640000Y-32830000D02*
X17640000Y-31500000D01*
D12*
X8773333Y-4202381D02*
X8773333Y-4916667D01*
X8820953Y-5059524D01*
X8916191Y-5154762D01*
X9059048Y-5202381D01*
X9154286Y-5202381D01*
X7773333Y-5202381D02*
X8344762Y-5202381D01*
X8059048Y-5202381D02*
X8059048Y-4202381D01*
X8154286Y-4345238D01*
X8249524Y-4440476D01*
X8344762Y-4488095D01*
X17833333Y-28452381D02*
X17833333Y-29166667D01*
X17880953Y-29309524D01*
X17976191Y-29404762D01*
X18119048Y-29452381D01*
X18214286Y-29452381D01*
X17404762Y-28547619D02*
X17357143Y-28500000D01*
X17261905Y-28452381D01*
X17023809Y-28452381D01*
X16928571Y-28500000D01*
X16880952Y-28547619D01*
X16833333Y-28642857D01*
X16833333Y-28738095D01*
X16880952Y-28880952D01*
X17452381Y-29452381D01*
X16833333Y-29452381D01*
M02*
