M48
;DRILL file {KiCad 4.0.7-e0-6372~58~ubuntu16.10.1} date Mon Feb 25 01:18:00 2019
;FORMAT={-:-/ absolute / metric / decimal}
FMAT,2
METRIC,TZ
T1C0.600
T2C0.800
T3C0.900
T4C1.000
%
G90
G05
M71
T1
X3.5Y-19.25
X9.5Y-21.25
X9.75Y-26.75
X13.Y-18.
X15.25Y-24.25
X21.75Y-25.75
T2
X2.1Y-4.
X2.1Y-11.
X5.5Y-4.
X5.5Y-11.
X19.6Y-4.
X19.6Y-11.
X23.Y-4.
X23.Y-11.
T3
X2.5Y-7.5
X5.04Y-7.5
X19.96Y-7.5
X22.5Y-7.5
T4
X8.69Y-2.5
X8.69Y-31.5
X11.23Y-2.5
X11.23Y-31.5
X13.77Y-2.5
X13.77Y-31.5
X16.31Y-2.5
X16.31Y-31.5
T0
M30
