G04 #@! TF.FileFunction,Soldermask,Top*
%FSLAX46Y46*%
G04 Gerber Fmt 4.6, Leading zero omitted, Abs format (unit mm)*
G04 Created by KiCad (PCBNEW 4.0.7-e0-6372~58~ubuntu16.10.1) date Mon Feb 25 01:17:52 2019*
%MOMM*%
%LPD*%
G01*
G04 APERTURE LIST*
%ADD10C,0.100000*%
%ADD11R,1.300000X1.300000*%
%ADD12R,1.400000X1.700000*%
%ADD13R,1.600000X1.300000*%
%ADD14R,2.400000X2.100000*%
%ADD15R,2.200000X2.200000*%
%ADD16C,2.200000*%
%ADD17R,1.700000X1.400000*%
%ADD18C,1.900000*%
%ADD19R,2.400000X1.700000*%
%ADD20R,2.400000X2.400000*%
%ADD21R,1.460000X1.050000*%
%ADD22R,2.100000X2.100000*%
%ADD23O,2.100000X2.100000*%
G04 APERTURE END LIST*
D10*
D11*
X16000000Y-25050000D03*
X16000000Y-26950000D03*
X9500000Y-20200000D03*
X9500000Y-18300000D03*
D12*
X9200000Y-16000000D03*
X11300000Y-16000000D03*
X14450000Y-15750000D03*
X16550000Y-15750000D03*
D13*
X8750000Y-7600000D03*
X8750000Y-10900000D03*
X16500000Y-7600000D03*
X16500000Y-10900000D03*
D14*
X23250000Y-7500000D03*
X19250000Y-7500000D03*
D15*
X22500000Y-7500000D03*
D16*
X19960000Y-7500000D03*
D14*
X2000000Y-7500000D03*
X6000000Y-7500000D03*
D15*
X2500000Y-7500000D03*
D16*
X5040000Y-7500000D03*
D17*
X2250000Y-15200000D03*
X2250000Y-17300000D03*
X22250000Y-18300000D03*
X22250000Y-16200000D03*
X14000000Y-7450000D03*
X14000000Y-9550000D03*
X11250000Y-7450000D03*
X11250000Y-9550000D03*
D12*
X9200000Y-13750000D03*
X11300000Y-13750000D03*
X14450000Y-13500000D03*
X16550000Y-13500000D03*
D18*
X23000000Y-11000000D03*
X19600000Y-11000000D03*
X23000000Y-4000000D03*
X19600000Y-4000000D03*
X5500000Y-11000000D03*
X2100000Y-11000000D03*
X5500000Y-4000000D03*
X2100000Y-4000000D03*
D19*
X8250000Y-24350000D03*
D20*
X4250000Y-25500000D03*
D19*
X8250000Y-26650000D03*
X14500000Y-21400000D03*
D20*
X18500000Y-20250000D03*
D19*
X14500000Y-19100000D03*
D21*
X4650000Y-18300000D03*
X4650000Y-19250000D03*
X4650000Y-20200000D03*
X6850000Y-20200000D03*
X6850000Y-18300000D03*
X20600000Y-26700000D03*
X20600000Y-25750000D03*
X20600000Y-24800000D03*
X18400000Y-24800000D03*
X18400000Y-26700000D03*
D12*
X13300000Y-25500000D03*
X11200000Y-25500000D03*
D22*
X8690000Y-2500000D03*
D23*
X11230000Y-2500000D03*
X13770000Y-2500000D03*
X16310000Y-2500000D03*
D22*
X16310000Y-31500000D03*
D23*
X13770000Y-31500000D03*
X11230000Y-31500000D03*
X8690000Y-31500000D03*
M02*
