M48
; DRILL file {KiCad 5.1.4+dfsg1-1} date Sa 06 Jun 2020 10:49:20 CEST
; FORMAT={-:-/ absolute / metric / decimal}
; #@! TF.CreationDate,2020-06-06T10:49:20+02:00
; #@! TF.GenerationSoftware,Kicad,Pcbnew,5.1.4+dfsg1-1
; #@! TF.FileFunction,NonPlated,1,2,NPTH
FMAT,2
METRIC
T1C1.650
T2C1.700
T3C3.200
%
G90
G05
T1
X100.69Y-62.86
X27.69Y-62.86
X137.19Y-62.86
T2
X91.0Y-166.0
X96.0Y-166.0
X155.5Y-166.0
X160.5Y-166.0
X48.0Y-166.0
X53.0Y-166.0
X26.5Y-166.0
X31.5Y-166.0
X177.0Y-166.0
X182.0Y-166.0
X134.0Y-166.0
X139.0Y-166.0
X112.5Y-166.0
X117.5Y-166.0
X69.5Y-166.0
X74.5Y-166.0
T3
X171.0Y-76.0
X32.0Y-84.0
X40.0Y-140.0
X170.0Y-140.0
T0
M30
