G04 #@! TF.GenerationSoftware,KiCad,Pcbnew,5.1.4+dfsg1-1*
G04 #@! TF.CreationDate,2020-06-06T10:49:10+02:00*
G04 #@! TF.ProjectId,Midi_Merger,4d696469-5f4d-4657-9267-65722e6b6963,rev?*
G04 #@! TF.SameCoordinates,Original*
G04 #@! TF.FileFunction,Soldermask,Bot*
G04 #@! TF.FilePolarity,Negative*
%FSLAX46Y46*%
G04 Gerber Fmt 4.6, Leading zero omitted, Abs format (unit mm)*
G04 Created by KiCad (PCBNEW 5.1.4+dfsg1-1) date 2020-06-06 10:49:10*
%MOMM*%
%LPD*%
G04 APERTURE LIST*
%ADD10C,3.100000*%
%ADD11C,2.800000*%
%ADD12O,2.100000X2.100000*%
%ADD13R,2.100000X2.100000*%
%ADD14C,1.400000*%
%ADD15O,2.200000X2.200000*%
%ADD16R,2.200000X2.200000*%
%ADD17C,3.600000*%
%ADD18R,1.400000X1.700000*%
%ADD19C,1.900000*%
%ADD20C,2.650000*%
%ADD21C,2.100000*%
%ADD22C,0.254000*%
G04 APERTURE END LIST*
D10*
X182000000Y-166000000D03*
X177000000Y-166000000D03*
D11*
X187000000Y-151000000D03*
X187000000Y-156000000D03*
X179500000Y-151000000D03*
X172000000Y-151000000D03*
X179500000Y-156000000D03*
X172000000Y-156000000D03*
X184500000Y-153500000D03*
X174500000Y-153500000D03*
D10*
X139000000Y-166000000D03*
X134000000Y-166000000D03*
D11*
X144000000Y-151000000D03*
X144000000Y-156000000D03*
X136500000Y-151000000D03*
X129000000Y-151000000D03*
X136500000Y-156000000D03*
X129000000Y-156000000D03*
X141500000Y-153500000D03*
X131500000Y-153500000D03*
D10*
X160500000Y-166000000D03*
X155500000Y-166000000D03*
D11*
X165500000Y-151000000D03*
X165500000Y-156000000D03*
X158000000Y-151000000D03*
X150500000Y-151000000D03*
X158000000Y-156000000D03*
X150500000Y-156000000D03*
X163000000Y-153500000D03*
X153000000Y-153500000D03*
D10*
X96000000Y-166000000D03*
X91000000Y-166000000D03*
D11*
X101000000Y-151000000D03*
X101000000Y-156000000D03*
X93500000Y-151000000D03*
X86000000Y-151000000D03*
X93500000Y-156000000D03*
X86000000Y-156000000D03*
X98500000Y-153500000D03*
X88500000Y-153500000D03*
D10*
X117500000Y-166000000D03*
X112500000Y-166000000D03*
D11*
X122500000Y-151000000D03*
X122500000Y-156000000D03*
X115000000Y-151000000D03*
X107500000Y-151000000D03*
X115000000Y-156000000D03*
X107500000Y-156000000D03*
X120000000Y-153500000D03*
X110000000Y-153500000D03*
D10*
X53000000Y-166000000D03*
X48000000Y-166000000D03*
D11*
X58000000Y-151000000D03*
X58000000Y-156000000D03*
X50500000Y-151000000D03*
X43000000Y-151000000D03*
X50500000Y-156000000D03*
X43000000Y-156000000D03*
X55500000Y-153500000D03*
X45500000Y-153500000D03*
D10*
X74500000Y-166000000D03*
X69500000Y-166000000D03*
D11*
X79500000Y-151000000D03*
X79500000Y-156000000D03*
X72000000Y-151000000D03*
X64500000Y-151000000D03*
X72000000Y-156000000D03*
X64500000Y-156000000D03*
X77000000Y-153500000D03*
X67000000Y-153500000D03*
D10*
X31500000Y-166000000D03*
X26500000Y-166000000D03*
D11*
X36500000Y-151000000D03*
X36500000Y-156000000D03*
X29000000Y-151000000D03*
X21500000Y-151000000D03*
X29000000Y-156000000D03*
X21500000Y-156000000D03*
X34000000Y-153500000D03*
X24000000Y-153500000D03*
D10*
X137190000Y-62860000D03*
D11*
X141000000Y-76200000D03*
X132750000Y-66030000D03*
X141000000Y-72385000D03*
X137190000Y-76200000D03*
X144810000Y-76200000D03*
X147980000Y-72385000D03*
D10*
X100690000Y-62860000D03*
D11*
X104500000Y-76200000D03*
X96250000Y-66030000D03*
X104500000Y-72385000D03*
X100690000Y-76200000D03*
X108310000Y-76200000D03*
X111480000Y-72385000D03*
D10*
X27690000Y-62860000D03*
D11*
X31500000Y-76200000D03*
X23250000Y-66030000D03*
X31500000Y-72385000D03*
X27690000Y-76200000D03*
X35310000Y-76200000D03*
X38480000Y-72385000D03*
D12*
X184900000Y-135060000D03*
D13*
X184900000Y-137600000D03*
D11*
X188700000Y-66500000D03*
X185600000Y-71500000D03*
X182500000Y-66500000D03*
X182500000Y-80600000D03*
X185600000Y-85600000D03*
X188700000Y-80600000D03*
X188700000Y-95000000D03*
X185600000Y-100000000D03*
X182500000Y-95000000D03*
D12*
X181200000Y-135060000D03*
D13*
X181200000Y-137600000D03*
D12*
X159200000Y-135500000D03*
X156660000Y-135500000D03*
X154120000Y-135500000D03*
X151580000Y-135500000D03*
X149040000Y-135500000D03*
D13*
X146500000Y-135500000D03*
D14*
X81650000Y-124250000D03*
X78350000Y-121750000D03*
X81650000Y-119250000D03*
D15*
X135820000Y-85500000D03*
X138360000Y-85500000D03*
D16*
X140900000Y-85500000D03*
D14*
X166800000Y-64950000D03*
X169300000Y-61650000D03*
X171800000Y-64950000D03*
D17*
X171000000Y-76000000D03*
X170000000Y-140000000D03*
X32000000Y-84000000D03*
X40000000Y-140000000D03*
D18*
X80050000Y-72500000D03*
X77950000Y-72500000D03*
X74200000Y-76250000D03*
X76300000Y-76250000D03*
D19*
X72440000Y-73700000D03*
X71170000Y-76240000D03*
X69900000Y-73700000D03*
X68630000Y-76240000D03*
X67360000Y-73700000D03*
X66090000Y-76240000D03*
X64820000Y-73700000D03*
X63550000Y-76240000D03*
D20*
X73080000Y-62900000D03*
X62920000Y-71790000D03*
D21*
X74595000Y-72430400D03*
D22*
G36*
X138373000Y-96873000D02*
G01*
X136627000Y-96873000D01*
X136627000Y-94627000D01*
X138373000Y-94627000D01*
X138373000Y-96873000D01*
X138373000Y-96873000D01*
G37*
X138373000Y-96873000D02*
X136627000Y-96873000D01*
X136627000Y-94627000D01*
X138373000Y-94627000D01*
X138373000Y-96873000D01*
M02*
