G04 #@! TF.GenerationSoftware,KiCad,Pcbnew,5.1.4+dfsg1-1*
G04 #@! TF.CreationDate,2020-06-06T10:49:10+02:00*
G04 #@! TF.ProjectId,Midi_Merger,4d696469-5f4d-4657-9267-65722e6b6963,rev?*
G04 #@! TF.SameCoordinates,Original*
G04 #@! TF.FileFunction,Soldermask,Top*
G04 #@! TF.FilePolarity,Negative*
%FSLAX46Y46*%
G04 Gerber Fmt 4.6, Leading zero omitted, Abs format (unit mm)*
G04 Created by KiCad (PCBNEW 5.1.4+dfsg1-1) date 2020-06-06 10:49:10*
%MOMM*%
%LPD*%
G04 APERTURE LIST*
%ADD10R,1.400000X1.700000*%
%ADD11R,0.700000X1.850000*%
%ADD12R,1.700000X1.400000*%
%ADD13R,1.300000X1.000000*%
%ADD14C,3.100000*%
%ADD15C,2.800000*%
%ADD16R,1.900000X1.000000*%
%ADD17O,2.686000X1.974800*%
%ADD18O,1.974800X2.686000*%
%ADD19R,1.300000X1.300000*%
%ADD20R,3.600000X1.400000*%
%ADD21R,6.800000X6.200000*%
%ADD22R,2.600000X1.600000*%
%ADD23C,0.100000*%
%ADD24C,1.500000*%
%ADD25C,0.900000*%
%ADD26R,1.400000X3.900000*%
%ADD27R,2.800300X5.300000*%
%ADD28R,1.900000X0.800000*%
%ADD29O,2.100000X2.100000*%
%ADD30R,2.100000X2.100000*%
%ADD31R,2.300000X1.200000*%
%ADD32R,4.400000X2.900000*%
%ADD33C,1.400000*%
%ADD34R,1.400000X2.400000*%
%ADD35O,2.200000X2.200000*%
%ADD36R,2.200000X2.200000*%
%ADD37R,1.900000X2.500000*%
%ADD38R,2.900000X2.500000*%
%ADD39R,2.500000X2.900000*%
%ADD40R,2.500000X1.900000*%
%ADD41C,3.600000*%
%ADD42C,1.900000*%
%ADD43C,2.650000*%
%ADD44C,2.100000*%
%ADD45R,1.300000X2.100000*%
G04 APERTURE END LIST*
D10*
X68425000Y-98150000D03*
X66325000Y-98150000D03*
D11*
X57050000Y-99280000D03*
X57550000Y-99280000D03*
X58050000Y-99280000D03*
X58550000Y-99280000D03*
X58550000Y-102480000D03*
X58050000Y-102480000D03*
X57550000Y-102480000D03*
X57050000Y-102480000D03*
D10*
X111650000Y-101250000D03*
X113750000Y-101250000D03*
D12*
X68500000Y-103200000D03*
X68500000Y-105300000D03*
X84500000Y-104950000D03*
X84500000Y-107050000D03*
X29500000Y-92950000D03*
X29500000Y-95050000D03*
X46250000Y-95200000D03*
X46250000Y-97300000D03*
D10*
X132700000Y-133250000D03*
X134800000Y-133250000D03*
D13*
X47893000Y-86250000D03*
X45607000Y-86250000D03*
X76393000Y-100000000D03*
X74107000Y-100000000D03*
D10*
X62950000Y-108750000D03*
X65050000Y-108750000D03*
D13*
X76393000Y-98000000D03*
X74107000Y-98000000D03*
X92607000Y-143500000D03*
X94893000Y-143500000D03*
D10*
X90300000Y-111500000D03*
X88200000Y-111500000D03*
D13*
X49857000Y-143500000D03*
X52143000Y-143500000D03*
D12*
X27000000Y-105800000D03*
X27000000Y-103700000D03*
D13*
X46243000Y-114400000D03*
X43957000Y-114400000D03*
X46243000Y-116420000D03*
X43957000Y-116420000D03*
X29357000Y-143500000D03*
X31643000Y-143500000D03*
D12*
X50000000Y-105550000D03*
X50000000Y-103450000D03*
D14*
X182000000Y-166000000D03*
X177000000Y-166000000D03*
D15*
X187000000Y-151000000D03*
X187000000Y-156000000D03*
X179500000Y-151000000D03*
X172000000Y-151000000D03*
X179500000Y-156000000D03*
X172000000Y-156000000D03*
X184500000Y-153500000D03*
X174500000Y-153500000D03*
D14*
X139000000Y-166000000D03*
X134000000Y-166000000D03*
D15*
X144000000Y-151000000D03*
X144000000Y-156000000D03*
X136500000Y-151000000D03*
X129000000Y-151000000D03*
X136500000Y-156000000D03*
X129000000Y-156000000D03*
X141500000Y-153500000D03*
X131500000Y-153500000D03*
D14*
X160500000Y-166000000D03*
X155500000Y-166000000D03*
D15*
X165500000Y-151000000D03*
X165500000Y-156000000D03*
X158000000Y-151000000D03*
X150500000Y-151000000D03*
X158000000Y-156000000D03*
X150500000Y-156000000D03*
X163000000Y-153500000D03*
X153000000Y-153500000D03*
D14*
X96000000Y-166000000D03*
X91000000Y-166000000D03*
D15*
X101000000Y-151000000D03*
X101000000Y-156000000D03*
X93500000Y-151000000D03*
X86000000Y-151000000D03*
X93500000Y-156000000D03*
X86000000Y-156000000D03*
X98500000Y-153500000D03*
X88500000Y-153500000D03*
D14*
X117500000Y-166000000D03*
X112500000Y-166000000D03*
D15*
X122500000Y-151000000D03*
X122500000Y-156000000D03*
X115000000Y-151000000D03*
X107500000Y-151000000D03*
X115000000Y-156000000D03*
X107500000Y-156000000D03*
X120000000Y-153500000D03*
X110000000Y-153500000D03*
D14*
X53000000Y-166000000D03*
X48000000Y-166000000D03*
D15*
X58000000Y-151000000D03*
X58000000Y-156000000D03*
X50500000Y-151000000D03*
X43000000Y-151000000D03*
X50500000Y-156000000D03*
X43000000Y-156000000D03*
X55500000Y-153500000D03*
X45500000Y-153500000D03*
D14*
X74500000Y-166000000D03*
X69500000Y-166000000D03*
D15*
X79500000Y-151000000D03*
X79500000Y-156000000D03*
X72000000Y-151000000D03*
X64500000Y-151000000D03*
X72000000Y-156000000D03*
X64500000Y-156000000D03*
X77000000Y-153500000D03*
X67000000Y-153500000D03*
D14*
X31500000Y-166000000D03*
X26500000Y-166000000D03*
D15*
X36500000Y-151000000D03*
X36500000Y-156000000D03*
X29000000Y-151000000D03*
X21500000Y-151000000D03*
X29000000Y-156000000D03*
X21500000Y-156000000D03*
X34000000Y-153500000D03*
X24000000Y-153500000D03*
D10*
X131050000Y-133250000D03*
X128950000Y-133250000D03*
D12*
X70250000Y-85950000D03*
X70250000Y-88050000D03*
D10*
X80325000Y-89750000D03*
X82425000Y-89750000D03*
X49200000Y-81250000D03*
X51300000Y-81250000D03*
D12*
X67750000Y-85950000D03*
X67750000Y-88050000D03*
D10*
X82375000Y-86375000D03*
X80275000Y-86375000D03*
X67450000Y-110000000D03*
X69550000Y-110000000D03*
D12*
X184500000Y-146050000D03*
X184500000Y-143950000D03*
X141500000Y-146050000D03*
X141500000Y-143950000D03*
X66000000Y-103200000D03*
X66000000Y-105300000D03*
X174500000Y-146050000D03*
X174500000Y-143950000D03*
X131500000Y-146050000D03*
X131500000Y-143950000D03*
X163000000Y-146050000D03*
X163000000Y-143950000D03*
X95000000Y-122700000D03*
X95000000Y-124800000D03*
X88500000Y-143450000D03*
X88500000Y-145550000D03*
X92500000Y-122700000D03*
X92500000Y-124800000D03*
X153000000Y-146050000D03*
X153000000Y-143950000D03*
X120000000Y-146050000D03*
X120000000Y-143950000D03*
D10*
X86050000Y-111500000D03*
X83950000Y-111500000D03*
D12*
X87000000Y-104950000D03*
X87000000Y-107050000D03*
X110000000Y-146050000D03*
X110000000Y-143950000D03*
X52000000Y-122700000D03*
X52000000Y-124800000D03*
X45500000Y-143450000D03*
X45500000Y-145550000D03*
X49250000Y-122700000D03*
X49250000Y-124800000D03*
X27000000Y-83450000D03*
X27000000Y-85550000D03*
X37500000Y-83450000D03*
X37500000Y-85550000D03*
X27000000Y-102300000D03*
X27000000Y-100200000D03*
X77000000Y-145550000D03*
X77000000Y-143450000D03*
X27250000Y-94200000D03*
X27250000Y-96300000D03*
D10*
X46840000Y-108460000D03*
X44740000Y-108460000D03*
D12*
X67000000Y-145550000D03*
X67000000Y-143450000D03*
X31750000Y-122700000D03*
X31750000Y-124800000D03*
X24000000Y-143450000D03*
X24000000Y-145550000D03*
X29000000Y-122700000D03*
X29000000Y-124800000D03*
D10*
X47540000Y-101520000D03*
X45440000Y-101520000D03*
D12*
X48500000Y-95200000D03*
X48500000Y-97300000D03*
D16*
X86550000Y-87940000D03*
X86550000Y-89210000D03*
X86550000Y-90480000D03*
X86550000Y-91750000D03*
X86550000Y-93020000D03*
X86550000Y-94290000D03*
X86550000Y-95560000D03*
X91950000Y-95560000D03*
X91950000Y-94290000D03*
X91950000Y-93020000D03*
X91950000Y-91750000D03*
X91950000Y-90480000D03*
X91950000Y-89210000D03*
X91950000Y-87940000D03*
X73810000Y-103795000D03*
X73810000Y-105065000D03*
X73810000Y-106335000D03*
X73810000Y-107605000D03*
X73810000Y-108875000D03*
X73810000Y-110145000D03*
X73810000Y-111415000D03*
X73810000Y-112685000D03*
X79210000Y-112685000D03*
X79210000Y-111415000D03*
X79210000Y-110145000D03*
X79210000Y-108875000D03*
X79210000Y-107605000D03*
X79210000Y-106335000D03*
X79210000Y-105065000D03*
X79210000Y-103795000D03*
X118300000Y-129690000D03*
X118300000Y-130960000D03*
X118300000Y-132230000D03*
X118300000Y-133500000D03*
X118300000Y-134770000D03*
X118300000Y-136040000D03*
X118300000Y-137310000D03*
X123700000Y-137310000D03*
X123700000Y-136040000D03*
X123700000Y-134770000D03*
X123700000Y-133500000D03*
X123700000Y-132230000D03*
X123700000Y-130960000D03*
X123700000Y-129690000D03*
X56600000Y-118110000D03*
X56600000Y-116840000D03*
X56600000Y-115570000D03*
X56600000Y-114300000D03*
X56600000Y-113030000D03*
X56600000Y-111760000D03*
X56600000Y-110490000D03*
X51200000Y-110490000D03*
X51200000Y-111760000D03*
X51200000Y-113030000D03*
X51200000Y-114300000D03*
X51200000Y-115570000D03*
X51200000Y-116840000D03*
X51200000Y-118110000D03*
X35050000Y-93905000D03*
X35050000Y-95175000D03*
X35050000Y-96445000D03*
X35050000Y-97715000D03*
X35050000Y-98985000D03*
X35050000Y-100255000D03*
X35050000Y-101525000D03*
X35050000Y-102795000D03*
X40450000Y-102795000D03*
X40450000Y-101525000D03*
X40450000Y-100255000D03*
X40450000Y-98985000D03*
X40450000Y-97715000D03*
X40450000Y-96445000D03*
X40450000Y-95175000D03*
X40450000Y-93905000D03*
D10*
X125800000Y-82500000D03*
X123700000Y-82500000D03*
X125800000Y-85000000D03*
X123700000Y-85000000D03*
D17*
X62200000Y-85690000D03*
X53800000Y-93310000D03*
X53800000Y-85690000D03*
X53800000Y-88230000D03*
X53800000Y-90770000D03*
X62200000Y-93310000D03*
X62200000Y-90770000D03*
X62200000Y-88230000D03*
D18*
X26690000Y-128800000D03*
X34310000Y-137200000D03*
X26690000Y-137200000D03*
X29230000Y-137200000D03*
X31770000Y-137200000D03*
X34310000Y-128800000D03*
X31770000Y-128800000D03*
X29230000Y-128800000D03*
D10*
X35550000Y-109750000D03*
X33450000Y-109750000D03*
X35550000Y-107750000D03*
X33450000Y-107750000D03*
D14*
X137190000Y-62860000D03*
D15*
X141000000Y-76200000D03*
X132750000Y-66030000D03*
X141000000Y-72385000D03*
X137190000Y-76200000D03*
X144810000Y-76200000D03*
X147980000Y-72385000D03*
D14*
X100690000Y-62860000D03*
D15*
X104500000Y-76200000D03*
X96250000Y-66030000D03*
X104500000Y-72385000D03*
X100690000Y-76200000D03*
X108310000Y-76200000D03*
X111480000Y-72385000D03*
D14*
X27690000Y-62860000D03*
D15*
X31500000Y-76200000D03*
X23250000Y-66030000D03*
X31500000Y-72385000D03*
X27690000Y-76200000D03*
X35310000Y-76200000D03*
X38480000Y-72385000D03*
D18*
X89940000Y-129300000D03*
X97560000Y-137700000D03*
X89940000Y-137700000D03*
X92480000Y-137700000D03*
X95020000Y-137700000D03*
X97560000Y-129300000D03*
X95020000Y-129300000D03*
X92480000Y-129300000D03*
X46940000Y-128800000D03*
X54560000Y-137200000D03*
X46940000Y-137200000D03*
X49480000Y-137200000D03*
X52020000Y-137200000D03*
X54560000Y-128800000D03*
X52020000Y-128800000D03*
X49480000Y-128800000D03*
D12*
X73825000Y-88025000D03*
X73825000Y-85925000D03*
D10*
X75325000Y-91050000D03*
X77425000Y-91050000D03*
D19*
X94050000Y-98250000D03*
X95950000Y-98250000D03*
D20*
X162121080Y-116258200D03*
X155321080Y-116258200D03*
X155321080Y-120258200D03*
X162121080Y-120258200D03*
X155321080Y-109148740D03*
X162121080Y-109148740D03*
X162121080Y-113148740D03*
X155321080Y-113148740D03*
D21*
X116850000Y-108000000D03*
D22*
X110550000Y-110280000D03*
X110550000Y-105720000D03*
D23*
G36*
X138042506Y-94501642D02*
G01*
X138075599Y-94506550D01*
X138108052Y-94514679D01*
X138139551Y-94525950D01*
X138169794Y-94540254D01*
X138198490Y-94557454D01*
X138225361Y-94577383D01*
X138250150Y-94599850D01*
X138272617Y-94624639D01*
X138292546Y-94651510D01*
X138309746Y-94680206D01*
X138324050Y-94710449D01*
X138335321Y-94741948D01*
X138343450Y-94774401D01*
X138348358Y-94807494D01*
X138350000Y-94840909D01*
X138350000Y-96459091D01*
X138348358Y-96492506D01*
X138343450Y-96525599D01*
X138335321Y-96558052D01*
X138324050Y-96589551D01*
X138309746Y-96619794D01*
X138292546Y-96648490D01*
X138272617Y-96675361D01*
X138250150Y-96700150D01*
X138225361Y-96722617D01*
X138198490Y-96742546D01*
X138169794Y-96759746D01*
X138139551Y-96774050D01*
X138108052Y-96785321D01*
X138075599Y-96793450D01*
X138042506Y-96798358D01*
X138009091Y-96800000D01*
X137190909Y-96800000D01*
X137157494Y-96798358D01*
X137124401Y-96793450D01*
X137091948Y-96785321D01*
X137060449Y-96774050D01*
X137030206Y-96759746D01*
X137001510Y-96742546D01*
X136974639Y-96722617D01*
X136949850Y-96700150D01*
X136927383Y-96675361D01*
X136907454Y-96648490D01*
X136890254Y-96619794D01*
X136875950Y-96589551D01*
X136864679Y-96558052D01*
X136856550Y-96525599D01*
X136851642Y-96492506D01*
X136850000Y-96459091D01*
X136850000Y-94840909D01*
X136851642Y-94807494D01*
X136856550Y-94774401D01*
X136864679Y-94741948D01*
X136875950Y-94710449D01*
X136890254Y-94680206D01*
X136907454Y-94651510D01*
X136927383Y-94624639D01*
X136949850Y-94599850D01*
X136974639Y-94577383D01*
X137001510Y-94557454D01*
X137030206Y-94540254D01*
X137060449Y-94525950D01*
X137091948Y-94514679D01*
X137124401Y-94506550D01*
X137157494Y-94501642D01*
X137190909Y-94500000D01*
X138009091Y-94500000D01*
X138042506Y-94501642D01*
X138042506Y-94501642D01*
G37*
D24*
X137600000Y-95650000D03*
D23*
G36*
X139972054Y-96176083D02*
G01*
X139993895Y-96179323D01*
X140015314Y-96184688D01*
X140036104Y-96192127D01*
X140056064Y-96201568D01*
X140075003Y-96212919D01*
X140092738Y-96226073D01*
X140109099Y-96240901D01*
X140123927Y-96257262D01*
X140137081Y-96274997D01*
X140148432Y-96293936D01*
X140157873Y-96313896D01*
X140165312Y-96334686D01*
X140170677Y-96356105D01*
X140173917Y-96377946D01*
X140175000Y-96400000D01*
X140175000Y-96850000D01*
X140173917Y-96872054D01*
X140170677Y-96893895D01*
X140165312Y-96915314D01*
X140157873Y-96936104D01*
X140148432Y-96956064D01*
X140137081Y-96975003D01*
X140123927Y-96992738D01*
X140109099Y-97009099D01*
X140092738Y-97023927D01*
X140075003Y-97037081D01*
X140056064Y-97048432D01*
X140036104Y-97057873D01*
X140015314Y-97065312D01*
X139993895Y-97070677D01*
X139972054Y-97073917D01*
X139950000Y-97075000D01*
X138375000Y-97075000D01*
X138352946Y-97073917D01*
X138331105Y-97070677D01*
X138309686Y-97065312D01*
X138288896Y-97057873D01*
X138268936Y-97048432D01*
X138249997Y-97037081D01*
X138232262Y-97023927D01*
X138215901Y-97009099D01*
X138201073Y-96992738D01*
X138187919Y-96975003D01*
X138176568Y-96956064D01*
X138167127Y-96936104D01*
X138159688Y-96915314D01*
X138154323Y-96893895D01*
X138151083Y-96872054D01*
X138150000Y-96850000D01*
X138150000Y-96400000D01*
X138151083Y-96377946D01*
X138154323Y-96356105D01*
X138159688Y-96334686D01*
X138167127Y-96313896D01*
X138176568Y-96293936D01*
X138187919Y-96274997D01*
X138201073Y-96257262D01*
X138215901Y-96240901D01*
X138232262Y-96226073D01*
X138249997Y-96212919D01*
X138268936Y-96201568D01*
X138288896Y-96192127D01*
X138309686Y-96184688D01*
X138331105Y-96179323D01*
X138352946Y-96176083D01*
X138375000Y-96175000D01*
X139950000Y-96175000D01*
X139972054Y-96176083D01*
X139972054Y-96176083D01*
G37*
D25*
X139162500Y-96625000D03*
D23*
G36*
X139972054Y-95526083D02*
G01*
X139993895Y-95529323D01*
X140015314Y-95534688D01*
X140036104Y-95542127D01*
X140056064Y-95551568D01*
X140075003Y-95562919D01*
X140092738Y-95576073D01*
X140109099Y-95590901D01*
X140123927Y-95607262D01*
X140137081Y-95624997D01*
X140148432Y-95643936D01*
X140157873Y-95663896D01*
X140165312Y-95684686D01*
X140170677Y-95706105D01*
X140173917Y-95727946D01*
X140175000Y-95750000D01*
X140175000Y-96200000D01*
X140173917Y-96222054D01*
X140170677Y-96243895D01*
X140165312Y-96265314D01*
X140157873Y-96286104D01*
X140148432Y-96306064D01*
X140137081Y-96325003D01*
X140123927Y-96342738D01*
X140109099Y-96359099D01*
X140092738Y-96373927D01*
X140075003Y-96387081D01*
X140056064Y-96398432D01*
X140036104Y-96407873D01*
X140015314Y-96415312D01*
X139993895Y-96420677D01*
X139972054Y-96423917D01*
X139950000Y-96425000D01*
X138375000Y-96425000D01*
X138352946Y-96423917D01*
X138331105Y-96420677D01*
X138309686Y-96415312D01*
X138288896Y-96407873D01*
X138268936Y-96398432D01*
X138249997Y-96387081D01*
X138232262Y-96373927D01*
X138215901Y-96359099D01*
X138201073Y-96342738D01*
X138187919Y-96325003D01*
X138176568Y-96306064D01*
X138167127Y-96286104D01*
X138159688Y-96265314D01*
X138154323Y-96243895D01*
X138151083Y-96222054D01*
X138150000Y-96200000D01*
X138150000Y-95750000D01*
X138151083Y-95727946D01*
X138154323Y-95706105D01*
X138159688Y-95684686D01*
X138167127Y-95663896D01*
X138176568Y-95643936D01*
X138187919Y-95624997D01*
X138201073Y-95607262D01*
X138215901Y-95590901D01*
X138232262Y-95576073D01*
X138249997Y-95562919D01*
X138268936Y-95551568D01*
X138288896Y-95542127D01*
X138309686Y-95534688D01*
X138331105Y-95529323D01*
X138352946Y-95526083D01*
X138375000Y-95525000D01*
X139950000Y-95525000D01*
X139972054Y-95526083D01*
X139972054Y-95526083D01*
G37*
D25*
X139162500Y-95975000D03*
D23*
G36*
X139972054Y-94876083D02*
G01*
X139993895Y-94879323D01*
X140015314Y-94884688D01*
X140036104Y-94892127D01*
X140056064Y-94901568D01*
X140075003Y-94912919D01*
X140092738Y-94926073D01*
X140109099Y-94940901D01*
X140123927Y-94957262D01*
X140137081Y-94974997D01*
X140148432Y-94993936D01*
X140157873Y-95013896D01*
X140165312Y-95034686D01*
X140170677Y-95056105D01*
X140173917Y-95077946D01*
X140175000Y-95100000D01*
X140175000Y-95550000D01*
X140173917Y-95572054D01*
X140170677Y-95593895D01*
X140165312Y-95615314D01*
X140157873Y-95636104D01*
X140148432Y-95656064D01*
X140137081Y-95675003D01*
X140123927Y-95692738D01*
X140109099Y-95709099D01*
X140092738Y-95723927D01*
X140075003Y-95737081D01*
X140056064Y-95748432D01*
X140036104Y-95757873D01*
X140015314Y-95765312D01*
X139993895Y-95770677D01*
X139972054Y-95773917D01*
X139950000Y-95775000D01*
X138375000Y-95775000D01*
X138352946Y-95773917D01*
X138331105Y-95770677D01*
X138309686Y-95765312D01*
X138288896Y-95757873D01*
X138268936Y-95748432D01*
X138249997Y-95737081D01*
X138232262Y-95723927D01*
X138215901Y-95709099D01*
X138201073Y-95692738D01*
X138187919Y-95675003D01*
X138176568Y-95656064D01*
X138167127Y-95636104D01*
X138159688Y-95615314D01*
X138154323Y-95593895D01*
X138151083Y-95572054D01*
X138150000Y-95550000D01*
X138150000Y-95100000D01*
X138151083Y-95077946D01*
X138154323Y-95056105D01*
X138159688Y-95034686D01*
X138167127Y-95013896D01*
X138176568Y-94993936D01*
X138187919Y-94974997D01*
X138201073Y-94957262D01*
X138215901Y-94940901D01*
X138232262Y-94926073D01*
X138249997Y-94912919D01*
X138268936Y-94901568D01*
X138288896Y-94892127D01*
X138309686Y-94884688D01*
X138331105Y-94879323D01*
X138352946Y-94876083D01*
X138375000Y-94875000D01*
X139950000Y-94875000D01*
X139972054Y-94876083D01*
X139972054Y-94876083D01*
G37*
D25*
X139162500Y-95325000D03*
D23*
G36*
X139972054Y-94226083D02*
G01*
X139993895Y-94229323D01*
X140015314Y-94234688D01*
X140036104Y-94242127D01*
X140056064Y-94251568D01*
X140075003Y-94262919D01*
X140092738Y-94276073D01*
X140109099Y-94290901D01*
X140123927Y-94307262D01*
X140137081Y-94324997D01*
X140148432Y-94343936D01*
X140157873Y-94363896D01*
X140165312Y-94384686D01*
X140170677Y-94406105D01*
X140173917Y-94427946D01*
X140175000Y-94450000D01*
X140175000Y-94900000D01*
X140173917Y-94922054D01*
X140170677Y-94943895D01*
X140165312Y-94965314D01*
X140157873Y-94986104D01*
X140148432Y-95006064D01*
X140137081Y-95025003D01*
X140123927Y-95042738D01*
X140109099Y-95059099D01*
X140092738Y-95073927D01*
X140075003Y-95087081D01*
X140056064Y-95098432D01*
X140036104Y-95107873D01*
X140015314Y-95115312D01*
X139993895Y-95120677D01*
X139972054Y-95123917D01*
X139950000Y-95125000D01*
X138375000Y-95125000D01*
X138352946Y-95123917D01*
X138331105Y-95120677D01*
X138309686Y-95115312D01*
X138288896Y-95107873D01*
X138268936Y-95098432D01*
X138249997Y-95087081D01*
X138232262Y-95073927D01*
X138215901Y-95059099D01*
X138201073Y-95042738D01*
X138187919Y-95025003D01*
X138176568Y-95006064D01*
X138167127Y-94986104D01*
X138159688Y-94965314D01*
X138154323Y-94943895D01*
X138151083Y-94922054D01*
X138150000Y-94900000D01*
X138150000Y-94450000D01*
X138151083Y-94427946D01*
X138154323Y-94406105D01*
X138159688Y-94384686D01*
X138167127Y-94363896D01*
X138176568Y-94343936D01*
X138187919Y-94324997D01*
X138201073Y-94307262D01*
X138215901Y-94290901D01*
X138232262Y-94276073D01*
X138249997Y-94262919D01*
X138268936Y-94251568D01*
X138288896Y-94242127D01*
X138309686Y-94234688D01*
X138331105Y-94229323D01*
X138352946Y-94226083D01*
X138375000Y-94225000D01*
X139950000Y-94225000D01*
X139972054Y-94226083D01*
X139972054Y-94226083D01*
G37*
D25*
X139162500Y-94675000D03*
D23*
G36*
X136847054Y-94226083D02*
G01*
X136868895Y-94229323D01*
X136890314Y-94234688D01*
X136911104Y-94242127D01*
X136931064Y-94251568D01*
X136950003Y-94262919D01*
X136967738Y-94276073D01*
X136984099Y-94290901D01*
X136998927Y-94307262D01*
X137012081Y-94324997D01*
X137023432Y-94343936D01*
X137032873Y-94363896D01*
X137040312Y-94384686D01*
X137045677Y-94406105D01*
X137048917Y-94427946D01*
X137050000Y-94450000D01*
X137050000Y-94900000D01*
X137048917Y-94922054D01*
X137045677Y-94943895D01*
X137040312Y-94965314D01*
X137032873Y-94986104D01*
X137023432Y-95006064D01*
X137012081Y-95025003D01*
X136998927Y-95042738D01*
X136984099Y-95059099D01*
X136967738Y-95073927D01*
X136950003Y-95087081D01*
X136931064Y-95098432D01*
X136911104Y-95107873D01*
X136890314Y-95115312D01*
X136868895Y-95120677D01*
X136847054Y-95123917D01*
X136825000Y-95125000D01*
X135250000Y-95125000D01*
X135227946Y-95123917D01*
X135206105Y-95120677D01*
X135184686Y-95115312D01*
X135163896Y-95107873D01*
X135143936Y-95098432D01*
X135124997Y-95087081D01*
X135107262Y-95073927D01*
X135090901Y-95059099D01*
X135076073Y-95042738D01*
X135062919Y-95025003D01*
X135051568Y-95006064D01*
X135042127Y-94986104D01*
X135034688Y-94965314D01*
X135029323Y-94943895D01*
X135026083Y-94922054D01*
X135025000Y-94900000D01*
X135025000Y-94450000D01*
X135026083Y-94427946D01*
X135029323Y-94406105D01*
X135034688Y-94384686D01*
X135042127Y-94363896D01*
X135051568Y-94343936D01*
X135062919Y-94324997D01*
X135076073Y-94307262D01*
X135090901Y-94290901D01*
X135107262Y-94276073D01*
X135124997Y-94262919D01*
X135143936Y-94251568D01*
X135163896Y-94242127D01*
X135184686Y-94234688D01*
X135206105Y-94229323D01*
X135227946Y-94226083D01*
X135250000Y-94225000D01*
X136825000Y-94225000D01*
X136847054Y-94226083D01*
X136847054Y-94226083D01*
G37*
D25*
X136037500Y-94675000D03*
D23*
G36*
X136847054Y-94876083D02*
G01*
X136868895Y-94879323D01*
X136890314Y-94884688D01*
X136911104Y-94892127D01*
X136931064Y-94901568D01*
X136950003Y-94912919D01*
X136967738Y-94926073D01*
X136984099Y-94940901D01*
X136998927Y-94957262D01*
X137012081Y-94974997D01*
X137023432Y-94993936D01*
X137032873Y-95013896D01*
X137040312Y-95034686D01*
X137045677Y-95056105D01*
X137048917Y-95077946D01*
X137050000Y-95100000D01*
X137050000Y-95550000D01*
X137048917Y-95572054D01*
X137045677Y-95593895D01*
X137040312Y-95615314D01*
X137032873Y-95636104D01*
X137023432Y-95656064D01*
X137012081Y-95675003D01*
X136998927Y-95692738D01*
X136984099Y-95709099D01*
X136967738Y-95723927D01*
X136950003Y-95737081D01*
X136931064Y-95748432D01*
X136911104Y-95757873D01*
X136890314Y-95765312D01*
X136868895Y-95770677D01*
X136847054Y-95773917D01*
X136825000Y-95775000D01*
X135250000Y-95775000D01*
X135227946Y-95773917D01*
X135206105Y-95770677D01*
X135184686Y-95765312D01*
X135163896Y-95757873D01*
X135143936Y-95748432D01*
X135124997Y-95737081D01*
X135107262Y-95723927D01*
X135090901Y-95709099D01*
X135076073Y-95692738D01*
X135062919Y-95675003D01*
X135051568Y-95656064D01*
X135042127Y-95636104D01*
X135034688Y-95615314D01*
X135029323Y-95593895D01*
X135026083Y-95572054D01*
X135025000Y-95550000D01*
X135025000Y-95100000D01*
X135026083Y-95077946D01*
X135029323Y-95056105D01*
X135034688Y-95034686D01*
X135042127Y-95013896D01*
X135051568Y-94993936D01*
X135062919Y-94974997D01*
X135076073Y-94957262D01*
X135090901Y-94940901D01*
X135107262Y-94926073D01*
X135124997Y-94912919D01*
X135143936Y-94901568D01*
X135163896Y-94892127D01*
X135184686Y-94884688D01*
X135206105Y-94879323D01*
X135227946Y-94876083D01*
X135250000Y-94875000D01*
X136825000Y-94875000D01*
X136847054Y-94876083D01*
X136847054Y-94876083D01*
G37*
D25*
X136037500Y-95325000D03*
D23*
G36*
X136847054Y-95526083D02*
G01*
X136868895Y-95529323D01*
X136890314Y-95534688D01*
X136911104Y-95542127D01*
X136931064Y-95551568D01*
X136950003Y-95562919D01*
X136967738Y-95576073D01*
X136984099Y-95590901D01*
X136998927Y-95607262D01*
X137012081Y-95624997D01*
X137023432Y-95643936D01*
X137032873Y-95663896D01*
X137040312Y-95684686D01*
X137045677Y-95706105D01*
X137048917Y-95727946D01*
X137050000Y-95750000D01*
X137050000Y-96200000D01*
X137048917Y-96222054D01*
X137045677Y-96243895D01*
X137040312Y-96265314D01*
X137032873Y-96286104D01*
X137023432Y-96306064D01*
X137012081Y-96325003D01*
X136998927Y-96342738D01*
X136984099Y-96359099D01*
X136967738Y-96373927D01*
X136950003Y-96387081D01*
X136931064Y-96398432D01*
X136911104Y-96407873D01*
X136890314Y-96415312D01*
X136868895Y-96420677D01*
X136847054Y-96423917D01*
X136825000Y-96425000D01*
X135250000Y-96425000D01*
X135227946Y-96423917D01*
X135206105Y-96420677D01*
X135184686Y-96415312D01*
X135163896Y-96407873D01*
X135143936Y-96398432D01*
X135124997Y-96387081D01*
X135107262Y-96373927D01*
X135090901Y-96359099D01*
X135076073Y-96342738D01*
X135062919Y-96325003D01*
X135051568Y-96306064D01*
X135042127Y-96286104D01*
X135034688Y-96265314D01*
X135029323Y-96243895D01*
X135026083Y-96222054D01*
X135025000Y-96200000D01*
X135025000Y-95750000D01*
X135026083Y-95727946D01*
X135029323Y-95706105D01*
X135034688Y-95684686D01*
X135042127Y-95663896D01*
X135051568Y-95643936D01*
X135062919Y-95624997D01*
X135076073Y-95607262D01*
X135090901Y-95590901D01*
X135107262Y-95576073D01*
X135124997Y-95562919D01*
X135143936Y-95551568D01*
X135163896Y-95542127D01*
X135184686Y-95534688D01*
X135206105Y-95529323D01*
X135227946Y-95526083D01*
X135250000Y-95525000D01*
X136825000Y-95525000D01*
X136847054Y-95526083D01*
X136847054Y-95526083D01*
G37*
D25*
X136037500Y-95975000D03*
D23*
G36*
X136847054Y-96176083D02*
G01*
X136868895Y-96179323D01*
X136890314Y-96184688D01*
X136911104Y-96192127D01*
X136931064Y-96201568D01*
X136950003Y-96212919D01*
X136967738Y-96226073D01*
X136984099Y-96240901D01*
X136998927Y-96257262D01*
X137012081Y-96274997D01*
X137023432Y-96293936D01*
X137032873Y-96313896D01*
X137040312Y-96334686D01*
X137045677Y-96356105D01*
X137048917Y-96377946D01*
X137050000Y-96400000D01*
X137050000Y-96850000D01*
X137048917Y-96872054D01*
X137045677Y-96893895D01*
X137040312Y-96915314D01*
X137032873Y-96936104D01*
X137023432Y-96956064D01*
X137012081Y-96975003D01*
X136998927Y-96992738D01*
X136984099Y-97009099D01*
X136967738Y-97023927D01*
X136950003Y-97037081D01*
X136931064Y-97048432D01*
X136911104Y-97057873D01*
X136890314Y-97065312D01*
X136868895Y-97070677D01*
X136847054Y-97073917D01*
X136825000Y-97075000D01*
X135250000Y-97075000D01*
X135227946Y-97073917D01*
X135206105Y-97070677D01*
X135184686Y-97065312D01*
X135163896Y-97057873D01*
X135143936Y-97048432D01*
X135124997Y-97037081D01*
X135107262Y-97023927D01*
X135090901Y-97009099D01*
X135076073Y-96992738D01*
X135062919Y-96975003D01*
X135051568Y-96956064D01*
X135042127Y-96936104D01*
X135034688Y-96915314D01*
X135029323Y-96893895D01*
X135026083Y-96872054D01*
X135025000Y-96850000D01*
X135025000Y-96400000D01*
X135026083Y-96377946D01*
X135029323Y-96356105D01*
X135034688Y-96334686D01*
X135042127Y-96313896D01*
X135051568Y-96293936D01*
X135062919Y-96274997D01*
X135076073Y-96257262D01*
X135090901Y-96240901D01*
X135107262Y-96226073D01*
X135124997Y-96212919D01*
X135143936Y-96201568D01*
X135163896Y-96192127D01*
X135184686Y-96184688D01*
X135206105Y-96179323D01*
X135227946Y-96176083D01*
X135250000Y-96175000D01*
X136825000Y-96175000D01*
X136847054Y-96176083D01*
X136847054Y-96176083D01*
G37*
D25*
X136037500Y-96625000D03*
D26*
X184900000Y-126700000D03*
X182900000Y-126700000D03*
X180900000Y-126700000D03*
X178900000Y-126700000D03*
X176900000Y-126700000D03*
X174900000Y-126700000D03*
X172900000Y-126700000D03*
X170900000Y-126700000D03*
X170900000Y-110500000D03*
X172900000Y-110500000D03*
X174900000Y-110500000D03*
X176900000Y-110500000D03*
X178900000Y-110500000D03*
X180900000Y-110500000D03*
X182900000Y-110500000D03*
X184900000Y-110500000D03*
D12*
X127000000Y-122050000D03*
X127000000Y-119950000D03*
X136750000Y-119950000D03*
X136750000Y-122050000D03*
X124500000Y-119950000D03*
X124500000Y-122050000D03*
D10*
X144750000Y-116550000D03*
X146850000Y-116550000D03*
X176450000Y-136500000D03*
X174350000Y-136500000D03*
X152050000Y-127600000D03*
X149950000Y-127600000D03*
X175050000Y-134500000D03*
X172950000Y-134500000D03*
D12*
X175634940Y-102532080D03*
X175634940Y-104632080D03*
X131000000Y-94400000D03*
X131000000Y-92300000D03*
X131000000Y-96250000D03*
X131000000Y-98350000D03*
X127000000Y-97150000D03*
X127000000Y-95050000D03*
D27*
X151000000Y-84900000D03*
X151000000Y-94200000D03*
X164000000Y-94200000D03*
X164000000Y-84900000D03*
D10*
X54850000Y-120500000D03*
X52750000Y-120500000D03*
X170706360Y-103528740D03*
X172806360Y-103528740D03*
X180950000Y-103800000D03*
X183050000Y-103800000D03*
D12*
X158050000Y-130350000D03*
X158050000Y-128250000D03*
X155500000Y-130350000D03*
X155500000Y-128250000D03*
D28*
X133660000Y-120350000D03*
X133660000Y-121650000D03*
X131000000Y-121650000D03*
X131000000Y-121000000D03*
X131000000Y-120350000D03*
D29*
X184900000Y-135060000D03*
D30*
X184900000Y-137600000D03*
D15*
X188700000Y-66500000D03*
X185600000Y-71500000D03*
X182500000Y-66500000D03*
X182500000Y-80600000D03*
X185600000Y-85600000D03*
X188700000Y-80600000D03*
X188700000Y-95000000D03*
X185600000Y-100000000D03*
X182500000Y-95000000D03*
D29*
X181200000Y-135060000D03*
D30*
X181200000Y-137600000D03*
D31*
X141000000Y-122000000D03*
X144000000Y-121050000D03*
X144000000Y-122950000D03*
X141000000Y-127500000D03*
X144000000Y-126550000D03*
X144000000Y-128450000D03*
D10*
X175550000Y-138600000D03*
X177650000Y-138600000D03*
D31*
X96500000Y-113200000D03*
X99500000Y-112250000D03*
X99500000Y-114150000D03*
D12*
X35800000Y-90050000D03*
X35800000Y-87950000D03*
D10*
X38550000Y-91400000D03*
X40650000Y-91400000D03*
D32*
X116300000Y-94250000D03*
X110200000Y-94250000D03*
X117550000Y-118750000D03*
X111450000Y-118750000D03*
D12*
X69600000Y-82650000D03*
X69600000Y-80550000D03*
X63200000Y-80550000D03*
X63200000Y-82650000D03*
X86200000Y-102100000D03*
X86200000Y-100000000D03*
X82600000Y-100350000D03*
X82600000Y-102450000D03*
D33*
X83142462Y-132942462D03*
D23*
G36*
X84238478Y-132836396D02*
G01*
X83036396Y-134038478D01*
X82046446Y-133048528D01*
X83248528Y-131846446D01*
X84238478Y-132836396D01*
X84238478Y-132836396D01*
G37*
D33*
X81657538Y-131457538D03*
D23*
G36*
X82753554Y-131351472D02*
G01*
X81551472Y-132553554D01*
X80561522Y-131563604D01*
X81763604Y-130361522D01*
X82753554Y-131351472D01*
X82753554Y-131351472D01*
G37*
D12*
X87400000Y-125150000D03*
X87400000Y-127250000D03*
D10*
X58750000Y-124400000D03*
X60850000Y-124400000D03*
D12*
X44400000Y-124350000D03*
X44400000Y-126450000D03*
X30200000Y-118050000D03*
X30200000Y-115950000D03*
X24000000Y-124350000D03*
X24000000Y-126450000D03*
D10*
X62600000Y-96200000D03*
X60500000Y-96200000D03*
D12*
X53750000Y-97950000D03*
X53750000Y-100050000D03*
D10*
X172836840Y-105664880D03*
X170736840Y-105664880D03*
D12*
X177753300Y-104632080D03*
X177753300Y-102532080D03*
D29*
X159200000Y-135500000D03*
X156660000Y-135500000D03*
X154120000Y-135500000D03*
X151580000Y-135500000D03*
X149040000Y-135500000D03*
D30*
X146500000Y-135500000D03*
D10*
X168458460Y-134516740D03*
X170558460Y-134516740D03*
D12*
X99000000Y-86450000D03*
X99000000Y-88550000D03*
X96750000Y-88550000D03*
X96750000Y-86450000D03*
D33*
X81650000Y-124250000D03*
X78350000Y-121750000D03*
X81650000Y-119250000D03*
D12*
X134600000Y-98550000D03*
X134600000Y-100650000D03*
X141600000Y-94350000D03*
X141600000Y-96450000D03*
D10*
X139350000Y-92000000D03*
X141450000Y-92000000D03*
X121950000Y-125400000D03*
X124050000Y-125400000D03*
X124050000Y-127600000D03*
X121950000Y-127600000D03*
D11*
X38150000Y-114900000D03*
X38650000Y-114900000D03*
X39150000Y-114900000D03*
X39650000Y-114900000D03*
X39650000Y-111700000D03*
X39150000Y-111700000D03*
X38650000Y-111700000D03*
X38150000Y-111700000D03*
D12*
X144000000Y-96450000D03*
X144000000Y-98550000D03*
D34*
X158000000Y-74200000D03*
X162000000Y-74200000D03*
X162000000Y-68200000D03*
X158000000Y-68200000D03*
D10*
X139350000Y-89900000D03*
X141450000Y-89900000D03*
D35*
X135820000Y-85500000D03*
X138360000Y-85500000D03*
D36*
X140900000Y-85500000D03*
D10*
X172750000Y-67900000D03*
X170650000Y-67900000D03*
D33*
X166800000Y-64950000D03*
X169300000Y-61650000D03*
X171800000Y-64950000D03*
D37*
X168330000Y-67800000D03*
D38*
X165670000Y-67800000D03*
D39*
X162400000Y-62370000D03*
D40*
X162400000Y-65030000D03*
D41*
X171000000Y-76000000D03*
X170000000Y-140000000D03*
X32000000Y-84000000D03*
X40000000Y-140000000D03*
D10*
X85250000Y-72100000D03*
X87350000Y-72100000D03*
X87250000Y-69800000D03*
X85150000Y-69800000D03*
X56550000Y-81500000D03*
X54450000Y-81500000D03*
D12*
X45500000Y-83550000D03*
X45500000Y-81450000D03*
D10*
X85150000Y-67300000D03*
X87250000Y-67300000D03*
X87250000Y-65200000D03*
X85150000Y-65200000D03*
X87050000Y-61500000D03*
X84950000Y-61500000D03*
D42*
X72440000Y-73700000D03*
X71170000Y-76240000D03*
X69900000Y-73700000D03*
X68630000Y-76240000D03*
X67360000Y-73700000D03*
X66090000Y-76240000D03*
X64820000Y-73700000D03*
X63550000Y-76240000D03*
D43*
X73080000Y-62900000D03*
X62920000Y-71790000D03*
D44*
X74595000Y-72430400D03*
D45*
X87250000Y-80100000D03*
X84350000Y-80100000D03*
D12*
X61600000Y-102000000D03*
X61600000Y-99900000D03*
X63800000Y-99900000D03*
X63800000Y-102000000D03*
D45*
X106050000Y-135100000D03*
X103150000Y-135100000D03*
D12*
X158900000Y-144950000D03*
X158900000Y-142850000D03*
X126900000Y-141950000D03*
X126900000Y-144050000D03*
D33*
X107957538Y-141942462D03*
D23*
G36*
X108063604Y-143038478D02*
G01*
X106861522Y-141836396D01*
X107851472Y-140846446D01*
X109053554Y-142048528D01*
X108063604Y-143038478D01*
X108063604Y-143038478D01*
G37*
D33*
X109442462Y-140457538D03*
D23*
G36*
X109548528Y-141553554D02*
G01*
X108346446Y-140351472D01*
X109336396Y-139361522D01*
X110538478Y-140563604D01*
X109548528Y-141553554D01*
X109548528Y-141553554D01*
G37*
M02*
