G04 #@! TF.GenerationSoftware,KiCad,Pcbnew,5.1.4+dfsg1-1*
G04 #@! TF.CreationDate,2020-06-06T10:49:10+02:00*
G04 #@! TF.ProjectId,Midi_Merger,4d696469-5f4d-4657-9267-65722e6b6963,rev?*
G04 #@! TF.SameCoordinates,Original*
G04 #@! TF.FileFunction,Copper,L1,Top*
G04 #@! TF.FilePolarity,Positive*
%FSLAX46Y46*%
G04 Gerber Fmt 4.6, Leading zero omitted, Abs format (unit mm)*
G04 Created by KiCad (PCBNEW 5.1.4+dfsg1-1) date 2020-06-06 10:49:10*
%MOMM*%
%LPD*%
G04 APERTURE LIST*
%ADD10R,1.000000X1.300000*%
%ADD11R,0.300000X1.450000*%
%ADD12R,1.300000X1.000000*%
%ADD13R,0.900000X0.600000*%
%ADD14C,2.700000*%
%ADD15C,2.400000*%
%ADD16R,1.500000X0.600000*%
%ADD17O,2.286000X1.574800*%
%ADD18O,1.574800X2.286000*%
%ADD19R,0.900000X0.900000*%
%ADD20R,3.200000X1.000000*%
%ADD21R,3.050000X2.750000*%
%ADD22R,6.400000X5.800000*%
%ADD23R,2.200000X1.200000*%
%ADD24C,0.100000*%
%ADD25C,1.100000*%
%ADD26C,0.500000*%
%ADD27C,0.650000*%
%ADD28R,1.000000X3.500000*%
%ADD29R,2.400300X4.900000*%
%ADD30R,1.500000X0.400000*%
%ADD31O,1.700000X1.700000*%
%ADD32R,1.700000X1.700000*%
%ADD33R,1.900000X0.800000*%
%ADD34R,4.000000X2.500000*%
%ADD35C,1.000000*%
%ADD36R,1.000000X2.000000*%
%ADD37O,1.800000X1.800000*%
%ADD38R,1.800000X1.800000*%
%ADD39R,1.500000X2.100000*%
%ADD40R,2.500000X2.100000*%
%ADD41R,2.100000X2.500000*%
%ADD42R,2.100000X1.500000*%
%ADD43C,1.500000*%
%ADD44C,2.250000*%
%ADD45C,1.700000*%
%ADD46R,0.900000X1.700000*%
%ADD47C,0.890000*%
%ADD48C,0.600000*%
%ADD49C,0.508000*%
%ADD50C,1.270000*%
%ADD51C,0.762000*%
%ADD52C,0.254000*%
%ADD53C,0.250000*%
%ADD54C,0.200000*%
G04 APERTURE END LIST*
D10*
X68425000Y-98150000D03*
X66325000Y-98150000D03*
D11*
X57050000Y-99280000D03*
X57550000Y-99280000D03*
X58050000Y-99280000D03*
X58550000Y-99280000D03*
X58550000Y-102480000D03*
X58050000Y-102480000D03*
X57550000Y-102480000D03*
X57050000Y-102480000D03*
D10*
X111650000Y-101250000D03*
X113750000Y-101250000D03*
D12*
X68500000Y-103200000D03*
X68500000Y-105300000D03*
X84500000Y-104950000D03*
X84500000Y-107050000D03*
X29500000Y-92950000D03*
X29500000Y-95050000D03*
X46250000Y-95200000D03*
X46250000Y-97300000D03*
D10*
X132700000Y-133250000D03*
X134800000Y-133250000D03*
D13*
X47893000Y-86250000D03*
X45607000Y-86250000D03*
X76393000Y-100000000D03*
X74107000Y-100000000D03*
D10*
X62950000Y-108750000D03*
X65050000Y-108750000D03*
D13*
X76393000Y-98000000D03*
X74107000Y-98000000D03*
X92607000Y-143500000D03*
X94893000Y-143500000D03*
D10*
X90300000Y-111500000D03*
X88200000Y-111500000D03*
D13*
X49857000Y-143500000D03*
X52143000Y-143500000D03*
D12*
X27000000Y-105800000D03*
X27000000Y-103700000D03*
D13*
X46243000Y-114400000D03*
X43957000Y-114400000D03*
X46243000Y-116420000D03*
X43957000Y-116420000D03*
X29357000Y-143500000D03*
X31643000Y-143500000D03*
D12*
X50000000Y-105550000D03*
X50000000Y-103450000D03*
D14*
X182000000Y-166000000D03*
X177000000Y-166000000D03*
D15*
X187000000Y-151000000D03*
X187000000Y-156000000D03*
X179500000Y-151000000D03*
X172000000Y-151000000D03*
X179500000Y-156000000D03*
X172000000Y-156000000D03*
X184500000Y-153500000D03*
X174500000Y-153500000D03*
D14*
X139000000Y-166000000D03*
X134000000Y-166000000D03*
D15*
X144000000Y-151000000D03*
X144000000Y-156000000D03*
X136500000Y-151000000D03*
X129000000Y-151000000D03*
X136500000Y-156000000D03*
X129000000Y-156000000D03*
X141500000Y-153500000D03*
X131500000Y-153500000D03*
D14*
X160500000Y-166000000D03*
X155500000Y-166000000D03*
D15*
X165500000Y-151000000D03*
X165500000Y-156000000D03*
X158000000Y-151000000D03*
X150500000Y-151000000D03*
X158000000Y-156000000D03*
X150500000Y-156000000D03*
X163000000Y-153500000D03*
X153000000Y-153500000D03*
D14*
X96000000Y-166000000D03*
X91000000Y-166000000D03*
D15*
X101000000Y-151000000D03*
X101000000Y-156000000D03*
X93500000Y-151000000D03*
X86000000Y-151000000D03*
X93500000Y-156000000D03*
X86000000Y-156000000D03*
X98500000Y-153500000D03*
X88500000Y-153500000D03*
D14*
X117500000Y-166000000D03*
X112500000Y-166000000D03*
D15*
X122500000Y-151000000D03*
X122500000Y-156000000D03*
X115000000Y-151000000D03*
X107500000Y-151000000D03*
X115000000Y-156000000D03*
X107500000Y-156000000D03*
X120000000Y-153500000D03*
X110000000Y-153500000D03*
D14*
X53000000Y-166000000D03*
X48000000Y-166000000D03*
D15*
X58000000Y-151000000D03*
X58000000Y-156000000D03*
X50500000Y-151000000D03*
X43000000Y-151000000D03*
X50500000Y-156000000D03*
X43000000Y-156000000D03*
X55500000Y-153500000D03*
X45500000Y-153500000D03*
D14*
X74500000Y-166000000D03*
X69500000Y-166000000D03*
D15*
X79500000Y-151000000D03*
X79500000Y-156000000D03*
X72000000Y-151000000D03*
X64500000Y-151000000D03*
X72000000Y-156000000D03*
X64500000Y-156000000D03*
X77000000Y-153500000D03*
X67000000Y-153500000D03*
D14*
X31500000Y-166000000D03*
X26500000Y-166000000D03*
D15*
X36500000Y-151000000D03*
X36500000Y-156000000D03*
X29000000Y-151000000D03*
X21500000Y-151000000D03*
X29000000Y-156000000D03*
X21500000Y-156000000D03*
X34000000Y-153500000D03*
X24000000Y-153500000D03*
D10*
X131050000Y-133250000D03*
X128950000Y-133250000D03*
D12*
X70250000Y-85950000D03*
X70250000Y-88050000D03*
D10*
X80325000Y-89750000D03*
X82425000Y-89750000D03*
X49200000Y-81250000D03*
X51300000Y-81250000D03*
D12*
X67750000Y-85950000D03*
X67750000Y-88050000D03*
D10*
X82375000Y-86375000D03*
X80275000Y-86375000D03*
X67450000Y-110000000D03*
X69550000Y-110000000D03*
D12*
X184500000Y-146050000D03*
X184500000Y-143950000D03*
X141500000Y-146050000D03*
X141500000Y-143950000D03*
X66000000Y-103200000D03*
X66000000Y-105300000D03*
X174500000Y-146050000D03*
X174500000Y-143950000D03*
X131500000Y-146050000D03*
X131500000Y-143950000D03*
X163000000Y-146050000D03*
X163000000Y-143950000D03*
X95000000Y-122700000D03*
X95000000Y-124800000D03*
X88500000Y-143450000D03*
X88500000Y-145550000D03*
X92500000Y-122700000D03*
X92500000Y-124800000D03*
X153000000Y-146050000D03*
X153000000Y-143950000D03*
X120000000Y-146050000D03*
X120000000Y-143950000D03*
D10*
X86050000Y-111500000D03*
X83950000Y-111500000D03*
D12*
X87000000Y-104950000D03*
X87000000Y-107050000D03*
X110000000Y-146050000D03*
X110000000Y-143950000D03*
X52000000Y-122700000D03*
X52000000Y-124800000D03*
X45500000Y-143450000D03*
X45500000Y-145550000D03*
X49250000Y-122700000D03*
X49250000Y-124800000D03*
X27000000Y-83450000D03*
X27000000Y-85550000D03*
X37500000Y-83450000D03*
X37500000Y-85550000D03*
X27000000Y-102300000D03*
X27000000Y-100200000D03*
X77000000Y-145550000D03*
X77000000Y-143450000D03*
X27250000Y-94200000D03*
X27250000Y-96300000D03*
D10*
X46840000Y-108460000D03*
X44740000Y-108460000D03*
D12*
X67000000Y-145550000D03*
X67000000Y-143450000D03*
X31750000Y-122700000D03*
X31750000Y-124800000D03*
X24000000Y-143450000D03*
X24000000Y-145550000D03*
X29000000Y-122700000D03*
X29000000Y-124800000D03*
D10*
X47540000Y-101520000D03*
X45440000Y-101520000D03*
D12*
X48500000Y-95200000D03*
X48500000Y-97300000D03*
D16*
X86550000Y-87940000D03*
X86550000Y-89210000D03*
X86550000Y-90480000D03*
X86550000Y-91750000D03*
X86550000Y-93020000D03*
X86550000Y-94290000D03*
X86550000Y-95560000D03*
X91950000Y-95560000D03*
X91950000Y-94290000D03*
X91950000Y-93020000D03*
X91950000Y-91750000D03*
X91950000Y-90480000D03*
X91950000Y-89210000D03*
X91950000Y-87940000D03*
X73810000Y-103795000D03*
X73810000Y-105065000D03*
X73810000Y-106335000D03*
X73810000Y-107605000D03*
X73810000Y-108875000D03*
X73810000Y-110145000D03*
X73810000Y-111415000D03*
X73810000Y-112685000D03*
X79210000Y-112685000D03*
X79210000Y-111415000D03*
X79210000Y-110145000D03*
X79210000Y-108875000D03*
X79210000Y-107605000D03*
X79210000Y-106335000D03*
X79210000Y-105065000D03*
X79210000Y-103795000D03*
X118300000Y-129690000D03*
X118300000Y-130960000D03*
X118300000Y-132230000D03*
X118300000Y-133500000D03*
X118300000Y-134770000D03*
X118300000Y-136040000D03*
X118300000Y-137310000D03*
X123700000Y-137310000D03*
X123700000Y-136040000D03*
X123700000Y-134770000D03*
X123700000Y-133500000D03*
X123700000Y-132230000D03*
X123700000Y-130960000D03*
X123700000Y-129690000D03*
X56600000Y-118110000D03*
X56600000Y-116840000D03*
X56600000Y-115570000D03*
X56600000Y-114300000D03*
X56600000Y-113030000D03*
X56600000Y-111760000D03*
X56600000Y-110490000D03*
X51200000Y-110490000D03*
X51200000Y-111760000D03*
X51200000Y-113030000D03*
X51200000Y-114300000D03*
X51200000Y-115570000D03*
X51200000Y-116840000D03*
X51200000Y-118110000D03*
X35050000Y-93905000D03*
X35050000Y-95175000D03*
X35050000Y-96445000D03*
X35050000Y-97715000D03*
X35050000Y-98985000D03*
X35050000Y-100255000D03*
X35050000Y-101525000D03*
X35050000Y-102795000D03*
X40450000Y-102795000D03*
X40450000Y-101525000D03*
X40450000Y-100255000D03*
X40450000Y-98985000D03*
X40450000Y-97715000D03*
X40450000Y-96445000D03*
X40450000Y-95175000D03*
X40450000Y-93905000D03*
D10*
X125800000Y-82500000D03*
X123700000Y-82500000D03*
X125800000Y-85000000D03*
X123700000Y-85000000D03*
D17*
X62200000Y-85690000D03*
X53800000Y-93310000D03*
X53800000Y-85690000D03*
X53800000Y-88230000D03*
X53800000Y-90770000D03*
X62200000Y-93310000D03*
X62200000Y-90770000D03*
X62200000Y-88230000D03*
D18*
X26690000Y-128800000D03*
X34310000Y-137200000D03*
X26690000Y-137200000D03*
X29230000Y-137200000D03*
X31770000Y-137200000D03*
X34310000Y-128800000D03*
X31770000Y-128800000D03*
X29230000Y-128800000D03*
D10*
X35550000Y-109750000D03*
X33450000Y-109750000D03*
X35550000Y-107750000D03*
X33450000Y-107750000D03*
D14*
X137190000Y-62860000D03*
D15*
X141000000Y-76200000D03*
X132750000Y-66030000D03*
X141000000Y-72385000D03*
X137190000Y-76200000D03*
X144810000Y-76200000D03*
X147980000Y-72385000D03*
D14*
X100690000Y-62860000D03*
D15*
X104500000Y-76200000D03*
X96250000Y-66030000D03*
X104500000Y-72385000D03*
X100690000Y-76200000D03*
X108310000Y-76200000D03*
X111480000Y-72385000D03*
D14*
X27690000Y-62860000D03*
D15*
X31500000Y-76200000D03*
X23250000Y-66030000D03*
X31500000Y-72385000D03*
X27690000Y-76200000D03*
X35310000Y-76200000D03*
X38480000Y-72385000D03*
D18*
X89940000Y-129300000D03*
X97560000Y-137700000D03*
X89940000Y-137700000D03*
X92480000Y-137700000D03*
X95020000Y-137700000D03*
X97560000Y-129300000D03*
X95020000Y-129300000D03*
X92480000Y-129300000D03*
X46940000Y-128800000D03*
X54560000Y-137200000D03*
X46940000Y-137200000D03*
X49480000Y-137200000D03*
X52020000Y-137200000D03*
X54560000Y-128800000D03*
X52020000Y-128800000D03*
X49480000Y-128800000D03*
D12*
X73825000Y-88025000D03*
X73825000Y-85925000D03*
D10*
X75325000Y-91050000D03*
X77425000Y-91050000D03*
D19*
X94050000Y-98250000D03*
X95950000Y-98250000D03*
D20*
X162121080Y-116258200D03*
X155321080Y-116258200D03*
X155321080Y-120258200D03*
X162121080Y-120258200D03*
X155321080Y-109148740D03*
X162121080Y-109148740D03*
X162121080Y-113148740D03*
X155321080Y-113148740D03*
D21*
X115175000Y-109525000D03*
X118525000Y-106475000D03*
X115175000Y-106475000D03*
X118525000Y-109525000D03*
D22*
X116850000Y-108000000D03*
D23*
X110550000Y-110280000D03*
X110550000Y-105720000D03*
D24*
G36*
X137924504Y-94701204D02*
G01*
X137948773Y-94704804D01*
X137972571Y-94710765D01*
X137995671Y-94719030D01*
X138017849Y-94729520D01*
X138038893Y-94742133D01*
X138058598Y-94756747D01*
X138076777Y-94773223D01*
X138093253Y-94791402D01*
X138107867Y-94811107D01*
X138120480Y-94832151D01*
X138130970Y-94854329D01*
X138139235Y-94877429D01*
X138145196Y-94901227D01*
X138148796Y-94925496D01*
X138150000Y-94950000D01*
X138150000Y-96350000D01*
X138148796Y-96374504D01*
X138145196Y-96398773D01*
X138139235Y-96422571D01*
X138130970Y-96445671D01*
X138120480Y-96467849D01*
X138107867Y-96488893D01*
X138093253Y-96508598D01*
X138076777Y-96526777D01*
X138058598Y-96543253D01*
X138038893Y-96557867D01*
X138017849Y-96570480D01*
X137995671Y-96580970D01*
X137972571Y-96589235D01*
X137948773Y-96595196D01*
X137924504Y-96598796D01*
X137900000Y-96600000D01*
X137300000Y-96600000D01*
X137275496Y-96598796D01*
X137251227Y-96595196D01*
X137227429Y-96589235D01*
X137204329Y-96580970D01*
X137182151Y-96570480D01*
X137161107Y-96557867D01*
X137141402Y-96543253D01*
X137123223Y-96526777D01*
X137106747Y-96508598D01*
X137092133Y-96488893D01*
X137079520Y-96467849D01*
X137069030Y-96445671D01*
X137060765Y-96422571D01*
X137054804Y-96398773D01*
X137051204Y-96374504D01*
X137050000Y-96350000D01*
X137050000Y-94950000D01*
X137051204Y-94925496D01*
X137054804Y-94901227D01*
X137060765Y-94877429D01*
X137069030Y-94854329D01*
X137079520Y-94832151D01*
X137092133Y-94811107D01*
X137106747Y-94791402D01*
X137123223Y-94773223D01*
X137141402Y-94756747D01*
X137161107Y-94742133D01*
X137182151Y-94729520D01*
X137204329Y-94719030D01*
X137227429Y-94710765D01*
X137251227Y-94704804D01*
X137275496Y-94701204D01*
X137300000Y-94700000D01*
X137900000Y-94700000D01*
X137924504Y-94701204D01*
X137924504Y-94701204D01*
G37*
D25*
X137600000Y-95650000D03*
D26*
X137600000Y-96400000D03*
D27*
X137600000Y-95650000D03*
D26*
X137600000Y-94900000D03*
D24*
G36*
X139862252Y-96375602D02*
G01*
X139874386Y-96377402D01*
X139886286Y-96380382D01*
X139897835Y-96384515D01*
X139908925Y-96389760D01*
X139919446Y-96396066D01*
X139929299Y-96403374D01*
X139938388Y-96411612D01*
X139946626Y-96420701D01*
X139953934Y-96430554D01*
X139960240Y-96441075D01*
X139965485Y-96452165D01*
X139969618Y-96463714D01*
X139972598Y-96475614D01*
X139974398Y-96487748D01*
X139975000Y-96500000D01*
X139975000Y-96750000D01*
X139974398Y-96762252D01*
X139972598Y-96774386D01*
X139969618Y-96786286D01*
X139965485Y-96797835D01*
X139960240Y-96808925D01*
X139953934Y-96819446D01*
X139946626Y-96829299D01*
X139938388Y-96838388D01*
X139929299Y-96846626D01*
X139919446Y-96853934D01*
X139908925Y-96860240D01*
X139897835Y-96865485D01*
X139886286Y-96869618D01*
X139874386Y-96872598D01*
X139862252Y-96874398D01*
X139850000Y-96875000D01*
X138475000Y-96875000D01*
X138462748Y-96874398D01*
X138450614Y-96872598D01*
X138438714Y-96869618D01*
X138427165Y-96865485D01*
X138416075Y-96860240D01*
X138405554Y-96853934D01*
X138395701Y-96846626D01*
X138386612Y-96838388D01*
X138378374Y-96829299D01*
X138371066Y-96819446D01*
X138364760Y-96808925D01*
X138359515Y-96797835D01*
X138355382Y-96786286D01*
X138352402Y-96774386D01*
X138350602Y-96762252D01*
X138350000Y-96750000D01*
X138350000Y-96500000D01*
X138350602Y-96487748D01*
X138352402Y-96475614D01*
X138355382Y-96463714D01*
X138359515Y-96452165D01*
X138364760Y-96441075D01*
X138371066Y-96430554D01*
X138378374Y-96420701D01*
X138386612Y-96411612D01*
X138395701Y-96403374D01*
X138405554Y-96396066D01*
X138416075Y-96389760D01*
X138427165Y-96384515D01*
X138438714Y-96380382D01*
X138450614Y-96377402D01*
X138462748Y-96375602D01*
X138475000Y-96375000D01*
X139850000Y-96375000D01*
X139862252Y-96375602D01*
X139862252Y-96375602D01*
G37*
D26*
X139162500Y-96625000D03*
D24*
G36*
X139862252Y-95725602D02*
G01*
X139874386Y-95727402D01*
X139886286Y-95730382D01*
X139897835Y-95734515D01*
X139908925Y-95739760D01*
X139919446Y-95746066D01*
X139929299Y-95753374D01*
X139938388Y-95761612D01*
X139946626Y-95770701D01*
X139953934Y-95780554D01*
X139960240Y-95791075D01*
X139965485Y-95802165D01*
X139969618Y-95813714D01*
X139972598Y-95825614D01*
X139974398Y-95837748D01*
X139975000Y-95850000D01*
X139975000Y-96100000D01*
X139974398Y-96112252D01*
X139972598Y-96124386D01*
X139969618Y-96136286D01*
X139965485Y-96147835D01*
X139960240Y-96158925D01*
X139953934Y-96169446D01*
X139946626Y-96179299D01*
X139938388Y-96188388D01*
X139929299Y-96196626D01*
X139919446Y-96203934D01*
X139908925Y-96210240D01*
X139897835Y-96215485D01*
X139886286Y-96219618D01*
X139874386Y-96222598D01*
X139862252Y-96224398D01*
X139850000Y-96225000D01*
X138475000Y-96225000D01*
X138462748Y-96224398D01*
X138450614Y-96222598D01*
X138438714Y-96219618D01*
X138427165Y-96215485D01*
X138416075Y-96210240D01*
X138405554Y-96203934D01*
X138395701Y-96196626D01*
X138386612Y-96188388D01*
X138378374Y-96179299D01*
X138371066Y-96169446D01*
X138364760Y-96158925D01*
X138359515Y-96147835D01*
X138355382Y-96136286D01*
X138352402Y-96124386D01*
X138350602Y-96112252D01*
X138350000Y-96100000D01*
X138350000Y-95850000D01*
X138350602Y-95837748D01*
X138352402Y-95825614D01*
X138355382Y-95813714D01*
X138359515Y-95802165D01*
X138364760Y-95791075D01*
X138371066Y-95780554D01*
X138378374Y-95770701D01*
X138386612Y-95761612D01*
X138395701Y-95753374D01*
X138405554Y-95746066D01*
X138416075Y-95739760D01*
X138427165Y-95734515D01*
X138438714Y-95730382D01*
X138450614Y-95727402D01*
X138462748Y-95725602D01*
X138475000Y-95725000D01*
X139850000Y-95725000D01*
X139862252Y-95725602D01*
X139862252Y-95725602D01*
G37*
D26*
X139162500Y-95975000D03*
D24*
G36*
X139862252Y-95075602D02*
G01*
X139874386Y-95077402D01*
X139886286Y-95080382D01*
X139897835Y-95084515D01*
X139908925Y-95089760D01*
X139919446Y-95096066D01*
X139929299Y-95103374D01*
X139938388Y-95111612D01*
X139946626Y-95120701D01*
X139953934Y-95130554D01*
X139960240Y-95141075D01*
X139965485Y-95152165D01*
X139969618Y-95163714D01*
X139972598Y-95175614D01*
X139974398Y-95187748D01*
X139975000Y-95200000D01*
X139975000Y-95450000D01*
X139974398Y-95462252D01*
X139972598Y-95474386D01*
X139969618Y-95486286D01*
X139965485Y-95497835D01*
X139960240Y-95508925D01*
X139953934Y-95519446D01*
X139946626Y-95529299D01*
X139938388Y-95538388D01*
X139929299Y-95546626D01*
X139919446Y-95553934D01*
X139908925Y-95560240D01*
X139897835Y-95565485D01*
X139886286Y-95569618D01*
X139874386Y-95572598D01*
X139862252Y-95574398D01*
X139850000Y-95575000D01*
X138475000Y-95575000D01*
X138462748Y-95574398D01*
X138450614Y-95572598D01*
X138438714Y-95569618D01*
X138427165Y-95565485D01*
X138416075Y-95560240D01*
X138405554Y-95553934D01*
X138395701Y-95546626D01*
X138386612Y-95538388D01*
X138378374Y-95529299D01*
X138371066Y-95519446D01*
X138364760Y-95508925D01*
X138359515Y-95497835D01*
X138355382Y-95486286D01*
X138352402Y-95474386D01*
X138350602Y-95462252D01*
X138350000Y-95450000D01*
X138350000Y-95200000D01*
X138350602Y-95187748D01*
X138352402Y-95175614D01*
X138355382Y-95163714D01*
X138359515Y-95152165D01*
X138364760Y-95141075D01*
X138371066Y-95130554D01*
X138378374Y-95120701D01*
X138386612Y-95111612D01*
X138395701Y-95103374D01*
X138405554Y-95096066D01*
X138416075Y-95089760D01*
X138427165Y-95084515D01*
X138438714Y-95080382D01*
X138450614Y-95077402D01*
X138462748Y-95075602D01*
X138475000Y-95075000D01*
X139850000Y-95075000D01*
X139862252Y-95075602D01*
X139862252Y-95075602D01*
G37*
D26*
X139162500Y-95325000D03*
D24*
G36*
X139862252Y-94425602D02*
G01*
X139874386Y-94427402D01*
X139886286Y-94430382D01*
X139897835Y-94434515D01*
X139908925Y-94439760D01*
X139919446Y-94446066D01*
X139929299Y-94453374D01*
X139938388Y-94461612D01*
X139946626Y-94470701D01*
X139953934Y-94480554D01*
X139960240Y-94491075D01*
X139965485Y-94502165D01*
X139969618Y-94513714D01*
X139972598Y-94525614D01*
X139974398Y-94537748D01*
X139975000Y-94550000D01*
X139975000Y-94800000D01*
X139974398Y-94812252D01*
X139972598Y-94824386D01*
X139969618Y-94836286D01*
X139965485Y-94847835D01*
X139960240Y-94858925D01*
X139953934Y-94869446D01*
X139946626Y-94879299D01*
X139938388Y-94888388D01*
X139929299Y-94896626D01*
X139919446Y-94903934D01*
X139908925Y-94910240D01*
X139897835Y-94915485D01*
X139886286Y-94919618D01*
X139874386Y-94922598D01*
X139862252Y-94924398D01*
X139850000Y-94925000D01*
X138475000Y-94925000D01*
X138462748Y-94924398D01*
X138450614Y-94922598D01*
X138438714Y-94919618D01*
X138427165Y-94915485D01*
X138416075Y-94910240D01*
X138405554Y-94903934D01*
X138395701Y-94896626D01*
X138386612Y-94888388D01*
X138378374Y-94879299D01*
X138371066Y-94869446D01*
X138364760Y-94858925D01*
X138359515Y-94847835D01*
X138355382Y-94836286D01*
X138352402Y-94824386D01*
X138350602Y-94812252D01*
X138350000Y-94800000D01*
X138350000Y-94550000D01*
X138350602Y-94537748D01*
X138352402Y-94525614D01*
X138355382Y-94513714D01*
X138359515Y-94502165D01*
X138364760Y-94491075D01*
X138371066Y-94480554D01*
X138378374Y-94470701D01*
X138386612Y-94461612D01*
X138395701Y-94453374D01*
X138405554Y-94446066D01*
X138416075Y-94439760D01*
X138427165Y-94434515D01*
X138438714Y-94430382D01*
X138450614Y-94427402D01*
X138462748Y-94425602D01*
X138475000Y-94425000D01*
X139850000Y-94425000D01*
X139862252Y-94425602D01*
X139862252Y-94425602D01*
G37*
D26*
X139162500Y-94675000D03*
D24*
G36*
X136737252Y-94425602D02*
G01*
X136749386Y-94427402D01*
X136761286Y-94430382D01*
X136772835Y-94434515D01*
X136783925Y-94439760D01*
X136794446Y-94446066D01*
X136804299Y-94453374D01*
X136813388Y-94461612D01*
X136821626Y-94470701D01*
X136828934Y-94480554D01*
X136835240Y-94491075D01*
X136840485Y-94502165D01*
X136844618Y-94513714D01*
X136847598Y-94525614D01*
X136849398Y-94537748D01*
X136850000Y-94550000D01*
X136850000Y-94800000D01*
X136849398Y-94812252D01*
X136847598Y-94824386D01*
X136844618Y-94836286D01*
X136840485Y-94847835D01*
X136835240Y-94858925D01*
X136828934Y-94869446D01*
X136821626Y-94879299D01*
X136813388Y-94888388D01*
X136804299Y-94896626D01*
X136794446Y-94903934D01*
X136783925Y-94910240D01*
X136772835Y-94915485D01*
X136761286Y-94919618D01*
X136749386Y-94922598D01*
X136737252Y-94924398D01*
X136725000Y-94925000D01*
X135350000Y-94925000D01*
X135337748Y-94924398D01*
X135325614Y-94922598D01*
X135313714Y-94919618D01*
X135302165Y-94915485D01*
X135291075Y-94910240D01*
X135280554Y-94903934D01*
X135270701Y-94896626D01*
X135261612Y-94888388D01*
X135253374Y-94879299D01*
X135246066Y-94869446D01*
X135239760Y-94858925D01*
X135234515Y-94847835D01*
X135230382Y-94836286D01*
X135227402Y-94824386D01*
X135225602Y-94812252D01*
X135225000Y-94800000D01*
X135225000Y-94550000D01*
X135225602Y-94537748D01*
X135227402Y-94525614D01*
X135230382Y-94513714D01*
X135234515Y-94502165D01*
X135239760Y-94491075D01*
X135246066Y-94480554D01*
X135253374Y-94470701D01*
X135261612Y-94461612D01*
X135270701Y-94453374D01*
X135280554Y-94446066D01*
X135291075Y-94439760D01*
X135302165Y-94434515D01*
X135313714Y-94430382D01*
X135325614Y-94427402D01*
X135337748Y-94425602D01*
X135350000Y-94425000D01*
X136725000Y-94425000D01*
X136737252Y-94425602D01*
X136737252Y-94425602D01*
G37*
D26*
X136037500Y-94675000D03*
D24*
G36*
X136737252Y-95075602D02*
G01*
X136749386Y-95077402D01*
X136761286Y-95080382D01*
X136772835Y-95084515D01*
X136783925Y-95089760D01*
X136794446Y-95096066D01*
X136804299Y-95103374D01*
X136813388Y-95111612D01*
X136821626Y-95120701D01*
X136828934Y-95130554D01*
X136835240Y-95141075D01*
X136840485Y-95152165D01*
X136844618Y-95163714D01*
X136847598Y-95175614D01*
X136849398Y-95187748D01*
X136850000Y-95200000D01*
X136850000Y-95450000D01*
X136849398Y-95462252D01*
X136847598Y-95474386D01*
X136844618Y-95486286D01*
X136840485Y-95497835D01*
X136835240Y-95508925D01*
X136828934Y-95519446D01*
X136821626Y-95529299D01*
X136813388Y-95538388D01*
X136804299Y-95546626D01*
X136794446Y-95553934D01*
X136783925Y-95560240D01*
X136772835Y-95565485D01*
X136761286Y-95569618D01*
X136749386Y-95572598D01*
X136737252Y-95574398D01*
X136725000Y-95575000D01*
X135350000Y-95575000D01*
X135337748Y-95574398D01*
X135325614Y-95572598D01*
X135313714Y-95569618D01*
X135302165Y-95565485D01*
X135291075Y-95560240D01*
X135280554Y-95553934D01*
X135270701Y-95546626D01*
X135261612Y-95538388D01*
X135253374Y-95529299D01*
X135246066Y-95519446D01*
X135239760Y-95508925D01*
X135234515Y-95497835D01*
X135230382Y-95486286D01*
X135227402Y-95474386D01*
X135225602Y-95462252D01*
X135225000Y-95450000D01*
X135225000Y-95200000D01*
X135225602Y-95187748D01*
X135227402Y-95175614D01*
X135230382Y-95163714D01*
X135234515Y-95152165D01*
X135239760Y-95141075D01*
X135246066Y-95130554D01*
X135253374Y-95120701D01*
X135261612Y-95111612D01*
X135270701Y-95103374D01*
X135280554Y-95096066D01*
X135291075Y-95089760D01*
X135302165Y-95084515D01*
X135313714Y-95080382D01*
X135325614Y-95077402D01*
X135337748Y-95075602D01*
X135350000Y-95075000D01*
X136725000Y-95075000D01*
X136737252Y-95075602D01*
X136737252Y-95075602D01*
G37*
D26*
X136037500Y-95325000D03*
D24*
G36*
X136737252Y-95725602D02*
G01*
X136749386Y-95727402D01*
X136761286Y-95730382D01*
X136772835Y-95734515D01*
X136783925Y-95739760D01*
X136794446Y-95746066D01*
X136804299Y-95753374D01*
X136813388Y-95761612D01*
X136821626Y-95770701D01*
X136828934Y-95780554D01*
X136835240Y-95791075D01*
X136840485Y-95802165D01*
X136844618Y-95813714D01*
X136847598Y-95825614D01*
X136849398Y-95837748D01*
X136850000Y-95850000D01*
X136850000Y-96100000D01*
X136849398Y-96112252D01*
X136847598Y-96124386D01*
X136844618Y-96136286D01*
X136840485Y-96147835D01*
X136835240Y-96158925D01*
X136828934Y-96169446D01*
X136821626Y-96179299D01*
X136813388Y-96188388D01*
X136804299Y-96196626D01*
X136794446Y-96203934D01*
X136783925Y-96210240D01*
X136772835Y-96215485D01*
X136761286Y-96219618D01*
X136749386Y-96222598D01*
X136737252Y-96224398D01*
X136725000Y-96225000D01*
X135350000Y-96225000D01*
X135337748Y-96224398D01*
X135325614Y-96222598D01*
X135313714Y-96219618D01*
X135302165Y-96215485D01*
X135291075Y-96210240D01*
X135280554Y-96203934D01*
X135270701Y-96196626D01*
X135261612Y-96188388D01*
X135253374Y-96179299D01*
X135246066Y-96169446D01*
X135239760Y-96158925D01*
X135234515Y-96147835D01*
X135230382Y-96136286D01*
X135227402Y-96124386D01*
X135225602Y-96112252D01*
X135225000Y-96100000D01*
X135225000Y-95850000D01*
X135225602Y-95837748D01*
X135227402Y-95825614D01*
X135230382Y-95813714D01*
X135234515Y-95802165D01*
X135239760Y-95791075D01*
X135246066Y-95780554D01*
X135253374Y-95770701D01*
X135261612Y-95761612D01*
X135270701Y-95753374D01*
X135280554Y-95746066D01*
X135291075Y-95739760D01*
X135302165Y-95734515D01*
X135313714Y-95730382D01*
X135325614Y-95727402D01*
X135337748Y-95725602D01*
X135350000Y-95725000D01*
X136725000Y-95725000D01*
X136737252Y-95725602D01*
X136737252Y-95725602D01*
G37*
D26*
X136037500Y-95975000D03*
D24*
G36*
X136737252Y-96375602D02*
G01*
X136749386Y-96377402D01*
X136761286Y-96380382D01*
X136772835Y-96384515D01*
X136783925Y-96389760D01*
X136794446Y-96396066D01*
X136804299Y-96403374D01*
X136813388Y-96411612D01*
X136821626Y-96420701D01*
X136828934Y-96430554D01*
X136835240Y-96441075D01*
X136840485Y-96452165D01*
X136844618Y-96463714D01*
X136847598Y-96475614D01*
X136849398Y-96487748D01*
X136850000Y-96500000D01*
X136850000Y-96750000D01*
X136849398Y-96762252D01*
X136847598Y-96774386D01*
X136844618Y-96786286D01*
X136840485Y-96797835D01*
X136835240Y-96808925D01*
X136828934Y-96819446D01*
X136821626Y-96829299D01*
X136813388Y-96838388D01*
X136804299Y-96846626D01*
X136794446Y-96853934D01*
X136783925Y-96860240D01*
X136772835Y-96865485D01*
X136761286Y-96869618D01*
X136749386Y-96872598D01*
X136737252Y-96874398D01*
X136725000Y-96875000D01*
X135350000Y-96875000D01*
X135337748Y-96874398D01*
X135325614Y-96872598D01*
X135313714Y-96869618D01*
X135302165Y-96865485D01*
X135291075Y-96860240D01*
X135280554Y-96853934D01*
X135270701Y-96846626D01*
X135261612Y-96838388D01*
X135253374Y-96829299D01*
X135246066Y-96819446D01*
X135239760Y-96808925D01*
X135234515Y-96797835D01*
X135230382Y-96786286D01*
X135227402Y-96774386D01*
X135225602Y-96762252D01*
X135225000Y-96750000D01*
X135225000Y-96500000D01*
X135225602Y-96487748D01*
X135227402Y-96475614D01*
X135230382Y-96463714D01*
X135234515Y-96452165D01*
X135239760Y-96441075D01*
X135246066Y-96430554D01*
X135253374Y-96420701D01*
X135261612Y-96411612D01*
X135270701Y-96403374D01*
X135280554Y-96396066D01*
X135291075Y-96389760D01*
X135302165Y-96384515D01*
X135313714Y-96380382D01*
X135325614Y-96377402D01*
X135337748Y-96375602D01*
X135350000Y-96375000D01*
X136725000Y-96375000D01*
X136737252Y-96375602D01*
X136737252Y-96375602D01*
G37*
D26*
X136037500Y-96625000D03*
D28*
X184900000Y-126700000D03*
X182900000Y-126700000D03*
X180900000Y-126700000D03*
X178900000Y-126700000D03*
X176900000Y-126700000D03*
X174900000Y-126700000D03*
X172900000Y-126700000D03*
X170900000Y-126700000D03*
X170900000Y-110500000D03*
X172900000Y-110500000D03*
X174900000Y-110500000D03*
X176900000Y-110500000D03*
X178900000Y-110500000D03*
X180900000Y-110500000D03*
X182900000Y-110500000D03*
X184900000Y-110500000D03*
D12*
X127000000Y-122050000D03*
X127000000Y-119950000D03*
X136750000Y-119950000D03*
X136750000Y-122050000D03*
X124500000Y-119950000D03*
X124500000Y-122050000D03*
D10*
X144750000Y-116550000D03*
X146850000Y-116550000D03*
X176450000Y-136500000D03*
X174350000Y-136500000D03*
X152050000Y-127600000D03*
X149950000Y-127600000D03*
X175050000Y-134500000D03*
X172950000Y-134500000D03*
D12*
X175634940Y-102532080D03*
X175634940Y-104632080D03*
X131000000Y-94400000D03*
X131000000Y-92300000D03*
X131000000Y-96250000D03*
X131000000Y-98350000D03*
X127000000Y-97150000D03*
X127000000Y-95050000D03*
D29*
X151000000Y-84900000D03*
X151000000Y-94200000D03*
X164000000Y-94200000D03*
X164000000Y-84900000D03*
D10*
X54850000Y-120500000D03*
X52750000Y-120500000D03*
X170706360Y-103528740D03*
X172806360Y-103528740D03*
X180950000Y-103800000D03*
X183050000Y-103800000D03*
D12*
X158050000Y-130350000D03*
X158050000Y-128250000D03*
X155500000Y-130350000D03*
X155500000Y-128250000D03*
D30*
X133660000Y-120350000D03*
X133660000Y-121650000D03*
X131000000Y-121650000D03*
X131000000Y-121000000D03*
X131000000Y-120350000D03*
D31*
X184900000Y-135060000D03*
D32*
X184900000Y-137600000D03*
D15*
X188700000Y-66500000D03*
X185600000Y-71500000D03*
X182500000Y-66500000D03*
X182500000Y-80600000D03*
X185600000Y-85600000D03*
X188700000Y-80600000D03*
X188700000Y-95000000D03*
X185600000Y-100000000D03*
X182500000Y-95000000D03*
D31*
X181200000Y-135060000D03*
D32*
X181200000Y-137600000D03*
D33*
X141000000Y-122000000D03*
X144000000Y-121050000D03*
X144000000Y-122950000D03*
X141000000Y-127500000D03*
X144000000Y-126550000D03*
X144000000Y-128450000D03*
D10*
X175550000Y-138600000D03*
X177650000Y-138600000D03*
D33*
X96500000Y-113200000D03*
X99500000Y-112250000D03*
X99500000Y-114150000D03*
D12*
X35800000Y-90050000D03*
X35800000Y-87950000D03*
D10*
X38550000Y-91400000D03*
X40650000Y-91400000D03*
D34*
X116300000Y-94250000D03*
X110200000Y-94250000D03*
X117550000Y-118750000D03*
X111450000Y-118750000D03*
D12*
X69600000Y-82650000D03*
X69600000Y-80550000D03*
X63200000Y-80550000D03*
X63200000Y-82650000D03*
X86200000Y-102100000D03*
X86200000Y-100000000D03*
X82600000Y-100350000D03*
X82600000Y-102450000D03*
D35*
X83142462Y-132942462D03*
D24*
G36*
X83955635Y-132836396D02*
G01*
X83036396Y-133755635D01*
X82329289Y-133048528D01*
X83248528Y-132129289D01*
X83955635Y-132836396D01*
X83955635Y-132836396D01*
G37*
D35*
X81657538Y-131457538D03*
D24*
G36*
X82470711Y-131351472D02*
G01*
X81551472Y-132270711D01*
X80844365Y-131563604D01*
X81763604Y-130644365D01*
X82470711Y-131351472D01*
X82470711Y-131351472D01*
G37*
D12*
X87400000Y-125150000D03*
X87400000Y-127250000D03*
D10*
X58750000Y-124400000D03*
X60850000Y-124400000D03*
D12*
X44400000Y-124350000D03*
X44400000Y-126450000D03*
X30200000Y-118050000D03*
X30200000Y-115950000D03*
X24000000Y-124350000D03*
X24000000Y-126450000D03*
D10*
X62600000Y-96200000D03*
X60500000Y-96200000D03*
D12*
X53750000Y-97950000D03*
X53750000Y-100050000D03*
D10*
X172836840Y-105664880D03*
X170736840Y-105664880D03*
D12*
X177753300Y-104632080D03*
X177753300Y-102532080D03*
D31*
X159200000Y-135500000D03*
X156660000Y-135500000D03*
X154120000Y-135500000D03*
X151580000Y-135500000D03*
X149040000Y-135500000D03*
D32*
X146500000Y-135500000D03*
D10*
X168458460Y-134516740D03*
X170558460Y-134516740D03*
D12*
X99000000Y-86450000D03*
X99000000Y-88550000D03*
X96750000Y-88550000D03*
X96750000Y-86450000D03*
D35*
X81650000Y-124250000D03*
X78350000Y-121750000D03*
X81650000Y-119250000D03*
D12*
X134600000Y-98550000D03*
X134600000Y-100650000D03*
X141600000Y-94350000D03*
X141600000Y-96450000D03*
D10*
X139350000Y-92000000D03*
X141450000Y-92000000D03*
X121950000Y-125400000D03*
X124050000Y-125400000D03*
X124050000Y-127600000D03*
X121950000Y-127600000D03*
D11*
X38150000Y-114900000D03*
X38650000Y-114900000D03*
X39150000Y-114900000D03*
X39650000Y-114900000D03*
X39650000Y-111700000D03*
X39150000Y-111700000D03*
X38650000Y-111700000D03*
X38150000Y-111700000D03*
D12*
X144000000Y-96450000D03*
X144000000Y-98550000D03*
D36*
X158000000Y-74200000D03*
X162000000Y-74200000D03*
X162000000Y-68200000D03*
X158000000Y-68200000D03*
D10*
X139350000Y-89900000D03*
X141450000Y-89900000D03*
D37*
X135820000Y-85500000D03*
X138360000Y-85500000D03*
D38*
X140900000Y-85500000D03*
D10*
X172750000Y-67900000D03*
X170650000Y-67900000D03*
D35*
X166800000Y-64950000D03*
X169300000Y-61650000D03*
X171800000Y-64950000D03*
D39*
X168330000Y-67800000D03*
D40*
X165670000Y-67800000D03*
D41*
X162400000Y-62370000D03*
D42*
X162400000Y-65030000D03*
D10*
X85250000Y-72100000D03*
X87350000Y-72100000D03*
X87250000Y-69800000D03*
X85150000Y-69800000D03*
X56550000Y-81500000D03*
X54450000Y-81500000D03*
D12*
X45500000Y-83550000D03*
X45500000Y-81450000D03*
D10*
X85150000Y-67300000D03*
X87250000Y-67300000D03*
X87250000Y-65200000D03*
X85150000Y-65200000D03*
X87050000Y-61500000D03*
X84950000Y-61500000D03*
D43*
X72440000Y-73700000D03*
X71170000Y-76240000D03*
X69900000Y-73700000D03*
X68630000Y-76240000D03*
X67360000Y-73700000D03*
X66090000Y-76240000D03*
X64820000Y-73700000D03*
X63550000Y-76240000D03*
D44*
X73080000Y-62900000D03*
X62920000Y-71790000D03*
D45*
X74595000Y-72430400D03*
D46*
X87250000Y-80100000D03*
X84350000Y-80100000D03*
D12*
X61600000Y-102000000D03*
X61600000Y-99900000D03*
X63800000Y-99900000D03*
X63800000Y-102000000D03*
D46*
X106050000Y-135100000D03*
X103150000Y-135100000D03*
D12*
X158900000Y-144950000D03*
X158900000Y-142850000D03*
X126900000Y-141950000D03*
X126900000Y-144050000D03*
D35*
X107957538Y-141942462D03*
D24*
G36*
X108063604Y-142755635D02*
G01*
X107144365Y-141836396D01*
X107851472Y-141129289D01*
X108770711Y-142048528D01*
X108063604Y-142755635D01*
X108063604Y-142755635D01*
G37*
D35*
X109442462Y-140457538D03*
D24*
G36*
X109548528Y-141270711D02*
G01*
X108629289Y-140351472D01*
X109336396Y-139644365D01*
X110255635Y-140563604D01*
X109548528Y-141270711D01*
X109548528Y-141270711D01*
G37*
D47*
X93500000Y-89250000D03*
X93500000Y-91750000D03*
X116750000Y-137500000D03*
X116750000Y-134750000D03*
X50000000Y-106750000D03*
X91500000Y-111500000D03*
X61750000Y-108000000D03*
X27000000Y-106750000D03*
X32250000Y-107750000D03*
X32250000Y-109750000D03*
X43500000Y-108500000D03*
X58000000Y-110500000D03*
X97750000Y-127500000D03*
X92500000Y-121750000D03*
X49250000Y-121500000D03*
X54500000Y-127000000D03*
X29000000Y-121500000D03*
X34250000Y-126750000D03*
X85000000Y-95750000D03*
X63750000Y-93250000D03*
X67750000Y-84750000D03*
X56000000Y-120500000D03*
D25*
X162000000Y-76000000D03*
X163500000Y-74500000D03*
X164500000Y-76500000D03*
X179600000Y-103800000D03*
X170600000Y-129200000D03*
X37400000Y-91600000D03*
D47*
X33800000Y-103400000D03*
X44200000Y-123200000D03*
X25000000Y-123200000D03*
X80800000Y-130600000D03*
X62200000Y-124400000D03*
X30200000Y-114800000D03*
X84200000Y-100200000D03*
X72200000Y-112800000D03*
X155321080Y-114698600D03*
X162121080Y-114739240D03*
X53750000Y-101250000D03*
X97750000Y-89500000D03*
X97000000Y-98250000D03*
X88750000Y-125250000D03*
X173500000Y-104500000D03*
X141800000Y-93200000D03*
X137200000Y-98600000D03*
X132400000Y-98600000D03*
X129600000Y-98600000D03*
X127200000Y-100000000D03*
X131000000Y-99800000D03*
X138600000Y-98000000D03*
X148600000Y-92000000D03*
X148600000Y-94200000D03*
X153200000Y-92000000D03*
X153200000Y-94200000D03*
X153200000Y-96600000D03*
X151000000Y-97600000D03*
X148600000Y-96800000D03*
X165800000Y-91800000D03*
X162000000Y-91800000D03*
X162000000Y-93800000D03*
X162000000Y-96600000D03*
X164200000Y-97400000D03*
X165708150Y-94200000D03*
X165600000Y-96800000D03*
X141400000Y-91000000D03*
X141000000Y-88900000D03*
X119000000Y-93400000D03*
X119000000Y-95400000D03*
X117800000Y-96200000D03*
X114600000Y-96200000D03*
X113600000Y-94600000D03*
X113800000Y-99800000D03*
X113800000Y-102600000D03*
X119800000Y-104000000D03*
X119600000Y-111800000D03*
X117600000Y-111800000D03*
X115600000Y-111800000D03*
X117000000Y-104000000D03*
X113800000Y-104000000D03*
X123800000Y-123200000D03*
X125200000Y-123200000D03*
X126600000Y-123200000D03*
X128000000Y-123200000D03*
X125000000Y-126400000D03*
X115400000Y-116800000D03*
X117600000Y-116800000D03*
X119600000Y-116800000D03*
X119600000Y-120600000D03*
X117600000Y-120600000D03*
X115400000Y-120600000D03*
D48*
X137600000Y-97400000D03*
X141500000Y-103000000D03*
X167500000Y-103000000D03*
X167500000Y-99500000D03*
X174500000Y-99500000D03*
X167000000Y-85500000D03*
X167000000Y-80500000D03*
X168000000Y-74000000D03*
X157500000Y-91500000D03*
X157500000Y-103000000D03*
X132000000Y-117000000D03*
X131500000Y-103500000D03*
X125500000Y-117000000D03*
D47*
X167500000Y-134500000D03*
X58820000Y-104300000D03*
X39920000Y-116700000D03*
X64000000Y-79750000D03*
D48*
X174500000Y-79000000D03*
X174500000Y-85500000D03*
D47*
X71200000Y-80600000D03*
X63850000Y-96200000D03*
X37350000Y-87925000D03*
X128300000Y-142000000D03*
X160500000Y-142900000D03*
X110600000Y-139500000D03*
D49*
X91950000Y-89210000D02*
X93460000Y-89210000D01*
X93460000Y-89210000D02*
X93500000Y-89250000D01*
X91950000Y-91750000D02*
X93500000Y-91750000D01*
X118300000Y-137310000D02*
X116940000Y-137310000D01*
X116940000Y-137310000D02*
X116750000Y-137500000D01*
X118300000Y-134770000D02*
X116770000Y-134770000D01*
X116770000Y-134770000D02*
X116750000Y-134750000D01*
X50000000Y-105550000D02*
X50000000Y-106750000D01*
X90300000Y-111500000D02*
X91500000Y-111500000D01*
X62950000Y-108750000D02*
X62500000Y-108750000D01*
X62500000Y-108750000D02*
X61750000Y-108000000D01*
X27000000Y-105800000D02*
X27000000Y-106750000D01*
X33450000Y-107750000D02*
X32250000Y-107750000D01*
X33450000Y-109750000D02*
X32250000Y-109750000D01*
X44740000Y-108460000D02*
X43540000Y-108460000D01*
X43540000Y-108460000D02*
X43500000Y-108500000D01*
X56600000Y-110490000D02*
X57990000Y-110490000D01*
X57990000Y-110490000D02*
X58000000Y-110500000D01*
X97560000Y-129300000D02*
X97560000Y-127690000D01*
X97560000Y-127690000D02*
X97750000Y-127500000D01*
X92500000Y-122700000D02*
X92500000Y-121750000D01*
X49250000Y-122700000D02*
X49250000Y-121500000D01*
X54560000Y-128800000D02*
X54560000Y-127060000D01*
X54560000Y-127060000D02*
X54500000Y-127000000D01*
X29000000Y-122700000D02*
X29000000Y-121500000D01*
X34310000Y-128800000D02*
X34310000Y-126810000D01*
X34310000Y-126810000D02*
X34250000Y-126750000D01*
X86550000Y-95560000D02*
X85190000Y-95560000D01*
X85190000Y-95560000D02*
X85000000Y-95750000D01*
X62200000Y-93310000D02*
X63690000Y-93310000D01*
X63690000Y-93310000D02*
X63750000Y-93250000D01*
X67750000Y-85950000D02*
X67750000Y-84750000D01*
X54850000Y-120500000D02*
X56000000Y-120500000D01*
D50*
X161670000Y-74275000D02*
X161670000Y-75670000D01*
X161670000Y-75670000D02*
X162000000Y-76000000D01*
X161670000Y-74275000D02*
X163275000Y-74275000D01*
X163275000Y-74275000D02*
X163500000Y-74500000D01*
X163500000Y-74500000D02*
X163500000Y-75500000D01*
X163500000Y-75500000D02*
X164500000Y-76500000D01*
D51*
X180950000Y-103800000D02*
X179600000Y-103800000D01*
X170900000Y-126700000D02*
X170900000Y-128900000D01*
X170900000Y-128900000D02*
X170600000Y-129200000D01*
D49*
X38550000Y-91400000D02*
X37600000Y-91400000D01*
X37600000Y-91400000D02*
X37400000Y-91600000D01*
X35050000Y-102795000D02*
X34405000Y-102795000D01*
X34405000Y-102795000D02*
X33800000Y-103400000D01*
D51*
X44400000Y-124350000D02*
X44400000Y-123400000D01*
X44400000Y-123400000D02*
X44200000Y-123200000D01*
X24000000Y-124350000D02*
X24000000Y-124200000D01*
X24000000Y-124200000D02*
X25000000Y-123200000D01*
X81657538Y-131457538D02*
X80800000Y-130600000D01*
X60850000Y-124400000D02*
X62200000Y-124400000D01*
X30200000Y-115950000D02*
X30200000Y-114800000D01*
X86200000Y-100000000D02*
X84400000Y-100000000D01*
X84400000Y-100000000D02*
X84200000Y-100200000D01*
X84050000Y-100350000D02*
X84200000Y-100200000D01*
X82600000Y-100350000D02*
X84050000Y-100350000D01*
D49*
X73810000Y-112685000D02*
X72315000Y-112685000D01*
X72315000Y-112685000D02*
X72200000Y-112800000D01*
X155321080Y-116271080D02*
X155400000Y-116350000D01*
X155321080Y-114698600D02*
X155321080Y-116271080D01*
X155321080Y-113148740D02*
X155321080Y-114698600D01*
X162121080Y-116271080D02*
X162200000Y-116350000D01*
X162121080Y-114739240D02*
X162121080Y-116271080D01*
X162121080Y-113148740D02*
X162121080Y-114739240D01*
D52*
X137925000Y-95325000D02*
X137600000Y-95650000D01*
X139162500Y-95325000D02*
X137925000Y-95325000D01*
D51*
X53750000Y-100050000D02*
X53750000Y-101250000D01*
D49*
X99000000Y-88550000D02*
X98700000Y-88550000D01*
X98700000Y-88550000D02*
X97750000Y-89500000D01*
X97700000Y-89500000D02*
X96750000Y-88550000D01*
X97750000Y-89500000D02*
X97700000Y-89500000D01*
X95950000Y-98250000D02*
X97000000Y-98250000D01*
X87400000Y-125150000D02*
X88650000Y-125150000D01*
X88650000Y-125150000D02*
X88750000Y-125250000D01*
X179109897Y-102532080D02*
X177753300Y-102532080D01*
X179600000Y-103800000D02*
X179600000Y-103022183D01*
X179600000Y-103022183D02*
X179109897Y-102532080D01*
D51*
X172806360Y-105634400D02*
X172836840Y-105664880D01*
X172806360Y-103528740D02*
X172806360Y-105634400D01*
X172806360Y-103528740D02*
X172806360Y-103806360D01*
X172806360Y-103806360D02*
X173500000Y-104500000D01*
X172836840Y-105163160D02*
X173500000Y-104500000D01*
X172836840Y-105664880D02*
X172836840Y-105163160D01*
D49*
X141450000Y-92000000D02*
X141450000Y-92850000D01*
X141450000Y-92850000D02*
X141800000Y-93200000D01*
X131000000Y-98350000D02*
X132150000Y-98350000D01*
X132150000Y-98350000D02*
X132400000Y-98600000D01*
X132400000Y-99229325D02*
X132600000Y-99429325D01*
X132400000Y-98600000D02*
X132400000Y-99229325D01*
X132600000Y-99429325D02*
X130429325Y-99429325D01*
X130429325Y-99429325D02*
X129600000Y-98600000D01*
X129600000Y-98600000D02*
X128600000Y-98600000D01*
X128600000Y-98600000D02*
X127200000Y-100000000D01*
X131000000Y-98350000D02*
X131000000Y-99800000D01*
X131000000Y-99800000D02*
X137800000Y-99800000D01*
X137800000Y-99800000D02*
X138600000Y-99000000D01*
X138600000Y-99000000D02*
X138600000Y-98000000D01*
X148600000Y-92000000D02*
X148600000Y-93600000D01*
X148600000Y-92000000D02*
X153200000Y-92000000D01*
X153200000Y-92000000D02*
X153200000Y-94200000D01*
X153200000Y-94200000D02*
X153200000Y-96600000D01*
X153200000Y-96600000D02*
X152000000Y-96600000D01*
X152000000Y-96600000D02*
X151000000Y-97600000D01*
X151000000Y-97600000D02*
X149400000Y-97600000D01*
X149400000Y-97600000D02*
X148600000Y-96800000D01*
X164000000Y-94200000D02*
X165708150Y-94200000D01*
X165800000Y-94108150D02*
X165800000Y-91800000D01*
X165800000Y-91800000D02*
X162000000Y-91800000D01*
X162000000Y-91800000D02*
X162000000Y-93800000D01*
X162000000Y-93800000D02*
X162000000Y-96600000D01*
X162000000Y-96600000D02*
X163400000Y-96600000D01*
X163400000Y-96600000D02*
X164200000Y-97400000D01*
X164200000Y-95708150D02*
X165708150Y-94200000D01*
X164200000Y-97400000D02*
X164200000Y-95708150D01*
X165800000Y-94108150D02*
X165708150Y-94200000D01*
X165708150Y-94200000D02*
X165708150Y-96691850D01*
X165708150Y-96691850D02*
X165600000Y-96800000D01*
X141450000Y-92000000D02*
X141450000Y-89650000D01*
X141450000Y-89650000D02*
X141000000Y-89200000D01*
X116300000Y-94250000D02*
X118150000Y-94250000D01*
X118150000Y-94250000D02*
X119000000Y-93400000D01*
X119000000Y-95400000D02*
X118600000Y-95400000D01*
X118600000Y-95400000D02*
X117800000Y-96200000D01*
X117800000Y-96200000D02*
X114600000Y-96200000D01*
X114600000Y-96200000D02*
X114600000Y-95600000D01*
X114600000Y-95600000D02*
X113600000Y-94600000D01*
X113750000Y-101250000D02*
X113750000Y-99850000D01*
X113750000Y-99850000D02*
X113800000Y-99800000D01*
X116850000Y-108000000D02*
X116850000Y-104592000D01*
X116850000Y-104592000D02*
X117442000Y-104000000D01*
X119800000Y-104000000D02*
X117442000Y-104000000D01*
X119800000Y-104000000D02*
X119800000Y-111600000D01*
X119800000Y-111600000D02*
X119600000Y-111800000D01*
X119600000Y-111800000D02*
X118000000Y-111800000D01*
X118000000Y-111800000D02*
X115600000Y-111800000D01*
X117442000Y-104000000D02*
X113800000Y-104000000D01*
X124500000Y-122050000D02*
X124500000Y-122500000D01*
X124500000Y-122500000D02*
X123800000Y-123200000D01*
X127000000Y-122050000D02*
X127000000Y-122800000D01*
X127000000Y-122800000D02*
X126600000Y-123200000D01*
X127000000Y-122050000D02*
X127000000Y-122200000D01*
X127000000Y-122200000D02*
X128000000Y-123200000D01*
D51*
X124950000Y-126450000D02*
X125000000Y-126400000D01*
X124050000Y-126450000D02*
X124950000Y-126450000D01*
X124050000Y-126450000D02*
X124050000Y-127600000D01*
X124050000Y-125400000D02*
X124050000Y-126450000D01*
D49*
X117550000Y-118750000D02*
X117350000Y-118750000D01*
X117350000Y-118750000D02*
X115400000Y-116800000D01*
X115400000Y-116800000D02*
X117600000Y-116800000D01*
X117550000Y-118750000D02*
X117550000Y-120550000D01*
X117550000Y-120550000D02*
X119550000Y-120550000D01*
X119550000Y-120550000D02*
X119600000Y-120600000D01*
X117550000Y-120508000D02*
X117458000Y-120600000D01*
X117550000Y-118750000D02*
X117550000Y-120508000D01*
X117458000Y-120600000D02*
X115400000Y-120600000D01*
X138600000Y-98000000D02*
X138000000Y-98000000D01*
X138000000Y-97800000D02*
X137600000Y-97400000D01*
X138000000Y-98000000D02*
X138000000Y-97800000D01*
X139044999Y-98444999D02*
X139044999Y-100544999D01*
X138600000Y-98000000D02*
X139044999Y-98444999D01*
X139044999Y-100544999D02*
X141500000Y-103000000D01*
X167500000Y-103000000D02*
X167500000Y-99500000D01*
X167500000Y-99500000D02*
X174500000Y-99500000D01*
X174500000Y-99500000D02*
X174500000Y-85500000D01*
X174500000Y-85500000D02*
X167000000Y-85500000D01*
X167000000Y-85500000D02*
X167000000Y-80500000D01*
X167000000Y-80500000D02*
X167000000Y-76000000D01*
X166000000Y-78000000D02*
X168000000Y-76000000D01*
X167000000Y-75000000D02*
X168000000Y-76000000D01*
X170000000Y-79000000D02*
X170000000Y-99000000D01*
X170000000Y-95000000D02*
X166000000Y-99000000D01*
X166000000Y-99000000D02*
X162000000Y-99000000D01*
X162000000Y-99000000D02*
X157500000Y-94500000D01*
X157500000Y-94500000D02*
X157500000Y-91500000D01*
X141500000Y-103000000D02*
X157500000Y-103000000D01*
X157500000Y-91500000D02*
X157500000Y-103000000D01*
X157500000Y-103000000D02*
X167500000Y-103000000D01*
X119600000Y-111800000D02*
X126800000Y-111800000D01*
X126800000Y-111800000D02*
X132000000Y-117000000D01*
X132000000Y-117000000D02*
X131500000Y-116500000D01*
X131500000Y-116500000D02*
X131500000Y-103500000D01*
X131500000Y-103500000D02*
X131500000Y-111000000D01*
X131500000Y-111000000D02*
X125500000Y-117000000D01*
X125500000Y-117000000D02*
X124500000Y-116000000D01*
X168458460Y-134516740D02*
X167516740Y-134516740D01*
X167516740Y-134516740D02*
X167500000Y-134500000D01*
D53*
X58550000Y-102480000D02*
X58550000Y-104030000D01*
X58550000Y-104030000D02*
X58820000Y-104300000D01*
X39650000Y-114900000D02*
X39650000Y-116430000D01*
X39650000Y-116430000D02*
X39920000Y-116700000D01*
D51*
X63200000Y-80550000D02*
X64000000Y-79750000D01*
D49*
X174500000Y-79000000D02*
X174500000Y-90500000D01*
D50*
X69600000Y-80550000D02*
X71150000Y-80550000D01*
X71150000Y-80550000D02*
X71200000Y-80600000D01*
D51*
X62600000Y-96200000D02*
X63850000Y-96200000D01*
X35800000Y-87950000D02*
X37325000Y-87950000D01*
X37325000Y-87950000D02*
X37350000Y-87925000D01*
X126900000Y-141950000D02*
X128250000Y-141950000D01*
X128250000Y-141950000D02*
X128300000Y-142000000D01*
X158900000Y-142850000D02*
X160450000Y-142850000D01*
X160450000Y-142850000D02*
X160500000Y-142900000D01*
X109442462Y-140457538D02*
X109642462Y-140457538D01*
X109642462Y-140457538D02*
X110600000Y-139500000D01*
D52*
X68500000Y-103200000D02*
X66000000Y-103200000D01*
X73810000Y-103795000D02*
X69095000Y-103795000D01*
X69095000Y-103795000D02*
X68500000Y-103200000D01*
X73810000Y-105065000D02*
X68735000Y-105065000D01*
X68735000Y-105065000D02*
X68500000Y-105300000D01*
X87000000Y-104950000D02*
X84500000Y-104950000D01*
X79210000Y-105065000D02*
X84385000Y-105065000D01*
X84385000Y-105065000D02*
X84500000Y-104950000D01*
X79210000Y-106335000D02*
X83785000Y-106335000D01*
X83785000Y-106335000D02*
X84500000Y-107050000D01*
X35050000Y-93905000D02*
X32405000Y-93905000D01*
X31450000Y-92950000D02*
X29500000Y-92950000D01*
X32405000Y-93905000D02*
X31450000Y-92950000D01*
X27250000Y-94200000D02*
X27250000Y-93750000D01*
X27250000Y-93750000D02*
X28050000Y-92950000D01*
X28050000Y-92950000D02*
X29500000Y-92950000D01*
X35050000Y-95175000D02*
X29625000Y-95175000D01*
X29625000Y-95175000D02*
X29500000Y-95050000D01*
X48500000Y-95200000D02*
X46250000Y-95200000D01*
X46225000Y-95175000D02*
X46250000Y-95200000D01*
X40450000Y-95175000D02*
X46225000Y-95175000D01*
X46250000Y-97300000D02*
X43300000Y-97300000D01*
X42445000Y-96445000D02*
X40450000Y-96445000D01*
X43300000Y-97300000D02*
X42445000Y-96445000D01*
D50*
X188700000Y-66500000D02*
X188700000Y-64700000D01*
X188700000Y-61700000D02*
X188700000Y-64700000D01*
X187000000Y-60000000D02*
X188700000Y-61700000D01*
X157000000Y-60000000D02*
X162000000Y-60000000D01*
X162000000Y-60000000D02*
X187000000Y-60000000D01*
X162000000Y-68200000D02*
X162000000Y-67300000D01*
X157000000Y-62300000D02*
X157000000Y-60000000D01*
X162000000Y-67300000D02*
X161800000Y-67100000D01*
X161800000Y-67100000D02*
X160800000Y-67100000D01*
X159850000Y-66150000D02*
X159850000Y-65150000D01*
X160800000Y-67100000D02*
X159850000Y-66150000D01*
X159850000Y-65150000D02*
X157000000Y-62300000D01*
X184400001Y-70300001D02*
X159300001Y-70300001D01*
X185600000Y-71500000D02*
X184400001Y-70300001D01*
X158000000Y-69000000D02*
X158000000Y-68200000D01*
X159300001Y-70300001D02*
X158000000Y-69000000D01*
D49*
X49250000Y-83000000D02*
X49250000Y-81300000D01*
X49250000Y-81300000D02*
X49200000Y-81250000D01*
X47893000Y-86250000D02*
X49000000Y-86250000D01*
X49000000Y-86250000D02*
X49250000Y-86000000D01*
X49250000Y-86000000D02*
X49250000Y-83000000D01*
X49250000Y-83000000D02*
X49250000Y-82750000D01*
X50980000Y-88230000D02*
X53800000Y-88230000D01*
X49000000Y-86250000D02*
X50980000Y-88230000D01*
D52*
X122000000Y-132750000D02*
X122000000Y-135500000D01*
X122540000Y-136040000D02*
X123700000Y-136040000D01*
X122000000Y-135500000D02*
X122540000Y-136040000D01*
X122000000Y-132750000D02*
X122000000Y-133000000D01*
X122500000Y-133500000D02*
X123700000Y-133500000D01*
X122000000Y-133000000D02*
X122500000Y-133500000D01*
X93950000Y-98250000D02*
X93950000Y-97950000D01*
X93950000Y-97950000D02*
X93250000Y-97250000D01*
X90460000Y-94290000D02*
X91950000Y-94290000D01*
X90000000Y-94750000D02*
X90460000Y-94290000D01*
X90000000Y-96500000D02*
X90000000Y-94750000D01*
X90750000Y-97250000D02*
X90000000Y-96500000D01*
X93250000Y-97250000D02*
X90750000Y-97250000D01*
X123700000Y-130960000D02*
X122000000Y-130960000D01*
X122000000Y-130960000D02*
X121960000Y-130960000D01*
X93950000Y-100557944D02*
X93950000Y-98250000D01*
X87000000Y-98000000D02*
X91500000Y-98000000D01*
X91500000Y-98000000D02*
X93700000Y-98000000D01*
X93700000Y-98000000D02*
X93950000Y-98250000D01*
X76393000Y-98000000D02*
X87000000Y-98000000D01*
D53*
X76393000Y-98000000D02*
X76393000Y-100000000D01*
X102077009Y-113940599D02*
X106450010Y-118313600D01*
X101696028Y-108306790D02*
X102077009Y-108687771D01*
D52*
X101696028Y-108303972D02*
X93950000Y-100557944D01*
D53*
X102077009Y-108687771D02*
X102077009Y-113940599D01*
X101696028Y-108303972D02*
X101696028Y-108306790D01*
X106450010Y-118313600D02*
X106450010Y-125950010D01*
X108500000Y-128000000D02*
X119000000Y-128000000D01*
X106450010Y-125950010D02*
X108500000Y-128000000D01*
D52*
X121960000Y-130960000D02*
X119000000Y-128000000D01*
X121970000Y-132230000D02*
X122000000Y-132200000D01*
X118300000Y-132230000D02*
X121970000Y-132230000D01*
X122000000Y-130960000D02*
X122000000Y-132200000D01*
X122000000Y-132200000D02*
X122000000Y-132750000D01*
X74107000Y-100000000D02*
X72250000Y-100000000D01*
X77625000Y-108875000D02*
X79210000Y-108875000D01*
X76500000Y-107750000D02*
X77625000Y-108875000D01*
X76500000Y-103357944D02*
X76500000Y-107750000D01*
X74688054Y-101545998D02*
X76500000Y-103357944D01*
X72250000Y-101545998D02*
X74688054Y-101545998D01*
X72000000Y-101295998D02*
X72250000Y-101545998D01*
X72000000Y-100250000D02*
X72000000Y-101295998D01*
X72250000Y-100000000D02*
X72000000Y-100250000D01*
D53*
X78075000Y-108875000D02*
X79210000Y-108875000D01*
X58050000Y-102480000D02*
X58050000Y-107013602D01*
X74953604Y-115839998D02*
X77470000Y-113323602D01*
X58050000Y-107013602D02*
X66876396Y-115839998D01*
X77470000Y-109480000D02*
X78075000Y-108875000D01*
X66876396Y-115839998D02*
X74953604Y-115839998D01*
X77470000Y-113323602D02*
X77470000Y-109480000D01*
D49*
X67450000Y-110000000D02*
X66300000Y-110000000D01*
X66300000Y-110000000D02*
X65050000Y-108750000D01*
D52*
X73810000Y-107605000D02*
X74895000Y-107605000D01*
X72000000Y-98000000D02*
X74107000Y-98000000D01*
X70750000Y-99250000D02*
X72000000Y-98000000D01*
X70750000Y-100750000D02*
X70750000Y-99250000D01*
X72000000Y-102000000D02*
X70750000Y-100750000D01*
X74500000Y-102000000D02*
X72000000Y-102000000D01*
X75500000Y-103000000D02*
X74500000Y-102000000D01*
X75500000Y-107000000D02*
X75500000Y-103000000D01*
X74895000Y-107605000D02*
X75500000Y-107000000D01*
D53*
X75415000Y-107605000D02*
X73810000Y-107605000D01*
X77019998Y-109209998D02*
X75415000Y-107605000D01*
X77019998Y-113137206D02*
X77019998Y-109209998D01*
X74767208Y-115389996D02*
X77019998Y-113137206D01*
X67062792Y-115389996D02*
X74767208Y-115389996D01*
X60140000Y-108467204D02*
X67062792Y-115389996D01*
D52*
X60138001Y-105773933D02*
X60138001Y-107838001D01*
X61600000Y-104311934D02*
X60138001Y-105773933D01*
X60138001Y-107838001D02*
X60140000Y-107840000D01*
X61600000Y-102000000D02*
X61600000Y-104311934D01*
D53*
X60140000Y-107840000D02*
X60140000Y-108467204D01*
D52*
X92607000Y-143500000D02*
X92000000Y-143500000D01*
X91500000Y-139250000D02*
X92480000Y-138270000D01*
X91500000Y-143000000D02*
X91500000Y-139250000D01*
X92000000Y-143500000D02*
X91500000Y-143000000D01*
X92480000Y-138270000D02*
X92480000Y-137700000D01*
X92607000Y-143500000D02*
X88550000Y-143500000D01*
X88550000Y-143500000D02*
X88500000Y-143450000D01*
X94893000Y-143500000D02*
X95500000Y-143500000D01*
X95500000Y-143500000D02*
X98500000Y-146500000D01*
X98500000Y-146500000D02*
X98500000Y-153500000D01*
X95020000Y-137700000D02*
X95020000Y-139020000D01*
X96500000Y-142500000D02*
X95500000Y-143500000D01*
X96500000Y-140500000D02*
X96500000Y-142500000D01*
X95020000Y-139020000D02*
X96500000Y-140500000D01*
X94893000Y-143750000D02*
X95250000Y-143750000D01*
D49*
X86050000Y-111500000D02*
X88200000Y-111500000D01*
D52*
X49857000Y-143500000D02*
X45550000Y-143500000D01*
X45550000Y-143500000D02*
X45500000Y-143450000D01*
X49857000Y-143500000D02*
X49250000Y-143500000D01*
X49430000Y-138320000D02*
X49430000Y-137100000D01*
X48500000Y-139250000D02*
X49430000Y-138320000D01*
X48500000Y-142750000D02*
X48500000Y-139250000D01*
X49250000Y-143500000D02*
X48500000Y-142750000D01*
X52143000Y-143500000D02*
X53000000Y-143500000D01*
X51970000Y-138720000D02*
X51970000Y-137100000D01*
X53250000Y-140000000D02*
X51970000Y-138720000D01*
X53250000Y-143250000D02*
X53250000Y-140000000D01*
X53000000Y-143500000D02*
X53250000Y-143250000D01*
X55500000Y-153500000D02*
X55500000Y-145500000D01*
X53500000Y-143500000D02*
X52143000Y-143500000D01*
X55500000Y-145500000D02*
X53500000Y-143500000D01*
D49*
X27000000Y-103700000D02*
X27000000Y-102300000D01*
D53*
X51200000Y-111760000D02*
X49990000Y-111760000D01*
X49990000Y-111760000D02*
X46840000Y-108610000D01*
X46840000Y-108610000D02*
X46840000Y-108460000D01*
X51200000Y-111760000D02*
X53040000Y-111760000D01*
D52*
X54080000Y-112800000D02*
X54080000Y-117030000D01*
D53*
X53040000Y-111760000D02*
X54080000Y-112800000D01*
X46083000Y-114550000D02*
X46670000Y-114550000D01*
X46670000Y-114550000D02*
X48320000Y-116200000D01*
X51000000Y-116200000D02*
X53250000Y-116200000D01*
X55160000Y-118110000D02*
X56600000Y-118110000D01*
D52*
X54080000Y-117030000D02*
X55160000Y-118110000D01*
D53*
X46443000Y-116500000D02*
X47900000Y-116500000D01*
X48200000Y-116200000D02*
X48320000Y-116200000D01*
D52*
X48320000Y-116200000D02*
X51000000Y-116200000D01*
D53*
X47900000Y-116500000D02*
X48200000Y-116200000D01*
D52*
X55596000Y-115570000D02*
X54241000Y-116925000D01*
X54241000Y-116925000D02*
X53975000Y-116925000D01*
X56600000Y-115570000D02*
X55596000Y-115570000D01*
D53*
X53250000Y-116200000D02*
X53975000Y-116925000D01*
X53975000Y-116925000D02*
X54080000Y-117030000D01*
X38650000Y-111700000D02*
X38650000Y-99750000D01*
X39415000Y-98985000D02*
X40450000Y-98985000D01*
X38650000Y-99750000D02*
X39415000Y-98985000D01*
X38789978Y-112799980D02*
X38797801Y-112799981D01*
X38650000Y-111700000D02*
X38650000Y-112660002D01*
X38650000Y-112660002D02*
X38789978Y-112799980D01*
X38797801Y-112799981D02*
X39347820Y-113350000D01*
X39347820Y-113350000D02*
X41450000Y-113350000D01*
X42500000Y-114400000D02*
X43957000Y-114400000D01*
X41450000Y-113350000D02*
X42500000Y-114400000D01*
X33320002Y-102756396D02*
X33916398Y-102160000D01*
X33916398Y-102160000D02*
X34460000Y-102160000D01*
X39150000Y-117250000D02*
X39800000Y-117900000D01*
X39150000Y-114900000D02*
X39150000Y-117250000D01*
X43777000Y-116600000D02*
X43957000Y-116420000D01*
X39800000Y-117900000D02*
X42000000Y-117900000D01*
X43300000Y-116600000D02*
X43777000Y-116600000D01*
X42000000Y-117900000D02*
X43300000Y-116600000D01*
X36165000Y-97715000D02*
X35050000Y-97715000D01*
X36600000Y-98150000D02*
X36165000Y-97715000D01*
X36600000Y-101610002D02*
X36600000Y-98150000D01*
X33916398Y-102160000D02*
X36050002Y-102160000D01*
X36050002Y-102160000D02*
X36600000Y-101610002D01*
X29030002Y-107046396D02*
X33916398Y-102160000D01*
X29030002Y-110663604D02*
X29030002Y-107046396D01*
X38611400Y-113249990D02*
X31616388Y-113249990D01*
X31616388Y-113249990D02*
X29030002Y-110663604D01*
X39150000Y-113788590D02*
X38611400Y-113249990D01*
X39150000Y-114900000D02*
X39150000Y-113788590D01*
D52*
X29357000Y-143500000D02*
X29000000Y-143500000D01*
X29000000Y-143500000D02*
X28500000Y-143000000D01*
X29230000Y-138520000D02*
X29230000Y-137200000D01*
X28500000Y-139250000D02*
X29230000Y-138520000D01*
X28500000Y-143000000D02*
X28500000Y-139250000D01*
X24000000Y-143450000D02*
X29307000Y-143450000D01*
X29307000Y-143450000D02*
X29357000Y-143500000D01*
X31643000Y-143500000D02*
X32500000Y-143500000D01*
X32500000Y-143500000D02*
X34000000Y-145000000D01*
X34000000Y-145000000D02*
X34000000Y-153500000D01*
X31770000Y-137200000D02*
X31770000Y-139020000D01*
X33750000Y-142250000D02*
X32500000Y-143500000D01*
X33750000Y-141000000D02*
X33750000Y-142250000D01*
X31770000Y-139020000D02*
X33750000Y-141000000D01*
D49*
X50000000Y-103450000D02*
X50000000Y-102500000D01*
X49020000Y-101520000D02*
X47540000Y-101520000D01*
X50000000Y-102500000D02*
X49020000Y-101520000D01*
D52*
X184500000Y-153500000D02*
X184500000Y-146050000D01*
X174500000Y-153500000D02*
X174500000Y-146050000D01*
X141500000Y-146050000D02*
X141500000Y-153500000D01*
X131500000Y-146050000D02*
X131500000Y-153500000D01*
X163000000Y-153500000D02*
X163000000Y-146050000D01*
X153000000Y-153500000D02*
X153000000Y-146050000D01*
X88500000Y-153500000D02*
X88500000Y-145550000D01*
X120000000Y-153500000D02*
X120000000Y-146050000D01*
X110000000Y-153500000D02*
X110000000Y-146050000D01*
X45500000Y-153500000D02*
X45500000Y-145550000D01*
X37500000Y-72405000D02*
X37480000Y-72385000D01*
D53*
X37650000Y-83450000D02*
X37500000Y-83450000D01*
X38480000Y-82620000D02*
X37650000Y-83450000D01*
X38480000Y-72385000D02*
X38480000Y-82620000D01*
D52*
X77000000Y-153500000D02*
X77000000Y-145550000D01*
X67000000Y-153500000D02*
X67000000Y-145550000D01*
X24000000Y-153500000D02*
X24000000Y-145550000D01*
D49*
X123700000Y-132230000D02*
X126980000Y-132230000D01*
X128000000Y-133250000D02*
X128950000Y-133250000D01*
X126980000Y-132230000D02*
X128000000Y-133250000D01*
X52800000Y-118452000D02*
X52800000Y-120450000D01*
X51200000Y-118110000D02*
X52458000Y-118110000D01*
X52800000Y-120450000D02*
X52750000Y-120500000D01*
X52458000Y-118110000D02*
X52800000Y-118452000D01*
D51*
X62800000Y-133300000D02*
X69300000Y-139800000D01*
X69300000Y-158300000D02*
X71400000Y-160400000D01*
X71400000Y-160400000D02*
X80500000Y-160400000D01*
X80500000Y-160400000D02*
X82800000Y-158100000D01*
D49*
X41708000Y-93905000D02*
X40450000Y-93905000D01*
X42200000Y-91942000D02*
X42200000Y-93413000D01*
X41658000Y-91400000D02*
X42200000Y-91942000D01*
X42200000Y-93413000D02*
X41708000Y-93905000D01*
X40650000Y-91400000D02*
X41658000Y-91400000D01*
D51*
X40462000Y-89800000D02*
X40650000Y-89988000D01*
X37000000Y-89800000D02*
X40462000Y-89800000D01*
X40650000Y-89988000D02*
X40650000Y-91400000D01*
X36750000Y-90050000D02*
X37000000Y-89800000D01*
X35800000Y-90050000D02*
X36750000Y-90050000D01*
X37458010Y-105691990D02*
X35550000Y-107600000D01*
X35550000Y-107600000D02*
X35550000Y-107750000D01*
X37600000Y-93800000D02*
X37600000Y-101000000D01*
X35800000Y-90050000D02*
X35800000Y-92000000D01*
X35800000Y-92000000D02*
X37600000Y-93800000D01*
X37600000Y-101000000D02*
X37458010Y-101141990D01*
X37458010Y-101141990D02*
X37458010Y-105691990D01*
X35550000Y-109750000D02*
X35550000Y-107750000D01*
X46940000Y-128800000D02*
X46940000Y-128540000D01*
X44550000Y-126450000D02*
X44400000Y-126450000D01*
X46640000Y-128540000D02*
X44550000Y-126450000D01*
X46940000Y-128540000D02*
X46640000Y-128540000D01*
X26690000Y-128800000D02*
X26690000Y-128690000D01*
X24150000Y-126450000D02*
X24000000Y-126450000D01*
X26390000Y-128690000D02*
X24150000Y-126450000D01*
X26690000Y-128690000D02*
X26390000Y-128690000D01*
X87550000Y-127250000D02*
X87400000Y-127250000D01*
X89600000Y-129300000D02*
X87550000Y-127250000D01*
X89940000Y-129300000D02*
X89600000Y-129300000D01*
X85988000Y-127250000D02*
X85638000Y-127600000D01*
X87400000Y-127250000D02*
X85988000Y-127250000D01*
X85638000Y-130446924D02*
X83142462Y-132942462D01*
X85638000Y-127600000D02*
X85638000Y-130446924D01*
X82800000Y-134000000D02*
X82800000Y-133400000D01*
X83433275Y-133366725D02*
X82800000Y-134000000D01*
X83633275Y-133366725D02*
X83433275Y-133366725D01*
X82800000Y-158100000D02*
X82800000Y-134000000D01*
X97100000Y-122700000D02*
X101000000Y-126600000D01*
X101000000Y-126600000D02*
X101000000Y-131400000D01*
X83800000Y-133200000D02*
X83633275Y-133366725D01*
X99200000Y-133200000D02*
X83800000Y-133200000D01*
X95000000Y-122700000D02*
X97100000Y-122700000D01*
X63200000Y-84690000D02*
X62200000Y-85690000D01*
X63200000Y-82650000D02*
X63200000Y-84690000D01*
X57050000Y-122700000D02*
X58750000Y-124400000D01*
X52750000Y-122150000D02*
X53300000Y-122700000D01*
X52750000Y-120500000D02*
X52750000Y-122150000D01*
X52000000Y-122700000D02*
X53300000Y-122700000D01*
X53300000Y-122700000D02*
X57050000Y-122700000D01*
X58750000Y-124400000D02*
X58750000Y-131650000D01*
X58750000Y-131650000D02*
X57100000Y-133300000D01*
X44250000Y-126450000D02*
X41800000Y-128900000D01*
X44400000Y-126450000D02*
X44250000Y-126450000D01*
X41800000Y-128900000D02*
X41800000Y-131200000D01*
X41800000Y-131200000D02*
X43900000Y-133300000D01*
X57100000Y-133300000D02*
X57700000Y-133300000D01*
X57700000Y-133300000D02*
X62800000Y-133300000D01*
X45300000Y-133300000D02*
X57700000Y-133300000D01*
X43900000Y-133300000D02*
X45300000Y-133300000D01*
X31750000Y-119600000D02*
X30200000Y-118050000D01*
X31750000Y-122700000D02*
X31750000Y-119600000D01*
X24000000Y-126450000D02*
X22350000Y-126450000D01*
X22350000Y-126450000D02*
X21400000Y-127400000D01*
X23700000Y-133300000D02*
X43900000Y-133300000D01*
X21400000Y-131000000D02*
X23700000Y-133300000D01*
X30200000Y-118050000D02*
X23750000Y-118050000D01*
X21400000Y-120400000D02*
X21400000Y-127800000D01*
X23750000Y-118050000D02*
X21400000Y-120400000D01*
X21400000Y-127400000D02*
X21400000Y-127800000D01*
X21400000Y-127800000D02*
X21400000Y-131000000D01*
X35800000Y-90050000D02*
X25150000Y-90050000D01*
X25150000Y-90050000D02*
X21400000Y-93800000D01*
X21400000Y-115700000D02*
X23750000Y-118050000D01*
X21400000Y-93800000D02*
X21400000Y-115700000D01*
D49*
X81255000Y-103795000D02*
X82600000Y-102450000D01*
X79210000Y-103795000D02*
X81255000Y-103795000D01*
X82950000Y-102100000D02*
X82600000Y-102450000D01*
X86200000Y-102100000D02*
X82950000Y-102100000D01*
D51*
X95000000Y-121438000D02*
X94162000Y-120600000D01*
X95000000Y-122700000D02*
X95000000Y-121438000D01*
X94162000Y-120600000D02*
X89800000Y-120600000D01*
X89800000Y-120600000D02*
X89600000Y-120800000D01*
X89600000Y-120800000D02*
X84000000Y-120800000D01*
X83595882Y-121000000D02*
X83395882Y-121200000D01*
X84000000Y-120800000D02*
X83800000Y-121000000D01*
X83800000Y-121000000D02*
X83595882Y-121000000D01*
X83395882Y-121200000D02*
X80200000Y-121200000D01*
X80200000Y-121200000D02*
X79000000Y-120000000D01*
X79000000Y-120000000D02*
X79000000Y-116800000D01*
X79000000Y-116800000D02*
X80800000Y-115000000D01*
X80800000Y-115000000D02*
X92800000Y-115000000D01*
X92800000Y-115000000D02*
X93400000Y-115600000D01*
X93400000Y-115600000D02*
X97000000Y-115600000D01*
D50*
X69600000Y-82650000D02*
X63200000Y-82650000D01*
X63200000Y-82650000D02*
X61100000Y-82650000D01*
X58800000Y-92580000D02*
X58800000Y-96200000D01*
X58800000Y-84950000D02*
X58800000Y-92580000D01*
X60500000Y-96200000D02*
X58800000Y-96200000D01*
X57420000Y-96200000D02*
X57370000Y-96250000D01*
X58800000Y-96200000D02*
X57420000Y-96200000D01*
X57370000Y-96250000D02*
X54500000Y-96250000D01*
X53750000Y-97000000D02*
X53750000Y-97950000D01*
X54500000Y-96250000D02*
X53750000Y-97000000D01*
X28000000Y-67000000D02*
X21400000Y-73600000D01*
X39500000Y-67000000D02*
X28000000Y-67000000D01*
X53610486Y-96250000D02*
X49860486Y-92500000D01*
X21400000Y-73600000D02*
X21400000Y-93800000D01*
X46500000Y-92500000D02*
X42000000Y-88000000D01*
X42000000Y-69500000D02*
X39500000Y-67000000D01*
X54500000Y-96250000D02*
X53610486Y-96250000D01*
X49860486Y-92500000D02*
X46500000Y-92500000D01*
D49*
X91950000Y-87940000D02*
X93310000Y-87940000D01*
X94800000Y-86450000D02*
X96750000Y-86450000D01*
X93310000Y-87940000D02*
X94800000Y-86450000D01*
X96750000Y-86450000D02*
X99000000Y-86450000D01*
X121950000Y-129198000D02*
X121950000Y-127600000D01*
X123700000Y-129690000D02*
X122442000Y-129690000D01*
X122442000Y-129690000D02*
X121950000Y-129198000D01*
X121950000Y-127600000D02*
X121950000Y-125400000D01*
X121950000Y-124242000D02*
X122200000Y-123992000D01*
X121950000Y-125400000D02*
X121950000Y-124242000D01*
X122200000Y-123992000D02*
X122200000Y-120200000D01*
X122450000Y-119950000D02*
X124500000Y-119950000D01*
X122200000Y-120200000D02*
X122450000Y-119950000D01*
D53*
X56695000Y-97950000D02*
X53750000Y-97950000D01*
X57050000Y-99280000D02*
X57050000Y-98305000D01*
X57050000Y-98305000D02*
X56695000Y-97950000D01*
X38150000Y-111700000D02*
X38150000Y-110450000D01*
X37450000Y-109750000D02*
X35550000Y-109750000D01*
X38150000Y-110450000D02*
X37450000Y-109750000D01*
D50*
X105000000Y-113000000D02*
X105000000Y-113050000D01*
X104000000Y-112000000D02*
X105000000Y-113000000D01*
X152000000Y-73500000D02*
X145500000Y-80000000D01*
X104000000Y-88750000D02*
X104000000Y-112000000D01*
X134250000Y-80000000D02*
X127000000Y-87250000D01*
X105000000Y-113050000D02*
X110700000Y-118750000D01*
X135500000Y-73000000D02*
X138500000Y-70000000D01*
X110700000Y-118750000D02*
X111450000Y-118750000D01*
X145500000Y-80000000D02*
X134250000Y-80000000D01*
X138500000Y-70000000D02*
X151000000Y-70000000D01*
X151000000Y-70000000D02*
X152000000Y-71000000D01*
X105500000Y-87250000D02*
X104000000Y-88750000D01*
X152000000Y-71000000D02*
X152000000Y-73500000D01*
D52*
X132300000Y-120646000D02*
X132004000Y-120350000D01*
X132300000Y-121400000D02*
X132300000Y-120646000D01*
X132004000Y-120350000D02*
X131000000Y-120350000D01*
X132050000Y-121650000D02*
X132300000Y-121400000D01*
X131000000Y-121650000D02*
X132050000Y-121650000D01*
D51*
X70250000Y-83300000D02*
X69600000Y-82650000D01*
X70250000Y-85950000D02*
X70250000Y-83300000D01*
D50*
X82630000Y-80100000D02*
X80080000Y-82650000D01*
X80080000Y-82650000D02*
X79050000Y-82650000D01*
X84350000Y-80100000D02*
X82630000Y-80100000D01*
D49*
X123700000Y-129690000D02*
X132440000Y-129690000D01*
X134800000Y-132050000D02*
X134800000Y-133250000D01*
X132440000Y-129690000D02*
X134800000Y-132050000D01*
X173342000Y-143950000D02*
X171650000Y-145642000D01*
X174500000Y-143950000D02*
X173342000Y-143950000D01*
X171650000Y-145642000D02*
X171650000Y-146450000D01*
X171650000Y-146450000D02*
X171125000Y-146975000D01*
X171125000Y-146975000D02*
X166350000Y-146975000D01*
X166350000Y-146975000D02*
X164375000Y-145000000D01*
X155208000Y-145000000D02*
X154158000Y-143950000D01*
X154158000Y-143950000D02*
X153000000Y-143950000D01*
X164375000Y-145000000D02*
X155208000Y-145000000D01*
X153000000Y-143950000D02*
X147650000Y-143950000D01*
X147650000Y-143950000D02*
X146625000Y-144975000D01*
X146625000Y-144975000D02*
X135025000Y-144975000D01*
X134000000Y-143950000D02*
X131500000Y-143950000D01*
X135025000Y-144975000D02*
X134000000Y-143950000D01*
X131500000Y-143950000D02*
X124225000Y-143950000D01*
X124225000Y-143950000D02*
X123150000Y-145025000D01*
X123150000Y-145025000D02*
X114450000Y-145025000D01*
X113375000Y-143950000D02*
X110000000Y-143950000D01*
X114450000Y-145025000D02*
X113375000Y-143950000D01*
X69100000Y-143450000D02*
X69300000Y-143650000D01*
X67000000Y-143450000D02*
X69100000Y-143450000D01*
D51*
X69300000Y-139800000D02*
X69300000Y-143650000D01*
X69300000Y-143650000D02*
X69300000Y-158300000D01*
D50*
X118200000Y-80100000D02*
X121825000Y-76475000D01*
X121825000Y-76475000D02*
X121825000Y-73000000D01*
X121825000Y-73000000D02*
X135500000Y-73000000D01*
D49*
X73800000Y-85950000D02*
X73825000Y-85925000D01*
X70250000Y-85950000D02*
X73800000Y-85950000D01*
D51*
X79013000Y-86375000D02*
X77875000Y-85237000D01*
X80275000Y-86375000D02*
X79013000Y-86375000D01*
X77875000Y-82775000D02*
X78000000Y-82650000D01*
X77875000Y-85237000D02*
X77875000Y-82775000D01*
D50*
X69600000Y-82650000D02*
X78000000Y-82650000D01*
X78000000Y-82650000D02*
X79050000Y-82650000D01*
D51*
X41125000Y-85550000D02*
X42000000Y-86425000D01*
D50*
X42000000Y-88000000D02*
X42000000Y-86425000D01*
D51*
X37500000Y-85550000D02*
X41125000Y-85550000D01*
D50*
X42000000Y-86425000D02*
X42000000Y-69500000D01*
D51*
X101938000Y-135100000D02*
X100637500Y-133799500D01*
X103150000Y-135100000D02*
X101938000Y-135100000D01*
X101000000Y-131400000D02*
X100637500Y-131762500D01*
X100637500Y-133799500D02*
X100637500Y-131762500D01*
X100637500Y-131762500D02*
X99200000Y-133200000D01*
X109850000Y-143950000D02*
X110000000Y-143950000D01*
X106050000Y-140150000D02*
X109850000Y-143950000D01*
X106050000Y-135100000D02*
X106050000Y-140150000D01*
X123700000Y-85000000D02*
X123700000Y-86412000D01*
X123700000Y-86412000D02*
X123850000Y-86562000D01*
D50*
X127000000Y-87250000D02*
X123850000Y-87250000D01*
D51*
X123850000Y-86562000D02*
X123850000Y-87250000D01*
D50*
X123850000Y-87250000D02*
X105500000Y-87250000D01*
X92100000Y-80100000D02*
X118200000Y-80100000D01*
D51*
X99000000Y-86450000D02*
X99000000Y-81100000D01*
X98000000Y-80100000D02*
X88200000Y-80100000D01*
X99000000Y-81100000D02*
X98000000Y-80100000D01*
D50*
X87250000Y-80100000D02*
X88200000Y-80100000D01*
X88200000Y-80100000D02*
X92100000Y-80100000D01*
D52*
X70250000Y-88050000D02*
X70250000Y-90000000D01*
X73250000Y-93000000D02*
X86530000Y-93000000D01*
X70250000Y-90000000D02*
X73250000Y-93000000D01*
X86530000Y-93000000D02*
X86550000Y-93020000D01*
X62200000Y-90770000D02*
X68230000Y-90770000D01*
X70250000Y-88750000D02*
X70250000Y-88050000D01*
X68230000Y-90770000D02*
X70250000Y-88750000D01*
D53*
X70250000Y-88050000D02*
X70250000Y-88500000D01*
X86550000Y-89210000D02*
X83715000Y-89210000D01*
X83175000Y-89750000D02*
X82425000Y-89750000D01*
X83715000Y-89210000D02*
X83175000Y-89750000D01*
D52*
X62200000Y-88230000D02*
X67570000Y-88230000D01*
X67570000Y-88230000D02*
X67750000Y-88050000D01*
D53*
X62380000Y-88050000D02*
X62200000Y-88230000D01*
D49*
X73810000Y-110145000D02*
X69695000Y-110145000D01*
X69695000Y-110145000D02*
X69550000Y-110000000D01*
D52*
X123700000Y-134770000D02*
X137662056Y-134770000D01*
X181845998Y-141295998D02*
X184500000Y-143950000D01*
X137662056Y-134770000D02*
X144188054Y-141295998D01*
D53*
X174895998Y-141295998D02*
X174704002Y-141295998D01*
D52*
X174895998Y-141295998D02*
X181845998Y-141295998D01*
D53*
X174704002Y-141295998D02*
X171000000Y-145000000D01*
X166608004Y-145000000D02*
X162904002Y-141295998D01*
X171000000Y-145000000D02*
X166608004Y-145000000D01*
D52*
X144188054Y-141295998D02*
X162904002Y-141295998D01*
X141500000Y-143950000D02*
X141450000Y-143950000D01*
X141450000Y-143950000D02*
X138500000Y-141000000D01*
X116750000Y-141000000D02*
X116000000Y-140250000D01*
X138500000Y-141000000D02*
X116750000Y-141000000D01*
X118300000Y-133500000D02*
X116250000Y-133500000D01*
X115250000Y-139500000D02*
X116000000Y-140250000D01*
X115250000Y-134500000D02*
X115250000Y-139500000D01*
X116250000Y-133500000D02*
X115250000Y-134500000D01*
X73810000Y-108875000D02*
X72375000Y-108875000D01*
X71250000Y-107750000D02*
X71250000Y-107000000D01*
X72375000Y-108875000D02*
X71250000Y-107750000D01*
X66000000Y-105300000D02*
X66000000Y-105750000D01*
X66000000Y-105750000D02*
X67250000Y-107000000D01*
X67250000Y-107000000D02*
X71250000Y-107000000D01*
X71250000Y-107000000D02*
X71915000Y-106335000D01*
X71915000Y-106335000D02*
X73810000Y-106335000D01*
X123700000Y-137310000D02*
X139560000Y-137310000D01*
X160800000Y-141750000D02*
X163000000Y-143950000D01*
X144000000Y-141750000D02*
X160800000Y-141750000D01*
X139560000Y-137310000D02*
X144000000Y-141750000D01*
X95000000Y-124046000D02*
X94654000Y-123700000D01*
X95000000Y-124800000D02*
X95000000Y-124046000D01*
X95020000Y-124820000D02*
X95000000Y-124800000D01*
X95020000Y-129300000D02*
X95020000Y-124820000D01*
X82200000Y-123700000D02*
X81650000Y-124250000D01*
X88700000Y-123700000D02*
X82200000Y-123700000D01*
X94654000Y-123700000D02*
X88700000Y-123700000D01*
X92480000Y-129300000D02*
X92480000Y-124820000D01*
X92480000Y-124820000D02*
X92500000Y-124800000D01*
X118300000Y-130960000D02*
X115790000Y-130960000D01*
X117950000Y-143950000D02*
X120000000Y-143950000D01*
X114500000Y-140500000D02*
X117950000Y-143950000D01*
X114500000Y-132250000D02*
X114500000Y-140500000D01*
X115790000Y-130960000D02*
X114500000Y-132250000D01*
D49*
X79210000Y-111415000D02*
X83865000Y-111415000D01*
X83865000Y-111415000D02*
X83950000Y-111500000D01*
D52*
X79210000Y-110145000D02*
X81105000Y-110145000D01*
X82500000Y-108750000D02*
X82750000Y-108750000D01*
X81105000Y-110145000D02*
X82500000Y-108750000D01*
X87000000Y-107050000D02*
X87000000Y-107500000D01*
X87000000Y-107500000D02*
X85750000Y-108750000D01*
X85750000Y-108750000D02*
X82750000Y-108750000D01*
X82750000Y-108750000D02*
X81605000Y-107605000D01*
X81605000Y-107605000D02*
X79210000Y-107605000D01*
X52000000Y-124800000D02*
X52000000Y-124250000D01*
X48910000Y-116840000D02*
X51200000Y-116840000D01*
X47500000Y-118250000D02*
X48910000Y-116840000D01*
X47500000Y-123250000D02*
X47500000Y-118250000D01*
X48000000Y-123750000D02*
X47500000Y-123250000D01*
X51500000Y-123750000D02*
X48000000Y-123750000D01*
X52000000Y-124250000D02*
X51500000Y-123750000D01*
X52020000Y-128800000D02*
X52020000Y-124820000D01*
X52020000Y-124820000D02*
X52000000Y-124800000D01*
D49*
X49480000Y-128800000D02*
X49480000Y-125030000D01*
X49480000Y-125030000D02*
X49250000Y-124800000D01*
D53*
X51200000Y-110490000D02*
X52610000Y-110490000D01*
D52*
X52610000Y-110490000D02*
X51200000Y-110490000D01*
X53250000Y-109850000D02*
X52610000Y-110490000D01*
X40500000Y-89000000D02*
X40591990Y-89091990D01*
X50750000Y-94750000D02*
X50750000Y-101500000D01*
X30750000Y-89000000D02*
X40500000Y-89000000D01*
X46000000Y-93750000D02*
X49750000Y-93750000D01*
X27300000Y-85550000D02*
X30750000Y-89000000D01*
X40591990Y-89091990D02*
X41341990Y-89091990D01*
X49750000Y-93750000D02*
X50750000Y-94750000D01*
X41341990Y-89091990D02*
X46000000Y-93750000D01*
X50750000Y-101500000D02*
X53250000Y-104000000D01*
X27000000Y-85550000D02*
X27300000Y-85550000D01*
X53250000Y-104000000D02*
X53250000Y-109850000D01*
D49*
X35050000Y-100255000D02*
X27055000Y-100255000D01*
X27055000Y-100255000D02*
X27000000Y-100200000D01*
D52*
X77000000Y-143450000D02*
X77000000Y-135750000D01*
X58090000Y-116840000D02*
X56600000Y-116840000D01*
X77000000Y-135750000D02*
X58090000Y-116840000D01*
X35050000Y-98985000D02*
X33485000Y-98985000D01*
X30250000Y-96500000D02*
X30250000Y-96445000D01*
X30305000Y-96445000D02*
X30250000Y-96500000D01*
X30945000Y-96445000D02*
X30305000Y-96445000D01*
X33485000Y-98985000D02*
X30945000Y-96445000D01*
X35050000Y-96445000D02*
X30250000Y-96445000D01*
X30250000Y-96445000D02*
X27395000Y-96445000D01*
X27395000Y-96445000D02*
X27250000Y-96300000D01*
X31750000Y-124800000D02*
X38620000Y-124800000D01*
D53*
X45300000Y-115260000D02*
X45300000Y-113990000D01*
X45300000Y-118120000D02*
X38670000Y-124750000D01*
X45300000Y-115260000D02*
X45300000Y-118120000D01*
D52*
X38620000Y-124800000D02*
X38670000Y-124750000D01*
D49*
X31770000Y-128800000D02*
X31770000Y-124820000D01*
D52*
X31770000Y-124820000D02*
X31750000Y-124800000D01*
D53*
X45300000Y-113990000D02*
X45300000Y-113420000D01*
X45300000Y-113420000D02*
X45870000Y-112850000D01*
X45870000Y-112850000D02*
X47630000Y-112850000D01*
X47630000Y-112850000D02*
X49080000Y-114300000D01*
X49080000Y-114300000D02*
X51200000Y-114300000D01*
X45300000Y-113936398D02*
X45300000Y-113990000D01*
D49*
X29230000Y-128800000D02*
X29230000Y-125030000D01*
D52*
X29230000Y-125030000D02*
X29000000Y-124800000D01*
D49*
X45440000Y-101520000D02*
X40455000Y-101520000D01*
D53*
X40455000Y-101520000D02*
X40450000Y-101525000D01*
D52*
X48500000Y-98000000D02*
X48500000Y-97300000D01*
X47500000Y-99000000D02*
X48500000Y-98000000D01*
X46000000Y-99000000D02*
X43000000Y-99000000D01*
X46000000Y-99000000D02*
X47500000Y-99000000D01*
X41745000Y-100255000D02*
X40450000Y-100255000D01*
X43000000Y-99000000D02*
X41745000Y-100255000D01*
X40450000Y-97715000D02*
X41454000Y-97715000D01*
X42739000Y-99000000D02*
X44000000Y-99000000D01*
X41454000Y-97715000D02*
X42739000Y-99000000D01*
X44000000Y-99000000D02*
X46000000Y-99000000D01*
X75250000Y-96500000D02*
X75250000Y-101000000D01*
X80000000Y-99000000D02*
X91750000Y-99000000D01*
X77000000Y-102000000D02*
X80000000Y-99000000D01*
X76250000Y-102000000D02*
X77000000Y-102000000D01*
X75250000Y-101000000D02*
X76250000Y-102000000D01*
X86550000Y-94290000D02*
X82210000Y-94290000D01*
X82210000Y-94290000D02*
X80000000Y-96500000D01*
D53*
X101625000Y-108875000D02*
X101625000Y-114125000D01*
D52*
X91750000Y-99000000D02*
X101625000Y-108875000D01*
D53*
X101625000Y-114125000D02*
X106000000Y-118500000D01*
X106000000Y-118500000D02*
X106000000Y-127500000D01*
X108190000Y-129690000D02*
X118300000Y-129690000D01*
X106000000Y-127500000D02*
X108190000Y-129690000D01*
D52*
X75800000Y-96500000D02*
X69900000Y-96500000D01*
X75800000Y-96500000D02*
X75250000Y-96500000D01*
X80000000Y-96500000D02*
X75800000Y-96500000D01*
X68275000Y-98125000D02*
X69900000Y-96500000D01*
X86550000Y-90480000D02*
X88880000Y-90480000D01*
X88880000Y-90480000D02*
X89575000Y-91175000D01*
X89575000Y-91175000D02*
X89575000Y-93300000D01*
X88585000Y-94290000D02*
X86550000Y-94290000D01*
X89575000Y-93300000D02*
X88585000Y-94290000D01*
D53*
X55600000Y-111760000D02*
X55020000Y-111180000D01*
X55020000Y-111180000D02*
X54980000Y-111180000D01*
X56600000Y-111760000D02*
X55600000Y-111760000D01*
D52*
X57050000Y-107210000D02*
X54980000Y-109280000D01*
X57050000Y-102480000D02*
X57050000Y-107210000D01*
D53*
X54980000Y-111180000D02*
X54980000Y-109280000D01*
X44849998Y-113730000D02*
X44849998Y-117933604D01*
X43463602Y-119320000D02*
X39930000Y-119320000D01*
X44849998Y-117933604D02*
X43463602Y-119320000D01*
X51200000Y-115570000D02*
X52720000Y-115570000D01*
X44849998Y-113233604D02*
X44849998Y-113730000D01*
X44849998Y-113730000D02*
X44849998Y-113790000D01*
X45683604Y-112399998D02*
X44849998Y-113233604D01*
X47816396Y-112399998D02*
X45683604Y-112399998D01*
X49076398Y-113660000D02*
X47816396Y-112399998D01*
X52670000Y-113660000D02*
X49076398Y-113660000D01*
X53180000Y-114170000D02*
X52670000Y-113660000D01*
X53180000Y-115110000D02*
X53180000Y-114170000D01*
X52720000Y-115570000D02*
X53180000Y-115110000D01*
X38150000Y-117540000D02*
X39930000Y-119320000D01*
X38150000Y-114900000D02*
X38150000Y-117540000D01*
X49630000Y-113030000D02*
X51200000Y-113030000D01*
X46500000Y-109900000D02*
X49630000Y-113030000D01*
X40475000Y-109900000D02*
X41500000Y-109900000D01*
X39650000Y-111700000D02*
X39650000Y-110725000D01*
X39650000Y-110725000D02*
X40475000Y-109900000D01*
D52*
X45800000Y-109900000D02*
X45800000Y-107000000D01*
D53*
X45800000Y-109900000D02*
X46500000Y-109900000D01*
X41500000Y-109900000D02*
X45800000Y-109900000D01*
D52*
X45800000Y-107000000D02*
X46200000Y-106600000D01*
X46200000Y-106600000D02*
X47600000Y-106600000D01*
X47600000Y-106600000D02*
X49000000Y-108000000D01*
X49000000Y-108000000D02*
X49000000Y-110130762D01*
X52582999Y-111117001D02*
X52600000Y-111100000D01*
X49000000Y-110130762D02*
X49986239Y-111117001D01*
X49986239Y-111117001D02*
X52582999Y-111117001D01*
X53400000Y-111100000D02*
X54300000Y-110200000D01*
X52600000Y-111100000D02*
X53400000Y-111100000D01*
X54300000Y-106450000D02*
X54300000Y-106400000D01*
X54300000Y-110200000D02*
X54300000Y-106450000D01*
X62538602Y-101200000D02*
X62861398Y-101200000D01*
X62861398Y-101200000D02*
X62888399Y-101172999D01*
X62511601Y-101172999D02*
X62538602Y-101200000D01*
X61372999Y-101172999D02*
X60065068Y-101172999D01*
X61572999Y-101172999D02*
X60065068Y-101172999D01*
X61572999Y-101172999D02*
X62511601Y-101172999D01*
X61372999Y-101172999D02*
X61572999Y-101172999D01*
X54300000Y-104600000D02*
X54300000Y-106450000D01*
X54300000Y-102550000D02*
X54300000Y-104600000D01*
X55491980Y-101358020D02*
X54300000Y-102550000D01*
X60065068Y-101172999D02*
X59880047Y-101358020D01*
X59880047Y-101358020D02*
X55491980Y-101358020D01*
X64472999Y-101172999D02*
X66222999Y-101172999D01*
X62888399Y-101172999D02*
X64472999Y-101172999D01*
X67002001Y-101172999D02*
X64472999Y-101172999D01*
X67375000Y-96750000D02*
X67375000Y-100800000D01*
X88152999Y-93647001D02*
X82210933Y-93647001D01*
X88800000Y-91925000D02*
X88800000Y-93000000D01*
X67375000Y-100800000D02*
X67002001Y-101172999D01*
X68102999Y-96022001D02*
X67375000Y-96750000D01*
X82210933Y-93647001D02*
X79835933Y-96022001D01*
X88800000Y-93000000D02*
X88152999Y-93647001D01*
X86550000Y-87940000D02*
X88040000Y-87940000D01*
X87563602Y-91125000D02*
X88000000Y-91125000D01*
X85652001Y-91122999D02*
X87561601Y-91122999D01*
X85650000Y-91125000D02*
X85652001Y-91122999D01*
X79835933Y-96022001D02*
X68102999Y-96022001D01*
X88750000Y-89230998D02*
X88127999Y-89852999D01*
X88750000Y-88650000D02*
X88750000Y-89230998D01*
X87561601Y-91122999D02*
X87563602Y-91125000D01*
X88040000Y-87940000D02*
X88750000Y-88650000D01*
X84847001Y-89852999D02*
X84425000Y-90275000D01*
X88000000Y-91125000D02*
X88800000Y-91925000D01*
X88127999Y-89852999D02*
X84847001Y-89852999D01*
X84425000Y-90275000D02*
X84425000Y-90600000D01*
X84425000Y-90600000D02*
X84950000Y-91125000D01*
X84950000Y-91125000D02*
X85650000Y-91125000D01*
X127650000Y-83150000D02*
X125800000Y-85000000D01*
X148480000Y-72385000D02*
X144915000Y-72385000D01*
X132000000Y-78800000D02*
X127650000Y-83150000D01*
X139950000Y-78800000D02*
X132000000Y-78800000D01*
D53*
X143000000Y-74300000D02*
X143900000Y-73400000D01*
X141450000Y-78800000D02*
X143000000Y-77250000D01*
X139950000Y-78800000D02*
X141450000Y-78800000D01*
X143000000Y-77250000D02*
X143000000Y-74300000D01*
D52*
X144915000Y-72385000D02*
X143900000Y-73400000D01*
D53*
X94040000Y-95560000D02*
X91950000Y-95560000D01*
D52*
X123700000Y-82500000D02*
X118700000Y-82500000D01*
X110786398Y-84975000D02*
X110761398Y-85000000D01*
X116225000Y-84975000D02*
X110786398Y-84975000D01*
X118700000Y-82500000D02*
X116225000Y-84975000D01*
X104600000Y-85000000D02*
X101300000Y-88300000D01*
X110761398Y-85000000D02*
X104600000Y-85000000D01*
D53*
X101300000Y-88300000D02*
X94040000Y-95560000D01*
X33001803Y-102438197D02*
X32870000Y-102570000D01*
X35050000Y-101525000D02*
X33915000Y-101525000D01*
X33915000Y-101525000D02*
X33170000Y-102270000D01*
X33170000Y-102270000D02*
X33001803Y-102438197D01*
X28579992Y-110850004D02*
X28579992Y-106860008D01*
X31429988Y-113700000D02*
X28579992Y-110850004D01*
X38425000Y-113700000D02*
X31429988Y-113700000D01*
X38650000Y-113925000D02*
X38425000Y-113700000D01*
X28579992Y-106860008D02*
X33170000Y-102270000D01*
X38650000Y-114900000D02*
X38650000Y-113925000D01*
X39450000Y-102795000D02*
X40450000Y-102795000D01*
X39150000Y-111700000D02*
X39150000Y-103095000D01*
X39150000Y-103095000D02*
X39450000Y-102795000D01*
D52*
X63800000Y-102000000D02*
X63800000Y-102754000D01*
X73810000Y-111415000D02*
X63727034Y-111415000D01*
X60594009Y-106944009D02*
X60592011Y-106942011D01*
X63727034Y-111415000D02*
X60594009Y-108281975D01*
X60594009Y-108281975D02*
X60594009Y-106944009D01*
X60592011Y-105961989D02*
X61327000Y-105227000D01*
X60592011Y-106942011D02*
X60592011Y-105961989D01*
X63800000Y-102754000D02*
X61327000Y-105227000D01*
X61327000Y-105227000D02*
X60592010Y-105961990D01*
D53*
X78745000Y-112685000D02*
X79210000Y-112685000D01*
X66690000Y-116290000D02*
X75140000Y-116290000D01*
X75140000Y-116290000D02*
X78745000Y-112685000D01*
X57550000Y-107150000D02*
X57900000Y-107500000D01*
X57550000Y-102480000D02*
X57550000Y-107150000D01*
X57900000Y-107500000D02*
X66690000Y-116290000D01*
D52*
X125800000Y-82350000D02*
X125800000Y-82500000D01*
X129900000Y-78250000D02*
X125800000Y-82350000D01*
X136750000Y-78250000D02*
X129900000Y-78250000D01*
D53*
X136750000Y-78250000D02*
X138500000Y-78250000D01*
X138500000Y-78250000D02*
X139000000Y-77750000D01*
X139000000Y-74385000D02*
X141000000Y-72385000D01*
X139000000Y-77750000D02*
X139000000Y-74385000D01*
X29600000Y-74285000D02*
X29600000Y-80850000D01*
X29600000Y-80850000D02*
X28425000Y-82025000D01*
X31500000Y-72385000D02*
X29600000Y-74285000D01*
D52*
X28425000Y-82025000D02*
X27000000Y-83450000D01*
D49*
X77425000Y-91050000D02*
X77425000Y-91175000D01*
X78000000Y-91750000D02*
X81550000Y-91750000D01*
X86550000Y-91750000D02*
X81550000Y-91750000D01*
X77425000Y-91175000D02*
X78000000Y-91750000D01*
X81550000Y-91750000D02*
X81025000Y-91750000D01*
X184900000Y-104642000D02*
X184900000Y-110500000D01*
X183050000Y-103800000D02*
X184058000Y-103800000D01*
X184058000Y-103800000D02*
X184900000Y-104642000D01*
D52*
X162300000Y-109450000D02*
X164800000Y-109450000D01*
X164800000Y-109450000D02*
X169900000Y-114550000D01*
X169900000Y-114550000D02*
X183850000Y-114550000D01*
X184900000Y-113500000D02*
X184900000Y-110500000D01*
X183850000Y-114550000D02*
X184900000Y-113500000D01*
X141000000Y-122000000D02*
X139000000Y-122000000D01*
X139000000Y-122000000D02*
X138300000Y-121300000D01*
X138300000Y-121300000D02*
X138300000Y-119650000D01*
X148500000Y-109450000D02*
X155500000Y-109450000D01*
X138300000Y-119650000D02*
X148500000Y-109450000D01*
D49*
X162121080Y-109148740D02*
X155321080Y-109148740D01*
X144750000Y-121050000D02*
X144000000Y-121050000D01*
X145600000Y-120200000D02*
X144750000Y-121050000D01*
X144750000Y-116550000D02*
X144750000Y-117950000D01*
X145600000Y-118800000D02*
X145600000Y-120200000D01*
X144750000Y-117950000D02*
X145600000Y-118800000D01*
X145458000Y-128450000D02*
X144000000Y-128450000D01*
X146000000Y-128992000D02*
X145458000Y-128450000D01*
X159200000Y-135500000D02*
X159200000Y-136702081D01*
X159200000Y-136702081D02*
X157902081Y-138000000D01*
X146000000Y-130500000D02*
X146000000Y-128992000D01*
X143500000Y-133000000D02*
X146000000Y-130500000D01*
X144500000Y-138000000D02*
X143500000Y-137000000D01*
X143500000Y-137000000D02*
X143500000Y-133000000D01*
X150200000Y-138000000D02*
X144500000Y-138000000D01*
X150500000Y-138000000D02*
X150200000Y-138000000D01*
X157902081Y-138000000D02*
X150500000Y-138000000D01*
D52*
X150500000Y-136700000D02*
X150300000Y-136500000D01*
X150500000Y-138000000D02*
X150500000Y-136700000D01*
X150300000Y-136500000D02*
X150300000Y-134000000D01*
X150300000Y-134000000D02*
X153600000Y-130700000D01*
X153600000Y-130700000D02*
X153600000Y-125200000D01*
X146850000Y-116550000D02*
X146850000Y-121900000D01*
X146850000Y-121900000D02*
X149300000Y-124350000D01*
X152750000Y-124350000D02*
X153600000Y-125200000D01*
X149300000Y-124350000D02*
X152750000Y-124350000D01*
X176450000Y-137404000D02*
X176600000Y-137554000D01*
X176450000Y-136500000D02*
X176450000Y-137404000D01*
X176600000Y-137554000D02*
X176600000Y-140200000D01*
D49*
X176450000Y-136500000D02*
X176450000Y-130750000D01*
X176900000Y-130300000D02*
X176900000Y-126700000D01*
X176450000Y-130750000D02*
X176900000Y-130300000D01*
D52*
X162200000Y-120350000D02*
X175250000Y-120350000D01*
X176900000Y-122000000D02*
X176900000Y-126700000D01*
X175250000Y-120350000D02*
X176900000Y-122000000D01*
D49*
X162200000Y-120350000D02*
X155400000Y-120350000D01*
D53*
X175956012Y-140843988D02*
X176600000Y-140200000D01*
X139500000Y-135968706D02*
X144375282Y-140843988D01*
X170813600Y-144549990D02*
X174519602Y-140843988D01*
X140450000Y-127500000D02*
X139500000Y-128450000D01*
X166794404Y-144549990D02*
X170813600Y-144549990D01*
X144375282Y-140843988D02*
X163091230Y-140843988D01*
X141000000Y-127500000D02*
X140450000Y-127500000D01*
X163091230Y-140843988D02*
X163356012Y-141108770D01*
X163356012Y-141108770D02*
X163356012Y-141111598D01*
X139500000Y-128450000D02*
X139500000Y-135968706D01*
X163356012Y-141111598D02*
X166794404Y-144549990D01*
X174519602Y-140843988D02*
X175956012Y-140843988D01*
D49*
X131000000Y-92300000D02*
X132800000Y-92300000D01*
X135120990Y-94620990D02*
X136037500Y-94620990D01*
X135000000Y-94500000D02*
X136000000Y-94500000D01*
X135000000Y-94500000D02*
X135120990Y-94620990D01*
X132800000Y-92300000D02*
X135000000Y-94500000D01*
X136000000Y-94500000D02*
X136750000Y-93750000D01*
X136750000Y-93750000D02*
X138250000Y-93750000D01*
X138250000Y-93750000D02*
X138750000Y-94250000D01*
D52*
X139162500Y-94325000D02*
X139087500Y-94250000D01*
X139087500Y-94250000D02*
X139000000Y-94250000D01*
X139162500Y-94675000D02*
X139162500Y-94325000D01*
D49*
X138750000Y-94250000D02*
X139000000Y-94250000D01*
X139000000Y-94250000D02*
X139750000Y-94250000D01*
D50*
X185600000Y-85600000D02*
X185600000Y-77350000D01*
X183000000Y-100000000D02*
X185164990Y-100000000D01*
X179500000Y-96500000D02*
X183000000Y-100000000D01*
X179500000Y-94500000D02*
X179500000Y-96500000D01*
X179500000Y-91700000D02*
X179500000Y-93000000D01*
X179500000Y-94500000D02*
X179500000Y-93000000D01*
X185600000Y-85600000D02*
X179500000Y-91700000D01*
X126000000Y-91000000D02*
X126000000Y-92000000D01*
X154500000Y-72000000D02*
X154500000Y-74000000D01*
X154500000Y-74000000D02*
X146050000Y-82450000D01*
X135820000Y-85500000D02*
X131500000Y-85500000D01*
X134550000Y-82450000D02*
X129050000Y-87950000D01*
X131500000Y-85500000D02*
X129050000Y-87950000D01*
X129050000Y-87950000D02*
X126000000Y-91000000D01*
D51*
X174012000Y-67900000D02*
X178412000Y-63500000D01*
X172750000Y-67900000D02*
X174012000Y-67900000D01*
X178412000Y-63500000D02*
X184800000Y-63500000D01*
X184800000Y-63500000D02*
X186000000Y-64700000D01*
X186000000Y-64700000D02*
X186000000Y-67900000D01*
X186000000Y-67900000D02*
X188300000Y-70200000D01*
X188300000Y-70200000D02*
X188300000Y-74400000D01*
X186075000Y-76625000D02*
X184875000Y-76625000D01*
D50*
X185600000Y-77350000D02*
X184875000Y-76625000D01*
D51*
X188300000Y-74400000D02*
X186075000Y-76625000D01*
D50*
X184875000Y-76625000D02*
X180250000Y-72000000D01*
X135820000Y-84227208D02*
X136000000Y-84047208D01*
X135820000Y-85500000D02*
X135820000Y-84227208D01*
X136000000Y-82900000D02*
X136450000Y-82450000D01*
X136000000Y-84047208D02*
X136000000Y-82900000D01*
X146050000Y-82450000D02*
X136450000Y-82450000D01*
X136450000Y-82450000D02*
X134550000Y-82450000D01*
X180250000Y-72000000D02*
X155000000Y-72000000D01*
X152500000Y-66000000D02*
X155000000Y-68500000D01*
X155000000Y-72000000D02*
X154500000Y-72000000D01*
X155000000Y-70300000D02*
X155000000Y-72000000D01*
X155000000Y-68500000D02*
X155000000Y-70300000D01*
X93300000Y-61500000D02*
X94400000Y-60400000D01*
X146900000Y-60400000D02*
X152500000Y-66000000D01*
X94400000Y-60400000D02*
X146900000Y-60400000D01*
D51*
X102802944Y-72385000D02*
X101125000Y-70707056D01*
X104500000Y-72385000D02*
X102802944Y-72385000D01*
X101125000Y-70707056D02*
X101125000Y-67250000D01*
X95375000Y-61500000D02*
X92475000Y-61500000D01*
X101125000Y-67250000D02*
X95375000Y-61500000D01*
D50*
X87050000Y-61500000D02*
X92475000Y-61500000D01*
X92475000Y-61500000D02*
X93300000Y-61500000D01*
D49*
X172950000Y-135658000D02*
X173492000Y-136200000D01*
X172950000Y-134500000D02*
X172950000Y-135658000D01*
X174050000Y-136200000D02*
X174350000Y-136500000D01*
X173492000Y-136200000D02*
X174050000Y-136200000D01*
X175550000Y-138600000D02*
X175200000Y-138600000D01*
X174350000Y-137750000D02*
X174350000Y-136500000D01*
X175200000Y-138600000D02*
X174350000Y-137750000D01*
D52*
X175634940Y-101778080D02*
X176193140Y-101219880D01*
X175634940Y-102532080D02*
X175634940Y-101778080D01*
X176193140Y-101219880D02*
X181918900Y-101219880D01*
X181918900Y-101219880D02*
X182894260Y-102195240D01*
X182894260Y-102195240D02*
X184182040Y-102195240D01*
X185727001Y-103740201D02*
X185727001Y-113327419D01*
X184182040Y-102195240D02*
X185727001Y-103740201D01*
X152820070Y-117445990D02*
X150534660Y-119731400D01*
X185727001Y-113327419D02*
X181608430Y-117445990D01*
X181608430Y-117445990D02*
X152820070Y-117445990D01*
X150534660Y-119731400D02*
X150534660Y-122563500D01*
X152938057Y-123895990D02*
X153204010Y-124161944D01*
X150534660Y-122563500D02*
X151867150Y-123895990D01*
X151867150Y-123895990D02*
X152938057Y-123895990D01*
X154054010Y-125011943D02*
X154054010Y-132018470D01*
X153204010Y-124161944D02*
X154054010Y-125011943D01*
X154054010Y-132018470D02*
X152833360Y-133239120D01*
X152833360Y-133239120D02*
X152833360Y-136401420D01*
X152833360Y-136401420D02*
X153534400Y-137102460D01*
X153534400Y-137102460D02*
X157263120Y-137102460D01*
X157263120Y-137102460D02*
X157951460Y-136414120D01*
X157951460Y-136414120D02*
X157951460Y-134232260D01*
X157951460Y-134232260D02*
X158728700Y-133455020D01*
X158728700Y-133455020D02*
X161962120Y-133455020D01*
X165007100Y-136500000D02*
X174350000Y-136500000D01*
X161962120Y-133455020D02*
X165007100Y-136500000D01*
D49*
X170706360Y-105634400D02*
X170736840Y-105664880D01*
X170706360Y-103528740D02*
X170706360Y-105634400D01*
X170900000Y-105828040D02*
X170736840Y-105664880D01*
X170900000Y-110500000D02*
X170900000Y-105828040D01*
X152050000Y-127750000D02*
X152000000Y-127800000D01*
X152050000Y-127600000D02*
X152050000Y-127750000D01*
X152000000Y-127800000D02*
X152000000Y-130000000D01*
X149040000Y-132960000D02*
X149040000Y-135500000D01*
X152000000Y-130000000D02*
X149040000Y-132960000D01*
X145458000Y-122950000D02*
X148108000Y-125600000D01*
X144000000Y-122950000D02*
X145458000Y-122950000D01*
X148108000Y-125600000D02*
X151600000Y-125600000D01*
X152050000Y-126050000D02*
X152050000Y-127600000D01*
X151600000Y-125600000D02*
X152050000Y-126050000D01*
X175050000Y-134500000D02*
X175050000Y-129650000D01*
X174900000Y-129500000D02*
X174900000Y-126700000D01*
X175050000Y-129650000D02*
X174900000Y-129500000D01*
D52*
X136037500Y-95325000D02*
X131075000Y-95325000D01*
X131075000Y-95325000D02*
X131000000Y-95250000D01*
X131000000Y-95000000D02*
X131000000Y-96250000D01*
X131000000Y-95000000D02*
X131000000Y-94400000D01*
X131000000Y-95250000D02*
X131000000Y-95000000D01*
X133000000Y-97250000D02*
X127100000Y-97250000D01*
X127100000Y-97250000D02*
X127000000Y-97150000D01*
X136037500Y-95975000D02*
X134275000Y-95975000D01*
X134275000Y-95975000D02*
X133000000Y-97250000D01*
X184900000Y-126700000D02*
X184900000Y-135060000D01*
X158010440Y-128250000D02*
X158050000Y-128250000D01*
X156950700Y-129309740D02*
X158010440Y-128250000D01*
X154821138Y-129309740D02*
X156950700Y-129309740D01*
X154508020Y-128996622D02*
X154821138Y-129309740D01*
X151688470Y-122004338D02*
X154508020Y-124823888D01*
X151688470Y-119611529D02*
X151688470Y-122004338D01*
X153400000Y-117900000D02*
X151688470Y-119611529D01*
X181400000Y-117900000D02*
X153400000Y-117900000D01*
X154508020Y-124823888D02*
X154508020Y-128996622D01*
X184900000Y-121400000D02*
X181400000Y-117900000D01*
X184900000Y-126700000D02*
X184900000Y-121400000D01*
X182900000Y-133560000D02*
X181500000Y-134960000D01*
X182900000Y-126700000D02*
X182900000Y-133560000D01*
X182900000Y-126700000D02*
X182900000Y-121550000D01*
X182900000Y-121550000D02*
X180200000Y-118850000D01*
X180200000Y-118850000D02*
X153092066Y-118850000D01*
X152142480Y-119799586D02*
X153092066Y-118850000D01*
X152142480Y-121816281D02*
X152142480Y-119799586D01*
X155500000Y-125173799D02*
X152142480Y-121816281D01*
X155500000Y-128250000D02*
X155500000Y-125173799D01*
X155500000Y-130350000D02*
X155500000Y-131800000D01*
X154120000Y-133180000D02*
X154120000Y-135500000D01*
X155500000Y-131800000D02*
X154120000Y-133180000D01*
X85000000Y-119250000D02*
X81650000Y-119250000D01*
X84830000Y-119250000D02*
X85000000Y-119250000D01*
X97850000Y-119250000D02*
X85000000Y-119250000D01*
X104300000Y-158600000D02*
X104300000Y-125700000D01*
X184900000Y-141257933D02*
X189400000Y-145757933D01*
X184900000Y-137600000D02*
X184900000Y-141257933D01*
X104300000Y-125700000D02*
X97850000Y-119250000D01*
X106700000Y-161000000D02*
X104300000Y-158600000D01*
X189400000Y-145757933D02*
X189400000Y-158000000D01*
X189400000Y-158000000D02*
X186400000Y-161000000D01*
X186400000Y-161000000D02*
X106700000Y-161000000D01*
X61430000Y-113030000D02*
X56600000Y-113030000D01*
X78350000Y-121750000D02*
X70150000Y-121750000D01*
X70150000Y-121750000D02*
X69325000Y-120925000D01*
X69325000Y-120925000D02*
X61430000Y-113030000D01*
X177650000Y-138450000D02*
X177650000Y-138600000D01*
X178600000Y-137500000D02*
X177650000Y-138450000D01*
X181500000Y-137500000D02*
X178600000Y-137500000D01*
X181500000Y-140000000D02*
X181500000Y-137500000D01*
X106196033Y-159853967D02*
X106203967Y-159853967D01*
X106895990Y-160545990D02*
X186211944Y-160545990D01*
X186211944Y-160545990D02*
X188945990Y-157811944D01*
X104754010Y-158411944D02*
X106196033Y-159853967D01*
X99500000Y-114150000D02*
X100050000Y-114150000D01*
X106203967Y-159853967D02*
X106895990Y-160545990D01*
X100050000Y-114150000D02*
X104754010Y-118854010D01*
X188945990Y-157811944D02*
X188945990Y-145945990D01*
X184000000Y-142500000D02*
X181500000Y-140000000D01*
X104754010Y-118854010D02*
X104754010Y-158411944D01*
X188945990Y-145945990D02*
X185500000Y-142500000D01*
X185500000Y-142500000D02*
X184000000Y-142500000D01*
X96500000Y-113200000D02*
X91600000Y-113200000D01*
X91600000Y-113200000D02*
X91000000Y-113800000D01*
X91000000Y-113800000D02*
X80600000Y-113800000D01*
X55597001Y-112402999D02*
X55000000Y-113000000D01*
X61445066Y-112402999D02*
X55597001Y-112402999D01*
X66242066Y-117200000D02*
X61445066Y-112402999D01*
X80600000Y-113800000D02*
X77200000Y-117200000D01*
X77200000Y-117200000D02*
X66242066Y-117200000D01*
X55000000Y-113000000D02*
X55000000Y-113800000D01*
X55500000Y-114300000D02*
X56600000Y-114300000D01*
X55000000Y-113800000D02*
X55500000Y-114300000D01*
X158050000Y-130350000D02*
X158050000Y-132000000D01*
X156660000Y-133390000D02*
X156660000Y-135500000D01*
X158050000Y-132000000D02*
X156660000Y-133390000D01*
D49*
X175634940Y-104632080D02*
X177753300Y-104632080D01*
X177753300Y-104632080D02*
X177882080Y-104632080D01*
X180900000Y-107650000D02*
X180900000Y-110500000D01*
X177882080Y-104632080D02*
X180900000Y-107650000D01*
D52*
X170558460Y-134366740D02*
X170558460Y-134516740D01*
X172900000Y-132025200D02*
X170558460Y-134366740D01*
X172900000Y-126700000D02*
X172900000Y-132025200D01*
D49*
X149950000Y-127600000D02*
X147600000Y-127600000D01*
X146550000Y-126550000D02*
X144000000Y-126550000D01*
X147600000Y-127600000D02*
X146550000Y-126550000D01*
D50*
X150400000Y-85500000D02*
X151000000Y-84900000D01*
X140900000Y-85500000D02*
X150400000Y-85500000D01*
D52*
X134975000Y-96625000D02*
X136037500Y-96625000D01*
X134600000Y-98550000D02*
X134600000Y-97000000D01*
X134600000Y-97000000D02*
X134975000Y-96625000D01*
D51*
X168430000Y-67900000D02*
X168330000Y-67800000D01*
X170650000Y-67900000D02*
X168430000Y-67900000D01*
X165670000Y-67770000D02*
X165670000Y-67800000D01*
X162400000Y-65030000D02*
X162930000Y-65030000D01*
X162930000Y-65030000D02*
X165670000Y-67770000D01*
D50*
X162400000Y-62370000D02*
X166770000Y-62370000D01*
X166770000Y-62370000D02*
X168000000Y-63600000D01*
X170450000Y-63600000D02*
X171800000Y-64950000D01*
X168000000Y-63600000D02*
X170450000Y-63600000D01*
D49*
X45607000Y-86250000D02*
X45250000Y-86250000D01*
X45250000Y-86250000D02*
X44750000Y-86750000D01*
X46770000Y-90770000D02*
X53800000Y-90770000D01*
X44750000Y-88750000D02*
X46770000Y-90770000D01*
X44750000Y-86750000D02*
X44750000Y-88750000D01*
D52*
X45500000Y-86143000D02*
X45607000Y-86250000D01*
X45500000Y-83550000D02*
X45500000Y-86143000D01*
X63550000Y-76292067D02*
X66619962Y-79362029D01*
X63550000Y-76240000D02*
X63550000Y-76292067D01*
X80564171Y-79362029D02*
X84062030Y-75864170D01*
X66619962Y-79362029D02*
X80564171Y-79362029D01*
X85250000Y-72100000D02*
X85250000Y-72250000D01*
X84062030Y-73437970D02*
X84062030Y-74262030D01*
X84062030Y-75864170D02*
X84062030Y-74262030D01*
X85250000Y-72250000D02*
X84062030Y-73437970D01*
D53*
X83675000Y-86375000D02*
X85724990Y-84325010D01*
X88950000Y-74925000D02*
X88950000Y-72700000D01*
X88950000Y-72700000D02*
X88350000Y-72100000D01*
X82375000Y-86375000D02*
X83675000Y-86375000D01*
X85724990Y-78150010D02*
X88950000Y-74925000D01*
X88350000Y-72100000D02*
X87350000Y-72100000D01*
X85724990Y-84325010D02*
X85724990Y-78150010D01*
X79175000Y-89350000D02*
X79575000Y-89750000D01*
X79175000Y-88525000D02*
X79175000Y-89350000D01*
X79575000Y-89750000D02*
X80325000Y-89750000D01*
X87250000Y-69800000D02*
X88700000Y-69800000D01*
X79650000Y-88050000D02*
X79175000Y-88525000D01*
X83300000Y-88050000D02*
X79650000Y-88050000D01*
X89975000Y-74650000D02*
X86175000Y-78450000D01*
X88700000Y-69800000D02*
X89975000Y-71075000D01*
X89975000Y-71075000D02*
X89975000Y-74650000D01*
X86175000Y-85175000D02*
X83300000Y-88050000D01*
X86175000Y-78450000D02*
X86175000Y-85175000D01*
D52*
X64820000Y-73700000D02*
X64820000Y-76920000D01*
X84396000Y-69800000D02*
X83608020Y-70587980D01*
X85150000Y-69800000D02*
X84396000Y-69800000D01*
X80376114Y-78908019D02*
X66808019Y-78908019D01*
X83608020Y-75676113D02*
X80376114Y-78908019D01*
X83608020Y-70587980D02*
X83608020Y-75676113D01*
X66808019Y-78908019D02*
X65550000Y-77650000D01*
X64820000Y-76920000D02*
X65550000Y-77650000D01*
X57304000Y-81500000D02*
X56550000Y-81500000D01*
X57600000Y-81204000D02*
X57304000Y-81500000D01*
X66090000Y-76240000D02*
X66090000Y-72190000D01*
X63600000Y-69700000D02*
X60700000Y-69700000D01*
X66090000Y-72190000D02*
X63600000Y-69700000D01*
X60700000Y-69700000D02*
X57600000Y-72800000D01*
X57600000Y-72800000D02*
X57600000Y-81204000D01*
X51550000Y-81500000D02*
X51300000Y-81250000D01*
X54450000Y-81500000D02*
X51550000Y-81500000D01*
X45500000Y-80696000D02*
X46696000Y-79500000D01*
X45500000Y-81450000D02*
X45500000Y-80696000D01*
X67360000Y-73700000D02*
X67360000Y-72260000D01*
X67360000Y-72260000D02*
X64200000Y-69100000D01*
X64200000Y-69100000D02*
X60300000Y-69100000D01*
X60300000Y-69100000D02*
X56500000Y-72900000D01*
X56500000Y-77900000D02*
X54900000Y-79500000D01*
X56500000Y-72900000D02*
X56500000Y-77900000D01*
X46696000Y-79500000D02*
X54900000Y-79500000D01*
X68630000Y-77300660D02*
X68630000Y-76240000D01*
X69783349Y-78454009D02*
X68630000Y-77300660D01*
X80188057Y-78454009D02*
X69783349Y-78454009D01*
X82888056Y-75754010D02*
X80188057Y-78454009D01*
X83154010Y-75488057D02*
X82888056Y-75754010D01*
X84396000Y-67300000D02*
X83154010Y-68541990D01*
X83154010Y-68541990D02*
X83154010Y-75488057D01*
X85150000Y-67300000D02*
X84396000Y-67300000D01*
D49*
X91790000Y-67300000D02*
X100690000Y-76200000D01*
X87250000Y-67300000D02*
X91790000Y-67300000D01*
X106910000Y-74800000D02*
X108310000Y-76200000D01*
X87250000Y-65200000D02*
X91600000Y-65200000D01*
X91600000Y-65200000D02*
X100700000Y-74300000D01*
X106400000Y-74300000D02*
X106900000Y-74800000D01*
X100700000Y-74300000D02*
X106400000Y-74300000D01*
X106900000Y-74800000D02*
X106910000Y-74800000D01*
D52*
X83800000Y-65200000D02*
X85150000Y-65200000D01*
X82700000Y-66300000D02*
X83800000Y-65200000D01*
X82700000Y-75300000D02*
X82700000Y-66300000D01*
X80000000Y-78000000D02*
X82700000Y-75300000D01*
X70500000Y-78000000D02*
X80000000Y-78000000D01*
X69900000Y-77400000D02*
X70500000Y-78000000D01*
X69900000Y-73700000D02*
X69900000Y-77400000D01*
D50*
X84950000Y-61500000D02*
X78700000Y-61500000D01*
X72440000Y-67760000D02*
X72440000Y-73700000D01*
X78700000Y-61500000D02*
X72440000Y-67760000D01*
D52*
X57550000Y-100259000D02*
X57550000Y-99280000D01*
X61600000Y-99900000D02*
X60696000Y-99900000D01*
X60696000Y-99900000D02*
X59691990Y-100904010D01*
X59691990Y-100904010D02*
X57936943Y-100904010D01*
X57550000Y-100517067D02*
X57550000Y-100259000D01*
X57936943Y-100904010D02*
X57550000Y-100517067D01*
X63800000Y-99146000D02*
X63800000Y-99900000D01*
X63479000Y-98825000D02*
X63800000Y-99146000D01*
X60000000Y-99225000D02*
X60400000Y-98825000D01*
X58125000Y-100450000D02*
X59503933Y-100450000D01*
X60000000Y-99953933D02*
X60000000Y-99225000D01*
X60400000Y-98825000D02*
X63479000Y-98825000D01*
X58050000Y-99280000D02*
X58050000Y-100375000D01*
X58050000Y-100375000D02*
X58125000Y-100450000D01*
X59503933Y-100450000D02*
X60000000Y-99953933D01*
X58550000Y-99280000D02*
X58550000Y-98250000D01*
X58550000Y-98250000D02*
X58900000Y-97900000D01*
X58900000Y-97900000D02*
X65300000Y-97900000D01*
X65550000Y-98150000D02*
X66325000Y-98150000D01*
X65300000Y-97900000D02*
X65550000Y-98150000D01*
D49*
X131050000Y-133250000D02*
X132700000Y-133250000D01*
X73825000Y-89550000D02*
X75325000Y-91050000D01*
X73825000Y-88025000D02*
X73825000Y-89550000D01*
D52*
G36*
X165373000Y-77373000D02*
G01*
X161127000Y-77373000D01*
X161127000Y-75715350D01*
X161145506Y-75730537D01*
X161255820Y-75789502D01*
X161375518Y-75825812D01*
X161500000Y-75838072D01*
X161714250Y-75835000D01*
X161873000Y-75676250D01*
X161873000Y-74327000D01*
X162127000Y-74327000D01*
X162127000Y-75676250D01*
X162285750Y-75835000D01*
X162500000Y-75838072D01*
X162624482Y-75825812D01*
X162744180Y-75789502D01*
X162854494Y-75730537D01*
X162951185Y-75651185D01*
X163030537Y-75554494D01*
X163089502Y-75444180D01*
X163125812Y-75324482D01*
X163138072Y-75200000D01*
X163135000Y-74485750D01*
X162976250Y-74327000D01*
X162127000Y-74327000D01*
X161873000Y-74327000D01*
X161853000Y-74327000D01*
X161853000Y-74073000D01*
X161873000Y-74073000D01*
X161873000Y-74053000D01*
X162127000Y-74053000D01*
X162127000Y-74073000D01*
X162976250Y-74073000D01*
X163135000Y-73914250D01*
X163136235Y-73627000D01*
X165373000Y-73627000D01*
X165373000Y-77373000D01*
X165373000Y-77373000D01*
G37*
X165373000Y-77373000D02*
X161127000Y-77373000D01*
X161127000Y-75715350D01*
X161145506Y-75730537D01*
X161255820Y-75789502D01*
X161375518Y-75825812D01*
X161500000Y-75838072D01*
X161714250Y-75835000D01*
X161873000Y-75676250D01*
X161873000Y-74327000D01*
X162127000Y-74327000D01*
X162127000Y-75676250D01*
X162285750Y-75835000D01*
X162500000Y-75838072D01*
X162624482Y-75825812D01*
X162744180Y-75789502D01*
X162854494Y-75730537D01*
X162951185Y-75651185D01*
X163030537Y-75554494D01*
X163089502Y-75444180D01*
X163125812Y-75324482D01*
X163138072Y-75200000D01*
X163135000Y-74485750D01*
X162976250Y-74327000D01*
X162127000Y-74327000D01*
X161873000Y-74327000D01*
X161853000Y-74327000D01*
X161853000Y-74073000D01*
X161873000Y-74073000D01*
X161873000Y-74053000D01*
X162127000Y-74053000D01*
X162127000Y-74073000D01*
X162976250Y-74073000D01*
X163135000Y-73914250D01*
X163136235Y-73627000D01*
X165373000Y-73627000D01*
X165373000Y-77373000D01*
G36*
X99873000Y-108052606D02*
G01*
X99873000Y-111521418D01*
X98550000Y-111521418D01*
X98485897Y-111527732D01*
X98424257Y-111546430D01*
X98367450Y-111576794D01*
X98317657Y-111617657D01*
X98276794Y-111667450D01*
X98246430Y-111724257D01*
X98227732Y-111785897D01*
X98221418Y-111850000D01*
X98221418Y-112650000D01*
X98227732Y-112714103D01*
X98246430Y-112775743D01*
X98276794Y-112832550D01*
X98317657Y-112882343D01*
X98367450Y-112923206D01*
X98424257Y-112953570D01*
X98485897Y-112972268D01*
X98550000Y-112978582D01*
X99873000Y-112978582D01*
X99873000Y-113421418D01*
X98550000Y-113421418D01*
X98485897Y-113427732D01*
X98424257Y-113446430D01*
X98367450Y-113476794D01*
X98317657Y-113517657D01*
X98276794Y-113567450D01*
X98246430Y-113624257D01*
X98227732Y-113685897D01*
X98221418Y-113750000D01*
X98221418Y-114550000D01*
X98227732Y-114614103D01*
X98246430Y-114675743D01*
X98276794Y-114732550D01*
X98317657Y-114782343D01*
X98367450Y-114823206D01*
X98424257Y-114853570D01*
X98485897Y-114872268D01*
X98550000Y-114878582D01*
X99873000Y-114878582D01*
X99873000Y-118373000D01*
X86500000Y-118373000D01*
X86475224Y-118375440D01*
X86451399Y-118382667D01*
X86429443Y-118394403D01*
X86410197Y-118410197D01*
X86394403Y-118429443D01*
X86382667Y-118451399D01*
X86375440Y-118475224D01*
X86373000Y-118500000D01*
X86373000Y-118796000D01*
X82341270Y-118796000D01*
X82292372Y-118722819D01*
X82177181Y-118607628D01*
X82041731Y-118517123D01*
X81891227Y-118454782D01*
X81731452Y-118423000D01*
X81568548Y-118423000D01*
X81408773Y-118454782D01*
X81258269Y-118517123D01*
X81122819Y-118607628D01*
X81007628Y-118722819D01*
X80917123Y-118858269D01*
X80854782Y-119008773D01*
X80823000Y-119168548D01*
X80823000Y-119331452D01*
X80854782Y-119491227D01*
X80917123Y-119641731D01*
X81007628Y-119777181D01*
X81122819Y-119892372D01*
X81258269Y-119982877D01*
X81408773Y-120045218D01*
X81568548Y-120077000D01*
X81731452Y-120077000D01*
X81891227Y-120045218D01*
X82041731Y-119982877D01*
X82177181Y-119892372D01*
X82292372Y-119777181D01*
X82341270Y-119704000D01*
X86373000Y-119704000D01*
X86373000Y-123246000D01*
X82222284Y-123246000D01*
X82199999Y-123243805D01*
X82177714Y-123246000D01*
X82177705Y-123246000D01*
X82111001Y-123252570D01*
X82025421Y-123278530D01*
X81946551Y-123320687D01*
X81882808Y-123373000D01*
X79127000Y-123373000D01*
X79127000Y-122035209D01*
X79145218Y-121991227D01*
X79177000Y-121831452D01*
X79177000Y-121668548D01*
X79145218Y-121508773D01*
X79127000Y-121464791D01*
X79127000Y-115915052D01*
X80788053Y-114254000D01*
X90977712Y-114254000D01*
X91000000Y-114256195D01*
X91022288Y-114254000D01*
X91022295Y-114254000D01*
X91088999Y-114247430D01*
X91174579Y-114221470D01*
X91253449Y-114179313D01*
X91317192Y-114127000D01*
X95000000Y-114127000D01*
X95024776Y-114124560D01*
X95048601Y-114117333D01*
X95070557Y-114105597D01*
X95089803Y-114089803D01*
X95105597Y-114070557D01*
X95117333Y-114048601D01*
X95124560Y-114024776D01*
X95127000Y-114000000D01*
X95127000Y-113654000D01*
X95226737Y-113654000D01*
X95227732Y-113664103D01*
X95246430Y-113725743D01*
X95276794Y-113782550D01*
X95317657Y-113832343D01*
X95367450Y-113873206D01*
X95424257Y-113903570D01*
X95485897Y-113922268D01*
X95550000Y-113928582D01*
X97450000Y-113928582D01*
X97514103Y-113922268D01*
X97575743Y-113903570D01*
X97632550Y-113873206D01*
X97682343Y-113832343D01*
X97723206Y-113782550D01*
X97753570Y-113725743D01*
X97772268Y-113664103D01*
X97778582Y-113600000D01*
X97778582Y-112800000D01*
X97772268Y-112735897D01*
X97753570Y-112674257D01*
X97723206Y-112617450D01*
X97682343Y-112567657D01*
X97632550Y-112526794D01*
X97575743Y-112496430D01*
X97514103Y-112477732D01*
X97450000Y-112471418D01*
X95550000Y-112471418D01*
X95485897Y-112477732D01*
X95424257Y-112496430D01*
X95367450Y-112526794D01*
X95317657Y-112567657D01*
X95276794Y-112617450D01*
X95246430Y-112674257D01*
X95227732Y-112735897D01*
X95226737Y-112746000D01*
X95127000Y-112746000D01*
X95127000Y-109500000D01*
X95124560Y-109475224D01*
X95117333Y-109451399D01*
X95105597Y-109429443D01*
X95089803Y-109410197D01*
X88589803Y-102910197D01*
X88570557Y-102894403D01*
X88548601Y-102882667D01*
X88524776Y-102875440D01*
X88500000Y-102873000D01*
X87424097Y-102873000D01*
X87439502Y-102844180D01*
X87475812Y-102724482D01*
X87488072Y-102600000D01*
X87485000Y-102385750D01*
X87326250Y-102227000D01*
X86327000Y-102227000D01*
X86327000Y-102247000D01*
X86073000Y-102247000D01*
X86073000Y-102227000D01*
X86053000Y-102227000D01*
X86053000Y-101973000D01*
X86073000Y-101973000D01*
X86073000Y-101953000D01*
X86327000Y-101953000D01*
X86327000Y-101973000D01*
X87326250Y-101973000D01*
X87485000Y-101814250D01*
X87487685Y-101627000D01*
X93447394Y-101627000D01*
X99873000Y-108052606D01*
X99873000Y-108052606D01*
G37*
X99873000Y-108052606D02*
X99873000Y-111521418D01*
X98550000Y-111521418D01*
X98485897Y-111527732D01*
X98424257Y-111546430D01*
X98367450Y-111576794D01*
X98317657Y-111617657D01*
X98276794Y-111667450D01*
X98246430Y-111724257D01*
X98227732Y-111785897D01*
X98221418Y-111850000D01*
X98221418Y-112650000D01*
X98227732Y-112714103D01*
X98246430Y-112775743D01*
X98276794Y-112832550D01*
X98317657Y-112882343D01*
X98367450Y-112923206D01*
X98424257Y-112953570D01*
X98485897Y-112972268D01*
X98550000Y-112978582D01*
X99873000Y-112978582D01*
X99873000Y-113421418D01*
X98550000Y-113421418D01*
X98485897Y-113427732D01*
X98424257Y-113446430D01*
X98367450Y-113476794D01*
X98317657Y-113517657D01*
X98276794Y-113567450D01*
X98246430Y-113624257D01*
X98227732Y-113685897D01*
X98221418Y-113750000D01*
X98221418Y-114550000D01*
X98227732Y-114614103D01*
X98246430Y-114675743D01*
X98276794Y-114732550D01*
X98317657Y-114782343D01*
X98367450Y-114823206D01*
X98424257Y-114853570D01*
X98485897Y-114872268D01*
X98550000Y-114878582D01*
X99873000Y-114878582D01*
X99873000Y-118373000D01*
X86500000Y-118373000D01*
X86475224Y-118375440D01*
X86451399Y-118382667D01*
X86429443Y-118394403D01*
X86410197Y-118410197D01*
X86394403Y-118429443D01*
X86382667Y-118451399D01*
X86375440Y-118475224D01*
X86373000Y-118500000D01*
X86373000Y-118796000D01*
X82341270Y-118796000D01*
X82292372Y-118722819D01*
X82177181Y-118607628D01*
X82041731Y-118517123D01*
X81891227Y-118454782D01*
X81731452Y-118423000D01*
X81568548Y-118423000D01*
X81408773Y-118454782D01*
X81258269Y-118517123D01*
X81122819Y-118607628D01*
X81007628Y-118722819D01*
X80917123Y-118858269D01*
X80854782Y-119008773D01*
X80823000Y-119168548D01*
X80823000Y-119331452D01*
X80854782Y-119491227D01*
X80917123Y-119641731D01*
X81007628Y-119777181D01*
X81122819Y-119892372D01*
X81258269Y-119982877D01*
X81408773Y-120045218D01*
X81568548Y-120077000D01*
X81731452Y-120077000D01*
X81891227Y-120045218D01*
X82041731Y-119982877D01*
X82177181Y-119892372D01*
X82292372Y-119777181D01*
X82341270Y-119704000D01*
X86373000Y-119704000D01*
X86373000Y-123246000D01*
X82222284Y-123246000D01*
X82199999Y-123243805D01*
X82177714Y-123246000D01*
X82177705Y-123246000D01*
X82111001Y-123252570D01*
X82025421Y-123278530D01*
X81946551Y-123320687D01*
X81882808Y-123373000D01*
X79127000Y-123373000D01*
X79127000Y-122035209D01*
X79145218Y-121991227D01*
X79177000Y-121831452D01*
X79177000Y-121668548D01*
X79145218Y-121508773D01*
X79127000Y-121464791D01*
X79127000Y-115915052D01*
X80788053Y-114254000D01*
X90977712Y-114254000D01*
X91000000Y-114256195D01*
X91022288Y-114254000D01*
X91022295Y-114254000D01*
X91088999Y-114247430D01*
X91174579Y-114221470D01*
X91253449Y-114179313D01*
X91317192Y-114127000D01*
X95000000Y-114127000D01*
X95024776Y-114124560D01*
X95048601Y-114117333D01*
X95070557Y-114105597D01*
X95089803Y-114089803D01*
X95105597Y-114070557D01*
X95117333Y-114048601D01*
X95124560Y-114024776D01*
X95127000Y-114000000D01*
X95127000Y-113654000D01*
X95226737Y-113654000D01*
X95227732Y-113664103D01*
X95246430Y-113725743D01*
X95276794Y-113782550D01*
X95317657Y-113832343D01*
X95367450Y-113873206D01*
X95424257Y-113903570D01*
X95485897Y-113922268D01*
X95550000Y-113928582D01*
X97450000Y-113928582D01*
X97514103Y-113922268D01*
X97575743Y-113903570D01*
X97632550Y-113873206D01*
X97682343Y-113832343D01*
X97723206Y-113782550D01*
X97753570Y-113725743D01*
X97772268Y-113664103D01*
X97778582Y-113600000D01*
X97778582Y-112800000D01*
X97772268Y-112735897D01*
X97753570Y-112674257D01*
X97723206Y-112617450D01*
X97682343Y-112567657D01*
X97632550Y-112526794D01*
X97575743Y-112496430D01*
X97514103Y-112477732D01*
X97450000Y-112471418D01*
X95550000Y-112471418D01*
X95485897Y-112477732D01*
X95424257Y-112496430D01*
X95367450Y-112526794D01*
X95317657Y-112567657D01*
X95276794Y-112617450D01*
X95246430Y-112674257D01*
X95227732Y-112735897D01*
X95226737Y-112746000D01*
X95127000Y-112746000D01*
X95127000Y-109500000D01*
X95124560Y-109475224D01*
X95117333Y-109451399D01*
X95105597Y-109429443D01*
X95089803Y-109410197D01*
X88589803Y-102910197D01*
X88570557Y-102894403D01*
X88548601Y-102882667D01*
X88524776Y-102875440D01*
X88500000Y-102873000D01*
X87424097Y-102873000D01*
X87439502Y-102844180D01*
X87475812Y-102724482D01*
X87488072Y-102600000D01*
X87485000Y-102385750D01*
X87326250Y-102227000D01*
X86327000Y-102227000D01*
X86327000Y-102247000D01*
X86073000Y-102247000D01*
X86073000Y-102227000D01*
X86053000Y-102227000D01*
X86053000Y-101973000D01*
X86073000Y-101973000D01*
X86073000Y-101953000D01*
X86327000Y-101953000D01*
X86327000Y-101973000D01*
X87326250Y-101973000D01*
X87485000Y-101814250D01*
X87487685Y-101627000D01*
X93447394Y-101627000D01*
X99873000Y-108052606D01*
G36*
X140123000Y-94623000D02*
G01*
X138802606Y-94623000D01*
X138339803Y-94160197D01*
X138320557Y-94144403D01*
X138298601Y-94132667D01*
X138274776Y-94125440D01*
X138250000Y-94123000D01*
X137000000Y-94123000D01*
X136975224Y-94125440D01*
X136951399Y-94132667D01*
X136929443Y-94144403D01*
X136910197Y-94160197D01*
X136447394Y-94623000D01*
X134552606Y-94623000D01*
X133089803Y-93160197D01*
X133070557Y-93144403D01*
X133048601Y-93132667D01*
X133024776Y-93125440D01*
X133000000Y-93123000D01*
X129250000Y-93123000D01*
X129225224Y-93125440D01*
X129201399Y-93132667D01*
X129179443Y-93144403D01*
X129160197Y-93160197D01*
X126697394Y-95623000D01*
X124552606Y-95623000D01*
X120839803Y-91910197D01*
X120820557Y-91894403D01*
X120798601Y-91882667D01*
X120774776Y-91875440D01*
X120750000Y-91873000D01*
X112500000Y-91873000D01*
X112475224Y-91875440D01*
X112451399Y-91882667D01*
X112429443Y-91894403D01*
X112410197Y-91910197D01*
X112394403Y-91929443D01*
X112382667Y-91951399D01*
X112375440Y-91975224D01*
X112373000Y-92000000D01*
X112373000Y-106623000D01*
X105627000Y-106623000D01*
X105627000Y-90127000D01*
X108000000Y-90127000D01*
X108024776Y-90124560D01*
X108048601Y-90117333D01*
X108070557Y-90105597D01*
X108089803Y-90089803D01*
X109552606Y-88627000D01*
X140123000Y-88627000D01*
X140123000Y-94623000D01*
X140123000Y-94623000D01*
G37*
X140123000Y-94623000D02*
X138802606Y-94623000D01*
X138339803Y-94160197D01*
X138320557Y-94144403D01*
X138298601Y-94132667D01*
X138274776Y-94125440D01*
X138250000Y-94123000D01*
X137000000Y-94123000D01*
X136975224Y-94125440D01*
X136951399Y-94132667D01*
X136929443Y-94144403D01*
X136910197Y-94160197D01*
X136447394Y-94623000D01*
X134552606Y-94623000D01*
X133089803Y-93160197D01*
X133070557Y-93144403D01*
X133048601Y-93132667D01*
X133024776Y-93125440D01*
X133000000Y-93123000D01*
X129250000Y-93123000D01*
X129225224Y-93125440D01*
X129201399Y-93132667D01*
X129179443Y-93144403D01*
X129160197Y-93160197D01*
X126697394Y-95623000D01*
X124552606Y-95623000D01*
X120839803Y-91910197D01*
X120820557Y-91894403D01*
X120798601Y-91882667D01*
X120774776Y-91875440D01*
X120750000Y-91873000D01*
X112500000Y-91873000D01*
X112475224Y-91875440D01*
X112451399Y-91882667D01*
X112429443Y-91894403D01*
X112410197Y-91910197D01*
X112394403Y-91929443D01*
X112382667Y-91951399D01*
X112375440Y-91975224D01*
X112373000Y-92000000D01*
X112373000Y-106623000D01*
X105627000Y-106623000D01*
X105627000Y-90127000D01*
X108000000Y-90127000D01*
X108024776Y-90124560D01*
X108048601Y-90117333D01*
X108070557Y-90105597D01*
X108089803Y-90089803D01*
X109552606Y-88627000D01*
X140123000Y-88627000D01*
X140123000Y-94623000D01*
D54*
G36*
X168150000Y-103400000D02*
G01*
X120500000Y-103400000D01*
X120480491Y-103401921D01*
X120461732Y-103407612D01*
X120444443Y-103416853D01*
X120429289Y-103429289D01*
X120416853Y-103444443D01*
X120407612Y-103461732D01*
X120401921Y-103480491D01*
X120400000Y-103500000D01*
X120400000Y-121650000D01*
X114850000Y-121650000D01*
X114850000Y-111500000D01*
X114848079Y-111480491D01*
X114842388Y-111461732D01*
X114833147Y-111444443D01*
X114820711Y-111429289D01*
X114805557Y-111416853D01*
X114788268Y-111407612D01*
X114769509Y-111401921D01*
X114750000Y-111400000D01*
X113100000Y-111400000D01*
X113100000Y-92850000D01*
X119958578Y-92850000D01*
X124929289Y-97820711D01*
X124944443Y-97833147D01*
X124961732Y-97842388D01*
X124980491Y-97848079D01*
X125000000Y-97850000D01*
X126126044Y-97850000D01*
X126136842Y-97863158D01*
X126182523Y-97900647D01*
X126234640Y-97928504D01*
X126291190Y-97945659D01*
X126350000Y-97951451D01*
X127650000Y-97951451D01*
X127708810Y-97945659D01*
X127765360Y-97928504D01*
X127817477Y-97900647D01*
X127863158Y-97863158D01*
X127873956Y-97850000D01*
X133726044Y-97850000D01*
X133699353Y-97882523D01*
X133671496Y-97934640D01*
X133654341Y-97991190D01*
X133648549Y-98050000D01*
X133648549Y-99050000D01*
X133654341Y-99108810D01*
X133671496Y-99165360D01*
X133699353Y-99217477D01*
X133736842Y-99263158D01*
X133782523Y-99300647D01*
X133834640Y-99328504D01*
X133891190Y-99345659D01*
X133950000Y-99351451D01*
X135250000Y-99351451D01*
X135308810Y-99345659D01*
X135365360Y-99328504D01*
X135417477Y-99300647D01*
X135463158Y-99263158D01*
X135500647Y-99217477D01*
X135528504Y-99165360D01*
X135545659Y-99108810D01*
X135551451Y-99050000D01*
X135551451Y-98050000D01*
X135545659Y-97991190D01*
X135528504Y-97934640D01*
X135500647Y-97882523D01*
X135473956Y-97850000D01*
X137000000Y-97850000D01*
X137019509Y-97848079D01*
X137038268Y-97842388D01*
X137055557Y-97833147D01*
X137070711Y-97820711D01*
X137083147Y-97805557D01*
X137092388Y-97788268D01*
X137098079Y-97769509D01*
X137100000Y-97750000D01*
X137100000Y-96948722D01*
X137118989Y-96913196D01*
X137143257Y-96833196D01*
X137151451Y-96750000D01*
X137151451Y-96500000D01*
X137143257Y-96416804D01*
X137118989Y-96336804D01*
X137100000Y-96301278D01*
X137100000Y-96298722D01*
X137118989Y-96263196D01*
X137143257Y-96183196D01*
X137151451Y-96100000D01*
X137151451Y-95850000D01*
X137143257Y-95766804D01*
X137118989Y-95686804D01*
X137100000Y-95651278D01*
X137100000Y-95648722D01*
X137118989Y-95613196D01*
X137143257Y-95533196D01*
X137151451Y-95450000D01*
X137151451Y-95200000D01*
X137143257Y-95116804D01*
X137118989Y-95036804D01*
X137100000Y-95001278D01*
X137100000Y-94998722D01*
X137118989Y-94963196D01*
X137143257Y-94883196D01*
X137151451Y-94800000D01*
X137151451Y-94735084D01*
X137278730Y-94600000D01*
X137967041Y-94600000D01*
X138048549Y-94684768D01*
X138048549Y-94800000D01*
X138056743Y-94883196D01*
X138081011Y-94963196D01*
X138120419Y-95036923D01*
X138150000Y-95072967D01*
X138150000Y-95577033D01*
X138120419Y-95613077D01*
X138081011Y-95686804D01*
X138056743Y-95766804D01*
X138048549Y-95850000D01*
X138048549Y-96100000D01*
X138056743Y-96183196D01*
X138081011Y-96263196D01*
X138100683Y-96300000D01*
X138081011Y-96336804D01*
X138056743Y-96416804D01*
X138048549Y-96500000D01*
X138048549Y-96750000D01*
X138056743Y-96833196D01*
X138081011Y-96913196D01*
X138120419Y-96986923D01*
X138150000Y-97022967D01*
X138150000Y-97250000D01*
X138151921Y-97269509D01*
X138157612Y-97288268D01*
X138166853Y-97305557D01*
X138179289Y-97320711D01*
X138194443Y-97333147D01*
X138211732Y-97342388D01*
X138230491Y-97348079D01*
X138250000Y-97350000D01*
X148000000Y-97350000D01*
X148019509Y-97348079D01*
X148038268Y-97342388D01*
X148055557Y-97333147D01*
X148070711Y-97320711D01*
X148083147Y-97305557D01*
X148092388Y-97288268D01*
X148098079Y-97269509D01*
X148100000Y-97250000D01*
X148100000Y-91100000D01*
X168150000Y-91100000D01*
X168150000Y-103400000D01*
X168150000Y-103400000D01*
G37*
X168150000Y-103400000D02*
X120500000Y-103400000D01*
X120480491Y-103401921D01*
X120461732Y-103407612D01*
X120444443Y-103416853D01*
X120429289Y-103429289D01*
X120416853Y-103444443D01*
X120407612Y-103461732D01*
X120401921Y-103480491D01*
X120400000Y-103500000D01*
X120400000Y-121650000D01*
X114850000Y-121650000D01*
X114850000Y-111500000D01*
X114848079Y-111480491D01*
X114842388Y-111461732D01*
X114833147Y-111444443D01*
X114820711Y-111429289D01*
X114805557Y-111416853D01*
X114788268Y-111407612D01*
X114769509Y-111401921D01*
X114750000Y-111400000D01*
X113100000Y-111400000D01*
X113100000Y-92850000D01*
X119958578Y-92850000D01*
X124929289Y-97820711D01*
X124944443Y-97833147D01*
X124961732Y-97842388D01*
X124980491Y-97848079D01*
X125000000Y-97850000D01*
X126126044Y-97850000D01*
X126136842Y-97863158D01*
X126182523Y-97900647D01*
X126234640Y-97928504D01*
X126291190Y-97945659D01*
X126350000Y-97951451D01*
X127650000Y-97951451D01*
X127708810Y-97945659D01*
X127765360Y-97928504D01*
X127817477Y-97900647D01*
X127863158Y-97863158D01*
X127873956Y-97850000D01*
X133726044Y-97850000D01*
X133699353Y-97882523D01*
X133671496Y-97934640D01*
X133654341Y-97991190D01*
X133648549Y-98050000D01*
X133648549Y-99050000D01*
X133654341Y-99108810D01*
X133671496Y-99165360D01*
X133699353Y-99217477D01*
X133736842Y-99263158D01*
X133782523Y-99300647D01*
X133834640Y-99328504D01*
X133891190Y-99345659D01*
X133950000Y-99351451D01*
X135250000Y-99351451D01*
X135308810Y-99345659D01*
X135365360Y-99328504D01*
X135417477Y-99300647D01*
X135463158Y-99263158D01*
X135500647Y-99217477D01*
X135528504Y-99165360D01*
X135545659Y-99108810D01*
X135551451Y-99050000D01*
X135551451Y-98050000D01*
X135545659Y-97991190D01*
X135528504Y-97934640D01*
X135500647Y-97882523D01*
X135473956Y-97850000D01*
X137000000Y-97850000D01*
X137019509Y-97848079D01*
X137038268Y-97842388D01*
X137055557Y-97833147D01*
X137070711Y-97820711D01*
X137083147Y-97805557D01*
X137092388Y-97788268D01*
X137098079Y-97769509D01*
X137100000Y-97750000D01*
X137100000Y-96948722D01*
X137118989Y-96913196D01*
X137143257Y-96833196D01*
X137151451Y-96750000D01*
X137151451Y-96500000D01*
X137143257Y-96416804D01*
X137118989Y-96336804D01*
X137100000Y-96301278D01*
X137100000Y-96298722D01*
X137118989Y-96263196D01*
X137143257Y-96183196D01*
X137151451Y-96100000D01*
X137151451Y-95850000D01*
X137143257Y-95766804D01*
X137118989Y-95686804D01*
X137100000Y-95651278D01*
X137100000Y-95648722D01*
X137118989Y-95613196D01*
X137143257Y-95533196D01*
X137151451Y-95450000D01*
X137151451Y-95200000D01*
X137143257Y-95116804D01*
X137118989Y-95036804D01*
X137100000Y-95001278D01*
X137100000Y-94998722D01*
X137118989Y-94963196D01*
X137143257Y-94883196D01*
X137151451Y-94800000D01*
X137151451Y-94735084D01*
X137278730Y-94600000D01*
X137967041Y-94600000D01*
X138048549Y-94684768D01*
X138048549Y-94800000D01*
X138056743Y-94883196D01*
X138081011Y-94963196D01*
X138120419Y-95036923D01*
X138150000Y-95072967D01*
X138150000Y-95577033D01*
X138120419Y-95613077D01*
X138081011Y-95686804D01*
X138056743Y-95766804D01*
X138048549Y-95850000D01*
X138048549Y-96100000D01*
X138056743Y-96183196D01*
X138081011Y-96263196D01*
X138100683Y-96300000D01*
X138081011Y-96336804D01*
X138056743Y-96416804D01*
X138048549Y-96500000D01*
X138048549Y-96750000D01*
X138056743Y-96833196D01*
X138081011Y-96913196D01*
X138120419Y-96986923D01*
X138150000Y-97022967D01*
X138150000Y-97250000D01*
X138151921Y-97269509D01*
X138157612Y-97288268D01*
X138166853Y-97305557D01*
X138179289Y-97320711D01*
X138194443Y-97333147D01*
X138211732Y-97342388D01*
X138230491Y-97348079D01*
X138250000Y-97350000D01*
X148000000Y-97350000D01*
X148019509Y-97348079D01*
X148038268Y-97342388D01*
X148055557Y-97333147D01*
X148070711Y-97320711D01*
X148083147Y-97305557D01*
X148092388Y-97288268D01*
X148098079Y-97269509D01*
X148100000Y-97250000D01*
X148100000Y-91100000D01*
X168150000Y-91100000D01*
X168150000Y-103400000D01*
D52*
G36*
X159873000Y-79000000D02*
G01*
X159875440Y-79024776D01*
X159882667Y-79048601D01*
X159894403Y-79070557D01*
X159910197Y-79089803D01*
X162910197Y-82089803D01*
X162929443Y-82105597D01*
X162951399Y-82117333D01*
X162975224Y-82124560D01*
X163000000Y-82127000D01*
X165873000Y-82127000D01*
X165873000Y-88373000D01*
X147000000Y-88373000D01*
X146975224Y-88375440D01*
X146951399Y-88382667D01*
X146929443Y-88394403D01*
X146910197Y-88410197D01*
X146894403Y-88429443D01*
X146882667Y-88451399D01*
X146875440Y-88475224D01*
X146873000Y-88500000D01*
X146873000Y-96873000D01*
X138627000Y-96873000D01*
X138627000Y-96127000D01*
X142500000Y-96127000D01*
X142524776Y-96124560D01*
X142548601Y-96117333D01*
X142570557Y-96105597D01*
X142589803Y-96089803D01*
X142605597Y-96070557D01*
X142617333Y-96048601D01*
X142624560Y-96024776D01*
X142627000Y-96000000D01*
X142627000Y-88052606D01*
X157052606Y-73627000D01*
X159873000Y-73627000D01*
X159873000Y-79000000D01*
X159873000Y-79000000D01*
G37*
X159873000Y-79000000D02*
X159875440Y-79024776D01*
X159882667Y-79048601D01*
X159894403Y-79070557D01*
X159910197Y-79089803D01*
X162910197Y-82089803D01*
X162929443Y-82105597D01*
X162951399Y-82117333D01*
X162975224Y-82124560D01*
X163000000Y-82127000D01*
X165873000Y-82127000D01*
X165873000Y-88373000D01*
X147000000Y-88373000D01*
X146975224Y-88375440D01*
X146951399Y-88382667D01*
X146929443Y-88394403D01*
X146910197Y-88410197D01*
X146894403Y-88429443D01*
X146882667Y-88451399D01*
X146875440Y-88475224D01*
X146873000Y-88500000D01*
X146873000Y-96873000D01*
X138627000Y-96873000D01*
X138627000Y-96127000D01*
X142500000Y-96127000D01*
X142524776Y-96124560D01*
X142548601Y-96117333D01*
X142570557Y-96105597D01*
X142589803Y-96089803D01*
X142605597Y-96070557D01*
X142617333Y-96048601D01*
X142624560Y-96024776D01*
X142627000Y-96000000D01*
X142627000Y-88052606D01*
X157052606Y-73627000D01*
X159873000Y-73627000D01*
X159873000Y-79000000D01*
G36*
X142123000Y-95373000D02*
G01*
X138627000Y-95373000D01*
X138627000Y-95253582D01*
X139850000Y-95253582D01*
X139938489Y-95244867D01*
X140023578Y-95219055D01*
X140101997Y-95177140D01*
X140163092Y-95127000D01*
X140500000Y-95127000D01*
X140524776Y-95124560D01*
X140548601Y-95117333D01*
X140570557Y-95105597D01*
X140589803Y-95089803D01*
X140605597Y-95070557D01*
X140617333Y-95048601D01*
X140624560Y-95024776D01*
X140627000Y-95000000D01*
X140627000Y-88627000D01*
X142123000Y-88627000D01*
X142123000Y-95373000D01*
X142123000Y-95373000D01*
G37*
X142123000Y-95373000D02*
X138627000Y-95373000D01*
X138627000Y-95253582D01*
X139850000Y-95253582D01*
X139938489Y-95244867D01*
X140023578Y-95219055D01*
X140101997Y-95177140D01*
X140163092Y-95127000D01*
X140500000Y-95127000D01*
X140524776Y-95124560D01*
X140548601Y-95117333D01*
X140570557Y-95105597D01*
X140589803Y-95089803D01*
X140605597Y-95070557D01*
X140617333Y-95048601D01*
X140624560Y-95024776D01*
X140627000Y-95000000D01*
X140627000Y-88627000D01*
X142123000Y-88627000D01*
X142123000Y-95373000D01*
G36*
X142873000Y-96123000D02*
G01*
X141877000Y-96123000D01*
X141877000Y-95877000D01*
X142873000Y-95877000D01*
X142873000Y-96123000D01*
X142873000Y-96123000D01*
G37*
X142873000Y-96123000D02*
X141877000Y-96123000D01*
X141877000Y-95877000D01*
X142873000Y-95877000D01*
X142873000Y-96123000D01*
G36*
X141873000Y-96123000D02*
G01*
X138627000Y-96123000D01*
X138627000Y-95903582D01*
X139850000Y-95903582D01*
X139938489Y-95894867D01*
X139997387Y-95877000D01*
X141873000Y-95877000D01*
X141873000Y-96123000D01*
X141873000Y-96123000D01*
G37*
X141873000Y-96123000D02*
X138627000Y-96123000D01*
X138627000Y-95903582D01*
X139850000Y-95903582D01*
X139938489Y-95894867D01*
X139997387Y-95877000D01*
X141873000Y-95877000D01*
X141873000Y-96123000D01*
G36*
X111873000Y-114500000D02*
G01*
X111875440Y-114524776D01*
X111882667Y-114548601D01*
X111894403Y-114570557D01*
X111910197Y-114589803D01*
X111929443Y-114605597D01*
X111951399Y-114617333D01*
X111975224Y-114624560D01*
X112000000Y-114627000D01*
X113373000Y-114627000D01*
X113373000Y-122500000D01*
X113375440Y-122524776D01*
X113382667Y-122548601D01*
X113394403Y-122570557D01*
X113410197Y-122589803D01*
X113429443Y-122605597D01*
X113451399Y-122617333D01*
X113475224Y-122624560D01*
X113500000Y-122627000D01*
X121000000Y-122627000D01*
X121024776Y-122624560D01*
X121048601Y-122617333D01*
X121070557Y-122605597D01*
X121089803Y-122589803D01*
X121105597Y-122570557D01*
X121117333Y-122548601D01*
X121124560Y-122524776D01*
X121127000Y-122500000D01*
X121127000Y-118627000D01*
X131873000Y-118627000D01*
X131873000Y-120373000D01*
X123000000Y-120373000D01*
X122975224Y-120375440D01*
X122951399Y-120382667D01*
X122929443Y-120394403D01*
X122910197Y-120410197D01*
X122894403Y-120429443D01*
X122882667Y-120451399D01*
X122875440Y-120475224D01*
X122873000Y-120500000D01*
X122873000Y-124873000D01*
X108552606Y-124873000D01*
X107627000Y-123947394D01*
X107627000Y-118000000D01*
X107624560Y-117975224D01*
X107617333Y-117951399D01*
X107605597Y-117929443D01*
X107589803Y-117910197D01*
X103127000Y-113447394D01*
X103127000Y-109627000D01*
X111873000Y-109627000D01*
X111873000Y-114500000D01*
X111873000Y-114500000D01*
G37*
X111873000Y-114500000D02*
X111875440Y-114524776D01*
X111882667Y-114548601D01*
X111894403Y-114570557D01*
X111910197Y-114589803D01*
X111929443Y-114605597D01*
X111951399Y-114617333D01*
X111975224Y-114624560D01*
X112000000Y-114627000D01*
X113373000Y-114627000D01*
X113373000Y-122500000D01*
X113375440Y-122524776D01*
X113382667Y-122548601D01*
X113394403Y-122570557D01*
X113410197Y-122589803D01*
X113429443Y-122605597D01*
X113451399Y-122617333D01*
X113475224Y-122624560D01*
X113500000Y-122627000D01*
X121000000Y-122627000D01*
X121024776Y-122624560D01*
X121048601Y-122617333D01*
X121070557Y-122605597D01*
X121089803Y-122589803D01*
X121105597Y-122570557D01*
X121117333Y-122548601D01*
X121124560Y-122524776D01*
X121127000Y-122500000D01*
X121127000Y-118627000D01*
X131873000Y-118627000D01*
X131873000Y-120373000D01*
X123000000Y-120373000D01*
X122975224Y-120375440D01*
X122951399Y-120382667D01*
X122929443Y-120394403D01*
X122910197Y-120410197D01*
X122894403Y-120429443D01*
X122882667Y-120451399D01*
X122875440Y-120475224D01*
X122873000Y-120500000D01*
X122873000Y-124873000D01*
X108552606Y-124873000D01*
X107627000Y-123947394D01*
X107627000Y-118000000D01*
X107624560Y-117975224D01*
X107617333Y-117951399D01*
X107605597Y-117929443D01*
X107589803Y-117910197D01*
X103127000Y-113447394D01*
X103127000Y-109627000D01*
X111873000Y-109627000D01*
X111873000Y-114500000D01*
G36*
X176373000Y-102873000D02*
G01*
X174552606Y-102873000D01*
X174089803Y-102410197D01*
X174070557Y-102394403D01*
X174048601Y-102382667D01*
X174024776Y-102375440D01*
X174000000Y-102373000D01*
X171500000Y-102373000D01*
X171475224Y-102375440D01*
X171451399Y-102382667D01*
X171429443Y-102394403D01*
X171410197Y-102410197D01*
X171394403Y-102429443D01*
X171382667Y-102451399D01*
X171375440Y-102475224D01*
X171373000Y-102500000D01*
X171373000Y-104373000D01*
X170000000Y-104373000D01*
X169975224Y-104375440D01*
X169951399Y-104382667D01*
X169929443Y-104394403D01*
X169910197Y-104410197D01*
X167447394Y-106873000D01*
X148500000Y-106873000D01*
X148475224Y-106875440D01*
X148451399Y-106882667D01*
X148429443Y-106894403D01*
X148410197Y-106910197D01*
X137410197Y-117910197D01*
X137394403Y-117929443D01*
X137382667Y-117951399D01*
X137375440Y-117975224D01*
X137373000Y-118000000D01*
X137373000Y-120373000D01*
X133127000Y-120373000D01*
X133127000Y-104627000D01*
X168000000Y-104627000D01*
X168024776Y-104624560D01*
X168048601Y-104617333D01*
X168070557Y-104605597D01*
X168089803Y-104589803D01*
X169089803Y-103589803D01*
X169105597Y-103570557D01*
X169117333Y-103548601D01*
X169124560Y-103524776D01*
X169127000Y-103500000D01*
X169127000Y-101127000D01*
X176373000Y-101127000D01*
X176373000Y-102873000D01*
X176373000Y-102873000D01*
G37*
X176373000Y-102873000D02*
X174552606Y-102873000D01*
X174089803Y-102410197D01*
X174070557Y-102394403D01*
X174048601Y-102382667D01*
X174024776Y-102375440D01*
X174000000Y-102373000D01*
X171500000Y-102373000D01*
X171475224Y-102375440D01*
X171451399Y-102382667D01*
X171429443Y-102394403D01*
X171410197Y-102410197D01*
X171394403Y-102429443D01*
X171382667Y-102451399D01*
X171375440Y-102475224D01*
X171373000Y-102500000D01*
X171373000Y-104373000D01*
X170000000Y-104373000D01*
X169975224Y-104375440D01*
X169951399Y-104382667D01*
X169929443Y-104394403D01*
X169910197Y-104410197D01*
X167447394Y-106873000D01*
X148500000Y-106873000D01*
X148475224Y-106875440D01*
X148451399Y-106882667D01*
X148429443Y-106894403D01*
X148410197Y-106910197D01*
X137410197Y-117910197D01*
X137394403Y-117929443D01*
X137382667Y-117951399D01*
X137375440Y-117975224D01*
X137373000Y-118000000D01*
X137373000Y-120373000D01*
X133127000Y-120373000D01*
X133127000Y-104627000D01*
X168000000Y-104627000D01*
X168024776Y-104624560D01*
X168048601Y-104617333D01*
X168070557Y-104605597D01*
X168089803Y-104589803D01*
X169089803Y-103589803D01*
X169105597Y-103570557D01*
X169117333Y-103548601D01*
X169124560Y-103524776D01*
X169127000Y-103500000D01*
X169127000Y-101127000D01*
X176373000Y-101127000D01*
X176373000Y-102873000D01*
G36*
X131673000Y-121121418D02*
G01*
X130250000Y-121121418D01*
X130185897Y-121127732D01*
X130124257Y-121146430D01*
X130067450Y-121176794D01*
X130017657Y-121217657D01*
X129976794Y-121267450D01*
X129946430Y-121324257D01*
X129927732Y-121385897D01*
X129921418Y-121450000D01*
X129921418Y-121850000D01*
X129927732Y-121914103D01*
X129946430Y-121975743D01*
X129976794Y-122032550D01*
X130017657Y-122082343D01*
X130067450Y-122123206D01*
X130124257Y-122153570D01*
X130185897Y-122172268D01*
X130250000Y-122178582D01*
X131673000Y-122178582D01*
X131673000Y-122800000D01*
X131675440Y-122824776D01*
X131682667Y-122848601D01*
X131694403Y-122870557D01*
X131710197Y-122889803D01*
X131729443Y-122905597D01*
X131751399Y-122917333D01*
X131775224Y-122924560D01*
X131800000Y-122927000D01*
X135200000Y-122927000D01*
X135224776Y-122924560D01*
X135248601Y-122917333D01*
X135270557Y-122905597D01*
X135289803Y-122889803D01*
X135305597Y-122870557D01*
X135317333Y-122848601D01*
X135324560Y-122824776D01*
X135327000Y-122800000D01*
X135327000Y-121127000D01*
X137846000Y-121127000D01*
X137846000Y-121277712D01*
X137843805Y-121300000D01*
X137846000Y-121322288D01*
X137846000Y-121322294D01*
X137848211Y-121344739D01*
X137852570Y-121388999D01*
X137862670Y-121422294D01*
X137878530Y-121474578D01*
X137920687Y-121553448D01*
X137977421Y-121622579D01*
X137994742Y-121636794D01*
X138663210Y-122305263D01*
X138673000Y-122317192D01*
X138673000Y-127273000D01*
X123527000Y-127273000D01*
X123527000Y-121327000D01*
X128000000Y-121327000D01*
X128024776Y-121324560D01*
X128048601Y-121317333D01*
X128070557Y-121305597D01*
X128089803Y-121289803D01*
X128452606Y-120927000D01*
X131673000Y-120927000D01*
X131673000Y-121121418D01*
X131673000Y-121121418D01*
G37*
X131673000Y-121121418D02*
X130250000Y-121121418D01*
X130185897Y-121127732D01*
X130124257Y-121146430D01*
X130067450Y-121176794D01*
X130017657Y-121217657D01*
X129976794Y-121267450D01*
X129946430Y-121324257D01*
X129927732Y-121385897D01*
X129921418Y-121450000D01*
X129921418Y-121850000D01*
X129927732Y-121914103D01*
X129946430Y-121975743D01*
X129976794Y-122032550D01*
X130017657Y-122082343D01*
X130067450Y-122123206D01*
X130124257Y-122153570D01*
X130185897Y-122172268D01*
X130250000Y-122178582D01*
X131673000Y-122178582D01*
X131673000Y-122800000D01*
X131675440Y-122824776D01*
X131682667Y-122848601D01*
X131694403Y-122870557D01*
X131710197Y-122889803D01*
X131729443Y-122905597D01*
X131751399Y-122917333D01*
X131775224Y-122924560D01*
X131800000Y-122927000D01*
X135200000Y-122927000D01*
X135224776Y-122924560D01*
X135248601Y-122917333D01*
X135270557Y-122905597D01*
X135289803Y-122889803D01*
X135305597Y-122870557D01*
X135317333Y-122848601D01*
X135324560Y-122824776D01*
X135327000Y-122800000D01*
X135327000Y-121127000D01*
X137846000Y-121127000D01*
X137846000Y-121277712D01*
X137843805Y-121300000D01*
X137846000Y-121322288D01*
X137846000Y-121322294D01*
X137848211Y-121344739D01*
X137852570Y-121388999D01*
X137862670Y-121422294D01*
X137878530Y-121474578D01*
X137920687Y-121553448D01*
X137977421Y-121622579D01*
X137994742Y-121636794D01*
X138663210Y-122305263D01*
X138673000Y-122317192D01*
X138673000Y-127273000D01*
X123527000Y-127273000D01*
X123527000Y-121327000D01*
X128000000Y-121327000D01*
X128024776Y-121324560D01*
X128048601Y-121317333D01*
X128070557Y-121305597D01*
X128089803Y-121289803D01*
X128452606Y-120927000D01*
X131673000Y-120927000D01*
X131673000Y-121121418D01*
G36*
X168873000Y-76000000D02*
G01*
X168875440Y-76024776D01*
X168882667Y-76048601D01*
X168894403Y-76070557D01*
X168910197Y-76089803D01*
X169088597Y-76268203D01*
X169147053Y-76562085D01*
X169292315Y-76912777D01*
X169503201Y-77228391D01*
X169771609Y-77496799D01*
X170087223Y-77707685D01*
X170437915Y-77852947D01*
X170731797Y-77911403D01*
X170910197Y-78089803D01*
X170929443Y-78105597D01*
X170951399Y-78117333D01*
X170975224Y-78124560D01*
X171000000Y-78127000D01*
X174873000Y-78127000D01*
X174873000Y-93873000D01*
X166627000Y-93873000D01*
X166627000Y-80500000D01*
X166624560Y-80475224D01*
X166617333Y-80451399D01*
X166605597Y-80429443D01*
X166589803Y-80410197D01*
X166570557Y-80394403D01*
X166548601Y-80382667D01*
X166524776Y-80375440D01*
X166500000Y-80373000D01*
X164052606Y-80373000D01*
X161127000Y-77447394D01*
X161127000Y-73627000D01*
X168873000Y-73627000D01*
X168873000Y-76000000D01*
X168873000Y-76000000D01*
G37*
X168873000Y-76000000D02*
X168875440Y-76024776D01*
X168882667Y-76048601D01*
X168894403Y-76070557D01*
X168910197Y-76089803D01*
X169088597Y-76268203D01*
X169147053Y-76562085D01*
X169292315Y-76912777D01*
X169503201Y-77228391D01*
X169771609Y-77496799D01*
X170087223Y-77707685D01*
X170437915Y-77852947D01*
X170731797Y-77911403D01*
X170910197Y-78089803D01*
X170929443Y-78105597D01*
X170951399Y-78117333D01*
X170975224Y-78124560D01*
X171000000Y-78127000D01*
X174873000Y-78127000D01*
X174873000Y-93873000D01*
X166627000Y-93873000D01*
X166627000Y-80500000D01*
X166624560Y-80475224D01*
X166617333Y-80451399D01*
X166605597Y-80429443D01*
X166589803Y-80410197D01*
X166570557Y-80394403D01*
X166548601Y-80382667D01*
X166524776Y-80375440D01*
X166500000Y-80373000D01*
X164052606Y-80373000D01*
X161127000Y-77447394D01*
X161127000Y-73627000D01*
X168873000Y-73627000D01*
X168873000Y-76000000D01*
G36*
X174873000Y-99873000D02*
G01*
X168127000Y-99873000D01*
X168127000Y-93127000D01*
X174873000Y-93127000D01*
X174873000Y-99873000D01*
X174873000Y-99873000D01*
G37*
X174873000Y-99873000D02*
X168127000Y-99873000D01*
X168127000Y-93127000D01*
X174873000Y-93127000D01*
X174873000Y-99873000D01*
G36*
X132373000Y-117373000D02*
G01*
X119627000Y-117373000D01*
X119627000Y-103627000D01*
X132373000Y-103627000D01*
X132373000Y-117373000D01*
X132373000Y-117373000D01*
G37*
X132373000Y-117373000D02*
X119627000Y-117373000D01*
X119627000Y-103627000D01*
X132373000Y-103627000D01*
X132373000Y-117373000D01*
G36*
X102873000Y-125552606D02*
G01*
X102873000Y-133623750D01*
X102864250Y-133615000D01*
X102700000Y-133611928D01*
X102575518Y-133624188D01*
X102455820Y-133660498D01*
X102345506Y-133719463D01*
X102248815Y-133798815D01*
X102169463Y-133895506D01*
X102110498Y-134005820D01*
X102074188Y-134125518D01*
X102061928Y-134250000D01*
X102065000Y-134814250D01*
X102223750Y-134973000D01*
X102873000Y-134973000D01*
X102873000Y-135227000D01*
X102223750Y-135227000D01*
X102065000Y-135385750D01*
X102062347Y-135873000D01*
X81627000Y-135873000D01*
X81627000Y-133828644D01*
X82435886Y-133828644D01*
X82435886Y-134053150D01*
X82585211Y-134206820D01*
X82681902Y-134286173D01*
X82792216Y-134345137D01*
X82911915Y-134381446D01*
X83036396Y-134393707D01*
X83160877Y-134381446D01*
X83280576Y-134345137D01*
X83390890Y-134286173D01*
X83487581Y-134206820D01*
X83742972Y-133947084D01*
X83742972Y-133722578D01*
X83142462Y-133122067D01*
X82435886Y-133828644D01*
X81627000Y-133828644D01*
X81627000Y-133552606D01*
X81791030Y-133388576D01*
X81798751Y-133403022D01*
X81878104Y-133499713D01*
X82031774Y-133649038D01*
X82256280Y-133649038D01*
X82962857Y-132942462D01*
X83322067Y-132942462D01*
X83922578Y-133542972D01*
X84147084Y-133542972D01*
X84406820Y-133287581D01*
X84486173Y-133190890D01*
X84545137Y-133080576D01*
X84581446Y-132960877D01*
X84593707Y-132836396D01*
X84581446Y-132711915D01*
X84545137Y-132592216D01*
X84486173Y-132481902D01*
X84406820Y-132385211D01*
X84253150Y-132235886D01*
X84028644Y-132235886D01*
X83322067Y-132942462D01*
X82962857Y-132942462D01*
X82948714Y-132928320D01*
X83128320Y-132748714D01*
X83142462Y-132762857D01*
X83849038Y-132056280D01*
X83849038Y-131831774D01*
X83699713Y-131678104D01*
X83603022Y-131598751D01*
X83588576Y-131591030D01*
X84052606Y-131127000D01*
X99000000Y-131127000D01*
X99024776Y-131124560D01*
X99048601Y-131117333D01*
X99070557Y-131105597D01*
X99089803Y-131089803D01*
X99105597Y-131070557D01*
X99117333Y-131048601D01*
X99124560Y-131024776D01*
X99127000Y-131000000D01*
X99127000Y-127000000D01*
X99124560Y-126975224D01*
X99117333Y-126951399D01*
X99105597Y-126929443D01*
X99089803Y-126910197D01*
X96627000Y-124447394D01*
X96627000Y-123000000D01*
X96624560Y-122975224D01*
X96617333Y-122951399D01*
X96605597Y-122929443D01*
X96589803Y-122910197D01*
X96570557Y-122894403D01*
X96548601Y-122882667D01*
X96524776Y-122875440D01*
X96500000Y-122873000D01*
X96172250Y-122873000D01*
X96126250Y-122827000D01*
X95127000Y-122827000D01*
X95127000Y-122847000D01*
X94873000Y-122847000D01*
X94873000Y-122827000D01*
X94853000Y-122827000D01*
X94853000Y-122573000D01*
X94873000Y-122573000D01*
X94873000Y-121723750D01*
X95127000Y-121723750D01*
X95127000Y-122573000D01*
X96126250Y-122573000D01*
X96285000Y-122414250D01*
X96288072Y-122200000D01*
X96275812Y-122075518D01*
X96239502Y-121955820D01*
X96180537Y-121845506D01*
X96101185Y-121748815D01*
X96004494Y-121669463D01*
X95894180Y-121610498D01*
X95774482Y-121574188D01*
X95650000Y-121561928D01*
X95285750Y-121565000D01*
X95127000Y-121723750D01*
X94873000Y-121723750D01*
X94714250Y-121565000D01*
X94627000Y-121564264D01*
X94627000Y-121000000D01*
X94624560Y-120975224D01*
X94617333Y-120951399D01*
X94605597Y-120929443D01*
X94589803Y-120910197D01*
X94570557Y-120894403D01*
X94548601Y-120882667D01*
X94524776Y-120875440D01*
X94500000Y-120873000D01*
X90000000Y-120873000D01*
X89975224Y-120875440D01*
X89951399Y-120882667D01*
X89929443Y-120894403D01*
X89910197Y-120910197D01*
X89894403Y-120929443D01*
X89882667Y-120951399D01*
X89875440Y-120975224D01*
X89873000Y-121000000D01*
X89873000Y-123246000D01*
X86627000Y-123246000D01*
X86627000Y-119704000D01*
X97024394Y-119704000D01*
X102873000Y-125552606D01*
X102873000Y-125552606D01*
G37*
X102873000Y-125552606D02*
X102873000Y-133623750D01*
X102864250Y-133615000D01*
X102700000Y-133611928D01*
X102575518Y-133624188D01*
X102455820Y-133660498D01*
X102345506Y-133719463D01*
X102248815Y-133798815D01*
X102169463Y-133895506D01*
X102110498Y-134005820D01*
X102074188Y-134125518D01*
X102061928Y-134250000D01*
X102065000Y-134814250D01*
X102223750Y-134973000D01*
X102873000Y-134973000D01*
X102873000Y-135227000D01*
X102223750Y-135227000D01*
X102065000Y-135385750D01*
X102062347Y-135873000D01*
X81627000Y-135873000D01*
X81627000Y-133828644D01*
X82435886Y-133828644D01*
X82435886Y-134053150D01*
X82585211Y-134206820D01*
X82681902Y-134286173D01*
X82792216Y-134345137D01*
X82911915Y-134381446D01*
X83036396Y-134393707D01*
X83160877Y-134381446D01*
X83280576Y-134345137D01*
X83390890Y-134286173D01*
X83487581Y-134206820D01*
X83742972Y-133947084D01*
X83742972Y-133722578D01*
X83142462Y-133122067D01*
X82435886Y-133828644D01*
X81627000Y-133828644D01*
X81627000Y-133552606D01*
X81791030Y-133388576D01*
X81798751Y-133403022D01*
X81878104Y-133499713D01*
X82031774Y-133649038D01*
X82256280Y-133649038D01*
X82962857Y-132942462D01*
X83322067Y-132942462D01*
X83922578Y-133542972D01*
X84147084Y-133542972D01*
X84406820Y-133287581D01*
X84486173Y-133190890D01*
X84545137Y-133080576D01*
X84581446Y-132960877D01*
X84593707Y-132836396D01*
X84581446Y-132711915D01*
X84545137Y-132592216D01*
X84486173Y-132481902D01*
X84406820Y-132385211D01*
X84253150Y-132235886D01*
X84028644Y-132235886D01*
X83322067Y-132942462D01*
X82962857Y-132942462D01*
X82948714Y-132928320D01*
X83128320Y-132748714D01*
X83142462Y-132762857D01*
X83849038Y-132056280D01*
X83849038Y-131831774D01*
X83699713Y-131678104D01*
X83603022Y-131598751D01*
X83588576Y-131591030D01*
X84052606Y-131127000D01*
X99000000Y-131127000D01*
X99024776Y-131124560D01*
X99048601Y-131117333D01*
X99070557Y-131105597D01*
X99089803Y-131089803D01*
X99105597Y-131070557D01*
X99117333Y-131048601D01*
X99124560Y-131024776D01*
X99127000Y-131000000D01*
X99127000Y-127000000D01*
X99124560Y-126975224D01*
X99117333Y-126951399D01*
X99105597Y-126929443D01*
X99089803Y-126910197D01*
X96627000Y-124447394D01*
X96627000Y-123000000D01*
X96624560Y-122975224D01*
X96617333Y-122951399D01*
X96605597Y-122929443D01*
X96589803Y-122910197D01*
X96570557Y-122894403D01*
X96548601Y-122882667D01*
X96524776Y-122875440D01*
X96500000Y-122873000D01*
X96172250Y-122873000D01*
X96126250Y-122827000D01*
X95127000Y-122827000D01*
X95127000Y-122847000D01*
X94873000Y-122847000D01*
X94873000Y-122827000D01*
X94853000Y-122827000D01*
X94853000Y-122573000D01*
X94873000Y-122573000D01*
X94873000Y-121723750D01*
X95127000Y-121723750D01*
X95127000Y-122573000D01*
X96126250Y-122573000D01*
X96285000Y-122414250D01*
X96288072Y-122200000D01*
X96275812Y-122075518D01*
X96239502Y-121955820D01*
X96180537Y-121845506D01*
X96101185Y-121748815D01*
X96004494Y-121669463D01*
X95894180Y-121610498D01*
X95774482Y-121574188D01*
X95650000Y-121561928D01*
X95285750Y-121565000D01*
X95127000Y-121723750D01*
X94873000Y-121723750D01*
X94714250Y-121565000D01*
X94627000Y-121564264D01*
X94627000Y-121000000D01*
X94624560Y-120975224D01*
X94617333Y-120951399D01*
X94605597Y-120929443D01*
X94589803Y-120910197D01*
X94570557Y-120894403D01*
X94548601Y-120882667D01*
X94524776Y-120875440D01*
X94500000Y-120873000D01*
X90000000Y-120873000D01*
X89975224Y-120875440D01*
X89951399Y-120882667D01*
X89929443Y-120894403D01*
X89910197Y-120910197D01*
X89894403Y-120929443D01*
X89882667Y-120951399D01*
X89875440Y-120975224D01*
X89873000Y-121000000D01*
X89873000Y-123246000D01*
X86627000Y-123246000D01*
X86627000Y-119704000D01*
X97024394Y-119704000D01*
X102873000Y-125552606D01*
G36*
X57611928Y-123750000D02*
G01*
X57615000Y-124114250D01*
X57773750Y-124273000D01*
X58623000Y-124273000D01*
X58623000Y-124253000D01*
X58877000Y-124253000D01*
X58877000Y-124273000D01*
X58897000Y-124273000D01*
X58897000Y-124527000D01*
X58877000Y-124527000D01*
X58877000Y-125526250D01*
X59035750Y-125685000D01*
X59250000Y-125688072D01*
X59373000Y-125675958D01*
X59373000Y-126500000D01*
X59375440Y-126524776D01*
X59382667Y-126548601D01*
X59394403Y-126570557D01*
X59410197Y-126589803D01*
X59429443Y-126605597D01*
X59451399Y-126617333D01*
X59475224Y-126624560D01*
X59500000Y-126627000D01*
X64947394Y-126627000D01*
X70373000Y-132052606D01*
X70373000Y-157000000D01*
X70375440Y-157024776D01*
X70382667Y-157048601D01*
X70394403Y-157070557D01*
X70410197Y-157089803D01*
X71910197Y-158589803D01*
X71929443Y-158605597D01*
X71951399Y-158617333D01*
X71975224Y-158624560D01*
X72000000Y-158627000D01*
X80000000Y-158627000D01*
X80024776Y-158624560D01*
X80048601Y-158617333D01*
X80070557Y-158605597D01*
X80089803Y-158589803D01*
X81589803Y-157089803D01*
X81605597Y-157070557D01*
X81617333Y-157048601D01*
X81624560Y-157024776D01*
X81627000Y-157000000D01*
X81627000Y-136127000D01*
X85373000Y-136127000D01*
X85373000Y-148873000D01*
X84000000Y-148873000D01*
X83975224Y-148875440D01*
X83951399Y-148882667D01*
X83929443Y-148894403D01*
X83910197Y-148910197D01*
X83894403Y-148929443D01*
X83882667Y-148951399D01*
X83875440Y-148975224D01*
X83873000Y-149000000D01*
X83873000Y-162947394D01*
X82947394Y-163873000D01*
X69052606Y-163873000D01*
X68127000Y-162947394D01*
X68127000Y-155552606D01*
X68839803Y-154839803D01*
X68855597Y-154820557D01*
X68867333Y-154798601D01*
X68874560Y-154774776D01*
X68877000Y-154750000D01*
X68877000Y-151750000D01*
X68874560Y-151725224D01*
X68867333Y-151701399D01*
X68855597Y-151679443D01*
X68839803Y-151660197D01*
X68127000Y-150947394D01*
X68127000Y-144369729D01*
X68180537Y-144304494D01*
X68239502Y-144194180D01*
X68275812Y-144074482D01*
X68288072Y-143950000D01*
X68285000Y-143735750D01*
X68127000Y-143577750D01*
X68127000Y-143322250D01*
X68285000Y-143164250D01*
X68288072Y-142950000D01*
X68275812Y-142825518D01*
X68239502Y-142705820D01*
X68180537Y-142595506D01*
X68127000Y-142530271D01*
X68127000Y-140500000D01*
X68124560Y-140475224D01*
X68117333Y-140451399D01*
X68105597Y-140429443D01*
X68089803Y-140410197D01*
X68070557Y-140394403D01*
X68048601Y-140382667D01*
X68024776Y-140375440D01*
X68000000Y-140373000D01*
X57127000Y-140373000D01*
X57127000Y-125050000D01*
X57611928Y-125050000D01*
X57624188Y-125174482D01*
X57660498Y-125294180D01*
X57719463Y-125404494D01*
X57798815Y-125501185D01*
X57895506Y-125580537D01*
X58005820Y-125639502D01*
X58125518Y-125675812D01*
X58250000Y-125688072D01*
X58464250Y-125685000D01*
X58623000Y-125526250D01*
X58623000Y-124527000D01*
X57773750Y-124527000D01*
X57615000Y-124685750D01*
X57611928Y-125050000D01*
X57127000Y-125050000D01*
X57127000Y-123627000D01*
X57624042Y-123627000D01*
X57611928Y-123750000D01*
X57611928Y-123750000D01*
G37*
X57611928Y-123750000D02*
X57615000Y-124114250D01*
X57773750Y-124273000D01*
X58623000Y-124273000D01*
X58623000Y-124253000D01*
X58877000Y-124253000D01*
X58877000Y-124273000D01*
X58897000Y-124273000D01*
X58897000Y-124527000D01*
X58877000Y-124527000D01*
X58877000Y-125526250D01*
X59035750Y-125685000D01*
X59250000Y-125688072D01*
X59373000Y-125675958D01*
X59373000Y-126500000D01*
X59375440Y-126524776D01*
X59382667Y-126548601D01*
X59394403Y-126570557D01*
X59410197Y-126589803D01*
X59429443Y-126605597D01*
X59451399Y-126617333D01*
X59475224Y-126624560D01*
X59500000Y-126627000D01*
X64947394Y-126627000D01*
X70373000Y-132052606D01*
X70373000Y-157000000D01*
X70375440Y-157024776D01*
X70382667Y-157048601D01*
X70394403Y-157070557D01*
X70410197Y-157089803D01*
X71910197Y-158589803D01*
X71929443Y-158605597D01*
X71951399Y-158617333D01*
X71975224Y-158624560D01*
X72000000Y-158627000D01*
X80000000Y-158627000D01*
X80024776Y-158624560D01*
X80048601Y-158617333D01*
X80070557Y-158605597D01*
X80089803Y-158589803D01*
X81589803Y-157089803D01*
X81605597Y-157070557D01*
X81617333Y-157048601D01*
X81624560Y-157024776D01*
X81627000Y-157000000D01*
X81627000Y-136127000D01*
X85373000Y-136127000D01*
X85373000Y-148873000D01*
X84000000Y-148873000D01*
X83975224Y-148875440D01*
X83951399Y-148882667D01*
X83929443Y-148894403D01*
X83910197Y-148910197D01*
X83894403Y-148929443D01*
X83882667Y-148951399D01*
X83875440Y-148975224D01*
X83873000Y-149000000D01*
X83873000Y-162947394D01*
X82947394Y-163873000D01*
X69052606Y-163873000D01*
X68127000Y-162947394D01*
X68127000Y-155552606D01*
X68839803Y-154839803D01*
X68855597Y-154820557D01*
X68867333Y-154798601D01*
X68874560Y-154774776D01*
X68877000Y-154750000D01*
X68877000Y-151750000D01*
X68874560Y-151725224D01*
X68867333Y-151701399D01*
X68855597Y-151679443D01*
X68839803Y-151660197D01*
X68127000Y-150947394D01*
X68127000Y-144369729D01*
X68180537Y-144304494D01*
X68239502Y-144194180D01*
X68275812Y-144074482D01*
X68288072Y-143950000D01*
X68285000Y-143735750D01*
X68127000Y-143577750D01*
X68127000Y-143322250D01*
X68285000Y-143164250D01*
X68288072Y-142950000D01*
X68275812Y-142825518D01*
X68239502Y-142705820D01*
X68180537Y-142595506D01*
X68127000Y-142530271D01*
X68127000Y-140500000D01*
X68124560Y-140475224D01*
X68117333Y-140451399D01*
X68105597Y-140429443D01*
X68089803Y-140410197D01*
X68070557Y-140394403D01*
X68048601Y-140382667D01*
X68024776Y-140375440D01*
X68000000Y-140373000D01*
X57127000Y-140373000D01*
X57127000Y-125050000D01*
X57611928Y-125050000D01*
X57624188Y-125174482D01*
X57660498Y-125294180D01*
X57719463Y-125404494D01*
X57798815Y-125501185D01*
X57895506Y-125580537D01*
X58005820Y-125639502D01*
X58125518Y-125675812D01*
X58250000Y-125688072D01*
X58464250Y-125685000D01*
X58623000Y-125526250D01*
X58623000Y-124527000D01*
X57773750Y-124527000D01*
X57615000Y-124685750D01*
X57611928Y-125050000D01*
X57127000Y-125050000D01*
X57127000Y-123627000D01*
X57624042Y-123627000D01*
X57611928Y-123750000D01*
G36*
X43115000Y-126164250D02*
G01*
X43273750Y-126323000D01*
X44273000Y-126323000D01*
X44273000Y-126303000D01*
X44373000Y-126303000D01*
X44373000Y-126597000D01*
X44273000Y-126597000D01*
X44273000Y-126577000D01*
X43273750Y-126577000D01*
X43115000Y-126735750D01*
X43111928Y-126950000D01*
X43124188Y-127074482D01*
X43160498Y-127194180D01*
X43219463Y-127304494D01*
X43298815Y-127401185D01*
X43395506Y-127480537D01*
X43505820Y-127539502D01*
X43625518Y-127575812D01*
X43750000Y-127588072D01*
X44114250Y-127585000D01*
X44272998Y-127426252D01*
X44272998Y-127585000D01*
X44373000Y-127585000D01*
X44373000Y-130000000D01*
X44375440Y-130024776D01*
X44382667Y-130048601D01*
X44394403Y-130070557D01*
X44410197Y-130089803D01*
X44910197Y-130589803D01*
X44929443Y-130605597D01*
X44951399Y-130617333D01*
X44975224Y-130624560D01*
X45000000Y-130627000D01*
X55500000Y-130627000D01*
X55524776Y-130624560D01*
X55548601Y-130617333D01*
X55570557Y-130605597D01*
X55589803Y-130589803D01*
X56873000Y-129306606D01*
X56873000Y-136193394D01*
X55589803Y-134910197D01*
X55570557Y-134894403D01*
X55548601Y-134882667D01*
X55524776Y-134875440D01*
X55500000Y-134873000D01*
X18402000Y-134873000D01*
X18402000Y-130627000D01*
X39500000Y-130627000D01*
X39524776Y-130624560D01*
X39548601Y-130617333D01*
X39570557Y-130605597D01*
X39589803Y-130589803D01*
X40589803Y-129589803D01*
X40605597Y-129570557D01*
X40617333Y-129548601D01*
X40624560Y-129524776D01*
X40627000Y-129500000D01*
X40627000Y-128052606D01*
X42552606Y-126127000D01*
X43114466Y-126127000D01*
X43115000Y-126164250D01*
X43115000Y-126164250D01*
G37*
X43115000Y-126164250D02*
X43273750Y-126323000D01*
X44273000Y-126323000D01*
X44273000Y-126303000D01*
X44373000Y-126303000D01*
X44373000Y-126597000D01*
X44273000Y-126597000D01*
X44273000Y-126577000D01*
X43273750Y-126577000D01*
X43115000Y-126735750D01*
X43111928Y-126950000D01*
X43124188Y-127074482D01*
X43160498Y-127194180D01*
X43219463Y-127304494D01*
X43298815Y-127401185D01*
X43395506Y-127480537D01*
X43505820Y-127539502D01*
X43625518Y-127575812D01*
X43750000Y-127588072D01*
X44114250Y-127585000D01*
X44272998Y-127426252D01*
X44272998Y-127585000D01*
X44373000Y-127585000D01*
X44373000Y-130000000D01*
X44375440Y-130024776D01*
X44382667Y-130048601D01*
X44394403Y-130070557D01*
X44410197Y-130089803D01*
X44910197Y-130589803D01*
X44929443Y-130605597D01*
X44951399Y-130617333D01*
X44975224Y-130624560D01*
X45000000Y-130627000D01*
X55500000Y-130627000D01*
X55524776Y-130624560D01*
X55548601Y-130617333D01*
X55570557Y-130605597D01*
X55589803Y-130589803D01*
X56873000Y-129306606D01*
X56873000Y-136193394D01*
X55589803Y-134910197D01*
X55570557Y-134894403D01*
X55548601Y-134882667D01*
X55524776Y-134875440D01*
X55500000Y-134873000D01*
X18402000Y-134873000D01*
X18402000Y-130627000D01*
X39500000Y-130627000D01*
X39524776Y-130624560D01*
X39548601Y-130617333D01*
X39570557Y-130605597D01*
X39589803Y-130589803D01*
X40589803Y-129589803D01*
X40605597Y-129570557D01*
X40617333Y-129548601D01*
X40624560Y-129524776D01*
X40627000Y-129500000D01*
X40627000Y-128052606D01*
X42552606Y-126127000D01*
X43114466Y-126127000D01*
X43115000Y-126164250D01*
G36*
X45373000Y-73500000D02*
G01*
X45375440Y-73524776D01*
X45382667Y-73548601D01*
X45394403Y-73570557D01*
X45410197Y-73589803D01*
X46373000Y-74552606D01*
X46373000Y-78947394D01*
X43910197Y-81410197D01*
X43894403Y-81429443D01*
X43882667Y-81451399D01*
X43875440Y-81475224D01*
X43873000Y-81500000D01*
X43873000Y-88373000D01*
X40127000Y-88373000D01*
X40127000Y-72000000D01*
X40124560Y-71975224D01*
X40117333Y-71951399D01*
X40105597Y-71929443D01*
X40089803Y-71910197D01*
X39816920Y-71637314D01*
X39666099Y-71411594D01*
X39453406Y-71198901D01*
X39227686Y-71048080D01*
X38589803Y-70410197D01*
X38570557Y-70394403D01*
X38548601Y-70382667D01*
X38524776Y-70375440D01*
X38500000Y-70373000D01*
X28500000Y-70373000D01*
X28475224Y-70375440D01*
X28451399Y-70382667D01*
X28429443Y-70394403D01*
X28410197Y-70410197D01*
X24910197Y-73910197D01*
X24894403Y-73929443D01*
X24882667Y-73951399D01*
X24875440Y-73975224D01*
X24873000Y-74000000D01*
X24873000Y-87000000D01*
X24875440Y-87024776D01*
X24882667Y-87048601D01*
X24894403Y-87070557D01*
X24910197Y-87089803D01*
X27410197Y-89589803D01*
X27429443Y-89605597D01*
X27451399Y-89617333D01*
X27475224Y-89624560D01*
X27500000Y-89627000D01*
X34513032Y-89627000D01*
X34515000Y-89764250D01*
X34673750Y-89923000D01*
X35673000Y-89923000D01*
X35673000Y-89903000D01*
X35927000Y-89903000D01*
X35927000Y-89923000D01*
X35947000Y-89923000D01*
X35947000Y-90177000D01*
X35927000Y-90177000D01*
X35927000Y-90197000D01*
X35673000Y-90197000D01*
X35673000Y-90177000D01*
X34673750Y-90177000D01*
X34515000Y-90335750D01*
X34511928Y-90550000D01*
X34524188Y-90674482D01*
X34560498Y-90794180D01*
X34602629Y-90873000D01*
X27000000Y-90873000D01*
X26975224Y-90875440D01*
X26951399Y-90882667D01*
X26929443Y-90894403D01*
X26910197Y-90910197D01*
X25410197Y-92410197D01*
X25394403Y-92429443D01*
X25382667Y-92451399D01*
X25375440Y-92475224D01*
X25373000Y-92500000D01*
X25373000Y-107000000D01*
X25375440Y-107024776D01*
X25382667Y-107048601D01*
X25394403Y-107070557D01*
X25410197Y-107089803D01*
X26873000Y-108552606D01*
X26873000Y-116000000D01*
X26875440Y-116024776D01*
X26882667Y-116048601D01*
X26894403Y-116070557D01*
X26910197Y-116089803D01*
X28410197Y-117589803D01*
X28429443Y-117605597D01*
X28451399Y-117617333D01*
X28475224Y-117624560D01*
X28500000Y-117627000D01*
X28913032Y-117627000D01*
X28915000Y-117764250D01*
X29073750Y-117923000D01*
X30073000Y-117923000D01*
X30073000Y-117903000D01*
X30327000Y-117903000D01*
X30327000Y-117923000D01*
X30347000Y-117923000D01*
X30347000Y-118177000D01*
X30327000Y-118177000D01*
X30327000Y-118197000D01*
X30073000Y-118197000D01*
X30073000Y-118177000D01*
X29073750Y-118177000D01*
X28915000Y-118335750D01*
X28914466Y-118373000D01*
X24000000Y-118373000D01*
X23975224Y-118375440D01*
X23951399Y-118382667D01*
X23929443Y-118394403D01*
X23910197Y-118410197D01*
X21910197Y-120410197D01*
X21894403Y-120429443D01*
X21882667Y-120451399D01*
X21875440Y-120475224D01*
X21873000Y-120500000D01*
X21873000Y-125000000D01*
X21875440Y-125024776D01*
X21882667Y-125048601D01*
X21894403Y-125070557D01*
X21910197Y-125089803D01*
X22717170Y-125896776D01*
X22711928Y-125950000D01*
X22715000Y-126164250D01*
X22873750Y-126323000D01*
X23873000Y-126323000D01*
X23873000Y-126303000D01*
X24127000Y-126303000D01*
X24127000Y-126323000D01*
X24147000Y-126323000D01*
X24147000Y-126577000D01*
X24127000Y-126577000D01*
X24127000Y-127426250D01*
X24285750Y-127585000D01*
X24373000Y-127585736D01*
X24373000Y-129500000D01*
X24375440Y-129524776D01*
X24382667Y-129548601D01*
X24394403Y-129570557D01*
X24410197Y-129589803D01*
X25193394Y-130373000D01*
X18402000Y-130373000D01*
X18402000Y-126950000D01*
X22711928Y-126950000D01*
X22724188Y-127074482D01*
X22760498Y-127194180D01*
X22819463Y-127304494D01*
X22898815Y-127401185D01*
X22995506Y-127480537D01*
X23105820Y-127539502D01*
X23225518Y-127575812D01*
X23350000Y-127588072D01*
X23714250Y-127585000D01*
X23873000Y-127426250D01*
X23873000Y-126577000D01*
X22873750Y-126577000D01*
X22715000Y-126735750D01*
X22711928Y-126950000D01*
X18402000Y-126950000D01*
X18402000Y-74277606D01*
X28052606Y-64627000D01*
X45373000Y-64627000D01*
X45373000Y-73500000D01*
X45373000Y-73500000D01*
G37*
X45373000Y-73500000D02*
X45375440Y-73524776D01*
X45382667Y-73548601D01*
X45394403Y-73570557D01*
X45410197Y-73589803D01*
X46373000Y-74552606D01*
X46373000Y-78947394D01*
X43910197Y-81410197D01*
X43894403Y-81429443D01*
X43882667Y-81451399D01*
X43875440Y-81475224D01*
X43873000Y-81500000D01*
X43873000Y-88373000D01*
X40127000Y-88373000D01*
X40127000Y-72000000D01*
X40124560Y-71975224D01*
X40117333Y-71951399D01*
X40105597Y-71929443D01*
X40089803Y-71910197D01*
X39816920Y-71637314D01*
X39666099Y-71411594D01*
X39453406Y-71198901D01*
X39227686Y-71048080D01*
X38589803Y-70410197D01*
X38570557Y-70394403D01*
X38548601Y-70382667D01*
X38524776Y-70375440D01*
X38500000Y-70373000D01*
X28500000Y-70373000D01*
X28475224Y-70375440D01*
X28451399Y-70382667D01*
X28429443Y-70394403D01*
X28410197Y-70410197D01*
X24910197Y-73910197D01*
X24894403Y-73929443D01*
X24882667Y-73951399D01*
X24875440Y-73975224D01*
X24873000Y-74000000D01*
X24873000Y-87000000D01*
X24875440Y-87024776D01*
X24882667Y-87048601D01*
X24894403Y-87070557D01*
X24910197Y-87089803D01*
X27410197Y-89589803D01*
X27429443Y-89605597D01*
X27451399Y-89617333D01*
X27475224Y-89624560D01*
X27500000Y-89627000D01*
X34513032Y-89627000D01*
X34515000Y-89764250D01*
X34673750Y-89923000D01*
X35673000Y-89923000D01*
X35673000Y-89903000D01*
X35927000Y-89903000D01*
X35927000Y-89923000D01*
X35947000Y-89923000D01*
X35947000Y-90177000D01*
X35927000Y-90177000D01*
X35927000Y-90197000D01*
X35673000Y-90197000D01*
X35673000Y-90177000D01*
X34673750Y-90177000D01*
X34515000Y-90335750D01*
X34511928Y-90550000D01*
X34524188Y-90674482D01*
X34560498Y-90794180D01*
X34602629Y-90873000D01*
X27000000Y-90873000D01*
X26975224Y-90875440D01*
X26951399Y-90882667D01*
X26929443Y-90894403D01*
X26910197Y-90910197D01*
X25410197Y-92410197D01*
X25394403Y-92429443D01*
X25382667Y-92451399D01*
X25375440Y-92475224D01*
X25373000Y-92500000D01*
X25373000Y-107000000D01*
X25375440Y-107024776D01*
X25382667Y-107048601D01*
X25394403Y-107070557D01*
X25410197Y-107089803D01*
X26873000Y-108552606D01*
X26873000Y-116000000D01*
X26875440Y-116024776D01*
X26882667Y-116048601D01*
X26894403Y-116070557D01*
X26910197Y-116089803D01*
X28410197Y-117589803D01*
X28429443Y-117605597D01*
X28451399Y-117617333D01*
X28475224Y-117624560D01*
X28500000Y-117627000D01*
X28913032Y-117627000D01*
X28915000Y-117764250D01*
X29073750Y-117923000D01*
X30073000Y-117923000D01*
X30073000Y-117903000D01*
X30327000Y-117903000D01*
X30327000Y-117923000D01*
X30347000Y-117923000D01*
X30347000Y-118177000D01*
X30327000Y-118177000D01*
X30327000Y-118197000D01*
X30073000Y-118197000D01*
X30073000Y-118177000D01*
X29073750Y-118177000D01*
X28915000Y-118335750D01*
X28914466Y-118373000D01*
X24000000Y-118373000D01*
X23975224Y-118375440D01*
X23951399Y-118382667D01*
X23929443Y-118394403D01*
X23910197Y-118410197D01*
X21910197Y-120410197D01*
X21894403Y-120429443D01*
X21882667Y-120451399D01*
X21875440Y-120475224D01*
X21873000Y-120500000D01*
X21873000Y-125000000D01*
X21875440Y-125024776D01*
X21882667Y-125048601D01*
X21894403Y-125070557D01*
X21910197Y-125089803D01*
X22717170Y-125896776D01*
X22711928Y-125950000D01*
X22715000Y-126164250D01*
X22873750Y-126323000D01*
X23873000Y-126323000D01*
X23873000Y-126303000D01*
X24127000Y-126303000D01*
X24127000Y-126323000D01*
X24147000Y-126323000D01*
X24147000Y-126577000D01*
X24127000Y-126577000D01*
X24127000Y-127426250D01*
X24285750Y-127585000D01*
X24373000Y-127585736D01*
X24373000Y-129500000D01*
X24375440Y-129524776D01*
X24382667Y-129548601D01*
X24394403Y-129570557D01*
X24410197Y-129589803D01*
X25193394Y-130373000D01*
X18402000Y-130373000D01*
X18402000Y-126950000D01*
X22711928Y-126950000D01*
X22724188Y-127074482D01*
X22760498Y-127194180D01*
X22819463Y-127304494D01*
X22898815Y-127401185D01*
X22995506Y-127480537D01*
X23105820Y-127539502D01*
X23225518Y-127575812D01*
X23350000Y-127588072D01*
X23714250Y-127585000D01*
X23873000Y-127426250D01*
X23873000Y-126577000D01*
X22873750Y-126577000D01*
X22715000Y-126735750D01*
X22711928Y-126950000D01*
X18402000Y-126950000D01*
X18402000Y-74277606D01*
X28052606Y-64627000D01*
X45373000Y-64627000D01*
X45373000Y-73500000D01*
G36*
X62098815Y-81698815D02*
G01*
X62019463Y-81795506D01*
X61960498Y-81905820D01*
X61924188Y-82025518D01*
X61911928Y-82150000D01*
X61915000Y-82364250D01*
X62073750Y-82523000D01*
X63073000Y-82523000D01*
X63073000Y-82503000D01*
X63327000Y-82503000D01*
X63327000Y-82523000D01*
X64326250Y-82523000D01*
X64485000Y-82364250D01*
X64488072Y-82150000D01*
X64475812Y-82025518D01*
X64439502Y-81905820D01*
X64380537Y-81795506D01*
X64301185Y-81698815D01*
X64213678Y-81627000D01*
X68586322Y-81627000D01*
X68498815Y-81698815D01*
X68419463Y-81795506D01*
X68360498Y-81905820D01*
X68324188Y-82025518D01*
X68311928Y-82150000D01*
X68315000Y-82364250D01*
X68473750Y-82523000D01*
X69473000Y-82523000D01*
X69473000Y-82503000D01*
X69727000Y-82503000D01*
X69727000Y-82523000D01*
X70726250Y-82523000D01*
X70885000Y-82364250D01*
X70888072Y-82150000D01*
X70875812Y-82025518D01*
X70839502Y-81905820D01*
X70780537Y-81795506D01*
X70701185Y-81698815D01*
X70613678Y-81627000D01*
X71373000Y-81627000D01*
X71373000Y-83373000D01*
X70845927Y-83373000D01*
X70875812Y-83274482D01*
X70888072Y-83150000D01*
X70885000Y-82935750D01*
X70726250Y-82777000D01*
X69727000Y-82777000D01*
X69727000Y-82797000D01*
X69473000Y-82797000D01*
X69473000Y-82777000D01*
X68473750Y-82777000D01*
X68315000Y-82935750D01*
X68311928Y-83150000D01*
X68324188Y-83274482D01*
X68354073Y-83373000D01*
X64445927Y-83373000D01*
X64475812Y-83274482D01*
X64488072Y-83150000D01*
X64485000Y-82935750D01*
X64326250Y-82777000D01*
X63327000Y-82777000D01*
X63327000Y-82797000D01*
X63073000Y-82797000D01*
X63073000Y-82777000D01*
X62073750Y-82777000D01*
X61915000Y-82935750D01*
X61911928Y-83150000D01*
X61924188Y-83274482D01*
X61954073Y-83373000D01*
X61500000Y-83373000D01*
X61475224Y-83375440D01*
X61451399Y-83382667D01*
X61429443Y-83394403D01*
X61410197Y-83410197D01*
X59410197Y-85410197D01*
X59394403Y-85429443D01*
X59382667Y-85451399D01*
X59375440Y-85475224D01*
X59373000Y-85500000D01*
X59373000Y-94000000D01*
X59375440Y-94024776D01*
X59382667Y-94048601D01*
X59394403Y-94070557D01*
X59410197Y-94089803D01*
X60372998Y-95052604D01*
X60372998Y-95073748D01*
X60214250Y-94915000D01*
X60000000Y-94911928D01*
X59875518Y-94924188D01*
X59755820Y-94960498D01*
X59645506Y-95019463D01*
X59548815Y-95098815D01*
X59469463Y-95195506D01*
X59410498Y-95305820D01*
X59374188Y-95425518D01*
X59361928Y-95550000D01*
X59365000Y-95914250D01*
X59523750Y-96073000D01*
X60373000Y-96073000D01*
X60373000Y-96053000D01*
X60627000Y-96053000D01*
X60627000Y-96073000D01*
X60647000Y-96073000D01*
X60647000Y-96327000D01*
X60627000Y-96327000D01*
X60627000Y-96347000D01*
X60373000Y-96347000D01*
X60373000Y-96327000D01*
X59523750Y-96327000D01*
X59365000Y-96485750D01*
X59361928Y-96850000D01*
X59364193Y-96873000D01*
X55000000Y-96873000D01*
X54975224Y-96875440D01*
X54951399Y-96882667D01*
X54929443Y-96894403D01*
X54910197Y-96910197D01*
X54834924Y-96985470D01*
X54754494Y-96919463D01*
X54644180Y-96860498D01*
X54524482Y-96824188D01*
X54400000Y-96811928D01*
X54035750Y-96815000D01*
X53877000Y-96973750D01*
X53877000Y-97823000D01*
X53897000Y-97823000D01*
X53897000Y-98077000D01*
X53877000Y-98077000D01*
X53877000Y-98097000D01*
X53623000Y-98097000D01*
X53623000Y-98077000D01*
X53603000Y-98077000D01*
X53603000Y-97823000D01*
X53623000Y-97823000D01*
X53623000Y-96973750D01*
X53464250Y-96815000D01*
X53127000Y-96812156D01*
X53127000Y-96500000D01*
X53124560Y-96475224D01*
X53117333Y-96451399D01*
X53105597Y-96429443D01*
X53089803Y-96410197D01*
X50089803Y-93410197D01*
X50070557Y-93394403D01*
X50048601Y-93382667D01*
X50024776Y-93375440D01*
X50007122Y-93373701D01*
X50003449Y-93370687D01*
X49924579Y-93328530D01*
X49838999Y-93302570D01*
X49772295Y-93296000D01*
X49772288Y-93296000D01*
X49750000Y-93293805D01*
X49727712Y-93296000D01*
X46475606Y-93296000D01*
X41806606Y-88627000D01*
X43947394Y-88627000D01*
X44176655Y-88856261D01*
X44177407Y-88863895D01*
X44210629Y-88973414D01*
X44226684Y-89003450D01*
X44264580Y-89074348D01*
X44337184Y-89162817D01*
X44359356Y-89181013D01*
X46338987Y-91160645D01*
X46357183Y-91182817D01*
X46445652Y-91255421D01*
X46546585Y-91309371D01*
X46656104Y-91342593D01*
X46663739Y-91343345D01*
X46910197Y-91589803D01*
X46929443Y-91605597D01*
X46951399Y-91617333D01*
X46975224Y-91624560D01*
X47000000Y-91627000D01*
X49947394Y-91627000D01*
X53410197Y-95089803D01*
X53429443Y-95105597D01*
X53451399Y-95117333D01*
X53475224Y-95124560D01*
X53500000Y-95127000D01*
X55000000Y-95127000D01*
X55024776Y-95124560D01*
X55048601Y-95117333D01*
X55070557Y-95105597D01*
X55089803Y-95089803D01*
X56089803Y-94089803D01*
X56105597Y-94070557D01*
X56117333Y-94048601D01*
X56124560Y-94024776D01*
X56127000Y-94000000D01*
X56127000Y-85052606D01*
X57052606Y-84127000D01*
X58000000Y-84127000D01*
X58024776Y-84124560D01*
X58048601Y-84117333D01*
X58070557Y-84105597D01*
X58089803Y-84089803D01*
X60552606Y-81627000D01*
X62186322Y-81627000D01*
X62098815Y-81698815D01*
X62098815Y-81698815D01*
G37*
X62098815Y-81698815D02*
X62019463Y-81795506D01*
X61960498Y-81905820D01*
X61924188Y-82025518D01*
X61911928Y-82150000D01*
X61915000Y-82364250D01*
X62073750Y-82523000D01*
X63073000Y-82523000D01*
X63073000Y-82503000D01*
X63327000Y-82503000D01*
X63327000Y-82523000D01*
X64326250Y-82523000D01*
X64485000Y-82364250D01*
X64488072Y-82150000D01*
X64475812Y-82025518D01*
X64439502Y-81905820D01*
X64380537Y-81795506D01*
X64301185Y-81698815D01*
X64213678Y-81627000D01*
X68586322Y-81627000D01*
X68498815Y-81698815D01*
X68419463Y-81795506D01*
X68360498Y-81905820D01*
X68324188Y-82025518D01*
X68311928Y-82150000D01*
X68315000Y-82364250D01*
X68473750Y-82523000D01*
X69473000Y-82523000D01*
X69473000Y-82503000D01*
X69727000Y-82503000D01*
X69727000Y-82523000D01*
X70726250Y-82523000D01*
X70885000Y-82364250D01*
X70888072Y-82150000D01*
X70875812Y-82025518D01*
X70839502Y-81905820D01*
X70780537Y-81795506D01*
X70701185Y-81698815D01*
X70613678Y-81627000D01*
X71373000Y-81627000D01*
X71373000Y-83373000D01*
X70845927Y-83373000D01*
X70875812Y-83274482D01*
X70888072Y-83150000D01*
X70885000Y-82935750D01*
X70726250Y-82777000D01*
X69727000Y-82777000D01*
X69727000Y-82797000D01*
X69473000Y-82797000D01*
X69473000Y-82777000D01*
X68473750Y-82777000D01*
X68315000Y-82935750D01*
X68311928Y-83150000D01*
X68324188Y-83274482D01*
X68354073Y-83373000D01*
X64445927Y-83373000D01*
X64475812Y-83274482D01*
X64488072Y-83150000D01*
X64485000Y-82935750D01*
X64326250Y-82777000D01*
X63327000Y-82777000D01*
X63327000Y-82797000D01*
X63073000Y-82797000D01*
X63073000Y-82777000D01*
X62073750Y-82777000D01*
X61915000Y-82935750D01*
X61911928Y-83150000D01*
X61924188Y-83274482D01*
X61954073Y-83373000D01*
X61500000Y-83373000D01*
X61475224Y-83375440D01*
X61451399Y-83382667D01*
X61429443Y-83394403D01*
X61410197Y-83410197D01*
X59410197Y-85410197D01*
X59394403Y-85429443D01*
X59382667Y-85451399D01*
X59375440Y-85475224D01*
X59373000Y-85500000D01*
X59373000Y-94000000D01*
X59375440Y-94024776D01*
X59382667Y-94048601D01*
X59394403Y-94070557D01*
X59410197Y-94089803D01*
X60372998Y-95052604D01*
X60372998Y-95073748D01*
X60214250Y-94915000D01*
X60000000Y-94911928D01*
X59875518Y-94924188D01*
X59755820Y-94960498D01*
X59645506Y-95019463D01*
X59548815Y-95098815D01*
X59469463Y-95195506D01*
X59410498Y-95305820D01*
X59374188Y-95425518D01*
X59361928Y-95550000D01*
X59365000Y-95914250D01*
X59523750Y-96073000D01*
X60373000Y-96073000D01*
X60373000Y-96053000D01*
X60627000Y-96053000D01*
X60627000Y-96073000D01*
X60647000Y-96073000D01*
X60647000Y-96327000D01*
X60627000Y-96327000D01*
X60627000Y-96347000D01*
X60373000Y-96347000D01*
X60373000Y-96327000D01*
X59523750Y-96327000D01*
X59365000Y-96485750D01*
X59361928Y-96850000D01*
X59364193Y-96873000D01*
X55000000Y-96873000D01*
X54975224Y-96875440D01*
X54951399Y-96882667D01*
X54929443Y-96894403D01*
X54910197Y-96910197D01*
X54834924Y-96985470D01*
X54754494Y-96919463D01*
X54644180Y-96860498D01*
X54524482Y-96824188D01*
X54400000Y-96811928D01*
X54035750Y-96815000D01*
X53877000Y-96973750D01*
X53877000Y-97823000D01*
X53897000Y-97823000D01*
X53897000Y-98077000D01*
X53877000Y-98077000D01*
X53877000Y-98097000D01*
X53623000Y-98097000D01*
X53623000Y-98077000D01*
X53603000Y-98077000D01*
X53603000Y-97823000D01*
X53623000Y-97823000D01*
X53623000Y-96973750D01*
X53464250Y-96815000D01*
X53127000Y-96812156D01*
X53127000Y-96500000D01*
X53124560Y-96475224D01*
X53117333Y-96451399D01*
X53105597Y-96429443D01*
X53089803Y-96410197D01*
X50089803Y-93410197D01*
X50070557Y-93394403D01*
X50048601Y-93382667D01*
X50024776Y-93375440D01*
X50007122Y-93373701D01*
X50003449Y-93370687D01*
X49924579Y-93328530D01*
X49838999Y-93302570D01*
X49772295Y-93296000D01*
X49772288Y-93296000D01*
X49750000Y-93293805D01*
X49727712Y-93296000D01*
X46475606Y-93296000D01*
X41806606Y-88627000D01*
X43947394Y-88627000D01*
X44176655Y-88856261D01*
X44177407Y-88863895D01*
X44210629Y-88973414D01*
X44226684Y-89003450D01*
X44264580Y-89074348D01*
X44337184Y-89162817D01*
X44359356Y-89181013D01*
X46338987Y-91160645D01*
X46357183Y-91182817D01*
X46445652Y-91255421D01*
X46546585Y-91309371D01*
X46656104Y-91342593D01*
X46663739Y-91343345D01*
X46910197Y-91589803D01*
X46929443Y-91605597D01*
X46951399Y-91617333D01*
X46975224Y-91624560D01*
X47000000Y-91627000D01*
X49947394Y-91627000D01*
X53410197Y-95089803D01*
X53429443Y-95105597D01*
X53451399Y-95117333D01*
X53475224Y-95124560D01*
X53500000Y-95127000D01*
X55000000Y-95127000D01*
X55024776Y-95124560D01*
X55048601Y-95117333D01*
X55070557Y-95105597D01*
X55089803Y-95089803D01*
X56089803Y-94089803D01*
X56105597Y-94070557D01*
X56117333Y-94048601D01*
X56124560Y-94024776D01*
X56127000Y-94000000D01*
X56127000Y-85052606D01*
X57052606Y-84127000D01*
X58000000Y-84127000D01*
X58024776Y-84124560D01*
X58048601Y-84117333D01*
X58070557Y-84105597D01*
X58089803Y-84089803D01*
X60552606Y-81627000D01*
X62186322Y-81627000D01*
X62098815Y-81698815D01*
G36*
X152873000Y-70503141D02*
G01*
X152873000Y-73897394D01*
X145947394Y-80823000D01*
X134500000Y-80823000D01*
X134475224Y-80825440D01*
X134451399Y-80832667D01*
X134429443Y-80844403D01*
X134410197Y-80860197D01*
X127447394Y-87823000D01*
X106500000Y-87823000D01*
X106475224Y-87825440D01*
X106451399Y-87832667D01*
X106429443Y-87844403D01*
X106410197Y-87860197D01*
X104910197Y-89360197D01*
X104894403Y-89379443D01*
X104882667Y-89401399D01*
X104875440Y-89425224D01*
X104873000Y-89450000D01*
X104873000Y-109823000D01*
X103127000Y-109823000D01*
X103127000Y-107450000D01*
X103124560Y-107425224D01*
X103117333Y-107401399D01*
X103105597Y-107379443D01*
X103089803Y-107360197D01*
X99127000Y-103397394D01*
X99127000Y-91502606D01*
X105052606Y-85577000D01*
X120447394Y-85577000D01*
X120910197Y-86039803D01*
X120929443Y-86055597D01*
X120951399Y-86067333D01*
X120975224Y-86074560D01*
X121000000Y-86077000D01*
X126500000Y-86077000D01*
X126524776Y-86074560D01*
X126548601Y-86067333D01*
X126570557Y-86055597D01*
X126589803Y-86039803D01*
X127089803Y-85539803D01*
X127105597Y-85520557D01*
X127117333Y-85498601D01*
X127124560Y-85474776D01*
X127127000Y-85450000D01*
X127127000Y-85002606D01*
X132875606Y-79254000D01*
X139972295Y-79254000D01*
X139992601Y-79252000D01*
X141427795Y-79252000D01*
X141450000Y-79254187D01*
X141472205Y-79252000D01*
X141538607Y-79245460D01*
X141623810Y-79219614D01*
X141702333Y-79177643D01*
X141771159Y-79121159D01*
X141785323Y-79103900D01*
X141812223Y-79077000D01*
X144500000Y-79077000D01*
X144524776Y-79074560D01*
X144548601Y-79067333D01*
X144570557Y-79055597D01*
X144589803Y-79039803D01*
X150089803Y-73539803D01*
X150105597Y-73520557D01*
X150117333Y-73498601D01*
X150124560Y-73474776D01*
X150127000Y-73450000D01*
X150127000Y-71450000D01*
X150124560Y-71425224D01*
X150117333Y-71401399D01*
X150105597Y-71379443D01*
X150089803Y-71360197D01*
X149089803Y-70360197D01*
X149070557Y-70344403D01*
X149048601Y-70332667D01*
X149024776Y-70325440D01*
X149000000Y-70323000D01*
X140000000Y-70323000D01*
X139975224Y-70325440D01*
X139951399Y-70332667D01*
X139929443Y-70344403D01*
X139910197Y-70360197D01*
X135947144Y-74323250D01*
X125499395Y-74373001D01*
X125474631Y-74375560D01*
X125450841Y-74382900D01*
X125428941Y-74394741D01*
X125410197Y-74410197D01*
X115947394Y-83873000D01*
X87627000Y-83873000D01*
X87627000Y-79127000D01*
X114000000Y-79127000D01*
X114024776Y-79124560D01*
X114048601Y-79117333D01*
X114070557Y-79105597D01*
X114089803Y-79089803D01*
X121052606Y-72127000D01*
X133000000Y-72127000D01*
X133024776Y-72124560D01*
X133048601Y-72117333D01*
X133070557Y-72105597D01*
X133089803Y-72089803D01*
X138052606Y-67127000D01*
X149447930Y-67127000D01*
X152873000Y-70503141D01*
X152873000Y-70503141D01*
G37*
X152873000Y-70503141D02*
X152873000Y-73897394D01*
X145947394Y-80823000D01*
X134500000Y-80823000D01*
X134475224Y-80825440D01*
X134451399Y-80832667D01*
X134429443Y-80844403D01*
X134410197Y-80860197D01*
X127447394Y-87823000D01*
X106500000Y-87823000D01*
X106475224Y-87825440D01*
X106451399Y-87832667D01*
X106429443Y-87844403D01*
X106410197Y-87860197D01*
X104910197Y-89360197D01*
X104894403Y-89379443D01*
X104882667Y-89401399D01*
X104875440Y-89425224D01*
X104873000Y-89450000D01*
X104873000Y-109823000D01*
X103127000Y-109823000D01*
X103127000Y-107450000D01*
X103124560Y-107425224D01*
X103117333Y-107401399D01*
X103105597Y-107379443D01*
X103089803Y-107360197D01*
X99127000Y-103397394D01*
X99127000Y-91502606D01*
X105052606Y-85577000D01*
X120447394Y-85577000D01*
X120910197Y-86039803D01*
X120929443Y-86055597D01*
X120951399Y-86067333D01*
X120975224Y-86074560D01*
X121000000Y-86077000D01*
X126500000Y-86077000D01*
X126524776Y-86074560D01*
X126548601Y-86067333D01*
X126570557Y-86055597D01*
X126589803Y-86039803D01*
X127089803Y-85539803D01*
X127105597Y-85520557D01*
X127117333Y-85498601D01*
X127124560Y-85474776D01*
X127127000Y-85450000D01*
X127127000Y-85002606D01*
X132875606Y-79254000D01*
X139972295Y-79254000D01*
X139992601Y-79252000D01*
X141427795Y-79252000D01*
X141450000Y-79254187D01*
X141472205Y-79252000D01*
X141538607Y-79245460D01*
X141623810Y-79219614D01*
X141702333Y-79177643D01*
X141771159Y-79121159D01*
X141785323Y-79103900D01*
X141812223Y-79077000D01*
X144500000Y-79077000D01*
X144524776Y-79074560D01*
X144548601Y-79067333D01*
X144570557Y-79055597D01*
X144589803Y-79039803D01*
X150089803Y-73539803D01*
X150105597Y-73520557D01*
X150117333Y-73498601D01*
X150124560Y-73474776D01*
X150127000Y-73450000D01*
X150127000Y-71450000D01*
X150124560Y-71425224D01*
X150117333Y-71401399D01*
X150105597Y-71379443D01*
X150089803Y-71360197D01*
X149089803Y-70360197D01*
X149070557Y-70344403D01*
X149048601Y-70332667D01*
X149024776Y-70325440D01*
X149000000Y-70323000D01*
X140000000Y-70323000D01*
X139975224Y-70325440D01*
X139951399Y-70332667D01*
X139929443Y-70344403D01*
X139910197Y-70360197D01*
X135947144Y-74323250D01*
X125499395Y-74373001D01*
X125474631Y-74375560D01*
X125450841Y-74382900D01*
X125428941Y-74394741D01*
X125410197Y-74410197D01*
X115947394Y-83873000D01*
X87627000Y-83873000D01*
X87627000Y-79127000D01*
X114000000Y-79127000D01*
X114024776Y-79124560D01*
X114048601Y-79117333D01*
X114070557Y-79105597D01*
X114089803Y-79089803D01*
X121052606Y-72127000D01*
X133000000Y-72127000D01*
X133024776Y-72124560D01*
X133048601Y-72117333D01*
X133070557Y-72105597D01*
X133089803Y-72089803D01*
X138052606Y-67127000D01*
X149447930Y-67127000D01*
X152873000Y-70503141D01*
G36*
X156873000Y-72947394D02*
G01*
X146447394Y-83373000D01*
X137000000Y-83373000D01*
X136975224Y-83375440D01*
X136951399Y-83382667D01*
X136929443Y-83394403D01*
X136910197Y-83410197D01*
X136894403Y-83429443D01*
X136882667Y-83451399D01*
X136875440Y-83475224D01*
X136873000Y-83500000D01*
X136873000Y-86873000D01*
X131127000Y-86873000D01*
X131127000Y-85052606D01*
X134552606Y-81627000D01*
X146000000Y-81627000D01*
X146024776Y-81624560D01*
X146048601Y-81617333D01*
X146070557Y-81605597D01*
X146089803Y-81589803D01*
X153589803Y-74089803D01*
X153605597Y-74070557D01*
X153617333Y-74048601D01*
X153624560Y-74024776D01*
X153627000Y-74000000D01*
X153627000Y-70627000D01*
X156873000Y-70627000D01*
X156873000Y-72947394D01*
X156873000Y-72947394D01*
G37*
X156873000Y-72947394D02*
X146447394Y-83373000D01*
X137000000Y-83373000D01*
X136975224Y-83375440D01*
X136951399Y-83382667D01*
X136929443Y-83394403D01*
X136910197Y-83410197D01*
X136894403Y-83429443D01*
X136882667Y-83451399D01*
X136875440Y-83475224D01*
X136873000Y-83500000D01*
X136873000Y-86873000D01*
X131127000Y-86873000D01*
X131127000Y-85052606D01*
X134552606Y-81627000D01*
X146000000Y-81627000D01*
X146024776Y-81624560D01*
X146048601Y-81617333D01*
X146070557Y-81605597D01*
X146089803Y-81589803D01*
X153589803Y-74089803D01*
X153605597Y-74070557D01*
X153617333Y-74048601D01*
X153624560Y-74024776D01*
X153627000Y-74000000D01*
X153627000Y-70627000D01*
X156873000Y-70627000D01*
X156873000Y-72947394D01*
G36*
X152873000Y-69552606D02*
G01*
X152873000Y-70373000D01*
X150552606Y-70373000D01*
X149589803Y-69410197D01*
X149570557Y-69394403D01*
X149548601Y-69382667D01*
X149524776Y-69375440D01*
X149500000Y-69373000D01*
X141127000Y-69373000D01*
X141127000Y-69052606D01*
X143052606Y-67127000D01*
X150447394Y-67127000D01*
X152873000Y-69552606D01*
X152873000Y-69552606D01*
G37*
X152873000Y-69552606D02*
X152873000Y-70373000D01*
X150552606Y-70373000D01*
X149589803Y-69410197D01*
X149570557Y-69394403D01*
X149548601Y-69382667D01*
X149524776Y-69375440D01*
X149500000Y-69373000D01*
X141127000Y-69373000D01*
X141127000Y-69052606D01*
X143052606Y-67127000D01*
X150447394Y-67127000D01*
X152873000Y-69552606D01*
G36*
X156873000Y-68052606D02*
G01*
X156873000Y-70373000D01*
X153627000Y-70373000D01*
X153627000Y-69000000D01*
X153624560Y-68975224D01*
X153617333Y-68951399D01*
X153605597Y-68929443D01*
X153589803Y-68910197D01*
X151127000Y-66447394D01*
X151127000Y-64627000D01*
X153447394Y-64627000D01*
X156873000Y-68052606D01*
X156873000Y-68052606D01*
G37*
X156873000Y-68052606D02*
X156873000Y-70373000D01*
X153627000Y-70373000D01*
X153627000Y-69000000D01*
X153624560Y-68975224D01*
X153617333Y-68951399D01*
X153605597Y-68929443D01*
X153589803Y-68910197D01*
X151127000Y-66447394D01*
X151127000Y-64627000D01*
X153447394Y-64627000D01*
X156873000Y-68052606D01*
G36*
X156873000Y-70873000D02*
G01*
X153627000Y-70873000D01*
X153627000Y-70127000D01*
X156873000Y-70127000D01*
X156873000Y-70873000D01*
X156873000Y-70873000D01*
G37*
X156873000Y-70873000D02*
X153627000Y-70873000D01*
X153627000Y-70127000D01*
X156873000Y-70127000D01*
X156873000Y-70873000D01*
G36*
X132873000Y-88873000D02*
G01*
X127806606Y-88873000D01*
X130052606Y-86627000D01*
X132873000Y-86627000D01*
X132873000Y-88873000D01*
X132873000Y-88873000D01*
G37*
X132873000Y-88873000D02*
X127806606Y-88873000D01*
X130052606Y-86627000D01*
X132873000Y-86627000D01*
X132873000Y-88873000D01*
G36*
X144873000Y-87373000D02*
G01*
X140127000Y-87373000D01*
X140127000Y-84127000D01*
X144873000Y-84127000D01*
X144873000Y-87373000D01*
X144873000Y-87373000D01*
G37*
X144873000Y-87373000D02*
X140127000Y-87373000D01*
X140127000Y-84127000D01*
X144873000Y-84127000D01*
X144873000Y-87373000D01*
G36*
X147373000Y-85873000D02*
G01*
X144627000Y-85873000D01*
X144627000Y-84127000D01*
X147373000Y-84127000D01*
X147373000Y-85873000D01*
X147373000Y-85873000D01*
G37*
X147373000Y-85873000D02*
X144627000Y-85873000D01*
X144627000Y-84127000D01*
X147373000Y-84127000D01*
X147373000Y-85873000D01*
G36*
X145373000Y-88373000D02*
G01*
X142627000Y-88373000D01*
X142627000Y-86627000D01*
X145373000Y-86627000D01*
X145373000Y-88373000D01*
X145373000Y-88373000D01*
G37*
X145373000Y-88373000D02*
X142627000Y-88373000D01*
X142627000Y-86627000D01*
X145373000Y-86627000D01*
X145373000Y-88373000D01*
M02*
