G04 #@! TF.FileFunction,Legend,Bot*
%FSLAX46Y46*%
G04 Gerber Fmt 4.6, Leading zero omitted, Abs format (unit mm)*
G04 Created by KiCad (PCBNEW 4.0.7-e0-6372~58~ubuntu16.10.1) date Tue Oct  3 15:09:46 2017*
%MOMM*%
%LPD*%
G01*
G04 APERTURE LIST*
%ADD10C,0.150000*%
%ADD11C,0.250000*%
%ADD12C,0.125000*%
%ADD13C,0.200000*%
%ADD14C,0.120000*%
%ADD15R,3.500000X1.600000*%
%ADD16R,1.000000X1.250000*%
%ADD17R,2.499360X1.800860*%
%ADD18R,1.250000X1.000000*%
%ADD19R,1.198880X1.198880*%
%ADD20R,1.800860X2.499360*%
%ADD21R,1.050000X1.050000*%
%ADD22C,1.050000*%
%ADD23R,0.400000X0.800000*%
%ADD24R,0.420000X1.300000*%
%ADD25R,0.660400X0.406400*%
%ADD26R,0.450000X1.450000*%
%ADD27R,1.300000X0.250000*%
%ADD28R,0.250000X1.300000*%
%ADD29R,1.450000X0.450000*%
%ADD30R,0.600000X1.550000*%
%ADD31R,0.800100X0.800100*%
%ADD32C,6.000000*%
%ADD33R,3.657600X2.032000*%
%ADD34R,1.016000X2.032000*%
%ADD35R,1.600000X3.500000*%
%ADD36R,0.750000X0.800000*%
%ADD37R,0.900000X0.800000*%
%ADD38R,1.300000X1.000000*%
%ADD39R,1.000000X1.300000*%
%ADD40R,0.900000X0.900000*%
%ADD41R,1.550000X0.600000*%
%ADD42R,0.800000X0.750000*%
%ADD43C,1.300000*%
%ADD44C,4.000000*%
%ADD45C,2.000000*%
%ADD46R,0.890000X0.420000*%
%ADD47R,0.825000X0.712500*%
%ADD48R,1.400000X0.800000*%
%ADD49R,1.300000X1.600000*%
%ADD50R,0.405000X1.300000*%
%ADD51R,2.235000X1.725000*%
%ADD52R,1.300000X0.405000*%
%ADD53R,1.725000X2.235000*%
%ADD54R,1.300000X0.420000*%
%ADD55R,0.600000X1.500000*%
%ADD56C,1.600000*%
%ADD57R,1.700000X1.700000*%
%ADD58O,1.700000X1.700000*%
%ADD59R,1.200000X0.900000*%
%ADD60R,0.300000X0.850000*%
%ADD61R,0.850000X0.300000*%
%ADD62R,2.600000X2.600000*%
%ADD63R,0.400000X0.600000*%
%ADD64R,0.600000X0.400000*%
%ADD65C,2.200000*%
%ADD66C,3.900000*%
%ADD67R,1.600000X1.000000*%
%ADD68R,1.000000X1.600000*%
%ADD69R,1.200000X1.200000*%
%ADD70C,0.600000*%
%ADD71C,0.889000*%
%ADD72C,0.254000*%
G04 APERTURE END LIST*
D10*
D11*
X46652381Y-50928571D02*
X46985715Y-50928571D01*
X46985715Y-51452381D02*
X46985715Y-50452381D01*
X46509524Y-50452381D01*
X46128572Y-50452381D02*
X46128572Y-51261905D01*
X46080953Y-51357143D01*
X46033334Y-51404762D01*
X45938096Y-51452381D01*
X45747619Y-51452381D01*
X45652381Y-51404762D01*
X45604762Y-51357143D01*
X45557143Y-51261905D01*
X45557143Y-50452381D01*
X45128572Y-51404762D02*
X44985715Y-51452381D01*
X44747619Y-51452381D01*
X44652381Y-51404762D01*
X44604762Y-51357143D01*
X44557143Y-51261905D01*
X44557143Y-51166667D01*
X44604762Y-51071429D01*
X44652381Y-51023810D01*
X44747619Y-50976190D01*
X44938096Y-50928571D01*
X45033334Y-50880952D01*
X45080953Y-50833333D01*
X45128572Y-50738095D01*
X45128572Y-50642857D01*
X45080953Y-50547619D01*
X45033334Y-50500000D01*
X44938096Y-50452381D01*
X44700000Y-50452381D01*
X44557143Y-50500000D01*
X44128572Y-50928571D02*
X43795238Y-50928571D01*
X43652381Y-51452381D02*
X44128572Y-51452381D01*
X44128572Y-50452381D01*
X43652381Y-50452381D01*
X41985714Y-50452381D02*
X42461905Y-50452381D01*
X42509524Y-50928571D01*
X42461905Y-50880952D01*
X42366667Y-50833333D01*
X42128571Y-50833333D01*
X42033333Y-50880952D01*
X41985714Y-50928571D01*
X41938095Y-51023810D01*
X41938095Y-51261905D01*
X41985714Y-51357143D01*
X42033333Y-51404762D01*
X42128571Y-51452381D01*
X42366667Y-51452381D01*
X42461905Y-51404762D01*
X42509524Y-51357143D01*
X41557143Y-51166667D02*
X41080952Y-51166667D01*
X41652381Y-51452381D02*
X41319048Y-50452381D01*
X40985714Y-51452381D01*
X39890476Y-51452381D02*
X39890476Y-50452381D01*
X39557142Y-51166667D01*
X39223809Y-50452381D01*
X39223809Y-51452381D01*
X38795238Y-51166667D02*
X38319047Y-51166667D01*
X38890476Y-51452381D02*
X38557143Y-50452381D01*
X38223809Y-51452381D01*
X37985714Y-50452381D02*
X37319047Y-51452381D01*
X37319047Y-50452381D02*
X37985714Y-51452381D01*
X46728571Y-67828571D02*
X47061905Y-67828571D01*
X47061905Y-68352381D02*
X47061905Y-67352381D01*
X46585714Y-67352381D01*
X46204762Y-67352381D02*
X46204762Y-68161905D01*
X46157143Y-68257143D01*
X46109524Y-68304762D01*
X46014286Y-68352381D01*
X45823809Y-68352381D01*
X45728571Y-68304762D01*
X45680952Y-68257143D01*
X45633333Y-68161905D01*
X45633333Y-67352381D01*
X45204762Y-68304762D02*
X45061905Y-68352381D01*
X44823809Y-68352381D01*
X44728571Y-68304762D01*
X44680952Y-68257143D01*
X44633333Y-68161905D01*
X44633333Y-68066667D01*
X44680952Y-67971429D01*
X44728571Y-67923810D01*
X44823809Y-67876190D01*
X45014286Y-67828571D01*
X45109524Y-67780952D01*
X45157143Y-67733333D01*
X45204762Y-67638095D01*
X45204762Y-67542857D01*
X45157143Y-67447619D01*
X45109524Y-67400000D01*
X45014286Y-67352381D01*
X44776190Y-67352381D01*
X44633333Y-67400000D01*
X44204762Y-67828571D02*
X43871428Y-67828571D01*
X43728571Y-68352381D02*
X44204762Y-68352381D01*
X44204762Y-67352381D01*
X43728571Y-67352381D01*
X42633333Y-67352381D02*
X42014285Y-67352381D01*
X42347619Y-67733333D01*
X42204761Y-67733333D01*
X42109523Y-67780952D01*
X42061904Y-67828571D01*
X42014285Y-67923810D01*
X42014285Y-68161905D01*
X42061904Y-68257143D01*
X42109523Y-68304762D01*
X42204761Y-68352381D01*
X42490476Y-68352381D01*
X42585714Y-68304762D01*
X42633333Y-68257143D01*
X41395238Y-67352381D02*
X41299999Y-67352381D01*
X41204761Y-67400000D01*
X41157142Y-67447619D01*
X41109523Y-67542857D01*
X41061904Y-67733333D01*
X41061904Y-67971429D01*
X41109523Y-68161905D01*
X41157142Y-68257143D01*
X41204761Y-68304762D01*
X41299999Y-68352381D01*
X41395238Y-68352381D01*
X41490476Y-68304762D01*
X41538095Y-68257143D01*
X41585714Y-68161905D01*
X41633333Y-67971429D01*
X41633333Y-67733333D01*
X41585714Y-67542857D01*
X41538095Y-67447619D01*
X41490476Y-67400000D01*
X41395238Y-67352381D01*
X40680952Y-68066667D02*
X40204761Y-68066667D01*
X40776190Y-68352381D02*
X40442857Y-67352381D01*
X40109523Y-68352381D01*
X39014285Y-68352381D02*
X39014285Y-67352381D01*
X38680951Y-68066667D01*
X38347618Y-67352381D01*
X38347618Y-68352381D01*
X37919047Y-68066667D02*
X37442856Y-68066667D01*
X38014285Y-68352381D02*
X37680952Y-67352381D01*
X37347618Y-68352381D01*
X37109523Y-67352381D02*
X36442856Y-68352381D01*
X36442856Y-67352381D02*
X37109523Y-68352381D01*
D12*
X75547619Y-50936310D02*
X75595238Y-50912500D01*
X75642857Y-50864881D01*
X75714286Y-50793452D01*
X75761905Y-50769643D01*
X75809524Y-50769643D01*
X75785714Y-50888690D02*
X75833333Y-50864881D01*
X75880952Y-50817262D01*
X75904762Y-50722024D01*
X75904762Y-50555357D01*
X75880952Y-50460119D01*
X75833333Y-50412500D01*
X75785714Y-50388690D01*
X75690476Y-50388690D01*
X75642857Y-50412500D01*
X75595238Y-50460119D01*
X75571429Y-50555357D01*
X75571429Y-50722024D01*
X75595238Y-50817262D01*
X75642857Y-50864881D01*
X75690476Y-50888690D01*
X75785714Y-50888690D01*
X75404761Y-50388690D02*
X75071428Y-50388690D01*
X75285714Y-50888690D01*
X65173810Y-39952381D02*
X65150000Y-39904762D01*
X65102381Y-39857143D01*
X65030952Y-39785714D01*
X65007143Y-39738095D01*
X65007143Y-39690476D01*
X65126190Y-39714286D02*
X65102381Y-39666667D01*
X65054762Y-39619048D01*
X64959524Y-39595238D01*
X64792857Y-39595238D01*
X64697619Y-39619048D01*
X64650000Y-39666667D01*
X64626190Y-39714286D01*
X64626190Y-39809524D01*
X64650000Y-39857143D01*
X64697619Y-39904762D01*
X64792857Y-39928571D01*
X64959524Y-39928571D01*
X65054762Y-39904762D01*
X65102381Y-39857143D01*
X65126190Y-39809524D01*
X65126190Y-39714286D01*
X64626190Y-40357143D02*
X64626190Y-40261905D01*
X64650000Y-40214286D01*
X64673810Y-40190477D01*
X64745238Y-40142858D01*
X64840476Y-40119048D01*
X65030952Y-40119048D01*
X65078571Y-40142858D01*
X65102381Y-40166667D01*
X65126190Y-40214286D01*
X65126190Y-40309524D01*
X65102381Y-40357143D01*
X65078571Y-40380953D01*
X65030952Y-40404762D01*
X64911905Y-40404762D01*
X64864286Y-40380953D01*
X64840476Y-40357143D01*
X64816667Y-40309524D01*
X64816667Y-40214286D01*
X64840476Y-40166667D01*
X64864286Y-40142858D01*
X64911905Y-40119048D01*
X60473810Y-9952381D02*
X60450000Y-9904762D01*
X60402381Y-9857143D01*
X60330952Y-9785714D01*
X60307143Y-9738095D01*
X60307143Y-9690476D01*
X60426190Y-9714286D02*
X60402381Y-9666667D01*
X60354762Y-9619048D01*
X60259524Y-9595238D01*
X60092857Y-9595238D01*
X59997619Y-9619048D01*
X59950000Y-9666667D01*
X59926190Y-9714286D01*
X59926190Y-9809524D01*
X59950000Y-9857143D01*
X59997619Y-9904762D01*
X60092857Y-9928571D01*
X60259524Y-9928571D01*
X60354762Y-9904762D01*
X60402381Y-9857143D01*
X60426190Y-9809524D01*
X60426190Y-9714286D01*
X60092857Y-10357143D02*
X60426190Y-10357143D01*
X59902381Y-10238096D02*
X60259524Y-10119048D01*
X60259524Y-10428572D01*
X42147619Y-873810D02*
X42195238Y-850000D01*
X42242857Y-802381D01*
X42314286Y-730952D01*
X42361905Y-707143D01*
X42409524Y-707143D01*
X42385714Y-826190D02*
X42433333Y-802381D01*
X42480952Y-754762D01*
X42504762Y-659524D01*
X42504762Y-492857D01*
X42480952Y-397619D01*
X42433333Y-350000D01*
X42385714Y-326190D01*
X42290476Y-326190D01*
X42242857Y-350000D01*
X42195238Y-397619D01*
X42171429Y-492857D01*
X42171429Y-659524D01*
X42195238Y-754762D01*
X42242857Y-802381D01*
X42290476Y-826190D01*
X42385714Y-826190D01*
X42004761Y-326190D02*
X41695238Y-326190D01*
X41861904Y-516667D01*
X41790476Y-516667D01*
X41742857Y-540476D01*
X41719047Y-564286D01*
X41695238Y-611905D01*
X41695238Y-730952D01*
X41719047Y-778571D01*
X41742857Y-802381D01*
X41790476Y-826190D01*
X41933333Y-826190D01*
X41980952Y-802381D01*
X42004761Y-778571D01*
D13*
X-54212751Y-36378525D02*
X-54212751Y-36393765D01*
X5511540Y-10010200D02*
X5496300Y-10010200D01*
X10373100Y-9766360D02*
X10403580Y-9735880D01*
D14*
X75000000Y-14840000D02*
X75000000Y-13420000D01*
X68400000Y-15600000D02*
X68400000Y-13420000D01*
X68400000Y-9000000D02*
X68400000Y-11180000D01*
X75000000Y-9760000D02*
X75000000Y-11180000D01*
X68400000Y-15600000D02*
X74240000Y-15600000D01*
X74240000Y-15600000D02*
X75000000Y-14840000D01*
X75000000Y-9760000D02*
X74240000Y-9000000D01*
X74240000Y-9000000D02*
X68400000Y-9000000D01*
D10*
X70750000Y-55650000D02*
X71750000Y-55650000D01*
X71750000Y-57350000D02*
X70750000Y-57350000D01*
X67525860Y-42874940D02*
X67525860Y-43225460D01*
X67525860Y-46375060D02*
X67525860Y-46024540D01*
X71575440Y-42874940D02*
X71575440Y-43225460D01*
X67074560Y-42874940D02*
X67074560Y-43225460D01*
X67074560Y-46375060D02*
X67074560Y-46024540D01*
X71575440Y-46375060D02*
X71575440Y-46024540D01*
X67074560Y-42874940D02*
X71575440Y-42874940D01*
X67074560Y-46375060D02*
X71575440Y-46375060D01*
X65600000Y-32680000D02*
X65600000Y-31680000D01*
X67300000Y-31680000D02*
X67300000Y-32680000D01*
X2975000Y-40550000D02*
X3975000Y-40550000D01*
X3975000Y-42250000D02*
X2975000Y-42250000D01*
X72250000Y-28400000D02*
X73250000Y-28400000D01*
X73250000Y-30100000D02*
X72250000Y-30100000D01*
X41350000Y-11300000D02*
X41350000Y-10300000D01*
X43050000Y-10300000D02*
X43050000Y-11300000D01*
X67200000Y-3350000D02*
X67200000Y-4350000D01*
X65500000Y-4350000D02*
X65500000Y-3350000D01*
X7350000Y-30100000D02*
X7350000Y-27400000D01*
X8850000Y-30100000D02*
X8850000Y-27400000D01*
X7950000Y-28600000D02*
X8200000Y-28600000D01*
X8200000Y-28600000D02*
X8050000Y-28750000D01*
X8450000Y-28850000D02*
X7750000Y-28850000D01*
X8100000Y-28500000D02*
X8100000Y-28150000D01*
X8100000Y-28850000D02*
X8450000Y-28500000D01*
X8450000Y-28500000D02*
X7750000Y-28500000D01*
X7750000Y-28500000D02*
X8100000Y-28850000D01*
X4875000Y-51400000D02*
X4875000Y-48700000D01*
X6375000Y-51400000D02*
X6375000Y-48700000D01*
X5475000Y-49900000D02*
X5725000Y-49900000D01*
X5725000Y-49900000D02*
X5575000Y-50050000D01*
X5975000Y-50150000D02*
X5275000Y-50150000D01*
X5625000Y-49800000D02*
X5625000Y-49450000D01*
X5625000Y-50150000D02*
X5975000Y-49800000D01*
X5975000Y-49800000D02*
X5275000Y-49800000D01*
X5275000Y-49800000D02*
X5625000Y-50150000D01*
X53150060Y-2600860D02*
X52799540Y-2600860D01*
X49649940Y-2600860D02*
X50000460Y-2600860D01*
X53150060Y-6650440D02*
X52799540Y-6650440D01*
X53150060Y-2149560D02*
X52799540Y-2149560D01*
X49649940Y-2149560D02*
X50000460Y-2149560D01*
X49649940Y-6650440D02*
X50000460Y-6650440D01*
X53150060Y-2149560D02*
X53150060Y-6650440D01*
X49649940Y-2149560D02*
X49649940Y-6650440D01*
X72549140Y-55000060D02*
X72549140Y-54649540D01*
X72549140Y-51499940D02*
X72549140Y-51850460D01*
X68499560Y-55000060D02*
X68499560Y-54649540D01*
X73000440Y-55000060D02*
X73000440Y-54649540D01*
X73000440Y-51499940D02*
X73000440Y-51850460D01*
X68499560Y-51499940D02*
X68499560Y-51850460D01*
X73000440Y-55000060D02*
X68499560Y-55000060D01*
X73000440Y-51499940D02*
X68499560Y-51499940D01*
X41750060Y-3000860D02*
X41399540Y-3000860D01*
X38249940Y-3000860D02*
X38600460Y-3000860D01*
X41750060Y-7050440D02*
X41399540Y-7050440D01*
X41750060Y-2549560D02*
X41399540Y-2549560D01*
X38249940Y-2549560D02*
X38600460Y-2549560D01*
X38249940Y-7050440D02*
X38600460Y-7050440D01*
X41750060Y-2549560D02*
X41750060Y-7050440D01*
X38249940Y-2549560D02*
X38249940Y-7050440D01*
X34532600Y-25099100D02*
X35421600Y-25099100D01*
X35421600Y-25099100D02*
X35462240Y-25104180D01*
X33247360Y-27194600D02*
X33249900Y-26473240D01*
X33250000Y-28050000D02*
X33250000Y-27250000D01*
X39900000Y-28050000D02*
X33250000Y-28050000D01*
X39900000Y-28050000D02*
X39900000Y-25100000D01*
X39900000Y-25100000D02*
X35350000Y-25100000D01*
X33250000Y-26450000D02*
X33250000Y-25100000D01*
X33250000Y-25100000D02*
X34550000Y-25100000D01*
X5450000Y-32225000D02*
X5250000Y-32225000D01*
X5650000Y-33425000D02*
X5950000Y-33425000D01*
X5950000Y-33425000D02*
X5950000Y-32225000D01*
X4750000Y-32225000D02*
X4750000Y-33425000D01*
X4750000Y-33425000D02*
X5050000Y-33425000D01*
X11700000Y-48575000D02*
X11500000Y-48575000D01*
X11900000Y-49775000D02*
X12200000Y-49775000D01*
X12200000Y-49775000D02*
X12200000Y-48575000D01*
X11000000Y-48575000D02*
X11000000Y-49775000D01*
X11000000Y-49775000D02*
X11300000Y-49775000D01*
X5925000Y-35525000D02*
X6175000Y-35525000D01*
X5925000Y-38925000D02*
X6175000Y-38925000D01*
X9075000Y-38925000D02*
X8825000Y-38925000D01*
X9075000Y-35575000D02*
X8825000Y-35575000D01*
X5925000Y-35575000D02*
X5925000Y-38925000D01*
X9075000Y-35575000D02*
X9075000Y-38925000D01*
X6175000Y-35475000D02*
X6175000Y-34925000D01*
X9025000Y-44400000D02*
X9025000Y-44700000D01*
X9025000Y-44700000D02*
X9325000Y-44700000D01*
X8125000Y-46600000D02*
X8125000Y-44400000D01*
X8125000Y-44400000D02*
X9325000Y-44400000D01*
X9325000Y-44400000D02*
X9325000Y-46600000D01*
X9325000Y-46600000D02*
X8125000Y-46600000D01*
X21425000Y-44175000D02*
X21550000Y-44175000D01*
X21425000Y-48825000D02*
X21650000Y-48825000D01*
X26675000Y-48825000D02*
X26450000Y-48825000D01*
X26675000Y-44175000D02*
X26450000Y-44175000D01*
X21425000Y-44175000D02*
X21425000Y-48825000D01*
X26675000Y-44175000D02*
X26675000Y-48825000D01*
X21550000Y-44175000D02*
X21550000Y-42825000D01*
X14025000Y-44175000D02*
X14150000Y-44175000D01*
X14025000Y-48825000D02*
X14250000Y-48825000D01*
X19275000Y-48825000D02*
X19050000Y-48825000D01*
X19275000Y-44175000D02*
X19050000Y-44175000D01*
X14025000Y-44175000D02*
X14025000Y-48825000D01*
X19275000Y-44175000D02*
X19275000Y-48825000D01*
X14150000Y-44175000D02*
X14150000Y-42825000D01*
X47225000Y-31075000D02*
X47225000Y-31525000D01*
X39975000Y-31075000D02*
X39975000Y-31600000D01*
X39975000Y-38325000D02*
X39975000Y-37800000D01*
X47225000Y-38325000D02*
X47225000Y-37800000D01*
X47225000Y-31075000D02*
X46700000Y-31075000D01*
X47225000Y-38325000D02*
X46700000Y-38325000D01*
X39975000Y-38325000D02*
X40500000Y-38325000D01*
X39975000Y-31075000D02*
X40500000Y-31075000D01*
X47225000Y-31525000D02*
X48600000Y-31525000D01*
X37475000Y-44225000D02*
X37475000Y-44400000D01*
X34125000Y-44225000D02*
X34125000Y-44475000D01*
X34125000Y-47575000D02*
X34125000Y-47325000D01*
X37475000Y-47575000D02*
X37475000Y-47325000D01*
X37475000Y-44225000D02*
X34125000Y-44225000D01*
X37475000Y-47575000D02*
X34125000Y-47575000D01*
X37475000Y-44400000D02*
X38725000Y-44400000D01*
X59050860Y-51749940D02*
X59050860Y-52100460D01*
X59050860Y-55250060D02*
X59050860Y-54899540D01*
X63100440Y-51749940D02*
X63100440Y-52100460D01*
X58599560Y-51749940D02*
X58599560Y-52100460D01*
X58599560Y-55250060D02*
X58599560Y-54899540D01*
X63100440Y-55250060D02*
X63100440Y-54899540D01*
X58599560Y-51749940D02*
X63100440Y-51749940D01*
X58599560Y-55250060D02*
X63100440Y-55250060D01*
X51925000Y-42875000D02*
X51975000Y-42875000D01*
X51925000Y-47025000D02*
X52070000Y-47025000D01*
X57075000Y-47025000D02*
X56930000Y-47025000D01*
X57075000Y-42875000D02*
X56930000Y-42875000D01*
X51925000Y-42875000D02*
X51925000Y-47025000D01*
X57075000Y-42875000D02*
X57075000Y-47025000D01*
X51975000Y-42875000D02*
X51975000Y-41475000D01*
X9800840Y-52849760D02*
X9849100Y-52849760D01*
X12599820Y-53550800D02*
X12599820Y-52849760D01*
X12599820Y-52849760D02*
X12350900Y-52849760D01*
X9800840Y-52849760D02*
X9600180Y-52849760D01*
X9600180Y-52849760D02*
X9600180Y-53550800D01*
X27399760Y-54699160D02*
X27399760Y-54650900D01*
X28100800Y-51900180D02*
X27399760Y-51900180D01*
X27399760Y-51900180D02*
X27399760Y-52149100D01*
X27399760Y-54699160D02*
X27399760Y-54899820D01*
X27399760Y-54899820D02*
X28100800Y-54899820D01*
X18300840Y-53149760D02*
X18349100Y-53149760D01*
X21099820Y-53850800D02*
X21099820Y-53149760D01*
X21099820Y-53149760D02*
X20850900Y-53149760D01*
X18300840Y-53149760D02*
X18100180Y-53149760D01*
X18100180Y-53149760D02*
X18100180Y-53850800D01*
X1344000Y-55476000D02*
X1344000Y-52428000D01*
X1344000Y-52428000D02*
X8456000Y-52428000D01*
X8456000Y-52428000D02*
X8456000Y-55476000D01*
X1344000Y-58524000D02*
X1344000Y-59286000D01*
X1344000Y-59286000D02*
X2868000Y-61572000D01*
X2868000Y-61572000D02*
X6932000Y-61572000D01*
X6932000Y-61572000D02*
X8456000Y-59286000D01*
X8456000Y-59286000D02*
X8456000Y-58524000D01*
D14*
X35150000Y-4250000D02*
X35150000Y-3250000D01*
X36850000Y-3250000D02*
X36850000Y-4250000D01*
X44660000Y-20700000D02*
X46080000Y-20700000D01*
X43900000Y-14100000D02*
X46080000Y-14100000D01*
X50500000Y-14100000D02*
X48320000Y-14100000D01*
X49740000Y-20700000D02*
X48320000Y-20700000D01*
X43900000Y-14100000D02*
X43900000Y-19940000D01*
X43900000Y-19940000D02*
X44660000Y-20700000D01*
X49740000Y-20700000D02*
X50500000Y-19940000D01*
X50500000Y-19940000D02*
X50500000Y-14100000D01*
X65250000Y-8850000D02*
X64250000Y-8850000D01*
X64250000Y-7150000D02*
X65250000Y-7150000D01*
X31825000Y-17650000D02*
X31825000Y-18650000D01*
X30125000Y-18650000D02*
X30125000Y-17650000D01*
X14900000Y-18575000D02*
X14900000Y-17875000D01*
X13700000Y-17875000D02*
X13700000Y-18575000D01*
X27500000Y-20425000D02*
X27500000Y-21125000D01*
X28700000Y-21125000D02*
X28700000Y-20425000D01*
X13700000Y-22725000D02*
X13700000Y-23425000D01*
X14900000Y-23425000D02*
X14900000Y-22725000D01*
X15930000Y-22270000D02*
X15930000Y-21340000D01*
X15930000Y-19110000D02*
X15930000Y-20040000D01*
X15930000Y-19110000D02*
X18090000Y-19110000D01*
X15930000Y-22270000D02*
X17390000Y-22270000D01*
D10*
X55675000Y-11800000D02*
X55675000Y-10600000D01*
X53925000Y-10600000D02*
X53925000Y-11800000D01*
X73930000Y-41385000D02*
X75130000Y-41385000D01*
X75130000Y-39635000D02*
X73930000Y-39635000D01*
X74200000Y-45275000D02*
X75200000Y-45275000D01*
X75200000Y-43925000D02*
X74200000Y-43925000D01*
X55675000Y-8200000D02*
X55675000Y-7000000D01*
X53925000Y-7000000D02*
X53925000Y-8200000D01*
X43325000Y-6200000D02*
X43325000Y-7200000D01*
X44675000Y-7200000D02*
X44675000Y-6200000D01*
X73975000Y-38625000D02*
X74975000Y-38625000D01*
X74975000Y-37275000D02*
X73975000Y-37275000D01*
X47775000Y-7300000D02*
X47775000Y-6300000D01*
X46425000Y-6300000D02*
X46425000Y-7300000D01*
X25075000Y-18125000D02*
X25075000Y-18175000D01*
X20925000Y-18125000D02*
X20925000Y-18270000D01*
X20925000Y-23275000D02*
X20925000Y-23130000D01*
X25075000Y-23275000D02*
X25075000Y-23130000D01*
X25075000Y-18125000D02*
X20925000Y-18125000D01*
X25075000Y-23275000D02*
X20925000Y-23275000D01*
X25075000Y-18175000D02*
X26475000Y-18175000D01*
D14*
X52650000Y-14500000D02*
X52650000Y-15500000D01*
X50950000Y-15500000D02*
X50950000Y-14500000D01*
X71490000Y-39010000D02*
X70490000Y-39010000D01*
X70490000Y-37310000D02*
X71490000Y-37310000D01*
X53450000Y-9900000D02*
X53450000Y-10900000D01*
X51750000Y-10900000D02*
X51750000Y-9900000D01*
X35850000Y-18175000D02*
X35850000Y-19175000D01*
X34150000Y-19175000D02*
X34150000Y-18175000D01*
X4975000Y-30500000D02*
X5675000Y-30500000D01*
X5675000Y-29300000D02*
X4975000Y-29300000D01*
X7850000Y-33050000D02*
X7850000Y-32350000D01*
X6650000Y-32350000D02*
X6650000Y-33050000D01*
X9250000Y-33050000D02*
X9250000Y-32350000D01*
X8050000Y-32350000D02*
X8050000Y-33050000D01*
X3650000Y-37475000D02*
X3650000Y-38175000D01*
X4850000Y-38175000D02*
X4850000Y-37475000D01*
X53850000Y-36400000D02*
X53150000Y-36400000D01*
X53150000Y-37600000D02*
X53850000Y-37600000D01*
X53150000Y-30100000D02*
X53850000Y-30100000D01*
X53850000Y-28900000D02*
X53150000Y-28900000D01*
X49400000Y-41200000D02*
X49400000Y-41900000D01*
X50600000Y-41900000D02*
X50600000Y-41200000D01*
X55550000Y-49700000D02*
X54850000Y-49700000D01*
X54850000Y-50900000D02*
X55550000Y-50900000D01*
X55400000Y-52350000D02*
X56100000Y-52350000D01*
X56100000Y-51150000D02*
X55400000Y-51150000D01*
X36600000Y-30650000D02*
X36600000Y-31350000D01*
X37800000Y-31350000D02*
X37800000Y-30650000D01*
X47150000Y-27450000D02*
X46450000Y-27450000D01*
X46450000Y-28650000D02*
X47150000Y-28650000D01*
X49650000Y-37425000D02*
X49650000Y-38125000D01*
X50850000Y-38125000D02*
X50850000Y-37425000D01*
X39850000Y-42400000D02*
X40550000Y-42400000D01*
X40550000Y-41200000D02*
X39850000Y-41200000D01*
X41750000Y-26900000D02*
X41750000Y-26200000D01*
X40550000Y-26200000D02*
X40550000Y-26900000D01*
X50225000Y-29825000D02*
X50225000Y-29125000D01*
X49025000Y-29125000D02*
X49025000Y-29825000D01*
X21750000Y-41100000D02*
X21750000Y-40400000D01*
X20550000Y-40400000D02*
X20550000Y-41100000D01*
X14375000Y-40925000D02*
X14375000Y-40225000D01*
X13175000Y-40225000D02*
X13175000Y-40925000D01*
X30800000Y-43650000D02*
X30800000Y-44350000D01*
X32000000Y-44350000D02*
X32000000Y-43650000D01*
X5025000Y-45175000D02*
X5025000Y-45875000D01*
X6225000Y-45875000D02*
X6225000Y-45175000D01*
D10*
X2050000Y-110000D02*
X34450000Y-110000D01*
X2050000Y-15860000D02*
X34450000Y-15860000D01*
X34450000Y-110000D02*
X34450000Y-15860000D01*
X2050000Y-110000D02*
X2050000Y-15860000D01*
X67325000Y-37025000D02*
X67325000Y-35825000D01*
X65575000Y-35825000D02*
X65575000Y-37025000D01*
X55400000Y-13525000D02*
X54200000Y-13525000D01*
X54200000Y-15275000D02*
X55400000Y-15275000D01*
X74100000Y-25625000D02*
X72900000Y-25625000D01*
X72900000Y-27375000D02*
X74100000Y-27375000D01*
X69500000Y-41455000D02*
X70700000Y-41455000D01*
X70700000Y-39705000D02*
X69500000Y-39705000D01*
X38525000Y-10400000D02*
X38525000Y-11600000D01*
X40275000Y-11600000D02*
X40275000Y-10400000D01*
X47150000Y-42075000D02*
X46150000Y-42075000D01*
X46150000Y-43425000D02*
X47150000Y-43425000D01*
X55875000Y-40375000D02*
X56875000Y-40375000D01*
X56875000Y-39025000D02*
X55875000Y-39025000D01*
X48385000Y-45320000D02*
X48385000Y-46320000D01*
X49735000Y-46320000D02*
X49735000Y-45320000D01*
X41575000Y-45800000D02*
X41575000Y-44600000D01*
X39825000Y-44600000D02*
X39825000Y-45800000D01*
X3825000Y-33700000D02*
X3825000Y-32500000D01*
X2075000Y-32500000D02*
X2075000Y-33700000D01*
X24075000Y-52675000D02*
X22875000Y-52675000D01*
X22875000Y-54425000D02*
X24075000Y-54425000D01*
X13425000Y-52700000D02*
X13425000Y-53900000D01*
X15175000Y-53900000D02*
X15175000Y-52700000D01*
X3300000Y-28125000D02*
X4500000Y-28125000D01*
X4500000Y-26375000D02*
X3300000Y-26375000D01*
X15425000Y-52700000D02*
X15425000Y-53900000D01*
X17175000Y-53900000D02*
X17175000Y-52700000D01*
X69200000Y-1975000D02*
X69200000Y-2040000D01*
X69200000Y-6225000D02*
X69200000Y-6160000D01*
X72450000Y-6225000D02*
X72450000Y-6160000D01*
X72450000Y-1975000D02*
X69200000Y-1975000D01*
X72450000Y-6225000D02*
X69200000Y-6225000D01*
X72450000Y-1975000D02*
X73375000Y-1975000D01*
X37775000Y-16875000D02*
X37775000Y-16940000D01*
X37775000Y-21125000D02*
X37775000Y-21060000D01*
X41025000Y-21125000D02*
X41025000Y-21060000D01*
X41025000Y-16875000D02*
X37775000Y-16875000D01*
X41025000Y-21125000D02*
X37775000Y-21125000D01*
X41025000Y-16875000D02*
X41950000Y-16875000D01*
X51700000Y-35600000D02*
G75*
G03X51700000Y-35600000I-200000J0D01*
G01*
X55500000Y-35600000D02*
X55500000Y-30800000D01*
X55500000Y-30800000D02*
X51500000Y-30800000D01*
X51500000Y-30800000D02*
X51500000Y-35600000D01*
X51500000Y-35600000D02*
X55500000Y-35600000D01*
D14*
X25350000Y-37600000D02*
X24650000Y-37600000D01*
X24650000Y-38800000D02*
X25350000Y-38800000D01*
X28275000Y-25375000D02*
X28275000Y-24675000D01*
X27075000Y-24675000D02*
X27075000Y-25375000D01*
D10*
X35800000Y-23475000D02*
X37000000Y-23475000D01*
X37000000Y-21725000D02*
X35800000Y-21725000D01*
X61010000Y-40270000D02*
X61010000Y-41920000D01*
X61010000Y-41920000D02*
X64310000Y-41920000D01*
X64310000Y-41920000D02*
X64310000Y-38620000D01*
X64310000Y-38620000D02*
X61010000Y-38620000D01*
X61010000Y-38620000D02*
X61010000Y-40320000D01*
X59650000Y-10000000D02*
X59650000Y-8350000D01*
X59650000Y-8350000D02*
X56350000Y-8350000D01*
X56350000Y-8350000D02*
X56350000Y-11650000D01*
X56350000Y-11650000D02*
X59650000Y-11650000D01*
X59650000Y-11650000D02*
X59650000Y-9950000D01*
X73450000Y-50450000D02*
X75100000Y-50450000D01*
X75100000Y-50450000D02*
X75100000Y-47150000D01*
X75100000Y-47150000D02*
X71800000Y-47150000D01*
X71800000Y-47150000D02*
X71800000Y-50450000D01*
X71800000Y-50450000D02*
X73500000Y-50450000D01*
X45500000Y-850000D02*
X43850000Y-850000D01*
X43850000Y-850000D02*
X43850000Y-4150000D01*
X43850000Y-4150000D02*
X47150000Y-4150000D01*
X47150000Y-4150000D02*
X47150000Y-850000D01*
X47150000Y-850000D02*
X45450000Y-850000D01*
X69100000Y-31750000D02*
X69350000Y-31750000D01*
X69100000Y-35150000D02*
X69350000Y-35150000D01*
X72250000Y-35150000D02*
X72000000Y-35150000D01*
X72250000Y-31800000D02*
X72000000Y-31800000D01*
X69100000Y-31800000D02*
X69100000Y-35150000D01*
X72250000Y-31800000D02*
X72250000Y-35150000D01*
X69350000Y-31700000D02*
X69350000Y-31150000D01*
X45875000Y-12175000D02*
X45875000Y-11925000D01*
X49275000Y-12175000D02*
X49275000Y-11925000D01*
X49275000Y-9025000D02*
X49275000Y-9275000D01*
X45925000Y-9025000D02*
X45925000Y-9275000D01*
X45925000Y-12175000D02*
X49275000Y-12175000D01*
X45925000Y-9025000D02*
X49275000Y-9025000D01*
X45825000Y-11925000D02*
X45275000Y-11925000D01*
X26400000Y-34975000D02*
X26125000Y-34975000D01*
X26400000Y-27225000D02*
X26045000Y-27225000D01*
X15750000Y-27225000D02*
X16105000Y-27225000D01*
X15750000Y-34975000D02*
X16105000Y-34975000D01*
X26400000Y-34975000D02*
X26400000Y-27225000D01*
X15750000Y-34975000D02*
X15750000Y-27225000D01*
X26125000Y-34975000D02*
X26125000Y-36500000D01*
X9200000Y-47925000D02*
X8000000Y-47925000D01*
X8000000Y-49675000D02*
X9200000Y-49675000D01*
D14*
X32000000Y-58900000D02*
X52000000Y-58900000D01*
X32000000Y-58900000D02*
X32000000Y-52100000D01*
X52000000Y-52100000D02*
X52000000Y-58900000D01*
X52000000Y-52100000D02*
X32000000Y-52100000D01*
X32000000Y-65900000D02*
X52000000Y-65900000D01*
X32000000Y-65900000D02*
X32000000Y-59100000D01*
X52000000Y-59100000D02*
X52000000Y-65900000D01*
X52000000Y-59100000D02*
X32000000Y-59100000D01*
X3955000Y-51745000D02*
X1295000Y-51745000D01*
X3955000Y-49145000D02*
X3955000Y-51745000D01*
X1295000Y-49145000D02*
X1295000Y-51745000D01*
X3955000Y-49145000D02*
X1295000Y-49145000D01*
X3955000Y-47875000D02*
X3955000Y-46545000D01*
X3955000Y-46545000D02*
X2625000Y-46545000D01*
D10*
X58575000Y-47000000D02*
X58575000Y-48000000D01*
X59925000Y-48000000D02*
X59925000Y-47000000D01*
X1600000Y-45750000D02*
X2600000Y-45750000D01*
X2600000Y-44400000D02*
X1600000Y-44400000D01*
X1600000Y-44075000D02*
X2600000Y-44075000D01*
X2600000Y-42725000D02*
X1600000Y-42725000D01*
D14*
X60250000Y-45500000D02*
X58250000Y-45500000D01*
X58250000Y-45500000D02*
X58250000Y-41600000D01*
X60250000Y-45500000D02*
X60250000Y-41600000D01*
D10*
X28850000Y-37550000D02*
X29375000Y-37550000D01*
X33150000Y-33250000D02*
X32625000Y-33250000D01*
X33150000Y-37550000D02*
X32625000Y-37550000D01*
X28850000Y-33250000D02*
X28850000Y-33775000D01*
X33150000Y-33250000D02*
X33150000Y-33775000D01*
X33150000Y-37550000D02*
X33150000Y-37025000D01*
X28850000Y-37550000D02*
X28850000Y-37025000D01*
D14*
X32200000Y-39700000D02*
X32200000Y-40400000D01*
X33400000Y-40400000D02*
X33400000Y-39700000D01*
X32000000Y-28650000D02*
X33000000Y-28650000D01*
X33000000Y-30350000D02*
X32000000Y-30350000D01*
D10*
X33625000Y-39600000D02*
X33625000Y-40600000D01*
X34975000Y-40600000D02*
X34975000Y-39600000D01*
D14*
X30800000Y-39830000D02*
X30300000Y-39830000D01*
X30300000Y-38770000D02*
X30800000Y-38770000D01*
X36570000Y-37750000D02*
X36570000Y-37250000D01*
X37630000Y-37250000D02*
X37630000Y-37750000D01*
D10*
X35025000Y-36450000D02*
X35025000Y-37450000D01*
X36375000Y-37450000D02*
X36375000Y-36450000D01*
X32150000Y-70250000D02*
X39050000Y-70250000D01*
X39050000Y-70250000D02*
X39050000Y-77250000D01*
X39050000Y-77250000D02*
X31350000Y-77250000D01*
X31350000Y-77250000D02*
X31350000Y-80450000D01*
X31350000Y-80450000D02*
X10650000Y-80450000D01*
X10650000Y-80450000D02*
X10650000Y-78250000D01*
X10650000Y-78250000D02*
X2950000Y-78250000D01*
X2950000Y-69250000D02*
X2950000Y-78250000D01*
X9850000Y-69250000D02*
X2950000Y-69250000D01*
X9850000Y-69250000D02*
X9850000Y-67250000D01*
X9850000Y-67250000D02*
X32150000Y-67250000D01*
X32150000Y-67250000D02*
X32150000Y-70250000D01*
X68650000Y-70250000D02*
X75550000Y-70250000D01*
X75550000Y-70250000D02*
X75550000Y-77250000D01*
X75550000Y-77250000D02*
X67850000Y-77250000D01*
X67850000Y-77250000D02*
X67850000Y-80450000D01*
X67850000Y-80450000D02*
X52150000Y-80450000D01*
X52150000Y-80450000D02*
X52150000Y-78250000D01*
X52150000Y-78250000D02*
X44450000Y-78250000D01*
X44450000Y-69250000D02*
X44450000Y-78250000D01*
X51350000Y-69250000D02*
X44450000Y-69250000D01*
X51350000Y-69250000D02*
X51350000Y-67250000D01*
X51350000Y-67250000D02*
X68650000Y-67250000D01*
X68650000Y-67250000D02*
X68650000Y-70250000D01*
D14*
X51250000Y-50850000D02*
X50250000Y-50850000D01*
X50250000Y-49150000D02*
X51250000Y-49150000D01*
D10*
X28675000Y-42275000D02*
X28675000Y-41275000D01*
X27325000Y-41275000D02*
X27325000Y-42275000D01*
X16450000Y-40975000D02*
X16450000Y-39975000D01*
X15100000Y-39975000D02*
X15100000Y-40975000D01*
X10900000Y-40575000D02*
X11900000Y-40575000D01*
X11900000Y-39225000D02*
X10900000Y-39225000D01*
X45875000Y-47350000D02*
X45875000Y-46350000D01*
X44525000Y-46350000D02*
X44525000Y-47350000D01*
X12200000Y-35625000D02*
X11200000Y-35625000D01*
X11200000Y-36975000D02*
X12200000Y-36975000D01*
X8250000Y-40500000D02*
X7050000Y-40500000D01*
X7050000Y-42250000D02*
X8250000Y-42250000D01*
D14*
X34730000Y-31400000D02*
X34730000Y-30400000D01*
X36430000Y-30400000D02*
X36430000Y-31400000D01*
D10*
X28250000Y-44525000D02*
X28250000Y-45525000D01*
X29600000Y-45525000D02*
X29600000Y-44525000D01*
D14*
X33600000Y-19250000D02*
X33600000Y-20250000D01*
X31900000Y-20250000D02*
X31900000Y-19250000D01*
X31825000Y-21250000D02*
X31825000Y-22250000D01*
X30125000Y-22250000D02*
X30125000Y-21250000D01*
X61450000Y-2800000D02*
X61450000Y-1800000D01*
X63150000Y-1800000D02*
X63150000Y-2800000D01*
X64950000Y-4600000D02*
X64950000Y-5600000D01*
X63250000Y-5600000D02*
X63250000Y-4600000D01*
X52920000Y-18925000D02*
X52920000Y-20925000D01*
X50880000Y-20925000D02*
X50880000Y-18925000D01*
X39050000Y-14130000D02*
X41050000Y-14130000D01*
X41050000Y-16170000D02*
X39050000Y-16170000D01*
X53828249Y-18176777D02*
X54323223Y-18671751D01*
X55171751Y-17823223D02*
X54676777Y-17328249D01*
X70500000Y-6730000D02*
X72500000Y-6730000D01*
X72500000Y-8770000D02*
X70500000Y-8770000D01*
X77250000Y-8770000D02*
X75250000Y-8770000D01*
X75250000Y-6730000D02*
X77250000Y-6730000D01*
X71650000Y-1600000D02*
X72350000Y-1600000D01*
X72350000Y-400000D02*
X71650000Y-400000D01*
X51200000Y-26950000D02*
X50200000Y-26950000D01*
X50200000Y-25250000D02*
X51200000Y-25250000D01*
X36550000Y-42100000D02*
X36550000Y-41100000D01*
X38250000Y-41100000D02*
X38250000Y-42100000D01*
X18200000Y-38850000D02*
X19200000Y-38850000D01*
X19200000Y-40550000D02*
X18200000Y-40550000D01*
X30300000Y-51450000D02*
X29300000Y-51450000D01*
X29300000Y-49750000D02*
X30300000Y-49750000D01*
X48100000Y-47650000D02*
X47400000Y-47650000D01*
X47400000Y-48850000D02*
X48100000Y-48850000D01*
D10*
X8657017Y-61594454D02*
X9505546Y-62442983D01*
X10742983Y-61205546D02*
X9894454Y-60357017D01*
D14*
X31150000Y-31700000D02*
X31850000Y-31700000D01*
X31850000Y-30500000D02*
X31150000Y-30500000D01*
X65300000Y-19750000D02*
X64300000Y-19750000D01*
X64300000Y-18050000D02*
X65300000Y-18050000D01*
X54750000Y-25900000D02*
X54750000Y-24900000D01*
X56450000Y-24900000D02*
X56450000Y-25900000D01*
X65300000Y-17750000D02*
X64300000Y-17750000D01*
X64300000Y-16050000D02*
X65300000Y-16050000D01*
X56650000Y-25900000D02*
X56650000Y-24900000D01*
X58350000Y-24900000D02*
X58350000Y-25900000D01*
X60200000Y-31500000D02*
X58800000Y-31500000D01*
X58800000Y-31500000D02*
X58800000Y-28700000D01*
X60200000Y-31500000D02*
X60200000Y-28700000D01*
D10*
X58625000Y-24800000D02*
X58625000Y-26000000D01*
X60375000Y-26000000D02*
X60375000Y-24800000D01*
X44450000Y-26475000D02*
X45650000Y-26475000D01*
X45650000Y-24725000D02*
X44450000Y-24725000D01*
X69442857Y-17057143D02*
X69490476Y-17104762D01*
X69633333Y-17152381D01*
X69728571Y-17152381D01*
X69871429Y-17104762D01*
X69966667Y-17009524D01*
X70014286Y-16914286D01*
X70061905Y-16723810D01*
X70061905Y-16580952D01*
X70014286Y-16390476D01*
X69966667Y-16295238D01*
X69871429Y-16200000D01*
X69728571Y-16152381D01*
X69633333Y-16152381D01*
X69490476Y-16200000D01*
X69442857Y-16247619D01*
X68490476Y-17152381D02*
X69061905Y-17152381D01*
X68776191Y-17152381D02*
X68776191Y-16152381D01*
X68871429Y-16295238D01*
X68966667Y-16390476D01*
X69061905Y-16438095D01*
X67633333Y-16152381D02*
X67823810Y-16152381D01*
X67919048Y-16200000D01*
X67966667Y-16247619D01*
X68061905Y-16390476D01*
X68109524Y-16580952D01*
X68109524Y-16961905D01*
X68061905Y-17057143D01*
X68014286Y-17104762D01*
X67919048Y-17152381D01*
X67728571Y-17152381D01*
X67633333Y-17104762D01*
X67585714Y-17057143D01*
X67538095Y-16961905D01*
X67538095Y-16723810D01*
X67585714Y-16628571D01*
X67633333Y-16580952D01*
X67728571Y-16533333D01*
X67919048Y-16533333D01*
X68014286Y-16580952D01*
X68061905Y-16628571D01*
X68109524Y-16723810D01*
X76360952Y-15281429D02*
X75599047Y-15281429D01*
X75979999Y-15662381D02*
X75979999Y-14900476D01*
X72142857Y-59107143D02*
X72190476Y-59154762D01*
X72333333Y-59202381D01*
X72428571Y-59202381D01*
X72571429Y-59154762D01*
X72666667Y-59059524D01*
X72714286Y-58964286D01*
X72761905Y-58773810D01*
X72761905Y-58630952D01*
X72714286Y-58440476D01*
X72666667Y-58345238D01*
X72571429Y-58250000D01*
X72428571Y-58202381D01*
X72333333Y-58202381D01*
X72190476Y-58250000D01*
X72142857Y-58297619D01*
X71190476Y-59202381D02*
X71761905Y-59202381D01*
X71476191Y-59202381D02*
X71476191Y-58202381D01*
X71571429Y-58345238D01*
X71666667Y-58440476D01*
X71761905Y-58488095D01*
X70285714Y-58202381D02*
X70761905Y-58202381D01*
X70809524Y-58678571D01*
X70761905Y-58630952D01*
X70666667Y-58583333D01*
X70428571Y-58583333D01*
X70333333Y-58630952D01*
X70285714Y-58678571D01*
X70238095Y-58773810D01*
X70238095Y-59011905D01*
X70285714Y-59107143D01*
X70333333Y-59154762D01*
X70428571Y-59202381D01*
X70666667Y-59202381D01*
X70761905Y-59154762D01*
X70809524Y-59107143D01*
X70063095Y-48887381D02*
X70063095Y-47887381D01*
X69825000Y-47887381D01*
X69682142Y-47935000D01*
X69586904Y-48030238D01*
X69539285Y-48125476D01*
X69491666Y-48315952D01*
X69491666Y-48458810D01*
X69539285Y-48649286D01*
X69586904Y-48744524D01*
X69682142Y-48839762D01*
X69825000Y-48887381D01*
X70063095Y-48887381D01*
X68539285Y-48887381D02*
X69110714Y-48887381D01*
X68825000Y-48887381D02*
X68825000Y-47887381D01*
X68920238Y-48030238D01*
X69015476Y-48125476D01*
X69110714Y-48173095D01*
X64707143Y-32013334D02*
X64754762Y-31965715D01*
X64802381Y-31822858D01*
X64802381Y-31727620D01*
X64754762Y-31584762D01*
X64659524Y-31489524D01*
X64564286Y-31441905D01*
X64373810Y-31394286D01*
X64230952Y-31394286D01*
X64040476Y-31441905D01*
X63945238Y-31489524D01*
X63850000Y-31584762D01*
X63802381Y-31727620D01*
X63802381Y-31822858D01*
X63850000Y-31965715D01*
X63897619Y-32013334D01*
X64802381Y-32965715D02*
X64802381Y-32394286D01*
X64802381Y-32680000D02*
X63802381Y-32680000D01*
X63945238Y-32584762D01*
X64040476Y-32489524D01*
X64088095Y-32394286D01*
X2642857Y-39857143D02*
X2690476Y-39904762D01*
X2833333Y-39952381D01*
X2928571Y-39952381D01*
X3071429Y-39904762D01*
X3166667Y-39809524D01*
X3214286Y-39714286D01*
X3261905Y-39523810D01*
X3261905Y-39380952D01*
X3214286Y-39190476D01*
X3166667Y-39095238D01*
X3071429Y-39000000D01*
X2928571Y-38952381D01*
X2833333Y-38952381D01*
X2690476Y-39000000D01*
X2642857Y-39047619D01*
X2309524Y-38952381D02*
X1690476Y-38952381D01*
X2023810Y-39333333D01*
X1880952Y-39333333D01*
X1785714Y-39380952D01*
X1738095Y-39428571D01*
X1690476Y-39523810D01*
X1690476Y-39761905D01*
X1738095Y-39857143D01*
X1785714Y-39904762D01*
X1880952Y-39952381D01*
X2166667Y-39952381D01*
X2261905Y-39904762D01*
X2309524Y-39857143D01*
X1071429Y-38952381D02*
X976190Y-38952381D01*
X880952Y-39000000D01*
X833333Y-39047619D01*
X785714Y-39142857D01*
X738095Y-39333333D01*
X738095Y-39571429D01*
X785714Y-39761905D01*
X833333Y-39857143D01*
X880952Y-39904762D01*
X976190Y-39952381D01*
X1071429Y-39952381D01*
X1166667Y-39904762D01*
X1214286Y-39857143D01*
X1261905Y-39761905D01*
X1309524Y-39571429D01*
X1309524Y-39333333D01*
X1261905Y-39142857D01*
X1214286Y-39047619D01*
X1166667Y-39000000D01*
X1071429Y-38952381D01*
X76166666Y-29607143D02*
X76214285Y-29654762D01*
X76357142Y-29702381D01*
X76452380Y-29702381D01*
X76595238Y-29654762D01*
X76690476Y-29559524D01*
X76738095Y-29464286D01*
X76785714Y-29273810D01*
X76785714Y-29130952D01*
X76738095Y-28940476D01*
X76690476Y-28845238D01*
X76595238Y-28750000D01*
X76452380Y-28702381D01*
X76357142Y-28702381D01*
X76214285Y-28750000D01*
X76166666Y-28797619D01*
X75309523Y-29035714D02*
X75309523Y-29702381D01*
X75547619Y-28654762D02*
X75785714Y-29369048D01*
X75166666Y-29369048D01*
X37607143Y-10833334D02*
X37654762Y-10785715D01*
X37702381Y-10642858D01*
X37702381Y-10547620D01*
X37654762Y-10404762D01*
X37559524Y-10309524D01*
X37464286Y-10261905D01*
X37273810Y-10214286D01*
X37130952Y-10214286D01*
X36940476Y-10261905D01*
X36845238Y-10309524D01*
X36750000Y-10404762D01*
X36702381Y-10547620D01*
X36702381Y-10642858D01*
X36750000Y-10785715D01*
X36797619Y-10833334D01*
X36702381Y-11690477D02*
X36702381Y-11500000D01*
X36750000Y-11404762D01*
X36797619Y-11357143D01*
X36940476Y-11261905D01*
X37130952Y-11214286D01*
X37511905Y-11214286D01*
X37607143Y-11261905D01*
X37654762Y-11309524D01*
X37702381Y-11404762D01*
X37702381Y-11595239D01*
X37654762Y-11690477D01*
X37607143Y-11738096D01*
X37511905Y-11785715D01*
X37273810Y-11785715D01*
X37178571Y-11738096D01*
X37130952Y-11690477D01*
X37083333Y-11595239D01*
X37083333Y-11404762D01*
X37130952Y-11309524D01*
X37178571Y-11261905D01*
X37273810Y-11214286D01*
X66666666Y-6757143D02*
X66714285Y-6804762D01*
X66857142Y-6852381D01*
X66952380Y-6852381D01*
X67095238Y-6804762D01*
X67190476Y-6709524D01*
X67238095Y-6614286D01*
X67285714Y-6423810D01*
X67285714Y-6280952D01*
X67238095Y-6090476D01*
X67190476Y-5995238D01*
X67095238Y-5900000D01*
X66952380Y-5852381D01*
X66857142Y-5852381D01*
X66714285Y-5900000D01*
X66666666Y-5947619D01*
X66333333Y-5852381D02*
X65666666Y-5852381D01*
X66095238Y-6852381D01*
X10302381Y-27761905D02*
X9302381Y-27761905D01*
X9302381Y-28000000D01*
X9350000Y-28142858D01*
X9445238Y-28238096D01*
X9540476Y-28285715D01*
X9730952Y-28333334D01*
X9873810Y-28333334D01*
X10064286Y-28285715D01*
X10159524Y-28238096D01*
X10254762Y-28142858D01*
X10302381Y-28000000D01*
X10302381Y-27761905D01*
X9397619Y-28714286D02*
X9350000Y-28761905D01*
X9302381Y-28857143D01*
X9302381Y-29095239D01*
X9350000Y-29190477D01*
X9397619Y-29238096D01*
X9492857Y-29285715D01*
X9588095Y-29285715D01*
X9730952Y-29238096D01*
X10302381Y-28666667D01*
X10302381Y-29285715D01*
D12*
X7276190Y-50430953D02*
X6776190Y-50430953D01*
X6776190Y-50550000D01*
X6800000Y-50621429D01*
X6847619Y-50669048D01*
X6895238Y-50692857D01*
X6990476Y-50716667D01*
X7061905Y-50716667D01*
X7157143Y-50692857D01*
X7204762Y-50669048D01*
X7252381Y-50621429D01*
X7276190Y-50550000D01*
X7276190Y-50430953D01*
X6776190Y-50883334D02*
X6776190Y-51192857D01*
X6966667Y-51026191D01*
X6966667Y-51097619D01*
X6990476Y-51145238D01*
X7014286Y-51169048D01*
X7061905Y-51192857D01*
X7180952Y-51192857D01*
X7228571Y-51169048D01*
X7252381Y-51145238D01*
X7276190Y-51097619D01*
X7276190Y-50954762D01*
X7252381Y-50907143D01*
X7228571Y-50883334D01*
D10*
X55438095Y-1552381D02*
X55438095Y-552381D01*
X55200000Y-552381D01*
X55057142Y-600000D01*
X54961904Y-695238D01*
X54914285Y-790476D01*
X54866666Y-980952D01*
X54866666Y-1123810D01*
X54914285Y-1314286D01*
X54961904Y-1409524D01*
X55057142Y-1504762D01*
X55200000Y-1552381D01*
X55438095Y-1552381D01*
X54009523Y-885714D02*
X54009523Y-1552381D01*
X54247619Y-504762D02*
X54485714Y-1219048D01*
X53866666Y-1219048D01*
X68988095Y-50952381D02*
X68988095Y-49952381D01*
X68750000Y-49952381D01*
X68607142Y-50000000D01*
X68511904Y-50095238D01*
X68464285Y-50190476D01*
X68416666Y-50380952D01*
X68416666Y-50523810D01*
X68464285Y-50714286D01*
X68511904Y-50809524D01*
X68607142Y-50904762D01*
X68750000Y-50952381D01*
X68988095Y-50952381D01*
X67511904Y-49952381D02*
X67988095Y-49952381D01*
X68035714Y-50428571D01*
X67988095Y-50380952D01*
X67892857Y-50333333D01*
X67654761Y-50333333D01*
X67559523Y-50380952D01*
X67511904Y-50428571D01*
X67464285Y-50523810D01*
X67464285Y-50761905D01*
X67511904Y-50857143D01*
X67559523Y-50904762D01*
X67654761Y-50952381D01*
X67892857Y-50952381D01*
X67988095Y-50904762D01*
X68035714Y-50857143D01*
X37738095Y-1352381D02*
X37738095Y-352381D01*
X37500000Y-352381D01*
X37357142Y-400000D01*
X37261904Y-495238D01*
X37214285Y-590476D01*
X37166666Y-780952D01*
X37166666Y-923810D01*
X37214285Y-1114286D01*
X37261904Y-1209524D01*
X37357142Y-1304762D01*
X37500000Y-1352381D01*
X37738095Y-1352381D01*
X36309523Y-352381D02*
X36500000Y-352381D01*
X36595238Y-400000D01*
X36642857Y-447619D01*
X36738095Y-590476D01*
X36785714Y-780952D01*
X36785714Y-1161905D01*
X36738095Y-1257143D01*
X36690476Y-1304762D01*
X36595238Y-1352381D01*
X36404761Y-1352381D01*
X36309523Y-1304762D01*
X36261904Y-1257143D01*
X36214285Y-1161905D01*
X36214285Y-923810D01*
X36261904Y-828571D01*
X36309523Y-780952D01*
X36404761Y-733333D01*
X36595238Y-733333D01*
X36690476Y-780952D01*
X36738095Y-828571D01*
X36785714Y-923810D01*
X32802381Y-25761905D02*
X31802381Y-25761905D01*
X31802381Y-26142858D01*
X31850000Y-26238096D01*
X31897619Y-26285715D01*
X31992857Y-26333334D01*
X32135714Y-26333334D01*
X32230952Y-26285715D01*
X32278571Y-26238096D01*
X32326190Y-26142858D01*
X32326190Y-25761905D01*
X32802381Y-27285715D02*
X32802381Y-26714286D01*
X32802381Y-27000000D02*
X31802381Y-27000000D01*
X31945238Y-26904762D01*
X32040476Y-26809524D01*
X32088095Y-26714286D01*
X4895238Y-35347619D02*
X4990476Y-35300000D01*
X5085714Y-35204762D01*
X5228571Y-35061905D01*
X5323810Y-35014286D01*
X5419048Y-35014286D01*
X5371429Y-35252381D02*
X5466667Y-35204762D01*
X5561905Y-35109524D01*
X5609524Y-34919048D01*
X5609524Y-34585714D01*
X5561905Y-34395238D01*
X5466667Y-34300000D01*
X5371429Y-34252381D01*
X5180952Y-34252381D01*
X5085714Y-34300000D01*
X4990476Y-34395238D01*
X4942857Y-34585714D01*
X4942857Y-34919048D01*
X4990476Y-35109524D01*
X5085714Y-35204762D01*
X5180952Y-35252381D01*
X5371429Y-35252381D01*
X3990476Y-35252381D02*
X4561905Y-35252381D01*
X4276191Y-35252381D02*
X4276191Y-34252381D01*
X4371429Y-34395238D01*
X4466667Y-34490476D01*
X4561905Y-34538095D01*
X13647619Y-50104762D02*
X13600000Y-50009524D01*
X13504762Y-49914286D01*
X13361905Y-49771429D01*
X13314286Y-49676190D01*
X13314286Y-49580952D01*
X13552381Y-49628571D02*
X13504762Y-49533333D01*
X13409524Y-49438095D01*
X13219048Y-49390476D01*
X12885714Y-49390476D01*
X12695238Y-49438095D01*
X12600000Y-49533333D01*
X12552381Y-49628571D01*
X12552381Y-49819048D01*
X12600000Y-49914286D01*
X12695238Y-50009524D01*
X12885714Y-50057143D01*
X13219048Y-50057143D01*
X13409524Y-50009524D01*
X13504762Y-49914286D01*
X13552381Y-49819048D01*
X13552381Y-49628571D01*
X12647619Y-50438095D02*
X12600000Y-50485714D01*
X12552381Y-50580952D01*
X12552381Y-50819048D01*
X12600000Y-50914286D01*
X12647619Y-50961905D01*
X12742857Y-51009524D01*
X12838095Y-51009524D01*
X12980952Y-50961905D01*
X13552381Y-50390476D01*
X13552381Y-51009524D01*
D12*
X9326190Y-36819048D02*
X9730952Y-36819048D01*
X9778571Y-36842857D01*
X9802381Y-36866667D01*
X9826190Y-36914286D01*
X9826190Y-37009524D01*
X9802381Y-37057143D01*
X9778571Y-37080952D01*
X9730952Y-37104762D01*
X9326190Y-37104762D01*
X9326190Y-37557143D02*
X9326190Y-37461905D01*
X9350000Y-37414286D01*
X9373810Y-37390477D01*
X9445238Y-37342858D01*
X9540476Y-37319048D01*
X9730952Y-37319048D01*
X9778571Y-37342858D01*
X9802381Y-37366667D01*
X9826190Y-37414286D01*
X9826190Y-37509524D01*
X9802381Y-37557143D01*
X9778571Y-37580953D01*
X9730952Y-37604762D01*
X9611905Y-37604762D01*
X9564286Y-37580953D01*
X9540476Y-37557143D01*
X9516667Y-37509524D01*
X9516667Y-37414286D01*
X9540476Y-37366667D01*
X9564286Y-37342858D01*
X9611905Y-37319048D01*
D10*
X12236905Y-43402381D02*
X12236905Y-44211905D01*
X12189286Y-44307143D01*
X12141667Y-44354762D01*
X12046429Y-44402381D01*
X11855952Y-44402381D01*
X11760714Y-44354762D01*
X11713095Y-44307143D01*
X11665476Y-44211905D01*
X11665476Y-43402381D01*
X11284524Y-43402381D02*
X10617857Y-43402381D01*
X11046429Y-44402381D01*
X19952381Y-45738095D02*
X20761905Y-45738095D01*
X20857143Y-45785714D01*
X20904762Y-45833333D01*
X20952381Y-45928571D01*
X20952381Y-46119048D01*
X20904762Y-46214286D01*
X20857143Y-46261905D01*
X20761905Y-46309524D01*
X19952381Y-46309524D01*
X20380952Y-46928571D02*
X20333333Y-46833333D01*
X20285714Y-46785714D01*
X20190476Y-46738095D01*
X20142857Y-46738095D01*
X20047619Y-46785714D01*
X20000000Y-46833333D01*
X19952381Y-46928571D01*
X19952381Y-47119048D01*
X20000000Y-47214286D01*
X20047619Y-47261905D01*
X20142857Y-47309524D01*
X20190476Y-47309524D01*
X20285714Y-47261905D01*
X20333333Y-47214286D01*
X20380952Y-47119048D01*
X20380952Y-46928571D01*
X20428571Y-46833333D01*
X20476190Y-46785714D01*
X20571429Y-46738095D01*
X20761905Y-46738095D01*
X20857143Y-46785714D01*
X20904762Y-46833333D01*
X20952381Y-46928571D01*
X20952381Y-47119048D01*
X20904762Y-47214286D01*
X20857143Y-47261905D01*
X20761905Y-47309524D01*
X20571429Y-47309524D01*
X20476190Y-47261905D01*
X20428571Y-47214286D01*
X20380952Y-47119048D01*
X12552381Y-45738095D02*
X13361905Y-45738095D01*
X13457143Y-45785714D01*
X13504762Y-45833333D01*
X13552381Y-45928571D01*
X13552381Y-46119048D01*
X13504762Y-46214286D01*
X13457143Y-46261905D01*
X13361905Y-46309524D01*
X12552381Y-46309524D01*
X13552381Y-46833333D02*
X13552381Y-47023809D01*
X13504762Y-47119048D01*
X13457143Y-47166667D01*
X13314286Y-47261905D01*
X13123810Y-47309524D01*
X12742857Y-47309524D01*
X12647619Y-47261905D01*
X12600000Y-47214286D01*
X12552381Y-47119048D01*
X12552381Y-46928571D01*
X12600000Y-46833333D01*
X12647619Y-46785714D01*
X12742857Y-46738095D01*
X12980952Y-46738095D01*
X13076190Y-46785714D01*
X13123810Y-46833333D01*
X13171429Y-46928571D01*
X13171429Y-47119048D01*
X13123810Y-47214286D01*
X13076190Y-47261905D01*
X12980952Y-47309524D01*
D12*
X39869047Y-29726190D02*
X39869047Y-30130952D01*
X39845238Y-30178571D01*
X39821428Y-30202381D01*
X39773809Y-30226190D01*
X39678571Y-30226190D01*
X39630952Y-30202381D01*
X39607143Y-30178571D01*
X39583333Y-30130952D01*
X39583333Y-29726190D01*
X39083333Y-30226190D02*
X39369047Y-30226190D01*
X39226190Y-30226190D02*
X39226190Y-29726190D01*
X39273809Y-29797619D01*
X39321428Y-29845238D01*
X39369047Y-29869048D01*
X38892857Y-29773810D02*
X38869047Y-29750000D01*
X38821428Y-29726190D01*
X38702381Y-29726190D01*
X38654762Y-29750000D01*
X38630952Y-29773810D01*
X38607143Y-29821429D01*
X38607143Y-29869048D01*
X38630952Y-29940476D01*
X38916666Y-30226190D01*
X38607143Y-30226190D01*
X38469047Y-48026190D02*
X38469047Y-48430952D01*
X38445238Y-48478571D01*
X38421428Y-48502381D01*
X38373809Y-48526190D01*
X38278571Y-48526190D01*
X38230952Y-48502381D01*
X38207143Y-48478571D01*
X38183333Y-48430952D01*
X38183333Y-48026190D01*
X37683333Y-48526190D02*
X37969047Y-48526190D01*
X37826190Y-48526190D02*
X37826190Y-48026190D01*
X37873809Y-48097619D01*
X37921428Y-48145238D01*
X37969047Y-48169048D01*
X37516666Y-48026190D02*
X37207143Y-48026190D01*
X37373809Y-48216667D01*
X37302381Y-48216667D01*
X37254762Y-48240476D01*
X37230952Y-48264286D01*
X37207143Y-48311905D01*
X37207143Y-48430952D01*
X37230952Y-48478571D01*
X37254762Y-48502381D01*
X37302381Y-48526190D01*
X37445238Y-48526190D01*
X37492857Y-48502381D01*
X37516666Y-48478571D01*
D10*
X63738095Y-50952381D02*
X63738095Y-49952381D01*
X63500000Y-49952381D01*
X63357142Y-50000000D01*
X63261904Y-50095238D01*
X63214285Y-50190476D01*
X63166666Y-50380952D01*
X63166666Y-50523810D01*
X63214285Y-50714286D01*
X63261904Y-50809524D01*
X63357142Y-50904762D01*
X63500000Y-50952381D01*
X63738095Y-50952381D01*
X62833333Y-49952381D02*
X62166666Y-49952381D01*
X62595238Y-50952381D01*
X54513095Y-39852381D02*
X54513095Y-40661905D01*
X54465476Y-40757143D01*
X54417857Y-40804762D01*
X54322619Y-40852381D01*
X54132142Y-40852381D01*
X54036904Y-40804762D01*
X53989285Y-40757143D01*
X53941666Y-40661905D01*
X53941666Y-39852381D01*
X52941666Y-40852381D02*
X53513095Y-40852381D01*
X53227381Y-40852381D02*
X53227381Y-39852381D01*
X53322619Y-39995238D01*
X53417857Y-40090476D01*
X53513095Y-40138095D01*
X51989285Y-40852381D02*
X52560714Y-40852381D01*
X52275000Y-40852381D02*
X52275000Y-39852381D01*
X52370238Y-39995238D01*
X52465476Y-40090476D01*
X52560714Y-40138095D01*
X12113095Y-51652381D02*
X12113095Y-50652381D01*
X11875000Y-50652381D01*
X11732142Y-50700000D01*
X11636904Y-50795238D01*
X11589285Y-50890476D01*
X11541666Y-51080952D01*
X11541666Y-51223810D01*
X11589285Y-51414286D01*
X11636904Y-51509524D01*
X11732142Y-51604762D01*
X11875000Y-51652381D01*
X12113095Y-51652381D01*
X10970238Y-51080952D02*
X11065476Y-51033333D01*
X11113095Y-50985714D01*
X11160714Y-50890476D01*
X11160714Y-50842857D01*
X11113095Y-50747619D01*
X11065476Y-50700000D01*
X10970238Y-50652381D01*
X10779761Y-50652381D01*
X10684523Y-50700000D01*
X10636904Y-50747619D01*
X10589285Y-50842857D01*
X10589285Y-50890476D01*
X10636904Y-50985714D01*
X10684523Y-51033333D01*
X10779761Y-51080952D01*
X10970238Y-51080952D01*
X11065476Y-51128571D01*
X11113095Y-51176190D01*
X11160714Y-51271429D01*
X11160714Y-51461905D01*
X11113095Y-51557143D01*
X11065476Y-51604762D01*
X10970238Y-51652381D01*
X10779761Y-51652381D01*
X10684523Y-51604762D01*
X10636904Y-51557143D01*
X10589285Y-51461905D01*
X10589285Y-51271429D01*
X10636904Y-51176190D01*
X10684523Y-51128571D01*
X10779761Y-51080952D01*
X28838095Y-56577381D02*
X28838095Y-55577381D01*
X28600000Y-55577381D01*
X28457142Y-55625000D01*
X28361904Y-55720238D01*
X28314285Y-55815476D01*
X28266666Y-56005952D01*
X28266666Y-56148810D01*
X28314285Y-56339286D01*
X28361904Y-56434524D01*
X28457142Y-56529762D01*
X28600000Y-56577381D01*
X28838095Y-56577381D01*
X27790476Y-56577381D02*
X27600000Y-56577381D01*
X27504761Y-56529762D01*
X27457142Y-56482143D01*
X27361904Y-56339286D01*
X27314285Y-56148810D01*
X27314285Y-55767857D01*
X27361904Y-55672619D01*
X27409523Y-55625000D01*
X27504761Y-55577381D01*
X27695238Y-55577381D01*
X27790476Y-55625000D01*
X27838095Y-55672619D01*
X27885714Y-55767857D01*
X27885714Y-56005952D01*
X27838095Y-56101190D01*
X27790476Y-56148810D01*
X27695238Y-56196429D01*
X27504761Y-56196429D01*
X27409523Y-56148810D01*
X27361904Y-56101190D01*
X27314285Y-56005952D01*
X20814286Y-52002381D02*
X20814286Y-51002381D01*
X20576191Y-51002381D01*
X20433333Y-51050000D01*
X20338095Y-51145238D01*
X20290476Y-51240476D01*
X20242857Y-51430952D01*
X20242857Y-51573810D01*
X20290476Y-51764286D01*
X20338095Y-51859524D01*
X20433333Y-51954762D01*
X20576191Y-52002381D01*
X20814286Y-52002381D01*
X19290476Y-52002381D02*
X19861905Y-52002381D01*
X19576191Y-52002381D02*
X19576191Y-51002381D01*
X19671429Y-51145238D01*
X19766667Y-51240476D01*
X19861905Y-51288095D01*
X18338095Y-52002381D02*
X18909524Y-52002381D01*
X18623810Y-52002381D02*
X18623810Y-51002381D01*
X18719048Y-51145238D01*
X18814286Y-51240476D01*
X18909524Y-51288095D01*
X1495238Y-62947619D02*
X1590476Y-62900000D01*
X1685714Y-62804762D01*
X1828571Y-62661905D01*
X1923810Y-62614286D01*
X2019048Y-62614286D01*
X1971429Y-62852381D02*
X2066667Y-62804762D01*
X2161905Y-62709524D01*
X2209524Y-62519048D01*
X2209524Y-62185714D01*
X2161905Y-61995238D01*
X2066667Y-61900000D01*
X1971429Y-61852381D01*
X1780952Y-61852381D01*
X1685714Y-61900000D01*
X1590476Y-61995238D01*
X1542857Y-62185714D01*
X1542857Y-62519048D01*
X1590476Y-62709524D01*
X1685714Y-62804762D01*
X1780952Y-62852381D01*
X1971429Y-62852381D01*
X638095Y-61852381D02*
X1114286Y-61852381D01*
X1161905Y-62328571D01*
X1114286Y-62280952D01*
X1019048Y-62233333D01*
X780952Y-62233333D01*
X685714Y-62280952D01*
X638095Y-62328571D01*
X590476Y-62423810D01*
X590476Y-62661905D01*
X638095Y-62757143D01*
X685714Y-62804762D01*
X780952Y-62852381D01*
X1019048Y-62852381D01*
X1114286Y-62804762D01*
X1161905Y-62757143D01*
X36657143Y-6807143D02*
X36704762Y-6759524D01*
X36752381Y-6616667D01*
X36752381Y-6521429D01*
X36704762Y-6378571D01*
X36609524Y-6283333D01*
X36514286Y-6235714D01*
X36323810Y-6188095D01*
X36180952Y-6188095D01*
X35990476Y-6235714D01*
X35895238Y-6283333D01*
X35800000Y-6378571D01*
X35752381Y-6521429D01*
X35752381Y-6616667D01*
X35800000Y-6759524D01*
X35847619Y-6807143D01*
X35752381Y-7140476D02*
X35752381Y-7759524D01*
X36133333Y-7426190D01*
X36133333Y-7569048D01*
X36180952Y-7664286D01*
X36228571Y-7711905D01*
X36323810Y-7759524D01*
X36561905Y-7759524D01*
X36657143Y-7711905D01*
X36704762Y-7664286D01*
X36752381Y-7569048D01*
X36752381Y-7283333D01*
X36704762Y-7188095D01*
X36657143Y-7140476D01*
X35752381Y-8092857D02*
X35752381Y-8759524D01*
X36752381Y-8330952D01*
X43482143Y-14882143D02*
X43529762Y-14834524D01*
X43577381Y-14691667D01*
X43577381Y-14596429D01*
X43529762Y-14453571D01*
X43434524Y-14358333D01*
X43339286Y-14310714D01*
X43148810Y-14263095D01*
X43005952Y-14263095D01*
X42815476Y-14310714D01*
X42720238Y-14358333D01*
X42625000Y-14453571D01*
X42577381Y-14596429D01*
X42577381Y-14691667D01*
X42625000Y-14834524D01*
X42672619Y-14882143D01*
X42577381Y-15215476D02*
X42577381Y-15834524D01*
X42958333Y-15501190D01*
X42958333Y-15644048D01*
X43005952Y-15739286D01*
X43053571Y-15786905D01*
X43148810Y-15834524D01*
X43386905Y-15834524D01*
X43482143Y-15786905D01*
X43529762Y-15739286D01*
X43577381Y-15644048D01*
X43577381Y-15358333D01*
X43529762Y-15263095D01*
X43482143Y-15215476D01*
X43005952Y-16405952D02*
X42958333Y-16310714D01*
X42910714Y-16263095D01*
X42815476Y-16215476D01*
X42767857Y-16215476D01*
X42672619Y-16263095D01*
X42625000Y-16310714D01*
X42577381Y-16405952D01*
X42577381Y-16596429D01*
X42625000Y-16691667D01*
X42672619Y-16739286D01*
X42767857Y-16786905D01*
X42815476Y-16786905D01*
X42910714Y-16739286D01*
X42958333Y-16691667D01*
X43005952Y-16596429D01*
X43005952Y-16405952D01*
X43053571Y-16310714D01*
X43101190Y-16263095D01*
X43196429Y-16215476D01*
X43386905Y-16215476D01*
X43482143Y-16263095D01*
X43529762Y-16310714D01*
X43577381Y-16405952D01*
X43577381Y-16596429D01*
X43529762Y-16691667D01*
X43482143Y-16739286D01*
X43386905Y-16786905D01*
X43196429Y-16786905D01*
X43101190Y-16739286D01*
X43053571Y-16691667D01*
X43005952Y-16596429D01*
X44361429Y-21299048D02*
X44361429Y-22060953D01*
X44742381Y-21680001D02*
X43980476Y-21680001D01*
X62892857Y-10107143D02*
X62940476Y-10154762D01*
X63083333Y-10202381D01*
X63178571Y-10202381D01*
X63321429Y-10154762D01*
X63416667Y-10059524D01*
X63464286Y-9964286D01*
X63511905Y-9773810D01*
X63511905Y-9630952D01*
X63464286Y-9440476D01*
X63416667Y-9345238D01*
X63321429Y-9250000D01*
X63178571Y-9202381D01*
X63083333Y-9202381D01*
X62940476Y-9250000D01*
X62892857Y-9297619D01*
X62035714Y-9535714D02*
X62035714Y-10202381D01*
X62273810Y-9154762D02*
X62511905Y-9869048D01*
X61892857Y-9869048D01*
X61321429Y-9202381D02*
X61226190Y-9202381D01*
X61130952Y-9250000D01*
X61083333Y-9297619D01*
X61035714Y-9392857D01*
X60988095Y-9583333D01*
X60988095Y-9821429D01*
X61035714Y-10011905D01*
X61083333Y-10107143D01*
X61130952Y-10154762D01*
X61226190Y-10202381D01*
X61321429Y-10202381D01*
X61416667Y-10154762D01*
X61464286Y-10107143D01*
X61511905Y-10011905D01*
X61559524Y-9821429D01*
X61559524Y-9583333D01*
X61511905Y-9392857D01*
X61464286Y-9297619D01*
X61416667Y-9250000D01*
X61321429Y-9202381D01*
X29292857Y-17007143D02*
X29340476Y-17054762D01*
X29483333Y-17102381D01*
X29578571Y-17102381D01*
X29721429Y-17054762D01*
X29816667Y-16959524D01*
X29864286Y-16864286D01*
X29911905Y-16673810D01*
X29911905Y-16530952D01*
X29864286Y-16340476D01*
X29816667Y-16245238D01*
X29721429Y-16150000D01*
X29578571Y-16102381D01*
X29483333Y-16102381D01*
X29340476Y-16150000D01*
X29292857Y-16197619D01*
X28435714Y-16435714D02*
X28435714Y-17102381D01*
X28673810Y-16054762D02*
X28911905Y-16769048D01*
X28292857Y-16769048D01*
X27959524Y-16197619D02*
X27911905Y-16150000D01*
X27816667Y-16102381D01*
X27578571Y-16102381D01*
X27483333Y-16150000D01*
X27435714Y-16197619D01*
X27388095Y-16292857D01*
X27388095Y-16388095D01*
X27435714Y-16530952D01*
X28007143Y-17102381D01*
X27388095Y-17102381D01*
X17442857Y-17232143D02*
X17490476Y-17279762D01*
X17633333Y-17327381D01*
X17728571Y-17327381D01*
X17871429Y-17279762D01*
X17966667Y-17184524D01*
X18014286Y-17089286D01*
X18061905Y-16898810D01*
X18061905Y-16755952D01*
X18014286Y-16565476D01*
X17966667Y-16470238D01*
X17871429Y-16375000D01*
X17728571Y-16327381D01*
X17633333Y-16327381D01*
X17490476Y-16375000D01*
X17442857Y-16422619D01*
X16585714Y-16660714D02*
X16585714Y-17327381D01*
X16823810Y-16279762D02*
X17061905Y-16994048D01*
X16442857Y-16994048D01*
X16157143Y-16327381D02*
X15538095Y-16327381D01*
X15871429Y-16708333D01*
X15728571Y-16708333D01*
X15633333Y-16755952D01*
X15585714Y-16803571D01*
X15538095Y-16898810D01*
X15538095Y-17136905D01*
X15585714Y-17232143D01*
X15633333Y-17279762D01*
X15728571Y-17327381D01*
X16014286Y-17327381D01*
X16109524Y-17279762D01*
X16157143Y-17232143D01*
X29857143Y-19957143D02*
X29904762Y-19909524D01*
X29952381Y-19766667D01*
X29952381Y-19671429D01*
X29904762Y-19528571D01*
X29809524Y-19433333D01*
X29714286Y-19385714D01*
X29523810Y-19338095D01*
X29380952Y-19338095D01*
X29190476Y-19385714D01*
X29095238Y-19433333D01*
X29000000Y-19528571D01*
X28952381Y-19671429D01*
X28952381Y-19766667D01*
X29000000Y-19909524D01*
X29047619Y-19957143D01*
X29285714Y-20814286D02*
X29952381Y-20814286D01*
X28904762Y-20576190D02*
X29619048Y-20338095D01*
X29619048Y-20957143D01*
X29285714Y-21766667D02*
X29952381Y-21766667D01*
X28904762Y-21528571D02*
X29619048Y-21290476D01*
X29619048Y-21909524D01*
X17192857Y-23857143D02*
X17240476Y-23904762D01*
X17383333Y-23952381D01*
X17478571Y-23952381D01*
X17621429Y-23904762D01*
X17716667Y-23809524D01*
X17764286Y-23714286D01*
X17811905Y-23523810D01*
X17811905Y-23380952D01*
X17764286Y-23190476D01*
X17716667Y-23095238D01*
X17621429Y-23000000D01*
X17478571Y-22952381D01*
X17383333Y-22952381D01*
X17240476Y-23000000D01*
X17192857Y-23047619D01*
X16335714Y-23285714D02*
X16335714Y-23952381D01*
X16573810Y-22904762D02*
X16811905Y-23619048D01*
X16192857Y-23619048D01*
X15335714Y-22952381D02*
X15811905Y-22952381D01*
X15859524Y-23428571D01*
X15811905Y-23380952D01*
X15716667Y-23333333D01*
X15478571Y-23333333D01*
X15383333Y-23380952D01*
X15335714Y-23428571D01*
X15288095Y-23523810D01*
X15288095Y-23761905D01*
X15335714Y-23857143D01*
X15383333Y-23904762D01*
X15478571Y-23952381D01*
X15716667Y-23952381D01*
X15811905Y-23904762D01*
X15859524Y-23857143D01*
X17904286Y-18642381D02*
X17904286Y-17642381D01*
X17666191Y-17642381D01*
X17523333Y-17690000D01*
X17428095Y-17785238D01*
X17380476Y-17880476D01*
X17332857Y-18070952D01*
X17332857Y-18213810D01*
X17380476Y-18404286D01*
X17428095Y-18499524D01*
X17523333Y-18594762D01*
X17666191Y-18642381D01*
X17904286Y-18642381D01*
X16380476Y-18642381D02*
X16951905Y-18642381D01*
X16666191Y-18642381D02*
X16666191Y-17642381D01*
X16761429Y-17785238D01*
X16856667Y-17880476D01*
X16951905Y-17928095D01*
X15761429Y-17642381D02*
X15666190Y-17642381D01*
X15570952Y-17690000D01*
X15523333Y-17737619D01*
X15475714Y-17832857D01*
X15428095Y-18023333D01*
X15428095Y-18261429D01*
X15475714Y-18451905D01*
X15523333Y-18547143D01*
X15570952Y-18594762D01*
X15666190Y-18642381D01*
X15761429Y-18642381D01*
X15856667Y-18594762D01*
X15904286Y-18547143D01*
X15951905Y-18451905D01*
X15999524Y-18261429D01*
X15999524Y-18023333D01*
X15951905Y-17832857D01*
X15904286Y-17737619D01*
X15856667Y-17690000D01*
X15761429Y-17642381D01*
X58202381Y-14207143D02*
X57726190Y-13873809D01*
X58202381Y-13635714D02*
X57202381Y-13635714D01*
X57202381Y-14016667D01*
X57250000Y-14111905D01*
X57297619Y-14159524D01*
X57392857Y-14207143D01*
X57535714Y-14207143D01*
X57630952Y-14159524D01*
X57678571Y-14111905D01*
X57726190Y-14016667D01*
X57726190Y-13635714D01*
X58202381Y-15159524D02*
X58202381Y-14588095D01*
X58202381Y-14873809D02*
X57202381Y-14873809D01*
X57345238Y-14778571D01*
X57440476Y-14683333D01*
X57488095Y-14588095D01*
X57202381Y-15492857D02*
X57202381Y-16111905D01*
X57583333Y-15778571D01*
X57583333Y-15921429D01*
X57630952Y-16016667D01*
X57678571Y-16064286D01*
X57773810Y-16111905D01*
X58011905Y-16111905D01*
X58107143Y-16064286D01*
X58154762Y-16016667D01*
X58202381Y-15921429D01*
X58202381Y-15635714D01*
X58154762Y-15540476D01*
X58107143Y-15492857D01*
X77952381Y-39857143D02*
X77476190Y-39523809D01*
X77952381Y-39285714D02*
X76952381Y-39285714D01*
X76952381Y-39666667D01*
X77000000Y-39761905D01*
X77047619Y-39809524D01*
X77142857Y-39857143D01*
X77285714Y-39857143D01*
X77380952Y-39809524D01*
X77428571Y-39761905D01*
X77476190Y-39666667D01*
X77476190Y-39285714D01*
X77047619Y-40238095D02*
X77000000Y-40285714D01*
X76952381Y-40380952D01*
X76952381Y-40619048D01*
X77000000Y-40714286D01*
X77047619Y-40761905D01*
X77142857Y-40809524D01*
X77238095Y-40809524D01*
X77380952Y-40761905D01*
X77952381Y-40190476D01*
X77952381Y-40809524D01*
X77285714Y-41666667D02*
X77952381Y-41666667D01*
X76904762Y-41428571D02*
X77619048Y-41190476D01*
X77619048Y-41809524D01*
X77952381Y-43857143D02*
X77476190Y-43523809D01*
X77952381Y-43285714D02*
X76952381Y-43285714D01*
X76952381Y-43666667D01*
X77000000Y-43761905D01*
X77047619Y-43809524D01*
X77142857Y-43857143D01*
X77285714Y-43857143D01*
X77380952Y-43809524D01*
X77428571Y-43761905D01*
X77476190Y-43666667D01*
X77476190Y-43285714D01*
X77047619Y-44238095D02*
X77000000Y-44285714D01*
X76952381Y-44380952D01*
X76952381Y-44619048D01*
X77000000Y-44714286D01*
X77047619Y-44761905D01*
X77142857Y-44809524D01*
X77238095Y-44809524D01*
X77380952Y-44761905D01*
X77952381Y-44190476D01*
X77952381Y-44809524D01*
X76952381Y-45714286D02*
X76952381Y-45238095D01*
X77428571Y-45190476D01*
X77380952Y-45238095D01*
X77333333Y-45333333D01*
X77333333Y-45571429D01*
X77380952Y-45666667D01*
X77428571Y-45714286D01*
X77523810Y-45761905D01*
X77761905Y-45761905D01*
X77857143Y-45714286D01*
X77904762Y-45666667D01*
X77952381Y-45571429D01*
X77952381Y-45333333D01*
X77904762Y-45238095D01*
X77857143Y-45190476D01*
X56142857Y-5052381D02*
X56476191Y-4576190D01*
X56714286Y-5052381D02*
X56714286Y-4052381D01*
X56333333Y-4052381D01*
X56238095Y-4100000D01*
X56190476Y-4147619D01*
X56142857Y-4242857D01*
X56142857Y-4385714D01*
X56190476Y-4480952D01*
X56238095Y-4528571D01*
X56333333Y-4576190D01*
X56714286Y-4576190D01*
X55761905Y-4147619D02*
X55714286Y-4100000D01*
X55619048Y-4052381D01*
X55380952Y-4052381D01*
X55285714Y-4100000D01*
X55238095Y-4147619D01*
X55190476Y-4242857D01*
X55190476Y-4338095D01*
X55238095Y-4480952D01*
X55809524Y-5052381D01*
X55190476Y-5052381D01*
X54333333Y-4052381D02*
X54523810Y-4052381D01*
X54619048Y-4100000D01*
X54666667Y-4147619D01*
X54761905Y-4290476D01*
X54809524Y-4480952D01*
X54809524Y-4861905D01*
X54761905Y-4957143D01*
X54714286Y-5004762D01*
X54619048Y-5052381D01*
X54428571Y-5052381D01*
X54333333Y-5004762D01*
X54285714Y-4957143D01*
X54238095Y-4861905D01*
X54238095Y-4623810D01*
X54285714Y-4528571D01*
X54333333Y-4480952D01*
X54428571Y-4433333D01*
X54619048Y-4433333D01*
X54714286Y-4480952D01*
X54761905Y-4528571D01*
X54809524Y-4623810D01*
X43002381Y-5357143D02*
X42526190Y-5023809D01*
X43002381Y-4785714D02*
X42002381Y-4785714D01*
X42002381Y-5166667D01*
X42050000Y-5261905D01*
X42097619Y-5309524D01*
X42192857Y-5357143D01*
X42335714Y-5357143D01*
X42430952Y-5309524D01*
X42478571Y-5261905D01*
X42526190Y-5166667D01*
X42526190Y-4785714D01*
X42097619Y-5738095D02*
X42050000Y-5785714D01*
X42002381Y-5880952D01*
X42002381Y-6119048D01*
X42050000Y-6214286D01*
X42097619Y-6261905D01*
X42192857Y-6309524D01*
X42288095Y-6309524D01*
X42430952Y-6261905D01*
X43002381Y-5690476D01*
X43002381Y-6309524D01*
X42002381Y-6642857D02*
X42002381Y-7309524D01*
X43002381Y-6880952D01*
X77952381Y-36607143D02*
X77476190Y-36273809D01*
X77952381Y-36035714D02*
X76952381Y-36035714D01*
X76952381Y-36416667D01*
X77000000Y-36511905D01*
X77047619Y-36559524D01*
X77142857Y-36607143D01*
X77285714Y-36607143D01*
X77380952Y-36559524D01*
X77428571Y-36511905D01*
X77476190Y-36416667D01*
X77476190Y-36035714D01*
X77047619Y-36988095D02*
X77000000Y-37035714D01*
X76952381Y-37130952D01*
X76952381Y-37369048D01*
X77000000Y-37464286D01*
X77047619Y-37511905D01*
X77142857Y-37559524D01*
X77238095Y-37559524D01*
X77380952Y-37511905D01*
X77952381Y-36940476D01*
X77952381Y-37559524D01*
X77380952Y-38130952D02*
X77333333Y-38035714D01*
X77285714Y-37988095D01*
X77190476Y-37940476D01*
X77142857Y-37940476D01*
X77047619Y-37988095D01*
X77000000Y-38035714D01*
X76952381Y-38130952D01*
X76952381Y-38321429D01*
X77000000Y-38416667D01*
X77047619Y-38464286D01*
X77142857Y-38511905D01*
X77190476Y-38511905D01*
X77285714Y-38464286D01*
X77333333Y-38416667D01*
X77380952Y-38321429D01*
X77380952Y-38130952D01*
X77428571Y-38035714D01*
X77476190Y-37988095D01*
X77571429Y-37940476D01*
X77761905Y-37940476D01*
X77857143Y-37988095D01*
X77904762Y-38035714D01*
X77952381Y-38130952D01*
X77952381Y-38321429D01*
X77904762Y-38416667D01*
X77857143Y-38464286D01*
X77761905Y-38511905D01*
X77571429Y-38511905D01*
X77476190Y-38464286D01*
X77428571Y-38416667D01*
X77380952Y-38321429D01*
X45652381Y-6157143D02*
X45176190Y-5823809D01*
X45652381Y-5585714D02*
X44652381Y-5585714D01*
X44652381Y-5966667D01*
X44700000Y-6061905D01*
X44747619Y-6109524D01*
X44842857Y-6157143D01*
X44985714Y-6157143D01*
X45080952Y-6109524D01*
X45128571Y-6061905D01*
X45176190Y-5966667D01*
X45176190Y-5585714D01*
X44747619Y-6538095D02*
X44700000Y-6585714D01*
X44652381Y-6680952D01*
X44652381Y-6919048D01*
X44700000Y-7014286D01*
X44747619Y-7061905D01*
X44842857Y-7109524D01*
X44938095Y-7109524D01*
X45080952Y-7061905D01*
X45652381Y-6490476D01*
X45652381Y-7109524D01*
X45652381Y-7585714D02*
X45652381Y-7776190D01*
X45604762Y-7871429D01*
X45557143Y-7919048D01*
X45414286Y-8014286D01*
X45223810Y-8061905D01*
X44842857Y-8061905D01*
X44747619Y-8014286D01*
X44700000Y-7966667D01*
X44652381Y-7871429D01*
X44652381Y-7680952D01*
X44700000Y-7585714D01*
X44747619Y-7538095D01*
X44842857Y-7490476D01*
X45080952Y-7490476D01*
X45176190Y-7538095D01*
X45223810Y-7585714D01*
X45271429Y-7680952D01*
X45271429Y-7871429D01*
X45223810Y-7966667D01*
X45176190Y-8014286D01*
X45080952Y-8061905D01*
X24238095Y-16652381D02*
X24238095Y-17461905D01*
X24190476Y-17557143D01*
X24142857Y-17604762D01*
X24047619Y-17652381D01*
X23857142Y-17652381D01*
X23761904Y-17604762D01*
X23714285Y-17557143D01*
X23666666Y-17461905D01*
X23666666Y-16652381D01*
X22666666Y-17652381D02*
X23238095Y-17652381D01*
X22952381Y-17652381D02*
X22952381Y-16652381D01*
X23047619Y-16795238D01*
X23142857Y-16890476D01*
X23238095Y-16938095D01*
X21809523Y-16985714D02*
X21809523Y-17652381D01*
X22047619Y-16604762D02*
X22285714Y-17319048D01*
X21666666Y-17319048D01*
D12*
X51958333Y-12903571D02*
X51982143Y-12927381D01*
X52053571Y-12951190D01*
X52101190Y-12951190D01*
X52172619Y-12927381D01*
X52220238Y-12879762D01*
X52244047Y-12832143D01*
X52267857Y-12736905D01*
X52267857Y-12665476D01*
X52244047Y-12570238D01*
X52220238Y-12522619D01*
X52172619Y-12475000D01*
X52101190Y-12451190D01*
X52053571Y-12451190D01*
X51982143Y-12475000D01*
X51958333Y-12498810D01*
X51767857Y-12498810D02*
X51744047Y-12475000D01*
X51696428Y-12451190D01*
X51577381Y-12451190D01*
X51529762Y-12475000D01*
X51505952Y-12498810D01*
X51482143Y-12546429D01*
X51482143Y-12594048D01*
X51505952Y-12665476D01*
X51791666Y-12951190D01*
X51482143Y-12951190D01*
D10*
X68607143Y-38083334D02*
X68654762Y-38035715D01*
X68702381Y-37892858D01*
X68702381Y-37797620D01*
X68654762Y-37654762D01*
X68559524Y-37559524D01*
X68464286Y-37511905D01*
X68273810Y-37464286D01*
X68130952Y-37464286D01*
X67940476Y-37511905D01*
X67845238Y-37559524D01*
X67750000Y-37654762D01*
X67702381Y-37797620D01*
X67702381Y-37892858D01*
X67750000Y-38035715D01*
X67797619Y-38083334D01*
X67702381Y-38416667D02*
X67702381Y-39035715D01*
X68083333Y-38702381D01*
X68083333Y-38845239D01*
X68130952Y-38940477D01*
X68178571Y-38988096D01*
X68273810Y-39035715D01*
X68511905Y-39035715D01*
X68607143Y-38988096D01*
X68654762Y-38940477D01*
X68702381Y-38845239D01*
X68702381Y-38559524D01*
X68654762Y-38464286D01*
X68607143Y-38416667D01*
X51407143Y-9683334D02*
X51454762Y-9635715D01*
X51502381Y-9492858D01*
X51502381Y-9397620D01*
X51454762Y-9254762D01*
X51359524Y-9159524D01*
X51264286Y-9111905D01*
X51073810Y-9064286D01*
X50930952Y-9064286D01*
X50740476Y-9111905D01*
X50645238Y-9159524D01*
X50550000Y-9254762D01*
X50502381Y-9397620D01*
X50502381Y-9492858D01*
X50550000Y-9635715D01*
X50597619Y-9683334D01*
X50502381Y-10588096D02*
X50502381Y-10111905D01*
X50978571Y-10064286D01*
X50930952Y-10111905D01*
X50883333Y-10207143D01*
X50883333Y-10445239D01*
X50930952Y-10540477D01*
X50978571Y-10588096D01*
X51073810Y-10635715D01*
X51311905Y-10635715D01*
X51407143Y-10588096D01*
X51454762Y-10540477D01*
X51502381Y-10445239D01*
X51502381Y-10207143D01*
X51454762Y-10111905D01*
X51407143Y-10064286D01*
X35866666Y-16407143D02*
X35914285Y-16454762D01*
X36057142Y-16502381D01*
X36152380Y-16502381D01*
X36295238Y-16454762D01*
X36390476Y-16359524D01*
X36438095Y-16264286D01*
X36485714Y-16073810D01*
X36485714Y-15930952D01*
X36438095Y-15740476D01*
X36390476Y-15645238D01*
X36295238Y-15550000D01*
X36152380Y-15502381D01*
X36057142Y-15502381D01*
X35914285Y-15550000D01*
X35866666Y-15597619D01*
X35295238Y-15930952D02*
X35390476Y-15883333D01*
X35438095Y-15835714D01*
X35485714Y-15740476D01*
X35485714Y-15692857D01*
X35438095Y-15597619D01*
X35390476Y-15550000D01*
X35295238Y-15502381D01*
X35104761Y-15502381D01*
X35009523Y-15550000D01*
X34961904Y-15597619D01*
X34914285Y-15692857D01*
X34914285Y-15740476D01*
X34961904Y-15835714D01*
X35009523Y-15883333D01*
X35104761Y-15930952D01*
X35295238Y-15930952D01*
X35390476Y-15978571D01*
X35438095Y-16026190D01*
X35485714Y-16121429D01*
X35485714Y-16311905D01*
X35438095Y-16407143D01*
X35390476Y-16454762D01*
X35295238Y-16502381D01*
X35104761Y-16502381D01*
X35009523Y-16454762D01*
X34961904Y-16407143D01*
X34914285Y-16311905D01*
X34914285Y-16121429D01*
X34961904Y-16026190D01*
X35009523Y-15978571D01*
X35104761Y-15930952D01*
X2966666Y-29457143D02*
X3014285Y-29504762D01*
X3157142Y-29552381D01*
X3252380Y-29552381D01*
X3395238Y-29504762D01*
X3490476Y-29409524D01*
X3538095Y-29314286D01*
X3585714Y-29123810D01*
X3585714Y-28980952D01*
X3538095Y-28790476D01*
X3490476Y-28695238D01*
X3395238Y-28600000D01*
X3252380Y-28552381D01*
X3157142Y-28552381D01*
X3014285Y-28600000D01*
X2966666Y-28647619D01*
X2490476Y-29552381D02*
X2300000Y-29552381D01*
X2204761Y-29504762D01*
X2157142Y-29457143D01*
X2061904Y-29314286D01*
X2014285Y-29123810D01*
X2014285Y-28742857D01*
X2061904Y-28647619D01*
X2109523Y-28600000D01*
X2204761Y-28552381D01*
X2395238Y-28552381D01*
X2490476Y-28600000D01*
X2538095Y-28647619D01*
X2585714Y-28742857D01*
X2585714Y-28980952D01*
X2538095Y-29076190D01*
X2490476Y-29123810D01*
X2395238Y-29171429D01*
X2204761Y-29171429D01*
X2109523Y-29123810D01*
X2061904Y-29076190D01*
X2014285Y-28980952D01*
X10632143Y-32032143D02*
X10679762Y-31984524D01*
X10727381Y-31841667D01*
X10727381Y-31746429D01*
X10679762Y-31603571D01*
X10584524Y-31508333D01*
X10489286Y-31460714D01*
X10298810Y-31413095D01*
X10155952Y-31413095D01*
X9965476Y-31460714D01*
X9870238Y-31508333D01*
X9775000Y-31603571D01*
X9727381Y-31746429D01*
X9727381Y-31841667D01*
X9775000Y-31984524D01*
X9822619Y-32032143D01*
X10727381Y-32984524D02*
X10727381Y-32413095D01*
X10727381Y-32698809D02*
X9727381Y-32698809D01*
X9870238Y-32603571D01*
X9965476Y-32508333D01*
X10013095Y-32413095D01*
X9727381Y-33603571D02*
X9727381Y-33698810D01*
X9775000Y-33794048D01*
X9822619Y-33841667D01*
X9917857Y-33889286D01*
X10108333Y-33936905D01*
X10346429Y-33936905D01*
X10536905Y-33889286D01*
X10632143Y-33841667D01*
X10679762Y-33794048D01*
X10727381Y-33698810D01*
X10727381Y-33603571D01*
X10679762Y-33508333D01*
X10632143Y-33460714D01*
X10536905Y-33413095D01*
X10346429Y-33365476D01*
X10108333Y-33365476D01*
X9917857Y-33413095D01*
X9822619Y-33460714D01*
X9775000Y-33508333D01*
X9727381Y-33603571D01*
X12107143Y-32057143D02*
X12154762Y-32009524D01*
X12202381Y-31866667D01*
X12202381Y-31771429D01*
X12154762Y-31628571D01*
X12059524Y-31533333D01*
X11964286Y-31485714D01*
X11773810Y-31438095D01*
X11630952Y-31438095D01*
X11440476Y-31485714D01*
X11345238Y-31533333D01*
X11250000Y-31628571D01*
X11202381Y-31771429D01*
X11202381Y-31866667D01*
X11250000Y-32009524D01*
X11297619Y-32057143D01*
X12202381Y-33009524D02*
X12202381Y-32438095D01*
X12202381Y-32723809D02*
X11202381Y-32723809D01*
X11345238Y-32628571D01*
X11440476Y-32533333D01*
X11488095Y-32438095D01*
X12202381Y-33961905D02*
X12202381Y-33390476D01*
X12202381Y-33676190D02*
X11202381Y-33676190D01*
X11345238Y-33580952D01*
X11440476Y-33485714D01*
X11488095Y-33390476D01*
X3057143Y-36357143D02*
X3104762Y-36309524D01*
X3152381Y-36166667D01*
X3152381Y-36071429D01*
X3104762Y-35928571D01*
X3009524Y-35833333D01*
X2914286Y-35785714D01*
X2723810Y-35738095D01*
X2580952Y-35738095D01*
X2390476Y-35785714D01*
X2295238Y-35833333D01*
X2200000Y-35928571D01*
X2152381Y-36071429D01*
X2152381Y-36166667D01*
X2200000Y-36309524D01*
X2247619Y-36357143D01*
X3152381Y-37309524D02*
X3152381Y-36738095D01*
X3152381Y-37023809D02*
X2152381Y-37023809D01*
X2295238Y-36928571D01*
X2390476Y-36833333D01*
X2438095Y-36738095D01*
X2247619Y-37690476D02*
X2200000Y-37738095D01*
X2152381Y-37833333D01*
X2152381Y-38071429D01*
X2200000Y-38166667D01*
X2247619Y-38214286D01*
X2342857Y-38261905D01*
X2438095Y-38261905D01*
X2580952Y-38214286D01*
X3152381Y-37642857D01*
X3152381Y-38261905D01*
X54042857Y-39057143D02*
X54090476Y-39104762D01*
X54233333Y-39152381D01*
X54328571Y-39152381D01*
X54471429Y-39104762D01*
X54566667Y-39009524D01*
X54614286Y-38914286D01*
X54661905Y-38723810D01*
X54661905Y-38580952D01*
X54614286Y-38390476D01*
X54566667Y-38295238D01*
X54471429Y-38200000D01*
X54328571Y-38152381D01*
X54233333Y-38152381D01*
X54090476Y-38200000D01*
X54042857Y-38247619D01*
X53090476Y-39152381D02*
X53661905Y-39152381D01*
X53376191Y-39152381D02*
X53376191Y-38152381D01*
X53471429Y-38295238D01*
X53566667Y-38390476D01*
X53661905Y-38438095D01*
X52614286Y-39152381D02*
X52423810Y-39152381D01*
X52328571Y-39104762D01*
X52280952Y-39057143D01*
X52185714Y-38914286D01*
X52138095Y-38723810D01*
X52138095Y-38342857D01*
X52185714Y-38247619D01*
X52233333Y-38200000D01*
X52328571Y-38152381D01*
X52519048Y-38152381D01*
X52614286Y-38200000D01*
X52661905Y-38247619D01*
X52709524Y-38342857D01*
X52709524Y-38580952D01*
X52661905Y-38676190D01*
X52614286Y-38723810D01*
X52519048Y-38771429D01*
X52328571Y-38771429D01*
X52233333Y-38723810D01*
X52185714Y-38676190D01*
X52138095Y-38580952D01*
X54328572Y-28071429D02*
X54371429Y-28114286D01*
X54500000Y-28157143D01*
X54585714Y-28157143D01*
X54714286Y-28114286D01*
X54800000Y-28028571D01*
X54842857Y-27942857D01*
X54885714Y-27771429D01*
X54885714Y-27642857D01*
X54842857Y-27471429D01*
X54800000Y-27385714D01*
X54714286Y-27300000D01*
X54585714Y-27257143D01*
X54500000Y-27257143D01*
X54371429Y-27300000D01*
X54328572Y-27342857D01*
X53985714Y-27342857D02*
X53942857Y-27300000D01*
X53857143Y-27257143D01*
X53642857Y-27257143D01*
X53557143Y-27300000D01*
X53514286Y-27342857D01*
X53471429Y-27428571D01*
X53471429Y-27514286D01*
X53514286Y-27642857D01*
X54028572Y-28157143D01*
X53471429Y-28157143D01*
X52914286Y-27257143D02*
X52828571Y-27257143D01*
X52742857Y-27300000D01*
X52700000Y-27342857D01*
X52657143Y-27428571D01*
X52614286Y-27600000D01*
X52614286Y-27814286D01*
X52657143Y-27985714D01*
X52700000Y-28071429D01*
X52742857Y-28114286D01*
X52828571Y-28157143D01*
X52914286Y-28157143D01*
X53000000Y-28114286D01*
X53042857Y-28071429D01*
X53085714Y-27985714D01*
X53128571Y-27814286D01*
X53128571Y-27600000D01*
X53085714Y-27428571D01*
X53042857Y-27342857D01*
X53000000Y-27300000D01*
X52914286Y-27257143D01*
X48392857Y-41357143D02*
X48440476Y-41404762D01*
X48583333Y-41452381D01*
X48678571Y-41452381D01*
X48821429Y-41404762D01*
X48916667Y-41309524D01*
X48964286Y-41214286D01*
X49011905Y-41023810D01*
X49011905Y-40880952D01*
X48964286Y-40690476D01*
X48916667Y-40595238D01*
X48821429Y-40500000D01*
X48678571Y-40452381D01*
X48583333Y-40452381D01*
X48440476Y-40500000D01*
X48392857Y-40547619D01*
X48011905Y-40547619D02*
X47964286Y-40500000D01*
X47869048Y-40452381D01*
X47630952Y-40452381D01*
X47535714Y-40500000D01*
X47488095Y-40547619D01*
X47440476Y-40642857D01*
X47440476Y-40738095D01*
X47488095Y-40880952D01*
X48059524Y-41452381D01*
X47440476Y-41452381D01*
X46488095Y-41452381D02*
X47059524Y-41452381D01*
X46773810Y-41452381D02*
X46773810Y-40452381D01*
X46869048Y-40595238D01*
X46964286Y-40690476D01*
X47059524Y-40738095D01*
X56042857Y-53757143D02*
X56090476Y-53804762D01*
X56233333Y-53852381D01*
X56328571Y-53852381D01*
X56471429Y-53804762D01*
X56566667Y-53709524D01*
X56614286Y-53614286D01*
X56661905Y-53423810D01*
X56661905Y-53280952D01*
X56614286Y-53090476D01*
X56566667Y-52995238D01*
X56471429Y-52900000D01*
X56328571Y-52852381D01*
X56233333Y-52852381D01*
X56090476Y-52900000D01*
X56042857Y-52947619D01*
X55661905Y-52947619D02*
X55614286Y-52900000D01*
X55519048Y-52852381D01*
X55280952Y-52852381D01*
X55185714Y-52900000D01*
X55138095Y-52947619D01*
X55090476Y-53042857D01*
X55090476Y-53138095D01*
X55138095Y-53280952D01*
X55709524Y-53852381D01*
X55090476Y-53852381D01*
X54709524Y-52947619D02*
X54661905Y-52900000D01*
X54566667Y-52852381D01*
X54328571Y-52852381D01*
X54233333Y-52900000D01*
X54185714Y-52947619D01*
X54138095Y-53042857D01*
X54138095Y-53138095D01*
X54185714Y-53280952D01*
X54757143Y-53852381D01*
X54138095Y-53852381D01*
X56092857Y-55007143D02*
X56140476Y-55054762D01*
X56283333Y-55102381D01*
X56378571Y-55102381D01*
X56521429Y-55054762D01*
X56616667Y-54959524D01*
X56664286Y-54864286D01*
X56711905Y-54673810D01*
X56711905Y-54530952D01*
X56664286Y-54340476D01*
X56616667Y-54245238D01*
X56521429Y-54150000D01*
X56378571Y-54102381D01*
X56283333Y-54102381D01*
X56140476Y-54150000D01*
X56092857Y-54197619D01*
X55711905Y-54197619D02*
X55664286Y-54150000D01*
X55569048Y-54102381D01*
X55330952Y-54102381D01*
X55235714Y-54150000D01*
X55188095Y-54197619D01*
X55140476Y-54292857D01*
X55140476Y-54388095D01*
X55188095Y-54530952D01*
X55759524Y-55102381D01*
X55140476Y-55102381D01*
X54807143Y-54102381D02*
X54188095Y-54102381D01*
X54521429Y-54483333D01*
X54378571Y-54483333D01*
X54283333Y-54530952D01*
X54235714Y-54578571D01*
X54188095Y-54673810D01*
X54188095Y-54911905D01*
X54235714Y-55007143D01*
X54283333Y-55054762D01*
X54378571Y-55102381D01*
X54664286Y-55102381D01*
X54759524Y-55054762D01*
X54807143Y-55007143D01*
D12*
X37571428Y-29178571D02*
X37595238Y-29202381D01*
X37666666Y-29226190D01*
X37714285Y-29226190D01*
X37785714Y-29202381D01*
X37833333Y-29154762D01*
X37857142Y-29107143D01*
X37880952Y-29011905D01*
X37880952Y-28940476D01*
X37857142Y-28845238D01*
X37833333Y-28797619D01*
X37785714Y-28750000D01*
X37714285Y-28726190D01*
X37666666Y-28726190D01*
X37595238Y-28750000D01*
X37571428Y-28773810D01*
X37380952Y-28773810D02*
X37357142Y-28750000D01*
X37309523Y-28726190D01*
X37190476Y-28726190D01*
X37142857Y-28750000D01*
X37119047Y-28773810D01*
X37095238Y-28821429D01*
X37095238Y-28869048D01*
X37119047Y-28940476D01*
X37404761Y-29226190D01*
X37095238Y-29226190D01*
X36666667Y-28892857D02*
X36666667Y-29226190D01*
X36785714Y-28702381D02*
X36904762Y-29059524D01*
X36595238Y-29059524D01*
X47821428Y-26903571D02*
X47845238Y-26927381D01*
X47916666Y-26951190D01*
X47964285Y-26951190D01*
X48035714Y-26927381D01*
X48083333Y-26879762D01*
X48107142Y-26832143D01*
X48130952Y-26736905D01*
X48130952Y-26665476D01*
X48107142Y-26570238D01*
X48083333Y-26522619D01*
X48035714Y-26475000D01*
X47964285Y-26451190D01*
X47916666Y-26451190D01*
X47845238Y-26475000D01*
X47821428Y-26498810D01*
X47630952Y-26498810D02*
X47607142Y-26475000D01*
X47559523Y-26451190D01*
X47440476Y-26451190D01*
X47392857Y-26475000D01*
X47369047Y-26498810D01*
X47345238Y-26546429D01*
X47345238Y-26594048D01*
X47369047Y-26665476D01*
X47654761Y-26951190D01*
X47345238Y-26951190D01*
X46892857Y-26451190D02*
X47130952Y-26451190D01*
X47154762Y-26689286D01*
X47130952Y-26665476D01*
X47083333Y-26641667D01*
X46964286Y-26641667D01*
X46916667Y-26665476D01*
X46892857Y-26689286D01*
X46869048Y-26736905D01*
X46869048Y-26855952D01*
X46892857Y-26903571D01*
X46916667Y-26927381D01*
X46964286Y-26951190D01*
X47083333Y-26951190D01*
X47130952Y-26927381D01*
X47154762Y-26903571D01*
D10*
X48642857Y-39557143D02*
X48690476Y-39604762D01*
X48833333Y-39652381D01*
X48928571Y-39652381D01*
X49071429Y-39604762D01*
X49166667Y-39509524D01*
X49214286Y-39414286D01*
X49261905Y-39223810D01*
X49261905Y-39080952D01*
X49214286Y-38890476D01*
X49166667Y-38795238D01*
X49071429Y-38700000D01*
X48928571Y-38652381D01*
X48833333Y-38652381D01*
X48690476Y-38700000D01*
X48642857Y-38747619D01*
X48261905Y-38747619D02*
X48214286Y-38700000D01*
X48119048Y-38652381D01*
X47880952Y-38652381D01*
X47785714Y-38700000D01*
X47738095Y-38747619D01*
X47690476Y-38842857D01*
X47690476Y-38938095D01*
X47738095Y-39080952D01*
X48309524Y-39652381D01*
X47690476Y-39652381D01*
X46833333Y-38652381D02*
X47023810Y-38652381D01*
X47119048Y-38700000D01*
X47166667Y-38747619D01*
X47261905Y-38890476D01*
X47309524Y-39080952D01*
X47309524Y-39461905D01*
X47261905Y-39557143D01*
X47214286Y-39604762D01*
X47119048Y-39652381D01*
X46928571Y-39652381D01*
X46833333Y-39604762D01*
X46785714Y-39557143D01*
X46738095Y-39461905D01*
X46738095Y-39223810D01*
X46785714Y-39128571D01*
X46833333Y-39080952D01*
X46928571Y-39033333D01*
X47119048Y-39033333D01*
X47214286Y-39080952D01*
X47261905Y-39128571D01*
X47309524Y-39223810D01*
X44217857Y-42132143D02*
X44265476Y-42179762D01*
X44408333Y-42227381D01*
X44503571Y-42227381D01*
X44646429Y-42179762D01*
X44741667Y-42084524D01*
X44789286Y-41989286D01*
X44836905Y-41798810D01*
X44836905Y-41655952D01*
X44789286Y-41465476D01*
X44741667Y-41370238D01*
X44646429Y-41275000D01*
X44503571Y-41227381D01*
X44408333Y-41227381D01*
X44265476Y-41275000D01*
X44217857Y-41322619D01*
X43836905Y-41322619D02*
X43789286Y-41275000D01*
X43694048Y-41227381D01*
X43455952Y-41227381D01*
X43360714Y-41275000D01*
X43313095Y-41322619D01*
X43265476Y-41417857D01*
X43265476Y-41513095D01*
X43313095Y-41655952D01*
X43884524Y-42227381D01*
X43265476Y-42227381D01*
X42932143Y-41227381D02*
X42265476Y-41227381D01*
X42694048Y-42227381D01*
X41467857Y-24707143D02*
X41515476Y-24754762D01*
X41658333Y-24802381D01*
X41753571Y-24802381D01*
X41896429Y-24754762D01*
X41991667Y-24659524D01*
X42039286Y-24564286D01*
X42086905Y-24373810D01*
X42086905Y-24230952D01*
X42039286Y-24040476D01*
X41991667Y-23945238D01*
X41896429Y-23850000D01*
X41753571Y-23802381D01*
X41658333Y-23802381D01*
X41515476Y-23850000D01*
X41467857Y-23897619D01*
X41086905Y-23897619D02*
X41039286Y-23850000D01*
X40944048Y-23802381D01*
X40705952Y-23802381D01*
X40610714Y-23850000D01*
X40563095Y-23897619D01*
X40515476Y-23992857D01*
X40515476Y-24088095D01*
X40563095Y-24230952D01*
X41134524Y-24802381D01*
X40515476Y-24802381D01*
X39944048Y-24230952D02*
X40039286Y-24183333D01*
X40086905Y-24135714D01*
X40134524Y-24040476D01*
X40134524Y-23992857D01*
X40086905Y-23897619D01*
X40039286Y-23850000D01*
X39944048Y-23802381D01*
X39753571Y-23802381D01*
X39658333Y-23850000D01*
X39610714Y-23897619D01*
X39563095Y-23992857D01*
X39563095Y-24040476D01*
X39610714Y-24135714D01*
X39658333Y-24183333D01*
X39753571Y-24230952D01*
X39944048Y-24230952D01*
X40039286Y-24278571D01*
X40086905Y-24326190D01*
X40134524Y-24421429D01*
X40134524Y-24611905D01*
X40086905Y-24707143D01*
X40039286Y-24754762D01*
X39944048Y-24802381D01*
X39753571Y-24802381D01*
X39658333Y-24754762D01*
X39610714Y-24707143D01*
X39563095Y-24611905D01*
X39563095Y-24421429D01*
X39610714Y-24326190D01*
X39658333Y-24278571D01*
X39753571Y-24230952D01*
D12*
X49678571Y-31453572D02*
X49702381Y-31429762D01*
X49726190Y-31358334D01*
X49726190Y-31310715D01*
X49702381Y-31239286D01*
X49654762Y-31191667D01*
X49607143Y-31167858D01*
X49511905Y-31144048D01*
X49440476Y-31144048D01*
X49345238Y-31167858D01*
X49297619Y-31191667D01*
X49250000Y-31239286D01*
X49226190Y-31310715D01*
X49226190Y-31358334D01*
X49250000Y-31429762D01*
X49273810Y-31453572D01*
X49273810Y-31644048D02*
X49250000Y-31667858D01*
X49226190Y-31715477D01*
X49226190Y-31834524D01*
X49250000Y-31882143D01*
X49273810Y-31905953D01*
X49321429Y-31929762D01*
X49369048Y-31929762D01*
X49440476Y-31905953D01*
X49726190Y-31620239D01*
X49726190Y-31929762D01*
X49726190Y-32167857D02*
X49726190Y-32263095D01*
X49702381Y-32310714D01*
X49678571Y-32334524D01*
X49607143Y-32382143D01*
X49511905Y-32405952D01*
X49321429Y-32405952D01*
X49273810Y-32382143D01*
X49250000Y-32358333D01*
X49226190Y-32310714D01*
X49226190Y-32215476D01*
X49250000Y-32167857D01*
X49273810Y-32144048D01*
X49321429Y-32120238D01*
X49440476Y-32120238D01*
X49488095Y-32144048D01*
X49511905Y-32167857D01*
X49535714Y-32215476D01*
X49535714Y-32310714D01*
X49511905Y-32358333D01*
X49488095Y-32382143D01*
X49440476Y-32405952D01*
D10*
X20882143Y-43057143D02*
X20929762Y-43009524D01*
X20977381Y-42866667D01*
X20977381Y-42771429D01*
X20929762Y-42628571D01*
X20834524Y-42533333D01*
X20739286Y-42485714D01*
X20548810Y-42438095D01*
X20405952Y-42438095D01*
X20215476Y-42485714D01*
X20120238Y-42533333D01*
X20025000Y-42628571D01*
X19977381Y-42771429D01*
X19977381Y-42866667D01*
X20025000Y-43009524D01*
X20072619Y-43057143D01*
X19977381Y-43390476D02*
X19977381Y-44009524D01*
X20358333Y-43676190D01*
X20358333Y-43819048D01*
X20405952Y-43914286D01*
X20453571Y-43961905D01*
X20548810Y-44009524D01*
X20786905Y-44009524D01*
X20882143Y-43961905D01*
X20929762Y-43914286D01*
X20977381Y-43819048D01*
X20977381Y-43533333D01*
X20929762Y-43438095D01*
X20882143Y-43390476D01*
X19977381Y-44342857D02*
X19977381Y-44961905D01*
X20358333Y-44628571D01*
X20358333Y-44771429D01*
X20405952Y-44866667D01*
X20453571Y-44914286D01*
X20548810Y-44961905D01*
X20786905Y-44961905D01*
X20882143Y-44914286D01*
X20929762Y-44866667D01*
X20977381Y-44771429D01*
X20977381Y-44485714D01*
X20929762Y-44390476D01*
X20882143Y-44342857D01*
X14482143Y-35882143D02*
X14529762Y-35834524D01*
X14577381Y-35691667D01*
X14577381Y-35596429D01*
X14529762Y-35453571D01*
X14434524Y-35358333D01*
X14339286Y-35310714D01*
X14148810Y-35263095D01*
X14005952Y-35263095D01*
X13815476Y-35310714D01*
X13720238Y-35358333D01*
X13625000Y-35453571D01*
X13577381Y-35596429D01*
X13577381Y-35691667D01*
X13625000Y-35834524D01*
X13672619Y-35882143D01*
X13577381Y-36215476D02*
X13577381Y-36834524D01*
X13958333Y-36501190D01*
X13958333Y-36644048D01*
X14005952Y-36739286D01*
X14053571Y-36786905D01*
X14148810Y-36834524D01*
X14386905Y-36834524D01*
X14482143Y-36786905D01*
X14529762Y-36739286D01*
X14577381Y-36644048D01*
X14577381Y-36358333D01*
X14529762Y-36263095D01*
X14482143Y-36215476D01*
X13910714Y-37691667D02*
X14577381Y-37691667D01*
X13529762Y-37453571D02*
X14244048Y-37215476D01*
X14244048Y-37834524D01*
X31857143Y-46357143D02*
X31904762Y-46309524D01*
X31952381Y-46166667D01*
X31952381Y-46071429D01*
X31904762Y-45928571D01*
X31809524Y-45833333D01*
X31714286Y-45785714D01*
X31523810Y-45738095D01*
X31380952Y-45738095D01*
X31190476Y-45785714D01*
X31095238Y-45833333D01*
X31000000Y-45928571D01*
X30952381Y-46071429D01*
X30952381Y-46166667D01*
X31000000Y-46309524D01*
X31047619Y-46357143D01*
X30952381Y-46690476D02*
X30952381Y-47309524D01*
X31333333Y-46976190D01*
X31333333Y-47119048D01*
X31380952Y-47214286D01*
X31428571Y-47261905D01*
X31523810Y-47309524D01*
X31761905Y-47309524D01*
X31857143Y-47261905D01*
X31904762Y-47214286D01*
X31952381Y-47119048D01*
X31952381Y-46833333D01*
X31904762Y-46738095D01*
X31857143Y-46690476D01*
X30952381Y-48214286D02*
X30952381Y-47738095D01*
X31428571Y-47690476D01*
X31380952Y-47738095D01*
X31333333Y-47833333D01*
X31333333Y-48071429D01*
X31380952Y-48166667D01*
X31428571Y-48214286D01*
X31523810Y-48261905D01*
X31761905Y-48261905D01*
X31857143Y-48214286D01*
X31904762Y-48166667D01*
X31952381Y-48071429D01*
X31952381Y-47833333D01*
X31904762Y-47738095D01*
X31857143Y-47690476D01*
D12*
X6928571Y-45228572D02*
X6952381Y-45204762D01*
X6976190Y-45133334D01*
X6976190Y-45085715D01*
X6952381Y-45014286D01*
X6904762Y-44966667D01*
X6857143Y-44942858D01*
X6761905Y-44919048D01*
X6690476Y-44919048D01*
X6595238Y-44942858D01*
X6547619Y-44966667D01*
X6500000Y-45014286D01*
X6476190Y-45085715D01*
X6476190Y-45133334D01*
X6500000Y-45204762D01*
X6523810Y-45228572D01*
X6476190Y-45395239D02*
X6476190Y-45704762D01*
X6666667Y-45538096D01*
X6666667Y-45609524D01*
X6690476Y-45657143D01*
X6714286Y-45680953D01*
X6761905Y-45704762D01*
X6880952Y-45704762D01*
X6928571Y-45680953D01*
X6952381Y-45657143D01*
X6976190Y-45609524D01*
X6976190Y-45466667D01*
X6952381Y-45419048D01*
X6928571Y-45395239D01*
X6476190Y-46133333D02*
X6476190Y-46038095D01*
X6500000Y-45990476D01*
X6523810Y-45966667D01*
X6595238Y-45919048D01*
X6690476Y-45895238D01*
X6880952Y-45895238D01*
X6928571Y-45919048D01*
X6952381Y-45942857D01*
X6976190Y-45990476D01*
X6976190Y-46085714D01*
X6952381Y-46133333D01*
X6928571Y-46157143D01*
X6880952Y-46180952D01*
X6761905Y-46180952D01*
X6714286Y-46157143D01*
X6690476Y-46133333D01*
X6666667Y-46085714D01*
X6666667Y-45990476D01*
X6690476Y-45942857D01*
X6714286Y-45919048D01*
X6761905Y-45895238D01*
D10*
X18583333Y-12302381D02*
X18583333Y-13016667D01*
X18630953Y-13159524D01*
X18726191Y-13254762D01*
X18869048Y-13302381D01*
X18964286Y-13302381D01*
X17583333Y-13302381D02*
X18154762Y-13302381D01*
X17869048Y-13302381D02*
X17869048Y-12302381D01*
X17964286Y-12445238D01*
X18059524Y-12540476D01*
X18154762Y-12588095D01*
X64952381Y-35833334D02*
X64476190Y-35500000D01*
X64952381Y-35261905D02*
X63952381Y-35261905D01*
X63952381Y-35642858D01*
X64000000Y-35738096D01*
X64047619Y-35785715D01*
X64142857Y-35833334D01*
X64285714Y-35833334D01*
X64380952Y-35785715D01*
X64428571Y-35738096D01*
X64476190Y-35642858D01*
X64476190Y-35261905D01*
X64047619Y-36214286D02*
X64000000Y-36261905D01*
X63952381Y-36357143D01*
X63952381Y-36595239D01*
X64000000Y-36690477D01*
X64047619Y-36738096D01*
X64142857Y-36785715D01*
X64238095Y-36785715D01*
X64380952Y-36738096D01*
X64952381Y-36166667D01*
X64952381Y-36785715D01*
X55466666Y-16752381D02*
X55800000Y-16276190D01*
X56038095Y-16752381D02*
X56038095Y-15752381D01*
X55657142Y-15752381D01*
X55561904Y-15800000D01*
X55514285Y-15847619D01*
X55466666Y-15942857D01*
X55466666Y-16085714D01*
X55514285Y-16180952D01*
X55561904Y-16228571D01*
X55657142Y-16276190D01*
X56038095Y-16276190D01*
X55133333Y-15752381D02*
X54514285Y-15752381D01*
X54847619Y-16133333D01*
X54704761Y-16133333D01*
X54609523Y-16180952D01*
X54561904Y-16228571D01*
X54514285Y-16323810D01*
X54514285Y-16561905D01*
X54561904Y-16657143D01*
X54609523Y-16704762D01*
X54704761Y-16752381D01*
X54990476Y-16752381D01*
X55085714Y-16704762D01*
X55133333Y-16657143D01*
X76916666Y-26952381D02*
X77250000Y-26476190D01*
X77488095Y-26952381D02*
X77488095Y-25952381D01*
X77107142Y-25952381D01*
X77011904Y-26000000D01*
X76964285Y-26047619D01*
X76916666Y-26142857D01*
X76916666Y-26285714D01*
X76964285Y-26380952D01*
X77011904Y-26428571D01*
X77107142Y-26476190D01*
X77488095Y-26476190D01*
X76059523Y-26285714D02*
X76059523Y-26952381D01*
X76297619Y-25904762D02*
X76535714Y-26619048D01*
X75916666Y-26619048D01*
X67952381Y-40583334D02*
X67476190Y-40250000D01*
X67952381Y-40011905D02*
X66952381Y-40011905D01*
X66952381Y-40392858D01*
X67000000Y-40488096D01*
X67047619Y-40535715D01*
X67142857Y-40583334D01*
X67285714Y-40583334D01*
X67380952Y-40535715D01*
X67428571Y-40488096D01*
X67476190Y-40392858D01*
X67476190Y-40011905D01*
X66952381Y-41488096D02*
X66952381Y-41011905D01*
X67428571Y-40964286D01*
X67380952Y-41011905D01*
X67333333Y-41107143D01*
X67333333Y-41345239D01*
X67380952Y-41440477D01*
X67428571Y-41488096D01*
X67523810Y-41535715D01*
X67761905Y-41535715D01*
X67857143Y-41488096D01*
X67904762Y-41440477D01*
X67952381Y-41345239D01*
X67952381Y-41107143D01*
X67904762Y-41011905D01*
X67857143Y-40964286D01*
X44602381Y-11183334D02*
X44126190Y-10850000D01*
X44602381Y-10611905D02*
X43602381Y-10611905D01*
X43602381Y-10992858D01*
X43650000Y-11088096D01*
X43697619Y-11135715D01*
X43792857Y-11183334D01*
X43935714Y-11183334D01*
X44030952Y-11135715D01*
X44078571Y-11088096D01*
X44126190Y-10992858D01*
X44126190Y-10611905D01*
X43602381Y-12040477D02*
X43602381Y-11850000D01*
X43650000Y-11754762D01*
X43697619Y-11707143D01*
X43840476Y-11611905D01*
X44030952Y-11564286D01*
X44411905Y-11564286D01*
X44507143Y-11611905D01*
X44554762Y-11659524D01*
X44602381Y-11754762D01*
X44602381Y-11945239D01*
X44554762Y-12040477D01*
X44507143Y-12088096D01*
X44411905Y-12135715D01*
X44173810Y-12135715D01*
X44078571Y-12088096D01*
X44030952Y-12040477D01*
X43983333Y-11945239D01*
X43983333Y-11754762D01*
X44030952Y-11659524D01*
X44078571Y-11611905D01*
X44173810Y-11564286D01*
X46816666Y-44952381D02*
X47150000Y-44476190D01*
X47388095Y-44952381D02*
X47388095Y-43952381D01*
X47007142Y-43952381D01*
X46911904Y-44000000D01*
X46864285Y-44047619D01*
X46816666Y-44142857D01*
X46816666Y-44285714D01*
X46864285Y-44380952D01*
X46911904Y-44428571D01*
X47007142Y-44476190D01*
X47388095Y-44476190D01*
X46245238Y-44380952D02*
X46340476Y-44333333D01*
X46388095Y-44285714D01*
X46435714Y-44190476D01*
X46435714Y-44142857D01*
X46388095Y-44047619D01*
X46340476Y-44000000D01*
X46245238Y-43952381D01*
X46054761Y-43952381D01*
X45959523Y-44000000D01*
X45911904Y-44047619D01*
X45864285Y-44142857D01*
X45864285Y-44190476D01*
X45911904Y-44285714D01*
X45959523Y-44333333D01*
X46054761Y-44380952D01*
X46245238Y-44380952D01*
X46340476Y-44428571D01*
X46388095Y-44476190D01*
X46435714Y-44571429D01*
X46435714Y-44761905D01*
X46388095Y-44857143D01*
X46340476Y-44904762D01*
X46245238Y-44952381D01*
X46054761Y-44952381D01*
X45959523Y-44904762D01*
X45911904Y-44857143D01*
X45864285Y-44761905D01*
X45864285Y-44571429D01*
X45911904Y-44476190D01*
X45959523Y-44428571D01*
X46054761Y-44380952D01*
X57691666Y-38452381D02*
X58025000Y-37976190D01*
X58263095Y-38452381D02*
X58263095Y-37452381D01*
X57882142Y-37452381D01*
X57786904Y-37500000D01*
X57739285Y-37547619D01*
X57691666Y-37642857D01*
X57691666Y-37785714D01*
X57739285Y-37880952D01*
X57786904Y-37928571D01*
X57882142Y-37976190D01*
X58263095Y-37976190D01*
X57215476Y-38452381D02*
X57025000Y-38452381D01*
X56929761Y-38404762D01*
X56882142Y-38357143D01*
X56786904Y-38214286D01*
X56739285Y-38023810D01*
X56739285Y-37642857D01*
X56786904Y-37547619D01*
X56834523Y-37500000D01*
X56929761Y-37452381D01*
X57120238Y-37452381D01*
X57215476Y-37500000D01*
X57263095Y-37547619D01*
X57310714Y-37642857D01*
X57310714Y-37880952D01*
X57263095Y-37976190D01*
X57215476Y-38023810D01*
X57120238Y-38071429D01*
X56929761Y-38071429D01*
X56834523Y-38023810D01*
X56786904Y-37976190D01*
X56739285Y-37880952D01*
X51412381Y-45177143D02*
X50936190Y-44843809D01*
X51412381Y-44605714D02*
X50412381Y-44605714D01*
X50412381Y-44986667D01*
X50460000Y-45081905D01*
X50507619Y-45129524D01*
X50602857Y-45177143D01*
X50745714Y-45177143D01*
X50840952Y-45129524D01*
X50888571Y-45081905D01*
X50936190Y-44986667D01*
X50936190Y-44605714D01*
X51412381Y-46129524D02*
X51412381Y-45558095D01*
X51412381Y-45843809D02*
X50412381Y-45843809D01*
X50555238Y-45748571D01*
X50650476Y-45653333D01*
X50698095Y-45558095D01*
X50412381Y-46748571D02*
X50412381Y-46843810D01*
X50460000Y-46939048D01*
X50507619Y-46986667D01*
X50602857Y-47034286D01*
X50793333Y-47081905D01*
X51031429Y-47081905D01*
X51221905Y-47034286D01*
X51317143Y-46986667D01*
X51364762Y-46939048D01*
X51412381Y-46843810D01*
X51412381Y-46748571D01*
X51364762Y-46653333D01*
X51317143Y-46605714D01*
X51221905Y-46558095D01*
X51031429Y-46510476D01*
X50793333Y-46510476D01*
X50602857Y-46558095D01*
X50507619Y-46605714D01*
X50460000Y-46653333D01*
X50412381Y-46748571D01*
X43152381Y-44557143D02*
X42676190Y-44223809D01*
X43152381Y-43985714D02*
X42152381Y-43985714D01*
X42152381Y-44366667D01*
X42200000Y-44461905D01*
X42247619Y-44509524D01*
X42342857Y-44557143D01*
X42485714Y-44557143D01*
X42580952Y-44509524D01*
X42628571Y-44461905D01*
X42676190Y-44366667D01*
X42676190Y-43985714D01*
X43152381Y-45509524D02*
X43152381Y-44938095D01*
X43152381Y-45223809D02*
X42152381Y-45223809D01*
X42295238Y-45128571D01*
X42390476Y-45033333D01*
X42438095Y-44938095D01*
X43152381Y-46461905D02*
X43152381Y-45890476D01*
X43152381Y-46176190D02*
X42152381Y-46176190D01*
X42295238Y-46080952D01*
X42390476Y-45985714D01*
X42438095Y-45890476D01*
X1302381Y-32457143D02*
X826190Y-32123809D01*
X1302381Y-31885714D02*
X302381Y-31885714D01*
X302381Y-32266667D01*
X350000Y-32361905D01*
X397619Y-32409524D01*
X492857Y-32457143D01*
X635714Y-32457143D01*
X730952Y-32409524D01*
X778571Y-32361905D01*
X826190Y-32266667D01*
X826190Y-31885714D01*
X1302381Y-33409524D02*
X1302381Y-32838095D01*
X1302381Y-33123809D02*
X302381Y-33123809D01*
X445238Y-33028571D01*
X540476Y-32933333D01*
X588095Y-32838095D01*
X302381Y-33742857D02*
X302381Y-34409524D01*
X1302381Y-33980952D01*
X24142857Y-55877381D02*
X24476191Y-55401190D01*
X24714286Y-55877381D02*
X24714286Y-54877381D01*
X24333333Y-54877381D01*
X24238095Y-54925000D01*
X24190476Y-54972619D01*
X24142857Y-55067857D01*
X24142857Y-55210714D01*
X24190476Y-55305952D01*
X24238095Y-55353571D01*
X24333333Y-55401190D01*
X24714286Y-55401190D01*
X23190476Y-55877381D02*
X23761905Y-55877381D01*
X23476191Y-55877381D02*
X23476191Y-54877381D01*
X23571429Y-55020238D01*
X23666667Y-55115476D01*
X23761905Y-55163095D01*
X22714286Y-55877381D02*
X22523810Y-55877381D01*
X22428571Y-55829762D01*
X22380952Y-55782143D01*
X22285714Y-55639286D01*
X22238095Y-55448810D01*
X22238095Y-55067857D01*
X22285714Y-54972619D01*
X22333333Y-54925000D01*
X22428571Y-54877381D01*
X22619048Y-54877381D01*
X22714286Y-54925000D01*
X22761905Y-54972619D01*
X22809524Y-55067857D01*
X22809524Y-55305952D01*
X22761905Y-55401190D01*
X22714286Y-55448810D01*
X22619048Y-55496429D01*
X22428571Y-55496429D01*
X22333333Y-55448810D01*
X22285714Y-55401190D01*
X22238095Y-55305952D01*
X14842857Y-56877381D02*
X15176191Y-56401190D01*
X15414286Y-56877381D02*
X15414286Y-55877381D01*
X15033333Y-55877381D01*
X14938095Y-55925000D01*
X14890476Y-55972619D01*
X14842857Y-56067857D01*
X14842857Y-56210714D01*
X14890476Y-56305952D01*
X14938095Y-56353571D01*
X15033333Y-56401190D01*
X15414286Y-56401190D01*
X14461905Y-55972619D02*
X14414286Y-55925000D01*
X14319048Y-55877381D01*
X14080952Y-55877381D01*
X13985714Y-55925000D01*
X13938095Y-55972619D01*
X13890476Y-56067857D01*
X13890476Y-56163095D01*
X13938095Y-56305952D01*
X14509524Y-56877381D01*
X13890476Y-56877381D01*
X13271429Y-55877381D02*
X13176190Y-55877381D01*
X13080952Y-55925000D01*
X13033333Y-55972619D01*
X12985714Y-56067857D01*
X12938095Y-56258333D01*
X12938095Y-56496429D01*
X12985714Y-56686905D01*
X13033333Y-56782143D01*
X13080952Y-56829762D01*
X13176190Y-56877381D01*
X13271429Y-56877381D01*
X13366667Y-56829762D01*
X13414286Y-56782143D01*
X13461905Y-56686905D01*
X13509524Y-56496429D01*
X13509524Y-56258333D01*
X13461905Y-56067857D01*
X13414286Y-55972619D01*
X13366667Y-55925000D01*
X13271429Y-55877381D01*
X4542857Y-25602381D02*
X4876191Y-25126190D01*
X5114286Y-25602381D02*
X5114286Y-24602381D01*
X4733333Y-24602381D01*
X4638095Y-24650000D01*
X4590476Y-24697619D01*
X4542857Y-24792857D01*
X4542857Y-24935714D01*
X4590476Y-25030952D01*
X4638095Y-25078571D01*
X4733333Y-25126190D01*
X5114286Y-25126190D01*
X4161905Y-24697619D02*
X4114286Y-24650000D01*
X4019048Y-24602381D01*
X3780952Y-24602381D01*
X3685714Y-24650000D01*
X3638095Y-24697619D01*
X3590476Y-24792857D01*
X3590476Y-24888095D01*
X3638095Y-25030952D01*
X4209524Y-25602381D01*
X3590476Y-25602381D01*
X2638095Y-25602381D02*
X3209524Y-25602381D01*
X2923810Y-25602381D02*
X2923810Y-24602381D01*
X3019048Y-24745238D01*
X3114286Y-24840476D01*
X3209524Y-24888095D01*
X17817857Y-56927381D02*
X18151191Y-56451190D01*
X18389286Y-56927381D02*
X18389286Y-55927381D01*
X18008333Y-55927381D01*
X17913095Y-55975000D01*
X17865476Y-56022619D01*
X17817857Y-56117857D01*
X17817857Y-56260714D01*
X17865476Y-56355952D01*
X17913095Y-56403571D01*
X18008333Y-56451190D01*
X18389286Y-56451190D01*
X17436905Y-56022619D02*
X17389286Y-55975000D01*
X17294048Y-55927381D01*
X17055952Y-55927381D01*
X16960714Y-55975000D01*
X16913095Y-56022619D01*
X16865476Y-56117857D01*
X16865476Y-56213095D01*
X16913095Y-56355952D01*
X17484524Y-56927381D01*
X16865476Y-56927381D01*
X16532143Y-55927381D02*
X15913095Y-55927381D01*
X16246429Y-56308333D01*
X16103571Y-56308333D01*
X16008333Y-56355952D01*
X15960714Y-56403571D01*
X15913095Y-56498810D01*
X15913095Y-56736905D01*
X15960714Y-56832143D01*
X16008333Y-56879762D01*
X16103571Y-56927381D01*
X16389286Y-56927381D01*
X16484524Y-56879762D01*
X16532143Y-56832143D01*
X75861905Y-2852381D02*
X75861905Y-3661905D01*
X75814286Y-3757143D01*
X75766667Y-3804762D01*
X75671429Y-3852381D01*
X75480952Y-3852381D01*
X75385714Y-3804762D01*
X75338095Y-3757143D01*
X75290476Y-3661905D01*
X75290476Y-2852381D01*
X74909524Y-2852381D02*
X74290476Y-2852381D01*
X74623810Y-3233333D01*
X74480952Y-3233333D01*
X74385714Y-3280952D01*
X74338095Y-3328571D01*
X74290476Y-3423810D01*
X74290476Y-3661905D01*
X74338095Y-3757143D01*
X74385714Y-3804762D01*
X74480952Y-3852381D01*
X74766667Y-3852381D01*
X74861905Y-3804762D01*
X74909524Y-3757143D01*
X42502381Y-18138095D02*
X43311905Y-18138095D01*
X43407143Y-18185714D01*
X43454762Y-18233333D01*
X43502381Y-18328571D01*
X43502381Y-18519048D01*
X43454762Y-18614286D01*
X43407143Y-18661905D01*
X43311905Y-18709524D01*
X42502381Y-18709524D01*
X42835714Y-19614286D02*
X43502381Y-19614286D01*
X42454762Y-19376190D02*
X43169048Y-19138095D01*
X43169048Y-19757143D01*
X12438095Y-18102381D02*
X12438095Y-18911905D01*
X12390476Y-19007143D01*
X12342857Y-19054762D01*
X12247619Y-19102381D01*
X12057142Y-19102381D01*
X11961904Y-19054762D01*
X11914285Y-19007143D01*
X11866666Y-18911905D01*
X11866666Y-18102381D01*
X10866666Y-19102381D02*
X11438095Y-19102381D01*
X11152381Y-19102381D02*
X11152381Y-18102381D01*
X11247619Y-18245238D01*
X11342857Y-18340476D01*
X11438095Y-18388095D01*
X10247619Y-18102381D02*
X10152380Y-18102381D01*
X10057142Y-18150000D01*
X10009523Y-18197619D01*
X9961904Y-18292857D01*
X9914285Y-18483333D01*
X9914285Y-18721429D01*
X9961904Y-18911905D01*
X10009523Y-19007143D01*
X10057142Y-19054762D01*
X10152380Y-19102381D01*
X10247619Y-19102381D01*
X10342857Y-19054762D01*
X10390476Y-19007143D01*
X10438095Y-18911905D01*
X10485714Y-18721429D01*
X10485714Y-18483333D01*
X10438095Y-18292857D01*
X10390476Y-18197619D01*
X10342857Y-18150000D01*
X10247619Y-18102381D01*
X57002381Y-32438095D02*
X57811905Y-32438095D01*
X57907143Y-32485714D01*
X57954762Y-32533333D01*
X58002381Y-32628571D01*
X58002381Y-32819048D01*
X57954762Y-32914286D01*
X57907143Y-32961905D01*
X57811905Y-33009524D01*
X57002381Y-33009524D01*
X57002381Y-33961905D02*
X57002381Y-33485714D01*
X57478571Y-33438095D01*
X57430952Y-33485714D01*
X57383333Y-33580952D01*
X57383333Y-33819048D01*
X57430952Y-33914286D01*
X57478571Y-33961905D01*
X57573810Y-34009524D01*
X57811905Y-34009524D01*
X57907143Y-33961905D01*
X57954762Y-33914286D01*
X58002381Y-33819048D01*
X58002381Y-33580952D01*
X57954762Y-33485714D01*
X57907143Y-33438095D01*
X28542857Y-39057143D02*
X28590476Y-39104762D01*
X28733333Y-39152381D01*
X28828571Y-39152381D01*
X28971429Y-39104762D01*
X29066667Y-39009524D01*
X29114286Y-38914286D01*
X29161905Y-38723810D01*
X29161905Y-38580952D01*
X29114286Y-38390476D01*
X29066667Y-38295238D01*
X28971429Y-38200000D01*
X28828571Y-38152381D01*
X28733333Y-38152381D01*
X28590476Y-38200000D01*
X28542857Y-38247619D01*
X27685714Y-38485714D02*
X27685714Y-39152381D01*
X27923810Y-38104762D02*
X28161905Y-38819048D01*
X27542857Y-38819048D01*
X26733333Y-38152381D02*
X26923810Y-38152381D01*
X27019048Y-38200000D01*
X27066667Y-38247619D01*
X27161905Y-38390476D01*
X27209524Y-38580952D01*
X27209524Y-38961905D01*
X27161905Y-39057143D01*
X27114286Y-39104762D01*
X27019048Y-39152381D01*
X26828571Y-39152381D01*
X26733333Y-39104762D01*
X26685714Y-39057143D01*
X26638095Y-38961905D01*
X26638095Y-38723810D01*
X26685714Y-38628571D01*
X26733333Y-38580952D01*
X26828571Y-38533333D01*
X27019048Y-38533333D01*
X27114286Y-38580952D01*
X27161905Y-38628571D01*
X27209524Y-38723810D01*
X28282143Y-27357143D02*
X28329762Y-27309524D01*
X28377381Y-27166667D01*
X28377381Y-27071429D01*
X28329762Y-26928571D01*
X28234524Y-26833333D01*
X28139286Y-26785714D01*
X27948810Y-26738095D01*
X27805952Y-26738095D01*
X27615476Y-26785714D01*
X27520238Y-26833333D01*
X27425000Y-26928571D01*
X27377381Y-27071429D01*
X27377381Y-27166667D01*
X27425000Y-27309524D01*
X27472619Y-27357143D01*
X27710714Y-28214286D02*
X28377381Y-28214286D01*
X27329762Y-27976190D02*
X28044048Y-27738095D01*
X28044048Y-28357143D01*
X27377381Y-28642857D02*
X27377381Y-29309524D01*
X28377381Y-28880952D01*
X37042857Y-24777381D02*
X37376191Y-24301190D01*
X37614286Y-24777381D02*
X37614286Y-23777381D01*
X37233333Y-23777381D01*
X37138095Y-23825000D01*
X37090476Y-23872619D01*
X37042857Y-23967857D01*
X37042857Y-24110714D01*
X37090476Y-24205952D01*
X37138095Y-24253571D01*
X37233333Y-24301190D01*
X37614286Y-24301190D01*
X36709524Y-23777381D02*
X36090476Y-23777381D01*
X36423810Y-24158333D01*
X36280952Y-24158333D01*
X36185714Y-24205952D01*
X36138095Y-24253571D01*
X36090476Y-24348810D01*
X36090476Y-24586905D01*
X36138095Y-24682143D01*
X36185714Y-24729762D01*
X36280952Y-24777381D01*
X36566667Y-24777381D01*
X36661905Y-24729762D01*
X36709524Y-24682143D01*
X35471429Y-23777381D02*
X35376190Y-23777381D01*
X35280952Y-23825000D01*
X35233333Y-23872619D01*
X35185714Y-23967857D01*
X35138095Y-24158333D01*
X35138095Y-24396429D01*
X35185714Y-24586905D01*
X35233333Y-24682143D01*
X35280952Y-24729762D01*
X35376190Y-24777381D01*
X35471429Y-24777381D01*
X35566667Y-24729762D01*
X35614286Y-24682143D01*
X35661905Y-24586905D01*
X35709524Y-24396429D01*
X35709524Y-24158333D01*
X35661905Y-23967857D01*
X35614286Y-23872619D01*
X35566667Y-23825000D01*
X35471429Y-23777381D01*
X67702381Y-31988095D02*
X68511905Y-31988095D01*
X68607143Y-32035714D01*
X68654762Y-32083333D01*
X68702381Y-32178571D01*
X68702381Y-32369048D01*
X68654762Y-32464286D01*
X68607143Y-32511905D01*
X68511905Y-32559524D01*
X67702381Y-32559524D01*
X68702381Y-33559524D02*
X68702381Y-32988095D01*
X68702381Y-33273809D02*
X67702381Y-33273809D01*
X67845238Y-33178571D01*
X67940476Y-33083333D01*
X67988095Y-32988095D01*
X49761905Y-7652381D02*
X49761905Y-8461905D01*
X49714286Y-8557143D01*
X49666667Y-8604762D01*
X49571429Y-8652381D01*
X49380952Y-8652381D01*
X49285714Y-8604762D01*
X49238095Y-8557143D01*
X49190476Y-8461905D01*
X49190476Y-7652381D01*
X48761905Y-7747619D02*
X48714286Y-7700000D01*
X48619048Y-7652381D01*
X48380952Y-7652381D01*
X48285714Y-7700000D01*
X48238095Y-7747619D01*
X48190476Y-7842857D01*
X48190476Y-7938095D01*
X48238095Y-8080952D01*
X48809524Y-8652381D01*
X48190476Y-8652381D01*
X14252381Y-29761905D02*
X15061905Y-29761905D01*
X15157143Y-29809524D01*
X15204762Y-29857143D01*
X15252381Y-29952381D01*
X15252381Y-30142858D01*
X15204762Y-30238096D01*
X15157143Y-30285715D01*
X15061905Y-30333334D01*
X14252381Y-30333334D01*
X15252381Y-31333334D02*
X15252381Y-30761905D01*
X15252381Y-31047619D02*
X14252381Y-31047619D01*
X14395238Y-30952381D01*
X14490476Y-30857143D01*
X14538095Y-30761905D01*
X14252381Y-32238096D02*
X14252381Y-31761905D01*
X14728571Y-31714286D01*
X14680952Y-31761905D01*
X14633333Y-31857143D01*
X14633333Y-32095239D01*
X14680952Y-32190477D01*
X14728571Y-32238096D01*
X14823810Y-32285715D01*
X15061905Y-32285715D01*
X15157143Y-32238096D01*
X15204762Y-32190477D01*
X15252381Y-32095239D01*
X15252381Y-31857143D01*
X15204762Y-31761905D01*
X15157143Y-31714286D01*
X9717857Y-51077381D02*
X10051191Y-50601190D01*
X10289286Y-51077381D02*
X10289286Y-50077381D01*
X9908333Y-50077381D01*
X9813095Y-50125000D01*
X9765476Y-50172619D01*
X9717857Y-50267857D01*
X9717857Y-50410714D01*
X9765476Y-50505952D01*
X9813095Y-50553571D01*
X9908333Y-50601190D01*
X10289286Y-50601190D01*
X9384524Y-50077381D02*
X8765476Y-50077381D01*
X9098810Y-50458333D01*
X8955952Y-50458333D01*
X8860714Y-50505952D01*
X8813095Y-50553571D01*
X8765476Y-50648810D01*
X8765476Y-50886905D01*
X8813095Y-50982143D01*
X8860714Y-51029762D01*
X8955952Y-51077381D01*
X9241667Y-51077381D01*
X9336905Y-51029762D01*
X9384524Y-50982143D01*
X8384524Y-50172619D02*
X8336905Y-50125000D01*
X8241667Y-50077381D01*
X8003571Y-50077381D01*
X7908333Y-50125000D01*
X7860714Y-50172619D01*
X7813095Y-50267857D01*
X7813095Y-50363095D01*
X7860714Y-50505952D01*
X8432143Y-51077381D01*
X7813095Y-51077381D01*
X42333333Y-55928571D02*
X42666667Y-55928571D01*
X42666667Y-56452381D02*
X42666667Y-55452381D01*
X42190476Y-55452381D01*
X41285714Y-56452381D02*
X41857143Y-56452381D01*
X41571429Y-56452381D02*
X41571429Y-55452381D01*
X41666667Y-55595238D01*
X41761905Y-55690476D01*
X41857143Y-55738095D01*
X42833333Y-62428571D02*
X43166667Y-62428571D01*
X43166667Y-62952381D02*
X43166667Y-61952381D01*
X42690476Y-61952381D01*
X42357143Y-62047619D02*
X42309524Y-62000000D01*
X42214286Y-61952381D01*
X41976190Y-61952381D01*
X41880952Y-62000000D01*
X41833333Y-62047619D01*
X41785714Y-62142857D01*
X41785714Y-62238095D01*
X41833333Y-62380952D01*
X42404762Y-62952381D01*
X41785714Y-62952381D01*
D12*
X4591666Y-45376190D02*
X4591666Y-45733333D01*
X4615476Y-45804762D01*
X4663095Y-45852381D01*
X4734523Y-45876190D01*
X4782142Y-45876190D01*
X4401190Y-45376190D02*
X4091667Y-45376190D01*
X4258333Y-45566667D01*
X4186905Y-45566667D01*
X4139286Y-45590476D01*
X4115476Y-45614286D01*
X4091667Y-45661905D01*
X4091667Y-45780952D01*
X4115476Y-45828571D01*
X4139286Y-45852381D01*
X4186905Y-45876190D01*
X4329762Y-45876190D01*
X4377381Y-45852381D01*
X4401190Y-45828571D01*
D10*
X61627381Y-47557143D02*
X61151190Y-47223809D01*
X61627381Y-46985714D02*
X60627381Y-46985714D01*
X60627381Y-47366667D01*
X60675000Y-47461905D01*
X60722619Y-47509524D01*
X60817857Y-47557143D01*
X60960714Y-47557143D01*
X61055952Y-47509524D01*
X61103571Y-47461905D01*
X61151190Y-47366667D01*
X61151190Y-46985714D01*
X61627381Y-48509524D02*
X61627381Y-47938095D01*
X61627381Y-48223809D02*
X60627381Y-48223809D01*
X60770238Y-48128571D01*
X60865476Y-48033333D01*
X60913095Y-47938095D01*
X60722619Y-48890476D02*
X60675000Y-48938095D01*
X60627381Y-49033333D01*
X60627381Y-49271429D01*
X60675000Y-49366667D01*
X60722619Y-49414286D01*
X60817857Y-49461905D01*
X60913095Y-49461905D01*
X61055952Y-49414286D01*
X61627381Y-48842857D01*
X61627381Y-49461905D01*
D12*
X4946428Y-43951190D02*
X5113095Y-43713095D01*
X5232142Y-43951190D02*
X5232142Y-43451190D01*
X5041666Y-43451190D01*
X4994047Y-43475000D01*
X4970238Y-43498810D01*
X4946428Y-43546429D01*
X4946428Y-43617857D01*
X4970238Y-43665476D01*
X4994047Y-43689286D01*
X5041666Y-43713095D01*
X5232142Y-43713095D01*
X4755952Y-43498810D02*
X4732142Y-43475000D01*
X4684523Y-43451190D01*
X4565476Y-43451190D01*
X4517857Y-43475000D01*
X4494047Y-43498810D01*
X4470238Y-43546429D01*
X4470238Y-43594048D01*
X4494047Y-43665476D01*
X4779761Y-43951190D01*
X4470238Y-43951190D01*
X4279762Y-43498810D02*
X4255952Y-43475000D01*
X4208333Y-43451190D01*
X4089286Y-43451190D01*
X4041667Y-43475000D01*
X4017857Y-43498810D01*
X3994048Y-43546429D01*
X3994048Y-43594048D01*
X4017857Y-43665476D01*
X4303571Y-43951190D01*
X3994048Y-43951190D01*
X4946428Y-43201190D02*
X5113095Y-42963095D01*
X5232142Y-43201190D02*
X5232142Y-42701190D01*
X5041666Y-42701190D01*
X4994047Y-42725000D01*
X4970238Y-42748810D01*
X4946428Y-42796429D01*
X4946428Y-42867857D01*
X4970238Y-42915476D01*
X4994047Y-42939286D01*
X5041666Y-42963095D01*
X5232142Y-42963095D01*
X4779761Y-42701190D02*
X4470238Y-42701190D01*
X4636904Y-42891667D01*
X4565476Y-42891667D01*
X4517857Y-42915476D01*
X4494047Y-42939286D01*
X4470238Y-42986905D01*
X4470238Y-43105952D01*
X4494047Y-43153571D01*
X4517857Y-43177381D01*
X4565476Y-43201190D01*
X4708333Y-43201190D01*
X4755952Y-43177381D01*
X4779761Y-43153571D01*
X4017857Y-42701190D02*
X4255952Y-42701190D01*
X4279762Y-42939286D01*
X4255952Y-42915476D01*
X4208333Y-42891667D01*
X4089286Y-42891667D01*
X4041667Y-42915476D01*
X4017857Y-42939286D01*
X3994048Y-42986905D01*
X3994048Y-43105952D01*
X4017857Y-43153571D01*
X4041667Y-43177381D01*
X4089286Y-43201190D01*
X4208333Y-43201190D01*
X4255952Y-43177381D01*
X4279762Y-43153571D01*
D10*
X61777381Y-43735714D02*
X60777381Y-43735714D01*
X60777381Y-43973809D01*
X60825000Y-44116667D01*
X60920238Y-44211905D01*
X61015476Y-44259524D01*
X61205952Y-44307143D01*
X61348810Y-44307143D01*
X61539286Y-44259524D01*
X61634524Y-44211905D01*
X61729762Y-44116667D01*
X61777381Y-43973809D01*
X61777381Y-43735714D01*
X61777381Y-45259524D02*
X61777381Y-44688095D01*
X61777381Y-44973809D02*
X60777381Y-44973809D01*
X60920238Y-44878571D01*
X61015476Y-44783333D01*
X61063095Y-44688095D01*
X60777381Y-45592857D02*
X60777381Y-46211905D01*
X61158333Y-45878571D01*
X61158333Y-46021429D01*
X61205952Y-46116667D01*
X61253571Y-46164286D01*
X61348810Y-46211905D01*
X61586905Y-46211905D01*
X61682143Y-46164286D01*
X61729762Y-46116667D01*
X61777381Y-46021429D01*
X61777381Y-45735714D01*
X61729762Y-45640476D01*
X61682143Y-45592857D01*
X27077381Y-34161905D02*
X27886905Y-34161905D01*
X27982143Y-34209524D01*
X28029762Y-34257143D01*
X28077381Y-34352381D01*
X28077381Y-34542858D01*
X28029762Y-34638096D01*
X27982143Y-34685715D01*
X27886905Y-34733334D01*
X27077381Y-34733334D01*
X28077381Y-35733334D02*
X28077381Y-35161905D01*
X28077381Y-35447619D02*
X27077381Y-35447619D01*
X27220238Y-35352381D01*
X27315476Y-35257143D01*
X27363095Y-35161905D01*
X27077381Y-36590477D02*
X27077381Y-36400000D01*
X27125000Y-36304762D01*
X27172619Y-36257143D01*
X27315476Y-36161905D01*
X27505952Y-36114286D01*
X27886905Y-36114286D01*
X27982143Y-36161905D01*
X28029762Y-36209524D01*
X28077381Y-36304762D01*
X28077381Y-36495239D01*
X28029762Y-36590477D01*
X27982143Y-36638096D01*
X27886905Y-36685715D01*
X27648810Y-36685715D01*
X27553571Y-36638096D01*
X27505952Y-36590477D01*
X27458333Y-36495239D01*
X27458333Y-36304762D01*
X27505952Y-36209524D01*
X27553571Y-36161905D01*
X27648810Y-36114286D01*
D12*
X32821428Y-42178571D02*
X32845238Y-42202381D01*
X32916666Y-42226190D01*
X32964285Y-42226190D01*
X33035714Y-42202381D01*
X33083333Y-42154762D01*
X33107142Y-42107143D01*
X33130952Y-42011905D01*
X33130952Y-41940476D01*
X33107142Y-41845238D01*
X33083333Y-41797619D01*
X33035714Y-41750000D01*
X32964285Y-41726190D01*
X32916666Y-41726190D01*
X32845238Y-41750000D01*
X32821428Y-41773810D01*
X32392857Y-41892857D02*
X32392857Y-42226190D01*
X32511904Y-41702381D02*
X32630952Y-42059524D01*
X32321428Y-42059524D01*
X32059524Y-41940476D02*
X32107143Y-41916667D01*
X32130952Y-41892857D01*
X32154762Y-41845238D01*
X32154762Y-41821429D01*
X32130952Y-41773810D01*
X32107143Y-41750000D01*
X32059524Y-41726190D01*
X31964286Y-41726190D01*
X31916667Y-41750000D01*
X31892857Y-41773810D01*
X31869048Y-41821429D01*
X31869048Y-41845238D01*
X31892857Y-41892857D01*
X31916667Y-41916667D01*
X31964286Y-41940476D01*
X32059524Y-41940476D01*
X32107143Y-41964286D01*
X32130952Y-41988095D01*
X32154762Y-42035714D01*
X32154762Y-42130952D01*
X32130952Y-42178571D01*
X32107143Y-42202381D01*
X32059524Y-42226190D01*
X31964286Y-42226190D01*
X31916667Y-42202381D01*
X31892857Y-42178571D01*
X31869048Y-42130952D01*
X31869048Y-42035714D01*
X31892857Y-41988095D01*
X31916667Y-41964286D01*
X31964286Y-41940476D01*
D10*
X31242857Y-28157143D02*
X31290476Y-28204762D01*
X31433333Y-28252381D01*
X31528571Y-28252381D01*
X31671429Y-28204762D01*
X31766667Y-28109524D01*
X31814286Y-28014286D01*
X31861905Y-27823810D01*
X31861905Y-27680952D01*
X31814286Y-27490476D01*
X31766667Y-27395238D01*
X31671429Y-27300000D01*
X31528571Y-27252381D01*
X31433333Y-27252381D01*
X31290476Y-27300000D01*
X31242857Y-27347619D01*
X30385714Y-27585714D02*
X30385714Y-28252381D01*
X30623810Y-27204762D02*
X30861905Y-27919048D01*
X30242857Y-27919048D01*
X29814286Y-28252381D02*
X29623810Y-28252381D01*
X29528571Y-28204762D01*
X29480952Y-28157143D01*
X29385714Y-28014286D01*
X29338095Y-27823810D01*
X29338095Y-27442857D01*
X29385714Y-27347619D01*
X29433333Y-27300000D01*
X29528571Y-27252381D01*
X29719048Y-27252381D01*
X29814286Y-27300000D01*
X29861905Y-27347619D01*
X29909524Y-27442857D01*
X29909524Y-27680952D01*
X29861905Y-27776190D01*
X29814286Y-27823810D01*
X29719048Y-27871429D01*
X29528571Y-27871429D01*
X29433333Y-27823810D01*
X29385714Y-27776190D01*
X29338095Y-27680952D01*
D12*
X34571428Y-42226190D02*
X34738095Y-41988095D01*
X34857142Y-42226190D02*
X34857142Y-41726190D01*
X34666666Y-41726190D01*
X34619047Y-41750000D01*
X34595238Y-41773810D01*
X34571428Y-41821429D01*
X34571428Y-41892857D01*
X34595238Y-41940476D01*
X34619047Y-41964286D01*
X34666666Y-41988095D01*
X34857142Y-41988095D01*
X34404761Y-41726190D02*
X34095238Y-41726190D01*
X34261904Y-41916667D01*
X34190476Y-41916667D01*
X34142857Y-41940476D01*
X34119047Y-41964286D01*
X34095238Y-42011905D01*
X34095238Y-42130952D01*
X34119047Y-42178571D01*
X34142857Y-42202381D01*
X34190476Y-42226190D01*
X34333333Y-42226190D01*
X34380952Y-42202381D01*
X34404761Y-42178571D01*
X33666667Y-41726190D02*
X33761905Y-41726190D01*
X33809524Y-41750000D01*
X33833333Y-41773810D01*
X33880952Y-41845238D01*
X33904762Y-41940476D01*
X33904762Y-42130952D01*
X33880952Y-42178571D01*
X33857143Y-42202381D01*
X33809524Y-42226190D01*
X33714286Y-42226190D01*
X33666667Y-42202381D01*
X33642857Y-42178571D01*
X33619048Y-42130952D01*
X33619048Y-42011905D01*
X33642857Y-41964286D01*
X33666667Y-41940476D01*
X33714286Y-41916667D01*
X33809524Y-41916667D01*
X33857143Y-41940476D01*
X33880952Y-41964286D01*
X33904762Y-42011905D01*
X30821428Y-40726190D02*
X30988095Y-40488095D01*
X31107142Y-40726190D02*
X31107142Y-40226190D01*
X30916666Y-40226190D01*
X30869047Y-40250000D01*
X30845238Y-40273810D01*
X30821428Y-40321429D01*
X30821428Y-40392857D01*
X30845238Y-40440476D01*
X30869047Y-40464286D01*
X30916666Y-40488095D01*
X31107142Y-40488095D01*
X30654761Y-40226190D02*
X30345238Y-40226190D01*
X30511904Y-40416667D01*
X30440476Y-40416667D01*
X30392857Y-40440476D01*
X30369047Y-40464286D01*
X30345238Y-40511905D01*
X30345238Y-40630952D01*
X30369047Y-40678571D01*
X30392857Y-40702381D01*
X30440476Y-40726190D01*
X30583333Y-40726190D01*
X30630952Y-40702381D01*
X30654761Y-40678571D01*
X30178571Y-40226190D02*
X29845238Y-40226190D01*
X30059524Y-40726190D01*
X37476190Y-35278572D02*
X37238095Y-35111905D01*
X37476190Y-34992858D02*
X36976190Y-34992858D01*
X36976190Y-35183334D01*
X37000000Y-35230953D01*
X37023810Y-35254762D01*
X37071429Y-35278572D01*
X37142857Y-35278572D01*
X37190476Y-35254762D01*
X37214286Y-35230953D01*
X37238095Y-35183334D01*
X37238095Y-34992858D01*
X36976190Y-35445239D02*
X36976190Y-35754762D01*
X37166667Y-35588096D01*
X37166667Y-35659524D01*
X37190476Y-35707143D01*
X37214286Y-35730953D01*
X37261905Y-35754762D01*
X37380952Y-35754762D01*
X37428571Y-35730953D01*
X37452381Y-35707143D01*
X37476190Y-35659524D01*
X37476190Y-35516667D01*
X37452381Y-35469048D01*
X37428571Y-35445239D01*
X37190476Y-36040476D02*
X37166667Y-35992857D01*
X37142857Y-35969048D01*
X37095238Y-35945238D01*
X37071429Y-35945238D01*
X37023810Y-35969048D01*
X37000000Y-35992857D01*
X36976190Y-36040476D01*
X36976190Y-36135714D01*
X37000000Y-36183333D01*
X37023810Y-36207143D01*
X37071429Y-36230952D01*
X37095238Y-36230952D01*
X37142857Y-36207143D01*
X37166667Y-36183333D01*
X37190476Y-36135714D01*
X37190476Y-36040476D01*
X37214286Y-35992857D01*
X37238095Y-35969048D01*
X37285714Y-35945238D01*
X37380952Y-35945238D01*
X37428571Y-35969048D01*
X37452381Y-35992857D01*
X37476190Y-36040476D01*
X37476190Y-36135714D01*
X37452381Y-36183333D01*
X37428571Y-36207143D01*
X37380952Y-36230952D01*
X37285714Y-36230952D01*
X37238095Y-36207143D01*
X37214286Y-36183333D01*
X37190476Y-36135714D01*
X35976190Y-33678572D02*
X35738095Y-33511905D01*
X35976190Y-33392858D02*
X35476190Y-33392858D01*
X35476190Y-33583334D01*
X35500000Y-33630953D01*
X35523810Y-33654762D01*
X35571429Y-33678572D01*
X35642857Y-33678572D01*
X35690476Y-33654762D01*
X35714286Y-33630953D01*
X35738095Y-33583334D01*
X35738095Y-33392858D01*
X35476190Y-33845239D02*
X35476190Y-34154762D01*
X35666667Y-33988096D01*
X35666667Y-34059524D01*
X35690476Y-34107143D01*
X35714286Y-34130953D01*
X35761905Y-34154762D01*
X35880952Y-34154762D01*
X35928571Y-34130953D01*
X35952381Y-34107143D01*
X35976190Y-34059524D01*
X35976190Y-33916667D01*
X35952381Y-33869048D01*
X35928571Y-33845239D01*
X35976190Y-34630952D02*
X35976190Y-34345238D01*
X35976190Y-34488095D02*
X35476190Y-34488095D01*
X35547619Y-34440476D01*
X35595238Y-34392857D01*
X35619048Y-34345238D01*
D10*
X6238095Y-79702381D02*
X6238095Y-78702381D01*
X5857142Y-78702381D01*
X5761904Y-78750000D01*
X5714285Y-78797619D01*
X5666666Y-78892857D01*
X5666666Y-79035714D01*
X5714285Y-79130952D01*
X5761904Y-79178571D01*
X5857142Y-79226190D01*
X6238095Y-79226190D01*
X4809523Y-79035714D02*
X4809523Y-79702381D01*
X5047619Y-78654762D02*
X5285714Y-79369048D01*
X4666666Y-79369048D01*
X49333333Y-78702381D02*
X49333333Y-79416667D01*
X49380953Y-79559524D01*
X49476191Y-79654762D01*
X49619048Y-79702381D01*
X49714286Y-79702381D01*
X48904762Y-78797619D02*
X48857143Y-78750000D01*
X48761905Y-78702381D01*
X48523809Y-78702381D01*
X48428571Y-78750000D01*
X48380952Y-78797619D01*
X48333333Y-78892857D01*
X48333333Y-78988095D01*
X48380952Y-79130952D01*
X48952381Y-79702381D01*
X48333333Y-79702381D01*
X51392857Y-51857143D02*
X51440476Y-51904762D01*
X51583333Y-51952381D01*
X51678571Y-51952381D01*
X51821429Y-51904762D01*
X51916667Y-51809524D01*
X51964286Y-51714286D01*
X52011905Y-51523810D01*
X52011905Y-51380952D01*
X51964286Y-51190476D01*
X51916667Y-51095238D01*
X51821429Y-51000000D01*
X51678571Y-50952381D01*
X51583333Y-50952381D01*
X51440476Y-51000000D01*
X51392857Y-51047619D01*
X50488095Y-50952381D02*
X50964286Y-50952381D01*
X51011905Y-51428571D01*
X50964286Y-51380952D01*
X50869048Y-51333333D01*
X50630952Y-51333333D01*
X50535714Y-51380952D01*
X50488095Y-51428571D01*
X50440476Y-51523810D01*
X50440476Y-51761905D01*
X50488095Y-51857143D01*
X50535714Y-51904762D01*
X50630952Y-51952381D01*
X50869048Y-51952381D01*
X50964286Y-51904762D01*
X51011905Y-51857143D01*
X49821429Y-50952381D02*
X49726190Y-50952381D01*
X49630952Y-51000000D01*
X49583333Y-51047619D01*
X49535714Y-51142857D01*
X49488095Y-51333333D01*
X49488095Y-51571429D01*
X49535714Y-51761905D01*
X49583333Y-51857143D01*
X49630952Y-51904762D01*
X49726190Y-51952381D01*
X49821429Y-51952381D01*
X49916667Y-51904762D01*
X49964286Y-51857143D01*
X50011905Y-51761905D01*
X50059524Y-51571429D01*
X50059524Y-51333333D01*
X50011905Y-51142857D01*
X49964286Y-51047619D01*
X49916667Y-51000000D01*
X49821429Y-50952381D01*
D12*
X29476190Y-41428572D02*
X29238095Y-41261905D01*
X29476190Y-41142858D02*
X28976190Y-41142858D01*
X28976190Y-41333334D01*
X29000000Y-41380953D01*
X29023810Y-41404762D01*
X29071429Y-41428572D01*
X29142857Y-41428572D01*
X29190476Y-41404762D01*
X29214286Y-41380953D01*
X29238095Y-41333334D01*
X29238095Y-41142858D01*
X29476190Y-41904762D02*
X29476190Y-41619048D01*
X29476190Y-41761905D02*
X28976190Y-41761905D01*
X29047619Y-41714286D01*
X29095238Y-41666667D01*
X29119048Y-41619048D01*
X29142857Y-42333333D02*
X29476190Y-42333333D01*
X28952381Y-42214286D02*
X29309524Y-42095238D01*
X29309524Y-42404762D01*
D10*
X16052381Y-36757143D02*
X15576190Y-36423809D01*
X16052381Y-36185714D02*
X15052381Y-36185714D01*
X15052381Y-36566667D01*
X15100000Y-36661905D01*
X15147619Y-36709524D01*
X15242857Y-36757143D01*
X15385714Y-36757143D01*
X15480952Y-36709524D01*
X15528571Y-36661905D01*
X15576190Y-36566667D01*
X15576190Y-36185714D01*
X16052381Y-37709524D02*
X16052381Y-37138095D01*
X16052381Y-37423809D02*
X15052381Y-37423809D01*
X15195238Y-37328571D01*
X15290476Y-37233333D01*
X15338095Y-37138095D01*
X15052381Y-38614286D02*
X15052381Y-38138095D01*
X15528571Y-38090476D01*
X15480952Y-38138095D01*
X15433333Y-38233333D01*
X15433333Y-38471429D01*
X15480952Y-38566667D01*
X15528571Y-38614286D01*
X15623810Y-38661905D01*
X15861905Y-38661905D01*
X15957143Y-38614286D01*
X16004762Y-38566667D01*
X16052381Y-38471429D01*
X16052381Y-38233333D01*
X16004762Y-38138095D01*
X15957143Y-38090476D01*
X12042857Y-42052381D02*
X12376191Y-41576190D01*
X12614286Y-42052381D02*
X12614286Y-41052381D01*
X12233333Y-41052381D01*
X12138095Y-41100000D01*
X12090476Y-41147619D01*
X12042857Y-41242857D01*
X12042857Y-41385714D01*
X12090476Y-41480952D01*
X12138095Y-41528571D01*
X12233333Y-41576190D01*
X12614286Y-41576190D01*
X11090476Y-42052381D02*
X11661905Y-42052381D01*
X11376191Y-42052381D02*
X11376191Y-41052381D01*
X11471429Y-41195238D01*
X11566667Y-41290476D01*
X11661905Y-41338095D01*
X10233333Y-41052381D02*
X10423810Y-41052381D01*
X10519048Y-41100000D01*
X10566667Y-41147619D01*
X10661905Y-41290476D01*
X10709524Y-41480952D01*
X10709524Y-41861905D01*
X10661905Y-41957143D01*
X10614286Y-42004762D01*
X10519048Y-42052381D01*
X10328571Y-42052381D01*
X10233333Y-42004762D01*
X10185714Y-41957143D01*
X10138095Y-41861905D01*
X10138095Y-41623810D01*
X10185714Y-41528571D01*
X10233333Y-41480952D01*
X10328571Y-41433333D01*
X10519048Y-41433333D01*
X10614286Y-41480952D01*
X10661905Y-41528571D01*
X10709524Y-41623810D01*
X43952381Y-47457143D02*
X43476190Y-47123809D01*
X43952381Y-46885714D02*
X42952381Y-46885714D01*
X42952381Y-47266667D01*
X43000000Y-47361905D01*
X43047619Y-47409524D01*
X43142857Y-47457143D01*
X43285714Y-47457143D01*
X43380952Y-47409524D01*
X43428571Y-47361905D01*
X43476190Y-47266667D01*
X43476190Y-46885714D01*
X43952381Y-48409524D02*
X43952381Y-47838095D01*
X43952381Y-48123809D02*
X42952381Y-48123809D01*
X43095238Y-48028571D01*
X43190476Y-47933333D01*
X43238095Y-47838095D01*
X43380952Y-48980952D02*
X43333333Y-48885714D01*
X43285714Y-48838095D01*
X43190476Y-48790476D01*
X43142857Y-48790476D01*
X43047619Y-48838095D01*
X43000000Y-48885714D01*
X42952381Y-48980952D01*
X42952381Y-49171429D01*
X43000000Y-49266667D01*
X43047619Y-49314286D01*
X43142857Y-49361905D01*
X43190476Y-49361905D01*
X43285714Y-49314286D01*
X43333333Y-49266667D01*
X43380952Y-49171429D01*
X43380952Y-48980952D01*
X43428571Y-48885714D01*
X43476190Y-48838095D01*
X43571429Y-48790476D01*
X43761905Y-48790476D01*
X43857143Y-48838095D01*
X43904762Y-48885714D01*
X43952381Y-48980952D01*
X43952381Y-49171429D01*
X43904762Y-49266667D01*
X43857143Y-49314286D01*
X43761905Y-49361905D01*
X43571429Y-49361905D01*
X43476190Y-49314286D01*
X43428571Y-49266667D01*
X43380952Y-49171429D01*
X12342857Y-38652381D02*
X12676191Y-38176190D01*
X12914286Y-38652381D02*
X12914286Y-37652381D01*
X12533333Y-37652381D01*
X12438095Y-37700000D01*
X12390476Y-37747619D01*
X12342857Y-37842857D01*
X12342857Y-37985714D01*
X12390476Y-38080952D01*
X12438095Y-38128571D01*
X12533333Y-38176190D01*
X12914286Y-38176190D01*
X12009524Y-37652381D02*
X11390476Y-37652381D01*
X11723810Y-38033333D01*
X11580952Y-38033333D01*
X11485714Y-38080952D01*
X11438095Y-38128571D01*
X11390476Y-38223810D01*
X11390476Y-38461905D01*
X11438095Y-38557143D01*
X11485714Y-38604762D01*
X11580952Y-38652381D01*
X11866667Y-38652381D01*
X11961905Y-38604762D01*
X12009524Y-38557143D01*
X11057143Y-37652381D02*
X10438095Y-37652381D01*
X10771429Y-38033333D01*
X10628571Y-38033333D01*
X10533333Y-38080952D01*
X10485714Y-38128571D01*
X10438095Y-38223810D01*
X10438095Y-38461905D01*
X10485714Y-38557143D01*
X10533333Y-38604762D01*
X10628571Y-38652381D01*
X10914286Y-38652381D01*
X11009524Y-38604762D01*
X11057143Y-38557143D01*
D12*
X8209523Y-43251190D02*
X8376190Y-43013095D01*
X8495237Y-43251190D02*
X8495237Y-42751190D01*
X8304761Y-42751190D01*
X8257142Y-42775000D01*
X8233333Y-42798810D01*
X8209523Y-42846429D01*
X8209523Y-42917857D01*
X8233333Y-42965476D01*
X8257142Y-42989286D01*
X8304761Y-43013095D01*
X8495237Y-43013095D01*
X7733333Y-43251190D02*
X8019047Y-43251190D01*
X7876190Y-43251190D02*
X7876190Y-42751190D01*
X7923809Y-42822619D01*
X7971428Y-42870238D01*
X8019047Y-42894048D01*
X7423809Y-42751190D02*
X7376190Y-42751190D01*
X7328571Y-42775000D01*
X7304762Y-42798810D01*
X7280952Y-42846429D01*
X7257143Y-42941667D01*
X7257143Y-43060714D01*
X7280952Y-43155952D01*
X7304762Y-43203571D01*
X7328571Y-43227381D01*
X7376190Y-43251190D01*
X7423809Y-43251190D01*
X7471428Y-43227381D01*
X7495238Y-43203571D01*
X7519047Y-43155952D01*
X7542857Y-43060714D01*
X7542857Y-42941667D01*
X7519047Y-42846429D01*
X7495238Y-42798810D01*
X7471428Y-42775000D01*
X7423809Y-42751190D01*
X6947619Y-42751190D02*
X6900000Y-42751190D01*
X6852381Y-42775000D01*
X6828572Y-42798810D01*
X6804762Y-42846429D01*
X6780953Y-42941667D01*
X6780953Y-43060714D01*
X6804762Y-43155952D01*
X6828572Y-43203571D01*
X6852381Y-43227381D01*
X6900000Y-43251190D01*
X6947619Y-43251190D01*
X6995238Y-43227381D01*
X7019048Y-43203571D01*
X7042857Y-43155952D01*
X7066667Y-43060714D01*
X7066667Y-42941667D01*
X7042857Y-42846429D01*
X7019048Y-42798810D01*
X6995238Y-42775000D01*
X6947619Y-42751190D01*
X35561428Y-28898571D02*
X35585238Y-28922381D01*
X35656666Y-28946190D01*
X35704285Y-28946190D01*
X35775714Y-28922381D01*
X35823333Y-28874762D01*
X35847142Y-28827143D01*
X35870952Y-28731905D01*
X35870952Y-28660476D01*
X35847142Y-28565238D01*
X35823333Y-28517619D01*
X35775714Y-28470000D01*
X35704285Y-28446190D01*
X35656666Y-28446190D01*
X35585238Y-28470000D01*
X35561428Y-28493810D01*
X35394761Y-28446190D02*
X35085238Y-28446190D01*
X35251904Y-28636667D01*
X35180476Y-28636667D01*
X35132857Y-28660476D01*
X35109047Y-28684286D01*
X35085238Y-28731905D01*
X35085238Y-28850952D01*
X35109047Y-28898571D01*
X35132857Y-28922381D01*
X35180476Y-28946190D01*
X35323333Y-28946190D01*
X35370952Y-28922381D01*
X35394761Y-28898571D01*
X34894762Y-28493810D02*
X34870952Y-28470000D01*
X34823333Y-28446190D01*
X34704286Y-28446190D01*
X34656667Y-28470000D01*
X34632857Y-28493810D01*
X34609048Y-28541429D01*
X34609048Y-28589048D01*
X34632857Y-28660476D01*
X34918571Y-28946190D01*
X34609048Y-28946190D01*
X27726190Y-44578572D02*
X27488095Y-44411905D01*
X27726190Y-44292858D02*
X27226190Y-44292858D01*
X27226190Y-44483334D01*
X27250000Y-44530953D01*
X27273810Y-44554762D01*
X27321429Y-44578572D01*
X27392857Y-44578572D01*
X27440476Y-44554762D01*
X27464286Y-44530953D01*
X27488095Y-44483334D01*
X27488095Y-44292858D01*
X27226190Y-44745239D02*
X27226190Y-45054762D01*
X27416667Y-44888096D01*
X27416667Y-44959524D01*
X27440476Y-45007143D01*
X27464286Y-45030953D01*
X27511905Y-45054762D01*
X27630952Y-45054762D01*
X27678571Y-45030953D01*
X27702381Y-45007143D01*
X27726190Y-44959524D01*
X27726190Y-44816667D01*
X27702381Y-44769048D01*
X27678571Y-44745239D01*
X27392857Y-45483333D02*
X27726190Y-45483333D01*
X27202381Y-45364286D02*
X27559524Y-45245238D01*
X27559524Y-45554762D01*
D10*
X34457143Y-22357143D02*
X34504762Y-22309524D01*
X34552381Y-22166667D01*
X34552381Y-22071429D01*
X34504762Y-21928571D01*
X34409524Y-21833333D01*
X34314286Y-21785714D01*
X34123810Y-21738095D01*
X33980952Y-21738095D01*
X33790476Y-21785714D01*
X33695238Y-21833333D01*
X33600000Y-21928571D01*
X33552381Y-22071429D01*
X33552381Y-22166667D01*
X33600000Y-22309524D01*
X33647619Y-22357143D01*
X33552381Y-23214286D02*
X33552381Y-23023809D01*
X33600000Y-22928571D01*
X33647619Y-22880952D01*
X33790476Y-22785714D01*
X33980952Y-22738095D01*
X34361905Y-22738095D01*
X34457143Y-22785714D01*
X34504762Y-22833333D01*
X34552381Y-22928571D01*
X34552381Y-23119048D01*
X34504762Y-23214286D01*
X34457143Y-23261905D01*
X34361905Y-23309524D01*
X34123810Y-23309524D01*
X34028571Y-23261905D01*
X33980952Y-23214286D01*
X33933333Y-23119048D01*
X33933333Y-22928571D01*
X33980952Y-22833333D01*
X34028571Y-22785714D01*
X34123810Y-22738095D01*
X33552381Y-23928571D02*
X33552381Y-24023810D01*
X33600000Y-24119048D01*
X33647619Y-24166667D01*
X33742857Y-24214286D01*
X33933333Y-24261905D01*
X34171429Y-24261905D01*
X34361905Y-24214286D01*
X34457143Y-24166667D01*
X34504762Y-24119048D01*
X34552381Y-24023810D01*
X34552381Y-23928571D01*
X34504762Y-23833333D01*
X34457143Y-23785714D01*
X34361905Y-23738095D01*
X34171429Y-23690476D01*
X33933333Y-23690476D01*
X33742857Y-23738095D01*
X33647619Y-23785714D01*
X33600000Y-23833333D01*
X33552381Y-23928571D01*
X31367857Y-24782143D02*
X31415476Y-24829762D01*
X31558333Y-24877381D01*
X31653571Y-24877381D01*
X31796429Y-24829762D01*
X31891667Y-24734524D01*
X31939286Y-24639286D01*
X31986905Y-24448810D01*
X31986905Y-24305952D01*
X31939286Y-24115476D01*
X31891667Y-24020238D01*
X31796429Y-23925000D01*
X31653571Y-23877381D01*
X31558333Y-23877381D01*
X31415476Y-23925000D01*
X31367857Y-23972619D01*
X30510714Y-23877381D02*
X30701191Y-23877381D01*
X30796429Y-23925000D01*
X30844048Y-23972619D01*
X30939286Y-24115476D01*
X30986905Y-24305952D01*
X30986905Y-24686905D01*
X30939286Y-24782143D01*
X30891667Y-24829762D01*
X30796429Y-24877381D01*
X30605952Y-24877381D01*
X30510714Y-24829762D01*
X30463095Y-24782143D01*
X30415476Y-24686905D01*
X30415476Y-24448810D01*
X30463095Y-24353571D01*
X30510714Y-24305952D01*
X30605952Y-24258333D01*
X30796429Y-24258333D01*
X30891667Y-24305952D01*
X30939286Y-24353571D01*
X30986905Y-24448810D01*
X29463095Y-24877381D02*
X30034524Y-24877381D01*
X29748810Y-24877381D02*
X29748810Y-23877381D01*
X29844048Y-24020238D01*
X29939286Y-24115476D01*
X30034524Y-24163095D01*
X61157143Y-1657143D02*
X61204762Y-1609524D01*
X61252381Y-1466667D01*
X61252381Y-1371429D01*
X61204762Y-1228571D01*
X61109524Y-1133333D01*
X61014286Y-1085714D01*
X60823810Y-1038095D01*
X60680952Y-1038095D01*
X60490476Y-1085714D01*
X60395238Y-1133333D01*
X60300000Y-1228571D01*
X60252381Y-1371429D01*
X60252381Y-1466667D01*
X60300000Y-1609524D01*
X60347619Y-1657143D01*
X60252381Y-2514286D02*
X60252381Y-2323809D01*
X60300000Y-2228571D01*
X60347619Y-2180952D01*
X60490476Y-2085714D01*
X60680952Y-2038095D01*
X61061905Y-2038095D01*
X61157143Y-2085714D01*
X61204762Y-2133333D01*
X61252381Y-2228571D01*
X61252381Y-2419048D01*
X61204762Y-2514286D01*
X61157143Y-2561905D01*
X61061905Y-2609524D01*
X60823810Y-2609524D01*
X60728571Y-2561905D01*
X60680952Y-2514286D01*
X60633333Y-2419048D01*
X60633333Y-2228571D01*
X60680952Y-2133333D01*
X60728571Y-2085714D01*
X60823810Y-2038095D01*
X60347619Y-2990476D02*
X60300000Y-3038095D01*
X60252381Y-3133333D01*
X60252381Y-3371429D01*
X60300000Y-3466667D01*
X60347619Y-3514286D01*
X60442857Y-3561905D01*
X60538095Y-3561905D01*
X60680952Y-3514286D01*
X61252381Y-2942857D01*
X61252381Y-3561905D01*
X61382143Y-5357143D02*
X61429762Y-5309524D01*
X61477381Y-5166667D01*
X61477381Y-5071429D01*
X61429762Y-4928571D01*
X61334524Y-4833333D01*
X61239286Y-4785714D01*
X61048810Y-4738095D01*
X60905952Y-4738095D01*
X60715476Y-4785714D01*
X60620238Y-4833333D01*
X60525000Y-4928571D01*
X60477381Y-5071429D01*
X60477381Y-5166667D01*
X60525000Y-5309524D01*
X60572619Y-5357143D01*
X60477381Y-6214286D02*
X60477381Y-6023809D01*
X60525000Y-5928571D01*
X60572619Y-5880952D01*
X60715476Y-5785714D01*
X60905952Y-5738095D01*
X61286905Y-5738095D01*
X61382143Y-5785714D01*
X61429762Y-5833333D01*
X61477381Y-5928571D01*
X61477381Y-6119048D01*
X61429762Y-6214286D01*
X61382143Y-6261905D01*
X61286905Y-6309524D01*
X61048810Y-6309524D01*
X60953571Y-6261905D01*
X60905952Y-6214286D01*
X60858333Y-6119048D01*
X60858333Y-5928571D01*
X60905952Y-5833333D01*
X60953571Y-5785714D01*
X61048810Y-5738095D01*
X60477381Y-6642857D02*
X60477381Y-7261905D01*
X60858333Y-6928571D01*
X60858333Y-7071429D01*
X60905952Y-7166667D01*
X60953571Y-7214286D01*
X61048810Y-7261905D01*
X61286905Y-7261905D01*
X61382143Y-7214286D01*
X61429762Y-7166667D01*
X61477381Y-7071429D01*
X61477381Y-6785714D01*
X61429762Y-6690476D01*
X61382143Y-6642857D01*
X54257143Y-20057143D02*
X54304762Y-20009524D01*
X54352381Y-19866667D01*
X54352381Y-19771429D01*
X54304762Y-19628571D01*
X54209524Y-19533333D01*
X54114286Y-19485714D01*
X53923810Y-19438095D01*
X53780952Y-19438095D01*
X53590476Y-19485714D01*
X53495238Y-19533333D01*
X53400000Y-19628571D01*
X53352381Y-19771429D01*
X53352381Y-19866667D01*
X53400000Y-20009524D01*
X53447619Y-20057143D01*
X53352381Y-20390476D02*
X53352381Y-21057143D01*
X54352381Y-20628571D01*
X53352381Y-21628571D02*
X53352381Y-21723810D01*
X53400000Y-21819048D01*
X53447619Y-21866667D01*
X53542857Y-21914286D01*
X53733333Y-21961905D01*
X53971429Y-21961905D01*
X54161905Y-21914286D01*
X54257143Y-21866667D01*
X54304762Y-21819048D01*
X54352381Y-21723810D01*
X54352381Y-21628571D01*
X54304762Y-21533333D01*
X54257143Y-21485714D01*
X54161905Y-21438095D01*
X53971429Y-21390476D01*
X53733333Y-21390476D01*
X53542857Y-21438095D01*
X53447619Y-21485714D01*
X53400000Y-21533333D01*
X53352381Y-21628571D01*
X40017857Y-13832143D02*
X40065476Y-13879762D01*
X40208333Y-13927381D01*
X40303571Y-13927381D01*
X40446429Y-13879762D01*
X40541667Y-13784524D01*
X40589286Y-13689286D01*
X40636905Y-13498810D01*
X40636905Y-13355952D01*
X40589286Y-13165476D01*
X40541667Y-13070238D01*
X40446429Y-12975000D01*
X40303571Y-12927381D01*
X40208333Y-12927381D01*
X40065476Y-12975000D01*
X40017857Y-13022619D01*
X39684524Y-12927381D02*
X39017857Y-12927381D01*
X39446429Y-13927381D01*
X38113095Y-13927381D02*
X38684524Y-13927381D01*
X38398810Y-13927381D02*
X38398810Y-12927381D01*
X38494048Y-13070238D01*
X38589286Y-13165476D01*
X38684524Y-13213095D01*
X57002030Y-18907107D02*
X57002030Y-18974450D01*
X57069374Y-19109137D01*
X57136717Y-19176481D01*
X57271405Y-19243825D01*
X57406092Y-19243825D01*
X57507107Y-19210153D01*
X57675465Y-19109138D01*
X57776481Y-19008122D01*
X57877496Y-18839763D01*
X57911168Y-18738748D01*
X57911168Y-18604061D01*
X57843824Y-18469374D01*
X57776481Y-18402030D01*
X57641794Y-18334687D01*
X57574450Y-18334687D01*
X57406092Y-18031641D02*
X56934687Y-17560237D01*
X56530626Y-18570390D01*
X56631641Y-17391878D02*
X56631641Y-17324535D01*
X56597970Y-17223519D01*
X56429610Y-17055160D01*
X56328595Y-17021488D01*
X56261252Y-17021488D01*
X56160237Y-17055160D01*
X56092893Y-17122504D01*
X56025550Y-17257190D01*
X56025550Y-18065313D01*
X55587817Y-17627580D01*
X63642857Y-13107143D02*
X63690476Y-13154762D01*
X63833333Y-13202381D01*
X63928571Y-13202381D01*
X64071429Y-13154762D01*
X64166667Y-13059524D01*
X64214286Y-12964286D01*
X64261905Y-12773810D01*
X64261905Y-12630952D01*
X64214286Y-12440476D01*
X64166667Y-12345238D01*
X64071429Y-12250000D01*
X63928571Y-12202381D01*
X63833333Y-12202381D01*
X63690476Y-12250000D01*
X63642857Y-12297619D01*
X63309524Y-12202381D02*
X62642857Y-12202381D01*
X63071429Y-13202381D01*
X62357143Y-12202381D02*
X61738095Y-12202381D01*
X62071429Y-12583333D01*
X61928571Y-12583333D01*
X61833333Y-12630952D01*
X61785714Y-12678571D01*
X61738095Y-12773810D01*
X61738095Y-13011905D01*
X61785714Y-13107143D01*
X61833333Y-13154762D01*
X61928571Y-13202381D01*
X62214286Y-13202381D01*
X62309524Y-13154762D01*
X62357143Y-13107143D01*
X77642857Y-5857143D02*
X77690476Y-5904762D01*
X77833333Y-5952381D01*
X77928571Y-5952381D01*
X78071429Y-5904762D01*
X78166667Y-5809524D01*
X78214286Y-5714286D01*
X78261905Y-5523810D01*
X78261905Y-5380952D01*
X78214286Y-5190476D01*
X78166667Y-5095238D01*
X78071429Y-5000000D01*
X77928571Y-4952381D01*
X77833333Y-4952381D01*
X77690476Y-5000000D01*
X77642857Y-5047619D01*
X77309524Y-4952381D02*
X76642857Y-4952381D01*
X77071429Y-5952381D01*
X75833333Y-5285714D02*
X75833333Y-5952381D01*
X76071429Y-4904762D02*
X76309524Y-5619048D01*
X75690476Y-5619048D01*
X75892857Y-1357143D02*
X75940476Y-1404762D01*
X76083333Y-1452381D01*
X76178571Y-1452381D01*
X76321429Y-1404762D01*
X76416667Y-1309524D01*
X76464286Y-1214286D01*
X76511905Y-1023810D01*
X76511905Y-880952D01*
X76464286Y-690476D01*
X76416667Y-595238D01*
X76321429Y-500000D01*
X76178571Y-452381D01*
X76083333Y-452381D01*
X75940476Y-500000D01*
X75892857Y-547619D01*
X75559524Y-452381D02*
X74892857Y-452381D01*
X75321429Y-1452381D01*
X74035714Y-452381D02*
X74511905Y-452381D01*
X74559524Y-928571D01*
X74511905Y-880952D01*
X74416667Y-833333D01*
X74178571Y-833333D01*
X74083333Y-880952D01*
X74035714Y-928571D01*
X73988095Y-1023810D01*
X73988095Y-1261905D01*
X74035714Y-1357143D01*
X74083333Y-1404762D01*
X74178571Y-1452381D01*
X74416667Y-1452381D01*
X74511905Y-1404762D01*
X74559524Y-1357143D01*
X51342857Y-24657143D02*
X51390476Y-24704762D01*
X51533333Y-24752381D01*
X51628571Y-24752381D01*
X51771429Y-24704762D01*
X51866667Y-24609524D01*
X51914286Y-24514286D01*
X51961905Y-24323810D01*
X51961905Y-24180952D01*
X51914286Y-23990476D01*
X51866667Y-23895238D01*
X51771429Y-23800000D01*
X51628571Y-23752381D01*
X51533333Y-23752381D01*
X51390476Y-23800000D01*
X51342857Y-23847619D01*
X51009524Y-23752381D02*
X50390476Y-23752381D01*
X50723810Y-24133333D01*
X50580952Y-24133333D01*
X50485714Y-24180952D01*
X50438095Y-24228571D01*
X50390476Y-24323810D01*
X50390476Y-24561905D01*
X50438095Y-24657143D01*
X50485714Y-24704762D01*
X50580952Y-24752381D01*
X50866667Y-24752381D01*
X50961905Y-24704762D01*
X51009524Y-24657143D01*
X49438095Y-24752381D02*
X50009524Y-24752381D01*
X49723810Y-24752381D02*
X49723810Y-23752381D01*
X49819048Y-23895238D01*
X49914286Y-23990476D01*
X50009524Y-24038095D01*
D12*
X36078571Y-41278572D02*
X36102381Y-41254762D01*
X36126190Y-41183334D01*
X36126190Y-41135715D01*
X36102381Y-41064286D01*
X36054762Y-41016667D01*
X36007143Y-40992858D01*
X35911905Y-40969048D01*
X35840476Y-40969048D01*
X35745238Y-40992858D01*
X35697619Y-41016667D01*
X35650000Y-41064286D01*
X35626190Y-41135715D01*
X35626190Y-41183334D01*
X35650000Y-41254762D01*
X35673810Y-41278572D01*
X36126190Y-41754762D02*
X36126190Y-41469048D01*
X36126190Y-41611905D02*
X35626190Y-41611905D01*
X35697619Y-41564286D01*
X35745238Y-41516667D01*
X35769048Y-41469048D01*
X35626190Y-41921429D02*
X35626190Y-42230952D01*
X35816667Y-42064286D01*
X35816667Y-42135714D01*
X35840476Y-42183333D01*
X35864286Y-42207143D01*
X35911905Y-42230952D01*
X36030952Y-42230952D01*
X36078571Y-42207143D01*
X36102381Y-42183333D01*
X36126190Y-42135714D01*
X36126190Y-41992857D01*
X36102381Y-41945238D01*
X36078571Y-41921429D01*
D10*
X19642857Y-38357143D02*
X19690476Y-38404762D01*
X19833333Y-38452381D01*
X19928571Y-38452381D01*
X20071429Y-38404762D01*
X20166667Y-38309524D01*
X20214286Y-38214286D01*
X20261905Y-38023810D01*
X20261905Y-37880952D01*
X20214286Y-37690476D01*
X20166667Y-37595238D01*
X20071429Y-37500000D01*
X19928571Y-37452381D01*
X19833333Y-37452381D01*
X19690476Y-37500000D01*
X19642857Y-37547619D01*
X18690476Y-38452381D02*
X19261905Y-38452381D01*
X18976191Y-38452381D02*
X18976191Y-37452381D01*
X19071429Y-37595238D01*
X19166667Y-37690476D01*
X19261905Y-37738095D01*
X17833333Y-37785714D02*
X17833333Y-38452381D01*
X18071429Y-37404762D02*
X18309524Y-38119048D01*
X17690476Y-38119048D01*
X30442857Y-49457143D02*
X30490476Y-49504762D01*
X30633333Y-49552381D01*
X30728571Y-49552381D01*
X30871429Y-49504762D01*
X30966667Y-49409524D01*
X31014286Y-49314286D01*
X31061905Y-49123810D01*
X31061905Y-48980952D01*
X31014286Y-48790476D01*
X30966667Y-48695238D01*
X30871429Y-48600000D01*
X30728571Y-48552381D01*
X30633333Y-48552381D01*
X30490476Y-48600000D01*
X30442857Y-48647619D01*
X29490476Y-49552381D02*
X30061905Y-49552381D01*
X29776191Y-49552381D02*
X29776191Y-48552381D01*
X29871429Y-48695238D01*
X29966667Y-48790476D01*
X30061905Y-48838095D01*
X29157143Y-48552381D02*
X28490476Y-48552381D01*
X28919048Y-49552381D01*
X47642857Y-49957143D02*
X47690476Y-50004762D01*
X47833333Y-50052381D01*
X47928571Y-50052381D01*
X48071429Y-50004762D01*
X48166667Y-49909524D01*
X48214286Y-49814286D01*
X48261905Y-49623810D01*
X48261905Y-49480952D01*
X48214286Y-49290476D01*
X48166667Y-49195238D01*
X48071429Y-49100000D01*
X47928571Y-49052381D01*
X47833333Y-49052381D01*
X47690476Y-49100000D01*
X47642857Y-49147619D01*
X46690476Y-50052381D02*
X47261905Y-50052381D01*
X46976191Y-50052381D02*
X46976191Y-49052381D01*
X47071429Y-49195238D01*
X47166667Y-49290476D01*
X47261905Y-49338095D01*
X46119048Y-49480952D02*
X46214286Y-49433333D01*
X46261905Y-49385714D01*
X46309524Y-49290476D01*
X46309524Y-49242857D01*
X46261905Y-49147619D01*
X46214286Y-49100000D01*
X46119048Y-49052381D01*
X45928571Y-49052381D01*
X45833333Y-49100000D01*
X45785714Y-49147619D01*
X45738095Y-49242857D01*
X45738095Y-49290476D01*
X45785714Y-49385714D01*
X45833333Y-49433333D01*
X45928571Y-49480952D01*
X46119048Y-49480952D01*
X46214286Y-49528571D01*
X46261905Y-49576190D01*
X46309524Y-49671429D01*
X46309524Y-49861905D01*
X46261905Y-49957143D01*
X46214286Y-50004762D01*
X46119048Y-50052381D01*
X45928571Y-50052381D01*
X45833333Y-50004762D01*
X45785714Y-49957143D01*
X45738095Y-49861905D01*
X45738095Y-49671429D01*
X45785714Y-49576190D01*
X45833333Y-49528571D01*
X45928571Y-49480952D01*
X11319611Y-60689526D02*
X11892031Y-60588511D01*
X11723672Y-61093588D02*
X12430779Y-60386481D01*
X12161405Y-60117106D01*
X12060389Y-60083435D01*
X11993046Y-60083435D01*
X11892031Y-60117106D01*
X11791016Y-60218121D01*
X11757344Y-60319137D01*
X11757344Y-60386480D01*
X11791016Y-60487495D01*
X12060390Y-60756870D01*
X11791016Y-59746717D02*
X11353283Y-59308984D01*
X11319612Y-59814061D01*
X11218596Y-59713045D01*
X11117581Y-59679373D01*
X11050237Y-59679373D01*
X10949221Y-59713046D01*
X10780863Y-59881404D01*
X10747191Y-59982419D01*
X10747191Y-60049763D01*
X10780863Y-60150778D01*
X10982894Y-60352809D01*
X11083909Y-60386481D01*
X11151252Y-60386481D01*
X10309459Y-59679374D02*
X10174772Y-59544687D01*
X10141099Y-59443671D01*
X10141099Y-59376328D01*
X10174771Y-59207969D01*
X10275786Y-59039611D01*
X10545161Y-58770236D01*
X10646176Y-58736564D01*
X10713519Y-58736564D01*
X10814534Y-58770236D01*
X10949222Y-58904924D01*
X10982894Y-59005939D01*
X10982894Y-59073282D01*
X10949222Y-59174298D01*
X10780863Y-59342656D01*
X10679848Y-59376328D01*
X10612504Y-59376329D01*
X10511489Y-59342657D01*
X10376801Y-59207969D01*
X10343130Y-59106954D01*
X10343130Y-59039610D01*
X10376802Y-58938595D01*
X28842857Y-31457143D02*
X28890476Y-31504762D01*
X29033333Y-31552381D01*
X29128571Y-31552381D01*
X29271429Y-31504762D01*
X29366667Y-31409524D01*
X29414286Y-31314286D01*
X29461905Y-31123810D01*
X29461905Y-30980952D01*
X29414286Y-30790476D01*
X29366667Y-30695238D01*
X29271429Y-30600000D01*
X29128571Y-30552381D01*
X29033333Y-30552381D01*
X28890476Y-30600000D01*
X28842857Y-30647619D01*
X28509524Y-30552381D02*
X27890476Y-30552381D01*
X28223810Y-30933333D01*
X28080952Y-30933333D01*
X27985714Y-30980952D01*
X27938095Y-31028571D01*
X27890476Y-31123810D01*
X27890476Y-31361905D01*
X27938095Y-31457143D01*
X27985714Y-31504762D01*
X28080952Y-31552381D01*
X28366667Y-31552381D01*
X28461905Y-31504762D01*
X28509524Y-31457143D01*
X27414286Y-31552381D02*
X27223810Y-31552381D01*
X27128571Y-31504762D01*
X27080952Y-31457143D01*
X26985714Y-31314286D01*
X26938095Y-31123810D01*
X26938095Y-30742857D01*
X26985714Y-30647619D01*
X27033333Y-30600000D01*
X27128571Y-30552381D01*
X27319048Y-30552381D01*
X27414286Y-30600000D01*
X27461905Y-30647619D01*
X27509524Y-30742857D01*
X27509524Y-30980952D01*
X27461905Y-31076190D01*
X27414286Y-31123810D01*
X27319048Y-31171429D01*
X27128571Y-31171429D01*
X27033333Y-31123810D01*
X26985714Y-31076190D01*
X26938095Y-30980952D01*
X62142857Y-19157143D02*
X62190476Y-19204762D01*
X62333333Y-19252381D01*
X62428571Y-19252381D01*
X62571429Y-19204762D01*
X62666667Y-19109524D01*
X62714286Y-19014286D01*
X62761905Y-18823810D01*
X62761905Y-18680952D01*
X62714286Y-18490476D01*
X62666667Y-18395238D01*
X62571429Y-18300000D01*
X62428571Y-18252381D01*
X62333333Y-18252381D01*
X62190476Y-18300000D01*
X62142857Y-18347619D01*
X61285714Y-18585714D02*
X61285714Y-19252381D01*
X61523810Y-18204762D02*
X61761905Y-18919048D01*
X61142857Y-18919048D01*
X60238095Y-19252381D02*
X60809524Y-19252381D01*
X60523810Y-19252381D02*
X60523810Y-18252381D01*
X60619048Y-18395238D01*
X60714286Y-18490476D01*
X60809524Y-18538095D01*
X55957143Y-21457143D02*
X56004762Y-21409524D01*
X56052381Y-21266667D01*
X56052381Y-21171429D01*
X56004762Y-21028571D01*
X55909524Y-20933333D01*
X55814286Y-20885714D01*
X55623810Y-20838095D01*
X55480952Y-20838095D01*
X55290476Y-20885714D01*
X55195238Y-20933333D01*
X55100000Y-21028571D01*
X55052381Y-21171429D01*
X55052381Y-21266667D01*
X55100000Y-21409524D01*
X55147619Y-21457143D01*
X55052381Y-22361905D02*
X55052381Y-21885714D01*
X55528571Y-21838095D01*
X55480952Y-21885714D01*
X55433333Y-21980952D01*
X55433333Y-22219048D01*
X55480952Y-22314286D01*
X55528571Y-22361905D01*
X55623810Y-22409524D01*
X55861905Y-22409524D01*
X55957143Y-22361905D01*
X56004762Y-22314286D01*
X56052381Y-22219048D01*
X56052381Y-21980952D01*
X56004762Y-21885714D01*
X55957143Y-21838095D01*
X56052381Y-23361905D02*
X56052381Y-22790476D01*
X56052381Y-23076190D02*
X55052381Y-23076190D01*
X55195238Y-22980952D01*
X55290476Y-22885714D01*
X55338095Y-22790476D01*
X62242857Y-17357143D02*
X62290476Y-17404762D01*
X62433333Y-17452381D01*
X62528571Y-17452381D01*
X62671429Y-17404762D01*
X62766667Y-17309524D01*
X62814286Y-17214286D01*
X62861905Y-17023810D01*
X62861905Y-16880952D01*
X62814286Y-16690476D01*
X62766667Y-16595238D01*
X62671429Y-16500000D01*
X62528571Y-16452381D01*
X62433333Y-16452381D01*
X62290476Y-16500000D01*
X62242857Y-16547619D01*
X61338095Y-16452381D02*
X61814286Y-16452381D01*
X61861905Y-16928571D01*
X61814286Y-16880952D01*
X61719048Y-16833333D01*
X61480952Y-16833333D01*
X61385714Y-16880952D01*
X61338095Y-16928571D01*
X61290476Y-17023810D01*
X61290476Y-17261905D01*
X61338095Y-17357143D01*
X61385714Y-17404762D01*
X61480952Y-17452381D01*
X61719048Y-17452381D01*
X61814286Y-17404762D01*
X61861905Y-17357143D01*
X60909524Y-16547619D02*
X60861905Y-16500000D01*
X60766667Y-16452381D01*
X60528571Y-16452381D01*
X60433333Y-16500000D01*
X60385714Y-16547619D01*
X60338095Y-16642857D01*
X60338095Y-16738095D01*
X60385714Y-16880952D01*
X60957143Y-17452381D01*
X60338095Y-17452381D01*
X57857143Y-21457143D02*
X57904762Y-21409524D01*
X57952381Y-21266667D01*
X57952381Y-21171429D01*
X57904762Y-21028571D01*
X57809524Y-20933333D01*
X57714286Y-20885714D01*
X57523810Y-20838095D01*
X57380952Y-20838095D01*
X57190476Y-20885714D01*
X57095238Y-20933333D01*
X57000000Y-21028571D01*
X56952381Y-21171429D01*
X56952381Y-21266667D01*
X57000000Y-21409524D01*
X57047619Y-21457143D01*
X56952381Y-22361905D02*
X56952381Y-21885714D01*
X57428571Y-21838095D01*
X57380952Y-21885714D01*
X57333333Y-21980952D01*
X57333333Y-22219048D01*
X57380952Y-22314286D01*
X57428571Y-22361905D01*
X57523810Y-22409524D01*
X57761905Y-22409524D01*
X57857143Y-22361905D01*
X57904762Y-22314286D01*
X57952381Y-22219048D01*
X57952381Y-21980952D01*
X57904762Y-21885714D01*
X57857143Y-21838095D01*
X56952381Y-22742857D02*
X56952381Y-23361905D01*
X57333333Y-23028571D01*
X57333333Y-23171429D01*
X57380952Y-23266667D01*
X57428571Y-23314286D01*
X57523810Y-23361905D01*
X57761905Y-23361905D01*
X57857143Y-23314286D01*
X57904762Y-23266667D01*
X57952381Y-23171429D01*
X57952381Y-22885714D01*
X57904762Y-22790476D01*
X57857143Y-22742857D01*
X61852381Y-28385714D02*
X60852381Y-28385714D01*
X60852381Y-28623809D01*
X60900000Y-28766667D01*
X60995238Y-28861905D01*
X61090476Y-28909524D01*
X61280952Y-28957143D01*
X61423810Y-28957143D01*
X61614286Y-28909524D01*
X61709524Y-28861905D01*
X61804762Y-28766667D01*
X61852381Y-28623809D01*
X61852381Y-28385714D01*
X61852381Y-29909524D02*
X61852381Y-29338095D01*
X61852381Y-29623809D02*
X60852381Y-29623809D01*
X60995238Y-29528571D01*
X61090476Y-29433333D01*
X61138095Y-29338095D01*
X61185714Y-30766667D02*
X61852381Y-30766667D01*
X60804762Y-30528571D02*
X61519048Y-30290476D01*
X61519048Y-30909524D01*
X62052381Y-24757143D02*
X61576190Y-24423809D01*
X62052381Y-24185714D02*
X61052381Y-24185714D01*
X61052381Y-24566667D01*
X61100000Y-24661905D01*
X61147619Y-24709524D01*
X61242857Y-24757143D01*
X61385714Y-24757143D01*
X61480952Y-24709524D01*
X61528571Y-24661905D01*
X61576190Y-24566667D01*
X61576190Y-24185714D01*
X61385714Y-25614286D02*
X62052381Y-25614286D01*
X61004762Y-25376190D02*
X61719048Y-25138095D01*
X61719048Y-25757143D01*
X61052381Y-26328571D02*
X61052381Y-26423810D01*
X61100000Y-26519048D01*
X61147619Y-26566667D01*
X61242857Y-26614286D01*
X61433333Y-26661905D01*
X61671429Y-26661905D01*
X61861905Y-26614286D01*
X61957143Y-26566667D01*
X62004762Y-26519048D01*
X62052381Y-26423810D01*
X62052381Y-26328571D01*
X62004762Y-26233333D01*
X61957143Y-26185714D01*
X61861905Y-26138095D01*
X61671429Y-26090476D01*
X61433333Y-26090476D01*
X61242857Y-26138095D01*
X61147619Y-26185714D01*
X61100000Y-26233333D01*
X61052381Y-26328571D01*
X45216666Y-23952381D02*
X45550000Y-23476190D01*
X45788095Y-23952381D02*
X45788095Y-22952381D01*
X45407142Y-22952381D01*
X45311904Y-23000000D01*
X45264285Y-23047619D01*
X45216666Y-23142857D01*
X45216666Y-23285714D01*
X45264285Y-23380952D01*
X45311904Y-23428571D01*
X45407142Y-23476190D01*
X45788095Y-23476190D01*
X44883333Y-22952381D02*
X44216666Y-22952381D01*
X44645238Y-23952381D01*
%LPC*%
D15*
X74400000Y-12300000D03*
X69000000Y-12300000D03*
D16*
X72250000Y-56500000D03*
X70250000Y-56500000D03*
D17*
X67326020Y-44625000D03*
X71323980Y-44625000D03*
D18*
X66450000Y-31180000D03*
X66450000Y-33180000D03*
D16*
X4475000Y-41400000D03*
X2475000Y-41400000D03*
X73750000Y-29250000D03*
X71750000Y-29250000D03*
D18*
X42200000Y-9800000D03*
X42200000Y-11800000D03*
X66350000Y-4850000D03*
X66350000Y-2850000D03*
D19*
X8100000Y-27450980D03*
X8100000Y-29549020D03*
X5625000Y-48750980D03*
X5625000Y-50849020D03*
D20*
X51400000Y-2401020D03*
X51400000Y-6398980D03*
D17*
X72748980Y-53250000D03*
X68751020Y-53250000D03*
D20*
X40000000Y-2801020D03*
X40000000Y-6798980D03*
D21*
X34050000Y-25950000D03*
D22*
X35320000Y-25950000D03*
X36590000Y-25950000D03*
X37860000Y-25950000D03*
X39130000Y-25950000D03*
X35320000Y-27220000D03*
X36590000Y-27220000D03*
X37860000Y-27220000D03*
X39130000Y-27220000D03*
X34050000Y-27220000D03*
D23*
X5750000Y-32125000D03*
X4950000Y-32125000D03*
X5350000Y-33525000D03*
X12000000Y-48475000D03*
X11200000Y-48475000D03*
X11600000Y-49875000D03*
D24*
X6525000Y-36075000D03*
X7175000Y-36075000D03*
X7825000Y-36075000D03*
X8475000Y-36075000D03*
X8475000Y-38425000D03*
X7825000Y-38425000D03*
X7175000Y-38425000D03*
X6525000Y-38425000D03*
D25*
X9741000Y-44839600D03*
X9741000Y-46160400D03*
X9741000Y-45500000D03*
X7709000Y-46160400D03*
X7709000Y-44839600D03*
D26*
X22100000Y-43550000D03*
X22750000Y-43550000D03*
X23400000Y-43550000D03*
X24050000Y-43550000D03*
X24700000Y-43550000D03*
X25350000Y-43550000D03*
X26000000Y-43550000D03*
X26000000Y-49450000D03*
X25350000Y-49450000D03*
X24700000Y-49450000D03*
X24050000Y-49450000D03*
X23400000Y-49450000D03*
X22750000Y-49450000D03*
X22100000Y-49450000D03*
X14700000Y-43550000D03*
X15350000Y-43550000D03*
X16000000Y-43550000D03*
X16650000Y-43550000D03*
X17300000Y-43550000D03*
X17950000Y-43550000D03*
X18600000Y-43550000D03*
X18600000Y-49450000D03*
X17950000Y-49450000D03*
X17300000Y-49450000D03*
X16650000Y-49450000D03*
X16000000Y-49450000D03*
X15350000Y-49450000D03*
X14700000Y-49450000D03*
D27*
X47950000Y-31950000D03*
X47950000Y-32450000D03*
X47950000Y-32950000D03*
X47950000Y-33450000D03*
X47950000Y-33950000D03*
X47950000Y-34450000D03*
X47950000Y-34950000D03*
X47950000Y-35450000D03*
X47950000Y-35950000D03*
X47950000Y-36450000D03*
X47950000Y-36950000D03*
X47950000Y-37450000D03*
D28*
X46350000Y-39050000D03*
X45850000Y-39050000D03*
X45350000Y-39050000D03*
X44850000Y-39050000D03*
X44350000Y-39050000D03*
X43850000Y-39050000D03*
X43350000Y-39050000D03*
X42850000Y-39050000D03*
X42350000Y-39050000D03*
X41850000Y-39050000D03*
X41350000Y-39050000D03*
X40850000Y-39050000D03*
D27*
X39250000Y-37450000D03*
X39250000Y-36950000D03*
X39250000Y-36450000D03*
X39250000Y-35950000D03*
X39250000Y-35450000D03*
X39250000Y-34950000D03*
X39250000Y-34450000D03*
X39250000Y-33950000D03*
X39250000Y-33450000D03*
X39250000Y-32950000D03*
X39250000Y-32450000D03*
X39250000Y-31950000D03*
D28*
X40850000Y-30350000D03*
X41350000Y-30350000D03*
X41850000Y-30350000D03*
X42350000Y-30350000D03*
X42850000Y-30350000D03*
X43350000Y-30350000D03*
X43850000Y-30350000D03*
X44350000Y-30350000D03*
X44850000Y-30350000D03*
X45350000Y-30350000D03*
X45850000Y-30350000D03*
X46350000Y-30350000D03*
D29*
X38000000Y-44925000D03*
X38000000Y-45575000D03*
X38000000Y-46225000D03*
X38000000Y-46875000D03*
X33600000Y-46875000D03*
X33600000Y-46225000D03*
X33600000Y-45575000D03*
X33600000Y-44925000D03*
D17*
X58851020Y-53500000D03*
X62848980Y-53500000D03*
D30*
X52595000Y-42250000D03*
X53865000Y-42250000D03*
X55135000Y-42250000D03*
X56405000Y-42250000D03*
X56405000Y-47650000D03*
X55135000Y-47650000D03*
X53865000Y-47650000D03*
X52595000Y-47650000D03*
D31*
X12050000Y-54500760D03*
X10150000Y-54500760D03*
X11100000Y-52501780D03*
X29050760Y-52450000D03*
X29050760Y-54350000D03*
X27051780Y-53400000D03*
X20550000Y-54800760D03*
X18650000Y-54800760D03*
X19600000Y-52801780D03*
D32*
X5000000Y-19500000D03*
X73000000Y-65500000D03*
X73000000Y-19500000D03*
X5000000Y-65500000D03*
D33*
X4900000Y-60302000D03*
D34*
X4900000Y-53698000D03*
X7186000Y-53698000D03*
X2614000Y-53698000D03*
D18*
X36000000Y-2750000D03*
X36000000Y-4750000D03*
D35*
X47200000Y-20100000D03*
X47200000Y-14700000D03*
D16*
X63750000Y-8000000D03*
X65750000Y-8000000D03*
D18*
X30975000Y-19150000D03*
X30975000Y-17150000D03*
D36*
X14300000Y-18975000D03*
X14300000Y-17475000D03*
X28100000Y-20025000D03*
X28100000Y-21525000D03*
X14300000Y-22325000D03*
X14300000Y-23825000D03*
D37*
X17690000Y-19740000D03*
X17690000Y-21640000D03*
X15690000Y-20690000D03*
D38*
X54800000Y-10150000D03*
X54800000Y-12250000D03*
D39*
X75580000Y-40510000D03*
X73480000Y-40510000D03*
D40*
X75650000Y-44600000D03*
X73750000Y-44600000D03*
D38*
X54800000Y-6550000D03*
X54800000Y-8650000D03*
D40*
X44000000Y-7650000D03*
X44000000Y-5750000D03*
X75425000Y-37950000D03*
X73525000Y-37950000D03*
X47100000Y-5850000D03*
X47100000Y-7750000D03*
D41*
X25700000Y-18795000D03*
X25700000Y-20065000D03*
X25700000Y-21335000D03*
X25700000Y-22605000D03*
X20300000Y-22605000D03*
X20300000Y-21335000D03*
X20300000Y-20065000D03*
X20300000Y-18795000D03*
D18*
X51800000Y-16000000D03*
X51800000Y-14000000D03*
D16*
X69990000Y-38160000D03*
X71990000Y-38160000D03*
D18*
X52600000Y-11400000D03*
X52600000Y-9400000D03*
X35000000Y-19675000D03*
X35000000Y-17675000D03*
D42*
X4575000Y-29900000D03*
X6075000Y-29900000D03*
D36*
X7250000Y-33450000D03*
X7250000Y-31950000D03*
X8650000Y-33450000D03*
X8650000Y-31950000D03*
X4250000Y-37075000D03*
X4250000Y-38575000D03*
D42*
X54250000Y-37000000D03*
X52750000Y-37000000D03*
X52750000Y-29500000D03*
X54250000Y-29500000D03*
D36*
X50000000Y-40800000D03*
X50000000Y-42300000D03*
D42*
X55950000Y-50300000D03*
X54450000Y-50300000D03*
X55000000Y-51750000D03*
X56500000Y-51750000D03*
D36*
X37200000Y-30250000D03*
X37200000Y-31750000D03*
D42*
X47550000Y-28050000D03*
X46050000Y-28050000D03*
D36*
X50250000Y-37025000D03*
X50250000Y-38525000D03*
D42*
X39450000Y-41800000D03*
X40950000Y-41800000D03*
D36*
X41150000Y-27300000D03*
X41150000Y-25800000D03*
X49625000Y-30225000D03*
X49625000Y-28725000D03*
X21150000Y-41500000D03*
X21150000Y-40000000D03*
X13775000Y-41325000D03*
X13775000Y-39825000D03*
X31400000Y-43250000D03*
X31400000Y-44750000D03*
X5625000Y-44775000D03*
X5625000Y-46275000D03*
D43*
X13925000Y-8290000D03*
X7835000Y-8290000D03*
X11895000Y-8290000D03*
X9865000Y-8290000D03*
X12905000Y-10070000D03*
X10875000Y-10070000D03*
X8845000Y-10070000D03*
X6815000Y-10070000D03*
D44*
X32475000Y-5750000D03*
D45*
X2250000Y-9180000D03*
D43*
X22565000Y-10070000D03*
X24595000Y-10070000D03*
X26625000Y-10070000D03*
X28655000Y-10070000D03*
X25615000Y-8290000D03*
X27645000Y-8290000D03*
X23585000Y-8290000D03*
X29675000Y-8290000D03*
D44*
X4025000Y-5750000D03*
D45*
X34250000Y-9180000D03*
D38*
X66450000Y-35375000D03*
X66450000Y-37475000D03*
D39*
X53750000Y-14400000D03*
X55850000Y-14400000D03*
X72450000Y-26500000D03*
X74550000Y-26500000D03*
X71150000Y-40580000D03*
X69050000Y-40580000D03*
D38*
X39400000Y-12050000D03*
X39400000Y-9950000D03*
D40*
X45700000Y-42750000D03*
X47600000Y-42750000D03*
X57325000Y-39700000D03*
X55425000Y-39700000D03*
X49060000Y-46770000D03*
X49060000Y-44870000D03*
D38*
X40700000Y-44150000D03*
X40700000Y-46250000D03*
X2950000Y-32050000D03*
X2950000Y-34150000D03*
D39*
X22425000Y-53550000D03*
X24525000Y-53550000D03*
D38*
X14300000Y-54350000D03*
X14300000Y-52250000D03*
D39*
X4950000Y-27250000D03*
X2850000Y-27250000D03*
D38*
X16300000Y-54350000D03*
X16300000Y-52250000D03*
D46*
X72930000Y-2475000D03*
X72930000Y-3125000D03*
X72930000Y-3775000D03*
X72930000Y-4425000D03*
X72930000Y-5075000D03*
X72930000Y-5725000D03*
X68720000Y-5725000D03*
X68720000Y-5075000D03*
X68720000Y-4425000D03*
X68720000Y-3775000D03*
X68720000Y-3125000D03*
X68720000Y-2475000D03*
D47*
X70412500Y-5168750D03*
X70412500Y-4456250D03*
X70412500Y-3743750D03*
X70412500Y-3031250D03*
X71237500Y-5168750D03*
X71237500Y-4456250D03*
X71237500Y-3743750D03*
X71237500Y-3031250D03*
D46*
X41505000Y-17375000D03*
X41505000Y-18025000D03*
X41505000Y-18675000D03*
X41505000Y-19325000D03*
X41505000Y-19975000D03*
X41505000Y-20625000D03*
X37295000Y-20625000D03*
X37295000Y-19975000D03*
X37295000Y-19325000D03*
X37295000Y-18675000D03*
X37295000Y-18025000D03*
X37295000Y-17375000D03*
D47*
X38987500Y-20068750D03*
X38987500Y-19356250D03*
X38987500Y-18643750D03*
X38987500Y-17931250D03*
X39812500Y-20068750D03*
X39812500Y-19356250D03*
X39812500Y-18643750D03*
X39812500Y-17931250D03*
D48*
X12750000Y-20100000D03*
X9750000Y-21300000D03*
X12750000Y-21300000D03*
X9750000Y-20100000D03*
D49*
X52450000Y-34450000D03*
X52450000Y-31950000D03*
X54550000Y-31950000D03*
X54550000Y-34450000D03*
D42*
X25750000Y-38200000D03*
X24250000Y-38200000D03*
D36*
X27675000Y-25775000D03*
X27675000Y-24275000D03*
D39*
X37450000Y-22600000D03*
X35350000Y-22600000D03*
D50*
X63635000Y-42020000D03*
X62985000Y-42020000D03*
X62335000Y-42020000D03*
X61685000Y-42020000D03*
X61685000Y-38535000D03*
X62335000Y-38535000D03*
X62985000Y-38535000D03*
X63635000Y-38535000D03*
D51*
X62660000Y-40670000D03*
D50*
X57025000Y-8250000D03*
X57675000Y-8250000D03*
X58325000Y-8250000D03*
X58975000Y-8250000D03*
X58975000Y-11735000D03*
X58325000Y-11735000D03*
X57675000Y-11735000D03*
X57025000Y-11735000D03*
D51*
X58000000Y-9600000D03*
D52*
X75200000Y-47825000D03*
X75200000Y-48475000D03*
X75200000Y-49125000D03*
X75200000Y-49775000D03*
X71715000Y-49775000D03*
X71715000Y-49125000D03*
X71715000Y-48475000D03*
X71715000Y-47825000D03*
D53*
X73850000Y-48800000D03*
D52*
X43750000Y-3475000D03*
X43750000Y-2825000D03*
X43750000Y-2175000D03*
X43750000Y-1525000D03*
X47235000Y-1525000D03*
X47235000Y-2175000D03*
X47235000Y-2825000D03*
X47235000Y-3475000D03*
D53*
X45100000Y-2500000D03*
D24*
X69700000Y-32300000D03*
X70350000Y-32300000D03*
X71000000Y-32300000D03*
X71650000Y-32300000D03*
X71650000Y-34650000D03*
X71000000Y-34650000D03*
X70350000Y-34650000D03*
X69700000Y-34650000D03*
D54*
X46425000Y-11575000D03*
X46425000Y-10925000D03*
X46425000Y-10275000D03*
X46425000Y-9625000D03*
X48775000Y-9625000D03*
X48775000Y-10275000D03*
X48775000Y-10925000D03*
X48775000Y-11575000D03*
D55*
X25520000Y-35750000D03*
X24250000Y-35750000D03*
X22980000Y-35750000D03*
X21710000Y-35750000D03*
X20440000Y-35750000D03*
X19170000Y-35750000D03*
X17900000Y-35750000D03*
X16630000Y-35750000D03*
X16630000Y-26450000D03*
X17900000Y-26450000D03*
X19170000Y-26450000D03*
X20440000Y-26450000D03*
X21710000Y-26450000D03*
X22980000Y-26450000D03*
X24250000Y-26450000D03*
X25520000Y-26450000D03*
D39*
X7550000Y-48800000D03*
X9650000Y-48800000D03*
D56*
X48735000Y-53800000D03*
X48735000Y-57200000D03*
X35265000Y-53800000D03*
X35265000Y-57200000D03*
X48735000Y-60800000D03*
X48735000Y-64200000D03*
X35265000Y-60800000D03*
X35265000Y-64200000D03*
D57*
X2625000Y-47875000D03*
D58*
X2625000Y-50415000D03*
D40*
X59250000Y-48450000D03*
X59250000Y-46550000D03*
X3050000Y-45075000D03*
X1150000Y-45075000D03*
X3050000Y-43400000D03*
X1150000Y-43400000D03*
D59*
X59250000Y-44900000D03*
X59250000Y-41600000D03*
D60*
X29750000Y-33450000D03*
X30250000Y-33450000D03*
X30750000Y-33450000D03*
X31250000Y-33450000D03*
X31750000Y-33450000D03*
X32250000Y-33450000D03*
D61*
X32950000Y-34150000D03*
X32950000Y-34650000D03*
X32950000Y-35150000D03*
X32950000Y-35650000D03*
X32950000Y-36150000D03*
X32950000Y-36650000D03*
D60*
X32250000Y-37350000D03*
X31750000Y-37350000D03*
X31250000Y-37350000D03*
X30750000Y-37350000D03*
X30250000Y-37350000D03*
X29750000Y-37350000D03*
D61*
X29050000Y-36650000D03*
X29050000Y-36150000D03*
X29050000Y-35650000D03*
X29050000Y-35150000D03*
X29050000Y-34650000D03*
X29050000Y-34150000D03*
D62*
X31000000Y-35400000D03*
D36*
X32800000Y-39300000D03*
X32800000Y-40800000D03*
D16*
X33500000Y-29500000D03*
X31500000Y-29500000D03*
D40*
X34300000Y-41050000D03*
X34300000Y-39150000D03*
D63*
X30100000Y-39300000D03*
X31000000Y-39300000D03*
D64*
X37100000Y-37050000D03*
X37100000Y-37950000D03*
D40*
X35700000Y-37900000D03*
X35700000Y-36000000D03*
D65*
X28500000Y-59050000D03*
X28500000Y-64650000D03*
X23500000Y-64650000D03*
X23500000Y-59050000D03*
X18500000Y-59050000D03*
X13500000Y-59050000D03*
X18500000Y-64650000D03*
D66*
X36150000Y-73700000D03*
D65*
X13500000Y-64650000D03*
D66*
X5850000Y-73750000D03*
D65*
X65000000Y-64650000D03*
X65000000Y-59050000D03*
X60000000Y-59050000D03*
X55000000Y-59050000D03*
X60000000Y-64650000D03*
D66*
X72650000Y-73700000D03*
D65*
X55000000Y-64650000D03*
D66*
X47350000Y-73750000D03*
D16*
X49750000Y-50000000D03*
X51750000Y-50000000D03*
D40*
X28000000Y-40825000D03*
X28000000Y-42725000D03*
X15775000Y-39525000D03*
X15775000Y-41425000D03*
X12350000Y-39900000D03*
X10450000Y-39900000D03*
X45200000Y-45900000D03*
X45200000Y-47800000D03*
X10750000Y-36300000D03*
X12650000Y-36300000D03*
D39*
X6600000Y-41375000D03*
X8700000Y-41375000D03*
D18*
X35580000Y-29900000D03*
X35580000Y-31900000D03*
D40*
X28925000Y-45975000D03*
X28925000Y-44075000D03*
D18*
X32750000Y-20750000D03*
X32750000Y-18750000D03*
X30975000Y-22750000D03*
X30975000Y-20750000D03*
X62300000Y-1300000D03*
X62300000Y-3300000D03*
X64100000Y-6100000D03*
X64100000Y-4100000D03*
D67*
X51900000Y-21425000D03*
X51900000Y-18425000D03*
D68*
X41550000Y-15150000D03*
X38550000Y-15150000D03*
D10*
G36*
X54517678Y-17487348D02*
X53987348Y-18017678D01*
X53421662Y-17451992D01*
X53951992Y-16921662D01*
X54517678Y-17487348D01*
X54517678Y-17487348D01*
G37*
G36*
X55578338Y-18548008D02*
X55048008Y-19078338D01*
X54482322Y-18512652D01*
X55012652Y-17982322D01*
X55578338Y-18548008D01*
X55578338Y-18548008D01*
G37*
D68*
X73000000Y-7750000D03*
X70000000Y-7750000D03*
X74750000Y-7750000D03*
X77750000Y-7750000D03*
D42*
X71250000Y-1000000D03*
X72750000Y-1000000D03*
D16*
X49700000Y-26100000D03*
X51700000Y-26100000D03*
D18*
X37400000Y-40600000D03*
X37400000Y-42600000D03*
D16*
X19700000Y-39700000D03*
X17700000Y-39700000D03*
X28800000Y-50600000D03*
X30800000Y-50600000D03*
D42*
X48500000Y-48250000D03*
X47000000Y-48250000D03*
D10*
G36*
X11255635Y-62036396D02*
X10336396Y-62955635D01*
X9629289Y-62248528D01*
X10548528Y-61329289D01*
X11255635Y-62036396D01*
X11255635Y-62036396D01*
G37*
G36*
X9770711Y-60551472D02*
X8851472Y-61470711D01*
X8144365Y-60763604D01*
X9063604Y-59844365D01*
X9770711Y-60551472D01*
X9770711Y-60551472D01*
G37*
D42*
X30750000Y-31100000D03*
X32250000Y-31100000D03*
D16*
X63800000Y-18900000D03*
X65800000Y-18900000D03*
D18*
X55600000Y-24400000D03*
X55600000Y-26400000D03*
D16*
X63800000Y-16900000D03*
X65800000Y-16900000D03*
D18*
X57500000Y-24400000D03*
X57500000Y-26400000D03*
D69*
X59500000Y-28600000D03*
X59500000Y-30800000D03*
D38*
X59500000Y-26450000D03*
X59500000Y-24350000D03*
D39*
X46100000Y-25600000D03*
X44000000Y-25600000D03*
D70*
X42750000Y-28900000D03*
D71*
X48500000Y-42750000D03*
X53200000Y-26075000D03*
X57500000Y-27800000D03*
X59500000Y-32300000D03*
X71000000Y-15900000D03*
X69600000Y-17300000D03*
X67200000Y-18900000D03*
X30100000Y-30000000D03*
X33250000Y-32000000D03*
X66500000Y-30000000D03*
X68750000Y-57250000D03*
X64000000Y-51900000D03*
X62000000Y-51900000D03*
X61700000Y-55400000D03*
X63700000Y-55300000D03*
X67900000Y-55600000D03*
X69700000Y-55000000D03*
X65600000Y-54500000D03*
X65600000Y-51900000D03*
X67500000Y-51800000D03*
X69600000Y-51700000D03*
X16700000Y-34200000D03*
X13800000Y-38700000D03*
X24200000Y-39200000D03*
X9100000Y-34800000D03*
X19700000Y-41200000D03*
X45250000Y-48700000D03*
X39200000Y-47600000D03*
X30600000Y-44700000D03*
X36300000Y-43600000D03*
X41200000Y-42800000D03*
X27700000Y-50600000D03*
X63750000Y-1250000D03*
X66250000Y-1250000D03*
X68500000Y-1500000D03*
X70250000Y-1000000D03*
X68750000Y-7750000D03*
X71250000Y-7000000D03*
X65750000Y-9750000D03*
X65750000Y-15250000D03*
X67000000Y-8000000D03*
X67250000Y-13750000D03*
X68750000Y-13750000D03*
X70250000Y-13750000D03*
X67250000Y-10750000D03*
X68750000Y-10750000D03*
X70250000Y-10750000D03*
X77600000Y-9200000D03*
D70*
X70200000Y-5400000D03*
X71400000Y-5400000D03*
X71400000Y-3200000D03*
X70200000Y-3200000D03*
D71*
X70800000Y-4200000D03*
D70*
X36400000Y-32730000D03*
X52750000Y-28750000D03*
D71*
X51000000Y-39250000D03*
X50300000Y-27650000D03*
X46125000Y-26850000D03*
X10775000Y-46125000D03*
X75500000Y-36750000D03*
X75500000Y-42000000D03*
X31950000Y-40850000D03*
X34350000Y-35200000D03*
D70*
X46000000Y-35750000D03*
X49250000Y-35250000D03*
X50500000Y-35250000D03*
X51500000Y-36250000D03*
X51500000Y-37250000D03*
X54750000Y-37500000D03*
X56250000Y-36500000D03*
X56250000Y-35000000D03*
X56250000Y-33250000D03*
X56250000Y-30750000D03*
X56250000Y-28750000D03*
X55250000Y-27750000D03*
X52000000Y-27750000D03*
X50750000Y-29250000D03*
X50750000Y-32250000D03*
X49500000Y-33250000D03*
D71*
X1275000Y-41525000D03*
X13225000Y-48375000D03*
X42050000Y-25850000D03*
X8650000Y-30950000D03*
X7375000Y-30950000D03*
X6350000Y-47050000D03*
X50500000Y-43475000D03*
X22100000Y-40000000D03*
X17350000Y-41900000D03*
X23500000Y-42050000D03*
X25725000Y-42125000D03*
X25350000Y-48000000D03*
X17850000Y-47950000D03*
X57000000Y-50500000D03*
X4225000Y-35975000D03*
X75750000Y-45750000D03*
X48650000Y-50150000D03*
X24750000Y-51000000D03*
X30000000Y-52750000D03*
X19750000Y-56250000D03*
X12050000Y-55700000D03*
X17500000Y-51100000D03*
D70*
X43500000Y-33850000D03*
D71*
X48250000Y-5250000D03*
X54750000Y-5250000D03*
X36750000Y-6000000D03*
X38250000Y-8250000D03*
X41750000Y-7664998D03*
X41750000Y-6250000D03*
X38250000Y-6000000D03*
X40000000Y-15000000D03*
X35500000Y-13750000D03*
X35500000Y-12250000D03*
X37500000Y-12000000D03*
X53250000Y-16500000D03*
X50250000Y-16000000D03*
X45500000Y-16500000D03*
X45500000Y-15000000D03*
X45500000Y-13500000D03*
X48750000Y-13500000D03*
X48750000Y-15000000D03*
X48750000Y-16500000D03*
D70*
X39750000Y-20000000D03*
D71*
X40250000Y-22000000D03*
X38750000Y-21500000D03*
X29750000Y-22750000D03*
X32750000Y-21750000D03*
X32250000Y-17000000D03*
X37250000Y-15250000D03*
X40100000Y-16900000D03*
D70*
X39750000Y-18000000D03*
D71*
X38500000Y-16800000D03*
D70*
X39000000Y-20000000D03*
X39000000Y-18000000D03*
D71*
X39350000Y-18975000D03*
X50250000Y-18000000D03*
X51800000Y-17150000D03*
X26750000Y-24275000D03*
X24250000Y-24925000D03*
X16300000Y-25150000D03*
X13400000Y-24000000D03*
X13400000Y-17400000D03*
X14600000Y-20700000D03*
X27850000Y-19050000D03*
X5800000Y-56800000D03*
D70*
X35350000Y-21400000D03*
X36950000Y-21400000D03*
D71*
X8600000Y-58800000D03*
D72*
G36*
X63123000Y-39373000D02*
X61127000Y-39373000D01*
X61127000Y-37127000D01*
X63123000Y-37127000D01*
X63123000Y-39373000D01*
X63123000Y-39373000D01*
G37*
X63123000Y-39373000D02*
X61127000Y-39373000D01*
X61127000Y-37127000D01*
X63123000Y-37127000D01*
X63123000Y-39373000D01*
G36*
X63873000Y-43373000D02*
X61377000Y-43373000D01*
X61377000Y-40127000D01*
X63873000Y-40127000D01*
X63873000Y-43373000D01*
X63873000Y-43373000D01*
G37*
X63873000Y-43373000D02*
X61377000Y-43373000D01*
X61377000Y-40127000D01*
X63873000Y-40127000D01*
X63873000Y-43373000D01*
G36*
X76623000Y-50373000D02*
X73377000Y-50373000D01*
X73377000Y-47627000D01*
X76623000Y-47627000D01*
X76623000Y-50373000D01*
X76623000Y-50373000D01*
G37*
X76623000Y-50373000D02*
X73377000Y-50373000D01*
X73377000Y-47627000D01*
X76623000Y-47627000D01*
X76623000Y-50373000D01*
G36*
X72373000Y-50123000D02*
X70377000Y-50123000D01*
X70377000Y-48377000D01*
X72373000Y-48377000D01*
X72373000Y-50123000D01*
X72373000Y-50123000D01*
G37*
X72373000Y-50123000D02*
X70377000Y-50123000D01*
X70377000Y-48377000D01*
X72373000Y-48377000D01*
X72373000Y-50123000D01*
G36*
X45623000Y-3623000D02*
X42377000Y-3623000D01*
X42377000Y-1377000D01*
X45623000Y-1377000D01*
X45623000Y-3623000D01*
X45623000Y-3623000D01*
G37*
X45623000Y-3623000D02*
X42377000Y-3623000D01*
X42377000Y-1377000D01*
X45623000Y-1377000D01*
X45623000Y-3623000D01*
G36*
X48373000Y-2873000D02*
X46627000Y-2873000D01*
X46627000Y-1377000D01*
X48373000Y-1377000D01*
X48373000Y-2873000D01*
X48373000Y-2873000D01*
G37*
X48373000Y-2873000D02*
X46627000Y-2873000D01*
X46627000Y-1377000D01*
X48373000Y-1377000D01*
X48373000Y-2873000D01*
G36*
X59373000Y-10373000D02*
X56877000Y-10373000D01*
X56877000Y-6877000D01*
X59373000Y-6877000D01*
X59373000Y-10373000D01*
X59373000Y-10373000D01*
G37*
X59373000Y-10373000D02*
X56877000Y-10373000D01*
X56877000Y-6877000D01*
X59373000Y-6877000D01*
X59373000Y-10373000D01*
G36*
X59373000Y-13123000D02*
X57627000Y-13123000D01*
X57627000Y-11127000D01*
X59373000Y-11127000D01*
X59373000Y-13123000D01*
X59373000Y-13123000D01*
G37*
X59373000Y-13123000D02*
X57627000Y-13123000D01*
X57627000Y-11127000D01*
X59373000Y-11127000D01*
X59373000Y-13123000D01*
M02*
