M48
;DRILL file {KiCad 4.0.7-e0-6372~58~ubuntu16.10.1} date Tue Oct  3 15:10:33 2017
;FORMAT={-:-/ absolute / metric / decimal}
FMAT,2
METRIC,TZ
T1C0.300
T2C0.508
T3C0.650
T4C0.762
T5C0.889
T6C1.000
T7C1.100
T8C1.600
T9C3.100
T10C3.200
T11C3.300
%
G90
G05
M71
T1
X35.35Y-21.4
X36.4Y-32.73
X36.95Y-21.4
X39.Y-18.
X39.Y-20.
X39.75Y-18.
X39.75Y-20.
X42.75Y-28.9
X43.5Y-33.85
X46.Y-35.75
X49.25Y-35.25
X49.5Y-33.25
X50.5Y-35.25
X50.75Y-29.25
X50.75Y-32.25
X51.5Y-36.25
X51.5Y-37.25
X52.Y-27.75
X52.75Y-28.75
X54.75Y-37.5
X55.25Y-27.75
X56.25Y-28.75
X56.25Y-30.75
X56.25Y-33.25
X56.25Y-35.
X56.25Y-36.5
X70.2Y-3.2
X70.2Y-5.4
X71.4Y-3.2
X71.4Y-5.4
T2
X1.275Y-41.525
X4.225Y-35.975
X5.8Y-56.8
X6.35Y-47.05
X7.375Y-30.95
X8.6Y-58.8
X8.65Y-30.95
X9.1Y-34.8
X10.775Y-46.125
X12.05Y-55.7
X13.225Y-48.375
X13.4Y-17.4
X13.4Y-24.
X13.8Y-38.7
X14.6Y-20.7
X16.3Y-25.15
X16.7Y-34.2
X17.35Y-41.9
X17.5Y-51.1
X17.85Y-47.95
X19.7Y-41.2
X19.75Y-56.25
X22.1Y-40.
X23.5Y-42.05
X24.2Y-39.2
X24.25Y-24.925
X24.75Y-51.
X25.35Y-48.
X25.725Y-42.125
X26.75Y-24.275
X27.7Y-50.6
X27.85Y-19.05
X29.75Y-22.75
X30.Y-52.75
X30.1Y-30.
X30.6Y-44.7
X31.95Y-40.85
X32.25Y-17.
X32.75Y-21.75
X33.25Y-32.
X34.35Y-35.2
X35.5Y-12.25
X35.5Y-13.75
X36.3Y-43.6
X36.75Y-6.
X37.25Y-15.25
X37.5Y-12.
X38.25Y-6.
X38.25Y-8.25
X38.5Y-16.8
X38.75Y-21.5
X39.2Y-47.6
X39.35Y-18.975
X40.Y-15.
X40.1Y-16.9
X40.25Y-22.
X41.2Y-42.8
X41.75Y-6.25
X41.75Y-7.665
X42.05Y-25.85
X45.25Y-48.7
X45.5Y-13.5
X45.5Y-15.
X45.5Y-16.5
X46.125Y-26.85
X48.25Y-5.25
X48.5Y-42.75
X48.65Y-50.15
X48.75Y-13.5
X48.75Y-15.
X48.75Y-16.5
X50.25Y-16.
X50.25Y-18.
X50.3Y-27.65
X50.5Y-43.475
X51.Y-39.25
X51.8Y-17.15
X53.2Y-26.075
X53.25Y-16.5
X54.75Y-5.25
X57.Y-50.5
X57.5Y-27.8
X59.5Y-32.3
X61.7Y-55.4
X62.Y-51.9
X63.7Y-55.3
X63.75Y-1.25
X64.Y-51.9
X65.6Y-51.9
X65.6Y-54.5
X65.75Y-9.75
X65.75Y-15.25
X66.25Y-1.25
X66.5Y-30.
X67.Y-8.
X67.2Y-18.9
X67.25Y-10.75
X67.25Y-13.75
X67.5Y-51.8
X67.9Y-55.6
X68.5Y-1.5
X68.75Y-7.75
X68.75Y-10.75
X68.75Y-13.75
X68.75Y-57.25
X69.6Y-17.3
X69.6Y-51.7
X69.7Y-55.
X70.25Y-1.
X70.25Y-10.75
X70.25Y-13.75
X70.8Y-4.2
X71.Y-15.9
X71.25Y-7.
X75.5Y-36.75
X75.5Y-42.
X75.75Y-45.75
X77.6Y-9.2
T3
X34.05Y-25.95
X34.05Y-27.22
X35.32Y-25.95
X35.32Y-27.22
X36.59Y-25.95
X36.59Y-27.22
X37.86Y-25.95
X37.86Y-27.22
X39.13Y-25.95
X39.13Y-27.22
T4
X35.265Y-53.8
X35.265Y-57.2
X35.265Y-60.8
X35.265Y-64.2
X48.735Y-53.8
X48.735Y-57.2
X48.735Y-60.8
X48.735Y-64.2
T5
X6.815Y-10.07
X7.835Y-8.29
X8.845Y-10.07
X9.865Y-8.29
X10.875Y-10.07
X11.895Y-8.29
X12.905Y-10.07
X13.925Y-8.29
X22.565Y-10.07
X23.585Y-8.29
X24.595Y-10.07
X25.615Y-8.29
X26.625Y-10.07
X27.645Y-8.29
X28.655Y-10.07
X29.675Y-8.29
T6
X2.625Y-47.875
X2.625Y-50.415
T7
X13.5Y-59.05
X13.5Y-64.65
X18.5Y-59.05
X18.5Y-64.65
X23.5Y-59.05
X23.5Y-64.65
X28.5Y-59.05
X28.5Y-64.65
X55.Y-59.05
X55.Y-64.65
X60.Y-59.05
X60.Y-64.65
X65.Y-59.05
X65.Y-64.65
T8
X2.25Y-9.18
X34.25Y-9.18
T9
X5.85Y-73.75
X36.15Y-73.7
X47.35Y-73.75
X72.65Y-73.7
T10
X5.Y-19.5
X5.Y-65.5
X73.Y-19.5
X73.Y-65.5
T11
X4.025Y-5.75
X32.475Y-5.75
T0
M30
