M48
; DRILL file {KiCad 5.1.4+dfsg1-1} date Do 03 Sep 2020 16:07:17 CEST
; FORMAT={-:-/ absolute / metric / decimal}
; #@! TF.CreationDate,2020-09-03T16:07:17+02:00
; #@! TF.GenerationSoftware,Kicad,Pcbnew,5.1.4+dfsg1-1
; #@! TF.FileFunction,Plated,1,4,PTH
FMAT,2
METRIC
T1C0.300
T2C0.508
%
G90
G05
T1
X2.19Y-16.31
X2.54Y-14.28
X4.27Y-1.2
X4.75Y-10.3
X5.3Y-2.325
X5.75Y-10.325
X6.27Y-2.38
X6.75Y-10.34
X7.34Y-2.94
X7.76Y-10.34
X8.056Y-0.998
X8.25Y-4.65
X8.75Y-3.62
X8.75Y-10.37
X9.623Y-20.388
X9.74Y-14.81
X10.28Y-21.0
X10.75Y-14.8
X11.12Y-4.13
X11.2Y-21.57
X11.75Y-14.79
X12.25Y-21.86
X12.49Y-2.97
X12.75Y-14.75
X12.958Y-23.902
X13.275Y-22.4
X13.75Y-14.7
X14.25Y-22.425
X14.84Y-14.8
X15.03Y-20.72
X15.81Y-14.82
X17.33Y-9.7
T2
X0.75Y-13.5
X2.57Y-17.94
X3.86Y-14.87
X5.47Y-23.25
X16.49Y-17.95
X17.69Y-16.03
X18.25Y-10.75
T0
M30
