G04 #@! TF.GenerationSoftware,KiCad,Pcbnew,5.1.4+dfsg1-1*
G04 #@! TF.CreationDate,2020-09-03T16:08:26+02:00*
G04 #@! TF.ProjectId,FPC_INVERTER,4650435f-494e-4564-9552-5445522e6b69,rev?*
G04 #@! TF.SameCoordinates,PX5095e20PY1312d00*
G04 #@! TF.FileFunction,Copper,L4,Bot*
G04 #@! TF.FilePolarity,Positive*
%FSLAX46Y46*%
G04 Gerber Fmt 4.6, Leading zero omitted, Abs format (unit mm)*
G04 Created by KiCad (PCBNEW 5.1.4+dfsg1-1) date 2020-09-03 16:08:26*
%MOMM*%
%LPD*%
G04 APERTURE LIST*
%ADD10C,0.600000*%
%ADD11C,0.889000*%
%ADD12C,0.254000*%
%ADD13C,0.400000*%
G04 APERTURE END LIST*
D10*
X4270000Y-1200000D03*
X2190000Y-16310000D03*
X11120000Y-4130000D03*
X12490000Y-2970000D03*
X17330000Y-9700000D03*
X12958032Y-23902000D03*
X15810000Y-14820000D03*
X15030000Y-20720000D03*
X9623000Y-20387963D03*
X14840000Y-14800000D03*
X8055964Y-998000D03*
X2540000Y-14280000D03*
X9740000Y-14810000D03*
X8750000Y-3620000D03*
X8750000Y-10370000D03*
X10280000Y-21000000D03*
X10750000Y-14800000D03*
X8250000Y-4650000D03*
X7760000Y-10340000D03*
X11200000Y-21570000D03*
X11750000Y-14790000D03*
X7340000Y-2940000D03*
X6750000Y-10340000D03*
X12250000Y-21860000D03*
X12750000Y-14750000D03*
X6270000Y-2380000D03*
X5750000Y-10325000D03*
X13275000Y-22400000D03*
X4750000Y-10300000D03*
X14250000Y-22425000D03*
D11*
X17690000Y-16030000D03*
X5470000Y-23250000D03*
X2570000Y-17940000D03*
X3860000Y-14870000D03*
X16490000Y-17950000D03*
X18250000Y-10750000D03*
X750000Y-13500000D03*
D10*
X13750000Y-14700000D03*
X5300000Y-2325000D03*
D12*
X1912999Y-10409899D02*
X1912999Y-16032999D01*
X1906181Y-10349395D02*
X1912999Y-10409899D01*
X1886072Y-10291926D02*
X1906181Y-10349395D01*
X1853678Y-10240372D02*
X1886072Y-10291926D01*
X1759071Y-10164925D02*
X1810625Y-10197319D01*
X1396124Y-9984071D02*
X1428518Y-10035625D01*
X1376015Y-9926602D02*
X1396124Y-9984071D01*
X1369198Y-9809899D02*
X1369198Y-9866099D01*
X1396124Y-9691926D02*
X1376015Y-9749395D01*
X1428518Y-9640372D02*
X1396124Y-9691926D01*
X1471571Y-9597319D02*
X1428518Y-9640372D01*
X1912999Y-16032999D02*
X2190000Y-16310000D01*
X1523125Y-9564925D02*
X1471571Y-9597319D01*
X1523125Y-10111072D02*
X1580594Y-10131181D01*
X1580594Y-9544816D02*
X1523125Y-9564925D01*
X1641098Y-9537999D02*
X1580594Y-9544816D01*
X2000900Y-9536196D02*
X1984900Y-9537999D01*
X2029729Y-9522312D02*
X2016097Y-9530878D01*
X2041114Y-9510927D02*
X2029729Y-9522312D01*
X1984900Y-9537999D02*
X1641098Y-9537999D01*
X2049680Y-9497295D02*
X2041114Y-9510927D01*
X2054998Y-9482098D02*
X2049680Y-9497295D01*
X2056800Y-9466099D02*
X2054998Y-9482098D01*
X2054998Y-8993899D02*
X2056800Y-9009899D01*
X1810625Y-10197319D02*
X1853678Y-10240372D01*
X1580594Y-7144816D02*
X1523125Y-7164925D01*
X2041114Y-8965070D02*
X2049680Y-8978702D01*
X2056800Y-7066099D02*
X2054998Y-7082098D01*
X2056800Y-6609899D02*
X2056800Y-7066099D01*
X2041114Y-6565070D02*
X2049680Y-6578702D01*
X2016097Y-9530878D02*
X2000900Y-9536196D01*
X1984900Y-7137999D02*
X1641098Y-7137999D01*
X2029729Y-6553685D02*
X2041114Y-6565070D01*
X1369198Y-7466099D02*
X1376015Y-7526602D01*
X2056800Y-7809899D02*
X2056800Y-8266099D01*
X1369198Y-6206799D02*
X1369198Y-6262999D01*
X1701602Y-5928081D02*
X1580594Y-5941716D01*
X1369198Y-8666099D02*
X1376015Y-8726602D01*
X1369198Y-9866099D02*
X1376015Y-9926602D01*
X2000900Y-7136196D02*
X1984900Y-7137999D01*
X1580594Y-6528081D02*
X1641099Y-6534899D01*
X1396124Y-7291926D02*
X1376015Y-7349395D01*
X1428518Y-8835625D02*
X1471571Y-8878678D01*
X1376015Y-9749395D02*
X1369198Y-9809899D01*
X2041114Y-7765070D02*
X2049680Y-7778702D01*
X1580594Y-7731181D02*
X1641098Y-7737999D01*
X1853678Y-5832525D02*
X1810625Y-5875578D01*
X1523125Y-5961825D02*
X1471571Y-5994219D01*
X1580594Y-8344816D02*
X1523125Y-8364925D01*
X2029729Y-7122312D02*
X2016097Y-7130878D01*
X1641099Y-6534899D02*
X1912999Y-6534899D01*
X1641098Y-7137999D02*
X1580594Y-7144816D01*
X2054998Y-7082098D02*
X2049680Y-7097295D01*
X1912999Y-3537001D02*
X1912999Y-5662999D01*
X2016097Y-7130878D02*
X2000900Y-7136196D01*
X1580594Y-5941716D02*
X1523125Y-5961825D01*
X1523125Y-8364925D02*
X1471571Y-8397319D01*
X1428518Y-6432525D02*
X1471571Y-6475578D01*
X2054998Y-7793899D02*
X2056800Y-7809899D01*
X1580594Y-8931181D02*
X1641098Y-8937999D01*
X4270000Y-1200000D02*
X4250000Y-1200000D01*
X1984900Y-7737999D02*
X2000900Y-7739801D01*
X1759071Y-5907972D02*
X1701602Y-5928081D01*
X1471571Y-7197319D02*
X1428518Y-7240372D01*
X2016097Y-6545119D02*
X2029729Y-6553685D01*
X2049680Y-8297295D02*
X2041114Y-8310927D01*
X2029729Y-8322312D02*
X2016097Y-8330878D01*
X2054998Y-6593899D02*
X2056800Y-6609899D01*
X1523125Y-7164925D02*
X1471571Y-7197319D01*
X2049680Y-7097295D02*
X2041114Y-7110927D01*
X1523125Y-8911072D02*
X1580594Y-8931181D01*
X1912999Y-6537999D02*
X1984900Y-6537999D01*
X2049680Y-6578702D02*
X2054998Y-6593899D01*
X1641098Y-7737999D02*
X1984900Y-7737999D01*
X1428518Y-8440372D02*
X1396124Y-8491926D01*
X1471571Y-8397319D02*
X1428518Y-8440372D01*
X1912999Y-5662999D02*
X1906181Y-5723502D01*
X2054998Y-8282098D02*
X2049680Y-8297295D01*
X1580594Y-10131181D02*
X1701602Y-10144816D01*
X1376015Y-6323502D02*
X1396124Y-6380971D01*
X1369198Y-6262999D02*
X1376015Y-6323502D01*
X2041114Y-7110927D02*
X2029729Y-7122312D01*
X1428518Y-7240372D02*
X1396124Y-7291926D01*
X1471571Y-8878678D02*
X1523125Y-8911072D01*
X1701602Y-10144816D02*
X1759071Y-10164925D01*
X1396124Y-6380971D02*
X1428518Y-6432525D01*
X1471571Y-6475578D02*
X1523125Y-6507972D01*
X1523125Y-6507972D02*
X1580594Y-6528081D01*
X1376015Y-6146295D02*
X1369198Y-6206799D01*
X1376015Y-7349395D02*
X1369198Y-7409899D01*
X1984900Y-8337999D02*
X1641098Y-8337999D01*
X1376015Y-7526602D02*
X1396124Y-7584071D01*
X1396124Y-7584071D02*
X1428518Y-7635625D01*
X1471571Y-7678678D02*
X1523125Y-7711072D01*
X1376015Y-8726602D02*
X1396124Y-8784071D01*
X2049680Y-7778702D02*
X2054998Y-7793899D01*
X1396124Y-6088826D02*
X1376015Y-6146295D01*
X1428518Y-7635625D02*
X1471571Y-7678678D01*
X1523125Y-7711072D02*
X1580594Y-7731181D01*
X1912999Y-6534899D02*
X1912999Y-6537999D01*
X1641098Y-8337999D02*
X1580594Y-8344816D01*
X1984900Y-6537999D02*
X2000900Y-6539801D01*
X1886072Y-5780971D02*
X1853678Y-5832525D01*
X1471571Y-5994219D02*
X1428518Y-6037272D01*
X1984900Y-8937999D02*
X2000900Y-8939801D01*
X1906181Y-5723502D02*
X1886072Y-5780971D01*
X1428518Y-6037272D02*
X1396124Y-6088826D01*
X2000900Y-7739801D02*
X2016097Y-7745119D01*
X1428518Y-10035625D02*
X1471571Y-10078678D01*
X2016097Y-7745119D02*
X2029729Y-7753685D01*
X2029729Y-7753685D02*
X2041114Y-7765070D01*
X2029729Y-8953685D02*
X2041114Y-8965070D01*
X2049680Y-8978702D02*
X2054998Y-8993899D01*
X2056800Y-8266099D02*
X2054998Y-8282098D01*
X1810625Y-5875578D02*
X1759071Y-5907972D01*
X2041114Y-8310927D02*
X2029729Y-8322312D01*
X2016097Y-8330878D02*
X2000900Y-8336196D01*
X2000900Y-8336196D02*
X1984900Y-8337999D01*
X2000900Y-6539801D02*
X2016097Y-6545119D01*
X1396124Y-8491926D02*
X1376015Y-8549395D01*
X1376015Y-8549395D02*
X1369198Y-8609899D01*
X2056800Y-9009899D02*
X2056800Y-9466099D01*
X1369198Y-8609899D02*
X1369198Y-8666099D01*
X1396124Y-8784071D02*
X1428518Y-8835625D01*
X4250000Y-1200000D02*
X1912999Y-3537001D01*
X1641098Y-8937999D02*
X1984900Y-8937999D01*
X1471571Y-10078678D02*
X1523125Y-10111072D01*
X1369198Y-7409899D02*
X1369198Y-7466099D01*
X2000900Y-8939801D02*
X2016097Y-8945119D01*
X2016097Y-8945119D02*
X2029729Y-8953685D01*
X11120000Y-4130000D02*
X11120000Y-3340000D01*
X11120000Y-3340000D02*
X11490000Y-2970000D01*
X11490000Y-2970000D02*
X12490000Y-2970000D01*
X17340000Y-17180000D02*
X17340000Y-21730000D01*
X16680000Y-16520000D02*
X17340000Y-17180000D01*
X17330000Y-9700000D02*
X17330000Y-10124264D01*
X17330000Y-10124264D02*
X17340000Y-10134264D01*
X17340000Y-10134264D02*
X17340000Y-14280000D01*
X17340000Y-14280000D02*
X16680000Y-14940000D01*
X16680000Y-14940000D02*
X16680000Y-16520000D01*
X15168000Y-23902000D02*
X16485000Y-22585000D01*
X12958032Y-23902000D02*
X15168000Y-23902000D01*
X17340000Y-21730000D02*
X16485000Y-22585000D01*
X15810000Y-16692067D02*
X15810000Y-14820000D01*
X15030000Y-17472067D02*
X15810000Y-16692067D01*
X15030000Y-20720000D02*
X15030000Y-17472067D01*
X14318375Y-16181628D02*
X14840000Y-15660000D01*
X14265854Y-16223512D02*
X14318375Y-16181628D01*
X14205328Y-16252660D02*
X14265854Y-16223512D01*
X14139833Y-16267610D02*
X14205328Y-16252660D01*
X14072655Y-16267609D02*
X14139833Y-16267610D01*
X13365547Y-15812803D02*
X13432725Y-15812804D01*
X13300052Y-15827753D02*
X13365547Y-15812803D01*
X13239527Y-15856899D02*
X13300052Y-15827753D01*
X14007160Y-16252661D02*
X14072655Y-16267609D01*
X13187004Y-15898784D02*
X13239527Y-15856899D01*
X13946634Y-16223513D02*
X14007160Y-16252661D01*
X13145118Y-15951307D02*
X13187004Y-15898784D01*
X13611268Y-15898785D02*
X13894111Y-16181628D01*
X13101022Y-16077326D02*
X13115970Y-16011833D01*
X13558745Y-15856900D02*
X13611268Y-15898785D01*
X13101021Y-16144506D02*
X13101022Y-16077326D01*
X13498220Y-15827752D02*
X13558745Y-15856900D01*
X13115971Y-16209999D02*
X13101021Y-16144506D01*
X13432725Y-15812804D02*
X13498220Y-15827752D01*
X13145119Y-16270525D02*
X13115971Y-16209999D01*
X13187004Y-16323048D02*
X13145119Y-16270525D01*
X14176952Y-17312995D02*
X13187004Y-16323048D01*
X14840000Y-15660000D02*
X14840000Y-15492185D01*
X14247984Y-17426044D02*
X14218837Y-17365518D01*
X14262933Y-17491538D02*
X14247984Y-17426044D01*
X14262933Y-17558717D02*
X14262933Y-17491538D01*
X14247984Y-17624211D02*
X14262933Y-17558717D01*
X13931231Y-17823242D02*
X13998410Y-17823242D01*
X12710218Y-16705427D02*
X12762741Y-16747312D01*
X12649693Y-16676279D02*
X12710218Y-16705427D01*
X12584198Y-16661331D02*
X12649693Y-16676279D01*
X12517020Y-16661330D02*
X12584198Y-16661331D01*
X12451525Y-16676280D02*
X12517020Y-16661330D01*
X11659743Y-19080439D02*
X11720269Y-19109586D01*
X13894111Y-16181628D02*
X13946634Y-16223513D01*
X13115970Y-16011833D02*
X13145118Y-15951307D01*
X11452828Y-20368824D02*
X11518322Y-20353875D01*
X12055634Y-19434314D02*
X12108157Y-19476199D01*
X11772792Y-19151472D02*
X12055634Y-19434314D01*
X11306642Y-19523211D02*
X11277494Y-19462685D01*
X11207106Y-20282842D02*
X11259629Y-20324727D01*
X11306642Y-19203992D02*
X11348528Y-19151471D01*
X12550930Y-19123098D02*
X12521783Y-19062572D01*
X11673255Y-20230319D02*
X11702402Y-20169793D01*
X14176952Y-17737260D02*
X14218837Y-17684737D01*
X10745721Y-19914018D02*
X10811215Y-19928967D01*
X10811215Y-19928967D02*
X10871741Y-19958114D01*
X9623000Y-20387963D02*
X9637964Y-20372999D01*
X11401050Y-19109586D02*
X11461576Y-19080439D01*
X11885552Y-18384853D02*
X11885553Y-18362459D01*
X11259629Y-20324727D02*
X11320155Y-20353875D01*
X11890535Y-18406684D02*
X11885552Y-18384853D01*
X11673255Y-19911100D02*
X11631370Y-19858577D01*
X12168683Y-19505347D02*
X12234177Y-19520296D01*
X9637964Y-20372999D02*
X10127001Y-20372999D01*
X11518322Y-20353875D02*
X11578848Y-20324727D01*
X10552522Y-19958114D02*
X10613048Y-19928967D01*
X13414406Y-18340065D02*
X13399457Y-18274571D01*
X12366850Y-19505347D02*
X12427376Y-19476199D01*
X11631370Y-20282842D02*
X11673255Y-20230319D01*
X11720269Y-19109586D02*
X11772792Y-19151472D01*
X12301356Y-19520296D02*
X12366850Y-19505347D01*
X14840000Y-15492185D02*
X14840000Y-14800000D01*
X14218837Y-17365518D02*
X14176952Y-17312995D01*
X10127001Y-20372999D02*
X10500000Y-20000000D01*
X11885553Y-18362459D02*
X11890535Y-18340628D01*
X11320155Y-20353875D02*
X11385649Y-20368824D01*
X12234177Y-19520296D02*
X12301356Y-19520296D01*
X11631370Y-19858577D02*
X11348527Y-19575734D01*
X11262545Y-19330012D02*
X11277494Y-19264518D01*
X12565879Y-19255771D02*
X12565879Y-19188592D01*
X12108157Y-19476199D02*
X12168683Y-19505347D01*
X12521783Y-19062572D02*
X12479898Y-19010049D01*
X11348528Y-19151471D02*
X11348528Y-19151472D01*
X10924264Y-20000000D02*
X11207106Y-20282842D01*
X11277494Y-19462685D02*
X11262545Y-19397191D01*
X13017210Y-18656820D02*
X13082704Y-18671769D01*
X10871741Y-19958114D02*
X10924264Y-20000000D01*
X14063904Y-17808293D02*
X14124430Y-17779145D01*
X12267443Y-16860360D02*
X12296591Y-16799834D01*
X14218837Y-17684737D02*
X14247984Y-17624211D01*
X11385649Y-20368824D02*
X11452828Y-20368824D01*
X13998410Y-17823242D02*
X14063904Y-17808293D01*
X12252495Y-16925853D02*
X12267443Y-16860360D01*
X10500000Y-20000000D02*
X10552522Y-19958114D01*
X12956684Y-18627672D02*
X13017210Y-18656820D01*
X11277494Y-19264518D02*
X11306642Y-19203992D01*
X12565879Y-19188592D02*
X12550930Y-19123098D01*
X13328425Y-18585787D02*
X13370310Y-18533264D01*
X11461576Y-19080439D02*
X11527070Y-19065490D01*
X11717351Y-20037120D02*
X11702402Y-19971626D01*
X14124430Y-17779145D02*
X14176952Y-17737260D01*
X12296591Y-16799834D02*
X12338477Y-16747311D01*
X12427376Y-19476199D02*
X12479898Y-19434314D01*
X12479898Y-19434314D02*
X12521783Y-19381791D01*
X12521783Y-19381791D02*
X12550930Y-19321265D01*
X11262545Y-19397191D02*
X11262545Y-19330012D01*
X12550930Y-19321265D02*
X12565879Y-19255771D01*
X11348528Y-19151472D02*
X11401050Y-19109586D01*
X12479898Y-19010049D02*
X11914214Y-18444366D01*
X11527070Y-19065490D02*
X11594249Y-19065490D01*
X11702402Y-19971626D02*
X11673255Y-19911100D01*
X13370310Y-18533264D02*
X13399457Y-18472738D01*
X10613048Y-19928967D02*
X10678542Y-19914018D01*
X11914214Y-18444366D02*
X11900252Y-18426858D01*
X12252494Y-16993033D02*
X12252495Y-16925853D01*
X11900252Y-18426858D02*
X11890535Y-18406684D01*
X11890535Y-18340628D02*
X11900252Y-18320452D01*
X11900252Y-18320452D02*
X11914214Y-18302944D01*
X11914214Y-18302944D02*
X12197056Y-18020103D01*
X12197056Y-18020103D02*
X12214564Y-18006141D01*
X12214564Y-18006141D02*
X12234740Y-17996424D01*
X12234740Y-17996424D02*
X12256571Y-17991441D01*
X12256571Y-17991441D02*
X12278963Y-17991442D01*
X12278963Y-17991442D02*
X12300796Y-17996424D01*
X12338477Y-16747311D02*
X12391000Y-16705426D01*
X12300796Y-17996424D02*
X12320970Y-18006141D01*
X11348527Y-19575734D02*
X11306642Y-19523211D01*
X12391000Y-16705426D02*
X12451525Y-16676280D01*
X12320970Y-18006141D02*
X12338478Y-18020103D01*
X12338478Y-18020103D02*
X12904161Y-18585787D01*
X12904161Y-18585787D02*
X12956684Y-18627672D01*
X13082704Y-18671769D02*
X13149883Y-18671769D01*
X11702402Y-20169793D02*
X11717351Y-20104299D01*
X13149883Y-18671769D02*
X13215377Y-18656820D01*
X13215377Y-18656820D02*
X13275903Y-18627672D01*
X10678542Y-19914018D02*
X10745721Y-19914018D01*
X13275903Y-18627672D02*
X13328425Y-18585787D01*
X11594249Y-19065490D02*
X11659743Y-19080439D01*
X13399457Y-18472738D02*
X13414406Y-18407244D01*
X13414406Y-18407244D02*
X13414406Y-18340065D01*
X11717351Y-20104299D02*
X11717351Y-20037120D01*
X13399457Y-18274571D02*
X13370310Y-18214045D01*
X13370310Y-18214045D02*
X13328425Y-18161522D01*
X12762741Y-16747312D02*
X13752688Y-17737260D01*
X13328425Y-18161522D02*
X12338477Y-17171575D01*
X13752688Y-17737260D02*
X13805211Y-17779145D01*
X11578848Y-20324727D02*
X11631370Y-20282842D01*
X12338477Y-17171575D02*
X12296592Y-17119052D01*
X13805211Y-17779145D02*
X13865737Y-17808293D01*
X12296592Y-17119052D02*
X12267444Y-17058526D01*
X13865737Y-17808293D02*
X13931231Y-17823242D01*
X12267444Y-17058526D02*
X12252494Y-16993033D01*
X5490000Y-1000000D02*
X7629700Y-1000000D01*
X7631700Y-998000D02*
X8055964Y-998000D01*
X7629700Y-1000000D02*
X7631700Y-998000D01*
X2540000Y-14280000D02*
X2540000Y-3950000D01*
X2540000Y-3950000D02*
X5490000Y-1000000D01*
X6870000Y-3620000D02*
X8750000Y-3620000D01*
X4380000Y-3620000D02*
X6870000Y-3620000D01*
X3250000Y-4750000D02*
X4380000Y-3620000D01*
X3250000Y-6300000D02*
X3250000Y-4750000D01*
X3279709Y-6430165D02*
X3257521Y-6366756D01*
X3315450Y-6487046D02*
X3279709Y-6430165D01*
X3362953Y-6534549D02*
X3315450Y-6487046D01*
X3419834Y-6570290D02*
X3362953Y-6534549D01*
X3483243Y-6592478D02*
X3419834Y-6570290D01*
X3766756Y-6607521D02*
X3700000Y-6600000D01*
X3887046Y-6665450D02*
X3830165Y-6629709D01*
X3934549Y-6712953D02*
X3887046Y-6665450D01*
X3970290Y-6769834D02*
X3934549Y-6712953D01*
X4000000Y-6900000D02*
X3992478Y-6833243D01*
X10289999Y-12189999D02*
X10289999Y-11889999D01*
X9343540Y-11705002D02*
X9299996Y-11661458D01*
X10277620Y-12244234D02*
X10286864Y-12217814D01*
X10262727Y-11812062D02*
X10242935Y-11792270D01*
X9239999Y-11489999D02*
X9246894Y-11428805D01*
X10262727Y-12267935D02*
X10277620Y-12244234D01*
X10277620Y-11835763D02*
X10262727Y-11812062D01*
X9514999Y-11764999D02*
X9453806Y-11758104D01*
X9246894Y-11551192D02*
X9239999Y-11489999D01*
X9267233Y-12709317D02*
X9246894Y-12651192D01*
X10219234Y-12302620D02*
X10242935Y-12287727D01*
X9299996Y-12418539D02*
X9343540Y-12374995D01*
X10192814Y-12311864D02*
X10219234Y-12302620D01*
X9267233Y-12470680D02*
X9299996Y-12418539D01*
X3700000Y-6600000D02*
X3550000Y-6600000D01*
X10164999Y-12314999D02*
X10192814Y-12311864D01*
X9246894Y-12528805D02*
X9267233Y-12470680D01*
X9395681Y-12837765D02*
X9343540Y-12805002D01*
X9514999Y-12314999D02*
X10164999Y-12314999D01*
X9239999Y-12589999D02*
X9246894Y-12528805D01*
X9246894Y-12651192D02*
X9239999Y-12589999D01*
X10242935Y-12287727D02*
X10262727Y-12267935D01*
X9453806Y-12858104D02*
X9395681Y-12837765D01*
X10039999Y-14510001D02*
X10039999Y-13539999D01*
X10219234Y-12877377D02*
X10192814Y-12868133D01*
X9514999Y-12864999D02*
X9453806Y-12858104D01*
X10277620Y-12935763D02*
X10262727Y-12912062D01*
X10164999Y-12864999D02*
X9514999Y-12864999D01*
X3970290Y-7030165D02*
X3992478Y-6966756D01*
X10192814Y-13411864D02*
X10219234Y-13402620D01*
X10087062Y-13442270D02*
X10110763Y-13427377D01*
X10286864Y-12217814D02*
X10289999Y-12189999D01*
X10110763Y-13427377D02*
X10137183Y-13418133D01*
X9395681Y-11737765D02*
X9343540Y-11705002D01*
X9246894Y-11428805D02*
X9267233Y-11370680D01*
X3700000Y-7200000D02*
X3766756Y-7192478D01*
X10289999Y-12989999D02*
X10286864Y-12962183D01*
X9395681Y-12342232D02*
X9453806Y-12321893D01*
X10067270Y-13462062D02*
X10087062Y-13442270D01*
X10052377Y-13485763D02*
X10067270Y-13462062D01*
X9299996Y-11318539D02*
X9343540Y-11274995D01*
X10277620Y-13344234D02*
X10286864Y-13317814D01*
X9826193Y-11208104D02*
X9884318Y-11187765D01*
X3887046Y-7134549D02*
X3934549Y-7087046D01*
X10039999Y-10939999D02*
X10039999Y-10159999D01*
X3257521Y-7433243D02*
X3279709Y-7369834D01*
X9740000Y-14810000D02*
X10039999Y-14510001D01*
X9299996Y-12761458D02*
X9267233Y-12709317D01*
X9343540Y-12374995D02*
X9395681Y-12342232D01*
X10262727Y-13367935D02*
X10277620Y-13344234D01*
X10043133Y-13512183D02*
X10052377Y-13485763D01*
X10242935Y-13387727D02*
X10262727Y-13367935D01*
X10289999Y-13289999D02*
X10289999Y-12989999D01*
X10286864Y-12962183D02*
X10277620Y-12935763D01*
X9453806Y-12321893D02*
X9514999Y-12314999D01*
X10286864Y-13317814D02*
X10289999Y-13289999D01*
X10039999Y-10159999D02*
X9190000Y-9310000D01*
X3279709Y-7369834D02*
X3315450Y-7312953D01*
X10262727Y-12912062D02*
X10242935Y-12892270D01*
X9343540Y-12805002D02*
X9299996Y-12761458D01*
X3257521Y-6366756D02*
X3250000Y-6300000D01*
X10242935Y-12892270D02*
X10219234Y-12877377D01*
X3992478Y-6966756D02*
X4000000Y-6900000D01*
X10192814Y-12868133D02*
X10164999Y-12864999D01*
X10289999Y-11889999D02*
X10286864Y-11862183D01*
X10192814Y-11768133D02*
X10164999Y-11764999D01*
X9299996Y-11661458D02*
X9267233Y-11609317D01*
X10286864Y-11862183D02*
X10277620Y-11835763D01*
X10164999Y-11764999D02*
X9514999Y-11764999D01*
X10242935Y-11792270D02*
X10219234Y-11777377D01*
X10219234Y-11777377D02*
X10192814Y-11768133D01*
X9267233Y-11370680D02*
X9299996Y-11318539D01*
X3830165Y-6629709D02*
X3766756Y-6607521D01*
X9764999Y-11214999D02*
X9826193Y-11208104D01*
X3992478Y-6833243D02*
X3970290Y-6769834D01*
X10033105Y-11001192D02*
X10039999Y-10939999D01*
X3250000Y-7500000D02*
X3257521Y-7433243D01*
X9343540Y-11274995D02*
X9395681Y-11242232D01*
X9884318Y-11187765D02*
X9936459Y-11155002D01*
X9395681Y-11242232D02*
X9453806Y-11221893D01*
X9453806Y-11221893D02*
X9514999Y-11214999D01*
X9514999Y-11214999D02*
X9764999Y-11214999D01*
X10039999Y-13539999D02*
X10043133Y-13512183D01*
X10012766Y-11059317D02*
X10033105Y-11001192D01*
X3250000Y-8000000D02*
X3250000Y-7500000D01*
X3419834Y-7229709D02*
X3483243Y-7207521D01*
X9936459Y-11155002D02*
X9980003Y-11111458D01*
X9190000Y-9310000D02*
X4560000Y-9310000D01*
X3315450Y-7312953D02*
X3362953Y-7265450D01*
X3550000Y-6600000D02*
X3483243Y-6592478D01*
X10137183Y-13418133D02*
X10192814Y-13411864D01*
X9980003Y-11111458D02*
X10012766Y-11059317D01*
X10219234Y-13402620D02*
X10242935Y-13387727D01*
X4560000Y-9310000D02*
X3250000Y-8000000D01*
X3362953Y-7265450D02*
X3419834Y-7229709D01*
X3483243Y-7207521D02*
X3550000Y-7200000D01*
X9453806Y-11758104D02*
X9395681Y-11737765D01*
X3550000Y-7200000D02*
X3700000Y-7200000D01*
X3766756Y-7192478D02*
X3830165Y-7170290D01*
X3934549Y-7087046D02*
X3970290Y-7030165D01*
X9267233Y-11609317D02*
X9246894Y-11551192D01*
X3830165Y-7170290D02*
X3887046Y-7134549D01*
X10030000Y-21250000D02*
X10280000Y-21000000D01*
X9110000Y-21250000D02*
X10030000Y-21250000D01*
X8750000Y-20000000D02*
X8750000Y-20890000D01*
X9794468Y-18964537D02*
X9750000Y-19000000D01*
X8750000Y-20890000D02*
X9110000Y-21250000D01*
X9845714Y-18939858D02*
X9794468Y-18964537D01*
X10013496Y-18939858D02*
X9958044Y-18927202D01*
X10324798Y-19206582D02*
X10280329Y-19171119D01*
X10376044Y-19231261D02*
X10324798Y-19206582D01*
X10543825Y-19231261D02*
X10488373Y-19243917D01*
X10699681Y-18907622D02*
X10712337Y-18963074D01*
X9617806Y-17654928D02*
X9617806Y-17711806D01*
X9655141Y-17548231D02*
X9630462Y-17599477D01*
X9617806Y-17711806D02*
X9630462Y-17767259D01*
X9735072Y-17468301D02*
X9690604Y-17503762D01*
X9786319Y-17443621D02*
X9735072Y-17468301D01*
X9841771Y-17430965D02*
X9786319Y-17443621D01*
X9954101Y-17443621D02*
X9898649Y-17430965D01*
X10005346Y-17468300D02*
X9954101Y-17443621D01*
X10049814Y-17503763D02*
X10005346Y-17468300D01*
X10280329Y-19171119D02*
X10109210Y-19000000D01*
X11094464Y-18512841D02*
X11043218Y-18488162D01*
X9655141Y-17818503D02*
X9690604Y-17862972D01*
X11149916Y-18525497D02*
X11094464Y-18512841D01*
X11206794Y-18525497D02*
X11149916Y-18525497D01*
X10675002Y-19126650D02*
X10639540Y-19171119D01*
X11262245Y-18512841D02*
X11206794Y-18525497D01*
X11357960Y-18452699D02*
X11313491Y-18488162D01*
X11393422Y-18408230D02*
X11357960Y-18452699D01*
X10064741Y-18964537D02*
X10013496Y-18939858D01*
X11418101Y-18356984D02*
X11393422Y-18408230D01*
X9750000Y-19000000D02*
X8750000Y-20000000D01*
X11430757Y-18301532D02*
X11418101Y-18356984D01*
X10699681Y-19075404D02*
X10675002Y-19126650D01*
X11393422Y-18137957D02*
X11418101Y-18189202D01*
X9630462Y-17767259D02*
X9655141Y-17818503D01*
X11357960Y-18093488D02*
X11393422Y-18137957D01*
X9901166Y-18927202D02*
X9845714Y-18939858D01*
X9958044Y-18927202D02*
X9901166Y-18927202D01*
X10373561Y-17100083D02*
X10409024Y-17144552D01*
X10348882Y-17048839D02*
X10373561Y-17100083D01*
X10336226Y-16936508D02*
X10336226Y-16993386D01*
X8774758Y-14291529D02*
X8756269Y-14344369D01*
X10348882Y-16881057D02*
X10336226Y-16936508D01*
X8274757Y-13408470D02*
X8304542Y-13455872D01*
X8250000Y-13300000D02*
X8256268Y-13355630D01*
X8256268Y-13144369D02*
X8250000Y-13200000D01*
X8274757Y-13091529D02*
X8256268Y-13144369D01*
X8344127Y-13004542D02*
X8304542Y-13044127D01*
X8391529Y-11774757D02*
X8344127Y-11804542D01*
X8344127Y-13495457D02*
X8391529Y-13525242D01*
X9750000Y-15750000D02*
X11500000Y-15750000D01*
X8250000Y-13200000D02*
X8250000Y-13300000D01*
X8391529Y-12974757D02*
X8344127Y-13004542D01*
X8555630Y-12943731D02*
X8444369Y-12956268D01*
X8304542Y-12255872D02*
X8344127Y-12295457D01*
X8750000Y-12700000D02*
X8743731Y-12755630D01*
X9055631Y-13556268D02*
X9108471Y-13574757D01*
X8695457Y-12855872D02*
X8655872Y-12895457D01*
X10595071Y-19206582D02*
X10543825Y-19231261D01*
X8608470Y-11725242D02*
X8555630Y-11743731D01*
X8725242Y-12808470D02*
X8695457Y-12855872D01*
X11282557Y-17264091D02*
X11231311Y-17239414D01*
X8725242Y-12491529D02*
X8743731Y-12544369D01*
X8608470Y-12374757D02*
X8655872Y-12404542D01*
X8444369Y-11756268D02*
X8391529Y-11774757D01*
X8256268Y-13355630D02*
X8274757Y-13408470D01*
X10712337Y-19019952D02*
X10699681Y-19075404D01*
X9250000Y-13800000D02*
X9250000Y-13900000D01*
X8391529Y-13525242D02*
X8444369Y-13543731D01*
X8304542Y-11844127D02*
X8274757Y-11891529D01*
X8750000Y-12600000D02*
X8750000Y-12700000D01*
X10453492Y-16749881D02*
X10409024Y-16785342D01*
X11418101Y-18189202D02*
X11430757Y-18244654D01*
X8256268Y-11944369D02*
X8250000Y-12000000D01*
X8743731Y-11555630D02*
X8725242Y-11608470D01*
X8750000Y-11500000D02*
X8743731Y-11555630D01*
X10768234Y-16785343D02*
X10723766Y-16749880D01*
X8304542Y-13455872D02*
X8344127Y-13495457D01*
X8695457Y-12444127D02*
X8725242Y-12491529D01*
X10998749Y-18452699D02*
X10049814Y-17503763D01*
X8444369Y-13543731D02*
X8500000Y-13550000D01*
X8274757Y-12208470D02*
X8304542Y-12255872D01*
X8344127Y-11804542D02*
X8304542Y-11844127D01*
X10639540Y-19171119D02*
X10595071Y-19206582D01*
X8250000Y-12000000D02*
X8250000Y-12100000D01*
X8555630Y-11743731D02*
X8444369Y-11756268D01*
X8655872Y-12895457D02*
X8608470Y-12925242D01*
X9690604Y-17503762D02*
X9655141Y-17548231D01*
X9195458Y-14055872D02*
X9155873Y-14095457D01*
X9000000Y-13550000D02*
X9055631Y-13556268D01*
X8256268Y-12155630D02*
X8274757Y-12208470D01*
X10560191Y-16712545D02*
X10504739Y-16725201D01*
X8743731Y-12755630D02*
X8725242Y-12808470D01*
X8344127Y-12295457D02*
X8391529Y-12325242D01*
X11043218Y-18488162D02*
X10998749Y-18452699D01*
X9155873Y-13604542D02*
X9195458Y-13644127D01*
X10431495Y-19243917D02*
X10376044Y-19231261D01*
X11750000Y-17000000D02*
X11546052Y-17203951D01*
X8304542Y-13044127D02*
X8274757Y-13091529D01*
X8655872Y-11695457D02*
X8608470Y-11725242D01*
X11313491Y-18488162D02*
X11262245Y-18512841D01*
X8944370Y-14156268D02*
X8891530Y-14174757D01*
X8250000Y-12100000D02*
X8256268Y-12155630D01*
X8750000Y-10370000D02*
X8750000Y-11500000D01*
X11450339Y-17264091D02*
X11394887Y-17276747D01*
X10336226Y-16993386D02*
X10348882Y-17048839D01*
X8391529Y-12325242D02*
X8444369Y-12343731D01*
X11338009Y-17276747D02*
X11282557Y-17264091D01*
X8444369Y-12343731D02*
X8555630Y-12356268D01*
X8555630Y-12356268D02*
X8608470Y-12374757D01*
X9243732Y-13744369D02*
X9250000Y-13800000D01*
X10409024Y-16785342D02*
X10373561Y-16829811D01*
X10109210Y-19000000D02*
X10064741Y-18964537D01*
X10712337Y-18963074D02*
X10712337Y-19019952D01*
X8500000Y-13550000D02*
X9000000Y-13550000D01*
X8695457Y-11655872D02*
X8655872Y-11695457D01*
X8655872Y-12404542D02*
X8695457Y-12444127D01*
X9108471Y-13574757D02*
X9155873Y-13604542D01*
X9898649Y-17430965D02*
X9841771Y-17430965D01*
X9225243Y-13691529D02*
X9243732Y-13744369D01*
X9243732Y-13955630D02*
X9225243Y-14008470D01*
X8444369Y-12956268D02*
X8391529Y-12974757D01*
X9225243Y-14008470D02*
X9195458Y-14055872D01*
X8274757Y-11891529D02*
X8256268Y-11944369D01*
X9155873Y-14095457D02*
X9108471Y-14125242D01*
X10409024Y-17144552D02*
X11357960Y-18093488D01*
X11231311Y-17239414D02*
X11186842Y-17203951D01*
X8750000Y-14400000D02*
X8750000Y-14747962D01*
X9108471Y-14125242D02*
X9055631Y-14143731D01*
X10639540Y-18811908D02*
X10675002Y-18856377D01*
X9055631Y-14143731D02*
X8944370Y-14156268D01*
X8743731Y-12544369D02*
X8750000Y-12600000D01*
X9195458Y-13644127D02*
X9225243Y-13691529D01*
X8891530Y-14174757D02*
X8844128Y-14204542D01*
X8844128Y-14204542D02*
X8804543Y-14244127D01*
X8725242Y-11608470D02*
X8695457Y-11655872D01*
X8756269Y-14344369D02*
X8750000Y-14400000D01*
X8750000Y-14747962D02*
X9750000Y-15747962D01*
X9750000Y-15747962D02*
X9750000Y-15750000D01*
X11500000Y-15750000D02*
X11750000Y-16000000D01*
X10675002Y-18856377D02*
X10699681Y-18907622D01*
X11750000Y-16000000D02*
X11750000Y-17000000D01*
X11501583Y-17239414D02*
X11450339Y-17264091D01*
X9250000Y-13900000D02*
X9243732Y-13955630D01*
X11546052Y-17203951D02*
X11501583Y-17239414D01*
X10488373Y-19243917D02*
X10431495Y-19243917D01*
X11430757Y-18244654D02*
X11430757Y-18301532D01*
X10723766Y-16749880D02*
X10672521Y-16725201D01*
X10672521Y-16725201D02*
X10617069Y-16712545D01*
X11394887Y-17276747D02*
X11338009Y-17276747D01*
X11186842Y-17203951D02*
X10768234Y-16785343D01*
X8608470Y-12925242D02*
X8555630Y-12943731D01*
X8804543Y-14244127D02*
X8774758Y-14291529D01*
X10617069Y-16712545D02*
X10560191Y-16712545D01*
X10504739Y-16725201D02*
X10453492Y-16749881D01*
X9690604Y-17862972D02*
X10639540Y-18811908D01*
X9630462Y-17599477D02*
X9617806Y-17654928D01*
X10373561Y-16829811D02*
X10348882Y-16881057D01*
X6213900Y-8699894D02*
X6149646Y-8722378D01*
X6271540Y-8663676D02*
X6213900Y-8699894D01*
X6319676Y-8615540D02*
X6271540Y-8663676D01*
X6378378Y-8493646D02*
X6355894Y-8557900D01*
X6386000Y-8426000D02*
X6378378Y-8493646D01*
X6386000Y-7734000D02*
X6386000Y-8426000D01*
X6393621Y-7666353D02*
X6386000Y-7734000D01*
X6452323Y-7544459D02*
X6416105Y-7602099D01*
X7950001Y-4350001D02*
X8250000Y-4650000D01*
X6500459Y-7496323D02*
X6452323Y-7544459D01*
X6690000Y-7430000D02*
X6622353Y-7437621D01*
X6821900Y-7460105D02*
X6757646Y-7437621D01*
X6879540Y-7496323D02*
X6821900Y-7460105D01*
X6927676Y-7544459D02*
X6879540Y-7496323D01*
X6994000Y-8780000D02*
X6994000Y-7734000D01*
X6995253Y-8791127D02*
X6994000Y-8780000D01*
X7022305Y-8825049D02*
X7012825Y-8819092D01*
X6986378Y-7666353D02*
X6963894Y-7602099D01*
X7552000Y-8830000D02*
X7044000Y-8830000D01*
X6994000Y-7734000D02*
X6986378Y-7666353D01*
X7563126Y-8828747D02*
X7552000Y-8830000D01*
X7573694Y-8825049D02*
X7563126Y-8828747D01*
X7583174Y-8819092D02*
X7573694Y-8825049D01*
X7600746Y-8791127D02*
X7597048Y-8801695D01*
X7609621Y-7666353D02*
X7602000Y-7734000D01*
X7668323Y-7544459D02*
X7632105Y-7602099D01*
X7716459Y-7496323D02*
X7668323Y-7544459D01*
X7774099Y-7460105D02*
X7716459Y-7496323D01*
X7838353Y-7437621D02*
X7774099Y-7460105D01*
X7032873Y-8828747D02*
X7022305Y-8825049D01*
X8179894Y-7602099D02*
X8143676Y-7544459D01*
X7044000Y-8830000D02*
X7032873Y-8828747D01*
X8202378Y-7666353D02*
X8179894Y-7602099D01*
X8210000Y-7734000D02*
X8202378Y-7666353D01*
X8210000Y-8780000D02*
X8210000Y-7734000D01*
X7012825Y-8819092D02*
X7004908Y-8811175D01*
X11225242Y-12448470D02*
X11243731Y-12395630D01*
X10844127Y-11935457D02*
X10804542Y-11895872D01*
X7973646Y-7437621D02*
X7906000Y-7430000D01*
X8768000Y-8830000D02*
X8260000Y-8830000D01*
X7602000Y-7734000D02*
X7602000Y-8780000D01*
X11225242Y-12131529D02*
X11195457Y-12084127D01*
X10891529Y-11965242D02*
X10844127Y-11935457D01*
X6622353Y-7437621D02*
X6558099Y-7460105D01*
X11243731Y-12184369D02*
X11225242Y-12131529D01*
X10891529Y-13814757D02*
X10944369Y-13796268D01*
X11250000Y-12240000D02*
X11243731Y-12184369D01*
X11250000Y-12340000D02*
X11250000Y-12240000D01*
X11108470Y-12014757D02*
X11055630Y-11996268D01*
X8143676Y-7544459D02*
X8095540Y-7496323D01*
X8799174Y-8819092D02*
X8789694Y-8825049D01*
X11250000Y-13440000D02*
X11243731Y-13384369D01*
X11250000Y-13540000D02*
X11250000Y-13440000D01*
X11108470Y-12565242D02*
X11155872Y-12535457D01*
X11243731Y-13595630D02*
X11250000Y-13540000D01*
X6355894Y-8557900D02*
X6319676Y-8615540D01*
X10944369Y-12596268D02*
X11055630Y-12583731D01*
X8238305Y-8825049D02*
X8228825Y-8819092D01*
X10891529Y-12614757D02*
X10944369Y-12596268D01*
X11243731Y-13384369D02*
X11225242Y-13331529D01*
X10774757Y-12731529D02*
X10804542Y-12684127D01*
X6963894Y-7602099D02*
X6927676Y-7544459D01*
X11055630Y-12583731D02*
X11108470Y-12565242D01*
X6757646Y-7437621D02*
X6690000Y-7430000D01*
X10756268Y-12784369D02*
X10774757Y-12731529D01*
X4500000Y-5750000D02*
X5899999Y-4350001D01*
X10750000Y-12840000D02*
X10756268Y-12784369D01*
X10891529Y-13165242D02*
X10844127Y-13135457D01*
X6558099Y-7460105D02*
X6500459Y-7496323D01*
X10177920Y-8730000D02*
X9730000Y-8730000D01*
X11225242Y-13331529D02*
X11195457Y-13284127D01*
X10750000Y-14040000D02*
X10756268Y-13984369D01*
X7591091Y-8811175D02*
X7583174Y-8819092D01*
X10944369Y-13183731D02*
X10891529Y-13165242D01*
X5230000Y-8730000D02*
X4500000Y-8000000D01*
X6998951Y-8801695D02*
X6995253Y-8791127D01*
X10756268Y-12995630D02*
X10750000Y-12940000D01*
X6416105Y-7602099D02*
X6393621Y-7666353D01*
X11055630Y-13196268D02*
X10944369Y-13183731D01*
X10774757Y-13048470D02*
X10756268Y-12995630D01*
X11155872Y-12044542D02*
X11108470Y-12014757D01*
X9054353Y-7437621D02*
X8990099Y-7460105D01*
X10844127Y-13135457D02*
X10804542Y-13095872D01*
X7602000Y-8780000D02*
X7600746Y-8791127D01*
X11195457Y-13284127D02*
X11155872Y-13244542D01*
X9395894Y-7602099D02*
X9359676Y-7544459D01*
X11195457Y-13695872D02*
X11225242Y-13648470D01*
X8214951Y-8801695D02*
X8211253Y-8791127D01*
X7906000Y-7430000D02*
X7838353Y-7437621D01*
X8260000Y-8830000D02*
X8248873Y-8828747D01*
X10756268Y-13984369D02*
X10774757Y-13931529D01*
X8990099Y-7460105D02*
X8932459Y-7496323D01*
X10804542Y-13095872D02*
X10774757Y-13048470D01*
X8816746Y-8791127D02*
X8813048Y-8801695D01*
X11155872Y-13244542D02*
X11108470Y-13214757D01*
X6149646Y-8722378D02*
X6082000Y-8730000D01*
X10804542Y-11895872D02*
X10774757Y-11848470D01*
X10750000Y-14800000D02*
X10750000Y-14040000D01*
X9359676Y-7544459D02*
X9311540Y-7496323D01*
X11155872Y-13735457D02*
X11195457Y-13695872D01*
X8095540Y-7496323D02*
X8037900Y-7460105D01*
X10944369Y-13796268D02*
X11055630Y-13783731D01*
X8789694Y-8825049D02*
X8779126Y-8828747D01*
X8037900Y-7460105D02*
X7973646Y-7437621D01*
X10844127Y-12644542D02*
X10891529Y-12614757D01*
X8779126Y-8828747D02*
X8768000Y-8830000D01*
X10804542Y-13884127D02*
X10844127Y-13844542D01*
X11225242Y-13648470D02*
X11243731Y-13595630D01*
X11108470Y-13214757D02*
X11055630Y-13196268D01*
X8848105Y-7602099D02*
X8825621Y-7666353D01*
X9433621Y-8493646D02*
X9426000Y-8426000D01*
X11055630Y-13783731D02*
X11108470Y-13765242D01*
X7632105Y-7602099D02*
X7609621Y-7666353D01*
X10804542Y-12684127D02*
X10844127Y-12644542D01*
X7597048Y-8801695D02*
X7591091Y-8811175D01*
X11055630Y-11996268D02*
X10944369Y-11983731D01*
X10750000Y-11740000D02*
X10750000Y-9302080D01*
X7004908Y-8811175D02*
X6998951Y-8801695D01*
X10774757Y-11848470D02*
X10756268Y-11795630D01*
X11155872Y-12535457D02*
X11195457Y-12495872D01*
X9730000Y-8730000D02*
X9662353Y-8722378D01*
X11195457Y-12495872D02*
X11225242Y-12448470D01*
X9662353Y-8722378D02*
X9598099Y-8699894D01*
X9540459Y-8663676D02*
X9492323Y-8615540D01*
X9492323Y-8615540D02*
X9456105Y-8557900D01*
X11108470Y-13765242D02*
X11155872Y-13735457D01*
X8884323Y-7544459D02*
X8848105Y-7602099D01*
X9456105Y-8557900D02*
X9433621Y-8493646D01*
X9426000Y-8426000D02*
X9426000Y-7734000D01*
X9426000Y-7734000D02*
X9418378Y-7666353D01*
X9418378Y-7666353D02*
X9395894Y-7602099D01*
X5899999Y-4350001D02*
X7950001Y-4350001D01*
X8220908Y-8811175D02*
X8214951Y-8801695D01*
X9311540Y-7496323D02*
X9253900Y-7460105D01*
X11243731Y-12395630D02*
X11250000Y-12340000D01*
X9253900Y-7460105D02*
X9189646Y-7437621D01*
X10756268Y-11795630D02*
X10750000Y-11740000D01*
X9189646Y-7437621D02*
X9122000Y-7430000D01*
X4500000Y-8000000D02*
X4500000Y-5750000D01*
X10750000Y-12940000D02*
X10750000Y-12840000D01*
X9122000Y-7430000D02*
X9054353Y-7437621D01*
X10844127Y-13844542D02*
X10891529Y-13814757D01*
X8932459Y-7496323D02*
X8884323Y-7544459D01*
X8825621Y-7666353D02*
X8818000Y-7734000D01*
X10774757Y-13931529D02*
X10804542Y-13884127D01*
X8818000Y-7734000D02*
X8818000Y-8780000D01*
X11195457Y-12084127D02*
X11155872Y-12044542D01*
X8818000Y-8780000D02*
X8816746Y-8791127D01*
X8813048Y-8801695D02*
X8807091Y-8811175D01*
X10944369Y-11983731D02*
X10891529Y-11965242D01*
X8807091Y-8811175D02*
X8799174Y-8819092D01*
X6082000Y-8730000D02*
X5230000Y-8730000D01*
X8248873Y-8828747D02*
X8238305Y-8825049D01*
X10750000Y-9302080D02*
X10177920Y-8730000D01*
X8228825Y-8819092D02*
X8220908Y-8811175D01*
X9598099Y-8699894D02*
X9540459Y-8663676D01*
X8211253Y-8791127D02*
X8210000Y-8780000D01*
X7760000Y-12856689D02*
X7760000Y-10340000D01*
X7760000Y-13640000D02*
X7760000Y-12856689D01*
X7766894Y-13701193D02*
X7760000Y-13640000D01*
X7787233Y-13759318D02*
X7766894Y-13701193D01*
X8310000Y-14240000D02*
X8310000Y-14190000D01*
X8154318Y-14487766D02*
X8206459Y-14455003D01*
X8096193Y-14508105D02*
X8154318Y-14487766D01*
X7973806Y-14521894D02*
X8096193Y-14508105D01*
X7863540Y-14574996D02*
X7915681Y-14542233D01*
X7819996Y-14618540D02*
X7863540Y-14574996D01*
X7787233Y-14670681D02*
X7819996Y-14618540D01*
X7767521Y-14856756D02*
X7760000Y-14790000D01*
X7789709Y-14920165D02*
X7767521Y-14856756D01*
X7825450Y-14977046D02*
X7789709Y-14920165D01*
X8250003Y-14018540D02*
X8206459Y-13974996D01*
X7929834Y-15060290D02*
X7872953Y-15024549D01*
X8282766Y-14070681D02*
X8250003Y-14018540D01*
X7993243Y-15082478D02*
X7929834Y-15060290D01*
X8310000Y-14190000D02*
X8303105Y-14128806D01*
X8310000Y-15090000D02*
X8060000Y-15090000D01*
X8376756Y-15097521D02*
X8310000Y-15090000D01*
X8440165Y-15119709D02*
X8376756Y-15097521D01*
X8497046Y-15155450D02*
X8440165Y-15119709D01*
X8544549Y-15202953D02*
X8497046Y-15155450D01*
X8206459Y-14455003D02*
X8250003Y-14411459D01*
X8580290Y-15259834D02*
X8544549Y-15202953D01*
X8602478Y-15323243D02*
X8580290Y-15259834D01*
X8610000Y-15390000D02*
X8602478Y-15323243D01*
X8602478Y-15456756D02*
X8610000Y-15390000D01*
X7915681Y-14542233D02*
X7973806Y-14521894D01*
X8580290Y-15520165D02*
X8602478Y-15456756D01*
X8544549Y-15577046D02*
X8580290Y-15520165D01*
X8376756Y-15682478D02*
X8440165Y-15660290D01*
X7394715Y-15739087D02*
X7437377Y-15712282D01*
X7359088Y-15774714D02*
X7394715Y-15739087D01*
X7332283Y-15817376D02*
X7359088Y-15774714D01*
X8497046Y-15624549D02*
X8544549Y-15577046D01*
X7315642Y-15864932D02*
X7332283Y-15817376D01*
X8440165Y-15660290D02*
X8497046Y-15624549D01*
X7310000Y-15915000D02*
X7315642Y-15864932D01*
X7766894Y-14728806D02*
X7787233Y-14670681D01*
X7310000Y-16065000D02*
X7310000Y-15915000D01*
X7484933Y-15695641D02*
X7535000Y-15690000D01*
X7359088Y-16205285D02*
X7332283Y-16162623D01*
X7437377Y-15712282D02*
X7484933Y-15695641D01*
X7394715Y-16240912D02*
X7359088Y-16205285D01*
X7872953Y-15024549D02*
X7825450Y-14977046D01*
X7437377Y-16267717D02*
X7394715Y-16240912D01*
X7484933Y-16284358D02*
X7437377Y-16267717D01*
X7535000Y-16290000D02*
X7484933Y-16284358D01*
X8460000Y-16290000D02*
X7535000Y-16290000D01*
X8590165Y-16319709D02*
X8526756Y-16297521D01*
X8647046Y-16355450D02*
X8590165Y-16319709D01*
X8730290Y-16459834D02*
X8694549Y-16402953D01*
X8752478Y-16523243D02*
X8730290Y-16459834D01*
X8760000Y-16590000D02*
X8752478Y-16523243D01*
X8752478Y-16656756D02*
X8760000Y-16590000D01*
X8730290Y-16720165D02*
X8752478Y-16656756D01*
X8694549Y-16777046D02*
X8730290Y-16720165D01*
X8647046Y-16824549D02*
X8694549Y-16777046D01*
X8590165Y-16860290D02*
X8647046Y-16824549D01*
X8526756Y-16882478D02*
X8590165Y-16860290D01*
X8460000Y-16890000D02*
X8526756Y-16882478D01*
X7510000Y-16890000D02*
X8460000Y-16890000D01*
X7454370Y-16896268D02*
X7510000Y-16890000D01*
X7401530Y-16914757D02*
X7454370Y-16896268D01*
X8526756Y-19282478D02*
X8590165Y-19260290D01*
X8460000Y-19290000D02*
X8526756Y-19282478D01*
X8647046Y-18024549D02*
X8694549Y-17977046D01*
X7510000Y-19290000D02*
X8460000Y-19290000D01*
X8590165Y-18060290D02*
X8647046Y-18024549D01*
X7314543Y-19384127D02*
X7354128Y-19344542D01*
X7814542Y-20584127D02*
X7854127Y-20544542D01*
X7284758Y-18548470D02*
X7266269Y-18495630D01*
X8760000Y-17790000D02*
X8752478Y-17723243D01*
X7284758Y-19431529D02*
X7314543Y-19384127D01*
X7314543Y-18595872D02*
X7284758Y-18548470D01*
X7260000Y-17240000D02*
X7260000Y-17140000D01*
X7266269Y-19484369D02*
X7284758Y-19431529D01*
X7354128Y-16944542D02*
X7401530Y-16914757D01*
X8162970Y-21912970D02*
X7760000Y-21510000D01*
X7454370Y-17483731D02*
X7401530Y-17465242D01*
X7819996Y-13811459D02*
X7787233Y-13759318D01*
X7260000Y-19640000D02*
X7260000Y-19540000D01*
X7915681Y-13887766D02*
X7863540Y-13855003D01*
X7266269Y-17084369D02*
X7284758Y-17031529D01*
X7284758Y-19748470D02*
X7266269Y-19695630D01*
X8154318Y-13942233D02*
X8096193Y-13921894D01*
X7401530Y-19865242D02*
X7354128Y-19835457D01*
X8206459Y-13974996D02*
X8154318Y-13942233D01*
X7454370Y-19883731D02*
X7401530Y-19865242D01*
X8526756Y-18697521D02*
X8460000Y-18690000D01*
X8694549Y-19177046D02*
X8730290Y-19120165D01*
X8010000Y-19890000D02*
X7510000Y-19890000D01*
X8065630Y-19896268D02*
X8010000Y-19890000D01*
X7760000Y-21510000D02*
X7760000Y-20740000D01*
X7401530Y-18665242D02*
X7354128Y-18635457D01*
X7863540Y-13855003D02*
X7819996Y-13811459D01*
X7266269Y-19695630D02*
X7260000Y-19640000D01*
X7454370Y-18096268D02*
X7510000Y-18090000D01*
X8526756Y-16297521D02*
X8460000Y-16290000D01*
X8118470Y-19914757D02*
X8065630Y-19896268D01*
X7454370Y-18683731D02*
X7401530Y-18665242D01*
X7760000Y-14790000D02*
X7766894Y-14728806D01*
X7766268Y-20684369D02*
X7784757Y-20631529D01*
X7954369Y-20496268D02*
X8065630Y-20483731D01*
X7901529Y-20514757D02*
X7954369Y-20496268D01*
X8647046Y-18755450D02*
X8590165Y-18719709D01*
X8460000Y-17490000D02*
X7510000Y-17490000D01*
X8590165Y-19260290D02*
X8647046Y-19224549D01*
X8096193Y-13921894D02*
X7973806Y-13908105D01*
X7354128Y-19835457D02*
X7314543Y-19795872D01*
X7510000Y-19890000D02*
X7454370Y-19883731D01*
X8065630Y-20483731D02*
X8118470Y-20465242D01*
X8752478Y-18923243D02*
X8730290Y-18859834D01*
X8694549Y-16402953D02*
X8647046Y-16355450D01*
X8205457Y-20395872D02*
X8235242Y-20348470D01*
X7354128Y-17435457D02*
X7314543Y-17395872D01*
X7535000Y-15690000D02*
X8310000Y-15690000D01*
X7332283Y-16162623D02*
X7315642Y-16115067D01*
X7760000Y-20740000D02*
X7766268Y-20684369D01*
X7284758Y-17031529D02*
X7314543Y-16984127D01*
X8694549Y-17602953D02*
X8647046Y-17555450D01*
X8253731Y-20295630D02*
X8260000Y-20240000D01*
X8730290Y-19120165D02*
X8752478Y-19056756D01*
X8752478Y-17723243D02*
X8730290Y-17659834D01*
X7354128Y-19344542D02*
X7401530Y-19314757D01*
X7266269Y-18495630D02*
X7260000Y-18440000D01*
X8250003Y-14411459D02*
X8282766Y-14359318D01*
X8253731Y-20084369D02*
X8235242Y-20031529D01*
X8260000Y-20140000D02*
X8253731Y-20084369D01*
X7401530Y-19314757D02*
X7454370Y-19296268D01*
X8260000Y-20240000D02*
X8260000Y-20140000D01*
X7314543Y-17395872D02*
X7284758Y-17348470D01*
X8303105Y-14128806D02*
X8282766Y-14070681D01*
X8060000Y-15090000D02*
X7993243Y-15082478D01*
X10857030Y-21912970D02*
X8162970Y-21912970D01*
X11200000Y-21570000D02*
X10857030Y-21912970D01*
X8282766Y-14359318D02*
X8303105Y-14301193D01*
X8235242Y-20031529D02*
X8205457Y-19984127D01*
X7314543Y-18184127D02*
X7354128Y-18144542D01*
X8303105Y-14301193D02*
X8310000Y-14240000D01*
X8205457Y-19984127D02*
X8165872Y-19944542D01*
X7354128Y-18144542D02*
X7401530Y-18114757D01*
X7284758Y-17348470D02*
X7266269Y-17295630D01*
X8310000Y-15690000D02*
X8376756Y-15682478D01*
X7315642Y-16115067D02*
X7310000Y-16065000D01*
X7260000Y-19540000D02*
X7266269Y-19484369D01*
X8235242Y-20348470D02*
X8253731Y-20295630D01*
X8647046Y-19224549D02*
X8694549Y-19177046D01*
X7454370Y-19296268D02*
X7510000Y-19290000D01*
X8526756Y-18082478D02*
X8590165Y-18060290D01*
X7854127Y-20544542D02*
X7901529Y-20514757D01*
X7260000Y-18440000D02*
X7260000Y-18340000D01*
X8752478Y-19056756D02*
X8760000Y-18990000D01*
X8760000Y-18990000D02*
X8752478Y-18923243D01*
X8730290Y-18859834D02*
X8694549Y-18802953D01*
X8118470Y-20465242D02*
X8165872Y-20435457D01*
X8590165Y-17519709D02*
X8526756Y-17497521D01*
X8694549Y-18802953D02*
X8647046Y-18755450D01*
X8526756Y-17497521D02*
X8460000Y-17490000D01*
X8590165Y-18719709D02*
X8526756Y-18697521D01*
X8460000Y-18690000D02*
X7510000Y-18690000D01*
X7510000Y-18690000D02*
X7454370Y-18683731D01*
X7354128Y-18635457D02*
X7314543Y-18595872D01*
X7266269Y-17295630D02*
X7260000Y-17240000D01*
X7260000Y-18340000D02*
X7266269Y-18284369D01*
X7266269Y-18284369D02*
X7284758Y-18231529D01*
X7284758Y-18231529D02*
X7314543Y-18184127D01*
X7401530Y-18114757D02*
X7454370Y-18096268D01*
X7973806Y-13908105D02*
X7915681Y-13887766D01*
X7784757Y-20631529D02*
X7814542Y-20584127D01*
X7314543Y-19795872D02*
X7284758Y-19748470D01*
X7260000Y-17140000D02*
X7266269Y-17084369D01*
X7510000Y-18090000D02*
X8460000Y-18090000D01*
X8460000Y-18090000D02*
X8526756Y-18082478D01*
X8694549Y-17977046D02*
X8730290Y-17920165D01*
X8165872Y-20435457D02*
X8205457Y-20395872D01*
X8165872Y-19944542D02*
X8118470Y-19914757D01*
X8730290Y-17920165D02*
X8752478Y-17856756D01*
X8752478Y-17856756D02*
X8760000Y-17790000D01*
X8730290Y-17659834D02*
X8694549Y-17602953D01*
X7314543Y-16984127D02*
X7354128Y-16944542D01*
X8647046Y-17555450D02*
X8590165Y-17519709D01*
X7510000Y-17490000D02*
X7454370Y-17483731D01*
X7401530Y-17465242D02*
X7354128Y-17435457D01*
X7746980Y-2533020D02*
X7340000Y-2940000D01*
X10360000Y-3440000D02*
X9453020Y-2533020D01*
X10360000Y-4640000D02*
X10360000Y-3440000D01*
X10330291Y-4770165D02*
X10352479Y-4706756D01*
X10294550Y-4827046D02*
X10330291Y-4770165D01*
X10190166Y-4910290D02*
X10247047Y-4874549D01*
X10126757Y-4932478D02*
X10190166Y-4910290D01*
X10060000Y-4940000D02*
X10126757Y-4932478D01*
X9756939Y-4940000D02*
X10060000Y-4940000D01*
X9522390Y-5052953D02*
X9569893Y-5005450D01*
X9456939Y-5240000D02*
X9464461Y-5173243D01*
X9464461Y-5306756D02*
X9456939Y-5240000D01*
X9486649Y-5370165D02*
X9464461Y-5306756D01*
X9569893Y-5474549D02*
X9522390Y-5427046D01*
X10963061Y-5540000D02*
X9756939Y-5540000D01*
X11029817Y-5547521D02*
X10963061Y-5540000D01*
X11150107Y-5605450D02*
X11093226Y-5569709D01*
X11263061Y-5840000D02*
X11255539Y-5773243D01*
X11150107Y-6074549D02*
X11197610Y-6027046D01*
X9486649Y-5109834D02*
X9522390Y-5052953D01*
X11093226Y-6110290D02*
X11150107Y-6074549D01*
X11029817Y-6132478D02*
X11093226Y-6110290D01*
X9690183Y-6147521D02*
X9756939Y-6140000D01*
X9626774Y-6169709D02*
X9690183Y-6147521D01*
X11233351Y-5970165D02*
X11255539Y-5906756D01*
X9522390Y-6252953D02*
X9569893Y-6205450D01*
X9626774Y-6710290D02*
X9569893Y-6674549D01*
X9756939Y-6740000D02*
X9690183Y-6732478D01*
X10963061Y-6740000D02*
X9756939Y-6740000D01*
X11093226Y-6769709D02*
X11029817Y-6747521D01*
X11150107Y-6805450D02*
X11093226Y-6769709D01*
X11233351Y-6909834D02*
X11197610Y-6852953D01*
X11255539Y-6973243D02*
X11233351Y-6909834D01*
X11263061Y-7040000D02*
X11255539Y-6973243D01*
X11255539Y-7106756D02*
X11263061Y-7040000D01*
X11150107Y-7274549D02*
X11197610Y-7227046D01*
X11093226Y-7310290D02*
X11150107Y-7274549D01*
X11029817Y-7332478D02*
X11093226Y-7310290D01*
X12250000Y-10590000D02*
X12250000Y-10490000D01*
X12225243Y-11581529D02*
X12195458Y-11534127D01*
X12195458Y-10745872D02*
X12225243Y-10698470D01*
X11029817Y-6747521D02*
X10963061Y-6740000D01*
X12225243Y-10381529D02*
X12195458Y-10334127D01*
X11500000Y-10240000D02*
X11444369Y-10233731D01*
X11256268Y-10045630D02*
X11250000Y-9990000D01*
X9569893Y-5005450D02*
X9626774Y-4969709D01*
X11250000Y-11190000D02*
X11250000Y-11090000D01*
X11444369Y-11433731D02*
X11391529Y-11415242D01*
X12108471Y-10815242D02*
X12155873Y-10785457D01*
X11500000Y-11440000D02*
X11444369Y-11433731D01*
X11256268Y-11245630D02*
X11250000Y-11190000D01*
X9456939Y-6440000D02*
X9464461Y-6373243D01*
X12055631Y-10833731D02*
X12108471Y-10815242D01*
X12000000Y-11440000D02*
X11500000Y-11440000D01*
X9464461Y-6506756D02*
X9456939Y-6440000D01*
X11344127Y-11385457D02*
X11304542Y-11345872D01*
X11500000Y-10840000D02*
X12000000Y-10840000D01*
X11250000Y-11090000D02*
X11256268Y-11034369D01*
X11444369Y-10846268D02*
X11500000Y-10840000D01*
X9626774Y-5510290D02*
X9569893Y-5474549D01*
X12000000Y-10840000D02*
X12055631Y-10833731D01*
X11304542Y-11345872D02*
X11274757Y-11298470D01*
X11274757Y-10981529D02*
X11304542Y-10934127D01*
X11197610Y-5652953D02*
X11150107Y-5605450D01*
X10963061Y-6140000D02*
X11029817Y-6132478D01*
X12155873Y-11494542D02*
X12108471Y-11464757D01*
X11391529Y-11415242D02*
X11344127Y-11385457D01*
X12243732Y-10645630D02*
X12250000Y-10590000D01*
X9569893Y-6674549D02*
X9522390Y-6627046D01*
X12225243Y-11898470D02*
X12243732Y-11845630D01*
X12155873Y-10294542D02*
X12108471Y-10264757D01*
X11391529Y-10215242D02*
X11344127Y-10185457D01*
X9453020Y-2533020D02*
X7746980Y-2533020D01*
X11233351Y-7170165D02*
X11255539Y-7106756D01*
X11804543Y-12134127D02*
X11844128Y-12094542D01*
X9464461Y-5173243D02*
X9486649Y-5109834D01*
X12250000Y-10490000D02*
X12243732Y-10434369D01*
X10425450Y-7452953D02*
X10472953Y-7405450D01*
X11197610Y-6852953D02*
X11150107Y-6805450D01*
X12055631Y-11446268D02*
X12000000Y-11440000D01*
X12250000Y-11690000D02*
X12243732Y-11634369D01*
X12155873Y-11985457D02*
X12195458Y-11945872D01*
X11274757Y-11298470D02*
X11256268Y-11245630D01*
X12108471Y-11464757D02*
X12055631Y-11446268D01*
X11750000Y-12290000D02*
X11756269Y-12234369D01*
X12225243Y-10698470D02*
X12243732Y-10645630D01*
X12195458Y-10334127D02*
X12155873Y-10294542D01*
X10352479Y-4706756D02*
X10360000Y-4640000D01*
X11444369Y-10233731D02*
X11391529Y-10215242D01*
X11233351Y-5709834D02*
X11197610Y-5652953D01*
X9756939Y-6140000D02*
X10963061Y-6140000D01*
X11250000Y-9990000D02*
X11250000Y-9890000D01*
X11774758Y-12181529D02*
X11804543Y-12134127D01*
X11891530Y-12064757D02*
X11944370Y-12046268D01*
X9626774Y-4969709D02*
X9690183Y-4947521D01*
X11274757Y-9781529D02*
X11304542Y-9734127D01*
X9486649Y-6570165D02*
X9464461Y-6506756D01*
X12000000Y-9640000D02*
X12055631Y-9633731D01*
X12243732Y-9445630D02*
X12250000Y-9390000D01*
X12155873Y-9094542D02*
X12108471Y-9064757D01*
X11344127Y-10894542D02*
X11391529Y-10864757D01*
X11750000Y-14790000D02*
X11750000Y-12290000D01*
X11844128Y-12094542D02*
X11891530Y-12064757D01*
X11197610Y-7227046D02*
X11233351Y-7170165D01*
X11344127Y-10185457D02*
X11304542Y-10145872D01*
X12195458Y-11945872D02*
X12225243Y-11898470D01*
X11256268Y-11034369D02*
X11274757Y-10981529D01*
X12250000Y-11790000D02*
X12250000Y-11690000D01*
X11255539Y-5906756D02*
X11263061Y-5840000D01*
X9569893Y-6205450D02*
X9626774Y-6169709D01*
X12243732Y-11634369D02*
X12225243Y-11581529D01*
X12243732Y-11845630D02*
X12250000Y-11790000D01*
X12195458Y-11534127D02*
X12155873Y-11494542D01*
X11344127Y-9694542D02*
X11391529Y-9664757D01*
X11391529Y-10864757D02*
X11444369Y-10846268D01*
X9522390Y-6627046D02*
X9486649Y-6570165D01*
X11756269Y-12234369D02*
X11774758Y-12181529D01*
X10247047Y-4874549D02*
X10294550Y-4827046D01*
X12108471Y-10264757D02*
X12055631Y-10246268D01*
X11944370Y-12046268D02*
X12055631Y-12033731D01*
X11255539Y-5773243D02*
X11233351Y-5709834D01*
X12055631Y-12033731D02*
X12108471Y-12015242D01*
X12243732Y-10434369D02*
X12225243Y-10381529D01*
X12000000Y-10240000D02*
X11500000Y-10240000D01*
X11274757Y-10098470D02*
X11256268Y-10045630D01*
X9690183Y-6732478D02*
X9626774Y-6710290D01*
X12055631Y-10246268D02*
X12000000Y-10240000D01*
X11304542Y-10145872D02*
X11274757Y-10098470D01*
X12155873Y-10785457D02*
X12195458Y-10745872D01*
X11250000Y-9890000D02*
X11256268Y-9834369D01*
X10963061Y-7340000D02*
X11029817Y-7332478D01*
X11444369Y-9646268D02*
X11500000Y-9640000D01*
X9464461Y-6373243D02*
X9486649Y-6309834D01*
X12195458Y-9545872D02*
X12225243Y-9498470D01*
X12225243Y-9181529D02*
X12195458Y-9134127D01*
X11256268Y-9834369D02*
X11274757Y-9781529D01*
X9756939Y-5540000D02*
X9690183Y-5532478D01*
X11500000Y-9640000D02*
X12000000Y-9640000D01*
X12225243Y-9498470D02*
X12243732Y-9445630D01*
X12195458Y-9134127D02*
X12155873Y-9094542D01*
X11093226Y-5569709D02*
X11029817Y-5547521D01*
X11304542Y-9734127D02*
X11344127Y-9694542D01*
X12055631Y-9633731D02*
X12108471Y-9615242D01*
X12250000Y-9390000D02*
X12250000Y-9290000D01*
X9690183Y-5532478D02*
X9626774Y-5510290D01*
X12108471Y-9064757D02*
X12055631Y-9046268D01*
X11391529Y-9664757D02*
X11444369Y-9646268D01*
X12243732Y-9234369D02*
X12225243Y-9181529D01*
X12108471Y-12015242D02*
X12155873Y-11985457D01*
X12108471Y-9615242D02*
X12155873Y-9585457D01*
X12155873Y-9585457D02*
X12195458Y-9545872D01*
X12055631Y-9046268D02*
X12000000Y-9040000D01*
X10389709Y-7509834D02*
X10425450Y-7452953D01*
X12000000Y-9040000D02*
X11270000Y-9040000D01*
X11270000Y-9040000D02*
X10360000Y-8130000D01*
X9522390Y-5427046D02*
X9486649Y-5370165D01*
X10360000Y-8130000D02*
X10360000Y-7640000D01*
X11197610Y-6027046D02*
X11233351Y-5970165D01*
X9486649Y-6309834D02*
X9522390Y-6252953D01*
X10360000Y-7640000D02*
X10367521Y-7573243D01*
X10367521Y-7573243D02*
X10389709Y-7509834D01*
X10472953Y-7405450D02*
X10529834Y-7369709D01*
X10529834Y-7369709D02*
X10593243Y-7347521D01*
X9690183Y-4947521D02*
X9756939Y-4940000D01*
X12250000Y-9290000D02*
X12243732Y-9234369D01*
X10593243Y-7347521D02*
X10660000Y-7340000D01*
X11304542Y-10934127D02*
X11344127Y-10894542D01*
X10660000Y-7340000D02*
X10963061Y-7340000D01*
X11743020Y-22366980D02*
X12250000Y-21860000D01*
X6760000Y-16273373D02*
X6760000Y-21960000D01*
X6753271Y-16213654D02*
X6760000Y-16273373D01*
X6733422Y-16156930D02*
X6753271Y-16213654D01*
X6608069Y-16031577D02*
X6658954Y-16063550D01*
X6551345Y-16011728D02*
X6608069Y-16031577D01*
X6431908Y-15998271D02*
X6551345Y-16011728D01*
X6324299Y-15946449D02*
X6375184Y-15978422D01*
X6281804Y-15903954D02*
X6324299Y-15946449D01*
X6249831Y-15853069D02*
X6281804Y-15903954D01*
X6223254Y-15736627D02*
X6229982Y-15796345D01*
X6223254Y-15673373D02*
X6223254Y-15736627D01*
X6229982Y-15613654D02*
X6223254Y-15673373D01*
X6249831Y-15556930D02*
X6229982Y-15613654D01*
X6281804Y-15506045D02*
X6249831Y-15556930D01*
X6324299Y-15463550D02*
X6281804Y-15506045D01*
X6375184Y-15431577D02*
X6324299Y-15463550D01*
X6431908Y-15411728D02*
X6375184Y-15431577D01*
X6491627Y-15405000D02*
X6431908Y-15411728D01*
X7003373Y-15405000D02*
X6491627Y-15405000D01*
X7057529Y-15398898D02*
X7003373Y-15405000D01*
X7108969Y-15380898D02*
X7057529Y-15398898D01*
X7193650Y-15313367D02*
X7155114Y-15351903D01*
X7222645Y-15267222D02*
X7193650Y-15313367D01*
X7240645Y-15215782D02*
X7222645Y-15267222D01*
X7246746Y-15161627D02*
X7240645Y-15215782D01*
X7240645Y-14994217D02*
X7246746Y-15048373D01*
X6375184Y-15978422D02*
X6431908Y-15998271D01*
X6324299Y-13063550D02*
X6281804Y-13106045D01*
X6281804Y-14703954D02*
X6324299Y-14746449D01*
X6281804Y-13106045D02*
X6249831Y-13156930D01*
X7108969Y-14829101D02*
X7155114Y-14858096D01*
X7108969Y-12980898D02*
X7057529Y-12998898D01*
X6431908Y-14798271D02*
X6491627Y-14805000D01*
X7155114Y-12951903D02*
X7108969Y-12980898D01*
X7193650Y-12913367D02*
X7155114Y-12951903D01*
X6375184Y-13031577D02*
X6324299Y-13063550D01*
X6324299Y-12339822D02*
X6375184Y-12371795D01*
X7222645Y-12867222D02*
X7193650Y-12913367D01*
X7057529Y-12998898D02*
X7003373Y-13005000D01*
X7246746Y-12761627D02*
X7240645Y-12815782D01*
X7246746Y-12648373D02*
X7246746Y-12761627D01*
X6229982Y-12007027D02*
X6223254Y-12066746D01*
X7166980Y-22366980D02*
X11743020Y-22366980D01*
X7108969Y-14180898D02*
X7057529Y-14198898D01*
X6701449Y-16106045D02*
X6733422Y-16156930D01*
X7193650Y-12496632D02*
X7222645Y-12542777D01*
X7003373Y-12405000D02*
X7057529Y-12411101D01*
X7155114Y-14151903D02*
X7108969Y-14180898D01*
X7222645Y-12542777D02*
X7240645Y-12594217D01*
X7155114Y-12458096D02*
X7193650Y-12496632D01*
X7003373Y-14205000D02*
X6491627Y-14205000D01*
X7240645Y-12594217D02*
X7246746Y-12648373D01*
X6760000Y-12405000D02*
X7003373Y-12405000D01*
X6760000Y-12398373D02*
X6760000Y-12405000D01*
X6491627Y-12398373D02*
X6760000Y-12398373D01*
X6249831Y-14356930D02*
X6229982Y-14413654D01*
X6375184Y-13578422D02*
X6431908Y-13598271D01*
X6431908Y-11805101D02*
X6375184Y-11824950D01*
X6551345Y-11791644D02*
X6431908Y-11805101D01*
X7108969Y-12429101D02*
X7155114Y-12458096D01*
X6249831Y-12246442D02*
X6281804Y-12297327D01*
X6249831Y-14653069D02*
X6281804Y-14703954D01*
X6750000Y-10764264D02*
X6760000Y-10774264D01*
X6324299Y-11856923D02*
X6281804Y-11899418D01*
X6229982Y-13396345D02*
X6249831Y-13453069D01*
X6658954Y-16063550D02*
X6701449Y-16106045D01*
X6760000Y-10774264D02*
X6760000Y-11530000D01*
X6281804Y-11899418D02*
X6249831Y-11950303D01*
X6733422Y-11646442D02*
X6701449Y-11697327D01*
X7246746Y-13961627D02*
X7240645Y-14015782D01*
X6658954Y-11739822D02*
X6608069Y-11771795D01*
X6249831Y-11950303D02*
X6229982Y-12007027D01*
X6375184Y-12371795D02*
X6431908Y-12391644D01*
X6281804Y-12297327D02*
X6324299Y-12339822D01*
X6760000Y-21960000D02*
X7166980Y-22366980D01*
X7222645Y-13742777D02*
X7240645Y-13794217D01*
X7193650Y-14113367D02*
X7155114Y-14151903D01*
X7222645Y-14942777D02*
X7240645Y-14994217D01*
X6760000Y-11530000D02*
X6753271Y-11589718D01*
X6750000Y-10340000D02*
X6750000Y-10764264D01*
X6491627Y-13605000D02*
X7003373Y-13605000D01*
X6223254Y-12066746D02*
X6223254Y-12130000D01*
X7057529Y-12411101D02*
X7108969Y-12429101D01*
X7057529Y-14811101D02*
X7108969Y-14829101D01*
X6229982Y-12189718D02*
X6249831Y-12246442D01*
X6223254Y-12130000D02*
X6229982Y-12189718D01*
X7003373Y-13005000D02*
X6491627Y-13005000D01*
X6375184Y-11824950D02*
X6324299Y-11856923D01*
X7240645Y-12815782D02*
X7222645Y-12867222D01*
X6249831Y-13156930D02*
X6229982Y-13213654D01*
X6229982Y-13213654D02*
X6223254Y-13273373D01*
X6229982Y-15796345D02*
X6249831Y-15853069D01*
X6223254Y-13273373D02*
X6223254Y-13336627D01*
X6223254Y-13336627D02*
X6229982Y-13396345D01*
X6229982Y-14596345D02*
X6249831Y-14653069D01*
X6491627Y-13005000D02*
X6431908Y-13011728D01*
X6249831Y-13453069D02*
X6281804Y-13503954D01*
X6281804Y-13503954D02*
X6324299Y-13546449D01*
X6324299Y-13546449D02*
X6375184Y-13578422D01*
X6431908Y-13598271D02*
X6491627Y-13605000D01*
X7003373Y-14805000D02*
X7057529Y-14811101D01*
X7003373Y-13605000D02*
X7057529Y-13611101D01*
X7057529Y-13611101D02*
X7108969Y-13629101D01*
X7108969Y-13629101D02*
X7155114Y-13658096D01*
X7155114Y-13658096D02*
X7193650Y-13696632D01*
X7193650Y-13696632D02*
X7222645Y-13742777D01*
X7240645Y-13794217D02*
X7246746Y-13848373D01*
X7246746Y-13848373D02*
X7246746Y-13961627D01*
X7240645Y-14015782D02*
X7222645Y-14067222D01*
X7155114Y-14858096D02*
X7193650Y-14896632D01*
X7222645Y-14067222D02*
X7193650Y-14113367D01*
X7193650Y-14896632D02*
X7222645Y-14942777D01*
X6431908Y-12391644D02*
X6491627Y-12398373D01*
X7057529Y-14198898D02*
X7003373Y-14205000D01*
X6491627Y-14205000D02*
X6431908Y-14211728D01*
X6431908Y-14211728D02*
X6375184Y-14231577D01*
X6375184Y-14231577D02*
X6324299Y-14263550D01*
X6324299Y-14263550D02*
X6281804Y-14306045D01*
X6281804Y-14306045D02*
X6249831Y-14356930D01*
X6431908Y-13011728D02*
X6375184Y-13031577D01*
X6229982Y-14413654D02*
X6223254Y-14473373D01*
X6753271Y-11589718D02*
X6733422Y-11646442D01*
X6608069Y-11771795D02*
X6551345Y-11791644D01*
X6223254Y-14473373D02*
X6223254Y-14536627D01*
X7246746Y-15048373D02*
X7246746Y-15161627D01*
X6223254Y-14536627D02*
X6229982Y-14596345D01*
X6701449Y-11697327D02*
X6658954Y-11739822D01*
X6324299Y-14746449D02*
X6375184Y-14778422D01*
X7155114Y-15351903D02*
X7108969Y-15380898D01*
X6375184Y-14778422D02*
X6431908Y-14798271D01*
X6491627Y-14805000D02*
X7003373Y-14805000D01*
X12750000Y-13030000D02*
X12750000Y-13510000D01*
X12939426Y-5849709D02*
X12882545Y-5885450D01*
X13769624Y-5807956D02*
X13759157Y-5814533D01*
X13735204Y-7020000D02*
X13069592Y-7020000D01*
X13778365Y-6440784D02*
X13784942Y-6451251D01*
X13789024Y-5777080D02*
X13784942Y-5788748D01*
X13769624Y-6432043D02*
X13778365Y-6440784D01*
X13002835Y-5827521D02*
X12939426Y-5849709D01*
X13790408Y-5275204D02*
X13790408Y-5764796D01*
X12882545Y-7085450D02*
X12835042Y-7132953D01*
X13789024Y-5262919D02*
X13790408Y-5275204D01*
X12939426Y-7049709D02*
X12882545Y-7085450D01*
X13784942Y-5251251D02*
X13789024Y-5262919D01*
X12835042Y-5107046D02*
X12882545Y-5154549D01*
X13680000Y-2670000D02*
X13680000Y-4320000D01*
X13002835Y-4627521D02*
X12939426Y-4649709D01*
X13510165Y-7649709D02*
X13567046Y-7685450D01*
X13769624Y-5232043D02*
X13778365Y-5240784D01*
X13759157Y-5225466D02*
X13769624Y-5232043D01*
X13784942Y-5788748D02*
X13778365Y-5799215D01*
X13735204Y-5220000D02*
X13747489Y-5221384D01*
X13790408Y-5764796D02*
X13789024Y-5777080D01*
X13002835Y-5212478D02*
X13069592Y-5220000D01*
X13069592Y-5820000D02*
X13002835Y-5827521D01*
X13747489Y-5221384D02*
X13759157Y-5225466D01*
X13002835Y-7027521D02*
X12939426Y-7049709D01*
X13446756Y-4612478D02*
X13380000Y-4620000D01*
X12835042Y-4732953D02*
X12799301Y-4789834D01*
X12882545Y-5885450D02*
X12835042Y-5932953D01*
X12939426Y-4649709D02*
X12882545Y-4685450D01*
X13650290Y-7789834D02*
X13672478Y-7853243D01*
X13778365Y-5799215D02*
X13769624Y-5807956D01*
X13784942Y-6451251D02*
X13789024Y-6462919D01*
X12799301Y-5050165D02*
X12835042Y-5107046D01*
X12799301Y-4789834D02*
X12777113Y-4853243D01*
X13747489Y-5818615D02*
X13735204Y-5820000D01*
X13069592Y-4620000D02*
X13002835Y-4627521D01*
X6270000Y-2380000D02*
X6570990Y-2079010D01*
X13380000Y-4620000D02*
X13069592Y-4620000D01*
X13778365Y-6999215D02*
X13769624Y-7007956D01*
X13789024Y-6462919D02*
X13790408Y-6475204D01*
X13759157Y-5814533D02*
X13747489Y-5818615D01*
X13672478Y-4386756D02*
X13650290Y-4450165D01*
X12882545Y-4685450D02*
X12835042Y-4732953D01*
X13069592Y-7020000D02*
X13002835Y-7027521D01*
X6570990Y-2079010D02*
X13089010Y-2079010D01*
X12939426Y-5190290D02*
X13002835Y-5212478D01*
X12882545Y-7554549D02*
X12939426Y-7590290D01*
X13614549Y-4507046D02*
X13567046Y-4554549D01*
X13650290Y-4450165D02*
X13614549Y-4507046D01*
X13069592Y-5220000D02*
X13735204Y-5220000D01*
X13510165Y-4590290D02*
X13446756Y-4612478D01*
X12799301Y-7450165D02*
X12835042Y-7507046D01*
X13680000Y-4320000D02*
X13672478Y-4386756D01*
X12777113Y-6053243D02*
X12769592Y-6120000D01*
X13735204Y-5820000D02*
X13069592Y-5820000D01*
X13089010Y-2079010D02*
X13680000Y-2670000D01*
X12835042Y-5932953D02*
X12799301Y-5989834D01*
X12769592Y-7320000D02*
X12777113Y-7386756D01*
X12799301Y-5989834D02*
X12777113Y-6053243D01*
X12777113Y-7386756D02*
X12799301Y-7450165D01*
X12769592Y-6120000D02*
X12777113Y-6186756D01*
X13567046Y-4554549D02*
X13510165Y-4590290D01*
X12777113Y-4986756D02*
X12799301Y-5050165D01*
X12777113Y-6186756D02*
X12799301Y-6250165D01*
X12799301Y-6250165D02*
X12835042Y-6307046D01*
X12882545Y-5154549D02*
X12939426Y-5190290D01*
X12835042Y-6307046D02*
X12882545Y-6354549D01*
X12777113Y-4853243D02*
X12769592Y-4920000D01*
X12882545Y-6354549D02*
X12939426Y-6390290D01*
X12939426Y-6390290D02*
X13002835Y-6412478D01*
X13002835Y-6412478D02*
X13069592Y-6420000D01*
X13069592Y-6420000D02*
X13735204Y-6420000D01*
X12769592Y-4920000D02*
X12777113Y-4986756D01*
X13735204Y-6420000D02*
X13747489Y-6421384D01*
X13747489Y-6421384D02*
X13759157Y-6425466D01*
X13759157Y-6425466D02*
X13769624Y-6432043D01*
X13790408Y-6475204D02*
X13790408Y-6964796D01*
X13790408Y-6964796D02*
X13789024Y-6977080D01*
X13789024Y-6977080D02*
X13784942Y-6988748D01*
X13784942Y-6988748D02*
X13778365Y-6999215D01*
X13769624Y-7007956D02*
X13759157Y-7014533D01*
X13759157Y-7014533D02*
X13747489Y-7018615D01*
X13747489Y-7018615D02*
X13735204Y-7020000D01*
X13614549Y-7732953D02*
X13650290Y-7789834D01*
X12835042Y-7132953D02*
X12799301Y-7189834D01*
X12799301Y-7189834D02*
X12777113Y-7253243D01*
X12750000Y-13510000D02*
X12750000Y-14750000D01*
X12777113Y-7253243D02*
X12769592Y-7320000D01*
X12835042Y-7507046D02*
X12882545Y-7554549D01*
X12939426Y-7590290D02*
X13002835Y-7612478D01*
X13002835Y-7612478D02*
X13069592Y-7620000D01*
X13680000Y-12100000D02*
X12750000Y-13030000D01*
X13069592Y-7620000D02*
X13380000Y-7620000D01*
X13680000Y-7920000D02*
X13680000Y-12100000D01*
X13380000Y-7620000D02*
X13446756Y-7627521D01*
X13446756Y-7627521D02*
X13510165Y-7649709D01*
X13567046Y-7685450D02*
X13614549Y-7732953D01*
X13778365Y-5240784D02*
X13784942Y-5251251D01*
X13672478Y-7853243D02*
X13680000Y-7920000D01*
X5750000Y-12819453D02*
X5750000Y-10325000D01*
X5750000Y-14090020D02*
X5750000Y-12819453D01*
X5743921Y-14143979D02*
X5750000Y-14090020D01*
X5725986Y-14195232D02*
X5743921Y-14143979D01*
X5697097Y-14241210D02*
X5725986Y-14195232D01*
X5658701Y-14279606D02*
X5697097Y-14241210D01*
X5612723Y-14308495D02*
X5658701Y-14279606D01*
X5561470Y-14326430D02*
X5612723Y-14308495D01*
X5453551Y-14338589D02*
X5561470Y-14326430D01*
X5402298Y-14356524D02*
X5453551Y-14338589D01*
X5356320Y-14385413D02*
X5402298Y-14356524D01*
X5317924Y-14423809D02*
X5356320Y-14385413D01*
X5289035Y-14469787D02*
X5317924Y-14423809D01*
X5271100Y-14521040D02*
X5289035Y-14469787D01*
X5265020Y-14575000D02*
X5271100Y-14521040D01*
X5265020Y-14690020D02*
X5265020Y-14575000D01*
X5271100Y-14743979D02*
X5265020Y-14690020D01*
X5289035Y-14795232D02*
X5271100Y-14743979D01*
X5317924Y-14841210D02*
X5289035Y-14795232D01*
X5356320Y-14879606D02*
X5317924Y-14841210D01*
X5402298Y-14908495D02*
X5356320Y-14879606D01*
X5453551Y-14926430D02*
X5402298Y-14908495D01*
X5561470Y-14938589D02*
X5453551Y-14926430D01*
X5612723Y-14956524D02*
X5561470Y-14938589D01*
X5658701Y-14985413D02*
X5612723Y-14956524D01*
X5697097Y-15023809D02*
X5658701Y-14985413D01*
X5725986Y-15069787D02*
X5697097Y-15023809D01*
X5743921Y-15121040D02*
X5725986Y-15069787D01*
X5750000Y-15175000D02*
X5743921Y-15121040D01*
X5750000Y-15290020D02*
X5750000Y-15175000D01*
X5265020Y-15775000D02*
X5271100Y-15721040D01*
X5658701Y-15479606D02*
X5697097Y-15441210D01*
X5265020Y-15890020D02*
X5265020Y-15775000D01*
X5612723Y-15508495D02*
X5658701Y-15479606D01*
X5271100Y-15943979D02*
X5265020Y-15890020D01*
X5561470Y-15526430D02*
X5612723Y-15508495D01*
X5289035Y-15995232D02*
X5271100Y-15943979D01*
X5453551Y-15538589D02*
X5561470Y-15526430D01*
X5317924Y-16041210D02*
X5289035Y-15995232D01*
X5402298Y-15556524D02*
X5453551Y-15538589D01*
X5356320Y-16079606D02*
X5317924Y-16041210D01*
X5356320Y-15585413D02*
X5402298Y-15556524D01*
X5402298Y-16108495D02*
X5356320Y-16079606D01*
X5317924Y-15623809D02*
X5356320Y-15585413D01*
X5453551Y-16126430D02*
X5402298Y-16108495D01*
X5289035Y-15669787D02*
X5317924Y-15623809D01*
X5561470Y-16138589D02*
X5453551Y-16126430D01*
X5271100Y-15721040D02*
X5289035Y-15669787D01*
X5612723Y-16156524D02*
X5561470Y-16138589D01*
X5658701Y-16185413D02*
X5612723Y-16156524D01*
X5697097Y-16223809D02*
X5658701Y-16185413D01*
X5725986Y-16269787D02*
X5697097Y-16223809D01*
X5750000Y-16375000D02*
X5743921Y-16321040D01*
X5750000Y-16382510D02*
X5750000Y-16375000D01*
X5743921Y-16436469D02*
X5750000Y-16382510D01*
X5725986Y-16487722D02*
X5743921Y-16436469D01*
X5697097Y-16533700D02*
X5725986Y-16487722D01*
X5402298Y-16649014D02*
X5453551Y-16631079D01*
X5356320Y-16677903D02*
X5402298Y-16649014D01*
X5317924Y-16716299D02*
X5356320Y-16677903D01*
X5289035Y-16762277D02*
X5317924Y-16716299D01*
X5271100Y-16813530D02*
X5289035Y-16762277D01*
X5265020Y-16982510D02*
X5265020Y-16867490D01*
X5289035Y-17087722D02*
X5271100Y-17036469D01*
X5271100Y-19213530D02*
X5289035Y-19162277D01*
X5402298Y-18400985D02*
X5356320Y-18372096D01*
X6017490Y-19025000D02*
X6077012Y-19018293D01*
X5265020Y-16867490D02*
X5271100Y-16813530D01*
X5901430Y-20258999D02*
X5957967Y-20239216D01*
X5507510Y-19025000D02*
X6017490Y-19025000D01*
X6226622Y-19733222D02*
X6184267Y-19690867D01*
X5265020Y-19267490D02*
X5271100Y-19213530D01*
X5750000Y-21592066D02*
X5750000Y-20500000D01*
X5453551Y-18418920D02*
X5402298Y-18400985D01*
X5356320Y-17172096D02*
X5317924Y-17133700D01*
X5271100Y-19436469D02*
X5265020Y-19382510D01*
X6184267Y-18483357D02*
X6133549Y-18451489D01*
X5402298Y-19049014D02*
X5453551Y-19031079D01*
X6133549Y-18998510D02*
X6184267Y-18966642D01*
X6077012Y-19639216D02*
X6017490Y-19632510D01*
X6284980Y-18757510D02*
X6284980Y-18692490D01*
X5453551Y-19618920D02*
X5402298Y-19600985D01*
X12854010Y-22820990D02*
X6978923Y-22820990D01*
X5725986Y-15395232D02*
X5743921Y-15343979D01*
X6258490Y-20081079D02*
X6278273Y-20024542D01*
X5697097Y-15441210D02*
X5725986Y-15395232D01*
X6226622Y-20131797D02*
X6258490Y-20081079D01*
X5743921Y-15343979D02*
X5750000Y-15290020D01*
X6278273Y-20024542D02*
X6284980Y-19965020D01*
X5808357Y-20333222D02*
X5850712Y-20290867D01*
X5776489Y-20383940D02*
X5808357Y-20333222D01*
X6017490Y-18425000D02*
X5507510Y-18425000D01*
X5612723Y-16600985D02*
X5658701Y-16572096D01*
X5453551Y-17218920D02*
X5402298Y-17200985D01*
X5271100Y-17036469D02*
X5265020Y-16982510D01*
X13275000Y-22400000D02*
X12854010Y-22820990D01*
X5453551Y-19031079D02*
X5507510Y-19025000D01*
X5750000Y-19625000D02*
X5507510Y-19625000D01*
X5750000Y-20500000D02*
X5756706Y-20440477D01*
X6978923Y-22820990D02*
X5750000Y-21592066D01*
X6278273Y-19840477D02*
X6258490Y-19783940D01*
X5743921Y-16321040D02*
X5725986Y-16269787D01*
X6284980Y-19965020D02*
X6284980Y-19900000D01*
X5356320Y-19077903D02*
X5402298Y-19049014D01*
X5507510Y-19625000D02*
X5453551Y-19618920D01*
X6278273Y-18817032D02*
X6284980Y-18757510D01*
X6284980Y-18692490D02*
X6278273Y-18632967D01*
X5402298Y-19600985D02*
X5356320Y-19572096D01*
X5289035Y-19487722D02*
X5271100Y-19436469D01*
X6226622Y-18525712D02*
X6184267Y-18483357D01*
X6184267Y-19690867D02*
X6133549Y-19658999D01*
X6258490Y-17673569D02*
X6278273Y-17617032D01*
X6077012Y-19018293D02*
X6133549Y-18998510D01*
X6133549Y-19658999D02*
X6077012Y-19639216D01*
X6278273Y-17617032D02*
X6284980Y-17557510D01*
X5289035Y-19162277D02*
X5317924Y-19116299D01*
X5356320Y-18372096D02*
X5317924Y-18333700D01*
X6284980Y-19900000D02*
X6278273Y-19840477D01*
X5957967Y-20239216D02*
X6077012Y-20225803D01*
X6258490Y-18576430D02*
X6226622Y-18525712D01*
X5317924Y-19533700D02*
X5289035Y-19487722D01*
X6017490Y-19632510D02*
X5750000Y-19632510D01*
X6184267Y-18966642D02*
X6226622Y-18924287D01*
X5750000Y-19632510D02*
X5750000Y-19625000D01*
X6226622Y-18924287D02*
X6258490Y-18873569D01*
X6258490Y-18873569D02*
X6278273Y-18817032D01*
X5356320Y-19572096D02*
X5317924Y-19533700D01*
X6077012Y-20225803D02*
X6133549Y-20206020D01*
X6278273Y-18632967D02*
X6258490Y-18576430D01*
X5265020Y-19382510D02*
X5265020Y-19267490D01*
X6133549Y-18451489D02*
X6077012Y-18431706D01*
X6077012Y-18431706D02*
X6017490Y-18425000D01*
X5561470Y-16618920D02*
X5612723Y-16600985D01*
X5507510Y-17225000D02*
X5453551Y-17218920D01*
X5507510Y-18425000D02*
X5453551Y-18418920D01*
X5658701Y-16572096D02*
X5697097Y-16533700D01*
X5402298Y-17200985D02*
X5356320Y-17172096D01*
X5317924Y-18333700D02*
X5289035Y-18287722D01*
X6133549Y-20206020D02*
X6184267Y-20174152D01*
X5289035Y-18287722D02*
X5271100Y-18236469D01*
X5271100Y-18236469D02*
X5265020Y-18182510D01*
X5265020Y-18182510D02*
X5265020Y-18067490D01*
X5265020Y-18067490D02*
X5271100Y-18013530D01*
X5271100Y-18013530D02*
X5289035Y-17962277D01*
X5289035Y-17962277D02*
X5317924Y-17916299D01*
X5317924Y-17133700D02*
X5289035Y-17087722D01*
X5317924Y-17916299D02*
X5356320Y-17877903D01*
X5356320Y-17877903D02*
X5402298Y-17849014D01*
X5402298Y-17849014D02*
X5453551Y-17831079D01*
X5756706Y-20440477D02*
X5776489Y-20383940D01*
X5453551Y-17831079D02*
X5507510Y-17825000D01*
X5507510Y-17825000D02*
X6017490Y-17825000D01*
X6017490Y-17825000D02*
X6077012Y-17818293D01*
X6077012Y-17818293D02*
X6133549Y-17798510D01*
X6133549Y-17798510D02*
X6184267Y-17766642D01*
X6184267Y-17766642D02*
X6226622Y-17724287D01*
X6226622Y-17724287D02*
X6258490Y-17673569D01*
X5317924Y-19116299D02*
X5356320Y-19077903D01*
X6284980Y-17557510D02*
X6284980Y-17492490D01*
X6284980Y-17492490D02*
X6278273Y-17432967D01*
X6278273Y-17432967D02*
X6258490Y-17376430D01*
X6258490Y-17376430D02*
X6226622Y-17325712D01*
X6258490Y-19783940D02*
X6226622Y-19733222D01*
X5850712Y-20290867D02*
X5901430Y-20258999D01*
X6226622Y-17325712D02*
X6184267Y-17283357D01*
X6184267Y-17283357D02*
X6133549Y-17251489D01*
X6184267Y-20174152D02*
X6226622Y-20131797D01*
X6133549Y-17251489D02*
X6077012Y-17231706D01*
X6077012Y-17231706D02*
X6017490Y-17225000D01*
X5453551Y-16631079D02*
X5561470Y-16618920D01*
X6017490Y-17225000D02*
X5507510Y-17225000D01*
X4750000Y-20160000D02*
X4750000Y-10300000D01*
X4750000Y-21234134D02*
X4750000Y-20160000D01*
X6790866Y-23275000D02*
X4750000Y-21234134D01*
X13400000Y-23275000D02*
X6790866Y-23275000D01*
X14250000Y-22425000D02*
X13400000Y-23275000D01*
D13*
X18110000Y-16450000D02*
X17690000Y-16030000D01*
X11750000Y-23910000D02*
X12442001Y-24602001D01*
X18110000Y-22230000D02*
X18110000Y-16450000D01*
X12442001Y-24602001D02*
X15737999Y-24602001D01*
X15737999Y-24602001D02*
X18110000Y-22230000D01*
X6130000Y-23910000D02*
X5470000Y-23250000D01*
X9590000Y-23910000D02*
X6130000Y-23910000D01*
X9590000Y-23910000D02*
X11750000Y-23910000D01*
D12*
X14360000Y-2370000D02*
X14360000Y-14090000D01*
X13615000Y-1625000D02*
X14360000Y-2370000D01*
X12475000Y-1625000D02*
X13615000Y-1625000D01*
X12344834Y-1595291D02*
X12408243Y-1617479D01*
X12182521Y-1391757D02*
X12204709Y-1455166D01*
X12175000Y-925000D02*
X12175000Y-1325000D01*
X12062046Y-690451D02*
X12109549Y-737954D01*
X12240450Y-1512047D02*
X12287953Y-1559550D01*
X11744834Y-654710D02*
X11808243Y-632522D01*
X11640450Y-737954D02*
X11687953Y-690451D01*
X11604709Y-794835D02*
X11640450Y-737954D01*
X11567478Y-1391757D02*
X11575000Y-1325000D01*
X11545290Y-1455166D02*
X11567478Y-1391757D01*
X11405165Y-1595291D02*
X11462046Y-1559550D01*
X11341756Y-1617479D02*
X11405165Y-1595291D01*
X12175000Y-1325000D02*
X12182521Y-1391757D01*
X11208243Y-1617479D02*
X11275000Y-1625000D01*
X11509549Y-1512047D02*
X11545290Y-1455166D01*
X11144834Y-1595291D02*
X11208243Y-1617479D01*
X11087953Y-1559550D02*
X11144834Y-1595291D01*
X11808243Y-632522D02*
X11875000Y-625000D01*
X11040450Y-1512047D02*
X11087953Y-1559550D01*
X10982521Y-1391757D02*
X11004709Y-1455166D01*
X11582521Y-858244D02*
X11604709Y-794835D01*
X10975000Y-1325000D02*
X10982521Y-1391757D01*
X11687953Y-690451D02*
X11744834Y-654710D01*
X10975000Y-925000D02*
X10975000Y-1325000D01*
X12204709Y-1455166D02*
X12240450Y-1512047D01*
X10967478Y-858244D02*
X10975000Y-925000D01*
X11941756Y-632522D02*
X12005165Y-654710D01*
X10909549Y-737954D02*
X10945290Y-794835D01*
X12005165Y-654710D02*
X12062046Y-690451D01*
X10805165Y-654710D02*
X10862046Y-690451D01*
X12145290Y-794835D02*
X12167478Y-858244D01*
X10675000Y-625000D02*
X10741756Y-632522D01*
X9745290Y-794835D02*
X9767478Y-858244D01*
X9541756Y-632522D02*
X9605165Y-654710D01*
X12167478Y-858244D02*
X12175000Y-925000D01*
X9709549Y-737954D02*
X9745290Y-794835D01*
X11275000Y-1625000D02*
X11341756Y-1617479D01*
X11004709Y-1455166D02*
X11040450Y-1512047D01*
X10945290Y-794835D02*
X10967478Y-858244D01*
X9775000Y-925000D02*
X9775000Y-1325000D01*
X10367478Y-1391757D02*
X10375000Y-1325000D01*
X9344834Y-654710D02*
X9408243Y-632522D01*
X9475000Y-625000D02*
X9541756Y-632522D01*
X9662046Y-690451D02*
X9709549Y-737954D01*
X9240450Y-737954D02*
X9287953Y-690451D01*
X9605165Y-654710D02*
X9662046Y-690451D01*
X12287953Y-1559550D02*
X12344834Y-1595291D01*
X12109549Y-737954D02*
X12145290Y-794835D01*
X8875000Y-1625000D02*
X8941756Y-1617479D01*
X9182521Y-858244D02*
X9204709Y-794835D01*
X9840450Y-1512047D02*
X9887953Y-1559550D01*
X9005165Y-1595291D02*
X9062046Y-1559550D01*
X9062046Y-1559550D02*
X9109549Y-1512047D01*
X11575000Y-1325000D02*
X11575000Y-925000D01*
X10075000Y-1625000D02*
X10141756Y-1617479D01*
X10544834Y-654710D02*
X10608243Y-632522D01*
X10741756Y-632522D02*
X10805165Y-654710D01*
X9175000Y-1325000D02*
X9175000Y-925000D01*
X11575000Y-925000D02*
X11582521Y-858244D01*
X9408243Y-632522D02*
X9475000Y-625000D01*
X5300000Y-2325000D02*
X6000000Y-1625000D01*
X11875000Y-625000D02*
X11941756Y-632522D01*
X6000000Y-1625000D02*
X8875000Y-1625000D01*
X14360000Y-14090000D02*
X13750000Y-14700000D01*
X8941756Y-1617479D02*
X9005165Y-1595291D01*
X10008243Y-1617479D02*
X10075000Y-1625000D01*
X9109549Y-1512047D02*
X9145290Y-1455166D01*
X9887953Y-1559550D02*
X9944834Y-1595291D01*
X9175000Y-925000D02*
X9182521Y-858244D01*
X9775000Y-1325000D02*
X9782521Y-1391757D01*
X9782521Y-1391757D02*
X9804709Y-1455166D01*
X9944834Y-1595291D02*
X10008243Y-1617479D01*
X10440450Y-737954D02*
X10487953Y-690451D01*
X9167478Y-1391757D02*
X9175000Y-1325000D01*
X10205165Y-1595291D02*
X10262046Y-1559550D01*
X12408243Y-1617479D02*
X12475000Y-1625000D01*
X11462046Y-1559550D02*
X11509549Y-1512047D01*
X10608243Y-632522D02*
X10675000Y-625000D01*
X10141756Y-1617479D02*
X10205165Y-1595291D01*
X10262046Y-1559550D02*
X10309549Y-1512047D01*
X9804709Y-1455166D02*
X9840450Y-1512047D01*
X10309549Y-1512047D02*
X10345290Y-1455166D01*
X10345290Y-1455166D02*
X10367478Y-1391757D01*
X10862046Y-690451D02*
X10909549Y-737954D01*
X9204709Y-794835D02*
X9240450Y-737954D01*
X9767478Y-858244D02*
X9775000Y-925000D01*
X10375000Y-1325000D02*
X10375000Y-925000D01*
X9287953Y-690451D02*
X9344834Y-654710D01*
X9145290Y-1455166D02*
X9167478Y-1391757D01*
X10375000Y-925000D02*
X10382521Y-858244D01*
X10404709Y-794835D02*
X10440450Y-737954D01*
X10382521Y-858244D02*
X10404709Y-794835D01*
X10487953Y-690451D02*
X10544834Y-654710D01*
M02*
