G04 ================== begin FILE IDENTIFICATION RECORD ==================*
G04 Layout Name:  PCA-034015001_rev1_Ultrasonic.brd*
G04 Film Name:    BOTTOM_SILK*
G04 File Format:  Gerber RS274X*
G04 File Origin:  Cadence Allegro 16.6-S032*
G04 Origin Date:  Thu Sep 18 11:45:49 2014*
G04 *
G04 Layer:  REF DES/SILKSCREEN_BOTTOM*
G04 Layer:  BOARD GEOMETRY/SILKSCREEN_BOTTOM*
G04 Layer:  BOARD GEOMETRY/OUTLINE*
G04 Layer:  DRAWING FORMAT/TEXT_SILKBOTTOM*
G04 Layer:  MANUFACTURING/AUTOSILK_BOTTOM*
G04 *
G04 Offset:    (0.0 0.0)*
G04 Mirror:    No*
G04 Mode:      Positive*
G04 Rotation:  0*
G04 FullContactRelief:  No*
G04 UndefLineWidth:     1.0*
G04 ================== end FILE IDENTIFICATION RECORD ====================*
%FSLAX25Y25*MOIN*%
%IR0*IPPOS*OFA0.00000B0.00000*MIA0B0*SFA1.00000B1.00000*%
%ADD10C,.008*%
%ADD11C,.0079*%
%ADD12C,.0098*%
%ADD13C,.001*%
%ADD14C,.0001*%
G75*
%LPD*%
G75*
G54D10*
G01X20200Y40200D02*
Y37000D01*
G01X21200Y40200D02*
X19200D01*
G01X18370Y37000D02*
Y40200D01*
X17330D01*
X16980Y40040D01*
X16720Y39670D01*
X16630Y39240D01*
X16720Y38810D01*
X16940Y38490D01*
X17330Y38330D01*
X18370D01*
G01X14800Y37000D02*
Y40200D01*
X15320Y39560D01*
G01Y37000D02*
X14280D01*
G01X21200Y48300D02*
X18000D01*
G01X21200Y47300D02*
Y49300D01*
G01X18000Y50130D02*
X21200D01*
Y51170D01*
X21040Y51520D01*
X20670Y51780D01*
X20240Y51870D01*
X19810Y51780D01*
X19490Y51560D01*
X19330Y51170D01*
Y50130D01*
G01X18640Y52750D02*
X18270Y53010D01*
X18050Y53350D01*
X18000Y53740D01*
X18050Y54090D01*
X18320Y54440D01*
X18640Y54650D01*
X18960Y54700D01*
X19330Y54610D01*
X19600Y54310D01*
X19710Y54000D01*
Y53610D01*
G01Y54000D02*
X19870Y54260D01*
X20130Y54480D01*
X20450Y54570D01*
X20770Y54480D01*
X21040Y54260D01*
X21200Y53870D01*
X21150Y53480D01*
X20930Y53090D01*
G01X14150Y77500D02*
Y80700D01*
X13290D01*
X12940Y80540D01*
X12680Y80330D01*
X12460Y80010D01*
X12290Y79630D01*
X12250Y79100D01*
X12290Y78570D01*
X12460Y78190D01*
X12680Y77870D01*
X12940Y77660D01*
X13290Y77500D01*
X14150D01*
G01X10500D02*
Y80700D01*
X11020Y80060D01*
G01Y77500D02*
X9980D01*
G01X8620Y80170D02*
X8360Y80490D01*
X8060Y80650D01*
X7710Y80700D01*
X7280Y80590D01*
X6980Y80330D01*
X6890Y80010D01*
X6930Y79690D01*
X7110Y79420D01*
X7970Y78890D01*
X8360Y78510D01*
X8620Y77980D01*
X8710Y77500D01*
X6890D01*
G01X14310Y110980D02*
Y114180D01*
X13450D01*
X13100Y114020D01*
X12840Y113810D01*
X12620Y113490D01*
X12450Y113110D01*
X12410Y112580D01*
X12450Y112050D01*
X12620Y111670D01*
X12840Y111350D01*
X13100Y111140D01*
X13450Y110980D01*
X14310D01*
G01X10660D02*
Y114180D01*
X11180Y113540D01*
G01Y110980D02*
X10140D01*
G01X8910Y111620D02*
X8650Y111250D01*
X8310Y111030D01*
X7920Y110980D01*
X7570Y111030D01*
X7220Y111300D01*
X7010Y111620D01*
X6960Y111940D01*
X7050Y112310D01*
X7350Y112580D01*
X7660Y112690D01*
X8050D01*
G01X7660D02*
X7400Y112850D01*
X7180Y113110D01*
X7090Y113430D01*
X7180Y113750D01*
X7400Y114020D01*
X7790Y114180D01*
X8180Y114130D01*
X8570Y113910D01*
G01X31250Y31430D02*
X31510Y31590D01*
X31810Y31700D01*
X32160D01*
X32550Y31540D01*
X32850Y31270D01*
X33070Y30950D01*
X33240Y30420D01*
X33280Y29940D01*
X33200Y29460D01*
X33070Y29140D01*
X32810Y28820D01*
X32500Y28610D01*
X32200Y28500D01*
X31900D01*
X31590Y28610D01*
X31330Y28770D01*
X31120Y28980D01*
G01X29500Y28500D02*
Y31700D01*
X30020Y31060D01*
G01Y28500D02*
X28980D01*
G01X26800Y31700D02*
X27150Y31590D01*
X27410Y31330D01*
X27580Y31010D01*
X27710Y30580D01*
X27750Y30100D01*
X27710Y29620D01*
X27580Y29190D01*
X27410Y28870D01*
X27150Y28610D01*
X26800Y28500D01*
X26450Y28610D01*
X26190Y28870D01*
X26020Y29190D01*
X25890Y29620D01*
X25850Y30100D01*
X25890Y30580D01*
X26020Y31010D01*
X26190Y31330D01*
X26450Y31590D01*
X26800Y31700D01*
G01X33570Y26700D02*
Y23500D01*
X31830D01*
G01X30000D02*
Y26700D01*
X30520Y26060D01*
G01Y23500D02*
X29480D01*
G01X40250Y41930D02*
X40510Y42090D01*
X40810Y42200D01*
X41160D01*
X41550Y42040D01*
X41850Y41770D01*
X42070Y41450D01*
X42240Y40920D01*
X42280Y40440D01*
X42200Y39960D01*
X42070Y39640D01*
X41810Y39320D01*
X41500Y39110D01*
X41200Y39000D01*
X40900D01*
X40590Y39110D01*
X40330Y39270D01*
X40120Y39480D01*
G01X39450D02*
X39190Y39210D01*
X38890Y39050D01*
X38500Y39000D01*
X38110Y39110D01*
X37810Y39320D01*
X37590Y39690D01*
X37550Y40120D01*
X37630Y40550D01*
X37850Y40810D01*
X38150Y41030D01*
X38460Y41080D01*
X38760Y41030D01*
X39150Y40810D01*
X39020Y42200D01*
X37850D01*
G01X38750Y52930D02*
X39010Y53090D01*
X39310Y53200D01*
X39660D01*
X40050Y53040D01*
X40350Y52770D01*
X40570Y52450D01*
X40740Y51920D01*
X40780Y51440D01*
X40700Y50960D01*
X40570Y50640D01*
X40310Y50320D01*
X40000Y50110D01*
X39700Y50000D01*
X39400D01*
X39090Y50110D01*
X38830Y50270D01*
X38620Y50480D01*
G01X37090Y50000D02*
X37000Y50690D01*
X36870Y51280D01*
X36700Y51810D01*
X36480Y52400D01*
X36130Y53200D01*
X37870D01*
G01X32700Y45200D02*
Y42000D01*
G01X33700Y45200D02*
X31700D01*
G01X30870Y42000D02*
Y45200D01*
X29830D01*
X29480Y45040D01*
X29220Y44670D01*
X29130Y44240D01*
X29220Y43810D01*
X29440Y43490D01*
X29830Y43330D01*
X30870D01*
G01X28120Y44670D02*
X27860Y44990D01*
X27560Y45150D01*
X27210Y45200D01*
X26780Y45090D01*
X26480Y44830D01*
X26390Y44510D01*
X26430Y44190D01*
X26610Y43920D01*
X27470Y43390D01*
X27860Y43010D01*
X28120Y42480D01*
X28210Y42000D01*
X26390D01*
G01X29700Y53300D02*
X26500D01*
G01X29700Y52300D02*
Y54300D01*
G01X26500Y55130D02*
X29700D01*
Y56170D01*
X29540Y56520D01*
X29170Y56780D01*
X28740Y56870D01*
X28310Y56780D01*
X27990Y56560D01*
X27830Y56170D01*
Y55130D01*
G01X26500Y59220D02*
X29700D01*
X27410Y57620D01*
Y59780D01*
G01X36750Y67930D02*
X37010Y68090D01*
X37310Y68200D01*
X37660D01*
X38050Y68040D01*
X38350Y67770D01*
X38570Y67450D01*
X38740Y66920D01*
X38780Y66440D01*
X38700Y65960D01*
X38570Y65640D01*
X38310Y65320D01*
X38000Y65110D01*
X37700Y65000D01*
X37400D01*
X37090Y65110D01*
X36830Y65270D01*
X36620Y65480D01*
G01X35820Y66330D02*
X35520Y66710D01*
X35260Y66920D01*
X34910Y67030D01*
X34610Y66920D01*
X34390Y66710D01*
X34220Y66390D01*
X34180Y66010D01*
X34220Y65690D01*
X34390Y65370D01*
X34650Y65110D01*
X34960Y65000D01*
X35300Y65110D01*
X35610Y65430D01*
X35780Y65910D01*
X35820Y66440D01*
X35740Y67130D01*
X35610Y67510D01*
X35390Y67880D01*
X35090Y68150D01*
X34780Y68200D01*
X34480Y68090D01*
X34260Y67830D01*
G01X45930Y72250D02*
X46090Y71990D01*
X46200Y71690D01*
Y71340D01*
X46040Y70950D01*
X45770Y70650D01*
X45450Y70430D01*
X44920Y70260D01*
X44440Y70220D01*
X43960Y70300D01*
X43640Y70430D01*
X43320Y70690D01*
X43110Y71000D01*
X43000Y71300D01*
Y71600D01*
X43110Y71910D01*
X43270Y72170D01*
X43480Y72380D01*
G01X43000Y74000D02*
X46200D01*
X45560Y73480D01*
G01X43000D02*
Y74520D01*
G01X45670Y75880D02*
X45990Y76140D01*
X46150Y76440D01*
X46200Y76790D01*
X46090Y77220D01*
X45830Y77520D01*
X45510Y77610D01*
X45190Y77570D01*
X44920Y77390D01*
X44390Y76530D01*
X44010Y76140D01*
X43480Y75880D01*
X43000Y75790D01*
Y77610D01*
G01X41200Y88200D02*
Y85000D01*
G01X42200Y88200D02*
X40200D01*
G01X39370Y85000D02*
Y88200D01*
X38330D01*
X37980Y88040D01*
X37720Y87670D01*
X37630Y87240D01*
X37720Y86810D01*
X37940Y86490D01*
X38330Y86330D01*
X39370D01*
G01X36540Y85370D02*
X36230Y85110D01*
X35890Y85000D01*
X35540Y85110D01*
X35240Y85430D01*
X35020Y85910D01*
X34930Y86390D01*
Y86970D01*
X35020Y87450D01*
X35240Y87880D01*
X35500Y88090D01*
X35800Y88200D01*
X36150Y88090D01*
X36410Y87880D01*
X36580Y87560D01*
X36670Y87130D01*
X36580Y86760D01*
X36360Y86390D01*
X36100Y86170D01*
X35800Y86120D01*
X35450Y86230D01*
X35190Y86490D01*
X34930Y86970D01*
G01X34440Y141600D02*
X33570D01*
Y140640D01*
X33830Y140320D01*
X34140Y140110D01*
X34570Y140000D01*
X35000Y140110D01*
X35310Y140320D01*
X35570Y140640D01*
X35740Y141010D01*
X35830Y141440D01*
Y141810D01*
X35740Y142130D01*
X35570Y142510D01*
X35310Y142830D01*
X35050Y143040D01*
X34700Y143200D01*
X34400D01*
X34050Y143090D01*
X33790Y142880D01*
G01X33000Y140000D02*
Y143200D01*
X31000Y140000D01*
Y143200D01*
G01X30250Y140000D02*
Y143200D01*
X29390D01*
X29040Y143040D01*
X28780Y142830D01*
X28560Y142510D01*
X28390Y142130D01*
X28350Y141600D01*
X28390Y141070D01*
X28560Y140690D01*
X28780Y140370D01*
X29040Y140160D01*
X29390Y140000D01*
X30250D01*
G01X36050Y148700D02*
Y145500D01*
G01X37050Y148700D02*
X35050D01*
G01X34220Y145500D02*
Y148700D01*
X33180D01*
X32830Y148540D01*
X32570Y148170D01*
X32480Y147740D01*
X32570Y147310D01*
X32790Y146990D01*
X33180Y146830D01*
X34220D01*
G01X30650Y145500D02*
Y148700D01*
X31170Y148060D01*
G01Y145500D02*
X30130D01*
G01X28770Y146830D02*
X28470Y147210D01*
X28210Y147420D01*
X27860Y147530D01*
X27560Y147420D01*
X27340Y147210D01*
X27170Y146890D01*
X27130Y146510D01*
X27170Y146190D01*
X27340Y145870D01*
X27600Y145610D01*
X27910Y145500D01*
X28250Y145610D01*
X28560Y145930D01*
X28730Y146410D01*
X28770Y146940D01*
X28690Y147630D01*
X28560Y148010D01*
X28340Y148380D01*
X28040Y148650D01*
X27730Y148700D01*
X27430Y148590D01*
X27210Y148330D01*
G01X49780Y182200D02*
X48700Y179000D01*
X47620Y182200D01*
G01X46950Y179000D02*
Y182200D01*
X46090D01*
X45740Y182040D01*
X45480Y181830D01*
X45260Y181510D01*
X45090Y181130D01*
X45050Y180600D01*
X45090Y180070D01*
X45260Y179690D01*
X45480Y179370D01*
X45740Y179160D01*
X46090Y179000D01*
X46950D01*
G01X44250D02*
Y182200D01*
X43390D01*
X43040Y182040D01*
X42780Y181830D01*
X42560Y181510D01*
X42390Y181130D01*
X42350Y180600D01*
X42390Y180070D01*
X42560Y179690D01*
X42780Y179370D01*
X43040Y179160D01*
X43390Y179000D01*
X44250D01*
G01X41900Y177930D02*
X39300D01*
G01X38850Y179480D02*
X38590Y179210D01*
X38290Y179050D01*
X37900Y179000D01*
X37510Y179110D01*
X37210Y179320D01*
X36990Y179690D01*
X36950Y180120D01*
X37030Y180550D01*
X37250Y180810D01*
X37550Y181030D01*
X37860Y181080D01*
X38160Y181030D01*
X38550Y180810D01*
X38420Y182200D01*
X37250D01*
G01X36280D02*
X35200Y179000D01*
X34120Y182200D01*
G01X32500D02*
X32850Y182090D01*
X33110Y181830D01*
X33280Y181510D01*
X33410Y181080D01*
X33450Y180600D01*
X33410Y180120D01*
X33280Y179690D01*
X33110Y179370D01*
X32850Y179110D01*
X32500Y179000D01*
X32150Y179110D01*
X31890Y179370D01*
X31720Y179690D01*
X31590Y180120D01*
X31550Y180600D01*
X31590Y181080D01*
X31720Y181510D01*
X31890Y181830D01*
X32150Y182090D01*
X32500Y182200D01*
G01X45550Y187200D02*
Y184000D01*
G01X46550Y187200D02*
X44550D01*
G01X43720Y184000D02*
Y187200D01*
X42680D01*
X42330Y187040D01*
X42070Y186670D01*
X41980Y186240D01*
X42070Y185810D01*
X42290Y185490D01*
X42680Y185330D01*
X43720D01*
G01X40150Y184000D02*
Y187200D01*
X40670Y186560D01*
G01Y184000D02*
X39630D01*
G01X38400Y184480D02*
X38140Y184210D01*
X37840Y184050D01*
X37450Y184000D01*
X37060Y184110D01*
X36760Y184320D01*
X36540Y184690D01*
X36500Y185120D01*
X36580Y185550D01*
X36800Y185810D01*
X37100Y186030D01*
X37410Y186080D01*
X37710Y186030D01*
X38100Y185810D01*
X37970Y187200D01*
X36800D01*
G01X49000Y19850D02*
X52200D01*
Y20710D01*
X52040Y21060D01*
X51830Y21320D01*
X51510Y21540D01*
X51130Y21710D01*
X50600Y21750D01*
X50070Y21710D01*
X49690Y21540D01*
X49370Y21320D01*
X49160Y21060D01*
X49000Y20710D01*
Y19850D01*
G01Y23500D02*
X52200D01*
X51560Y22980D01*
G01X49000D02*
Y24020D01*
G01X49480Y25250D02*
X49210Y25510D01*
X49050Y25810D01*
X49000Y26200D01*
X49110Y26590D01*
X49320Y26890D01*
X49690Y27110D01*
X50120Y27150D01*
X50550Y27070D01*
X50810Y26850D01*
X51030Y26550D01*
X51080Y26240D01*
X51030Y25940D01*
X50810Y25550D01*
X52200Y25680D01*
Y26850D01*
G01X58500Y21430D02*
X61700D01*
Y22520D01*
X61540Y22860D01*
X61330Y23080D01*
X60900Y23170D01*
X60470Y23080D01*
X60210Y22820D01*
X60050Y22520D01*
Y21430D01*
G01Y22520D02*
X58500Y23170D01*
G01X58980Y24050D02*
X58710Y24310D01*
X58550Y24610D01*
X58500Y25000D01*
X58610Y25390D01*
X58820Y25690D01*
X59190Y25910D01*
X59620Y25950D01*
X60050Y25870D01*
X60310Y25650D01*
X60530Y25350D01*
X60580Y25040D01*
X60530Y24740D01*
X60310Y24350D01*
X61700Y24480D01*
Y25650D01*
G01X61170Y26880D02*
X61490Y27140D01*
X61650Y27440D01*
X61700Y27790D01*
X61590Y28220D01*
X61330Y28520D01*
X61010Y28610D01*
X60690Y28570D01*
X60420Y28390D01*
X59890Y27530D01*
X59510Y27140D01*
X58980Y26880D01*
X58500Y26790D01*
Y28610D01*
G01X54000Y21930D02*
X57200D01*
Y23020D01*
X57040Y23360D01*
X56830Y23580D01*
X56400Y23670D01*
X55970Y23580D01*
X55710Y23320D01*
X55550Y23020D01*
Y21930D01*
G01Y23020D02*
X54000Y23670D01*
G01X54480Y24550D02*
X54210Y24810D01*
X54050Y25110D01*
X54000Y25500D01*
X54110Y25890D01*
X54320Y26190D01*
X54690Y26410D01*
X55120Y26450D01*
X55550Y26370D01*
X55810Y26150D01*
X56030Y25850D01*
X56080Y25540D01*
X56030Y25240D01*
X55810Y24850D01*
X57200Y24980D01*
Y26150D01*
G01X54640Y27250D02*
X54270Y27510D01*
X54050Y27850D01*
X54000Y28240D01*
X54050Y28590D01*
X54320Y28940D01*
X54640Y29150D01*
X54960Y29200D01*
X55330Y29110D01*
X55600Y28810D01*
X55710Y28500D01*
Y28110D01*
G01Y28500D02*
X55870Y28760D01*
X56130Y28980D01*
X56450Y29070D01*
X56770Y28980D01*
X57040Y28760D01*
X57200Y28370D01*
X57150Y27980D01*
X56930Y27590D01*
G01X55430Y44250D02*
X55590Y43990D01*
X55700Y43690D01*
Y43340D01*
X55540Y42950D01*
X55270Y42650D01*
X54950Y42430D01*
X54420Y42260D01*
X53940Y42220D01*
X53460Y42300D01*
X53140Y42430D01*
X52820Y42690D01*
X52610Y43000D01*
X52500Y43300D01*
Y43600D01*
X52610Y43910D01*
X52770Y44170D01*
X52980Y44380D01*
G01X52500Y46000D02*
X55700D01*
X55060Y45480D01*
G01X52500D02*
Y46520D01*
G01X53140Y47750D02*
X52770Y48010D01*
X52550Y48350D01*
X52500Y48740D01*
X52550Y49090D01*
X52820Y49440D01*
X53140Y49650D01*
X53460Y49700D01*
X53830Y49610D01*
X54100Y49310D01*
X54210Y49000D01*
Y48610D01*
G01Y49000D02*
X54370Y49260D01*
X54630Y49480D01*
X54950Y49570D01*
X55270Y49480D01*
X55540Y49260D01*
X55700Y48870D01*
X55650Y48480D01*
X55430Y48090D01*
G01X48000Y43930D02*
X51200D01*
Y45020D01*
X51040Y45360D01*
X50830Y45580D01*
X50400Y45670D01*
X49970Y45580D01*
X49710Y45320D01*
X49550Y45020D01*
Y43930D01*
G01Y45020D02*
X48000Y45670D01*
G01X50670Y46680D02*
X50990Y46940D01*
X51150Y47240D01*
X51200Y47590D01*
X51090Y48020D01*
X50830Y48320D01*
X50510Y48410D01*
X50190Y48370D01*
X49920Y48190D01*
X49390Y47330D01*
X49010Y46940D01*
X48480Y46680D01*
X48000Y46590D01*
Y48410D01*
G01X61500Y41930D02*
X64700D01*
Y43020D01*
X64540Y43360D01*
X64330Y43580D01*
X63900Y43670D01*
X63470Y43580D01*
X63210Y43320D01*
X63050Y43020D01*
Y41930D01*
G01Y43020D02*
X61500Y43670D01*
G01Y45500D02*
X61550Y45800D01*
X61710Y46150D01*
X61980Y46370D01*
X62350Y46450D01*
X62730Y46370D01*
X63050Y46110D01*
X63210Y45720D01*
Y45280D01*
X63310Y45020D01*
X63580Y44810D01*
X63950Y44720D01*
X64330Y44850D01*
X64590Y45150D01*
X64700Y45500D01*
X64590Y45850D01*
X64330Y46150D01*
X63950Y46280D01*
X63580Y46190D01*
X63310Y45980D01*
X63210Y45720D01*
Y45280D01*
X63050Y44890D01*
X62730Y44630D01*
X62350Y44550D01*
X61980Y44630D01*
X61710Y44850D01*
X61550Y45200D01*
X61500Y45500D01*
G01X57000Y39930D02*
X60200D01*
Y41020D01*
X60040Y41360D01*
X59830Y41580D01*
X59400Y41670D01*
X58970Y41580D01*
X58710Y41320D01*
X58550Y41020D01*
Y39930D01*
G01Y41020D02*
X57000Y41670D01*
G01Y43500D02*
X60200D01*
X59560Y42980D01*
G01X57000D02*
Y44020D01*
G01X60200Y46200D02*
X60090Y45850D01*
X59830Y45590D01*
X59510Y45420D01*
X59080Y45290D01*
X58600Y45250D01*
X58120Y45290D01*
X57690Y45420D01*
X57370Y45590D01*
X57110Y45850D01*
X57000Y46200D01*
X57110Y46550D01*
X57370Y46810D01*
X57690Y46980D01*
X58120Y47110D01*
X58600Y47150D01*
X59080Y47110D01*
X59510Y46980D01*
X59830Y46810D01*
X60090Y46550D01*
X60200Y46200D01*
G01X60930Y80750D02*
X61090Y80490D01*
X61200Y80190D01*
Y79840D01*
X61040Y79450D01*
X60770Y79150D01*
X60450Y78930D01*
X59920Y78760D01*
X59440Y78720D01*
X58960Y78800D01*
X58640Y78930D01*
X58320Y79190D01*
X58110Y79500D01*
X58000Y79800D01*
Y80100D01*
X58110Y80410D01*
X58270Y80670D01*
X58480Y80880D01*
G01X58000Y83020D02*
X61200D01*
X58910Y81420D01*
Y83580D01*
G01X53430Y78250D02*
X53590Y77990D01*
X53700Y77690D01*
Y77340D01*
X53540Y76950D01*
X53270Y76650D01*
X52950Y76430D01*
X52420Y76260D01*
X51940Y76220D01*
X51460Y76300D01*
X51140Y76430D01*
X50820Y76690D01*
X50610Y77000D01*
X50500Y77300D01*
Y77600D01*
X50610Y77910D01*
X50770Y78170D01*
X50980Y78380D01*
G01X50870Y79260D02*
X50610Y79570D01*
X50500Y79910D01*
X50610Y80260D01*
X50930Y80560D01*
X51410Y80780D01*
X51890Y80870D01*
X52470D01*
X52950Y80780D01*
X53380Y80560D01*
X53590Y80300D01*
X53700Y80000D01*
X53590Y79650D01*
X53380Y79390D01*
X53060Y79220D01*
X52630Y79130D01*
X52260Y79220D01*
X51890Y79440D01*
X51670Y79700D01*
X51620Y80000D01*
X51730Y80350D01*
X51990Y80610D01*
X52470Y80870D01*
G01X66200Y87700D02*
Y84500D01*
G01X67200Y87700D02*
X65200D01*
G01X64370Y84500D02*
Y87700D01*
X63330D01*
X62980Y87540D01*
X62720Y87170D01*
X62630Y86740D01*
X62720Y86310D01*
X62940Y85990D01*
X63330Y85830D01*
X64370D01*
G01X60890Y84500D02*
X60800Y85190D01*
X60670Y85780D01*
X60500Y86310D01*
X60280Y86900D01*
X59930Y87700D01*
X61670D01*
G01X52700Y89800D02*
X49500D01*
G01X52700Y88800D02*
Y90800D01*
G01X49500Y91630D02*
X52700D01*
Y92670D01*
X52540Y93020D01*
X52170Y93280D01*
X51740Y93370D01*
X51310Y93280D01*
X50990Y93060D01*
X50830Y92670D01*
Y91630D01*
G01X49500Y95200D02*
X49550Y95500D01*
X49710Y95850D01*
X49980Y96070D01*
X50350Y96150D01*
X50730Y96070D01*
X51050Y95810D01*
X51210Y95420D01*
Y94980D01*
X51310Y94720D01*
X51580Y94510D01*
X51950Y94420D01*
X52330Y94550D01*
X52590Y94850D01*
X52700Y95200D01*
X52590Y95550D01*
X52330Y95850D01*
X51950Y95980D01*
X51580Y95890D01*
X51310Y95680D01*
X51210Y95420D01*
Y94980D01*
X51050Y94590D01*
X50730Y94330D01*
X50350Y94250D01*
X49980Y94330D01*
X49710Y94550D01*
X49550Y94900D01*
X49500Y95200D01*
G01X76650Y15500D02*
Y18700D01*
X75790D01*
X75440Y18540D01*
X75180Y18330D01*
X74960Y18010D01*
X74790Y17630D01*
X74750Y17100D01*
X74790Y16570D01*
X74960Y16190D01*
X75180Y15870D01*
X75440Y15660D01*
X75790Y15500D01*
X76650D01*
G01X73000D02*
Y18700D01*
X73520Y18060D01*
G01Y15500D02*
X72480D01*
G01X69780D02*
Y18700D01*
X71380Y16410D01*
X69220D01*
G01X81470Y27190D02*
X81630Y26930D01*
X81740Y26630D01*
Y26280D01*
X81580Y25890D01*
X81310Y25590D01*
X80990Y25370D01*
X80460Y25200D01*
X79980Y25160D01*
X79500Y25240D01*
X79180Y25370D01*
X78860Y25630D01*
X78650Y25940D01*
X78540Y26240D01*
Y26540D01*
X78650Y26850D01*
X78810Y27110D01*
X79020Y27320D01*
G01X78540Y28940D02*
X81740D01*
X81100Y28420D01*
G01X78540D02*
Y29460D01*
G01X71430Y34250D02*
X71590Y33990D01*
X71700Y33690D01*
Y33340D01*
X71540Y32950D01*
X71270Y32650D01*
X70950Y32430D01*
X70420Y32260D01*
X69940Y32220D01*
X69460Y32300D01*
X69140Y32430D01*
X68820Y32690D01*
X68610Y33000D01*
X68500Y33300D01*
Y33600D01*
X68610Y33910D01*
X68770Y34170D01*
X68980Y34380D01*
G01X69140Y35050D02*
X68770Y35310D01*
X68550Y35650D01*
X68500Y36040D01*
X68550Y36390D01*
X68820Y36740D01*
X69140Y36950D01*
X69460Y37000D01*
X69830Y36910D01*
X70100Y36610D01*
X70210Y36300D01*
Y35910D01*
G01Y36300D02*
X70370Y36560D01*
X70630Y36780D01*
X70950Y36870D01*
X71270Y36780D01*
X71540Y36560D01*
X71700Y36170D01*
X71650Y35780D01*
X71430Y35390D01*
G01X86070Y37500D02*
Y40700D01*
X84980D01*
X84640Y40540D01*
X84420Y40330D01*
X84330Y39900D01*
X84420Y39470D01*
X84680Y39210D01*
X84980Y39050D01*
X86070D01*
G01X84980D02*
X84330Y37500D01*
G01X83320Y40170D02*
X83060Y40490D01*
X82760Y40650D01*
X82410Y40700D01*
X81980Y40590D01*
X81680Y40330D01*
X81590Y40010D01*
X81630Y39690D01*
X81810Y39420D01*
X82670Y38890D01*
X83060Y38510D01*
X83320Y37980D01*
X83410Y37500D01*
X81590D01*
G01X80750Y37980D02*
X80490Y37710D01*
X80190Y37550D01*
X79800Y37500D01*
X79410Y37610D01*
X79110Y37820D01*
X78890Y38190D01*
X78850Y38620D01*
X78930Y39050D01*
X79150Y39310D01*
X79450Y39530D01*
X79760Y39580D01*
X80060Y39530D01*
X80450Y39310D01*
X80320Y40700D01*
X79150D01*
G01X91750Y49930D02*
X92010Y50090D01*
X92310Y50200D01*
X92660D01*
X93050Y50040D01*
X93350Y49770D01*
X93570Y49450D01*
X93740Y48920D01*
X93780Y48440D01*
X93700Y47960D01*
X93570Y47640D01*
X93310Y47320D01*
X93000Y47110D01*
X92700Y47000D01*
X92400D01*
X92090Y47110D01*
X91830Y47270D01*
X91620Y47480D01*
G01X90000Y47000D02*
Y50200D01*
X90520Y49560D01*
G01Y47000D02*
X89480D01*
G01X87300D02*
Y50200D01*
X87820Y49560D01*
G01Y47000D02*
X86780D01*
G01X83710Y59780D02*
X83970Y59940D01*
X84270Y60050D01*
X84620D01*
X85010Y59890D01*
X85310Y59620D01*
X85530Y59300D01*
X85700Y58770D01*
X85740Y58290D01*
X85660Y57810D01*
X85530Y57490D01*
X85270Y57170D01*
X84960Y56960D01*
X84660Y56850D01*
X84360D01*
X84050Y56960D01*
X83790Y57120D01*
X83580Y57330D01*
G01X81960Y56850D02*
X81660Y56900D01*
X81310Y57060D01*
X81090Y57330D01*
X81010Y57700D01*
X81090Y58080D01*
X81350Y58400D01*
X81740Y58560D01*
X82180D01*
X82440Y58660D01*
X82650Y58930D01*
X82740Y59300D01*
X82610Y59680D01*
X82310Y59940D01*
X81960Y60050D01*
X81610Y59940D01*
X81310Y59680D01*
X81180Y59300D01*
X81270Y58930D01*
X81480Y58660D01*
X81740Y58560D01*
X82180D01*
X82570Y58400D01*
X82830Y58080D01*
X82910Y57700D01*
X82830Y57330D01*
X82610Y57060D01*
X82260Y56900D01*
X81960Y56850D01*
G01X66000Y42430D02*
X69200D01*
Y43520D01*
X69040Y43860D01*
X68830Y44080D01*
X68400Y44170D01*
X67970Y44080D01*
X67710Y43820D01*
X67550Y43520D01*
Y42430D01*
G01Y43520D02*
X66000Y44170D01*
G01X68670Y45180D02*
X68990Y45440D01*
X69150Y45740D01*
X69200Y46090D01*
X69090Y46520D01*
X68830Y46820D01*
X68510Y46910D01*
X68190Y46870D01*
X67920Y46690D01*
X67390Y45830D01*
X67010Y45440D01*
X66480Y45180D01*
X66000Y45090D01*
Y46910D01*
G01Y49220D02*
X69200D01*
X66910Y47620D01*
Y49780D01*
G01X70930Y69750D02*
X71090Y69490D01*
X71200Y69190D01*
Y68840D01*
X71040Y68450D01*
X70770Y68150D01*
X70450Y67930D01*
X69920Y67760D01*
X69440Y67720D01*
X68960Y67800D01*
X68640Y67930D01*
X68320Y68190D01*
X68110Y68500D01*
X68000Y68800D01*
Y69100D01*
X68110Y69410D01*
X68270Y69670D01*
X68480Y69880D01*
G01X70670Y70680D02*
X70990Y70940D01*
X71150Y71240D01*
X71200Y71590D01*
X71090Y72020D01*
X70830Y72320D01*
X70510Y72410D01*
X70190Y72370D01*
X69920Y72190D01*
X69390Y71330D01*
X69010Y70940D01*
X68480Y70680D01*
X68000Y70590D01*
Y72410D01*
G01X86570Y77000D02*
Y80200D01*
X85480D01*
X85140Y80040D01*
X84920Y79830D01*
X84830Y79400D01*
X84920Y78970D01*
X85180Y78710D01*
X85480Y78550D01*
X86570D01*
G01X85480D02*
X84830Y77000D01*
G01X82480D02*
Y80200D01*
X84080Y77910D01*
X81920D01*
G01X80390Y77000D02*
X80300Y77690D01*
X80170Y78280D01*
X80000Y78810D01*
X79780Y79400D01*
X79430Y80200D01*
X81170D01*
G01X88250Y103930D02*
X88510Y104090D01*
X88810Y104200D01*
X89160D01*
X89550Y104040D01*
X89850Y103770D01*
X90070Y103450D01*
X90240Y102920D01*
X90280Y102440D01*
X90200Y101960D01*
X90070Y101640D01*
X89810Y101320D01*
X89500Y101110D01*
X89200Y101000D01*
X88900D01*
X88590Y101110D01*
X88330Y101270D01*
X88120Y101480D01*
G01X85980Y101000D02*
Y104200D01*
X87580Y101910D01*
X85420D01*
G01X83890Y101000D02*
X83800Y101690D01*
X83670Y102280D01*
X83500Y102810D01*
X83280Y103400D01*
X82930Y104200D01*
X84670D01*
G01X95200Y121200D02*
Y118000D01*
G01X96200Y121200D02*
X94200D01*
G01X93370Y118000D02*
Y121200D01*
X92330D01*
X91980Y121040D01*
X91720Y120670D01*
X91630Y120240D01*
X91720Y119810D01*
X91940Y119490D01*
X92330Y119330D01*
X93370D01*
G01X89800Y118000D02*
Y121200D01*
X90320Y120560D01*
G01Y118000D02*
X89280D01*
G01X87190D02*
X87100Y118690D01*
X86970Y119280D01*
X86800Y119810D01*
X86580Y120400D01*
X86230Y121200D01*
X87970D01*
G01X94930Y98250D02*
X95090Y97990D01*
X95200Y97690D01*
Y97340D01*
X95040Y96950D01*
X94770Y96650D01*
X94450Y96430D01*
X93920Y96260D01*
X93440Y96220D01*
X92960Y96300D01*
X92640Y96430D01*
X92320Y96690D01*
X92110Y97000D01*
X92000Y97300D01*
Y97600D01*
X92110Y97910D01*
X92270Y98170D01*
X92480Y98380D01*
G01X92000Y100520D02*
X95200D01*
X92910Y98920D01*
Y101080D01*
G01X93330Y101880D02*
X93710Y102180D01*
X93920Y102440D01*
X94030Y102790D01*
X93920Y103090D01*
X93710Y103310D01*
X93390Y103480D01*
X93010Y103520D01*
X92690Y103480D01*
X92370Y103310D01*
X92110Y103050D01*
X92000Y102740D01*
X92110Y102400D01*
X92430Y102090D01*
X92910Y101920D01*
X93440Y101880D01*
X94130Y101960D01*
X94510Y102090D01*
X94880Y102310D01*
X95150Y102610D01*
X95200Y102920D01*
X95090Y103220D01*
X94830Y103440D01*
G01X133800Y38000D02*
Y41200D01*
X132940D01*
X132590Y41040D01*
X132330Y40830D01*
X132110Y40510D01*
X131940Y40130D01*
X131900Y39600D01*
X131940Y39070D01*
X132110Y38690D01*
X132330Y38370D01*
X132590Y38160D01*
X132940Y38000D01*
X133800D01*
G01X130970Y39330D02*
X130670Y39710D01*
X130410Y39920D01*
X130060Y40030D01*
X129760Y39920D01*
X129540Y39710D01*
X129370Y39390D01*
X129330Y39010D01*
X129370Y38690D01*
X129540Y38370D01*
X129800Y38110D01*
X130110Y38000D01*
X130450Y38110D01*
X130760Y38430D01*
X130930Y38910D01*
X130970Y39440D01*
X130890Y40130D01*
X130760Y40510D01*
X130540Y40880D01*
X130240Y41150D01*
X129930Y41200D01*
X129630Y41090D01*
X129410Y40830D01*
G01X133300Y28000D02*
Y31200D01*
X132440D01*
X132090Y31040D01*
X131830Y30830D01*
X131610Y30510D01*
X131440Y30130D01*
X131400Y29600D01*
X131440Y29070D01*
X131610Y28690D01*
X131830Y28370D01*
X132090Y28160D01*
X132440Y28000D01*
X133300D01*
G01X129740D02*
X129650Y28690D01*
X129520Y29280D01*
X129350Y29810D01*
X129130Y30400D01*
X128780Y31200D01*
X130520D01*
G01X137290Y50580D02*
X137550Y50740D01*
X137850Y50850D01*
X138200D01*
X138590Y50690D01*
X138890Y50420D01*
X139110Y50100D01*
X139280Y49570D01*
X139320Y49090D01*
X139240Y48610D01*
X139110Y48290D01*
X138850Y47970D01*
X138540Y47760D01*
X138240Y47650D01*
X137940D01*
X137630Y47760D01*
X137370Y47920D01*
X137160Y48130D01*
G01X135540Y47650D02*
Y50850D01*
X136060Y50210D01*
G01Y47650D02*
X135020D01*
G01X133660Y48980D02*
X133360Y49360D01*
X133100Y49570D01*
X132750Y49680D01*
X132450Y49570D01*
X132230Y49360D01*
X132060Y49040D01*
X132020Y48660D01*
X132060Y48340D01*
X132230Y48020D01*
X132490Y47760D01*
X132800Y47650D01*
X133140Y47760D01*
X133450Y48080D01*
X133620Y48560D01*
X133660Y49090D01*
X133580Y49780D01*
X133450Y50160D01*
X133230Y50530D01*
X132930Y50800D01*
X132620Y50850D01*
X132320Y50740D01*
X132100Y50480D01*
G01X133380Y58340D02*
Y61540D01*
X132520D01*
X132170Y61380D01*
X131910Y61170D01*
X131690Y60850D01*
X131520Y60470D01*
X131480Y59940D01*
X131520Y59410D01*
X131690Y59030D01*
X131910Y58710D01*
X132170Y58500D01*
X132520Y58340D01*
X133380D01*
G01X130680Y58820D02*
X130420Y58550D01*
X130120Y58390D01*
X129730Y58340D01*
X129340Y58450D01*
X129040Y58660D01*
X128820Y59030D01*
X128780Y59460D01*
X128860Y59890D01*
X129080Y60150D01*
X129380Y60370D01*
X129690Y60420D01*
X129990Y60370D01*
X130380Y60150D01*
X130250Y61540D01*
X129080D01*
G01X112500Y42930D02*
X115700D01*
Y44020D01*
X115540Y44360D01*
X115330Y44580D01*
X114900Y44670D01*
X114470Y44580D01*
X114210Y44320D01*
X114050Y44020D01*
Y42930D01*
G01Y44020D02*
X112500Y44670D01*
G01Y46410D02*
X113190Y46500D01*
X113780Y46630D01*
X114310Y46800D01*
X114900Y47020D01*
X115700Y47370D01*
Y45630D01*
G01X133380Y68340D02*
Y71540D01*
X132520D01*
X132170Y71380D01*
X131910Y71170D01*
X131690Y70850D01*
X131520Y70470D01*
X131480Y69940D01*
X131520Y69410D01*
X131690Y69030D01*
X131910Y68710D01*
X132170Y68500D01*
X132520Y68340D01*
X133380D01*
G01X129210D02*
Y71540D01*
X130810Y69250D01*
X128650D01*
G01X123700Y184200D02*
Y181000D01*
G01X124700Y184200D02*
X122700D01*
G01X121870Y181000D02*
Y184200D01*
X120830D01*
X120480Y184040D01*
X120220Y183670D01*
X120130Y183240D01*
X120220Y182810D01*
X120440Y182490D01*
X120830Y182330D01*
X121870D01*
G01X118300Y181000D02*
Y184200D01*
X118820Y183560D01*
G01Y181000D02*
X117780D01*
G01X116340Y181370D02*
X116030Y181110D01*
X115690Y181000D01*
X115340Y181110D01*
X115040Y181430D01*
X114820Y181910D01*
X114730Y182390D01*
Y182970D01*
X114820Y183450D01*
X115040Y183880D01*
X115300Y184090D01*
X115600Y184200D01*
X115950Y184090D01*
X116210Y183880D01*
X116380Y183560D01*
X116470Y183130D01*
X116380Y182760D01*
X116160Y182390D01*
X115900Y182170D01*
X115600Y182120D01*
X115250Y182230D01*
X114990Y182490D01*
X114730Y182970D01*
G01X139110Y42650D02*
Y45850D01*
X138020D01*
X137680Y45690D01*
X137460Y45480D01*
X137370Y45050D01*
X137460Y44620D01*
X137720Y44360D01*
X138020Y44200D01*
X139110D01*
G01X138020D02*
X137370Y42650D01*
G01X136280Y43020D02*
X135970Y42760D01*
X135630Y42650D01*
X135280Y42760D01*
X134980Y43080D01*
X134760Y43560D01*
X134670Y44040D01*
Y44620D01*
X134760Y45100D01*
X134980Y45530D01*
X135240Y45740D01*
X135540Y45850D01*
X135890Y45740D01*
X136150Y45530D01*
X136320Y45210D01*
X136410Y44780D01*
X136320Y44410D01*
X136100Y44040D01*
X135840Y43820D01*
X135540Y43770D01*
X135190Y43880D01*
X134930Y44140D01*
X134670Y44620D01*
G01X154570Y59500D02*
Y62700D01*
X153480D01*
X153140Y62540D01*
X152920Y62330D01*
X152830Y61900D01*
X152920Y61470D01*
X153180Y61210D01*
X153480Y61050D01*
X154570D01*
G01X153480D02*
X152830Y59500D01*
G01X151000D02*
Y62700D01*
X151520Y62060D01*
G01Y59500D02*
X150480D01*
G01X148390D02*
X148300Y60190D01*
X148170Y60780D01*
X148000Y61310D01*
X147780Y61900D01*
X147430Y62700D01*
X149170D01*
G01X155220Y72660D02*
Y75860D01*
X154360D01*
X154010Y75700D01*
X153750Y75490D01*
X153530Y75170D01*
X153360Y74790D01*
X153320Y74260D01*
X153360Y73730D01*
X153530Y73350D01*
X153750Y73030D01*
X154010Y72820D01*
X154360Y72660D01*
X155220D01*
G01X151570D02*
X151270Y72710D01*
X150920Y72870D01*
X150700Y73140D01*
X150620Y73510D01*
X150700Y73890D01*
X150960Y74210D01*
X151350Y74370D01*
X151790D01*
X152050Y74470D01*
X152260Y74740D01*
X152350Y75110D01*
X152220Y75490D01*
X151920Y75750D01*
X151570Y75860D01*
X151220Y75750D01*
X150920Y75490D01*
X150790Y75110D01*
X150880Y74740D01*
X151090Y74470D01*
X151350Y74370D01*
X151790D01*
X152180Y74210D01*
X152440Y73890D01*
X152520Y73510D01*
X152440Y73140D01*
X152220Y72870D01*
X151870Y72710D01*
X151570Y72660D01*
G01X149700Y144700D02*
Y141500D01*
G01X150700Y144700D02*
X148700D01*
G01X147870Y141500D02*
Y144700D01*
X146830D01*
X146480Y144540D01*
X146220Y144170D01*
X146130Y143740D01*
X146220Y143310D01*
X146440Y142990D01*
X146830Y142830D01*
X147870D01*
G01X145120Y144170D02*
X144860Y144490D01*
X144560Y144650D01*
X144210Y144700D01*
X143780Y144590D01*
X143480Y144330D01*
X143390Y144010D01*
X143430Y143690D01*
X143610Y143420D01*
X144470Y142890D01*
X144860Y142510D01*
X145120Y141980D01*
X145210Y141500D01*
X143390D01*
G01X142420Y142830D02*
X142120Y143210D01*
X141860Y143420D01*
X141510Y143530D01*
X141210Y143420D01*
X140990Y143210D01*
X140820Y142890D01*
X140780Y142510D01*
X140820Y142190D01*
X140990Y141870D01*
X141250Y141610D01*
X141560Y141500D01*
X141900Y141610D01*
X142210Y141930D01*
X142380Y142410D01*
X142420Y142940D01*
X142340Y143630D01*
X142210Y144010D01*
X141990Y144380D01*
X141690Y144650D01*
X141380Y144700D01*
X141080Y144590D01*
X140860Y144330D01*
G01X158200Y155700D02*
Y152500D01*
G01X159200Y155700D02*
X157200D01*
G01X156370Y152500D02*
Y155700D01*
X155330D01*
X154980Y155540D01*
X154720Y155170D01*
X154630Y154740D01*
X154720Y154310D01*
X154940Y153990D01*
X155330Y153830D01*
X156370D01*
G01X153620Y155170D02*
X153360Y155490D01*
X153060Y155650D01*
X152710Y155700D01*
X152280Y155590D01*
X151980Y155330D01*
X151890Y155010D01*
X151930Y154690D01*
X152110Y154420D01*
X152970Y153890D01*
X153360Y153510D01*
X153620Y152980D01*
X153710Y152500D01*
X151890D01*
G01X149580D02*
Y155700D01*
X151180Y153410D01*
X149020D01*
G01X197780Y43200D02*
X196700Y40000D01*
X195620Y43200D01*
G01X194950Y40000D02*
Y43200D01*
X194090D01*
X193740Y43040D01*
X193480Y42830D01*
X193260Y42510D01*
X193090Y42130D01*
X193050Y41600D01*
X193090Y41070D01*
X193260Y40690D01*
X193480Y40370D01*
X193740Y40160D01*
X194090Y40000D01*
X194950D01*
G01X192250D02*
Y43200D01*
X191390D01*
X191040Y43040D01*
X190780Y42830D01*
X190560Y42510D01*
X190390Y42130D01*
X190350Y41600D01*
X190390Y41070D01*
X190560Y40690D01*
X190780Y40370D01*
X191040Y40160D01*
X191390Y40000D01*
X192250D01*
G01X189900Y38930D02*
X187300D01*
G01X186850Y40640D02*
X186590Y40270D01*
X186250Y40050D01*
X185860Y40000D01*
X185510Y40050D01*
X185160Y40320D01*
X184950Y40640D01*
X184900Y40960D01*
X184990Y41330D01*
X185290Y41600D01*
X185600Y41710D01*
X185990D01*
G01X185600D02*
X185340Y41870D01*
X185120Y42130D01*
X185030Y42450D01*
X185120Y42770D01*
X185340Y43040D01*
X185730Y43200D01*
X186120Y43150D01*
X186510Y42930D01*
G01X183200Y43200D02*
X183550Y43090D01*
X183810Y42830D01*
X183980Y42510D01*
X184110Y42080D01*
X184150Y41600D01*
X184110Y41120D01*
X183980Y40690D01*
X183810Y40370D01*
X183550Y40110D01*
X183200Y40000D01*
X182850Y40110D01*
X182590Y40370D01*
X182420Y40690D01*
X182290Y41120D01*
X182250Y41600D01*
X182290Y42080D01*
X182420Y42510D01*
X182590Y42830D01*
X182850Y43090D01*
X183200Y43200D01*
G01X181580D02*
X180500Y40000D01*
X179420Y43200D01*
G01X177800D02*
X178150Y43090D01*
X178410Y42830D01*
X178580Y42510D01*
X178710Y42080D01*
X178750Y41600D01*
X178710Y41120D01*
X178580Y40690D01*
X178410Y40370D01*
X178150Y40110D01*
X177800Y40000D01*
X177450Y40110D01*
X177190Y40370D01*
X177020Y40690D01*
X176890Y41120D01*
X176850Y41600D01*
X176890Y42080D01*
X177020Y42510D01*
X177190Y42830D01*
X177450Y43090D01*
X177800Y43200D01*
G01X177000Y65930D02*
X180200D01*
Y67020D01*
X180040Y67360D01*
X179830Y67580D01*
X179400Y67670D01*
X178970Y67580D01*
X178710Y67320D01*
X178550Y67020D01*
Y65930D01*
G01Y67020D02*
X177000Y67670D01*
G01X179670Y68680D02*
X179990Y68940D01*
X180150Y69240D01*
X180200Y69590D01*
X180090Y70020D01*
X179830Y70320D01*
X179510Y70410D01*
X179190Y70370D01*
X178920Y70190D01*
X178390Y69330D01*
X178010Y68940D01*
X177480Y68680D01*
X177000Y68590D01*
Y70410D01*
G01X177370Y71460D02*
X177110Y71770D01*
X177000Y72110D01*
X177110Y72460D01*
X177430Y72760D01*
X177910Y72980D01*
X178390Y73070D01*
X178970D01*
X179450Y72980D01*
X179880Y72760D01*
X180090Y72500D01*
X180200Y72200D01*
X180090Y71850D01*
X179880Y71590D01*
X179560Y71420D01*
X179130Y71330D01*
X178760Y71420D01*
X178390Y71640D01*
X178170Y71900D01*
X178120Y72200D01*
X178230Y72550D01*
X178490Y72810D01*
X178970Y73070D01*
G01X181760Y91310D02*
Y88110D01*
G01X182760Y91310D02*
X180760D01*
G01X179930Y88110D02*
Y91310D01*
X178890D01*
X178540Y91150D01*
X178280Y90780D01*
X178190Y90350D01*
X178280Y89920D01*
X178500Y89600D01*
X178890Y89440D01*
X179930D01*
G01X177180Y90780D02*
X176920Y91100D01*
X176620Y91260D01*
X176270Y91310D01*
X175840Y91200D01*
X175540Y90940D01*
X175450Y90620D01*
X175490Y90300D01*
X175670Y90030D01*
X176530Y89500D01*
X176920Y89120D01*
X177180Y88590D01*
X177270Y88110D01*
X175450D01*
G01X174610Y88750D02*
X174350Y88380D01*
X174010Y88160D01*
X173620Y88110D01*
X173270Y88160D01*
X172920Y88430D01*
X172710Y88750D01*
X172660Y89070D01*
X172750Y89440D01*
X173050Y89710D01*
X173360Y89820D01*
X173750D01*
G01X173360D02*
X173100Y89980D01*
X172880Y90240D01*
X172790Y90560D01*
X172880Y90880D01*
X173100Y91150D01*
X173490Y91310D01*
X173880Y91260D01*
X174270Y91040D01*
G01X180430Y118250D02*
X180590Y117990D01*
X180700Y117690D01*
Y117340D01*
X180540Y116950D01*
X180270Y116650D01*
X179950Y116430D01*
X179420Y116260D01*
X178940Y116220D01*
X178460Y116300D01*
X178140Y116430D01*
X177820Y116690D01*
X177610Y117000D01*
X177500Y117300D01*
Y117600D01*
X177610Y117910D01*
X177770Y118170D01*
X177980Y118380D01*
G01X180170Y119180D02*
X180490Y119440D01*
X180650Y119740D01*
X180700Y120090D01*
X180590Y120520D01*
X180330Y120820D01*
X180010Y120910D01*
X179690Y120870D01*
X179420Y120690D01*
X178890Y119830D01*
X178510Y119440D01*
X177980Y119180D01*
X177500Y119090D01*
Y120910D01*
G01X178830Y121880D02*
X179210Y122180D01*
X179420Y122440D01*
X179530Y122790D01*
X179420Y123090D01*
X179210Y123310D01*
X178890Y123480D01*
X178510Y123520D01*
X178190Y123480D01*
X177870Y123310D01*
X177610Y123050D01*
X177500Y122740D01*
X177610Y122400D01*
X177930Y122090D01*
X178410Y121920D01*
X178940Y121880D01*
X179630Y121960D01*
X180010Y122090D01*
X180380Y122310D01*
X180650Y122610D01*
X180700Y122920D01*
X180590Y123220D01*
X180330Y123440D01*
G01X174930Y118250D02*
X175090Y117990D01*
X175200Y117690D01*
Y117340D01*
X175040Y116950D01*
X174770Y116650D01*
X174450Y116430D01*
X173920Y116260D01*
X173440Y116220D01*
X172960Y116300D01*
X172640Y116430D01*
X172320Y116690D01*
X172110Y117000D01*
X172000Y117300D01*
Y117600D01*
X172110Y117910D01*
X172270Y118170D01*
X172480Y118380D01*
G01X174670Y119180D02*
X174990Y119440D01*
X175150Y119740D01*
X175200Y120090D01*
X175090Y120520D01*
X174830Y120820D01*
X174510Y120910D01*
X174190Y120870D01*
X173920Y120690D01*
X173390Y119830D01*
X173010Y119440D01*
X172480Y119180D01*
X172000Y119090D01*
Y120910D01*
G01Y122610D02*
X172690Y122700D01*
X173280Y122830D01*
X173810Y123000D01*
X174400Y123220D01*
X175200Y123570D01*
Y121830D01*
G01X163430Y128250D02*
X163590Y127990D01*
X163700Y127690D01*
Y127340D01*
X163540Y126950D01*
X163270Y126650D01*
X162950Y126430D01*
X162420Y126260D01*
X161940Y126220D01*
X161460Y126300D01*
X161140Y126430D01*
X160820Y126690D01*
X160610Y127000D01*
X160500Y127300D01*
Y127600D01*
X160610Y127910D01*
X160770Y128170D01*
X160980Y128380D01*
G01X163170Y129180D02*
X163490Y129440D01*
X163650Y129740D01*
X163700Y130090D01*
X163590Y130520D01*
X163330Y130820D01*
X163010Y130910D01*
X162690Y130870D01*
X162420Y130690D01*
X161890Y129830D01*
X161510Y129440D01*
X160980Y129180D01*
X160500Y129090D01*
Y130910D01*
G01Y132700D02*
X160550Y133000D01*
X160710Y133350D01*
X160980Y133570D01*
X161350Y133650D01*
X161730Y133570D01*
X162050Y133310D01*
X162210Y132920D01*
Y132480D01*
X162310Y132220D01*
X162580Y132010D01*
X162950Y131920D01*
X163330Y132050D01*
X163590Y132350D01*
X163700Y132700D01*
X163590Y133050D01*
X163330Y133350D01*
X162950Y133480D01*
X162580Y133390D01*
X162310Y133180D01*
X162210Y132920D01*
Y132480D01*
X162050Y132090D01*
X161730Y131830D01*
X161350Y131750D01*
X160980Y131830D01*
X160710Y132050D01*
X160550Y132400D01*
X160500Y132700D01*
G01X170200Y151700D02*
Y148500D01*
G01X171200Y151700D02*
X169200D01*
G01X168370Y148500D02*
Y151700D01*
X167330D01*
X166980Y151540D01*
X166720Y151170D01*
X166630Y150740D01*
X166720Y150310D01*
X166940Y149990D01*
X167330Y149830D01*
X168370D01*
G01X165620Y151170D02*
X165360Y151490D01*
X165060Y151650D01*
X164710Y151700D01*
X164280Y151590D01*
X163980Y151330D01*
X163890Y151010D01*
X163930Y150690D01*
X164110Y150420D01*
X164970Y149890D01*
X165360Y149510D01*
X165620Y148980D01*
X165710Y148500D01*
X163890D01*
G01X163050Y148980D02*
X162790Y148710D01*
X162490Y148550D01*
X162100Y148500D01*
X161710Y148610D01*
X161410Y148820D01*
X161190Y149190D01*
X161150Y149620D01*
X161230Y150050D01*
X161450Y150310D01*
X161750Y150530D01*
X162060Y150580D01*
X162360Y150530D01*
X162750Y150310D01*
X162620Y151700D01*
X161450D01*
G01X176200Y141200D02*
Y138000D01*
G01X177200Y141200D02*
X175200D01*
G01X174370Y138000D02*
Y141200D01*
X173330D01*
X172980Y141040D01*
X172720Y140670D01*
X172630Y140240D01*
X172720Y139810D01*
X172940Y139490D01*
X173330Y139330D01*
X174370D01*
G01X171620Y140670D02*
X171360Y140990D01*
X171060Y141150D01*
X170710Y141200D01*
X170280Y141090D01*
X169980Y140830D01*
X169890Y140510D01*
X169930Y140190D01*
X170110Y139920D01*
X170970Y139390D01*
X171360Y139010D01*
X171620Y138480D01*
X171710Y138000D01*
X169890D01*
G01X168190D02*
X168100Y138690D01*
X167970Y139280D01*
X167800Y139810D01*
X167580Y140400D01*
X167230Y141200D01*
X168970D01*
G01X183280Y175200D02*
X182200Y172000D01*
X181120Y175200D01*
G01X180450Y172000D02*
Y175200D01*
X179590D01*
X179240Y175040D01*
X178980Y174830D01*
X178760Y174510D01*
X178590Y174130D01*
X178550Y173600D01*
X178590Y173070D01*
X178760Y172690D01*
X178980Y172370D01*
X179240Y172160D01*
X179590Y172000D01*
X180450D01*
G01X177750D02*
Y175200D01*
X176890D01*
X176540Y175040D01*
X176280Y174830D01*
X176060Y174510D01*
X175890Y174130D01*
X175850Y173600D01*
X175890Y173070D01*
X176060Y172690D01*
X176280Y172370D01*
X176540Y172160D01*
X176890Y172000D01*
X177750D01*
G01X175400Y170930D02*
X172800D01*
G01X171400Y175200D02*
Y172000D01*
G01X172400Y175200D02*
X170400D01*
G01X169650Y172000D02*
Y175200D01*
X168790D01*
X168440Y175040D01*
X168180Y174830D01*
X167960Y174510D01*
X167790Y174130D01*
X167750Y173600D01*
X167790Y173070D01*
X167960Y172690D01*
X168180Y172370D01*
X168440Y172160D01*
X168790Y172000D01*
X169650D01*
G01X165050Y174930D02*
X165310Y175090D01*
X165610Y175200D01*
X165960D01*
X166350Y175040D01*
X166650Y174770D01*
X166870Y174450D01*
X167040Y173920D01*
X167080Y173440D01*
X167000Y172960D01*
X166870Y172640D01*
X166610Y172320D01*
X166300Y172110D01*
X166000Y172000D01*
X165700D01*
X165390Y172110D01*
X165130Y172270D01*
X164920Y172480D01*
G01X167750Y163930D02*
X168010Y164090D01*
X168310Y164200D01*
X168660D01*
X169050Y164040D01*
X169350Y163770D01*
X169570Y163450D01*
X169740Y162920D01*
X169780Y162440D01*
X169700Y161960D01*
X169570Y161640D01*
X169310Y161320D01*
X169000Y161110D01*
X168700Y161000D01*
X168400D01*
X168090Y161110D01*
X167830Y161270D01*
X167620Y161480D01*
G01X166820Y163670D02*
X166560Y163990D01*
X166260Y164150D01*
X165910Y164200D01*
X165480Y164090D01*
X165180Y163830D01*
X165090Y163510D01*
X165130Y163190D01*
X165310Y162920D01*
X166170Y162390D01*
X166560Y162010D01*
X166820Y161480D01*
X166910Y161000D01*
X165090D01*
G01X164040Y161370D02*
X163730Y161110D01*
X163390Y161000D01*
X163040Y161110D01*
X162740Y161430D01*
X162520Y161910D01*
X162430Y162390D01*
Y162970D01*
X162520Y163450D01*
X162740Y163880D01*
X163000Y164090D01*
X163300Y164200D01*
X163650Y164090D01*
X163910Y163880D01*
X164080Y163560D01*
X164170Y163130D01*
X164080Y162760D01*
X163860Y162390D01*
X163600Y162170D01*
X163300Y162120D01*
X162950Y162230D01*
X162690Y162490D01*
X162430Y162970D01*
G01X178200Y180200D02*
Y177000D01*
G01X179200Y180200D02*
X177200D01*
G01X176370Y177000D02*
Y180200D01*
X175330D01*
X174980Y180040D01*
X174720Y179670D01*
X174630Y179240D01*
X174720Y178810D01*
X174940Y178490D01*
X175330Y178330D01*
X176370D01*
G01X173620Y179670D02*
X173360Y179990D01*
X173060Y180150D01*
X172710Y180200D01*
X172280Y180090D01*
X171980Y179830D01*
X171890Y179510D01*
X171930Y179190D01*
X172110Y178920D01*
X172970Y178390D01*
X173360Y178010D01*
X173620Y177480D01*
X173710Y177000D01*
X171890D01*
G01X170920Y179670D02*
X170660Y179990D01*
X170360Y180150D01*
X170010Y180200D01*
X169580Y180090D01*
X169280Y179830D01*
X169190Y179510D01*
X169230Y179190D01*
X169410Y178920D01*
X170270Y178390D01*
X170660Y178010D01*
X170920Y177480D01*
X171010Y177000D01*
X169190D01*
G01X190550Y48200D02*
Y45000D01*
G01X191550Y48200D02*
X189550D01*
G01X188720Y45000D02*
Y48200D01*
X187680D01*
X187330Y48040D01*
X187070Y47670D01*
X186980Y47240D01*
X187070Y46810D01*
X187290Y46490D01*
X187680Y46330D01*
X188720D01*
G01X185150Y45000D02*
Y48200D01*
X185670Y47560D01*
G01Y45000D02*
X184630D01*
G01X182450D02*
X182150Y45050D01*
X181800Y45210D01*
X181580Y45480D01*
X181500Y45850D01*
X181580Y46230D01*
X181840Y46550D01*
X182230Y46710D01*
X182670D01*
X182930Y46810D01*
X183140Y47080D01*
X183230Y47450D01*
X183100Y47830D01*
X182800Y48090D01*
X182450Y48200D01*
X182100Y48090D01*
X181800Y47830D01*
X181670Y47450D01*
X181760Y47080D01*
X181970Y46810D01*
X182230Y46710D01*
X182670D01*
X183060Y46550D01*
X183320Y46230D01*
X183400Y45850D01*
X183320Y45480D01*
X183100Y45210D01*
X182750Y45050D01*
X182450Y45000D01*
G01X188440Y82600D02*
X187570D01*
Y81640D01*
X187830Y81320D01*
X188140Y81110D01*
X188570Y81000D01*
X189000Y81110D01*
X189310Y81320D01*
X189570Y81640D01*
X189740Y82010D01*
X189830Y82440D01*
Y82810D01*
X189740Y83130D01*
X189570Y83510D01*
X189310Y83830D01*
X189050Y84040D01*
X188700Y84200D01*
X188400D01*
X188050Y84090D01*
X187790Y83880D01*
G01X187000Y81000D02*
Y84200D01*
X185000Y81000D01*
Y84200D01*
G01X184250Y81000D02*
Y84200D01*
X183390D01*
X183040Y84040D01*
X182780Y83830D01*
X182560Y83510D01*
X182390Y83130D01*
X182350Y82600D01*
X182390Y82070D01*
X182560Y81690D01*
X182780Y81370D01*
X183040Y81160D01*
X183390Y81000D01*
X184250D01*
G01X207200Y75700D02*
Y72500D01*
G01X208200Y75700D02*
X206200D01*
G01X205370Y72500D02*
Y75700D01*
X204330D01*
X203980Y75540D01*
X203720Y75170D01*
X203630Y74740D01*
X203720Y74310D01*
X203940Y73990D01*
X204330Y73830D01*
X205370D01*
G01X201800Y72500D02*
Y75700D01*
X202320Y75060D01*
G01Y72500D02*
X201280D01*
G01X200050Y73140D02*
X199790Y72770D01*
X199450Y72550D01*
X199060Y72500D01*
X198710Y72550D01*
X198360Y72820D01*
X198150Y73140D01*
X198100Y73460D01*
X198190Y73830D01*
X198490Y74100D01*
X198800Y74210D01*
X199190D01*
G01X198800D02*
X198540Y74370D01*
X198320Y74630D01*
X198230Y74950D01*
X198320Y75270D01*
X198540Y75540D01*
X198930Y75700D01*
X199320Y75650D01*
X199710Y75430D01*
G01X208200Y69700D02*
Y66500D01*
G01X209200Y69700D02*
X207200D01*
G01X206370Y66500D02*
Y69700D01*
X205330D01*
X204980Y69540D01*
X204720Y69170D01*
X204630Y68740D01*
X204720Y68310D01*
X204940Y67990D01*
X205330Y67830D01*
X206370D01*
G01X202800Y66500D02*
Y69700D01*
X203320Y69060D01*
G01Y66500D02*
X202280D01*
G01X199580D02*
Y69700D01*
X201180Y67410D01*
X199020D01*
G01X188700Y102700D02*
Y99500D01*
G01X189700Y102700D02*
X187700D01*
G01X186870Y99500D02*
Y102700D01*
X185830D01*
X185480Y102540D01*
X185220Y102170D01*
X185130Y101740D01*
X185220Y101310D01*
X185440Y100990D01*
X185830Y100830D01*
X186870D01*
G01X183300Y99500D02*
Y102700D01*
X183820Y102060D01*
G01Y99500D02*
X182780D01*
G01X180600D02*
Y102700D01*
X181120Y102060D01*
G01Y99500D02*
X180080D01*
G01X186430Y151750D02*
X186590Y151490D01*
X186700Y151190D01*
Y150840D01*
X186540Y150450D01*
X186270Y150150D01*
X185950Y149930D01*
X185420Y149760D01*
X184940Y149720D01*
X184460Y149800D01*
X184140Y149930D01*
X183820Y150190D01*
X183610Y150500D01*
X183500Y150800D01*
Y151100D01*
X183610Y151410D01*
X183770Y151670D01*
X183980Y151880D01*
G01X186170Y152680D02*
X186490Y152940D01*
X186650Y153240D01*
X186700Y153590D01*
X186590Y154020D01*
X186330Y154320D01*
X186010Y154410D01*
X185690Y154370D01*
X185420Y154190D01*
X184890Y153330D01*
X184510Y152940D01*
X183980Y152680D01*
X183500Y152590D01*
Y154410D01*
G01Y156720D02*
X186700D01*
X184410Y155120D01*
Y157280D01*
G01X181430Y151750D02*
X181590Y151490D01*
X181700Y151190D01*
Y150840D01*
X181540Y150450D01*
X181270Y150150D01*
X180950Y149930D01*
X180420Y149760D01*
X179940Y149720D01*
X179460Y149800D01*
X179140Y149930D01*
X178820Y150190D01*
X178610Y150500D01*
X178500Y150800D01*
Y151100D01*
X178610Y151410D01*
X178770Y151670D01*
X178980Y151880D01*
G01X181170Y152680D02*
X181490Y152940D01*
X181650Y153240D01*
X181700Y153590D01*
X181590Y154020D01*
X181330Y154320D01*
X181010Y154410D01*
X180690Y154370D01*
X180420Y154190D01*
X179890Y153330D01*
X179510Y152940D01*
X178980Y152680D01*
X178500Y152590D01*
Y154410D01*
G01X178980Y155250D02*
X178710Y155510D01*
X178550Y155810D01*
X178500Y156200D01*
X178610Y156590D01*
X178820Y156890D01*
X179190Y157110D01*
X179620Y157150D01*
X180050Y157070D01*
X180310Y156850D01*
X180530Y156550D01*
X180580Y156240D01*
X180530Y155940D01*
X180310Y155550D01*
X181700Y155680D01*
Y156850D01*
G01X201200Y159200D02*
Y156000D01*
G01X202200Y159200D02*
X200200D01*
G01X199370Y156000D02*
Y159200D01*
X198330D01*
X197980Y159040D01*
X197720Y158670D01*
X197630Y158240D01*
X197720Y157810D01*
X197940Y157490D01*
X198330Y157330D01*
X199370D01*
G01X196620D02*
X196320Y157710D01*
X196060Y157920D01*
X195710Y158030D01*
X195410Y157920D01*
X195190Y157710D01*
X195020Y157390D01*
X194980Y157010D01*
X195020Y156690D01*
X195190Y156370D01*
X195450Y156110D01*
X195760Y156000D01*
X196100Y156110D01*
X196410Y156430D01*
X196580Y156910D01*
X196620Y157440D01*
X196540Y158130D01*
X196410Y158510D01*
X196190Y158880D01*
X195890Y159150D01*
X195580Y159200D01*
X195280Y159090D01*
X195060Y158830D01*
G01X220940Y5100D02*
X220070D01*
Y4140D01*
X220330Y3820D01*
X220640Y3610D01*
X221070Y3500D01*
X221500Y3610D01*
X221810Y3820D01*
X222070Y4140D01*
X222240Y4510D01*
X222330Y4940D01*
Y5310D01*
X222240Y5630D01*
X222070Y6010D01*
X221810Y6330D01*
X221550Y6540D01*
X221200Y6700D01*
X220900D01*
X220550Y6590D01*
X220290Y6380D01*
G01X219500Y3500D02*
Y6700D01*
X217500Y3500D01*
Y6700D01*
G01X216750Y3500D02*
Y6700D01*
X215890D01*
X215540Y6540D01*
X215280Y6330D01*
X215060Y6010D01*
X214890Y5630D01*
X214850Y5100D01*
X214890Y4570D01*
X215060Y4190D01*
X215280Y3870D01*
X215540Y3660D01*
X215890Y3500D01*
X216750D01*
G01X214050Y15200D02*
Y12000D01*
G01X215050Y15200D02*
X213050D01*
G01X212220Y12000D02*
Y15200D01*
X211180D01*
X210830Y15040D01*
X210570Y14670D01*
X210480Y14240D01*
X210570Y13810D01*
X210790Y13490D01*
X211180Y13330D01*
X212220D01*
G01X209470Y14670D02*
X209210Y14990D01*
X208910Y15150D01*
X208560Y15200D01*
X208130Y15090D01*
X207830Y14830D01*
X207740Y14510D01*
X207780Y14190D01*
X207960Y13920D01*
X208820Y13390D01*
X209210Y13010D01*
X209470Y12480D01*
X209560Y12000D01*
X207740D01*
G01X205950Y15200D02*
X206300Y15090D01*
X206560Y14830D01*
X206730Y14510D01*
X206860Y14080D01*
X206900Y13600D01*
X206860Y13120D01*
X206730Y12690D01*
X206560Y12370D01*
X206300Y12110D01*
X205950Y12000D01*
X205600Y12110D01*
X205340Y12370D01*
X205170Y12690D01*
X205040Y13120D01*
X205000Y13600D01*
X205040Y14080D01*
X205170Y14510D01*
X205340Y14830D01*
X205600Y15090D01*
X205950Y15200D01*
G01X220000Y70430D02*
X223200D01*
Y71520D01*
X223040Y71860D01*
X222830Y72080D01*
X222400Y72170D01*
X221970Y72080D01*
X221710Y71820D01*
X221550Y71520D01*
Y70430D01*
G01Y71520D02*
X220000Y72170D01*
G01X220640Y73050D02*
X220270Y73310D01*
X220050Y73650D01*
X220000Y74040D01*
X220050Y74390D01*
X220320Y74740D01*
X220640Y74950D01*
X220960Y75000D01*
X221330Y74910D01*
X221600Y74610D01*
X221710Y74300D01*
Y73910D01*
G01Y74300D02*
X221870Y74560D01*
X222130Y74780D01*
X222450Y74870D01*
X222770Y74780D01*
X223040Y74560D01*
X223200Y74170D01*
X223150Y73780D01*
X222930Y73390D01*
G01X220000Y76700D02*
X220050Y77000D01*
X220210Y77350D01*
X220480Y77570D01*
X220850Y77650D01*
X221230Y77570D01*
X221550Y77310D01*
X221710Y76920D01*
Y76480D01*
X221810Y76220D01*
X222080Y76010D01*
X222450Y75920D01*
X222830Y76050D01*
X223090Y76350D01*
X223200Y76700D01*
X223090Y77050D01*
X222830Y77350D01*
X222450Y77480D01*
X222080Y77390D01*
X221810Y77180D01*
X221710Y76920D01*
Y76480D01*
X221550Y76090D01*
X221230Y75830D01*
X220850Y75750D01*
X220480Y75830D01*
X220210Y76050D01*
X220050Y76400D01*
X220000Y76700D01*
G01X225700Y87200D02*
Y84000D01*
G01X226700Y87200D02*
X224700D01*
G01X223870Y84000D02*
Y87200D01*
X222830D01*
X222480Y87040D01*
X222220Y86670D01*
X222130Y86240D01*
X222220Y85810D01*
X222440Y85490D01*
X222830Y85330D01*
X223870D01*
G01X220300Y84000D02*
Y87200D01*
X220820Y86560D01*
G01Y84000D02*
X219780D01*
G01X217600Y87200D02*
X217950Y87090D01*
X218210Y86830D01*
X218380Y86510D01*
X218510Y86080D01*
X218550Y85600D01*
X218510Y85120D01*
X218380Y84690D01*
X218210Y84370D01*
X217950Y84110D01*
X217600Y84000D01*
X217250Y84110D01*
X216990Y84370D01*
X216820Y84690D01*
X216690Y85120D01*
X216650Y85600D01*
X216690Y86080D01*
X216820Y86510D01*
X216990Y86830D01*
X217250Y87090D01*
X217600Y87200D01*
G01X227200Y97200D02*
Y94000D01*
G01X228200Y97200D02*
X226200D01*
G01X225370Y94000D02*
Y97200D01*
X224330D01*
X223980Y97040D01*
X223720Y96670D01*
X223630Y96240D01*
X223720Y95810D01*
X223940Y95490D01*
X224330Y95330D01*
X225370D01*
G01X221800Y94000D02*
Y97200D01*
X222320Y96560D01*
G01Y94000D02*
X221280D01*
G01X219920Y96670D02*
X219660Y96990D01*
X219360Y97150D01*
X219010Y97200D01*
X218580Y97090D01*
X218280Y96830D01*
X218190Y96510D01*
X218230Y96190D01*
X218410Y95920D01*
X219270Y95390D01*
X219660Y95010D01*
X219920Y94480D01*
X220010Y94000D01*
X218190D01*
G01X224710Y115780D02*
X224970Y115940D01*
X225270Y116050D01*
X225620D01*
X226010Y115890D01*
X226310Y115620D01*
X226530Y115300D01*
X226700Y114770D01*
X226740Y114290D01*
X226660Y113810D01*
X226530Y113490D01*
X226270Y113170D01*
X225960Y112960D01*
X225660Y112850D01*
X225360D01*
X225050Y112960D01*
X224790Y113120D01*
X224580Y113330D01*
G01X223910Y113490D02*
X223650Y113120D01*
X223310Y112900D01*
X222920Y112850D01*
X222570Y112900D01*
X222220Y113170D01*
X222010Y113490D01*
X221960Y113810D01*
X222050Y114180D01*
X222350Y114450D01*
X222660Y114560D01*
X223050D01*
G01X222660D02*
X222400Y114720D01*
X222180Y114980D01*
X222090Y115300D01*
X222180Y115620D01*
X222400Y115890D01*
X222790Y116050D01*
X223180Y116000D01*
X223570Y115780D01*
G01X220260Y112850D02*
Y116050D01*
X220780Y115410D01*
G01Y112850D02*
X219740D01*
G01X210150Y106500D02*
Y109700D01*
X209290D01*
X208940Y109540D01*
X208680Y109330D01*
X208460Y109010D01*
X208290Y108630D01*
X208250Y108100D01*
X208290Y107570D01*
X208460Y107190D01*
X208680Y106870D01*
X208940Y106660D01*
X209290Y106500D01*
X210150D01*
G01X207240Y106870D02*
X206930Y106610D01*
X206590Y106500D01*
X206240Y106610D01*
X205940Y106930D01*
X205720Y107410D01*
X205630Y107890D01*
Y108470D01*
X205720Y108950D01*
X205940Y109380D01*
X206200Y109590D01*
X206500Y109700D01*
X206850Y109590D01*
X207110Y109380D01*
X207280Y109060D01*
X207370Y108630D01*
X207280Y108260D01*
X207060Y107890D01*
X206800Y107670D01*
X206500Y107620D01*
X206150Y107730D01*
X205890Y107990D01*
X205630Y108470D01*
G01X216930Y146750D02*
X217090Y146490D01*
X217200Y146190D01*
Y145840D01*
X217040Y145450D01*
X216770Y145150D01*
X216450Y144930D01*
X215920Y144760D01*
X215440Y144720D01*
X214960Y144800D01*
X214640Y144930D01*
X214320Y145190D01*
X214110Y145500D01*
X214000Y145800D01*
Y146100D01*
X214110Y146410D01*
X214270Y146670D01*
X214480Y146880D01*
G01X215330Y147680D02*
X215710Y147980D01*
X215920Y148240D01*
X216030Y148590D01*
X215920Y148890D01*
X215710Y149110D01*
X215390Y149280D01*
X215010Y149320D01*
X214690Y149280D01*
X214370Y149110D01*
X214110Y148850D01*
X214000Y148540D01*
X214110Y148200D01*
X214430Y147890D01*
X214910Y147720D01*
X215440Y147680D01*
X216130Y147760D01*
X216510Y147890D01*
X216880Y148110D01*
X217150Y148410D01*
X217200Y148720D01*
X217090Y149020D01*
X216830Y149240D01*
G01X214000Y151200D02*
X217200D01*
X216560Y150680D01*
G01X214000D02*
Y151720D01*
G01X207500Y129430D02*
X210700D01*
Y130520D01*
X210540Y130860D01*
X210330Y131080D01*
X209900Y131170D01*
X209470Y131080D01*
X209210Y130820D01*
X209050Y130520D01*
Y129430D01*
G01Y130520D02*
X207500Y131170D01*
G01X208140Y132050D02*
X207770Y132310D01*
X207550Y132650D01*
X207500Y133040D01*
X207550Y133390D01*
X207820Y133740D01*
X208140Y133950D01*
X208460Y134000D01*
X208830Y133910D01*
X209100Y133610D01*
X209210Y133300D01*
Y132910D01*
G01Y133300D02*
X209370Y133560D01*
X209630Y133780D01*
X209950Y133870D01*
X210270Y133780D01*
X210540Y133560D01*
X210700Y133170D01*
X210650Y132780D01*
X210430Y132390D01*
G01X207500Y135610D02*
X208190Y135700D01*
X208780Y135830D01*
X209310Y136000D01*
X209900Y136220D01*
X210700Y136570D01*
Y134830D01*
G01X216940Y181600D02*
X216070D01*
Y180640D01*
X216330Y180320D01*
X216640Y180110D01*
X217070Y180000D01*
X217500Y180110D01*
X217810Y180320D01*
X218070Y180640D01*
X218240Y181010D01*
X218330Y181440D01*
Y181810D01*
X218240Y182130D01*
X218070Y182510D01*
X217810Y182830D01*
X217550Y183040D01*
X217200Y183200D01*
X216900D01*
X216550Y183090D01*
X216290Y182880D01*
G01X215500Y180000D02*
Y183200D01*
X213500Y180000D01*
Y183200D01*
G01X212750Y180000D02*
Y183200D01*
X211890D01*
X211540Y183040D01*
X211280Y182830D01*
X211060Y182510D01*
X210890Y182130D01*
X210850Y181600D01*
X210890Y181070D01*
X211060Y180690D01*
X211280Y180370D01*
X211540Y180160D01*
X211890Y180000D01*
X212750D01*
G01X218760Y197310D02*
Y194110D01*
G01X219760Y197310D02*
X217760D01*
G01X216930Y194110D02*
Y197310D01*
X215890D01*
X215540Y197150D01*
X215280Y196780D01*
X215190Y196350D01*
X215280Y195920D01*
X215500Y195600D01*
X215890Y195440D01*
X216930D01*
G01X214180Y196780D02*
X213920Y197100D01*
X213620Y197260D01*
X213270Y197310D01*
X212840Y197200D01*
X212540Y196940D01*
X212450Y196620D01*
X212490Y196300D01*
X212670Y196030D01*
X213530Y195500D01*
X213920Y195120D01*
X214180Y194590D01*
X214270Y194110D01*
X212450D01*
G01X210660D02*
Y197310D01*
X211180Y196670D01*
G01Y194110D02*
X210140D01*
G01X230200Y160200D02*
Y157000D01*
G01X231200Y160200D02*
X229200D01*
G01X228370Y157000D02*
Y160200D01*
X227330D01*
X226980Y160040D01*
X226720Y159670D01*
X226630Y159240D01*
X226720Y158810D01*
X226940Y158490D01*
X227330Y158330D01*
X228370D01*
G01X225750Y157480D02*
X225490Y157210D01*
X225190Y157050D01*
X224800Y157000D01*
X224410Y157110D01*
X224110Y157320D01*
X223890Y157690D01*
X223850Y158120D01*
X223930Y158550D01*
X224150Y158810D01*
X224450Y159030D01*
X224760Y159080D01*
X225060Y159030D01*
X225450Y158810D01*
X225320Y160200D01*
X224150D01*
G54D11*
G01X12180Y82790D02*
Y83730D01*
G01Y85790D02*
Y94210D01*
X9820D01*
Y82790D01*
X12180D01*
G01Y97790D02*
Y98710D01*
G01Y100810D02*
Y109210D01*
X9820D01*
Y97790D01*
X12180D01*
G01X40000Y33830D02*
Y37170D01*
G01X40500Y59830D02*
Y63170D01*
G01X63330Y69500D02*
X66670D01*
G01X47830D02*
X51170D01*
G01X76670Y28500D02*
X73330D01*
G01X80500Y50170D02*
Y46830D01*
G01X172040Y158500D02*
X176960D01*
G01X213820Y105710D02*
Y94290D01*
X216180D01*
Y105710D01*
X213820D01*
G01X202830Y132500D02*
X206170D01*
G54D12*
G01X17000Y95590D02*
G03I-488J-3D01*
G01Y110590D02*
G03I-488J-3D01*
G01X48370Y14270D02*
G03I-488J-2D01*
G01X67870D02*
G03I-488J-2D01*
G01X123500Y37090D02*
G03I-488J-3D01*
G01Y27090D02*
G03I-488J-3D01*
G01Y57090D02*
G03I-488J-3D01*
G01Y67090D02*
G03I-488J-3D01*
G01X157000Y68090D02*
G03I-488J-3D01*
G01X210370Y93270D02*
G03I-488J-2D01*
G54D13*
G01X0Y0D02*
X250000D01*
Y200000D01*
X0D01*
Y0D01*
G54D14*
G01X249580Y-7000D02*
X249210Y-7310D01*
X248800Y-7500D01*
X248420D01*
X248050Y-7310D01*
X247780Y-7000D01*
X247640Y-6560D01*
X247730Y-6130D01*
X247960Y-5750D01*
X248380Y-5510D01*
X248930Y-5380D01*
X249260Y-5130D01*
X249400Y-4700D01*
X249300Y-4260D01*
X249070Y-3950D01*
X248750Y-3760D01*
X248420D01*
X248100Y-3880D01*
X247820Y-4200D01*
G01X245460Y-3760D02*
X244340D01*
G01X244900D02*
Y-7500D01*
G01X245460D02*
X244340D01*
G01X242120Y-3760D02*
Y-7500D01*
X240260D01*
G01X238500D02*
Y-3760D01*
G01X236740D02*
X238500Y-6070D01*
G01X236460Y-7500D02*
X237710Y-5010D01*
G01X234740Y-7000D02*
X234370Y-7310D01*
X233960Y-7500D01*
X233580D01*
X233210Y-7310D01*
X232940Y-7000D01*
X232800Y-6560D01*
X232890Y-6130D01*
X233120Y-5750D01*
X233540Y-5510D01*
X234090Y-5380D01*
X234420Y-5130D01*
X234560Y-4700D01*
X234460Y-4260D01*
X234230Y-3950D01*
X233910Y-3760D01*
X233580D01*
X233260Y-3880D01*
X232980Y-4200D01*
G01X229040Y-4070D02*
X229320Y-3880D01*
X229640Y-3760D01*
X230010D01*
X230430Y-3950D01*
X230750Y-4260D01*
X230990Y-4630D01*
X231170Y-5260D01*
X231220Y-5820D01*
X231130Y-6380D01*
X230990Y-6750D01*
X230710Y-7130D01*
X230380Y-7380D01*
X230060Y-7500D01*
X229740D01*
X229410Y-7380D01*
X229130Y-7190D01*
X228900Y-6940D01*
G01X227280Y-7500D02*
Y-3760D01*
X226120D01*
X225750Y-3950D01*
X225520Y-4200D01*
X225420Y-4700D01*
X225520Y-5190D01*
X225790Y-5510D01*
X226120Y-5690D01*
X227280D01*
G01X226120D02*
X225420Y-7500D01*
G01X221710D02*
X223570D01*
Y-3760D01*
X221710D01*
G01X222450Y-5570D02*
X223570D01*
G01X218000Y-7500D02*
X219860D01*
Y-3760D01*
X218000D01*
G01X218740Y-5570D02*
X219860D01*
G01X216290Y-7500D02*
Y-3760D01*
X214150Y-7500D01*
Y-3760D01*
G01X207430Y-5510D02*
X207240Y-5320D01*
X207110Y-5010D01*
X207010Y-4570D01*
X207110Y-4200D01*
X207290Y-3950D01*
X207610Y-3760D01*
X208870D01*
Y-7500D01*
X207340D01*
X207010Y-7250D01*
X206830Y-6880D01*
X206730Y-6440D01*
X206830Y-6000D01*
X207110Y-5630D01*
X207430Y-5510D01*
X208870D01*
G01X204090Y-7500D02*
X204460Y-7440D01*
X204780Y-7190D01*
X205060Y-6810D01*
X205250Y-6380D01*
X205340Y-5880D01*
Y-5380D01*
X205250Y-4880D01*
X205060Y-4450D01*
X204780Y-4070D01*
X204460Y-3820D01*
X204090Y-3760D01*
X203720Y-3820D01*
X203400Y-4070D01*
X203120Y-4450D01*
X202930Y-4880D01*
X202840Y-5380D01*
Y-5880D01*
X202930Y-6380D01*
X203120Y-6810D01*
X203400Y-7190D01*
X203720Y-7440D01*
X204090Y-7500D01*
G01X200380Y-3760D02*
Y-7500D01*
G01X201450Y-3760D02*
X199310D01*
G01X196670D02*
Y-7500D01*
G01X197740Y-3760D02*
X195600D01*
G01X192960Y-7500D02*
X193330Y-7440D01*
X193650Y-7190D01*
X193930Y-6810D01*
X194120Y-6380D01*
X194210Y-5880D01*
Y-5380D01*
X194120Y-4880D01*
X193930Y-4450D01*
X193650Y-4070D01*
X193330Y-3820D01*
X192960Y-3760D01*
X192590Y-3820D01*
X192270Y-4070D01*
X191990Y-4450D01*
X191800Y-4880D01*
X191710Y-5380D01*
Y-5880D01*
X191800Y-6380D01*
X191990Y-6810D01*
X192270Y-7190D01*
X192590Y-7440D01*
X192960Y-7500D01*
G01X190450D02*
Y-3760D01*
X189250Y-6880D01*
X188050Y-3760D01*
Y-7500D01*
G01X182060Y-8750D02*
X182520Y-8120D01*
X182760Y-7500D01*
Y-5010D01*
X182520Y-4380D01*
X182060Y-3760D01*
G01X179280D02*
X178120Y-7500D01*
X176960Y-3760D01*
G01X174970D02*
X173850D01*
G01X174410D02*
Y-7500D01*
G01X174970D02*
X173850D01*
G01X169770D02*
X171630D01*
Y-3760D01*
X169770D01*
G01X170510Y-5570D02*
X171630D01*
G01X168380Y-3760D02*
X167730Y-7500D01*
X166990Y-3760D01*
X166250Y-7500D01*
X165600Y-3760D01*
G01X162350Y-7500D02*
X164210D01*
Y-3760D01*
X162350D01*
G01X163090Y-5570D02*
X164210D01*
G01X160590Y-7500D02*
Y-3760D01*
X159660D01*
X159290Y-3950D01*
X159010Y-4200D01*
X158780Y-4570D01*
X158600Y-5010D01*
X158550Y-5630D01*
X158600Y-6250D01*
X158780Y-6690D01*
X159010Y-7060D01*
X159290Y-7310D01*
X159660Y-7500D01*
X160590D01*
G01X153030D02*
Y-3760D01*
X151270D01*
G01X151920Y-5570D02*
X153030D01*
G01X149370Y-7500D02*
Y-3760D01*
X148210D01*
X147840Y-3950D01*
X147610Y-4200D01*
X147510Y-4700D01*
X147610Y-5190D01*
X147880Y-5510D01*
X148210Y-5690D01*
X149370D01*
G01X148210D02*
X147510Y-7500D01*
G01X144730D02*
X145100Y-7440D01*
X145420Y-7190D01*
X145700Y-6810D01*
X145890Y-6380D01*
X145980Y-5880D01*
Y-5380D01*
X145890Y-4880D01*
X145700Y-4450D01*
X145420Y-4070D01*
X145100Y-3820D01*
X144730Y-3760D01*
X144360Y-3820D01*
X144040Y-4070D01*
X143760Y-4450D01*
X143570Y-4880D01*
X143480Y-5380D01*
Y-5880D01*
X143570Y-6380D01*
X143760Y-6810D01*
X144040Y-7190D01*
X144360Y-7440D01*
X144730Y-7500D01*
G01X142220D02*
Y-3760D01*
X141020Y-6880D01*
X139820Y-3760D01*
Y-7500D01*
G01X133230Y-5510D02*
X133040Y-5320D01*
X132910Y-5010D01*
X132810Y-4570D01*
X132910Y-4200D01*
X133090Y-3950D01*
X133410Y-3760D01*
X134670D01*
Y-7500D01*
X133140D01*
X132810Y-7250D01*
X132630Y-6880D01*
X132530Y-6440D01*
X132630Y-6000D01*
X132910Y-5630D01*
X133230Y-5510D01*
X134670D01*
G01X129890Y-7500D02*
X130260Y-7440D01*
X130580Y-7190D01*
X130860Y-6810D01*
X131050Y-6380D01*
X131140Y-5880D01*
Y-5380D01*
X131050Y-4880D01*
X130860Y-4450D01*
X130580Y-4070D01*
X130260Y-3820D01*
X129890Y-3760D01*
X129520Y-3820D01*
X129200Y-4070D01*
X128920Y-4450D01*
X128730Y-4880D01*
X128640Y-5380D01*
Y-5880D01*
X128730Y-6380D01*
X128920Y-6810D01*
X129200Y-7190D01*
X129520Y-7440D01*
X129890Y-7500D01*
G01X126180Y-3760D02*
Y-7500D01*
G01X127250Y-3760D02*
X125110D01*
G01X122470D02*
Y-7500D01*
G01X123540Y-3760D02*
X121400D01*
G01X118760Y-7500D02*
X119130Y-7440D01*
X119450Y-7190D01*
X119730Y-6810D01*
X119920Y-6380D01*
X120010Y-5880D01*
Y-5380D01*
X119920Y-4880D01*
X119730Y-4450D01*
X119450Y-4070D01*
X119130Y-3820D01*
X118760Y-3760D01*
X118390Y-3820D01*
X118070Y-4070D01*
X117790Y-4450D01*
X117600Y-4880D01*
X117510Y-5380D01*
Y-5880D01*
X117600Y-6380D01*
X117790Y-6810D01*
X118070Y-7190D01*
X118390Y-7440D01*
X118760Y-7500D01*
G01X116250D02*
Y-3760D01*
X115050Y-6880D01*
X113850Y-3760D01*
Y-7500D01*
G01X108600Y-7000D02*
X108230Y-7310D01*
X107820Y-7500D01*
X107440D01*
X107070Y-7310D01*
X106800Y-7000D01*
X106660Y-6560D01*
X106750Y-6130D01*
X106980Y-5750D01*
X107400Y-5510D01*
X107950Y-5380D01*
X108280Y-5130D01*
X108420Y-4700D01*
X108320Y-4260D01*
X108090Y-3950D01*
X107770Y-3760D01*
X107440D01*
X107120Y-3880D01*
X106840Y-4200D01*
G01X104480Y-3760D02*
X103360D01*
G01X103920D02*
Y-7500D01*
G01X104480D02*
X103360D01*
G01X101230D02*
Y-3760D01*
X100300D01*
X99930Y-3950D01*
X99650Y-4200D01*
X99420Y-4570D01*
X99240Y-5010D01*
X99190Y-5630D01*
X99240Y-6250D01*
X99420Y-6690D01*
X99650Y-7060D01*
X99930Y-7310D01*
X100300Y-7500D01*
X101230D01*
G01X95570D02*
X97430D01*
Y-3760D01*
X95570D01*
G01X96310Y-5570D02*
X97430D01*
G01X92560Y-8750D02*
X92100Y-8120D01*
X91860Y-7500D01*
Y-5010D01*
X92100Y-4380D01*
X92560Y-3760D01*
M02*
