G04 ================== begin FILE IDENTIFICATION RECORD ==================*
G04 Layout Name:  PCA-034015001_rev1_Ultrasonic.brd*
G04 Film Name:    BOTTOM_MASK*
G04 File Format:  Gerber RS274X*
G04 File Origin:  Cadence Allegro 16.6-S032*
G04 Origin Date:  Thu Sep 18 11:45:49 2014*
G04 *
G04 Layer:  BOARD GEOMETRY/SOLDERMASK_BOTTOM*
G04 Layer:  BOARD GEOMETRY/OUTLINE*
G04 Layer:  DRAWING FORMAT/TEXT_SMBOTTOM*
G04 Layer:  VIA CLASS/SOLDERMASK_BOTTOM*
G04 Layer:  PIN/SOLDERMASK_BOTTOM*
G04 Layer:  PACKAGE GEOMETRY/SOLDERMASK_BOTTOM*
G04 *
G04 Offset:    (0.0 0.0)*
G04 Mirror:    No*
G04 Mode:      Positive*
G04 Rotation:  0*
G04 FullContactRelief:  No*
G04 UndefLineWidth:     1.0*
G04 ================== end FILE IDENTIFICATION RECORD ====================*
%FSLAX25Y25*MOIN*%
%IR0*IPPOS*OFA0.00000B0.00000*MIA0B0*SFA1.00000B1.00000*%
%ADD18C,.1102*%
%ADD19R,.1102X.1102*%
%ADD10C,.2362*%
%ADD11C,.0001*%
%ADD12C,.07*%
%ADD26C,.065*%
%ADD14R,.0413X.0236*%
%ADD23R,.0138X.0244*%
%ADD20R,.0244X.0138*%
%ADD13R,.07X.07*%
%ADD17R,.027X.027*%
%ADD24R,.0571X.0472*%
%ADD27R,.065X.065*%
%ADD25R,.0374X.0256*%
%ADD22R,.0394X.0354*%
%ADD15R,.0354X.0394*%
%ADD21R,.0287X.0248*%
%ADD16R,.0248X.0287*%
%ADD28C,.001*%
G75*
%LPD*%
G75*
G54D10*
X15000Y15000D03*
Y185000D03*
X235000Y15000D03*
Y185000D03*
G54D20*
X51000Y14660D03*
X64500D03*
X51000Y17340D03*
X64500D03*
G54D11*
G01X249580Y-7000D02*
X249210Y-7310D01*
X248800Y-7500D01*
X248420D01*
X248050Y-7310D01*
X247780Y-7000D01*
X247640Y-6560D01*
X247730Y-6130D01*
X247960Y-5750D01*
X248380Y-5510D01*
X248930Y-5380D01*
X249260Y-5130D01*
X249400Y-4700D01*
X249300Y-4260D01*
X249070Y-3950D01*
X248750Y-3760D01*
X248420D01*
X248100Y-3880D01*
X247820Y-4200D01*
G01X244900Y-7500D02*
X245270Y-7440D01*
X245590Y-7190D01*
X245870Y-6810D01*
X246060Y-6380D01*
X246150Y-5880D01*
Y-5380D01*
X246060Y-4880D01*
X245870Y-4450D01*
X245590Y-4070D01*
X245270Y-3820D01*
X244900Y-3760D01*
X244530Y-3820D01*
X244210Y-4070D01*
X243930Y-4450D01*
X243740Y-4880D01*
X243650Y-5380D01*
Y-5880D01*
X243740Y-6380D01*
X243930Y-6810D01*
X244210Y-7190D01*
X244530Y-7440D01*
X244900Y-7500D01*
G01X242120Y-3760D02*
Y-7500D01*
X240260D01*
G01X238500D02*
Y-3760D01*
X237570D01*
X237200Y-3950D01*
X236920Y-4200D01*
X236690Y-4570D01*
X236510Y-5010D01*
X236460Y-5630D01*
X236510Y-6250D01*
X236690Y-6690D01*
X236920Y-7060D01*
X237200Y-7310D01*
X237570Y-7500D01*
X238500D01*
G01X232840D02*
X234700D01*
Y-3760D01*
X232840D01*
G01X233580Y-5570D02*
X234700D01*
G01X230990Y-7500D02*
Y-3760D01*
X229830D01*
X229460Y-3950D01*
X229230Y-4200D01*
X229130Y-4700D01*
X229230Y-5190D01*
X229500Y-5510D01*
X229830Y-5690D01*
X230990D01*
G01X229830D02*
X229130Y-7500D01*
G01X227550D02*
Y-3760D01*
X226350Y-6880D01*
X225150Y-3760D01*
Y-7500D01*
G01X223800D02*
X222640Y-3760D01*
X221480Y-7500D01*
G01X221900Y-6190D02*
X223380D01*
G01X219900Y-7000D02*
X219530Y-7310D01*
X219120Y-7500D01*
X218740D01*
X218370Y-7310D01*
X218100Y-7000D01*
X217960Y-6560D01*
X218050Y-6130D01*
X218280Y-5750D01*
X218700Y-5510D01*
X219250Y-5380D01*
X219580Y-5130D01*
X219720Y-4700D01*
X219620Y-4260D01*
X219390Y-3950D01*
X219070Y-3760D01*
X218740D01*
X218420Y-3880D01*
X218140Y-4200D01*
G01X216240Y-7500D02*
Y-3760D01*
G01X214480D02*
X216240Y-6070D01*
G01X214200Y-7500D02*
X215450Y-5010D01*
G01X207430Y-5510D02*
X207240Y-5320D01*
X207110Y-5010D01*
X207010Y-4570D01*
X207110Y-4200D01*
X207290Y-3950D01*
X207610Y-3760D01*
X208870D01*
Y-7500D01*
X207340D01*
X207010Y-7250D01*
X206830Y-6880D01*
X206730Y-6440D01*
X206830Y-6000D01*
X207110Y-5630D01*
X207430Y-5510D01*
X208870D01*
G01X204090Y-7500D02*
X204460Y-7440D01*
X204780Y-7190D01*
X205060Y-6810D01*
X205250Y-6380D01*
X205340Y-5880D01*
Y-5380D01*
X205250Y-4880D01*
X205060Y-4450D01*
X204780Y-4070D01*
X204460Y-3820D01*
X204090Y-3760D01*
X203720Y-3820D01*
X203400Y-4070D01*
X203120Y-4450D01*
X202930Y-4880D01*
X202840Y-5380D01*
Y-5880D01*
X202930Y-6380D01*
X203120Y-6810D01*
X203400Y-7190D01*
X203720Y-7440D01*
X204090Y-7500D01*
G01X200380Y-3760D02*
Y-7500D01*
G01X201450Y-3760D02*
X199310D01*
G01X196670D02*
Y-7500D01*
G01X197740Y-3760D02*
X195600D01*
G01X192960Y-7500D02*
X193330Y-7440D01*
X193650Y-7190D01*
X193930Y-6810D01*
X194120Y-6380D01*
X194210Y-5880D01*
Y-5380D01*
X194120Y-4880D01*
X193930Y-4450D01*
X193650Y-4070D01*
X193330Y-3820D01*
X192960Y-3760D01*
X192590Y-3820D01*
X192270Y-4070D01*
X191990Y-4450D01*
X191800Y-4880D01*
X191710Y-5380D01*
Y-5880D01*
X191800Y-6380D01*
X191990Y-6810D01*
X192270Y-7190D01*
X192590Y-7440D01*
X192960Y-7500D01*
G01X190450D02*
Y-3760D01*
X189250Y-6880D01*
X188050Y-3760D01*
Y-7500D01*
G01X182060Y-8750D02*
X182520Y-8120D01*
X182760Y-7500D01*
Y-5010D01*
X182520Y-4380D01*
X182060Y-3760D01*
G01X179280D02*
X178120Y-7500D01*
X176960Y-3760D01*
G01X174970D02*
X173850D01*
G01X174410D02*
Y-7500D01*
G01X174970D02*
X173850D01*
G01X169770D02*
X171630D01*
Y-3760D01*
X169770D01*
G01X170510Y-5570D02*
X171630D01*
G01X168380Y-3760D02*
X167730Y-7500D01*
X166990Y-3760D01*
X166250Y-7500D01*
X165600Y-3760D01*
G01X162350Y-7500D02*
X164210D01*
Y-3760D01*
X162350D01*
G01X163090Y-5570D02*
X164210D01*
G01X160590Y-7500D02*
Y-3760D01*
X159660D01*
X159290Y-3950D01*
X159010Y-4200D01*
X158780Y-4570D01*
X158600Y-5010D01*
X158550Y-5630D01*
X158600Y-6250D01*
X158780Y-6690D01*
X159010Y-7060D01*
X159290Y-7310D01*
X159660Y-7500D01*
X160590D01*
G01X153030D02*
Y-3760D01*
X151270D01*
G01X151920Y-5570D02*
X153030D01*
G01X149370Y-7500D02*
Y-3760D01*
X148210D01*
X147840Y-3950D01*
X147610Y-4200D01*
X147510Y-4700D01*
X147610Y-5190D01*
X147880Y-5510D01*
X148210Y-5690D01*
X149370D01*
G01X148210D02*
X147510Y-7500D01*
G01X144730D02*
X145100Y-7440D01*
X145420Y-7190D01*
X145700Y-6810D01*
X145890Y-6380D01*
X145980Y-5880D01*
Y-5380D01*
X145890Y-4880D01*
X145700Y-4450D01*
X145420Y-4070D01*
X145100Y-3820D01*
X144730Y-3760D01*
X144360Y-3820D01*
X144040Y-4070D01*
X143760Y-4450D01*
X143570Y-4880D01*
X143480Y-5380D01*
Y-5880D01*
X143570Y-6380D01*
X143760Y-6810D01*
X144040Y-7190D01*
X144360Y-7440D01*
X144730Y-7500D01*
G01X142220D02*
Y-3760D01*
X141020Y-6880D01*
X139820Y-3760D01*
Y-7500D01*
G01X133230Y-5510D02*
X133040Y-5320D01*
X132910Y-5010D01*
X132810Y-4570D01*
X132910Y-4200D01*
X133090Y-3950D01*
X133410Y-3760D01*
X134670D01*
Y-7500D01*
X133140D01*
X132810Y-7250D01*
X132630Y-6880D01*
X132530Y-6440D01*
X132630Y-6000D01*
X132910Y-5630D01*
X133230Y-5510D01*
X134670D01*
G01X129890Y-7500D02*
X130260Y-7440D01*
X130580Y-7190D01*
X130860Y-6810D01*
X131050Y-6380D01*
X131140Y-5880D01*
Y-5380D01*
X131050Y-4880D01*
X130860Y-4450D01*
X130580Y-4070D01*
X130260Y-3820D01*
X129890Y-3760D01*
X129520Y-3820D01*
X129200Y-4070D01*
X128920Y-4450D01*
X128730Y-4880D01*
X128640Y-5380D01*
Y-5880D01*
X128730Y-6380D01*
X128920Y-6810D01*
X129200Y-7190D01*
X129520Y-7440D01*
X129890Y-7500D01*
G01X126180Y-3760D02*
Y-7500D01*
G01X127250Y-3760D02*
X125110D01*
G01X122470D02*
Y-7500D01*
G01X123540Y-3760D02*
X121400D01*
G01X118760Y-7500D02*
X119130Y-7440D01*
X119450Y-7190D01*
X119730Y-6810D01*
X119920Y-6380D01*
X120010Y-5880D01*
Y-5380D01*
X119920Y-4880D01*
X119730Y-4450D01*
X119450Y-4070D01*
X119130Y-3820D01*
X118760Y-3760D01*
X118390Y-3820D01*
X118070Y-4070D01*
X117790Y-4450D01*
X117600Y-4880D01*
X117510Y-5380D01*
Y-5880D01*
X117600Y-6380D01*
X117790Y-6810D01*
X118070Y-7190D01*
X118390Y-7440D01*
X118760Y-7500D01*
G01X116250D02*
Y-3760D01*
X115050Y-6880D01*
X113850Y-3760D01*
Y-7500D01*
G01X108600Y-7000D02*
X108230Y-7310D01*
X107820Y-7500D01*
X107440D01*
X107070Y-7310D01*
X106800Y-7000D01*
X106660Y-6560D01*
X106750Y-6130D01*
X106980Y-5750D01*
X107400Y-5510D01*
X107950Y-5380D01*
X108280Y-5130D01*
X108420Y-4700D01*
X108320Y-4260D01*
X108090Y-3950D01*
X107770Y-3760D01*
X107440D01*
X107120Y-3880D01*
X106840Y-4200D01*
G01X104480Y-3760D02*
X103360D01*
G01X103920D02*
Y-7500D01*
G01X104480D02*
X103360D01*
G01X101230D02*
Y-3760D01*
X100300D01*
X99930Y-3950D01*
X99650Y-4200D01*
X99420Y-4570D01*
X99240Y-5010D01*
X99190Y-5630D01*
X99240Y-6250D01*
X99420Y-6690D01*
X99650Y-7060D01*
X99930Y-7310D01*
X100300Y-7500D01*
X101230D01*
G01X95570D02*
X97430D01*
Y-3760D01*
X95570D01*
G01X96310Y-5570D02*
X97430D01*
G01X92560Y-8750D02*
X92100Y-8120D01*
X91860Y-7500D01*
Y-5010D01*
X92100Y-4380D01*
X92560Y-3760D01*
X4000Y4000D03*
X11260Y99760D03*
X11240Y84760D03*
X4000Y140000D03*
Y170000D03*
Y196000D03*
X30000Y4000D03*
X33000Y36200D03*
Y33000D03*
X40510Y21500D03*
X33000Y55890D03*
X41500Y68500D03*
X37500Y157500D03*
X65420Y21500D03*
X45740Y31500D03*
X47000Y35500D03*
X48000Y17340D03*
X49500Y49000D03*
X53500Y40500D03*
X58500Y59500D03*
X46000Y56510D03*
X63000Y49000D03*
X43920Y53920D03*
X54000Y59500D03*
X58500Y49000D03*
X59520Y77000D03*
X63500Y77500D03*
X55580Y77000D03*
X53610Y66500D03*
X57550D03*
X65000Y62500D03*
X48500Y62000D03*
X47500Y91000D03*
X44510Y99500D03*
Y112500D03*
X47500Y150000D03*
X57500D03*
Y157500D03*
X47500D03*
X65500Y193000D03*
X60000Y190000D03*
X50000D03*
X55000Y193000D03*
X75260Y21500D03*
X88500Y29500D03*
X79000Y25350D03*
X69360Y21500D03*
X88300Y36200D03*
X67390Y31500D03*
X75000Y35500D03*
X67500Y17340D03*
X71500Y59500D03*
X77500Y43000D03*
X67500Y59500D03*
Y41500D03*
X88000Y53920D03*
X77500Y53000D03*
X73500Y48500D03*
X88500Y44080D03*
X74500Y63000D03*
X76500Y88500D03*
X80500Y107500D03*
X87500Y125000D03*
X76500Y111500D03*
X79000Y139010D03*
X77500Y143500D03*
X67500Y150000D03*
X77500D03*
X87500Y134000D03*
X77500Y157500D03*
X67500D03*
X85000Y192500D03*
X80000Y190000D03*
X70000D03*
X75000Y193000D03*
X110000Y4000D03*
X98500Y34000D03*
X95510Y43490D03*
X92450Y46050D03*
X100000Y40000D03*
Y58000D03*
X95500Y74000D03*
X89000Y83500D03*
X101500Y102500D03*
Y97500D03*
X111000Y119500D03*
X93500Y125000D03*
X91000Y107500D03*
X101500Y137500D03*
X90500Y129500D03*
X93500Y134000D03*
X117500Y5000D03*
X121500Y30000D03*
X126840Y25000D03*
Y35000D03*
X121500Y40000D03*
Y60000D03*
Y50000D03*
X132500Y45000D03*
X126840Y55500D03*
X121500Y70000D03*
X115000Y71500D03*
X126840Y74500D03*
Y64840D03*
X117510Y96000D03*
X129500Y126500D03*
Y145000D03*
X127000Y173000D03*
X131000Y162500D03*
X133000Y152500D03*
X133500Y179500D03*
X127000Y178500D03*
X131000Y188000D03*
Y193000D03*
X148000Y25000D03*
X151660Y74500D03*
X147000Y65000D03*
X144500Y116500D03*
X134500Y126500D03*
X134000Y145000D03*
X151500Y137500D03*
X137000Y157500D03*
X140000Y155000D03*
X145500Y173000D03*
X150000Y189840D03*
X145500Y176500D03*
X142500Y182500D03*
X138500D03*
X140500Y186000D03*
X142500Y189500D03*
X138500D03*
X142000Y196500D03*
X157000Y40000D03*
X159500Y60000D03*
X157500Y70000D03*
X170500Y72740D03*
Y65260D03*
X165500Y90500D03*
X158500Y121000D03*
X165500Y110000D03*
X170500Y127480D03*
Y132500D03*
Y135500D03*
X158500Y162350D03*
X168500Y158500D03*
X177000Y188000D03*
Y193000D03*
X162000Y181500D03*
X166000Y184500D03*
X162000Y196500D03*
X183500Y7000D03*
X187500D03*
X197500Y12000D03*
Y7000D03*
X192000D03*
X185000Y18000D03*
X200000Y28500D03*
X192500D03*
X185000D03*
X192500Y22000D03*
X195000Y96500D03*
X182000Y127480D03*
X193000Y139500D03*
Y143500D03*
X180500Y137720D03*
X183720D03*
X185000Y148000D03*
X180500D03*
X191500Y173000D03*
X181150Y155150D03*
X194500Y162000D03*
X196000Y189840D03*
X186500Y186000D03*
X184500Y189500D03*
X188500D03*
Y182500D03*
X184500D03*
X191500Y176500D03*
X188000Y196500D03*
X215000Y28500D03*
X207500D03*
X207000Y77500D03*
X204000Y91500D03*
X207000Y96400D03*
X204500Y125000D03*
X203500Y112500D03*
X214010Y109500D03*
X217000Y122000D03*
Y117500D03*
X218500Y110000D03*
X204500Y140000D03*
X203500Y150520D03*
X219000Y147500D03*
X215500Y161240D03*
X213500Y153760D03*
X246000Y4000D03*
X227000Y38500D03*
Y28500D03*
X227150Y145500D03*
X246000Y196000D03*
G54D21*
X60000Y14990D03*
X55500D03*
X60000Y19010D03*
X55500D03*
X54000Y56510D03*
Y52490D03*
X49500D03*
Y56510D03*
X63000D03*
Y52490D03*
X58500D03*
Y56510D03*
X59500Y69490D03*
Y73510D03*
X55000Y69490D03*
Y73510D03*
X69500Y28510D03*
Y24490D03*
X67500Y52490D03*
Y56510D03*
X98000Y97990D03*
Y102010D03*
X118500Y42990D03*
Y47010D03*
X174000Y66990D03*
Y71010D03*
Y127490D03*
X166500D03*
X174000Y131510D03*
X166500D03*
X178500Y127490D03*
X185000Y145010D03*
Y140990D03*
X178500Y131510D03*
X180500Y145010D03*
Y140990D03*
X217500Y153990D03*
Y158010D03*
X225500Y77010D03*
Y72990D03*
G54D12*
X9000Y35500D03*
Y45500D03*
X42500Y8500D03*
X41500Y147000D03*
X42000Y192600D03*
X62500Y8500D03*
X52500D03*
X82500D03*
X72500D03*
X177500Y82500D03*
X187000Y53000D03*
X210500Y7500D03*
X214500Y188500D03*
G54D22*
X65000Y66350D03*
Y72650D03*
X49500Y66350D03*
Y72650D03*
X75000Y31650D03*
Y25350D03*
X204500Y129350D03*
Y135650D03*
G54D13*
X9000Y55500D03*
X92500Y8500D03*
G54D23*
X126840Y30000D03*
X124160D03*
X126840Y60000D03*
X124160D03*
X126840Y40000D03*
X124160D03*
X126840Y70000D03*
X124160D03*
X151660D03*
X154340D03*
G54D14*
X6470Y88500D03*
X15530Y84760D03*
Y92240D03*
X6470Y103500D03*
X15530Y99760D03*
Y107240D03*
G54D15*
X43150Y35500D03*
X36850D03*
X43650Y61500D03*
X37350D03*
X77350Y48500D03*
X83650D03*
G54D24*
X174500Y155150D03*
Y161850D03*
G54D16*
X40510Y30000D03*
X36490D03*
Y25500D03*
X40510D03*
Y56000D03*
X36490D03*
X80490Y54000D03*
X84510D03*
Y43000D03*
X80490D03*
X85010Y83500D03*
X80990D03*
X88010Y107500D03*
X83990D03*
X129010Y50000D03*
X124990D03*
X129010Y45000D03*
X124990D03*
X149990Y65500D03*
X154010D03*
X221490Y110000D03*
X225510D03*
G54D25*
X219330Y100000D03*
X210670Y103600D03*
Y96400D03*
G54D17*
X24000Y38500D03*
Y44000D03*
Y49500D03*
X29500D03*
X56000Y86000D03*
X50500D03*
X45000D03*
X99000Y119500D03*
X128000Y182500D03*
X154000Y142500D03*
X158000Y149500D03*
X165000Y146000D03*
Y139000D03*
X174500Y168000D03*
X188500Y96500D03*
X200000Y162000D03*
X212000Y76000D03*
Y70000D03*
X225000Y90000D03*
Y100000D03*
X225500Y163000D03*
G54D26*
X231880Y70000D03*
Y80000D03*
X241880Y70000D03*
Y80000D03*
X231880Y90000D03*
Y100000D03*
X241880Y90000D03*
Y100000D03*
X231880Y110000D03*
Y120000D03*
Y130000D03*
X241880Y110000D03*
Y120000D03*
G54D27*
Y130000D03*
G54D18*
X25740Y77500D03*
Y92500D03*
Y107500D03*
G54D28*
G01X0Y0D02*
X250000D01*
Y200000D01*
X0D01*
Y0D01*
G54D19*
X25740Y122500D03*
M02*
