G04 ================== begin FILE IDENTIFICATION RECORD ==================*
G04 Layout Name:  PCA-034015001_rev1_Ultrasonic.brd*
G04 Film Name:    TOP*
G04 File Format:  Gerber RS274X*
G04 File Origin:  Cadence Allegro 16.6-S032*
G04 Origin Date:  Thu Sep 18 11:45:49 2014*
G04 *
G04 Layer:  BOARD GEOMETRY/OUTLINE*
G04 Layer:  DRAWING FORMAT/TEXT_TOPCOPPER*
G04 Layer:  VIA CLASS/TOP*
G04 Layer:  PIN/TOP*
G04 Layer:  ETCH/TOP*
G04 *
G04 Offset:    (0.0 0.0)*
G04 Mirror:    No*
G04 Mode:      Positive*
G04 Rotation:  0*
G04 FullContactRelief:  No*
G04 UndefLineWidth:     1.0*
G04 ================== end FILE IDENTIFICATION RECORD ====================*
%FSLAX25Y25*MOIN*%
%IR0*IPPOS*OFA0.00000B0.00000*MIA0B0*SFA1.00000B1.00000*%
%ADD16C,.1102*%
%ADD32R,.145X.05*%
%ADD19R,.1102X.1102*%
%ADD25R,.1063X.0453*%
%ADD10C,.2362*%
%ADD21R,.2126X.0453*%
%ADD27R,.0866X.122*%
%ADD37R,.2362X.0787*%
%ADD31R,.1339X.0945*%
%ADD11C,.02*%
%ADD12C,.07*%
%ADD44R,.0236X.0413*%
%ADD30R,.0512X.0551*%
%ADD26R,.061X.0236*%
%ADD15R,.063X.0118*%
%ADD46C,.065*%
%ADD39R,.0413X.0236*%
%ADD22R,.0118X.063*%
%ADD43R,.0433X.0236*%
%ADD36O,.0354X.0138*%
%ADD38R,.061X.0925*%
%ADD13R,.07X.07*%
%ADD28R,.0571X.0118*%
%ADD34R,.0433X.0492*%
%ADD14R,.027X.027*%
%ADD42R,.0256X.0138*%
%ADD47R,.065X.065*%
%ADD33R,.0472X.0571*%
%ADD29R,.0354X.0374*%
%ADD35R,.063X.0945*%
%ADD18R,.0394X.0354*%
%ADD45R,.0354X.0394*%
%ADD40R,.0591X.0177*%
%ADD23R,.0287X.0248*%
%ADD17R,.0248X.0287*%
%ADD20R,.0984X.0906*%
%ADD24R,.0728X.0669*%
%AMMACRO41*
4,1,5,.0197,.0315,
.0197,-.0197,
.0079,-.0315,
-.0197,-.0315,
-.0197,.0315,
.0197,.0315,
0.0*
%
%ADD41MACRO41*%
%ADD48C,.006*%
%ADD49C,.008*%
%ADD50C,.01*%
%ADD51C,.012*%
%ADD52C,.001*%
%ADD53C,.015*%
%ADD54C,.0001*%
%ADD55C,.09*%
G75*
%LPD*%
G75*
G36*
G01X43500Y128500D02*
Y116500D01*
X20000D01*
Y128500D01*
X43500D01*
G37*
G36*
G01X94500Y130500D02*
Y116000D01*
X94000Y115500D01*
X66500D01*
X66000Y116000D01*
Y122500D01*
X68000D01*
Y119000D01*
X68500Y118500D01*
X74000D01*
X74500Y119000D01*
Y120500D01*
X76500D01*
Y118000D01*
X77500Y117000D01*
X82500D01*
X83000Y117500D01*
Y121500D01*
X86000D01*
X86500Y122000D01*
Y134500D01*
X79500Y141500D01*
X73000D01*
X72000Y140500D01*
X37000D01*
X36000Y141500D01*
Y168000D01*
X36500Y168500D01*
X81500D01*
X82000Y168000D01*
Y160000D01*
X94500Y147500D01*
Y132500D01*
X95000Y132000D01*
Y131000D01*
X94500Y130500D01*
G37*
G36*
G01X110000Y182000D02*
X37000D01*
X36500Y182500D01*
Y196000D01*
X38000Y197500D01*
X47000D01*
X50000Y194500D01*
X96000D01*
X97500Y196000D01*
X110500D01*
X112000Y194500D01*
Y184000D01*
X110000Y182000D01*
G37*
G36*
G01X60000Y116500D02*
X50000D01*
Y128500D01*
X48500Y130000D01*
Y135000D01*
X72500D01*
Y133000D01*
X73000Y132500D01*
X76500D01*
X77000Y132000D01*
X84500D01*
Y131000D01*
X77000D01*
X75500Y129500D01*
X69500D01*
X68000Y128000D01*
Y125000D01*
X62000D01*
X60000Y123000D01*
Y116500D01*
G37*
G36*
G01X110000Y143000D02*
X102000Y135000D01*
Y133000D01*
X96500D01*
Y135500D01*
X100000Y139000D01*
Y155000D01*
X97500D01*
Y163500D01*
X110000D01*
Y143000D01*
G37*
G36*
G01X141500Y131000D02*
Y126000D01*
X140500Y125000D01*
X129000D01*
X128000Y126000D01*
Y131000D01*
X141500D01*
G37*
G36*
G01X125500Y172000D02*
Y184500D01*
X126000Y185000D01*
X136000D01*
Y171500D01*
X126000D01*
X125500Y172000D01*
G37*
G36*
G01X130000Y197500D02*
X136000D01*
Y187000D01*
X130000D01*
X129500Y187500D01*
Y197000D01*
X130000Y197500D01*
G37*
G36*
G01X138000D02*
X143000D01*
X143500Y197000D01*
Y179500D01*
X144500Y178500D01*
X146500D01*
X147500Y177500D01*
Y172000D01*
X147000Y171500D01*
X138000D01*
Y197500D01*
G37*
G36*
G01X158500Y5000D02*
X157500Y6000D01*
Y14000D01*
X181500D01*
X183500Y16000D01*
Y21500D01*
X184490Y22490D01*
X188990D01*
Y18990D01*
X188500Y18500D01*
Y6000D01*
X187500Y5000D01*
X158500D01*
G37*
G36*
G01X158000Y24000D02*
Y30500D01*
X170500D01*
X172500Y32500D01*
Y42500D01*
X178500D01*
Y32500D01*
X180500Y30500D01*
X181000D01*
Y27500D01*
X183000Y25500D01*
X188500D01*
X188990Y25010D01*
Y24000D01*
X158000D01*
G37*
G36*
G01X199000Y49000D02*
X200000Y48000D01*
X213000D01*
X214000Y49000D01*
Y54500D01*
X214500Y55000D01*
X224000D01*
Y50000D01*
X226000Y48000D01*
X227500D01*
X228500Y47000D01*
Y44500D01*
X224500D01*
X222500Y42500D01*
X183500D01*
X183000Y43000D01*
Y47000D01*
X180000Y50000D01*
X172500D01*
Y59500D01*
X189000D01*
X195000Y53500D01*
X199000D01*
Y49000D01*
G37*
G36*
G01X174500Y171000D02*
X176500Y169000D01*
Y166500D01*
X160500D01*
X160000Y167000D01*
Y170500D01*
X160500Y171000D01*
X163000D01*
X164000Y172000D01*
Y176000D01*
X174500D01*
Y171000D01*
G37*
G36*
G01X176000Y197500D02*
X182000D01*
Y187000D01*
X176000D01*
X175500Y187500D01*
Y197000D01*
X176000Y197500D01*
G37*
G36*
G01X177000Y171500D02*
Y177500D01*
X175500Y179000D01*
X170500D01*
Y184000D01*
X171500Y185000D01*
X182000D01*
Y171500D01*
X177000D01*
G37*
G36*
G01X217500Y27000D02*
X203500D01*
X202500Y26000D01*
Y23500D01*
X200500D01*
X200000Y24000D01*
X195000D01*
X194500Y23500D01*
Y16500D01*
X198000Y13000D01*
X203000D01*
Y10000D01*
X200000D01*
X199000Y9000D01*
Y5500D01*
X198500Y5000D01*
X191000D01*
X190500Y5500D01*
Y27000D01*
X190000Y27500D01*
X184000D01*
X183500Y28000D01*
Y34000D01*
X220500D01*
Y30000D01*
X217500Y27000D01*
G37*
G36*
G01X224000Y62000D02*
Y58000D01*
X210000D01*
X204000Y64000D01*
X199000D01*
Y68000D01*
X190500Y76500D01*
Y79000D01*
X194500D01*
X210500Y63000D01*
X223000D01*
X224000Y62000D01*
G37*
G36*
G01X184000Y197500D02*
X189000D01*
X189500Y197000D01*
Y179500D01*
X190500Y178500D01*
X192500D01*
X193500Y177500D01*
Y172000D01*
X193000Y171500D01*
X184000D01*
Y197500D01*
G37*
%LPC*%
G75*
G54D55*
X41500Y147000D03*
X42000Y192600D03*
X187000Y53000D03*
%LPD*%
G75*
G54D10*
X15000Y15000D03*
Y185000D03*
X235000Y15000D03*
Y185000D03*
G54D20*
X38040Y121000D03*
X54960D03*
X88040Y145500D03*
X104960D03*
G54D11*
G01X35500Y102850D02*
Y97150D01*
G01X40490Y103000D02*
X35650D01*
X35500Y102850D01*
G01X44510Y103000D02*
Y99500D01*
G01Y91000D02*
X47500D01*
G01X44510Y109000D02*
Y112500D01*
G01X76500Y91490D02*
Y88500D01*
G01X85370Y107500D02*
X80500D01*
G01X76500Y108510D02*
Y111500D01*
G01X75500Y139010D02*
X79000D01*
G01X100000Y55010D02*
Y58000D01*
G01Y42990D02*
Y40000D01*
G01X106630Y102500D02*
X101500D01*
G01X106630Y97500D02*
X101500D01*
G01X130500Y50000D02*
X121500D01*
G01X129500Y142010D02*
X134000D01*
G01X129500D02*
Y145000D01*
G01Y137990D02*
Y134010D01*
G01X134000D02*
X129500D01*
G01X134000Y142010D02*
Y145000D01*
G01X174470Y65260D02*
X170500D01*
G01X162500Y162350D02*
X158500D01*
G01X168500D02*
Y158500D01*
G01X162500Y162350D02*
X168500D01*
G01X166000Y180650D02*
Y184500D01*
G01Y180650D02*
X165150Y181500D01*
X162000D01*
G01X202620Y78260D02*
X206240D01*
X207000Y77500D01*
G01X200510Y91500D02*
X204000D01*
G01X214010Y113000D02*
Y109500D01*
G01Y122000D02*
X217000D01*
G01X214010Y117500D02*
X217000D01*
G01X215150Y147500D02*
X219000D01*
G01X219620Y161240D02*
X215500D01*
G01X209380Y153760D02*
X213500D01*
G01X227150Y141500D02*
Y145500D01*
X4000Y4000D03*
X11260Y99760D03*
X11240Y84760D03*
X4000Y140000D03*
Y170000D03*
Y196000D03*
X30000Y4000D03*
X33000Y36200D03*
Y33000D03*
X40510Y21500D03*
X33000Y55890D03*
X41500Y68500D03*
X37500Y157500D03*
X65420Y21500D03*
X45740Y31500D03*
X47000Y35500D03*
X48000Y17340D03*
X49500Y49000D03*
X53500Y40500D03*
X58500Y59500D03*
X46000Y56510D03*
X63000Y49000D03*
X43920Y53920D03*
X54000Y59500D03*
X58500Y49000D03*
X59520Y77000D03*
X63500Y77500D03*
X55580Y77000D03*
X53610Y66500D03*
X57550D03*
X65000Y62500D03*
X48500Y62000D03*
X47500Y91000D03*
X44510Y99500D03*
Y112500D03*
X47500Y150000D03*
X57500D03*
Y157500D03*
X47500D03*
X65500Y193000D03*
X60000Y190000D03*
X50000D03*
X55000Y193000D03*
X75260Y21500D03*
X88500Y29500D03*
X79000Y25350D03*
X69360Y21500D03*
X88300Y36200D03*
X67390Y31500D03*
X75000Y35500D03*
X67500Y17340D03*
X71500Y59500D03*
X77500Y43000D03*
X67500Y59500D03*
Y41500D03*
X88000Y53920D03*
X77500Y53000D03*
X73500Y48500D03*
X88500Y44080D03*
X74500Y63000D03*
X76500Y88500D03*
X80500Y107500D03*
X87500Y125000D03*
X76500Y111500D03*
X79000Y139010D03*
X77500Y143500D03*
X67500Y150000D03*
X77500D03*
X87500Y134000D03*
X77500Y157500D03*
X67500D03*
X85000Y192500D03*
X80000Y190000D03*
X70000D03*
X75000Y193000D03*
X110000Y4000D03*
X98500Y34000D03*
X95510Y43490D03*
X92450Y46050D03*
X100000Y40000D03*
Y58000D03*
X95500Y74000D03*
X89000Y83500D03*
X101500Y102500D03*
Y97500D03*
X111000Y119500D03*
X93500Y125000D03*
X91000Y107500D03*
X101500Y137500D03*
X90500Y129500D03*
X93500Y134000D03*
X117500Y5000D03*
X121500Y30000D03*
X126840Y25000D03*
Y35000D03*
X121500Y40000D03*
Y60000D03*
Y50000D03*
X132500Y45000D03*
X126840Y55500D03*
X121500Y70000D03*
X115000Y71500D03*
X126840Y74500D03*
Y64840D03*
X117510Y96000D03*
X129500Y126500D03*
Y145000D03*
X127000Y173000D03*
X131000Y162500D03*
X133000Y152500D03*
X133500Y179500D03*
X127000Y178500D03*
X131000Y188000D03*
Y193000D03*
X148000Y25000D03*
X151660Y74500D03*
X147000Y65000D03*
X144500Y116500D03*
X134500Y126500D03*
X134000Y145000D03*
X151500Y137500D03*
X137000Y157500D03*
X140000Y155000D03*
X145500Y173000D03*
X150000Y189840D03*
X145500Y176500D03*
X142500Y182500D03*
X138500D03*
X140500Y186000D03*
X142500Y189500D03*
X138500D03*
X142000Y196500D03*
X157000Y40000D03*
X159500Y60000D03*
X157500Y70000D03*
X170500Y72740D03*
Y65260D03*
X165500Y90500D03*
X158500Y121000D03*
X165500Y110000D03*
X170500Y127480D03*
Y132500D03*
Y135500D03*
X158500Y162350D03*
X168500Y158500D03*
X177000Y188000D03*
Y193000D03*
X162000Y181500D03*
X166000Y184500D03*
X162000Y196500D03*
X183500Y7000D03*
X187500D03*
X197500Y12000D03*
Y7000D03*
X192000D03*
X185000Y18000D03*
X200000Y28500D03*
X192500D03*
X185000D03*
X192500Y22000D03*
X195000Y96500D03*
X182000Y127480D03*
X193000Y139500D03*
Y143500D03*
X180500Y137720D03*
X183720D03*
X185000Y148000D03*
X180500D03*
X191500Y173000D03*
X181150Y155150D03*
X194500Y162000D03*
X196000Y189840D03*
X186500Y186000D03*
X184500Y189500D03*
X188500D03*
Y182500D03*
X184500D03*
X191500Y176500D03*
X188000Y196500D03*
X215000Y28500D03*
X207500D03*
X207000Y77500D03*
X204000Y91500D03*
X207000Y96400D03*
X204500Y125000D03*
X203500Y112500D03*
X214010Y109500D03*
X217000Y122000D03*
Y117500D03*
X218500Y110000D03*
X204500Y140000D03*
X203500Y150520D03*
X219000Y147500D03*
X215500Y161240D03*
X213500Y153760D03*
X246000Y4000D03*
X227000Y38500D03*
Y28500D03*
X227150Y145500D03*
X246000Y196000D03*
G54D30*
X105860Y44080D03*
Y53920D03*
X113340D03*
Y44080D03*
G54D12*
X9000Y35500D03*
Y45500D03*
X42500Y8500D03*
X41500Y147000D03*
X42000Y192600D03*
X62500Y8500D03*
X52500D03*
X82500D03*
X72500D03*
X177500Y82500D03*
X187000Y53000D03*
X210500Y7500D03*
X214500Y188500D03*
G54D21*
X47500Y162280D03*
Y184720D03*
X71000Y162280D03*
Y184720D03*
G54D40*
X175080Y122370D03*
Y124930D03*
Y127480D03*
Y130040D03*
Y132600D03*
Y135160D03*
Y137720D03*
Y140280D03*
Y142840D03*
Y145400D03*
Y147960D03*
Y150520D03*
Y153070D03*
Y155630D03*
X197920Y127480D03*
Y124930D03*
Y122370D03*
Y147960D03*
Y145400D03*
Y142840D03*
Y140280D03*
Y137720D03*
Y135160D03*
Y132600D03*
Y130040D03*
Y155630D03*
Y153070D03*
Y150520D03*
G54D13*
X9000Y55500D03*
X92500Y8500D03*
G54D22*
X63450Y26560D03*
X61480D03*
X59520D03*
X57550D03*
X55580D03*
X53610D03*
X51640D03*
X49670D03*
X47700D03*
X45740D03*
Y71440D03*
X47700D03*
X49670D03*
X51640D03*
X53610D03*
X55580D03*
X57550D03*
X59520D03*
X61480D03*
X63450D03*
X75260Y26560D03*
X73300D03*
X71330D03*
X69360D03*
X67390D03*
X65420D03*
Y71440D03*
X67390D03*
X69360D03*
X71330D03*
X73300D03*
X75260D03*
G54D31*
X104000Y159360D03*
Y191640D03*
G54D50*
G01X75500Y134990D02*
X75510Y135000D01*
X78000D01*
X79560Y133440D01*
X81840D01*
G01X116500Y130490D02*
Y124500D01*
X115000Y123000D01*
X105000D01*
X104000Y124000D01*
Y126650D01*
X103120Y127530D01*
X99160D01*
G01X107990Y126000D02*
Y130000D01*
X107500Y130490D01*
G01X108010Y119500D02*
X111000D01*
G01X107500Y130490D02*
X107010Y130000D01*
X105000D01*
X104500Y129500D01*
X99160D01*
G01Y131470D02*
X103470D01*
X106500Y134500D01*
X107490D01*
X107500Y134510D01*
G01X121000D02*
Y174640D01*
X104000Y191640D01*
G01X112010Y126000D02*
Y130480D01*
X112000Y130490D01*
G01X121000D02*
X116500D01*
G01X145650Y137940D02*
Y137170D01*
X142490Y134010D01*
X134000D01*
G01X146210Y189840D02*
X150000D01*
G54D41*
X192500Y22000D03*
G54D23*
X45000Y81510D03*
Y77490D03*
X76500Y91490D03*
Y95510D03*
Y104490D03*
Y108510D03*
X75500Y119490D03*
Y123510D03*
Y139010D03*
Y134990D03*
X100000Y47010D03*
Y42990D03*
Y50990D03*
Y55010D03*
X107500Y134510D03*
Y130490D03*
X114000Y92510D03*
Y88490D03*
X129500Y129990D03*
Y134010D03*
X112000Y134510D03*
Y130490D03*
X129500Y137990D03*
Y142010D03*
X121000Y130490D03*
Y134510D03*
X116500D03*
Y130490D03*
X134000Y129990D03*
Y134010D03*
Y137990D03*
Y142010D03*
X152500Y177510D03*
Y173490D03*
Y185510D03*
Y181490D03*
X157000Y177510D03*
Y173490D03*
X198000Y177510D03*
Y173490D03*
Y185510D03*
Y181490D03*
X201500Y11490D03*
Y15510D03*
X202500Y177510D03*
Y173490D03*
X227000Y35510D03*
Y31490D03*
Y41490D03*
Y45510D03*
X225500Y153990D03*
Y158010D03*
G54D14*
X24000Y38500D03*
Y44000D03*
Y49500D03*
X29500D03*
X56000Y86000D03*
X50500D03*
X45000D03*
X99000Y119500D03*
X128000Y182500D03*
X154000Y142500D03*
X158000Y149500D03*
X165000Y146000D03*
Y139000D03*
X174500Y168000D03*
X188500Y96500D03*
X200000Y162000D03*
X212000Y76000D03*
Y70000D03*
X225000Y90000D03*
Y100000D03*
X225500Y163000D03*
G54D32*
X130500Y10000D03*
Y20000D03*
Y30000D03*
Y40000D03*
Y50000D03*
Y60000D03*
Y70000D03*
X148000Y10000D03*
Y20000D03*
Y30000D03*
Y40000D03*
Y50000D03*
Y60000D03*
Y70000D03*
G54D51*
G01X38060Y36200D02*
X33000D01*
G01Y33000D02*
X34240Y34240D01*
X38060D01*
G01Y55890D02*
X33000D01*
G01X38060Y53920D02*
X43920D01*
G01X45740Y26560D02*
Y31500D01*
G01X59520Y71440D02*
Y77000D01*
G01X55580Y71440D02*
Y77000D01*
G01X53610Y71440D02*
Y66500D01*
G01X57550Y71440D02*
Y66500D01*
G01X69360Y26560D02*
Y21500D01*
G01X67390Y26560D02*
Y31500D01*
G01X82940Y53920D02*
X88000D01*
G01X82940Y51950D02*
X78550D01*
X77500Y53000D01*
G01X90500Y129500D02*
X92470Y131470D01*
G01D02*
X99160D01*
G01X133650Y174500D02*
Y171350D01*
X135500Y169500D01*
X148500D01*
X152490Y173490D01*
X152500D01*
G01X157000D02*
X152500D01*
G01Y181490D02*
Y177510D01*
G01Y181490D02*
X150010D01*
X149340Y182160D01*
X146210D01*
G01X157000Y177510D02*
X152500D01*
G01Y185510D02*
X150020D01*
X149230Y184720D01*
X146210D01*
G01X140500Y186000D02*
X141780Y184720D01*
G01D02*
X146210D01*
G01X196630Y19440D02*
X200560Y15510D01*
X201500D01*
G01X196630Y22000D02*
X199010D01*
X201010Y20000D01*
X201490D01*
G01X180000Y174150D02*
Y170700D01*
X181200Y169500D01*
X194000D01*
X197990Y173490D01*
X198000D01*
G01X192210Y189840D02*
X196000D01*
G01X198000Y181490D02*
Y177510D01*
G01Y181490D02*
X195510D01*
X194840Y182160D01*
X192210D01*
G01X202500Y177510D02*
X198000D01*
G01X202500Y173490D02*
X198000D01*
G01X179650Y174500D02*
X180000Y174150D01*
G01X198000Y185510D02*
X195510D01*
X194720Y184720D01*
X192210D01*
G01X186500Y186000D02*
X187780Y184720D01*
G01D02*
X192210D01*
G01X205990Y15500D02*
X201510D01*
X201500Y15510D01*
G01X205510Y24500D02*
Y20000D01*
G01X222090Y42910D02*
X223500Y41500D01*
Y28000D01*
X219000Y23500D01*
X212500D01*
X210000Y21000D01*
Y15510D01*
X210010Y15500D01*
G01X215000Y44910D02*
X222090D01*
Y42910D01*
G01X227000Y35510D02*
Y38500D01*
G01Y41490D02*
Y38500D01*
G54D24*
X53530Y95470D03*
Y104530D03*
X69470Y95470D03*
Y104530D03*
G54D33*
X133650Y174500D03*
X140350D03*
X192850Y12500D03*
X186150D03*
X186350Y174500D03*
X179650D03*
G54D42*
X188370Y19440D03*
Y22000D03*
Y24560D03*
X196630D03*
Y22000D03*
Y19440D03*
G54D15*
X38060Y34240D03*
Y36200D03*
Y38170D03*
Y40140D03*
Y42110D03*
Y44080D03*
Y46050D03*
Y48020D03*
Y49980D03*
Y51950D03*
Y53920D03*
Y55890D03*
Y57860D03*
Y59830D03*
Y61800D03*
Y63760D03*
X82940Y36200D03*
Y34240D03*
Y59830D03*
Y57860D03*
Y55890D03*
Y53920D03*
Y51950D03*
Y49980D03*
Y48020D03*
Y46050D03*
Y44080D03*
Y42110D03*
Y40140D03*
Y38170D03*
Y63760D03*
Y61800D03*
G54D52*
G01X0Y0D02*
X250000D01*
Y200000D01*
X0D01*
Y0D01*
G54D34*
X145650Y137940D03*
Y130060D03*
X139350D03*
Y137940D03*
G54D43*
X192380Y78260D03*
Y82000D03*
Y85740D03*
X202620Y82000D03*
Y78260D03*
Y85740D03*
X219620Y161240D03*
Y153760D03*
X209380D03*
Y157500D03*
Y161240D03*
G54D25*
X54000Y144410D03*
Y132590D03*
X67000Y144410D03*
Y132590D03*
X202000Y33090D03*
X189000D03*
X202000Y44910D03*
X189000D03*
X215000Y33090D03*
Y44910D03*
G54D16*
X25740Y77500D03*
Y92500D03*
Y107500D03*
G54D53*
G01X91490Y29500D02*
X88500D01*
G01X95510Y55500D02*
X99510D01*
X100000Y55010D01*
G01X107500Y134510D02*
X112000D01*
G01D02*
X116500D01*
G01X148000Y20000D02*
Y25000D01*
G01Y30000D02*
Y25000D01*
G01Y40000D02*
X157000D01*
G01X148000Y60000D02*
X159500D01*
G01X148000Y70000D02*
X157500D01*
G01X175080Y127480D02*
X170500D01*
G01X175080D02*
X182000D01*
G01X175080Y137720D02*
X180500D01*
G01X170500Y132500D02*
X171000D01*
X171100Y132600D01*
X175080D01*
G01Y135160D02*
X170840D01*
X170500Y135500D01*
G01X201000Y59350D02*
X195000D01*
G01X183530Y69000D02*
X188000D01*
X191350Y65650D01*
X195000D01*
G01X180500Y137720D02*
X183720D01*
G01X202010Y52000D02*
Y58340D01*
X201000Y59350D01*
G01X207760Y51970D02*
X202040D01*
X202010Y52000D01*
G01X227000Y31490D02*
Y28500D01*
G54D17*
X40490Y91000D03*
Y103000D03*
Y109000D03*
X44510Y91000D03*
Y103000D03*
Y109000D03*
X75010Y79500D03*
X70990D03*
X71010Y126000D03*
X66990D03*
Y121500D03*
X71010D03*
X84010Y120000D03*
X79990D03*
X95510Y29500D03*
X91490D03*
X95510Y34000D03*
X91490D03*
X95510Y40000D03*
X91490D03*
X95510Y55500D03*
X91490D03*
Y51000D03*
X95510D03*
X103990Y119500D03*
X108010D03*
X107990Y126000D03*
X112010D03*
X113490Y107500D03*
X117510D03*
X155510Y116500D03*
X151490D03*
X155510Y121000D03*
X151490D03*
X155510Y125500D03*
X151490D03*
X155510Y130000D03*
X151490D03*
X139010Y195500D03*
X134990D03*
X160010Y137500D03*
X155990D03*
X197990Y52000D03*
X192510Y91500D03*
X188490D03*
X200510D03*
X196490D03*
X185010Y195500D03*
X180990D03*
X205990Y15500D03*
X210010D03*
X201490Y24500D03*
X205510D03*
Y20000D03*
X201490D03*
X202010Y52000D03*
X214010Y122000D03*
X209990D03*
Y113000D03*
X214010D03*
Y117500D03*
X209990D03*
G54D35*
X140500Y186000D03*
X186500D03*
G54D26*
X85370Y92500D03*
Y97500D03*
Y102500D03*
Y107500D03*
X106630Y102500D03*
Y97500D03*
Y92500D03*
Y107500D03*
G54D44*
X211500Y61030D03*
X215240Y51970D03*
X207760D03*
G54D54*
G01X1390Y-3760D02*
Y-7500D01*
G01X320Y-3760D02*
X2460D01*
G01X5100Y-7500D02*
X4730Y-7440D01*
X4410Y-7190D01*
X4130Y-6810D01*
X3940Y-6380D01*
X3850Y-5880D01*
Y-5380D01*
X3940Y-4880D01*
X4130Y-4450D01*
X4410Y-4070D01*
X4730Y-3820D01*
X5100Y-3760D01*
X5470Y-3820D01*
X5790Y-4070D01*
X6070Y-4450D01*
X6260Y-4880D01*
X6350Y-5380D01*
Y-5880D01*
X6260Y-6380D01*
X6070Y-6810D01*
X5790Y-7190D01*
X5470Y-7440D01*
X5100Y-7500D01*
G01X7880D02*
Y-3760D01*
X9000D01*
X9370Y-3950D01*
X9640Y-4380D01*
X9740Y-4880D01*
X9640Y-5380D01*
X9410Y-5750D01*
X9000Y-5940D01*
X7880D01*
G01X17250Y-4070D02*
X16970Y-3880D01*
X16650Y-3760D01*
X16280D01*
X15860Y-3950D01*
X15540Y-4260D01*
X15300Y-4630D01*
X15120Y-5260D01*
X15070Y-5820D01*
X15160Y-6380D01*
X15300Y-6750D01*
X15580Y-7130D01*
X15910Y-7380D01*
X16230Y-7500D01*
X16550D01*
X16880Y-7380D01*
X17160Y-7190D01*
X17390Y-6940D01*
G01X19940Y-7500D02*
X19570Y-7440D01*
X19250Y-7190D01*
X18970Y-6810D01*
X18780Y-6380D01*
X18690Y-5880D01*
Y-5380D01*
X18780Y-4880D01*
X18970Y-4450D01*
X19250Y-4070D01*
X19570Y-3820D01*
X19940Y-3760D01*
X20310Y-3820D01*
X20630Y-4070D01*
X20910Y-4450D01*
X21100Y-4880D01*
X21190Y-5380D01*
Y-5880D01*
X21100Y-6380D01*
X20910Y-6810D01*
X20630Y-7190D01*
X20310Y-7440D01*
X19940Y-7500D01*
G01X22720D02*
Y-3760D01*
X23840D01*
X24210Y-3950D01*
X24480Y-4380D01*
X24580Y-4880D01*
X24480Y-5380D01*
X24250Y-5750D01*
X23840Y-5940D01*
X22720D01*
G01X26430Y-7500D02*
Y-3760D01*
X27550D01*
X27920Y-3950D01*
X28190Y-4380D01*
X28290Y-4880D01*
X28190Y-5380D01*
X27960Y-5750D01*
X27550Y-5940D01*
X26430D01*
G01X32000Y-7500D02*
X30140D01*
Y-3760D01*
X32000D01*
G01X31260Y-5570D02*
X30140D01*
G01X33850Y-7500D02*
Y-3760D01*
X35010D01*
X35380Y-3950D01*
X35610Y-4200D01*
X35710Y-4700D01*
X35610Y-5190D01*
X35340Y-5510D01*
X35010Y-5690D01*
X33850D01*
G01X35010D02*
X35710Y-7500D01*
G54D45*
X217850Y76000D03*
Y70000D03*
X219150Y82000D03*
X212850D03*
X219150Y94000D03*
X212850D03*
X219150Y88000D03*
X212850D03*
X219150Y100000D03*
X212850D03*
X208850Y127500D03*
X215150D03*
X220850Y141500D03*
X208850D03*
X215150D03*
Y135500D03*
X208850D03*
X215150Y147500D03*
X208850D03*
X224150Y76000D03*
Y70000D03*
X227150Y141500D03*
G54D18*
X35500Y102850D03*
Y97150D03*
Y90850D03*
Y109150D03*
X162500Y162350D03*
Y168650D03*
X168500Y162350D03*
Y168650D03*
X166000Y174350D03*
Y180650D03*
X172500Y174350D03*
Y180650D03*
X201000Y59350D03*
X195000D03*
X201000Y65650D03*
X195000D03*
X222000Y59650D03*
Y53350D03*
X221000Y125350D03*
Y131650D03*
G54D36*
X146210Y189840D03*
Y187280D03*
Y184720D03*
Y182160D03*
X134790D03*
Y184720D03*
Y187280D03*
Y189840D03*
X192210D03*
Y187280D03*
Y184720D03*
Y182160D03*
X180790D03*
Y184720D03*
Y187280D03*
Y189840D03*
G54D27*
X90500Y129500D03*
G54D28*
X81840Y125560D03*
Y127530D03*
Y129500D03*
Y131470D03*
Y133440D03*
X99160Y125560D03*
Y133440D03*
Y131470D03*
Y129500D03*
Y127530D03*
G54D46*
X231880Y70000D03*
Y80000D03*
X241880Y70000D03*
Y80000D03*
X231880Y90000D03*
Y100000D03*
X241880Y90000D03*
Y100000D03*
X231880Y110000D03*
Y120000D03*
Y130000D03*
X241880Y110000D03*
Y120000D03*
G54D37*
X169500Y10040D03*
Y26960D03*
G54D19*
X25740Y122500D03*
G54D29*
X96150Y24000D03*
X89850D03*
G54D47*
X241880Y130000D03*
G54D38*
X175500Y38040D03*
Y54960D03*
G54D48*
G01X38060Y63760D02*
X17260D01*
X9000Y55500D01*
G01X38060Y57860D02*
X21360D01*
X9000Y45500D01*
G01X38060Y51950D02*
X46550D01*
X49500Y49000D01*
G01X53500Y40500D02*
X44020Y49980D01*
X38060D01*
G01Y38170D02*
X24330D01*
X24000Y38500D01*
G01Y44000D02*
X27000D01*
X30860Y40140D01*
X38060D01*
G01Y42110D02*
X31390D01*
X24000Y49500D01*
G01X29500D02*
Y46500D01*
X31920Y44080D01*
X38060D01*
G01X41500Y68500D02*
X43000Y67000D01*
Y62400D01*
X42400Y61800D01*
X38060D01*
G01X35500Y90850D02*
X40340D01*
X40490Y91000D01*
G01X35500Y90850D02*
X27390D01*
X25740Y92500D01*
G01X53530Y95470D02*
X42620D01*
X40490Y93340D01*
Y91000D01*
G01X35500Y109150D02*
X40340D01*
X40490Y109000D01*
G01X35500Y109150D02*
X27390D01*
X25740Y107500D01*
G01X53530Y104530D02*
X48990D01*
X47520Y106000D01*
X41500D01*
X40490Y107010D01*
Y109000D01*
G01X37980Y143480D02*
X41500Y147000D01*
G01D02*
X45020Y150520D01*
G01X37980D02*
X41500Y147000D01*
G01D02*
X45020Y143480D01*
G01X38480Y189080D02*
X42000Y192600D01*
G01D02*
X45520Y196120D01*
G01X38480D02*
X42000Y192600D01*
G01D02*
X45520Y189080D01*
G01X74500Y63000D02*
Y57500D01*
X70500Y53500D01*
Y48500D01*
X63450Y41450D01*
Y26560D01*
G01X71500Y59500D02*
Y57500D01*
X68500Y54500D01*
Y49500D01*
X61480Y42480D01*
Y26560D01*
G01X58500Y59500D02*
Y62000D01*
X57500Y63000D01*
X52640D01*
X51640Y64000D01*
Y71440D01*
G01X115000Y71500D02*
X82000D01*
X76500Y66000D01*
X64000D01*
X63450Y66550D01*
Y71440D01*
G01X56000Y86000D02*
Y83000D01*
X49670Y76670D01*
Y71440D01*
G01X50500Y86000D02*
Y80500D01*
X47700Y77700D01*
Y71440D01*
G01X45000Y81510D02*
Y86000D01*
G01X45740Y71440D02*
Y76750D01*
X45000Y77490D01*
G01X65420Y26560D02*
Y21500D01*
G01X75260Y26560D02*
Y21500D01*
G01X89850Y24000D02*
X86500D01*
X78000Y32500D01*
Y37000D01*
X79170Y38170D01*
X82940D01*
G01Y36200D02*
X88300D01*
G01X82940Y34240D02*
X91250D01*
X91490Y34000D01*
G01X67500Y41500D02*
Y36500D01*
X73300Y30700D01*
Y26560D01*
G01X82940Y49980D02*
X90470D01*
X91490Y51000D01*
G01X121500Y30000D02*
X117500Y34000D01*
Y58000D01*
X115000Y60500D01*
X98500D01*
X96500Y58500D01*
X89000D01*
X88360Y57860D01*
X82940D01*
G01Y40140D02*
X91350D01*
X91490Y40000D01*
G01X82940Y55890D02*
X79110D01*
X78000Y57000D01*
Y64500D01*
X82000Y68500D01*
X115500D01*
X128500Y81500D01*
Y105500D01*
X144000Y121000D01*
X151490D01*
G01X82940Y48020D02*
X98990D01*
X100000Y47010D01*
G01X82940Y46050D02*
X92450D01*
G01X82940Y44080D02*
X88500D01*
G01X121500Y40000D02*
X119500Y42000D01*
Y59000D01*
X116000Y62500D01*
X98000D01*
X96000Y60500D01*
X88500D01*
X87830Y59830D01*
X82940D01*
G01X121500Y60000D02*
X117000Y64500D01*
X97000D01*
X95000Y62500D01*
X88000D01*
X87300Y61800D01*
X82940D01*
G01X121500Y70000D02*
X118000Y66500D01*
X96000D01*
X94000Y64500D01*
X87500D01*
X86760Y63760D01*
X82940D01*
G01X75260Y71440D02*
Y79250D01*
X75010Y79500D01*
G01D02*
X93500D01*
X96500Y82500D01*
Y106500D01*
X102500Y112500D01*
X115500D01*
X125500Y122500D01*
Y157000D01*
X131000Y162500D01*
G01X70990Y79500D02*
X69500D01*
X65420Y75420D01*
Y71440D01*
G01X69470Y95470D02*
X76460D01*
X76500Y95510D01*
G01X85370Y97500D02*
X78490D01*
X76500Y95510D01*
G01X69470Y104530D02*
X76460D01*
X76500Y104490D01*
G01X85370Y102500D02*
X78490D01*
X76500Y104490D01*
G01X89000Y83500D02*
X91000Y85500D01*
Y91500D01*
X90000Y92500D01*
X85370D01*
G01X95510Y34000D02*
X98500D01*
G01X95510Y29500D02*
Y24640D01*
X96150Y24000D01*
G01X91490Y55500D02*
Y51000D01*
G01X95510Y40000D02*
Y43490D01*
G01X113240Y44080D02*
X109320Y48000D01*
X100990D01*
X100000Y47010D01*
G01Y50990D02*
X102830D01*
X105760Y53920D01*
G01X95510Y51000D02*
X99990D01*
X100000Y50990D01*
G01X95500Y74000D02*
X103000D01*
X114000Y85000D01*
Y88490D01*
G01X106630Y92500D02*
X113990D01*
X114000Y92510D01*
G01X106630Y107500D02*
X113490D01*
G01X130500Y30000D02*
Y20000D01*
G01Y30000D02*
X121500D01*
G01X130500Y40000D02*
X121500D01*
G01X130500Y60000D02*
X121500D01*
G01X130500Y70000D02*
X121500D01*
G01X117510Y107500D02*
Y96000D01*
G01X151490Y125500D02*
Y121000D01*
G01Y116500D02*
X144500D01*
G01X145650Y130060D02*
X151430D01*
X151490Y130000D01*
G01X134000Y137990D02*
X139300D01*
X139350Y137940D01*
G01X155990Y137500D02*
X151500D01*
G01X175080Y142840D02*
X154340D01*
X154000Y142500D01*
G01X137000Y157500D02*
X163000D01*
X164870Y155630D01*
X175080D01*
G01X133000Y152500D02*
X161500D01*
X162500Y151500D01*
X168500D01*
X169480Y150520D01*
X175080D01*
G01X140000Y155000D02*
X162000D01*
X163930Y153070D01*
X175080D01*
G01X174470Y72740D02*
X170500D01*
G01X155510Y121000D02*
Y116500D01*
G01Y121000D02*
X158500D01*
G01X188500Y96500D02*
X178500Y106500D01*
Y121000D01*
X177130Y122370D01*
X175080D01*
G01X195000Y96500D02*
X182000Y109500D01*
Y123000D01*
X180070Y124930D01*
X175080D01*
G01X155510Y130000D02*
Y125500D01*
G01X175080Y140280D02*
X166280D01*
X165000Y139000D01*
G01X160010Y137500D02*
X163500D01*
X165000Y139000D01*
G01X158000Y149500D02*
X167500D01*
X169040Y147960D01*
X175080D01*
G01Y145400D02*
X165600D01*
X165000Y146000D01*
G01X175080Y130040D02*
X155550D01*
X155510Y130000D01*
G01X183480Y49480D02*
X187000Y53000D01*
G01D02*
X190520Y56520D01*
G01X183480D02*
X187000Y53000D01*
G01D02*
X190520Y49480D01*
G01X192380Y82000D02*
Y85740D01*
G01D02*
Y91370D01*
X192510Y91500D01*
G01X196490D02*
X192510D01*
G01X188500Y96500D02*
Y91510D01*
X188490Y91500D01*
G01X203500Y112500D02*
Y120500D01*
X201630Y122370D01*
X197920D01*
G01Y124930D02*
X193930D01*
X192500Y123500D01*
Y117000D01*
X204000Y105500D01*
X216500D01*
X219150Y102850D01*
Y100000D01*
G01X197920Y135160D02*
X208510D01*
X208850Y135500D01*
G01X197920Y137720D02*
X202220D01*
X204500Y140000D01*
G01X197920Y127480D02*
X202020D01*
X204500Y125000D01*
G01X208850Y127500D02*
X206000D01*
X203460Y130040D01*
X197920D01*
G01X221000Y131650D02*
X220850Y131500D01*
X206000D01*
X204900Y132600D01*
X197920D01*
G01Y140280D02*
X193780D01*
X193000Y139500D01*
G01X197920Y142840D02*
X193660D01*
X193000Y143500D01*
G01X208850Y147500D02*
X206000D01*
X203900Y145400D01*
X197920D01*
G01X194500Y162000D02*
X192500Y160000D01*
Y148560D01*
X193100Y147960D01*
X197920D01*
G01X209380Y157500D02*
X206000D01*
X201570Y153070D01*
X197920D01*
G01X209380Y161240D02*
X206740D01*
X201130Y155630D01*
X197920D01*
G01Y150520D02*
X203500D01*
G01X202620Y82000D02*
X212850D01*
G01X219150D02*
Y88000D01*
G01X212000Y76000D02*
X217850D01*
G01Y70000D02*
X212000D01*
G01X212850Y88000D02*
X208500D01*
X206240Y85740D01*
X202620D01*
G01X212850Y94000D02*
Y100000D01*
G01X219150Y88000D02*
X223000D01*
X225000Y90000D01*
G01X219150Y94000D02*
Y88000D01*
G01Y100000D02*
X225000D01*
G01X221000Y125350D02*
X217300D01*
X215150Y127500D01*
G01X209990Y122000D02*
X207500D01*
X204500Y125000D01*
G01X209990Y117500D02*
Y122000D01*
G01Y113000D02*
Y117500D01*
G01X208850Y141500D02*
X206000D01*
X204500Y140000D01*
G01X215150Y141500D02*
X220850D01*
G01X215150D02*
Y135500D01*
G01X219620Y153760D02*
X225270D01*
X225500Y153990D01*
G01X224150Y76000D02*
X227880D01*
X231880Y80000D01*
G01X224150Y70000D02*
X231880D01*
G01Y90000D02*
X225000D01*
G01X231880Y100000D02*
X225000D01*
G01X225500Y158010D02*
Y163000D01*
G54D39*
X174470Y65260D03*
Y72740D03*
X183530Y69000D03*
G54D49*
G01X117500Y5000D02*
X108000Y14500D01*
X39000D01*
X24000Y29500D01*
Y38500D01*
G01X71010Y126000D02*
Y121500D01*
G01X81840Y129500D02*
X77500D01*
X76150Y128150D01*
X72960D01*
X71010Y126200D01*
Y126000D01*
G01X79990Y120000D02*
Y122480D01*
X81840Y124330D01*
Y125560D01*
G01X75500Y123510D02*
Y125010D01*
X78020Y127530D01*
X81840D01*
G01X99000Y119500D02*
X103990D01*
G01X99160Y125560D02*
Y119660D01*
X99000Y119500D01*
M02*
