G04 (created by PCBNEW (2013-jul-07)-stable) date Di 23 Feb 2016 16:59:05 CET*
%MOIN*%
G04 Gerber Fmt 3.4, Leading zero omitted, Abs format*
%FSLAX34Y34*%
G01*
G70*
G90*
G04 APERTURE LIST*
%ADD10C,0.005*%
%ADD11C,0.00787402*%
%ADD12C,0.011811*%
G04 APERTURE END LIST*
G54D10*
G54D11*
X27165Y-26235D02*
X27284Y-26354D01*
X27284Y-26235D02*
X27165Y-26354D01*
X27795Y-26780D02*
X27914Y-26899D01*
X27914Y-26780D02*
X27795Y-26899D01*
X2098Y-12500D02*
G75*
G03X2098Y-12500I-98J0D01*
G74*
G01*
X2548Y-4650D02*
G75*
G03X2548Y-4650I-98J0D01*
G74*
G01*
X2548Y-10850D02*
G75*
G03X2548Y-10850I-98J0D01*
G74*
G01*
X2648Y-15250D02*
G75*
G03X2648Y-15250I-98J0D01*
G74*
G01*
X2648Y-19200D02*
G75*
G03X2648Y-19200I-98J0D01*
G74*
G01*
X3348Y-16600D02*
G75*
G03X3348Y-16600I-98J0D01*
G74*
G01*
X3598Y-30975D02*
G75*
G03X3598Y-30975I-98J0D01*
G74*
G01*
X4423Y-30975D02*
G75*
G03X4423Y-30975I-98J0D01*
G74*
G01*
X5133Y-2820D02*
G75*
G03X5133Y-2820I-98J0D01*
G74*
G01*
X5133Y-7070D02*
G75*
G03X5133Y-7070I-98J0D01*
G74*
G01*
X5173Y-30975D02*
G75*
G03X5173Y-30975I-98J0D01*
G74*
G01*
X7133Y-2120D02*
G75*
G03X7133Y-2120I-98J0D01*
G74*
G01*
X7133Y-8220D02*
G75*
G03X7133Y-8220I-98J0D01*
G74*
G01*
X8133Y-2920D02*
G75*
G03X8133Y-2920I-98J0D01*
G74*
G01*
X8133Y-7220D02*
G75*
G03X8133Y-7220I-98J0D01*
G74*
G01*
X8427Y-25224D02*
G75*
G03X8427Y-25224I-98J0D01*
G74*
G01*
X9133Y-3270D02*
G75*
G03X9133Y-3270I-98J0D01*
G74*
G01*
X9133Y-7720D02*
G75*
G03X9133Y-7720I-98J0D01*
G74*
G01*
X10133Y-2520D02*
G75*
G03X10133Y-2520I-98J0D01*
G74*
G01*
X10133Y-6270D02*
G75*
G03X10133Y-6270I-98J0D01*
G74*
G01*
X11133Y-8220D02*
G75*
G03X11133Y-8220I-98J0D01*
G74*
G01*
X12133Y-2120D02*
G75*
G03X12133Y-2120I-98J0D01*
G74*
G01*
X12133Y-7470D02*
G75*
G03X12133Y-7470I-98J0D01*
G74*
G01*
X13073Y-24900D02*
G75*
G03X13073Y-24900I-98J0D01*
G74*
G01*
X13133Y-2920D02*
G75*
G03X13133Y-2920I-98J0D01*
G74*
G01*
X13133Y-6670D02*
G75*
G03X13133Y-6670I-98J0D01*
G74*
G01*
X14133Y-3270D02*
G75*
G03X14133Y-3270I-98J0D01*
G74*
G01*
X14133Y-7120D02*
G75*
G03X14133Y-7120I-98J0D01*
G74*
G01*
X15133Y-2520D02*
G75*
G03X15133Y-2520I-98J0D01*
G74*
G01*
X15133Y-6270D02*
G75*
G03X15133Y-6270I-98J0D01*
G74*
G01*
X16133Y-8720D02*
G75*
G03X16133Y-8720I-98J0D01*
G74*
G01*
X17133Y-2120D02*
G75*
G03X17133Y-2120I-98J0D01*
G74*
G01*
X17133Y-7470D02*
G75*
G03X17133Y-7470I-98J0D01*
G74*
G01*
X18133Y-2920D02*
G75*
G03X18133Y-2920I-98J0D01*
G74*
G01*
X18133Y-6720D02*
G75*
G03X18133Y-6720I-98J0D01*
G74*
G01*
X18448Y-25700D02*
G75*
G03X18448Y-25700I-98J0D01*
G74*
G01*
X18673Y-29100D02*
G75*
G03X18673Y-29100I-98J0D01*
G74*
G01*
X19083Y-14635D02*
G75*
G03X19083Y-14635I-98J0D01*
G74*
G01*
X19298Y-22750D02*
G75*
G03X19298Y-22750I-98J0D01*
G74*
G01*
X19898Y-25525D02*
G75*
G03X19898Y-25525I-98J0D01*
G74*
G01*
X20148Y-27075D02*
G75*
G03X20148Y-27075I-98J0D01*
G74*
G01*
X20233Y-20578D02*
G75*
G03X20233Y-20578I-98J0D01*
G74*
G01*
X20237Y-22914D02*
G75*
G03X20237Y-22914I-98J0D01*
G74*
G01*
X20719Y-10930D02*
G75*
G03X20719Y-10930I-98J0D01*
G74*
G01*
X20828Y-20620D02*
G75*
G03X20828Y-20620I-98J0D01*
G74*
G01*
X20948Y-23575D02*
G75*
G03X20948Y-23575I-98J0D01*
G74*
G01*
X21198Y-11580D02*
G75*
G03X21198Y-11580I-98J0D01*
G74*
G01*
X21248Y-24850D02*
G75*
G03X21248Y-24850I-98J0D01*
G74*
G01*
X21443Y-17230D02*
G75*
G03X21443Y-17230I-98J0D01*
G74*
G01*
X21447Y-22726D02*
G75*
G03X21447Y-22726I-98J0D01*
G74*
G01*
X21461Y-20458D02*
G75*
G03X21461Y-20458I-98J0D01*
G74*
G01*
X21503Y-13570D02*
G75*
G03X21503Y-13570I-98J0D01*
G74*
G01*
X21709Y-19732D02*
G75*
G03X21709Y-19732I-98J0D01*
G74*
G01*
X21783Y-9870D02*
G75*
G03X21783Y-9870I-98J0D01*
G74*
G01*
X21783Y-10560D02*
G75*
G03X21783Y-10560I-98J0D01*
G74*
G01*
X22183Y-16470D02*
G75*
G03X22183Y-16470I-98J0D01*
G74*
G01*
X22238Y-20570D02*
G75*
G03X22238Y-20570I-98J0D01*
G74*
G01*
X22513Y-3260D02*
G75*
G03X22513Y-3260I-98J0D01*
G74*
G01*
X22673Y-24600D02*
G75*
G03X22673Y-24600I-98J0D01*
G74*
G01*
X23128Y-14400D02*
G75*
G03X23128Y-14400I-98J0D01*
G74*
G01*
X23783Y-18020D02*
G75*
G03X23783Y-18020I-98J0D01*
G74*
G01*
X24268Y-10210D02*
G75*
G03X24268Y-10210I-98J0D01*
G74*
G01*
X24513Y-19400D02*
G75*
G03X24513Y-19400I-98J0D01*
G74*
G01*
X24543Y-25980D02*
G75*
G03X24543Y-25980I-98J0D01*
G74*
G01*
X24695Y-22606D02*
G75*
G03X24695Y-22606I-98J0D01*
G74*
G01*
X24748Y-1800D02*
G75*
G03X24748Y-1800I-98J0D01*
G74*
G01*
X24778Y-9840D02*
G75*
G03X24778Y-9840I-98J0D01*
G74*
G01*
X25179Y-20982D02*
G75*
G03X25179Y-20982I-98J0D01*
G74*
G01*
X25438Y-29125D02*
G75*
G03X25438Y-29125I-98J0D01*
G74*
G01*
X25848Y-6900D02*
G75*
G03X25848Y-6900I-98J0D01*
G74*
G01*
X26213Y-15975D02*
G75*
G03X26213Y-15975I-98J0D01*
G74*
G01*
X26478Y-18145D02*
G75*
G03X26478Y-18145I-98J0D01*
G74*
G01*
X26673Y-25970D02*
G75*
G03X26673Y-25970I-98J0D01*
G74*
G01*
X27433Y-29220D02*
G75*
G03X27433Y-29220I-98J0D01*
G74*
G01*
X27563Y-13680D02*
G75*
G03X27563Y-13680I-98J0D01*
G74*
G01*
X27593Y-18300D02*
G75*
G03X27593Y-18300I-98J0D01*
G74*
G01*
X27751Y-24664D02*
G75*
G03X27751Y-24664I-98J0D01*
G74*
G01*
X27833Y-27485D02*
G75*
G03X27833Y-27485I-98J0D01*
G74*
G01*
X27873Y-23440D02*
G75*
G03X27873Y-23440I-98J0D01*
G74*
G01*
X28733Y-27850D02*
G75*
G03X28733Y-27850I-98J0D01*
G74*
G01*
X28858Y-22365D02*
G75*
G03X28858Y-22365I-98J0D01*
G74*
G01*
X28998Y-29700D02*
G75*
G03X28998Y-29700I-98J0D01*
G74*
G01*
X29238Y-21165D02*
G75*
G03X29238Y-21165I-98J0D01*
G74*
G01*
X29638Y-25765D02*
G75*
G03X29638Y-25765I-98J0D01*
G74*
G01*
X30098Y-23560D02*
G75*
G03X30098Y-23560I-98J0D01*
G74*
G01*
X30198Y-8600D02*
G75*
G03X30198Y-8600I-98J0D01*
G74*
G01*
X30765Y-24630D02*
G75*
G03X30765Y-24630I-98J0D01*
G74*
G01*
X30838Y-23535D02*
G75*
G03X30838Y-23535I-98J0D01*
G74*
G01*
X31998Y-18850D02*
G75*
G03X31998Y-18850I-98J0D01*
G74*
G01*
X32698Y-25565D02*
G75*
G03X32698Y-25565I-98J0D01*
G74*
G01*
X32983Y-23810D02*
G75*
G03X32983Y-23810I-98J0D01*
G74*
G01*
X36398Y-19200D02*
G75*
G03X36398Y-19200I-98J0D01*
G74*
G01*
X36773Y-28225D02*
G75*
G03X36773Y-28225I-98J0D01*
G74*
G01*
X38198Y-29050D02*
G75*
G03X38198Y-29050I-98J0D01*
G74*
G01*
X38348Y-1850D02*
G75*
G03X38348Y-1850I-98J0D01*
G74*
G01*
X38498Y-22700D02*
G75*
G03X38498Y-22700I-98J0D01*
G74*
G01*
X42648Y-26600D02*
G75*
G03X42648Y-26600I-98J0D01*
G74*
G01*
X51048Y-13050D02*
G75*
G03X51048Y-13050I-98J0D01*
G74*
G01*
X51148Y-18150D02*
G75*
G03X51148Y-18150I-98J0D01*
G74*
G01*
X52148Y-26550D02*
G75*
G03X52148Y-26550I-98J0D01*
G74*
G01*
X52448Y-21500D02*
G75*
G03X52448Y-21500I-98J0D01*
G74*
G01*
X52698Y-1700D02*
G75*
G03X52698Y-1700I-98J0D01*
G74*
G01*
X68098Y-26550D02*
G75*
G03X68098Y-26550I-98J0D01*
G74*
G01*
X68698Y-18050D02*
G75*
G03X68698Y-18050I-98J0D01*
G74*
G01*
X69698Y-21650D02*
G75*
G03X69698Y-21650I-98J0D01*
G74*
G01*
X80898Y-8850D02*
G75*
G03X80898Y-8850I-98J0D01*
G74*
G01*
X82048Y-8000D02*
G75*
G03X82048Y-8000I-98J0D01*
G74*
G01*
X85048Y-26500D02*
G75*
G03X85048Y-26500I-98J0D01*
G74*
G01*
X85648Y-18100D02*
G75*
G03X85648Y-18100I-98J0D01*
G74*
G01*
X86098Y-13200D02*
G75*
G03X86098Y-13200I-98J0D01*
G74*
G01*
X86483Y-21370D02*
G75*
G03X86483Y-21370I-98J0D01*
G74*
G01*
X86798Y-7400D02*
G75*
G03X86798Y-7400I-98J0D01*
G74*
G01*
X87498Y-7850D02*
G75*
G03X87498Y-7850I-98J0D01*
G74*
G01*
X89948Y-8900D02*
G75*
G03X89948Y-8900I-98J0D01*
G74*
G01*
X102648Y-26550D02*
G75*
G03X102648Y-26550I-98J0D01*
G74*
G01*
X103248Y-18200D02*
G75*
G03X103248Y-18200I-98J0D01*
G74*
G01*
X103683Y-5020D02*
G75*
G03X103683Y-5020I-98J0D01*
G74*
G01*
X104348Y-21800D02*
G75*
G03X104348Y-21800I-98J0D01*
G74*
G01*
X115498Y-8900D02*
G75*
G03X115498Y-8900I-98J0D01*
G74*
G01*
X117198Y-7700D02*
G75*
G03X117198Y-7700I-98J0D01*
G74*
G01*
X120648Y-26500D02*
G75*
G03X120648Y-26500I-98J0D01*
G74*
G01*
X120798Y-13100D02*
G75*
G03X120798Y-13100I-98J0D01*
G74*
G01*
X121198Y-18200D02*
G75*
G03X121198Y-18200I-98J0D01*
G74*
G01*
X121233Y-7370D02*
G75*
G03X121233Y-7370I-98J0D01*
G74*
G01*
X122083Y-21320D02*
G75*
G03X122083Y-21320I-98J0D01*
G74*
G01*
X122198Y-7900D02*
G75*
G03X122198Y-7900I-98J0D01*
G74*
G01*
X124648Y-8900D02*
G75*
G03X124648Y-8900I-98J0D01*
G74*
G01*
X125748Y-5100D02*
G75*
G03X125748Y-5100I-98J0D01*
G74*
G01*
X127248Y-5100D02*
G75*
G03X127248Y-5100I-98J0D01*
G74*
G01*
X134248Y-5050D02*
G75*
G03X134248Y-5050I-98J0D01*
G74*
G01*
X134248Y-7550D02*
G75*
G03X134248Y-7550I-98J0D01*
G74*
G01*
X137548Y-26550D02*
G75*
G03X137548Y-26550I-98J0D01*
G74*
G01*
X138148Y-18250D02*
G75*
G03X138148Y-18250I-98J0D01*
G74*
G01*
X138298Y-13100D02*
G75*
G03X138298Y-13100I-98J0D01*
G74*
G01*
X138848Y-7750D02*
G75*
G03X138848Y-7750I-98J0D01*
G74*
G01*
X139548Y-21500D02*
G75*
G03X139548Y-21500I-98J0D01*
G74*
G01*
X139623Y-7825D02*
G75*
G03X139623Y-7825I-98J0D01*
G74*
G01*
X141598Y-8950D02*
G75*
G03X141598Y-8950I-98J0D01*
G74*
G01*
X142248Y-5050D02*
G75*
G03X142248Y-5050I-98J0D01*
G74*
G01*
X143798Y-6300D02*
G75*
G03X143798Y-6300I-98J0D01*
G74*
G01*
X147198Y-5700D02*
G75*
G03X147198Y-5700I-98J0D01*
G74*
G01*
X148498Y-25600D02*
G75*
G03X148498Y-25600I-98J0D01*
G74*
G01*
X152448Y-25600D02*
G75*
G03X152448Y-25600I-98J0D01*
G74*
G01*
X155048Y-13450D02*
G75*
G03X155048Y-13450I-98J0D01*
G74*
G01*
X155198Y-25600D02*
G75*
G03X155198Y-25600I-98J0D01*
G74*
G01*
X155398Y-4300D02*
G75*
G03X155398Y-4300I-98J0D01*
G74*
G01*
X2850Y-22490D02*
X2850Y-22740D01*
X2725Y-22615D02*
X2975Y-22615D01*
X8685Y-12995D02*
X8685Y-13245D01*
X8560Y-13120D02*
X8810Y-13120D01*
X17485Y-13395D02*
X17485Y-13645D01*
X17360Y-13520D02*
X17610Y-13520D01*
X44450Y-6025D02*
X44450Y-6275D01*
X44325Y-6150D02*
X44575Y-6150D01*
X46735Y-8345D02*
X46735Y-8595D01*
X46610Y-8470D02*
X46860Y-8470D01*
X47200Y-7675D02*
X47200Y-7925D01*
X47075Y-7800D02*
X47325Y-7800D01*
X51950Y-7525D02*
X51950Y-7775D01*
X51825Y-7650D02*
X52075Y-7650D01*
X52300Y-5075D02*
X52300Y-5325D01*
X52175Y-5200D02*
X52425Y-5200D01*
X54635Y-4895D02*
X54635Y-5145D01*
X54510Y-5020D02*
X54760Y-5020D01*
X55835Y-5045D02*
X55835Y-5295D01*
X55710Y-5170D02*
X55960Y-5170D01*
X65235Y-7045D02*
X65235Y-7295D01*
X65110Y-7170D02*
X65360Y-7170D01*
X65335Y-5195D02*
X65335Y-5445D01*
X65210Y-5320D02*
X65460Y-5320D01*
X66585Y-7095D02*
X66585Y-7345D01*
X66460Y-7220D02*
X66710Y-7220D01*
X66635Y-4945D02*
X66635Y-5195D01*
X66510Y-5070D02*
X66760Y-5070D01*
X79485Y-1935D02*
X79485Y-2185D01*
X79360Y-2060D02*
X79610Y-2060D01*
X102235Y-7095D02*
X102235Y-7345D01*
X102110Y-7220D02*
X102360Y-7220D01*
X102285Y-4895D02*
X102285Y-5145D01*
X102160Y-5020D02*
X102410Y-5020D01*
X103685Y-7145D02*
X103685Y-7395D01*
X103560Y-7270D02*
X103810Y-7270D01*
X113675Y-2090D02*
X113675Y-2340D01*
X113550Y-2215D02*
X113800Y-2215D01*
X125785Y-6995D02*
X125785Y-7245D01*
X125660Y-7120D02*
X125910Y-7120D01*
X126985Y-6995D02*
X126985Y-7245D01*
X126860Y-7120D02*
X127110Y-7120D01*
X139685Y-4645D02*
X139685Y-4895D01*
X139560Y-4770D02*
X139810Y-4770D01*
X140985Y-4645D02*
X140985Y-4895D01*
X140860Y-4770D02*
X141110Y-4770D01*
X144635Y-3745D02*
X144635Y-3995D01*
X144510Y-3870D02*
X144760Y-3870D01*
X34005Y-25980D02*
X34005Y-25799D01*
X33824Y-25799D01*
X33824Y-25980D01*
X34005Y-25980D01*
X34005Y-26480D02*
X34005Y-26299D01*
X33824Y-26299D01*
X33824Y-26480D01*
X34005Y-26480D01*
X34005Y-26980D02*
X34005Y-26799D01*
X33824Y-26799D01*
X33824Y-26980D01*
X34005Y-26980D01*
X34005Y-27480D02*
X34005Y-27299D01*
X33824Y-27299D01*
X33824Y-27480D01*
X34005Y-27480D01*
X34005Y-27980D02*
X34005Y-27799D01*
X33824Y-27799D01*
X33824Y-27980D01*
X34005Y-27980D01*
X34505Y-25980D02*
X34505Y-25799D01*
X34324Y-25799D01*
X34324Y-25980D01*
X34505Y-25980D01*
X34505Y-26480D02*
X34505Y-26299D01*
X34324Y-26299D01*
X34324Y-26480D01*
X34505Y-26480D01*
X34505Y-26980D02*
X34505Y-26799D01*
X34324Y-26799D01*
X34324Y-26980D01*
X34505Y-26980D01*
X34505Y-27480D02*
X34505Y-27299D01*
X34324Y-27299D01*
X34324Y-27480D01*
X34505Y-27480D01*
X34505Y-27980D02*
X34505Y-27799D01*
X34324Y-27799D01*
X34324Y-27980D01*
X34505Y-27980D01*
X4035Y-4577D02*
X4192Y-4420D01*
X4035Y-4262D01*
X3877Y-4420D01*
X4035Y-4577D01*
X4035Y-10577D02*
X4192Y-10420D01*
X4035Y-10262D01*
X3877Y-10420D01*
X4035Y-10577D01*
X5035Y-4577D02*
X5192Y-4420D01*
X5035Y-4262D01*
X4877Y-4420D01*
X5035Y-4577D01*
X5035Y-10577D02*
X5192Y-10420D01*
X5035Y-10262D01*
X4877Y-10420D01*
X5035Y-10577D01*
X6035Y-4577D02*
X6192Y-4420D01*
X6035Y-4262D01*
X5877Y-4420D01*
X6035Y-4577D01*
X6035Y-10577D02*
X6192Y-10420D01*
X6035Y-10262D01*
X5877Y-10420D01*
X6035Y-10577D01*
X7035Y-4577D02*
X7192Y-4420D01*
X7035Y-4262D01*
X6877Y-4420D01*
X7035Y-4577D01*
X7035Y-10577D02*
X7192Y-10420D01*
X7035Y-10262D01*
X6877Y-10420D01*
X7035Y-10577D01*
X8035Y-4577D02*
X8192Y-4420D01*
X8035Y-4262D01*
X7877Y-4420D01*
X8035Y-4577D01*
X8035Y-10577D02*
X8192Y-10420D01*
X8035Y-10262D01*
X7877Y-10420D01*
X8035Y-10577D01*
X9035Y-4577D02*
X9192Y-4420D01*
X9035Y-4262D01*
X8877Y-4420D01*
X9035Y-4577D01*
X9035Y-10577D02*
X9192Y-10420D01*
X9035Y-10262D01*
X8877Y-10420D01*
X9035Y-10577D01*
X10035Y-4577D02*
X10192Y-4420D01*
X10035Y-4262D01*
X9877Y-4420D01*
X10035Y-4577D01*
X10035Y-10577D02*
X10192Y-10420D01*
X10035Y-10262D01*
X9877Y-10420D01*
X10035Y-10577D01*
X11035Y-4577D02*
X11192Y-4420D01*
X11035Y-4262D01*
X10877Y-4420D01*
X11035Y-4577D01*
X11035Y-10577D02*
X11192Y-10420D01*
X11035Y-10262D01*
X10877Y-10420D01*
X11035Y-10577D01*
X12035Y-4577D02*
X12192Y-4420D01*
X12035Y-4262D01*
X11877Y-4420D01*
X12035Y-4577D01*
X12035Y-10577D02*
X12192Y-10420D01*
X12035Y-10262D01*
X11877Y-10420D01*
X12035Y-10577D01*
X13035Y-4577D02*
X13192Y-4420D01*
X13035Y-4262D01*
X12877Y-4420D01*
X13035Y-4577D01*
X13035Y-10577D02*
X13192Y-10420D01*
X13035Y-10262D01*
X12877Y-10420D01*
X13035Y-10577D01*
X14035Y-4577D02*
X14192Y-4420D01*
X14035Y-4262D01*
X13877Y-4420D01*
X14035Y-4577D01*
X14035Y-10577D02*
X14192Y-10420D01*
X14035Y-10262D01*
X13877Y-10420D01*
X14035Y-10577D01*
X15035Y-4577D02*
X15192Y-4420D01*
X15035Y-4262D01*
X14877Y-4420D01*
X15035Y-4577D01*
X15035Y-10577D02*
X15192Y-10420D01*
X15035Y-10262D01*
X14877Y-10420D01*
X15035Y-10577D01*
X16035Y-4577D02*
X16192Y-4420D01*
X16035Y-4262D01*
X15877Y-4420D01*
X16035Y-4577D01*
X16035Y-10577D02*
X16192Y-10420D01*
X16035Y-10262D01*
X15877Y-10420D01*
X16035Y-10577D01*
X17035Y-4577D02*
X17192Y-4420D01*
X17035Y-4262D01*
X16877Y-4420D01*
X17035Y-4577D01*
X17035Y-10577D02*
X17192Y-10420D01*
X17035Y-10262D01*
X16877Y-10420D01*
X17035Y-10577D01*
X18035Y-4577D02*
X18192Y-4420D01*
X18035Y-4262D01*
X17877Y-4420D01*
X18035Y-4577D01*
X18035Y-10577D02*
X18192Y-10420D01*
X18035Y-10262D01*
X17877Y-10420D01*
X18035Y-10577D01*
X9075Y-13960D02*
X9395Y-14280D01*
X9395Y-13960D02*
X9075Y-14280D01*
X9395Y-14120D02*
G75*
G03X9395Y-14120I-160J0D01*
G74*
G01*
X9075Y-14960D02*
X9395Y-15280D01*
X9395Y-14960D02*
X9075Y-15280D01*
X9395Y-15120D02*
G75*
G03X9395Y-15120I-160J0D01*
G74*
G01*
X9075Y-17960D02*
X9395Y-18280D01*
X9395Y-17960D02*
X9075Y-18280D01*
X9395Y-18120D02*
G75*
G03X9395Y-18120I-160J0D01*
G74*
G01*
X9075Y-18960D02*
X9395Y-19280D01*
X9395Y-18960D02*
X9075Y-19280D01*
X9395Y-19120D02*
G75*
G03X9395Y-19120I-160J0D01*
G74*
G01*
X9075Y-21960D02*
X9395Y-22280D01*
X9395Y-21960D02*
X9075Y-22280D01*
X9395Y-22120D02*
G75*
G03X9395Y-22120I-160J0D01*
G74*
G01*
X9075Y-22960D02*
X9395Y-23280D01*
X9395Y-22960D02*
X9075Y-23280D01*
X9395Y-23120D02*
G75*
G03X9395Y-23120I-160J0D01*
G74*
G01*
X12075Y-13960D02*
X12395Y-14280D01*
X12395Y-13960D02*
X12075Y-14280D01*
X12395Y-14120D02*
G75*
G03X12395Y-14120I-160J0D01*
G74*
G01*
X12075Y-14960D02*
X12395Y-15280D01*
X12395Y-14960D02*
X12075Y-15280D01*
X12395Y-15120D02*
G75*
G03X12395Y-15120I-160J0D01*
G74*
G01*
X12075Y-17960D02*
X12395Y-18280D01*
X12395Y-17960D02*
X12075Y-18280D01*
X12395Y-18120D02*
G75*
G03X12395Y-18120I-160J0D01*
G74*
G01*
X12075Y-18960D02*
X12395Y-19280D01*
X12395Y-18960D02*
X12075Y-19280D01*
X12395Y-19120D02*
G75*
G03X12395Y-19120I-160J0D01*
G74*
G01*
X12075Y-21960D02*
X12395Y-22280D01*
X12395Y-21960D02*
X12075Y-22280D01*
X12395Y-22120D02*
G75*
G03X12395Y-22120I-160J0D01*
G74*
G01*
X12075Y-22960D02*
X12395Y-23280D01*
X12395Y-22960D02*
X12075Y-23280D01*
X12395Y-23120D02*
G75*
G03X12395Y-23120I-160J0D01*
G74*
G01*
X15075Y-13960D02*
X15395Y-14280D01*
X15395Y-13960D02*
X15075Y-14280D01*
X15395Y-14120D02*
G75*
G03X15395Y-14120I-160J0D01*
G74*
G01*
X15075Y-14960D02*
X15395Y-15280D01*
X15395Y-14960D02*
X15075Y-15280D01*
X15395Y-15120D02*
G75*
G03X15395Y-15120I-160J0D01*
G74*
G01*
X15075Y-17960D02*
X15395Y-18280D01*
X15395Y-17960D02*
X15075Y-18280D01*
X15395Y-18120D02*
G75*
G03X15395Y-18120I-160J0D01*
G74*
G01*
X15075Y-18960D02*
X15395Y-19280D01*
X15395Y-18960D02*
X15075Y-19280D01*
X15395Y-19120D02*
G75*
G03X15395Y-19120I-160J0D01*
G74*
G01*
X15075Y-21960D02*
X15395Y-22280D01*
X15395Y-21960D02*
X15075Y-22280D01*
X15395Y-22120D02*
G75*
G03X15395Y-22120I-160J0D01*
G74*
G01*
X15075Y-22960D02*
X15395Y-23280D01*
X15395Y-22960D02*
X15075Y-23280D01*
X15395Y-23120D02*
G75*
G03X15395Y-23120I-160J0D01*
G74*
G01*
X18075Y-13960D02*
X18395Y-14280D01*
X18395Y-13960D02*
X18075Y-14280D01*
X18395Y-14120D02*
G75*
G03X18395Y-14120I-160J0D01*
G74*
G01*
X18075Y-14960D02*
X18395Y-15280D01*
X18395Y-14960D02*
X18075Y-15280D01*
X18395Y-15120D02*
G75*
G03X18395Y-15120I-160J0D01*
G74*
G01*
X18075Y-17960D02*
X18395Y-18280D01*
X18395Y-17960D02*
X18075Y-18280D01*
X18395Y-18120D02*
G75*
G03X18395Y-18120I-160J0D01*
G74*
G01*
X18075Y-18960D02*
X18395Y-19280D01*
X18395Y-18960D02*
X18075Y-19280D01*
X18395Y-19120D02*
G75*
G03X18395Y-19120I-160J0D01*
G74*
G01*
X18075Y-21960D02*
X18395Y-22280D01*
X18395Y-21960D02*
X18075Y-22280D01*
X18395Y-22120D02*
G75*
G03X18395Y-22120I-160J0D01*
G74*
G01*
X18075Y-22960D02*
X18395Y-23280D01*
X18395Y-22960D02*
X18075Y-23280D01*
X18395Y-23120D02*
G75*
G03X18395Y-23120I-160J0D01*
G74*
G01*
X30027Y-27960D02*
X30347Y-28280D01*
X30347Y-27960D02*
X30027Y-28280D01*
X30347Y-28120D02*
G75*
G03X30347Y-28120I-160J0D01*
G74*
G01*
X30527Y-28960D02*
X30847Y-29280D01*
X30847Y-28960D02*
X30527Y-29280D01*
X30847Y-29120D02*
G75*
G03X30847Y-29120I-160J0D01*
G74*
G01*
X31027Y-27960D02*
X31347Y-28280D01*
X31347Y-27960D02*
X31027Y-28280D01*
X31347Y-28120D02*
G75*
G03X31347Y-28120I-160J0D01*
G74*
G01*
X31527Y-28960D02*
X31847Y-29280D01*
X31847Y-28960D02*
X31527Y-29280D01*
X31847Y-29120D02*
G75*
G03X31847Y-29120I-160J0D01*
G74*
G01*
X32027Y-27960D02*
X32347Y-28280D01*
X32347Y-27960D02*
X32027Y-28280D01*
X32347Y-28120D02*
G75*
G03X32347Y-28120I-160J0D01*
G74*
G01*
X32527Y-28960D02*
X32847Y-29280D01*
X32847Y-28960D02*
X32527Y-29280D01*
X32847Y-29120D02*
G75*
G03X32847Y-29120I-160J0D01*
G74*
G01*
X35788Y-17124D02*
X36108Y-17444D01*
X36108Y-17124D02*
X35788Y-17444D01*
X36108Y-17284D02*
G75*
G03X36108Y-17284I-160J0D01*
G74*
G01*
X36116Y-13996D02*
X36436Y-14316D01*
X36436Y-13996D02*
X36116Y-14316D01*
X36436Y-14156D02*
G75*
G03X36436Y-14156I-160J0D01*
G74*
G01*
X36778Y-16985D02*
X37098Y-17305D01*
X37098Y-16985D02*
X36778Y-17305D01*
X37098Y-17145D02*
G75*
G03X37098Y-17145I-160J0D01*
G74*
G01*
X36966Y-20040D02*
X37286Y-20360D01*
X37286Y-20040D02*
X36966Y-20360D01*
X37286Y-20200D02*
G75*
G03X37286Y-20200I-160J0D01*
G74*
G01*
X37056Y-14338D02*
X37376Y-14658D01*
X37376Y-14338D02*
X37056Y-14658D01*
X37376Y-14498D02*
G75*
G03X37376Y-14498I-160J0D01*
G74*
G01*
X37775Y-19452D02*
X38095Y-19772D01*
X38095Y-19452D02*
X37775Y-19772D01*
X38095Y-19612D02*
G75*
G03X38095Y-19612I-160J0D01*
G74*
G01*
X37875Y-11389D02*
X38195Y-11709D01*
X38195Y-11389D02*
X37875Y-11709D01*
X38195Y-11549D02*
G75*
G03X38195Y-11549I-160J0D01*
G74*
G01*
X38544Y-12132D02*
X38864Y-12452D01*
X38864Y-12132D02*
X38544Y-12452D01*
X38864Y-12292D02*
G75*
G03X38864Y-12292I-160J0D01*
G74*
G01*
X39375Y-22062D02*
X39695Y-22382D01*
X39695Y-22062D02*
X39375Y-22382D01*
X39695Y-22222D02*
G75*
G03X39695Y-22222I-160J0D01*
G74*
G01*
X39813Y-21163D02*
X40133Y-21483D01*
X40133Y-21163D02*
X39813Y-21483D01*
X40133Y-21323D02*
G75*
G03X40133Y-21323I-160J0D01*
G74*
G01*
X40652Y-9913D02*
X40972Y-10233D01*
X40972Y-9913D02*
X40652Y-10233D01*
X40972Y-10073D02*
G75*
G03X40972Y-10073I-160J0D01*
G74*
G01*
X40894Y-10883D02*
X41214Y-11203D01*
X41214Y-10883D02*
X40894Y-11203D01*
X41214Y-11043D02*
G75*
G03X41214Y-11043I-160J0D01*
G74*
G01*
X43555Y-10883D02*
X43875Y-11203D01*
X43875Y-10883D02*
X43555Y-11203D01*
X43875Y-11043D02*
G75*
G03X43875Y-11043I-160J0D01*
G74*
G01*
X43797Y-9913D02*
X44117Y-10233D01*
X44117Y-9913D02*
X43797Y-10233D01*
X44117Y-10073D02*
G75*
G03X44117Y-10073I-160J0D01*
G74*
G01*
X44636Y-21163D02*
X44956Y-21483D01*
X44956Y-21163D02*
X44636Y-21483D01*
X44956Y-21323D02*
G75*
G03X44956Y-21323I-160J0D01*
G74*
G01*
X45074Y-22062D02*
X45394Y-22382D01*
X45394Y-22062D02*
X45074Y-22382D01*
X45394Y-22222D02*
G75*
G03X45394Y-22222I-160J0D01*
G74*
G01*
X45905Y-12132D02*
X46225Y-12452D01*
X46225Y-12132D02*
X45905Y-12452D01*
X46225Y-12292D02*
G75*
G03X46225Y-12292I-160J0D01*
G74*
G01*
X46574Y-11389D02*
X46894Y-11709D01*
X46894Y-11389D02*
X46574Y-11709D01*
X46894Y-11549D02*
G75*
G03X46894Y-11549I-160J0D01*
G74*
G01*
X46674Y-19452D02*
X46994Y-19772D01*
X46994Y-19452D02*
X46674Y-19772D01*
X46994Y-19612D02*
G75*
G03X46994Y-19612I-160J0D01*
G74*
G01*
X47393Y-14338D02*
X47713Y-14658D01*
X47713Y-14338D02*
X47393Y-14658D01*
X47713Y-14498D02*
G75*
G03X47713Y-14498I-160J0D01*
G74*
G01*
X47483Y-20040D02*
X47803Y-20360D01*
X47803Y-20040D02*
X47483Y-20360D01*
X47803Y-20200D02*
G75*
G03X47803Y-20200I-160J0D01*
G74*
G01*
X47671Y-16985D02*
X47991Y-17305D01*
X47991Y-16985D02*
X47671Y-17305D01*
X47991Y-17145D02*
G75*
G03X47991Y-17145I-160J0D01*
G74*
G01*
X48333Y-13996D02*
X48653Y-14316D01*
X48653Y-13996D02*
X48333Y-14316D01*
X48653Y-14156D02*
G75*
G03X48653Y-14156I-160J0D01*
G74*
G01*
X48661Y-17124D02*
X48981Y-17444D01*
X48981Y-17124D02*
X48661Y-17444D01*
X48981Y-17284D02*
G75*
G03X48981Y-17284I-160J0D01*
G74*
G01*
X53188Y-17124D02*
X53508Y-17444D01*
X53508Y-17124D02*
X53188Y-17444D01*
X53508Y-17284D02*
G75*
G03X53508Y-17284I-160J0D01*
G74*
G01*
X53516Y-13996D02*
X53836Y-14316D01*
X53836Y-13996D02*
X53516Y-14316D01*
X53836Y-14156D02*
G75*
G03X53836Y-14156I-160J0D01*
G74*
G01*
X54178Y-16985D02*
X54498Y-17305D01*
X54498Y-16985D02*
X54178Y-17305D01*
X54498Y-17145D02*
G75*
G03X54498Y-17145I-160J0D01*
G74*
G01*
X54366Y-20040D02*
X54686Y-20360D01*
X54686Y-20040D02*
X54366Y-20360D01*
X54686Y-20200D02*
G75*
G03X54686Y-20200I-160J0D01*
G74*
G01*
X54456Y-14338D02*
X54776Y-14658D01*
X54776Y-14338D02*
X54456Y-14658D01*
X54776Y-14498D02*
G75*
G03X54776Y-14498I-160J0D01*
G74*
G01*
X55175Y-19452D02*
X55495Y-19772D01*
X55495Y-19452D02*
X55175Y-19772D01*
X55495Y-19612D02*
G75*
G03X55495Y-19612I-160J0D01*
G74*
G01*
X55275Y-11389D02*
X55595Y-11709D01*
X55595Y-11389D02*
X55275Y-11709D01*
X55595Y-11549D02*
G75*
G03X55595Y-11549I-160J0D01*
G74*
G01*
X55944Y-12132D02*
X56264Y-12452D01*
X56264Y-12132D02*
X55944Y-12452D01*
X56264Y-12292D02*
G75*
G03X56264Y-12292I-160J0D01*
G74*
G01*
X56775Y-22062D02*
X57095Y-22382D01*
X57095Y-22062D02*
X56775Y-22382D01*
X57095Y-22222D02*
G75*
G03X57095Y-22222I-160J0D01*
G74*
G01*
X57213Y-21163D02*
X57533Y-21483D01*
X57533Y-21163D02*
X57213Y-21483D01*
X57533Y-21323D02*
G75*
G03X57533Y-21323I-160J0D01*
G74*
G01*
X58052Y-9913D02*
X58372Y-10233D01*
X58372Y-9913D02*
X58052Y-10233D01*
X58372Y-10073D02*
G75*
G03X58372Y-10073I-160J0D01*
G74*
G01*
X58294Y-10883D02*
X58614Y-11203D01*
X58614Y-10883D02*
X58294Y-11203D01*
X58614Y-11043D02*
G75*
G03X58614Y-11043I-160J0D01*
G74*
G01*
X60955Y-10883D02*
X61275Y-11203D01*
X61275Y-10883D02*
X60955Y-11203D01*
X61275Y-11043D02*
G75*
G03X61275Y-11043I-160J0D01*
G74*
G01*
X61197Y-9913D02*
X61517Y-10233D01*
X61517Y-9913D02*
X61197Y-10233D01*
X61517Y-10073D02*
G75*
G03X61517Y-10073I-160J0D01*
G74*
G01*
X62036Y-21163D02*
X62356Y-21483D01*
X62356Y-21163D02*
X62036Y-21483D01*
X62356Y-21323D02*
G75*
G03X62356Y-21323I-160J0D01*
G74*
G01*
X62474Y-22062D02*
X62794Y-22382D01*
X62794Y-22062D02*
X62474Y-22382D01*
X62794Y-22222D02*
G75*
G03X62794Y-22222I-160J0D01*
G74*
G01*
X63305Y-12132D02*
X63625Y-12452D01*
X63625Y-12132D02*
X63305Y-12452D01*
X63625Y-12292D02*
G75*
G03X63625Y-12292I-160J0D01*
G74*
G01*
X63974Y-11389D02*
X64294Y-11709D01*
X64294Y-11389D02*
X63974Y-11709D01*
X64294Y-11549D02*
G75*
G03X64294Y-11549I-160J0D01*
G74*
G01*
X64074Y-19452D02*
X64394Y-19772D01*
X64394Y-19452D02*
X64074Y-19772D01*
X64394Y-19612D02*
G75*
G03X64394Y-19612I-160J0D01*
G74*
G01*
X64793Y-14338D02*
X65113Y-14658D01*
X65113Y-14338D02*
X64793Y-14658D01*
X65113Y-14498D02*
G75*
G03X65113Y-14498I-160J0D01*
G74*
G01*
X64883Y-20040D02*
X65203Y-20360D01*
X65203Y-20040D02*
X64883Y-20360D01*
X65203Y-20200D02*
G75*
G03X65203Y-20200I-160J0D01*
G74*
G01*
X65071Y-16985D02*
X65391Y-17305D01*
X65391Y-16985D02*
X65071Y-17305D01*
X65391Y-17145D02*
G75*
G03X65391Y-17145I-160J0D01*
G74*
G01*
X65733Y-13996D02*
X66053Y-14316D01*
X66053Y-13996D02*
X65733Y-14316D01*
X66053Y-14156D02*
G75*
G03X66053Y-14156I-160J0D01*
G74*
G01*
X66061Y-17124D02*
X66381Y-17444D01*
X66381Y-17124D02*
X66061Y-17444D01*
X66381Y-17284D02*
G75*
G03X66381Y-17284I-160J0D01*
G74*
G01*
X70588Y-17124D02*
X70908Y-17444D01*
X70908Y-17124D02*
X70588Y-17444D01*
X70908Y-17284D02*
G75*
G03X70908Y-17284I-160J0D01*
G74*
G01*
X70916Y-13996D02*
X71236Y-14316D01*
X71236Y-13996D02*
X70916Y-14316D01*
X71236Y-14156D02*
G75*
G03X71236Y-14156I-160J0D01*
G74*
G01*
X71578Y-16985D02*
X71898Y-17305D01*
X71898Y-16985D02*
X71578Y-17305D01*
X71898Y-17145D02*
G75*
G03X71898Y-17145I-160J0D01*
G74*
G01*
X71766Y-20040D02*
X72086Y-20360D01*
X72086Y-20040D02*
X71766Y-20360D01*
X72086Y-20200D02*
G75*
G03X72086Y-20200I-160J0D01*
G74*
G01*
X71856Y-14338D02*
X72176Y-14658D01*
X72176Y-14338D02*
X71856Y-14658D01*
X72176Y-14498D02*
G75*
G03X72176Y-14498I-160J0D01*
G74*
G01*
X72575Y-19452D02*
X72895Y-19772D01*
X72895Y-19452D02*
X72575Y-19772D01*
X72895Y-19612D02*
G75*
G03X72895Y-19612I-160J0D01*
G74*
G01*
X72675Y-11389D02*
X72995Y-11709D01*
X72995Y-11389D02*
X72675Y-11709D01*
X72995Y-11549D02*
G75*
G03X72995Y-11549I-160J0D01*
G74*
G01*
X73344Y-12132D02*
X73664Y-12452D01*
X73664Y-12132D02*
X73344Y-12452D01*
X73664Y-12292D02*
G75*
G03X73664Y-12292I-160J0D01*
G74*
G01*
X74175Y-22062D02*
X74495Y-22382D01*
X74495Y-22062D02*
X74175Y-22382D01*
X74495Y-22222D02*
G75*
G03X74495Y-22222I-160J0D01*
G74*
G01*
X74613Y-21163D02*
X74933Y-21483D01*
X74933Y-21163D02*
X74613Y-21483D01*
X74933Y-21323D02*
G75*
G03X74933Y-21323I-160J0D01*
G74*
G01*
X75452Y-9913D02*
X75772Y-10233D01*
X75772Y-9913D02*
X75452Y-10233D01*
X75772Y-10073D02*
G75*
G03X75772Y-10073I-160J0D01*
G74*
G01*
X75694Y-10883D02*
X76014Y-11203D01*
X76014Y-10883D02*
X75694Y-11203D01*
X76014Y-11043D02*
G75*
G03X76014Y-11043I-160J0D01*
G74*
G01*
X78355Y-10883D02*
X78675Y-11203D01*
X78675Y-10883D02*
X78355Y-11203D01*
X78675Y-11043D02*
G75*
G03X78675Y-11043I-160J0D01*
G74*
G01*
X78597Y-9913D02*
X78917Y-10233D01*
X78917Y-9913D02*
X78597Y-10233D01*
X78917Y-10073D02*
G75*
G03X78917Y-10073I-160J0D01*
G74*
G01*
X79436Y-21163D02*
X79756Y-21483D01*
X79756Y-21163D02*
X79436Y-21483D01*
X79756Y-21323D02*
G75*
G03X79756Y-21323I-160J0D01*
G74*
G01*
X79874Y-22062D02*
X80194Y-22382D01*
X80194Y-22062D02*
X79874Y-22382D01*
X80194Y-22222D02*
G75*
G03X80194Y-22222I-160J0D01*
G74*
G01*
X80705Y-12132D02*
X81025Y-12452D01*
X81025Y-12132D02*
X80705Y-12452D01*
X81025Y-12292D02*
G75*
G03X81025Y-12292I-160J0D01*
G74*
G01*
X81374Y-11389D02*
X81694Y-11709D01*
X81694Y-11389D02*
X81374Y-11709D01*
X81694Y-11549D02*
G75*
G03X81694Y-11549I-160J0D01*
G74*
G01*
X81474Y-19452D02*
X81794Y-19772D01*
X81794Y-19452D02*
X81474Y-19772D01*
X81794Y-19612D02*
G75*
G03X81794Y-19612I-160J0D01*
G74*
G01*
X82193Y-14338D02*
X82513Y-14658D01*
X82513Y-14338D02*
X82193Y-14658D01*
X82513Y-14498D02*
G75*
G03X82513Y-14498I-160J0D01*
G74*
G01*
X82283Y-20040D02*
X82603Y-20360D01*
X82603Y-20040D02*
X82283Y-20360D01*
X82603Y-20200D02*
G75*
G03X82603Y-20200I-160J0D01*
G74*
G01*
X82471Y-16985D02*
X82791Y-17305D01*
X82791Y-16985D02*
X82471Y-17305D01*
X82791Y-17145D02*
G75*
G03X82791Y-17145I-160J0D01*
G74*
G01*
X83133Y-13996D02*
X83453Y-14316D01*
X83453Y-13996D02*
X83133Y-14316D01*
X83453Y-14156D02*
G75*
G03X83453Y-14156I-160J0D01*
G74*
G01*
X83461Y-17124D02*
X83781Y-17444D01*
X83781Y-17124D02*
X83461Y-17444D01*
X83781Y-17284D02*
G75*
G03X83781Y-17284I-160J0D01*
G74*
G01*
X87988Y-17124D02*
X88308Y-17444D01*
X88308Y-17124D02*
X87988Y-17444D01*
X88308Y-17284D02*
G75*
G03X88308Y-17284I-160J0D01*
G74*
G01*
X88316Y-13996D02*
X88636Y-14316D01*
X88636Y-13996D02*
X88316Y-14316D01*
X88636Y-14156D02*
G75*
G03X88636Y-14156I-160J0D01*
G74*
G01*
X88978Y-16985D02*
X89298Y-17305D01*
X89298Y-16985D02*
X88978Y-17305D01*
X89298Y-17145D02*
G75*
G03X89298Y-17145I-160J0D01*
G74*
G01*
X89166Y-20040D02*
X89486Y-20360D01*
X89486Y-20040D02*
X89166Y-20360D01*
X89486Y-20200D02*
G75*
G03X89486Y-20200I-160J0D01*
G74*
G01*
X89256Y-14338D02*
X89576Y-14658D01*
X89576Y-14338D02*
X89256Y-14658D01*
X89576Y-14498D02*
G75*
G03X89576Y-14498I-160J0D01*
G74*
G01*
X89975Y-19452D02*
X90295Y-19772D01*
X90295Y-19452D02*
X89975Y-19772D01*
X90295Y-19612D02*
G75*
G03X90295Y-19612I-160J0D01*
G74*
G01*
X90075Y-11389D02*
X90395Y-11709D01*
X90395Y-11389D02*
X90075Y-11709D01*
X90395Y-11549D02*
G75*
G03X90395Y-11549I-160J0D01*
G74*
G01*
X90744Y-12132D02*
X91064Y-12452D01*
X91064Y-12132D02*
X90744Y-12452D01*
X91064Y-12292D02*
G75*
G03X91064Y-12292I-160J0D01*
G74*
G01*
X91575Y-22062D02*
X91895Y-22382D01*
X91895Y-22062D02*
X91575Y-22382D01*
X91895Y-22222D02*
G75*
G03X91895Y-22222I-160J0D01*
G74*
G01*
X92013Y-21163D02*
X92333Y-21483D01*
X92333Y-21163D02*
X92013Y-21483D01*
X92333Y-21323D02*
G75*
G03X92333Y-21323I-160J0D01*
G74*
G01*
X92852Y-9913D02*
X93172Y-10233D01*
X93172Y-9913D02*
X92852Y-10233D01*
X93172Y-10073D02*
G75*
G03X93172Y-10073I-160J0D01*
G74*
G01*
X93094Y-10883D02*
X93414Y-11203D01*
X93414Y-10883D02*
X93094Y-11203D01*
X93414Y-11043D02*
G75*
G03X93414Y-11043I-160J0D01*
G74*
G01*
X95755Y-10883D02*
X96075Y-11203D01*
X96075Y-10883D02*
X95755Y-11203D01*
X96075Y-11043D02*
G75*
G03X96075Y-11043I-160J0D01*
G74*
G01*
X95997Y-9913D02*
X96317Y-10233D01*
X96317Y-9913D02*
X95997Y-10233D01*
X96317Y-10073D02*
G75*
G03X96317Y-10073I-160J0D01*
G74*
G01*
X96836Y-21163D02*
X97156Y-21483D01*
X97156Y-21163D02*
X96836Y-21483D01*
X97156Y-21323D02*
G75*
G03X97156Y-21323I-160J0D01*
G74*
G01*
X97274Y-22062D02*
X97594Y-22382D01*
X97594Y-22062D02*
X97274Y-22382D01*
X97594Y-22222D02*
G75*
G03X97594Y-22222I-160J0D01*
G74*
G01*
X98105Y-12132D02*
X98425Y-12452D01*
X98425Y-12132D02*
X98105Y-12452D01*
X98425Y-12292D02*
G75*
G03X98425Y-12292I-160J0D01*
G74*
G01*
X98774Y-11389D02*
X99094Y-11709D01*
X99094Y-11389D02*
X98774Y-11709D01*
X99094Y-11549D02*
G75*
G03X99094Y-11549I-160J0D01*
G74*
G01*
X98874Y-19452D02*
X99194Y-19772D01*
X99194Y-19452D02*
X98874Y-19772D01*
X99194Y-19612D02*
G75*
G03X99194Y-19612I-160J0D01*
G74*
G01*
X99593Y-14338D02*
X99913Y-14658D01*
X99913Y-14338D02*
X99593Y-14658D01*
X99913Y-14498D02*
G75*
G03X99913Y-14498I-160J0D01*
G74*
G01*
X99683Y-20040D02*
X100003Y-20360D01*
X100003Y-20040D02*
X99683Y-20360D01*
X100003Y-20200D02*
G75*
G03X100003Y-20200I-160J0D01*
G74*
G01*
X99871Y-16985D02*
X100191Y-17305D01*
X100191Y-16985D02*
X99871Y-17305D01*
X100191Y-17145D02*
G75*
G03X100191Y-17145I-160J0D01*
G74*
G01*
X100533Y-13996D02*
X100853Y-14316D01*
X100853Y-13996D02*
X100533Y-14316D01*
X100853Y-14156D02*
G75*
G03X100853Y-14156I-160J0D01*
G74*
G01*
X100861Y-17124D02*
X101181Y-17444D01*
X101181Y-17124D02*
X100861Y-17444D01*
X101181Y-17284D02*
G75*
G03X101181Y-17284I-160J0D01*
G74*
G01*
X105388Y-17124D02*
X105708Y-17444D01*
X105708Y-17124D02*
X105388Y-17444D01*
X105708Y-17284D02*
G75*
G03X105708Y-17284I-160J0D01*
G74*
G01*
X105716Y-13996D02*
X106036Y-14316D01*
X106036Y-13996D02*
X105716Y-14316D01*
X106036Y-14156D02*
G75*
G03X106036Y-14156I-160J0D01*
G74*
G01*
X106378Y-16985D02*
X106698Y-17305D01*
X106698Y-16985D02*
X106378Y-17305D01*
X106698Y-17145D02*
G75*
G03X106698Y-17145I-160J0D01*
G74*
G01*
X106566Y-20040D02*
X106886Y-20360D01*
X106886Y-20040D02*
X106566Y-20360D01*
X106886Y-20200D02*
G75*
G03X106886Y-20200I-160J0D01*
G74*
G01*
X106656Y-14338D02*
X106976Y-14658D01*
X106976Y-14338D02*
X106656Y-14658D01*
X106976Y-14498D02*
G75*
G03X106976Y-14498I-160J0D01*
G74*
G01*
X107375Y-19452D02*
X107695Y-19772D01*
X107695Y-19452D02*
X107375Y-19772D01*
X107695Y-19612D02*
G75*
G03X107695Y-19612I-160J0D01*
G74*
G01*
X107475Y-11389D02*
X107795Y-11709D01*
X107795Y-11389D02*
X107475Y-11709D01*
X107795Y-11549D02*
G75*
G03X107795Y-11549I-160J0D01*
G74*
G01*
X108144Y-12132D02*
X108464Y-12452D01*
X108464Y-12132D02*
X108144Y-12452D01*
X108464Y-12292D02*
G75*
G03X108464Y-12292I-160J0D01*
G74*
G01*
X108975Y-22062D02*
X109295Y-22382D01*
X109295Y-22062D02*
X108975Y-22382D01*
X109295Y-22222D02*
G75*
G03X109295Y-22222I-160J0D01*
G74*
G01*
X109413Y-21163D02*
X109733Y-21483D01*
X109733Y-21163D02*
X109413Y-21483D01*
X109733Y-21323D02*
G75*
G03X109733Y-21323I-160J0D01*
G74*
G01*
X110252Y-9913D02*
X110572Y-10233D01*
X110572Y-9913D02*
X110252Y-10233D01*
X110572Y-10073D02*
G75*
G03X110572Y-10073I-160J0D01*
G74*
G01*
X110494Y-10883D02*
X110814Y-11203D01*
X110814Y-10883D02*
X110494Y-11203D01*
X110814Y-11043D02*
G75*
G03X110814Y-11043I-160J0D01*
G74*
G01*
X113155Y-10883D02*
X113475Y-11203D01*
X113475Y-10883D02*
X113155Y-11203D01*
X113475Y-11043D02*
G75*
G03X113475Y-11043I-160J0D01*
G74*
G01*
X113397Y-9913D02*
X113717Y-10233D01*
X113717Y-9913D02*
X113397Y-10233D01*
X113717Y-10073D02*
G75*
G03X113717Y-10073I-160J0D01*
G74*
G01*
X114236Y-21163D02*
X114556Y-21483D01*
X114556Y-21163D02*
X114236Y-21483D01*
X114556Y-21323D02*
G75*
G03X114556Y-21323I-160J0D01*
G74*
G01*
X114674Y-22062D02*
X114994Y-22382D01*
X114994Y-22062D02*
X114674Y-22382D01*
X114994Y-22222D02*
G75*
G03X114994Y-22222I-160J0D01*
G74*
G01*
X115505Y-12132D02*
X115825Y-12452D01*
X115825Y-12132D02*
X115505Y-12452D01*
X115825Y-12292D02*
G75*
G03X115825Y-12292I-160J0D01*
G74*
G01*
X116174Y-11389D02*
X116494Y-11709D01*
X116494Y-11389D02*
X116174Y-11709D01*
X116494Y-11549D02*
G75*
G03X116494Y-11549I-160J0D01*
G74*
G01*
X116274Y-19452D02*
X116594Y-19772D01*
X116594Y-19452D02*
X116274Y-19772D01*
X116594Y-19612D02*
G75*
G03X116594Y-19612I-160J0D01*
G74*
G01*
X116993Y-14338D02*
X117313Y-14658D01*
X117313Y-14338D02*
X116993Y-14658D01*
X117313Y-14498D02*
G75*
G03X117313Y-14498I-160J0D01*
G74*
G01*
X117083Y-20040D02*
X117403Y-20360D01*
X117403Y-20040D02*
X117083Y-20360D01*
X117403Y-20200D02*
G75*
G03X117403Y-20200I-160J0D01*
G74*
G01*
X117271Y-16985D02*
X117591Y-17305D01*
X117591Y-16985D02*
X117271Y-17305D01*
X117591Y-17145D02*
G75*
G03X117591Y-17145I-160J0D01*
G74*
G01*
X117933Y-13996D02*
X118253Y-14316D01*
X118253Y-13996D02*
X117933Y-14316D01*
X118253Y-14156D02*
G75*
G03X118253Y-14156I-160J0D01*
G74*
G01*
X118261Y-17124D02*
X118581Y-17444D01*
X118581Y-17124D02*
X118261Y-17444D01*
X118581Y-17284D02*
G75*
G03X118581Y-17284I-160J0D01*
G74*
G01*
X122788Y-17124D02*
X123108Y-17444D01*
X123108Y-17124D02*
X122788Y-17444D01*
X123108Y-17284D02*
G75*
G03X123108Y-17284I-160J0D01*
G74*
G01*
X123116Y-13996D02*
X123436Y-14316D01*
X123436Y-13996D02*
X123116Y-14316D01*
X123436Y-14156D02*
G75*
G03X123436Y-14156I-160J0D01*
G74*
G01*
X123778Y-16985D02*
X124098Y-17305D01*
X124098Y-16985D02*
X123778Y-17305D01*
X124098Y-17145D02*
G75*
G03X124098Y-17145I-160J0D01*
G74*
G01*
X123966Y-20040D02*
X124286Y-20360D01*
X124286Y-20040D02*
X123966Y-20360D01*
X124286Y-20200D02*
G75*
G03X124286Y-20200I-160J0D01*
G74*
G01*
X124056Y-14338D02*
X124376Y-14658D01*
X124376Y-14338D02*
X124056Y-14658D01*
X124376Y-14498D02*
G75*
G03X124376Y-14498I-160J0D01*
G74*
G01*
X124775Y-19452D02*
X125095Y-19772D01*
X125095Y-19452D02*
X124775Y-19772D01*
X125095Y-19612D02*
G75*
G03X125095Y-19612I-160J0D01*
G74*
G01*
X124875Y-11389D02*
X125195Y-11709D01*
X125195Y-11389D02*
X124875Y-11709D01*
X125195Y-11549D02*
G75*
G03X125195Y-11549I-160J0D01*
G74*
G01*
X125544Y-12132D02*
X125864Y-12452D01*
X125864Y-12132D02*
X125544Y-12452D01*
X125864Y-12292D02*
G75*
G03X125864Y-12292I-160J0D01*
G74*
G01*
X126375Y-22062D02*
X126695Y-22382D01*
X126695Y-22062D02*
X126375Y-22382D01*
X126695Y-22222D02*
G75*
G03X126695Y-22222I-160J0D01*
G74*
G01*
X126813Y-21163D02*
X127133Y-21483D01*
X127133Y-21163D02*
X126813Y-21483D01*
X127133Y-21323D02*
G75*
G03X127133Y-21323I-160J0D01*
G74*
G01*
X127652Y-9913D02*
X127972Y-10233D01*
X127972Y-9913D02*
X127652Y-10233D01*
X127972Y-10073D02*
G75*
G03X127972Y-10073I-160J0D01*
G74*
G01*
X127894Y-10883D02*
X128214Y-11203D01*
X128214Y-10883D02*
X127894Y-11203D01*
X128214Y-11043D02*
G75*
G03X128214Y-11043I-160J0D01*
G74*
G01*
X130555Y-10883D02*
X130875Y-11203D01*
X130875Y-10883D02*
X130555Y-11203D01*
X130875Y-11043D02*
G75*
G03X130875Y-11043I-160J0D01*
G74*
G01*
X130797Y-9913D02*
X131117Y-10233D01*
X131117Y-9913D02*
X130797Y-10233D01*
X131117Y-10073D02*
G75*
G03X131117Y-10073I-160J0D01*
G74*
G01*
X131636Y-21163D02*
X131956Y-21483D01*
X131956Y-21163D02*
X131636Y-21483D01*
X131956Y-21323D02*
G75*
G03X131956Y-21323I-160J0D01*
G74*
G01*
X132074Y-22062D02*
X132394Y-22382D01*
X132394Y-22062D02*
X132074Y-22382D01*
X132394Y-22222D02*
G75*
G03X132394Y-22222I-160J0D01*
G74*
G01*
X132905Y-12132D02*
X133225Y-12452D01*
X133225Y-12132D02*
X132905Y-12452D01*
X133225Y-12292D02*
G75*
G03X133225Y-12292I-160J0D01*
G74*
G01*
X133574Y-11389D02*
X133894Y-11709D01*
X133894Y-11389D02*
X133574Y-11709D01*
X133894Y-11549D02*
G75*
G03X133894Y-11549I-160J0D01*
G74*
G01*
X133674Y-19452D02*
X133994Y-19772D01*
X133994Y-19452D02*
X133674Y-19772D01*
X133994Y-19612D02*
G75*
G03X133994Y-19612I-160J0D01*
G74*
G01*
X134393Y-14338D02*
X134713Y-14658D01*
X134713Y-14338D02*
X134393Y-14658D01*
X134713Y-14498D02*
G75*
G03X134713Y-14498I-160J0D01*
G74*
G01*
X134483Y-20040D02*
X134803Y-20360D01*
X134803Y-20040D02*
X134483Y-20360D01*
X134803Y-20200D02*
G75*
G03X134803Y-20200I-160J0D01*
G74*
G01*
X134671Y-16985D02*
X134991Y-17305D01*
X134991Y-16985D02*
X134671Y-17305D01*
X134991Y-17145D02*
G75*
G03X134991Y-17145I-160J0D01*
G74*
G01*
X135333Y-13996D02*
X135653Y-14316D01*
X135653Y-13996D02*
X135333Y-14316D01*
X135653Y-14156D02*
G75*
G03X135653Y-14156I-160J0D01*
G74*
G01*
X135661Y-17124D02*
X135981Y-17444D01*
X135981Y-17124D02*
X135661Y-17444D01*
X135981Y-17284D02*
G75*
G03X135981Y-17284I-160J0D01*
G74*
G01*
X140188Y-17124D02*
X140508Y-17444D01*
X140508Y-17124D02*
X140188Y-17444D01*
X140508Y-17284D02*
G75*
G03X140508Y-17284I-160J0D01*
G74*
G01*
X140516Y-13996D02*
X140836Y-14316D01*
X140836Y-13996D02*
X140516Y-14316D01*
X140836Y-14156D02*
G75*
G03X140836Y-14156I-160J0D01*
G74*
G01*
X141178Y-16985D02*
X141498Y-17305D01*
X141498Y-16985D02*
X141178Y-17305D01*
X141498Y-17145D02*
G75*
G03X141498Y-17145I-160J0D01*
G74*
G01*
X141366Y-20040D02*
X141686Y-20360D01*
X141686Y-20040D02*
X141366Y-20360D01*
X141686Y-20200D02*
G75*
G03X141686Y-20200I-160J0D01*
G74*
G01*
X141456Y-14338D02*
X141776Y-14658D01*
X141776Y-14338D02*
X141456Y-14658D01*
X141776Y-14498D02*
G75*
G03X141776Y-14498I-160J0D01*
G74*
G01*
X142175Y-19452D02*
X142495Y-19772D01*
X142495Y-19452D02*
X142175Y-19772D01*
X142495Y-19612D02*
G75*
G03X142495Y-19612I-160J0D01*
G74*
G01*
X142275Y-11389D02*
X142595Y-11709D01*
X142595Y-11389D02*
X142275Y-11709D01*
X142595Y-11549D02*
G75*
G03X142595Y-11549I-160J0D01*
G74*
G01*
X142944Y-12132D02*
X143264Y-12452D01*
X143264Y-12132D02*
X142944Y-12452D01*
X143264Y-12292D02*
G75*
G03X143264Y-12292I-160J0D01*
G74*
G01*
X143775Y-22062D02*
X144095Y-22382D01*
X144095Y-22062D02*
X143775Y-22382D01*
X144095Y-22222D02*
G75*
G03X144095Y-22222I-160J0D01*
G74*
G01*
X144213Y-21163D02*
X144533Y-21483D01*
X144533Y-21163D02*
X144213Y-21483D01*
X144533Y-21323D02*
G75*
G03X144533Y-21323I-160J0D01*
G74*
G01*
X145052Y-9913D02*
X145372Y-10233D01*
X145372Y-9913D02*
X145052Y-10233D01*
X145372Y-10073D02*
G75*
G03X145372Y-10073I-160J0D01*
G74*
G01*
X145294Y-10883D02*
X145614Y-11203D01*
X145614Y-10883D02*
X145294Y-11203D01*
X145614Y-11043D02*
G75*
G03X145614Y-11043I-160J0D01*
G74*
G01*
X147955Y-10883D02*
X148275Y-11203D01*
X148275Y-10883D02*
X147955Y-11203D01*
X148275Y-11043D02*
G75*
G03X148275Y-11043I-160J0D01*
G74*
G01*
X148197Y-9913D02*
X148517Y-10233D01*
X148517Y-9913D02*
X148197Y-10233D01*
X148517Y-10073D02*
G75*
G03X148517Y-10073I-160J0D01*
G74*
G01*
X149036Y-21163D02*
X149356Y-21483D01*
X149356Y-21163D02*
X149036Y-21483D01*
X149356Y-21323D02*
G75*
G03X149356Y-21323I-160J0D01*
G74*
G01*
X149474Y-22062D02*
X149794Y-22382D01*
X149794Y-22062D02*
X149474Y-22382D01*
X149794Y-22222D02*
G75*
G03X149794Y-22222I-160J0D01*
G74*
G01*
X150305Y-12132D02*
X150625Y-12452D01*
X150625Y-12132D02*
X150305Y-12452D01*
X150625Y-12292D02*
G75*
G03X150625Y-12292I-160J0D01*
G74*
G01*
X150974Y-11389D02*
X151294Y-11709D01*
X151294Y-11389D02*
X150974Y-11709D01*
X151294Y-11549D02*
G75*
G03X151294Y-11549I-160J0D01*
G74*
G01*
X151074Y-19452D02*
X151394Y-19772D01*
X151394Y-19452D02*
X151074Y-19772D01*
X151394Y-19612D02*
G75*
G03X151394Y-19612I-160J0D01*
G74*
G01*
X151793Y-14338D02*
X152113Y-14658D01*
X152113Y-14338D02*
X151793Y-14658D01*
X152113Y-14498D02*
G75*
G03X152113Y-14498I-160J0D01*
G74*
G01*
X151883Y-20040D02*
X152203Y-20360D01*
X152203Y-20040D02*
X151883Y-20360D01*
X152203Y-20200D02*
G75*
G03X152203Y-20200I-160J0D01*
G74*
G01*
X152071Y-16985D02*
X152391Y-17305D01*
X152391Y-16985D02*
X152071Y-17305D01*
X152391Y-17145D02*
G75*
G03X152391Y-17145I-160J0D01*
G74*
G01*
X152733Y-13996D02*
X153053Y-14316D01*
X153053Y-13996D02*
X152733Y-14316D01*
X153053Y-14156D02*
G75*
G03X153053Y-14156I-160J0D01*
G74*
G01*
X153061Y-17124D02*
X153381Y-17444D01*
X153381Y-17124D02*
X153061Y-17444D01*
X153381Y-17284D02*
G75*
G03X153381Y-17284I-160J0D01*
G74*
G01*
X4153Y-13144D02*
X4546Y-13537D01*
X4546Y-13144D02*
X4153Y-13537D01*
X4350Y-13144D02*
X4350Y-13537D01*
X4153Y-13341D02*
X4546Y-13341D01*
X4153Y-15702D02*
X4546Y-16095D01*
X4546Y-15702D02*
X4153Y-16095D01*
X4350Y-15702D02*
X4350Y-16095D01*
X4153Y-15899D02*
X4546Y-15899D01*
X4153Y-17144D02*
X4546Y-17537D01*
X4546Y-17144D02*
X4153Y-17537D01*
X4350Y-17144D02*
X4350Y-17537D01*
X4153Y-17341D02*
X4546Y-17341D01*
X4153Y-19702D02*
X4546Y-20095D01*
X4546Y-19702D02*
X4153Y-20095D01*
X4350Y-19702D02*
X4350Y-20095D01*
X4153Y-19899D02*
X4546Y-19899D01*
X4153Y-21144D02*
X4546Y-21537D01*
X4546Y-21144D02*
X4153Y-21537D01*
X4350Y-21144D02*
X4350Y-21537D01*
X4153Y-21341D02*
X4546Y-21341D01*
X4153Y-23702D02*
X4546Y-24095D01*
X4546Y-23702D02*
X4153Y-24095D01*
X4350Y-23702D02*
X4350Y-24095D01*
X4153Y-23899D02*
X4546Y-23899D01*
X5923Y-13144D02*
X6316Y-13537D01*
X6316Y-13144D02*
X5923Y-13537D01*
X6120Y-13144D02*
X6120Y-13537D01*
X5923Y-13341D02*
X6316Y-13341D01*
X5923Y-15702D02*
X6316Y-16095D01*
X6316Y-15702D02*
X5923Y-16095D01*
X6120Y-15702D02*
X6120Y-16095D01*
X5923Y-15899D02*
X6316Y-15899D01*
X5923Y-17144D02*
X6316Y-17537D01*
X6316Y-17144D02*
X5923Y-17537D01*
X6120Y-17144D02*
X6120Y-17537D01*
X5923Y-17341D02*
X6316Y-17341D01*
X5923Y-19702D02*
X6316Y-20095D01*
X6316Y-19702D02*
X5923Y-20095D01*
X6120Y-19702D02*
X6120Y-20095D01*
X5923Y-19899D02*
X6316Y-19899D01*
X5923Y-21144D02*
X6316Y-21537D01*
X6316Y-21144D02*
X5923Y-21537D01*
X6120Y-21144D02*
X6120Y-21537D01*
X5923Y-21341D02*
X6316Y-21341D01*
X5923Y-23702D02*
X6316Y-24095D01*
X6316Y-23702D02*
X5923Y-24095D01*
X6120Y-23702D02*
X6120Y-24095D01*
X5923Y-23899D02*
X6316Y-23899D01*
X26403Y-2944D02*
X26796Y-3337D01*
X26796Y-2944D02*
X26403Y-3337D01*
X26600Y-2944D02*
X26600Y-3337D01*
X26403Y-3141D02*
X26796Y-3141D01*
X26403Y-5502D02*
X26796Y-5895D01*
X26796Y-5502D02*
X26403Y-5895D01*
X26600Y-5502D02*
X26600Y-5895D01*
X26403Y-5699D02*
X26796Y-5699D01*
X26403Y-7894D02*
X26796Y-8287D01*
X26796Y-7894D02*
X26403Y-8287D01*
X26600Y-7894D02*
X26600Y-8287D01*
X26403Y-8091D02*
X26796Y-8091D01*
X26403Y-10452D02*
X26796Y-10845D01*
X26796Y-10452D02*
X26403Y-10845D01*
X26600Y-10452D02*
X26600Y-10845D01*
X26403Y-10649D02*
X26796Y-10649D01*
X28173Y-2944D02*
X28566Y-3337D01*
X28566Y-2944D02*
X28173Y-3337D01*
X28370Y-2944D02*
X28370Y-3337D01*
X28173Y-3141D02*
X28566Y-3141D01*
X28173Y-5502D02*
X28566Y-5895D01*
X28566Y-5502D02*
X28173Y-5895D01*
X28370Y-5502D02*
X28370Y-5895D01*
X28173Y-5699D02*
X28566Y-5699D01*
X28173Y-7894D02*
X28566Y-8287D01*
X28566Y-7894D02*
X28173Y-8287D01*
X28370Y-7894D02*
X28370Y-8287D01*
X28173Y-8091D02*
X28566Y-8091D01*
X28173Y-10452D02*
X28566Y-10845D01*
X28566Y-10452D02*
X28173Y-10845D01*
X28370Y-10452D02*
X28370Y-10845D01*
X28173Y-10649D02*
X28566Y-10649D01*
X31509Y-3338D02*
X31902Y-3731D01*
X31902Y-3338D02*
X31509Y-3731D01*
X31706Y-3338D02*
X31706Y-3731D01*
X31509Y-3535D02*
X31902Y-3535D01*
X31509Y-5108D02*
X31902Y-5501D01*
X31902Y-5108D02*
X31509Y-5501D01*
X31706Y-5108D02*
X31706Y-5501D01*
X31509Y-5305D02*
X31902Y-5305D01*
X34067Y-3338D02*
X34460Y-3731D01*
X34460Y-3338D02*
X34067Y-3731D01*
X34264Y-3338D02*
X34264Y-3731D01*
X34067Y-3535D02*
X34460Y-3535D01*
X34067Y-5108D02*
X34460Y-5501D01*
X34460Y-5108D02*
X34067Y-5501D01*
X34264Y-5108D02*
X34264Y-5501D01*
X34067Y-5305D02*
X34460Y-5305D01*
X37009Y-3288D02*
X37402Y-3681D01*
X37402Y-3288D02*
X37009Y-3681D01*
X37206Y-3288D02*
X37206Y-3681D01*
X37009Y-3485D02*
X37402Y-3485D01*
X37009Y-5058D02*
X37402Y-5451D01*
X37402Y-5058D02*
X37009Y-5451D01*
X37206Y-5058D02*
X37206Y-5451D01*
X37009Y-5255D02*
X37402Y-5255D01*
X39567Y-3288D02*
X39960Y-3681D01*
X39960Y-3288D02*
X39567Y-3681D01*
X39764Y-3288D02*
X39764Y-3681D01*
X39567Y-3485D02*
X39960Y-3485D01*
X39567Y-5058D02*
X39960Y-5451D01*
X39960Y-5058D02*
X39567Y-5451D01*
X39764Y-5058D02*
X39764Y-5451D01*
X39567Y-5255D02*
X39960Y-5255D01*
X42509Y-3338D02*
X42902Y-3731D01*
X42902Y-3338D02*
X42509Y-3731D01*
X42706Y-3338D02*
X42706Y-3731D01*
X42509Y-3535D02*
X42902Y-3535D01*
X42509Y-5108D02*
X42902Y-5501D01*
X42902Y-5108D02*
X42509Y-5501D01*
X42706Y-5108D02*
X42706Y-5501D01*
X42509Y-5305D02*
X42902Y-5305D01*
X45067Y-3338D02*
X45460Y-3731D01*
X45460Y-3338D02*
X45067Y-3731D01*
X45264Y-3338D02*
X45264Y-3731D01*
X45067Y-3535D02*
X45460Y-3535D01*
X45067Y-5108D02*
X45460Y-5501D01*
X45460Y-5108D02*
X45067Y-5501D01*
X45264Y-5108D02*
X45264Y-5501D01*
X45067Y-5305D02*
X45460Y-5305D01*
X48009Y-3338D02*
X48402Y-3731D01*
X48402Y-3338D02*
X48009Y-3731D01*
X48206Y-3338D02*
X48206Y-3731D01*
X48009Y-3535D02*
X48402Y-3535D01*
X48009Y-5108D02*
X48402Y-5501D01*
X48402Y-5108D02*
X48009Y-5501D01*
X48206Y-5108D02*
X48206Y-5501D01*
X48009Y-5305D02*
X48402Y-5305D01*
X50567Y-3338D02*
X50960Y-3731D01*
X50960Y-3338D02*
X50567Y-3731D01*
X50764Y-3338D02*
X50764Y-3731D01*
X50567Y-3535D02*
X50960Y-3535D01*
X50567Y-5108D02*
X50960Y-5501D01*
X50960Y-5108D02*
X50567Y-5501D01*
X50764Y-5108D02*
X50764Y-5501D01*
X50567Y-5305D02*
X50960Y-5305D01*
X16898Y-12493D02*
X17291Y-12886D01*
X17291Y-12493D02*
X16898Y-12886D01*
X17234Y-12829D02*
X17234Y-12550D01*
X16955Y-12550D01*
X16955Y-12829D01*
X17234Y-12829D01*
X18940Y-23851D02*
X19333Y-24244D01*
X19333Y-23851D02*
X18940Y-24244D01*
X19276Y-24187D02*
X19276Y-23908D01*
X18997Y-23908D01*
X18997Y-24187D01*
X19276Y-24187D01*
X19988Y-3823D02*
X20381Y-4216D01*
X20381Y-3823D02*
X19988Y-4216D01*
X20324Y-4159D02*
X20324Y-3880D01*
X20045Y-3880D01*
X20045Y-4159D01*
X20324Y-4159D01*
X20288Y-14703D02*
X20681Y-15096D01*
X20681Y-14703D02*
X20288Y-15096D01*
X20624Y-15039D02*
X20624Y-14760D01*
X20345Y-14760D01*
X20345Y-15039D01*
X20624Y-15039D01*
X20903Y-12493D02*
X21296Y-12886D01*
X21296Y-12493D02*
X20903Y-12886D01*
X21239Y-12829D02*
X21239Y-12550D01*
X20960Y-12550D01*
X20960Y-12829D01*
X21239Y-12829D01*
X24357Y-23868D02*
X24750Y-24261D01*
X24750Y-23868D02*
X24357Y-24261D01*
X24693Y-24204D02*
X24693Y-23925D01*
X24414Y-23925D01*
X24414Y-24204D01*
X24693Y-24204D01*
X26958Y-14943D02*
X27351Y-15336D01*
X27351Y-14943D02*
X26958Y-15336D01*
X27294Y-15279D02*
X27294Y-15000D01*
X27015Y-15000D01*
X27015Y-15279D01*
X27294Y-15279D01*
X37053Y-30053D02*
X37446Y-30446D01*
X37446Y-30053D02*
X37053Y-30446D01*
X37389Y-30389D02*
X37389Y-30110D01*
X37110Y-30110D01*
X37110Y-30389D01*
X37389Y-30389D01*
X37078Y-22103D02*
X37471Y-22496D01*
X37471Y-22103D02*
X37078Y-22496D01*
X37414Y-22439D02*
X37414Y-22160D01*
X37135Y-22160D01*
X37135Y-22439D01*
X37414Y-22439D01*
X43338Y-22823D02*
X43731Y-23216D01*
X43731Y-22823D02*
X43338Y-23216D01*
X43674Y-23159D02*
X43674Y-22880D01*
X43395Y-22880D01*
X43395Y-23159D01*
X43674Y-23159D01*
X43338Y-30123D02*
X43731Y-30516D01*
X43731Y-30123D02*
X43338Y-30516D01*
X43674Y-30459D02*
X43674Y-30180D01*
X43395Y-30180D01*
X43395Y-30459D01*
X43674Y-30459D01*
X46703Y-853D02*
X47096Y-1246D01*
X47096Y-853D02*
X46703Y-1246D01*
X47039Y-1189D02*
X47039Y-910D01*
X46760Y-910D01*
X46760Y-1189D01*
X47039Y-1189D01*
X46703Y-3203D02*
X47096Y-3596D01*
X47096Y-3203D02*
X46703Y-3596D01*
X47039Y-3539D02*
X47039Y-3260D01*
X46760Y-3260D01*
X46760Y-3539D01*
X47039Y-3539D01*
X49103Y-853D02*
X49496Y-1246D01*
X49496Y-853D02*
X49103Y-1246D01*
X49439Y-1189D02*
X49439Y-910D01*
X49160Y-910D01*
X49160Y-1189D01*
X49439Y-1189D01*
X49303Y-7353D02*
X49696Y-7746D01*
X49696Y-7353D02*
X49303Y-7746D01*
X49639Y-7689D02*
X49639Y-7410D01*
X49360Y-7410D01*
X49360Y-7689D01*
X49639Y-7689D01*
X50803Y-22453D02*
X51196Y-22846D01*
X51196Y-22453D02*
X50803Y-22846D01*
X51139Y-22789D02*
X51139Y-22510D01*
X50860Y-22510D01*
X50860Y-22789D01*
X51139Y-22789D01*
X50853Y-28153D02*
X51246Y-28546D01*
X51246Y-28153D02*
X50853Y-28546D01*
X51189Y-28489D02*
X51189Y-28210D01*
X50910Y-28210D01*
X50910Y-28489D01*
X51189Y-28489D01*
X61088Y-22873D02*
X61481Y-23266D01*
X61481Y-22873D02*
X61088Y-23266D01*
X61424Y-23209D02*
X61424Y-22930D01*
X61145Y-22930D01*
X61145Y-23209D01*
X61424Y-23209D01*
X61088Y-30123D02*
X61481Y-30516D01*
X61481Y-30123D02*
X61088Y-30516D01*
X61424Y-30459D02*
X61424Y-30180D01*
X61145Y-30180D01*
X61145Y-30459D01*
X61424Y-30459D01*
X68303Y-22653D02*
X68696Y-23046D01*
X68696Y-22653D02*
X68303Y-23046D01*
X68639Y-22989D02*
X68639Y-22710D01*
X68360Y-22710D01*
X68360Y-22989D01*
X68639Y-22989D01*
X68303Y-28153D02*
X68696Y-28546D01*
X68696Y-28153D02*
X68303Y-28546D01*
X68639Y-28489D02*
X68639Y-28210D01*
X68360Y-28210D01*
X68360Y-28489D01*
X68639Y-28489D01*
X78638Y-23173D02*
X79031Y-23566D01*
X79031Y-23173D02*
X78638Y-23566D01*
X78974Y-23509D02*
X78974Y-23230D01*
X78695Y-23230D01*
X78695Y-23509D01*
X78974Y-23509D01*
X78688Y-30123D02*
X79081Y-30516D01*
X79081Y-30123D02*
X78688Y-30516D01*
X79024Y-30459D02*
X79024Y-30180D01*
X78745Y-30180D01*
X78745Y-30459D01*
X79024Y-30459D01*
X84053Y-2253D02*
X84446Y-2646D01*
X84446Y-2253D02*
X84053Y-2646D01*
X84389Y-2589D02*
X84389Y-2310D01*
X84110Y-2310D01*
X84110Y-2589D01*
X84389Y-2589D01*
X84053Y-7303D02*
X84446Y-7696D01*
X84446Y-7303D02*
X84053Y-7696D01*
X84389Y-7639D02*
X84389Y-7360D01*
X84110Y-7360D01*
X84110Y-7639D01*
X84389Y-7639D01*
X85303Y-23153D02*
X85696Y-23546D01*
X85696Y-23153D02*
X85303Y-23546D01*
X85639Y-23489D02*
X85639Y-23210D01*
X85360Y-23210D01*
X85360Y-23489D01*
X85639Y-23489D01*
X85303Y-28153D02*
X85696Y-28546D01*
X85696Y-28153D02*
X85303Y-28546D01*
X85639Y-28489D02*
X85639Y-28210D01*
X85360Y-28210D01*
X85360Y-28489D01*
X85639Y-28489D01*
X96088Y-23673D02*
X96481Y-24066D01*
X96481Y-23673D02*
X96088Y-24066D01*
X96424Y-24009D02*
X96424Y-23730D01*
X96145Y-23730D01*
X96145Y-24009D01*
X96424Y-24009D01*
X96088Y-30073D02*
X96481Y-30466D01*
X96481Y-30073D02*
X96088Y-30466D01*
X96424Y-30409D02*
X96424Y-30130D01*
X96145Y-30130D01*
X96145Y-30409D01*
X96424Y-30409D01*
X102803Y-23553D02*
X103196Y-23946D01*
X103196Y-23553D02*
X102803Y-23946D01*
X103139Y-23889D02*
X103139Y-23610D01*
X102860Y-23610D01*
X102860Y-23889D01*
X103139Y-23889D01*
X102803Y-28153D02*
X103196Y-28546D01*
X103196Y-28153D02*
X102803Y-28546D01*
X103139Y-28489D02*
X103139Y-28210D01*
X102860Y-28210D01*
X102860Y-28489D01*
X103139Y-28489D01*
X113338Y-24023D02*
X113731Y-24416D01*
X113731Y-24023D02*
X113338Y-24416D01*
X113674Y-24359D02*
X113674Y-24080D01*
X113395Y-24080D01*
X113395Y-24359D01*
X113674Y-24359D01*
X113388Y-30073D02*
X113781Y-30466D01*
X113781Y-30073D02*
X113388Y-30466D01*
X113724Y-30409D02*
X113724Y-30130D01*
X113445Y-30130D01*
X113445Y-30409D01*
X113724Y-30409D01*
X118803Y-2403D02*
X119196Y-2796D01*
X119196Y-2403D02*
X118803Y-2796D01*
X119139Y-2739D02*
X119139Y-2460D01*
X118860Y-2460D01*
X118860Y-2739D01*
X119139Y-2739D01*
X118803Y-7253D02*
X119196Y-7646D01*
X119196Y-7253D02*
X118803Y-7646D01*
X119139Y-7589D02*
X119139Y-7310D01*
X118860Y-7310D01*
X118860Y-7589D01*
X119139Y-7589D01*
X120803Y-23853D02*
X121196Y-24246D01*
X121196Y-23853D02*
X120803Y-24246D01*
X121139Y-24189D02*
X121139Y-23910D01*
X120860Y-23910D01*
X120860Y-24189D01*
X121139Y-24189D01*
X120803Y-28153D02*
X121196Y-28546D01*
X121196Y-28153D02*
X120803Y-28546D01*
X121139Y-28489D02*
X121139Y-28210D01*
X120860Y-28210D01*
X120860Y-28489D01*
X121139Y-28489D01*
X130938Y-30123D02*
X131331Y-30516D01*
X131331Y-30123D02*
X130938Y-30516D01*
X131274Y-30459D02*
X131274Y-30180D01*
X130995Y-30180D01*
X130995Y-30459D01*
X131274Y-30459D01*
X130988Y-24473D02*
X131381Y-24866D01*
X131381Y-24473D02*
X130988Y-24866D01*
X131324Y-24809D02*
X131324Y-24530D01*
X131045Y-24530D01*
X131045Y-24809D01*
X131324Y-24809D01*
X136103Y-2253D02*
X136496Y-2646D01*
X136496Y-2253D02*
X136103Y-2646D01*
X136439Y-2589D02*
X136439Y-2310D01*
X136160Y-2310D01*
X136160Y-2589D01*
X136439Y-2589D01*
X136153Y-7253D02*
X136546Y-7646D01*
X136546Y-7253D02*
X136153Y-7646D01*
X136489Y-7589D02*
X136489Y-7310D01*
X136210Y-7310D01*
X136210Y-7589D01*
X136489Y-7589D01*
X137803Y-24303D02*
X138196Y-24696D01*
X138196Y-24303D02*
X137803Y-24696D01*
X138139Y-24639D02*
X138139Y-24360D01*
X137860Y-24360D01*
X137860Y-24639D01*
X138139Y-24639D01*
X137803Y-28153D02*
X138196Y-28546D01*
X138196Y-28153D02*
X137803Y-28546D01*
X138139Y-28489D02*
X138139Y-28210D01*
X137860Y-28210D01*
X137860Y-28489D01*
X138139Y-28489D01*
X147288Y-26073D02*
X147681Y-26466D01*
X147681Y-26073D02*
X147288Y-26466D01*
X147624Y-26409D02*
X147624Y-26130D01*
X147345Y-26130D01*
X147345Y-26409D01*
X147624Y-26409D01*
X147288Y-30073D02*
X147681Y-30466D01*
X147681Y-30073D02*
X147288Y-30466D01*
X147624Y-30409D02*
X147624Y-30130D01*
X147345Y-30130D01*
X147345Y-30409D01*
X147624Y-30409D01*
X4115Y-27610D02*
X4515Y-28010D01*
X4515Y-27610D02*
X4115Y-28010D01*
X4315Y-28010D02*
X4515Y-27810D01*
X4315Y-27610D01*
X4115Y-27810D01*
X4315Y-28010D01*
X5115Y-27610D02*
X5515Y-28010D01*
X5515Y-27610D02*
X5115Y-28010D01*
X5315Y-28010D02*
X5515Y-27810D01*
X5315Y-27610D01*
X5115Y-27810D01*
X5315Y-28010D01*
X6115Y-27610D02*
X6515Y-28010D01*
X6515Y-27610D02*
X6115Y-28010D01*
X6315Y-28010D02*
X6515Y-27810D01*
X6315Y-27610D01*
X6115Y-27810D01*
X6315Y-28010D01*
X7115Y-27610D02*
X7515Y-28010D01*
X7515Y-27610D02*
X7115Y-28010D01*
X7315Y-28010D02*
X7515Y-27810D01*
X7315Y-27610D01*
X7115Y-27810D01*
X7315Y-28010D01*
X8115Y-27610D02*
X8515Y-28010D01*
X8515Y-27610D02*
X8115Y-28010D01*
X8315Y-28010D02*
X8515Y-27810D01*
X8315Y-27610D01*
X8115Y-27810D01*
X8315Y-28010D01*
X9115Y-27610D02*
X9515Y-28010D01*
X9515Y-27610D02*
X9115Y-28010D01*
X9315Y-28010D02*
X9515Y-27810D01*
X9315Y-27610D01*
X9115Y-27810D01*
X9315Y-28010D01*
X13385Y-27580D02*
X13785Y-27980D01*
X13785Y-27580D02*
X13385Y-27980D01*
X13585Y-27980D02*
X13785Y-27780D01*
X13585Y-27580D01*
X13385Y-27780D01*
X13585Y-27980D01*
X14385Y-27580D02*
X14785Y-27980D01*
X14785Y-27580D02*
X14385Y-27980D01*
X14585Y-27980D02*
X14785Y-27780D01*
X14585Y-27580D01*
X14385Y-27780D01*
X14585Y-27980D01*
X15385Y-27580D02*
X15785Y-27980D01*
X15785Y-27580D02*
X15385Y-27980D01*
X15585Y-27980D02*
X15785Y-27780D01*
X15585Y-27580D01*
X15385Y-27780D01*
X15585Y-27980D01*
X16385Y-27580D02*
X16785Y-27980D01*
X16785Y-27580D02*
X16385Y-27980D01*
X16585Y-27980D02*
X16785Y-27780D01*
X16585Y-27580D01*
X16385Y-27780D01*
X16585Y-27980D01*
X17385Y-27580D02*
X17785Y-27980D01*
X17785Y-27580D02*
X17385Y-27980D01*
X17585Y-27980D02*
X17785Y-27780D01*
X17585Y-27580D01*
X17385Y-27780D01*
X17585Y-27980D01*
X18385Y-27580D02*
X18785Y-27980D01*
X18785Y-27580D02*
X18385Y-27980D01*
X18585Y-27980D02*
X18785Y-27780D01*
X18585Y-27580D01*
X18385Y-27780D01*
X18585Y-27980D01*
X41200Y-13424D02*
X41600Y-13824D01*
X41600Y-13424D02*
X41200Y-13824D01*
X41400Y-13824D02*
X41600Y-13624D01*
X41400Y-13424D01*
X41200Y-13624D01*
X41400Y-13824D01*
X41200Y-19132D02*
X41600Y-19532D01*
X41600Y-19132D02*
X41200Y-19532D01*
X41400Y-19532D02*
X41600Y-19332D01*
X41400Y-19132D01*
X41200Y-19332D01*
X41400Y-19532D01*
X42185Y-19132D02*
X42585Y-19532D01*
X42585Y-19132D02*
X42185Y-19532D01*
X42385Y-19532D02*
X42585Y-19332D01*
X42385Y-19132D01*
X42185Y-19332D01*
X42385Y-19532D01*
X43169Y-13424D02*
X43569Y-13824D01*
X43569Y-13424D02*
X43169Y-13824D01*
X43369Y-13824D02*
X43569Y-13624D01*
X43369Y-13424D01*
X43169Y-13624D01*
X43369Y-13824D01*
X43169Y-19132D02*
X43569Y-19532D01*
X43569Y-19132D02*
X43169Y-19532D01*
X43369Y-19532D02*
X43569Y-19332D01*
X43369Y-19132D01*
X43169Y-19332D01*
X43369Y-19532D01*
X58600Y-13424D02*
X59000Y-13824D01*
X59000Y-13424D02*
X58600Y-13824D01*
X58800Y-13824D02*
X59000Y-13624D01*
X58800Y-13424D01*
X58600Y-13624D01*
X58800Y-13824D01*
X58600Y-19132D02*
X59000Y-19532D01*
X59000Y-19132D02*
X58600Y-19532D01*
X58800Y-19532D02*
X59000Y-19332D01*
X58800Y-19132D01*
X58600Y-19332D01*
X58800Y-19532D01*
X59585Y-19132D02*
X59985Y-19532D01*
X59985Y-19132D02*
X59585Y-19532D01*
X59785Y-19532D02*
X59985Y-19332D01*
X59785Y-19132D01*
X59585Y-19332D01*
X59785Y-19532D01*
X60569Y-13424D02*
X60969Y-13824D01*
X60969Y-13424D02*
X60569Y-13824D01*
X60769Y-13824D02*
X60969Y-13624D01*
X60769Y-13424D01*
X60569Y-13624D01*
X60769Y-13824D01*
X60569Y-19132D02*
X60969Y-19532D01*
X60969Y-19132D02*
X60569Y-19532D01*
X60769Y-19532D02*
X60969Y-19332D01*
X60769Y-19132D01*
X60569Y-19332D01*
X60769Y-19532D01*
X76000Y-13424D02*
X76400Y-13824D01*
X76400Y-13424D02*
X76000Y-13824D01*
X76200Y-13824D02*
X76400Y-13624D01*
X76200Y-13424D01*
X76000Y-13624D01*
X76200Y-13824D01*
X76000Y-19132D02*
X76400Y-19532D01*
X76400Y-19132D02*
X76000Y-19532D01*
X76200Y-19532D02*
X76400Y-19332D01*
X76200Y-19132D01*
X76000Y-19332D01*
X76200Y-19532D01*
X76985Y-19132D02*
X77385Y-19532D01*
X77385Y-19132D02*
X76985Y-19532D01*
X77185Y-19532D02*
X77385Y-19332D01*
X77185Y-19132D01*
X76985Y-19332D01*
X77185Y-19532D01*
X77969Y-13424D02*
X78369Y-13824D01*
X78369Y-13424D02*
X77969Y-13824D01*
X78169Y-13824D02*
X78369Y-13624D01*
X78169Y-13424D01*
X77969Y-13624D01*
X78169Y-13824D01*
X77969Y-19132D02*
X78369Y-19532D01*
X78369Y-19132D02*
X77969Y-19532D01*
X78169Y-19532D02*
X78369Y-19332D01*
X78169Y-19132D01*
X77969Y-19332D01*
X78169Y-19532D01*
X93400Y-13424D02*
X93800Y-13824D01*
X93800Y-13424D02*
X93400Y-13824D01*
X93600Y-13824D02*
X93800Y-13624D01*
X93600Y-13424D01*
X93400Y-13624D01*
X93600Y-13824D01*
X93400Y-19132D02*
X93800Y-19532D01*
X93800Y-19132D02*
X93400Y-19532D01*
X93600Y-19532D02*
X93800Y-19332D01*
X93600Y-19132D01*
X93400Y-19332D01*
X93600Y-19532D01*
X94385Y-19132D02*
X94785Y-19532D01*
X94785Y-19132D02*
X94385Y-19532D01*
X94585Y-19532D02*
X94785Y-19332D01*
X94585Y-19132D01*
X94385Y-19332D01*
X94585Y-19532D01*
X95369Y-13424D02*
X95769Y-13824D01*
X95769Y-13424D02*
X95369Y-13824D01*
X95569Y-13824D02*
X95769Y-13624D01*
X95569Y-13424D01*
X95369Y-13624D01*
X95569Y-13824D01*
X95369Y-19132D02*
X95769Y-19532D01*
X95769Y-19132D02*
X95369Y-19532D01*
X95569Y-19532D02*
X95769Y-19332D01*
X95569Y-19132D01*
X95369Y-19332D01*
X95569Y-19532D01*
X110800Y-13424D02*
X111200Y-13824D01*
X111200Y-13424D02*
X110800Y-13824D01*
X111000Y-13824D02*
X111200Y-13624D01*
X111000Y-13424D01*
X110800Y-13624D01*
X111000Y-13824D01*
X110800Y-19132D02*
X111200Y-19532D01*
X111200Y-19132D02*
X110800Y-19532D01*
X111000Y-19532D02*
X111200Y-19332D01*
X111000Y-19132D01*
X110800Y-19332D01*
X111000Y-19532D01*
X111785Y-19132D02*
X112185Y-19532D01*
X112185Y-19132D02*
X111785Y-19532D01*
X111985Y-19532D02*
X112185Y-19332D01*
X111985Y-19132D01*
X111785Y-19332D01*
X111985Y-19532D01*
X112769Y-13424D02*
X113169Y-13824D01*
X113169Y-13424D02*
X112769Y-13824D01*
X112969Y-13824D02*
X113169Y-13624D01*
X112969Y-13424D01*
X112769Y-13624D01*
X112969Y-13824D01*
X112769Y-19132D02*
X113169Y-19532D01*
X113169Y-19132D02*
X112769Y-19532D01*
X112969Y-19532D02*
X113169Y-19332D01*
X112969Y-19132D01*
X112769Y-19332D01*
X112969Y-19532D01*
X128200Y-13424D02*
X128600Y-13824D01*
X128600Y-13424D02*
X128200Y-13824D01*
X128400Y-13824D02*
X128600Y-13624D01*
X128400Y-13424D01*
X128200Y-13624D01*
X128400Y-13824D01*
X128200Y-19132D02*
X128600Y-19532D01*
X128600Y-19132D02*
X128200Y-19532D01*
X128400Y-19532D02*
X128600Y-19332D01*
X128400Y-19132D01*
X128200Y-19332D01*
X128400Y-19532D01*
X129185Y-19132D02*
X129585Y-19532D01*
X129585Y-19132D02*
X129185Y-19532D01*
X129385Y-19532D02*
X129585Y-19332D01*
X129385Y-19132D01*
X129185Y-19332D01*
X129385Y-19532D01*
X130169Y-13424D02*
X130569Y-13824D01*
X130569Y-13424D02*
X130169Y-13824D01*
X130369Y-13824D02*
X130569Y-13624D01*
X130369Y-13424D01*
X130169Y-13624D01*
X130369Y-13824D01*
X130169Y-19132D02*
X130569Y-19532D01*
X130569Y-19132D02*
X130169Y-19532D01*
X130369Y-19532D02*
X130569Y-19332D01*
X130369Y-19132D01*
X130169Y-19332D01*
X130369Y-19532D01*
X145600Y-13424D02*
X146000Y-13824D01*
X146000Y-13424D02*
X145600Y-13824D01*
X145800Y-13824D02*
X146000Y-13624D01*
X145800Y-13424D01*
X145600Y-13624D01*
X145800Y-13824D01*
X145600Y-19132D02*
X146000Y-19532D01*
X146000Y-19132D02*
X145600Y-19532D01*
X145800Y-19532D02*
X146000Y-19332D01*
X145800Y-19132D01*
X145600Y-19332D01*
X145800Y-19532D01*
X146585Y-19132D02*
X146985Y-19532D01*
X146985Y-19132D02*
X146585Y-19532D01*
X146785Y-19532D02*
X146985Y-19332D01*
X146785Y-19132D01*
X146585Y-19332D01*
X146785Y-19532D01*
X147569Y-13424D02*
X147969Y-13824D01*
X147969Y-13424D02*
X147569Y-13824D01*
X147769Y-13824D02*
X147969Y-13624D01*
X147769Y-13424D01*
X147569Y-13624D01*
X147769Y-13824D01*
X147569Y-19132D02*
X147969Y-19532D01*
X147969Y-19132D02*
X147569Y-19532D01*
X147769Y-19532D02*
X147969Y-19332D01*
X147769Y-19132D01*
X147569Y-19332D01*
X147769Y-19532D01*
X40140Y-15868D02*
X40140Y-16891D01*
X39629Y-16380D02*
X40652Y-16380D01*
X40652Y-16380D02*
G75*
G03X40652Y-16380I-511J0D01*
G74*
G01*
X44629Y-15868D02*
X44629Y-16891D01*
X44117Y-16380D02*
X45140Y-16380D01*
X45140Y-16380D02*
G75*
G03X45140Y-16380I-511J0D01*
G74*
G01*
X57540Y-15868D02*
X57540Y-16891D01*
X57029Y-16380D02*
X58052Y-16380D01*
X58052Y-16380D02*
G75*
G03X58052Y-16380I-511J0D01*
G74*
G01*
X62029Y-15868D02*
X62029Y-16891D01*
X61517Y-16380D02*
X62540Y-16380D01*
X62540Y-16380D02*
G75*
G03X62540Y-16380I-511J0D01*
G74*
G01*
X74940Y-15868D02*
X74940Y-16891D01*
X74429Y-16380D02*
X75452Y-16380D01*
X75452Y-16380D02*
G75*
G03X75452Y-16380I-511J0D01*
G74*
G01*
X79429Y-15868D02*
X79429Y-16891D01*
X78917Y-16380D02*
X79940Y-16380D01*
X79940Y-16380D02*
G75*
G03X79940Y-16380I-511J0D01*
G74*
G01*
X92340Y-15868D02*
X92340Y-16891D01*
X91829Y-16380D02*
X92852Y-16380D01*
X92852Y-16380D02*
G75*
G03X92852Y-16380I-511J0D01*
G74*
G01*
X96829Y-15868D02*
X96829Y-16891D01*
X96317Y-16380D02*
X97340Y-16380D01*
X97340Y-16380D02*
G75*
G03X97340Y-16380I-511J0D01*
G74*
G01*
X109740Y-15868D02*
X109740Y-16891D01*
X109229Y-16380D02*
X110252Y-16380D01*
X110252Y-16380D02*
G75*
G03X110252Y-16380I-511J0D01*
G74*
G01*
X114229Y-15868D02*
X114229Y-16891D01*
X113717Y-16380D02*
X114740Y-16380D01*
X114740Y-16380D02*
G75*
G03X114740Y-16380I-511J0D01*
G74*
G01*
X127140Y-15868D02*
X127140Y-16891D01*
X126629Y-16380D02*
X127652Y-16380D01*
X127652Y-16380D02*
G75*
G03X127652Y-16380I-511J0D01*
G74*
G01*
X131629Y-15868D02*
X131629Y-16891D01*
X131117Y-16380D02*
X132140Y-16380D01*
X132140Y-16380D02*
G75*
G03X132140Y-16380I-511J0D01*
G74*
G01*
X144540Y-15868D02*
X144540Y-16891D01*
X144029Y-16380D02*
X145052Y-16380D01*
X145052Y-16380D02*
G75*
G03X145052Y-16380I-511J0D01*
G74*
G01*
X149029Y-15868D02*
X149029Y-16891D01*
X148517Y-16380D02*
X149540Y-16380D01*
X149540Y-16380D02*
G75*
G03X149540Y-16380I-511J0D01*
G74*
G01*
G54D12*
X-4046Y3502D02*
X-4046Y4683D01*
X-3765Y4683D01*
X-3596Y4627D01*
X-3483Y4515D01*
X-3427Y4402D01*
X-3371Y4177D01*
X-3371Y4008D01*
X-3427Y3783D01*
X-3483Y3671D01*
X-3596Y3558D01*
X-3765Y3502D01*
X-4046Y3502D01*
X-2865Y3502D02*
X-2865Y4290D01*
X-2865Y4065D02*
X-2809Y4177D01*
X-2752Y4233D01*
X-2640Y4290D01*
X-2527Y4290D01*
X-2134Y3502D02*
X-2134Y4290D01*
X-2134Y4683D02*
X-2190Y4627D01*
X-2134Y4571D01*
X-2077Y4627D01*
X-2134Y4683D01*
X-2134Y4571D01*
X-1402Y3502D02*
X-1515Y3558D01*
X-1571Y3671D01*
X-1571Y4683D01*
X-784Y3502D02*
X-896Y3558D01*
X-953Y3671D01*
X-953Y4683D01*
X565Y3502D02*
X565Y4683D01*
X959Y3840D01*
X1352Y4683D01*
X1352Y3502D01*
X2421Y3502D02*
X2421Y4121D01*
X2365Y4233D01*
X2252Y4290D01*
X2027Y4290D01*
X1915Y4233D01*
X2421Y3558D02*
X2309Y3502D01*
X2027Y3502D01*
X1915Y3558D01*
X1859Y3671D01*
X1859Y3783D01*
X1915Y3896D01*
X2027Y3952D01*
X2309Y3952D01*
X2421Y4008D01*
X2983Y4290D02*
X2983Y3109D01*
X2983Y4233D02*
X3096Y4290D01*
X3321Y4290D01*
X3433Y4233D01*
X3490Y4177D01*
X3546Y4065D01*
X3546Y3727D01*
X3490Y3615D01*
X3433Y3558D01*
X3321Y3502D01*
X3096Y3502D01*
X2983Y3558D01*
X4052Y3615D02*
X4108Y3558D01*
X4052Y3502D01*
X3996Y3558D01*
X4052Y3615D01*
X4052Y3502D01*
X4052Y4233D02*
X4108Y4177D01*
X4052Y4121D01*
X3996Y4177D01*
X4052Y4233D01*
X4052Y4121D01*
X-5233Y1559D02*
X-5115Y1441D01*
X-5115Y1559D02*
X-5233Y1441D01*
X-3821Y2203D02*
X-3708Y2203D01*
X-3596Y2147D01*
X-3540Y2091D01*
X-3483Y1978D01*
X-3427Y1753D01*
X-3427Y1472D01*
X-3483Y1247D01*
X-3540Y1134D01*
X-3596Y1078D01*
X-3708Y1022D01*
X-3821Y1022D01*
X-3933Y1078D01*
X-3990Y1134D01*
X-4046Y1247D01*
X-4102Y1472D01*
X-4102Y1753D01*
X-4046Y1978D01*
X-3990Y2091D01*
X-3933Y2147D01*
X-3821Y2203D01*
X-2921Y1134D02*
X-2865Y1078D01*
X-2921Y1022D01*
X-2977Y1078D01*
X-2921Y1134D01*
X-2921Y1022D01*
X-2471Y2203D02*
X-1740Y2203D01*
X-2134Y1753D01*
X-1965Y1753D01*
X-1852Y1697D01*
X-1796Y1641D01*
X-1740Y1528D01*
X-1740Y1247D01*
X-1796Y1134D01*
X-1852Y1078D01*
X-1965Y1022D01*
X-2302Y1022D01*
X-2415Y1078D01*
X-2471Y1134D01*
X-1009Y2203D02*
X-896Y2203D01*
X-784Y2147D01*
X-728Y2091D01*
X-671Y1978D01*
X-615Y1753D01*
X-615Y1472D01*
X-671Y1247D01*
X-728Y1134D01*
X-784Y1078D01*
X-896Y1022D01*
X-1009Y1022D01*
X-1121Y1078D01*
X-1177Y1134D01*
X-1234Y1247D01*
X-1290Y1472D01*
X-1290Y1753D01*
X-1234Y1978D01*
X-1177Y2091D01*
X-1121Y2147D01*
X-1009Y2203D01*
X-109Y1022D02*
X-109Y1809D01*
X-109Y1697D02*
X-53Y1753D01*
X59Y1809D01*
X228Y1809D01*
X340Y1753D01*
X396Y1641D01*
X396Y1022D01*
X396Y1641D02*
X453Y1753D01*
X565Y1809D01*
X734Y1809D01*
X846Y1753D01*
X902Y1641D01*
X902Y1022D01*
X1465Y1022D02*
X1465Y1809D01*
X1465Y1697D02*
X1521Y1753D01*
X1634Y1809D01*
X1802Y1809D01*
X1915Y1753D01*
X1971Y1641D01*
X1971Y1022D01*
X1971Y1641D02*
X2027Y1753D01*
X2140Y1809D01*
X2309Y1809D01*
X2421Y1753D01*
X2477Y1641D01*
X2477Y1022D01*
X4783Y2259D02*
X3771Y741D01*
X6302Y2203D02*
X6414Y2203D01*
X6527Y2147D01*
X6583Y2091D01*
X6639Y1978D01*
X6696Y1753D01*
X6696Y1472D01*
X6639Y1247D01*
X6583Y1134D01*
X6527Y1078D01*
X6414Y1022D01*
X6302Y1022D01*
X6189Y1078D01*
X6133Y1134D01*
X6077Y1247D01*
X6021Y1472D01*
X6021Y1753D01*
X6077Y1978D01*
X6133Y2091D01*
X6189Y2147D01*
X6302Y2203D01*
X7202Y1134D02*
X7258Y1078D01*
X7202Y1022D01*
X7145Y1078D01*
X7202Y1134D01*
X7202Y1022D01*
X7989Y2203D02*
X8102Y2203D01*
X8214Y2147D01*
X8270Y2091D01*
X8327Y1978D01*
X8383Y1753D01*
X8383Y1472D01*
X8327Y1247D01*
X8270Y1134D01*
X8214Y1078D01*
X8102Y1022D01*
X7989Y1022D01*
X7877Y1078D01*
X7820Y1134D01*
X7764Y1247D01*
X7708Y1472D01*
X7708Y1753D01*
X7764Y1978D01*
X7820Y2091D01*
X7877Y2147D01*
X7989Y2203D01*
X9508Y1022D02*
X8833Y1022D01*
X9170Y1022D02*
X9170Y2203D01*
X9058Y2034D01*
X8945Y1922D01*
X8833Y1866D01*
X9958Y2091D02*
X10014Y2147D01*
X10126Y2203D01*
X10408Y2203D01*
X10520Y2147D01*
X10576Y2091D01*
X10633Y1978D01*
X10633Y1866D01*
X10576Y1697D01*
X9901Y1022D01*
X10633Y1022D01*
X11082Y2203D02*
X11082Y1978D01*
X11532Y2203D02*
X11532Y1978D01*
X13276Y572D02*
X13220Y628D01*
X13107Y797D01*
X13051Y909D01*
X12995Y1078D01*
X12938Y1359D01*
X12938Y1584D01*
X12995Y1866D01*
X13051Y2034D01*
X13107Y2147D01*
X13220Y2315D01*
X13276Y2372D01*
X13670Y2091D02*
X13726Y2147D01*
X13838Y2203D01*
X14120Y2203D01*
X14232Y2147D01*
X14288Y2091D01*
X14345Y1978D01*
X14345Y1866D01*
X14288Y1697D01*
X13613Y1022D01*
X14345Y1022D01*
X15751Y1022D02*
X15751Y2203D01*
X16257Y1022D02*
X16257Y1641D01*
X16201Y1753D01*
X16088Y1809D01*
X15919Y1809D01*
X15807Y1753D01*
X15751Y1697D01*
X16988Y1022D02*
X16876Y1078D01*
X16819Y1134D01*
X16763Y1247D01*
X16763Y1584D01*
X16819Y1697D01*
X16876Y1753D01*
X16988Y1809D01*
X17157Y1809D01*
X17269Y1753D01*
X17325Y1697D01*
X17382Y1584D01*
X17382Y1247D01*
X17325Y1134D01*
X17269Y1078D01*
X17157Y1022D01*
X16988Y1022D01*
X18057Y1022D02*
X17944Y1078D01*
X17888Y1191D01*
X17888Y2203D01*
X18956Y1078D02*
X18844Y1022D01*
X18619Y1022D01*
X18507Y1078D01*
X18450Y1191D01*
X18450Y1641D01*
X18507Y1753D01*
X18619Y1809D01*
X18844Y1809D01*
X18956Y1753D01*
X19013Y1641D01*
X19013Y1528D01*
X18450Y1416D01*
X19463Y1078D02*
X19575Y1022D01*
X19800Y1022D01*
X19913Y1078D01*
X19969Y1191D01*
X19969Y1247D01*
X19913Y1359D01*
X19800Y1416D01*
X19631Y1416D01*
X19519Y1472D01*
X19463Y1584D01*
X19463Y1641D01*
X19519Y1753D01*
X19631Y1809D01*
X19800Y1809D01*
X19913Y1753D01*
X20363Y572D02*
X20419Y628D01*
X20531Y797D01*
X20588Y909D01*
X20644Y1078D01*
X20700Y1359D01*
X20700Y1584D01*
X20644Y1866D01*
X20588Y2034D01*
X20531Y2147D01*
X20419Y2315D01*
X20363Y2372D01*
G54D11*
X-5115Y-58D02*
G75*
G03X-5115Y-58I-98J0D01*
G74*
G01*
G54D12*
X-3821Y644D02*
X-3708Y644D01*
X-3596Y588D01*
X-3540Y531D01*
X-3483Y419D01*
X-3427Y194D01*
X-3427Y-86D01*
X-3483Y-311D01*
X-3540Y-424D01*
X-3596Y-480D01*
X-3708Y-536D01*
X-3821Y-536D01*
X-3933Y-480D01*
X-3990Y-424D01*
X-4046Y-311D01*
X-4102Y-86D01*
X-4102Y194D01*
X-4046Y419D01*
X-3990Y531D01*
X-3933Y588D01*
X-3821Y644D01*
X-2921Y-424D02*
X-2865Y-480D01*
X-2921Y-536D01*
X-2977Y-480D01*
X-2921Y-424D01*
X-2921Y-536D01*
X-1796Y644D02*
X-2359Y644D01*
X-2415Y82D01*
X-2359Y138D01*
X-2246Y194D01*
X-1965Y194D01*
X-1852Y138D01*
X-1796Y82D01*
X-1740Y-30D01*
X-1740Y-311D01*
X-1796Y-424D01*
X-1852Y-480D01*
X-1965Y-536D01*
X-2246Y-536D01*
X-2359Y-480D01*
X-2415Y-424D01*
X-1009Y644D02*
X-896Y644D01*
X-784Y588D01*
X-728Y531D01*
X-671Y419D01*
X-615Y194D01*
X-615Y-86D01*
X-671Y-311D01*
X-728Y-424D01*
X-784Y-480D01*
X-896Y-536D01*
X-1009Y-536D01*
X-1121Y-480D01*
X-1177Y-424D01*
X-1234Y-311D01*
X-1290Y-86D01*
X-1290Y194D01*
X-1234Y419D01*
X-1177Y531D01*
X-1121Y588D01*
X-1009Y644D01*
X-109Y-536D02*
X-109Y250D01*
X-109Y138D02*
X-53Y194D01*
X59Y250D01*
X228Y250D01*
X340Y194D01*
X396Y82D01*
X396Y-536D01*
X396Y82D02*
X453Y194D01*
X565Y250D01*
X734Y250D01*
X846Y194D01*
X902Y82D01*
X902Y-536D01*
X1465Y-536D02*
X1465Y250D01*
X1465Y138D02*
X1521Y194D01*
X1634Y250D01*
X1802Y250D01*
X1915Y194D01*
X1971Y82D01*
X1971Y-536D01*
X1971Y82D02*
X2027Y194D01*
X2140Y250D01*
X2309Y250D01*
X2421Y194D01*
X2477Y82D01*
X2477Y-536D01*
X4783Y700D02*
X3771Y-817D01*
X6302Y644D02*
X6414Y644D01*
X6527Y588D01*
X6583Y531D01*
X6639Y419D01*
X6696Y194D01*
X6696Y-86D01*
X6639Y-311D01*
X6583Y-424D01*
X6527Y-480D01*
X6414Y-536D01*
X6302Y-536D01*
X6189Y-480D01*
X6133Y-424D01*
X6077Y-311D01*
X6021Y-86D01*
X6021Y194D01*
X6077Y419D01*
X6133Y531D01*
X6189Y588D01*
X6302Y644D01*
X7202Y-424D02*
X7258Y-480D01*
X7202Y-536D01*
X7145Y-480D01*
X7202Y-424D01*
X7202Y-536D01*
X7989Y644D02*
X8102Y644D01*
X8214Y588D01*
X8270Y531D01*
X8327Y419D01*
X8383Y194D01*
X8383Y-86D01*
X8327Y-311D01*
X8270Y-424D01*
X8214Y-480D01*
X8102Y-536D01*
X7989Y-536D01*
X7877Y-480D01*
X7820Y-424D01*
X7764Y-311D01*
X7708Y-86D01*
X7708Y194D01*
X7764Y419D01*
X7820Y531D01*
X7877Y588D01*
X7989Y644D01*
X8833Y531D02*
X8889Y588D01*
X9001Y644D01*
X9283Y644D01*
X9395Y588D01*
X9451Y531D01*
X9508Y419D01*
X9508Y306D01*
X9451Y138D01*
X8777Y-536D01*
X9508Y-536D01*
X10239Y644D02*
X10351Y644D01*
X10464Y588D01*
X10520Y531D01*
X10576Y419D01*
X10633Y194D01*
X10633Y-86D01*
X10576Y-311D01*
X10520Y-424D01*
X10464Y-480D01*
X10351Y-536D01*
X10239Y-536D01*
X10126Y-480D01*
X10070Y-424D01*
X10014Y-311D01*
X9958Y-86D01*
X9958Y194D01*
X10014Y419D01*
X10070Y531D01*
X10126Y588D01*
X10239Y644D01*
X11082Y644D02*
X11082Y419D01*
X11532Y644D02*
X11532Y419D01*
X13276Y-986D02*
X13220Y-930D01*
X13107Y-761D01*
X13051Y-649D01*
X12995Y-480D01*
X12938Y-199D01*
X12938Y25D01*
X12995Y306D01*
X13051Y475D01*
X13107Y588D01*
X13220Y756D01*
X13276Y813D01*
X14345Y-536D02*
X13670Y-536D01*
X14007Y-536D02*
X14007Y644D01*
X13895Y475D01*
X13782Y363D01*
X13670Y306D01*
X15357Y250D02*
X15357Y-536D01*
X15076Y700D02*
X14795Y-142D01*
X15526Y-142D01*
X16482Y644D02*
X16257Y644D01*
X16144Y588D01*
X16088Y531D01*
X15976Y363D01*
X15919Y138D01*
X15919Y-311D01*
X15976Y-424D01*
X16032Y-480D01*
X16144Y-536D01*
X16369Y-536D01*
X16482Y-480D01*
X16538Y-424D01*
X16594Y-311D01*
X16594Y-30D01*
X16538Y82D01*
X16482Y138D01*
X16369Y194D01*
X16144Y194D01*
X16032Y138D01*
X15976Y82D01*
X15919Y-30D01*
X18000Y-536D02*
X18000Y644D01*
X18507Y-536D02*
X18507Y82D01*
X18450Y194D01*
X18338Y250D01*
X18169Y250D01*
X18057Y194D01*
X18000Y138D01*
X19238Y-536D02*
X19125Y-480D01*
X19069Y-424D01*
X19013Y-311D01*
X19013Y25D01*
X19069Y138D01*
X19125Y194D01*
X19238Y250D01*
X19406Y250D01*
X19519Y194D01*
X19575Y138D01*
X19631Y25D01*
X19631Y-311D01*
X19575Y-424D01*
X19519Y-480D01*
X19406Y-536D01*
X19238Y-536D01*
X20306Y-536D02*
X20194Y-480D01*
X20138Y-367D01*
X20138Y644D01*
X21206Y-480D02*
X21094Y-536D01*
X20869Y-536D01*
X20756Y-480D01*
X20700Y-367D01*
X20700Y82D01*
X20756Y194D01*
X20869Y250D01*
X21094Y250D01*
X21206Y194D01*
X21262Y82D01*
X21262Y-30D01*
X20700Y-142D01*
X21712Y-480D02*
X21825Y-536D01*
X22050Y-536D01*
X22162Y-480D01*
X22219Y-367D01*
X22219Y-311D01*
X22162Y-199D01*
X22050Y-142D01*
X21881Y-142D01*
X21769Y-86D01*
X21712Y25D01*
X21712Y82D01*
X21769Y194D01*
X21881Y250D01*
X22050Y250D01*
X22162Y194D01*
X22612Y-986D02*
X22669Y-930D01*
X22781Y-761D01*
X22837Y-649D01*
X22893Y-480D01*
X22950Y-199D01*
X22950Y25D01*
X22893Y306D01*
X22837Y475D01*
X22781Y588D01*
X22669Y756D01*
X22612Y813D01*
X-5240Y-1492D02*
X-5240Y-1742D01*
X-5365Y-1617D02*
X-5115Y-1617D01*
X-3821Y-914D02*
X-3708Y-914D01*
X-3596Y-970D01*
X-3540Y-1027D01*
X-3483Y-1139D01*
X-3427Y-1364D01*
X-3427Y-1645D01*
X-3483Y-1870D01*
X-3540Y-1983D01*
X-3596Y-2039D01*
X-3708Y-2095D01*
X-3821Y-2095D01*
X-3933Y-2039D01*
X-3990Y-1983D01*
X-4046Y-1870D01*
X-4102Y-1645D01*
X-4102Y-1364D01*
X-4046Y-1139D01*
X-3990Y-1027D01*
X-3933Y-970D01*
X-3821Y-914D01*
X-2921Y-1983D02*
X-2865Y-2039D01*
X-2921Y-2095D01*
X-2977Y-2039D01*
X-2921Y-1983D01*
X-2921Y-2095D01*
X-1852Y-914D02*
X-2077Y-914D01*
X-2190Y-970D01*
X-2246Y-1027D01*
X-2359Y-1195D01*
X-2415Y-1420D01*
X-2415Y-1870D01*
X-2359Y-1983D01*
X-2302Y-2039D01*
X-2190Y-2095D01*
X-1965Y-2095D01*
X-1852Y-2039D01*
X-1796Y-1983D01*
X-1740Y-1870D01*
X-1740Y-1589D01*
X-1796Y-1477D01*
X-1852Y-1420D01*
X-1965Y-1364D01*
X-2190Y-1364D01*
X-2302Y-1420D01*
X-2359Y-1477D01*
X-2415Y-1589D01*
X-728Y-1308D02*
X-728Y-2095D01*
X-1009Y-858D02*
X-1290Y-1702D01*
X-559Y-1702D01*
X-109Y-2095D02*
X-109Y-1308D01*
X-109Y-1420D02*
X-53Y-1364D01*
X59Y-1308D01*
X228Y-1308D01*
X340Y-1364D01*
X396Y-1477D01*
X396Y-2095D01*
X396Y-1477D02*
X453Y-1364D01*
X565Y-1308D01*
X734Y-1308D01*
X846Y-1364D01*
X902Y-1477D01*
X902Y-2095D01*
X1465Y-2095D02*
X1465Y-1308D01*
X1465Y-1420D02*
X1521Y-1364D01*
X1634Y-1308D01*
X1802Y-1308D01*
X1915Y-1364D01*
X1971Y-1477D01*
X1971Y-2095D01*
X1971Y-1477D02*
X2027Y-1364D01*
X2140Y-1308D01*
X2309Y-1308D01*
X2421Y-1364D01*
X2477Y-1477D01*
X2477Y-2095D01*
X4783Y-858D02*
X3771Y-2376D01*
X6302Y-914D02*
X6414Y-914D01*
X6527Y-970D01*
X6583Y-1027D01*
X6639Y-1139D01*
X6696Y-1364D01*
X6696Y-1645D01*
X6639Y-1870D01*
X6583Y-1983D01*
X6527Y-2039D01*
X6414Y-2095D01*
X6302Y-2095D01*
X6189Y-2039D01*
X6133Y-1983D01*
X6077Y-1870D01*
X6021Y-1645D01*
X6021Y-1364D01*
X6077Y-1139D01*
X6133Y-1027D01*
X6189Y-970D01*
X6302Y-914D01*
X7202Y-1983D02*
X7258Y-2039D01*
X7202Y-2095D01*
X7145Y-2039D01*
X7202Y-1983D01*
X7202Y-2095D01*
X7989Y-914D02*
X8102Y-914D01*
X8214Y-970D01*
X8270Y-1027D01*
X8327Y-1139D01*
X8383Y-1364D01*
X8383Y-1645D01*
X8327Y-1870D01*
X8270Y-1983D01*
X8214Y-2039D01*
X8102Y-2095D01*
X7989Y-2095D01*
X7877Y-2039D01*
X7820Y-1983D01*
X7764Y-1870D01*
X7708Y-1645D01*
X7708Y-1364D01*
X7764Y-1139D01*
X7820Y-1027D01*
X7877Y-970D01*
X7989Y-914D01*
X8833Y-1027D02*
X8889Y-970D01*
X9001Y-914D01*
X9283Y-914D01*
X9395Y-970D01*
X9451Y-1027D01*
X9508Y-1139D01*
X9508Y-1252D01*
X9451Y-1420D01*
X8777Y-2095D01*
X9508Y-2095D01*
X10576Y-914D02*
X10014Y-914D01*
X9958Y-1477D01*
X10014Y-1420D01*
X10126Y-1364D01*
X10408Y-1364D01*
X10520Y-1420D01*
X10576Y-1477D01*
X10633Y-1589D01*
X10633Y-1870D01*
X10576Y-1983D01*
X10520Y-2039D01*
X10408Y-2095D01*
X10126Y-2095D01*
X10014Y-2039D01*
X9958Y-1983D01*
X11082Y-914D02*
X11082Y-1139D01*
X11532Y-914D02*
X11532Y-1139D01*
X13276Y-2545D02*
X13220Y-2489D01*
X13107Y-2320D01*
X13051Y-2208D01*
X12995Y-2039D01*
X12938Y-1758D01*
X12938Y-1533D01*
X12995Y-1252D01*
X13051Y-1083D01*
X13107Y-970D01*
X13220Y-802D01*
X13276Y-745D01*
X13670Y-1027D02*
X13726Y-970D01*
X13838Y-914D01*
X14120Y-914D01*
X14232Y-970D01*
X14288Y-1027D01*
X14345Y-1139D01*
X14345Y-1252D01*
X14288Y-1420D01*
X13613Y-2095D01*
X14345Y-2095D01*
X15357Y-1308D02*
X15357Y-2095D01*
X15076Y-858D02*
X14795Y-1702D01*
X15526Y-1702D01*
X16876Y-2095D02*
X16876Y-914D01*
X17382Y-2095D02*
X17382Y-1477D01*
X17325Y-1364D01*
X17213Y-1308D01*
X17044Y-1308D01*
X16932Y-1364D01*
X16876Y-1420D01*
X18113Y-2095D02*
X18000Y-2039D01*
X17944Y-1983D01*
X17888Y-1870D01*
X17888Y-1533D01*
X17944Y-1420D01*
X18000Y-1364D01*
X18113Y-1308D01*
X18282Y-1308D01*
X18394Y-1364D01*
X18450Y-1420D01*
X18507Y-1533D01*
X18507Y-1870D01*
X18450Y-1983D01*
X18394Y-2039D01*
X18282Y-2095D01*
X18113Y-2095D01*
X19181Y-2095D02*
X19069Y-2039D01*
X19013Y-1926D01*
X19013Y-914D01*
X20081Y-2039D02*
X19969Y-2095D01*
X19744Y-2095D01*
X19631Y-2039D01*
X19575Y-1926D01*
X19575Y-1477D01*
X19631Y-1364D01*
X19744Y-1308D01*
X19969Y-1308D01*
X20081Y-1364D01*
X20138Y-1477D01*
X20138Y-1589D01*
X19575Y-1702D01*
X20588Y-2039D02*
X20700Y-2095D01*
X20925Y-2095D01*
X21037Y-2039D01*
X21094Y-1926D01*
X21094Y-1870D01*
X21037Y-1758D01*
X20925Y-1702D01*
X20756Y-1702D01*
X20644Y-1645D01*
X20588Y-1533D01*
X20588Y-1477D01*
X20644Y-1364D01*
X20756Y-1308D01*
X20925Y-1308D01*
X21037Y-1364D01*
X21487Y-2545D02*
X21544Y-2489D01*
X21656Y-2320D01*
X21712Y-2208D01*
X21769Y-2039D01*
X21825Y-1758D01*
X21825Y-1533D01*
X21769Y-1252D01*
X21712Y-1083D01*
X21656Y-970D01*
X21544Y-802D01*
X21487Y-745D01*
G54D11*
X-5152Y-3267D02*
X-5152Y-3086D01*
X-5333Y-3086D01*
X-5333Y-3267D01*
X-5152Y-3267D01*
G54D12*
X-3821Y-2473D02*
X-3708Y-2473D01*
X-3596Y-2529D01*
X-3540Y-2586D01*
X-3483Y-2698D01*
X-3427Y-2923D01*
X-3427Y-3204D01*
X-3483Y-3429D01*
X-3540Y-3542D01*
X-3596Y-3598D01*
X-3708Y-3654D01*
X-3821Y-3654D01*
X-3933Y-3598D01*
X-3990Y-3542D01*
X-4046Y-3429D01*
X-4102Y-3204D01*
X-4102Y-2923D01*
X-4046Y-2698D01*
X-3990Y-2586D01*
X-3933Y-2529D01*
X-3821Y-2473D01*
X-2921Y-3542D02*
X-2865Y-3598D01*
X-2921Y-3654D01*
X-2977Y-3598D01*
X-2921Y-3542D01*
X-2921Y-3654D01*
X-1852Y-2473D02*
X-2077Y-2473D01*
X-2190Y-2529D01*
X-2246Y-2586D01*
X-2359Y-2754D01*
X-2415Y-2979D01*
X-2415Y-3429D01*
X-2359Y-3542D01*
X-2302Y-3598D01*
X-2190Y-3654D01*
X-1965Y-3654D01*
X-1852Y-3598D01*
X-1796Y-3542D01*
X-1740Y-3429D01*
X-1740Y-3148D01*
X-1796Y-3036D01*
X-1852Y-2979D01*
X-1965Y-2923D01*
X-2190Y-2923D01*
X-2302Y-2979D01*
X-2359Y-3036D01*
X-2415Y-3148D01*
X-671Y-2473D02*
X-1234Y-2473D01*
X-1290Y-3036D01*
X-1234Y-2979D01*
X-1121Y-2923D01*
X-840Y-2923D01*
X-728Y-2979D01*
X-671Y-3036D01*
X-615Y-3148D01*
X-615Y-3429D01*
X-671Y-3542D01*
X-728Y-3598D01*
X-840Y-3654D01*
X-1121Y-3654D01*
X-1234Y-3598D01*
X-1290Y-3542D01*
X-109Y-3654D02*
X-109Y-2867D01*
X-109Y-2979D02*
X-53Y-2923D01*
X59Y-2867D01*
X228Y-2867D01*
X340Y-2923D01*
X396Y-3036D01*
X396Y-3654D01*
X396Y-3036D02*
X453Y-2923D01*
X565Y-2867D01*
X734Y-2867D01*
X846Y-2923D01*
X902Y-3036D01*
X902Y-3654D01*
X1465Y-3654D02*
X1465Y-2867D01*
X1465Y-2979D02*
X1521Y-2923D01*
X1634Y-2867D01*
X1802Y-2867D01*
X1915Y-2923D01*
X1971Y-3036D01*
X1971Y-3654D01*
X1971Y-3036D02*
X2027Y-2923D01*
X2140Y-2867D01*
X2309Y-2867D01*
X2421Y-2923D01*
X2477Y-3036D01*
X2477Y-3654D01*
X4783Y-2417D02*
X3771Y-3935D01*
X6302Y-2473D02*
X6414Y-2473D01*
X6527Y-2529D01*
X6583Y-2586D01*
X6639Y-2698D01*
X6696Y-2923D01*
X6696Y-3204D01*
X6639Y-3429D01*
X6583Y-3542D01*
X6527Y-3598D01*
X6414Y-3654D01*
X6302Y-3654D01*
X6189Y-3598D01*
X6133Y-3542D01*
X6077Y-3429D01*
X6021Y-3204D01*
X6021Y-2923D01*
X6077Y-2698D01*
X6133Y-2586D01*
X6189Y-2529D01*
X6302Y-2473D01*
X7202Y-3542D02*
X7258Y-3598D01*
X7202Y-3654D01*
X7145Y-3598D01*
X7202Y-3542D01*
X7202Y-3654D01*
X7989Y-2473D02*
X8102Y-2473D01*
X8214Y-2529D01*
X8270Y-2586D01*
X8327Y-2698D01*
X8383Y-2923D01*
X8383Y-3204D01*
X8327Y-3429D01*
X8270Y-3542D01*
X8214Y-3598D01*
X8102Y-3654D01*
X7989Y-3654D01*
X7877Y-3598D01*
X7820Y-3542D01*
X7764Y-3429D01*
X7708Y-3204D01*
X7708Y-2923D01*
X7764Y-2698D01*
X7820Y-2586D01*
X7877Y-2529D01*
X7989Y-2473D01*
X8833Y-2586D02*
X8889Y-2529D01*
X9001Y-2473D01*
X9283Y-2473D01*
X9395Y-2529D01*
X9451Y-2586D01*
X9508Y-2698D01*
X9508Y-2811D01*
X9451Y-2979D01*
X8777Y-3654D01*
X9508Y-3654D01*
X10520Y-2473D02*
X10295Y-2473D01*
X10183Y-2529D01*
X10126Y-2586D01*
X10014Y-2754D01*
X9958Y-2979D01*
X9958Y-3429D01*
X10014Y-3542D01*
X10070Y-3598D01*
X10183Y-3654D01*
X10408Y-3654D01*
X10520Y-3598D01*
X10576Y-3542D01*
X10633Y-3429D01*
X10633Y-3148D01*
X10576Y-3036D01*
X10520Y-2979D01*
X10408Y-2923D01*
X10183Y-2923D01*
X10070Y-2979D01*
X10014Y-3036D01*
X9958Y-3148D01*
X11082Y-2473D02*
X11082Y-2698D01*
X11532Y-2473D02*
X11532Y-2698D01*
X13276Y-4104D02*
X13220Y-4048D01*
X13107Y-3879D01*
X13051Y-3767D01*
X12995Y-3598D01*
X12938Y-3317D01*
X12938Y-3092D01*
X12995Y-2811D01*
X13051Y-2642D01*
X13107Y-2529D01*
X13220Y-2361D01*
X13276Y-2304D01*
X14345Y-3654D02*
X13670Y-3654D01*
X14007Y-3654D02*
X14007Y-2473D01*
X13895Y-2642D01*
X13782Y-2754D01*
X13670Y-2811D01*
X15076Y-2473D02*
X15188Y-2473D01*
X15301Y-2529D01*
X15357Y-2586D01*
X15413Y-2698D01*
X15469Y-2923D01*
X15469Y-3204D01*
X15413Y-3429D01*
X15357Y-3542D01*
X15301Y-3598D01*
X15188Y-3654D01*
X15076Y-3654D01*
X14963Y-3598D01*
X14907Y-3542D01*
X14851Y-3429D01*
X14795Y-3204D01*
X14795Y-2923D01*
X14851Y-2698D01*
X14907Y-2586D01*
X14963Y-2529D01*
X15076Y-2473D01*
X16876Y-3654D02*
X16876Y-2473D01*
X17382Y-3654D02*
X17382Y-3036D01*
X17325Y-2923D01*
X17213Y-2867D01*
X17044Y-2867D01*
X16932Y-2923D01*
X16876Y-2979D01*
X18113Y-3654D02*
X18000Y-3598D01*
X17944Y-3542D01*
X17888Y-3429D01*
X17888Y-3092D01*
X17944Y-2979D01*
X18000Y-2923D01*
X18113Y-2867D01*
X18282Y-2867D01*
X18394Y-2923D01*
X18450Y-2979D01*
X18507Y-3092D01*
X18507Y-3429D01*
X18450Y-3542D01*
X18394Y-3598D01*
X18282Y-3654D01*
X18113Y-3654D01*
X19181Y-3654D02*
X19069Y-3598D01*
X19013Y-3486D01*
X19013Y-2473D01*
X20081Y-3598D02*
X19969Y-3654D01*
X19744Y-3654D01*
X19631Y-3598D01*
X19575Y-3486D01*
X19575Y-3036D01*
X19631Y-2923D01*
X19744Y-2867D01*
X19969Y-2867D01*
X20081Y-2923D01*
X20138Y-3036D01*
X20138Y-3148D01*
X19575Y-3261D01*
X20588Y-3598D02*
X20700Y-3654D01*
X20925Y-3654D01*
X21037Y-3598D01*
X21094Y-3486D01*
X21094Y-3429D01*
X21037Y-3317D01*
X20925Y-3261D01*
X20756Y-3261D01*
X20644Y-3204D01*
X20588Y-3092D01*
X20588Y-3036D01*
X20644Y-2923D01*
X20756Y-2867D01*
X20925Y-2867D01*
X21037Y-2923D01*
X21487Y-4104D02*
X21544Y-4048D01*
X21656Y-3879D01*
X21712Y-3767D01*
X21769Y-3598D01*
X21825Y-3317D01*
X21825Y-3092D01*
X21769Y-2811D01*
X21712Y-2642D01*
X21656Y-2529D01*
X21544Y-2361D01*
X21487Y-2304D01*
G54D11*
X-5272Y-4893D02*
X-5115Y-4735D01*
X-5272Y-4578D01*
X-5430Y-4735D01*
X-5272Y-4893D01*
G54D12*
X-3821Y-4032D02*
X-3708Y-4032D01*
X-3596Y-4088D01*
X-3540Y-4145D01*
X-3483Y-4257D01*
X-3427Y-4482D01*
X-3427Y-4763D01*
X-3483Y-4988D01*
X-3540Y-5101D01*
X-3596Y-5157D01*
X-3708Y-5213D01*
X-3821Y-5213D01*
X-3933Y-5157D01*
X-3990Y-5101D01*
X-4046Y-4988D01*
X-4102Y-4763D01*
X-4102Y-4482D01*
X-4046Y-4257D01*
X-3990Y-4145D01*
X-3933Y-4088D01*
X-3821Y-4032D01*
X-2921Y-5101D02*
X-2865Y-5157D01*
X-2921Y-5213D01*
X-2977Y-5157D01*
X-2921Y-5101D01*
X-2921Y-5213D01*
X-2190Y-4538D02*
X-2302Y-4482D01*
X-2359Y-4426D01*
X-2415Y-4313D01*
X-2415Y-4257D01*
X-2359Y-4145D01*
X-2302Y-4088D01*
X-2190Y-4032D01*
X-1965Y-4032D01*
X-1852Y-4088D01*
X-1796Y-4145D01*
X-1740Y-4257D01*
X-1740Y-4313D01*
X-1796Y-4426D01*
X-1852Y-4482D01*
X-1965Y-4538D01*
X-2190Y-4538D01*
X-2302Y-4595D01*
X-2359Y-4651D01*
X-2415Y-4763D01*
X-2415Y-4988D01*
X-2359Y-5101D01*
X-2302Y-5157D01*
X-2190Y-5213D01*
X-1965Y-5213D01*
X-1852Y-5157D01*
X-1796Y-5101D01*
X-1740Y-4988D01*
X-1740Y-4763D01*
X-1796Y-4651D01*
X-1852Y-4595D01*
X-1965Y-4538D01*
X-1009Y-4032D02*
X-896Y-4032D01*
X-784Y-4088D01*
X-728Y-4145D01*
X-671Y-4257D01*
X-615Y-4482D01*
X-615Y-4763D01*
X-671Y-4988D01*
X-728Y-5101D01*
X-784Y-5157D01*
X-896Y-5213D01*
X-1009Y-5213D01*
X-1121Y-5157D01*
X-1177Y-5101D01*
X-1234Y-4988D01*
X-1290Y-4763D01*
X-1290Y-4482D01*
X-1234Y-4257D01*
X-1177Y-4145D01*
X-1121Y-4088D01*
X-1009Y-4032D01*
X-109Y-5213D02*
X-109Y-4426D01*
X-109Y-4538D02*
X-53Y-4482D01*
X59Y-4426D01*
X228Y-4426D01*
X340Y-4482D01*
X396Y-4595D01*
X396Y-5213D01*
X396Y-4595D02*
X453Y-4482D01*
X565Y-4426D01*
X734Y-4426D01*
X846Y-4482D01*
X902Y-4595D01*
X902Y-5213D01*
X1465Y-5213D02*
X1465Y-4426D01*
X1465Y-4538D02*
X1521Y-4482D01*
X1634Y-4426D01*
X1802Y-4426D01*
X1915Y-4482D01*
X1971Y-4595D01*
X1971Y-5213D01*
X1971Y-4595D02*
X2027Y-4482D01*
X2140Y-4426D01*
X2309Y-4426D01*
X2421Y-4482D01*
X2477Y-4595D01*
X2477Y-5213D01*
X4783Y-3976D02*
X3771Y-5495D01*
X6302Y-4032D02*
X6414Y-4032D01*
X6527Y-4088D01*
X6583Y-4145D01*
X6639Y-4257D01*
X6696Y-4482D01*
X6696Y-4763D01*
X6639Y-4988D01*
X6583Y-5101D01*
X6527Y-5157D01*
X6414Y-5213D01*
X6302Y-5213D01*
X6189Y-5157D01*
X6133Y-5101D01*
X6077Y-4988D01*
X6021Y-4763D01*
X6021Y-4482D01*
X6077Y-4257D01*
X6133Y-4145D01*
X6189Y-4088D01*
X6302Y-4032D01*
X7202Y-5101D02*
X7258Y-5157D01*
X7202Y-5213D01*
X7145Y-5157D01*
X7202Y-5101D01*
X7202Y-5213D01*
X7989Y-4032D02*
X8102Y-4032D01*
X8214Y-4088D01*
X8270Y-4145D01*
X8327Y-4257D01*
X8383Y-4482D01*
X8383Y-4763D01*
X8327Y-4988D01*
X8270Y-5101D01*
X8214Y-5157D01*
X8102Y-5213D01*
X7989Y-5213D01*
X7877Y-5157D01*
X7820Y-5101D01*
X7764Y-4988D01*
X7708Y-4763D01*
X7708Y-4482D01*
X7764Y-4257D01*
X7820Y-4145D01*
X7877Y-4088D01*
X7989Y-4032D01*
X8777Y-4032D02*
X9508Y-4032D01*
X9114Y-4482D01*
X9283Y-4482D01*
X9395Y-4538D01*
X9451Y-4595D01*
X9508Y-4707D01*
X9508Y-4988D01*
X9451Y-5101D01*
X9395Y-5157D01*
X9283Y-5213D01*
X8945Y-5213D01*
X8833Y-5157D01*
X8777Y-5101D01*
X9958Y-4145D02*
X10014Y-4088D01*
X10126Y-4032D01*
X10408Y-4032D01*
X10520Y-4088D01*
X10576Y-4145D01*
X10633Y-4257D01*
X10633Y-4370D01*
X10576Y-4538D01*
X9901Y-5213D01*
X10633Y-5213D01*
X11082Y-4032D02*
X11082Y-4257D01*
X11532Y-4032D02*
X11532Y-4257D01*
X13276Y-5663D02*
X13220Y-5607D01*
X13107Y-5438D01*
X13051Y-5326D01*
X12995Y-5157D01*
X12938Y-4876D01*
X12938Y-4651D01*
X12995Y-4370D01*
X13051Y-4201D01*
X13107Y-4088D01*
X13220Y-3920D01*
X13276Y-3863D01*
X13613Y-4032D02*
X14345Y-4032D01*
X13951Y-4482D01*
X14120Y-4482D01*
X14232Y-4538D01*
X14288Y-4595D01*
X14345Y-4707D01*
X14345Y-4988D01*
X14288Y-5101D01*
X14232Y-5157D01*
X14120Y-5213D01*
X13782Y-5213D01*
X13670Y-5157D01*
X13613Y-5101D01*
X15076Y-4032D02*
X15188Y-4032D01*
X15301Y-4088D01*
X15357Y-4145D01*
X15413Y-4257D01*
X15469Y-4482D01*
X15469Y-4763D01*
X15413Y-4988D01*
X15357Y-5101D01*
X15301Y-5157D01*
X15188Y-5213D01*
X15076Y-5213D01*
X14963Y-5157D01*
X14907Y-5101D01*
X14851Y-4988D01*
X14795Y-4763D01*
X14795Y-4482D01*
X14851Y-4257D01*
X14907Y-4145D01*
X14963Y-4088D01*
X15076Y-4032D01*
X16876Y-5213D02*
X16876Y-4032D01*
X17382Y-5213D02*
X17382Y-4595D01*
X17325Y-4482D01*
X17213Y-4426D01*
X17044Y-4426D01*
X16932Y-4482D01*
X16876Y-4538D01*
X18113Y-5213D02*
X18000Y-5157D01*
X17944Y-5101D01*
X17888Y-4988D01*
X17888Y-4651D01*
X17944Y-4538D01*
X18000Y-4482D01*
X18113Y-4426D01*
X18282Y-4426D01*
X18394Y-4482D01*
X18450Y-4538D01*
X18507Y-4651D01*
X18507Y-4988D01*
X18450Y-5101D01*
X18394Y-5157D01*
X18282Y-5213D01*
X18113Y-5213D01*
X19181Y-5213D02*
X19069Y-5157D01*
X19013Y-5045D01*
X19013Y-4032D01*
X20081Y-5157D02*
X19969Y-5213D01*
X19744Y-5213D01*
X19631Y-5157D01*
X19575Y-5045D01*
X19575Y-4595D01*
X19631Y-4482D01*
X19744Y-4426D01*
X19969Y-4426D01*
X20081Y-4482D01*
X20138Y-4595D01*
X20138Y-4707D01*
X19575Y-4820D01*
X20588Y-5157D02*
X20700Y-5213D01*
X20925Y-5213D01*
X21037Y-5157D01*
X21094Y-5045D01*
X21094Y-4988D01*
X21037Y-4876D01*
X20925Y-4820D01*
X20756Y-4820D01*
X20644Y-4763D01*
X20588Y-4651D01*
X20588Y-4595D01*
X20644Y-4482D01*
X20756Y-4426D01*
X20925Y-4426D01*
X21037Y-4482D01*
X21487Y-5663D02*
X21544Y-5607D01*
X21656Y-5438D01*
X21712Y-5326D01*
X21769Y-5157D01*
X21825Y-4876D01*
X21825Y-4651D01*
X21769Y-4370D01*
X21712Y-4201D01*
X21656Y-4088D01*
X21544Y-3920D01*
X21487Y-3863D01*
X-5435Y-6134D02*
X-5115Y-6454D01*
X-5115Y-6134D02*
X-5435Y-6454D01*
G54D11*
X-5115Y-6294D02*
G75*
G03X-5115Y-6294I-160J0D01*
G74*
G01*
G54D12*
X-3821Y-5591D02*
X-3708Y-5591D01*
X-3596Y-5648D01*
X-3540Y-5704D01*
X-3483Y-5816D01*
X-3427Y-6041D01*
X-3427Y-6322D01*
X-3483Y-6547D01*
X-3540Y-6660D01*
X-3596Y-6716D01*
X-3708Y-6772D01*
X-3821Y-6772D01*
X-3933Y-6716D01*
X-3990Y-6660D01*
X-4046Y-6547D01*
X-4102Y-6322D01*
X-4102Y-6041D01*
X-4046Y-5816D01*
X-3990Y-5704D01*
X-3933Y-5648D01*
X-3821Y-5591D01*
X-2921Y-6660D02*
X-2865Y-6716D01*
X-2921Y-6772D01*
X-2977Y-6716D01*
X-2921Y-6660D01*
X-2921Y-6772D01*
X-2190Y-6097D02*
X-2302Y-6041D01*
X-2359Y-5985D01*
X-2415Y-5872D01*
X-2415Y-5816D01*
X-2359Y-5704D01*
X-2302Y-5648D01*
X-2190Y-5591D01*
X-1965Y-5591D01*
X-1852Y-5648D01*
X-1796Y-5704D01*
X-1740Y-5816D01*
X-1740Y-5872D01*
X-1796Y-5985D01*
X-1852Y-6041D01*
X-1965Y-6097D01*
X-2190Y-6097D01*
X-2302Y-6154D01*
X-2359Y-6210D01*
X-2415Y-6322D01*
X-2415Y-6547D01*
X-2359Y-6660D01*
X-2302Y-6716D01*
X-2190Y-6772D01*
X-1965Y-6772D01*
X-1852Y-6716D01*
X-1796Y-6660D01*
X-1740Y-6547D01*
X-1740Y-6322D01*
X-1796Y-6210D01*
X-1852Y-6154D01*
X-1965Y-6097D01*
X-615Y-6772D02*
X-1290Y-6772D01*
X-953Y-6772D02*
X-953Y-5591D01*
X-1065Y-5760D01*
X-1177Y-5872D01*
X-1290Y-5929D01*
X-109Y-6772D02*
X-109Y-5985D01*
X-109Y-6097D02*
X-53Y-6041D01*
X59Y-5985D01*
X228Y-5985D01*
X340Y-6041D01*
X396Y-6154D01*
X396Y-6772D01*
X396Y-6154D02*
X453Y-6041D01*
X565Y-5985D01*
X734Y-5985D01*
X846Y-6041D01*
X902Y-6154D01*
X902Y-6772D01*
X1465Y-6772D02*
X1465Y-5985D01*
X1465Y-6097D02*
X1521Y-6041D01*
X1634Y-5985D01*
X1802Y-5985D01*
X1915Y-6041D01*
X1971Y-6154D01*
X1971Y-6772D01*
X1971Y-6154D02*
X2027Y-6041D01*
X2140Y-5985D01*
X2309Y-5985D01*
X2421Y-6041D01*
X2477Y-6154D01*
X2477Y-6772D01*
X4783Y-5535D02*
X3771Y-7054D01*
X6302Y-5591D02*
X6414Y-5591D01*
X6527Y-5648D01*
X6583Y-5704D01*
X6639Y-5816D01*
X6696Y-6041D01*
X6696Y-6322D01*
X6639Y-6547D01*
X6583Y-6660D01*
X6527Y-6716D01*
X6414Y-6772D01*
X6302Y-6772D01*
X6189Y-6716D01*
X6133Y-6660D01*
X6077Y-6547D01*
X6021Y-6322D01*
X6021Y-6041D01*
X6077Y-5816D01*
X6133Y-5704D01*
X6189Y-5648D01*
X6302Y-5591D01*
X7202Y-6660D02*
X7258Y-6716D01*
X7202Y-6772D01*
X7145Y-6716D01*
X7202Y-6660D01*
X7202Y-6772D01*
X7989Y-5591D02*
X8102Y-5591D01*
X8214Y-5648D01*
X8270Y-5704D01*
X8327Y-5816D01*
X8383Y-6041D01*
X8383Y-6322D01*
X8327Y-6547D01*
X8270Y-6660D01*
X8214Y-6716D01*
X8102Y-6772D01*
X7989Y-6772D01*
X7877Y-6716D01*
X7820Y-6660D01*
X7764Y-6547D01*
X7708Y-6322D01*
X7708Y-6041D01*
X7764Y-5816D01*
X7820Y-5704D01*
X7877Y-5648D01*
X7989Y-5591D01*
X8777Y-5591D02*
X9508Y-5591D01*
X9114Y-6041D01*
X9283Y-6041D01*
X9395Y-6097D01*
X9451Y-6154D01*
X9508Y-6266D01*
X9508Y-6547D01*
X9451Y-6660D01*
X9395Y-6716D01*
X9283Y-6772D01*
X8945Y-6772D01*
X8833Y-6716D01*
X8777Y-6660D01*
X9958Y-5704D02*
X10014Y-5648D01*
X10126Y-5591D01*
X10408Y-5591D01*
X10520Y-5648D01*
X10576Y-5704D01*
X10633Y-5816D01*
X10633Y-5929D01*
X10576Y-6097D01*
X9901Y-6772D01*
X10633Y-6772D01*
X11082Y-5591D02*
X11082Y-5816D01*
X11532Y-5591D02*
X11532Y-5816D01*
X13276Y-7222D02*
X13220Y-7166D01*
X13107Y-6997D01*
X13051Y-6885D01*
X12995Y-6716D01*
X12938Y-6435D01*
X12938Y-6210D01*
X12995Y-5929D01*
X13051Y-5760D01*
X13107Y-5648D01*
X13220Y-5479D01*
X13276Y-5423D01*
X14345Y-6772D02*
X13670Y-6772D01*
X14007Y-6772D02*
X14007Y-5591D01*
X13895Y-5760D01*
X13782Y-5872D01*
X13670Y-5929D01*
X14907Y-6772D02*
X15132Y-6772D01*
X15244Y-6716D01*
X15301Y-6660D01*
X15413Y-6491D01*
X15469Y-6266D01*
X15469Y-5816D01*
X15413Y-5704D01*
X15357Y-5648D01*
X15244Y-5591D01*
X15019Y-5591D01*
X14907Y-5648D01*
X14851Y-5704D01*
X14795Y-5816D01*
X14795Y-6097D01*
X14851Y-6210D01*
X14907Y-6266D01*
X15019Y-6322D01*
X15244Y-6322D01*
X15357Y-6266D01*
X15413Y-6210D01*
X15469Y-6097D01*
X16144Y-6097D02*
X16032Y-6041D01*
X15976Y-5985D01*
X15919Y-5872D01*
X15919Y-5816D01*
X15976Y-5704D01*
X16032Y-5648D01*
X16144Y-5591D01*
X16369Y-5591D01*
X16482Y-5648D01*
X16538Y-5704D01*
X16594Y-5816D01*
X16594Y-5872D01*
X16538Y-5985D01*
X16482Y-6041D01*
X16369Y-6097D01*
X16144Y-6097D01*
X16032Y-6154D01*
X15976Y-6210D01*
X15919Y-6322D01*
X15919Y-6547D01*
X15976Y-6660D01*
X16032Y-6716D01*
X16144Y-6772D01*
X16369Y-6772D01*
X16482Y-6716D01*
X16538Y-6660D01*
X16594Y-6547D01*
X16594Y-6322D01*
X16538Y-6210D01*
X16482Y-6154D01*
X16369Y-6097D01*
X18000Y-6772D02*
X18000Y-5591D01*
X18507Y-6772D02*
X18507Y-6154D01*
X18450Y-6041D01*
X18338Y-5985D01*
X18169Y-5985D01*
X18057Y-6041D01*
X18000Y-6097D01*
X19238Y-6772D02*
X19125Y-6716D01*
X19069Y-6660D01*
X19013Y-6547D01*
X19013Y-6210D01*
X19069Y-6097D01*
X19125Y-6041D01*
X19238Y-5985D01*
X19406Y-5985D01*
X19519Y-6041D01*
X19575Y-6097D01*
X19631Y-6210D01*
X19631Y-6547D01*
X19575Y-6660D01*
X19519Y-6716D01*
X19406Y-6772D01*
X19238Y-6772D01*
X20306Y-6772D02*
X20194Y-6716D01*
X20138Y-6604D01*
X20138Y-5591D01*
X21206Y-6716D02*
X21094Y-6772D01*
X20869Y-6772D01*
X20756Y-6716D01*
X20700Y-6604D01*
X20700Y-6154D01*
X20756Y-6041D01*
X20869Y-5985D01*
X21094Y-5985D01*
X21206Y-6041D01*
X21262Y-6154D01*
X21262Y-6266D01*
X20700Y-6379D01*
X21712Y-6716D02*
X21825Y-6772D01*
X22050Y-6772D01*
X22162Y-6716D01*
X22219Y-6604D01*
X22219Y-6547D01*
X22162Y-6435D01*
X22050Y-6379D01*
X21881Y-6379D01*
X21769Y-6322D01*
X21712Y-6210D01*
X21712Y-6154D01*
X21769Y-6041D01*
X21881Y-5985D01*
X22050Y-5985D01*
X22162Y-6041D01*
X22612Y-7222D02*
X22669Y-7166D01*
X22781Y-6997D01*
X22837Y-6885D01*
X22893Y-6716D01*
X22950Y-6435D01*
X22950Y-6210D01*
X22893Y-5929D01*
X22837Y-5760D01*
X22781Y-5648D01*
X22669Y-5479D01*
X22612Y-5423D01*
X-5508Y-7657D02*
X-5115Y-8050D01*
X-5115Y-7657D02*
X-5508Y-8050D01*
X-5311Y-7657D02*
X-5311Y-8050D01*
X-5508Y-7853D02*
X-5115Y-7853D01*
X-3427Y-8331D02*
X-4102Y-8331D01*
X-3765Y-8331D02*
X-3765Y-7150D01*
X-3877Y-7319D01*
X-3990Y-7432D01*
X-4102Y-7488D01*
X-2921Y-8219D02*
X-2865Y-8275D01*
X-2921Y-8331D01*
X-2977Y-8275D01*
X-2921Y-8219D01*
X-2921Y-8331D01*
X-2134Y-7150D02*
X-2021Y-7150D01*
X-1909Y-7207D01*
X-1852Y-7263D01*
X-1796Y-7375D01*
X-1740Y-7600D01*
X-1740Y-7881D01*
X-1796Y-8106D01*
X-1852Y-8219D01*
X-1909Y-8275D01*
X-2021Y-8331D01*
X-2134Y-8331D01*
X-2246Y-8275D01*
X-2302Y-8219D01*
X-2359Y-8106D01*
X-2415Y-7881D01*
X-2415Y-7600D01*
X-2359Y-7375D01*
X-2302Y-7263D01*
X-2246Y-7207D01*
X-2134Y-7150D01*
X-1009Y-7150D02*
X-896Y-7150D01*
X-784Y-7207D01*
X-728Y-7263D01*
X-671Y-7375D01*
X-615Y-7600D01*
X-615Y-7881D01*
X-671Y-8106D01*
X-728Y-8219D01*
X-784Y-8275D01*
X-896Y-8331D01*
X-1009Y-8331D01*
X-1121Y-8275D01*
X-1177Y-8219D01*
X-1234Y-8106D01*
X-1290Y-7881D01*
X-1290Y-7600D01*
X-1234Y-7375D01*
X-1177Y-7263D01*
X-1121Y-7207D01*
X-1009Y-7150D01*
X-109Y-8331D02*
X-109Y-7544D01*
X-109Y-7657D02*
X-53Y-7600D01*
X59Y-7544D01*
X228Y-7544D01*
X340Y-7600D01*
X396Y-7713D01*
X396Y-8331D01*
X396Y-7713D02*
X453Y-7600D01*
X565Y-7544D01*
X734Y-7544D01*
X846Y-7600D01*
X902Y-7713D01*
X902Y-8331D01*
X1465Y-8331D02*
X1465Y-7544D01*
X1465Y-7657D02*
X1521Y-7600D01*
X1634Y-7544D01*
X1802Y-7544D01*
X1915Y-7600D01*
X1971Y-7713D01*
X1971Y-8331D01*
X1971Y-7713D02*
X2027Y-7600D01*
X2140Y-7544D01*
X2309Y-7544D01*
X2421Y-7600D01*
X2477Y-7713D01*
X2477Y-8331D01*
X4783Y-7094D02*
X3771Y-8613D01*
X6302Y-7150D02*
X6414Y-7150D01*
X6527Y-7207D01*
X6583Y-7263D01*
X6639Y-7375D01*
X6696Y-7600D01*
X6696Y-7881D01*
X6639Y-8106D01*
X6583Y-8219D01*
X6527Y-8275D01*
X6414Y-8331D01*
X6302Y-8331D01*
X6189Y-8275D01*
X6133Y-8219D01*
X6077Y-8106D01*
X6021Y-7881D01*
X6021Y-7600D01*
X6077Y-7375D01*
X6133Y-7263D01*
X6189Y-7207D01*
X6302Y-7150D01*
X7202Y-8219D02*
X7258Y-8275D01*
X7202Y-8331D01*
X7145Y-8275D01*
X7202Y-8219D01*
X7202Y-8331D01*
X7989Y-7150D02*
X8102Y-7150D01*
X8214Y-7207D01*
X8270Y-7263D01*
X8327Y-7375D01*
X8383Y-7600D01*
X8383Y-7881D01*
X8327Y-8106D01*
X8270Y-8219D01*
X8214Y-8275D01*
X8102Y-8331D01*
X7989Y-8331D01*
X7877Y-8275D01*
X7820Y-8219D01*
X7764Y-8106D01*
X7708Y-7881D01*
X7708Y-7600D01*
X7764Y-7375D01*
X7820Y-7263D01*
X7877Y-7207D01*
X7989Y-7150D01*
X8777Y-7150D02*
X9508Y-7150D01*
X9114Y-7600D01*
X9283Y-7600D01*
X9395Y-7657D01*
X9451Y-7713D01*
X9508Y-7825D01*
X9508Y-8106D01*
X9451Y-8219D01*
X9395Y-8275D01*
X9283Y-8331D01*
X8945Y-8331D01*
X8833Y-8275D01*
X8777Y-8219D01*
X10070Y-8331D02*
X10295Y-8331D01*
X10408Y-8275D01*
X10464Y-8219D01*
X10576Y-8050D01*
X10633Y-7825D01*
X10633Y-7375D01*
X10576Y-7263D01*
X10520Y-7207D01*
X10408Y-7150D01*
X10183Y-7150D01*
X10070Y-7207D01*
X10014Y-7263D01*
X9958Y-7375D01*
X9958Y-7657D01*
X10014Y-7769D01*
X10070Y-7825D01*
X10183Y-7881D01*
X10408Y-7881D01*
X10520Y-7825D01*
X10576Y-7769D01*
X10633Y-7657D01*
X11082Y-7150D02*
X11082Y-7375D01*
X11532Y-7150D02*
X11532Y-7375D01*
X13276Y-8781D02*
X13220Y-8725D01*
X13107Y-8556D01*
X13051Y-8444D01*
X12995Y-8275D01*
X12938Y-7994D01*
X12938Y-7769D01*
X12995Y-7488D01*
X13051Y-7319D01*
X13107Y-7207D01*
X13220Y-7038D01*
X13276Y-6982D01*
X13613Y-7150D02*
X14345Y-7150D01*
X13951Y-7600D01*
X14120Y-7600D01*
X14232Y-7657D01*
X14288Y-7713D01*
X14345Y-7825D01*
X14345Y-8106D01*
X14288Y-8219D01*
X14232Y-8275D01*
X14120Y-8331D01*
X13782Y-8331D01*
X13670Y-8275D01*
X13613Y-8219D01*
X15357Y-7150D02*
X15132Y-7150D01*
X15019Y-7207D01*
X14963Y-7263D01*
X14851Y-7432D01*
X14795Y-7657D01*
X14795Y-8106D01*
X14851Y-8219D01*
X14907Y-8275D01*
X15019Y-8331D01*
X15244Y-8331D01*
X15357Y-8275D01*
X15413Y-8219D01*
X15469Y-8106D01*
X15469Y-7825D01*
X15413Y-7713D01*
X15357Y-7657D01*
X15244Y-7600D01*
X15019Y-7600D01*
X14907Y-7657D01*
X14851Y-7713D01*
X14795Y-7825D01*
X16876Y-8331D02*
X16876Y-7150D01*
X17382Y-8331D02*
X17382Y-7713D01*
X17325Y-7600D01*
X17213Y-7544D01*
X17044Y-7544D01*
X16932Y-7600D01*
X16876Y-7657D01*
X18113Y-8331D02*
X18000Y-8275D01*
X17944Y-8219D01*
X17888Y-8106D01*
X17888Y-7769D01*
X17944Y-7657D01*
X18000Y-7600D01*
X18113Y-7544D01*
X18282Y-7544D01*
X18394Y-7600D01*
X18450Y-7657D01*
X18507Y-7769D01*
X18507Y-8106D01*
X18450Y-8219D01*
X18394Y-8275D01*
X18282Y-8331D01*
X18113Y-8331D01*
X19181Y-8331D02*
X19069Y-8275D01*
X19013Y-8163D01*
X19013Y-7150D01*
X20081Y-8275D02*
X19969Y-8331D01*
X19744Y-8331D01*
X19631Y-8275D01*
X19575Y-8163D01*
X19575Y-7713D01*
X19631Y-7600D01*
X19744Y-7544D01*
X19969Y-7544D01*
X20081Y-7600D01*
X20138Y-7713D01*
X20138Y-7825D01*
X19575Y-7938D01*
X20588Y-8275D02*
X20700Y-8331D01*
X20925Y-8331D01*
X21037Y-8275D01*
X21094Y-8163D01*
X21094Y-8106D01*
X21037Y-7994D01*
X20925Y-7938D01*
X20756Y-7938D01*
X20644Y-7881D01*
X20588Y-7769D01*
X20588Y-7713D01*
X20644Y-7600D01*
X20756Y-7544D01*
X20925Y-7544D01*
X21037Y-7600D01*
X21487Y-8781D02*
X21544Y-8725D01*
X21656Y-8556D01*
X21712Y-8444D01*
X21769Y-8275D01*
X21825Y-7994D01*
X21825Y-7769D01*
X21769Y-7488D01*
X21712Y-7319D01*
X21656Y-7207D01*
X21544Y-7038D01*
X21487Y-6982D01*
X-5508Y-9216D02*
X-5115Y-9609D01*
X-5115Y-9216D02*
X-5508Y-9609D01*
G54D11*
X-5172Y-9552D02*
X-5172Y-9273D01*
X-5451Y-9273D01*
X-5451Y-9552D01*
X-5172Y-9552D01*
G54D12*
X-3427Y-9890D02*
X-4102Y-9890D01*
X-3765Y-9890D02*
X-3765Y-8709D01*
X-3877Y-8878D01*
X-3990Y-8991D01*
X-4102Y-9047D01*
X-2921Y-9778D02*
X-2865Y-9834D01*
X-2921Y-9890D01*
X-2977Y-9834D01*
X-2921Y-9778D01*
X-2921Y-9890D01*
X-2134Y-8709D02*
X-2021Y-8709D01*
X-1909Y-8766D01*
X-1852Y-8822D01*
X-1796Y-8934D01*
X-1740Y-9159D01*
X-1740Y-9441D01*
X-1796Y-9666D01*
X-1852Y-9778D01*
X-1909Y-9834D01*
X-2021Y-9890D01*
X-2134Y-9890D01*
X-2246Y-9834D01*
X-2302Y-9778D01*
X-2359Y-9666D01*
X-2415Y-9441D01*
X-2415Y-9159D01*
X-2359Y-8934D01*
X-2302Y-8822D01*
X-2246Y-8766D01*
X-2134Y-8709D01*
X-1009Y-8709D02*
X-896Y-8709D01*
X-784Y-8766D01*
X-728Y-8822D01*
X-671Y-8934D01*
X-615Y-9159D01*
X-615Y-9441D01*
X-671Y-9666D01*
X-728Y-9778D01*
X-784Y-9834D01*
X-896Y-9890D01*
X-1009Y-9890D01*
X-1121Y-9834D01*
X-1177Y-9778D01*
X-1234Y-9666D01*
X-1290Y-9441D01*
X-1290Y-9159D01*
X-1234Y-8934D01*
X-1177Y-8822D01*
X-1121Y-8766D01*
X-1009Y-8709D01*
X-109Y-9890D02*
X-109Y-9103D01*
X-109Y-9216D02*
X-53Y-9159D01*
X59Y-9103D01*
X228Y-9103D01*
X340Y-9159D01*
X396Y-9272D01*
X396Y-9890D01*
X396Y-9272D02*
X453Y-9159D01*
X565Y-9103D01*
X734Y-9103D01*
X846Y-9159D01*
X902Y-9272D01*
X902Y-9890D01*
X1465Y-9890D02*
X1465Y-9103D01*
X1465Y-9216D02*
X1521Y-9159D01*
X1634Y-9103D01*
X1802Y-9103D01*
X1915Y-9159D01*
X1971Y-9272D01*
X1971Y-9890D01*
X1971Y-9272D02*
X2027Y-9159D01*
X2140Y-9103D01*
X2309Y-9103D01*
X2421Y-9159D01*
X2477Y-9272D01*
X2477Y-9890D01*
X4783Y-8653D02*
X3771Y-10172D01*
X6302Y-8709D02*
X6414Y-8709D01*
X6527Y-8766D01*
X6583Y-8822D01*
X6639Y-8934D01*
X6696Y-9159D01*
X6696Y-9441D01*
X6639Y-9666D01*
X6583Y-9778D01*
X6527Y-9834D01*
X6414Y-9890D01*
X6302Y-9890D01*
X6189Y-9834D01*
X6133Y-9778D01*
X6077Y-9666D01*
X6021Y-9441D01*
X6021Y-9159D01*
X6077Y-8934D01*
X6133Y-8822D01*
X6189Y-8766D01*
X6302Y-8709D01*
X7202Y-9778D02*
X7258Y-9834D01*
X7202Y-9890D01*
X7145Y-9834D01*
X7202Y-9778D01*
X7202Y-9890D01*
X7989Y-8709D02*
X8102Y-8709D01*
X8214Y-8766D01*
X8270Y-8822D01*
X8327Y-8934D01*
X8383Y-9159D01*
X8383Y-9441D01*
X8327Y-9666D01*
X8270Y-9778D01*
X8214Y-9834D01*
X8102Y-9890D01*
X7989Y-9890D01*
X7877Y-9834D01*
X7820Y-9778D01*
X7764Y-9666D01*
X7708Y-9441D01*
X7708Y-9159D01*
X7764Y-8934D01*
X7820Y-8822D01*
X7877Y-8766D01*
X7989Y-8709D01*
X8777Y-8709D02*
X9508Y-8709D01*
X9114Y-9159D01*
X9283Y-9159D01*
X9395Y-9216D01*
X9451Y-9272D01*
X9508Y-9384D01*
X9508Y-9666D01*
X9451Y-9778D01*
X9395Y-9834D01*
X9283Y-9890D01*
X8945Y-9890D01*
X8833Y-9834D01*
X8777Y-9778D01*
X10070Y-9890D02*
X10295Y-9890D01*
X10408Y-9834D01*
X10464Y-9778D01*
X10576Y-9609D01*
X10633Y-9384D01*
X10633Y-8934D01*
X10576Y-8822D01*
X10520Y-8766D01*
X10408Y-8709D01*
X10183Y-8709D01*
X10070Y-8766D01*
X10014Y-8822D01*
X9958Y-8934D01*
X9958Y-9216D01*
X10014Y-9328D01*
X10070Y-9384D01*
X10183Y-9441D01*
X10408Y-9441D01*
X10520Y-9384D01*
X10576Y-9328D01*
X10633Y-9216D01*
X11082Y-8709D02*
X11082Y-8934D01*
X11532Y-8709D02*
X11532Y-8934D01*
X13276Y-10340D02*
X13220Y-10284D01*
X13107Y-10115D01*
X13051Y-10003D01*
X12995Y-9834D01*
X12938Y-9553D01*
X12938Y-9328D01*
X12995Y-9047D01*
X13051Y-8878D01*
X13107Y-8766D01*
X13220Y-8597D01*
X13276Y-8541D01*
X14232Y-9103D02*
X14232Y-9890D01*
X13951Y-8653D02*
X13670Y-9497D01*
X14401Y-9497D01*
X15413Y-8709D02*
X14851Y-8709D01*
X14795Y-9272D01*
X14851Y-9216D01*
X14963Y-9159D01*
X15244Y-9159D01*
X15357Y-9216D01*
X15413Y-9272D01*
X15469Y-9384D01*
X15469Y-9666D01*
X15413Y-9778D01*
X15357Y-9834D01*
X15244Y-9890D01*
X14963Y-9890D01*
X14851Y-9834D01*
X14795Y-9778D01*
X16876Y-9890D02*
X16876Y-8709D01*
X17382Y-9890D02*
X17382Y-9272D01*
X17325Y-9159D01*
X17213Y-9103D01*
X17044Y-9103D01*
X16932Y-9159D01*
X16876Y-9216D01*
X18113Y-9890D02*
X18000Y-9834D01*
X17944Y-9778D01*
X17888Y-9666D01*
X17888Y-9328D01*
X17944Y-9216D01*
X18000Y-9159D01*
X18113Y-9103D01*
X18282Y-9103D01*
X18394Y-9159D01*
X18450Y-9216D01*
X18507Y-9328D01*
X18507Y-9666D01*
X18450Y-9778D01*
X18394Y-9834D01*
X18282Y-9890D01*
X18113Y-9890D01*
X19181Y-9890D02*
X19069Y-9834D01*
X19013Y-9722D01*
X19013Y-8709D01*
X20081Y-9834D02*
X19969Y-9890D01*
X19744Y-9890D01*
X19631Y-9834D01*
X19575Y-9722D01*
X19575Y-9272D01*
X19631Y-9159D01*
X19744Y-9103D01*
X19969Y-9103D01*
X20081Y-9159D01*
X20138Y-9272D01*
X20138Y-9384D01*
X19575Y-9497D01*
X20588Y-9834D02*
X20700Y-9890D01*
X20925Y-9890D01*
X21037Y-9834D01*
X21094Y-9722D01*
X21094Y-9666D01*
X21037Y-9553D01*
X20925Y-9497D01*
X20756Y-9497D01*
X20644Y-9441D01*
X20588Y-9328D01*
X20588Y-9272D01*
X20644Y-9159D01*
X20756Y-9103D01*
X20925Y-9103D01*
X21037Y-9159D01*
X21487Y-10340D02*
X21544Y-10284D01*
X21656Y-10115D01*
X21712Y-10003D01*
X21769Y-9834D01*
X21825Y-9553D01*
X21825Y-9328D01*
X21769Y-9047D01*
X21712Y-8878D01*
X21656Y-8766D01*
X21544Y-8597D01*
X21487Y-8541D01*
X-5515Y-10771D02*
X-5115Y-11171D01*
X-5115Y-10771D02*
X-5515Y-11171D01*
G54D11*
X-5315Y-11171D02*
X-5115Y-10971D01*
X-5315Y-10771D01*
X-5515Y-10971D01*
X-5315Y-11171D01*
G54D12*
X-3427Y-11450D02*
X-4102Y-11450D01*
X-3765Y-11450D02*
X-3765Y-10268D01*
X-3877Y-10437D01*
X-3990Y-10550D01*
X-4102Y-10606D01*
X-2921Y-11337D02*
X-2865Y-11393D01*
X-2921Y-11450D01*
X-2977Y-11393D01*
X-2921Y-11337D01*
X-2921Y-11450D01*
X-2134Y-10268D02*
X-2021Y-10268D01*
X-1909Y-10325D01*
X-1852Y-10381D01*
X-1796Y-10493D01*
X-1740Y-10718D01*
X-1740Y-11000D01*
X-1796Y-11225D01*
X-1852Y-11337D01*
X-1909Y-11393D01*
X-2021Y-11450D01*
X-2134Y-11450D01*
X-2246Y-11393D01*
X-2302Y-11337D01*
X-2359Y-11225D01*
X-2415Y-11000D01*
X-2415Y-10718D01*
X-2359Y-10493D01*
X-2302Y-10381D01*
X-2246Y-10325D01*
X-2134Y-10268D01*
X-1290Y-10381D02*
X-1234Y-10325D01*
X-1121Y-10268D01*
X-840Y-10268D01*
X-728Y-10325D01*
X-671Y-10381D01*
X-615Y-10493D01*
X-615Y-10606D01*
X-671Y-10775D01*
X-1346Y-11450D01*
X-615Y-11450D01*
X-109Y-11450D02*
X-109Y-10662D01*
X-109Y-10775D02*
X-53Y-10718D01*
X59Y-10662D01*
X228Y-10662D01*
X340Y-10718D01*
X396Y-10831D01*
X396Y-11450D01*
X396Y-10831D02*
X453Y-10718D01*
X565Y-10662D01*
X734Y-10662D01*
X846Y-10718D01*
X902Y-10831D01*
X902Y-11450D01*
X1465Y-11450D02*
X1465Y-10662D01*
X1465Y-10775D02*
X1521Y-10718D01*
X1634Y-10662D01*
X1802Y-10662D01*
X1915Y-10718D01*
X1971Y-10831D01*
X1971Y-11450D01*
X1971Y-10831D02*
X2027Y-10718D01*
X2140Y-10662D01*
X2309Y-10662D01*
X2421Y-10718D01*
X2477Y-10831D01*
X2477Y-11450D01*
X4783Y-10212D02*
X3771Y-11731D01*
X6302Y-10268D02*
X6414Y-10268D01*
X6527Y-10325D01*
X6583Y-10381D01*
X6639Y-10493D01*
X6696Y-10718D01*
X6696Y-11000D01*
X6639Y-11225D01*
X6583Y-11337D01*
X6527Y-11393D01*
X6414Y-11450D01*
X6302Y-11450D01*
X6189Y-11393D01*
X6133Y-11337D01*
X6077Y-11225D01*
X6021Y-11000D01*
X6021Y-10718D01*
X6077Y-10493D01*
X6133Y-10381D01*
X6189Y-10325D01*
X6302Y-10268D01*
X7202Y-11337D02*
X7258Y-11393D01*
X7202Y-11450D01*
X7145Y-11393D01*
X7202Y-11337D01*
X7202Y-11450D01*
X7989Y-10268D02*
X8102Y-10268D01*
X8214Y-10325D01*
X8270Y-10381D01*
X8327Y-10493D01*
X8383Y-10718D01*
X8383Y-11000D01*
X8327Y-11225D01*
X8270Y-11337D01*
X8214Y-11393D01*
X8102Y-11450D01*
X7989Y-11450D01*
X7877Y-11393D01*
X7820Y-11337D01*
X7764Y-11225D01*
X7708Y-11000D01*
X7708Y-10718D01*
X7764Y-10493D01*
X7820Y-10381D01*
X7877Y-10325D01*
X7989Y-10268D01*
X9395Y-10662D02*
X9395Y-11450D01*
X9114Y-10212D02*
X8833Y-11056D01*
X9564Y-11056D01*
X10239Y-10268D02*
X10351Y-10268D01*
X10464Y-10325D01*
X10520Y-10381D01*
X10576Y-10493D01*
X10633Y-10718D01*
X10633Y-11000D01*
X10576Y-11225D01*
X10520Y-11337D01*
X10464Y-11393D01*
X10351Y-11450D01*
X10239Y-11450D01*
X10126Y-11393D01*
X10070Y-11337D01*
X10014Y-11225D01*
X9958Y-11000D01*
X9958Y-10718D01*
X10014Y-10493D01*
X10070Y-10381D01*
X10126Y-10325D01*
X10239Y-10268D01*
X11082Y-10268D02*
X11082Y-10493D01*
X11532Y-10268D02*
X11532Y-10493D01*
X13276Y-11899D02*
X13220Y-11843D01*
X13107Y-11675D01*
X13051Y-11562D01*
X12995Y-11393D01*
X12938Y-11112D01*
X12938Y-10887D01*
X12995Y-10606D01*
X13051Y-10437D01*
X13107Y-10325D01*
X13220Y-10156D01*
X13276Y-10100D01*
X14232Y-10662D02*
X14232Y-11450D01*
X13951Y-10212D02*
X13670Y-11056D01*
X14401Y-11056D01*
X14738Y-10268D02*
X15526Y-10268D01*
X15019Y-11450D01*
X16876Y-11450D02*
X16876Y-10268D01*
X17382Y-11450D02*
X17382Y-10831D01*
X17325Y-10718D01*
X17213Y-10662D01*
X17044Y-10662D01*
X16932Y-10718D01*
X16876Y-10775D01*
X18113Y-11450D02*
X18000Y-11393D01*
X17944Y-11337D01*
X17888Y-11225D01*
X17888Y-10887D01*
X17944Y-10775D01*
X18000Y-10718D01*
X18113Y-10662D01*
X18282Y-10662D01*
X18394Y-10718D01*
X18450Y-10775D01*
X18507Y-10887D01*
X18507Y-11225D01*
X18450Y-11337D01*
X18394Y-11393D01*
X18282Y-11450D01*
X18113Y-11450D01*
X19181Y-11450D02*
X19069Y-11393D01*
X19013Y-11281D01*
X19013Y-10268D01*
X20081Y-11393D02*
X19969Y-11450D01*
X19744Y-11450D01*
X19631Y-11393D01*
X19575Y-11281D01*
X19575Y-10831D01*
X19631Y-10718D01*
X19744Y-10662D01*
X19969Y-10662D01*
X20081Y-10718D01*
X20138Y-10831D01*
X20138Y-10943D01*
X19575Y-11056D01*
X20588Y-11393D02*
X20700Y-11450D01*
X20925Y-11450D01*
X21037Y-11393D01*
X21094Y-11281D01*
X21094Y-11225D01*
X21037Y-11112D01*
X20925Y-11056D01*
X20756Y-11056D01*
X20644Y-11000D01*
X20588Y-10887D01*
X20588Y-10831D01*
X20644Y-10718D01*
X20756Y-10662D01*
X20925Y-10662D01*
X21037Y-10718D01*
X21487Y-11899D02*
X21544Y-11843D01*
X21656Y-11675D01*
X21712Y-11562D01*
X21769Y-11393D01*
X21825Y-11112D01*
X21825Y-10887D01*
X21769Y-10606D01*
X21712Y-10437D01*
X21656Y-10325D01*
X21544Y-10156D01*
X21487Y-10100D01*
X-5626Y-12019D02*
X-5626Y-13042D01*
X-6138Y-12531D02*
X-5115Y-12531D01*
G54D11*
X-5115Y-12531D02*
G75*
G03X-5115Y-12531I-511J0D01*
G74*
G01*
G54D12*
X-4102Y-11940D02*
X-4046Y-11884D01*
X-3933Y-11827D01*
X-3652Y-11827D01*
X-3540Y-11884D01*
X-3483Y-11940D01*
X-3427Y-12052D01*
X-3427Y-12165D01*
X-3483Y-12334D01*
X-4158Y-13009D01*
X-3427Y-13009D01*
X-2921Y-12896D02*
X-2865Y-12952D01*
X-2921Y-13009D01*
X-2977Y-12952D01*
X-2921Y-12896D01*
X-2921Y-13009D01*
X-1852Y-11827D02*
X-2077Y-11827D01*
X-2190Y-11884D01*
X-2246Y-11940D01*
X-2359Y-12109D01*
X-2415Y-12334D01*
X-2415Y-12784D01*
X-2359Y-12896D01*
X-2302Y-12952D01*
X-2190Y-13009D01*
X-1965Y-13009D01*
X-1852Y-12952D01*
X-1796Y-12896D01*
X-1740Y-12784D01*
X-1740Y-12502D01*
X-1796Y-12390D01*
X-1852Y-12334D01*
X-1965Y-12277D01*
X-2190Y-12277D01*
X-2302Y-12334D01*
X-2359Y-12390D01*
X-2415Y-12502D01*
X-1009Y-11827D02*
X-896Y-11827D01*
X-784Y-11884D01*
X-728Y-11940D01*
X-671Y-12052D01*
X-615Y-12277D01*
X-615Y-12559D01*
X-671Y-12784D01*
X-728Y-12896D01*
X-784Y-12952D01*
X-896Y-13009D01*
X-1009Y-13009D01*
X-1121Y-12952D01*
X-1177Y-12896D01*
X-1234Y-12784D01*
X-1290Y-12559D01*
X-1290Y-12277D01*
X-1234Y-12052D01*
X-1177Y-11940D01*
X-1121Y-11884D01*
X-1009Y-11827D01*
X-109Y-13009D02*
X-109Y-12221D01*
X-109Y-12334D02*
X-53Y-12277D01*
X59Y-12221D01*
X228Y-12221D01*
X340Y-12277D01*
X396Y-12390D01*
X396Y-13009D01*
X396Y-12390D02*
X453Y-12277D01*
X565Y-12221D01*
X734Y-12221D01*
X846Y-12277D01*
X902Y-12390D01*
X902Y-13009D01*
X1465Y-13009D02*
X1465Y-12221D01*
X1465Y-12334D02*
X1521Y-12277D01*
X1634Y-12221D01*
X1802Y-12221D01*
X1915Y-12277D01*
X1971Y-12390D01*
X1971Y-13009D01*
X1971Y-12390D02*
X2027Y-12277D01*
X2140Y-12221D01*
X2309Y-12221D01*
X2421Y-12277D01*
X2477Y-12390D01*
X2477Y-13009D01*
X4783Y-11771D02*
X3771Y-13290D01*
X6302Y-11827D02*
X6414Y-11827D01*
X6527Y-11884D01*
X6583Y-11940D01*
X6639Y-12052D01*
X6696Y-12277D01*
X6696Y-12559D01*
X6639Y-12784D01*
X6583Y-12896D01*
X6527Y-12952D01*
X6414Y-13009D01*
X6302Y-13009D01*
X6189Y-12952D01*
X6133Y-12896D01*
X6077Y-12784D01*
X6021Y-12559D01*
X6021Y-12277D01*
X6077Y-12052D01*
X6133Y-11940D01*
X6189Y-11884D01*
X6302Y-11827D01*
X7202Y-12896D02*
X7258Y-12952D01*
X7202Y-13009D01*
X7145Y-12952D01*
X7202Y-12896D01*
X7202Y-13009D01*
X8383Y-13009D02*
X7708Y-13009D01*
X8045Y-13009D02*
X8045Y-11827D01*
X7933Y-11996D01*
X7820Y-12109D01*
X7708Y-12165D01*
X9114Y-11827D02*
X9226Y-11827D01*
X9339Y-11884D01*
X9395Y-11940D01*
X9451Y-12052D01*
X9508Y-12277D01*
X9508Y-12559D01*
X9451Y-12784D01*
X9395Y-12896D01*
X9339Y-12952D01*
X9226Y-13009D01*
X9114Y-13009D01*
X9001Y-12952D01*
X8945Y-12896D01*
X8889Y-12784D01*
X8833Y-12559D01*
X8833Y-12277D01*
X8889Y-12052D01*
X8945Y-11940D01*
X9001Y-11884D01*
X9114Y-11827D01*
X9958Y-11940D02*
X10014Y-11884D01*
X10126Y-11827D01*
X10408Y-11827D01*
X10520Y-11884D01*
X10576Y-11940D01*
X10633Y-12052D01*
X10633Y-12165D01*
X10576Y-12334D01*
X9901Y-13009D01*
X10633Y-13009D01*
X11082Y-11827D02*
X11082Y-12052D01*
X11532Y-11827D02*
X11532Y-12052D01*
X13276Y-13459D02*
X13220Y-13402D01*
X13107Y-13234D01*
X13051Y-13121D01*
X12995Y-12952D01*
X12938Y-12671D01*
X12938Y-12446D01*
X12995Y-12165D01*
X13051Y-11996D01*
X13107Y-11884D01*
X13220Y-11715D01*
X13276Y-11659D01*
X14345Y-13009D02*
X13670Y-13009D01*
X14007Y-13009D02*
X14007Y-11827D01*
X13895Y-11996D01*
X13782Y-12109D01*
X13670Y-12165D01*
X15357Y-12221D02*
X15357Y-13009D01*
X15076Y-11771D02*
X14795Y-12615D01*
X15526Y-12615D01*
X16876Y-13009D02*
X16876Y-11827D01*
X17382Y-13009D02*
X17382Y-12390D01*
X17325Y-12277D01*
X17213Y-12221D01*
X17044Y-12221D01*
X16932Y-12277D01*
X16876Y-12334D01*
X18113Y-13009D02*
X18000Y-12952D01*
X17944Y-12896D01*
X17888Y-12784D01*
X17888Y-12446D01*
X17944Y-12334D01*
X18000Y-12277D01*
X18113Y-12221D01*
X18282Y-12221D01*
X18394Y-12277D01*
X18450Y-12334D01*
X18507Y-12446D01*
X18507Y-12784D01*
X18450Y-12896D01*
X18394Y-12952D01*
X18282Y-13009D01*
X18113Y-13009D01*
X19181Y-13009D02*
X19069Y-12952D01*
X19013Y-12840D01*
X19013Y-11827D01*
X20081Y-12952D02*
X19969Y-13009D01*
X19744Y-13009D01*
X19631Y-12952D01*
X19575Y-12840D01*
X19575Y-12390D01*
X19631Y-12277D01*
X19744Y-12221D01*
X19969Y-12221D01*
X20081Y-12277D01*
X20138Y-12390D01*
X20138Y-12502D01*
X19575Y-12615D01*
X20588Y-12952D02*
X20700Y-13009D01*
X20925Y-13009D01*
X21037Y-12952D01*
X21094Y-12840D01*
X21094Y-12784D01*
X21037Y-12671D01*
X20925Y-12615D01*
X20756Y-12615D01*
X20644Y-12559D01*
X20588Y-12446D01*
X20588Y-12390D01*
X20644Y-12277D01*
X20756Y-12221D01*
X20925Y-12221D01*
X21037Y-12277D01*
X21487Y-13459D02*
X21544Y-13402D01*
X21656Y-13234D01*
X21712Y-13121D01*
X21769Y-12952D01*
X21825Y-12671D01*
X21825Y-12446D01*
X21769Y-12165D01*
X21712Y-11996D01*
X21656Y-11884D01*
X21544Y-11715D01*
X21487Y-11659D01*
M02*
