M48
;DRILL file {Pcbnew (2013-jul-07)-stable} date Di 23 Feb 2016 16:59:03 CET
;FORMAT={-:-/ absolute / metric / decimal}
FMAT,2
METRIC,TZ
T1C0.300
T2C0.500
T3C0.635
T4C0.650
T5C0.800
T6C0.813
T7C0.998
T8C1.000
T9C1.016
T10C2.600
%
G90
G05
M71
T1
X69.151Y-66.789
X70.752Y-68.174
T2
X5.08Y-31.75
X6.223Y-11.811
X6.223Y-27.559
X6.477Y-38.735
X6.477Y-48.768
X8.255Y-42.164
X8.89Y-78.676
X10.986Y-78.676
X12.789Y-7.163
X12.789Y-17.958
X12.89Y-78.676
X17.869Y-5.385
X17.869Y-20.879
X20.409Y-7.417
X20.409Y-18.339
X21.156Y-64.069
X22.949Y-8.306
X22.949Y-19.609
X25.489Y-6.401
X25.489Y-15.926
X28.029Y-20.879
X30.569Y-5.385
X30.569Y-18.974
X32.956Y-63.246
X33.109Y-7.417
X33.109Y-16.942
X35.649Y-8.306
X35.649Y-18.085
X38.189Y-6.401
X38.189Y-15.926
X40.729Y-22.149
X43.269Y-5.385
X43.269Y-18.974
X45.809Y-7.417
X45.809Y-17.069
X46.609Y-65.278
X47.18Y-73.914
X48.222Y-37.173
X48.768Y-57.785
X50.292Y-64.834
X50.927Y-68.77
X51.143Y-52.268
X51.153Y-58.202
X52.377Y-27.762
X52.654Y-52.375
X52.959Y-59.88
X53.594Y-29.413
X53.721Y-63.119
X54.216Y-43.764
X54.226Y-57.724
X54.262Y-51.963
X54.369Y-34.468
X54.892Y-50.119
X55.08Y-25.07
X55.08Y-26.822
X56.096Y-41.834
X56.236Y-52.248
X56.934Y-8.28
X57.34Y-62.484
X58.496Y-36.576
X60.16Y-45.771
X61.392Y-25.933
X62.014Y-49.276
X62.09Y-65.989
X62.476Y-57.419
X62.611Y-4.572
X62.687Y-24.994
X63.706Y-53.294
X64.364Y-73.977
X65.405Y-17.526
X66.332Y-40.576
X67.005Y-46.088
X67.501Y-65.964
X69.431Y-74.219
X69.761Y-34.747
X69.837Y-46.482
X70.239Y-62.647
X70.447Y-69.812
X70.548Y-59.538
X72.733Y-70.739
X73.05Y-56.807
X73.406Y-75.438
X74.016Y-53.759
X75.032Y-65.443
X76.2Y-59.842
X76.454Y-21.844
X77.894Y-62.56
X78.08Y-59.779
X81.026Y-47.879
X82.804Y-64.935
X83.528Y-60.477
X92.202Y-48.768
X93.154Y-71.691
X96.774Y-73.787
X97.155Y-4.699
X97.536Y-57.658
X108.077Y-67.564
X129.413Y-33.147
X129.667Y-46.101
X132.207Y-67.437
X132.969Y-54.61
X133.604Y-4.318
X172.72Y-67.437
X174.244Y-45.847
X176.784Y-54.991
X205.232Y-22.479
X208.153Y-20.32
X215.773Y-67.31
X217.297Y-45.974
X218.44Y-33.528
X219.418Y-54.28
X220.218Y-18.796
X221.996Y-19.939
X228.219Y-22.606
X260.477Y-67.437
X262.001Y-46.228
X263.106Y-12.751
X264.795Y-55.372
X293.116Y-22.606
X297.434Y-19.558
X306.197Y-67.31
X306.578Y-33.274
X307.594Y-46.228
X307.683Y-18.72
X309.842Y-54.153
X310.134Y-20.066
X316.357Y-22.606
X319.151Y-12.954
X322.961Y-12.954
X340.741Y-12.827
X340.741Y-19.177
X349.123Y-67.437
X350.647Y-46.355
X351.028Y-33.274
X352.425Y-19.685
X354.203Y-54.61
X354.393Y-19.875
X359.41Y-22.733
X361.061Y-12.827
X364.998Y-16.002
X373.634Y-14.478
X376.936Y-65.024
X386.969Y-65.024
X393.573Y-34.163
X393.954Y-65.024
X394.462Y-10.922
T3
X7.239Y-57.442
X22.06Y-33.325
X44.412Y-34.341
X112.903Y-15.621
X118.707Y-21.514
X119.888Y-19.812
X131.953Y-19.431
X132.842Y-13.208
X138.773Y-12.751
X141.821Y-13.132
X165.697Y-18.212
X165.951Y-13.513
X169.126Y-18.339
X169.253Y-12.878
X201.892Y-5.232
X259.677Y-18.339
X259.804Y-12.751
X263.36Y-18.466
X288.734Y-5.626
X319.494Y-18.085
X322.542Y-18.085
X354.8Y-12.116
X358.102Y-12.116
X367.373Y-9.83
T4
X86.144Y-65.761
X86.144Y-67.031
X86.144Y-68.301
X86.144Y-69.571
X86.144Y-70.841
X87.414Y-65.761
X87.414Y-67.031
X87.414Y-68.301
X87.414Y-69.571
X87.414Y-70.841
T5
X10.249Y-11.227
X10.249Y-26.467
X12.789Y-11.227
X12.789Y-26.467
X15.329Y-11.227
X15.329Y-26.467
X17.869Y-11.227
X17.869Y-26.467
X20.409Y-11.227
X20.409Y-26.467
X22.949Y-11.227
X22.949Y-26.467
X25.489Y-11.227
X25.489Y-26.467
X28.029Y-11.227
X28.029Y-26.467
X30.569Y-11.227
X30.569Y-26.467
X33.109Y-11.227
X33.109Y-26.467
X35.649Y-11.227
X35.649Y-26.467
X38.189Y-11.227
X38.189Y-26.467
X40.729Y-11.227
X40.729Y-26.467
X43.269Y-11.227
X43.269Y-26.467
X45.809Y-11.227
X45.809Y-26.467
T6
X23.457Y-35.865
X23.457Y-38.405
X23.457Y-46.025
X23.457Y-48.565
X23.457Y-56.185
X23.457Y-58.725
X31.077Y-35.865
X31.077Y-38.405
X31.077Y-46.025
X31.077Y-48.565
X31.077Y-56.185
X31.077Y-58.725
X38.697Y-35.865
X38.697Y-38.405
X38.697Y-46.025
X38.697Y-48.565
X38.697Y-56.185
X38.697Y-58.725
X46.317Y-35.865
X46.317Y-38.405
X46.317Y-46.025
X46.317Y-48.565
X46.317Y-56.185
X46.317Y-58.725
X76.675Y-71.425
X77.945Y-73.965
X79.215Y-71.425
X80.485Y-73.965
X81.755Y-71.425
X83.025Y-73.965
X91.309Y-43.903
X92.144Y-35.958
X93.824Y-43.549
X94.301Y-51.31
X94.53Y-36.827
X96.356Y-49.817
X96.611Y-29.336
X98.31Y-31.223
X100.42Y-56.444
X101.534Y-54.161
X103.664Y-25.586
X104.278Y-28.05
X111.038Y-28.05
X111.652Y-25.586
X113.782Y-54.161
X114.895Y-56.444
X117.006Y-31.223
X118.705Y-29.336
X118.96Y-49.817
X120.785Y-36.827
X121.015Y-51.31
X121.492Y-43.549
X123.172Y-35.958
X124.007Y-43.903
X135.505Y-43.903
X136.34Y-35.958
X138.02Y-43.549
X138.497Y-51.31
X138.726Y-36.827
X140.552Y-49.817
X140.807Y-29.336
X142.506Y-31.223
X144.616Y-56.444
X145.73Y-54.161
X147.86Y-25.586
X148.474Y-28.05
X155.234Y-28.05
X155.848Y-25.586
X157.978Y-54.161
X159.091Y-56.444
X161.202Y-31.223
X162.901Y-29.336
X163.156Y-49.817
X164.981Y-36.827
X165.211Y-51.31
X165.688Y-43.549
X167.368Y-35.958
X168.203Y-43.903
X179.701Y-43.903
X180.536Y-35.958
X182.216Y-43.549
X182.693Y-51.31
X182.922Y-36.827
X184.748Y-49.817
X185.003Y-29.336
X186.702Y-31.223
X188.812Y-56.444
X189.926Y-54.161
X192.056Y-25.586
X192.67Y-28.05
X199.43Y-28.05
X200.044Y-25.586
X202.174Y-54.161
X203.287Y-56.444
X205.398Y-31.223
X207.097Y-29.336
X207.352Y-49.817
X209.177Y-36.827
X209.407Y-51.31
X209.884Y-43.549
X211.564Y-35.958
X212.399Y-43.903
X223.897Y-43.903
X224.732Y-35.958
X226.412Y-43.549
X226.889Y-51.31
X227.118Y-36.827
X228.944Y-49.817
X229.199Y-29.336
X230.898Y-31.223
X233.008Y-56.444
X234.122Y-54.161
X236.252Y-25.586
X236.866Y-28.05
X243.626Y-28.05
X244.24Y-25.586
X246.37Y-54.161
X247.483Y-56.444
X249.594Y-31.223
X251.293Y-29.336
X251.548Y-49.817
X253.373Y-36.827
X253.603Y-51.31
X254.08Y-43.549
X255.76Y-35.958
X256.595Y-43.903
X268.093Y-43.903
X268.928Y-35.958
X270.608Y-43.549
X271.085Y-51.31
X271.314Y-36.827
X273.14Y-49.817
X273.395Y-29.336
X275.094Y-31.223
X277.204Y-56.444
X278.318Y-54.161
X280.448Y-25.586
X281.062Y-28.05
X287.822Y-28.05
X288.436Y-25.586
X290.566Y-54.161
X291.679Y-56.444
X293.79Y-31.223
X295.489Y-29.336
X295.744Y-49.817
X297.569Y-36.827
X297.799Y-51.31
X298.276Y-43.549
X299.956Y-35.958
X300.791Y-43.903
X312.289Y-43.903
X313.124Y-35.958
X314.804Y-43.549
X315.281Y-51.31
X315.51Y-36.827
X317.336Y-49.817
X317.591Y-29.336
X319.29Y-31.223
X321.4Y-56.444
X322.514Y-54.161
X324.644Y-25.586
X325.258Y-28.05
X332.018Y-28.05
X332.632Y-25.586
X334.762Y-54.161
X335.875Y-56.444
X337.986Y-31.223
X339.685Y-29.336
X339.94Y-49.817
X341.765Y-36.827
X341.995Y-51.31
X342.472Y-43.549
X344.152Y-35.958
X344.987Y-43.903
X356.485Y-43.903
X357.32Y-35.958
X359.Y-43.549
X359.477Y-51.31
X359.706Y-36.827
X361.532Y-49.817
X361.787Y-29.336
X363.486Y-31.223
X365.596Y-56.444
X366.71Y-54.161
X368.84Y-25.586
X369.454Y-28.05
X376.214Y-28.05
X376.828Y-25.586
X378.958Y-54.161
X380.071Y-56.444
X382.182Y-31.223
X383.881Y-29.336
X384.136Y-49.817
X385.961Y-36.827
X386.191Y-51.31
X386.668Y-43.549
X388.348Y-35.958
X389.183Y-43.903
T7
X11.049Y-33.886
X11.049Y-40.383
X11.049Y-44.046
X11.049Y-50.543
X11.049Y-54.206
X11.049Y-60.703
X15.545Y-33.886
X15.545Y-40.383
X15.545Y-44.046
X15.545Y-50.543
X15.545Y-54.206
X15.545Y-60.703
X67.564Y-7.978
X67.564Y-14.475
X67.564Y-20.551
X67.564Y-27.048
X72.06Y-7.978
X72.06Y-14.475
X72.06Y-20.551
X72.06Y-27.048
X80.533Y-8.979
X80.533Y-13.475
X87.031Y-8.979
X87.031Y-13.475
X94.503Y-8.852
X94.503Y-13.348
X101.001Y-8.852
X101.001Y-13.348
X108.473Y-8.979
X108.473Y-13.475
X114.971Y-8.979
X114.971Y-13.475
X122.443Y-8.979
X122.443Y-13.475
X128.941Y-8.979
X128.941Y-13.475
T8
X43.421Y-32.233
X48.608Y-61.082
X51.27Y-10.211
X52.032Y-37.846
X53.594Y-32.233
X62.367Y-61.125
X68.974Y-38.456
X94.615Y-76.835
X94.678Y-56.642
X110.579Y-58.471
X110.579Y-77.013
X119.126Y-2.667
X119.126Y-8.636
X125.222Y-2.667
X125.73Y-19.177
X129.54Y-57.531
X129.667Y-72.009
X155.664Y-58.598
X155.664Y-77.013
X173.99Y-58.039
X173.99Y-72.009
X200.241Y-59.36
X200.368Y-77.013
X213.995Y-6.223
X213.995Y-19.05
X217.17Y-59.309
X217.17Y-72.009
X244.564Y-60.63
X244.564Y-76.886
X261.62Y-60.325
X261.62Y-72.009
X288.379Y-61.519
X288.506Y-76.886
X302.26Y-6.604
X302.26Y-18.923
X307.34Y-61.087
X307.34Y-72.009
X333.083Y-77.013
X333.21Y-62.662
X346.202Y-6.223
X346.329Y-18.923
X350.52Y-62.23
X350.52Y-72.009
X374.612Y-66.726
X374.612Y-76.886
T9
X10.96Y-70.637
X13.5Y-70.637
X16.04Y-70.637
X18.58Y-70.637
X21.12Y-70.637
X23.66Y-70.637
X34.506Y-70.561
X37.046Y-70.561
X39.586Y-70.561
X42.126Y-70.561
X44.666Y-70.561
X47.206Y-70.561
X105.158Y-34.605
X105.158Y-49.105
X107.658Y-49.105
X110.158Y-34.605
X110.158Y-49.105
X149.354Y-34.605
X149.354Y-49.105
X151.854Y-49.105
X154.354Y-34.605
X154.354Y-49.105
X193.55Y-34.605
X193.55Y-49.105
X196.05Y-49.105
X198.55Y-34.605
X198.55Y-49.105
X237.746Y-34.605
X237.746Y-49.105
X240.246Y-49.105
X242.746Y-34.605
X242.746Y-49.105
X281.942Y-34.605
X281.942Y-49.105
X284.442Y-49.105
X286.942Y-34.605
X286.942Y-49.105
X326.138Y-34.605
X326.138Y-49.105
X328.638Y-49.105
X331.138Y-34.605
X331.138Y-49.105
X370.334Y-34.605
X370.334Y-49.105
X372.834Y-49.105
X375.334Y-34.605
X375.334Y-49.105
T10
X101.958Y-41.605
X113.358Y-41.605
X146.154Y-41.605
X157.554Y-41.605
X190.35Y-41.605
X201.75Y-41.605
X234.546Y-41.605
X245.946Y-41.605
X278.742Y-41.605
X290.142Y-41.605
X322.938Y-41.605
X334.338Y-41.605
X367.134Y-41.605
X378.534Y-41.605
T0
M30
