<?xml version="1.0" standalone="no"?>
 <!DOCTYPE svg PUBLIC "-//W3C//DTD SVG 1.1//EN" 
 "http://www.w3.org/Graphics/SVG/1.1/DTD/svg11.dtd"> 
<svg xmlns="http://www.w3.org/2000/svg" version="1.1" 
    width="29.7002cm" height="21.0007cm" viewBox="0 0 116930 82680 ">
<title>SVG Picture created as Midirelais-B_Paste.svg date 2016/01/31 11:36:54 </title>
  <desc>Picture generated by PCBNEW </desc>
<g style="fill:#000000; fill-opacity:1;stroke:#000000; stroke-opacity:1;
stroke-linecap:round; stroke-linejoin:round; "
 transform="translate(0 0) scale(1 1)">
</g>
<g style="fill:#000000; fill-opacity:0.0; 
stroke:#000000; stroke-width:59.0551; stroke-opacity:1; 
stroke-linecap:round; stroke-linejoin:round;">
</g>
<g style="fill:#000000; fill-opacity:1.0; 
stroke:#000000; stroke-width:59.0551; stroke-opacity:1; 
stroke-linecap:round; stroke-linejoin:round;">
<polyline style="fill-rule:evenodd;"
points="151129,17979
151870,17979
151870,18520
151129,18520
151129,17979
" /> 
<polyline style="fill-rule:evenodd;"
points="151129,19279
151870,19279
151870,19820
151129,19820
151129,19279
" /> 
<polyline style="fill-rule:evenodd;"
points="8827,41474
8827,41887
8572,41887
8572,41474
8827,41474
" /> 
<polyline style="fill-rule:evenodd;"
points="7827,41474
7827,41887
7572,41887
7572,41474
7827,41474
" /> 
<polyline style="fill-rule:evenodd;"
points="7827,39112
7827,39525
7572,39525
7572,39112
7827,39112
" /> 
<polyline style="fill-rule:evenodd;"
points="8827,39112
8827,39525
8572,39525
8572,39112
8827,39112
" /> 
<polyline style="fill-rule:evenodd;"
points="15227,41474
15227,41887
14972,41887
14972,41474
15227,41474
" /> 
<polyline style="fill-rule:evenodd;"
points="14227,41474
14227,41887
13972,41887
13972,41474
14227,41474
" /> 
<polyline style="fill-rule:evenodd;"
points="14227,39112
14227,39525
13972,39525
13972,39112
14227,39112
" /> 
<polyline style="fill-rule:evenodd;"
points="15227,39112
15227,39525
14972,39525
14972,39112
15227,39112
" /> 
<polyline style="fill-rule:evenodd;"
points="21627,41474
21627,41887
21372,41887
21372,41474
21627,41474
" /> 
<polyline style="fill-rule:evenodd;"
points="20627,41474
20627,41887
20372,41887
20372,41474
20627,41474
" /> 
<polyline style="fill-rule:evenodd;"
points="20627,39112
20627,39525
20372,39525
20372,39112
20627,39112
" /> 
<polyline style="fill-rule:evenodd;"
points="21627,39112
21627,39525
21372,39525
21372,39112
21627,39112
" /> 
<polyline style="fill-rule:evenodd;"
points="28027,41474
28027,41887
27772,41887
27772,41474
28027,41474
" /> 
<polyline style="fill-rule:evenodd;"
points="27027,41474
27027,41887
26772,41887
26772,41474
27027,41474
" /> 
<polyline style="fill-rule:evenodd;"
points="27027,39112
27027,39525
26772,39525
26772,39112
27027,39112
" /> 
<polyline style="fill-rule:evenodd;"
points="28027,39112
28027,39525
27772,39525
27772,39112
28027,39112
" /> 
<polyline style="fill-rule:evenodd;"
points="-22002,93204
-22002,92595
-20763,92595
-20763,93204
-22002,93204
" /> 
<polyline style="fill-rule:evenodd;"
points="-19836,93204
-19836,92595
-18597,92595
-18597,93204
-19836,93204
" /> 
<polyline style="fill-rule:evenodd;"
points="138297,26704
138297,26095
139536,26095
139536,26704
138297,26704
" /> 
<polyline style="fill-rule:evenodd;"
points="140463,26704
140463,26095
141702,26095
141702,26704
140463,26704
" /> 
<polyline style="fill-rule:evenodd;"
points="50697,24204
50697,23595
51936,23595
51936,24204
50697,24204
" /> 
<polyline style="fill-rule:evenodd;"
points="52863,24204
52863,23595
54102,23595
54102,24204
52863,24204
" /> 
<polyline style="fill-rule:evenodd;"
points="63497,24204
63497,23595
64736,23595
64736,24204
63497,24204
" /> 
<polyline style="fill-rule:evenodd;"
points="65663,24204
65663,23595
66902,23595
66902,24204
65663,24204
" /> 
<polyline style="fill-rule:evenodd;"
points="112397,26804
112397,26195
113636,26195
113636,26804
112397,26804
" /> 
<polyline style="fill-rule:evenodd;"
points="114563,26804
114563,26195
115802,26195
115802,26804
114563,26804
" /> 
<polyline style="fill-rule:evenodd;"
points="46997,41304
46997,40695
48236,40695
48236,41304
46997,41304
" /> 
<polyline style="fill-rule:evenodd;"
points="49163,41304
49163,40695
50402,40695
50402,41304
49163,41304
" /> 
<polyline style="fill-rule:evenodd;"
points="24997,24204
24997,23595
26236,23595
26236,24204
24997,24204
" /> 
<polyline style="fill-rule:evenodd;"
points="27163,24204
27163,23595
28402,23595
28402,24204
27163,24204
" /> 
<polyline style="fill-rule:evenodd;"
points="65297,57704
65297,57095
66536,57095
66536,57704
65297,57704
" /> 
<polyline style="fill-rule:evenodd;"
points="67463,57704
67463,57095
68702,57095
68702,57704
67463,57704
" /> 
<polyline style="fill-rule:evenodd;"
points="137097,119804
137097,119195
138336,119195
138336,119804
137097,119804
" /> 
<polyline style="fill-rule:evenodd;"
points="139263,119804
139263,119195
140502,119195
140502,119804
139263,119804
" /> 
<polyline style="fill-rule:evenodd;"
points="37897,24204
37897,23595
39136,23595
39136,24204
37897,24204
" /> 
<polyline style="fill-rule:evenodd;"
points="40063,24204
40063,23595
41302,23595
41302,24204
40063,24204
" /> 
<polyline style="fill-rule:evenodd;"
points="158397,110504
158397,109895
159636,109895
159636,110504
158397,110504
" /> 
<polyline style="fill-rule:evenodd;"
points="160563,110504
160563,109895
161802,109895
161802,110504
160563,110504
" /> 
<polyline style="fill-rule:evenodd;"
points="76297,24204
76297,23595
77536,23595
77536,24204
76297,24204
" /> 
<polyline style="fill-rule:evenodd;"
points="78463,24204
78463,23595
79702,23595
79702,24204
78463,24204
" /> 
<polyline style="fill-rule:evenodd;"
points="145897,110504
145897,109895
147136,109895
147136,110504
145897,110504
" /> 
<polyline style="fill-rule:evenodd;"
points="148063,110504
148063,109895
149302,109895
149302,110504
148063,110504
" /> 
<polyline style="fill-rule:evenodd;"
points="101897,24204
101897,23595
103136,23595
103136,24204
101897,24204
" /> 
<polyline style="fill-rule:evenodd;"
points="104063,24204
104063,23595
105302,23595
105302,24204
104063,24204
" /> 
<polyline style="fill-rule:evenodd;"
points="89097,24204
89097,23595
90336,23595
90336,24204
89097,24204
" /> 
<polyline style="fill-rule:evenodd;"
points="91263,24204
91263,23595
92502,23595
92502,24204
91263,24204
" /> 
<polyline style="fill-rule:evenodd;"
points="172579,109070
172579,108329
173120,108329
173120,109070
172579,109070
" /> 
<polyline style="fill-rule:evenodd;"
points="173879,109070
173879,108329
174420,108329
174420,109070
173879,109070
" /> 
<polyline style="fill-rule:evenodd;"
points="192420,109929
192420,110670
191879,110670
191879,109929
192420,109929
" /> 
<polyline style="fill-rule:evenodd;"
points="191120,109929
191120,110670
190579,110670
190579,109929
191120,109929
" /> 
<polyline style="fill-rule:evenodd;"
points="166920,30229
166920,30970
166379,30970
166379,30229
166920,30229
" /> 
<polyline style="fill-rule:evenodd;"
points="165620,30229
165620,30970
165079,30970
165079,30229
165620,30229
" /> 
<polyline style="fill-rule:evenodd;"
points="12297,24204
12297,23595
13536,23595
13536,24204
12297,24204
" /> 
<polyline style="fill-rule:evenodd;"
points="14463,24204
14463,23595
15702,23595
15702,24204
14463,24204
" /> 
<polyline style="fill-rule:evenodd;"
points="162897,110504
162897,109895
164136,109895
164136,110504
162897,110504
" /> 
<polyline style="fill-rule:evenodd;"
points="165063,110504
165063,109895
166302,109895
166302,110504
165063,110504
" /> 
</g> 
</svg>
