<?xml version="1.0" standalone="no"?>
 <!DOCTYPE svg PUBLIC "-//W3C//DTD SVG 1.1//EN" 
 "http://www.w3.org/Graphics/SVG/1.1/DTD/svg11.dtd"> 
<svg xmlns="http://www.w3.org/2000/svg" version="1.1" 
    width="29.7002cm" height="21.0007cm" viewBox="0 0 116930 82680 ">
<title>SVG Picture created as Midirelais-B_Cu.svg date 2016/01/31 11:36:54 </title>
  <desc>Picture generated by PCBNEW </desc>
<g style="fill:#000000; fill-opacity:1;stroke:#000000; stroke-opacity:1;
stroke-linecap:round; stroke-linejoin:round; "
 transform="translate(0 0) scale(1 1)">
</g>
<g style="fill:#000000; fill-opacity:0.0; 
stroke:#000000; stroke-width:59.0551; stroke-opacity:1; 
stroke-linecap:round; stroke-linejoin:round;">
</g>
<g style="fill:#000000; fill-opacity:1.0; 
stroke:#000000; stroke-width:59.0551; stroke-opacity:1; 
stroke-linecap:round; stroke-linejoin:round;">
<circle cx="28300" cy="22100" r="247.472" /> 
<circle cx="28300" cy="19100" r="247.472" /> 
<circle cx="28300" cy="17100" r="247.472" /> 
<circle cx="28300" cy="15100" r="247.472" /> 
<circle cx="25300" cy="15100" r="247.472" /> 
<circle cx="25300" cy="17100" r="247.472" /> 
<circle cx="25300" cy="19100" r="247.472" /> 
<circle cx="25300" cy="22100" r="247.472" /> 
<circle cx="15500" cy="22100" r="247.472" /> 
<circle cx="15500" cy="19100" r="247.472" /> 
<circle cx="15500" cy="17100" r="247.472" /> 
<circle cx="15500" cy="15100" r="247.472" /> 
<circle cx="12500" cy="15100" r="247.472" /> 
<circle cx="12500" cy="17100" r="247.472" /> 
<circle cx="12500" cy="19100" r="247.472" /> 
<circle cx="12500" cy="22100" r="247.472" /> 
<circle cx="17500" cy="6100" r="561.024" /> 
<circle cx="16500" cy="12100" r="561.024" /> 
<circle cx="16500" cy="9100" r="561.024" /> 
<circle cx="11100" cy="6100" r="561.024" /> 
<circle cx="10100" cy="12100" r="561.024" /> 
<circle cx="10100" cy="9100" r="561.024" /> 
<circle cx="3100" cy="6100" r="561.024" /> 
<circle cx="2100" cy="12100" r="561.024" /> 
<circle cx="2100" cy="9100" r="561.024" /> 
<circle cx="105100" cy="22100" r="247.472" /> 
<circle cx="105100" cy="19100" r="247.472" /> 
<circle cx="105100" cy="17100" r="247.472" /> 
<circle cx="105100" cy="15100" r="247.472" /> 
<circle cx="102100" cy="15100" r="247.472" /> 
<circle cx="102100" cy="17100" r="247.472" /> 
<circle cx="102100" cy="19100" r="247.472" /> 
<circle cx="102100" cy="22100" r="247.472" /> 
<circle cx="41100" cy="22100" r="247.472" /> 
<circle cx="41100" cy="19100" r="247.472" /> 
<circle cx="41100" cy="17100" r="247.472" /> 
<circle cx="41100" cy="15100" r="247.472" /> 
<circle cx="38100" cy="15100" r="247.472" /> 
<circle cx="38100" cy="17100" r="247.472" /> 
<circle cx="38100" cy="19100" r="247.472" /> 
<circle cx="38100" cy="22100" r="247.472" /> 
<circle cx="53900" cy="22100" r="247.472" /> 
<circle cx="53900" cy="19100" r="247.472" /> 
<circle cx="53900" cy="17100" r="247.472" /> 
<circle cx="53900" cy="15100" r="247.472" /> 
<circle cx="50900" cy="15100" r="247.472" /> 
<circle cx="50900" cy="17100" r="247.472" /> 
<circle cx="50900" cy="19100" r="247.472" /> 
<circle cx="50900" cy="22100" r="247.472" /> 
<circle cx="66700" cy="22100" r="247.472" /> 
<circle cx="66700" cy="19100" r="247.472" /> 
<circle cx="66700" cy="17100" r="247.472" /> 
<circle cx="66700" cy="15100" r="247.472" /> 
<circle cx="63700" cy="15100" r="247.472" /> 
<circle cx="63700" cy="17100" r="247.472" /> 
<circle cx="63700" cy="19100" r="247.472" /> 
<circle cx="63700" cy="22100" r="247.472" /> 
<circle cx="79500" cy="22100" r="247.472" /> 
<circle cx="79500" cy="19100" r="247.472" /> 
<circle cx="79500" cy="17100" r="247.472" /> 
<circle cx="79500" cy="15100" r="247.472" /> 
<circle cx="76500" cy="15100" r="247.472" /> 
<circle cx="76500" cy="17100" r="247.472" /> 
<circle cx="76500" cy="19100" r="247.472" /> 
<circle cx="76500" cy="22100" r="247.472" /> 
<circle cx="92300" cy="22100" r="247.472" /> 
<circle cx="92300" cy="19100" r="247.472" /> 
<circle cx="92300" cy="17100" r="247.472" /> 
<circle cx="92300" cy="15100" r="247.472" /> 
<circle cx="89300" cy="15100" r="247.472" /> 
<circle cx="89300" cy="17100" r="247.472" /> 
<circle cx="89300" cy="19100" r="247.472" /> 
<circle cx="89300" cy="22100" r="247.472" /> 
<circle cx="94300" cy="6100" r="561.024" /> 
<circle cx="93300" cy="12100" r="561.024" /> 
<circle cx="93300" cy="9100" r="561.024" /> 
<circle cx="87900" cy="6100" r="561.024" /> 
<circle cx="86900" cy="12100" r="561.024" /> 
<circle cx="86900" cy="9100" r="561.024" /> 
<circle cx="81500" cy="6100" r="561.024" /> 
<circle cx="80500" cy="12100" r="561.024" /> 
<circle cx="80500" cy="9100" r="561.024" /> 
<circle cx="75100" cy="6100" r="561.024" /> 
<circle cx="74100" cy="12100" r="561.024" /> 
<circle cx="74100" cy="9100" r="561.024" /> 
<circle cx="100700" cy="6100" r="561.024" /> 
<circle cx="99700" cy="12100" r="561.024" /> 
<circle cx="99700" cy="9100" r="561.024" /> 
<circle cx="68700" cy="6100" r="561.024" /> 
<circle cx="67700" cy="12100" r="561.024" /> 
<circle cx="67700" cy="9100" r="561.024" /> 
<circle cx="62300" cy="6100" r="561.024" /> 
<circle cx="61300" cy="12100" r="561.024" /> 
<circle cx="61300" cy="9100" r="561.024" /> 
<circle cx="107100" cy="6100" r="561.024" /> 
<circle cx="106100" cy="12100" r="561.024" /> 
<circle cx="106100" cy="9100" r="561.024" /> 
<circle cx="55900" cy="6100" r="561.024" /> 
<circle cx="54900" cy="12100" r="561.024" /> 
<circle cx="54900" cy="9100" r="561.024" /> 
<circle cx="49500" cy="6100" r="561.024" /> 
<circle cx="48500" cy="12100" r="561.024" /> 
<circle cx="48500" cy="9100" r="561.024" /> 
<circle cx="23900" cy="6100" r="561.024" /> 
<circle cx="22900" cy="12100" r="561.024" /> 
<circle cx="22900" cy="9100" r="561.024" /> 
<circle cx="43100" cy="6100" r="561.024" /> 
<circle cx="42100" cy="12100" r="561.024" /> 
<circle cx="42100" cy="9100" r="561.024" /> 
<circle cx="36700" cy="6100" r="561.024" /> 
<circle cx="35700" cy="12100" r="561.024" /> 
<circle cx="35700" cy="9100" r="561.024" /> 
<circle cx="30300" cy="6100" r="561.024" /> 
<circle cx="29300" cy="12100" r="561.024" /> 
<circle cx="29300" cy="9100" r="561.024" /> 
<circle cx="118000" cy="22100" r="247.472" /> 
<circle cx="118000" cy="19100" r="247.472" /> 
<circle cx="118000" cy="17100" r="247.472" /> 
<circle cx="118000" cy="15100" r="247.472" /> 
<circle cx="115000" cy="15100" r="247.472" /> 
<circle cx="115000" cy="17100" r="247.472" /> 
<circle cx="115000" cy="19100" r="247.472" /> 
<circle cx="115000" cy="22100" r="247.472" /> 
<circle cx="141500" cy="23900" r="247.472" /> 
<circle cx="141500" cy="20900" r="247.472" /> 
<circle cx="141500" cy="18900" r="247.472" /> 
<circle cx="141500" cy="16900" r="247.472" /> 
<circle cx="138500" cy="16900" r="247.472" /> 
<circle cx="138500" cy="18900" r="247.472" /> 
<circle cx="138500" cy="20900" r="247.472" /> 
<circle cx="138500" cy="23900" r="247.472" /> 
<circle cx="132800" cy="6100" r="561.024" /> 
<circle cx="131800" cy="12100" r="561.024" /> 
<circle cx="131800" cy="9100" r="561.024" /> 
<circle cx="113600" cy="6100" r="561.024" /> 
<circle cx="112600" cy="12100" r="561.024" /> 
<circle cx="112600" cy="9100" r="561.024" /> 
<circle cx="120000" cy="6100" r="561.024" /> 
<circle cx="119000" cy="12100" r="561.024" /> 
<circle cx="119000" cy="9100" r="561.024" /> 
<circle cx="126400" cy="6100" r="561.024" /> 
<circle cx="125400" cy="12100" r="561.024" /> 
<circle cx="125400" cy="9100" r="561.024" /> 
<circle cx="147000" cy="17900" r="324.803" /> 
<circle cx="148000" cy="17900" r="324.803" /> 
<circle cx="148000" cy="18900" r="324.803" /> 
<circle cx="147000" cy="18900" r="324.803" /> 
<circle cx="154000" cy="17900" r="324.803" /> 
<circle cx="155000" cy="17900" r="324.803" /> 
<circle cx="155000" cy="18900" r="324.803" /> 
<circle cx="154000" cy="18900" r="324.803" /> 
<circle cx="169100" cy="102200" r="324.803" /> 
<circle cx="170100" cy="102200" r="324.803" /> 
<circle cx="170100" cy="103200" r="324.803" /> 
<circle cx="169100" cy="103200" r="324.803" /> 
<circle cx="175600" cy="102200" r="324.803" /> 
<circle cx="176600" cy="102200" r="324.803" /> 
<circle cx="176600" cy="103200" r="324.803" /> 
<circle cx="175600" cy="103200" r="324.803" /> 
<polyline style="fill-rule:evenodd;"
points="151129,17979
151870,17979
151870,18520
151129,18520
151129,17979
" /> 
<polyline style="fill-rule:evenodd;"
points="151129,19279
151870,19279
151870,19820
151129,19820
151129,19279
" /> 
<circle cx="131600" cy="89700" r="561.024" /> 
<circle cx="130600" cy="95700" r="561.024" /> 
<circle cx="130600" cy="92700" r="561.024" /> 
<circle cx="138100" cy="89700" r="561.024" /> 
<circle cx="137100" cy="95700" r="561.024" /> 
<circle cx="137100" cy="92700" r="561.024" /> 
<circle cx="144600" cy="89700" r="561.024" /> 
<circle cx="143600" cy="95700" r="561.024" /> 
<circle cx="143600" cy="92700" r="561.024" /> 
<circle cx="151100" cy="89700" r="561.024" /> 
<circle cx="150100" cy="95700" r="561.024" /> 
<circle cx="150100" cy="92700" r="561.024" /> 
<circle cx="157600" cy="89700" r="561.024" /> 
<circle cx="156600" cy="95700" r="561.024" /> 
<circle cx="156600" cy="92700" r="561.024" /> 
<circle cx="164100" cy="89700" r="561.024" /> 
<circle cx="163100" cy="95700" r="561.024" /> 
<circle cx="163100" cy="92700" r="561.024" /> 
<circle cx="162100" cy="105700" r="247.472" /> 
<circle cx="162100" cy="102700" r="247.472" /> 
<circle cx="162100" cy="100700" r="247.472" /> 
<circle cx="162100" cy="98700" r="247.472" /> 
<circle cx="159100" cy="98700" r="247.472" /> 
<circle cx="159100" cy="100700" r="247.472" /> 
<circle cx="159100" cy="102700" r="247.472" /> 
<circle cx="159100" cy="105700" r="247.472" /> 
<circle cx="149100" cy="105700" r="247.472" /> 
<circle cx="149100" cy="102700" r="247.472" /> 
<circle cx="149100" cy="100700" r="247.472" /> 
<circle cx="149100" cy="98700" r="247.472" /> 
<circle cx="146100" cy="98700" r="247.472" /> 
<circle cx="146100" cy="100700" r="247.472" /> 
<circle cx="146100" cy="102700" r="247.472" /> 
<circle cx="146100" cy="105700" r="247.472" /> 
<circle cx="106300" cy="105900" r="247.472" /> 
<circle cx="106300" cy="102900" r="247.472" /> 
<circle cx="106300" cy="100900" r="247.472" /> 
<circle cx="106300" cy="98900" r="247.472" /> 
<circle cx="103300" cy="98900" r="247.472" /> 
<circle cx="103300" cy="100900" r="247.472" /> 
<circle cx="103300" cy="102900" r="247.472" /> 
<circle cx="103300" cy="105900" r="247.472" /> 
<circle cx="136100" cy="105700" r="247.472" /> 
<circle cx="136100" cy="102700" r="247.472" /> 
<circle cx="136100" cy="100700" r="247.472" /> 
<circle cx="136100" cy="98700" r="247.472" /> 
<circle cx="133100" cy="98700" r="247.472" /> 
<circle cx="133100" cy="100700" r="247.472" /> 
<circle cx="133100" cy="102700" r="247.472" /> 
<circle cx="133100" cy="105700" r="247.472" /> 
<circle cx="123100" cy="105700" r="247.472" /> 
<circle cx="123100" cy="102700" r="247.472" /> 
<circle cx="123100" cy="100700" r="247.472" /> 
<circle cx="123100" cy="98700" r="247.472" /> 
<circle cx="120100" cy="98700" r="247.472" /> 
<circle cx="120100" cy="100700" r="247.472" /> 
<circle cx="120100" cy="102700" r="247.472" /> 
<circle cx="120100" cy="105700" r="247.472" /> 
<circle cx="166600" cy="105700" r="247.472" /> 
<circle cx="166600" cy="102700" r="247.472" /> 
<circle cx="166600" cy="100700" r="247.472" /> 
<circle cx="166600" cy="98700" r="247.472" /> 
<circle cx="163600" cy="98700" r="247.472" /> 
<circle cx="163600" cy="100700" r="247.472" /> 
<circle cx="163600" cy="102700" r="247.472" /> 
<circle cx="163600" cy="105700" r="247.472" /> 
<polyline style="fill-rule:evenodd;"
points="8827,41474
8827,41887
8572,41887
8572,41474
8827,41474
" /> 
<polyline style="fill-rule:evenodd;"
points="7827,41474
7827,41887
7572,41887
7572,41474
7827,41474
" /> 
<polyline style="fill-rule:evenodd;"
points="7827,39112
7827,39525
7572,39525
7572,39112
7827,39112
" /> 
<polyline style="fill-rule:evenodd;"
points="8827,39112
8827,39525
8572,39525
8572,39112
8827,39112
" /> 
<circle cx="-41400" cy="53000" r="561.024" /> 
<circle cx="-42400" cy="59000" r="561.024" /> 
<circle cx="-42400" cy="56000" r="561.024" /> 
<circle cx="-35100" cy="53000" r="561.024" /> 
<circle cx="-36100" cy="59000" r="561.024" /> 
<circle cx="-36100" cy="56000" r="561.024" /> 
<circle cx="-28800" cy="53000" r="561.024" /> 
<circle cx="-29800" cy="59000" r="561.024" /> 
<circle cx="-29800" cy="56000" r="561.024" /> 
<circle cx="-22600" cy="53000" r="561.024" /> 
<circle cx="-23600" cy="59000" r="561.024" /> 
<circle cx="-23600" cy="56000" r="561.024" /> 
<polyline style="fill-rule:evenodd;"
points="15227,41474
15227,41887
14972,41887
14972,41474
15227,41474
" /> 
<polyline style="fill-rule:evenodd;"
points="14227,41474
14227,41887
13972,41887
13972,41474
14227,41474
" /> 
<polyline style="fill-rule:evenodd;"
points="14227,39112
14227,39525
13972,39525
13972,39112
14227,39112
" /> 
<polyline style="fill-rule:evenodd;"
points="15227,39112
15227,39525
14972,39525
14972,39112
15227,39112
" /> 
<polyline style="fill-rule:evenodd;"
points="21627,41474
21627,41887
21372,41887
21372,41474
21627,41474
" /> 
<polyline style="fill-rule:evenodd;"
points="20627,41474
20627,41887
20372,41887
20372,41474
20627,41474
" /> 
<polyline style="fill-rule:evenodd;"
points="20627,39112
20627,39525
20372,39525
20372,39112
20627,39112
" /> 
<polyline style="fill-rule:evenodd;"
points="21627,39112
21627,39525
21372,39525
21372,39112
21627,39112
" /> 
<polyline style="fill-rule:evenodd;"
points="28027,41474
28027,41887
27772,41887
27772,41474
28027,41474
" /> 
<polyline style="fill-rule:evenodd;"
points="27027,41474
27027,41887
26772,41887
26772,41474
27027,41474
" /> 
<polyline style="fill-rule:evenodd;"
points="27027,39112
27027,39525
26772,39525
26772,39112
27027,39112
" /> 
<polyline style="fill-rule:evenodd;"
points="28027,39112
28027,39525
27772,39525
27772,39112
28027,39112
" /> 
<circle cx="145600" cy="6100" r="561.024" /> 
<circle cx="144600" cy="12100" r="561.024" /> 
<circle cx="144600" cy="9100" r="561.024" /> 
<circle cx="139100" cy="6100" r="561.024" /> 
<circle cx="138100" cy="12100" r="561.024" /> 
<circle cx="138100" cy="9100" r="561.024" /> 
<circle cx="-55200" cy="48000" r="561.024" /> 
<circle cx="-56200" cy="54000" r="561.024" /> 
<circle cx="-56200" cy="51000" r="561.024" /> 
<circle cx="-63700" cy="47400" r="561.024" /> 
<circle cx="-64700" cy="53400" r="561.024" /> 
<circle cx="-64700" cy="50400" r="561.024" /> 
<circle cx="6900" cy="35000" r="561.024" /> 
<circle cx="5900" cy="41000" r="561.024" /> 
<circle cx="5900" cy="38000" r="561.024" /> 
<circle cx="13300" cy="35000" r="561.024" /> 
<circle cx="12300" cy="41000" r="561.024" /> 
<circle cx="12300" cy="38000" r="561.024" /> 
<circle cx="19700" cy="35000" r="561.024" /> 
<circle cx="18700" cy="41000" r="561.024" /> 
<circle cx="18700" cy="38000" r="561.024" /> 
<circle cx="26100" cy="35000" r="561.024" /> 
<circle cx="25100" cy="41000" r="561.024" /> 
<circle cx="25100" cy="38000" r="561.024" /> 
<polyline style="fill-rule:evenodd;"
points="-22002,93204
-22002,92595
-20763,92595
-20763,93204
-22002,93204
" /> 
<polyline style="fill-rule:evenodd;"
points="-19836,93204
-19836,92595
-18597,92595
-18597,93204
-19836,93204
" /> 
<polyline style="fill-rule:evenodd;"
points="138297,26704
138297,26095
139536,26095
139536,26704
138297,26704
" /> 
<polyline style="fill-rule:evenodd;"
points="140463,26704
140463,26095
141702,26095
141702,26704
140463,26704
" /> 
<polyline style="fill-rule:evenodd;"
points="50697,24204
50697,23595
51936,23595
51936,24204
50697,24204
" /> 
<polyline style="fill-rule:evenodd;"
points="52863,24204
52863,23595
54102,23595
54102,24204
52863,24204
" /> 
<polyline style="fill-rule:evenodd;"
points="63497,24204
63497,23595
64736,23595
64736,24204
63497,24204
" /> 
<polyline style="fill-rule:evenodd;"
points="65663,24204
65663,23595
66902,23595
66902,24204
65663,24204
" /> 
<polyline style="fill-rule:evenodd;"
points="112397,26804
112397,26195
113636,26195
113636,26804
112397,26804
" /> 
<polyline style="fill-rule:evenodd;"
points="114563,26804
114563,26195
115802,26195
115802,26804
114563,26804
" /> 
<polyline style="fill-rule:evenodd;"
points="46997,41304
46997,40695
48236,40695
48236,41304
46997,41304
" /> 
<polyline style="fill-rule:evenodd;"
points="49163,41304
49163,40695
50402,40695
50402,41304
49163,41304
" /> 
<polyline style="fill-rule:evenodd;"
points="24997,24204
24997,23595
26236,23595
26236,24204
24997,24204
" /> 
<polyline style="fill-rule:evenodd;"
points="27163,24204
27163,23595
28402,23595
28402,24204
27163,24204
" /> 
<polyline style="fill-rule:evenodd;"
points="65297,57704
65297,57095
66536,57095
66536,57704
65297,57704
" /> 
<polyline style="fill-rule:evenodd;"
points="67463,57704
67463,57095
68702,57095
68702,57704
67463,57704
" /> 
<polyline style="fill-rule:evenodd;"
points="137097,119804
137097,119195
138336,119195
138336,119804
137097,119804
" /> 
<polyline style="fill-rule:evenodd;"
points="139263,119804
139263,119195
140502,119195
140502,119804
139263,119804
" /> 
<polyline style="fill-rule:evenodd;"
points="37897,24204
37897,23595
39136,23595
39136,24204
37897,24204
" /> 
<polyline style="fill-rule:evenodd;"
points="40063,24204
40063,23595
41302,23595
41302,24204
40063,24204
" /> 
<polyline style="fill-rule:evenodd;"
points="158397,110504
158397,109895
159636,109895
159636,110504
158397,110504
" /> 
<polyline style="fill-rule:evenodd;"
points="160563,110504
160563,109895
161802,109895
161802,110504
160563,110504
" /> 
<polyline style="fill-rule:evenodd;"
points="76297,24204
76297,23595
77536,23595
77536,24204
76297,24204
" /> 
<polyline style="fill-rule:evenodd;"
points="78463,24204
78463,23595
79702,23595
79702,24204
78463,24204
" /> 
<polyline style="fill-rule:evenodd;"
points="145897,110504
145897,109895
147136,109895
147136,110504
145897,110504
" /> 
<polyline style="fill-rule:evenodd;"
points="148063,110504
148063,109895
149302,109895
149302,110504
148063,110504
" /> 
<polyline style="fill-rule:evenodd;"
points="101897,24204
101897,23595
103136,23595
103136,24204
101897,24204
" /> 
<polyline style="fill-rule:evenodd;"
points="104063,24204
104063,23595
105302,23595
105302,24204
104063,24204
" /> 
<polyline style="fill-rule:evenodd;"
points="89097,24204
89097,23595
90336,23595
90336,24204
89097,24204
" /> 
<polyline style="fill-rule:evenodd;"
points="91263,24204
91263,23595
92502,23595
92502,24204
91263,24204
" /> 
<polyline style="fill-rule:evenodd;"
points="172579,109070
172579,108329
173120,108329
173120,109070
172579,109070
" /> 
<polyline style="fill-rule:evenodd;"
points="173879,109070
173879,108329
174420,108329
174420,109070
173879,109070
" /> 
<polyline style="fill-rule:evenodd;"
points="192420,109929
192420,110670
191879,110670
191879,109929
192420,109929
" /> 
<polyline style="fill-rule:evenodd;"
points="191120,109929
191120,110670
190579,110670
190579,109929
191120,109929
" /> 
<polyline style="fill-rule:evenodd;"
points="166920,30229
166920,30970
166379,30970
166379,30229
166920,30229
" /> 
<polyline style="fill-rule:evenodd;"
points="165620,30229
165620,30970
165079,30970
165079,30229
165620,30229
" /> 
<polyline style="fill-rule:evenodd;"
points="12297,24204
12297,23595
13536,23595
13536,24204
12297,24204
" /> 
<polyline style="fill-rule:evenodd;"
points="14463,24204
14463,23595
15702,23595
15702,24204
14463,24204
" /> 
<polyline style="fill-rule:evenodd;"
points="162897,110504
162897,109895
164136,109895
164136,110504
162897,110504
" /> 
<polyline style="fill-rule:evenodd;"
points="165063,110504
165063,109895
166302,109895
166302,110504
165063,110504
" /> 
<circle cx="-36700" cy="61900" r="247.472" /> 
<circle cx="-39700" cy="61900" r="247.472" /> 
<circle cx="-41700" cy="61900" r="247.472" /> 
<circle cx="-43700" cy="61900" r="247.472" /> 
<circle cx="-43700" cy="64900" r="247.472" /> 
<circle cx="-41700" cy="64900" r="247.472" /> 
<circle cx="-39700" cy="64900" r="247.472" /> 
<circle cx="-36700" cy="64900" r="247.472" /> 
<polyline style="fill-rule:evenodd;"
points="93829,19370
93829,18829
94370,18829
94370,19370
93829,19370
" /> 
<polyline style="fill-rule:evenodd;"
points="-22870,102270
-22870,101729
-22329,101729
-22329,102270
-22870,102270
" /> 
<polyline style="fill-rule:evenodd;"
points="96029,17170
96029,16629
96570,16629
96570,17170
96029,17170
" /> 
<polyline style="fill-rule:evenodd;"
points="-25170,104570
-25170,104029
-24629,104029
-24629,104570
-25170,104570
" /> 
<circle cx="57500" cy="28300" r="280.472" /> 
<circle cx="56500" cy="28300" r="280.472" /> 
<circle cx="55500" cy="28300" r="280.472" /> 
<circle cx="54500" cy="28300" r="280.472" /> 
<circle cx="53500" cy="28300" r="280.472" /> 
<circle cx="52500" cy="28300" r="280.472" /> 
<circle cx="51500" cy="28300" r="280.472" /> 
<circle cx="50500" cy="28300" r="280.472" /> 
<circle cx="96000" cy="24000" r="1151.57" /> 
<circle cx="146000" cy="16400" r="561.024" /> 
<circle cx="152500" cy="16400" r="561.024" /> 
<circle cx="18100" cy="30300" r="561.024" /> 
<circle cx="18100" cy="23900" r="561.024" /> 
<circle cx="30600" cy="30300" r="561.024" /> 
<circle cx="30600" cy="23900" r="561.024" /> 
<circle cx="43000" cy="30300" r="561.024" /> 
<circle cx="43000" cy="23900" r="561.024" /> 
<circle cx="82000" cy="30300" r="561.024" /> 
<circle cx="82000" cy="23900" r="561.024" /> 
<circle cx="68900" cy="30300" r="561.024" /> 
<circle cx="68900" cy="23700" r="561.024" /> 
<circle cx="59800" cy="23100" r="561.024" /> 
<circle cx="59800" cy="30200" r="561.024" /> 
</g>
<g style="fill:#000000; fill-opacity:1.0; 
stroke:#000000; stroke-width:393.701; stroke-opacity:1; 
stroke-linecap:round; stroke-linejoin:round;">
<path d="M96000 23800
L96000 24000
" />
</g>
<g style="fill:#000000; fill-opacity:1.0; 
stroke:#000000; stroke-width:403.15; stroke-opacity:1; 
stroke-linecap:round; stroke-linejoin:round;">
<path d="M154000 17900
L152500 16400
" />
<path d="M146500 17400
L147000 17900
" />
<path d="M146000 16400
L146500 17400
" />
</g>
<g style="fill:#000000; fill-opacity:1.0; 
stroke:#000000; stroke-width:393.701; stroke-opacity:1; 
stroke-linecap:round; stroke-linejoin:round;">
<path d="M99700 9100
L100700 6100
" />
<path d="M102100 17100
L101200 16700
" />
<path d="M101500 7600
L100700 6100
" />
<path d="M102000 8800
L101500 7600
" />
<path d="M102400 10400
L102000 8800
" />
<path d="M101900 12300
L102400 10400
" />
<path d="M100900 13600
L101900 12300
" />
<path d="M100400 14700
L100900 13600
" />
<path d="M100600 16100
L100400 14700
" />
<path d="M101200 16700
L100600 16100
" />
<path d="M56100 25300
L55000 25900
" />
<path d="M63400 24200
L56100 25300
" />
<path d="M63456 23807
L63400 24200
" />
<path d="M54500 26800
L54500 28300
" />
<path d="M55000 25900
L54500 26800
" />
<path d="M64117 23900
L63456 23807
" />
<path d="M63456 23807
L63456 23807
" />
<path d="M63700 22100
L63456 23807
" />
<path d="M51317 23900
L50500 23900
" />
<path d="M53500 28300
L53000 26300
" />
<path d="M50500 23900
L50900 22100
" />
<path d="M50500 24700
L50500 23900
" />
<path d="M50800 25000
L50500 24700
" />
<path d="M51800 25200
L50800 25000
" />
<path d="M53000 26300
L51800 25200
" />
<path d="M38517 23900
L37700 23900
" />
<path d="M37700 24300
L38600 25400
" />
<path d="M50700 26000
L52000 26500
" />
<path d="M52000 26500
L52300 27200
" />
<path d="M52500 28300
L52300 27200
" />
<path d="M48300 25900
L50700 26000
" />
<path d="M37700 23600
L37700 23900
" />
<path d="M37700 23900
L37700 24300
" />
<path d="M37700 23600
L38100 22100
" />
<path d="M38600 25400
L48300 25900
" />
<path d="M24800 22800
L24800 24900
" />
<path d="M25300 22100
L24800 22800
" />
<path d="M26200 26800
L37600 26900
" />
<path d="M24800 24900
L26200 26800
" />
<path d="M48500 27000
L51000 27000
" />
<path d="M37600 26900
L48500 27000
" />
<path d="M51500 27800
L51500 28300
" />
<path d="M51400 27400
L51500 27800
" />
<path d="M51000 27000
L51400 27400
" />
<path d="M37600 26900
L37500 26900
" />
<path d="M12500 22100
L12300 23600
" />
<path d="M15700 28300
L50500 28300
" />
<path d="M12300 25200
L15700 28300
" />
<path d="M12300 23600
L12300 25200
" />
<path d="M15083 23900
L15800 23900
" />
<path d="M15800 23900
L18100 23900
" />
<path d="M15500 22100
L15800 23600
" />
<path d="M15800 23600
L15800 24100
" />
<path d="M30600 23900
L28600 23900
" />
<path d="M27783 23900
L28600 23900
" />
<path d="M28300 22100
L28600 23600
" />
<path d="M28600 23600
L28600 23900
" />
<path d="M28600 23900
L28600 24100
" />
<path d="M41400 23900
L43000 23900
" />
<path d="M40683 23900
L41400 23900
" />
<path d="M41100 22100
L41400 23500
" />
<path d="M41400 23500
L41400 23900
" />
<path d="M41400 23900
L41400 24100
" />
<path d="M57500 28300
L58300 28300
" />
<path d="M60500 29087
L60500 30500
" />
<path d="M59712 28300
L60500 29087
" />
<path d="M58300 28300
L59712 28300
" />
<path d="M57500 28300
L57500 30300
" />
<path d="M53483 23900
L54300 24100
" />
<path d="M92600 24100
L92700 30300
" />
<path d="M91883 23900
L92600 24100
" />
<path d="M92600 23400
L92600 24100
" />
<path d="M92600 23400
L92300 22100
" />
<path d="M79083 23900
L79900 23900
" />
<path d="M79900 23900
L82000 23900
" />
<path d="M79500 22100
L79900 23400
" />
<path d="M79900 23400
L79900 24100
" />
<path d="M67094 23768
L68900 23700
" />
<path d="M66283 23900
L67094 23768
" />
<path d="M67094 23768
L67100 23767
" />
<path d="M66700 22100
L67100 23300
" />
<path d="M67100 23300
L67100 23767
" />
<path d="M67100 23767
L67100 24100
" />
<path d="M54300 24100
L59800 23100
" />
<path d="M54300 23400
L54300 24100
" />
<path d="M54300 23400
L53900 22100
" />
<path d="M92300 19100
L94100 19100
" />
<path d="M63700 19100
L62100 18800
" />
<path d="M60300 12800
L61300 12100
" />
<path d="M59800 13800
L60300 12800
" />
<path d="M59600 14800
L59800 13800
" />
<path d="M59600 16300
L59600 14800
" />
<path d="M60100 17500
L59600 16300
" />
<path d="M61400 18400
L60100 17500
" />
<path d="M62100 18800
L61400 18400
" />
<path d="M66700 15100
L67700 12100
" />
<path d="M67700 9100
L68600 9700
" />
<path d="M67500 16900
L66700 17100
" />
<path d="M68500 16500
L67500 16900
" />
<path d="M69100 15800
L68500 16500
" />
<path d="M69600 14800
L69100 15800
" />
<path d="M69900 13500
L69600 14800
" />
<path d="M69600 11900
L69900 13500
" />
<path d="M69400 11100
L69600 11900
" />
<path d="M69000 10200
L69400 11100
" />
<path d="M68600 9700
L69000 10200
" />
<path d="M63700 15100
L65000 16200
" />
<path d="M65500 17400
L65500 18200
" />
<path d="M65200 16600
L65500 17400
" />
<path d="M65000 16200
L65200 16600
" />
<path d="M66700 17100
L65800 17500
" />
<path d="M55600 19200
L53900 19100
" />
<path d="M56900 19400
L55600 19200
" />
<path d="M58500 19800
L56900 19400
" />
<path d="M61700 20400
L58500 19800
" />
<path d="M63600 20500
L61700 20400
" />
<path d="M64600 20200
L63600 20500
" />
<path d="M65000 19700
L64600 20200
" />
<path d="M65300 18900
L65000 19700
" />
<path d="M65500 18200
L65300 18900
" />
<path d="M65800 17500
L65500 18200
" />
<path d="M79500 17100
L80800 16500
" />
<path d="M82000 10400
L80500 9100
" />
<path d="M82500 11700
L82000 10400
" />
<path d="M82700 13300
L82500 11700
" />
<path d="M82400 15000
L82700 13300
" />
<path d="M80800 16500
L82400 15000
" />
<path d="M76500 15100
L77400 15600
" />
<path d="M78100 17100
L78000 18500
" />
<path d="M77800 16400
L78100 17100
" />
<path d="M77400 15600
L77800 16400
" />
<path d="M79500 17100
L78800 17400
" />
<path d="M68100 19200
L66700 19100
" />
<path d="M68800 19200
L68100 19200
" />
<path d="M69700 19400
L68800 19200
" />
<path d="M70500 19700
L69700 19400
" />
<path d="M72800 20200
L70500 19700
" />
<path d="M74500 20400
L72800 20200
" />
<path d="M76200 20500
L74500 20400
" />
<path d="M77200 20200
L76200 20500
" />
<path d="M77700 19900
L77200 20200
" />
<path d="M78000 19200
L77700 19900
" />
<path d="M78000 18500
L78000 19200
" />
<path d="M78200 18000
L78000 18500
" />
<path d="M78500 17700
L78200 18000
" />
<path d="M78800 17400
L78500 17700
" />
<path d="M53900 15100
L54900 12100
" />
<path d="M50900 19100
L49400 18500
" />
<path d="M47900 12600
L48500 12100
" />
<path d="M47600 13000
L47900 12600
" />
<path d="M47300 13900
L47600 13000
" />
<path d="M47200 14500
L47300 13900
" />
<path d="M47400 15600
L47200 14500
" />
<path d="M47700 16900
L47400 15600
" />
<path d="M48200 17400
L47700 16900
" />
<path d="M48600 17900
L48200 17400
" />
<path d="M49400 18500
L48600 17900
" />
<path d="M89717 23900
L88900 23900
" />
<path d="M56500 28300
L56600 27600
" />
<path d="M88900 23500
L89300 22100
" />
<path d="M88900 24700
L88900 23900
" />
<path d="M88900 23900
L88900 23500
" />
<path d="M88700 24900
L88900 24700
" />
<path d="M86400 26900
L88700 24900
" />
<path d="M58900 26900
L86400 26900
" />
<path d="M57000 27200
L58900 26900
" />
<path d="M56600 27600
L57000 27200
" />
<path d="M92300 15100
L93300 12100
" />
<path d="M89300 19100
L88400 18900
" />
<path d="M86300 13200
L86900 12100
" />
<path d="M86000 14000
L86300 13200
" />
<path d="M85900 15300
L86000 14000
" />
<path d="M86300 16500
L85900 15300
" />
<path d="M86800 17500
L86300 16500
" />
<path d="M87500 18400
L86800 17500
" />
<path d="M88400 18900
L87500 18400
" />
<path d="M56400 26300
L55800 26700
" />
<path d="M58748 25810
L56400 26300
" />
<path d="M55600 27200
L55500 28300
" />
<path d="M55800 26700
L55600 27200
" />
<path d="M58748 25810
L63700 25600
" />
<path d="M63700 25600
L75100 25500
" />
<path d="M75100 25500
L76000 24700
" />
<path d="M76000 24700
L76100 24600
" />
<path d="M76100 24600
L76100 23635
" />
<path d="M58748 25810
L58800 25800
" />
<path d="M76917 23900
L76100 23635
" />
<path d="M76100 23400
L76500 22100
" />
<path d="M76100 23635
L76100 23400
" />
<path d="M79500 15100
L80500 12100
" />
<path d="M76500 19100
L74800 18900
" />
<path d="M73100 13200
L74100 12100
" />
<path d="M72700 14300
L73100 13200
" />
<path d="M72600 15600
L72700 14300
" />
<path d="M73200 17200
L72600 15600
" />
<path d="M73800 18200
L73200 17200
" />
<path d="M74800 18900
L73800 18200
" />
<path d="M25300 19100
L24100 18900
" />
<path d="M22500 12900
L22900 12100
" />
<path d="M21900 14200
L22500 12900
" />
<path d="M22000 16100
L21900 14200
" />
<path d="M22200 17700
L22000 16100
" />
<path d="M23200 18500
L22200 17700
" />
<path d="M24100 18900
L23200 18500
" />
<path d="M16500 12100
L15500 15100
" />
<path d="M12500 19100
L10500 18100
" />
<path d="M9400 12800
L10100 12100
" />
<path d="M9300 13300
L9400 12800
" />
<path d="M8900 14100
L9300 13300
" />
<path d="M9100 15400
L8900 14100
" />
<path d="M9600 17400
L9100 15400
" />
<path d="M10500 18100
L9600 17400
" />
<path d="M28300 15100
L29300 12100
" />
<path d="M15500 17100
L17100 16300
" />
<path d="M17600 9400
L16500 9100
" />
<path d="M18300 10000
L17600 9400
" />
<path d="M19100 11100
L18300 10000
" />
<path d="M18900 12900
L19100 11100
" />
<path d="M18200 14700
L18900 12900
" />
<path d="M17100 16300
L18200 14700
" />
<path d="M12500 15100
L14300 16900
" />
<path d="M14300 16900
L14500 17500
" />
<path d="M14500 17500
L14300 18800
" />
<path d="M2100 12100
L3800 14500
" />
<path d="M14800 17100
L15500 17100
" />
<path d="M14500 17500
L14800 17100
" />
<path d="M14300 18800
L14500 17500
" />
<path d="M14000 19900
L14300 18800
" />
<path d="M13500 20400
L14000 19900
" />
<path d="M12400 20400
L13500 20400
" />
<path d="M9300 19300
L12400 20400
" />
<path d="M3800 14500
L9300 19300
" />
<path d="M28300 17100
L29600 16300
" />
<path d="M30400 9800
L29300 9100
" />
<path d="M31300 10900
L30400 9800
" />
<path d="M31400 12900
L31300 10900
" />
<path d="M30900 14700
L31400 12900
" />
<path d="M29600 16300
L30900 14700
" />
<path d="M25300 15100
L26500 15800
" />
<path d="M27100 17500
L27000 18000
" />
<path d="M26900 16500
L27100 17500
" />
<path d="M26500 15800
L26900 16500
" />
<path d="M28300 17100
L27500 17400
" />
<path d="M17400 19100
L15500 19100
" />
<path d="M18500 19400
L17400 19100
" />
<path d="M20600 19900
L18500 19400
" />
<path d="M22500 20300
L20600 19900
" />
<path d="M25200 20500
L22500 20300
" />
<path d="M26300 20400
L25200 20500
" />
<path d="M27000 19000
L26300 20400
" />
<path d="M27000 18000
L27000 19000
" />
<path d="M27500 17400
L27000 18000
" />
<path d="M38100 19100
L36200 18700
" />
<path d="M34500 13200
L35700 12100
" />
<path d="M34400 14200
L34500 13200
" />
<path d="M34400 16100
L34400 14200
" />
<path d="M35100 17500
L34400 16100
" />
<path d="M36200 18700
L35100 17500
" />
<path d="M41100 15100
L42100 12100
" />
<path d="M94300 6100
L95900 7500
" />
<path d="M97000 10600
L96300 16900
" />
<path d="M95900 7500
L97000 10600
" />
<path d="M94300 6100
L87900 6100
" />
<path d="M81500 6100
L87900 6100
" />
<path d="M86900 9100
L87900 6100
" />
<path d="M89300 17100
L88400 16700
" />
<path d="M88400 16700
L87900 16100
" />
<path d="M87900 16100
L87600 14900
" />
<path d="M87600 14900
L88200 13500
" />
<path d="M88200 13500
L88700 12700
" />
<path d="M88700 12700
L89300 11300
" />
<path d="M89300 11300
L89300 9700
" />
<path d="M89300 9700
L88600 7500
" />
<path d="M88600 7500
L87900 6100
" />
<path d="M75100 6100
L81500 6100
" />
<path d="M76500 17100
L75500 16800
" />
<path d="M76500 7500
L75100 6100
" />
<path d="M76900 8500
L76500 7500
" />
<path d="M76900 10700
L76900 8500
" />
<path d="M76300 12600
L76900 10700
" />
<path d="M75400 13600
L76300 12600
" />
<path d="M74700 15000
L75400 13600
" />
<path d="M74800 15900
L74700 15000
" />
<path d="M75500 16800
L74800 15900
" />
<path d="M74100 9100
L75100 6100
" />
<path d="M62300 6100
L68700 6100
" />
<path d="M68700 6100
L75100 6100
" />
<path d="M62300 6100
L61300 9100
" />
<path d="M55900 6100
L62300 6100
" />
<path d="M63700 17100
L62300 16600
" />
<path d="M62300 16600
L61700 15600
" />
<path d="M61700 15600
L61900 14200
" />
<path d="M61900 14200
L62500 13100
" />
<path d="M62500 13100
L63600 11600
" />
<path d="M63600 11600
L63800 10700
" />
<path d="M63800 10700
L63900 8900
" />
<path d="M63900 8900
L63300 7600
" />
<path d="M63300 7600
L62300 6100
" />
<path d="M49500 6100
L55900 6100
" />
<path d="M43100 6100
L49500 6100
" />
<path d="M48500 9100
L49500 6100
" />
<path d="M50900 17100
L49600 16000
" />
<path d="M49600 16000
L49300 15400
" />
<path d="M49300 15400
L49400 13900
" />
<path d="M49400 13900
L50000 13100
" />
<path d="M50000 13100
L51000 11100
" />
<path d="M51000 11100
L51000 10200
" />
<path d="M51000 10200
L50900 8900
" />
<path d="M50900 8900
L50600 8000
" />
<path d="M50600 8000
L49500 6100
" />
<path d="M36700 6100
L43100 6100
" />
<path d="M30300 6100
L36700 6100
" />
<path d="M35700 9100
L36700 6100
" />
<path d="M38100 17100
L37200 16700
" />
<path d="M37200 16700
L36200 15700
" />
<path d="M36200 15700
L36200 14500
" />
<path d="M36200 14500
L36800 13300
" />
<path d="M36800 13300
L37800 12100
" />
<path d="M37800 12100
L38700 10700
" />
<path d="M38700 10700
L38800 9000
" />
<path d="M38800 9000
L38000 7700
" />
<path d="M38000 7700
L37500 6900
" />
<path d="M37500 6900
L36700 6100
" />
<path d="M23900 6100
L30300 6100
" />
<path d="M22900 9100
L23900 6100
" />
<path d="M17500 6100
L23900 6100
" />
<path d="M25300 17100
L24200 16400
" />
<path d="M24200 16400
L23700 15300
" />
<path d="M23700 15300
L23800 13900
" />
<path d="M23800 13900
L24800 12500
" />
<path d="M24800 12500
L25400 11100
" />
<path d="M25400 11100
L25400 9000
" />
<path d="M25400 9000
L24900 7400
" />
<path d="M24900 7400
L23900 6100
" />
<path d="M11100 6100
L17500 6100
" />
<path d="M3100 6100
L11100 6100
" />
<path d="M2100 9100
L3100 6100
" />
<path d="M10100 9100
L11100 6100
" />
<path d="M12500 17100
L11400 16200
" />
<path d="M11400 16200
L10900 14400
" />
<path d="M10900 14400
L11400 13000
" />
<path d="M11400 13000
L12000 11900
" />
<path d="M12000 11900
L12700 8500
" />
<path d="M12700 8500
L11100 6100
" />
<path d="M54900 9100
L56200 10300
" />
<path d="M55100 16300
L53900 17100
" />
<path d="M55800 15700
L55100 16300
" />
<path d="M56300 14600
L55800 15700
" />
<path d="M56700 13300
L56300 14600
" />
<path d="M56900 12300
L56700 13300
" />
<path d="M56800 11200
L56900 12300
" />
<path d="M56200 10300
L56800 11200
" />
<path d="M50900 15100
L52000 15800
" />
<path d="M52700 17300
L52700 17900
" />
<path d="M52600 16700
L52700 17300
" />
<path d="M52400 16200
L52600 16700
" />
<path d="M52000 15800
L52400 16200
" />
<path d="M53900 17100
L53200 17300
" />
<path d="M42200 19000
L41100 19100
" />
<path d="M43400 18800
L42200 19000
" />
<path d="M43900 18700
L43400 18800
" />
<path d="M44900 18700
L43900 18700
" />
<path d="M46000 18800
L44900 18700
" />
<path d="M48200 19600
L46000 18800
" />
<path d="M50000 20200
L48200 19600
" />
<path d="M51100 20300
L50000 20200
" />
<path d="M51700 20200
L51100 20300
" />
<path d="M52100 19900
L51700 20200
" />
<path d="M52400 19600
L52100 19900
" />
<path d="M52600 18900
L52400 19600
" />
<path d="M52600 18400
L52600 18900
" />
<path d="M52700 17900
L52600 18400
" />
<path d="M52900 17600
L52700 17900
" />
<path d="M53200 17300
L52900 17600
" />
<path d="M42100 9100
L43400 10100
" />
<path d="M41800 16700
L41100 17100
" />
<path d="M42900 15700
L41800 16700
" />
<path d="M43500 14600
L42900 15700
" />
<path d="M44200 13000
L43500 14600
" />
<path d="M44100 11500
L44200 13000
" />
<path d="M43400 10100
L44100 11500
" />
<path d="M38100 15100
L39300 16100
" />
<path d="M39700 16900
L39831 18610
" />
<path d="M39300 16100
L39700 16900
" />
<path d="M41100 17100
L40200 17800
" />
<path d="M29700 19100
L28300 19100
" />
<path d="M30900 19200
L29700 19100
" />
<path d="M33100 19800
L30900 19200
" />
<path d="M35000 20200
L33100 19800
" />
<path d="M37500 20600
L35000 20200
" />
<path d="M38800 20400
L37500 20600
" />
<path d="M39400 19900
L38800 20400
" />
<path d="M39700 18900
L39400 19900
" />
<path d="M40200 17800
L39831 18610
" />
<path d="M39831 18610
L39700 18900
" />
<path d="M102100 15100
L103200 16100
" />
<path d="M103700 17100
L103845 18405
" />
<path d="M103200 16100
L103700 17100
" />
<path d="M105100 17100
L104400 17500
" />
<path d="M103900 18200
L103845 18405
" />
<path d="M104400 17500
L103900 18200
" />
<path d="M92300 17100
L93400 16500
" />
<path d="M94600 10200
L93300 9100
" />
<path d="M95300 11600
L94600 10200
" />
<path d="M95200 13400
L95300 11600
" />
<path d="M94600 15000
L95200 13400
" />
<path d="M93400 16500
L94600 15000
" />
<path d="M89300 15100
L90200 15800
" />
<path d="M90900 17600
L90900 18666
" />
<path d="M90700 16800
L90900 17600
" />
<path d="M90200 15800
L90700 16800
" />
<path d="M92300 17100
L91500 17600
" />
<path d="M80800 19100
L79500 19100
" />
<path d="M81500 19100
L80800 19100
" />
<path d="M82700 19200
L81500 19100
" />
<path d="M84500 19500
L82700 19200
" />
<path d="M86800 20200
L84500 19500
" />
<path d="M88500 20500
L86800 20200
" />
<path d="M89600 20400
L88500 20500
" />
<path d="M90300 20100
L89600 20400
" />
<path d="M90700 19600
L90300 20100
" />
<path d="M90800 18900
L90700 19600
" />
<path d="M91100 18200
L90900 18666
" />
<path d="M90900 18666
L90800 18900
" />
<path d="M91500 17600
L91100 18200
" />
<path d="M106100 12100
L105100 15100
" />
<path d="M102100 19100
L100900 18800
" />
<path d="M98700 13600
L99700 12100
" />
<path d="M98300 14800
L98700 13600
" />
<path d="M98300 16200
L98300 14800
" />
<path d="M98800 17300
L98300 16200
" />
<path d="M99600 18200
L98800 17300
" />
<path d="M100900 18800
L99600 18200
" />
</g>
<g style="fill:#000000; fill-opacity:1.0; 
stroke:#000000; stroke-width:59.0551; stroke-opacity:1; 
stroke-linecap:round; stroke-linejoin:round;">
<polyline style="fill-rule:evenodd;"
points="96450,30950
14850,31049
14850,29550
49100,29550
57550,29550
57550,28886
57576,28859
57697,28835
57732,28752
57550,28686
57550,28150
57788,28150
57886,28248
57828,28409
57952,28532
58035,28497
58053,28382
58221,28215
58156,28150
60650,28150
60650,29550
65300,29550
96450,29550
96450,30950
" /> 
</g>
<g style="fill:#000000; fill-opacity:0.0; 
stroke:#000000; stroke-width:100; stroke-opacity:1; 
stroke-linecap:round; stroke-linejoin:round;">
<polyline fill="none;"
points="96450,30950
14850,31049
14850,29550
49100,29550
57550,29550
57550,28886
57576,28859
57697,28835
57732,28752
57550,28686
57550,28150
57788,28150
57886,28248
57828,28409
57952,28532
58035,28497
58053,28382
58221,28215
58156,28150
60650,28150
60650,29550
65300,29550
96450,29550
96450,30950
" /> 
</g>
<g style="fill:#FFFFFF; fill-opacity:0.0; 
stroke:#FFFFFF; stroke-width:59.0551; stroke-opacity:1; 
stroke-linecap:round; stroke-linejoin:round;">
</g>
<g style="fill:#FFFFFF; fill-opacity:1.0; 
stroke:#FFFFFF; stroke-width:59.0551; stroke-opacity:1; 
stroke-linecap:round; stroke-linejoin:round;">
<circle cx="96000" cy="24000" r="39.3701" /> 
<circle cx="146000" cy="16400" r="39.3701" /> 
<circle cx="152500" cy="16400" r="39.3701" /> 
<circle cx="18100" cy="30300" r="39.3701" /> 
<circle cx="18100" cy="23900" r="39.3701" /> 
<circle cx="30600" cy="30300" r="39.3701" /> 
<circle cx="30600" cy="23900" r="39.3701" /> 
<circle cx="43000" cy="30300" r="39.3701" /> 
<circle cx="43000" cy="23900" r="39.3701" /> 
<circle cx="82000" cy="30300" r="39.3701" /> 
<circle cx="82000" cy="23900" r="39.3701" /> 
<circle cx="68900" cy="30300" r="39.3701" /> 
<circle cx="68900" cy="23700" r="39.3701" /> 
<circle cx="59800" cy="23100" r="39.3701" /> 
<circle cx="59800" cy="30200" r="39.3701" /> 
<circle cx="28300" cy="22100" r="39.3701" /> 
<circle cx="28300" cy="19100" r="39.3701" /> 
<circle cx="28300" cy="17100" r="39.3701" /> 
<circle cx="28300" cy="15100" r="39.3701" /> 
<circle cx="25300" cy="15100" r="39.3701" /> 
<circle cx="25300" cy="17100" r="39.3701" /> 
<circle cx="25300" cy="19100" r="39.3701" /> 
<circle cx="25300" cy="22100" r="39.3701" /> 
<circle cx="15500" cy="22100" r="39.3701" /> 
<circle cx="15500" cy="19100" r="39.3701" /> 
<circle cx="15500" cy="17100" r="39.3701" /> 
<circle cx="15500" cy="15100" r="39.3701" /> 
<circle cx="12500" cy="15100" r="39.3701" /> 
<circle cx="12500" cy="17100" r="39.3701" /> 
<circle cx="12500" cy="19100" r="39.3701" /> 
<circle cx="12500" cy="22100" r="39.3701" /> 
<circle cx="17500" cy="6100" r="39.3701" /> 
<circle cx="16500" cy="12100" r="39.3701" /> 
<circle cx="16500" cy="9100" r="39.3701" /> 
<circle cx="11100" cy="6100" r="39.3701" /> 
<circle cx="10100" cy="12100" r="39.3701" /> 
<circle cx="10100" cy="9100" r="39.3701" /> 
<circle cx="3100" cy="6100" r="39.3701" /> 
<circle cx="2100" cy="12100" r="39.3701" /> 
<circle cx="2100" cy="9100" r="39.3701" /> 
<circle cx="105100" cy="22100" r="39.3701" /> 
<circle cx="105100" cy="19100" r="39.3701" /> 
<circle cx="105100" cy="17100" r="39.3701" /> 
<circle cx="105100" cy="15100" r="39.3701" /> 
<circle cx="102100" cy="15100" r="39.3701" /> 
<circle cx="102100" cy="17100" r="39.3701" /> 
<circle cx="102100" cy="19100" r="39.3701" /> 
<circle cx="102100" cy="22100" r="39.3701" /> 
<circle cx="41100" cy="22100" r="39.3701" /> 
<circle cx="41100" cy="19100" r="39.3701" /> 
<circle cx="41100" cy="17100" r="39.3701" /> 
<circle cx="41100" cy="15100" r="39.3701" /> 
<circle cx="38100" cy="15100" r="39.3701" /> 
<circle cx="38100" cy="17100" r="39.3701" /> 
<circle cx="38100" cy="19100" r="39.3701" /> 
<circle cx="38100" cy="22100" r="39.3701" /> 
<circle cx="53900" cy="22100" r="39.3701" /> 
<circle cx="53900" cy="19100" r="39.3701" /> 
<circle cx="53900" cy="17100" r="39.3701" /> 
<circle cx="53900" cy="15100" r="39.3701" /> 
<circle cx="50900" cy="15100" r="39.3701" /> 
<circle cx="50900" cy="17100" r="39.3701" /> 
<circle cx="50900" cy="19100" r="39.3701" /> 
<circle cx="50900" cy="22100" r="39.3701" /> 
<circle cx="66700" cy="22100" r="39.3701" /> 
<circle cx="66700" cy="19100" r="39.3701" /> 
<circle cx="66700" cy="17100" r="39.3701" /> 
<circle cx="66700" cy="15100" r="39.3701" /> 
<circle cx="63700" cy="15100" r="39.3701" /> 
<circle cx="63700" cy="17100" r="39.3701" /> 
<circle cx="63700" cy="19100" r="39.3701" /> 
<circle cx="63700" cy="22100" r="39.3701" /> 
<circle cx="79500" cy="22100" r="39.3701" /> 
<circle cx="79500" cy="19100" r="39.3701" /> 
<circle cx="79500" cy="17100" r="39.3701" /> 
<circle cx="79500" cy="15100" r="39.3701" /> 
<circle cx="76500" cy="15100" r="39.3701" /> 
<circle cx="76500" cy="17100" r="39.3701" /> 
<circle cx="76500" cy="19100" r="39.3701" /> 
<circle cx="76500" cy="22100" r="39.3701" /> 
<circle cx="92300" cy="22100" r="39.3701" /> 
<circle cx="92300" cy="19100" r="39.3701" /> 
<circle cx="92300" cy="17100" r="39.3701" /> 
<circle cx="92300" cy="15100" r="39.3701" /> 
<circle cx="89300" cy="15100" r="39.3701" /> 
<circle cx="89300" cy="17100" r="39.3701" /> 
<circle cx="89300" cy="19100" r="39.3701" /> 
<circle cx="89300" cy="22100" r="39.3701" /> 
<circle cx="94300" cy="6100" r="39.3701" /> 
<circle cx="93300" cy="12100" r="39.3701" /> 
<circle cx="93300" cy="9100" r="39.3701" /> 
<circle cx="87900" cy="6100" r="39.3701" /> 
<circle cx="86900" cy="12100" r="39.3701" /> 
<circle cx="86900" cy="9100" r="39.3701" /> 
<circle cx="81500" cy="6100" r="39.3701" /> 
<circle cx="80500" cy="12100" r="39.3701" /> 
<circle cx="80500" cy="9100" r="39.3701" /> 
<circle cx="75100" cy="6100" r="39.3701" /> 
<circle cx="74100" cy="12100" r="39.3701" /> 
<circle cx="74100" cy="9100" r="39.3701" /> 
<circle cx="100700" cy="6100" r="39.3701" /> 
<circle cx="99700" cy="12100" r="39.3701" /> 
<circle cx="99700" cy="9100" r="39.3701" /> 
<circle cx="68700" cy="6100" r="39.3701" /> 
<circle cx="67700" cy="12100" r="39.3701" /> 
<circle cx="67700" cy="9100" r="39.3701" /> 
<circle cx="62300" cy="6100" r="39.3701" /> 
<circle cx="61300" cy="12100" r="39.3701" /> 
<circle cx="61300" cy="9100" r="39.3701" /> 
<circle cx="107100" cy="6100" r="39.3701" /> 
<circle cx="106100" cy="12100" r="39.3701" /> 
<circle cx="106100" cy="9100" r="39.3701" /> 
<circle cx="55900" cy="6100" r="39.3701" /> 
<circle cx="54900" cy="12100" r="39.3701" /> 
<circle cx="54900" cy="9100" r="39.3701" /> 
<circle cx="49500" cy="6100" r="39.3701" /> 
<circle cx="48500" cy="12100" r="39.3701" /> 
<circle cx="48500" cy="9100" r="39.3701" /> 
<circle cx="23900" cy="6100" r="39.3701" /> 
<circle cx="22900" cy="12100" r="39.3701" /> 
<circle cx="22900" cy="9100" r="39.3701" /> 
<circle cx="43100" cy="6100" r="39.3701" /> 
<circle cx="42100" cy="12100" r="39.3701" /> 
<circle cx="42100" cy="9100" r="39.3701" /> 
<circle cx="36700" cy="6100" r="39.3701" /> 
<circle cx="35700" cy="12100" r="39.3701" /> 
<circle cx="35700" cy="9100" r="39.3701" /> 
<circle cx="30300" cy="6100" r="39.3701" /> 
<circle cx="29300" cy="12100" r="39.3701" /> 
<circle cx="29300" cy="9100" r="39.3701" /> 
<circle cx="118000" cy="22100" r="39.3701" /> 
<circle cx="118000" cy="19100" r="39.3701" /> 
<circle cx="118000" cy="17100" r="39.3701" /> 
<circle cx="118000" cy="15100" r="39.3701" /> 
<circle cx="115000" cy="15100" r="39.3701" /> 
<circle cx="115000" cy="17100" r="39.3701" /> 
<circle cx="115000" cy="19100" r="39.3701" /> 
<circle cx="115000" cy="22100" r="39.3701" /> 
<circle cx="141500" cy="23900" r="39.3701" /> 
<circle cx="141500" cy="20900" r="39.3701" /> 
<circle cx="141500" cy="18900" r="39.3701" /> 
<circle cx="141500" cy="16900" r="39.3701" /> 
<circle cx="138500" cy="16900" r="39.3701" /> 
<circle cx="138500" cy="18900" r="39.3701" /> 
<circle cx="138500" cy="20900" r="39.3701" /> 
<circle cx="138500" cy="23900" r="39.3701" /> 
<circle cx="132800" cy="6100" r="39.3701" /> 
<circle cx="131800" cy="12100" r="39.3701" /> 
<circle cx="131800" cy="9100" r="39.3701" /> 
<circle cx="113600" cy="6100" r="39.3701" /> 
<circle cx="112600" cy="12100" r="39.3701" /> 
<circle cx="112600" cy="9100" r="39.3701" /> 
<circle cx="120000" cy="6100" r="39.3701" /> 
<circle cx="119000" cy="12100" r="39.3701" /> 
<circle cx="119000" cy="9100" r="39.3701" /> 
<circle cx="126400" cy="6100" r="39.3701" /> 
<circle cx="125400" cy="12100" r="39.3701" /> 
<circle cx="125400" cy="9100" r="39.3701" /> 
<circle cx="147000" cy="17900" r="39.3701" /> 
<circle cx="148000" cy="17900" r="39.3701" /> 
<circle cx="148000" cy="18900" r="39.3701" /> 
<circle cx="147000" cy="18900" r="39.3701" /> 
<circle cx="154000" cy="17900" r="39.3701" /> 
<circle cx="155000" cy="17900" r="39.3701" /> 
<circle cx="155000" cy="18900" r="39.3701" /> 
<circle cx="154000" cy="18900" r="39.3701" /> 
<circle cx="169100" cy="102200" r="39.3701" /> 
<circle cx="170100" cy="102200" r="39.3701" /> 
<circle cx="170100" cy="103200" r="39.3701" /> 
<circle cx="169100" cy="103200" r="39.3701" /> 
<circle cx="175600" cy="102200" r="39.3701" /> 
<circle cx="176600" cy="102200" r="39.3701" /> 
<circle cx="176600" cy="103200" r="39.3701" /> 
<circle cx="175600" cy="103200" r="39.3701" /> 
<circle cx="131600" cy="89700" r="39.3701" /> 
<circle cx="130600" cy="95700" r="39.3701" /> 
<circle cx="130600" cy="92700" r="39.3701" /> 
<circle cx="138100" cy="89700" r="39.3701" /> 
<circle cx="137100" cy="95700" r="39.3701" /> 
<circle cx="137100" cy="92700" r="39.3701" /> 
<circle cx="144600" cy="89700" r="39.3701" /> 
<circle cx="143600" cy="95700" r="39.3701" /> 
<circle cx="143600" cy="92700" r="39.3701" /> 
<circle cx="151100" cy="89700" r="39.3701" /> 
<circle cx="150100" cy="95700" r="39.3701" /> 
<circle cx="150100" cy="92700" r="39.3701" /> 
<circle cx="157600" cy="89700" r="39.3701" /> 
<circle cx="156600" cy="95700" r="39.3701" /> 
<circle cx="156600" cy="92700" r="39.3701" /> 
<circle cx="164100" cy="89700" r="39.3701" /> 
<circle cx="163100" cy="95700" r="39.3701" /> 
<circle cx="163100" cy="92700" r="39.3701" /> 
<circle cx="162100" cy="105700" r="39.3701" /> 
<circle cx="162100" cy="102700" r="39.3701" /> 
<circle cx="162100" cy="100700" r="39.3701" /> 
<circle cx="162100" cy="98700" r="39.3701" /> 
<circle cx="159100" cy="98700" r="39.3701" /> 
<circle cx="159100" cy="100700" r="39.3701" /> 
<circle cx="159100" cy="102700" r="39.3701" /> 
<circle cx="159100" cy="105700" r="39.3701" /> 
<circle cx="149100" cy="105700" r="39.3701" /> 
<circle cx="149100" cy="102700" r="39.3701" /> 
<circle cx="149100" cy="100700" r="39.3701" /> 
<circle cx="149100" cy="98700" r="39.3701" /> 
<circle cx="146100" cy="98700" r="39.3701" /> 
<circle cx="146100" cy="100700" r="39.3701" /> 
<circle cx="146100" cy="102700" r="39.3701" /> 
<circle cx="146100" cy="105700" r="39.3701" /> 
<circle cx="106300" cy="105900" r="39.3701" /> 
<circle cx="106300" cy="102900" r="39.3701" /> 
<circle cx="106300" cy="100900" r="39.3701" /> 
<circle cx="106300" cy="98900" r="39.3701" /> 
<circle cx="103300" cy="98900" r="39.3701" /> 
<circle cx="103300" cy="100900" r="39.3701" /> 
<circle cx="103300" cy="102900" r="39.3701" /> 
<circle cx="103300" cy="105900" r="39.3701" /> 
<circle cx="136100" cy="105700" r="39.3701" /> 
<circle cx="136100" cy="102700" r="39.3701" /> 
<circle cx="136100" cy="100700" r="39.3701" /> 
<circle cx="136100" cy="98700" r="39.3701" /> 
<circle cx="133100" cy="98700" r="39.3701" /> 
<circle cx="133100" cy="100700" r="39.3701" /> 
<circle cx="133100" cy="102700" r="39.3701" /> 
<circle cx="133100" cy="105700" r="39.3701" /> 
<circle cx="123100" cy="105700" r="39.3701" /> 
<circle cx="123100" cy="102700" r="39.3701" /> 
<circle cx="123100" cy="100700" r="39.3701" /> 
<circle cx="123100" cy="98700" r="39.3701" /> 
<circle cx="120100" cy="98700" r="39.3701" /> 
<circle cx="120100" cy="100700" r="39.3701" /> 
<circle cx="120100" cy="102700" r="39.3701" /> 
<circle cx="120100" cy="105700" r="39.3701" /> 
<circle cx="166600" cy="105700" r="39.3701" /> 
<circle cx="166600" cy="102700" r="39.3701" /> 
<circle cx="166600" cy="100700" r="39.3701" /> 
<circle cx="166600" cy="98700" r="39.3701" /> 
<circle cx="163600" cy="98700" r="39.3701" /> 
<circle cx="163600" cy="100700" r="39.3701" /> 
<circle cx="163600" cy="102700" r="39.3701" /> 
<circle cx="163600" cy="105700" r="39.3701" /> 
<circle cx="-41400" cy="53000" r="39.3701" /> 
<circle cx="-42400" cy="59000" r="39.3701" /> 
<circle cx="-42400" cy="56000" r="39.3701" /> 
<circle cx="-35100" cy="53000" r="39.3701" /> 
<circle cx="-36100" cy="59000" r="39.3701" /> 
<circle cx="-36100" cy="56000" r="39.3701" /> 
<circle cx="-28800" cy="53000" r="39.3701" /> 
<circle cx="-29800" cy="59000" r="39.3701" /> 
<circle cx="-29800" cy="56000" r="39.3701" /> 
<circle cx="-22600" cy="53000" r="39.3701" /> 
<circle cx="-23600" cy="59000" r="39.3701" /> 
<circle cx="-23600" cy="56000" r="39.3701" /> 
<circle cx="145600" cy="6100" r="39.3701" /> 
<circle cx="144600" cy="12100" r="39.3701" /> 
<circle cx="144600" cy="9100" r="39.3701" /> 
<circle cx="139100" cy="6100" r="39.3701" /> 
<circle cx="138100" cy="12100" r="39.3701" /> 
<circle cx="138100" cy="9100" r="39.3701" /> 
<circle cx="-55200" cy="48000" r="39.3701" /> 
<circle cx="-56200" cy="54000" r="39.3701" /> 
<circle cx="-56200" cy="51000" r="39.3701" /> 
<circle cx="-63700" cy="47400" r="39.3701" /> 
<circle cx="-64700" cy="53400" r="39.3701" /> 
<circle cx="-64700" cy="50400" r="39.3701" /> 
<circle cx="6900" cy="35000" r="39.3701" /> 
<circle cx="5900" cy="41000" r="39.3701" /> 
<circle cx="5900" cy="38000" r="39.3701" /> 
<circle cx="13300" cy="35000" r="39.3701" /> 
<circle cx="12300" cy="41000" r="39.3701" /> 
<circle cx="12300" cy="38000" r="39.3701" /> 
<circle cx="19700" cy="35000" r="39.3701" /> 
<circle cx="18700" cy="41000" r="39.3701" /> 
<circle cx="18700" cy="38000" r="39.3701" /> 
<circle cx="26100" cy="35000" r="39.3701" /> 
<circle cx="25100" cy="41000" r="39.3701" /> 
<circle cx="25100" cy="38000" r="39.3701" /> 
<circle cx="-36700" cy="61900" r="39.3701" /> 
<circle cx="-39700" cy="61900" r="39.3701" /> 
<circle cx="-41700" cy="61900" r="39.3701" /> 
<circle cx="-43700" cy="61900" r="39.3701" /> 
<circle cx="-43700" cy="64900" r="39.3701" /> 
<circle cx="-41700" cy="64900" r="39.3701" /> 
<circle cx="-39700" cy="64900" r="39.3701" /> 
<circle cx="-36700" cy="64900" r="39.3701" /> 
<circle cx="94100" cy="19100" r="39.3701" /> 
<circle cx="-22600" cy="102000" r="39.3701" /> 
<circle cx="96300" cy="16900" r="39.3701" /> 
<circle cx="-24900" cy="104300" r="39.3701" /> 
<circle cx="57500" cy="28300" r="39.3701" /> 
<circle cx="56500" cy="28300" r="39.3701" /> 
<circle cx="55500" cy="28300" r="39.3701" /> 
<circle cx="54500" cy="28300" r="39.3701" /> 
<circle cx="53500" cy="28300" r="39.3701" /> 
<circle cx="52500" cy="28300" r="39.3701" /> 
<circle cx="51500" cy="28300" r="39.3701" /> 
<circle cx="50500" cy="28300" r="39.3701" /> 
</g> 
</svg>
