G04 (created by PCBNEW (25-Oct-2014 BZR 4029)-stable) date Fr 05 Feb 2016 19:57:56 CET*
%MOIN*%
G04 Gerber Fmt 3.4, Leading zero omitted, Abs format*
%FSLAX34Y34*%
G01*
G70*
G90*
G04 APERTURE LIST*
%ADD10C,0.00590551*%
%ADD11C,0.005*%
%ADD12C,0.0039*%
%ADD13C,0.015*%
%ADD14C,0.006*%
%ADD15C,0.008*%
%ADD16C,0.0026*%
%ADD17C,0.03*%
%ADD18C,0.012*%
%ADD19C,0.0043*%
%ADD20C,0.0047*%
%ADD21C,0.0024*%
%ADD22C,0.0059*%
G04 APERTURE END LIST*
G54D10*
G54D11*
X12300Y-25450D02*
X12300Y-26350D01*
X12300Y-26350D02*
X12950Y-26350D01*
X13650Y-25450D02*
X14300Y-25450D01*
X14300Y-25450D02*
X14300Y-26350D01*
X14300Y-26350D02*
X13650Y-26350D01*
X12950Y-25450D02*
X12300Y-25450D01*
X21600Y-27650D02*
X21600Y-26750D01*
X21600Y-26750D02*
X20950Y-26750D01*
X20250Y-27650D02*
X19600Y-27650D01*
X19600Y-27650D02*
X19600Y-26750D01*
X19600Y-26750D02*
X20250Y-26750D01*
X20950Y-27650D02*
X21600Y-27650D01*
G54D12*
X10600Y-32550D02*
G75*
G03X10600Y-32550I-50J0D01*
G74*
G01*
X11000Y-32550D02*
X10600Y-32550D01*
X10600Y-32550D02*
X10600Y-31950D01*
X10600Y-31950D02*
X11000Y-31950D01*
X11400Y-31950D02*
X11800Y-31950D01*
X11800Y-31950D02*
X11800Y-32550D01*
X11800Y-32550D02*
X11400Y-32550D01*
X10700Y-25100D02*
G75*
G03X10700Y-25100I-50J0D01*
G74*
G01*
X10200Y-25100D02*
X10600Y-25100D01*
X10600Y-25100D02*
X10600Y-25700D01*
X10600Y-25700D02*
X10200Y-25700D01*
X9800Y-25700D02*
X9400Y-25700D01*
X9400Y-25700D02*
X9400Y-25100D01*
X9400Y-25100D02*
X9800Y-25100D01*
X9650Y-30950D02*
G75*
G03X9650Y-30950I-50J0D01*
G74*
G01*
X9600Y-31400D02*
X9600Y-31000D01*
X9600Y-31000D02*
X10200Y-31000D01*
X10200Y-31000D02*
X10200Y-31400D01*
X10200Y-31800D02*
X10200Y-32200D01*
X10200Y-32200D02*
X9600Y-32200D01*
X9600Y-32200D02*
X9600Y-31800D01*
X9000Y-25100D02*
G75*
G03X9000Y-25100I-50J0D01*
G74*
G01*
X8500Y-25100D02*
X8900Y-25100D01*
X8900Y-25100D02*
X8900Y-25700D01*
X8900Y-25700D02*
X8500Y-25700D01*
X8100Y-25700D02*
X7700Y-25700D01*
X7700Y-25700D02*
X7700Y-25100D01*
X7700Y-25100D02*
X8100Y-25100D01*
X8900Y-30400D02*
G75*
G03X8900Y-30400I-50J0D01*
G74*
G01*
X8400Y-30400D02*
X8800Y-30400D01*
X8800Y-30400D02*
X8800Y-31000D01*
X8800Y-31000D02*
X8400Y-31000D01*
X8000Y-31000D02*
X7600Y-31000D01*
X7600Y-31000D02*
X7600Y-30400D01*
X7600Y-30400D02*
X8000Y-30400D01*
X8850Y-32850D02*
G75*
G03X8850Y-32850I-50J0D01*
G74*
G01*
X8800Y-32400D02*
X8800Y-32800D01*
X8800Y-32800D02*
X8200Y-32800D01*
X8200Y-32800D02*
X8200Y-32400D01*
X8200Y-32000D02*
X8200Y-31600D01*
X8200Y-31600D02*
X8800Y-31600D01*
X8800Y-31600D02*
X8800Y-32000D01*
X21400Y-21300D02*
G75*
G03X21400Y-21300I-50J0D01*
G74*
G01*
X20900Y-21300D02*
X21300Y-21300D01*
X21300Y-21300D02*
X21300Y-21900D01*
X21300Y-21900D02*
X20900Y-21900D01*
X20500Y-21900D02*
X20100Y-21900D01*
X20100Y-21900D02*
X20100Y-21300D01*
X20100Y-21300D02*
X20500Y-21300D01*
X9000Y-26900D02*
G75*
G03X9000Y-26900I-50J0D01*
G74*
G01*
X8500Y-26900D02*
X8900Y-26900D01*
X8900Y-26900D02*
X8900Y-27500D01*
X8900Y-27500D02*
X8500Y-27500D01*
X8100Y-27500D02*
X7700Y-27500D01*
X7700Y-27500D02*
X7700Y-26900D01*
X7700Y-26900D02*
X8100Y-26900D01*
X10600Y-31400D02*
G75*
G03X10600Y-31400I-50J0D01*
G74*
G01*
X11000Y-31400D02*
X10600Y-31400D01*
X10600Y-31400D02*
X10600Y-30800D01*
X10600Y-30800D02*
X11000Y-30800D01*
X11400Y-30800D02*
X11800Y-30800D01*
X11800Y-30800D02*
X11800Y-31400D01*
X11800Y-31400D02*
X11400Y-31400D01*
X13100Y-32650D02*
G75*
G03X13100Y-32650I-50J0D01*
G74*
G01*
X13050Y-32200D02*
X13050Y-32600D01*
X13050Y-32600D02*
X12450Y-32600D01*
X12450Y-32600D02*
X12450Y-32200D01*
X12450Y-31800D02*
X12450Y-31400D01*
X12450Y-31400D02*
X13050Y-31400D01*
X13050Y-31400D02*
X13050Y-31800D01*
G54D13*
X19934Y-30827D02*
G75*
G03X19934Y-30827I-106J0D01*
G74*
G01*
X17604Y-30846D02*
X17683Y-30965D01*
X17683Y-30965D02*
X17899Y-31220D01*
X17899Y-31220D02*
X18155Y-31437D01*
X18155Y-31437D02*
X18549Y-31634D01*
X18549Y-31634D02*
X18982Y-31713D01*
X18982Y-31713D02*
X19198Y-31713D01*
X19198Y-31713D02*
X19572Y-31654D01*
X19572Y-31654D02*
X19927Y-31516D01*
X19927Y-31516D02*
X20242Y-31280D01*
X20242Y-31280D02*
X20478Y-31024D01*
X20478Y-31024D02*
X20576Y-30866D01*
X20596Y-29134D02*
X20458Y-28957D01*
X20458Y-28957D02*
X20281Y-28740D01*
X20281Y-28740D02*
X20025Y-28563D01*
X20025Y-28563D02*
X19769Y-28425D01*
X19769Y-28425D02*
X19435Y-28307D01*
X19435Y-28307D02*
X19179Y-28268D01*
X19179Y-28268D02*
X18844Y-28287D01*
X18844Y-28287D02*
X18509Y-28386D01*
X18509Y-28386D02*
X18155Y-28563D01*
X18155Y-28563D02*
X17919Y-28740D01*
X17919Y-28740D02*
X17643Y-29094D01*
X17643Y-29094D02*
X17624Y-29134D01*
X17092Y-30945D02*
X17092Y-31496D01*
X21108Y-32008D02*
X17604Y-32008D01*
X17092Y-31496D02*
X17604Y-31988D01*
X21108Y-27992D02*
X21108Y-29055D01*
X21108Y-32008D02*
X21108Y-30945D01*
X21108Y-27992D02*
X17092Y-27992D01*
X17092Y-27992D02*
X17092Y-29055D01*
X22681Y-24230D02*
G75*
G03X22681Y-24230I-70J0D01*
G74*
G01*
X23930Y-24683D02*
X24068Y-24584D01*
X24068Y-24584D02*
X24225Y-24407D01*
X24225Y-24407D02*
X24363Y-24230D01*
X24363Y-24230D02*
X24481Y-23974D01*
X24481Y-23974D02*
X24520Y-23738D01*
X24520Y-23738D02*
X24540Y-23541D01*
X24540Y-23541D02*
X24501Y-23305D01*
X24501Y-23305D02*
X24402Y-23049D01*
X24402Y-23049D02*
X24265Y-22832D01*
X24265Y-22832D02*
X24087Y-22655D01*
X24087Y-22655D02*
X23930Y-22537D01*
X22670Y-22537D02*
X22532Y-22635D01*
X22532Y-22635D02*
X22355Y-22813D01*
X22355Y-22813D02*
X22217Y-23009D01*
X22217Y-23009D02*
X22139Y-23206D01*
X22139Y-23206D02*
X22080Y-23443D01*
X22080Y-23443D02*
X22060Y-23600D01*
X22060Y-23600D02*
X22080Y-23817D01*
X22080Y-23817D02*
X22139Y-24053D01*
X22139Y-24053D02*
X22257Y-24289D01*
X22257Y-24289D02*
X22394Y-24466D01*
X22394Y-24466D02*
X22572Y-24604D01*
X22572Y-24604D02*
X22670Y-24683D01*
X21824Y-22124D02*
X22650Y-22124D01*
X23950Y-25076D02*
X24776Y-25076D01*
X24776Y-25076D02*
X24776Y-22124D01*
X24776Y-22124D02*
X23950Y-22124D01*
X21824Y-22124D02*
X21824Y-25076D01*
X21824Y-25076D02*
X22650Y-25076D01*
G54D11*
X10537Y-27850D02*
X12643Y-27850D01*
X12643Y-29150D02*
X10537Y-29150D01*
X10537Y-29150D02*
X10537Y-27850D01*
X12643Y-29150D02*
X12643Y-27850D01*
X12650Y-28700D02*
X12450Y-28700D01*
X12450Y-28700D02*
X12450Y-28300D01*
X12450Y-28300D02*
X12650Y-28300D01*
G54D12*
X25100Y-36900D02*
G75*
G03X25100Y-36900I-50J0D01*
G74*
G01*
X25500Y-36900D02*
X25100Y-36900D01*
X25100Y-36900D02*
X25100Y-36300D01*
X25100Y-36300D02*
X25500Y-36300D01*
X25900Y-36300D02*
X26300Y-36300D01*
X26300Y-36300D02*
X26300Y-36900D01*
X26300Y-36900D02*
X25900Y-36900D01*
X23000Y-36900D02*
G75*
G03X23000Y-36900I-50J0D01*
G74*
G01*
X23400Y-36900D02*
X23000Y-36900D01*
X23000Y-36900D02*
X23000Y-36300D01*
X23000Y-36300D02*
X23400Y-36300D01*
X23800Y-36300D02*
X24200Y-36300D01*
X24200Y-36300D02*
X24200Y-36900D01*
X24200Y-36900D02*
X23800Y-36900D01*
X22100Y-38200D02*
G75*
G03X22100Y-38200I-50J0D01*
G74*
G01*
X22500Y-38200D02*
X22100Y-38200D01*
X22100Y-38200D02*
X22100Y-37600D01*
X22100Y-37600D02*
X22500Y-37600D01*
X22900Y-37600D02*
X23300Y-37600D01*
X23300Y-37600D02*
X23300Y-38200D01*
X23300Y-38200D02*
X22900Y-38200D01*
X21000Y-36900D02*
G75*
G03X21000Y-36900I-50J0D01*
G74*
G01*
X21400Y-36900D02*
X21000Y-36900D01*
X21000Y-36900D02*
X21000Y-36300D01*
X21000Y-36300D02*
X21400Y-36300D01*
X21800Y-36300D02*
X22200Y-36300D01*
X22200Y-36300D02*
X22200Y-36900D01*
X22200Y-36900D02*
X21800Y-36900D01*
X20100Y-38200D02*
G75*
G03X20100Y-38200I-50J0D01*
G74*
G01*
X20500Y-38200D02*
X20100Y-38200D01*
X20100Y-38200D02*
X20100Y-37600D01*
X20100Y-37600D02*
X20500Y-37600D01*
X20900Y-37600D02*
X21300Y-37600D01*
X21300Y-37600D02*
X21300Y-38200D01*
X21300Y-38200D02*
X20900Y-38200D01*
X26200Y-38200D02*
G75*
G03X26200Y-38200I-50J0D01*
G74*
G01*
X26600Y-38200D02*
X26200Y-38200D01*
X26200Y-38200D02*
X26200Y-37600D01*
X26200Y-37600D02*
X26600Y-37600D01*
X27000Y-37600D02*
X27400Y-37600D01*
X27400Y-37600D02*
X27400Y-38200D01*
X27400Y-38200D02*
X27000Y-38200D01*
X29600Y-35150D02*
G75*
G03X29600Y-35150I-50J0D01*
G74*
G01*
X29100Y-35150D02*
X29500Y-35150D01*
X29500Y-35150D02*
X29500Y-35750D01*
X29500Y-35750D02*
X29100Y-35750D01*
X28700Y-35750D02*
X28300Y-35750D01*
X28300Y-35750D02*
X28300Y-35150D01*
X28300Y-35150D02*
X28700Y-35150D01*
X28500Y-36300D02*
G75*
G03X28500Y-36300I-50J0D01*
G74*
G01*
X28000Y-36300D02*
X28400Y-36300D01*
X28400Y-36300D02*
X28400Y-36900D01*
X28400Y-36900D02*
X28000Y-36900D01*
X27600Y-36900D02*
X27200Y-36900D01*
X27200Y-36900D02*
X27200Y-36300D01*
X27200Y-36300D02*
X27600Y-36300D01*
X19600Y-36300D02*
G75*
G03X19600Y-36300I-50J0D01*
G74*
G01*
X19100Y-36300D02*
X19500Y-36300D01*
X19500Y-36300D02*
X19500Y-36900D01*
X19500Y-36900D02*
X19100Y-36900D01*
X18700Y-36900D02*
X18300Y-36900D01*
X18300Y-36900D02*
X18300Y-36300D01*
X18300Y-36300D02*
X18700Y-36300D01*
X11100Y-38100D02*
G75*
G03X11100Y-38100I-50J0D01*
G74*
G01*
X11500Y-38100D02*
X11100Y-38100D01*
X11100Y-38100D02*
X11100Y-37500D01*
X11100Y-37500D02*
X11500Y-37500D01*
X11900Y-37500D02*
X12300Y-37500D01*
X12300Y-37500D02*
X12300Y-38100D01*
X12300Y-38100D02*
X11900Y-38100D01*
X13100Y-38100D02*
G75*
G03X13100Y-38100I-50J0D01*
G74*
G01*
X13500Y-38100D02*
X13100Y-38100D01*
X13100Y-38100D02*
X13100Y-37500D01*
X13100Y-37500D02*
X13500Y-37500D01*
X13900Y-37500D02*
X14300Y-37500D01*
X14300Y-37500D02*
X14300Y-38100D01*
X14300Y-38100D02*
X13900Y-38100D01*
X12200Y-36900D02*
G75*
G03X12200Y-36900I-50J0D01*
G74*
G01*
X12600Y-36900D02*
X12200Y-36900D01*
X12200Y-36900D02*
X12200Y-36300D01*
X12200Y-36300D02*
X12600Y-36300D01*
X13000Y-36300D02*
X13400Y-36300D01*
X13400Y-36300D02*
X13400Y-36900D01*
X13400Y-36900D02*
X13000Y-36900D01*
X10100Y-36900D02*
G75*
G03X10100Y-36900I-50J0D01*
G74*
G01*
X10500Y-36900D02*
X10100Y-36900D01*
X10100Y-36900D02*
X10100Y-36300D01*
X10100Y-36300D02*
X10500Y-36300D01*
X10900Y-36300D02*
X11300Y-36300D01*
X11300Y-36300D02*
X11300Y-36900D01*
X11300Y-36900D02*
X10900Y-36900D01*
X9100Y-38100D02*
G75*
G03X9100Y-38100I-50J0D01*
G74*
G01*
X9500Y-38100D02*
X9100Y-38100D01*
X9100Y-38100D02*
X9100Y-37500D01*
X9100Y-37500D02*
X9500Y-37500D01*
X9900Y-37500D02*
X10300Y-37500D01*
X10300Y-37500D02*
X10300Y-38100D01*
X10300Y-38100D02*
X9900Y-38100D01*
X29200Y-20000D02*
G75*
G03X29200Y-20000I-50J0D01*
G74*
G01*
X28700Y-20000D02*
X29100Y-20000D01*
X29100Y-20000D02*
X29100Y-20600D01*
X29100Y-20600D02*
X28700Y-20600D01*
X28300Y-20600D02*
X27900Y-20600D01*
X27900Y-20600D02*
X27900Y-20000D01*
X27900Y-20000D02*
X28300Y-20000D01*
G54D14*
X34320Y-15960D02*
X34320Y-16410D01*
X32140Y-15960D02*
X32140Y-16400D01*
X34320Y-15960D02*
X32140Y-15960D01*
X34790Y-16840D02*
X35220Y-16840D01*
X34800Y-19050D02*
X35220Y-19050D01*
X35220Y-19060D02*
X35230Y-16840D01*
X31250Y-19040D02*
X31240Y-16870D01*
X31940Y-19470D02*
X34770Y-19470D01*
X31250Y-16860D02*
X31660Y-16860D01*
X31700Y-19220D02*
X31700Y-16440D01*
X34780Y-16420D02*
X31740Y-16420D01*
X34780Y-19470D02*
X34780Y-16470D01*
X32110Y-19920D02*
X34330Y-19920D01*
X34330Y-19920D02*
X34330Y-19470D01*
X31930Y-19466D02*
X31700Y-19236D01*
X32110Y-19918D02*
X32110Y-19466D01*
X31700Y-19040D02*
X31248Y-19040D01*
X32292Y-19058D02*
G75*
G03X32292Y-19058I-188J0D01*
G74*
G01*
X6100Y-10800D02*
X5100Y-10800D01*
X5100Y-10800D02*
X5100Y-8800D01*
X5100Y-8800D02*
X6100Y-8800D01*
X6100Y-8800D02*
X6100Y-10800D01*
X18200Y-5600D02*
X19200Y-5600D01*
X19200Y-5600D02*
X19200Y-7600D01*
X19200Y-7600D02*
X18200Y-7600D01*
X18200Y-7600D02*
X18200Y-5600D01*
G54D11*
X15200Y-16900D02*
X15200Y-17700D01*
X15150Y-17850D02*
X15150Y-16700D01*
X15100Y-16600D02*
X15100Y-18000D01*
X15050Y-18150D02*
X15050Y-16450D01*
X15000Y-16350D02*
X15000Y-18250D01*
X14950Y-18300D02*
X14950Y-16300D01*
X15250Y-17300D02*
G75*
G03X15250Y-17300I-1950J0D01*
G74*
G01*
X15350Y-19350D02*
X15350Y-15250D01*
X15350Y-15250D02*
X11550Y-15250D01*
X11550Y-15250D02*
X11250Y-15550D01*
X11250Y-15550D02*
X11250Y-19050D01*
X11250Y-19050D02*
X11550Y-19350D01*
X11550Y-19350D02*
X15350Y-19350D01*
X11500Y-17300D02*
X11800Y-17300D01*
X11650Y-17450D02*
X11650Y-17150D01*
X18900Y-17600D02*
X18900Y-16800D01*
X18950Y-16650D02*
X18950Y-17800D01*
X19000Y-17900D02*
X19000Y-16500D01*
X19050Y-16350D02*
X19050Y-18050D01*
X19100Y-18150D02*
X19100Y-16250D01*
X19150Y-16200D02*
X19150Y-18200D01*
X22750Y-17200D02*
G75*
G03X22750Y-17200I-1950J0D01*
G74*
G01*
X18750Y-15150D02*
X18750Y-19250D01*
X18750Y-19250D02*
X22550Y-19250D01*
X22550Y-19250D02*
X22850Y-18950D01*
X22850Y-18950D02*
X22850Y-15450D01*
X22850Y-15450D02*
X22550Y-15150D01*
X22550Y-15150D02*
X18750Y-15150D01*
X22600Y-17200D02*
X22300Y-17200D01*
X22450Y-17050D02*
X22450Y-17350D01*
X31500Y-22400D02*
X31500Y-21900D01*
X32000Y-22400D02*
X32000Y-21910D01*
X32150Y-22400D02*
X31350Y-22400D01*
X31350Y-22400D02*
X31350Y-21900D01*
X31350Y-21900D02*
X32150Y-21900D01*
X32150Y-21900D02*
X32150Y-22400D01*
X33040Y-22420D02*
X33040Y-21920D01*
X33540Y-22420D02*
X33540Y-21930D01*
X33690Y-22420D02*
X32890Y-22420D01*
X32890Y-22420D02*
X32890Y-21920D01*
X32890Y-21920D02*
X33690Y-21920D01*
X33690Y-21920D02*
X33690Y-22420D01*
X34300Y-14400D02*
X33800Y-14400D01*
X34300Y-13900D02*
X33810Y-13900D01*
X34300Y-13750D02*
X34300Y-14550D01*
X34300Y-14550D02*
X33800Y-14550D01*
X33800Y-14550D02*
X33800Y-13750D01*
X33800Y-13750D02*
X34300Y-13750D01*
X35200Y-14400D02*
X34700Y-14400D01*
X35200Y-13900D02*
X34710Y-13900D01*
X35200Y-13750D02*
X35200Y-14550D01*
X35200Y-14550D02*
X34700Y-14550D01*
X34700Y-14550D02*
X34700Y-13750D01*
X34700Y-13750D02*
X35200Y-13750D01*
X35000Y-22500D02*
X35000Y-23000D01*
X34500Y-22500D02*
X34500Y-22990D01*
X34350Y-22500D02*
X35150Y-22500D01*
X35150Y-22500D02*
X35150Y-23000D01*
X35150Y-23000D02*
X34350Y-23000D01*
X34350Y-23000D02*
X34350Y-22500D01*
X38250Y-21650D02*
X37750Y-21650D01*
X38250Y-21150D02*
X37760Y-21150D01*
X38250Y-21000D02*
X38250Y-21800D01*
X38250Y-21800D02*
X37750Y-21800D01*
X37750Y-21800D02*
X37750Y-21000D01*
X37750Y-21000D02*
X38250Y-21000D01*
G54D13*
X15956Y-26979D02*
X15444Y-26979D01*
X15700Y-26979D02*
X15602Y-26821D01*
X15700Y-26979D02*
X15818Y-26821D01*
X15011Y-27609D02*
X15149Y-27609D01*
X16389Y-27609D02*
X16251Y-27609D01*
X15011Y-27786D02*
X15149Y-27786D01*
X15011Y-26014D02*
X15149Y-26014D01*
X16389Y-26014D02*
X16251Y-26014D01*
X16389Y-27786D02*
X16251Y-27786D01*
X15011Y-26014D02*
X15011Y-27786D01*
X16389Y-26014D02*
X16389Y-27786D01*
G54D12*
X24200Y-38200D02*
G75*
G03X24200Y-38200I-50J0D01*
G74*
G01*
X24600Y-38200D02*
X24200Y-38200D01*
X24200Y-38200D02*
X24200Y-37600D01*
X24200Y-37600D02*
X24600Y-37600D01*
X25000Y-37600D02*
X25400Y-37600D01*
X25400Y-37600D02*
X25400Y-38200D01*
X25400Y-38200D02*
X25000Y-38200D01*
X14300Y-36900D02*
G75*
G03X14300Y-36900I-50J0D01*
G74*
G01*
X14700Y-36900D02*
X14300Y-36900D01*
X14300Y-36900D02*
X14300Y-36300D01*
X14300Y-36300D02*
X14700Y-36300D01*
X15100Y-36300D02*
X15500Y-36300D01*
X15500Y-36300D02*
X15500Y-36900D01*
X15500Y-36900D02*
X15100Y-36900D01*
X15100Y-38100D02*
G75*
G03X15100Y-38100I-50J0D01*
G74*
G01*
X15500Y-38100D02*
X15100Y-38100D01*
X15100Y-38100D02*
X15100Y-37500D01*
X15100Y-37500D02*
X15500Y-37500D01*
X15900Y-37500D02*
X16300Y-37500D01*
X16300Y-37500D02*
X16300Y-38100D01*
X16300Y-38100D02*
X15900Y-38100D01*
X17600Y-36300D02*
G75*
G03X17600Y-36300I-50J0D01*
G74*
G01*
X17100Y-36300D02*
X17500Y-36300D01*
X17500Y-36300D02*
X17500Y-36900D01*
X17500Y-36900D02*
X17100Y-36900D01*
X16700Y-36900D02*
X16300Y-36900D01*
X16300Y-36900D02*
X16300Y-36300D01*
X16300Y-36300D02*
X16700Y-36300D01*
X37250Y-24540D02*
G75*
G03X37250Y-24540I-50J0D01*
G74*
G01*
X37200Y-24990D02*
X37200Y-24590D01*
X37200Y-24590D02*
X37800Y-24590D01*
X37800Y-24590D02*
X37800Y-24990D01*
X37800Y-25390D02*
X37800Y-25790D01*
X37800Y-25790D02*
X37200Y-25790D01*
X37200Y-25790D02*
X37200Y-25390D01*
X44750Y-16350D02*
G75*
G03X44750Y-16350I-50J0D01*
G74*
G01*
X44700Y-16800D02*
X44700Y-16400D01*
X44700Y-16400D02*
X45300Y-16400D01*
X45300Y-16400D02*
X45300Y-16800D01*
X45300Y-17200D02*
X45300Y-17600D01*
X45300Y-17600D02*
X44700Y-17600D01*
X44700Y-17600D02*
X44700Y-17200D01*
X38930Y-25860D02*
G75*
G03X38930Y-25860I-50J0D01*
G74*
G01*
X38880Y-25410D02*
X38880Y-25810D01*
X38880Y-25810D02*
X38280Y-25810D01*
X38280Y-25810D02*
X38280Y-25410D01*
X38280Y-25010D02*
X38280Y-24610D01*
X38280Y-24610D02*
X38880Y-24610D01*
X38880Y-24610D02*
X38880Y-25010D01*
G54D15*
X38050Y-12900D02*
X36150Y-12900D01*
X36150Y-12900D02*
X36150Y-8900D01*
X36150Y-8900D02*
X38050Y-8900D01*
X38050Y-8900D02*
X38050Y-12900D01*
X37350Y-8900D02*
X37350Y-9150D01*
X37350Y-9150D02*
X36850Y-9150D01*
X36850Y-9150D02*
X36850Y-8900D01*
G54D12*
X39900Y-10150D02*
G75*
G03X39900Y-10150I-50J0D01*
G74*
G01*
X39850Y-9700D02*
X39850Y-10100D01*
X39850Y-10100D02*
X39250Y-10100D01*
X39250Y-10100D02*
X39250Y-9700D01*
X39250Y-9300D02*
X39250Y-8900D01*
X39250Y-8900D02*
X39850Y-8900D01*
X39850Y-8900D02*
X39850Y-9300D01*
X33900Y-9270D02*
G75*
G03X33900Y-9270I-50J0D01*
G74*
G01*
X33400Y-9270D02*
X33800Y-9270D01*
X33800Y-9270D02*
X33800Y-9870D01*
X33800Y-9870D02*
X33400Y-9870D01*
X33000Y-9870D02*
X32600Y-9870D01*
X32600Y-9870D02*
X32600Y-9270D01*
X32600Y-9270D02*
X33000Y-9270D01*
X35600Y-6000D02*
G75*
G03X35600Y-6000I-50J0D01*
G74*
G01*
X35550Y-6450D02*
X35550Y-6050D01*
X35550Y-6050D02*
X36150Y-6050D01*
X36150Y-6050D02*
X36150Y-6450D01*
X36150Y-6850D02*
X36150Y-7250D01*
X36150Y-7250D02*
X35550Y-7250D01*
X35550Y-7250D02*
X35550Y-6850D01*
X32700Y-10700D02*
G75*
G03X32700Y-10700I-50J0D01*
G74*
G01*
X32650Y-11150D02*
X32650Y-10750D01*
X32650Y-10750D02*
X33250Y-10750D01*
X33250Y-10750D02*
X33250Y-11150D01*
X33250Y-11550D02*
X33250Y-11950D01*
X33250Y-11950D02*
X32650Y-11950D01*
X32650Y-11950D02*
X32650Y-11550D01*
X49500Y-25350D02*
G75*
G03X49500Y-25350I-50J0D01*
G74*
G01*
X49450Y-24900D02*
X49450Y-25300D01*
X49450Y-25300D02*
X48850Y-25300D01*
X48850Y-25300D02*
X48850Y-24900D01*
X48850Y-24500D02*
X48850Y-24100D01*
X48850Y-24100D02*
X49450Y-24100D01*
X49450Y-24100D02*
X49450Y-24500D01*
X39350Y-6020D02*
G75*
G03X39350Y-6020I-50J0D01*
G74*
G01*
X39300Y-6470D02*
X39300Y-6070D01*
X39300Y-6070D02*
X39900Y-6070D01*
X39900Y-6070D02*
X39900Y-6470D01*
X39900Y-6870D02*
X39900Y-7270D01*
X39900Y-7270D02*
X39300Y-7270D01*
X39300Y-7270D02*
X39300Y-6870D01*
X42950Y-10250D02*
G75*
G03X42950Y-10250I-50J0D01*
G74*
G01*
X42900Y-9800D02*
X42900Y-10200D01*
X42900Y-10200D02*
X42300Y-10200D01*
X42300Y-10200D02*
X42300Y-9800D01*
X42300Y-9400D02*
X42300Y-9000D01*
X42300Y-9000D02*
X42900Y-9000D01*
X42900Y-9000D02*
X42900Y-9400D01*
G54D14*
X36150Y-8620D02*
X36150Y-7620D01*
X36150Y-7620D02*
X39150Y-7620D01*
X39150Y-7620D02*
X39150Y-8620D01*
X39150Y-8620D02*
X36150Y-8620D01*
X37150Y-7620D02*
X37150Y-8620D01*
X40100Y-8600D02*
X40100Y-7600D01*
X40100Y-7600D02*
X43100Y-7600D01*
X43100Y-7600D02*
X43100Y-8600D01*
X43100Y-8600D02*
X40100Y-8600D01*
X41100Y-7600D02*
X41100Y-8600D01*
X33200Y-8630D02*
X33200Y-7630D01*
X33200Y-7630D02*
X35200Y-7630D01*
X35200Y-7630D02*
X35200Y-8630D01*
X35200Y-8630D02*
X33200Y-8630D01*
G54D13*
X31077Y-8000D02*
X31136Y-8000D01*
X30743Y-8000D02*
X30664Y-8000D01*
X31077Y-8000D02*
X31077Y-8295D01*
X31077Y-8000D02*
X31077Y-7724D01*
X31077Y-8000D02*
X30743Y-7724D01*
X30743Y-7724D02*
X30743Y-8276D01*
X30743Y-8276D02*
X31077Y-8000D01*
G54D12*
X35600Y-13450D02*
G75*
G03X35600Y-13450I-50J0D01*
G74*
G01*
X35550Y-13900D02*
X35550Y-13500D01*
X35550Y-13500D02*
X36150Y-13500D01*
X36150Y-13500D02*
X36150Y-13900D01*
X36150Y-14300D02*
X36150Y-14700D01*
X36150Y-14700D02*
X35550Y-14700D01*
X35550Y-14700D02*
X35550Y-14300D01*
G54D13*
X32100Y-11750D02*
X28600Y-11750D01*
X28600Y-11750D02*
X28600Y-9750D01*
X28600Y-9750D02*
X32100Y-9750D01*
X32100Y-9750D02*
X32100Y-11750D01*
X32100Y-11000D02*
X31600Y-11000D01*
X31600Y-11000D02*
X31600Y-10500D01*
X31600Y-10500D02*
X32100Y-10500D01*
G54D12*
X31450Y-13250D02*
G75*
G03X31450Y-13250I-50J0D01*
G74*
G01*
X30950Y-13250D02*
X31350Y-13250D01*
X31350Y-13250D02*
X31350Y-13850D01*
X31350Y-13850D02*
X30950Y-13850D01*
X30550Y-13850D02*
X30150Y-13850D01*
X30150Y-13850D02*
X30150Y-13250D01*
X30150Y-13250D02*
X30550Y-13250D01*
G54D11*
X21600Y-26050D02*
X21600Y-25150D01*
X21600Y-25150D02*
X20950Y-25150D01*
X20250Y-26050D02*
X19600Y-26050D01*
X19600Y-26050D02*
X19600Y-25150D01*
X19600Y-25150D02*
X20250Y-25150D01*
X20950Y-26050D02*
X21600Y-26050D01*
G54D12*
X21400Y-19900D02*
G75*
G03X21400Y-19900I-50J0D01*
G74*
G01*
X20900Y-19900D02*
X21300Y-19900D01*
X21300Y-19900D02*
X21300Y-20500D01*
X21300Y-20500D02*
X20900Y-20500D01*
X20500Y-20500D02*
X20100Y-20500D01*
X20100Y-20500D02*
X20100Y-19900D01*
X20100Y-19900D02*
X20500Y-19900D01*
G54D16*
X19850Y-39900D02*
X19550Y-39900D01*
X19550Y-39900D02*
X19550Y-40100D01*
X19850Y-40100D02*
X19550Y-40100D01*
X19850Y-39900D02*
X19850Y-40100D01*
X20850Y-39900D02*
X20550Y-39900D01*
X20550Y-39900D02*
X20550Y-40100D01*
X20850Y-40100D02*
X20550Y-40100D01*
X20850Y-39900D02*
X20850Y-40100D01*
X21851Y-39900D02*
X21550Y-39900D01*
X21550Y-39900D02*
X21550Y-40100D01*
X21851Y-40100D02*
X21550Y-40100D01*
X21851Y-39900D02*
X21851Y-40100D01*
X25350Y-41350D02*
X25050Y-41350D01*
X25050Y-41350D02*
X25050Y-41450D01*
X25350Y-41450D02*
X25050Y-41450D01*
X25350Y-41350D02*
X25350Y-41450D01*
X20350Y-39600D02*
X20050Y-39600D01*
X20050Y-39600D02*
X20050Y-40100D01*
X20350Y-40100D02*
X20050Y-40100D01*
X20350Y-39600D02*
X20350Y-40100D01*
X21350Y-39600D02*
X21050Y-39600D01*
X21050Y-39600D02*
X21050Y-40100D01*
X21350Y-40100D02*
X21050Y-40100D01*
X21350Y-39600D02*
X21350Y-40100D01*
X22350Y-39600D02*
X22050Y-39600D01*
X22050Y-39600D02*
X22050Y-40100D01*
X22350Y-40100D02*
X22050Y-40100D01*
X22350Y-39600D02*
X22350Y-40100D01*
X22850Y-39900D02*
X22550Y-39900D01*
X22550Y-39900D02*
X22550Y-40100D01*
X22850Y-40100D02*
X22550Y-40100D01*
X22850Y-39900D02*
X22850Y-40100D01*
X23850Y-39900D02*
X23550Y-39900D01*
X23550Y-39900D02*
X23550Y-40100D01*
X23850Y-40100D02*
X23550Y-40100D01*
X23850Y-39900D02*
X23850Y-40100D01*
X24850Y-39900D02*
X24550Y-39900D01*
X24550Y-39900D02*
X24550Y-40100D01*
X24850Y-40100D02*
X24550Y-40100D01*
X24850Y-39900D02*
X24850Y-40100D01*
X23350Y-39600D02*
X23050Y-39600D01*
X23050Y-39600D02*
X23050Y-40100D01*
X23350Y-40100D02*
X23050Y-40100D01*
X23350Y-39600D02*
X23350Y-40100D01*
X24350Y-39600D02*
X24050Y-39600D01*
X24050Y-39600D02*
X24050Y-40100D01*
X24350Y-40100D02*
X24050Y-40100D01*
X24350Y-39600D02*
X24350Y-40100D01*
X25350Y-39600D02*
X25050Y-39600D01*
X25050Y-39600D02*
X25050Y-40100D01*
X25350Y-40100D02*
X25050Y-40100D01*
X25350Y-39600D02*
X25350Y-40100D01*
X25850Y-39900D02*
X25550Y-39900D01*
X25550Y-39900D02*
X25550Y-40100D01*
X25850Y-40100D02*
X25550Y-40100D01*
X25850Y-39900D02*
X25850Y-40100D01*
X26850Y-39900D02*
X26550Y-39900D01*
X26550Y-39900D02*
X26550Y-40100D01*
X26850Y-40100D02*
X26550Y-40100D01*
X26850Y-39900D02*
X26850Y-40100D01*
X27850Y-39900D02*
X27549Y-39900D01*
X27549Y-39900D02*
X27549Y-40100D01*
X27850Y-40100D02*
X27549Y-40100D01*
X27850Y-39900D02*
X27850Y-40100D01*
X26350Y-39600D02*
X26050Y-39600D01*
X26050Y-39600D02*
X26050Y-40100D01*
X26350Y-40100D02*
X26050Y-40100D01*
X26350Y-39600D02*
X26350Y-40100D01*
X27350Y-39600D02*
X27050Y-39600D01*
X27050Y-39600D02*
X27050Y-40100D01*
X27350Y-40100D02*
X27050Y-40100D01*
X27350Y-39600D02*
X27350Y-40100D01*
X28350Y-39600D02*
X28050Y-39600D01*
X28050Y-39600D02*
X28050Y-40100D01*
X28350Y-40100D02*
X28050Y-40100D01*
X28350Y-39600D02*
X28350Y-40100D01*
X28850Y-39900D02*
X28550Y-39900D01*
X28550Y-39900D02*
X28550Y-40100D01*
X28850Y-40100D02*
X28550Y-40100D01*
X28850Y-39900D02*
X28850Y-40100D01*
X29850Y-39900D02*
X29550Y-39900D01*
X29550Y-39900D02*
X29550Y-40100D01*
X29850Y-40100D02*
X29550Y-40100D01*
X29850Y-39900D02*
X29850Y-40100D01*
X29350Y-39600D02*
X29050Y-39600D01*
X29050Y-39600D02*
X29050Y-40100D01*
X29350Y-40100D02*
X29050Y-40100D01*
X29350Y-39600D02*
X29350Y-40100D01*
X24350Y-41350D02*
X24050Y-41350D01*
X24050Y-41350D02*
X24050Y-41450D01*
X24350Y-41450D02*
X24050Y-41450D01*
X24350Y-41350D02*
X24350Y-41450D01*
G54D11*
X19230Y-44100D02*
X19230Y-40100D01*
X30170Y-44100D02*
X30170Y-40100D01*
X30170Y-44100D02*
X25700Y-44100D01*
X19230Y-40100D02*
X30170Y-40100D01*
X23950Y-41350D02*
X25450Y-41350D01*
X25700Y-44100D02*
X25450Y-43850D01*
X25700Y-44100D02*
X23700Y-44100D01*
X25450Y-43850D02*
X25450Y-41350D01*
X23700Y-44100D02*
X23950Y-43850D01*
X23700Y-44100D02*
X19230Y-44100D01*
X23950Y-43850D02*
X23950Y-41350D01*
G54D17*
X25200Y-41500D02*
X25200Y-43550D01*
X24200Y-41500D02*
X24200Y-43550D01*
G54D16*
X8850Y-39900D02*
X8550Y-39900D01*
X8550Y-39900D02*
X8550Y-40100D01*
X8850Y-40100D02*
X8550Y-40100D01*
X8850Y-39900D02*
X8850Y-40100D01*
X9850Y-39900D02*
X9550Y-39900D01*
X9550Y-39900D02*
X9550Y-40100D01*
X9850Y-40100D02*
X9550Y-40100D01*
X9850Y-39900D02*
X9850Y-40100D01*
X10851Y-39900D02*
X10550Y-39900D01*
X10550Y-39900D02*
X10550Y-40100D01*
X10851Y-40100D02*
X10550Y-40100D01*
X10851Y-39900D02*
X10851Y-40100D01*
X14350Y-41350D02*
X14050Y-41350D01*
X14050Y-41350D02*
X14050Y-41450D01*
X14350Y-41450D02*
X14050Y-41450D01*
X14350Y-41350D02*
X14350Y-41450D01*
X9350Y-39600D02*
X9050Y-39600D01*
X9050Y-39600D02*
X9050Y-40100D01*
X9350Y-40100D02*
X9050Y-40100D01*
X9350Y-39600D02*
X9350Y-40100D01*
X10350Y-39600D02*
X10050Y-39600D01*
X10050Y-39600D02*
X10050Y-40100D01*
X10350Y-40100D02*
X10050Y-40100D01*
X10350Y-39600D02*
X10350Y-40100D01*
X11350Y-39600D02*
X11050Y-39600D01*
X11050Y-39600D02*
X11050Y-40100D01*
X11350Y-40100D02*
X11050Y-40100D01*
X11350Y-39600D02*
X11350Y-40100D01*
X11850Y-39900D02*
X11550Y-39900D01*
X11550Y-39900D02*
X11550Y-40100D01*
X11850Y-40100D02*
X11550Y-40100D01*
X11850Y-39900D02*
X11850Y-40100D01*
X12850Y-39900D02*
X12550Y-39900D01*
X12550Y-39900D02*
X12550Y-40100D01*
X12850Y-40100D02*
X12550Y-40100D01*
X12850Y-39900D02*
X12850Y-40100D01*
X13850Y-39900D02*
X13550Y-39900D01*
X13550Y-39900D02*
X13550Y-40100D01*
X13850Y-40100D02*
X13550Y-40100D01*
X13850Y-39900D02*
X13850Y-40100D01*
X12350Y-39600D02*
X12050Y-39600D01*
X12050Y-39600D02*
X12050Y-40100D01*
X12350Y-40100D02*
X12050Y-40100D01*
X12350Y-39600D02*
X12350Y-40100D01*
X13350Y-39600D02*
X13050Y-39600D01*
X13050Y-39600D02*
X13050Y-40100D01*
X13350Y-40100D02*
X13050Y-40100D01*
X13350Y-39600D02*
X13350Y-40100D01*
X14350Y-39600D02*
X14050Y-39600D01*
X14050Y-39600D02*
X14050Y-40100D01*
X14350Y-40100D02*
X14050Y-40100D01*
X14350Y-39600D02*
X14350Y-40100D01*
X14850Y-39900D02*
X14550Y-39900D01*
X14550Y-39900D02*
X14550Y-40100D01*
X14850Y-40100D02*
X14550Y-40100D01*
X14850Y-39900D02*
X14850Y-40100D01*
X15850Y-39900D02*
X15550Y-39900D01*
X15550Y-39900D02*
X15550Y-40100D01*
X15850Y-40100D02*
X15550Y-40100D01*
X15850Y-39900D02*
X15850Y-40100D01*
X16850Y-39900D02*
X16549Y-39900D01*
X16549Y-39900D02*
X16549Y-40100D01*
X16850Y-40100D02*
X16549Y-40100D01*
X16850Y-39900D02*
X16850Y-40100D01*
X15350Y-39600D02*
X15050Y-39600D01*
X15050Y-39600D02*
X15050Y-40100D01*
X15350Y-40100D02*
X15050Y-40100D01*
X15350Y-39600D02*
X15350Y-40100D01*
X16350Y-39600D02*
X16050Y-39600D01*
X16050Y-39600D02*
X16050Y-40100D01*
X16350Y-40100D02*
X16050Y-40100D01*
X16350Y-39600D02*
X16350Y-40100D01*
X17350Y-39600D02*
X17050Y-39600D01*
X17050Y-39600D02*
X17050Y-40100D01*
X17350Y-40100D02*
X17050Y-40100D01*
X17350Y-39600D02*
X17350Y-40100D01*
X17850Y-39900D02*
X17550Y-39900D01*
X17550Y-39900D02*
X17550Y-40100D01*
X17850Y-40100D02*
X17550Y-40100D01*
X17850Y-39900D02*
X17850Y-40100D01*
X18850Y-39900D02*
X18550Y-39900D01*
X18550Y-39900D02*
X18550Y-40100D01*
X18850Y-40100D02*
X18550Y-40100D01*
X18850Y-39900D02*
X18850Y-40100D01*
X18350Y-39600D02*
X18050Y-39600D01*
X18050Y-39600D02*
X18050Y-40100D01*
X18350Y-40100D02*
X18050Y-40100D01*
X18350Y-39600D02*
X18350Y-40100D01*
X13350Y-41350D02*
X13050Y-41350D01*
X13050Y-41350D02*
X13050Y-41450D01*
X13350Y-41450D02*
X13050Y-41450D01*
X13350Y-41350D02*
X13350Y-41450D01*
G54D11*
X8230Y-44100D02*
X8230Y-40100D01*
X19170Y-44100D02*
X19170Y-40100D01*
X19170Y-44100D02*
X14700Y-44100D01*
X8230Y-40100D02*
X19170Y-40100D01*
X12950Y-41350D02*
X14450Y-41350D01*
X14700Y-44100D02*
X14450Y-43850D01*
X14700Y-44100D02*
X12700Y-44100D01*
X14450Y-43850D02*
X14450Y-41350D01*
X12700Y-44100D02*
X12950Y-43850D01*
X12700Y-44100D02*
X8230Y-44100D01*
X12950Y-43850D02*
X12950Y-41350D01*
G54D17*
X14200Y-41500D02*
X14200Y-43550D01*
X13200Y-41500D02*
X13200Y-43550D01*
G54D12*
X18500Y-37500D02*
G75*
G03X18500Y-37500I-50J0D01*
G74*
G01*
X18000Y-37500D02*
X18400Y-37500D01*
X18400Y-37500D02*
X18400Y-38100D01*
X18400Y-38100D02*
X18000Y-38100D01*
X17600Y-38100D02*
X17200Y-38100D01*
X17200Y-38100D02*
X17200Y-37500D01*
X17200Y-37500D02*
X17600Y-37500D01*
X29275Y-37275D02*
G75*
G03X29275Y-37275I-50J0D01*
G74*
G01*
X28775Y-37275D02*
X29175Y-37275D01*
X29175Y-37275D02*
X29175Y-37875D01*
X29175Y-37875D02*
X28775Y-37875D01*
X28375Y-37875D02*
X27975Y-37875D01*
X27975Y-37875D02*
X27975Y-37275D01*
X27975Y-37275D02*
X28375Y-37275D01*
G54D16*
X49950Y-39850D02*
X49650Y-39850D01*
X49650Y-39850D02*
X49650Y-40050D01*
X49950Y-40050D02*
X49650Y-40050D01*
X49950Y-39850D02*
X49950Y-40050D01*
X50950Y-39850D02*
X50650Y-39850D01*
X50650Y-39850D02*
X50650Y-40050D01*
X50950Y-40050D02*
X50650Y-40050D01*
X50950Y-39850D02*
X50950Y-40050D01*
X51951Y-39850D02*
X51650Y-39850D01*
X51650Y-39850D02*
X51650Y-40050D01*
X51951Y-40050D02*
X51650Y-40050D01*
X51951Y-39850D02*
X51951Y-40050D01*
X55450Y-41300D02*
X55150Y-41300D01*
X55150Y-41300D02*
X55150Y-41400D01*
X55450Y-41400D02*
X55150Y-41400D01*
X55450Y-41300D02*
X55450Y-41400D01*
X50450Y-39550D02*
X50150Y-39550D01*
X50150Y-39550D02*
X50150Y-40050D01*
X50450Y-40050D02*
X50150Y-40050D01*
X50450Y-39550D02*
X50450Y-40050D01*
X51450Y-39550D02*
X51150Y-39550D01*
X51150Y-39550D02*
X51150Y-40050D01*
X51450Y-40050D02*
X51150Y-40050D01*
X51450Y-39550D02*
X51450Y-40050D01*
X52450Y-39550D02*
X52150Y-39550D01*
X52150Y-39550D02*
X52150Y-40050D01*
X52450Y-40050D02*
X52150Y-40050D01*
X52450Y-39550D02*
X52450Y-40050D01*
X52950Y-39850D02*
X52650Y-39850D01*
X52650Y-39850D02*
X52650Y-40050D01*
X52950Y-40050D02*
X52650Y-40050D01*
X52950Y-39850D02*
X52950Y-40050D01*
X53950Y-39850D02*
X53650Y-39850D01*
X53650Y-39850D02*
X53650Y-40050D01*
X53950Y-40050D02*
X53650Y-40050D01*
X53950Y-39850D02*
X53950Y-40050D01*
X54950Y-39850D02*
X54650Y-39850D01*
X54650Y-39850D02*
X54650Y-40050D01*
X54950Y-40050D02*
X54650Y-40050D01*
X54950Y-39850D02*
X54950Y-40050D01*
X53450Y-39550D02*
X53150Y-39550D01*
X53150Y-39550D02*
X53150Y-40050D01*
X53450Y-40050D02*
X53150Y-40050D01*
X53450Y-39550D02*
X53450Y-40050D01*
X54450Y-39550D02*
X54150Y-39550D01*
X54150Y-39550D02*
X54150Y-40050D01*
X54450Y-40050D02*
X54150Y-40050D01*
X54450Y-39550D02*
X54450Y-40050D01*
X55450Y-39550D02*
X55150Y-39550D01*
X55150Y-39550D02*
X55150Y-40050D01*
X55450Y-40050D02*
X55150Y-40050D01*
X55450Y-39550D02*
X55450Y-40050D01*
X55950Y-39850D02*
X55650Y-39850D01*
X55650Y-39850D02*
X55650Y-40050D01*
X55950Y-40050D02*
X55650Y-40050D01*
X55950Y-39850D02*
X55950Y-40050D01*
X56950Y-39850D02*
X56650Y-39850D01*
X56650Y-39850D02*
X56650Y-40050D01*
X56950Y-40050D02*
X56650Y-40050D01*
X56950Y-39850D02*
X56950Y-40050D01*
X57950Y-39850D02*
X57649Y-39850D01*
X57649Y-39850D02*
X57649Y-40050D01*
X57950Y-40050D02*
X57649Y-40050D01*
X57950Y-39850D02*
X57950Y-40050D01*
X56450Y-39550D02*
X56150Y-39550D01*
X56150Y-39550D02*
X56150Y-40050D01*
X56450Y-40050D02*
X56150Y-40050D01*
X56450Y-39550D02*
X56450Y-40050D01*
X57450Y-39550D02*
X57150Y-39550D01*
X57150Y-39550D02*
X57150Y-40050D01*
X57450Y-40050D02*
X57150Y-40050D01*
X57450Y-39550D02*
X57450Y-40050D01*
X58450Y-39550D02*
X58150Y-39550D01*
X58150Y-39550D02*
X58150Y-40050D01*
X58450Y-40050D02*
X58150Y-40050D01*
X58450Y-39550D02*
X58450Y-40050D01*
X58950Y-39850D02*
X58650Y-39850D01*
X58650Y-39850D02*
X58650Y-40050D01*
X58950Y-40050D02*
X58650Y-40050D01*
X58950Y-39850D02*
X58950Y-40050D01*
X59950Y-39850D02*
X59650Y-39850D01*
X59650Y-39850D02*
X59650Y-40050D01*
X59950Y-40050D02*
X59650Y-40050D01*
X59950Y-39850D02*
X59950Y-40050D01*
X59450Y-39550D02*
X59150Y-39550D01*
X59150Y-39550D02*
X59150Y-40050D01*
X59450Y-40050D02*
X59150Y-40050D01*
X59450Y-39550D02*
X59450Y-40050D01*
X54450Y-41300D02*
X54150Y-41300D01*
X54150Y-41300D02*
X54150Y-41400D01*
X54450Y-41400D02*
X54150Y-41400D01*
X54450Y-41300D02*
X54450Y-41400D01*
G54D11*
X49330Y-44050D02*
X49330Y-40050D01*
X60270Y-44050D02*
X60270Y-40050D01*
X60270Y-44050D02*
X55800Y-44050D01*
X49330Y-40050D02*
X60270Y-40050D01*
X54050Y-41300D02*
X55550Y-41300D01*
X55800Y-44050D02*
X55550Y-43800D01*
X55800Y-44050D02*
X53800Y-44050D01*
X55550Y-43800D02*
X55550Y-41300D01*
X53800Y-44050D02*
X54050Y-43800D01*
X53800Y-44050D02*
X49330Y-44050D01*
X54050Y-43800D02*
X54050Y-41300D01*
G54D17*
X55300Y-41450D02*
X55300Y-43500D01*
X54300Y-41450D02*
X54300Y-43500D01*
G54D16*
X59550Y-21550D02*
X59550Y-21850D01*
X59550Y-21850D02*
X59750Y-21850D01*
X59750Y-21550D02*
X59750Y-21850D01*
X59550Y-21550D02*
X59750Y-21550D01*
X59550Y-20550D02*
X59550Y-20850D01*
X59550Y-20850D02*
X59750Y-20850D01*
X59750Y-20550D02*
X59750Y-20850D01*
X59550Y-20550D02*
X59750Y-20550D01*
X59550Y-19549D02*
X59550Y-19850D01*
X59550Y-19850D02*
X59750Y-19850D01*
X59750Y-19549D02*
X59750Y-19850D01*
X59550Y-19549D02*
X59750Y-19549D01*
X61000Y-16050D02*
X61000Y-16350D01*
X61000Y-16350D02*
X61100Y-16350D01*
X61100Y-16050D02*
X61100Y-16350D01*
X61000Y-16050D02*
X61100Y-16050D01*
X59250Y-21050D02*
X59250Y-21350D01*
X59250Y-21350D02*
X59750Y-21350D01*
X59750Y-21050D02*
X59750Y-21350D01*
X59250Y-21050D02*
X59750Y-21050D01*
X59250Y-20050D02*
X59250Y-20350D01*
X59250Y-20350D02*
X59750Y-20350D01*
X59750Y-20050D02*
X59750Y-20350D01*
X59250Y-20050D02*
X59750Y-20050D01*
X59250Y-19050D02*
X59250Y-19350D01*
X59250Y-19350D02*
X59750Y-19350D01*
X59750Y-19050D02*
X59750Y-19350D01*
X59250Y-19050D02*
X59750Y-19050D01*
X59550Y-18550D02*
X59550Y-18850D01*
X59550Y-18850D02*
X59750Y-18850D01*
X59750Y-18550D02*
X59750Y-18850D01*
X59550Y-18550D02*
X59750Y-18550D01*
X59550Y-17550D02*
X59550Y-17850D01*
X59550Y-17850D02*
X59750Y-17850D01*
X59750Y-17550D02*
X59750Y-17850D01*
X59550Y-17550D02*
X59750Y-17550D01*
X59550Y-16550D02*
X59550Y-16850D01*
X59550Y-16850D02*
X59750Y-16850D01*
X59750Y-16550D02*
X59750Y-16850D01*
X59550Y-16550D02*
X59750Y-16550D01*
X59250Y-18050D02*
X59250Y-18350D01*
X59250Y-18350D02*
X59750Y-18350D01*
X59750Y-18050D02*
X59750Y-18350D01*
X59250Y-18050D02*
X59750Y-18050D01*
X59250Y-17050D02*
X59250Y-17350D01*
X59250Y-17350D02*
X59750Y-17350D01*
X59750Y-17050D02*
X59750Y-17350D01*
X59250Y-17050D02*
X59750Y-17050D01*
X59250Y-16050D02*
X59250Y-16350D01*
X59250Y-16350D02*
X59750Y-16350D01*
X59750Y-16050D02*
X59750Y-16350D01*
X59250Y-16050D02*
X59750Y-16050D01*
X59550Y-15550D02*
X59550Y-15850D01*
X59550Y-15850D02*
X59750Y-15850D01*
X59750Y-15550D02*
X59750Y-15850D01*
X59550Y-15550D02*
X59750Y-15550D01*
X59550Y-14550D02*
X59550Y-14850D01*
X59550Y-14850D02*
X59750Y-14850D01*
X59750Y-14550D02*
X59750Y-14850D01*
X59550Y-14550D02*
X59750Y-14550D01*
X59550Y-13550D02*
X59550Y-13851D01*
X59550Y-13851D02*
X59750Y-13851D01*
X59750Y-13550D02*
X59750Y-13851D01*
X59550Y-13550D02*
X59750Y-13550D01*
X59250Y-15050D02*
X59250Y-15350D01*
X59250Y-15350D02*
X59750Y-15350D01*
X59750Y-15050D02*
X59750Y-15350D01*
X59250Y-15050D02*
X59750Y-15050D01*
X59250Y-14050D02*
X59250Y-14350D01*
X59250Y-14350D02*
X59750Y-14350D01*
X59750Y-14050D02*
X59750Y-14350D01*
X59250Y-14050D02*
X59750Y-14050D01*
X59250Y-13050D02*
X59250Y-13350D01*
X59250Y-13350D02*
X59750Y-13350D01*
X59750Y-13050D02*
X59750Y-13350D01*
X59250Y-13050D02*
X59750Y-13050D01*
X59550Y-12550D02*
X59550Y-12850D01*
X59550Y-12850D02*
X59750Y-12850D01*
X59750Y-12550D02*
X59750Y-12850D01*
X59550Y-12550D02*
X59750Y-12550D01*
X59550Y-11550D02*
X59550Y-11850D01*
X59550Y-11850D02*
X59750Y-11850D01*
X59750Y-11550D02*
X59750Y-11850D01*
X59550Y-11550D02*
X59750Y-11550D01*
X59250Y-12050D02*
X59250Y-12350D01*
X59250Y-12350D02*
X59750Y-12350D01*
X59750Y-12050D02*
X59750Y-12350D01*
X59250Y-12050D02*
X59750Y-12050D01*
X61000Y-17050D02*
X61000Y-17350D01*
X61000Y-17350D02*
X61100Y-17350D01*
X61100Y-17050D02*
X61100Y-17350D01*
X61000Y-17050D02*
X61100Y-17050D01*
G54D11*
X63750Y-22170D02*
X59750Y-22170D01*
X63750Y-11230D02*
X59750Y-11230D01*
X63750Y-11230D02*
X63750Y-15700D01*
X59750Y-22170D02*
X59750Y-11230D01*
X61000Y-17450D02*
X61000Y-15950D01*
X63750Y-15700D02*
X63500Y-15950D01*
X63750Y-15700D02*
X63750Y-17700D01*
X63500Y-15950D02*
X61000Y-15950D01*
X63750Y-17700D02*
X63500Y-17450D01*
X63750Y-17700D02*
X63750Y-22170D01*
X63500Y-17450D02*
X61000Y-17450D01*
G54D17*
X61150Y-16200D02*
X63200Y-16200D01*
X61150Y-17200D02*
X63200Y-17200D01*
G54D16*
X38850Y-39850D02*
X38550Y-39850D01*
X38550Y-39850D02*
X38550Y-40050D01*
X38850Y-40050D02*
X38550Y-40050D01*
X38850Y-39850D02*
X38850Y-40050D01*
X39850Y-39850D02*
X39550Y-39850D01*
X39550Y-39850D02*
X39550Y-40050D01*
X39850Y-40050D02*
X39550Y-40050D01*
X39850Y-39850D02*
X39850Y-40050D01*
X40851Y-39850D02*
X40550Y-39850D01*
X40550Y-39850D02*
X40550Y-40050D01*
X40851Y-40050D02*
X40550Y-40050D01*
X40851Y-39850D02*
X40851Y-40050D01*
X44350Y-41300D02*
X44050Y-41300D01*
X44050Y-41300D02*
X44050Y-41400D01*
X44350Y-41400D02*
X44050Y-41400D01*
X44350Y-41300D02*
X44350Y-41400D01*
X39350Y-39550D02*
X39050Y-39550D01*
X39050Y-39550D02*
X39050Y-40050D01*
X39350Y-40050D02*
X39050Y-40050D01*
X39350Y-39550D02*
X39350Y-40050D01*
X40350Y-39550D02*
X40050Y-39550D01*
X40050Y-39550D02*
X40050Y-40050D01*
X40350Y-40050D02*
X40050Y-40050D01*
X40350Y-39550D02*
X40350Y-40050D01*
X41350Y-39550D02*
X41050Y-39550D01*
X41050Y-39550D02*
X41050Y-40050D01*
X41350Y-40050D02*
X41050Y-40050D01*
X41350Y-39550D02*
X41350Y-40050D01*
X41850Y-39850D02*
X41550Y-39850D01*
X41550Y-39850D02*
X41550Y-40050D01*
X41850Y-40050D02*
X41550Y-40050D01*
X41850Y-39850D02*
X41850Y-40050D01*
X42850Y-39850D02*
X42550Y-39850D01*
X42550Y-39850D02*
X42550Y-40050D01*
X42850Y-40050D02*
X42550Y-40050D01*
X42850Y-39850D02*
X42850Y-40050D01*
X43850Y-39850D02*
X43550Y-39850D01*
X43550Y-39850D02*
X43550Y-40050D01*
X43850Y-40050D02*
X43550Y-40050D01*
X43850Y-39850D02*
X43850Y-40050D01*
X42350Y-39550D02*
X42050Y-39550D01*
X42050Y-39550D02*
X42050Y-40050D01*
X42350Y-40050D02*
X42050Y-40050D01*
X42350Y-39550D02*
X42350Y-40050D01*
X43350Y-39550D02*
X43050Y-39550D01*
X43050Y-39550D02*
X43050Y-40050D01*
X43350Y-40050D02*
X43050Y-40050D01*
X43350Y-39550D02*
X43350Y-40050D01*
X44350Y-39550D02*
X44050Y-39550D01*
X44050Y-39550D02*
X44050Y-40050D01*
X44350Y-40050D02*
X44050Y-40050D01*
X44350Y-39550D02*
X44350Y-40050D01*
X44850Y-39850D02*
X44550Y-39850D01*
X44550Y-39850D02*
X44550Y-40050D01*
X44850Y-40050D02*
X44550Y-40050D01*
X44850Y-39850D02*
X44850Y-40050D01*
X45850Y-39850D02*
X45550Y-39850D01*
X45550Y-39850D02*
X45550Y-40050D01*
X45850Y-40050D02*
X45550Y-40050D01*
X45850Y-39850D02*
X45850Y-40050D01*
X46850Y-39850D02*
X46549Y-39850D01*
X46549Y-39850D02*
X46549Y-40050D01*
X46850Y-40050D02*
X46549Y-40050D01*
X46850Y-39850D02*
X46850Y-40050D01*
X45350Y-39550D02*
X45050Y-39550D01*
X45050Y-39550D02*
X45050Y-40050D01*
X45350Y-40050D02*
X45050Y-40050D01*
X45350Y-39550D02*
X45350Y-40050D01*
X46350Y-39550D02*
X46050Y-39550D01*
X46050Y-39550D02*
X46050Y-40050D01*
X46350Y-40050D02*
X46050Y-40050D01*
X46350Y-39550D02*
X46350Y-40050D01*
X47350Y-39550D02*
X47050Y-39550D01*
X47050Y-39550D02*
X47050Y-40050D01*
X47350Y-40050D02*
X47050Y-40050D01*
X47350Y-39550D02*
X47350Y-40050D01*
X47850Y-39850D02*
X47550Y-39850D01*
X47550Y-39850D02*
X47550Y-40050D01*
X47850Y-40050D02*
X47550Y-40050D01*
X47850Y-39850D02*
X47850Y-40050D01*
X48850Y-39850D02*
X48550Y-39850D01*
X48550Y-39850D02*
X48550Y-40050D01*
X48850Y-40050D02*
X48550Y-40050D01*
X48850Y-39850D02*
X48850Y-40050D01*
X48350Y-39550D02*
X48050Y-39550D01*
X48050Y-39550D02*
X48050Y-40050D01*
X48350Y-40050D02*
X48050Y-40050D01*
X48350Y-39550D02*
X48350Y-40050D01*
X43350Y-41300D02*
X43050Y-41300D01*
X43050Y-41300D02*
X43050Y-41400D01*
X43350Y-41400D02*
X43050Y-41400D01*
X43350Y-41300D02*
X43350Y-41400D01*
G54D11*
X38230Y-44050D02*
X38230Y-40050D01*
X49170Y-44050D02*
X49170Y-40050D01*
X49170Y-44050D02*
X44700Y-44050D01*
X38230Y-40050D02*
X49170Y-40050D01*
X42950Y-41300D02*
X44450Y-41300D01*
X44700Y-44050D02*
X44450Y-43800D01*
X44700Y-44050D02*
X42700Y-44050D01*
X44450Y-43800D02*
X44450Y-41300D01*
X42700Y-44050D02*
X42950Y-43800D01*
X42700Y-44050D02*
X38230Y-44050D01*
X42950Y-43800D02*
X42950Y-41300D01*
G54D17*
X44200Y-41450D02*
X44200Y-43500D01*
X43200Y-41450D02*
X43200Y-43500D01*
G54D12*
X44850Y-11750D02*
G75*
G03X44850Y-11750I-50J0D01*
G74*
G01*
X44800Y-11300D02*
X44800Y-11700D01*
X44800Y-11700D02*
X44200Y-11700D01*
X44200Y-11700D02*
X44200Y-11300D01*
X44200Y-10900D02*
X44200Y-10500D01*
X44200Y-10500D02*
X44800Y-10500D01*
X44800Y-10500D02*
X44800Y-10900D01*
X52950Y-11650D02*
G75*
G03X52950Y-11650I-50J0D01*
G74*
G01*
X52900Y-11200D02*
X52900Y-11600D01*
X52900Y-11600D02*
X52300Y-11600D01*
X52300Y-11600D02*
X52300Y-11200D01*
X52300Y-10800D02*
X52300Y-10400D01*
X52300Y-10400D02*
X52900Y-10400D01*
X52900Y-10400D02*
X52900Y-10800D01*
X51950Y-11650D02*
G75*
G03X51950Y-11650I-50J0D01*
G74*
G01*
X51900Y-11200D02*
X51900Y-11600D01*
X51900Y-11600D02*
X51300Y-11600D01*
X51300Y-11600D02*
X51300Y-11200D01*
X51300Y-10800D02*
X51300Y-10400D01*
X51300Y-10400D02*
X51900Y-10400D01*
X51900Y-10400D02*
X51900Y-10800D01*
X45850Y-11750D02*
G75*
G03X45850Y-11750I-50J0D01*
G74*
G01*
X45800Y-11300D02*
X45800Y-11700D01*
X45800Y-11700D02*
X45200Y-11700D01*
X45200Y-11700D02*
X45200Y-11300D01*
X45200Y-10900D02*
X45200Y-10500D01*
X45200Y-10500D02*
X45800Y-10500D01*
X45800Y-10500D02*
X45800Y-10900D01*
X13900Y-24300D02*
G75*
G03X13900Y-24300I-50J0D01*
G74*
G01*
X13400Y-24300D02*
X13800Y-24300D01*
X13800Y-24300D02*
X13800Y-24900D01*
X13800Y-24900D02*
X13400Y-24900D01*
X13000Y-24900D02*
X12600Y-24900D01*
X12600Y-24900D02*
X12600Y-24300D01*
X12600Y-24300D02*
X13000Y-24300D01*
G54D11*
X15100Y-21200D02*
X15100Y-22000D01*
X15050Y-22150D02*
X15050Y-21000D01*
X15000Y-20900D02*
X15000Y-22300D01*
X14950Y-22450D02*
X14950Y-20750D01*
X14900Y-20650D02*
X14900Y-22550D01*
X14850Y-22600D02*
X14850Y-20600D01*
X15150Y-21600D02*
G75*
G03X15150Y-21600I-1950J0D01*
G74*
G01*
X15250Y-23650D02*
X15250Y-19550D01*
X15250Y-19550D02*
X11450Y-19550D01*
X11450Y-19550D02*
X11150Y-19850D01*
X11150Y-19850D02*
X11150Y-23350D01*
X11150Y-23350D02*
X11450Y-23650D01*
X11450Y-23650D02*
X15250Y-23650D01*
X11400Y-21600D02*
X11700Y-21600D01*
X11550Y-21750D02*
X11550Y-21450D01*
G54D14*
X16600Y-5600D02*
X17600Y-5600D01*
X17600Y-5600D02*
X17600Y-7600D01*
X17600Y-7600D02*
X16600Y-7600D01*
X16600Y-7600D02*
X16600Y-5600D01*
G54D16*
X59550Y-34450D02*
X59550Y-34750D01*
X59550Y-34750D02*
X59750Y-34750D01*
X59750Y-34450D02*
X59750Y-34750D01*
X59550Y-34450D02*
X59750Y-34450D01*
X59550Y-33450D02*
X59550Y-33750D01*
X59550Y-33750D02*
X59750Y-33750D01*
X59750Y-33450D02*
X59750Y-33750D01*
X59550Y-33450D02*
X59750Y-33450D01*
X59550Y-32449D02*
X59550Y-32750D01*
X59550Y-32750D02*
X59750Y-32750D01*
X59750Y-32449D02*
X59750Y-32750D01*
X59550Y-32449D02*
X59750Y-32449D01*
X61000Y-28950D02*
X61000Y-29250D01*
X61000Y-29250D02*
X61100Y-29250D01*
X61100Y-28950D02*
X61100Y-29250D01*
X61000Y-28950D02*
X61100Y-28950D01*
X59250Y-33950D02*
X59250Y-34250D01*
X59250Y-34250D02*
X59750Y-34250D01*
X59750Y-33950D02*
X59750Y-34250D01*
X59250Y-33950D02*
X59750Y-33950D01*
X59250Y-32950D02*
X59250Y-33250D01*
X59250Y-33250D02*
X59750Y-33250D01*
X59750Y-32950D02*
X59750Y-33250D01*
X59250Y-32950D02*
X59750Y-32950D01*
X59250Y-31950D02*
X59250Y-32250D01*
X59250Y-32250D02*
X59750Y-32250D01*
X59750Y-31950D02*
X59750Y-32250D01*
X59250Y-31950D02*
X59750Y-31950D01*
X59550Y-31450D02*
X59550Y-31750D01*
X59550Y-31750D02*
X59750Y-31750D01*
X59750Y-31450D02*
X59750Y-31750D01*
X59550Y-31450D02*
X59750Y-31450D01*
X59550Y-30450D02*
X59550Y-30750D01*
X59550Y-30750D02*
X59750Y-30750D01*
X59750Y-30450D02*
X59750Y-30750D01*
X59550Y-30450D02*
X59750Y-30450D01*
X59550Y-29450D02*
X59550Y-29750D01*
X59550Y-29750D02*
X59750Y-29750D01*
X59750Y-29450D02*
X59750Y-29750D01*
X59550Y-29450D02*
X59750Y-29450D01*
X59250Y-30950D02*
X59250Y-31250D01*
X59250Y-31250D02*
X59750Y-31250D01*
X59750Y-30950D02*
X59750Y-31250D01*
X59250Y-30950D02*
X59750Y-30950D01*
X59250Y-29950D02*
X59250Y-30250D01*
X59250Y-30250D02*
X59750Y-30250D01*
X59750Y-29950D02*
X59750Y-30250D01*
X59250Y-29950D02*
X59750Y-29950D01*
X59250Y-28950D02*
X59250Y-29250D01*
X59250Y-29250D02*
X59750Y-29250D01*
X59750Y-28950D02*
X59750Y-29250D01*
X59250Y-28950D02*
X59750Y-28950D01*
X59550Y-28450D02*
X59550Y-28750D01*
X59550Y-28750D02*
X59750Y-28750D01*
X59750Y-28450D02*
X59750Y-28750D01*
X59550Y-28450D02*
X59750Y-28450D01*
X59550Y-27450D02*
X59550Y-27750D01*
X59550Y-27750D02*
X59750Y-27750D01*
X59750Y-27450D02*
X59750Y-27750D01*
X59550Y-27450D02*
X59750Y-27450D01*
X59550Y-26450D02*
X59550Y-26751D01*
X59550Y-26751D02*
X59750Y-26751D01*
X59750Y-26450D02*
X59750Y-26751D01*
X59550Y-26450D02*
X59750Y-26450D01*
X59250Y-27950D02*
X59250Y-28250D01*
X59250Y-28250D02*
X59750Y-28250D01*
X59750Y-27950D02*
X59750Y-28250D01*
X59250Y-27950D02*
X59750Y-27950D01*
X59250Y-26950D02*
X59250Y-27250D01*
X59250Y-27250D02*
X59750Y-27250D01*
X59750Y-26950D02*
X59750Y-27250D01*
X59250Y-26950D02*
X59750Y-26950D01*
X59250Y-25950D02*
X59250Y-26250D01*
X59250Y-26250D02*
X59750Y-26250D01*
X59750Y-25950D02*
X59750Y-26250D01*
X59250Y-25950D02*
X59750Y-25950D01*
X59550Y-25450D02*
X59550Y-25750D01*
X59550Y-25750D02*
X59750Y-25750D01*
X59750Y-25450D02*
X59750Y-25750D01*
X59550Y-25450D02*
X59750Y-25450D01*
X59550Y-24450D02*
X59550Y-24750D01*
X59550Y-24750D02*
X59750Y-24750D01*
X59750Y-24450D02*
X59750Y-24750D01*
X59550Y-24450D02*
X59750Y-24450D01*
X59250Y-24950D02*
X59250Y-25250D01*
X59250Y-25250D02*
X59750Y-25250D01*
X59750Y-24950D02*
X59750Y-25250D01*
X59250Y-24950D02*
X59750Y-24950D01*
X61000Y-29950D02*
X61000Y-30250D01*
X61000Y-30250D02*
X61100Y-30250D01*
X61100Y-29950D02*
X61100Y-30250D01*
X61000Y-29950D02*
X61100Y-29950D01*
G54D11*
X63750Y-35070D02*
X59750Y-35070D01*
X63750Y-24130D02*
X59750Y-24130D01*
X63750Y-24130D02*
X63750Y-28600D01*
X59750Y-35070D02*
X59750Y-24130D01*
X61000Y-30350D02*
X61000Y-28850D01*
X63750Y-28600D02*
X63500Y-28850D01*
X63750Y-28600D02*
X63750Y-30600D01*
X63500Y-28850D02*
X61000Y-28850D01*
X63750Y-30600D02*
X63500Y-30350D01*
X63750Y-30600D02*
X63750Y-35070D01*
X63500Y-30350D02*
X61000Y-30350D01*
G54D17*
X61150Y-29100D02*
X63200Y-29100D01*
X61150Y-30100D02*
X63200Y-30100D01*
G54D14*
X6100Y-8800D02*
X7100Y-8800D01*
X7100Y-8800D02*
X7100Y-10800D01*
X7100Y-10800D02*
X6100Y-10800D01*
X6100Y-10800D02*
X6100Y-8800D01*
G54D18*
X9300Y-6100D02*
X9300Y-6600D01*
X8800Y-7100D02*
X8800Y-6600D01*
X8800Y-6600D02*
X9800Y-6600D01*
X9800Y-6600D02*
X9800Y-7100D01*
X8300Y-7100D02*
X10300Y-7100D01*
X10300Y-7100D02*
X10300Y-13600D01*
X10300Y-13600D02*
X8300Y-13600D01*
X8300Y-13600D02*
X8300Y-7100D01*
X9300Y-13600D02*
X9300Y-14100D01*
X10300Y-8100D02*
X8300Y-8100D01*
X8300Y-7600D02*
X10300Y-7600D01*
X14100Y-6200D02*
X14100Y-6700D01*
X13600Y-7200D02*
X13600Y-6700D01*
X13600Y-6700D02*
X14600Y-6700D01*
X14600Y-6700D02*
X14600Y-7200D01*
X13100Y-7200D02*
X15100Y-7200D01*
X15100Y-7200D02*
X15100Y-13700D01*
X15100Y-13700D02*
X13100Y-13700D01*
X13100Y-13700D02*
X13100Y-7200D01*
X14100Y-13700D02*
X14100Y-14200D01*
X15100Y-8200D02*
X13100Y-8200D01*
X13100Y-7700D02*
X15100Y-7700D01*
G54D16*
X49849Y-9050D02*
X50150Y-9050D01*
X50150Y-9050D02*
X50150Y-8850D01*
X49849Y-8850D02*
X50150Y-8850D01*
X49849Y-9050D02*
X49849Y-8850D01*
X46350Y-7600D02*
X46650Y-7600D01*
X46650Y-7600D02*
X46650Y-7500D01*
X46350Y-7500D02*
X46650Y-7500D01*
X46350Y-7600D02*
X46350Y-7500D01*
X49350Y-9350D02*
X49650Y-9350D01*
X49650Y-9350D02*
X49650Y-8850D01*
X49350Y-8850D02*
X49650Y-8850D01*
X49350Y-9350D02*
X49350Y-8850D01*
X48850Y-9050D02*
X49150Y-9050D01*
X49150Y-9050D02*
X49150Y-8850D01*
X48850Y-8850D02*
X49150Y-8850D01*
X48850Y-9050D02*
X48850Y-8850D01*
X47850Y-9050D02*
X48150Y-9050D01*
X48150Y-9050D02*
X48150Y-8850D01*
X47850Y-8850D02*
X48150Y-8850D01*
X47850Y-9050D02*
X47850Y-8850D01*
X46850Y-9050D02*
X47150Y-9050D01*
X47150Y-9050D02*
X47150Y-8850D01*
X46850Y-8850D02*
X47150Y-8850D01*
X46850Y-9050D02*
X46850Y-8850D01*
X48350Y-9350D02*
X48650Y-9350D01*
X48650Y-9350D02*
X48650Y-8850D01*
X48350Y-8850D02*
X48650Y-8850D01*
X48350Y-9350D02*
X48350Y-8850D01*
X47350Y-9350D02*
X47650Y-9350D01*
X47650Y-9350D02*
X47650Y-8850D01*
X47350Y-8850D02*
X47650Y-8850D01*
X47350Y-9350D02*
X47350Y-8850D01*
X46350Y-9350D02*
X46650Y-9350D01*
X46650Y-9350D02*
X46650Y-8850D01*
X46350Y-8850D02*
X46650Y-8850D01*
X46350Y-9350D02*
X46350Y-8850D01*
X45850Y-9050D02*
X46150Y-9050D01*
X46150Y-9050D02*
X46150Y-8850D01*
X45850Y-8850D02*
X46150Y-8850D01*
X45850Y-9050D02*
X45850Y-8850D01*
X44850Y-9050D02*
X45150Y-9050D01*
X45150Y-9050D02*
X45150Y-8850D01*
X44850Y-8850D02*
X45150Y-8850D01*
X44850Y-9050D02*
X44850Y-8850D01*
X43850Y-9050D02*
X44151Y-9050D01*
X44151Y-9050D02*
X44151Y-8850D01*
X43850Y-8850D02*
X44151Y-8850D01*
X43850Y-9050D02*
X43850Y-8850D01*
X45350Y-9350D02*
X45650Y-9350D01*
X45650Y-9350D02*
X45650Y-8850D01*
X45350Y-8850D02*
X45650Y-8850D01*
X45350Y-9350D02*
X45350Y-8850D01*
X44350Y-9350D02*
X44650Y-9350D01*
X44650Y-9350D02*
X44650Y-8850D01*
X44350Y-8850D02*
X44650Y-8850D01*
X44350Y-9350D02*
X44350Y-8850D01*
X47350Y-7600D02*
X47650Y-7600D01*
X47650Y-7600D02*
X47650Y-7500D01*
X47350Y-7500D02*
X47650Y-7500D01*
X47350Y-7600D02*
X47350Y-7500D01*
G54D11*
X50469Y-4850D02*
X50469Y-8850D01*
X43531Y-4850D02*
X43531Y-8850D01*
X43531Y-4850D02*
X46000Y-4850D01*
X50469Y-8850D02*
X43531Y-8850D01*
X47750Y-7600D02*
X46250Y-7600D01*
X46000Y-4850D02*
X46250Y-5100D01*
X46000Y-4850D02*
X48000Y-4850D01*
X46250Y-5100D02*
X46250Y-7600D01*
X48000Y-4850D02*
X47750Y-5100D01*
X48000Y-4850D02*
X50469Y-4850D01*
X47750Y-5100D02*
X47750Y-7600D01*
G54D17*
X46500Y-7450D02*
X46500Y-5400D01*
X47500Y-7450D02*
X47500Y-5400D01*
G54D16*
X56949Y-9050D02*
X57250Y-9050D01*
X57250Y-9050D02*
X57250Y-8850D01*
X56949Y-8850D02*
X57250Y-8850D01*
X56949Y-9050D02*
X56949Y-8850D01*
X53450Y-7600D02*
X53750Y-7600D01*
X53750Y-7600D02*
X53750Y-7500D01*
X53450Y-7500D02*
X53750Y-7500D01*
X53450Y-7600D02*
X53450Y-7500D01*
X56450Y-9350D02*
X56750Y-9350D01*
X56750Y-9350D02*
X56750Y-8850D01*
X56450Y-8850D02*
X56750Y-8850D01*
X56450Y-9350D02*
X56450Y-8850D01*
X55950Y-9050D02*
X56250Y-9050D01*
X56250Y-9050D02*
X56250Y-8850D01*
X55950Y-8850D02*
X56250Y-8850D01*
X55950Y-9050D02*
X55950Y-8850D01*
X54950Y-9050D02*
X55250Y-9050D01*
X55250Y-9050D02*
X55250Y-8850D01*
X54950Y-8850D02*
X55250Y-8850D01*
X54950Y-9050D02*
X54950Y-8850D01*
X53950Y-9050D02*
X54250Y-9050D01*
X54250Y-9050D02*
X54250Y-8850D01*
X53950Y-8850D02*
X54250Y-8850D01*
X53950Y-9050D02*
X53950Y-8850D01*
X55450Y-9350D02*
X55750Y-9350D01*
X55750Y-9350D02*
X55750Y-8850D01*
X55450Y-8850D02*
X55750Y-8850D01*
X55450Y-9350D02*
X55450Y-8850D01*
X54450Y-9350D02*
X54750Y-9350D01*
X54750Y-9350D02*
X54750Y-8850D01*
X54450Y-8850D02*
X54750Y-8850D01*
X54450Y-9350D02*
X54450Y-8850D01*
X53450Y-9350D02*
X53750Y-9350D01*
X53750Y-9350D02*
X53750Y-8850D01*
X53450Y-8850D02*
X53750Y-8850D01*
X53450Y-9350D02*
X53450Y-8850D01*
X52950Y-9050D02*
X53250Y-9050D01*
X53250Y-9050D02*
X53250Y-8850D01*
X52950Y-8850D02*
X53250Y-8850D01*
X52950Y-9050D02*
X52950Y-8850D01*
X51950Y-9050D02*
X52250Y-9050D01*
X52250Y-9050D02*
X52250Y-8850D01*
X51950Y-8850D02*
X52250Y-8850D01*
X51950Y-9050D02*
X51950Y-8850D01*
X50950Y-9050D02*
X51251Y-9050D01*
X51251Y-9050D02*
X51251Y-8850D01*
X50950Y-8850D02*
X51251Y-8850D01*
X50950Y-9050D02*
X50950Y-8850D01*
X52450Y-9350D02*
X52750Y-9350D01*
X52750Y-9350D02*
X52750Y-8850D01*
X52450Y-8850D02*
X52750Y-8850D01*
X52450Y-9350D02*
X52450Y-8850D01*
X51450Y-9350D02*
X51750Y-9350D01*
X51750Y-9350D02*
X51750Y-8850D01*
X51450Y-8850D02*
X51750Y-8850D01*
X51450Y-9350D02*
X51450Y-8850D01*
X54450Y-7600D02*
X54750Y-7600D01*
X54750Y-7600D02*
X54750Y-7500D01*
X54450Y-7500D02*
X54750Y-7500D01*
X54450Y-7600D02*
X54450Y-7500D01*
G54D11*
X57569Y-4850D02*
X57569Y-8850D01*
X50631Y-4850D02*
X50631Y-8850D01*
X50631Y-4850D02*
X53100Y-4850D01*
X57569Y-8850D02*
X50631Y-8850D01*
X54850Y-7600D02*
X53350Y-7600D01*
X53100Y-4850D02*
X53350Y-5100D01*
X53100Y-4850D02*
X55100Y-4850D01*
X53350Y-5100D02*
X53350Y-7600D01*
X55100Y-4850D02*
X54850Y-5100D01*
X55100Y-4850D02*
X57569Y-4850D01*
X54850Y-5100D02*
X54850Y-7600D01*
G54D17*
X53600Y-7450D02*
X53600Y-5400D01*
X54600Y-7450D02*
X54600Y-5400D01*
G54D12*
X43900Y-22000D02*
G75*
G03X43900Y-22000I-50J0D01*
G74*
G01*
X44300Y-22000D02*
X43900Y-22000D01*
X43900Y-22000D02*
X43900Y-21400D01*
X43900Y-21400D02*
X44300Y-21400D01*
X44700Y-21400D02*
X45100Y-21400D01*
X45100Y-21400D02*
X45100Y-22000D01*
X45100Y-22000D02*
X44700Y-22000D01*
G54D11*
X46600Y-22650D02*
X49500Y-22650D01*
X49500Y-17650D02*
X46600Y-17650D01*
X46600Y-22650D02*
X46600Y-17650D01*
X49500Y-17650D02*
X49500Y-22650D01*
X48300Y-17650D02*
X48300Y-18150D01*
X48300Y-18150D02*
X47800Y-18150D01*
X47800Y-18150D02*
X47800Y-17650D01*
X43075Y-25775D02*
X43075Y-28675D01*
X48075Y-28675D02*
X48075Y-25775D01*
X43075Y-25775D02*
X48075Y-25775D01*
X48075Y-28675D02*
X43075Y-28675D01*
X48075Y-27475D02*
X47575Y-27475D01*
X47575Y-27475D02*
X47575Y-26975D01*
X47575Y-26975D02*
X48075Y-26975D01*
X36250Y-30500D02*
X36250Y-24500D01*
X36250Y-24500D02*
X32950Y-24500D01*
X34850Y-24500D02*
X34850Y-25000D01*
X34850Y-25000D02*
X34350Y-25000D01*
X34350Y-25000D02*
X34350Y-24500D01*
X32950Y-30500D02*
X36250Y-30500D01*
X32950Y-24500D02*
X32950Y-30500D01*
G54D12*
X43900Y-21100D02*
G75*
G03X43900Y-21100I-50J0D01*
G74*
G01*
X44300Y-21100D02*
X43900Y-21100D01*
X43900Y-21100D02*
X43900Y-20500D01*
X43900Y-20500D02*
X44300Y-20500D01*
X44700Y-20500D02*
X45100Y-20500D01*
X45100Y-20500D02*
X45100Y-21100D01*
X45100Y-21100D02*
X44700Y-21100D01*
X45450Y-24200D02*
G75*
G03X45450Y-24200I-50J0D01*
G74*
G01*
X44950Y-24200D02*
X45350Y-24200D01*
X45350Y-24200D02*
X45350Y-24800D01*
X45350Y-24800D02*
X44950Y-24800D01*
X44550Y-24800D02*
X44150Y-24800D01*
X44150Y-24800D02*
X44150Y-24200D01*
X44150Y-24200D02*
X44550Y-24200D01*
G54D10*
X39600Y-12650D02*
X43100Y-12650D01*
X43100Y-12650D02*
X43100Y-15150D01*
X43100Y-15150D02*
X39600Y-15150D01*
X40100Y-14900D02*
X39600Y-14900D01*
X40100Y-12900D02*
X39600Y-12900D01*
X39600Y-12900D02*
X40850Y-12900D01*
X39600Y-12650D02*
X39600Y-15150D01*
G54D15*
X40951Y-14884D02*
X40163Y-14884D01*
X40913Y-14884D02*
X40717Y-14884D01*
X40717Y-12916D02*
X40913Y-12916D01*
X40163Y-12916D02*
X40951Y-12916D01*
X40951Y-12916D02*
X40951Y-14884D01*
X41307Y-14392D02*
X41406Y-14293D01*
X40906Y-14293D02*
X40709Y-14293D01*
X41209Y-14293D02*
X41307Y-14392D01*
G54D11*
X40934Y-13900D02*
G75*
G03X40934Y-13900I-127J0D01*
G74*
G01*
X40627Y-13900D02*
X40987Y-13900D01*
X40807Y-14080D02*
X40807Y-13720D01*
G54D10*
X34500Y-32000D02*
X34500Y-31500D01*
X36500Y-32000D02*
X36500Y-31500D01*
X36500Y-31500D02*
X36500Y-32750D01*
X36750Y-42000D02*
X36750Y-31500D01*
X36750Y-31500D02*
X34250Y-31500D01*
X34250Y-31500D02*
X34250Y-42000D01*
X34250Y-42000D02*
X36750Y-42000D01*
G54D15*
X34516Y-32851D02*
X34516Y-32063D01*
X34516Y-32813D02*
X34516Y-32617D01*
X36484Y-32617D02*
X36484Y-32813D01*
X36484Y-32063D02*
X36484Y-32851D01*
X36484Y-32851D02*
X34516Y-32851D01*
X35008Y-33207D02*
X35107Y-33306D01*
X35107Y-32806D02*
X35107Y-32609D01*
X35107Y-33109D02*
X35008Y-33207D01*
G54D11*
X35627Y-32707D02*
G75*
G03X35627Y-32707I-127J0D01*
G74*
G01*
X35500Y-32527D02*
X35500Y-32887D01*
X35320Y-32707D02*
X35680Y-32707D01*
G54D10*
X35627Y-40750D02*
G75*
G03X35627Y-40750I-127J0D01*
G74*
G01*
G54D11*
X35500Y-40570D02*
X35500Y-40930D01*
X35320Y-40750D02*
X35680Y-40750D01*
G54D10*
X34965Y-21979D02*
X34965Y-20720D01*
G54D11*
X36934Y-20720D02*
X36934Y-21979D01*
X36100Y-21600D02*
X36100Y-21350D01*
X36100Y-21350D02*
X36100Y-21100D01*
X36000Y-21450D02*
X36000Y-21250D01*
X36000Y-21250D02*
X35900Y-21250D01*
X35900Y-21250D02*
X35900Y-21450D01*
X35900Y-21450D02*
X36000Y-21450D01*
X35800Y-21600D02*
X35800Y-21350D01*
X35800Y-21350D02*
X35800Y-21100D01*
X35700Y-21350D02*
X35800Y-21350D01*
X36200Y-21350D02*
X36100Y-21350D01*
X36934Y-21979D02*
X34965Y-21979D01*
X36934Y-20720D02*
X34965Y-20720D01*
X39450Y-18480D02*
X39450Y-16920D01*
X39450Y-16920D02*
X37550Y-16920D01*
X37550Y-16920D02*
X37550Y-18480D01*
X37550Y-18480D02*
X39450Y-18480D01*
X39250Y-18480D02*
X39250Y-18910D01*
X38750Y-18480D02*
X38750Y-18910D01*
X38250Y-18480D02*
X38250Y-18910D01*
X37750Y-18910D02*
X37750Y-18480D01*
X37750Y-16920D02*
X37750Y-16490D01*
X38250Y-16490D02*
X38250Y-16920D01*
X38750Y-16490D02*
X38750Y-16920D01*
X39250Y-16490D02*
X39250Y-16920D01*
X39346Y-17210D02*
G75*
G03X39346Y-17210I-186J0D01*
G74*
G01*
G54D12*
X39950Y-18550D02*
G75*
G03X39950Y-18550I-50J0D01*
G74*
G01*
X39900Y-19000D02*
X39900Y-18600D01*
X39900Y-18600D02*
X40500Y-18600D01*
X40500Y-18600D02*
X40500Y-19000D01*
X40500Y-19400D02*
X40500Y-19800D01*
X40500Y-19800D02*
X39900Y-19800D01*
X39900Y-19800D02*
X39900Y-19400D01*
G54D15*
X9100Y-18000D02*
X9100Y-19700D01*
X9100Y-19700D02*
X9300Y-19700D01*
X7500Y-18000D02*
X7500Y-19700D01*
X7500Y-19700D02*
X7300Y-19700D01*
X7500Y-22350D02*
X7500Y-20700D01*
X7500Y-20700D02*
X7300Y-20700D01*
X9100Y-22350D02*
X9100Y-20700D01*
X9100Y-20700D02*
X9300Y-20700D01*
X9300Y-22350D02*
X9300Y-18000D01*
X7300Y-18000D02*
X7300Y-22350D01*
X7300Y-18000D02*
X9300Y-18000D01*
X9300Y-22350D02*
X7300Y-22350D01*
G54D13*
X16694Y-15471D02*
X17206Y-15471D01*
X16950Y-15471D02*
X17048Y-15629D01*
X16950Y-15471D02*
X16832Y-15629D01*
X17639Y-14841D02*
X17501Y-14841D01*
X16261Y-14841D02*
X16399Y-14841D01*
X17639Y-14664D02*
X17501Y-14664D01*
X17639Y-16436D02*
X17501Y-16436D01*
X16261Y-16436D02*
X16399Y-16436D01*
X16261Y-14664D02*
X16399Y-14664D01*
X17639Y-16436D02*
X17639Y-14664D01*
X16261Y-16436D02*
X16261Y-14664D01*
X6056Y-16179D02*
X5544Y-16179D01*
X5800Y-16179D02*
X5702Y-16021D01*
X5800Y-16179D02*
X5918Y-16021D01*
X5111Y-16809D02*
X5249Y-16809D01*
X6489Y-16809D02*
X6351Y-16809D01*
X5111Y-16986D02*
X5249Y-16986D01*
X5111Y-15214D02*
X5249Y-15214D01*
X6489Y-15214D02*
X6351Y-15214D01*
X6489Y-16986D02*
X6351Y-16986D01*
X5111Y-15214D02*
X5111Y-16986D01*
X6489Y-15214D02*
X6489Y-16986D01*
G54D11*
X13042Y-25992D02*
X13028Y-26007D01*
X12985Y-26021D01*
X12957Y-26021D01*
X12914Y-26007D01*
X12885Y-25978D01*
X12871Y-25950D01*
X12857Y-25892D01*
X12857Y-25850D01*
X12871Y-25792D01*
X12885Y-25764D01*
X12914Y-25735D01*
X12957Y-25721D01*
X12985Y-25721D01*
X13028Y-25735D01*
X13042Y-25750D01*
X13171Y-26021D02*
X13171Y-25821D01*
X13171Y-25721D02*
X13157Y-25735D01*
X13171Y-25750D01*
X13185Y-25735D01*
X13171Y-25721D01*
X13171Y-25750D01*
X13314Y-25821D02*
X13314Y-26021D01*
X13314Y-25850D02*
X13328Y-25835D01*
X13357Y-25821D01*
X13400Y-25821D01*
X13428Y-25835D01*
X13442Y-25864D01*
X13442Y-26021D01*
X13742Y-26021D02*
X13571Y-26021D01*
X13657Y-26021D02*
X13657Y-25721D01*
X13628Y-25764D01*
X13600Y-25792D01*
X13571Y-25807D01*
X20192Y-27292D02*
X20178Y-27307D01*
X20135Y-27321D01*
X20107Y-27321D01*
X20064Y-27307D01*
X20035Y-27278D01*
X20021Y-27250D01*
X20007Y-27192D01*
X20007Y-27150D01*
X20021Y-27092D01*
X20035Y-27064D01*
X20064Y-27035D01*
X20107Y-27021D01*
X20135Y-27021D01*
X20178Y-27035D01*
X20192Y-27050D01*
X20364Y-27321D02*
X20335Y-27307D01*
X20321Y-27292D01*
X20307Y-27264D01*
X20307Y-27178D01*
X20321Y-27150D01*
X20335Y-27135D01*
X20364Y-27121D01*
X20407Y-27121D01*
X20435Y-27135D01*
X20450Y-27150D01*
X20464Y-27178D01*
X20464Y-27264D01*
X20450Y-27292D01*
X20435Y-27307D01*
X20407Y-27321D01*
X20364Y-27321D01*
X20721Y-27121D02*
X20721Y-27321D01*
X20592Y-27121D02*
X20592Y-27278D01*
X20607Y-27307D01*
X20635Y-27321D01*
X20678Y-27321D01*
X20707Y-27307D01*
X20721Y-27292D01*
X20821Y-27121D02*
X20935Y-27121D01*
X20864Y-27021D02*
X20864Y-27278D01*
X20878Y-27307D01*
X20907Y-27321D01*
X20935Y-27321D01*
X21192Y-27321D02*
X21021Y-27321D01*
X21107Y-27321D02*
X21107Y-27021D01*
X21078Y-27064D01*
X21050Y-27092D01*
X21021Y-27107D01*
G54D19*
X10773Y-32185D02*
X10763Y-32195D01*
X10735Y-32204D01*
X10716Y-32204D01*
X10688Y-32195D01*
X10669Y-32176D01*
X10660Y-32157D01*
X10651Y-32120D01*
X10651Y-32092D01*
X10660Y-32054D01*
X10669Y-32035D01*
X10688Y-32017D01*
X10716Y-32007D01*
X10735Y-32007D01*
X10763Y-32017D01*
X10773Y-32026D01*
X10942Y-32195D02*
X10923Y-32204D01*
X10885Y-32204D01*
X10866Y-32195D01*
X10857Y-32185D01*
X10848Y-32167D01*
X10848Y-32110D01*
X10857Y-32092D01*
X10866Y-32082D01*
X10885Y-32073D01*
X10923Y-32073D01*
X10942Y-32082D01*
X11054Y-32204D02*
X11035Y-32195D01*
X11026Y-32185D01*
X11017Y-32167D01*
X11017Y-32110D01*
X11026Y-32092D01*
X11035Y-32082D01*
X11054Y-32073D01*
X11082Y-32073D01*
X11101Y-32082D01*
X11110Y-32092D01*
X11120Y-32110D01*
X11120Y-32167D01*
X11110Y-32185D01*
X11101Y-32195D01*
X11082Y-32204D01*
X11054Y-32204D01*
X11204Y-32204D02*
X11204Y-32073D01*
X11204Y-32092D02*
X11214Y-32082D01*
X11232Y-32073D01*
X11260Y-32073D01*
X11279Y-32082D01*
X11289Y-32101D01*
X11289Y-32204D01*
X11289Y-32101D02*
X11298Y-32082D01*
X11317Y-32073D01*
X11345Y-32073D01*
X11364Y-32082D01*
X11373Y-32101D01*
X11373Y-32204D01*
X11467Y-32073D02*
X11467Y-32270D01*
X11467Y-32082D02*
X11486Y-32073D01*
X11523Y-32073D01*
X11542Y-32082D01*
X11551Y-32092D01*
X11561Y-32110D01*
X11561Y-32167D01*
X11551Y-32185D01*
X11542Y-32195D01*
X11523Y-32204D01*
X11486Y-32204D01*
X11467Y-32195D01*
X11748Y-32204D02*
X11636Y-32204D01*
X11692Y-32204D02*
X11692Y-32007D01*
X11673Y-32035D01*
X11654Y-32054D01*
X11636Y-32064D01*
X10866Y-32479D02*
X10754Y-32479D01*
X10810Y-32479D02*
X10810Y-32282D01*
X10791Y-32310D01*
X10773Y-32329D01*
X10754Y-32339D01*
X10960Y-32470D02*
X10960Y-32479D01*
X10951Y-32498D01*
X10942Y-32507D01*
X11035Y-32301D02*
X11045Y-32292D01*
X11063Y-32282D01*
X11110Y-32282D01*
X11129Y-32292D01*
X11139Y-32301D01*
X11148Y-32320D01*
X11148Y-32339D01*
X11139Y-32367D01*
X11026Y-32479D01*
X11148Y-32479D01*
X11382Y-32348D02*
X11382Y-32479D01*
X11382Y-32367D02*
X11392Y-32357D01*
X11411Y-32348D01*
X11439Y-32348D01*
X11457Y-32357D01*
X11467Y-32376D01*
X11467Y-32479D01*
X11626Y-32376D02*
X11561Y-32376D01*
X11561Y-32479D02*
X11561Y-32282D01*
X11654Y-32282D01*
X9718Y-25604D02*
X9652Y-25510D01*
X9606Y-25604D02*
X9606Y-25407D01*
X9681Y-25407D01*
X9699Y-25417D01*
X9709Y-25426D01*
X9718Y-25445D01*
X9718Y-25473D01*
X9709Y-25492D01*
X9699Y-25501D01*
X9681Y-25510D01*
X9606Y-25510D01*
X9878Y-25595D02*
X9859Y-25604D01*
X9821Y-25604D01*
X9803Y-25595D01*
X9793Y-25576D01*
X9793Y-25501D01*
X9803Y-25482D01*
X9821Y-25473D01*
X9859Y-25473D01*
X9878Y-25482D01*
X9887Y-25501D01*
X9887Y-25520D01*
X9793Y-25539D01*
X9971Y-25473D02*
X9971Y-25604D01*
X9971Y-25492D02*
X9981Y-25482D01*
X10000Y-25473D01*
X10028Y-25473D01*
X10046Y-25482D01*
X10056Y-25501D01*
X10056Y-25604D01*
X10121Y-25407D02*
X10234Y-25407D01*
X10178Y-25604D02*
X10178Y-25407D01*
X10403Y-25604D02*
X10290Y-25604D01*
X10347Y-25604D02*
X10347Y-25407D01*
X10328Y-25435D01*
X10309Y-25454D01*
X10290Y-25464D01*
X9770Y-25329D02*
X9657Y-25329D01*
X9713Y-25329D02*
X9713Y-25132D01*
X9695Y-25160D01*
X9676Y-25179D01*
X9657Y-25189D01*
X9939Y-25132D02*
X9901Y-25132D01*
X9882Y-25142D01*
X9873Y-25151D01*
X9854Y-25179D01*
X9845Y-25217D01*
X9845Y-25292D01*
X9854Y-25310D01*
X9863Y-25320D01*
X9882Y-25329D01*
X9920Y-25329D01*
X9939Y-25320D01*
X9948Y-25310D01*
X9957Y-25292D01*
X9957Y-25245D01*
X9948Y-25226D01*
X9939Y-25217D01*
X9920Y-25207D01*
X9882Y-25207D01*
X9863Y-25217D01*
X9854Y-25226D01*
X9845Y-25245D01*
X10051Y-25329D02*
X10089Y-25329D01*
X10107Y-25320D01*
X10117Y-25310D01*
X10136Y-25282D01*
X10145Y-25245D01*
X10145Y-25170D01*
X10136Y-25151D01*
X10126Y-25142D01*
X10107Y-25132D01*
X10070Y-25132D01*
X10051Y-25142D01*
X10042Y-25151D01*
X10032Y-25170D01*
X10032Y-25217D01*
X10042Y-25235D01*
X10051Y-25245D01*
X10070Y-25254D01*
X10107Y-25254D01*
X10126Y-25245D01*
X10136Y-25235D01*
X10145Y-25217D01*
X10229Y-25329D02*
X10229Y-25132D01*
X10342Y-25329D02*
X10257Y-25217D01*
X10342Y-25132D02*
X10229Y-25245D01*
X10104Y-32026D02*
X10010Y-32092D01*
X10104Y-32139D02*
X9907Y-32139D01*
X9907Y-32064D01*
X9917Y-32045D01*
X9926Y-32036D01*
X9945Y-32026D01*
X9973Y-32026D01*
X9992Y-32036D01*
X10001Y-32045D01*
X10010Y-32064D01*
X10010Y-32139D01*
X10095Y-31857D02*
X10104Y-31876D01*
X10104Y-31914D01*
X10095Y-31933D01*
X10085Y-31942D01*
X10067Y-31951D01*
X10010Y-31951D01*
X9992Y-31942D01*
X9982Y-31933D01*
X9973Y-31914D01*
X9973Y-31876D01*
X9982Y-31857D01*
X10104Y-31745D02*
X10095Y-31764D01*
X10085Y-31773D01*
X10067Y-31782D01*
X10010Y-31782D01*
X9992Y-31773D01*
X9982Y-31764D01*
X9973Y-31745D01*
X9973Y-31717D01*
X9982Y-31698D01*
X9992Y-31689D01*
X10010Y-31679D01*
X10067Y-31679D01*
X10085Y-31689D01*
X10095Y-31698D01*
X10104Y-31717D01*
X10104Y-31745D01*
X10104Y-31595D02*
X9973Y-31595D01*
X9992Y-31595D02*
X9982Y-31585D01*
X9973Y-31567D01*
X9973Y-31539D01*
X9982Y-31520D01*
X10001Y-31510D01*
X10104Y-31510D01*
X10001Y-31510D02*
X9982Y-31501D01*
X9973Y-31482D01*
X9973Y-31454D01*
X9982Y-31435D01*
X10001Y-31426D01*
X10104Y-31426D01*
X9973Y-31332D02*
X10170Y-31332D01*
X9982Y-31332D02*
X9973Y-31313D01*
X9973Y-31276D01*
X9982Y-31257D01*
X9992Y-31248D01*
X10010Y-31238D01*
X10067Y-31238D01*
X10085Y-31248D01*
X10095Y-31257D01*
X10104Y-31276D01*
X10104Y-31313D01*
X10095Y-31332D01*
X10104Y-31051D02*
X10104Y-31163D01*
X10104Y-31107D02*
X9907Y-31107D01*
X9935Y-31126D01*
X9954Y-31145D01*
X9964Y-31163D01*
X9698Y-31895D02*
X9829Y-31895D01*
X9623Y-31942D02*
X9764Y-31989D01*
X9764Y-31867D01*
X9717Y-31764D02*
X9707Y-31782D01*
X9698Y-31792D01*
X9679Y-31801D01*
X9670Y-31801D01*
X9651Y-31792D01*
X9642Y-31782D01*
X9632Y-31764D01*
X9632Y-31726D01*
X9642Y-31707D01*
X9651Y-31698D01*
X9670Y-31689D01*
X9679Y-31689D01*
X9698Y-31698D01*
X9707Y-31707D01*
X9717Y-31726D01*
X9717Y-31764D01*
X9726Y-31782D01*
X9735Y-31792D01*
X9754Y-31801D01*
X9792Y-31801D01*
X9810Y-31792D01*
X9820Y-31782D01*
X9829Y-31764D01*
X9829Y-31726D01*
X9820Y-31707D01*
X9810Y-31698D01*
X9792Y-31689D01*
X9754Y-31689D01*
X9735Y-31698D01*
X9726Y-31707D01*
X9717Y-31726D01*
X9820Y-31595D02*
X9829Y-31595D01*
X9848Y-31604D01*
X9857Y-31614D01*
X9632Y-31529D02*
X9632Y-31398D01*
X9829Y-31482D01*
X9829Y-31323D02*
X9632Y-31323D01*
X9829Y-31210D02*
X9717Y-31295D01*
X9632Y-31210D02*
X9745Y-31323D01*
X7995Y-25604D02*
X7929Y-25510D01*
X7882Y-25604D02*
X7882Y-25407D01*
X7957Y-25407D01*
X7976Y-25417D01*
X7985Y-25426D01*
X7995Y-25445D01*
X7995Y-25473D01*
X7985Y-25492D01*
X7976Y-25501D01*
X7957Y-25510D01*
X7882Y-25510D01*
X8154Y-25595D02*
X8135Y-25604D01*
X8098Y-25604D01*
X8079Y-25595D01*
X8070Y-25576D01*
X8070Y-25501D01*
X8079Y-25482D01*
X8098Y-25473D01*
X8135Y-25473D01*
X8154Y-25482D01*
X8163Y-25501D01*
X8163Y-25520D01*
X8070Y-25539D01*
X8248Y-25473D02*
X8248Y-25604D01*
X8248Y-25492D02*
X8257Y-25482D01*
X8276Y-25473D01*
X8304Y-25473D01*
X8323Y-25482D01*
X8332Y-25501D01*
X8332Y-25604D01*
X8492Y-25501D02*
X8520Y-25510D01*
X8529Y-25520D01*
X8539Y-25539D01*
X8539Y-25567D01*
X8529Y-25585D01*
X8520Y-25595D01*
X8501Y-25604D01*
X8426Y-25604D01*
X8426Y-25407D01*
X8492Y-25407D01*
X8511Y-25417D01*
X8520Y-25426D01*
X8529Y-25445D01*
X8529Y-25464D01*
X8520Y-25482D01*
X8511Y-25492D01*
X8492Y-25501D01*
X8426Y-25501D01*
X8726Y-25604D02*
X8614Y-25604D01*
X8670Y-25604D02*
X8670Y-25407D01*
X8651Y-25435D01*
X8633Y-25454D01*
X8614Y-25464D01*
X7901Y-25132D02*
X8023Y-25132D01*
X7957Y-25207D01*
X7985Y-25207D01*
X8004Y-25217D01*
X8013Y-25226D01*
X8023Y-25245D01*
X8023Y-25292D01*
X8013Y-25310D01*
X8004Y-25320D01*
X7985Y-25329D01*
X7929Y-25329D01*
X7910Y-25320D01*
X7901Y-25310D01*
X8201Y-25132D02*
X8107Y-25132D01*
X8098Y-25226D01*
X8107Y-25217D01*
X8126Y-25207D01*
X8173Y-25207D01*
X8192Y-25217D01*
X8201Y-25226D01*
X8210Y-25245D01*
X8210Y-25292D01*
X8201Y-25310D01*
X8192Y-25320D01*
X8173Y-25329D01*
X8126Y-25329D01*
X8107Y-25320D01*
X8098Y-25310D01*
X8304Y-25320D02*
X8304Y-25329D01*
X8295Y-25348D01*
X8285Y-25357D01*
X8370Y-25132D02*
X8501Y-25132D01*
X8417Y-25329D01*
X8576Y-25329D02*
X8576Y-25132D01*
X8689Y-25329D02*
X8604Y-25217D01*
X8689Y-25132D02*
X8576Y-25245D01*
X7885Y-30904D02*
X7820Y-30810D01*
X7773Y-30904D02*
X7773Y-30707D01*
X7848Y-30707D01*
X7866Y-30717D01*
X7876Y-30726D01*
X7885Y-30745D01*
X7885Y-30773D01*
X7876Y-30792D01*
X7866Y-30801D01*
X7848Y-30810D01*
X7773Y-30810D01*
X8035Y-30801D02*
X7970Y-30801D01*
X7970Y-30904D02*
X7970Y-30707D01*
X8063Y-30707D01*
X8204Y-30801D02*
X8232Y-30810D01*
X8242Y-30820D01*
X8251Y-30839D01*
X8251Y-30867D01*
X8242Y-30885D01*
X8232Y-30895D01*
X8214Y-30904D01*
X8139Y-30904D01*
X8139Y-30707D01*
X8204Y-30707D01*
X8223Y-30717D01*
X8232Y-30726D01*
X8242Y-30745D01*
X8242Y-30764D01*
X8232Y-30782D01*
X8223Y-30792D01*
X8204Y-30801D01*
X8139Y-30801D01*
X8401Y-30801D02*
X8429Y-30810D01*
X8439Y-30820D01*
X8448Y-30839D01*
X8448Y-30867D01*
X8439Y-30885D01*
X8429Y-30895D01*
X8411Y-30904D01*
X8336Y-30904D01*
X8336Y-30707D01*
X8401Y-30707D01*
X8420Y-30717D01*
X8429Y-30726D01*
X8439Y-30745D01*
X8439Y-30764D01*
X8429Y-30782D01*
X8420Y-30792D01*
X8401Y-30801D01*
X8336Y-30801D01*
X8636Y-30904D02*
X8523Y-30904D01*
X8579Y-30904D02*
X8579Y-30707D01*
X8561Y-30735D01*
X8542Y-30754D01*
X8523Y-30764D01*
X7923Y-30629D02*
X7810Y-30629D01*
X7866Y-30629D02*
X7866Y-30432D01*
X7848Y-30460D01*
X7829Y-30479D01*
X7810Y-30489D01*
X8007Y-30610D02*
X8017Y-30620D01*
X8007Y-30629D01*
X7998Y-30620D01*
X8007Y-30610D01*
X8007Y-30629D01*
X8110Y-30629D02*
X8148Y-30629D01*
X8167Y-30620D01*
X8176Y-30610D01*
X8195Y-30582D01*
X8204Y-30545D01*
X8204Y-30470D01*
X8195Y-30451D01*
X8185Y-30442D01*
X8167Y-30432D01*
X8129Y-30432D01*
X8110Y-30442D01*
X8101Y-30451D01*
X8092Y-30470D01*
X8092Y-30517D01*
X8101Y-30535D01*
X8110Y-30545D01*
X8129Y-30554D01*
X8167Y-30554D01*
X8185Y-30545D01*
X8195Y-30535D01*
X8204Y-30517D01*
X8373Y-30432D02*
X8336Y-30432D01*
X8317Y-30442D01*
X8307Y-30451D01*
X8289Y-30479D01*
X8279Y-30517D01*
X8279Y-30592D01*
X8289Y-30610D01*
X8298Y-30620D01*
X8317Y-30629D01*
X8354Y-30629D01*
X8373Y-30620D01*
X8382Y-30610D01*
X8392Y-30592D01*
X8392Y-30545D01*
X8382Y-30526D01*
X8373Y-30517D01*
X8354Y-30507D01*
X8317Y-30507D01*
X8298Y-30517D01*
X8289Y-30526D01*
X8279Y-30545D01*
X8476Y-30629D02*
X8476Y-30432D01*
X8589Y-30629D02*
X8504Y-30517D01*
X8589Y-30432D02*
X8476Y-30545D01*
X8454Y-32490D02*
X8360Y-32556D01*
X8454Y-32603D02*
X8257Y-32603D01*
X8257Y-32528D01*
X8267Y-32509D01*
X8276Y-32500D01*
X8295Y-32490D01*
X8323Y-32490D01*
X8342Y-32500D01*
X8351Y-32509D01*
X8360Y-32528D01*
X8360Y-32603D01*
X8351Y-32340D02*
X8351Y-32406D01*
X8454Y-32406D02*
X8257Y-32406D01*
X8257Y-32312D01*
X8351Y-32171D02*
X8360Y-32143D01*
X8370Y-32134D01*
X8389Y-32124D01*
X8417Y-32124D01*
X8435Y-32134D01*
X8445Y-32143D01*
X8454Y-32162D01*
X8454Y-32237D01*
X8257Y-32237D01*
X8257Y-32171D01*
X8267Y-32153D01*
X8276Y-32143D01*
X8295Y-32134D01*
X8314Y-32134D01*
X8332Y-32143D01*
X8342Y-32153D01*
X8351Y-32171D01*
X8351Y-32237D01*
X8257Y-32068D02*
X8257Y-31956D01*
X8454Y-32012D02*
X8257Y-32012D01*
X8454Y-31787D02*
X8454Y-31899D01*
X8454Y-31843D02*
X8257Y-31843D01*
X8285Y-31862D01*
X8304Y-31881D01*
X8314Y-31899D01*
X8729Y-32476D02*
X8729Y-32589D01*
X8729Y-32533D02*
X8532Y-32533D01*
X8560Y-32551D01*
X8579Y-32570D01*
X8589Y-32589D01*
X8532Y-32354D02*
X8532Y-32336D01*
X8542Y-32317D01*
X8551Y-32307D01*
X8570Y-32298D01*
X8607Y-32289D01*
X8654Y-32289D01*
X8692Y-32298D01*
X8710Y-32307D01*
X8720Y-32317D01*
X8729Y-32336D01*
X8729Y-32354D01*
X8720Y-32373D01*
X8710Y-32382D01*
X8692Y-32392D01*
X8654Y-32401D01*
X8607Y-32401D01*
X8570Y-32392D01*
X8551Y-32382D01*
X8542Y-32373D01*
X8532Y-32354D01*
X8710Y-32204D02*
X8720Y-32195D01*
X8729Y-32204D01*
X8720Y-32214D01*
X8710Y-32204D01*
X8729Y-32204D01*
X8551Y-32120D02*
X8542Y-32110D01*
X8532Y-32092D01*
X8532Y-32045D01*
X8542Y-32026D01*
X8551Y-32017D01*
X8570Y-32007D01*
X8589Y-32007D01*
X8617Y-32017D01*
X8729Y-32129D01*
X8729Y-32007D01*
X8729Y-31923D02*
X8532Y-31923D01*
X8729Y-31810D02*
X8617Y-31895D01*
X8532Y-31810D02*
X8645Y-31923D01*
X20310Y-21785D02*
X20301Y-21795D01*
X20273Y-21804D01*
X20254Y-21804D01*
X20226Y-21795D01*
X20207Y-21776D01*
X20198Y-21757D01*
X20188Y-21720D01*
X20188Y-21692D01*
X20198Y-21654D01*
X20207Y-21635D01*
X20226Y-21617D01*
X20254Y-21607D01*
X20273Y-21607D01*
X20301Y-21617D01*
X20310Y-21626D01*
X20366Y-21673D02*
X20442Y-21673D01*
X20395Y-21804D02*
X20395Y-21635D01*
X20404Y-21617D01*
X20423Y-21607D01*
X20442Y-21607D01*
X20507Y-21804D02*
X20507Y-21673D01*
X20507Y-21607D02*
X20498Y-21617D01*
X20507Y-21626D01*
X20517Y-21617D01*
X20507Y-21607D01*
X20507Y-21626D01*
X20629Y-21804D02*
X20610Y-21795D01*
X20601Y-21776D01*
X20601Y-21607D01*
X20676Y-21673D02*
X20751Y-21673D01*
X20704Y-21607D02*
X20704Y-21776D01*
X20714Y-21795D01*
X20732Y-21804D01*
X20751Y-21804D01*
X20892Y-21795D02*
X20873Y-21804D01*
X20836Y-21804D01*
X20817Y-21795D01*
X20807Y-21776D01*
X20807Y-21701D01*
X20817Y-21682D01*
X20836Y-21673D01*
X20873Y-21673D01*
X20892Y-21682D01*
X20901Y-21701D01*
X20901Y-21720D01*
X20807Y-21739D01*
X20986Y-21804D02*
X20986Y-21673D01*
X20986Y-21710D02*
X20995Y-21692D01*
X21004Y-21682D01*
X21023Y-21673D01*
X21042Y-21673D01*
X21211Y-21804D02*
X21098Y-21804D01*
X21154Y-21804D02*
X21154Y-21607D01*
X21136Y-21635D01*
X21117Y-21654D01*
X21098Y-21664D01*
X20329Y-21351D02*
X20338Y-21342D01*
X20357Y-21332D01*
X20404Y-21332D01*
X20423Y-21342D01*
X20432Y-21351D01*
X20442Y-21370D01*
X20442Y-21389D01*
X20432Y-21417D01*
X20320Y-21529D01*
X20442Y-21529D01*
X20526Y-21510D02*
X20535Y-21520D01*
X20526Y-21529D01*
X20517Y-21520D01*
X20526Y-21510D01*
X20526Y-21529D01*
X20610Y-21351D02*
X20620Y-21342D01*
X20639Y-21332D01*
X20685Y-21332D01*
X20704Y-21342D01*
X20714Y-21351D01*
X20723Y-21370D01*
X20723Y-21389D01*
X20714Y-21417D01*
X20601Y-21529D01*
X20723Y-21529D01*
X20892Y-21398D02*
X20892Y-21529D01*
X20807Y-21398D02*
X20807Y-21501D01*
X20817Y-21520D01*
X20836Y-21529D01*
X20864Y-21529D01*
X20882Y-21520D01*
X20892Y-21510D01*
X21051Y-21426D02*
X20986Y-21426D01*
X20986Y-21529D02*
X20986Y-21332D01*
X21079Y-21332D01*
X8107Y-27385D02*
X8098Y-27395D01*
X8070Y-27404D01*
X8051Y-27404D01*
X8023Y-27395D01*
X8004Y-27376D01*
X7995Y-27357D01*
X7985Y-27320D01*
X7985Y-27292D01*
X7995Y-27254D01*
X8004Y-27235D01*
X8023Y-27217D01*
X8051Y-27207D01*
X8070Y-27207D01*
X8098Y-27217D01*
X8107Y-27226D01*
X8182Y-27395D02*
X8201Y-27404D01*
X8239Y-27404D01*
X8257Y-27395D01*
X8267Y-27376D01*
X8267Y-27367D01*
X8257Y-27348D01*
X8239Y-27339D01*
X8210Y-27339D01*
X8192Y-27329D01*
X8182Y-27310D01*
X8182Y-27301D01*
X8192Y-27282D01*
X8210Y-27273D01*
X8239Y-27273D01*
X8257Y-27282D01*
X8342Y-27395D02*
X8360Y-27404D01*
X8398Y-27404D01*
X8417Y-27395D01*
X8426Y-27376D01*
X8426Y-27367D01*
X8417Y-27348D01*
X8398Y-27339D01*
X8370Y-27339D01*
X8351Y-27329D01*
X8342Y-27310D01*
X8342Y-27301D01*
X8351Y-27282D01*
X8370Y-27273D01*
X8398Y-27273D01*
X8417Y-27282D01*
X8614Y-27404D02*
X8501Y-27404D01*
X8557Y-27404D02*
X8557Y-27207D01*
X8539Y-27235D01*
X8520Y-27254D01*
X8501Y-27264D01*
X7966Y-27017D02*
X7948Y-27007D01*
X7938Y-26998D01*
X7929Y-26979D01*
X7929Y-26970D01*
X7938Y-26951D01*
X7948Y-26942D01*
X7966Y-26932D01*
X8004Y-26932D01*
X8023Y-26942D01*
X8032Y-26951D01*
X8042Y-26970D01*
X8042Y-26979D01*
X8032Y-26998D01*
X8023Y-27007D01*
X8004Y-27017D01*
X7966Y-27017D01*
X7948Y-27026D01*
X7938Y-27035D01*
X7929Y-27054D01*
X7929Y-27092D01*
X7938Y-27110D01*
X7948Y-27120D01*
X7966Y-27129D01*
X8004Y-27129D01*
X8023Y-27120D01*
X8032Y-27110D01*
X8042Y-27092D01*
X8042Y-27054D01*
X8032Y-27035D01*
X8023Y-27026D01*
X8004Y-27017D01*
X8126Y-27110D02*
X8135Y-27120D01*
X8126Y-27129D01*
X8117Y-27120D01*
X8126Y-27110D01*
X8126Y-27129D01*
X8210Y-26951D02*
X8220Y-26942D01*
X8239Y-26932D01*
X8285Y-26932D01*
X8304Y-26942D01*
X8314Y-26951D01*
X8323Y-26970D01*
X8323Y-26989D01*
X8314Y-27017D01*
X8201Y-27129D01*
X8323Y-27129D01*
X8407Y-26998D02*
X8407Y-27129D01*
X8407Y-27017D02*
X8417Y-27007D01*
X8436Y-26998D01*
X8464Y-26998D01*
X8482Y-27007D01*
X8492Y-27026D01*
X8492Y-27129D01*
X8651Y-27026D02*
X8586Y-27026D01*
X8586Y-27129D02*
X8586Y-26932D01*
X8679Y-26932D01*
X10773Y-31035D02*
X10763Y-31045D01*
X10735Y-31054D01*
X10716Y-31054D01*
X10688Y-31045D01*
X10669Y-31026D01*
X10660Y-31007D01*
X10651Y-30970D01*
X10651Y-30942D01*
X10660Y-30904D01*
X10669Y-30885D01*
X10688Y-30867D01*
X10716Y-30857D01*
X10735Y-30857D01*
X10763Y-30867D01*
X10773Y-30876D01*
X10942Y-31045D02*
X10923Y-31054D01*
X10885Y-31054D01*
X10866Y-31045D01*
X10857Y-31035D01*
X10848Y-31017D01*
X10848Y-30960D01*
X10857Y-30942D01*
X10866Y-30932D01*
X10885Y-30923D01*
X10923Y-30923D01*
X10942Y-30932D01*
X11054Y-31054D02*
X11035Y-31045D01*
X11026Y-31035D01*
X11017Y-31017D01*
X11017Y-30960D01*
X11026Y-30942D01*
X11035Y-30932D01*
X11054Y-30923D01*
X11082Y-30923D01*
X11101Y-30932D01*
X11110Y-30942D01*
X11120Y-30960D01*
X11120Y-31017D01*
X11110Y-31035D01*
X11101Y-31045D01*
X11082Y-31054D01*
X11054Y-31054D01*
X11204Y-31054D02*
X11204Y-30923D01*
X11204Y-30942D02*
X11214Y-30932D01*
X11232Y-30923D01*
X11260Y-30923D01*
X11279Y-30932D01*
X11289Y-30951D01*
X11289Y-31054D01*
X11289Y-30951D02*
X11298Y-30932D01*
X11317Y-30923D01*
X11345Y-30923D01*
X11364Y-30932D01*
X11373Y-30951D01*
X11373Y-31054D01*
X11467Y-30923D02*
X11467Y-31120D01*
X11467Y-30932D02*
X11486Y-30923D01*
X11523Y-30923D01*
X11542Y-30932D01*
X11551Y-30942D01*
X11561Y-30960D01*
X11561Y-31017D01*
X11551Y-31035D01*
X11542Y-31045D01*
X11523Y-31054D01*
X11486Y-31054D01*
X11467Y-31045D01*
X11636Y-30876D02*
X11645Y-30867D01*
X11664Y-30857D01*
X11711Y-30857D01*
X11730Y-30867D01*
X11739Y-30876D01*
X11748Y-30895D01*
X11748Y-30914D01*
X11739Y-30942D01*
X11626Y-31054D01*
X11748Y-31054D01*
X10876Y-31151D02*
X10885Y-31142D01*
X10904Y-31132D01*
X10951Y-31132D01*
X10970Y-31142D01*
X10979Y-31151D01*
X10988Y-31170D01*
X10988Y-31189D01*
X10979Y-31217D01*
X10866Y-31329D01*
X10988Y-31329D01*
X11063Y-31151D02*
X11073Y-31142D01*
X11092Y-31132D01*
X11139Y-31132D01*
X11157Y-31142D01*
X11167Y-31151D01*
X11176Y-31170D01*
X11176Y-31189D01*
X11167Y-31217D01*
X11054Y-31329D01*
X11176Y-31329D01*
X11260Y-31198D02*
X11260Y-31395D01*
X11260Y-31207D02*
X11279Y-31198D01*
X11317Y-31198D01*
X11336Y-31207D01*
X11345Y-31217D01*
X11354Y-31235D01*
X11354Y-31292D01*
X11345Y-31310D01*
X11336Y-31320D01*
X11317Y-31329D01*
X11279Y-31329D01*
X11260Y-31320D01*
X11504Y-31226D02*
X11439Y-31226D01*
X11439Y-31329D02*
X11439Y-31132D01*
X11533Y-31132D01*
X12685Y-32356D02*
X12695Y-32365D01*
X12704Y-32394D01*
X12704Y-32412D01*
X12695Y-32440D01*
X12676Y-32459D01*
X12657Y-32469D01*
X12620Y-32478D01*
X12592Y-32478D01*
X12554Y-32469D01*
X12535Y-32459D01*
X12517Y-32440D01*
X12507Y-32412D01*
X12507Y-32394D01*
X12517Y-32365D01*
X12526Y-32356D01*
X12704Y-32272D02*
X12507Y-32272D01*
X12582Y-32272D02*
X12573Y-32253D01*
X12573Y-32215D01*
X12582Y-32197D01*
X12592Y-32187D01*
X12610Y-32178D01*
X12667Y-32178D01*
X12685Y-32187D01*
X12695Y-32197D01*
X12704Y-32215D01*
X12704Y-32253D01*
X12695Y-32272D01*
X12704Y-32065D02*
X12695Y-32084D01*
X12685Y-32093D01*
X12667Y-32103D01*
X12610Y-32103D01*
X12592Y-32093D01*
X12582Y-32084D01*
X12573Y-32065D01*
X12573Y-32037D01*
X12582Y-32018D01*
X12592Y-32009D01*
X12610Y-32000D01*
X12667Y-32000D01*
X12685Y-32009D01*
X12695Y-32018D01*
X12704Y-32037D01*
X12704Y-32065D01*
X12704Y-31887D02*
X12695Y-31906D01*
X12685Y-31915D01*
X12667Y-31924D01*
X12610Y-31924D01*
X12592Y-31915D01*
X12582Y-31906D01*
X12573Y-31887D01*
X12573Y-31859D01*
X12582Y-31840D01*
X12592Y-31831D01*
X12610Y-31821D01*
X12667Y-31821D01*
X12685Y-31831D01*
X12695Y-31840D01*
X12704Y-31859D01*
X12704Y-31887D01*
X12573Y-31765D02*
X12573Y-31690D01*
X12507Y-31737D02*
X12676Y-31737D01*
X12695Y-31727D01*
X12704Y-31709D01*
X12704Y-31690D01*
X12704Y-31521D02*
X12704Y-31634D01*
X12704Y-31577D02*
X12507Y-31577D01*
X12535Y-31596D01*
X12554Y-31615D01*
X12564Y-31634D01*
X12979Y-32304D02*
X12979Y-32417D01*
X12979Y-32361D02*
X12782Y-32361D01*
X12810Y-32379D01*
X12829Y-32398D01*
X12839Y-32417D01*
X12782Y-32182D02*
X12782Y-32164D01*
X12792Y-32145D01*
X12801Y-32136D01*
X12820Y-32126D01*
X12857Y-32117D01*
X12904Y-32117D01*
X12942Y-32126D01*
X12960Y-32136D01*
X12970Y-32145D01*
X12979Y-32164D01*
X12979Y-32182D01*
X12970Y-32201D01*
X12960Y-32211D01*
X12942Y-32220D01*
X12904Y-32229D01*
X12857Y-32229D01*
X12820Y-32220D01*
X12801Y-32211D01*
X12792Y-32201D01*
X12782Y-32182D01*
X12782Y-31995D02*
X12782Y-31976D01*
X12792Y-31957D01*
X12801Y-31948D01*
X12820Y-31939D01*
X12857Y-31929D01*
X12904Y-31929D01*
X12942Y-31939D01*
X12960Y-31948D01*
X12970Y-31957D01*
X12979Y-31976D01*
X12979Y-31995D01*
X12970Y-32014D01*
X12960Y-32023D01*
X12942Y-32032D01*
X12904Y-32042D01*
X12857Y-32042D01*
X12820Y-32032D01*
X12801Y-32023D01*
X12792Y-32014D01*
X12782Y-31995D01*
X12848Y-31845D02*
X12979Y-31845D01*
X12867Y-31845D02*
X12857Y-31835D01*
X12848Y-31817D01*
X12848Y-31788D01*
X12857Y-31770D01*
X12876Y-31760D01*
X12979Y-31760D01*
X12876Y-31601D02*
X12876Y-31666D01*
X12979Y-31666D02*
X12782Y-31666D01*
X12782Y-31573D01*
G54D18*
X19000Y-27742D02*
X18714Y-27742D01*
X18714Y-27142D01*
X19514Y-27742D02*
X19171Y-27742D01*
X19342Y-27742D02*
X19342Y-27142D01*
X19285Y-27228D01*
X19228Y-27285D01*
X19171Y-27314D01*
X16914Y-33242D02*
X16571Y-33242D01*
X16742Y-33242D02*
X16742Y-32642D01*
X16685Y-32728D01*
X16628Y-32785D01*
X16571Y-32814D01*
X17457Y-32642D02*
X17171Y-32642D01*
X17142Y-32928D01*
X17171Y-32900D01*
X17228Y-32871D01*
X17371Y-32871D01*
X17428Y-32900D01*
X17457Y-32928D01*
X17485Y-32985D01*
X17485Y-33128D01*
X17457Y-33185D01*
X17428Y-33214D01*
X17371Y-33242D01*
X17228Y-33242D01*
X17171Y-33214D01*
X17142Y-33185D01*
X18457Y-32842D02*
X18457Y-33242D01*
X18200Y-32842D02*
X18200Y-33157D01*
X18228Y-33214D01*
X18285Y-33242D01*
X18371Y-33242D01*
X18428Y-33214D01*
X18457Y-33185D01*
X18742Y-33242D02*
X18742Y-32642D01*
X18742Y-32928D02*
X19085Y-32928D01*
X19085Y-33242D02*
X19085Y-32642D01*
X19942Y-32642D02*
X20000Y-32642D01*
X20057Y-32671D01*
X20085Y-32700D01*
X20114Y-32757D01*
X20142Y-32871D01*
X20142Y-33014D01*
X20114Y-33128D01*
X20085Y-33185D01*
X20057Y-33214D01*
X20000Y-33242D01*
X19942Y-33242D01*
X19885Y-33214D01*
X19857Y-33185D01*
X19828Y-33128D01*
X19800Y-33014D01*
X19800Y-32871D01*
X19828Y-32757D01*
X19857Y-32700D01*
X19885Y-32671D01*
X19942Y-32642D01*
X20400Y-33185D02*
X20428Y-33214D01*
X20400Y-33242D01*
X20371Y-33214D01*
X20400Y-33185D01*
X20400Y-33242D01*
X20800Y-32642D02*
X20857Y-32642D01*
X20914Y-32671D01*
X20942Y-32700D01*
X20971Y-32757D01*
X21000Y-32871D01*
X21000Y-33014D01*
X20971Y-33128D01*
X20942Y-33185D01*
X20914Y-33214D01*
X20857Y-33242D01*
X20800Y-33242D01*
X20742Y-33214D01*
X20714Y-33185D01*
X20685Y-33128D01*
X20657Y-33014D01*
X20657Y-32871D01*
X20685Y-32757D01*
X20714Y-32700D01*
X20742Y-32671D01*
X20800Y-32642D01*
X21342Y-32900D02*
X21285Y-32871D01*
X21257Y-32842D01*
X21228Y-32785D01*
X21228Y-32757D01*
X21257Y-32700D01*
X21285Y-32671D01*
X21342Y-32642D01*
X21457Y-32642D01*
X21514Y-32671D01*
X21542Y-32700D01*
X21571Y-32757D01*
X21571Y-32785D01*
X21542Y-32842D01*
X21514Y-32871D01*
X21457Y-32900D01*
X21342Y-32900D01*
X21285Y-32928D01*
X21257Y-32957D01*
X21228Y-33014D01*
X21228Y-33128D01*
X21257Y-33185D01*
X21285Y-33214D01*
X21342Y-33242D01*
X21457Y-33242D01*
X21514Y-33214D01*
X21542Y-33185D01*
X21571Y-33128D01*
X21571Y-33014D01*
X21542Y-32957D01*
X21514Y-32928D01*
X21457Y-32900D01*
X22628Y-33242D02*
X22428Y-32957D01*
X22285Y-33242D02*
X22285Y-32642D01*
X22514Y-32642D01*
X22571Y-32671D01*
X22600Y-32700D01*
X22628Y-32757D01*
X22628Y-32842D01*
X22600Y-32900D01*
X22571Y-32928D01*
X22514Y-32957D01*
X22285Y-32957D01*
X20042Y-23700D02*
X20042Y-23985D01*
X19442Y-23985D01*
X19500Y-23528D02*
X19471Y-23500D01*
X19442Y-23442D01*
X19442Y-23300D01*
X19471Y-23242D01*
X19500Y-23214D01*
X19557Y-23185D01*
X19614Y-23185D01*
X19700Y-23214D01*
X20042Y-23557D01*
X20042Y-23185D01*
X27042Y-24585D02*
X27042Y-24928D01*
X27042Y-24757D02*
X26442Y-24757D01*
X26528Y-24814D01*
X26585Y-24871D01*
X26614Y-24928D01*
X26442Y-24214D02*
X26442Y-24157D01*
X26471Y-24099D01*
X26500Y-24071D01*
X26557Y-24042D01*
X26671Y-24014D01*
X26814Y-24014D01*
X26928Y-24042D01*
X26985Y-24071D01*
X27014Y-24099D01*
X27042Y-24157D01*
X27042Y-24214D01*
X27014Y-24271D01*
X26985Y-24299D01*
X26928Y-24328D01*
X26814Y-24357D01*
X26671Y-24357D01*
X26557Y-24328D01*
X26500Y-24299D01*
X26471Y-24271D01*
X26442Y-24214D01*
X26442Y-23642D02*
X26442Y-23585D01*
X26471Y-23528D01*
X26500Y-23499D01*
X26557Y-23471D01*
X26671Y-23442D01*
X26814Y-23442D01*
X26928Y-23471D01*
X26985Y-23499D01*
X27014Y-23528D01*
X27042Y-23585D01*
X27042Y-23642D01*
X27014Y-23699D01*
X26985Y-23728D01*
X26928Y-23757D01*
X26814Y-23785D01*
X26671Y-23785D01*
X26557Y-23757D01*
X26500Y-23728D01*
X26471Y-23699D01*
X26442Y-23642D01*
X26642Y-23185D02*
X27042Y-23185D01*
X26700Y-23185D02*
X26671Y-23157D01*
X26642Y-23099D01*
X26642Y-23014D01*
X26671Y-22957D01*
X26728Y-22928D01*
X27042Y-22928D01*
X27042Y-22642D02*
X26442Y-22642D01*
X26728Y-22642D02*
X26728Y-22299D01*
X27042Y-22299D02*
X26442Y-22299D01*
G54D14*
X12651Y-28881D02*
X13015Y-28881D01*
X13058Y-28860D01*
X13079Y-28839D01*
X13101Y-28796D01*
X13101Y-28710D01*
X13079Y-28667D01*
X13058Y-28646D01*
X13015Y-28624D01*
X12651Y-28624D01*
X13101Y-28174D02*
X13101Y-28431D01*
X13101Y-28303D02*
X12651Y-28303D01*
X12715Y-28346D01*
X12758Y-28389D01*
X12779Y-28431D01*
X10013Y-30125D02*
X10013Y-29925D01*
X10363Y-30025D02*
X10013Y-30025D01*
X10363Y-29808D02*
X10013Y-29808D01*
X10013Y-29675D01*
X10030Y-29641D01*
X10047Y-29625D01*
X10080Y-29608D01*
X10130Y-29608D01*
X10163Y-29625D01*
X10180Y-29641D01*
X10197Y-29675D01*
X10197Y-29808D01*
X10347Y-29475D02*
X10363Y-29425D01*
X10363Y-29341D01*
X10347Y-29308D01*
X10330Y-29291D01*
X10297Y-29275D01*
X10263Y-29275D01*
X10230Y-29291D01*
X10213Y-29308D01*
X10197Y-29341D01*
X10180Y-29408D01*
X10163Y-29441D01*
X10147Y-29458D01*
X10113Y-29475D01*
X10080Y-29475D01*
X10047Y-29458D01*
X10030Y-29441D01*
X10013Y-29408D01*
X10013Y-29325D01*
X10030Y-29275D01*
X10013Y-28958D02*
X10013Y-29125D01*
X10180Y-29141D01*
X10163Y-29125D01*
X10147Y-29091D01*
X10147Y-29008D01*
X10163Y-28975D01*
X10180Y-28958D01*
X10213Y-28941D01*
X10297Y-28941D01*
X10330Y-28958D01*
X10347Y-28975D01*
X10363Y-29008D01*
X10363Y-29091D01*
X10347Y-29125D01*
X10330Y-29141D01*
X10130Y-28641D02*
X10363Y-28641D01*
X9997Y-28725D02*
X10247Y-28808D01*
X10247Y-28591D01*
X10013Y-28491D02*
X10013Y-28275D01*
X10147Y-28391D01*
X10147Y-28341D01*
X10163Y-28308D01*
X10180Y-28291D01*
X10213Y-28275D01*
X10297Y-28275D01*
X10330Y-28291D01*
X10347Y-28308D01*
X10363Y-28341D01*
X10363Y-28441D01*
X10347Y-28475D01*
X10330Y-28491D01*
X10047Y-28141D02*
X10030Y-28124D01*
X10013Y-28091D01*
X10013Y-28008D01*
X10030Y-27974D01*
X10047Y-27958D01*
X10080Y-27941D01*
X10113Y-27941D01*
X10163Y-27958D01*
X10363Y-28158D01*
X10363Y-27941D01*
X10363Y-27608D02*
X10363Y-27808D01*
X10363Y-27708D02*
X10013Y-27708D01*
X10063Y-27741D01*
X10097Y-27774D01*
X10113Y-27808D01*
X10363Y-27458D02*
X10013Y-27458D01*
X10013Y-27374D01*
X10030Y-27324D01*
X10063Y-27291D01*
X10097Y-27274D01*
X10163Y-27258D01*
X10213Y-27258D01*
X10280Y-27274D01*
X10313Y-27291D01*
X10347Y-27324D01*
X10363Y-27374D01*
X10363Y-27458D01*
X10363Y-26908D02*
X10197Y-27024D01*
X10363Y-27108D02*
X10013Y-27108D01*
X10013Y-26974D01*
X10030Y-26941D01*
X10047Y-26924D01*
X10080Y-26908D01*
X10130Y-26908D01*
X10163Y-26924D01*
X10180Y-26941D01*
X10197Y-26974D01*
X10197Y-27108D01*
G54D19*
X25573Y-36554D02*
X25507Y-36460D01*
X25460Y-36554D02*
X25460Y-36357D01*
X25535Y-36357D01*
X25554Y-36367D01*
X25563Y-36376D01*
X25573Y-36395D01*
X25573Y-36423D01*
X25563Y-36442D01*
X25554Y-36451D01*
X25535Y-36460D01*
X25460Y-36460D01*
X25760Y-36554D02*
X25648Y-36554D01*
X25704Y-36554D02*
X25704Y-36357D01*
X25685Y-36385D01*
X25667Y-36404D01*
X25648Y-36414D01*
X25929Y-36423D02*
X25929Y-36554D01*
X25882Y-36348D02*
X25836Y-36489D01*
X25957Y-36489D01*
X25563Y-36829D02*
X25451Y-36829D01*
X25507Y-36829D02*
X25507Y-36632D01*
X25488Y-36660D01*
X25470Y-36679D01*
X25451Y-36689D01*
X25685Y-36632D02*
X25704Y-36632D01*
X25723Y-36642D01*
X25732Y-36651D01*
X25742Y-36670D01*
X25751Y-36707D01*
X25751Y-36754D01*
X25742Y-36792D01*
X25732Y-36810D01*
X25723Y-36820D01*
X25704Y-36829D01*
X25685Y-36829D01*
X25667Y-36820D01*
X25657Y-36810D01*
X25648Y-36792D01*
X25639Y-36754D01*
X25639Y-36707D01*
X25648Y-36670D01*
X25657Y-36651D01*
X25667Y-36642D01*
X25685Y-36632D01*
X25836Y-36829D02*
X25836Y-36632D01*
X25948Y-36829D02*
X25864Y-36717D01*
X25948Y-36632D02*
X25836Y-36745D01*
X23567Y-36554D02*
X23501Y-36460D01*
X23454Y-36554D02*
X23454Y-36357D01*
X23529Y-36357D01*
X23548Y-36367D01*
X23557Y-36376D01*
X23567Y-36395D01*
X23567Y-36423D01*
X23557Y-36442D01*
X23548Y-36451D01*
X23529Y-36460D01*
X23454Y-36460D01*
X23660Y-36554D02*
X23698Y-36554D01*
X23717Y-36545D01*
X23726Y-36535D01*
X23745Y-36507D01*
X23754Y-36470D01*
X23754Y-36395D01*
X23745Y-36376D01*
X23736Y-36367D01*
X23717Y-36357D01*
X23679Y-36357D01*
X23660Y-36367D01*
X23651Y-36376D01*
X23642Y-36395D01*
X23642Y-36442D01*
X23651Y-36460D01*
X23660Y-36470D01*
X23679Y-36479D01*
X23717Y-36479D01*
X23736Y-36470D01*
X23745Y-36460D01*
X23754Y-36442D01*
X23463Y-36829D02*
X23351Y-36829D01*
X23407Y-36829D02*
X23407Y-36632D01*
X23388Y-36660D01*
X23370Y-36679D01*
X23351Y-36689D01*
X23585Y-36632D02*
X23604Y-36632D01*
X23623Y-36642D01*
X23632Y-36651D01*
X23642Y-36670D01*
X23651Y-36707D01*
X23651Y-36754D01*
X23642Y-36792D01*
X23632Y-36810D01*
X23623Y-36820D01*
X23604Y-36829D01*
X23585Y-36829D01*
X23567Y-36820D01*
X23557Y-36810D01*
X23548Y-36792D01*
X23539Y-36754D01*
X23539Y-36707D01*
X23548Y-36670D01*
X23557Y-36651D01*
X23567Y-36642D01*
X23585Y-36632D01*
X23736Y-36829D02*
X23736Y-36632D01*
X23848Y-36829D02*
X23764Y-36717D01*
X23848Y-36632D02*
X23736Y-36745D01*
X22667Y-37854D02*
X22601Y-37760D01*
X22554Y-37854D02*
X22554Y-37657D01*
X22629Y-37657D01*
X22648Y-37667D01*
X22657Y-37676D01*
X22667Y-37695D01*
X22667Y-37723D01*
X22657Y-37742D01*
X22648Y-37751D01*
X22629Y-37760D01*
X22554Y-37760D01*
X22732Y-37657D02*
X22864Y-37657D01*
X22779Y-37854D01*
X22563Y-38129D02*
X22451Y-38129D01*
X22507Y-38129D02*
X22507Y-37932D01*
X22488Y-37960D01*
X22470Y-37979D01*
X22451Y-37989D01*
X22685Y-37932D02*
X22704Y-37932D01*
X22723Y-37942D01*
X22732Y-37951D01*
X22742Y-37970D01*
X22751Y-38007D01*
X22751Y-38054D01*
X22742Y-38092D01*
X22732Y-38110D01*
X22723Y-38120D01*
X22704Y-38129D01*
X22685Y-38129D01*
X22667Y-38120D01*
X22657Y-38110D01*
X22648Y-38092D01*
X22639Y-38054D01*
X22639Y-38007D01*
X22648Y-37970D01*
X22657Y-37951D01*
X22667Y-37942D01*
X22685Y-37932D01*
X22836Y-38129D02*
X22836Y-37932D01*
X22948Y-38129D02*
X22864Y-38017D01*
X22948Y-37932D02*
X22836Y-38045D01*
X21567Y-36554D02*
X21501Y-36460D01*
X21454Y-36554D02*
X21454Y-36357D01*
X21529Y-36357D01*
X21548Y-36367D01*
X21557Y-36376D01*
X21567Y-36395D01*
X21567Y-36423D01*
X21557Y-36442D01*
X21548Y-36451D01*
X21529Y-36460D01*
X21454Y-36460D01*
X21736Y-36423D02*
X21736Y-36554D01*
X21689Y-36348D02*
X21642Y-36489D01*
X21764Y-36489D01*
X21463Y-36829D02*
X21351Y-36829D01*
X21407Y-36829D02*
X21407Y-36632D01*
X21388Y-36660D01*
X21370Y-36679D01*
X21351Y-36689D01*
X21585Y-36632D02*
X21604Y-36632D01*
X21623Y-36642D01*
X21632Y-36651D01*
X21642Y-36670D01*
X21651Y-36707D01*
X21651Y-36754D01*
X21642Y-36792D01*
X21632Y-36810D01*
X21623Y-36820D01*
X21604Y-36829D01*
X21585Y-36829D01*
X21567Y-36820D01*
X21557Y-36810D01*
X21548Y-36792D01*
X21539Y-36754D01*
X21539Y-36707D01*
X21548Y-36670D01*
X21557Y-36651D01*
X21567Y-36642D01*
X21585Y-36632D01*
X21736Y-36829D02*
X21736Y-36632D01*
X21848Y-36829D02*
X21764Y-36717D01*
X21848Y-36632D02*
X21736Y-36745D01*
X20667Y-37854D02*
X20601Y-37760D01*
X20554Y-37854D02*
X20554Y-37657D01*
X20629Y-37657D01*
X20648Y-37667D01*
X20657Y-37676D01*
X20667Y-37695D01*
X20667Y-37723D01*
X20657Y-37742D01*
X20648Y-37751D01*
X20629Y-37760D01*
X20554Y-37760D01*
X20742Y-37676D02*
X20751Y-37667D01*
X20770Y-37657D01*
X20817Y-37657D01*
X20836Y-37667D01*
X20845Y-37676D01*
X20854Y-37695D01*
X20854Y-37714D01*
X20845Y-37742D01*
X20732Y-37854D01*
X20854Y-37854D01*
X20563Y-38129D02*
X20451Y-38129D01*
X20507Y-38129D02*
X20507Y-37932D01*
X20488Y-37960D01*
X20470Y-37979D01*
X20451Y-37989D01*
X20685Y-37932D02*
X20704Y-37932D01*
X20723Y-37942D01*
X20732Y-37951D01*
X20742Y-37970D01*
X20751Y-38007D01*
X20751Y-38054D01*
X20742Y-38092D01*
X20732Y-38110D01*
X20723Y-38120D01*
X20704Y-38129D01*
X20685Y-38129D01*
X20667Y-38120D01*
X20657Y-38110D01*
X20648Y-38092D01*
X20639Y-38054D01*
X20639Y-38007D01*
X20648Y-37970D01*
X20657Y-37951D01*
X20667Y-37942D01*
X20685Y-37932D01*
X20836Y-38129D02*
X20836Y-37932D01*
X20948Y-38129D02*
X20864Y-38017D01*
X20948Y-37932D02*
X20836Y-38045D01*
X26673Y-37854D02*
X26607Y-37760D01*
X26560Y-37854D02*
X26560Y-37657D01*
X26635Y-37657D01*
X26654Y-37667D01*
X26663Y-37676D01*
X26673Y-37695D01*
X26673Y-37723D01*
X26663Y-37742D01*
X26654Y-37751D01*
X26635Y-37760D01*
X26560Y-37760D01*
X26860Y-37854D02*
X26748Y-37854D01*
X26804Y-37854D02*
X26804Y-37657D01*
X26785Y-37685D01*
X26767Y-37704D01*
X26748Y-37714D01*
X26926Y-37657D02*
X27057Y-37657D01*
X26973Y-37854D01*
X26663Y-38129D02*
X26551Y-38129D01*
X26607Y-38129D02*
X26607Y-37932D01*
X26588Y-37960D01*
X26570Y-37979D01*
X26551Y-37989D01*
X26785Y-37932D02*
X26804Y-37932D01*
X26823Y-37942D01*
X26832Y-37951D01*
X26842Y-37970D01*
X26851Y-38007D01*
X26851Y-38054D01*
X26842Y-38092D01*
X26832Y-38110D01*
X26823Y-38120D01*
X26804Y-38129D01*
X26785Y-38129D01*
X26767Y-38120D01*
X26757Y-38110D01*
X26748Y-38092D01*
X26739Y-38054D01*
X26739Y-38007D01*
X26748Y-37970D01*
X26757Y-37951D01*
X26767Y-37942D01*
X26785Y-37932D01*
X26936Y-38129D02*
X26936Y-37932D01*
X27048Y-38129D02*
X26964Y-38017D01*
X27048Y-37932D02*
X26936Y-38045D01*
X28773Y-35654D02*
X28707Y-35560D01*
X28660Y-35654D02*
X28660Y-35457D01*
X28735Y-35457D01*
X28754Y-35467D01*
X28763Y-35476D01*
X28773Y-35495D01*
X28773Y-35523D01*
X28763Y-35542D01*
X28754Y-35551D01*
X28735Y-35560D01*
X28660Y-35560D01*
X28848Y-35476D02*
X28857Y-35467D01*
X28876Y-35457D01*
X28923Y-35457D01*
X28942Y-35467D01*
X28951Y-35476D01*
X28960Y-35495D01*
X28960Y-35514D01*
X28951Y-35542D01*
X28839Y-35654D01*
X28960Y-35654D01*
X29148Y-35654D02*
X29036Y-35654D01*
X29092Y-35654D02*
X29092Y-35457D01*
X29073Y-35485D01*
X29054Y-35504D01*
X29036Y-35514D01*
X28670Y-35379D02*
X28557Y-35379D01*
X28613Y-35379D02*
X28613Y-35182D01*
X28595Y-35210D01*
X28576Y-35229D01*
X28557Y-35239D01*
X28792Y-35182D02*
X28810Y-35182D01*
X28829Y-35192D01*
X28839Y-35201D01*
X28848Y-35220D01*
X28857Y-35257D01*
X28857Y-35304D01*
X28848Y-35342D01*
X28839Y-35360D01*
X28829Y-35370D01*
X28810Y-35379D01*
X28792Y-35379D01*
X28773Y-35370D01*
X28763Y-35360D01*
X28754Y-35342D01*
X28745Y-35304D01*
X28745Y-35257D01*
X28754Y-35220D01*
X28763Y-35201D01*
X28773Y-35192D01*
X28792Y-35182D01*
X28979Y-35182D02*
X28998Y-35182D01*
X29017Y-35192D01*
X29026Y-35201D01*
X29036Y-35220D01*
X29045Y-35257D01*
X29045Y-35304D01*
X29036Y-35342D01*
X29026Y-35360D01*
X29017Y-35370D01*
X28998Y-35379D01*
X28979Y-35379D01*
X28960Y-35370D01*
X28951Y-35360D01*
X28942Y-35342D01*
X28932Y-35304D01*
X28932Y-35257D01*
X28942Y-35220D01*
X28951Y-35201D01*
X28960Y-35192D01*
X28979Y-35182D01*
X29129Y-35379D02*
X29129Y-35182D01*
X29242Y-35379D02*
X29157Y-35267D01*
X29242Y-35182D02*
X29129Y-35295D01*
X27673Y-36804D02*
X27607Y-36710D01*
X27560Y-36804D02*
X27560Y-36607D01*
X27635Y-36607D01*
X27654Y-36617D01*
X27663Y-36626D01*
X27673Y-36645D01*
X27673Y-36673D01*
X27663Y-36692D01*
X27654Y-36701D01*
X27635Y-36710D01*
X27560Y-36710D01*
X27860Y-36804D02*
X27748Y-36804D01*
X27804Y-36804D02*
X27804Y-36607D01*
X27785Y-36635D01*
X27767Y-36654D01*
X27748Y-36664D01*
X27954Y-36804D02*
X27992Y-36804D01*
X28011Y-36795D01*
X28020Y-36785D01*
X28039Y-36757D01*
X28048Y-36720D01*
X28048Y-36645D01*
X28039Y-36626D01*
X28029Y-36617D01*
X28011Y-36607D01*
X27973Y-36607D01*
X27954Y-36617D01*
X27945Y-36626D01*
X27936Y-36645D01*
X27936Y-36692D01*
X27945Y-36710D01*
X27954Y-36720D01*
X27973Y-36729D01*
X28011Y-36729D01*
X28029Y-36720D01*
X28039Y-36710D01*
X28048Y-36692D01*
X27663Y-36529D02*
X27551Y-36529D01*
X27607Y-36529D02*
X27607Y-36332D01*
X27588Y-36360D01*
X27570Y-36379D01*
X27551Y-36389D01*
X27785Y-36332D02*
X27804Y-36332D01*
X27823Y-36342D01*
X27832Y-36351D01*
X27842Y-36370D01*
X27851Y-36407D01*
X27851Y-36454D01*
X27842Y-36492D01*
X27832Y-36510D01*
X27823Y-36520D01*
X27804Y-36529D01*
X27785Y-36529D01*
X27767Y-36520D01*
X27757Y-36510D01*
X27748Y-36492D01*
X27739Y-36454D01*
X27739Y-36407D01*
X27748Y-36370D01*
X27757Y-36351D01*
X27767Y-36342D01*
X27785Y-36332D01*
X27936Y-36529D02*
X27936Y-36332D01*
X28048Y-36529D02*
X27964Y-36417D01*
X28048Y-36332D02*
X27936Y-36445D01*
X18773Y-36804D02*
X18707Y-36710D01*
X18660Y-36804D02*
X18660Y-36607D01*
X18735Y-36607D01*
X18754Y-36617D01*
X18763Y-36626D01*
X18773Y-36645D01*
X18773Y-36673D01*
X18763Y-36692D01*
X18754Y-36701D01*
X18735Y-36710D01*
X18660Y-36710D01*
X18960Y-36804D02*
X18848Y-36804D01*
X18904Y-36804D02*
X18904Y-36607D01*
X18885Y-36635D01*
X18867Y-36654D01*
X18848Y-36664D01*
X19139Y-36607D02*
X19045Y-36607D01*
X19036Y-36701D01*
X19045Y-36692D01*
X19064Y-36682D01*
X19111Y-36682D01*
X19129Y-36692D01*
X19139Y-36701D01*
X19148Y-36720D01*
X19148Y-36767D01*
X19139Y-36785D01*
X19129Y-36795D01*
X19111Y-36804D01*
X19064Y-36804D01*
X19045Y-36795D01*
X19036Y-36785D01*
X18670Y-36529D02*
X18557Y-36529D01*
X18613Y-36529D02*
X18613Y-36332D01*
X18595Y-36360D01*
X18576Y-36379D01*
X18557Y-36389D01*
X18792Y-36332D02*
X18810Y-36332D01*
X18829Y-36342D01*
X18839Y-36351D01*
X18848Y-36370D01*
X18857Y-36407D01*
X18857Y-36454D01*
X18848Y-36492D01*
X18839Y-36510D01*
X18829Y-36520D01*
X18810Y-36529D01*
X18792Y-36529D01*
X18773Y-36520D01*
X18763Y-36510D01*
X18754Y-36492D01*
X18745Y-36454D01*
X18745Y-36407D01*
X18754Y-36370D01*
X18763Y-36351D01*
X18773Y-36342D01*
X18792Y-36332D01*
X18979Y-36332D02*
X18998Y-36332D01*
X19017Y-36342D01*
X19026Y-36351D01*
X19036Y-36370D01*
X19045Y-36407D01*
X19045Y-36454D01*
X19036Y-36492D01*
X19026Y-36510D01*
X19017Y-36520D01*
X18998Y-36529D01*
X18979Y-36529D01*
X18960Y-36520D01*
X18951Y-36510D01*
X18942Y-36492D01*
X18932Y-36454D01*
X18932Y-36407D01*
X18942Y-36370D01*
X18951Y-36351D01*
X18960Y-36342D01*
X18979Y-36332D01*
X19129Y-36529D02*
X19129Y-36332D01*
X19242Y-36529D02*
X19157Y-36417D01*
X19242Y-36332D02*
X19129Y-36445D01*
X11667Y-37754D02*
X11601Y-37660D01*
X11554Y-37754D02*
X11554Y-37557D01*
X11629Y-37557D01*
X11648Y-37567D01*
X11657Y-37576D01*
X11667Y-37595D01*
X11667Y-37623D01*
X11657Y-37642D01*
X11648Y-37651D01*
X11629Y-37660D01*
X11554Y-37660D01*
X11845Y-37557D02*
X11751Y-37557D01*
X11742Y-37651D01*
X11751Y-37642D01*
X11770Y-37632D01*
X11817Y-37632D01*
X11836Y-37642D01*
X11845Y-37651D01*
X11854Y-37670D01*
X11854Y-37717D01*
X11845Y-37735D01*
X11836Y-37745D01*
X11817Y-37754D01*
X11770Y-37754D01*
X11751Y-37745D01*
X11742Y-37735D01*
X11563Y-38029D02*
X11451Y-38029D01*
X11507Y-38029D02*
X11507Y-37832D01*
X11488Y-37860D01*
X11470Y-37879D01*
X11451Y-37889D01*
X11685Y-37832D02*
X11704Y-37832D01*
X11723Y-37842D01*
X11732Y-37851D01*
X11742Y-37870D01*
X11751Y-37907D01*
X11751Y-37954D01*
X11742Y-37992D01*
X11732Y-38010D01*
X11723Y-38020D01*
X11704Y-38029D01*
X11685Y-38029D01*
X11667Y-38020D01*
X11657Y-38010D01*
X11648Y-37992D01*
X11639Y-37954D01*
X11639Y-37907D01*
X11648Y-37870D01*
X11657Y-37851D01*
X11667Y-37842D01*
X11685Y-37832D01*
X11836Y-38029D02*
X11836Y-37832D01*
X11948Y-38029D02*
X11864Y-37917D01*
X11948Y-37832D02*
X11836Y-37945D01*
X13667Y-37754D02*
X13601Y-37660D01*
X13554Y-37754D02*
X13554Y-37557D01*
X13629Y-37557D01*
X13648Y-37567D01*
X13657Y-37576D01*
X13667Y-37595D01*
X13667Y-37623D01*
X13657Y-37642D01*
X13648Y-37651D01*
X13629Y-37660D01*
X13554Y-37660D01*
X13779Y-37642D02*
X13760Y-37632D01*
X13751Y-37623D01*
X13742Y-37604D01*
X13742Y-37595D01*
X13751Y-37576D01*
X13760Y-37567D01*
X13779Y-37557D01*
X13817Y-37557D01*
X13836Y-37567D01*
X13845Y-37576D01*
X13854Y-37595D01*
X13854Y-37604D01*
X13845Y-37623D01*
X13836Y-37632D01*
X13817Y-37642D01*
X13779Y-37642D01*
X13760Y-37651D01*
X13751Y-37660D01*
X13742Y-37679D01*
X13742Y-37717D01*
X13751Y-37735D01*
X13760Y-37745D01*
X13779Y-37754D01*
X13817Y-37754D01*
X13836Y-37745D01*
X13845Y-37735D01*
X13854Y-37717D01*
X13854Y-37679D01*
X13845Y-37660D01*
X13836Y-37651D01*
X13817Y-37642D01*
X13563Y-38029D02*
X13451Y-38029D01*
X13507Y-38029D02*
X13507Y-37832D01*
X13488Y-37860D01*
X13470Y-37879D01*
X13451Y-37889D01*
X13685Y-37832D02*
X13704Y-37832D01*
X13723Y-37842D01*
X13732Y-37851D01*
X13742Y-37870D01*
X13751Y-37907D01*
X13751Y-37954D01*
X13742Y-37992D01*
X13732Y-38010D01*
X13723Y-38020D01*
X13704Y-38029D01*
X13685Y-38029D01*
X13667Y-38020D01*
X13657Y-38010D01*
X13648Y-37992D01*
X13639Y-37954D01*
X13639Y-37907D01*
X13648Y-37870D01*
X13657Y-37851D01*
X13667Y-37842D01*
X13685Y-37832D01*
X13836Y-38029D02*
X13836Y-37832D01*
X13948Y-38029D02*
X13864Y-37917D01*
X13948Y-37832D02*
X13836Y-37945D01*
X12767Y-36554D02*
X12701Y-36460D01*
X12654Y-36554D02*
X12654Y-36357D01*
X12729Y-36357D01*
X12748Y-36367D01*
X12757Y-36376D01*
X12767Y-36395D01*
X12767Y-36423D01*
X12757Y-36442D01*
X12748Y-36451D01*
X12729Y-36460D01*
X12654Y-36460D01*
X12936Y-36357D02*
X12898Y-36357D01*
X12879Y-36367D01*
X12870Y-36376D01*
X12851Y-36404D01*
X12842Y-36442D01*
X12842Y-36517D01*
X12851Y-36535D01*
X12860Y-36545D01*
X12879Y-36554D01*
X12917Y-36554D01*
X12936Y-36545D01*
X12945Y-36535D01*
X12954Y-36517D01*
X12954Y-36470D01*
X12945Y-36451D01*
X12936Y-36442D01*
X12917Y-36432D01*
X12879Y-36432D01*
X12860Y-36442D01*
X12851Y-36451D01*
X12842Y-36470D01*
X12663Y-36829D02*
X12551Y-36829D01*
X12607Y-36829D02*
X12607Y-36632D01*
X12588Y-36660D01*
X12570Y-36679D01*
X12551Y-36689D01*
X12785Y-36632D02*
X12804Y-36632D01*
X12823Y-36642D01*
X12832Y-36651D01*
X12842Y-36670D01*
X12851Y-36707D01*
X12851Y-36754D01*
X12842Y-36792D01*
X12832Y-36810D01*
X12823Y-36820D01*
X12804Y-36829D01*
X12785Y-36829D01*
X12767Y-36820D01*
X12757Y-36810D01*
X12748Y-36792D01*
X12739Y-36754D01*
X12739Y-36707D01*
X12748Y-36670D01*
X12757Y-36651D01*
X12767Y-36642D01*
X12785Y-36632D01*
X12936Y-36829D02*
X12936Y-36632D01*
X13048Y-36829D02*
X12964Y-36717D01*
X13048Y-36632D02*
X12936Y-36745D01*
X10667Y-36554D02*
X10601Y-36460D01*
X10554Y-36554D02*
X10554Y-36357D01*
X10629Y-36357D01*
X10648Y-36367D01*
X10657Y-36376D01*
X10667Y-36395D01*
X10667Y-36423D01*
X10657Y-36442D01*
X10648Y-36451D01*
X10629Y-36460D01*
X10554Y-36460D01*
X10732Y-36357D02*
X10854Y-36357D01*
X10789Y-36432D01*
X10817Y-36432D01*
X10836Y-36442D01*
X10845Y-36451D01*
X10854Y-36470D01*
X10854Y-36517D01*
X10845Y-36535D01*
X10836Y-36545D01*
X10817Y-36554D01*
X10760Y-36554D01*
X10742Y-36545D01*
X10732Y-36535D01*
X10563Y-36829D02*
X10451Y-36829D01*
X10507Y-36829D02*
X10507Y-36632D01*
X10488Y-36660D01*
X10470Y-36679D01*
X10451Y-36689D01*
X10685Y-36632D02*
X10704Y-36632D01*
X10723Y-36642D01*
X10732Y-36651D01*
X10742Y-36670D01*
X10751Y-36707D01*
X10751Y-36754D01*
X10742Y-36792D01*
X10732Y-36810D01*
X10723Y-36820D01*
X10704Y-36829D01*
X10685Y-36829D01*
X10667Y-36820D01*
X10657Y-36810D01*
X10648Y-36792D01*
X10639Y-36754D01*
X10639Y-36707D01*
X10648Y-36670D01*
X10657Y-36651D01*
X10667Y-36642D01*
X10685Y-36632D01*
X10836Y-36829D02*
X10836Y-36632D01*
X10948Y-36829D02*
X10864Y-36717D01*
X10948Y-36632D02*
X10836Y-36745D01*
X9667Y-37754D02*
X9601Y-37660D01*
X9554Y-37754D02*
X9554Y-37557D01*
X9629Y-37557D01*
X9648Y-37567D01*
X9657Y-37576D01*
X9667Y-37595D01*
X9667Y-37623D01*
X9657Y-37642D01*
X9648Y-37651D01*
X9629Y-37660D01*
X9554Y-37660D01*
X9854Y-37754D02*
X9742Y-37754D01*
X9798Y-37754D02*
X9798Y-37557D01*
X9779Y-37585D01*
X9760Y-37604D01*
X9742Y-37614D01*
X9563Y-38029D02*
X9451Y-38029D01*
X9507Y-38029D02*
X9507Y-37832D01*
X9488Y-37860D01*
X9470Y-37879D01*
X9451Y-37889D01*
X9685Y-37832D02*
X9704Y-37832D01*
X9723Y-37842D01*
X9732Y-37851D01*
X9742Y-37870D01*
X9751Y-37907D01*
X9751Y-37954D01*
X9742Y-37992D01*
X9732Y-38010D01*
X9723Y-38020D01*
X9704Y-38029D01*
X9685Y-38029D01*
X9667Y-38020D01*
X9657Y-38010D01*
X9648Y-37992D01*
X9639Y-37954D01*
X9639Y-37907D01*
X9648Y-37870D01*
X9657Y-37851D01*
X9667Y-37842D01*
X9685Y-37832D01*
X9836Y-38029D02*
X9836Y-37832D01*
X9948Y-38029D02*
X9864Y-37917D01*
X9948Y-37832D02*
X9836Y-37945D01*
X28373Y-20504D02*
X28307Y-20410D01*
X28260Y-20504D02*
X28260Y-20307D01*
X28335Y-20307D01*
X28354Y-20317D01*
X28363Y-20326D01*
X28373Y-20345D01*
X28373Y-20373D01*
X28363Y-20392D01*
X28354Y-20401D01*
X28335Y-20410D01*
X28260Y-20410D01*
X28448Y-20326D02*
X28457Y-20317D01*
X28476Y-20307D01*
X28523Y-20307D01*
X28542Y-20317D01*
X28551Y-20326D01*
X28560Y-20345D01*
X28560Y-20364D01*
X28551Y-20392D01*
X28439Y-20504D01*
X28560Y-20504D01*
X28626Y-20307D02*
X28748Y-20307D01*
X28682Y-20382D01*
X28711Y-20382D01*
X28729Y-20392D01*
X28739Y-20401D01*
X28748Y-20420D01*
X28748Y-20467D01*
X28739Y-20485D01*
X28729Y-20495D01*
X28711Y-20504D01*
X28654Y-20504D01*
X28636Y-20495D01*
X28626Y-20485D01*
X28363Y-20229D02*
X28251Y-20229D01*
X28307Y-20229D02*
X28307Y-20032D01*
X28288Y-20060D01*
X28270Y-20079D01*
X28251Y-20089D01*
X28485Y-20032D02*
X28504Y-20032D01*
X28523Y-20042D01*
X28532Y-20051D01*
X28542Y-20070D01*
X28551Y-20107D01*
X28551Y-20154D01*
X28542Y-20192D01*
X28532Y-20210D01*
X28523Y-20220D01*
X28504Y-20229D01*
X28485Y-20229D01*
X28467Y-20220D01*
X28457Y-20210D01*
X28448Y-20192D01*
X28439Y-20154D01*
X28439Y-20107D01*
X28448Y-20070D01*
X28457Y-20051D01*
X28467Y-20042D01*
X28485Y-20032D01*
X28636Y-20229D02*
X28636Y-20032D01*
X28748Y-20229D02*
X28664Y-20117D01*
X28748Y-20032D02*
X28636Y-20145D01*
G54D15*
X32432Y-18435D02*
X32837Y-18435D01*
X32884Y-18416D01*
X32908Y-18397D01*
X32932Y-18359D01*
X32932Y-18282D01*
X32908Y-18244D01*
X32884Y-18225D01*
X32837Y-18206D01*
X32432Y-18206D01*
X32932Y-17806D02*
X32932Y-18035D01*
X32932Y-17920D02*
X32432Y-17920D01*
X32503Y-17959D01*
X32551Y-17997D01*
X32575Y-18035D01*
X32432Y-17559D02*
X32432Y-17520D01*
X32456Y-17482D01*
X32480Y-17463D01*
X32527Y-17444D01*
X32622Y-17425D01*
X32741Y-17425D01*
X32837Y-17444D01*
X32884Y-17463D01*
X32908Y-17482D01*
X32932Y-17520D01*
X32932Y-17559D01*
X32908Y-17597D01*
X32884Y-17616D01*
X32837Y-17635D01*
X32741Y-17654D01*
X32622Y-17654D01*
X32527Y-17635D01*
X32480Y-17616D01*
X32456Y-17597D01*
X32432Y-17559D01*
X32246Y-17999D02*
X32437Y-17999D01*
X32208Y-18142D02*
X32341Y-17642D01*
X32475Y-18142D01*
X32551Y-17642D02*
X32780Y-17642D01*
X32665Y-18142D02*
X32665Y-17642D01*
X32913Y-18142D02*
X32913Y-17642D01*
X33046Y-17999D01*
X33180Y-17642D01*
X33180Y-18142D01*
X33370Y-17880D02*
X33503Y-17880D01*
X33560Y-18142D02*
X33370Y-18142D01*
X33370Y-17642D01*
X33560Y-17642D01*
X33941Y-17666D02*
X33903Y-17642D01*
X33846Y-17642D01*
X33789Y-17666D01*
X33751Y-17713D01*
X33732Y-17761D01*
X33713Y-17856D01*
X33713Y-17928D01*
X33732Y-18023D01*
X33751Y-18070D01*
X33789Y-18118D01*
X33846Y-18142D01*
X33884Y-18142D01*
X33941Y-18118D01*
X33960Y-18094D01*
X33960Y-17928D01*
X33884Y-17928D01*
X34113Y-17999D02*
X34303Y-17999D01*
X34075Y-18142D02*
X34208Y-17642D01*
X34341Y-18142D01*
X34532Y-17856D02*
X34494Y-17832D01*
X34475Y-17809D01*
X34456Y-17761D01*
X34456Y-17737D01*
X34475Y-17690D01*
X34494Y-17666D01*
X34532Y-17642D01*
X34608Y-17642D01*
X34646Y-17666D01*
X34665Y-17690D01*
X34684Y-17737D01*
X34684Y-17761D01*
X34665Y-17809D01*
X34646Y-17832D01*
X34608Y-17856D01*
X34532Y-17856D01*
X34494Y-17880D01*
X34475Y-17904D01*
X34456Y-17951D01*
X34456Y-18047D01*
X34475Y-18094D01*
X34494Y-18118D01*
X34532Y-18142D01*
X34608Y-18142D01*
X34646Y-18118D01*
X34665Y-18094D01*
X34684Y-18047D01*
X34684Y-17951D01*
X34665Y-17904D01*
X34646Y-17880D01*
X34608Y-17856D01*
X34856Y-17951D02*
X35160Y-17951D01*
X35332Y-17999D02*
X35522Y-17999D01*
X35294Y-18142D02*
X35427Y-17642D01*
X35560Y-18142D01*
X35694Y-18142D02*
X35694Y-17642D01*
G54D14*
X4971Y-10021D02*
X4671Y-10021D01*
X4671Y-9907D01*
X4685Y-9878D01*
X4700Y-9864D01*
X4728Y-9850D01*
X4771Y-9850D01*
X4800Y-9864D01*
X4814Y-9878D01*
X4828Y-9907D01*
X4828Y-10021D01*
X4700Y-9735D02*
X4685Y-9721D01*
X4671Y-9692D01*
X4671Y-9621D01*
X4685Y-9592D01*
X4700Y-9578D01*
X4728Y-9564D01*
X4757Y-9564D01*
X4800Y-9578D01*
X4971Y-9750D01*
X4971Y-9564D01*
X19571Y-6821D02*
X19271Y-6821D01*
X19271Y-6707D01*
X19285Y-6678D01*
X19300Y-6664D01*
X19328Y-6650D01*
X19371Y-6650D01*
X19400Y-6664D01*
X19414Y-6678D01*
X19428Y-6707D01*
X19428Y-6821D01*
X19571Y-6364D02*
X19571Y-6535D01*
X19571Y-6450D02*
X19271Y-6450D01*
X19314Y-6478D01*
X19342Y-6507D01*
X19357Y-6535D01*
G54D20*
X13267Y-19660D02*
X13257Y-19670D01*
X13229Y-19679D01*
X13210Y-19679D01*
X13182Y-19670D01*
X13163Y-19651D01*
X13154Y-19632D01*
X13145Y-19595D01*
X13145Y-19567D01*
X13154Y-19529D01*
X13163Y-19510D01*
X13182Y-19492D01*
X13210Y-19482D01*
X13229Y-19482D01*
X13257Y-19492D01*
X13267Y-19501D01*
X13454Y-19679D02*
X13342Y-19679D01*
X13398Y-19679D02*
X13398Y-19482D01*
X13379Y-19510D01*
X13360Y-19529D01*
X13342Y-19539D01*
X20767Y-14960D02*
X20757Y-14970D01*
X20729Y-14979D01*
X20710Y-14979D01*
X20682Y-14970D01*
X20663Y-14951D01*
X20654Y-14932D01*
X20645Y-14895D01*
X20645Y-14867D01*
X20654Y-14829D01*
X20663Y-14810D01*
X20682Y-14792D01*
X20710Y-14782D01*
X20729Y-14782D01*
X20757Y-14792D01*
X20767Y-14801D01*
X20879Y-14867D02*
X20860Y-14857D01*
X20851Y-14848D01*
X20842Y-14829D01*
X20842Y-14820D01*
X20851Y-14801D01*
X20860Y-14792D01*
X20879Y-14782D01*
X20917Y-14782D01*
X20936Y-14792D01*
X20945Y-14801D01*
X20954Y-14820D01*
X20954Y-14829D01*
X20945Y-14848D01*
X20936Y-14857D01*
X20917Y-14867D01*
X20879Y-14867D01*
X20860Y-14876D01*
X20851Y-14885D01*
X20842Y-14904D01*
X20842Y-14942D01*
X20851Y-14960D01*
X20860Y-14970D01*
X20879Y-14979D01*
X20917Y-14979D01*
X20936Y-14970D01*
X20945Y-14960D01*
X20954Y-14942D01*
X20954Y-14904D01*
X20945Y-14885D01*
X20936Y-14876D01*
X20917Y-14867D01*
G54D21*
X31730Y-22576D02*
X31724Y-22582D01*
X31707Y-22587D01*
X31696Y-22587D01*
X31679Y-22582D01*
X31668Y-22570D01*
X31662Y-22559D01*
X31657Y-22537D01*
X31657Y-22520D01*
X31662Y-22497D01*
X31668Y-22486D01*
X31679Y-22475D01*
X31696Y-22469D01*
X31707Y-22469D01*
X31724Y-22475D01*
X31730Y-22481D01*
X31775Y-22481D02*
X31780Y-22475D01*
X31792Y-22469D01*
X31820Y-22469D01*
X31831Y-22475D01*
X31837Y-22481D01*
X31842Y-22492D01*
X31842Y-22503D01*
X31837Y-22520D01*
X31769Y-22587D01*
X31842Y-22587D01*
X33270Y-22596D02*
X33264Y-22602D01*
X33247Y-22607D01*
X33236Y-22607D01*
X33219Y-22602D01*
X33208Y-22590D01*
X33202Y-22579D01*
X33197Y-22557D01*
X33197Y-22540D01*
X33202Y-22517D01*
X33208Y-22506D01*
X33219Y-22495D01*
X33236Y-22489D01*
X33247Y-22489D01*
X33264Y-22495D01*
X33270Y-22501D01*
X33309Y-22489D02*
X33388Y-22489D01*
X33337Y-22607D01*
X34476Y-14169D02*
X34482Y-14175D01*
X34487Y-14192D01*
X34487Y-14203D01*
X34482Y-14220D01*
X34470Y-14231D01*
X34459Y-14237D01*
X34437Y-14242D01*
X34420Y-14242D01*
X34397Y-14237D01*
X34386Y-14231D01*
X34375Y-14220D01*
X34369Y-14203D01*
X34369Y-14192D01*
X34375Y-14175D01*
X34381Y-14169D01*
X34369Y-14068D02*
X34369Y-14091D01*
X34375Y-14102D01*
X34381Y-14107D01*
X34397Y-14119D01*
X34420Y-14124D01*
X34465Y-14124D01*
X34476Y-14119D01*
X34482Y-14113D01*
X34487Y-14102D01*
X34487Y-14079D01*
X34482Y-14068D01*
X34476Y-14062D01*
X34465Y-14057D01*
X34437Y-14057D01*
X34425Y-14062D01*
X34420Y-14068D01*
X34414Y-14079D01*
X34414Y-14102D01*
X34420Y-14113D01*
X34425Y-14119D01*
X34437Y-14124D01*
X35376Y-14169D02*
X35382Y-14175D01*
X35387Y-14192D01*
X35387Y-14203D01*
X35382Y-14220D01*
X35370Y-14231D01*
X35359Y-14237D01*
X35337Y-14242D01*
X35320Y-14242D01*
X35297Y-14237D01*
X35286Y-14231D01*
X35275Y-14220D01*
X35269Y-14203D01*
X35269Y-14192D01*
X35275Y-14175D01*
X35281Y-14169D01*
X35269Y-14062D02*
X35269Y-14119D01*
X35325Y-14124D01*
X35320Y-14119D01*
X35314Y-14107D01*
X35314Y-14079D01*
X35320Y-14068D01*
X35325Y-14062D01*
X35337Y-14057D01*
X35365Y-14057D01*
X35376Y-14062D01*
X35382Y-14068D01*
X35387Y-14079D01*
X35387Y-14107D01*
X35382Y-14119D01*
X35376Y-14124D01*
X34730Y-22396D02*
X34724Y-22402D01*
X34707Y-22407D01*
X34696Y-22407D01*
X34679Y-22402D01*
X34668Y-22390D01*
X34662Y-22379D01*
X34657Y-22357D01*
X34657Y-22340D01*
X34662Y-22317D01*
X34668Y-22306D01*
X34679Y-22295D01*
X34696Y-22289D01*
X34707Y-22289D01*
X34724Y-22295D01*
X34730Y-22301D01*
X34769Y-22289D02*
X34842Y-22289D01*
X34803Y-22334D01*
X34820Y-22334D01*
X34831Y-22340D01*
X34837Y-22345D01*
X34842Y-22357D01*
X34842Y-22385D01*
X34837Y-22396D01*
X34831Y-22402D01*
X34820Y-22407D01*
X34786Y-22407D01*
X34775Y-22402D01*
X34769Y-22396D01*
X38426Y-21419D02*
X38432Y-21425D01*
X38437Y-21442D01*
X38437Y-21453D01*
X38432Y-21470D01*
X38420Y-21481D01*
X38409Y-21487D01*
X38387Y-21492D01*
X38370Y-21492D01*
X38347Y-21487D01*
X38336Y-21481D01*
X38325Y-21470D01*
X38319Y-21453D01*
X38319Y-21442D01*
X38325Y-21425D01*
X38331Y-21419D01*
X38359Y-21318D02*
X38437Y-21318D01*
X38314Y-21346D02*
X38398Y-21374D01*
X38398Y-21301D01*
G54D18*
X17442Y-27342D02*
X16842Y-27342D01*
X16842Y-27200D01*
X16871Y-27114D01*
X16928Y-27057D01*
X16985Y-27028D01*
X17100Y-27000D01*
X17185Y-27000D01*
X17300Y-27028D01*
X17357Y-27057D01*
X17414Y-27114D01*
X17442Y-27200D01*
X17442Y-27342D01*
X16900Y-26771D02*
X16871Y-26742D01*
X16842Y-26685D01*
X16842Y-26542D01*
X16871Y-26485D01*
X16900Y-26457D01*
X16957Y-26428D01*
X17014Y-26428D01*
X17100Y-26457D01*
X17442Y-26800D01*
X17442Y-26428D01*
G54D12*
X15093Y-25647D02*
X15093Y-25554D01*
X15149Y-25666D02*
X14952Y-25600D01*
X15149Y-25535D01*
X15110Y-28132D02*
X14913Y-28132D01*
X15110Y-28020D02*
X14998Y-28104D01*
X14913Y-28020D02*
X15026Y-28132D01*
G54D19*
X24673Y-37854D02*
X24607Y-37760D01*
X24560Y-37854D02*
X24560Y-37657D01*
X24635Y-37657D01*
X24654Y-37667D01*
X24663Y-37676D01*
X24673Y-37695D01*
X24673Y-37723D01*
X24663Y-37742D01*
X24654Y-37751D01*
X24635Y-37760D01*
X24560Y-37760D01*
X24860Y-37854D02*
X24748Y-37854D01*
X24804Y-37854D02*
X24804Y-37657D01*
X24785Y-37685D01*
X24767Y-37704D01*
X24748Y-37714D01*
X25048Y-37854D02*
X24936Y-37854D01*
X24992Y-37854D02*
X24992Y-37657D01*
X24973Y-37685D01*
X24954Y-37704D01*
X24936Y-37714D01*
X24663Y-38129D02*
X24551Y-38129D01*
X24607Y-38129D02*
X24607Y-37932D01*
X24588Y-37960D01*
X24570Y-37979D01*
X24551Y-37989D01*
X24785Y-37932D02*
X24804Y-37932D01*
X24823Y-37942D01*
X24832Y-37951D01*
X24842Y-37970D01*
X24851Y-38007D01*
X24851Y-38054D01*
X24842Y-38092D01*
X24832Y-38110D01*
X24823Y-38120D01*
X24804Y-38129D01*
X24785Y-38129D01*
X24767Y-38120D01*
X24757Y-38110D01*
X24748Y-38092D01*
X24739Y-38054D01*
X24739Y-38007D01*
X24748Y-37970D01*
X24757Y-37951D01*
X24767Y-37942D01*
X24785Y-37932D01*
X24936Y-38129D02*
X24936Y-37932D01*
X25048Y-38129D02*
X24964Y-38017D01*
X25048Y-37932D02*
X24936Y-38045D01*
X14773Y-36554D02*
X14707Y-36460D01*
X14660Y-36554D02*
X14660Y-36357D01*
X14735Y-36357D01*
X14754Y-36367D01*
X14763Y-36376D01*
X14773Y-36395D01*
X14773Y-36423D01*
X14763Y-36442D01*
X14754Y-36451D01*
X14735Y-36460D01*
X14660Y-36460D01*
X14960Y-36554D02*
X14848Y-36554D01*
X14904Y-36554D02*
X14904Y-36357D01*
X14885Y-36385D01*
X14867Y-36404D01*
X14848Y-36414D01*
X15082Y-36357D02*
X15101Y-36357D01*
X15120Y-36367D01*
X15129Y-36376D01*
X15139Y-36395D01*
X15148Y-36432D01*
X15148Y-36479D01*
X15139Y-36517D01*
X15129Y-36535D01*
X15120Y-36545D01*
X15101Y-36554D01*
X15082Y-36554D01*
X15064Y-36545D01*
X15054Y-36535D01*
X15045Y-36517D01*
X15036Y-36479D01*
X15036Y-36432D01*
X15045Y-36395D01*
X15054Y-36376D01*
X15064Y-36367D01*
X15082Y-36357D01*
X14763Y-36829D02*
X14651Y-36829D01*
X14707Y-36829D02*
X14707Y-36632D01*
X14688Y-36660D01*
X14670Y-36679D01*
X14651Y-36689D01*
X14885Y-36632D02*
X14904Y-36632D01*
X14923Y-36642D01*
X14932Y-36651D01*
X14942Y-36670D01*
X14951Y-36707D01*
X14951Y-36754D01*
X14942Y-36792D01*
X14932Y-36810D01*
X14923Y-36820D01*
X14904Y-36829D01*
X14885Y-36829D01*
X14867Y-36820D01*
X14857Y-36810D01*
X14848Y-36792D01*
X14839Y-36754D01*
X14839Y-36707D01*
X14848Y-36670D01*
X14857Y-36651D01*
X14867Y-36642D01*
X14885Y-36632D01*
X15036Y-36829D02*
X15036Y-36632D01*
X15148Y-36829D02*
X15064Y-36717D01*
X15148Y-36632D02*
X15036Y-36745D01*
X15573Y-37754D02*
X15507Y-37660D01*
X15460Y-37754D02*
X15460Y-37557D01*
X15535Y-37557D01*
X15554Y-37567D01*
X15563Y-37576D01*
X15573Y-37595D01*
X15573Y-37623D01*
X15563Y-37642D01*
X15554Y-37651D01*
X15535Y-37660D01*
X15460Y-37660D01*
X15760Y-37754D02*
X15648Y-37754D01*
X15704Y-37754D02*
X15704Y-37557D01*
X15685Y-37585D01*
X15667Y-37604D01*
X15648Y-37614D01*
X15836Y-37576D02*
X15845Y-37567D01*
X15864Y-37557D01*
X15911Y-37557D01*
X15929Y-37567D01*
X15939Y-37576D01*
X15948Y-37595D01*
X15948Y-37614D01*
X15939Y-37642D01*
X15826Y-37754D01*
X15948Y-37754D01*
X15563Y-38029D02*
X15451Y-38029D01*
X15507Y-38029D02*
X15507Y-37832D01*
X15488Y-37860D01*
X15470Y-37879D01*
X15451Y-37889D01*
X15685Y-37832D02*
X15704Y-37832D01*
X15723Y-37842D01*
X15732Y-37851D01*
X15742Y-37870D01*
X15751Y-37907D01*
X15751Y-37954D01*
X15742Y-37992D01*
X15732Y-38010D01*
X15723Y-38020D01*
X15704Y-38029D01*
X15685Y-38029D01*
X15667Y-38020D01*
X15657Y-38010D01*
X15648Y-37992D01*
X15639Y-37954D01*
X15639Y-37907D01*
X15648Y-37870D01*
X15657Y-37851D01*
X15667Y-37842D01*
X15685Y-37832D01*
X15836Y-38029D02*
X15836Y-37832D01*
X15948Y-38029D02*
X15864Y-37917D01*
X15948Y-37832D02*
X15836Y-37945D01*
X16773Y-36804D02*
X16707Y-36710D01*
X16660Y-36804D02*
X16660Y-36607D01*
X16735Y-36607D01*
X16754Y-36617D01*
X16763Y-36626D01*
X16773Y-36645D01*
X16773Y-36673D01*
X16763Y-36692D01*
X16754Y-36701D01*
X16735Y-36710D01*
X16660Y-36710D01*
X16960Y-36804D02*
X16848Y-36804D01*
X16904Y-36804D02*
X16904Y-36607D01*
X16885Y-36635D01*
X16867Y-36654D01*
X16848Y-36664D01*
X17026Y-36607D02*
X17148Y-36607D01*
X17082Y-36682D01*
X17111Y-36682D01*
X17129Y-36692D01*
X17139Y-36701D01*
X17148Y-36720D01*
X17148Y-36767D01*
X17139Y-36785D01*
X17129Y-36795D01*
X17111Y-36804D01*
X17054Y-36804D01*
X17036Y-36795D01*
X17026Y-36785D01*
X16763Y-36529D02*
X16651Y-36529D01*
X16707Y-36529D02*
X16707Y-36332D01*
X16688Y-36360D01*
X16670Y-36379D01*
X16651Y-36389D01*
X16885Y-36332D02*
X16904Y-36332D01*
X16923Y-36342D01*
X16932Y-36351D01*
X16942Y-36370D01*
X16951Y-36407D01*
X16951Y-36454D01*
X16942Y-36492D01*
X16932Y-36510D01*
X16923Y-36520D01*
X16904Y-36529D01*
X16885Y-36529D01*
X16867Y-36520D01*
X16857Y-36510D01*
X16848Y-36492D01*
X16839Y-36454D01*
X16839Y-36407D01*
X16848Y-36370D01*
X16857Y-36351D01*
X16867Y-36342D01*
X16885Y-36332D01*
X17036Y-36529D02*
X17036Y-36332D01*
X17148Y-36529D02*
X17064Y-36417D01*
X17148Y-36332D02*
X17036Y-36445D01*
X37704Y-25316D02*
X37610Y-25382D01*
X37704Y-25429D02*
X37507Y-25429D01*
X37507Y-25354D01*
X37517Y-25335D01*
X37526Y-25326D01*
X37545Y-25316D01*
X37573Y-25316D01*
X37592Y-25326D01*
X37601Y-25335D01*
X37610Y-25354D01*
X37610Y-25429D01*
X37704Y-25129D02*
X37704Y-25241D01*
X37704Y-25185D02*
X37507Y-25185D01*
X37535Y-25204D01*
X37554Y-25222D01*
X37564Y-25241D01*
X37507Y-24960D02*
X37507Y-24997D01*
X37517Y-25016D01*
X37526Y-25025D01*
X37554Y-25044D01*
X37592Y-25053D01*
X37667Y-25053D01*
X37685Y-25044D01*
X37695Y-25035D01*
X37704Y-25016D01*
X37704Y-24978D01*
X37695Y-24960D01*
X37685Y-24950D01*
X37667Y-24941D01*
X37620Y-24941D01*
X37601Y-24950D01*
X37592Y-24960D01*
X37582Y-24978D01*
X37582Y-25016D01*
X37592Y-25035D01*
X37601Y-25044D01*
X37620Y-25053D01*
X37429Y-25560D02*
X37429Y-25523D01*
X37420Y-25504D01*
X37410Y-25494D01*
X37382Y-25476D01*
X37345Y-25466D01*
X37270Y-25466D01*
X37251Y-25476D01*
X37242Y-25485D01*
X37232Y-25504D01*
X37232Y-25541D01*
X37242Y-25560D01*
X37251Y-25569D01*
X37270Y-25579D01*
X37317Y-25579D01*
X37335Y-25569D01*
X37345Y-25560D01*
X37354Y-25541D01*
X37354Y-25504D01*
X37345Y-25485D01*
X37335Y-25476D01*
X37317Y-25466D01*
X37410Y-25382D02*
X37420Y-25372D01*
X37429Y-25382D01*
X37420Y-25391D01*
X37410Y-25382D01*
X37429Y-25382D01*
X37232Y-25194D02*
X37232Y-25288D01*
X37326Y-25297D01*
X37317Y-25288D01*
X37307Y-25269D01*
X37307Y-25222D01*
X37317Y-25204D01*
X37326Y-25194D01*
X37345Y-25185D01*
X37392Y-25185D01*
X37410Y-25194D01*
X37420Y-25204D01*
X37429Y-25222D01*
X37429Y-25269D01*
X37420Y-25288D01*
X37410Y-25297D01*
X37232Y-25119D02*
X37232Y-24997D01*
X37307Y-25063D01*
X37307Y-25035D01*
X37317Y-25016D01*
X37326Y-25007D01*
X37345Y-24997D01*
X37392Y-24997D01*
X37410Y-25007D01*
X37420Y-25016D01*
X37429Y-25035D01*
X37429Y-25091D01*
X37420Y-25110D01*
X37410Y-25119D01*
X37429Y-24913D02*
X37232Y-24913D01*
X37429Y-24800D02*
X37317Y-24885D01*
X37232Y-24800D02*
X37345Y-24913D01*
X45185Y-17126D02*
X45195Y-17136D01*
X45204Y-17164D01*
X45204Y-17182D01*
X45195Y-17211D01*
X45176Y-17229D01*
X45157Y-17239D01*
X45120Y-17248D01*
X45092Y-17248D01*
X45054Y-17239D01*
X45035Y-17229D01*
X45017Y-17211D01*
X45007Y-17182D01*
X45007Y-17164D01*
X45017Y-17136D01*
X45026Y-17126D01*
X45204Y-16939D02*
X45204Y-17051D01*
X45204Y-16995D02*
X45007Y-16995D01*
X45035Y-17014D01*
X45054Y-17032D01*
X45064Y-17051D01*
X45204Y-16751D02*
X45204Y-16863D01*
X45204Y-16807D02*
X45007Y-16807D01*
X45035Y-16826D01*
X45054Y-16845D01*
X45064Y-16863D01*
X44929Y-17304D02*
X44929Y-17417D01*
X44929Y-17361D02*
X44732Y-17361D01*
X44760Y-17379D01*
X44779Y-17398D01*
X44789Y-17417D01*
X44732Y-17182D02*
X44732Y-17164D01*
X44742Y-17145D01*
X44751Y-17136D01*
X44770Y-17126D01*
X44807Y-17117D01*
X44854Y-17117D01*
X44892Y-17126D01*
X44910Y-17136D01*
X44920Y-17145D01*
X44929Y-17164D01*
X44929Y-17182D01*
X44920Y-17201D01*
X44910Y-17211D01*
X44892Y-17220D01*
X44854Y-17229D01*
X44807Y-17229D01*
X44770Y-17220D01*
X44751Y-17211D01*
X44742Y-17201D01*
X44732Y-17182D01*
X44732Y-16995D02*
X44732Y-16976D01*
X44742Y-16957D01*
X44751Y-16948D01*
X44770Y-16939D01*
X44807Y-16929D01*
X44854Y-16929D01*
X44892Y-16939D01*
X44910Y-16948D01*
X44920Y-16957D01*
X44929Y-16976D01*
X44929Y-16995D01*
X44920Y-17014D01*
X44910Y-17023D01*
X44892Y-17032D01*
X44854Y-17042D01*
X44807Y-17042D01*
X44770Y-17032D01*
X44751Y-17023D01*
X44742Y-17014D01*
X44732Y-16995D01*
X44798Y-16845D02*
X44929Y-16845D01*
X44817Y-16845D02*
X44807Y-16835D01*
X44798Y-16817D01*
X44798Y-16788D01*
X44807Y-16770D01*
X44826Y-16760D01*
X44929Y-16760D01*
X44826Y-16601D02*
X44826Y-16666D01*
X44929Y-16666D02*
X44732Y-16666D01*
X44732Y-16573D01*
X38515Y-25336D02*
X38525Y-25346D01*
X38534Y-25374D01*
X38534Y-25392D01*
X38525Y-25421D01*
X38506Y-25439D01*
X38487Y-25449D01*
X38450Y-25458D01*
X38422Y-25458D01*
X38384Y-25449D01*
X38365Y-25439D01*
X38347Y-25421D01*
X38337Y-25392D01*
X38337Y-25374D01*
X38347Y-25346D01*
X38356Y-25336D01*
X38534Y-25149D02*
X38534Y-25261D01*
X38534Y-25205D02*
X38337Y-25205D01*
X38365Y-25224D01*
X38384Y-25242D01*
X38394Y-25261D01*
X38337Y-25027D02*
X38337Y-25008D01*
X38347Y-24989D01*
X38356Y-24980D01*
X38375Y-24970D01*
X38412Y-24961D01*
X38459Y-24961D01*
X38497Y-24970D01*
X38515Y-24980D01*
X38525Y-24989D01*
X38534Y-25008D01*
X38534Y-25027D01*
X38525Y-25045D01*
X38515Y-25055D01*
X38497Y-25064D01*
X38459Y-25073D01*
X38412Y-25073D01*
X38375Y-25064D01*
X38356Y-25055D01*
X38347Y-25045D01*
X38337Y-25027D01*
X38809Y-25514D02*
X38809Y-25627D01*
X38809Y-25571D02*
X38612Y-25571D01*
X38640Y-25589D01*
X38659Y-25608D01*
X38669Y-25627D01*
X38612Y-25392D02*
X38612Y-25374D01*
X38622Y-25355D01*
X38631Y-25346D01*
X38650Y-25336D01*
X38687Y-25327D01*
X38734Y-25327D01*
X38772Y-25336D01*
X38790Y-25346D01*
X38800Y-25355D01*
X38809Y-25374D01*
X38809Y-25392D01*
X38800Y-25411D01*
X38790Y-25421D01*
X38772Y-25430D01*
X38734Y-25439D01*
X38687Y-25439D01*
X38650Y-25430D01*
X38631Y-25421D01*
X38622Y-25411D01*
X38612Y-25392D01*
X38612Y-25205D02*
X38612Y-25186D01*
X38622Y-25167D01*
X38631Y-25158D01*
X38650Y-25149D01*
X38687Y-25139D01*
X38734Y-25139D01*
X38772Y-25149D01*
X38790Y-25158D01*
X38800Y-25167D01*
X38809Y-25186D01*
X38809Y-25205D01*
X38800Y-25224D01*
X38790Y-25233D01*
X38772Y-25242D01*
X38734Y-25252D01*
X38687Y-25252D01*
X38650Y-25242D01*
X38631Y-25233D01*
X38622Y-25224D01*
X38612Y-25205D01*
X38678Y-25055D02*
X38809Y-25055D01*
X38697Y-25055D02*
X38687Y-25045D01*
X38678Y-25027D01*
X38678Y-24998D01*
X38687Y-24980D01*
X38706Y-24970D01*
X38809Y-24970D01*
X38706Y-24811D02*
X38706Y-24876D01*
X38809Y-24876D02*
X38612Y-24876D01*
X38612Y-24783D01*
G54D11*
X37411Y-11457D02*
X37735Y-11457D01*
X37773Y-11435D01*
X37792Y-11414D01*
X37811Y-11371D01*
X37811Y-11285D01*
X37792Y-11242D01*
X37773Y-11221D01*
X37735Y-11199D01*
X37411Y-11199D01*
X37811Y-10749D02*
X37811Y-11007D01*
X37811Y-10878D02*
X37411Y-10878D01*
X37469Y-10921D01*
X37507Y-10964D01*
X37526Y-11007D01*
X37811Y-10321D02*
X37811Y-10578D01*
X37811Y-10449D02*
X37411Y-10449D01*
X37469Y-10492D01*
X37507Y-10535D01*
X37526Y-10578D01*
X36411Y-11957D02*
X36411Y-11690D01*
X36811Y-11861D01*
X36545Y-11366D02*
X36811Y-11366D01*
X36392Y-11461D02*
X36678Y-11557D01*
X36678Y-11309D01*
X36811Y-10966D02*
X36811Y-11157D01*
X36411Y-11157D01*
X36792Y-10852D02*
X36811Y-10795D01*
X36811Y-10700D01*
X36792Y-10661D01*
X36773Y-10642D01*
X36735Y-10623D01*
X36697Y-10623D01*
X36659Y-10642D01*
X36640Y-10661D01*
X36621Y-10700D01*
X36602Y-10776D01*
X36583Y-10814D01*
X36564Y-10833D01*
X36526Y-10852D01*
X36488Y-10852D01*
X36450Y-10833D01*
X36430Y-10814D01*
X36411Y-10776D01*
X36411Y-10680D01*
X36430Y-10623D01*
X36811Y-10242D02*
X36811Y-10471D01*
X36811Y-10357D02*
X36411Y-10357D01*
X36469Y-10395D01*
X36507Y-10433D01*
X36526Y-10471D01*
X36545Y-9900D02*
X36811Y-9900D01*
X36392Y-9995D02*
X36678Y-10090D01*
X36678Y-9842D01*
G54D19*
X39504Y-9626D02*
X39410Y-9692D01*
X39504Y-9739D02*
X39307Y-9739D01*
X39307Y-9664D01*
X39317Y-9645D01*
X39326Y-9636D01*
X39345Y-9626D01*
X39373Y-9626D01*
X39392Y-9636D01*
X39401Y-9645D01*
X39410Y-9664D01*
X39410Y-9739D01*
X39307Y-9560D02*
X39307Y-9439D01*
X39382Y-9504D01*
X39382Y-9476D01*
X39392Y-9457D01*
X39401Y-9448D01*
X39420Y-9439D01*
X39467Y-9439D01*
X39485Y-9448D01*
X39495Y-9457D01*
X39504Y-9476D01*
X39504Y-9532D01*
X39495Y-9551D01*
X39485Y-9560D01*
X39307Y-9317D02*
X39307Y-9298D01*
X39317Y-9279D01*
X39326Y-9270D01*
X39345Y-9260D01*
X39382Y-9251D01*
X39429Y-9251D01*
X39467Y-9260D01*
X39485Y-9270D01*
X39495Y-9279D01*
X39504Y-9298D01*
X39504Y-9317D01*
X39495Y-9335D01*
X39485Y-9345D01*
X39467Y-9354D01*
X39429Y-9363D01*
X39382Y-9363D01*
X39345Y-9354D01*
X39326Y-9345D01*
X39317Y-9335D01*
X39307Y-9317D01*
X39601Y-9842D02*
X39592Y-9833D01*
X39582Y-9814D01*
X39582Y-9767D01*
X39592Y-9748D01*
X39601Y-9739D01*
X39620Y-9729D01*
X39639Y-9729D01*
X39667Y-9739D01*
X39779Y-9851D01*
X39779Y-9729D01*
X39601Y-9654D02*
X39592Y-9645D01*
X39582Y-9626D01*
X39582Y-9579D01*
X39592Y-9560D01*
X39601Y-9551D01*
X39620Y-9542D01*
X39639Y-9542D01*
X39667Y-9551D01*
X39779Y-9664D01*
X39779Y-9542D01*
X39582Y-9420D02*
X39582Y-9401D01*
X39592Y-9382D01*
X39601Y-9373D01*
X39620Y-9363D01*
X39657Y-9354D01*
X39704Y-9354D01*
X39742Y-9363D01*
X39760Y-9373D01*
X39770Y-9382D01*
X39779Y-9401D01*
X39779Y-9420D01*
X39770Y-9439D01*
X39760Y-9448D01*
X39742Y-9457D01*
X39704Y-9467D01*
X39657Y-9467D01*
X39620Y-9457D01*
X39601Y-9448D01*
X39592Y-9439D01*
X39582Y-9420D01*
X39779Y-9157D02*
X39685Y-9223D01*
X39779Y-9270D02*
X39582Y-9270D01*
X39582Y-9195D01*
X39592Y-9176D01*
X39601Y-9166D01*
X39620Y-9157D01*
X39648Y-9157D01*
X39667Y-9166D01*
X39676Y-9176D01*
X39685Y-9195D01*
X39685Y-9270D01*
X33073Y-9774D02*
X33007Y-9680D01*
X32960Y-9774D02*
X32960Y-9577D01*
X33035Y-9577D01*
X33054Y-9587D01*
X33063Y-9596D01*
X33073Y-9615D01*
X33073Y-9643D01*
X33063Y-9662D01*
X33054Y-9671D01*
X33035Y-9680D01*
X32960Y-9680D01*
X33260Y-9774D02*
X33148Y-9774D01*
X33204Y-9774D02*
X33204Y-9577D01*
X33185Y-9605D01*
X33167Y-9624D01*
X33148Y-9634D01*
X33373Y-9662D02*
X33354Y-9652D01*
X33345Y-9643D01*
X33336Y-9624D01*
X33336Y-9615D01*
X33345Y-9596D01*
X33354Y-9587D01*
X33373Y-9577D01*
X33411Y-9577D01*
X33429Y-9587D01*
X33439Y-9596D01*
X33448Y-9615D01*
X33448Y-9624D01*
X33439Y-9643D01*
X33429Y-9652D01*
X33411Y-9662D01*
X33373Y-9662D01*
X33354Y-9671D01*
X33345Y-9680D01*
X33336Y-9699D01*
X33336Y-9737D01*
X33345Y-9755D01*
X33354Y-9765D01*
X33373Y-9774D01*
X33411Y-9774D01*
X33429Y-9765D01*
X33439Y-9755D01*
X33448Y-9737D01*
X33448Y-9699D01*
X33439Y-9680D01*
X33429Y-9671D01*
X33411Y-9662D01*
X32857Y-9321D02*
X32866Y-9312D01*
X32885Y-9302D01*
X32932Y-9302D01*
X32951Y-9312D01*
X32960Y-9321D01*
X32970Y-9340D01*
X32970Y-9359D01*
X32960Y-9387D01*
X32848Y-9499D01*
X32970Y-9499D01*
X33045Y-9321D02*
X33054Y-9312D01*
X33073Y-9302D01*
X33120Y-9302D01*
X33139Y-9312D01*
X33148Y-9321D01*
X33157Y-9340D01*
X33157Y-9359D01*
X33148Y-9387D01*
X33035Y-9499D01*
X33157Y-9499D01*
X33279Y-9302D02*
X33298Y-9302D01*
X33317Y-9312D01*
X33326Y-9321D01*
X33336Y-9340D01*
X33345Y-9377D01*
X33345Y-9424D01*
X33336Y-9462D01*
X33326Y-9480D01*
X33317Y-9490D01*
X33298Y-9499D01*
X33279Y-9499D01*
X33260Y-9490D01*
X33251Y-9480D01*
X33242Y-9462D01*
X33232Y-9424D01*
X33232Y-9377D01*
X33242Y-9340D01*
X33251Y-9321D01*
X33260Y-9312D01*
X33279Y-9302D01*
X33542Y-9499D02*
X33476Y-9405D01*
X33429Y-9499D02*
X33429Y-9302D01*
X33504Y-9302D01*
X33523Y-9312D01*
X33533Y-9321D01*
X33542Y-9340D01*
X33542Y-9368D01*
X33533Y-9387D01*
X33523Y-9396D01*
X33504Y-9405D01*
X33429Y-9405D01*
X36054Y-6776D02*
X35960Y-6842D01*
X36054Y-6889D02*
X35857Y-6889D01*
X35857Y-6814D01*
X35867Y-6795D01*
X35876Y-6786D01*
X35895Y-6776D01*
X35923Y-6776D01*
X35942Y-6786D01*
X35951Y-6795D01*
X35960Y-6814D01*
X35960Y-6889D01*
X35876Y-6701D02*
X35867Y-6692D01*
X35857Y-6673D01*
X35857Y-6626D01*
X35867Y-6607D01*
X35876Y-6598D01*
X35895Y-6589D01*
X35914Y-6589D01*
X35942Y-6598D01*
X36054Y-6710D01*
X36054Y-6589D01*
X36054Y-6495D02*
X36054Y-6457D01*
X36045Y-6438D01*
X36035Y-6429D01*
X36007Y-6410D01*
X35970Y-6401D01*
X35895Y-6401D01*
X35876Y-6410D01*
X35867Y-6420D01*
X35857Y-6438D01*
X35857Y-6476D01*
X35867Y-6495D01*
X35876Y-6504D01*
X35895Y-6513D01*
X35942Y-6513D01*
X35960Y-6504D01*
X35970Y-6495D01*
X35979Y-6476D01*
X35979Y-6438D01*
X35970Y-6420D01*
X35960Y-6410D01*
X35942Y-6401D01*
X35601Y-6992D02*
X35592Y-6983D01*
X35582Y-6964D01*
X35582Y-6917D01*
X35592Y-6898D01*
X35601Y-6889D01*
X35620Y-6879D01*
X35639Y-6879D01*
X35667Y-6889D01*
X35779Y-7001D01*
X35779Y-6879D01*
X35601Y-6804D02*
X35592Y-6795D01*
X35582Y-6776D01*
X35582Y-6729D01*
X35592Y-6710D01*
X35601Y-6701D01*
X35620Y-6692D01*
X35639Y-6692D01*
X35667Y-6701D01*
X35779Y-6814D01*
X35779Y-6692D01*
X35582Y-6570D02*
X35582Y-6551D01*
X35592Y-6532D01*
X35601Y-6523D01*
X35620Y-6513D01*
X35657Y-6504D01*
X35704Y-6504D01*
X35742Y-6513D01*
X35760Y-6523D01*
X35770Y-6532D01*
X35779Y-6551D01*
X35779Y-6570D01*
X35770Y-6589D01*
X35760Y-6598D01*
X35742Y-6607D01*
X35704Y-6617D01*
X35657Y-6617D01*
X35620Y-6607D01*
X35601Y-6598D01*
X35592Y-6589D01*
X35582Y-6570D01*
X35779Y-6307D02*
X35685Y-6373D01*
X35779Y-6420D02*
X35582Y-6420D01*
X35582Y-6345D01*
X35592Y-6326D01*
X35601Y-6316D01*
X35620Y-6307D01*
X35648Y-6307D01*
X35667Y-6316D01*
X35676Y-6326D01*
X35685Y-6345D01*
X35685Y-6420D01*
X33154Y-11476D02*
X33060Y-11542D01*
X33154Y-11589D02*
X32957Y-11589D01*
X32957Y-11514D01*
X32967Y-11495D01*
X32976Y-11486D01*
X32995Y-11476D01*
X33023Y-11476D01*
X33042Y-11486D01*
X33051Y-11495D01*
X33060Y-11514D01*
X33060Y-11589D01*
X32976Y-11401D02*
X32967Y-11392D01*
X32957Y-11373D01*
X32957Y-11326D01*
X32967Y-11307D01*
X32976Y-11298D01*
X32995Y-11289D01*
X33014Y-11289D01*
X33042Y-11298D01*
X33154Y-11410D01*
X33154Y-11289D01*
X32957Y-11167D02*
X32957Y-11148D01*
X32967Y-11129D01*
X32976Y-11120D01*
X32995Y-11110D01*
X33032Y-11101D01*
X33079Y-11101D01*
X33117Y-11110D01*
X33135Y-11120D01*
X33145Y-11129D01*
X33154Y-11148D01*
X33154Y-11167D01*
X33145Y-11185D01*
X33135Y-11195D01*
X33117Y-11204D01*
X33079Y-11213D01*
X33032Y-11213D01*
X32995Y-11204D01*
X32976Y-11195D01*
X32967Y-11185D01*
X32957Y-11167D01*
X32701Y-11692D02*
X32692Y-11683D01*
X32682Y-11664D01*
X32682Y-11617D01*
X32692Y-11598D01*
X32701Y-11589D01*
X32720Y-11579D01*
X32739Y-11579D01*
X32767Y-11589D01*
X32879Y-11701D01*
X32879Y-11579D01*
X32682Y-11514D02*
X32682Y-11382D01*
X32879Y-11467D01*
X32682Y-11270D02*
X32682Y-11251D01*
X32692Y-11232D01*
X32701Y-11223D01*
X32720Y-11213D01*
X32757Y-11204D01*
X32804Y-11204D01*
X32842Y-11213D01*
X32860Y-11223D01*
X32870Y-11232D01*
X32879Y-11251D01*
X32879Y-11270D01*
X32870Y-11289D01*
X32860Y-11298D01*
X32842Y-11307D01*
X32804Y-11317D01*
X32757Y-11317D01*
X32720Y-11307D01*
X32701Y-11298D01*
X32692Y-11289D01*
X32682Y-11270D01*
X32879Y-11007D02*
X32785Y-11073D01*
X32879Y-11120D02*
X32682Y-11120D01*
X32682Y-11045D01*
X32692Y-11026D01*
X32701Y-11016D01*
X32720Y-11007D01*
X32748Y-11007D01*
X32767Y-11016D01*
X32776Y-11026D01*
X32785Y-11045D01*
X32785Y-11120D01*
X49085Y-24826D02*
X49095Y-24836D01*
X49104Y-24864D01*
X49104Y-24882D01*
X49095Y-24911D01*
X49076Y-24929D01*
X49057Y-24939D01*
X49020Y-24948D01*
X48992Y-24948D01*
X48954Y-24939D01*
X48935Y-24929D01*
X48917Y-24911D01*
X48907Y-24882D01*
X48907Y-24864D01*
X48917Y-24836D01*
X48926Y-24826D01*
X49104Y-24639D02*
X49104Y-24751D01*
X49104Y-24695D02*
X48907Y-24695D01*
X48935Y-24714D01*
X48954Y-24732D01*
X48964Y-24751D01*
X48907Y-24573D02*
X48907Y-24451D01*
X48982Y-24517D01*
X48982Y-24488D01*
X48992Y-24470D01*
X49001Y-24460D01*
X49020Y-24451D01*
X49067Y-24451D01*
X49085Y-24460D01*
X49095Y-24470D01*
X49104Y-24488D01*
X49104Y-24545D01*
X49095Y-24563D01*
X49085Y-24573D01*
X49379Y-25004D02*
X49379Y-25117D01*
X49379Y-25061D02*
X49182Y-25061D01*
X49210Y-25079D01*
X49229Y-25098D01*
X49239Y-25117D01*
X49182Y-24882D02*
X49182Y-24864D01*
X49192Y-24845D01*
X49201Y-24836D01*
X49220Y-24826D01*
X49257Y-24817D01*
X49304Y-24817D01*
X49342Y-24826D01*
X49360Y-24836D01*
X49370Y-24845D01*
X49379Y-24864D01*
X49379Y-24882D01*
X49370Y-24901D01*
X49360Y-24911D01*
X49342Y-24920D01*
X49304Y-24929D01*
X49257Y-24929D01*
X49220Y-24920D01*
X49201Y-24911D01*
X49192Y-24901D01*
X49182Y-24882D01*
X49182Y-24695D02*
X49182Y-24676D01*
X49192Y-24657D01*
X49201Y-24648D01*
X49220Y-24639D01*
X49257Y-24629D01*
X49304Y-24629D01*
X49342Y-24639D01*
X49360Y-24648D01*
X49370Y-24657D01*
X49379Y-24676D01*
X49379Y-24695D01*
X49370Y-24714D01*
X49360Y-24723D01*
X49342Y-24732D01*
X49304Y-24742D01*
X49257Y-24742D01*
X49220Y-24732D01*
X49201Y-24723D01*
X49192Y-24714D01*
X49182Y-24695D01*
X49248Y-24545D02*
X49379Y-24545D01*
X49267Y-24545D02*
X49257Y-24535D01*
X49248Y-24517D01*
X49248Y-24488D01*
X49257Y-24470D01*
X49276Y-24460D01*
X49379Y-24460D01*
X49276Y-24301D02*
X49276Y-24366D01*
X49379Y-24366D02*
X49182Y-24366D01*
X49182Y-24273D01*
X39804Y-6796D02*
X39710Y-6862D01*
X39804Y-6909D02*
X39607Y-6909D01*
X39607Y-6834D01*
X39617Y-6815D01*
X39626Y-6806D01*
X39645Y-6796D01*
X39673Y-6796D01*
X39692Y-6806D01*
X39701Y-6815D01*
X39710Y-6834D01*
X39710Y-6909D01*
X39626Y-6721D02*
X39617Y-6712D01*
X39607Y-6693D01*
X39607Y-6646D01*
X39617Y-6627D01*
X39626Y-6618D01*
X39645Y-6609D01*
X39664Y-6609D01*
X39692Y-6618D01*
X39804Y-6730D01*
X39804Y-6609D01*
X39607Y-6543D02*
X39607Y-6412D01*
X39804Y-6496D01*
X39351Y-7012D02*
X39342Y-7003D01*
X39332Y-6984D01*
X39332Y-6937D01*
X39342Y-6918D01*
X39351Y-6909D01*
X39370Y-6899D01*
X39389Y-6899D01*
X39417Y-6909D01*
X39529Y-7021D01*
X39529Y-6899D01*
X39351Y-6824D02*
X39342Y-6815D01*
X39332Y-6796D01*
X39332Y-6749D01*
X39342Y-6730D01*
X39351Y-6721D01*
X39370Y-6712D01*
X39389Y-6712D01*
X39417Y-6721D01*
X39529Y-6834D01*
X39529Y-6712D01*
X39332Y-6590D02*
X39332Y-6571D01*
X39342Y-6552D01*
X39351Y-6543D01*
X39370Y-6533D01*
X39407Y-6524D01*
X39454Y-6524D01*
X39492Y-6533D01*
X39510Y-6543D01*
X39520Y-6552D01*
X39529Y-6571D01*
X39529Y-6590D01*
X39520Y-6609D01*
X39510Y-6618D01*
X39492Y-6627D01*
X39454Y-6637D01*
X39407Y-6637D01*
X39370Y-6627D01*
X39351Y-6618D01*
X39342Y-6609D01*
X39332Y-6590D01*
X39529Y-6327D02*
X39435Y-6393D01*
X39529Y-6440D02*
X39332Y-6440D01*
X39332Y-6365D01*
X39342Y-6346D01*
X39351Y-6336D01*
X39370Y-6327D01*
X39398Y-6327D01*
X39417Y-6336D01*
X39426Y-6346D01*
X39435Y-6365D01*
X39435Y-6440D01*
X42554Y-9726D02*
X42460Y-9792D01*
X42554Y-9839D02*
X42357Y-9839D01*
X42357Y-9764D01*
X42367Y-9745D01*
X42376Y-9736D01*
X42395Y-9726D01*
X42423Y-9726D01*
X42442Y-9736D01*
X42451Y-9745D01*
X42460Y-9764D01*
X42460Y-9839D01*
X42376Y-9651D02*
X42367Y-9642D01*
X42357Y-9623D01*
X42357Y-9576D01*
X42367Y-9557D01*
X42376Y-9548D01*
X42395Y-9539D01*
X42414Y-9539D01*
X42442Y-9548D01*
X42554Y-9660D01*
X42554Y-9539D01*
X42442Y-9426D02*
X42432Y-9445D01*
X42423Y-9454D01*
X42404Y-9463D01*
X42395Y-9463D01*
X42376Y-9454D01*
X42367Y-9445D01*
X42357Y-9426D01*
X42357Y-9388D01*
X42367Y-9370D01*
X42376Y-9360D01*
X42395Y-9351D01*
X42404Y-9351D01*
X42423Y-9360D01*
X42432Y-9370D01*
X42442Y-9388D01*
X42442Y-9426D01*
X42451Y-9445D01*
X42460Y-9454D01*
X42479Y-9463D01*
X42517Y-9463D01*
X42535Y-9454D01*
X42545Y-9445D01*
X42554Y-9426D01*
X42554Y-9388D01*
X42545Y-9370D01*
X42535Y-9360D01*
X42517Y-9351D01*
X42479Y-9351D01*
X42460Y-9360D01*
X42451Y-9370D01*
X42442Y-9388D01*
X42651Y-9942D02*
X42642Y-9933D01*
X42632Y-9914D01*
X42632Y-9867D01*
X42642Y-9848D01*
X42651Y-9839D01*
X42670Y-9829D01*
X42689Y-9829D01*
X42717Y-9839D01*
X42829Y-9951D01*
X42829Y-9829D01*
X42651Y-9754D02*
X42642Y-9745D01*
X42632Y-9726D01*
X42632Y-9679D01*
X42642Y-9660D01*
X42651Y-9651D01*
X42670Y-9642D01*
X42689Y-9642D01*
X42717Y-9651D01*
X42829Y-9764D01*
X42829Y-9642D01*
X42632Y-9520D02*
X42632Y-9501D01*
X42642Y-9482D01*
X42651Y-9473D01*
X42670Y-9463D01*
X42707Y-9454D01*
X42754Y-9454D01*
X42792Y-9463D01*
X42810Y-9473D01*
X42820Y-9482D01*
X42829Y-9501D01*
X42829Y-9520D01*
X42820Y-9539D01*
X42810Y-9548D01*
X42792Y-9557D01*
X42754Y-9567D01*
X42707Y-9567D01*
X42670Y-9557D01*
X42651Y-9548D01*
X42642Y-9539D01*
X42632Y-9520D01*
X42829Y-9257D02*
X42735Y-9323D01*
X42829Y-9370D02*
X42632Y-9370D01*
X42632Y-9295D01*
X42642Y-9276D01*
X42651Y-9266D01*
X42670Y-9257D01*
X42698Y-9257D01*
X42717Y-9266D01*
X42726Y-9276D01*
X42735Y-9295D01*
X42735Y-9370D01*
G54D14*
X37454Y-7431D02*
X37454Y-7031D01*
X37683Y-7431D02*
X37511Y-7203D01*
X37683Y-7031D02*
X37454Y-7260D01*
X38026Y-7165D02*
X38026Y-7431D01*
X37930Y-7012D02*
X37835Y-7298D01*
X38083Y-7298D01*
X41404Y-7411D02*
X41404Y-7011D01*
X41633Y-7411D02*
X41461Y-7183D01*
X41633Y-7011D02*
X41404Y-7240D01*
X41766Y-7011D02*
X42014Y-7011D01*
X41880Y-7164D01*
X41938Y-7164D01*
X41976Y-7183D01*
X41995Y-7202D01*
X42014Y-7240D01*
X42014Y-7335D01*
X41995Y-7373D01*
X41976Y-7392D01*
X41938Y-7411D01*
X41823Y-7411D01*
X41785Y-7392D01*
X41766Y-7373D01*
X33978Y-7501D02*
X33978Y-7201D01*
X34092Y-7201D01*
X34121Y-7215D01*
X34135Y-7230D01*
X34150Y-7258D01*
X34150Y-7301D01*
X34135Y-7330D01*
X34121Y-7344D01*
X34092Y-7358D01*
X33978Y-7358D01*
X34250Y-7201D02*
X34450Y-7201D01*
X34321Y-7501D01*
G54D18*
X30457Y-7242D02*
X30457Y-6642D01*
X30600Y-6642D01*
X30685Y-6671D01*
X30742Y-6728D01*
X30771Y-6785D01*
X30800Y-6900D01*
X30800Y-6985D01*
X30771Y-7100D01*
X30742Y-7157D01*
X30685Y-7214D01*
X30600Y-7242D01*
X30457Y-7242D01*
X31371Y-7242D02*
X31028Y-7242D01*
X31200Y-7242D02*
X31200Y-6642D01*
X31142Y-6728D01*
X31085Y-6785D01*
X31028Y-6814D01*
G54D12*
X30144Y-8633D02*
X30237Y-8633D01*
X30125Y-8689D02*
X30191Y-8492D01*
X30256Y-8689D01*
X31557Y-8689D02*
X31557Y-8492D01*
X31669Y-8689D02*
X31585Y-8577D01*
X31669Y-8492D02*
X31557Y-8605D01*
G54D19*
X36054Y-14226D02*
X35960Y-14292D01*
X36054Y-14339D02*
X35857Y-14339D01*
X35857Y-14264D01*
X35867Y-14245D01*
X35876Y-14236D01*
X35895Y-14226D01*
X35923Y-14226D01*
X35942Y-14236D01*
X35951Y-14245D01*
X35960Y-14264D01*
X35960Y-14339D01*
X35857Y-14160D02*
X35857Y-14039D01*
X35932Y-14104D01*
X35932Y-14076D01*
X35942Y-14057D01*
X35951Y-14048D01*
X35970Y-14039D01*
X36017Y-14039D01*
X36035Y-14048D01*
X36045Y-14057D01*
X36054Y-14076D01*
X36054Y-14132D01*
X36045Y-14151D01*
X36035Y-14160D01*
X36054Y-13851D02*
X36054Y-13963D01*
X36054Y-13907D02*
X35857Y-13907D01*
X35885Y-13926D01*
X35904Y-13945D01*
X35914Y-13963D01*
X35648Y-14254D02*
X35779Y-14254D01*
X35573Y-14301D02*
X35714Y-14348D01*
X35714Y-14226D01*
X35582Y-14170D02*
X35582Y-14039D01*
X35779Y-14123D01*
X35779Y-13851D02*
X35685Y-13917D01*
X35779Y-13963D02*
X35582Y-13963D01*
X35582Y-13888D01*
X35592Y-13870D01*
X35601Y-13860D01*
X35620Y-13851D01*
X35648Y-13851D01*
X35667Y-13860D01*
X35676Y-13870D01*
X35685Y-13888D01*
X35685Y-13963D01*
G54D14*
X30045Y-10792D02*
X30045Y-11278D01*
X30064Y-11335D01*
X30083Y-11364D01*
X30121Y-11392D01*
X30197Y-11392D01*
X30235Y-11364D01*
X30254Y-11335D01*
X30273Y-11278D01*
X30273Y-10792D01*
X30483Y-11392D02*
X30559Y-11392D01*
X30597Y-11364D01*
X30616Y-11335D01*
X30654Y-11250D01*
X30673Y-11135D01*
X30673Y-10907D01*
X30654Y-10850D01*
X30635Y-10821D01*
X30597Y-10792D01*
X30521Y-10792D01*
X30483Y-10821D01*
X30464Y-10850D01*
X30445Y-10907D01*
X30445Y-11050D01*
X30464Y-11107D01*
X30483Y-11135D01*
X30521Y-11164D01*
X30597Y-11164D01*
X30635Y-11135D01*
X30654Y-11107D01*
X30673Y-11050D01*
X29583Y-10452D02*
X29583Y-9952D01*
X29716Y-9952D01*
X29750Y-9976D01*
X29766Y-10000D01*
X29783Y-10047D01*
X29783Y-10119D01*
X29766Y-10166D01*
X29750Y-10190D01*
X29716Y-10214D01*
X29583Y-10214D01*
X30133Y-10404D02*
X30116Y-10428D01*
X30066Y-10452D01*
X30033Y-10452D01*
X29983Y-10428D01*
X29950Y-10380D01*
X29933Y-10333D01*
X29916Y-10238D01*
X29916Y-10166D01*
X29933Y-10071D01*
X29950Y-10023D01*
X29983Y-9976D01*
X30033Y-9952D01*
X30066Y-9952D01*
X30116Y-9976D01*
X30133Y-10000D01*
X30300Y-10452D02*
X30366Y-10452D01*
X30400Y-10428D01*
X30416Y-10404D01*
X30450Y-10333D01*
X30466Y-10238D01*
X30466Y-10047D01*
X30450Y-10000D01*
X30433Y-9976D01*
X30400Y-9952D01*
X30333Y-9952D01*
X30300Y-9976D01*
X30283Y-10000D01*
X30266Y-10047D01*
X30266Y-10166D01*
X30283Y-10214D01*
X30300Y-10238D01*
X30333Y-10261D01*
X30400Y-10261D01*
X30433Y-10238D01*
X30450Y-10214D01*
X30466Y-10166D01*
X30683Y-9952D02*
X30716Y-9952D01*
X30750Y-9976D01*
X30766Y-10000D01*
X30783Y-10047D01*
X30800Y-10142D01*
X30800Y-10261D01*
X30783Y-10357D01*
X30766Y-10404D01*
X30750Y-10428D01*
X30716Y-10452D01*
X30683Y-10452D01*
X30650Y-10428D01*
X30633Y-10404D01*
X30616Y-10357D01*
X30600Y-10261D01*
X30600Y-10142D01*
X30616Y-10047D01*
X30633Y-10000D01*
X30650Y-9976D01*
X30683Y-9952D01*
X31016Y-9952D02*
X31050Y-9952D01*
X31083Y-9976D01*
X31100Y-10000D01*
X31116Y-10047D01*
X31133Y-10142D01*
X31133Y-10261D01*
X31116Y-10357D01*
X31100Y-10404D01*
X31083Y-10428D01*
X31050Y-10452D01*
X31016Y-10452D01*
X30983Y-10428D01*
X30966Y-10404D01*
X30950Y-10357D01*
X30933Y-10261D01*
X30933Y-10142D01*
X30950Y-10047D01*
X30966Y-10000D01*
X30983Y-9976D01*
X31016Y-9952D01*
G54D19*
X30623Y-13735D02*
X30613Y-13745D01*
X30585Y-13754D01*
X30567Y-13754D01*
X30538Y-13745D01*
X30520Y-13726D01*
X30510Y-13707D01*
X30501Y-13670D01*
X30501Y-13642D01*
X30510Y-13604D01*
X30520Y-13585D01*
X30538Y-13567D01*
X30567Y-13557D01*
X30585Y-13557D01*
X30613Y-13567D01*
X30623Y-13576D01*
X30810Y-13754D02*
X30698Y-13754D01*
X30754Y-13754D02*
X30754Y-13557D01*
X30735Y-13585D01*
X30717Y-13604D01*
X30698Y-13614D01*
X30979Y-13623D02*
X30979Y-13754D01*
X30932Y-13548D02*
X30886Y-13689D01*
X31007Y-13689D01*
X30445Y-13479D02*
X30332Y-13479D01*
X30388Y-13479D02*
X30388Y-13282D01*
X30370Y-13310D01*
X30351Y-13329D01*
X30332Y-13339D01*
X30567Y-13282D02*
X30585Y-13282D01*
X30604Y-13292D01*
X30613Y-13301D01*
X30623Y-13320D01*
X30632Y-13357D01*
X30632Y-13404D01*
X30623Y-13442D01*
X30613Y-13460D01*
X30604Y-13470D01*
X30585Y-13479D01*
X30567Y-13479D01*
X30548Y-13470D01*
X30538Y-13460D01*
X30529Y-13442D01*
X30520Y-13404D01*
X30520Y-13357D01*
X30529Y-13320D01*
X30538Y-13301D01*
X30548Y-13292D01*
X30567Y-13282D01*
X30754Y-13282D02*
X30773Y-13282D01*
X30792Y-13292D01*
X30801Y-13301D01*
X30810Y-13320D01*
X30820Y-13357D01*
X30820Y-13404D01*
X30810Y-13442D01*
X30801Y-13460D01*
X30792Y-13470D01*
X30773Y-13479D01*
X30754Y-13479D01*
X30735Y-13470D01*
X30726Y-13460D01*
X30717Y-13442D01*
X30707Y-13404D01*
X30707Y-13357D01*
X30717Y-13320D01*
X30726Y-13301D01*
X30735Y-13292D01*
X30754Y-13282D01*
X30904Y-13348D02*
X30904Y-13479D01*
X30904Y-13367D02*
X30914Y-13357D01*
X30932Y-13348D01*
X30961Y-13348D01*
X30979Y-13357D01*
X30989Y-13376D01*
X30989Y-13479D01*
X31148Y-13376D02*
X31083Y-13376D01*
X31083Y-13479D02*
X31083Y-13282D01*
X31176Y-13282D01*
G54D11*
X19464Y-25692D02*
X19449Y-25707D01*
X19407Y-25721D01*
X19378Y-25721D01*
X19335Y-25707D01*
X19307Y-25678D01*
X19292Y-25650D01*
X19278Y-25592D01*
X19278Y-25550D01*
X19292Y-25492D01*
X19307Y-25464D01*
X19335Y-25435D01*
X19378Y-25421D01*
X19407Y-25421D01*
X19449Y-25435D01*
X19464Y-25450D01*
X19635Y-25721D02*
X19607Y-25707D01*
X19592Y-25692D01*
X19578Y-25664D01*
X19578Y-25578D01*
X19592Y-25550D01*
X19607Y-25535D01*
X19635Y-25521D01*
X19678Y-25521D01*
X19707Y-25535D01*
X19721Y-25550D01*
X19735Y-25578D01*
X19735Y-25664D01*
X19721Y-25692D01*
X19707Y-25707D01*
X19678Y-25721D01*
X19635Y-25721D01*
X19992Y-25521D02*
X19992Y-25721D01*
X19864Y-25521D02*
X19864Y-25678D01*
X19878Y-25707D01*
X19907Y-25721D01*
X19950Y-25721D01*
X19978Y-25707D01*
X19992Y-25692D01*
X20092Y-25521D02*
X20207Y-25521D01*
X20135Y-25421D02*
X20135Y-25678D01*
X20150Y-25707D01*
X20178Y-25721D01*
X20207Y-25721D01*
X20235Y-25750D02*
X20464Y-25750D01*
X20521Y-25707D02*
X20550Y-25721D01*
X20607Y-25721D01*
X20635Y-25707D01*
X20650Y-25678D01*
X20650Y-25664D01*
X20635Y-25635D01*
X20607Y-25621D01*
X20564Y-25621D01*
X20535Y-25607D01*
X20521Y-25578D01*
X20521Y-25564D01*
X20535Y-25535D01*
X20564Y-25521D01*
X20607Y-25521D01*
X20635Y-25535D01*
X20778Y-25521D02*
X20778Y-25821D01*
X20778Y-25535D02*
X20807Y-25521D01*
X20864Y-25521D01*
X20892Y-25535D01*
X20907Y-25550D01*
X20921Y-25578D01*
X20921Y-25664D01*
X20907Y-25692D01*
X20892Y-25707D01*
X20864Y-25721D01*
X20807Y-25721D01*
X20778Y-25707D01*
X21178Y-25721D02*
X21178Y-25564D01*
X21164Y-25535D01*
X21135Y-25521D01*
X21078Y-25521D01*
X21050Y-25535D01*
X21178Y-25707D02*
X21150Y-25721D01*
X21078Y-25721D01*
X21050Y-25707D01*
X21035Y-25678D01*
X21035Y-25650D01*
X21050Y-25621D01*
X21078Y-25607D01*
X21150Y-25607D01*
X21178Y-25592D01*
X21321Y-25721D02*
X21321Y-25521D01*
X21321Y-25578D02*
X21335Y-25550D01*
X21350Y-25535D01*
X21378Y-25521D01*
X21407Y-25521D01*
X21621Y-25707D02*
X21592Y-25721D01*
X21535Y-25721D01*
X21507Y-25707D01*
X21492Y-25678D01*
X21492Y-25564D01*
X21507Y-25535D01*
X21535Y-25521D01*
X21592Y-25521D01*
X21621Y-25535D01*
X21635Y-25564D01*
X21635Y-25592D01*
X21492Y-25621D01*
X21921Y-25721D02*
X21750Y-25721D01*
X21835Y-25721D02*
X21835Y-25421D01*
X21807Y-25464D01*
X21778Y-25492D01*
X21750Y-25507D01*
G54D19*
X20216Y-20385D02*
X20207Y-20395D01*
X20179Y-20404D01*
X20160Y-20404D01*
X20132Y-20395D01*
X20113Y-20376D01*
X20104Y-20357D01*
X20094Y-20320D01*
X20094Y-20292D01*
X20104Y-20254D01*
X20113Y-20235D01*
X20132Y-20217D01*
X20160Y-20207D01*
X20179Y-20207D01*
X20207Y-20217D01*
X20216Y-20226D01*
X20273Y-20273D02*
X20348Y-20273D01*
X20301Y-20404D02*
X20301Y-20235D01*
X20310Y-20217D01*
X20329Y-20207D01*
X20348Y-20207D01*
X20413Y-20404D02*
X20413Y-20273D01*
X20413Y-20207D02*
X20404Y-20217D01*
X20413Y-20226D01*
X20423Y-20217D01*
X20413Y-20207D01*
X20413Y-20226D01*
X20535Y-20404D02*
X20517Y-20395D01*
X20507Y-20376D01*
X20507Y-20207D01*
X20582Y-20273D02*
X20657Y-20273D01*
X20610Y-20207D02*
X20610Y-20376D01*
X20620Y-20395D01*
X20639Y-20404D01*
X20657Y-20404D01*
X20798Y-20395D02*
X20779Y-20404D01*
X20742Y-20404D01*
X20723Y-20395D01*
X20714Y-20376D01*
X20714Y-20301D01*
X20723Y-20282D01*
X20742Y-20273D01*
X20779Y-20273D01*
X20798Y-20282D01*
X20807Y-20301D01*
X20807Y-20320D01*
X20714Y-20339D01*
X20892Y-20404D02*
X20892Y-20273D01*
X20892Y-20310D02*
X20901Y-20292D01*
X20911Y-20282D01*
X20929Y-20273D01*
X20948Y-20273D01*
X21004Y-20226D02*
X21014Y-20217D01*
X21033Y-20207D01*
X21079Y-20207D01*
X21098Y-20217D01*
X21108Y-20226D01*
X21117Y-20245D01*
X21117Y-20264D01*
X21108Y-20292D01*
X20995Y-20404D01*
X21117Y-20404D01*
X21305Y-20404D02*
X21192Y-20404D01*
X21248Y-20404D02*
X21248Y-20207D01*
X21230Y-20235D01*
X21211Y-20254D01*
X21192Y-20264D01*
X20329Y-19951D02*
X20338Y-19942D01*
X20357Y-19932D01*
X20404Y-19932D01*
X20423Y-19942D01*
X20432Y-19951D01*
X20442Y-19970D01*
X20442Y-19989D01*
X20432Y-20017D01*
X20320Y-20129D01*
X20442Y-20129D01*
X20526Y-20110D02*
X20535Y-20120D01*
X20526Y-20129D01*
X20517Y-20120D01*
X20526Y-20110D01*
X20526Y-20129D01*
X20610Y-19951D02*
X20620Y-19942D01*
X20639Y-19932D01*
X20685Y-19932D01*
X20704Y-19942D01*
X20714Y-19951D01*
X20723Y-19970D01*
X20723Y-19989D01*
X20714Y-20017D01*
X20601Y-20129D01*
X20723Y-20129D01*
X20892Y-19998D02*
X20892Y-20129D01*
X20807Y-19998D02*
X20807Y-20101D01*
X20817Y-20120D01*
X20836Y-20129D01*
X20864Y-20129D01*
X20882Y-20120D01*
X20892Y-20110D01*
X21051Y-20026D02*
X20986Y-20026D01*
X20986Y-20129D02*
X20986Y-19932D01*
X21079Y-19932D01*
X17673Y-38004D02*
X17607Y-37910D01*
X17560Y-38004D02*
X17560Y-37807D01*
X17635Y-37807D01*
X17654Y-37817D01*
X17663Y-37826D01*
X17673Y-37845D01*
X17673Y-37873D01*
X17663Y-37892D01*
X17654Y-37901D01*
X17635Y-37910D01*
X17560Y-37910D01*
X17842Y-37873D02*
X17842Y-38004D01*
X17795Y-37798D02*
X17748Y-37939D01*
X17870Y-37939D01*
X18048Y-38004D02*
X17936Y-38004D01*
X17992Y-38004D02*
X17992Y-37807D01*
X17973Y-37835D01*
X17954Y-37854D01*
X17936Y-37864D01*
X17663Y-37729D02*
X17551Y-37729D01*
X17607Y-37729D02*
X17607Y-37532D01*
X17588Y-37560D01*
X17570Y-37579D01*
X17551Y-37589D01*
X17785Y-37532D02*
X17804Y-37532D01*
X17823Y-37542D01*
X17832Y-37551D01*
X17842Y-37570D01*
X17851Y-37607D01*
X17851Y-37654D01*
X17842Y-37692D01*
X17832Y-37710D01*
X17823Y-37720D01*
X17804Y-37729D01*
X17785Y-37729D01*
X17767Y-37720D01*
X17757Y-37710D01*
X17748Y-37692D01*
X17739Y-37654D01*
X17739Y-37607D01*
X17748Y-37570D01*
X17757Y-37551D01*
X17767Y-37542D01*
X17785Y-37532D01*
X17936Y-37729D02*
X17936Y-37532D01*
X18048Y-37729D02*
X17964Y-37617D01*
X18048Y-37532D02*
X17936Y-37645D01*
X28448Y-37779D02*
X28382Y-37685D01*
X28335Y-37779D02*
X28335Y-37582D01*
X28410Y-37582D01*
X28429Y-37592D01*
X28438Y-37601D01*
X28448Y-37620D01*
X28448Y-37648D01*
X28438Y-37667D01*
X28429Y-37676D01*
X28410Y-37685D01*
X28335Y-37685D01*
X28617Y-37648D02*
X28617Y-37779D01*
X28570Y-37573D02*
X28523Y-37714D01*
X28645Y-37714D01*
X28711Y-37601D02*
X28720Y-37592D01*
X28739Y-37582D01*
X28786Y-37582D01*
X28804Y-37592D01*
X28814Y-37601D01*
X28823Y-37620D01*
X28823Y-37639D01*
X28814Y-37667D01*
X28701Y-37779D01*
X28823Y-37779D01*
X28438Y-37504D02*
X28326Y-37504D01*
X28382Y-37504D02*
X28382Y-37307D01*
X28363Y-37335D01*
X28345Y-37354D01*
X28326Y-37364D01*
X28560Y-37307D02*
X28579Y-37307D01*
X28598Y-37317D01*
X28607Y-37326D01*
X28617Y-37345D01*
X28626Y-37382D01*
X28626Y-37429D01*
X28617Y-37467D01*
X28607Y-37485D01*
X28598Y-37495D01*
X28579Y-37504D01*
X28560Y-37504D01*
X28542Y-37495D01*
X28532Y-37485D01*
X28523Y-37467D01*
X28514Y-37429D01*
X28514Y-37382D01*
X28523Y-37345D01*
X28532Y-37326D01*
X28542Y-37317D01*
X28560Y-37307D01*
X28711Y-37504D02*
X28711Y-37307D01*
X28823Y-37504D02*
X28739Y-37392D01*
X28823Y-37307D02*
X28711Y-37420D01*
X44454Y-11226D02*
X44360Y-11292D01*
X44454Y-11339D02*
X44257Y-11339D01*
X44257Y-11264D01*
X44267Y-11245D01*
X44276Y-11236D01*
X44295Y-11226D01*
X44323Y-11226D01*
X44342Y-11236D01*
X44351Y-11245D01*
X44360Y-11264D01*
X44360Y-11339D01*
X44276Y-11151D02*
X44267Y-11142D01*
X44257Y-11123D01*
X44257Y-11076D01*
X44267Y-11057D01*
X44276Y-11048D01*
X44295Y-11039D01*
X44314Y-11039D01*
X44342Y-11048D01*
X44454Y-11160D01*
X44454Y-11039D01*
X44257Y-10860D02*
X44257Y-10954D01*
X44351Y-10963D01*
X44342Y-10954D01*
X44332Y-10935D01*
X44332Y-10888D01*
X44342Y-10870D01*
X44351Y-10860D01*
X44370Y-10851D01*
X44417Y-10851D01*
X44435Y-10860D01*
X44445Y-10870D01*
X44454Y-10888D01*
X44454Y-10935D01*
X44445Y-10954D01*
X44435Y-10963D01*
X44729Y-11231D02*
X44729Y-11343D01*
X44729Y-11287D02*
X44532Y-11287D01*
X44560Y-11306D01*
X44579Y-11325D01*
X44589Y-11343D01*
X44532Y-11109D02*
X44532Y-11090D01*
X44542Y-11071D01*
X44551Y-11062D01*
X44570Y-11053D01*
X44607Y-11043D01*
X44654Y-11043D01*
X44692Y-11053D01*
X44710Y-11062D01*
X44720Y-11071D01*
X44729Y-11090D01*
X44729Y-11109D01*
X44720Y-11128D01*
X44710Y-11137D01*
X44692Y-11146D01*
X44654Y-11156D01*
X44607Y-11156D01*
X44570Y-11146D01*
X44551Y-11137D01*
X44542Y-11128D01*
X44532Y-11109D01*
X44532Y-10921D02*
X44532Y-10903D01*
X44542Y-10884D01*
X44551Y-10874D01*
X44570Y-10865D01*
X44607Y-10856D01*
X44654Y-10856D01*
X44692Y-10865D01*
X44710Y-10874D01*
X44720Y-10884D01*
X44729Y-10903D01*
X44729Y-10921D01*
X44720Y-10940D01*
X44710Y-10949D01*
X44692Y-10959D01*
X44654Y-10968D01*
X44607Y-10968D01*
X44570Y-10959D01*
X44551Y-10949D01*
X44542Y-10940D01*
X44532Y-10921D01*
X52554Y-11126D02*
X52460Y-11192D01*
X52554Y-11239D02*
X52357Y-11239D01*
X52357Y-11164D01*
X52367Y-11145D01*
X52376Y-11136D01*
X52395Y-11126D01*
X52423Y-11126D01*
X52442Y-11136D01*
X52451Y-11145D01*
X52460Y-11164D01*
X52460Y-11239D01*
X52376Y-11051D02*
X52367Y-11042D01*
X52357Y-11023D01*
X52357Y-10976D01*
X52367Y-10957D01*
X52376Y-10948D01*
X52395Y-10939D01*
X52414Y-10939D01*
X52442Y-10948D01*
X52554Y-11060D01*
X52554Y-10939D01*
X52423Y-10770D02*
X52554Y-10770D01*
X52348Y-10817D02*
X52489Y-10863D01*
X52489Y-10742D01*
X52829Y-11131D02*
X52829Y-11243D01*
X52829Y-11187D02*
X52632Y-11187D01*
X52660Y-11206D01*
X52679Y-11225D01*
X52689Y-11243D01*
X52632Y-11009D02*
X52632Y-10990D01*
X52642Y-10971D01*
X52651Y-10962D01*
X52670Y-10953D01*
X52707Y-10943D01*
X52754Y-10943D01*
X52792Y-10953D01*
X52810Y-10962D01*
X52820Y-10971D01*
X52829Y-10990D01*
X52829Y-11009D01*
X52820Y-11028D01*
X52810Y-11037D01*
X52792Y-11046D01*
X52754Y-11056D01*
X52707Y-11056D01*
X52670Y-11046D01*
X52651Y-11037D01*
X52642Y-11028D01*
X52632Y-11009D01*
X52632Y-10821D02*
X52632Y-10803D01*
X52642Y-10784D01*
X52651Y-10774D01*
X52670Y-10765D01*
X52707Y-10756D01*
X52754Y-10756D01*
X52792Y-10765D01*
X52810Y-10774D01*
X52820Y-10784D01*
X52829Y-10803D01*
X52829Y-10821D01*
X52820Y-10840D01*
X52810Y-10849D01*
X52792Y-10859D01*
X52754Y-10868D01*
X52707Y-10868D01*
X52670Y-10859D01*
X52651Y-10849D01*
X52642Y-10840D01*
X52632Y-10821D01*
X51554Y-11126D02*
X51460Y-11192D01*
X51554Y-11239D02*
X51357Y-11239D01*
X51357Y-11164D01*
X51367Y-11145D01*
X51376Y-11136D01*
X51395Y-11126D01*
X51423Y-11126D01*
X51442Y-11136D01*
X51451Y-11145D01*
X51460Y-11164D01*
X51460Y-11239D01*
X51376Y-11051D02*
X51367Y-11042D01*
X51357Y-11023D01*
X51357Y-10976D01*
X51367Y-10957D01*
X51376Y-10948D01*
X51395Y-10939D01*
X51414Y-10939D01*
X51442Y-10948D01*
X51554Y-11060D01*
X51554Y-10939D01*
X51376Y-10863D02*
X51367Y-10854D01*
X51357Y-10835D01*
X51357Y-10788D01*
X51367Y-10770D01*
X51376Y-10760D01*
X51395Y-10751D01*
X51414Y-10751D01*
X51442Y-10760D01*
X51554Y-10873D01*
X51554Y-10751D01*
X51829Y-11131D02*
X51829Y-11243D01*
X51829Y-11187D02*
X51632Y-11187D01*
X51660Y-11206D01*
X51679Y-11225D01*
X51689Y-11243D01*
X51632Y-11009D02*
X51632Y-10990D01*
X51642Y-10971D01*
X51651Y-10962D01*
X51670Y-10953D01*
X51707Y-10943D01*
X51754Y-10943D01*
X51792Y-10953D01*
X51810Y-10962D01*
X51820Y-10971D01*
X51829Y-10990D01*
X51829Y-11009D01*
X51820Y-11028D01*
X51810Y-11037D01*
X51792Y-11046D01*
X51754Y-11056D01*
X51707Y-11056D01*
X51670Y-11046D01*
X51651Y-11037D01*
X51642Y-11028D01*
X51632Y-11009D01*
X51632Y-10821D02*
X51632Y-10803D01*
X51642Y-10784D01*
X51651Y-10774D01*
X51670Y-10765D01*
X51707Y-10756D01*
X51754Y-10756D01*
X51792Y-10765D01*
X51810Y-10774D01*
X51820Y-10784D01*
X51829Y-10803D01*
X51829Y-10821D01*
X51820Y-10840D01*
X51810Y-10849D01*
X51792Y-10859D01*
X51754Y-10868D01*
X51707Y-10868D01*
X51670Y-10859D01*
X51651Y-10849D01*
X51642Y-10840D01*
X51632Y-10821D01*
X45454Y-11226D02*
X45360Y-11292D01*
X45454Y-11339D02*
X45257Y-11339D01*
X45257Y-11264D01*
X45267Y-11245D01*
X45276Y-11236D01*
X45295Y-11226D01*
X45323Y-11226D01*
X45342Y-11236D01*
X45351Y-11245D01*
X45360Y-11264D01*
X45360Y-11339D01*
X45276Y-11151D02*
X45267Y-11142D01*
X45257Y-11123D01*
X45257Y-11076D01*
X45267Y-11057D01*
X45276Y-11048D01*
X45295Y-11039D01*
X45314Y-11039D01*
X45342Y-11048D01*
X45454Y-11160D01*
X45454Y-11039D01*
X45257Y-10870D02*
X45257Y-10907D01*
X45267Y-10926D01*
X45276Y-10935D01*
X45304Y-10954D01*
X45342Y-10963D01*
X45417Y-10963D01*
X45435Y-10954D01*
X45445Y-10945D01*
X45454Y-10926D01*
X45454Y-10888D01*
X45445Y-10870D01*
X45435Y-10860D01*
X45417Y-10851D01*
X45370Y-10851D01*
X45351Y-10860D01*
X45342Y-10870D01*
X45332Y-10888D01*
X45332Y-10926D01*
X45342Y-10945D01*
X45351Y-10954D01*
X45370Y-10963D01*
X45729Y-11231D02*
X45729Y-11343D01*
X45729Y-11287D02*
X45532Y-11287D01*
X45560Y-11306D01*
X45579Y-11325D01*
X45589Y-11343D01*
X45532Y-11109D02*
X45532Y-11090D01*
X45542Y-11071D01*
X45551Y-11062D01*
X45570Y-11053D01*
X45607Y-11043D01*
X45654Y-11043D01*
X45692Y-11053D01*
X45710Y-11062D01*
X45720Y-11071D01*
X45729Y-11090D01*
X45729Y-11109D01*
X45720Y-11128D01*
X45710Y-11137D01*
X45692Y-11146D01*
X45654Y-11156D01*
X45607Y-11156D01*
X45570Y-11146D01*
X45551Y-11137D01*
X45542Y-11128D01*
X45532Y-11109D01*
X45532Y-10921D02*
X45532Y-10903D01*
X45542Y-10884D01*
X45551Y-10874D01*
X45570Y-10865D01*
X45607Y-10856D01*
X45654Y-10856D01*
X45692Y-10865D01*
X45710Y-10874D01*
X45720Y-10884D01*
X45729Y-10903D01*
X45729Y-10921D01*
X45720Y-10940D01*
X45710Y-10949D01*
X45692Y-10959D01*
X45654Y-10968D01*
X45607Y-10968D01*
X45570Y-10959D01*
X45551Y-10949D01*
X45542Y-10940D01*
X45532Y-10921D01*
X13073Y-24785D02*
X13063Y-24795D01*
X13035Y-24804D01*
X13017Y-24804D01*
X12988Y-24795D01*
X12970Y-24776D01*
X12960Y-24757D01*
X12951Y-24720D01*
X12951Y-24692D01*
X12960Y-24654D01*
X12970Y-24635D01*
X12988Y-24617D01*
X13017Y-24607D01*
X13035Y-24607D01*
X13063Y-24617D01*
X13073Y-24626D01*
X13260Y-24804D02*
X13148Y-24804D01*
X13204Y-24804D02*
X13204Y-24607D01*
X13185Y-24635D01*
X13167Y-24654D01*
X13148Y-24664D01*
X13439Y-24607D02*
X13345Y-24607D01*
X13336Y-24701D01*
X13345Y-24692D01*
X13364Y-24682D01*
X13411Y-24682D01*
X13429Y-24692D01*
X13439Y-24701D01*
X13448Y-24720D01*
X13448Y-24767D01*
X13439Y-24785D01*
X13429Y-24795D01*
X13411Y-24804D01*
X13364Y-24804D01*
X13345Y-24795D01*
X13336Y-24785D01*
X12895Y-24529D02*
X12782Y-24529D01*
X12838Y-24529D02*
X12838Y-24332D01*
X12820Y-24360D01*
X12801Y-24379D01*
X12782Y-24389D01*
X13017Y-24332D02*
X13035Y-24332D01*
X13054Y-24342D01*
X13063Y-24351D01*
X13073Y-24370D01*
X13082Y-24407D01*
X13082Y-24454D01*
X13073Y-24492D01*
X13063Y-24510D01*
X13054Y-24520D01*
X13035Y-24529D01*
X13017Y-24529D01*
X12998Y-24520D01*
X12988Y-24510D01*
X12979Y-24492D01*
X12970Y-24454D01*
X12970Y-24407D01*
X12979Y-24370D01*
X12988Y-24351D01*
X12998Y-24342D01*
X13017Y-24332D01*
X13204Y-24332D02*
X13223Y-24332D01*
X13242Y-24342D01*
X13251Y-24351D01*
X13260Y-24370D01*
X13270Y-24407D01*
X13270Y-24454D01*
X13260Y-24492D01*
X13251Y-24510D01*
X13242Y-24520D01*
X13223Y-24529D01*
X13204Y-24529D01*
X13185Y-24520D01*
X13176Y-24510D01*
X13167Y-24492D01*
X13157Y-24454D01*
X13157Y-24407D01*
X13167Y-24370D01*
X13176Y-24351D01*
X13185Y-24342D01*
X13204Y-24332D01*
X13354Y-24398D02*
X13354Y-24529D01*
X13354Y-24417D02*
X13364Y-24407D01*
X13382Y-24398D01*
X13411Y-24398D01*
X13429Y-24407D01*
X13439Y-24426D01*
X13439Y-24529D01*
X13598Y-24426D02*
X13533Y-24426D01*
X13533Y-24529D02*
X13533Y-24332D01*
X13626Y-24332D01*
G54D20*
X13073Y-23960D02*
X13063Y-23970D01*
X13035Y-23979D01*
X13017Y-23979D01*
X12988Y-23970D01*
X12970Y-23951D01*
X12960Y-23932D01*
X12951Y-23895D01*
X12951Y-23867D01*
X12960Y-23829D01*
X12970Y-23810D01*
X12988Y-23792D01*
X13017Y-23782D01*
X13035Y-23782D01*
X13063Y-23792D01*
X13073Y-23801D01*
X13260Y-23979D02*
X13148Y-23979D01*
X13204Y-23979D02*
X13204Y-23782D01*
X13185Y-23810D01*
X13167Y-23829D01*
X13148Y-23839D01*
X13373Y-23867D02*
X13354Y-23857D01*
X13345Y-23848D01*
X13336Y-23829D01*
X13336Y-23820D01*
X13345Y-23801D01*
X13354Y-23792D01*
X13373Y-23782D01*
X13411Y-23782D01*
X13429Y-23792D01*
X13439Y-23801D01*
X13448Y-23820D01*
X13448Y-23829D01*
X13439Y-23848D01*
X13429Y-23857D01*
X13411Y-23867D01*
X13373Y-23867D01*
X13354Y-23876D01*
X13345Y-23885D01*
X13336Y-23904D01*
X13336Y-23942D01*
X13345Y-23960D01*
X13354Y-23970D01*
X13373Y-23979D01*
X13411Y-23979D01*
X13429Y-23970D01*
X13439Y-23960D01*
X13448Y-23942D01*
X13448Y-23904D01*
X13439Y-23885D01*
X13429Y-23876D01*
X13411Y-23867D01*
G54D14*
X17971Y-6964D02*
X17671Y-6964D01*
X17671Y-6850D01*
X17685Y-6821D01*
X17700Y-6807D01*
X17728Y-6792D01*
X17771Y-6792D01*
X17800Y-6807D01*
X17814Y-6821D01*
X17828Y-6850D01*
X17828Y-6964D01*
X17971Y-6507D02*
X17971Y-6678D01*
X17971Y-6592D02*
X17671Y-6592D01*
X17714Y-6621D01*
X17742Y-6650D01*
X17757Y-6678D01*
X17700Y-6392D02*
X17685Y-6378D01*
X17671Y-6350D01*
X17671Y-6278D01*
X17685Y-6250D01*
X17700Y-6235D01*
X17728Y-6221D01*
X17757Y-6221D01*
X17800Y-6235D01*
X17971Y-6407D01*
X17971Y-6221D01*
X7471Y-10021D02*
X7171Y-10021D01*
X7171Y-9907D01*
X7185Y-9878D01*
X7200Y-9864D01*
X7228Y-9850D01*
X7271Y-9850D01*
X7300Y-9864D01*
X7314Y-9878D01*
X7328Y-9907D01*
X7328Y-10021D01*
X7300Y-9678D02*
X7285Y-9707D01*
X7271Y-9721D01*
X7242Y-9735D01*
X7228Y-9735D01*
X7200Y-9721D01*
X7185Y-9707D01*
X7171Y-9678D01*
X7171Y-9621D01*
X7185Y-9592D01*
X7200Y-9578D01*
X7228Y-9564D01*
X7242Y-9564D01*
X7271Y-9578D01*
X7285Y-9592D01*
X7300Y-9621D01*
X7300Y-9678D01*
X7314Y-9707D01*
X7328Y-9721D01*
X7357Y-9735D01*
X7414Y-9735D01*
X7442Y-9721D01*
X7457Y-9707D01*
X7471Y-9678D01*
X7471Y-9621D01*
X7457Y-9592D01*
X7442Y-9578D01*
X7414Y-9564D01*
X7357Y-9564D01*
X7328Y-9578D01*
X7314Y-9592D01*
X7300Y-9621D01*
G54D18*
X9042Y-10700D02*
X9042Y-10985D01*
X8442Y-10985D01*
X8642Y-10242D02*
X9042Y-10242D01*
X8414Y-10385D02*
X8842Y-10528D01*
X8842Y-10157D01*
X10042Y-13285D02*
X10042Y-13628D01*
X10042Y-13457D02*
X9442Y-13457D01*
X9528Y-13514D01*
X9585Y-13571D01*
X9614Y-13628D01*
X9442Y-12742D02*
X9442Y-13028D01*
X9728Y-13057D01*
X9700Y-13028D01*
X9671Y-12971D01*
X9671Y-12828D01*
X9700Y-12771D01*
X9728Y-12742D01*
X9785Y-12714D01*
X9928Y-12714D01*
X9985Y-12742D01*
X10014Y-12771D01*
X10042Y-12828D01*
X10042Y-12971D01*
X10014Y-13028D01*
X9985Y-13057D01*
X9642Y-11742D02*
X10042Y-11742D01*
X9642Y-12000D02*
X9957Y-12000D01*
X10014Y-11971D01*
X10042Y-11914D01*
X10042Y-11828D01*
X10014Y-11771D01*
X9985Y-11742D01*
X10042Y-11457D02*
X9442Y-11457D01*
X9728Y-11457D02*
X9728Y-11114D01*
X10042Y-11114D02*
X9442Y-11114D01*
X9442Y-10257D02*
X9442Y-10200D01*
X9471Y-10142D01*
X9500Y-10114D01*
X9557Y-10085D01*
X9671Y-10057D01*
X9814Y-10057D01*
X9928Y-10085D01*
X9985Y-10114D01*
X10014Y-10142D01*
X10042Y-10200D01*
X10042Y-10257D01*
X10014Y-10314D01*
X9985Y-10342D01*
X9928Y-10371D01*
X9814Y-10400D01*
X9671Y-10400D01*
X9557Y-10371D01*
X9500Y-10342D01*
X9471Y-10314D01*
X9442Y-10257D01*
X9985Y-9800D02*
X10014Y-9771D01*
X10042Y-9800D01*
X10014Y-9828D01*
X9985Y-9800D01*
X10042Y-9800D01*
X9442Y-9400D02*
X9442Y-9342D01*
X9471Y-9285D01*
X9500Y-9257D01*
X9557Y-9228D01*
X9671Y-9200D01*
X9814Y-9200D01*
X9928Y-9228D01*
X9985Y-9257D01*
X10014Y-9285D01*
X10042Y-9342D01*
X10042Y-9400D01*
X10014Y-9457D01*
X9985Y-9485D01*
X9928Y-9514D01*
X9814Y-9542D01*
X9671Y-9542D01*
X9557Y-9514D01*
X9500Y-9485D01*
X9471Y-9457D01*
X9442Y-9400D01*
X9700Y-8857D02*
X9671Y-8914D01*
X9642Y-8942D01*
X9585Y-8971D01*
X9557Y-8971D01*
X9500Y-8942D01*
X9471Y-8914D01*
X9442Y-8857D01*
X9442Y-8742D01*
X9471Y-8685D01*
X9500Y-8657D01*
X9557Y-8628D01*
X9585Y-8628D01*
X9642Y-8657D01*
X9671Y-8685D01*
X9700Y-8742D01*
X9700Y-8857D01*
X9728Y-8914D01*
X9757Y-8942D01*
X9814Y-8971D01*
X9928Y-8971D01*
X9985Y-8942D01*
X10014Y-8914D01*
X10042Y-8857D01*
X10042Y-8742D01*
X10014Y-8685D01*
X9985Y-8657D01*
X9928Y-8628D01*
X9814Y-8628D01*
X9757Y-8657D01*
X9728Y-8685D01*
X9700Y-8742D01*
X10042Y-7571D02*
X9757Y-7771D01*
X10042Y-7914D02*
X9442Y-7914D01*
X9442Y-7685D01*
X9471Y-7628D01*
X9500Y-7599D01*
X9557Y-7571D01*
X9642Y-7571D01*
X9700Y-7599D01*
X9728Y-7628D01*
X9757Y-7685D01*
X9757Y-7914D01*
X13842Y-10800D02*
X13842Y-11085D01*
X13242Y-11085D01*
X13242Y-10657D02*
X13242Y-10285D01*
X13471Y-10485D01*
X13471Y-10400D01*
X13500Y-10342D01*
X13528Y-10314D01*
X13585Y-10285D01*
X13728Y-10285D01*
X13785Y-10314D01*
X13814Y-10342D01*
X13842Y-10400D01*
X13842Y-10571D01*
X13814Y-10628D01*
X13785Y-10657D01*
X14842Y-13385D02*
X14842Y-13728D01*
X14842Y-13557D02*
X14242Y-13557D01*
X14328Y-13614D01*
X14385Y-13671D01*
X14414Y-13728D01*
X14242Y-12842D02*
X14242Y-13128D01*
X14528Y-13157D01*
X14500Y-13128D01*
X14471Y-13071D01*
X14471Y-12928D01*
X14500Y-12871D01*
X14528Y-12842D01*
X14585Y-12814D01*
X14728Y-12814D01*
X14785Y-12842D01*
X14814Y-12871D01*
X14842Y-12928D01*
X14842Y-13071D01*
X14814Y-13128D01*
X14785Y-13157D01*
X14442Y-11842D02*
X14842Y-11842D01*
X14442Y-12100D02*
X14757Y-12100D01*
X14814Y-12071D01*
X14842Y-12014D01*
X14842Y-11928D01*
X14814Y-11871D01*
X14785Y-11842D01*
X14842Y-11557D02*
X14242Y-11557D01*
X14528Y-11557D02*
X14528Y-11214D01*
X14842Y-11214D02*
X14242Y-11214D01*
X14242Y-10357D02*
X14242Y-10300D01*
X14271Y-10242D01*
X14300Y-10214D01*
X14357Y-10185D01*
X14471Y-10157D01*
X14614Y-10157D01*
X14728Y-10185D01*
X14785Y-10214D01*
X14814Y-10242D01*
X14842Y-10300D01*
X14842Y-10357D01*
X14814Y-10414D01*
X14785Y-10442D01*
X14728Y-10471D01*
X14614Y-10500D01*
X14471Y-10500D01*
X14357Y-10471D01*
X14300Y-10442D01*
X14271Y-10414D01*
X14242Y-10357D01*
X14785Y-9900D02*
X14814Y-9871D01*
X14842Y-9900D01*
X14814Y-9928D01*
X14785Y-9900D01*
X14842Y-9900D01*
X14242Y-9500D02*
X14242Y-9442D01*
X14271Y-9385D01*
X14300Y-9357D01*
X14357Y-9328D01*
X14471Y-9300D01*
X14614Y-9300D01*
X14728Y-9328D01*
X14785Y-9357D01*
X14814Y-9385D01*
X14842Y-9442D01*
X14842Y-9500D01*
X14814Y-9557D01*
X14785Y-9585D01*
X14728Y-9614D01*
X14614Y-9642D01*
X14471Y-9642D01*
X14357Y-9614D01*
X14300Y-9585D01*
X14271Y-9557D01*
X14242Y-9500D01*
X14500Y-8957D02*
X14471Y-9014D01*
X14442Y-9042D01*
X14385Y-9071D01*
X14357Y-9071D01*
X14300Y-9042D01*
X14271Y-9014D01*
X14242Y-8957D01*
X14242Y-8842D01*
X14271Y-8785D01*
X14300Y-8757D01*
X14357Y-8728D01*
X14385Y-8728D01*
X14442Y-8757D01*
X14471Y-8785D01*
X14500Y-8842D01*
X14500Y-8957D01*
X14528Y-9014D01*
X14557Y-9042D01*
X14614Y-9071D01*
X14728Y-9071D01*
X14785Y-9042D01*
X14814Y-9014D01*
X14842Y-8957D01*
X14842Y-8842D01*
X14814Y-8785D01*
X14785Y-8757D01*
X14728Y-8728D01*
X14614Y-8728D01*
X14557Y-8757D01*
X14528Y-8785D01*
X14500Y-8842D01*
X14842Y-7671D02*
X14557Y-7871D01*
X14842Y-8014D02*
X14242Y-8014D01*
X14242Y-7785D01*
X14271Y-7728D01*
X14300Y-7699D01*
X14357Y-7671D01*
X14442Y-7671D01*
X14500Y-7699D01*
X14528Y-7728D01*
X14557Y-7785D01*
X14557Y-8014D01*
G54D19*
X44373Y-21654D02*
X44307Y-21560D01*
X44260Y-21654D02*
X44260Y-21457D01*
X44335Y-21457D01*
X44354Y-21467D01*
X44363Y-21476D01*
X44373Y-21495D01*
X44373Y-21523D01*
X44363Y-21542D01*
X44354Y-21551D01*
X44335Y-21560D01*
X44260Y-21560D01*
X44439Y-21457D02*
X44560Y-21457D01*
X44495Y-21532D01*
X44523Y-21532D01*
X44542Y-21542D01*
X44551Y-21551D01*
X44560Y-21570D01*
X44560Y-21617D01*
X44551Y-21635D01*
X44542Y-21645D01*
X44523Y-21654D01*
X44467Y-21654D01*
X44448Y-21645D01*
X44439Y-21635D01*
X44636Y-21476D02*
X44645Y-21467D01*
X44664Y-21457D01*
X44711Y-21457D01*
X44729Y-21467D01*
X44739Y-21476D01*
X44748Y-21495D01*
X44748Y-21514D01*
X44739Y-21542D01*
X44626Y-21654D01*
X44748Y-21654D01*
X44363Y-21929D02*
X44251Y-21929D01*
X44307Y-21929D02*
X44307Y-21732D01*
X44288Y-21760D01*
X44270Y-21779D01*
X44251Y-21789D01*
X44485Y-21732D02*
X44504Y-21732D01*
X44523Y-21742D01*
X44532Y-21751D01*
X44542Y-21770D01*
X44551Y-21807D01*
X44551Y-21854D01*
X44542Y-21892D01*
X44532Y-21910D01*
X44523Y-21920D01*
X44504Y-21929D01*
X44485Y-21929D01*
X44467Y-21920D01*
X44457Y-21910D01*
X44448Y-21892D01*
X44439Y-21854D01*
X44439Y-21807D01*
X44448Y-21770D01*
X44457Y-21751D01*
X44467Y-21742D01*
X44485Y-21732D01*
X44636Y-21929D02*
X44636Y-21732D01*
X44748Y-21929D02*
X44664Y-21817D01*
X44748Y-21732D02*
X44636Y-21845D01*
G54D11*
X48192Y-20607D02*
X48678Y-20607D01*
X48735Y-20578D01*
X48764Y-20550D01*
X48792Y-20492D01*
X48792Y-20378D01*
X48764Y-20321D01*
X48735Y-20292D01*
X48678Y-20264D01*
X48192Y-20264D01*
X48450Y-19892D02*
X48421Y-19950D01*
X48392Y-19978D01*
X48335Y-20007D01*
X48307Y-20007D01*
X48250Y-19978D01*
X48221Y-19950D01*
X48192Y-19892D01*
X48192Y-19778D01*
X48221Y-19721D01*
X48250Y-19692D01*
X48307Y-19664D01*
X48335Y-19664D01*
X48392Y-19692D01*
X48421Y-19721D01*
X48450Y-19778D01*
X48450Y-19892D01*
X48478Y-19950D01*
X48507Y-19978D01*
X48564Y-20007D01*
X48678Y-20007D01*
X48735Y-19978D01*
X48764Y-19950D01*
X48792Y-19892D01*
X48792Y-19778D01*
X48764Y-19721D01*
X48735Y-19692D01*
X48678Y-19664D01*
X48564Y-19664D01*
X48507Y-19692D01*
X48478Y-19721D01*
X48450Y-19778D01*
X47192Y-22114D02*
X47192Y-21828D01*
X47792Y-21971D02*
X47192Y-21971D01*
X47792Y-21661D02*
X47192Y-21661D01*
X47192Y-21471D01*
X47221Y-21423D01*
X47250Y-21400D01*
X47307Y-21376D01*
X47392Y-21376D01*
X47450Y-21400D01*
X47478Y-21423D01*
X47507Y-21471D01*
X47507Y-21661D01*
X47792Y-21161D02*
X47192Y-21161D01*
X47735Y-20638D02*
X47764Y-20661D01*
X47792Y-20733D01*
X47792Y-20780D01*
X47764Y-20852D01*
X47707Y-20900D01*
X47650Y-20923D01*
X47535Y-20947D01*
X47450Y-20947D01*
X47335Y-20923D01*
X47278Y-20900D01*
X47221Y-20852D01*
X47192Y-20780D01*
X47192Y-20733D01*
X47221Y-20661D01*
X47250Y-20638D01*
X47192Y-20209D02*
X47192Y-20304D01*
X47221Y-20352D01*
X47250Y-20376D01*
X47335Y-20423D01*
X47450Y-20447D01*
X47678Y-20447D01*
X47735Y-20423D01*
X47764Y-20400D01*
X47792Y-20352D01*
X47792Y-20257D01*
X47764Y-20209D01*
X47735Y-20185D01*
X47678Y-20161D01*
X47535Y-20161D01*
X47478Y-20185D01*
X47450Y-20209D01*
X47421Y-20257D01*
X47421Y-20352D01*
X47450Y-20400D01*
X47478Y-20423D01*
X47535Y-20447D01*
X47478Y-19780D02*
X47507Y-19709D01*
X47535Y-19685D01*
X47592Y-19661D01*
X47678Y-19661D01*
X47735Y-19685D01*
X47764Y-19709D01*
X47792Y-19757D01*
X47792Y-19947D01*
X47192Y-19947D01*
X47192Y-19780D01*
X47221Y-19733D01*
X47250Y-19709D01*
X47307Y-19685D01*
X47364Y-19685D01*
X47421Y-19709D01*
X47450Y-19733D01*
X47478Y-19780D01*
X47478Y-19947D01*
X47192Y-19209D02*
X47192Y-19447D01*
X47478Y-19471D01*
X47450Y-19447D01*
X47421Y-19400D01*
X47421Y-19280D01*
X47450Y-19233D01*
X47478Y-19209D01*
X47535Y-19185D01*
X47678Y-19185D01*
X47735Y-19209D01*
X47764Y-19233D01*
X47792Y-19280D01*
X47792Y-19400D01*
X47764Y-19447D01*
X47735Y-19471D01*
X47792Y-18947D02*
X47792Y-18852D01*
X47764Y-18804D01*
X47735Y-18780D01*
X47650Y-18733D01*
X47535Y-18709D01*
X47307Y-18709D01*
X47250Y-18733D01*
X47221Y-18757D01*
X47192Y-18804D01*
X47192Y-18899D01*
X47221Y-18947D01*
X47250Y-18971D01*
X47307Y-18995D01*
X47450Y-18995D01*
X47507Y-18971D01*
X47535Y-18947D01*
X47564Y-18899D01*
X47564Y-18804D01*
X47535Y-18757D01*
X47507Y-18733D01*
X47450Y-18709D01*
X47192Y-18257D02*
X47192Y-18495D01*
X47478Y-18519D01*
X47450Y-18495D01*
X47421Y-18447D01*
X47421Y-18328D01*
X47450Y-18280D01*
X47478Y-18257D01*
X47535Y-18233D01*
X47678Y-18233D01*
X47735Y-18257D01*
X47764Y-18280D01*
X47792Y-18328D01*
X47792Y-18447D01*
X47764Y-18495D01*
X47735Y-18519D01*
X45117Y-27367D02*
X45117Y-27853D01*
X45146Y-27910D01*
X45175Y-27939D01*
X45232Y-27967D01*
X45346Y-27967D01*
X45403Y-27939D01*
X45432Y-27910D01*
X45460Y-27853D01*
X45460Y-27367D01*
X46032Y-27367D02*
X45746Y-27367D01*
X45717Y-27653D01*
X45746Y-27625D01*
X45803Y-27596D01*
X45946Y-27596D01*
X46003Y-27625D01*
X46032Y-27653D01*
X46060Y-27710D01*
X46060Y-27853D01*
X46032Y-27910D01*
X46003Y-27939D01*
X45946Y-27967D01*
X45803Y-27967D01*
X45746Y-27939D01*
X45717Y-27910D01*
X43610Y-26367D02*
X43896Y-26367D01*
X43753Y-26967D02*
X43753Y-26367D01*
X44063Y-26967D02*
X44063Y-26367D01*
X44253Y-26367D01*
X44301Y-26396D01*
X44325Y-26425D01*
X44348Y-26482D01*
X44348Y-26567D01*
X44325Y-26625D01*
X44301Y-26653D01*
X44253Y-26682D01*
X44063Y-26682D01*
X44563Y-26967D02*
X44563Y-26367D01*
X45086Y-26910D02*
X45063Y-26939D01*
X44991Y-26967D01*
X44944Y-26967D01*
X44872Y-26939D01*
X44825Y-26882D01*
X44801Y-26825D01*
X44777Y-26710D01*
X44777Y-26625D01*
X44801Y-26510D01*
X44825Y-26453D01*
X44872Y-26396D01*
X44944Y-26367D01*
X44991Y-26367D01*
X45063Y-26396D01*
X45086Y-26425D01*
X45515Y-26367D02*
X45420Y-26367D01*
X45372Y-26396D01*
X45348Y-26425D01*
X45301Y-26510D01*
X45277Y-26625D01*
X45277Y-26853D01*
X45301Y-26910D01*
X45325Y-26939D01*
X45372Y-26967D01*
X45467Y-26967D01*
X45515Y-26939D01*
X45539Y-26910D01*
X45563Y-26853D01*
X45563Y-26710D01*
X45539Y-26653D01*
X45515Y-26625D01*
X45467Y-26596D01*
X45372Y-26596D01*
X45325Y-26625D01*
X45301Y-26653D01*
X45277Y-26710D01*
X45944Y-26653D02*
X46015Y-26682D01*
X46039Y-26710D01*
X46063Y-26767D01*
X46063Y-26853D01*
X46039Y-26910D01*
X46015Y-26939D01*
X45967Y-26967D01*
X45777Y-26967D01*
X45777Y-26367D01*
X45944Y-26367D01*
X45991Y-26396D01*
X46015Y-26425D01*
X46039Y-26482D01*
X46039Y-26539D01*
X46015Y-26596D01*
X45991Y-26625D01*
X45944Y-26653D01*
X45777Y-26653D01*
X46515Y-26367D02*
X46277Y-26367D01*
X46253Y-26653D01*
X46277Y-26625D01*
X46325Y-26596D01*
X46444Y-26596D01*
X46491Y-26625D01*
X46515Y-26653D01*
X46539Y-26710D01*
X46539Y-26853D01*
X46515Y-26910D01*
X46491Y-26939D01*
X46444Y-26967D01*
X46325Y-26967D01*
X46277Y-26939D01*
X46253Y-26910D01*
X46777Y-26967D02*
X46872Y-26967D01*
X46920Y-26939D01*
X46944Y-26910D01*
X46991Y-26825D01*
X47015Y-26710D01*
X47015Y-26482D01*
X46991Y-26425D01*
X46967Y-26396D01*
X46920Y-26367D01*
X46825Y-26367D01*
X46777Y-26396D01*
X46753Y-26425D01*
X46729Y-26482D01*
X46729Y-26625D01*
X46753Y-26682D01*
X46777Y-26710D01*
X46825Y-26739D01*
X46920Y-26739D01*
X46967Y-26710D01*
X46991Y-26682D01*
X47015Y-26625D01*
X47467Y-26367D02*
X47229Y-26367D01*
X47205Y-26653D01*
X47229Y-26625D01*
X47277Y-26596D01*
X47396Y-26596D01*
X47444Y-26625D01*
X47467Y-26653D01*
X47491Y-26710D01*
X47491Y-26853D01*
X47467Y-26910D01*
X47444Y-26939D01*
X47396Y-26967D01*
X47277Y-26967D01*
X47229Y-26939D01*
X47205Y-26910D01*
X34842Y-27957D02*
X35328Y-27957D01*
X35385Y-27928D01*
X35414Y-27900D01*
X35442Y-27842D01*
X35442Y-27728D01*
X35414Y-27671D01*
X35385Y-27642D01*
X35328Y-27614D01*
X34842Y-27614D01*
X35042Y-27071D02*
X35442Y-27071D01*
X34814Y-27214D02*
X35242Y-27357D01*
X35242Y-26985D01*
X33642Y-29357D02*
X33642Y-29014D01*
X34242Y-29185D02*
X33642Y-29185D01*
X34242Y-28528D02*
X34242Y-28814D01*
X33642Y-28814D01*
X34185Y-27985D02*
X34214Y-28014D01*
X34242Y-28100D01*
X34242Y-28157D01*
X34214Y-28242D01*
X34157Y-28300D01*
X34100Y-28328D01*
X33985Y-28357D01*
X33900Y-28357D01*
X33785Y-28328D01*
X33728Y-28300D01*
X33671Y-28242D01*
X33642Y-28157D01*
X33642Y-28100D01*
X33671Y-28014D01*
X33700Y-27985D01*
X33642Y-27442D02*
X33642Y-27728D01*
X33928Y-27757D01*
X33900Y-27728D01*
X33871Y-27671D01*
X33871Y-27528D01*
X33900Y-27471D01*
X33928Y-27442D01*
X33985Y-27414D01*
X34128Y-27414D01*
X34185Y-27442D01*
X34214Y-27471D01*
X34242Y-27528D01*
X34242Y-27671D01*
X34214Y-27728D01*
X34185Y-27757D01*
X34242Y-27128D02*
X34242Y-27014D01*
X34214Y-26957D01*
X34185Y-26928D01*
X34100Y-26871D01*
X33985Y-26842D01*
X33757Y-26842D01*
X33700Y-26871D01*
X33671Y-26900D01*
X33642Y-26957D01*
X33642Y-27071D01*
X33671Y-27128D01*
X33700Y-27157D01*
X33757Y-27185D01*
X33900Y-27185D01*
X33957Y-27157D01*
X33985Y-27128D01*
X34014Y-27071D01*
X34014Y-26957D01*
X33985Y-26900D01*
X33957Y-26871D01*
X33900Y-26842D01*
X33700Y-26614D02*
X33671Y-26585D01*
X33642Y-26528D01*
X33642Y-26385D01*
X33671Y-26328D01*
X33700Y-26300D01*
X33757Y-26271D01*
X33814Y-26271D01*
X33900Y-26300D01*
X34242Y-26642D01*
X34242Y-26271D01*
X33642Y-26071D02*
X34242Y-25671D01*
X33642Y-25671D02*
X34242Y-26071D01*
G54D19*
X44373Y-20754D02*
X44307Y-20660D01*
X44260Y-20754D02*
X44260Y-20557D01*
X44335Y-20557D01*
X44354Y-20567D01*
X44363Y-20576D01*
X44373Y-20595D01*
X44373Y-20623D01*
X44363Y-20642D01*
X44354Y-20651D01*
X44335Y-20660D01*
X44260Y-20660D01*
X44551Y-20557D02*
X44457Y-20557D01*
X44448Y-20651D01*
X44457Y-20642D01*
X44476Y-20632D01*
X44523Y-20632D01*
X44542Y-20642D01*
X44551Y-20651D01*
X44560Y-20670D01*
X44560Y-20717D01*
X44551Y-20735D01*
X44542Y-20745D01*
X44523Y-20754D01*
X44476Y-20754D01*
X44457Y-20745D01*
X44448Y-20735D01*
X44729Y-20557D02*
X44692Y-20557D01*
X44673Y-20567D01*
X44664Y-20576D01*
X44645Y-20604D01*
X44636Y-20642D01*
X44636Y-20717D01*
X44645Y-20735D01*
X44654Y-20745D01*
X44673Y-20754D01*
X44711Y-20754D01*
X44729Y-20745D01*
X44739Y-20735D01*
X44748Y-20717D01*
X44748Y-20670D01*
X44739Y-20651D01*
X44729Y-20642D01*
X44711Y-20632D01*
X44673Y-20632D01*
X44654Y-20642D01*
X44645Y-20651D01*
X44636Y-20670D01*
X44363Y-21029D02*
X44251Y-21029D01*
X44307Y-21029D02*
X44307Y-20832D01*
X44288Y-20860D01*
X44270Y-20879D01*
X44251Y-20889D01*
X44485Y-20832D02*
X44504Y-20832D01*
X44523Y-20842D01*
X44532Y-20851D01*
X44542Y-20870D01*
X44551Y-20907D01*
X44551Y-20954D01*
X44542Y-20992D01*
X44532Y-21010D01*
X44523Y-21020D01*
X44504Y-21029D01*
X44485Y-21029D01*
X44467Y-21020D01*
X44457Y-21010D01*
X44448Y-20992D01*
X44439Y-20954D01*
X44439Y-20907D01*
X44448Y-20870D01*
X44457Y-20851D01*
X44467Y-20842D01*
X44485Y-20832D01*
X44636Y-21029D02*
X44636Y-20832D01*
X44748Y-21029D02*
X44664Y-20917D01*
X44748Y-20832D02*
X44636Y-20945D01*
X44623Y-24704D02*
X44557Y-24610D01*
X44510Y-24704D02*
X44510Y-24507D01*
X44585Y-24507D01*
X44604Y-24517D01*
X44613Y-24526D01*
X44623Y-24545D01*
X44623Y-24573D01*
X44613Y-24592D01*
X44604Y-24601D01*
X44585Y-24610D01*
X44510Y-24610D01*
X44801Y-24507D02*
X44707Y-24507D01*
X44698Y-24601D01*
X44707Y-24592D01*
X44726Y-24582D01*
X44773Y-24582D01*
X44792Y-24592D01*
X44801Y-24601D01*
X44810Y-24620D01*
X44810Y-24667D01*
X44801Y-24685D01*
X44792Y-24695D01*
X44773Y-24704D01*
X44726Y-24704D01*
X44707Y-24695D01*
X44698Y-24685D01*
X44876Y-24507D02*
X45007Y-24507D01*
X44923Y-24704D01*
X44613Y-24429D02*
X44501Y-24429D01*
X44557Y-24429D02*
X44557Y-24232D01*
X44538Y-24260D01*
X44520Y-24279D01*
X44501Y-24289D01*
X44735Y-24232D02*
X44754Y-24232D01*
X44773Y-24242D01*
X44782Y-24251D01*
X44792Y-24270D01*
X44801Y-24307D01*
X44801Y-24354D01*
X44792Y-24392D01*
X44782Y-24410D01*
X44773Y-24420D01*
X44754Y-24429D01*
X44735Y-24429D01*
X44717Y-24420D01*
X44707Y-24410D01*
X44698Y-24392D01*
X44689Y-24354D01*
X44689Y-24307D01*
X44698Y-24270D01*
X44707Y-24251D01*
X44717Y-24242D01*
X44735Y-24232D01*
X44886Y-24429D02*
X44886Y-24232D01*
X44998Y-24429D02*
X44914Y-24317D01*
X44998Y-24232D02*
X44886Y-24345D01*
G54D22*
X38275Y-17924D02*
X38275Y-18163D01*
X38289Y-18191D01*
X38303Y-18205D01*
X38331Y-18219D01*
X38387Y-18219D01*
X38415Y-18205D01*
X38429Y-18191D01*
X38443Y-18163D01*
X38443Y-17924D01*
X38556Y-17924D02*
X38738Y-17924D01*
X38640Y-18036D01*
X38682Y-18036D01*
X38710Y-18050D01*
X38724Y-18064D01*
X38738Y-18092D01*
X38738Y-18163D01*
X38724Y-18191D01*
X38710Y-18205D01*
X38682Y-18219D01*
X38598Y-18219D01*
X38570Y-18205D01*
X38556Y-18191D01*
X37874Y-17419D02*
X37931Y-17419D01*
X37959Y-17405D01*
X37973Y-17391D01*
X38001Y-17349D01*
X38015Y-17292D01*
X38015Y-17180D01*
X38001Y-17152D01*
X37987Y-17138D01*
X37959Y-17124D01*
X37902Y-17124D01*
X37874Y-17138D01*
X37860Y-17152D01*
X37846Y-17180D01*
X37846Y-17250D01*
X37860Y-17278D01*
X37874Y-17292D01*
X37902Y-17307D01*
X37959Y-17307D01*
X37987Y-17292D01*
X38001Y-17278D01*
X38015Y-17250D01*
X38113Y-17124D02*
X38296Y-17124D01*
X38197Y-17236D01*
X38240Y-17236D01*
X38268Y-17250D01*
X38282Y-17264D01*
X38296Y-17292D01*
X38296Y-17363D01*
X38282Y-17391D01*
X38268Y-17405D01*
X38240Y-17419D01*
X38155Y-17419D01*
X38127Y-17405D01*
X38113Y-17391D01*
X38591Y-17391D02*
X38577Y-17405D01*
X38535Y-17419D01*
X38507Y-17419D01*
X38464Y-17405D01*
X38436Y-17377D01*
X38422Y-17349D01*
X38408Y-17292D01*
X38408Y-17250D01*
X38422Y-17194D01*
X38436Y-17166D01*
X38464Y-17138D01*
X38507Y-17124D01*
X38535Y-17124D01*
X38577Y-17138D01*
X38591Y-17152D01*
X38759Y-17250D02*
X38731Y-17236D01*
X38717Y-17222D01*
X38703Y-17194D01*
X38703Y-17180D01*
X38717Y-17152D01*
X38731Y-17138D01*
X38759Y-17124D01*
X38816Y-17124D01*
X38844Y-17138D01*
X38858Y-17152D01*
X38872Y-17180D01*
X38872Y-17194D01*
X38858Y-17222D01*
X38844Y-17236D01*
X38816Y-17250D01*
X38759Y-17250D01*
X38731Y-17264D01*
X38717Y-17278D01*
X38703Y-17307D01*
X38703Y-17363D01*
X38717Y-17391D01*
X38731Y-17405D01*
X38759Y-17419D01*
X38816Y-17419D01*
X38844Y-17405D01*
X38858Y-17391D01*
X38872Y-17363D01*
X38872Y-17307D01*
X38858Y-17278D01*
X38844Y-17264D01*
X38816Y-17250D01*
X39125Y-17124D02*
X39068Y-17124D01*
X39040Y-17138D01*
X39026Y-17152D01*
X38998Y-17194D01*
X38984Y-17250D01*
X38984Y-17363D01*
X38998Y-17391D01*
X39012Y-17405D01*
X39040Y-17419D01*
X39097Y-17419D01*
X39125Y-17405D01*
X39139Y-17391D01*
X39153Y-17363D01*
X39153Y-17292D01*
X39139Y-17264D01*
X39125Y-17250D01*
X39097Y-17236D01*
X39040Y-17236D01*
X39012Y-17250D01*
X38998Y-17264D01*
X38984Y-17292D01*
G54D19*
X40385Y-19232D02*
X40395Y-19242D01*
X40404Y-19270D01*
X40404Y-19289D01*
X40395Y-19317D01*
X40376Y-19336D01*
X40357Y-19345D01*
X40320Y-19354D01*
X40292Y-19354D01*
X40254Y-19345D01*
X40235Y-19336D01*
X40217Y-19317D01*
X40207Y-19289D01*
X40207Y-19270D01*
X40217Y-19242D01*
X40226Y-19232D01*
X40404Y-19139D02*
X40404Y-19101D01*
X40395Y-19082D01*
X40385Y-19073D01*
X40357Y-19054D01*
X40320Y-19045D01*
X40245Y-19045D01*
X40226Y-19054D01*
X40217Y-19063D01*
X40207Y-19082D01*
X40207Y-19120D01*
X40217Y-19139D01*
X40226Y-19148D01*
X40245Y-19157D01*
X40292Y-19157D01*
X40310Y-19148D01*
X40320Y-19139D01*
X40329Y-19120D01*
X40329Y-19082D01*
X40320Y-19063D01*
X40310Y-19054D01*
X40292Y-19045D01*
X40129Y-19504D02*
X40129Y-19617D01*
X40129Y-19561D02*
X39932Y-19561D01*
X39960Y-19579D01*
X39979Y-19598D01*
X39989Y-19617D01*
X39932Y-19382D02*
X39932Y-19364D01*
X39942Y-19345D01*
X39951Y-19336D01*
X39970Y-19326D01*
X40007Y-19317D01*
X40054Y-19317D01*
X40092Y-19326D01*
X40110Y-19336D01*
X40120Y-19345D01*
X40129Y-19364D01*
X40129Y-19382D01*
X40120Y-19401D01*
X40110Y-19411D01*
X40092Y-19420D01*
X40054Y-19429D01*
X40007Y-19429D01*
X39970Y-19420D01*
X39951Y-19411D01*
X39942Y-19401D01*
X39932Y-19382D01*
X39932Y-19195D02*
X39932Y-19176D01*
X39942Y-19157D01*
X39951Y-19148D01*
X39970Y-19139D01*
X40007Y-19129D01*
X40054Y-19129D01*
X40092Y-19139D01*
X40110Y-19148D01*
X40120Y-19157D01*
X40129Y-19176D01*
X40129Y-19195D01*
X40120Y-19214D01*
X40110Y-19223D01*
X40092Y-19232D01*
X40054Y-19242D01*
X40007Y-19242D01*
X39970Y-19232D01*
X39951Y-19223D01*
X39942Y-19214D01*
X39932Y-19195D01*
X39998Y-19045D02*
X40129Y-19045D01*
X40017Y-19045D02*
X40007Y-19035D01*
X39998Y-19017D01*
X39998Y-18988D01*
X40007Y-18970D01*
X40026Y-18960D01*
X40129Y-18960D01*
X40026Y-18801D02*
X40026Y-18866D01*
X40129Y-18866D02*
X39932Y-18866D01*
X39932Y-18773D01*
G54D14*
X8200Y-20352D02*
X8100Y-20352D01*
X8100Y-20561D02*
X8100Y-20161D01*
X8242Y-20161D01*
X8514Y-20561D02*
X8342Y-20561D01*
X8428Y-20561D02*
X8428Y-20161D01*
X8400Y-20219D01*
X8371Y-20257D01*
X8342Y-20276D01*
X7907Y-19852D02*
X7807Y-19852D01*
X7807Y-20061D02*
X7807Y-19661D01*
X7950Y-19661D01*
X8064Y-19661D02*
X8064Y-19985D01*
X8078Y-20023D01*
X8092Y-20042D01*
X8121Y-20061D01*
X8178Y-20061D01*
X8207Y-20042D01*
X8221Y-20023D01*
X8235Y-19985D01*
X8235Y-19661D01*
X8364Y-20042D02*
X8407Y-20061D01*
X8478Y-20061D01*
X8507Y-20042D01*
X8521Y-20023D01*
X8535Y-19985D01*
X8535Y-19947D01*
X8521Y-19909D01*
X8507Y-19890D01*
X8478Y-19871D01*
X8421Y-19852D01*
X8392Y-19833D01*
X8378Y-19814D01*
X8364Y-19776D01*
X8364Y-19738D01*
X8378Y-19700D01*
X8392Y-19680D01*
X8421Y-19661D01*
X8492Y-19661D01*
X8535Y-19680D01*
X8664Y-19852D02*
X8764Y-19852D01*
X8807Y-20061D02*
X8664Y-20061D01*
X8664Y-19661D01*
X8807Y-19661D01*
G54D18*
X15692Y-15992D02*
X15092Y-15992D01*
X15092Y-15850D01*
X15121Y-15764D01*
X15178Y-15707D01*
X15235Y-15678D01*
X15350Y-15650D01*
X15435Y-15650D01*
X15550Y-15678D01*
X15607Y-15707D01*
X15664Y-15764D01*
X15692Y-15850D01*
X15692Y-15992D01*
X15350Y-15307D02*
X15321Y-15364D01*
X15292Y-15392D01*
X15235Y-15421D01*
X15207Y-15421D01*
X15150Y-15392D01*
X15121Y-15364D01*
X15092Y-15307D01*
X15092Y-15192D01*
X15121Y-15135D01*
X15150Y-15107D01*
X15207Y-15078D01*
X15235Y-15078D01*
X15292Y-15107D01*
X15321Y-15135D01*
X15350Y-15192D01*
X15350Y-15307D01*
X15378Y-15364D01*
X15407Y-15392D01*
X15464Y-15421D01*
X15578Y-15421D01*
X15635Y-15392D01*
X15664Y-15364D01*
X15692Y-15307D01*
X15692Y-15192D01*
X15664Y-15135D01*
X15635Y-15107D01*
X15578Y-15078D01*
X15464Y-15078D01*
X15407Y-15107D01*
X15378Y-15135D01*
X15350Y-15192D01*
G54D12*
X17603Y-16895D02*
X17603Y-16802D01*
X17659Y-16914D02*
X17462Y-16848D01*
X17659Y-16783D01*
X17698Y-14420D02*
X17501Y-14420D01*
X17698Y-14308D02*
X17586Y-14392D01*
X17501Y-14308D02*
X17614Y-14420D01*
G54D18*
X7542Y-16542D02*
X6942Y-16542D01*
X6942Y-16400D01*
X6971Y-16314D01*
X7028Y-16257D01*
X7085Y-16228D01*
X7200Y-16200D01*
X7285Y-16200D01*
X7400Y-16228D01*
X7457Y-16257D01*
X7514Y-16314D01*
X7542Y-16400D01*
X7542Y-16542D01*
X7542Y-15914D02*
X7542Y-15800D01*
X7514Y-15742D01*
X7485Y-15714D01*
X7400Y-15657D01*
X7285Y-15628D01*
X7057Y-15628D01*
X7000Y-15657D01*
X6971Y-15685D01*
X6942Y-15742D01*
X6942Y-15857D01*
X6971Y-15914D01*
X7000Y-15942D01*
X7057Y-15971D01*
X7200Y-15971D01*
X7257Y-15942D01*
X7285Y-15914D01*
X7314Y-15857D01*
X7314Y-15742D01*
X7285Y-15685D01*
X7257Y-15657D01*
X7200Y-15628D01*
G54D12*
X5193Y-14847D02*
X5193Y-14754D01*
X5249Y-14866D02*
X5052Y-14800D01*
X5249Y-14735D01*
X5210Y-17332D02*
X5013Y-17332D01*
X5210Y-17220D02*
X5098Y-17304D01*
X5013Y-17220D02*
X5126Y-17332D01*
M02*
