G04 #@! TF.FileFunction,Copper,L1,Top,Signal*
%FSLAX46Y46*%
G04 Gerber Fmt 4.6, Leading zero omitted, Abs format (unit mm)*
G04 Created by KiCad (PCBNEW 4.0.7-e0-6372~58~ubuntu16.10.1) date Thu Feb  8 12:56:22 2018*
%MOMM*%
%LPD*%
G01*
G04 APERTURE LIST*
%ADD10C,0.100000*%
%ADD11R,1.100000X1.100000*%
%ADD12C,1.100000*%
%ADD13O,1.506220X3.014980*%
%ADD14C,0.254000*%
G04 APERTURE END LIST*
D10*
D11*
X3500000Y-22250000D03*
D12*
X3500000Y-20750000D03*
X3500000Y-19250000D03*
X3500000Y-17750000D03*
D11*
X9000000Y-22250000D03*
D12*
X9000000Y-20750000D03*
X9000000Y-19250000D03*
X9000000Y-17750000D03*
D11*
X14500000Y-22250000D03*
D12*
X14500000Y-20750000D03*
X14500000Y-19250000D03*
X14500000Y-17750000D03*
D11*
X20000000Y-22250000D03*
D12*
X20000000Y-20750000D03*
X20000000Y-19250000D03*
X20000000Y-17750000D03*
D11*
X25500000Y-22250000D03*
D12*
X25500000Y-20750000D03*
X25500000Y-19250000D03*
X25500000Y-17750000D03*
D11*
X31000000Y-22250000D03*
D12*
X31000000Y-20750000D03*
X31000000Y-19250000D03*
X31000000Y-17750000D03*
D11*
X36500000Y-22250000D03*
D12*
X36500000Y-20750000D03*
X36500000Y-19250000D03*
X36500000Y-17750000D03*
D11*
X42000000Y-22250000D03*
D12*
X42000000Y-20750000D03*
X42000000Y-19250000D03*
X42000000Y-17750000D03*
D11*
X47500000Y-22250000D03*
D12*
X47500000Y-20750000D03*
X47500000Y-19250000D03*
X47500000Y-17750000D03*
D11*
X53000000Y-22250000D03*
D12*
X53000000Y-20750000D03*
X53000000Y-19250000D03*
X53000000Y-17750000D03*
D11*
X58500000Y-22250000D03*
D12*
X58500000Y-20750000D03*
X58500000Y-19250000D03*
X58500000Y-17750000D03*
D11*
X64000000Y-22250000D03*
D12*
X64000000Y-20750000D03*
X64000000Y-19250000D03*
X64000000Y-17750000D03*
D11*
X69500000Y-22250000D03*
D12*
X69500000Y-20750000D03*
X69500000Y-19250000D03*
X69500000Y-17750000D03*
D11*
X75000000Y-22250000D03*
D12*
X75000000Y-20750000D03*
X75000000Y-19250000D03*
X75000000Y-17750000D03*
D11*
X80500000Y-22250000D03*
D12*
X80500000Y-20750000D03*
X80500000Y-19250000D03*
X80500000Y-17750000D03*
D11*
X86000000Y-22250000D03*
D12*
X86000000Y-20750000D03*
X86000000Y-19250000D03*
X86000000Y-17750000D03*
D13*
X13070000Y-12000000D03*
X15610000Y-12000000D03*
X18150000Y-12000000D03*
X20690000Y-12000000D03*
X35930000Y-12000000D03*
X33390000Y-12000000D03*
X30850000Y-12000000D03*
X28310000Y-12000000D03*
X25770000Y-12000000D03*
X23230000Y-12000000D03*
X65570000Y-12000000D03*
X68110000Y-12000000D03*
X70650000Y-12000000D03*
X73190000Y-12000000D03*
X88430000Y-12000000D03*
X85890000Y-12000000D03*
X83350000Y-12000000D03*
X80810000Y-12000000D03*
X78270000Y-12000000D03*
X75730000Y-12000000D03*
X23570000Y-4500000D03*
X26110000Y-4500000D03*
X28650000Y-4500000D03*
X31190000Y-4500000D03*
X46430000Y-4500000D03*
X43890000Y-4500000D03*
X41350000Y-4500000D03*
X38810000Y-4500000D03*
X36270000Y-4500000D03*
X33730000Y-4500000D03*
X54070000Y-4500000D03*
X56610000Y-4500000D03*
X59150000Y-4500000D03*
X61690000Y-4500000D03*
X76930000Y-4500000D03*
X74390000Y-4500000D03*
X71850000Y-4500000D03*
X69310000Y-4500000D03*
X66770000Y-4500000D03*
X64230000Y-4500000D03*
D11*
X91500000Y-22250000D03*
D12*
X91500000Y-20750000D03*
X91500000Y-19250000D03*
X91500000Y-17750000D03*
D11*
X97000000Y-22250000D03*
D12*
X97000000Y-20750000D03*
X97000000Y-19250000D03*
X97000000Y-17750000D03*
D14*
G36*
X99598000Y-31598000D02*
X402000Y-31598000D01*
X402000Y-28381622D01*
X3072666Y-28381622D01*
X3365416Y-29090132D01*
X3907017Y-29632678D01*
X4615014Y-29926665D01*
X5381622Y-29927334D01*
X6090132Y-29634584D01*
X6632678Y-29092983D01*
X6926665Y-28384986D01*
X6926667Y-28381622D01*
X93072666Y-28381622D01*
X93365416Y-29090132D01*
X93907017Y-29632678D01*
X94615014Y-29926665D01*
X95381622Y-29927334D01*
X96090132Y-29634584D01*
X96632678Y-29092983D01*
X96926665Y-28384986D01*
X96927334Y-27618378D01*
X96634584Y-26909868D01*
X96092983Y-26367322D01*
X95384986Y-26073335D01*
X94618378Y-26072666D01*
X93909868Y-26365416D01*
X93367322Y-26907017D01*
X93073335Y-27615014D01*
X93072666Y-28381622D01*
X6926667Y-28381622D01*
X6927334Y-27618378D01*
X6634584Y-26909868D01*
X6092983Y-26367322D01*
X5384986Y-26073335D01*
X4618378Y-26072666D01*
X3909868Y-26365416D01*
X3367322Y-26907017D01*
X3073335Y-27615014D01*
X3072666Y-28381622D01*
X402000Y-28381622D01*
X402000Y-20593001D01*
X2302028Y-20593001D01*
X2333137Y-21063396D01*
X2453299Y-21353492D01*
X2673564Y-21396828D01*
X2557618Y-21512774D01*
X2638192Y-21593348D01*
X2616594Y-21700000D01*
X2616594Y-22800000D01*
X2639395Y-22921179D01*
X2711012Y-23032474D01*
X2820286Y-23107138D01*
X2950000Y-23133406D01*
X4050000Y-23133406D01*
X4171179Y-23110605D01*
X4282474Y-23038988D01*
X4357138Y-22929714D01*
X4383406Y-22800000D01*
X4383406Y-21700000D01*
X4363096Y-21592060D01*
X4442382Y-21512774D01*
X4326436Y-21396828D01*
X4546701Y-21353492D01*
X4697972Y-20906999D01*
X4677207Y-20593001D01*
X7802028Y-20593001D01*
X7833137Y-21063396D01*
X7953299Y-21353492D01*
X8173564Y-21396828D01*
X8057618Y-21512774D01*
X8138192Y-21593348D01*
X8116594Y-21700000D01*
X8116594Y-22800000D01*
X8139395Y-22921179D01*
X8211012Y-23032474D01*
X8320286Y-23107138D01*
X8450000Y-23133406D01*
X9550000Y-23133406D01*
X9671179Y-23110605D01*
X9782474Y-23038988D01*
X9857138Y-22929714D01*
X9883406Y-22800000D01*
X9883406Y-21700000D01*
X9863096Y-21592060D01*
X9942382Y-21512774D01*
X9826436Y-21396828D01*
X10046701Y-21353492D01*
X10197972Y-20906999D01*
X10177207Y-20593001D01*
X13302028Y-20593001D01*
X13333137Y-21063396D01*
X13453299Y-21353492D01*
X13673564Y-21396828D01*
X13557618Y-21512774D01*
X13638192Y-21593348D01*
X13616594Y-21700000D01*
X13616594Y-22800000D01*
X13639395Y-22921179D01*
X13711012Y-23032474D01*
X13820286Y-23107138D01*
X13950000Y-23133406D01*
X15050000Y-23133406D01*
X15171179Y-23110605D01*
X15282474Y-23038988D01*
X15357138Y-22929714D01*
X15383406Y-22800000D01*
X15383406Y-21700000D01*
X15363096Y-21592060D01*
X15442382Y-21512774D01*
X15326436Y-21396828D01*
X15546701Y-21353492D01*
X15697972Y-20906999D01*
X15677207Y-20593001D01*
X18802028Y-20593001D01*
X18833137Y-21063396D01*
X18953299Y-21353492D01*
X19173564Y-21396828D01*
X19057618Y-21512774D01*
X19138192Y-21593348D01*
X19116594Y-21700000D01*
X19116594Y-22800000D01*
X19139395Y-22921179D01*
X19211012Y-23032474D01*
X19320286Y-23107138D01*
X19450000Y-23133406D01*
X20550000Y-23133406D01*
X20671179Y-23110605D01*
X20782474Y-23038988D01*
X20857138Y-22929714D01*
X20883406Y-22800000D01*
X20883406Y-21700000D01*
X20863096Y-21592060D01*
X20942382Y-21512774D01*
X20826436Y-21396828D01*
X21046701Y-21353492D01*
X21197972Y-20906999D01*
X21177207Y-20593001D01*
X24302028Y-20593001D01*
X24333137Y-21063396D01*
X24453299Y-21353492D01*
X24673564Y-21396828D01*
X24557618Y-21512774D01*
X24638192Y-21593348D01*
X24616594Y-21700000D01*
X24616594Y-22800000D01*
X24639395Y-22921179D01*
X24711012Y-23032474D01*
X24820286Y-23107138D01*
X24950000Y-23133406D01*
X26050000Y-23133406D01*
X26171179Y-23110605D01*
X26282474Y-23038988D01*
X26357138Y-22929714D01*
X26383406Y-22800000D01*
X26383406Y-21700000D01*
X26363096Y-21592060D01*
X26442382Y-21512774D01*
X26326436Y-21396828D01*
X26546701Y-21353492D01*
X26697972Y-20906999D01*
X26677207Y-20593001D01*
X29802028Y-20593001D01*
X29833137Y-21063396D01*
X29953299Y-21353492D01*
X30173564Y-21396828D01*
X30057618Y-21512774D01*
X30138192Y-21593348D01*
X30116594Y-21700000D01*
X30116594Y-22800000D01*
X30139395Y-22921179D01*
X30211012Y-23032474D01*
X30320286Y-23107138D01*
X30450000Y-23133406D01*
X31550000Y-23133406D01*
X31671179Y-23110605D01*
X31782474Y-23038988D01*
X31857138Y-22929714D01*
X31883406Y-22800000D01*
X31883406Y-21700000D01*
X31863096Y-21592060D01*
X31942382Y-21512774D01*
X31826436Y-21396828D01*
X32046701Y-21353492D01*
X32197972Y-20906999D01*
X32177207Y-20593001D01*
X35302028Y-20593001D01*
X35333137Y-21063396D01*
X35453299Y-21353492D01*
X35673564Y-21396828D01*
X35557618Y-21512774D01*
X35638192Y-21593348D01*
X35616594Y-21700000D01*
X35616594Y-22800000D01*
X35639395Y-22921179D01*
X35711012Y-23032474D01*
X35820286Y-23107138D01*
X35950000Y-23133406D01*
X37050000Y-23133406D01*
X37171179Y-23110605D01*
X37282474Y-23038988D01*
X37357138Y-22929714D01*
X37383406Y-22800000D01*
X37383406Y-21700000D01*
X37363096Y-21592060D01*
X37442382Y-21512774D01*
X37326436Y-21396828D01*
X37546701Y-21353492D01*
X37697972Y-20906999D01*
X37677207Y-20593001D01*
X40802028Y-20593001D01*
X40833137Y-21063396D01*
X40953299Y-21353492D01*
X41173564Y-21396828D01*
X41057618Y-21512774D01*
X41138192Y-21593348D01*
X41116594Y-21700000D01*
X41116594Y-22800000D01*
X41139395Y-22921179D01*
X41211012Y-23032474D01*
X41320286Y-23107138D01*
X41450000Y-23133406D01*
X42550000Y-23133406D01*
X42671179Y-23110605D01*
X42782474Y-23038988D01*
X42857138Y-22929714D01*
X42883406Y-22800000D01*
X42883406Y-21700000D01*
X42863096Y-21592060D01*
X42942382Y-21512774D01*
X42826436Y-21396828D01*
X43046701Y-21353492D01*
X43197972Y-20906999D01*
X43177207Y-20593001D01*
X46302028Y-20593001D01*
X46333137Y-21063396D01*
X46453299Y-21353492D01*
X46673564Y-21396828D01*
X46557618Y-21512774D01*
X46638192Y-21593348D01*
X46616594Y-21700000D01*
X46616594Y-22800000D01*
X46639395Y-22921179D01*
X46711012Y-23032474D01*
X46820286Y-23107138D01*
X46950000Y-23133406D01*
X48050000Y-23133406D01*
X48171179Y-23110605D01*
X48282474Y-23038988D01*
X48357138Y-22929714D01*
X48383406Y-22800000D01*
X48383406Y-21700000D01*
X48363096Y-21592060D01*
X48442382Y-21512774D01*
X48326436Y-21396828D01*
X48546701Y-21353492D01*
X48697972Y-20906999D01*
X48677207Y-20593001D01*
X51802028Y-20593001D01*
X51833137Y-21063396D01*
X51953299Y-21353492D01*
X52173564Y-21396828D01*
X52057618Y-21512774D01*
X52138192Y-21593348D01*
X52116594Y-21700000D01*
X52116594Y-22800000D01*
X52139395Y-22921179D01*
X52211012Y-23032474D01*
X52320286Y-23107138D01*
X52450000Y-23133406D01*
X53550000Y-23133406D01*
X53671179Y-23110605D01*
X53782474Y-23038988D01*
X53857138Y-22929714D01*
X53883406Y-22800000D01*
X53883406Y-21700000D01*
X53863096Y-21592060D01*
X53942382Y-21512774D01*
X53826436Y-21396828D01*
X54046701Y-21353492D01*
X54197972Y-20906999D01*
X54177207Y-20593001D01*
X57302028Y-20593001D01*
X57333137Y-21063396D01*
X57453299Y-21353492D01*
X57673564Y-21396828D01*
X57557618Y-21512774D01*
X57638192Y-21593348D01*
X57616594Y-21700000D01*
X57616594Y-22800000D01*
X57639395Y-22921179D01*
X57711012Y-23032474D01*
X57820286Y-23107138D01*
X57950000Y-23133406D01*
X59050000Y-23133406D01*
X59171179Y-23110605D01*
X59282474Y-23038988D01*
X59357138Y-22929714D01*
X59383406Y-22800000D01*
X59383406Y-21700000D01*
X59363096Y-21592060D01*
X59442382Y-21512774D01*
X59326436Y-21396828D01*
X59546701Y-21353492D01*
X59697972Y-20906999D01*
X59677207Y-20593001D01*
X62802028Y-20593001D01*
X62833137Y-21063396D01*
X62953299Y-21353492D01*
X63173564Y-21396828D01*
X63057618Y-21512774D01*
X63138192Y-21593348D01*
X63116594Y-21700000D01*
X63116594Y-22800000D01*
X63139395Y-22921179D01*
X63211012Y-23032474D01*
X63320286Y-23107138D01*
X63450000Y-23133406D01*
X64550000Y-23133406D01*
X64671179Y-23110605D01*
X64782474Y-23038988D01*
X64857138Y-22929714D01*
X64883406Y-22800000D01*
X64883406Y-21700000D01*
X64863096Y-21592060D01*
X64942382Y-21512774D01*
X64826436Y-21396828D01*
X65046701Y-21353492D01*
X65197972Y-20906999D01*
X65177207Y-20593001D01*
X68302028Y-20593001D01*
X68333137Y-21063396D01*
X68453299Y-21353492D01*
X68673564Y-21396828D01*
X68557618Y-21512774D01*
X68638192Y-21593348D01*
X68616594Y-21700000D01*
X68616594Y-22800000D01*
X68639395Y-22921179D01*
X68711012Y-23032474D01*
X68820286Y-23107138D01*
X68950000Y-23133406D01*
X70050000Y-23133406D01*
X70171179Y-23110605D01*
X70282474Y-23038988D01*
X70357138Y-22929714D01*
X70383406Y-22800000D01*
X70383406Y-21700000D01*
X70363096Y-21592060D01*
X70442382Y-21512774D01*
X70326436Y-21396828D01*
X70546701Y-21353492D01*
X70697972Y-20906999D01*
X70677207Y-20593001D01*
X73802028Y-20593001D01*
X73833137Y-21063396D01*
X73953299Y-21353492D01*
X74173564Y-21396828D01*
X74057618Y-21512774D01*
X74138192Y-21593348D01*
X74116594Y-21700000D01*
X74116594Y-22800000D01*
X74139395Y-22921179D01*
X74211012Y-23032474D01*
X74320286Y-23107138D01*
X74450000Y-23133406D01*
X75550000Y-23133406D01*
X75671179Y-23110605D01*
X75782474Y-23038988D01*
X75857138Y-22929714D01*
X75883406Y-22800000D01*
X75883406Y-21700000D01*
X75863096Y-21592060D01*
X75942382Y-21512774D01*
X75826436Y-21396828D01*
X76046701Y-21353492D01*
X76197972Y-20906999D01*
X76177207Y-20593001D01*
X79302028Y-20593001D01*
X79333137Y-21063396D01*
X79453299Y-21353492D01*
X79673564Y-21396828D01*
X79557618Y-21512774D01*
X79638192Y-21593348D01*
X79616594Y-21700000D01*
X79616594Y-22800000D01*
X79639395Y-22921179D01*
X79711012Y-23032474D01*
X79820286Y-23107138D01*
X79950000Y-23133406D01*
X81050000Y-23133406D01*
X81171179Y-23110605D01*
X81282474Y-23038988D01*
X81357138Y-22929714D01*
X81383406Y-22800000D01*
X81383406Y-21700000D01*
X81363096Y-21592060D01*
X81442382Y-21512774D01*
X81326436Y-21396828D01*
X81546701Y-21353492D01*
X81697972Y-20906999D01*
X81677207Y-20593001D01*
X84802028Y-20593001D01*
X84833137Y-21063396D01*
X84953299Y-21353492D01*
X85173564Y-21396828D01*
X85057618Y-21512774D01*
X85138192Y-21593348D01*
X85116594Y-21700000D01*
X85116594Y-22800000D01*
X85139395Y-22921179D01*
X85211012Y-23032474D01*
X85320286Y-23107138D01*
X85450000Y-23133406D01*
X86550000Y-23133406D01*
X86671179Y-23110605D01*
X86782474Y-23038988D01*
X86857138Y-22929714D01*
X86883406Y-22800000D01*
X86883406Y-21700000D01*
X86863096Y-21592060D01*
X86942382Y-21512774D01*
X86826436Y-21396828D01*
X87046701Y-21353492D01*
X87197972Y-20906999D01*
X87177207Y-20593001D01*
X90302028Y-20593001D01*
X90333137Y-21063396D01*
X90453299Y-21353492D01*
X90673564Y-21396828D01*
X90557618Y-21512774D01*
X90638192Y-21593348D01*
X90616594Y-21700000D01*
X90616594Y-22800000D01*
X90639395Y-22921179D01*
X90711012Y-23032474D01*
X90820286Y-23107138D01*
X90950000Y-23133406D01*
X92050000Y-23133406D01*
X92171179Y-23110605D01*
X92282474Y-23038988D01*
X92357138Y-22929714D01*
X92383406Y-22800000D01*
X92383406Y-21700000D01*
X92363096Y-21592060D01*
X92442382Y-21512774D01*
X92326436Y-21396828D01*
X92546701Y-21353492D01*
X92697972Y-20906999D01*
X92677207Y-20593001D01*
X95802028Y-20593001D01*
X95833137Y-21063396D01*
X95953299Y-21353492D01*
X96173564Y-21396828D01*
X96057618Y-21512774D01*
X96138192Y-21593348D01*
X96116594Y-21700000D01*
X96116594Y-22800000D01*
X96139395Y-22921179D01*
X96211012Y-23032474D01*
X96320286Y-23107138D01*
X96450000Y-23133406D01*
X97550000Y-23133406D01*
X97671179Y-23110605D01*
X97782474Y-23038988D01*
X97857138Y-22929714D01*
X97883406Y-22800000D01*
X97883406Y-21700000D01*
X97863096Y-21592060D01*
X97942382Y-21512774D01*
X97826436Y-21396828D01*
X98046701Y-21353492D01*
X98197972Y-20906999D01*
X98166863Y-20436604D01*
X98046701Y-20146508D01*
X97826433Y-20103172D01*
X97179605Y-20750000D01*
X97193748Y-20764143D01*
X97014143Y-20943748D01*
X97000000Y-20929605D01*
X96985858Y-20943748D01*
X96806253Y-20764143D01*
X96820395Y-20750000D01*
X96173567Y-20103172D01*
X95953299Y-20146508D01*
X95802028Y-20593001D01*
X92677207Y-20593001D01*
X92666863Y-20436604D01*
X92546701Y-20146508D01*
X92326433Y-20103172D01*
X91679605Y-20750000D01*
X91693748Y-20764143D01*
X91514143Y-20943748D01*
X91500000Y-20929605D01*
X91485858Y-20943748D01*
X91306253Y-20764143D01*
X91320395Y-20750000D01*
X90673567Y-20103172D01*
X90453299Y-20146508D01*
X90302028Y-20593001D01*
X87177207Y-20593001D01*
X87166863Y-20436604D01*
X87046701Y-20146508D01*
X86826433Y-20103172D01*
X86179605Y-20750000D01*
X86193748Y-20764143D01*
X86014143Y-20943748D01*
X86000000Y-20929605D01*
X85985858Y-20943748D01*
X85806253Y-20764143D01*
X85820395Y-20750000D01*
X85173567Y-20103172D01*
X84953299Y-20146508D01*
X84802028Y-20593001D01*
X81677207Y-20593001D01*
X81666863Y-20436604D01*
X81546701Y-20146508D01*
X81326433Y-20103172D01*
X80679605Y-20750000D01*
X80693748Y-20764143D01*
X80514143Y-20943748D01*
X80500000Y-20929605D01*
X80485858Y-20943748D01*
X80306253Y-20764143D01*
X80320395Y-20750000D01*
X79673567Y-20103172D01*
X79453299Y-20146508D01*
X79302028Y-20593001D01*
X76177207Y-20593001D01*
X76166863Y-20436604D01*
X76046701Y-20146508D01*
X75826433Y-20103172D01*
X75179605Y-20750000D01*
X75193748Y-20764143D01*
X75014143Y-20943748D01*
X75000000Y-20929605D01*
X74985858Y-20943748D01*
X74806253Y-20764143D01*
X74820395Y-20750000D01*
X74173567Y-20103172D01*
X73953299Y-20146508D01*
X73802028Y-20593001D01*
X70677207Y-20593001D01*
X70666863Y-20436604D01*
X70546701Y-20146508D01*
X70326433Y-20103172D01*
X69679605Y-20750000D01*
X69693748Y-20764143D01*
X69514143Y-20943748D01*
X69500000Y-20929605D01*
X69485858Y-20943748D01*
X69306253Y-20764143D01*
X69320395Y-20750000D01*
X68673567Y-20103172D01*
X68453299Y-20146508D01*
X68302028Y-20593001D01*
X65177207Y-20593001D01*
X65166863Y-20436604D01*
X65046701Y-20146508D01*
X64826433Y-20103172D01*
X64179605Y-20750000D01*
X64193748Y-20764143D01*
X64014143Y-20943748D01*
X64000000Y-20929605D01*
X63985858Y-20943748D01*
X63806253Y-20764143D01*
X63820395Y-20750000D01*
X63173567Y-20103172D01*
X62953299Y-20146508D01*
X62802028Y-20593001D01*
X59677207Y-20593001D01*
X59666863Y-20436604D01*
X59546701Y-20146508D01*
X59326433Y-20103172D01*
X58679605Y-20750000D01*
X58693748Y-20764143D01*
X58514143Y-20943748D01*
X58500000Y-20929605D01*
X58485858Y-20943748D01*
X58306253Y-20764143D01*
X58320395Y-20750000D01*
X57673567Y-20103172D01*
X57453299Y-20146508D01*
X57302028Y-20593001D01*
X54177207Y-20593001D01*
X54166863Y-20436604D01*
X54046701Y-20146508D01*
X53826433Y-20103172D01*
X53179605Y-20750000D01*
X53193748Y-20764143D01*
X53014143Y-20943748D01*
X53000000Y-20929605D01*
X52985858Y-20943748D01*
X52806253Y-20764143D01*
X52820395Y-20750000D01*
X52173567Y-20103172D01*
X51953299Y-20146508D01*
X51802028Y-20593001D01*
X48677207Y-20593001D01*
X48666863Y-20436604D01*
X48546701Y-20146508D01*
X48326433Y-20103172D01*
X47679605Y-20750000D01*
X47693748Y-20764143D01*
X47514143Y-20943748D01*
X47500000Y-20929605D01*
X47485858Y-20943748D01*
X47306253Y-20764143D01*
X47320395Y-20750000D01*
X46673567Y-20103172D01*
X46453299Y-20146508D01*
X46302028Y-20593001D01*
X43177207Y-20593001D01*
X43166863Y-20436604D01*
X43046701Y-20146508D01*
X42826433Y-20103172D01*
X42179605Y-20750000D01*
X42193748Y-20764143D01*
X42014143Y-20943748D01*
X42000000Y-20929605D01*
X41985858Y-20943748D01*
X41806253Y-20764143D01*
X41820395Y-20750000D01*
X41173567Y-20103172D01*
X40953299Y-20146508D01*
X40802028Y-20593001D01*
X37677207Y-20593001D01*
X37666863Y-20436604D01*
X37546701Y-20146508D01*
X37326433Y-20103172D01*
X36679605Y-20750000D01*
X36693748Y-20764143D01*
X36514143Y-20943748D01*
X36500000Y-20929605D01*
X36485858Y-20943748D01*
X36306253Y-20764143D01*
X36320395Y-20750000D01*
X35673567Y-20103172D01*
X35453299Y-20146508D01*
X35302028Y-20593001D01*
X32177207Y-20593001D01*
X32166863Y-20436604D01*
X32046701Y-20146508D01*
X31826433Y-20103172D01*
X31179605Y-20750000D01*
X31193748Y-20764143D01*
X31014143Y-20943748D01*
X31000000Y-20929605D01*
X30985858Y-20943748D01*
X30806253Y-20764143D01*
X30820395Y-20750000D01*
X30173567Y-20103172D01*
X29953299Y-20146508D01*
X29802028Y-20593001D01*
X26677207Y-20593001D01*
X26666863Y-20436604D01*
X26546701Y-20146508D01*
X26326433Y-20103172D01*
X25679605Y-20750000D01*
X25693748Y-20764143D01*
X25514143Y-20943748D01*
X25500000Y-20929605D01*
X25485858Y-20943748D01*
X25306253Y-20764143D01*
X25320395Y-20750000D01*
X24673567Y-20103172D01*
X24453299Y-20146508D01*
X24302028Y-20593001D01*
X21177207Y-20593001D01*
X21166863Y-20436604D01*
X21046701Y-20146508D01*
X20826433Y-20103172D01*
X20179605Y-20750000D01*
X20193748Y-20764143D01*
X20014143Y-20943748D01*
X20000000Y-20929605D01*
X19985858Y-20943748D01*
X19806253Y-20764143D01*
X19820395Y-20750000D01*
X19173567Y-20103172D01*
X18953299Y-20146508D01*
X18802028Y-20593001D01*
X15677207Y-20593001D01*
X15666863Y-20436604D01*
X15546701Y-20146508D01*
X15326433Y-20103172D01*
X14679605Y-20750000D01*
X14693748Y-20764143D01*
X14514143Y-20943748D01*
X14500000Y-20929605D01*
X14485858Y-20943748D01*
X14306253Y-20764143D01*
X14320395Y-20750000D01*
X13673567Y-20103172D01*
X13453299Y-20146508D01*
X13302028Y-20593001D01*
X10177207Y-20593001D01*
X10166863Y-20436604D01*
X10046701Y-20146508D01*
X9826433Y-20103172D01*
X9179605Y-20750000D01*
X9193748Y-20764143D01*
X9014143Y-20943748D01*
X9000000Y-20929605D01*
X8985858Y-20943748D01*
X8806253Y-20764143D01*
X8820395Y-20750000D01*
X8173567Y-20103172D01*
X7953299Y-20146508D01*
X7802028Y-20593001D01*
X4677207Y-20593001D01*
X4666863Y-20436604D01*
X4546701Y-20146508D01*
X4326433Y-20103172D01*
X3679605Y-20750000D01*
X3693748Y-20764143D01*
X3514143Y-20943748D01*
X3500000Y-20929605D01*
X3485858Y-20943748D01*
X3306253Y-20764143D01*
X3320395Y-20750000D01*
X2673567Y-20103172D01*
X2453299Y-20146508D01*
X2302028Y-20593001D01*
X402000Y-20593001D01*
X402000Y-17923681D01*
X2622849Y-17923681D01*
X2756082Y-18246131D01*
X3002571Y-18493051D01*
X3018948Y-18499851D01*
X3003869Y-18506082D01*
X2756949Y-18752571D01*
X2623153Y-19074789D01*
X2622849Y-19423681D01*
X2756082Y-19746131D01*
X2866349Y-19856591D01*
X2853172Y-19923567D01*
X3500000Y-20570395D01*
X4146828Y-19923567D01*
X4133659Y-19856630D01*
X4243051Y-19747429D01*
X4376847Y-19425211D01*
X4377151Y-19076319D01*
X4243918Y-18753869D01*
X3997429Y-18506949D01*
X3981052Y-18500149D01*
X3996131Y-18493918D01*
X4243051Y-18247429D01*
X4376847Y-17925211D01*
X4376848Y-17923681D01*
X8122849Y-17923681D01*
X8256082Y-18246131D01*
X8502571Y-18493051D01*
X8518948Y-18499851D01*
X8503869Y-18506082D01*
X8256949Y-18752571D01*
X8123153Y-19074789D01*
X8122849Y-19423681D01*
X8256082Y-19746131D01*
X8366349Y-19856591D01*
X8353172Y-19923567D01*
X9000000Y-20570395D01*
X9646828Y-19923567D01*
X9633659Y-19856630D01*
X9743051Y-19747429D01*
X9876847Y-19425211D01*
X9877151Y-19076319D01*
X9743918Y-18753869D01*
X9497429Y-18506949D01*
X9481052Y-18500149D01*
X9496131Y-18493918D01*
X9743051Y-18247429D01*
X9876847Y-17925211D01*
X9876848Y-17923681D01*
X13622849Y-17923681D01*
X13756082Y-18246131D01*
X14002571Y-18493051D01*
X14018948Y-18499851D01*
X14003869Y-18506082D01*
X13756949Y-18752571D01*
X13623153Y-19074789D01*
X13622849Y-19423681D01*
X13756082Y-19746131D01*
X13866349Y-19856591D01*
X13853172Y-19923567D01*
X14500000Y-20570395D01*
X15146828Y-19923567D01*
X15133659Y-19856630D01*
X15243051Y-19747429D01*
X15376847Y-19425211D01*
X15377151Y-19076319D01*
X15243918Y-18753869D01*
X14997429Y-18506949D01*
X14981052Y-18500149D01*
X14996131Y-18493918D01*
X15243051Y-18247429D01*
X15376847Y-17925211D01*
X15376848Y-17923681D01*
X19122849Y-17923681D01*
X19256082Y-18246131D01*
X19502571Y-18493051D01*
X19518948Y-18499851D01*
X19503869Y-18506082D01*
X19256949Y-18752571D01*
X19123153Y-19074789D01*
X19122849Y-19423681D01*
X19256082Y-19746131D01*
X19366349Y-19856591D01*
X19353172Y-19923567D01*
X20000000Y-20570395D01*
X20646828Y-19923567D01*
X20633659Y-19856630D01*
X20743051Y-19747429D01*
X20876847Y-19425211D01*
X20877151Y-19076319D01*
X20743918Y-18753869D01*
X20497429Y-18506949D01*
X20481052Y-18500149D01*
X20496131Y-18493918D01*
X20743051Y-18247429D01*
X20876847Y-17925211D01*
X20876848Y-17923681D01*
X24622849Y-17923681D01*
X24756082Y-18246131D01*
X25002571Y-18493051D01*
X25018948Y-18499851D01*
X25003869Y-18506082D01*
X24756949Y-18752571D01*
X24623153Y-19074789D01*
X24622849Y-19423681D01*
X24756082Y-19746131D01*
X24866349Y-19856591D01*
X24853172Y-19923567D01*
X25500000Y-20570395D01*
X26146828Y-19923567D01*
X26133659Y-19856630D01*
X26243051Y-19747429D01*
X26376847Y-19425211D01*
X26377151Y-19076319D01*
X26243918Y-18753869D01*
X25997429Y-18506949D01*
X25981052Y-18500149D01*
X25996131Y-18493918D01*
X26243051Y-18247429D01*
X26376847Y-17925211D01*
X26376848Y-17923681D01*
X30122849Y-17923681D01*
X30256082Y-18246131D01*
X30502571Y-18493051D01*
X30518948Y-18499851D01*
X30503869Y-18506082D01*
X30256949Y-18752571D01*
X30123153Y-19074789D01*
X30122849Y-19423681D01*
X30256082Y-19746131D01*
X30366349Y-19856591D01*
X30353172Y-19923567D01*
X31000000Y-20570395D01*
X31646828Y-19923567D01*
X31633659Y-19856630D01*
X31743051Y-19747429D01*
X31876847Y-19425211D01*
X31877151Y-19076319D01*
X31743918Y-18753869D01*
X31497429Y-18506949D01*
X31481052Y-18500149D01*
X31496131Y-18493918D01*
X31743051Y-18247429D01*
X31876847Y-17925211D01*
X31876848Y-17923681D01*
X35622849Y-17923681D01*
X35756082Y-18246131D01*
X36002571Y-18493051D01*
X36018948Y-18499851D01*
X36003869Y-18506082D01*
X35756949Y-18752571D01*
X35623153Y-19074789D01*
X35622849Y-19423681D01*
X35756082Y-19746131D01*
X35866349Y-19856591D01*
X35853172Y-19923567D01*
X36500000Y-20570395D01*
X37146828Y-19923567D01*
X37133659Y-19856630D01*
X37243051Y-19747429D01*
X37376847Y-19425211D01*
X37377151Y-19076319D01*
X37243918Y-18753869D01*
X36997429Y-18506949D01*
X36981052Y-18500149D01*
X36996131Y-18493918D01*
X37243051Y-18247429D01*
X37376847Y-17925211D01*
X37376848Y-17923681D01*
X41122849Y-17923681D01*
X41256082Y-18246131D01*
X41502571Y-18493051D01*
X41518948Y-18499851D01*
X41503869Y-18506082D01*
X41256949Y-18752571D01*
X41123153Y-19074789D01*
X41122849Y-19423681D01*
X41256082Y-19746131D01*
X41366349Y-19856591D01*
X41353172Y-19923567D01*
X42000000Y-20570395D01*
X42646828Y-19923567D01*
X42633659Y-19856630D01*
X42743051Y-19747429D01*
X42876847Y-19425211D01*
X42877151Y-19076319D01*
X42743918Y-18753869D01*
X42497429Y-18506949D01*
X42481052Y-18500149D01*
X42496131Y-18493918D01*
X42743051Y-18247429D01*
X42876847Y-17925211D01*
X42876848Y-17923681D01*
X46622849Y-17923681D01*
X46756082Y-18246131D01*
X47002571Y-18493051D01*
X47018948Y-18499851D01*
X47003869Y-18506082D01*
X46756949Y-18752571D01*
X46623153Y-19074789D01*
X46622849Y-19423681D01*
X46756082Y-19746131D01*
X46866349Y-19856591D01*
X46853172Y-19923567D01*
X47500000Y-20570395D01*
X48146828Y-19923567D01*
X48133659Y-19856630D01*
X48243051Y-19747429D01*
X48376847Y-19425211D01*
X48377151Y-19076319D01*
X48243918Y-18753869D01*
X47997429Y-18506949D01*
X47981052Y-18500149D01*
X47996131Y-18493918D01*
X48243051Y-18247429D01*
X48376847Y-17925211D01*
X48376848Y-17923681D01*
X52122849Y-17923681D01*
X52256082Y-18246131D01*
X52502571Y-18493051D01*
X52518948Y-18499851D01*
X52503869Y-18506082D01*
X52256949Y-18752571D01*
X52123153Y-19074789D01*
X52122849Y-19423681D01*
X52256082Y-19746131D01*
X52366349Y-19856591D01*
X52353172Y-19923567D01*
X53000000Y-20570395D01*
X53646828Y-19923567D01*
X53633659Y-19856630D01*
X53743051Y-19747429D01*
X53876847Y-19425211D01*
X53877151Y-19076319D01*
X53743918Y-18753869D01*
X53497429Y-18506949D01*
X53481052Y-18500149D01*
X53496131Y-18493918D01*
X53743051Y-18247429D01*
X53876847Y-17925211D01*
X53876848Y-17923681D01*
X57622849Y-17923681D01*
X57756082Y-18246131D01*
X58002571Y-18493051D01*
X58018948Y-18499851D01*
X58003869Y-18506082D01*
X57756949Y-18752571D01*
X57623153Y-19074789D01*
X57622849Y-19423681D01*
X57756082Y-19746131D01*
X57866349Y-19856591D01*
X57853172Y-19923567D01*
X58500000Y-20570395D01*
X59146828Y-19923567D01*
X59133659Y-19856630D01*
X59243051Y-19747429D01*
X59376847Y-19425211D01*
X59377151Y-19076319D01*
X59243918Y-18753869D01*
X58997429Y-18506949D01*
X58981052Y-18500149D01*
X58996131Y-18493918D01*
X59243051Y-18247429D01*
X59376847Y-17925211D01*
X59376848Y-17923681D01*
X63122849Y-17923681D01*
X63256082Y-18246131D01*
X63502571Y-18493051D01*
X63518948Y-18499851D01*
X63503869Y-18506082D01*
X63256949Y-18752571D01*
X63123153Y-19074789D01*
X63122849Y-19423681D01*
X63256082Y-19746131D01*
X63366349Y-19856591D01*
X63353172Y-19923567D01*
X64000000Y-20570395D01*
X64646828Y-19923567D01*
X64633659Y-19856630D01*
X64743051Y-19747429D01*
X64876847Y-19425211D01*
X64877151Y-19076319D01*
X64743918Y-18753869D01*
X64497429Y-18506949D01*
X64481052Y-18500149D01*
X64496131Y-18493918D01*
X64743051Y-18247429D01*
X64876847Y-17925211D01*
X64876848Y-17923681D01*
X68622849Y-17923681D01*
X68756082Y-18246131D01*
X69002571Y-18493051D01*
X69018948Y-18499851D01*
X69003869Y-18506082D01*
X68756949Y-18752571D01*
X68623153Y-19074789D01*
X68622849Y-19423681D01*
X68756082Y-19746131D01*
X68866349Y-19856591D01*
X68853172Y-19923567D01*
X69500000Y-20570395D01*
X70146828Y-19923567D01*
X70133659Y-19856630D01*
X70243051Y-19747429D01*
X70376847Y-19425211D01*
X70377151Y-19076319D01*
X70243918Y-18753869D01*
X69997429Y-18506949D01*
X69981052Y-18500149D01*
X69996131Y-18493918D01*
X70243051Y-18247429D01*
X70376847Y-17925211D01*
X70376848Y-17923681D01*
X74122849Y-17923681D01*
X74256082Y-18246131D01*
X74502571Y-18493051D01*
X74518948Y-18499851D01*
X74503869Y-18506082D01*
X74256949Y-18752571D01*
X74123153Y-19074789D01*
X74122849Y-19423681D01*
X74256082Y-19746131D01*
X74366349Y-19856591D01*
X74353172Y-19923567D01*
X75000000Y-20570395D01*
X75646828Y-19923567D01*
X75633659Y-19856630D01*
X75743051Y-19747429D01*
X75876847Y-19425211D01*
X75877151Y-19076319D01*
X75743918Y-18753869D01*
X75497429Y-18506949D01*
X75481052Y-18500149D01*
X75496131Y-18493918D01*
X75743051Y-18247429D01*
X75876847Y-17925211D01*
X75876848Y-17923681D01*
X79622849Y-17923681D01*
X79756082Y-18246131D01*
X80002571Y-18493051D01*
X80018948Y-18499851D01*
X80003869Y-18506082D01*
X79756949Y-18752571D01*
X79623153Y-19074789D01*
X79622849Y-19423681D01*
X79756082Y-19746131D01*
X79866349Y-19856591D01*
X79853172Y-19923567D01*
X80500000Y-20570395D01*
X81146828Y-19923567D01*
X81133659Y-19856630D01*
X81243051Y-19747429D01*
X81376847Y-19425211D01*
X81377151Y-19076319D01*
X81243918Y-18753869D01*
X80997429Y-18506949D01*
X80981052Y-18500149D01*
X80996131Y-18493918D01*
X81243051Y-18247429D01*
X81376847Y-17925211D01*
X81376848Y-17923681D01*
X85122849Y-17923681D01*
X85256082Y-18246131D01*
X85502571Y-18493051D01*
X85518948Y-18499851D01*
X85503869Y-18506082D01*
X85256949Y-18752571D01*
X85123153Y-19074789D01*
X85122849Y-19423681D01*
X85256082Y-19746131D01*
X85366349Y-19856591D01*
X85353172Y-19923567D01*
X86000000Y-20570395D01*
X86646828Y-19923567D01*
X86633659Y-19856630D01*
X86743051Y-19747429D01*
X86876847Y-19425211D01*
X86877151Y-19076319D01*
X86743918Y-18753869D01*
X86497429Y-18506949D01*
X86481052Y-18500149D01*
X86496131Y-18493918D01*
X86743051Y-18247429D01*
X86876847Y-17925211D01*
X86876848Y-17923681D01*
X90622849Y-17923681D01*
X90756082Y-18246131D01*
X91002571Y-18493051D01*
X91018948Y-18499851D01*
X91003869Y-18506082D01*
X90756949Y-18752571D01*
X90623153Y-19074789D01*
X90622849Y-19423681D01*
X90756082Y-19746131D01*
X90866349Y-19856591D01*
X90853172Y-19923567D01*
X91500000Y-20570395D01*
X92146828Y-19923567D01*
X92133659Y-19856630D01*
X92243051Y-19747429D01*
X92376847Y-19425211D01*
X92377151Y-19076319D01*
X92243918Y-18753869D01*
X91997429Y-18506949D01*
X91981052Y-18500149D01*
X91996131Y-18493918D01*
X92243051Y-18247429D01*
X92376847Y-17925211D01*
X92376848Y-17923681D01*
X96122849Y-17923681D01*
X96256082Y-18246131D01*
X96502571Y-18493051D01*
X96518948Y-18499851D01*
X96503869Y-18506082D01*
X96256949Y-18752571D01*
X96123153Y-19074789D01*
X96122849Y-19423681D01*
X96256082Y-19746131D01*
X96366349Y-19856591D01*
X96353172Y-19923567D01*
X97000000Y-20570395D01*
X97646828Y-19923567D01*
X97633659Y-19856630D01*
X97743051Y-19747429D01*
X97876847Y-19425211D01*
X97877151Y-19076319D01*
X97743918Y-18753869D01*
X97497429Y-18506949D01*
X97481052Y-18500149D01*
X97496131Y-18493918D01*
X97743051Y-18247429D01*
X97876847Y-17925211D01*
X97877151Y-17576319D01*
X97743918Y-17253869D01*
X97497429Y-17006949D01*
X97175211Y-16873153D01*
X96826319Y-16872849D01*
X96503869Y-17006082D01*
X96256949Y-17252571D01*
X96123153Y-17574789D01*
X96122849Y-17923681D01*
X92376848Y-17923681D01*
X92377151Y-17576319D01*
X92243918Y-17253869D01*
X91997429Y-17006949D01*
X91675211Y-16873153D01*
X91326319Y-16872849D01*
X91003869Y-17006082D01*
X90756949Y-17252571D01*
X90623153Y-17574789D01*
X90622849Y-17923681D01*
X86876848Y-17923681D01*
X86877151Y-17576319D01*
X86743918Y-17253869D01*
X86497429Y-17006949D01*
X86175211Y-16873153D01*
X85826319Y-16872849D01*
X85503869Y-17006082D01*
X85256949Y-17252571D01*
X85123153Y-17574789D01*
X85122849Y-17923681D01*
X81376848Y-17923681D01*
X81377151Y-17576319D01*
X81243918Y-17253869D01*
X80997429Y-17006949D01*
X80675211Y-16873153D01*
X80326319Y-16872849D01*
X80003869Y-17006082D01*
X79756949Y-17252571D01*
X79623153Y-17574789D01*
X79622849Y-17923681D01*
X75876848Y-17923681D01*
X75877151Y-17576319D01*
X75743918Y-17253869D01*
X75497429Y-17006949D01*
X75175211Y-16873153D01*
X74826319Y-16872849D01*
X74503869Y-17006082D01*
X74256949Y-17252571D01*
X74123153Y-17574789D01*
X74122849Y-17923681D01*
X70376848Y-17923681D01*
X70377151Y-17576319D01*
X70243918Y-17253869D01*
X69997429Y-17006949D01*
X69675211Y-16873153D01*
X69326319Y-16872849D01*
X69003869Y-17006082D01*
X68756949Y-17252571D01*
X68623153Y-17574789D01*
X68622849Y-17923681D01*
X64876848Y-17923681D01*
X64877151Y-17576319D01*
X64743918Y-17253869D01*
X64497429Y-17006949D01*
X64175211Y-16873153D01*
X63826319Y-16872849D01*
X63503869Y-17006082D01*
X63256949Y-17252571D01*
X63123153Y-17574789D01*
X63122849Y-17923681D01*
X59376848Y-17923681D01*
X59377151Y-17576319D01*
X59243918Y-17253869D01*
X58997429Y-17006949D01*
X58675211Y-16873153D01*
X58326319Y-16872849D01*
X58003869Y-17006082D01*
X57756949Y-17252571D01*
X57623153Y-17574789D01*
X57622849Y-17923681D01*
X53876848Y-17923681D01*
X53877151Y-17576319D01*
X53743918Y-17253869D01*
X53497429Y-17006949D01*
X53175211Y-16873153D01*
X52826319Y-16872849D01*
X52503869Y-17006082D01*
X52256949Y-17252571D01*
X52123153Y-17574789D01*
X52122849Y-17923681D01*
X48376848Y-17923681D01*
X48377151Y-17576319D01*
X48243918Y-17253869D01*
X47997429Y-17006949D01*
X47675211Y-16873153D01*
X47326319Y-16872849D01*
X47003869Y-17006082D01*
X46756949Y-17252571D01*
X46623153Y-17574789D01*
X46622849Y-17923681D01*
X42876848Y-17923681D01*
X42877151Y-17576319D01*
X42743918Y-17253869D01*
X42497429Y-17006949D01*
X42175211Y-16873153D01*
X41826319Y-16872849D01*
X41503869Y-17006082D01*
X41256949Y-17252571D01*
X41123153Y-17574789D01*
X41122849Y-17923681D01*
X37376848Y-17923681D01*
X37377151Y-17576319D01*
X37243918Y-17253869D01*
X36997429Y-17006949D01*
X36675211Y-16873153D01*
X36326319Y-16872849D01*
X36003869Y-17006082D01*
X35756949Y-17252571D01*
X35623153Y-17574789D01*
X35622849Y-17923681D01*
X31876848Y-17923681D01*
X31877151Y-17576319D01*
X31743918Y-17253869D01*
X31497429Y-17006949D01*
X31175211Y-16873153D01*
X30826319Y-16872849D01*
X30503869Y-17006082D01*
X30256949Y-17252571D01*
X30123153Y-17574789D01*
X30122849Y-17923681D01*
X26376848Y-17923681D01*
X26377151Y-17576319D01*
X26243918Y-17253869D01*
X25997429Y-17006949D01*
X25675211Y-16873153D01*
X25326319Y-16872849D01*
X25003869Y-17006082D01*
X24756949Y-17252571D01*
X24623153Y-17574789D01*
X24622849Y-17923681D01*
X20876848Y-17923681D01*
X20877151Y-17576319D01*
X20743918Y-17253869D01*
X20497429Y-17006949D01*
X20175211Y-16873153D01*
X19826319Y-16872849D01*
X19503869Y-17006082D01*
X19256949Y-17252571D01*
X19123153Y-17574789D01*
X19122849Y-17923681D01*
X15376848Y-17923681D01*
X15377151Y-17576319D01*
X15243918Y-17253869D01*
X14997429Y-17006949D01*
X14675211Y-16873153D01*
X14326319Y-16872849D01*
X14003869Y-17006082D01*
X13756949Y-17252571D01*
X13623153Y-17574789D01*
X13622849Y-17923681D01*
X9876848Y-17923681D01*
X9877151Y-17576319D01*
X9743918Y-17253869D01*
X9497429Y-17006949D01*
X9175211Y-16873153D01*
X8826319Y-16872849D01*
X8503869Y-17006082D01*
X8256949Y-17252571D01*
X8123153Y-17574789D01*
X8122849Y-17923681D01*
X4376848Y-17923681D01*
X4377151Y-17576319D01*
X4243918Y-17253869D01*
X3997429Y-17006949D01*
X3675211Y-16873153D01*
X3326319Y-16872849D01*
X3003869Y-17006082D01*
X2756949Y-17252571D01*
X2623153Y-17574789D01*
X2622849Y-17923681D01*
X402000Y-17923681D01*
X402000Y-11209680D01*
X11989890Y-11209680D01*
X11989890Y-12790320D01*
X12072108Y-13203660D01*
X12306247Y-13554073D01*
X12656660Y-13788212D01*
X13070000Y-13870430D01*
X13483340Y-13788212D01*
X13833753Y-13554073D01*
X14067892Y-13203660D01*
X14150110Y-12790320D01*
X14150110Y-11209680D01*
X14529890Y-11209680D01*
X14529890Y-12790320D01*
X14612108Y-13203660D01*
X14846247Y-13554073D01*
X15196660Y-13788212D01*
X15610000Y-13870430D01*
X16023340Y-13788212D01*
X16373753Y-13554073D01*
X16607892Y-13203660D01*
X16690110Y-12790320D01*
X16690110Y-11209680D01*
X17069890Y-11209680D01*
X17069890Y-12790320D01*
X17152108Y-13203660D01*
X17386247Y-13554073D01*
X17736660Y-13788212D01*
X18150000Y-13870430D01*
X18563340Y-13788212D01*
X18913753Y-13554073D01*
X19147892Y-13203660D01*
X19230110Y-12790320D01*
X19230110Y-11209680D01*
X19609890Y-11209680D01*
X19609890Y-12790320D01*
X19692108Y-13203660D01*
X19926247Y-13554073D01*
X20276660Y-13788212D01*
X20690000Y-13870430D01*
X21103340Y-13788212D01*
X21453753Y-13554073D01*
X21687892Y-13203660D01*
X21770110Y-12790320D01*
X21770110Y-11209680D01*
X22149890Y-11209680D01*
X22149890Y-12790320D01*
X22232108Y-13203660D01*
X22466247Y-13554073D01*
X22816660Y-13788212D01*
X23230000Y-13870430D01*
X23643340Y-13788212D01*
X23993753Y-13554073D01*
X24227892Y-13203660D01*
X24310110Y-12790320D01*
X24310110Y-11209680D01*
X24689890Y-11209680D01*
X24689890Y-12790320D01*
X24772108Y-13203660D01*
X25006247Y-13554073D01*
X25356660Y-13788212D01*
X25770000Y-13870430D01*
X26183340Y-13788212D01*
X26533753Y-13554073D01*
X26767892Y-13203660D01*
X26850110Y-12790320D01*
X26850110Y-11209680D01*
X27229890Y-11209680D01*
X27229890Y-12790320D01*
X27312108Y-13203660D01*
X27546247Y-13554073D01*
X27896660Y-13788212D01*
X28310000Y-13870430D01*
X28723340Y-13788212D01*
X29073753Y-13554073D01*
X29307892Y-13203660D01*
X29390110Y-12790320D01*
X29390110Y-11209680D01*
X29769890Y-11209680D01*
X29769890Y-12790320D01*
X29852108Y-13203660D01*
X30086247Y-13554073D01*
X30436660Y-13788212D01*
X30850000Y-13870430D01*
X31263340Y-13788212D01*
X31613753Y-13554073D01*
X31847892Y-13203660D01*
X31930110Y-12790320D01*
X31930110Y-11209680D01*
X32309890Y-11209680D01*
X32309890Y-12790320D01*
X32392108Y-13203660D01*
X32626247Y-13554073D01*
X32976660Y-13788212D01*
X33390000Y-13870430D01*
X33803340Y-13788212D01*
X34153753Y-13554073D01*
X34387892Y-13203660D01*
X34470110Y-12790320D01*
X34470110Y-11209680D01*
X34849890Y-11209680D01*
X34849890Y-12790320D01*
X34932108Y-13203660D01*
X35166247Y-13554073D01*
X35516660Y-13788212D01*
X35930000Y-13870430D01*
X36343340Y-13788212D01*
X36693753Y-13554073D01*
X36927892Y-13203660D01*
X37010110Y-12790320D01*
X37010110Y-11381622D01*
X48072666Y-11381622D01*
X48365416Y-12090132D01*
X48907017Y-12632678D01*
X49615014Y-12926665D01*
X50381622Y-12927334D01*
X51090132Y-12634584D01*
X51632678Y-12092983D01*
X51926665Y-11384986D01*
X51926817Y-11209680D01*
X64489890Y-11209680D01*
X64489890Y-12790320D01*
X64572108Y-13203660D01*
X64806247Y-13554073D01*
X65156660Y-13788212D01*
X65570000Y-13870430D01*
X65983340Y-13788212D01*
X66333753Y-13554073D01*
X66567892Y-13203660D01*
X66650110Y-12790320D01*
X66650110Y-11209680D01*
X67029890Y-11209680D01*
X67029890Y-12790320D01*
X67112108Y-13203660D01*
X67346247Y-13554073D01*
X67696660Y-13788212D01*
X68110000Y-13870430D01*
X68523340Y-13788212D01*
X68873753Y-13554073D01*
X69107892Y-13203660D01*
X69190110Y-12790320D01*
X69190110Y-11209680D01*
X69569890Y-11209680D01*
X69569890Y-12790320D01*
X69652108Y-13203660D01*
X69886247Y-13554073D01*
X70236660Y-13788212D01*
X70650000Y-13870430D01*
X71063340Y-13788212D01*
X71413753Y-13554073D01*
X71647892Y-13203660D01*
X71730110Y-12790320D01*
X71730110Y-11209680D01*
X72109890Y-11209680D01*
X72109890Y-12790320D01*
X72192108Y-13203660D01*
X72426247Y-13554073D01*
X72776660Y-13788212D01*
X73190000Y-13870430D01*
X73603340Y-13788212D01*
X73953753Y-13554073D01*
X74187892Y-13203660D01*
X74270110Y-12790320D01*
X74270110Y-11209680D01*
X74649890Y-11209680D01*
X74649890Y-12790320D01*
X74732108Y-13203660D01*
X74966247Y-13554073D01*
X75316660Y-13788212D01*
X75730000Y-13870430D01*
X76143340Y-13788212D01*
X76493753Y-13554073D01*
X76727892Y-13203660D01*
X76810110Y-12790320D01*
X76810110Y-11209680D01*
X77189890Y-11209680D01*
X77189890Y-12790320D01*
X77272108Y-13203660D01*
X77506247Y-13554073D01*
X77856660Y-13788212D01*
X78270000Y-13870430D01*
X78683340Y-13788212D01*
X79033753Y-13554073D01*
X79267892Y-13203660D01*
X79350110Y-12790320D01*
X79350110Y-11209680D01*
X79729890Y-11209680D01*
X79729890Y-12790320D01*
X79812108Y-13203660D01*
X80046247Y-13554073D01*
X80396660Y-13788212D01*
X80810000Y-13870430D01*
X81223340Y-13788212D01*
X81573753Y-13554073D01*
X81807892Y-13203660D01*
X81890110Y-12790320D01*
X81890110Y-11209680D01*
X82269890Y-11209680D01*
X82269890Y-12790320D01*
X82352108Y-13203660D01*
X82586247Y-13554073D01*
X82936660Y-13788212D01*
X83350000Y-13870430D01*
X83763340Y-13788212D01*
X84113753Y-13554073D01*
X84347892Y-13203660D01*
X84430110Y-12790320D01*
X84430110Y-11209680D01*
X84809890Y-11209680D01*
X84809890Y-12790320D01*
X84892108Y-13203660D01*
X85126247Y-13554073D01*
X85476660Y-13788212D01*
X85890000Y-13870430D01*
X86303340Y-13788212D01*
X86653753Y-13554073D01*
X86887892Y-13203660D01*
X86970110Y-12790320D01*
X86970110Y-11209680D01*
X87349890Y-11209680D01*
X87349890Y-12790320D01*
X87432108Y-13203660D01*
X87666247Y-13554073D01*
X88016660Y-13788212D01*
X88430000Y-13870430D01*
X88843340Y-13788212D01*
X89193753Y-13554073D01*
X89427892Y-13203660D01*
X89510110Y-12790320D01*
X89510110Y-11209680D01*
X89427892Y-10796340D01*
X89193753Y-10445927D01*
X88843340Y-10211788D01*
X88430000Y-10129570D01*
X88016660Y-10211788D01*
X87666247Y-10445927D01*
X87432108Y-10796340D01*
X87349890Y-11209680D01*
X86970110Y-11209680D01*
X86887892Y-10796340D01*
X86653753Y-10445927D01*
X86303340Y-10211788D01*
X85890000Y-10129570D01*
X85476660Y-10211788D01*
X85126247Y-10445927D01*
X84892108Y-10796340D01*
X84809890Y-11209680D01*
X84430110Y-11209680D01*
X84347892Y-10796340D01*
X84113753Y-10445927D01*
X83763340Y-10211788D01*
X83350000Y-10129570D01*
X82936660Y-10211788D01*
X82586247Y-10445927D01*
X82352108Y-10796340D01*
X82269890Y-11209680D01*
X81890110Y-11209680D01*
X81807892Y-10796340D01*
X81573753Y-10445927D01*
X81223340Y-10211788D01*
X80810000Y-10129570D01*
X80396660Y-10211788D01*
X80046247Y-10445927D01*
X79812108Y-10796340D01*
X79729890Y-11209680D01*
X79350110Y-11209680D01*
X79267892Y-10796340D01*
X79033753Y-10445927D01*
X78683340Y-10211788D01*
X78270000Y-10129570D01*
X77856660Y-10211788D01*
X77506247Y-10445927D01*
X77272108Y-10796340D01*
X77189890Y-11209680D01*
X76810110Y-11209680D01*
X76727892Y-10796340D01*
X76493753Y-10445927D01*
X76143340Y-10211788D01*
X75730000Y-10129570D01*
X75316660Y-10211788D01*
X74966247Y-10445927D01*
X74732108Y-10796340D01*
X74649890Y-11209680D01*
X74270110Y-11209680D01*
X74187892Y-10796340D01*
X73953753Y-10445927D01*
X73603340Y-10211788D01*
X73190000Y-10129570D01*
X72776660Y-10211788D01*
X72426247Y-10445927D01*
X72192108Y-10796340D01*
X72109890Y-11209680D01*
X71730110Y-11209680D01*
X71647892Y-10796340D01*
X71413753Y-10445927D01*
X71063340Y-10211788D01*
X70650000Y-10129570D01*
X70236660Y-10211788D01*
X69886247Y-10445927D01*
X69652108Y-10796340D01*
X69569890Y-11209680D01*
X69190110Y-11209680D01*
X69107892Y-10796340D01*
X68873753Y-10445927D01*
X68523340Y-10211788D01*
X68110000Y-10129570D01*
X67696660Y-10211788D01*
X67346247Y-10445927D01*
X67112108Y-10796340D01*
X67029890Y-11209680D01*
X66650110Y-11209680D01*
X66567892Y-10796340D01*
X66333753Y-10445927D01*
X65983340Y-10211788D01*
X65570000Y-10129570D01*
X65156660Y-10211788D01*
X64806247Y-10445927D01*
X64572108Y-10796340D01*
X64489890Y-11209680D01*
X51926817Y-11209680D01*
X51927334Y-10618378D01*
X51634584Y-9909868D01*
X51092983Y-9367322D01*
X50384986Y-9073335D01*
X49618378Y-9072666D01*
X48909868Y-9365416D01*
X48367322Y-9907017D01*
X48073335Y-10615014D01*
X48072666Y-11381622D01*
X37010110Y-11381622D01*
X37010110Y-11209680D01*
X36927892Y-10796340D01*
X36693753Y-10445927D01*
X36343340Y-10211788D01*
X35930000Y-10129570D01*
X35516660Y-10211788D01*
X35166247Y-10445927D01*
X34932108Y-10796340D01*
X34849890Y-11209680D01*
X34470110Y-11209680D01*
X34387892Y-10796340D01*
X34153753Y-10445927D01*
X33803340Y-10211788D01*
X33390000Y-10129570D01*
X32976660Y-10211788D01*
X32626247Y-10445927D01*
X32392108Y-10796340D01*
X32309890Y-11209680D01*
X31930110Y-11209680D01*
X31847892Y-10796340D01*
X31613753Y-10445927D01*
X31263340Y-10211788D01*
X30850000Y-10129570D01*
X30436660Y-10211788D01*
X30086247Y-10445927D01*
X29852108Y-10796340D01*
X29769890Y-11209680D01*
X29390110Y-11209680D01*
X29307892Y-10796340D01*
X29073753Y-10445927D01*
X28723340Y-10211788D01*
X28310000Y-10129570D01*
X27896660Y-10211788D01*
X27546247Y-10445927D01*
X27312108Y-10796340D01*
X27229890Y-11209680D01*
X26850110Y-11209680D01*
X26767892Y-10796340D01*
X26533753Y-10445927D01*
X26183340Y-10211788D01*
X25770000Y-10129570D01*
X25356660Y-10211788D01*
X25006247Y-10445927D01*
X24772108Y-10796340D01*
X24689890Y-11209680D01*
X24310110Y-11209680D01*
X24227892Y-10796340D01*
X23993753Y-10445927D01*
X23643340Y-10211788D01*
X23230000Y-10129570D01*
X22816660Y-10211788D01*
X22466247Y-10445927D01*
X22232108Y-10796340D01*
X22149890Y-11209680D01*
X21770110Y-11209680D01*
X21687892Y-10796340D01*
X21453753Y-10445927D01*
X21103340Y-10211788D01*
X20690000Y-10129570D01*
X20276660Y-10211788D01*
X19926247Y-10445927D01*
X19692108Y-10796340D01*
X19609890Y-11209680D01*
X19230110Y-11209680D01*
X19147892Y-10796340D01*
X18913753Y-10445927D01*
X18563340Y-10211788D01*
X18150000Y-10129570D01*
X17736660Y-10211788D01*
X17386247Y-10445927D01*
X17152108Y-10796340D01*
X17069890Y-11209680D01*
X16690110Y-11209680D01*
X16607892Y-10796340D01*
X16373753Y-10445927D01*
X16023340Y-10211788D01*
X15610000Y-10129570D01*
X15196660Y-10211788D01*
X14846247Y-10445927D01*
X14612108Y-10796340D01*
X14529890Y-11209680D01*
X14150110Y-11209680D01*
X14067892Y-10796340D01*
X13833753Y-10445927D01*
X13483340Y-10211788D01*
X13070000Y-10129570D01*
X12656660Y-10211788D01*
X12306247Y-10445927D01*
X12072108Y-10796340D01*
X11989890Y-11209680D01*
X402000Y-11209680D01*
X402000Y-4381622D01*
X3072666Y-4381622D01*
X3365416Y-5090132D01*
X3907017Y-5632678D01*
X4615014Y-5926665D01*
X5381622Y-5927334D01*
X6090132Y-5634584D01*
X6632678Y-5092983D01*
X6926665Y-4384986D01*
X6927254Y-3709680D01*
X22489890Y-3709680D01*
X22489890Y-5290320D01*
X22572108Y-5703660D01*
X22806247Y-6054073D01*
X23156660Y-6288212D01*
X23570000Y-6370430D01*
X23983340Y-6288212D01*
X24333753Y-6054073D01*
X24567892Y-5703660D01*
X24650110Y-5290320D01*
X24650110Y-3709680D01*
X25029890Y-3709680D01*
X25029890Y-5290320D01*
X25112108Y-5703660D01*
X25346247Y-6054073D01*
X25696660Y-6288212D01*
X26110000Y-6370430D01*
X26523340Y-6288212D01*
X26873753Y-6054073D01*
X27107892Y-5703660D01*
X27190110Y-5290320D01*
X27190110Y-3709680D01*
X27569890Y-3709680D01*
X27569890Y-5290320D01*
X27652108Y-5703660D01*
X27886247Y-6054073D01*
X28236660Y-6288212D01*
X28650000Y-6370430D01*
X29063340Y-6288212D01*
X29413753Y-6054073D01*
X29647892Y-5703660D01*
X29730110Y-5290320D01*
X29730110Y-3709680D01*
X30109890Y-3709680D01*
X30109890Y-5290320D01*
X30192108Y-5703660D01*
X30426247Y-6054073D01*
X30776660Y-6288212D01*
X31190000Y-6370430D01*
X31603340Y-6288212D01*
X31953753Y-6054073D01*
X32187892Y-5703660D01*
X32270110Y-5290320D01*
X32270110Y-3709680D01*
X32649890Y-3709680D01*
X32649890Y-5290320D01*
X32732108Y-5703660D01*
X32966247Y-6054073D01*
X33316660Y-6288212D01*
X33730000Y-6370430D01*
X34143340Y-6288212D01*
X34493753Y-6054073D01*
X34727892Y-5703660D01*
X34810110Y-5290320D01*
X34810110Y-3709680D01*
X35189890Y-3709680D01*
X35189890Y-5290320D01*
X35272108Y-5703660D01*
X35506247Y-6054073D01*
X35856660Y-6288212D01*
X36270000Y-6370430D01*
X36683340Y-6288212D01*
X37033753Y-6054073D01*
X37267892Y-5703660D01*
X37350110Y-5290320D01*
X37350110Y-3709680D01*
X37729890Y-3709680D01*
X37729890Y-5290320D01*
X37812108Y-5703660D01*
X38046247Y-6054073D01*
X38396660Y-6288212D01*
X38810000Y-6370430D01*
X39223340Y-6288212D01*
X39573753Y-6054073D01*
X39807892Y-5703660D01*
X39890110Y-5290320D01*
X39890110Y-3709680D01*
X40269890Y-3709680D01*
X40269890Y-5290320D01*
X40352108Y-5703660D01*
X40586247Y-6054073D01*
X40936660Y-6288212D01*
X41350000Y-6370430D01*
X41763340Y-6288212D01*
X42113753Y-6054073D01*
X42347892Y-5703660D01*
X42430110Y-5290320D01*
X42430110Y-3709680D01*
X42809890Y-3709680D01*
X42809890Y-5290320D01*
X42892108Y-5703660D01*
X43126247Y-6054073D01*
X43476660Y-6288212D01*
X43890000Y-6370430D01*
X44303340Y-6288212D01*
X44653753Y-6054073D01*
X44887892Y-5703660D01*
X44970110Y-5290320D01*
X44970110Y-4627000D01*
X45041890Y-4627000D01*
X45041890Y-5381380D01*
X45196154Y-5902919D01*
X45538260Y-6325724D01*
X46016125Y-6585427D01*
X46088326Y-6599783D01*
X46303000Y-6477162D01*
X46303000Y-4627000D01*
X46557000Y-4627000D01*
X46557000Y-6477162D01*
X46771674Y-6599783D01*
X46843875Y-6585427D01*
X47321740Y-6325724D01*
X47663846Y-5902919D01*
X47818110Y-5381380D01*
X47818110Y-4627000D01*
X46557000Y-4627000D01*
X46303000Y-4627000D01*
X45041890Y-4627000D01*
X44970110Y-4627000D01*
X44970110Y-3709680D01*
X44951998Y-3618620D01*
X45041890Y-3618620D01*
X45041890Y-4373000D01*
X46303000Y-4373000D01*
X46303000Y-2522838D01*
X46557000Y-2522838D01*
X46557000Y-4373000D01*
X47818110Y-4373000D01*
X47818110Y-3709680D01*
X52989890Y-3709680D01*
X52989890Y-5290320D01*
X53072108Y-5703660D01*
X53306247Y-6054073D01*
X53656660Y-6288212D01*
X54070000Y-6370430D01*
X54483340Y-6288212D01*
X54833753Y-6054073D01*
X55067892Y-5703660D01*
X55150110Y-5290320D01*
X55150110Y-3709680D01*
X55529890Y-3709680D01*
X55529890Y-5290320D01*
X55612108Y-5703660D01*
X55846247Y-6054073D01*
X56196660Y-6288212D01*
X56610000Y-6370430D01*
X57023340Y-6288212D01*
X57373753Y-6054073D01*
X57607892Y-5703660D01*
X57690110Y-5290320D01*
X57690110Y-3709680D01*
X58069890Y-3709680D01*
X58069890Y-5290320D01*
X58152108Y-5703660D01*
X58386247Y-6054073D01*
X58736660Y-6288212D01*
X59150000Y-6370430D01*
X59563340Y-6288212D01*
X59913753Y-6054073D01*
X60147892Y-5703660D01*
X60230110Y-5290320D01*
X60230110Y-3709680D01*
X60609890Y-3709680D01*
X60609890Y-5290320D01*
X60692108Y-5703660D01*
X60926247Y-6054073D01*
X61276660Y-6288212D01*
X61690000Y-6370430D01*
X62103340Y-6288212D01*
X62453753Y-6054073D01*
X62687892Y-5703660D01*
X62770110Y-5290320D01*
X62770110Y-3709680D01*
X63149890Y-3709680D01*
X63149890Y-5290320D01*
X63232108Y-5703660D01*
X63466247Y-6054073D01*
X63816660Y-6288212D01*
X64230000Y-6370430D01*
X64643340Y-6288212D01*
X64993753Y-6054073D01*
X65227892Y-5703660D01*
X65310110Y-5290320D01*
X65310110Y-3709680D01*
X65689890Y-3709680D01*
X65689890Y-5290320D01*
X65772108Y-5703660D01*
X66006247Y-6054073D01*
X66356660Y-6288212D01*
X66770000Y-6370430D01*
X67183340Y-6288212D01*
X67533753Y-6054073D01*
X67767892Y-5703660D01*
X67850110Y-5290320D01*
X67850110Y-3709680D01*
X68229890Y-3709680D01*
X68229890Y-5290320D01*
X68312108Y-5703660D01*
X68546247Y-6054073D01*
X68896660Y-6288212D01*
X69310000Y-6370430D01*
X69723340Y-6288212D01*
X70073753Y-6054073D01*
X70307892Y-5703660D01*
X70390110Y-5290320D01*
X70390110Y-3709680D01*
X70769890Y-3709680D01*
X70769890Y-5290320D01*
X70852108Y-5703660D01*
X71086247Y-6054073D01*
X71436660Y-6288212D01*
X71850000Y-6370430D01*
X72263340Y-6288212D01*
X72613753Y-6054073D01*
X72847892Y-5703660D01*
X72930110Y-5290320D01*
X72930110Y-3709680D01*
X73309890Y-3709680D01*
X73309890Y-5290320D01*
X73392108Y-5703660D01*
X73626247Y-6054073D01*
X73976660Y-6288212D01*
X74390000Y-6370430D01*
X74803340Y-6288212D01*
X75153753Y-6054073D01*
X75387892Y-5703660D01*
X75470110Y-5290320D01*
X75470110Y-4627000D01*
X75541890Y-4627000D01*
X75541890Y-5381380D01*
X75696154Y-5902919D01*
X76038260Y-6325724D01*
X76516125Y-6585427D01*
X76588326Y-6599783D01*
X76803000Y-6477162D01*
X76803000Y-4627000D01*
X77057000Y-4627000D01*
X77057000Y-6477162D01*
X77271674Y-6599783D01*
X77343875Y-6585427D01*
X77821740Y-6325724D01*
X78163846Y-5902919D01*
X78318110Y-5381380D01*
X78318110Y-4627000D01*
X77057000Y-4627000D01*
X76803000Y-4627000D01*
X75541890Y-4627000D01*
X75470110Y-4627000D01*
X75470110Y-4381622D01*
X93072666Y-4381622D01*
X93365416Y-5090132D01*
X93907017Y-5632678D01*
X94615014Y-5926665D01*
X95381622Y-5927334D01*
X96090132Y-5634584D01*
X96632678Y-5092983D01*
X96926665Y-4384986D01*
X96927334Y-3618378D01*
X96634584Y-2909868D01*
X96092983Y-2367322D01*
X95384986Y-2073335D01*
X94618378Y-2072666D01*
X93909868Y-2365416D01*
X93367322Y-2907017D01*
X93073335Y-3615014D01*
X93072666Y-4381622D01*
X75470110Y-4381622D01*
X75470110Y-3709680D01*
X75451998Y-3618620D01*
X75541890Y-3618620D01*
X75541890Y-4373000D01*
X76803000Y-4373000D01*
X76803000Y-2522838D01*
X77057000Y-2522838D01*
X77057000Y-4373000D01*
X78318110Y-4373000D01*
X78318110Y-3618620D01*
X78163846Y-3097081D01*
X77821740Y-2674276D01*
X77343875Y-2414573D01*
X77271674Y-2400217D01*
X77057000Y-2522838D01*
X76803000Y-2522838D01*
X76588326Y-2400217D01*
X76516125Y-2414573D01*
X76038260Y-2674276D01*
X75696154Y-3097081D01*
X75541890Y-3618620D01*
X75451998Y-3618620D01*
X75387892Y-3296340D01*
X75153753Y-2945927D01*
X74803340Y-2711788D01*
X74390000Y-2629570D01*
X73976660Y-2711788D01*
X73626247Y-2945927D01*
X73392108Y-3296340D01*
X73309890Y-3709680D01*
X72930110Y-3709680D01*
X72847892Y-3296340D01*
X72613753Y-2945927D01*
X72263340Y-2711788D01*
X71850000Y-2629570D01*
X71436660Y-2711788D01*
X71086247Y-2945927D01*
X70852108Y-3296340D01*
X70769890Y-3709680D01*
X70390110Y-3709680D01*
X70307892Y-3296340D01*
X70073753Y-2945927D01*
X69723340Y-2711788D01*
X69310000Y-2629570D01*
X68896660Y-2711788D01*
X68546247Y-2945927D01*
X68312108Y-3296340D01*
X68229890Y-3709680D01*
X67850110Y-3709680D01*
X67767892Y-3296340D01*
X67533753Y-2945927D01*
X67183340Y-2711788D01*
X66770000Y-2629570D01*
X66356660Y-2711788D01*
X66006247Y-2945927D01*
X65772108Y-3296340D01*
X65689890Y-3709680D01*
X65310110Y-3709680D01*
X65227892Y-3296340D01*
X64993753Y-2945927D01*
X64643340Y-2711788D01*
X64230000Y-2629570D01*
X63816660Y-2711788D01*
X63466247Y-2945927D01*
X63232108Y-3296340D01*
X63149890Y-3709680D01*
X62770110Y-3709680D01*
X62687892Y-3296340D01*
X62453753Y-2945927D01*
X62103340Y-2711788D01*
X61690000Y-2629570D01*
X61276660Y-2711788D01*
X60926247Y-2945927D01*
X60692108Y-3296340D01*
X60609890Y-3709680D01*
X60230110Y-3709680D01*
X60147892Y-3296340D01*
X59913753Y-2945927D01*
X59563340Y-2711788D01*
X59150000Y-2629570D01*
X58736660Y-2711788D01*
X58386247Y-2945927D01*
X58152108Y-3296340D01*
X58069890Y-3709680D01*
X57690110Y-3709680D01*
X57607892Y-3296340D01*
X57373753Y-2945927D01*
X57023340Y-2711788D01*
X56610000Y-2629570D01*
X56196660Y-2711788D01*
X55846247Y-2945927D01*
X55612108Y-3296340D01*
X55529890Y-3709680D01*
X55150110Y-3709680D01*
X55067892Y-3296340D01*
X54833753Y-2945927D01*
X54483340Y-2711788D01*
X54070000Y-2629570D01*
X53656660Y-2711788D01*
X53306247Y-2945927D01*
X53072108Y-3296340D01*
X52989890Y-3709680D01*
X47818110Y-3709680D01*
X47818110Y-3618620D01*
X47663846Y-3097081D01*
X47321740Y-2674276D01*
X46843875Y-2414573D01*
X46771674Y-2400217D01*
X46557000Y-2522838D01*
X46303000Y-2522838D01*
X46088326Y-2400217D01*
X46016125Y-2414573D01*
X45538260Y-2674276D01*
X45196154Y-3097081D01*
X45041890Y-3618620D01*
X44951998Y-3618620D01*
X44887892Y-3296340D01*
X44653753Y-2945927D01*
X44303340Y-2711788D01*
X43890000Y-2629570D01*
X43476660Y-2711788D01*
X43126247Y-2945927D01*
X42892108Y-3296340D01*
X42809890Y-3709680D01*
X42430110Y-3709680D01*
X42347892Y-3296340D01*
X42113753Y-2945927D01*
X41763340Y-2711788D01*
X41350000Y-2629570D01*
X40936660Y-2711788D01*
X40586247Y-2945927D01*
X40352108Y-3296340D01*
X40269890Y-3709680D01*
X39890110Y-3709680D01*
X39807892Y-3296340D01*
X39573753Y-2945927D01*
X39223340Y-2711788D01*
X38810000Y-2629570D01*
X38396660Y-2711788D01*
X38046247Y-2945927D01*
X37812108Y-3296340D01*
X37729890Y-3709680D01*
X37350110Y-3709680D01*
X37267892Y-3296340D01*
X37033753Y-2945927D01*
X36683340Y-2711788D01*
X36270000Y-2629570D01*
X35856660Y-2711788D01*
X35506247Y-2945927D01*
X35272108Y-3296340D01*
X35189890Y-3709680D01*
X34810110Y-3709680D01*
X34727892Y-3296340D01*
X34493753Y-2945927D01*
X34143340Y-2711788D01*
X33730000Y-2629570D01*
X33316660Y-2711788D01*
X32966247Y-2945927D01*
X32732108Y-3296340D01*
X32649890Y-3709680D01*
X32270110Y-3709680D01*
X32187892Y-3296340D01*
X31953753Y-2945927D01*
X31603340Y-2711788D01*
X31190000Y-2629570D01*
X30776660Y-2711788D01*
X30426247Y-2945927D01*
X30192108Y-3296340D01*
X30109890Y-3709680D01*
X29730110Y-3709680D01*
X29647892Y-3296340D01*
X29413753Y-2945927D01*
X29063340Y-2711788D01*
X28650000Y-2629570D01*
X28236660Y-2711788D01*
X27886247Y-2945927D01*
X27652108Y-3296340D01*
X27569890Y-3709680D01*
X27190110Y-3709680D01*
X27107892Y-3296340D01*
X26873753Y-2945927D01*
X26523340Y-2711788D01*
X26110000Y-2629570D01*
X25696660Y-2711788D01*
X25346247Y-2945927D01*
X25112108Y-3296340D01*
X25029890Y-3709680D01*
X24650110Y-3709680D01*
X24567892Y-3296340D01*
X24333753Y-2945927D01*
X23983340Y-2711788D01*
X23570000Y-2629570D01*
X23156660Y-2711788D01*
X22806247Y-2945927D01*
X22572108Y-3296340D01*
X22489890Y-3709680D01*
X6927254Y-3709680D01*
X6927334Y-3618378D01*
X6634584Y-2909868D01*
X6092983Y-2367322D01*
X5384986Y-2073335D01*
X4618378Y-2072666D01*
X3909868Y-2365416D01*
X3367322Y-2907017D01*
X3073335Y-3615014D01*
X3072666Y-4381622D01*
X402000Y-4381622D01*
X402000Y-402000D01*
X99598000Y-402000D01*
X99598000Y-31598000D01*
X99598000Y-31598000D01*
G37*
X99598000Y-31598000D02*
X402000Y-31598000D01*
X402000Y-28381622D01*
X3072666Y-28381622D01*
X3365416Y-29090132D01*
X3907017Y-29632678D01*
X4615014Y-29926665D01*
X5381622Y-29927334D01*
X6090132Y-29634584D01*
X6632678Y-29092983D01*
X6926665Y-28384986D01*
X6926667Y-28381622D01*
X93072666Y-28381622D01*
X93365416Y-29090132D01*
X93907017Y-29632678D01*
X94615014Y-29926665D01*
X95381622Y-29927334D01*
X96090132Y-29634584D01*
X96632678Y-29092983D01*
X96926665Y-28384986D01*
X96927334Y-27618378D01*
X96634584Y-26909868D01*
X96092983Y-26367322D01*
X95384986Y-26073335D01*
X94618378Y-26072666D01*
X93909868Y-26365416D01*
X93367322Y-26907017D01*
X93073335Y-27615014D01*
X93072666Y-28381622D01*
X6926667Y-28381622D01*
X6927334Y-27618378D01*
X6634584Y-26909868D01*
X6092983Y-26367322D01*
X5384986Y-26073335D01*
X4618378Y-26072666D01*
X3909868Y-26365416D01*
X3367322Y-26907017D01*
X3073335Y-27615014D01*
X3072666Y-28381622D01*
X402000Y-28381622D01*
X402000Y-20593001D01*
X2302028Y-20593001D01*
X2333137Y-21063396D01*
X2453299Y-21353492D01*
X2673564Y-21396828D01*
X2557618Y-21512774D01*
X2638192Y-21593348D01*
X2616594Y-21700000D01*
X2616594Y-22800000D01*
X2639395Y-22921179D01*
X2711012Y-23032474D01*
X2820286Y-23107138D01*
X2950000Y-23133406D01*
X4050000Y-23133406D01*
X4171179Y-23110605D01*
X4282474Y-23038988D01*
X4357138Y-22929714D01*
X4383406Y-22800000D01*
X4383406Y-21700000D01*
X4363096Y-21592060D01*
X4442382Y-21512774D01*
X4326436Y-21396828D01*
X4546701Y-21353492D01*
X4697972Y-20906999D01*
X4677207Y-20593001D01*
X7802028Y-20593001D01*
X7833137Y-21063396D01*
X7953299Y-21353492D01*
X8173564Y-21396828D01*
X8057618Y-21512774D01*
X8138192Y-21593348D01*
X8116594Y-21700000D01*
X8116594Y-22800000D01*
X8139395Y-22921179D01*
X8211012Y-23032474D01*
X8320286Y-23107138D01*
X8450000Y-23133406D01*
X9550000Y-23133406D01*
X9671179Y-23110605D01*
X9782474Y-23038988D01*
X9857138Y-22929714D01*
X9883406Y-22800000D01*
X9883406Y-21700000D01*
X9863096Y-21592060D01*
X9942382Y-21512774D01*
X9826436Y-21396828D01*
X10046701Y-21353492D01*
X10197972Y-20906999D01*
X10177207Y-20593001D01*
X13302028Y-20593001D01*
X13333137Y-21063396D01*
X13453299Y-21353492D01*
X13673564Y-21396828D01*
X13557618Y-21512774D01*
X13638192Y-21593348D01*
X13616594Y-21700000D01*
X13616594Y-22800000D01*
X13639395Y-22921179D01*
X13711012Y-23032474D01*
X13820286Y-23107138D01*
X13950000Y-23133406D01*
X15050000Y-23133406D01*
X15171179Y-23110605D01*
X15282474Y-23038988D01*
X15357138Y-22929714D01*
X15383406Y-22800000D01*
X15383406Y-21700000D01*
X15363096Y-21592060D01*
X15442382Y-21512774D01*
X15326436Y-21396828D01*
X15546701Y-21353492D01*
X15697972Y-20906999D01*
X15677207Y-20593001D01*
X18802028Y-20593001D01*
X18833137Y-21063396D01*
X18953299Y-21353492D01*
X19173564Y-21396828D01*
X19057618Y-21512774D01*
X19138192Y-21593348D01*
X19116594Y-21700000D01*
X19116594Y-22800000D01*
X19139395Y-22921179D01*
X19211012Y-23032474D01*
X19320286Y-23107138D01*
X19450000Y-23133406D01*
X20550000Y-23133406D01*
X20671179Y-23110605D01*
X20782474Y-23038988D01*
X20857138Y-22929714D01*
X20883406Y-22800000D01*
X20883406Y-21700000D01*
X20863096Y-21592060D01*
X20942382Y-21512774D01*
X20826436Y-21396828D01*
X21046701Y-21353492D01*
X21197972Y-20906999D01*
X21177207Y-20593001D01*
X24302028Y-20593001D01*
X24333137Y-21063396D01*
X24453299Y-21353492D01*
X24673564Y-21396828D01*
X24557618Y-21512774D01*
X24638192Y-21593348D01*
X24616594Y-21700000D01*
X24616594Y-22800000D01*
X24639395Y-22921179D01*
X24711012Y-23032474D01*
X24820286Y-23107138D01*
X24950000Y-23133406D01*
X26050000Y-23133406D01*
X26171179Y-23110605D01*
X26282474Y-23038988D01*
X26357138Y-22929714D01*
X26383406Y-22800000D01*
X26383406Y-21700000D01*
X26363096Y-21592060D01*
X26442382Y-21512774D01*
X26326436Y-21396828D01*
X26546701Y-21353492D01*
X26697972Y-20906999D01*
X26677207Y-20593001D01*
X29802028Y-20593001D01*
X29833137Y-21063396D01*
X29953299Y-21353492D01*
X30173564Y-21396828D01*
X30057618Y-21512774D01*
X30138192Y-21593348D01*
X30116594Y-21700000D01*
X30116594Y-22800000D01*
X30139395Y-22921179D01*
X30211012Y-23032474D01*
X30320286Y-23107138D01*
X30450000Y-23133406D01*
X31550000Y-23133406D01*
X31671179Y-23110605D01*
X31782474Y-23038988D01*
X31857138Y-22929714D01*
X31883406Y-22800000D01*
X31883406Y-21700000D01*
X31863096Y-21592060D01*
X31942382Y-21512774D01*
X31826436Y-21396828D01*
X32046701Y-21353492D01*
X32197972Y-20906999D01*
X32177207Y-20593001D01*
X35302028Y-20593001D01*
X35333137Y-21063396D01*
X35453299Y-21353492D01*
X35673564Y-21396828D01*
X35557618Y-21512774D01*
X35638192Y-21593348D01*
X35616594Y-21700000D01*
X35616594Y-22800000D01*
X35639395Y-22921179D01*
X35711012Y-23032474D01*
X35820286Y-23107138D01*
X35950000Y-23133406D01*
X37050000Y-23133406D01*
X37171179Y-23110605D01*
X37282474Y-23038988D01*
X37357138Y-22929714D01*
X37383406Y-22800000D01*
X37383406Y-21700000D01*
X37363096Y-21592060D01*
X37442382Y-21512774D01*
X37326436Y-21396828D01*
X37546701Y-21353492D01*
X37697972Y-20906999D01*
X37677207Y-20593001D01*
X40802028Y-20593001D01*
X40833137Y-21063396D01*
X40953299Y-21353492D01*
X41173564Y-21396828D01*
X41057618Y-21512774D01*
X41138192Y-21593348D01*
X41116594Y-21700000D01*
X41116594Y-22800000D01*
X41139395Y-22921179D01*
X41211012Y-23032474D01*
X41320286Y-23107138D01*
X41450000Y-23133406D01*
X42550000Y-23133406D01*
X42671179Y-23110605D01*
X42782474Y-23038988D01*
X42857138Y-22929714D01*
X42883406Y-22800000D01*
X42883406Y-21700000D01*
X42863096Y-21592060D01*
X42942382Y-21512774D01*
X42826436Y-21396828D01*
X43046701Y-21353492D01*
X43197972Y-20906999D01*
X43177207Y-20593001D01*
X46302028Y-20593001D01*
X46333137Y-21063396D01*
X46453299Y-21353492D01*
X46673564Y-21396828D01*
X46557618Y-21512774D01*
X46638192Y-21593348D01*
X46616594Y-21700000D01*
X46616594Y-22800000D01*
X46639395Y-22921179D01*
X46711012Y-23032474D01*
X46820286Y-23107138D01*
X46950000Y-23133406D01*
X48050000Y-23133406D01*
X48171179Y-23110605D01*
X48282474Y-23038988D01*
X48357138Y-22929714D01*
X48383406Y-22800000D01*
X48383406Y-21700000D01*
X48363096Y-21592060D01*
X48442382Y-21512774D01*
X48326436Y-21396828D01*
X48546701Y-21353492D01*
X48697972Y-20906999D01*
X48677207Y-20593001D01*
X51802028Y-20593001D01*
X51833137Y-21063396D01*
X51953299Y-21353492D01*
X52173564Y-21396828D01*
X52057618Y-21512774D01*
X52138192Y-21593348D01*
X52116594Y-21700000D01*
X52116594Y-22800000D01*
X52139395Y-22921179D01*
X52211012Y-23032474D01*
X52320286Y-23107138D01*
X52450000Y-23133406D01*
X53550000Y-23133406D01*
X53671179Y-23110605D01*
X53782474Y-23038988D01*
X53857138Y-22929714D01*
X53883406Y-22800000D01*
X53883406Y-21700000D01*
X53863096Y-21592060D01*
X53942382Y-21512774D01*
X53826436Y-21396828D01*
X54046701Y-21353492D01*
X54197972Y-20906999D01*
X54177207Y-20593001D01*
X57302028Y-20593001D01*
X57333137Y-21063396D01*
X57453299Y-21353492D01*
X57673564Y-21396828D01*
X57557618Y-21512774D01*
X57638192Y-21593348D01*
X57616594Y-21700000D01*
X57616594Y-22800000D01*
X57639395Y-22921179D01*
X57711012Y-23032474D01*
X57820286Y-23107138D01*
X57950000Y-23133406D01*
X59050000Y-23133406D01*
X59171179Y-23110605D01*
X59282474Y-23038988D01*
X59357138Y-22929714D01*
X59383406Y-22800000D01*
X59383406Y-21700000D01*
X59363096Y-21592060D01*
X59442382Y-21512774D01*
X59326436Y-21396828D01*
X59546701Y-21353492D01*
X59697972Y-20906999D01*
X59677207Y-20593001D01*
X62802028Y-20593001D01*
X62833137Y-21063396D01*
X62953299Y-21353492D01*
X63173564Y-21396828D01*
X63057618Y-21512774D01*
X63138192Y-21593348D01*
X63116594Y-21700000D01*
X63116594Y-22800000D01*
X63139395Y-22921179D01*
X63211012Y-23032474D01*
X63320286Y-23107138D01*
X63450000Y-23133406D01*
X64550000Y-23133406D01*
X64671179Y-23110605D01*
X64782474Y-23038988D01*
X64857138Y-22929714D01*
X64883406Y-22800000D01*
X64883406Y-21700000D01*
X64863096Y-21592060D01*
X64942382Y-21512774D01*
X64826436Y-21396828D01*
X65046701Y-21353492D01*
X65197972Y-20906999D01*
X65177207Y-20593001D01*
X68302028Y-20593001D01*
X68333137Y-21063396D01*
X68453299Y-21353492D01*
X68673564Y-21396828D01*
X68557618Y-21512774D01*
X68638192Y-21593348D01*
X68616594Y-21700000D01*
X68616594Y-22800000D01*
X68639395Y-22921179D01*
X68711012Y-23032474D01*
X68820286Y-23107138D01*
X68950000Y-23133406D01*
X70050000Y-23133406D01*
X70171179Y-23110605D01*
X70282474Y-23038988D01*
X70357138Y-22929714D01*
X70383406Y-22800000D01*
X70383406Y-21700000D01*
X70363096Y-21592060D01*
X70442382Y-21512774D01*
X70326436Y-21396828D01*
X70546701Y-21353492D01*
X70697972Y-20906999D01*
X70677207Y-20593001D01*
X73802028Y-20593001D01*
X73833137Y-21063396D01*
X73953299Y-21353492D01*
X74173564Y-21396828D01*
X74057618Y-21512774D01*
X74138192Y-21593348D01*
X74116594Y-21700000D01*
X74116594Y-22800000D01*
X74139395Y-22921179D01*
X74211012Y-23032474D01*
X74320286Y-23107138D01*
X74450000Y-23133406D01*
X75550000Y-23133406D01*
X75671179Y-23110605D01*
X75782474Y-23038988D01*
X75857138Y-22929714D01*
X75883406Y-22800000D01*
X75883406Y-21700000D01*
X75863096Y-21592060D01*
X75942382Y-21512774D01*
X75826436Y-21396828D01*
X76046701Y-21353492D01*
X76197972Y-20906999D01*
X76177207Y-20593001D01*
X79302028Y-20593001D01*
X79333137Y-21063396D01*
X79453299Y-21353492D01*
X79673564Y-21396828D01*
X79557618Y-21512774D01*
X79638192Y-21593348D01*
X79616594Y-21700000D01*
X79616594Y-22800000D01*
X79639395Y-22921179D01*
X79711012Y-23032474D01*
X79820286Y-23107138D01*
X79950000Y-23133406D01*
X81050000Y-23133406D01*
X81171179Y-23110605D01*
X81282474Y-23038988D01*
X81357138Y-22929714D01*
X81383406Y-22800000D01*
X81383406Y-21700000D01*
X81363096Y-21592060D01*
X81442382Y-21512774D01*
X81326436Y-21396828D01*
X81546701Y-21353492D01*
X81697972Y-20906999D01*
X81677207Y-20593001D01*
X84802028Y-20593001D01*
X84833137Y-21063396D01*
X84953299Y-21353492D01*
X85173564Y-21396828D01*
X85057618Y-21512774D01*
X85138192Y-21593348D01*
X85116594Y-21700000D01*
X85116594Y-22800000D01*
X85139395Y-22921179D01*
X85211012Y-23032474D01*
X85320286Y-23107138D01*
X85450000Y-23133406D01*
X86550000Y-23133406D01*
X86671179Y-23110605D01*
X86782474Y-23038988D01*
X86857138Y-22929714D01*
X86883406Y-22800000D01*
X86883406Y-21700000D01*
X86863096Y-21592060D01*
X86942382Y-21512774D01*
X86826436Y-21396828D01*
X87046701Y-21353492D01*
X87197972Y-20906999D01*
X87177207Y-20593001D01*
X90302028Y-20593001D01*
X90333137Y-21063396D01*
X90453299Y-21353492D01*
X90673564Y-21396828D01*
X90557618Y-21512774D01*
X90638192Y-21593348D01*
X90616594Y-21700000D01*
X90616594Y-22800000D01*
X90639395Y-22921179D01*
X90711012Y-23032474D01*
X90820286Y-23107138D01*
X90950000Y-23133406D01*
X92050000Y-23133406D01*
X92171179Y-23110605D01*
X92282474Y-23038988D01*
X92357138Y-22929714D01*
X92383406Y-22800000D01*
X92383406Y-21700000D01*
X92363096Y-21592060D01*
X92442382Y-21512774D01*
X92326436Y-21396828D01*
X92546701Y-21353492D01*
X92697972Y-20906999D01*
X92677207Y-20593001D01*
X95802028Y-20593001D01*
X95833137Y-21063396D01*
X95953299Y-21353492D01*
X96173564Y-21396828D01*
X96057618Y-21512774D01*
X96138192Y-21593348D01*
X96116594Y-21700000D01*
X96116594Y-22800000D01*
X96139395Y-22921179D01*
X96211012Y-23032474D01*
X96320286Y-23107138D01*
X96450000Y-23133406D01*
X97550000Y-23133406D01*
X97671179Y-23110605D01*
X97782474Y-23038988D01*
X97857138Y-22929714D01*
X97883406Y-22800000D01*
X97883406Y-21700000D01*
X97863096Y-21592060D01*
X97942382Y-21512774D01*
X97826436Y-21396828D01*
X98046701Y-21353492D01*
X98197972Y-20906999D01*
X98166863Y-20436604D01*
X98046701Y-20146508D01*
X97826433Y-20103172D01*
X97179605Y-20750000D01*
X97193748Y-20764143D01*
X97014143Y-20943748D01*
X97000000Y-20929605D01*
X96985858Y-20943748D01*
X96806253Y-20764143D01*
X96820395Y-20750000D01*
X96173567Y-20103172D01*
X95953299Y-20146508D01*
X95802028Y-20593001D01*
X92677207Y-20593001D01*
X92666863Y-20436604D01*
X92546701Y-20146508D01*
X92326433Y-20103172D01*
X91679605Y-20750000D01*
X91693748Y-20764143D01*
X91514143Y-20943748D01*
X91500000Y-20929605D01*
X91485858Y-20943748D01*
X91306253Y-20764143D01*
X91320395Y-20750000D01*
X90673567Y-20103172D01*
X90453299Y-20146508D01*
X90302028Y-20593001D01*
X87177207Y-20593001D01*
X87166863Y-20436604D01*
X87046701Y-20146508D01*
X86826433Y-20103172D01*
X86179605Y-20750000D01*
X86193748Y-20764143D01*
X86014143Y-20943748D01*
X86000000Y-20929605D01*
X85985858Y-20943748D01*
X85806253Y-20764143D01*
X85820395Y-20750000D01*
X85173567Y-20103172D01*
X84953299Y-20146508D01*
X84802028Y-20593001D01*
X81677207Y-20593001D01*
X81666863Y-20436604D01*
X81546701Y-20146508D01*
X81326433Y-20103172D01*
X80679605Y-20750000D01*
X80693748Y-20764143D01*
X80514143Y-20943748D01*
X80500000Y-20929605D01*
X80485858Y-20943748D01*
X80306253Y-20764143D01*
X80320395Y-20750000D01*
X79673567Y-20103172D01*
X79453299Y-20146508D01*
X79302028Y-20593001D01*
X76177207Y-20593001D01*
X76166863Y-20436604D01*
X76046701Y-20146508D01*
X75826433Y-20103172D01*
X75179605Y-20750000D01*
X75193748Y-20764143D01*
X75014143Y-20943748D01*
X75000000Y-20929605D01*
X74985858Y-20943748D01*
X74806253Y-20764143D01*
X74820395Y-20750000D01*
X74173567Y-20103172D01*
X73953299Y-20146508D01*
X73802028Y-20593001D01*
X70677207Y-20593001D01*
X70666863Y-20436604D01*
X70546701Y-20146508D01*
X70326433Y-20103172D01*
X69679605Y-20750000D01*
X69693748Y-20764143D01*
X69514143Y-20943748D01*
X69500000Y-20929605D01*
X69485858Y-20943748D01*
X69306253Y-20764143D01*
X69320395Y-20750000D01*
X68673567Y-20103172D01*
X68453299Y-20146508D01*
X68302028Y-20593001D01*
X65177207Y-20593001D01*
X65166863Y-20436604D01*
X65046701Y-20146508D01*
X64826433Y-20103172D01*
X64179605Y-20750000D01*
X64193748Y-20764143D01*
X64014143Y-20943748D01*
X64000000Y-20929605D01*
X63985858Y-20943748D01*
X63806253Y-20764143D01*
X63820395Y-20750000D01*
X63173567Y-20103172D01*
X62953299Y-20146508D01*
X62802028Y-20593001D01*
X59677207Y-20593001D01*
X59666863Y-20436604D01*
X59546701Y-20146508D01*
X59326433Y-20103172D01*
X58679605Y-20750000D01*
X58693748Y-20764143D01*
X58514143Y-20943748D01*
X58500000Y-20929605D01*
X58485858Y-20943748D01*
X58306253Y-20764143D01*
X58320395Y-20750000D01*
X57673567Y-20103172D01*
X57453299Y-20146508D01*
X57302028Y-20593001D01*
X54177207Y-20593001D01*
X54166863Y-20436604D01*
X54046701Y-20146508D01*
X53826433Y-20103172D01*
X53179605Y-20750000D01*
X53193748Y-20764143D01*
X53014143Y-20943748D01*
X53000000Y-20929605D01*
X52985858Y-20943748D01*
X52806253Y-20764143D01*
X52820395Y-20750000D01*
X52173567Y-20103172D01*
X51953299Y-20146508D01*
X51802028Y-20593001D01*
X48677207Y-20593001D01*
X48666863Y-20436604D01*
X48546701Y-20146508D01*
X48326433Y-20103172D01*
X47679605Y-20750000D01*
X47693748Y-20764143D01*
X47514143Y-20943748D01*
X47500000Y-20929605D01*
X47485858Y-20943748D01*
X47306253Y-20764143D01*
X47320395Y-20750000D01*
X46673567Y-20103172D01*
X46453299Y-20146508D01*
X46302028Y-20593001D01*
X43177207Y-20593001D01*
X43166863Y-20436604D01*
X43046701Y-20146508D01*
X42826433Y-20103172D01*
X42179605Y-20750000D01*
X42193748Y-20764143D01*
X42014143Y-20943748D01*
X42000000Y-20929605D01*
X41985858Y-20943748D01*
X41806253Y-20764143D01*
X41820395Y-20750000D01*
X41173567Y-20103172D01*
X40953299Y-20146508D01*
X40802028Y-20593001D01*
X37677207Y-20593001D01*
X37666863Y-20436604D01*
X37546701Y-20146508D01*
X37326433Y-20103172D01*
X36679605Y-20750000D01*
X36693748Y-20764143D01*
X36514143Y-20943748D01*
X36500000Y-20929605D01*
X36485858Y-20943748D01*
X36306253Y-20764143D01*
X36320395Y-20750000D01*
X35673567Y-20103172D01*
X35453299Y-20146508D01*
X35302028Y-20593001D01*
X32177207Y-20593001D01*
X32166863Y-20436604D01*
X32046701Y-20146508D01*
X31826433Y-20103172D01*
X31179605Y-20750000D01*
X31193748Y-20764143D01*
X31014143Y-20943748D01*
X31000000Y-20929605D01*
X30985858Y-20943748D01*
X30806253Y-20764143D01*
X30820395Y-20750000D01*
X30173567Y-20103172D01*
X29953299Y-20146508D01*
X29802028Y-20593001D01*
X26677207Y-20593001D01*
X26666863Y-20436604D01*
X26546701Y-20146508D01*
X26326433Y-20103172D01*
X25679605Y-20750000D01*
X25693748Y-20764143D01*
X25514143Y-20943748D01*
X25500000Y-20929605D01*
X25485858Y-20943748D01*
X25306253Y-20764143D01*
X25320395Y-20750000D01*
X24673567Y-20103172D01*
X24453299Y-20146508D01*
X24302028Y-20593001D01*
X21177207Y-20593001D01*
X21166863Y-20436604D01*
X21046701Y-20146508D01*
X20826433Y-20103172D01*
X20179605Y-20750000D01*
X20193748Y-20764143D01*
X20014143Y-20943748D01*
X20000000Y-20929605D01*
X19985858Y-20943748D01*
X19806253Y-20764143D01*
X19820395Y-20750000D01*
X19173567Y-20103172D01*
X18953299Y-20146508D01*
X18802028Y-20593001D01*
X15677207Y-20593001D01*
X15666863Y-20436604D01*
X15546701Y-20146508D01*
X15326433Y-20103172D01*
X14679605Y-20750000D01*
X14693748Y-20764143D01*
X14514143Y-20943748D01*
X14500000Y-20929605D01*
X14485858Y-20943748D01*
X14306253Y-20764143D01*
X14320395Y-20750000D01*
X13673567Y-20103172D01*
X13453299Y-20146508D01*
X13302028Y-20593001D01*
X10177207Y-20593001D01*
X10166863Y-20436604D01*
X10046701Y-20146508D01*
X9826433Y-20103172D01*
X9179605Y-20750000D01*
X9193748Y-20764143D01*
X9014143Y-20943748D01*
X9000000Y-20929605D01*
X8985858Y-20943748D01*
X8806253Y-20764143D01*
X8820395Y-20750000D01*
X8173567Y-20103172D01*
X7953299Y-20146508D01*
X7802028Y-20593001D01*
X4677207Y-20593001D01*
X4666863Y-20436604D01*
X4546701Y-20146508D01*
X4326433Y-20103172D01*
X3679605Y-20750000D01*
X3693748Y-20764143D01*
X3514143Y-20943748D01*
X3500000Y-20929605D01*
X3485858Y-20943748D01*
X3306253Y-20764143D01*
X3320395Y-20750000D01*
X2673567Y-20103172D01*
X2453299Y-20146508D01*
X2302028Y-20593001D01*
X402000Y-20593001D01*
X402000Y-17923681D01*
X2622849Y-17923681D01*
X2756082Y-18246131D01*
X3002571Y-18493051D01*
X3018948Y-18499851D01*
X3003869Y-18506082D01*
X2756949Y-18752571D01*
X2623153Y-19074789D01*
X2622849Y-19423681D01*
X2756082Y-19746131D01*
X2866349Y-19856591D01*
X2853172Y-19923567D01*
X3500000Y-20570395D01*
X4146828Y-19923567D01*
X4133659Y-19856630D01*
X4243051Y-19747429D01*
X4376847Y-19425211D01*
X4377151Y-19076319D01*
X4243918Y-18753869D01*
X3997429Y-18506949D01*
X3981052Y-18500149D01*
X3996131Y-18493918D01*
X4243051Y-18247429D01*
X4376847Y-17925211D01*
X4376848Y-17923681D01*
X8122849Y-17923681D01*
X8256082Y-18246131D01*
X8502571Y-18493051D01*
X8518948Y-18499851D01*
X8503869Y-18506082D01*
X8256949Y-18752571D01*
X8123153Y-19074789D01*
X8122849Y-19423681D01*
X8256082Y-19746131D01*
X8366349Y-19856591D01*
X8353172Y-19923567D01*
X9000000Y-20570395D01*
X9646828Y-19923567D01*
X9633659Y-19856630D01*
X9743051Y-19747429D01*
X9876847Y-19425211D01*
X9877151Y-19076319D01*
X9743918Y-18753869D01*
X9497429Y-18506949D01*
X9481052Y-18500149D01*
X9496131Y-18493918D01*
X9743051Y-18247429D01*
X9876847Y-17925211D01*
X9876848Y-17923681D01*
X13622849Y-17923681D01*
X13756082Y-18246131D01*
X14002571Y-18493051D01*
X14018948Y-18499851D01*
X14003869Y-18506082D01*
X13756949Y-18752571D01*
X13623153Y-19074789D01*
X13622849Y-19423681D01*
X13756082Y-19746131D01*
X13866349Y-19856591D01*
X13853172Y-19923567D01*
X14500000Y-20570395D01*
X15146828Y-19923567D01*
X15133659Y-19856630D01*
X15243051Y-19747429D01*
X15376847Y-19425211D01*
X15377151Y-19076319D01*
X15243918Y-18753869D01*
X14997429Y-18506949D01*
X14981052Y-18500149D01*
X14996131Y-18493918D01*
X15243051Y-18247429D01*
X15376847Y-17925211D01*
X15376848Y-17923681D01*
X19122849Y-17923681D01*
X19256082Y-18246131D01*
X19502571Y-18493051D01*
X19518948Y-18499851D01*
X19503869Y-18506082D01*
X19256949Y-18752571D01*
X19123153Y-19074789D01*
X19122849Y-19423681D01*
X19256082Y-19746131D01*
X19366349Y-19856591D01*
X19353172Y-19923567D01*
X20000000Y-20570395D01*
X20646828Y-19923567D01*
X20633659Y-19856630D01*
X20743051Y-19747429D01*
X20876847Y-19425211D01*
X20877151Y-19076319D01*
X20743918Y-18753869D01*
X20497429Y-18506949D01*
X20481052Y-18500149D01*
X20496131Y-18493918D01*
X20743051Y-18247429D01*
X20876847Y-17925211D01*
X20876848Y-17923681D01*
X24622849Y-17923681D01*
X24756082Y-18246131D01*
X25002571Y-18493051D01*
X25018948Y-18499851D01*
X25003869Y-18506082D01*
X24756949Y-18752571D01*
X24623153Y-19074789D01*
X24622849Y-19423681D01*
X24756082Y-19746131D01*
X24866349Y-19856591D01*
X24853172Y-19923567D01*
X25500000Y-20570395D01*
X26146828Y-19923567D01*
X26133659Y-19856630D01*
X26243051Y-19747429D01*
X26376847Y-19425211D01*
X26377151Y-19076319D01*
X26243918Y-18753869D01*
X25997429Y-18506949D01*
X25981052Y-18500149D01*
X25996131Y-18493918D01*
X26243051Y-18247429D01*
X26376847Y-17925211D01*
X26376848Y-17923681D01*
X30122849Y-17923681D01*
X30256082Y-18246131D01*
X30502571Y-18493051D01*
X30518948Y-18499851D01*
X30503869Y-18506082D01*
X30256949Y-18752571D01*
X30123153Y-19074789D01*
X30122849Y-19423681D01*
X30256082Y-19746131D01*
X30366349Y-19856591D01*
X30353172Y-19923567D01*
X31000000Y-20570395D01*
X31646828Y-19923567D01*
X31633659Y-19856630D01*
X31743051Y-19747429D01*
X31876847Y-19425211D01*
X31877151Y-19076319D01*
X31743918Y-18753869D01*
X31497429Y-18506949D01*
X31481052Y-18500149D01*
X31496131Y-18493918D01*
X31743051Y-18247429D01*
X31876847Y-17925211D01*
X31876848Y-17923681D01*
X35622849Y-17923681D01*
X35756082Y-18246131D01*
X36002571Y-18493051D01*
X36018948Y-18499851D01*
X36003869Y-18506082D01*
X35756949Y-18752571D01*
X35623153Y-19074789D01*
X35622849Y-19423681D01*
X35756082Y-19746131D01*
X35866349Y-19856591D01*
X35853172Y-19923567D01*
X36500000Y-20570395D01*
X37146828Y-19923567D01*
X37133659Y-19856630D01*
X37243051Y-19747429D01*
X37376847Y-19425211D01*
X37377151Y-19076319D01*
X37243918Y-18753869D01*
X36997429Y-18506949D01*
X36981052Y-18500149D01*
X36996131Y-18493918D01*
X37243051Y-18247429D01*
X37376847Y-17925211D01*
X37376848Y-17923681D01*
X41122849Y-17923681D01*
X41256082Y-18246131D01*
X41502571Y-18493051D01*
X41518948Y-18499851D01*
X41503869Y-18506082D01*
X41256949Y-18752571D01*
X41123153Y-19074789D01*
X41122849Y-19423681D01*
X41256082Y-19746131D01*
X41366349Y-19856591D01*
X41353172Y-19923567D01*
X42000000Y-20570395D01*
X42646828Y-19923567D01*
X42633659Y-19856630D01*
X42743051Y-19747429D01*
X42876847Y-19425211D01*
X42877151Y-19076319D01*
X42743918Y-18753869D01*
X42497429Y-18506949D01*
X42481052Y-18500149D01*
X42496131Y-18493918D01*
X42743051Y-18247429D01*
X42876847Y-17925211D01*
X42876848Y-17923681D01*
X46622849Y-17923681D01*
X46756082Y-18246131D01*
X47002571Y-18493051D01*
X47018948Y-18499851D01*
X47003869Y-18506082D01*
X46756949Y-18752571D01*
X46623153Y-19074789D01*
X46622849Y-19423681D01*
X46756082Y-19746131D01*
X46866349Y-19856591D01*
X46853172Y-19923567D01*
X47500000Y-20570395D01*
X48146828Y-19923567D01*
X48133659Y-19856630D01*
X48243051Y-19747429D01*
X48376847Y-19425211D01*
X48377151Y-19076319D01*
X48243918Y-18753869D01*
X47997429Y-18506949D01*
X47981052Y-18500149D01*
X47996131Y-18493918D01*
X48243051Y-18247429D01*
X48376847Y-17925211D01*
X48376848Y-17923681D01*
X52122849Y-17923681D01*
X52256082Y-18246131D01*
X52502571Y-18493051D01*
X52518948Y-18499851D01*
X52503869Y-18506082D01*
X52256949Y-18752571D01*
X52123153Y-19074789D01*
X52122849Y-19423681D01*
X52256082Y-19746131D01*
X52366349Y-19856591D01*
X52353172Y-19923567D01*
X53000000Y-20570395D01*
X53646828Y-19923567D01*
X53633659Y-19856630D01*
X53743051Y-19747429D01*
X53876847Y-19425211D01*
X53877151Y-19076319D01*
X53743918Y-18753869D01*
X53497429Y-18506949D01*
X53481052Y-18500149D01*
X53496131Y-18493918D01*
X53743051Y-18247429D01*
X53876847Y-17925211D01*
X53876848Y-17923681D01*
X57622849Y-17923681D01*
X57756082Y-18246131D01*
X58002571Y-18493051D01*
X58018948Y-18499851D01*
X58003869Y-18506082D01*
X57756949Y-18752571D01*
X57623153Y-19074789D01*
X57622849Y-19423681D01*
X57756082Y-19746131D01*
X57866349Y-19856591D01*
X57853172Y-19923567D01*
X58500000Y-20570395D01*
X59146828Y-19923567D01*
X59133659Y-19856630D01*
X59243051Y-19747429D01*
X59376847Y-19425211D01*
X59377151Y-19076319D01*
X59243918Y-18753869D01*
X58997429Y-18506949D01*
X58981052Y-18500149D01*
X58996131Y-18493918D01*
X59243051Y-18247429D01*
X59376847Y-17925211D01*
X59376848Y-17923681D01*
X63122849Y-17923681D01*
X63256082Y-18246131D01*
X63502571Y-18493051D01*
X63518948Y-18499851D01*
X63503869Y-18506082D01*
X63256949Y-18752571D01*
X63123153Y-19074789D01*
X63122849Y-19423681D01*
X63256082Y-19746131D01*
X63366349Y-19856591D01*
X63353172Y-19923567D01*
X64000000Y-20570395D01*
X64646828Y-19923567D01*
X64633659Y-19856630D01*
X64743051Y-19747429D01*
X64876847Y-19425211D01*
X64877151Y-19076319D01*
X64743918Y-18753869D01*
X64497429Y-18506949D01*
X64481052Y-18500149D01*
X64496131Y-18493918D01*
X64743051Y-18247429D01*
X64876847Y-17925211D01*
X64876848Y-17923681D01*
X68622849Y-17923681D01*
X68756082Y-18246131D01*
X69002571Y-18493051D01*
X69018948Y-18499851D01*
X69003869Y-18506082D01*
X68756949Y-18752571D01*
X68623153Y-19074789D01*
X68622849Y-19423681D01*
X68756082Y-19746131D01*
X68866349Y-19856591D01*
X68853172Y-19923567D01*
X69500000Y-20570395D01*
X70146828Y-19923567D01*
X70133659Y-19856630D01*
X70243051Y-19747429D01*
X70376847Y-19425211D01*
X70377151Y-19076319D01*
X70243918Y-18753869D01*
X69997429Y-18506949D01*
X69981052Y-18500149D01*
X69996131Y-18493918D01*
X70243051Y-18247429D01*
X70376847Y-17925211D01*
X70376848Y-17923681D01*
X74122849Y-17923681D01*
X74256082Y-18246131D01*
X74502571Y-18493051D01*
X74518948Y-18499851D01*
X74503869Y-18506082D01*
X74256949Y-18752571D01*
X74123153Y-19074789D01*
X74122849Y-19423681D01*
X74256082Y-19746131D01*
X74366349Y-19856591D01*
X74353172Y-19923567D01*
X75000000Y-20570395D01*
X75646828Y-19923567D01*
X75633659Y-19856630D01*
X75743051Y-19747429D01*
X75876847Y-19425211D01*
X75877151Y-19076319D01*
X75743918Y-18753869D01*
X75497429Y-18506949D01*
X75481052Y-18500149D01*
X75496131Y-18493918D01*
X75743051Y-18247429D01*
X75876847Y-17925211D01*
X75876848Y-17923681D01*
X79622849Y-17923681D01*
X79756082Y-18246131D01*
X80002571Y-18493051D01*
X80018948Y-18499851D01*
X80003869Y-18506082D01*
X79756949Y-18752571D01*
X79623153Y-19074789D01*
X79622849Y-19423681D01*
X79756082Y-19746131D01*
X79866349Y-19856591D01*
X79853172Y-19923567D01*
X80500000Y-20570395D01*
X81146828Y-19923567D01*
X81133659Y-19856630D01*
X81243051Y-19747429D01*
X81376847Y-19425211D01*
X81377151Y-19076319D01*
X81243918Y-18753869D01*
X80997429Y-18506949D01*
X80981052Y-18500149D01*
X80996131Y-18493918D01*
X81243051Y-18247429D01*
X81376847Y-17925211D01*
X81376848Y-17923681D01*
X85122849Y-17923681D01*
X85256082Y-18246131D01*
X85502571Y-18493051D01*
X85518948Y-18499851D01*
X85503869Y-18506082D01*
X85256949Y-18752571D01*
X85123153Y-19074789D01*
X85122849Y-19423681D01*
X85256082Y-19746131D01*
X85366349Y-19856591D01*
X85353172Y-19923567D01*
X86000000Y-20570395D01*
X86646828Y-19923567D01*
X86633659Y-19856630D01*
X86743051Y-19747429D01*
X86876847Y-19425211D01*
X86877151Y-19076319D01*
X86743918Y-18753869D01*
X86497429Y-18506949D01*
X86481052Y-18500149D01*
X86496131Y-18493918D01*
X86743051Y-18247429D01*
X86876847Y-17925211D01*
X86876848Y-17923681D01*
X90622849Y-17923681D01*
X90756082Y-18246131D01*
X91002571Y-18493051D01*
X91018948Y-18499851D01*
X91003869Y-18506082D01*
X90756949Y-18752571D01*
X90623153Y-19074789D01*
X90622849Y-19423681D01*
X90756082Y-19746131D01*
X90866349Y-19856591D01*
X90853172Y-19923567D01*
X91500000Y-20570395D01*
X92146828Y-19923567D01*
X92133659Y-19856630D01*
X92243051Y-19747429D01*
X92376847Y-19425211D01*
X92377151Y-19076319D01*
X92243918Y-18753869D01*
X91997429Y-18506949D01*
X91981052Y-18500149D01*
X91996131Y-18493918D01*
X92243051Y-18247429D01*
X92376847Y-17925211D01*
X92376848Y-17923681D01*
X96122849Y-17923681D01*
X96256082Y-18246131D01*
X96502571Y-18493051D01*
X96518948Y-18499851D01*
X96503869Y-18506082D01*
X96256949Y-18752571D01*
X96123153Y-19074789D01*
X96122849Y-19423681D01*
X96256082Y-19746131D01*
X96366349Y-19856591D01*
X96353172Y-19923567D01*
X97000000Y-20570395D01*
X97646828Y-19923567D01*
X97633659Y-19856630D01*
X97743051Y-19747429D01*
X97876847Y-19425211D01*
X97877151Y-19076319D01*
X97743918Y-18753869D01*
X97497429Y-18506949D01*
X97481052Y-18500149D01*
X97496131Y-18493918D01*
X97743051Y-18247429D01*
X97876847Y-17925211D01*
X97877151Y-17576319D01*
X97743918Y-17253869D01*
X97497429Y-17006949D01*
X97175211Y-16873153D01*
X96826319Y-16872849D01*
X96503869Y-17006082D01*
X96256949Y-17252571D01*
X96123153Y-17574789D01*
X96122849Y-17923681D01*
X92376848Y-17923681D01*
X92377151Y-17576319D01*
X92243918Y-17253869D01*
X91997429Y-17006949D01*
X91675211Y-16873153D01*
X91326319Y-16872849D01*
X91003869Y-17006082D01*
X90756949Y-17252571D01*
X90623153Y-17574789D01*
X90622849Y-17923681D01*
X86876848Y-17923681D01*
X86877151Y-17576319D01*
X86743918Y-17253869D01*
X86497429Y-17006949D01*
X86175211Y-16873153D01*
X85826319Y-16872849D01*
X85503869Y-17006082D01*
X85256949Y-17252571D01*
X85123153Y-17574789D01*
X85122849Y-17923681D01*
X81376848Y-17923681D01*
X81377151Y-17576319D01*
X81243918Y-17253869D01*
X80997429Y-17006949D01*
X80675211Y-16873153D01*
X80326319Y-16872849D01*
X80003869Y-17006082D01*
X79756949Y-17252571D01*
X79623153Y-17574789D01*
X79622849Y-17923681D01*
X75876848Y-17923681D01*
X75877151Y-17576319D01*
X75743918Y-17253869D01*
X75497429Y-17006949D01*
X75175211Y-16873153D01*
X74826319Y-16872849D01*
X74503869Y-17006082D01*
X74256949Y-17252571D01*
X74123153Y-17574789D01*
X74122849Y-17923681D01*
X70376848Y-17923681D01*
X70377151Y-17576319D01*
X70243918Y-17253869D01*
X69997429Y-17006949D01*
X69675211Y-16873153D01*
X69326319Y-16872849D01*
X69003869Y-17006082D01*
X68756949Y-17252571D01*
X68623153Y-17574789D01*
X68622849Y-17923681D01*
X64876848Y-17923681D01*
X64877151Y-17576319D01*
X64743918Y-17253869D01*
X64497429Y-17006949D01*
X64175211Y-16873153D01*
X63826319Y-16872849D01*
X63503869Y-17006082D01*
X63256949Y-17252571D01*
X63123153Y-17574789D01*
X63122849Y-17923681D01*
X59376848Y-17923681D01*
X59377151Y-17576319D01*
X59243918Y-17253869D01*
X58997429Y-17006949D01*
X58675211Y-16873153D01*
X58326319Y-16872849D01*
X58003869Y-17006082D01*
X57756949Y-17252571D01*
X57623153Y-17574789D01*
X57622849Y-17923681D01*
X53876848Y-17923681D01*
X53877151Y-17576319D01*
X53743918Y-17253869D01*
X53497429Y-17006949D01*
X53175211Y-16873153D01*
X52826319Y-16872849D01*
X52503869Y-17006082D01*
X52256949Y-17252571D01*
X52123153Y-17574789D01*
X52122849Y-17923681D01*
X48376848Y-17923681D01*
X48377151Y-17576319D01*
X48243918Y-17253869D01*
X47997429Y-17006949D01*
X47675211Y-16873153D01*
X47326319Y-16872849D01*
X47003869Y-17006082D01*
X46756949Y-17252571D01*
X46623153Y-17574789D01*
X46622849Y-17923681D01*
X42876848Y-17923681D01*
X42877151Y-17576319D01*
X42743918Y-17253869D01*
X42497429Y-17006949D01*
X42175211Y-16873153D01*
X41826319Y-16872849D01*
X41503869Y-17006082D01*
X41256949Y-17252571D01*
X41123153Y-17574789D01*
X41122849Y-17923681D01*
X37376848Y-17923681D01*
X37377151Y-17576319D01*
X37243918Y-17253869D01*
X36997429Y-17006949D01*
X36675211Y-16873153D01*
X36326319Y-16872849D01*
X36003869Y-17006082D01*
X35756949Y-17252571D01*
X35623153Y-17574789D01*
X35622849Y-17923681D01*
X31876848Y-17923681D01*
X31877151Y-17576319D01*
X31743918Y-17253869D01*
X31497429Y-17006949D01*
X31175211Y-16873153D01*
X30826319Y-16872849D01*
X30503869Y-17006082D01*
X30256949Y-17252571D01*
X30123153Y-17574789D01*
X30122849Y-17923681D01*
X26376848Y-17923681D01*
X26377151Y-17576319D01*
X26243918Y-17253869D01*
X25997429Y-17006949D01*
X25675211Y-16873153D01*
X25326319Y-16872849D01*
X25003869Y-17006082D01*
X24756949Y-17252571D01*
X24623153Y-17574789D01*
X24622849Y-17923681D01*
X20876848Y-17923681D01*
X20877151Y-17576319D01*
X20743918Y-17253869D01*
X20497429Y-17006949D01*
X20175211Y-16873153D01*
X19826319Y-16872849D01*
X19503869Y-17006082D01*
X19256949Y-17252571D01*
X19123153Y-17574789D01*
X19122849Y-17923681D01*
X15376848Y-17923681D01*
X15377151Y-17576319D01*
X15243918Y-17253869D01*
X14997429Y-17006949D01*
X14675211Y-16873153D01*
X14326319Y-16872849D01*
X14003869Y-17006082D01*
X13756949Y-17252571D01*
X13623153Y-17574789D01*
X13622849Y-17923681D01*
X9876848Y-17923681D01*
X9877151Y-17576319D01*
X9743918Y-17253869D01*
X9497429Y-17006949D01*
X9175211Y-16873153D01*
X8826319Y-16872849D01*
X8503869Y-17006082D01*
X8256949Y-17252571D01*
X8123153Y-17574789D01*
X8122849Y-17923681D01*
X4376848Y-17923681D01*
X4377151Y-17576319D01*
X4243918Y-17253869D01*
X3997429Y-17006949D01*
X3675211Y-16873153D01*
X3326319Y-16872849D01*
X3003869Y-17006082D01*
X2756949Y-17252571D01*
X2623153Y-17574789D01*
X2622849Y-17923681D01*
X402000Y-17923681D01*
X402000Y-11209680D01*
X11989890Y-11209680D01*
X11989890Y-12790320D01*
X12072108Y-13203660D01*
X12306247Y-13554073D01*
X12656660Y-13788212D01*
X13070000Y-13870430D01*
X13483340Y-13788212D01*
X13833753Y-13554073D01*
X14067892Y-13203660D01*
X14150110Y-12790320D01*
X14150110Y-11209680D01*
X14529890Y-11209680D01*
X14529890Y-12790320D01*
X14612108Y-13203660D01*
X14846247Y-13554073D01*
X15196660Y-13788212D01*
X15610000Y-13870430D01*
X16023340Y-13788212D01*
X16373753Y-13554073D01*
X16607892Y-13203660D01*
X16690110Y-12790320D01*
X16690110Y-11209680D01*
X17069890Y-11209680D01*
X17069890Y-12790320D01*
X17152108Y-13203660D01*
X17386247Y-13554073D01*
X17736660Y-13788212D01*
X18150000Y-13870430D01*
X18563340Y-13788212D01*
X18913753Y-13554073D01*
X19147892Y-13203660D01*
X19230110Y-12790320D01*
X19230110Y-11209680D01*
X19609890Y-11209680D01*
X19609890Y-12790320D01*
X19692108Y-13203660D01*
X19926247Y-13554073D01*
X20276660Y-13788212D01*
X20690000Y-13870430D01*
X21103340Y-13788212D01*
X21453753Y-13554073D01*
X21687892Y-13203660D01*
X21770110Y-12790320D01*
X21770110Y-11209680D01*
X22149890Y-11209680D01*
X22149890Y-12790320D01*
X22232108Y-13203660D01*
X22466247Y-13554073D01*
X22816660Y-13788212D01*
X23230000Y-13870430D01*
X23643340Y-13788212D01*
X23993753Y-13554073D01*
X24227892Y-13203660D01*
X24310110Y-12790320D01*
X24310110Y-11209680D01*
X24689890Y-11209680D01*
X24689890Y-12790320D01*
X24772108Y-13203660D01*
X25006247Y-13554073D01*
X25356660Y-13788212D01*
X25770000Y-13870430D01*
X26183340Y-13788212D01*
X26533753Y-13554073D01*
X26767892Y-13203660D01*
X26850110Y-12790320D01*
X26850110Y-11209680D01*
X27229890Y-11209680D01*
X27229890Y-12790320D01*
X27312108Y-13203660D01*
X27546247Y-13554073D01*
X27896660Y-13788212D01*
X28310000Y-13870430D01*
X28723340Y-13788212D01*
X29073753Y-13554073D01*
X29307892Y-13203660D01*
X29390110Y-12790320D01*
X29390110Y-11209680D01*
X29769890Y-11209680D01*
X29769890Y-12790320D01*
X29852108Y-13203660D01*
X30086247Y-13554073D01*
X30436660Y-13788212D01*
X30850000Y-13870430D01*
X31263340Y-13788212D01*
X31613753Y-13554073D01*
X31847892Y-13203660D01*
X31930110Y-12790320D01*
X31930110Y-11209680D01*
X32309890Y-11209680D01*
X32309890Y-12790320D01*
X32392108Y-13203660D01*
X32626247Y-13554073D01*
X32976660Y-13788212D01*
X33390000Y-13870430D01*
X33803340Y-13788212D01*
X34153753Y-13554073D01*
X34387892Y-13203660D01*
X34470110Y-12790320D01*
X34470110Y-11209680D01*
X34849890Y-11209680D01*
X34849890Y-12790320D01*
X34932108Y-13203660D01*
X35166247Y-13554073D01*
X35516660Y-13788212D01*
X35930000Y-13870430D01*
X36343340Y-13788212D01*
X36693753Y-13554073D01*
X36927892Y-13203660D01*
X37010110Y-12790320D01*
X37010110Y-11381622D01*
X48072666Y-11381622D01*
X48365416Y-12090132D01*
X48907017Y-12632678D01*
X49615014Y-12926665D01*
X50381622Y-12927334D01*
X51090132Y-12634584D01*
X51632678Y-12092983D01*
X51926665Y-11384986D01*
X51926817Y-11209680D01*
X64489890Y-11209680D01*
X64489890Y-12790320D01*
X64572108Y-13203660D01*
X64806247Y-13554073D01*
X65156660Y-13788212D01*
X65570000Y-13870430D01*
X65983340Y-13788212D01*
X66333753Y-13554073D01*
X66567892Y-13203660D01*
X66650110Y-12790320D01*
X66650110Y-11209680D01*
X67029890Y-11209680D01*
X67029890Y-12790320D01*
X67112108Y-13203660D01*
X67346247Y-13554073D01*
X67696660Y-13788212D01*
X68110000Y-13870430D01*
X68523340Y-13788212D01*
X68873753Y-13554073D01*
X69107892Y-13203660D01*
X69190110Y-12790320D01*
X69190110Y-11209680D01*
X69569890Y-11209680D01*
X69569890Y-12790320D01*
X69652108Y-13203660D01*
X69886247Y-13554073D01*
X70236660Y-13788212D01*
X70650000Y-13870430D01*
X71063340Y-13788212D01*
X71413753Y-13554073D01*
X71647892Y-13203660D01*
X71730110Y-12790320D01*
X71730110Y-11209680D01*
X72109890Y-11209680D01*
X72109890Y-12790320D01*
X72192108Y-13203660D01*
X72426247Y-13554073D01*
X72776660Y-13788212D01*
X73190000Y-13870430D01*
X73603340Y-13788212D01*
X73953753Y-13554073D01*
X74187892Y-13203660D01*
X74270110Y-12790320D01*
X74270110Y-11209680D01*
X74649890Y-11209680D01*
X74649890Y-12790320D01*
X74732108Y-13203660D01*
X74966247Y-13554073D01*
X75316660Y-13788212D01*
X75730000Y-13870430D01*
X76143340Y-13788212D01*
X76493753Y-13554073D01*
X76727892Y-13203660D01*
X76810110Y-12790320D01*
X76810110Y-11209680D01*
X77189890Y-11209680D01*
X77189890Y-12790320D01*
X77272108Y-13203660D01*
X77506247Y-13554073D01*
X77856660Y-13788212D01*
X78270000Y-13870430D01*
X78683340Y-13788212D01*
X79033753Y-13554073D01*
X79267892Y-13203660D01*
X79350110Y-12790320D01*
X79350110Y-11209680D01*
X79729890Y-11209680D01*
X79729890Y-12790320D01*
X79812108Y-13203660D01*
X80046247Y-13554073D01*
X80396660Y-13788212D01*
X80810000Y-13870430D01*
X81223340Y-13788212D01*
X81573753Y-13554073D01*
X81807892Y-13203660D01*
X81890110Y-12790320D01*
X81890110Y-11209680D01*
X82269890Y-11209680D01*
X82269890Y-12790320D01*
X82352108Y-13203660D01*
X82586247Y-13554073D01*
X82936660Y-13788212D01*
X83350000Y-13870430D01*
X83763340Y-13788212D01*
X84113753Y-13554073D01*
X84347892Y-13203660D01*
X84430110Y-12790320D01*
X84430110Y-11209680D01*
X84809890Y-11209680D01*
X84809890Y-12790320D01*
X84892108Y-13203660D01*
X85126247Y-13554073D01*
X85476660Y-13788212D01*
X85890000Y-13870430D01*
X86303340Y-13788212D01*
X86653753Y-13554073D01*
X86887892Y-13203660D01*
X86970110Y-12790320D01*
X86970110Y-11209680D01*
X87349890Y-11209680D01*
X87349890Y-12790320D01*
X87432108Y-13203660D01*
X87666247Y-13554073D01*
X88016660Y-13788212D01*
X88430000Y-13870430D01*
X88843340Y-13788212D01*
X89193753Y-13554073D01*
X89427892Y-13203660D01*
X89510110Y-12790320D01*
X89510110Y-11209680D01*
X89427892Y-10796340D01*
X89193753Y-10445927D01*
X88843340Y-10211788D01*
X88430000Y-10129570D01*
X88016660Y-10211788D01*
X87666247Y-10445927D01*
X87432108Y-10796340D01*
X87349890Y-11209680D01*
X86970110Y-11209680D01*
X86887892Y-10796340D01*
X86653753Y-10445927D01*
X86303340Y-10211788D01*
X85890000Y-10129570D01*
X85476660Y-10211788D01*
X85126247Y-10445927D01*
X84892108Y-10796340D01*
X84809890Y-11209680D01*
X84430110Y-11209680D01*
X84347892Y-10796340D01*
X84113753Y-10445927D01*
X83763340Y-10211788D01*
X83350000Y-10129570D01*
X82936660Y-10211788D01*
X82586247Y-10445927D01*
X82352108Y-10796340D01*
X82269890Y-11209680D01*
X81890110Y-11209680D01*
X81807892Y-10796340D01*
X81573753Y-10445927D01*
X81223340Y-10211788D01*
X80810000Y-10129570D01*
X80396660Y-10211788D01*
X80046247Y-10445927D01*
X79812108Y-10796340D01*
X79729890Y-11209680D01*
X79350110Y-11209680D01*
X79267892Y-10796340D01*
X79033753Y-10445927D01*
X78683340Y-10211788D01*
X78270000Y-10129570D01*
X77856660Y-10211788D01*
X77506247Y-10445927D01*
X77272108Y-10796340D01*
X77189890Y-11209680D01*
X76810110Y-11209680D01*
X76727892Y-10796340D01*
X76493753Y-10445927D01*
X76143340Y-10211788D01*
X75730000Y-10129570D01*
X75316660Y-10211788D01*
X74966247Y-10445927D01*
X74732108Y-10796340D01*
X74649890Y-11209680D01*
X74270110Y-11209680D01*
X74187892Y-10796340D01*
X73953753Y-10445927D01*
X73603340Y-10211788D01*
X73190000Y-10129570D01*
X72776660Y-10211788D01*
X72426247Y-10445927D01*
X72192108Y-10796340D01*
X72109890Y-11209680D01*
X71730110Y-11209680D01*
X71647892Y-10796340D01*
X71413753Y-10445927D01*
X71063340Y-10211788D01*
X70650000Y-10129570D01*
X70236660Y-10211788D01*
X69886247Y-10445927D01*
X69652108Y-10796340D01*
X69569890Y-11209680D01*
X69190110Y-11209680D01*
X69107892Y-10796340D01*
X68873753Y-10445927D01*
X68523340Y-10211788D01*
X68110000Y-10129570D01*
X67696660Y-10211788D01*
X67346247Y-10445927D01*
X67112108Y-10796340D01*
X67029890Y-11209680D01*
X66650110Y-11209680D01*
X66567892Y-10796340D01*
X66333753Y-10445927D01*
X65983340Y-10211788D01*
X65570000Y-10129570D01*
X65156660Y-10211788D01*
X64806247Y-10445927D01*
X64572108Y-10796340D01*
X64489890Y-11209680D01*
X51926817Y-11209680D01*
X51927334Y-10618378D01*
X51634584Y-9909868D01*
X51092983Y-9367322D01*
X50384986Y-9073335D01*
X49618378Y-9072666D01*
X48909868Y-9365416D01*
X48367322Y-9907017D01*
X48073335Y-10615014D01*
X48072666Y-11381622D01*
X37010110Y-11381622D01*
X37010110Y-11209680D01*
X36927892Y-10796340D01*
X36693753Y-10445927D01*
X36343340Y-10211788D01*
X35930000Y-10129570D01*
X35516660Y-10211788D01*
X35166247Y-10445927D01*
X34932108Y-10796340D01*
X34849890Y-11209680D01*
X34470110Y-11209680D01*
X34387892Y-10796340D01*
X34153753Y-10445927D01*
X33803340Y-10211788D01*
X33390000Y-10129570D01*
X32976660Y-10211788D01*
X32626247Y-10445927D01*
X32392108Y-10796340D01*
X32309890Y-11209680D01*
X31930110Y-11209680D01*
X31847892Y-10796340D01*
X31613753Y-10445927D01*
X31263340Y-10211788D01*
X30850000Y-10129570D01*
X30436660Y-10211788D01*
X30086247Y-10445927D01*
X29852108Y-10796340D01*
X29769890Y-11209680D01*
X29390110Y-11209680D01*
X29307892Y-10796340D01*
X29073753Y-10445927D01*
X28723340Y-10211788D01*
X28310000Y-10129570D01*
X27896660Y-10211788D01*
X27546247Y-10445927D01*
X27312108Y-10796340D01*
X27229890Y-11209680D01*
X26850110Y-11209680D01*
X26767892Y-10796340D01*
X26533753Y-10445927D01*
X26183340Y-10211788D01*
X25770000Y-10129570D01*
X25356660Y-10211788D01*
X25006247Y-10445927D01*
X24772108Y-10796340D01*
X24689890Y-11209680D01*
X24310110Y-11209680D01*
X24227892Y-10796340D01*
X23993753Y-10445927D01*
X23643340Y-10211788D01*
X23230000Y-10129570D01*
X22816660Y-10211788D01*
X22466247Y-10445927D01*
X22232108Y-10796340D01*
X22149890Y-11209680D01*
X21770110Y-11209680D01*
X21687892Y-10796340D01*
X21453753Y-10445927D01*
X21103340Y-10211788D01*
X20690000Y-10129570D01*
X20276660Y-10211788D01*
X19926247Y-10445927D01*
X19692108Y-10796340D01*
X19609890Y-11209680D01*
X19230110Y-11209680D01*
X19147892Y-10796340D01*
X18913753Y-10445927D01*
X18563340Y-10211788D01*
X18150000Y-10129570D01*
X17736660Y-10211788D01*
X17386247Y-10445927D01*
X17152108Y-10796340D01*
X17069890Y-11209680D01*
X16690110Y-11209680D01*
X16607892Y-10796340D01*
X16373753Y-10445927D01*
X16023340Y-10211788D01*
X15610000Y-10129570D01*
X15196660Y-10211788D01*
X14846247Y-10445927D01*
X14612108Y-10796340D01*
X14529890Y-11209680D01*
X14150110Y-11209680D01*
X14067892Y-10796340D01*
X13833753Y-10445927D01*
X13483340Y-10211788D01*
X13070000Y-10129570D01*
X12656660Y-10211788D01*
X12306247Y-10445927D01*
X12072108Y-10796340D01*
X11989890Y-11209680D01*
X402000Y-11209680D01*
X402000Y-4381622D01*
X3072666Y-4381622D01*
X3365416Y-5090132D01*
X3907017Y-5632678D01*
X4615014Y-5926665D01*
X5381622Y-5927334D01*
X6090132Y-5634584D01*
X6632678Y-5092983D01*
X6926665Y-4384986D01*
X6927254Y-3709680D01*
X22489890Y-3709680D01*
X22489890Y-5290320D01*
X22572108Y-5703660D01*
X22806247Y-6054073D01*
X23156660Y-6288212D01*
X23570000Y-6370430D01*
X23983340Y-6288212D01*
X24333753Y-6054073D01*
X24567892Y-5703660D01*
X24650110Y-5290320D01*
X24650110Y-3709680D01*
X25029890Y-3709680D01*
X25029890Y-5290320D01*
X25112108Y-5703660D01*
X25346247Y-6054073D01*
X25696660Y-6288212D01*
X26110000Y-6370430D01*
X26523340Y-6288212D01*
X26873753Y-6054073D01*
X27107892Y-5703660D01*
X27190110Y-5290320D01*
X27190110Y-3709680D01*
X27569890Y-3709680D01*
X27569890Y-5290320D01*
X27652108Y-5703660D01*
X27886247Y-6054073D01*
X28236660Y-6288212D01*
X28650000Y-6370430D01*
X29063340Y-6288212D01*
X29413753Y-6054073D01*
X29647892Y-5703660D01*
X29730110Y-5290320D01*
X29730110Y-3709680D01*
X30109890Y-3709680D01*
X30109890Y-5290320D01*
X30192108Y-5703660D01*
X30426247Y-6054073D01*
X30776660Y-6288212D01*
X31190000Y-6370430D01*
X31603340Y-6288212D01*
X31953753Y-6054073D01*
X32187892Y-5703660D01*
X32270110Y-5290320D01*
X32270110Y-3709680D01*
X32649890Y-3709680D01*
X32649890Y-5290320D01*
X32732108Y-5703660D01*
X32966247Y-6054073D01*
X33316660Y-6288212D01*
X33730000Y-6370430D01*
X34143340Y-6288212D01*
X34493753Y-6054073D01*
X34727892Y-5703660D01*
X34810110Y-5290320D01*
X34810110Y-3709680D01*
X35189890Y-3709680D01*
X35189890Y-5290320D01*
X35272108Y-5703660D01*
X35506247Y-6054073D01*
X35856660Y-6288212D01*
X36270000Y-6370430D01*
X36683340Y-6288212D01*
X37033753Y-6054073D01*
X37267892Y-5703660D01*
X37350110Y-5290320D01*
X37350110Y-3709680D01*
X37729890Y-3709680D01*
X37729890Y-5290320D01*
X37812108Y-5703660D01*
X38046247Y-6054073D01*
X38396660Y-6288212D01*
X38810000Y-6370430D01*
X39223340Y-6288212D01*
X39573753Y-6054073D01*
X39807892Y-5703660D01*
X39890110Y-5290320D01*
X39890110Y-3709680D01*
X40269890Y-3709680D01*
X40269890Y-5290320D01*
X40352108Y-5703660D01*
X40586247Y-6054073D01*
X40936660Y-6288212D01*
X41350000Y-6370430D01*
X41763340Y-6288212D01*
X42113753Y-6054073D01*
X42347892Y-5703660D01*
X42430110Y-5290320D01*
X42430110Y-3709680D01*
X42809890Y-3709680D01*
X42809890Y-5290320D01*
X42892108Y-5703660D01*
X43126247Y-6054073D01*
X43476660Y-6288212D01*
X43890000Y-6370430D01*
X44303340Y-6288212D01*
X44653753Y-6054073D01*
X44887892Y-5703660D01*
X44970110Y-5290320D01*
X44970110Y-4627000D01*
X45041890Y-4627000D01*
X45041890Y-5381380D01*
X45196154Y-5902919D01*
X45538260Y-6325724D01*
X46016125Y-6585427D01*
X46088326Y-6599783D01*
X46303000Y-6477162D01*
X46303000Y-4627000D01*
X46557000Y-4627000D01*
X46557000Y-6477162D01*
X46771674Y-6599783D01*
X46843875Y-6585427D01*
X47321740Y-6325724D01*
X47663846Y-5902919D01*
X47818110Y-5381380D01*
X47818110Y-4627000D01*
X46557000Y-4627000D01*
X46303000Y-4627000D01*
X45041890Y-4627000D01*
X44970110Y-4627000D01*
X44970110Y-3709680D01*
X44951998Y-3618620D01*
X45041890Y-3618620D01*
X45041890Y-4373000D01*
X46303000Y-4373000D01*
X46303000Y-2522838D01*
X46557000Y-2522838D01*
X46557000Y-4373000D01*
X47818110Y-4373000D01*
X47818110Y-3709680D01*
X52989890Y-3709680D01*
X52989890Y-5290320D01*
X53072108Y-5703660D01*
X53306247Y-6054073D01*
X53656660Y-6288212D01*
X54070000Y-6370430D01*
X54483340Y-6288212D01*
X54833753Y-6054073D01*
X55067892Y-5703660D01*
X55150110Y-5290320D01*
X55150110Y-3709680D01*
X55529890Y-3709680D01*
X55529890Y-5290320D01*
X55612108Y-5703660D01*
X55846247Y-6054073D01*
X56196660Y-6288212D01*
X56610000Y-6370430D01*
X57023340Y-6288212D01*
X57373753Y-6054073D01*
X57607892Y-5703660D01*
X57690110Y-5290320D01*
X57690110Y-3709680D01*
X58069890Y-3709680D01*
X58069890Y-5290320D01*
X58152108Y-5703660D01*
X58386247Y-6054073D01*
X58736660Y-6288212D01*
X59150000Y-6370430D01*
X59563340Y-6288212D01*
X59913753Y-6054073D01*
X60147892Y-5703660D01*
X60230110Y-5290320D01*
X60230110Y-3709680D01*
X60609890Y-3709680D01*
X60609890Y-5290320D01*
X60692108Y-5703660D01*
X60926247Y-6054073D01*
X61276660Y-6288212D01*
X61690000Y-6370430D01*
X62103340Y-6288212D01*
X62453753Y-6054073D01*
X62687892Y-5703660D01*
X62770110Y-5290320D01*
X62770110Y-3709680D01*
X63149890Y-3709680D01*
X63149890Y-5290320D01*
X63232108Y-5703660D01*
X63466247Y-6054073D01*
X63816660Y-6288212D01*
X64230000Y-6370430D01*
X64643340Y-6288212D01*
X64993753Y-6054073D01*
X65227892Y-5703660D01*
X65310110Y-5290320D01*
X65310110Y-3709680D01*
X65689890Y-3709680D01*
X65689890Y-5290320D01*
X65772108Y-5703660D01*
X66006247Y-6054073D01*
X66356660Y-6288212D01*
X66770000Y-6370430D01*
X67183340Y-6288212D01*
X67533753Y-6054073D01*
X67767892Y-5703660D01*
X67850110Y-5290320D01*
X67850110Y-3709680D01*
X68229890Y-3709680D01*
X68229890Y-5290320D01*
X68312108Y-5703660D01*
X68546247Y-6054073D01*
X68896660Y-6288212D01*
X69310000Y-6370430D01*
X69723340Y-6288212D01*
X70073753Y-6054073D01*
X70307892Y-5703660D01*
X70390110Y-5290320D01*
X70390110Y-3709680D01*
X70769890Y-3709680D01*
X70769890Y-5290320D01*
X70852108Y-5703660D01*
X71086247Y-6054073D01*
X71436660Y-6288212D01*
X71850000Y-6370430D01*
X72263340Y-6288212D01*
X72613753Y-6054073D01*
X72847892Y-5703660D01*
X72930110Y-5290320D01*
X72930110Y-3709680D01*
X73309890Y-3709680D01*
X73309890Y-5290320D01*
X73392108Y-5703660D01*
X73626247Y-6054073D01*
X73976660Y-6288212D01*
X74390000Y-6370430D01*
X74803340Y-6288212D01*
X75153753Y-6054073D01*
X75387892Y-5703660D01*
X75470110Y-5290320D01*
X75470110Y-4627000D01*
X75541890Y-4627000D01*
X75541890Y-5381380D01*
X75696154Y-5902919D01*
X76038260Y-6325724D01*
X76516125Y-6585427D01*
X76588326Y-6599783D01*
X76803000Y-6477162D01*
X76803000Y-4627000D01*
X77057000Y-4627000D01*
X77057000Y-6477162D01*
X77271674Y-6599783D01*
X77343875Y-6585427D01*
X77821740Y-6325724D01*
X78163846Y-5902919D01*
X78318110Y-5381380D01*
X78318110Y-4627000D01*
X77057000Y-4627000D01*
X76803000Y-4627000D01*
X75541890Y-4627000D01*
X75470110Y-4627000D01*
X75470110Y-4381622D01*
X93072666Y-4381622D01*
X93365416Y-5090132D01*
X93907017Y-5632678D01*
X94615014Y-5926665D01*
X95381622Y-5927334D01*
X96090132Y-5634584D01*
X96632678Y-5092983D01*
X96926665Y-4384986D01*
X96927334Y-3618378D01*
X96634584Y-2909868D01*
X96092983Y-2367322D01*
X95384986Y-2073335D01*
X94618378Y-2072666D01*
X93909868Y-2365416D01*
X93367322Y-2907017D01*
X93073335Y-3615014D01*
X93072666Y-4381622D01*
X75470110Y-4381622D01*
X75470110Y-3709680D01*
X75451998Y-3618620D01*
X75541890Y-3618620D01*
X75541890Y-4373000D01*
X76803000Y-4373000D01*
X76803000Y-2522838D01*
X77057000Y-2522838D01*
X77057000Y-4373000D01*
X78318110Y-4373000D01*
X78318110Y-3618620D01*
X78163846Y-3097081D01*
X77821740Y-2674276D01*
X77343875Y-2414573D01*
X77271674Y-2400217D01*
X77057000Y-2522838D01*
X76803000Y-2522838D01*
X76588326Y-2400217D01*
X76516125Y-2414573D01*
X76038260Y-2674276D01*
X75696154Y-3097081D01*
X75541890Y-3618620D01*
X75451998Y-3618620D01*
X75387892Y-3296340D01*
X75153753Y-2945927D01*
X74803340Y-2711788D01*
X74390000Y-2629570D01*
X73976660Y-2711788D01*
X73626247Y-2945927D01*
X73392108Y-3296340D01*
X73309890Y-3709680D01*
X72930110Y-3709680D01*
X72847892Y-3296340D01*
X72613753Y-2945927D01*
X72263340Y-2711788D01*
X71850000Y-2629570D01*
X71436660Y-2711788D01*
X71086247Y-2945927D01*
X70852108Y-3296340D01*
X70769890Y-3709680D01*
X70390110Y-3709680D01*
X70307892Y-3296340D01*
X70073753Y-2945927D01*
X69723340Y-2711788D01*
X69310000Y-2629570D01*
X68896660Y-2711788D01*
X68546247Y-2945927D01*
X68312108Y-3296340D01*
X68229890Y-3709680D01*
X67850110Y-3709680D01*
X67767892Y-3296340D01*
X67533753Y-2945927D01*
X67183340Y-2711788D01*
X66770000Y-2629570D01*
X66356660Y-2711788D01*
X66006247Y-2945927D01*
X65772108Y-3296340D01*
X65689890Y-3709680D01*
X65310110Y-3709680D01*
X65227892Y-3296340D01*
X64993753Y-2945927D01*
X64643340Y-2711788D01*
X64230000Y-2629570D01*
X63816660Y-2711788D01*
X63466247Y-2945927D01*
X63232108Y-3296340D01*
X63149890Y-3709680D01*
X62770110Y-3709680D01*
X62687892Y-3296340D01*
X62453753Y-2945927D01*
X62103340Y-2711788D01*
X61690000Y-2629570D01*
X61276660Y-2711788D01*
X60926247Y-2945927D01*
X60692108Y-3296340D01*
X60609890Y-3709680D01*
X60230110Y-3709680D01*
X60147892Y-3296340D01*
X59913753Y-2945927D01*
X59563340Y-2711788D01*
X59150000Y-2629570D01*
X58736660Y-2711788D01*
X58386247Y-2945927D01*
X58152108Y-3296340D01*
X58069890Y-3709680D01*
X57690110Y-3709680D01*
X57607892Y-3296340D01*
X57373753Y-2945927D01*
X57023340Y-2711788D01*
X56610000Y-2629570D01*
X56196660Y-2711788D01*
X55846247Y-2945927D01*
X55612108Y-3296340D01*
X55529890Y-3709680D01*
X55150110Y-3709680D01*
X55067892Y-3296340D01*
X54833753Y-2945927D01*
X54483340Y-2711788D01*
X54070000Y-2629570D01*
X53656660Y-2711788D01*
X53306247Y-2945927D01*
X53072108Y-3296340D01*
X52989890Y-3709680D01*
X47818110Y-3709680D01*
X47818110Y-3618620D01*
X47663846Y-3097081D01*
X47321740Y-2674276D01*
X46843875Y-2414573D01*
X46771674Y-2400217D01*
X46557000Y-2522838D01*
X46303000Y-2522838D01*
X46088326Y-2400217D01*
X46016125Y-2414573D01*
X45538260Y-2674276D01*
X45196154Y-3097081D01*
X45041890Y-3618620D01*
X44951998Y-3618620D01*
X44887892Y-3296340D01*
X44653753Y-2945927D01*
X44303340Y-2711788D01*
X43890000Y-2629570D01*
X43476660Y-2711788D01*
X43126247Y-2945927D01*
X42892108Y-3296340D01*
X42809890Y-3709680D01*
X42430110Y-3709680D01*
X42347892Y-3296340D01*
X42113753Y-2945927D01*
X41763340Y-2711788D01*
X41350000Y-2629570D01*
X40936660Y-2711788D01*
X40586247Y-2945927D01*
X40352108Y-3296340D01*
X40269890Y-3709680D01*
X39890110Y-3709680D01*
X39807892Y-3296340D01*
X39573753Y-2945927D01*
X39223340Y-2711788D01*
X38810000Y-2629570D01*
X38396660Y-2711788D01*
X38046247Y-2945927D01*
X37812108Y-3296340D01*
X37729890Y-3709680D01*
X37350110Y-3709680D01*
X37267892Y-3296340D01*
X37033753Y-2945927D01*
X36683340Y-2711788D01*
X36270000Y-2629570D01*
X35856660Y-2711788D01*
X35506247Y-2945927D01*
X35272108Y-3296340D01*
X35189890Y-3709680D01*
X34810110Y-3709680D01*
X34727892Y-3296340D01*
X34493753Y-2945927D01*
X34143340Y-2711788D01*
X33730000Y-2629570D01*
X33316660Y-2711788D01*
X32966247Y-2945927D01*
X32732108Y-3296340D01*
X32649890Y-3709680D01*
X32270110Y-3709680D01*
X32187892Y-3296340D01*
X31953753Y-2945927D01*
X31603340Y-2711788D01*
X31190000Y-2629570D01*
X30776660Y-2711788D01*
X30426247Y-2945927D01*
X30192108Y-3296340D01*
X30109890Y-3709680D01*
X29730110Y-3709680D01*
X29647892Y-3296340D01*
X29413753Y-2945927D01*
X29063340Y-2711788D01*
X28650000Y-2629570D01*
X28236660Y-2711788D01*
X27886247Y-2945927D01*
X27652108Y-3296340D01*
X27569890Y-3709680D01*
X27190110Y-3709680D01*
X27107892Y-3296340D01*
X26873753Y-2945927D01*
X26523340Y-2711788D01*
X26110000Y-2629570D01*
X25696660Y-2711788D01*
X25346247Y-2945927D01*
X25112108Y-3296340D01*
X25029890Y-3709680D01*
X24650110Y-3709680D01*
X24567892Y-3296340D01*
X24333753Y-2945927D01*
X23983340Y-2711788D01*
X23570000Y-2629570D01*
X23156660Y-2711788D01*
X22806247Y-2945927D01*
X22572108Y-3296340D01*
X22489890Y-3709680D01*
X6927254Y-3709680D01*
X6927334Y-3618378D01*
X6634584Y-2909868D01*
X6092983Y-2367322D01*
X5384986Y-2073335D01*
X4618378Y-2072666D01*
X3909868Y-2365416D01*
X3367322Y-2907017D01*
X3073335Y-3615014D01*
X3072666Y-4381622D01*
X402000Y-4381622D01*
X402000Y-402000D01*
X99598000Y-402000D01*
X99598000Y-31598000D01*
M02*
