M48
;DRILL file {KiCad 4.0.7-e0-6372~58~ubuntu16.10.1} date Thu Nov  8 17:11:39 2018
;FORMAT={-:-/ absolute / metric / decimal}
FMAT,2
METRIC,TZ
T1C0.300
T2C0.508
T3C0.650
T4C0.889
T5C1.000
T6C1.200
T7C1.600
T8C1.600
T9C2.500
T10C3.300
%
G90
G05
M71
T1
X8.113Y-45.584
X8.113Y-43.384
X9.313Y-43.384
X9.313Y-45.584
X22.275Y-31.575
X25.954Y-28.129
X25.954Y-31.379
X26.9Y-40.1
X26.954Y-27.129
X26.954Y-30.629
X27.454Y-32.629
X28.954Y-27.129
X30.454Y-32.629
X30.475Y-39.4
X31.454Y-33.879
X31.454Y-27.129
X31.6Y-38.3
X33.204Y-27.129
X33.454Y-32.879
X33.454Y-34.129
X34.3Y-38.2
X34.454Y-31.879
X34.704Y-27.129
X35.3Y-24.
X35.35Y-17.95
X35.454Y-31.879
X35.7Y-28.3
X39.7Y-27.4
X40.35Y-28.1
X40.75Y-39.
X40.9Y-39.8
X41.25Y-30.25
X41.5Y-25.
X42.Y-40.5
X42.1Y-39.5
X42.5Y-30.5
X44.8Y-18.5
X45.2Y-11.8
X45.25Y-8.75
X45.25Y-26.75
X45.4Y-21.35
X45.5Y-19.75
X45.75Y-17.75
X49.2Y-10.6
X49.2Y-20.2
T2
X1.Y-27.25
X1.25Y-39.75
X1.25Y-42.5
X2.Y-22.
X2.Y-23.5
X2.Y-25.
X2.25Y-29.5
X7.75Y-27.25
X7.75Y-30.25
X8.263Y-41.784
X8.5Y-23.75
X8.713Y-44.584
X9.25Y-27.25
X9.25Y-30.25
X9.263Y-47.784
X9.263Y-35.034
X9.263Y-38.034
X10.763Y-35.034
X10.763Y-38.034
X10.763Y-41.034
X11.013Y-47.284
X12.263Y-35.034
X12.263Y-38.034
X12.95Y-28.55
X13.263Y-47.534
X13.5Y-31.75
X13.5Y-32.75
X15.Y-15.5
X15.5Y-41.75
X15.763Y-47.534
X16.5Y-13.5
X16.5Y-15.
X17.091Y-23.177
X17.25Y-48.75
X18.6Y-33.
X19.4Y-39.
X19.4Y-48.8
X20.391Y-24.377
X21.2Y-48.8
X21.4Y-39.
X22.8Y-48.8
X23.25Y-15.
X23.691Y-23.177
X24.25Y-33.875
X24.5Y-14.
X25.Y-46.
X25.Y-47.5
X25.Y-49.
X25.075Y-37.7
X25.854Y-33.079
X26.Y-15.
X26.5Y-46.
X26.5Y-47.5
X26.5Y-49.
X27.4Y-48.3
X28.85Y-18.2
X28.85Y-20.2
X29.15Y-25.
X31.4Y-48.3
X31.5Y-18.2
X31.7Y-25.6
X33.4Y-47.8
X33.5Y-42.
X33.7Y-36.9
X33.82Y-16.8
X33.83Y-14.93
X34.43Y-33.34
X36.2Y-24.4
X36.25Y-26.4
X37.58Y-33.12
X37.8Y-17.8
X39.7Y-24.4
X39.9Y-30.3
X41.6Y-23.4
X42.2Y-20.75
X42.4Y-47.8
X43.1Y-42.5
X43.2Y-44.5
X44.75Y-7.25
X45.3Y-13.3
X46.5Y-28.5
X47.5Y-5.75
X48.7Y-22.6
X48.7Y-25.95
T3
X19.92Y-42.33
X19.92Y-43.6
X21.19Y-42.33
X21.19Y-43.6
X22.46Y-42.33
X22.46Y-43.6
X23.73Y-42.33
X23.73Y-43.6
X25.Y-42.33
X25.Y-43.6
T4
X7.565Y-10.32
X8.585Y-8.54
X9.595Y-10.32
X10.615Y-8.54
X11.625Y-10.32
X12.645Y-8.54
X13.655Y-10.32
X14.675Y-8.54
X23.315Y-10.32
X24.335Y-8.54
X25.345Y-10.32
X26.365Y-8.54
X27.375Y-10.32
X28.395Y-8.54
X29.405Y-10.32
X30.425Y-8.54
T5
X8.5Y-28.75
T6
X38.7Y-10.8
X38.7Y-13.3
X41.2Y-10.8
X41.2Y-13.3
T7
X3.Y-9.43
X35.Y-9.43
T8
X38.7Y-3.62
X41.2Y-3.62
T9
X4.Y-19.
X46.Y-41.
T10
X4.775Y-6.
X33.225Y-6.
T0
M30
