G04 #@! TF.FileFunction,Legend,Bot*
%FSLAX46Y46*%
G04 Gerber Fmt 4.6, Leading zero omitted, Abs format (unit mm)*
G04 Created by KiCad (PCBNEW 4.0.7-e0-6372~58~ubuntu16.10.1) date Thu Nov  8 17:11:35 2018*
%MOMM*%
%LPD*%
G01*
G04 APERTURE LIST*
%ADD10C,0.150000*%
%ADD11C,0.120000*%
%ADD12C,0.125000*%
%ADD13C,1.300000*%
%ADD14C,4.000000*%
%ADD15C,2.000000*%
%ADD16R,3.500000X1.600000*%
%ADD17R,1.250000X1.000000*%
%ADD18R,1.050000X1.050000*%
%ADD19C,1.050000*%
%ADD20R,0.250000X1.300000*%
%ADD21R,1.300000X0.250000*%
%ADD22R,0.800000X0.900000*%
%ADD23R,1.000000X1.300000*%
%ADD24R,0.900000X0.900000*%
%ADD25R,0.600000X1.550000*%
%ADD26R,1.300000X1.000000*%
%ADD27R,0.890000X0.420000*%
%ADD28R,0.825000X0.712500*%
%ADD29R,0.800000X1.400000*%
%ADD30R,1.600000X1.300000*%
%ADD31R,1.000000X1.250000*%
%ADD32R,1.000000X1.600000*%
%ADD33R,1.200000X1.200000*%
%ADD34R,0.650000X1.060000*%
%ADD35C,2.500000*%
%ADD36R,1.900000X1.900000*%
%ADD37C,1.900000*%
%ADD38C,1.600000*%
%ADD39R,0.900000X0.800000*%
%ADD40R,1.600000X1.000000*%
%ADD41R,1.500000X1.800000*%
%ADD42R,1.450000X0.450000*%
%ADD43C,0.600000*%
%ADD44C,0.889000*%
G04 APERTURE END LIST*
D10*
X2800000Y-360000D02*
X35200000Y-360000D01*
X2800000Y-16110000D02*
X35200000Y-16110000D01*
X35200000Y-360000D02*
X35200000Y-16110000D01*
X2800000Y-360000D02*
X2800000Y-16110000D01*
D11*
X4512689Y-33944010D02*
X4512689Y-35364010D01*
X11112689Y-33184010D02*
X11112689Y-35364010D01*
X11112689Y-39784010D02*
X11112689Y-37604010D01*
X4512689Y-39024010D02*
X4512689Y-37604010D01*
X11112689Y-33184010D02*
X5272689Y-33184010D01*
X5272689Y-33184010D02*
X4512689Y-33944010D01*
X4512689Y-39024010D02*
X5272689Y-39784010D01*
X5272689Y-39784010D02*
X11112689Y-39784010D01*
D10*
X17350000Y-27000000D02*
X17350000Y-28000000D01*
X15650000Y-28000000D02*
X15650000Y-27000000D01*
X12312689Y-45434010D02*
X12312689Y-44434010D01*
X14012689Y-44434010D02*
X14012689Y-45434010D01*
X24517400Y-44450900D02*
X23628400Y-44450900D01*
X23628400Y-44450900D02*
X23587760Y-44445820D01*
X25802640Y-42355400D02*
X25800100Y-43076760D01*
X25800000Y-41500000D02*
X25800000Y-42300000D01*
X19150000Y-41500000D02*
X25800000Y-41500000D01*
X19150000Y-41500000D02*
X19150000Y-44450000D01*
X19150000Y-44450000D02*
X23700000Y-44450000D01*
X25800000Y-43100000D02*
X25800000Y-44450000D01*
X25800000Y-44450000D02*
X24500000Y-44450000D01*
X29278748Y-36153821D02*
X29728748Y-36153821D01*
X29278748Y-43403821D02*
X29803748Y-43403821D01*
X36528748Y-43403821D02*
X36003748Y-43403821D01*
X36528748Y-36153821D02*
X36003748Y-36153821D01*
X29278748Y-36153821D02*
X29278748Y-36678821D01*
X36528748Y-36153821D02*
X36528748Y-36678821D01*
X36528748Y-43403821D02*
X36528748Y-42878821D01*
X29278748Y-43403821D02*
X29278748Y-42878821D01*
X29728748Y-36153821D02*
X29728748Y-34778821D01*
D11*
X21900000Y-47000000D02*
X21900000Y-46000000D01*
X23600000Y-46000000D02*
X23600000Y-47000000D01*
X18821421Y-25707208D02*
X19751421Y-25707208D01*
X21981421Y-25707208D02*
X21051421Y-25707208D01*
X21981421Y-25707208D02*
X21981421Y-27867208D01*
X18821421Y-25707208D02*
X18821421Y-27167208D01*
D10*
X9900000Y-24625000D02*
X11100000Y-24625000D01*
X11100000Y-22875000D02*
X9900000Y-22875000D01*
X1725000Y-26800000D02*
X1725000Y-27800000D01*
X3075000Y-27800000D02*
X3075000Y-26800000D01*
X22966422Y-34852207D02*
X22916422Y-34852207D01*
X22966422Y-30702207D02*
X22821422Y-30702207D01*
X17816422Y-30702207D02*
X17961422Y-30702207D01*
X17816422Y-34852207D02*
X17961422Y-34852207D01*
X22966422Y-34852207D02*
X22966422Y-30702207D01*
X17816422Y-34852207D02*
X17816422Y-30702207D01*
X22916422Y-34852207D02*
X22916422Y-36252207D01*
X17475000Y-31900000D02*
X17475000Y-30700000D01*
X15725000Y-30700000D02*
X15725000Y-31900000D01*
X13825000Y-30700000D02*
X13825000Y-31900000D01*
X15575000Y-31900000D02*
X15575000Y-30700000D01*
X13625000Y-26900000D02*
X13625000Y-28100000D01*
X15375000Y-28100000D02*
X15375000Y-26900000D01*
X10312689Y-46809010D02*
X10312689Y-46744010D01*
X10312689Y-42559010D02*
X10312689Y-42624010D01*
X7062689Y-42559010D02*
X7062689Y-42624010D01*
X7062689Y-46809010D02*
X10312689Y-46809010D01*
X7062689Y-42559010D02*
X10312689Y-42559010D01*
X7062689Y-46809010D02*
X6137689Y-46809010D01*
X34003748Y-31878821D02*
G75*
G03X34003748Y-31878821I-200000J0D01*
G01*
X33803748Y-27878821D02*
X29003748Y-27878821D01*
X29003748Y-27878821D02*
X29003748Y-31878821D01*
X29003748Y-31878821D02*
X33803748Y-31878821D01*
X33803748Y-31878821D02*
X33803748Y-27878821D01*
D11*
X29900000Y-49150000D02*
X28900000Y-49150000D01*
X28900000Y-47450000D02*
X29900000Y-47450000D01*
X18062689Y-45984010D02*
X18062689Y-46984010D01*
X16362689Y-46984010D02*
X16362689Y-45984010D01*
X14562689Y-44184010D02*
X14562689Y-43184010D01*
X16262689Y-43184010D02*
X16262689Y-44184010D01*
X9012689Y-42054010D02*
X7012689Y-42054010D01*
X7012689Y-40014010D02*
X9012689Y-40014010D01*
X1750000Y-39980000D02*
X3750000Y-39980000D01*
X3750000Y-42020000D02*
X1750000Y-42020000D01*
X23350000Y-36300000D02*
X23350000Y-35300000D01*
X25050000Y-35300000D02*
X25050000Y-36300000D01*
X42950000Y-43000000D02*
X42950000Y-44000000D01*
X41250000Y-44000000D02*
X41250000Y-43000000D01*
X20350000Y-47000000D02*
X20350000Y-46000000D01*
X22050000Y-46000000D02*
X22050000Y-47000000D01*
X20900000Y-38700000D02*
X19900000Y-38700000D01*
X19900000Y-37000000D02*
X20900000Y-37000000D01*
X18500000Y-47000000D02*
X18500000Y-46000000D01*
X20200000Y-46000000D02*
X20200000Y-47000000D01*
X31200000Y-18700000D02*
X31200000Y-19700000D01*
X29500000Y-19700000D02*
X29500000Y-18700000D01*
X41700000Y-47100000D02*
X41700000Y-48500000D01*
X41700000Y-48500000D02*
X38900000Y-48500000D01*
X41700000Y-47100000D02*
X38900000Y-47100000D01*
D10*
X34900000Y-48675000D02*
X36100000Y-48675000D01*
X36100000Y-46925000D02*
X34900000Y-46925000D01*
D11*
X38190000Y-20100000D02*
X38190000Y-18300000D01*
X41410000Y-18300000D02*
X41410000Y-20750000D01*
D10*
X40000000Y-23175000D02*
X41000000Y-23175000D01*
X41000000Y-21825000D02*
X40000000Y-21825000D01*
X43750000Y-18625000D02*
X42750000Y-18625000D01*
X42750000Y-19975000D02*
X43750000Y-19975000D01*
X43325000Y-17200000D02*
X43325000Y-16200000D01*
X41975000Y-16200000D02*
X41975000Y-17200000D01*
X39550000Y-16425000D02*
X40550000Y-16425000D01*
X40550000Y-15075000D02*
X39550000Y-15075000D01*
D11*
X43070000Y-270000D02*
X43070000Y-9030000D01*
X43070000Y-9030000D02*
X36830000Y-9030000D01*
X36830000Y-9030000D02*
X36830000Y-270000D01*
X36830000Y-270000D02*
X43070000Y-270000D01*
X41350000Y-9030000D02*
X41350000Y-9500000D01*
X41350000Y-9500000D02*
X41050000Y-9500000D01*
X41050000Y-9500000D02*
X41050000Y-9030000D01*
X41050000Y-9030000D02*
X41350000Y-9030000D01*
X38850000Y-9030000D02*
X38850000Y-9500000D01*
X38850000Y-9500000D02*
X38550000Y-9500000D01*
X38550000Y-9500000D02*
X38550000Y-9030000D01*
X38550000Y-9030000D02*
X38850000Y-9030000D01*
X42600000Y-13300000D02*
X43200000Y-13600000D01*
X43200000Y-13600000D02*
X43200000Y-13000000D01*
X43200000Y-13000000D02*
X42600000Y-13300000D01*
X38960000Y-23420000D02*
X38960000Y-24350000D01*
X38960000Y-26580000D02*
X38960000Y-25650000D01*
X38960000Y-26580000D02*
X36800000Y-26580000D01*
X38960000Y-23420000D02*
X37500000Y-23420000D01*
D10*
X34000000Y-19425000D02*
X33000000Y-19425000D01*
X33000000Y-20775000D02*
X34000000Y-20775000D01*
X32980000Y-19295000D02*
X33980000Y-19295000D01*
X33980000Y-17945000D02*
X32980000Y-17945000D01*
X33725000Y-22200000D02*
X33725000Y-23200000D01*
X35075000Y-23200000D02*
X35075000Y-22200000D01*
X38075000Y-28750000D02*
X38075000Y-29750000D01*
X39425000Y-29750000D02*
X39425000Y-28750000D01*
X35775000Y-30400000D02*
X35775000Y-29400000D01*
X34425000Y-29400000D02*
X34425000Y-30400000D01*
X27028747Y-29378822D02*
X27028747Y-30378822D01*
X28378747Y-30378822D02*
X28378747Y-29378822D01*
X29900000Y-45925000D02*
X28900000Y-45925000D01*
X28900000Y-47275000D02*
X29900000Y-47275000D01*
X26675000Y-36700000D02*
X26675000Y-35700000D01*
X25325000Y-35700000D02*
X25325000Y-36700000D01*
X36478748Y-32453823D02*
X35478748Y-32453823D01*
X35478748Y-33803823D02*
X36478748Y-33803823D01*
X39725000Y-42900000D02*
X39725000Y-43900000D01*
X41075000Y-43900000D02*
X41075000Y-42900000D01*
X27178747Y-34428820D02*
X28178747Y-34428820D01*
X28178747Y-33078820D02*
X27178747Y-33078820D01*
X23366421Y-23402207D02*
X22366421Y-23402207D01*
X22366421Y-24752207D02*
X23366421Y-24752207D01*
X17516421Y-24752207D02*
X18516421Y-24752207D01*
X18516421Y-23402207D02*
X17516421Y-23402207D01*
X8012689Y-47109009D02*
X7012689Y-47109009D01*
X7012689Y-48459009D02*
X8012689Y-48459009D01*
X43825000Y-32250000D02*
X43825000Y-33250000D01*
X45175000Y-33250000D02*
X45175000Y-32250000D01*
X45325000Y-32250000D02*
X45325000Y-33250000D01*
X46675000Y-33250000D02*
X46675000Y-32250000D01*
X40825000Y-32250000D02*
X40825000Y-33250000D01*
X42175000Y-33250000D02*
X42175000Y-32250000D01*
X42325000Y-32250000D02*
X42325000Y-33250000D01*
X43675000Y-33250000D02*
X43675000Y-32250000D01*
X46825000Y-32250000D02*
X46825000Y-33250000D01*
X48175000Y-33250000D02*
X48175000Y-32250000D01*
D11*
X38020000Y-20000000D02*
X38020000Y-22000000D01*
X35980000Y-22000000D02*
X35980000Y-20000000D01*
D10*
X1375000Y-31400000D02*
X1375000Y-32600000D01*
X3125000Y-32600000D02*
X3125000Y-31400000D01*
X10825000Y-26175000D02*
X10825000Y-26300000D01*
X6175000Y-26175000D02*
X6175000Y-26400000D01*
X6175000Y-31425000D02*
X6175000Y-31200000D01*
X10825000Y-31425000D02*
X10825000Y-31200000D01*
X10825000Y-26175000D02*
X6175000Y-26175000D01*
X10825000Y-31425000D02*
X6175000Y-31425000D01*
X10825000Y-26300000D02*
X12175000Y-26300000D01*
X2033333Y-1452381D02*
X2033333Y-2166667D01*
X2080953Y-2309524D01*
X2176191Y-2404762D01*
X2319048Y-2452381D01*
X2414286Y-2452381D01*
X1033333Y-2452381D02*
X1604762Y-2452381D01*
X1319048Y-2452381D02*
X1319048Y-1452381D01*
X1414286Y-1595238D01*
X1509524Y-1690476D01*
X1604762Y-1738095D01*
X14107143Y-36107143D02*
X14154762Y-36059524D01*
X14202381Y-35916667D01*
X14202381Y-35821429D01*
X14154762Y-35678571D01*
X14059524Y-35583333D01*
X13964286Y-35535714D01*
X13773810Y-35488095D01*
X13630952Y-35488095D01*
X13440476Y-35535714D01*
X13345238Y-35583333D01*
X13250000Y-35678571D01*
X13202381Y-35821429D01*
X13202381Y-35916667D01*
X13250000Y-36059524D01*
X13297619Y-36107143D01*
X14202381Y-37059524D02*
X14202381Y-36488095D01*
X14202381Y-36773809D02*
X13202381Y-36773809D01*
X13345238Y-36678571D01*
X13440476Y-36583333D01*
X13488095Y-36488095D01*
X13202381Y-37916667D02*
X13202381Y-37726190D01*
X13250000Y-37630952D01*
X13297619Y-37583333D01*
X13440476Y-37488095D01*
X13630952Y-37440476D01*
X14011905Y-37440476D01*
X14107143Y-37488095D01*
X14154762Y-37535714D01*
X14202381Y-37630952D01*
X14202381Y-37821429D01*
X14154762Y-37916667D01*
X14107143Y-37964286D01*
X14011905Y-38011905D01*
X13773810Y-38011905D01*
X13678571Y-37964286D01*
X13630952Y-37916667D01*
X13583333Y-37821429D01*
X13583333Y-37630952D01*
X13630952Y-37535714D01*
X13678571Y-37488095D01*
X13773810Y-37440476D01*
X3913641Y-33645439D02*
X3151736Y-33645439D01*
X3532688Y-34026391D02*
X3532688Y-33264486D01*
X18357143Y-26083334D02*
X18404762Y-26035715D01*
X18452381Y-25892858D01*
X18452381Y-25797620D01*
X18404762Y-25654762D01*
X18309524Y-25559524D01*
X18214286Y-25511905D01*
X18023810Y-25464286D01*
X17880952Y-25464286D01*
X17690476Y-25511905D01*
X17595238Y-25559524D01*
X17500000Y-25654762D01*
X17452381Y-25797620D01*
X17452381Y-25892858D01*
X17500000Y-26035715D01*
X17547619Y-26083334D01*
X18452381Y-27035715D02*
X18452381Y-26464286D01*
X18452381Y-26750000D02*
X17452381Y-26750000D01*
X17595238Y-26654762D01*
X17690476Y-26559524D01*
X17738095Y-26464286D01*
X13607143Y-42083334D02*
X13654762Y-42035715D01*
X13702381Y-41892858D01*
X13702381Y-41797620D01*
X13654762Y-41654762D01*
X13559524Y-41559524D01*
X13464286Y-41511905D01*
X13273810Y-41464286D01*
X13130952Y-41464286D01*
X12940476Y-41511905D01*
X12845238Y-41559524D01*
X12750000Y-41654762D01*
X12702381Y-41797620D01*
X12702381Y-41892858D01*
X12750000Y-42035715D01*
X12797619Y-42083334D01*
X12702381Y-42416667D02*
X12702381Y-43083334D01*
X13702381Y-42654762D01*
X27152381Y-42311905D02*
X26152381Y-42311905D01*
X26152381Y-42692858D01*
X26200000Y-42788096D01*
X26247619Y-42835715D01*
X26342857Y-42883334D01*
X26485714Y-42883334D01*
X26580952Y-42835715D01*
X26628571Y-42788096D01*
X26676190Y-42692858D01*
X26676190Y-42311905D01*
X27152381Y-43835715D02*
X27152381Y-43264286D01*
X27152381Y-43550000D02*
X26152381Y-43550000D01*
X26295238Y-43454762D01*
X26390476Y-43359524D01*
X26438095Y-43264286D01*
X38952381Y-38761905D02*
X39761905Y-38761905D01*
X39857143Y-38809524D01*
X39904762Y-38857143D01*
X39952381Y-38952381D01*
X39952381Y-39142858D01*
X39904762Y-39238096D01*
X39857143Y-39285715D01*
X39761905Y-39333334D01*
X38952381Y-39333334D01*
X39952381Y-40333334D02*
X39952381Y-39761905D01*
X39952381Y-40047619D02*
X38952381Y-40047619D01*
X39095238Y-39952381D01*
X39190476Y-39857143D01*
X39238095Y-39761905D01*
X39047619Y-40714286D02*
X39000000Y-40761905D01*
X38952381Y-40857143D01*
X38952381Y-41095239D01*
X39000000Y-41190477D01*
X39047619Y-41238096D01*
X39142857Y-41285715D01*
X39238095Y-41285715D01*
X39380952Y-41238096D01*
X39952381Y-40666667D01*
X39952381Y-41285715D01*
D12*
X23928571Y-48678572D02*
X23952381Y-48654762D01*
X23976190Y-48583334D01*
X23976190Y-48535715D01*
X23952381Y-48464286D01*
X23904762Y-48416667D01*
X23857143Y-48392858D01*
X23761905Y-48369048D01*
X23690476Y-48369048D01*
X23595238Y-48392858D01*
X23547619Y-48416667D01*
X23500000Y-48464286D01*
X23476190Y-48535715D01*
X23476190Y-48583334D01*
X23500000Y-48654762D01*
X23523810Y-48678572D01*
X23642857Y-49107143D02*
X23976190Y-49107143D01*
X23452381Y-48988096D02*
X23809524Y-48869048D01*
X23809524Y-49178572D01*
X23476190Y-49464286D02*
X23476190Y-49511905D01*
X23500000Y-49559524D01*
X23523810Y-49583333D01*
X23571429Y-49607143D01*
X23666667Y-49630952D01*
X23785714Y-49630952D01*
X23880952Y-49607143D01*
X23928571Y-49583333D01*
X23952381Y-49559524D01*
X23976190Y-49511905D01*
X23976190Y-49464286D01*
X23952381Y-49416667D01*
X23928571Y-49392857D01*
X23880952Y-49369048D01*
X23785714Y-49345238D01*
X23666667Y-49345238D01*
X23571429Y-49369048D01*
X23523810Y-49392857D01*
X23500000Y-49416667D01*
X23476190Y-49464286D01*
D10*
X23353802Y-25252922D02*
X22353802Y-25252922D01*
X22353802Y-25491017D01*
X22401421Y-25633875D01*
X22496659Y-25729113D01*
X22591897Y-25776732D01*
X22782373Y-25824351D01*
X22925231Y-25824351D01*
X23115707Y-25776732D01*
X23210945Y-25729113D01*
X23306183Y-25633875D01*
X23353802Y-25491017D01*
X23353802Y-25252922D01*
X23353802Y-26776732D02*
X23353802Y-26205303D01*
X23353802Y-26491017D02*
X22353802Y-26491017D01*
X22496659Y-26395779D01*
X22591897Y-26300541D01*
X22639516Y-26205303D01*
X22353802Y-27395779D02*
X22353802Y-27491018D01*
X22401421Y-27586256D01*
X22449040Y-27633875D01*
X22544278Y-27681494D01*
X22734754Y-27729113D01*
X22972850Y-27729113D01*
X23163326Y-27681494D01*
X23258564Y-27633875D01*
X23306183Y-27586256D01*
X23353802Y-27491018D01*
X23353802Y-27395779D01*
X23306183Y-27300541D01*
X23258564Y-27252922D01*
X23163326Y-27205303D01*
X22972850Y-27157684D01*
X22734754Y-27157684D01*
X22544278Y-27205303D01*
X22449040Y-27252922D01*
X22401421Y-27300541D01*
X22353802Y-27395779D01*
X11142857Y-22452381D02*
X11476191Y-21976190D01*
X11714286Y-22452381D02*
X11714286Y-21452381D01*
X11333333Y-21452381D01*
X11238095Y-21500000D01*
X11190476Y-21547619D01*
X11142857Y-21642857D01*
X11142857Y-21785714D01*
X11190476Y-21880952D01*
X11238095Y-21928571D01*
X11333333Y-21976190D01*
X11714286Y-21976190D01*
X10761905Y-21547619D02*
X10714286Y-21500000D01*
X10619048Y-21452381D01*
X10380952Y-21452381D01*
X10285714Y-21500000D01*
X10238095Y-21547619D01*
X10190476Y-21642857D01*
X10190476Y-21738095D01*
X10238095Y-21880952D01*
X10809524Y-22452381D01*
X10190476Y-22452381D01*
X9333333Y-21785714D02*
X9333333Y-22452381D01*
X9571429Y-21404762D02*
X9809524Y-22119048D01*
X9190476Y-22119048D01*
X1452381Y-24357143D02*
X976190Y-24023809D01*
X1452381Y-23785714D02*
X452381Y-23785714D01*
X452381Y-24166667D01*
X500000Y-24261905D01*
X547619Y-24309524D01*
X642857Y-24357143D01*
X785714Y-24357143D01*
X880952Y-24309524D01*
X928571Y-24261905D01*
X976190Y-24166667D01*
X976190Y-23785714D01*
X547619Y-24738095D02*
X500000Y-24785714D01*
X452381Y-24880952D01*
X452381Y-25119048D01*
X500000Y-25214286D01*
X547619Y-25261905D01*
X642857Y-25309524D01*
X738095Y-25309524D01*
X880952Y-25261905D01*
X1452381Y-24690476D01*
X1452381Y-25309524D01*
X880952Y-25880952D02*
X833333Y-25785714D01*
X785714Y-25738095D01*
X690476Y-25690476D01*
X642857Y-25690476D01*
X547619Y-25738095D01*
X500000Y-25785714D01*
X452381Y-25880952D01*
X452381Y-26071429D01*
X500000Y-26166667D01*
X547619Y-26214286D01*
X642857Y-26261905D01*
X690476Y-26261905D01*
X785714Y-26214286D01*
X833333Y-26166667D01*
X880952Y-26071429D01*
X880952Y-25880952D01*
X928571Y-25785714D01*
X976190Y-25738095D01*
X1071429Y-25690476D01*
X1261905Y-25690476D01*
X1357143Y-25738095D01*
X1404762Y-25785714D01*
X1452381Y-25880952D01*
X1452381Y-26071429D01*
X1404762Y-26166667D01*
X1357143Y-26214286D01*
X1261905Y-26261905D01*
X1071429Y-26261905D01*
X976190Y-26214286D01*
X928571Y-26166667D01*
X880952Y-26071429D01*
X23452381Y-30511905D02*
X24261905Y-30511905D01*
X24357143Y-30559524D01*
X24404762Y-30607143D01*
X24452381Y-30702381D01*
X24452381Y-30892858D01*
X24404762Y-30988096D01*
X24357143Y-31035715D01*
X24261905Y-31083334D01*
X23452381Y-31083334D01*
X24452381Y-32083334D02*
X24452381Y-31511905D01*
X24452381Y-31797619D02*
X23452381Y-31797619D01*
X23595238Y-31702381D01*
X23690476Y-31607143D01*
X23738095Y-31511905D01*
X23785714Y-32940477D02*
X24452381Y-32940477D01*
X23404762Y-32702381D02*
X24119048Y-32464286D01*
X24119048Y-33083334D01*
X16952381Y-34083334D02*
X16476190Y-33750000D01*
X16952381Y-33511905D02*
X15952381Y-33511905D01*
X15952381Y-33892858D01*
X16000000Y-33988096D01*
X16047619Y-34035715D01*
X16142857Y-34083334D01*
X16285714Y-34083334D01*
X16380952Y-34035715D01*
X16428571Y-33988096D01*
X16476190Y-33892858D01*
X16476190Y-33511905D01*
X16047619Y-34464286D02*
X16000000Y-34511905D01*
X15952381Y-34607143D01*
X15952381Y-34845239D01*
X16000000Y-34940477D01*
X16047619Y-34988096D01*
X16142857Y-35035715D01*
X16238095Y-35035715D01*
X16380952Y-34988096D01*
X16952381Y-34416667D01*
X16952381Y-35035715D01*
X15202381Y-34083334D02*
X14726190Y-33750000D01*
X15202381Y-33511905D02*
X14202381Y-33511905D01*
X14202381Y-33892858D01*
X14250000Y-33988096D01*
X14297619Y-34035715D01*
X14392857Y-34083334D01*
X14535714Y-34083334D01*
X14630952Y-34035715D01*
X14678571Y-33988096D01*
X14726190Y-33892858D01*
X14726190Y-33511905D01*
X14535714Y-34940477D02*
X15202381Y-34940477D01*
X14154762Y-34702381D02*
X14869048Y-34464286D01*
X14869048Y-35083334D01*
X14952381Y-24083334D02*
X14476190Y-23750000D01*
X14952381Y-23511905D02*
X13952381Y-23511905D01*
X13952381Y-23892858D01*
X14000000Y-23988096D01*
X14047619Y-24035715D01*
X14142857Y-24083334D01*
X14285714Y-24083334D01*
X14380952Y-24035715D01*
X14428571Y-23988096D01*
X14476190Y-23892858D01*
X14476190Y-23511905D01*
X13952381Y-24988096D02*
X13952381Y-24511905D01*
X14428571Y-24464286D01*
X14380952Y-24511905D01*
X14333333Y-24607143D01*
X14333333Y-24845239D01*
X14380952Y-24940477D01*
X14428571Y-24988096D01*
X14523810Y-25035715D01*
X14761905Y-25035715D01*
X14857143Y-24988096D01*
X14904762Y-24940477D01*
X14952381Y-24845239D01*
X14952381Y-24607143D01*
X14904762Y-24511905D01*
X14857143Y-24464286D01*
X5261905Y-43952381D02*
X5261905Y-44761905D01*
X5214286Y-44857143D01*
X5166667Y-44904762D01*
X5071429Y-44952381D01*
X4880952Y-44952381D01*
X4785714Y-44904762D01*
X4738095Y-44857143D01*
X4690476Y-44761905D01*
X4690476Y-43952381D01*
X4309524Y-43952381D02*
X3690476Y-43952381D01*
X4023810Y-44333333D01*
X3880952Y-44333333D01*
X3785714Y-44380952D01*
X3738095Y-44428571D01*
X3690476Y-44523810D01*
X3690476Y-44761905D01*
X3738095Y-44857143D01*
X3785714Y-44904762D01*
X3880952Y-44952381D01*
X4166667Y-44952381D01*
X4261905Y-44904762D01*
X4309524Y-44857143D01*
X21952381Y-18261905D02*
X22761905Y-18261905D01*
X22857143Y-18309524D01*
X22904762Y-18357143D01*
X22952381Y-18452381D01*
X22952381Y-18642858D01*
X22904762Y-18738096D01*
X22857143Y-18785715D01*
X22761905Y-18833334D01*
X21952381Y-18833334D01*
X22952381Y-19833334D02*
X22952381Y-19261905D01*
X22952381Y-19547619D02*
X21952381Y-19547619D01*
X22095238Y-19452381D01*
X22190476Y-19357143D01*
X22238095Y-19261905D01*
X21952381Y-20452381D02*
X21952381Y-20547620D01*
X22000000Y-20642858D01*
X22047619Y-20690477D01*
X22142857Y-20738096D01*
X22333333Y-20785715D01*
X22571429Y-20785715D01*
X22761905Y-20738096D01*
X22857143Y-20690477D01*
X22904762Y-20642858D01*
X22952381Y-20547620D01*
X22952381Y-20452381D01*
X22904762Y-20357143D01*
X22857143Y-20309524D01*
X22761905Y-20261905D01*
X22571429Y-20214286D01*
X22333333Y-20214286D01*
X22142857Y-20261905D01*
X22047619Y-20309524D01*
X22000000Y-20357143D01*
X21952381Y-20452381D01*
X31011905Y-26452381D02*
X31011905Y-27261905D01*
X30964286Y-27357143D01*
X30916667Y-27404762D01*
X30821429Y-27452381D01*
X30630952Y-27452381D01*
X30535714Y-27404762D01*
X30488095Y-27357143D01*
X30440476Y-27261905D01*
X30440476Y-26452381D01*
X29488095Y-26452381D02*
X29964286Y-26452381D01*
X30011905Y-26928571D01*
X29964286Y-26880952D01*
X29869048Y-26833333D01*
X29630952Y-26833333D01*
X29535714Y-26880952D01*
X29488095Y-26928571D01*
X29440476Y-27023810D01*
X29440476Y-27261905D01*
X29488095Y-27357143D01*
X29535714Y-27404762D01*
X29630952Y-27452381D01*
X29869048Y-27452381D01*
X29964286Y-27404762D01*
X30011905Y-27357143D01*
X33392857Y-49607143D02*
X33440476Y-49654762D01*
X33583333Y-49702381D01*
X33678571Y-49702381D01*
X33821429Y-49654762D01*
X33916667Y-49559524D01*
X33964286Y-49464286D01*
X34011905Y-49273810D01*
X34011905Y-49130952D01*
X33964286Y-48940476D01*
X33916667Y-48845238D01*
X33821429Y-48750000D01*
X33678571Y-48702381D01*
X33583333Y-48702381D01*
X33440476Y-48750000D01*
X33392857Y-48797619D01*
X33059524Y-48702381D02*
X32440476Y-48702381D01*
X32773810Y-49083333D01*
X32630952Y-49083333D01*
X32535714Y-49130952D01*
X32488095Y-49178571D01*
X32440476Y-49273810D01*
X32440476Y-49511905D01*
X32488095Y-49607143D01*
X32535714Y-49654762D01*
X32630952Y-49702381D01*
X32916667Y-49702381D01*
X33011905Y-49654762D01*
X33059524Y-49607143D01*
X32059524Y-48797619D02*
X32011905Y-48750000D01*
X31916667Y-48702381D01*
X31678571Y-48702381D01*
X31583333Y-48750000D01*
X31535714Y-48797619D01*
X31488095Y-48892857D01*
X31488095Y-48988095D01*
X31535714Y-49130952D01*
X32107143Y-49702381D01*
X31488095Y-49702381D01*
D12*
X18428571Y-48678572D02*
X18452381Y-48654762D01*
X18476190Y-48583334D01*
X18476190Y-48535715D01*
X18452381Y-48464286D01*
X18404762Y-48416667D01*
X18357143Y-48392858D01*
X18261905Y-48369048D01*
X18190476Y-48369048D01*
X18095238Y-48392858D01*
X18047619Y-48416667D01*
X18000000Y-48464286D01*
X17976190Y-48535715D01*
X17976190Y-48583334D01*
X18000000Y-48654762D01*
X18023810Y-48678572D01*
X17976190Y-49107143D02*
X17976190Y-49011905D01*
X18000000Y-48964286D01*
X18023810Y-48940477D01*
X18095238Y-48892858D01*
X18190476Y-48869048D01*
X18380952Y-48869048D01*
X18428571Y-48892858D01*
X18452381Y-48916667D01*
X18476190Y-48964286D01*
X18476190Y-49059524D01*
X18452381Y-49107143D01*
X18428571Y-49130953D01*
X18380952Y-49154762D01*
X18261905Y-49154762D01*
X18214286Y-49130953D01*
X18190476Y-49107143D01*
X18166667Y-49059524D01*
X18166667Y-48964286D01*
X18190476Y-48916667D01*
X18214286Y-48892858D01*
X18261905Y-48869048D01*
X18023810Y-49345238D02*
X18000000Y-49369048D01*
X17976190Y-49416667D01*
X17976190Y-49535714D01*
X18000000Y-49583333D01*
X18023810Y-49607143D01*
X18071429Y-49630952D01*
X18119048Y-49630952D01*
X18190476Y-49607143D01*
X18476190Y-49321429D01*
X18476190Y-49630952D01*
D10*
X17607143Y-41607143D02*
X17654762Y-41559524D01*
X17702381Y-41416667D01*
X17702381Y-41321429D01*
X17654762Y-41178571D01*
X17559524Y-41083333D01*
X17464286Y-41035714D01*
X17273810Y-40988095D01*
X17130952Y-40988095D01*
X16940476Y-41035714D01*
X16845238Y-41083333D01*
X16750000Y-41178571D01*
X16702381Y-41321429D01*
X16702381Y-41416667D01*
X16750000Y-41559524D01*
X16797619Y-41607143D01*
X16702381Y-42464286D02*
X16702381Y-42273809D01*
X16750000Y-42178571D01*
X16797619Y-42130952D01*
X16940476Y-42035714D01*
X17130952Y-41988095D01*
X17511905Y-41988095D01*
X17607143Y-42035714D01*
X17654762Y-42083333D01*
X17702381Y-42178571D01*
X17702381Y-42369048D01*
X17654762Y-42464286D01*
X17607143Y-42511905D01*
X17511905Y-42559524D01*
X17273810Y-42559524D01*
X17178571Y-42511905D01*
X17130952Y-42464286D01*
X17083333Y-42369048D01*
X17083333Y-42178571D01*
X17130952Y-42083333D01*
X17178571Y-42035714D01*
X17273810Y-41988095D01*
X16702381Y-42892857D02*
X16702381Y-43511905D01*
X17083333Y-43178571D01*
X17083333Y-43321429D01*
X17130952Y-43416667D01*
X17178571Y-43464286D01*
X17273810Y-43511905D01*
X17511905Y-43511905D01*
X17607143Y-43464286D01*
X17654762Y-43416667D01*
X17702381Y-43321429D01*
X17702381Y-43035714D01*
X17654762Y-42940476D01*
X17607143Y-42892857D01*
X13392857Y-41107143D02*
X13440476Y-41154762D01*
X13583333Y-41202381D01*
X13678571Y-41202381D01*
X13821429Y-41154762D01*
X13916667Y-41059524D01*
X13964286Y-40964286D01*
X14011905Y-40773810D01*
X14011905Y-40630952D01*
X13964286Y-40440476D01*
X13916667Y-40345238D01*
X13821429Y-40250000D01*
X13678571Y-40202381D01*
X13583333Y-40202381D01*
X13440476Y-40250000D01*
X13392857Y-40297619D01*
X13059524Y-40202381D02*
X12392857Y-40202381D01*
X12821429Y-41202381D01*
X12107143Y-40202381D02*
X11488095Y-40202381D01*
X11821429Y-40583333D01*
X11678571Y-40583333D01*
X11583333Y-40630952D01*
X11535714Y-40678571D01*
X11488095Y-40773810D01*
X11488095Y-41011905D01*
X11535714Y-41107143D01*
X11583333Y-41154762D01*
X11678571Y-41202381D01*
X11964286Y-41202381D01*
X12059524Y-41154762D01*
X12107143Y-41107143D01*
X4642857Y-43357143D02*
X4690476Y-43404762D01*
X4833333Y-43452381D01*
X4928571Y-43452381D01*
X5071429Y-43404762D01*
X5166667Y-43309524D01*
X5214286Y-43214286D01*
X5261905Y-43023810D01*
X5261905Y-42880952D01*
X5214286Y-42690476D01*
X5166667Y-42595238D01*
X5071429Y-42500000D01*
X4928571Y-42452381D01*
X4833333Y-42452381D01*
X4690476Y-42500000D01*
X4642857Y-42547619D01*
X4309524Y-42452381D02*
X3642857Y-42452381D01*
X4071429Y-43452381D01*
X2833333Y-42785714D02*
X2833333Y-43452381D01*
X3071429Y-42404762D02*
X3309524Y-43119048D01*
X2690476Y-43119048D01*
X24607143Y-38357143D02*
X24654762Y-38309524D01*
X24702381Y-38166667D01*
X24702381Y-38071429D01*
X24654762Y-37928571D01*
X24559524Y-37833333D01*
X24464286Y-37785714D01*
X24273810Y-37738095D01*
X24130952Y-37738095D01*
X23940476Y-37785714D01*
X23845238Y-37833333D01*
X23750000Y-37928571D01*
X23702381Y-38071429D01*
X23702381Y-38166667D01*
X23750000Y-38309524D01*
X23797619Y-38357143D01*
X23702381Y-38690476D02*
X23702381Y-39309524D01*
X24083333Y-38976190D01*
X24083333Y-39119048D01*
X24130952Y-39214286D01*
X24178571Y-39261905D01*
X24273810Y-39309524D01*
X24511905Y-39309524D01*
X24607143Y-39261905D01*
X24654762Y-39214286D01*
X24702381Y-39119048D01*
X24702381Y-38833333D01*
X24654762Y-38738095D01*
X24607143Y-38690476D01*
X24702381Y-40261905D02*
X24702381Y-39690476D01*
X24702381Y-39976190D02*
X23702381Y-39976190D01*
X23845238Y-39880952D01*
X23940476Y-39785714D01*
X23988095Y-39690476D01*
D12*
X45607143Y-44357143D02*
X45654762Y-44309524D01*
X45702381Y-44166667D01*
X45702381Y-44071429D01*
X45654762Y-43928571D01*
X45559524Y-43833333D01*
X45464286Y-43785714D01*
X45273810Y-43738095D01*
X45130952Y-43738095D01*
X44940476Y-43785714D01*
X44845238Y-43833333D01*
X44750000Y-43928571D01*
X44702381Y-44071429D01*
X44702381Y-44166667D01*
X44750000Y-44309524D01*
X44797619Y-44357143D01*
X45702381Y-45309524D02*
X45702381Y-44738095D01*
X45702381Y-45023809D02*
X44702381Y-45023809D01*
X44845238Y-44928571D01*
X44940476Y-44833333D01*
X44988095Y-44738095D01*
X44702381Y-45642857D02*
X44702381Y-46261905D01*
X45083333Y-45928571D01*
X45083333Y-46071429D01*
X45130952Y-46166667D01*
X45178571Y-46214286D01*
X45273810Y-46261905D01*
X45511905Y-46261905D01*
X45607143Y-46214286D01*
X45654762Y-46166667D01*
X45702381Y-46071429D01*
X45702381Y-45785714D01*
X45654762Y-45690476D01*
X45607143Y-45642857D01*
X22178571Y-48678572D02*
X22202381Y-48654762D01*
X22226190Y-48583334D01*
X22226190Y-48535715D01*
X22202381Y-48464286D01*
X22154762Y-48416667D01*
X22107143Y-48392858D01*
X22011905Y-48369048D01*
X21940476Y-48369048D01*
X21845238Y-48392858D01*
X21797619Y-48416667D01*
X21750000Y-48464286D01*
X21726190Y-48535715D01*
X21726190Y-48583334D01*
X21750000Y-48654762D01*
X21773810Y-48678572D01*
X21892857Y-49107143D02*
X22226190Y-49107143D01*
X21702381Y-48988096D02*
X22059524Y-48869048D01*
X22059524Y-49178572D01*
X22226190Y-49630952D02*
X22226190Y-49345238D01*
X22226190Y-49488095D02*
X21726190Y-49488095D01*
X21797619Y-49440476D01*
X21845238Y-49392857D01*
X21869048Y-49345238D01*
D10*
X17742857Y-38207143D02*
X17790476Y-38254762D01*
X17933333Y-38302381D01*
X18028571Y-38302381D01*
X18171429Y-38254762D01*
X18266667Y-38159524D01*
X18314286Y-38064286D01*
X18361905Y-37873810D01*
X18361905Y-37730952D01*
X18314286Y-37540476D01*
X18266667Y-37445238D01*
X18171429Y-37350000D01*
X18028571Y-37302381D01*
X17933333Y-37302381D01*
X17790476Y-37350000D01*
X17742857Y-37397619D01*
X16838095Y-37302381D02*
X17314286Y-37302381D01*
X17361905Y-37778571D01*
X17314286Y-37730952D01*
X17219048Y-37683333D01*
X16980952Y-37683333D01*
X16885714Y-37730952D01*
X16838095Y-37778571D01*
X16790476Y-37873810D01*
X16790476Y-38111905D01*
X16838095Y-38207143D01*
X16885714Y-38254762D01*
X16980952Y-38302381D01*
X17219048Y-38302381D01*
X17314286Y-38254762D01*
X17361905Y-38207143D01*
X15838095Y-38302381D02*
X16409524Y-38302381D01*
X16123810Y-38302381D02*
X16123810Y-37302381D01*
X16219048Y-37445238D01*
X16314286Y-37540476D01*
X16409524Y-37588095D01*
D12*
X20428571Y-48678572D02*
X20452381Y-48654762D01*
X20476190Y-48583334D01*
X20476190Y-48535715D01*
X20452381Y-48464286D01*
X20404762Y-48416667D01*
X20357143Y-48392858D01*
X20261905Y-48369048D01*
X20190476Y-48369048D01*
X20095238Y-48392858D01*
X20047619Y-48416667D01*
X20000000Y-48464286D01*
X19976190Y-48535715D01*
X19976190Y-48583334D01*
X20000000Y-48654762D01*
X20023810Y-48678572D01*
X19976190Y-49130953D02*
X19976190Y-48892858D01*
X20214286Y-48869048D01*
X20190476Y-48892858D01*
X20166667Y-48940477D01*
X20166667Y-49059524D01*
X20190476Y-49107143D01*
X20214286Y-49130953D01*
X20261905Y-49154762D01*
X20380952Y-49154762D01*
X20428571Y-49130953D01*
X20452381Y-49107143D01*
X20476190Y-49059524D01*
X20476190Y-48940477D01*
X20452381Y-48892858D01*
X20428571Y-48869048D01*
X20023810Y-49345238D02*
X20000000Y-49369048D01*
X19976190Y-49416667D01*
X19976190Y-49535714D01*
X20000000Y-49583333D01*
X20023810Y-49607143D01*
X20071429Y-49630952D01*
X20119048Y-49630952D01*
X20190476Y-49607143D01*
X20476190Y-49321429D01*
X20476190Y-49630952D01*
D10*
X27857143Y-18607143D02*
X27904762Y-18559524D01*
X27952381Y-18416667D01*
X27952381Y-18321429D01*
X27904762Y-18178571D01*
X27809524Y-18083333D01*
X27714286Y-18035714D01*
X27523810Y-17988095D01*
X27380952Y-17988095D01*
X27190476Y-18035714D01*
X27095238Y-18083333D01*
X27000000Y-18178571D01*
X26952381Y-18321429D01*
X26952381Y-18416667D01*
X27000000Y-18559524D01*
X27047619Y-18607143D01*
X26952381Y-19511905D02*
X26952381Y-19035714D01*
X27428571Y-18988095D01*
X27380952Y-19035714D01*
X27333333Y-19130952D01*
X27333333Y-19369048D01*
X27380952Y-19464286D01*
X27428571Y-19511905D01*
X27523810Y-19559524D01*
X27761905Y-19559524D01*
X27857143Y-19511905D01*
X27904762Y-19464286D01*
X27952381Y-19369048D01*
X27952381Y-19130952D01*
X27904762Y-19035714D01*
X27857143Y-18988095D01*
X26952381Y-19892857D02*
X26952381Y-20511905D01*
X27333333Y-20178571D01*
X27333333Y-20321429D01*
X27380952Y-20416667D01*
X27428571Y-20464286D01*
X27523810Y-20511905D01*
X27761905Y-20511905D01*
X27857143Y-20464286D01*
X27904762Y-20416667D01*
X27952381Y-20321429D01*
X27952381Y-20035714D01*
X27904762Y-19940476D01*
X27857143Y-19892857D01*
X41214286Y-46702381D02*
X41214286Y-45702381D01*
X40976191Y-45702381D01*
X40833333Y-45750000D01*
X40738095Y-45845238D01*
X40690476Y-45940476D01*
X40642857Y-46130952D01*
X40642857Y-46273810D01*
X40690476Y-46464286D01*
X40738095Y-46559524D01*
X40833333Y-46654762D01*
X40976191Y-46702381D01*
X41214286Y-46702381D01*
X39690476Y-46702381D02*
X40261905Y-46702381D01*
X39976191Y-46702381D02*
X39976191Y-45702381D01*
X40071429Y-45845238D01*
X40166667Y-45940476D01*
X40261905Y-45988095D01*
X38833333Y-46035714D02*
X38833333Y-46702381D01*
X39071429Y-45654762D02*
X39309524Y-46369048D01*
X38690476Y-46369048D01*
X36142857Y-46702381D02*
X36476191Y-46226190D01*
X36714286Y-46702381D02*
X36714286Y-45702381D01*
X36333333Y-45702381D01*
X36238095Y-45750000D01*
X36190476Y-45797619D01*
X36142857Y-45892857D01*
X36142857Y-46035714D01*
X36190476Y-46130952D01*
X36238095Y-46178571D01*
X36333333Y-46226190D01*
X36714286Y-46226190D01*
X35285714Y-46035714D02*
X35285714Y-46702381D01*
X35523810Y-45654762D02*
X35761905Y-46369048D01*
X35142857Y-46369048D01*
X34571429Y-45702381D02*
X34476190Y-45702381D01*
X34380952Y-45750000D01*
X34333333Y-45797619D01*
X34285714Y-45892857D01*
X34238095Y-46083333D01*
X34238095Y-46321429D01*
X34285714Y-46511905D01*
X34333333Y-46607143D01*
X34380952Y-46654762D01*
X34476190Y-46702381D01*
X34571429Y-46702381D01*
X34666667Y-46654762D01*
X34714286Y-46607143D01*
X34761905Y-46511905D01*
X34809524Y-46321429D01*
X34809524Y-46083333D01*
X34761905Y-45892857D01*
X34714286Y-45797619D01*
X34666667Y-45750000D01*
X34571429Y-45702381D01*
X38311905Y-16202381D02*
X38311905Y-17011905D01*
X38264286Y-17107143D01*
X38216667Y-17154762D01*
X38121429Y-17202381D01*
X37930952Y-17202381D01*
X37835714Y-17154762D01*
X37788095Y-17107143D01*
X37740476Y-17011905D01*
X37740476Y-16202381D01*
X36835714Y-16535714D02*
X36835714Y-17202381D01*
X37073810Y-16154762D02*
X37311905Y-16869048D01*
X36692857Y-16869048D01*
X43416666Y-22952381D02*
X43750000Y-22476190D01*
X43988095Y-22952381D02*
X43988095Y-21952381D01*
X43607142Y-21952381D01*
X43511904Y-22000000D01*
X43464285Y-22047619D01*
X43416666Y-22142857D01*
X43416666Y-22285714D01*
X43464285Y-22380952D01*
X43511904Y-22428571D01*
X43607142Y-22476190D01*
X43988095Y-22476190D01*
X42559523Y-21952381D02*
X42750000Y-21952381D01*
X42845238Y-22000000D01*
X42892857Y-22047619D01*
X42988095Y-22190476D01*
X43035714Y-22380952D01*
X43035714Y-22761905D01*
X42988095Y-22857143D01*
X42940476Y-22904762D01*
X42845238Y-22952381D01*
X42654761Y-22952381D01*
X42559523Y-22904762D01*
X42511904Y-22857143D01*
X42464285Y-22761905D01*
X42464285Y-22523810D01*
X42511904Y-22428571D01*
X42559523Y-22380952D01*
X42654761Y-22333333D01*
X42845238Y-22333333D01*
X42940476Y-22380952D01*
X42988095Y-22428571D01*
X43035714Y-22523810D01*
X44166666Y-21202381D02*
X44500000Y-20726190D01*
X44738095Y-21202381D02*
X44738095Y-20202381D01*
X44357142Y-20202381D01*
X44261904Y-20250000D01*
X44214285Y-20297619D01*
X44166666Y-20392857D01*
X44166666Y-20535714D01*
X44214285Y-20630952D01*
X44261904Y-20678571D01*
X44357142Y-20726190D01*
X44738095Y-20726190D01*
X43595238Y-20630952D02*
X43690476Y-20583333D01*
X43738095Y-20535714D01*
X43785714Y-20440476D01*
X43785714Y-20392857D01*
X43738095Y-20297619D01*
X43690476Y-20250000D01*
X43595238Y-20202381D01*
X43404761Y-20202381D01*
X43309523Y-20250000D01*
X43261904Y-20297619D01*
X43214285Y-20392857D01*
X43214285Y-20440476D01*
X43261904Y-20535714D01*
X43309523Y-20583333D01*
X43404761Y-20630952D01*
X43595238Y-20630952D01*
X43690476Y-20678571D01*
X43738095Y-20726190D01*
X43785714Y-20821429D01*
X43785714Y-21011905D01*
X43738095Y-21107143D01*
X43690476Y-21154762D01*
X43595238Y-21202381D01*
X43404761Y-21202381D01*
X43309523Y-21154762D01*
X43261904Y-21107143D01*
X43214285Y-21011905D01*
X43214285Y-20821429D01*
X43261904Y-20726190D01*
X43309523Y-20678571D01*
X43404761Y-20630952D01*
X44552381Y-16533334D02*
X44076190Y-16200000D01*
X44552381Y-15961905D02*
X43552381Y-15961905D01*
X43552381Y-16342858D01*
X43600000Y-16438096D01*
X43647619Y-16485715D01*
X43742857Y-16533334D01*
X43885714Y-16533334D01*
X43980952Y-16485715D01*
X44028571Y-16438096D01*
X44076190Y-16342858D01*
X44076190Y-15961905D01*
X44552381Y-17009524D02*
X44552381Y-17200000D01*
X44504762Y-17295239D01*
X44457143Y-17342858D01*
X44314286Y-17438096D01*
X44123810Y-17485715D01*
X43742857Y-17485715D01*
X43647619Y-17438096D01*
X43600000Y-17390477D01*
X43552381Y-17295239D01*
X43552381Y-17104762D01*
X43600000Y-17009524D01*
X43647619Y-16961905D01*
X43742857Y-16914286D01*
X43980952Y-16914286D01*
X44076190Y-16961905D01*
X44123810Y-17009524D01*
X44171429Y-17104762D01*
X44171429Y-17295239D01*
X44123810Y-17390477D01*
X44076190Y-17438096D01*
X43980952Y-17485715D01*
X37392857Y-15852381D02*
X37726191Y-15376190D01*
X37964286Y-15852381D02*
X37964286Y-14852381D01*
X37583333Y-14852381D01*
X37488095Y-14900000D01*
X37440476Y-14947619D01*
X37392857Y-15042857D01*
X37392857Y-15185714D01*
X37440476Y-15280952D01*
X37488095Y-15328571D01*
X37583333Y-15376190D01*
X37964286Y-15376190D01*
X36440476Y-15852381D02*
X37011905Y-15852381D01*
X36726191Y-15852381D02*
X36726191Y-14852381D01*
X36821429Y-14995238D01*
X36916667Y-15090476D01*
X37011905Y-15138095D01*
X35821429Y-14852381D02*
X35726190Y-14852381D01*
X35630952Y-14900000D01*
X35583333Y-14947619D01*
X35535714Y-15042857D01*
X35488095Y-15233333D01*
X35488095Y-15471429D01*
X35535714Y-15661905D01*
X35583333Y-15757143D01*
X35630952Y-15804762D01*
X35726190Y-15852381D01*
X35821429Y-15852381D01*
X35916667Y-15804762D01*
X35964286Y-15757143D01*
X36011905Y-15661905D01*
X36059524Y-15471429D01*
X36059524Y-15233333D01*
X36011905Y-15042857D01*
X35964286Y-14947619D01*
X35916667Y-14900000D01*
X35821429Y-14852381D01*
X44433333Y-2252381D02*
X44433333Y-2966667D01*
X44480953Y-3109524D01*
X44576191Y-3204762D01*
X44719048Y-3252381D01*
X44814286Y-3252381D01*
X44004762Y-2347619D02*
X43957143Y-2300000D01*
X43861905Y-2252381D01*
X43623809Y-2252381D01*
X43528571Y-2300000D01*
X43480952Y-2347619D01*
X43433333Y-2442857D01*
X43433333Y-2538095D01*
X43480952Y-2680952D01*
X44052381Y-3252381D01*
X43433333Y-3252381D01*
X41638095Y-26552381D02*
X41638095Y-25552381D01*
X41400000Y-25552381D01*
X41257142Y-25600000D01*
X41161904Y-25695238D01*
X41114285Y-25790476D01*
X41066666Y-25980952D01*
X41066666Y-26123810D01*
X41114285Y-26314286D01*
X41161904Y-26409524D01*
X41257142Y-26504762D01*
X41400000Y-26552381D01*
X41638095Y-26552381D01*
X40685714Y-25647619D02*
X40638095Y-25600000D01*
X40542857Y-25552381D01*
X40304761Y-25552381D01*
X40209523Y-25600000D01*
X40161904Y-25647619D01*
X40114285Y-25742857D01*
X40114285Y-25838095D01*
X40161904Y-25980952D01*
X40733333Y-26552381D01*
X40114285Y-26552381D01*
X32542857Y-22452381D02*
X32876191Y-21976190D01*
X33114286Y-22452381D02*
X33114286Y-21452381D01*
X32733333Y-21452381D01*
X32638095Y-21500000D01*
X32590476Y-21547619D01*
X32542857Y-21642857D01*
X32542857Y-21785714D01*
X32590476Y-21880952D01*
X32638095Y-21928571D01*
X32733333Y-21976190D01*
X33114286Y-21976190D01*
X31590476Y-22452381D02*
X32161905Y-22452381D01*
X31876191Y-22452381D02*
X31876191Y-21452381D01*
X31971429Y-21595238D01*
X32066667Y-21690476D01*
X32161905Y-21738095D01*
X30685714Y-21452381D02*
X31161905Y-21452381D01*
X31209524Y-21928571D01*
X31161905Y-21880952D01*
X31066667Y-21833333D01*
X30828571Y-21833333D01*
X30733333Y-21880952D01*
X30685714Y-21928571D01*
X30638095Y-22023810D01*
X30638095Y-22261905D01*
X30685714Y-22357143D01*
X30733333Y-22404762D01*
X30828571Y-22452381D01*
X31066667Y-22452381D01*
X31161905Y-22404762D01*
X31209524Y-22357143D01*
X32642857Y-17452381D02*
X32976191Y-16976190D01*
X33214286Y-17452381D02*
X33214286Y-16452381D01*
X32833333Y-16452381D01*
X32738095Y-16500000D01*
X32690476Y-16547619D01*
X32642857Y-16642857D01*
X32642857Y-16785714D01*
X32690476Y-16880952D01*
X32738095Y-16928571D01*
X32833333Y-16976190D01*
X33214286Y-16976190D01*
X31690476Y-17452381D02*
X32261905Y-17452381D01*
X31976191Y-17452381D02*
X31976191Y-16452381D01*
X32071429Y-16595238D01*
X32166667Y-16690476D01*
X32261905Y-16738095D01*
X31357143Y-16452381D02*
X30690476Y-16452381D01*
X31119048Y-17452381D01*
X34452381Y-25107143D02*
X33976190Y-24773809D01*
X34452381Y-24535714D02*
X33452381Y-24535714D01*
X33452381Y-24916667D01*
X33500000Y-25011905D01*
X33547619Y-25059524D01*
X33642857Y-25107143D01*
X33785714Y-25107143D01*
X33880952Y-25059524D01*
X33928571Y-25011905D01*
X33976190Y-24916667D01*
X33976190Y-24535714D01*
X34452381Y-26059524D02*
X34452381Y-25488095D01*
X34452381Y-25773809D02*
X33452381Y-25773809D01*
X33595238Y-25678571D01*
X33690476Y-25583333D01*
X33738095Y-25488095D01*
X34452381Y-26535714D02*
X34452381Y-26726190D01*
X34404762Y-26821429D01*
X34357143Y-26869048D01*
X34214286Y-26964286D01*
X34023810Y-27011905D01*
X33642857Y-27011905D01*
X33547619Y-26964286D01*
X33500000Y-26916667D01*
X33452381Y-26821429D01*
X33452381Y-26630952D01*
X33500000Y-26535714D01*
X33547619Y-26488095D01*
X33642857Y-26440476D01*
X33880952Y-26440476D01*
X33976190Y-26488095D01*
X34023810Y-26535714D01*
X34071429Y-26630952D01*
X34071429Y-26821429D01*
X34023810Y-26916667D01*
X33976190Y-26964286D01*
X33880952Y-27011905D01*
X39202381Y-31857143D02*
X38726190Y-31523809D01*
X39202381Y-31285714D02*
X38202381Y-31285714D01*
X38202381Y-31666667D01*
X38250000Y-31761905D01*
X38297619Y-31809524D01*
X38392857Y-31857143D01*
X38535714Y-31857143D01*
X38630952Y-31809524D01*
X38678571Y-31761905D01*
X38726190Y-31666667D01*
X38726190Y-31285714D01*
X38297619Y-32238095D02*
X38250000Y-32285714D01*
X38202381Y-32380952D01*
X38202381Y-32619048D01*
X38250000Y-32714286D01*
X38297619Y-32761905D01*
X38392857Y-32809524D01*
X38488095Y-32809524D01*
X38630952Y-32761905D01*
X39202381Y-32190476D01*
X39202381Y-32809524D01*
X39202381Y-33761905D02*
X39202381Y-33190476D01*
X39202381Y-33476190D02*
X38202381Y-33476190D01*
X38345238Y-33380952D01*
X38440476Y-33285714D01*
X38488095Y-33190476D01*
X37107143Y-29357143D02*
X37154762Y-29309524D01*
X37202381Y-29166667D01*
X37202381Y-29071429D01*
X37154762Y-28928571D01*
X37059524Y-28833333D01*
X36964286Y-28785714D01*
X36773810Y-28738095D01*
X36630952Y-28738095D01*
X36440476Y-28785714D01*
X36345238Y-28833333D01*
X36250000Y-28928571D01*
X36202381Y-29071429D01*
X36202381Y-29166667D01*
X36250000Y-29309524D01*
X36297619Y-29357143D01*
X37202381Y-30309524D02*
X37202381Y-29738095D01*
X37202381Y-30023809D02*
X36202381Y-30023809D01*
X36345238Y-29928571D01*
X36440476Y-29833333D01*
X36488095Y-29738095D01*
X37202381Y-30785714D02*
X37202381Y-30976190D01*
X37154762Y-31071429D01*
X37107143Y-31119048D01*
X36964286Y-31214286D01*
X36773810Y-31261905D01*
X36392857Y-31261905D01*
X36297619Y-31214286D01*
X36250000Y-31166667D01*
X36202381Y-31071429D01*
X36202381Y-30880952D01*
X36250000Y-30785714D01*
X36297619Y-30738095D01*
X36392857Y-30690476D01*
X36630952Y-30690476D01*
X36726190Y-30738095D01*
X36773810Y-30785714D01*
X36821429Y-30880952D01*
X36821429Y-31071429D01*
X36773810Y-31166667D01*
X36726190Y-31214286D01*
X36630952Y-31261905D01*
X25607143Y-29107143D02*
X25654762Y-29059524D01*
X25702381Y-28916667D01*
X25702381Y-28821429D01*
X25654762Y-28678571D01*
X25559524Y-28583333D01*
X25464286Y-28535714D01*
X25273810Y-28488095D01*
X25130952Y-28488095D01*
X24940476Y-28535714D01*
X24845238Y-28583333D01*
X24750000Y-28678571D01*
X24702381Y-28821429D01*
X24702381Y-28916667D01*
X24750000Y-29059524D01*
X24797619Y-29107143D01*
X24797619Y-29488095D02*
X24750000Y-29535714D01*
X24702381Y-29630952D01*
X24702381Y-29869048D01*
X24750000Y-29964286D01*
X24797619Y-30011905D01*
X24892857Y-30059524D01*
X24988095Y-30059524D01*
X25130952Y-30011905D01*
X25702381Y-29440476D01*
X25702381Y-30059524D01*
X24702381Y-30678571D02*
X24702381Y-30773810D01*
X24750000Y-30869048D01*
X24797619Y-30916667D01*
X24892857Y-30964286D01*
X25083333Y-31011905D01*
X25321429Y-31011905D01*
X25511905Y-30964286D01*
X25607143Y-30916667D01*
X25654762Y-30869048D01*
X25702381Y-30773810D01*
X25702381Y-30678571D01*
X25654762Y-30583333D01*
X25607143Y-30535714D01*
X25511905Y-30488095D01*
X25321429Y-30440476D01*
X25083333Y-30440476D01*
X24892857Y-30488095D01*
X24797619Y-30535714D01*
X24750000Y-30583333D01*
X24702381Y-30678571D01*
X33142857Y-46607143D02*
X33190476Y-46654762D01*
X33333333Y-46702381D01*
X33428571Y-46702381D01*
X33571429Y-46654762D01*
X33666667Y-46559524D01*
X33714286Y-46464286D01*
X33761905Y-46273810D01*
X33761905Y-46130952D01*
X33714286Y-45940476D01*
X33666667Y-45845238D01*
X33571429Y-45750000D01*
X33428571Y-45702381D01*
X33333333Y-45702381D01*
X33190476Y-45750000D01*
X33142857Y-45797619D01*
X32761905Y-45797619D02*
X32714286Y-45750000D01*
X32619048Y-45702381D01*
X32380952Y-45702381D01*
X32285714Y-45750000D01*
X32238095Y-45797619D01*
X32190476Y-45892857D01*
X32190476Y-45988095D01*
X32238095Y-46130952D01*
X32809524Y-46702381D01*
X32190476Y-46702381D01*
X31333333Y-46035714D02*
X31333333Y-46702381D01*
X31571429Y-45654762D02*
X31809524Y-46369048D01*
X31190476Y-46369048D01*
X26357143Y-38607143D02*
X26404762Y-38559524D01*
X26452381Y-38416667D01*
X26452381Y-38321429D01*
X26404762Y-38178571D01*
X26309524Y-38083333D01*
X26214286Y-38035714D01*
X26023810Y-37988095D01*
X25880952Y-37988095D01*
X25690476Y-38035714D01*
X25595238Y-38083333D01*
X25500000Y-38178571D01*
X25452381Y-38321429D01*
X25452381Y-38416667D01*
X25500000Y-38559524D01*
X25547619Y-38607143D01*
X25547619Y-38988095D02*
X25500000Y-39035714D01*
X25452381Y-39130952D01*
X25452381Y-39369048D01*
X25500000Y-39464286D01*
X25547619Y-39511905D01*
X25642857Y-39559524D01*
X25738095Y-39559524D01*
X25880952Y-39511905D01*
X26452381Y-38940476D01*
X26452381Y-39559524D01*
X25452381Y-40464286D02*
X25452381Y-39988095D01*
X25928571Y-39940476D01*
X25880952Y-39988095D01*
X25833333Y-40083333D01*
X25833333Y-40321429D01*
X25880952Y-40416667D01*
X25928571Y-40464286D01*
X26023810Y-40511905D01*
X26261905Y-40511905D01*
X26357143Y-40464286D01*
X26404762Y-40416667D01*
X26452381Y-40321429D01*
X26452381Y-40083333D01*
X26404762Y-39988095D01*
X26357143Y-39940476D01*
X38392857Y-35107143D02*
X38440476Y-35154762D01*
X38583333Y-35202381D01*
X38678571Y-35202381D01*
X38821429Y-35154762D01*
X38916667Y-35059524D01*
X38964286Y-34964286D01*
X39011905Y-34773810D01*
X39011905Y-34630952D01*
X38964286Y-34440476D01*
X38916667Y-34345238D01*
X38821429Y-34250000D01*
X38678571Y-34202381D01*
X38583333Y-34202381D01*
X38440476Y-34250000D01*
X38392857Y-34297619D01*
X38011905Y-34297619D02*
X37964286Y-34250000D01*
X37869048Y-34202381D01*
X37630952Y-34202381D01*
X37535714Y-34250000D01*
X37488095Y-34297619D01*
X37440476Y-34392857D01*
X37440476Y-34488095D01*
X37488095Y-34630952D01*
X38059524Y-35202381D01*
X37440476Y-35202381D01*
X36583333Y-34202381D02*
X36773810Y-34202381D01*
X36869048Y-34250000D01*
X36916667Y-34297619D01*
X37011905Y-34440476D01*
X37059524Y-34630952D01*
X37059524Y-35011905D01*
X37011905Y-35107143D01*
X36964286Y-35154762D01*
X36869048Y-35202381D01*
X36678571Y-35202381D01*
X36583333Y-35154762D01*
X36535714Y-35107143D01*
X36488095Y-35011905D01*
X36488095Y-34773810D01*
X36535714Y-34678571D01*
X36583333Y-34630952D01*
X36678571Y-34583333D01*
X36869048Y-34583333D01*
X36964286Y-34630952D01*
X37011905Y-34678571D01*
X37059524Y-34773810D01*
X38892857Y-44857143D02*
X38940476Y-44904762D01*
X39083333Y-44952381D01*
X39178571Y-44952381D01*
X39321429Y-44904762D01*
X39416667Y-44809524D01*
X39464286Y-44714286D01*
X39511905Y-44523810D01*
X39511905Y-44380952D01*
X39464286Y-44190476D01*
X39416667Y-44095238D01*
X39321429Y-44000000D01*
X39178571Y-43952381D01*
X39083333Y-43952381D01*
X38940476Y-44000000D01*
X38892857Y-44047619D01*
X38511905Y-44047619D02*
X38464286Y-44000000D01*
X38369048Y-43952381D01*
X38130952Y-43952381D01*
X38035714Y-44000000D01*
X37988095Y-44047619D01*
X37940476Y-44142857D01*
X37940476Y-44238095D01*
X37988095Y-44380952D01*
X38559524Y-44952381D01*
X37940476Y-44952381D01*
X37607143Y-43952381D02*
X36940476Y-43952381D01*
X37369048Y-44952381D01*
X28892857Y-35607143D02*
X28940476Y-35654762D01*
X29083333Y-35702381D01*
X29178571Y-35702381D01*
X29321429Y-35654762D01*
X29416667Y-35559524D01*
X29464286Y-35464286D01*
X29511905Y-35273810D01*
X29511905Y-35130952D01*
X29464286Y-34940476D01*
X29416667Y-34845238D01*
X29321429Y-34750000D01*
X29178571Y-34702381D01*
X29083333Y-34702381D01*
X28940476Y-34750000D01*
X28892857Y-34797619D01*
X28511905Y-34797619D02*
X28464286Y-34750000D01*
X28369048Y-34702381D01*
X28130952Y-34702381D01*
X28035714Y-34750000D01*
X27988095Y-34797619D01*
X27940476Y-34892857D01*
X27940476Y-34988095D01*
X27988095Y-35130952D01*
X28559524Y-35702381D01*
X27940476Y-35702381D01*
X27464286Y-35702381D02*
X27273810Y-35702381D01*
X27178571Y-35654762D01*
X27130952Y-35607143D01*
X27035714Y-35464286D01*
X26988095Y-35273810D01*
X26988095Y-34892857D01*
X27035714Y-34797619D01*
X27083333Y-34750000D01*
X27178571Y-34702381D01*
X27369048Y-34702381D01*
X27464286Y-34750000D01*
X27511905Y-34797619D01*
X27559524Y-34892857D01*
X27559524Y-35130952D01*
X27511905Y-35226190D01*
X27464286Y-35273810D01*
X27369048Y-35321429D01*
X27178571Y-35321429D01*
X27083333Y-35273810D01*
X27035714Y-35226190D01*
X26988095Y-35130952D01*
X23892857Y-22357143D02*
X23940476Y-22404762D01*
X24083333Y-22452381D01*
X24178571Y-22452381D01*
X24321429Y-22404762D01*
X24416667Y-22309524D01*
X24464286Y-22214286D01*
X24511905Y-22023810D01*
X24511905Y-21880952D01*
X24464286Y-21690476D01*
X24416667Y-21595238D01*
X24321429Y-21500000D01*
X24178571Y-21452381D01*
X24083333Y-21452381D01*
X23940476Y-21500000D01*
X23892857Y-21547619D01*
X23035714Y-21785714D02*
X23035714Y-22452381D01*
X23273810Y-21404762D02*
X23511905Y-22119048D01*
X22892857Y-22119048D01*
X22607143Y-21452381D02*
X21988095Y-21452381D01*
X22321429Y-21833333D01*
X22178571Y-21833333D01*
X22083333Y-21880952D01*
X22035714Y-21928571D01*
X21988095Y-22023810D01*
X21988095Y-22261905D01*
X22035714Y-22357143D01*
X22083333Y-22404762D01*
X22178571Y-22452381D01*
X22464286Y-22452381D01*
X22559524Y-22404762D01*
X22607143Y-22357143D01*
X18142857Y-22357143D02*
X18190476Y-22404762D01*
X18333333Y-22452381D01*
X18428571Y-22452381D01*
X18571429Y-22404762D01*
X18666667Y-22309524D01*
X18714286Y-22214286D01*
X18761905Y-22023810D01*
X18761905Y-21880952D01*
X18714286Y-21690476D01*
X18666667Y-21595238D01*
X18571429Y-21500000D01*
X18428571Y-21452381D01*
X18333333Y-21452381D01*
X18190476Y-21500000D01*
X18142857Y-21547619D01*
X17285714Y-21785714D02*
X17285714Y-22452381D01*
X17523810Y-21404762D02*
X17761905Y-22119048D01*
X17142857Y-22119048D01*
X16285714Y-21452381D02*
X16761905Y-21452381D01*
X16809524Y-21928571D01*
X16761905Y-21880952D01*
X16666667Y-21833333D01*
X16428571Y-21833333D01*
X16333333Y-21880952D01*
X16285714Y-21928571D01*
X16238095Y-22023810D01*
X16238095Y-22261905D01*
X16285714Y-22357143D01*
X16333333Y-22404762D01*
X16428571Y-22452381D01*
X16666667Y-22452381D01*
X16761905Y-22404762D01*
X16809524Y-22357143D01*
X8392857Y-49607143D02*
X8440476Y-49654762D01*
X8583333Y-49702381D01*
X8678571Y-49702381D01*
X8821429Y-49654762D01*
X8916667Y-49559524D01*
X8964286Y-49464286D01*
X9011905Y-49273810D01*
X9011905Y-49130952D01*
X8964286Y-48940476D01*
X8916667Y-48845238D01*
X8821429Y-48750000D01*
X8678571Y-48702381D01*
X8583333Y-48702381D01*
X8440476Y-48750000D01*
X8392857Y-48797619D01*
X8059524Y-48702381D02*
X7392857Y-48702381D01*
X7821429Y-49702381D01*
X6535714Y-48702381D02*
X7011905Y-48702381D01*
X7059524Y-49178571D01*
X7011905Y-49130952D01*
X6916667Y-49083333D01*
X6678571Y-49083333D01*
X6583333Y-49130952D01*
X6535714Y-49178571D01*
X6488095Y-49273810D01*
X6488095Y-49511905D01*
X6535714Y-49607143D01*
X6583333Y-49654762D01*
X6678571Y-49702381D01*
X6916667Y-49702381D01*
X7011905Y-49654762D01*
X7059524Y-49607143D01*
X44752381Y-28857143D02*
X44276190Y-28523809D01*
X44752381Y-28285714D02*
X43752381Y-28285714D01*
X43752381Y-28666667D01*
X43800000Y-28761905D01*
X43847619Y-28809524D01*
X43942857Y-28857143D01*
X44085714Y-28857143D01*
X44180952Y-28809524D01*
X44228571Y-28761905D01*
X44276190Y-28666667D01*
X44276190Y-28285714D01*
X43847619Y-29238095D02*
X43800000Y-29285714D01*
X43752381Y-29380952D01*
X43752381Y-29619048D01*
X43800000Y-29714286D01*
X43847619Y-29761905D01*
X43942857Y-29809524D01*
X44038095Y-29809524D01*
X44180952Y-29761905D01*
X44752381Y-29190476D01*
X44752381Y-29809524D01*
X43752381Y-30142857D02*
X43752381Y-30761905D01*
X44133333Y-30428571D01*
X44133333Y-30571429D01*
X44180952Y-30666667D01*
X44228571Y-30714286D01*
X44323810Y-30761905D01*
X44561905Y-30761905D01*
X44657143Y-30714286D01*
X44704762Y-30666667D01*
X44752381Y-30571429D01*
X44752381Y-30285714D01*
X44704762Y-30190476D01*
X44657143Y-30142857D01*
X45952381Y-28857143D02*
X45476190Y-28523809D01*
X45952381Y-28285714D02*
X44952381Y-28285714D01*
X44952381Y-28666667D01*
X45000000Y-28761905D01*
X45047619Y-28809524D01*
X45142857Y-28857143D01*
X45285714Y-28857143D01*
X45380952Y-28809524D01*
X45428571Y-28761905D01*
X45476190Y-28666667D01*
X45476190Y-28285714D01*
X45047619Y-29238095D02*
X45000000Y-29285714D01*
X44952381Y-29380952D01*
X44952381Y-29619048D01*
X45000000Y-29714286D01*
X45047619Y-29761905D01*
X45142857Y-29809524D01*
X45238095Y-29809524D01*
X45380952Y-29761905D01*
X45952381Y-29190476D01*
X45952381Y-29809524D01*
X44952381Y-30666667D02*
X44952381Y-30476190D01*
X45000000Y-30380952D01*
X45047619Y-30333333D01*
X45190476Y-30238095D01*
X45380952Y-30190476D01*
X45761905Y-30190476D01*
X45857143Y-30238095D01*
X45904762Y-30285714D01*
X45952381Y-30380952D01*
X45952381Y-30571429D01*
X45904762Y-30666667D01*
X45857143Y-30714286D01*
X45761905Y-30761905D01*
X45523810Y-30761905D01*
X45428571Y-30714286D01*
X45380952Y-30666667D01*
X45333333Y-30571429D01*
X45333333Y-30380952D01*
X45380952Y-30285714D01*
X45428571Y-30238095D01*
X45523810Y-30190476D01*
X41952381Y-27857143D02*
X41476190Y-27523809D01*
X41952381Y-27285714D02*
X40952381Y-27285714D01*
X40952381Y-27666667D01*
X41000000Y-27761905D01*
X41047619Y-27809524D01*
X41142857Y-27857143D01*
X41285714Y-27857143D01*
X41380952Y-27809524D01*
X41428571Y-27761905D01*
X41476190Y-27666667D01*
X41476190Y-27285714D01*
X41047619Y-28238095D02*
X41000000Y-28285714D01*
X40952381Y-28380952D01*
X40952381Y-28619048D01*
X41000000Y-28714286D01*
X41047619Y-28761905D01*
X41142857Y-28809524D01*
X41238095Y-28809524D01*
X41380952Y-28761905D01*
X41952381Y-28190476D01*
X41952381Y-28809524D01*
X40952381Y-29142857D02*
X40952381Y-29809524D01*
X41952381Y-29380952D01*
X43452381Y-27857143D02*
X42976190Y-27523809D01*
X43452381Y-27285714D02*
X42452381Y-27285714D01*
X42452381Y-27666667D01*
X42500000Y-27761905D01*
X42547619Y-27809524D01*
X42642857Y-27857143D01*
X42785714Y-27857143D01*
X42880952Y-27809524D01*
X42928571Y-27761905D01*
X42976190Y-27666667D01*
X42976190Y-27285714D01*
X42547619Y-28238095D02*
X42500000Y-28285714D01*
X42452381Y-28380952D01*
X42452381Y-28619048D01*
X42500000Y-28714286D01*
X42547619Y-28761905D01*
X42642857Y-28809524D01*
X42738095Y-28809524D01*
X42880952Y-28761905D01*
X43452381Y-28190476D01*
X43452381Y-28809524D01*
X43452381Y-29285714D02*
X43452381Y-29476190D01*
X43404762Y-29571429D01*
X43357143Y-29619048D01*
X43214286Y-29714286D01*
X43023810Y-29761905D01*
X42642857Y-29761905D01*
X42547619Y-29714286D01*
X42500000Y-29666667D01*
X42452381Y-29571429D01*
X42452381Y-29380952D01*
X42500000Y-29285714D01*
X42547619Y-29238095D01*
X42642857Y-29190476D01*
X42880952Y-29190476D01*
X42976190Y-29238095D01*
X43023810Y-29285714D01*
X43071429Y-29380952D01*
X43071429Y-29571429D01*
X43023810Y-29666667D01*
X42976190Y-29714286D01*
X42880952Y-29761905D01*
X48052381Y-28857143D02*
X47576190Y-28523809D01*
X48052381Y-28285714D02*
X47052381Y-28285714D01*
X47052381Y-28666667D01*
X47100000Y-28761905D01*
X47147619Y-28809524D01*
X47242857Y-28857143D01*
X47385714Y-28857143D01*
X47480952Y-28809524D01*
X47528571Y-28761905D01*
X47576190Y-28666667D01*
X47576190Y-28285714D01*
X47052381Y-29190476D02*
X47052381Y-29809524D01*
X47433333Y-29476190D01*
X47433333Y-29619048D01*
X47480952Y-29714286D01*
X47528571Y-29761905D01*
X47623810Y-29809524D01*
X47861905Y-29809524D01*
X47957143Y-29761905D01*
X48004762Y-29714286D01*
X48052381Y-29619048D01*
X48052381Y-29333333D01*
X48004762Y-29238095D01*
X47957143Y-29190476D01*
X47052381Y-30428571D02*
X47052381Y-30523810D01*
X47100000Y-30619048D01*
X47147619Y-30666667D01*
X47242857Y-30714286D01*
X47433333Y-30761905D01*
X47671429Y-30761905D01*
X47861905Y-30714286D01*
X47957143Y-30666667D01*
X48004762Y-30619048D01*
X48052381Y-30523810D01*
X48052381Y-30428571D01*
X48004762Y-30333333D01*
X47957143Y-30285714D01*
X47861905Y-30238095D01*
X47671429Y-30190476D01*
X47433333Y-30190476D01*
X47242857Y-30238095D01*
X47147619Y-30285714D01*
X47100000Y-30333333D01*
X47052381Y-30428571D01*
D12*
X38678571Y-21678572D02*
X38702381Y-21654762D01*
X38726190Y-21583334D01*
X38726190Y-21535715D01*
X38702381Y-21464286D01*
X38654762Y-21416667D01*
X38607143Y-21392858D01*
X38511905Y-21369048D01*
X38440476Y-21369048D01*
X38345238Y-21392858D01*
X38297619Y-21416667D01*
X38250000Y-21464286D01*
X38226190Y-21535715D01*
X38226190Y-21583334D01*
X38250000Y-21654762D01*
X38273810Y-21678572D01*
X38273810Y-21869048D02*
X38250000Y-21892858D01*
X38226190Y-21940477D01*
X38226190Y-22059524D01*
X38250000Y-22107143D01*
X38273810Y-22130953D01*
X38321429Y-22154762D01*
X38369048Y-22154762D01*
X38440476Y-22130953D01*
X38726190Y-21845239D01*
X38726190Y-22154762D01*
X38226190Y-22321429D02*
X38226190Y-22630952D01*
X38416667Y-22464286D01*
X38416667Y-22535714D01*
X38440476Y-22583333D01*
X38464286Y-22607143D01*
X38511905Y-22630952D01*
X38630952Y-22630952D01*
X38678571Y-22607143D01*
X38702381Y-22583333D01*
X38726190Y-22535714D01*
X38726190Y-22392857D01*
X38702381Y-22345238D01*
X38678571Y-22321429D01*
D10*
X1552381Y-34657143D02*
X1076190Y-34323809D01*
X1552381Y-34085714D02*
X552381Y-34085714D01*
X552381Y-34466667D01*
X600000Y-34561905D01*
X647619Y-34609524D01*
X742857Y-34657143D01*
X885714Y-34657143D01*
X980952Y-34609524D01*
X1028571Y-34561905D01*
X1076190Y-34466667D01*
X1076190Y-34085714D01*
X552381Y-34990476D02*
X552381Y-35609524D01*
X933333Y-35276190D01*
X933333Y-35419048D01*
X980952Y-35514286D01*
X1028571Y-35561905D01*
X1123810Y-35609524D01*
X1361905Y-35609524D01*
X1457143Y-35561905D01*
X1504762Y-35514286D01*
X1552381Y-35419048D01*
X1552381Y-35133333D01*
X1504762Y-35038095D01*
X1457143Y-34990476D01*
X552381Y-36514286D02*
X552381Y-36038095D01*
X1028571Y-35990476D01*
X980952Y-36038095D01*
X933333Y-36133333D01*
X933333Y-36371429D01*
X980952Y-36466667D01*
X1028571Y-36514286D01*
X1123810Y-36561905D01*
X1361905Y-36561905D01*
X1457143Y-36514286D01*
X1504762Y-36466667D01*
X1552381Y-36371429D01*
X1552381Y-36133333D01*
X1504762Y-36038095D01*
X1457143Y-35990476D01*
X7261905Y-24702381D02*
X7261905Y-25511905D01*
X7214286Y-25607143D01*
X7166667Y-25654762D01*
X7071429Y-25702381D01*
X6880952Y-25702381D01*
X6785714Y-25654762D01*
X6738095Y-25607143D01*
X6690476Y-25511905D01*
X6690476Y-24702381D01*
X5690476Y-25702381D02*
X6261905Y-25702381D01*
X5976191Y-25702381D02*
X5976191Y-24702381D01*
X6071429Y-24845238D01*
X6166667Y-24940476D01*
X6261905Y-24988095D01*
%LPC*%
D13*
X14675000Y-8540000D03*
X8585000Y-8540000D03*
X12645000Y-8540000D03*
X10615000Y-8540000D03*
X13655000Y-10320000D03*
X11625000Y-10320000D03*
X9595000Y-10320000D03*
X7565000Y-10320000D03*
D14*
X33225000Y-6000000D03*
D15*
X3000000Y-9430000D03*
D13*
X23315000Y-10320000D03*
X25345000Y-10320000D03*
X27375000Y-10320000D03*
X29405000Y-10320000D03*
X26365000Y-8540000D03*
X28395000Y-8540000D03*
X24335000Y-8540000D03*
X30425000Y-8540000D03*
D14*
X4775000Y-6000000D03*
D15*
X35000000Y-9430000D03*
D16*
X5112689Y-36484010D03*
X10512689Y-36484010D03*
D17*
X16500000Y-28500000D03*
X16500000Y-26500000D03*
X13162689Y-43934010D03*
X13162689Y-45934010D03*
D18*
X25000000Y-43600000D03*
D19*
X23730000Y-43600000D03*
X22460000Y-43600000D03*
X21190000Y-43600000D03*
X19920000Y-43600000D03*
X23730000Y-42330000D03*
X22460000Y-42330000D03*
X21190000Y-42330000D03*
X19920000Y-42330000D03*
X25000000Y-42330000D03*
D20*
X30153748Y-35428821D03*
X30653748Y-35428821D03*
X31153748Y-35428821D03*
X31653748Y-35428821D03*
X32153748Y-35428821D03*
X32653748Y-35428821D03*
X33153748Y-35428821D03*
X33653748Y-35428821D03*
X34153748Y-35428821D03*
X34653748Y-35428821D03*
X35153748Y-35428821D03*
X35653748Y-35428821D03*
D21*
X37253748Y-37028821D03*
X37253748Y-37528821D03*
X37253748Y-38028821D03*
X37253748Y-38528821D03*
X37253748Y-39028821D03*
X37253748Y-39528821D03*
X37253748Y-40028821D03*
X37253748Y-40528821D03*
X37253748Y-41028821D03*
X37253748Y-41528821D03*
X37253748Y-42028821D03*
X37253748Y-42528821D03*
D20*
X35653748Y-44128821D03*
X35153748Y-44128821D03*
X34653748Y-44128821D03*
X34153748Y-44128821D03*
X33653748Y-44128821D03*
X33153748Y-44128821D03*
X32653748Y-44128821D03*
X32153748Y-44128821D03*
X31653748Y-44128821D03*
X31153748Y-44128821D03*
X30653748Y-44128821D03*
X30153748Y-44128821D03*
D21*
X28553748Y-42528821D03*
X28553748Y-42028821D03*
X28553748Y-41528821D03*
X28553748Y-41028821D03*
X28553748Y-40528821D03*
X28553748Y-40028821D03*
X28553748Y-39528821D03*
X28553748Y-39028821D03*
X28553748Y-38528821D03*
X28553748Y-38028821D03*
X28553748Y-37528821D03*
X28553748Y-37028821D03*
D17*
X22750000Y-45500000D03*
X22750000Y-47500000D03*
D22*
X21351421Y-27467208D03*
X19451421Y-27467208D03*
X20401421Y-25467208D03*
D23*
X11550000Y-23750000D03*
X9450000Y-23750000D03*
D24*
X2400000Y-28250000D03*
X2400000Y-26350000D03*
D25*
X22296422Y-35477207D03*
X21026422Y-35477207D03*
X19756422Y-35477207D03*
X18486422Y-35477207D03*
X18486422Y-30077207D03*
X19756422Y-30077207D03*
X21026422Y-30077207D03*
X22296422Y-30077207D03*
D26*
X16600000Y-30250000D03*
X16600000Y-32350000D03*
X14700000Y-32350000D03*
X14700000Y-30250000D03*
X14500000Y-28550000D03*
X14500000Y-26450000D03*
D27*
X6582689Y-46309010D03*
X6582689Y-45659010D03*
X6582689Y-45009010D03*
X6582689Y-44359010D03*
X6582689Y-43709010D03*
X6582689Y-43059010D03*
X10792689Y-43059010D03*
X10792689Y-43709010D03*
X10792689Y-44359010D03*
X10792689Y-45009010D03*
X10792689Y-45659010D03*
X10792689Y-46309010D03*
D28*
X9100189Y-43615260D03*
X9100189Y-44327760D03*
X9100189Y-45040260D03*
X9100189Y-45752760D03*
X8275189Y-43615260D03*
X8275189Y-44327760D03*
X8275189Y-45040260D03*
X8275189Y-45752760D03*
D29*
X20991420Y-22527207D03*
X19791420Y-19527207D03*
X19791420Y-22527207D03*
X20991420Y-19527207D03*
D30*
X32653748Y-30928821D03*
X30153748Y-30928821D03*
X30153748Y-28828821D03*
X32653748Y-28828821D03*
D31*
X28400000Y-48300000D03*
X30400000Y-48300000D03*
D17*
X17212689Y-47484010D03*
X17212689Y-45484010D03*
X15412689Y-42684010D03*
X15412689Y-44684010D03*
D32*
X6512689Y-41034010D03*
X9512689Y-41034010D03*
X4250000Y-41000000D03*
X1250000Y-41000000D03*
D17*
X24200000Y-34800000D03*
X24200000Y-36800000D03*
X42100000Y-44500000D03*
X42100000Y-42500000D03*
X21200000Y-45500000D03*
X21200000Y-47500000D03*
D31*
X19400000Y-37850000D03*
X21400000Y-37850000D03*
D17*
X19350000Y-45500000D03*
X19350000Y-47500000D03*
X30350000Y-20200000D03*
X30350000Y-18200000D03*
D33*
X38800000Y-47800000D03*
X41000000Y-47800000D03*
D23*
X36550000Y-47800000D03*
X34450000Y-47800000D03*
D34*
X40750000Y-20300000D03*
X39800000Y-20300000D03*
X38850000Y-20300000D03*
X38850000Y-18100000D03*
X40750000Y-18100000D03*
X39800000Y-18100000D03*
D35*
X4000000Y-19000000D03*
X46000000Y-41000000D03*
D24*
X41450000Y-22500000D03*
X39550000Y-22500000D03*
X42300000Y-19300000D03*
X44200000Y-19300000D03*
X42650000Y-15750000D03*
X42650000Y-17650000D03*
X41000000Y-15750000D03*
X39100000Y-15750000D03*
D36*
X41200000Y-13300000D03*
D37*
X38700000Y-13300000D03*
X41200000Y-10800000D03*
X38700000Y-10800000D03*
D38*
X41200000Y-3620000D03*
X38700000Y-3620000D03*
D39*
X37200000Y-25950000D03*
X37200000Y-24050000D03*
X39200000Y-25000000D03*
D24*
X32550000Y-20100000D03*
X34450000Y-20100000D03*
X34430000Y-18620000D03*
X32530000Y-18620000D03*
X34400000Y-23650000D03*
X34400000Y-21750000D03*
X38750000Y-30200000D03*
X38750000Y-28300000D03*
X35100000Y-28950000D03*
X35100000Y-30850000D03*
X27703747Y-30828822D03*
X27703747Y-28928822D03*
X28450000Y-46600000D03*
X30350000Y-46600000D03*
X26000000Y-35250000D03*
X26000000Y-37150000D03*
X35028748Y-33128823D03*
X36928748Y-33128823D03*
X40400000Y-44350000D03*
X40400000Y-42450000D03*
X28628747Y-33753820D03*
X26728747Y-33753820D03*
X21916421Y-24077207D03*
X23816421Y-24077207D03*
X18966421Y-24077207D03*
X17066421Y-24077207D03*
X6562689Y-47784009D03*
X8462689Y-47784009D03*
X44500000Y-33700000D03*
X44500000Y-31800000D03*
X46000000Y-33700000D03*
X46000000Y-31800000D03*
X41500000Y-33700000D03*
X41500000Y-31800000D03*
X43000000Y-33700000D03*
X43000000Y-31800000D03*
X47500000Y-33700000D03*
X47500000Y-31800000D03*
D40*
X37000000Y-22500000D03*
X37000000Y-19500000D03*
D26*
X2250000Y-33050000D03*
X2250000Y-30950000D03*
D41*
X9250000Y-29700000D03*
X7750000Y-29700000D03*
X7750000Y-27900000D03*
D42*
X11450000Y-26850000D03*
X11450000Y-27500000D03*
X11450000Y-28150000D03*
X11450000Y-28800000D03*
X11450000Y-29450000D03*
X11450000Y-30100000D03*
X11450000Y-30750000D03*
X5550000Y-30750000D03*
X5550000Y-30100000D03*
X5550000Y-29450000D03*
X5550000Y-28800000D03*
X5550000Y-28150000D03*
X5550000Y-27500000D03*
X5550000Y-26850000D03*
D41*
X9250000Y-27900000D03*
D43*
X34300000Y-38200000D03*
D44*
X2000000Y-25000000D03*
X2000000Y-23500000D03*
X15500000Y-41750000D03*
X2250000Y-29500000D03*
X1000000Y-27250000D03*
X2000000Y-22000000D03*
X12950000Y-28550000D03*
X17091421Y-23177209D03*
X16500000Y-15000000D03*
D43*
X45250000Y-8750000D03*
D44*
X44750000Y-7250000D03*
D43*
X49200000Y-20200000D03*
X49200000Y-10600000D03*
X45200000Y-11800000D03*
D44*
X45300000Y-13300000D03*
X41600000Y-23400000D03*
X37800000Y-17800000D03*
X31500000Y-18200000D03*
X48700000Y-25950000D03*
X48700000Y-22600000D03*
X21400000Y-39000000D03*
X16500000Y-13500000D03*
X33500000Y-42000000D03*
X1250000Y-42500000D03*
X1250000Y-39750000D03*
X17250000Y-48750000D03*
X19400000Y-48800000D03*
X21200000Y-48800000D03*
X22800000Y-48800000D03*
X18600000Y-33000000D03*
X42400000Y-47800000D03*
X15000000Y-15500000D03*
X28850000Y-18200000D03*
X29150000Y-25000000D03*
X31700000Y-25600000D03*
X42200000Y-20750000D03*
D43*
X35700000Y-28300000D03*
D44*
X33700000Y-36900000D03*
X31400000Y-48300000D03*
X25075000Y-37700000D03*
X36250000Y-26400000D03*
X43100000Y-42500000D03*
X37580000Y-33120000D03*
X33830000Y-14930000D03*
D43*
X25953745Y-28128822D03*
X26953746Y-27128821D03*
D44*
X15762689Y-47534010D03*
X13262689Y-47534010D03*
X11012690Y-47284010D03*
X9262689Y-47784010D03*
X10762689Y-41034010D03*
X8262689Y-41784010D03*
X12262689Y-35034010D03*
X10762689Y-35034010D03*
X9262690Y-35034009D03*
X12262689Y-38034009D03*
X10762689Y-38034009D03*
X9262690Y-38034010D03*
D43*
X9312690Y-43384010D03*
X8112690Y-43384010D03*
X8112689Y-45584009D03*
X9312690Y-45584010D03*
D44*
X8712689Y-44584010D03*
D43*
X26953746Y-30628823D03*
D44*
X25853747Y-33078823D03*
D43*
X33453747Y-34128820D03*
X33453746Y-32878821D03*
X34453748Y-31878821D03*
X35453747Y-31878821D03*
X34703747Y-27128820D03*
X33203747Y-27128822D03*
X31453747Y-27128822D03*
X28953747Y-27128820D03*
X25953745Y-31378819D03*
X27453747Y-32628823D03*
X30453745Y-32628822D03*
X31453746Y-33878822D03*
D44*
X23691421Y-23177207D03*
X20391422Y-24377207D03*
D43*
X45750000Y-17750000D03*
X45400000Y-21350000D03*
X45500000Y-19750000D03*
X31600000Y-38300000D03*
X30475000Y-39400000D03*
X22275000Y-31575000D03*
D44*
X47500000Y-5750000D03*
X46500000Y-28500000D03*
X19400000Y-39000000D03*
X33400000Y-47800000D03*
X26500000Y-49000000D03*
X25000000Y-46000000D03*
X26500000Y-46000000D03*
X26500000Y-47500000D03*
X25000000Y-47500000D03*
X25000000Y-49000000D03*
X28850000Y-20200000D03*
X27400000Y-48300000D03*
X24250000Y-33875000D03*
X36200000Y-24400000D03*
X39900000Y-30300000D03*
X43200000Y-44500000D03*
X34430000Y-33340000D03*
X33820000Y-16800000D03*
X13500000Y-31750000D03*
X13500000Y-32750000D03*
X8500000Y-23750000D03*
X7750000Y-30250000D03*
D15*
X8500000Y-28750000D03*
D44*
X9250000Y-30250000D03*
X9250000Y-27250000D03*
X7750000Y-27250000D03*
D43*
X26900000Y-40100000D03*
X44800000Y-18500000D03*
D44*
X39700000Y-24400000D03*
D43*
X39700000Y-27400000D03*
X40750000Y-39000000D03*
X40900000Y-39800000D03*
X35350000Y-17950000D03*
X35300000Y-24000000D03*
X42100000Y-39500000D03*
X42000000Y-40500000D03*
X40350000Y-28100000D03*
X41500000Y-25000000D03*
X41250000Y-30250000D03*
X42500000Y-30500000D03*
X45250000Y-26750000D03*
D44*
X26000000Y-15000000D03*
X24500000Y-14000000D03*
X23250000Y-15000000D03*
M02*
