G04 #@! TF.FileFunction,Soldermask,Bot*
%FSLAX46Y46*%
G04 Gerber Fmt 4.6, Leading zero omitted, Abs format (unit mm)*
G04 Created by KiCad (PCBNEW 4.0.2-4+6225~38~ubuntu15.04.1-stable) date Sa 02 Apr 2016 14:44:10 CEST*
%MOMM*%
G01*
G04 APERTURE LIST*
%ADD10C,0.150000*%
%ADD11R,1.500000X1.300000*%
%ADD12C,3.000000*%
%ADD13R,0.800100X0.800100*%
%ADD14C,4.000000*%
%ADD15R,0.450000X1.450000*%
%ADD16R,1.300000X1.500000*%
%ADD17R,1.300000X1.300000*%
%ADD18C,1.300000*%
%ADD19R,1.250000X1.000000*%
%ADD20C,6.000000*%
%ADD21R,1.000000X1.250000*%
%ADD22R,2.600960X1.600200*%
%ADD23C,3.649980*%
%ADD24R,1.501140X1.501140*%
%ADD25C,1.501140*%
%ADD26R,1.100000X0.250000*%
%ADD27C,1.651000*%
%ADD28R,1.500000X0.600000*%
%ADD29R,1.727200X1.727200*%
%ADD30O,1.727200X1.727200*%
%ADD31C,2.000000*%
%ADD32O,3.014980X2.000000*%
%ADD33R,0.500000X0.900000*%
%ADD34R,2.000000X1.600000*%
%ADD35R,3.599180X1.600200*%
%ADD36R,1.198880X1.198880*%
%ADD37R,1.270000X3.270000*%
%ADD38R,1.100000X4.600000*%
%ADD39R,10.800000X9.400000*%
%ADD40R,1.600000X2.000000*%
%ADD41R,0.508000X0.304800*%
%ADD42R,1.800860X3.500120*%
%ADD43C,0.889000*%
G04 APERTURE END LIST*
D10*
D11*
X27860000Y-54737000D03*
X30560000Y-54737000D03*
D12*
X27500000Y-30500000D03*
X15501220Y-30497040D03*
X48641000Y-35749000D03*
X48643960Y-23750220D03*
D13*
X17667760Y-67959000D03*
X17667760Y-69859000D03*
X15668780Y-68909000D03*
D14*
X23900000Y-13210000D03*
X49300000Y-13210000D03*
D15*
X40201000Y-62447500D03*
X39551000Y-62447500D03*
X38901000Y-62447500D03*
X38251000Y-62447500D03*
X37601000Y-62447500D03*
X36951000Y-62447500D03*
X36301000Y-62447500D03*
X36301000Y-56547500D03*
X36951000Y-56547500D03*
X37601000Y-56547500D03*
X38251000Y-56547500D03*
X38901000Y-56547500D03*
X39551000Y-56547500D03*
X40201000Y-56547500D03*
D16*
X28086840Y-66716520D03*
X28086840Y-64016520D03*
D17*
X61200000Y-30200000D03*
D18*
X66200000Y-30200000D03*
D11*
X30176000Y-65524000D03*
X32876000Y-65524000D03*
D19*
X34060000Y-73253000D03*
X34060000Y-75253000D03*
D20*
X68500000Y-90000000D03*
D21*
X36235000Y-54100000D03*
X38235000Y-54100000D03*
D19*
X31393000Y-72649500D03*
X31393000Y-70649500D03*
D21*
X51068000Y-54348000D03*
X49068000Y-54348000D03*
X32653000Y-63446280D03*
X30653000Y-63446280D03*
X65324000Y-77208000D03*
X67324000Y-77208000D03*
D11*
X11032000Y-57098000D03*
X8332000Y-57098000D03*
D19*
X35590000Y-65032000D03*
X35590000Y-67032000D03*
D22*
X50550860Y-63250000D03*
X46949140Y-63250000D03*
D23*
X50345480Y-86396000D03*
X62214900Y-86396000D03*
D24*
X60729000Y-80046000D03*
D25*
X59459000Y-77506000D03*
X58189000Y-80046000D03*
X56919000Y-77506000D03*
X55649000Y-80046000D03*
X54379000Y-77506000D03*
X53109000Y-80046000D03*
X51839000Y-77506000D03*
D23*
X33327480Y-86396000D03*
X45196900Y-86396000D03*
D24*
X43711000Y-80046000D03*
D25*
X42441000Y-77506000D03*
X41171000Y-80046000D03*
X39901000Y-77506000D03*
X38631000Y-80046000D03*
X37361000Y-77506000D03*
X36091000Y-80046000D03*
X34821000Y-77506000D03*
D20*
X6500000Y-7000000D03*
X68500000Y-7000000D03*
X6500000Y-90000000D03*
D13*
X17159760Y-72658000D03*
X17159760Y-74558000D03*
X15160780Y-73608000D03*
D16*
X70040000Y-61215000D03*
X70040000Y-63915000D03*
X69990000Y-66315000D03*
X69990000Y-69015000D03*
X69990000Y-71615000D03*
X69990000Y-74315000D03*
X29351760Y-68710440D03*
X29351760Y-71410440D03*
D11*
X26336000Y-51943000D03*
X29036000Y-51943000D03*
X23097000Y-74370000D03*
X20397000Y-74370000D03*
D26*
X36354000Y-72918000D03*
X36354000Y-72418000D03*
X36354000Y-71918000D03*
X36354000Y-71418000D03*
X36354000Y-70918000D03*
X40654000Y-70918000D03*
X40654000Y-71418000D03*
X40654000Y-71918000D03*
X40654000Y-72418000D03*
X40654000Y-72918000D03*
D27*
X41680000Y-16766000D03*
X31520000Y-16766000D03*
X36600000Y-16766000D03*
X34060000Y-16766000D03*
X39140000Y-16766000D03*
X31520000Y-9654000D03*
X41680000Y-9654000D03*
X36600000Y-9654000D03*
X39140000Y-9654000D03*
X34060000Y-9654000D03*
D28*
X15319000Y-65861000D03*
X15319000Y-64591000D03*
X15319000Y-63321000D03*
X15319000Y-62051000D03*
X15319000Y-60781000D03*
X15319000Y-59511000D03*
X15319000Y-58241000D03*
X15319000Y-56971000D03*
X24619000Y-56971000D03*
X24619000Y-58241000D03*
X24619000Y-59511000D03*
X24619000Y-60781000D03*
X24619000Y-62051000D03*
X24619000Y-63321000D03*
X24619000Y-64591000D03*
X24619000Y-65861000D03*
D29*
X67190000Y-61015000D03*
D30*
X64650000Y-61015000D03*
X67190000Y-63555000D03*
X64650000Y-63555000D03*
X67190000Y-66095000D03*
X64650000Y-66095000D03*
X67190000Y-68635000D03*
X64650000Y-68635000D03*
X67190000Y-71175000D03*
X64650000Y-71175000D03*
X67190000Y-73715000D03*
X64650000Y-73715000D03*
D21*
X38250000Y-65500000D03*
X40250000Y-65500000D03*
D16*
X35711000Y-44880000D03*
X35711000Y-47580000D03*
X38759000Y-47580000D03*
X38759000Y-44880000D03*
D31*
X9270000Y-23690000D03*
X6730000Y-23690000D03*
X4190000Y-23690000D03*
X4190000Y-26230000D03*
X4190000Y-28770000D03*
X9270000Y-31310000D03*
X6730000Y-31310000D03*
X4190000Y-31310000D03*
X11810000Y-31310000D03*
X11810000Y-23690000D03*
X11810000Y-26230000D03*
X9270000Y-26230000D03*
X6730000Y-26230000D03*
X11810000Y-28770000D03*
X9270000Y-28770000D03*
X6730000Y-28770000D03*
X9270000Y-39190000D03*
X6730000Y-39190000D03*
X4190000Y-39190000D03*
X4190000Y-41730000D03*
X4190000Y-44270000D03*
X9270000Y-46810000D03*
X6730000Y-46810000D03*
X4190000Y-46810000D03*
X11810000Y-46810000D03*
X11810000Y-39190000D03*
X11810000Y-41730000D03*
X9270000Y-41730000D03*
X6730000Y-41730000D03*
X11810000Y-44270000D03*
X9270000Y-44270000D03*
X6730000Y-44270000D03*
X9270000Y-12690000D03*
X6730000Y-12690000D03*
X4190000Y-12690000D03*
X4190000Y-15230000D03*
X4190000Y-17770000D03*
X9270000Y-20310000D03*
X6730000Y-20310000D03*
X4190000Y-20310000D03*
X11810000Y-20310000D03*
X11810000Y-12690000D03*
X11810000Y-15230000D03*
X9270000Y-15230000D03*
X6730000Y-15230000D03*
X11810000Y-17770000D03*
X9270000Y-17770000D03*
X6730000Y-17770000D03*
X65730000Y-20810000D03*
X68270000Y-20810000D03*
X70810000Y-20810000D03*
X70810000Y-18270000D03*
X70810000Y-15730000D03*
X65730000Y-13190000D03*
X68270000Y-13190000D03*
X70810000Y-13190000D03*
X63190000Y-13190000D03*
X63190000Y-20810000D03*
X63190000Y-18270000D03*
X65730000Y-18270000D03*
X68270000Y-18270000D03*
X63190000Y-15730000D03*
X65730000Y-15730000D03*
X68270000Y-15730000D03*
X65730000Y-46810000D03*
X68270000Y-46810000D03*
X70810000Y-46810000D03*
X70810000Y-44270000D03*
X70810000Y-41730000D03*
X65730000Y-39190000D03*
X68270000Y-39190000D03*
X70810000Y-39190000D03*
X63190000Y-39190000D03*
X63190000Y-46810000D03*
X63190000Y-44270000D03*
X65730000Y-44270000D03*
X68270000Y-44270000D03*
X63190000Y-41730000D03*
X65730000Y-41730000D03*
X68270000Y-41730000D03*
D19*
X35711000Y-49675000D03*
X35711000Y-51675000D03*
X38759000Y-51675000D03*
X38759000Y-49675000D03*
D11*
X11159000Y-59130000D03*
X8459000Y-59130000D03*
D32*
X4250000Y-72500000D03*
X4250000Y-76000000D03*
X11250000Y-76000000D03*
X11250000Y-72500000D03*
X4250000Y-65000000D03*
X4250000Y-68500000D03*
X11250000Y-68500000D03*
X11250000Y-65000000D03*
X4250000Y-80000000D03*
X4250000Y-83500000D03*
X11250000Y-83500000D03*
X11250000Y-80000000D03*
D33*
X3725000Y-60400000D03*
X5225000Y-60400000D03*
X5225000Y-58876000D03*
X3725000Y-58876000D03*
X3725000Y-57225000D03*
X5225000Y-57225000D03*
X3725000Y-61924000D03*
X5225000Y-61924000D03*
D21*
X24779000Y-68401000D03*
X22779000Y-68401000D03*
D16*
X45339000Y-43735000D03*
X45339000Y-46435000D03*
X45381700Y-48654600D03*
X45381700Y-51354600D03*
D11*
X31156440Y-59270520D03*
X33856440Y-59270520D03*
D13*
X28777760Y-60408440D03*
X26877760Y-60408440D03*
X27827760Y-58409460D03*
X51513300Y-50751360D03*
X49613300Y-50751360D03*
X50563300Y-48752380D03*
X50421060Y-44088900D03*
X50421060Y-45988900D03*
X48422080Y-45038900D03*
D16*
X53687500Y-50364000D03*
X53687500Y-47664000D03*
D11*
X50394400Y-41762300D03*
X53094400Y-41762300D03*
D19*
X47604200Y-48877600D03*
X47604200Y-50877600D03*
D21*
X43702000Y-54094000D03*
X41702000Y-54094000D03*
D11*
X47451000Y-41021000D03*
X44751000Y-41021000D03*
D34*
X55688000Y-66496000D03*
X59688000Y-66496000D03*
D35*
X55953180Y-55364000D03*
X61454820Y-55364000D03*
D36*
X71246520Y-31129860D03*
X71246520Y-33227900D03*
X9232420Y-53342160D03*
X7134380Y-53342160D03*
X23377680Y-52049300D03*
X23377680Y-54147340D03*
D37*
X23017000Y-48531400D03*
X25557000Y-48531400D03*
X28097000Y-48531400D03*
D16*
X71292240Y-26617560D03*
X71292240Y-29317560D03*
D11*
X14532120Y-53296440D03*
X11832120Y-53296440D03*
X17745240Y-54180360D03*
X20445240Y-54180360D03*
X17790960Y-51863880D03*
X20490960Y-51863880D03*
D38*
X16442000Y-90626000D03*
X18142000Y-90626000D03*
X21542000Y-90626000D03*
D39*
X19842000Y-81476000D03*
D38*
X23242000Y-90626000D03*
D11*
X31105640Y-61338080D03*
X33805640Y-61338080D03*
D34*
X43750000Y-71500000D03*
X47750000Y-71500000D03*
D21*
X42500000Y-73750000D03*
X44500000Y-73750000D03*
D40*
X70000000Y-81000000D03*
X70000000Y-77000000D03*
D16*
X17399000Y-37672000D03*
X17399000Y-34972000D03*
D13*
X48500760Y-30550000D03*
X48500760Y-32450000D03*
X46501780Y-31500000D03*
D16*
X50927000Y-32211000D03*
X50927000Y-29511000D03*
D41*
X19621500Y-37846000D03*
X19621500Y-36576000D03*
X21653500Y-37846000D03*
X19621500Y-37211000D03*
X21653500Y-36576000D03*
D11*
X26242000Y-27686000D03*
X23542000Y-27686000D03*
D21*
X17288000Y-39560500D03*
X19288000Y-39560500D03*
D12*
X31500000Y-30500000D03*
X43498780Y-30502960D03*
D42*
X54894000Y-32036640D03*
X54894000Y-37035360D03*
D21*
X50022000Y-38989000D03*
X48022000Y-38989000D03*
D43*
X47750000Y-60500000D03*
X47750000Y-57000000D03*
D31*
X26948000Y-69554000D03*
X43712000Y-69046000D03*
D43*
X51250000Y-60750000D03*
X51250000Y-59500000D03*
X51250000Y-58250000D03*
X51250000Y-57000000D03*
X59586000Y-82078000D03*
X58316000Y-83094000D03*
X56792000Y-84110000D03*
X55268000Y-85126000D03*
X53467000Y-56896000D03*
X53467000Y-60833000D03*
D31*
X30885000Y-75015000D03*
X48030000Y-75015000D03*
D43*
X58000000Y-61000000D03*
X56250000Y-59750000D03*
X56250000Y-61000000D03*
X58000000Y-59750000D03*
X35584000Y-43436000D03*
X13589000Y-56959500D03*
X17081500Y-57023000D03*
X16065500Y-54546500D03*
X22636000Y-66750000D03*
X24000000Y-70250000D03*
X17250000Y-94250000D03*
X2000000Y-78000000D03*
X9750000Y-60750000D03*
X1750000Y-54000000D03*
X2000000Y-63250000D03*
X2500000Y-94000000D03*
X9750000Y-94000000D03*
X18500000Y-75750000D03*
X20000000Y-71750000D03*
X7750000Y-78000000D03*
X50000000Y-73530000D03*
X43750000Y-75360000D03*
X45640000Y-75310000D03*
X45750000Y-61333000D03*
X44226000Y-64508000D03*
X44250000Y-60250000D03*
X45750000Y-60250000D03*
X51500000Y-73500000D03*
X31000000Y-89000000D03*
X59500000Y-89000000D03*
X31000000Y-80500000D03*
X46000000Y-79500000D03*
X65308000Y-56126000D03*
X67848000Y-56126000D03*
X67848000Y-54602000D03*
X65308000Y-54602000D03*
X30891000Y-56761000D03*
X38886000Y-43436000D03*
X27813000Y-57213500D03*
X29321280Y-62567440D03*
X5145560Y-54287040D03*
X24932160Y-90421080D03*
X2392200Y-61968000D03*
X6512080Y-57995440D03*
X58958000Y-85209000D03*
X60482000Y-83685000D03*
X47909000Y-54348000D03*
X34885500Y-70570000D03*
X59681900Y-64438600D03*
X60621700Y-62152600D03*
X61269400Y-60082500D03*
X58450000Y-70985000D03*
X59161200Y-69975800D03*
X59770800Y-68591500D03*
X16921000Y-65988000D03*
X35647500Y-75142000D03*
X31012000Y-69046000D03*
X37846000Y-25908000D03*
X39116000Y-25908000D03*
X40386000Y-25908000D03*
X41656000Y-25908000D03*
X35500000Y-58250000D03*
X40500000Y-67000000D03*
X41656000Y-55626000D03*
X43878500Y-55816500D03*
X37465000Y-60833000D03*
X37235000Y-41404000D03*
X36195000Y-40251000D03*
X36195000Y-38981000D03*
X36195000Y-37711000D03*
X38227000Y-37711000D03*
X38227000Y-38981000D03*
X38227000Y-40251000D03*
X37235000Y-46230000D03*
X38892000Y-64000000D03*
X37114000Y-67048000D03*
M02*
