M48
;DRILL file {KiCad 4.0.2-4+6225~38~ubuntu14.04.1-stable} date Mi 04 Mai 2016 14:00:25 CEST
;FORMAT={-:-/ absolute / metric / decimal}
FMAT,2
METRIC,TZ
T1C0.800
T2C1.000
T3C1.016
T4C3.000
%
G90
G05
M71
T1
X52.64Y-40.72
X52.64Y-48.34
X55.18Y-40.72
X55.18Y-48.34
X57.72Y-40.72
X57.72Y-48.34
X60.26Y-40.72
X60.26Y-48.34
X62.8Y-40.72
X62.8Y-48.34
X65.34Y-40.72
X65.34Y-48.34
X67.88Y-40.72
X67.88Y-48.34
X70.42Y-40.72
X70.42Y-48.34
X72.96Y-40.72
X72.96Y-48.34
X75.5Y-40.72
X75.5Y-48.34
X78.04Y-40.72
X78.04Y-48.34
X80.58Y-40.72
X80.58Y-48.34
X83.12Y-40.72
X83.12Y-48.34
X85.66Y-40.72
X85.66Y-48.34
T2
X22.Y-25.
X22.Y-54.5
X22.Y-98.5
X30.5Y-110.5
X32.5Y-15.5
X39.575Y-53.3
X42.55Y-36.35
X43.Y-26.5
X47.325Y-53.375
X49.5Y-109.5
X51.Y-88.
X55.925Y-59.2
X57.225Y-35.1
X61.25Y-85.
X65.725Y-35.4
X66.25Y-109.25
X67.25Y-74.5
X67.25Y-80.5
X67.875Y-57.7
X68.Y-20.5
X70.993Y-68.58
X71.55Y-19.85
X71.75Y-31.1
X78.25Y-109.5
X80.1Y-64.925
X83.75Y-107.75
X84.Y-79.5
X86.15Y-60.1
X92.5Y-41.9
X93.5Y-79.5
X93.625Y-36.725
X94.25Y-105.75
X95.85Y-53.15
X96.975Y-33.575
X99.822Y-66.421
X102.325Y-48.525
X102.743Y-68.707
X104.Y-21.75
X106.045Y-81.28
X106.7Y-31.85
X108.077Y-62.865
X108.204Y-68.326
X114.173Y-39.878
X115.Y-57.575
X115.443Y-76.835
X116.078Y-33.02
X116.459Y-36.703
X123.952Y-94.488
X124.587Y-74.041
X125.25Y-109.25
X125.476Y-32.004
X127.25Y-64.35
X128.524Y-32.766
X129.54Y-56.388
X129.975Y-44.65
X134.239Y-82.804
X144.272Y-64.643
X148.Y-90.75
X157.5Y-53.5
X159.25Y-89.5
T3
X32.7Y-24.15
X32.707Y-99.412
X32.72Y-68.938
X35.24Y-24.15
X35.247Y-99.412
X35.26Y-68.938
X37.78Y-24.15
X37.787Y-99.412
X37.8Y-68.938
X40.32Y-24.15
X40.327Y-99.412
X40.34Y-68.938
X42.867Y-99.412
X42.88Y-68.938
X45.407Y-99.412
X45.42Y-68.938
X47.947Y-99.412
X47.96Y-68.938
X50.487Y-99.412
X50.5Y-68.938
X53.027Y-99.412
X53.04Y-68.938
X55.567Y-99.412
X55.58Y-68.938
X68.73Y-88.66
X68.73Y-91.2
X71.27Y-88.66
X71.27Y-91.2
X73.81Y-88.66
X73.81Y-91.2
X75.9Y-24.12
X76.35Y-88.66
X76.35Y-91.2
X78.44Y-24.12
X78.89Y-88.66
X78.89Y-91.2
X81.43Y-88.66
X81.43Y-91.2
X82.55Y-24.13
X83.97Y-88.66
X83.97Y-91.2
X85.09Y-24.13
X86.51Y-88.66
X86.51Y-91.2
X87.63Y-24.13
X89.05Y-88.66
X89.05Y-91.2
X91.59Y-88.66
X91.59Y-91.2
X91.948Y-24.13
X94.488Y-24.13
X97.028Y-24.13
X99.54Y-99.8
X100.925Y-34.785
X100.925Y-37.325
X102.08Y-99.8
X103.465Y-34.785
X103.465Y-37.325
X104.62Y-99.8
X106.005Y-34.785
X106.005Y-37.325
X107.16Y-99.8
X109.7Y-99.8
X112.24Y-99.8
X113.Y-24.15
X114.78Y-99.8
X115.54Y-24.15
X117.32Y-99.8
X118.08Y-24.15
X119.86Y-99.8
X120.62Y-24.15
X122.4Y-99.8
X123.16Y-24.15
X125.7Y-24.15
X127.74Y-99.9
X130.28Y-99.9
X131.05Y-24.3
X132.82Y-99.9
X133.59Y-24.3
X135.36Y-99.9
X136.13Y-24.3
X137.9Y-99.9
X138.67Y-24.3
X140.44Y-99.9
X141.21Y-24.3
X142.98Y-99.9
X143.75Y-24.3
X145.52Y-99.9
X148.06Y-99.9
X149.55Y-63.75
X149.55Y-66.29
X149.55Y-68.83
X149.55Y-71.37
X149.55Y-73.91
X149.55Y-76.45
X149.55Y-78.99
X149.55Y-81.53
X149.55Y-84.07
X149.55Y-86.61
X149.85Y-30.95
X149.85Y-33.49
X149.85Y-36.03
X149.85Y-38.57
X149.85Y-41.11
X149.85Y-43.65
X149.85Y-46.19
X149.85Y-48.73
X149.85Y-51.27
X149.85Y-53.81
X150.6Y-99.9
T4
X25.5Y-18.5
X25.5Y-106.5
X156.5Y-18.5
X156.5Y-106.5
T0
M30
