G04 #@! TF.GenerationSoftware,KiCad,Pcbnew,5.1.4+dfsg1-1*
G04 #@! TF.CreationDate,2020-06-13T00:48:20+02:00*
G04 #@! TF.ProjectId,CAN_Battery_Switch_v2,43414e5f-4261-4747-9465-72795f537769,rev?*
G04 #@! TF.SameCoordinates,PX3dfd240PY1406f40*
G04 #@! TF.FileFunction,Copper,L1,Top*
G04 #@! TF.FilePolarity,Positive*
%FSLAX46Y46*%
G04 Gerber Fmt 4.6, Leading zero omitted, Abs format (unit mm)*
G04 Created by KiCad (PCBNEW 5.1.4+dfsg1-1) date 2020-06-13 00:48:20*
%MOMM*%
%LPD*%
G04 APERTURE LIST*
%ADD10C,1.300000*%
%ADD11C,4.000000*%
%ADD12C,2.000000*%
%ADD13C,6.000000*%
%ADD14O,3.014980X2.000000*%
%ADD15R,0.400000X1.500000*%
%ADD16R,1.050000X1.050000*%
%ADD17C,1.050000*%
%ADD18R,8.750000X6.000000*%
%ADD19R,9.000000X6.000000*%
%ADD20R,0.900000X0.900000*%
%ADD21C,2.532420*%
%ADD22C,0.150000*%
%ADD23R,1.700000X1.700000*%
%ADD24O,1.700000X1.700000*%
%ADD25C,0.600000*%
%ADD26C,0.889000*%
%ADD27C,1.000000*%
%ADD28C,0.400000*%
%ADD29C,0.762000*%
%ADD30C,0.508000*%
%ADD31C,0.310000*%
%ADD32C,0.254000*%
G04 APERTURE END LIST*
D10*
X70319000Y-89496000D03*
X76409000Y-89496000D03*
X72349000Y-89496000D03*
X74379000Y-89496000D03*
X71339000Y-87716000D03*
X73369000Y-87716000D03*
X75399000Y-87716000D03*
X77429000Y-87716000D03*
D11*
X51769000Y-92036000D03*
D12*
X81994000Y-88606000D03*
D10*
X61679000Y-87716000D03*
X59649000Y-87716000D03*
X57619000Y-87716000D03*
X55589000Y-87716000D03*
X58629000Y-89496000D03*
X56599000Y-89496000D03*
X60659000Y-89496000D03*
X54569000Y-89496000D03*
D11*
X80219000Y-92036000D03*
D12*
X49994000Y-88606000D03*
D13*
X5000000Y-93000000D03*
X20000000Y-5000000D03*
X70000000Y-5000000D03*
X87000000Y-93000000D03*
D12*
X9270000Y-4190000D03*
X6730000Y-4190000D03*
X4190000Y-4190000D03*
X4190000Y-6730000D03*
X4190000Y-9270000D03*
X9270000Y-11810000D03*
X6730000Y-11810000D03*
X4190000Y-11810000D03*
X11810000Y-11810000D03*
X11810000Y-4190000D03*
X11810000Y-6730000D03*
X9270000Y-6730000D03*
X6730000Y-6730000D03*
X11810000Y-9270000D03*
X9270000Y-9270000D03*
X6730000Y-9270000D03*
X85770000Y-2440000D03*
X83230000Y-2440000D03*
X80690000Y-2440000D03*
X80690000Y-4980000D03*
X80690000Y-7520000D03*
X85770000Y-10060000D03*
X83230000Y-10060000D03*
X80690000Y-10060000D03*
X88310000Y-10060000D03*
X88310000Y-2440000D03*
X88310000Y-4980000D03*
X85770000Y-4980000D03*
X83230000Y-4980000D03*
X88310000Y-7520000D03*
X85770000Y-7520000D03*
X83230000Y-7520000D03*
X6230000Y-40310000D03*
X8770000Y-40310000D03*
X11310000Y-40310000D03*
X11310000Y-37770000D03*
X11310000Y-35230000D03*
X6230000Y-32690000D03*
X8770000Y-32690000D03*
X11310000Y-32690000D03*
X3690000Y-32690000D03*
X3690000Y-40310000D03*
X3690000Y-37770000D03*
X6230000Y-37770000D03*
X8770000Y-37770000D03*
X3690000Y-35230000D03*
X6230000Y-35230000D03*
X8770000Y-35230000D03*
X82730000Y-40310000D03*
X85270000Y-40310000D03*
X87810000Y-40310000D03*
X87810000Y-37770000D03*
X87810000Y-35230000D03*
X82730000Y-32690000D03*
X85270000Y-32690000D03*
X87810000Y-32690000D03*
X80190000Y-32690000D03*
X80190000Y-40310000D03*
X80190000Y-37770000D03*
X82730000Y-37770000D03*
X85270000Y-37770000D03*
X80190000Y-35230000D03*
X82730000Y-35230000D03*
X85270000Y-35230000D03*
D14*
X88594000Y-68286000D03*
X88594000Y-64786000D03*
X81594000Y-64786000D03*
X81594000Y-68286000D03*
D15*
X85622000Y-19405000D03*
X85622000Y-18605000D03*
D16*
X76594000Y-68261000D03*
D17*
X75324000Y-68261000D03*
X74054000Y-68261000D03*
X72784000Y-68261000D03*
X71514000Y-68261000D03*
X75324000Y-66991000D03*
X74054000Y-66991000D03*
X72784000Y-66991000D03*
X71514000Y-66991000D03*
X76594000Y-66991000D03*
D18*
X84301200Y-26913200D03*
D19*
X84301200Y-15313200D03*
D20*
X142264000Y3032000D03*
X142264000Y4932000D03*
X148750000Y3050000D03*
X148750000Y4950000D03*
X152250000Y3050000D03*
X152250000Y4950000D03*
X150500000Y3050000D03*
X150500000Y4950000D03*
X144000000Y3050000D03*
X144000000Y4950000D03*
X137438000Y3032000D03*
X137438000Y4932000D03*
X146500000Y3050000D03*
X146500000Y4950000D03*
X139978000Y3032000D03*
X139978000Y4932000D03*
D21*
X17652000Y-32340000D03*
D22*
G36*
X15502000Y-34140000D02*
G01*
X15502000Y-30540000D01*
X19802000Y-31540000D01*
X19802000Y-33140000D01*
X15502000Y-34140000D01*
X15502000Y-34140000D01*
G37*
D21*
X24052000Y-32340000D03*
D22*
G36*
X26202000Y-30540000D02*
G01*
X26202000Y-34140000D01*
X21902000Y-33140000D01*
X21902000Y-31540000D01*
X26202000Y-30540000D01*
X26202000Y-30540000D01*
G37*
D23*
X41750000Y-55150000D03*
D24*
X44290000Y-55150000D03*
X46830000Y-55150000D03*
D13*
X87000000Y-47000000D03*
X5000000Y-47000000D03*
D25*
X84288500Y-19449500D03*
D26*
X66750000Y-47500000D03*
D25*
X57594000Y-60836000D03*
X55394000Y-52836000D03*
D26*
X56400000Y-71900000D03*
X24500000Y-97000000D03*
X29750000Y-97000000D03*
X29500000Y-87250000D03*
X24500000Y-87250000D03*
X5750000Y-63250000D03*
X1250000Y-63750000D03*
X5750000Y-75500000D03*
X1000000Y-75500000D03*
X42000000Y-75500000D03*
X42000000Y-77250000D03*
X38500000Y-75250000D03*
X38750000Y-76750000D03*
X38750000Y-78750000D03*
X36500000Y-80750000D03*
X35250000Y-80750000D03*
X34000000Y-80750000D03*
X32750000Y-80750000D03*
X32250000Y-82000000D03*
X27000000Y-82000000D03*
X27250000Y-81000000D03*
X28500000Y-79500000D03*
X33250000Y-79250000D03*
X35750000Y-77750000D03*
X49250000Y-36250000D03*
X46750000Y-39750000D03*
X50000000Y-41500000D03*
X46750000Y-42250000D03*
X51500000Y-38250000D03*
X51500000Y-40500000D03*
X52250000Y-39500000D03*
X53500000Y-39500000D03*
X54750000Y-39500000D03*
X56000000Y-39500000D03*
X57250000Y-39500000D03*
X52500000Y-26500000D03*
X54500000Y-28500000D03*
X52000000Y-31000000D03*
X53250000Y-31000000D03*
X54500000Y-31000000D03*
X55750000Y-31000000D03*
X57000000Y-31000000D03*
X45750000Y-31500000D03*
X47000000Y-30250000D03*
X46000000Y-29250000D03*
X46250000Y-27500000D03*
X47750000Y-27500000D03*
X49000000Y-27500000D03*
X50000000Y-26000000D03*
X49000000Y-24500000D03*
X47500000Y-24500000D03*
X46250000Y-24500000D03*
X46750000Y-22750000D03*
X47750000Y-22250000D03*
X47750000Y-21000000D03*
X47750000Y-19750000D03*
X47750000Y-18500000D03*
X31500000Y-20500000D03*
X28500000Y-25000000D03*
X15000000Y-22000000D03*
X50000000Y-10500000D03*
X43400000Y-7000000D03*
X75000000Y-80250000D03*
X40000000Y-39000000D03*
X36000000Y-36250000D03*
X21750000Y-38450000D03*
X24750000Y-46750000D03*
X58000000Y-62250000D03*
X56000000Y-51250000D03*
X59950000Y-40500000D03*
X67550000Y-41900000D03*
X18250000Y-74500000D03*
D25*
X84225000Y-22815000D03*
D26*
X59750000Y-75250000D03*
X68250000Y-68500000D03*
X52000000Y-70000000D03*
X32000000Y-57250000D03*
X37250000Y-46750000D03*
X36500000Y-48000000D03*
X27500000Y-50750000D03*
X31250000Y-50750000D03*
X28500000Y-46000000D03*
X29529000Y-42160000D03*
X27500000Y-37000000D03*
X24500000Y-41488000D03*
X11600000Y-45000000D03*
X28600000Y-93800000D03*
X26600000Y-93800000D03*
X24800000Y-93800000D03*
X24600000Y-90400000D03*
X26600000Y-90400000D03*
X28600000Y-90400000D03*
X29000000Y-91800000D03*
X37200000Y-87000000D03*
X39200000Y-87000000D03*
X16750000Y-76500000D03*
X5500000Y-70000000D03*
X5000000Y-71500000D03*
X3000000Y-71500000D03*
X1000000Y-71500000D03*
X1000000Y-68500000D03*
X3000000Y-68500000D03*
X4500000Y-68500000D03*
X5500000Y-56000000D03*
X5000000Y-57500000D03*
X3000000Y-57500000D03*
X1000000Y-57500000D03*
X1000000Y-54000000D03*
X3000000Y-54000000D03*
X5000000Y-54000000D03*
X85794000Y-57536000D03*
X74494000Y-49436000D03*
X73294000Y-60436000D03*
X74094000Y-64736000D03*
X73194000Y-71736000D03*
D25*
X45550500Y-34801750D03*
X46375500Y-34801750D03*
X46375500Y-32664250D03*
X45550500Y-32664250D03*
D26*
X46663000Y-36533000D03*
D27*
X45863000Y-33733000D03*
D26*
X70094000Y-75236000D03*
X62494000Y-61936000D03*
X57694000Y-50036000D03*
X74494000Y-53286000D03*
X19000000Y-82000000D03*
X17500000Y-81250000D03*
X19750000Y-80750000D03*
X16750000Y-79500000D03*
X16750000Y-78000000D03*
X19250000Y-74500000D03*
X61494000Y-66411000D03*
X64974000Y-78166000D03*
D25*
X64174000Y-66416000D03*
X54414000Y-60106000D03*
X59194000Y-54836000D03*
X54394000Y-54236000D03*
X57994000Y-53836000D03*
X59394000Y-57036000D03*
X76669000Y-56336000D03*
D26*
X62900000Y-18800000D03*
X56750000Y-10000000D03*
X53500000Y-21000000D03*
X60000000Y-32000000D03*
X73500000Y-40750000D03*
X71150000Y-19750000D03*
X80288000Y-21113200D03*
X72150000Y-34100000D03*
X69200000Y-35000000D03*
X69900000Y-26450000D03*
X71000000Y-32600000D03*
X60250000Y-24400000D03*
X58400000Y-20250000D03*
D25*
X66594000Y-61061000D03*
X66294000Y-57086000D03*
X47975000Y-61475000D03*
X47925000Y-65100000D03*
D28*
X84301200Y-19436800D02*
X84301200Y-15313200D01*
X84288500Y-19449500D02*
X84301200Y-19436800D01*
D29*
X24600000Y-90400000D02*
X24600000Y-87350000D01*
X29750000Y-87500000D02*
X29750000Y-97000000D01*
X29500000Y-87250000D02*
X29750000Y-87500000D01*
X24600000Y-87350000D02*
X24500000Y-87250000D01*
X1000000Y-71500000D02*
X1000000Y-75500000D01*
X3000000Y-63750000D02*
X1250000Y-63750000D01*
X5750000Y-66500000D02*
X3000000Y-63750000D01*
X5750000Y-75500000D02*
X5750000Y-66500000D01*
X42000000Y-75500000D02*
X42000000Y-77250000D01*
X38500000Y-75250000D02*
X38750000Y-75500000D01*
X38750000Y-75500000D02*
X38750000Y-76750000D01*
X38750000Y-78750000D02*
X36750000Y-80750000D01*
X36750000Y-80750000D02*
X36500000Y-80750000D01*
X35250000Y-80750000D02*
X34000000Y-80750000D01*
X32750000Y-80750000D02*
X32250000Y-81250000D01*
X32250000Y-81250000D02*
X32250000Y-82000000D01*
X27000000Y-82000000D02*
X27250000Y-81750000D01*
X27250000Y-81750000D02*
X27250000Y-81000000D01*
X28500000Y-79500000D02*
X28750000Y-79250000D01*
X28750000Y-79250000D02*
X33250000Y-79250000D01*
X48250000Y-39750000D02*
X46750000Y-39750000D01*
X50000000Y-41500000D02*
X48250000Y-39750000D01*
X47500000Y-42250000D02*
X46750000Y-42250000D01*
X51500000Y-38250000D02*
X47500000Y-42250000D01*
X51500000Y-40250000D02*
X51500000Y-40500000D01*
X52250000Y-39500000D02*
X51500000Y-40250000D01*
X54750000Y-39500000D02*
X53500000Y-39500000D01*
X57250000Y-39500000D02*
X56000000Y-39500000D01*
X52000000Y-31000000D02*
X54500000Y-28500000D01*
X54500000Y-31000000D02*
X53250000Y-31000000D01*
X57000000Y-31000000D02*
X55750000Y-31000000D01*
X46000000Y-29250000D02*
X47000000Y-30250000D01*
X47750000Y-27500000D02*
X46250000Y-27500000D01*
X49000000Y-27000000D02*
X49000000Y-27500000D01*
X50000000Y-26000000D02*
X49000000Y-27000000D01*
X47500000Y-24500000D02*
X49000000Y-24500000D01*
X46250000Y-23250000D02*
X46250000Y-24500000D01*
X46750000Y-22750000D02*
X46250000Y-23250000D01*
X47750000Y-21000000D02*
X47750000Y-22250000D01*
X47750000Y-18500000D02*
X47750000Y-19750000D01*
D30*
X58000000Y-62250000D02*
X57500000Y-62750000D01*
X57500000Y-62750000D02*
X57500000Y-64000000D01*
D28*
X84301200Y-22891200D02*
X84301200Y-26913200D01*
X84225000Y-22815000D02*
X84301200Y-22891200D01*
X29529000Y-42160000D02*
X29500000Y-42189000D01*
X29500000Y-42189000D02*
X29500000Y-42250000D01*
D31*
X24500000Y-41488000D02*
X24500000Y-41500000D01*
D29*
X24800000Y-93800000D02*
X26600000Y-93800000D01*
X24600000Y-90400000D02*
X26600000Y-90400000D01*
X28600000Y-90400000D02*
X29000000Y-90800000D01*
X29000000Y-90800000D02*
X29000000Y-91800000D01*
X1000000Y-71500000D02*
X3000000Y-71500000D01*
X1000000Y-68500000D02*
X3000000Y-68500000D01*
X5500000Y-57000000D02*
X5500000Y-56000000D01*
X5000000Y-57500000D02*
X5500000Y-57000000D01*
X1000000Y-57500000D02*
X3000000Y-57500000D01*
X5000000Y-54000000D02*
X3000000Y-54000000D01*
D30*
X45563000Y-34833000D02*
X45563000Y-34814250D01*
X45563000Y-34814250D02*
X45550500Y-34801750D01*
X46375500Y-34801750D02*
X46363000Y-34789250D01*
X46363000Y-34789250D02*
X46363000Y-34733000D01*
X46375500Y-32664250D02*
X46363000Y-32651750D01*
X46363000Y-32651750D02*
X46363000Y-32633000D01*
X45550500Y-32664250D02*
X45563000Y-32651750D01*
X45563000Y-32651750D02*
X45563000Y-32633000D01*
X46663000Y-36533000D02*
X46663000Y-34533000D01*
X46663000Y-34533000D02*
X45863000Y-33733000D01*
D28*
X71150000Y-19750000D02*
X78924800Y-19750000D01*
X78924800Y-19750000D02*
X80288000Y-21113200D01*
D29*
X69200000Y-35000000D02*
X69250000Y-35000000D01*
D32*
X66594000Y-61061000D02*
X66581500Y-61048500D01*
X66581500Y-61048500D02*
X66594000Y-61036000D01*
X66594000Y-61036000D02*
X66594000Y-61061000D01*
X66594000Y-61061000D02*
X66294000Y-60761000D01*
X66294000Y-60761000D02*
X66294000Y-57086000D01*
X47975000Y-61475000D02*
X47925000Y-61525000D01*
X47925000Y-61525000D02*
X47925000Y-65100000D01*
G36*
X19888939Y-1673000D02*
G01*
X19672319Y-1673000D01*
X19029550Y-1800855D01*
X18424075Y-2051651D01*
X17879161Y-2415750D01*
X17415750Y-2879161D01*
X17051651Y-3424075D01*
X16800855Y-4029550D01*
X16673000Y-4672319D01*
X16673000Y-5327681D01*
X16800855Y-5970450D01*
X17051651Y-6575925D01*
X17415750Y-7120839D01*
X17879161Y-7584250D01*
X18424075Y-7948349D01*
X19029550Y-8199145D01*
X19672319Y-8327000D01*
X20327681Y-8327000D01*
X20970450Y-8199145D01*
X21575925Y-7948349D01*
X22120839Y-7584250D01*
X22584250Y-7120839D01*
X22939943Y-6588506D01*
X27771698Y-14373000D01*
X377000Y-14373000D01*
X377000Y-377000D01*
X19084525Y-377000D01*
X19888939Y-1673000D01*
X19888939Y-1673000D01*
G37*
X19888939Y-1673000D02*
X19672319Y-1673000D01*
X19029550Y-1800855D01*
X18424075Y-2051651D01*
X17879161Y-2415750D01*
X17415750Y-2879161D01*
X17051651Y-3424075D01*
X16800855Y-4029550D01*
X16673000Y-4672319D01*
X16673000Y-5327681D01*
X16800855Y-5970450D01*
X17051651Y-6575925D01*
X17415750Y-7120839D01*
X17879161Y-7584250D01*
X18424075Y-7948349D01*
X19029550Y-8199145D01*
X19672319Y-8327000D01*
X20327681Y-8327000D01*
X20970450Y-8199145D01*
X21575925Y-7948349D01*
X22120839Y-7584250D01*
X22584250Y-7120839D01*
X22939943Y-6588506D01*
X27771698Y-14373000D01*
X377000Y-14373000D01*
X377000Y-377000D01*
X19084525Y-377000D01*
X19888939Y-1673000D01*
G36*
X38623000Y-4000000D02*
G01*
X38625440Y-4024776D01*
X38632667Y-4048601D01*
X38644403Y-4070557D01*
X38660197Y-4089803D01*
X38679443Y-4105597D01*
X38701399Y-4117333D01*
X38725224Y-4124560D01*
X38750000Y-4127000D01*
X50697394Y-4127000D01*
X51873000Y-5302606D01*
X51873000Y-16197394D01*
X49410197Y-18660197D01*
X49394403Y-18679443D01*
X49382667Y-18701399D01*
X49375440Y-18725224D01*
X49373000Y-18750000D01*
X49373000Y-22250000D01*
X49375440Y-22274776D01*
X49382667Y-22298601D01*
X49394403Y-22320557D01*
X49410197Y-22339803D01*
X58123000Y-31052606D01*
X58123000Y-36500000D01*
X58125440Y-36524776D01*
X58132667Y-36548601D01*
X58144403Y-36570557D01*
X58160197Y-36589803D01*
X58179443Y-36605597D01*
X58201399Y-36617333D01*
X58225224Y-36624560D01*
X58250000Y-36627000D01*
X64697394Y-36627000D01*
X68623000Y-40552606D01*
X68623000Y-43250000D01*
X68625440Y-43274776D01*
X68632667Y-43298601D01*
X68644403Y-43320557D01*
X68660197Y-43339803D01*
X70410197Y-45089803D01*
X70429443Y-45105597D01*
X70451399Y-45117333D01*
X70475224Y-45124560D01*
X70500000Y-45127000D01*
X72000000Y-45127000D01*
X72024776Y-45124560D01*
X72048601Y-45117333D01*
X72070557Y-45105597D01*
X72089803Y-45089803D01*
X72802606Y-44377000D01*
X77200000Y-44377000D01*
X77224776Y-44374560D01*
X77248601Y-44367333D01*
X77270557Y-44355597D01*
X77289803Y-44339803D01*
X77305597Y-44320557D01*
X77317333Y-44298601D01*
X77324560Y-44274776D01*
X77326999Y-44250416D01*
X77376584Y-29127000D01*
X79000000Y-29127000D01*
X79024776Y-29124560D01*
X79048601Y-29117333D01*
X79070557Y-29105597D01*
X79089803Y-29089803D01*
X79105597Y-29070557D01*
X79117333Y-29048601D01*
X79124560Y-29024776D01*
X79127000Y-29000000D01*
X79127000Y-24127000D01*
X91623000Y-24127000D01*
X91623001Y-97623000D01*
X49127000Y-97623000D01*
X49127000Y-91806811D01*
X49442000Y-91806811D01*
X49442000Y-92265189D01*
X49531426Y-92714761D01*
X49706840Y-93138248D01*
X49961501Y-93519376D01*
X50285624Y-93843499D01*
X50666752Y-94098160D01*
X51090239Y-94273574D01*
X51539811Y-94363000D01*
X51998189Y-94363000D01*
X52447761Y-94273574D01*
X52871248Y-94098160D01*
X53252376Y-93843499D01*
X53576499Y-93519376D01*
X53831160Y-93138248D01*
X54006574Y-92714761D01*
X54096000Y-92265189D01*
X54096000Y-91806811D01*
X77892000Y-91806811D01*
X77892000Y-92265189D01*
X77981426Y-92714761D01*
X78156840Y-93138248D01*
X78411501Y-93519376D01*
X78735624Y-93843499D01*
X79116752Y-94098160D01*
X79540239Y-94273574D01*
X79989811Y-94363000D01*
X80448189Y-94363000D01*
X80897761Y-94273574D01*
X81321248Y-94098160D01*
X81702376Y-93843499D01*
X82026499Y-93519376D01*
X82281160Y-93138248D01*
X82456574Y-92714761D01*
X82465016Y-92672319D01*
X83673000Y-92672319D01*
X83673000Y-93327681D01*
X83800855Y-93970450D01*
X84051651Y-94575925D01*
X84415750Y-95120839D01*
X84879161Y-95584250D01*
X85424075Y-95948349D01*
X86029550Y-96199145D01*
X86672319Y-96327000D01*
X87327681Y-96327000D01*
X87970450Y-96199145D01*
X88575925Y-95948349D01*
X89120839Y-95584250D01*
X89584250Y-95120839D01*
X89948349Y-94575925D01*
X90199145Y-93970450D01*
X90327000Y-93327681D01*
X90327000Y-92672319D01*
X90199145Y-92029550D01*
X89948349Y-91424075D01*
X89584250Y-90879161D01*
X89120839Y-90415750D01*
X88575925Y-90051651D01*
X87970450Y-89800855D01*
X87327681Y-89673000D01*
X86672319Y-89673000D01*
X86029550Y-89800855D01*
X85424075Y-90051651D01*
X84879161Y-90415750D01*
X84415750Y-90879161D01*
X84051651Y-91424075D01*
X83800855Y-92029550D01*
X83673000Y-92672319D01*
X82465016Y-92672319D01*
X82546000Y-92265189D01*
X82546000Y-91806811D01*
X82456574Y-91357239D01*
X82281160Y-90933752D01*
X82026499Y-90552624D01*
X81702376Y-90228501D01*
X81321248Y-89973840D01*
X80897761Y-89798426D01*
X80448189Y-89709000D01*
X79989811Y-89709000D01*
X79540239Y-89798426D01*
X79116752Y-89973840D01*
X78735624Y-90228501D01*
X78411501Y-90552624D01*
X78156840Y-90933752D01*
X77981426Y-91357239D01*
X77892000Y-91806811D01*
X54096000Y-91806811D01*
X54006574Y-91357239D01*
X53831160Y-90933752D01*
X53576499Y-90552624D01*
X53252376Y-90228501D01*
X52871248Y-89973840D01*
X52447761Y-89798426D01*
X51998189Y-89709000D01*
X51539811Y-89709000D01*
X51090239Y-89798426D01*
X50666752Y-89973840D01*
X50285624Y-90228501D01*
X49961501Y-90552624D01*
X49706840Y-90933752D01*
X49531426Y-91357239D01*
X49442000Y-91806811D01*
X49127000Y-91806811D01*
X49127000Y-91500000D01*
X49124560Y-91475224D01*
X49117333Y-91451399D01*
X49105597Y-91429443D01*
X49089803Y-91410197D01*
X47377000Y-89697394D01*
X47377000Y-88475302D01*
X48667000Y-88475302D01*
X48667000Y-88736698D01*
X48717996Y-88993072D01*
X48818028Y-89234570D01*
X48963252Y-89451913D01*
X49148087Y-89636748D01*
X49365430Y-89781972D01*
X49606928Y-89882004D01*
X49863302Y-89933000D01*
X50124698Y-89933000D01*
X50381072Y-89882004D01*
X50622570Y-89781972D01*
X50839913Y-89636748D01*
X51024748Y-89451913D01*
X51059586Y-89399774D01*
X53592000Y-89399774D01*
X53592000Y-89592226D01*
X53629546Y-89780980D01*
X53703194Y-89958783D01*
X53810115Y-90118801D01*
X53946199Y-90254885D01*
X54106217Y-90361806D01*
X54284020Y-90435454D01*
X54472774Y-90473000D01*
X54665226Y-90473000D01*
X54853980Y-90435454D01*
X55031783Y-90361806D01*
X55191801Y-90254885D01*
X55327885Y-90118801D01*
X55434806Y-89958783D01*
X55508454Y-89780980D01*
X55546000Y-89592226D01*
X55546000Y-89399774D01*
X57652000Y-89399774D01*
X57652000Y-89592226D01*
X57689546Y-89780980D01*
X57763194Y-89958783D01*
X57870115Y-90118801D01*
X58006199Y-90254885D01*
X58166217Y-90361806D01*
X58344020Y-90435454D01*
X58532774Y-90473000D01*
X58725226Y-90473000D01*
X58913980Y-90435454D01*
X59091783Y-90361806D01*
X59251801Y-90254885D01*
X59387885Y-90118801D01*
X59494806Y-89958783D01*
X59568454Y-89780980D01*
X59606000Y-89592226D01*
X59606000Y-89399774D01*
X69342000Y-89399774D01*
X69342000Y-89592226D01*
X69379546Y-89780980D01*
X69453194Y-89958783D01*
X69560115Y-90118801D01*
X69696199Y-90254885D01*
X69856217Y-90361806D01*
X70034020Y-90435454D01*
X70222774Y-90473000D01*
X70415226Y-90473000D01*
X70603980Y-90435454D01*
X70781783Y-90361806D01*
X70941801Y-90254885D01*
X71077885Y-90118801D01*
X71184806Y-89958783D01*
X71258454Y-89780980D01*
X71296000Y-89592226D01*
X71296000Y-89399774D01*
X73402000Y-89399774D01*
X73402000Y-89592226D01*
X73439546Y-89780980D01*
X73513194Y-89958783D01*
X73620115Y-90118801D01*
X73756199Y-90254885D01*
X73916217Y-90361806D01*
X74094020Y-90435454D01*
X74282774Y-90473000D01*
X74475226Y-90473000D01*
X74663980Y-90435454D01*
X74841783Y-90361806D01*
X75001801Y-90254885D01*
X75137885Y-90118801D01*
X75244806Y-89958783D01*
X75318454Y-89780980D01*
X75356000Y-89592226D01*
X75356000Y-89399774D01*
X75318454Y-89211020D01*
X75244806Y-89033217D01*
X75137885Y-88873199D01*
X75001801Y-88737115D01*
X74841783Y-88630194D01*
X74663980Y-88556546D01*
X74475226Y-88519000D01*
X74282774Y-88519000D01*
X74094020Y-88556546D01*
X73916217Y-88630194D01*
X73756199Y-88737115D01*
X73620115Y-88873199D01*
X73513194Y-89033217D01*
X73439546Y-89211020D01*
X73402000Y-89399774D01*
X71296000Y-89399774D01*
X71258454Y-89211020D01*
X71184806Y-89033217D01*
X71077885Y-88873199D01*
X70941801Y-88737115D01*
X70781783Y-88630194D01*
X70603980Y-88556546D01*
X70415226Y-88519000D01*
X70222774Y-88519000D01*
X70034020Y-88556546D01*
X69856217Y-88630194D01*
X69696199Y-88737115D01*
X69560115Y-88873199D01*
X69453194Y-89033217D01*
X69379546Y-89211020D01*
X69342000Y-89399774D01*
X59606000Y-89399774D01*
X59568454Y-89211020D01*
X59494806Y-89033217D01*
X59387885Y-88873199D01*
X59251801Y-88737115D01*
X59091783Y-88630194D01*
X58913980Y-88556546D01*
X58725226Y-88519000D01*
X58532774Y-88519000D01*
X58344020Y-88556546D01*
X58166217Y-88630194D01*
X58006199Y-88737115D01*
X57870115Y-88873199D01*
X57763194Y-89033217D01*
X57689546Y-89211020D01*
X57652000Y-89399774D01*
X55546000Y-89399774D01*
X55508454Y-89211020D01*
X55434806Y-89033217D01*
X55327885Y-88873199D01*
X55191801Y-88737115D01*
X55031783Y-88630194D01*
X54853980Y-88556546D01*
X54665226Y-88519000D01*
X54472774Y-88519000D01*
X54284020Y-88556546D01*
X54106217Y-88630194D01*
X53946199Y-88737115D01*
X53810115Y-88873199D01*
X53703194Y-89033217D01*
X53629546Y-89211020D01*
X53592000Y-89399774D01*
X51059586Y-89399774D01*
X51169972Y-89234570D01*
X51270004Y-88993072D01*
X51321000Y-88736698D01*
X51321000Y-88475302D01*
X51270004Y-88218928D01*
X51169972Y-87977430D01*
X51024748Y-87760087D01*
X50884435Y-87619774D01*
X54612000Y-87619774D01*
X54612000Y-87812226D01*
X54649546Y-88000980D01*
X54723194Y-88178783D01*
X54830115Y-88338801D01*
X54966199Y-88474885D01*
X55126217Y-88581806D01*
X55304020Y-88655454D01*
X55492774Y-88693000D01*
X55685226Y-88693000D01*
X55873980Y-88655454D01*
X56051783Y-88581806D01*
X56211801Y-88474885D01*
X56347885Y-88338801D01*
X56454806Y-88178783D01*
X56528454Y-88000980D01*
X56566000Y-87812226D01*
X56566000Y-87619774D01*
X56642000Y-87619774D01*
X56642000Y-87812226D01*
X56679546Y-88000980D01*
X56753194Y-88178783D01*
X56860115Y-88338801D01*
X56996199Y-88474885D01*
X57156217Y-88581806D01*
X57334020Y-88655454D01*
X57522774Y-88693000D01*
X57715226Y-88693000D01*
X57903980Y-88655454D01*
X58081783Y-88581806D01*
X58241801Y-88474885D01*
X58377885Y-88338801D01*
X58484806Y-88178783D01*
X58558454Y-88000980D01*
X58596000Y-87812226D01*
X58596000Y-87619774D01*
X58672000Y-87619774D01*
X58672000Y-87812226D01*
X58709546Y-88000980D01*
X58783194Y-88178783D01*
X58890115Y-88338801D01*
X59026199Y-88474885D01*
X59186217Y-88581806D01*
X59364020Y-88655454D01*
X59552774Y-88693000D01*
X59745226Y-88693000D01*
X59933980Y-88655454D01*
X60111783Y-88581806D01*
X60271801Y-88474885D01*
X60407885Y-88338801D01*
X60514806Y-88178783D01*
X60588454Y-88000980D01*
X60626000Y-87812226D01*
X60626000Y-87619774D01*
X60702000Y-87619774D01*
X60702000Y-87812226D01*
X60739546Y-88000980D01*
X60813194Y-88178783D01*
X60920115Y-88338801D01*
X61056199Y-88474885D01*
X61216217Y-88581806D01*
X61394020Y-88655454D01*
X61582774Y-88693000D01*
X61775226Y-88693000D01*
X61963980Y-88655454D01*
X62141783Y-88581806D01*
X62301801Y-88474885D01*
X62437885Y-88338801D01*
X62544806Y-88178783D01*
X62618454Y-88000980D01*
X62656000Y-87812226D01*
X62656000Y-87619774D01*
X70362000Y-87619774D01*
X70362000Y-87812226D01*
X70399546Y-88000980D01*
X70473194Y-88178783D01*
X70580115Y-88338801D01*
X70716199Y-88474885D01*
X70876217Y-88581806D01*
X71054020Y-88655454D01*
X71242774Y-88693000D01*
X71435226Y-88693000D01*
X71623980Y-88655454D01*
X71801783Y-88581806D01*
X71961801Y-88474885D01*
X72097885Y-88338801D01*
X72204806Y-88178783D01*
X72278454Y-88000980D01*
X72316000Y-87812226D01*
X72316000Y-87619774D01*
X72392000Y-87619774D01*
X72392000Y-87812226D01*
X72429546Y-88000980D01*
X72503194Y-88178783D01*
X72610115Y-88338801D01*
X72746199Y-88474885D01*
X72906217Y-88581806D01*
X73084020Y-88655454D01*
X73272774Y-88693000D01*
X73465226Y-88693000D01*
X73653980Y-88655454D01*
X73831783Y-88581806D01*
X73991801Y-88474885D01*
X74127885Y-88338801D01*
X74234806Y-88178783D01*
X74308454Y-88000980D01*
X74346000Y-87812226D01*
X74346000Y-87619774D01*
X74422000Y-87619774D01*
X74422000Y-87812226D01*
X74459546Y-88000980D01*
X74533194Y-88178783D01*
X74640115Y-88338801D01*
X74776199Y-88474885D01*
X74936217Y-88581806D01*
X75114020Y-88655454D01*
X75302774Y-88693000D01*
X75495226Y-88693000D01*
X75683980Y-88655454D01*
X75861783Y-88581806D01*
X76021801Y-88474885D01*
X76157885Y-88338801D01*
X76264806Y-88178783D01*
X76338454Y-88000980D01*
X76376000Y-87812226D01*
X76376000Y-87619774D01*
X76452000Y-87619774D01*
X76452000Y-87812226D01*
X76489546Y-88000980D01*
X76563194Y-88178783D01*
X76670115Y-88338801D01*
X76806199Y-88474885D01*
X76966217Y-88581806D01*
X77144020Y-88655454D01*
X77332774Y-88693000D01*
X77525226Y-88693000D01*
X77713980Y-88655454D01*
X77891783Y-88581806D01*
X78051176Y-88475302D01*
X80667000Y-88475302D01*
X80667000Y-88736698D01*
X80717996Y-88993072D01*
X80818028Y-89234570D01*
X80963252Y-89451913D01*
X81148087Y-89636748D01*
X81365430Y-89781972D01*
X81606928Y-89882004D01*
X81863302Y-89933000D01*
X82124698Y-89933000D01*
X82381072Y-89882004D01*
X82622570Y-89781972D01*
X82839913Y-89636748D01*
X83024748Y-89451913D01*
X83169972Y-89234570D01*
X83270004Y-88993072D01*
X83321000Y-88736698D01*
X83321000Y-88475302D01*
X83270004Y-88218928D01*
X83169972Y-87977430D01*
X83024748Y-87760087D01*
X82839913Y-87575252D01*
X82622570Y-87430028D01*
X82381072Y-87329996D01*
X82124698Y-87279000D01*
X81863302Y-87279000D01*
X81606928Y-87329996D01*
X81365430Y-87430028D01*
X81148087Y-87575252D01*
X80963252Y-87760087D01*
X80818028Y-87977430D01*
X80717996Y-88218928D01*
X80667000Y-88475302D01*
X78051176Y-88475302D01*
X78051801Y-88474885D01*
X78187885Y-88338801D01*
X78294806Y-88178783D01*
X78368454Y-88000980D01*
X78406000Y-87812226D01*
X78406000Y-87619774D01*
X78368454Y-87431020D01*
X78294806Y-87253217D01*
X78187885Y-87093199D01*
X78051801Y-86957115D01*
X77891783Y-86850194D01*
X77713980Y-86776546D01*
X77525226Y-86739000D01*
X77332774Y-86739000D01*
X77144020Y-86776546D01*
X76966217Y-86850194D01*
X76806199Y-86957115D01*
X76670115Y-87093199D01*
X76563194Y-87253217D01*
X76489546Y-87431020D01*
X76452000Y-87619774D01*
X76376000Y-87619774D01*
X76338454Y-87431020D01*
X76264806Y-87253217D01*
X76157885Y-87093199D01*
X76021801Y-86957115D01*
X75861783Y-86850194D01*
X75683980Y-86776546D01*
X75495226Y-86739000D01*
X75302774Y-86739000D01*
X75114020Y-86776546D01*
X74936217Y-86850194D01*
X74776199Y-86957115D01*
X74640115Y-87093199D01*
X74533194Y-87253217D01*
X74459546Y-87431020D01*
X74422000Y-87619774D01*
X74346000Y-87619774D01*
X74308454Y-87431020D01*
X74234806Y-87253217D01*
X74127885Y-87093199D01*
X73991801Y-86957115D01*
X73831783Y-86850194D01*
X73653980Y-86776546D01*
X73465226Y-86739000D01*
X73272774Y-86739000D01*
X73084020Y-86776546D01*
X72906217Y-86850194D01*
X72746199Y-86957115D01*
X72610115Y-87093199D01*
X72503194Y-87253217D01*
X72429546Y-87431020D01*
X72392000Y-87619774D01*
X72316000Y-87619774D01*
X72278454Y-87431020D01*
X72204806Y-87253217D01*
X72097885Y-87093199D01*
X71961801Y-86957115D01*
X71801783Y-86850194D01*
X71623980Y-86776546D01*
X71435226Y-86739000D01*
X71242774Y-86739000D01*
X71054020Y-86776546D01*
X70876217Y-86850194D01*
X70716199Y-86957115D01*
X70580115Y-87093199D01*
X70473194Y-87253217D01*
X70399546Y-87431020D01*
X70362000Y-87619774D01*
X62656000Y-87619774D01*
X62618454Y-87431020D01*
X62544806Y-87253217D01*
X62437885Y-87093199D01*
X62301801Y-86957115D01*
X62141783Y-86850194D01*
X61963980Y-86776546D01*
X61775226Y-86739000D01*
X61582774Y-86739000D01*
X61394020Y-86776546D01*
X61216217Y-86850194D01*
X61056199Y-86957115D01*
X60920115Y-87093199D01*
X60813194Y-87253217D01*
X60739546Y-87431020D01*
X60702000Y-87619774D01*
X60626000Y-87619774D01*
X60588454Y-87431020D01*
X60514806Y-87253217D01*
X60407885Y-87093199D01*
X60271801Y-86957115D01*
X60111783Y-86850194D01*
X59933980Y-86776546D01*
X59745226Y-86739000D01*
X59552774Y-86739000D01*
X59364020Y-86776546D01*
X59186217Y-86850194D01*
X59026199Y-86957115D01*
X58890115Y-87093199D01*
X58783194Y-87253217D01*
X58709546Y-87431020D01*
X58672000Y-87619774D01*
X58596000Y-87619774D01*
X58558454Y-87431020D01*
X58484806Y-87253217D01*
X58377885Y-87093199D01*
X58241801Y-86957115D01*
X58081783Y-86850194D01*
X57903980Y-86776546D01*
X57715226Y-86739000D01*
X57522774Y-86739000D01*
X57334020Y-86776546D01*
X57156217Y-86850194D01*
X56996199Y-86957115D01*
X56860115Y-87093199D01*
X56753194Y-87253217D01*
X56679546Y-87431020D01*
X56642000Y-87619774D01*
X56566000Y-87619774D01*
X56528454Y-87431020D01*
X56454806Y-87253217D01*
X56347885Y-87093199D01*
X56211801Y-86957115D01*
X56051783Y-86850194D01*
X55873980Y-86776546D01*
X55685226Y-86739000D01*
X55492774Y-86739000D01*
X55304020Y-86776546D01*
X55126217Y-86850194D01*
X54966199Y-86957115D01*
X54830115Y-87093199D01*
X54723194Y-87253217D01*
X54649546Y-87431020D01*
X54612000Y-87619774D01*
X50884435Y-87619774D01*
X50839913Y-87575252D01*
X50622570Y-87430028D01*
X50381072Y-87329996D01*
X50124698Y-87279000D01*
X49863302Y-87279000D01*
X49606928Y-87329996D01*
X49365430Y-87430028D01*
X49148087Y-87575252D01*
X48963252Y-87760087D01*
X48818028Y-87977430D01*
X48717996Y-88218928D01*
X48667000Y-88475302D01*
X47377000Y-88475302D01*
X47377000Y-75250000D01*
X47374560Y-75225224D01*
X47367333Y-75201399D01*
X47355597Y-75179443D01*
X47339803Y-75160197D01*
X43339803Y-71160197D01*
X43320557Y-71144403D01*
X43298601Y-71132667D01*
X43274776Y-71125440D01*
X43250000Y-71123000D01*
X35552606Y-71123000D01*
X31336691Y-66907085D01*
X70662000Y-66907085D01*
X70662000Y-67074915D01*
X70694742Y-67239519D01*
X70758968Y-67394573D01*
X70852209Y-67534118D01*
X70970882Y-67652791D01*
X71110427Y-67746032D01*
X71265481Y-67810258D01*
X71430085Y-67843000D01*
X71597915Y-67843000D01*
X71762519Y-67810258D01*
X71917573Y-67746032D01*
X72057118Y-67652791D01*
X72149000Y-67560909D01*
X72240882Y-67652791D01*
X72380427Y-67746032D01*
X72535481Y-67810258D01*
X72700085Y-67843000D01*
X72867915Y-67843000D01*
X73032519Y-67810258D01*
X73187573Y-67746032D01*
X73327118Y-67652791D01*
X73419000Y-67560909D01*
X73510882Y-67652791D01*
X73650427Y-67746032D01*
X73805481Y-67810258D01*
X73970085Y-67843000D01*
X74137915Y-67843000D01*
X74302519Y-67810258D01*
X74457573Y-67746032D01*
X74597118Y-67652791D01*
X74689000Y-67560909D01*
X74780882Y-67652791D01*
X74920427Y-67746032D01*
X75075481Y-67810258D01*
X75240085Y-67843000D01*
X75407915Y-67843000D01*
X75572519Y-67810258D01*
X75727573Y-67746032D01*
X75740418Y-67737449D01*
X75740418Y-68786000D01*
X75746732Y-68850103D01*
X75765430Y-68911743D01*
X75795794Y-68968550D01*
X75836657Y-69018343D01*
X75886450Y-69059206D01*
X75943257Y-69089570D01*
X76004897Y-69108268D01*
X76069000Y-69114582D01*
X77119000Y-69114582D01*
X77183103Y-69108268D01*
X77244743Y-69089570D01*
X77301550Y-69059206D01*
X77351343Y-69018343D01*
X77392206Y-68968550D01*
X77422570Y-68911743D01*
X77441268Y-68850103D01*
X77447582Y-68786000D01*
X77447582Y-68286000D01*
X79753090Y-68286000D01*
X79778711Y-68546137D01*
X79854591Y-68796278D01*
X79977812Y-69026808D01*
X80143640Y-69228870D01*
X80345702Y-69394698D01*
X80576232Y-69517919D01*
X80826373Y-69593799D01*
X81021326Y-69613000D01*
X82166674Y-69613000D01*
X82361627Y-69593799D01*
X82611768Y-69517919D01*
X82842298Y-69394698D01*
X83044360Y-69228870D01*
X83210188Y-69026808D01*
X83333409Y-68796278D01*
X83409289Y-68546137D01*
X83434910Y-68286000D01*
X86753090Y-68286000D01*
X86778711Y-68546137D01*
X86854591Y-68796278D01*
X86977812Y-69026808D01*
X87143640Y-69228870D01*
X87345702Y-69394698D01*
X87576232Y-69517919D01*
X87826373Y-69593799D01*
X88021326Y-69613000D01*
X89166674Y-69613000D01*
X89361627Y-69593799D01*
X89611768Y-69517919D01*
X89842298Y-69394698D01*
X90044360Y-69228870D01*
X90210188Y-69026808D01*
X90333409Y-68796278D01*
X90409289Y-68546137D01*
X90434910Y-68286000D01*
X90409289Y-68025863D01*
X90333409Y-67775722D01*
X90210188Y-67545192D01*
X90044360Y-67343130D01*
X89842298Y-67177302D01*
X89611768Y-67054081D01*
X89361627Y-66978201D01*
X89166674Y-66959000D01*
X88021326Y-66959000D01*
X87826373Y-66978201D01*
X87576232Y-67054081D01*
X87345702Y-67177302D01*
X87143640Y-67343130D01*
X86977812Y-67545192D01*
X86854591Y-67775722D01*
X86778711Y-68025863D01*
X86753090Y-68286000D01*
X83434910Y-68286000D01*
X83409289Y-68025863D01*
X83333409Y-67775722D01*
X83210188Y-67545192D01*
X83044360Y-67343130D01*
X82842298Y-67177302D01*
X82611768Y-67054081D01*
X82361627Y-66978201D01*
X82166674Y-66959000D01*
X81021326Y-66959000D01*
X80826373Y-66978201D01*
X80576232Y-67054081D01*
X80345702Y-67177302D01*
X80143640Y-67343130D01*
X79977812Y-67545192D01*
X79854591Y-67775722D01*
X79778711Y-68025863D01*
X79753090Y-68286000D01*
X77447582Y-68286000D01*
X77447582Y-67736000D01*
X77441268Y-67671897D01*
X77422570Y-67610257D01*
X77392206Y-67553450D01*
X77351343Y-67503657D01*
X77302776Y-67463800D01*
X77349032Y-67394573D01*
X77413258Y-67239519D01*
X77446000Y-67074915D01*
X77446000Y-66907085D01*
X77413258Y-66742481D01*
X77349032Y-66587427D01*
X77255791Y-66447882D01*
X77137118Y-66329209D01*
X76997573Y-66235968D01*
X76842519Y-66171742D01*
X76677915Y-66139000D01*
X76510085Y-66139000D01*
X76345481Y-66171742D01*
X76190427Y-66235968D01*
X76050882Y-66329209D01*
X75959000Y-66421091D01*
X75867118Y-66329209D01*
X75727573Y-66235968D01*
X75572519Y-66171742D01*
X75407915Y-66139000D01*
X75240085Y-66139000D01*
X75075481Y-66171742D01*
X74920427Y-66235968D01*
X74780882Y-66329209D01*
X74689000Y-66421091D01*
X74597118Y-66329209D01*
X74457573Y-66235968D01*
X74302519Y-66171742D01*
X74137915Y-66139000D01*
X73970085Y-66139000D01*
X73805481Y-66171742D01*
X73650427Y-66235968D01*
X73510882Y-66329209D01*
X73419000Y-66421091D01*
X73327118Y-66329209D01*
X73187573Y-66235968D01*
X73032519Y-66171742D01*
X72867915Y-66139000D01*
X72700085Y-66139000D01*
X72535481Y-66171742D01*
X72380427Y-66235968D01*
X72240882Y-66329209D01*
X72149000Y-66421091D01*
X72057118Y-66329209D01*
X71917573Y-66235968D01*
X71762519Y-66171742D01*
X71597915Y-66139000D01*
X71430085Y-66139000D01*
X71265481Y-66171742D01*
X71110427Y-66235968D01*
X70970882Y-66329209D01*
X70852209Y-66447882D01*
X70758968Y-66587427D01*
X70694742Y-66742481D01*
X70662000Y-66907085D01*
X31336691Y-66907085D01*
X29467852Y-65038246D01*
X47298000Y-65038246D01*
X47298000Y-65161754D01*
X47322095Y-65282889D01*
X47369360Y-65396996D01*
X47437977Y-65499689D01*
X47525311Y-65587023D01*
X47628004Y-65655640D01*
X47742111Y-65702905D01*
X47863246Y-65727000D01*
X47986754Y-65727000D01*
X48107889Y-65702905D01*
X48221996Y-65655640D01*
X48324689Y-65587023D01*
X48412023Y-65499689D01*
X48480640Y-65396996D01*
X48527905Y-65282889D01*
X48552000Y-65161754D01*
X48552000Y-65038246D01*
X48527905Y-64917111D01*
X48480640Y-64803004D01*
X48469279Y-64786000D01*
X79753090Y-64786000D01*
X79778711Y-65046137D01*
X79854591Y-65296278D01*
X79977812Y-65526808D01*
X80143640Y-65728870D01*
X80345702Y-65894698D01*
X80576232Y-66017919D01*
X80826373Y-66093799D01*
X81021326Y-66113000D01*
X82166674Y-66113000D01*
X82361627Y-66093799D01*
X82611768Y-66017919D01*
X82842298Y-65894698D01*
X83044360Y-65728870D01*
X83210188Y-65526808D01*
X83333409Y-65296278D01*
X83409289Y-65046137D01*
X83434910Y-64786000D01*
X86753090Y-64786000D01*
X86778711Y-65046137D01*
X86854591Y-65296278D01*
X86977812Y-65526808D01*
X87143640Y-65728870D01*
X87345702Y-65894698D01*
X87576232Y-66017919D01*
X87826373Y-66093799D01*
X88021326Y-66113000D01*
X89166674Y-66113000D01*
X89361627Y-66093799D01*
X89611768Y-66017919D01*
X89842298Y-65894698D01*
X90044360Y-65728870D01*
X90210188Y-65526808D01*
X90333409Y-65296278D01*
X90409289Y-65046137D01*
X90434910Y-64786000D01*
X90409289Y-64525863D01*
X90333409Y-64275722D01*
X90210188Y-64045192D01*
X90044360Y-63843130D01*
X89842298Y-63677302D01*
X89611768Y-63554081D01*
X89361627Y-63478201D01*
X89166674Y-63459000D01*
X88021326Y-63459000D01*
X87826373Y-63478201D01*
X87576232Y-63554081D01*
X87345702Y-63677302D01*
X87143640Y-63843130D01*
X86977812Y-64045192D01*
X86854591Y-64275722D01*
X86778711Y-64525863D01*
X86753090Y-64786000D01*
X83434910Y-64786000D01*
X83409289Y-64525863D01*
X83333409Y-64275722D01*
X83210188Y-64045192D01*
X83044360Y-63843130D01*
X82842298Y-63677302D01*
X82611768Y-63554081D01*
X82361627Y-63478201D01*
X82166674Y-63459000D01*
X81021326Y-63459000D01*
X80826373Y-63478201D01*
X80576232Y-63554081D01*
X80345702Y-63677302D01*
X80143640Y-63843130D01*
X79977812Y-64045192D01*
X79854591Y-64275722D01*
X79778711Y-64525863D01*
X79753090Y-64786000D01*
X48469279Y-64786000D01*
X48412023Y-64700311D01*
X48379000Y-64667288D01*
X48379000Y-61957712D01*
X48462023Y-61874689D01*
X48530640Y-61771996D01*
X48577905Y-61657889D01*
X48602000Y-61536754D01*
X48602000Y-61413246D01*
X48577905Y-61292111D01*
X48530640Y-61178004D01*
X48462023Y-61075311D01*
X48374689Y-60987977D01*
X48271996Y-60919360D01*
X48157889Y-60872095D01*
X48036754Y-60848000D01*
X47913246Y-60848000D01*
X47792111Y-60872095D01*
X47678004Y-60919360D01*
X47575311Y-60987977D01*
X47487977Y-61075311D01*
X47419360Y-61178004D01*
X47372095Y-61292111D01*
X47348000Y-61413246D01*
X47348000Y-61536754D01*
X47372095Y-61657889D01*
X47419360Y-61771996D01*
X47471000Y-61849281D01*
X47471001Y-64667287D01*
X47437977Y-64700311D01*
X47369360Y-64803004D01*
X47322095Y-64917111D01*
X47298000Y-65038246D01*
X29467852Y-65038246D01*
X28877000Y-64447394D01*
X28877000Y-55750000D01*
X28874560Y-55725224D01*
X28867333Y-55701399D01*
X28855597Y-55679443D01*
X28839803Y-55660197D01*
X28089803Y-54910197D01*
X28070557Y-54894403D01*
X28048601Y-54882667D01*
X28024776Y-54875440D01*
X28000000Y-54873000D01*
X25127000Y-54873000D01*
X25127000Y-54300000D01*
X40571418Y-54300000D01*
X40571418Y-56000000D01*
X40577732Y-56064103D01*
X40596430Y-56125743D01*
X40626794Y-56182550D01*
X40667657Y-56232343D01*
X40717450Y-56273206D01*
X40774257Y-56303570D01*
X40835897Y-56322268D01*
X40900000Y-56328582D01*
X42600000Y-56328582D01*
X42664103Y-56322268D01*
X42725743Y-56303570D01*
X42782550Y-56273206D01*
X42832343Y-56232343D01*
X42873206Y-56182550D01*
X42903570Y-56125743D01*
X42922268Y-56064103D01*
X42928582Y-56000000D01*
X42928582Y-55150000D01*
X43107306Y-55150000D01*
X43130031Y-55380732D01*
X43197333Y-55602597D01*
X43306626Y-55807070D01*
X43453709Y-55986291D01*
X43632930Y-56133374D01*
X43837403Y-56242667D01*
X44059268Y-56309969D01*
X44232188Y-56327000D01*
X44347812Y-56327000D01*
X44520732Y-56309969D01*
X44742597Y-56242667D01*
X44947070Y-56133374D01*
X45126291Y-55986291D01*
X45273374Y-55807070D01*
X45382667Y-55602597D01*
X45449969Y-55380732D01*
X45472694Y-55150000D01*
X45647306Y-55150000D01*
X45670031Y-55380732D01*
X45737333Y-55602597D01*
X45846626Y-55807070D01*
X45993709Y-55986291D01*
X46172930Y-56133374D01*
X46377403Y-56242667D01*
X46599268Y-56309969D01*
X46772188Y-56327000D01*
X46887812Y-56327000D01*
X47060732Y-56309969D01*
X47282597Y-56242667D01*
X47487070Y-56133374D01*
X47666291Y-55986291D01*
X47813374Y-55807070D01*
X47922667Y-55602597D01*
X47989969Y-55380732D01*
X48012694Y-55150000D01*
X47989969Y-54919268D01*
X47922667Y-54697403D01*
X47813374Y-54492930D01*
X47666291Y-54313709D01*
X47487070Y-54166626D01*
X47282597Y-54057333D01*
X47060732Y-53990031D01*
X46887812Y-53973000D01*
X46772188Y-53973000D01*
X46599268Y-53990031D01*
X46377403Y-54057333D01*
X46172930Y-54166626D01*
X45993709Y-54313709D01*
X45846626Y-54492930D01*
X45737333Y-54697403D01*
X45670031Y-54919268D01*
X45647306Y-55150000D01*
X45472694Y-55150000D01*
X45449969Y-54919268D01*
X45382667Y-54697403D01*
X45273374Y-54492930D01*
X45126291Y-54313709D01*
X44947070Y-54166626D01*
X44742597Y-54057333D01*
X44520732Y-53990031D01*
X44347812Y-53973000D01*
X44232188Y-53973000D01*
X44059268Y-53990031D01*
X43837403Y-54057333D01*
X43632930Y-54166626D01*
X43453709Y-54313709D01*
X43306626Y-54492930D01*
X43197333Y-54697403D01*
X43130031Y-54919268D01*
X43107306Y-55150000D01*
X42928582Y-55150000D01*
X42928582Y-54300000D01*
X42922268Y-54235897D01*
X42903570Y-54174257D01*
X42873206Y-54117450D01*
X42832343Y-54067657D01*
X42782550Y-54026794D01*
X42725743Y-53996430D01*
X42664103Y-53977732D01*
X42600000Y-53971418D01*
X40900000Y-53971418D01*
X40835897Y-53977732D01*
X40774257Y-53996430D01*
X40717450Y-54026794D01*
X40667657Y-54067657D01*
X40626794Y-54117450D01*
X40596430Y-54174257D01*
X40577732Y-54235897D01*
X40571418Y-54300000D01*
X25127000Y-54300000D01*
X25127000Y-53500000D01*
X53623000Y-53500000D01*
X53623000Y-60500000D01*
X53625440Y-60524776D01*
X53632667Y-60548601D01*
X53644403Y-60570557D01*
X53660197Y-60589803D01*
X54910197Y-61839803D01*
X54929443Y-61855597D01*
X54951399Y-61867333D01*
X54975224Y-61874560D01*
X55000000Y-61877000D01*
X57500000Y-61877000D01*
X57524776Y-61874560D01*
X57548601Y-61867333D01*
X57570557Y-61855597D01*
X57589803Y-61839803D01*
X59339803Y-60089803D01*
X59355597Y-60070557D01*
X59367333Y-60048601D01*
X59374560Y-60024776D01*
X59377000Y-60000000D01*
X59377000Y-57877000D01*
X59750000Y-57877000D01*
X59774776Y-57874560D01*
X59798601Y-57867333D01*
X59820557Y-57855597D01*
X59839803Y-57839803D01*
X60655360Y-57024246D01*
X65667000Y-57024246D01*
X65667000Y-57147754D01*
X65691095Y-57268889D01*
X65738360Y-57382996D01*
X65806977Y-57485689D01*
X65840001Y-57518713D01*
X65840000Y-60738712D01*
X65837805Y-60761000D01*
X65840000Y-60783288D01*
X65840000Y-60783294D01*
X65845654Y-60840698D01*
X65846570Y-60849999D01*
X65857619Y-60886422D01*
X65872530Y-60935578D01*
X65914687Y-61014448D01*
X65967000Y-61078192D01*
X65967000Y-61122754D01*
X65991095Y-61243889D01*
X66038360Y-61357996D01*
X66106977Y-61460689D01*
X66194311Y-61548023D01*
X66297004Y-61616640D01*
X66411111Y-61663905D01*
X66532246Y-61688000D01*
X66655754Y-61688000D01*
X66776889Y-61663905D01*
X66890996Y-61616640D01*
X66993689Y-61548023D01*
X67081023Y-61460689D01*
X67149640Y-61357996D01*
X67196905Y-61243889D01*
X67221000Y-61122754D01*
X67221000Y-60999246D01*
X67196905Y-60878111D01*
X67149640Y-60764004D01*
X67081023Y-60661311D01*
X66993689Y-60573977D01*
X66890996Y-60505360D01*
X66776889Y-60458095D01*
X66748000Y-60452349D01*
X66748000Y-58834472D01*
X85867000Y-58834472D01*
X85867000Y-58987528D01*
X85896859Y-59137643D01*
X85955431Y-59279048D01*
X86040464Y-59406309D01*
X86148691Y-59514536D01*
X86275952Y-59599569D01*
X86417357Y-59658141D01*
X86567472Y-59688000D01*
X86720528Y-59688000D01*
X86870643Y-59658141D01*
X87012048Y-59599569D01*
X87139309Y-59514536D01*
X87247536Y-59406309D01*
X87332569Y-59279048D01*
X87391141Y-59137643D01*
X87421000Y-58987528D01*
X87421000Y-58834472D01*
X87391141Y-58684357D01*
X87332569Y-58542952D01*
X87247536Y-58415691D01*
X87139309Y-58307464D01*
X87012048Y-58222431D01*
X86870643Y-58163859D01*
X86720528Y-58134000D01*
X86567472Y-58134000D01*
X86417357Y-58163859D01*
X86275952Y-58222431D01*
X86148691Y-58307464D01*
X86040464Y-58415691D01*
X85955431Y-58542952D01*
X85896859Y-58684357D01*
X85867000Y-58834472D01*
X66748000Y-58834472D01*
X66748000Y-57518712D01*
X66781023Y-57485689D01*
X66849640Y-57382996D01*
X66896905Y-57268889D01*
X66921000Y-57147754D01*
X66921000Y-57024246D01*
X66896905Y-56903111D01*
X66849640Y-56789004D01*
X66781023Y-56686311D01*
X66693689Y-56598977D01*
X66590996Y-56530360D01*
X66476889Y-56483095D01*
X66355754Y-56459000D01*
X66232246Y-56459000D01*
X66111111Y-56483095D01*
X65997004Y-56530360D01*
X65894311Y-56598977D01*
X65806977Y-56686311D01*
X65738360Y-56789004D01*
X65691095Y-56903111D01*
X65667000Y-57024246D01*
X60655360Y-57024246D01*
X60802606Y-56877000D01*
X62000000Y-56877000D01*
X62024776Y-56874560D01*
X62048601Y-56867333D01*
X62070557Y-56855597D01*
X62089803Y-56839803D01*
X62105597Y-56820557D01*
X62117333Y-56798601D01*
X62124560Y-56774776D01*
X62127000Y-56750000D01*
X62127000Y-55000000D01*
X62124560Y-54975224D01*
X62117333Y-54951399D01*
X62105597Y-54929443D01*
X62089803Y-54910197D01*
X62070557Y-54894403D01*
X62048601Y-54882667D01*
X62024776Y-54875440D01*
X62000000Y-54873000D01*
X60302606Y-54873000D01*
X59864078Y-54434472D01*
X85867000Y-54434472D01*
X85867000Y-54587528D01*
X85896859Y-54737643D01*
X85955431Y-54879048D01*
X86040464Y-55006309D01*
X86148691Y-55114536D01*
X86275952Y-55199569D01*
X86417357Y-55258141D01*
X86567472Y-55288000D01*
X86720528Y-55288000D01*
X86870643Y-55258141D01*
X87012048Y-55199569D01*
X87139309Y-55114536D01*
X87247536Y-55006309D01*
X87332569Y-54879048D01*
X87391141Y-54737643D01*
X87421000Y-54587528D01*
X87421000Y-54434472D01*
X87391141Y-54284357D01*
X87332569Y-54142952D01*
X87247536Y-54015691D01*
X87139309Y-53907464D01*
X87012048Y-53822431D01*
X86870643Y-53763859D01*
X86720528Y-53734000D01*
X86567472Y-53734000D01*
X86417357Y-53763859D01*
X86275952Y-53822431D01*
X86148691Y-53907464D01*
X86040464Y-54015691D01*
X85955431Y-54142952D01*
X85896859Y-54284357D01*
X85867000Y-54434472D01*
X59864078Y-54434472D01*
X59589803Y-54160197D01*
X59570557Y-54144403D01*
X59548601Y-54132667D01*
X59524776Y-54125440D01*
X59500000Y-54123000D01*
X59302606Y-54123000D01*
X58377000Y-53197394D01*
X58377000Y-52750000D01*
X58374560Y-52725224D01*
X58367333Y-52701399D01*
X58355597Y-52679443D01*
X58339803Y-52660197D01*
X57589803Y-51910197D01*
X57570557Y-51894403D01*
X57548601Y-51882667D01*
X57524776Y-51875440D01*
X57500000Y-51873000D01*
X55250000Y-51873000D01*
X55225224Y-51875440D01*
X55201399Y-51882667D01*
X55179443Y-51894403D01*
X55160197Y-51910197D01*
X53660197Y-53410197D01*
X53644403Y-53429443D01*
X53632667Y-53451399D01*
X53625440Y-53475224D01*
X53623000Y-53500000D01*
X25127000Y-53500000D01*
X25127000Y-51750000D01*
X25124560Y-51725224D01*
X25117333Y-51701399D01*
X25105597Y-51679443D01*
X25089803Y-51660197D01*
X25070557Y-51644403D01*
X25048601Y-51632667D01*
X25024776Y-51625440D01*
X25000000Y-51623000D01*
X20127000Y-51623000D01*
X20127000Y-48802606D01*
X21589803Y-47339803D01*
X21605597Y-47320557D01*
X21617333Y-47298601D01*
X21624560Y-47274776D01*
X21627000Y-47250000D01*
X21627000Y-46672319D01*
X83673000Y-46672319D01*
X83673000Y-47327681D01*
X83800855Y-47970450D01*
X84051651Y-48575925D01*
X84415750Y-49120839D01*
X84879161Y-49584250D01*
X85424075Y-49948349D01*
X86029550Y-50199145D01*
X86672319Y-50327000D01*
X87327681Y-50327000D01*
X87970450Y-50199145D01*
X88575925Y-49948349D01*
X89120839Y-49584250D01*
X89584250Y-49120839D01*
X89948349Y-48575925D01*
X90199145Y-47970450D01*
X90327000Y-47327681D01*
X90327000Y-46672319D01*
X90199145Y-46029550D01*
X89948349Y-45424075D01*
X89584250Y-44879161D01*
X89120839Y-44415750D01*
X88575925Y-44051651D01*
X87970450Y-43800855D01*
X87327681Y-43673000D01*
X86672319Y-43673000D01*
X86029550Y-43800855D01*
X85424075Y-44051651D01*
X84879161Y-44415750D01*
X84415750Y-44879161D01*
X84051651Y-45424075D01*
X83800855Y-46029550D01*
X83673000Y-46672319D01*
X21627000Y-46672319D01*
X21627000Y-38052606D01*
X24589803Y-35089803D01*
X24605597Y-35070557D01*
X24617333Y-35048601D01*
X24624560Y-35024776D01*
X24627000Y-35000000D01*
X24624560Y-34975224D01*
X24617333Y-34951399D01*
X24605597Y-34929443D01*
X24589803Y-34910197D01*
X24570557Y-34894403D01*
X24548601Y-34882667D01*
X24524776Y-34875440D01*
X24500000Y-34873000D01*
X24000000Y-34873000D01*
X23975224Y-34875440D01*
X23951399Y-34882667D01*
X23929443Y-34894403D01*
X23910197Y-34910197D01*
X20910197Y-37910197D01*
X20894403Y-37929443D01*
X20882667Y-37951399D01*
X20875440Y-37975224D01*
X20873000Y-38000000D01*
X20873000Y-46947394D01*
X19410197Y-48410197D01*
X19394403Y-48429443D01*
X19382667Y-48451399D01*
X19375440Y-48475224D01*
X19373000Y-48500000D01*
X19373000Y-52250000D01*
X19375440Y-52274776D01*
X19382667Y-52298601D01*
X19394403Y-52320557D01*
X19410197Y-52339803D01*
X19429443Y-52355597D01*
X19451399Y-52367333D01*
X19475224Y-52374560D01*
X19500000Y-52377000D01*
X24373000Y-52377000D01*
X24373000Y-55500000D01*
X24375440Y-55524776D01*
X24382667Y-55548601D01*
X24394403Y-55570557D01*
X24410197Y-55589803D01*
X24429443Y-55605597D01*
X24451399Y-55617333D01*
X24475224Y-55624560D01*
X24500000Y-55627000D01*
X27873000Y-55627000D01*
X27873000Y-65000000D01*
X27875440Y-65024776D01*
X27882667Y-65048601D01*
X27894403Y-65070557D01*
X27910197Y-65089803D01*
X34910197Y-72089803D01*
X34929443Y-72105597D01*
X34951399Y-72117333D01*
X34975224Y-72124560D01*
X35000000Y-72127000D01*
X42947394Y-72127000D01*
X46373000Y-75552606D01*
X46373000Y-90000000D01*
X46375440Y-90024776D01*
X46382667Y-90048601D01*
X46394403Y-90070557D01*
X46410197Y-90089803D01*
X48373000Y-92052606D01*
X48373000Y-97623000D01*
X377000Y-97623000D01*
X377000Y-92672319D01*
X1673000Y-92672319D01*
X1673000Y-93327681D01*
X1800855Y-93970450D01*
X2051651Y-94575925D01*
X2415750Y-95120839D01*
X2879161Y-95584250D01*
X3424075Y-95948349D01*
X4029550Y-96199145D01*
X4672319Y-96327000D01*
X5327681Y-96327000D01*
X5970450Y-96199145D01*
X6575925Y-95948349D01*
X7120839Y-95584250D01*
X7584250Y-95120839D01*
X7948349Y-94575925D01*
X8199145Y-93970450D01*
X8327000Y-93327681D01*
X8327000Y-92672319D01*
X8199145Y-92029550D01*
X7948349Y-91424075D01*
X7584250Y-90879161D01*
X7120839Y-90415750D01*
X6575925Y-90051651D01*
X5970450Y-89800855D01*
X5327681Y-89673000D01*
X4672319Y-89673000D01*
X4029550Y-89800855D01*
X3424075Y-90051651D01*
X2879161Y-90415750D01*
X2415750Y-90879161D01*
X2051651Y-91424075D01*
X1800855Y-92029550D01*
X1673000Y-92672319D01*
X377000Y-92672319D01*
X377000Y-44127000D01*
X3311307Y-44127000D01*
X2879161Y-44415750D01*
X2415750Y-44879161D01*
X2051651Y-45424075D01*
X1800855Y-46029550D01*
X1673000Y-46672319D01*
X1673000Y-47327681D01*
X1800855Y-47970450D01*
X2051651Y-48575925D01*
X2415750Y-49120839D01*
X2879161Y-49584250D01*
X3424075Y-49948349D01*
X4029550Y-50199145D01*
X4672319Y-50327000D01*
X5327681Y-50327000D01*
X5970450Y-50199145D01*
X6575925Y-49948349D01*
X7120839Y-49584250D01*
X7584250Y-49120839D01*
X7948349Y-48575925D01*
X8199145Y-47970450D01*
X8327000Y-47327681D01*
X8327000Y-46672319D01*
X8199145Y-46029550D01*
X7948349Y-45424075D01*
X7584250Y-44879161D01*
X7120839Y-44415750D01*
X6688693Y-44127000D01*
X15000000Y-44127000D01*
X15024776Y-44124560D01*
X15048601Y-44117333D01*
X15070557Y-44105597D01*
X15089803Y-44089803D01*
X17589803Y-41589803D01*
X17605597Y-41570557D01*
X17617333Y-41548601D01*
X17624560Y-41524776D01*
X17627000Y-41500000D01*
X17627000Y-36552606D01*
X22089803Y-32089803D01*
X22105597Y-32070557D01*
X22117333Y-32048601D01*
X22124560Y-32024776D01*
X22127000Y-32000000D01*
X22127000Y-28000000D01*
X22124560Y-27975224D01*
X22117333Y-27951399D01*
X22105597Y-27929443D01*
X22089803Y-27910197D01*
X22070557Y-27894403D01*
X22048601Y-27882667D01*
X22024776Y-27875440D01*
X22000000Y-27873000D01*
X13377000Y-27873000D01*
X13377000Y-15627000D01*
X29750000Y-15627000D01*
X29774776Y-15624560D01*
X29798601Y-15617333D01*
X29820557Y-15605597D01*
X29839803Y-15589803D01*
X29855597Y-15570557D01*
X29867333Y-15548601D01*
X29874560Y-15524776D01*
X29877000Y-15500000D01*
X29877000Y-3377000D01*
X38623000Y-3377000D01*
X38623000Y-4000000D01*
X38623000Y-4000000D01*
G37*
X38623000Y-4000000D02*
X38625440Y-4024776D01*
X38632667Y-4048601D01*
X38644403Y-4070557D01*
X38660197Y-4089803D01*
X38679443Y-4105597D01*
X38701399Y-4117333D01*
X38725224Y-4124560D01*
X38750000Y-4127000D01*
X50697394Y-4127000D01*
X51873000Y-5302606D01*
X51873000Y-16197394D01*
X49410197Y-18660197D01*
X49394403Y-18679443D01*
X49382667Y-18701399D01*
X49375440Y-18725224D01*
X49373000Y-18750000D01*
X49373000Y-22250000D01*
X49375440Y-22274776D01*
X49382667Y-22298601D01*
X49394403Y-22320557D01*
X49410197Y-22339803D01*
X58123000Y-31052606D01*
X58123000Y-36500000D01*
X58125440Y-36524776D01*
X58132667Y-36548601D01*
X58144403Y-36570557D01*
X58160197Y-36589803D01*
X58179443Y-36605597D01*
X58201399Y-36617333D01*
X58225224Y-36624560D01*
X58250000Y-36627000D01*
X64697394Y-36627000D01*
X68623000Y-40552606D01*
X68623000Y-43250000D01*
X68625440Y-43274776D01*
X68632667Y-43298601D01*
X68644403Y-43320557D01*
X68660197Y-43339803D01*
X70410197Y-45089803D01*
X70429443Y-45105597D01*
X70451399Y-45117333D01*
X70475224Y-45124560D01*
X70500000Y-45127000D01*
X72000000Y-45127000D01*
X72024776Y-45124560D01*
X72048601Y-45117333D01*
X72070557Y-45105597D01*
X72089803Y-45089803D01*
X72802606Y-44377000D01*
X77200000Y-44377000D01*
X77224776Y-44374560D01*
X77248601Y-44367333D01*
X77270557Y-44355597D01*
X77289803Y-44339803D01*
X77305597Y-44320557D01*
X77317333Y-44298601D01*
X77324560Y-44274776D01*
X77326999Y-44250416D01*
X77376584Y-29127000D01*
X79000000Y-29127000D01*
X79024776Y-29124560D01*
X79048601Y-29117333D01*
X79070557Y-29105597D01*
X79089803Y-29089803D01*
X79105597Y-29070557D01*
X79117333Y-29048601D01*
X79124560Y-29024776D01*
X79127000Y-29000000D01*
X79127000Y-24127000D01*
X91623000Y-24127000D01*
X91623001Y-97623000D01*
X49127000Y-97623000D01*
X49127000Y-91806811D01*
X49442000Y-91806811D01*
X49442000Y-92265189D01*
X49531426Y-92714761D01*
X49706840Y-93138248D01*
X49961501Y-93519376D01*
X50285624Y-93843499D01*
X50666752Y-94098160D01*
X51090239Y-94273574D01*
X51539811Y-94363000D01*
X51998189Y-94363000D01*
X52447761Y-94273574D01*
X52871248Y-94098160D01*
X53252376Y-93843499D01*
X53576499Y-93519376D01*
X53831160Y-93138248D01*
X54006574Y-92714761D01*
X54096000Y-92265189D01*
X54096000Y-91806811D01*
X77892000Y-91806811D01*
X77892000Y-92265189D01*
X77981426Y-92714761D01*
X78156840Y-93138248D01*
X78411501Y-93519376D01*
X78735624Y-93843499D01*
X79116752Y-94098160D01*
X79540239Y-94273574D01*
X79989811Y-94363000D01*
X80448189Y-94363000D01*
X80897761Y-94273574D01*
X81321248Y-94098160D01*
X81702376Y-93843499D01*
X82026499Y-93519376D01*
X82281160Y-93138248D01*
X82456574Y-92714761D01*
X82465016Y-92672319D01*
X83673000Y-92672319D01*
X83673000Y-93327681D01*
X83800855Y-93970450D01*
X84051651Y-94575925D01*
X84415750Y-95120839D01*
X84879161Y-95584250D01*
X85424075Y-95948349D01*
X86029550Y-96199145D01*
X86672319Y-96327000D01*
X87327681Y-96327000D01*
X87970450Y-96199145D01*
X88575925Y-95948349D01*
X89120839Y-95584250D01*
X89584250Y-95120839D01*
X89948349Y-94575925D01*
X90199145Y-93970450D01*
X90327000Y-93327681D01*
X90327000Y-92672319D01*
X90199145Y-92029550D01*
X89948349Y-91424075D01*
X89584250Y-90879161D01*
X89120839Y-90415750D01*
X88575925Y-90051651D01*
X87970450Y-89800855D01*
X87327681Y-89673000D01*
X86672319Y-89673000D01*
X86029550Y-89800855D01*
X85424075Y-90051651D01*
X84879161Y-90415750D01*
X84415750Y-90879161D01*
X84051651Y-91424075D01*
X83800855Y-92029550D01*
X83673000Y-92672319D01*
X82465016Y-92672319D01*
X82546000Y-92265189D01*
X82546000Y-91806811D01*
X82456574Y-91357239D01*
X82281160Y-90933752D01*
X82026499Y-90552624D01*
X81702376Y-90228501D01*
X81321248Y-89973840D01*
X80897761Y-89798426D01*
X80448189Y-89709000D01*
X79989811Y-89709000D01*
X79540239Y-89798426D01*
X79116752Y-89973840D01*
X78735624Y-90228501D01*
X78411501Y-90552624D01*
X78156840Y-90933752D01*
X77981426Y-91357239D01*
X77892000Y-91806811D01*
X54096000Y-91806811D01*
X54006574Y-91357239D01*
X53831160Y-90933752D01*
X53576499Y-90552624D01*
X53252376Y-90228501D01*
X52871248Y-89973840D01*
X52447761Y-89798426D01*
X51998189Y-89709000D01*
X51539811Y-89709000D01*
X51090239Y-89798426D01*
X50666752Y-89973840D01*
X50285624Y-90228501D01*
X49961501Y-90552624D01*
X49706840Y-90933752D01*
X49531426Y-91357239D01*
X49442000Y-91806811D01*
X49127000Y-91806811D01*
X49127000Y-91500000D01*
X49124560Y-91475224D01*
X49117333Y-91451399D01*
X49105597Y-91429443D01*
X49089803Y-91410197D01*
X47377000Y-89697394D01*
X47377000Y-88475302D01*
X48667000Y-88475302D01*
X48667000Y-88736698D01*
X48717996Y-88993072D01*
X48818028Y-89234570D01*
X48963252Y-89451913D01*
X49148087Y-89636748D01*
X49365430Y-89781972D01*
X49606928Y-89882004D01*
X49863302Y-89933000D01*
X50124698Y-89933000D01*
X50381072Y-89882004D01*
X50622570Y-89781972D01*
X50839913Y-89636748D01*
X51024748Y-89451913D01*
X51059586Y-89399774D01*
X53592000Y-89399774D01*
X53592000Y-89592226D01*
X53629546Y-89780980D01*
X53703194Y-89958783D01*
X53810115Y-90118801D01*
X53946199Y-90254885D01*
X54106217Y-90361806D01*
X54284020Y-90435454D01*
X54472774Y-90473000D01*
X54665226Y-90473000D01*
X54853980Y-90435454D01*
X55031783Y-90361806D01*
X55191801Y-90254885D01*
X55327885Y-90118801D01*
X55434806Y-89958783D01*
X55508454Y-89780980D01*
X55546000Y-89592226D01*
X55546000Y-89399774D01*
X57652000Y-89399774D01*
X57652000Y-89592226D01*
X57689546Y-89780980D01*
X57763194Y-89958783D01*
X57870115Y-90118801D01*
X58006199Y-90254885D01*
X58166217Y-90361806D01*
X58344020Y-90435454D01*
X58532774Y-90473000D01*
X58725226Y-90473000D01*
X58913980Y-90435454D01*
X59091783Y-90361806D01*
X59251801Y-90254885D01*
X59387885Y-90118801D01*
X59494806Y-89958783D01*
X59568454Y-89780980D01*
X59606000Y-89592226D01*
X59606000Y-89399774D01*
X69342000Y-89399774D01*
X69342000Y-89592226D01*
X69379546Y-89780980D01*
X69453194Y-89958783D01*
X69560115Y-90118801D01*
X69696199Y-90254885D01*
X69856217Y-90361806D01*
X70034020Y-90435454D01*
X70222774Y-90473000D01*
X70415226Y-90473000D01*
X70603980Y-90435454D01*
X70781783Y-90361806D01*
X70941801Y-90254885D01*
X71077885Y-90118801D01*
X71184806Y-89958783D01*
X71258454Y-89780980D01*
X71296000Y-89592226D01*
X71296000Y-89399774D01*
X73402000Y-89399774D01*
X73402000Y-89592226D01*
X73439546Y-89780980D01*
X73513194Y-89958783D01*
X73620115Y-90118801D01*
X73756199Y-90254885D01*
X73916217Y-90361806D01*
X74094020Y-90435454D01*
X74282774Y-90473000D01*
X74475226Y-90473000D01*
X74663980Y-90435454D01*
X74841783Y-90361806D01*
X75001801Y-90254885D01*
X75137885Y-90118801D01*
X75244806Y-89958783D01*
X75318454Y-89780980D01*
X75356000Y-89592226D01*
X75356000Y-89399774D01*
X75318454Y-89211020D01*
X75244806Y-89033217D01*
X75137885Y-88873199D01*
X75001801Y-88737115D01*
X74841783Y-88630194D01*
X74663980Y-88556546D01*
X74475226Y-88519000D01*
X74282774Y-88519000D01*
X74094020Y-88556546D01*
X73916217Y-88630194D01*
X73756199Y-88737115D01*
X73620115Y-88873199D01*
X73513194Y-89033217D01*
X73439546Y-89211020D01*
X73402000Y-89399774D01*
X71296000Y-89399774D01*
X71258454Y-89211020D01*
X71184806Y-89033217D01*
X71077885Y-88873199D01*
X70941801Y-88737115D01*
X70781783Y-88630194D01*
X70603980Y-88556546D01*
X70415226Y-88519000D01*
X70222774Y-88519000D01*
X70034020Y-88556546D01*
X69856217Y-88630194D01*
X69696199Y-88737115D01*
X69560115Y-88873199D01*
X69453194Y-89033217D01*
X69379546Y-89211020D01*
X69342000Y-89399774D01*
X59606000Y-89399774D01*
X59568454Y-89211020D01*
X59494806Y-89033217D01*
X59387885Y-88873199D01*
X59251801Y-88737115D01*
X59091783Y-88630194D01*
X58913980Y-88556546D01*
X58725226Y-88519000D01*
X58532774Y-88519000D01*
X58344020Y-88556546D01*
X58166217Y-88630194D01*
X58006199Y-88737115D01*
X57870115Y-88873199D01*
X57763194Y-89033217D01*
X57689546Y-89211020D01*
X57652000Y-89399774D01*
X55546000Y-89399774D01*
X55508454Y-89211020D01*
X55434806Y-89033217D01*
X55327885Y-88873199D01*
X55191801Y-88737115D01*
X55031783Y-88630194D01*
X54853980Y-88556546D01*
X54665226Y-88519000D01*
X54472774Y-88519000D01*
X54284020Y-88556546D01*
X54106217Y-88630194D01*
X53946199Y-88737115D01*
X53810115Y-88873199D01*
X53703194Y-89033217D01*
X53629546Y-89211020D01*
X53592000Y-89399774D01*
X51059586Y-89399774D01*
X51169972Y-89234570D01*
X51270004Y-88993072D01*
X51321000Y-88736698D01*
X51321000Y-88475302D01*
X51270004Y-88218928D01*
X51169972Y-87977430D01*
X51024748Y-87760087D01*
X50884435Y-87619774D01*
X54612000Y-87619774D01*
X54612000Y-87812226D01*
X54649546Y-88000980D01*
X54723194Y-88178783D01*
X54830115Y-88338801D01*
X54966199Y-88474885D01*
X55126217Y-88581806D01*
X55304020Y-88655454D01*
X55492774Y-88693000D01*
X55685226Y-88693000D01*
X55873980Y-88655454D01*
X56051783Y-88581806D01*
X56211801Y-88474885D01*
X56347885Y-88338801D01*
X56454806Y-88178783D01*
X56528454Y-88000980D01*
X56566000Y-87812226D01*
X56566000Y-87619774D01*
X56642000Y-87619774D01*
X56642000Y-87812226D01*
X56679546Y-88000980D01*
X56753194Y-88178783D01*
X56860115Y-88338801D01*
X56996199Y-88474885D01*
X57156217Y-88581806D01*
X57334020Y-88655454D01*
X57522774Y-88693000D01*
X57715226Y-88693000D01*
X57903980Y-88655454D01*
X58081783Y-88581806D01*
X58241801Y-88474885D01*
X58377885Y-88338801D01*
X58484806Y-88178783D01*
X58558454Y-88000980D01*
X58596000Y-87812226D01*
X58596000Y-87619774D01*
X58672000Y-87619774D01*
X58672000Y-87812226D01*
X58709546Y-88000980D01*
X58783194Y-88178783D01*
X58890115Y-88338801D01*
X59026199Y-88474885D01*
X59186217Y-88581806D01*
X59364020Y-88655454D01*
X59552774Y-88693000D01*
X59745226Y-88693000D01*
X59933980Y-88655454D01*
X60111783Y-88581806D01*
X60271801Y-88474885D01*
X60407885Y-88338801D01*
X60514806Y-88178783D01*
X60588454Y-88000980D01*
X60626000Y-87812226D01*
X60626000Y-87619774D01*
X60702000Y-87619774D01*
X60702000Y-87812226D01*
X60739546Y-88000980D01*
X60813194Y-88178783D01*
X60920115Y-88338801D01*
X61056199Y-88474885D01*
X61216217Y-88581806D01*
X61394020Y-88655454D01*
X61582774Y-88693000D01*
X61775226Y-88693000D01*
X61963980Y-88655454D01*
X62141783Y-88581806D01*
X62301801Y-88474885D01*
X62437885Y-88338801D01*
X62544806Y-88178783D01*
X62618454Y-88000980D01*
X62656000Y-87812226D01*
X62656000Y-87619774D01*
X70362000Y-87619774D01*
X70362000Y-87812226D01*
X70399546Y-88000980D01*
X70473194Y-88178783D01*
X70580115Y-88338801D01*
X70716199Y-88474885D01*
X70876217Y-88581806D01*
X71054020Y-88655454D01*
X71242774Y-88693000D01*
X71435226Y-88693000D01*
X71623980Y-88655454D01*
X71801783Y-88581806D01*
X71961801Y-88474885D01*
X72097885Y-88338801D01*
X72204806Y-88178783D01*
X72278454Y-88000980D01*
X72316000Y-87812226D01*
X72316000Y-87619774D01*
X72392000Y-87619774D01*
X72392000Y-87812226D01*
X72429546Y-88000980D01*
X72503194Y-88178783D01*
X72610115Y-88338801D01*
X72746199Y-88474885D01*
X72906217Y-88581806D01*
X73084020Y-88655454D01*
X73272774Y-88693000D01*
X73465226Y-88693000D01*
X73653980Y-88655454D01*
X73831783Y-88581806D01*
X73991801Y-88474885D01*
X74127885Y-88338801D01*
X74234806Y-88178783D01*
X74308454Y-88000980D01*
X74346000Y-87812226D01*
X74346000Y-87619774D01*
X74422000Y-87619774D01*
X74422000Y-87812226D01*
X74459546Y-88000980D01*
X74533194Y-88178783D01*
X74640115Y-88338801D01*
X74776199Y-88474885D01*
X74936217Y-88581806D01*
X75114020Y-88655454D01*
X75302774Y-88693000D01*
X75495226Y-88693000D01*
X75683980Y-88655454D01*
X75861783Y-88581806D01*
X76021801Y-88474885D01*
X76157885Y-88338801D01*
X76264806Y-88178783D01*
X76338454Y-88000980D01*
X76376000Y-87812226D01*
X76376000Y-87619774D01*
X76452000Y-87619774D01*
X76452000Y-87812226D01*
X76489546Y-88000980D01*
X76563194Y-88178783D01*
X76670115Y-88338801D01*
X76806199Y-88474885D01*
X76966217Y-88581806D01*
X77144020Y-88655454D01*
X77332774Y-88693000D01*
X77525226Y-88693000D01*
X77713980Y-88655454D01*
X77891783Y-88581806D01*
X78051176Y-88475302D01*
X80667000Y-88475302D01*
X80667000Y-88736698D01*
X80717996Y-88993072D01*
X80818028Y-89234570D01*
X80963252Y-89451913D01*
X81148087Y-89636748D01*
X81365430Y-89781972D01*
X81606928Y-89882004D01*
X81863302Y-89933000D01*
X82124698Y-89933000D01*
X82381072Y-89882004D01*
X82622570Y-89781972D01*
X82839913Y-89636748D01*
X83024748Y-89451913D01*
X83169972Y-89234570D01*
X83270004Y-88993072D01*
X83321000Y-88736698D01*
X83321000Y-88475302D01*
X83270004Y-88218928D01*
X83169972Y-87977430D01*
X83024748Y-87760087D01*
X82839913Y-87575252D01*
X82622570Y-87430028D01*
X82381072Y-87329996D01*
X82124698Y-87279000D01*
X81863302Y-87279000D01*
X81606928Y-87329996D01*
X81365430Y-87430028D01*
X81148087Y-87575252D01*
X80963252Y-87760087D01*
X80818028Y-87977430D01*
X80717996Y-88218928D01*
X80667000Y-88475302D01*
X78051176Y-88475302D01*
X78051801Y-88474885D01*
X78187885Y-88338801D01*
X78294806Y-88178783D01*
X78368454Y-88000980D01*
X78406000Y-87812226D01*
X78406000Y-87619774D01*
X78368454Y-87431020D01*
X78294806Y-87253217D01*
X78187885Y-87093199D01*
X78051801Y-86957115D01*
X77891783Y-86850194D01*
X77713980Y-86776546D01*
X77525226Y-86739000D01*
X77332774Y-86739000D01*
X77144020Y-86776546D01*
X76966217Y-86850194D01*
X76806199Y-86957115D01*
X76670115Y-87093199D01*
X76563194Y-87253217D01*
X76489546Y-87431020D01*
X76452000Y-87619774D01*
X76376000Y-87619774D01*
X76338454Y-87431020D01*
X76264806Y-87253217D01*
X76157885Y-87093199D01*
X76021801Y-86957115D01*
X75861783Y-86850194D01*
X75683980Y-86776546D01*
X75495226Y-86739000D01*
X75302774Y-86739000D01*
X75114020Y-86776546D01*
X74936217Y-86850194D01*
X74776199Y-86957115D01*
X74640115Y-87093199D01*
X74533194Y-87253217D01*
X74459546Y-87431020D01*
X74422000Y-87619774D01*
X74346000Y-87619774D01*
X74308454Y-87431020D01*
X74234806Y-87253217D01*
X74127885Y-87093199D01*
X73991801Y-86957115D01*
X73831783Y-86850194D01*
X73653980Y-86776546D01*
X73465226Y-86739000D01*
X73272774Y-86739000D01*
X73084020Y-86776546D01*
X72906217Y-86850194D01*
X72746199Y-86957115D01*
X72610115Y-87093199D01*
X72503194Y-87253217D01*
X72429546Y-87431020D01*
X72392000Y-87619774D01*
X72316000Y-87619774D01*
X72278454Y-87431020D01*
X72204806Y-87253217D01*
X72097885Y-87093199D01*
X71961801Y-86957115D01*
X71801783Y-86850194D01*
X71623980Y-86776546D01*
X71435226Y-86739000D01*
X71242774Y-86739000D01*
X71054020Y-86776546D01*
X70876217Y-86850194D01*
X70716199Y-86957115D01*
X70580115Y-87093199D01*
X70473194Y-87253217D01*
X70399546Y-87431020D01*
X70362000Y-87619774D01*
X62656000Y-87619774D01*
X62618454Y-87431020D01*
X62544806Y-87253217D01*
X62437885Y-87093199D01*
X62301801Y-86957115D01*
X62141783Y-86850194D01*
X61963980Y-86776546D01*
X61775226Y-86739000D01*
X61582774Y-86739000D01*
X61394020Y-86776546D01*
X61216217Y-86850194D01*
X61056199Y-86957115D01*
X60920115Y-87093199D01*
X60813194Y-87253217D01*
X60739546Y-87431020D01*
X60702000Y-87619774D01*
X60626000Y-87619774D01*
X60588454Y-87431020D01*
X60514806Y-87253217D01*
X60407885Y-87093199D01*
X60271801Y-86957115D01*
X60111783Y-86850194D01*
X59933980Y-86776546D01*
X59745226Y-86739000D01*
X59552774Y-86739000D01*
X59364020Y-86776546D01*
X59186217Y-86850194D01*
X59026199Y-86957115D01*
X58890115Y-87093199D01*
X58783194Y-87253217D01*
X58709546Y-87431020D01*
X58672000Y-87619774D01*
X58596000Y-87619774D01*
X58558454Y-87431020D01*
X58484806Y-87253217D01*
X58377885Y-87093199D01*
X58241801Y-86957115D01*
X58081783Y-86850194D01*
X57903980Y-86776546D01*
X57715226Y-86739000D01*
X57522774Y-86739000D01*
X57334020Y-86776546D01*
X57156217Y-86850194D01*
X56996199Y-86957115D01*
X56860115Y-87093199D01*
X56753194Y-87253217D01*
X56679546Y-87431020D01*
X56642000Y-87619774D01*
X56566000Y-87619774D01*
X56528454Y-87431020D01*
X56454806Y-87253217D01*
X56347885Y-87093199D01*
X56211801Y-86957115D01*
X56051783Y-86850194D01*
X55873980Y-86776546D01*
X55685226Y-86739000D01*
X55492774Y-86739000D01*
X55304020Y-86776546D01*
X55126217Y-86850194D01*
X54966199Y-86957115D01*
X54830115Y-87093199D01*
X54723194Y-87253217D01*
X54649546Y-87431020D01*
X54612000Y-87619774D01*
X50884435Y-87619774D01*
X50839913Y-87575252D01*
X50622570Y-87430028D01*
X50381072Y-87329996D01*
X50124698Y-87279000D01*
X49863302Y-87279000D01*
X49606928Y-87329996D01*
X49365430Y-87430028D01*
X49148087Y-87575252D01*
X48963252Y-87760087D01*
X48818028Y-87977430D01*
X48717996Y-88218928D01*
X48667000Y-88475302D01*
X47377000Y-88475302D01*
X47377000Y-75250000D01*
X47374560Y-75225224D01*
X47367333Y-75201399D01*
X47355597Y-75179443D01*
X47339803Y-75160197D01*
X43339803Y-71160197D01*
X43320557Y-71144403D01*
X43298601Y-71132667D01*
X43274776Y-71125440D01*
X43250000Y-71123000D01*
X35552606Y-71123000D01*
X31336691Y-66907085D01*
X70662000Y-66907085D01*
X70662000Y-67074915D01*
X70694742Y-67239519D01*
X70758968Y-67394573D01*
X70852209Y-67534118D01*
X70970882Y-67652791D01*
X71110427Y-67746032D01*
X71265481Y-67810258D01*
X71430085Y-67843000D01*
X71597915Y-67843000D01*
X71762519Y-67810258D01*
X71917573Y-67746032D01*
X72057118Y-67652791D01*
X72149000Y-67560909D01*
X72240882Y-67652791D01*
X72380427Y-67746032D01*
X72535481Y-67810258D01*
X72700085Y-67843000D01*
X72867915Y-67843000D01*
X73032519Y-67810258D01*
X73187573Y-67746032D01*
X73327118Y-67652791D01*
X73419000Y-67560909D01*
X73510882Y-67652791D01*
X73650427Y-67746032D01*
X73805481Y-67810258D01*
X73970085Y-67843000D01*
X74137915Y-67843000D01*
X74302519Y-67810258D01*
X74457573Y-67746032D01*
X74597118Y-67652791D01*
X74689000Y-67560909D01*
X74780882Y-67652791D01*
X74920427Y-67746032D01*
X75075481Y-67810258D01*
X75240085Y-67843000D01*
X75407915Y-67843000D01*
X75572519Y-67810258D01*
X75727573Y-67746032D01*
X75740418Y-67737449D01*
X75740418Y-68786000D01*
X75746732Y-68850103D01*
X75765430Y-68911743D01*
X75795794Y-68968550D01*
X75836657Y-69018343D01*
X75886450Y-69059206D01*
X75943257Y-69089570D01*
X76004897Y-69108268D01*
X76069000Y-69114582D01*
X77119000Y-69114582D01*
X77183103Y-69108268D01*
X77244743Y-69089570D01*
X77301550Y-69059206D01*
X77351343Y-69018343D01*
X77392206Y-68968550D01*
X77422570Y-68911743D01*
X77441268Y-68850103D01*
X77447582Y-68786000D01*
X77447582Y-68286000D01*
X79753090Y-68286000D01*
X79778711Y-68546137D01*
X79854591Y-68796278D01*
X79977812Y-69026808D01*
X80143640Y-69228870D01*
X80345702Y-69394698D01*
X80576232Y-69517919D01*
X80826373Y-69593799D01*
X81021326Y-69613000D01*
X82166674Y-69613000D01*
X82361627Y-69593799D01*
X82611768Y-69517919D01*
X82842298Y-69394698D01*
X83044360Y-69228870D01*
X83210188Y-69026808D01*
X83333409Y-68796278D01*
X83409289Y-68546137D01*
X83434910Y-68286000D01*
X86753090Y-68286000D01*
X86778711Y-68546137D01*
X86854591Y-68796278D01*
X86977812Y-69026808D01*
X87143640Y-69228870D01*
X87345702Y-69394698D01*
X87576232Y-69517919D01*
X87826373Y-69593799D01*
X88021326Y-69613000D01*
X89166674Y-69613000D01*
X89361627Y-69593799D01*
X89611768Y-69517919D01*
X89842298Y-69394698D01*
X90044360Y-69228870D01*
X90210188Y-69026808D01*
X90333409Y-68796278D01*
X90409289Y-68546137D01*
X90434910Y-68286000D01*
X90409289Y-68025863D01*
X90333409Y-67775722D01*
X90210188Y-67545192D01*
X90044360Y-67343130D01*
X89842298Y-67177302D01*
X89611768Y-67054081D01*
X89361627Y-66978201D01*
X89166674Y-66959000D01*
X88021326Y-66959000D01*
X87826373Y-66978201D01*
X87576232Y-67054081D01*
X87345702Y-67177302D01*
X87143640Y-67343130D01*
X86977812Y-67545192D01*
X86854591Y-67775722D01*
X86778711Y-68025863D01*
X86753090Y-68286000D01*
X83434910Y-68286000D01*
X83409289Y-68025863D01*
X83333409Y-67775722D01*
X83210188Y-67545192D01*
X83044360Y-67343130D01*
X82842298Y-67177302D01*
X82611768Y-67054081D01*
X82361627Y-66978201D01*
X82166674Y-66959000D01*
X81021326Y-66959000D01*
X80826373Y-66978201D01*
X80576232Y-67054081D01*
X80345702Y-67177302D01*
X80143640Y-67343130D01*
X79977812Y-67545192D01*
X79854591Y-67775722D01*
X79778711Y-68025863D01*
X79753090Y-68286000D01*
X77447582Y-68286000D01*
X77447582Y-67736000D01*
X77441268Y-67671897D01*
X77422570Y-67610257D01*
X77392206Y-67553450D01*
X77351343Y-67503657D01*
X77302776Y-67463800D01*
X77349032Y-67394573D01*
X77413258Y-67239519D01*
X77446000Y-67074915D01*
X77446000Y-66907085D01*
X77413258Y-66742481D01*
X77349032Y-66587427D01*
X77255791Y-66447882D01*
X77137118Y-66329209D01*
X76997573Y-66235968D01*
X76842519Y-66171742D01*
X76677915Y-66139000D01*
X76510085Y-66139000D01*
X76345481Y-66171742D01*
X76190427Y-66235968D01*
X76050882Y-66329209D01*
X75959000Y-66421091D01*
X75867118Y-66329209D01*
X75727573Y-66235968D01*
X75572519Y-66171742D01*
X75407915Y-66139000D01*
X75240085Y-66139000D01*
X75075481Y-66171742D01*
X74920427Y-66235968D01*
X74780882Y-66329209D01*
X74689000Y-66421091D01*
X74597118Y-66329209D01*
X74457573Y-66235968D01*
X74302519Y-66171742D01*
X74137915Y-66139000D01*
X73970085Y-66139000D01*
X73805481Y-66171742D01*
X73650427Y-66235968D01*
X73510882Y-66329209D01*
X73419000Y-66421091D01*
X73327118Y-66329209D01*
X73187573Y-66235968D01*
X73032519Y-66171742D01*
X72867915Y-66139000D01*
X72700085Y-66139000D01*
X72535481Y-66171742D01*
X72380427Y-66235968D01*
X72240882Y-66329209D01*
X72149000Y-66421091D01*
X72057118Y-66329209D01*
X71917573Y-66235968D01*
X71762519Y-66171742D01*
X71597915Y-66139000D01*
X71430085Y-66139000D01*
X71265481Y-66171742D01*
X71110427Y-66235968D01*
X70970882Y-66329209D01*
X70852209Y-66447882D01*
X70758968Y-66587427D01*
X70694742Y-66742481D01*
X70662000Y-66907085D01*
X31336691Y-66907085D01*
X29467852Y-65038246D01*
X47298000Y-65038246D01*
X47298000Y-65161754D01*
X47322095Y-65282889D01*
X47369360Y-65396996D01*
X47437977Y-65499689D01*
X47525311Y-65587023D01*
X47628004Y-65655640D01*
X47742111Y-65702905D01*
X47863246Y-65727000D01*
X47986754Y-65727000D01*
X48107889Y-65702905D01*
X48221996Y-65655640D01*
X48324689Y-65587023D01*
X48412023Y-65499689D01*
X48480640Y-65396996D01*
X48527905Y-65282889D01*
X48552000Y-65161754D01*
X48552000Y-65038246D01*
X48527905Y-64917111D01*
X48480640Y-64803004D01*
X48469279Y-64786000D01*
X79753090Y-64786000D01*
X79778711Y-65046137D01*
X79854591Y-65296278D01*
X79977812Y-65526808D01*
X80143640Y-65728870D01*
X80345702Y-65894698D01*
X80576232Y-66017919D01*
X80826373Y-66093799D01*
X81021326Y-66113000D01*
X82166674Y-66113000D01*
X82361627Y-66093799D01*
X82611768Y-66017919D01*
X82842298Y-65894698D01*
X83044360Y-65728870D01*
X83210188Y-65526808D01*
X83333409Y-65296278D01*
X83409289Y-65046137D01*
X83434910Y-64786000D01*
X86753090Y-64786000D01*
X86778711Y-65046137D01*
X86854591Y-65296278D01*
X86977812Y-65526808D01*
X87143640Y-65728870D01*
X87345702Y-65894698D01*
X87576232Y-66017919D01*
X87826373Y-66093799D01*
X88021326Y-66113000D01*
X89166674Y-66113000D01*
X89361627Y-66093799D01*
X89611768Y-66017919D01*
X89842298Y-65894698D01*
X90044360Y-65728870D01*
X90210188Y-65526808D01*
X90333409Y-65296278D01*
X90409289Y-65046137D01*
X90434910Y-64786000D01*
X90409289Y-64525863D01*
X90333409Y-64275722D01*
X90210188Y-64045192D01*
X90044360Y-63843130D01*
X89842298Y-63677302D01*
X89611768Y-63554081D01*
X89361627Y-63478201D01*
X89166674Y-63459000D01*
X88021326Y-63459000D01*
X87826373Y-63478201D01*
X87576232Y-63554081D01*
X87345702Y-63677302D01*
X87143640Y-63843130D01*
X86977812Y-64045192D01*
X86854591Y-64275722D01*
X86778711Y-64525863D01*
X86753090Y-64786000D01*
X83434910Y-64786000D01*
X83409289Y-64525863D01*
X83333409Y-64275722D01*
X83210188Y-64045192D01*
X83044360Y-63843130D01*
X82842298Y-63677302D01*
X82611768Y-63554081D01*
X82361627Y-63478201D01*
X82166674Y-63459000D01*
X81021326Y-63459000D01*
X80826373Y-63478201D01*
X80576232Y-63554081D01*
X80345702Y-63677302D01*
X80143640Y-63843130D01*
X79977812Y-64045192D01*
X79854591Y-64275722D01*
X79778711Y-64525863D01*
X79753090Y-64786000D01*
X48469279Y-64786000D01*
X48412023Y-64700311D01*
X48379000Y-64667288D01*
X48379000Y-61957712D01*
X48462023Y-61874689D01*
X48530640Y-61771996D01*
X48577905Y-61657889D01*
X48602000Y-61536754D01*
X48602000Y-61413246D01*
X48577905Y-61292111D01*
X48530640Y-61178004D01*
X48462023Y-61075311D01*
X48374689Y-60987977D01*
X48271996Y-60919360D01*
X48157889Y-60872095D01*
X48036754Y-60848000D01*
X47913246Y-60848000D01*
X47792111Y-60872095D01*
X47678004Y-60919360D01*
X47575311Y-60987977D01*
X47487977Y-61075311D01*
X47419360Y-61178004D01*
X47372095Y-61292111D01*
X47348000Y-61413246D01*
X47348000Y-61536754D01*
X47372095Y-61657889D01*
X47419360Y-61771996D01*
X47471000Y-61849281D01*
X47471001Y-64667287D01*
X47437977Y-64700311D01*
X47369360Y-64803004D01*
X47322095Y-64917111D01*
X47298000Y-65038246D01*
X29467852Y-65038246D01*
X28877000Y-64447394D01*
X28877000Y-55750000D01*
X28874560Y-55725224D01*
X28867333Y-55701399D01*
X28855597Y-55679443D01*
X28839803Y-55660197D01*
X28089803Y-54910197D01*
X28070557Y-54894403D01*
X28048601Y-54882667D01*
X28024776Y-54875440D01*
X28000000Y-54873000D01*
X25127000Y-54873000D01*
X25127000Y-54300000D01*
X40571418Y-54300000D01*
X40571418Y-56000000D01*
X40577732Y-56064103D01*
X40596430Y-56125743D01*
X40626794Y-56182550D01*
X40667657Y-56232343D01*
X40717450Y-56273206D01*
X40774257Y-56303570D01*
X40835897Y-56322268D01*
X40900000Y-56328582D01*
X42600000Y-56328582D01*
X42664103Y-56322268D01*
X42725743Y-56303570D01*
X42782550Y-56273206D01*
X42832343Y-56232343D01*
X42873206Y-56182550D01*
X42903570Y-56125743D01*
X42922268Y-56064103D01*
X42928582Y-56000000D01*
X42928582Y-55150000D01*
X43107306Y-55150000D01*
X43130031Y-55380732D01*
X43197333Y-55602597D01*
X43306626Y-55807070D01*
X43453709Y-55986291D01*
X43632930Y-56133374D01*
X43837403Y-56242667D01*
X44059268Y-56309969D01*
X44232188Y-56327000D01*
X44347812Y-56327000D01*
X44520732Y-56309969D01*
X44742597Y-56242667D01*
X44947070Y-56133374D01*
X45126291Y-55986291D01*
X45273374Y-55807070D01*
X45382667Y-55602597D01*
X45449969Y-55380732D01*
X45472694Y-55150000D01*
X45647306Y-55150000D01*
X45670031Y-55380732D01*
X45737333Y-55602597D01*
X45846626Y-55807070D01*
X45993709Y-55986291D01*
X46172930Y-56133374D01*
X46377403Y-56242667D01*
X46599268Y-56309969D01*
X46772188Y-56327000D01*
X46887812Y-56327000D01*
X47060732Y-56309969D01*
X47282597Y-56242667D01*
X47487070Y-56133374D01*
X47666291Y-55986291D01*
X47813374Y-55807070D01*
X47922667Y-55602597D01*
X47989969Y-55380732D01*
X48012694Y-55150000D01*
X47989969Y-54919268D01*
X47922667Y-54697403D01*
X47813374Y-54492930D01*
X47666291Y-54313709D01*
X47487070Y-54166626D01*
X47282597Y-54057333D01*
X47060732Y-53990031D01*
X46887812Y-53973000D01*
X46772188Y-53973000D01*
X46599268Y-53990031D01*
X46377403Y-54057333D01*
X46172930Y-54166626D01*
X45993709Y-54313709D01*
X45846626Y-54492930D01*
X45737333Y-54697403D01*
X45670031Y-54919268D01*
X45647306Y-55150000D01*
X45472694Y-55150000D01*
X45449969Y-54919268D01*
X45382667Y-54697403D01*
X45273374Y-54492930D01*
X45126291Y-54313709D01*
X44947070Y-54166626D01*
X44742597Y-54057333D01*
X44520732Y-53990031D01*
X44347812Y-53973000D01*
X44232188Y-53973000D01*
X44059268Y-53990031D01*
X43837403Y-54057333D01*
X43632930Y-54166626D01*
X43453709Y-54313709D01*
X43306626Y-54492930D01*
X43197333Y-54697403D01*
X43130031Y-54919268D01*
X43107306Y-55150000D01*
X42928582Y-55150000D01*
X42928582Y-54300000D01*
X42922268Y-54235897D01*
X42903570Y-54174257D01*
X42873206Y-54117450D01*
X42832343Y-54067657D01*
X42782550Y-54026794D01*
X42725743Y-53996430D01*
X42664103Y-53977732D01*
X42600000Y-53971418D01*
X40900000Y-53971418D01*
X40835897Y-53977732D01*
X40774257Y-53996430D01*
X40717450Y-54026794D01*
X40667657Y-54067657D01*
X40626794Y-54117450D01*
X40596430Y-54174257D01*
X40577732Y-54235897D01*
X40571418Y-54300000D01*
X25127000Y-54300000D01*
X25127000Y-53500000D01*
X53623000Y-53500000D01*
X53623000Y-60500000D01*
X53625440Y-60524776D01*
X53632667Y-60548601D01*
X53644403Y-60570557D01*
X53660197Y-60589803D01*
X54910197Y-61839803D01*
X54929443Y-61855597D01*
X54951399Y-61867333D01*
X54975224Y-61874560D01*
X55000000Y-61877000D01*
X57500000Y-61877000D01*
X57524776Y-61874560D01*
X57548601Y-61867333D01*
X57570557Y-61855597D01*
X57589803Y-61839803D01*
X59339803Y-60089803D01*
X59355597Y-60070557D01*
X59367333Y-60048601D01*
X59374560Y-60024776D01*
X59377000Y-60000000D01*
X59377000Y-57877000D01*
X59750000Y-57877000D01*
X59774776Y-57874560D01*
X59798601Y-57867333D01*
X59820557Y-57855597D01*
X59839803Y-57839803D01*
X60655360Y-57024246D01*
X65667000Y-57024246D01*
X65667000Y-57147754D01*
X65691095Y-57268889D01*
X65738360Y-57382996D01*
X65806977Y-57485689D01*
X65840001Y-57518713D01*
X65840000Y-60738712D01*
X65837805Y-60761000D01*
X65840000Y-60783288D01*
X65840000Y-60783294D01*
X65845654Y-60840698D01*
X65846570Y-60849999D01*
X65857619Y-60886422D01*
X65872530Y-60935578D01*
X65914687Y-61014448D01*
X65967000Y-61078192D01*
X65967000Y-61122754D01*
X65991095Y-61243889D01*
X66038360Y-61357996D01*
X66106977Y-61460689D01*
X66194311Y-61548023D01*
X66297004Y-61616640D01*
X66411111Y-61663905D01*
X66532246Y-61688000D01*
X66655754Y-61688000D01*
X66776889Y-61663905D01*
X66890996Y-61616640D01*
X66993689Y-61548023D01*
X67081023Y-61460689D01*
X67149640Y-61357996D01*
X67196905Y-61243889D01*
X67221000Y-61122754D01*
X67221000Y-60999246D01*
X67196905Y-60878111D01*
X67149640Y-60764004D01*
X67081023Y-60661311D01*
X66993689Y-60573977D01*
X66890996Y-60505360D01*
X66776889Y-60458095D01*
X66748000Y-60452349D01*
X66748000Y-58834472D01*
X85867000Y-58834472D01*
X85867000Y-58987528D01*
X85896859Y-59137643D01*
X85955431Y-59279048D01*
X86040464Y-59406309D01*
X86148691Y-59514536D01*
X86275952Y-59599569D01*
X86417357Y-59658141D01*
X86567472Y-59688000D01*
X86720528Y-59688000D01*
X86870643Y-59658141D01*
X87012048Y-59599569D01*
X87139309Y-59514536D01*
X87247536Y-59406309D01*
X87332569Y-59279048D01*
X87391141Y-59137643D01*
X87421000Y-58987528D01*
X87421000Y-58834472D01*
X87391141Y-58684357D01*
X87332569Y-58542952D01*
X87247536Y-58415691D01*
X87139309Y-58307464D01*
X87012048Y-58222431D01*
X86870643Y-58163859D01*
X86720528Y-58134000D01*
X86567472Y-58134000D01*
X86417357Y-58163859D01*
X86275952Y-58222431D01*
X86148691Y-58307464D01*
X86040464Y-58415691D01*
X85955431Y-58542952D01*
X85896859Y-58684357D01*
X85867000Y-58834472D01*
X66748000Y-58834472D01*
X66748000Y-57518712D01*
X66781023Y-57485689D01*
X66849640Y-57382996D01*
X66896905Y-57268889D01*
X66921000Y-57147754D01*
X66921000Y-57024246D01*
X66896905Y-56903111D01*
X66849640Y-56789004D01*
X66781023Y-56686311D01*
X66693689Y-56598977D01*
X66590996Y-56530360D01*
X66476889Y-56483095D01*
X66355754Y-56459000D01*
X66232246Y-56459000D01*
X66111111Y-56483095D01*
X65997004Y-56530360D01*
X65894311Y-56598977D01*
X65806977Y-56686311D01*
X65738360Y-56789004D01*
X65691095Y-56903111D01*
X65667000Y-57024246D01*
X60655360Y-57024246D01*
X60802606Y-56877000D01*
X62000000Y-56877000D01*
X62024776Y-56874560D01*
X62048601Y-56867333D01*
X62070557Y-56855597D01*
X62089803Y-56839803D01*
X62105597Y-56820557D01*
X62117333Y-56798601D01*
X62124560Y-56774776D01*
X62127000Y-56750000D01*
X62127000Y-55000000D01*
X62124560Y-54975224D01*
X62117333Y-54951399D01*
X62105597Y-54929443D01*
X62089803Y-54910197D01*
X62070557Y-54894403D01*
X62048601Y-54882667D01*
X62024776Y-54875440D01*
X62000000Y-54873000D01*
X60302606Y-54873000D01*
X59864078Y-54434472D01*
X85867000Y-54434472D01*
X85867000Y-54587528D01*
X85896859Y-54737643D01*
X85955431Y-54879048D01*
X86040464Y-55006309D01*
X86148691Y-55114536D01*
X86275952Y-55199569D01*
X86417357Y-55258141D01*
X86567472Y-55288000D01*
X86720528Y-55288000D01*
X86870643Y-55258141D01*
X87012048Y-55199569D01*
X87139309Y-55114536D01*
X87247536Y-55006309D01*
X87332569Y-54879048D01*
X87391141Y-54737643D01*
X87421000Y-54587528D01*
X87421000Y-54434472D01*
X87391141Y-54284357D01*
X87332569Y-54142952D01*
X87247536Y-54015691D01*
X87139309Y-53907464D01*
X87012048Y-53822431D01*
X86870643Y-53763859D01*
X86720528Y-53734000D01*
X86567472Y-53734000D01*
X86417357Y-53763859D01*
X86275952Y-53822431D01*
X86148691Y-53907464D01*
X86040464Y-54015691D01*
X85955431Y-54142952D01*
X85896859Y-54284357D01*
X85867000Y-54434472D01*
X59864078Y-54434472D01*
X59589803Y-54160197D01*
X59570557Y-54144403D01*
X59548601Y-54132667D01*
X59524776Y-54125440D01*
X59500000Y-54123000D01*
X59302606Y-54123000D01*
X58377000Y-53197394D01*
X58377000Y-52750000D01*
X58374560Y-52725224D01*
X58367333Y-52701399D01*
X58355597Y-52679443D01*
X58339803Y-52660197D01*
X57589803Y-51910197D01*
X57570557Y-51894403D01*
X57548601Y-51882667D01*
X57524776Y-51875440D01*
X57500000Y-51873000D01*
X55250000Y-51873000D01*
X55225224Y-51875440D01*
X55201399Y-51882667D01*
X55179443Y-51894403D01*
X55160197Y-51910197D01*
X53660197Y-53410197D01*
X53644403Y-53429443D01*
X53632667Y-53451399D01*
X53625440Y-53475224D01*
X53623000Y-53500000D01*
X25127000Y-53500000D01*
X25127000Y-51750000D01*
X25124560Y-51725224D01*
X25117333Y-51701399D01*
X25105597Y-51679443D01*
X25089803Y-51660197D01*
X25070557Y-51644403D01*
X25048601Y-51632667D01*
X25024776Y-51625440D01*
X25000000Y-51623000D01*
X20127000Y-51623000D01*
X20127000Y-48802606D01*
X21589803Y-47339803D01*
X21605597Y-47320557D01*
X21617333Y-47298601D01*
X21624560Y-47274776D01*
X21627000Y-47250000D01*
X21627000Y-46672319D01*
X83673000Y-46672319D01*
X83673000Y-47327681D01*
X83800855Y-47970450D01*
X84051651Y-48575925D01*
X84415750Y-49120839D01*
X84879161Y-49584250D01*
X85424075Y-49948349D01*
X86029550Y-50199145D01*
X86672319Y-50327000D01*
X87327681Y-50327000D01*
X87970450Y-50199145D01*
X88575925Y-49948349D01*
X89120839Y-49584250D01*
X89584250Y-49120839D01*
X89948349Y-48575925D01*
X90199145Y-47970450D01*
X90327000Y-47327681D01*
X90327000Y-46672319D01*
X90199145Y-46029550D01*
X89948349Y-45424075D01*
X89584250Y-44879161D01*
X89120839Y-44415750D01*
X88575925Y-44051651D01*
X87970450Y-43800855D01*
X87327681Y-43673000D01*
X86672319Y-43673000D01*
X86029550Y-43800855D01*
X85424075Y-44051651D01*
X84879161Y-44415750D01*
X84415750Y-44879161D01*
X84051651Y-45424075D01*
X83800855Y-46029550D01*
X83673000Y-46672319D01*
X21627000Y-46672319D01*
X21627000Y-38052606D01*
X24589803Y-35089803D01*
X24605597Y-35070557D01*
X24617333Y-35048601D01*
X24624560Y-35024776D01*
X24627000Y-35000000D01*
X24624560Y-34975224D01*
X24617333Y-34951399D01*
X24605597Y-34929443D01*
X24589803Y-34910197D01*
X24570557Y-34894403D01*
X24548601Y-34882667D01*
X24524776Y-34875440D01*
X24500000Y-34873000D01*
X24000000Y-34873000D01*
X23975224Y-34875440D01*
X23951399Y-34882667D01*
X23929443Y-34894403D01*
X23910197Y-34910197D01*
X20910197Y-37910197D01*
X20894403Y-37929443D01*
X20882667Y-37951399D01*
X20875440Y-37975224D01*
X20873000Y-38000000D01*
X20873000Y-46947394D01*
X19410197Y-48410197D01*
X19394403Y-48429443D01*
X19382667Y-48451399D01*
X19375440Y-48475224D01*
X19373000Y-48500000D01*
X19373000Y-52250000D01*
X19375440Y-52274776D01*
X19382667Y-52298601D01*
X19394403Y-52320557D01*
X19410197Y-52339803D01*
X19429443Y-52355597D01*
X19451399Y-52367333D01*
X19475224Y-52374560D01*
X19500000Y-52377000D01*
X24373000Y-52377000D01*
X24373000Y-55500000D01*
X24375440Y-55524776D01*
X24382667Y-55548601D01*
X24394403Y-55570557D01*
X24410197Y-55589803D01*
X24429443Y-55605597D01*
X24451399Y-55617333D01*
X24475224Y-55624560D01*
X24500000Y-55627000D01*
X27873000Y-55627000D01*
X27873000Y-65000000D01*
X27875440Y-65024776D01*
X27882667Y-65048601D01*
X27894403Y-65070557D01*
X27910197Y-65089803D01*
X34910197Y-72089803D01*
X34929443Y-72105597D01*
X34951399Y-72117333D01*
X34975224Y-72124560D01*
X35000000Y-72127000D01*
X42947394Y-72127000D01*
X46373000Y-75552606D01*
X46373000Y-90000000D01*
X46375440Y-90024776D01*
X46382667Y-90048601D01*
X46394403Y-90070557D01*
X46410197Y-90089803D01*
X48373000Y-92052606D01*
X48373000Y-97623000D01*
X377000Y-97623000D01*
X377000Y-92672319D01*
X1673000Y-92672319D01*
X1673000Y-93327681D01*
X1800855Y-93970450D01*
X2051651Y-94575925D01*
X2415750Y-95120839D01*
X2879161Y-95584250D01*
X3424075Y-95948349D01*
X4029550Y-96199145D01*
X4672319Y-96327000D01*
X5327681Y-96327000D01*
X5970450Y-96199145D01*
X6575925Y-95948349D01*
X7120839Y-95584250D01*
X7584250Y-95120839D01*
X7948349Y-94575925D01*
X8199145Y-93970450D01*
X8327000Y-93327681D01*
X8327000Y-92672319D01*
X8199145Y-92029550D01*
X7948349Y-91424075D01*
X7584250Y-90879161D01*
X7120839Y-90415750D01*
X6575925Y-90051651D01*
X5970450Y-89800855D01*
X5327681Y-89673000D01*
X4672319Y-89673000D01*
X4029550Y-89800855D01*
X3424075Y-90051651D01*
X2879161Y-90415750D01*
X2415750Y-90879161D01*
X2051651Y-91424075D01*
X1800855Y-92029550D01*
X1673000Y-92672319D01*
X377000Y-92672319D01*
X377000Y-44127000D01*
X3311307Y-44127000D01*
X2879161Y-44415750D01*
X2415750Y-44879161D01*
X2051651Y-45424075D01*
X1800855Y-46029550D01*
X1673000Y-46672319D01*
X1673000Y-47327681D01*
X1800855Y-47970450D01*
X2051651Y-48575925D01*
X2415750Y-49120839D01*
X2879161Y-49584250D01*
X3424075Y-49948349D01*
X4029550Y-50199145D01*
X4672319Y-50327000D01*
X5327681Y-50327000D01*
X5970450Y-50199145D01*
X6575925Y-49948349D01*
X7120839Y-49584250D01*
X7584250Y-49120839D01*
X7948349Y-48575925D01*
X8199145Y-47970450D01*
X8327000Y-47327681D01*
X8327000Y-46672319D01*
X8199145Y-46029550D01*
X7948349Y-45424075D01*
X7584250Y-44879161D01*
X7120839Y-44415750D01*
X6688693Y-44127000D01*
X15000000Y-44127000D01*
X15024776Y-44124560D01*
X15048601Y-44117333D01*
X15070557Y-44105597D01*
X15089803Y-44089803D01*
X17589803Y-41589803D01*
X17605597Y-41570557D01*
X17617333Y-41548601D01*
X17624560Y-41524776D01*
X17627000Y-41500000D01*
X17627000Y-36552606D01*
X22089803Y-32089803D01*
X22105597Y-32070557D01*
X22117333Y-32048601D01*
X22124560Y-32024776D01*
X22127000Y-32000000D01*
X22127000Y-28000000D01*
X22124560Y-27975224D01*
X22117333Y-27951399D01*
X22105597Y-27929443D01*
X22089803Y-27910197D01*
X22070557Y-27894403D01*
X22048601Y-27882667D01*
X22024776Y-27875440D01*
X22000000Y-27873000D01*
X13377000Y-27873000D01*
X13377000Y-15627000D01*
X29750000Y-15627000D01*
X29774776Y-15624560D01*
X29798601Y-15617333D01*
X29820557Y-15605597D01*
X29839803Y-15589803D01*
X29855597Y-15570557D01*
X29867333Y-15548601D01*
X29874560Y-15524776D01*
X29877000Y-15500000D01*
X29877000Y-3377000D01*
X38623000Y-3377000D01*
X38623000Y-4000000D01*
G36*
X91623000Y-18373000D02*
G01*
X85988098Y-18373000D01*
X85947743Y-18351430D01*
X85886103Y-18332732D01*
X85822000Y-18326418D01*
X85422000Y-18326418D01*
X85357897Y-18332732D01*
X85296257Y-18351430D01*
X85255902Y-18373000D01*
X78127000Y-18373000D01*
X78127000Y-377000D01*
X91623000Y-377000D01*
X91623000Y-18373000D01*
X91623000Y-18373000D01*
G37*
X91623000Y-18373000D02*
X85988098Y-18373000D01*
X85947743Y-18351430D01*
X85886103Y-18332732D01*
X85822000Y-18326418D01*
X85422000Y-18326418D01*
X85357897Y-18332732D01*
X85296257Y-18351430D01*
X85255902Y-18373000D01*
X78127000Y-18373000D01*
X78127000Y-377000D01*
X91623000Y-377000D01*
X91623000Y-18373000D01*
G36*
X64410197Y-15089803D02*
G01*
X64429443Y-15105597D01*
X64451399Y-15117333D01*
X64475224Y-15124560D01*
X64500000Y-15127000D01*
X76873000Y-15127000D01*
X76873000Y-19000000D01*
X76875440Y-19024776D01*
X76882667Y-19048601D01*
X76894403Y-19070557D01*
X76910197Y-19089803D01*
X76929443Y-19105597D01*
X76951399Y-19117333D01*
X76975224Y-19124560D01*
X77000000Y-19127000D01*
X83749901Y-19127000D01*
X83732860Y-19152504D01*
X83685595Y-19266611D01*
X83661500Y-19387746D01*
X83661500Y-19511254D01*
X83685595Y-19632389D01*
X83732860Y-19746496D01*
X83801477Y-19849189D01*
X83888811Y-19936523D01*
X83991504Y-20005140D01*
X84105611Y-20052405D01*
X84226746Y-20076500D01*
X84350254Y-20076500D01*
X84471389Y-20052405D01*
X84585496Y-20005140D01*
X84688189Y-19936523D01*
X84775523Y-19849189D01*
X84844140Y-19746496D01*
X84891405Y-19632389D01*
X84915500Y-19511254D01*
X84915500Y-19387746D01*
X84891405Y-19266611D01*
X84844140Y-19152504D01*
X84828200Y-19128648D01*
X84828200Y-19127000D01*
X85093418Y-19127000D01*
X85093418Y-19355000D01*
X85099732Y-19419103D01*
X85118430Y-19480743D01*
X85148794Y-19537550D01*
X85189657Y-19587343D01*
X85239450Y-19628206D01*
X85296257Y-19658570D01*
X85357897Y-19677268D01*
X85422000Y-19683582D01*
X85822000Y-19683582D01*
X85886103Y-19677268D01*
X85947743Y-19658570D01*
X86004550Y-19628206D01*
X86054343Y-19587343D01*
X86095206Y-19537550D01*
X86125570Y-19480743D01*
X86144268Y-19419103D01*
X86150582Y-19355000D01*
X86150582Y-19127000D01*
X91623000Y-19127000D01*
X91623000Y-22873000D01*
X84852000Y-22873000D01*
X84852000Y-22753246D01*
X84827905Y-22632111D01*
X84780640Y-22518004D01*
X84712023Y-22415311D01*
X84624689Y-22327977D01*
X84521996Y-22259360D01*
X84407889Y-22212095D01*
X84286754Y-22188000D01*
X84163246Y-22188000D01*
X84042111Y-22212095D01*
X83928004Y-22259360D01*
X83825311Y-22327977D01*
X83737977Y-22415311D01*
X83669360Y-22518004D01*
X83622095Y-22632111D01*
X83598000Y-22753246D01*
X83598000Y-22873000D01*
X78500000Y-22873000D01*
X78475224Y-22875440D01*
X78451399Y-22882667D01*
X78429443Y-22894403D01*
X78410197Y-22910197D01*
X78394403Y-22929443D01*
X78382667Y-22951399D01*
X78375440Y-22975224D01*
X78373000Y-23000000D01*
X78373000Y-28373000D01*
X76750000Y-28373000D01*
X76725224Y-28375440D01*
X76701399Y-28382667D01*
X76679443Y-28394403D01*
X76660197Y-28410197D01*
X76644403Y-28429443D01*
X76632667Y-28451399D01*
X76625440Y-28475224D01*
X76623000Y-28500000D01*
X76623000Y-43623000D01*
X72750000Y-43623000D01*
X72725224Y-43625440D01*
X72701399Y-43632667D01*
X72679443Y-43644403D01*
X72660197Y-43660197D01*
X71947394Y-44373000D01*
X70552606Y-44373000D01*
X69377000Y-43197394D01*
X69377000Y-40250000D01*
X69374560Y-40225224D01*
X69367333Y-40201399D01*
X69355597Y-40179443D01*
X69339803Y-40160197D01*
X65089803Y-35910197D01*
X65070557Y-35894403D01*
X65048601Y-35882667D01*
X65024776Y-35875440D01*
X65000000Y-35873000D01*
X59127000Y-35873000D01*
X59127000Y-30000000D01*
X59124560Y-29975224D01*
X59117333Y-29951399D01*
X59105597Y-29929443D01*
X59089803Y-29910197D01*
X59070557Y-29894403D01*
X59048601Y-29882667D01*
X59024776Y-29875440D01*
X59000000Y-29873000D01*
X58052606Y-29873000D01*
X50127000Y-21947394D01*
X50127000Y-19052606D01*
X52589803Y-16589803D01*
X52605597Y-16570557D01*
X52617333Y-16548601D01*
X52624560Y-16524776D01*
X52627000Y-16500000D01*
X52627000Y-6627000D01*
X55947394Y-6627000D01*
X64410197Y-15089803D01*
X64410197Y-15089803D01*
G37*
X64410197Y-15089803D02*
X64429443Y-15105597D01*
X64451399Y-15117333D01*
X64475224Y-15124560D01*
X64500000Y-15127000D01*
X76873000Y-15127000D01*
X76873000Y-19000000D01*
X76875440Y-19024776D01*
X76882667Y-19048601D01*
X76894403Y-19070557D01*
X76910197Y-19089803D01*
X76929443Y-19105597D01*
X76951399Y-19117333D01*
X76975224Y-19124560D01*
X77000000Y-19127000D01*
X83749901Y-19127000D01*
X83732860Y-19152504D01*
X83685595Y-19266611D01*
X83661500Y-19387746D01*
X83661500Y-19511254D01*
X83685595Y-19632389D01*
X83732860Y-19746496D01*
X83801477Y-19849189D01*
X83888811Y-19936523D01*
X83991504Y-20005140D01*
X84105611Y-20052405D01*
X84226746Y-20076500D01*
X84350254Y-20076500D01*
X84471389Y-20052405D01*
X84585496Y-20005140D01*
X84688189Y-19936523D01*
X84775523Y-19849189D01*
X84844140Y-19746496D01*
X84891405Y-19632389D01*
X84915500Y-19511254D01*
X84915500Y-19387746D01*
X84891405Y-19266611D01*
X84844140Y-19152504D01*
X84828200Y-19128648D01*
X84828200Y-19127000D01*
X85093418Y-19127000D01*
X85093418Y-19355000D01*
X85099732Y-19419103D01*
X85118430Y-19480743D01*
X85148794Y-19537550D01*
X85189657Y-19587343D01*
X85239450Y-19628206D01*
X85296257Y-19658570D01*
X85357897Y-19677268D01*
X85422000Y-19683582D01*
X85822000Y-19683582D01*
X85886103Y-19677268D01*
X85947743Y-19658570D01*
X86004550Y-19628206D01*
X86054343Y-19587343D01*
X86095206Y-19537550D01*
X86125570Y-19480743D01*
X86144268Y-19419103D01*
X86150582Y-19355000D01*
X86150582Y-19127000D01*
X91623000Y-19127000D01*
X91623000Y-22873000D01*
X84852000Y-22873000D01*
X84852000Y-22753246D01*
X84827905Y-22632111D01*
X84780640Y-22518004D01*
X84712023Y-22415311D01*
X84624689Y-22327977D01*
X84521996Y-22259360D01*
X84407889Y-22212095D01*
X84286754Y-22188000D01*
X84163246Y-22188000D01*
X84042111Y-22212095D01*
X83928004Y-22259360D01*
X83825311Y-22327977D01*
X83737977Y-22415311D01*
X83669360Y-22518004D01*
X83622095Y-22632111D01*
X83598000Y-22753246D01*
X83598000Y-22873000D01*
X78500000Y-22873000D01*
X78475224Y-22875440D01*
X78451399Y-22882667D01*
X78429443Y-22894403D01*
X78410197Y-22910197D01*
X78394403Y-22929443D01*
X78382667Y-22951399D01*
X78375440Y-22975224D01*
X78373000Y-23000000D01*
X78373000Y-28373000D01*
X76750000Y-28373000D01*
X76725224Y-28375440D01*
X76701399Y-28382667D01*
X76679443Y-28394403D01*
X76660197Y-28410197D01*
X76644403Y-28429443D01*
X76632667Y-28451399D01*
X76625440Y-28475224D01*
X76623000Y-28500000D01*
X76623000Y-43623000D01*
X72750000Y-43623000D01*
X72725224Y-43625440D01*
X72701399Y-43632667D01*
X72679443Y-43644403D01*
X72660197Y-43660197D01*
X71947394Y-44373000D01*
X70552606Y-44373000D01*
X69377000Y-43197394D01*
X69377000Y-40250000D01*
X69374560Y-40225224D01*
X69367333Y-40201399D01*
X69355597Y-40179443D01*
X69339803Y-40160197D01*
X65089803Y-35910197D01*
X65070557Y-35894403D01*
X65048601Y-35882667D01*
X65024776Y-35875440D01*
X65000000Y-35873000D01*
X59127000Y-35873000D01*
X59127000Y-30000000D01*
X59124560Y-29975224D01*
X59117333Y-29951399D01*
X59105597Y-29929443D01*
X59089803Y-29910197D01*
X59070557Y-29894403D01*
X59048601Y-29882667D01*
X59024776Y-29875440D01*
X59000000Y-29873000D01*
X58052606Y-29873000D01*
X50127000Y-21947394D01*
X50127000Y-19052606D01*
X52589803Y-16589803D01*
X52605597Y-16570557D01*
X52617333Y-16548601D01*
X52624560Y-16524776D01*
X52627000Y-16500000D01*
X52627000Y-6627000D01*
X55947394Y-6627000D01*
X64410197Y-15089803D01*
G36*
X57973000Y-52852606D02*
G01*
X57973000Y-53400000D01*
X57975440Y-53424776D01*
X57982667Y-53448601D01*
X57994403Y-53470557D01*
X58010197Y-53489803D01*
X59085197Y-54564803D01*
X59104443Y-54580597D01*
X59126399Y-54592333D01*
X59150224Y-54599560D01*
X59175000Y-54602000D01*
X59272394Y-54602000D01*
X59798000Y-55127606D01*
X59798000Y-55350000D01*
X59800440Y-55374776D01*
X59807667Y-55398601D01*
X59819403Y-55420557D01*
X59835197Y-55439803D01*
X59854443Y-55455597D01*
X59876399Y-55467333D01*
X59900224Y-55474560D01*
X59925000Y-55477000D01*
X61548000Y-55477000D01*
X61548000Y-56198000D01*
X59750000Y-56198000D01*
X59725224Y-56200440D01*
X59701399Y-56207667D01*
X59679443Y-56219403D01*
X59660197Y-56235197D01*
X59644403Y-56254443D01*
X59632667Y-56276399D01*
X59625440Y-56300224D01*
X59623000Y-56325000D01*
X59623000Y-57122394D01*
X59447394Y-57298000D01*
X59225000Y-57298000D01*
X59200224Y-57300440D01*
X59176399Y-57307667D01*
X59154443Y-57319403D01*
X59135197Y-57335197D01*
X58660197Y-57810197D01*
X58644403Y-57829443D01*
X58632667Y-57851399D01*
X58625440Y-57875224D01*
X58623000Y-57900000D01*
X58623000Y-60197394D01*
X57597394Y-61223000D01*
X55202606Y-61223000D01*
X54202000Y-60222394D01*
X54202000Y-53652606D01*
X55402606Y-52452000D01*
X57572394Y-52452000D01*
X57973000Y-52852606D01*
X57973000Y-52852606D01*
G37*
X57973000Y-52852606D02*
X57973000Y-53400000D01*
X57975440Y-53424776D01*
X57982667Y-53448601D01*
X57994403Y-53470557D01*
X58010197Y-53489803D01*
X59085197Y-54564803D01*
X59104443Y-54580597D01*
X59126399Y-54592333D01*
X59150224Y-54599560D01*
X59175000Y-54602000D01*
X59272394Y-54602000D01*
X59798000Y-55127606D01*
X59798000Y-55350000D01*
X59800440Y-55374776D01*
X59807667Y-55398601D01*
X59819403Y-55420557D01*
X59835197Y-55439803D01*
X59854443Y-55455597D01*
X59876399Y-55467333D01*
X59900224Y-55474560D01*
X59925000Y-55477000D01*
X61548000Y-55477000D01*
X61548000Y-56198000D01*
X59750000Y-56198000D01*
X59725224Y-56200440D01*
X59701399Y-56207667D01*
X59679443Y-56219403D01*
X59660197Y-56235197D01*
X59644403Y-56254443D01*
X59632667Y-56276399D01*
X59625440Y-56300224D01*
X59623000Y-56325000D01*
X59623000Y-57122394D01*
X59447394Y-57298000D01*
X59225000Y-57298000D01*
X59200224Y-57300440D01*
X59176399Y-57307667D01*
X59154443Y-57319403D01*
X59135197Y-57335197D01*
X58660197Y-57810197D01*
X58644403Y-57829443D01*
X58632667Y-57851399D01*
X58625440Y-57875224D01*
X58623000Y-57900000D01*
X58623000Y-60197394D01*
X57597394Y-61223000D01*
X55202606Y-61223000D01*
X54202000Y-60222394D01*
X54202000Y-53652606D01*
X55402606Y-52452000D01*
X57572394Y-52452000D01*
X57973000Y-52852606D01*
G36*
X15373000Y-30500000D02*
G01*
X15375440Y-30524776D01*
X15382667Y-30548601D01*
X15394403Y-30570557D01*
X15410197Y-30589803D01*
X15429443Y-30605597D01*
X15451399Y-30617333D01*
X15472450Y-30623976D01*
X19873000Y-31601876D01*
X19873000Y-33405508D01*
X14963507Y-34878356D01*
X14940476Y-34887813D01*
X14919734Y-34901581D01*
X14902075Y-34919131D01*
X14888180Y-34939789D01*
X14878582Y-34962761D01*
X14873650Y-34987164D01*
X14873000Y-35000000D01*
X14873000Y-43373000D01*
X377000Y-43373000D01*
X377000Y-29127000D01*
X15373000Y-29127000D01*
X15373000Y-30500000D01*
X15373000Y-30500000D01*
G37*
X15373000Y-30500000D02*
X15375440Y-30524776D01*
X15382667Y-30548601D01*
X15394403Y-30570557D01*
X15410197Y-30589803D01*
X15429443Y-30605597D01*
X15451399Y-30617333D01*
X15472450Y-30623976D01*
X19873000Y-31601876D01*
X19873000Y-33405508D01*
X14963507Y-34878356D01*
X14940476Y-34887813D01*
X14919734Y-34901581D01*
X14902075Y-34919131D01*
X14888180Y-34939789D01*
X14878582Y-34962761D01*
X14873650Y-34987164D01*
X14873000Y-35000000D01*
X14873000Y-43373000D01*
X377000Y-43373000D01*
X377000Y-29127000D01*
X15373000Y-29127000D01*
X15373000Y-30500000D01*
M02*
