G04 #@! TF.GenerationSoftware,KiCad,Pcbnew,5.1.4+dfsg1-1*
G04 #@! TF.CreationDate,2021-01-01T15:39:33+01:00*
G04 #@! TF.ProjectId,MIDI_FOOTSWITCH,4d494449-5f46-44f4-9f54-535749544348,rev?*
G04 #@! TF.SameCoordinates,PX4c4b400PY1312d00*
G04 #@! TF.FileFunction,Copper,L4,Bot*
G04 #@! TF.FilePolarity,Positive*
%FSLAX46Y46*%
G04 Gerber Fmt 4.6, Leading zero omitted, Abs format (unit mm)*
G04 Created by KiCad (PCBNEW 5.1.4+dfsg1-1) date 2021-01-01 15:39:33*
%MOMM*%
%LPD*%
G04 APERTURE LIST*
%ADD10C,2.700000*%
%ADD11C,2.400000*%
%ADD12C,1.500000*%
%ADD13C,2.250000*%
%ADD14C,1.700000*%
%ADD15R,1.300000X1.000000*%
%ADD16R,1.050000X1.050000*%
%ADD17C,1.050000*%
%ADD18R,1.300000X1.500000*%
%ADD19C,6.600000*%
%ADD20R,1.250000X1.000000*%
%ADD21R,0.900000X0.900000*%
%ADD22R,3.500000X1.800000*%
%ADD23R,2.300000X3.500000*%
%ADD24R,1.000000X1.300000*%
%ADD25R,2.500000X1.800000*%
%ADD26R,1.800000X2.500000*%
%ADD27O,1.350000X1.350000*%
%ADD28R,1.350000X1.350000*%
%ADD29O,1.700000X1.700000*%
%ADD30R,1.700000X1.700000*%
%ADD31C,0.889000*%
%ADD32C,0.600000*%
%ADD33C,1.200000*%
%ADD34C,0.512000*%
%ADD35C,0.762000*%
%ADD36C,0.200000*%
%ADD37C,0.254000*%
%ADD38C,0.508000*%
%ADD39C,1.270000*%
%ADD40C,0.400000*%
%ADD41C,0.100000*%
G04 APERTURE END LIST*
D10*
X9190000Y-3860000D03*
D11*
X13000000Y-17200000D03*
X4750000Y-7030000D03*
X13000000Y-13385000D03*
X9190000Y-17200000D03*
X16810000Y-17200000D03*
X19980000Y-13385000D03*
D10*
X16810000Y-8940000D03*
D12*
X48440000Y-14700000D03*
X47170000Y-17240000D03*
X45900000Y-14700000D03*
X44630000Y-17240000D03*
X43360000Y-14700000D03*
X42090000Y-17240000D03*
X40820000Y-14700000D03*
X39550000Y-17240000D03*
D13*
X49080000Y-3900000D03*
X38920000Y-12790000D03*
D14*
X50595000Y-13430400D03*
D15*
X35800000Y-17350000D03*
X35800000Y-15250000D03*
D16*
X83941760Y-16677600D03*
D17*
X82671760Y-16677600D03*
X81401760Y-16677600D03*
X80131760Y-16677600D03*
X78861760Y-16677600D03*
X82671760Y-17947600D03*
X81401760Y-17947600D03*
X80131760Y-17947600D03*
X78861760Y-17947600D03*
X83941760Y-17947600D03*
D18*
X17250000Y-52350000D03*
X17250000Y-49650000D03*
D19*
X27000000Y-31000000D03*
X96000000Y-31000000D03*
D20*
X52500000Y-10500000D03*
X52500000Y-8500000D03*
D21*
X64450000Y-9100000D03*
X62550000Y-9100000D03*
D22*
X63750000Y-6500000D03*
X68750000Y-6500000D03*
D23*
X56750000Y-14250000D03*
X56750000Y-8850000D03*
D15*
X43250000Y-10550000D03*
X43250000Y-8450000D03*
X45500000Y-8450000D03*
X45500000Y-10550000D03*
D24*
X52750000Y-17200000D03*
X50650000Y-17200000D03*
D15*
X48500000Y-10550000D03*
X48500000Y-8450000D03*
X10200000Y-44850000D03*
X10200000Y-46950000D03*
X8100000Y-46950000D03*
X8100000Y-44850000D03*
X4700000Y-50450000D03*
X4700000Y-48350000D03*
X2600000Y-48350000D03*
X2600000Y-50450000D03*
D24*
X1650000Y-39300000D03*
X3750000Y-39300000D03*
X6550000Y-28500000D03*
X4450000Y-28500000D03*
D21*
X4550000Y-26500000D03*
X6450000Y-26500000D03*
D15*
X11500000Y-49950000D03*
X11500000Y-52050000D03*
X14750000Y-52050000D03*
X14750000Y-49950000D03*
D21*
X4550000Y-31000000D03*
X6450000Y-31000000D03*
X9950000Y-42700000D03*
X8050000Y-42700000D03*
D24*
X7950000Y-40600000D03*
X10050000Y-40600000D03*
D15*
X3700000Y-35950000D03*
X3700000Y-33850000D03*
D25*
X18100000Y-2500000D03*
X22100000Y-2500000D03*
D26*
X13175000Y-5150000D03*
X13175000Y-9150000D03*
D25*
X23800000Y-6375000D03*
X19800000Y-6375000D03*
D26*
X3300000Y-12900000D03*
X3300000Y-16900000D03*
X26500000Y-9850000D03*
X26500000Y-13850000D03*
D27*
X22219999Y-57000000D03*
X20219999Y-57000000D03*
X18219999Y-57000000D03*
X16219999Y-57000000D03*
X14219999Y-57000000D03*
X12219999Y-57000000D03*
X10219999Y-57000000D03*
X8219999Y-57000000D03*
X6219999Y-57000000D03*
D28*
X4219999Y-57000000D03*
D29*
X26355000Y-50085000D03*
X26355000Y-52625000D03*
X23815000Y-50085000D03*
X23815000Y-52625000D03*
X21275000Y-50085000D03*
D30*
X21275000Y-52625000D03*
D31*
X64557900Y-32257900D03*
X16000000Y-49250000D03*
X1500000Y-42250000D03*
X4250000Y-42250000D03*
X5250000Y-44000000D03*
X1500000Y-45750000D03*
X4250000Y-45750000D03*
X25250000Y-39000000D03*
X28750000Y-39000000D03*
X29500000Y-40750000D03*
X25500000Y-42500000D03*
X28500000Y-42500000D03*
X58750000Y-13000000D03*
X58750000Y-14250000D03*
X58750000Y-15500000D03*
X61500000Y-9000000D03*
X38500000Y-48000000D03*
X66450000Y-39800000D03*
X51700000Y-34850000D03*
X54150000Y-29000000D03*
X63400000Y-23400000D03*
D32*
X60366255Y-21937622D03*
X58366255Y-21937621D03*
X61766255Y-25437622D03*
X61666255Y-27837622D03*
X56966255Y-34837622D03*
X58966255Y-34837622D03*
X61266255Y-34637622D03*
X56066255Y-33237621D03*
X61672535Y-30210622D03*
X63866256Y-30037622D03*
X56084536Y-29737622D03*
X56066255Y-26437621D03*
X56084535Y-23537622D03*
X56666255Y-22337621D03*
X61666255Y-22637622D03*
D31*
X68500000Y-19250000D03*
D32*
X70000000Y-26000000D03*
X85462500Y-9500000D03*
X84637500Y-11568750D03*
X84637500Y-9500000D03*
D33*
X85050000Y-10500000D03*
D32*
X85462500Y-11568750D03*
D31*
X90000000Y-6500000D03*
D32*
X92700000Y-6400000D03*
X92700000Y-12200000D03*
D31*
X93600000Y-13400000D03*
X91800000Y-13400000D03*
X84300000Y-13000000D03*
X86000000Y-13500000D03*
X88900000Y-13500000D03*
X93600000Y-15700000D03*
X86200000Y-15700000D03*
X85500000Y-7200000D03*
X85900000Y-4000000D03*
X72900000Y-41200000D03*
X11500000Y-48700000D03*
X49100000Y-48200000D03*
X35700000Y-18600000D03*
X76700000Y-43700000D03*
X82600000Y-29100000D03*
X86500000Y-24900000D03*
X86600000Y-39200000D03*
X7500000Y-28500000D03*
D32*
X87200000Y-50400000D03*
X86100000Y-50000000D03*
X86100000Y-50800000D03*
X89550000Y-48150000D03*
X89550000Y-47100000D03*
X88250000Y-50300000D03*
D31*
X78800000Y-51700000D03*
X77500000Y-8000000D03*
X77500000Y-9500000D03*
X77500000Y-11000000D03*
X75500000Y-12000000D03*
X75000000Y-15000000D03*
X1500000Y-33500000D03*
X6900000Y-39800000D03*
X48600000Y-21300000D03*
D32*
X64400000Y-28100000D03*
D31*
X2000000Y-37100000D03*
X3900000Y-19400000D03*
X27300000Y-15700000D03*
X16250000Y-2000000D03*
X13750000Y-3000000D03*
X17675000Y-5000000D03*
X1750000Y-1750000D03*
D32*
X97100000Y-57500000D03*
D31*
X91950000Y-18225000D03*
X93475000Y-18200000D03*
X93475000Y-20850000D03*
X91925000Y-20850000D03*
X69350000Y-43525000D03*
X69450000Y-44700000D03*
X50300000Y-47775000D03*
X56910000Y-40860000D03*
X58060000Y-40870000D03*
X59080000Y-41760000D03*
X44250000Y-54170000D03*
D32*
X55750000Y-40000000D03*
X74190000Y-30380000D03*
X75600000Y-29884900D03*
X54400000Y-36200000D03*
X67750000Y-29410622D03*
X72093740Y-22000000D03*
D31*
X68883781Y-40365199D03*
X66500000Y-19000000D03*
X91750000Y-9250000D03*
X93750000Y-9250000D03*
X41750000Y-50250000D03*
X46700000Y-48100000D03*
X78800000Y-43800000D03*
X82600000Y-25000000D03*
X88700000Y-39300000D03*
X43000000Y-32500000D03*
X47000000Y-22000000D03*
X62750000Y-27000000D03*
X65325000Y-44050000D03*
X54800000Y-32190000D03*
D32*
X70100000Y-22400000D03*
X30100000Y-49150000D03*
X18650000Y-52750000D03*
X70300000Y-21400000D03*
X71100000Y-20500000D03*
D31*
X82000000Y-48000000D03*
X81000000Y-49000000D03*
X53875000Y-44025000D03*
X59000000Y-7500000D03*
X59000000Y-8750000D03*
X59000000Y-10000000D03*
X40250000Y-7400000D03*
X41550000Y-8450000D03*
D32*
X70210000Y-47430000D03*
X67810000Y-30770000D03*
X63075000Y-43663235D03*
X62250000Y-39575000D03*
X62250000Y-44300000D03*
X60890000Y-40740000D03*
X79900000Y-33800000D03*
X62775000Y-46825000D03*
X62021464Y-47421464D03*
X80560000Y-32480000D03*
X72350000Y-31175000D03*
X62850000Y-45750000D03*
X71050000Y-31350000D03*
X61925000Y-45725000D03*
X60925000Y-45950000D03*
X60925000Y-42125000D03*
X59925000Y-46650000D03*
X60224999Y-43800001D03*
X71450000Y-38850000D03*
X65330000Y-41450000D03*
D31*
X75000000Y-1000000D03*
X76500000Y-1000000D03*
X74500000Y-2000000D03*
X74500000Y-3500000D03*
X16500000Y-45250000D03*
X17750000Y-45250000D03*
X19000000Y-45250000D03*
X20250000Y-45250000D03*
X93000000Y-42000000D03*
X93000000Y-45000000D03*
X93000000Y-43500000D03*
X64500000Y-8000000D03*
X63600000Y-35300000D03*
X52894499Y-32944499D03*
X33000000Y-49500000D03*
X32700000Y-45300000D03*
X30500000Y-47000000D03*
X6100000Y-36100000D03*
D32*
X74750000Y-28250000D03*
X71800000Y-18100000D03*
X7100000Y-12000000D03*
D31*
X7100000Y-20900000D03*
D32*
X74750000Y-26750000D03*
X72896034Y-18003966D03*
D31*
X67500000Y-8250000D03*
X68750000Y-8250000D03*
X70000000Y-8250000D03*
X20000000Y-21500000D03*
X21500000Y-21500000D03*
X23000000Y-21500000D03*
X24500000Y-21500000D03*
X3745533Y-26254467D03*
X5500000Y-32500000D03*
D32*
X24900000Y-3500000D03*
X21875000Y-9175000D03*
D31*
X26200000Y-6100000D03*
D32*
X3800000Y-37700000D03*
X88250000Y-17875000D03*
X82280000Y-31700000D03*
D34*
X17250000Y-49650000D02*
X14750000Y-49650000D01*
X17250000Y-49650000D02*
X16400000Y-49650000D01*
X16400000Y-49650000D02*
X16000000Y-49250000D01*
D35*
X58000000Y-13000000D02*
X56750000Y-14250000D01*
X58750000Y-13000000D02*
X58000000Y-13000000D01*
X56750000Y-14250000D02*
X58750000Y-14250000D01*
X56750000Y-14250000D02*
X57500000Y-14250000D01*
X57500000Y-14250000D02*
X58750000Y-15500000D01*
X62500000Y-9000000D02*
X61500000Y-9000000D01*
D36*
X61666255Y-22637622D02*
X60966255Y-21937622D01*
X60966255Y-21937622D02*
X60366255Y-21937622D01*
X58366255Y-21937621D02*
X58466256Y-21937621D01*
X58466256Y-21937621D02*
X60366255Y-21937622D01*
X61666255Y-22637622D02*
X61866255Y-22837622D01*
X61866255Y-22837622D02*
X61866256Y-25337621D01*
X61866256Y-25337621D02*
X61766255Y-25437622D01*
X61672535Y-27797622D02*
X61666255Y-27803902D01*
X61666255Y-27803902D02*
X61666255Y-27837622D01*
X61066256Y-34837622D02*
X58966255Y-34837622D01*
X61266255Y-34637622D02*
X61066256Y-34837622D01*
X56966255Y-34837622D02*
X56066255Y-33937622D01*
X56066255Y-33937622D02*
X56066255Y-33237621D01*
D37*
X61466255Y-34437622D02*
X61466255Y-34537622D01*
X56066255Y-33937622D02*
X56066255Y-29755902D01*
X56966255Y-34837622D02*
X56066255Y-33937622D01*
X61166255Y-34837622D02*
X56966255Y-34837622D01*
X61466255Y-34537622D02*
X61166255Y-34837622D01*
X56066255Y-29755902D02*
X56066255Y-26437621D01*
X56066255Y-26437621D02*
X56084536Y-26419341D01*
X56084536Y-26419341D02*
X56084535Y-22919342D01*
X56084535Y-22919342D02*
X56666255Y-22337621D01*
X56666255Y-22337621D02*
X56666255Y-22237622D01*
X56666255Y-22237622D02*
X56966255Y-21937622D01*
X56966255Y-21937622D02*
X56366255Y-22537622D01*
X56366255Y-22537622D02*
X56066255Y-22837622D01*
X56066255Y-22837622D02*
X56066255Y-23519342D01*
X56066255Y-23519342D02*
X56084535Y-23537622D01*
X61672535Y-30210622D02*
X61666255Y-30216902D01*
X61666255Y-30216902D02*
X61666255Y-30237622D01*
X63566256Y-30337622D02*
X63866256Y-30037622D01*
X61766255Y-30337622D02*
X63566256Y-30337622D01*
X61466255Y-30637621D02*
X61766255Y-30337622D01*
X61466255Y-30937621D02*
X61466255Y-30637621D01*
X61466255Y-34437622D02*
X61466255Y-30937621D01*
X56084536Y-29737622D02*
X56066255Y-29755902D01*
X56066255Y-23555901D02*
X56066255Y-26437621D01*
X56084535Y-23537622D02*
X56066255Y-23555901D01*
X56666255Y-22237622D02*
X56666255Y-22337621D01*
X56966255Y-21937622D02*
X56666255Y-22237622D01*
X58466256Y-21937621D02*
X56966255Y-21937622D01*
X60966255Y-21937622D02*
X60366255Y-21937622D01*
D38*
X11500000Y-49950000D02*
X11500000Y-48700000D01*
D35*
X35800000Y-17350000D02*
X35800000Y-18500000D01*
X35800000Y-18500000D02*
X35700000Y-18600000D01*
X6450000Y-28400000D02*
X6550000Y-28500000D01*
X6450000Y-26500000D02*
X6450000Y-28400000D01*
X6550000Y-28500000D02*
X7500000Y-28500000D01*
X6550000Y-30900000D02*
X6450000Y-31000000D01*
X6550000Y-28500000D02*
X6550000Y-30900000D01*
X7950000Y-42600000D02*
X8050000Y-42700000D01*
X7950000Y-40600000D02*
X7950000Y-42600000D01*
X7950000Y-40600000D02*
X7700000Y-40600000D01*
X7700000Y-40600000D02*
X6900000Y-39800000D01*
D37*
X61866255Y-27737622D02*
X61866255Y-25937622D01*
X61866256Y-24437622D02*
X61866255Y-22837622D01*
X61866255Y-25937622D02*
X61866256Y-24437622D01*
X64366255Y-28037622D02*
X62166255Y-28037622D01*
X64466255Y-28137622D02*
X64366255Y-28037622D01*
X62166255Y-28037622D02*
X61866255Y-27737622D01*
D38*
X1650000Y-39300000D02*
X1650000Y-37450000D01*
X1650000Y-37450000D02*
X2000000Y-37100000D01*
D35*
X3300000Y-17050000D02*
X3300000Y-18800000D01*
X3300000Y-18800000D02*
X3900000Y-19400000D01*
X26500000Y-13650000D02*
X26500000Y-14900000D01*
X26500000Y-14900000D02*
X27300000Y-15700000D01*
D37*
X17950000Y-2500000D02*
X16750000Y-2500000D01*
X16750000Y-2500000D02*
X16250000Y-2000000D01*
X13700000Y-3050000D02*
X13750000Y-3000000D01*
X12000000Y-3000000D02*
X10750000Y-1750000D01*
X10750000Y-1750000D02*
X1750000Y-1750000D01*
D38*
X19800000Y-4967000D02*
X19433000Y-4600000D01*
X19800000Y-6375000D02*
X19800000Y-4967000D01*
X17875000Y-4600000D02*
X17275000Y-5200000D01*
X19433000Y-4600000D02*
X17875000Y-4600000D01*
X19800000Y-7783000D02*
X19333000Y-8250000D01*
X19800000Y-6375000D02*
X19800000Y-7783000D01*
X19050000Y-6375000D02*
X17675000Y-5000000D01*
X19800000Y-6375000D02*
X19050000Y-6375000D01*
D37*
X62650000Y-38650000D02*
X57100000Y-38650000D01*
X70890000Y-30410000D02*
X62650000Y-38650000D01*
X57100000Y-38650000D02*
X55750000Y-40000000D01*
X70890000Y-30410000D02*
X74260000Y-30410000D01*
X74260000Y-30410000D02*
X74320000Y-30350000D01*
X56395990Y-38195990D02*
X54400000Y-36200000D01*
X75600000Y-29884900D02*
X74652862Y-29884900D01*
X74652862Y-29884900D02*
X74316929Y-29548967D01*
X74316929Y-29548967D02*
X71108967Y-29548967D01*
X71108967Y-29548967D02*
X62461944Y-38195990D01*
X62461944Y-38195990D02*
X56395990Y-38195990D01*
X68049999Y-29110623D02*
X69139377Y-29110623D01*
X67750000Y-29410622D02*
X68049999Y-29110623D01*
X72093740Y-26156260D02*
X71250000Y-27000000D01*
X72093740Y-22000000D02*
X72093740Y-26156260D01*
X69139377Y-29110623D02*
X71250000Y-27000000D01*
X22219999Y-56760001D02*
X22219999Y-57000000D01*
X26355000Y-52625000D02*
X22219999Y-56760001D01*
X18219999Y-57000000D02*
X18219999Y-55219999D01*
X17250000Y-54250000D02*
X17250000Y-52350000D01*
X18219999Y-55219999D02*
X17250000Y-54250000D01*
X21275000Y-50085000D02*
X23815000Y-50085000D01*
X26355000Y-50085000D02*
X23815000Y-50085000D01*
X32300000Y-47800000D02*
X32871501Y-47228499D01*
X31944499Y-48155501D02*
X32300000Y-47800000D01*
X62200000Y-20400000D02*
X63300000Y-21500000D01*
X54700000Y-20400000D02*
X62200000Y-20400000D01*
X50100000Y-25000000D02*
X54700000Y-20400000D01*
X50100000Y-44600000D02*
X50100000Y-25000000D01*
X63300000Y-21500000D02*
X69200000Y-21500000D01*
X47471501Y-47228499D02*
X50100000Y-44600000D01*
X32871501Y-47228499D02*
X47471501Y-47228499D01*
X69200000Y-21500000D02*
X70100000Y-22400000D01*
X18154000Y-52350000D02*
X19854000Y-50650000D01*
X17250000Y-52350000D02*
X18154000Y-52350000D01*
X19854000Y-50650000D02*
X19854000Y-50646000D01*
X20415000Y-50085000D02*
X20200000Y-50300000D01*
X21275000Y-50085000D02*
X20415000Y-50085000D01*
X19854000Y-50646000D02*
X20200000Y-50300000D01*
X20200000Y-50300000D02*
X20300000Y-50200000D01*
X31944499Y-48155501D02*
X31345992Y-48754008D01*
X31345992Y-48754008D02*
X30950000Y-49150000D01*
X30950000Y-49150000D02*
X30100000Y-49150000D01*
X17650000Y-52750000D02*
X17250000Y-52350000D01*
X18650000Y-52750000D02*
X17650000Y-52750000D01*
X23815000Y-53404999D02*
X20219999Y-57000000D01*
X23815000Y-52625000D02*
X23815000Y-53404999D01*
X14750000Y-52050000D02*
X13846000Y-52050000D01*
X13846000Y-52050000D02*
X13200000Y-51404000D01*
X13200000Y-51404000D02*
X13200000Y-48700000D01*
X13200000Y-48700000D02*
X13599999Y-48299999D01*
X14750000Y-55530001D02*
X14750000Y-52050000D01*
X16219999Y-57000000D02*
X14750000Y-55530001D01*
X20225001Y-48299999D02*
X18850000Y-49675000D01*
X31157935Y-48299999D02*
X32683444Y-46774489D01*
X32683444Y-46774489D02*
X47283445Y-46774489D01*
X47283445Y-46774489D02*
X49645990Y-44411944D01*
X49645990Y-44411944D02*
X49645990Y-24811943D01*
X63488056Y-21045990D02*
X69945990Y-21045990D01*
X69945990Y-21045990D02*
X70300000Y-21400000D01*
X31157935Y-48299999D02*
X20225001Y-48299999D01*
X62388057Y-19945990D02*
X63488056Y-21045990D01*
X54511943Y-19945990D02*
X62388057Y-19945990D01*
X49645990Y-24811943D02*
X54511943Y-19945990D01*
X18150000Y-51025000D02*
X16679000Y-51025000D01*
X18850000Y-49675000D02*
X18850000Y-50325000D01*
X18850000Y-50325000D02*
X18150000Y-51025000D01*
X14750000Y-52050000D02*
X14825000Y-52050000D01*
X15850000Y-51025000D02*
X16150000Y-51025000D01*
X14825000Y-52050000D02*
X15850000Y-51025000D01*
X16679000Y-51025000D02*
X16150000Y-51025000D01*
X63676112Y-20591980D02*
X70583756Y-20591980D01*
X11500000Y-52050000D02*
X12404000Y-52050000D01*
X70583756Y-20591980D02*
X70675736Y-20500000D01*
X12404000Y-52050000D02*
X12745990Y-51708010D01*
X62576114Y-19491980D02*
X63676112Y-20591980D01*
X12745990Y-48511943D02*
X13411941Y-47845991D01*
X70675736Y-20500000D02*
X71100000Y-20500000D01*
X12745990Y-51708010D02*
X12745990Y-48511943D01*
X13411941Y-47845991D02*
X30969875Y-47845991D01*
X49191980Y-44223888D02*
X49191980Y-24623886D01*
X30969875Y-47845991D02*
X32495387Y-46320479D01*
X49191980Y-24623886D02*
X54323886Y-19491980D01*
X32495387Y-46320479D02*
X47095389Y-46320479D01*
X47095389Y-46320479D02*
X49191980Y-44223888D01*
X54323886Y-19491980D02*
X62576114Y-19491980D01*
X11350000Y-52050000D02*
X11500000Y-52050000D01*
X10219999Y-53180001D02*
X11350000Y-52050000D01*
X10219999Y-57000000D02*
X10219999Y-53180001D01*
D34*
X10200000Y-46950000D02*
X8100000Y-46950000D01*
D38*
X8219999Y-47069999D02*
X8100000Y-46950000D01*
X8219999Y-57000000D02*
X8219999Y-47069999D01*
D34*
X4700000Y-50450000D02*
X2600000Y-50450000D01*
X4219999Y-50930001D02*
X4700000Y-50450000D01*
X4219999Y-57000000D02*
X4219999Y-50930001D01*
D35*
X74992000Y-48500000D02*
X74100000Y-47608000D01*
X76892000Y-48500000D02*
X74992000Y-48500000D01*
X81000000Y-48500000D02*
X76892000Y-48500000D01*
D39*
X76892000Y-48500000D02*
X76798000Y-48500000D01*
D35*
X56750000Y-8850000D02*
X57400000Y-8850000D01*
X57400000Y-8850000D02*
X59000000Y-7250000D01*
X56750000Y-8850000D02*
X58900000Y-8850000D01*
X58900000Y-8850000D02*
X59000000Y-8750000D01*
X56750000Y-8850000D02*
X57850000Y-8850000D01*
X57850000Y-8850000D02*
X59000000Y-10000000D01*
X38920000Y-12790000D02*
X36910000Y-12790000D01*
X35800000Y-13900000D02*
X35800000Y-15250000D01*
X36910000Y-12790000D02*
X35800000Y-13900000D01*
X47955001Y-5024999D02*
X47955001Y-5044999D01*
X49080000Y-3900000D02*
X47955001Y-5024999D01*
X47955001Y-5044999D02*
X47000000Y-6000000D01*
X47000000Y-6000000D02*
X38500000Y-6000000D01*
X38500000Y-6000000D02*
X37500000Y-7000000D01*
X37500000Y-11370000D02*
X38920000Y-12790000D01*
X37500000Y-7000000D02*
X37500000Y-11370000D01*
D37*
X45500000Y-7696000D02*
X44900000Y-7096000D01*
X45500000Y-8450000D02*
X45500000Y-7696000D01*
X44900000Y-7096000D02*
X40554000Y-7096000D01*
X40554000Y-7096000D02*
X40250000Y-7400000D01*
X41550000Y-8450000D02*
X43250000Y-8450000D01*
D36*
X70509999Y-47130001D02*
X70509999Y-47080001D01*
X70210000Y-47430000D02*
X70509999Y-47130001D01*
X70509999Y-47080001D02*
X81530000Y-36060000D01*
X81530000Y-32180000D02*
X81229999Y-31879999D01*
X81530000Y-33840000D02*
X81530000Y-32190000D01*
X81530000Y-33840000D02*
X81530000Y-32180000D01*
X81530000Y-36060000D02*
X81530000Y-33840000D01*
X81530000Y-32190000D02*
X78480000Y-29140000D01*
X78480000Y-29140000D02*
X74980000Y-29140000D01*
X74980000Y-29140000D02*
X74830000Y-28990000D01*
X74830000Y-28990000D02*
X72010000Y-28990000D01*
X72010000Y-28990000D02*
X69863882Y-28990000D01*
X72010000Y-28990000D02*
X70090000Y-28990000D01*
X69863882Y-28990000D02*
X68083882Y-30770000D01*
X68083882Y-30770000D02*
X67810000Y-30770000D01*
X63075000Y-43663235D02*
X63075000Y-40400000D01*
X63075000Y-40400000D02*
X62250000Y-39575000D01*
X62250000Y-42100000D02*
X62250000Y-43440000D01*
X60890000Y-40740000D02*
X62250000Y-42100000D01*
X62250000Y-43440000D02*
X62250000Y-44300000D01*
X63250000Y-46350000D02*
X62775000Y-46825000D01*
X74511856Y-41138144D02*
X69300000Y-46350000D01*
X77368975Y-38239007D02*
X77339827Y-38299533D01*
X77383924Y-38106334D02*
X77383924Y-38173512D01*
X77383924Y-38173512D02*
X77368975Y-38239007D01*
X77368975Y-38040839D02*
X77383924Y-38106334D01*
X77089438Y-37719287D02*
X77297942Y-37927791D01*
X77339827Y-38299533D02*
X77297943Y-38352056D01*
X77047552Y-37666764D02*
X77089438Y-37719287D01*
X77018405Y-37606238D02*
X77047552Y-37666764D01*
X77003456Y-37540744D02*
X77018405Y-37606238D01*
X77003456Y-37473565D02*
X77003456Y-37540744D01*
X77047552Y-37347545D02*
X77018405Y-37408071D01*
X77297943Y-38352056D02*
X74511856Y-41138144D01*
X77141960Y-37253138D02*
X77089438Y-37295023D01*
X77202486Y-37223990D02*
X77141960Y-37253138D01*
X77851984Y-36692216D02*
X77866933Y-36757710D01*
X77335159Y-37209041D02*
X77267981Y-37209041D01*
X77866933Y-36559543D02*
X77851984Y-36625037D01*
X77937966Y-36446495D02*
X77896080Y-36499017D01*
X77900750Y-37589509D02*
X77835256Y-37574560D01*
X77089438Y-37295023D02*
X77047552Y-37347545D01*
X78051014Y-36375462D02*
X77990488Y-36404610D01*
X78362230Y-36446495D02*
X78309708Y-36404610D01*
X78309708Y-36404610D02*
X78249182Y-36375462D01*
X78995000Y-36655000D02*
X78942477Y-36696885D01*
X78683784Y-36726032D02*
X78623258Y-36696885D01*
X69300000Y-46350000D02*
X63250000Y-46350000D01*
X78623258Y-36696885D02*
X78570735Y-36655000D01*
X78249182Y-36375462D02*
X78183687Y-36360513D01*
X78942477Y-36696885D02*
X78881951Y-36726032D01*
X79900000Y-33800000D02*
X80250000Y-34150000D01*
X77722207Y-37503528D02*
X77513702Y-37295023D01*
X77851984Y-36625037D02*
X77851984Y-36692216D01*
X80250000Y-34150000D02*
X80250000Y-35400000D01*
X78146470Y-37079263D02*
X78188355Y-37131785D01*
X77866933Y-36757710D02*
X77896080Y-36818236D01*
X77461180Y-37253138D02*
X77400654Y-37223990D01*
X77339827Y-37980313D02*
X77368975Y-38040839D01*
X78033423Y-37574560D02*
X77967929Y-37589509D01*
X78881951Y-36726032D02*
X78816457Y-36740981D01*
X80250000Y-35400000D02*
X78995000Y-36655000D01*
X77896080Y-36499017D02*
X77866933Y-36559543D01*
X78183687Y-36360513D02*
X78116509Y-36360513D01*
X78570735Y-36655000D02*
X78362230Y-36446495D01*
X77297942Y-37927791D02*
X77339827Y-37980313D01*
X77896080Y-36818236D02*
X77937966Y-36870759D01*
X77990488Y-36404610D02*
X77937966Y-36446495D01*
X78816457Y-36740981D02*
X78749278Y-36740981D01*
X78749278Y-36740981D02*
X78683784Y-36726032D01*
X77937966Y-36870759D02*
X78146470Y-37079263D01*
X78188355Y-37131785D02*
X78217503Y-37192311D01*
X78093949Y-37545413D02*
X78033423Y-37574560D01*
X77774730Y-37545413D02*
X77722207Y-37503528D01*
X78217503Y-37192311D02*
X78232452Y-37257806D01*
X78232452Y-37257806D02*
X78232452Y-37324984D01*
X78217503Y-37390479D02*
X78188355Y-37451005D01*
X77513702Y-37295023D02*
X77461180Y-37253138D01*
X78188355Y-37451005D02*
X78146471Y-37503528D01*
X78146471Y-37503528D02*
X78146472Y-37503528D01*
X78232452Y-37324984D02*
X78217503Y-37390479D01*
X77267981Y-37209041D02*
X77202486Y-37223990D01*
X78146472Y-37503528D02*
X78093949Y-37545413D01*
X78116509Y-36360513D02*
X78051014Y-36375462D01*
X77967929Y-37589509D02*
X77900750Y-37589509D01*
X77835256Y-37574560D02*
X77774730Y-37545413D01*
X77018405Y-37408071D02*
X77003456Y-37473565D01*
X77400654Y-37223990D02*
X77335159Y-37209041D01*
X62452114Y-47427850D02*
X68787850Y-47427850D01*
X62445728Y-47421464D02*
X62452114Y-47427850D01*
X62021464Y-47421464D02*
X62445728Y-47421464D01*
X80650010Y-35565688D02*
X80442849Y-35772849D01*
X80560000Y-32480000D02*
X80650010Y-32570010D01*
X80650010Y-32570010D02*
X80650010Y-35565688D01*
X80442849Y-35772849D02*
X68787850Y-47427850D01*
X64425000Y-44175000D02*
X62850000Y-45750000D01*
X69770591Y-33352614D02*
X69779311Y-33390819D01*
X69779311Y-33275221D02*
X69770591Y-33313426D01*
X70067727Y-34541632D02*
X70015203Y-34499747D01*
X68391338Y-35133662D02*
X64425000Y-39100000D01*
X72350000Y-31175000D02*
X70492500Y-33032500D01*
X70028162Y-33008066D02*
X69997524Y-33032500D01*
X70525449Y-34321205D02*
X70510501Y-34386698D01*
X64425000Y-39100000D02*
X64425000Y-44175000D01*
X70101674Y-32982344D02*
X70063469Y-32991064D01*
X70481352Y-34128006D02*
X70510500Y-34188532D01*
X69779311Y-33390819D02*
X69796314Y-33426125D01*
X70063469Y-32991064D02*
X70028162Y-33008066D01*
X69486639Y-34130923D02*
X69421146Y-34145871D01*
X70388350Y-33082655D02*
X70349162Y-33082655D01*
X69997524Y-33032500D02*
X69820747Y-33209276D01*
X69820747Y-33456764D02*
X70439467Y-34075483D01*
X69820747Y-33209276D02*
X69796314Y-33239914D01*
X69619312Y-34145872D02*
X69553819Y-34130922D01*
X70214373Y-33008066D02*
X70179067Y-32991064D01*
X70179067Y-32991064D02*
X70140862Y-32982344D01*
X69796314Y-33426125D02*
X69820747Y-33456764D01*
X69796314Y-33239914D02*
X69779311Y-33275221D01*
X69770591Y-33313426D02*
X69770591Y-33352614D01*
X70386945Y-34541633D02*
X70326420Y-34570779D01*
X69553819Y-34130922D02*
X69486639Y-34130923D01*
X70326420Y-34570779D02*
X70260925Y-34585729D01*
X70492500Y-33032500D02*
X70461861Y-33056933D01*
X70510501Y-34386698D02*
X70481353Y-34447224D01*
X70349162Y-33082655D02*
X70310957Y-33073935D01*
X70015203Y-34499747D02*
X69732361Y-34216905D01*
X70275650Y-33056933D02*
X70214373Y-33008066D01*
X70525450Y-34254025D02*
X70525449Y-34321205D01*
X70310957Y-33073935D02*
X70275650Y-33056933D01*
X70140862Y-32982344D02*
X70101674Y-32982344D01*
X70439467Y-34075483D02*
X70481352Y-34128006D01*
X70461861Y-33056933D02*
X70426555Y-33073935D01*
X70426555Y-33073935D02*
X70388350Y-33082655D01*
X70260925Y-34585729D02*
X70193747Y-34585728D01*
X69421146Y-34145871D02*
X69360620Y-34175019D01*
X70510500Y-34188532D02*
X70525450Y-34254025D01*
X69732361Y-34216905D02*
X69679838Y-34175020D01*
X70481353Y-34447224D02*
X70439467Y-34499747D01*
X70439467Y-34499747D02*
X70386945Y-34541633D01*
X70128252Y-34570780D02*
X70067727Y-34541632D01*
X69308097Y-34216905D02*
X68391338Y-35133662D01*
X70193747Y-34585728D02*
X70128252Y-34570780D01*
X69360620Y-34175019D02*
X69308097Y-34216905D01*
X69679838Y-34175020D02*
X69619312Y-34145872D01*
X63675000Y-43975000D02*
X61925000Y-45725000D01*
X65576879Y-36823124D02*
X64784774Y-37615226D01*
X65607516Y-36798692D02*
X65576879Y-36823124D01*
X65642824Y-36781689D02*
X65607516Y-36798692D01*
X65681028Y-36772970D02*
X65642824Y-36781689D01*
X65720216Y-36772970D02*
X65681028Y-36772970D01*
X65758422Y-36781689D02*
X65720216Y-36772970D01*
X65824365Y-36823125D02*
X65793728Y-36798691D01*
X65890311Y-36864560D02*
X65855004Y-36847557D01*
X65928515Y-36873281D02*
X65890311Y-36864560D01*
X65967703Y-36873280D02*
X65928515Y-36873281D01*
X66005907Y-36864561D02*
X65967703Y-36873280D01*
X66041214Y-36847558D02*
X66005907Y-36864561D01*
X66071853Y-36823124D02*
X66041214Y-36847558D01*
X66263429Y-36577553D02*
X66254710Y-36615757D01*
X66263429Y-36538365D02*
X66263429Y-36577553D01*
X65941351Y-36156088D02*
X65965784Y-36186726D01*
X65924348Y-36120781D02*
X65941351Y-36156088D01*
X65915628Y-36082576D02*
X65924348Y-36120781D01*
X65915628Y-36043389D02*
X65915628Y-36082576D01*
X65924348Y-36005184D02*
X65915628Y-36043389D01*
X65941351Y-35969877D02*
X65924348Y-36005184D01*
X65965784Y-35939239D02*
X65941351Y-35969877D01*
X64784774Y-37615226D02*
X63675000Y-38725000D01*
X66743602Y-35408908D02*
X66991091Y-35656397D01*
X66719169Y-35378270D02*
X66743602Y-35408908D01*
X66693446Y-35304758D02*
X66702166Y-35342963D01*
X66693446Y-35265571D02*
X66693446Y-35304758D01*
X66849671Y-36045306D02*
X66819032Y-36069740D01*
X66702166Y-35342963D02*
X66719169Y-35378270D01*
X67101873Y-34995566D02*
X67066567Y-34978564D01*
X66254710Y-36500159D02*
X66263429Y-36538365D01*
X66719169Y-35192059D02*
X66702166Y-35227366D01*
X66885024Y-35020000D02*
X66743602Y-35161421D01*
X66743602Y-35161421D02*
X66719169Y-35192059D01*
X67028362Y-34969844D02*
X66989174Y-34969844D01*
X66702166Y-35227366D02*
X66693446Y-35265571D01*
X67275850Y-35070155D02*
X67236662Y-35070155D01*
X66288749Y-35756382D02*
X66250544Y-35747662D01*
X67314055Y-35061435D02*
X67275850Y-35070155D01*
X66213273Y-36681703D02*
X66071853Y-36823124D01*
X66632822Y-36069739D02*
X66602183Y-36045307D01*
X71050000Y-31350000D02*
X67380000Y-35020000D01*
X66237706Y-36651064D02*
X66213273Y-36681703D01*
X66668129Y-36086742D02*
X66632822Y-36069739D01*
X66107206Y-35797818D02*
X65965784Y-35939239D01*
X65793728Y-36798691D02*
X65758422Y-36781689D01*
X67236662Y-35070155D02*
X67198457Y-35061435D01*
X67380000Y-35020000D02*
X67349361Y-35044433D01*
X66819032Y-36069740D02*
X66783725Y-36086743D01*
X66250544Y-35747662D02*
X66211356Y-35747662D01*
X65855004Y-36847557D02*
X65824365Y-36823125D01*
X67198457Y-35061435D02*
X67163150Y-35044433D01*
X66237707Y-36464852D02*
X66254710Y-36500159D01*
X67349361Y-35044433D02*
X67314055Y-35061435D01*
X65965784Y-36186726D02*
X66213273Y-36434215D01*
X67015524Y-35873246D02*
X66991091Y-35903885D01*
X66950969Y-34978564D02*
X66915662Y-34995566D01*
X67066567Y-34978564D02*
X67028362Y-34969844D01*
X66991091Y-35656397D02*
X67015525Y-35687034D01*
X66783725Y-36086743D02*
X66745521Y-36095462D01*
X67015525Y-35687034D02*
X67032528Y-35722341D01*
X66211356Y-35747662D02*
X66173151Y-35756382D01*
X67032528Y-35722341D02*
X67041247Y-35760547D01*
X67041247Y-35760547D02*
X67041247Y-35799735D01*
X67041247Y-35799735D02*
X67032528Y-35837939D01*
X67032528Y-35837939D02*
X67015524Y-35873246D01*
X66213273Y-36434215D02*
X66237707Y-36464852D01*
X66991091Y-35903885D02*
X66849671Y-36045306D01*
X66254710Y-36615757D02*
X66237706Y-36651064D01*
X66989174Y-34969844D02*
X66950969Y-34978564D01*
X67163150Y-35044433D02*
X67101873Y-34995566D01*
X66706333Y-36095463D02*
X66668129Y-36086742D01*
X66137845Y-35773385D02*
X66107206Y-35797818D01*
X66745521Y-36095462D02*
X66706333Y-36095463D01*
X66915662Y-34995566D02*
X66885024Y-35020000D01*
X66173151Y-35756382D02*
X66137845Y-35773385D01*
X66602183Y-36045307D02*
X66354694Y-35797818D01*
X63675000Y-38725000D02*
X63675000Y-43975000D01*
X66354694Y-35797818D02*
X66324056Y-35773385D01*
X66324056Y-35773385D02*
X66288749Y-35756382D01*
X60925000Y-43065000D02*
X60925000Y-42234618D01*
X60949757Y-43173470D02*
X60931268Y-43120630D01*
X60979542Y-43220872D02*
X60949757Y-43173470D01*
X61019127Y-43260457D02*
X60979542Y-43220872D01*
X61119369Y-43308731D02*
X61066529Y-43290242D01*
X61575000Y-43315000D02*
X61175000Y-43315000D01*
X61630630Y-43321268D02*
X61575000Y-43315000D01*
X61683470Y-43339757D02*
X61630630Y-43321268D01*
X61730872Y-43369542D02*
X61683470Y-43339757D01*
X61800242Y-43456529D02*
X61770457Y-43409127D01*
X61818731Y-43509369D02*
X61800242Y-43456529D01*
X61825000Y-43565000D02*
X61818731Y-43509369D01*
X61480630Y-44321268D02*
X61425000Y-44315000D01*
X60949757Y-44956529D02*
X60979542Y-44909127D01*
X61630630Y-43808731D02*
X61683470Y-43790242D01*
X61580872Y-44369542D02*
X61533470Y-44339757D01*
X61119369Y-44821268D02*
X61175000Y-44815000D01*
X61668731Y-44509369D02*
X61650242Y-44456529D01*
X61620457Y-44409127D02*
X61580872Y-44369542D01*
X60875000Y-43815000D02*
X61575000Y-43815000D01*
X61066529Y-43290242D02*
X61019127Y-43260457D01*
X61650242Y-44673470D02*
X61668731Y-44620630D01*
X61480630Y-44808731D02*
X61533470Y-44790242D01*
X60931268Y-43120630D02*
X60925000Y-43065000D01*
X60925000Y-45950000D02*
X60925000Y-45065000D01*
X60875000Y-44315000D02*
X60863874Y-44313746D01*
X61675000Y-44565000D02*
X61668731Y-44509369D01*
X61620457Y-44720872D02*
X61650242Y-44673470D01*
X61650242Y-44456529D02*
X61620457Y-44409127D01*
X60979542Y-44909127D02*
X61019127Y-44869542D01*
X61019127Y-44869542D02*
X61066529Y-44839757D01*
X61533470Y-44790242D02*
X61580872Y-44760457D01*
X60829952Y-43843305D02*
X60835909Y-43833825D01*
X61770457Y-43720872D02*
X61800242Y-43673470D01*
X61425000Y-44815000D02*
X61480630Y-44808731D01*
X60829952Y-44286694D02*
X60826254Y-44276126D01*
X61066529Y-44839757D02*
X61119369Y-44821268D01*
X61175000Y-43315000D02*
X61119369Y-43308731D01*
X61533470Y-44339757D02*
X61480630Y-44321268D01*
X61770457Y-43409127D02*
X61730872Y-43369542D01*
X61668731Y-44620630D02*
X61675000Y-44565000D01*
X60826254Y-43853873D02*
X60829952Y-43843305D01*
X60853306Y-43819951D02*
X60863874Y-43816253D01*
X60925000Y-45065000D02*
X60931268Y-45009369D01*
X61580872Y-44760457D02*
X61620457Y-44720872D01*
X60863874Y-44313746D02*
X60853306Y-44310048D01*
X60853306Y-44310048D02*
X60843826Y-44304091D01*
X60843826Y-44304091D02*
X60835909Y-44296174D01*
X60835909Y-44296174D02*
X60829952Y-44286694D01*
X60826254Y-44276126D02*
X60825000Y-44265000D01*
X60835909Y-43833825D02*
X60843826Y-43825908D01*
X60825000Y-44265000D02*
X60825000Y-43865000D01*
X60825000Y-43865000D02*
X60826254Y-43853873D01*
X61175000Y-44815000D02*
X61425000Y-44815000D01*
X60843826Y-43825908D02*
X60853306Y-43819951D01*
X60925000Y-42234618D02*
X60925000Y-42125000D01*
X60863874Y-43816253D02*
X60875000Y-43815000D01*
X61575000Y-43815000D02*
X61630630Y-43808731D01*
X61683470Y-43790242D02*
X61730872Y-43760457D01*
X60931268Y-45009369D02*
X60949757Y-44956529D01*
X61730872Y-43760457D02*
X61770457Y-43720872D01*
X61425000Y-44315000D02*
X60875000Y-44315000D01*
X61800242Y-43673470D02*
X61818731Y-43620630D01*
X61818731Y-43620630D02*
X61825000Y-43565000D01*
X59925000Y-46650000D02*
X60224999Y-46350001D01*
X60224999Y-46350001D02*
X60224999Y-44049999D01*
X60224999Y-44049999D02*
X60224999Y-43800001D01*
X69960000Y-41450000D02*
X71080000Y-41450000D01*
X69915495Y-41455014D02*
X69960000Y-41450000D01*
X69873223Y-41469806D02*
X69915495Y-41455014D01*
X69779806Y-41563223D02*
X69803633Y-41525302D01*
X69765014Y-41605495D02*
X69779806Y-41563223D01*
X69760000Y-41650000D02*
X69765014Y-41605495D01*
X69760000Y-41870333D02*
X69760000Y-41650000D01*
X69754985Y-41914837D02*
X69760000Y-41870333D01*
X69740193Y-41957109D02*
X69754985Y-41914837D01*
X69716366Y-41995030D02*
X69740193Y-41957109D01*
X69684697Y-42026699D02*
X69716366Y-41995030D01*
X69646776Y-42050526D02*
X69684697Y-42026699D01*
X69604504Y-42065318D02*
X69646776Y-42050526D01*
X69560000Y-42070333D02*
X69604504Y-42065318D01*
X69515495Y-42065318D02*
X69560000Y-42070333D01*
X69403633Y-41995030D02*
X69435302Y-42026699D01*
X69365014Y-41914837D02*
X69379806Y-41957109D01*
X69360000Y-41870333D02*
X69365014Y-41914837D01*
X69355984Y-41254193D02*
X69360000Y-41289833D01*
X69344138Y-41220340D02*
X69355984Y-41254193D01*
X69473223Y-42050526D02*
X69515495Y-42065318D01*
X69299695Y-41164611D02*
X69325056Y-41189972D01*
X69435302Y-42026699D02*
X69473223Y-42050526D01*
X69269327Y-41145529D02*
X69299695Y-41164611D01*
X69235474Y-41133683D02*
X69269327Y-41145529D01*
X69199834Y-41129667D02*
X69235474Y-41133683D01*
X69120166Y-41129667D02*
X69199834Y-41129667D01*
X69084525Y-41133683D02*
X69120166Y-41129667D01*
X69050672Y-41145529D02*
X69084525Y-41133683D01*
X69020304Y-41164611D02*
X69050672Y-41145529D01*
X68994943Y-41189972D02*
X69020304Y-41164611D01*
X68975861Y-41220340D02*
X68994943Y-41189972D01*
X68964015Y-41254193D02*
X68975861Y-41220340D01*
X68960000Y-41289833D02*
X68964015Y-41254193D01*
X68960000Y-41870333D02*
X68960000Y-41289833D01*
X68954985Y-41914837D02*
X68960000Y-41870333D01*
X68940193Y-41957109D02*
X68954985Y-41914837D01*
X68916366Y-41995030D02*
X68940193Y-41957109D01*
X68884697Y-42026699D02*
X68916366Y-41995030D01*
X68846776Y-42050526D02*
X68884697Y-42026699D01*
X68760000Y-42070333D02*
X68804504Y-42065318D01*
X71080000Y-41450000D02*
X71450000Y-41080000D01*
X68715495Y-42065318D02*
X68760000Y-42070333D01*
X68673223Y-42050526D02*
X68715495Y-42065318D01*
X68635302Y-42026699D02*
X68673223Y-42050526D01*
X68603633Y-41995030D02*
X68635302Y-42026699D01*
X67160000Y-42070333D02*
X67204504Y-42065318D01*
X65330000Y-41450000D02*
X65960000Y-41450000D01*
X69803633Y-41525302D02*
X69835302Y-41493633D01*
X66560000Y-41029667D02*
X66565014Y-40985163D01*
X67003633Y-41995030D02*
X67035302Y-42026699D01*
X66979806Y-41957109D02*
X67003633Y-41995030D01*
X66965014Y-41914837D02*
X66979806Y-41957109D01*
X67716366Y-40904970D02*
X67740193Y-40942891D01*
X66960000Y-41029667D02*
X66960000Y-41870333D01*
X67646776Y-40849474D02*
X67684697Y-40873301D01*
X66954985Y-40985163D02*
X66960000Y-41029667D01*
X69835302Y-41493633D02*
X69873223Y-41469806D01*
X66160000Y-41650000D02*
X66160000Y-41870333D01*
X67604504Y-40834682D02*
X67646776Y-40849474D01*
X67115495Y-42065318D02*
X67160000Y-42070333D01*
X66804504Y-40834682D02*
X66846776Y-40849474D01*
X66484697Y-42026699D02*
X66516366Y-41995030D01*
X68579806Y-41957109D02*
X68603633Y-41995030D01*
X68179806Y-41142891D02*
X68203633Y-41104970D01*
X68565014Y-41914837D02*
X68579806Y-41957109D01*
X68165014Y-41185163D02*
X68179806Y-41142891D01*
X66565014Y-40985163D02*
X66579806Y-40942891D01*
X68560000Y-41870333D02*
X68565014Y-41914837D01*
X68160000Y-41229667D02*
X68165014Y-41185163D01*
X66940193Y-40942891D02*
X66954985Y-40985163D01*
X66165014Y-41914837D02*
X66179806Y-41957109D01*
X67365014Y-40985163D02*
X67379806Y-40942891D01*
X67035302Y-42026699D02*
X67073223Y-42050526D01*
X68004504Y-42065318D02*
X68046776Y-42050526D01*
X66846776Y-40849474D02*
X66884697Y-40873301D01*
X66160000Y-41870333D02*
X66165014Y-41914837D01*
X66884697Y-40873301D02*
X66916366Y-40904970D01*
X69360000Y-41289833D02*
X69360000Y-41870333D01*
X66004504Y-41455014D02*
X66046776Y-41469806D01*
X67073223Y-42050526D02*
X67115495Y-42065318D01*
X65960000Y-41450000D02*
X66004504Y-41455014D01*
X69379806Y-41957109D02*
X69403633Y-41995030D01*
X66140193Y-41563223D02*
X66154985Y-41605495D01*
X66715495Y-40834682D02*
X66760000Y-40829667D01*
X66235302Y-42026699D02*
X66273223Y-42050526D01*
X68235302Y-41073301D02*
X68273223Y-41049474D01*
X66760000Y-40829667D02*
X66804504Y-40834682D01*
X67360000Y-41870333D02*
X67360000Y-41029667D01*
X69325056Y-41189972D02*
X69344138Y-41220340D01*
X66179806Y-41957109D02*
X66203633Y-41995030D01*
X66635302Y-40873301D02*
X66673223Y-40849474D01*
X66154985Y-41605495D02*
X66160000Y-41650000D01*
X66084697Y-41493633D02*
X66116366Y-41525302D01*
X67360000Y-41029667D02*
X67365014Y-40985163D01*
X66673223Y-40849474D02*
X66715495Y-40834682D01*
X68554985Y-41185163D02*
X68560000Y-41229667D01*
X66404504Y-42065318D02*
X66446776Y-42050526D01*
X66203633Y-41995030D02*
X66235302Y-42026699D01*
X66560000Y-41870333D02*
X66560000Y-41029667D01*
X66960000Y-41870333D02*
X66965014Y-41914837D01*
X67684697Y-40873301D02*
X67716366Y-40904970D01*
X66046776Y-41469806D02*
X66084697Y-41493633D01*
X67760000Y-41870333D02*
X67765014Y-41914837D01*
X68516366Y-41104970D02*
X68540193Y-41142891D01*
X66446776Y-42050526D02*
X66484697Y-42026699D01*
X67379806Y-40942891D02*
X67403633Y-40904970D01*
X66315495Y-42065318D02*
X66360000Y-42070333D01*
X66603633Y-40904970D02*
X66635302Y-40873301D01*
X67284697Y-42026699D02*
X67316366Y-41995030D01*
X66360000Y-42070333D02*
X66404504Y-42065318D01*
X71450000Y-40892181D02*
X71450000Y-38850000D01*
X66273223Y-42050526D02*
X66315495Y-42065318D01*
X67960000Y-42070333D02*
X68004504Y-42065318D01*
X66554985Y-41914837D02*
X66560000Y-41870333D01*
X66516366Y-41995030D02*
X66540193Y-41957109D01*
X68273223Y-41049474D02*
X68315495Y-41034682D01*
X67204504Y-42065318D02*
X67246776Y-42050526D01*
X66579806Y-40942891D02*
X66603633Y-40904970D01*
X67246776Y-42050526D02*
X67284697Y-42026699D01*
X68154985Y-41914837D02*
X68160000Y-41870333D01*
X67316366Y-41995030D02*
X67340193Y-41957109D01*
X67340193Y-41957109D02*
X67354985Y-41914837D01*
X67354985Y-41914837D02*
X67360000Y-41870333D01*
X66916366Y-40904970D02*
X66940193Y-40942891D01*
X67403633Y-40904970D02*
X67435302Y-40873301D01*
X67435302Y-40873301D02*
X67473223Y-40849474D01*
X67473223Y-40849474D02*
X67515495Y-40834682D01*
X67515495Y-40834682D02*
X67560000Y-40829667D01*
X67560000Y-40829667D02*
X67604504Y-40834682D01*
X66116366Y-41525302D02*
X66140193Y-41563223D01*
X67740193Y-40942891D02*
X67754985Y-40985163D01*
X67754985Y-40985163D02*
X67760000Y-41029667D01*
X68446776Y-41049474D02*
X68484697Y-41073301D01*
X67760000Y-41029667D02*
X67760000Y-41870333D01*
X66540193Y-41957109D02*
X66554985Y-41914837D01*
X68484697Y-41073301D02*
X68516366Y-41104970D01*
X67765014Y-41914837D02*
X67779806Y-41957109D01*
X67779806Y-41957109D02*
X67803633Y-41995030D01*
X67803633Y-41995030D02*
X67835302Y-42026699D01*
X67835302Y-42026699D02*
X67873223Y-42050526D01*
X67873223Y-42050526D02*
X67915495Y-42065318D01*
X71450000Y-41080000D02*
X71450000Y-40892181D01*
X67915495Y-42065318D02*
X67960000Y-42070333D01*
X68046776Y-42050526D02*
X68084697Y-42026699D01*
X68084697Y-42026699D02*
X68116366Y-41995030D01*
X68116366Y-41995030D02*
X68140193Y-41957109D01*
X68140193Y-41957109D02*
X68154985Y-41914837D01*
X68560000Y-41229667D02*
X68560000Y-41870333D01*
X68160000Y-41870333D02*
X68160000Y-41229667D01*
X68203633Y-41104970D02*
X68235302Y-41073301D01*
X68315495Y-41034682D02*
X68360000Y-41029667D01*
X68360000Y-41029667D02*
X68404504Y-41034682D01*
X68804504Y-42065318D02*
X68846776Y-42050526D01*
X68404504Y-41034682D02*
X68446776Y-41049474D01*
X68540193Y-41142891D02*
X68554985Y-41185163D01*
D35*
X64500000Y-7250000D02*
X63750000Y-6500000D01*
X64500000Y-8000000D02*
X64500000Y-7250000D01*
X64500000Y-8900000D02*
X64400000Y-9000000D01*
X64500000Y-8000000D02*
X64500000Y-8900000D01*
D40*
X44630000Y-17240000D02*
X44630000Y-11930000D01*
X44630000Y-11930000D02*
X43250000Y-10550000D01*
X45500000Y-14300000D02*
X45900000Y-14700000D01*
X45500000Y-10550000D02*
X45500000Y-14300000D01*
D35*
X50610000Y-17240000D02*
X50650000Y-17200000D01*
X47170000Y-17240000D02*
X50610000Y-17240000D01*
X48500000Y-14640000D02*
X48440000Y-14700000D01*
X48500000Y-10550000D02*
X48500000Y-14640000D01*
X52894499Y-32944499D02*
X57100000Y-37150000D01*
X60550000Y-37150000D02*
X60950000Y-37150000D01*
X57100000Y-37150000D02*
X60550000Y-37150000D01*
X52894499Y-35173243D02*
X52800000Y-35267742D01*
X52894499Y-32944499D02*
X52894499Y-35173243D01*
X36100000Y-52600000D02*
X33000000Y-49500000D01*
X30500000Y-47000000D02*
X13400000Y-47000000D01*
X11950000Y-41238000D02*
X11950000Y-45550000D01*
X11312000Y-40600000D02*
X11950000Y-41238000D01*
X10050000Y-40600000D02*
X11312000Y-40600000D01*
X13400000Y-47000000D02*
X11950000Y-45550000D01*
X10050000Y-42600000D02*
X9950000Y-42700000D01*
X10050000Y-40600000D02*
X10050000Y-42600000D01*
X9950000Y-44600000D02*
X10200000Y-44850000D01*
X9950000Y-42700000D02*
X9950000Y-44600000D01*
X10200000Y-44850000D02*
X8100000Y-44850000D01*
X6688000Y-44850000D02*
X6000000Y-45538000D01*
X8100000Y-44850000D02*
X6688000Y-44850000D01*
X6000000Y-45538000D02*
X6000000Y-47200000D01*
X4850000Y-48350000D02*
X4700000Y-48350000D01*
X6000000Y-47200000D02*
X4850000Y-48350000D01*
X4700000Y-48350000D02*
X2600000Y-48350000D01*
X10050000Y-40600000D02*
X10050000Y-40050000D01*
X10050000Y-40050000D02*
X6100000Y-36100000D01*
X61750000Y-37150000D02*
X63600000Y-35300000D01*
X60550000Y-37150000D02*
X61750000Y-37150000D01*
D37*
X74750000Y-28250000D02*
X73250000Y-26750000D01*
X73250000Y-19550000D02*
X73250000Y-19850000D01*
X73250000Y-26750000D02*
X73250000Y-19850000D01*
X71800000Y-18100000D02*
X73250000Y-19550000D01*
X7100000Y-20900000D02*
X7100000Y-12000000D01*
X74750000Y-26750000D02*
X74750000Y-19857933D01*
X74750000Y-19857933D02*
X72896034Y-18003966D01*
D38*
X68750000Y-6500000D02*
X68750000Y-7000000D01*
X68750000Y-7000000D02*
X67500000Y-8250000D01*
X68750000Y-6500000D02*
X68750000Y-8250000D01*
X68750000Y-7000000D02*
X70000000Y-8250000D01*
D34*
X20000000Y-21500000D02*
X21500000Y-21500000D01*
X23000000Y-21500000D02*
X24500000Y-21500000D01*
D37*
X4304467Y-26254467D02*
X4550000Y-26500000D01*
X3745533Y-26254467D02*
X4304467Y-26254467D01*
D35*
X4550000Y-28400000D02*
X4450000Y-28500000D01*
X4550000Y-26500000D02*
X4550000Y-28400000D01*
X2500000Y-24000000D02*
X7000000Y-24000000D01*
X1500000Y-25000000D02*
X2500000Y-24000000D01*
X12000000Y-21500000D02*
X11500000Y-21500000D01*
X1500000Y-27000000D02*
X1500000Y-25000000D01*
X4450000Y-28500000D02*
X3000000Y-28500000D01*
X3000000Y-28500000D02*
X1500000Y-27000000D01*
X13000000Y-21500000D02*
X8300000Y-21500000D01*
X13000000Y-21500000D02*
X12000000Y-21500000D01*
X20000000Y-21500000D02*
X13000000Y-21500000D01*
X7600000Y-22200000D02*
X7600000Y-23400000D01*
X7000000Y-24000000D02*
X7600000Y-23400000D01*
X8300000Y-21500000D02*
X7600000Y-22200000D01*
X4450000Y-30900000D02*
X4550000Y-31000000D01*
X4450000Y-28500000D02*
X4450000Y-30900000D01*
D40*
X5500000Y-32500000D02*
X5000000Y-32000000D01*
X4550000Y-31850000D02*
X4550000Y-31000000D01*
X4700000Y-32000000D02*
X4550000Y-31850000D01*
X5000000Y-32000000D02*
X4700000Y-32000000D01*
D37*
X4150000Y-33850000D02*
X5500000Y-32500000D01*
X3700000Y-33850000D02*
X4150000Y-33850000D01*
D35*
X23250000Y-3500000D02*
X22250000Y-2500000D01*
X24900000Y-3500000D02*
X23250000Y-3500000D01*
D37*
X24025000Y-3500000D02*
X23000000Y-3500000D01*
X24900000Y-3500000D02*
X24025000Y-3500000D01*
X22775000Y-3500000D02*
X23250000Y-3500000D01*
X21875000Y-9175000D02*
X21875000Y-4400000D01*
X21875000Y-4400000D02*
X22775000Y-3500000D01*
D35*
X13700000Y-9150000D02*
X13700000Y-9050000D01*
X16810000Y-12260000D02*
X13700000Y-9150000D01*
X16810000Y-17200000D02*
X16810000Y-12260000D01*
D38*
X23800000Y-9565000D02*
X23800000Y-6375000D01*
X19980000Y-13385000D02*
X23800000Y-9565000D01*
D35*
X3300000Y-10738000D02*
X3300000Y-12750000D01*
X4138000Y-9900000D02*
X3300000Y-10738000D01*
X7400000Y-9900000D02*
X4138000Y-9900000D01*
X13000000Y-17200000D02*
X11800001Y-16000001D01*
X11800001Y-16000001D02*
X11500001Y-16000001D01*
X11500001Y-16000001D02*
X8800000Y-13300000D01*
X8800000Y-13300000D02*
X8800000Y-11300000D01*
X8800000Y-11300000D02*
X7400000Y-9900000D01*
D38*
X26500000Y-6400000D02*
X26200000Y-6100000D01*
X26500000Y-9350000D02*
X26500000Y-6400000D01*
D37*
X3800000Y-36050000D02*
X3700000Y-35950000D01*
X3800000Y-37700000D02*
X3800000Y-36050000D01*
X3750000Y-37750000D02*
X3800000Y-37700000D01*
X3750000Y-39300000D02*
X3750000Y-37750000D01*
X82280000Y-31700000D02*
X83670000Y-30310000D01*
X83670000Y-30310000D02*
X83670000Y-22455000D01*
X83670000Y-22455000D02*
X84617500Y-21507500D01*
X84617500Y-21507500D02*
X88250000Y-17875000D01*
D41*
G36*
X61916255Y-22858332D02*
G01*
X61916255Y-27637621D01*
X61917216Y-27647376D01*
X61920061Y-27656755D01*
X61924682Y-27665400D01*
X61930900Y-27672976D01*
X62230900Y-27972976D01*
X62238476Y-27979194D01*
X62247121Y-27983815D01*
X62256500Y-27986660D01*
X62266255Y-27987621D01*
X64850000Y-27987621D01*
X64850000Y-28537621D01*
X64850961Y-28547376D01*
X64853806Y-28556755D01*
X64858427Y-28565400D01*
X64864645Y-28572976D01*
X64872221Y-28579194D01*
X64880866Y-28583815D01*
X64890245Y-28586660D01*
X64900000Y-28587621D01*
X66516256Y-28587622D01*
X66516256Y-30387622D01*
X61766255Y-30387622D01*
X61756500Y-30388583D01*
X61747121Y-30391428D01*
X61738476Y-30396049D01*
X61730900Y-30402267D01*
X61530901Y-30602266D01*
X61524683Y-30609842D01*
X61520062Y-30618487D01*
X61517217Y-30627866D01*
X61516256Y-30637621D01*
X61516256Y-34416912D01*
X61045546Y-34887622D01*
X56986965Y-34887622D01*
X56016255Y-33916912D01*
X56016255Y-22858332D01*
X56986965Y-21887622D01*
X60945545Y-21887622D01*
X61916255Y-22858332D01*
X61916255Y-22858332D01*
G37*
X61916255Y-22858332D02*
X61916255Y-27637621D01*
X61917216Y-27647376D01*
X61920061Y-27656755D01*
X61924682Y-27665400D01*
X61930900Y-27672976D01*
X62230900Y-27972976D01*
X62238476Y-27979194D01*
X62247121Y-27983815D01*
X62256500Y-27986660D01*
X62266255Y-27987621D01*
X64850000Y-27987621D01*
X64850000Y-28537621D01*
X64850961Y-28547376D01*
X64853806Y-28556755D01*
X64858427Y-28565400D01*
X64864645Y-28572976D01*
X64872221Y-28579194D01*
X64880866Y-28583815D01*
X64890245Y-28586660D01*
X64900000Y-28587621D01*
X66516256Y-28587622D01*
X66516256Y-30387622D01*
X61766255Y-30387622D01*
X61756500Y-30388583D01*
X61747121Y-30391428D01*
X61738476Y-30396049D01*
X61730900Y-30402267D01*
X61530901Y-30602266D01*
X61524683Y-30609842D01*
X61520062Y-30618487D01*
X61517217Y-30627866D01*
X61516256Y-30637621D01*
X61516256Y-34416912D01*
X61045546Y-34887622D01*
X56986965Y-34887622D01*
X56016255Y-33916912D01*
X56016255Y-22858332D01*
X56986965Y-21887622D01*
X60945545Y-21887622D01*
X61916255Y-22858332D01*
D37*
G36*
X49373000Y-13263911D02*
G01*
X49364000Y-13309157D01*
X49364000Y-13551643D01*
X49373000Y-13596889D01*
X49373000Y-15373000D01*
X47377000Y-15373000D01*
X47377000Y-9877000D01*
X49373000Y-9877000D01*
X49373000Y-13263911D01*
X49373000Y-13263911D01*
G37*
X49373000Y-13263911D02*
X49364000Y-13309157D01*
X49364000Y-13551643D01*
X49373000Y-13596889D01*
X49373000Y-15373000D01*
X47377000Y-15373000D01*
X47377000Y-9877000D01*
X49373000Y-9877000D01*
X49373000Y-13263911D01*
G36*
X51373000Y-18373000D02*
G01*
X46127000Y-18373000D01*
X46127000Y-16377000D01*
X51373000Y-16377000D01*
X51373000Y-18373000D01*
X51373000Y-18373000D01*
G37*
X51373000Y-18373000D02*
X46127000Y-18373000D01*
X46127000Y-16377000D01*
X51373000Y-16377000D01*
X51373000Y-18373000D01*
G36*
X58373000Y-10873000D02*
G01*
X55552606Y-10873000D01*
X53839803Y-9160197D01*
X53820557Y-9144403D01*
X53798601Y-9132667D01*
X53774776Y-9125440D01*
X53750000Y-9123000D01*
X47627000Y-9123000D01*
X47627000Y-6627000D01*
X58373000Y-6627000D01*
X58373000Y-10873000D01*
X58373000Y-10873000D01*
G37*
X58373000Y-10873000D02*
X55552606Y-10873000D01*
X53839803Y-9160197D01*
X53820557Y-9144403D01*
X53798601Y-9132667D01*
X53774776Y-9125440D01*
X53750000Y-9123000D01*
X47627000Y-9123000D01*
X47627000Y-6627000D01*
X58373000Y-6627000D01*
X58373000Y-10873000D01*
G36*
X55910197Y-12339803D02*
G01*
X55929443Y-12355597D01*
X55951399Y-12367333D01*
X55975224Y-12374560D01*
X56000000Y-12377000D01*
X59373000Y-12377000D01*
X59373000Y-16123000D01*
X55500000Y-16123000D01*
X55475224Y-16125440D01*
X55451399Y-16132667D01*
X55429443Y-16144403D01*
X55410197Y-16160197D01*
X53697394Y-17873000D01*
X52127000Y-17873000D01*
X52127000Y-11500000D01*
X52124560Y-11475224D01*
X52117333Y-11451399D01*
X52105597Y-11429443D01*
X52089803Y-11410197D01*
X51877000Y-11197394D01*
X51877000Y-9877000D01*
X53447394Y-9877000D01*
X55910197Y-12339803D01*
X55910197Y-12339803D01*
G37*
X55910197Y-12339803D02*
X55929443Y-12355597D01*
X55951399Y-12367333D01*
X55975224Y-12374560D01*
X56000000Y-12377000D01*
X59373000Y-12377000D01*
X59373000Y-16123000D01*
X55500000Y-16123000D01*
X55475224Y-16125440D01*
X55451399Y-16132667D01*
X55429443Y-16144403D01*
X55410197Y-16160197D01*
X53697394Y-17873000D01*
X52127000Y-17873000D01*
X52127000Y-11500000D01*
X52124560Y-11475224D01*
X52117333Y-11451399D01*
X52105597Y-11429443D01*
X52089803Y-11410197D01*
X51877000Y-11197394D01*
X51877000Y-9877000D01*
X53447394Y-9877000D01*
X55910197Y-12339803D01*
G36*
X59873000Y-10873000D02*
G01*
X58377000Y-10873000D01*
X58377000Y-6627000D01*
X59873000Y-6627000D01*
X59873000Y-10873000D01*
X59873000Y-10873000D01*
G37*
X59873000Y-10873000D02*
X58377000Y-10873000D01*
X58377000Y-6627000D01*
X59873000Y-6627000D01*
X59873000Y-10873000D01*
G36*
X69623000Y-4000000D02*
G01*
X69625440Y-4024776D01*
X69632667Y-4048601D01*
X69644403Y-4070557D01*
X69660197Y-4089803D01*
X70873000Y-5302606D01*
X70873000Y-8873000D01*
X66877000Y-8873000D01*
X66877000Y-5500000D01*
X66874560Y-5475224D01*
X66867333Y-5451399D01*
X66855597Y-5429443D01*
X66839803Y-5410197D01*
X66820557Y-5394403D01*
X66798601Y-5382667D01*
X66774776Y-5375440D01*
X66750000Y-5373000D01*
X65806583Y-5373000D01*
X65770711Y-5329289D01*
X65712696Y-5281678D01*
X65646508Y-5246299D01*
X65574689Y-5224513D01*
X65500000Y-5217157D01*
X62000000Y-5217157D01*
X61925311Y-5224513D01*
X61853492Y-5246299D01*
X61787304Y-5281678D01*
X61729289Y-5329289D01*
X61693417Y-5373000D01*
X49394229Y-5373000D01*
X49519284Y-5348125D01*
X49793359Y-5234600D01*
X50040019Y-5069787D01*
X50249787Y-4860019D01*
X50414600Y-4613359D01*
X50528125Y-4339284D01*
X50586000Y-4048328D01*
X50586000Y-3751672D01*
X50528125Y-3460716D01*
X50414600Y-3186641D01*
X50249787Y-2939981D01*
X50040019Y-2730213D01*
X49793359Y-2565400D01*
X49519284Y-2451875D01*
X49228328Y-2394000D01*
X48931672Y-2394000D01*
X48640716Y-2451875D01*
X48366641Y-2565400D01*
X48119981Y-2730213D01*
X47910213Y-2939981D01*
X47745400Y-3186641D01*
X47631875Y-3460716D01*
X47574000Y-3751672D01*
X47574000Y-4048328D01*
X47620462Y-4281908D01*
X47442655Y-4459715D01*
X47413579Y-4483577D01*
X47376358Y-4528932D01*
X47318356Y-4599607D01*
X47313297Y-4609072D01*
X46684370Y-5238000D01*
X38537423Y-5238000D01*
X38500000Y-5234314D01*
X38462577Y-5238000D01*
X38462574Y-5238000D01*
X38350622Y-5249026D01*
X38206985Y-5292598D01*
X38181493Y-5306224D01*
X38074607Y-5363355D01*
X38062855Y-5373000D01*
X33500000Y-5373000D01*
X33475224Y-5375440D01*
X33451399Y-5382667D01*
X33429443Y-5394403D01*
X33410197Y-5410197D01*
X33394403Y-5429443D01*
X33382667Y-5451399D01*
X33375440Y-5475224D01*
X33373000Y-5500000D01*
X33373000Y-16447394D01*
X27447394Y-22373000D01*
X18977000Y-22373000D01*
X18977000Y-19127000D01*
X25500000Y-19127000D01*
X25524776Y-19124560D01*
X25548601Y-19117333D01*
X25570557Y-19105597D01*
X25589803Y-19089803D01*
X29339803Y-15339803D01*
X29355597Y-15320557D01*
X29367333Y-15298601D01*
X29374560Y-15274776D01*
X29377000Y-15250000D01*
X29377000Y-431000D01*
X69623000Y-431000D01*
X69623000Y-4000000D01*
X69623000Y-4000000D01*
G37*
X69623000Y-4000000D02*
X69625440Y-4024776D01*
X69632667Y-4048601D01*
X69644403Y-4070557D01*
X69660197Y-4089803D01*
X70873000Y-5302606D01*
X70873000Y-8873000D01*
X66877000Y-8873000D01*
X66877000Y-5500000D01*
X66874560Y-5475224D01*
X66867333Y-5451399D01*
X66855597Y-5429443D01*
X66839803Y-5410197D01*
X66820557Y-5394403D01*
X66798601Y-5382667D01*
X66774776Y-5375440D01*
X66750000Y-5373000D01*
X65806583Y-5373000D01*
X65770711Y-5329289D01*
X65712696Y-5281678D01*
X65646508Y-5246299D01*
X65574689Y-5224513D01*
X65500000Y-5217157D01*
X62000000Y-5217157D01*
X61925311Y-5224513D01*
X61853492Y-5246299D01*
X61787304Y-5281678D01*
X61729289Y-5329289D01*
X61693417Y-5373000D01*
X49394229Y-5373000D01*
X49519284Y-5348125D01*
X49793359Y-5234600D01*
X50040019Y-5069787D01*
X50249787Y-4860019D01*
X50414600Y-4613359D01*
X50528125Y-4339284D01*
X50586000Y-4048328D01*
X50586000Y-3751672D01*
X50528125Y-3460716D01*
X50414600Y-3186641D01*
X50249787Y-2939981D01*
X50040019Y-2730213D01*
X49793359Y-2565400D01*
X49519284Y-2451875D01*
X49228328Y-2394000D01*
X48931672Y-2394000D01*
X48640716Y-2451875D01*
X48366641Y-2565400D01*
X48119981Y-2730213D01*
X47910213Y-2939981D01*
X47745400Y-3186641D01*
X47631875Y-3460716D01*
X47574000Y-3751672D01*
X47574000Y-4048328D01*
X47620462Y-4281908D01*
X47442655Y-4459715D01*
X47413579Y-4483577D01*
X47376358Y-4528932D01*
X47318356Y-4599607D01*
X47313297Y-4609072D01*
X46684370Y-5238000D01*
X38537423Y-5238000D01*
X38500000Y-5234314D01*
X38462577Y-5238000D01*
X38462574Y-5238000D01*
X38350622Y-5249026D01*
X38206985Y-5292598D01*
X38181493Y-5306224D01*
X38074607Y-5363355D01*
X38062855Y-5373000D01*
X33500000Y-5373000D01*
X33475224Y-5375440D01*
X33451399Y-5382667D01*
X33429443Y-5394403D01*
X33410197Y-5410197D01*
X33394403Y-5429443D01*
X33382667Y-5451399D01*
X33375440Y-5475224D01*
X33373000Y-5500000D01*
X33373000Y-16447394D01*
X27447394Y-22373000D01*
X18977000Y-22373000D01*
X18977000Y-19127000D01*
X25500000Y-19127000D01*
X25524776Y-19124560D01*
X25548601Y-19117333D01*
X25570557Y-19105597D01*
X25589803Y-19089803D01*
X29339803Y-15339803D01*
X29355597Y-15320557D01*
X29367333Y-15298601D01*
X29374560Y-15274776D01*
X29377000Y-15250000D01*
X29377000Y-431000D01*
X69623000Y-431000D01*
X69623000Y-4000000D01*
G36*
X99569000Y-30074395D02*
G01*
X99539541Y-29926292D01*
X99262060Y-29256393D01*
X98859220Y-28653499D01*
X98346501Y-28140780D01*
X97743607Y-27737940D01*
X97073708Y-27460459D01*
X96362547Y-27319000D01*
X95637453Y-27319000D01*
X94926292Y-27460459D01*
X94256393Y-27737940D01*
X93653499Y-28140780D01*
X93140780Y-28653499D01*
X92737940Y-29256393D01*
X92460459Y-29926292D01*
X92319000Y-30637453D01*
X92319000Y-31362547D01*
X92460459Y-32073708D01*
X92737940Y-32743607D01*
X93140780Y-33346501D01*
X93653499Y-33859220D01*
X94256393Y-34262060D01*
X94926292Y-34539541D01*
X95637453Y-34681000D01*
X96362547Y-34681000D01*
X97073708Y-34539541D01*
X97743607Y-34262060D01*
X98346501Y-33859220D01*
X98859220Y-33346501D01*
X99262060Y-32743607D01*
X99539541Y-32073708D01*
X99569000Y-31925606D01*
X99569000Y-45373000D01*
X89627000Y-45373000D01*
X89627000Y-27052606D01*
X94589803Y-22089803D01*
X94605597Y-22070557D01*
X94617333Y-22048601D01*
X94624560Y-22024776D01*
X94627000Y-22000000D01*
X94627000Y-6000000D01*
X94624560Y-5975224D01*
X94617333Y-5951399D01*
X94605597Y-5929443D01*
X94589803Y-5910197D01*
X94570557Y-5894403D01*
X94548601Y-5882667D01*
X94524776Y-5875440D01*
X94500000Y-5873000D01*
X93136079Y-5873000D01*
X93134112Y-5871033D01*
X93022574Y-5796506D01*
X92898640Y-5745171D01*
X92767073Y-5719000D01*
X92632927Y-5719000D01*
X92501360Y-5745171D01*
X92377426Y-5796506D01*
X92265888Y-5871033D01*
X92263921Y-5873000D01*
X90540433Y-5873000D01*
X90526225Y-5858792D01*
X90391021Y-5768452D01*
X90240789Y-5706224D01*
X90081305Y-5674500D01*
X89918695Y-5674500D01*
X89759211Y-5706224D01*
X89608979Y-5768452D01*
X89473775Y-5858792D01*
X89459567Y-5873000D01*
X74127000Y-5873000D01*
X74127000Y-3918695D01*
X85074500Y-3918695D01*
X85074500Y-4081305D01*
X85106224Y-4240789D01*
X85168452Y-4391021D01*
X85258792Y-4526225D01*
X85373775Y-4641208D01*
X85508979Y-4731548D01*
X85659211Y-4793776D01*
X85818695Y-4825500D01*
X85981305Y-4825500D01*
X86140789Y-4793776D01*
X86291021Y-4731548D01*
X86426225Y-4641208D01*
X86541208Y-4526225D01*
X86631548Y-4391021D01*
X86693776Y-4240789D01*
X86725500Y-4081305D01*
X86725500Y-3918695D01*
X86693776Y-3759211D01*
X86631548Y-3608979D01*
X86541208Y-3473775D01*
X86426225Y-3358792D01*
X86291021Y-3268452D01*
X86140789Y-3206224D01*
X85981305Y-3174500D01*
X85818695Y-3174500D01*
X85659211Y-3206224D01*
X85508979Y-3268452D01*
X85373775Y-3358792D01*
X85258792Y-3473775D01*
X85168452Y-3608979D01*
X85106224Y-3759211D01*
X85074500Y-3918695D01*
X74127000Y-3918695D01*
X74127000Y-431000D01*
X99569001Y-431000D01*
X99569000Y-30074395D01*
X99569000Y-30074395D01*
G37*
X99569000Y-30074395D02*
X99539541Y-29926292D01*
X99262060Y-29256393D01*
X98859220Y-28653499D01*
X98346501Y-28140780D01*
X97743607Y-27737940D01*
X97073708Y-27460459D01*
X96362547Y-27319000D01*
X95637453Y-27319000D01*
X94926292Y-27460459D01*
X94256393Y-27737940D01*
X93653499Y-28140780D01*
X93140780Y-28653499D01*
X92737940Y-29256393D01*
X92460459Y-29926292D01*
X92319000Y-30637453D01*
X92319000Y-31362547D01*
X92460459Y-32073708D01*
X92737940Y-32743607D01*
X93140780Y-33346501D01*
X93653499Y-33859220D01*
X94256393Y-34262060D01*
X94926292Y-34539541D01*
X95637453Y-34681000D01*
X96362547Y-34681000D01*
X97073708Y-34539541D01*
X97743607Y-34262060D01*
X98346501Y-33859220D01*
X98859220Y-33346501D01*
X99262060Y-32743607D01*
X99539541Y-32073708D01*
X99569000Y-31925606D01*
X99569000Y-45373000D01*
X89627000Y-45373000D01*
X89627000Y-27052606D01*
X94589803Y-22089803D01*
X94605597Y-22070557D01*
X94617333Y-22048601D01*
X94624560Y-22024776D01*
X94627000Y-22000000D01*
X94627000Y-6000000D01*
X94624560Y-5975224D01*
X94617333Y-5951399D01*
X94605597Y-5929443D01*
X94589803Y-5910197D01*
X94570557Y-5894403D01*
X94548601Y-5882667D01*
X94524776Y-5875440D01*
X94500000Y-5873000D01*
X93136079Y-5873000D01*
X93134112Y-5871033D01*
X93022574Y-5796506D01*
X92898640Y-5745171D01*
X92767073Y-5719000D01*
X92632927Y-5719000D01*
X92501360Y-5745171D01*
X92377426Y-5796506D01*
X92265888Y-5871033D01*
X92263921Y-5873000D01*
X90540433Y-5873000D01*
X90526225Y-5858792D01*
X90391021Y-5768452D01*
X90240789Y-5706224D01*
X90081305Y-5674500D01*
X89918695Y-5674500D01*
X89759211Y-5706224D01*
X89608979Y-5768452D01*
X89473775Y-5858792D01*
X89459567Y-5873000D01*
X74127000Y-5873000D01*
X74127000Y-3918695D01*
X85074500Y-3918695D01*
X85074500Y-4081305D01*
X85106224Y-4240789D01*
X85168452Y-4391021D01*
X85258792Y-4526225D01*
X85373775Y-4641208D01*
X85508979Y-4731548D01*
X85659211Y-4793776D01*
X85818695Y-4825500D01*
X85981305Y-4825500D01*
X86140789Y-4793776D01*
X86291021Y-4731548D01*
X86426225Y-4641208D01*
X86541208Y-4526225D01*
X86631548Y-4391021D01*
X86693776Y-4240789D01*
X86725500Y-4081305D01*
X86725500Y-3918695D01*
X86693776Y-3759211D01*
X86631548Y-3608979D01*
X86541208Y-3473775D01*
X86426225Y-3358792D01*
X86291021Y-3268452D01*
X86140789Y-3206224D01*
X85981305Y-3174500D01*
X85818695Y-3174500D01*
X85659211Y-3206224D01*
X85508979Y-3268452D01*
X85373775Y-3358792D01*
X85258792Y-3473775D01*
X85168452Y-3608979D01*
X85106224Y-3759211D01*
X85074500Y-3918695D01*
X74127000Y-3918695D01*
X74127000Y-431000D01*
X99569001Y-431000D01*
X99569000Y-30074395D01*
G36*
X85873000Y-11373000D02*
G01*
X84127000Y-11373000D01*
X84127000Y-9627000D01*
X85873000Y-9627000D01*
X85873000Y-11373000D01*
X85873000Y-11373000D01*
G37*
X85873000Y-11373000D02*
X84127000Y-11373000D01*
X84127000Y-9627000D01*
X85873000Y-9627000D01*
X85873000Y-11373000D01*
G36*
X81873000Y-48052606D02*
G01*
X81873000Y-49873000D01*
X75052606Y-49873000D01*
X73127000Y-47947394D01*
X73127000Y-47127000D01*
X80947394Y-47127000D01*
X81873000Y-48052606D01*
X81873000Y-48052606D01*
G37*
X81873000Y-48052606D02*
X81873000Y-49873000D01*
X75052606Y-49873000D01*
X73127000Y-47947394D01*
X73127000Y-47127000D01*
X80947394Y-47127000D01*
X81873000Y-48052606D01*
G36*
X82873000Y-48052606D02*
G01*
X82873000Y-49873000D01*
X81127000Y-49873000D01*
X81127000Y-47127000D01*
X81947394Y-47127000D01*
X82873000Y-48052606D01*
X82873000Y-48052606D01*
G37*
X82873000Y-48052606D02*
X82873000Y-49873000D01*
X81127000Y-49873000D01*
X81127000Y-47127000D01*
X81947394Y-47127000D01*
X82873000Y-48052606D01*
G36*
X19373000Y-964193D02*
G01*
X19350000Y-961928D01*
X18385750Y-965000D01*
X18227000Y-1123750D01*
X18227000Y-2373000D01*
X18247000Y-2373000D01*
X18247000Y-2627000D01*
X18227000Y-2627000D01*
X18227000Y-3876250D01*
X18385750Y-4035000D01*
X19350000Y-4038072D01*
X19373000Y-4035807D01*
X19373000Y-4839550D01*
X18550000Y-4836928D01*
X18425518Y-4849188D01*
X18305820Y-4885498D01*
X18195506Y-4944463D01*
X18098815Y-5023815D01*
X18019463Y-5120506D01*
X17960498Y-5230820D01*
X17924188Y-5350518D01*
X17911928Y-5475000D01*
X17915000Y-6089250D01*
X18073750Y-6248000D01*
X19373000Y-6248000D01*
X19373000Y-6502000D01*
X18073750Y-6502000D01*
X17915000Y-6660750D01*
X17911928Y-7275000D01*
X17924188Y-7399482D01*
X17960498Y-7519180D01*
X18019463Y-7629494D01*
X18098815Y-7726185D01*
X18195506Y-7805537D01*
X18305820Y-7864502D01*
X18425518Y-7900812D01*
X18550000Y-7913072D01*
X19373000Y-7910450D01*
X19373000Y-8873000D01*
X18541000Y-8873000D01*
X18541000Y-8769511D01*
X18474479Y-8435086D01*
X18343993Y-8120064D01*
X18154556Y-7836552D01*
X17913448Y-7595444D01*
X17629936Y-7406007D01*
X17314914Y-7275521D01*
X16980489Y-7209000D01*
X16639511Y-7209000D01*
X16305086Y-7275521D01*
X15990064Y-7406007D01*
X15706552Y-7595444D01*
X15627000Y-7674996D01*
X15627000Y-6750000D01*
X15624560Y-6725224D01*
X15617333Y-6701399D01*
X15605597Y-6679443D01*
X15589803Y-6660197D01*
X15570557Y-6644403D01*
X15548601Y-6632667D01*
X15524776Y-6625440D01*
X15500000Y-6623000D01*
X14670927Y-6623000D01*
X14700812Y-6524482D01*
X14713072Y-6400000D01*
X14710000Y-5435750D01*
X14551250Y-5277000D01*
X13302000Y-5277000D01*
X13302000Y-5297000D01*
X13048000Y-5297000D01*
X13048000Y-5277000D01*
X11798750Y-5277000D01*
X11640000Y-5435750D01*
X11636928Y-6400000D01*
X11649188Y-6524482D01*
X11679073Y-6623000D01*
X11127000Y-6623000D01*
X11127000Y-3900000D01*
X11636928Y-3900000D01*
X11640000Y-4864250D01*
X11798750Y-5023000D01*
X13048000Y-5023000D01*
X13048000Y-3423750D01*
X13302000Y-3423750D01*
X13302000Y-5023000D01*
X14551250Y-5023000D01*
X14710000Y-4864250D01*
X14713072Y-3900000D01*
X14700812Y-3775518D01*
X14664502Y-3655820D01*
X14605537Y-3545506D01*
X14526185Y-3448815D01*
X14466704Y-3400000D01*
X16211928Y-3400000D01*
X16224188Y-3524482D01*
X16260498Y-3644180D01*
X16319463Y-3754494D01*
X16398815Y-3851185D01*
X16495506Y-3930537D01*
X16605820Y-3989502D01*
X16725518Y-4025812D01*
X16850000Y-4038072D01*
X17814250Y-4035000D01*
X17973000Y-3876250D01*
X17973000Y-2627000D01*
X16373750Y-2627000D01*
X16215000Y-2785750D01*
X16211928Y-3400000D01*
X14466704Y-3400000D01*
X14429494Y-3369463D01*
X14319180Y-3310498D01*
X14199482Y-3274188D01*
X14075000Y-3261928D01*
X13460750Y-3265000D01*
X13302000Y-3423750D01*
X13048000Y-3423750D01*
X12889250Y-3265000D01*
X12275000Y-3261928D01*
X12150518Y-3274188D01*
X12030820Y-3310498D01*
X11920506Y-3369463D01*
X11823815Y-3448815D01*
X11744463Y-3545506D01*
X11685498Y-3655820D01*
X11649188Y-3775518D01*
X11636928Y-3900000D01*
X11127000Y-3900000D01*
X11127000Y-1600000D01*
X16211928Y-1600000D01*
X16215000Y-2214250D01*
X16373750Y-2373000D01*
X17973000Y-2373000D01*
X17973000Y-1123750D01*
X17814250Y-965000D01*
X16850000Y-961928D01*
X16725518Y-974188D01*
X16605820Y-1010498D01*
X16495506Y-1069463D01*
X16398815Y-1148815D01*
X16319463Y-1245506D01*
X16260498Y-1355820D01*
X16224188Y-1475518D01*
X16211928Y-1600000D01*
X11127000Y-1600000D01*
X11127000Y-877000D01*
X19373000Y-877000D01*
X19373000Y-964193D01*
X19373000Y-964193D01*
G37*
X19373000Y-964193D02*
X19350000Y-961928D01*
X18385750Y-965000D01*
X18227000Y-1123750D01*
X18227000Y-2373000D01*
X18247000Y-2373000D01*
X18247000Y-2627000D01*
X18227000Y-2627000D01*
X18227000Y-3876250D01*
X18385750Y-4035000D01*
X19350000Y-4038072D01*
X19373000Y-4035807D01*
X19373000Y-4839550D01*
X18550000Y-4836928D01*
X18425518Y-4849188D01*
X18305820Y-4885498D01*
X18195506Y-4944463D01*
X18098815Y-5023815D01*
X18019463Y-5120506D01*
X17960498Y-5230820D01*
X17924188Y-5350518D01*
X17911928Y-5475000D01*
X17915000Y-6089250D01*
X18073750Y-6248000D01*
X19373000Y-6248000D01*
X19373000Y-6502000D01*
X18073750Y-6502000D01*
X17915000Y-6660750D01*
X17911928Y-7275000D01*
X17924188Y-7399482D01*
X17960498Y-7519180D01*
X18019463Y-7629494D01*
X18098815Y-7726185D01*
X18195506Y-7805537D01*
X18305820Y-7864502D01*
X18425518Y-7900812D01*
X18550000Y-7913072D01*
X19373000Y-7910450D01*
X19373000Y-8873000D01*
X18541000Y-8873000D01*
X18541000Y-8769511D01*
X18474479Y-8435086D01*
X18343993Y-8120064D01*
X18154556Y-7836552D01*
X17913448Y-7595444D01*
X17629936Y-7406007D01*
X17314914Y-7275521D01*
X16980489Y-7209000D01*
X16639511Y-7209000D01*
X16305086Y-7275521D01*
X15990064Y-7406007D01*
X15706552Y-7595444D01*
X15627000Y-7674996D01*
X15627000Y-6750000D01*
X15624560Y-6725224D01*
X15617333Y-6701399D01*
X15605597Y-6679443D01*
X15589803Y-6660197D01*
X15570557Y-6644403D01*
X15548601Y-6632667D01*
X15524776Y-6625440D01*
X15500000Y-6623000D01*
X14670927Y-6623000D01*
X14700812Y-6524482D01*
X14713072Y-6400000D01*
X14710000Y-5435750D01*
X14551250Y-5277000D01*
X13302000Y-5277000D01*
X13302000Y-5297000D01*
X13048000Y-5297000D01*
X13048000Y-5277000D01*
X11798750Y-5277000D01*
X11640000Y-5435750D01*
X11636928Y-6400000D01*
X11649188Y-6524482D01*
X11679073Y-6623000D01*
X11127000Y-6623000D01*
X11127000Y-3900000D01*
X11636928Y-3900000D01*
X11640000Y-4864250D01*
X11798750Y-5023000D01*
X13048000Y-5023000D01*
X13048000Y-3423750D01*
X13302000Y-3423750D01*
X13302000Y-5023000D01*
X14551250Y-5023000D01*
X14710000Y-4864250D01*
X14713072Y-3900000D01*
X14700812Y-3775518D01*
X14664502Y-3655820D01*
X14605537Y-3545506D01*
X14526185Y-3448815D01*
X14466704Y-3400000D01*
X16211928Y-3400000D01*
X16224188Y-3524482D01*
X16260498Y-3644180D01*
X16319463Y-3754494D01*
X16398815Y-3851185D01*
X16495506Y-3930537D01*
X16605820Y-3989502D01*
X16725518Y-4025812D01*
X16850000Y-4038072D01*
X17814250Y-4035000D01*
X17973000Y-3876250D01*
X17973000Y-2627000D01*
X16373750Y-2627000D01*
X16215000Y-2785750D01*
X16211928Y-3400000D01*
X14466704Y-3400000D01*
X14429494Y-3369463D01*
X14319180Y-3310498D01*
X14199482Y-3274188D01*
X14075000Y-3261928D01*
X13460750Y-3265000D01*
X13302000Y-3423750D01*
X13048000Y-3423750D01*
X12889250Y-3265000D01*
X12275000Y-3261928D01*
X12150518Y-3274188D01*
X12030820Y-3310498D01*
X11920506Y-3369463D01*
X11823815Y-3448815D01*
X11744463Y-3545506D01*
X11685498Y-3655820D01*
X11649188Y-3775518D01*
X11636928Y-3900000D01*
X11127000Y-3900000D01*
X11127000Y-1600000D01*
X16211928Y-1600000D01*
X16215000Y-2214250D01*
X16373750Y-2373000D01*
X17973000Y-2373000D01*
X17973000Y-1123750D01*
X17814250Y-965000D01*
X16850000Y-961928D01*
X16725518Y-974188D01*
X16605820Y-1010498D01*
X16495506Y-1069463D01*
X16398815Y-1148815D01*
X16319463Y-1245506D01*
X16260498Y-1355820D01*
X16224188Y-1475518D01*
X16211928Y-1600000D01*
X11127000Y-1600000D01*
X11127000Y-877000D01*
X19373000Y-877000D01*
X19373000Y-964193D01*
G36*
X19373000Y-964193D02*
G01*
X19350000Y-961928D01*
X18385750Y-965000D01*
X18227000Y-1123750D01*
X18227000Y-2373000D01*
X18247000Y-2373000D01*
X18247000Y-2627000D01*
X18227000Y-2627000D01*
X18227000Y-3876250D01*
X18385750Y-4035000D01*
X19350000Y-4038072D01*
X19373000Y-4035807D01*
X19373000Y-4839550D01*
X18550000Y-4836928D01*
X18425518Y-4849188D01*
X18305820Y-4885498D01*
X18195506Y-4944463D01*
X18098815Y-5023815D01*
X18019463Y-5120506D01*
X17960498Y-5230820D01*
X17924188Y-5350518D01*
X17911928Y-5475000D01*
X17915000Y-6089250D01*
X18073750Y-6248000D01*
X19373000Y-6248000D01*
X19373000Y-6502000D01*
X18073750Y-6502000D01*
X17952750Y-6623000D01*
X14670927Y-6623000D01*
X14700812Y-6524482D01*
X14713072Y-6400000D01*
X14710000Y-5435750D01*
X14551250Y-5277000D01*
X13302000Y-5277000D01*
X13302000Y-5297000D01*
X13048000Y-5297000D01*
X13048000Y-5277000D01*
X11798750Y-5277000D01*
X11640000Y-5435750D01*
X11636928Y-6400000D01*
X11649188Y-6524482D01*
X11679073Y-6623000D01*
X8000000Y-6623000D01*
X7975224Y-6625440D01*
X7951399Y-6632667D01*
X7929443Y-6644403D01*
X7910197Y-6660197D01*
X5947394Y-8623000D01*
X1750000Y-8623000D01*
X1725224Y-8625440D01*
X1701399Y-8632667D01*
X1679443Y-8644403D01*
X1660197Y-8660197D01*
X1644403Y-8679443D01*
X1632667Y-8701399D01*
X1625440Y-8725224D01*
X1623000Y-8750000D01*
X1623000Y-14750000D01*
X1625440Y-14774776D01*
X1632667Y-14798601D01*
X1644403Y-14820557D01*
X1660197Y-14839803D01*
X1679443Y-14855597D01*
X1701399Y-14867333D01*
X1725224Y-14874560D01*
X1750000Y-14877000D01*
X5373000Y-14877000D01*
X5373000Y-20123000D01*
X431000Y-20123000D01*
X431000Y-18150000D01*
X1761928Y-18150000D01*
X1774188Y-18274482D01*
X1810498Y-18394180D01*
X1869463Y-18504494D01*
X1948815Y-18601185D01*
X2045506Y-18680537D01*
X2155820Y-18739502D01*
X2275518Y-18775812D01*
X2400000Y-18788072D01*
X3014250Y-18785000D01*
X3173000Y-18626250D01*
X3173000Y-17027000D01*
X3427000Y-17027000D01*
X3427000Y-18626250D01*
X3585750Y-18785000D01*
X4200000Y-18788072D01*
X4324482Y-18775812D01*
X4444180Y-18739502D01*
X4554494Y-18680537D01*
X4651185Y-18601185D01*
X4730537Y-18504494D01*
X4789502Y-18394180D01*
X4825812Y-18274482D01*
X4838072Y-18150000D01*
X4835000Y-17185750D01*
X4676250Y-17027000D01*
X3427000Y-17027000D01*
X3173000Y-17027000D01*
X1923750Y-17027000D01*
X1765000Y-17185750D01*
X1761928Y-18150000D01*
X431000Y-18150000D01*
X431000Y-15650000D01*
X1761928Y-15650000D01*
X1765000Y-16614250D01*
X1923750Y-16773000D01*
X3173000Y-16773000D01*
X3173000Y-15173750D01*
X3427000Y-15173750D01*
X3427000Y-16773000D01*
X4676250Y-16773000D01*
X4835000Y-16614250D01*
X4838072Y-15650000D01*
X4825812Y-15525518D01*
X4789502Y-15405820D01*
X4730537Y-15295506D01*
X4651185Y-15198815D01*
X4554494Y-15119463D01*
X4444180Y-15060498D01*
X4324482Y-15024188D01*
X4200000Y-15011928D01*
X3585750Y-15015000D01*
X3427000Y-15173750D01*
X3173000Y-15173750D01*
X3014250Y-15015000D01*
X2400000Y-15011928D01*
X2275518Y-15024188D01*
X2155820Y-15060498D01*
X2045506Y-15119463D01*
X1948815Y-15198815D01*
X1869463Y-15295506D01*
X1810498Y-15405820D01*
X1774188Y-15525518D01*
X1761928Y-15650000D01*
X431000Y-15650000D01*
X431000Y-6874285D01*
X3169000Y-6874285D01*
X3169000Y-7185715D01*
X3229757Y-7491161D01*
X3348936Y-7778884D01*
X3521957Y-8037829D01*
X3742171Y-8258043D01*
X4001116Y-8431064D01*
X4288839Y-8550243D01*
X4594285Y-8611000D01*
X4905715Y-8611000D01*
X5211161Y-8550243D01*
X5498884Y-8431064D01*
X5757829Y-8258043D01*
X5978043Y-8037829D01*
X6151064Y-7778884D01*
X6270243Y-7491161D01*
X6331000Y-7185715D01*
X6331000Y-6874285D01*
X6270243Y-6568839D01*
X6151064Y-6281116D01*
X5978043Y-6022171D01*
X5757829Y-5801957D01*
X5498884Y-5628936D01*
X5211161Y-5509757D01*
X4905715Y-5449000D01*
X4594285Y-5449000D01*
X4288839Y-5509757D01*
X4001116Y-5628936D01*
X3742171Y-5801957D01*
X3521957Y-6022171D01*
X3348936Y-6281116D01*
X3229757Y-6568839D01*
X3169000Y-6874285D01*
X431000Y-6874285D01*
X431000Y-3689511D01*
X7459000Y-3689511D01*
X7459000Y-4030489D01*
X7525521Y-4364914D01*
X7656007Y-4679936D01*
X7845444Y-4963448D01*
X8086552Y-5204556D01*
X8370064Y-5393993D01*
X8685086Y-5524479D01*
X9019511Y-5591000D01*
X9360489Y-5591000D01*
X9694914Y-5524479D01*
X10009936Y-5393993D01*
X10293448Y-5204556D01*
X10534556Y-4963448D01*
X10723993Y-4679936D01*
X10854479Y-4364914D01*
X10921000Y-4030489D01*
X10921000Y-3900000D01*
X11636928Y-3900000D01*
X11640000Y-4864250D01*
X11798750Y-5023000D01*
X13048000Y-5023000D01*
X13048000Y-3423750D01*
X13302000Y-3423750D01*
X13302000Y-5023000D01*
X14551250Y-5023000D01*
X14710000Y-4864250D01*
X14713072Y-3900000D01*
X14700812Y-3775518D01*
X14664502Y-3655820D01*
X14605537Y-3545506D01*
X14526185Y-3448815D01*
X14466704Y-3400000D01*
X16211928Y-3400000D01*
X16224188Y-3524482D01*
X16260498Y-3644180D01*
X16319463Y-3754494D01*
X16398815Y-3851185D01*
X16495506Y-3930537D01*
X16605820Y-3989502D01*
X16725518Y-4025812D01*
X16850000Y-4038072D01*
X17814250Y-4035000D01*
X17973000Y-3876250D01*
X17973000Y-2627000D01*
X16373750Y-2627000D01*
X16215000Y-2785750D01*
X16211928Y-3400000D01*
X14466704Y-3400000D01*
X14429494Y-3369463D01*
X14319180Y-3310498D01*
X14199482Y-3274188D01*
X14075000Y-3261928D01*
X13460750Y-3265000D01*
X13302000Y-3423750D01*
X13048000Y-3423750D01*
X12889250Y-3265000D01*
X12275000Y-3261928D01*
X12150518Y-3274188D01*
X12030820Y-3310498D01*
X11920506Y-3369463D01*
X11823815Y-3448815D01*
X11744463Y-3545506D01*
X11685498Y-3655820D01*
X11649188Y-3775518D01*
X11636928Y-3900000D01*
X10921000Y-3900000D01*
X10921000Y-3689511D01*
X10854479Y-3355086D01*
X10723993Y-3040064D01*
X10534556Y-2756552D01*
X10293448Y-2515444D01*
X10009936Y-2326007D01*
X9694914Y-2195521D01*
X9360489Y-2129000D01*
X9019511Y-2129000D01*
X8685086Y-2195521D01*
X8370064Y-2326007D01*
X8086552Y-2515444D01*
X7845444Y-2756552D01*
X7656007Y-3040064D01*
X7525521Y-3355086D01*
X7459000Y-3689511D01*
X431000Y-3689511D01*
X431000Y-1600000D01*
X16211928Y-1600000D01*
X16215000Y-2214250D01*
X16373750Y-2373000D01*
X17973000Y-2373000D01*
X17973000Y-1123750D01*
X17814250Y-965000D01*
X16850000Y-961928D01*
X16725518Y-974188D01*
X16605820Y-1010498D01*
X16495506Y-1069463D01*
X16398815Y-1148815D01*
X16319463Y-1245506D01*
X16260498Y-1355820D01*
X16224188Y-1475518D01*
X16211928Y-1600000D01*
X431000Y-1600000D01*
X431000Y-431000D01*
X19373000Y-431000D01*
X19373000Y-964193D01*
X19373000Y-964193D01*
G37*
X19373000Y-964193D02*
X19350000Y-961928D01*
X18385750Y-965000D01*
X18227000Y-1123750D01*
X18227000Y-2373000D01*
X18247000Y-2373000D01*
X18247000Y-2627000D01*
X18227000Y-2627000D01*
X18227000Y-3876250D01*
X18385750Y-4035000D01*
X19350000Y-4038072D01*
X19373000Y-4035807D01*
X19373000Y-4839550D01*
X18550000Y-4836928D01*
X18425518Y-4849188D01*
X18305820Y-4885498D01*
X18195506Y-4944463D01*
X18098815Y-5023815D01*
X18019463Y-5120506D01*
X17960498Y-5230820D01*
X17924188Y-5350518D01*
X17911928Y-5475000D01*
X17915000Y-6089250D01*
X18073750Y-6248000D01*
X19373000Y-6248000D01*
X19373000Y-6502000D01*
X18073750Y-6502000D01*
X17952750Y-6623000D01*
X14670927Y-6623000D01*
X14700812Y-6524482D01*
X14713072Y-6400000D01*
X14710000Y-5435750D01*
X14551250Y-5277000D01*
X13302000Y-5277000D01*
X13302000Y-5297000D01*
X13048000Y-5297000D01*
X13048000Y-5277000D01*
X11798750Y-5277000D01*
X11640000Y-5435750D01*
X11636928Y-6400000D01*
X11649188Y-6524482D01*
X11679073Y-6623000D01*
X8000000Y-6623000D01*
X7975224Y-6625440D01*
X7951399Y-6632667D01*
X7929443Y-6644403D01*
X7910197Y-6660197D01*
X5947394Y-8623000D01*
X1750000Y-8623000D01*
X1725224Y-8625440D01*
X1701399Y-8632667D01*
X1679443Y-8644403D01*
X1660197Y-8660197D01*
X1644403Y-8679443D01*
X1632667Y-8701399D01*
X1625440Y-8725224D01*
X1623000Y-8750000D01*
X1623000Y-14750000D01*
X1625440Y-14774776D01*
X1632667Y-14798601D01*
X1644403Y-14820557D01*
X1660197Y-14839803D01*
X1679443Y-14855597D01*
X1701399Y-14867333D01*
X1725224Y-14874560D01*
X1750000Y-14877000D01*
X5373000Y-14877000D01*
X5373000Y-20123000D01*
X431000Y-20123000D01*
X431000Y-18150000D01*
X1761928Y-18150000D01*
X1774188Y-18274482D01*
X1810498Y-18394180D01*
X1869463Y-18504494D01*
X1948815Y-18601185D01*
X2045506Y-18680537D01*
X2155820Y-18739502D01*
X2275518Y-18775812D01*
X2400000Y-18788072D01*
X3014250Y-18785000D01*
X3173000Y-18626250D01*
X3173000Y-17027000D01*
X3427000Y-17027000D01*
X3427000Y-18626250D01*
X3585750Y-18785000D01*
X4200000Y-18788072D01*
X4324482Y-18775812D01*
X4444180Y-18739502D01*
X4554494Y-18680537D01*
X4651185Y-18601185D01*
X4730537Y-18504494D01*
X4789502Y-18394180D01*
X4825812Y-18274482D01*
X4838072Y-18150000D01*
X4835000Y-17185750D01*
X4676250Y-17027000D01*
X3427000Y-17027000D01*
X3173000Y-17027000D01*
X1923750Y-17027000D01*
X1765000Y-17185750D01*
X1761928Y-18150000D01*
X431000Y-18150000D01*
X431000Y-15650000D01*
X1761928Y-15650000D01*
X1765000Y-16614250D01*
X1923750Y-16773000D01*
X3173000Y-16773000D01*
X3173000Y-15173750D01*
X3427000Y-15173750D01*
X3427000Y-16773000D01*
X4676250Y-16773000D01*
X4835000Y-16614250D01*
X4838072Y-15650000D01*
X4825812Y-15525518D01*
X4789502Y-15405820D01*
X4730537Y-15295506D01*
X4651185Y-15198815D01*
X4554494Y-15119463D01*
X4444180Y-15060498D01*
X4324482Y-15024188D01*
X4200000Y-15011928D01*
X3585750Y-15015000D01*
X3427000Y-15173750D01*
X3173000Y-15173750D01*
X3014250Y-15015000D01*
X2400000Y-15011928D01*
X2275518Y-15024188D01*
X2155820Y-15060498D01*
X2045506Y-15119463D01*
X1948815Y-15198815D01*
X1869463Y-15295506D01*
X1810498Y-15405820D01*
X1774188Y-15525518D01*
X1761928Y-15650000D01*
X431000Y-15650000D01*
X431000Y-6874285D01*
X3169000Y-6874285D01*
X3169000Y-7185715D01*
X3229757Y-7491161D01*
X3348936Y-7778884D01*
X3521957Y-8037829D01*
X3742171Y-8258043D01*
X4001116Y-8431064D01*
X4288839Y-8550243D01*
X4594285Y-8611000D01*
X4905715Y-8611000D01*
X5211161Y-8550243D01*
X5498884Y-8431064D01*
X5757829Y-8258043D01*
X5978043Y-8037829D01*
X6151064Y-7778884D01*
X6270243Y-7491161D01*
X6331000Y-7185715D01*
X6331000Y-6874285D01*
X6270243Y-6568839D01*
X6151064Y-6281116D01*
X5978043Y-6022171D01*
X5757829Y-5801957D01*
X5498884Y-5628936D01*
X5211161Y-5509757D01*
X4905715Y-5449000D01*
X4594285Y-5449000D01*
X4288839Y-5509757D01*
X4001116Y-5628936D01*
X3742171Y-5801957D01*
X3521957Y-6022171D01*
X3348936Y-6281116D01*
X3229757Y-6568839D01*
X3169000Y-6874285D01*
X431000Y-6874285D01*
X431000Y-3689511D01*
X7459000Y-3689511D01*
X7459000Y-4030489D01*
X7525521Y-4364914D01*
X7656007Y-4679936D01*
X7845444Y-4963448D01*
X8086552Y-5204556D01*
X8370064Y-5393993D01*
X8685086Y-5524479D01*
X9019511Y-5591000D01*
X9360489Y-5591000D01*
X9694914Y-5524479D01*
X10009936Y-5393993D01*
X10293448Y-5204556D01*
X10534556Y-4963448D01*
X10723993Y-4679936D01*
X10854479Y-4364914D01*
X10921000Y-4030489D01*
X10921000Y-3900000D01*
X11636928Y-3900000D01*
X11640000Y-4864250D01*
X11798750Y-5023000D01*
X13048000Y-5023000D01*
X13048000Y-3423750D01*
X13302000Y-3423750D01*
X13302000Y-5023000D01*
X14551250Y-5023000D01*
X14710000Y-4864250D01*
X14713072Y-3900000D01*
X14700812Y-3775518D01*
X14664502Y-3655820D01*
X14605537Y-3545506D01*
X14526185Y-3448815D01*
X14466704Y-3400000D01*
X16211928Y-3400000D01*
X16224188Y-3524482D01*
X16260498Y-3644180D01*
X16319463Y-3754494D01*
X16398815Y-3851185D01*
X16495506Y-3930537D01*
X16605820Y-3989502D01*
X16725518Y-4025812D01*
X16850000Y-4038072D01*
X17814250Y-4035000D01*
X17973000Y-3876250D01*
X17973000Y-2627000D01*
X16373750Y-2627000D01*
X16215000Y-2785750D01*
X16211928Y-3400000D01*
X14466704Y-3400000D01*
X14429494Y-3369463D01*
X14319180Y-3310498D01*
X14199482Y-3274188D01*
X14075000Y-3261928D01*
X13460750Y-3265000D01*
X13302000Y-3423750D01*
X13048000Y-3423750D01*
X12889250Y-3265000D01*
X12275000Y-3261928D01*
X12150518Y-3274188D01*
X12030820Y-3310498D01*
X11920506Y-3369463D01*
X11823815Y-3448815D01*
X11744463Y-3545506D01*
X11685498Y-3655820D01*
X11649188Y-3775518D01*
X11636928Y-3900000D01*
X10921000Y-3900000D01*
X10921000Y-3689511D01*
X10854479Y-3355086D01*
X10723993Y-3040064D01*
X10534556Y-2756552D01*
X10293448Y-2515444D01*
X10009936Y-2326007D01*
X9694914Y-2195521D01*
X9360489Y-2129000D01*
X9019511Y-2129000D01*
X8685086Y-2195521D01*
X8370064Y-2326007D01*
X8086552Y-2515444D01*
X7845444Y-2756552D01*
X7656007Y-3040064D01*
X7525521Y-3355086D01*
X7459000Y-3689511D01*
X431000Y-3689511D01*
X431000Y-1600000D01*
X16211928Y-1600000D01*
X16215000Y-2214250D01*
X16373750Y-2373000D01*
X17973000Y-2373000D01*
X17973000Y-1123750D01*
X17814250Y-965000D01*
X16850000Y-961928D01*
X16725518Y-974188D01*
X16605820Y-1010498D01*
X16495506Y-1069463D01*
X16398815Y-1148815D01*
X16319463Y-1245506D01*
X16260498Y-1355820D01*
X16224188Y-1475518D01*
X16211928Y-1600000D01*
X431000Y-1600000D01*
X431000Y-431000D01*
X19373000Y-431000D01*
X19373000Y-964193D01*
G36*
X56910197Y-36089803D02*
G01*
X56929443Y-36105597D01*
X56951399Y-36117333D01*
X56975224Y-36124560D01*
X57000000Y-36127000D01*
X61250000Y-36127000D01*
X61274776Y-36124560D01*
X61298601Y-36117333D01*
X61320557Y-36105597D01*
X61339803Y-36089803D01*
X62802606Y-34627000D01*
X64123000Y-34627000D01*
X64123000Y-35197394D01*
X61947394Y-37373000D01*
X57052606Y-37373000D01*
X54589803Y-34910197D01*
X54570557Y-34894403D01*
X54548601Y-34882667D01*
X54524776Y-34875440D01*
X54500000Y-34873000D01*
X54475224Y-34875440D01*
X54451399Y-34882667D01*
X54429443Y-34894403D01*
X54410197Y-34910197D01*
X52410197Y-36910197D01*
X52394403Y-36929443D01*
X52382667Y-36951399D01*
X52375440Y-36975224D01*
X52373000Y-37000000D01*
X52373000Y-50197394D01*
X49697394Y-52873000D01*
X35552606Y-52873000D01*
X32429606Y-49750000D01*
X33500000Y-48679606D01*
X36160197Y-51339803D01*
X36179443Y-51355597D01*
X36201399Y-51367333D01*
X36225224Y-51374560D01*
X36250000Y-51377000D01*
X48000000Y-51377000D01*
X48024776Y-51374560D01*
X48048601Y-51367333D01*
X48070557Y-51355597D01*
X48089803Y-51339803D01*
X51339803Y-48089803D01*
X51355597Y-48070557D01*
X51367333Y-48048601D01*
X51374560Y-48024776D01*
X51377000Y-48000000D01*
X51377000Y-36052606D01*
X51754106Y-35675500D01*
X51781305Y-35675500D01*
X51940789Y-35643776D01*
X52091021Y-35581548D01*
X52226225Y-35491208D01*
X52341208Y-35376225D01*
X52431548Y-35241021D01*
X52493776Y-35090789D01*
X52525500Y-34931305D01*
X52525500Y-34768695D01*
X52493776Y-34609211D01*
X52431548Y-34458979D01*
X52341208Y-34323775D01*
X52226225Y-34208792D01*
X52127000Y-34142492D01*
X52127000Y-32127000D01*
X52947394Y-32127000D01*
X56910197Y-36089803D01*
X56910197Y-36089803D01*
G37*
X56910197Y-36089803D02*
X56929443Y-36105597D01*
X56951399Y-36117333D01*
X56975224Y-36124560D01*
X57000000Y-36127000D01*
X61250000Y-36127000D01*
X61274776Y-36124560D01*
X61298601Y-36117333D01*
X61320557Y-36105597D01*
X61339803Y-36089803D01*
X62802606Y-34627000D01*
X64123000Y-34627000D01*
X64123000Y-35197394D01*
X61947394Y-37373000D01*
X57052606Y-37373000D01*
X54589803Y-34910197D01*
X54570557Y-34894403D01*
X54548601Y-34882667D01*
X54524776Y-34875440D01*
X54500000Y-34873000D01*
X54475224Y-34875440D01*
X54451399Y-34882667D01*
X54429443Y-34894403D01*
X54410197Y-34910197D01*
X52410197Y-36910197D01*
X52394403Y-36929443D01*
X52382667Y-36951399D01*
X52375440Y-36975224D01*
X52373000Y-37000000D01*
X52373000Y-50197394D01*
X49697394Y-52873000D01*
X35552606Y-52873000D01*
X32429606Y-49750000D01*
X33500000Y-48679606D01*
X36160197Y-51339803D01*
X36179443Y-51355597D01*
X36201399Y-51367333D01*
X36225224Y-51374560D01*
X36250000Y-51377000D01*
X48000000Y-51377000D01*
X48024776Y-51374560D01*
X48048601Y-51367333D01*
X48070557Y-51355597D01*
X48089803Y-51339803D01*
X51339803Y-48089803D01*
X51355597Y-48070557D01*
X51367333Y-48048601D01*
X51374560Y-48024776D01*
X51377000Y-48000000D01*
X51377000Y-36052606D01*
X51754106Y-35675500D01*
X51781305Y-35675500D01*
X51940789Y-35643776D01*
X52091021Y-35581548D01*
X52226225Y-35491208D01*
X52341208Y-35376225D01*
X52431548Y-35241021D01*
X52493776Y-35090789D01*
X52525500Y-34931305D01*
X52525500Y-34768695D01*
X52493776Y-34609211D01*
X52431548Y-34458979D01*
X52341208Y-34323775D01*
X52226225Y-34208792D01*
X52127000Y-34142492D01*
X52127000Y-32127000D01*
X52947394Y-32127000D01*
X56910197Y-36089803D01*
G36*
X56373000Y-47500000D02*
G01*
X56375440Y-47524776D01*
X56382667Y-47548601D01*
X56394403Y-47570557D01*
X56410197Y-47589803D01*
X58410197Y-49589803D01*
X58429443Y-49605597D01*
X58451399Y-49617333D01*
X58475224Y-49624560D01*
X58500000Y-49627000D01*
X70500000Y-49627000D01*
X70524776Y-49624560D01*
X70548601Y-49617333D01*
X70570557Y-49605597D01*
X70589803Y-49589803D01*
X73027821Y-47151785D01*
X77780088Y-49290306D01*
X75197394Y-51873000D01*
X57302606Y-51873000D01*
X53377000Y-47947394D01*
X53377000Y-43627000D01*
X56373000Y-43627000D01*
X56373000Y-47500000D01*
X56373000Y-47500000D01*
G37*
X56373000Y-47500000D02*
X56375440Y-47524776D01*
X56382667Y-47548601D01*
X56394403Y-47570557D01*
X56410197Y-47589803D01*
X58410197Y-49589803D01*
X58429443Y-49605597D01*
X58451399Y-49617333D01*
X58475224Y-49624560D01*
X58500000Y-49627000D01*
X70500000Y-49627000D01*
X70524776Y-49624560D01*
X70548601Y-49617333D01*
X70570557Y-49605597D01*
X70589803Y-49589803D01*
X73027821Y-47151785D01*
X77780088Y-49290306D01*
X75197394Y-51873000D01*
X57302606Y-51873000D01*
X53377000Y-47947394D01*
X53377000Y-43627000D01*
X56373000Y-43627000D01*
X56373000Y-47500000D01*
M02*
