G04 #@! TF.GenerationSoftware,KiCad,Pcbnew,5.1.4+dfsg1-1*
G04 #@! TF.CreationDate,2021-01-01T15:39:33+01:00*
G04 #@! TF.ProjectId,MIDI_FOOTSWITCH,4d494449-5f46-44f4-9f54-535749544348,rev?*
G04 #@! TF.SameCoordinates,PX4c4b400PY1312d00*
G04 #@! TF.FileFunction,Soldermask,Bot*
G04 #@! TF.FilePolarity,Negative*
%FSLAX46Y46*%
G04 Gerber Fmt 4.6, Leading zero omitted, Abs format (unit mm)*
G04 Created by KiCad (PCBNEW 5.1.4+dfsg1-1) date 2021-01-01 15:39:33*
%MOMM*%
%LPD*%
G04 APERTURE LIST*
%ADD10C,2.700000*%
%ADD11C,2.400000*%
%ADD12C,1.500000*%
%ADD13C,2.250000*%
%ADD14C,1.700000*%
%ADD15R,1.300000X1.000000*%
%ADD16R,1.050000X1.050000*%
%ADD17C,1.050000*%
%ADD18R,1.300000X1.500000*%
%ADD19C,6.600000*%
%ADD20R,1.250000X1.000000*%
%ADD21R,0.900000X0.900000*%
%ADD22R,3.500000X1.800000*%
%ADD23R,2.300000X3.500000*%
%ADD24R,1.000000X1.300000*%
%ADD25R,2.500000X1.800000*%
%ADD26R,1.800000X2.500000*%
%ADD27O,1.350000X1.350000*%
%ADD28R,1.350000X1.350000*%
%ADD29O,1.700000X1.700000*%
%ADD30R,1.700000X1.700000*%
%ADD31C,0.889000*%
%ADD32C,0.600000*%
%ADD33C,1.200000*%
%ADD34C,0.254000*%
G04 APERTURE END LIST*
D10*
X9190000Y-3860000D03*
D11*
X13000000Y-17200000D03*
X4750000Y-7030000D03*
X13000000Y-13385000D03*
X9190000Y-17200000D03*
X16810000Y-17200000D03*
X19980000Y-13385000D03*
D10*
X16810000Y-8940000D03*
D12*
X48440000Y-14700000D03*
X47170000Y-17240000D03*
X45900000Y-14700000D03*
X44630000Y-17240000D03*
X43360000Y-14700000D03*
X42090000Y-17240000D03*
X40820000Y-14700000D03*
X39550000Y-17240000D03*
D13*
X49080000Y-3900000D03*
X38920000Y-12790000D03*
D14*
X50595000Y-13430400D03*
D15*
X35800000Y-17350000D03*
X35800000Y-15250000D03*
D16*
X83941760Y-16677600D03*
D17*
X82671760Y-16677600D03*
X81401760Y-16677600D03*
X80131760Y-16677600D03*
X78861760Y-16677600D03*
X82671760Y-17947600D03*
X81401760Y-17947600D03*
X80131760Y-17947600D03*
X78861760Y-17947600D03*
X83941760Y-17947600D03*
D18*
X17250000Y-52350000D03*
X17250000Y-49650000D03*
D19*
X27000000Y-31000000D03*
X96000000Y-31000000D03*
D20*
X52500000Y-10500000D03*
X52500000Y-8500000D03*
D21*
X64450000Y-9100000D03*
X62550000Y-9100000D03*
D22*
X63750000Y-6500000D03*
X68750000Y-6500000D03*
D23*
X56750000Y-14250000D03*
X56750000Y-8850000D03*
D15*
X43250000Y-10550000D03*
X43250000Y-8450000D03*
X45500000Y-8450000D03*
X45500000Y-10550000D03*
D24*
X52750000Y-17200000D03*
X50650000Y-17200000D03*
D15*
X48500000Y-10550000D03*
X48500000Y-8450000D03*
X10200000Y-44850000D03*
X10200000Y-46950000D03*
X8100000Y-46950000D03*
X8100000Y-44850000D03*
X4700000Y-50450000D03*
X4700000Y-48350000D03*
X2600000Y-48350000D03*
X2600000Y-50450000D03*
D24*
X1650000Y-39300000D03*
X3750000Y-39300000D03*
X6550000Y-28500000D03*
X4450000Y-28500000D03*
D21*
X4550000Y-26500000D03*
X6450000Y-26500000D03*
D15*
X11500000Y-49950000D03*
X11500000Y-52050000D03*
X14750000Y-52050000D03*
X14750000Y-49950000D03*
D21*
X4550000Y-31000000D03*
X6450000Y-31000000D03*
X9950000Y-42700000D03*
X8050000Y-42700000D03*
D24*
X7950000Y-40600000D03*
X10050000Y-40600000D03*
D15*
X3700000Y-35950000D03*
X3700000Y-33850000D03*
D25*
X18100000Y-2500000D03*
X22100000Y-2500000D03*
D26*
X13175000Y-5150000D03*
X13175000Y-9150000D03*
D25*
X23800000Y-6375000D03*
X19800000Y-6375000D03*
D26*
X3300000Y-12900000D03*
X3300000Y-16900000D03*
X26500000Y-9850000D03*
X26500000Y-13850000D03*
D27*
X22219999Y-57000000D03*
X20219999Y-57000000D03*
X18219999Y-57000000D03*
X16219999Y-57000000D03*
X14219999Y-57000000D03*
X12219999Y-57000000D03*
X10219999Y-57000000D03*
X8219999Y-57000000D03*
X6219999Y-57000000D03*
D28*
X4219999Y-57000000D03*
D29*
X26355000Y-50085000D03*
X26355000Y-52625000D03*
X23815000Y-50085000D03*
X23815000Y-52625000D03*
X21275000Y-50085000D03*
D30*
X21275000Y-52625000D03*
D31*
X64557900Y-32257900D03*
X16000000Y-49250000D03*
X1500000Y-42250000D03*
X4250000Y-42250000D03*
X5250000Y-44000000D03*
X1500000Y-45750000D03*
X4250000Y-45750000D03*
X25250000Y-39000000D03*
X28750000Y-39000000D03*
X29500000Y-40750000D03*
X25500000Y-42500000D03*
X28500000Y-42500000D03*
X58750000Y-13000000D03*
X58750000Y-14250000D03*
X58750000Y-15500000D03*
X61500000Y-9000000D03*
X38500000Y-48000000D03*
X66450000Y-39800000D03*
X51700000Y-34850000D03*
X54150000Y-29000000D03*
X63400000Y-23400000D03*
D32*
X60366255Y-21937622D03*
X58366255Y-21937621D03*
X61766255Y-25437622D03*
X61666255Y-27837622D03*
X56966255Y-34837622D03*
X58966255Y-34837622D03*
X61266255Y-34637622D03*
X56066255Y-33237621D03*
X61672535Y-30210622D03*
X63866256Y-30037622D03*
X56084536Y-29737622D03*
X56066255Y-26437621D03*
X56084535Y-23537622D03*
X56666255Y-22337621D03*
X61666255Y-22637622D03*
D31*
X68500000Y-19250000D03*
D32*
X70000000Y-26000000D03*
X85462500Y-9500000D03*
X84637500Y-11568750D03*
X84637500Y-9500000D03*
D33*
X85050000Y-10500000D03*
D32*
X85462500Y-11568750D03*
D31*
X90000000Y-6500000D03*
D32*
X92700000Y-6400000D03*
X92700000Y-12200000D03*
D31*
X93600000Y-13400000D03*
X91800000Y-13400000D03*
X84300000Y-13000000D03*
X86000000Y-13500000D03*
X88900000Y-13500000D03*
X93600000Y-15700000D03*
X86200000Y-15700000D03*
X85500000Y-7200000D03*
X85900000Y-4000000D03*
X72900000Y-41200000D03*
X11500000Y-48700000D03*
X49100000Y-48200000D03*
X35700000Y-18600000D03*
X76700000Y-43700000D03*
X82600000Y-29100000D03*
X86500000Y-24900000D03*
X86600000Y-39200000D03*
X7500000Y-28500000D03*
D32*
X87200000Y-50400000D03*
X86100000Y-50000000D03*
X86100000Y-50800000D03*
X89550000Y-48150000D03*
X89550000Y-47100000D03*
X88250000Y-50300000D03*
D31*
X78800000Y-51700000D03*
X77500000Y-8000000D03*
X77500000Y-9500000D03*
X77500000Y-11000000D03*
X75500000Y-12000000D03*
X75000000Y-15000000D03*
X1500000Y-33500000D03*
X6900000Y-39800000D03*
X48600000Y-21300000D03*
D32*
X64400000Y-28100000D03*
D31*
X2000000Y-37100000D03*
X3900000Y-19400000D03*
X27300000Y-15700000D03*
X16250000Y-2000000D03*
X13750000Y-3000000D03*
X17675000Y-5000000D03*
X1750000Y-1750000D03*
D32*
X97100000Y-57500000D03*
D31*
X91950000Y-18225000D03*
X93475000Y-18200000D03*
X93475000Y-20850000D03*
X91925000Y-20850000D03*
X69350000Y-43525000D03*
X69450000Y-44700000D03*
X50300000Y-47775000D03*
X56910000Y-40860000D03*
X58060000Y-40870000D03*
X59080000Y-41760000D03*
X44250000Y-54170000D03*
D32*
X55750000Y-40000000D03*
X74190000Y-30380000D03*
X75600000Y-29884900D03*
X54400000Y-36200000D03*
X67750000Y-29410622D03*
X72093740Y-22000000D03*
D31*
X68883781Y-40365199D03*
X66500000Y-19000000D03*
X91750000Y-9250000D03*
X93750000Y-9250000D03*
X41750000Y-50250000D03*
X46700000Y-48100000D03*
X78800000Y-43800000D03*
X82600000Y-25000000D03*
X88700000Y-39300000D03*
X43000000Y-32500000D03*
X47000000Y-22000000D03*
X62750000Y-27000000D03*
X65325000Y-44050000D03*
X54800000Y-32190000D03*
D32*
X70100000Y-22400000D03*
X30100000Y-49150000D03*
X18650000Y-52750000D03*
X70300000Y-21400000D03*
X71100000Y-20500000D03*
D31*
X82000000Y-48000000D03*
X81000000Y-49000000D03*
X53875000Y-44025000D03*
X59000000Y-7500000D03*
X59000000Y-8750000D03*
X59000000Y-10000000D03*
X40250000Y-7400000D03*
X41550000Y-8450000D03*
D32*
X70210000Y-47430000D03*
X67810000Y-30770000D03*
X63075000Y-43663235D03*
X62250000Y-39575000D03*
X62250000Y-44300000D03*
X60890000Y-40740000D03*
X79900000Y-33800000D03*
X62775000Y-46825000D03*
X62021464Y-47421464D03*
X80560000Y-32480000D03*
X72350000Y-31175000D03*
X62850000Y-45750000D03*
X71050000Y-31350000D03*
X61925000Y-45725000D03*
X60925000Y-45950000D03*
X60925000Y-42125000D03*
X59925000Y-46650000D03*
X60224999Y-43800001D03*
X71450000Y-38850000D03*
X65330000Y-41450000D03*
D31*
X75000000Y-1000000D03*
X76500000Y-1000000D03*
X74500000Y-2000000D03*
X74500000Y-3500000D03*
X16500000Y-45250000D03*
X17750000Y-45250000D03*
X19000000Y-45250000D03*
X20250000Y-45250000D03*
X93000000Y-42000000D03*
X93000000Y-45000000D03*
X93000000Y-43500000D03*
X64500000Y-8000000D03*
X63600000Y-35300000D03*
X52894499Y-32944499D03*
X33000000Y-49500000D03*
X32700000Y-45300000D03*
X30500000Y-47000000D03*
X6100000Y-36100000D03*
D32*
X74750000Y-28250000D03*
X71800000Y-18100000D03*
X7100000Y-12000000D03*
D31*
X7100000Y-20900000D03*
D32*
X74750000Y-26750000D03*
X72896034Y-18003966D03*
D31*
X67500000Y-8250000D03*
X68750000Y-8250000D03*
X70000000Y-8250000D03*
X20000000Y-21500000D03*
X21500000Y-21500000D03*
X23000000Y-21500000D03*
X24500000Y-21500000D03*
X3745533Y-26254467D03*
X5500000Y-32500000D03*
D32*
X24900000Y-3500000D03*
X21875000Y-9175000D03*
D31*
X26200000Y-6100000D03*
D32*
X3800000Y-37700000D03*
X88250000Y-17875000D03*
X82280000Y-31700000D03*
D34*
G36*
X85873000Y-11373000D02*
G01*
X84127000Y-11373000D01*
X84127000Y-9627000D01*
X85873000Y-9627000D01*
X85873000Y-11373000D01*
X85873000Y-11373000D01*
G37*
X85873000Y-11373000D02*
X84127000Y-11373000D01*
X84127000Y-9627000D01*
X85873000Y-9627000D01*
X85873000Y-11373000D01*
M02*
