<?xml version="1.0" standalone="no"?>
 <!DOCTYPE svg PUBLIC "-//W3C//DTD SVG 1.1//EN" 
 "http://www.w3.org/Graphics/SVG/1.1/DTD/svg11.dtd"> 
<svg xmlns="http://www.w3.org/2000/svg" version="1.1" 
    width="41.9989cm" height="29.7002cm" viewBox="0 0 165350 116930 ">
<title>SVG Picture created as ToneControls-F_Cu.svg date 2015/11/21 00:57:53 </title>
  <desc>Picture generated by PCBNEW </desc>
<g style="fill:#000000; fill-opacity:1;stroke:#000000; stroke-opacity:1;
stroke-linecap:round; stroke-linejoin:round; "
 transform="translate(0 0) scale(1 1)">
</g>
<g style="fill:#000000; fill-opacity:0.0; 
stroke:#000000; stroke-width:39.3701; stroke-opacity:1; 
stroke-linecap:round; stroke-linejoin:round;">
<path d="M4000 4000
L161350 4000
L161350 112930
L4000 112930
L4000 4000
" />
<path d="M4700 4700
L160650 4700
L160650 112230
L4700 112230
L4700 4700
" />
<path d="M26470 4000
L26470 4700
" />
<path d="M15382 4552
L15097 4552
" />
<path d="M15240 4552
L15240 4052
L15192 4123
L15144 4171
L15097 4195
" />
<path d="M26470 112930
L26470 112230
" />
<path d="M15382 112782
L15097 112782
" />
<path d="M15240 112782
L15240 112282
L15192 112353
L15144 112401
L15097 112425
" />
<path d="M48940 4000
L48940 4700
" />
<path d="M37567 4100
L37590 4076
L37638 4052
L37757 4052
L37805 4076
L37829 4100
L37852 4147
L37852 4195
L37829 4266
L37543 4552
L37852 4552
" />
<path d="M48940 112930
L48940 112230
" />
<path d="M37567 112330
L37590 112306
L37638 112282
L37757 112282
L37805 112306
L37829 112330
L37852 112377
L37852 112425
L37829 112496
L37543 112782
L37852 112782
" />
<path d="M71410 4000
L71410 4700
" />
<path d="M60013 4052
L60322 4052
L60156 4242
L60227 4242
L60275 4266
L60299 4290
L60322 4338
L60322 4457
L60299 4504
L60275 4528
L60227 4552
L60084 4552
L60037 4528
L60013 4504
" />
<path d="M71410 112930
L71410 112230
" />
<path d="M60013 112282
L60322 112282
L60156 112472
L60227 112472
L60275 112496
L60299 112520
L60322 112568
L60322 112687
L60299 112734
L60275 112758
L60227 112782
L60084 112782
L60037 112758
L60013 112734
" />
<path d="M93880 4000
L93880 4700
" />
<path d="M82745 4219
L82745 4552
" />
<path d="M82626 4028
L82507 4385
L82816 4385
" />
<path d="M93880 112930
L93880 112230
" />
<path d="M82745 112449
L82745 112782
" />
<path d="M82626 112258
L82507 112615
L82816 112615
" />
<path d="M116350 4000
L116350 4700
" />
<path d="M105239 4052
L105000 4052
L104977 4290
L105000 4266
L105048 4242
L105167 4242
L105215 4266
L105239 4290
L105262 4338
L105262 4457
L105239 4504
L105215 4528
L105167 4552
L105048 4552
L105000 4528
L104977 4504
" />
<path d="M116350 112930
L116350 112230
" />
<path d="M105239 112282
L105000 112282
L104977 112520
L105000 112496
L105048 112472
L105167 112472
L105215 112496
L105239 112520
L105262 112568
L105262 112687
L105239 112734
L105215 112758
L105167 112782
L105048 112782
L105000 112758
L104977 112734
" />
<path d="M138820 4000
L138820 4700
" />
<path d="M127685 4052
L127590 4052
L127542 4076
L127518 4100
L127470 4171
L127447 4266
L127447 4457
L127470 4504
L127494 4528
L127542 4552
L127637 4552
L127685 4528
L127709 4504
L127732 4457
L127732 4338
L127709 4290
L127685 4266
L127637 4242
L127542 4242
L127494 4266
L127470 4290
L127447 4338
" />
<path d="M138820 112930
L138820 112230
" />
<path d="M127685 112282
L127590 112282
L127542 112306
L127518 112330
L127470 112401
L127447 112496
L127447 112687
L127470 112734
L127494 112758
L127542 112782
L127637 112782
L127685 112758
L127709 112734
L127732 112687
L127732 112568
L127709 112520
L127685 112496
L127637 112472
L127542 112472
L127494 112496
L127470 112520
L127447 112568
" />
<path d="M149893 4052
L150226 4052
L150012 4552
" />
<path d="M149893 112282
L150226 112282
L150012 112782
" />
<path d="M4000 25780
L4700 25780
" />
<path d="M4230 14949
L4469 14949
" />
<path d="M4183 15092
L4350 14592
L4516 15092
" />
<path d="M161350 25780
L160650 25780
" />
<path d="M160880 14949
L161119 14949
" />
<path d="M160833 15092
L161000 14592
L161166 15092
" />
<path d="M4000 47560
L4700 47560
" />
<path d="M4385 36610
L4457 36634
L4480 36658
L4504 36705
L4504 36777
L4480 36824
L4457 36848
L4409 36872
L4219 36872
L4219 36372
L4385 36372
L4433 36396
L4457 36420
L4480 36467
L4480 36515
L4457 36562
L4433 36586
L4385 36610
L4219 36610
" />
<path d="M161350 47560
L160650 47560
" />
<path d="M161035 36610
L161107 36634
L161130 36658
L161154 36705
L161154 36777
L161130 36824
L161107 36848
L161059 36872
L160869 36872
L160869 36372
L161035 36372
L161083 36396
L161107 36420
L161130 36467
L161130 36515
L161107 36562
L161083 36586
L161035 36610
L160869 36610
" />
<path d="M4000 69340
L4700 69340
" />
<path d="M4504 58604
L4480 58628
L4409 58652
L4361 58652
L4290 58628
L4242 58580
L4219 58533
L4195 58438
L4195 58366
L4219 58271
L4242 58223
L4290 58176
L4361 58152
L4409 58152
L4480 58176
L4504 58200
" />
<path d="M161350 69340
L160650 69340
" />
<path d="M161154 58604
L161130 58628
L161059 58652
L161011 58652
L160940 58628
L160892 58580
L160869 58533
L160845 58438
L160845 58366
L160869 58271
L160892 58223
L160940 58176
L161011 58152
L161059 58152
L161130 58176
L161154 58200
" />
<path d="M4000 91120
L4700 91120
" />
<path d="M4219 80432
L4219 79932
L4338 79932
L4409 79956
L4457 80003
L4480 80051
L4504 80146
L4504 80218
L4480 80313
L4457 80360
L4409 80408
L4338 80432
L4219 80432
" />
<path d="M161350 91120
L160650 91120
" />
<path d="M160869 80432
L160869 79932
L160988 79932
L161059 79956
L161107 80003
L161130 80051
L161154 80146
L161154 80218
L161130 80313
L161107 80360
L161059 80408
L160988 80432
L160869 80432
" />
<path d="M4242 101950
L4409 101950
" />
<path d="M4480 102212
L4242 102212
L4242 101712
L4480 101712
" />
<path d="M160892 101950
L161059 101950
" />
<path d="M161130 102212
L160892 102212
L160892 101712
L161130 101712
" />
<path d="M127800 110672
L127875 110072
L128017 110072
L128100 110101
L128150 110158
L128171 110215
L128185 110330
L128175 110415
L128132 110530
L128096 110587
L128032 110644
L127942 110672
L127800 110672
" />
<path d="M128657 110672
L128696 110358
L128675 110301
L128621 110272
L128507 110272
L128446 110301
" />
<path d="M128660 110644
L128600 110672
L128457 110672
L128403 110644
L128382 110587
L128389 110530
L128425 110472
L128485 110444
L128628 110444
L128689 110415
" />
<path d="M128907 110272
L129135 110272
" />
<path d="M129017 110072
L128953 110587
L128975 110644
L129028 110672
L129085 110672
" />
<path d="M129517 110644
L129457 110672
L129342 110672
L129289 110644
L129267 110587
L129296 110358
L129332 110301
L129392 110272
L129507 110272
L129560 110301
L129582 110358
L129575 110415
L129282 110472
" />
<path d="M129807 110615
L129832 110644
L129800 110672
L129775 110644
L129807 110615
L129800 110672
" />
<path d="M129846 110301
L129871 110330
L129839 110358
L129814 110330
L129846 110301
L129839 110358
" />
<path d="M130582 110130
L130614 110101
L130675 110072
L130817 110072
L130871 110101
L130896 110130
L130917 110187
L130910 110244
L130871 110330
L130485 110672
L130857 110672
" />
<path d="M131303 110072
L131360 110072
L131414 110101
L131439 110130
L131460 110187
L131475 110301
L131457 110444
L131414 110558
L131378 110615
L131346 110644
L131285 110672
L131228 110672
L131175 110644
L131150 110615
L131128 110558
L131114 110444
L131132 110301
L131175 110187
L131210 110130
L131242 110101
L131303 110072
" />
<path d="M132192 110272
L132142 110672
" />
<path d="M132185 110330
L132217 110301
L132278 110272
L132364 110272
L132417 110301
L132439 110358
L132400 110672
" />
<path d="M132771 110672
L132717 110644
L132692 110615
L132671 110558
L132692 110387
L132728 110330
L132760 110301
L132821 110272
L132907 110272
L132960 110301
L132985 110330
L133007 110387
L132985 110558
L132950 110615
L132917 110644
L132857 110672
L132771 110672
" />
<path d="M133221 110272
L133314 110672
L133507 110272
" />
<path d="M134182 110130
L134214 110101
L134275 110072
L134417 110072
L134471 110101
L134496 110130
L134517 110187
L134510 110244
L134471 110330
L134085 110672
L134457 110672
" />
<path d="M134903 110072
L134960 110072
L135014 110101
L135039 110130
L135060 110187
L135075 110301
L135057 110444
L135014 110558
L134978 110615
L134946 110644
L134885 110672
L134828 110672
L134775 110644
L134750 110615
L134728 110558
L134714 110444
L134732 110301
L134775 110187
L134810 110130
L134842 110101
L134903 110072
" />
<path d="M135600 110672
L135257 110672
" />
<path d="M135428 110672
L135503 110072
L135435 110158
L135371 110215
L135310 110244
" />
<path d="M136217 110072
L135932 110072
L135867 110358
L135900 110330
L135960 110301
L136103 110301
L136157 110330
L136182 110358
L136203 110415
L136185 110558
L136150 110615
L136117 110644
L136057 110672
L135914 110672
L135860 110644
L135835 110615
" />
<path d="M119392 111872
L119392 111272
" />
<path d="M119735 111872
L119478 111530
" />
<path d="M119735 111272
L119392 111615
" />
<path d="M119992 111872
L119992 111472
" />
<path d="M119992 111272
L119964 111301
L119992 111330
L120021 111301
L119992 111272
L119992 111330
" />
<path d="M120621 111815
L120592 111844
L120507 111872
L120450 111872
L120364 111844
L120307 111787
L120278 111730
L120250 111615
L120250 111530
L120278 111415
L120307 111358
L120364 111301
L120450 111272
L120507 111272
L120592 111301
L120621 111330
" />
<path d="M121135 111872
L121135 111558
L121107 111501
L121050 111472
L120935 111472
L120878 111501
" />
<path d="M121135 111844
L121078 111872
L120935 111872
L120878 111844
L120850 111787
L120850 111730
L120878 111672
L120935 111644
L121078 111644
L121135 111615
" />
<path d="M121678 111872
L121678 111272
" />
<path d="M121678 111844
L121621 111872
L121507 111872
L121450 111844
L121421 111815
L121392 111758
L121392 111587
L121421 111530
L121450 111501
L121507 111472
L121621 111472
L121678 111501
" />
<path d="M122421 111558
L122621 111558
" />
<path d="M122707 111872
L122421 111872
L122421 111272
L122707 111272
" />
<path d="M122964 111815
L122992 111844
L122964 111872
L122935 111844
L122964 111815
L122964 111872
" />
<path d="M123249 111872
L123249 111272
L123392 111272
L123478 111301
L123535 111358
L123564 111415
L123592 111530
L123592 111615
L123564 111730
L123535 111787
L123478 111844
L123392 111872
L123249 111872
" />
<path d="M123849 111815
L123878 111844
L123849 111872
L123821 111844
L123849 111815
L123849 111872
" />
<path d="M124107 111701
L124392 111701
" />
<path d="M124049 111872
L124249 111272
L124449 111872
" />
<path d="M124649 111815
L124678 111844
L124649 111872
L124621 111844
L124649 111815
L124649 111872
" />
<path d="M152942 110672
L152778 110387
" />
<path d="M152600 110672
L152675 110072
L152903 110072
L152957 110101
L152982 110130
L153003 110187
L152992 110272
L152957 110330
L152925 110358
L152864 110387
L152635 110387
" />
<path d="M153432 110644
L153371 110672
L153257 110672
L153203 110644
L153182 110587
L153210 110358
L153246 110301
L153307 110272
L153421 110272
L153475 110301
L153496 110358
L153489 110415
L153196 110472
" />
<path d="M153707 110272
L153800 110672
L153992 110272
" />
<path d="M154178 110615
L154203 110644
L154171 110672
L154146 110644
L154178 110615
L154171 110672
" />
<path d="M154217 110301
L154242 110330
L154210 110358
L154185 110330
L154217 110301
L154210 110358
" />
<path d="M119364 110644
L119450 110672
L119592 110672
L119650 110644
L119678 110615
L119707 110558
L119707 110501
L119678 110444
L119650 110415
L119592 110387
L119478 110358
L119421 110330
L119392 110301
L119364 110244
L119364 110187
L119392 110130
L119421 110101
L119478 110072
L119621 110072
L119707 110101
" />
<path d="M119964 110672
L119964 110272
" />
<path d="M119964 110072
L119935 110101
L119964 110130
L119992 110101
L119964 110072
L119964 110130
" />
<path d="M120192 110272
L120507 110272
L120192 110672
L120507 110672
" />
<path d="M120964 110644
L120907 110672
L120792 110672
L120735 110644
L120707 110587
L120707 110358
L120735 110301
L120792 110272
L120907 110272
L120964 110301
L120992 110358
L120992 110415
L120707 110472
" />
<path d="M121250 110615
L121278 110644
L121250 110672
L121221 110644
L121250 110615
L121250 110672
" />
<path d="M121250 110301
L121278 110330
L121250 110358
L121221 110330
L121250 110301
L121250 110358
" />
<path d="M121964 110501
L122250 110501
" />
<path d="M121907 110672
L122107 110072
L122307 110672
" />
<path d="M122450 110072
L122821 110072
L122621 110301
L122707 110301
L122764 110330
L122792 110358
L122821 110415
L122821 110558
L122792 110615
L122764 110644
L122707 110672
L122535 110672
L122478 110644
L122450 110615
" />
<path d="M152592 111872
L152592 111272
" />
<path d="M153135 111872
L153135 111272
" />
<path d="M153135 111844
L153078 111872
L152964 111872
L152907 111844
L152878 111815
L152850 111758
L152850 111587
L152878 111530
L152907 111501
L152964 111472
L153078 111472
L153135 111501
" />
<path d="M153421 111815
L153450 111844
L153421 111872
L153392 111844
L153421 111815
L153421 111872
" />
<path d="M153421 111501
L153450 111530
L153421 111558
L153392 111530
L153421 111501
L153421 111558
" />
<path d="M154478 111872
L154135 111872
" />
<path d="M154307 111872
L154307 111272
L154249 111358
L154192 111415
L154135 111444
" />
<path d="M155164 111244
L154650 112015
" />
<path d="M155678 111872
L155335 111872
" />
<path d="M155507 111872
L155507 111272
L155449 111358
L155392 111415
L155335 111444
" />
<path d="M119389 108872
L119732 108872
" />
<path d="M119485 109472
L119560 108872
" />
<path d="M119857 109472
L119907 109072
" />
<path d="M119932 108872
L119900 108901
L119925 108930
L119957 108901
L119932 108872
L119925 108930
" />
<path d="M120107 109072
L120335 109072
" />
<path d="M120217 108872
L120153 109387
L120175 109444
L120228 109472
L120285 109472
" />
<path d="M120571 109472
L120517 109444
L120496 109387
L120560 108872
" />
<path d="M121032 109444
L120971 109472
L120857 109472
L120803 109444
L120782 109387
L120810 109158
L120846 109101
L120907 109072
L121021 109072
L121075 109101
L121096 109158
L121089 109215
L120796 109272
" />
<path d="M121321 109415
L121346 109444
L121314 109472
L121289 109444
L121321 109415
L121314 109472
" />
<path d="M121360 109101
L121385 109130
L121353 109158
L121328 109130
L121360 109101
L121353 109158
" />
<path d="M119592 106758
L119392 106758
" />
<path d="M119392 107072
L119392 106472
L119678 106472
" />
<path d="M119907 107072
L119907 106672
" />
<path d="M119907 106472
L119878 106501
L119907 106530
L119935 106501
L119907 106472
L119907 106530
" />
<path d="M120278 107072
L120221 107044
L120192 106987
L120192 106472
" />
<path d="M120735 107044
L120678 107072
L120564 107072
L120507 107044
L120478 106987
L120478 106758
L120507 106701
L120564 106672
L120678 106672
L120735 106701
L120764 106758
L120764 106815
L120478 106872
" />
<path d="M121021 107015
L121050 107044
L121021 107072
L120992 107044
L121021 107015
L121021 107072
" />
<path d="M121021 106701
L121050 106730
L121021 106758
L120992 106730
L121021 106701
L121021 106758
" />
<path d="M121678 106472
L122021 106472
" />
<path d="M121850 107072
L121850 106472
" />
<path d="M122307 107072
L122250 107044
L122221 107015
L122192 106958
L122192 106787
L122221 106730
L122250 106701
L122307 106672
L122392 106672
L122450 106701
L122478 106730
L122507 106787
L122507 106958
L122478 107015
L122450 107044
L122392 107072
L122307 107072
" />
<path d="M122764 106672
L122764 107072
" />
<path d="M122764 106730
L122792 106701
L122850 106672
L122935 106672
L122992 106701
L123021 106758
L123021 107072
" />
<path d="M123535 107044
L123478 107072
L123364 107072
L123307 107044
L123278 106987
L123278 106758
L123307 106701
L123364 106672
L123478 106672
L123535 106701
L123564 106758
L123564 106815
L123278 106872
" />
<path d="M124164 107015
L124135 107044
L124050 107072
L123992 107072
L123907 107044
L123850 106987
L123821 106930
L123792 106815
L123792 106730
L123821 106615
L123850 106558
L123907 106501
L123992 106472
L124050 106472
L124135 106501
L124164 106530
" />
<path d="M124507 107072
L124450 107044
L124421 107015
L124392 106958
L124392 106787
L124421 106730
L124450 106701
L124507 106672
L124592 106672
L124650 106701
L124678 106730
L124707 106787
L124707 106958
L124678 107015
L124650 107044
L124592 107072
L124507 107072
" />
<path d="M124964 106672
L124964 107072
" />
<path d="M124964 106730
L124992 106701
L125050 106672
L125135 106672
L125192 106701
L125221 106758
L125221 107072
" />
<path d="M125421 106672
L125650 106672
" />
<path d="M125507 106472
L125507 106987
L125535 107044
L125592 107072
L125650 107072
" />
<path d="M125850 107072
L125850 106672
" />
<path d="M125850 106787
L125878 106730
L125907 106701
L125964 106672
L126021 106672
" />
<path d="M126307 107072
L126250 107044
L126221 107015
L126192 106958
L126192 106787
L126221 106730
L126250 106701
L126307 106672
L126392 106672
L126450 106701
L126478 106730
L126507 106787
L126507 106958
L126478 107015
L126450 107044
L126392 107072
L126307 107072
" />
<path d="M126850 107072
L126792 107044
L126764 106987
L126764 106472
" />
<path d="M127050 107044
L127107 107072
L127221 107072
L127278 107044
L127307 106987
L127307 106958
L127278 106901
L127221 106872
L127135 106872
L127078 106844
L127050 106787
L127050 106758
L127078 106701
L127135 106672
L127221 106672
L127278 106701
" />
<path d="M127564 107015
L127592 107044
L127564 107072
L127535 107044
L127564 107015
L127564 107072
" />
<path d="M127850 107072
L127850 106472
" />
<path d="M127907 106844
L128078 107072
" />
<path d="M128078 106672
L127850 106901
" />
<path d="M128335 107072
L128335 106672
" />
<path d="M128335 106472
L128307 106501
L128335 106530
L128364 106501
L128335 106472
L128335 106530
" />
<path d="M128878 107044
L128821 107072
L128707 107072
L128650 107044
L128621 107015
L128592 106958
L128592 106787
L128621 106730
L128650 106701
L128707 106672
L128821 106672
L128878 106701
" />
<path d="M129392 107072
L129392 106758
L129364 106701
L129307 106672
L129192 106672
L129135 106701
" />
<path d="M129392 107044
L129335 107072
L129192 107072
L129135 107044
L129107 106987
L129107 106930
L129135 106872
L129192 106844
L129335 106844
L129392 106815
" />
<path d="M129935 107072
L129935 106472
" />
<path d="M129935 107044
L129878 107072
L129764 107072
L129707 107044
L129678 107015
L129650 106958
L129650 106787
L129678 106730
L129707 106701
L129764 106672
L129878 106672
L129935 106701
" />
<path d="M130078 107130
L130535 107130
" />
<path d="M130678 106672
L130678 107272
" />
<path d="M130678 106701
L130735 106672
L130850 106672
L130907 106701
L130935 106730
L130964 106787
L130964 106958
L130935 107015
L130907 107044
L130850 107072
L130735 107072
L130678 107044
" />
<path d="M131478 107044
L131421 107072
L131307 107072
L131250 107044
L131221 107015
L131192 106958
L131192 106787
L131221 106730
L131250 106701
L131307 106672
L131421 106672
L131478 106701
" />
<path d="M131735 107072
L131735 106472
" />
<path d="M131735 106701
L131792 106672
L131907 106672
L131964 106701
L131992 106730
L132021 106787
L132021 106958
L131992 107015
L131964 107044
L131907 107072
L131792 107072
L131735 107044
" />
<path d="M119364 108244
L119450 108272
L119592 108272
L119650 108244
L119678 108215
L119707 108158
L119707 108101
L119678 108044
L119650 108015
L119592 107987
L119478 107958
L119421 107930
L119392 107901
L119364 107844
L119364 107787
L119392 107730
L119421 107701
L119478 107672
L119621 107672
L119707 107701
" />
<path d="M119964 108272
L119964 107672
" />
<path d="M120221 108272
L120221 107958
L120192 107901
L120135 107872
L120050 107872
L119992 107901
L119964 107930
" />
<path d="M120735 108244
L120678 108272
L120564 108272
L120507 108244
L120478 108187
L120478 107958
L120507 107901
L120564 107872
L120678 107872
L120735 107901
L120764 107958
L120764 108015
L120478 108072
" />
<path d="M121250 108244
L121192 108272
L121078 108272
L121021 108244
L120992 108187
L120992 107958
L121021 107901
L121078 107872
L121192 107872
L121250 107901
L121278 107958
L121278 108015
L120992 108072
" />
<path d="M121450 107872
L121678 107872
" />
<path d="M121535 107672
L121535 108187
L121564 108244
L121621 108272
L121678 108272
" />
<path d="M121878 108215
L121907 108244
L121878 108272
L121850 108244
L121878 108215
L121878 108272
" />
<path d="M121878 107901
L121907 107930
L121878 107958
L121850 107930
L121878 107901
L121878 107958
" />
<path d="M118650 106230
L118650 112230
" />
<path d="M118650 106230
L160650 106230
" />
<path d="M118650 106230
L160650 106230
" />
<path d="M118650 108630
L160650 108630
" />
<path d="M151850 109830
L151850 112230
" />
<path d="M118650 111030
L160650 111030
" />
<path d="M118650 109830
L160650 109830
" />
<path d="M125250 109830
L125250 111030
" />
</g>
<g style="fill:#808000; fill-opacity:0.0; 
stroke:#808000; stroke-width:39.3701; stroke-opacity:1; 
stroke-linecap:round; stroke-linejoin:round;">
</g>
<g style="fill:#808000; fill-opacity:1.0; 
stroke:#808000; stroke-width:39.3701; stroke-opacity:1; 
stroke-linecap:round; stroke-linejoin:round;">
<circle cx="30425" cy="53750" r="984.252" /> 
<circle cx="30425" cy="56746.1" r="984.252" /> 
<circle cx="26400" cy="57750" r="984.252" /> 
<circle cx="26400" cy="53750" r="984.252" /> 
<circle cx="29200" cy="59900" r="984.252" /> 
<circle cx="29200" cy="63900" r="984.252" /> 
<circle cx="25450" cy="69575" r="255.315" /> 
<circle cx="25450" cy="68575" r="255.315" /> 
<circle cx="26450" cy="69575" r="255.315" /> 
<circle cx="26450" cy="68575" r="255.315" /> 
<circle cx="26450" cy="67575" r="255.315" /> 
<circle cx="25450" cy="67575" r="255.315" /> 
<circle cx="21025" cy="69575" r="255.315" /> 
<circle cx="21025" cy="68575" r="255.315" /> 
<circle cx="22025" cy="69575" r="255.315" /> 
<circle cx="22025" cy="68575" r="255.315" /> 
<circle cx="22025" cy="67575" r="255.315" /> 
<circle cx="21025" cy="67575" r="255.315" /> 
<circle cx="18750" cy="69575" r="255.315" /> 
<circle cx="18750" cy="68575" r="255.315" /> 
<circle cx="19750" cy="69575" r="255.315" /> 
<circle cx="19750" cy="68575" r="255.315" /> 
<circle cx="19750" cy="67575" r="255.315" /> 
<circle cx="18750" cy="67575" r="255.315" /> 
<circle cx="23250" cy="69575" r="255.315" /> 
<circle cx="23250" cy="68575" r="255.315" /> 
<circle cx="24250" cy="69575" r="255.315" /> 
<circle cx="24250" cy="68575" r="255.315" /> 
<circle cx="24250" cy="67575" r="255.315" /> 
<circle cx="23250" cy="67575" r="255.315" /> 
<circle cx="26450" cy="63900" r="984.252" /> 
<circle cx="26450" cy="60903.9" r="984.252" /> 
<circle cx="38450" cy="43075" r="984.252" /> 
<circle cx="41446.1" cy="43075" r="984.252" /> 
<circle cx="34350" cy="59850" r="984.252" /> 
<circle cx="34350" cy="56853.9" r="984.252" /> 
</g>
<g style="fill:#A00000; fill-opacity:1.0; 
stroke:#A00000; stroke-width:39.3701; stroke-opacity:1; 
stroke-linecap:round; stroke-linejoin:round;">
<polyline style="fill-rule:evenodd;"
points="23467,78317
23057,78317
23057,78157
23467,78157
23467,78317
" /> 
<polyline style="fill-rule:evenodd;"
points="23467,77817
23057,77817
23057,77657
23467,77657
23467,77817
" /> 
<polyline style="fill-rule:evenodd;"
points="23467,77317
23057,77317
23057,77157
23467,77157
23467,77317
" /> 
<polyline style="fill-rule:evenodd;"
points="23467,76817
23057,76817
23057,76657
23467,76657
23467,76817
" /> 
<polyline style="fill-rule:evenodd;"
points="23467,76317
23057,76317
23057,76157
23467,76157
23467,76317
" /> 
<polyline style="fill-rule:evenodd;"
points="23467,75817
23057,75817
23057,75657
23467,75657
23467,75817
" /> 
<polyline style="fill-rule:evenodd;"
points="23467,75317
23057,75317
23057,75157
23467,75157
23467,75317
" /> 
<polyline style="fill-rule:evenodd;"
points="21367,75317
20957,75317
20957,75157
21367,75157
21367,75317
" /> 
<polyline style="fill-rule:evenodd;"
points="21367,75817
20957,75817
20957,75657
21367,75657
21367,75817
" /> 
<polyline style="fill-rule:evenodd;"
points="21367,76317
20957,76317
20957,76157
21367,76157
21367,76317
" /> 
<polyline style="fill-rule:evenodd;"
points="21367,76817
20957,76817
20957,76657
21367,76657
21367,76817
" /> 
<polyline style="fill-rule:evenodd;"
points="21367,77317
20957,77317
20957,77157
21367,77157
21367,77317
" /> 
<polyline style="fill-rule:evenodd;"
points="21367,77817
20957,77817
20957,77657
21367,77657
21367,77817
" /> 
<polyline style="fill-rule:evenodd;"
points="21367,78317
20957,78317
20957,78157
21367,78157
21367,78317
" /> 
<polyline style="fill-rule:evenodd;"
points="25142,78742
24632,78742
24632,78432
25142,78432
25142,78742
" /> 
<polyline style="fill-rule:evenodd;"
points="25142,77992
24632,77992
24632,77682
25142,77682
25142,77992
" /> 
<polyline style="fill-rule:evenodd;"
points="24342,78742
23832,78742
23832,78432
24342,78432
24342,78742
" /> 
<polyline style="fill-rule:evenodd;"
points="24342,77992
23832,77992
23832,77682
24342,77682
24342,77992
" /> 
<polyline style="fill-rule:evenodd;"
points="23844,79319
24355,79319
24355,79630
23844,79630
23844,79319
" /> 
<polyline style="fill-rule:evenodd;"
points="23844,80069
24355,80069
24355,80380
23844,80380
23844,80069
" /> 
<polyline style="fill-rule:evenodd;"
points="24694,79319
25205,79319
25205,79630
24694,79630
24694,79319
" /> 
<polyline style="fill-rule:evenodd;"
points="24694,80069
25205,80069
25205,80380
24694,80380
24694,80069
" /> 
<polyline style="fill-rule:evenodd;"
points="23957,76992
23957,76482
24267,76482
24267,76992
23957,76992
" /> 
<polyline style="fill-rule:evenodd;"
points="24707,76992
24707,76482
25017,76482
25017,76992
24707,76992
" /> 
<polyline style="fill-rule:evenodd;"
points="25180,74155
24669,74155
24669,73844
25180,73844
25180,74155
" /> 
<polyline style="fill-rule:evenodd;"
points="25180,73405
24669,73405
24669,73094
25180,73094
25180,73405
" /> 
<polyline style="fill-rule:evenodd;"
points="24280,74155
23769,74155
23769,73844
24280,73844
24280,74155
" /> 
<polyline style="fill-rule:evenodd;"
points="24280,73405
23769,73405
23769,73094
24280,73094
24280,73405
" /> 
<polyline style="fill-rule:evenodd;"
points="24582,74757
25092,74757
25092,75067
24582,75067
24582,74757
" /> 
<polyline style="fill-rule:evenodd;"
points="24582,75507
25092,75507
25092,75817
24582,75817
24582,75507
" /> 
<polyline style="fill-rule:evenodd;"
points="23782,74757
24292,74757
24292,75067
23782,75067
23782,74757
" /> 
<polyline style="fill-rule:evenodd;"
points="23782,75507
24292,75507
24292,75817
23782,75817
23782,75507
" /> 
<polyline style="fill-rule:evenodd;"
points="19382,74757
19892,74757
19892,75067
19382,75067
19382,74757
" /> 
<polyline style="fill-rule:evenodd;"
points="19382,75507
19892,75507
19892,75817
19382,75817
19382,75507
" /> 
<polyline style="fill-rule:evenodd;"
points="19892,78717
19382,78717
19382,78407
19892,78407
19892,78717
" /> 
<polyline style="fill-rule:evenodd;"
points="19892,77967
19382,77967
19382,77657
19892,77657
19892,77967
" /> 
<polyline style="fill-rule:evenodd;"
points="20157,74757
20667,74757
20667,75067
20157,75067
20157,74757
" /> 
<polyline style="fill-rule:evenodd;"
points="20157,75507
20667,75507
20667,75817
20157,75817
20157,75507
" /> 
<polyline style="fill-rule:evenodd;"
points="20667,78717
20157,78717
20157,78407
20667,78407
20667,78717
" /> 
<polyline style="fill-rule:evenodd;"
points="20667,77967
20157,77967
20157,77657
20667,77657
20667,77967
" /> 
<polyline style="fill-rule:evenodd;"
points="20680,74230
20169,74230
20169,73919
20680,73919
20680,74230
" /> 
<polyline style="fill-rule:evenodd;"
points="20680,73480
20169,73480
20169,73169
20680,73169
20680,73480
" /> 
<polyline style="fill-rule:evenodd;"
points="20194,79269
20705,79269
20705,79580
20194,79580
20194,79269
" /> 
<polyline style="fill-rule:evenodd;"
points="20194,80019
20705,80019
20705,80330
20194,80330
20194,80019
" /> 
<polyline style="fill-rule:evenodd;"
points="19855,74230
19344,74230
19344,73919
19855,73919
19855,74230
" /> 
<polyline style="fill-rule:evenodd;"
points="19855,73480
19344,73480
19344,73169
19855,73169
19855,73480
" /> 
<polyline style="fill-rule:evenodd;"
points="19319,79269
19830,79269
19830,79580
19319,79580
19319,79269
" /> 
<polyline style="fill-rule:evenodd;"
points="19319,80019
19830,80019
19830,80330
19319,80330
19319,80019
" /> 
</g>
<g style="fill:#808000; fill-opacity:1.0; 
stroke:#808000; stroke-width:39.3701; stroke-opacity:1; 
stroke-linecap:round; stroke-linejoin:round;">
<circle cx="29375" cy="73025" r="472.315" /> 
<circle cx="29375" cy="74994" r="472.315" /> 
<circle cx="29375" cy="71056" r="472.315" /> 
<circle cx="15625" cy="72975" r="472.315" /> 
<circle cx="15625" cy="71006" r="472.315" /> 
<circle cx="15625" cy="74944" r="472.315" /> 
<circle cx="15625" cy="78700" r="472.315" /> 
<circle cx="15625" cy="76731" r="472.315" /> 
<circle cx="15625" cy="80669" r="472.315" /> 
<circle cx="29400" cy="78825" r="472.315" /> 
<circle cx="29400" cy="80794" r="472.315" /> 
<circle cx="29400" cy="76856" r="472.315" /> 
<polyline style="fill-rule:evenodd;"
points="14469,92280
14469,91719
15030,91719
15030,92280
14469,92280
" /> 
<circle cx="14750" cy="91000" r="280.315" /> 
<circle cx="19750" cy="92000" r="280.315" /> 
<circle cx="15750" cy="91000" r="280.315" /> 
<circle cx="20750" cy="92000" r="280.315" /> 
<circle cx="16750" cy="91000" r="280.315" /> 
<circle cx="21750" cy="92000" r="280.315" /> 
<circle cx="17750" cy="91000" r="280.315" /> 
<circle cx="22750" cy="92000" r="280.315" /> 
<circle cx="18750" cy="91000" r="280.315" /> 
<circle cx="23750" cy="92000" r="280.315" /> 
<circle cx="19750" cy="91000" r="280.315" /> 
<circle cx="24750" cy="92000" r="280.315" /> 
<circle cx="20750" cy="91000" r="280.315" /> 
<circle cx="25750" cy="92000" r="280.315" /> 
<circle cx="21750" cy="91000" r="280.315" /> 
<circle cx="26750" cy="92000" r="280.315" /> 
<circle cx="22750" cy="91000" r="280.315" /> 
<circle cx="27750" cy="92000" r="280.315" /> 
<circle cx="23750" cy="91000" r="280.315" /> 
<circle cx="28750" cy="92000" r="280.315" /> 
<circle cx="24750" cy="91000" r="280.315" /> 
<circle cx="29750" cy="92000" r="280.315" /> 
<circle cx="25750" cy="91000" r="280.315" /> 
<circle cx="26750" cy="91000" r="280.315" /> 
<circle cx="30750" cy="92000" r="280.315" /> 
<circle cx="27750" cy="91000" r="280.315" /> 
<circle cx="29750" cy="91000" r="280.315" /> 
<circle cx="30750" cy="91000" r="280.315" /> 
<circle cx="31750" cy="91000" r="280.315" /> 
<circle cx="32750" cy="91000" r="280.315" /> 
<circle cx="31750" cy="92000" r="280.315" /> 
<circle cx="32750" cy="92000" r="280.315" /> 
<circle cx="15750" cy="92000" r="280.315" /> 
<circle cx="16750" cy="92000" r="280.315" /> 
<circle cx="17750" cy="92000" r="280.315" /> 
<circle cx="18750" cy="92000" r="280.315" /> 
<circle cx="33750" cy="92000" r="280.315" /> 
<circle cx="33750" cy="91000" r="280.315" /> 
<circle cx="28750" cy="91000" r="280.315" /> 
</g>
<g style="fill:#C0C0C0; fill-opacity:1.0; 
stroke:#C0C0C0; stroke-width:39.3701; stroke-opacity:1; 
stroke-linecap:round; stroke-linejoin:round;">
<circle cx="31375" cy="76100" r="295.276" /> 
<circle cx="24150" cy="81425" r="295.276" /> 
<circle cx="17050" cy="81100" r="295.276" /> 
<circle cx="20275" cy="81100" r="295.276" /> 
<circle cx="22525" cy="81100" r="295.276" /> 
<circle cx="25950" cy="73950" r="295.276" /> 
<circle cx="25875" cy="79525" r="295.276" /> 
<circle cx="18500" cy="79300" r="295.276" /> 
<circle cx="18475" cy="74100" r="295.276" /> 
<circle cx="19675" cy="76400" r="295.276" /> 
<circle cx="26475" cy="76975" r="295.276" /> 
<circle cx="20175" cy="70750" r="295.276" /> 
<circle cx="18500" cy="75300" r="295.276" /> 
<circle cx="26525" cy="70700" r="295.276" /> 
<circle cx="17600" cy="68600" r="295.276" /> 
<circle cx="24150" cy="70600" r="295.276" /> 
<circle cx="26225" cy="78475" r="295.276" /> 
<circle cx="18650" cy="77750" r="295.276" /> 
<circle cx="25975" cy="75600" r="295.276" /> 
<circle cx="18300" cy="70675" r="295.276" /> 
<circle cx="21025" cy="70700" r="295.276" /> 
<circle cx="25450" cy="70925" r="295.276" /> 
<circle cx="23300" cy="70625" r="295.276" /> 
</g>
<g style="fill:#A00000; fill-opacity:1.0; 
stroke:#A00000; stroke-width:147.638; stroke-opacity:1; 
stroke-linecap:round; stroke-linejoin:round;">
<path d="M31025 76450
L31375 76100
" />
<path d="M31025 79175
L31025 76450
" />
<path d="M30400 79800
L31025 79175
" />
<path d="M28575 79800
L30400 79800
" />
<path d="M27925 80450
L28575 79800
" />
<path d="M27925 80700
L27925 80450
" />
<path d="M27200 81425
L27925 80700
" />
<path d="M24150 81425
L27200 81425
" />
<path d="M22425 80250
L22425 81000
" />
<path d="M22762 76737
L22425 77075
" />
<path d="M22425 77075
L22425 80250
" />
<path d="M23262 76737
L22762 76737
" />
<path d="M20275 81100
L17050 81100
" />
<path d="M22425 81000
L22525 81100
" />
<path d="M23262 76737
L24112 76737
" />
<path d="M24925 74000
L25900 74000
" />
<path d="M25900 74000
L25950 73950
" />
<path d="M24950 79475
L25825 79475
" />
<path d="M25825 79475
L25875 79525
" />
<path d="M19575 79425
L18625 79425
" />
<path d="M18625 79425
L18500 79300
" />
<path d="M19600 74075
L18500 74075
" />
<path d="M18500 74075
L18475 74100
" />
<path d="M21162 76737
L20737 76737
" />
<path d="M20400 76400
L19675 76400
" />
<path d="M20737 76737
L20400 76400
" />
<path d="M24862 76737
L26237 76737
" />
<path d="M26237 76737
L26475 76975
" />
<path d="M20425 73325
L20425 71000
" />
<path d="M20425 71000
L20175 70750
" />
<path d="M19600 73325
L20425 73325
" />
<path d="M20412 74912
L20412 74087
" />
<path d="M20412 74087
L20425 74075
" />
<path d="M21162 75237
L21137 75237
" />
<path d="M20812 74912
L19637 74912
" />
<path d="M21137 75237
L20812 74912
" />
<path d="M20412 78562
L20412 79387
" />
<path d="M20412 79387
L20450 79425
" />
<path d="M21162 78237
L21087 78237
" />
<path d="M20762 78562
L19637 78562
" />
<path d="M21087 78237
L20762 78562
" />
<path d="M19637 75662
L18862 75662
" />
<path d="M18862 75662
L18500 75300
" />
<path d="M21162 75737
L20487 75737
" />
<path d="M20487 75737
L20412 75662
" />
<path d="M20412 75662
L19637 75662
" />
<path d="M24037 74912
L24037 74012
" />
<path d="M24037 74012
L24025 74000
" />
<path d="M23262 75237
L23262 75137
" />
<path d="M23487 74912
L24837 74912
" />
<path d="M23262 75137
L23487 74912
" />
<path d="M26325 80225
L24100 80225
" />
<path d="M27900 78650
L26325 80225
" />
<path d="M27900 72075
L27900 78650
" />
<path d="M26525 70700
L27900 72075
" />
<path d="M24950 80225
L24100 80225
" />
<path d="M24100 79475
L24100 78600
" />
<path d="M24100 78600
L24087 78587
" />
<path d="M24887 78587
L24087 78587
" />
<path d="M24087 78587
L24075 78575
" />
<path d="M24075 78575
L23600 78575
" />
<path d="M23600 78575
L23262 78237
" />
<path d="M19575 80175
L18100 80175
" />
<path d="M17025 69175
L17600 68600
" />
<path d="M17025 79100
L17025 69175
" />
<path d="M18100 80175
L17025 79100
" />
<path d="M19575 80175
L20450 80175
" />
<path d="M24275 73050
L24225 73050
" />
<path d="M24150 70600
L24275 70725
" />
<path d="M24275 70725
L24275 73050
" />
<path d="M24225 73050
L24025 73250
" />
<path d="M24025 73250
L24925 73250
" />
<path d="M24887 77837
L25562 77837
" />
<path d="M26200 78475
L26225 78475
" />
<path d="M25562 77837
L26200 78475
" />
<path d="M23262 77737
L23987 77737
" />
<path d="M23987 77737
L24087 77837
" />
<path d="M24087 77837
L24887 77837
" />
<path d="M18712 77812
L19637 77812
" />
<path d="M18650 77750
L18712 77812
" />
<path d="M21162 77737
L20487 77737
" />
<path d="M20487 77737
L20412 77812
" />
<path d="M20412 77812
L19637 77812
" />
<path d="M24837 75662
L25912 75662
" />
<path d="M25912 75662
L25975 75600
" />
<path d="M23262 75737
L23962 75737
" />
<path d="M23962 75737
L24037 75662
" />
<path d="M24037 75662
L24837 75662
" />
<path d="M21100 86300
L21100 80300
" />
</g>
<g style="fill:#A00000; fill-opacity:1.0; 
stroke:#A00000; stroke-width:100; stroke-opacity:1; 
stroke-linecap:round; stroke-linejoin:round;">
<path d="M21487 77237
L21675 77425
" />
<path d="M21675 77425
L21675 78750
" />
<path d="M21675 78750
L21100 79325
" />
<path d="M21100 80225
L21100 80300
" />
<path d="M21100 79325
L21100 80225
" />
<path d="M21487 77237
L21162 77237
" />
</g>
<g style="fill:#A00000; fill-opacity:1.0; 
stroke:#A00000; stroke-width:147.638; stroke-opacity:1; 
stroke-linecap:round; stroke-linejoin:round;">
<path d="M20587 77237
L21162 77237
" />
<path d="M20375 77025
L20587 77237
" />
<path d="M18500 77025
L20375 77025
" />
<path d="M17675 76200
L18500 77025
" />
<path d="M17675 71300
L17675 76200
" />
<path d="M18300 70675
L17675 71300
" />
<path d="M21625 79550
L21500 79675
" />
</g>
<g style="fill:#A00000; fill-opacity:1.0; 
stroke:#A00000; stroke-width:100; stroke-opacity:1; 
stroke-linecap:round; stroke-linejoin:round;">
<path d="M21712 76237
L21900 76425
" />
<path d="M21900 76425
L21900 79275
" />
<path d="M21900 79275
L21625 79550
" />
<path d="M21162 76237
L21712 76237
" />
</g>
<g style="fill:#A00000; fill-opacity:1.0; 
stroke:#A00000; stroke-width:147.638; stroke-opacity:1; 
stroke-linecap:round; stroke-linejoin:round;">
<path d="M21500 79675
L21500 86325
" />
<path d="M21162 76237
L21662 76237
" />
<path d="M21950 71625
L21025 70700
" />
<path d="M21950 75950
L21950 71625
" />
<path d="M21662 76237
L21950 75950
" />
<path d="M23137 79237
L23137 82737
" />
<path d="M23137 82737
L23150 82750
" />
</g>
<g style="fill:#A00000; fill-opacity:1.0; 
stroke:#A00000; stroke-width:100; stroke-opacity:1; 
stroke-linecap:round; stroke-linejoin:round;">
<path d="M23262 77237
L22887 77237
" />
<path d="M22725 78825
L23137 79237
" />
<path d="M23137 79237
L23150 79250
" />
<path d="M22725 77400
L22725 78825
" />
<path d="M22887 77237
L22725 77400
" />
</g>
<g style="fill:#A00000; fill-opacity:1.0; 
stroke:#A00000; stroke-width:147.638; stroke-opacity:1; 
stroke-linecap:round; stroke-linejoin:round;">
<path d="M23262 77237
L23587 77237
" />
<path d="M27400 72875
L25450 70925
" />
<path d="M27400 77325
L27400 72875
" />
<path d="M27025 77700
L27400 77325
" />
<path d="M26325 77700
L27025 77700
" />
<path d="M25950 77325
L26325 77700
" />
<path d="M23675 77325
L25950 77325
" />
<path d="M23587 77237
L23675 77325
" />
<path d="M22150 79750
L22150 79850
" />
<path d="M21925 80075
L21925 86300
" />
<path d="M22150 79850
L21925 80075
" />
<path d="M23262 76237
L22762 76237
" />
<path d="M22525 71400
L23300 70625
" />
<path d="M22525 76000
L22525 71400
" />
<path d="M22762 76237
L22525 76000
" />
</g>
<g style="fill:#A00000; fill-opacity:1.0; 
stroke:#A00000; stroke-width:100; stroke-opacity:1; 
stroke-linecap:round; stroke-linejoin:round;">
<path d="M23262 76237
L22362 76237
" />
<path d="M22150 76450
L22150 79750
" />
<path d="M22150 79750
L22150 79775
" />
<path d="M22362 76237
L22150 76450
" />
</g>
<g style="fill:#A00000; fill-opacity:1.0; 
stroke:#A00000; stroke-width:39.3701; stroke-opacity:1; 
stroke-linecap:round; stroke-linejoin:round;">
<polyline style="fill-rule:evenodd;"
points="20776,83025
16370,83025
16370,76858
16370,71133
16362,70838
16265,70602
16149,70551
16079,70622
16079,70481
16028,70365
15752,70260
15457,70268
15221,70365
15170,70481
15625,70935
16079,70481
16079,70622
15695,71006
16149,71460
16265,71409
16370,71133
16370,76858
16367,76725
16367,74797
16367,72828
16254,72555
16079,72379
16079,71530
15625,71076
15554,71147
15554,71006
15100,70551
14984,70602
14879,70878
14887,71173
14984,71409
15100,71460
15554,71006
15554,71147
15170,71530
15221,71646
15497,71751
15792,71743
16028,71646
16079,71530
16079,72379
16045,72346
15773,72233
15478,72232
15205,72345
14996,72554
14883,72826
14882,73121
14995,73394
15204,73603
15476,73716
15771,73717
16044,73604
16253,73395
16366,73123
16367,72828
16367,74797
16254,74524
16045,74315
15773,74202
15478,74201
15205,74314
14996,74523
14883,74795
14882,75090
14995,75363
15204,75572
15476,75685
15771,75686
16044,75573
16253,75364
16366,75092
16367,74797
16367,76725
16362,76563
16265,76327
16149,76276
16079,76347
16079,76206
16028,76090
15752,75985
15457,75993
15221,76090
15170,76206
15625,76660
16079,76206
16079,76347
15695,76731
16149,77185
16265,77134
16370,76858
16370,83025
16367,83025
16367,80522
16367,78553
16254,78280
16079,78104
16079,77255
15625,76801
15554,76872
15554,76731
15100,76276
14984,76327
14879,76603
14887,76898
14984,77134
15100,77185
15554,76731
15554,76872
15170,77255
15221,77371
15497,77476
15792,77468
16028,77371
16079,77255
16079,78104
16045,78071
15773,77958
15478,77957
15205,78070
14996,78279
14883,78551
14882,78846
14995,79119
15204,79328
15476,79441
15771,79442
16044,79329
16253,79120
16366,78848
16367,78553
16367,80522
16254,80249
16045,80040
15773,79927
15478,79926
15205,80039
14996,80248
14883,80520
14882,80815
14995,81088
15204,81297
15476,81410
15771,81411
16044,81298
16253,81089
16366,80817
16367,80522
16367,83025
12400,83025
12400,68200
17201,68200
17121,68279
17035,68487
17034,68707
16796,68946
16725,69051
16701,69175
16701,79100
16725,79223
16796,79328
17871,80403
17976,80474
18100,80498
19095,80498
19158,80561
19250,80599
19349,80600
19899,80600
19991,80562
20012,80541
20033,80561
20065,80575
19955,80620
19799,80776
17525,80776
17370,80621
17162,80535
16938,80534
16730,80620
16571,80779
16485,80987
16484,81211
16570,81419
16729,81578
16937,81664
17161,81665
17369,81579
17525,81423
19799,81423
19954,81578
20162,81664
20386,81665
20594,81579
20753,81420
20776,81366
20776,83025
" /> 
</g>
<g style="fill:#A00000; fill-opacity:0.0; 
stroke:#A00000; stroke-width:100; stroke-opacity:1; 
stroke-linecap:round; stroke-linejoin:round;">
<polyline fill="none;"
points="20776,83025
16370,83025
16370,76858
16370,71133
16362,70838
16265,70602
16149,70551
16079,70622
16079,70481
16028,70365
15752,70260
15457,70268
15221,70365
15170,70481
15625,70935
16079,70481
16079,70622
15695,71006
16149,71460
16265,71409
16370,71133
16370,76858
16367,76725
16367,74797
16367,72828
16254,72555
16079,72379
16079,71530
15625,71076
15554,71147
15554,71006
15100,70551
14984,70602
14879,70878
14887,71173
14984,71409
15100,71460
15554,71006
15554,71147
15170,71530
15221,71646
15497,71751
15792,71743
16028,71646
16079,71530
16079,72379
16045,72346
15773,72233
15478,72232
15205,72345
14996,72554
14883,72826
14882,73121
14995,73394
15204,73603
15476,73716
15771,73717
16044,73604
16253,73395
16366,73123
16367,72828
16367,74797
16254,74524
16045,74315
15773,74202
15478,74201
15205,74314
14996,74523
14883,74795
14882,75090
14995,75363
15204,75572
15476,75685
15771,75686
16044,75573
16253,75364
16366,75092
16367,74797
16367,76725
16362,76563
16265,76327
16149,76276
16079,76347
16079,76206
16028,76090
15752,75985
15457,75993
15221,76090
15170,76206
15625,76660
16079,76206
16079,76347
15695,76731
16149,77185
16265,77134
16370,76858
16370,83025
16367,83025
16367,80522
16367,78553
16254,78280
16079,78104
16079,77255
15625,76801
15554,76872
15554,76731
15100,76276
14984,76327
14879,76603
14887,76898
14984,77134
15100,77185
15554,76731
15554,76872
15170,77255
15221,77371
15497,77476
15792,77468
16028,77371
16079,77255
16079,78104
16045,78071
15773,77958
15478,77957
15205,78070
14996,78279
14883,78551
14882,78846
14995,79119
15204,79328
15476,79441
15771,79442
16044,79329
16253,79120
16366,78848
16367,78553
16367,80522
16254,80249
16045,80040
15773,79927
15478,79926
15205,80039
14996,80248
14883,80520
14882,80815
14995,81088
15204,81297
15476,81410
15771,81411
16044,81298
16253,81089
16366,80817
16367,80522
16367,83025
12400,83025
12400,68200
17201,68200
17121,68279
17035,68487
17034,68707
16796,68946
16725,69051
16701,69175
16701,79100
16725,79223
16796,79328
17871,80403
17976,80474
18100,80498
19095,80498
19158,80561
19250,80599
19349,80600
19899,80600
19991,80562
20012,80541
20033,80561
20065,80575
19955,80620
19799,80776
17525,80776
17370,80621
17162,80535
16938,80534
16730,80620
16571,80779
16485,80987
16484,81211
16570,81419
16729,81578
16937,81664
17161,81665
17369,81579
17525,81423
19799,81423
19954,81578
20162,81664
20386,81665
20594,81579
20753,81420
20776,81366
20776,83025
" /> 
</g>
<g style="fill:#A00000; fill-opacity:1.0; 
stroke:#A00000; stroke-width:39.3701; stroke-opacity:1; 
stroke-linecap:round; stroke-linejoin:round;">
<polyline style="fill-rule:evenodd;"
points="21220,76787
21212,76787
21212,76795
21112,76795
21112,76787
20750,76787
20687,76850
20687,76879
20603,76796
20498,76725
20375,76701
18634,76701
17998,76065
17998,75566
18020,75619
18179,75778
18387,75864
18607,75865
18633,75891
18738,75961
18862,75986
19157,75986
19220,76049
19312,76087
19412,76087
19962,76087
20025,76061
20087,76087
20187,76087
20687,76087
20687,76087
20687,76187
20687,76387
20725,76478
20733,76487
20725,76496
20687,76587
20687,76625
20750,76687
21112,76687
21112,76679
21212,76679
21212,76687
21220,76687
21220,76787
" /> 
</g>
<g style="fill:#A00000; fill-opacity:0.0; 
stroke:#A00000; stroke-width:100; stroke-opacity:1; 
stroke-linecap:round; stroke-linejoin:round;">
<polyline fill="none;"
points="21220,76787
21212,76787
21212,76795
21112,76795
21112,76787
20750,76787
20687,76850
20687,76879
20603,76796
20498,76725
20375,76701
18634,76701
17998,76065
17998,75566
18020,75619
18179,75778
18387,75864
18607,75865
18633,75891
18738,75961
18862,75986
19157,75986
19220,76049
19312,76087
19412,76087
19962,76087
20025,76061
20087,76087
20187,76087
20687,76087
20687,76087
20687,76187
20687,76387
20725,76478
20733,76487
20725,76496
20687,76587
20687,76625
20750,76687
21112,76687
21112,76679
21212,76679
21212,76687
21220,76687
21220,76787
" /> 
</g>
<g style="fill:#A00000; fill-opacity:1.0; 
stroke:#A00000; stroke-width:39.3701; stroke-opacity:1; 
stroke-linecap:round; stroke-linejoin:round;">
<polyline style="fill-rule:evenodd;"
points="23118,70088
22980,70145
22821,70304
22735,70512
22734,70732
22554,70912
22554,69650
22543,69442
22485,69302
22392,69277
22322,69348
22322,69207
22297,69114
22194,69078
22297,69035
22322,68942
22025,68645
21727,68942
21752,69035
21855,69071
21752,69114
21727,69207
22025,69504
22322,69207
22322,69348
22095,69575
22392,69872
22485,69847
22554,69650
22554,70912
22322,71144
22322,69942
22025,69645
21727,69942
21752,70035
21949,70104
22157,70093
22297,70035
22322,69942
22322,71144
22296,71171
22225,71276
22201,71400
22201,71429
22178,71396
22178,71396
21589,70806
21590,70588
21504,70380
21345,70221
21137,70135
20913,70134
20705,70220
20574,70350
20495,70271
20287,70185
20279,70185
20279,69650
20268,69442
20210,69302
20117,69277
20047,69348
20047,69207
20022,69114
19919,69078
20022,69035
20047,68942
19750,68645
19452,68942
19477,69035
19580,69071
19477,69114
19452,69207
19750,69504
20047,69207
20047,69348
19820,69575
20117,69872
20210,69847
20279,69650
20279,70185
20063,70184
20047,70191
20047,69942
19750,69645
19452,69942
19477,70035
19674,70104
19882,70093
20022,70035
20047,69942
20047,70191
19855,70270
19696,70429
19610,70637
19609,70861
19695,71069
19854,71228
20062,71314
20101,71314
20101,72899
20100,72899
20012,72936
19924,72900
19825,72899
19275,72899
19183,72937
19113,73008
19075,73100
19074,73199
19074,73549
19112,73641
19171,73700
19112,73758
19074,73850
19075,73962
19137,74025
19550,74025
19550,74017
19650,74017
19650,74025
19657,74025
19657,74125
19650,74125
19650,74132
19550,74132
19550,74125
19137,74125
19075,74187
19074,74299
19112,74391
19183,74461
19275,74499
19282,74499
19221,74525
19150,74595
19112,74687
19112,74787
19112,75137
19150,75228
19208,75287
19157,75338
19064,75338
19065,75188
18979,74980
18820,74821
18612,74735
18388,74734
18180,74820
18021,74979
17998,75033
17998,71434
18193,71239
18411,71240
18619,71154
18778,70995
18864,70787
18865,70563
18779,70355
18620,70196
18412,70110
18188,70109
17980,70195
17821,70354
17735,70562
17734,70782
17446,71071
17375,71176
17351,71300
17351,76200
17375,76323
17446,76428
18271,77253
18271,77253
18316,77284
18171,77429
18085,77637
18084,77861
18170,78069
18329,78228
18537,78314
18761,78315
18969,78229
19062,78136
19157,78136
19208,78187
19150,78245
19112,78337
19112,78437
19112,78787
19150,78878
19220,78949
19312,78987
19412,78987
19962,78987
20025,78961
20087,78987
20088,78987
20088,79015
20033,79037
20012,79058
19991,79038
19899,79000
19800,78999
19687,79000
19625,79062
19625,79375
19632,79375
19632,79475
19625,79475
19625,79482
19525,79482
19525,79475
19525,79375
19525,79062
19462,79000
19349,78999
19250,79000
19158,79038
19087,79108
19049,79200
19050,79312
19112,79375
19525,79375
19525,79475
19112,79475
19050,79537
19049,79649
19087,79741
19146,79800
19095,79851
18234,79851
17348,78965
17348,69309
17493,69164
17711,69165
17919,69079
18078,68920
18164,68712
18165,68488
18079,68280
17998,68200
18382,68200
18305,68277
18225,68470
18224,68678
18304,68872
18452,69019
18585,69075
18453,69129
18305,69277
18225,69470
18224,69678
18304,69872
18452,70019
18645,70099
18853,70100
19047,70020
19194,69872
19247,69746
19289,69847
19382,69872
19679,69575
19382,69277
19289,69302
19250,69412
19195,69278
19047,69130
18914,69074
19047,69020
19194,68872
19247,68746
19289,68847
19382,68872
19679,68575
19673,68569
19744,68498
19750,68504
19755,68498
19826,68569
19820,68575
20117,68872
20210,68847
20279,68650
20268,68442
20210,68302
20117,68277
20163,68232
20130,68200
20657,68200
20580,68277
20500,68470
20499,68678
20579,68872
20727,69019
20860,69075
20728,69129
20580,69277
20500,69470
20499,69678
20579,69872
20727,70019
20920,70099
21128,70100
21322,70020
21469,69872
21522,69746
21564,69847
21657,69872
21954,69575
21657,69277
21564,69302
21525,69412
21470,69278
21322,69130
21189,69074
21322,69020
21469,68872
21522,68746
21564,68847
21657,68872
21954,68575
21948,68569
22019,68498
22025,68504
22030,68498
22101,68569
22095,68575
22392,68872
22485,68847
22554,68650
22543,68442
22485,68302
22392,68277
22438,68232
22405,68200
22882,68200
22805,68277
22725,68470
22724,68678
22804,68872
22952,69019
23085,69075
22953,69129
22805,69277
22725,69470
22724,69678
22804,69872
22952,70019
23118,70088
" /> 
</g>
<g style="fill:#A00000; fill-opacity:0.0; 
stroke:#A00000; stroke-width:100; stroke-opacity:1; 
stroke-linecap:round; stroke-linejoin:round;">
<polyline fill="none;"
points="23118,70088
22980,70145
22821,70304
22735,70512
22734,70732
22554,70912
22554,69650
22543,69442
22485,69302
22392,69277
22322,69348
22322,69207
22297,69114
22194,69078
22297,69035
22322,68942
22025,68645
21727,68942
21752,69035
21855,69071
21752,69114
21727,69207
22025,69504
22322,69207
22322,69348
22095,69575
22392,69872
22485,69847
22554,69650
22554,70912
22322,71144
22322,69942
22025,69645
21727,69942
21752,70035
21949,70104
22157,70093
22297,70035
22322,69942
22322,71144
22296,71171
22225,71276
22201,71400
22201,71429
22178,71396
22178,71396
21589,70806
21590,70588
21504,70380
21345,70221
21137,70135
20913,70134
20705,70220
20574,70350
20495,70271
20287,70185
20279,70185
20279,69650
20268,69442
20210,69302
20117,69277
20047,69348
20047,69207
20022,69114
19919,69078
20022,69035
20047,68942
19750,68645
19452,68942
19477,69035
19580,69071
19477,69114
19452,69207
19750,69504
20047,69207
20047,69348
19820,69575
20117,69872
20210,69847
20279,69650
20279,70185
20063,70184
20047,70191
20047,69942
19750,69645
19452,69942
19477,70035
19674,70104
19882,70093
20022,70035
20047,69942
20047,70191
19855,70270
19696,70429
19610,70637
19609,70861
19695,71069
19854,71228
20062,71314
20101,71314
20101,72899
20100,72899
20012,72936
19924,72900
19825,72899
19275,72899
19183,72937
19113,73008
19075,73100
19074,73199
19074,73549
19112,73641
19171,73700
19112,73758
19074,73850
19075,73962
19137,74025
19550,74025
19550,74017
19650,74017
19650,74025
19657,74025
19657,74125
19650,74125
19650,74132
19550,74132
19550,74125
19137,74125
19075,74187
19074,74299
19112,74391
19183,74461
19275,74499
19282,74499
19221,74525
19150,74595
19112,74687
19112,74787
19112,75137
19150,75228
19208,75287
19157,75338
19064,75338
19065,75188
18979,74980
18820,74821
18612,74735
18388,74734
18180,74820
18021,74979
17998,75033
17998,71434
18193,71239
18411,71240
18619,71154
18778,70995
18864,70787
18865,70563
18779,70355
18620,70196
18412,70110
18188,70109
17980,70195
17821,70354
17735,70562
17734,70782
17446,71071
17375,71176
17351,71300
17351,76200
17375,76323
17446,76428
18271,77253
18271,77253
18316,77284
18171,77429
18085,77637
18084,77861
18170,78069
18329,78228
18537,78314
18761,78315
18969,78229
19062,78136
19157,78136
19208,78187
19150,78245
19112,78337
19112,78437
19112,78787
19150,78878
19220,78949
19312,78987
19412,78987
19962,78987
20025,78961
20087,78987
20088,78987
20088,79015
20033,79037
20012,79058
19991,79038
19899,79000
19800,78999
19687,79000
19625,79062
19625,79375
19632,79375
19632,79475
19625,79475
19625,79482
19525,79482
19525,79475
19525,79375
19525,79062
19462,79000
19349,78999
19250,79000
19158,79038
19087,79108
19049,79200
19050,79312
19112,79375
19525,79375
19525,79475
19112,79475
19050,79537
19049,79649
19087,79741
19146,79800
19095,79851
18234,79851
17348,78965
17348,69309
17493,69164
17711,69165
17919,69079
18078,68920
18164,68712
18165,68488
18079,68280
17998,68200
18382,68200
18305,68277
18225,68470
18224,68678
18304,68872
18452,69019
18585,69075
18453,69129
18305,69277
18225,69470
18224,69678
18304,69872
18452,70019
18645,70099
18853,70100
19047,70020
19194,69872
19247,69746
19289,69847
19382,69872
19679,69575
19382,69277
19289,69302
19250,69412
19195,69278
19047,69130
18914,69074
19047,69020
19194,68872
19247,68746
19289,68847
19382,68872
19679,68575
19673,68569
19744,68498
19750,68504
19755,68498
19826,68569
19820,68575
20117,68872
20210,68847
20279,68650
20268,68442
20210,68302
20117,68277
20163,68232
20130,68200
20657,68200
20580,68277
20500,68470
20499,68678
20579,68872
20727,69019
20860,69075
20728,69129
20580,69277
20500,69470
20499,69678
20579,69872
20727,70019
20920,70099
21128,70100
21322,70020
21469,69872
21522,69746
21564,69847
21657,69872
21954,69575
21657,69277
21564,69302
21525,69412
21470,69278
21322,69130
21189,69074
21322,69020
21469,68872
21522,68746
21564,68847
21657,68872
21954,68575
21948,68569
22019,68498
22025,68504
22030,68498
22101,68569
22095,68575
22392,68872
22485,68847
22554,68650
22543,68442
22485,68302
22392,68277
22438,68232
22405,68200
22882,68200
22805,68277
22725,68470
22724,68678
22804,68872
22952,69019
23085,69075
22953,69129
22805,69277
22725,69470
22724,69678
22804,69872
22952,70019
23118,70088
" /> 
</g>
<g style="fill:#A00000; fill-opacity:1.0; 
stroke:#A00000; stroke-width:39.3701; stroke-opacity:1; 
stroke-linecap:round; stroke-linejoin:round;">
<polyline style="fill-rule:evenodd;"
points="27576,78515
26190,79901
25429,79901
25378,79850
25437,79791
25475,79699
25475,79250
25437,79158
25366,79088
25274,79050
25175,79049
25062,79050
25000,79112
25000,79425
25412,79425
25475,79362
25475,79250
25475,79699
25475,79587
25412,79525
25000,79525
25000,79532
24900,79532
24900,79525
24892,79525
24892,79425
24900,79425
24900,79112
24837,79050
24724,79049
24625,79050
24533,79088
24525,79096
24516,79088
24424,79050
24423,79050
24423,79007
24487,78981
24562,79012
24662,79012
25212,79012
25303,78974
25374,78904
25412,78812
25412,78712
25412,78362
25374,78271
25316,78212
25367,78161
25428,78161
25660,78393
25659,78586
25745,78794
25904,78953
26112,79039
26336,79040
26544,78954
26703,78795
26789,78587
26790,78363
26704,78155
26572,78023
27025,78023
27148,77999
27253,77928
27576,77606
27576,78515
" /> 
</g>
<g style="fill:#A00000; fill-opacity:0.0; 
stroke:#A00000; stroke-width:100; stroke-opacity:1; 
stroke-linecap:round; stroke-linejoin:round;">
<polyline fill="none;"
points="27576,78515
26190,79901
25429,79901
25378,79850
25437,79791
25475,79699
25475,79250
25437,79158
25366,79088
25274,79050
25175,79049
25062,79050
25000,79112
25000,79425
25412,79425
25475,79362
25475,79250
25475,79699
25475,79587
25412,79525
25000,79525
25000,79532
24900,79532
24900,79525
24892,79525
24892,79425
24900,79425
24900,79112
24837,79050
24724,79049
24625,79050
24533,79088
24525,79096
24516,79088
24424,79050
24423,79050
24423,79007
24487,78981
24562,79012
24662,79012
25212,79012
25303,78974
25374,78904
25412,78812
25412,78712
25412,78362
25374,78271
25316,78212
25367,78161
25428,78161
25660,78393
25659,78586
25745,78794
25904,78953
26112,79039
26336,79040
26544,78954
26703,78795
26789,78587
26790,78363
26704,78155
26572,78023
27025,78023
27148,77999
27253,77928
27576,77606
27576,78515
" /> 
</g>
<g style="fill:#A00000; fill-opacity:1.0; 
stroke:#A00000; stroke-width:39.3701; stroke-opacity:1; 
stroke-linecap:round; stroke-linejoin:round;">
<polyline style="fill-rule:evenodd;"
points="32550,83025
31940,83025
31940,75988
31854,75780
31695,75621
31487,75535
31263,75534
31055,75620
30896,75779
30810,75987
30809,76207
30796,76221
30725,76326
30701,76450
30701,79040
30265,79476
29767,79476
29819,79454
30028,79245
30141,78973
30142,78678
30142,76709
30120,76657
30120,75121
30117,74988
30117,72878
30117,70909
30004,70636
29795,70427
29523,70314
29228,70313
28955,70426
28746,70635
28633,70907
28632,71202
28745,71475
28954,71684
29226,71797
29521,71798
29794,71685
30003,71476
30116,71204
30117,70909
30117,72878
30004,72605
29795,72396
29523,72283
29228,72282
28955,72395
28746,72604
28633,72876
28632,73171
28745,73444
28954,73653
29226,73766
29521,73767
29794,73654
30003,73445
30116,73173
30117,72878
30117,74988
30112,74826
30015,74590
29899,74539
29829,74610
29829,74469
29778,74353
29502,74248
29207,74256
28971,74353
28920,74469
29375,74923
29829,74469
29829,74610
29445,74994
29899,75448
30015,75397
30120,75121
30120,76657
30029,76436
29829,76235
29829,75518
29375,75064
29304,75135
29304,74994
28850,74539
28734,74590
28629,74866
28637,75161
28734,75397
28850,75448
29304,74994
29304,75135
28920,75518
28971,75634
29247,75739
29542,75731
29778,75634
29829,75518
29829,76235
29820,76227
29548,76114
29253,76113
28980,76226
28771,76435
28658,76707
28657,77002
28770,77275
28979,77484
29251,77597
29546,77598
29819,77485
30028,77276
30141,77004
30142,76709
30142,78678
30029,78405
29820,78196
29548,78083
29253,78082
28980,78195
28771,78404
28658,78676
28657,78971
28770,79244
28979,79453
29033,79476
28575,79476
28451,79500
28416,79524
28346,79571
27696,80221
27625,80326
27601,80450
27601,80565
27065,81101
24625,81101
24470,80946
24262,80860
24038,80859
23830,80945
23671,81104
23585,81312
23584,81536
23670,81744
23829,81903
24037,81989
24261,81990
24469,81904
24625,81748
27200,81748
27323,81724
27428,81653
28153,80928
28153,80928
28224,80823
28248,80700
28248,80700
28248,80584
28709,80123
29069,80123
28996,80153
28945,80269
29400,80723
29854,80269
29803,80153
29724,80123
30400,80123
30523,80099
30628,80028
31253,79403
31324,79298
31348,79175
31348,76664
31486,76665
31694,76579
31853,76420
31939,76212
31940,75988
31940,83025
30145,83025
30145,80921
30137,80626
30040,80390
29924,80339
29470,80794
29924,81248
30040,81197
30145,80921
30145,83025
29854,83025
29854,81318
29400,80864
29329,80935
29329,80794
28875,80339
28759,80390
28654,80666
28662,80961
28759,81197
28875,81248
29329,80794
29329,80935
28945,81318
28996,81434
29272,81539
29567,81531
29803,81434
29854,81318
29854,83025
23310,83025
23378,82978
23449,82873
23473,82750
23461,82687
23461,79237
23436,79113
23366,79008
23264,78940
23025,78700
23025,78587
23087,78587
23154,78587
23371,78803
23371,78803
23441,78850
23476,78874
23476,78874
23598,78898
23598,78898
23600,78903
23670,78974
23762,79012
23776,79012
23776,79049
23775,79049
23683,79087
23613,79158
23575,79250
23574,79349
23574,79699
23612,79791
23671,79850
23613,79908
23575,80000
23574,80099
23574,80449
23612,80541
23683,80611
23775,80649
23874,80650
24424,80650
24516,80612
24524,80603
24533,80611
24625,80649
24724,80650
25274,80650
25366,80612
25429,80548
26325,80548
26448,80524
26553,80453
28128,78878
28128,78878
28199,78773
28199,78773
28203,78753
28223,78650
28223,78650
28223,72075
28223,72074
28199,71951
28199,71951
28175,71916
28128,71846
28128,71846
27089,70806
27090,70588
27004,70380
26979,70356
26979,69650
26968,69442
26910,69302
26817,69277
26747,69348
26747,69207
26722,69114
26619,69078
26722,69035
26747,68942
26450,68645
26152,68942
26177,69035
26280,69071
26177,69114
26152,69207
26450,69504
26747,69207
26747,69348
26520,69575
26817,69872
26910,69847
26979,69650
26979,70356
26845,70221
26747,70180
26747,69942
26450,69645
26152,69942
26177,70035
26374,70104
26582,70093
26722,70035
26747,69942
26747,70180
26637,70135
26413,70134
26205,70220
26046,70379
25960,70587
25960,70680
25929,70605
25770,70446
25562,70360
25338,70359
25130,70445
24971,70604
24885,70812
24884,71036
24970,71244
25129,71403
25337,71489
25557,71490
27076,73009
27076,77190
26890,77376
26459,77376
26178,77096
26073,77025
25950,77001
25287,77001
25287,76962
25287,76512
25287,76412
25249,76320
25178,76250
25087,76212
24975,76212
24912,76275
24912,76687
25225,76687
25287,76625
25287,76512
25287,76962
25287,76850
25225,76787
24912,76787
24912,76795
24812,76795
24812,76787
24804,76787
24804,76687
24812,76687
24812,76275
24750,76212
24637,76212
24546,76250
24487,76308
24429,76250
24337,76212
24237,76212
23887,76212
23796,76250
23737,76308
23737,76287
23737,76087
23737,76087
23812,76087
24362,76087
24437,76056
24512,76087
24612,76087
25162,76087
25253,76049
25317,75986
25562,75986
25654,76078
25862,76164
26086,76165
26294,76079
26453,75920
26539,75712
26540,75488
26454,75280
26295,75121
26087,75035
25863,75034
25655,75120
25496,75279
25471,75338
25450,75338
25450,74224
25450,74112
25387,74050
24975,74050
24975,74362
25037,74425
25150,74425
25249,74424
25341,74386
25412,74316
25450,74224
25450,75338
25317,75338
25266,75287
25324,75229
25362,75137
25362,75037
25362,74687
25324,74596
25254,74525
25162,74487
25062,74487
24512,74487
24437,74518
24362,74487
24361,74487
24361,74420
24441,74387
24474,74353
24508,74386
24600,74424
24699,74425
24812,74425
24875,74362
24875,74050
24867,74050
24867,73950
24875,73950
24875,73942
24975,73942
24975,73950
25387,73950
25450,73887
25450,73775
25412,73683
25353,73624
25411,73566
25449,73474
25450,73375
25450,73025
25412,72933
25341,72863
25249,72825
25150,72824
24779,72824
24779,69650
24768,69442
24710,69302
24617,69277
24547,69348
24547,69207
24522,69114
24419,69078
24522,69035
24547,68942
24250,68645
23952,68942
23977,69035
24080,69071
23977,69114
23952,69207
24250,69504
24547,69207
24547,69348
24320,69575
24617,69872
24710,69847
24779,69650
24779,72824
24600,72824
24598,72825
24598,70950
24628,70920
24714,70712
24715,70488
24629,70280
24470,70121
24393,70089
24522,70035
24547,69942
24250,69645
23952,69942
23977,70035
24009,70046
23830,70120
23712,70238
23620,70146
23431,70067
23547,70020
23694,69872
23747,69746
23789,69847
23882,69872
24179,69575
23882,69277
23789,69302
23750,69412
23695,69278
23547,69130
23414,69074
23547,69020
23694,68872
23747,68746
23789,68847
23882,68872
24179,68575
24173,68569
24244,68498
24250,68504
24255,68498
24326,68569
24320,68575
24617,68872
24710,68847
24779,68650
24768,68442
24710,68302
24617,68277
24663,68232
24630,68200
25082,68200
25005,68277
24925,68470
24924,68678
25004,68872
25152,69019
25285,69075
25153,69129
25005,69277
24925,69470
24924,69678
25004,69872
25152,70019
25345,70099
25553,70100
25747,70020
25894,69872
25947,69746
25989,69847
26082,69872
26379,69575
26082,69277
25989,69302
25950,69412
25895,69278
25747,69130
25614,69074
25747,69020
25894,68872
25947,68746
25989,68847
26082,68872
26379,68575
26373,68569
26444,68498
26450,68504
26455,68498
26526,68569
26520,68575
26817,68872
26910,68847
26979,68650
26968,68442
26910,68302
26817,68277
26863,68232
26830,68200
32550,68200
32550,83025
" /> 
</g>
<g style="fill:#A00000; fill-opacity:0.0; 
stroke:#A00000; stroke-width:100; stroke-opacity:1; 
stroke-linecap:round; stroke-linejoin:round;">
<polyline fill="none;"
points="32550,83025
31940,83025
31940,75988
31854,75780
31695,75621
31487,75535
31263,75534
31055,75620
30896,75779
30810,75987
30809,76207
30796,76221
30725,76326
30701,76450
30701,79040
30265,79476
29767,79476
29819,79454
30028,79245
30141,78973
30142,78678
30142,76709
30120,76657
30120,75121
30117,74988
30117,72878
30117,70909
30004,70636
29795,70427
29523,70314
29228,70313
28955,70426
28746,70635
28633,70907
28632,71202
28745,71475
28954,71684
29226,71797
29521,71798
29794,71685
30003,71476
30116,71204
30117,70909
30117,72878
30004,72605
29795,72396
29523,72283
29228,72282
28955,72395
28746,72604
28633,72876
28632,73171
28745,73444
28954,73653
29226,73766
29521,73767
29794,73654
30003,73445
30116,73173
30117,72878
30117,74988
30112,74826
30015,74590
29899,74539
29829,74610
29829,74469
29778,74353
29502,74248
29207,74256
28971,74353
28920,74469
29375,74923
29829,74469
29829,74610
29445,74994
29899,75448
30015,75397
30120,75121
30120,76657
30029,76436
29829,76235
29829,75518
29375,75064
29304,75135
29304,74994
28850,74539
28734,74590
28629,74866
28637,75161
28734,75397
28850,75448
29304,74994
29304,75135
28920,75518
28971,75634
29247,75739
29542,75731
29778,75634
29829,75518
29829,76235
29820,76227
29548,76114
29253,76113
28980,76226
28771,76435
28658,76707
28657,77002
28770,77275
28979,77484
29251,77597
29546,77598
29819,77485
30028,77276
30141,77004
30142,76709
30142,78678
30029,78405
29820,78196
29548,78083
29253,78082
28980,78195
28771,78404
28658,78676
28657,78971
28770,79244
28979,79453
29033,79476
28575,79476
28451,79500
28416,79524
28346,79571
27696,80221
27625,80326
27601,80450
27601,80565
27065,81101
24625,81101
24470,80946
24262,80860
24038,80859
23830,80945
23671,81104
23585,81312
23584,81536
23670,81744
23829,81903
24037,81989
24261,81990
24469,81904
24625,81748
27200,81748
27323,81724
27428,81653
28153,80928
28153,80928
28224,80823
28248,80700
28248,80700
28248,80584
28709,80123
29069,80123
28996,80153
28945,80269
29400,80723
29854,80269
29803,80153
29724,80123
30400,80123
30523,80099
30628,80028
31253,79403
31324,79298
31348,79175
31348,76664
31486,76665
31694,76579
31853,76420
31939,76212
31940,75988
31940,83025
30145,83025
30145,80921
30137,80626
30040,80390
29924,80339
29470,80794
29924,81248
30040,81197
30145,80921
30145,83025
29854,83025
29854,81318
29400,80864
29329,80935
29329,80794
28875,80339
28759,80390
28654,80666
28662,80961
28759,81197
28875,81248
29329,80794
29329,80935
28945,81318
28996,81434
29272,81539
29567,81531
29803,81434
29854,81318
29854,83025
23310,83025
23378,82978
23449,82873
23473,82750
23461,82687
23461,79237
23436,79113
23366,79008
23264,78940
23025,78700
23025,78587
23087,78587
23154,78587
23371,78803
23371,78803
23441,78850
23476,78874
23476,78874
23598,78898
23598,78898
23600,78903
23670,78974
23762,79012
23776,79012
23776,79049
23775,79049
23683,79087
23613,79158
23575,79250
23574,79349
23574,79699
23612,79791
23671,79850
23613,79908
23575,80000
23574,80099
23574,80449
23612,80541
23683,80611
23775,80649
23874,80650
24424,80650
24516,80612
24524,80603
24533,80611
24625,80649
24724,80650
25274,80650
25366,80612
25429,80548
26325,80548
26448,80524
26553,80453
28128,78878
28128,78878
28199,78773
28199,78773
28203,78753
28223,78650
28223,78650
28223,72075
28223,72074
28199,71951
28199,71951
28175,71916
28128,71846
28128,71846
27089,70806
27090,70588
27004,70380
26979,70356
26979,69650
26968,69442
26910,69302
26817,69277
26747,69348
26747,69207
26722,69114
26619,69078
26722,69035
26747,68942
26450,68645
26152,68942
26177,69035
26280,69071
26177,69114
26152,69207
26450,69504
26747,69207
26747,69348
26520,69575
26817,69872
26910,69847
26979,69650
26979,70356
26845,70221
26747,70180
26747,69942
26450,69645
26152,69942
26177,70035
26374,70104
26582,70093
26722,70035
26747,69942
26747,70180
26637,70135
26413,70134
26205,70220
26046,70379
25960,70587
25960,70680
25929,70605
25770,70446
25562,70360
25338,70359
25130,70445
24971,70604
24885,70812
24884,71036
24970,71244
25129,71403
25337,71489
25557,71490
27076,73009
27076,77190
26890,77376
26459,77376
26178,77096
26073,77025
25950,77001
25287,77001
25287,76962
25287,76512
25287,76412
25249,76320
25178,76250
25087,76212
24975,76212
24912,76275
24912,76687
25225,76687
25287,76625
25287,76512
25287,76962
25287,76850
25225,76787
24912,76787
24912,76795
24812,76795
24812,76787
24804,76787
24804,76687
24812,76687
24812,76275
24750,76212
24637,76212
24546,76250
24487,76308
24429,76250
24337,76212
24237,76212
23887,76212
23796,76250
23737,76308
23737,76287
23737,76087
23737,76087
23812,76087
24362,76087
24437,76056
24512,76087
24612,76087
25162,76087
25253,76049
25317,75986
25562,75986
25654,76078
25862,76164
26086,76165
26294,76079
26453,75920
26539,75712
26540,75488
26454,75280
26295,75121
26087,75035
25863,75034
25655,75120
25496,75279
25471,75338
25450,75338
25450,74224
25450,74112
25387,74050
24975,74050
24975,74362
25037,74425
25150,74425
25249,74424
25341,74386
25412,74316
25450,74224
25450,75338
25317,75338
25266,75287
25324,75229
25362,75137
25362,75037
25362,74687
25324,74596
25254,74525
25162,74487
25062,74487
24512,74487
24437,74518
24362,74487
24361,74487
24361,74420
24441,74387
24474,74353
24508,74386
24600,74424
24699,74425
24812,74425
24875,74362
24875,74050
24867,74050
24867,73950
24875,73950
24875,73942
24975,73942
24975,73950
25387,73950
25450,73887
25450,73775
25412,73683
25353,73624
25411,73566
25449,73474
25450,73375
25450,73025
25412,72933
25341,72863
25249,72825
25150,72824
24779,72824
24779,69650
24768,69442
24710,69302
24617,69277
24547,69348
24547,69207
24522,69114
24419,69078
24522,69035
24547,68942
24250,68645
23952,68942
23977,69035
24080,69071
23977,69114
23952,69207
24250,69504
24547,69207
24547,69348
24320,69575
24617,69872
24710,69847
24779,69650
24779,72824
24600,72824
24598,72825
24598,70950
24628,70920
24714,70712
24715,70488
24629,70280
24470,70121
24393,70089
24522,70035
24547,69942
24250,69645
23952,69942
23977,70035
24009,70046
23830,70120
23712,70238
23620,70146
23431,70067
23547,70020
23694,69872
23747,69746
23789,69847
23882,69872
24179,69575
23882,69277
23789,69302
23750,69412
23695,69278
23547,69130
23414,69074
23547,69020
23694,68872
23747,68746
23789,68847
23882,68872
24179,68575
24173,68569
24244,68498
24250,68504
24255,68498
24326,68569
24320,68575
24617,68872
24710,68847
24779,68650
24768,68442
24710,68302
24617,68277
24663,68232
24630,68200
25082,68200
25005,68277
24925,68470
24924,68678
25004,68872
25152,69019
25285,69075
25153,69129
25005,69277
24925,69470
24924,69678
25004,69872
25152,70019
25345,70099
25553,70100
25747,70020
25894,69872
25947,69746
25989,69847
26082,69872
26379,69575
26082,69277
25989,69302
25950,69412
25895,69278
25747,69130
25614,69074
25747,69020
25894,68872
25947,68746
25989,68847
26082,68872
26379,68575
26373,68569
26444,68498
26450,68504
26455,68498
26526,68569
26520,68575
26817,68872
26910,68847
26979,68650
26968,68442
26910,68302
26817,68277
26863,68232
26830,68200
32550,68200
32550,83025
" /> 
</g>
<g style="fill:#FFFFFF; fill-opacity:0.0; 
stroke:#FFFFFF; stroke-width:39.3701; stroke-opacity:1; 
stroke-linecap:round; stroke-linejoin:round;">
</g>
<g style="fill:#FFFFFF; fill-opacity:1.0; 
stroke:#FFFFFF; stroke-width:39.3701; stroke-opacity:1; 
stroke-linecap:round; stroke-linejoin:round;">
<circle cx="31375" cy="76100" r="177.165" /> 
<circle cx="24150" cy="81425" r="177.165" /> 
<circle cx="17050" cy="81100" r="177.165" /> 
<circle cx="20275" cy="81100" r="177.165" /> 
<circle cx="22525" cy="81100" r="177.165" /> 
<circle cx="25950" cy="73950" r="177.165" /> 
<circle cx="25875" cy="79525" r="177.165" /> 
<circle cx="18500" cy="79300" r="177.165" /> 
<circle cx="18475" cy="74100" r="177.165" /> 
<circle cx="19675" cy="76400" r="177.165" /> 
<circle cx="26475" cy="76975" r="177.165" /> 
<circle cx="20175" cy="70750" r="177.165" /> 
<circle cx="18500" cy="75300" r="177.165" /> 
<circle cx="26525" cy="70700" r="177.165" /> 
<circle cx="17600" cy="68600" r="177.165" /> 
<circle cx="24150" cy="70600" r="177.165" /> 
<circle cx="26225" cy="78475" r="177.165" /> 
<circle cx="18650" cy="77750" r="177.165" /> 
<circle cx="25975" cy="75600" r="177.165" /> 
<circle cx="18300" cy="70675" r="177.165" /> 
<circle cx="21025" cy="70700" r="177.165" /> 
<circle cx="25450" cy="70925" r="177.165" /> 
<circle cx="23300" cy="70625" r="177.165" /> 
<circle cx="30425" cy="53750" r="584.646" /> 
<circle cx="30425" cy="56746.1" r="584.646" /> 
<circle cx="26400" cy="57750" r="584.646" /> 
<circle cx="26400" cy="53750" r="584.646" /> 
<circle cx="29200" cy="59900" r="584.646" /> 
<circle cx="29200" cy="63900" r="584.646" /> 
<circle cx="25450" cy="69575" r="140.315" /> 
<circle cx="25450" cy="68575" r="140.315" /> 
<circle cx="26450" cy="69575" r="140.315" /> 
<circle cx="26450" cy="68575" r="140.315" /> 
<circle cx="26450" cy="67575" r="140.315" /> 
<circle cx="25450" cy="67575" r="140.315" /> 
<circle cx="21025" cy="69575" r="140.315" /> 
<circle cx="21025" cy="68575" r="140.315" /> 
<circle cx="22025" cy="69575" r="140.315" /> 
<circle cx="22025" cy="68575" r="140.315" /> 
<circle cx="22025" cy="67575" r="140.315" /> 
<circle cx="21025" cy="67575" r="140.315" /> 
<circle cx="18750" cy="69575" r="140.315" /> 
<circle cx="18750" cy="68575" r="140.315" /> 
<circle cx="19750" cy="69575" r="140.315" /> 
<circle cx="19750" cy="68575" r="140.315" /> 
<circle cx="19750" cy="67575" r="140.315" /> 
<circle cx="18750" cy="67575" r="140.315" /> 
<circle cx="23250" cy="69575" r="140.315" /> 
<circle cx="23250" cy="68575" r="140.315" /> 
<circle cx="24250" cy="69575" r="140.315" /> 
<circle cx="24250" cy="68575" r="140.315" /> 
<circle cx="24250" cy="67575" r="140.315" /> 
<circle cx="23250" cy="67575" r="140.315" /> 
<circle cx="26450" cy="63900" r="584.646" /> 
<circle cx="26450" cy="60903.9" r="584.646" /> 
<circle cx="38450" cy="43075" r="584.646" /> 
<circle cx="41446.1" cy="43075" r="584.646" /> 
<circle cx="34350" cy="59850" r="584.646" /> 
<circle cx="34350" cy="56853.9" r="584.646" /> 
<circle cx="29375" cy="73025" r="216.315" /> 
<circle cx="29375" cy="74994" r="216.315" /> 
<circle cx="29375" cy="71056" r="216.315" /> 
<circle cx="15625" cy="72975" r="216.315" /> 
<circle cx="15625" cy="71006" r="216.315" /> 
<circle cx="15625" cy="74944" r="216.315" /> 
<circle cx="15625" cy="78700" r="216.315" /> 
<circle cx="15625" cy="76731" r="216.315" /> 
<circle cx="15625" cy="80669" r="216.315" /> 
<circle cx="29400" cy="78825" r="216.315" /> 
<circle cx="29400" cy="80794" r="216.315" /> 
<circle cx="29400" cy="76856" r="216.315" /> 
<circle cx="14750" cy="92000" r="180.315" /> 
<circle cx="14750" cy="91000" r="180.315" /> 
<circle cx="19750" cy="92000" r="180.315" /> 
<circle cx="15750" cy="91000" r="180.315" /> 
<circle cx="20750" cy="92000" r="180.315" /> 
<circle cx="16750" cy="91000" r="180.315" /> 
<circle cx="21750" cy="92000" r="180.315" /> 
<circle cx="17750" cy="91000" r="180.315" /> 
<circle cx="22750" cy="92000" r="180.315" /> 
<circle cx="18750" cy="91000" r="180.315" /> 
<circle cx="23750" cy="92000" r="180.315" /> 
<circle cx="19750" cy="91000" r="180.315" /> 
<circle cx="24750" cy="92000" r="180.315" /> 
<circle cx="20750" cy="91000" r="180.315" /> 
<circle cx="25750" cy="92000" r="180.315" /> 
<circle cx="21750" cy="91000" r="180.315" /> 
<circle cx="26750" cy="92000" r="180.315" /> 
<circle cx="22750" cy="91000" r="180.315" /> 
<circle cx="27750" cy="92000" r="180.315" /> 
<circle cx="23750" cy="91000" r="180.315" /> 
<circle cx="28750" cy="92000" r="180.315" /> 
<circle cx="24750" cy="91000" r="180.315" /> 
<circle cx="29750" cy="92000" r="180.315" /> 
<circle cx="25750" cy="91000" r="180.315" /> 
<circle cx="26750" cy="91000" r="180.315" /> 
<circle cx="30750" cy="92000" r="180.315" /> 
<circle cx="27750" cy="91000" r="180.315" /> 
<circle cx="29750" cy="91000" r="180.315" /> 
<circle cx="30750" cy="91000" r="180.315" /> 
<circle cx="31750" cy="91000" r="180.315" /> 
<circle cx="32750" cy="91000" r="180.315" /> 
<circle cx="31750" cy="92000" r="180.315" /> 
<circle cx="32750" cy="92000" r="180.315" /> 
<circle cx="15750" cy="92000" r="180.315" /> 
<circle cx="16750" cy="92000" r="180.315" /> 
<circle cx="17750" cy="92000" r="180.315" /> 
<circle cx="18750" cy="92000" r="180.315" /> 
<circle cx="33750" cy="92000" r="180.315" /> 
<circle cx="33750" cy="91000" r="180.315" /> 
<circle cx="28750" cy="91000" r="180.315" /> 
</g> 
</svg>
