<?xml version="1.0" standalone="no"?>
 <!DOCTYPE svg PUBLIC "-//W3C//DTD SVG 1.1//EN" 
 "http://www.w3.org/Graphics/SVG/1.1/DTD/svg11.dtd"> 
<svg xmlns="http://www.w3.org/2000/svg" version="1.1" 
    width="41.9989cm" height="29.7002cm" viewBox="0 0 165350 116930 ">
<title>SVG Picture created as ToneControls-F_SilkS.svg date 2015/11/21 00:57:53 </title>
  <desc>Picture generated by PCBNEW </desc>
<g style="fill:#000000; fill-opacity:1;stroke:#000000; stroke-opacity:1;
stroke-linecap:round; stroke-linejoin:round; "
 transform="translate(0 0) scale(1 1)">
</g>
<g style="fill:#000000; fill-opacity:0.0; 
stroke:#000000; stroke-width:39.3701; stroke-opacity:1; 
stroke-linecap:round; stroke-linejoin:round;">
<path d="M4000 4000
L161350 4000
L161350 112930
L4000 112930
L4000 4000
" />
<path d="M4700 4700
L160650 4700
L160650 112230
L4700 112230
L4700 4700
" />
<path d="M26470 4000
L26470 4700
" />
<path d="M15382 4552
L15097 4552
" />
<path d="M15240 4552
L15240 4052
L15192 4123
L15144 4171
L15097 4195
" />
<path d="M26470 112930
L26470 112230
" />
<path d="M15382 112782
L15097 112782
" />
<path d="M15240 112782
L15240 112282
L15192 112353
L15144 112401
L15097 112425
" />
<path d="M48940 4000
L48940 4700
" />
<path d="M37567 4100
L37590 4076
L37638 4052
L37757 4052
L37805 4076
L37829 4100
L37852 4147
L37852 4195
L37829 4266
L37543 4552
L37852 4552
" />
<path d="M48940 112930
L48940 112230
" />
<path d="M37567 112330
L37590 112306
L37638 112282
L37757 112282
L37805 112306
L37829 112330
L37852 112377
L37852 112425
L37829 112496
L37543 112782
L37852 112782
" />
<path d="M71410 4000
L71410 4700
" />
<path d="M60013 4052
L60322 4052
L60156 4242
L60227 4242
L60275 4266
L60299 4290
L60322 4338
L60322 4457
L60299 4504
L60275 4528
L60227 4552
L60084 4552
L60037 4528
L60013 4504
" />
<path d="M71410 112930
L71410 112230
" />
<path d="M60013 112282
L60322 112282
L60156 112472
L60227 112472
L60275 112496
L60299 112520
L60322 112568
L60322 112687
L60299 112734
L60275 112758
L60227 112782
L60084 112782
L60037 112758
L60013 112734
" />
<path d="M93880 4000
L93880 4700
" />
<path d="M82745 4219
L82745 4552
" />
<path d="M82626 4028
L82507 4385
L82816 4385
" />
<path d="M93880 112930
L93880 112230
" />
<path d="M82745 112449
L82745 112782
" />
<path d="M82626 112258
L82507 112615
L82816 112615
" />
<path d="M116350 4000
L116350 4700
" />
<path d="M105239 4052
L105000 4052
L104977 4290
L105000 4266
L105048 4242
L105167 4242
L105215 4266
L105239 4290
L105262 4338
L105262 4457
L105239 4504
L105215 4528
L105167 4552
L105048 4552
L105000 4528
L104977 4504
" />
<path d="M116350 112930
L116350 112230
" />
<path d="M105239 112282
L105000 112282
L104977 112520
L105000 112496
L105048 112472
L105167 112472
L105215 112496
L105239 112520
L105262 112568
L105262 112687
L105239 112734
L105215 112758
L105167 112782
L105048 112782
L105000 112758
L104977 112734
" />
<path d="M138820 4000
L138820 4700
" />
<path d="M127685 4052
L127590 4052
L127542 4076
L127518 4100
L127470 4171
L127447 4266
L127447 4457
L127470 4504
L127494 4528
L127542 4552
L127637 4552
L127685 4528
L127709 4504
L127732 4457
L127732 4338
L127709 4290
L127685 4266
L127637 4242
L127542 4242
L127494 4266
L127470 4290
L127447 4338
" />
<path d="M138820 112930
L138820 112230
" />
<path d="M127685 112282
L127590 112282
L127542 112306
L127518 112330
L127470 112401
L127447 112496
L127447 112687
L127470 112734
L127494 112758
L127542 112782
L127637 112782
L127685 112758
L127709 112734
L127732 112687
L127732 112568
L127709 112520
L127685 112496
L127637 112472
L127542 112472
L127494 112496
L127470 112520
L127447 112568
" />
<path d="M149893 4052
L150226 4052
L150012 4552
" />
<path d="M149893 112282
L150226 112282
L150012 112782
" />
<path d="M4000 25780
L4700 25780
" />
<path d="M4230 14949
L4469 14949
" />
<path d="M4183 15092
L4350 14592
L4516 15092
" />
<path d="M161350 25780
L160650 25780
" />
<path d="M160880 14949
L161119 14949
" />
<path d="M160833 15092
L161000 14592
L161166 15092
" />
<path d="M4000 47560
L4700 47560
" />
<path d="M4385 36610
L4457 36634
L4480 36658
L4504 36705
L4504 36777
L4480 36824
L4457 36848
L4409 36872
L4219 36872
L4219 36372
L4385 36372
L4433 36396
L4457 36420
L4480 36467
L4480 36515
L4457 36562
L4433 36586
L4385 36610
L4219 36610
" />
<path d="M161350 47560
L160650 47560
" />
<path d="M161035 36610
L161107 36634
L161130 36658
L161154 36705
L161154 36777
L161130 36824
L161107 36848
L161059 36872
L160869 36872
L160869 36372
L161035 36372
L161083 36396
L161107 36420
L161130 36467
L161130 36515
L161107 36562
L161083 36586
L161035 36610
L160869 36610
" />
<path d="M4000 69340
L4700 69340
" />
<path d="M4504 58604
L4480 58628
L4409 58652
L4361 58652
L4290 58628
L4242 58580
L4219 58533
L4195 58438
L4195 58366
L4219 58271
L4242 58223
L4290 58176
L4361 58152
L4409 58152
L4480 58176
L4504 58200
" />
<path d="M161350 69340
L160650 69340
" />
<path d="M161154 58604
L161130 58628
L161059 58652
L161011 58652
L160940 58628
L160892 58580
L160869 58533
L160845 58438
L160845 58366
L160869 58271
L160892 58223
L160940 58176
L161011 58152
L161059 58152
L161130 58176
L161154 58200
" />
<path d="M4000 91120
L4700 91120
" />
<path d="M4219 80432
L4219 79932
L4338 79932
L4409 79956
L4457 80003
L4480 80051
L4504 80146
L4504 80218
L4480 80313
L4457 80360
L4409 80408
L4338 80432
L4219 80432
" />
<path d="M161350 91120
L160650 91120
" />
<path d="M160869 80432
L160869 79932
L160988 79932
L161059 79956
L161107 80003
L161130 80051
L161154 80146
L161154 80218
L161130 80313
L161107 80360
L161059 80408
L160988 80432
L160869 80432
" />
<path d="M4242 101950
L4409 101950
" />
<path d="M4480 102212
L4242 102212
L4242 101712
L4480 101712
" />
<path d="M160892 101950
L161059 101950
" />
<path d="M161130 102212
L160892 102212
L160892 101712
L161130 101712
" />
<path d="M127800 110672
L127875 110072
L128017 110072
L128100 110101
L128150 110158
L128171 110215
L128185 110330
L128175 110415
L128132 110530
L128096 110587
L128032 110644
L127942 110672
L127800 110672
" />
<path d="M128657 110672
L128696 110358
L128675 110301
L128621 110272
L128507 110272
L128446 110301
" />
<path d="M128660 110644
L128600 110672
L128457 110672
L128403 110644
L128382 110587
L128389 110530
L128425 110472
L128485 110444
L128628 110444
L128689 110415
" />
<path d="M128907 110272
L129135 110272
" />
<path d="M129017 110072
L128953 110587
L128975 110644
L129028 110672
L129085 110672
" />
<path d="M129517 110644
L129457 110672
L129342 110672
L129289 110644
L129267 110587
L129296 110358
L129332 110301
L129392 110272
L129507 110272
L129560 110301
L129582 110358
L129575 110415
L129282 110472
" />
<path d="M129807 110615
L129832 110644
L129800 110672
L129775 110644
L129807 110615
L129800 110672
" />
<path d="M129846 110301
L129871 110330
L129839 110358
L129814 110330
L129846 110301
L129839 110358
" />
<path d="M130582 110130
L130614 110101
L130675 110072
L130817 110072
L130871 110101
L130896 110130
L130917 110187
L130910 110244
L130871 110330
L130485 110672
L130857 110672
" />
<path d="M131303 110072
L131360 110072
L131414 110101
L131439 110130
L131460 110187
L131475 110301
L131457 110444
L131414 110558
L131378 110615
L131346 110644
L131285 110672
L131228 110672
L131175 110644
L131150 110615
L131128 110558
L131114 110444
L131132 110301
L131175 110187
L131210 110130
L131242 110101
L131303 110072
" />
<path d="M132192 110272
L132142 110672
" />
<path d="M132185 110330
L132217 110301
L132278 110272
L132364 110272
L132417 110301
L132439 110358
L132400 110672
" />
<path d="M132771 110672
L132717 110644
L132692 110615
L132671 110558
L132692 110387
L132728 110330
L132760 110301
L132821 110272
L132907 110272
L132960 110301
L132985 110330
L133007 110387
L132985 110558
L132950 110615
L132917 110644
L132857 110672
L132771 110672
" />
<path d="M133221 110272
L133314 110672
L133507 110272
" />
<path d="M134182 110130
L134214 110101
L134275 110072
L134417 110072
L134471 110101
L134496 110130
L134517 110187
L134510 110244
L134471 110330
L134085 110672
L134457 110672
" />
<path d="M134903 110072
L134960 110072
L135014 110101
L135039 110130
L135060 110187
L135075 110301
L135057 110444
L135014 110558
L134978 110615
L134946 110644
L134885 110672
L134828 110672
L134775 110644
L134750 110615
L134728 110558
L134714 110444
L134732 110301
L134775 110187
L134810 110130
L134842 110101
L134903 110072
" />
<path d="M135600 110672
L135257 110672
" />
<path d="M135428 110672
L135503 110072
L135435 110158
L135371 110215
L135310 110244
" />
<path d="M136217 110072
L135932 110072
L135867 110358
L135900 110330
L135960 110301
L136103 110301
L136157 110330
L136182 110358
L136203 110415
L136185 110558
L136150 110615
L136117 110644
L136057 110672
L135914 110672
L135860 110644
L135835 110615
" />
<path d="M119392 111872
L119392 111272
" />
<path d="M119735 111872
L119478 111530
" />
<path d="M119735 111272
L119392 111615
" />
<path d="M119992 111872
L119992 111472
" />
<path d="M119992 111272
L119964 111301
L119992 111330
L120021 111301
L119992 111272
L119992 111330
" />
<path d="M120621 111815
L120592 111844
L120507 111872
L120450 111872
L120364 111844
L120307 111787
L120278 111730
L120250 111615
L120250 111530
L120278 111415
L120307 111358
L120364 111301
L120450 111272
L120507 111272
L120592 111301
L120621 111330
" />
<path d="M121135 111872
L121135 111558
L121107 111501
L121050 111472
L120935 111472
L120878 111501
" />
<path d="M121135 111844
L121078 111872
L120935 111872
L120878 111844
L120850 111787
L120850 111730
L120878 111672
L120935 111644
L121078 111644
L121135 111615
" />
<path d="M121678 111872
L121678 111272
" />
<path d="M121678 111844
L121621 111872
L121507 111872
L121450 111844
L121421 111815
L121392 111758
L121392 111587
L121421 111530
L121450 111501
L121507 111472
L121621 111472
L121678 111501
" />
<path d="M122421 111558
L122621 111558
" />
<path d="M122707 111872
L122421 111872
L122421 111272
L122707 111272
" />
<path d="M122964 111815
L122992 111844
L122964 111872
L122935 111844
L122964 111815
L122964 111872
" />
<path d="M123249 111872
L123249 111272
L123392 111272
L123478 111301
L123535 111358
L123564 111415
L123592 111530
L123592 111615
L123564 111730
L123535 111787
L123478 111844
L123392 111872
L123249 111872
" />
<path d="M123849 111815
L123878 111844
L123849 111872
L123821 111844
L123849 111815
L123849 111872
" />
<path d="M124107 111701
L124392 111701
" />
<path d="M124049 111872
L124249 111272
L124449 111872
" />
<path d="M124649 111815
L124678 111844
L124649 111872
L124621 111844
L124649 111815
L124649 111872
" />
<path d="M152942 110672
L152778 110387
" />
<path d="M152600 110672
L152675 110072
L152903 110072
L152957 110101
L152982 110130
L153003 110187
L152992 110272
L152957 110330
L152925 110358
L152864 110387
L152635 110387
" />
<path d="M153432 110644
L153371 110672
L153257 110672
L153203 110644
L153182 110587
L153210 110358
L153246 110301
L153307 110272
L153421 110272
L153475 110301
L153496 110358
L153489 110415
L153196 110472
" />
<path d="M153707 110272
L153800 110672
L153992 110272
" />
<path d="M154178 110615
L154203 110644
L154171 110672
L154146 110644
L154178 110615
L154171 110672
" />
<path d="M154217 110301
L154242 110330
L154210 110358
L154185 110330
L154217 110301
L154210 110358
" />
<path d="M119364 110644
L119450 110672
L119592 110672
L119650 110644
L119678 110615
L119707 110558
L119707 110501
L119678 110444
L119650 110415
L119592 110387
L119478 110358
L119421 110330
L119392 110301
L119364 110244
L119364 110187
L119392 110130
L119421 110101
L119478 110072
L119621 110072
L119707 110101
" />
<path d="M119964 110672
L119964 110272
" />
<path d="M119964 110072
L119935 110101
L119964 110130
L119992 110101
L119964 110072
L119964 110130
" />
<path d="M120192 110272
L120507 110272
L120192 110672
L120507 110672
" />
<path d="M120964 110644
L120907 110672
L120792 110672
L120735 110644
L120707 110587
L120707 110358
L120735 110301
L120792 110272
L120907 110272
L120964 110301
L120992 110358
L120992 110415
L120707 110472
" />
<path d="M121250 110615
L121278 110644
L121250 110672
L121221 110644
L121250 110615
L121250 110672
" />
<path d="M121250 110301
L121278 110330
L121250 110358
L121221 110330
L121250 110301
L121250 110358
" />
<path d="M121964 110501
L122250 110501
" />
<path d="M121907 110672
L122107 110072
L122307 110672
" />
<path d="M122450 110072
L122821 110072
L122621 110301
L122707 110301
L122764 110330
L122792 110358
L122821 110415
L122821 110558
L122792 110615
L122764 110644
L122707 110672
L122535 110672
L122478 110644
L122450 110615
" />
<path d="M152592 111872
L152592 111272
" />
<path d="M153135 111872
L153135 111272
" />
<path d="M153135 111844
L153078 111872
L152964 111872
L152907 111844
L152878 111815
L152850 111758
L152850 111587
L152878 111530
L152907 111501
L152964 111472
L153078 111472
L153135 111501
" />
<path d="M153421 111815
L153450 111844
L153421 111872
L153392 111844
L153421 111815
L153421 111872
" />
<path d="M153421 111501
L153450 111530
L153421 111558
L153392 111530
L153421 111501
L153421 111558
" />
<path d="M154478 111872
L154135 111872
" />
<path d="M154307 111872
L154307 111272
L154249 111358
L154192 111415
L154135 111444
" />
<path d="M155164 111244
L154650 112015
" />
<path d="M155678 111872
L155335 111872
" />
<path d="M155507 111872
L155507 111272
L155449 111358
L155392 111415
L155335 111444
" />
<path d="M119389 108872
L119732 108872
" />
<path d="M119485 109472
L119560 108872
" />
<path d="M119857 109472
L119907 109072
" />
<path d="M119932 108872
L119900 108901
L119925 108930
L119957 108901
L119932 108872
L119925 108930
" />
<path d="M120107 109072
L120335 109072
" />
<path d="M120217 108872
L120153 109387
L120175 109444
L120228 109472
L120285 109472
" />
<path d="M120571 109472
L120517 109444
L120496 109387
L120560 108872
" />
<path d="M121032 109444
L120971 109472
L120857 109472
L120803 109444
L120782 109387
L120810 109158
L120846 109101
L120907 109072
L121021 109072
L121075 109101
L121096 109158
L121089 109215
L120796 109272
" />
<path d="M121321 109415
L121346 109444
L121314 109472
L121289 109444
L121321 109415
L121314 109472
" />
<path d="M121360 109101
L121385 109130
L121353 109158
L121328 109130
L121360 109101
L121353 109158
" />
<path d="M119592 106758
L119392 106758
" />
<path d="M119392 107072
L119392 106472
L119678 106472
" />
<path d="M119907 107072
L119907 106672
" />
<path d="M119907 106472
L119878 106501
L119907 106530
L119935 106501
L119907 106472
L119907 106530
" />
<path d="M120278 107072
L120221 107044
L120192 106987
L120192 106472
" />
<path d="M120735 107044
L120678 107072
L120564 107072
L120507 107044
L120478 106987
L120478 106758
L120507 106701
L120564 106672
L120678 106672
L120735 106701
L120764 106758
L120764 106815
L120478 106872
" />
<path d="M121021 107015
L121050 107044
L121021 107072
L120992 107044
L121021 107015
L121021 107072
" />
<path d="M121021 106701
L121050 106730
L121021 106758
L120992 106730
L121021 106701
L121021 106758
" />
<path d="M121678 106472
L122021 106472
" />
<path d="M121850 107072
L121850 106472
" />
<path d="M122307 107072
L122250 107044
L122221 107015
L122192 106958
L122192 106787
L122221 106730
L122250 106701
L122307 106672
L122392 106672
L122450 106701
L122478 106730
L122507 106787
L122507 106958
L122478 107015
L122450 107044
L122392 107072
L122307 107072
" />
<path d="M122764 106672
L122764 107072
" />
<path d="M122764 106730
L122792 106701
L122850 106672
L122935 106672
L122992 106701
L123021 106758
L123021 107072
" />
<path d="M123535 107044
L123478 107072
L123364 107072
L123307 107044
L123278 106987
L123278 106758
L123307 106701
L123364 106672
L123478 106672
L123535 106701
L123564 106758
L123564 106815
L123278 106872
" />
<path d="M124164 107015
L124135 107044
L124050 107072
L123992 107072
L123907 107044
L123850 106987
L123821 106930
L123792 106815
L123792 106730
L123821 106615
L123850 106558
L123907 106501
L123992 106472
L124050 106472
L124135 106501
L124164 106530
" />
<path d="M124507 107072
L124450 107044
L124421 107015
L124392 106958
L124392 106787
L124421 106730
L124450 106701
L124507 106672
L124592 106672
L124650 106701
L124678 106730
L124707 106787
L124707 106958
L124678 107015
L124650 107044
L124592 107072
L124507 107072
" />
<path d="M124964 106672
L124964 107072
" />
<path d="M124964 106730
L124992 106701
L125050 106672
L125135 106672
L125192 106701
L125221 106758
L125221 107072
" />
<path d="M125421 106672
L125650 106672
" />
<path d="M125507 106472
L125507 106987
L125535 107044
L125592 107072
L125650 107072
" />
<path d="M125850 107072
L125850 106672
" />
<path d="M125850 106787
L125878 106730
L125907 106701
L125964 106672
L126021 106672
" />
<path d="M126307 107072
L126250 107044
L126221 107015
L126192 106958
L126192 106787
L126221 106730
L126250 106701
L126307 106672
L126392 106672
L126450 106701
L126478 106730
L126507 106787
L126507 106958
L126478 107015
L126450 107044
L126392 107072
L126307 107072
" />
<path d="M126850 107072
L126792 107044
L126764 106987
L126764 106472
" />
<path d="M127050 107044
L127107 107072
L127221 107072
L127278 107044
L127307 106987
L127307 106958
L127278 106901
L127221 106872
L127135 106872
L127078 106844
L127050 106787
L127050 106758
L127078 106701
L127135 106672
L127221 106672
L127278 106701
" />
<path d="M127564 107015
L127592 107044
L127564 107072
L127535 107044
L127564 107015
L127564 107072
" />
<path d="M127850 107072
L127850 106472
" />
<path d="M127907 106844
L128078 107072
" />
<path d="M128078 106672
L127850 106901
" />
<path d="M128335 107072
L128335 106672
" />
<path d="M128335 106472
L128307 106501
L128335 106530
L128364 106501
L128335 106472
L128335 106530
" />
<path d="M128878 107044
L128821 107072
L128707 107072
L128650 107044
L128621 107015
L128592 106958
L128592 106787
L128621 106730
L128650 106701
L128707 106672
L128821 106672
L128878 106701
" />
<path d="M129392 107072
L129392 106758
L129364 106701
L129307 106672
L129192 106672
L129135 106701
" />
<path d="M129392 107044
L129335 107072
L129192 107072
L129135 107044
L129107 106987
L129107 106930
L129135 106872
L129192 106844
L129335 106844
L129392 106815
" />
<path d="M129935 107072
L129935 106472
" />
<path d="M129935 107044
L129878 107072
L129764 107072
L129707 107044
L129678 107015
L129650 106958
L129650 106787
L129678 106730
L129707 106701
L129764 106672
L129878 106672
L129935 106701
" />
<path d="M130078 107130
L130535 107130
" />
<path d="M130678 106672
L130678 107272
" />
<path d="M130678 106701
L130735 106672
L130850 106672
L130907 106701
L130935 106730
L130964 106787
L130964 106958
L130935 107015
L130907 107044
L130850 107072
L130735 107072
L130678 107044
" />
<path d="M131478 107044
L131421 107072
L131307 107072
L131250 107044
L131221 107015
L131192 106958
L131192 106787
L131221 106730
L131250 106701
L131307 106672
L131421 106672
L131478 106701
" />
<path d="M131735 107072
L131735 106472
" />
<path d="M131735 106701
L131792 106672
L131907 106672
L131964 106701
L131992 106730
L132021 106787
L132021 106958
L131992 107015
L131964 107044
L131907 107072
L131792 107072
L131735 107044
" />
<path d="M119364 108244
L119450 108272
L119592 108272
L119650 108244
L119678 108215
L119707 108158
L119707 108101
L119678 108044
L119650 108015
L119592 107987
L119478 107958
L119421 107930
L119392 107901
L119364 107844
L119364 107787
L119392 107730
L119421 107701
L119478 107672
L119621 107672
L119707 107701
" />
<path d="M119964 108272
L119964 107672
" />
<path d="M120221 108272
L120221 107958
L120192 107901
L120135 107872
L120050 107872
L119992 107901
L119964 107930
" />
<path d="M120735 108244
L120678 108272
L120564 108272
L120507 108244
L120478 108187
L120478 107958
L120507 107901
L120564 107872
L120678 107872
L120735 107901
L120764 107958
L120764 108015
L120478 108072
" />
<path d="M121250 108244
L121192 108272
L121078 108272
L121021 108244
L120992 108187
L120992 107958
L121021 107901
L121078 107872
L121192 107872
L121250 107901
L121278 107958
L121278 108015
L120992 108072
" />
<path d="M121450 107872
L121678 107872
" />
<path d="M121535 107672
L121535 108187
L121564 108244
L121621 108272
L121678 108272
" />
<path d="M121878 108215
L121907 108244
L121878 108272
L121850 108244
L121878 108215
L121878 108272
" />
<path d="M121878 107901
L121907 107930
L121878 107958
L121850 107930
L121878 107901
L121878 107958
" />
<path d="M118650 106230
L118650 112230
" />
<path d="M118650 106230
L160650 106230
" />
<path d="M118650 106230
L160650 106230
" />
<path d="M118650 108630
L160650 108630
" />
<path d="M151850 109830
L151850 112230
" />
<path d="M118650 111030
L160650 111030
" />
<path d="M118650 109830
L160650 109830
" />
<path d="M125250 109830
L125250 111030
" />
</g>
<g style="fill:#00A0A0; fill-opacity:0.0; 
stroke:#00A0A0; stroke-width:80; stroke-opacity:1; 
stroke-linecap:round; stroke-linejoin:round;">
<path d="M30548 55816
L30567 55835
L30586 55892
L30586 55930
L30567 55988
L30529 56026
L30491 56045
L30415 56064
L30358 56064
L30282 56045
L30244 56026
L30205 55988
L30186 55930
L30186 55892
L30205 55835
L30225 55816
" />
<path d="M30586 55435
L30586 55664
" />
<path d="M30586 55549
L30186 55549
L30244 55588
L30282 55626
L30301 55664
" />
<path d="M26622 55833
L26360 56000
" />
<path d="M26622 56119
L26072 56119
L26072 55928
L26098 55880
L26125 55857
L26177 55833
L26255 55833
L26308 55857
L26334 55880
L26360 55928
L26360 56119
" />
<path d="M26622 55357
L26622 55642
" />
<path d="M26622 55500
L26072 55500
L26151 55547
L26203 55595
L26229 55642
" />
<path d="M29422 61983
L29160 62150
" />
<path d="M29422 62269
L28872 62269
L28872 62078
L28898 62030
L28925 62007
L28977 61983
L29055 61983
L29108 62007
L29134 62030
L29160 62078
L29160 62269
" />
<path d="M28925 61792
L28898 61769
L28872 61721
L28872 61602
L28898 61554
L28925 61530
L28977 61507
L29029 61507
L29108 61530
L29422 61816
L29422 61507
" />
</g>
<g style="fill:#00A0A0; fill-opacity:0.0; 
stroke:#00A0A0; stroke-width:59.0551; stroke-opacity:1; 
stroke-linecap:round; stroke-linejoin:round;">
<path d="M25715 68874
L26034 68874
L26071 68856
L26090 68837
L26109 68799
L26109 68724
L26090 68687
L26071 68668
L26034 68649
L25715 68649
" />
<path d="M26109 68256
L26109 68481
" />
<path d="M26109 68368
L25715 68368
L25771 68406
L25809 68443
L25828 68481
" />
<path d="M26109 69915
L25715 69915
L25715 69821
L25734 69765
L25771 69727
L25809 69709
L25884 69690
L25940 69690
L26015 69709
L26053 69727
L26090 69765
L26109 69821
L26109 69915
" />
<path d="M25715 69521
L26034 69521
L26071 69503
L26090 69484
L26109 69446
L26109 69371
L26090 69334
L26071 69315
L26034 69296
L25715 69296
" />
<path d="M25996 69128
L25996 68940
" />
<path d="M26109 69165
L25715 69034
L26109 68903
" />
<path d="M26109 68584
L26109 68771
L25715 68771
" />
<path d="M26146 68546
L26146 68246
" />
<path d="M26109 67965
L26109 68153
L25715 68153
" />
<path d="M26109 67834
L25715 67834
L25715 67740
L25734 67684
L25771 67646
L25809 67628
L25884 67609
L25940 67609
L26015 67628
L26053 67646
L26090 67684
L26109 67740
L26109 67834
" />
<path d="M26109 67215
L25921 67347
" />
<path d="M26109 67440
L25715 67440
L25715 67290
L25734 67253
L25753 67234
L25790 67215
L25846 67215
L25884 67234
L25903 67253
L25921 67290
L25921 67440
" />
<path d="M21290 68874
L21609 68874
L21646 68856
L21665 68837
L21684 68799
L21684 68724
L21665 68687
L21646 68668
L21609 68649
L21290 68649
" />
<path d="M21290 68500
L21290 68256
L21440 68387
L21440 68331
L21459 68293
L21478 68275
L21515 68256
L21609 68256
L21646 68275
L21665 68293
L21684 68331
L21684 68443
L21665 68481
L21646 68500
" />
<path d="M21684 69915
L21290 69915
L21290 69821
L21309 69765
L21346 69727
L21384 69709
L21459 69690
L21515 69690
L21590 69709
L21628 69727
L21665 69765
L21684 69821
L21684 69915
" />
<path d="M21290 69521
L21609 69521
L21646 69503
L21665 69484
L21684 69446
L21684 69371
L21665 69334
L21646 69315
L21609 69296
L21290 69296
" />
<path d="M21571 69128
L21571 68940
" />
<path d="M21684 69165
L21290 69034
L21684 68903
" />
<path d="M21684 68584
L21684 68771
L21290 68771
" />
<path d="M21721 68546
L21721 68246
" />
<path d="M21684 67965
L21684 68153
L21290 68153
" />
<path d="M21684 67834
L21290 67834
L21290 67740
L21309 67684
L21346 67646
L21384 67628
L21459 67609
L21515 67609
L21590 67628
L21628 67646
L21665 67684
L21684 67740
L21684 67834
" />
<path d="M21684 67215
L21496 67347
" />
<path d="M21684 67440
L21290 67440
L21290 67290
L21309 67253
L21328 67234
L21365 67215
L21421 67215
L21459 67234
L21478 67253
L21496 67290
L21496 67440
" />
<path d="M19015 68874
L19334 68874
L19371 68856
L19390 68837
L19409 68799
L19409 68724
L19390 68687
L19371 68668
L19334 68649
L19015 68649
" />
<path d="M19146 68293
L19409 68293
" />
<path d="M18996 68387
L19278 68481
L19278 68237
" />
<path d="M19409 69915
L19015 69915
L19015 69821
L19034 69765
L19071 69727
L19109 69709
L19184 69690
L19240 69690
L19315 69709
L19353 69727
L19390 69765
L19409 69821
L19409 69915
" />
<path d="M19015 69521
L19334 69521
L19371 69503
L19390 69484
L19409 69446
L19409 69371
L19390 69334
L19371 69315
L19334 69296
L19015 69296
" />
<path d="M19296 69128
L19296 68940
" />
<path d="M19409 69165
L19015 69034
L19409 68903
" />
<path d="M19409 68584
L19409 68771
L19015 68771
" />
<path d="M19446 68546
L19446 68246
" />
<path d="M19409 67965
L19409 68153
L19015 68153
" />
<path d="M19409 67834
L19015 67834
L19015 67740
L19034 67684
L19071 67646
L19109 67628
L19184 67609
L19240 67609
L19315 67628
L19353 67646
L19390 67684
L19409 67740
L19409 67834
" />
<path d="M19409 67215
L19221 67347
" />
<path d="M19409 67440
L19015 67440
L19015 67290
L19034 67253
L19053 67234
L19090 67215
L19146 67215
L19184 67234
L19203 67253
L19221 67290
L19221 67440
" />
<path d="M23515 68874
L23834 68874
L23871 68856
L23890 68837
L23909 68799
L23909 68724
L23890 68687
L23871 68668
L23834 68649
L23515 68649
" />
<path d="M23553 68481
L23534 68462
L23515 68425
L23515 68331
L23534 68293
L23553 68275
L23590 68256
L23628 68256
L23684 68275
L23909 68500
L23909 68256
" />
<path d="M23909 69915
L23515 69915
L23515 69821
L23534 69765
L23571 69727
L23609 69709
L23684 69690
L23740 69690
L23815 69709
L23853 69727
L23890 69765
L23909 69821
L23909 69915
" />
<path d="M23515 69521
L23834 69521
L23871 69503
L23890 69484
L23909 69446
L23909 69371
L23890 69334
L23871 69315
L23834 69296
L23515 69296
" />
<path d="M23796 69128
L23796 68940
" />
<path d="M23909 69165
L23515 69034
L23909 68903
" />
<path d="M23909 68584
L23909 68771
L23515 68771
" />
<path d="M23946 68546
L23946 68246
" />
<path d="M23909 67965
L23909 68153
L23515 68153
" />
<path d="M23909 67834
L23515 67834
L23515 67740
L23534 67684
L23571 67646
L23609 67628
L23684 67609
L23740 67609
L23815 67628
L23853 67646
L23890 67684
L23909 67740
L23909 67834
" />
<path d="M23909 67215
L23721 67347
" />
<path d="M23909 67440
L23515 67440
L23515 67290
L23534 67253
L23553 67234
L23590 67215
L23646 67215
L23684 67234
L23703 67253
L23721 67290
L23721 67440
" />
</g>
<g style="fill:#00A0A0; fill-opacity:0.0; 
stroke:#00A0A0; stroke-width:80; stroke-opacity:1; 
stroke-linecap:round; stroke-linejoin:round;">
<path d="M26573 62466
L26592 62485
L26611 62542
L26611 62580
L26592 62638
L26554 62676
L26516 62695
L26440 62714
L26383 62714
L26307 62695
L26269 62676
L26230 62638
L26211 62580
L26211 62542
L26230 62485
L26250 62466
" />
<path d="M26211 62333
L26211 62085
L26364 62219
L26364 62161
L26383 62123
L26402 62104
L26440 62085
L26535 62085
L26573 62104
L26592 62123
L26611 62161
L26611 62276
L26592 62314
L26573 62333
" />
<path d="M39883 43198
L39864 43217
L39807 43236
L39769 43236
L39711 43217
L39673 43179
L39654 43141
L39635 43065
L39635 43008
L39654 42932
L39673 42894
L39711 42855
L39769 42836
L39807 42836
L39864 42855
L39883 42875
" />
<path d="M40035 42875
L40054 42855
L40092 42836
L40188 42836
L40226 42855
L40245 42875
L40264 42913
L40264 42951
L40245 43008
L40016 43236
L40264 43236
" />
<path d="M34473 58416
L34492 58435
L34511 58492
L34511 58530
L34492 58588
L34454 58626
L34416 58645
L34340 58664
L34283 58664
L34207 58645
L34169 58626
L34130 58588
L34111 58530
L34111 58492
L34130 58435
L34150 58416
" />
<path d="M34245 58073
L34511 58073
" />
<path d="M34092 58169
L34378 58264
L34378 58016
" />
</g>
<g style="fill:#00A0A0; fill-opacity:0.0; 
stroke:#00A0A0; stroke-width:50; stroke-opacity:1; 
stroke-linecap:round; stroke-linejoin:round;">
<path d="M21624 77080
L21948 77080
L21986 77058
L22005 77037
L22024 76994
L22024 76908
L22005 76866
L21986 76844
L21948 76823
L21624 76823
" />
<path d="M21624 76394
L21624 76608
L21814 76630
L21795 76608
L21776 76566
L21776 76458
L21795 76416
L21814 76394
L21852 76373
L21948 76373
L21986 76394
L22005 76416
L22024 76458
L22024 76566
L22005 76608
L21986 76630
" />
<path d="M22724 77413
L22724 77604
L22324 77604
" />
<path d="M22724 77280
L22324 77280
L22610 77147
L22324 77013
L22724 77013
" />
<path d="M22324 76861
L22324 76613
L22476 76747
L22476 76689
L22495 76651
L22514 76632
L22552 76613
L22648 76613
L22686 76632
L22705 76651
L22724 76689
L22724 76804
L22705 76842
L22686 76861
" />
<path d="M22362 76461
L22343 76442
L22324 76404
L22324 76308
L22343 76270
L22362 76251
L22400 76232
L22438 76232
L22495 76251
L22724 76480
L22724 76232
" />
<path d="M22457 75889
L22724 75889
" />
<path d="M22305 75985
L22591 76080
L22591 75832
" />
</g>
<g style="fill:#00A0A0; fill-opacity:0.0; 
stroke:#00A0A0; stroke-width:43; stroke-opacity:1; 
stroke-linecap:round; stroke-linejoin:round;">
<path d="M24842 78245
L24748 78311
" />
<path d="M24842 78357
L24645 78357
L24645 78282
L24654 78264
L24664 78254
L24682 78245
L24710 78245
L24729 78254
L24739 78264
L24748 78282
L24748 78357
" />
<path d="M24645 78179
L24645 78057
L24720 78123
L24720 78095
L24729 78076
L24739 78067
L24757 78057
L24804 78057
L24823 78067
L24832 78076
L24842 78095
L24842 78151
L24832 78170
L24823 78179
" />
<path d="M25117 78151
L25023 78217
" />
<path d="M25117 78264
L24920 78264
L24920 78189
L24929 78170
L24939 78160
L24957 78151
L24985 78151
L25004 78160
L25014 78170
L25023 78189
L25023 78264
" />
<path d="M24023 78245
L24032 78254
L24042 78282
L24042 78301
L24032 78329
L24014 78348
L23995 78357
L23957 78367
L23929 78367
L23892 78357
L23873 78348
L23854 78329
L23845 78301
L23845 78282
L23854 78254
L23864 78245
" />
<path d="M23845 78067
L23845 78160
L23939 78170
L23929 78160
L23920 78142
L23920 78095
L23929 78076
L23939 78067
L23957 78057
L24004 78057
L24023 78067
L24032 78076
L24042 78095
L24042 78142
L24032 78160
L24023 78170
" />
<path d="M24298 78151
L24307 78160
L24317 78189
L24317 78207
L24307 78235
L24289 78254
L24270 78264
L24232 78273
L24204 78273
L24167 78264
L24148 78254
L24129 78235
L24120 78207
L24120 78189
L24129 78160
L24139 78151
" />
<path d="M24304 79882
L24210 79948
" />
<path d="M24304 79995
L24107 79995
L24107 79920
L24117 79901
L24126 79892
L24145 79882
L24173 79882
L24192 79892
L24201 79901
L24210 79920
L24210 79995
" />
<path d="M24173 79713
L24304 79713
" />
<path d="M24098 79760
L24239 79807
L24239 79685
" />
<path d="M24029 79789
L23935 79854
" />
<path d="M24029 79901
L23832 79901
L23832 79826
L23842 79807
L23851 79798
L23870 79789
L23898 79789
L23917 79798
L23926 79807
L23935 79826
L23935 79901
" />
<path d="M25154 79995
L24957 79995
L24957 79948
L24967 79920
L24985 79901
L25004 79892
L25042 79882
L25070 79882
L25107 79892
L25126 79901
L25145 79920
L25154 79948
L25154 79995
" />
<path d="M25154 79695
L25154 79807
" />
<path d="M25154 79751
L24957 79751
L24985 79770
L25004 79789
L25014 79807
" />
<path d="M24682 80745
L24682 80614
L24879 80745
L24879 80614
" />
<path d="M24776 80539
L24776 80473
" />
<path d="M24879 80445
L24879 80539
L24682 80539
L24682 80445
" />
<path d="M24879 80361
L24682 80361
L24879 80248
L24682 80248
" />
<path d="M24776 80154
L24776 80089
" />
<path d="M24879 80061
L24879 80154
L24682 80154
L24682 80061
" />
<path d="M24879 79864
L24785 79929
" />
<path d="M24879 79976
L24682 79976
L24682 79901
L24692 79882
L24701 79873
L24720 79864
L24748 79864
L24767 79873
L24776 79882
L24785 79901
L24785 79976
" />
<path d="M24870 79789
L24879 79760
L24879 79713
L24870 79695
L24860 79685
L24842 79676
L24823 79676
L24804 79685
L24795 79695
L24785 79713
L24776 79751
L24767 79770
L24757 79779
L24739 79789
L24720 79789
L24701 79779
L24692 79770
L24682 79751
L24682 79704
L24692 79676
" />
<path d="M24879 79592
L24682 79592
L24823 79526
L24682 79460
L24879 79460
" />
<path d="M24823 79376
L24823 79282
" />
<path d="M24879 79395
L24682 79329
L24879 79263
" />
<path d="M24879 79104
L24879 79198
L24682 79198
" />
<path d="M24879 78944
L24879 79038
L24682 79038
" />
<path d="M24454 76673
L24445 76682
L24417 76692
L24398 76692
L24370 76682
L24351 76664
L24342 76645
L24332 76607
L24332 76579
L24342 76542
L24351 76523
L24370 76504
L24398 76495
L24417 76495
L24445 76504
L24454 76514
" />
<path d="M24623 76495
L24586 76495
L24567 76504
L24557 76514
L24539 76542
L24529 76579
L24529 76654
L24539 76673
L24548 76682
L24567 76692
L24604 76692
L24623 76682
L24632 76673
L24642 76654
L24642 76607
L24632 76589
L24623 76579
L24604 76570
L24567 76570
L24548 76579
L24539 76589
L24529 76607
" />
<path d="M24548 76948
L24539 76957
L24510 76967
L24492 76967
L24464 76957
L24445 76939
L24435 76920
L24426 76882
L24426 76854
L24435 76817
L24445 76798
L24464 76779
L24492 76770
L24510 76770
L24539 76779
L24548 76789
" />
<path d="M24879 73770
L24682 73770
L24682 73723
L24692 73695
L24710 73676
L24729 73667
L24767 73657
L24795 73657
L24832 73667
L24851 73676
L24870 73695
L24879 73723
L24879 73770
" />
<path d="M24682 73592
L24682 73470
L24757 73535
L24757 73507
L24767 73488
L24776 73479
L24795 73470
L24842 73470
L24860 73479
L24870 73488
L24879 73507
L24879 73564
L24870 73582
L24860 73592
" />
<path d="M24957 74520
L24957 74389
L25154 74520
L25154 74389
" />
<path d="M25051 74314
L25051 74248
" />
<path d="M25154 74220
L25154 74314
L24957 74314
L24957 74220
" />
<path d="M25154 74136
L24957 74136
L25154 74023
L24957 74023
" />
<path d="M25051 73929
L25051 73864
" />
<path d="M25154 73836
L25154 73929
L24957 73929
L24957 73836
" />
<path d="M25154 73639
L25060 73704
" />
<path d="M25154 73751
L24957 73751
L24957 73676
L24967 73657
L24976 73648
L24995 73639
L25023 73639
L25042 73648
L25051 73657
L25060 73676
L25060 73751
" />
<path d="M25145 73564
L25154 73535
L25154 73488
L25145 73470
L25135 73460
L25117 73451
L25098 73451
L25079 73460
L25070 73470
L25060 73488
L25051 73526
L25042 73545
L25032 73554
L25014 73564
L24995 73564
L24976 73554
L24967 73545
L24957 73526
L24957 73479
L24967 73451
" />
<path d="M25154 73367
L24957 73367
L25098 73301
L24957 73235
L25154 73235
" />
<path d="M25098 73151
L25098 73057
" />
<path d="M25154 73170
L24957 73104
L25154 73038
" />
<path d="M25154 72879
L25154 72973
L24957 72973
" />
<path d="M25154 72719
L25154 72813
L24957 72813
" />
<path d="M23979 73751
L23885 73817
" />
<path d="M23979 73864
L23782 73864
L23782 73789
L23792 73770
L23801 73761
L23820 73751
L23848 73751
L23867 73761
L23876 73770
L23885 73789
L23885 73864
" />
<path d="M23979 73564
L23979 73676
" />
<path d="M23979 73620
L23782 73620
L23810 73639
L23829 73657
L23839 73676
" />
<path d="M23782 73442
L23782 73423
L23792 73404
L23801 73395
L23820 73385
L23857 73376
L23904 73376
L23942 73385
L23960 73395
L23970 73404
L23979 73423
L23979 73442
L23970 73460
L23960 73470
L23942 73479
L23904 73488
L23857 73488
L23820 73479
L23801 73470
L23792 73460
L23782 73442
" />
<path d="M24254 73564
L24160 73629
" />
<path d="M24254 73676
L24057 73676
L24057 73601
L24067 73582
L24076 73573
L24095 73564
L24123 73564
L24142 73573
L24151 73582
L24160 73601
L24160 73676
" />
<path d="M25042 75320
L24948 75386
" />
<path d="M25042 75432
L24845 75432
L24845 75357
L24854 75339
L24864 75329
L24882 75320
L24910 75320
L24929 75329
L24939 75339
L24948 75357
L24948 75432
" />
<path d="M24845 75254
L24845 75123
L25042 75207
" />
<path d="M24767 75226
L24673 75292
" />
<path d="M24767 75339
L24570 75339
L24570 75264
L24579 75245
L24589 75235
L24607 75226
L24635 75226
L24654 75235
L24664 75245
L24673 75264
L24673 75339
" />
<path d="M24223 75320
L24232 75329
L24242 75357
L24242 75376
L24232 75404
L24214 75423
L24195 75432
L24157 75442
L24129 75442
L24092 75432
L24073 75423
L24054 75404
L24045 75376
L24045 75357
L24054 75329
L24064 75320
" />
<path d="M24242 75226
L24242 75189
L24232 75170
L24223 75160
L24195 75142
L24157 75132
L24082 75132
L24064 75142
L24054 75151
L24045 75170
L24045 75207
L24054 75226
L24064 75235
L24082 75245
L24129 75245
L24148 75235
L24157 75226
L24167 75207
L24167 75170
L24157 75151
L24148 75142
L24129 75132
" />
<path d="M23948 75226
L23957 75235
L23967 75264
L23967 75282
L23957 75310
L23939 75329
L23920 75339
L23882 75348
L23854 75348
L23817 75339
L23798 75329
L23779 75310
L23770 75282
L23770 75264
L23779 75235
L23789 75226
" />
<path d="M19842 75320
L19748 75386
" />
<path d="M19842 75432
L19645 75432
L19645 75357
L19654 75339
L19664 75329
L19682 75320
L19710 75320
L19729 75329
L19739 75339
L19748 75357
L19748 75432
" />
<path d="M19645 75142
L19645 75235
L19739 75245
L19729 75235
L19720 75217
L19720 75170
L19729 75151
L19739 75142
L19757 75132
L19804 75132
L19823 75142
L19832 75151
L19842 75170
L19842 75217
L19832 75235
L19823 75245
" />
<path d="M19567 75226
L19473 75292
" />
<path d="M19567 75339
L19370 75339
L19370 75264
L19379 75245
L19389 75235
L19407 75226
L19435 75226
L19454 75235
L19464 75245
L19473 75264
L19473 75339
" />
<path d="M19592 78220
L19498 78286
" />
<path d="M19592 78332
L19395 78332
L19395 78257
L19404 78239
L19414 78229
L19432 78220
L19460 78220
L19479 78229
L19489 78239
L19498 78257
L19498 78332
" />
<path d="M19395 78051
L19395 78089
L19404 78107
L19414 78117
L19442 78135
L19479 78145
L19554 78145
L19573 78135
L19582 78126
L19592 78107
L19592 78070
L19582 78051
L19573 78042
L19554 78032
L19507 78032
L19489 78042
L19479 78051
L19470 78070
L19470 78107
L19479 78126
L19489 78135
L19507 78145
" />
<path d="M19867 78126
L19773 78192
" />
<path d="M19867 78239
L19670 78239
L19670 78164
L19679 78145
L19689 78135
L19707 78126
L19735 78126
L19754 78135
L19764 78145
L19773 78164
L19773 78239
" />
<path d="M20598 75320
L20607 75329
L20617 75357
L20617 75376
L20607 75404
L20589 75423
L20570 75432
L20532 75442
L20504 75442
L20467 75432
L20448 75423
L20429 75404
L20420 75376
L20420 75357
L20429 75329
L20439 75320
" />
<path d="M20420 75254
L20420 75123
L20617 75207
" />
<path d="M20323 75226
L20332 75235
L20342 75264
L20342 75282
L20332 75310
L20314 75329
L20295 75339
L20257 75348
L20229 75348
L20192 75339
L20173 75329
L20154 75310
L20145 75282
L20145 75264
L20154 75235
L20164 75226
" />
<path d="M20348 78220
L20357 78229
L20367 78257
L20367 78276
L20357 78304
L20339 78323
L20320 78332
L20282 78342
L20254 78342
L20217 78332
L20198 78323
L20179 78304
L20170 78276
L20170 78257
L20179 78229
L20189 78220
" />
<path d="M20254 78107
L20245 78126
L20235 78135
L20217 78145
L20207 78145
L20189 78135
L20179 78126
L20170 78107
L20170 78070
L20179 78051
L20189 78042
L20207 78032
L20217 78032
L20235 78042
L20245 78051
L20254 78070
L20254 78107
L20264 78126
L20273 78135
L20292 78145
L20329 78145
L20348 78135
L20357 78126
L20367 78107
L20367 78070
L20357 78051
L20348 78042
L20329 78032
L20292 78032
L20273 78042
L20264 78051
L20254 78070
" />
<path d="M20623 78126
L20632 78135
L20642 78164
L20642 78182
L20632 78210
L20614 78229
L20595 78239
L20557 78248
L20529 78248
L20492 78239
L20473 78229
L20454 78210
L20445 78182
L20445 78164
L20454 78135
L20464 78126
" />
<path d="M20379 73732
L20285 73798
" />
<path d="M20379 73845
L20182 73845
L20182 73770
L20192 73751
L20201 73742
L20220 73732
L20248 73732
L20267 73742
L20276 73751
L20285 73770
L20285 73845
" />
<path d="M20379 73639
L20379 73601
L20370 73582
L20360 73573
L20332 73554
L20295 73545
L20220 73545
L20201 73554
L20192 73563
L20182 73582
L20182 73620
L20192 73639
L20201 73648
L20220 73657
L20267 73657
L20285 73648
L20295 73639
L20304 73620
L20304 73582
L20295 73563
L20285 73554
L20267 73545
" />
<path d="M20654 73639
L20560 73704
" />
<path d="M20654 73751
L20457 73751
L20457 73676
L20467 73657
L20476 73648
L20495 73639
L20523 73639
L20542 73648
L20551 73657
L20560 73676
L20560 73751
" />
<path d="M20654 79832
L20560 79898
" />
<path d="M20654 79945
L20457 79945
L20457 79870
L20467 79851
L20476 79842
L20495 79832
L20523 79832
L20542 79842
L20551 79851
L20560 79870
L20560 79945
" />
<path d="M20542 79720
L20532 79739
L20523 79748
L20504 79757
L20495 79757
L20476 79748
L20467 79739
L20457 79720
L20457 79682
L20467 79663
L20476 79654
L20495 79645
L20504 79645
L20523 79654
L20532 79663
L20542 79682
L20542 79720
L20551 79739
L20560 79748
L20579 79757
L20617 79757
L20635 79748
L20645 79739
L20654 79720
L20654 79682
L20645 79663
L20635 79654
L20617 79645
L20579 79645
L20560 79654
L20551 79663
L20542 79682
" />
<path d="M20379 79739
L20285 79804
" />
<path d="M20379 79851
L20182 79851
L20182 79776
L20192 79757
L20201 79748
L20220 79739
L20248 79739
L20267 79748
L20276 79757
L20285 79776
L20285 79851
" />
<path d="M19554 73845
L19357 73845
L19357 73798
L19367 73770
L19385 73751
L19404 73742
L19442 73732
L19470 73732
L19507 73742
L19526 73751
L19545 73770
L19554 73798
L19554 73845
" />
<path d="M19423 73563
L19554 73563
" />
<path d="M19348 73610
L19489 73657
L19489 73535
" />
<path d="M19632 74595
L19632 74464
L19829 74595
L19829 74464
" />
<path d="M19726 74389
L19726 74323
" />
<path d="M19829 74295
L19829 74389
L19632 74389
L19632 74295
" />
<path d="M19829 74211
L19632 74211
L19829 74098
L19632 74098
" />
<path d="M19726 74004
L19726 73939
" />
<path d="M19829 73911
L19829 74004
L19632 74004
L19632 73911
" />
<path d="M19829 73714
L19735 73779
" />
<path d="M19829 73826
L19632 73826
L19632 73751
L19642 73732
L19651 73723
L19670 73714
L19698 73714
L19717 73723
L19726 73732
L19735 73751
L19735 73826
" />
<path d="M19820 73639
L19829 73610
L19829 73563
L19820 73545
L19810 73535
L19792 73526
L19773 73526
L19754 73535
L19745 73545
L19735 73563
L19726 73601
L19717 73620
L19707 73629
L19689 73639
L19670 73639
L19651 73629
L19642 73620
L19632 73601
L19632 73554
L19642 73526
" />
<path d="M19829 73442
L19632 73442
L19773 73376
L19632 73310
L19829 73310
" />
<path d="M19773 73226
L19773 73132
" />
<path d="M19829 73245
L19632 73179
L19829 73113
" />
<path d="M19829 72954
L19829 73048
L19632 73048
" />
<path d="M19829 72794
L19829 72888
L19632 72888
" />
<path d="M19779 79945
L19582 79945
L19582 79898
L19592 79870
L19610 79851
L19629 79842
L19667 79832
L19695 79832
L19732 79842
L19751 79851
L19770 79870
L19779 79898
L19779 79945
" />
<path d="M19601 79757
L19592 79748
L19582 79729
L19582 79682
L19592 79663
L19601 79654
L19620 79645
L19639 79645
L19667 79654
L19779 79767
L19779 79645
" />
<path d="M19307 80695
L19307 80564
L19504 80695
L19504 80564
" />
<path d="M19401 80489
L19401 80423
" />
<path d="M19504 80395
L19504 80489
L19307 80489
L19307 80395
" />
<path d="M19504 80311
L19307 80311
L19504 80198
L19307 80198
" />
<path d="M19401 80104
L19401 80039
" />
<path d="M19504 80011
L19504 80104
L19307 80104
L19307 80011
" />
<path d="M19504 79814
L19410 79879
" />
<path d="M19504 79926
L19307 79926
L19307 79851
L19317 79832
L19326 79823
L19345 79814
L19373 79814
L19392 79823
L19401 79832
L19410 79851
L19410 79926
" />
<path d="M19495 79739
L19504 79710
L19504 79663
L19495 79645
L19485 79635
L19467 79626
L19448 79626
L19429 79635
L19420 79645
L19410 79663
L19401 79701
L19392 79720
L19382 79729
L19364 79739
L19345 79739
L19326 79729
L19317 79720
L19307 79701
L19307 79654
L19317 79626
" />
<path d="M19504 79542
L19307 79542
L19448 79476
L19307 79410
L19504 79410
" />
<path d="M19448 79326
L19448 79232
" />
<path d="M19504 79345
L19307 79279
L19504 79213
" />
<path d="M19504 79054
L19504 79148
L19307 79148
" />
<path d="M19504 78894
L19504 78988
L19307 78988
" />
</g>
<g style="fill:#00A0A0; fill-opacity:0.0; 
stroke:#00A0A0; stroke-width:120; stroke-opacity:1; 
stroke-linecap:round; stroke-linejoin:round;">
<path d="M29037 69921
L28837 69636
" />
<path d="M28695 69921
L28695 69321
L28923 69321
L28980 69350
L29009 69379
L29037 69436
L29037 69521
L29009 69579
L28980 69607
L28923 69636
L28695 69636
" />
<path d="M29209 69321
L29409 69921
L29609 69321
" />
<path d="M30066 69521
L30066 69921
" />
<path d="M29923 69293
L29780 69721
L30152 69721
" />
<path d="M28144 76515
L28144 75915
L28372 75915
L28429 75944
L28458 75973
L28486 76030
L28486 76115
L28458 76173
L28429 76201
L28372 76230
L28144 76230
" />
<path d="M28858 75915
L28972 75915
L29029 75944
L29086 76001
L29115 76115
L29115 76315
L29086 76430
L29029 76487
L28972 76515
L28858 76515
L28801 76487
L28744 76430
L28715 76315
L28715 76115
L28744 76001
L28801 75944
L28858 75915
" />
<path d="M29286 75915
L29629 75915
" />
<path d="M29458 76515
L29458 75915
" />
<path d="M15247 76563
L15047 76278
" />
<path d="M14905 76563
L14905 75963
L15133 75963
L15190 75992
L15219 76021
L15247 76078
L15247 76163
L15219 76221
L15190 76249
L15133 76278
L14905 76278
" />
<path d="M15419 75963
L15619 76563
L15819 75963
" />
<path d="M15962 75963
L16333 75963
L16133 76192
L16219 76192
L16276 76221
L16305 76249
L16333 76306
L16333 76449
L16305 76506
L16276 76535
L16219 76563
L16047 76563
L15990 76535
L15962 76506
" />
<path d="M15456 69969
L15456 69369
L15684 69369
L15741 69398
L15770 69427
L15798 69484
L15798 69569
L15770 69627
L15741 69655
L15684 69684
L15456 69684
" />
<path d="M16170 69369
L16284 69369
L16341 69398
L16398 69455
L16427 69569
L16427 69769
L16398 69884
L16341 69941
L16284 69969
L16170 69969
L16113 69941
L16056 69884
L16027 69769
L16027 69569
L16056 69455
L16113 69398
L16170 69369
" />
<path d="M16598 69369
L16941 69369
" />
<path d="M16770 69969
L16770 69369
" />
<path d="M15247 82288
L15047 82003
" />
<path d="M14905 82288
L14905 81688
L15133 81688
L15190 81717
L15219 81746
L15247 81803
L15247 81888
L15219 81946
L15190 81974
L15133 82003
L14905 82003
" />
<path d="M15419 81688
L15619 82288
L15819 81688
" />
<path d="M15990 81746
L16019 81717
L16076 81688
L16219 81688
L16276 81717
L16305 81746
L16333 81803
L16333 81860
L16305 81946
L15962 82288
L16333 82288
" />
<path d="M15456 75694
L15456 75094
L15684 75094
L15741 75123
L15770 75152
L15798 75209
L15798 75294
L15770 75352
L15741 75380
L15684 75409
L15456 75409
" />
<path d="M16170 75094
L16284 75094
L16341 75123
L16398 75180
L16427 75294
L16427 75494
L16398 75609
L16341 75666
L16284 75694
L16170 75694
L16113 75666
L16056 75609
L16027 75494
L16027 75294
L16056 75180
L16113 75123
L16170 75094
" />
<path d="M16598 75094
L16941 75094
" />
<path d="M16770 75694
L16770 75094
" />
<path d="M29062 75721
L28862 75436
" />
<path d="M28720 75721
L28720 75121
L28948 75121
L29005 75150
L29034 75179
L29062 75236
L29062 75321
L29034 75379
L29005 75407
L28948 75436
L28720 75436
" />
<path d="M29234 75121
L29434 75721
L29634 75121
" />
<path d="M30148 75721
L29805 75721
" />
<path d="M29977 75721
L29977 75121
L29920 75207
L29862 75264
L29805 75293
" />
<path d="M28169 82315
L28169 81715
L28397 81715
L28454 81744
L28483 81773
L28511 81830
L28511 81915
L28483 81973
L28454 82001
L28397 82030
L28169 82030
" />
<path d="M28883 81715
L28997 81715
L29054 81744
L29111 81801
L29140 81915
L29140 82115
L29111 82230
L29054 82287
L28997 82315
L28883 82315
L28826 82287
L28769 82230
L28740 82115
L28740 81915
L28769 81801
L28826 81744
L28883 81715
" />
<path d="M29311 81715
L29654 81715
" />
<path d="M29483 82315
L29483 81715
" />
</g>
<g style="fill:#00A0A0; fill-opacity:0.0; 
stroke:#00A0A0; stroke-width:108; stroke-opacity:1; 
stroke-linecap:round; stroke-linejoin:round;">
</g>
<g style="fill:#00A0A0; fill-opacity:0.0; 
stroke:#00A0A0; stroke-width:100; stroke-opacity:1; 
stroke-linecap:round; stroke-linejoin:round;">
<path d="M23954 90161
L23954 89761
L24107 89761
L24145 89780
L24164 89800
L24183 89838
L24183 89895
L24164 89933
L24145 89952
L24107 89971
L23954 89971
" />
<path d="M24564 90161
L24335 90161
" />
<path d="M24450 90161
L24450 89761
L24411 89819
L24373 89857
L24335 89876
" />
</g>
<g style="fill:#00A0A0; fill-opacity:0.0; 
stroke:#00A0A0; stroke-width:108; stroke-opacity:1; 
stroke-linecap:round; stroke-linejoin:round;">
</g>
<g style="fill:#00A0A0; fill-opacity:0.0; 
stroke:#00A0A0; stroke-width:80; stroke-opacity:1; 
stroke-linecap:round; stroke-linejoin:round;">
<path d="M22830 93123
L22811 93142
L22754 93161
L22716 93161
L22659 93142
L22621 93104
L22602 93066
L22583 92990
L22583 92933
L22602 92857
L22621 92819
L22659 92780
L22716 92761
L22754 92761
L22811 92780
L22830 92800
" />
<path d="M23078 92761
L23154 92761
L23192 92780
L23230 92819
L23250 92895
L23250 93028
L23230 93104
L23192 93142
L23154 93161
L23078 93161
L23040 93142
L23002 93104
L22983 93028
L22983 92895
L23002 92819
L23040 92780
L23078 92761
" />
<path d="M23421 93161
L23421 92761
L23650 93161
L23650 92761
" />
<path d="M23840 93161
L23840 92761
L24069 93161
L24069 92761
" />
<path d="M24164 93200
L24469 93200
" />
<path d="M24545 92800
L24564 92780
L24602 92761
L24697 92761
L24735 92780
L24754 92800
L24773 92838
L24773 92876
L24754 92933
L24526 93161
L24773 93161
" />
<path d="M25021 92761
L25059 92761
L25097 92780
L25116 92800
L25135 92838
L25154 92914
L25154 93009
L25135 93085
L25116 93123
L25097 93142
L25059 93161
L25021 93161
L24983 93142
L24964 93123
L24945 93085
L24926 93009
L24926 92914
L24945 92838
L24964 92800
L24983 92780
L25021 92761
" />
<path d="M25288 92761
L25554 93161
" />
<path d="M25554 92761
L25288 93161
" />
<path d="M25688 92800
L25707 92780
L25745 92761
L25840 92761
L25878 92780
L25897 92800
L25916 92838
L25916 92876
L25897 92933
L25669 93161
L25916 93161
" />
</g>
<g style="fill:#00A0A0; fill-opacity:0.0; 
stroke:#00A0A0; stroke-width:120; stroke-opacity:1; 
stroke-linecap:round; stroke-linejoin:round;">
<path d="M30825 53365
L30825 57150
" />
<path d="M30825 57150
L30025 57150
" />
<path d="M30025 57134
L30025 53350
" />
<path d="M30025 53350
L30825 53350
" />
<path d="M30625 53350
L30825 53550
" />
<path d="M26400 57750
L26400 57350
" />
<path d="M26400 57350
L26000 57350
" />
<path d="M26000 57350
L26000 54150
" />
<path d="M26000 54150
L26800 54150
" />
<path d="M26800 54150
L26800 57350
" />
<path d="M26800 57350
L26400 57350
" />
<path d="M26200 57350
L26000 57150
" />
<path d="M26400 53750
L26400 54150
" />
<path d="M29200 59900
L29200 60300
" />
<path d="M29200 60300
L29600 60300
" />
<path d="M29600 60300
L29600 63500
" />
<path d="M29600 63500
L28800 63500
" />
<path d="M28800 63500
L28800 60300
" />
<path d="M28800 60300
L29200 60300
" />
<path d="M29400 60300
L29600 60500
" />
<path d="M29200 63900
L29200 63500
" />
</g>
<g style="fill:#00A0A0; fill-opacity:0.0; 
stroke:#00A0A0; stroke-width:59.0551; stroke-opacity:1; 
stroke-linecap:round; stroke-linejoin:round;">
<path d="M24950 70075
L24950 67075
" />
<path d="M24950 67075
L26950 67075
" />
<path d="M26950 67075
L26950 70075
" />
<path d="M26950 70075
L24950 70075
" />
<path d="M20525 70075
L20525 67075
" />
<path d="M20525 67075
L22525 67075
" />
<path d="M22525 67075
L22525 70075
" />
<path d="M22525 70075
L20525 70075
" />
<path d="M18250 70075
L18250 67075
" />
<path d="M18250 67075
L20250 67075
" />
<path d="M20250 67075
L20250 70075
" />
<path d="M20250 70075
L18250 70075
" />
<path d="M22750 70075
L22750 67075
" />
<path d="M22750 67075
L24750 67075
" />
<path d="M24750 67075
L24750 70075
" />
<path d="M24750 70075
L22750 70075
" />
</g>
<g style="fill:#00A0A0; fill-opacity:0.0; 
stroke:#00A0A0; stroke-width:120; stroke-opacity:1; 
stroke-linecap:round; stroke-linejoin:round;">
<path d="M26050 64284
L26050 60500
" />
<path d="M26050 60500
L26850 60500
" />
<path d="M26850 60515
L26850 64300
" />
<path d="M26850 64300
L26050 64300
" />
<path d="M26250 64300
L26050 64100
" />
<path d="M38065 42675
L41850 42675
" />
<path d="M41850 42675
L41850 43475
" />
<path d="M41834 43475
L38050 43475
" />
<path d="M38050 43475
L38050 42675
" />
<path d="M38050 42875
L38250 42675
" />
<path d="M33950 60234
L33950 56450
" />
<path d="M33950 56450
L34750 56450
" />
<path d="M34750 56465
L34750 60250
" />
<path d="M34750 60250
L33950 60250
" />
<path d="M34150 60250
L33950 60050
" />
</g>
<g style="fill:#00A0A0; fill-opacity:0.0; 
stroke:#00A0A0; stroke-width:80; stroke-opacity:1; 
stroke-linecap:round; stroke-linejoin:round;">
<path d="M21462 78637
L21462 74837
" />
<path d="M21462 74837
L22962 74837
" />
<path d="M22962 74837
L22962 78637
" />
<path d="M22962 78637
L21462 78637
" />
<path d="M21962 78637
L21962 78337
" />
<path d="M21962 78337
L22362 78337
" />
<path d="M22362 78337
L22362 78637
" />
</g>
<g style="fill:#00A0A0; fill-opacity:0.0; 
stroke:#00A0A0; stroke-width:39; stroke-opacity:1; 
stroke-linecap:round; stroke-linejoin:round;">
<circle cx="25187.5" cy="78862.5" r="50" /> 
<path d="M25187 78412
L25187 78812
" />
<path d="M25187 78812
L24587 78812
" />
<path d="M24587 78812
L24587 78412
" />
<path d="M24587 78012
L24587 77612
" />
<path d="M24587 77612
L25187 77612
" />
<path d="M25187 77612
L25187 78012
" />
<circle cx="24387.5" cy="78862.5" r="50" /> 
<path d="M24387 78412
L24387 78812
" />
<path d="M24387 78812
L23787 78812
" />
<path d="M23787 78812
L23787 78412
" />
<path d="M23787 78012
L23787 77612
" />
<path d="M23787 77612
L24387 77612
" />
<path d="M24387 77612
L24387 78012
" />
<circle cx="23800" cy="79200" r="50" /> 
<path d="M23800 79650
L23800 79250
" />
<path d="M23800 79250
L24400 79250
" />
<path d="M24400 79250
L24400 79650
" />
<path d="M24400 80050
L24400 80450
" />
<path d="M24400 80450
L23800 80450
" />
<path d="M23800 80450
L23800 80050
" />
<circle cx="24650" cy="79200" r="50" /> 
<path d="M24650 79650
L24650 79250
" />
<path d="M24650 79250
L25250 79250
" />
<path d="M25250 79250
L25250 79650
" />
<path d="M25250 80050
L25250 80450
" />
<path d="M25250 80450
L24650 80450
" />
<path d="M24650 80450
L24650 80050
" />
<circle cx="23837.5" cy="77037.5" r="50" /> 
<path d="M24287 77037
L23887 77037
" />
<path d="M23887 77037
L23887 76437
" />
<path d="M23887 76437
L24287 76437
" />
<path d="M24687 76437
L25087 76437
" />
<path d="M25087 76437
L25087 77037
" />
<path d="M25087 77037
L24687 77037
" />
<circle cx="25225" cy="74275" r="50" /> 
<path d="M25225 73825
L25225 74225
" />
<path d="M25225 74225
L24625 74225
" />
<path d="M24625 74225
L24625 73825
" />
<path d="M24625 73425
L24625 73025
" />
<path d="M24625 73025
L25225 73025
" />
<path d="M25225 73025
L25225 73425
" />
<circle cx="24325" cy="74275" r="50" /> 
<path d="M24325 73825
L24325 74225
" />
<path d="M24325 74225
L23725 74225
" />
<path d="M23725 74225
L23725 73825
" />
<path d="M23725 73425
L23725 73025
" />
<path d="M23725 73025
L24325 73025
" />
<path d="M24325 73025
L24325 73425
" />
<circle cx="24537.5" cy="74637.5" r="50" /> 
<path d="M24537 75087
L24537 74687
" />
<path d="M24537 74687
L25137 74687
" />
<path d="M25137 74687
L25137 75087
" />
<path d="M25137 75487
L25137 75887
" />
<path d="M25137 75887
L24537 75887
" />
<path d="M24537 75887
L24537 75487
" />
<circle cx="23737.5" cy="74637.5" r="50" /> 
<path d="M23737 75087
L23737 74687
" />
<path d="M23737 74687
L24337 74687
" />
<path d="M24337 74687
L24337 75087
" />
<path d="M24337 75487
L24337 75887
" />
<path d="M24337 75887
L23737 75887
" />
<path d="M23737 75887
L23737 75487
" />
<circle cx="19337.5" cy="74637.5" r="50" /> 
<path d="M19337 75087
L19337 74687
" />
<path d="M19337 74687
L19937 74687
" />
<path d="M19937 74687
L19937 75087
" />
<path d="M19937 75487
L19937 75887
" />
<path d="M19937 75887
L19337 75887
" />
<path d="M19337 75887
L19337 75487
" />
<circle cx="19937.5" cy="78837.5" r="50" /> 
<path d="M19937 78387
L19937 78787
" />
<path d="M19937 78787
L19337 78787
" />
<path d="M19337 78787
L19337 78387
" />
<path d="M19337 77987
L19337 77587
" />
<path d="M19337 77587
L19937 77587
" />
<path d="M19937 77587
L19937 77987
" />
<circle cx="20112.5" cy="74637.5" r="50" /> 
<path d="M20112 75087
L20112 74687
" />
<path d="M20112 74687
L20712 74687
" />
<path d="M20712 74687
L20712 75087
" />
<path d="M20712 75487
L20712 75887
" />
<path d="M20712 75887
L20112 75887
" />
<path d="M20112 75887
L20112 75487
" />
<circle cx="20712.5" cy="78837.5" r="50" /> 
<path d="M20712 78387
L20712 78787
" />
<path d="M20712 78787
L20112 78787
" />
<path d="M20112 78787
L20112 78387
" />
<path d="M20112 77987
L20112 77587
" />
<path d="M20112 77587
L20712 77587
" />
<path d="M20712 77587
L20712 77987
" />
<circle cx="20725" cy="74350" r="50" /> 
<path d="M20725 73900
L20725 74300
" />
<path d="M20725 74300
L20125 74300
" />
<path d="M20125 74300
L20125 73900
" />
<path d="M20125 73500
L20125 73100
" />
<path d="M20125 73100
L20725 73100
" />
<path d="M20725 73100
L20725 73500
" />
<circle cx="20150" cy="79150" r="50" /> 
<path d="M20150 79600
L20150 79200
" />
<path d="M20150 79200
L20750 79200
" />
<path d="M20750 79200
L20750 79600
" />
<path d="M20750 80000
L20750 80400
" />
<path d="M20750 80400
L20150 80400
" />
<path d="M20150 80400
L20150 80000
" />
<circle cx="19900" cy="74350" r="50" /> 
<path d="M19900 73900
L19900 74300
" />
<path d="M19900 74300
L19300 74300
" />
<path d="M19300 74300
L19300 73900
" />
<path d="M19300 73500
L19300 73100
" />
<path d="M19300 73100
L19900 73100
" />
<path d="M19900 73100
L19900 73500
" />
<circle cx="19275" cy="79150" r="50" /> 
<path d="M19275 79600
L19275 79200
" />
<path d="M19275 79200
L19875 79200
" />
<path d="M19875 79200
L19875 79600
" />
<path d="M19875 80000
L19875 80400
" />
<path d="M19875 80400
L19275 80400
" />
<path d="M19275 80400
L19275 80000
" />
</g>
<g style="fill:#00A0A0; fill-opacity:0.0; 
stroke:#00A0A0; stroke-width:150; stroke-opacity:1; 
stroke-linecap:round; stroke-linejoin:round;">
<path d="M31540 75013
L30143 75013
" />
<path d="M31540 74324
L31540 75013
" />
<path d="M31540 71726
L31540 71037
" />
<path d="M31540 71037
L30123 71037
" />
<path d="M30989 73025
L30103 73045
" />
<path d="M30989 73025
L30595 73399
" />
<path d="M30989 73045
L30615 72651
" />
<path d="M30989 71726
L32052 71726
" />
<path d="M32052 71726
L32052 74324
" />
<path d="M32052 74324
L30989 74324
" />
<path d="M30989 74324
L30989 71726
" />
<path d="M13460 70987
L14857 70987
" />
<path d="M13460 71676
L13460 70987
" />
<path d="M13460 74274
L13460 74963
" />
<path d="M13460 74963
L14877 74963
" />
<path d="M14011 72975
L14897 72955
" />
<path d="M14011 72975
L14405 72601
" />
<path d="M14011 72955
L14385 73349
" />
<path d="M14011 74274
L12948 74274
" />
<path d="M12948 74274
L12948 71676
" />
<path d="M12948 71676
L14011 71676
" />
<path d="M14011 71676
L14011 74274
" />
<path d="M13460 76712
L14857 76712
" />
<path d="M13460 77401
L13460 76712
" />
<path d="M13460 79999
L13460 80688
" />
<path d="M13460 80688
L14877 80688
" />
<path d="M14011 78700
L14897 78680
" />
<path d="M14011 78700
L14405 78326
" />
<path d="M14011 78680
L14385 79074
" />
<path d="M14011 79999
L12948 79999
" />
<path d="M12948 79999
L12948 77401
" />
<path d="M12948 77401
L14011 77401
" />
<path d="M14011 77401
L14011 79999
" />
<path d="M31565 80813
L30168 80813
" />
<path d="M31565 80124
L31565 80813
" />
<path d="M31565 77526
L31565 76837
" />
<path d="M31565 76837
L30148 76837
" />
<path d="M31014 78825
L30128 78845
" />
<path d="M31014 78825
L30620 79199
" />
<path d="M31014 78845
L30640 78451
" />
<path d="M31014 77526
L32077 77526
" />
<path d="M32077 77526
L32077 80124
" />
<path d="M32077 80124
L31014 80124
" />
<path d="M31014 80124
L31014 77526
" />
</g>
<g style="fill:#00A0A0; fill-opacity:0.0; 
stroke:#00A0A0; stroke-width:120; stroke-opacity:1; 
stroke-linecap:round; stroke-linejoin:round;">
<path d="M34250 92500
L14250 92500
" />
<path d="M34250 90500
L14250 90500
" />
<path d="M34250 90500
L34250 92500
" />
<path d="M14250 90500
L14250 92500
" />
</g>
<g style="fill:#808000; fill-opacity:0.0; 
stroke:#808000; stroke-width:39.3701; stroke-opacity:1; 
stroke-linecap:round; stroke-linejoin:round;">
</g>
<g style="fill:#808000; fill-opacity:1.0; 
stroke:#808000; stroke-width:39.3701; stroke-opacity:1; 
stroke-linecap:round; stroke-linejoin:round;">
<circle cx="30425" cy="53750" r="984.252" /> 
<circle cx="30425" cy="56746.1" r="984.252" /> 
<circle cx="26400" cy="57750" r="984.252" /> 
<circle cx="26400" cy="53750" r="984.252" /> 
<circle cx="29200" cy="59900" r="984.252" /> 
<circle cx="29200" cy="63900" r="984.252" /> 
<circle cx="25450" cy="69575" r="255.315" /> 
<circle cx="25450" cy="68575" r="255.315" /> 
<circle cx="26450" cy="69575" r="255.315" /> 
<circle cx="26450" cy="68575" r="255.315" /> 
<circle cx="26450" cy="67575" r="255.315" /> 
<circle cx="25450" cy="67575" r="255.315" /> 
<circle cx="21025" cy="69575" r="255.315" /> 
<circle cx="21025" cy="68575" r="255.315" /> 
<circle cx="22025" cy="69575" r="255.315" /> 
<circle cx="22025" cy="68575" r="255.315" /> 
<circle cx="22025" cy="67575" r="255.315" /> 
<circle cx="21025" cy="67575" r="255.315" /> 
<circle cx="18750" cy="69575" r="255.315" /> 
<circle cx="18750" cy="68575" r="255.315" /> 
<circle cx="19750" cy="69575" r="255.315" /> 
<circle cx="19750" cy="68575" r="255.315" /> 
<circle cx="19750" cy="67575" r="255.315" /> 
<circle cx="18750" cy="67575" r="255.315" /> 
<circle cx="23250" cy="69575" r="255.315" /> 
<circle cx="23250" cy="68575" r="255.315" /> 
<circle cx="24250" cy="69575" r="255.315" /> 
<circle cx="24250" cy="68575" r="255.315" /> 
<circle cx="24250" cy="67575" r="255.315" /> 
<circle cx="23250" cy="67575" r="255.315" /> 
<circle cx="26450" cy="63900" r="984.252" /> 
<circle cx="26450" cy="60903.9" r="984.252" /> 
<circle cx="38450" cy="43075" r="984.252" /> 
<circle cx="41446.1" cy="43075" r="984.252" /> 
<circle cx="34350" cy="59850" r="984.252" /> 
<circle cx="34350" cy="56853.9" r="984.252" /> 
<circle cx="29375" cy="73025" r="472.315" /> 
<circle cx="29375" cy="74994" r="472.315" /> 
<circle cx="29375" cy="71056" r="472.315" /> 
<circle cx="15625" cy="72975" r="472.315" /> 
<circle cx="15625" cy="71006" r="472.315" /> 
<circle cx="15625" cy="74944" r="472.315" /> 
<circle cx="15625" cy="78700" r="472.315" /> 
<circle cx="15625" cy="76731" r="472.315" /> 
<circle cx="15625" cy="80669" r="472.315" /> 
<circle cx="29400" cy="78825" r="472.315" /> 
<circle cx="29400" cy="80794" r="472.315" /> 
<circle cx="29400" cy="76856" r="472.315" /> 
<polyline style="fill-rule:evenodd;"
points="14469,92280
14469,91719
15030,91719
15030,92280
14469,92280
" /> 
<circle cx="14750" cy="91000" r="280.315" /> 
<circle cx="19750" cy="92000" r="280.315" /> 
<circle cx="15750" cy="91000" r="280.315" /> 
<circle cx="20750" cy="92000" r="280.315" /> 
<circle cx="16750" cy="91000" r="280.315" /> 
<circle cx="21750" cy="92000" r="280.315" /> 
<circle cx="17750" cy="91000" r="280.315" /> 
<circle cx="22750" cy="92000" r="280.315" /> 
<circle cx="18750" cy="91000" r="280.315" /> 
<circle cx="23750" cy="92000" r="280.315" /> 
<circle cx="19750" cy="91000" r="280.315" /> 
<circle cx="24750" cy="92000" r="280.315" /> 
<circle cx="20750" cy="91000" r="280.315" /> 
<circle cx="25750" cy="92000" r="280.315" /> 
<circle cx="21750" cy="91000" r="280.315" /> 
<circle cx="26750" cy="92000" r="280.315" /> 
<circle cx="22750" cy="91000" r="280.315" /> 
<circle cx="27750" cy="92000" r="280.315" /> 
<circle cx="23750" cy="91000" r="280.315" /> 
<circle cx="28750" cy="92000" r="280.315" /> 
<circle cx="24750" cy="91000" r="280.315" /> 
<circle cx="29750" cy="92000" r="280.315" /> 
<circle cx="25750" cy="91000" r="280.315" /> 
<circle cx="26750" cy="91000" r="280.315" /> 
<circle cx="30750" cy="92000" r="280.315" /> 
<circle cx="27750" cy="91000" r="280.315" /> 
<circle cx="29750" cy="91000" r="280.315" /> 
<circle cx="30750" cy="91000" r="280.315" /> 
<circle cx="31750" cy="91000" r="280.315" /> 
<circle cx="32750" cy="91000" r="280.315" /> 
<circle cx="31750" cy="92000" r="280.315" /> 
<circle cx="32750" cy="92000" r="280.315" /> 
<circle cx="15750" cy="92000" r="280.315" /> 
<circle cx="16750" cy="92000" r="280.315" /> 
<circle cx="17750" cy="92000" r="280.315" /> 
<circle cx="18750" cy="92000" r="280.315" /> 
<circle cx="33750" cy="92000" r="280.315" /> 
<circle cx="33750" cy="91000" r="280.315" /> 
<circle cx="28750" cy="91000" r="280.315" /> 
</g> 
</svg>
