<?xml version="1.0" standalone="no"?>
 <!DOCTYPE svg PUBLIC "-//W3C//DTD SVG 1.1//EN" 
 "http://www.w3.org/Graphics/SVG/1.1/DTD/svg11.dtd"> 
<svg xmlns="http://www.w3.org/2000/svg" version="1.1" 
    width="41.9989cm" height="29.7002cm" viewBox="0 0 165350 116930 ">
<title>SVG Picture created as ToneControls-B_Cu.svg date 2015/11/21 00:57:53 </title>
  <desc>Picture generated by PCBNEW </desc>
<g style="fill:#000000; fill-opacity:1;stroke:#000000; stroke-opacity:1;
stroke-linecap:round; stroke-linejoin:round; "
 transform="translate(0 0) scale(1 1)">
</g>
<g style="fill:#000000; fill-opacity:0.0; 
stroke:#000000; stroke-width:39.3701; stroke-opacity:1; 
stroke-linecap:round; stroke-linejoin:round;">
<path d="M4000 4000
L161350 4000
L161350 112930
L4000 112930
L4000 4000
" />
<path d="M4700 4700
L160650 4700
L160650 112230
L4700 112230
L4700 4700
" />
<path d="M26470 4000
L26470 4700
" />
<path d="M15382 4552
L15097 4552
" />
<path d="M15240 4552
L15240 4052
L15192 4123
L15144 4171
L15097 4195
" />
<path d="M26470 112930
L26470 112230
" />
<path d="M15382 112782
L15097 112782
" />
<path d="M15240 112782
L15240 112282
L15192 112353
L15144 112401
L15097 112425
" />
<path d="M48940 4000
L48940 4700
" />
<path d="M37567 4100
L37590 4076
L37638 4052
L37757 4052
L37805 4076
L37829 4100
L37852 4147
L37852 4195
L37829 4266
L37543 4552
L37852 4552
" />
<path d="M48940 112930
L48940 112230
" />
<path d="M37567 112330
L37590 112306
L37638 112282
L37757 112282
L37805 112306
L37829 112330
L37852 112377
L37852 112425
L37829 112496
L37543 112782
L37852 112782
" />
<path d="M71410 4000
L71410 4700
" />
<path d="M60013 4052
L60322 4052
L60156 4242
L60227 4242
L60275 4266
L60299 4290
L60322 4338
L60322 4457
L60299 4504
L60275 4528
L60227 4552
L60084 4552
L60037 4528
L60013 4504
" />
<path d="M71410 112930
L71410 112230
" />
<path d="M60013 112282
L60322 112282
L60156 112472
L60227 112472
L60275 112496
L60299 112520
L60322 112568
L60322 112687
L60299 112734
L60275 112758
L60227 112782
L60084 112782
L60037 112758
L60013 112734
" />
<path d="M93880 4000
L93880 4700
" />
<path d="M82745 4219
L82745 4552
" />
<path d="M82626 4028
L82507 4385
L82816 4385
" />
<path d="M93880 112930
L93880 112230
" />
<path d="M82745 112449
L82745 112782
" />
<path d="M82626 112258
L82507 112615
L82816 112615
" />
<path d="M116350 4000
L116350 4700
" />
<path d="M105239 4052
L105000 4052
L104977 4290
L105000 4266
L105048 4242
L105167 4242
L105215 4266
L105239 4290
L105262 4338
L105262 4457
L105239 4504
L105215 4528
L105167 4552
L105048 4552
L105000 4528
L104977 4504
" />
<path d="M116350 112930
L116350 112230
" />
<path d="M105239 112282
L105000 112282
L104977 112520
L105000 112496
L105048 112472
L105167 112472
L105215 112496
L105239 112520
L105262 112568
L105262 112687
L105239 112734
L105215 112758
L105167 112782
L105048 112782
L105000 112758
L104977 112734
" />
<path d="M138820 4000
L138820 4700
" />
<path d="M127685 4052
L127590 4052
L127542 4076
L127518 4100
L127470 4171
L127447 4266
L127447 4457
L127470 4504
L127494 4528
L127542 4552
L127637 4552
L127685 4528
L127709 4504
L127732 4457
L127732 4338
L127709 4290
L127685 4266
L127637 4242
L127542 4242
L127494 4266
L127470 4290
L127447 4338
" />
<path d="M138820 112930
L138820 112230
" />
<path d="M127685 112282
L127590 112282
L127542 112306
L127518 112330
L127470 112401
L127447 112496
L127447 112687
L127470 112734
L127494 112758
L127542 112782
L127637 112782
L127685 112758
L127709 112734
L127732 112687
L127732 112568
L127709 112520
L127685 112496
L127637 112472
L127542 112472
L127494 112496
L127470 112520
L127447 112568
" />
<path d="M149893 4052
L150226 4052
L150012 4552
" />
<path d="M149893 112282
L150226 112282
L150012 112782
" />
<path d="M4000 25780
L4700 25780
" />
<path d="M4230 14949
L4469 14949
" />
<path d="M4183 15092
L4350 14592
L4516 15092
" />
<path d="M161350 25780
L160650 25780
" />
<path d="M160880 14949
L161119 14949
" />
<path d="M160833 15092
L161000 14592
L161166 15092
" />
<path d="M4000 47560
L4700 47560
" />
<path d="M4385 36610
L4457 36634
L4480 36658
L4504 36705
L4504 36777
L4480 36824
L4457 36848
L4409 36872
L4219 36872
L4219 36372
L4385 36372
L4433 36396
L4457 36420
L4480 36467
L4480 36515
L4457 36562
L4433 36586
L4385 36610
L4219 36610
" />
<path d="M161350 47560
L160650 47560
" />
<path d="M161035 36610
L161107 36634
L161130 36658
L161154 36705
L161154 36777
L161130 36824
L161107 36848
L161059 36872
L160869 36872
L160869 36372
L161035 36372
L161083 36396
L161107 36420
L161130 36467
L161130 36515
L161107 36562
L161083 36586
L161035 36610
L160869 36610
" />
<path d="M4000 69340
L4700 69340
" />
<path d="M4504 58604
L4480 58628
L4409 58652
L4361 58652
L4290 58628
L4242 58580
L4219 58533
L4195 58438
L4195 58366
L4219 58271
L4242 58223
L4290 58176
L4361 58152
L4409 58152
L4480 58176
L4504 58200
" />
<path d="M161350 69340
L160650 69340
" />
<path d="M161154 58604
L161130 58628
L161059 58652
L161011 58652
L160940 58628
L160892 58580
L160869 58533
L160845 58438
L160845 58366
L160869 58271
L160892 58223
L160940 58176
L161011 58152
L161059 58152
L161130 58176
L161154 58200
" />
<path d="M4000 91120
L4700 91120
" />
<path d="M4219 80432
L4219 79932
L4338 79932
L4409 79956
L4457 80003
L4480 80051
L4504 80146
L4504 80218
L4480 80313
L4457 80360
L4409 80408
L4338 80432
L4219 80432
" />
<path d="M161350 91120
L160650 91120
" />
<path d="M160869 80432
L160869 79932
L160988 79932
L161059 79956
L161107 80003
L161130 80051
L161154 80146
L161154 80218
L161130 80313
L161107 80360
L161059 80408
L160988 80432
L160869 80432
" />
<path d="M4242 101950
L4409 101950
" />
<path d="M4480 102212
L4242 102212
L4242 101712
L4480 101712
" />
<path d="M160892 101950
L161059 101950
" />
<path d="M161130 102212
L160892 102212
L160892 101712
L161130 101712
" />
<path d="M127800 110672
L127875 110072
L128017 110072
L128100 110101
L128150 110158
L128171 110215
L128185 110330
L128175 110415
L128132 110530
L128096 110587
L128032 110644
L127942 110672
L127800 110672
" />
<path d="M128657 110672
L128696 110358
L128675 110301
L128621 110272
L128507 110272
L128446 110301
" />
<path d="M128660 110644
L128600 110672
L128457 110672
L128403 110644
L128382 110587
L128389 110530
L128425 110472
L128485 110444
L128628 110444
L128689 110415
" />
<path d="M128907 110272
L129135 110272
" />
<path d="M129017 110072
L128953 110587
L128975 110644
L129028 110672
L129085 110672
" />
<path d="M129517 110644
L129457 110672
L129342 110672
L129289 110644
L129267 110587
L129296 110358
L129332 110301
L129392 110272
L129507 110272
L129560 110301
L129582 110358
L129575 110415
L129282 110472
" />
<path d="M129807 110615
L129832 110644
L129800 110672
L129775 110644
L129807 110615
L129800 110672
" />
<path d="M129846 110301
L129871 110330
L129839 110358
L129814 110330
L129846 110301
L129839 110358
" />
<path d="M130582 110130
L130614 110101
L130675 110072
L130817 110072
L130871 110101
L130896 110130
L130917 110187
L130910 110244
L130871 110330
L130485 110672
L130857 110672
" />
<path d="M131303 110072
L131360 110072
L131414 110101
L131439 110130
L131460 110187
L131475 110301
L131457 110444
L131414 110558
L131378 110615
L131346 110644
L131285 110672
L131228 110672
L131175 110644
L131150 110615
L131128 110558
L131114 110444
L131132 110301
L131175 110187
L131210 110130
L131242 110101
L131303 110072
" />
<path d="M132192 110272
L132142 110672
" />
<path d="M132185 110330
L132217 110301
L132278 110272
L132364 110272
L132417 110301
L132439 110358
L132400 110672
" />
<path d="M132771 110672
L132717 110644
L132692 110615
L132671 110558
L132692 110387
L132728 110330
L132760 110301
L132821 110272
L132907 110272
L132960 110301
L132985 110330
L133007 110387
L132985 110558
L132950 110615
L132917 110644
L132857 110672
L132771 110672
" />
<path d="M133221 110272
L133314 110672
L133507 110272
" />
<path d="M134182 110130
L134214 110101
L134275 110072
L134417 110072
L134471 110101
L134496 110130
L134517 110187
L134510 110244
L134471 110330
L134085 110672
L134457 110672
" />
<path d="M134903 110072
L134960 110072
L135014 110101
L135039 110130
L135060 110187
L135075 110301
L135057 110444
L135014 110558
L134978 110615
L134946 110644
L134885 110672
L134828 110672
L134775 110644
L134750 110615
L134728 110558
L134714 110444
L134732 110301
L134775 110187
L134810 110130
L134842 110101
L134903 110072
" />
<path d="M135600 110672
L135257 110672
" />
<path d="M135428 110672
L135503 110072
L135435 110158
L135371 110215
L135310 110244
" />
<path d="M136217 110072
L135932 110072
L135867 110358
L135900 110330
L135960 110301
L136103 110301
L136157 110330
L136182 110358
L136203 110415
L136185 110558
L136150 110615
L136117 110644
L136057 110672
L135914 110672
L135860 110644
L135835 110615
" />
<path d="M119392 111872
L119392 111272
" />
<path d="M119735 111872
L119478 111530
" />
<path d="M119735 111272
L119392 111615
" />
<path d="M119992 111872
L119992 111472
" />
<path d="M119992 111272
L119964 111301
L119992 111330
L120021 111301
L119992 111272
L119992 111330
" />
<path d="M120621 111815
L120592 111844
L120507 111872
L120450 111872
L120364 111844
L120307 111787
L120278 111730
L120250 111615
L120250 111530
L120278 111415
L120307 111358
L120364 111301
L120450 111272
L120507 111272
L120592 111301
L120621 111330
" />
<path d="M121135 111872
L121135 111558
L121107 111501
L121050 111472
L120935 111472
L120878 111501
" />
<path d="M121135 111844
L121078 111872
L120935 111872
L120878 111844
L120850 111787
L120850 111730
L120878 111672
L120935 111644
L121078 111644
L121135 111615
" />
<path d="M121678 111872
L121678 111272
" />
<path d="M121678 111844
L121621 111872
L121507 111872
L121450 111844
L121421 111815
L121392 111758
L121392 111587
L121421 111530
L121450 111501
L121507 111472
L121621 111472
L121678 111501
" />
<path d="M122421 111558
L122621 111558
" />
<path d="M122707 111872
L122421 111872
L122421 111272
L122707 111272
" />
<path d="M122964 111815
L122992 111844
L122964 111872
L122935 111844
L122964 111815
L122964 111872
" />
<path d="M123249 111872
L123249 111272
L123392 111272
L123478 111301
L123535 111358
L123564 111415
L123592 111530
L123592 111615
L123564 111730
L123535 111787
L123478 111844
L123392 111872
L123249 111872
" />
<path d="M123849 111815
L123878 111844
L123849 111872
L123821 111844
L123849 111815
L123849 111872
" />
<path d="M124107 111701
L124392 111701
" />
<path d="M124049 111872
L124249 111272
L124449 111872
" />
<path d="M124649 111815
L124678 111844
L124649 111872
L124621 111844
L124649 111815
L124649 111872
" />
<path d="M152942 110672
L152778 110387
" />
<path d="M152600 110672
L152675 110072
L152903 110072
L152957 110101
L152982 110130
L153003 110187
L152992 110272
L152957 110330
L152925 110358
L152864 110387
L152635 110387
" />
<path d="M153432 110644
L153371 110672
L153257 110672
L153203 110644
L153182 110587
L153210 110358
L153246 110301
L153307 110272
L153421 110272
L153475 110301
L153496 110358
L153489 110415
L153196 110472
" />
<path d="M153707 110272
L153800 110672
L153992 110272
" />
<path d="M154178 110615
L154203 110644
L154171 110672
L154146 110644
L154178 110615
L154171 110672
" />
<path d="M154217 110301
L154242 110330
L154210 110358
L154185 110330
L154217 110301
L154210 110358
" />
<path d="M119364 110644
L119450 110672
L119592 110672
L119650 110644
L119678 110615
L119707 110558
L119707 110501
L119678 110444
L119650 110415
L119592 110387
L119478 110358
L119421 110330
L119392 110301
L119364 110244
L119364 110187
L119392 110130
L119421 110101
L119478 110072
L119621 110072
L119707 110101
" />
<path d="M119964 110672
L119964 110272
" />
<path d="M119964 110072
L119935 110101
L119964 110130
L119992 110101
L119964 110072
L119964 110130
" />
<path d="M120192 110272
L120507 110272
L120192 110672
L120507 110672
" />
<path d="M120964 110644
L120907 110672
L120792 110672
L120735 110644
L120707 110587
L120707 110358
L120735 110301
L120792 110272
L120907 110272
L120964 110301
L120992 110358
L120992 110415
L120707 110472
" />
<path d="M121250 110615
L121278 110644
L121250 110672
L121221 110644
L121250 110615
L121250 110672
" />
<path d="M121250 110301
L121278 110330
L121250 110358
L121221 110330
L121250 110301
L121250 110358
" />
<path d="M121964 110501
L122250 110501
" />
<path d="M121907 110672
L122107 110072
L122307 110672
" />
<path d="M122450 110072
L122821 110072
L122621 110301
L122707 110301
L122764 110330
L122792 110358
L122821 110415
L122821 110558
L122792 110615
L122764 110644
L122707 110672
L122535 110672
L122478 110644
L122450 110615
" />
<path d="M152592 111872
L152592 111272
" />
<path d="M153135 111872
L153135 111272
" />
<path d="M153135 111844
L153078 111872
L152964 111872
L152907 111844
L152878 111815
L152850 111758
L152850 111587
L152878 111530
L152907 111501
L152964 111472
L153078 111472
L153135 111501
" />
<path d="M153421 111815
L153450 111844
L153421 111872
L153392 111844
L153421 111815
L153421 111872
" />
<path d="M153421 111501
L153450 111530
L153421 111558
L153392 111530
L153421 111501
L153421 111558
" />
<path d="M154478 111872
L154135 111872
" />
<path d="M154307 111872
L154307 111272
L154249 111358
L154192 111415
L154135 111444
" />
<path d="M155164 111244
L154650 112015
" />
<path d="M155678 111872
L155335 111872
" />
<path d="M155507 111872
L155507 111272
L155449 111358
L155392 111415
L155335 111444
" />
<path d="M119389 108872
L119732 108872
" />
<path d="M119485 109472
L119560 108872
" />
<path d="M119857 109472
L119907 109072
" />
<path d="M119932 108872
L119900 108901
L119925 108930
L119957 108901
L119932 108872
L119925 108930
" />
<path d="M120107 109072
L120335 109072
" />
<path d="M120217 108872
L120153 109387
L120175 109444
L120228 109472
L120285 109472
" />
<path d="M120571 109472
L120517 109444
L120496 109387
L120560 108872
" />
<path d="M121032 109444
L120971 109472
L120857 109472
L120803 109444
L120782 109387
L120810 109158
L120846 109101
L120907 109072
L121021 109072
L121075 109101
L121096 109158
L121089 109215
L120796 109272
" />
<path d="M121321 109415
L121346 109444
L121314 109472
L121289 109444
L121321 109415
L121314 109472
" />
<path d="M121360 109101
L121385 109130
L121353 109158
L121328 109130
L121360 109101
L121353 109158
" />
<path d="M119592 106758
L119392 106758
" />
<path d="M119392 107072
L119392 106472
L119678 106472
" />
<path d="M119907 107072
L119907 106672
" />
<path d="M119907 106472
L119878 106501
L119907 106530
L119935 106501
L119907 106472
L119907 106530
" />
<path d="M120278 107072
L120221 107044
L120192 106987
L120192 106472
" />
<path d="M120735 107044
L120678 107072
L120564 107072
L120507 107044
L120478 106987
L120478 106758
L120507 106701
L120564 106672
L120678 106672
L120735 106701
L120764 106758
L120764 106815
L120478 106872
" />
<path d="M121021 107015
L121050 107044
L121021 107072
L120992 107044
L121021 107015
L121021 107072
" />
<path d="M121021 106701
L121050 106730
L121021 106758
L120992 106730
L121021 106701
L121021 106758
" />
<path d="M121678 106472
L122021 106472
" />
<path d="M121850 107072
L121850 106472
" />
<path d="M122307 107072
L122250 107044
L122221 107015
L122192 106958
L122192 106787
L122221 106730
L122250 106701
L122307 106672
L122392 106672
L122450 106701
L122478 106730
L122507 106787
L122507 106958
L122478 107015
L122450 107044
L122392 107072
L122307 107072
" />
<path d="M122764 106672
L122764 107072
" />
<path d="M122764 106730
L122792 106701
L122850 106672
L122935 106672
L122992 106701
L123021 106758
L123021 107072
" />
<path d="M123535 107044
L123478 107072
L123364 107072
L123307 107044
L123278 106987
L123278 106758
L123307 106701
L123364 106672
L123478 106672
L123535 106701
L123564 106758
L123564 106815
L123278 106872
" />
<path d="M124164 107015
L124135 107044
L124050 107072
L123992 107072
L123907 107044
L123850 106987
L123821 106930
L123792 106815
L123792 106730
L123821 106615
L123850 106558
L123907 106501
L123992 106472
L124050 106472
L124135 106501
L124164 106530
" />
<path d="M124507 107072
L124450 107044
L124421 107015
L124392 106958
L124392 106787
L124421 106730
L124450 106701
L124507 106672
L124592 106672
L124650 106701
L124678 106730
L124707 106787
L124707 106958
L124678 107015
L124650 107044
L124592 107072
L124507 107072
" />
<path d="M124964 106672
L124964 107072
" />
<path d="M124964 106730
L124992 106701
L125050 106672
L125135 106672
L125192 106701
L125221 106758
L125221 107072
" />
<path d="M125421 106672
L125650 106672
" />
<path d="M125507 106472
L125507 106987
L125535 107044
L125592 107072
L125650 107072
" />
<path d="M125850 107072
L125850 106672
" />
<path d="M125850 106787
L125878 106730
L125907 106701
L125964 106672
L126021 106672
" />
<path d="M126307 107072
L126250 107044
L126221 107015
L126192 106958
L126192 106787
L126221 106730
L126250 106701
L126307 106672
L126392 106672
L126450 106701
L126478 106730
L126507 106787
L126507 106958
L126478 107015
L126450 107044
L126392 107072
L126307 107072
" />
<path d="M126850 107072
L126792 107044
L126764 106987
L126764 106472
" />
<path d="M127050 107044
L127107 107072
L127221 107072
L127278 107044
L127307 106987
L127307 106958
L127278 106901
L127221 106872
L127135 106872
L127078 106844
L127050 106787
L127050 106758
L127078 106701
L127135 106672
L127221 106672
L127278 106701
" />
<path d="M127564 107015
L127592 107044
L127564 107072
L127535 107044
L127564 107015
L127564 107072
" />
<path d="M127850 107072
L127850 106472
" />
<path d="M127907 106844
L128078 107072
" />
<path d="M128078 106672
L127850 106901
" />
<path d="M128335 107072
L128335 106672
" />
<path d="M128335 106472
L128307 106501
L128335 106530
L128364 106501
L128335 106472
L128335 106530
" />
<path d="M128878 107044
L128821 107072
L128707 107072
L128650 107044
L128621 107015
L128592 106958
L128592 106787
L128621 106730
L128650 106701
L128707 106672
L128821 106672
L128878 106701
" />
<path d="M129392 107072
L129392 106758
L129364 106701
L129307 106672
L129192 106672
L129135 106701
" />
<path d="M129392 107044
L129335 107072
L129192 107072
L129135 107044
L129107 106987
L129107 106930
L129135 106872
L129192 106844
L129335 106844
L129392 106815
" />
<path d="M129935 107072
L129935 106472
" />
<path d="M129935 107044
L129878 107072
L129764 107072
L129707 107044
L129678 107015
L129650 106958
L129650 106787
L129678 106730
L129707 106701
L129764 106672
L129878 106672
L129935 106701
" />
<path d="M130078 107130
L130535 107130
" />
<path d="M130678 106672
L130678 107272
" />
<path d="M130678 106701
L130735 106672
L130850 106672
L130907 106701
L130935 106730
L130964 106787
L130964 106958
L130935 107015
L130907 107044
L130850 107072
L130735 107072
L130678 107044
" />
<path d="M131478 107044
L131421 107072
L131307 107072
L131250 107044
L131221 107015
L131192 106958
L131192 106787
L131221 106730
L131250 106701
L131307 106672
L131421 106672
L131478 106701
" />
<path d="M131735 107072
L131735 106472
" />
<path d="M131735 106701
L131792 106672
L131907 106672
L131964 106701
L131992 106730
L132021 106787
L132021 106958
L131992 107015
L131964 107044
L131907 107072
L131792 107072
L131735 107044
" />
<path d="M119364 108244
L119450 108272
L119592 108272
L119650 108244
L119678 108215
L119707 108158
L119707 108101
L119678 108044
L119650 108015
L119592 107987
L119478 107958
L119421 107930
L119392 107901
L119364 107844
L119364 107787
L119392 107730
L119421 107701
L119478 107672
L119621 107672
L119707 107701
" />
<path d="M119964 108272
L119964 107672
" />
<path d="M120221 108272
L120221 107958
L120192 107901
L120135 107872
L120050 107872
L119992 107901
L119964 107930
" />
<path d="M120735 108244
L120678 108272
L120564 108272
L120507 108244
L120478 108187
L120478 107958
L120507 107901
L120564 107872
L120678 107872
L120735 107901
L120764 107958
L120764 108015
L120478 108072
" />
<path d="M121250 108244
L121192 108272
L121078 108272
L121021 108244
L120992 108187
L120992 107958
L121021 107901
L121078 107872
L121192 107872
L121250 107901
L121278 107958
L121278 108015
L120992 108072
" />
<path d="M121450 107872
L121678 107872
" />
<path d="M121535 107672
L121535 108187
L121564 108244
L121621 108272
L121678 108272
" />
<path d="M121878 108215
L121907 108244
L121878 108272
L121850 108244
L121878 108215
L121878 108272
" />
<path d="M121878 107901
L121907 107930
L121878 107958
L121850 107930
L121878 107901
L121878 107958
" />
<path d="M118650 106230
L118650 112230
" />
<path d="M118650 106230
L160650 106230
" />
<path d="M118650 106230
L160650 106230
" />
<path d="M118650 108630
L160650 108630
" />
<path d="M151850 109830
L151850 112230
" />
<path d="M118650 111030
L160650 111030
" />
<path d="M118650 109830
L160650 109830
" />
<path d="M125250 109830
L125250 111030
" />
</g>
<g style="fill:#808000; fill-opacity:0.0; 
stroke:#808000; stroke-width:39.3701; stroke-opacity:1; 
stroke-linecap:round; stroke-linejoin:round;">
</g>
<g style="fill:#808000; fill-opacity:1.0; 
stroke:#808000; stroke-width:39.3701; stroke-opacity:1; 
stroke-linecap:round; stroke-linejoin:round;">
<circle cx="30425" cy="53750" r="984.252" /> 
<circle cx="30425" cy="56746.1" r="984.252" /> 
<circle cx="26400" cy="57750" r="984.252" /> 
<circle cx="26400" cy="53750" r="984.252" /> 
<circle cx="29200" cy="59900" r="984.252" /> 
<circle cx="29200" cy="63900" r="984.252" /> 
<circle cx="25450" cy="69575" r="255.315" /> 
<circle cx="25450" cy="68575" r="255.315" /> 
<circle cx="26450" cy="69575" r="255.315" /> 
<circle cx="26450" cy="68575" r="255.315" /> 
<circle cx="26450" cy="67575" r="255.315" /> 
<circle cx="25450" cy="67575" r="255.315" /> 
<circle cx="21025" cy="69575" r="255.315" /> 
<circle cx="21025" cy="68575" r="255.315" /> 
<circle cx="22025" cy="69575" r="255.315" /> 
<circle cx="22025" cy="68575" r="255.315" /> 
<circle cx="22025" cy="67575" r="255.315" /> 
<circle cx="21025" cy="67575" r="255.315" /> 
<circle cx="18750" cy="69575" r="255.315" /> 
<circle cx="18750" cy="68575" r="255.315" /> 
<circle cx="19750" cy="69575" r="255.315" /> 
<circle cx="19750" cy="68575" r="255.315" /> 
<circle cx="19750" cy="67575" r="255.315" /> 
<circle cx="18750" cy="67575" r="255.315" /> 
<circle cx="23250" cy="69575" r="255.315" /> 
<circle cx="23250" cy="68575" r="255.315" /> 
<circle cx="24250" cy="69575" r="255.315" /> 
<circle cx="24250" cy="68575" r="255.315" /> 
<circle cx="24250" cy="67575" r="255.315" /> 
<circle cx="23250" cy="67575" r="255.315" /> 
<circle cx="26450" cy="63900" r="984.252" /> 
<circle cx="26450" cy="60903.9" r="984.252" /> 
<circle cx="38450" cy="43075" r="984.252" /> 
<circle cx="41446.1" cy="43075" r="984.252" /> 
<circle cx="34350" cy="59850" r="984.252" /> 
<circle cx="34350" cy="56853.9" r="984.252" /> 
<circle cx="29375" cy="73025" r="472.315" /> 
<circle cx="29375" cy="74994" r="472.315" /> 
<circle cx="29375" cy="71056" r="472.315" /> 
<circle cx="15625" cy="72975" r="472.315" /> 
<circle cx="15625" cy="71006" r="472.315" /> 
<circle cx="15625" cy="74944" r="472.315" /> 
<circle cx="15625" cy="78700" r="472.315" /> 
<circle cx="15625" cy="76731" r="472.315" /> 
<circle cx="15625" cy="80669" r="472.315" /> 
<circle cx="29400" cy="78825" r="472.315" /> 
<circle cx="29400" cy="80794" r="472.315" /> 
<circle cx="29400" cy="76856" r="472.315" /> 
<polyline style="fill-rule:evenodd;"
points="14469,92280
14469,91719
15030,91719
15030,92280
14469,92280
" /> 
<circle cx="14750" cy="91000" r="280.315" /> 
<circle cx="19750" cy="92000" r="280.315" /> 
<circle cx="15750" cy="91000" r="280.315" /> 
<circle cx="20750" cy="92000" r="280.315" /> 
<circle cx="16750" cy="91000" r="280.315" /> 
<circle cx="21750" cy="92000" r="280.315" /> 
<circle cx="17750" cy="91000" r="280.315" /> 
<circle cx="22750" cy="92000" r="280.315" /> 
<circle cx="18750" cy="91000" r="280.315" /> 
<circle cx="23750" cy="92000" r="280.315" /> 
<circle cx="19750" cy="91000" r="280.315" /> 
<circle cx="24750" cy="92000" r="280.315" /> 
<circle cx="20750" cy="91000" r="280.315" /> 
<circle cx="25750" cy="92000" r="280.315" /> 
<circle cx="21750" cy="91000" r="280.315" /> 
<circle cx="26750" cy="92000" r="280.315" /> 
<circle cx="22750" cy="91000" r="280.315" /> 
<circle cx="27750" cy="92000" r="280.315" /> 
<circle cx="23750" cy="91000" r="280.315" /> 
<circle cx="28750" cy="92000" r="280.315" /> 
<circle cx="24750" cy="91000" r="280.315" /> 
<circle cx="29750" cy="92000" r="280.315" /> 
<circle cx="25750" cy="91000" r="280.315" /> 
<circle cx="26750" cy="91000" r="280.315" /> 
<circle cx="30750" cy="92000" r="280.315" /> 
<circle cx="27750" cy="91000" r="280.315" /> 
<circle cx="29750" cy="91000" r="280.315" /> 
<circle cx="30750" cy="91000" r="280.315" /> 
<circle cx="31750" cy="91000" r="280.315" /> 
<circle cx="32750" cy="91000" r="280.315" /> 
<circle cx="31750" cy="92000" r="280.315" /> 
<circle cx="32750" cy="92000" r="280.315" /> 
<circle cx="15750" cy="92000" r="280.315" /> 
<circle cx="16750" cy="92000" r="280.315" /> 
<circle cx="17750" cy="92000" r="280.315" /> 
<circle cx="18750" cy="92000" r="280.315" /> 
<circle cx="33750" cy="92000" r="280.315" /> 
<circle cx="33750" cy="91000" r="280.315" /> 
<circle cx="28750" cy="91000" r="280.315" /> 
</g>
<g style="fill:#C0C0C0; fill-opacity:1.0; 
stroke:#C0C0C0; stroke-width:39.3701; stroke-opacity:1; 
stroke-linecap:round; stroke-linejoin:round;">
<circle cx="31375" cy="76100" r="295.276" /> 
<circle cx="24150" cy="81425" r="295.276" /> 
<circle cx="17050" cy="81100" r="295.276" /> 
<circle cx="20275" cy="81100" r="295.276" /> 
<circle cx="22525" cy="81100" r="295.276" /> 
<circle cx="25950" cy="73950" r="295.276" /> 
<circle cx="25875" cy="79525" r="295.276" /> 
<circle cx="18500" cy="79300" r="295.276" /> 
<circle cx="18475" cy="74100" r="295.276" /> 
<circle cx="19675" cy="76400" r="295.276" /> 
<circle cx="26475" cy="76975" r="295.276" /> 
<circle cx="20175" cy="70750" r="295.276" /> 
<circle cx="18500" cy="75300" r="295.276" /> 
<circle cx="26525" cy="70700" r="295.276" /> 
<circle cx="17600" cy="68600" r="295.276" /> 
<circle cx="24150" cy="70600" r="295.276" /> 
<circle cx="26225" cy="78475" r="295.276" /> 
<circle cx="18650" cy="77750" r="295.276" /> 
<circle cx="25975" cy="75600" r="295.276" /> 
<circle cx="18300" cy="70675" r="295.276" /> 
<circle cx="21025" cy="70700" r="295.276" /> 
<circle cx="25450" cy="70925" r="295.276" /> 
<circle cx="23300" cy="70625" r="295.276" /> 
</g>
<g style="fill:#00A000; fill-opacity:1.0; 
stroke:#00A000; stroke-width:147.638; stroke-opacity:1; 
stroke-linecap:round; stroke-linejoin:round;">
<path d="M22525 81100
L23825 81100
" />
<path d="M23825 81100
L24150 81425
" />
<path d="M31375 76100
L31362 76112
" />
<path d="M31362 76112
L30619 76856
" />
<path d="M16619 80669
L15625 80669
" />
<path d="M17050 81100
L16619 80669
" />
<path d="M22525 81100
L20275 81100
" />
<path d="M29375 71056
L30856 71056
" />
<path d="M30856 71056
L31375 71575
" />
<path d="M31375 71575
L31375 76100
" />
<path d="M30619 76856
L29400 76856
" />
<path d="M31375 76100
L30619 76856
" />
<path d="M15625 74944
L14081 74944
" />
<path d="M14081 74944
L13625 75400
" />
<path d="M13625 75400
L13625 79625
" />
<path d="M13625 79625
L14669 80669
" />
<path d="M14669 80669
L15625 80669
" />
<path d="M26450 69575
L26450 68575
" />
<path d="M19750 69575
L19750 68575
" />
<path d="M22025 69575
L22025 68575
" />
<path d="M24250 69575
L24250 68575
" />
<path d="M20400 69200
L21025 68575
" />
<path d="M20400 69975
L20400 69200
" />
<path d="M20150 70225
L20400 69975
" />
<path d="M20150 70725
L20150 70225
" />
<path d="M20175 70750
L20150 70725
" />
<path d="M16175 72975
L15625 72975
" />
<path d="M18500 75300
L16175 72975
" />
<path d="M26300 70450
L26300 70475
" />
</g>
<g style="fill:#00A000; fill-opacity:1.0; 
stroke:#00A000; stroke-width:100; stroke-opacity:1; 
stroke-linecap:round; stroke-linejoin:round;">
<path d="M25450 68725
L25950 69225
" />
<path d="M25950 69225
L25950 70100
" />
<path d="M25950 70100
L26300 70450
" />
<path d="M25450 68575
L25450 68725
" />
</g>
<g style="fill:#00A000; fill-opacity:1.0; 
stroke:#00A000; stroke-width:147.638; stroke-opacity:1; 
stroke-linecap:round; stroke-linejoin:round;">
<path d="M26300 70475
L26525 70700
" />
<path d="M26450 63900
L26450 67575
" />
</g>
<g style="fill:#00A000; fill-opacity:1.0; 
stroke:#00A000; stroke-width:100; stroke-opacity:1; 
stroke-linecap:round; stroke-linejoin:round;">
<path d="M29200 63900
L26450 63900
" />
</g>
<g style="fill:#00A000; fill-opacity:1.0; 
stroke:#00A000; stroke-width:147.638; stroke-opacity:1; 
stroke-linecap:round; stroke-linejoin:round;">
<path d="M17625 68575
L18750 68575
" />
<path d="M17600 68600
L17625 68575
" />
<path d="M21025 67575
L19750 67575
" />
<path d="M25450 67575
L24250 67575
" />
<path d="M23750 70200
L24150 70600
" />
</g>
<g style="fill:#00A000; fill-opacity:1.0; 
stroke:#00A000; stroke-width:100; stroke-opacity:1; 
stroke-linecap:round; stroke-linejoin:round;">
<path d="M23250 68575
L23250 68700
" />
<path d="M23750 69200
L23750 70150
" />
<path d="M23750 70150
L23750 70175
" />
<path d="M23250 68700
L23750 69200
" />
</g>
<g style="fill:#00A000; fill-opacity:1.0; 
stroke:#00A000; stroke-width:147.638; stroke-opacity:1; 
stroke-linecap:round; stroke-linejoin:round;">
<path d="M23750 70175
L23750 70200
" />
<path d="M23250 67575
L22025 67575
" />
<path d="M26575 78825
L29400 78825
" />
<path d="M26225 78475
L26575 78825
" />
<path d="M15625 78700
L17700 78700
" />
<path d="M17700 78700
L18650 77750
" />
<path d="M28550 73025
L29375 73025
" />
<path d="M25975 75600
L28550 73025
" />
<path d="M18750 69575
L18750 70225
" />
<path d="M18750 70225
L18300 70675
" />
<path d="M21025 70700
L21025 69575
" />
<path d="M25450 70925
L25450 69575
" />
<path d="M23250 70575
L23250 69575
" />
<path d="M23300 70625
L23250 70575
" />
</g>
<g style="fill:#00A000; fill-opacity:1.0; 
stroke:#00A000; stroke-width:39.3701; stroke-opacity:1; 
stroke-linecap:round; stroke-linejoin:round;">
<polyline style="fill-rule:evenodd;"
points="32550,83025
31940,83025
31940,75988
31854,75780
31698,75624
31698,71575
31674,71451
31603,71346
31084,70827
30979,70756
30856,70732
30044,70732
30004,70636
29795,70427
29523,70314
29228,70313
28955,70426
28746,70635
28633,70907
28632,71202
28745,71475
28954,71684
29226,71797
29521,71798
29794,71685
30003,71476
30043,71379
30721,71379
31051,71709
31051,75624
30896,75779
30810,75987
30809,76207
30809,76207
30484,76532
30120,76532
30120,75121
30117,74988
30117,72878
30004,72605
29795,72396
29523,72283
29228,72282
28955,72395
28746,72604
28706,72701
28550,72701
28426,72725
28391,72749
28321,72796
26081,75035
25863,75034
25655,75120
25496,75279
25410,75487
25409,75711
25495,75919
25654,76078
25862,76164
26086,76165
26294,76079
26453,75920
26539,75712
26540,75492
28684,73348
28705,73348
28745,73444
28954,73653
29226,73766
29521,73767
29794,73654
30003,73445
30116,73173
30117,72878
30117,74988
30112,74826
30015,74590
29899,74539
29829,74610
29829,74469
29778,74353
29502,74248
29207,74256
28971,74353
28920,74469
29375,74923
29829,74469
29829,74610
29445,74994
29899,75448
30015,75397
30120,75121
30120,76532
30069,76532
30029,76436
29829,76235
29829,75518
29375,75064
29304,75135
29304,74994
28850,74539
28734,74590
28629,74866
28637,75161
28734,75397
28850,75448
29304,74994
29304,75135
28920,75518
28971,75634
29247,75739
29542,75731
29778,75634
29829,75518
29829,76235
29820,76227
29548,76114
29253,76113
28980,76226
28771,76435
28658,76707
28657,77002
28770,77275
28979,77484
29251,77597
29546,77598
29819,77485
30028,77276
30068,77179
30619,77179
30742,77155
30847,77084
31268,76664
31268,76664
31486,76665
31694,76579
31853,76420
31939,76212
31940,75988
31940,83025
30145,83025
30145,80921
30142,80788
30142,78678
30029,78405
29820,78196
29548,78083
29253,78082
28980,78195
28771,78404
28731,78501
26789,78501
26790,78363
26704,78155
26545,77996
26337,77910
26113,77909
25905,77995
25746,78154
25660,78362
25659,78586
25745,78794
25904,78953
26112,79039
26332,79040
26346,79053
26346,79053
26416,79100
26451,79124
26451,79124
26574,79148
26575,79148
28730,79148
28770,79244
28979,79453
29251,79566
29546,79567
29819,79454
30028,79245
30141,78973
30142,78678
30142,80788
30137,80626
30040,80390
29924,80339
29854,80410
29854,80269
29803,80153
29527,80048
29232,80056
28996,80153
28945,80269
29400,80723
29854,80269
29854,80410
29470,80794
29924,81248
30040,81197
30145,80921
30145,83025
29854,83025
29854,81318
29400,80864
29329,80935
29329,80794
28875,80339
28759,80390
28654,80666
28662,80961
28759,81197
28875,81248
29329,80794
29329,80935
28945,81318
28996,81434
29272,81539
29567,81531
29803,81434
29854,81318
29854,83025
24779,83025
24779,69650
24768,69442
24710,69302
24617,69277
24320,69575
24617,69872
24710,69847
24779,69650
24779,83025
24715,83025
24715,81313
24629,81105
24470,80946
24262,80860
24038,80859
24037,80860
23948,80800
23825,80776
23000,80776
22845,80621
22637,80535
22554,80535
22554,69650
22543,69442
22485,69302
22392,69277
22322,69348
22322,69207
22297,69114
22194,69078
22297,69035
22322,68942
22025,68645
21727,68942
21752,69035
21855,69071
21752,69114
21727,69207
22025,69504
22322,69207
22322,69348
22095,69575
22392,69872
22485,69847
22554,69650
22554,80535
22413,80534
22322,80572
22322,69942
22025,69645
21727,69942
21752,70035
21949,70104
22157,70093
22297,70035
22322,69942
22322,80572
22205,80620
22049,80776
20750,80776
20595,80621
20387,80535
20163,80534
19955,80620
19796,80779
19710,80987
19709,81211
19795,81419
19954,81578
20162,81664
20386,81665
20594,81579
20750,81423
22049,81423
22204,81578
22412,81664
22636,81665
22844,81579
23000,81423
23585,81423
23584,81536
23670,81744
23829,81903
24037,81989
24261,81990
24469,81904
24628,81745
24714,81537
24715,81313
24715,83025
19215,83025
19215,77638
19129,77430
19065,77366
19065,75188
18979,74980
18820,74821
18612,74735
18392,74734
16403,72746
16370,72723
16370,71133
16362,70838
16265,70602
16149,70551
16079,70622
16079,70481
16028,70365
15752,70260
15457,70268
15221,70365
15170,70481
15625,70935
16079,70481
16079,70622
15695,71006
16149,71460
16265,71409
16370,71133
16370,72723
16306,72680
16254,72555
16079,72379
16079,71530
15625,71076
15554,71147
15554,71006
15100,70551
14984,70602
14879,70878
14887,71173
14984,71409
15100,71460
15554,71006
15554,71147
15170,71530
15221,71646
15497,71751
15792,71743
16028,71646
16079,71530
16079,72379
16045,72346
15773,72233
15478,72232
15205,72345
14996,72554
14883,72826
14882,73121
14995,73394
15204,73603
15476,73716
15771,73717
16044,73604
16195,73453
17935,75193
17934,75411
18020,75619
18179,75778
18387,75864
18611,75865
18819,75779
18978,75620
19064,75412
19065,75188
19065,77366
18970,77271
18762,77185
18538,77184
18330,77270
18171,77429
18085,77637
18084,77857
17565,78376
16370,78376
16370,76858
16362,76563
16265,76327
16149,76276
16079,76347
16079,76206
16028,76090
15752,75985
15457,75993
15221,76090
15170,76206
15625,76660
16079,76206
16079,76347
15695,76731
16149,77185
16265,77134
16370,76858
16370,78376
16294,78376
16254,78280
16079,78104
16079,77255
15625,76801
15554,76872
15554,76731
15100,76276
14984,76327
14879,76603
14887,76898
14984,77134
15100,77185
15554,76731
15554,76872
15170,77255
15221,77371
15497,77476
15792,77468
16028,77371
16079,77255
16079,78104
16045,78071
15773,77958
15478,77957
15205,78070
14996,78279
14883,78551
14882,78846
14995,79119
15204,79328
15476,79441
15771,79442
16044,79329
16253,79120
16293,79023
17700,79023
17823,78999
17928,78928
18543,78314
18761,78315
18969,78229
19128,78070
19214,77862
19215,77638
19215,83025
17615,83025
17615,80988
17529,80780
17370,80621
17162,80535
16942,80534
16847,80440
16742,80369
16619,80345
16294,80345
16254,80249
16045,80040
15773,79927
15478,79926
15205,80039
14996,80248
14956,80345
14803,80345
13948,79490
13948,75534
14215,75267
14955,75267
14995,75363
15204,75572
15476,75685
15771,75686
16044,75573
16253,75364
16366,75092
16367,74797
16254,74524
16045,74315
15773,74202
15478,74201
15205,74314
14996,74523
14956,74620
14081,74620
13957,74644
13922,74668
13852,74715
13396,75171
13325,75276
13301,75400
13301,79625
13325,79748
13396,79853
14440,80897
14440,80897
14510,80944
14545,80968
14545,80968
14668,80992
14669,80992
14955,80992
14995,81088
15204,81297
15476,81410
15771,81411
16044,81298
16253,81089
16293,80992
16484,80992
16485,80993
16484,81211
16570,81419
16729,81578
16937,81664
17161,81665
17369,81579
17528,81420
17614,81212
17615,80988
17615,83025
12400,83025
12400,68200
17201,68200
17121,68279
17035,68487
17034,68711
17120,68919
17279,69078
17487,69164
17711,69165
17919,69079
18078,68920
18087,68898
18331,68898
18452,69019
18585,69075
18453,69129
18305,69277
18225,69470
18224,69678
18304,69872
18426,69993
18426,70090
18406,70110
18188,70109
17980,70195
17821,70354
17735,70562
17734,70786
17820,70994
17979,71153
18187,71239
18411,71240
18619,71154
18778,70995
18864,70787
18865,70567
18978,70453
19049,70348
19073,70225
19073,70225
19073,69993
19194,69872
19247,69746
19289,69847
19382,69872
19679,69575
19382,69277
19289,69302
19250,69412
19195,69278
19047,69130
18914,69074
19047,69020
19194,68872
19247,68746
19289,68847
19382,68872
19679,68575
19673,68569
19744,68498
19750,68504
19755,68498
19826,68569
19820,68575
20117,68872
20210,68847
20279,68650
20268,68442
20210,68302
20117,68277
20163,68232
20130,68200
20657,68200
20580,68277
20500,68470
20499,68642
20279,68862
20171,68971
20100,69076
20081,69172
20047,69207
20022,69114
19919,69078
20022,69035
20047,68942
19750,68645
19452,68942
19477,69035
19580,69071
19477,69114
19452,69207
19750,69504
19755,69498
19826,69569
19820,69575
19826,69580
19755,69651
19750,69645
19452,69942
19477,70035
19674,70104
19854,70095
19850,70101
19826,70225
19826,70299
19696,70429
19610,70637
19609,70861
19695,71069
19854,71228
20062,71314
20286,71315
20494,71229
20625,71099
20704,71178
20912,71264
21136,71265
21344,71179
21503,71020
21589,70812
21590,70588
21504,70380
21348,70224
21348,69993
21469,69872
21522,69746
21564,69847
21657,69872
21954,69575
21657,69277
21564,69302
21525,69412
21470,69278
21322,69130
21189,69074
21322,69020
21469,68872
21522,68746
21564,68847
21657,68872
21954,68575
21948,68569
22019,68498
22025,68504
22030,68498
22101,68569
22095,68575
22392,68872
22485,68847
22554,68650
22543,68442
22485,68302
22392,68277
22438,68232
22405,68200
22882,68200
22805,68277
22725,68470
22724,68678
22804,68872
22952,69019
23085,69075
22953,69129
22805,69277
22725,69470
22724,69678
22804,69872
22926,69993
22926,70199
22821,70304
22735,70512
22734,70736
22820,70944
22979,71103
23187,71189
23411,71190
23619,71104
23737,70986
23829,71078
24037,71164
24261,71165
24469,71079
24628,70920
24714,70712
24715,70488
24629,70280
24470,70121
24393,70089
24522,70035
24547,69942
24250,69645
24244,69651
24173,69580
24179,69575
24173,69569
24244,69498
24250,69504
24547,69207
24522,69114
24419,69078
24522,69035
24547,68942
24250,68645
24244,68651
24173,68580
24179,68575
24173,68569
24244,68498
24250,68504
24255,68498
24326,68569
24320,68575
24617,68872
24710,68847
24779,68650
24768,68442
24710,68302
24617,68277
24663,68232
24630,68200
25082,68200
25005,68277
24925,68470
24924,68678
25004,68872
25152,69019
25285,69075
25153,69129
25005,69277
24925,69470
24924,69678
25004,69872
25126,69993
25126,70449
24971,70604
24885,70812
24884,71036
24970,71244
25129,71403
25337,71489
25561,71490
25769,71404
25928,71245
26014,71037
26014,70944
26045,71019
26204,71178
26412,71264
26636,71265
26844,71179
27003,71020
27089,70812
27090,70588
27004,70380
26979,70356
26979,69650
26968,69442
26910,69302
26817,69277
26520,69575
26817,69872
26910,69847
26979,69650
26979,70356
26845,70221
26637,70135
26413,70134
26410,70136
26378,70104
26582,70093
26722,70035
26747,69942
26450,69645
26444,69651
26373,69580
26379,69575
26373,69569
26444,69498
26450,69504
26747,69207
26722,69114
26619,69078
26722,69035
26747,68942
26450,68645
26444,68651
26373,68580
26379,68575
26373,68569
26444,68498
26450,68504
26455,68498
26526,68569
26520,68575
26817,68872
26910,68847
26979,68650
26968,68442
26910,68302
26817,68277
26863,68232
26830,68200
32550,68200
32550,83025
" /> 
</g>
<g style="fill:#00A000; fill-opacity:0.0; 
stroke:#00A000; stroke-width:100; stroke-opacity:1; 
stroke-linecap:round; stroke-linejoin:round;">
<polyline fill="none;"
points="32550,83025
31940,83025
31940,75988
31854,75780
31698,75624
31698,71575
31674,71451
31603,71346
31084,70827
30979,70756
30856,70732
30044,70732
30004,70636
29795,70427
29523,70314
29228,70313
28955,70426
28746,70635
28633,70907
28632,71202
28745,71475
28954,71684
29226,71797
29521,71798
29794,71685
30003,71476
30043,71379
30721,71379
31051,71709
31051,75624
30896,75779
30810,75987
30809,76207
30809,76207
30484,76532
30120,76532
30120,75121
30117,74988
30117,72878
30004,72605
29795,72396
29523,72283
29228,72282
28955,72395
28746,72604
28706,72701
28550,72701
28426,72725
28391,72749
28321,72796
26081,75035
25863,75034
25655,75120
25496,75279
25410,75487
25409,75711
25495,75919
25654,76078
25862,76164
26086,76165
26294,76079
26453,75920
26539,75712
26540,75492
28684,73348
28705,73348
28745,73444
28954,73653
29226,73766
29521,73767
29794,73654
30003,73445
30116,73173
30117,72878
30117,74988
30112,74826
30015,74590
29899,74539
29829,74610
29829,74469
29778,74353
29502,74248
29207,74256
28971,74353
28920,74469
29375,74923
29829,74469
29829,74610
29445,74994
29899,75448
30015,75397
30120,75121
30120,76532
30069,76532
30029,76436
29829,76235
29829,75518
29375,75064
29304,75135
29304,74994
28850,74539
28734,74590
28629,74866
28637,75161
28734,75397
28850,75448
29304,74994
29304,75135
28920,75518
28971,75634
29247,75739
29542,75731
29778,75634
29829,75518
29829,76235
29820,76227
29548,76114
29253,76113
28980,76226
28771,76435
28658,76707
28657,77002
28770,77275
28979,77484
29251,77597
29546,77598
29819,77485
30028,77276
30068,77179
30619,77179
30742,77155
30847,77084
31268,76664
31268,76664
31486,76665
31694,76579
31853,76420
31939,76212
31940,75988
31940,83025
30145,83025
30145,80921
30142,80788
30142,78678
30029,78405
29820,78196
29548,78083
29253,78082
28980,78195
28771,78404
28731,78501
26789,78501
26790,78363
26704,78155
26545,77996
26337,77910
26113,77909
25905,77995
25746,78154
25660,78362
25659,78586
25745,78794
25904,78953
26112,79039
26332,79040
26346,79053
26346,79053
26416,79100
26451,79124
26451,79124
26574,79148
26575,79148
28730,79148
28770,79244
28979,79453
29251,79566
29546,79567
29819,79454
30028,79245
30141,78973
30142,78678
30142,80788
30137,80626
30040,80390
29924,80339
29854,80410
29854,80269
29803,80153
29527,80048
29232,80056
28996,80153
28945,80269
29400,80723
29854,80269
29854,80410
29470,80794
29924,81248
30040,81197
30145,80921
30145,83025
29854,83025
29854,81318
29400,80864
29329,80935
29329,80794
28875,80339
28759,80390
28654,80666
28662,80961
28759,81197
28875,81248
29329,80794
29329,80935
28945,81318
28996,81434
29272,81539
29567,81531
29803,81434
29854,81318
29854,83025
24779,83025
24779,69650
24768,69442
24710,69302
24617,69277
24320,69575
24617,69872
24710,69847
24779,69650
24779,83025
24715,83025
24715,81313
24629,81105
24470,80946
24262,80860
24038,80859
24037,80860
23948,80800
23825,80776
23000,80776
22845,80621
22637,80535
22554,80535
22554,69650
22543,69442
22485,69302
22392,69277
22322,69348
22322,69207
22297,69114
22194,69078
22297,69035
22322,68942
22025,68645
21727,68942
21752,69035
21855,69071
21752,69114
21727,69207
22025,69504
22322,69207
22322,69348
22095,69575
22392,69872
22485,69847
22554,69650
22554,80535
22413,80534
22322,80572
22322,69942
22025,69645
21727,69942
21752,70035
21949,70104
22157,70093
22297,70035
22322,69942
22322,80572
22205,80620
22049,80776
20750,80776
20595,80621
20387,80535
20163,80534
19955,80620
19796,80779
19710,80987
19709,81211
19795,81419
19954,81578
20162,81664
20386,81665
20594,81579
20750,81423
22049,81423
22204,81578
22412,81664
22636,81665
22844,81579
23000,81423
23585,81423
23584,81536
23670,81744
23829,81903
24037,81989
24261,81990
24469,81904
24628,81745
24714,81537
24715,81313
24715,83025
19215,83025
19215,77638
19129,77430
19065,77366
19065,75188
18979,74980
18820,74821
18612,74735
18392,74734
16403,72746
16370,72723
16370,71133
16362,70838
16265,70602
16149,70551
16079,70622
16079,70481
16028,70365
15752,70260
15457,70268
15221,70365
15170,70481
15625,70935
16079,70481
16079,70622
15695,71006
16149,71460
16265,71409
16370,71133
16370,72723
16306,72680
16254,72555
16079,72379
16079,71530
15625,71076
15554,71147
15554,71006
15100,70551
14984,70602
14879,70878
14887,71173
14984,71409
15100,71460
15554,71006
15554,71147
15170,71530
15221,71646
15497,71751
15792,71743
16028,71646
16079,71530
16079,72379
16045,72346
15773,72233
15478,72232
15205,72345
14996,72554
14883,72826
14882,73121
14995,73394
15204,73603
15476,73716
15771,73717
16044,73604
16195,73453
17935,75193
17934,75411
18020,75619
18179,75778
18387,75864
18611,75865
18819,75779
18978,75620
19064,75412
19065,75188
19065,77366
18970,77271
18762,77185
18538,77184
18330,77270
18171,77429
18085,77637
18084,77857
17565,78376
16370,78376
16370,76858
16362,76563
16265,76327
16149,76276
16079,76347
16079,76206
16028,76090
15752,75985
15457,75993
15221,76090
15170,76206
15625,76660
16079,76206
16079,76347
15695,76731
16149,77185
16265,77134
16370,76858
16370,78376
16294,78376
16254,78280
16079,78104
16079,77255
15625,76801
15554,76872
15554,76731
15100,76276
14984,76327
14879,76603
14887,76898
14984,77134
15100,77185
15554,76731
15554,76872
15170,77255
15221,77371
15497,77476
15792,77468
16028,77371
16079,77255
16079,78104
16045,78071
15773,77958
15478,77957
15205,78070
14996,78279
14883,78551
14882,78846
14995,79119
15204,79328
15476,79441
15771,79442
16044,79329
16253,79120
16293,79023
17700,79023
17823,78999
17928,78928
18543,78314
18761,78315
18969,78229
19128,78070
19214,77862
19215,77638
19215,83025
17615,83025
17615,80988
17529,80780
17370,80621
17162,80535
16942,80534
16847,80440
16742,80369
16619,80345
16294,80345
16254,80249
16045,80040
15773,79927
15478,79926
15205,80039
14996,80248
14956,80345
14803,80345
13948,79490
13948,75534
14215,75267
14955,75267
14995,75363
15204,75572
15476,75685
15771,75686
16044,75573
16253,75364
16366,75092
16367,74797
16254,74524
16045,74315
15773,74202
15478,74201
15205,74314
14996,74523
14956,74620
14081,74620
13957,74644
13922,74668
13852,74715
13396,75171
13325,75276
13301,75400
13301,79625
13325,79748
13396,79853
14440,80897
14440,80897
14510,80944
14545,80968
14545,80968
14668,80992
14669,80992
14955,80992
14995,81088
15204,81297
15476,81410
15771,81411
16044,81298
16253,81089
16293,80992
16484,80992
16485,80993
16484,81211
16570,81419
16729,81578
16937,81664
17161,81665
17369,81579
17528,81420
17614,81212
17615,80988
17615,83025
12400,83025
12400,68200
17201,68200
17121,68279
17035,68487
17034,68711
17120,68919
17279,69078
17487,69164
17711,69165
17919,69079
18078,68920
18087,68898
18331,68898
18452,69019
18585,69075
18453,69129
18305,69277
18225,69470
18224,69678
18304,69872
18426,69993
18426,70090
18406,70110
18188,70109
17980,70195
17821,70354
17735,70562
17734,70786
17820,70994
17979,71153
18187,71239
18411,71240
18619,71154
18778,70995
18864,70787
18865,70567
18978,70453
19049,70348
19073,70225
19073,70225
19073,69993
19194,69872
19247,69746
19289,69847
19382,69872
19679,69575
19382,69277
19289,69302
19250,69412
19195,69278
19047,69130
18914,69074
19047,69020
19194,68872
19247,68746
19289,68847
19382,68872
19679,68575
19673,68569
19744,68498
19750,68504
19755,68498
19826,68569
19820,68575
20117,68872
20210,68847
20279,68650
20268,68442
20210,68302
20117,68277
20163,68232
20130,68200
20657,68200
20580,68277
20500,68470
20499,68642
20279,68862
20171,68971
20100,69076
20081,69172
20047,69207
20022,69114
19919,69078
20022,69035
20047,68942
19750,68645
19452,68942
19477,69035
19580,69071
19477,69114
19452,69207
19750,69504
19755,69498
19826,69569
19820,69575
19826,69580
19755,69651
19750,69645
19452,69942
19477,70035
19674,70104
19854,70095
19850,70101
19826,70225
19826,70299
19696,70429
19610,70637
19609,70861
19695,71069
19854,71228
20062,71314
20286,71315
20494,71229
20625,71099
20704,71178
20912,71264
21136,71265
21344,71179
21503,71020
21589,70812
21590,70588
21504,70380
21348,70224
21348,69993
21469,69872
21522,69746
21564,69847
21657,69872
21954,69575
21657,69277
21564,69302
21525,69412
21470,69278
21322,69130
21189,69074
21322,69020
21469,68872
21522,68746
21564,68847
21657,68872
21954,68575
21948,68569
22019,68498
22025,68504
22030,68498
22101,68569
22095,68575
22392,68872
22485,68847
22554,68650
22543,68442
22485,68302
22392,68277
22438,68232
22405,68200
22882,68200
22805,68277
22725,68470
22724,68678
22804,68872
22952,69019
23085,69075
22953,69129
22805,69277
22725,69470
22724,69678
22804,69872
22926,69993
22926,70199
22821,70304
22735,70512
22734,70736
22820,70944
22979,71103
23187,71189
23411,71190
23619,71104
23737,70986
23829,71078
24037,71164
24261,71165
24469,71079
24628,70920
24714,70712
24715,70488
24629,70280
24470,70121
24393,70089
24522,70035
24547,69942
24250,69645
24244,69651
24173,69580
24179,69575
24173,69569
24244,69498
24250,69504
24547,69207
24522,69114
24419,69078
24522,69035
24547,68942
24250,68645
24244,68651
24173,68580
24179,68575
24173,68569
24244,68498
24250,68504
24255,68498
24326,68569
24320,68575
24617,68872
24710,68847
24779,68650
24768,68442
24710,68302
24617,68277
24663,68232
24630,68200
25082,68200
25005,68277
24925,68470
24924,68678
25004,68872
25152,69019
25285,69075
25153,69129
25005,69277
24925,69470
24924,69678
25004,69872
25126,69993
25126,70449
24971,70604
24885,70812
24884,71036
24970,71244
25129,71403
25337,71489
25561,71490
25769,71404
25928,71245
26014,71037
26014,70944
26045,71019
26204,71178
26412,71264
26636,71265
26844,71179
27003,71020
27089,70812
27090,70588
27004,70380
26979,70356
26979,69650
26968,69442
26910,69302
26817,69277
26520,69575
26817,69872
26910,69847
26979,69650
26979,70356
26845,70221
26637,70135
26413,70134
26410,70136
26378,70104
26582,70093
26722,70035
26747,69942
26450,69645
26444,69651
26373,69580
26379,69575
26373,69569
26444,69498
26450,69504
26747,69207
26722,69114
26619,69078
26722,69035
26747,68942
26450,68645
26444,68651
26373,68580
26379,68575
26373,68569
26444,68498
26450,68504
26455,68498
26526,68569
26520,68575
26817,68872
26910,68847
26979,68650
26968,68442
26910,68302
26817,68277
26863,68232
26830,68200
32550,68200
32550,83025
" /> 
</g>
<g style="fill:#FFFFFF; fill-opacity:0.0; 
stroke:#FFFFFF; stroke-width:39.3701; stroke-opacity:1; 
stroke-linecap:round; stroke-linejoin:round;">
</g>
<g style="fill:#FFFFFF; fill-opacity:1.0; 
stroke:#FFFFFF; stroke-width:39.3701; stroke-opacity:1; 
stroke-linecap:round; stroke-linejoin:round;">
<circle cx="31375" cy="76100" r="177.165" /> 
<circle cx="24150" cy="81425" r="177.165" /> 
<circle cx="17050" cy="81100" r="177.165" /> 
<circle cx="20275" cy="81100" r="177.165" /> 
<circle cx="22525" cy="81100" r="177.165" /> 
<circle cx="25950" cy="73950" r="177.165" /> 
<circle cx="25875" cy="79525" r="177.165" /> 
<circle cx="18500" cy="79300" r="177.165" /> 
<circle cx="18475" cy="74100" r="177.165" /> 
<circle cx="19675" cy="76400" r="177.165" /> 
<circle cx="26475" cy="76975" r="177.165" /> 
<circle cx="20175" cy="70750" r="177.165" /> 
<circle cx="18500" cy="75300" r="177.165" /> 
<circle cx="26525" cy="70700" r="177.165" /> 
<circle cx="17600" cy="68600" r="177.165" /> 
<circle cx="24150" cy="70600" r="177.165" /> 
<circle cx="26225" cy="78475" r="177.165" /> 
<circle cx="18650" cy="77750" r="177.165" /> 
<circle cx="25975" cy="75600" r="177.165" /> 
<circle cx="18300" cy="70675" r="177.165" /> 
<circle cx="21025" cy="70700" r="177.165" /> 
<circle cx="25450" cy="70925" r="177.165" /> 
<circle cx="23300" cy="70625" r="177.165" /> 
<circle cx="30425" cy="53750" r="584.646" /> 
<circle cx="30425" cy="56746.1" r="584.646" /> 
<circle cx="26400" cy="57750" r="584.646" /> 
<circle cx="26400" cy="53750" r="584.646" /> 
<circle cx="29200" cy="59900" r="584.646" /> 
<circle cx="29200" cy="63900" r="584.646" /> 
<circle cx="25450" cy="69575" r="140.315" /> 
<circle cx="25450" cy="68575" r="140.315" /> 
<circle cx="26450" cy="69575" r="140.315" /> 
<circle cx="26450" cy="68575" r="140.315" /> 
<circle cx="26450" cy="67575" r="140.315" /> 
<circle cx="25450" cy="67575" r="140.315" /> 
<circle cx="21025" cy="69575" r="140.315" /> 
<circle cx="21025" cy="68575" r="140.315" /> 
<circle cx="22025" cy="69575" r="140.315" /> 
<circle cx="22025" cy="68575" r="140.315" /> 
<circle cx="22025" cy="67575" r="140.315" /> 
<circle cx="21025" cy="67575" r="140.315" /> 
<circle cx="18750" cy="69575" r="140.315" /> 
<circle cx="18750" cy="68575" r="140.315" /> 
<circle cx="19750" cy="69575" r="140.315" /> 
<circle cx="19750" cy="68575" r="140.315" /> 
<circle cx="19750" cy="67575" r="140.315" /> 
<circle cx="18750" cy="67575" r="140.315" /> 
<circle cx="23250" cy="69575" r="140.315" /> 
<circle cx="23250" cy="68575" r="140.315" /> 
<circle cx="24250" cy="69575" r="140.315" /> 
<circle cx="24250" cy="68575" r="140.315" /> 
<circle cx="24250" cy="67575" r="140.315" /> 
<circle cx="23250" cy="67575" r="140.315" /> 
<circle cx="26450" cy="63900" r="584.646" /> 
<circle cx="26450" cy="60903.9" r="584.646" /> 
<circle cx="38450" cy="43075" r="584.646" /> 
<circle cx="41446.1" cy="43075" r="584.646" /> 
<circle cx="34350" cy="59850" r="584.646" /> 
<circle cx="34350" cy="56853.9" r="584.646" /> 
<circle cx="29375" cy="73025" r="216.315" /> 
<circle cx="29375" cy="74994" r="216.315" /> 
<circle cx="29375" cy="71056" r="216.315" /> 
<circle cx="15625" cy="72975" r="216.315" /> 
<circle cx="15625" cy="71006" r="216.315" /> 
<circle cx="15625" cy="74944" r="216.315" /> 
<circle cx="15625" cy="78700" r="216.315" /> 
<circle cx="15625" cy="76731" r="216.315" /> 
<circle cx="15625" cy="80669" r="216.315" /> 
<circle cx="29400" cy="78825" r="216.315" /> 
<circle cx="29400" cy="80794" r="216.315" /> 
<circle cx="29400" cy="76856" r="216.315" /> 
<circle cx="14750" cy="92000" r="180.315" /> 
<circle cx="14750" cy="91000" r="180.315" /> 
<circle cx="19750" cy="92000" r="180.315" /> 
<circle cx="15750" cy="91000" r="180.315" /> 
<circle cx="20750" cy="92000" r="180.315" /> 
<circle cx="16750" cy="91000" r="180.315" /> 
<circle cx="21750" cy="92000" r="180.315" /> 
<circle cx="17750" cy="91000" r="180.315" /> 
<circle cx="22750" cy="92000" r="180.315" /> 
<circle cx="18750" cy="91000" r="180.315" /> 
<circle cx="23750" cy="92000" r="180.315" /> 
<circle cx="19750" cy="91000" r="180.315" /> 
<circle cx="24750" cy="92000" r="180.315" /> 
<circle cx="20750" cy="91000" r="180.315" /> 
<circle cx="25750" cy="92000" r="180.315" /> 
<circle cx="21750" cy="91000" r="180.315" /> 
<circle cx="26750" cy="92000" r="180.315" /> 
<circle cx="22750" cy="91000" r="180.315" /> 
<circle cx="27750" cy="92000" r="180.315" /> 
<circle cx="23750" cy="91000" r="180.315" /> 
<circle cx="28750" cy="92000" r="180.315" /> 
<circle cx="24750" cy="91000" r="180.315" /> 
<circle cx="29750" cy="92000" r="180.315" /> 
<circle cx="25750" cy="91000" r="180.315" /> 
<circle cx="26750" cy="91000" r="180.315" /> 
<circle cx="30750" cy="92000" r="180.315" /> 
<circle cx="27750" cy="91000" r="180.315" /> 
<circle cx="29750" cy="91000" r="180.315" /> 
<circle cx="30750" cy="91000" r="180.315" /> 
<circle cx="31750" cy="91000" r="180.315" /> 
<circle cx="32750" cy="91000" r="180.315" /> 
<circle cx="31750" cy="92000" r="180.315" /> 
<circle cx="32750" cy="92000" r="180.315" /> 
<circle cx="15750" cy="92000" r="180.315" /> 
<circle cx="16750" cy="92000" r="180.315" /> 
<circle cx="17750" cy="92000" r="180.315" /> 
<circle cx="18750" cy="92000" r="180.315" /> 
<circle cx="33750" cy="92000" r="180.315" /> 
<circle cx="33750" cy="91000" r="180.315" /> 
<circle cx="28750" cy="91000" r="180.315" /> 
</g> 
</svg>
