G04 #@! TF.FileFunction,Legend,Bot*
%FSLAX46Y46*%
G04 Gerber Fmt 4.6, Leading zero omitted, Abs format (unit mm)*
G04 Created by KiCad (PCBNEW 4.0.2-4+6225~38~ubuntu15.04.1-stable) date Sa 02 Apr 2016 12:31:30 CEST*
%MOMM*%
G01*
G04 APERTURE LIST*
%ADD10C,0.150000*%
%ADD11C,6.000000*%
%ADD12O,3.014980X1.506220*%
%ADD13C,2.199640*%
%ADD14R,1.600000X1.600000*%
%ADD15C,1.600000*%
%ADD16R,1.700000X1.700000*%
%ADD17C,1.700000*%
%ADD18R,2.500000X2.500000*%
%ADD19C,0.600000*%
%ADD20C,0.889000*%
G04 APERTURE END LIST*
D10*
%LPC*%
D11*
X6000000Y-6000000D03*
X5000000Y-70000000D03*
X72000000Y-70000000D03*
X72000000Y-6000000D03*
D12*
X72000000Y-36810000D03*
X72000000Y-34270000D03*
X72000000Y-31730000D03*
X72000000Y-29190000D03*
D13*
X31250000Y-7000000D03*
X12750000Y-7000000D03*
X12750000Y-17000000D03*
X31250000Y-17000000D03*
D14*
X67000000Y-18000000D03*
D15*
X44000000Y-18000000D03*
D16*
X14500000Y-28000000D03*
D17*
X29500000Y-28000000D03*
D16*
X6000000Y-13000000D03*
D17*
X6000000Y-28000000D03*
D11*
X6000000Y-36000000D03*
D18*
X64000000Y-3000000D03*
X64000000Y-8000000D03*
X58000000Y-8000000D03*
X58000000Y-3000000D03*
X46000000Y-8000000D03*
X46000000Y-3000000D03*
X52000000Y-3000000D03*
X52000000Y-8000000D03*
D19*
X40266000Y-57342000D03*
X40266000Y-62549000D03*
D20*
X49000000Y-44000000D03*
X52900000Y-41200000D03*
X26200000Y-62300000D03*
X49700000Y-58200000D03*
X54300000Y-58300000D03*
X54300000Y-52300000D03*
X50400000Y-52200000D03*
X42100000Y-60100000D03*
X45300000Y-56500000D03*
X44300000Y-54800000D03*
X43800000Y-52300000D03*
X47200000Y-57200000D03*
X47200000Y-59800000D03*
X32500000Y-60400000D03*
X57900000Y-41100000D03*
X59000000Y-37100000D03*
X26000000Y-60500000D03*
X27000000Y-52200000D03*
X27500000Y-75500000D03*
X1500000Y-75500000D03*
X18000000Y-66500000D03*
X15500000Y-63000000D03*
X10400000Y-53200000D03*
X8000000Y-50500000D03*
X6000000Y-53000000D03*
X3500000Y-51500000D03*
X1500000Y-51500000D03*
X56750000Y-59628000D03*
X56500000Y-56500000D03*
X58500000Y-54000000D03*
X59000000Y-44500000D03*
X52750000Y-46750000D03*
X43250000Y-39250000D03*
X29000000Y-37500000D03*
X29000000Y-35500000D03*
X32000000Y-35250000D03*
X34500000Y-36250000D03*
X37000000Y-32500000D03*
X37250000Y-35250000D03*
X39750000Y-35250000D03*
X42500000Y-34250000D03*
X42500000Y-32000000D03*
X43000000Y-26250000D03*
X76750000Y-31250000D03*
X76500000Y-26250000D03*
X66250000Y-29000000D03*
X60750000Y-29000000D03*
D19*
X38043500Y-61126600D03*
X37141800Y-61126600D03*
X36329000Y-61139300D03*
X35541600Y-61126600D03*
X37967300Y-59653400D03*
X37141800Y-59640700D03*
X36329000Y-59653400D03*
X35541600Y-59653400D03*
D20*
X55379000Y-48769500D03*
X30106000Y-62168000D03*
X30106000Y-59945500D03*
X54363000Y-39244500D03*
X51061000Y-35244000D03*
M02*
