G04 #@! TF.FileFunction,Copper,L1,Top,Signal*
%FSLAX46Y46*%
G04 Gerber Fmt 4.6, Leading zero omitted, Abs format (unit mm)*
G04 Created by KiCad (PCBNEW 4.0.2-4+6225~38~ubuntu15.04.1-stable) date Sa 02 Apr 2016 12:31:30 CEST*
%MOMM*%
G01*
G04 APERTURE LIST*
%ADD10C,0.150000*%
%ADD11R,1.300000X0.700000*%
%ADD12R,1.800860X3.500120*%
%ADD13C,6.000000*%
%ADD14R,0.600000X1.550000*%
%ADD15R,1.175000X1.175000*%
%ADD16R,1.000000X1.600000*%
%ADD17O,3.014980X1.506220*%
%ADD18C,2.199640*%
%ADD19R,2.400300X4.900000*%
%ADD20R,2.400300X3.500120*%
%ADD21R,4.900000X2.400300*%
%ADD22R,1.250000X1.000000*%
%ADD23R,1.000000X1.250000*%
%ADD24R,3.556000X4.191000*%
%ADD25R,2.199640X3.599180*%
%ADD26R,0.700000X1.300000*%
%ADD27R,1.600000X1.600000*%
%ADD28C,1.600000*%
%ADD29R,1.700000X1.700000*%
%ADD30C,1.700000*%
%ADD31R,1.700000X0.900000*%
%ADD32R,5.000000X5.499100*%
%ADD33R,2.500000X2.500000*%
%ADD34C,0.600000*%
%ADD35C,0.889000*%
%ADD36C,2.540000*%
%ADD37C,0.254000*%
%ADD38C,0.400000*%
%ADD39C,0.508000*%
%ADD40C,0.512000*%
%ADD41C,0.762000*%
%ADD42C,1.270000*%
%ADD43C,0.100000*%
G04 APERTURE END LIST*
D10*
D11*
X30000000Y-65450000D03*
X30000000Y-63550000D03*
D12*
X39600000Y-31899360D03*
X39600000Y-26900640D03*
D13*
X6000000Y-6000000D03*
X5000000Y-70000000D03*
X72000000Y-70000000D03*
X72000000Y-6000000D03*
D14*
X38869000Y-57690000D03*
X37599000Y-57690000D03*
X36329000Y-57690000D03*
X35059000Y-57690000D03*
X35059000Y-63090000D03*
X36329000Y-63090000D03*
X37599000Y-63090000D03*
X38869000Y-63090000D03*
D15*
X36376500Y-60977500D03*
X37551500Y-60977500D03*
X36376500Y-59802500D03*
X37551500Y-59802500D03*
D16*
X27200000Y-35600000D03*
X24200000Y-35600000D03*
D17*
X72000000Y-36810000D03*
X72000000Y-34270000D03*
X72000000Y-31730000D03*
X72000000Y-29190000D03*
D18*
X31250000Y-7000000D03*
X12750000Y-7000000D03*
X12750000Y-17000000D03*
X31250000Y-17000000D03*
D19*
X18000000Y-53600000D03*
X18000000Y-62900000D03*
D20*
X63500000Y-35501200D03*
X63500000Y-28998800D03*
D21*
X43400000Y-44100000D03*
X52700000Y-44100000D03*
D22*
X41917000Y-62692000D03*
X41917000Y-64692000D03*
D23*
X34948000Y-69915000D03*
X36948000Y-69915000D03*
X34948000Y-66994000D03*
X36948000Y-66994000D03*
X61078000Y-42864000D03*
X59078000Y-42864000D03*
X61078000Y-39308000D03*
X59078000Y-39308000D03*
D16*
X39718500Y-54802000D03*
X42718500Y-54802000D03*
X61451000Y-59628000D03*
X58451000Y-59628000D03*
X61451000Y-56326000D03*
X58451000Y-56326000D03*
D23*
X29582000Y-57088000D03*
X27582000Y-57088000D03*
D12*
X44711000Y-59287640D03*
X44711000Y-64286360D03*
X34500000Y-32999360D03*
X34500000Y-28000640D03*
X13100000Y-35500640D03*
X13100000Y-40499360D03*
X19500000Y-35500640D03*
X19500000Y-40499360D03*
D24*
X37000000Y-11175000D03*
X37000000Y-4825000D03*
D25*
X66682000Y-52145160D03*
X66682000Y-43742840D03*
D11*
X32646000Y-67314000D03*
X32646000Y-69214000D03*
D26*
X29450000Y-55000000D03*
X27550000Y-55000000D03*
D11*
X32000000Y-53050000D03*
X32000000Y-54950000D03*
X30000000Y-69200000D03*
X30000000Y-67300000D03*
D27*
X67000000Y-18000000D03*
D28*
X44000000Y-18000000D03*
D29*
X14500000Y-28000000D03*
D30*
X29500000Y-28000000D03*
D29*
X6000000Y-13000000D03*
D30*
X6000000Y-28000000D03*
D13*
X6000000Y-36000000D03*
D12*
X10300000Y-50499360D03*
X10300000Y-45500640D03*
X6100000Y-45300640D03*
X6100000Y-50299360D03*
D31*
X2600000Y-49350000D03*
X2600000Y-46450000D03*
D32*
X23992800Y-44600000D03*
X37607200Y-44600000D03*
X47047800Y-69445100D03*
X60662200Y-69445100D03*
D23*
X42100000Y-52300000D03*
X40100000Y-52300000D03*
D33*
X64000000Y-3000000D03*
X64000000Y-8000000D03*
X58000000Y-8000000D03*
X58000000Y-3000000D03*
X46000000Y-8000000D03*
X46000000Y-3000000D03*
X52000000Y-3000000D03*
X52000000Y-8000000D03*
D34*
X40266000Y-57342000D03*
X40266000Y-62549000D03*
D35*
X49000000Y-44000000D03*
X52900000Y-41200000D03*
X26200000Y-62300000D03*
X49700000Y-58200000D03*
X54300000Y-58300000D03*
X54300000Y-52300000D03*
X50400000Y-52200000D03*
X42100000Y-60100000D03*
X45300000Y-56500000D03*
X44300000Y-54800000D03*
X43800000Y-52300000D03*
X47200000Y-57200000D03*
X47200000Y-59800000D03*
X32500000Y-60400000D03*
X57900000Y-41100000D03*
X59000000Y-37100000D03*
X26000000Y-60500000D03*
X27000000Y-52200000D03*
X27500000Y-75500000D03*
X1500000Y-75500000D03*
X18000000Y-66500000D03*
X15500000Y-63000000D03*
X10400000Y-53200000D03*
X8000000Y-50500000D03*
X6000000Y-53000000D03*
X3500000Y-51500000D03*
X1500000Y-51500000D03*
X56750000Y-59628000D03*
X56500000Y-56500000D03*
X58500000Y-54000000D03*
X59000000Y-44500000D03*
X52750000Y-46750000D03*
X43250000Y-39250000D03*
X29000000Y-37500000D03*
X29000000Y-35500000D03*
X32000000Y-35250000D03*
X34500000Y-36250000D03*
X37000000Y-32500000D03*
X37250000Y-35250000D03*
X39750000Y-35250000D03*
X42500000Y-34250000D03*
X42500000Y-32000000D03*
X43000000Y-26250000D03*
X76750000Y-31250000D03*
X76500000Y-26250000D03*
X66250000Y-29000000D03*
X60750000Y-29000000D03*
D34*
X38043500Y-61126600D03*
X37141800Y-61126600D03*
X36329000Y-61139300D03*
X35541600Y-61126600D03*
X37967300Y-59653400D03*
X37141800Y-59640700D03*
X36329000Y-59653400D03*
X35541600Y-59653400D03*
D35*
X55379000Y-48769500D03*
X30106000Y-62168000D03*
X30106000Y-59945500D03*
X54363000Y-39244500D03*
X51061000Y-35244000D03*
D36*
X31250000Y-17000000D02*
X37000000Y-17000000D01*
X63000000Y-22000000D02*
X67000000Y-18000000D01*
X42000000Y-22000000D02*
X63000000Y-22000000D01*
X37000000Y-17000000D02*
X42000000Y-22000000D01*
D37*
X41917000Y-62739500D02*
X40710500Y-62739500D01*
X39471000Y-57088000D02*
X38869000Y-57690000D01*
X40012000Y-57088000D02*
X39471000Y-57088000D01*
X40266000Y-57342000D02*
X40012000Y-57088000D01*
X40710500Y-62739500D02*
X40266000Y-62549000D01*
X38869000Y-57690000D02*
X38869000Y-57596000D01*
D38*
X36329000Y-63090000D02*
X36329000Y-64671000D01*
X34948000Y-66052000D02*
X34948000Y-66994000D01*
X36329000Y-64671000D02*
X34948000Y-66052000D01*
X32646000Y-67314000D02*
X33686000Y-67314000D01*
X34006000Y-66994000D02*
X34948000Y-66994000D01*
X33686000Y-67314000D02*
X34006000Y-66994000D01*
D39*
X49000000Y-42100000D02*
X49000000Y-44000000D01*
X50000000Y-41100000D02*
X49000000Y-42100000D01*
X52800000Y-41100000D02*
X50000000Y-41100000D01*
X52900000Y-41200000D02*
X52800000Y-41100000D01*
X30106000Y-62168000D02*
X29868000Y-62168000D01*
X26500000Y-62000000D02*
X26200000Y-62300000D01*
X29700000Y-62000000D02*
X26500000Y-62000000D01*
X29868000Y-62168000D02*
X29700000Y-62000000D01*
X47200000Y-57200000D02*
X47200000Y-55400000D01*
X54300000Y-52300000D02*
X54300000Y-58300000D01*
X47200000Y-55400000D02*
X50400000Y-52200000D01*
X56750000Y-59628000D02*
X47372000Y-59628000D01*
X42912360Y-59287640D02*
X44711000Y-59287640D01*
X42100000Y-60100000D02*
X42912360Y-59287640D01*
X47200000Y-57200000D02*
X46500000Y-56500000D01*
X46500000Y-56500000D02*
X45300000Y-56500000D01*
X44300000Y-54800000D02*
X44400000Y-54700000D01*
X44400000Y-54700000D02*
X44400000Y-52900000D01*
X44400000Y-52900000D02*
X43800000Y-52300000D01*
X47372000Y-59628000D02*
X47200000Y-59800000D01*
X30106000Y-62168000D02*
X30106000Y-61794000D01*
X31500000Y-60400000D02*
X32500000Y-60400000D01*
X30106000Y-61794000D02*
X31500000Y-60400000D01*
X59000000Y-37100000D02*
X59000000Y-37500000D01*
X57900000Y-41100000D02*
X57400000Y-40600000D01*
X57400000Y-40600000D02*
X57400000Y-37900000D01*
X57400000Y-37900000D02*
X58200000Y-37100000D01*
X58200000Y-37100000D02*
X59000000Y-37100000D01*
X59078000Y-37578000D02*
X59078000Y-39308000D01*
X59000000Y-37500000D02*
X59078000Y-37578000D01*
D40*
X41917000Y-52071500D02*
X41980500Y-52071500D01*
X41980500Y-52071500D02*
X42044000Y-52135000D01*
D37*
X27550000Y-55000000D02*
X27550000Y-53050000D01*
X27550000Y-53050000D02*
X27000000Y-52200000D01*
X2600000Y-50900000D02*
X2600000Y-49350000D01*
X27500000Y-75500000D02*
X1500000Y-75500000D01*
X18000000Y-66500000D02*
X14500000Y-66500000D01*
X14500000Y-66500000D02*
X15500000Y-65500000D01*
X15500000Y-65500000D02*
X15500000Y-63000000D01*
X10400000Y-53200000D02*
X10000000Y-53500000D01*
X10000000Y-53500000D02*
X9000000Y-53500000D01*
X9000000Y-53500000D02*
X8000000Y-52500000D01*
X8000000Y-52500000D02*
X8000000Y-50500000D01*
X6000000Y-53000000D02*
X6000000Y-53500000D01*
X6000000Y-53500000D02*
X5500000Y-53500000D01*
X5500000Y-53500000D02*
X3500000Y-51500000D01*
X1500000Y-51500000D02*
X2000000Y-51000000D01*
X2000000Y-51000000D02*
X2500000Y-51000000D01*
X2500000Y-51000000D02*
X2600000Y-50900000D01*
X55379000Y-48769500D02*
X54769500Y-48769500D01*
X56750000Y-56750000D02*
X56750000Y-59628000D01*
X56500000Y-56500000D02*
X56750000Y-56750000D01*
X58750000Y-44750000D02*
X58500000Y-54000000D01*
X59000000Y-44500000D02*
X58750000Y-44750000D01*
X54769500Y-48769500D02*
X52750000Y-46750000D01*
X52700000Y-41950000D02*
X52700000Y-44100000D01*
X50250000Y-39500000D02*
X52700000Y-41950000D01*
X43500000Y-39500000D02*
X50250000Y-39500000D01*
X43250000Y-39250000D02*
X43500000Y-39500000D01*
X29000000Y-35500000D02*
X29000000Y-37500000D01*
X32250000Y-35250000D02*
X32000000Y-35250000D01*
X33250000Y-36250000D02*
X32250000Y-35250000D01*
X34500000Y-36250000D02*
X33250000Y-36250000D01*
X37000000Y-35000000D02*
X37000000Y-32500000D01*
X37250000Y-35250000D02*
X37000000Y-35000000D01*
X41500000Y-35250000D02*
X39750000Y-35250000D01*
X42500000Y-34250000D02*
X41500000Y-35250000D01*
X42500000Y-26750000D02*
X42500000Y-32000000D01*
X43000000Y-26250000D02*
X42500000Y-26750000D01*
X76750000Y-26500000D02*
X76750000Y-31250000D01*
X76500000Y-26250000D02*
X76750000Y-26500000D01*
X60750000Y-29000000D02*
X66250000Y-29000000D01*
D38*
X36948000Y-69915000D02*
X36948000Y-66994000D01*
X37599000Y-63090000D02*
X37599000Y-65401000D01*
X36948000Y-66052000D02*
X36948000Y-66994000D01*
X37599000Y-65401000D02*
X36948000Y-66052000D01*
D37*
X38043500Y-61126600D02*
X37894400Y-60977500D01*
X37894400Y-60977500D02*
X37551500Y-60977500D01*
X37141800Y-61126600D02*
X37290900Y-60977500D01*
X37290900Y-60977500D02*
X37551500Y-60977500D01*
X36329000Y-61139300D02*
X36376500Y-61091800D01*
X36376500Y-61091800D02*
X36376500Y-60977500D01*
X37967300Y-59653400D02*
X37818200Y-59802500D01*
X37818200Y-59802500D02*
X37551500Y-59802500D01*
X37141800Y-59640700D02*
X37303600Y-59802500D01*
X37303600Y-59802500D02*
X37551500Y-59802500D01*
X30106000Y-59945500D02*
X35249500Y-59945500D01*
X36329000Y-59653400D02*
X36262200Y-59720200D01*
X35249500Y-59945500D02*
X35541600Y-59653400D01*
X36262200Y-59720200D02*
X36262200Y-59802500D01*
D39*
X57093500Y-42864000D02*
X59125500Y-42864000D01*
X55696500Y-44261000D02*
X57093500Y-42864000D01*
X55696500Y-48452000D02*
X55696500Y-44261000D01*
X55379000Y-48769500D02*
X55696500Y-48452000D01*
X31884000Y-60390000D02*
X36964000Y-60390000D01*
X30106000Y-62168000D02*
X31884000Y-60390000D01*
X54426500Y-39308000D02*
X59125500Y-39308000D01*
X54363000Y-39244500D02*
X54426500Y-39308000D01*
X50553000Y-34736000D02*
X50553000Y-29996360D01*
X51061000Y-35244000D02*
X50553000Y-34736000D01*
D41*
X44711000Y-59287640D02*
X44711000Y-59628000D01*
X44711000Y-59628000D02*
X45727000Y-60644000D01*
X44711000Y-59287640D02*
X44711000Y-59691500D01*
X39631000Y-60390000D02*
X36964000Y-60390000D01*
X39821500Y-60580500D02*
X39631000Y-60390000D01*
X43822000Y-60580500D02*
X39821500Y-60580500D01*
X44711000Y-59691500D02*
X43822000Y-60580500D01*
D40*
X37599000Y-63057000D02*
X37599000Y-61025000D01*
X37599000Y-61025000D02*
X36964000Y-60390000D01*
D38*
X32000000Y-54950000D02*
X34950000Y-54950000D01*
X36329000Y-56329000D02*
X36329000Y-57690000D01*
X34950000Y-54950000D02*
X36329000Y-56329000D01*
X32000000Y-54950000D02*
X29500000Y-54950000D01*
D37*
X29500000Y-54950000D02*
X29450000Y-55000000D01*
D41*
X44711000Y-64286360D02*
X44711000Y-64517500D01*
X44711000Y-64286360D02*
X44561140Y-64286360D01*
X44711000Y-64286360D02*
X44711000Y-64708000D01*
X44711000Y-64286360D02*
X44711000Y-65597000D01*
X44711000Y-64286360D02*
X44543360Y-64286360D01*
D38*
X35059000Y-63090000D02*
X35059000Y-63941000D01*
X33550000Y-65450000D02*
X30000000Y-65450000D01*
X35059000Y-63941000D02*
X33550000Y-65450000D01*
D40*
X35059000Y-63057000D02*
X35059000Y-63311000D01*
X39567500Y-54802000D02*
X39250000Y-54802000D01*
D38*
X30000000Y-69200000D02*
X30000000Y-70250000D01*
X63000000Y-74750000D02*
X63000000Y-71782900D01*
X61500000Y-76250000D02*
X63000000Y-74750000D01*
X40250000Y-76250000D02*
X61500000Y-76250000D01*
X36500000Y-72500000D02*
X40250000Y-76250000D01*
X32250000Y-72500000D02*
X36500000Y-72500000D01*
X30000000Y-70250000D02*
X32250000Y-72500000D01*
X63000000Y-71782900D02*
X60662200Y-69445100D01*
D37*
X62000000Y-70782900D02*
X60662200Y-69445100D01*
X62500000Y-71282900D02*
X60662200Y-69445100D01*
D42*
X61602000Y-56326000D02*
X61729000Y-56326000D01*
D40*
X32646000Y-69216500D02*
X32709500Y-69216500D01*
X33408000Y-69915000D02*
X34995500Y-69915000D01*
X32709500Y-69216500D02*
X33408000Y-69915000D01*
X35059000Y-57723000D02*
X35059000Y-57215000D01*
X29788500Y-56834000D02*
X29534500Y-57088000D01*
X34678000Y-56834000D02*
X29788500Y-56834000D01*
X35059000Y-57215000D02*
X34678000Y-56834000D01*
D42*
X6000000Y-36000000D02*
X6000000Y-28000000D01*
X6000000Y-28000000D02*
X14500000Y-28000000D01*
D36*
X29500000Y-28000000D02*
X26500000Y-28000000D01*
X26500000Y-28000000D02*
X25750000Y-28750000D01*
X23875000Y-30625000D02*
X25750000Y-28750000D01*
X19500000Y-35000000D02*
X23875000Y-30625000D01*
X25750000Y-28750000D02*
X29000000Y-25500000D01*
X29000000Y-25500000D02*
X33500000Y-25500000D01*
X19500000Y-35500640D02*
X19500000Y-35000000D01*
X34500000Y-28000640D02*
X34500000Y-26500000D01*
X34500000Y-26500000D02*
X33500000Y-25500000D01*
X33500000Y-25500000D02*
X31000000Y-25500000D01*
X29500000Y-27000000D02*
X29500000Y-28000000D01*
X31000000Y-25500000D02*
X29500000Y-27000000D01*
X13100000Y-35500640D02*
X13100000Y-34400000D01*
X13100000Y-34400000D02*
X16000000Y-31500000D01*
X16000000Y-31500000D02*
X17000000Y-31500000D01*
X17000000Y-31500000D02*
X19600000Y-28900000D01*
X19600000Y-28900000D02*
X19600000Y-24200000D01*
X12750000Y-7000000D02*
X12750000Y-9150000D01*
X39600000Y-26900640D02*
X39600000Y-25100000D01*
X22300000Y-21500000D02*
X19600000Y-24200000D01*
X36000000Y-21500000D02*
X22300000Y-21500000D01*
X39600000Y-25100000D02*
X36000000Y-21500000D01*
X6000000Y-13000000D02*
X8900000Y-13000000D01*
X8900000Y-13000000D02*
X12750000Y-9150000D01*
X6000000Y-20100000D02*
X6000000Y-13000000D01*
X10100000Y-24200000D02*
X6000000Y-20100000D01*
X19600000Y-24200000D02*
X10100000Y-24200000D01*
X37000000Y-11175000D02*
X39475000Y-11175000D01*
X39475000Y-11175000D02*
X44000000Y-15700000D01*
X44000000Y-15700000D02*
X44000000Y-18000000D01*
X31250000Y-7000000D02*
X31250000Y-9250000D01*
X33175000Y-11175000D02*
X37000000Y-11175000D01*
X31250000Y-9250000D02*
X33175000Y-11175000D01*
D39*
X37000000Y-11175000D02*
X35425000Y-11175000D01*
D37*
G36*
X77873000Y-32123000D02*
X73931927Y-32123000D01*
X73924650Y-32106555D01*
X72753745Y-32106555D01*
X72753745Y-32123000D01*
X71246255Y-32123000D01*
X71246255Y-32106555D01*
X70075350Y-32106555D01*
X70068073Y-32123000D01*
X59750000Y-32123000D01*
X59700590Y-32133006D01*
X59658965Y-32161447D01*
X59631685Y-32203841D01*
X59623000Y-32250000D01*
X59623000Y-38048000D01*
X59486750Y-38048000D01*
X59328000Y-38206750D01*
X59328000Y-38995500D01*
X59578000Y-38995500D01*
X59578000Y-39620500D01*
X59328000Y-39620500D01*
X59328000Y-40409250D01*
X59486750Y-40568000D01*
X59623000Y-40568000D01*
X59623000Y-41604000D01*
X59486750Y-41604000D01*
X59328000Y-41762750D01*
X59328000Y-42551500D01*
X59578000Y-42551500D01*
X59578000Y-43176500D01*
X59328000Y-43176500D01*
X59328000Y-43965250D01*
X59486750Y-44124000D01*
X59623000Y-44124000D01*
X59623000Y-61373000D01*
X31500000Y-61373000D01*
X31450590Y-61383006D01*
X31408965Y-61411447D01*
X31381685Y-61453841D01*
X31373000Y-61500000D01*
X31373000Y-64123000D01*
X31244949Y-64123000D01*
X31285000Y-64026309D01*
X31285000Y-63883750D01*
X31126250Y-63725000D01*
X30325000Y-63725000D01*
X30325000Y-63900000D01*
X29675000Y-63900000D01*
X29675000Y-63725000D01*
X28873750Y-63725000D01*
X28715000Y-63883750D01*
X28715000Y-64026309D01*
X28755051Y-64123000D01*
X28500000Y-64123000D01*
X28450590Y-64133006D01*
X28408965Y-64161447D01*
X28381685Y-64203841D01*
X28373000Y-64250000D01*
X28373000Y-76315000D01*
X685000Y-76315000D01*
X685000Y-70719874D01*
X1364370Y-70719874D01*
X1916600Y-72056372D01*
X2938249Y-73079806D01*
X4273782Y-73634368D01*
X5719874Y-73635630D01*
X7056372Y-73083400D01*
X8079806Y-72061751D01*
X8634368Y-70726218D01*
X8635630Y-69280126D01*
X8083400Y-67943628D01*
X7061751Y-66920194D01*
X5726218Y-66365632D01*
X4280126Y-66364370D01*
X2943628Y-66916600D01*
X1920194Y-67938249D01*
X1365632Y-69273782D01*
X1364370Y-70719874D01*
X685000Y-70719874D01*
X685000Y-64201750D01*
X16164850Y-64201750D01*
X16164850Y-65476309D01*
X16261523Y-65709698D01*
X16440151Y-65888327D01*
X16673540Y-65985000D01*
X17241175Y-65985000D01*
X17399925Y-65826250D01*
X17399925Y-64043000D01*
X18600075Y-64043000D01*
X18600075Y-65826250D01*
X18758825Y-65985000D01*
X19326460Y-65985000D01*
X19559849Y-65888327D01*
X19738477Y-65709698D01*
X19835150Y-65476309D01*
X19835150Y-64201750D01*
X19676400Y-64043000D01*
X18600075Y-64043000D01*
X17399925Y-64043000D01*
X16323600Y-64043000D01*
X16164850Y-64201750D01*
X685000Y-64201750D01*
X685000Y-63073691D01*
X28715000Y-63073691D01*
X28715000Y-63216250D01*
X28873750Y-63375000D01*
X29675000Y-63375000D01*
X29675000Y-62723750D01*
X30325000Y-62723750D01*
X30325000Y-63375000D01*
X31126250Y-63375000D01*
X31285000Y-63216250D01*
X31285000Y-63073691D01*
X31188327Y-62840302D01*
X31009699Y-62661673D01*
X30776310Y-62565000D01*
X30483750Y-62565000D01*
X30325000Y-62723750D01*
X29675000Y-62723750D01*
X29516250Y-62565000D01*
X29223690Y-62565000D01*
X28990301Y-62661673D01*
X28811673Y-62840302D01*
X28715000Y-63073691D01*
X685000Y-63073691D01*
X685000Y-60323691D01*
X16164850Y-60323691D01*
X16164850Y-61598250D01*
X16323600Y-61757000D01*
X17399925Y-61757000D01*
X17399925Y-59973750D01*
X18600075Y-59973750D01*
X18600075Y-61757000D01*
X19676400Y-61757000D01*
X19835150Y-61598250D01*
X19835150Y-60323691D01*
X19778428Y-60186750D01*
X57316000Y-60186750D01*
X57316000Y-60554310D01*
X57412673Y-60787699D01*
X57591302Y-60966327D01*
X57824691Y-61063000D01*
X58042250Y-61063000D01*
X58201000Y-60904250D01*
X58201000Y-60028000D01*
X58701000Y-60028000D01*
X58701000Y-60904250D01*
X58859750Y-61063000D01*
X59077309Y-61063000D01*
X59310698Y-60966327D01*
X59489327Y-60787699D01*
X59586000Y-60554310D01*
X59586000Y-60186750D01*
X59427250Y-60028000D01*
X58701000Y-60028000D01*
X58201000Y-60028000D01*
X57474750Y-60028000D01*
X57316000Y-60186750D01*
X19778428Y-60186750D01*
X19738477Y-60090302D01*
X19559849Y-59911673D01*
X19326460Y-59815000D01*
X18758825Y-59815000D01*
X18600075Y-59973750D01*
X17399925Y-59973750D01*
X17241175Y-59815000D01*
X16673540Y-59815000D01*
X16440151Y-59911673D01*
X16261523Y-60090302D01*
X16164850Y-60323691D01*
X685000Y-60323691D01*
X685000Y-51333140D01*
X4564570Y-51333140D01*
X4564570Y-52175729D01*
X4661243Y-52409118D01*
X4839871Y-52587747D01*
X5073260Y-52684420D01*
X5491035Y-52684420D01*
X5649785Y-52525670D01*
X5649785Y-51174390D01*
X6550215Y-51174390D01*
X6550215Y-52525670D01*
X6708965Y-52684420D01*
X7126740Y-52684420D01*
X7360129Y-52587747D01*
X7538757Y-52409118D01*
X7635430Y-52175729D01*
X7635430Y-51533140D01*
X8764570Y-51533140D01*
X8764570Y-52375729D01*
X8861243Y-52609118D01*
X9039871Y-52787747D01*
X9273260Y-52884420D01*
X9691035Y-52884420D01*
X9849785Y-52725670D01*
X9849785Y-51374390D01*
X8923320Y-51374390D01*
X8764570Y-51533140D01*
X7635430Y-51533140D01*
X7635430Y-51333140D01*
X7476680Y-51174390D01*
X6550215Y-51174390D01*
X5649785Y-51174390D01*
X4723320Y-51174390D01*
X4564570Y-51333140D01*
X685000Y-51333140D01*
X685000Y-49733750D01*
X1115000Y-49733750D01*
X1115000Y-49926309D01*
X1211673Y-50159698D01*
X1390301Y-50338327D01*
X1623690Y-50435000D01*
X2016250Y-50435000D01*
X2175000Y-50276250D01*
X2175000Y-49575000D01*
X3025000Y-49575000D01*
X3025000Y-50276250D01*
X3183750Y-50435000D01*
X3576310Y-50435000D01*
X3809699Y-50338327D01*
X3988327Y-50159698D01*
X4085000Y-49926309D01*
X4085000Y-49733750D01*
X3926250Y-49575000D01*
X3025000Y-49575000D01*
X2175000Y-49575000D01*
X1273750Y-49575000D01*
X1115000Y-49733750D01*
X685000Y-49733750D01*
X685000Y-48877000D01*
X1115000Y-48877000D01*
X1115000Y-48966250D01*
X1273750Y-49125000D01*
X2175000Y-49125000D01*
X2175000Y-48900000D01*
X3025000Y-48900000D01*
X3025000Y-49125000D01*
X3926250Y-49125000D01*
X4085000Y-48966250D01*
X4085000Y-48877000D01*
X4564570Y-48877000D01*
X4564570Y-49265580D01*
X4723320Y-49424330D01*
X5649785Y-49424330D01*
X5649785Y-49136360D01*
X6550215Y-49136360D01*
X6550215Y-49424330D01*
X7476680Y-49424330D01*
X7635430Y-49265580D01*
X7635430Y-48877000D01*
X8764570Y-48877000D01*
X8764570Y-49465580D01*
X8923320Y-49624330D01*
X9849785Y-49624330D01*
X9849785Y-49336360D01*
X10750215Y-49336360D01*
X10750215Y-49624330D01*
X11123000Y-49624330D01*
X11123000Y-51374390D01*
X10750215Y-51374390D01*
X10750215Y-52725670D01*
X10908965Y-52884420D01*
X11123000Y-52884420D01*
X11123000Y-59000000D01*
X11133006Y-59049410D01*
X11161447Y-59091035D01*
X11203841Y-59118315D01*
X11250000Y-59127000D01*
X25750000Y-59127000D01*
X25799410Y-59116994D01*
X25841035Y-59088553D01*
X25868315Y-59046159D01*
X25877000Y-59000000D01*
X25877000Y-57559250D01*
X26447000Y-57559250D01*
X26447000Y-57839310D01*
X26543673Y-58072699D01*
X26722302Y-58251327D01*
X26955691Y-58348000D01*
X27173250Y-58348000D01*
X27332000Y-58189250D01*
X27332000Y-57400500D01*
X26605750Y-57400500D01*
X26447000Y-57559250D01*
X25877000Y-57559250D01*
X25877000Y-56336690D01*
X26447000Y-56336690D01*
X26447000Y-56616750D01*
X26605750Y-56775500D01*
X27332000Y-56775500D01*
X27332000Y-56169250D01*
X27375000Y-56126250D01*
X27375000Y-55325000D01*
X26723750Y-55325000D01*
X26565000Y-55483750D01*
X26565000Y-55776310D01*
X26654527Y-55992447D01*
X26543673Y-56103301D01*
X26447000Y-56336690D01*
X25877000Y-56336690D01*
X25877000Y-54223690D01*
X26565000Y-54223690D01*
X26565000Y-54516250D01*
X26723750Y-54675000D01*
X27375000Y-54675000D01*
X27375000Y-53873750D01*
X27216250Y-53715000D01*
X27073691Y-53715000D01*
X26840302Y-53811673D01*
X26661673Y-53990301D01*
X26565000Y-54223690D01*
X25877000Y-54223690D01*
X25877000Y-51377000D01*
X27873000Y-51377000D01*
X27873000Y-53725750D01*
X27725000Y-53873750D01*
X27725000Y-54675000D01*
X27873000Y-54675000D01*
X27873000Y-55325000D01*
X27725000Y-55325000D01*
X27725000Y-56126250D01*
X27832000Y-56233250D01*
X27832000Y-56775500D01*
X27873000Y-56775500D01*
X27873000Y-57400500D01*
X27832000Y-57400500D01*
X27832000Y-58189250D01*
X27873000Y-58230250D01*
X27873000Y-59000000D01*
X27883006Y-59049410D01*
X27911447Y-59091035D01*
X27953841Y-59118315D01*
X28000000Y-59127000D01*
X42500000Y-59127000D01*
X42549410Y-59116994D01*
X42591035Y-59088553D01*
X42618315Y-59046159D01*
X42627000Y-59000000D01*
X42627000Y-58701690D01*
X57316000Y-58701690D01*
X57316000Y-59069250D01*
X57474750Y-59228000D01*
X58201000Y-59228000D01*
X58201000Y-58351750D01*
X58701000Y-58351750D01*
X58701000Y-59228000D01*
X59427250Y-59228000D01*
X59586000Y-59069250D01*
X59586000Y-58701690D01*
X59489327Y-58468301D01*
X59310698Y-58289673D01*
X59077309Y-58193000D01*
X58859750Y-58193000D01*
X58701000Y-58351750D01*
X58201000Y-58351750D01*
X58042250Y-58193000D01*
X57824691Y-58193000D01*
X57591302Y-58289673D01*
X57412673Y-58468301D01*
X57316000Y-58701690D01*
X42627000Y-58701690D01*
X42627000Y-56884750D01*
X57316000Y-56884750D01*
X57316000Y-57252310D01*
X57412673Y-57485699D01*
X57591302Y-57664327D01*
X57824691Y-57761000D01*
X58042250Y-57761000D01*
X58201000Y-57602250D01*
X58201000Y-56726000D01*
X58701000Y-56726000D01*
X58701000Y-57602250D01*
X58859750Y-57761000D01*
X59077309Y-57761000D01*
X59310698Y-57664327D01*
X59489327Y-57485699D01*
X59586000Y-57252310D01*
X59586000Y-56884750D01*
X59427250Y-56726000D01*
X58701000Y-56726000D01*
X58201000Y-56726000D01*
X57474750Y-56726000D01*
X57316000Y-56884750D01*
X42627000Y-56884750D01*
X42627000Y-56000000D01*
X42616994Y-55950590D01*
X42588553Y-55908965D01*
X42546159Y-55881685D01*
X42500000Y-55873000D01*
X41877000Y-55873000D01*
X41877000Y-55399690D01*
X57316000Y-55399690D01*
X57316000Y-55767250D01*
X57474750Y-55926000D01*
X58201000Y-55926000D01*
X58201000Y-55049750D01*
X58701000Y-55049750D01*
X58701000Y-55926000D01*
X59427250Y-55926000D01*
X59586000Y-55767250D01*
X59586000Y-55399690D01*
X59489327Y-55166301D01*
X59310698Y-54987673D01*
X59077309Y-54891000D01*
X58859750Y-54891000D01*
X58701000Y-55049750D01*
X58201000Y-55049750D01*
X58042250Y-54891000D01*
X57824691Y-54891000D01*
X57591302Y-54987673D01*
X57412673Y-55166301D01*
X57316000Y-55399690D01*
X41877000Y-55399690D01*
X41877000Y-52612500D01*
X42350000Y-52612500D01*
X42350000Y-53401250D01*
X42508750Y-53560000D01*
X42726309Y-53560000D01*
X42959698Y-53463327D01*
X43138327Y-53284699D01*
X43235000Y-53051310D01*
X43235000Y-52771250D01*
X43076250Y-52612500D01*
X42350000Y-52612500D01*
X41877000Y-52612500D01*
X41877000Y-51198750D01*
X42350000Y-51198750D01*
X42350000Y-51987500D01*
X43076250Y-51987500D01*
X43235000Y-51828750D01*
X43235000Y-51548690D01*
X43138327Y-51315301D01*
X42959698Y-51136673D01*
X42726309Y-51040000D01*
X42508750Y-51040000D01*
X42350000Y-51198750D01*
X41877000Y-51198750D01*
X41877000Y-47627000D01*
X48000000Y-47627000D01*
X48049410Y-47616994D01*
X48091035Y-47588553D01*
X48118315Y-47546159D01*
X48127000Y-47500000D01*
X48127000Y-44858825D01*
X49615000Y-44858825D01*
X49615000Y-45426460D01*
X49711673Y-45659849D01*
X49890302Y-45838477D01*
X50123691Y-45935150D01*
X51398250Y-45935150D01*
X51557000Y-45776400D01*
X51557000Y-44700075D01*
X53843000Y-44700075D01*
X53843000Y-45776400D01*
X54001750Y-45935150D01*
X55276309Y-45935150D01*
X55509698Y-45838477D01*
X55688327Y-45659849D01*
X55785000Y-45426460D01*
X55785000Y-44858825D01*
X55626250Y-44700075D01*
X53843000Y-44700075D01*
X51557000Y-44700075D01*
X49773750Y-44700075D01*
X49615000Y-44858825D01*
X48127000Y-44858825D01*
X48127000Y-42773540D01*
X49615000Y-42773540D01*
X49615000Y-43341175D01*
X49773750Y-43499925D01*
X51557000Y-43499925D01*
X51557000Y-42423600D01*
X53843000Y-42423600D01*
X53843000Y-43499925D01*
X55626250Y-43499925D01*
X55785000Y-43341175D01*
X55785000Y-43335250D01*
X57943000Y-43335250D01*
X57943000Y-43615310D01*
X58039673Y-43848699D01*
X58218302Y-44027327D01*
X58451691Y-44124000D01*
X58669250Y-44124000D01*
X58828000Y-43965250D01*
X58828000Y-43176500D01*
X58101750Y-43176500D01*
X57943000Y-43335250D01*
X55785000Y-43335250D01*
X55785000Y-42773540D01*
X55688327Y-42540151D01*
X55509698Y-42361523D01*
X55276309Y-42264850D01*
X54001750Y-42264850D01*
X53843000Y-42423600D01*
X51557000Y-42423600D01*
X51398250Y-42264850D01*
X50123691Y-42264850D01*
X49890302Y-42361523D01*
X49711673Y-42540151D01*
X49615000Y-42773540D01*
X48127000Y-42773540D01*
X48127000Y-42112690D01*
X57943000Y-42112690D01*
X57943000Y-42392750D01*
X58101750Y-42551500D01*
X58828000Y-42551500D01*
X58828000Y-41762750D01*
X58669250Y-41604000D01*
X58451691Y-41604000D01*
X58218302Y-41700673D01*
X58039673Y-41879301D01*
X57943000Y-42112690D01*
X48127000Y-42112690D01*
X48127000Y-40250000D01*
X48116994Y-40200590D01*
X48088553Y-40158965D01*
X48046159Y-40131685D01*
X48000000Y-40123000D01*
X41877000Y-40123000D01*
X41877000Y-39779250D01*
X57943000Y-39779250D01*
X57943000Y-40059310D01*
X58039673Y-40292699D01*
X58218302Y-40471327D01*
X58451691Y-40568000D01*
X58669250Y-40568000D01*
X58828000Y-40409250D01*
X58828000Y-39620500D01*
X58101750Y-39620500D01*
X57943000Y-39779250D01*
X41877000Y-39779250D01*
X41877000Y-38556690D01*
X57943000Y-38556690D01*
X57943000Y-38836750D01*
X58101750Y-38995500D01*
X58828000Y-38995500D01*
X58828000Y-38206750D01*
X58669250Y-38048000D01*
X58451691Y-38048000D01*
X58218302Y-38144673D01*
X58039673Y-38323301D01*
X57943000Y-38556690D01*
X41877000Y-38556690D01*
X41877000Y-38250000D01*
X41866994Y-38200590D01*
X41838553Y-38158965D01*
X41796159Y-38131685D01*
X41750000Y-38123000D01*
X37371920Y-38123000D01*
X37368315Y-38103841D01*
X37341035Y-38061447D01*
X37299410Y-38033006D01*
X37250000Y-38023000D01*
X26127000Y-38023000D01*
X26127000Y-36743002D01*
X26154757Y-36743002D01*
X26161673Y-36759699D01*
X26340302Y-36938327D01*
X26573691Y-37035000D01*
X26791250Y-37035000D01*
X26950000Y-36876250D01*
X26950000Y-36000000D01*
X27450000Y-36000000D01*
X27450000Y-36876250D01*
X27608750Y-37035000D01*
X27826309Y-37035000D01*
X28059698Y-36938327D01*
X28238327Y-36759699D01*
X28335000Y-36526310D01*
X28335000Y-36158750D01*
X28176250Y-36000000D01*
X27450000Y-36000000D01*
X26950000Y-36000000D01*
X26700000Y-36000000D01*
X26700000Y-35200000D01*
X26950000Y-35200000D01*
X26950000Y-34323750D01*
X27450000Y-34323750D01*
X27450000Y-35200000D01*
X28176250Y-35200000D01*
X28335000Y-35041250D01*
X28335000Y-34673690D01*
X28238327Y-34440301D01*
X28059698Y-34261673D01*
X27826309Y-34165000D01*
X27608750Y-34165000D01*
X27450000Y-34323750D01*
X26950000Y-34323750D01*
X26791250Y-34165000D01*
X26573691Y-34165000D01*
X26340302Y-34261673D01*
X26161673Y-34440301D01*
X26154757Y-34456998D01*
X26127000Y-34456998D01*
X26127000Y-34033140D01*
X32964570Y-34033140D01*
X32964570Y-34875729D01*
X33061243Y-35109118D01*
X33239871Y-35287747D01*
X33473260Y-35384420D01*
X33891035Y-35384420D01*
X34049785Y-35225670D01*
X34049785Y-33874390D01*
X34950215Y-33874390D01*
X34950215Y-35225670D01*
X35108965Y-35384420D01*
X35526740Y-35384420D01*
X35760129Y-35287747D01*
X35938757Y-35109118D01*
X36035430Y-34875729D01*
X36035430Y-34033140D01*
X35876680Y-33874390D01*
X34950215Y-33874390D01*
X34049785Y-33874390D01*
X33123320Y-33874390D01*
X32964570Y-34033140D01*
X26127000Y-34033140D01*
X26127000Y-32933140D01*
X38064570Y-32933140D01*
X38064570Y-33775729D01*
X38161243Y-34009118D01*
X38339871Y-34187747D01*
X38573260Y-34284420D01*
X38991035Y-34284420D01*
X39149785Y-34125670D01*
X39149785Y-32774390D01*
X40050215Y-32774390D01*
X40050215Y-34125670D01*
X40208965Y-34284420D01*
X40626740Y-34284420D01*
X40860129Y-34187747D01*
X41038757Y-34009118D01*
X41135430Y-33775729D01*
X41135430Y-32933140D01*
X40976680Y-32774390D01*
X40050215Y-32774390D01*
X39149785Y-32774390D01*
X38223320Y-32774390D01*
X38064570Y-32933140D01*
X26127000Y-32933140D01*
X26127000Y-32127000D01*
X33000000Y-32127000D01*
X33049410Y-32116994D01*
X33088960Y-32089970D01*
X33123320Y-32124330D01*
X34049785Y-32124330D01*
X34049785Y-31836360D01*
X34950215Y-31836360D01*
X34950215Y-32124330D01*
X35876680Y-32124330D01*
X36035430Y-31965580D01*
X36035430Y-31127000D01*
X37250000Y-31127000D01*
X37299410Y-31116994D01*
X37341035Y-31088553D01*
X37368315Y-31046159D01*
X37377000Y-31000000D01*
X37377000Y-29877000D01*
X38125042Y-29877000D01*
X38064570Y-30022991D01*
X38064570Y-30865580D01*
X38223320Y-31024330D01*
X39149785Y-31024330D01*
X39149785Y-30736360D01*
X40050215Y-30736360D01*
X40050215Y-31024330D01*
X40976680Y-31024330D01*
X41135430Y-30865580D01*
X41135430Y-30032580D01*
X61664850Y-30032580D01*
X61664850Y-30875169D01*
X61761523Y-31108558D01*
X61940151Y-31287187D01*
X62173540Y-31383860D01*
X62741175Y-31383860D01*
X62899925Y-31225110D01*
X62899925Y-29873830D01*
X64100075Y-29873830D01*
X64100075Y-31225110D01*
X64258825Y-31383860D01*
X64826460Y-31383860D01*
X65059849Y-31287187D01*
X65238477Y-31108558D01*
X65335150Y-30875169D01*
X65335150Y-30032580D01*
X65176400Y-29873830D01*
X64100075Y-29873830D01*
X62899925Y-29873830D01*
X61823600Y-29873830D01*
X61664850Y-30032580D01*
X41135430Y-30032580D01*
X41135430Y-30022991D01*
X41074958Y-29877000D01*
X41750000Y-29877000D01*
X41799410Y-29866994D01*
X41841035Y-29838553D01*
X41868315Y-29796159D01*
X41873062Y-29770925D01*
X69984915Y-29770925D01*
X70122849Y-30006526D01*
X70520786Y-30374037D01*
X70754128Y-30460000D01*
X70520786Y-30545963D01*
X70122849Y-30913474D01*
X69984915Y-31149075D01*
X70075350Y-31353445D01*
X71246255Y-31353445D01*
X71246255Y-30500468D01*
X71184255Y-30460000D01*
X71246255Y-30419532D01*
X71246255Y-29566555D01*
X72753745Y-29566555D01*
X72753745Y-30419532D01*
X72815745Y-30460000D01*
X72753745Y-30500468D01*
X72753745Y-31353445D01*
X73924650Y-31353445D01*
X74015085Y-31149075D01*
X73877151Y-30913474D01*
X73479214Y-30545963D01*
X73245872Y-30460000D01*
X73479214Y-30374037D01*
X73877151Y-30006526D01*
X74015085Y-29770925D01*
X73924650Y-29566555D01*
X72753745Y-29566555D01*
X71246255Y-29566555D01*
X70075350Y-29566555D01*
X69984915Y-29770925D01*
X41873062Y-29770925D01*
X41877000Y-29750000D01*
X41877000Y-28609075D01*
X69984915Y-28609075D01*
X70075350Y-28813445D01*
X71246255Y-28813445D01*
X71246255Y-27960468D01*
X72753745Y-27960468D01*
X72753745Y-28813445D01*
X73924650Y-28813445D01*
X74015085Y-28609075D01*
X73877151Y-28373474D01*
X73479214Y-28005963D01*
X72970928Y-27818711D01*
X72753745Y-27960468D01*
X71246255Y-27960468D01*
X71029072Y-27818711D01*
X70520786Y-28005963D01*
X70122849Y-28373474D01*
X69984915Y-28609075D01*
X41877000Y-28609075D01*
X41877000Y-27122431D01*
X61664850Y-27122431D01*
X61664850Y-27965020D01*
X61823600Y-28123770D01*
X62899925Y-28123770D01*
X62899925Y-26772490D01*
X64100075Y-26772490D01*
X64100075Y-28123770D01*
X65176400Y-28123770D01*
X65335150Y-27965020D01*
X65335150Y-27122431D01*
X65238477Y-26889042D01*
X65059849Y-26710413D01*
X64826460Y-26613740D01*
X64258825Y-26613740D01*
X64100075Y-26772490D01*
X62899925Y-26772490D01*
X62741175Y-26613740D01*
X62173540Y-26613740D01*
X61940151Y-26710413D01*
X61761523Y-26889042D01*
X61664850Y-27122431D01*
X41877000Y-27122431D01*
X41877000Y-25127000D01*
X77873000Y-25127000D01*
X77873000Y-32123000D01*
X77873000Y-32123000D01*
G37*
X77873000Y-32123000D02*
X73931927Y-32123000D01*
X73924650Y-32106555D01*
X72753745Y-32106555D01*
X72753745Y-32123000D01*
X71246255Y-32123000D01*
X71246255Y-32106555D01*
X70075350Y-32106555D01*
X70068073Y-32123000D01*
X59750000Y-32123000D01*
X59700590Y-32133006D01*
X59658965Y-32161447D01*
X59631685Y-32203841D01*
X59623000Y-32250000D01*
X59623000Y-38048000D01*
X59486750Y-38048000D01*
X59328000Y-38206750D01*
X59328000Y-38995500D01*
X59578000Y-38995500D01*
X59578000Y-39620500D01*
X59328000Y-39620500D01*
X59328000Y-40409250D01*
X59486750Y-40568000D01*
X59623000Y-40568000D01*
X59623000Y-41604000D01*
X59486750Y-41604000D01*
X59328000Y-41762750D01*
X59328000Y-42551500D01*
X59578000Y-42551500D01*
X59578000Y-43176500D01*
X59328000Y-43176500D01*
X59328000Y-43965250D01*
X59486750Y-44124000D01*
X59623000Y-44124000D01*
X59623000Y-61373000D01*
X31500000Y-61373000D01*
X31450590Y-61383006D01*
X31408965Y-61411447D01*
X31381685Y-61453841D01*
X31373000Y-61500000D01*
X31373000Y-64123000D01*
X31244949Y-64123000D01*
X31285000Y-64026309D01*
X31285000Y-63883750D01*
X31126250Y-63725000D01*
X30325000Y-63725000D01*
X30325000Y-63900000D01*
X29675000Y-63900000D01*
X29675000Y-63725000D01*
X28873750Y-63725000D01*
X28715000Y-63883750D01*
X28715000Y-64026309D01*
X28755051Y-64123000D01*
X28500000Y-64123000D01*
X28450590Y-64133006D01*
X28408965Y-64161447D01*
X28381685Y-64203841D01*
X28373000Y-64250000D01*
X28373000Y-76315000D01*
X685000Y-76315000D01*
X685000Y-70719874D01*
X1364370Y-70719874D01*
X1916600Y-72056372D01*
X2938249Y-73079806D01*
X4273782Y-73634368D01*
X5719874Y-73635630D01*
X7056372Y-73083400D01*
X8079806Y-72061751D01*
X8634368Y-70726218D01*
X8635630Y-69280126D01*
X8083400Y-67943628D01*
X7061751Y-66920194D01*
X5726218Y-66365632D01*
X4280126Y-66364370D01*
X2943628Y-66916600D01*
X1920194Y-67938249D01*
X1365632Y-69273782D01*
X1364370Y-70719874D01*
X685000Y-70719874D01*
X685000Y-64201750D01*
X16164850Y-64201750D01*
X16164850Y-65476309D01*
X16261523Y-65709698D01*
X16440151Y-65888327D01*
X16673540Y-65985000D01*
X17241175Y-65985000D01*
X17399925Y-65826250D01*
X17399925Y-64043000D01*
X18600075Y-64043000D01*
X18600075Y-65826250D01*
X18758825Y-65985000D01*
X19326460Y-65985000D01*
X19559849Y-65888327D01*
X19738477Y-65709698D01*
X19835150Y-65476309D01*
X19835150Y-64201750D01*
X19676400Y-64043000D01*
X18600075Y-64043000D01*
X17399925Y-64043000D01*
X16323600Y-64043000D01*
X16164850Y-64201750D01*
X685000Y-64201750D01*
X685000Y-63073691D01*
X28715000Y-63073691D01*
X28715000Y-63216250D01*
X28873750Y-63375000D01*
X29675000Y-63375000D01*
X29675000Y-62723750D01*
X30325000Y-62723750D01*
X30325000Y-63375000D01*
X31126250Y-63375000D01*
X31285000Y-63216250D01*
X31285000Y-63073691D01*
X31188327Y-62840302D01*
X31009699Y-62661673D01*
X30776310Y-62565000D01*
X30483750Y-62565000D01*
X30325000Y-62723750D01*
X29675000Y-62723750D01*
X29516250Y-62565000D01*
X29223690Y-62565000D01*
X28990301Y-62661673D01*
X28811673Y-62840302D01*
X28715000Y-63073691D01*
X685000Y-63073691D01*
X685000Y-60323691D01*
X16164850Y-60323691D01*
X16164850Y-61598250D01*
X16323600Y-61757000D01*
X17399925Y-61757000D01*
X17399925Y-59973750D01*
X18600075Y-59973750D01*
X18600075Y-61757000D01*
X19676400Y-61757000D01*
X19835150Y-61598250D01*
X19835150Y-60323691D01*
X19778428Y-60186750D01*
X57316000Y-60186750D01*
X57316000Y-60554310D01*
X57412673Y-60787699D01*
X57591302Y-60966327D01*
X57824691Y-61063000D01*
X58042250Y-61063000D01*
X58201000Y-60904250D01*
X58201000Y-60028000D01*
X58701000Y-60028000D01*
X58701000Y-60904250D01*
X58859750Y-61063000D01*
X59077309Y-61063000D01*
X59310698Y-60966327D01*
X59489327Y-60787699D01*
X59586000Y-60554310D01*
X59586000Y-60186750D01*
X59427250Y-60028000D01*
X58701000Y-60028000D01*
X58201000Y-60028000D01*
X57474750Y-60028000D01*
X57316000Y-60186750D01*
X19778428Y-60186750D01*
X19738477Y-60090302D01*
X19559849Y-59911673D01*
X19326460Y-59815000D01*
X18758825Y-59815000D01*
X18600075Y-59973750D01*
X17399925Y-59973750D01*
X17241175Y-59815000D01*
X16673540Y-59815000D01*
X16440151Y-59911673D01*
X16261523Y-60090302D01*
X16164850Y-60323691D01*
X685000Y-60323691D01*
X685000Y-51333140D01*
X4564570Y-51333140D01*
X4564570Y-52175729D01*
X4661243Y-52409118D01*
X4839871Y-52587747D01*
X5073260Y-52684420D01*
X5491035Y-52684420D01*
X5649785Y-52525670D01*
X5649785Y-51174390D01*
X6550215Y-51174390D01*
X6550215Y-52525670D01*
X6708965Y-52684420D01*
X7126740Y-52684420D01*
X7360129Y-52587747D01*
X7538757Y-52409118D01*
X7635430Y-52175729D01*
X7635430Y-51533140D01*
X8764570Y-51533140D01*
X8764570Y-52375729D01*
X8861243Y-52609118D01*
X9039871Y-52787747D01*
X9273260Y-52884420D01*
X9691035Y-52884420D01*
X9849785Y-52725670D01*
X9849785Y-51374390D01*
X8923320Y-51374390D01*
X8764570Y-51533140D01*
X7635430Y-51533140D01*
X7635430Y-51333140D01*
X7476680Y-51174390D01*
X6550215Y-51174390D01*
X5649785Y-51174390D01*
X4723320Y-51174390D01*
X4564570Y-51333140D01*
X685000Y-51333140D01*
X685000Y-49733750D01*
X1115000Y-49733750D01*
X1115000Y-49926309D01*
X1211673Y-50159698D01*
X1390301Y-50338327D01*
X1623690Y-50435000D01*
X2016250Y-50435000D01*
X2175000Y-50276250D01*
X2175000Y-49575000D01*
X3025000Y-49575000D01*
X3025000Y-50276250D01*
X3183750Y-50435000D01*
X3576310Y-50435000D01*
X3809699Y-50338327D01*
X3988327Y-50159698D01*
X4085000Y-49926309D01*
X4085000Y-49733750D01*
X3926250Y-49575000D01*
X3025000Y-49575000D01*
X2175000Y-49575000D01*
X1273750Y-49575000D01*
X1115000Y-49733750D01*
X685000Y-49733750D01*
X685000Y-48877000D01*
X1115000Y-48877000D01*
X1115000Y-48966250D01*
X1273750Y-49125000D01*
X2175000Y-49125000D01*
X2175000Y-48900000D01*
X3025000Y-48900000D01*
X3025000Y-49125000D01*
X3926250Y-49125000D01*
X4085000Y-48966250D01*
X4085000Y-48877000D01*
X4564570Y-48877000D01*
X4564570Y-49265580D01*
X4723320Y-49424330D01*
X5649785Y-49424330D01*
X5649785Y-49136360D01*
X6550215Y-49136360D01*
X6550215Y-49424330D01*
X7476680Y-49424330D01*
X7635430Y-49265580D01*
X7635430Y-48877000D01*
X8764570Y-48877000D01*
X8764570Y-49465580D01*
X8923320Y-49624330D01*
X9849785Y-49624330D01*
X9849785Y-49336360D01*
X10750215Y-49336360D01*
X10750215Y-49624330D01*
X11123000Y-49624330D01*
X11123000Y-51374390D01*
X10750215Y-51374390D01*
X10750215Y-52725670D01*
X10908965Y-52884420D01*
X11123000Y-52884420D01*
X11123000Y-59000000D01*
X11133006Y-59049410D01*
X11161447Y-59091035D01*
X11203841Y-59118315D01*
X11250000Y-59127000D01*
X25750000Y-59127000D01*
X25799410Y-59116994D01*
X25841035Y-59088553D01*
X25868315Y-59046159D01*
X25877000Y-59000000D01*
X25877000Y-57559250D01*
X26447000Y-57559250D01*
X26447000Y-57839310D01*
X26543673Y-58072699D01*
X26722302Y-58251327D01*
X26955691Y-58348000D01*
X27173250Y-58348000D01*
X27332000Y-58189250D01*
X27332000Y-57400500D01*
X26605750Y-57400500D01*
X26447000Y-57559250D01*
X25877000Y-57559250D01*
X25877000Y-56336690D01*
X26447000Y-56336690D01*
X26447000Y-56616750D01*
X26605750Y-56775500D01*
X27332000Y-56775500D01*
X27332000Y-56169250D01*
X27375000Y-56126250D01*
X27375000Y-55325000D01*
X26723750Y-55325000D01*
X26565000Y-55483750D01*
X26565000Y-55776310D01*
X26654527Y-55992447D01*
X26543673Y-56103301D01*
X26447000Y-56336690D01*
X25877000Y-56336690D01*
X25877000Y-54223690D01*
X26565000Y-54223690D01*
X26565000Y-54516250D01*
X26723750Y-54675000D01*
X27375000Y-54675000D01*
X27375000Y-53873750D01*
X27216250Y-53715000D01*
X27073691Y-53715000D01*
X26840302Y-53811673D01*
X26661673Y-53990301D01*
X26565000Y-54223690D01*
X25877000Y-54223690D01*
X25877000Y-51377000D01*
X27873000Y-51377000D01*
X27873000Y-53725750D01*
X27725000Y-53873750D01*
X27725000Y-54675000D01*
X27873000Y-54675000D01*
X27873000Y-55325000D01*
X27725000Y-55325000D01*
X27725000Y-56126250D01*
X27832000Y-56233250D01*
X27832000Y-56775500D01*
X27873000Y-56775500D01*
X27873000Y-57400500D01*
X27832000Y-57400500D01*
X27832000Y-58189250D01*
X27873000Y-58230250D01*
X27873000Y-59000000D01*
X27883006Y-59049410D01*
X27911447Y-59091035D01*
X27953841Y-59118315D01*
X28000000Y-59127000D01*
X42500000Y-59127000D01*
X42549410Y-59116994D01*
X42591035Y-59088553D01*
X42618315Y-59046159D01*
X42627000Y-59000000D01*
X42627000Y-58701690D01*
X57316000Y-58701690D01*
X57316000Y-59069250D01*
X57474750Y-59228000D01*
X58201000Y-59228000D01*
X58201000Y-58351750D01*
X58701000Y-58351750D01*
X58701000Y-59228000D01*
X59427250Y-59228000D01*
X59586000Y-59069250D01*
X59586000Y-58701690D01*
X59489327Y-58468301D01*
X59310698Y-58289673D01*
X59077309Y-58193000D01*
X58859750Y-58193000D01*
X58701000Y-58351750D01*
X58201000Y-58351750D01*
X58042250Y-58193000D01*
X57824691Y-58193000D01*
X57591302Y-58289673D01*
X57412673Y-58468301D01*
X57316000Y-58701690D01*
X42627000Y-58701690D01*
X42627000Y-56884750D01*
X57316000Y-56884750D01*
X57316000Y-57252310D01*
X57412673Y-57485699D01*
X57591302Y-57664327D01*
X57824691Y-57761000D01*
X58042250Y-57761000D01*
X58201000Y-57602250D01*
X58201000Y-56726000D01*
X58701000Y-56726000D01*
X58701000Y-57602250D01*
X58859750Y-57761000D01*
X59077309Y-57761000D01*
X59310698Y-57664327D01*
X59489327Y-57485699D01*
X59586000Y-57252310D01*
X59586000Y-56884750D01*
X59427250Y-56726000D01*
X58701000Y-56726000D01*
X58201000Y-56726000D01*
X57474750Y-56726000D01*
X57316000Y-56884750D01*
X42627000Y-56884750D01*
X42627000Y-56000000D01*
X42616994Y-55950590D01*
X42588553Y-55908965D01*
X42546159Y-55881685D01*
X42500000Y-55873000D01*
X41877000Y-55873000D01*
X41877000Y-55399690D01*
X57316000Y-55399690D01*
X57316000Y-55767250D01*
X57474750Y-55926000D01*
X58201000Y-55926000D01*
X58201000Y-55049750D01*
X58701000Y-55049750D01*
X58701000Y-55926000D01*
X59427250Y-55926000D01*
X59586000Y-55767250D01*
X59586000Y-55399690D01*
X59489327Y-55166301D01*
X59310698Y-54987673D01*
X59077309Y-54891000D01*
X58859750Y-54891000D01*
X58701000Y-55049750D01*
X58201000Y-55049750D01*
X58042250Y-54891000D01*
X57824691Y-54891000D01*
X57591302Y-54987673D01*
X57412673Y-55166301D01*
X57316000Y-55399690D01*
X41877000Y-55399690D01*
X41877000Y-52612500D01*
X42350000Y-52612500D01*
X42350000Y-53401250D01*
X42508750Y-53560000D01*
X42726309Y-53560000D01*
X42959698Y-53463327D01*
X43138327Y-53284699D01*
X43235000Y-53051310D01*
X43235000Y-52771250D01*
X43076250Y-52612500D01*
X42350000Y-52612500D01*
X41877000Y-52612500D01*
X41877000Y-51198750D01*
X42350000Y-51198750D01*
X42350000Y-51987500D01*
X43076250Y-51987500D01*
X43235000Y-51828750D01*
X43235000Y-51548690D01*
X43138327Y-51315301D01*
X42959698Y-51136673D01*
X42726309Y-51040000D01*
X42508750Y-51040000D01*
X42350000Y-51198750D01*
X41877000Y-51198750D01*
X41877000Y-47627000D01*
X48000000Y-47627000D01*
X48049410Y-47616994D01*
X48091035Y-47588553D01*
X48118315Y-47546159D01*
X48127000Y-47500000D01*
X48127000Y-44858825D01*
X49615000Y-44858825D01*
X49615000Y-45426460D01*
X49711673Y-45659849D01*
X49890302Y-45838477D01*
X50123691Y-45935150D01*
X51398250Y-45935150D01*
X51557000Y-45776400D01*
X51557000Y-44700075D01*
X53843000Y-44700075D01*
X53843000Y-45776400D01*
X54001750Y-45935150D01*
X55276309Y-45935150D01*
X55509698Y-45838477D01*
X55688327Y-45659849D01*
X55785000Y-45426460D01*
X55785000Y-44858825D01*
X55626250Y-44700075D01*
X53843000Y-44700075D01*
X51557000Y-44700075D01*
X49773750Y-44700075D01*
X49615000Y-44858825D01*
X48127000Y-44858825D01*
X48127000Y-42773540D01*
X49615000Y-42773540D01*
X49615000Y-43341175D01*
X49773750Y-43499925D01*
X51557000Y-43499925D01*
X51557000Y-42423600D01*
X53843000Y-42423600D01*
X53843000Y-43499925D01*
X55626250Y-43499925D01*
X55785000Y-43341175D01*
X55785000Y-43335250D01*
X57943000Y-43335250D01*
X57943000Y-43615310D01*
X58039673Y-43848699D01*
X58218302Y-44027327D01*
X58451691Y-44124000D01*
X58669250Y-44124000D01*
X58828000Y-43965250D01*
X58828000Y-43176500D01*
X58101750Y-43176500D01*
X57943000Y-43335250D01*
X55785000Y-43335250D01*
X55785000Y-42773540D01*
X55688327Y-42540151D01*
X55509698Y-42361523D01*
X55276309Y-42264850D01*
X54001750Y-42264850D01*
X53843000Y-42423600D01*
X51557000Y-42423600D01*
X51398250Y-42264850D01*
X50123691Y-42264850D01*
X49890302Y-42361523D01*
X49711673Y-42540151D01*
X49615000Y-42773540D01*
X48127000Y-42773540D01*
X48127000Y-42112690D01*
X57943000Y-42112690D01*
X57943000Y-42392750D01*
X58101750Y-42551500D01*
X58828000Y-42551500D01*
X58828000Y-41762750D01*
X58669250Y-41604000D01*
X58451691Y-41604000D01*
X58218302Y-41700673D01*
X58039673Y-41879301D01*
X57943000Y-42112690D01*
X48127000Y-42112690D01*
X48127000Y-40250000D01*
X48116994Y-40200590D01*
X48088553Y-40158965D01*
X48046159Y-40131685D01*
X48000000Y-40123000D01*
X41877000Y-40123000D01*
X41877000Y-39779250D01*
X57943000Y-39779250D01*
X57943000Y-40059310D01*
X58039673Y-40292699D01*
X58218302Y-40471327D01*
X58451691Y-40568000D01*
X58669250Y-40568000D01*
X58828000Y-40409250D01*
X58828000Y-39620500D01*
X58101750Y-39620500D01*
X57943000Y-39779250D01*
X41877000Y-39779250D01*
X41877000Y-38556690D01*
X57943000Y-38556690D01*
X57943000Y-38836750D01*
X58101750Y-38995500D01*
X58828000Y-38995500D01*
X58828000Y-38206750D01*
X58669250Y-38048000D01*
X58451691Y-38048000D01*
X58218302Y-38144673D01*
X58039673Y-38323301D01*
X57943000Y-38556690D01*
X41877000Y-38556690D01*
X41877000Y-38250000D01*
X41866994Y-38200590D01*
X41838553Y-38158965D01*
X41796159Y-38131685D01*
X41750000Y-38123000D01*
X37371920Y-38123000D01*
X37368315Y-38103841D01*
X37341035Y-38061447D01*
X37299410Y-38033006D01*
X37250000Y-38023000D01*
X26127000Y-38023000D01*
X26127000Y-36743002D01*
X26154757Y-36743002D01*
X26161673Y-36759699D01*
X26340302Y-36938327D01*
X26573691Y-37035000D01*
X26791250Y-37035000D01*
X26950000Y-36876250D01*
X26950000Y-36000000D01*
X27450000Y-36000000D01*
X27450000Y-36876250D01*
X27608750Y-37035000D01*
X27826309Y-37035000D01*
X28059698Y-36938327D01*
X28238327Y-36759699D01*
X28335000Y-36526310D01*
X28335000Y-36158750D01*
X28176250Y-36000000D01*
X27450000Y-36000000D01*
X26950000Y-36000000D01*
X26700000Y-36000000D01*
X26700000Y-35200000D01*
X26950000Y-35200000D01*
X26950000Y-34323750D01*
X27450000Y-34323750D01*
X27450000Y-35200000D01*
X28176250Y-35200000D01*
X28335000Y-35041250D01*
X28335000Y-34673690D01*
X28238327Y-34440301D01*
X28059698Y-34261673D01*
X27826309Y-34165000D01*
X27608750Y-34165000D01*
X27450000Y-34323750D01*
X26950000Y-34323750D01*
X26791250Y-34165000D01*
X26573691Y-34165000D01*
X26340302Y-34261673D01*
X26161673Y-34440301D01*
X26154757Y-34456998D01*
X26127000Y-34456998D01*
X26127000Y-34033140D01*
X32964570Y-34033140D01*
X32964570Y-34875729D01*
X33061243Y-35109118D01*
X33239871Y-35287747D01*
X33473260Y-35384420D01*
X33891035Y-35384420D01*
X34049785Y-35225670D01*
X34049785Y-33874390D01*
X34950215Y-33874390D01*
X34950215Y-35225670D01*
X35108965Y-35384420D01*
X35526740Y-35384420D01*
X35760129Y-35287747D01*
X35938757Y-35109118D01*
X36035430Y-34875729D01*
X36035430Y-34033140D01*
X35876680Y-33874390D01*
X34950215Y-33874390D01*
X34049785Y-33874390D01*
X33123320Y-33874390D01*
X32964570Y-34033140D01*
X26127000Y-34033140D01*
X26127000Y-32933140D01*
X38064570Y-32933140D01*
X38064570Y-33775729D01*
X38161243Y-34009118D01*
X38339871Y-34187747D01*
X38573260Y-34284420D01*
X38991035Y-34284420D01*
X39149785Y-34125670D01*
X39149785Y-32774390D01*
X40050215Y-32774390D01*
X40050215Y-34125670D01*
X40208965Y-34284420D01*
X40626740Y-34284420D01*
X40860129Y-34187747D01*
X41038757Y-34009118D01*
X41135430Y-33775729D01*
X41135430Y-32933140D01*
X40976680Y-32774390D01*
X40050215Y-32774390D01*
X39149785Y-32774390D01*
X38223320Y-32774390D01*
X38064570Y-32933140D01*
X26127000Y-32933140D01*
X26127000Y-32127000D01*
X33000000Y-32127000D01*
X33049410Y-32116994D01*
X33088960Y-32089970D01*
X33123320Y-32124330D01*
X34049785Y-32124330D01*
X34049785Y-31836360D01*
X34950215Y-31836360D01*
X34950215Y-32124330D01*
X35876680Y-32124330D01*
X36035430Y-31965580D01*
X36035430Y-31127000D01*
X37250000Y-31127000D01*
X37299410Y-31116994D01*
X37341035Y-31088553D01*
X37368315Y-31046159D01*
X37377000Y-31000000D01*
X37377000Y-29877000D01*
X38125042Y-29877000D01*
X38064570Y-30022991D01*
X38064570Y-30865580D01*
X38223320Y-31024330D01*
X39149785Y-31024330D01*
X39149785Y-30736360D01*
X40050215Y-30736360D01*
X40050215Y-31024330D01*
X40976680Y-31024330D01*
X41135430Y-30865580D01*
X41135430Y-30032580D01*
X61664850Y-30032580D01*
X61664850Y-30875169D01*
X61761523Y-31108558D01*
X61940151Y-31287187D01*
X62173540Y-31383860D01*
X62741175Y-31383860D01*
X62899925Y-31225110D01*
X62899925Y-29873830D01*
X64100075Y-29873830D01*
X64100075Y-31225110D01*
X64258825Y-31383860D01*
X64826460Y-31383860D01*
X65059849Y-31287187D01*
X65238477Y-31108558D01*
X65335150Y-30875169D01*
X65335150Y-30032580D01*
X65176400Y-29873830D01*
X64100075Y-29873830D01*
X62899925Y-29873830D01*
X61823600Y-29873830D01*
X61664850Y-30032580D01*
X41135430Y-30032580D01*
X41135430Y-30022991D01*
X41074958Y-29877000D01*
X41750000Y-29877000D01*
X41799410Y-29866994D01*
X41841035Y-29838553D01*
X41868315Y-29796159D01*
X41873062Y-29770925D01*
X69984915Y-29770925D01*
X70122849Y-30006526D01*
X70520786Y-30374037D01*
X70754128Y-30460000D01*
X70520786Y-30545963D01*
X70122849Y-30913474D01*
X69984915Y-31149075D01*
X70075350Y-31353445D01*
X71246255Y-31353445D01*
X71246255Y-30500468D01*
X71184255Y-30460000D01*
X71246255Y-30419532D01*
X71246255Y-29566555D01*
X72753745Y-29566555D01*
X72753745Y-30419532D01*
X72815745Y-30460000D01*
X72753745Y-30500468D01*
X72753745Y-31353445D01*
X73924650Y-31353445D01*
X74015085Y-31149075D01*
X73877151Y-30913474D01*
X73479214Y-30545963D01*
X73245872Y-30460000D01*
X73479214Y-30374037D01*
X73877151Y-30006526D01*
X74015085Y-29770925D01*
X73924650Y-29566555D01*
X72753745Y-29566555D01*
X71246255Y-29566555D01*
X70075350Y-29566555D01*
X69984915Y-29770925D01*
X41873062Y-29770925D01*
X41877000Y-29750000D01*
X41877000Y-28609075D01*
X69984915Y-28609075D01*
X70075350Y-28813445D01*
X71246255Y-28813445D01*
X71246255Y-27960468D01*
X72753745Y-27960468D01*
X72753745Y-28813445D01*
X73924650Y-28813445D01*
X74015085Y-28609075D01*
X73877151Y-28373474D01*
X73479214Y-28005963D01*
X72970928Y-27818711D01*
X72753745Y-27960468D01*
X71246255Y-27960468D01*
X71029072Y-27818711D01*
X70520786Y-28005963D01*
X70122849Y-28373474D01*
X69984915Y-28609075D01*
X41877000Y-28609075D01*
X41877000Y-27122431D01*
X61664850Y-27122431D01*
X61664850Y-27965020D01*
X61823600Y-28123770D01*
X62899925Y-28123770D01*
X62899925Y-26772490D01*
X64100075Y-26772490D01*
X64100075Y-28123770D01*
X65176400Y-28123770D01*
X65335150Y-27965020D01*
X65335150Y-27122431D01*
X65238477Y-26889042D01*
X65059849Y-26710413D01*
X64826460Y-26613740D01*
X64258825Y-26613740D01*
X64100075Y-26772490D01*
X62899925Y-26772490D01*
X62741175Y-26613740D01*
X62173540Y-26613740D01*
X61940151Y-26710413D01*
X61761523Y-26889042D01*
X61664850Y-27122431D01*
X41877000Y-27122431D01*
X41877000Y-25127000D01*
X77873000Y-25127000D01*
X77873000Y-32123000D01*
G36*
X40393000Y-41000000D02*
X40403006Y-41049410D01*
X40431447Y-41091035D01*
X40473841Y-41118315D01*
X40520000Y-41127000D01*
X46873000Y-41127000D01*
X46873000Y-46373000D01*
X40520000Y-46373000D01*
X40470590Y-46383006D01*
X40428965Y-46411447D01*
X40401685Y-46453841D01*
X40393000Y-46500000D01*
X40393000Y-51155750D01*
X40350000Y-51198750D01*
X40350000Y-51987500D01*
X40393000Y-51987500D01*
X40393000Y-52612500D01*
X40350000Y-52612500D01*
X40350000Y-53401250D01*
X40393000Y-53444250D01*
X40393000Y-55945000D01*
X38234000Y-55945000D01*
X38184590Y-55955006D01*
X38142965Y-55983447D01*
X38115685Y-56025841D01*
X38107000Y-56072000D01*
X38107000Y-56466364D01*
X37972569Y-56663110D01*
X37962983Y-56710446D01*
X37930590Y-56717006D01*
X37888965Y-56745447D01*
X37861685Y-56787841D01*
X37853000Y-56834000D01*
X37853000Y-58231000D01*
X37345000Y-58231000D01*
X37345000Y-56326000D01*
X37334994Y-56276590D01*
X37318248Y-56248030D01*
X35540248Y-53962030D01*
X35502015Y-53929171D01*
X35440000Y-53913000D01*
X33143002Y-53913000D01*
X33143002Y-53805023D01*
X33188327Y-53759698D01*
X33285000Y-53526309D01*
X33285000Y-53383750D01*
X33126250Y-53225000D01*
X32325000Y-53225000D01*
X32325000Y-53400000D01*
X31675000Y-53400000D01*
X31675000Y-53225000D01*
X31350000Y-53225000D01*
X31350000Y-52875000D01*
X31675000Y-52875000D01*
X31675000Y-52223750D01*
X32325000Y-52223750D01*
X32325000Y-52875000D01*
X33126250Y-52875000D01*
X33230000Y-52771250D01*
X38965000Y-52771250D01*
X38965000Y-53051310D01*
X39061673Y-53284699D01*
X39240302Y-53463327D01*
X39473691Y-53560000D01*
X39691250Y-53560000D01*
X39850000Y-53401250D01*
X39850000Y-52612500D01*
X39123750Y-52612500D01*
X38965000Y-52771250D01*
X33230000Y-52771250D01*
X33285000Y-52716250D01*
X33285000Y-52573691D01*
X33188327Y-52340302D01*
X33009699Y-52161673D01*
X32776310Y-52065000D01*
X32483750Y-52065000D01*
X32325000Y-52223750D01*
X31675000Y-52223750D01*
X31516250Y-52065000D01*
X31350000Y-52065000D01*
X31350000Y-51906998D01*
X31035000Y-51906998D01*
X31035000Y-51548690D01*
X38965000Y-51548690D01*
X38965000Y-51828750D01*
X39123750Y-51987500D01*
X39850000Y-51987500D01*
X39850000Y-51198750D01*
X39691250Y-51040000D01*
X39473691Y-51040000D01*
X39240302Y-51136673D01*
X39061673Y-51315301D01*
X38965000Y-51548690D01*
X31035000Y-51548690D01*
X31035000Y-51277000D01*
X37250000Y-51277000D01*
X37296159Y-51268315D01*
X37338553Y-51241035D01*
X37366994Y-51199410D01*
X37377000Y-51150000D01*
X37377000Y-47400000D01*
X37368315Y-47353841D01*
X37341035Y-47311447D01*
X37299410Y-47283006D01*
X37250000Y-47273000D01*
X35377000Y-47273000D01*
X35377000Y-44858825D01*
X40315000Y-44858825D01*
X40315000Y-45426460D01*
X40411673Y-45659849D01*
X40590302Y-45838477D01*
X40823691Y-45935150D01*
X42098250Y-45935150D01*
X42257000Y-45776400D01*
X42257000Y-44700075D01*
X44543000Y-44700075D01*
X44543000Y-45776400D01*
X44701750Y-45935150D01*
X45976309Y-45935150D01*
X46209698Y-45838477D01*
X46388327Y-45659849D01*
X46485000Y-45426460D01*
X46485000Y-44858825D01*
X46326250Y-44700075D01*
X44543000Y-44700075D01*
X42257000Y-44700075D01*
X40473750Y-44700075D01*
X40315000Y-44858825D01*
X35377000Y-44858825D01*
X35377000Y-42773540D01*
X40315000Y-42773540D01*
X40315000Y-43341175D01*
X40473750Y-43499925D01*
X42257000Y-43499925D01*
X42257000Y-42423600D01*
X44543000Y-42423600D01*
X44543000Y-43499925D01*
X46326250Y-43499925D01*
X46485000Y-43341175D01*
X46485000Y-42773540D01*
X46388327Y-42540151D01*
X46209698Y-42361523D01*
X45976309Y-42264850D01*
X44701750Y-42264850D01*
X44543000Y-42423600D01*
X42257000Y-42423600D01*
X42098250Y-42264850D01*
X40823691Y-42264850D01*
X40590302Y-42361523D01*
X40411673Y-42540151D01*
X40315000Y-42773540D01*
X35377000Y-42773540D01*
X35377000Y-42027000D01*
X37250000Y-42027000D01*
X37296159Y-42018315D01*
X37338553Y-41991035D01*
X37366994Y-41949410D01*
X37377000Y-41900000D01*
X37377000Y-40197000D01*
X40393000Y-40197000D01*
X40393000Y-41000000D01*
X40393000Y-41000000D01*
G37*
X40393000Y-41000000D02*
X40403006Y-41049410D01*
X40431447Y-41091035D01*
X40473841Y-41118315D01*
X40520000Y-41127000D01*
X46873000Y-41127000D01*
X46873000Y-46373000D01*
X40520000Y-46373000D01*
X40470590Y-46383006D01*
X40428965Y-46411447D01*
X40401685Y-46453841D01*
X40393000Y-46500000D01*
X40393000Y-51155750D01*
X40350000Y-51198750D01*
X40350000Y-51987500D01*
X40393000Y-51987500D01*
X40393000Y-52612500D01*
X40350000Y-52612500D01*
X40350000Y-53401250D01*
X40393000Y-53444250D01*
X40393000Y-55945000D01*
X38234000Y-55945000D01*
X38184590Y-55955006D01*
X38142965Y-55983447D01*
X38115685Y-56025841D01*
X38107000Y-56072000D01*
X38107000Y-56466364D01*
X37972569Y-56663110D01*
X37962983Y-56710446D01*
X37930590Y-56717006D01*
X37888965Y-56745447D01*
X37861685Y-56787841D01*
X37853000Y-56834000D01*
X37853000Y-58231000D01*
X37345000Y-58231000D01*
X37345000Y-56326000D01*
X37334994Y-56276590D01*
X37318248Y-56248030D01*
X35540248Y-53962030D01*
X35502015Y-53929171D01*
X35440000Y-53913000D01*
X33143002Y-53913000D01*
X33143002Y-53805023D01*
X33188327Y-53759698D01*
X33285000Y-53526309D01*
X33285000Y-53383750D01*
X33126250Y-53225000D01*
X32325000Y-53225000D01*
X32325000Y-53400000D01*
X31675000Y-53400000D01*
X31675000Y-53225000D01*
X31350000Y-53225000D01*
X31350000Y-52875000D01*
X31675000Y-52875000D01*
X31675000Y-52223750D01*
X32325000Y-52223750D01*
X32325000Y-52875000D01*
X33126250Y-52875000D01*
X33230000Y-52771250D01*
X38965000Y-52771250D01*
X38965000Y-53051310D01*
X39061673Y-53284699D01*
X39240302Y-53463327D01*
X39473691Y-53560000D01*
X39691250Y-53560000D01*
X39850000Y-53401250D01*
X39850000Y-52612500D01*
X39123750Y-52612500D01*
X38965000Y-52771250D01*
X33230000Y-52771250D01*
X33285000Y-52716250D01*
X33285000Y-52573691D01*
X33188327Y-52340302D01*
X33009699Y-52161673D01*
X32776310Y-52065000D01*
X32483750Y-52065000D01*
X32325000Y-52223750D01*
X31675000Y-52223750D01*
X31516250Y-52065000D01*
X31350000Y-52065000D01*
X31350000Y-51906998D01*
X31035000Y-51906998D01*
X31035000Y-51548690D01*
X38965000Y-51548690D01*
X38965000Y-51828750D01*
X39123750Y-51987500D01*
X39850000Y-51987500D01*
X39850000Y-51198750D01*
X39691250Y-51040000D01*
X39473691Y-51040000D01*
X39240302Y-51136673D01*
X39061673Y-51315301D01*
X38965000Y-51548690D01*
X31035000Y-51548690D01*
X31035000Y-51277000D01*
X37250000Y-51277000D01*
X37296159Y-51268315D01*
X37338553Y-51241035D01*
X37366994Y-51199410D01*
X37377000Y-51150000D01*
X37377000Y-47400000D01*
X37368315Y-47353841D01*
X37341035Y-47311447D01*
X37299410Y-47283006D01*
X37250000Y-47273000D01*
X35377000Y-47273000D01*
X35377000Y-44858825D01*
X40315000Y-44858825D01*
X40315000Y-45426460D01*
X40411673Y-45659849D01*
X40590302Y-45838477D01*
X40823691Y-45935150D01*
X42098250Y-45935150D01*
X42257000Y-45776400D01*
X42257000Y-44700075D01*
X44543000Y-44700075D01*
X44543000Y-45776400D01*
X44701750Y-45935150D01*
X45976309Y-45935150D01*
X46209698Y-45838477D01*
X46388327Y-45659849D01*
X46485000Y-45426460D01*
X46485000Y-44858825D01*
X46326250Y-44700075D01*
X44543000Y-44700075D01*
X42257000Y-44700075D01*
X40473750Y-44700075D01*
X40315000Y-44858825D01*
X35377000Y-44858825D01*
X35377000Y-42773540D01*
X40315000Y-42773540D01*
X40315000Y-43341175D01*
X40473750Y-43499925D01*
X42257000Y-43499925D01*
X42257000Y-42423600D01*
X44543000Y-42423600D01*
X44543000Y-43499925D01*
X46326250Y-43499925D01*
X46485000Y-43341175D01*
X46485000Y-42773540D01*
X46388327Y-42540151D01*
X46209698Y-42361523D01*
X45976309Y-42264850D01*
X44701750Y-42264850D01*
X44543000Y-42423600D01*
X42257000Y-42423600D01*
X42098250Y-42264850D01*
X40823691Y-42264850D01*
X40590302Y-42361523D01*
X40411673Y-42540151D01*
X40315000Y-42773540D01*
X35377000Y-42773540D01*
X35377000Y-42027000D01*
X37250000Y-42027000D01*
X37296159Y-42018315D01*
X37338553Y-41991035D01*
X37366994Y-41949410D01*
X37377000Y-41900000D01*
X37377000Y-40197000D01*
X40393000Y-40197000D01*
X40393000Y-41000000D01*
G36*
X67231910Y-51245365D02*
X68079000Y-51245365D01*
X68079000Y-52008000D01*
X68089006Y-52057410D01*
X68117447Y-52099035D01*
X68159841Y-52126315D01*
X68206104Y-52135000D01*
X77873000Y-52127104D01*
X77873000Y-76315000D01*
X60877000Y-76315000D01*
X60877000Y-70719874D01*
X68364370Y-70719874D01*
X68916600Y-72056372D01*
X69938249Y-73079806D01*
X71273782Y-73634368D01*
X72719874Y-73635630D01*
X74056372Y-73083400D01*
X75079806Y-72061751D01*
X75634368Y-70726218D01*
X75635630Y-69280126D01*
X75083400Y-67943628D01*
X74061751Y-66920194D01*
X72726218Y-66365632D01*
X71280126Y-66364370D01*
X69943628Y-66916600D01*
X68920194Y-67938249D01*
X68365632Y-69273782D01*
X68364370Y-70719874D01*
X60877000Y-70719874D01*
X60877000Y-61063000D01*
X61042250Y-61063000D01*
X61201000Y-60904250D01*
X61201000Y-60028000D01*
X61701000Y-60028000D01*
X61701000Y-60904250D01*
X61859750Y-61063000D01*
X62077309Y-61063000D01*
X62310698Y-60966327D01*
X62489327Y-60787699D01*
X62586000Y-60554310D01*
X62586000Y-60186750D01*
X62427250Y-60028000D01*
X61701000Y-60028000D01*
X61201000Y-60028000D01*
X60951000Y-60028000D01*
X60951000Y-59228000D01*
X61201000Y-59228000D01*
X61201000Y-58351750D01*
X61701000Y-58351750D01*
X61701000Y-59228000D01*
X62427250Y-59228000D01*
X62586000Y-59069250D01*
X62586000Y-58701690D01*
X62489327Y-58468301D01*
X62310698Y-58289673D01*
X62077309Y-58193000D01*
X61859750Y-58193000D01*
X61701000Y-58351750D01*
X61201000Y-58351750D01*
X61042250Y-58193000D01*
X60861808Y-58193000D01*
X60838553Y-58158965D01*
X60796159Y-58131685D01*
X60750000Y-58123000D01*
X60627000Y-58123000D01*
X60627000Y-57679114D01*
X60824691Y-57761000D01*
X61042250Y-57761000D01*
X61201000Y-57602250D01*
X61201000Y-56726000D01*
X61701000Y-56726000D01*
X61701000Y-57602250D01*
X61859750Y-57761000D01*
X62077309Y-57761000D01*
X62310698Y-57664327D01*
X62489327Y-57485699D01*
X62586000Y-57252310D01*
X62586000Y-56884750D01*
X62427250Y-56726000D01*
X61701000Y-56726000D01*
X61201000Y-56726000D01*
X60951000Y-56726000D01*
X60951000Y-55926000D01*
X61201000Y-55926000D01*
X61201000Y-55049750D01*
X61701000Y-55049750D01*
X61701000Y-55926000D01*
X62427250Y-55926000D01*
X62586000Y-55767250D01*
X62586000Y-55399690D01*
X62489327Y-55166301D01*
X62310698Y-54987673D01*
X62077309Y-54891000D01*
X61859750Y-54891000D01*
X61701000Y-55049750D01*
X61201000Y-55049750D01*
X61042250Y-54891000D01*
X60824691Y-54891000D01*
X60627000Y-54972886D01*
X60627000Y-53203705D01*
X64947180Y-53203705D01*
X64947180Y-54071059D01*
X65043853Y-54304448D01*
X65222481Y-54483077D01*
X65455870Y-54579750D01*
X65973340Y-54579750D01*
X66132090Y-54421000D01*
X66132090Y-53044955D01*
X67231910Y-53044955D01*
X67231910Y-54421000D01*
X67390660Y-54579750D01*
X67908130Y-54579750D01*
X68141519Y-54483077D01*
X68320147Y-54304448D01*
X68416820Y-54071059D01*
X68416820Y-53203705D01*
X68258070Y-53044955D01*
X67231910Y-53044955D01*
X66132090Y-53044955D01*
X65105930Y-53044955D01*
X64947180Y-53203705D01*
X60627000Y-53203705D01*
X60627000Y-52127218D01*
X65157782Y-52135000D01*
X65207209Y-52125079D01*
X65248882Y-52096710D01*
X65276235Y-52054362D01*
X65285000Y-52008000D01*
X65285000Y-51245365D01*
X66132090Y-51245365D01*
X66132090Y-50982160D01*
X67231910Y-50982160D01*
X67231910Y-51245365D01*
X67231910Y-51245365D01*
G37*
X67231910Y-51245365D02*
X68079000Y-51245365D01*
X68079000Y-52008000D01*
X68089006Y-52057410D01*
X68117447Y-52099035D01*
X68159841Y-52126315D01*
X68206104Y-52135000D01*
X77873000Y-52127104D01*
X77873000Y-76315000D01*
X60877000Y-76315000D01*
X60877000Y-70719874D01*
X68364370Y-70719874D01*
X68916600Y-72056372D01*
X69938249Y-73079806D01*
X71273782Y-73634368D01*
X72719874Y-73635630D01*
X74056372Y-73083400D01*
X75079806Y-72061751D01*
X75634368Y-70726218D01*
X75635630Y-69280126D01*
X75083400Y-67943628D01*
X74061751Y-66920194D01*
X72726218Y-66365632D01*
X71280126Y-66364370D01*
X69943628Y-66916600D01*
X68920194Y-67938249D01*
X68365632Y-69273782D01*
X68364370Y-70719874D01*
X60877000Y-70719874D01*
X60877000Y-61063000D01*
X61042250Y-61063000D01*
X61201000Y-60904250D01*
X61201000Y-60028000D01*
X61701000Y-60028000D01*
X61701000Y-60904250D01*
X61859750Y-61063000D01*
X62077309Y-61063000D01*
X62310698Y-60966327D01*
X62489327Y-60787699D01*
X62586000Y-60554310D01*
X62586000Y-60186750D01*
X62427250Y-60028000D01*
X61701000Y-60028000D01*
X61201000Y-60028000D01*
X60951000Y-60028000D01*
X60951000Y-59228000D01*
X61201000Y-59228000D01*
X61201000Y-58351750D01*
X61701000Y-58351750D01*
X61701000Y-59228000D01*
X62427250Y-59228000D01*
X62586000Y-59069250D01*
X62586000Y-58701690D01*
X62489327Y-58468301D01*
X62310698Y-58289673D01*
X62077309Y-58193000D01*
X61859750Y-58193000D01*
X61701000Y-58351750D01*
X61201000Y-58351750D01*
X61042250Y-58193000D01*
X60861808Y-58193000D01*
X60838553Y-58158965D01*
X60796159Y-58131685D01*
X60750000Y-58123000D01*
X60627000Y-58123000D01*
X60627000Y-57679114D01*
X60824691Y-57761000D01*
X61042250Y-57761000D01*
X61201000Y-57602250D01*
X61201000Y-56726000D01*
X61701000Y-56726000D01*
X61701000Y-57602250D01*
X61859750Y-57761000D01*
X62077309Y-57761000D01*
X62310698Y-57664327D01*
X62489327Y-57485699D01*
X62586000Y-57252310D01*
X62586000Y-56884750D01*
X62427250Y-56726000D01*
X61701000Y-56726000D01*
X61201000Y-56726000D01*
X60951000Y-56726000D01*
X60951000Y-55926000D01*
X61201000Y-55926000D01*
X61201000Y-55049750D01*
X61701000Y-55049750D01*
X61701000Y-55926000D01*
X62427250Y-55926000D01*
X62586000Y-55767250D01*
X62586000Y-55399690D01*
X62489327Y-55166301D01*
X62310698Y-54987673D01*
X62077309Y-54891000D01*
X61859750Y-54891000D01*
X61701000Y-55049750D01*
X61201000Y-55049750D01*
X61042250Y-54891000D01*
X60824691Y-54891000D01*
X60627000Y-54972886D01*
X60627000Y-53203705D01*
X64947180Y-53203705D01*
X64947180Y-54071059D01*
X65043853Y-54304448D01*
X65222481Y-54483077D01*
X65455870Y-54579750D01*
X65973340Y-54579750D01*
X66132090Y-54421000D01*
X66132090Y-53044955D01*
X67231910Y-53044955D01*
X67231910Y-54421000D01*
X67390660Y-54579750D01*
X67908130Y-54579750D01*
X68141519Y-54483077D01*
X68320147Y-54304448D01*
X68416820Y-54071059D01*
X68416820Y-53203705D01*
X68258070Y-53044955D01*
X67231910Y-53044955D01*
X66132090Y-53044955D01*
X65105930Y-53044955D01*
X64947180Y-53203705D01*
X60627000Y-53203705D01*
X60627000Y-52127218D01*
X65157782Y-52135000D01*
X65207209Y-52125079D01*
X65248882Y-52096710D01*
X65276235Y-52054362D01*
X65285000Y-52008000D01*
X65285000Y-51245365D01*
X66132090Y-51245365D01*
X66132090Y-50982160D01*
X67231910Y-50982160D01*
X67231910Y-51245365D01*
D43*
G36*
X8466919Y-27037492D02*
X8484112Y-27047408D01*
X8500000Y-27050000D01*
X13092000Y-27050000D01*
X13092000Y-27435500D01*
X13231500Y-27575000D01*
X14075000Y-27575000D01*
X14075000Y-27150000D01*
X14925000Y-27150000D01*
X14925000Y-27575000D01*
X15350000Y-27575000D01*
X15350000Y-28425000D01*
X14925000Y-28425000D01*
X14925000Y-29268500D01*
X15020648Y-29364148D01*
X10466552Y-33462835D01*
X10454728Y-33478777D01*
X10450000Y-33500000D01*
X10450000Y-46720640D01*
X9849785Y-46720640D01*
X9849785Y-46375670D01*
X8981070Y-46375670D01*
X8841570Y-46515170D01*
X8841570Y-47361693D01*
X8878148Y-47450000D01*
X7390261Y-47450000D01*
X7473480Y-47366782D01*
X7558430Y-47161693D01*
X7558430Y-46315170D01*
X7418930Y-46175670D01*
X6550215Y-46175670D01*
X6550215Y-46520640D01*
X5649785Y-46520640D01*
X5649785Y-46175670D01*
X4781070Y-46175670D01*
X4641570Y-46315170D01*
X4641570Y-47161693D01*
X4726520Y-47366782D01*
X4809739Y-47450000D01*
X3800002Y-47450000D01*
X3800002Y-47339129D01*
X3923050Y-47216082D01*
X4008000Y-47010993D01*
X4008000Y-46814500D01*
X3868500Y-46675000D01*
X3025000Y-46675000D01*
X3025000Y-46900000D01*
X2175000Y-46900000D01*
X2175000Y-46675000D01*
X1331500Y-46675000D01*
X1192000Y-46814500D01*
X1192000Y-47010993D01*
X1276950Y-47216082D01*
X1399998Y-47339129D01*
X1399998Y-47450000D01*
X608000Y-47450000D01*
X608000Y-45889007D01*
X1192000Y-45889007D01*
X1192000Y-46085500D01*
X1331500Y-46225000D01*
X2175000Y-46225000D01*
X2175000Y-45581500D01*
X3025000Y-45581500D01*
X3025000Y-46225000D01*
X3868500Y-46225000D01*
X4008000Y-46085500D01*
X4008000Y-45889007D01*
X3923050Y-45683918D01*
X3766082Y-45526951D01*
X3560993Y-45442000D01*
X3164500Y-45442000D01*
X3025000Y-45581500D01*
X2175000Y-45581500D01*
X2035500Y-45442000D01*
X1639007Y-45442000D01*
X1433918Y-45526951D01*
X1276950Y-45683918D01*
X1192000Y-45889007D01*
X608000Y-45889007D01*
X608000Y-43439587D01*
X4641570Y-43439587D01*
X4641570Y-44286110D01*
X4781070Y-44425610D01*
X5649785Y-44425610D01*
X5649785Y-43132080D01*
X6550215Y-43132080D01*
X6550215Y-44425610D01*
X7418930Y-44425610D01*
X7558430Y-44286110D01*
X7558430Y-43639587D01*
X8841570Y-43639587D01*
X8841570Y-44486110D01*
X8981070Y-44625610D01*
X9849785Y-44625610D01*
X9849785Y-43332080D01*
X9710285Y-43192580D01*
X9288577Y-43192580D01*
X9083488Y-43277531D01*
X8926520Y-43434498D01*
X8841570Y-43639587D01*
X7558430Y-43639587D01*
X7558430Y-43439587D01*
X7473480Y-43234498D01*
X7316512Y-43077531D01*
X7111423Y-42992580D01*
X6689715Y-42992580D01*
X6550215Y-43132080D01*
X5649785Y-43132080D01*
X5510285Y-42992580D01*
X5088577Y-42992580D01*
X4883488Y-43077531D01*
X4726520Y-43234498D01*
X4641570Y-43439587D01*
X608000Y-43439587D01*
X608000Y-39164514D01*
X4532543Y-39164514D01*
X4958547Y-39474999D01*
X6367647Y-39609028D01*
X7041453Y-39474999D01*
X7467457Y-39164514D01*
X6000000Y-37697056D01*
X4532543Y-39164514D01*
X608000Y-39164514D01*
X608000Y-36367647D01*
X2390972Y-36367647D01*
X2525001Y-37041453D01*
X2835486Y-37467457D01*
X4302944Y-36000000D01*
X7697056Y-36000000D01*
X9164514Y-37467457D01*
X9474999Y-37041453D01*
X9609028Y-35632353D01*
X9474999Y-34958547D01*
X9164514Y-34532543D01*
X7697056Y-36000000D01*
X4302944Y-36000000D01*
X2835486Y-34532543D01*
X2525001Y-34958547D01*
X2390972Y-36367647D01*
X608000Y-36367647D01*
X608000Y-32835486D01*
X4532543Y-32835486D01*
X6000000Y-34302944D01*
X7467457Y-32835486D01*
X7041453Y-32525001D01*
X5632353Y-32390972D01*
X4958547Y-32525001D01*
X4532543Y-32835486D01*
X608000Y-32835486D01*
X608000Y-29166317D01*
X5434723Y-29166317D01*
X5537842Y-29359158D01*
X6093149Y-29432559D01*
X6462158Y-29359158D01*
X6565277Y-29166317D01*
X6000000Y-28601041D01*
X5434723Y-29166317D01*
X608000Y-29166317D01*
X608000Y-28093149D01*
X4567441Y-28093149D01*
X4640842Y-28462158D01*
X4833683Y-28565277D01*
X5398959Y-28000000D01*
X6601041Y-28000000D01*
X7166317Y-28565277D01*
X7167770Y-28564500D01*
X13092000Y-28564500D01*
X13092000Y-28960993D01*
X13176951Y-29166082D01*
X13333918Y-29323050D01*
X13539007Y-29408000D01*
X13935500Y-29408000D01*
X14075000Y-29268500D01*
X14075000Y-28425000D01*
X13231500Y-28425000D01*
X13092000Y-28564500D01*
X7167770Y-28564500D01*
X7359158Y-28462158D01*
X7432559Y-27906851D01*
X7359158Y-27537842D01*
X7166317Y-27434723D01*
X6601041Y-28000000D01*
X5398959Y-28000000D01*
X4833683Y-27434723D01*
X4640842Y-27537842D01*
X4567441Y-28093149D01*
X608000Y-28093149D01*
X608000Y-26833683D01*
X5434723Y-26833683D01*
X6000000Y-27398959D01*
X6565277Y-26833683D01*
X6462158Y-26640842D01*
X5906851Y-26567441D01*
X5537842Y-26640842D01*
X5434723Y-26833683D01*
X608000Y-26833683D01*
X608000Y-20103152D01*
X8466919Y-27037492D01*
X8466919Y-27037492D01*
G37*
X8466919Y-27037492D02*
X8484112Y-27047408D01*
X8500000Y-27050000D01*
X13092000Y-27050000D01*
X13092000Y-27435500D01*
X13231500Y-27575000D01*
X14075000Y-27575000D01*
X14075000Y-27150000D01*
X14925000Y-27150000D01*
X14925000Y-27575000D01*
X15350000Y-27575000D01*
X15350000Y-28425000D01*
X14925000Y-28425000D01*
X14925000Y-29268500D01*
X15020648Y-29364148D01*
X10466552Y-33462835D01*
X10454728Y-33478777D01*
X10450000Y-33500000D01*
X10450000Y-46720640D01*
X9849785Y-46720640D01*
X9849785Y-46375670D01*
X8981070Y-46375670D01*
X8841570Y-46515170D01*
X8841570Y-47361693D01*
X8878148Y-47450000D01*
X7390261Y-47450000D01*
X7473480Y-47366782D01*
X7558430Y-47161693D01*
X7558430Y-46315170D01*
X7418930Y-46175670D01*
X6550215Y-46175670D01*
X6550215Y-46520640D01*
X5649785Y-46520640D01*
X5649785Y-46175670D01*
X4781070Y-46175670D01*
X4641570Y-46315170D01*
X4641570Y-47161693D01*
X4726520Y-47366782D01*
X4809739Y-47450000D01*
X3800002Y-47450000D01*
X3800002Y-47339129D01*
X3923050Y-47216082D01*
X4008000Y-47010993D01*
X4008000Y-46814500D01*
X3868500Y-46675000D01*
X3025000Y-46675000D01*
X3025000Y-46900000D01*
X2175000Y-46900000D01*
X2175000Y-46675000D01*
X1331500Y-46675000D01*
X1192000Y-46814500D01*
X1192000Y-47010993D01*
X1276950Y-47216082D01*
X1399998Y-47339129D01*
X1399998Y-47450000D01*
X608000Y-47450000D01*
X608000Y-45889007D01*
X1192000Y-45889007D01*
X1192000Y-46085500D01*
X1331500Y-46225000D01*
X2175000Y-46225000D01*
X2175000Y-45581500D01*
X3025000Y-45581500D01*
X3025000Y-46225000D01*
X3868500Y-46225000D01*
X4008000Y-46085500D01*
X4008000Y-45889007D01*
X3923050Y-45683918D01*
X3766082Y-45526951D01*
X3560993Y-45442000D01*
X3164500Y-45442000D01*
X3025000Y-45581500D01*
X2175000Y-45581500D01*
X2035500Y-45442000D01*
X1639007Y-45442000D01*
X1433918Y-45526951D01*
X1276950Y-45683918D01*
X1192000Y-45889007D01*
X608000Y-45889007D01*
X608000Y-43439587D01*
X4641570Y-43439587D01*
X4641570Y-44286110D01*
X4781070Y-44425610D01*
X5649785Y-44425610D01*
X5649785Y-43132080D01*
X6550215Y-43132080D01*
X6550215Y-44425610D01*
X7418930Y-44425610D01*
X7558430Y-44286110D01*
X7558430Y-43639587D01*
X8841570Y-43639587D01*
X8841570Y-44486110D01*
X8981070Y-44625610D01*
X9849785Y-44625610D01*
X9849785Y-43332080D01*
X9710285Y-43192580D01*
X9288577Y-43192580D01*
X9083488Y-43277531D01*
X8926520Y-43434498D01*
X8841570Y-43639587D01*
X7558430Y-43639587D01*
X7558430Y-43439587D01*
X7473480Y-43234498D01*
X7316512Y-43077531D01*
X7111423Y-42992580D01*
X6689715Y-42992580D01*
X6550215Y-43132080D01*
X5649785Y-43132080D01*
X5510285Y-42992580D01*
X5088577Y-42992580D01*
X4883488Y-43077531D01*
X4726520Y-43234498D01*
X4641570Y-43439587D01*
X608000Y-43439587D01*
X608000Y-39164514D01*
X4532543Y-39164514D01*
X4958547Y-39474999D01*
X6367647Y-39609028D01*
X7041453Y-39474999D01*
X7467457Y-39164514D01*
X6000000Y-37697056D01*
X4532543Y-39164514D01*
X608000Y-39164514D01*
X608000Y-36367647D01*
X2390972Y-36367647D01*
X2525001Y-37041453D01*
X2835486Y-37467457D01*
X4302944Y-36000000D01*
X7697056Y-36000000D01*
X9164514Y-37467457D01*
X9474999Y-37041453D01*
X9609028Y-35632353D01*
X9474999Y-34958547D01*
X9164514Y-34532543D01*
X7697056Y-36000000D01*
X4302944Y-36000000D01*
X2835486Y-34532543D01*
X2525001Y-34958547D01*
X2390972Y-36367647D01*
X608000Y-36367647D01*
X608000Y-32835486D01*
X4532543Y-32835486D01*
X6000000Y-34302944D01*
X7467457Y-32835486D01*
X7041453Y-32525001D01*
X5632353Y-32390972D01*
X4958547Y-32525001D01*
X4532543Y-32835486D01*
X608000Y-32835486D01*
X608000Y-29166317D01*
X5434723Y-29166317D01*
X5537842Y-29359158D01*
X6093149Y-29432559D01*
X6462158Y-29359158D01*
X6565277Y-29166317D01*
X6000000Y-28601041D01*
X5434723Y-29166317D01*
X608000Y-29166317D01*
X608000Y-28093149D01*
X4567441Y-28093149D01*
X4640842Y-28462158D01*
X4833683Y-28565277D01*
X5398959Y-28000000D01*
X6601041Y-28000000D01*
X7166317Y-28565277D01*
X7167770Y-28564500D01*
X13092000Y-28564500D01*
X13092000Y-28960993D01*
X13176951Y-29166082D01*
X13333918Y-29323050D01*
X13539007Y-29408000D01*
X13935500Y-29408000D01*
X14075000Y-29268500D01*
X14075000Y-28425000D01*
X13231500Y-28425000D01*
X13092000Y-28564500D01*
X7167770Y-28564500D01*
X7359158Y-28462158D01*
X7432559Y-27906851D01*
X7359158Y-27537842D01*
X7166317Y-27434723D01*
X6601041Y-28000000D01*
X5398959Y-28000000D01*
X4833683Y-27434723D01*
X4640842Y-27537842D01*
X4567441Y-28093149D01*
X608000Y-28093149D01*
X608000Y-26833683D01*
X5434723Y-26833683D01*
X6000000Y-27398959D01*
X6565277Y-26833683D01*
X6462158Y-26640842D01*
X5906851Y-26567441D01*
X5537842Y-26640842D01*
X5434723Y-26833683D01*
X608000Y-26833683D01*
X608000Y-20103152D01*
X8466919Y-27037492D01*
G36*
X23142000Y-35060500D02*
X23281500Y-35200000D01*
X23950000Y-35200000D01*
X23950000Y-34800000D01*
X24450000Y-34800000D01*
X24450000Y-35200000D01*
X24700000Y-35200000D01*
X24700000Y-36000000D01*
X24450000Y-36000000D01*
X24450000Y-36818500D01*
X24589500Y-36958000D01*
X24810993Y-36958000D01*
X25016082Y-36873050D01*
X25089130Y-36800002D01*
X25200000Y-36800002D01*
X25200000Y-38100000D01*
X24250000Y-38100000D01*
X24231827Y-38103419D01*
X24215136Y-38114160D01*
X24203939Y-38130547D01*
X24200000Y-38150000D01*
X24200000Y-42150000D01*
X24203419Y-42168173D01*
X24214160Y-42184864D01*
X24230547Y-42196061D01*
X24250000Y-42200000D01*
X26200000Y-42200000D01*
X26200000Y-47350000D01*
X24250000Y-47350000D01*
X24231827Y-47353419D01*
X24215136Y-47364160D01*
X24203939Y-47380547D01*
X24200000Y-47400000D01*
X24200000Y-51150000D01*
X24203419Y-51168173D01*
X24214160Y-51184864D01*
X24230547Y-51196061D01*
X24250000Y-51200000D01*
X24700000Y-51200000D01*
X24700000Y-57450000D01*
X12050000Y-57450000D01*
X12050000Y-54939500D01*
X16241850Y-54939500D01*
X16241850Y-56160993D01*
X16326800Y-56366082D01*
X16483768Y-56523049D01*
X16688857Y-56608000D01*
X17260425Y-56608000D01*
X17399925Y-56468500D01*
X17399925Y-54800000D01*
X18600075Y-54800000D01*
X18600075Y-56468500D01*
X18739575Y-56608000D01*
X19311143Y-56608000D01*
X19516232Y-56523049D01*
X19673200Y-56366082D01*
X19758150Y-56160993D01*
X19758150Y-54939500D01*
X19618650Y-54800000D01*
X18600075Y-54800000D01*
X17399925Y-54800000D01*
X16381350Y-54800000D01*
X16241850Y-54939500D01*
X12050000Y-54939500D01*
X12050000Y-51039007D01*
X16241850Y-51039007D01*
X16241850Y-52260500D01*
X16381350Y-52400000D01*
X17399925Y-52400000D01*
X17399925Y-50731500D01*
X18600075Y-50731500D01*
X18600075Y-52400000D01*
X19618650Y-52400000D01*
X19758150Y-52260500D01*
X19758150Y-51039007D01*
X19673200Y-50833918D01*
X19516232Y-50676951D01*
X19311143Y-50592000D01*
X18739575Y-50592000D01*
X18600075Y-50731500D01*
X17399925Y-50731500D01*
X17260425Y-50592000D01*
X16688857Y-50592000D01*
X16483768Y-50676951D01*
X16326800Y-50833918D01*
X16241850Y-51039007D01*
X12050000Y-51039007D01*
X12050000Y-43000000D01*
X12046061Y-42980547D01*
X12034864Y-42964160D01*
X12018173Y-42953419D01*
X12000000Y-42950000D01*
X11300000Y-42950000D01*
X11300000Y-41513890D01*
X11641570Y-41513890D01*
X11641570Y-42360413D01*
X11726520Y-42565502D01*
X11883488Y-42722469D01*
X12088577Y-42807420D01*
X12510285Y-42807420D01*
X12649785Y-42667920D01*
X12649785Y-41374390D01*
X13550215Y-41374390D01*
X13550215Y-42667920D01*
X13689715Y-42807420D01*
X14111423Y-42807420D01*
X14316512Y-42722469D01*
X14473480Y-42565502D01*
X14558430Y-42360413D01*
X14558430Y-41513890D01*
X18041570Y-41513890D01*
X18041570Y-42360413D01*
X18126520Y-42565502D01*
X18283488Y-42722469D01*
X18488577Y-42807420D01*
X18910285Y-42807420D01*
X19049785Y-42667920D01*
X19049785Y-41374390D01*
X19950215Y-41374390D01*
X19950215Y-42667920D01*
X20089715Y-42807420D01*
X20511423Y-42807420D01*
X20716512Y-42722469D01*
X20873480Y-42565502D01*
X20958430Y-42360413D01*
X20958430Y-41513890D01*
X20818930Y-41374390D01*
X19950215Y-41374390D01*
X19049785Y-41374390D01*
X18181070Y-41374390D01*
X18041570Y-41513890D01*
X14558430Y-41513890D01*
X14418930Y-41374390D01*
X13550215Y-41374390D01*
X12649785Y-41374390D01*
X11781070Y-41374390D01*
X11641570Y-41513890D01*
X11300000Y-41513890D01*
X11300000Y-38550000D01*
X11678148Y-38550000D01*
X11641570Y-38638307D01*
X11641570Y-39484830D01*
X11781070Y-39624330D01*
X12649785Y-39624330D01*
X12649785Y-39279360D01*
X13550215Y-39279360D01*
X13550215Y-39624330D01*
X14418930Y-39624330D01*
X14558430Y-39484830D01*
X14558430Y-38638307D01*
X14521852Y-38550000D01*
X18078148Y-38550000D01*
X18041570Y-38638307D01*
X18041570Y-39484830D01*
X18181070Y-39624330D01*
X19049785Y-39624330D01*
X19049785Y-39279360D01*
X19950215Y-39279360D01*
X19950215Y-39624330D01*
X20818930Y-39624330D01*
X20958430Y-39484830D01*
X20958430Y-38638307D01*
X20921852Y-38550000D01*
X23000000Y-38550000D01*
X23019453Y-38546061D01*
X23035840Y-38534864D01*
X23046581Y-38518173D01*
X23050000Y-38500000D01*
X23050000Y-36139500D01*
X23142000Y-36139500D01*
X23142000Y-36510993D01*
X23226951Y-36716082D01*
X23383918Y-36873050D01*
X23589007Y-36958000D01*
X23810500Y-36958000D01*
X23950000Y-36818500D01*
X23950000Y-36000000D01*
X23281500Y-36000000D01*
X23142000Y-36139500D01*
X23050000Y-36139500D01*
X23050000Y-34800000D01*
X23142000Y-34800000D01*
X23142000Y-35060500D01*
X23142000Y-35060500D01*
G37*
X23142000Y-35060500D02*
X23281500Y-35200000D01*
X23950000Y-35200000D01*
X23950000Y-34800000D01*
X24450000Y-34800000D01*
X24450000Y-35200000D01*
X24700000Y-35200000D01*
X24700000Y-36000000D01*
X24450000Y-36000000D01*
X24450000Y-36818500D01*
X24589500Y-36958000D01*
X24810993Y-36958000D01*
X25016082Y-36873050D01*
X25089130Y-36800002D01*
X25200000Y-36800002D01*
X25200000Y-38100000D01*
X24250000Y-38100000D01*
X24231827Y-38103419D01*
X24215136Y-38114160D01*
X24203939Y-38130547D01*
X24200000Y-38150000D01*
X24200000Y-42150000D01*
X24203419Y-42168173D01*
X24214160Y-42184864D01*
X24230547Y-42196061D01*
X24250000Y-42200000D01*
X26200000Y-42200000D01*
X26200000Y-47350000D01*
X24250000Y-47350000D01*
X24231827Y-47353419D01*
X24215136Y-47364160D01*
X24203939Y-47380547D01*
X24200000Y-47400000D01*
X24200000Y-51150000D01*
X24203419Y-51168173D01*
X24214160Y-51184864D01*
X24230547Y-51196061D01*
X24250000Y-51200000D01*
X24700000Y-51200000D01*
X24700000Y-57450000D01*
X12050000Y-57450000D01*
X12050000Y-54939500D01*
X16241850Y-54939500D01*
X16241850Y-56160993D01*
X16326800Y-56366082D01*
X16483768Y-56523049D01*
X16688857Y-56608000D01*
X17260425Y-56608000D01*
X17399925Y-56468500D01*
X17399925Y-54800000D01*
X18600075Y-54800000D01*
X18600075Y-56468500D01*
X18739575Y-56608000D01*
X19311143Y-56608000D01*
X19516232Y-56523049D01*
X19673200Y-56366082D01*
X19758150Y-56160993D01*
X19758150Y-54939500D01*
X19618650Y-54800000D01*
X18600075Y-54800000D01*
X17399925Y-54800000D01*
X16381350Y-54800000D01*
X16241850Y-54939500D01*
X12050000Y-54939500D01*
X12050000Y-51039007D01*
X16241850Y-51039007D01*
X16241850Y-52260500D01*
X16381350Y-52400000D01*
X17399925Y-52400000D01*
X17399925Y-50731500D01*
X18600075Y-50731500D01*
X18600075Y-52400000D01*
X19618650Y-52400000D01*
X19758150Y-52260500D01*
X19758150Y-51039007D01*
X19673200Y-50833918D01*
X19516232Y-50676951D01*
X19311143Y-50592000D01*
X18739575Y-50592000D01*
X18600075Y-50731500D01*
X17399925Y-50731500D01*
X17260425Y-50592000D01*
X16688857Y-50592000D01*
X16483768Y-50676951D01*
X16326800Y-50833918D01*
X16241850Y-51039007D01*
X12050000Y-51039007D01*
X12050000Y-43000000D01*
X12046061Y-42980547D01*
X12034864Y-42964160D01*
X12018173Y-42953419D01*
X12000000Y-42950000D01*
X11300000Y-42950000D01*
X11300000Y-41513890D01*
X11641570Y-41513890D01*
X11641570Y-42360413D01*
X11726520Y-42565502D01*
X11883488Y-42722469D01*
X12088577Y-42807420D01*
X12510285Y-42807420D01*
X12649785Y-42667920D01*
X12649785Y-41374390D01*
X13550215Y-41374390D01*
X13550215Y-42667920D01*
X13689715Y-42807420D01*
X14111423Y-42807420D01*
X14316512Y-42722469D01*
X14473480Y-42565502D01*
X14558430Y-42360413D01*
X14558430Y-41513890D01*
X18041570Y-41513890D01*
X18041570Y-42360413D01*
X18126520Y-42565502D01*
X18283488Y-42722469D01*
X18488577Y-42807420D01*
X18910285Y-42807420D01*
X19049785Y-42667920D01*
X19049785Y-41374390D01*
X19950215Y-41374390D01*
X19950215Y-42667920D01*
X20089715Y-42807420D01*
X20511423Y-42807420D01*
X20716512Y-42722469D01*
X20873480Y-42565502D01*
X20958430Y-42360413D01*
X20958430Y-41513890D01*
X20818930Y-41374390D01*
X19950215Y-41374390D01*
X19049785Y-41374390D01*
X18181070Y-41374390D01*
X18041570Y-41513890D01*
X14558430Y-41513890D01*
X14418930Y-41374390D01*
X13550215Y-41374390D01*
X12649785Y-41374390D01*
X11781070Y-41374390D01*
X11641570Y-41513890D01*
X11300000Y-41513890D01*
X11300000Y-38550000D01*
X11678148Y-38550000D01*
X11641570Y-38638307D01*
X11641570Y-39484830D01*
X11781070Y-39624330D01*
X12649785Y-39624330D01*
X12649785Y-39279360D01*
X13550215Y-39279360D01*
X13550215Y-39624330D01*
X14418930Y-39624330D01*
X14558430Y-39484830D01*
X14558430Y-38638307D01*
X14521852Y-38550000D01*
X18078148Y-38550000D01*
X18041570Y-38638307D01*
X18041570Y-39484830D01*
X18181070Y-39624330D01*
X19049785Y-39624330D01*
X19049785Y-39279360D01*
X19950215Y-39279360D01*
X19950215Y-39624330D01*
X20818930Y-39624330D01*
X20958430Y-39484830D01*
X20958430Y-38638307D01*
X20921852Y-38550000D01*
X23000000Y-38550000D01*
X23019453Y-38546061D01*
X23035840Y-38534864D01*
X23046581Y-38518173D01*
X23050000Y-38500000D01*
X23050000Y-36139500D01*
X23142000Y-36139500D01*
X23142000Y-36510993D01*
X23226951Y-36716082D01*
X23383918Y-36873050D01*
X23589007Y-36958000D01*
X23810500Y-36958000D01*
X23950000Y-36818500D01*
X23950000Y-36000000D01*
X23281500Y-36000000D01*
X23142000Y-36139500D01*
X23050000Y-36139500D01*
X23050000Y-34800000D01*
X23142000Y-34800000D01*
X23142000Y-35060500D01*
G36*
X39408149Y-62377585D02*
X39407852Y-62718918D01*
X39538199Y-63034383D01*
X39779348Y-63275953D01*
X40094585Y-63406851D01*
X40435918Y-63407148D01*
X40496800Y-63381992D01*
X40575384Y-63397624D01*
X40702149Y-63424449D01*
X40706329Y-63423670D01*
X40710500Y-63424500D01*
X40778527Y-63424500D01*
X40884186Y-63588699D01*
X40950486Y-63634000D01*
X40716998Y-63634000D01*
X40716998Y-64192000D01*
X40734000Y-64192000D01*
X40734000Y-64302500D01*
X40873500Y-64442000D01*
X41604500Y-64442000D01*
X41604500Y-64192000D01*
X42229500Y-64192000D01*
X42229500Y-64442000D01*
X42960500Y-64442000D01*
X43100000Y-64302500D01*
X43100000Y-64192000D01*
X43117002Y-64192000D01*
X43117002Y-63634000D01*
X42885572Y-63634000D01*
X42938699Y-63599814D01*
X43066107Y-63413346D01*
X43110931Y-63192000D01*
X43110931Y-62300000D01*
X45950000Y-62300000D01*
X45950000Y-63000000D01*
X45953939Y-63019453D01*
X45965136Y-63035840D01*
X45981827Y-63046581D01*
X46000000Y-63050000D01*
X47200000Y-63050000D01*
X47200000Y-66750000D01*
X47203419Y-66768173D01*
X47214160Y-66784864D01*
X47230547Y-66796061D01*
X47250000Y-66800000D01*
X49450000Y-66800000D01*
X49450000Y-71950000D01*
X47500000Y-71950000D01*
X47481827Y-71953419D01*
X47465136Y-71964160D01*
X47453939Y-71980547D01*
X47450000Y-72000000D01*
X47450000Y-73950000D01*
X40300000Y-73950000D01*
X40300000Y-67750000D01*
X40296061Y-67730547D01*
X40284864Y-67714160D01*
X40268173Y-67703419D01*
X40250000Y-67700000D01*
X38550000Y-67700000D01*
X38550000Y-65081500D01*
X40734000Y-65081500D01*
X40734000Y-65302993D01*
X40818950Y-65508082D01*
X40975918Y-65665049D01*
X41181007Y-65750000D01*
X41465000Y-65750000D01*
X41604500Y-65610500D01*
X41604500Y-64942000D01*
X42229500Y-64942000D01*
X42229500Y-65610500D01*
X42369000Y-65750000D01*
X42652993Y-65750000D01*
X42858082Y-65665049D01*
X43015050Y-65508082D01*
X43100000Y-65302993D01*
X43100000Y-65081500D01*
X42960500Y-64942000D01*
X42229500Y-64942000D01*
X41604500Y-64942000D01*
X40873500Y-64942000D01*
X40734000Y-65081500D01*
X38550000Y-65081500D01*
X38550000Y-62300000D01*
X39440365Y-62300000D01*
X39408149Y-62377585D01*
X39408149Y-62377585D01*
G37*
X39408149Y-62377585D02*
X39407852Y-62718918D01*
X39538199Y-63034383D01*
X39779348Y-63275953D01*
X40094585Y-63406851D01*
X40435918Y-63407148D01*
X40496800Y-63381992D01*
X40575384Y-63397624D01*
X40702149Y-63424449D01*
X40706329Y-63423670D01*
X40710500Y-63424500D01*
X40778527Y-63424500D01*
X40884186Y-63588699D01*
X40950486Y-63634000D01*
X40716998Y-63634000D01*
X40716998Y-64192000D01*
X40734000Y-64192000D01*
X40734000Y-64302500D01*
X40873500Y-64442000D01*
X41604500Y-64442000D01*
X41604500Y-64192000D01*
X42229500Y-64192000D01*
X42229500Y-64442000D01*
X42960500Y-64442000D01*
X43100000Y-64302500D01*
X43100000Y-64192000D01*
X43117002Y-64192000D01*
X43117002Y-63634000D01*
X42885572Y-63634000D01*
X42938699Y-63599814D01*
X43066107Y-63413346D01*
X43110931Y-63192000D01*
X43110931Y-62300000D01*
X45950000Y-62300000D01*
X45950000Y-63000000D01*
X45953939Y-63019453D01*
X45965136Y-63035840D01*
X45981827Y-63046581D01*
X46000000Y-63050000D01*
X47200000Y-63050000D01*
X47200000Y-66750000D01*
X47203419Y-66768173D01*
X47214160Y-66784864D01*
X47230547Y-66796061D01*
X47250000Y-66800000D01*
X49450000Y-66800000D01*
X49450000Y-71950000D01*
X47500000Y-71950000D01*
X47481827Y-71953419D01*
X47465136Y-71964160D01*
X47453939Y-71980547D01*
X47450000Y-72000000D01*
X47450000Y-73950000D01*
X40300000Y-73950000D01*
X40300000Y-67750000D01*
X40296061Y-67730547D01*
X40284864Y-67714160D01*
X40268173Y-67703419D01*
X40250000Y-67700000D01*
X38550000Y-67700000D01*
X38550000Y-65081500D01*
X40734000Y-65081500D01*
X40734000Y-65302993D01*
X40818950Y-65508082D01*
X40975918Y-65665049D01*
X41181007Y-65750000D01*
X41465000Y-65750000D01*
X41604500Y-65610500D01*
X41604500Y-64942000D01*
X42229500Y-64942000D01*
X42229500Y-65610500D01*
X42369000Y-65750000D01*
X42652993Y-65750000D01*
X42858082Y-65665049D01*
X43015050Y-65508082D01*
X43100000Y-65302993D01*
X43100000Y-65081500D01*
X42960500Y-64942000D01*
X42229500Y-64942000D01*
X41604500Y-64942000D01*
X40873500Y-64942000D01*
X40734000Y-65081500D01*
X38550000Y-65081500D01*
X38550000Y-62300000D01*
X39440365Y-62300000D01*
X39408149Y-62377585D01*
G36*
X70799998Y-33063573D02*
X70561013Y-33151608D01*
X70185136Y-33498728D01*
X70064115Y-33701619D01*
X70136171Y-33893445D01*
X71246255Y-33893445D01*
X71246255Y-33516890D01*
X72753745Y-33516890D01*
X72753745Y-33893445D01*
X73863829Y-33893445D01*
X73935885Y-33701619D01*
X73814864Y-33498728D01*
X73438987Y-33151608D01*
X73200002Y-33063573D01*
X73200002Y-33050000D01*
X77950000Y-33050000D01*
X77950000Y-45700000D01*
X70542000Y-45700000D01*
X70542000Y-44134000D01*
X70538581Y-44115827D01*
X70527840Y-44099136D01*
X70511453Y-44087939D01*
X70492000Y-44084000D01*
X68206000Y-44084000D01*
X68187827Y-44087419D01*
X68171136Y-44098160D01*
X68159939Y-44114547D01*
X68156000Y-44134000D01*
X68156000Y-44642635D01*
X67231910Y-44642635D01*
X67231910Y-44962840D01*
X66132090Y-44962840D01*
X66132090Y-44642635D01*
X65208000Y-44642635D01*
X65208000Y-44134000D01*
X65204581Y-44115827D01*
X65193840Y-44099136D01*
X65177453Y-44087939D01*
X65158000Y-44084000D01*
X62872000Y-44084000D01*
X62853827Y-44087419D01*
X62837136Y-44098160D01*
X62825939Y-44114547D01*
X62822000Y-44134000D01*
X62822000Y-45700000D01*
X60550000Y-45700000D01*
X60550000Y-44064002D01*
X60578000Y-44064002D01*
X60578000Y-44047000D01*
X60688500Y-44047000D01*
X60828000Y-43907500D01*
X60828000Y-43176500D01*
X61328000Y-43176500D01*
X61328000Y-43907500D01*
X61467500Y-44047000D01*
X61688993Y-44047000D01*
X61894082Y-43962050D01*
X62051049Y-43805082D01*
X62136000Y-43599993D01*
X62136000Y-43316000D01*
X61996500Y-43176500D01*
X61328000Y-43176500D01*
X60828000Y-43176500D01*
X60578000Y-43176500D01*
X60578000Y-42551500D01*
X60828000Y-42551500D01*
X60828000Y-41820500D01*
X61328000Y-41820500D01*
X61328000Y-42551500D01*
X61996500Y-42551500D01*
X62136000Y-42412000D01*
X62136000Y-42128007D01*
X62051049Y-41922918D01*
X61960389Y-41832257D01*
X65024180Y-41832257D01*
X65024180Y-42703545D01*
X65163680Y-42843045D01*
X66132090Y-42843045D01*
X66132090Y-41524750D01*
X67231910Y-41524750D01*
X67231910Y-42843045D01*
X68200320Y-42843045D01*
X68339820Y-42703545D01*
X68339820Y-41832257D01*
X68254870Y-41627168D01*
X68097902Y-41470201D01*
X67892813Y-41385250D01*
X67371410Y-41385250D01*
X67231910Y-41524750D01*
X66132090Y-41524750D01*
X65992590Y-41385250D01*
X65471187Y-41385250D01*
X65266098Y-41470201D01*
X65109130Y-41627168D01*
X65024180Y-41832257D01*
X61960389Y-41832257D01*
X61894082Y-41765950D01*
X61688993Y-41681000D01*
X61467500Y-41681000D01*
X61328000Y-41820500D01*
X60828000Y-41820500D01*
X60688500Y-41681000D01*
X60578000Y-41681000D01*
X60578000Y-41663998D01*
X60550000Y-41663998D01*
X60550000Y-40508002D01*
X60578000Y-40508002D01*
X60578000Y-40491000D01*
X60688500Y-40491000D01*
X60828000Y-40351500D01*
X60828000Y-39620500D01*
X61328000Y-39620500D01*
X61328000Y-40351500D01*
X61467500Y-40491000D01*
X61688993Y-40491000D01*
X61894082Y-40406050D01*
X62051049Y-40249082D01*
X62136000Y-40043993D01*
X62136000Y-39760000D01*
X61996500Y-39620500D01*
X61328000Y-39620500D01*
X60828000Y-39620500D01*
X60578000Y-39620500D01*
X60578000Y-38995500D01*
X60828000Y-38995500D01*
X60828000Y-38264500D01*
X61328000Y-38264500D01*
X61328000Y-38995500D01*
X61996500Y-38995500D01*
X62136000Y-38856000D01*
X62136000Y-38572007D01*
X62051049Y-38366918D01*
X61894082Y-38209950D01*
X61688993Y-38125000D01*
X61467500Y-38125000D01*
X61328000Y-38264500D01*
X60828000Y-38264500D01*
X60688500Y-38125000D01*
X60578000Y-38125000D01*
X60578000Y-38107998D01*
X60550000Y-38107998D01*
X60550000Y-36515730D01*
X61741850Y-36515730D01*
X61741850Y-37362253D01*
X61826800Y-37567342D01*
X61983768Y-37724309D01*
X62188857Y-37809260D01*
X62760425Y-37809260D01*
X62899925Y-37669760D01*
X62899925Y-36376230D01*
X64100075Y-36376230D01*
X64100075Y-37669760D01*
X64239575Y-37809260D01*
X64811143Y-37809260D01*
X65016232Y-37724309D01*
X65173200Y-37567342D01*
X65251469Y-37378381D01*
X70064115Y-37378381D01*
X70185136Y-37581272D01*
X70561013Y-37928392D01*
X71041116Y-38105247D01*
X71246255Y-37981792D01*
X71246255Y-37186555D01*
X72753745Y-37186555D01*
X72753745Y-37981792D01*
X72958884Y-38105247D01*
X73438987Y-37928392D01*
X73814864Y-37581272D01*
X73935885Y-37378381D01*
X73863829Y-37186555D01*
X72753745Y-37186555D01*
X71246255Y-37186555D01*
X70136171Y-37186555D01*
X70064115Y-37378381D01*
X65251469Y-37378381D01*
X65258150Y-37362253D01*
X65258150Y-36515730D01*
X65118650Y-36376230D01*
X64100075Y-36376230D01*
X62899925Y-36376230D01*
X61881350Y-36376230D01*
X61741850Y-36515730D01*
X60550000Y-36515730D01*
X60550000Y-34838381D01*
X70064115Y-34838381D01*
X70185136Y-35041272D01*
X70561013Y-35388392D01*
X70972579Y-35540000D01*
X70561013Y-35691608D01*
X70185136Y-36038728D01*
X70064115Y-36241619D01*
X70136171Y-36433445D01*
X71246255Y-36433445D01*
X71246255Y-35638208D01*
X71083068Y-35540000D01*
X71246255Y-35441792D01*
X71246255Y-34646555D01*
X72753745Y-34646555D01*
X72753745Y-35441792D01*
X72916932Y-35540000D01*
X72753745Y-35638208D01*
X72753745Y-36433445D01*
X73863829Y-36433445D01*
X73935885Y-36241619D01*
X73814864Y-36038728D01*
X73438987Y-35691608D01*
X73027421Y-35540000D01*
X73438987Y-35388392D01*
X73814864Y-35041272D01*
X73935885Y-34838381D01*
X73863829Y-34646555D01*
X72753745Y-34646555D01*
X71246255Y-34646555D01*
X70136171Y-34646555D01*
X70064115Y-34838381D01*
X60550000Y-34838381D01*
X60550000Y-33640147D01*
X61741850Y-33640147D01*
X61741850Y-34486670D01*
X61881350Y-34626170D01*
X62899925Y-34626170D01*
X62899925Y-33332640D01*
X64100075Y-33332640D01*
X64100075Y-34626170D01*
X65118650Y-34626170D01*
X65258150Y-34486670D01*
X65258150Y-33640147D01*
X65173200Y-33435058D01*
X65016232Y-33278091D01*
X64811143Y-33193140D01*
X64239575Y-33193140D01*
X64100075Y-33332640D01*
X62899925Y-33332640D01*
X62760425Y-33193140D01*
X62188857Y-33193140D01*
X61983768Y-33278091D01*
X61826800Y-33435058D01*
X61741850Y-33640147D01*
X60550000Y-33640147D01*
X60550000Y-33050000D01*
X70799998Y-33050000D01*
X70799998Y-33063573D01*
X70799998Y-33063573D01*
G37*
X70799998Y-33063573D02*
X70561013Y-33151608D01*
X70185136Y-33498728D01*
X70064115Y-33701619D01*
X70136171Y-33893445D01*
X71246255Y-33893445D01*
X71246255Y-33516890D01*
X72753745Y-33516890D01*
X72753745Y-33893445D01*
X73863829Y-33893445D01*
X73935885Y-33701619D01*
X73814864Y-33498728D01*
X73438987Y-33151608D01*
X73200002Y-33063573D01*
X73200002Y-33050000D01*
X77950000Y-33050000D01*
X77950000Y-45700000D01*
X70542000Y-45700000D01*
X70542000Y-44134000D01*
X70538581Y-44115827D01*
X70527840Y-44099136D01*
X70511453Y-44087939D01*
X70492000Y-44084000D01*
X68206000Y-44084000D01*
X68187827Y-44087419D01*
X68171136Y-44098160D01*
X68159939Y-44114547D01*
X68156000Y-44134000D01*
X68156000Y-44642635D01*
X67231910Y-44642635D01*
X67231910Y-44962840D01*
X66132090Y-44962840D01*
X66132090Y-44642635D01*
X65208000Y-44642635D01*
X65208000Y-44134000D01*
X65204581Y-44115827D01*
X65193840Y-44099136D01*
X65177453Y-44087939D01*
X65158000Y-44084000D01*
X62872000Y-44084000D01*
X62853827Y-44087419D01*
X62837136Y-44098160D01*
X62825939Y-44114547D01*
X62822000Y-44134000D01*
X62822000Y-45700000D01*
X60550000Y-45700000D01*
X60550000Y-44064002D01*
X60578000Y-44064002D01*
X60578000Y-44047000D01*
X60688500Y-44047000D01*
X60828000Y-43907500D01*
X60828000Y-43176500D01*
X61328000Y-43176500D01*
X61328000Y-43907500D01*
X61467500Y-44047000D01*
X61688993Y-44047000D01*
X61894082Y-43962050D01*
X62051049Y-43805082D01*
X62136000Y-43599993D01*
X62136000Y-43316000D01*
X61996500Y-43176500D01*
X61328000Y-43176500D01*
X60828000Y-43176500D01*
X60578000Y-43176500D01*
X60578000Y-42551500D01*
X60828000Y-42551500D01*
X60828000Y-41820500D01*
X61328000Y-41820500D01*
X61328000Y-42551500D01*
X61996500Y-42551500D01*
X62136000Y-42412000D01*
X62136000Y-42128007D01*
X62051049Y-41922918D01*
X61960389Y-41832257D01*
X65024180Y-41832257D01*
X65024180Y-42703545D01*
X65163680Y-42843045D01*
X66132090Y-42843045D01*
X66132090Y-41524750D01*
X67231910Y-41524750D01*
X67231910Y-42843045D01*
X68200320Y-42843045D01*
X68339820Y-42703545D01*
X68339820Y-41832257D01*
X68254870Y-41627168D01*
X68097902Y-41470201D01*
X67892813Y-41385250D01*
X67371410Y-41385250D01*
X67231910Y-41524750D01*
X66132090Y-41524750D01*
X65992590Y-41385250D01*
X65471187Y-41385250D01*
X65266098Y-41470201D01*
X65109130Y-41627168D01*
X65024180Y-41832257D01*
X61960389Y-41832257D01*
X61894082Y-41765950D01*
X61688993Y-41681000D01*
X61467500Y-41681000D01*
X61328000Y-41820500D01*
X60828000Y-41820500D01*
X60688500Y-41681000D01*
X60578000Y-41681000D01*
X60578000Y-41663998D01*
X60550000Y-41663998D01*
X60550000Y-40508002D01*
X60578000Y-40508002D01*
X60578000Y-40491000D01*
X60688500Y-40491000D01*
X60828000Y-40351500D01*
X60828000Y-39620500D01*
X61328000Y-39620500D01*
X61328000Y-40351500D01*
X61467500Y-40491000D01*
X61688993Y-40491000D01*
X61894082Y-40406050D01*
X62051049Y-40249082D01*
X62136000Y-40043993D01*
X62136000Y-39760000D01*
X61996500Y-39620500D01*
X61328000Y-39620500D01*
X60828000Y-39620500D01*
X60578000Y-39620500D01*
X60578000Y-38995500D01*
X60828000Y-38995500D01*
X60828000Y-38264500D01*
X61328000Y-38264500D01*
X61328000Y-38995500D01*
X61996500Y-38995500D01*
X62136000Y-38856000D01*
X62136000Y-38572007D01*
X62051049Y-38366918D01*
X61894082Y-38209950D01*
X61688993Y-38125000D01*
X61467500Y-38125000D01*
X61328000Y-38264500D01*
X60828000Y-38264500D01*
X60688500Y-38125000D01*
X60578000Y-38125000D01*
X60578000Y-38107998D01*
X60550000Y-38107998D01*
X60550000Y-36515730D01*
X61741850Y-36515730D01*
X61741850Y-37362253D01*
X61826800Y-37567342D01*
X61983768Y-37724309D01*
X62188857Y-37809260D01*
X62760425Y-37809260D01*
X62899925Y-37669760D01*
X62899925Y-36376230D01*
X64100075Y-36376230D01*
X64100075Y-37669760D01*
X64239575Y-37809260D01*
X64811143Y-37809260D01*
X65016232Y-37724309D01*
X65173200Y-37567342D01*
X65251469Y-37378381D01*
X70064115Y-37378381D01*
X70185136Y-37581272D01*
X70561013Y-37928392D01*
X71041116Y-38105247D01*
X71246255Y-37981792D01*
X71246255Y-37186555D01*
X72753745Y-37186555D01*
X72753745Y-37981792D01*
X72958884Y-38105247D01*
X73438987Y-37928392D01*
X73814864Y-37581272D01*
X73935885Y-37378381D01*
X73863829Y-37186555D01*
X72753745Y-37186555D01*
X71246255Y-37186555D01*
X70136171Y-37186555D01*
X70064115Y-37378381D01*
X65251469Y-37378381D01*
X65258150Y-37362253D01*
X65258150Y-36515730D01*
X65118650Y-36376230D01*
X64100075Y-36376230D01*
X62899925Y-36376230D01*
X61881350Y-36376230D01*
X61741850Y-36515730D01*
X60550000Y-36515730D01*
X60550000Y-34838381D01*
X70064115Y-34838381D01*
X70185136Y-35041272D01*
X70561013Y-35388392D01*
X70972579Y-35540000D01*
X70561013Y-35691608D01*
X70185136Y-36038728D01*
X70064115Y-36241619D01*
X70136171Y-36433445D01*
X71246255Y-36433445D01*
X71246255Y-35638208D01*
X71083068Y-35540000D01*
X71246255Y-35441792D01*
X71246255Y-34646555D01*
X72753745Y-34646555D01*
X72753745Y-35441792D01*
X72916932Y-35540000D01*
X72753745Y-35638208D01*
X72753745Y-36433445D01*
X73863829Y-36433445D01*
X73935885Y-36241619D01*
X73814864Y-36038728D01*
X73438987Y-35691608D01*
X73027421Y-35540000D01*
X73438987Y-35388392D01*
X73814864Y-35041272D01*
X73935885Y-34838381D01*
X73863829Y-34646555D01*
X72753745Y-34646555D01*
X71246255Y-34646555D01*
X70136171Y-34646555D01*
X70064115Y-34838381D01*
X60550000Y-34838381D01*
X60550000Y-33640147D01*
X61741850Y-33640147D01*
X61741850Y-34486670D01*
X61881350Y-34626170D01*
X62899925Y-34626170D01*
X62899925Y-33332640D01*
X64100075Y-33332640D01*
X64100075Y-34626170D01*
X65118650Y-34626170D01*
X65258150Y-34486670D01*
X65258150Y-33640147D01*
X65173200Y-33435058D01*
X65016232Y-33278091D01*
X64811143Y-33193140D01*
X64239575Y-33193140D01*
X64100075Y-33332640D01*
X62899925Y-33332640D01*
X62760425Y-33193140D01*
X62188857Y-33193140D01*
X61983768Y-33278091D01*
X61826800Y-33435058D01*
X61741850Y-33640147D01*
X60550000Y-33640147D01*
X60550000Y-33050000D01*
X70799998Y-33050000D01*
X70799998Y-33063573D01*
G36*
X53950000Y-10450000D02*
X43050000Y-10450000D01*
X43050000Y-8764500D01*
X44192000Y-8764500D01*
X44192000Y-9360993D01*
X44276950Y-9566082D01*
X44433918Y-9723049D01*
X44639007Y-9808000D01*
X45235500Y-9808000D01*
X45375000Y-9668500D01*
X45375000Y-8625000D01*
X46625000Y-8625000D01*
X46625000Y-9668500D01*
X46764500Y-9808000D01*
X47360993Y-9808000D01*
X47566082Y-9723049D01*
X47723050Y-9566082D01*
X47808000Y-9360993D01*
X47808000Y-8764500D01*
X50192000Y-8764500D01*
X50192000Y-9360993D01*
X50276950Y-9566082D01*
X50433918Y-9723049D01*
X50639007Y-9808000D01*
X51235500Y-9808000D01*
X51375000Y-9668500D01*
X51375000Y-8625000D01*
X52625000Y-8625000D01*
X52625000Y-9668500D01*
X52764500Y-9808000D01*
X53360993Y-9808000D01*
X53566082Y-9723049D01*
X53723050Y-9566082D01*
X53808000Y-9360993D01*
X53808000Y-8764500D01*
X53668500Y-8625000D01*
X52625000Y-8625000D01*
X51375000Y-8625000D01*
X50331500Y-8625000D01*
X50192000Y-8764500D01*
X47808000Y-8764500D01*
X47668500Y-8625000D01*
X46625000Y-8625000D01*
X45375000Y-8625000D01*
X44331500Y-8625000D01*
X44192000Y-8764500D01*
X43050000Y-8764500D01*
X43050000Y-7000000D01*
X43046061Y-6980547D01*
X43034864Y-6964160D01*
X43018173Y-6953419D01*
X43000000Y-6950000D01*
X35050000Y-6950000D01*
X35050000Y-6639007D01*
X44192000Y-6639007D01*
X44192000Y-7235500D01*
X44331500Y-7375000D01*
X45375000Y-7375000D01*
X45375000Y-6331500D01*
X46625000Y-6331500D01*
X46625000Y-7375000D01*
X47668500Y-7375000D01*
X47808000Y-7235500D01*
X47808000Y-6639007D01*
X50192000Y-6639007D01*
X50192000Y-7235500D01*
X50331500Y-7375000D01*
X51375000Y-7375000D01*
X51375000Y-6331500D01*
X52625000Y-6331500D01*
X52625000Y-7375000D01*
X53668500Y-7375000D01*
X53808000Y-7235500D01*
X53808000Y-6639007D01*
X53723050Y-6433918D01*
X53566082Y-6276951D01*
X53360993Y-6192000D01*
X52764500Y-6192000D01*
X52625000Y-6331500D01*
X51375000Y-6331500D01*
X51235500Y-6192000D01*
X50639007Y-6192000D01*
X50433918Y-6276951D01*
X50276950Y-6433918D01*
X50192000Y-6639007D01*
X47808000Y-6639007D01*
X47723050Y-6433918D01*
X47566082Y-6276951D01*
X47360993Y-6192000D01*
X46764500Y-6192000D01*
X46625000Y-6331500D01*
X45375000Y-6331500D01*
X45235500Y-6192000D01*
X44639007Y-6192000D01*
X44433918Y-6276951D01*
X44276950Y-6433918D01*
X44192000Y-6639007D01*
X35050000Y-6639007D01*
X35050000Y-3764500D01*
X44192000Y-3764500D01*
X44192000Y-4360993D01*
X44276950Y-4566082D01*
X44433918Y-4723049D01*
X44639007Y-4808000D01*
X45235500Y-4808000D01*
X45375000Y-4668500D01*
X45375000Y-3625000D01*
X46625000Y-3625000D01*
X46625000Y-4668500D01*
X46764500Y-4808000D01*
X47360993Y-4808000D01*
X47566082Y-4723049D01*
X47723050Y-4566082D01*
X47808000Y-4360993D01*
X47808000Y-3764500D01*
X50192000Y-3764500D01*
X50192000Y-4360993D01*
X50276950Y-4566082D01*
X50433918Y-4723049D01*
X50639007Y-4808000D01*
X51235500Y-4808000D01*
X51375000Y-4668500D01*
X51375000Y-3625000D01*
X52625000Y-3625000D01*
X52625000Y-4668500D01*
X52764500Y-4808000D01*
X53360993Y-4808000D01*
X53566082Y-4723049D01*
X53723050Y-4566082D01*
X53808000Y-4360993D01*
X53808000Y-3764500D01*
X53668500Y-3625000D01*
X52625000Y-3625000D01*
X51375000Y-3625000D01*
X50331500Y-3625000D01*
X50192000Y-3764500D01*
X47808000Y-3764500D01*
X47668500Y-3625000D01*
X46625000Y-3625000D01*
X45375000Y-3625000D01*
X44331500Y-3625000D01*
X44192000Y-3764500D01*
X35050000Y-3764500D01*
X35050000Y-1639007D01*
X44192000Y-1639007D01*
X44192000Y-2235500D01*
X44331500Y-2375000D01*
X45375000Y-2375000D01*
X45375000Y-1331500D01*
X46625000Y-1331500D01*
X46625000Y-2375000D01*
X47668500Y-2375000D01*
X47808000Y-2235500D01*
X47808000Y-1639007D01*
X50192000Y-1639007D01*
X50192000Y-2235500D01*
X50331500Y-2375000D01*
X51375000Y-2375000D01*
X51375000Y-1331500D01*
X52625000Y-1331500D01*
X52625000Y-2375000D01*
X53668500Y-2375000D01*
X53808000Y-2235500D01*
X53808000Y-1639007D01*
X53723050Y-1433918D01*
X53566082Y-1276951D01*
X53360993Y-1192000D01*
X52764500Y-1192000D01*
X52625000Y-1331500D01*
X51375000Y-1331500D01*
X51235500Y-1192000D01*
X50639007Y-1192000D01*
X50433918Y-1276951D01*
X50276950Y-1433918D01*
X50192000Y-1639007D01*
X47808000Y-1639007D01*
X47723050Y-1433918D01*
X47566082Y-1276951D01*
X47360993Y-1192000D01*
X46764500Y-1192000D01*
X46625000Y-1331500D01*
X45375000Y-1331500D01*
X45235500Y-1192000D01*
X44639007Y-1192000D01*
X44433918Y-1276951D01*
X44276950Y-1433918D01*
X44192000Y-1639007D01*
X35050000Y-1639007D01*
X35050000Y-608000D01*
X53950000Y-608000D01*
X53950000Y-10450000D01*
X53950000Y-10450000D01*
G37*
X53950000Y-10450000D02*
X43050000Y-10450000D01*
X43050000Y-8764500D01*
X44192000Y-8764500D01*
X44192000Y-9360993D01*
X44276950Y-9566082D01*
X44433918Y-9723049D01*
X44639007Y-9808000D01*
X45235500Y-9808000D01*
X45375000Y-9668500D01*
X45375000Y-8625000D01*
X46625000Y-8625000D01*
X46625000Y-9668500D01*
X46764500Y-9808000D01*
X47360993Y-9808000D01*
X47566082Y-9723049D01*
X47723050Y-9566082D01*
X47808000Y-9360993D01*
X47808000Y-8764500D01*
X50192000Y-8764500D01*
X50192000Y-9360993D01*
X50276950Y-9566082D01*
X50433918Y-9723049D01*
X50639007Y-9808000D01*
X51235500Y-9808000D01*
X51375000Y-9668500D01*
X51375000Y-8625000D01*
X52625000Y-8625000D01*
X52625000Y-9668500D01*
X52764500Y-9808000D01*
X53360993Y-9808000D01*
X53566082Y-9723049D01*
X53723050Y-9566082D01*
X53808000Y-9360993D01*
X53808000Y-8764500D01*
X53668500Y-8625000D01*
X52625000Y-8625000D01*
X51375000Y-8625000D01*
X50331500Y-8625000D01*
X50192000Y-8764500D01*
X47808000Y-8764500D01*
X47668500Y-8625000D01*
X46625000Y-8625000D01*
X45375000Y-8625000D01*
X44331500Y-8625000D01*
X44192000Y-8764500D01*
X43050000Y-8764500D01*
X43050000Y-7000000D01*
X43046061Y-6980547D01*
X43034864Y-6964160D01*
X43018173Y-6953419D01*
X43000000Y-6950000D01*
X35050000Y-6950000D01*
X35050000Y-6639007D01*
X44192000Y-6639007D01*
X44192000Y-7235500D01*
X44331500Y-7375000D01*
X45375000Y-7375000D01*
X45375000Y-6331500D01*
X46625000Y-6331500D01*
X46625000Y-7375000D01*
X47668500Y-7375000D01*
X47808000Y-7235500D01*
X47808000Y-6639007D01*
X50192000Y-6639007D01*
X50192000Y-7235500D01*
X50331500Y-7375000D01*
X51375000Y-7375000D01*
X51375000Y-6331500D01*
X52625000Y-6331500D01*
X52625000Y-7375000D01*
X53668500Y-7375000D01*
X53808000Y-7235500D01*
X53808000Y-6639007D01*
X53723050Y-6433918D01*
X53566082Y-6276951D01*
X53360993Y-6192000D01*
X52764500Y-6192000D01*
X52625000Y-6331500D01*
X51375000Y-6331500D01*
X51235500Y-6192000D01*
X50639007Y-6192000D01*
X50433918Y-6276951D01*
X50276950Y-6433918D01*
X50192000Y-6639007D01*
X47808000Y-6639007D01*
X47723050Y-6433918D01*
X47566082Y-6276951D01*
X47360993Y-6192000D01*
X46764500Y-6192000D01*
X46625000Y-6331500D01*
X45375000Y-6331500D01*
X45235500Y-6192000D01*
X44639007Y-6192000D01*
X44433918Y-6276951D01*
X44276950Y-6433918D01*
X44192000Y-6639007D01*
X35050000Y-6639007D01*
X35050000Y-3764500D01*
X44192000Y-3764500D01*
X44192000Y-4360993D01*
X44276950Y-4566082D01*
X44433918Y-4723049D01*
X44639007Y-4808000D01*
X45235500Y-4808000D01*
X45375000Y-4668500D01*
X45375000Y-3625000D01*
X46625000Y-3625000D01*
X46625000Y-4668500D01*
X46764500Y-4808000D01*
X47360993Y-4808000D01*
X47566082Y-4723049D01*
X47723050Y-4566082D01*
X47808000Y-4360993D01*
X47808000Y-3764500D01*
X50192000Y-3764500D01*
X50192000Y-4360993D01*
X50276950Y-4566082D01*
X50433918Y-4723049D01*
X50639007Y-4808000D01*
X51235500Y-4808000D01*
X51375000Y-4668500D01*
X51375000Y-3625000D01*
X52625000Y-3625000D01*
X52625000Y-4668500D01*
X52764500Y-4808000D01*
X53360993Y-4808000D01*
X53566082Y-4723049D01*
X53723050Y-4566082D01*
X53808000Y-4360993D01*
X53808000Y-3764500D01*
X53668500Y-3625000D01*
X52625000Y-3625000D01*
X51375000Y-3625000D01*
X50331500Y-3625000D01*
X50192000Y-3764500D01*
X47808000Y-3764500D01*
X47668500Y-3625000D01*
X46625000Y-3625000D01*
X45375000Y-3625000D01*
X44331500Y-3625000D01*
X44192000Y-3764500D01*
X35050000Y-3764500D01*
X35050000Y-1639007D01*
X44192000Y-1639007D01*
X44192000Y-2235500D01*
X44331500Y-2375000D01*
X45375000Y-2375000D01*
X45375000Y-1331500D01*
X46625000Y-1331500D01*
X46625000Y-2375000D01*
X47668500Y-2375000D01*
X47808000Y-2235500D01*
X47808000Y-1639007D01*
X50192000Y-1639007D01*
X50192000Y-2235500D01*
X50331500Y-2375000D01*
X51375000Y-2375000D01*
X51375000Y-1331500D01*
X52625000Y-1331500D01*
X52625000Y-2375000D01*
X53668500Y-2375000D01*
X53808000Y-2235500D01*
X53808000Y-1639007D01*
X53723050Y-1433918D01*
X53566082Y-1276951D01*
X53360993Y-1192000D01*
X52764500Y-1192000D01*
X52625000Y-1331500D01*
X51375000Y-1331500D01*
X51235500Y-1192000D01*
X50639007Y-1192000D01*
X50433918Y-1276951D01*
X50276950Y-1433918D01*
X50192000Y-1639007D01*
X47808000Y-1639007D01*
X47723050Y-1433918D01*
X47566082Y-1276951D01*
X47360993Y-1192000D01*
X46764500Y-1192000D01*
X46625000Y-1331500D01*
X45375000Y-1331500D01*
X45235500Y-1192000D01*
X44639007Y-1192000D01*
X44433918Y-1276951D01*
X44276950Y-1433918D01*
X44192000Y-1639007D01*
X35050000Y-1639007D01*
X35050000Y-608000D01*
X53950000Y-608000D01*
X53950000Y-10450000D01*
G36*
X77950000Y-22450000D02*
X64550000Y-22450000D01*
X64550000Y-18539500D01*
X65642000Y-18539500D01*
X65642000Y-18910993D01*
X65726951Y-19116082D01*
X65883918Y-19273050D01*
X66089007Y-19358000D01*
X66460500Y-19358000D01*
X66600000Y-19218500D01*
X66600000Y-18400000D01*
X67400000Y-18400000D01*
X67400000Y-19218500D01*
X67539500Y-19358000D01*
X67910993Y-19358000D01*
X68116082Y-19273050D01*
X68273049Y-19116082D01*
X68358000Y-18910993D01*
X68358000Y-18539500D01*
X68218500Y-18400000D01*
X67400000Y-18400000D01*
X66600000Y-18400000D01*
X65781500Y-18400000D01*
X65642000Y-18539500D01*
X64550000Y-18539500D01*
X64550000Y-17089007D01*
X65642000Y-17089007D01*
X65642000Y-17460500D01*
X65781500Y-17600000D01*
X66600000Y-17600000D01*
X66600000Y-16781500D01*
X67400000Y-16781500D01*
X67400000Y-17600000D01*
X68218500Y-17600000D01*
X68358000Y-17460500D01*
X68358000Y-17089007D01*
X68273049Y-16883918D01*
X68116082Y-16726950D01*
X67910993Y-16642000D01*
X67539500Y-16642000D01*
X67400000Y-16781500D01*
X66600000Y-16781500D01*
X66460500Y-16642000D01*
X66089007Y-16642000D01*
X65883918Y-16726950D01*
X65726951Y-16883918D01*
X65642000Y-17089007D01*
X64550000Y-17089007D01*
X64550000Y-13000000D01*
X64546061Y-12980547D01*
X64534864Y-12964160D01*
X64518173Y-12953419D01*
X64500000Y-12950000D01*
X56050000Y-12950000D01*
X56050000Y-8764500D01*
X56192000Y-8764500D01*
X56192000Y-9360993D01*
X56276950Y-9566082D01*
X56433918Y-9723049D01*
X56639007Y-9808000D01*
X57235500Y-9808000D01*
X57375000Y-9668500D01*
X57375000Y-8625000D01*
X58625000Y-8625000D01*
X58625000Y-9668500D01*
X58764500Y-9808000D01*
X59360993Y-9808000D01*
X59566082Y-9723049D01*
X59723050Y-9566082D01*
X59808000Y-9360993D01*
X59808000Y-8764500D01*
X62192000Y-8764500D01*
X62192000Y-9360993D01*
X62276950Y-9566082D01*
X62433918Y-9723049D01*
X62639007Y-9808000D01*
X63235500Y-9808000D01*
X63375000Y-9668500D01*
X63375000Y-8625000D01*
X64625000Y-8625000D01*
X64625000Y-9668500D01*
X64764500Y-9808000D01*
X65360993Y-9808000D01*
X65566082Y-9723049D01*
X65723050Y-9566082D01*
X65808000Y-9360993D01*
X65808000Y-8764500D01*
X65668500Y-8625000D01*
X64625000Y-8625000D01*
X63375000Y-8625000D01*
X62331500Y-8625000D01*
X62192000Y-8764500D01*
X59808000Y-8764500D01*
X59668500Y-8625000D01*
X58625000Y-8625000D01*
X57375000Y-8625000D01*
X56331500Y-8625000D01*
X56192000Y-8764500D01*
X56050000Y-8764500D01*
X56050000Y-6639007D01*
X56192000Y-6639007D01*
X56192000Y-7235500D01*
X56331500Y-7375000D01*
X57375000Y-7375000D01*
X57375000Y-6331500D01*
X58625000Y-6331500D01*
X58625000Y-7375000D01*
X59668500Y-7375000D01*
X59808000Y-7235500D01*
X59808000Y-6639007D01*
X62192000Y-6639007D01*
X62192000Y-7235500D01*
X62331500Y-7375000D01*
X63375000Y-7375000D01*
X63375000Y-6331500D01*
X64625000Y-6331500D01*
X64625000Y-7375000D01*
X65668500Y-7375000D01*
X65808000Y-7235500D01*
X65808000Y-6704625D01*
X68441384Y-6704625D01*
X68981916Y-8012812D01*
X69981924Y-9014567D01*
X71289165Y-9557381D01*
X72704625Y-9558616D01*
X74012812Y-9018084D01*
X75014567Y-8018076D01*
X75557381Y-6710835D01*
X75558616Y-5295375D01*
X75018084Y-3987188D01*
X74018076Y-2985433D01*
X72710835Y-2442619D01*
X71295375Y-2441384D01*
X69987188Y-2981916D01*
X68985433Y-3981924D01*
X68442619Y-5289165D01*
X68441384Y-6704625D01*
X65808000Y-6704625D01*
X65808000Y-6639007D01*
X65723050Y-6433918D01*
X65566082Y-6276951D01*
X65360993Y-6192000D01*
X64764500Y-6192000D01*
X64625000Y-6331500D01*
X63375000Y-6331500D01*
X63235500Y-6192000D01*
X62639007Y-6192000D01*
X62433918Y-6276951D01*
X62276950Y-6433918D01*
X62192000Y-6639007D01*
X59808000Y-6639007D01*
X59723050Y-6433918D01*
X59566082Y-6276951D01*
X59360993Y-6192000D01*
X58764500Y-6192000D01*
X58625000Y-6331500D01*
X57375000Y-6331500D01*
X57235500Y-6192000D01*
X56639007Y-6192000D01*
X56433918Y-6276951D01*
X56276950Y-6433918D01*
X56192000Y-6639007D01*
X56050000Y-6639007D01*
X56050000Y-3764500D01*
X56192000Y-3764500D01*
X56192000Y-4360993D01*
X56276950Y-4566082D01*
X56433918Y-4723049D01*
X56639007Y-4808000D01*
X57235500Y-4808000D01*
X57375000Y-4668500D01*
X57375000Y-3625000D01*
X58625000Y-3625000D01*
X58625000Y-4668500D01*
X58764500Y-4808000D01*
X59360993Y-4808000D01*
X59566082Y-4723049D01*
X59723050Y-4566082D01*
X59808000Y-4360993D01*
X59808000Y-3764500D01*
X62192000Y-3764500D01*
X62192000Y-4360993D01*
X62276950Y-4566082D01*
X62433918Y-4723049D01*
X62639007Y-4808000D01*
X63235500Y-4808000D01*
X63375000Y-4668500D01*
X63375000Y-3625000D01*
X64625000Y-3625000D01*
X64625000Y-4668500D01*
X64764500Y-4808000D01*
X65360993Y-4808000D01*
X65566082Y-4723049D01*
X65723050Y-4566082D01*
X65808000Y-4360993D01*
X65808000Y-3764500D01*
X65668500Y-3625000D01*
X64625000Y-3625000D01*
X63375000Y-3625000D01*
X62331500Y-3625000D01*
X62192000Y-3764500D01*
X59808000Y-3764500D01*
X59668500Y-3625000D01*
X58625000Y-3625000D01*
X57375000Y-3625000D01*
X56331500Y-3625000D01*
X56192000Y-3764500D01*
X56050000Y-3764500D01*
X56050000Y-1639007D01*
X56192000Y-1639007D01*
X56192000Y-2235500D01*
X56331500Y-2375000D01*
X57375000Y-2375000D01*
X57375000Y-1331500D01*
X58625000Y-1331500D01*
X58625000Y-2375000D01*
X59668500Y-2375000D01*
X59808000Y-2235500D01*
X59808000Y-1639007D01*
X62192000Y-1639007D01*
X62192000Y-2235500D01*
X62331500Y-2375000D01*
X63375000Y-2375000D01*
X63375000Y-1331500D01*
X64625000Y-1331500D01*
X64625000Y-2375000D01*
X65668500Y-2375000D01*
X65808000Y-2235500D01*
X65808000Y-1639007D01*
X65723050Y-1433918D01*
X65566082Y-1276951D01*
X65360993Y-1192000D01*
X64764500Y-1192000D01*
X64625000Y-1331500D01*
X63375000Y-1331500D01*
X63235500Y-1192000D01*
X62639007Y-1192000D01*
X62433918Y-1276951D01*
X62276950Y-1433918D01*
X62192000Y-1639007D01*
X59808000Y-1639007D01*
X59723050Y-1433918D01*
X59566082Y-1276951D01*
X59360993Y-1192000D01*
X58764500Y-1192000D01*
X58625000Y-1331500D01*
X57375000Y-1331500D01*
X57235500Y-1192000D01*
X56639007Y-1192000D01*
X56433918Y-1276951D01*
X56276950Y-1433918D01*
X56192000Y-1639007D01*
X56050000Y-1639007D01*
X56050000Y-608000D01*
X77950000Y-608000D01*
X77950000Y-22450000D01*
X77950000Y-22450000D01*
G37*
X77950000Y-22450000D02*
X64550000Y-22450000D01*
X64550000Y-18539500D01*
X65642000Y-18539500D01*
X65642000Y-18910993D01*
X65726951Y-19116082D01*
X65883918Y-19273050D01*
X66089007Y-19358000D01*
X66460500Y-19358000D01*
X66600000Y-19218500D01*
X66600000Y-18400000D01*
X67400000Y-18400000D01*
X67400000Y-19218500D01*
X67539500Y-19358000D01*
X67910993Y-19358000D01*
X68116082Y-19273050D01*
X68273049Y-19116082D01*
X68358000Y-18910993D01*
X68358000Y-18539500D01*
X68218500Y-18400000D01*
X67400000Y-18400000D01*
X66600000Y-18400000D01*
X65781500Y-18400000D01*
X65642000Y-18539500D01*
X64550000Y-18539500D01*
X64550000Y-17089007D01*
X65642000Y-17089007D01*
X65642000Y-17460500D01*
X65781500Y-17600000D01*
X66600000Y-17600000D01*
X66600000Y-16781500D01*
X67400000Y-16781500D01*
X67400000Y-17600000D01*
X68218500Y-17600000D01*
X68358000Y-17460500D01*
X68358000Y-17089007D01*
X68273049Y-16883918D01*
X68116082Y-16726950D01*
X67910993Y-16642000D01*
X67539500Y-16642000D01*
X67400000Y-16781500D01*
X66600000Y-16781500D01*
X66460500Y-16642000D01*
X66089007Y-16642000D01*
X65883918Y-16726950D01*
X65726951Y-16883918D01*
X65642000Y-17089007D01*
X64550000Y-17089007D01*
X64550000Y-13000000D01*
X64546061Y-12980547D01*
X64534864Y-12964160D01*
X64518173Y-12953419D01*
X64500000Y-12950000D01*
X56050000Y-12950000D01*
X56050000Y-8764500D01*
X56192000Y-8764500D01*
X56192000Y-9360993D01*
X56276950Y-9566082D01*
X56433918Y-9723049D01*
X56639007Y-9808000D01*
X57235500Y-9808000D01*
X57375000Y-9668500D01*
X57375000Y-8625000D01*
X58625000Y-8625000D01*
X58625000Y-9668500D01*
X58764500Y-9808000D01*
X59360993Y-9808000D01*
X59566082Y-9723049D01*
X59723050Y-9566082D01*
X59808000Y-9360993D01*
X59808000Y-8764500D01*
X62192000Y-8764500D01*
X62192000Y-9360993D01*
X62276950Y-9566082D01*
X62433918Y-9723049D01*
X62639007Y-9808000D01*
X63235500Y-9808000D01*
X63375000Y-9668500D01*
X63375000Y-8625000D01*
X64625000Y-8625000D01*
X64625000Y-9668500D01*
X64764500Y-9808000D01*
X65360993Y-9808000D01*
X65566082Y-9723049D01*
X65723050Y-9566082D01*
X65808000Y-9360993D01*
X65808000Y-8764500D01*
X65668500Y-8625000D01*
X64625000Y-8625000D01*
X63375000Y-8625000D01*
X62331500Y-8625000D01*
X62192000Y-8764500D01*
X59808000Y-8764500D01*
X59668500Y-8625000D01*
X58625000Y-8625000D01*
X57375000Y-8625000D01*
X56331500Y-8625000D01*
X56192000Y-8764500D01*
X56050000Y-8764500D01*
X56050000Y-6639007D01*
X56192000Y-6639007D01*
X56192000Y-7235500D01*
X56331500Y-7375000D01*
X57375000Y-7375000D01*
X57375000Y-6331500D01*
X58625000Y-6331500D01*
X58625000Y-7375000D01*
X59668500Y-7375000D01*
X59808000Y-7235500D01*
X59808000Y-6639007D01*
X62192000Y-6639007D01*
X62192000Y-7235500D01*
X62331500Y-7375000D01*
X63375000Y-7375000D01*
X63375000Y-6331500D01*
X64625000Y-6331500D01*
X64625000Y-7375000D01*
X65668500Y-7375000D01*
X65808000Y-7235500D01*
X65808000Y-6704625D01*
X68441384Y-6704625D01*
X68981916Y-8012812D01*
X69981924Y-9014567D01*
X71289165Y-9557381D01*
X72704625Y-9558616D01*
X74012812Y-9018084D01*
X75014567Y-8018076D01*
X75557381Y-6710835D01*
X75558616Y-5295375D01*
X75018084Y-3987188D01*
X74018076Y-2985433D01*
X72710835Y-2442619D01*
X71295375Y-2441384D01*
X69987188Y-2981916D01*
X68985433Y-3981924D01*
X68442619Y-5289165D01*
X68441384Y-6704625D01*
X65808000Y-6704625D01*
X65808000Y-6639007D01*
X65723050Y-6433918D01*
X65566082Y-6276951D01*
X65360993Y-6192000D01*
X64764500Y-6192000D01*
X64625000Y-6331500D01*
X63375000Y-6331500D01*
X63235500Y-6192000D01*
X62639007Y-6192000D01*
X62433918Y-6276951D01*
X62276950Y-6433918D01*
X62192000Y-6639007D01*
X59808000Y-6639007D01*
X59723050Y-6433918D01*
X59566082Y-6276951D01*
X59360993Y-6192000D01*
X58764500Y-6192000D01*
X58625000Y-6331500D01*
X57375000Y-6331500D01*
X57235500Y-6192000D01*
X56639007Y-6192000D01*
X56433918Y-6276951D01*
X56276950Y-6433918D01*
X56192000Y-6639007D01*
X56050000Y-6639007D01*
X56050000Y-3764500D01*
X56192000Y-3764500D01*
X56192000Y-4360993D01*
X56276950Y-4566082D01*
X56433918Y-4723049D01*
X56639007Y-4808000D01*
X57235500Y-4808000D01*
X57375000Y-4668500D01*
X57375000Y-3625000D01*
X58625000Y-3625000D01*
X58625000Y-4668500D01*
X58764500Y-4808000D01*
X59360993Y-4808000D01*
X59566082Y-4723049D01*
X59723050Y-4566082D01*
X59808000Y-4360993D01*
X59808000Y-3764500D01*
X62192000Y-3764500D01*
X62192000Y-4360993D01*
X62276950Y-4566082D01*
X62433918Y-4723049D01*
X62639007Y-4808000D01*
X63235500Y-4808000D01*
X63375000Y-4668500D01*
X63375000Y-3625000D01*
X64625000Y-3625000D01*
X64625000Y-4668500D01*
X64764500Y-4808000D01*
X65360993Y-4808000D01*
X65566082Y-4723049D01*
X65723050Y-4566082D01*
X65808000Y-4360993D01*
X65808000Y-3764500D01*
X65668500Y-3625000D01*
X64625000Y-3625000D01*
X63375000Y-3625000D01*
X62331500Y-3625000D01*
X62192000Y-3764500D01*
X59808000Y-3764500D01*
X59668500Y-3625000D01*
X58625000Y-3625000D01*
X57375000Y-3625000D01*
X56331500Y-3625000D01*
X56192000Y-3764500D01*
X56050000Y-3764500D01*
X56050000Y-1639007D01*
X56192000Y-1639007D01*
X56192000Y-2235500D01*
X56331500Y-2375000D01*
X57375000Y-2375000D01*
X57375000Y-1331500D01*
X58625000Y-1331500D01*
X58625000Y-2375000D01*
X59668500Y-2375000D01*
X59808000Y-2235500D01*
X59808000Y-1639007D01*
X62192000Y-1639007D01*
X62192000Y-2235500D01*
X62331500Y-2375000D01*
X63375000Y-2375000D01*
X63375000Y-1331500D01*
X64625000Y-1331500D01*
X64625000Y-2375000D01*
X65668500Y-2375000D01*
X65808000Y-2235500D01*
X65808000Y-1639007D01*
X65723050Y-1433918D01*
X65566082Y-1276951D01*
X65360993Y-1192000D01*
X64764500Y-1192000D01*
X64625000Y-1331500D01*
X63375000Y-1331500D01*
X63235500Y-1192000D01*
X62639007Y-1192000D01*
X62433918Y-1276951D01*
X62276950Y-1433918D01*
X62192000Y-1639007D01*
X59808000Y-1639007D01*
X59723050Y-1433918D01*
X59566082Y-1276951D01*
X59360993Y-1192000D01*
X58764500Y-1192000D01*
X58625000Y-1331500D01*
X57375000Y-1331500D01*
X57235500Y-1192000D01*
X56639007Y-1192000D01*
X56433918Y-1276951D01*
X56276950Y-1433918D01*
X56192000Y-1639007D01*
X56050000Y-1639007D01*
X56050000Y-608000D01*
X77950000Y-608000D01*
X77950000Y-22450000D01*
M02*
