M48
;DRILL file {KiCad 4.0.2-4+6225~38~ubuntu15.04.1-stable} date Sa 02 Apr 2016 12:31:38 CEST
;FORMAT={-:-/ absolute / metric / decimal}
FMAT,2
METRIC,TZ
T1C0.300
T2C0.508
T3C0.998
T4C1.000
T5C1.100
T6C1.200
T7C1.300
T8C3.200
T9C3.200
%
G90
G05
M71
T1
X35.542Y-59.653
X35.542Y-61.127
X36.329Y-59.653
X36.329Y-61.139
X37.142Y-59.641
X37.142Y-61.127
X37.967Y-59.653
X38.044Y-61.127
X40.266Y-57.342
X40.266Y-62.549
T2
X1.5Y-51.5
X1.5Y-75.5
X3.5Y-51.5
X6.Y-53.
X8.Y-50.5
X10.4Y-53.2
X15.5Y-63.
X18.Y-66.5
X26.Y-60.5
X26.2Y-62.3
X27.Y-52.2
X27.5Y-75.5
X29.Y-35.5
X29.Y-37.5
X30.106Y-59.945
X30.106Y-62.168
X32.Y-35.25
X32.5Y-60.4
X34.5Y-36.25
X37.Y-32.5
X37.25Y-35.25
X39.75Y-35.25
X42.1Y-60.1
X42.5Y-32.
X42.5Y-34.25
X43.Y-26.25
X43.25Y-39.25
X43.8Y-52.3
X44.3Y-54.8
X45.3Y-56.5
X47.2Y-57.2
X47.2Y-59.8
X49.Y-44.
X49.7Y-58.2
X50.4Y-52.2
X51.061Y-35.244
X52.75Y-46.75
X52.9Y-41.2
X54.3Y-52.3
X54.3Y-58.3
X54.363Y-39.244
X55.379Y-48.77
X56.5Y-56.5
X56.75Y-59.628
X57.9Y-41.1
X58.5Y-54.
X59.Y-37.1
X59.Y-44.5
X60.75Y-29.
X66.25Y-29.
X76.5Y-26.25
X76.75Y-31.25
T3
X72.Y-29.19
X72.Y-31.73
X72.Y-34.27
X72.Y-36.81
T4
X12.75Y-7.
X12.75Y-17.
X31.25Y-7.
X31.25Y-17.
T5
X44.Y-18.
X67.Y-18.
T6
X6.Y-13.
X6.Y-28.
X14.5Y-28.
X29.5Y-28.
T7
X46.Y-3.
X46.Y-8.
X52.Y-3.
X52.Y-8.
X58.Y-3.
X58.Y-8.
X64.Y-3.
X64.Y-8.
T8
X6.Y-36.
T9
X5.Y-70.
X6.Y-6.
X72.Y-6.
X72.Y-70.
T0
M30
