G04 #@! TF.FileFunction,Soldermask,Top*
%FSLAX46Y46*%
G04 Gerber Fmt 4.6, Leading zero omitted, Abs format (unit mm)*
G04 Created by KiCad (PCBNEW 4.0.2-4+6225~38~ubuntu15.04.1-stable) date Sa 02 Apr 2016 12:31:30 CEST*
%MOMM*%
G01*
G04 APERTURE LIST*
%ADD10C,0.150000*%
%ADD11R,1.300000X0.700000*%
%ADD12R,1.800860X3.500120*%
%ADD13C,6.000000*%
%ADD14R,0.600000X1.550000*%
%ADD15R,1.175000X1.175000*%
%ADD16R,1.000000X1.600000*%
%ADD17O,3.014980X1.506220*%
%ADD18C,2.199640*%
%ADD19R,2.400300X4.900000*%
%ADD20R,2.400300X3.500120*%
%ADD21R,4.900000X2.400300*%
%ADD22R,1.250000X1.000000*%
%ADD23R,1.000000X1.250000*%
%ADD24R,3.556000X4.191000*%
%ADD25R,2.199640X3.599180*%
%ADD26R,0.700000X1.300000*%
%ADD27R,1.600000X1.600000*%
%ADD28C,1.600000*%
%ADD29R,1.700000X1.700000*%
%ADD30C,1.700000*%
%ADD31R,1.700000X0.900000*%
%ADD32R,5.000000X5.499100*%
%ADD33R,2.500000X2.500000*%
%ADD34C,0.600000*%
%ADD35C,0.889000*%
%ADD36C,0.100000*%
G04 APERTURE END LIST*
D10*
D11*
X30000000Y-65450000D03*
X30000000Y-63550000D03*
D12*
X39600000Y-31899360D03*
X39600000Y-26900640D03*
D13*
X6000000Y-6000000D03*
X5000000Y-70000000D03*
X72000000Y-70000000D03*
X72000000Y-6000000D03*
D14*
X38869000Y-57690000D03*
X37599000Y-57690000D03*
X36329000Y-57690000D03*
X35059000Y-57690000D03*
X35059000Y-63090000D03*
X36329000Y-63090000D03*
X37599000Y-63090000D03*
X38869000Y-63090000D03*
D15*
X36376500Y-60977500D03*
X37551500Y-60977500D03*
X36376500Y-59802500D03*
X37551500Y-59802500D03*
D16*
X27200000Y-35600000D03*
X24200000Y-35600000D03*
D17*
X72000000Y-36810000D03*
X72000000Y-34270000D03*
X72000000Y-31730000D03*
X72000000Y-29190000D03*
D18*
X31250000Y-7000000D03*
X12750000Y-7000000D03*
X12750000Y-17000000D03*
X31250000Y-17000000D03*
D19*
X18000000Y-53600000D03*
X18000000Y-62900000D03*
D20*
X63500000Y-35501200D03*
X63500000Y-28998800D03*
D21*
X43400000Y-44100000D03*
X52700000Y-44100000D03*
D22*
X41917000Y-62692000D03*
X41917000Y-64692000D03*
D23*
X34948000Y-69915000D03*
X36948000Y-69915000D03*
X34948000Y-66994000D03*
X36948000Y-66994000D03*
X61078000Y-42864000D03*
X59078000Y-42864000D03*
X61078000Y-39308000D03*
X59078000Y-39308000D03*
D16*
X39718500Y-54802000D03*
X42718500Y-54802000D03*
X61451000Y-59628000D03*
X58451000Y-59628000D03*
X61451000Y-56326000D03*
X58451000Y-56326000D03*
D23*
X29582000Y-57088000D03*
X27582000Y-57088000D03*
D12*
X44711000Y-59287640D03*
X44711000Y-64286360D03*
X34500000Y-32999360D03*
X34500000Y-28000640D03*
X13100000Y-35500640D03*
X13100000Y-40499360D03*
X19500000Y-35500640D03*
X19500000Y-40499360D03*
D24*
X37000000Y-11175000D03*
X37000000Y-4825000D03*
D25*
X66682000Y-52145160D03*
X66682000Y-43742840D03*
D11*
X32646000Y-67314000D03*
X32646000Y-69214000D03*
D26*
X29450000Y-55000000D03*
X27550000Y-55000000D03*
D11*
X32000000Y-53050000D03*
X32000000Y-54950000D03*
X30000000Y-69200000D03*
X30000000Y-67300000D03*
D27*
X67000000Y-18000000D03*
D28*
X44000000Y-18000000D03*
D29*
X14500000Y-28000000D03*
D30*
X29500000Y-28000000D03*
D29*
X6000000Y-13000000D03*
D30*
X6000000Y-28000000D03*
D13*
X6000000Y-36000000D03*
D12*
X10300000Y-50499360D03*
X10300000Y-45500640D03*
X6100000Y-45300640D03*
X6100000Y-50299360D03*
D31*
X2600000Y-49350000D03*
X2600000Y-46450000D03*
D32*
X23992800Y-44600000D03*
X37607200Y-44600000D03*
X47047800Y-69445100D03*
X60662200Y-69445100D03*
D23*
X42100000Y-52300000D03*
X40100000Y-52300000D03*
D33*
X64000000Y-3000000D03*
X64000000Y-8000000D03*
X58000000Y-8000000D03*
X58000000Y-3000000D03*
X46000000Y-8000000D03*
X46000000Y-3000000D03*
X52000000Y-3000000D03*
X52000000Y-8000000D03*
D34*
X40266000Y-57342000D03*
X40266000Y-62549000D03*
D35*
X49000000Y-44000000D03*
X52900000Y-41200000D03*
X26200000Y-62300000D03*
X49700000Y-58200000D03*
X54300000Y-58300000D03*
X54300000Y-52300000D03*
X50400000Y-52200000D03*
X42100000Y-60100000D03*
X45300000Y-56500000D03*
X44300000Y-54800000D03*
X43800000Y-52300000D03*
X47200000Y-57200000D03*
X47200000Y-59800000D03*
X32500000Y-60400000D03*
X57900000Y-41100000D03*
X59000000Y-37100000D03*
X26000000Y-60500000D03*
X27000000Y-52200000D03*
X27500000Y-75500000D03*
X1500000Y-75500000D03*
X18000000Y-66500000D03*
X15500000Y-63000000D03*
X10400000Y-53200000D03*
X8000000Y-50500000D03*
X6000000Y-53000000D03*
X3500000Y-51500000D03*
X1500000Y-51500000D03*
X56750000Y-59628000D03*
X56500000Y-56500000D03*
X58500000Y-54000000D03*
X59000000Y-44500000D03*
X52750000Y-46750000D03*
X43250000Y-39250000D03*
X29000000Y-37500000D03*
X29000000Y-35500000D03*
X32000000Y-35250000D03*
X34500000Y-36250000D03*
X37000000Y-32500000D03*
X37250000Y-35250000D03*
X39750000Y-35250000D03*
X42500000Y-34250000D03*
X42500000Y-32000000D03*
X43000000Y-26250000D03*
X76750000Y-31250000D03*
X76500000Y-26250000D03*
X66250000Y-29000000D03*
X60750000Y-29000000D03*
D34*
X38043500Y-61126600D03*
X37141800Y-61126600D03*
X36329000Y-61139300D03*
X35541600Y-61126600D03*
X37967300Y-59653400D03*
X37141800Y-59640700D03*
X36329000Y-59653400D03*
X35541600Y-59653400D03*
D35*
X55379000Y-48769500D03*
X30106000Y-62168000D03*
X30106000Y-59945500D03*
X54363000Y-39244500D03*
X51061000Y-35244000D03*
D36*
G36*
X39450000Y-61450000D02*
X34550000Y-61450000D01*
X34550000Y-59050000D01*
X39450000Y-59050000D01*
X39450000Y-61450000D01*
X39450000Y-61450000D01*
G37*
X39450000Y-61450000D02*
X34550000Y-61450000D01*
X34550000Y-59050000D01*
X39450000Y-59050000D01*
X39450000Y-61450000D01*
M02*
