G04 #@! TF.FileFunction,Legend,Top*
%FSLAX46Y46*%
G04 Gerber Fmt 4.6, Leading zero omitted, Abs format (unit mm)*
G04 Created by KiCad (PCBNEW 4.0.2-4+6225~38~ubuntu15.04.1-stable) date Sa 02 Apr 2016 12:31:30 CEST*
%MOMM*%
G01*
G04 APERTURE LIST*
%ADD10C,0.150000*%
%ADD11C,0.300000*%
%ADD12C,0.200000*%
%ADD13C,0.127000*%
%ADD14C,0.203200*%
%ADD15C,0.381000*%
%ADD16C,0.000120*%
%ADD17C,0.254000*%
%ADD18C,0.101600*%
%ADD19C,0.119380*%
%ADD20C,0.152400*%
%ADD21C,0.304800*%
%ADD22R,1.300000X0.700000*%
%ADD23R,1.800860X3.500120*%
%ADD24C,6.000000*%
%ADD25R,0.600000X1.550000*%
%ADD26R,1.175000X1.175000*%
%ADD27R,1.000000X1.600000*%
%ADD28O,3.014980X1.506220*%
%ADD29C,2.199640*%
%ADD30R,2.400300X4.900000*%
%ADD31R,2.400300X3.500120*%
%ADD32R,4.900000X2.400300*%
%ADD33R,1.250000X1.000000*%
%ADD34R,1.000000X1.250000*%
%ADD35R,3.556000X4.191000*%
%ADD36R,2.199640X3.599180*%
%ADD37R,0.700000X1.300000*%
%ADD38R,1.600000X1.600000*%
%ADD39C,1.600000*%
%ADD40R,1.700000X1.700000*%
%ADD41C,1.700000*%
%ADD42R,1.700000X0.900000*%
%ADD43R,5.000000X5.499100*%
%ADD44R,2.500000X2.500000*%
%ADD45C,0.600000*%
%ADD46C,0.889000*%
%ADD47C,0.100000*%
G04 APERTURE END LIST*
D10*
D11*
X35535715Y-15492857D02*
X35035715Y-15492857D01*
X35035715Y-16278571D02*
X35035715Y-14778571D01*
X35750001Y-14778571D01*
X36321429Y-14778571D02*
X36321429Y-15992857D01*
X36392857Y-16135714D01*
X36464286Y-16207143D01*
X36607143Y-16278571D01*
X36892857Y-16278571D01*
X37035715Y-16207143D01*
X37107143Y-16135714D01*
X37178572Y-15992857D01*
X37178572Y-14778571D01*
X37821429Y-16207143D02*
X38035715Y-16278571D01*
X38392858Y-16278571D01*
X38535715Y-16207143D01*
X38607144Y-16135714D01*
X38678572Y-15992857D01*
X38678572Y-15850000D01*
X38607144Y-15707143D01*
X38535715Y-15635714D01*
X38392858Y-15564286D01*
X38107144Y-15492857D01*
X37964286Y-15421429D01*
X37892858Y-15350000D01*
X37821429Y-15207143D01*
X37821429Y-15064286D01*
X37892858Y-14921429D01*
X37964286Y-14850000D01*
X38107144Y-14778571D01*
X38464286Y-14778571D01*
X38678572Y-14850000D01*
X39321429Y-15492857D02*
X39821429Y-15492857D01*
X40035715Y-16278571D02*
X39321429Y-16278571D01*
X39321429Y-14778571D01*
X40035715Y-14778571D01*
X35857143Y-17321429D02*
X35928572Y-17250000D01*
X36071429Y-17178571D01*
X36428572Y-17178571D01*
X36571429Y-17250000D01*
X36642858Y-17321429D01*
X36714286Y-17464286D01*
X36714286Y-17607143D01*
X36642858Y-17821429D01*
X35785715Y-18678571D01*
X36714286Y-18678571D01*
X37285714Y-18250000D02*
X38000000Y-18250000D01*
X37142857Y-18678571D02*
X37642857Y-17178571D01*
X38142857Y-18678571D01*
X35571429Y-21078571D02*
X35571429Y-20078571D01*
X35571429Y-20221429D02*
X35642857Y-20150000D01*
X35785715Y-20078571D01*
X36000000Y-20078571D01*
X36142857Y-20150000D01*
X36214286Y-20292857D01*
X36214286Y-21078571D01*
X36214286Y-20292857D02*
X36285715Y-20150000D01*
X36428572Y-20078571D01*
X36642857Y-20078571D01*
X36785715Y-20150000D01*
X36857143Y-20292857D01*
X36857143Y-21078571D01*
X38214286Y-21078571D02*
X38214286Y-20292857D01*
X38142857Y-20150000D01*
X38000000Y-20078571D01*
X37714286Y-20078571D01*
X37571429Y-20150000D01*
X38214286Y-21007143D02*
X38071429Y-21078571D01*
X37714286Y-21078571D01*
X37571429Y-21007143D01*
X37500000Y-20864286D01*
X37500000Y-20721429D01*
X37571429Y-20578571D01*
X37714286Y-20507143D01*
X38071429Y-20507143D01*
X38214286Y-20435714D01*
X38785715Y-21078571D02*
X39571429Y-20078571D01*
X38785715Y-20078571D02*
X39571429Y-21078571D01*
D12*
X42000000Y-500000D02*
X43500000Y-500000D01*
X42000000Y-10500000D02*
X42000000Y-500000D01*
X43500000Y-10500000D02*
X42000000Y-10500000D01*
X54000000Y-10500000D02*
X54000000Y-10000000D01*
X43500000Y-10500000D02*
X54000000Y-10500000D01*
X42000000Y-500000D02*
X42000000Y-10500000D01*
X54000000Y-500000D02*
X43500000Y-500000D01*
X54000000Y-10500000D02*
X54000000Y-500000D01*
X55000000Y-10500000D02*
X55000000Y-9500000D01*
X68500000Y-10500000D02*
X55000000Y-10500000D01*
X68500000Y-10000000D02*
X68500000Y-10500000D01*
X68500000Y-500000D02*
X68500000Y-10000000D01*
X55000000Y-500000D02*
X68500000Y-500000D01*
X55000000Y-10000000D02*
X55000000Y-500000D01*
D11*
X44571429Y-12250000D02*
X45285715Y-12250000D01*
X44428572Y-12678571D02*
X44928572Y-11178571D01*
X45428572Y-12678571D01*
X46785715Y-12535714D02*
X46714286Y-12607143D01*
X46500000Y-12678571D01*
X46357143Y-12678571D01*
X46142858Y-12607143D01*
X46000000Y-12464286D01*
X45928572Y-12321429D01*
X45857143Y-12035714D01*
X45857143Y-11821429D01*
X45928572Y-11535714D01*
X46000000Y-11392857D01*
X46142858Y-11250000D01*
X46357143Y-11178571D01*
X46500000Y-11178571D01*
X46714286Y-11250000D01*
X46785715Y-11321429D01*
X48571429Y-12678571D02*
X48571429Y-11178571D01*
X49285715Y-11678571D02*
X49285715Y-12678571D01*
X49285715Y-11821429D02*
X49357143Y-11750000D01*
X49500001Y-11678571D01*
X49714286Y-11678571D01*
X49857143Y-11750000D01*
X49928572Y-11892857D01*
X49928572Y-12678571D01*
X50642858Y-11678571D02*
X50642858Y-13178571D01*
X50642858Y-11750000D02*
X50785715Y-11678571D01*
X51071429Y-11678571D01*
X51214286Y-11750000D01*
X51285715Y-11821429D01*
X51357144Y-11964286D01*
X51357144Y-12392857D01*
X51285715Y-12535714D01*
X51214286Y-12607143D01*
X51071429Y-12678571D01*
X50785715Y-12678571D01*
X50642858Y-12607143D01*
X52642858Y-11678571D02*
X52642858Y-12678571D01*
X52000001Y-11678571D02*
X52000001Y-12464286D01*
X52071429Y-12607143D01*
X52214287Y-12678571D01*
X52428572Y-12678571D01*
X52571429Y-12607143D01*
X52642858Y-12535714D01*
X53142858Y-11678571D02*
X53714287Y-11678571D01*
X53357144Y-11178571D02*
X53357144Y-12464286D01*
X53428572Y-12607143D01*
X53571430Y-12678571D01*
X53714287Y-12678571D01*
X55285715Y-11321429D02*
X55357144Y-11250000D01*
X55500001Y-11178571D01*
X55857144Y-11178571D01*
X56000001Y-11250000D01*
X56071430Y-11321429D01*
X56142858Y-11464286D01*
X56142858Y-11607143D01*
X56071430Y-11821429D01*
X55214287Y-12678571D01*
X56142858Y-12678571D01*
X57000001Y-11821429D02*
X56857143Y-11750000D01*
X56785715Y-11678571D01*
X56714286Y-11535714D01*
X56714286Y-11464286D01*
X56785715Y-11321429D01*
X56857143Y-11250000D01*
X57000001Y-11178571D01*
X57285715Y-11178571D01*
X57428572Y-11250000D01*
X57500001Y-11321429D01*
X57571429Y-11464286D01*
X57571429Y-11535714D01*
X57500001Y-11678571D01*
X57428572Y-11750000D01*
X57285715Y-11821429D01*
X57000001Y-11821429D01*
X56857143Y-11892857D01*
X56785715Y-11964286D01*
X56714286Y-12107143D01*
X56714286Y-12392857D01*
X56785715Y-12535714D01*
X56857143Y-12607143D01*
X57000001Y-12678571D01*
X57285715Y-12678571D01*
X57428572Y-12607143D01*
X57500001Y-12535714D01*
X57571429Y-12392857D01*
X57571429Y-12107143D01*
X57500001Y-11964286D01*
X57428572Y-11892857D01*
X57285715Y-11821429D01*
X59142857Y-11178571D02*
X59642857Y-12678571D01*
X60142857Y-11178571D01*
X60857143Y-12678571D02*
X60714285Y-12607143D01*
X60642857Y-12535714D01*
X60571428Y-12392857D01*
X60571428Y-11964286D01*
X60642857Y-11821429D01*
X60714285Y-11750000D01*
X60857143Y-11678571D01*
X61071428Y-11678571D01*
X61214285Y-11750000D01*
X61285714Y-11821429D01*
X61357143Y-11964286D01*
X61357143Y-12392857D01*
X61285714Y-12535714D01*
X61214285Y-12607143D01*
X61071428Y-12678571D01*
X60857143Y-12678571D01*
X62214286Y-12678571D02*
X62071428Y-12607143D01*
X62000000Y-12464286D01*
X62000000Y-11178571D01*
X62571428Y-11678571D02*
X63142857Y-11678571D01*
X62785714Y-11178571D02*
X62785714Y-12464286D01*
X62857142Y-12607143D01*
X63000000Y-12678571D01*
X63142857Y-12678571D01*
X64785714Y-12678571D02*
X64785714Y-11178571D01*
X65285714Y-12250000D01*
X65785714Y-11178571D01*
X65785714Y-12678571D01*
X67142857Y-12678571D02*
X67142857Y-11892857D01*
X67071428Y-11750000D01*
X66928571Y-11678571D01*
X66642857Y-11678571D01*
X66500000Y-11750000D01*
X67142857Y-12607143D02*
X67000000Y-12678571D01*
X66642857Y-12678571D01*
X66500000Y-12607143D01*
X66428571Y-12464286D01*
X66428571Y-12321429D01*
X66500000Y-12178571D01*
X66642857Y-12107143D01*
X67000000Y-12107143D01*
X67142857Y-12035714D01*
X67714286Y-12678571D02*
X68500000Y-11678571D01*
X67714286Y-11678571D02*
X68500000Y-12678571D01*
X72978571Y-48449999D02*
X72978571Y-49164285D01*
X71478571Y-49164285D01*
X71621429Y-48021428D02*
X71550000Y-47949999D01*
X71478571Y-47807142D01*
X71478571Y-47449999D01*
X71550000Y-47307142D01*
X71621429Y-47235713D01*
X71764286Y-47164285D01*
X71907143Y-47164285D01*
X72121429Y-47235713D01*
X72978571Y-48092856D01*
X72978571Y-47164285D01*
D12*
X43250000Y-34000000D02*
X43250000Y-33500000D01*
X57000000Y-34000000D02*
X43250000Y-34000000D01*
X57000000Y-29750000D02*
X57000000Y-34000000D01*
X43250000Y-29750000D02*
X57000000Y-29750000D01*
X43250000Y-33750000D02*
X43250000Y-29750000D01*
X38000000Y-39000000D02*
X40000000Y-39000000D01*
X38000000Y-37000000D02*
X38000000Y-39000000D01*
X38000000Y-39000000D02*
X38000000Y-37000000D01*
X41000000Y-36000000D02*
X38000000Y-39000000D01*
X44000000Y-36000000D02*
X41000000Y-36000000D01*
X47000000Y-36000000D02*
X44000000Y-36000000D01*
X49000000Y-34000000D02*
X47000000Y-36000000D01*
D11*
X21257143Y-12135714D02*
X21185714Y-12207143D01*
X20971428Y-12278571D01*
X20828571Y-12278571D01*
X20614286Y-12207143D01*
X20471428Y-12064286D01*
X20400000Y-11921429D01*
X20328571Y-11635714D01*
X20328571Y-11421429D01*
X20400000Y-11135714D01*
X20471428Y-10992857D01*
X20614286Y-10850000D01*
X20828571Y-10778571D01*
X20971428Y-10778571D01*
X21185714Y-10850000D01*
X21257143Y-10921429D01*
X21900000Y-12278571D02*
X21900000Y-10778571D01*
X22400000Y-11850000D01*
X22900000Y-10778571D01*
X22900000Y-12278571D01*
X24471429Y-12135714D02*
X24400000Y-12207143D01*
X24185714Y-12278571D01*
X24042857Y-12278571D01*
X23828572Y-12207143D01*
X23685714Y-12064286D01*
X23614286Y-11921429D01*
X23542857Y-11635714D01*
X23542857Y-11421429D01*
X23614286Y-11135714D01*
X23685714Y-10992857D01*
X23828572Y-10850000D01*
X24042857Y-10778571D01*
X24185714Y-10778571D01*
X24400000Y-10850000D01*
X24471429Y-10921429D01*
X13078573Y-14607143D02*
X13292859Y-14678571D01*
X13650002Y-14678571D01*
X13792859Y-14607143D01*
X13864288Y-14535714D01*
X13935716Y-14392857D01*
X13935716Y-14250000D01*
X13864288Y-14107143D01*
X13792859Y-14035714D01*
X13650002Y-13964286D01*
X13364288Y-13892857D01*
X13221430Y-13821429D01*
X13150002Y-13750000D01*
X13078573Y-13607143D01*
X13078573Y-13464286D01*
X13150002Y-13321429D01*
X13221430Y-13250000D01*
X13364288Y-13178571D01*
X13721430Y-13178571D01*
X13935716Y-13250000D01*
X14507144Y-14607143D02*
X14721430Y-14678571D01*
X15078573Y-14678571D01*
X15221430Y-14607143D01*
X15292859Y-14535714D01*
X15364287Y-14392857D01*
X15364287Y-14250000D01*
X15292859Y-14107143D01*
X15221430Y-14035714D01*
X15078573Y-13964286D01*
X14792859Y-13892857D01*
X14650001Y-13821429D01*
X14578573Y-13750000D01*
X14507144Y-13607143D01*
X14507144Y-13464286D01*
X14578573Y-13321429D01*
X14650001Y-13250000D01*
X14792859Y-13178571D01*
X15150001Y-13178571D01*
X15364287Y-13250000D01*
X16864287Y-14678571D02*
X16364287Y-13964286D01*
X16007144Y-14678571D02*
X16007144Y-13178571D01*
X16578572Y-13178571D01*
X16721430Y-13250000D01*
X16792858Y-13321429D01*
X16864287Y-13464286D01*
X16864287Y-13678571D01*
X16792858Y-13821429D01*
X16721430Y-13892857D01*
X16578572Y-13964286D01*
X16007144Y-13964286D01*
X17435715Y-13321429D02*
X17507144Y-13250000D01*
X17650001Y-13178571D01*
X18007144Y-13178571D01*
X18150001Y-13250000D01*
X18221430Y-13321429D01*
X18292858Y-13464286D01*
X18292858Y-13607143D01*
X18221430Y-13821429D01*
X17364287Y-14678571D01*
X18292858Y-14678571D01*
X19721429Y-14678571D02*
X18864286Y-14678571D01*
X19292858Y-14678571D02*
X19292858Y-13178571D01*
X19150001Y-13392857D01*
X19007143Y-13535714D01*
X18864286Y-13607143D01*
X20364286Y-14678571D02*
X20364286Y-13178571D01*
X20364286Y-13892857D02*
X21221429Y-13892857D01*
X21221429Y-14678571D02*
X21221429Y-13178571D01*
X21864286Y-14607143D02*
X22078572Y-14678571D01*
X22435715Y-14678571D01*
X22578572Y-14607143D01*
X22650001Y-14535714D01*
X22721429Y-14392857D01*
X22721429Y-14250000D01*
X22650001Y-14107143D01*
X22578572Y-14035714D01*
X22435715Y-13964286D01*
X22150001Y-13892857D01*
X22007143Y-13821429D01*
X21935715Y-13750000D01*
X21864286Y-13607143D01*
X21864286Y-13464286D01*
X21935715Y-13321429D01*
X22007143Y-13250000D01*
X22150001Y-13178571D01*
X22507143Y-13178571D01*
X22721429Y-13250000D01*
X23364286Y-14107143D02*
X24507143Y-14107143D01*
X25150000Y-13321429D02*
X25221429Y-13250000D01*
X25364286Y-13178571D01*
X25721429Y-13178571D01*
X25864286Y-13250000D01*
X25935715Y-13321429D01*
X26007143Y-13464286D01*
X26007143Y-13607143D01*
X25935715Y-13821429D01*
X25078572Y-14678571D01*
X26007143Y-14678571D01*
X26935714Y-13178571D02*
X27078571Y-13178571D01*
X27221428Y-13250000D01*
X27292857Y-13321429D01*
X27364286Y-13464286D01*
X27435714Y-13750000D01*
X27435714Y-14107143D01*
X27364286Y-14392857D01*
X27292857Y-14535714D01*
X27221428Y-14607143D01*
X27078571Y-14678571D01*
X26935714Y-14678571D01*
X26792857Y-14607143D01*
X26721428Y-14535714D01*
X26650000Y-14392857D01*
X26578571Y-14107143D01*
X26578571Y-13750000D01*
X26650000Y-13464286D01*
X26721428Y-13321429D01*
X26792857Y-13250000D01*
X26935714Y-13178571D01*
X28364285Y-13178571D02*
X28507142Y-13178571D01*
X28649999Y-13250000D01*
X28721428Y-13321429D01*
X28792857Y-13464286D01*
X28864285Y-13750000D01*
X28864285Y-14107143D01*
X28792857Y-14392857D01*
X28721428Y-14535714D01*
X28649999Y-14607143D01*
X28507142Y-14678571D01*
X28364285Y-14678571D01*
X28221428Y-14607143D01*
X28149999Y-14535714D01*
X28078571Y-14392857D01*
X28007142Y-14107143D01*
X28007142Y-13750000D01*
X28078571Y-13464286D01*
X28149999Y-13321429D01*
X28221428Y-13250000D01*
X28364285Y-13178571D01*
X29435713Y-13321429D02*
X29507142Y-13250000D01*
X29649999Y-13178571D01*
X30007142Y-13178571D01*
X30149999Y-13250000D01*
X30221428Y-13321429D01*
X30292856Y-13464286D01*
X30292856Y-13607143D01*
X30221428Y-13821429D01*
X29364285Y-14678571D01*
X30292856Y-14678571D01*
X31007141Y-14678571D02*
X31292856Y-14678571D01*
X31435713Y-14607143D01*
X31507141Y-14535714D01*
X31649999Y-14321429D01*
X31721427Y-14035714D01*
X31721427Y-13464286D01*
X31649999Y-13321429D01*
X31578570Y-13250000D01*
X31435713Y-13178571D01*
X31149999Y-13178571D01*
X31007141Y-13250000D01*
X30935713Y-13321429D01*
X30864284Y-13464286D01*
X30864284Y-13821429D01*
X30935713Y-13964286D01*
X31007141Y-14035714D01*
X31149999Y-14107143D01*
X31435713Y-14107143D01*
X31578570Y-14035714D01*
X31649999Y-13964286D01*
X31721427Y-13821429D01*
D10*
X30875000Y-63900000D02*
X30875000Y-65100000D01*
X29125000Y-65100000D02*
X29125000Y-63900000D01*
X39600000Y-29650000D02*
X39150000Y-29100000D01*
X39150000Y-29100000D02*
X40050000Y-29100000D01*
X40050000Y-29100000D02*
X39600000Y-29650000D01*
X39050000Y-29650000D02*
X40150000Y-29650000D01*
X41350060Y-31199140D02*
X40999540Y-31199140D01*
X37849940Y-31199140D02*
X38200460Y-31199140D01*
X41350060Y-27149560D02*
X40999540Y-27149560D01*
X41350060Y-31650440D02*
X40999540Y-31650440D01*
X37849940Y-31650440D02*
X38200460Y-31650440D01*
X37849940Y-27149560D02*
X38200460Y-27149560D01*
X41350060Y-31650440D02*
X41350060Y-27149560D01*
X37849940Y-31650440D02*
X37849940Y-27149560D01*
X39539000Y-58315000D02*
X39394000Y-58315000D01*
X39539000Y-62465000D02*
X39394000Y-62465000D01*
X34389000Y-62465000D02*
X34534000Y-62465000D01*
X34389000Y-58315000D02*
X34534000Y-58315000D01*
X39539000Y-58315000D02*
X39539000Y-62465000D01*
X34389000Y-58315000D02*
X34389000Y-62465000D01*
X39394000Y-58315000D02*
X39394000Y-56915000D01*
X24700000Y-36625000D02*
X26700000Y-36625000D01*
X26700000Y-34575000D02*
X24700000Y-34575000D01*
X75175000Y-33000000D02*
X75175000Y-38588000D01*
X68825000Y-38588000D02*
X68825000Y-33000000D01*
X70730000Y-33000000D02*
X70730000Y-38588000D01*
X75175000Y-33000000D02*
X75175000Y-27412000D01*
X70730000Y-33000000D02*
X70730000Y-27412000D01*
X68825000Y-33000000D02*
X68825000Y-27412000D01*
X68825000Y-38588000D02*
X75175000Y-38588000D01*
X68825000Y-27412000D02*
X75175000Y-27412000D01*
X15500000Y-500000D02*
X10500000Y-500000D01*
X10500000Y-500000D02*
X10500000Y-23500000D01*
X10500000Y-23500000D02*
X33500000Y-23500000D01*
X33500000Y-23500000D02*
X33500000Y-500000D01*
X33500000Y-500000D02*
X28500000Y-500000D01*
X27000000Y-4500000D02*
X31250000Y-4500000D01*
X31250000Y-4500000D02*
X31250000Y-5500000D01*
X17000000Y-4500000D02*
X12750000Y-4500000D01*
X12750000Y-4500000D02*
X12750000Y-5500000D01*
X17000000Y-19500000D02*
X12750000Y-19500000D01*
X12750000Y-19500000D02*
X12750000Y-18500000D01*
X27000000Y-19500000D02*
X31250000Y-19500000D01*
X31250000Y-19500000D02*
X31250000Y-18500000D01*
X26500880Y-2999000D02*
G75*
G03X26500880Y-2999000I-500380J0D01*
G01*
X26500880Y-21001000D02*
G75*
G03X26500880Y-21001000I-500380J0D01*
G01*
X19500640Y-4500140D02*
X24499360Y-4500140D01*
X24499360Y-3999760D02*
X19500640Y-3999760D01*
X19500640Y-5000520D02*
X24499360Y-5000520D01*
X27001260Y-4500140D02*
X24499360Y-4500140D01*
X16998740Y-4500140D02*
X19500640Y-4500140D01*
X19500640Y-3499380D02*
X24499360Y-3499380D01*
X24499360Y-3499380D02*
X24499360Y-5500900D01*
X24499360Y-5500900D02*
X19500640Y-5500900D01*
X19500640Y-5500900D02*
X19500640Y-3499380D01*
X19500640Y-19499860D02*
X16998740Y-19499860D01*
X24499360Y-18999480D02*
X19500640Y-18999480D01*
X19500640Y-20000240D02*
X24499360Y-20000240D01*
X24499360Y-19499860D02*
X19500640Y-19499860D01*
X22000000Y-20500620D02*
X19500640Y-20500620D01*
X19500640Y-20500620D02*
X19500640Y-18499100D01*
X19500640Y-18499100D02*
X24499360Y-18499100D01*
X24499360Y-19499860D02*
X27001260Y-19499860D01*
X24499360Y-18499100D02*
X24499360Y-20500620D01*
X24499360Y-20500620D02*
X22000000Y-20500620D01*
X15500140Y-498880D02*
X28499860Y-498880D01*
X11700000Y-58200000D02*
X11700000Y-64400000D01*
X11700000Y-64400000D02*
X20400000Y-64400000D01*
X20400000Y-64400000D02*
X24400000Y-64400000D01*
X24400000Y-64400000D02*
X24400000Y-53000000D01*
X24400000Y-53000000D02*
X23400000Y-52000000D01*
X23400000Y-52000000D02*
X13600000Y-52000000D01*
X13600000Y-52000000D02*
X11700000Y-53800000D01*
X11700000Y-53800000D02*
X11700000Y-58200000D01*
X20800000Y-63800000D02*
X15200000Y-63800000D01*
X15500000Y-63900000D02*
X20500000Y-63900000D01*
X20300000Y-64000000D02*
X15700000Y-64000000D01*
X16000000Y-64100000D02*
X20000000Y-64100000D01*
X16500000Y-64200000D02*
X16300000Y-64200000D01*
X19300000Y-64300000D02*
X16700000Y-64300000D01*
X16500000Y-64200000D02*
X19600000Y-64200000D01*
X18900000Y-64300000D02*
X19000000Y-64300000D01*
X17100000Y-64300000D02*
X17000000Y-64300000D01*
X17200000Y-64300000D02*
X18900000Y-64300000D01*
X18800000Y-64400000D02*
X17600000Y-64400000D01*
X18400000Y-64400000D02*
X17400000Y-64400000D01*
X17400000Y-64400000D02*
X17200000Y-64400000D01*
D13*
X24250000Y-58200000D02*
G75*
G03X24250000Y-58200000I-6250000J0D01*
G01*
X18000000Y-53628000D02*
X18000000Y-54390000D01*
X17619000Y-54009000D02*
X18381000Y-54009000D01*
D10*
X64516000Y-28440000D02*
X62484000Y-28440000D01*
X62103000Y-28567000D02*
X64897000Y-28567000D01*
X65151000Y-28694000D02*
X61849000Y-28694000D01*
X61595000Y-28821000D02*
X65405000Y-28821000D01*
X61468000Y-28948000D02*
X65532000Y-28948000D01*
X65786000Y-29075000D02*
X61214000Y-29075000D01*
X67691000Y-28059000D02*
X59309000Y-28059000D01*
X59309000Y-28059000D02*
X59309000Y-35679000D01*
X59309000Y-35679000D02*
X60071000Y-36441000D01*
X60071000Y-36441000D02*
X66929000Y-36441000D01*
X66929000Y-36441000D02*
X67691000Y-35679000D01*
X67691000Y-35679000D02*
X67691000Y-28059000D01*
X63500000Y-35933000D02*
X63500000Y-35171000D01*
X63881000Y-35552000D02*
X63119000Y-35552000D01*
X67437000Y-32250000D02*
G75*
G03X67437000Y-32250000I-3937000J0D01*
G01*
X48000000Y-50400000D02*
X54200000Y-50400000D01*
X54200000Y-50400000D02*
X54200000Y-41700000D01*
X54200000Y-41700000D02*
X54200000Y-37700000D01*
X54200000Y-37700000D02*
X42800000Y-37700000D01*
X42800000Y-37700000D02*
X41800000Y-38700000D01*
X41800000Y-38700000D02*
X41800000Y-48500000D01*
X41800000Y-48500000D02*
X43600000Y-50400000D01*
X43600000Y-50400000D02*
X48000000Y-50400000D01*
X53600000Y-41300000D02*
X53600000Y-46900000D01*
X53700000Y-46600000D02*
X53700000Y-41600000D01*
X53800000Y-41800000D02*
X53800000Y-46400000D01*
X53900000Y-46100000D02*
X53900000Y-42100000D01*
X54000000Y-45600000D02*
X54000000Y-45800000D01*
X54100000Y-42800000D02*
X54100000Y-45400000D01*
X54000000Y-45600000D02*
X54000000Y-42500000D01*
X54100000Y-43200000D02*
X54100000Y-43100000D01*
X54100000Y-45000000D02*
X54100000Y-45100000D01*
X54100000Y-44900000D02*
X54100000Y-43200000D01*
X54200000Y-43300000D02*
X54200000Y-44500000D01*
X54200000Y-43700000D02*
X54200000Y-44700000D01*
X54200000Y-44700000D02*
X54200000Y-44900000D01*
D13*
X54250000Y-44100000D02*
G75*
G03X54250000Y-44100000I-6250000J0D01*
G01*
X43428000Y-44100000D02*
X44190000Y-44100000D01*
X43809000Y-44481000D02*
X43809000Y-43719000D01*
D10*
X42767000Y-64192000D02*
X42767000Y-63192000D01*
X41067000Y-63192000D02*
X41067000Y-64192000D01*
X36448000Y-69065000D02*
X35448000Y-69065000D01*
X35448000Y-70765000D02*
X36448000Y-70765000D01*
X36448000Y-66144000D02*
X35448000Y-66144000D01*
X35448000Y-67844000D02*
X36448000Y-67844000D01*
X59578000Y-43714000D02*
X60578000Y-43714000D01*
X60578000Y-42014000D02*
X59578000Y-42014000D01*
X59578000Y-40158000D02*
X60578000Y-40158000D01*
X60578000Y-38458000D02*
X59578000Y-38458000D01*
X42218500Y-53777000D02*
X40218500Y-53777000D01*
X40218500Y-55827000D02*
X42218500Y-55827000D01*
X58951000Y-60653000D02*
X60951000Y-60653000D01*
X60951000Y-58603000D02*
X58951000Y-58603000D01*
X58951000Y-57351000D02*
X60951000Y-57351000D01*
X60951000Y-55301000D02*
X58951000Y-55301000D01*
X28082000Y-57938000D02*
X29082000Y-57938000D01*
X29082000Y-56238000D02*
X28082000Y-56238000D01*
X44711000Y-61537000D02*
X45161000Y-62087000D01*
X45161000Y-62087000D02*
X44261000Y-62087000D01*
X44261000Y-62087000D02*
X44711000Y-61537000D01*
X45261000Y-61537000D02*
X44161000Y-61537000D01*
X42960940Y-59987860D02*
X43311460Y-59987860D01*
X46461060Y-59987860D02*
X46110540Y-59987860D01*
X42960940Y-64037440D02*
X43311460Y-64037440D01*
X42960940Y-59536560D02*
X43311460Y-59536560D01*
X46461060Y-59536560D02*
X46110540Y-59536560D01*
X46461060Y-64037440D02*
X46110540Y-64037440D01*
X42960940Y-59536560D02*
X42960940Y-64037440D01*
X46461060Y-59536560D02*
X46461060Y-64037440D01*
X34500000Y-30750000D02*
X34050000Y-30200000D01*
X34050000Y-30200000D02*
X34950000Y-30200000D01*
X34950000Y-30200000D02*
X34500000Y-30750000D01*
X33950000Y-30750000D02*
X35050000Y-30750000D01*
X36250060Y-32299140D02*
X35899540Y-32299140D01*
X32749940Y-32299140D02*
X33100460Y-32299140D01*
X36250060Y-28249560D02*
X35899540Y-28249560D01*
X36250060Y-32750440D02*
X35899540Y-32750440D01*
X32749940Y-32750440D02*
X33100460Y-32750440D01*
X32749940Y-28249560D02*
X33100460Y-28249560D01*
X36250060Y-32750440D02*
X36250060Y-28249560D01*
X32749940Y-32750440D02*
X32749940Y-28249560D01*
X13100000Y-37750000D02*
X13550000Y-38300000D01*
X13550000Y-38300000D02*
X12650000Y-38300000D01*
X12650000Y-38300000D02*
X13100000Y-37750000D01*
X13650000Y-37750000D02*
X12550000Y-37750000D01*
X11349940Y-36200860D02*
X11700460Y-36200860D01*
X14850060Y-36200860D02*
X14499540Y-36200860D01*
X11349940Y-40250440D02*
X11700460Y-40250440D01*
X11349940Y-35749560D02*
X11700460Y-35749560D01*
X14850060Y-35749560D02*
X14499540Y-35749560D01*
X14850060Y-40250440D02*
X14499540Y-40250440D01*
X11349940Y-35749560D02*
X11349940Y-40250440D01*
X14850060Y-35749560D02*
X14850060Y-40250440D01*
X19500000Y-37750000D02*
X19950000Y-38300000D01*
X19950000Y-38300000D02*
X19050000Y-38300000D01*
X19050000Y-38300000D02*
X19500000Y-37750000D01*
X20050000Y-37750000D02*
X18950000Y-37750000D01*
X17749940Y-36200860D02*
X18100460Y-36200860D01*
X21250060Y-36200860D02*
X20899540Y-36200860D01*
X17749940Y-40250440D02*
X18100460Y-40250440D01*
X17749940Y-35749560D02*
X18100460Y-35749560D01*
X21250060Y-35749560D02*
X20899540Y-35749560D01*
X21250060Y-40250440D02*
X20899540Y-40250440D01*
X17749940Y-35749560D02*
X17749940Y-40250440D01*
X21250060Y-35749560D02*
X21250060Y-40250440D01*
D14*
X39032000Y-2412000D02*
X39032000Y-6730000D01*
X39032000Y-6730000D02*
X39540000Y-6730000D01*
X34968000Y-2412000D02*
X34968000Y-6730000D01*
X34968000Y-6730000D02*
X34460000Y-6730000D01*
X34968000Y-13461000D02*
X34968000Y-9270000D01*
X34968000Y-9270000D02*
X34460000Y-9270000D01*
X39032000Y-13461000D02*
X39032000Y-9270000D01*
X39032000Y-9270000D02*
X39540000Y-9270000D01*
X39540000Y-13461000D02*
X39540000Y-2412000D01*
X34460000Y-2412000D02*
X34460000Y-13461000D01*
X34460000Y-2412000D02*
X39540000Y-2412000D01*
X39540000Y-13461000D02*
X34460000Y-13461000D01*
D15*
X65111581Y-49544200D02*
G75*
G03X65111581Y-49544200I-179641J0D01*
G01*
X68282200Y-50694820D02*
X68632720Y-50443360D01*
X68632720Y-50443360D02*
X69031500Y-49993780D01*
X69031500Y-49993780D02*
X69382020Y-49544200D01*
X69382020Y-49544200D02*
X69681740Y-48893960D01*
X69681740Y-48893960D02*
X69780800Y-48294520D01*
X69780800Y-48294520D02*
X69831600Y-47794140D01*
X69831600Y-47794140D02*
X69732540Y-47194700D01*
X69732540Y-47194700D02*
X69481080Y-46544460D01*
X69481080Y-46544460D02*
X69133100Y-45993280D01*
X69133100Y-45993280D02*
X68680980Y-45543700D01*
X68680980Y-45543700D02*
X68282200Y-45243980D01*
X65081800Y-45243980D02*
X64731280Y-45492900D01*
X64731280Y-45492900D02*
X64281700Y-45945020D01*
X64281700Y-45945020D02*
X63931180Y-46442860D01*
X63931180Y-46442860D02*
X63733060Y-46943240D01*
X63733060Y-46943240D02*
X63583200Y-47545220D01*
X63583200Y-47545220D02*
X63532400Y-47944000D01*
X63532400Y-47944000D02*
X63583200Y-48495180D01*
X63583200Y-48495180D02*
X63733060Y-49094620D01*
X63733060Y-49094620D02*
X64032780Y-49694060D01*
X64032780Y-49694060D02*
X64380760Y-50143640D01*
X64380760Y-50143640D02*
X64832880Y-50494160D01*
X64832880Y-50494160D02*
X65081800Y-50694820D01*
X62932960Y-44194960D02*
X65031000Y-44194960D01*
X68333000Y-51693040D02*
X70431040Y-51693040D01*
X70431040Y-51693040D02*
X70431040Y-44194960D01*
X70431040Y-44194960D02*
X68333000Y-44194960D01*
X62932960Y-44194960D02*
X62932960Y-51693040D01*
X62932960Y-51693040D02*
X65031000Y-51693040D01*
D10*
X31771000Y-68864000D02*
X31771000Y-67664000D01*
X33521000Y-67664000D02*
X33521000Y-68864000D01*
X27900000Y-54125000D02*
X29100000Y-54125000D01*
X29100000Y-55875000D02*
X27900000Y-55875000D01*
X31125000Y-54600000D02*
X31125000Y-53400000D01*
X32875000Y-53400000D02*
X32875000Y-54600000D01*
X30875000Y-67650000D02*
X30875000Y-68850000D01*
X29125000Y-68850000D02*
X29125000Y-67650000D01*
X69000000Y-22500000D02*
X43000000Y-22500000D01*
X43000000Y-22500000D02*
X43000000Y-13500000D01*
X43000000Y-13500000D02*
X69000000Y-13500000D01*
X69000000Y-13500000D02*
X69000000Y-22500000D01*
X13000000Y-25500000D02*
X13000000Y-25500000D01*
X31000000Y-30500000D02*
X31000000Y-25500000D01*
X31000000Y-25500000D02*
X13000000Y-25500000D01*
X13000000Y-25500000D02*
X13000000Y-30500000D01*
X13000000Y-30500000D02*
X31000000Y-30500000D01*
X8500000Y-11500000D02*
X8500000Y-11500000D01*
X3500000Y-29500000D02*
X8500000Y-29500000D01*
X8500000Y-29500000D02*
X8500000Y-11500000D01*
X8500000Y-11500000D02*
X3500000Y-11500000D01*
X3500000Y-11500000D02*
X3500000Y-29500000D01*
X10300000Y-48250000D02*
X9850000Y-47700000D01*
X9850000Y-47700000D02*
X10750000Y-47700000D01*
X10750000Y-47700000D02*
X10300000Y-48250000D01*
X9750000Y-48250000D02*
X10850000Y-48250000D01*
X12050060Y-49799140D02*
X11699540Y-49799140D01*
X8549940Y-49799140D02*
X8900460Y-49799140D01*
X12050060Y-45749560D02*
X11699540Y-45749560D01*
X12050060Y-50250440D02*
X11699540Y-50250440D01*
X8549940Y-50250440D02*
X8900460Y-50250440D01*
X8549940Y-45749560D02*
X8900460Y-45749560D01*
X12050060Y-50250440D02*
X12050060Y-45749560D01*
X8549940Y-50250440D02*
X8549940Y-45749560D01*
X6100000Y-47550000D02*
X6550000Y-48100000D01*
X6550000Y-48100000D02*
X5650000Y-48100000D01*
X5650000Y-48100000D02*
X6100000Y-47550000D01*
X6650000Y-47550000D02*
X5550000Y-47550000D01*
X4349940Y-46000860D02*
X4700460Y-46000860D01*
X7850060Y-46000860D02*
X7499540Y-46000860D01*
X4349940Y-50050440D02*
X4700460Y-50050440D01*
X4349940Y-45549560D02*
X4700460Y-45549560D01*
X7850060Y-45549560D02*
X7499540Y-45549560D01*
X7850060Y-50050440D02*
X7499540Y-50050440D01*
X4349940Y-45549560D02*
X4349940Y-50050440D01*
X7850060Y-45549560D02*
X7850060Y-50050440D01*
X3675000Y-46900000D02*
X3675000Y-48900000D01*
X1525000Y-48900000D02*
X1525000Y-46900000D01*
D16*
X24650660Y-48747820D02*
X24650660Y-40452180D01*
D14*
X26652180Y-38450660D02*
X34947820Y-38450660D01*
D16*
X36949340Y-40452180D02*
X36949340Y-48747820D01*
X34947820Y-50749340D02*
X26652180Y-50749340D01*
D14*
X24701460Y-48747820D02*
X24701460Y-40452180D01*
D13*
X26652180Y-38501460D02*
X34947820Y-38501460D01*
D14*
X36898540Y-40452180D02*
X36898540Y-48747820D01*
X34947820Y-50698540D02*
X26652180Y-50698540D01*
D17*
X24300140Y-51099860D02*
X24300140Y-38100140D01*
X24300140Y-38100140D02*
X37299860Y-38100140D01*
X37299860Y-38100140D02*
X37299860Y-51099860D01*
X37299860Y-51099860D02*
X24300140Y-51099860D01*
D18*
X33979011Y-44600000D02*
G75*
G03X33979011Y-44600000I-3179011J0D01*
G01*
D14*
X26346888Y-41710472D02*
G75*
G03X26352460Y-47498140I4475972J-2889528D01*
G01*
X33744541Y-40152908D02*
G75*
G03X27901860Y-40152460I-2921681J-4447092D01*
G01*
X35247092Y-47544541D02*
G75*
G03X35247540Y-41701860I-4447092J2921681D01*
G01*
X27855459Y-49047092D02*
G75*
G03X33698140Y-49047540I2921681J4447092D01*
G01*
X26351890Y-47498276D02*
G75*
G03X27901860Y-49047540I300290J-1249544D01*
G01*
X33698276Y-49048110D02*
G75*
G03X35247540Y-47498140I1249544J300290D01*
G01*
X35248110Y-41701724D02*
G75*
G03X33698140Y-40152460I-300290J1249544D01*
G01*
X27899702Y-40199629D02*
G75*
G03X26352460Y-41701860I-1257682J-252551D01*
G01*
X24701460Y-48747820D02*
G75*
G03X26652180Y-50698540I1950720J0D01*
G01*
X26652180Y-38501460D02*
G75*
G03X24701460Y-40452180I0J-1950720D01*
G01*
X36898540Y-40452180D02*
G75*
G03X34947820Y-38501460I-1950720J0D01*
G01*
X34947820Y-50698540D02*
G75*
G03X36898540Y-48747820I0J1950720D01*
G01*
D16*
X47705660Y-73592920D02*
X47705660Y-65297280D01*
D14*
X49707180Y-63295760D02*
X58002820Y-63295760D01*
D16*
X60004340Y-65297280D02*
X60004340Y-73592920D01*
X58002820Y-75594440D02*
X49707180Y-75594440D01*
D14*
X47756460Y-73592920D02*
X47756460Y-65297280D01*
D13*
X49707180Y-63346560D02*
X58002820Y-63346560D01*
D14*
X59953540Y-65297280D02*
X59953540Y-73592920D01*
X58002820Y-75543640D02*
X49707180Y-75543640D01*
D17*
X47355140Y-75944960D02*
X47355140Y-62945240D01*
X47355140Y-62945240D02*
X60354860Y-62945240D01*
X60354860Y-62945240D02*
X60354860Y-75944960D01*
X60354860Y-75944960D02*
X47355140Y-75944960D01*
D18*
X57034011Y-69445100D02*
G75*
G03X57034011Y-69445100I-3179011J0D01*
G01*
D14*
X49401888Y-66555572D02*
G75*
G03X49407460Y-72343240I4475972J-2889528D01*
G01*
X56799541Y-64998008D02*
G75*
G03X50956860Y-64997560I-2921681J-4447092D01*
G01*
X58302092Y-72389641D02*
G75*
G03X58302540Y-66546960I-4447092J2921681D01*
G01*
X50910459Y-73892192D02*
G75*
G03X56753140Y-73892640I2921681J4447092D01*
G01*
X49406890Y-72343376D02*
G75*
G03X50956860Y-73892640I300290J-1249544D01*
G01*
X56753276Y-73893210D02*
G75*
G03X58302540Y-72343240I1249544J300290D01*
G01*
X58303110Y-66546824D02*
G75*
G03X56753140Y-64997560I-300290J1249544D01*
G01*
X50954702Y-65044729D02*
G75*
G03X49407460Y-66546960I-1257682J-252551D01*
G01*
X47756460Y-73592920D02*
G75*
G03X49707180Y-75543640I1950720J0D01*
G01*
X49707180Y-63346560D02*
G75*
G03X47756460Y-65297280I0J-1950720D01*
G01*
X59953540Y-65297280D02*
G75*
G03X58002820Y-63346560I-1950720J0D01*
G01*
X58002820Y-75543640D02*
G75*
G03X59953540Y-73592920I0J1950720D01*
G01*
D10*
X40600000Y-53150000D02*
X41600000Y-53150000D01*
X41600000Y-51450000D02*
X40600000Y-51450000D01*
X64750000Y-9750000D02*
X63250000Y-9750000D01*
X63250000Y-9750000D02*
X63250000Y-1250000D01*
X63250000Y-1250000D02*
X64750000Y-1250000D01*
X64750000Y-1250000D02*
X64750000Y-9750000D01*
X57250000Y-1250000D02*
X58750000Y-1250000D01*
X58750000Y-1250000D02*
X58750000Y-9750000D01*
X58750000Y-9750000D02*
X57250000Y-9750000D01*
X57250000Y-9750000D02*
X57250000Y-1250000D01*
X45250000Y-1250000D02*
X46750000Y-1250000D01*
X46750000Y-1250000D02*
X46750000Y-9750000D01*
X46750000Y-9750000D02*
X45250000Y-9750000D01*
X45250000Y-9750000D02*
X45250000Y-1250000D01*
X52750000Y-9750000D02*
X51250000Y-9750000D01*
X51250000Y-9750000D02*
X51250000Y-1250000D01*
X51250000Y-1250000D02*
X52750000Y-1250000D01*
X52750000Y-1250000D02*
X52750000Y-9750000D01*
X27952381Y-65595238D02*
X27476190Y-65928572D01*
X27952381Y-66166667D02*
X26952381Y-66166667D01*
X26952381Y-65785714D01*
X27000000Y-65690476D01*
X27047619Y-65642857D01*
X27142857Y-65595238D01*
X27285714Y-65595238D01*
X27380952Y-65642857D01*
X27428571Y-65690476D01*
X27476190Y-65785714D01*
X27476190Y-66166667D01*
X27428571Y-64833333D02*
X27428571Y-65166667D01*
X27952381Y-65166667D02*
X26952381Y-65166667D01*
X26952381Y-64690476D01*
X27428571Y-63976190D02*
X27476190Y-63833333D01*
X27523810Y-63785714D01*
X27619048Y-63738095D01*
X27761905Y-63738095D01*
X27857143Y-63785714D01*
X27904762Y-63833333D01*
X27952381Y-63928571D01*
X27952381Y-64309524D01*
X26952381Y-64309524D01*
X26952381Y-63976190D01*
X27000000Y-63880952D01*
X27047619Y-63833333D01*
X27142857Y-63785714D01*
X27238095Y-63785714D01*
X27333333Y-63833333D01*
X27380952Y-63880952D01*
X27428571Y-63976190D01*
X27428571Y-64309524D01*
X27428571Y-62976190D02*
X27476190Y-62833333D01*
X27523810Y-62785714D01*
X27619048Y-62738095D01*
X27761905Y-62738095D01*
X27857143Y-62785714D01*
X27904762Y-62833333D01*
X27952381Y-62928571D01*
X27952381Y-63309524D01*
X26952381Y-63309524D01*
X26952381Y-62976190D01*
X27000000Y-62880952D01*
X27047619Y-62833333D01*
X27142857Y-62785714D01*
X27238095Y-62785714D01*
X27333333Y-62833333D01*
X27380952Y-62880952D01*
X27428571Y-62976190D01*
X27428571Y-63309524D01*
X27952381Y-61785714D02*
X27952381Y-62357143D01*
X27952381Y-62071429D02*
X26952381Y-62071429D01*
X27095238Y-62166667D01*
X27190476Y-62261905D01*
X27238095Y-62357143D01*
X40052381Y-24138095D02*
X39052381Y-24138095D01*
X39052381Y-23900000D01*
X39100000Y-23757142D01*
X39195238Y-23661904D01*
X39290476Y-23614285D01*
X39480952Y-23566666D01*
X39623810Y-23566666D01*
X39814286Y-23614285D01*
X39909524Y-23661904D01*
X40004762Y-23757142D01*
X40052381Y-23900000D01*
X40052381Y-24138095D01*
X39480952Y-22995238D02*
X39433333Y-23090476D01*
X39385714Y-23138095D01*
X39290476Y-23185714D01*
X39242857Y-23185714D01*
X39147619Y-23138095D01*
X39100000Y-23090476D01*
X39052381Y-22995238D01*
X39052381Y-22804761D01*
X39100000Y-22709523D01*
X39147619Y-22661904D01*
X39242857Y-22614285D01*
X39290476Y-22614285D01*
X39385714Y-22661904D01*
X39433333Y-22709523D01*
X39480952Y-22804761D01*
X39480952Y-22995238D01*
X39528571Y-23090476D01*
X39576190Y-23138095D01*
X39671429Y-23185714D01*
X39861905Y-23185714D01*
X39957143Y-23138095D01*
X40004762Y-23090476D01*
X40052381Y-22995238D01*
X40052381Y-22804761D01*
X40004762Y-22709523D01*
X39957143Y-22661904D01*
X39861905Y-22614285D01*
X39671429Y-22614285D01*
X39576190Y-22661904D01*
X39528571Y-22709523D01*
X39480952Y-22804761D01*
X42052381Y-33411905D02*
X41052381Y-33411905D01*
X42052381Y-32840476D02*
X41480952Y-33269048D01*
X41052381Y-32840476D02*
X41623810Y-33411905D01*
X41766667Y-26138095D02*
X41766667Y-25661904D01*
X42052381Y-26233333D02*
X41052381Y-25900000D01*
X42052381Y-25566666D01*
X5261905Y-6452381D02*
X5261905Y-5452381D01*
X5642858Y-5452381D01*
X5738096Y-5500000D01*
X5785715Y-5547619D01*
X5833334Y-5642857D01*
X5833334Y-5785714D01*
X5785715Y-5880952D01*
X5738096Y-5928571D01*
X5642858Y-5976190D01*
X5261905Y-5976190D01*
X6166667Y-5452381D02*
X6785715Y-5452381D01*
X6452381Y-5833333D01*
X6595239Y-5833333D01*
X6690477Y-5880952D01*
X6738096Y-5928571D01*
X6785715Y-6023810D01*
X6785715Y-6261905D01*
X6738096Y-6357143D01*
X6690477Y-6404762D01*
X6595239Y-6452381D01*
X6309524Y-6452381D01*
X6214286Y-6404762D01*
X6166667Y-6357143D01*
X5761905Y-7702381D02*
X5761905Y-6702381D01*
X6142858Y-6702381D01*
X6238096Y-6750000D01*
X6285715Y-6797619D01*
X6333334Y-6892857D01*
X6333334Y-7035714D01*
X6285715Y-7130952D01*
X6238096Y-7178571D01*
X6142858Y-7226190D01*
X5761905Y-7226190D01*
X6666667Y-6702381D02*
X7285715Y-6702381D01*
X6952381Y-7083333D01*
X7095239Y-7083333D01*
X7190477Y-7130952D01*
X7238096Y-7178571D01*
X7285715Y-7273810D01*
X7285715Y-7511905D01*
X7238096Y-7607143D01*
X7190477Y-7654762D01*
X7095239Y-7702381D01*
X6809524Y-7702381D01*
X6714286Y-7654762D01*
X6666667Y-7607143D01*
X4261905Y-70452381D02*
X4261905Y-69452381D01*
X4642858Y-69452381D01*
X4738096Y-69500000D01*
X4785715Y-69547619D01*
X4833334Y-69642857D01*
X4833334Y-69785714D01*
X4785715Y-69880952D01*
X4738096Y-69928571D01*
X4642858Y-69976190D01*
X4261905Y-69976190D01*
X5690477Y-69785714D02*
X5690477Y-70452381D01*
X5452381Y-69404762D02*
X5214286Y-70119048D01*
X5833334Y-70119048D01*
X4261905Y-70452381D02*
X4261905Y-69452381D01*
X4642858Y-69452381D01*
X4738096Y-69500000D01*
X4785715Y-69547619D01*
X4833334Y-69642857D01*
X4833334Y-69785714D01*
X4785715Y-69880952D01*
X4738096Y-69928571D01*
X4642858Y-69976190D01*
X4261905Y-69976190D01*
X5690477Y-69785714D02*
X5690477Y-70452381D01*
X5452381Y-69404762D02*
X5214286Y-70119048D01*
X5833334Y-70119048D01*
X72452381Y-70738095D02*
X71452381Y-70738095D01*
X71452381Y-70357142D01*
X71500000Y-70261904D01*
X71547619Y-70214285D01*
X71642857Y-70166666D01*
X71785714Y-70166666D01*
X71880952Y-70214285D01*
X71928571Y-70261904D01*
X71976190Y-70357142D01*
X71976190Y-70738095D01*
X72452381Y-69214285D02*
X72452381Y-69785714D01*
X72452381Y-69500000D02*
X71452381Y-69500000D01*
X71595238Y-69595238D01*
X71690476Y-69690476D01*
X71738095Y-69785714D01*
X72452381Y-70738095D02*
X71452381Y-70738095D01*
X71452381Y-70357142D01*
X71500000Y-70261904D01*
X71547619Y-70214285D01*
X71642857Y-70166666D01*
X71785714Y-70166666D01*
X71880952Y-70214285D01*
X71928571Y-70261904D01*
X71976190Y-70357142D01*
X71976190Y-70738095D01*
X72452381Y-69214285D02*
X72452381Y-69785714D01*
X72452381Y-69500000D02*
X71452381Y-69500000D01*
X71595238Y-69595238D01*
X71690476Y-69690476D01*
X71738095Y-69785714D01*
X72452381Y-6738095D02*
X71452381Y-6738095D01*
X71452381Y-6357142D01*
X71500000Y-6261904D01*
X71547619Y-6214285D01*
X71642857Y-6166666D01*
X71785714Y-6166666D01*
X71880952Y-6214285D01*
X71928571Y-6261904D01*
X71976190Y-6357142D01*
X71976190Y-6738095D01*
X71547619Y-5785714D02*
X71500000Y-5738095D01*
X71452381Y-5642857D01*
X71452381Y-5404761D01*
X71500000Y-5309523D01*
X71547619Y-5261904D01*
X71642857Y-5214285D01*
X71738095Y-5214285D01*
X71880952Y-5261904D01*
X72452381Y-5833333D01*
X72452381Y-5214285D01*
X71952381Y-6488095D02*
X70952381Y-6488095D01*
X70952381Y-6107142D01*
X71000000Y-6011904D01*
X71047619Y-5964285D01*
X71142857Y-5916666D01*
X71285714Y-5916666D01*
X71380952Y-5964285D01*
X71428571Y-6011904D01*
X71476190Y-6107142D01*
X71476190Y-6488095D01*
X71047619Y-5535714D02*
X71000000Y-5488095D01*
X70952381Y-5392857D01*
X70952381Y-5154761D01*
X71000000Y-5059523D01*
X71047619Y-5011904D01*
X71142857Y-4964285D01*
X71238095Y-4964285D01*
X71380952Y-5011904D01*
X71952381Y-5583333D01*
X71952381Y-4964285D01*
X39916381Y-61151905D02*
X40725905Y-61151905D01*
X40821143Y-61104286D01*
X40868762Y-61056667D01*
X40916381Y-60961429D01*
X40916381Y-60770952D01*
X40868762Y-60675714D01*
X40821143Y-60628095D01*
X40725905Y-60580476D01*
X39916381Y-60580476D01*
X40916381Y-59580476D02*
X40916381Y-60151905D01*
X40916381Y-59866191D02*
X39916381Y-59866191D01*
X40059238Y-59961429D01*
X40154476Y-60056667D01*
X40202095Y-60151905D01*
X23823809Y-33157143D02*
X23776190Y-33204762D01*
X23633333Y-33252381D01*
X23538095Y-33252381D01*
X23395237Y-33204762D01*
X23299999Y-33109524D01*
X23252380Y-33014286D01*
X23204761Y-32823810D01*
X23204761Y-32680952D01*
X23252380Y-32490476D01*
X23299999Y-32395238D01*
X23395237Y-32300000D01*
X23538095Y-32252381D01*
X23633333Y-32252381D01*
X23776190Y-32300000D01*
X23823809Y-32347619D01*
X24109523Y-32585714D02*
X24490475Y-32585714D01*
X24252380Y-33252381D02*
X24252380Y-32395238D01*
X24299999Y-32300000D01*
X24395237Y-32252381D01*
X24490475Y-32252381D01*
X24823809Y-33252381D02*
X24823809Y-32585714D01*
X24823809Y-32252381D02*
X24776190Y-32300000D01*
X24823809Y-32347619D01*
X24871428Y-32300000D01*
X24823809Y-32252381D01*
X24823809Y-32347619D01*
X25442856Y-33252381D02*
X25347618Y-33204762D01*
X25299999Y-33109524D01*
X25299999Y-32252381D01*
X25680952Y-32585714D02*
X26061904Y-32585714D01*
X25823809Y-32252381D02*
X25823809Y-33109524D01*
X25871428Y-33204762D01*
X25966666Y-33252381D01*
X26061904Y-33252381D01*
X26776191Y-33204762D02*
X26680953Y-33252381D01*
X26490476Y-33252381D01*
X26395238Y-33204762D01*
X26347619Y-33109524D01*
X26347619Y-32728571D01*
X26395238Y-32633333D01*
X26490476Y-32585714D01*
X26680953Y-32585714D01*
X26776191Y-32633333D01*
X26823810Y-32728571D01*
X26823810Y-32823810D01*
X26347619Y-32919048D01*
X27252381Y-33252381D02*
X27252381Y-32585714D01*
X27252381Y-32776190D02*
X27300000Y-32680952D01*
X27347619Y-32633333D01*
X27442857Y-32585714D01*
X27538096Y-32585714D01*
X27823810Y-32347619D02*
X27871429Y-32300000D01*
X27966667Y-32252381D01*
X28204763Y-32252381D01*
X28300001Y-32300000D01*
X28347620Y-32347619D01*
X28395239Y-32442857D01*
X28395239Y-32538095D01*
X28347620Y-32680952D01*
X27776191Y-33252381D01*
X28395239Y-33252381D01*
X76952381Y-34964286D02*
X75952381Y-34964286D01*
X75952381Y-34583333D01*
X76000000Y-34488095D01*
X76047619Y-34440476D01*
X76142857Y-34392857D01*
X76285714Y-34392857D01*
X76380952Y-34440476D01*
X76428571Y-34488095D01*
X76476190Y-34583333D01*
X76476190Y-34964286D01*
X76952381Y-33440476D02*
X76952381Y-34011905D01*
X76952381Y-33726191D02*
X75952381Y-33726191D01*
X76095238Y-33821429D01*
X76190476Y-33916667D01*
X76238095Y-34011905D01*
X75952381Y-32821429D02*
X75952381Y-32726190D01*
X76000000Y-32630952D01*
X76047619Y-32583333D01*
X76142857Y-32535714D01*
X76333333Y-32488095D01*
X76571429Y-32488095D01*
X76761905Y-32535714D01*
X76857143Y-32583333D01*
X76904762Y-32630952D01*
X76952381Y-32726190D01*
X76952381Y-32821429D01*
X76904762Y-32916667D01*
X76857143Y-32964286D01*
X76761905Y-33011905D01*
X76571429Y-33059524D01*
X76333333Y-33059524D01*
X76142857Y-33011905D01*
X76047619Y-32964286D01*
X76000000Y-32916667D01*
X75952381Y-32821429D01*
X8488095Y-952381D02*
X8488095Y-1761905D01*
X8535714Y-1857143D01*
X8583333Y-1904762D01*
X8678571Y-1952381D01*
X8869048Y-1952381D01*
X8964286Y-1904762D01*
X9011905Y-1857143D01*
X9059524Y-1761905D01*
X9059524Y-952381D01*
X9488095Y-1047619D02*
X9535714Y-1000000D01*
X9630952Y-952381D01*
X9869048Y-952381D01*
X9964286Y-1000000D01*
X10011905Y-1047619D01*
X10059524Y-1142857D01*
X10059524Y-1238095D01*
X10011905Y-1380952D01*
X9440476Y-1952381D01*
X10059524Y-1952381D01*
X19167307Y-6451881D02*
X19786355Y-6451881D01*
X19453021Y-6832833D01*
X19595879Y-6832833D01*
X19691117Y-6880452D01*
X19738736Y-6928071D01*
X19786355Y-7023310D01*
X19786355Y-7261405D01*
X19738736Y-7356643D01*
X19691117Y-7404262D01*
X19595879Y-7451881D01*
X19310164Y-7451881D01*
X19214926Y-7404262D01*
X19167307Y-7356643D01*
X24689837Y-6785214D02*
X24689837Y-7451881D01*
X24451741Y-6404262D02*
X24213646Y-7118548D01*
X24832694Y-7118548D01*
X19214926Y-16047739D02*
X19262545Y-16000120D01*
X19357783Y-15952501D01*
X19595879Y-15952501D01*
X19691117Y-16000120D01*
X19738736Y-16047739D01*
X19786355Y-16142977D01*
X19786355Y-16238215D01*
X19738736Y-16381072D01*
X19167307Y-16952501D01*
X19786355Y-16952501D01*
X24785075Y-16952501D02*
X24213646Y-16952501D01*
X24499360Y-16952501D02*
X24499360Y-15952501D01*
X24404122Y-16095358D01*
X24308884Y-16190596D01*
X24213646Y-16238215D01*
D19*
X12336707Y-58283396D02*
X12360535Y-58307224D01*
X12384362Y-58378707D01*
X12384362Y-58426362D01*
X12360535Y-58497845D01*
X12312880Y-58545500D01*
X12265224Y-58569328D01*
X12169914Y-58593156D01*
X12098431Y-58593156D01*
X12003120Y-58569328D01*
X11955465Y-58545500D01*
X11907810Y-58497845D01*
X11883982Y-58426362D01*
X11883982Y-58378707D01*
X11907810Y-58307224D01*
X11931638Y-58283396D01*
X12384362Y-57806844D02*
X12384362Y-58092776D01*
X12384362Y-57949810D02*
X11883982Y-57949810D01*
X11955465Y-57997465D01*
X12003120Y-58045120D01*
X12026948Y-58092776D01*
D10*
X58607143Y-32416666D02*
X58654762Y-32464285D01*
X58702381Y-32607142D01*
X58702381Y-32702380D01*
X58654762Y-32845238D01*
X58559524Y-32940476D01*
X58464286Y-32988095D01*
X58273810Y-33035714D01*
X58130952Y-33035714D01*
X57940476Y-32988095D01*
X57845238Y-32940476D01*
X57750000Y-32845238D01*
X57702381Y-32702380D01*
X57702381Y-32607142D01*
X57750000Y-32464285D01*
X57797619Y-32416666D01*
X58130952Y-31845238D02*
X58083333Y-31940476D01*
X58035714Y-31988095D01*
X57940476Y-32035714D01*
X57892857Y-32035714D01*
X57797619Y-31988095D01*
X57750000Y-31940476D01*
X57702381Y-31845238D01*
X57702381Y-31654761D01*
X57750000Y-31559523D01*
X57797619Y-31511904D01*
X57892857Y-31464285D01*
X57940476Y-31464285D01*
X58035714Y-31511904D01*
X58083333Y-31559523D01*
X58130952Y-31654761D01*
X58130952Y-31845238D01*
X58178571Y-31940476D01*
X58226190Y-31988095D01*
X58321429Y-32035714D01*
X58511905Y-32035714D01*
X58607143Y-31988095D01*
X58654762Y-31940476D01*
X58702381Y-31845238D01*
X58702381Y-31654761D01*
X58654762Y-31559523D01*
X58607143Y-31511904D01*
X58511905Y-31464285D01*
X58321429Y-31464285D01*
X58226190Y-31511904D01*
X58178571Y-31559523D01*
X58130952Y-31654761D01*
D19*
X47678328Y-51428707D02*
X47654500Y-51452535D01*
X47583017Y-51476362D01*
X47535362Y-51476362D01*
X47463879Y-51452535D01*
X47416224Y-51404880D01*
X47392396Y-51357224D01*
X47368568Y-51261914D01*
X47368568Y-51190431D01*
X47392396Y-51095120D01*
X47416224Y-51047465D01*
X47463879Y-50999810D01*
X47535362Y-50975982D01*
X47583017Y-50975982D01*
X47654500Y-50999810D01*
X47678328Y-51023638D01*
X48154880Y-51476362D02*
X47868948Y-51476362D01*
X48011914Y-51476362D02*
X48011914Y-50975982D01*
X47964259Y-51047465D01*
X47916604Y-51095120D01*
X47868948Y-51118948D01*
X48440811Y-51190431D02*
X48393156Y-51166603D01*
X48369328Y-51142776D01*
X48345500Y-51095120D01*
X48345500Y-51071293D01*
X48369328Y-51023638D01*
X48393156Y-50999810D01*
X48440811Y-50975982D01*
X48536121Y-50975982D01*
X48583777Y-50999810D01*
X48607604Y-51023638D01*
X48631432Y-51071293D01*
X48631432Y-51095120D01*
X48607604Y-51142776D01*
X48583777Y-51166603D01*
X48536121Y-51190431D01*
X48440811Y-51190431D01*
X48393156Y-51214259D01*
X48369328Y-51238086D01*
X48345500Y-51285741D01*
X48345500Y-51381052D01*
X48369328Y-51428707D01*
X48393156Y-51452535D01*
X48440811Y-51476362D01*
X48536121Y-51476362D01*
X48583777Y-51452535D01*
X48607604Y-51428707D01*
X48631432Y-51381052D01*
X48631432Y-51285741D01*
X48607604Y-51238086D01*
X48583777Y-51214259D01*
X48536121Y-51190431D01*
D10*
X42357143Y-70559524D02*
X42404762Y-70607143D01*
X42452381Y-70750000D01*
X42452381Y-70845238D01*
X42404762Y-70988096D01*
X42309524Y-71083334D01*
X42214286Y-71130953D01*
X42023810Y-71178572D01*
X41880952Y-71178572D01*
X41690476Y-71130953D01*
X41595238Y-71083334D01*
X41500000Y-70988096D01*
X41452381Y-70845238D01*
X41452381Y-70750000D01*
X41500000Y-70607143D01*
X41547619Y-70559524D01*
X42452381Y-70130953D02*
X41452381Y-70130953D01*
X41833333Y-70130953D02*
X41785714Y-70035715D01*
X41785714Y-69845238D01*
X41833333Y-69750000D01*
X41880952Y-69702381D01*
X41976190Y-69654762D01*
X42261905Y-69654762D01*
X42357143Y-69702381D01*
X42404762Y-69750000D01*
X42452381Y-69845238D01*
X42452381Y-70035715D01*
X42404762Y-70130953D01*
X42452381Y-69083334D02*
X42404762Y-69178572D01*
X42357143Y-69226191D01*
X42261905Y-69273810D01*
X41976190Y-69273810D01*
X41880952Y-69226191D01*
X41833333Y-69178572D01*
X41785714Y-69083334D01*
X41785714Y-68940476D01*
X41833333Y-68845238D01*
X41880952Y-68797619D01*
X41976190Y-68750000D01*
X42261905Y-68750000D01*
X42357143Y-68797619D01*
X42404762Y-68845238D01*
X42452381Y-68940476D01*
X42452381Y-69083334D01*
X42452381Y-68178572D02*
X42404762Y-68273810D01*
X42357143Y-68321429D01*
X42261905Y-68369048D01*
X41976190Y-68369048D01*
X41880952Y-68321429D01*
X41833333Y-68273810D01*
X41785714Y-68178572D01*
X41785714Y-68035714D01*
X41833333Y-67940476D01*
X41880952Y-67892857D01*
X41976190Y-67845238D01*
X42261905Y-67845238D01*
X42357143Y-67892857D01*
X42404762Y-67940476D01*
X42452381Y-68035714D01*
X42452381Y-68178572D01*
X41785714Y-67559524D02*
X41785714Y-67178572D01*
X41452381Y-67416667D02*
X42309524Y-67416667D01*
X42404762Y-67369048D01*
X42452381Y-67273810D01*
X42452381Y-67178572D01*
X42452381Y-66321428D02*
X42452381Y-66892857D01*
X42452381Y-66607143D02*
X41452381Y-66607143D01*
X41595238Y-66702381D01*
X41690476Y-66797619D01*
X41738095Y-66892857D01*
X34083334Y-72607143D02*
X34035715Y-72654762D01*
X33892858Y-72702381D01*
X33797620Y-72702381D01*
X33654762Y-72654762D01*
X33559524Y-72559524D01*
X33511905Y-72464286D01*
X33464286Y-72273810D01*
X33464286Y-72130952D01*
X33511905Y-71940476D01*
X33559524Y-71845238D01*
X33654762Y-71750000D01*
X33797620Y-71702381D01*
X33892858Y-71702381D01*
X34035715Y-71750000D01*
X34083334Y-71797619D01*
X34940477Y-72654762D02*
X34845239Y-72702381D01*
X34654762Y-72702381D01*
X34559524Y-72654762D01*
X34511905Y-72607143D01*
X34464286Y-72511905D01*
X34464286Y-72226190D01*
X34511905Y-72130952D01*
X34559524Y-72083333D01*
X34654762Y-72035714D01*
X34845239Y-72035714D01*
X34940477Y-72083333D01*
X35511905Y-72702381D02*
X35416667Y-72654762D01*
X35369048Y-72607143D01*
X35321429Y-72511905D01*
X35321429Y-72226190D01*
X35369048Y-72130952D01*
X35416667Y-72083333D01*
X35511905Y-72035714D01*
X35654763Y-72035714D01*
X35750001Y-72083333D01*
X35797620Y-72130952D01*
X35845239Y-72226190D01*
X35845239Y-72511905D01*
X35797620Y-72607143D01*
X35750001Y-72654762D01*
X35654763Y-72702381D01*
X35511905Y-72702381D01*
X36273810Y-72702381D02*
X36273810Y-72035714D01*
X36273810Y-72130952D02*
X36321429Y-72083333D01*
X36416667Y-72035714D01*
X36559525Y-72035714D01*
X36654763Y-72083333D01*
X36702382Y-72178571D01*
X36702382Y-72702381D01*
X36702382Y-72178571D02*
X36750001Y-72083333D01*
X36845239Y-72035714D01*
X36988096Y-72035714D01*
X37083334Y-72083333D01*
X37130953Y-72178571D01*
X37130953Y-72702381D01*
X37607143Y-72035714D02*
X37607143Y-73035714D01*
X37607143Y-72083333D02*
X37702381Y-72035714D01*
X37892858Y-72035714D01*
X37988096Y-72083333D01*
X38035715Y-72130952D01*
X38083334Y-72226190D01*
X38083334Y-72511905D01*
X38035715Y-72607143D01*
X37988096Y-72654762D01*
X37892858Y-72702381D01*
X37702381Y-72702381D01*
X37607143Y-72654762D01*
X39035715Y-72702381D02*
X38464286Y-72702381D01*
X38750000Y-72702381D02*
X38750000Y-71702381D01*
X38654762Y-71845238D01*
X38559524Y-71940476D01*
X38464286Y-71988095D01*
X33781334Y-65251143D02*
X33733715Y-65298762D01*
X33590858Y-65346381D01*
X33495620Y-65346381D01*
X33352762Y-65298762D01*
X33257524Y-65203524D01*
X33209905Y-65108286D01*
X33162286Y-64917810D01*
X33162286Y-64774952D01*
X33209905Y-64584476D01*
X33257524Y-64489238D01*
X33352762Y-64394000D01*
X33495620Y-64346381D01*
X33590858Y-64346381D01*
X33733715Y-64394000D01*
X33781334Y-64441619D01*
X34638477Y-65298762D02*
X34543239Y-65346381D01*
X34352762Y-65346381D01*
X34257524Y-65298762D01*
X34209905Y-65251143D01*
X34162286Y-65155905D01*
X34162286Y-64870190D01*
X34209905Y-64774952D01*
X34257524Y-64727333D01*
X34352762Y-64679714D01*
X34543239Y-64679714D01*
X34638477Y-64727333D01*
X35209905Y-65346381D02*
X35114667Y-65298762D01*
X35067048Y-65251143D01*
X35019429Y-65155905D01*
X35019429Y-64870190D01*
X35067048Y-64774952D01*
X35114667Y-64727333D01*
X35209905Y-64679714D01*
X35352763Y-64679714D01*
X35448001Y-64727333D01*
X35495620Y-64774952D01*
X35543239Y-64870190D01*
X35543239Y-65155905D01*
X35495620Y-65251143D01*
X35448001Y-65298762D01*
X35352763Y-65346381D01*
X35209905Y-65346381D01*
X35971810Y-65346381D02*
X35971810Y-64679714D01*
X35971810Y-64774952D02*
X36019429Y-64727333D01*
X36114667Y-64679714D01*
X36257525Y-64679714D01*
X36352763Y-64727333D01*
X36400382Y-64822571D01*
X36400382Y-65346381D01*
X36400382Y-64822571D02*
X36448001Y-64727333D01*
X36543239Y-64679714D01*
X36686096Y-64679714D01*
X36781334Y-64727333D01*
X36828953Y-64822571D01*
X36828953Y-65346381D01*
X37305143Y-64679714D02*
X37305143Y-65679714D01*
X37305143Y-64727333D02*
X37400381Y-64679714D01*
X37590858Y-64679714D01*
X37686096Y-64727333D01*
X37733715Y-64774952D01*
X37781334Y-64870190D01*
X37781334Y-65155905D01*
X37733715Y-65251143D01*
X37686096Y-65298762D01*
X37590858Y-65346381D01*
X37400381Y-65346381D01*
X37305143Y-65298762D01*
X38162286Y-64441619D02*
X38209905Y-64394000D01*
X38305143Y-64346381D01*
X38543239Y-64346381D01*
X38638477Y-64394000D01*
X38686096Y-64441619D01*
X38733715Y-64536857D01*
X38733715Y-64632095D01*
X38686096Y-64774952D01*
X38114667Y-65346381D01*
X38733715Y-65346381D01*
X57823809Y-46157143D02*
X57776190Y-46204762D01*
X57633333Y-46252381D01*
X57538095Y-46252381D01*
X57395237Y-46204762D01*
X57299999Y-46109524D01*
X57252380Y-46014286D01*
X57204761Y-45823810D01*
X57204761Y-45680952D01*
X57252380Y-45490476D01*
X57299999Y-45395238D01*
X57395237Y-45300000D01*
X57538095Y-45252381D01*
X57633333Y-45252381D01*
X57776190Y-45300000D01*
X57823809Y-45347619D01*
X58109523Y-45585714D02*
X58490475Y-45585714D01*
X58252380Y-46252381D02*
X58252380Y-45395238D01*
X58299999Y-45300000D01*
X58395237Y-45252381D01*
X58490475Y-45252381D01*
X58823809Y-46252381D02*
X58823809Y-45585714D01*
X58823809Y-45252381D02*
X58776190Y-45300000D01*
X58823809Y-45347619D01*
X58871428Y-45300000D01*
X58823809Y-45252381D01*
X58823809Y-45347619D01*
X59442856Y-46252381D02*
X59347618Y-46204762D01*
X59299999Y-46109524D01*
X59299999Y-45252381D01*
X59680952Y-45585714D02*
X60061904Y-45585714D01*
X59823809Y-45252381D02*
X59823809Y-46109524D01*
X59871428Y-46204762D01*
X59966666Y-46252381D01*
X60061904Y-46252381D01*
X60776191Y-46204762D02*
X60680953Y-46252381D01*
X60490476Y-46252381D01*
X60395238Y-46204762D01*
X60347619Y-46109524D01*
X60347619Y-45728571D01*
X60395238Y-45633333D01*
X60490476Y-45585714D01*
X60680953Y-45585714D01*
X60776191Y-45633333D01*
X60823810Y-45728571D01*
X60823810Y-45823810D01*
X60347619Y-45919048D01*
X61252381Y-46252381D02*
X61252381Y-45585714D01*
X61252381Y-45776190D02*
X61300000Y-45680952D01*
X61347619Y-45633333D01*
X61442857Y-45585714D01*
X61538096Y-45585714D01*
X62395239Y-46252381D02*
X61823810Y-46252381D01*
X62109524Y-46252381D02*
X62109524Y-45252381D01*
X62014286Y-45395238D01*
X61919048Y-45490476D01*
X61823810Y-45538095D01*
X56047619Y-37607143D02*
X56000000Y-37654762D01*
X55857143Y-37702381D01*
X55761905Y-37702381D01*
X55619047Y-37654762D01*
X55523809Y-37559524D01*
X55476190Y-37464286D01*
X55428571Y-37273810D01*
X55428571Y-37130952D01*
X55476190Y-36940476D01*
X55523809Y-36845238D01*
X55619047Y-36750000D01*
X55761905Y-36702381D01*
X55857143Y-36702381D01*
X56000000Y-36750000D01*
X56047619Y-36797619D01*
X56333333Y-37035714D02*
X56714285Y-37035714D01*
X56476190Y-37702381D02*
X56476190Y-36845238D01*
X56523809Y-36750000D01*
X56619047Y-36702381D01*
X56714285Y-36702381D01*
X57047619Y-37702381D02*
X57047619Y-37035714D01*
X57047619Y-36702381D02*
X57000000Y-36750000D01*
X57047619Y-36797619D01*
X57095238Y-36750000D01*
X57047619Y-36702381D01*
X57047619Y-36797619D01*
X57666666Y-37702381D02*
X57571428Y-37654762D01*
X57523809Y-37559524D01*
X57523809Y-36702381D01*
X57904762Y-37035714D02*
X58285714Y-37035714D01*
X58047619Y-36702381D02*
X58047619Y-37559524D01*
X58095238Y-37654762D01*
X58190476Y-37702381D01*
X58285714Y-37702381D01*
X59000001Y-37654762D02*
X58904763Y-37702381D01*
X58714286Y-37702381D01*
X58619048Y-37654762D01*
X58571429Y-37559524D01*
X58571429Y-37178571D01*
X58619048Y-37083333D01*
X58714286Y-37035714D01*
X58904763Y-37035714D01*
X59000001Y-37083333D01*
X59047620Y-37178571D01*
X59047620Y-37273810D01*
X58571429Y-37369048D01*
X59476191Y-37702381D02*
X59476191Y-37035714D01*
X59476191Y-37226190D02*
X59523810Y-37130952D01*
X59571429Y-37083333D01*
X59666667Y-37035714D01*
X59761906Y-37035714D01*
X60047620Y-36797619D02*
X60095239Y-36750000D01*
X60190477Y-36702381D01*
X60428573Y-36702381D01*
X60523811Y-36750000D01*
X60571430Y-36797619D01*
X60619049Y-36892857D01*
X60619049Y-36988095D01*
X60571430Y-37130952D01*
X60000001Y-37702381D01*
X60619049Y-37702381D01*
X61571430Y-37702381D02*
X61000001Y-37702381D01*
X61285715Y-37702381D02*
X61285715Y-36702381D01*
X61190477Y-36845238D01*
X61095239Y-36940476D01*
X61000001Y-36988095D01*
X44392858Y-55357143D02*
X44345239Y-55404762D01*
X44202382Y-55452381D01*
X44107144Y-55452381D01*
X43964286Y-55404762D01*
X43869048Y-55309524D01*
X43821429Y-55214286D01*
X43773810Y-55023810D01*
X43773810Y-54880952D01*
X43821429Y-54690476D01*
X43869048Y-54595238D01*
X43964286Y-54500000D01*
X44107144Y-54452381D01*
X44202382Y-54452381D01*
X44345239Y-54500000D01*
X44392858Y-54547619D01*
X44821429Y-55452381D02*
X44821429Y-54785714D01*
X44821429Y-54452381D02*
X44773810Y-54500000D01*
X44821429Y-54547619D01*
X44869048Y-54500000D01*
X44821429Y-54452381D01*
X44821429Y-54547619D01*
X45297619Y-54785714D02*
X45297619Y-55452381D01*
X45297619Y-54880952D02*
X45345238Y-54833333D01*
X45440476Y-54785714D01*
X45583334Y-54785714D01*
X45678572Y-54833333D01*
X45726191Y-54928571D01*
X45726191Y-55452381D01*
X46726191Y-55452381D02*
X46154762Y-55452381D01*
X46440476Y-55452381D02*
X46440476Y-54452381D01*
X46345238Y-54595238D01*
X46250000Y-54690476D01*
X46154762Y-54738095D01*
X63892857Y-60107143D02*
X63845238Y-60154762D01*
X63702381Y-60202381D01*
X63607143Y-60202381D01*
X63464285Y-60154762D01*
X63369047Y-60059524D01*
X63321428Y-59964286D01*
X63273809Y-59773810D01*
X63273809Y-59630952D01*
X63321428Y-59440476D01*
X63369047Y-59345238D01*
X63464285Y-59250000D01*
X63607143Y-59202381D01*
X63702381Y-59202381D01*
X63845238Y-59250000D01*
X63892857Y-59297619D01*
X64464285Y-60202381D02*
X64369047Y-60154762D01*
X64321428Y-60107143D01*
X64273809Y-60011905D01*
X64273809Y-59726190D01*
X64321428Y-59630952D01*
X64369047Y-59583333D01*
X64464285Y-59535714D01*
X64607143Y-59535714D01*
X64702381Y-59583333D01*
X64750000Y-59630952D01*
X64797619Y-59726190D01*
X64797619Y-60011905D01*
X64750000Y-60107143D01*
X64702381Y-60154762D01*
X64607143Y-60202381D01*
X64464285Y-60202381D01*
X65654762Y-59535714D02*
X65654762Y-60202381D01*
X65226190Y-59535714D02*
X65226190Y-60059524D01*
X65273809Y-60154762D01*
X65369047Y-60202381D01*
X65511905Y-60202381D01*
X65607143Y-60154762D01*
X65654762Y-60107143D01*
X65988095Y-59535714D02*
X66369047Y-59535714D01*
X66130952Y-59202381D02*
X66130952Y-60059524D01*
X66178571Y-60154762D01*
X66273809Y-60202381D01*
X66369047Y-60202381D01*
X67226191Y-60202381D02*
X66654762Y-60202381D01*
X66940476Y-60202381D02*
X66940476Y-59202381D01*
X66845238Y-59345238D01*
X66750000Y-59440476D01*
X66654762Y-59488095D01*
X63714285Y-56607143D02*
X63666666Y-56654762D01*
X63523809Y-56702381D01*
X63428571Y-56702381D01*
X63285713Y-56654762D01*
X63190475Y-56559524D01*
X63142856Y-56464286D01*
X63095237Y-56273810D01*
X63095237Y-56130952D01*
X63142856Y-55940476D01*
X63190475Y-55845238D01*
X63285713Y-55750000D01*
X63428571Y-55702381D01*
X63523809Y-55702381D01*
X63666666Y-55750000D01*
X63714285Y-55797619D01*
X64285713Y-56702381D02*
X64190475Y-56654762D01*
X64142856Y-56607143D01*
X64095237Y-56511905D01*
X64095237Y-56226190D01*
X64142856Y-56130952D01*
X64190475Y-56083333D01*
X64285713Y-56035714D01*
X64428571Y-56035714D01*
X64523809Y-56083333D01*
X64571428Y-56130952D01*
X64619047Y-56226190D01*
X64619047Y-56511905D01*
X64571428Y-56607143D01*
X64523809Y-56654762D01*
X64428571Y-56702381D01*
X64285713Y-56702381D01*
X65476190Y-56035714D02*
X65476190Y-56702381D01*
X65047618Y-56035714D02*
X65047618Y-56559524D01*
X65095237Y-56654762D01*
X65190475Y-56702381D01*
X65333333Y-56702381D01*
X65428571Y-56654762D01*
X65476190Y-56607143D01*
X65809523Y-56035714D02*
X66190475Y-56035714D01*
X65952380Y-55702381D02*
X65952380Y-56559524D01*
X65999999Y-56654762D01*
X66095237Y-56702381D01*
X66190475Y-56702381D01*
X66285714Y-56797619D02*
X67047619Y-56797619D01*
X67238095Y-56654762D02*
X67333333Y-56702381D01*
X67523809Y-56702381D01*
X67619048Y-56654762D01*
X67666667Y-56559524D01*
X67666667Y-56511905D01*
X67619048Y-56416667D01*
X67523809Y-56369048D01*
X67380952Y-56369048D01*
X67285714Y-56321429D01*
X67238095Y-56226190D01*
X67238095Y-56178571D01*
X67285714Y-56083333D01*
X67380952Y-56035714D01*
X67523809Y-56035714D01*
X67619048Y-56083333D01*
X68095238Y-56035714D02*
X68095238Y-57035714D01*
X68095238Y-56083333D02*
X68190476Y-56035714D01*
X68380953Y-56035714D01*
X68476191Y-56083333D01*
X68523810Y-56130952D01*
X68571429Y-56226190D01*
X68571429Y-56511905D01*
X68523810Y-56607143D01*
X68476191Y-56654762D01*
X68380953Y-56702381D01*
X68190476Y-56702381D01*
X68095238Y-56654762D01*
X69428572Y-56702381D02*
X69428572Y-56178571D01*
X69380953Y-56083333D01*
X69285715Y-56035714D01*
X69095238Y-56035714D01*
X69000000Y-56083333D01*
X69428572Y-56654762D02*
X69333334Y-56702381D01*
X69095238Y-56702381D01*
X69000000Y-56654762D01*
X68952381Y-56559524D01*
X68952381Y-56464286D01*
X69000000Y-56369048D01*
X69095238Y-56321429D01*
X69333334Y-56321429D01*
X69428572Y-56273810D01*
X69904762Y-56702381D02*
X69904762Y-56035714D01*
X69904762Y-56226190D02*
X69952381Y-56130952D01*
X70000000Y-56083333D01*
X70095238Y-56035714D01*
X70190477Y-56035714D01*
X70904763Y-56654762D02*
X70809525Y-56702381D01*
X70619048Y-56702381D01*
X70523810Y-56654762D01*
X70476191Y-56559524D01*
X70476191Y-56178571D01*
X70523810Y-56083333D01*
X70619048Y-56035714D01*
X70809525Y-56035714D01*
X70904763Y-56083333D01*
X70952382Y-56178571D01*
X70952382Y-56273810D01*
X70476191Y-56369048D01*
X71904763Y-56702381D02*
X71333334Y-56702381D01*
X71619048Y-56702381D02*
X71619048Y-55702381D01*
X71523810Y-55845238D01*
X71428572Y-55940476D01*
X71333334Y-55988095D01*
X26523810Y-59357143D02*
X26476191Y-59404762D01*
X26333334Y-59452381D01*
X26238096Y-59452381D01*
X26095238Y-59404762D01*
X26000000Y-59309524D01*
X25952381Y-59214286D01*
X25904762Y-59023810D01*
X25904762Y-58880952D01*
X25952381Y-58690476D01*
X26000000Y-58595238D01*
X26095238Y-58500000D01*
X26238096Y-58452381D01*
X26333334Y-58452381D01*
X26476191Y-58500000D01*
X26523810Y-58547619D01*
X26904762Y-59404762D02*
X27000000Y-59452381D01*
X27190476Y-59452381D01*
X27285715Y-59404762D01*
X27333334Y-59309524D01*
X27333334Y-59261905D01*
X27285715Y-59166667D01*
X27190476Y-59119048D01*
X27047619Y-59119048D01*
X26952381Y-59071429D01*
X26904762Y-58976190D01*
X26904762Y-58928571D01*
X26952381Y-58833333D01*
X27047619Y-58785714D01*
X27190476Y-58785714D01*
X27285715Y-58833333D01*
X27714286Y-59404762D02*
X27809524Y-59452381D01*
X28000000Y-59452381D01*
X28095239Y-59404762D01*
X28142858Y-59309524D01*
X28142858Y-59261905D01*
X28095239Y-59166667D01*
X28000000Y-59119048D01*
X27857143Y-59119048D01*
X27761905Y-59071429D01*
X27714286Y-58976190D01*
X27714286Y-58928571D01*
X27761905Y-58833333D01*
X27857143Y-58785714D01*
X28000000Y-58785714D01*
X28095239Y-58833333D01*
X29095239Y-59452381D02*
X28523810Y-59452381D01*
X28809524Y-59452381D02*
X28809524Y-58452381D01*
X28714286Y-58595238D01*
X28619048Y-58690476D01*
X28523810Y-58738095D01*
X48013381Y-62525095D02*
X47013381Y-62525095D01*
X47013381Y-62287000D01*
X47061000Y-62144142D01*
X47156238Y-62048904D01*
X47251476Y-62001285D01*
X47441952Y-61953666D01*
X47584810Y-61953666D01*
X47775286Y-62001285D01*
X47870524Y-62048904D01*
X47965762Y-62144142D01*
X48013381Y-62287000D01*
X48013381Y-62525095D01*
X47108619Y-61572714D02*
X47061000Y-61525095D01*
X47013381Y-61429857D01*
X47013381Y-61191761D01*
X47061000Y-61096523D01*
X47108619Y-61048904D01*
X47203857Y-61001285D01*
X47299095Y-61001285D01*
X47441952Y-61048904D01*
X48013381Y-61620333D01*
X48013381Y-61001285D01*
X47202381Y-58761905D02*
X46202381Y-58761905D01*
X47202381Y-58190476D02*
X46630952Y-58619048D01*
X46202381Y-58190476D02*
X46773810Y-58761905D01*
X46666667Y-64988095D02*
X46666667Y-64511904D01*
X46952381Y-65083333D02*
X45952381Y-64750000D01*
X46952381Y-64416666D01*
X34952381Y-25238095D02*
X33952381Y-25238095D01*
X33952381Y-25000000D01*
X34000000Y-24857142D01*
X34095238Y-24761904D01*
X34190476Y-24714285D01*
X34380952Y-24666666D01*
X34523810Y-24666666D01*
X34714286Y-24714285D01*
X34809524Y-24761904D01*
X34904762Y-24857142D01*
X34952381Y-25000000D01*
X34952381Y-25238095D01*
X33952381Y-24333333D02*
X33952381Y-23666666D01*
X34952381Y-24095238D01*
X37202381Y-34761905D02*
X36202381Y-34761905D01*
X37202381Y-34190476D02*
X36630952Y-34619048D01*
X36202381Y-34190476D02*
X36773810Y-34761905D01*
X36666667Y-27238095D02*
X36666667Y-26761904D01*
X36952381Y-27333333D02*
X35952381Y-27000000D01*
X36952381Y-26666666D01*
X11052381Y-38938095D02*
X10052381Y-38938095D01*
X10052381Y-38700000D01*
X10100000Y-38557142D01*
X10195238Y-38461904D01*
X10290476Y-38414285D01*
X10480952Y-38366666D01*
X10623810Y-38366666D01*
X10814286Y-38414285D01*
X10909524Y-38461904D01*
X11004762Y-38557142D01*
X11052381Y-38700000D01*
X11052381Y-38938095D01*
X11052381Y-37890476D02*
X11052381Y-37700000D01*
X11004762Y-37604761D01*
X10957143Y-37557142D01*
X10814286Y-37461904D01*
X10623810Y-37414285D01*
X10242857Y-37414285D01*
X10147619Y-37461904D01*
X10100000Y-37509523D01*
X10052381Y-37604761D01*
X10052381Y-37795238D01*
X10100000Y-37890476D01*
X10147619Y-37938095D01*
X10242857Y-37985714D01*
X10480952Y-37985714D01*
X10576190Y-37938095D01*
X10623810Y-37890476D01*
X10671429Y-37795238D01*
X10671429Y-37604761D01*
X10623810Y-37509523D01*
X10576190Y-37461904D01*
X10480952Y-37414285D01*
X15552381Y-34261905D02*
X14552381Y-34261905D01*
X15552381Y-33690476D02*
X14980952Y-34119048D01*
X14552381Y-33690476D02*
X15123810Y-34261905D01*
X15266667Y-41488095D02*
X15266667Y-41011904D01*
X15552381Y-41583333D02*
X14552381Y-41250000D01*
X15552381Y-40916666D01*
X17452381Y-39214286D02*
X16452381Y-39214286D01*
X16452381Y-38976191D01*
X16500000Y-38833333D01*
X16595238Y-38738095D01*
X16690476Y-38690476D01*
X16880952Y-38642857D01*
X17023810Y-38642857D01*
X17214286Y-38690476D01*
X17309524Y-38738095D01*
X17404762Y-38833333D01*
X17452381Y-38976191D01*
X17452381Y-39214286D01*
X17452381Y-37690476D02*
X17452381Y-38261905D01*
X17452381Y-37976191D02*
X16452381Y-37976191D01*
X16595238Y-38071429D01*
X16690476Y-38166667D01*
X16738095Y-38261905D01*
X16452381Y-37071429D02*
X16452381Y-36976190D01*
X16500000Y-36880952D01*
X16547619Y-36833333D01*
X16642857Y-36785714D01*
X16833333Y-36738095D01*
X17071429Y-36738095D01*
X17261905Y-36785714D01*
X17357143Y-36833333D01*
X17404762Y-36880952D01*
X17452381Y-36976190D01*
X17452381Y-37071429D01*
X17404762Y-37166667D01*
X17357143Y-37214286D01*
X17261905Y-37261905D01*
X17071429Y-37309524D01*
X16833333Y-37309524D01*
X16642857Y-37261905D01*
X16547619Y-37214286D01*
X16500000Y-37166667D01*
X16452381Y-37071429D01*
X22202381Y-34511905D02*
X21202381Y-34511905D01*
X22202381Y-33940476D02*
X21630952Y-34369048D01*
X21202381Y-33940476D02*
X21773810Y-34511905D01*
X21916667Y-41738095D02*
X21916667Y-41261904D01*
X22202381Y-41833333D02*
X21202381Y-41500000D01*
X22202381Y-41166666D01*
D20*
X40246001Y-7927429D02*
X39992001Y-7927429D01*
X39992001Y-8459619D02*
X39992001Y-7443619D01*
X40354858Y-7443619D01*
X41044286Y-8459619D02*
X40608858Y-8459619D01*
X40826572Y-8459619D02*
X40826572Y-7443619D01*
X40754001Y-7588762D01*
X40681429Y-7685524D01*
X40608858Y-7733905D01*
X36002143Y-1127429D02*
X35748143Y-1127429D01*
X35748143Y-1659619D02*
X35748143Y-643619D01*
X36111000Y-643619D01*
X36401286Y-643619D02*
X36401286Y-1466095D01*
X36437571Y-1562857D01*
X36473857Y-1611238D01*
X36546428Y-1659619D01*
X36691571Y-1659619D01*
X36764143Y-1611238D01*
X36800428Y-1562857D01*
X36836714Y-1466095D01*
X36836714Y-643619D01*
X37163286Y-1611238D02*
X37272143Y-1659619D01*
X37453572Y-1659619D01*
X37526143Y-1611238D01*
X37562429Y-1562857D01*
X37598714Y-1466095D01*
X37598714Y-1369333D01*
X37562429Y-1272571D01*
X37526143Y-1224190D01*
X37453572Y-1175810D01*
X37308429Y-1127429D01*
X37235857Y-1079048D01*
X37199572Y-1030667D01*
X37163286Y-933905D01*
X37163286Y-837143D01*
X37199572Y-740381D01*
X37235857Y-692000D01*
X37308429Y-643619D01*
X37489857Y-643619D01*
X37598714Y-692000D01*
X37925286Y-1127429D02*
X38179286Y-1127429D01*
X38288143Y-1659619D02*
X37925286Y-1659619D01*
X37925286Y-643619D01*
X38288143Y-643619D01*
D21*
X58481429Y-48198000D02*
X58481429Y-48923714D01*
X56957429Y-48923714D01*
X57102571Y-47762571D02*
X57030000Y-47690000D01*
X56957429Y-47544857D01*
X56957429Y-47182000D01*
X57030000Y-47036857D01*
X57102571Y-46964286D01*
X57247714Y-46891714D01*
X57392857Y-46891714D01*
X57610571Y-46964286D01*
X58481429Y-47835143D01*
X58481429Y-46891714D01*
X76261429Y-50447714D02*
X76261429Y-51318571D01*
X76261429Y-50883143D02*
X74737429Y-50883143D01*
X74955143Y-51028286D01*
X75100286Y-51173428D01*
X75172857Y-51318571D01*
X74737429Y-49504285D02*
X74737429Y-49359142D01*
X74810000Y-49213999D01*
X74882571Y-49141428D01*
X75027714Y-49068857D01*
X75318000Y-48996285D01*
X75680857Y-48996285D01*
X75971143Y-49068857D01*
X76116286Y-49141428D01*
X76188857Y-49213999D01*
X76261429Y-49359142D01*
X76261429Y-49504285D01*
X76188857Y-49649428D01*
X76116286Y-49721999D01*
X75971143Y-49794571D01*
X75680857Y-49867142D01*
X75318000Y-49867142D01*
X75027714Y-49794571D01*
X74882571Y-49721999D01*
X74810000Y-49649428D01*
X74737429Y-49504285D01*
X74737429Y-48052856D02*
X74737429Y-47907713D01*
X74810000Y-47762570D01*
X74882571Y-47689999D01*
X75027714Y-47617428D01*
X75318000Y-47544856D01*
X75680857Y-47544856D01*
X75971143Y-47617428D01*
X76116286Y-47689999D01*
X76188857Y-47762570D01*
X76261429Y-47907713D01*
X76261429Y-48052856D01*
X76188857Y-48197999D01*
X76116286Y-48270570D01*
X75971143Y-48343142D01*
X75680857Y-48415713D01*
X75318000Y-48415713D01*
X75027714Y-48343142D01*
X74882571Y-48270570D01*
X74810000Y-48197999D01*
X74737429Y-48052856D01*
X75245429Y-46891713D02*
X76261429Y-46891713D01*
X75390571Y-46891713D02*
X75318000Y-46819141D01*
X75245429Y-46673999D01*
X75245429Y-46456284D01*
X75318000Y-46311141D01*
X75463143Y-46238570D01*
X76261429Y-46238570D01*
X76261429Y-45512856D02*
X74737429Y-45512856D01*
X75463143Y-45512856D02*
X75463143Y-44641999D01*
X76261429Y-44641999D02*
X74737429Y-44641999D01*
D10*
X32952381Y-75166666D02*
X32476190Y-75500000D01*
X32952381Y-75738095D02*
X31952381Y-75738095D01*
X31952381Y-75357142D01*
X32000000Y-75261904D01*
X32047619Y-75214285D01*
X32142857Y-75166666D01*
X32285714Y-75166666D01*
X32380952Y-75214285D01*
X32428571Y-75261904D01*
X32476190Y-75357142D01*
X32476190Y-75738095D01*
X32904762Y-74309523D02*
X32952381Y-74404761D01*
X32952381Y-74595238D01*
X32904762Y-74690476D01*
X32857143Y-74738095D01*
X32761905Y-74785714D01*
X32476190Y-74785714D01*
X32380952Y-74738095D01*
X32333333Y-74690476D01*
X32285714Y-74595238D01*
X32285714Y-74404761D01*
X32333333Y-74309523D01*
X32952381Y-73738095D02*
X32904762Y-73833333D01*
X32857143Y-73880952D01*
X32761905Y-73928571D01*
X32476190Y-73928571D01*
X32380952Y-73880952D01*
X32333333Y-73833333D01*
X32285714Y-73738095D01*
X32285714Y-73595237D01*
X32333333Y-73499999D01*
X32380952Y-73452380D01*
X32476190Y-73404761D01*
X32761905Y-73404761D01*
X32857143Y-73452380D01*
X32904762Y-73499999D01*
X32952381Y-73595237D01*
X32952381Y-73738095D01*
X32952381Y-72976190D02*
X32285714Y-72976190D01*
X32380952Y-72976190D02*
X32333333Y-72928571D01*
X32285714Y-72833333D01*
X32285714Y-72690475D01*
X32333333Y-72595237D01*
X32428571Y-72547618D01*
X32952381Y-72547618D01*
X32428571Y-72547618D02*
X32333333Y-72499999D01*
X32285714Y-72404761D01*
X32285714Y-72261904D01*
X32333333Y-72166666D01*
X32428571Y-72119047D01*
X32952381Y-72119047D01*
X32285714Y-71642857D02*
X33285714Y-71642857D01*
X32333333Y-71642857D02*
X32285714Y-71547619D01*
X32285714Y-71357142D01*
X32333333Y-71261904D01*
X32380952Y-71214285D01*
X32476190Y-71166666D01*
X32761905Y-71166666D01*
X32857143Y-71214285D01*
X32904762Y-71261904D01*
X32952381Y-71357142D01*
X32952381Y-71547619D01*
X32904762Y-71642857D01*
X32952381Y-70214285D02*
X32952381Y-70785714D01*
X32952381Y-70500000D02*
X31952381Y-70500000D01*
X32095238Y-70595238D01*
X32190476Y-70690476D01*
X32238095Y-70785714D01*
X26452381Y-53702381D02*
X26119047Y-53226190D01*
X25880952Y-53702381D02*
X25880952Y-52702381D01*
X26261905Y-52702381D01*
X26357143Y-52750000D01*
X26404762Y-52797619D01*
X26452381Y-52892857D01*
X26452381Y-53035714D01*
X26404762Y-53130952D01*
X26357143Y-53178571D01*
X26261905Y-53226190D01*
X25880952Y-53226190D01*
X27261905Y-53654762D02*
X27166667Y-53702381D01*
X26976190Y-53702381D01*
X26880952Y-53654762D01*
X26833333Y-53559524D01*
X26833333Y-53178571D01*
X26880952Y-53083333D01*
X26976190Y-53035714D01*
X27166667Y-53035714D01*
X27261905Y-53083333D01*
X27309524Y-53178571D01*
X27309524Y-53273810D01*
X26833333Y-53369048D01*
X27738095Y-53035714D02*
X27738095Y-53702381D01*
X27738095Y-53130952D02*
X27785714Y-53083333D01*
X27880952Y-53035714D01*
X28023810Y-53035714D01*
X28119048Y-53083333D01*
X28166667Y-53178571D01*
X28166667Y-53702381D01*
X28976191Y-53178571D02*
X29119048Y-53226190D01*
X29166667Y-53273810D01*
X29214286Y-53369048D01*
X29214286Y-53511905D01*
X29166667Y-53607143D01*
X29119048Y-53654762D01*
X29023810Y-53702381D01*
X28642857Y-53702381D01*
X28642857Y-52702381D01*
X28976191Y-52702381D01*
X29071429Y-52750000D01*
X29119048Y-52797619D01*
X29166667Y-52892857D01*
X29166667Y-52988095D01*
X29119048Y-53083333D01*
X29071429Y-53130952D01*
X28976191Y-53178571D01*
X28642857Y-53178571D01*
X30166667Y-53702381D02*
X29595238Y-53702381D01*
X29880952Y-53702381D02*
X29880952Y-52702381D01*
X29785714Y-52845238D01*
X29690476Y-52940476D01*
X29595238Y-52988095D01*
X34321429Y-54452381D02*
X33988095Y-53976190D01*
X33750000Y-54452381D02*
X33750000Y-53452381D01*
X34130953Y-53452381D01*
X34226191Y-53500000D01*
X34273810Y-53547619D01*
X34321429Y-53642857D01*
X34321429Y-53785714D01*
X34273810Y-53880952D01*
X34226191Y-53928571D01*
X34130953Y-53976190D01*
X33750000Y-53976190D01*
X35130953Y-54404762D02*
X35035715Y-54452381D01*
X34845238Y-54452381D01*
X34750000Y-54404762D01*
X34702381Y-54309524D01*
X34702381Y-53928571D01*
X34750000Y-53833333D01*
X34845238Y-53785714D01*
X35035715Y-53785714D01*
X35130953Y-53833333D01*
X35178572Y-53928571D01*
X35178572Y-54023810D01*
X34702381Y-54119048D01*
X35607143Y-53785714D02*
X35607143Y-54452381D01*
X35607143Y-53880952D02*
X35654762Y-53833333D01*
X35750000Y-53785714D01*
X35892858Y-53785714D01*
X35988096Y-53833333D01*
X36035715Y-53928571D01*
X36035715Y-54452381D01*
X36369048Y-53452381D02*
X36940477Y-53452381D01*
X36654762Y-54452381D02*
X36654762Y-53452381D01*
X37797620Y-54452381D02*
X37226191Y-54452381D01*
X37511905Y-54452381D02*
X37511905Y-53452381D01*
X37416667Y-53595238D01*
X37321429Y-53690476D01*
X37226191Y-53738095D01*
X27852381Y-70526190D02*
X27376190Y-70859524D01*
X27852381Y-71097619D02*
X26852381Y-71097619D01*
X26852381Y-70716666D01*
X26900000Y-70621428D01*
X26947619Y-70573809D01*
X27042857Y-70526190D01*
X27185714Y-70526190D01*
X27280952Y-70573809D01*
X27328571Y-70621428D01*
X27376190Y-70716666D01*
X27376190Y-71097619D01*
X27328571Y-69764285D02*
X27328571Y-70097619D01*
X27852381Y-70097619D02*
X26852381Y-70097619D01*
X26852381Y-69621428D01*
X27328571Y-68907142D02*
X27376190Y-68764285D01*
X27423810Y-68716666D01*
X27519048Y-68669047D01*
X27661905Y-68669047D01*
X27757143Y-68716666D01*
X27804762Y-68764285D01*
X27852381Y-68859523D01*
X27852381Y-69240476D01*
X26852381Y-69240476D01*
X26852381Y-68907142D01*
X26900000Y-68811904D01*
X26947619Y-68764285D01*
X27042857Y-68716666D01*
X27138095Y-68716666D01*
X27233333Y-68764285D01*
X27280952Y-68811904D01*
X27328571Y-68907142D01*
X27328571Y-69240476D01*
X26852381Y-68383333D02*
X26852381Y-67811904D01*
X27852381Y-68097619D02*
X26852381Y-68097619D01*
X27852381Y-66954761D02*
X27852381Y-67526190D01*
X27852381Y-67240476D02*
X26852381Y-67240476D01*
X26995238Y-67335714D01*
X27090476Y-67430952D01*
X27138095Y-67526190D01*
X54214286Y-23202381D02*
X54880953Y-24202381D01*
X54880953Y-23202381D02*
X54214286Y-24202381D01*
X55214286Y-23297619D02*
X55261905Y-23250000D01*
X55357143Y-23202381D01*
X55595239Y-23202381D01*
X55690477Y-23250000D01*
X55738096Y-23297619D01*
X55785715Y-23392857D01*
X55785715Y-23488095D01*
X55738096Y-23630952D01*
X55166667Y-24202381D01*
X55785715Y-24202381D01*
X56738096Y-24202381D02*
X56166667Y-24202381D01*
X56452381Y-24202381D02*
X56452381Y-23202381D01*
X56357143Y-23345238D01*
X56261905Y-23440476D01*
X56166667Y-23488095D01*
X21047619Y-24226190D02*
X21047619Y-24702381D01*
X20714286Y-23702381D02*
X21047619Y-24226190D01*
X21380953Y-23702381D01*
X21666667Y-23797619D02*
X21714286Y-23750000D01*
X21809524Y-23702381D01*
X22047620Y-23702381D01*
X22142858Y-23750000D01*
X22190477Y-23797619D01*
X22238096Y-23892857D01*
X22238096Y-23988095D01*
X22190477Y-24130952D01*
X21619048Y-24702381D01*
X22238096Y-24702381D01*
X23190477Y-24702381D02*
X22619048Y-24702381D01*
X22904762Y-24702381D02*
X22904762Y-23702381D01*
X22809524Y-23845238D01*
X22714286Y-23940476D01*
X22619048Y-23988095D01*
X9726190Y-21452381D02*
X10202381Y-21452381D01*
X9202381Y-21785714D02*
X9726190Y-21452381D01*
X9202381Y-21119047D01*
X9297619Y-20833333D02*
X9250000Y-20785714D01*
X9202381Y-20690476D01*
X9202381Y-20452380D01*
X9250000Y-20357142D01*
X9297619Y-20309523D01*
X9392857Y-20261904D01*
X9488095Y-20261904D01*
X9630952Y-20309523D01*
X10202381Y-20880952D01*
X10202381Y-20261904D01*
X9297619Y-19880952D02*
X9250000Y-19833333D01*
X9202381Y-19738095D01*
X9202381Y-19499999D01*
X9250000Y-19404761D01*
X9297619Y-19357142D01*
X9392857Y-19309523D01*
X9488095Y-19309523D01*
X9630952Y-19357142D01*
X10202381Y-19928571D01*
X10202381Y-19309523D01*
X5261905Y-36452381D02*
X5261905Y-35452381D01*
X5642858Y-35452381D01*
X5738096Y-35500000D01*
X5785715Y-35547619D01*
X5833334Y-35642857D01*
X5833334Y-35785714D01*
X5785715Y-35880952D01*
X5738096Y-35928571D01*
X5642858Y-35976190D01*
X5261905Y-35976190D01*
X6738096Y-35452381D02*
X6261905Y-35452381D01*
X6214286Y-35928571D01*
X6261905Y-35880952D01*
X6357143Y-35833333D01*
X6595239Y-35833333D01*
X6690477Y-35880952D01*
X6738096Y-35928571D01*
X6785715Y-36023810D01*
X6785715Y-36261905D01*
X6738096Y-36357143D01*
X6690477Y-36404762D01*
X6595239Y-36452381D01*
X6357143Y-36452381D01*
X6261905Y-36404762D01*
X6214286Y-36357143D01*
X1857143Y-40761904D02*
X1904762Y-40809523D01*
X1952381Y-40952380D01*
X1952381Y-41047618D01*
X1904762Y-41190476D01*
X1809524Y-41285714D01*
X1714286Y-41333333D01*
X1523810Y-41380952D01*
X1380952Y-41380952D01*
X1190476Y-41333333D01*
X1095238Y-41285714D01*
X1000000Y-41190476D01*
X952381Y-41047618D01*
X952381Y-40952380D01*
X1000000Y-40809523D01*
X1047619Y-40761904D01*
X1952381Y-40333333D02*
X952381Y-40333333D01*
X1428571Y-40333333D02*
X1428571Y-39761904D01*
X1952381Y-39761904D02*
X952381Y-39761904D01*
X1666667Y-39333333D02*
X1666667Y-38857142D01*
X1952381Y-39428571D02*
X952381Y-39095238D01*
X1952381Y-38761904D01*
X1904762Y-38476190D02*
X1952381Y-38333333D01*
X1952381Y-38095237D01*
X1904762Y-37999999D01*
X1857143Y-37952380D01*
X1761905Y-37904761D01*
X1666667Y-37904761D01*
X1571429Y-37952380D01*
X1523810Y-37999999D01*
X1476190Y-38095237D01*
X1428571Y-38285714D01*
X1380952Y-38380952D01*
X1333333Y-38428571D01*
X1238095Y-38476190D01*
X1142857Y-38476190D01*
X1047619Y-38428571D01*
X1000000Y-38380952D01*
X952381Y-38285714D01*
X952381Y-38047618D01*
X1000000Y-37904761D01*
X1904762Y-37523809D02*
X1952381Y-37380952D01*
X1952381Y-37142856D01*
X1904762Y-37047618D01*
X1857143Y-36999999D01*
X1761905Y-36952380D01*
X1666667Y-36952380D01*
X1571429Y-36999999D01*
X1523810Y-37047618D01*
X1476190Y-37142856D01*
X1428571Y-37333333D01*
X1380952Y-37428571D01*
X1333333Y-37476190D01*
X1238095Y-37523809D01*
X1142857Y-37523809D01*
X1047619Y-37476190D01*
X1000000Y-37428571D01*
X952381Y-37333333D01*
X952381Y-37095237D01*
X1000000Y-36952380D01*
X1952381Y-36523809D02*
X952381Y-36523809D01*
X1904762Y-36095238D02*
X1952381Y-35952381D01*
X1952381Y-35714285D01*
X1904762Y-35619047D01*
X1857143Y-35571428D01*
X1761905Y-35523809D01*
X1666667Y-35523809D01*
X1571429Y-35571428D01*
X1523810Y-35619047D01*
X1476190Y-35714285D01*
X1428571Y-35904762D01*
X1380952Y-36000000D01*
X1333333Y-36047619D01*
X1238095Y-36095238D01*
X1142857Y-36095238D01*
X1047619Y-36047619D01*
X1000000Y-36000000D01*
X952381Y-35904762D01*
X952381Y-35666666D01*
X1000000Y-35523809D01*
X1000000Y-33809523D02*
X952381Y-33904761D01*
X952381Y-34047618D01*
X1000000Y-34190476D01*
X1095238Y-34285714D01*
X1190476Y-34333333D01*
X1380952Y-34380952D01*
X1523810Y-34380952D01*
X1714286Y-34333333D01*
X1809524Y-34285714D01*
X1904762Y-34190476D01*
X1952381Y-34047618D01*
X1952381Y-33952380D01*
X1904762Y-33809523D01*
X1857143Y-33761904D01*
X1523810Y-33761904D01*
X1523810Y-33952380D01*
X1952381Y-32761904D02*
X1476190Y-33095238D01*
X1952381Y-33333333D02*
X952381Y-33333333D01*
X952381Y-32952380D01*
X1000000Y-32857142D01*
X1047619Y-32809523D01*
X1142857Y-32761904D01*
X1285714Y-32761904D01*
X1380952Y-32809523D01*
X1428571Y-32857142D01*
X1476190Y-32952380D01*
X1476190Y-33333333D01*
X952381Y-32142857D02*
X952381Y-31952380D01*
X1000000Y-31857142D01*
X1095238Y-31761904D01*
X1285714Y-31714285D01*
X1619048Y-31714285D01*
X1809524Y-31761904D01*
X1904762Y-31857142D01*
X1952381Y-31952380D01*
X1952381Y-32142857D01*
X1904762Y-32238095D01*
X1809524Y-32333333D01*
X1619048Y-32380952D01*
X1285714Y-32380952D01*
X1095238Y-32333333D01*
X1000000Y-32238095D01*
X952381Y-32142857D01*
X952381Y-31285714D02*
X1761905Y-31285714D01*
X1857143Y-31238095D01*
X1904762Y-31190476D01*
X1952381Y-31095238D01*
X1952381Y-30904761D01*
X1904762Y-30809523D01*
X1857143Y-30761904D01*
X1761905Y-30714285D01*
X952381Y-30714285D01*
X1952381Y-30238095D02*
X952381Y-30238095D01*
X1952381Y-29666666D01*
X952381Y-29666666D01*
X1952381Y-29190476D02*
X952381Y-29190476D01*
X952381Y-28952381D01*
X1000000Y-28809523D01*
X1095238Y-28714285D01*
X1190476Y-28666666D01*
X1380952Y-28619047D01*
X1523810Y-28619047D01*
X1714286Y-28666666D01*
X1809524Y-28714285D01*
X1904762Y-28809523D01*
X1952381Y-28952381D01*
X1952381Y-29190476D01*
X10852381Y-55338095D02*
X9852381Y-55338095D01*
X9852381Y-55100000D01*
X9900000Y-54957142D01*
X9995238Y-54861904D01*
X10090476Y-54814285D01*
X10280952Y-54766666D01*
X10423810Y-54766666D01*
X10614286Y-54814285D01*
X10709524Y-54861904D01*
X10804762Y-54957142D01*
X10852381Y-55100000D01*
X10852381Y-55338095D01*
X10852381Y-53814285D02*
X10852381Y-54385714D01*
X10852381Y-54100000D02*
X9852381Y-54100000D01*
X9995238Y-54195238D01*
X10090476Y-54290476D01*
X10138095Y-54385714D01*
X12802381Y-51661905D02*
X11802381Y-51661905D01*
X12802381Y-51090476D02*
X12230952Y-51519048D01*
X11802381Y-51090476D02*
X12373810Y-51661905D01*
X10516667Y-43138095D02*
X10516667Y-42661904D01*
X10802381Y-43233333D02*
X9802381Y-42900000D01*
X10802381Y-42566666D01*
X6452381Y-55338095D02*
X5452381Y-55338095D01*
X5452381Y-55100000D01*
X5500000Y-54957142D01*
X5595238Y-54861904D01*
X5690476Y-54814285D01*
X5880952Y-54766666D01*
X6023810Y-54766666D01*
X6214286Y-54814285D01*
X6309524Y-54861904D01*
X6404762Y-54957142D01*
X6452381Y-55100000D01*
X6452381Y-55338095D01*
X5452381Y-54433333D02*
X5452381Y-53814285D01*
X5833333Y-54147619D01*
X5833333Y-54004761D01*
X5880952Y-53909523D01*
X5928571Y-53861904D01*
X6023810Y-53814285D01*
X6261905Y-53814285D01*
X6357143Y-53861904D01*
X6404762Y-53909523D01*
X6452381Y-54004761D01*
X6452381Y-54290476D01*
X6404762Y-54385714D01*
X6357143Y-54433333D01*
X8652381Y-44461905D02*
X7652381Y-44461905D01*
X8652381Y-43890476D02*
X8080952Y-44319048D01*
X7652381Y-43890476D02*
X8223810Y-44461905D01*
X8366667Y-51688095D02*
X8366667Y-51211904D01*
X8652381Y-51783333D02*
X7652381Y-51450000D01*
X8652381Y-51116666D01*
X3052381Y-43166666D02*
X2576190Y-43500000D01*
X3052381Y-43738095D02*
X2052381Y-43738095D01*
X2052381Y-43357142D01*
X2100000Y-43261904D01*
X2147619Y-43214285D01*
X2242857Y-43166666D01*
X2385714Y-43166666D01*
X2480952Y-43214285D01*
X2528571Y-43261904D01*
X2576190Y-43357142D01*
X2576190Y-43738095D01*
X3052381Y-42214285D02*
X3052381Y-42785714D01*
X3052381Y-42500000D02*
X2052381Y-42500000D01*
X2195238Y-42595238D01*
X2290476Y-42690476D01*
X2338095Y-42785714D01*
D12*
X50788334Y-31574524D02*
X50183572Y-31574524D01*
X50183572Y-30304524D01*
X51090715Y-30304524D02*
X51876905Y-30304524D01*
X51453572Y-30788333D01*
X51635000Y-30788333D01*
X51755953Y-30848810D01*
X51816429Y-30909286D01*
X51876905Y-31030238D01*
X51876905Y-31332619D01*
X51816429Y-31453571D01*
X51755953Y-31514048D01*
X51635000Y-31574524D01*
X51272143Y-31574524D01*
X51151191Y-31514048D01*
X51090715Y-31453571D01*
X44315238Y-33574524D02*
X43589524Y-33574524D01*
X43952381Y-33574524D02*
X43952381Y-32304524D01*
X43831429Y-32485952D01*
X43710476Y-32606905D01*
X43589524Y-32667381D01*
X45464286Y-32304524D02*
X44859524Y-32304524D01*
X44799048Y-32909286D01*
X44859524Y-32848810D01*
X44980476Y-32788333D01*
X45282857Y-32788333D01*
X45403810Y-32848810D01*
X45464286Y-32909286D01*
X45524762Y-33030238D01*
X45524762Y-33332619D01*
X45464286Y-33453571D01*
X45403810Y-33514048D01*
X45282857Y-33574524D01*
X44980476Y-33574524D01*
X44859524Y-33514048D01*
X44799048Y-33453571D01*
X47580953Y-32727857D02*
X47580953Y-33574524D01*
X47036667Y-32727857D02*
X47036667Y-33393095D01*
X47097143Y-33514048D01*
X47218096Y-33574524D01*
X47399524Y-33574524D01*
X47520476Y-33514048D01*
X47580953Y-33453571D01*
X48185715Y-33574524D02*
X48185715Y-32304524D01*
X48185715Y-32909286D02*
X48911429Y-32909286D01*
X48911429Y-33574524D02*
X48911429Y-32304524D01*
X50725715Y-32304524D02*
X50846667Y-32304524D01*
X50967619Y-32365000D01*
X51028096Y-32425476D01*
X51088572Y-32546429D01*
X51149048Y-32788333D01*
X51149048Y-33090714D01*
X51088572Y-33332619D01*
X51028096Y-33453571D01*
X50967619Y-33514048D01*
X50846667Y-33574524D01*
X50725715Y-33574524D01*
X50604762Y-33514048D01*
X50544286Y-33453571D01*
X50483810Y-33332619D01*
X50423334Y-33090714D01*
X50423334Y-32788333D01*
X50483810Y-32546429D01*
X50544286Y-32425476D01*
X50604762Y-32365000D01*
X50725715Y-32304524D01*
X51693334Y-33453571D02*
X51753810Y-33514048D01*
X51693334Y-33574524D01*
X51632858Y-33514048D01*
X51693334Y-33453571D01*
X51693334Y-33574524D01*
X52540001Y-32304524D02*
X52660953Y-32304524D01*
X52781905Y-32365000D01*
X52842382Y-32425476D01*
X52902858Y-32546429D01*
X52963334Y-32788333D01*
X52963334Y-33090714D01*
X52902858Y-33332619D01*
X52842382Y-33453571D01*
X52781905Y-33514048D01*
X52660953Y-33574524D01*
X52540001Y-33574524D01*
X52419048Y-33514048D01*
X52358572Y-33453571D01*
X52298096Y-33332619D01*
X52237620Y-33090714D01*
X52237620Y-32788333D01*
X52298096Y-32546429D01*
X52358572Y-32425476D01*
X52419048Y-32365000D01*
X52540001Y-32304524D01*
X53689049Y-32848810D02*
X53568096Y-32788333D01*
X53507620Y-32727857D01*
X53447144Y-32606905D01*
X53447144Y-32546429D01*
X53507620Y-32425476D01*
X53568096Y-32365000D01*
X53689049Y-32304524D01*
X53930953Y-32304524D01*
X54051906Y-32365000D01*
X54112382Y-32425476D01*
X54172858Y-32546429D01*
X54172858Y-32606905D01*
X54112382Y-32727857D01*
X54051906Y-32788333D01*
X53930953Y-32848810D01*
X53689049Y-32848810D01*
X53568096Y-32909286D01*
X53507620Y-32969762D01*
X53447144Y-33090714D01*
X53447144Y-33332619D01*
X53507620Y-33453571D01*
X53568096Y-33514048D01*
X53689049Y-33574524D01*
X53930953Y-33574524D01*
X54051906Y-33514048D01*
X54112382Y-33453571D01*
X54172858Y-33332619D01*
X54172858Y-33090714D01*
X54112382Y-32969762D01*
X54051906Y-32909286D01*
X53930953Y-32848810D01*
X56410477Y-33574524D02*
X55987144Y-32969762D01*
X55684763Y-33574524D02*
X55684763Y-32304524D01*
X56168572Y-32304524D01*
X56289525Y-32365000D01*
X56350001Y-32425476D01*
X56410477Y-32546429D01*
X56410477Y-32727857D01*
X56350001Y-32848810D01*
X56289525Y-32909286D01*
X56168572Y-32969762D01*
X55684763Y-32969762D01*
X64574524Y-70211666D02*
X64574524Y-70816428D01*
X63304524Y-70816428D01*
X64574524Y-69123095D02*
X64574524Y-69848809D01*
X64574524Y-69485952D02*
X63304524Y-69485952D01*
X63485952Y-69606904D01*
X63606905Y-69727857D01*
X63667381Y-69848809D01*
X66574524Y-74684762D02*
X66574524Y-75410476D01*
X66574524Y-75047619D02*
X65304524Y-75047619D01*
X65485952Y-75168571D01*
X65606905Y-75289524D01*
X65667381Y-75410476D01*
X65304524Y-73535714D02*
X65304524Y-74140476D01*
X65909286Y-74200952D01*
X65848810Y-74140476D01*
X65788333Y-74019524D01*
X65788333Y-73717143D01*
X65848810Y-73596190D01*
X65909286Y-73535714D01*
X66030238Y-73475238D01*
X66332619Y-73475238D01*
X66453571Y-73535714D01*
X66514048Y-73596190D01*
X66574524Y-73717143D01*
X66574524Y-74019524D01*
X66514048Y-74140476D01*
X66453571Y-74200952D01*
X65727857Y-71419047D02*
X66574524Y-71419047D01*
X65727857Y-71963333D02*
X66393095Y-71963333D01*
X66514048Y-71902857D01*
X66574524Y-71781904D01*
X66574524Y-71600476D01*
X66514048Y-71479524D01*
X66453571Y-71419047D01*
X66574524Y-70814285D02*
X65304524Y-70814285D01*
X65909286Y-70814285D02*
X65909286Y-70088571D01*
X66574524Y-70088571D02*
X65304524Y-70088571D01*
X65304524Y-68274285D02*
X65304524Y-68153333D01*
X65365000Y-68032381D01*
X65425476Y-67971904D01*
X65546429Y-67911428D01*
X65788333Y-67850952D01*
X66090714Y-67850952D01*
X66332619Y-67911428D01*
X66453571Y-67971904D01*
X66514048Y-68032381D01*
X66574524Y-68153333D01*
X66574524Y-68274285D01*
X66514048Y-68395238D01*
X66453571Y-68455714D01*
X66332619Y-68516190D01*
X66090714Y-68576666D01*
X65788333Y-68576666D01*
X65546429Y-68516190D01*
X65425476Y-68455714D01*
X65365000Y-68395238D01*
X65304524Y-68274285D01*
X66453571Y-67306666D02*
X66514048Y-67246190D01*
X66574524Y-67306666D01*
X66514048Y-67367142D01*
X66453571Y-67306666D01*
X66574524Y-67306666D01*
X65304524Y-66459999D02*
X65304524Y-66339047D01*
X65365000Y-66218095D01*
X65425476Y-66157618D01*
X65546429Y-66097142D01*
X65788333Y-66036666D01*
X66090714Y-66036666D01*
X66332619Y-66097142D01*
X66453571Y-66157618D01*
X66514048Y-66218095D01*
X66574524Y-66339047D01*
X66574524Y-66459999D01*
X66514048Y-66580952D01*
X66453571Y-66641428D01*
X66332619Y-66701904D01*
X66090714Y-66762380D01*
X65788333Y-66762380D01*
X65546429Y-66701904D01*
X65425476Y-66641428D01*
X65365000Y-66580952D01*
X65304524Y-66459999D01*
X65848810Y-65310951D02*
X65788333Y-65431904D01*
X65727857Y-65492380D01*
X65606905Y-65552856D01*
X65546429Y-65552856D01*
X65425476Y-65492380D01*
X65365000Y-65431904D01*
X65304524Y-65310951D01*
X65304524Y-65069047D01*
X65365000Y-64948094D01*
X65425476Y-64887618D01*
X65546429Y-64827142D01*
X65606905Y-64827142D01*
X65727857Y-64887618D01*
X65788333Y-64948094D01*
X65848810Y-65069047D01*
X65848810Y-65310951D01*
X65909286Y-65431904D01*
X65969762Y-65492380D01*
X66090714Y-65552856D01*
X66332619Y-65552856D01*
X66453571Y-65492380D01*
X66514048Y-65431904D01*
X66574524Y-65310951D01*
X66574524Y-65069047D01*
X66514048Y-64948094D01*
X66453571Y-64887618D01*
X66332619Y-64827142D01*
X66090714Y-64827142D01*
X65969762Y-64887618D01*
X65909286Y-64948094D01*
X65848810Y-65069047D01*
X66574524Y-62589523D02*
X65969762Y-63012856D01*
X66574524Y-63315237D02*
X65304524Y-63315237D01*
X65304524Y-62831428D01*
X65365000Y-62710475D01*
X65425476Y-62649999D01*
X65546429Y-62589523D01*
X65727857Y-62589523D01*
X65848810Y-62649999D01*
X65909286Y-62710475D01*
X65969762Y-62831428D01*
X65969762Y-63315237D01*
D10*
X43523810Y-52657143D02*
X43476191Y-52704762D01*
X43333334Y-52752381D01*
X43238096Y-52752381D01*
X43095238Y-52704762D01*
X43000000Y-52609524D01*
X42952381Y-52514286D01*
X42904762Y-52323810D01*
X42904762Y-52180952D01*
X42952381Y-51990476D01*
X43000000Y-51895238D01*
X43095238Y-51800000D01*
X43238096Y-51752381D01*
X43333334Y-51752381D01*
X43476191Y-51800000D01*
X43523810Y-51847619D01*
X43952381Y-52752381D02*
X43952381Y-52085714D01*
X43952381Y-51752381D02*
X43904762Y-51800000D01*
X43952381Y-51847619D01*
X44000000Y-51800000D01*
X43952381Y-51752381D01*
X43952381Y-51847619D01*
X44428571Y-52085714D02*
X44428571Y-52752381D01*
X44428571Y-52180952D02*
X44476190Y-52133333D01*
X44571428Y-52085714D01*
X44714286Y-52085714D01*
X44809524Y-52133333D01*
X44857143Y-52228571D01*
X44857143Y-52752381D01*
X45095238Y-52847619D02*
X45857143Y-52847619D01*
X46095238Y-52752381D02*
X46095238Y-51752381D01*
X46523810Y-52752381D02*
X46523810Y-52228571D01*
X46476191Y-52133333D01*
X46380953Y-52085714D01*
X46238095Y-52085714D01*
X46142857Y-52133333D01*
X46095238Y-52180952D01*
X46857143Y-52085714D02*
X47238095Y-52085714D01*
X47000000Y-52752381D02*
X47000000Y-51895238D01*
X47047619Y-51800000D01*
X47142857Y-51752381D01*
X47238095Y-51752381D01*
X48095239Y-52752381D02*
X47523810Y-52752381D01*
X47809524Y-52752381D02*
X47809524Y-51752381D01*
X47714286Y-51895238D01*
X47619048Y-51990476D01*
X47523810Y-52038095D01*
X66261905Y-5952381D02*
X66261905Y-4952381D01*
X66642858Y-4952381D01*
X66738096Y-5000000D01*
X66785715Y-5047619D01*
X66833334Y-5142857D01*
X66833334Y-5285714D01*
X66785715Y-5380952D01*
X66738096Y-5428571D01*
X66642858Y-5476190D01*
X66261905Y-5476190D01*
X67690477Y-4952381D02*
X67500000Y-4952381D01*
X67404762Y-5000000D01*
X67357143Y-5047619D01*
X67261905Y-5190476D01*
X67214286Y-5380952D01*
X67214286Y-5761905D01*
X67261905Y-5857143D01*
X67309524Y-5904762D01*
X67404762Y-5952381D01*
X67595239Y-5952381D01*
X67690477Y-5904762D01*
X67738096Y-5857143D01*
X67785715Y-5761905D01*
X67785715Y-5523810D01*
X67738096Y-5428571D01*
X67690477Y-5380952D01*
X67595239Y-5333333D01*
X67404762Y-5333333D01*
X67309524Y-5380952D01*
X67261905Y-5428571D01*
X67214286Y-5523810D01*
X61166667Y-3714286D02*
X61166667Y-3238095D01*
X61452381Y-3809524D02*
X60452381Y-3476191D01*
X61452381Y-3142857D01*
X61357143Y-2238095D02*
X61404762Y-2285714D01*
X61452381Y-2428571D01*
X61452381Y-2523809D01*
X61404762Y-2666667D01*
X61309524Y-2761905D01*
X61214286Y-2809524D01*
X61023810Y-2857143D01*
X60880952Y-2857143D01*
X60690476Y-2809524D01*
X60595238Y-2761905D01*
X60500000Y-2666667D01*
X60452381Y-2523809D01*
X60452381Y-2428571D01*
X60500000Y-2285714D01*
X60547619Y-2238095D01*
X61452381Y-1285714D02*
X61452381Y-1857143D01*
X61452381Y-1571429D02*
X60452381Y-1571429D01*
X60595238Y-1666667D01*
X60690476Y-1761905D01*
X60738095Y-1857143D01*
X60261905Y-5952381D02*
X60261905Y-4952381D01*
X60642858Y-4952381D01*
X60738096Y-5000000D01*
X60785715Y-5047619D01*
X60833334Y-5142857D01*
X60833334Y-5285714D01*
X60785715Y-5380952D01*
X60738096Y-5428571D01*
X60642858Y-5476190D01*
X60261905Y-5476190D01*
X61166667Y-4952381D02*
X61833334Y-4952381D01*
X61404762Y-5952381D01*
X61166667Y-9214286D02*
X61166667Y-8738095D01*
X61452381Y-9309524D02*
X60452381Y-8976191D01*
X61452381Y-8642857D01*
X61357143Y-7738095D02*
X61404762Y-7785714D01*
X61452381Y-7928571D01*
X61452381Y-8023809D01*
X61404762Y-8166667D01*
X61309524Y-8261905D01*
X61214286Y-8309524D01*
X61023810Y-8357143D01*
X60880952Y-8357143D01*
X60690476Y-8309524D01*
X60595238Y-8261905D01*
X60500000Y-8166667D01*
X60452381Y-8023809D01*
X60452381Y-7928571D01*
X60500000Y-7785714D01*
X60547619Y-7738095D01*
X61452381Y-6785714D02*
X61452381Y-7357143D01*
X61452381Y-7071429D02*
X60452381Y-7071429D01*
X60595238Y-7166667D01*
X60690476Y-7261905D01*
X60738095Y-7357143D01*
X42761905Y-5952381D02*
X42761905Y-4952381D01*
X43142858Y-4952381D01*
X43238096Y-5000000D01*
X43285715Y-5047619D01*
X43333334Y-5142857D01*
X43333334Y-5285714D01*
X43285715Y-5380952D01*
X43238096Y-5428571D01*
X43142858Y-5476190D01*
X42761905Y-5476190D01*
X43904762Y-5380952D02*
X43809524Y-5333333D01*
X43761905Y-5285714D01*
X43714286Y-5190476D01*
X43714286Y-5142857D01*
X43761905Y-5047619D01*
X43809524Y-5000000D01*
X43904762Y-4952381D01*
X44095239Y-4952381D01*
X44190477Y-5000000D01*
X44238096Y-5047619D01*
X44285715Y-5142857D01*
X44285715Y-5190476D01*
X44238096Y-5285714D01*
X44190477Y-5333333D01*
X44095239Y-5380952D01*
X43904762Y-5380952D01*
X43809524Y-5428571D01*
X43761905Y-5476190D01*
X43714286Y-5571429D01*
X43714286Y-5761905D01*
X43761905Y-5857143D01*
X43809524Y-5904762D01*
X43904762Y-5952381D01*
X44095239Y-5952381D01*
X44190477Y-5904762D01*
X44238096Y-5857143D01*
X44285715Y-5761905D01*
X44285715Y-5571429D01*
X44238096Y-5476190D01*
X44190477Y-5428571D01*
X44095239Y-5380952D01*
X49166667Y-9214286D02*
X49166667Y-8738095D01*
X49452381Y-9309524D02*
X48452381Y-8976191D01*
X49452381Y-8642857D01*
X49357143Y-7738095D02*
X49404762Y-7785714D01*
X49452381Y-7928571D01*
X49452381Y-8023809D01*
X49404762Y-8166667D01*
X49309524Y-8261905D01*
X49214286Y-8309524D01*
X49023810Y-8357143D01*
X48880952Y-8357143D01*
X48690476Y-8309524D01*
X48595238Y-8261905D01*
X48500000Y-8166667D01*
X48452381Y-8023809D01*
X48452381Y-7928571D01*
X48500000Y-7785714D01*
X48547619Y-7738095D01*
X48547619Y-7357143D02*
X48500000Y-7309524D01*
X48452381Y-7214286D01*
X48452381Y-6976190D01*
X48500000Y-6880952D01*
X48547619Y-6833333D01*
X48642857Y-6785714D01*
X48738095Y-6785714D01*
X48880952Y-6833333D01*
X49452381Y-7404762D01*
X49452381Y-6785714D01*
X48261905Y-5952381D02*
X48261905Y-4952381D01*
X48642858Y-4952381D01*
X48738096Y-5000000D01*
X48785715Y-5047619D01*
X48833334Y-5142857D01*
X48833334Y-5285714D01*
X48785715Y-5380952D01*
X48738096Y-5428571D01*
X48642858Y-5476190D01*
X48261905Y-5476190D01*
X49309524Y-5952381D02*
X49500000Y-5952381D01*
X49595239Y-5904762D01*
X49642858Y-5857143D01*
X49738096Y-5714286D01*
X49785715Y-5523810D01*
X49785715Y-5142857D01*
X49738096Y-5047619D01*
X49690477Y-5000000D01*
X49595239Y-4952381D01*
X49404762Y-4952381D01*
X49309524Y-5000000D01*
X49261905Y-5047619D01*
X49214286Y-5142857D01*
X49214286Y-5380952D01*
X49261905Y-5476190D01*
X49309524Y-5523810D01*
X49404762Y-5571429D01*
X49595239Y-5571429D01*
X49690477Y-5523810D01*
X49738096Y-5476190D01*
X49785715Y-5380952D01*
X49166667Y-4214286D02*
X49166667Y-3738095D01*
X49452381Y-4309524D02*
X48452381Y-3976191D01*
X49452381Y-3642857D01*
X49357143Y-2738095D02*
X49404762Y-2785714D01*
X49452381Y-2928571D01*
X49452381Y-3023809D01*
X49404762Y-3166667D01*
X49309524Y-3261905D01*
X49214286Y-3309524D01*
X49023810Y-3357143D01*
X48880952Y-3357143D01*
X48690476Y-3309524D01*
X48595238Y-3261905D01*
X48500000Y-3166667D01*
X48452381Y-3023809D01*
X48452381Y-2928571D01*
X48500000Y-2785714D01*
X48547619Y-2738095D01*
X48547619Y-2357143D02*
X48500000Y-2309524D01*
X48452381Y-2214286D01*
X48452381Y-1976190D01*
X48500000Y-1880952D01*
X48547619Y-1833333D01*
X48642857Y-1785714D01*
X48738095Y-1785714D01*
X48880952Y-1833333D01*
X49452381Y-2404762D01*
X49452381Y-1785714D01*
%LPC*%
D22*
X30000000Y-65450000D03*
X30000000Y-63550000D03*
D23*
X39600000Y-31899360D03*
X39600000Y-26900640D03*
D24*
X6000000Y-6000000D03*
X5000000Y-70000000D03*
X72000000Y-70000000D03*
X72000000Y-6000000D03*
D25*
X38869000Y-57690000D03*
X37599000Y-57690000D03*
X36329000Y-57690000D03*
X35059000Y-57690000D03*
X35059000Y-63090000D03*
X36329000Y-63090000D03*
X37599000Y-63090000D03*
X38869000Y-63090000D03*
D26*
X36376500Y-60977500D03*
X37551500Y-60977500D03*
X36376500Y-59802500D03*
X37551500Y-59802500D03*
D27*
X27200000Y-35600000D03*
X24200000Y-35600000D03*
D28*
X72000000Y-36810000D03*
X72000000Y-34270000D03*
X72000000Y-31730000D03*
X72000000Y-29190000D03*
D29*
X31250000Y-7000000D03*
X12750000Y-7000000D03*
X12750000Y-17000000D03*
X31250000Y-17000000D03*
D30*
X18000000Y-53600000D03*
X18000000Y-62900000D03*
D31*
X63500000Y-35501200D03*
X63500000Y-28998800D03*
D32*
X43400000Y-44100000D03*
X52700000Y-44100000D03*
D33*
X41917000Y-62692000D03*
X41917000Y-64692000D03*
D34*
X34948000Y-69915000D03*
X36948000Y-69915000D03*
X34948000Y-66994000D03*
X36948000Y-66994000D03*
X61078000Y-42864000D03*
X59078000Y-42864000D03*
X61078000Y-39308000D03*
X59078000Y-39308000D03*
D27*
X39718500Y-54802000D03*
X42718500Y-54802000D03*
X61451000Y-59628000D03*
X58451000Y-59628000D03*
X61451000Y-56326000D03*
X58451000Y-56326000D03*
D34*
X29582000Y-57088000D03*
X27582000Y-57088000D03*
D23*
X44711000Y-59287640D03*
X44711000Y-64286360D03*
X34500000Y-32999360D03*
X34500000Y-28000640D03*
X13100000Y-35500640D03*
X13100000Y-40499360D03*
X19500000Y-35500640D03*
X19500000Y-40499360D03*
D35*
X37000000Y-11175000D03*
X37000000Y-4825000D03*
D36*
X66682000Y-52145160D03*
X66682000Y-43742840D03*
D22*
X32646000Y-67314000D03*
X32646000Y-69214000D03*
D37*
X29450000Y-55000000D03*
X27550000Y-55000000D03*
D22*
X32000000Y-53050000D03*
X32000000Y-54950000D03*
X30000000Y-69200000D03*
X30000000Y-67300000D03*
D38*
X67000000Y-18000000D03*
D39*
X44000000Y-18000000D03*
D40*
X14500000Y-28000000D03*
D41*
X29500000Y-28000000D03*
D40*
X6000000Y-13000000D03*
D41*
X6000000Y-28000000D03*
D24*
X6000000Y-36000000D03*
D23*
X10300000Y-50499360D03*
X10300000Y-45500640D03*
X6100000Y-45300640D03*
X6100000Y-50299360D03*
D42*
X2600000Y-49350000D03*
X2600000Y-46450000D03*
D43*
X23992800Y-44600000D03*
X37607200Y-44600000D03*
X47047800Y-69445100D03*
X60662200Y-69445100D03*
D34*
X42100000Y-52300000D03*
X40100000Y-52300000D03*
D44*
X64000000Y-3000000D03*
X64000000Y-8000000D03*
X58000000Y-8000000D03*
X58000000Y-3000000D03*
X46000000Y-8000000D03*
X46000000Y-3000000D03*
X52000000Y-3000000D03*
X52000000Y-8000000D03*
D45*
X40266000Y-57342000D03*
X40266000Y-62549000D03*
D46*
X49000000Y-44000000D03*
X52900000Y-41200000D03*
X26200000Y-62300000D03*
X49700000Y-58200000D03*
X54300000Y-58300000D03*
X54300000Y-52300000D03*
X50400000Y-52200000D03*
X42100000Y-60100000D03*
X45300000Y-56500000D03*
X44300000Y-54800000D03*
X43800000Y-52300000D03*
X47200000Y-57200000D03*
X47200000Y-59800000D03*
X32500000Y-60400000D03*
X57900000Y-41100000D03*
X59000000Y-37100000D03*
X26000000Y-60500000D03*
X27000000Y-52200000D03*
X27500000Y-75500000D03*
X1500000Y-75500000D03*
X18000000Y-66500000D03*
X15500000Y-63000000D03*
X10400000Y-53200000D03*
X8000000Y-50500000D03*
X6000000Y-53000000D03*
X3500000Y-51500000D03*
X1500000Y-51500000D03*
X56750000Y-59628000D03*
X56500000Y-56500000D03*
X58500000Y-54000000D03*
X59000000Y-44500000D03*
X52750000Y-46750000D03*
X43250000Y-39250000D03*
X29000000Y-37500000D03*
X29000000Y-35500000D03*
X32000000Y-35250000D03*
X34500000Y-36250000D03*
X37000000Y-32500000D03*
X37250000Y-35250000D03*
X39750000Y-35250000D03*
X42500000Y-34250000D03*
X42500000Y-32000000D03*
X43000000Y-26250000D03*
X76750000Y-31250000D03*
X76500000Y-26250000D03*
X66250000Y-29000000D03*
X60750000Y-29000000D03*
D45*
X38043500Y-61126600D03*
X37141800Y-61126600D03*
X36329000Y-61139300D03*
X35541600Y-61126600D03*
X37967300Y-59653400D03*
X37141800Y-59640700D03*
X36329000Y-59653400D03*
X35541600Y-59653400D03*
D46*
X55379000Y-48769500D03*
X30106000Y-62168000D03*
X30106000Y-59945500D03*
X54363000Y-39244500D03*
X51061000Y-35244000D03*
D47*
G36*
X39450000Y-61450000D02*
X34550000Y-61450000D01*
X34550000Y-59050000D01*
X39450000Y-59050000D01*
X39450000Y-61450000D01*
X39450000Y-61450000D01*
G37*
X39450000Y-61450000D02*
X34550000Y-61450000D01*
X34550000Y-59050000D01*
X39450000Y-59050000D01*
X39450000Y-61450000D01*
M02*
