<?xml version="1.0" standalone="no"?>
 <!DOCTYPE svg PUBLIC "-//W3C//DTD SVG 1.1//EN" 
 "http://www.w3.org/Graphics/SVG/1.1/DTD/svg11.dtd"> 
<svg xmlns="http://www.w3.org/2000/svg" version="1.1" 
    width="17.5006cm" height="15.0012cm" viewBox="0 0 68900 59060 ">
<title>SVG Picture created as FrontAxis_Power_Pot-B.SilkS.svg date 2016/02/27 18:35:34 </title>
  <desc>Picture generated by PCBNEW </desc>
<g style="fill:#000000; fill-opacity:1;stroke:#000000; stroke-opacity:1;
stroke-linecap:round; stroke-linejoin:round; "
 transform="translate(0 0) scale(1 1)">
</g>
<g style="fill:#000000; fill-opacity:0.0; 
stroke:#000000; stroke-width:-0.000393701; stroke-opacity:1; 
stroke-linecap:round; stroke-linejoin:round;">
</g>
<g style="fill:#000000; fill-opacity:0.0; 
stroke:#000000; stroke-width:59.0551; stroke-opacity:1; 
stroke-linecap:round; stroke-linejoin:round;">
<path d="M20950 2500
L20650 2500
" />
<path d="M20800 2650
L20800 2350
" />
<path d="M20900 1600
L19400 1600
" />
<path d="M21200 3100
L21200 1900
" />
<path d="M20900 1600
L21200 1900
" />
<path d="M20900 3400
L19400 3400
" />
<path d="M20900 3400
L21200 3100
" />
<path d="M19500 2450
L19500 2550
" />
<path d="M19550 2750
L19550 2250
" />
<path d="M19600 2150
L19600 2850
" />
<path d="M19650 2050
L19650 2950
" />
<path d="M19700 3000
L19700 2000
" />
<path d="M19750 1950
L19750 3050
" />
<path d="M19800 3100
L19800 1900
" />
<path d="M19850 3150
L19850 1850
" />
<path d="M19400 3400
L19400 1600
" />
<circle cx="20300" cy="2500" r="800" /> 
<path d="M21503 8506
L21503 9293
" />
<path d="M20696 9293
L20696 8506
" />
<path d="M26175 13600
L26475 13600
" />
<path d="M26325 13450
L26325 13750
" />
<path d="M26225 14500
L27725 14500
" />
<path d="M25925 13000
L25925 14200
" />
<path d="M26225 14500
L25925 14200
" />
<path d="M26225 12700
L27725 12700
" />
<path d="M26225 12700
L25925 13000
" />
<path d="M27625 13650
L27625 13550
" />
<path d="M27575 13350
L27575 13850
" />
<path d="M27525 13950
L27525 13250
" />
<path d="M27475 14050
L27475 13150
" />
<path d="M27425 13100
L27425 14100
" />
<path d="M27375 14150
L27375 13050
" />
<path d="M27325 13000
L27325 14200
" />
<path d="M27275 12950
L27275 14250
" />
<path d="M27725 12700
L27725 14500
" />
<circle cx="26825" cy="13600" r="800" /> 
<path d="M23640 15295
L23640 16554
" />
</g>
<g style="fill:#000000; fill-opacity:0.0; 
stroke:#000000; stroke-width:50; stroke-opacity:1; 
stroke-linecap:round; stroke-linejoin:round;">
<path d="M25609 16554
L25609 15295
" />
<path d="M24775 15675
L24775 15925
" />
<path d="M24775 15925
L24775 16175
" />
<path d="M24675 15825
L24675 16025
" />
<path d="M24675 16025
L24575 16025
" />
<path d="M24575 16025
L24575 15825
" />
<path d="M24575 15825
L24675 15825
" />
<path d="M24475 15675
L24475 15925
" />
<path d="M24475 15925
L24475 16175
" />
<path d="M24375 15925
L24475 15925
" />
<path d="M24875 15925
L24775 15925
" />
<path d="M25609 15295
L23640 15295
" />
<path d="M25609 16554
L23640 16554
" />
</g>
<g style="fill:#000000; fill-opacity:0.0; 
stroke:#000000; stroke-width:59.0551; stroke-opacity:1; 
stroke-linecap:round; stroke-linejoin:round;">
<path d="M9174 30438
L9174 30306
" />
<path d="M12225 30438
L12225 30306
" />
<path d="M12225 25261
L12225 25393
" />
<path d="M9174 25261
L9174 25393
" />
<path d="M9174 30438
L12225 30438
" />
<path d="M9174 25261
L12225 25261
" />
<path d="M9174 30306
L8465 30306
" />
<path d="M16124 30438
L16124 30306
" />
<path d="M19175 30438
L19175 30306
" />
<path d="M19175 25261
L19175 25393
" />
<path d="M16124 25261
L16124 25393
" />
<path d="M16124 30438
L19175 30438
" />
<path d="M16124 25261
L19175 25261
" />
<path d="M16124 30306
L15415 30306
" />
<path d="M27275 25953
L27275 26093
" />
<path d="M24224 25953
L24224 26093
" />
<path d="M24224 30146
L24224 30006
" />
<path d="M27275 30146
L27275 30006
" />
<path d="M27275 25953
L24224 25953
" />
<path d="M27275 30146
L24224 30146
" />
<path d="M27275 26093
L27875 26093
" />
<path d="M34375 25953
L34375 26093
" />
<path d="M31324 25953
L31324 26093
" />
<path d="M31324 30146
L31324 30006
" />
<path d="M34375 30146
L34375 30006
" />
<path d="M34375 25953
L31324 25953
" />
<path d="M34375 30146
L31324 30146
" />
<path d="M34375 26093
L34975 26093
" />
<path d="M41025 25853
L41025 25993
" />
<path d="M37974 25853
L37974 25993
" />
<path d="M37974 30046
L37974 29906
" />
<path d="M41025 30046
L41025 29906
" />
<path d="M41025 25853
L37974 25853
" />
<path d="M41025 30046
L37974 30046
" />
<path d="M41025 25993
L41625 25993
" />
<path d="M32201 12266
L32156 12266
" />
<path d="M32201 10633
L32156 10633
" />
<path d="M28698 10633
L28743 10633
" />
<path d="M28698 12266
L28743 12266
" />
<path d="M32201 12266
L32201 10633
" />
<path d="M28698 12266
L28698 10633
" />
<path d="M32156 12266
L32156 12808
" />
<path d="M16425 8161
L16425 8293
" />
<path d="M13374 8161
L13374 8293
" />
<path d="M13374 13338
L13374 13206
" />
<path d="M16425 13338
L16425 13206
" />
<path d="M16425 8161
L13374 8161
" />
<path d="M16425 13338
L13374 13338
" />
<path d="M16425 8293
L17134 8293
" />
<path d="M37596 13025
L37456 13025
" />
<path d="M37596 9974
L37456 9974
" />
<path d="M33403 9974
L33543 9974
" />
<path d="M33403 13025
L33543 13025
" />
<path d="M37596 13025
L37596 9974
" />
<path d="M33403 13025
L33403 9974
" />
<path d="M37456 13025
L37456 13625
" />
</g>
<g style="fill:#000000; fill-opacity:0.0; 
stroke:#000000; stroke-width:150; stroke-opacity:1; 
stroke-linecap:round; stroke-linejoin:round;">
<path d="M26750 6800
L23250 6800
" />
<path d="M23250 6800
L23250 8800
" />
<path d="M23250 8800
L26750 8800
" />
<path d="M26750 8800
L26750 6800
" />
<path d="M26750 7550
L26250 7550
" />
<path d="M26250 7550
L26250 8050
" />
<path d="M26250 8050
L26750 8050
" />
</g>
<g style="fill:#000000; fill-opacity:0.0; 
stroke:#000000; stroke-width:59.0551; stroke-opacity:1; 
stroke-linecap:round; stroke-linejoin:round;">
<path d="M16963 21466
L16906 21466
" />
<path d="M16963 19833
L16906 19833
" />
<path d="M14936 19833
L14993 19833
" />
<path d="M14936 21466
L14993 21466
" />
<path d="M16963 21466
L16963 19833
" />
<path d="M14936 21466
L14936 19833
" />
<path d="M16906 21466
L16906 22018
" />
<path d="M31375 14449
L31375 14593
" />
<path d="M28324 14449
L28324 14593
" />
<path d="M28324 20650
L28324 20506
" />
<path d="M31375 20650
L31375 20506
" />
<path d="M31375 14449
L28324 14449
" />
<path d="M31375 20650
L28324 20650
" />
<path d="M31375 14593
L32094 14593
" />
<path d="M40075 14449
L40075 14593
" />
<path d="M37024 14449
L37024 14593
" />
<path d="M37024 20650
L37024 20506
" />
<path d="M40075 20650
L40075 20506
" />
<path d="M40075 14449
L37024 14449
" />
<path d="M40075 20650
L37024 20650
" />
<path d="M40075 14593
L40794 14593
" />
<path d="M20184 8729
L20184 7470
" />
</g>
<g style="fill:#000000; fill-opacity:0.0; 
stroke:#000000; stroke-width:50; stroke-opacity:1; 
stroke-linecap:round; stroke-linejoin:round;">
<path d="M18215 7470
L18215 8729
" />
<path d="M19050 8350
L19050 8100
" />
<path d="M19050 8100
L19050 7850
" />
<path d="M19150 8200
L19150 8000
" />
<path d="M19150 8000
L19250 8000
" />
<path d="M19250 8000
L19250 8200
" />
<path d="M19250 8200
L19150 8200
" />
<path d="M19350 8350
L19350 8100
" />
<path d="M19350 8100
L19350 7850
" />
<path d="M19450 8100
L19350 8100
" />
<path d="M18950 8100
L19050 8100
" />
<path d="M18215 8729
L20184 8729
" />
<path d="M18215 7470
L20184 7470
" />
</g>
<g style="fill:#000000; fill-opacity:0.0; 
stroke:#000000; stroke-width:59.0551; stroke-opacity:1; 
stroke-linecap:round; stroke-linejoin:round;">
<path d="M21027 14522
L21027 14729
" />
<path d="M18172 14522
L18172 14729
" />
<path d="M18172 17377
L18172 17170
" />
<path d="M21027 17377
L21027 17170
" />
<path d="M21027 14522
L20820 14522
" />
<path d="M21027 17377
L20820 17377
" />
<path d="M18172 17377
L18379 17377
" />
<path d="M18172 14522
L18379 14522
" />
<path d="M21027 14729
L21568 14729
" />
<path d="M19353 12715
L19746 12715
" />
<path d="M19746 13384
L19353 13384
" />
<path d="M24578 16890
L24971 16890
" />
<path d="M24971 17559
L24578 17559
" />
<path d="M37546 25184
L37153 25184
" />
<path d="M37153 24515
L37546 24515
" />
<path d="M23903 24915
L24296 24915
" />
<path d="M24296 25584
L23903 25584
" />
<path d="M18796 6384
L18403 6384
" />
<path d="M18403 5715
L18796 5715
" />
<path d="M503 15115
L896 15115
" />
<path d="M896 15784
L503 15784
" />
<path d="M25696 10884
L25303 10884
" />
<path d="M25303 10215
L25696 10215
" />
<path d="M35953 27915
L36346 27915
" />
<path d="M36346 28584
L35953 28584
" />
<path d="M12746 15184
L12353 15184
" />
<path d="M12353 14515
L12746 14515
" />
<path d="M35953 28815
L36346 28815
" />
<path d="M36346 29484
L35953 29484
" />
<path d="M19803 19665
L20196 19665
" />
<path d="M20196 20334
L19803 20334
" />
<path d="M21346 19484
L20953 19484
" />
<path d="M20953 18815
L21346 18815
" />
<path d="M36346 30409
L35953 30409
" />
<path d="M35953 29740
L36346 29740
" />
<path d="M29153 29765
L29546 29765
" />
<path d="M29546 30434
L29153 30434
" />
<path d="M29153 28915
L29546 28915
" />
<path d="M29546 29584
L29153 29584
" />
<path d="M18896 18884
L18503 18884
" />
<path d="M18503 18215
L18896 18215
" />
<path d="M21446 28334
L21053 28334
" />
<path d="M21053 27665
L21446 27665
" />
<path d="M6853 28765
L7246 28765
" />
<path d="M7246 29434
L6853 29434
" />
<path d="M21596 13809
L21203 13809
" />
<path d="M21203 13140
L21596 13140
" />
<path d="M29153 27965
L29546 27965
" />
<path d="M29546 28634
L29153 28634
" />
<path d="M21446 29234
L21053 29234
" />
<path d="M21053 28565
L21446 28565
" />
<path d="M14346 27934
L13953 27934
" />
<path d="M13953 27265
L14346 27265
" />
<path d="M14346 29434
L13953 29434
" />
<path d="M13953 28765
L14346 28765
" />
<path d="M30546 14034
L30153 14034
" />
<path d="M30153 13365
L30546 13365
" />
<path d="M28448 8800
L28546 8800
" />
<path d="M28251 8800
L28153 8800
" />
<path d="M28251 8800
L28448 8937
" />
<path d="M28448 8937
L28448 8662
" />
<path d="M28448 8662
L28251 8800
" />
<path d="M28251 8937
L28251 8662
" />
<path d="M27838 8485
L28783 8485
" />
<path d="M27838 9114
L28783 9114
" />
<path d="M27794 7786
L27794 7313
" />
<path d="M27105 7313
L27105 7786
" />
<path d="M22736 15530
L22263 15530
" />
<path d="M22263 16219
L22736 16219
" />
<path d="M31444 8486
L31444 8013
" />
<path d="M30755 8013
L30755 8486
" />
<path d="M33444 8536
L33444 8063
" />
<path d="M32755 8063
L32755 8536
" />
<path d="M13650 35741
L36650 35741
" />
<path d="M13862 35524
L36429 35524
" />
<path d="M13650 32158
L36650 32158
" />
<path d="M13862 32375
L24264 32375
" />
<path d="M26035 32375
L36429 32375
" />
<path d="M24264 32375
L24264 32158
" />
<path d="M26035 32375
L26035 32158
" />
<path d="M13650 35741
L13650 32158
" />
<path d="M13862 35524
L13862 32375
" />
<path d="M36650 35741
L36650 32158
" />
<path d="M36429 35524
L36429 32375
" />
<path d="M13650 35741
L13862 35524
" />
<path d="M36650 35741
L36429 35524
" />
<path d="M13650 32158
L13862 32375
" />
<path d="M36650 32158
L36429 32375
" />
<path d="M19200 24541
L42200 24541
" />
<path d="M19412 24324
L41979 24324
" />
<path d="M19200 20958
L42200 20958
" />
<path d="M19412 21175
L29814 21175
" />
<path d="M31585 21175
L41979 21175
" />
<path d="M29814 21175
L29814 20958
" />
<path d="M31585 21175
L31585 20958
" />
<path d="M19200 24541
L19200 20958
" />
<path d="M19412 24324
L19412 21175
" />
<path d="M42200 24541
L42200 20958
" />
<path d="M41979 24324
L41979 21175
" />
<path d="M19200 24541
L19412 24324
" />
<path d="M42200 24541
L41979 24324
" />
<path d="M19200 20958
L19412 21175
" />
<path d="M42200 20958
L41979 21175
" />
<path d="M18185 12376
L18185 12061
" />
<path d="M20803 12376
L18185 12376
" />
<path d="M20803 12376
L20803 11215
" />
<path d="M20803 11215
L19011 11215
" />
<path d="M18185 11746
L18185 11215
" />
<path d="M18185 11215
L18696 11215
" />
<path d="M13965 16696
L13965 16303
" />
<path d="M14634 16303
L14634 16696
" />
<path d="M20553 3890
L20571 3909
L20628 3928
L20665 3928
L20721 3909
L20759 3871
L20778 3834
L20796 3759
L20796 3703
L20778 3628
L20759 3590
L20721 3553
L20665 3534
L20628 3534
L20571 3553
L20553 3571
" />
<path d="M20178 3928
L20403 3928
" />
<path d="M20290 3928
L20290 3534
L20328 3590
L20365 3628
L20403 3646
" />
<path d="M19840 3665
L19840 3928
" />
<path d="M19934 3515
L20028 3796
L19784 3796
" />
<path d="M22146 8646
L22164 8628
L22183 8571
L22183 8534
L22164 8478
L22127 8440
L22089 8421
L22014 8403
L21958 8403
L21883 8421
L21846 8440
L21808 8478
L21789 8534
L21789 8571
L21808 8628
L21827 8646
" />
<path d="M22183 9021
L22183 8796
" />
<path d="M22183 8909
L21789 8909
L21846 8871
L21883 8834
L21902 8796
" />
<path d="M21789 9378
L21789 9190
L21977 9171
L21958 9190
L21939 9228
L21939 9321
L21958 9359
L21977 9378
L22014 9396
L22108 9396
L22146 9378
L22164 9359
L22183 9321
L22183 9228
L22164 9190
L22146 9171
" />
<path d="M27078 12490
L27096 12509
L27153 12528
L27190 12528
L27246 12509
L27284 12471
L27303 12434
L27321 12359
L27321 12303
L27303 12228
L27284 12190
L27246 12153
L27190 12134
L27153 12134
L27096 12153
L27078 12171
" />
<path d="M26703 12528
L26928 12528
" />
<path d="M26815 12528
L26815 12134
L26853 12190
L26890 12228
L26928 12246
" />
<path d="M26365 12134
L26440 12134
L26478 12153
L26496 12171
L26534 12228
L26553 12303
L26553 12453
L26534 12490
L26515 12509
L26478 12528
L26403 12528
L26365 12509
L26346 12490
L26328 12453
L26328 12359
L26346 12321
L26365 12303
L26403 12284
L26478 12284
L26515 12303
L26534 12321
L26553 12359
" />
</g>
<g style="fill:#000000; fill-opacity:0.0; 
stroke:#000000; stroke-width:35; stroke-opacity:1; 
stroke-linecap:round; stroke-linejoin:round;">
<path d="M23712 11565
L24066 11211
L24201 11346
L24218 11396
L24218 11430
L24201 11480
L24150 11531
L24100 11548
L24066 11548
L24016 11531
L23881 11396
" />
<path d="M24453 11834
L24218 12070
" />
<path d="M24504 11615
L24167 11783
L24386 12002
" />
<path d="M21330 12651
L21297 12651
L21229 12617
L21196 12583
L21162 12516
L21162 12448
L21179 12398
L21229 12314
L21280 12263
L21364 12213
L21414 12196
L21482 12196
L21549 12230
L21583 12263
L21616 12331
L21616 12364
" />
<path d="M21869 12550
L21936 12617
L21953 12667
L21953 12735
L21903 12819
L21785 12937
L21701 12987
L21633 12987
L21583 12970
L21515 12903
L21499 12853
L21499 12785
L21549 12701
L21667 12583
L21751 12533
L21818 12533
L21869 12550
" />
<path d="M21818 13206
L22172 12853
L22020 13408
L22374 13055
" />
<path d="M22189 13576
L22542 13223
L22391 13779
L22744 13425
" />
<path d="M22441 13896
L22711 14166
" />
<path d="M23148 13829
L23367 14048
L23115 14065
L23165 14115
L23182 14166
L23182 14199
L23165 14250
L23081 14334
L23031 14351
L22997 14351
L22946 14334
L22845 14233
L22829 14183
L22829 14149
" />
<path d="M23485 14166
L23367 14755
" />
<path d="M23721 14401
L23132 14519
" />
<path d="M23805 14553
L23839 14553
L23889 14570
L23973 14654
L23990 14704
L23990 14738
L23973 14789
L23940 14822
L23872 14856
L23468 14856
L23687 15075
" />
</g>
<g style="fill:#000000; fill-opacity:0.0; 
stroke:#000000; stroke-width:59.0551; stroke-opacity:1; 
stroke-linecap:round; stroke-linejoin:round;">
<path d="M10999 30587
L10999 30905
L10981 30943
L10962 30962
L10924 30980
L10849 30980
L10812 30962
L10793 30943
L10774 30905
L10774 30587
" />
<path d="M10625 30587
L10381 30587
L10512 30737
L10456 30737
L10418 30755
L10400 30774
L10381 30812
L10381 30905
L10400 30943
L10418 30962
L10456 30980
L10568 30980
L10606 30962
L10625 30943
" />
<path d="M17949 30587
L17949 30905
L17931 30943
L17912 30962
L17874 30980
L17799 30980
L17762 30962
L17743 30943
L17724 30905
L17724 30587
" />
<path d="M17368 30718
L17368 30980
" />
<path d="M17462 30568
L17556 30849
L17312 30849
" />
<path d="M26049 25373
L26049 25692
L26031 25729
L26012 25748
L25974 25767
L25899 25767
L25862 25748
L25843 25729
L25824 25692
L25824 25373
" />
<path d="M25450 25373
L25637 25373
L25656 25561
L25637 25542
L25600 25523
L25506 25523
L25468 25542
L25450 25561
L25431 25598
L25431 25692
L25450 25729
L25468 25748
L25506 25767
L25600 25767
L25637 25748
L25656 25729
" />
<path d="M33149 25373
L33149 25692
L33131 25729
L33112 25748
L33074 25767
L32999 25767
L32962 25748
L32943 25729
L32924 25692
L32924 25373
" />
<path d="M32568 25373
L32643 25373
L32681 25392
L32700 25411
L32737 25467
L32756 25542
L32756 25692
L32737 25729
L32718 25748
L32681 25767
L32606 25767
L32568 25748
L32550 25729
L32531 25692
L32531 25598
L32550 25561
L32568 25542
L32606 25523
L32681 25523
L32718 25542
L32737 25561
L32756 25598
" />
<path d="M39799 25273
L39799 25592
L39781 25629
L39762 25648
L39724 25667
L39649 25667
L39612 25648
L39593 25629
L39574 25592
L39574 25273
" />
<path d="M39425 25273
L39162 25273
L39331 25667
" />
<path d="M32350 11150
L32669 11150
L32706 11168
L32725 11187
L32744 11225
L32744 11300
L32725 11337
L32706 11356
L32669 11375
L32350 11375
" />
<path d="M32744 11581
L32744 11656
L32725 11693
L32706 11712
L32650 11749
L32575 11768
L32425 11768
L32388 11749
L32369 11731
L32350 11693
L32350 11618
L32369 11581
L32388 11562
L32425 11543
L32519 11543
L32556 11562
L32575 11581
L32594 11618
L32594 11693
L32575 11731
L32556 11749
L32519 11768
" />
<path d="M15387 7581
L15387 7900
L15368 7937
L15349 7956
L15312 7975
L15237 7975
L15199 7956
L15181 7937
L15162 7900
L15162 7581
" />
<path d="M14768 7975
L14993 7975
" />
<path d="M14881 7975
L14881 7581
L14918 7637
L14956 7675
L14993 7694
" />
<path d="M14525 7581
L14487 7581
L14450 7600
L14431 7619
L14412 7656
L14393 7731
L14393 7825
L14412 7900
L14431 7937
L14450 7956
L14487 7975
L14525 7975
L14562 7956
L14581 7937
L14600 7900
L14618 7825
L14618 7731
L14600 7656
L14581 7619
L14562 7600
L14525 7581
" />
<path d="M37745 11012
L38063 11012
L38101 11031
L38119 11050
L38138 11087
L38138 11162
L38119 11200
L38101 11218
L38063 11237
L37745 11237
" />
<path d="M38138 11631
L38138 11406
" />
<path d="M38138 11518
L37745 11518
L37801 11481
L37838 11443
L37857 11406
" />
<path d="M38138 12006
L38138 11781
" />
<path d="M38138 11893
L37745 11893
L37801 11856
L37838 11818
L37857 11781
" />
</g>
<g style="fill:#000000; fill-opacity:0.0; 
stroke:#000000; stroke-width:60; stroke-opacity:1; 
stroke-linecap:round; stroke-linejoin:round;">
<path d="M25495 7071
L25495 7557
L25476 7614
L25457 7642
L25419 7671
L25342 7671
L25304 7642
L25285 7614
L25266 7557
L25266 7071
" />
<path d="M24866 7671
L25095 7671
" />
<path d="M24980 7671
L24980 7071
L25019 7157
L25057 7214
L25095 7242
" />
<path d="M24714 7128
L24695 7100
L24657 7071
L24561 7071
L24523 7100
L24504 7128
L24485 7185
L24485 7242
L24504 7328
L24733 7671
L24485 7671
" />
<path d="M25766 8526
L25766 8026
L25633 8026
L25600 8050
L25583 8073
L25566 8121
L25566 8192
L25583 8240
L25600 8264
L25633 8288
L25766 8288
" />
<path d="M25216 8478
L25233 8502
L25283 8526
L25316 8526
L25366 8502
L25400 8454
L25416 8407
L25433 8311
L25433 8240
L25416 8145
L25400 8097
L25366 8050
L25316 8026
L25283 8026
L25233 8050
L25216 8073
" />
<path d="M25050 8526
L24983 8526
L24950 8502
L24933 8478
L24900 8407
L24883 8311
L24883 8121
L24900 8073
L24916 8050
L24950 8026
L25016 8026
L25050 8050
L25066 8073
L25083 8121
L25083 8240
L25066 8288
L25050 8311
L25016 8335
L24950 8335
L24916 8311
L24900 8288
L24883 8240
" />
<path d="M24666 8026
L24633 8026
L24600 8050
L24583 8073
L24566 8121
L24550 8216
L24550 8335
L24566 8430
L24583 8478
L24600 8502
L24633 8526
L24666 8526
L24700 8502
L24716 8478
L24733 8430
L24750 8335
L24750 8216
L24733 8121
L24716 8073
L24700 8050
L24666 8026
" />
<path d="M24333 8026
L24299 8026
L24266 8050
L24249 8073
L24233 8121
L24216 8216
L24216 8335
L24233 8430
L24249 8478
L24266 8502
L24299 8526
L24333 8526
L24366 8502
L24383 8478
L24399 8430
L24416 8335
L24416 8216
L24399 8121
L24383 8073
L24366 8050
L24333 8026
" />
</g>
<g style="fill:#000000; fill-opacity:0.0; 
stroke:#000000; stroke-width:59.0551; stroke-opacity:1; 
stroke-linecap:round; stroke-linejoin:round;">
<path d="M17112 20162
L17431 20162
L17468 20181
L17487 20200
L17506 20237
L17506 20312
L17487 20350
L17468 20368
L17431 20387
L17112 20387
" />
<path d="M17506 20781
L17506 20556
" />
<path d="M17506 20668
L17112 20668
L17168 20631
L17206 20593
L17224 20556
" />
<path d="M17112 20912
L17112 21156
L17262 21024
L17262 21081
L17281 21118
L17299 21137
L17337 21156
L17431 21156
L17468 21137
L17487 21118
L17506 21081
L17506 20968
L17487 20931
L17468 20912
" />
<path d="M30337 13869
L30337 14188
L30318 14226
L30299 14244
L30262 14263
L30187 14263
L30149 14244
L30131 14226
L30112 14188
L30112 13869
" />
<path d="M29718 14263
L29943 14263
" />
<path d="M29831 14263
L29831 13869
L29868 13926
L29906 13963
L29943 13982
" />
<path d="M29362 13869
L29550 13869
L29568 14057
L29550 14038
L29512 14019
L29418 14019
L29381 14038
L29362 14057
L29343 14094
L29343 14188
L29362 14226
L29381 14244
L29418 14263
L29512 14263
L29550 14244
L29568 14226
" />
<path d="M39037 13869
L39037 14188
L39018 14226
L38999 14244
L38962 14263
L38887 14263
L38849 14244
L38831 14226
L38812 14188
L38812 13869
" />
<path d="M38418 14263
L38643 14263
" />
<path d="M38531 14263
L38531 13869
L38568 13926
L38606 13963
L38643 13982
" />
<path d="M38081 13869
L38156 13869
L38193 13888
L38212 13907
L38250 13963
L38268 14038
L38268 14188
L38250 14226
L38231 14244
L38193 14263
L38118 14263
L38081 14244
L38062 14226
L38043 14188
L38043 14094
L38062 14057
L38081 14038
L38118 14019
L38193 14019
L38231 14038
L38250 14057
L38268 14094
" />
<path d="M20087 13372
L20087 13690
L20068 13728
L20049 13747
L20012 13765
L19937 13765
L19899 13747
L19881 13728
L19862 13690
L19862 13372
" />
<path d="M19468 13765
L19693 13765
" />
<path d="M19581 13765
L19581 13372
L19618 13428
L19656 13465
L19693 13484
" />
<path d="M19131 13503
L19131 13765
" />
<path d="M19225 13353
L19318 13634
L19075 13634
" />
<path d="M19615 12363
L19634 12382
L19690 12401
L19728 12401
L19784 12382
L19821 12345
L19840 12307
L19859 12232
L19859 12176
L19840 12101
L19821 12063
L19784 12026
L19728 12007
L19690 12007
L19634 12026
L19615 12045
" />
<path d="M19484 12007
L19221 12007
L19390 12401
" />
<path d="M24840 16538
L24859 16557
L24915 16576
L24953 16576
L25009 16557
L25046 16520
L25065 16482
L25084 16407
L25084 16351
L25065 16276
L25046 16238
L25009 16201
L24953 16182
L24915 16182
L24859 16201
L24840 16220
" />
<path d="M24484 16182
L24671 16182
L24690 16370
L24671 16351
L24634 16332
L24540 16332
L24503 16351
L24484 16370
L24465 16407
L24465 16501
L24484 16538
L24503 16557
L24540 16576
L24634 16576
L24671 16557
L24690 16538
" />
<path d="M37415 25817
L37434 25836
L37490 25854
L37528 25854
L37584 25836
L37621 25798
L37640 25761
L37659 25686
L37659 25629
L37640 25554
L37621 25517
L37584 25479
L37528 25461
L37490 25461
L37434 25479
L37415 25498
" />
<path d="M37190 25629
L37228 25611
L37246 25592
L37265 25554
L37265 25536
L37246 25498
L37228 25479
L37190 25461
L37115 25461
L37078 25479
L37059 25498
L37040 25536
L37040 25554
L37059 25592
L37078 25611
L37115 25629
L37190 25629
L37228 25648
L37246 25667
L37265 25704
L37265 25779
L37246 25817
L37228 25836
L37190 25854
L37115 25854
L37078 25836
L37059 25817
L37040 25779
L37040 25704
L37059 25667
L37078 25648
L37115 25629
" />
<path d="M24165 24563
L24184 24582
L24240 24601
L24278 24601
L24334 24582
L24371 24545
L24390 24507
L24409 24432
L24409 24376
L24390 24301
L24371 24263
L24334 24226
L24278 24207
L24240 24207
L24184 24226
L24165 24245
" />
<path d="M23978 24601
L23903 24601
L23865 24582
L23846 24563
L23809 24507
L23790 24432
L23790 24282
L23809 24245
L23828 24226
L23865 24207
L23940 24207
L23978 24226
L23996 24245
L24015 24282
L24015 24376
L23996 24413
L23978 24432
L23940 24451
L23865 24451
L23828 24432
L23809 24413
L23790 24376
" />
<path d="M18853 7017
L18871 7036
L18928 7054
L18965 7054
L19021 7036
L19059 6998
L19078 6961
L19096 6886
L19096 6829
L19078 6754
L19059 6717
L19021 6679
L18965 6661
L18928 6661
L18871 6679
L18853 6698
" />
<path d="M18478 7054
L18703 7054
" />
<path d="M18590 7054
L18590 6661
L18628 6717
L18665 6754
L18703 6773
" />
<path d="M18346 6661
L18084 6661
L18253 7054
" />
<path d="M953 14763
L971 14782
L1028 14801
L1065 14801
L1121 14782
L1159 14745
L1178 14707
L1196 14632
L1196 14576
L1178 14501
L1159 14463
L1121 14426
L1065 14407
L1028 14407
L971 14426
L953 14445
" />
<path d="M803 14445
L784 14426
L746 14407
L653 14407
L615 14426
L596 14445
L578 14482
L578 14520
L596 14576
L821 14801
L578 14801
" />
<path d="M203 14801
L428 14801
" />
<path d="M315 14801
L315 14407
L353 14463
L390 14501
L428 14520
" />
<path d="M25753 11517
L25771 11536
L25828 11554
L25865 11554
L25921 11536
L25959 11498
L25978 11461
L25996 11386
L25996 11329
L25978 11254
L25959 11217
L25921 11179
L25865 11161
L25828 11161
L25771 11179
L25753 11198
" />
<path d="M25603 11198
L25584 11179
L25546 11161
L25453 11161
L25415 11179
L25396 11198
L25378 11236
L25378 11273
L25396 11329
L25621 11554
L25378 11554
" />
<path d="M25228 11198
L25209 11179
L25171 11161
L25078 11161
L25040 11179
L25021 11198
L25003 11236
L25003 11273
L25021 11329
L25246 11554
L25003 11554
" />
<path d="M36403 27563
L36421 27582
L36478 27601
L36515 27601
L36571 27582
L36609 27545
L36628 27507
L36646 27432
L36646 27376
L36628 27301
L36609 27263
L36571 27226
L36515 27207
L36478 27207
L36421 27226
L36403 27245
" />
<path d="M36253 27245
L36234 27226
L36196 27207
L36103 27207
L36065 27226
L36046 27245
L36028 27282
L36028 27320
L36046 27376
L36271 27601
L36028 27601
" />
<path d="M35896 27207
L35653 27207
L35784 27357
L35728 27357
L35690 27376
L35671 27395
L35653 27432
L35653 27526
L35671 27563
L35690 27582
L35728 27601
L35840 27601
L35878 27582
L35896 27563
" />
<path d="M12803 15817
L12821 15836
L12878 15854
L12915 15854
L12971 15836
L13009 15798
L13028 15761
L13046 15686
L13046 15629
L13028 15554
L13009 15517
L12971 15479
L12915 15461
L12878 15461
L12821 15479
L12803 15498
" />
<path d="M12653 15498
L12634 15479
L12596 15461
L12503 15461
L12465 15479
L12446 15498
L12428 15536
L12428 15573
L12446 15629
L12671 15854
L12428 15854
" />
<path d="M12090 15592
L12090 15854
" />
<path d="M12184 15442
L12278 15723
L12034 15723
" />
<path d="M36403 28463
L36421 28482
L36478 28501
L36515 28501
L36571 28482
L36609 28445
L36628 28407
L36646 28332
L36646 28276
L36628 28201
L36609 28163
L36571 28126
L36515 28107
L36478 28107
L36421 28126
L36403 28145
" />
<path d="M36253 28145
L36234 28126
L36196 28107
L36103 28107
L36065 28126
L36046 28145
L36028 28182
L36028 28220
L36046 28276
L36271 28501
L36028 28501
" />
<path d="M35896 28107
L35634 28107
L35803 28501
" />
<path d="M20253 19313
L20271 19332
L20328 19351
L20365 19351
L20421 19332
L20459 19295
L20478 19257
L20496 19182
L20496 19126
L20478 19051
L20459 19013
L20421 18976
L20365 18957
L20328 18957
L20271 18976
L20253 18995
" />
<path d="M20103 18995
L20084 18976
L20046 18957
L19953 18957
L19915 18976
L19896 18995
L19878 19032
L19878 19070
L19896 19126
L20121 19351
L19878 19351
" />
<path d="M19690 19351
L19615 19351
L19578 19332
L19559 19313
L19521 19257
L19503 19182
L19503 19032
L19521 18995
L19540 18976
L19578 18957
L19653 18957
L19690 18976
L19709 18995
L19728 19032
L19728 19126
L19709 19163
L19690 19182
L19653 19201
L19578 19201
L19540 19182
L19521 19163
L19503 19126
" />
<path d="M21403 20117
L21421 20136
L21478 20154
L21515 20154
L21571 20136
L21609 20098
L21628 20061
L21646 19986
L21646 19929
L21628 19854
L21609 19817
L21571 19779
L21515 19761
L21478 19761
L21421 19779
L21403 19798
" />
<path d="M21271 19761
L21028 19761
L21159 19911
L21103 19911
L21065 19929
L21046 19948
L21028 19986
L21028 20079
L21046 20117
L21065 20136
L21103 20154
L21215 20154
L21253 20136
L21271 20117
" />
<path d="M20653 20154
L20878 20154
" />
<path d="M20765 20154
L20765 19761
L20803 19817
L20840 19854
L20878 19873
" />
<path d="M36403 31042
L36421 31061
L36478 31079
L36515 31079
L36571 31061
L36609 31023
L36628 30986
L36646 30911
L36646 30854
L36628 30779
L36609 30742
L36571 30704
L36515 30686
L36478 30686
L36421 30704
L36403 30723
" />
<path d="M36271 30686
L36028 30686
L36159 30836
L36103 30836
L36065 30854
L36046 30873
L36028 30911
L36028 31004
L36046 31042
L36065 31061
L36103 31079
L36215 31079
L36253 31061
L36271 31042
" />
<path d="M35878 30723
L35859 30704
L35821 30686
L35728 30686
L35690 30704
L35671 30723
L35653 30761
L35653 30798
L35671 30854
L35896 31079
L35653 31079
" />
<path d="M29603 29413
L29621 29432
L29678 29451
L29715 29451
L29771 29432
L29809 29395
L29828 29357
L29846 29282
L29846 29226
L29828 29151
L29809 29113
L29771 29076
L29715 29057
L29678 29057
L29621 29076
L29603 29095
" />
<path d="M29471 29057
L29228 29057
L29359 29207
L29303 29207
L29265 29226
L29246 29245
L29228 29282
L29228 29376
L29246 29413
L29265 29432
L29303 29451
L29415 29451
L29453 29432
L29471 29413
" />
<path d="M29096 29057
L28853 29057
L28984 29207
L28928 29207
L28890 29226
L28871 29245
L28853 29282
L28853 29376
L28871 29413
L28890 29432
L28928 29451
L29040 29451
L29078 29432
L29096 29413
" />
<path d="M29603 28563
L29621 28582
L29678 28601
L29715 28601
L29771 28582
L29809 28545
L29828 28507
L29846 28432
L29846 28376
L29828 28301
L29809 28263
L29771 28226
L29715 28207
L29678 28207
L29621 28226
L29603 28245
" />
<path d="M29471 28207
L29228 28207
L29359 28357
L29303 28357
L29265 28376
L29246 28395
L29228 28432
L29228 28526
L29246 28563
L29265 28582
L29303 28601
L29415 28601
L29453 28582
L29471 28563
" />
<path d="M28890 28338
L28890 28601
" />
<path d="M28984 28188
L29078 28470
L28834 28470
" />
<path d="M18953 19517
L18971 19536
L19028 19554
L19065 19554
L19121 19536
L19159 19498
L19178 19461
L19196 19386
L19196 19329
L19178 19254
L19159 19217
L19121 19179
L19065 19161
L19028 19161
L18971 19179
L18953 19198
" />
<path d="M18821 19161
L18578 19161
L18709 19311
L18653 19311
L18615 19329
L18596 19348
L18578 19386
L18578 19479
L18596 19517
L18615 19536
L18653 19554
L18765 19554
L18803 19536
L18821 19517
" />
<path d="M18221 19161
L18409 19161
L18428 19348
L18409 19329
L18371 19311
L18278 19311
L18240 19329
L18221 19348
L18203 19386
L18203 19479
L18221 19517
L18240 19536
L18278 19554
L18371 19554
L18409 19536
L18428 19517
" />
<path d="M21503 28967
L21521 28986
L21578 29004
L21615 29004
L21671 28986
L21709 28948
L21728 28911
L21746 28836
L21746 28779
L21728 28704
L21709 28667
L21671 28629
L21615 28611
L21578 28611
L21521 28629
L21503 28648
" />
<path d="M21371 28611
L21128 28611
L21259 28761
L21203 28761
L21165 28779
L21146 28798
L21128 28836
L21128 28929
L21146 28967
L21165 28986
L21203 29004
L21315 29004
L21353 28986
L21371 28967
" />
<path d="M20790 28611
L20865 28611
L20903 28629
L20921 28648
L20959 28704
L20978 28779
L20978 28929
L20959 28967
L20940 28986
L20903 29004
L20828 29004
L20790 28986
L20771 28967
L20753 28929
L20753 28836
L20771 28798
L20790 28779
L20828 28761
L20903 28761
L20940 28779
L20959 28798
L20978 28836
" />
<path d="M7303 28413
L7321 28432
L7378 28451
L7415 28451
L7471 28432
L7509 28395
L7528 28357
L7546 28282
L7546 28226
L7528 28151
L7509 28113
L7471 28076
L7415 28057
L7378 28057
L7321 28076
L7303 28095
" />
<path d="M7171 28057
L6928 28057
L7059 28207
L7003 28207
L6965 28226
L6946 28245
L6928 28282
L6928 28376
L6946 28413
L6965 28432
L7003 28451
L7115 28451
L7153 28432
L7171 28413
" />
<path d="M6740 28451
L6665 28451
L6628 28432
L6609 28413
L6571 28357
L6553 28282
L6553 28132
L6571 28095
L6590 28076
L6628 28057
L6703 28057
L6740 28076
L6759 28095
L6778 28132
L6778 28226
L6759 28263
L6740 28282
L6703 28301
L6628 28301
L6590 28282
L6571 28263
L6553 28226
" />
<path d="M21653 14442
L21671 14461
L21728 14479
L21765 14479
L21821 14461
L21859 14423
L21878 14386
L21896 14311
L21896 14254
L21878 14179
L21859 14142
L21821 14104
L21765 14086
L21728 14086
L21671 14104
L21653 14123
" />
<path d="M21315 14217
L21315 14479
" />
<path d="M21409 14067
L21503 14348
L21259 14348
" />
<path d="M21034 14086
L20996 14086
L20959 14104
L20940 14123
L20921 14161
L20903 14236
L20903 14329
L20921 14404
L20940 14442
L20959 14461
L20996 14479
L21034 14479
L21071 14461
L21090 14442
L21109 14404
L21128 14329
L21128 14236
L21109 14161
L21090 14123
L21071 14104
L21034 14086
" />
<path d="M29603 27613
L29621 27632
L29678 27651
L29715 27651
L29771 27632
L29809 27595
L29828 27557
L29846 27482
L29846 27426
L29828 27351
L29809 27313
L29771 27276
L29715 27257
L29678 27257
L29621 27276
L29603 27295
" />
<path d="M29265 27388
L29265 27651
" />
<path d="M29359 27238
L29453 27520
L29209 27520
" />
<path d="M28853 27651
L29078 27651
" />
<path d="M28965 27651
L28965 27257
L29003 27313
L29040 27351
L29078 27370
" />
<path d="M21503 29867
L21521 29886
L21578 29904
L21615 29904
L21671 29886
L21709 29848
L21728 29811
L21746 29736
L21746 29679
L21728 29604
L21709 29567
L21671 29529
L21615 29511
L21578 29511
L21521 29529
L21503 29548
" />
<path d="M21165 29642
L21165 29904
" />
<path d="M21259 29492
L21353 29773
L21109 29773
" />
<path d="M20978 29548
L20959 29529
L20921 29511
L20828 29511
L20790 29529
L20771 29548
L20753 29586
L20753 29623
L20771 29679
L20996 29904
L20753 29904
" />
<path d="M14403 28567
L14421 28586
L14478 28604
L14515 28604
L14571 28586
L14609 28548
L14628 28511
L14646 28436
L14646 28379
L14628 28304
L14609 28267
L14571 28229
L14515 28211
L14478 28211
L14421 28229
L14403 28248
" />
<path d="M14065 28342
L14065 28604
" />
<path d="M14159 28192
L14253 28473
L14009 28473
" />
<path d="M13896 28211
L13653 28211
L13784 28361
L13728 28361
L13690 28379
L13671 28398
L13653 28436
L13653 28529
L13671 28567
L13690 28586
L13728 28604
L13840 28604
L13878 28586
L13896 28567
" />
<path d="M14403 30067
L14421 30086
L14478 30104
L14515 30104
L14571 30086
L14609 30048
L14628 30011
L14646 29936
L14646 29879
L14628 29804
L14609 29767
L14571 29729
L14515 29711
L14478 29711
L14421 29729
L14403 29748
" />
<path d="M14065 29842
L14065 30104
" />
<path d="M14159 29692
L14253 29973
L14009 29973
" />
<path d="M13690 29842
L13690 30104
" />
<path d="M13784 29692
L13878 29973
L13634 29973
" />
<path d="M30603 14667
L30621 14686
L30678 14704
L30715 14704
L30771 14686
L30809 14648
L30828 14611
L30846 14536
L30846 14479
L30828 14404
L30809 14367
L30771 14329
L30715 14311
L30678 14311
L30621 14329
L30603 14348
" />
<path d="M30265 14442
L30265 14704
" />
<path d="M30359 14292
L30453 14573
L30209 14573
" />
<path d="M29871 14311
L30059 14311
L30078 14498
L30059 14479
L30021 14461
L29928 14461
L29890 14479
L29871 14498
L29853 14536
L29853 14629
L29871 14667
L29890 14686
L29928 14704
L30021 14704
L30059 14686
L30078 14667
" />
<path d="M28640 9706
L28640 9312
L28546 9312
L28490 9331
L28453 9368
L28434 9406
L28415 9481
L28415 9537
L28434 9612
L28453 9650
L28490 9687
L28546 9706
L28640 9706
" />
<path d="M28040 9706
L28265 9706
" />
<path d="M28153 9706
L28153 9312
L28190 9368
L28228 9406
L28265 9425
" />
<path d="M26801 7484
L26613 7353
" />
<path d="M26801 7259
L26407 7259
L26407 7409
L26426 7446
L26445 7465
L26482 7484
L26538 7484
L26576 7465
L26595 7446
L26613 7409
L26613 7259
" />
<path d="M26407 7615
L26407 7878
L26801 7709
" />
<path d="M22565 16879
L22696 16692
" />
<path d="M22790 16879
L22790 16486
L22640 16486
L22603 16504
L22584 16523
L22565 16561
L22565 16617
L22584 16654
L22603 16673
L22640 16692
L22790 16692
" />
<path d="M22378 16879
L22303 16879
L22265 16861
L22246 16842
L22209 16786
L22190 16711
L22190 16561
L22209 16523
L22228 16504
L22265 16486
L22340 16486
L22378 16504
L22396 16523
L22415 16561
L22415 16654
L22396 16692
L22378 16711
L22340 16729
L22265 16729
L22228 16711
L22209 16692
L22190 16654
" />
<path d="M30451 7996
L30263 7865
" />
<path d="M30451 7771
L30057 7771
L30057 7921
L30076 7959
L30095 7978
L30132 7996
L30188 7996
L30226 7978
L30245 7959
L30263 7921
L30263 7771
" />
<path d="M30451 8371
L30451 8146
" />
<path d="M30451 8259
L30057 8259
L30113 8221
L30151 8184
L30170 8146
" />
<path d="M30095 8521
L30076 8540
L30057 8578
L30057 8671
L30076 8709
L30095 8728
L30132 8746
L30170 8746
L30226 8728
L30451 8503
L30451 8746
" />
<path d="M32451 8046
L32263 7915
" />
<path d="M32451 7821
L32057 7821
L32057 7971
L32076 8009
L32095 8028
L32132 8046
L32188 8046
L32226 8028
L32245 8009
L32263 7971
L32263 7821
" />
<path d="M32451 8421
L32451 8196
" />
<path d="M32451 8309
L32057 8309
L32113 8271
L32151 8234
L32170 8196
" />
<path d="M32188 8759
L32451 8759
" />
<path d="M32038 8665
L32320 8571
L32320 8815
" />
<path d="M25440 36628
L25440 36234
L25290 36234
L25253 36253
L25234 36271
L25215 36309
L25215 36365
L25234 36403
L25253 36421
L25290 36440
L25440 36440
" />
<path d="M24840 36628
L25065 36628
" />
<path d="M24953 36628
L24953 36234
L24990 36290
L25028 36328
L25065 36346
" />
<path d="M30990 25428
L30990 25034
L30840 25034
L30803 25053
L30784 25071
L30765 25109
L30765 25165
L30784 25203
L30803 25221
L30840 25240
L30990 25240
" />
<path d="M30615 25071
L30596 25053
L30559 25034
L30465 25034
L30428 25053
L30409 25071
L30390 25109
L30390 25146
L30409 25203
L30634 25428
L30390 25428
" />
<path d="M18008 11475
L17615 11475
L17615 11625
L17633 11663
L17652 11682
L17690 11700
L17746 11700
L17783 11682
L17802 11663
L17821 11625
L17821 11475
" />
<path d="M17615 12038
L17615 11963
L17633 11925
L17652 11907
L17708 11869
L17783 11850
L17933 11850
L17971 11869
L17990 11888
L18008 11925
L18008 12000
L17990 12038
L17971 12057
L17933 12075
L17840 12075
L17802 12057
L17783 12038
L17765 12000
L17765 11925
L17783 11888
L17802 11869
L17840 11850
" />
<path d="M13613 16434
L13632 16415
L13651 16359
L13651 16321
L13632 16265
L13595 16228
L13557 16209
L13482 16190
L13426 16190
L13351 16209
L13313 16228
L13276 16265
L13257 16321
L13257 16359
L13276 16415
L13295 16434
" />
<path d="M13257 16565
L13257 16809
L13407 16678
L13407 16734
L13426 16771
L13445 16790
L13482 16809
L13576 16809
L13613 16790
L13632 16771
L13651 16734
L13651 16621
L13632 16584
L13613 16565
" />
</g> 
</svg>
