<?xml version="1.0" standalone="no"?>
 <!DOCTYPE svg PUBLIC "-//W3C//DTD SVG 1.1//EN" 
 "http://www.w3.org/Graphics/SVG/1.1/DTD/svg11.dtd"> 
<svg xmlns="http://www.w3.org/2000/svg" version="1.1" 
    width="17.5006cm" height="15.0012cm" viewBox="0 0 68900 59060 ">
<title>SVG Picture created as FrontAxis_Power_Pot-F.Cu.svg date 2016/02/27 18:35:34 </title>
  <desc>Picture generated by PCBNEW </desc>
<g style="fill:#000000; fill-opacity:1;stroke:#000000; stroke-opacity:1;
stroke-linecap:round; stroke-linejoin:round; "
 transform="translate(0 0) scale(1 1)">
</g>
<g style="fill:#000000; fill-opacity:0.0; 
stroke:#000000; stroke-width:-0.000393701; stroke-opacity:1; 
stroke-linecap:round; stroke-linejoin:round;">
</g>
<g style="fill:#000000; fill-opacity:0.0; 
stroke:#000000; stroke-width:0; stroke-opacity:1; 
stroke-linecap:round; stroke-linejoin:round;">
</g>
<g style="fill:#000000; fill-opacity:1.0; 
stroke:#000000; stroke-width:0; stroke-opacity:1; 
stroke-linecap:round; stroke-linejoin:round;">
<polyline style="fill-rule:evenodd;"
points="55060,26822
55690,26822
55690,27846
55060,27846
55060,26822
" /> 
<polyline style="fill-rule:evenodd;"
points="55060,25404
55690,25404
55690,26428
55060,26428
55060,25404
" /> 
<polyline style="fill-rule:evenodd;"
points="60065,33403
59435,33403
59435,32379
60065,32379
60065,33403
" /> 
<polyline style="fill-rule:evenodd;"
points="60065,34821
59435,34821
59435,33797
60065,33797
60065,34821
" /> 
<polyline style="fill-rule:evenodd;"
points="13315,20303
12685,20303
12685,19279
13315,19279
13315,20303
" /> 
<polyline style="fill-rule:evenodd;"
points="13315,21721
12685,21721
12685,20697
13315,20697
13315,21721
" /> 
<polyline style="fill-rule:evenodd;"
points="22078,16012
22571,16012
22571,16603
22078,16603
22078,16012
" /> 
<polyline style="fill-rule:evenodd;"
points="22078,16996
22571,16996
22571,17587
22078,17587
22078,16996
" /> 
</g>
<g style="fill:#000000; fill-opacity:1.0; 
stroke:#000000; stroke-width:593; stroke-opacity:1; 
stroke-linecap:round; stroke-linejoin:round;">
</g>
<g style="fill:#000000; fill-opacity:0.0; 
stroke:#000000; stroke-width:593; stroke-opacity:1; 
stroke-linecap:round; stroke-linejoin:round;">
<path d="M36750 6647
L36750 6053
" />
<path d="M35750 6647
L35750 6053
" />
<path d="M34750 6647
L34750 6053
" />
<path d="M33100 6647
L33100 6053
" />
<path d="M32100 6647
L32100 6053
" />
<path d="M31100 6647
L31100 6053
" />
<path d="M5850 21953
L5850 22547
" />
<path d="M6850 21953
L6850 22547
" />
<path d="M7850 21953
L7850 22547
" />
<path d="M8850 21953
L8850 22547
" />
<path d="M9850 21953
L9850 22547
" />
<path d="M10850 21953
L10850 22547
" />
</g>
<g style="fill:#000000; fill-opacity:1.0; 
stroke:#000000; stroke-width:0; stroke-opacity:1; 
stroke-linecap:round; stroke-linejoin:round;">
<circle cx="24487.4" cy="13080.3" r="260" /> 
</g>
<g style="fill:#000000; fill-opacity:1.0; 
stroke:#000000; stroke-width:59.0551; stroke-opacity:1; 
stroke-linecap:round; stroke-linejoin:round;">
</g>
<g style="fill:#000000; fill-opacity:1.0; 
stroke:#000000; stroke-width:0; stroke-opacity:1; 
stroke-linecap:round; stroke-linejoin:round;">
<circle cx="23426.8" cy="13433.9" r="260" /> 
</g>
<g style="fill:#000000; fill-opacity:1.0; 
stroke:#000000; stroke-width:59.0551; stroke-opacity:1; 
stroke-linecap:round; stroke-linejoin:round;">
</g>
<g style="fill:#000000; fill-opacity:1.0; 
stroke:#000000; stroke-width:0; stroke-opacity:1; 
stroke-linecap:round; stroke-linejoin:round;">
<circle cx="23780.3" cy="12373.2" r="260" /> 
</g>
<g style="fill:#000000; fill-opacity:1.0; 
stroke:#000000; stroke-width:59.0551; stroke-opacity:1; 
stroke-linecap:round; stroke-linejoin:round;">
</g>
<g style="fill:#000000; fill-opacity:1.0; 
stroke:#000000; stroke-width:0; stroke-opacity:1; 
stroke-linecap:round; stroke-linejoin:round;">
<circle cx="22719.7" cy="12726.8" r="260" /> 
</g>
<g style="fill:#000000; fill-opacity:1.0; 
stroke:#000000; stroke-width:59.0551; stroke-opacity:1; 
stroke-linecap:round; stroke-linejoin:round;">
</g>
<g style="fill:#000000; fill-opacity:1.0; 
stroke:#000000; stroke-width:0; stroke-opacity:1; 
stroke-linecap:round; stroke-linejoin:round;">
<circle cx="23073.2" cy="11666.1" r="260" /> 
</g>
<g style="fill:#000000; fill-opacity:1.0; 
stroke:#000000; stroke-width:59.0551; stroke-opacity:1; 
stroke-linecap:round; stroke-linejoin:round;">
</g>
<g style="fill:#000000; fill-opacity:1.0; 
stroke:#000000; stroke-width:0; stroke-opacity:1; 
stroke-linecap:round; stroke-linejoin:round;">
<circle cx="22012.6" cy="12019.7" r="260" /> 
</g>
<g style="fill:#000000; fill-opacity:1.0; 
stroke:#000000; stroke-width:59.0551; stroke-opacity:1; 
stroke-linecap:round; stroke-linejoin:round;">
</g>
<g style="fill:#000000; fill-opacity:1.0; 
stroke:#000000; stroke-width:593; stroke-opacity:1; 
stroke-linecap:round; stroke-linejoin:round;">
</g>
<g style="fill:#000000; fill-opacity:0.0; 
stroke:#000000; stroke-width:593; stroke-opacity:1; 
stroke-linecap:round; stroke-linejoin:round;">
<path d="M29550 6647
L29550 6053
" />
<path d="M28550 6647
L28550 6053
" />
</g>
<g style="fill:#000000; fill-opacity:0.0; 
stroke:#000000; stroke-width:0; stroke-opacity:1; 
stroke-linecap:round; stroke-linejoin:round;">
</g>
<g style="fill:#000000; fill-opacity:1.0; 
stroke:#000000; stroke-width:0; stroke-opacity:1; 
stroke-linecap:round; stroke-linejoin:round;">
<polyline style="fill-rule:evenodd;"
points="8442,19340
8442,18159
8757,18159
8757,19340
8442,19340
" /> 
<polyline style="fill-rule:evenodd;"
points="8942,19340
8942,18159
9257,18159
9257,19340
8942,19340
" /> 
<polyline style="fill-rule:evenodd;"
points="9942,19340
9942,18159
10257,18159
10257,19340
9942,19340
" /> 
<polyline style="fill-rule:evenodd;"
points="8359,17577
8359,15097
10840,15097
10840,17577
8359,17577
" /> 
<polyline style="fill-rule:evenodd;"
points="10442,19340
10442,18159
10757,18159
10757,19340
10442,19340
" /> 
<circle cx="7200" cy="7200" r="1181.1" /> 
</g>
<g style="fill:#000000; fill-opacity:1.0; 
stroke:#000000; stroke-width:59.0551; stroke-opacity:1; 
stroke-linecap:round; stroke-linejoin:round;">
</g>
<g style="fill:#000000; fill-opacity:1.0; 
stroke:#000000; stroke-width:0; stroke-opacity:1; 
stroke-linecap:round; stroke-linejoin:round;">
<circle cx="41200" cy="7200" r="1181.1" /> 
</g>
<g style="fill:#000000; fill-opacity:1.0; 
stroke:#000000; stroke-width:59.0551; stroke-opacity:1; 
stroke-linecap:round; stroke-linejoin:round;">
</g>
<g style="fill:#000000; fill-opacity:1.0; 
stroke:#000000; stroke-width:0; stroke-opacity:1; 
stroke-linecap:round; stroke-linejoin:round;">
<circle cx="41200" cy="33200" r="1181.1" /> 
</g>
<g style="fill:#000000; fill-opacity:1.0; 
stroke:#000000; stroke-width:59.0551; stroke-opacity:1; 
stroke-linecap:round; stroke-linejoin:round;">
</g>
<g style="fill:#000000; fill-opacity:1.0; 
stroke:#000000; stroke-width:0; stroke-opacity:1; 
stroke-linecap:round; stroke-linejoin:round;">
<circle cx="7200" cy="33200" r="1181.1" /> 
</g>
<g style="fill:#000000; fill-opacity:1.0; 
stroke:#000000; stroke-width:59.0551; stroke-opacity:1; 
stroke-linecap:round; stroke-linejoin:round;">
</g>
<g style="fill:#000000; fill-opacity:1.0; 
stroke:#000000; stroke-width:0; stroke-opacity:1; 
stroke-linecap:round; stroke-linejoin:round;">
<polyline style="fill-rule:evenodd;"
points="44403,22459
44896,22459
44896,22853
44403,22853
44403,22459
" /> 
<polyline style="fill-rule:evenodd;"
points="44403,23246
44896,23246
44896,23640
44403,23640
44403,23246
" /> 
<polyline style="fill-rule:evenodd;"
points="43309,32771
43309,32278
43703,32278
43703,32771
43309,32771
" /> 
<polyline style="fill-rule:evenodd;"
points="44096,32771
44096,32278
44490,32278
44490,32771
44096,32771
" /> 
<polyline style="fill-rule:evenodd;"
points="-1740,8846
-1740,8353
-1346,8353
-1346,8846
-1740,8846
" /> 
<polyline style="fill-rule:evenodd;"
points="-953,8846
-953,8353
-559,8353
-559,8846
-953,8846
" /> 
<polyline style="fill-rule:evenodd;"
points="4709,-4753
4709,-5246
5103,-5246
5103,-4753
4709,-4753
" /> 
<polyline style="fill-rule:evenodd;"
points="5496,-4753
5496,-5246
5890,-5246
5890,-4753
5496,-4753
" /> 
<polyline style="fill-rule:evenodd;"
points="-2640,3996
-2640,3503
-2246,3503
-2246,3996
-2640,3996
" /> 
<polyline style="fill-rule:evenodd;"
points="-1853,3996
-1853,3503
-1459,3503
-1459,3996
-1853,3996
" /> 
<polyline style="fill-rule:evenodd;"
points="-2340,1146
-2340,653
-1946,653
-1946,1146
-2340,1146
" /> 
<polyline style="fill-rule:evenodd;"
points="-1553,1146
-1553,653
-1159,653
-1159,1146
-1553,1146
" /> 
<polyline style="fill-rule:evenodd;"
points="-2340,-103
-2340,-596
-1946,-596
-1946,-103
-2340,-103
" /> 
<polyline style="fill-rule:evenodd;"
points="-1553,-103
-1553,-596
-1159,-596
-1159,-103
-1553,-103
" /> 
<polyline style="fill-rule:evenodd;"
points="-13990,2396
-13990,1903
-13596,1903
-13596,2396
-13990,2396
" /> 
<polyline style="fill-rule:evenodd;"
points="-13203,2396
-13203,1903
-12809,1903
-12809,2396
-13203,2396
" /> 
<polyline style="fill-rule:evenodd;"
points="-17740,-303
-17740,-796
-17346,-796
-17346,-303
-17740,-303
" /> 
<polyline style="fill-rule:evenodd;"
points="-16953,-303
-16953,-796
-16559,-796
-16559,-303
-16953,-303
" /> 
<polyline style="fill-rule:evenodd;"
points="-8740,-6253
-8740,-6746
-8346,-6746
-8346,-6253
-8740,-6253
" /> 
<polyline style="fill-rule:evenodd;"
points="-7953,-6253
-7953,-6746
-7559,-6746
-7559,-6253
-7953,-6253
" /> 
<polyline style="fill-rule:evenodd;"
points="7811,18394
7811,18905
7536,18905
7536,18394
7811,18394
" /> 
<polyline style="fill-rule:evenodd;"
points="7063,18394
7063,18905
6788,18905
6788,18394
7063,18394
" /> 
<polyline style="fill-rule:evenodd;"
points="-161,1905
-161,1394
113,1394
113,1905
-161,1905
" /> 
<polyline style="fill-rule:evenodd;"
points="586,1905
586,1394
861,1394
861,1905
586,1905
" /> 
<polyline style="fill-rule:evenodd;"
points="1538,1855
1538,1344
1813,1344
1813,1855
1538,1855
" /> 
<polyline style="fill-rule:evenodd;"
points="2286,1855
2286,1344
2561,1344
2561,1855
2286,1855
" /> 
<polyline style="fill-rule:evenodd;"
points="938,-1744
938,-2255
1213,-2255
1213,-1744
938,-1744
" /> 
<polyline style="fill-rule:evenodd;"
points="1686,-1744
1686,-2255
1961,-2255
1961,-1744
1686,-1744
" /> 
<polyline style="fill-rule:evenodd;"
points="1388,555
1388,44
1663,44
1663,555
1388,555
" /> 
<polyline style="fill-rule:evenodd;"
points="2136,555
2136,44
2411,44
2411,555
2136,555
" /> 
<polyline style="fill-rule:evenodd;"
points="-1661,7705
-1661,7194
-1386,7194
-1386,7705
-1661,7705
" /> 
<polyline style="fill-rule:evenodd;"
points="-913,7705
-913,7194
-638,7194
-638,7705
-913,7705
" /> 
<polyline style="fill-rule:evenodd;"
points="2988,1105
2988,594
3263,594
3263,1105
2988,1105
" /> 
<polyline style="fill-rule:evenodd;"
points="3736,1105
3736,594
4011,594
4011,1105
3736,1105
" /> 
<polyline style="fill-rule:evenodd;"
points="1988,-494
1988,-1005
2263,-1005
2263,-494
1988,-494
" /> 
<polyline style="fill-rule:evenodd;"
points="2736,-494
2736,-1005
3011,-1005
3011,-494
2736,-494
" /> 
<polyline style="fill-rule:evenodd;"
points="-5411,-1994
-5411,-2505
-5136,-2505
-5136,-1994
-5411,-1994
" /> 
<polyline style="fill-rule:evenodd;"
points="-4663,-1994
-4663,-2505
-4388,-2505
-4388,-1994
-4663,-1994
" /> 
<polyline style="fill-rule:evenodd;"
points="-6461,-494
-6461,-1005
-6186,-1005
-6186,-494
-6461,-494
" /> 
<polyline style="fill-rule:evenodd;"
points="-5713,-494
-5713,-1005
-5438,-1005
-5438,-494
-5713,-494
" /> 
<polyline style="fill-rule:evenodd;"
points="-6611,855
-6611,344
-6336,344
-6336,855
-6611,855
" /> 
<polyline style="fill-rule:evenodd;"
points="-5863,855
-5863,344
-5588,344
-5588,855
-5863,855
" /> 
<polyline style="fill-rule:evenodd;"
points="-7011,2705
-7011,2194
-6736,2194
-6736,2705
-7011,2705
" /> 
<polyline style="fill-rule:evenodd;"
points="-6263,2705
-6263,2194
-5988,2194
-5988,2705
-6263,2705
" /> 
<polyline style="fill-rule:evenodd;"
points="-3861,-444
-3861,-955
-3586,-955
-3586,-444
-3861,-444
" /> 
<polyline style="fill-rule:evenodd;"
points="-3113,-444
-3113,-955
-2838,-955
-2838,-444
-3113,-444
" /> 
<polyline style="fill-rule:evenodd;"
points="15310,33790
15310,33110
15990,33110
15990,33790
15310,33790
" /> 
</g>
<g style="fill:#000000; fill-opacity:1.0; 
stroke:#000000; stroke-width:680; stroke-opacity:1; 
stroke-linecap:round; stroke-linejoin:round;">
</g>
<g style="fill:#000000; fill-opacity:0.0; 
stroke:#000000; stroke-width:680; stroke-opacity:1; 
stroke-linecap:round; stroke-linejoin:round;">
<path d="M15650 34450
L15650 34450
" />
<path d="M16650 33450
L16650 33450
" />
<path d="M16650 34450
L16650 34450
" />
<path d="M17650 33450
L17650 33450
" />
<path d="M17650 34450
L17650 34450
" />
<path d="M18650 33450
L18650 33450
" />
<path d="M18650 34450
L18650 34450
" />
<path d="M19650 33450
L19650 33450
" />
<path d="M19650 34450
L19650 34450
" />
<path d="M20650 33450
L20650 33450
" />
<path d="M20650 34450
L20650 34450
" />
<path d="M21650 33450
L21650 33450
" />
<path d="M21650 34450
L21650 34450
" />
<path d="M22650 33450
L22650 33450
" />
<path d="M22650 34450
L22650 34450
" />
<path d="M23650 33450
L23650 33450
" />
<path d="M23650 34450
L23650 34450
" />
<path d="M24650 33450
L24650 33450
" />
<path d="M24650 34450
L24650 34450
" />
<path d="M25650 33450
L25650 33450
" />
<path d="M25650 34450
L25650 34450
" />
<path d="M26650 33450
L26650 33450
" />
<path d="M26650 34450
L26650 34450
" />
<path d="M27650 33450
L27650 33450
" />
<path d="M27650 34450
L27650 34450
" />
<path d="M28650 33450
L28650 33450
" />
<path d="M28650 34450
L28650 34450
" />
<path d="M29650 33450
L29650 33450
" />
<path d="M29650 34450
L29650 34450
" />
<path d="M30650 33450
L30650 33450
" />
<path d="M30650 34450
L30650 34450
" />
<path d="M31650 33450
L31650 33450
" />
<path d="M31650 34450
L31650 34450
" />
<path d="M32650 33450
L32650 33450
" />
<path d="M32650 34450
L32650 34450
" />
<path d="M33650 33450
L33650 33450
" />
<path d="M33650 34450
L33650 34450
" />
<path d="M34650 33450
L34650 33450
" />
<path d="M34650 34450
L34650 34450
" />
</g>
<g style="fill:#000000; fill-opacity:0.0; 
stroke:#000000; stroke-width:0; stroke-opacity:1; 
stroke-linecap:round; stroke-linejoin:round;">
</g>
<g style="fill:#000000; fill-opacity:1.0; 
stroke:#000000; stroke-width:0; stroke-opacity:1; 
stroke-linecap:round; stroke-linejoin:round;">
<polyline style="fill-rule:evenodd;"
points="20860,22590
20860,21910
21540,21910
21540,22590
20860,22590
" /> 
</g>
<g style="fill:#000000; fill-opacity:1.0; 
stroke:#000000; stroke-width:680; stroke-opacity:1; 
stroke-linecap:round; stroke-linejoin:round;">
</g>
<g style="fill:#000000; fill-opacity:0.0; 
stroke:#000000; stroke-width:680; stroke-opacity:1; 
stroke-linecap:round; stroke-linejoin:round;">
<path d="M21200 23250
L21200 23250
" />
<path d="M22200 22250
L22200 22250
" />
<path d="M22200 23250
L22200 23250
" />
<path d="M23200 22250
L23200 22250
" />
<path d="M23200 23250
L23200 23250
" />
<path d="M24200 22250
L24200 22250
" />
<path d="M24200 23250
L24200 23250
" />
<path d="M25200 22250
L25200 22250
" />
<path d="M25200 23250
L25200 23250
" />
<path d="M26200 22250
L26200 22250
" />
<path d="M26200 23250
L26200 23250
" />
<path d="M27200 22250
L27200 22250
" />
<path d="M27200 23250
L27200 23250
" />
<path d="M28200 22250
L28200 22250
" />
<path d="M28200 23250
L28200 23250
" />
<path d="M29200 22250
L29200 22250
" />
<path d="M29200 23250
L29200 23250
" />
<path d="M30200 22250
L30200 22250
" />
<path d="M30200 23250
L30200 23250
" />
<path d="M31200 22250
L31200 22250
" />
<path d="M31200 23250
L31200 23250
" />
<path d="M32200 22250
L32200 22250
" />
<path d="M32200 23250
L32200 23250
" />
<path d="M33200 22250
L33200 22250
" />
<path d="M33200 23250
L33200 23250
" />
<path d="M34200 22250
L34200 22250
" />
<path d="M34200 23250
L34200 23250
" />
<path d="M35200 22250
L35200 22250
" />
<path d="M35200 23250
L35200 23250
" />
<path d="M36200 22250
L36200 22250
" />
<path d="M36200 23250
L36200 23250
" />
<path d="M37200 22250
L37200 22250
" />
<path d="M37200 23250
L37200 23250
" />
<path d="M38200 22250
L38200 22250
" />
<path d="M38200 23250
L38200 23250
" />
<path d="M39200 22250
L39200 22250
" />
<path d="M39200 23250
L39200 23250
" />
<path d="M40200 22250
L40200 22250
" />
<path d="M40200 23250
L40200 23250
" />
</g>
<g style="fill:#000000; fill-opacity:0.0; 
stroke:#000000; stroke-width:0; stroke-opacity:1; 
stroke-linecap:round; stroke-linejoin:round;">
</g>
<g style="fill:#000000; fill-opacity:1.0; 
stroke:#000000; stroke-width:0; stroke-opacity:1; 
stroke-linecap:round; stroke-linejoin:round;">
<polyline style="fill-rule:evenodd;"
points="18293,11343
18706,11343
18706,11756
18293,11756
18293,11343
" /> 
<circle cx="19000" cy="11550" r="206.693" /> 
</g>
<g style="fill:#000000; fill-opacity:1.0; 
stroke:#000000; stroke-width:59.0551; stroke-opacity:1; 
stroke-linecap:round; stroke-linejoin:round;">
</g>
<g style="fill:#000000; fill-opacity:1.0; 
stroke:#000000; stroke-width:0; stroke-opacity:1; 
stroke-linecap:round; stroke-linejoin:round;">
<circle cx="19500" cy="11550" r="206.693" /> 
</g>
<g style="fill:#000000; fill-opacity:1.0; 
stroke:#000000; stroke-width:59.0551; stroke-opacity:1; 
stroke-linecap:round; stroke-linejoin:round;">
</g>
<g style="fill:#000000; fill-opacity:1.0; 
stroke:#000000; stroke-width:0; stroke-opacity:1; 
stroke-linecap:round; stroke-linejoin:round;">
<circle cx="20000" cy="11550" r="206.693" /> 
</g>
<g style="fill:#000000; fill-opacity:1.0; 
stroke:#000000; stroke-width:59.0551; stroke-opacity:1; 
stroke-linecap:round; stroke-linejoin:round;">
</g>
<g style="fill:#000000; fill-opacity:1.0; 
stroke:#000000; stroke-width:0; stroke-opacity:1; 
stroke-linecap:round; stroke-linejoin:round;">
<circle cx="20500" cy="11550" r="206.693" /> 
</g>
<g style="fill:#000000; fill-opacity:1.0; 
stroke:#000000; stroke-width:59.0551; stroke-opacity:1; 
stroke-linecap:round; stroke-linejoin:round;">
</g>
<g style="fill:#000000; fill-opacity:1.0; 
stroke:#000000; stroke-width:0; stroke-opacity:1; 
stroke-linecap:round; stroke-linejoin:round;">
<circle cx="19000" cy="12050" r="206.693" /> 
</g>
<g style="fill:#000000; fill-opacity:1.0; 
stroke:#000000; stroke-width:59.0551; stroke-opacity:1; 
stroke-linecap:round; stroke-linejoin:round;">
</g>
<g style="fill:#000000; fill-opacity:1.0; 
stroke:#000000; stroke-width:0; stroke-opacity:1; 
stroke-linecap:round; stroke-linejoin:round;">
<circle cx="19500" cy="12050" r="206.693" /> 
</g>
<g style="fill:#000000; fill-opacity:1.0; 
stroke:#000000; stroke-width:59.0551; stroke-opacity:1; 
stroke-linecap:round; stroke-linejoin:round;">
</g>
<g style="fill:#000000; fill-opacity:1.0; 
stroke:#000000; stroke-width:0; stroke-opacity:1; 
stroke-linecap:round; stroke-linejoin:round;">
<circle cx="20000" cy="12050" r="206.693" /> 
</g>
<g style="fill:#000000; fill-opacity:1.0; 
stroke:#000000; stroke-width:59.0551; stroke-opacity:1; 
stroke-linecap:round; stroke-linejoin:round;">
</g>
<g style="fill:#000000; fill-opacity:1.0; 
stroke:#000000; stroke-width:0; stroke-opacity:1; 
stroke-linecap:round; stroke-linejoin:round;">
<circle cx="20500" cy="12050" r="206.693" /> 
</g>
<g style="fill:#000000; fill-opacity:1.0; 
stroke:#000000; stroke-width:59.0551; stroke-opacity:1; 
stroke-linecap:round; stroke-linejoin:round;">
</g>
<g style="fill:#000000; fill-opacity:1.0; 
stroke:#000000; stroke-width:0; stroke-opacity:1; 
stroke-linecap:round; stroke-linejoin:round;">
<circle cx="18500" cy="12050" r="206.693" /> 
</g>
<g style="fill:#000000; fill-opacity:1.0; 
stroke:#000000; stroke-width:59.0551; stroke-opacity:1; 
stroke-linecap:round; stroke-linejoin:round;">
</g>
<g style="fill:#000000; fill-opacity:1.0; 
stroke:#000000; stroke-width:0; stroke-opacity:1; 
stroke-linecap:round; stroke-linejoin:round;">
<polyline style="fill-rule:evenodd;"
points="7890,14503
7890,14996
7496,14996
7496,14503
7890,14503
" /> 
<polyline style="fill-rule:evenodd;"
points="7103,14503
7103,14996
6709,14996
6709,14503
7103,14503
" /> 
<polyline style="fill-rule:evenodd;"
points="7890,11653
7890,12146
7496,12146
7496,11653
7890,11653
" /> 
<polyline style="fill-rule:evenodd;"
points="7103,11653
7103,12146
6709,12146
6709,11653
7103,11653
" /> 
<polyline style="fill-rule:evenodd;"
points="6486,14324
6014,14324
6014,13694
6486,13694
6486,14324
" /> 
<polyline style="fill-rule:evenodd;"
points="6486,12906
6014,12906
6014,12276
6486,12276
6486,12906
" /> 
<polyline style="fill-rule:evenodd;"
points="8586,14324
8114,14324
8114,13694
8586,13694
8586,14324
" /> 
<polyline style="fill-rule:evenodd;"
points="8586,12906
8114,12906
8114,12276
8586,12276
8586,12906
" /> 
</g>
<g style="fill:#000000; fill-opacity:1.0; 
stroke:#000000; stroke-width:593; stroke-opacity:1; 
stroke-linecap:round; stroke-linejoin:round;">
</g>
<g style="fill:#000000; fill-opacity:0.0; 
stroke:#000000; stroke-width:593; stroke-opacity:1; 
stroke-linecap:round; stroke-linejoin:round;">
<path d="M5840 9803
L5840 10397
" />
<path d="M6840 9803
L6840 10397
" />
<path d="M7840 9803
L7840 10397
" />
<path d="M8840 9803
L8840 10397
" />
</g>
<g style="fill:#000000; fill-opacity:0.0; 
stroke:#000000; stroke-width:0; stroke-opacity:1; 
stroke-linecap:round; stroke-linejoin:round;">
</g>
<g style="fill:#000000; fill-opacity:1.0; 
stroke:#000000; stroke-width:0; stroke-opacity:1; 
stroke-linecap:round; stroke-linejoin:round;">
<polyline style="fill-rule:evenodd;"
points="7962,20696
7962,20203
8553,20203
8553,20696
7962,20696
" /> 
<polyline style="fill-rule:evenodd;"
points="8946,20696
8946,20203
9537,20203
9537,20696
8946,20696
" /> 
<polyline style="fill-rule:evenodd;"
points="7287,17403
7287,17896
6696,17896
6696,17403
7287,17403
" /> 
<polyline style="fill-rule:evenodd;"
points="6303,17403
6303,17896
5712,17896
5712,17403
6303,17403
" /> 
<polyline style="fill-rule:evenodd;"
points="11653,19612
12146,19612
12146,20203
11653,20203
11653,19612
" /> 
<polyline style="fill-rule:evenodd;"
points="11653,20596
12146,20596
12146,21187
11653,21187
11653,20596
" /> 
<polyline style="fill-rule:evenodd;"
points="6303,15985
6303,16615
5279,16615
5279,15985
6303,15985
" /> 
<polyline style="fill-rule:evenodd;"
points="7721,15985
7721,16615
6697,16615
6697,15985
7721,15985
" /> 
<polyline style="fill-rule:evenodd;"
points="-590,246
-590,-246
-196,-246
-196,246
-590,246
" /> 
<polyline style="fill-rule:evenodd;"
points="196,246
196,-246
590,-246
590,246
196,246
" /> 
<circle cx="32700" cy="14800" r="175" /> 
</g>
<g style="fill:#000000; fill-opacity:1.0; 
stroke:#000000; stroke-width:59.0551; stroke-opacity:1; 
stroke-linecap:round; stroke-linejoin:round;">
</g>
<g style="fill:#000000; fill-opacity:1.0; 
stroke:#000000; stroke-width:100; stroke-opacity:1; 
stroke-linecap:round; stroke-linejoin:round;">
</g>
<g style="fill:#000000; fill-opacity:0.0; 
stroke:#000000; stroke-width:100; stroke-opacity:1; 
stroke-linecap:round; stroke-linejoin:round;">
<path d="M22750 24250
L22750 24125
" />
<path d="M22750 24250
L22750 24225
" />
<path d="M22750 24250
L23000 24250
" />
<path d="M23750 24250
L23750 24200
" />
<path d="M14950 34250
L15000 34250
" />
<path d="M16950 33250
L16950 32950
" />
<path d="M22750 23075
L22750 23250
" />
<path d="M29842 29250
L29750 29250
" />
<path d="M28857 30100
L28750 30100
" />
<path d="M29842 29250
L29950 29250
" />
<path d="M36642 29150
L36450 29150
" />
<path d="M35607 28300
L35657 28250
" />
</g>
<g style="fill:#000000; fill-opacity:0.0; 
stroke:#000000; stroke-width:500; stroke-opacity:1; 
stroke-linecap:round; stroke-linejoin:round;">
<path d="M13000 19791
L12016 19791
" />
<path d="M12016 19791
L12007 19800
" />
<path d="M12007 19800
L11300 19800
" />
<path d="M11300 19800
L11150 19950
" />
<path d="M11150 19950
L10000 19950
" />
<path d="M10300 22250
L10300 20250
" />
<path d="M10000 19950
L10000 18850
" />
<path d="M10300 20250
L10000 19950
" />
<path d="M9850 22250
L10300 22250
" />
<path d="M10300 22250
L10850 22250
" />
</g>
<g style="fill:#000000; fill-opacity:0.0; 
stroke:#000000; stroke-width:100; stroke-opacity:1; 
stroke-linecap:round; stroke-linejoin:round;">
<path d="M15950 33250
L15950 33050
" />
</g>
<g style="fill:#000000; fill-opacity:0.0; 
stroke:#000000; stroke-width:500; stroke-opacity:1; 
stroke-linecap:round; stroke-linejoin:round;">
<path d="M8257 22200
L8800 22200
" />
<path d="M8800 22200
L8850 22250
" />
<path d="M8257 20450
L8257 22200
" />
<path d="M8257 22200
L8257 22207
" />
<path d="M8215 22250
L7850 22250
" />
<path d="M8257 22207
L8215 22250
" />
<path d="M9242 20450
L9242 18892
" />
</g>
<g style="fill:#000000; fill-opacity:0.0; 
stroke:#000000; stroke-width:200; stroke-opacity:1; 
stroke-linecap:round; stroke-linejoin:round;">
<path d="M8600 18750
L7774 18750
" />
<path d="M7774 18750
L7674 18650
" />
<path d="M7674 18724
L7674 18650
" />
</g>
<g style="fill:#000000; fill-opacity:0.0; 
stroke:#000000; stroke-width:500; stroke-opacity:1; 
stroke-linecap:round; stroke-linejoin:round;">
<path d="M6330 11800
L6330 12511
" />
<path d="M6330 12511
L6250 12591
" />
<path d="M6330 10100
L6330 11800
" />
<path d="M6330 11800
L6330 11811
" />
<path d="M6330 11811
L6290 11851
" />
<path d="M5940 10100
L5840 10100
" />
<path d="M5840 10100
L6330 10100
" />
<path d="M6330 10100
L6840 10100
" />
<path d="M8350 11781
L8350 12591
" />
<path d="M8350 10100
L8350 11781
" />
<path d="M8350 11781
L8390 11821
" />
<path d="M7840 10100
L8350 10100
" />
<path d="M8350 10100
L8840 10100
" />
</g>
<g style="fill:#000000; fill-opacity:1.0; 
stroke:#000000; stroke-width:100; stroke-opacity:1; 
stroke-linecap:round; stroke-linejoin:round;">
<polyline style="fill-rule:evenodd;"
points="5764,13789
5826,13851
6132,13851
6132,13755
6368,13755
6368,13851
6673,13851
6736,13789
6736,13650
7100,13650
7100,14253
7067,14253
7004,14316
7004,14626
7100,14626
7100,14873
7004,14873
7004,15183
7067,15246
7100,15246
7100,15250
6300,15250
6280,15253
6264,15265
6253,15281
6250,15300
6250,15735
6098,15735
6036,15797
6036,16142
6044,16142
6044,16457
6036,16457
6036,16802
6098,16865
6250,16865
6250,17153
6218,17153
6155,17216
6155,17526
6250,17526
6250,17773
6155,17773
6155,18083
6218,18146
6250,18146
6250,18250
6253,18269
6265,18285
6281,18296
6300,18300
6556,18300
6538,18344
6538,18459
6600,18522
6857,18522
6857,18396
6994,18396
6994,18522
7063,18522
7063,18777
6994,18777
6994,19093
7057,19155
7113,19155
7205,19117
7275,19047
7297,18993
7298,18998
7353,19083
7437,19140
7536,19160
7811,19160
7904,19143
7971,19100
8187,19100
8187,19340
8205,19433
8259,19518
8343,19575
8442,19595
8757,19595
8850,19578
8854,19574
8892,19590
8958,19590
9021,19528
9021,18995
9012,18995
9012,18504
9021,18504
9021,18496
9150,18496
9150,19953
8897,19953
8805,19991
8749,20047
8735,20026
8652,19969
8553,19949
7962,19949
7869,19966
7784,20021
7727,20104
7707,20203
7707,20550
4750,20550
4750,18840
6538,18840
6538,18955
6576,19047
6646,19117
6738,19155
6794,19155
6857,19093
6857,18777
6600,18777
6538,18840
4750,18840
4750,17835
5462,17835
5462,17945
5500,18037
5570,18108
5662,18146
5797,18146
5860,18083
5860,17773
5525,17773
5462,17835
4750,17835
4750,17354
5462,17354
5462,17464
5525,17526
5860,17526
5860,17216
5797,17153
5662,17153
5570,17191
5500,17262
5462,17354
4750,17354
4750,16520
5029,16520
5029,16664
5067,16756
5137,16826
5229,16865
5483,16865
5545,16802
5545,16457
5091,16457
5029,16520
4750,16520
4750,15935
5029,15935
5029,16080
5091,16142
5545,16142
5545,15797
5483,15735
5229,15735
5137,15773
5067,15843
5029,15935
4750,15935
4750,14935
6459,14935
6459,15045
6497,15137
6567,15208
6659,15246
6745,15246
6807,15183
6807,14873
6521,14873
6459,14935
4750,14935
4750,14229
5764,14229
5764,14373
5802,14465
5872,14535
5964,14574
6069,14574
6132,14511
6132,14166
6368,14166
6368,14511
6430,14574
6468,14574
6521,14626
6807,14626
6807,14316
6745,14253
6736,14253
6736,14229
6673,14166
6368,14166
6132,14166
5826,14166
5764,14229
4750,14229
4750,13650
5764,13650
5764,13789
" /> 
<polyline style="fill-rule:evenodd;"
points="7864,13789
7926,13851
8232,13851
8232,13754
8468,13754
8468,13851
8773,13851
8836,13789
8836,13650
11450,13650
11450,17050
11090,17050
11090,16647
11027,16584
9846,16584
9846,16592
9353,16592
9353,16584
8172,16584
8109,16647
8109,17050
7800,17050
7780,17053
7764,17065
7753,17081
7750,17100
7750,17900
7537,17900
7537,17835
7474,17773
7139,17773
7139,17896
6844,17896
6844,17773
6737,17773
6737,17526
6844,17526
6844,17216
7139,17216
7139,17526
7474,17526
7537,17464
7537,17354
7499,17262
7429,17191
7337,17153
7202,17153
7139,17216
6844,17216
6781,17153
6700,17153
6700,16865
6899,16865
6962,16802
6962,16457
7455,16457
7455,16802
7518,16865
7770,16865
7862,16826
7932,16756
7971,16664
7971,16520
7908,16457
7455,16457
6962,16457
6954,16457
6954,16142
6962,16142
6962,15797
7455,15797
7455,16142
7908,16142
7971,16080
7971,15935
7932,15843
7862,15773
7770,15735
7518,15735
7455,15797
6962,15797
6899,15735
6700,15735
6700,15650
7500,15650
7519,15646
7535,15634
7546,15618
7550,15600
7550,15228
7595,15183
7595,14873
7792,14873
7792,15183
7854,15246
7940,15246
8032,15208
8102,15137
8109,15119
8109,16028
8172,16090
9353,16090
9353,14910
9846,14910
9846,16090
11027,16090
11090,16028
11090,15047
11052,14956
10981,14885
10889,14847
9909,14847
9846,14910
9353,14910
9290,14847
8310,14847
8218,14885
8147,14956
8140,14973
8140,14935
8078,14873
7792,14873
7595,14873
7550,14873
7550,14626
7595,14626
7595,14316
7792,14316
7792,14626
8078,14626
8131,14574
8169,14574
8232,14511
8232,14166
8468,14166
8468,14511
8530,14574
8635,14574
8727,14535
8797,14465
8836,14373
8836,14229
8773,14166
8468,14166
8232,14166
7926,14166
7864,14229
7864,14253
7854,14253
7792,14316
7595,14316
7550,14271
7550,13650
7864,13650
7864,13789
" /> 
</g> 
</svg>
