<?xml version="1.0" standalone="no"?>
 <!DOCTYPE svg PUBLIC "-//W3C//DTD SVG 1.1//EN" 
 "http://www.w3.org/Graphics/SVG/1.1/DTD/svg11.dtd"> 
<svg xmlns="http://www.w3.org/2000/svg" version="1.1" 
    width="17.5006cm" height="15.0012cm" viewBox="0 0 68900 59060 ">
<title>SVG Picture created as FrontAxis_Power_Pot-F.SilkS.svg date 2016/02/27 18:35:34 </title>
  <desc>Picture generated by PCBNEW </desc>
<g style="fill:#000000; fill-opacity:1;stroke:#000000; stroke-opacity:1;
stroke-linecap:round; stroke-linejoin:round; "
 transform="translate(0 0) scale(1 1)">
</g>
<g style="fill:#000000; fill-opacity:0.0; 
stroke:#000000; stroke-width:-0.000393701; stroke-opacity:1; 
stroke-linecap:round; stroke-linejoin:round;">
</g>
<g style="fill:#000000; fill-opacity:0.0; 
stroke:#000000; stroke-width:59.0551; stroke-opacity:1; 
stroke-linecap:round; stroke-linejoin:round;">
<path d="M55375 27275
L55375 26975
" />
<path d="M55525 27125
L55225 27125
" />
<path d="M54475 27225
L54475 25725
" />
<path d="M55975 27525
L54775 27525
" />
<path d="M54475 27225
L54775 27525
" />
<path d="M56275 27225
L56275 25725
" />
<path d="M56275 27225
L55975 27525
" />
<path d="M55325 25825
L55425 25825
" />
<path d="M55625 25875
L55125 25875
" />
<path d="M55025 25925
L55725 25925
" />
<path d="M54925 25975
L55825 25975
" />
<path d="M55875 26025
L54875 26025
" />
<path d="M54825 26075
L55925 26075
" />
<path d="M55975 26125
L54775 26125
" />
<path d="M56025 26175
L54725 26175
" />
<path d="M56275 25725
L54475 25725
" />
<circle cx="55375" cy="26625" r="800" /> 
<path d="M59750 32950
L59750 33250
" />
<path d="M59600 33100
L59900 33100
" />
<path d="M60650 33000
L60650 34500
" />
<path d="M59150 32700
L60350 32700
" />
<path d="M60650 33000
L60350 32700
" />
<path d="M58850 33000
L58850 34500
" />
<path d="M58850 33000
L59150 32700
" />
<path d="M59800 34400
L59700 34400
" />
<path d="M59500 34350
L60000 34350
" />
<path d="M60100 34300
L59400 34300
" />
<path d="M60200 34250
L59300 34250
" />
<path d="M59250 34200
L60250 34200
" />
<path d="M60300 34150
L59200 34150
" />
<path d="M59150 34100
L60350 34100
" />
<path d="M59100 34050
L60400 34050
" />
<path d="M58850 34500
L60650 34500
" />
<circle cx="59750" cy="33600" r="800" /> 
<path d="M13000 19850
L13000 20150
" />
<path d="M12850 20000
L13150 20000
" />
<path d="M13900 19900
L13900 21400
" />
<path d="M12400 19600
L13600 19600
" />
<path d="M13900 19900
L13600 19600
" />
<path d="M12100 19900
L12100 21400
" />
<path d="M12100 19900
L12400 19600
" />
<path d="M13050 21300
L12950 21300
" />
<path d="M12750 21250
L13250 21250
" />
<path d="M13350 21200
L12650 21200
" />
<path d="M13450 21150
L12550 21150
" />
<path d="M12500 21100
L13500 21100
" />
<path d="M13550 21050
L12450 21050
" />
<path d="M12400 21000
L13600 21000
" />
<path d="M12350 20950
L13650 20950
" />
<path d="M12100 21400
L13900 21400
" />
<circle cx="13000" cy="20500" r="800" /> 
<path d="M22659 16996
L22659 16603
" />
<path d="M21990 16603
L21990 16996
" />
<path d="M37250 7600
L37250 5100
" />
<path d="M34250 7600
L34250 5100
" />
<path d="M34250 6850
L37250 6850
" />
<path d="M37250 7600
L34250 7600
" />
<path d="M34250 5100
L37250 5100
" />
<path d="M33600 7600
L33600 5100
" />
<path d="M30600 7600
L30600 5100
" />
<path d="M30600 6850
L33600 6850
" />
<path d="M33600 7600
L30600 7600
" />
<path d="M30600 5100
L33600 5100
" />
<path d="M8350 23500
L11350 23500
" />
<path d="M8350 21750
L11350 21750
" />
<path d="M8350 21000
L11350 21000
" />
<path d="M5350 21000
L5350 23500
" />
<path d="M11350 21000
L11350 23500
" />
<path d="M8350 21750
L5350 21750
" />
<path d="M5350 21000
L8350 21000
" />
<path d="M8350 23500
L5350 23500
" />
</g>
<g style="fill:#000000; fill-opacity:0.0; 
stroke:#000000; stroke-width:80; stroke-opacity:1; 
stroke-linecap:round; stroke-linejoin:round;">
<path d="M22100 11011
L21988 10899
" />
<path d="M21988 10899
L21599 11288
" />
<path d="M21599 11288
L21711 11400
" />
<path d="M21572 11539
L21460 11427
" />
<path d="M21460 11427
L21349 11538
" />
<path d="M21349 11538
L21461 11650
" />
<path d="M22350 10761
L22238 10649
" />
<path d="M22238 10649
L22127 10760
" />
<path d="M22127 10760
L22239 10872
" />
<path d="M22600 10565
L21265 11900
" />
<path d="M22712 10899
L21599 12012
" />
</g>
<g style="fill:#000000; fill-opacity:0.0; 
stroke:#000000; stroke-width:40; stroke-opacity:1; 
stroke-linecap:round; stroke-linejoin:round;">
<path d="M24983 13393
L24899 13310
" />
<path d="M24899 13310
L24816 13226
" />
<path d="M24538 13838
L24454 13754
" />
<path d="M24454 13754
L24371 13671
" />
<path d="M24454 13754
L24454 13588
" />
<path d="M24899 13310
L24732 13310
" />
<path d="M24816 13337
L24816 13393
" />
<path d="M24899 13477
L24816 13393
" />
<path d="M24816 13393
L24538 13671
" />
<path d="M24538 13671
L24621 13754
" />
<path d="M24482 13672
L24538 13671
" />
</g>
<g style="fill:#000000; fill-opacity:0.0; 
stroke:#000000; stroke-width:80; stroke-opacity:1; 
stroke-linecap:round; stroke-linejoin:round;">
<path d="M24399 14088
L24511 14200
" />
<path d="M24511 14200
L24900 13811
" />
<path d="M24900 13811
L24788 13699
" />
<path d="M24927 13560
L25039 13672
" />
<path d="M25039 13672
L25150 13561
" />
<path d="M25150 13561
L25038 13449
" />
<path d="M24149 14338
L24261 14450
" />
<path d="M24261 14450
L24372 14339
" />
<path d="M24372 14339
L24260 14227
" />
<path d="M23899 14534
L25234 13199
" />
<path d="M24900 13087
L22712 10899
" />
<path d="M25234 13199
L22600 10565
" />
<path d="M23899 14534
L21265 11900
" />
<path d="M23787 14200
L24900 13087
" />
<path d="M23787 14200
L21599 12012
" />
</g>
<g style="fill:#000000; fill-opacity:0.0; 
stroke:#000000; stroke-width:59.0551; stroke-opacity:1; 
stroke-linecap:round; stroke-linejoin:round;">
<path d="M28050 6850
L30050 6850
" />
<path d="M28050 5100
L30050 5100
" />
<path d="M30050 7600
L28050 7600
" />
<path d="M30050 7600
L30050 5100
" />
<path d="M28050 7600
L28050 5100
" />
<path d="M8900 18100
L8900 19400
" />
<path d="M8900 19400
L9300 19400
" />
<path d="M9300 19400
L9300 18100
" />
<path d="M8400 18100
L8400 19400
" />
<path d="M8400 19400
L8800 19400
" />
<path d="M8800 19400
L8800 18100
" />
<path d="M9900 18100
L9900 19400
" />
<path d="M9900 19400
L10300 19400
" />
<path d="M10300 19400
L10300 18100
" />
<path d="M10300 18100
L10400 18100
" />
<path d="M10400 18100
L10400 19400
" />
<path d="M10400 19400
L10800 19400
" />
<path d="M10800 19400
L10800 18100
" />
<path d="M10950 15700
L10950 18100
" />
<path d="M10950 18100
L8250 18100
" />
<path d="M8250 18100
L8250 15000
" />
<path d="M8250 14950
L10950 14950
" />
<path d="M10950 15000
L10950 15700
" />
<path d="M44984 23246
L44984 22853
" />
<path d="M44315 22853
L44315 23246
" />
<path d="M44096 32190
L43703 32190
" />
<path d="M43703 32859
L44096 32859
" />
<path d="M-953 8265
L-1346 8265
" />
<path d="M-1346 8934
L-953 8934
" />
<path d="M5496 -5334
L5103 -5334
" />
<path d="M5103 -4665
L5496 -4665
" />
<path d="M-1853 3415
L-2246 3415
" />
<path d="M-2246 4084
L-1853 4084
" />
<path d="M-1553 565
L-1946 565
" />
<path d="M-1946 1234
L-1553 1234
" />
<path d="M-1553 -684
L-1946 -684
" />
<path d="M-1946 -15
L-1553 -15
" />
<path d="M-13203 1815
L-13596 1815
" />
<path d="M-13596 2484
L-13203 2484
" />
<path d="M-16953 -884
L-17346 -884
" />
<path d="M-17346 -215
L-16953 -215
" />
<path d="M-7953 -6834
L-8346 -6834
" />
<path d="M-8346 -6165
L-7953 -6165
" />
<path d="M7063 18305
L7536 18305
" />
<path d="M7536 18994
L7063 18994
" />
<path d="M586 1994
L113 1994
" />
<path d="M113 1305
L586 1305
" />
<path d="M2286 1944
L1813 1944
" />
<path d="M1813 1255
L2286 1255
" />
<path d="M1686 -1655
L1213 -1655
" />
<path d="M1213 -2344
L1686 -2344
" />
<path d="M2136 644
L1663 644
" />
<path d="M1663 -44
L2136 -44
" />
<path d="M-913 7794
L-1386 7794
" />
<path d="M-1386 7105
L-913 7105
" />
<path d="M3736 1194
L3263 1194
" />
<path d="M3263 505
L3736 505
" />
<path d="M2736 -405
L2263 -405
" />
<path d="M2263 -1094
L2736 -1094
" />
<path d="M-4663 -1905
L-5136 -1905
" />
<path d="M-5136 -2594
L-4663 -2594
" />
<path d="M-5713 -405
L-6186 -405
" />
<path d="M-6186 -1094
L-5713 -1094
" />
<path d="M-5863 944
L-6336 944
" />
<path d="M-6336 255
L-5863 255
" />
<path d="M-6263 2794
L-6736 2794
" />
<path d="M-6736 2105
L-6263 2105
" />
<path d="M-3113 -355
L-3586 -355
" />
<path d="M-3586 -1044
L-3113 -1044
" />
<path d="M7103 15084
L7496 15084
" />
<path d="M7496 14415
L7103 14415
" />
<path d="M7103 12234
L7496 12234
" />
<path d="M7496 11565
L7103 11565
" />
<path d="M6565 13517
L6565 13103
" />
<path d="M5935 13083
L5935 13497
" />
<path d="M8665 13517
L8665 13103
" />
<path d="M8035 13083
L8035 13497
" />
<path d="M7340 11350
L5140 11350
" />
<path d="M5140 8850
L7340 8850
" />
<path d="M7340 9600
L5140 9600
" />
<path d="M7340 11350
L9540 11350
" />
<path d="M7340 9600
L9540 9600
" />
<path d="M7340 8850
L9540 8850
" />
<path d="M5140 8850
L5140 11350
" />
<path d="M9540 8850
L9540 11350
" />
<path d="M8946 20115
L8553 20115
" />
<path d="M8553 20784
L8946 20784
" />
<path d="M6303 17984
L6696 17984
" />
<path d="M6696 17315
L6303 17315
" />
<path d="M12234 20596
L12234 20203
" />
<path d="M11565 20203
L11565 20596
" />
<path d="M5850 16300
L6150 16300
" />
<path d="M6000 16450
L6000 16150
" />
<path d="M5900 15400
L7400 15400
" />
<path d="M5600 16900
L5600 15700
" />
<path d="M5900 15400
L5600 15700
" />
<path d="M5900 17200
L7400 17200
" />
<path d="M5900 17200
L5600 16900
" />
<path d="M7300 16250
L7300 16350
" />
<path d="M7250 16550
L7250 16050
" />
<path d="M7200 15950
L7200 16650
" />
<path d="M7150 15850
L7150 16750
" />
<path d="M7100 16800
L7100 15800
" />
<path d="M7050 15750
L7050 16850
" />
<path d="M7000 16900
L7000 15700
" />
<path d="M6950 16950
L6950 15650
" />
<path d="M7400 17200
L7400 15400
" />
<circle cx="6500" cy="16300" r="800" /> 
<path d="M196 -334
L-196 -334
" />
<path d="M-196 334
L196 334
" />
<path d="M56765 26878
L56784 26896
L56803 26953
L56803 26990
L56784 27046
L56746 27084
L56709 27103
L56634 27121
L56578 27121
L56503 27103
L56465 27084
L56428 27046
L56409 26990
L56409 26953
L56428 26896
L56446 26878
" />
<path d="M56803 26503
L56803 26728
" />
<path d="M56803 26615
L56409 26615
L56465 26653
L56503 26690
L56521 26728
" />
<path d="M56803 26128
L56803 26353
" />
<path d="M56803 26240
L56409 26240
L56465 26278
L56503 26315
L56521 26353
" />
<path d="M58640 33853
L58659 33871
L58678 33928
L58678 33965
L58659 34021
L58621 34059
L58584 34078
L58509 34096
L58453 34096
L58378 34078
L58340 34059
L58303 34021
L58284 33965
L58284 33928
L58303 33871
L58321 33853
" />
<path d="M58678 33478
L58678 33703
" />
<path d="M58678 33590
L58284 33590
L58340 33628
L58378 33665
L58396 33703
" />
<path d="M58284 33346
L58284 33103
L58434 33234
L58434 33178
L58453 33140
L58471 33121
L58509 33103
L58603 33103
L58640 33121
L58659 33140
L58678 33178
L58678 33290
L58659 33328
L58640 33346
" />
<path d="M11890 20753
L11909 20771
L11928 20828
L11928 20865
L11909 20921
L11871 20959
L11834 20978
L11759 20996
L11703 20996
L11628 20978
L11590 20959
L11553 20921
L11534 20865
L11534 20828
L11553 20771
L11571 20753
" />
<path d="M11928 20378
L11928 20603
" />
<path d="M11928 20490
L11534 20490
L11590 20528
L11628 20565
L11646 20603
" />
<path d="M11928 20190
L11928 20115
L11909 20078
L11890 20059
L11834 20021
L11759 20003
L11609 20003
L11571 20021
L11553 20040
L11534 20078
L11534 20153
L11553 20190
L11571 20209
L11609 20228
L11703 20228
L11740 20209
L11759 20190
L11778 20153
L11778 20078
L11759 20040
L11740 20021
L11703 20003
" />
<path d="M23292 17053
L23311 17071
L23329 17128
L23329 17165
L23311 17221
L23273 17259
L23236 17278
L23161 17296
L23104 17296
L23029 17278
L22992 17259
L22954 17221
L22936 17165
L22936 17128
L22954 17071
L22973 17053
" />
<path d="M22973 16903
L22954 16884
L22936 16846
L22936 16753
L22954 16715
L22973 16696
L23011 16678
L23048 16678
L23104 16696
L23329 16921
L23329 16678
" />
<path d="M22936 16434
L22936 16396
L22954 16359
L22973 16340
L23011 16321
L23086 16303
L23179 16303
L23254 16321
L23292 16340
L23311 16359
L23329 16396
L23329 16434
L23311 16471
L23292 16490
L23254 16509
L23179 16528
L23086 16528
L23011 16509
L22973 16490
L22954 16471
L22936 16434
" />
<path d="M35439 8024
L35439 7630
" />
<path d="M35664 8024
L35495 7799
" />
<path d="M35664 7630
L35439 7855
" />
<path d="M35795 7630
L36039 7630
L35908 7780
L35964 7780
L36002 7799
L36020 7817
L36039 7855
L36039 7949
L36020 7986
L36002 8005
L35964 8024
L35852 8024
L35814 8005
L35795 7986
" />
<path d="M31789 8024
L31789 7630
" />
<path d="M32014 8024
L31845 7799
" />
<path d="M32014 7630
L31789 7855
" />
<path d="M32352 7761
L32352 8024
" />
<path d="M32258 7611
L32164 7892
L32408 7892
" />
<path d="M8059 20951
L8059 20558
L8209 20558
L8246 20576
L8265 20595
L8284 20633
L8284 20689
L8265 20726
L8246 20745
L8209 20764
L8059 20764
" />
<path d="M8415 20558
L8659 20558
L8528 20708
L8584 20708
L8621 20726
L8640 20745
L8659 20782
L8659 20876
L8640 20914
L8621 20932
L8584 20951
L8471 20951
L8434 20932
L8415 20914
" />
<path d="M28759 8063
L28759 7669
L28909 7669
L28946 7688
L28965 7707
L28984 7744
L28984 7801
L28965 7838
L28946 7857
L28909 7876
L28759 7876
" />
<path d="M29340 7669
L29153 7669
L29134 7857
L29153 7838
L29190 7819
L29284 7819
L29321 7838
L29340 7857
L29359 7894
L29359 7988
L29340 8026
L29321 8044
L29284 8063
L29190 8063
L29153 8044
L29134 8026
" />
<path d="M9300 14384
L9300 14703
L9318 14740
L9337 14759
L9375 14778
L9450 14778
L9487 14759
L9506 14740
L9525 14703
L9525 14384
" />
<path d="M9918 14778
L9693 14778
" />
<path d="M9806 14778
L9806 14384
L9768 14440
L9731 14478
L9693 14496
" />
</g>
<g style="fill:#000000; fill-opacity:0.0; 
stroke:#000000; stroke-width:35; stroke-opacity:1; 
stroke-linecap:round; stroke-linejoin:round;">
<path d="M23994 14151
L23994 14555
L24017 14603
L24041 14627
L24089 14651
L24184 14651
L24232 14627
L24255 14603
L24279 14555
L24279 14151
" />
<path d="M24494 14198
L24517 14175
L24565 14151
L24684 14151
L24732 14175
L24755 14198
L24779 14246
L24779 14294
L24755 14365
L24470 14651
L24779 14651
" />
<path d="M20470 17353
L20446 17377
L20375 17401
L20327 17401
L20255 17377
L20208 17329
L20184 17282
L20160 17186
L20160 17115
L20184 17020
L20208 16972
L20255 16925
L20327 16901
L20375 16901
L20446 16925
L20470 16948
" />
<path d="M20970 17401
L20803 17163
" />
<path d="M20684 17401
L20684 16901
L20875 16901
L20922 16925
L20946 16948
L20970 16996
L20970 17067
L20946 17115
L20922 17139
L20875 17163
L20684 17163
" />
<path d="M21279 17163
L21279 17401
" />
<path d="M21113 16901
L21279 17163
L21446 16901
" />
<path d="M21589 17377
L21660 17401
L21779 17401
L21827 17377
L21851 17353
L21875 17305
L21875 17258
L21851 17210
L21827 17186
L21779 17163
L21684 17139
L21636 17115
L21613 17091
L21589 17044
L21589 16996
L21613 16948
L21636 16925
L21684 16901
L21803 16901
L21875 16925
" />
<path d="M22017 16901
L22303 16901
" />
<path d="M22160 17401
L22160 16901
" />
<path d="M22446 17258
L22684 17258
" />
<path d="M22398 17401
L22565 16901
L22732 17401
" />
<path d="M23136 17401
L22898 17401
L22898 16901
" />
<path d="M23184 17448
L23565 17448
" />
<path d="M23660 17377
L23732 17401
L23851 17401
L23898 17377
L23922 17353
L23946 17305
L23946 17258
L23922 17210
L23898 17186
L23851 17163
L23755 17139
L23708 17115
L23684 17091
L23660 17044
L23660 16996
L23684 16948
L23708 16925
L23755 16901
L23874 16901
L23946 16925
" />
<path d="M24160 17401
L24160 16901
L24327 17258
L24494 16901
L24494 17401
" />
<path d="M24732 17401
L24732 16901
L24851 16901
L24922 16925
L24970 16972
L24994 17020
L25017 17115
L25017 17186
L24994 17282
L24970 17329
L24922 17377
L24851 17401
L24732 17401
" />
<path d="M25113 17448
L25494 17448
" />
<path d="M25898 17353
L25875 17377
L25803 17401
L25755 17401
L25684 17377
L25636 17329
L25613 17282
L25589 17186
L25589 17115
L25613 17020
L25636 16972
L25684 16925
L25755 16901
L25803 16901
L25875 16925
L25898 16948
" />
<path d="M26113 17139
L26279 17139
" />
<path d="M26351 17401
L26113 17401
L26113 16901
L26351 16901
" />
<path d="M26851 17401
L26684 17163
" />
<path d="M26565 17401
L26565 16901
L26755 16901
L26803 16925
L26827 16948
L26851 16996
L26851 17067
L26827 17115
L26803 17139
L26755 17163
L26565 17163
" />
<path d="M27041 17258
L27279 17258
" />
<path d="M26994 17401
L27160 16901
L27327 17401
" />
<path d="M27494 17401
L27494 16901
L27660 17258
L27827 16901
L27827 17401
" />
<path d="M28065 17401
L28065 16901
" />
<path d="M28589 17353
L28565 17377
L28494 17401
L28446 17401
L28375 17377
L28327 17329
L28303 17282
L28279 17186
L28279 17115
L28303 17020
L28327 16972
L28375 16925
L28446 16901
L28494 16901
L28565 16925
L28589 16948
" />
<path d="M19069 9326
L19069 9730
L19092 9778
L19116 9802
L19164 9826
L19259 9826
L19307 9802
L19330 9778
L19354 9730
L19354 9326
" />
<path d="M19664 9540
L19616 9516
L19592 9492
L19569 9445
L19569 9421
L19592 9373
L19616 9350
L19664 9326
L19759 9326
L19807 9350
L19830 9373
L19854 9421
L19854 9445
L19830 9492
L19807 9516
L19759 9540
L19664 9540
L19616 9564
L19592 9588
L19569 9635
L19569 9730
L19592 9778
L19616 9802
L19664 9826
L19759 9826
L19807 9802
L19830 9778
L19854 9730
L19854 9635
L19830 9588
L19807 9564
L19759 9540
" />
<path d="M15545 7028
L15521 7052
L15450 7076
L15402 7076
L15330 7052
L15283 7004
L15259 6957
L15235 6861
L15235 6790
L15259 6695
L15283 6647
L15330 6600
L15402 6576
L15450 6576
L15521 6600
L15545 6623
" />
<path d="M16045 7076
L15878 6838
" />
<path d="M15759 7076
L15759 6576
L15950 6576
L15997 6600
L16021 6623
L16045 6671
L16045 6742
L16021 6790
L15997 6814
L15950 6838
L15759 6838
" />
<path d="M16354 6838
L16354 7076
" />
<path d="M16188 6576
L16354 6838
L16521 6576
" />
<path d="M16664 7052
L16735 7076
L16854 7076
L16902 7052
L16926 7028
L16950 6980
L16950 6933
L16926 6885
L16902 6861
L16854 6838
L16759 6814
L16711 6790
L16688 6766
L16664 6719
L16664 6671
L16688 6623
L16711 6600
L16759 6576
L16878 6576
L16950 6600
" />
<path d="M17092 6576
L17378 6576
" />
<path d="M17235 7076
L17235 6576
" />
<path d="M17521 6933
L17759 6933
" />
<path d="M17473 7076
L17640 6576
L17807 7076
" />
<path d="M18211 7076
L17973 7076
L17973 6576
" />
<path d="M18259 7123
L18640 7123
" />
<path d="M18735 7052
L18807 7076
L18926 7076
L18973 7052
L18997 7028
L19021 6980
L19021 6933
L18997 6885
L18973 6861
L18926 6838
L18830 6814
L18783 6790
L18759 6766
L18735 6719
L18735 6671
L18759 6623
L18783 6600
L18830 6576
L18949 6576
L19021 6600
" />
<path d="M19235 7076
L19235 6576
L19402 6933
L19569 6576
L19569 7076
" />
<path d="M19807 7076
L19807 6576
L19926 6576
L19997 6600
L20045 6647
L20069 6695
L20092 6790
L20092 6861
L20069 6957
L20045 7004
L19997 7052
L19926 7076
L19807 7076
" />
<path d="M20188 7123
L20569 7123
" />
<path d="M20973 7028
L20950 7052
L20878 7076
L20830 7076
L20759 7052
L20711 7004
L20688 6957
L20664 6861
L20664 6790
L20688 6695
L20711 6647
L20759 6600
L20830 6576
L20878 6576
L20950 6600
L20973 6623
" />
<path d="M21188 6814
L21354 6814
" />
<path d="M21426 7076
L21188 7076
L21188 6576
L21426 6576
" />
<path d="M21926 7076
L21759 6838
" />
<path d="M21640 7076
L21640 6576
L21830 6576
L21878 6600
L21902 6623
L21926 6671
L21926 6742
L21902 6790
L21878 6814
L21830 6838
L21640 6838
" />
<path d="M22116 6933
L22354 6933
" />
<path d="M22069 7076
L22235 6576
L22402 7076
" />
<path d="M22569 7076
L22569 6576
L22735 6933
L22902 6576
L22902 7076
" />
<path d="M23140 7076
L23140 6576
" />
<path d="M23664 7028
L23640 7052
L23569 7076
L23521 7076
L23450 7052
L23402 7004
L23378 6957
L23354 6861
L23354 6790
L23378 6695
L23402 6647
L23450 6600
L23521 6576
L23569 6576
L23640 6600
L23664 6623
" />
</g>
<g style="fill:#000000; fill-opacity:0.0; 
stroke:#000000; stroke-width:59.0551; stroke-opacity:1; 
stroke-linecap:round; stroke-linejoin:round;">
<path d="M6909 7378
L6909 6984
L7059 6984
L7096 7003
L7115 7021
L7134 7059
L7134 7115
L7115 7153
L7096 7171
L7059 7190
L6909 7190
" />
<path d="M7359 7153
L7321 7134
L7303 7115
L7284 7078
L7284 7059
L7303 7021
L7321 7003
L7359 6984
L7434 6984
L7471 7003
L7490 7021
L7509 7059
L7509 7078
L7490 7115
L7471 7134
L7434 7153
L7359 7153
L7321 7171
L7303 7190
L7284 7228
L7284 7303
L7303 7340
L7321 7359
L7359 7378
L7434 7378
L7471 7359
L7490 7340
L7509 7303
L7509 7228
L7490 7190
L7471 7171
L7434 7153
" />
<path d="M5615 7340
L5597 7359
L5540 7378
L5503 7378
L5447 7359
L5409 7321
L5390 7284
L5372 7209
L5372 7153
L5390 7078
L5409 7040
L5447 7003
L5503 6984
L5540 6984
L5597 7003
L5615 7021
" />
<path d="M5859 6984
L5934 6984
L5972 7003
L6009 7040
L6028 7115
L6028 7246
L6009 7321
L5972 7359
L5934 7378
L5859 7378
L5822 7359
L5784 7321
L5765 7246
L5765 7115
L5784 7040
L5822 7003
L5859 6984
" />
<path d="M6197 7378
L6197 6984
L6421 7378
L6421 6984
" />
<path d="M6609 7378
L6609 6984
L6834 7378
L6834 6984
" />
<path d="M6928 7415
L7228 7415
" />
<path d="M7396 6984
L7434 6984
L7471 7003
L7490 7021
L7509 7059
L7528 7134
L7528 7228
L7509 7303
L7490 7340
L7471 7359
L7434 7378
L7396 7378
L7359 7359
L7340 7340
L7321 7303
L7303 7228
L7303 7134
L7321 7059
L7340 7021
L7359 7003
L7396 6984
" />
<path d="M7903 7378
L7678 7378
" />
<path d="M7790 7378
L7790 6984
L7753 7040
L7715 7078
L7678 7096
" />
<path d="M8034 6984
L8296 7378
" />
<path d="M8296 6984
L8034 7378
" />
<path d="M8521 6984
L8559 6984
L8596 7003
L8615 7021
L8634 7059
L8652 7134
L8652 7228
L8634 7303
L8615 7340
L8596 7359
L8559 7378
L8521 7378
L8484 7359
L8465 7340
L8446 7303
L8427 7228
L8427 7134
L8446 7059
L8465 7021
L8484 7003
L8521 6984
" />
<path d="M9027 7378
L8802 7378
" />
<path d="M8915 7378
L8915 6984
L8877 7040
L8840 7078
L8802 7096
" />
<path d="M40909 7378
L40909 6984
L41059 6984
L41096 7003
L41115 7021
L41134 7059
L41134 7115
L41115 7153
L41096 7171
L41059 7190
L40909 7190
" />
<path d="M41321 7378
L41396 7378
L41434 7359
L41453 7340
L41490 7284
L41509 7209
L41509 7059
L41490 7021
L41471 7003
L41434 6984
L41359 6984
L41321 7003
L41303 7021
L41284 7059
L41284 7153
L41303 7190
L41321 7209
L41359 7228
L41434 7228
L41471 7209
L41490 7190
L41509 7153
" />
<path d="M39615 7340
L39597 7359
L39540 7378
L39503 7378
L39447 7359
L39409 7321
L39390 7284
L39372 7209
L39372 7153
L39390 7078
L39409 7040
L39447 7003
L39503 6984
L39540 6984
L39597 7003
L39615 7021
" />
<path d="M39859 6984
L39934 6984
L39972 7003
L40009 7040
L40028 7115
L40028 7246
L40009 7321
L39972 7359
L39934 7378
L39859 7378
L39822 7359
L39784 7321
L39765 7246
L39765 7115
L39784 7040
L39822 7003
L39859 6984
" />
<path d="M40197 7378
L40197 6984
L40421 7378
L40421 6984
" />
<path d="M40609 7378
L40609 6984
L40834 7378
L40834 6984
" />
<path d="M40928 7415
L41228 7415
" />
<path d="M41396 6984
L41434 6984
L41471 7003
L41490 7021
L41509 7059
L41528 7134
L41528 7228
L41509 7303
L41490 7340
L41471 7359
L41434 7378
L41396 7378
L41359 7359
L41340 7340
L41321 7303
L41303 7228
L41303 7134
L41321 7059
L41340 7021
L41359 7003
L41396 6984
" />
<path d="M41903 7378
L41678 7378
" />
<path d="M41790 7378
L41790 6984
L41753 7040
L41715 7078
L41678 7096
" />
<path d="M42034 6984
L42296 7378
" />
<path d="M42296 6984
L42034 7378
" />
<path d="M42521 6984
L42559 6984
L42596 7003
L42615 7021
L42634 7059
L42652 7134
L42652 7228
L42634 7303
L42615 7340
L42596 7359
L42559 7378
L42521 7378
L42484 7359
L42465 7340
L42446 7303
L42427 7228
L42427 7134
L42446 7059
L42465 7021
L42484 7003
L42521 6984
" />
<path d="M43027 7378
L42802 7378
" />
<path d="M42915 7378
L42915 6984
L42877 7040
L42840 7078
L42802 7096
" />
<path d="M40721 33378
L40721 32984
L40871 32984
L40909 33003
L40928 33021
L40946 33059
L40946 33115
L40928 33153
L40909 33171
L40871 33190
L40721 33190
" />
<path d="M41321 33378
L41096 33378
" />
<path d="M41209 33378
L41209 32984
L41171 33040
L41134 33078
L41096 33096
" />
<path d="M41565 32984
L41603 32984
L41640 33003
L41659 33021
L41678 33059
L41696 33134
L41696 33228
L41678 33303
L41659 33340
L41640 33359
L41603 33378
L41565 33378
L41528 33359
L41509 33340
L41490 33303
L41471 33228
L41471 33134
L41490 33059
L41509 33021
L41528 33003
L41565 32984
" />
<path d="M39615 33340
L39597 33359
L39540 33378
L39503 33378
L39447 33359
L39409 33321
L39390 33284
L39372 33209
L39372 33153
L39390 33078
L39409 33040
L39447 33003
L39503 32984
L39540 32984
L39597 33003
L39615 33021
" />
<path d="M39859 32984
L39934 32984
L39972 33003
L40009 33040
L40028 33115
L40028 33246
L40009 33321
L39972 33359
L39934 33378
L39859 33378
L39822 33359
L39784 33321
L39765 33246
L39765 33115
L39784 33040
L39822 33003
L39859 32984
" />
<path d="M40197 33378
L40197 32984
L40421 33378
L40421 32984
" />
<path d="M40609 33378
L40609 32984
L40834 33378
L40834 32984
" />
<path d="M40928 33415
L41228 33415
" />
<path d="M41396 32984
L41434 32984
L41471 33003
L41490 33021
L41509 33059
L41528 33134
L41528 33228
L41509 33303
L41490 33340
L41471 33359
L41434 33378
L41396 33378
L41359 33359
L41340 33340
L41321 33303
L41303 33228
L41303 33134
L41321 33059
L41340 33021
L41359 33003
L41396 32984
" />
<path d="M41903 33378
L41678 33378
" />
<path d="M41790 33378
L41790 32984
L41753 33040
L41715 33078
L41678 33096
" />
<path d="M42034 32984
L42296 33378
" />
<path d="M42296 32984
L42034 33378
" />
<path d="M42521 32984
L42559 32984
L42596 33003
L42615 33021
L42634 33059
L42652 33134
L42652 33228
L42634 33303
L42615 33340
L42596 33359
L42559 33378
L42521 33378
L42484 33359
L42465 33340
L42446 33303
L42427 33228
L42427 33134
L42446 33059
L42465 33021
L42484 33003
L42521 32984
" />
<path d="M43027 33378
L42802 33378
" />
<path d="M42915 33378
L42915 32984
L42877 33040
L42840 33078
L42802 33096
" />
<path d="M6721 33378
L6721 32984
L6871 32984
L6909 33003
L6928 33021
L6946 33059
L6946 33115
L6928 33153
L6909 33171
L6871 33190
L6721 33190
" />
<path d="M7321 33378
L7096 33378
" />
<path d="M7209 33378
L7209 32984
L7171 33040
L7134 33078
L7096 33096
" />
<path d="M7696 33378
L7471 33378
" />
<path d="M7584 33378
L7584 32984
L7546 33040
L7509 33078
L7471 33096
" />
<path d="M5615 33340
L5597 33359
L5540 33378
L5503 33378
L5447 33359
L5409 33321
L5390 33284
L5372 33209
L5372 33153
L5390 33078
L5409 33040
L5447 33003
L5503 32984
L5540 32984
L5597 33003
L5615 33021
" />
<path d="M5859 32984
L5934 32984
L5972 33003
L6009 33040
L6028 33115
L6028 33246
L6009 33321
L5972 33359
L5934 33378
L5859 33378
L5822 33359
L5784 33321
L5765 33246
L5765 33115
L5784 33040
L5822 33003
L5859 32984
" />
<path d="M6197 33378
L6197 32984
L6421 33378
L6421 32984
" />
<path d="M6609 33378
L6609 32984
L6834 33378
L6834 32984
" />
<path d="M6928 33415
L7228 33415
" />
<path d="M7396 32984
L7434 32984
L7471 33003
L7490 33021
L7509 33059
L7528 33134
L7528 33228
L7509 33303
L7490 33340
L7471 33359
L7434 33378
L7396 33378
L7359 33359
L7340 33340
L7321 33303
L7303 33228
L7303 33134
L7321 33059
L7340 33021
L7359 33003
L7396 32984
" />
<path d="M7903 33378
L7678 33378
" />
<path d="M7790 33378
L7790 32984
L7753 33040
L7715 33078
L7678 33096
" />
<path d="M8034 32984
L8296 33378
" />
<path d="M8296 32984
L8034 33378
" />
<path d="M8521 32984
L8559 32984
L8596 33003
L8615 33021
L8634 33059
L8652 33134
L8652 33228
L8634 33303
L8615 33340
L8596 33359
L8559 33378
L8521 33378
L8484 33359
L8465 33340
L8446 33303
L8427 33228
L8427 33134
L8446 33059
L8465 33021
L8484 33003
L8521 32984
" />
<path d="M9027 33378
L8802 33378
" />
<path d="M8915 33378
L8915 32984
L8877 33040
L8840 33078
L8802 33096
" />
<path d="M45617 23115
L45636 23134
L45654 23190
L45654 23228
L45636 23284
L45598 23321
L45561 23340
L45486 23359
L45429 23359
L45354 23340
L45317 23321
L45279 23284
L45261 23228
L45261 23190
L45279 23134
L45298 23115
" />
<path d="M45261 22778
L45261 22853
L45279 22890
L45298 22909
L45354 22946
L45429 22965
L45579 22965
L45617 22946
L45636 22928
L45654 22890
L45654 22815
L45636 22778
L45617 22759
L45579 22740
L45486 22740
L45448 22759
L45429 22778
L45411 22815
L45411 22890
L45429 22928
L45448 22946
L45486 22965
" />
<path d="M43646 31838
L43628 31857
L43571 31876
L43534 31876
L43478 31857
L43440 31820
L43421 31782
L43403 31707
L43403 31651
L43421 31576
L43440 31538
L43478 31501
L43534 31482
L43571 31482
L43628 31501
L43646 31520
" />
<path d="M44021 31876
L43796 31876
" />
<path d="M43909 31876
L43909 31482
L43871 31538
L43834 31576
L43796 31595
" />
<path d="M44265 31482
L44303 31482
L44340 31501
L44359 31520
L44378 31557
L44396 31632
L44396 31726
L44378 31801
L44359 31838
L44340 31857
L44303 31876
L44265 31876
L44228 31857
L44209 31838
L44190 31801
L44171 31726
L44171 31632
L44190 31557
L44209 31520
L44228 31501
L44265 31482
" />
<path d="M-1403 7913
L-1421 7932
L-1478 7951
L-1515 7951
L-1571 7932
L-1609 7895
L-1628 7857
L-1646 7782
L-1646 7726
L-1628 7651
L-1609 7613
L-1571 7576
L-1515 7557
L-1478 7557
L-1421 7576
L-1403 7595
" />
<path d="M-1028 7951
L-1253 7951
" />
<path d="M-1140 7951
L-1140 7557
L-1178 7613
L-1215 7651
L-1253 7670
" />
<path d="M-803 7726
L-840 7707
L-859 7688
L-878 7651
L-878 7632
L-859 7595
L-840 7576
L-803 7557
L-728 7557
L-690 7576
L-671 7595
L-653 7632
L-653 7651
L-671 7688
L-690 7707
L-728 7726
L-803 7726
L-840 7745
L-859 7763
L-878 7801
L-878 7876
L-859 7913
L-840 7932
L-803 7951
L-728 7951
L-690 7932
L-671 7913
L-653 7876
L-653 7801
L-671 7763
L-690 7745
L-728 7726
" />
<path d="M5046 -5686
L5028 -5667
L4971 -5648
L4934 -5648
L4878 -5667
L4840 -5704
L4821 -5742
L4803 -5817
L4803 -5873
L4821 -5948
L4840 -5986
L4878 -6023
L4934 -6042
L4971 -6042
L5028 -6023
L5046 -6004
" />
<path d="M5196 -6004
L5215 -6023
L5253 -6042
L5346 -6042
L5384 -6023
L5403 -6004
L5421 -5967
L5421 -5929
L5403 -5873
L5178 -5648
L5421 -5648
" />
<path d="M5778 -6042
L5590 -6042
L5571 -5854
L5590 -5873
L5628 -5892
L5721 -5892
L5759 -5873
L5778 -5854
L5796 -5817
L5796 -5723
L5778 -5686
L5759 -5667
L5721 -5648
L5628 -5648
L5590 -5667
L5571 -5686
" />
<path d="M-2303 3063
L-2321 3082
L-2378 3101
L-2415 3101
L-2471 3082
L-2509 3045
L-2528 3007
L-2546 2932
L-2546 2876
L-2528 2801
L-2509 2763
L-2471 2726
L-2415 2707
L-2378 2707
L-2321 2726
L-2303 2745
" />
<path d="M-2153 2745
L-2134 2726
L-2096 2707
L-2003 2707
L-1965 2726
L-1946 2745
L-1928 2782
L-1928 2820
L-1946 2876
L-2171 3101
L-1928 3101
" />
<path d="M-1590 2707
L-1665 2707
L-1703 2726
L-1721 2745
L-1759 2801
L-1778 2876
L-1778 3026
L-1759 3063
L-1740 3082
L-1703 3101
L-1628 3101
L-1590 3082
L-1571 3063
L-1553 3026
L-1553 2932
L-1571 2895
L-1590 2876
L-1628 2857
L-1703 2857
L-1740 2876
L-1759 2895
L-1778 2932
" />
<path d="M-2003 213
L-2021 232
L-2078 251
L-2115 251
L-2171 232
L-2209 195
L-2228 157
L-2246 82
L-2246 26
L-2228 -48
L-2209 -86
L-2171 -123
L-2115 -142
L-2078 -142
L-2021 -123
L-2003 -104
" />
<path d="M-1853 -104
L-1834 -123
L-1796 -142
L-1703 -142
L-1665 -123
L-1646 -104
L-1628 -67
L-1628 -29
L-1646 26
L-1871 251
L-1628 251
" />
<path d="M-1403 26
L-1440 7
L-1459 -11
L-1478 -48
L-1478 -67
L-1459 -104
L-1440 -123
L-1403 -142
L-1328 -142
L-1290 -123
L-1271 -104
L-1253 -67
L-1253 -48
L-1271 -11
L-1290 7
L-1328 26
L-1403 26
L-1440 45
L-1459 63
L-1478 101
L-1478 176
L-1459 213
L-1440 232
L-1403 251
L-1328 251
L-1290 232
L-1271 213
L-1253 176
L-1253 101
L-1271 63
L-1290 45
L-1328 26
" />
<path d="M-2003 -1036
L-2021 -1017
L-2078 -998
L-2115 -998
L-2171 -1017
L-2209 -1054
L-2228 -1092
L-2246 -1167
L-2246 -1223
L-2228 -1298
L-2209 -1336
L-2171 -1373
L-2115 -1392
L-2078 -1392
L-2021 -1373
L-2003 -1354
" />
<path d="M-1871 -1392
L-1628 -1392
L-1759 -1242
L-1703 -1242
L-1665 -1223
L-1646 -1204
L-1628 -1167
L-1628 -1073
L-1646 -1036
L-1665 -1017
L-1703 -998
L-1815 -998
L-1853 -1017
L-1871 -1036
" />
<path d="M-1384 -1392
L-1346 -1392
L-1309 -1373
L-1290 -1354
L-1271 -1317
L-1253 -1242
L-1253 -1148
L-1271 -1073
L-1290 -1036
L-1309 -1017
L-1346 -998
L-1384 -998
L-1421 -1017
L-1440 -1036
L-1459 -1073
L-1478 -1148
L-1478 -1242
L-1459 -1317
L-1440 -1354
L-1421 -1373
L-1384 -1392
" />
<path d="M-13653 1463
L-13671 1482
L-13728 1501
L-13765 1501
L-13821 1482
L-13859 1445
L-13878 1407
L-13896 1332
L-13896 1276
L-13878 1201
L-13859 1163
L-13821 1126
L-13765 1107
L-13728 1107
L-13671 1126
L-13653 1145
" />
<path d="M-13521 1107
L-13278 1107
L-13409 1257
L-13353 1257
L-13315 1276
L-13296 1295
L-13278 1332
L-13278 1426
L-13296 1463
L-13315 1482
L-13353 1501
L-13465 1501
L-13503 1482
L-13521 1463
" />
<path d="M-13146 1107
L-12884 1107
L-13053 1501
" />
<path d="M-17403 -1236
L-17421 -1217
L-17478 -1198
L-17515 -1198
L-17571 -1217
L-17609 -1254
L-17628 -1292
L-17646 -1367
L-17646 -1423
L-17628 -1498
L-17609 -1536
L-17571 -1573
L-17515 -1592
L-17478 -1592
L-17421 -1573
L-17403 -1554
" />
<path d="M-17271 -1592
L-17028 -1592
L-17159 -1442
L-17103 -1442
L-17065 -1423
L-17046 -1404
L-17028 -1367
L-17028 -1273
L-17046 -1236
L-17065 -1217
L-17103 -1198
L-17215 -1198
L-17253 -1217
L-17271 -1236
" />
<path d="M-16803 -1423
L-16840 -1442
L-16859 -1461
L-16878 -1498
L-16878 -1517
L-16859 -1554
L-16840 -1573
L-16803 -1592
L-16728 -1592
L-16690 -1573
L-16671 -1554
L-16653 -1517
L-16653 -1498
L-16671 -1461
L-16690 -1442
L-16728 -1423
L-16803 -1423
L-16840 -1404
L-16859 -1386
L-16878 -1348
L-16878 -1273
L-16859 -1236
L-16840 -1217
L-16803 -1198
L-16728 -1198
L-16690 -1217
L-16671 -1236
L-16653 -1273
L-16653 -1348
L-16671 -1386
L-16690 -1404
L-16728 -1423
" />
<path d="M-8403 -7186
L-8421 -7167
L-8478 -7148
L-8515 -7148
L-8571 -7167
L-8609 -7204
L-8628 -7242
L-8646 -7317
L-8646 -7373
L-8628 -7448
L-8609 -7486
L-8571 -7523
L-8515 -7542
L-8478 -7542
L-8421 -7523
L-8403 -7504
" />
<path d="M-8065 -7411
L-8065 -7148
" />
<path d="M-8159 -7561
L-8253 -7279
L-8009 -7279
" />
<path d="M-7690 -7542
L-7765 -7542
L-7803 -7523
L-7821 -7504
L-7859 -7448
L-7878 -7373
L-7878 -7223
L-7859 -7186
L-7840 -7167
L-7803 -7148
L-7728 -7148
L-7690 -7167
L-7671 -7186
L-7653 -7223
L-7653 -7317
L-7671 -7354
L-7690 -7373
L-7728 -7392
L-7803 -7392
L-7840 -7373
L-7859 -7354
L-7878 -7317
" />
<path d="M7234 19654
L7103 19467
" />
<path d="M7009 19654
L7009 19261
L7159 19261
L7196 19279
L7215 19298
L7234 19336
L7234 19392
L7215 19429
L7196 19448
L7159 19467
L7009 19467
" />
<path d="M7609 19654
L7384 19654
" />
<path d="M7496 19654
L7496 19261
L7459 19317
L7421 19354
L7384 19373
" />
<path d="M284 1001
L153 813
" />
<path d="M59 1001
L59 607
L209 607
L246 626
L265 645
L284 682
L284 738
L265 776
L246 795
L209 813
L59 813
" />
<path d="M434 645
L453 626
L490 607
L584 607
L621 626
L640 645
L659 682
L659 720
L640 776
L415 1001
L659 1001
" />
<path d="M1984 951
L1853 763
" />
<path d="M1759 951
L1759 557
L1909 557
L1946 576
L1965 595
L1984 632
L1984 688
L1965 726
L1946 745
L1909 763
L1759 763
" />
<path d="M2115 557
L2359 557
L2228 707
L2284 707
L2321 726
L2340 745
L2359 782
L2359 876
L2340 913
L2321 932
L2284 951
L2171 951
L2134 932
L2115 913
" />
<path d="M1384 -2648
L1253 -2836
" />
<path d="M1159 -2648
L1159 -3042
L1309 -3042
L1346 -3023
L1365 -3004
L1384 -2967
L1384 -2911
L1365 -2873
L1346 -2854
L1309 -2836
L1159 -2836
" />
<path d="M1721 -2911
L1721 -2648
" />
<path d="M1628 -3061
L1534 -2779
L1778 -2779
" />
<path d="M1834 -348
L1703 -536
" />
<path d="M1609 -348
L1609 -742
L1759 -742
L1796 -723
L1815 -704
L1834 -667
L1834 -611
L1815 -573
L1796 -554
L1759 -536
L1609 -536
" />
<path d="M2190 -742
L2003 -742
L1984 -554
L2003 -573
L2040 -592
L2134 -592
L2171 -573
L2190 -554
L2209 -517
L2209 -423
L2190 -386
L2171 -367
L2134 -348
L2040 -348
L2003 -367
L1984 -386
" />
<path d="M-1215 6801
L-1346 6613
" />
<path d="M-1440 6801
L-1440 6407
L-1290 6407
L-1253 6426
L-1234 6445
L-1215 6482
L-1215 6538
L-1234 6576
L-1253 6595
L-1290 6613
L-1440 6613
" />
<path d="M-878 6407
L-953 6407
L-990 6426
L-1009 6445
L-1046 6501
L-1065 6576
L-1065 6726
L-1046 6763
L-1028 6782
L-990 6801
L-915 6801
L-878 6782
L-859 6763
L-840 6726
L-840 6632
L-859 6595
L-878 6576
L-915 6557
L-990 6557
L-1028 6576
L-1046 6595
L-1065 6632
" />
<path d="M3434 201
L3303 13
" />
<path d="M3209 201
L3209 -192
L3359 -192
L3396 -173
L3415 -154
L3434 -117
L3434 -61
L3415 -23
L3396 -4
L3359 13
L3209 13
" />
<path d="M3659 -23
L3621 -42
L3603 -61
L3584 -98
L3584 -117
L3603 -154
L3621 -173
L3659 -192
L3734 -192
L3771 -173
L3790 -154
L3809 -117
L3809 -98
L3790 -61
L3771 -42
L3734 -23
L3659 -23
L3621 -4
L3603 13
L3584 51
L3584 126
L3603 163
L3621 182
L3659 201
L3734 201
L3771 182
L3790 163
L3809 126
L3809 51
L3790 13
L3771 -4
L3734 -23
" />
<path d="M2246 -1398
L2115 -1586
" />
<path d="M2021 -1398
L2021 -1792
L2171 -1792
L2209 -1773
L2228 -1754
L2246 -1717
L2246 -1661
L2228 -1623
L2209 -1604
L2171 -1586
L2021 -1586
" />
<path d="M2621 -1398
L2396 -1398
" />
<path d="M2509 -1398
L2509 -1792
L2471 -1736
L2434 -1698
L2396 -1679
" />
<path d="M2865 -1792
L2903 -1792
L2940 -1773
L2959 -1754
L2978 -1717
L2996 -1642
L2996 -1548
L2978 -1473
L2959 -1436
L2940 -1417
L2903 -1398
L2865 -1398
L2828 -1417
L2809 -1436
L2790 -1473
L2771 -1548
L2771 -1642
L2790 -1717
L2809 -1754
L2828 -1773
L2865 -1792
" />
<path d="M-5153 -2898
L-5284 -3086
" />
<path d="M-5378 -2898
L-5378 -3292
L-5228 -3292
L-5190 -3273
L-5171 -3254
L-5153 -3217
L-5153 -3161
L-5171 -3123
L-5190 -3104
L-5228 -3086
L-5378 -3086
" />
<path d="M-4778 -2898
L-5003 -2898
" />
<path d="M-4890 -2898
L-4890 -3292
L-4928 -3236
L-4965 -3198
L-5003 -3179
" />
<path d="M-4403 -2898
L-4628 -2898
" />
<path d="M-4515 -2898
L-4515 -3292
L-4553 -3236
L-4590 -3198
L-4628 -3179
" />
<path d="M-6203 -1398
L-6334 -1586
" />
<path d="M-6428 -1398
L-6428 -1792
L-6278 -1792
L-6240 -1773
L-6221 -1754
L-6203 -1717
L-6203 -1661
L-6221 -1623
L-6240 -1604
L-6278 -1586
L-6428 -1586
" />
<path d="M-5828 -1398
L-6053 -1398
" />
<path d="M-5940 -1398
L-5940 -1792
L-5978 -1736
L-6015 -1698
L-6053 -1679
" />
<path d="M-5696 -1792
L-5453 -1792
L-5584 -1642
L-5528 -1642
L-5490 -1623
L-5471 -1604
L-5453 -1567
L-5453 -1473
L-5471 -1436
L-5490 -1417
L-5528 -1398
L-5640 -1398
L-5678 -1417
L-5696 -1436
" />
<path d="M-6353 -48
L-6484 -236
" />
<path d="M-6578 -48
L-6578 -442
L-6428 -442
L-6390 -423
L-6371 -404
L-6353 -367
L-6353 -311
L-6371 -273
L-6390 -254
L-6428 -236
L-6578 -236
" />
<path d="M-5978 -48
L-6203 -48
" />
<path d="M-6090 -48
L-6090 -442
L-6128 -386
L-6165 -348
L-6203 -329
" />
<path d="M-5621 -442
L-5809 -442
L-5828 -254
L-5809 -273
L-5771 -292
L-5678 -292
L-5640 -273
L-5621 -254
L-5603 -217
L-5603 -123
L-5621 -86
L-5640 -67
L-5678 -48
L-5771 -48
L-5809 -67
L-5828 -86
" />
<path d="M-6753 1801
L-6884 1613
" />
<path d="M-6978 1801
L-6978 1407
L-6828 1407
L-6790 1426
L-6771 1445
L-6753 1482
L-6753 1538
L-6771 1576
L-6790 1595
L-6828 1613
L-6978 1613
" />
<path d="M-6378 1801
L-6603 1801
" />
<path d="M-6490 1801
L-6490 1407
L-6528 1463
L-6565 1501
L-6603 1520
" />
<path d="M-6040 1407
L-6115 1407
L-6153 1426
L-6171 1445
L-6209 1501
L-6228 1576
L-6228 1726
L-6209 1763
L-6190 1782
L-6153 1801
L-6078 1801
L-6040 1782
L-6021 1763
L-6003 1726
L-6003 1632
L-6021 1595
L-6040 1576
L-6078 1557
L-6153 1557
L-6190 1576
L-6209 1595
L-6228 1632
" />
<path d="M-3603 -1348
L-3734 -1536
" />
<path d="M-3828 -1348
L-3828 -1742
L-3678 -1742
L-3640 -1723
L-3621 -1704
L-3603 -1667
L-3603 -1611
L-3621 -1573
L-3640 -1554
L-3678 -1536
L-3828 -1536
" />
<path d="M-3228 -1348
L-3453 -1348
" />
<path d="M-3340 -1348
L-3340 -1742
L-3378 -1686
L-3415 -1648
L-3453 -1629
" />
<path d="M-3096 -1742
L-2834 -1742
L-3003 -1348
" />
<path d="M5726 14940
L5708 14959
L5651 14978
L5614 14978
L5558 14959
L5520 14921
L5501 14884
L5483 14809
L5483 14753
L5501 14678
L5520 14640
L5558 14603
L5614 14584
L5651 14584
L5708 14603
L5726 14621
" />
<path d="M6064 14715
L6064 14978
" />
<path d="M5970 14565
L5876 14846
L6120 14846
" />
<path d="M6233 14584
L6495 14584
L6326 14978
" />
<path d="M5686 12090
L5668 12109
L5611 12128
L5574 12128
L5518 12109
L5480 12071
L5461 12034
L5443 11959
L5443 11903
L5461 11828
L5480 11790
L5518 11753
L5574 11734
L5611 11734
L5668 11753
L5686 11771
" />
<path d="M6024 11865
L6024 12128
" />
<path d="M5930 11715
L5836 11996
L6080 11996
" />
<path d="M6286 11903
L6249 11884
L6230 11865
L6211 11828
L6211 11809
L6230 11771
L6249 11753
L6286 11734
L6361 11734
L6399 11753
L6418 11771
L6436 11809
L6436 11828
L6418 11865
L6399 11884
L6361 11903
L6286 11903
L6249 11921
L6230 11940
L6211 11978
L6211 12053
L6230 12090
L6249 12109
L6286 12128
L6361 12128
L6399 12109
L6418 12090
L6436 12053
L6436 11978
L6418 11940
L6399 11921
L6361 11903
" />
<path d="M5428 13365
L5428 13553
L5034 13553
" />
<path d="M5428 13028
L5428 13253
" />
<path d="M5428 13140
L5034 13140
L5090 13178
L5128 13215
L5146 13253
" />
<path d="M7528 13365
L7528 13553
L7134 13553
" />
<path d="M7171 13253
L7153 13234
L7134 13196
L7134 13103
L7153 13065
L7171 13046
L7209 13028
L7246 13028
L7303 13046
L7528 13271
L7528 13028
" />
<path d="M7049 8801
L7049 8408
L7199 8408
L7236 8426
L7255 8445
L7274 8483
L7274 8539
L7255 8576
L7236 8595
L7199 8614
L7049 8614
" />
<path d="M7405 8408
L7668 8408
L7499 8801
" />
<path d="M9874 20620
L9855 20639
L9799 20658
L9761 20658
L9705 20639
L9668 20601
L9649 20564
L9630 20489
L9630 20433
L9649 20358
L9668 20320
L9705 20283
L9761 20264
L9799 20264
L9855 20283
L9874 20301
" />
<path d="M10249 20658
L10024 20658
" />
<path d="M10136 20658
L10136 20264
L10099 20320
L10061 20358
L10024 20376
" />
<path d="M5194 17810
L5175 17829
L5119 17848
L5081 17848
L5025 17829
L4988 17791
L4969 17754
L4950 17679
L4950 17623
L4969 17548
L4988 17510
L5025 17473
L5081 17454
L5119 17454
L5175 17473
L5194 17491
" />
<path d="M5344 17491
L5363 17473
L5400 17454
L5494 17454
L5531 17473
L5550 17491
L5569 17529
L5569 17566
L5550 17623
L5325 17848
L5569 17848
" />
<path d="M12867 20465
L12886 20484
L12904 20540
L12904 20578
L12886 20634
L12848 20671
L12811 20690
L12736 20709
L12679 20709
L12604 20690
L12567 20671
L12529 20634
L12511 20578
L12511 20540
L12529 20484
L12548 20465
" />
<path d="M12642 20128
L12904 20128
" />
<path d="M12492 20221
L12773 20315
L12773 20071
" />
<path d="M6246 17690
L6228 17709
L6171 17728
L6134 17728
L6078 17709
L6040 17671
L6021 17634
L6003 17559
L6003 17503
L6021 17428
L6040 17390
L6078 17353
L6134 17334
L6171 17334
L6228 17353
L6246 17371
" />
<path d="M6621 17728
L6396 17728
" />
<path d="M6509 17728
L6509 17334
L6471 17390
L6434 17428
L6396 17446
" />
<path d="M6771 17371
L6790 17353
L6828 17334
L6921 17334
L6959 17353
L6978 17371
L6996 17409
L6996 17446
L6978 17503
L6753 17728
L6996 17728
" />
<path d="M-253 -686
L-271 -667
L-328 -648
L-365 -648
L-421 -667
L-459 -704
L-478 -742
L-496 -817
L-496 -873
L-478 -948
L-459 -986
L-421 -1023
L-365 -1042
L-328 -1042
L-271 -1023
L-253 -1004
" />
<path d="M84 -911
L84 -648
" />
<path d="M-9 -1061
L-103 -779
L140 -779
" />
<path d="M309 -648
L384 -648
L421 -667
L440 -686
L478 -742
L496 -817
L496 -967
L478 -1004
L459 -1023
L421 -1042
L346 -1042
L309 -1023
L290 -1004
L271 -967
L271 -873
L290 -836
L309 -817
L346 -798
L421 -798
L459 -817
L478 -836
L496 -873
" />
</g> 
</svg>
