G04 (created by PCBNEW (25-Oct-2014 BZR 4029)-stable) date Fr 05 Feb 2016 19:57:56 CET*
%MOIN*%
G04 Gerber Fmt 3.4, Leading zero omitted, Abs format*
%FSLAX34Y34*%
G01*
G70*
G90*
G04 APERTURE LIST*
%ADD10C,0.00590551*%
%ADD11C,0.0039*%
%ADD12C,0.0047*%
%ADD13C,0.015*%
%ADD14C,0.0035*%
%ADD15C,0.0043*%
%ADD16C,0.0051*%
%ADD17C,0.012*%
G04 APERTURE END LIST*
G54D10*
G54D11*
X40550Y-36750D02*
G75*
G03X40550Y-36750I-50J0D01*
G74*
G01*
X40500Y-37200D02*
X40500Y-36800D01*
X40500Y-36800D02*
X39900Y-36800D01*
X39900Y-36800D02*
X39900Y-37200D01*
X39900Y-37600D02*
X39900Y-38000D01*
X39900Y-38000D02*
X40500Y-38000D01*
X40500Y-38000D02*
X40500Y-37600D01*
X41550Y-36750D02*
G75*
G03X41550Y-36750I-50J0D01*
G74*
G01*
X41500Y-37200D02*
X41500Y-36800D01*
X41500Y-36800D02*
X40900Y-36800D01*
X40900Y-36800D02*
X40900Y-37200D01*
X40900Y-37600D02*
X40900Y-38000D01*
X40900Y-38000D02*
X41500Y-38000D01*
X41500Y-38000D02*
X41500Y-37600D01*
X42550Y-36750D02*
G75*
G03X42550Y-36750I-50J0D01*
G74*
G01*
X42500Y-37200D02*
X42500Y-36800D01*
X42500Y-36800D02*
X41900Y-36800D01*
X41900Y-36800D02*
X41900Y-37200D01*
X41900Y-37600D02*
X41900Y-38000D01*
X41900Y-38000D02*
X42500Y-38000D01*
X42500Y-38000D02*
X42500Y-37600D01*
X43550Y-36750D02*
G75*
G03X43550Y-36750I-50J0D01*
G74*
G01*
X43500Y-37200D02*
X43500Y-36800D01*
X43500Y-36800D02*
X42900Y-36800D01*
X42900Y-36800D02*
X42900Y-37200D01*
X42900Y-37600D02*
X42900Y-38000D01*
X42900Y-38000D02*
X43500Y-38000D01*
X43500Y-38000D02*
X43500Y-37600D01*
X44550Y-36750D02*
G75*
G03X44550Y-36750I-50J0D01*
G74*
G01*
X44500Y-37200D02*
X44500Y-36800D01*
X44500Y-36800D02*
X43900Y-36800D01*
X43900Y-36800D02*
X43900Y-37200D01*
X43900Y-37600D02*
X43900Y-38000D01*
X43900Y-38000D02*
X44500Y-38000D01*
X44500Y-38000D02*
X44500Y-37600D01*
X45550Y-36750D02*
G75*
G03X45550Y-36750I-50J0D01*
G74*
G01*
X45500Y-37200D02*
X45500Y-36800D01*
X45500Y-36800D02*
X44900Y-36800D01*
X44900Y-36800D02*
X44900Y-37200D01*
X44900Y-37600D02*
X44900Y-38000D01*
X44900Y-38000D02*
X45500Y-38000D01*
X45500Y-38000D02*
X45500Y-37600D01*
X46550Y-36750D02*
G75*
G03X46550Y-36750I-50J0D01*
G74*
G01*
X46500Y-37200D02*
X46500Y-36800D01*
X46500Y-36800D02*
X45900Y-36800D01*
X45900Y-36800D02*
X45900Y-37200D01*
X45900Y-37600D02*
X45900Y-38000D01*
X45900Y-38000D02*
X46500Y-38000D01*
X46500Y-38000D02*
X46500Y-37600D01*
X39550Y-36750D02*
G75*
G03X39550Y-36750I-50J0D01*
G74*
G01*
X39500Y-37200D02*
X39500Y-36800D01*
X39500Y-36800D02*
X38900Y-36800D01*
X38900Y-36800D02*
X38900Y-37200D01*
X38900Y-37600D02*
X38900Y-38000D01*
X38900Y-38000D02*
X39500Y-38000D01*
X39500Y-38000D02*
X39500Y-37600D01*
X50650Y-36650D02*
G75*
G03X50650Y-36650I-50J0D01*
G74*
G01*
X50600Y-37100D02*
X50600Y-36700D01*
X50600Y-36700D02*
X50000Y-36700D01*
X50000Y-36700D02*
X50000Y-37100D01*
X50000Y-37500D02*
X50000Y-37900D01*
X50000Y-37900D02*
X50600Y-37900D01*
X50600Y-37900D02*
X50600Y-37500D01*
X52650Y-36650D02*
G75*
G03X52650Y-36650I-50J0D01*
G74*
G01*
X52600Y-37100D02*
X52600Y-36700D01*
X52600Y-36700D02*
X52000Y-36700D01*
X52000Y-36700D02*
X52000Y-37100D01*
X52000Y-37500D02*
X52000Y-37900D01*
X52000Y-37900D02*
X52600Y-37900D01*
X52600Y-37900D02*
X52600Y-37500D01*
X54650Y-36650D02*
G75*
G03X54650Y-36650I-50J0D01*
G74*
G01*
X54600Y-37100D02*
X54600Y-36700D01*
X54600Y-36700D02*
X54000Y-36700D01*
X54000Y-36700D02*
X54000Y-37100D01*
X54000Y-37500D02*
X54000Y-37900D01*
X54000Y-37900D02*
X54600Y-37900D01*
X54600Y-37900D02*
X54600Y-37500D01*
X56650Y-36650D02*
G75*
G03X56650Y-36650I-50J0D01*
G74*
G01*
X56600Y-37100D02*
X56600Y-36700D01*
X56600Y-36700D02*
X56000Y-36700D01*
X56000Y-36700D02*
X56000Y-37100D01*
X56000Y-37500D02*
X56000Y-37900D01*
X56000Y-37900D02*
X56600Y-37900D01*
X56600Y-37900D02*
X56600Y-37500D01*
X51650Y-36650D02*
G75*
G03X51650Y-36650I-50J0D01*
G74*
G01*
X51600Y-37100D02*
X51600Y-36700D01*
X51600Y-36700D02*
X51000Y-36700D01*
X51000Y-36700D02*
X51000Y-37100D01*
X51000Y-37500D02*
X51000Y-37900D01*
X51000Y-37900D02*
X51600Y-37900D01*
X51600Y-37900D02*
X51600Y-37500D01*
X53650Y-36650D02*
G75*
G03X53650Y-36650I-50J0D01*
G74*
G01*
X53600Y-37100D02*
X53600Y-36700D01*
X53600Y-36700D02*
X53000Y-36700D01*
X53000Y-36700D02*
X53000Y-37100D01*
X53000Y-37500D02*
X53000Y-37900D01*
X53000Y-37900D02*
X53600Y-37900D01*
X53600Y-37900D02*
X53600Y-37500D01*
X55650Y-36650D02*
G75*
G03X55650Y-36650I-50J0D01*
G74*
G01*
X55600Y-37100D02*
X55600Y-36700D01*
X55600Y-36700D02*
X55000Y-36700D01*
X55000Y-36700D02*
X55000Y-37100D01*
X55000Y-37500D02*
X55000Y-37900D01*
X55000Y-37900D02*
X55600Y-37900D01*
X55600Y-37900D02*
X55600Y-37500D01*
X56300Y-40600D02*
G75*
G03X56300Y-40600I-50J0D01*
G74*
G01*
X56700Y-40600D02*
X56300Y-40600D01*
X56300Y-40600D02*
X56300Y-41200D01*
X56300Y-41200D02*
X56700Y-41200D01*
X57100Y-41200D02*
X57500Y-41200D01*
X57500Y-41200D02*
X57500Y-40600D01*
X57500Y-40600D02*
X57100Y-40600D01*
G54D12*
X54400Y-40300D02*
X54400Y-41500D01*
X54400Y-41500D02*
X54700Y-41500D01*
X54700Y-41500D02*
X54700Y-40300D01*
X54700Y-40300D02*
X54400Y-40300D01*
X44900Y-40350D02*
X44900Y-41550D01*
X44900Y-41550D02*
X45200Y-41550D01*
X45200Y-41550D02*
X45200Y-40350D01*
X45200Y-40350D02*
X44900Y-40350D01*
G54D11*
X52850Y-41500D02*
G75*
G03X52850Y-41500I-50J0D01*
G74*
G01*
X52800Y-41050D02*
X52800Y-41450D01*
X52800Y-41450D02*
X53400Y-41450D01*
X53400Y-41450D02*
X53400Y-41050D01*
X53400Y-40650D02*
X53400Y-40250D01*
X53400Y-40250D02*
X52800Y-40250D01*
X52800Y-40250D02*
X52800Y-40650D01*
X43350Y-41600D02*
G75*
G03X43350Y-41600I-50J0D01*
G74*
G01*
X43300Y-41150D02*
X43300Y-41550D01*
X43300Y-41550D02*
X43900Y-41550D01*
X43900Y-41550D02*
X43900Y-41150D01*
X43900Y-40750D02*
X43900Y-40350D01*
X43900Y-40350D02*
X43300Y-40350D01*
X43300Y-40350D02*
X43300Y-40750D01*
X46150Y-40650D02*
G75*
G03X46150Y-40650I-50J0D01*
G74*
G01*
X46550Y-40650D02*
X46150Y-40650D01*
X46150Y-40650D02*
X46150Y-41250D01*
X46150Y-41250D02*
X46550Y-41250D01*
X46950Y-41250D02*
X47350Y-41250D01*
X47350Y-41250D02*
X47350Y-40650D01*
X47350Y-40650D02*
X46950Y-40650D01*
X57750Y-36650D02*
G75*
G03X57750Y-36650I-50J0D01*
G74*
G01*
X57700Y-37100D02*
X57700Y-36700D01*
X57700Y-36700D02*
X57100Y-36700D01*
X57100Y-36700D02*
X57100Y-37100D01*
X57100Y-37500D02*
X57100Y-37900D01*
X57100Y-37900D02*
X57700Y-37900D01*
X57700Y-37900D02*
X57700Y-37500D01*
G54D12*
X59700Y-37400D02*
X60900Y-37400D01*
X60900Y-37400D02*
X60900Y-37100D01*
X60900Y-37100D02*
X59700Y-37100D01*
X59700Y-37100D02*
X59700Y-37400D01*
G54D11*
X61350Y-37900D02*
G75*
G03X61350Y-37900I-50J0D01*
G74*
G01*
X61300Y-37450D02*
X61300Y-37850D01*
X61300Y-37850D02*
X61900Y-37850D01*
X61900Y-37850D02*
X61900Y-37450D01*
X61900Y-37050D02*
X61900Y-36650D01*
X61900Y-36650D02*
X61300Y-36650D01*
X61300Y-36650D02*
X61300Y-37050D01*
X35400Y-9800D02*
G75*
G03X35400Y-9800I-50J0D01*
G74*
G01*
X35350Y-9350D02*
X35350Y-9750D01*
X35350Y-9750D02*
X35950Y-9750D01*
X35950Y-9750D02*
X35950Y-9350D01*
X35950Y-8950D02*
X35950Y-8550D01*
X35950Y-8550D02*
X35350Y-8550D01*
X35350Y-8550D02*
X35350Y-8950D01*
G54D13*
X13121Y-17044D02*
X13121Y-17556D01*
X13121Y-17300D02*
X13279Y-17398D01*
X13121Y-17300D02*
X13279Y-17182D01*
X12491Y-17989D02*
X12491Y-17851D01*
X12491Y-16611D02*
X12491Y-16749D01*
X12314Y-17989D02*
X12314Y-17851D01*
X14086Y-17989D02*
X14086Y-17851D01*
X14086Y-16611D02*
X14086Y-16749D01*
X12314Y-16611D02*
X12314Y-16749D01*
X14086Y-17989D02*
X12314Y-17989D01*
X14086Y-16611D02*
X12314Y-16611D01*
X7444Y-16229D02*
X7956Y-16229D01*
X7700Y-16229D02*
X7798Y-16071D01*
X7700Y-16229D02*
X7582Y-16071D01*
X8389Y-16859D02*
X8251Y-16859D01*
X7011Y-16859D02*
X7149Y-16859D01*
X8389Y-17036D02*
X8251Y-17036D01*
X8389Y-15264D02*
X8251Y-15264D01*
X7011Y-15264D02*
X7149Y-15264D01*
X7011Y-17036D02*
X7149Y-17036D01*
X8389Y-15264D02*
X8389Y-17036D01*
X7011Y-15264D02*
X7011Y-17036D01*
G54D14*
X23330Y-44802D02*
X23330Y-44302D01*
X23521Y-44302D01*
X23569Y-44326D01*
X23592Y-44350D01*
X23616Y-44397D01*
X23616Y-44469D01*
X23592Y-44516D01*
X23569Y-44540D01*
X23521Y-44564D01*
X23330Y-44564D01*
X24069Y-44302D02*
X23830Y-44302D01*
X23807Y-44540D01*
X23830Y-44516D01*
X23878Y-44492D01*
X23997Y-44492D01*
X24045Y-44516D01*
X24069Y-44540D01*
X24092Y-44588D01*
X24092Y-44707D01*
X24069Y-44754D01*
X24045Y-44778D01*
X23997Y-44802D01*
X23878Y-44802D01*
X23830Y-44778D01*
X23807Y-44754D01*
X22652Y-45504D02*
X22628Y-45528D01*
X22557Y-45552D01*
X22509Y-45552D01*
X22438Y-45528D01*
X22390Y-45480D01*
X22366Y-45433D01*
X22342Y-45338D01*
X22342Y-45266D01*
X22366Y-45171D01*
X22390Y-45123D01*
X22438Y-45076D01*
X22509Y-45052D01*
X22557Y-45052D01*
X22628Y-45076D01*
X22652Y-45100D01*
X22961Y-45052D02*
X23057Y-45052D01*
X23104Y-45076D01*
X23152Y-45123D01*
X23176Y-45219D01*
X23176Y-45385D01*
X23152Y-45480D01*
X23104Y-45528D01*
X23057Y-45552D01*
X22961Y-45552D01*
X22914Y-45528D01*
X22866Y-45480D01*
X22842Y-45385D01*
X22842Y-45219D01*
X22866Y-45123D01*
X22914Y-45076D01*
X22961Y-45052D01*
X23390Y-45552D02*
X23390Y-45052D01*
X23676Y-45552D01*
X23676Y-45052D01*
X23914Y-45552D02*
X23914Y-45052D01*
X24200Y-45552D01*
X24200Y-45052D01*
X24319Y-45600D02*
X24700Y-45600D01*
X25080Y-45552D02*
X24795Y-45552D01*
X24938Y-45552D02*
X24938Y-45052D01*
X24890Y-45123D01*
X24842Y-45171D01*
X24795Y-45195D01*
X25390Y-45052D02*
X25438Y-45052D01*
X25485Y-45076D01*
X25509Y-45100D01*
X25533Y-45147D01*
X25557Y-45242D01*
X25557Y-45361D01*
X25533Y-45457D01*
X25509Y-45504D01*
X25485Y-45528D01*
X25438Y-45552D01*
X25390Y-45552D01*
X25342Y-45528D01*
X25319Y-45504D01*
X25295Y-45457D01*
X25271Y-45361D01*
X25271Y-45242D01*
X25295Y-45147D01*
X25319Y-45100D01*
X25342Y-45076D01*
X25390Y-45052D01*
X12330Y-44802D02*
X12330Y-44302D01*
X12521Y-44302D01*
X12569Y-44326D01*
X12592Y-44350D01*
X12616Y-44397D01*
X12616Y-44469D01*
X12592Y-44516D01*
X12569Y-44540D01*
X12521Y-44564D01*
X12330Y-44564D01*
X13045Y-44469D02*
X13045Y-44802D01*
X12926Y-44278D02*
X12807Y-44635D01*
X13116Y-44635D01*
X11652Y-45504D02*
X11628Y-45528D01*
X11557Y-45552D01*
X11509Y-45552D01*
X11438Y-45528D01*
X11390Y-45480D01*
X11366Y-45433D01*
X11342Y-45338D01*
X11342Y-45266D01*
X11366Y-45171D01*
X11390Y-45123D01*
X11438Y-45076D01*
X11509Y-45052D01*
X11557Y-45052D01*
X11628Y-45076D01*
X11652Y-45100D01*
X11961Y-45052D02*
X12057Y-45052D01*
X12104Y-45076D01*
X12152Y-45123D01*
X12176Y-45219D01*
X12176Y-45385D01*
X12152Y-45480D01*
X12104Y-45528D01*
X12057Y-45552D01*
X11961Y-45552D01*
X11914Y-45528D01*
X11866Y-45480D01*
X11842Y-45385D01*
X11842Y-45219D01*
X11866Y-45123D01*
X11914Y-45076D01*
X11961Y-45052D01*
X12390Y-45552D02*
X12390Y-45052D01*
X12676Y-45552D01*
X12676Y-45052D01*
X12914Y-45552D02*
X12914Y-45052D01*
X13200Y-45552D01*
X13200Y-45052D01*
X13319Y-45600D02*
X13700Y-45600D01*
X14080Y-45552D02*
X13795Y-45552D01*
X13938Y-45552D02*
X13938Y-45052D01*
X13890Y-45123D01*
X13842Y-45171D01*
X13795Y-45195D01*
X14390Y-45052D02*
X14438Y-45052D01*
X14485Y-45076D01*
X14509Y-45100D01*
X14533Y-45147D01*
X14557Y-45242D01*
X14557Y-45361D01*
X14533Y-45457D01*
X14509Y-45504D01*
X14485Y-45528D01*
X14438Y-45552D01*
X14390Y-45552D01*
X14342Y-45528D01*
X14319Y-45504D01*
X14295Y-45457D01*
X14271Y-45361D01*
X14271Y-45242D01*
X14295Y-45147D01*
X14319Y-45100D01*
X14342Y-45076D01*
X14390Y-45052D01*
G54D15*
X40154Y-37273D02*
X40060Y-37207D01*
X40154Y-37160D02*
X39957Y-37160D01*
X39957Y-37235D01*
X39967Y-37254D01*
X39976Y-37263D01*
X39995Y-37273D01*
X40023Y-37273D01*
X40042Y-37263D01*
X40051Y-37254D01*
X40060Y-37235D01*
X40060Y-37160D01*
X39957Y-37339D02*
X39957Y-37460D01*
X40032Y-37395D01*
X40032Y-37423D01*
X40042Y-37442D01*
X40051Y-37451D01*
X40070Y-37460D01*
X40117Y-37460D01*
X40135Y-37451D01*
X40145Y-37442D01*
X40154Y-37423D01*
X40154Y-37367D01*
X40145Y-37348D01*
X40135Y-37339D01*
X40023Y-37629D02*
X40154Y-37629D01*
X39948Y-37582D02*
X40089Y-37536D01*
X40089Y-37657D01*
X40429Y-37268D02*
X40429Y-37156D01*
X40429Y-37212D02*
X40232Y-37212D01*
X40260Y-37193D01*
X40279Y-37174D01*
X40289Y-37156D01*
X40232Y-37390D02*
X40232Y-37409D01*
X40242Y-37428D01*
X40251Y-37437D01*
X40270Y-37446D01*
X40307Y-37456D01*
X40354Y-37456D01*
X40392Y-37446D01*
X40410Y-37437D01*
X40420Y-37428D01*
X40429Y-37409D01*
X40429Y-37390D01*
X40420Y-37371D01*
X40410Y-37362D01*
X40392Y-37353D01*
X40354Y-37343D01*
X40307Y-37343D01*
X40270Y-37353D01*
X40251Y-37362D01*
X40242Y-37371D01*
X40232Y-37390D01*
X40232Y-37578D02*
X40232Y-37597D01*
X40242Y-37615D01*
X40251Y-37625D01*
X40270Y-37634D01*
X40307Y-37643D01*
X40354Y-37643D01*
X40392Y-37634D01*
X40410Y-37625D01*
X40420Y-37615D01*
X40429Y-37597D01*
X40429Y-37578D01*
X40420Y-37559D01*
X40410Y-37550D01*
X40392Y-37540D01*
X40354Y-37531D01*
X40307Y-37531D01*
X40270Y-37540D01*
X40251Y-37550D01*
X40242Y-37559D01*
X40232Y-37578D01*
X41154Y-37273D02*
X41060Y-37207D01*
X41154Y-37160D02*
X40957Y-37160D01*
X40957Y-37235D01*
X40967Y-37254D01*
X40976Y-37263D01*
X40995Y-37273D01*
X41023Y-37273D01*
X41042Y-37263D01*
X41051Y-37254D01*
X41060Y-37235D01*
X41060Y-37160D01*
X40957Y-37339D02*
X40957Y-37460D01*
X41032Y-37395D01*
X41032Y-37423D01*
X41042Y-37442D01*
X41051Y-37451D01*
X41070Y-37460D01*
X41117Y-37460D01*
X41135Y-37451D01*
X41145Y-37442D01*
X41154Y-37423D01*
X41154Y-37367D01*
X41145Y-37348D01*
X41135Y-37339D01*
X40957Y-37639D02*
X40957Y-37545D01*
X41051Y-37536D01*
X41042Y-37545D01*
X41032Y-37564D01*
X41032Y-37611D01*
X41042Y-37629D01*
X41051Y-37639D01*
X41070Y-37648D01*
X41117Y-37648D01*
X41135Y-37639D01*
X41145Y-37629D01*
X41154Y-37611D01*
X41154Y-37564D01*
X41145Y-37545D01*
X41135Y-37536D01*
X41429Y-37268D02*
X41429Y-37156D01*
X41429Y-37212D02*
X41232Y-37212D01*
X41260Y-37193D01*
X41279Y-37174D01*
X41289Y-37156D01*
X41232Y-37390D02*
X41232Y-37409D01*
X41242Y-37428D01*
X41251Y-37437D01*
X41270Y-37446D01*
X41307Y-37456D01*
X41354Y-37456D01*
X41392Y-37446D01*
X41410Y-37437D01*
X41420Y-37428D01*
X41429Y-37409D01*
X41429Y-37390D01*
X41420Y-37371D01*
X41410Y-37362D01*
X41392Y-37353D01*
X41354Y-37343D01*
X41307Y-37343D01*
X41270Y-37353D01*
X41251Y-37362D01*
X41242Y-37371D01*
X41232Y-37390D01*
X41232Y-37578D02*
X41232Y-37597D01*
X41242Y-37615D01*
X41251Y-37625D01*
X41270Y-37634D01*
X41307Y-37643D01*
X41354Y-37643D01*
X41392Y-37634D01*
X41410Y-37625D01*
X41420Y-37615D01*
X41429Y-37597D01*
X41429Y-37578D01*
X41420Y-37559D01*
X41410Y-37550D01*
X41392Y-37540D01*
X41354Y-37531D01*
X41307Y-37531D01*
X41270Y-37540D01*
X41251Y-37550D01*
X41242Y-37559D01*
X41232Y-37578D01*
X42154Y-37273D02*
X42060Y-37207D01*
X42154Y-37160D02*
X41957Y-37160D01*
X41957Y-37235D01*
X41967Y-37254D01*
X41976Y-37263D01*
X41995Y-37273D01*
X42023Y-37273D01*
X42042Y-37263D01*
X42051Y-37254D01*
X42060Y-37235D01*
X42060Y-37160D01*
X41957Y-37339D02*
X41957Y-37460D01*
X42032Y-37395D01*
X42032Y-37423D01*
X42042Y-37442D01*
X42051Y-37451D01*
X42070Y-37460D01*
X42117Y-37460D01*
X42135Y-37451D01*
X42145Y-37442D01*
X42154Y-37423D01*
X42154Y-37367D01*
X42145Y-37348D01*
X42135Y-37339D01*
X41957Y-37629D02*
X41957Y-37592D01*
X41967Y-37573D01*
X41976Y-37564D01*
X42004Y-37545D01*
X42042Y-37536D01*
X42117Y-37536D01*
X42135Y-37545D01*
X42145Y-37554D01*
X42154Y-37573D01*
X42154Y-37611D01*
X42145Y-37629D01*
X42135Y-37639D01*
X42117Y-37648D01*
X42070Y-37648D01*
X42051Y-37639D01*
X42042Y-37629D01*
X42032Y-37611D01*
X42032Y-37573D01*
X42042Y-37554D01*
X42051Y-37545D01*
X42070Y-37536D01*
X42429Y-37268D02*
X42429Y-37156D01*
X42429Y-37212D02*
X42232Y-37212D01*
X42260Y-37193D01*
X42279Y-37174D01*
X42289Y-37156D01*
X42232Y-37390D02*
X42232Y-37409D01*
X42242Y-37428D01*
X42251Y-37437D01*
X42270Y-37446D01*
X42307Y-37456D01*
X42354Y-37456D01*
X42392Y-37446D01*
X42410Y-37437D01*
X42420Y-37428D01*
X42429Y-37409D01*
X42429Y-37390D01*
X42420Y-37371D01*
X42410Y-37362D01*
X42392Y-37353D01*
X42354Y-37343D01*
X42307Y-37343D01*
X42270Y-37353D01*
X42251Y-37362D01*
X42242Y-37371D01*
X42232Y-37390D01*
X42232Y-37578D02*
X42232Y-37597D01*
X42242Y-37615D01*
X42251Y-37625D01*
X42270Y-37634D01*
X42307Y-37643D01*
X42354Y-37643D01*
X42392Y-37634D01*
X42410Y-37625D01*
X42420Y-37615D01*
X42429Y-37597D01*
X42429Y-37578D01*
X42420Y-37559D01*
X42410Y-37550D01*
X42392Y-37540D01*
X42354Y-37531D01*
X42307Y-37531D01*
X42270Y-37540D01*
X42251Y-37550D01*
X42242Y-37559D01*
X42232Y-37578D01*
X43154Y-37273D02*
X43060Y-37207D01*
X43154Y-37160D02*
X42957Y-37160D01*
X42957Y-37235D01*
X42967Y-37254D01*
X42976Y-37263D01*
X42995Y-37273D01*
X43023Y-37273D01*
X43042Y-37263D01*
X43051Y-37254D01*
X43060Y-37235D01*
X43060Y-37160D01*
X42957Y-37339D02*
X42957Y-37460D01*
X43032Y-37395D01*
X43032Y-37423D01*
X43042Y-37442D01*
X43051Y-37451D01*
X43070Y-37460D01*
X43117Y-37460D01*
X43135Y-37451D01*
X43145Y-37442D01*
X43154Y-37423D01*
X43154Y-37367D01*
X43145Y-37348D01*
X43135Y-37339D01*
X42957Y-37526D02*
X42957Y-37657D01*
X43154Y-37573D01*
X43429Y-37268D02*
X43429Y-37156D01*
X43429Y-37212D02*
X43232Y-37212D01*
X43260Y-37193D01*
X43279Y-37174D01*
X43289Y-37156D01*
X43232Y-37390D02*
X43232Y-37409D01*
X43242Y-37428D01*
X43251Y-37437D01*
X43270Y-37446D01*
X43307Y-37456D01*
X43354Y-37456D01*
X43392Y-37446D01*
X43410Y-37437D01*
X43420Y-37428D01*
X43429Y-37409D01*
X43429Y-37390D01*
X43420Y-37371D01*
X43410Y-37362D01*
X43392Y-37353D01*
X43354Y-37343D01*
X43307Y-37343D01*
X43270Y-37353D01*
X43251Y-37362D01*
X43242Y-37371D01*
X43232Y-37390D01*
X43232Y-37578D02*
X43232Y-37597D01*
X43242Y-37615D01*
X43251Y-37625D01*
X43270Y-37634D01*
X43307Y-37643D01*
X43354Y-37643D01*
X43392Y-37634D01*
X43410Y-37625D01*
X43420Y-37615D01*
X43429Y-37597D01*
X43429Y-37578D01*
X43420Y-37559D01*
X43410Y-37550D01*
X43392Y-37540D01*
X43354Y-37531D01*
X43307Y-37531D01*
X43270Y-37540D01*
X43251Y-37550D01*
X43242Y-37559D01*
X43232Y-37578D01*
X44154Y-37273D02*
X44060Y-37207D01*
X44154Y-37160D02*
X43957Y-37160D01*
X43957Y-37235D01*
X43967Y-37254D01*
X43976Y-37263D01*
X43995Y-37273D01*
X44023Y-37273D01*
X44042Y-37263D01*
X44051Y-37254D01*
X44060Y-37235D01*
X44060Y-37160D01*
X43957Y-37339D02*
X43957Y-37460D01*
X44032Y-37395D01*
X44032Y-37423D01*
X44042Y-37442D01*
X44051Y-37451D01*
X44070Y-37460D01*
X44117Y-37460D01*
X44135Y-37451D01*
X44145Y-37442D01*
X44154Y-37423D01*
X44154Y-37367D01*
X44145Y-37348D01*
X44135Y-37339D01*
X44042Y-37573D02*
X44032Y-37554D01*
X44023Y-37545D01*
X44004Y-37536D01*
X43995Y-37536D01*
X43976Y-37545D01*
X43967Y-37554D01*
X43957Y-37573D01*
X43957Y-37611D01*
X43967Y-37629D01*
X43976Y-37639D01*
X43995Y-37648D01*
X44004Y-37648D01*
X44023Y-37639D01*
X44032Y-37629D01*
X44042Y-37611D01*
X44042Y-37573D01*
X44051Y-37554D01*
X44060Y-37545D01*
X44079Y-37536D01*
X44117Y-37536D01*
X44135Y-37545D01*
X44145Y-37554D01*
X44154Y-37573D01*
X44154Y-37611D01*
X44145Y-37629D01*
X44135Y-37639D01*
X44117Y-37648D01*
X44079Y-37648D01*
X44060Y-37639D01*
X44051Y-37629D01*
X44042Y-37611D01*
X44429Y-37268D02*
X44429Y-37156D01*
X44429Y-37212D02*
X44232Y-37212D01*
X44260Y-37193D01*
X44279Y-37174D01*
X44289Y-37156D01*
X44232Y-37390D02*
X44232Y-37409D01*
X44242Y-37428D01*
X44251Y-37437D01*
X44270Y-37446D01*
X44307Y-37456D01*
X44354Y-37456D01*
X44392Y-37446D01*
X44410Y-37437D01*
X44420Y-37428D01*
X44429Y-37409D01*
X44429Y-37390D01*
X44420Y-37371D01*
X44410Y-37362D01*
X44392Y-37353D01*
X44354Y-37343D01*
X44307Y-37343D01*
X44270Y-37353D01*
X44251Y-37362D01*
X44242Y-37371D01*
X44232Y-37390D01*
X44232Y-37578D02*
X44232Y-37597D01*
X44242Y-37615D01*
X44251Y-37625D01*
X44270Y-37634D01*
X44307Y-37643D01*
X44354Y-37643D01*
X44392Y-37634D01*
X44410Y-37625D01*
X44420Y-37615D01*
X44429Y-37597D01*
X44429Y-37578D01*
X44420Y-37559D01*
X44410Y-37550D01*
X44392Y-37540D01*
X44354Y-37531D01*
X44307Y-37531D01*
X44270Y-37540D01*
X44251Y-37550D01*
X44242Y-37559D01*
X44232Y-37578D01*
X45154Y-37273D02*
X45060Y-37207D01*
X45154Y-37160D02*
X44957Y-37160D01*
X44957Y-37235D01*
X44967Y-37254D01*
X44976Y-37263D01*
X44995Y-37273D01*
X45023Y-37273D01*
X45042Y-37263D01*
X45051Y-37254D01*
X45060Y-37235D01*
X45060Y-37160D01*
X44957Y-37339D02*
X44957Y-37460D01*
X45032Y-37395D01*
X45032Y-37423D01*
X45042Y-37442D01*
X45051Y-37451D01*
X45070Y-37460D01*
X45117Y-37460D01*
X45135Y-37451D01*
X45145Y-37442D01*
X45154Y-37423D01*
X45154Y-37367D01*
X45145Y-37348D01*
X45135Y-37339D01*
X45154Y-37554D02*
X45154Y-37592D01*
X45145Y-37611D01*
X45135Y-37620D01*
X45107Y-37639D01*
X45070Y-37648D01*
X44995Y-37648D01*
X44976Y-37639D01*
X44967Y-37629D01*
X44957Y-37611D01*
X44957Y-37573D01*
X44967Y-37554D01*
X44976Y-37545D01*
X44995Y-37536D01*
X45042Y-37536D01*
X45060Y-37545D01*
X45070Y-37554D01*
X45079Y-37573D01*
X45079Y-37611D01*
X45070Y-37629D01*
X45060Y-37639D01*
X45042Y-37648D01*
X45429Y-37268D02*
X45429Y-37156D01*
X45429Y-37212D02*
X45232Y-37212D01*
X45260Y-37193D01*
X45279Y-37174D01*
X45289Y-37156D01*
X45232Y-37390D02*
X45232Y-37409D01*
X45242Y-37428D01*
X45251Y-37437D01*
X45270Y-37446D01*
X45307Y-37456D01*
X45354Y-37456D01*
X45392Y-37446D01*
X45410Y-37437D01*
X45420Y-37428D01*
X45429Y-37409D01*
X45429Y-37390D01*
X45420Y-37371D01*
X45410Y-37362D01*
X45392Y-37353D01*
X45354Y-37343D01*
X45307Y-37343D01*
X45270Y-37353D01*
X45251Y-37362D01*
X45242Y-37371D01*
X45232Y-37390D01*
X45232Y-37578D02*
X45232Y-37597D01*
X45242Y-37615D01*
X45251Y-37625D01*
X45270Y-37634D01*
X45307Y-37643D01*
X45354Y-37643D01*
X45392Y-37634D01*
X45410Y-37625D01*
X45420Y-37615D01*
X45429Y-37597D01*
X45429Y-37578D01*
X45420Y-37559D01*
X45410Y-37550D01*
X45392Y-37540D01*
X45354Y-37531D01*
X45307Y-37531D01*
X45270Y-37540D01*
X45251Y-37550D01*
X45242Y-37559D01*
X45232Y-37578D01*
X46154Y-37273D02*
X46060Y-37207D01*
X46154Y-37160D02*
X45957Y-37160D01*
X45957Y-37235D01*
X45967Y-37254D01*
X45976Y-37263D01*
X45995Y-37273D01*
X46023Y-37273D01*
X46042Y-37263D01*
X46051Y-37254D01*
X46060Y-37235D01*
X46060Y-37160D01*
X46023Y-37442D02*
X46154Y-37442D01*
X45948Y-37395D02*
X46089Y-37348D01*
X46089Y-37470D01*
X45957Y-37582D02*
X45957Y-37601D01*
X45967Y-37620D01*
X45976Y-37629D01*
X45995Y-37639D01*
X46032Y-37648D01*
X46079Y-37648D01*
X46117Y-37639D01*
X46135Y-37629D01*
X46145Y-37620D01*
X46154Y-37601D01*
X46154Y-37582D01*
X46145Y-37564D01*
X46135Y-37554D01*
X46117Y-37545D01*
X46079Y-37536D01*
X46032Y-37536D01*
X45995Y-37545D01*
X45976Y-37554D01*
X45967Y-37564D01*
X45957Y-37582D01*
X46429Y-37268D02*
X46429Y-37156D01*
X46429Y-37212D02*
X46232Y-37212D01*
X46260Y-37193D01*
X46279Y-37174D01*
X46289Y-37156D01*
X46232Y-37390D02*
X46232Y-37409D01*
X46242Y-37428D01*
X46251Y-37437D01*
X46270Y-37446D01*
X46307Y-37456D01*
X46354Y-37456D01*
X46392Y-37446D01*
X46410Y-37437D01*
X46420Y-37428D01*
X46429Y-37409D01*
X46429Y-37390D01*
X46420Y-37371D01*
X46410Y-37362D01*
X46392Y-37353D01*
X46354Y-37343D01*
X46307Y-37343D01*
X46270Y-37353D01*
X46251Y-37362D01*
X46242Y-37371D01*
X46232Y-37390D01*
X46232Y-37578D02*
X46232Y-37597D01*
X46242Y-37615D01*
X46251Y-37625D01*
X46270Y-37634D01*
X46307Y-37643D01*
X46354Y-37643D01*
X46392Y-37634D01*
X46410Y-37625D01*
X46420Y-37615D01*
X46429Y-37597D01*
X46429Y-37578D01*
X46420Y-37559D01*
X46410Y-37550D01*
X46392Y-37540D01*
X46354Y-37531D01*
X46307Y-37531D01*
X46270Y-37540D01*
X46251Y-37550D01*
X46242Y-37559D01*
X46232Y-37578D01*
X39154Y-37273D02*
X39060Y-37207D01*
X39154Y-37160D02*
X38957Y-37160D01*
X38957Y-37235D01*
X38967Y-37254D01*
X38976Y-37263D01*
X38995Y-37273D01*
X39023Y-37273D01*
X39042Y-37263D01*
X39051Y-37254D01*
X39060Y-37235D01*
X39060Y-37160D01*
X38957Y-37339D02*
X38957Y-37460D01*
X39032Y-37395D01*
X39032Y-37423D01*
X39042Y-37442D01*
X39051Y-37451D01*
X39070Y-37460D01*
X39117Y-37460D01*
X39135Y-37451D01*
X39145Y-37442D01*
X39154Y-37423D01*
X39154Y-37367D01*
X39145Y-37348D01*
X39135Y-37339D01*
X38957Y-37526D02*
X38957Y-37648D01*
X39032Y-37582D01*
X39032Y-37611D01*
X39042Y-37629D01*
X39051Y-37639D01*
X39070Y-37648D01*
X39117Y-37648D01*
X39135Y-37639D01*
X39145Y-37629D01*
X39154Y-37611D01*
X39154Y-37554D01*
X39145Y-37536D01*
X39135Y-37526D01*
X39429Y-37268D02*
X39429Y-37156D01*
X39429Y-37212D02*
X39232Y-37212D01*
X39260Y-37193D01*
X39279Y-37174D01*
X39289Y-37156D01*
X39232Y-37390D02*
X39232Y-37409D01*
X39242Y-37428D01*
X39251Y-37437D01*
X39270Y-37446D01*
X39307Y-37456D01*
X39354Y-37456D01*
X39392Y-37446D01*
X39410Y-37437D01*
X39420Y-37428D01*
X39429Y-37409D01*
X39429Y-37390D01*
X39420Y-37371D01*
X39410Y-37362D01*
X39392Y-37353D01*
X39354Y-37343D01*
X39307Y-37343D01*
X39270Y-37353D01*
X39251Y-37362D01*
X39242Y-37371D01*
X39232Y-37390D01*
X39232Y-37578D02*
X39232Y-37597D01*
X39242Y-37615D01*
X39251Y-37625D01*
X39270Y-37634D01*
X39307Y-37643D01*
X39354Y-37643D01*
X39392Y-37634D01*
X39410Y-37625D01*
X39420Y-37615D01*
X39429Y-37597D01*
X39429Y-37578D01*
X39420Y-37559D01*
X39410Y-37550D01*
X39392Y-37540D01*
X39354Y-37531D01*
X39307Y-37531D01*
X39270Y-37540D01*
X39251Y-37550D01*
X39242Y-37559D01*
X39232Y-37578D01*
X50254Y-37173D02*
X50160Y-37107D01*
X50254Y-37060D02*
X50057Y-37060D01*
X50057Y-37135D01*
X50067Y-37154D01*
X50076Y-37163D01*
X50095Y-37173D01*
X50123Y-37173D01*
X50142Y-37163D01*
X50151Y-37154D01*
X50160Y-37135D01*
X50160Y-37060D01*
X50123Y-37342D02*
X50254Y-37342D01*
X50048Y-37295D02*
X50189Y-37248D01*
X50189Y-37370D01*
X50057Y-37426D02*
X50057Y-37548D01*
X50132Y-37482D01*
X50132Y-37511D01*
X50142Y-37529D01*
X50151Y-37539D01*
X50170Y-37548D01*
X50217Y-37548D01*
X50235Y-37539D01*
X50245Y-37529D01*
X50254Y-37511D01*
X50254Y-37454D01*
X50245Y-37436D01*
X50235Y-37426D01*
X50529Y-37168D02*
X50529Y-37056D01*
X50529Y-37112D02*
X50332Y-37112D01*
X50360Y-37093D01*
X50379Y-37074D01*
X50389Y-37056D01*
X50332Y-37290D02*
X50332Y-37309D01*
X50342Y-37328D01*
X50351Y-37337D01*
X50370Y-37346D01*
X50407Y-37356D01*
X50454Y-37356D01*
X50492Y-37346D01*
X50510Y-37337D01*
X50520Y-37328D01*
X50529Y-37309D01*
X50529Y-37290D01*
X50520Y-37271D01*
X50510Y-37262D01*
X50492Y-37253D01*
X50454Y-37243D01*
X50407Y-37243D01*
X50370Y-37253D01*
X50351Y-37262D01*
X50342Y-37271D01*
X50332Y-37290D01*
X50332Y-37478D02*
X50332Y-37497D01*
X50342Y-37515D01*
X50351Y-37525D01*
X50370Y-37534D01*
X50407Y-37543D01*
X50454Y-37543D01*
X50492Y-37534D01*
X50510Y-37525D01*
X50520Y-37515D01*
X50529Y-37497D01*
X50529Y-37478D01*
X50520Y-37459D01*
X50510Y-37450D01*
X50492Y-37440D01*
X50454Y-37431D01*
X50407Y-37431D01*
X50370Y-37440D01*
X50351Y-37450D01*
X50342Y-37459D01*
X50332Y-37478D01*
X52254Y-37173D02*
X52160Y-37107D01*
X52254Y-37060D02*
X52057Y-37060D01*
X52057Y-37135D01*
X52067Y-37154D01*
X52076Y-37163D01*
X52095Y-37173D01*
X52123Y-37173D01*
X52142Y-37163D01*
X52151Y-37154D01*
X52160Y-37135D01*
X52160Y-37060D01*
X52123Y-37342D02*
X52254Y-37342D01*
X52048Y-37295D02*
X52189Y-37248D01*
X52189Y-37370D01*
X52057Y-37539D02*
X52057Y-37445D01*
X52151Y-37436D01*
X52142Y-37445D01*
X52132Y-37464D01*
X52132Y-37511D01*
X52142Y-37529D01*
X52151Y-37539D01*
X52170Y-37548D01*
X52217Y-37548D01*
X52235Y-37539D01*
X52245Y-37529D01*
X52254Y-37511D01*
X52254Y-37464D01*
X52245Y-37445D01*
X52235Y-37436D01*
X52529Y-37168D02*
X52529Y-37056D01*
X52529Y-37112D02*
X52332Y-37112D01*
X52360Y-37093D01*
X52379Y-37074D01*
X52389Y-37056D01*
X52332Y-37290D02*
X52332Y-37309D01*
X52342Y-37328D01*
X52351Y-37337D01*
X52370Y-37346D01*
X52407Y-37356D01*
X52454Y-37356D01*
X52492Y-37346D01*
X52510Y-37337D01*
X52520Y-37328D01*
X52529Y-37309D01*
X52529Y-37290D01*
X52520Y-37271D01*
X52510Y-37262D01*
X52492Y-37253D01*
X52454Y-37243D01*
X52407Y-37243D01*
X52370Y-37253D01*
X52351Y-37262D01*
X52342Y-37271D01*
X52332Y-37290D01*
X52332Y-37478D02*
X52332Y-37497D01*
X52342Y-37515D01*
X52351Y-37525D01*
X52370Y-37534D01*
X52407Y-37543D01*
X52454Y-37543D01*
X52492Y-37534D01*
X52510Y-37525D01*
X52520Y-37515D01*
X52529Y-37497D01*
X52529Y-37478D01*
X52520Y-37459D01*
X52510Y-37450D01*
X52492Y-37440D01*
X52454Y-37431D01*
X52407Y-37431D01*
X52370Y-37440D01*
X52351Y-37450D01*
X52342Y-37459D01*
X52332Y-37478D01*
X54254Y-37173D02*
X54160Y-37107D01*
X54254Y-37060D02*
X54057Y-37060D01*
X54057Y-37135D01*
X54067Y-37154D01*
X54076Y-37163D01*
X54095Y-37173D01*
X54123Y-37173D01*
X54142Y-37163D01*
X54151Y-37154D01*
X54160Y-37135D01*
X54160Y-37060D01*
X54123Y-37342D02*
X54254Y-37342D01*
X54048Y-37295D02*
X54189Y-37248D01*
X54189Y-37370D01*
X54057Y-37529D02*
X54057Y-37492D01*
X54067Y-37473D01*
X54076Y-37464D01*
X54104Y-37445D01*
X54142Y-37436D01*
X54217Y-37436D01*
X54235Y-37445D01*
X54245Y-37454D01*
X54254Y-37473D01*
X54254Y-37511D01*
X54245Y-37529D01*
X54235Y-37539D01*
X54217Y-37548D01*
X54170Y-37548D01*
X54151Y-37539D01*
X54142Y-37529D01*
X54132Y-37511D01*
X54132Y-37473D01*
X54142Y-37454D01*
X54151Y-37445D01*
X54170Y-37436D01*
X54529Y-37168D02*
X54529Y-37056D01*
X54529Y-37112D02*
X54332Y-37112D01*
X54360Y-37093D01*
X54379Y-37074D01*
X54389Y-37056D01*
X54332Y-37290D02*
X54332Y-37309D01*
X54342Y-37328D01*
X54351Y-37337D01*
X54370Y-37346D01*
X54407Y-37356D01*
X54454Y-37356D01*
X54492Y-37346D01*
X54510Y-37337D01*
X54520Y-37328D01*
X54529Y-37309D01*
X54529Y-37290D01*
X54520Y-37271D01*
X54510Y-37262D01*
X54492Y-37253D01*
X54454Y-37243D01*
X54407Y-37243D01*
X54370Y-37253D01*
X54351Y-37262D01*
X54342Y-37271D01*
X54332Y-37290D01*
X54332Y-37478D02*
X54332Y-37497D01*
X54342Y-37515D01*
X54351Y-37525D01*
X54370Y-37534D01*
X54407Y-37543D01*
X54454Y-37543D01*
X54492Y-37534D01*
X54510Y-37525D01*
X54520Y-37515D01*
X54529Y-37497D01*
X54529Y-37478D01*
X54520Y-37459D01*
X54510Y-37450D01*
X54492Y-37440D01*
X54454Y-37431D01*
X54407Y-37431D01*
X54370Y-37440D01*
X54351Y-37450D01*
X54342Y-37459D01*
X54332Y-37478D01*
X56254Y-37173D02*
X56160Y-37107D01*
X56254Y-37060D02*
X56057Y-37060D01*
X56057Y-37135D01*
X56067Y-37154D01*
X56076Y-37163D01*
X56095Y-37173D01*
X56123Y-37173D01*
X56142Y-37163D01*
X56151Y-37154D01*
X56160Y-37135D01*
X56160Y-37060D01*
X56123Y-37342D02*
X56254Y-37342D01*
X56048Y-37295D02*
X56189Y-37248D01*
X56189Y-37370D01*
X56057Y-37426D02*
X56057Y-37557D01*
X56254Y-37473D01*
X56529Y-37168D02*
X56529Y-37056D01*
X56529Y-37112D02*
X56332Y-37112D01*
X56360Y-37093D01*
X56379Y-37074D01*
X56389Y-37056D01*
X56332Y-37290D02*
X56332Y-37309D01*
X56342Y-37328D01*
X56351Y-37337D01*
X56370Y-37346D01*
X56407Y-37356D01*
X56454Y-37356D01*
X56492Y-37346D01*
X56510Y-37337D01*
X56520Y-37328D01*
X56529Y-37309D01*
X56529Y-37290D01*
X56520Y-37271D01*
X56510Y-37262D01*
X56492Y-37253D01*
X56454Y-37243D01*
X56407Y-37243D01*
X56370Y-37253D01*
X56351Y-37262D01*
X56342Y-37271D01*
X56332Y-37290D01*
X56332Y-37478D02*
X56332Y-37497D01*
X56342Y-37515D01*
X56351Y-37525D01*
X56370Y-37534D01*
X56407Y-37543D01*
X56454Y-37543D01*
X56492Y-37534D01*
X56510Y-37525D01*
X56520Y-37515D01*
X56529Y-37497D01*
X56529Y-37478D01*
X56520Y-37459D01*
X56510Y-37450D01*
X56492Y-37440D01*
X56454Y-37431D01*
X56407Y-37431D01*
X56370Y-37440D01*
X56351Y-37450D01*
X56342Y-37459D01*
X56332Y-37478D01*
X51254Y-37173D02*
X51160Y-37107D01*
X51254Y-37060D02*
X51057Y-37060D01*
X51057Y-37135D01*
X51067Y-37154D01*
X51076Y-37163D01*
X51095Y-37173D01*
X51123Y-37173D01*
X51142Y-37163D01*
X51151Y-37154D01*
X51160Y-37135D01*
X51160Y-37060D01*
X51123Y-37342D02*
X51254Y-37342D01*
X51048Y-37295D02*
X51189Y-37248D01*
X51189Y-37370D01*
X51123Y-37529D02*
X51254Y-37529D01*
X51048Y-37482D02*
X51189Y-37436D01*
X51189Y-37557D01*
X51529Y-37168D02*
X51529Y-37056D01*
X51529Y-37112D02*
X51332Y-37112D01*
X51360Y-37093D01*
X51379Y-37074D01*
X51389Y-37056D01*
X51332Y-37290D02*
X51332Y-37309D01*
X51342Y-37328D01*
X51351Y-37337D01*
X51370Y-37346D01*
X51407Y-37356D01*
X51454Y-37356D01*
X51492Y-37346D01*
X51510Y-37337D01*
X51520Y-37328D01*
X51529Y-37309D01*
X51529Y-37290D01*
X51520Y-37271D01*
X51510Y-37262D01*
X51492Y-37253D01*
X51454Y-37243D01*
X51407Y-37243D01*
X51370Y-37253D01*
X51351Y-37262D01*
X51342Y-37271D01*
X51332Y-37290D01*
X51332Y-37478D02*
X51332Y-37497D01*
X51342Y-37515D01*
X51351Y-37525D01*
X51370Y-37534D01*
X51407Y-37543D01*
X51454Y-37543D01*
X51492Y-37534D01*
X51510Y-37525D01*
X51520Y-37515D01*
X51529Y-37497D01*
X51529Y-37478D01*
X51520Y-37459D01*
X51510Y-37450D01*
X51492Y-37440D01*
X51454Y-37431D01*
X51407Y-37431D01*
X51370Y-37440D01*
X51351Y-37450D01*
X51342Y-37459D01*
X51332Y-37478D01*
G54D14*
X53192Y-44752D02*
X53192Y-44252D01*
X53383Y-44252D01*
X53430Y-44276D01*
X53454Y-44300D01*
X53478Y-44347D01*
X53478Y-44419D01*
X53454Y-44466D01*
X53430Y-44490D01*
X53383Y-44514D01*
X53192Y-44514D01*
X53954Y-44752D02*
X53669Y-44752D01*
X53811Y-44752D02*
X53811Y-44252D01*
X53764Y-44323D01*
X53716Y-44371D01*
X53669Y-44395D01*
X54430Y-44752D02*
X54145Y-44752D01*
X54288Y-44752D02*
X54288Y-44252D01*
X54240Y-44323D01*
X54192Y-44371D01*
X54145Y-44395D01*
X52752Y-45454D02*
X52728Y-45478D01*
X52657Y-45502D01*
X52609Y-45502D01*
X52538Y-45478D01*
X52490Y-45430D01*
X52466Y-45383D01*
X52442Y-45288D01*
X52442Y-45216D01*
X52466Y-45121D01*
X52490Y-45073D01*
X52538Y-45026D01*
X52609Y-45002D01*
X52657Y-45002D01*
X52728Y-45026D01*
X52752Y-45050D01*
X53061Y-45002D02*
X53157Y-45002D01*
X53204Y-45026D01*
X53252Y-45073D01*
X53276Y-45169D01*
X53276Y-45335D01*
X53252Y-45430D01*
X53204Y-45478D01*
X53157Y-45502D01*
X53061Y-45502D01*
X53014Y-45478D01*
X52966Y-45430D01*
X52942Y-45335D01*
X52942Y-45169D01*
X52966Y-45073D01*
X53014Y-45026D01*
X53061Y-45002D01*
X53490Y-45502D02*
X53490Y-45002D01*
X53776Y-45502D01*
X53776Y-45002D01*
X54014Y-45502D02*
X54014Y-45002D01*
X54300Y-45502D01*
X54300Y-45002D01*
X54419Y-45550D02*
X54800Y-45550D01*
X55180Y-45502D02*
X54895Y-45502D01*
X55038Y-45502D02*
X55038Y-45002D01*
X54990Y-45073D01*
X54942Y-45121D01*
X54895Y-45145D01*
X55490Y-45002D02*
X55538Y-45002D01*
X55585Y-45026D01*
X55609Y-45050D01*
X55633Y-45097D01*
X55657Y-45192D01*
X55657Y-45311D01*
X55633Y-45407D01*
X55609Y-45454D01*
X55585Y-45478D01*
X55538Y-45502D01*
X55490Y-45502D01*
X55442Y-45478D01*
X55419Y-45454D01*
X55395Y-45407D01*
X55371Y-45311D01*
X55371Y-45192D01*
X55395Y-45097D01*
X55419Y-45050D01*
X55442Y-45026D01*
X55490Y-45002D01*
X64452Y-18307D02*
X63952Y-18307D01*
X63952Y-18116D01*
X63976Y-18069D01*
X64000Y-18045D01*
X64047Y-18021D01*
X64119Y-18021D01*
X64166Y-18045D01*
X64190Y-18069D01*
X64214Y-18116D01*
X64214Y-18307D01*
X64452Y-17545D02*
X64452Y-17830D01*
X64452Y-17688D02*
X63952Y-17688D01*
X64023Y-17735D01*
X64071Y-17783D01*
X64095Y-17830D01*
X63952Y-17235D02*
X63952Y-17188D01*
X63976Y-17140D01*
X64000Y-17116D01*
X64047Y-17092D01*
X64142Y-17069D01*
X64261Y-17069D01*
X64357Y-17092D01*
X64404Y-17116D01*
X64428Y-17140D01*
X64452Y-17188D01*
X64452Y-17235D01*
X64428Y-17283D01*
X64404Y-17307D01*
X64357Y-17330D01*
X64261Y-17354D01*
X64142Y-17354D01*
X64047Y-17330D01*
X64000Y-17307D01*
X63976Y-17283D01*
X63952Y-17235D01*
X65154Y-18747D02*
X65178Y-18771D01*
X65202Y-18842D01*
X65202Y-18890D01*
X65178Y-18961D01*
X65130Y-19009D01*
X65083Y-19033D01*
X64988Y-19057D01*
X64916Y-19057D01*
X64821Y-19033D01*
X64773Y-19009D01*
X64726Y-18961D01*
X64702Y-18890D01*
X64702Y-18842D01*
X64726Y-18771D01*
X64750Y-18747D01*
X64702Y-18438D02*
X64702Y-18342D01*
X64726Y-18295D01*
X64773Y-18247D01*
X64869Y-18223D01*
X65035Y-18223D01*
X65130Y-18247D01*
X65178Y-18295D01*
X65202Y-18342D01*
X65202Y-18438D01*
X65178Y-18485D01*
X65130Y-18533D01*
X65035Y-18557D01*
X64869Y-18557D01*
X64773Y-18533D01*
X64726Y-18485D01*
X64702Y-18438D01*
X65202Y-18009D02*
X64702Y-18009D01*
X65202Y-17723D01*
X64702Y-17723D01*
X65202Y-17485D02*
X64702Y-17485D01*
X65202Y-17200D01*
X64702Y-17200D01*
X65250Y-17080D02*
X65250Y-16700D01*
X65202Y-16319D02*
X65202Y-16604D01*
X65202Y-16461D02*
X64702Y-16461D01*
X64773Y-16509D01*
X64821Y-16557D01*
X64845Y-16604D01*
X64702Y-16009D02*
X64702Y-15961D01*
X64726Y-15914D01*
X64750Y-15890D01*
X64797Y-15866D01*
X64892Y-15842D01*
X65011Y-15842D01*
X65107Y-15866D01*
X65154Y-15890D01*
X65178Y-15914D01*
X65202Y-15961D01*
X65202Y-16009D01*
X65178Y-16057D01*
X65154Y-16080D01*
X65107Y-16104D01*
X65011Y-16128D01*
X64892Y-16128D01*
X64797Y-16104D01*
X64750Y-16080D01*
X64726Y-16057D01*
X64702Y-16009D01*
X42330Y-44752D02*
X42330Y-44252D01*
X42521Y-44252D01*
X42569Y-44276D01*
X42592Y-44300D01*
X42616Y-44347D01*
X42616Y-44419D01*
X42592Y-44466D01*
X42569Y-44490D01*
X42521Y-44514D01*
X42330Y-44514D01*
X42854Y-44752D02*
X42950Y-44752D01*
X42997Y-44728D01*
X43021Y-44704D01*
X43069Y-44633D01*
X43092Y-44538D01*
X43092Y-44347D01*
X43069Y-44300D01*
X43045Y-44276D01*
X42997Y-44252D01*
X42902Y-44252D01*
X42854Y-44276D01*
X42830Y-44300D01*
X42807Y-44347D01*
X42807Y-44466D01*
X42830Y-44514D01*
X42854Y-44538D01*
X42902Y-44561D01*
X42997Y-44561D01*
X43045Y-44538D01*
X43069Y-44514D01*
X43092Y-44466D01*
X41652Y-45454D02*
X41628Y-45478D01*
X41557Y-45502D01*
X41509Y-45502D01*
X41438Y-45478D01*
X41390Y-45430D01*
X41366Y-45383D01*
X41342Y-45288D01*
X41342Y-45216D01*
X41366Y-45121D01*
X41390Y-45073D01*
X41438Y-45026D01*
X41509Y-45002D01*
X41557Y-45002D01*
X41628Y-45026D01*
X41652Y-45050D01*
X41961Y-45002D02*
X42057Y-45002D01*
X42104Y-45026D01*
X42152Y-45073D01*
X42176Y-45169D01*
X42176Y-45335D01*
X42152Y-45430D01*
X42104Y-45478D01*
X42057Y-45502D01*
X41961Y-45502D01*
X41914Y-45478D01*
X41866Y-45430D01*
X41842Y-45335D01*
X41842Y-45169D01*
X41866Y-45073D01*
X41914Y-45026D01*
X41961Y-45002D01*
X42390Y-45502D02*
X42390Y-45002D01*
X42676Y-45502D01*
X42676Y-45002D01*
X42914Y-45502D02*
X42914Y-45002D01*
X43200Y-45502D01*
X43200Y-45002D01*
X43319Y-45550D02*
X43700Y-45550D01*
X44080Y-45502D02*
X43795Y-45502D01*
X43938Y-45502D02*
X43938Y-45002D01*
X43890Y-45073D01*
X43842Y-45121D01*
X43795Y-45145D01*
X44390Y-45002D02*
X44438Y-45002D01*
X44485Y-45026D01*
X44509Y-45050D01*
X44533Y-45097D01*
X44557Y-45192D01*
X44557Y-45311D01*
X44533Y-45407D01*
X44509Y-45454D01*
X44485Y-45478D01*
X44438Y-45502D01*
X44390Y-45502D01*
X44342Y-45478D01*
X44319Y-45454D01*
X44295Y-45407D01*
X44271Y-45311D01*
X44271Y-45192D01*
X44295Y-45097D01*
X44319Y-45050D01*
X44342Y-45026D01*
X44390Y-45002D01*
X64452Y-31207D02*
X63952Y-31207D01*
X63952Y-31016D01*
X63976Y-30969D01*
X64000Y-30945D01*
X64047Y-30921D01*
X64119Y-30921D01*
X64166Y-30945D01*
X64190Y-30969D01*
X64214Y-31016D01*
X64214Y-31207D01*
X64452Y-30445D02*
X64452Y-30730D01*
X64452Y-30588D02*
X63952Y-30588D01*
X64023Y-30635D01*
X64071Y-30683D01*
X64095Y-30730D01*
X63952Y-30278D02*
X63952Y-29969D01*
X64142Y-30135D01*
X64142Y-30064D01*
X64166Y-30016D01*
X64190Y-29992D01*
X64238Y-29969D01*
X64357Y-29969D01*
X64404Y-29992D01*
X64428Y-30016D01*
X64452Y-30064D01*
X64452Y-30207D01*
X64428Y-30254D01*
X64404Y-30278D01*
X65154Y-31647D02*
X65178Y-31671D01*
X65202Y-31742D01*
X65202Y-31790D01*
X65178Y-31861D01*
X65130Y-31909D01*
X65083Y-31933D01*
X64988Y-31957D01*
X64916Y-31957D01*
X64821Y-31933D01*
X64773Y-31909D01*
X64726Y-31861D01*
X64702Y-31790D01*
X64702Y-31742D01*
X64726Y-31671D01*
X64750Y-31647D01*
X64702Y-31338D02*
X64702Y-31242D01*
X64726Y-31195D01*
X64773Y-31147D01*
X64869Y-31123D01*
X65035Y-31123D01*
X65130Y-31147D01*
X65178Y-31195D01*
X65202Y-31242D01*
X65202Y-31338D01*
X65178Y-31385D01*
X65130Y-31433D01*
X65035Y-31457D01*
X64869Y-31457D01*
X64773Y-31433D01*
X64726Y-31385D01*
X64702Y-31338D01*
X65202Y-30909D02*
X64702Y-30909D01*
X65202Y-30623D01*
X64702Y-30623D01*
X65202Y-30385D02*
X64702Y-30385D01*
X65202Y-30100D01*
X64702Y-30100D01*
X65250Y-29980D02*
X65250Y-29600D01*
X65202Y-29219D02*
X65202Y-29504D01*
X65202Y-29361D02*
X64702Y-29361D01*
X64773Y-29409D01*
X64821Y-29457D01*
X64845Y-29504D01*
X64702Y-28909D02*
X64702Y-28861D01*
X64726Y-28814D01*
X64750Y-28790D01*
X64797Y-28766D01*
X64892Y-28742D01*
X65011Y-28742D01*
X65107Y-28766D01*
X65154Y-28790D01*
X65178Y-28814D01*
X65202Y-28861D01*
X65202Y-28909D01*
X65178Y-28957D01*
X65154Y-28980D01*
X65107Y-29004D01*
X65011Y-29028D01*
X64892Y-29028D01*
X64797Y-29004D01*
X64750Y-28980D01*
X64726Y-28957D01*
X64702Y-28909D01*
G54D15*
X53254Y-37173D02*
X53160Y-37107D01*
X53254Y-37060D02*
X53057Y-37060D01*
X53057Y-37135D01*
X53067Y-37154D01*
X53076Y-37163D01*
X53095Y-37173D01*
X53123Y-37173D01*
X53142Y-37163D01*
X53151Y-37154D01*
X53160Y-37135D01*
X53160Y-37060D01*
X53123Y-37342D02*
X53254Y-37342D01*
X53048Y-37295D02*
X53189Y-37248D01*
X53189Y-37370D01*
X53142Y-37473D02*
X53132Y-37454D01*
X53123Y-37445D01*
X53104Y-37436D01*
X53095Y-37436D01*
X53076Y-37445D01*
X53067Y-37454D01*
X53057Y-37473D01*
X53057Y-37511D01*
X53067Y-37529D01*
X53076Y-37539D01*
X53095Y-37548D01*
X53104Y-37548D01*
X53123Y-37539D01*
X53132Y-37529D01*
X53142Y-37511D01*
X53142Y-37473D01*
X53151Y-37454D01*
X53160Y-37445D01*
X53179Y-37436D01*
X53217Y-37436D01*
X53235Y-37445D01*
X53245Y-37454D01*
X53254Y-37473D01*
X53254Y-37511D01*
X53245Y-37529D01*
X53235Y-37539D01*
X53217Y-37548D01*
X53179Y-37548D01*
X53160Y-37539D01*
X53151Y-37529D01*
X53142Y-37511D01*
X53529Y-37168D02*
X53529Y-37056D01*
X53529Y-37112D02*
X53332Y-37112D01*
X53360Y-37093D01*
X53379Y-37074D01*
X53389Y-37056D01*
X53332Y-37290D02*
X53332Y-37309D01*
X53342Y-37328D01*
X53351Y-37337D01*
X53370Y-37346D01*
X53407Y-37356D01*
X53454Y-37356D01*
X53492Y-37346D01*
X53510Y-37337D01*
X53520Y-37328D01*
X53529Y-37309D01*
X53529Y-37290D01*
X53520Y-37271D01*
X53510Y-37262D01*
X53492Y-37253D01*
X53454Y-37243D01*
X53407Y-37243D01*
X53370Y-37253D01*
X53351Y-37262D01*
X53342Y-37271D01*
X53332Y-37290D01*
X53332Y-37478D02*
X53332Y-37497D01*
X53342Y-37515D01*
X53351Y-37525D01*
X53370Y-37534D01*
X53407Y-37543D01*
X53454Y-37543D01*
X53492Y-37534D01*
X53510Y-37525D01*
X53520Y-37515D01*
X53529Y-37497D01*
X53529Y-37478D01*
X53520Y-37459D01*
X53510Y-37450D01*
X53492Y-37440D01*
X53454Y-37431D01*
X53407Y-37431D01*
X53370Y-37440D01*
X53351Y-37450D01*
X53342Y-37459D01*
X53332Y-37478D01*
X55254Y-37173D02*
X55160Y-37107D01*
X55254Y-37060D02*
X55057Y-37060D01*
X55057Y-37135D01*
X55067Y-37154D01*
X55076Y-37163D01*
X55095Y-37173D01*
X55123Y-37173D01*
X55142Y-37163D01*
X55151Y-37154D01*
X55160Y-37135D01*
X55160Y-37060D01*
X55123Y-37342D02*
X55254Y-37342D01*
X55048Y-37295D02*
X55189Y-37248D01*
X55189Y-37370D01*
X55254Y-37454D02*
X55254Y-37492D01*
X55245Y-37511D01*
X55235Y-37520D01*
X55207Y-37539D01*
X55170Y-37548D01*
X55095Y-37548D01*
X55076Y-37539D01*
X55067Y-37529D01*
X55057Y-37511D01*
X55057Y-37473D01*
X55067Y-37454D01*
X55076Y-37445D01*
X55095Y-37436D01*
X55142Y-37436D01*
X55160Y-37445D01*
X55170Y-37454D01*
X55179Y-37473D01*
X55179Y-37511D01*
X55170Y-37529D01*
X55160Y-37539D01*
X55142Y-37548D01*
X55529Y-37168D02*
X55529Y-37056D01*
X55529Y-37112D02*
X55332Y-37112D01*
X55360Y-37093D01*
X55379Y-37074D01*
X55389Y-37056D01*
X55332Y-37290D02*
X55332Y-37309D01*
X55342Y-37328D01*
X55351Y-37337D01*
X55370Y-37346D01*
X55407Y-37356D01*
X55454Y-37356D01*
X55492Y-37346D01*
X55510Y-37337D01*
X55520Y-37328D01*
X55529Y-37309D01*
X55529Y-37290D01*
X55520Y-37271D01*
X55510Y-37262D01*
X55492Y-37253D01*
X55454Y-37243D01*
X55407Y-37243D01*
X55370Y-37253D01*
X55351Y-37262D01*
X55342Y-37271D01*
X55332Y-37290D01*
X55332Y-37478D02*
X55332Y-37497D01*
X55342Y-37515D01*
X55351Y-37525D01*
X55370Y-37534D01*
X55407Y-37543D01*
X55454Y-37543D01*
X55492Y-37534D01*
X55510Y-37525D01*
X55520Y-37515D01*
X55529Y-37497D01*
X55529Y-37478D01*
X55520Y-37459D01*
X55510Y-37450D01*
X55492Y-37440D01*
X55454Y-37431D01*
X55407Y-37431D01*
X55370Y-37440D01*
X55351Y-37450D01*
X55342Y-37459D01*
X55332Y-37478D01*
X57026Y-41104D02*
X57092Y-41010D01*
X57139Y-41104D02*
X57139Y-40907D01*
X57064Y-40907D01*
X57045Y-40917D01*
X57036Y-40926D01*
X57026Y-40945D01*
X57026Y-40973D01*
X57036Y-40992D01*
X57045Y-41001D01*
X57064Y-41010D01*
X57139Y-41010D01*
X56848Y-40907D02*
X56942Y-40907D01*
X56951Y-41001D01*
X56942Y-40992D01*
X56923Y-40982D01*
X56876Y-40982D01*
X56857Y-40992D01*
X56848Y-41001D01*
X56839Y-41020D01*
X56839Y-41067D01*
X56848Y-41085D01*
X56857Y-41095D01*
X56876Y-41104D01*
X56923Y-41104D01*
X56942Y-41095D01*
X56951Y-41085D01*
X56717Y-40907D02*
X56698Y-40907D01*
X56679Y-40917D01*
X56670Y-40926D01*
X56660Y-40945D01*
X56651Y-40982D01*
X56651Y-41029D01*
X56660Y-41067D01*
X56670Y-41085D01*
X56679Y-41095D01*
X56698Y-41104D01*
X56717Y-41104D01*
X56735Y-41095D01*
X56745Y-41085D01*
X56754Y-41067D01*
X56763Y-41029D01*
X56763Y-40982D01*
X56754Y-40945D01*
X56745Y-40926D01*
X56735Y-40917D01*
X56717Y-40907D01*
X57031Y-40829D02*
X57143Y-40829D01*
X57087Y-40829D02*
X57087Y-40632D01*
X57106Y-40660D01*
X57125Y-40679D01*
X57143Y-40689D01*
X56909Y-40632D02*
X56890Y-40632D01*
X56871Y-40642D01*
X56862Y-40651D01*
X56853Y-40670D01*
X56843Y-40707D01*
X56843Y-40754D01*
X56853Y-40792D01*
X56862Y-40810D01*
X56871Y-40820D01*
X56890Y-40829D01*
X56909Y-40829D01*
X56928Y-40820D01*
X56937Y-40810D01*
X56946Y-40792D01*
X56956Y-40754D01*
X56956Y-40707D01*
X56946Y-40670D01*
X56937Y-40651D01*
X56928Y-40642D01*
X56909Y-40632D01*
X56721Y-40632D02*
X56703Y-40632D01*
X56684Y-40642D01*
X56674Y-40651D01*
X56665Y-40670D01*
X56656Y-40707D01*
X56656Y-40754D01*
X56665Y-40792D01*
X56674Y-40810D01*
X56684Y-40820D01*
X56703Y-40829D01*
X56721Y-40829D01*
X56740Y-40820D01*
X56749Y-40810D01*
X56759Y-40792D01*
X56768Y-40754D01*
X56768Y-40707D01*
X56759Y-40670D01*
X56749Y-40651D01*
X56740Y-40642D01*
X56721Y-40632D01*
G54D14*
X47392Y-4552D02*
X47392Y-4052D01*
X47583Y-4052D01*
X47630Y-4076D01*
X47654Y-4100D01*
X47678Y-4147D01*
X47678Y-4219D01*
X47654Y-4266D01*
X47630Y-4290D01*
X47583Y-4314D01*
X47392Y-4314D01*
X48154Y-4552D02*
X47869Y-4552D01*
X48011Y-4552D02*
X48011Y-4052D01*
X47964Y-4123D01*
X47916Y-4171D01*
X47869Y-4195D01*
X48583Y-4219D02*
X48583Y-4552D01*
X48464Y-4028D02*
X48345Y-4385D01*
X48654Y-4385D01*
X46690Y-3754D02*
X46666Y-3778D01*
X46595Y-3802D01*
X46547Y-3802D01*
X46476Y-3778D01*
X46428Y-3730D01*
X46404Y-3683D01*
X46380Y-3588D01*
X46380Y-3516D01*
X46404Y-3421D01*
X46428Y-3373D01*
X46476Y-3326D01*
X46547Y-3302D01*
X46595Y-3302D01*
X46666Y-3326D01*
X46690Y-3350D01*
X47000Y-3302D02*
X47095Y-3302D01*
X47142Y-3326D01*
X47190Y-3373D01*
X47214Y-3469D01*
X47214Y-3635D01*
X47190Y-3730D01*
X47142Y-3778D01*
X47095Y-3802D01*
X47000Y-3802D01*
X46952Y-3778D01*
X46904Y-3730D01*
X46880Y-3635D01*
X46880Y-3469D01*
X46904Y-3373D01*
X46952Y-3326D01*
X47000Y-3302D01*
X47428Y-3802D02*
X47428Y-3302D01*
X47714Y-3802D01*
X47714Y-3302D01*
X47952Y-3802D02*
X47952Y-3302D01*
X48238Y-3802D01*
X48238Y-3302D01*
X48357Y-3850D02*
X48738Y-3850D01*
X49071Y-3302D02*
X48976Y-3302D01*
X48928Y-3326D01*
X48904Y-3350D01*
X48857Y-3421D01*
X48833Y-3516D01*
X48833Y-3707D01*
X48857Y-3754D01*
X48880Y-3778D01*
X48928Y-3802D01*
X49023Y-3802D01*
X49071Y-3778D01*
X49095Y-3754D01*
X49119Y-3707D01*
X49119Y-3588D01*
X49095Y-3540D01*
X49071Y-3516D01*
X49023Y-3492D01*
X48928Y-3492D01*
X48880Y-3516D01*
X48857Y-3540D01*
X48833Y-3588D01*
X54492Y-4552D02*
X54492Y-4052D01*
X54683Y-4052D01*
X54730Y-4076D01*
X54754Y-4100D01*
X54778Y-4147D01*
X54778Y-4219D01*
X54754Y-4266D01*
X54730Y-4290D01*
X54683Y-4314D01*
X54492Y-4314D01*
X55254Y-4552D02*
X54969Y-4552D01*
X55111Y-4552D02*
X55111Y-4052D01*
X55064Y-4123D01*
X55016Y-4171D01*
X54969Y-4195D01*
X55707Y-4052D02*
X55469Y-4052D01*
X55445Y-4290D01*
X55469Y-4266D01*
X55516Y-4242D01*
X55635Y-4242D01*
X55683Y-4266D01*
X55707Y-4290D01*
X55730Y-4338D01*
X55730Y-4457D01*
X55707Y-4504D01*
X55683Y-4528D01*
X55635Y-4552D01*
X55516Y-4552D01*
X55469Y-4528D01*
X55445Y-4504D01*
X53790Y-3754D02*
X53766Y-3778D01*
X53695Y-3802D01*
X53647Y-3802D01*
X53576Y-3778D01*
X53528Y-3730D01*
X53504Y-3683D01*
X53480Y-3588D01*
X53480Y-3516D01*
X53504Y-3421D01*
X53528Y-3373D01*
X53576Y-3326D01*
X53647Y-3302D01*
X53695Y-3302D01*
X53766Y-3326D01*
X53790Y-3350D01*
X54100Y-3302D02*
X54195Y-3302D01*
X54242Y-3326D01*
X54290Y-3373D01*
X54314Y-3469D01*
X54314Y-3635D01*
X54290Y-3730D01*
X54242Y-3778D01*
X54195Y-3802D01*
X54100Y-3802D01*
X54052Y-3778D01*
X54004Y-3730D01*
X53980Y-3635D01*
X53980Y-3469D01*
X54004Y-3373D01*
X54052Y-3326D01*
X54100Y-3302D01*
X54528Y-3802D02*
X54528Y-3302D01*
X54814Y-3802D01*
X54814Y-3302D01*
X55052Y-3802D02*
X55052Y-3302D01*
X55338Y-3802D01*
X55338Y-3302D01*
X55457Y-3850D02*
X55838Y-3850D01*
X56171Y-3302D02*
X56076Y-3302D01*
X56028Y-3326D01*
X56004Y-3350D01*
X55957Y-3421D01*
X55933Y-3516D01*
X55933Y-3707D01*
X55957Y-3754D01*
X55980Y-3778D01*
X56028Y-3802D01*
X56123Y-3802D01*
X56171Y-3778D01*
X56195Y-3754D01*
X56219Y-3707D01*
X56219Y-3588D01*
X56195Y-3540D01*
X56171Y-3516D01*
X56123Y-3492D01*
X56028Y-3492D01*
X55980Y-3516D01*
X55957Y-3540D01*
X55933Y-3588D01*
G54D16*
X53850Y-40871D02*
X53835Y-40842D01*
X53807Y-40814D01*
X53764Y-40771D01*
X53750Y-40742D01*
X53750Y-40714D01*
X53821Y-40728D02*
X53807Y-40700D01*
X53778Y-40671D01*
X53721Y-40657D01*
X53621Y-40657D01*
X53564Y-40671D01*
X53535Y-40700D01*
X53521Y-40728D01*
X53521Y-40785D01*
X53535Y-40814D01*
X53564Y-40842D01*
X53621Y-40857D01*
X53721Y-40857D01*
X53778Y-40842D01*
X53807Y-40814D01*
X53821Y-40785D01*
X53821Y-40728D01*
X53821Y-41142D02*
X53821Y-40971D01*
X53821Y-41057D02*
X53521Y-41057D01*
X53564Y-41028D01*
X53592Y-41000D01*
X53607Y-40971D01*
X54671Y-39850D02*
X54371Y-39850D01*
X54585Y-39950D01*
X54371Y-40050D01*
X54671Y-40050D01*
X54371Y-40250D02*
X54371Y-40307D01*
X54385Y-40335D01*
X54414Y-40364D01*
X54471Y-40378D01*
X54571Y-40378D01*
X54628Y-40364D01*
X54657Y-40335D01*
X54671Y-40307D01*
X54671Y-40250D01*
X54657Y-40221D01*
X54628Y-40192D01*
X54571Y-40178D01*
X54471Y-40178D01*
X54414Y-40192D01*
X54385Y-40221D01*
X54371Y-40250D01*
X54657Y-40492D02*
X54671Y-40535D01*
X54671Y-40607D01*
X54657Y-40635D01*
X54642Y-40650D01*
X54614Y-40664D01*
X54585Y-40664D01*
X54557Y-40650D01*
X54542Y-40635D01*
X54528Y-40607D01*
X54514Y-40550D01*
X54500Y-40521D01*
X54485Y-40507D01*
X54457Y-40492D01*
X54428Y-40492D01*
X54400Y-40507D01*
X54385Y-40521D01*
X54371Y-40550D01*
X54371Y-40621D01*
X54385Y-40664D01*
X54514Y-40892D02*
X54514Y-40792D01*
X54671Y-40792D02*
X54371Y-40792D01*
X54371Y-40935D01*
X54514Y-41050D02*
X54514Y-41150D01*
X54671Y-41192D02*
X54671Y-41050D01*
X54371Y-41050D01*
X54371Y-41192D01*
X54371Y-41278D02*
X54371Y-41450D01*
X54671Y-41364D02*
X54371Y-41364D01*
X54700Y-41478D02*
X54700Y-41707D01*
X54671Y-41778D02*
X54371Y-41778D01*
X54671Y-41950D01*
X54371Y-41950D01*
X44350Y-40921D02*
X44335Y-40892D01*
X44307Y-40864D01*
X44264Y-40821D01*
X44250Y-40792D01*
X44250Y-40764D01*
X44321Y-40778D02*
X44307Y-40750D01*
X44278Y-40721D01*
X44221Y-40707D01*
X44121Y-40707D01*
X44064Y-40721D01*
X44035Y-40750D01*
X44021Y-40778D01*
X44021Y-40835D01*
X44035Y-40864D01*
X44064Y-40892D01*
X44121Y-40907D01*
X44221Y-40907D01*
X44278Y-40892D01*
X44307Y-40864D01*
X44321Y-40835D01*
X44321Y-40778D01*
X44050Y-41021D02*
X44035Y-41035D01*
X44021Y-41064D01*
X44021Y-41135D01*
X44035Y-41164D01*
X44050Y-41178D01*
X44078Y-41192D01*
X44107Y-41192D01*
X44150Y-41178D01*
X44321Y-41007D01*
X44321Y-41192D01*
X45171Y-39900D02*
X44871Y-39900D01*
X45085Y-40000D01*
X44871Y-40100D01*
X45171Y-40100D01*
X44871Y-40300D02*
X44871Y-40357D01*
X44885Y-40385D01*
X44914Y-40414D01*
X44971Y-40428D01*
X45071Y-40428D01*
X45128Y-40414D01*
X45157Y-40385D01*
X45171Y-40357D01*
X45171Y-40300D01*
X45157Y-40271D01*
X45128Y-40242D01*
X45071Y-40228D01*
X44971Y-40228D01*
X44914Y-40242D01*
X44885Y-40271D01*
X44871Y-40300D01*
X45157Y-40542D02*
X45171Y-40585D01*
X45171Y-40657D01*
X45157Y-40685D01*
X45142Y-40700D01*
X45114Y-40714D01*
X45085Y-40714D01*
X45057Y-40700D01*
X45042Y-40685D01*
X45028Y-40657D01*
X45014Y-40600D01*
X45000Y-40571D01*
X44985Y-40557D01*
X44957Y-40542D01*
X44928Y-40542D01*
X44900Y-40557D01*
X44885Y-40571D01*
X44871Y-40600D01*
X44871Y-40671D01*
X44885Y-40714D01*
X45014Y-40942D02*
X45014Y-40842D01*
X45171Y-40842D02*
X44871Y-40842D01*
X44871Y-40985D01*
X45014Y-41100D02*
X45014Y-41200D01*
X45171Y-41242D02*
X45171Y-41100D01*
X44871Y-41100D01*
X44871Y-41242D01*
X44871Y-41328D02*
X44871Y-41500D01*
X45171Y-41414D02*
X44871Y-41414D01*
X45200Y-41528D02*
X45200Y-41757D01*
X45171Y-41828D02*
X44871Y-41828D01*
X45171Y-42000D01*
X44871Y-42000D01*
G54D15*
X53304Y-40723D02*
X53210Y-40657D01*
X53304Y-40610D02*
X53107Y-40610D01*
X53107Y-40685D01*
X53117Y-40704D01*
X53126Y-40713D01*
X53145Y-40723D01*
X53173Y-40723D01*
X53192Y-40713D01*
X53201Y-40704D01*
X53210Y-40685D01*
X53210Y-40610D01*
X53107Y-40901D02*
X53107Y-40807D01*
X53201Y-40798D01*
X53192Y-40807D01*
X53182Y-40826D01*
X53182Y-40873D01*
X53192Y-40892D01*
X53201Y-40901D01*
X53220Y-40910D01*
X53267Y-40910D01*
X53285Y-40901D01*
X53295Y-40892D01*
X53304Y-40873D01*
X53304Y-40826D01*
X53295Y-40807D01*
X53285Y-40798D01*
X53304Y-41098D02*
X53304Y-40986D01*
X53304Y-41042D02*
X53107Y-41042D01*
X53135Y-41023D01*
X53154Y-41004D01*
X53164Y-40986D01*
X53029Y-40713D02*
X53029Y-40601D01*
X53029Y-40657D02*
X52832Y-40657D01*
X52860Y-40638D01*
X52879Y-40620D01*
X52889Y-40601D01*
X52832Y-40835D02*
X52832Y-40854D01*
X52842Y-40873D01*
X52851Y-40882D01*
X52870Y-40892D01*
X52907Y-40901D01*
X52954Y-40901D01*
X52992Y-40892D01*
X53010Y-40882D01*
X53020Y-40873D01*
X53029Y-40854D01*
X53029Y-40835D01*
X53020Y-40817D01*
X53010Y-40807D01*
X52992Y-40798D01*
X52954Y-40789D01*
X52907Y-40789D01*
X52870Y-40798D01*
X52851Y-40807D01*
X52842Y-40817D01*
X52832Y-40835D01*
X53029Y-40986D02*
X52832Y-40986D01*
X53029Y-41098D02*
X52917Y-41014D01*
X52832Y-41098D02*
X52945Y-40986D01*
X43804Y-40823D02*
X43710Y-40757D01*
X43804Y-40710D02*
X43607Y-40710D01*
X43607Y-40785D01*
X43617Y-40804D01*
X43626Y-40813D01*
X43645Y-40823D01*
X43673Y-40823D01*
X43692Y-40813D01*
X43701Y-40804D01*
X43710Y-40785D01*
X43710Y-40710D01*
X43607Y-41001D02*
X43607Y-40907D01*
X43701Y-40898D01*
X43692Y-40907D01*
X43682Y-40926D01*
X43682Y-40973D01*
X43692Y-40992D01*
X43701Y-41001D01*
X43720Y-41010D01*
X43767Y-41010D01*
X43785Y-41001D01*
X43795Y-40992D01*
X43804Y-40973D01*
X43804Y-40926D01*
X43795Y-40907D01*
X43785Y-40898D01*
X43607Y-41076D02*
X43607Y-41198D01*
X43682Y-41132D01*
X43682Y-41161D01*
X43692Y-41179D01*
X43701Y-41189D01*
X43720Y-41198D01*
X43767Y-41198D01*
X43785Y-41189D01*
X43795Y-41179D01*
X43804Y-41161D01*
X43804Y-41104D01*
X43795Y-41086D01*
X43785Y-41076D01*
X43529Y-40813D02*
X43529Y-40701D01*
X43529Y-40757D02*
X43332Y-40757D01*
X43360Y-40738D01*
X43379Y-40720D01*
X43389Y-40701D01*
X43332Y-40935D02*
X43332Y-40954D01*
X43342Y-40973D01*
X43351Y-40982D01*
X43370Y-40992D01*
X43407Y-41001D01*
X43454Y-41001D01*
X43492Y-40992D01*
X43510Y-40982D01*
X43520Y-40973D01*
X43529Y-40954D01*
X43529Y-40935D01*
X43520Y-40917D01*
X43510Y-40907D01*
X43492Y-40898D01*
X43454Y-40889D01*
X43407Y-40889D01*
X43370Y-40898D01*
X43351Y-40907D01*
X43342Y-40917D01*
X43332Y-40935D01*
X43529Y-41086D02*
X43332Y-41086D01*
X43529Y-41198D02*
X43417Y-41114D01*
X43332Y-41198D02*
X43445Y-41086D01*
X46876Y-41154D02*
X46942Y-41060D01*
X46989Y-41154D02*
X46989Y-40957D01*
X46914Y-40957D01*
X46895Y-40967D01*
X46886Y-40976D01*
X46876Y-40995D01*
X46876Y-41023D01*
X46886Y-41042D01*
X46895Y-41051D01*
X46914Y-41060D01*
X46989Y-41060D01*
X46698Y-40957D02*
X46792Y-40957D01*
X46801Y-41051D01*
X46792Y-41042D01*
X46773Y-41032D01*
X46726Y-41032D01*
X46707Y-41042D01*
X46698Y-41051D01*
X46689Y-41070D01*
X46689Y-41117D01*
X46698Y-41135D01*
X46707Y-41145D01*
X46726Y-41154D01*
X46773Y-41154D01*
X46792Y-41145D01*
X46801Y-41135D01*
X46520Y-41023D02*
X46520Y-41154D01*
X46567Y-40948D02*
X46613Y-41089D01*
X46492Y-41089D01*
X46881Y-40879D02*
X46993Y-40879D01*
X46937Y-40879D02*
X46937Y-40682D01*
X46956Y-40710D01*
X46975Y-40729D01*
X46993Y-40739D01*
X46759Y-40682D02*
X46740Y-40682D01*
X46721Y-40692D01*
X46712Y-40701D01*
X46703Y-40720D01*
X46693Y-40757D01*
X46693Y-40804D01*
X46703Y-40842D01*
X46712Y-40860D01*
X46721Y-40870D01*
X46740Y-40879D01*
X46759Y-40879D01*
X46778Y-40870D01*
X46787Y-40860D01*
X46796Y-40842D01*
X46806Y-40804D01*
X46806Y-40757D01*
X46796Y-40720D01*
X46787Y-40701D01*
X46778Y-40692D01*
X46759Y-40682D01*
X46571Y-40682D02*
X46553Y-40682D01*
X46534Y-40692D01*
X46524Y-40701D01*
X46515Y-40720D01*
X46506Y-40757D01*
X46506Y-40804D01*
X46515Y-40842D01*
X46524Y-40860D01*
X46534Y-40870D01*
X46553Y-40879D01*
X46571Y-40879D01*
X46590Y-40870D01*
X46599Y-40860D01*
X46609Y-40842D01*
X46618Y-40804D01*
X46618Y-40757D01*
X46609Y-40720D01*
X46599Y-40701D01*
X46590Y-40692D01*
X46571Y-40682D01*
X57354Y-37173D02*
X57260Y-37107D01*
X57354Y-37060D02*
X57157Y-37060D01*
X57157Y-37135D01*
X57167Y-37154D01*
X57176Y-37163D01*
X57195Y-37173D01*
X57223Y-37173D01*
X57242Y-37163D01*
X57251Y-37154D01*
X57260Y-37135D01*
X57260Y-37060D01*
X57157Y-37351D02*
X57157Y-37257D01*
X57251Y-37248D01*
X57242Y-37257D01*
X57232Y-37276D01*
X57232Y-37323D01*
X57242Y-37342D01*
X57251Y-37351D01*
X57270Y-37360D01*
X57317Y-37360D01*
X57335Y-37351D01*
X57345Y-37342D01*
X57354Y-37323D01*
X57354Y-37276D01*
X57345Y-37257D01*
X57335Y-37248D01*
X57176Y-37436D02*
X57167Y-37445D01*
X57157Y-37464D01*
X57157Y-37511D01*
X57167Y-37529D01*
X57176Y-37539D01*
X57195Y-37548D01*
X57214Y-37548D01*
X57242Y-37539D01*
X57354Y-37426D01*
X57354Y-37548D01*
X57629Y-37168D02*
X57629Y-37056D01*
X57629Y-37112D02*
X57432Y-37112D01*
X57460Y-37093D01*
X57479Y-37074D01*
X57489Y-37056D01*
X57432Y-37290D02*
X57432Y-37309D01*
X57442Y-37328D01*
X57451Y-37337D01*
X57470Y-37346D01*
X57507Y-37356D01*
X57554Y-37356D01*
X57592Y-37346D01*
X57610Y-37337D01*
X57620Y-37328D01*
X57629Y-37309D01*
X57629Y-37290D01*
X57620Y-37271D01*
X57610Y-37262D01*
X57592Y-37253D01*
X57554Y-37243D01*
X57507Y-37243D01*
X57470Y-37253D01*
X57451Y-37262D01*
X57442Y-37271D01*
X57432Y-37290D01*
X57432Y-37478D02*
X57432Y-37497D01*
X57442Y-37515D01*
X57451Y-37525D01*
X57470Y-37534D01*
X57507Y-37543D01*
X57554Y-37543D01*
X57592Y-37534D01*
X57610Y-37525D01*
X57620Y-37515D01*
X57629Y-37497D01*
X57629Y-37478D01*
X57620Y-37459D01*
X57610Y-37450D01*
X57592Y-37440D01*
X57554Y-37431D01*
X57507Y-37431D01*
X57470Y-37440D01*
X57451Y-37450D01*
X57442Y-37459D01*
X57432Y-37478D01*
G54D16*
X60328Y-38250D02*
X60357Y-38235D01*
X60385Y-38207D01*
X60428Y-38164D01*
X60457Y-38150D01*
X60485Y-38150D01*
X60471Y-38221D02*
X60500Y-38207D01*
X60528Y-38178D01*
X60542Y-38121D01*
X60542Y-38021D01*
X60528Y-37964D01*
X60500Y-37935D01*
X60471Y-37921D01*
X60414Y-37921D01*
X60385Y-37935D01*
X60357Y-37964D01*
X60342Y-38021D01*
X60342Y-38121D01*
X60357Y-38178D01*
X60385Y-38207D01*
X60414Y-38221D01*
X60471Y-38221D01*
X60242Y-37921D02*
X60057Y-37921D01*
X60157Y-38035D01*
X60114Y-38035D01*
X60085Y-38050D01*
X60071Y-38064D01*
X60057Y-38092D01*
X60057Y-38164D01*
X60071Y-38192D01*
X60085Y-38207D01*
X60114Y-38221D01*
X60200Y-38221D01*
X60228Y-38207D01*
X60242Y-38192D01*
X61349Y-37371D02*
X61349Y-37071D01*
X61249Y-37285D01*
X61149Y-37071D01*
X61149Y-37371D01*
X60950Y-37071D02*
X60892Y-37071D01*
X60864Y-37085D01*
X60835Y-37114D01*
X60821Y-37171D01*
X60821Y-37271D01*
X60835Y-37328D01*
X60864Y-37357D01*
X60892Y-37371D01*
X60950Y-37371D01*
X60978Y-37357D01*
X61007Y-37328D01*
X61021Y-37271D01*
X61021Y-37171D01*
X61007Y-37114D01*
X60978Y-37085D01*
X60950Y-37071D01*
X60707Y-37357D02*
X60664Y-37371D01*
X60592Y-37371D01*
X60564Y-37357D01*
X60549Y-37342D01*
X60535Y-37314D01*
X60535Y-37285D01*
X60549Y-37257D01*
X60564Y-37242D01*
X60592Y-37228D01*
X60649Y-37214D01*
X60678Y-37200D01*
X60692Y-37185D01*
X60707Y-37157D01*
X60707Y-37128D01*
X60692Y-37100D01*
X60678Y-37085D01*
X60649Y-37071D01*
X60578Y-37071D01*
X60535Y-37085D01*
X60307Y-37214D02*
X60407Y-37214D01*
X60407Y-37371D02*
X60407Y-37071D01*
X60264Y-37071D01*
X60149Y-37214D02*
X60049Y-37214D01*
X60007Y-37371D02*
X60149Y-37371D01*
X60149Y-37071D01*
X60007Y-37071D01*
X59921Y-37071D02*
X59749Y-37071D01*
X59835Y-37371D02*
X59835Y-37071D01*
X59721Y-37400D02*
X59492Y-37400D01*
X59421Y-37371D02*
X59421Y-37071D01*
X59250Y-37371D01*
X59250Y-37071D01*
G54D15*
X61804Y-37123D02*
X61710Y-37057D01*
X61804Y-37010D02*
X61607Y-37010D01*
X61607Y-37085D01*
X61617Y-37104D01*
X61626Y-37113D01*
X61645Y-37123D01*
X61673Y-37123D01*
X61692Y-37113D01*
X61701Y-37104D01*
X61710Y-37085D01*
X61710Y-37010D01*
X61607Y-37301D02*
X61607Y-37207D01*
X61701Y-37198D01*
X61692Y-37207D01*
X61682Y-37226D01*
X61682Y-37273D01*
X61692Y-37292D01*
X61701Y-37301D01*
X61720Y-37310D01*
X61767Y-37310D01*
X61785Y-37301D01*
X61795Y-37292D01*
X61804Y-37273D01*
X61804Y-37226D01*
X61795Y-37207D01*
X61785Y-37198D01*
X61607Y-37489D02*
X61607Y-37395D01*
X61701Y-37386D01*
X61692Y-37395D01*
X61682Y-37414D01*
X61682Y-37461D01*
X61692Y-37479D01*
X61701Y-37489D01*
X61720Y-37498D01*
X61767Y-37498D01*
X61785Y-37489D01*
X61795Y-37479D01*
X61804Y-37461D01*
X61804Y-37414D01*
X61795Y-37395D01*
X61785Y-37386D01*
X61529Y-37113D02*
X61529Y-37001D01*
X61529Y-37057D02*
X61332Y-37057D01*
X61360Y-37038D01*
X61379Y-37020D01*
X61389Y-37001D01*
X61332Y-37235D02*
X61332Y-37254D01*
X61342Y-37273D01*
X61351Y-37282D01*
X61370Y-37292D01*
X61407Y-37301D01*
X61454Y-37301D01*
X61492Y-37292D01*
X61510Y-37282D01*
X61520Y-37273D01*
X61529Y-37254D01*
X61529Y-37235D01*
X61520Y-37217D01*
X61510Y-37207D01*
X61492Y-37198D01*
X61454Y-37189D01*
X61407Y-37189D01*
X61370Y-37198D01*
X61351Y-37207D01*
X61342Y-37217D01*
X61332Y-37235D01*
X61529Y-37386D02*
X61332Y-37386D01*
X61529Y-37498D02*
X61417Y-37414D01*
X61332Y-37498D02*
X61445Y-37386D01*
G54D14*
X36968Y-14177D02*
X36568Y-14177D01*
X36568Y-14024D01*
X36587Y-13986D01*
X36607Y-13967D01*
X36645Y-13948D01*
X36702Y-13948D01*
X36740Y-13967D01*
X36759Y-13986D01*
X36778Y-14024D01*
X36778Y-14177D01*
X36568Y-13815D02*
X36568Y-13567D01*
X36721Y-13701D01*
X36721Y-13643D01*
X36740Y-13605D01*
X36759Y-13586D01*
X36797Y-13567D01*
X36892Y-13567D01*
X36930Y-13586D01*
X36949Y-13605D01*
X36968Y-13643D01*
X36968Y-13758D01*
X36949Y-13796D01*
X36930Y-13815D01*
X46037Y-14233D02*
X45717Y-14233D01*
X46022Y-14096D02*
X46037Y-14050D01*
X46037Y-13974D01*
X46022Y-13943D01*
X46007Y-13928D01*
X45976Y-13913D01*
X45946Y-13913D01*
X45915Y-13928D01*
X45900Y-13943D01*
X45885Y-13974D01*
X45869Y-14035D01*
X45854Y-14065D01*
X45839Y-14080D01*
X45808Y-14096D01*
X45778Y-14096D01*
X45748Y-14080D01*
X45732Y-14065D01*
X45717Y-14035D01*
X45717Y-13959D01*
X45732Y-13913D01*
X46037Y-13776D02*
X45717Y-13776D01*
X45717Y-13654D01*
X45732Y-13623D01*
X45748Y-13608D01*
X45778Y-13593D01*
X45824Y-13593D01*
X45854Y-13608D01*
X45869Y-13623D01*
X45885Y-13654D01*
X45885Y-13776D01*
X40418Y-14497D02*
X40281Y-14497D01*
X40350Y-14497D02*
X40350Y-14257D01*
X40327Y-14291D01*
X40304Y-14314D01*
X40281Y-14325D01*
X35222Y-32368D02*
X35222Y-31968D01*
X35375Y-31968D01*
X35413Y-31987D01*
X35432Y-32007D01*
X35451Y-32045D01*
X35451Y-32102D01*
X35432Y-32140D01*
X35413Y-32159D01*
X35375Y-32178D01*
X35222Y-32178D01*
X35794Y-31968D02*
X35718Y-31968D01*
X35679Y-31987D01*
X35660Y-32007D01*
X35622Y-32064D01*
X35603Y-32140D01*
X35603Y-32292D01*
X35622Y-32330D01*
X35641Y-32349D01*
X35679Y-32368D01*
X35756Y-32368D01*
X35794Y-32349D01*
X35813Y-32330D01*
X35832Y-32292D01*
X35832Y-32197D01*
X35813Y-32159D01*
X35794Y-32140D01*
X35756Y-32121D01*
X35679Y-32121D01*
X35641Y-32140D01*
X35622Y-32159D01*
X35603Y-32197D01*
X34343Y-41407D02*
X34328Y-41422D01*
X34282Y-41437D01*
X34252Y-41437D01*
X34206Y-41422D01*
X34176Y-41391D01*
X34160Y-41361D01*
X34145Y-41300D01*
X34145Y-41254D01*
X34160Y-41193D01*
X34176Y-41163D01*
X34206Y-41132D01*
X34252Y-41117D01*
X34282Y-41117D01*
X34328Y-41132D01*
X34343Y-41148D01*
X34541Y-41117D02*
X34602Y-41117D01*
X34633Y-41132D01*
X34663Y-41163D01*
X34679Y-41224D01*
X34679Y-41330D01*
X34663Y-41391D01*
X34633Y-41422D01*
X34602Y-41437D01*
X34541Y-41437D01*
X34511Y-41422D01*
X34480Y-41391D01*
X34465Y-41330D01*
X34465Y-41224D01*
X34480Y-41163D01*
X34511Y-41132D01*
X34541Y-41117D01*
X34816Y-41437D02*
X34816Y-41117D01*
X34999Y-41437D01*
X34999Y-41117D01*
X35151Y-41437D02*
X35151Y-41117D01*
X35334Y-41437D01*
X35334Y-41117D01*
X35410Y-41468D02*
X35654Y-41468D01*
X35898Y-41437D02*
X35715Y-41437D01*
X35806Y-41437D02*
X35806Y-41117D01*
X35776Y-41163D01*
X35745Y-41193D01*
X35715Y-41208D01*
X36096Y-41117D02*
X36126Y-41117D01*
X36157Y-41132D01*
X36172Y-41148D01*
X36187Y-41178D01*
X36202Y-41239D01*
X36202Y-41315D01*
X36187Y-41376D01*
X36172Y-41407D01*
X36157Y-41422D01*
X36126Y-41437D01*
X36096Y-41437D01*
X36065Y-41422D01*
X36050Y-41407D01*
X36035Y-41376D01*
X36019Y-41315D01*
X36019Y-41239D01*
X36035Y-41178D01*
X36050Y-41148D01*
X36065Y-41132D01*
X36096Y-41117D01*
X36309Y-41117D02*
X36522Y-41437D01*
X36522Y-41117D02*
X36309Y-41437D01*
X36629Y-41148D02*
X36644Y-41132D01*
X36675Y-41117D01*
X36751Y-41117D01*
X36781Y-41132D01*
X36797Y-41148D01*
X36812Y-41178D01*
X36812Y-41208D01*
X36797Y-41254D01*
X36614Y-41437D01*
X36812Y-41437D01*
X35097Y-32181D02*
X35097Y-32318D01*
X35097Y-32249D02*
X34857Y-32249D01*
X34891Y-32272D01*
X34914Y-32295D01*
X34925Y-32318D01*
X35319Y-22552D02*
X35319Y-22957D01*
X35342Y-23004D01*
X35366Y-23028D01*
X35414Y-23052D01*
X35509Y-23052D01*
X35557Y-23028D01*
X35580Y-23004D01*
X35604Y-22957D01*
X35604Y-22552D01*
X35819Y-22600D02*
X35842Y-22576D01*
X35890Y-22552D01*
X36009Y-22552D01*
X36057Y-22576D01*
X36080Y-22600D01*
X36104Y-22647D01*
X36104Y-22695D01*
X36080Y-22766D01*
X35795Y-23052D01*
X36104Y-23052D01*
X31795Y-20254D02*
X31771Y-20278D01*
X31700Y-20302D01*
X31652Y-20302D01*
X31580Y-20278D01*
X31533Y-20230D01*
X31509Y-20183D01*
X31485Y-20088D01*
X31485Y-20016D01*
X31509Y-19921D01*
X31533Y-19873D01*
X31580Y-19826D01*
X31652Y-19802D01*
X31700Y-19802D01*
X31771Y-19826D01*
X31795Y-19850D01*
X32295Y-20302D02*
X32128Y-20064D01*
X32009Y-20302D02*
X32009Y-19802D01*
X32200Y-19802D01*
X32247Y-19826D01*
X32271Y-19850D01*
X32295Y-19897D01*
X32295Y-19969D01*
X32271Y-20016D01*
X32247Y-20040D01*
X32200Y-20064D01*
X32009Y-20064D01*
X32604Y-20064D02*
X32604Y-20302D01*
X32438Y-19802D02*
X32604Y-20064D01*
X32771Y-19802D01*
X32914Y-20278D02*
X32985Y-20302D01*
X33104Y-20302D01*
X33152Y-20278D01*
X33176Y-20254D01*
X33200Y-20207D01*
X33200Y-20159D01*
X33176Y-20111D01*
X33152Y-20088D01*
X33104Y-20064D01*
X33009Y-20040D01*
X32961Y-20016D01*
X32938Y-19992D01*
X32914Y-19945D01*
X32914Y-19897D01*
X32938Y-19850D01*
X32961Y-19826D01*
X33009Y-19802D01*
X33128Y-19802D01*
X33200Y-19826D01*
X33342Y-19802D02*
X33628Y-19802D01*
X33485Y-20302D02*
X33485Y-19802D01*
X33771Y-20159D02*
X34009Y-20159D01*
X33723Y-20302D02*
X33890Y-19802D01*
X34057Y-20302D01*
X34461Y-20302D02*
X34223Y-20302D01*
X34223Y-19802D01*
X34509Y-20350D02*
X34890Y-20350D01*
X34985Y-20278D02*
X35057Y-20302D01*
X35176Y-20302D01*
X35223Y-20278D01*
X35247Y-20254D01*
X35271Y-20207D01*
X35271Y-20159D01*
X35247Y-20111D01*
X35223Y-20088D01*
X35176Y-20064D01*
X35080Y-20040D01*
X35033Y-20016D01*
X35009Y-19992D01*
X34985Y-19945D01*
X34985Y-19897D01*
X35009Y-19850D01*
X35033Y-19826D01*
X35080Y-19802D01*
X35199Y-19802D01*
X35271Y-19826D01*
X35485Y-20302D02*
X35485Y-19802D01*
X35652Y-20159D01*
X35819Y-19802D01*
X35819Y-20302D01*
X36057Y-20302D02*
X36057Y-19802D01*
X36176Y-19802D01*
X36247Y-19826D01*
X36295Y-19873D01*
X36319Y-19921D01*
X36342Y-20016D01*
X36342Y-20088D01*
X36319Y-20183D01*
X36295Y-20230D01*
X36247Y-20278D01*
X36176Y-20302D01*
X36057Y-20302D01*
X36438Y-20350D02*
X36819Y-20350D01*
X37223Y-20254D02*
X37200Y-20278D01*
X37128Y-20302D01*
X37080Y-20302D01*
X37009Y-20278D01*
X36961Y-20230D01*
X36938Y-20183D01*
X36914Y-20088D01*
X36914Y-20016D01*
X36938Y-19921D01*
X36961Y-19873D01*
X37009Y-19826D01*
X37080Y-19802D01*
X37128Y-19802D01*
X37200Y-19826D01*
X37223Y-19850D01*
X37438Y-20040D02*
X37604Y-20040D01*
X37676Y-20302D02*
X37438Y-20302D01*
X37438Y-19802D01*
X37676Y-19802D01*
X38176Y-20302D02*
X38009Y-20064D01*
X37890Y-20302D02*
X37890Y-19802D01*
X38080Y-19802D01*
X38128Y-19826D01*
X38152Y-19850D01*
X38176Y-19897D01*
X38176Y-19969D01*
X38152Y-20016D01*
X38128Y-20040D01*
X38080Y-20064D01*
X37890Y-20064D01*
X38366Y-20159D02*
X38604Y-20159D01*
X38319Y-20302D02*
X38485Y-19802D01*
X38652Y-20302D01*
X38819Y-20302D02*
X38819Y-19802D01*
X38985Y-20159D01*
X39152Y-19802D01*
X39152Y-20302D01*
X39390Y-20302D02*
X39390Y-19802D01*
X39914Y-20254D02*
X39890Y-20278D01*
X39819Y-20302D01*
X39771Y-20302D01*
X39700Y-20278D01*
X39652Y-20230D01*
X39628Y-20183D01*
X39604Y-20088D01*
X39604Y-20016D01*
X39628Y-19921D01*
X39652Y-19873D01*
X39700Y-19826D01*
X39771Y-19802D01*
X39819Y-19802D01*
X39890Y-19826D01*
X39914Y-19850D01*
G54D15*
X35835Y-9023D02*
X35845Y-9013D01*
X35854Y-8985D01*
X35854Y-8967D01*
X35845Y-8938D01*
X35826Y-8920D01*
X35807Y-8910D01*
X35770Y-8901D01*
X35742Y-8901D01*
X35704Y-8910D01*
X35685Y-8920D01*
X35667Y-8938D01*
X35657Y-8967D01*
X35657Y-8985D01*
X35667Y-9013D01*
X35676Y-9023D01*
X35854Y-9210D02*
X35854Y-9098D01*
X35854Y-9154D02*
X35657Y-9154D01*
X35685Y-9135D01*
X35704Y-9117D01*
X35714Y-9098D01*
X35676Y-9286D02*
X35667Y-9295D01*
X35657Y-9314D01*
X35657Y-9361D01*
X35667Y-9379D01*
X35676Y-9389D01*
X35695Y-9398D01*
X35714Y-9398D01*
X35742Y-9389D01*
X35854Y-9276D01*
X35854Y-9398D01*
X35579Y-8845D02*
X35579Y-8732D01*
X35579Y-8788D02*
X35382Y-8788D01*
X35410Y-8770D01*
X35429Y-8751D01*
X35439Y-8732D01*
X35382Y-8967D02*
X35382Y-8985D01*
X35392Y-9004D01*
X35401Y-9013D01*
X35420Y-9023D01*
X35457Y-9032D01*
X35504Y-9032D01*
X35542Y-9023D01*
X35560Y-9013D01*
X35570Y-9004D01*
X35579Y-8985D01*
X35579Y-8967D01*
X35570Y-8948D01*
X35560Y-8938D01*
X35542Y-8929D01*
X35504Y-8920D01*
X35457Y-8920D01*
X35420Y-8929D01*
X35401Y-8938D01*
X35392Y-8948D01*
X35382Y-8967D01*
X35382Y-9154D02*
X35382Y-9173D01*
X35392Y-9192D01*
X35401Y-9201D01*
X35420Y-9210D01*
X35457Y-9220D01*
X35504Y-9220D01*
X35542Y-9210D01*
X35560Y-9201D01*
X35570Y-9192D01*
X35579Y-9173D01*
X35579Y-9154D01*
X35570Y-9135D01*
X35560Y-9126D01*
X35542Y-9117D01*
X35504Y-9107D01*
X35457Y-9107D01*
X35420Y-9117D01*
X35401Y-9126D01*
X35392Y-9135D01*
X35382Y-9154D01*
X35448Y-9304D02*
X35579Y-9304D01*
X35467Y-9304D02*
X35457Y-9314D01*
X35448Y-9332D01*
X35448Y-9361D01*
X35457Y-9379D01*
X35476Y-9389D01*
X35579Y-9389D01*
X35476Y-9548D02*
X35476Y-9483D01*
X35579Y-9483D02*
X35382Y-9483D01*
X35382Y-9576D01*
G54D17*
X13642Y-16042D02*
X13642Y-15442D01*
X13500Y-15442D01*
X13414Y-15471D01*
X13357Y-15528D01*
X13328Y-15585D01*
X13300Y-15700D01*
X13300Y-15785D01*
X13328Y-15900D01*
X13357Y-15957D01*
X13414Y-16014D01*
X13500Y-16042D01*
X13642Y-16042D01*
X13100Y-15442D02*
X12700Y-15442D01*
X12957Y-16042D01*
G54D11*
X14545Y-17953D02*
X14452Y-17953D01*
X14564Y-18009D02*
X14498Y-17812D01*
X14433Y-18009D01*
X12070Y-18048D02*
X12070Y-17851D01*
X11958Y-18048D02*
X12042Y-17936D01*
X11958Y-17851D02*
X12070Y-17964D01*
G54D17*
X6442Y-15421D02*
X5842Y-15421D01*
X5842Y-15564D01*
X5871Y-15650D01*
X5928Y-15707D01*
X5985Y-15735D01*
X6100Y-15764D01*
X6185Y-15764D01*
X6300Y-15735D01*
X6357Y-15707D01*
X6414Y-15650D01*
X6442Y-15564D01*
X6442Y-15421D01*
X6442Y-16335D02*
X6442Y-15992D01*
X6442Y-16164D02*
X5842Y-16164D01*
X5928Y-16107D01*
X5985Y-16050D01*
X6014Y-15992D01*
X5842Y-16707D02*
X5842Y-16764D01*
X5871Y-16821D01*
X5900Y-16850D01*
X5957Y-16878D01*
X6071Y-16907D01*
X6214Y-16907D01*
X6328Y-16878D01*
X6385Y-16850D01*
X6414Y-16821D01*
X6442Y-16764D01*
X6442Y-16707D01*
X6414Y-16650D01*
X6385Y-16621D01*
X6328Y-16592D01*
X6214Y-16564D01*
X6071Y-16564D01*
X5957Y-16592D01*
X5900Y-16621D01*
X5871Y-16650D01*
X5842Y-16707D01*
G54D11*
X8353Y-14804D02*
X8353Y-14897D01*
X8409Y-14785D02*
X8212Y-14851D01*
X8409Y-14916D01*
X8448Y-17279D02*
X8251Y-17279D01*
X8448Y-17391D02*
X8336Y-17307D01*
X8251Y-17391D02*
X8364Y-17279D01*
M02*
