<?xml version="1.0" standalone="no"?>
 <!DOCTYPE svg PUBLIC "-//W3C//DTD SVG 1.1//EN" 
 "http://www.w3.org/Graphics/SVG/1.1/DTD/svg11.dtd"> 
<svg xmlns="http://www.w3.org/2000/svg" version="1.1" 
    width="17.5006cm" height="15.0012cm" viewBox="0 0 68900 59060 ">
<title>SVG Picture created as Midirelais_POWER_MCU-B_SilkS.svg date 2016/02/05 20:42:24 </title>
  <desc>Picture generated by PCBNEW </desc>
<g style="fill:#000000; fill-opacity:1;stroke:#000000; stroke-opacity:1;
stroke-linecap:round; stroke-linejoin:round; "
 transform="translate(0 0) scale(1 1)">
</g>
<g style="fill:#000000; fill-opacity:0.0; 
stroke:#000000; stroke-width:39; stroke-opacity:1; 
stroke-linecap:round; stroke-linejoin:round;">
<circle cx="40500" cy="36750" r="50" /> 
<path d="M40500 37200
L40500 36800
" />
<path d="M40500 36800
L39900 36800
" />
<path d="M39900 36800
L39900 37200
" />
<path d="M39900 37600
L39900 38000
" />
<path d="M39900 38000
L40500 38000
" />
<path d="M40500 38000
L40500 37600
" />
<circle cx="41500" cy="36750" r="50" /> 
<path d="M41500 37200
L41500 36800
" />
<path d="M41500 36800
L40900 36800
" />
<path d="M40900 36800
L40900 37200
" />
<path d="M40900 37600
L40900 38000
" />
<path d="M40900 38000
L41500 38000
" />
<path d="M41500 38000
L41500 37600
" />
<circle cx="42500" cy="36750" r="50" /> 
<path d="M42500 37200
L42500 36800
" />
<path d="M42500 36800
L41900 36800
" />
<path d="M41900 36800
L41900 37200
" />
<path d="M41900 37600
L41900 38000
" />
<path d="M41900 38000
L42500 38000
" />
<path d="M42500 38000
L42500 37600
" />
<circle cx="43500" cy="36750" r="50" /> 
<path d="M43500 37200
L43500 36800
" />
<path d="M43500 36800
L42900 36800
" />
<path d="M42900 36800
L42900 37200
" />
<path d="M42900 37600
L42900 38000
" />
<path d="M42900 38000
L43500 38000
" />
<path d="M43500 38000
L43500 37600
" />
<circle cx="44500" cy="36750" r="50" /> 
<path d="M44500 37200
L44500 36800
" />
<path d="M44500 36800
L43900 36800
" />
<path d="M43900 36800
L43900 37200
" />
<path d="M43900 37600
L43900 38000
" />
<path d="M43900 38000
L44500 38000
" />
<path d="M44500 38000
L44500 37600
" />
<circle cx="45500" cy="36750" r="50" /> 
<path d="M45500 37200
L45500 36800
" />
<path d="M45500 36800
L44900 36800
" />
<path d="M44900 36800
L44900 37200
" />
<path d="M44900 37600
L44900 38000
" />
<path d="M44900 38000
L45500 38000
" />
<path d="M45500 38000
L45500 37600
" />
<circle cx="46500" cy="36750" r="50" /> 
<path d="M46500 37200
L46500 36800
" />
<path d="M46500 36800
L45900 36800
" />
<path d="M45900 36800
L45900 37200
" />
<path d="M45900 37600
L45900 38000
" />
<path d="M45900 38000
L46500 38000
" />
<path d="M46500 38000
L46500 37600
" />
<circle cx="39500" cy="36750" r="50" /> 
<path d="M39500 37200
L39500 36800
" />
<path d="M39500 36800
L38900 36800
" />
<path d="M38900 36800
L38900 37200
" />
<path d="M38900 37600
L38900 38000
" />
<path d="M38900 38000
L39500 38000
" />
<path d="M39500 38000
L39500 37600
" />
<circle cx="50600" cy="36650" r="50" /> 
<path d="M50600 37100
L50600 36700
" />
<path d="M50600 36700
L50000 36700
" />
<path d="M50000 36700
L50000 37100
" />
<path d="M50000 37500
L50000 37900
" />
<path d="M50000 37900
L50600 37900
" />
<path d="M50600 37900
L50600 37500
" />
<circle cx="52600" cy="36650" r="50" /> 
<path d="M52600 37100
L52600 36700
" />
<path d="M52600 36700
L52000 36700
" />
<path d="M52000 36700
L52000 37100
" />
<path d="M52000 37500
L52000 37900
" />
<path d="M52000 37900
L52600 37900
" />
<path d="M52600 37900
L52600 37500
" />
<circle cx="54600" cy="36650" r="50" /> 
<path d="M54600 37100
L54600 36700
" />
<path d="M54600 36700
L54000 36700
" />
<path d="M54000 36700
L54000 37100
" />
<path d="M54000 37500
L54000 37900
" />
<path d="M54000 37900
L54600 37900
" />
<path d="M54600 37900
L54600 37500
" />
<circle cx="56600" cy="36650" r="50" /> 
<path d="M56600 37100
L56600 36700
" />
<path d="M56600 36700
L56000 36700
" />
<path d="M56000 36700
L56000 37100
" />
<path d="M56000 37500
L56000 37900
" />
<path d="M56000 37900
L56600 37900
" />
<path d="M56600 37900
L56600 37500
" />
<circle cx="51600" cy="36650" r="50" /> 
<path d="M51600 37100
L51600 36700
" />
<path d="M51600 36700
L51000 36700
" />
<path d="M51000 36700
L51000 37100
" />
<path d="M51000 37500
L51000 37900
" />
<path d="M51000 37900
L51600 37900
" />
<path d="M51600 37900
L51600 37500
" />
<circle cx="53600" cy="36650" r="50" /> 
<path d="M53600 37100
L53600 36700
" />
<path d="M53600 36700
L53000 36700
" />
<path d="M53000 36700
L53000 37100
" />
<path d="M53000 37500
L53000 37900
" />
<path d="M53000 37900
L53600 37900
" />
<path d="M53600 37900
L53600 37500
" />
<circle cx="55600" cy="36650" r="50" /> 
<path d="M55600 37100
L55600 36700
" />
<path d="M55600 36700
L55000 36700
" />
<path d="M55000 36700
L55000 37100
" />
<path d="M55000 37500
L55000 37900
" />
<path d="M55000 37900
L55600 37900
" />
<path d="M55600 37900
L55600 37500
" />
<circle cx="56250" cy="40950" r="50" /> 
<path d="M56700 40950
L56300 40950
" />
<path d="M56300 40950
L56300 41550
" />
<path d="M56300 41550
L56700 41550
" />
<path d="M57100 41550
L57500 41550
" />
<path d="M57500 41550
L57500 40950
" />
<path d="M57500 40950
L57100 40950
" />
</g>
<g style="fill:#000000; fill-opacity:0.0; 
stroke:#000000; stroke-width:47; stroke-opacity:1; 
stroke-linecap:round; stroke-linejoin:round;">
<path d="M54400 40650
L54400 41850
" />
<path d="M54400 41850
L54700 41850
" />
<path d="M54700 41850
L54700 40650
" />
<path d="M54700 40650
L54400 40650
" />
<path d="M44900 40350
L44900 41550
" />
<path d="M44900 41550
L45200 41550
" />
<path d="M45200 41550
L45200 40350
" />
<path d="M45200 40350
L44900 40350
" />
</g>
<g style="fill:#000000; fill-opacity:0.0; 
stroke:#000000; stroke-width:39; stroke-opacity:1; 
stroke-linecap:round; stroke-linejoin:round;">
<circle cx="52800" cy="41900" r="50" /> 
<path d="M52800 41450
L52800 41850
" />
<path d="M52800 41850
L53400 41850
" />
<path d="M53400 41850
L53400 41450
" />
<path d="M53400 41050
L53400 40650
" />
<path d="M53400 40650
L52800 40650
" />
<path d="M52800 40650
L52800 41050
" />
<circle cx="43300" cy="41600" r="50" /> 
<path d="M43300 41150
L43300 41550
" />
<path d="M43300 41550
L43900 41550
" />
<path d="M43900 41550
L43900 41150
" />
<path d="M43900 40750
L43900 40350
" />
<path d="M43900 40350
L43300 40350
" />
<path d="M43300 40350
L43300 40750
" />
<circle cx="46100" cy="40650" r="50" /> 
<path d="M46550 40650
L46150 40650
" />
<path d="M46150 40650
L46150 41250
" />
<path d="M46150 41250
L46550 41250
" />
<path d="M46950 41250
L47350 41250
" />
<path d="M47350 41250
L47350 40650
" />
<path d="M47350 40650
L46950 40650
" />
<circle cx="57700" cy="36650" r="50" /> 
<path d="M57700 37100
L57700 36700
" />
<path d="M57700 36700
L57100 36700
" />
<path d="M57100 36700
L57100 37100
" />
<path d="M57100 37500
L57100 37900
" />
<path d="M57100 37900
L57700 37900
" />
<path d="M57700 37900
L57700 37500
" />
</g>
<g style="fill:#000000; fill-opacity:0.0; 
stroke:#000000; stroke-width:47; stroke-opacity:1; 
stroke-linecap:round; stroke-linejoin:round;">
<path d="M59700 37400
L60900 37400
" />
<path d="M60900 37400
L60900 37100
" />
<path d="M60900 37100
L59700 37100
" />
<path d="M59700 37100
L59700 37400
" />
</g>
<g style="fill:#000000; fill-opacity:0.0; 
stroke:#000000; stroke-width:39; stroke-opacity:1; 
stroke-linecap:round; stroke-linejoin:round;">
<circle cx="61300" cy="37900" r="50" /> 
<path d="M61300 37450
L61300 37850
" />
<path d="M61300 37850
L61900 37850
" />
<path d="M61900 37850
L61900 37450
" />
<path d="M61900 37050
L61900 36650
" />
<path d="M61900 36650
L61300 36650
" />
<path d="M61300 36650
L61300 37050
" />
<circle cx="35350" cy="9800" r="50" /> 
<path d="M35350 9350
L35350 9750
" />
<path d="M35350 9750
L35950 9750
" />
<path d="M35950 9750
L35950 9350
" />
<path d="M35950 8950
L35950 8550
" />
<path d="M35950 8550
L35350 8550
" />
<path d="M35350 8550
L35350 8950
" />
</g>
<g style="fill:#000000; fill-opacity:0.0; 
stroke:#000000; stroke-width:150; stroke-opacity:1; 
stroke-linecap:round; stroke-linejoin:round;">
<path d="M13121 17044
L13121 17556
" />
<path d="M13121 17300
L13279 17398
" />
<path d="M13121 17300
L13279 17182
" />
<path d="M12491 17989
L12491 17851
" />
<path d="M12491 16611
L12491 16749
" />
<path d="M12314 17989
L12314 17851
" />
<path d="M14086 17989
L14086 17851
" />
<path d="M14086 16611
L14086 16749
" />
<path d="M12314 16611
L12314 16749
" />
<path d="M14086 17989
L12314 17989
" />
<path d="M14086 16611
L12314 16611
" />
<path d="M7444 16229
L7956 16229
" />
<path d="M7700 16229
L7798 16071
" />
<path d="M7700 16229
L7582 16071
" />
<path d="M8389 16859
L8251 16859
" />
<path d="M7011 16859
L7149 16859
" />
<path d="M8389 17036
L8251 17036
" />
<path d="M8389 15264
L8251 15264
" />
<path d="M7011 15264
L7149 15264
" />
<path d="M7011 17036
L7149 17036
" />
<path d="M8389 15264
L8389 17036
" />
<path d="M7011 15264
L7011 17036
" />
</g>
<g style="fill:#000000; fill-opacity:0.0; 
stroke:#000000; stroke-width:43; stroke-opacity:1; 
stroke-linecap:round; stroke-linejoin:round;">
<path d="M40154 37273
L40060 37207
" />
<path d="M40154 37160
L39957 37160
L39957 37235
L39967 37254
L39976 37263
L39995 37273
L40023 37273
L40042 37263
L40051 37254
L40060 37235
L40060 37160
" />
<path d="M39957 37339
L39957 37460
L40032 37395
L40032 37423
L40042 37442
L40051 37451
L40070 37460
L40117 37460
L40135 37451
L40145 37442
L40154 37423
L40154 37367
L40145 37348
L40135 37339
" />
<path d="M40023 37629
L40154 37629
" />
<path d="M39948 37582
L40089 37536
L40089 37657
" />
<path d="M40429 37268
L40429 37156
" />
<path d="M40429 37212
L40232 37212
L40260 37193
L40279 37174
L40289 37156
" />
<path d="M40232 37390
L40232 37409
L40242 37428
L40251 37437
L40270 37446
L40307 37456
L40354 37456
L40392 37446
L40410 37437
L40420 37428
L40429 37409
L40429 37390
L40420 37371
L40410 37362
L40392 37353
L40354 37343
L40307 37343
L40270 37353
L40251 37362
L40242 37371
L40232 37390
" />
<path d="M40232 37578
L40232 37597
L40242 37615
L40251 37625
L40270 37634
L40307 37643
L40354 37643
L40392 37634
L40410 37625
L40420 37615
L40429 37597
L40429 37578
L40420 37559
L40410 37550
L40392 37540
L40354 37531
L40307 37531
L40270 37540
L40251 37550
L40242 37559
L40232 37578
" />
<path d="M41154 37273
L41060 37207
" />
<path d="M41154 37160
L40957 37160
L40957 37235
L40967 37254
L40976 37263
L40995 37273
L41023 37273
L41042 37263
L41051 37254
L41060 37235
L41060 37160
" />
<path d="M40957 37339
L40957 37460
L41032 37395
L41032 37423
L41042 37442
L41051 37451
L41070 37460
L41117 37460
L41135 37451
L41145 37442
L41154 37423
L41154 37367
L41145 37348
L41135 37339
" />
<path d="M40957 37639
L40957 37545
L41051 37536
L41042 37545
L41032 37564
L41032 37611
L41042 37629
L41051 37639
L41070 37648
L41117 37648
L41135 37639
L41145 37629
L41154 37611
L41154 37564
L41145 37545
L41135 37536
" />
<path d="M41429 37268
L41429 37156
" />
<path d="M41429 37212
L41232 37212
L41260 37193
L41279 37174
L41289 37156
" />
<path d="M41232 37390
L41232 37409
L41242 37428
L41251 37437
L41270 37446
L41307 37456
L41354 37456
L41392 37446
L41410 37437
L41420 37428
L41429 37409
L41429 37390
L41420 37371
L41410 37362
L41392 37353
L41354 37343
L41307 37343
L41270 37353
L41251 37362
L41242 37371
L41232 37390
" />
<path d="M41232 37578
L41232 37597
L41242 37615
L41251 37625
L41270 37634
L41307 37643
L41354 37643
L41392 37634
L41410 37625
L41420 37615
L41429 37597
L41429 37578
L41420 37559
L41410 37550
L41392 37540
L41354 37531
L41307 37531
L41270 37540
L41251 37550
L41242 37559
L41232 37578
" />
<path d="M42154 37273
L42060 37207
" />
<path d="M42154 37160
L41957 37160
L41957 37235
L41967 37254
L41976 37263
L41995 37273
L42023 37273
L42042 37263
L42051 37254
L42060 37235
L42060 37160
" />
<path d="M41957 37339
L41957 37460
L42032 37395
L42032 37423
L42042 37442
L42051 37451
L42070 37460
L42117 37460
L42135 37451
L42145 37442
L42154 37423
L42154 37367
L42145 37348
L42135 37339
" />
<path d="M41957 37629
L41957 37592
L41967 37573
L41976 37564
L42004 37545
L42042 37536
L42117 37536
L42135 37545
L42145 37554
L42154 37573
L42154 37611
L42145 37629
L42135 37639
L42117 37648
L42070 37648
L42051 37639
L42042 37629
L42032 37611
L42032 37573
L42042 37554
L42051 37545
L42070 37536
" />
<path d="M42429 37268
L42429 37156
" />
<path d="M42429 37212
L42232 37212
L42260 37193
L42279 37174
L42289 37156
" />
<path d="M42232 37390
L42232 37409
L42242 37428
L42251 37437
L42270 37446
L42307 37456
L42354 37456
L42392 37446
L42410 37437
L42420 37428
L42429 37409
L42429 37390
L42420 37371
L42410 37362
L42392 37353
L42354 37343
L42307 37343
L42270 37353
L42251 37362
L42242 37371
L42232 37390
" />
<path d="M42232 37578
L42232 37597
L42242 37615
L42251 37625
L42270 37634
L42307 37643
L42354 37643
L42392 37634
L42410 37625
L42420 37615
L42429 37597
L42429 37578
L42420 37559
L42410 37550
L42392 37540
L42354 37531
L42307 37531
L42270 37540
L42251 37550
L42242 37559
L42232 37578
" />
<path d="M43154 37273
L43060 37207
" />
<path d="M43154 37160
L42957 37160
L42957 37235
L42967 37254
L42976 37263
L42995 37273
L43023 37273
L43042 37263
L43051 37254
L43060 37235
L43060 37160
" />
<path d="M42957 37339
L42957 37460
L43032 37395
L43032 37423
L43042 37442
L43051 37451
L43070 37460
L43117 37460
L43135 37451
L43145 37442
L43154 37423
L43154 37367
L43145 37348
L43135 37339
" />
<path d="M42957 37526
L42957 37657
L43154 37573
" />
<path d="M43429 37268
L43429 37156
" />
<path d="M43429 37212
L43232 37212
L43260 37193
L43279 37174
L43289 37156
" />
<path d="M43232 37390
L43232 37409
L43242 37428
L43251 37437
L43270 37446
L43307 37456
L43354 37456
L43392 37446
L43410 37437
L43420 37428
L43429 37409
L43429 37390
L43420 37371
L43410 37362
L43392 37353
L43354 37343
L43307 37343
L43270 37353
L43251 37362
L43242 37371
L43232 37390
" />
<path d="M43232 37578
L43232 37597
L43242 37615
L43251 37625
L43270 37634
L43307 37643
L43354 37643
L43392 37634
L43410 37625
L43420 37615
L43429 37597
L43429 37578
L43420 37559
L43410 37550
L43392 37540
L43354 37531
L43307 37531
L43270 37540
L43251 37550
L43242 37559
L43232 37578
" />
<path d="M44154 37273
L44060 37207
" />
<path d="M44154 37160
L43957 37160
L43957 37235
L43967 37254
L43976 37263
L43995 37273
L44023 37273
L44042 37263
L44051 37254
L44060 37235
L44060 37160
" />
<path d="M43957 37339
L43957 37460
L44032 37395
L44032 37423
L44042 37442
L44051 37451
L44070 37460
L44117 37460
L44135 37451
L44145 37442
L44154 37423
L44154 37367
L44145 37348
L44135 37339
" />
<path d="M44042 37573
L44032 37554
L44023 37545
L44004 37536
L43995 37536
L43976 37545
L43967 37554
L43957 37573
L43957 37611
L43967 37629
L43976 37639
L43995 37648
L44004 37648
L44023 37639
L44032 37629
L44042 37611
L44042 37573
L44051 37554
L44060 37545
L44079 37536
L44117 37536
L44135 37545
L44145 37554
L44154 37573
L44154 37611
L44145 37629
L44135 37639
L44117 37648
L44079 37648
L44060 37639
L44051 37629
L44042 37611
" />
<path d="M44429 37268
L44429 37156
" />
<path d="M44429 37212
L44232 37212
L44260 37193
L44279 37174
L44289 37156
" />
<path d="M44232 37390
L44232 37409
L44242 37428
L44251 37437
L44270 37446
L44307 37456
L44354 37456
L44392 37446
L44410 37437
L44420 37428
L44429 37409
L44429 37390
L44420 37371
L44410 37362
L44392 37353
L44354 37343
L44307 37343
L44270 37353
L44251 37362
L44242 37371
L44232 37390
" />
<path d="M44232 37578
L44232 37597
L44242 37615
L44251 37625
L44270 37634
L44307 37643
L44354 37643
L44392 37634
L44410 37625
L44420 37615
L44429 37597
L44429 37578
L44420 37559
L44410 37550
L44392 37540
L44354 37531
L44307 37531
L44270 37540
L44251 37550
L44242 37559
L44232 37578
" />
<path d="M45154 37273
L45060 37207
" />
<path d="M45154 37160
L44957 37160
L44957 37235
L44967 37254
L44976 37263
L44995 37273
L45023 37273
L45042 37263
L45051 37254
L45060 37235
L45060 37160
" />
<path d="M44957 37339
L44957 37460
L45032 37395
L45032 37423
L45042 37442
L45051 37451
L45070 37460
L45117 37460
L45135 37451
L45145 37442
L45154 37423
L45154 37367
L45145 37348
L45135 37339
" />
<path d="M45154 37554
L45154 37592
L45145 37611
L45135 37620
L45107 37639
L45070 37648
L44995 37648
L44976 37639
L44967 37629
L44957 37611
L44957 37573
L44967 37554
L44976 37545
L44995 37536
L45042 37536
L45060 37545
L45070 37554
L45079 37573
L45079 37611
L45070 37629
L45060 37639
L45042 37648
" />
<path d="M45429 37268
L45429 37156
" />
<path d="M45429 37212
L45232 37212
L45260 37193
L45279 37174
L45289 37156
" />
<path d="M45232 37390
L45232 37409
L45242 37428
L45251 37437
L45270 37446
L45307 37456
L45354 37456
L45392 37446
L45410 37437
L45420 37428
L45429 37409
L45429 37390
L45420 37371
L45410 37362
L45392 37353
L45354 37343
L45307 37343
L45270 37353
L45251 37362
L45242 37371
L45232 37390
" />
<path d="M45232 37578
L45232 37597
L45242 37615
L45251 37625
L45270 37634
L45307 37643
L45354 37643
L45392 37634
L45410 37625
L45420 37615
L45429 37597
L45429 37578
L45420 37559
L45410 37550
L45392 37540
L45354 37531
L45307 37531
L45270 37540
L45251 37550
L45242 37559
L45232 37578
" />
<path d="M46154 37273
L46060 37207
" />
<path d="M46154 37160
L45957 37160
L45957 37235
L45967 37254
L45976 37263
L45995 37273
L46023 37273
L46042 37263
L46051 37254
L46060 37235
L46060 37160
" />
<path d="M46023 37442
L46154 37442
" />
<path d="M45948 37395
L46089 37348
L46089 37470
" />
<path d="M45957 37582
L45957 37601
L45967 37620
L45976 37629
L45995 37639
L46032 37648
L46079 37648
L46117 37639
L46135 37629
L46145 37620
L46154 37601
L46154 37582
L46145 37564
L46135 37554
L46117 37545
L46079 37536
L46032 37536
L45995 37545
L45976 37554
L45967 37564
L45957 37582
" />
<path d="M46429 37268
L46429 37156
" />
<path d="M46429 37212
L46232 37212
L46260 37193
L46279 37174
L46289 37156
" />
<path d="M46232 37390
L46232 37409
L46242 37428
L46251 37437
L46270 37446
L46307 37456
L46354 37456
L46392 37446
L46410 37437
L46420 37428
L46429 37409
L46429 37390
L46420 37371
L46410 37362
L46392 37353
L46354 37343
L46307 37343
L46270 37353
L46251 37362
L46242 37371
L46232 37390
" />
<path d="M46232 37578
L46232 37597
L46242 37615
L46251 37625
L46270 37634
L46307 37643
L46354 37643
L46392 37634
L46410 37625
L46420 37615
L46429 37597
L46429 37578
L46420 37559
L46410 37550
L46392 37540
L46354 37531
L46307 37531
L46270 37540
L46251 37550
L46242 37559
L46232 37578
" />
<path d="M39154 37273
L39060 37207
" />
<path d="M39154 37160
L38957 37160
L38957 37235
L38967 37254
L38976 37263
L38995 37273
L39023 37273
L39042 37263
L39051 37254
L39060 37235
L39060 37160
" />
<path d="M38957 37339
L38957 37460
L39032 37395
L39032 37423
L39042 37442
L39051 37451
L39070 37460
L39117 37460
L39135 37451
L39145 37442
L39154 37423
L39154 37367
L39145 37348
L39135 37339
" />
<path d="M38957 37526
L38957 37648
L39032 37582
L39032 37611
L39042 37629
L39051 37639
L39070 37648
L39117 37648
L39135 37639
L39145 37629
L39154 37611
L39154 37554
L39145 37536
L39135 37526
" />
<path d="M39429 37268
L39429 37156
" />
<path d="M39429 37212
L39232 37212
L39260 37193
L39279 37174
L39289 37156
" />
<path d="M39232 37390
L39232 37409
L39242 37428
L39251 37437
L39270 37446
L39307 37456
L39354 37456
L39392 37446
L39410 37437
L39420 37428
L39429 37409
L39429 37390
L39420 37371
L39410 37362
L39392 37353
L39354 37343
L39307 37343
L39270 37353
L39251 37362
L39242 37371
L39232 37390
" />
<path d="M39232 37578
L39232 37597
L39242 37615
L39251 37625
L39270 37634
L39307 37643
L39354 37643
L39392 37634
L39410 37625
L39420 37615
L39429 37597
L39429 37578
L39420 37559
L39410 37550
L39392 37540
L39354 37531
L39307 37531
L39270 37540
L39251 37550
L39242 37559
L39232 37578
" />
<path d="M50254 37173
L50160 37107
" />
<path d="M50254 37060
L50057 37060
L50057 37135
L50067 37154
L50076 37163
L50095 37173
L50123 37173
L50142 37163
L50151 37154
L50160 37135
L50160 37060
" />
<path d="M50123 37342
L50254 37342
" />
<path d="M50048 37295
L50189 37248
L50189 37370
" />
<path d="M50057 37426
L50057 37548
L50132 37482
L50132 37511
L50142 37529
L50151 37539
L50170 37548
L50217 37548
L50235 37539
L50245 37529
L50254 37511
L50254 37454
L50245 37436
L50235 37426
" />
<path d="M50529 37168
L50529 37056
" />
<path d="M50529 37112
L50332 37112
L50360 37093
L50379 37074
L50389 37056
" />
<path d="M50332 37290
L50332 37309
L50342 37328
L50351 37337
L50370 37346
L50407 37356
L50454 37356
L50492 37346
L50510 37337
L50520 37328
L50529 37309
L50529 37290
L50520 37271
L50510 37262
L50492 37253
L50454 37243
L50407 37243
L50370 37253
L50351 37262
L50342 37271
L50332 37290
" />
<path d="M50332 37478
L50332 37497
L50342 37515
L50351 37525
L50370 37534
L50407 37543
L50454 37543
L50492 37534
L50510 37525
L50520 37515
L50529 37497
L50529 37478
L50520 37459
L50510 37450
L50492 37440
L50454 37431
L50407 37431
L50370 37440
L50351 37450
L50342 37459
L50332 37478
" />
<path d="M52254 37173
L52160 37107
" />
<path d="M52254 37060
L52057 37060
L52057 37135
L52067 37154
L52076 37163
L52095 37173
L52123 37173
L52142 37163
L52151 37154
L52160 37135
L52160 37060
" />
<path d="M52123 37342
L52254 37342
" />
<path d="M52048 37295
L52189 37248
L52189 37370
" />
<path d="M52057 37539
L52057 37445
L52151 37436
L52142 37445
L52132 37464
L52132 37511
L52142 37529
L52151 37539
L52170 37548
L52217 37548
L52235 37539
L52245 37529
L52254 37511
L52254 37464
L52245 37445
L52235 37436
" />
<path d="M52529 37168
L52529 37056
" />
<path d="M52529 37112
L52332 37112
L52360 37093
L52379 37074
L52389 37056
" />
<path d="M52332 37290
L52332 37309
L52342 37328
L52351 37337
L52370 37346
L52407 37356
L52454 37356
L52492 37346
L52510 37337
L52520 37328
L52529 37309
L52529 37290
L52520 37271
L52510 37262
L52492 37253
L52454 37243
L52407 37243
L52370 37253
L52351 37262
L52342 37271
L52332 37290
" />
<path d="M52332 37478
L52332 37497
L52342 37515
L52351 37525
L52370 37534
L52407 37543
L52454 37543
L52492 37534
L52510 37525
L52520 37515
L52529 37497
L52529 37478
L52520 37459
L52510 37450
L52492 37440
L52454 37431
L52407 37431
L52370 37440
L52351 37450
L52342 37459
L52332 37478
" />
<path d="M54254 37173
L54160 37107
" />
<path d="M54254 37060
L54057 37060
L54057 37135
L54067 37154
L54076 37163
L54095 37173
L54123 37173
L54142 37163
L54151 37154
L54160 37135
L54160 37060
" />
<path d="M54123 37342
L54254 37342
" />
<path d="M54048 37295
L54189 37248
L54189 37370
" />
<path d="M54057 37529
L54057 37492
L54067 37473
L54076 37464
L54104 37445
L54142 37436
L54217 37436
L54235 37445
L54245 37454
L54254 37473
L54254 37511
L54245 37529
L54235 37539
L54217 37548
L54170 37548
L54151 37539
L54142 37529
L54132 37511
L54132 37473
L54142 37454
L54151 37445
L54170 37436
" />
<path d="M54529 37168
L54529 37056
" />
<path d="M54529 37112
L54332 37112
L54360 37093
L54379 37074
L54389 37056
" />
<path d="M54332 37290
L54332 37309
L54342 37328
L54351 37337
L54370 37346
L54407 37356
L54454 37356
L54492 37346
L54510 37337
L54520 37328
L54529 37309
L54529 37290
L54520 37271
L54510 37262
L54492 37253
L54454 37243
L54407 37243
L54370 37253
L54351 37262
L54342 37271
L54332 37290
" />
<path d="M54332 37478
L54332 37497
L54342 37515
L54351 37525
L54370 37534
L54407 37543
L54454 37543
L54492 37534
L54510 37525
L54520 37515
L54529 37497
L54529 37478
L54520 37459
L54510 37450
L54492 37440
L54454 37431
L54407 37431
L54370 37440
L54351 37450
L54342 37459
L54332 37478
" />
<path d="M56254 37173
L56160 37107
" />
<path d="M56254 37060
L56057 37060
L56057 37135
L56067 37154
L56076 37163
L56095 37173
L56123 37173
L56142 37163
L56151 37154
L56160 37135
L56160 37060
" />
<path d="M56123 37342
L56254 37342
" />
<path d="M56048 37295
L56189 37248
L56189 37370
" />
<path d="M56057 37426
L56057 37557
L56254 37473
" />
<path d="M56529 37168
L56529 37056
" />
<path d="M56529 37112
L56332 37112
L56360 37093
L56379 37074
L56389 37056
" />
<path d="M56332 37290
L56332 37309
L56342 37328
L56351 37337
L56370 37346
L56407 37356
L56454 37356
L56492 37346
L56510 37337
L56520 37328
L56529 37309
L56529 37290
L56520 37271
L56510 37262
L56492 37253
L56454 37243
L56407 37243
L56370 37253
L56351 37262
L56342 37271
L56332 37290
" />
<path d="M56332 37478
L56332 37497
L56342 37515
L56351 37525
L56370 37534
L56407 37543
L56454 37543
L56492 37534
L56510 37525
L56520 37515
L56529 37497
L56529 37478
L56520 37459
L56510 37450
L56492 37440
L56454 37431
L56407 37431
L56370 37440
L56351 37450
L56342 37459
L56332 37478
" />
<path d="M51254 37173
L51160 37107
" />
<path d="M51254 37060
L51057 37060
L51057 37135
L51067 37154
L51076 37163
L51095 37173
L51123 37173
L51142 37163
L51151 37154
L51160 37135
L51160 37060
" />
<path d="M51123 37342
L51254 37342
" />
<path d="M51048 37295
L51189 37248
L51189 37370
" />
<path d="M51123 37529
L51254 37529
" />
<path d="M51048 37482
L51189 37436
L51189 37557
" />
<path d="M51529 37168
L51529 37056
" />
<path d="M51529 37112
L51332 37112
L51360 37093
L51379 37074
L51389 37056
" />
<path d="M51332 37290
L51332 37309
L51342 37328
L51351 37337
L51370 37346
L51407 37356
L51454 37356
L51492 37346
L51510 37337
L51520 37328
L51529 37309
L51529 37290
L51520 37271
L51510 37262
L51492 37253
L51454 37243
L51407 37243
L51370 37253
L51351 37262
L51342 37271
L51332 37290
" />
<path d="M51332 37478
L51332 37497
L51342 37515
L51351 37525
L51370 37534
L51407 37543
L51454 37543
L51492 37534
L51510 37525
L51520 37515
L51529 37497
L51529 37478
L51520 37459
L51510 37450
L51492 37440
L51454 37431
L51407 37431
L51370 37440
L51351 37450
L51342 37459
L51332 37478
" />
<path d="M53254 37173
L53160 37107
" />
<path d="M53254 37060
L53057 37060
L53057 37135
L53067 37154
L53076 37163
L53095 37173
L53123 37173
L53142 37163
L53151 37154
L53160 37135
L53160 37060
" />
<path d="M53123 37342
L53254 37342
" />
<path d="M53048 37295
L53189 37248
L53189 37370
" />
<path d="M53142 37473
L53132 37454
L53123 37445
L53104 37436
L53095 37436
L53076 37445
L53067 37454
L53057 37473
L53057 37511
L53067 37529
L53076 37539
L53095 37548
L53104 37548
L53123 37539
L53132 37529
L53142 37511
L53142 37473
L53151 37454
L53160 37445
L53179 37436
L53217 37436
L53235 37445
L53245 37454
L53254 37473
L53254 37511
L53245 37529
L53235 37539
L53217 37548
L53179 37548
L53160 37539
L53151 37529
L53142 37511
" />
<path d="M53529 37168
L53529 37056
" />
<path d="M53529 37112
L53332 37112
L53360 37093
L53379 37074
L53389 37056
" />
<path d="M53332 37290
L53332 37309
L53342 37328
L53351 37337
L53370 37346
L53407 37356
L53454 37356
L53492 37346
L53510 37337
L53520 37328
L53529 37309
L53529 37290
L53520 37271
L53510 37262
L53492 37253
L53454 37243
L53407 37243
L53370 37253
L53351 37262
L53342 37271
L53332 37290
" />
<path d="M53332 37478
L53332 37497
L53342 37515
L53351 37525
L53370 37534
L53407 37543
L53454 37543
L53492 37534
L53510 37525
L53520 37515
L53529 37497
L53529 37478
L53520 37459
L53510 37450
L53492 37440
L53454 37431
L53407 37431
L53370 37440
L53351 37450
L53342 37459
L53332 37478
" />
<path d="M55254 37173
L55160 37107
" />
<path d="M55254 37060
L55057 37060
L55057 37135
L55067 37154
L55076 37163
L55095 37173
L55123 37173
L55142 37163
L55151 37154
L55160 37135
L55160 37060
" />
<path d="M55123 37342
L55254 37342
" />
<path d="M55048 37295
L55189 37248
L55189 37370
" />
<path d="M55254 37454
L55254 37492
L55245 37511
L55235 37520
L55207 37539
L55170 37548
L55095 37548
L55076 37539
L55067 37529
L55057 37511
L55057 37473
L55067 37454
L55076 37445
L55095 37436
L55142 37436
L55160 37445
L55170 37454
L55179 37473
L55179 37511
L55170 37529
L55160 37539
L55142 37548
" />
<path d="M55529 37168
L55529 37056
" />
<path d="M55529 37112
L55332 37112
L55360 37093
L55379 37074
L55389 37056
" />
<path d="M55332 37290
L55332 37309
L55342 37328
L55351 37337
L55370 37346
L55407 37356
L55454 37356
L55492 37346
L55510 37337
L55520 37328
L55529 37309
L55529 37290
L55520 37271
L55510 37262
L55492 37253
L55454 37243
L55407 37243
L55370 37253
L55351 37262
L55342 37271
L55332 37290
" />
<path d="M55332 37478
L55332 37497
L55342 37515
L55351 37525
L55370 37534
L55407 37543
L55454 37543
L55492 37534
L55510 37525
L55520 37515
L55529 37497
L55529 37478
L55520 37459
L55510 37450
L55492 37440
L55454 37431
L55407 37431
L55370 37440
L55351 37450
L55342 37459
L55332 37478
" />
<path d="M57026 41454
L57092 41360
" />
<path d="M57139 41454
L57139 41257
L57064 41257
L57045 41267
L57036 41276
L57026 41295
L57026 41323
L57036 41342
L57045 41351
L57064 41360
L57139 41360
" />
<path d="M56848 41257
L56942 41257
L56951 41351
L56942 41342
L56923 41332
L56876 41332
L56857 41342
L56848 41351
L56839 41370
L56839 41417
L56848 41435
L56857 41445
L56876 41454
L56923 41454
L56942 41445
L56951 41435
" />
<path d="M56717 41257
L56698 41257
L56679 41267
L56670 41276
L56660 41295
L56651 41332
L56651 41379
L56660 41417
L56670 41435
L56679 41445
L56698 41454
L56717 41454
L56735 41445
L56745 41435
L56754 41417
L56763 41379
L56763 41332
L56754 41295
L56745 41276
L56735 41267
L56717 41257
" />
<path d="M57031 41179
L57143 41179
" />
<path d="M57087 41179
L57087 40982
L57106 41010
L57125 41029
L57143 41039
" />
<path d="M56909 40982
L56890 40982
L56871 40992
L56862 41001
L56853 41020
L56843 41057
L56843 41104
L56853 41142
L56862 41160
L56871 41170
L56890 41179
L56909 41179
L56928 41170
L56937 41160
L56946 41142
L56956 41104
L56956 41057
L56946 41020
L56937 41001
L56928 40992
L56909 40982
" />
<path d="M56721 40982
L56703 40982
L56684 40992
L56674 41001
L56665 41020
L56656 41057
L56656 41104
L56665 41142
L56674 41160
L56684 41170
L56703 41179
L56721 41179
L56740 41170
L56749 41160
L56759 41142
L56768 41104
L56768 41057
L56759 41020
L56749 41001
L56740 40992
L56721 40982
" />
</g>
<g style="fill:#000000; fill-opacity:0.0; 
stroke:#000000; stroke-width:51; stroke-opacity:1; 
stroke-linecap:round; stroke-linejoin:round;">
<path d="M53850 41221
L53835 41192
L53807 41164
L53764 41121
L53750 41092
L53750 41064
" />
<path d="M53821 41078
L53807 41050
L53778 41021
L53721 41007
L53621 41007
L53564 41021
L53535 41050
L53521 41078
L53521 41135
L53535 41164
L53564 41192
L53621 41207
L53721 41207
L53778 41192
L53807 41164
L53821 41135
L53821 41078
" />
<path d="M53821 41492
L53821 41321
" />
<path d="M53821 41407
L53521 41407
L53564 41378
L53592 41350
L53607 41321
" />
<path d="M54671 40200
L54371 40200
L54585 40300
L54371 40400
L54671 40400
" />
<path d="M54371 40600
L54371 40657
L54385 40685
L54414 40714
L54471 40728
L54571 40728
L54628 40714
L54657 40685
L54671 40657
L54671 40600
L54657 40571
L54628 40542
L54571 40528
L54471 40528
L54414 40542
L54385 40571
L54371 40600
" />
<path d="M54657 40842
L54671 40885
L54671 40957
L54657 40985
L54642 41000
L54614 41014
L54585 41014
L54557 41000
L54542 40985
L54528 40957
L54514 40900
L54500 40871
L54485 40857
L54457 40842
L54428 40842
L54400 40857
L54385 40871
L54371 40900
L54371 40971
L54385 41014
" />
<path d="M54514 41242
L54514 41142
" />
<path d="M54671 41142
L54371 41142
L54371 41285
" />
<path d="M54514 41400
L54514 41500
" />
<path d="M54671 41542
L54671 41400
L54371 41400
L54371 41542
" />
<path d="M54371 41628
L54371 41800
" />
<path d="M54671 41714
L54371 41714
" />
<path d="M54700 41828
L54700 42057
" />
<path d="M54671 42128
L54371 42128
L54671 42300
L54371 42300
" />
<path d="M44350 40921
L44335 40892
L44307 40864
L44264 40821
L44250 40792
L44250 40764
" />
<path d="M44321 40778
L44307 40750
L44278 40721
L44221 40707
L44121 40707
L44064 40721
L44035 40750
L44021 40778
L44021 40835
L44035 40864
L44064 40892
L44121 40907
L44221 40907
L44278 40892
L44307 40864
L44321 40835
L44321 40778
" />
<path d="M44050 41021
L44035 41035
L44021 41064
L44021 41135
L44035 41164
L44050 41178
L44078 41192
L44107 41192
L44150 41178
L44321 41007
L44321 41192
" />
<path d="M45171 39900
L44871 39900
L45085 40000
L44871 40100
L45171 40100
" />
<path d="M44871 40300
L44871 40357
L44885 40385
L44914 40414
L44971 40428
L45071 40428
L45128 40414
L45157 40385
L45171 40357
L45171 40300
L45157 40271
L45128 40242
L45071 40228
L44971 40228
L44914 40242
L44885 40271
L44871 40300
" />
<path d="M45157 40542
L45171 40585
L45171 40657
L45157 40685
L45142 40700
L45114 40714
L45085 40714
L45057 40700
L45042 40685
L45028 40657
L45014 40600
L45000 40571
L44985 40557
L44957 40542
L44928 40542
L44900 40557
L44885 40571
L44871 40600
L44871 40671
L44885 40714
" />
<path d="M45014 40942
L45014 40842
" />
<path d="M45171 40842
L44871 40842
L44871 40985
" />
<path d="M45014 41100
L45014 41200
" />
<path d="M45171 41242
L45171 41100
L44871 41100
L44871 41242
" />
<path d="M44871 41328
L44871 41500
" />
<path d="M45171 41414
L44871 41414
" />
<path d="M45200 41528
L45200 41757
" />
<path d="M45171 41828
L44871 41828
L45171 42000
L44871 42000
" />
</g>
<g style="fill:#000000; fill-opacity:0.0; 
stroke:#000000; stroke-width:43; stroke-opacity:1; 
stroke-linecap:round; stroke-linejoin:round;">
<path d="M53304 41123
L53210 41057
" />
<path d="M53304 41010
L53107 41010
L53107 41085
L53117 41104
L53126 41113
L53145 41123
L53173 41123
L53192 41113
L53201 41104
L53210 41085
L53210 41010
" />
<path d="M53107 41301
L53107 41207
L53201 41198
L53192 41207
L53182 41226
L53182 41273
L53192 41292
L53201 41301
L53220 41310
L53267 41310
L53285 41301
L53295 41292
L53304 41273
L53304 41226
L53295 41207
L53285 41198
" />
<path d="M53304 41498
L53304 41386
" />
<path d="M53304 41442
L53107 41442
L53135 41423
L53154 41404
L53164 41386
" />
<path d="M53029 41113
L53029 41001
" />
<path d="M53029 41057
L52832 41057
L52860 41038
L52879 41020
L52889 41001
" />
<path d="M52832 41235
L52832 41254
L52842 41273
L52851 41282
L52870 41292
L52907 41301
L52954 41301
L52992 41292
L53010 41282
L53020 41273
L53029 41254
L53029 41235
L53020 41217
L53010 41207
L52992 41198
L52954 41189
L52907 41189
L52870 41198
L52851 41207
L52842 41217
L52832 41235
" />
<path d="M53029 41386
L52832 41386
" />
<path d="M53029 41498
L52917 41414
" />
<path d="M52832 41498
L52945 41386
" />
<path d="M43804 40823
L43710 40757
" />
<path d="M43804 40710
L43607 40710
L43607 40785
L43617 40804
L43626 40813
L43645 40823
L43673 40823
L43692 40813
L43701 40804
L43710 40785
L43710 40710
" />
<path d="M43607 41001
L43607 40907
L43701 40898
L43692 40907
L43682 40926
L43682 40973
L43692 40992
L43701 41001
L43720 41010
L43767 41010
L43785 41001
L43795 40992
L43804 40973
L43804 40926
L43795 40907
L43785 40898
" />
<path d="M43607 41076
L43607 41198
L43682 41132
L43682 41161
L43692 41179
L43701 41189
L43720 41198
L43767 41198
L43785 41189
L43795 41179
L43804 41161
L43804 41104
L43795 41086
L43785 41076
" />
<path d="M43529 40813
L43529 40701
" />
<path d="M43529 40757
L43332 40757
L43360 40738
L43379 40720
L43389 40701
" />
<path d="M43332 40935
L43332 40954
L43342 40973
L43351 40982
L43370 40992
L43407 41001
L43454 41001
L43492 40992
L43510 40982
L43520 40973
L43529 40954
L43529 40935
L43520 40917
L43510 40907
L43492 40898
L43454 40889
L43407 40889
L43370 40898
L43351 40907
L43342 40917
L43332 40935
" />
<path d="M43529 41086
L43332 41086
" />
<path d="M43529 41198
L43417 41114
" />
<path d="M43332 41198
L43445 41086
" />
<path d="M46876 41154
L46942 41060
" />
<path d="M46989 41154
L46989 40957
L46914 40957
L46895 40967
L46886 40976
L46876 40995
L46876 41023
L46886 41042
L46895 41051
L46914 41060
L46989 41060
" />
<path d="M46698 40957
L46792 40957
L46801 41051
L46792 41042
L46773 41032
L46726 41032
L46707 41042
L46698 41051
L46689 41070
L46689 41117
L46698 41135
L46707 41145
L46726 41154
L46773 41154
L46792 41145
L46801 41135
" />
<path d="M46520 41023
L46520 41154
" />
<path d="M46567 40948
L46613 41089
L46492 41089
" />
<path d="M46881 40879
L46993 40879
" />
<path d="M46937 40879
L46937 40682
L46956 40710
L46975 40729
L46993 40739
" />
<path d="M46759 40682
L46740 40682
L46721 40692
L46712 40701
L46703 40720
L46693 40757
L46693 40804
L46703 40842
L46712 40860
L46721 40870
L46740 40879
L46759 40879
L46778 40870
L46787 40860
L46796 40842
L46806 40804
L46806 40757
L46796 40720
L46787 40701
L46778 40692
L46759 40682
" />
<path d="M46571 40682
L46553 40682
L46534 40692
L46524 40701
L46515 40720
L46506 40757
L46506 40804
L46515 40842
L46524 40860
L46534 40870
L46553 40879
L46571 40879
L46590 40870
L46599 40860
L46609 40842
L46618 40804
L46618 40757
L46609 40720
L46599 40701
L46590 40692
L46571 40682
" />
<path d="M57354 37173
L57260 37107
" />
<path d="M57354 37060
L57157 37060
L57157 37135
L57167 37154
L57176 37163
L57195 37173
L57223 37173
L57242 37163
L57251 37154
L57260 37135
L57260 37060
" />
<path d="M57157 37351
L57157 37257
L57251 37248
L57242 37257
L57232 37276
L57232 37323
L57242 37342
L57251 37351
L57270 37360
L57317 37360
L57335 37351
L57345 37342
L57354 37323
L57354 37276
L57345 37257
L57335 37248
" />
<path d="M57176 37436
L57167 37445
L57157 37464
L57157 37511
L57167 37529
L57176 37539
L57195 37548
L57214 37548
L57242 37539
L57354 37426
L57354 37548
" />
<path d="M57629 37168
L57629 37056
" />
<path d="M57629 37112
L57432 37112
L57460 37093
L57479 37074
L57489 37056
" />
<path d="M57432 37290
L57432 37309
L57442 37328
L57451 37337
L57470 37346
L57507 37356
L57554 37356
L57592 37346
L57610 37337
L57620 37328
L57629 37309
L57629 37290
L57620 37271
L57610 37262
L57592 37253
L57554 37243
L57507 37243
L57470 37253
L57451 37262
L57442 37271
L57432 37290
" />
<path d="M57432 37478
L57432 37497
L57442 37515
L57451 37525
L57470 37534
L57507 37543
L57554 37543
L57592 37534
L57610 37525
L57620 37515
L57629 37497
L57629 37478
L57620 37459
L57610 37450
L57592 37440
L57554 37431
L57507 37431
L57470 37440
L57451 37450
L57442 37459
L57432 37478
" />
</g>
<g style="fill:#000000; fill-opacity:0.0; 
stroke:#000000; stroke-width:51; stroke-opacity:1; 
stroke-linecap:round; stroke-linejoin:round;">
<path d="M60328 38250
L60357 38235
L60385 38207
L60428 38164
L60457 38150
L60485 38150
" />
<path d="M60471 38221
L60500 38207
L60528 38178
L60542 38121
L60542 38021
L60528 37964
L60500 37935
L60471 37921
L60414 37921
L60385 37935
L60357 37964
L60342 38021
L60342 38121
L60357 38178
L60385 38207
L60414 38221
L60471 38221
" />
<path d="M60242 37921
L60057 37921
L60157 38035
L60114 38035
L60085 38050
L60071 38064
L60057 38092
L60057 38164
L60071 38192
L60085 38207
L60114 38221
L60200 38221
L60228 38207
L60242 38192
" />
<path d="M61349 37371
L61349 37071
L61249 37285
L61149 37071
L61149 37371
" />
<path d="M60950 37071
L60892 37071
L60864 37085
L60835 37114
L60821 37171
L60821 37271
L60835 37328
L60864 37357
L60892 37371
L60950 37371
L60978 37357
L61007 37328
L61021 37271
L61021 37171
L61007 37114
L60978 37085
L60950 37071
" />
<path d="M60707 37357
L60664 37371
L60592 37371
L60564 37357
L60549 37342
L60535 37314
L60535 37285
L60549 37257
L60564 37242
L60592 37228
L60649 37214
L60678 37200
L60692 37185
L60707 37157
L60707 37128
L60692 37100
L60678 37085
L60649 37071
L60578 37071
L60535 37085
" />
<path d="M60307 37214
L60407 37214
" />
<path d="M60407 37371
L60407 37071
L60264 37071
" />
<path d="M60149 37214
L60049 37214
" />
<path d="M60007 37371
L60149 37371
L60149 37071
L60007 37071
" />
<path d="M59921 37071
L59749 37071
" />
<path d="M59835 37371
L59835 37071
" />
<path d="M59721 37400
L59492 37400
" />
<path d="M59421 37371
L59421 37071
L59250 37371
L59250 37071
" />
</g>
<g style="fill:#000000; fill-opacity:0.0; 
stroke:#000000; stroke-width:43; stroke-opacity:1; 
stroke-linecap:round; stroke-linejoin:round;">
<path d="M61804 37123
L61710 37057
" />
<path d="M61804 37010
L61607 37010
L61607 37085
L61617 37104
L61626 37113
L61645 37123
L61673 37123
L61692 37113
L61701 37104
L61710 37085
L61710 37010
" />
<path d="M61607 37301
L61607 37207
L61701 37198
L61692 37207
L61682 37226
L61682 37273
L61692 37292
L61701 37301
L61720 37310
L61767 37310
L61785 37301
L61795 37292
L61804 37273
L61804 37226
L61795 37207
L61785 37198
" />
<path d="M61607 37489
L61607 37395
L61701 37386
L61692 37395
L61682 37414
L61682 37461
L61692 37479
L61701 37489
L61720 37498
L61767 37498
L61785 37489
L61795 37479
L61804 37461
L61804 37414
L61795 37395
L61785 37386
" />
<path d="M61529 37113
L61529 37001
" />
<path d="M61529 37057
L61332 37057
L61360 37038
L61379 37020
L61389 37001
" />
<path d="M61332 37235
L61332 37254
L61342 37273
L61351 37282
L61370 37292
L61407 37301
L61454 37301
L61492 37292
L61510 37282
L61520 37273
L61529 37254
L61529 37235
L61520 37217
L61510 37207
L61492 37198
L61454 37189
L61407 37189
L61370 37198
L61351 37207
L61342 37217
L61332 37235
" />
<path d="M61529 37386
L61332 37386
" />
<path d="M61529 37498
L61417 37414
" />
<path d="M61332 37498
L61445 37386
" />
</g>
<g style="fill:#000000; fill-opacity:0.0; 
stroke:#000000; stroke-width:35; stroke-opacity:1; 
stroke-linecap:round; stroke-linejoin:round;">
<path d="M36968 14177
L36568 14177
L36568 14024
L36587 13986
L36607 13967
L36645 13948
L36702 13948
L36740 13967
L36759 13986
L36778 14024
L36778 14177
" />
<path d="M36568 13815
L36568 13567
L36721 13701
L36721 13643
L36740 13605
L36759 13586
L36797 13567
L36892 13567
L36930 13586
L36949 13605
L36968 13643
L36968 13758
L36949 13796
L36930 13815
" />
<path d="M46037 14233
L45717 14233
" />
<path d="M46022 14096
L46037 14050
L46037 13974
L46022 13943
L46007 13928
L45976 13913
L45946 13913
L45915 13928
L45900 13943
L45885 13974
L45869 14035
L45854 14065
L45839 14080
L45808 14096
L45778 14096
L45748 14080
L45732 14065
L45717 14035
L45717 13959
L45732 13913
" />
<path d="M46037 13776
L45717 13776
L45717 13654
L45732 13623
L45748 13608
L45778 13593
L45824 13593
L45854 13608
L45869 13623
L45885 13654
L45885 13776
" />
<path d="M40418 14497
L40281 14497
" />
<path d="M40350 14497
L40350 14257
L40327 14291
L40304 14314
L40281 14325
" />
<path d="M35222 32368
L35222 31968
L35375 31968
L35413 31987
L35432 32007
L35451 32045
L35451 32102
L35432 32140
L35413 32159
L35375 32178
L35222 32178
" />
<path d="M35794 31968
L35718 31968
L35679 31987
L35660 32007
L35622 32064
L35603 32140
L35603 32292
L35622 32330
L35641 32349
L35679 32368
L35756 32368
L35794 32349
L35813 32330
L35832 32292
L35832 32197
L35813 32159
L35794 32140
L35756 32121
L35679 32121
L35641 32140
L35622 32159
L35603 32197
" />
<path d="M34343 41407
L34328 41422
L34282 41437
L34252 41437
L34206 41422
L34176 41391
L34160 41361
L34145 41300
L34145 41254
L34160 41193
L34176 41163
L34206 41132
L34252 41117
L34282 41117
L34328 41132
L34343 41148
" />
<path d="M34541 41117
L34602 41117
L34633 41132
L34663 41163
L34679 41224
L34679 41330
L34663 41391
L34633 41422
L34602 41437
L34541 41437
L34511 41422
L34480 41391
L34465 41330
L34465 41224
L34480 41163
L34511 41132
L34541 41117
" />
<path d="M34816 41437
L34816 41117
L34999 41437
L34999 41117
" />
<path d="M35151 41437
L35151 41117
L35334 41437
L35334 41117
" />
<path d="M35410 41468
L35654 41468
" />
<path d="M35898 41437
L35715 41437
" />
<path d="M35806 41437
L35806 41117
L35776 41163
L35745 41193
L35715 41208
" />
<path d="M36096 41117
L36126 41117
L36157 41132
L36172 41148
L36187 41178
L36202 41239
L36202 41315
L36187 41376
L36172 41407
L36157 41422
L36126 41437
L36096 41437
L36065 41422
L36050 41407
L36035 41376
L36019 41315
L36019 41239
L36035 41178
L36050 41148
L36065 41132
L36096 41117
" />
<path d="M36309 41117
L36522 41437
" />
<path d="M36522 41117
L36309 41437
" />
<path d="M36629 41148
L36644 41132
L36675 41117
L36751 41117
L36781 41132
L36797 41148
L36812 41178
L36812 41208
L36797 41254
L36614 41437
L36812 41437
" />
<path d="M35097 32181
L35097 32318
" />
<path d="M35097 32249
L34857 32249
L34891 32272
L34914 32295
L34925 32318
" />
<path d="M35319 22552
L35319 22957
L35342 23004
L35366 23028
L35414 23052
L35509 23052
L35557 23028
L35580 23004
L35604 22957
L35604 22552
" />
<path d="M35819 22600
L35842 22576
L35890 22552
L36009 22552
L36057 22576
L36080 22600
L36104 22647
L36104 22695
L36080 22766
L35795 23052
L36104 23052
" />
<path d="M31795 20254
L31771 20278
L31700 20302
L31652 20302
L31580 20278
L31533 20230
L31509 20183
L31485 20088
L31485 20016
L31509 19921
L31533 19873
L31580 19826
L31652 19802
L31700 19802
L31771 19826
L31795 19850
" />
<path d="M32295 20302
L32128 20064
" />
<path d="M32009 20302
L32009 19802
L32200 19802
L32247 19826
L32271 19850
L32295 19897
L32295 19969
L32271 20016
L32247 20040
L32200 20064
L32009 20064
" />
<path d="M32604 20064
L32604 20302
" />
<path d="M32438 19802
L32604 20064
L32771 19802
" />
<path d="M32914 20278
L32985 20302
L33104 20302
L33152 20278
L33176 20254
L33200 20207
L33200 20159
L33176 20111
L33152 20088
L33104 20064
L33009 20040
L32961 20016
L32938 19992
L32914 19945
L32914 19897
L32938 19850
L32961 19826
L33009 19802
L33128 19802
L33200 19826
" />
<path d="M33342 19802
L33628 19802
" />
<path d="M33485 20302
L33485 19802
" />
<path d="M33771 20159
L34009 20159
" />
<path d="M33723 20302
L33890 19802
L34057 20302
" />
<path d="M34461 20302
L34223 20302
L34223 19802
" />
<path d="M34509 20350
L34890 20350
" />
<path d="M34985 20278
L35057 20302
L35176 20302
L35223 20278
L35247 20254
L35271 20207
L35271 20159
L35247 20111
L35223 20088
L35176 20064
L35080 20040
L35033 20016
L35009 19992
L34985 19945
L34985 19897
L35009 19850
L35033 19826
L35080 19802
L35199 19802
L35271 19826
" />
<path d="M35485 20302
L35485 19802
L35652 20159
L35819 19802
L35819 20302
" />
<path d="M36057 20302
L36057 19802
L36176 19802
L36247 19826
L36295 19873
L36319 19921
L36342 20016
L36342 20088
L36319 20183
L36295 20230
L36247 20278
L36176 20302
L36057 20302
" />
<path d="M36438 20350
L36819 20350
" />
<path d="M37223 20254
L37200 20278
L37128 20302
L37080 20302
L37009 20278
L36961 20230
L36938 20183
L36914 20088
L36914 20016
L36938 19921
L36961 19873
L37009 19826
L37080 19802
L37128 19802
L37200 19826
L37223 19850
" />
<path d="M37438 20040
L37604 20040
" />
<path d="M37676 20302
L37438 20302
L37438 19802
L37676 19802
" />
<path d="M38176 20302
L38009 20064
" />
<path d="M37890 20302
L37890 19802
L38080 19802
L38128 19826
L38152 19850
L38176 19897
L38176 19969
L38152 20016
L38128 20040
L38080 20064
L37890 20064
" />
<path d="M38366 20159
L38604 20159
" />
<path d="M38319 20302
L38485 19802
L38652 20302
" />
<path d="M38819 20302
L38819 19802
L38985 20159
L39152 19802
L39152 20302
" />
<path d="M39390 20302
L39390 19802
" />
<path d="M39914 20254
L39890 20278
L39819 20302
L39771 20302
L39700 20278
L39652 20230
L39628 20183
L39604 20088
L39604 20016
L39628 19921
L39652 19873
L39700 19826
L39771 19802
L39819 19802
L39890 19826
L39914 19850
" />
</g>
<g style="fill:#000000; fill-opacity:0.0; 
stroke:#000000; stroke-width:43; stroke-opacity:1; 
stroke-linecap:round; stroke-linejoin:round;">
<path d="M35835 9023
L35845 9013
L35854 8985
L35854 8967
L35845 8938
L35826 8920
L35807 8910
L35770 8901
L35742 8901
L35704 8910
L35685 8920
L35667 8938
L35657 8967
L35657 8985
L35667 9013
L35676 9023
" />
<path d="M35854 9210
L35854 9098
" />
<path d="M35854 9154
L35657 9154
L35685 9135
L35704 9117
L35714 9098
" />
<path d="M35676 9286
L35667 9295
L35657 9314
L35657 9361
L35667 9379
L35676 9389
L35695 9398
L35714 9398
L35742 9389
L35854 9276
L35854 9398
" />
<path d="M35579 8845
L35579 8732
" />
<path d="M35579 8788
L35382 8788
L35410 8770
L35429 8751
L35439 8732
" />
<path d="M35382 8967
L35382 8985
L35392 9004
L35401 9013
L35420 9023
L35457 9032
L35504 9032
L35542 9023
L35560 9013
L35570 9004
L35579 8985
L35579 8967
L35570 8948
L35560 8938
L35542 8929
L35504 8920
L35457 8920
L35420 8929
L35401 8938
L35392 8948
L35382 8967
" />
<path d="M35382 9154
L35382 9173
L35392 9192
L35401 9201
L35420 9210
L35457 9220
L35504 9220
L35542 9210
L35560 9201
L35570 9192
L35579 9173
L35579 9154
L35570 9135
L35560 9126
L35542 9117
L35504 9107
L35457 9107
L35420 9117
L35401 9126
L35392 9135
L35382 9154
" />
<path d="M35448 9304
L35579 9304
" />
<path d="M35467 9304
L35457 9314
L35448 9332
L35448 9361
L35457 9379
L35476 9389
L35579 9389
" />
<path d="M35476 9548
L35476 9483
" />
<path d="M35579 9483
L35382 9483
L35382 9576
" />
</g>
<g style="fill:#000000; fill-opacity:0.0; 
stroke:#000000; stroke-width:120; stroke-opacity:1; 
stroke-linecap:round; stroke-linejoin:round;">
<path d="M13642 16042
L13642 15442
L13500 15442
L13414 15471
L13357 15528
L13328 15585
L13300 15700
L13300 15785
L13328 15900
L13357 15957
L13414 16014
L13500 16042
L13642 16042
" />
<path d="M13100 15442
L12700 15442
L12957 16042
" />
</g>
<g style="fill:#000000; fill-opacity:0.0; 
stroke:#000000; stroke-width:39; stroke-opacity:1; 
stroke-linecap:round; stroke-linejoin:round;">
<path d="M14545 17953
L14452 17953
" />
<path d="M14564 18009
L14498 17812
L14433 18009
" />
<path d="M12070 18048
L12070 17851
" />
<path d="M11958 18048
L12042 17936
" />
<path d="M11958 17851
L12070 17964
" />
</g>
<g style="fill:#000000; fill-opacity:0.0; 
stroke:#000000; stroke-width:120; stroke-opacity:1; 
stroke-linecap:round; stroke-linejoin:round;">
<path d="M6442 15421
L5842 15421
L5842 15564
L5871 15650
L5928 15707
L5985 15735
L6100 15764
L6185 15764
L6300 15735
L6357 15707
L6414 15650
L6442 15564
L6442 15421
" />
<path d="M6442 16335
L6442 15992
" />
<path d="M6442 16164
L5842 16164
L5928 16107
L5985 16050
L6014 15992
" />
<path d="M5842 16707
L5842 16764
L5871 16821
L5900 16850
L5957 16878
L6071 16907
L6214 16907
L6328 16878
L6385 16850
L6414 16821
L6442 16764
L6442 16707
L6414 16650
L6385 16621
L6328 16592
L6214 16564
L6071 16564
L5957 16592
L5900 16621
L5871 16650
L5842 16707
" />
</g>
<g style="fill:#000000; fill-opacity:0.0; 
stroke:#000000; stroke-width:39; stroke-opacity:1; 
stroke-linecap:round; stroke-linejoin:round;">
<path d="M8353 14804
L8353 14897
" />
<path d="M8409 14785
L8212 14851
L8409 14916
" />
<path d="M8448 17279
L8251 17279
" />
<path d="M8448 17391
L8336 17307
" />
<path d="M8251 17391
L8364 17279
" />
</g>
<g style="fill:#000000; fill-opacity:0.0; 
stroke:#000000; stroke-width:35; stroke-opacity:1; 
stroke-linecap:round; stroke-linejoin:round;">
<path d="M20415 41221
L20415 40821
L20568 40821
L20606 40840
L20625 40860
L20644 40898
L20644 40955
L20625 40993
L20606 41012
L20568 41031
L20415 41031
" />
<path d="M21006 40821
L20815 40821
L20796 41012
L20815 40993
L20853 40974
L20949 40974
L20987 40993
L21006 41012
L21025 41050
L21025 41145
L21006 41183
L20987 41202
L20949 41221
L20853 41221
L20815 41202
L20796 41183
" />
<path d="M28841 39545
L28817 39569
L28746 39593
L28698 39593
L28627 39569
L28579 39521
L28555 39474
L28531 39379
L28531 39307
L28555 39212
L28579 39164
L28627 39117
L28698 39093
L28746 39093
L28817 39117
L28841 39141
" />
<path d="M29150 39093
L29246 39093
L29293 39117
L29341 39164
L29365 39260
L29365 39426
L29341 39521
L29293 39569
L29246 39593
L29150 39593
L29103 39569
L29055 39521
L29031 39426
L29031 39260
L29055 39164
L29103 39117
L29150 39093
" />
<path d="M29579 39593
L29579 39093
L29865 39593
L29865 39093
" />
<path d="M30103 39593
L30103 39093
L30389 39593
L30389 39093
" />
<path d="M30508 39641
L30889 39641
" />
<path d="M31269 39593
L30984 39593
" />
<path d="M31127 39593
L31127 39093
L31079 39164
L31031 39212
L30984 39236
" />
<path d="M31579 39093
L31627 39093
L31674 39117
L31698 39141
L31722 39188
L31746 39283
L31746 39402
L31722 39498
L31698 39545
L31674 39569
L31627 39593
L31579 39593
L31531 39569
L31508 39545
L31484 39498
L31460 39402
L31460 39283
L31484 39188
L31508 39141
L31531 39117
L31579 39093
" />
<path d="M19244 39623
L18959 39623
" />
<path d="M19101 39623
L19101 39123
L19054 39194
L19006 39242
L18959 39266
" />
<path d="M19554 39123
L19601 39123
L19649 39147
L19673 39171
L19697 39218
L19720 39313
L19720 39432
L19697 39528
L19673 39575
L19649 39599
L19601 39623
L19554 39623
L19506 39599
L19482 39575
L19459 39528
L19435 39432
L19435 39313
L19459 39218
L19482 39171
L19506 39147
L19554 39123
" />
<path d="M27131 41016
L27375 41107
L27131 41199
" />
<path d="M27482 40909
L27589 41229
L27695 40909
" />
<path d="M27787 41138
L27939 41138
" />
<path d="M27756 41229
L27863 40909
L27970 41229
" />
<path d="M28229 41229
L28076 41229
L28076 40909
" />
<path d="M28335 40909
L28335 41168
L28350 41199
L28366 41214
L28396 41229
L28457 41229
L28488 41214
L28503 41199
L28518 41168
L28518 40909
" />
<path d="M28670 41061
L28777 41061
" />
<path d="M28823 41229
L28670 41229
L28670 40909
L28823 40909
" />
<path d="M9415 41221
L9415 40821
L9568 40821
L9606 40840
L9625 40860
L9644 40898
L9644 40955
L9625 40993
L9606 41012
L9568 41031
L9415 41031
" />
<path d="M9987 40955
L9987 41221
" />
<path d="M9891 40802
L9796 41088
L10044 41088
" />
<path d="M17841 39545
L17817 39569
L17746 39593
L17698 39593
L17627 39569
L17579 39521
L17555 39474
L17531 39379
L17531 39307
L17555 39212
L17579 39164
L17627 39117
L17698 39093
L17746 39093
L17817 39117
L17841 39141
" />
<path d="M18150 39093
L18246 39093
L18293 39117
L18341 39164
L18365 39260
L18365 39426
L18341 39521
L18293 39569
L18246 39593
L18150 39593
L18103 39569
L18055 39521
L18031 39426
L18031 39260
L18055 39164
L18103 39117
L18150 39093
" />
<path d="M18579 39593
L18579 39093
L18865 39593
L18865 39093
" />
<path d="M19103 39593
L19103 39093
L19389 39593
L19389 39093
" />
<path d="M19508 39641
L19889 39641
" />
<path d="M20269 39593
L19984 39593
" />
<path d="M20127 39593
L20127 39093
L20079 39164
L20031 39212
L19984 39236
" />
<path d="M20579 39093
L20627 39093
L20674 39117
L20698 39141
L20722 39188
L20746 39283
L20746 39402
L20722 39498
L20698 39545
L20674 39569
L20627 39593
L20579 39593
L20531 39569
L20508 39545
L20484 39498
L20460 39402
L20460 39283
L20484 39188
L20508 39141
L20531 39117
L20579 39093
" />
<path d="M8244 39623
L7959 39623
" />
<path d="M8101 39623
L8101 39123
L8054 39194
L8006 39242
L7959 39266
" />
<path d="M8554 39123
L8601 39123
L8649 39147
L8673 39171
L8697 39218
L8720 39313
L8720 39432
L8697 39528
L8673 39575
L8649 39599
L8601 39623
L8554 39623
L8506 39599
L8482 39575
L8459 39528
L8435 39432
L8435 39313
L8459 39218
L8482 39171
L8506 39147
L8554 39123
" />
<path d="M16131 41016
L16375 41107
L16131 41199
" />
<path d="M16482 40909
L16589 41229
L16695 40909
" />
<path d="M16787 41138
L16939 41138
" />
<path d="M16756 41229
L16863 40909
L16970 41229
" />
<path d="M17229 41229
L17076 41229
L17076 40909
" />
<path d="M17335 40909
L17335 41168
L17350 41199
L17366 41214
L17396 41229
L17457 41229
L17488 41214
L17503 41199
L17518 41168
L17518 40909
" />
<path d="M17670 41061
L17777 41061
" />
<path d="M17823 41229
L17670 41229
L17670 40909
L17823 40909
" />
<path d="M37843 9770
L37843 9370
" />
<path d="M38072 9770
L37900 9542
" />
<path d="M38072 9370
L37843 9599
" />
<path d="M38415 9504
L38415 9770
" />
<path d="M38319 9351
L38224 9637
L38472 9637
" />
<path d="M34601 8234
L34577 8258
L34506 8282
L34458 8282
L34387 8258
L34339 8210
L34315 8163
L34291 8068
L34291 7996
L34315 7901
L34339 7853
L34387 7806
L34458 7782
L34506 7782
L34577 7806
L34601 7830
" />
<path d="M34911 7782
L35006 7782
L35053 7806
L35101 7853
L35125 7949
L35125 8115
L35101 8210
L35053 8258
L35006 8282
L34911 8282
L34863 8258
L34815 8210
L34791 8115
L34791 7949
L34815 7853
L34863 7806
L34911 7782
" />
<path d="M35339 8282
L35339 7782
L35625 8282
L35625 7782
" />
<path d="M35863 8282
L35863 7782
L36149 8282
L36149 7782
" />
<path d="M36268 8330
L36649 8330
" />
<path d="M36720 7782
L37030 7782
L36863 7972
L36934 7972
L36982 7996
L37006 8020
L37030 8068
L37030 8187
L37006 8234
L36982 8258
L36934 8282
L36791 8282
L36744 8258
L36720 8234
" />
<path d="M39193 7802
L39502 7802
L39336 7992
L39407 7992
L39455 8016
L39479 8040
L39502 8088
L39502 8207
L39479 8254
L39455 8278
L39407 8302
L39264 8302
L39217 8278
L39193 8254
" />
<path d="M37340 6386
L37584 6477
L37340 6569
" />
<path d="M37691 6279
L37798 6599
L37904 6279
" />
<path d="M37996 6508
L38148 6508
" />
<path d="M37965 6599
L38072 6279
L38179 6599
" />
<path d="M38438 6599
L38285 6599
L38285 6279
" />
<path d="M38544 6279
L38544 6538
L38559 6569
L38575 6584
L38605 6599
L38666 6599
L38697 6584
L38712 6569
L38727 6538
L38727 6279
" />
<path d="M38879 6431
L38986 6431
" />
<path d="M39032 6599
L38879 6599
L38879 6279
L39032 6279
" />
<path d="M41793 9750
L41793 9350
" />
<path d="M42022 9750
L41850 9522
" />
<path d="M42022 9350
L41793 9579
" />
<path d="M42155 9350
L42403 9350
L42269 9503
L42327 9503
L42365 9522
L42384 9541
L42403 9579
L42403 9674
L42384 9712
L42365 9731
L42327 9750
L42212 9750
L42174 9731
L42155 9712
" />
<path d="M38551 8214
L38527 8238
L38456 8262
L38408 8262
L38337 8238
L38289 8190
L38265 8143
L38241 8048
L38241 7976
L38265 7881
L38289 7833
L38337 7786
L38408 7762
L38456 7762
L38527 7786
L38551 7810
" />
<path d="M38861 7762
L38956 7762
L39003 7786
L39051 7833
L39075 7929
L39075 8095
L39051 8190
L39003 8238
L38956 8262
L38861 8262
L38813 8238
L38765 8190
L38741 8095
L38741 7929
L38765 7833
L38813 7786
L38861 7762
" />
<path d="M39289 8262
L39289 7762
L39575 8262
L39575 7762
" />
<path d="M39813 8262
L39813 7762
L40099 8262
L40099 7762
" />
<path d="M40218 8310
L40599 8310
" />
<path d="M40670 7762
L40980 7762
L40813 7952
L40884 7952
L40932 7976
L40956 8000
L40980 8048
L40980 8167
L40956 8214
L40932 8238
L40884 8262
L40741 8262
L40694 8238
L40670 8214
" />
<path d="M43143 7782
L43452 7782
L43286 7972
L43357 7972
L43405 7996
L43429 8020
L43452 8068
L43452 8187
L43429 8234
L43405 8258
L43357 8282
L43214 8282
L43167 8258
L43143 8234
" />
<path d="M41290 6366
L41534 6457
L41290 6549
" />
<path d="M41641 6259
L41748 6579
L41854 6259
" />
<path d="M41946 6488
L42098 6488
" />
<path d="M41915 6579
L42022 6259
L42129 6579
" />
<path d="M42388 6579
L42235 6579
L42235 6259
" />
<path d="M42494 6259
L42494 6518
L42509 6549
L42525 6564
L42555 6579
L42616 6579
L42647 6564
L42662 6549
L42677 6518
L42677 6259
" />
<path d="M42829 6411
L42936 6411
" />
<path d="M42982 6579
L42829 6579
L42829 6259
L42982 6259
" />
<path d="M50325 41121
L50325 40721
L50477 40721
L50515 40740
L50534 40760
L50553 40798
L50553 40855
L50534 40893
L50515 40912
L50477 40931
L50325 40931
" />
<path d="M50934 41121
L50706 41121
" />
<path d="M50820 41121
L50820 40721
L50782 40779
L50744 40817
L50706 40836
" />
<path d="M51315 41121
L51087 41121
" />
<path d="M51201 41121
L51201 40721
L51163 40779
L51125 40817
L51087 40836
" />
<path d="M58941 39445
L58917 39469
L58846 39493
L58798 39493
L58727 39469
L58679 39421
L58655 39374
L58631 39279
L58631 39207
L58655 39112
L58679 39064
L58727 39017
L58798 38993
L58846 38993
L58917 39017
L58941 39041
" />
<path d="M59250 38993
L59346 38993
L59393 39017
L59441 39064
L59465 39160
L59465 39326
L59441 39421
L59393 39469
L59346 39493
L59250 39493
L59203 39469
L59155 39421
L59131 39326
L59131 39160
L59155 39064
L59203 39017
L59250 38993
" />
<path d="M59679 39493
L59679 38993
L59965 39493
L59965 38993
" />
<path d="M60203 39493
L60203 38993
L60489 39493
L60489 38993
" />
<path d="M60608 39541
L60989 39541
" />
<path d="M61369 39493
L61084 39493
" />
<path d="M61227 39493
L61227 38993
L61179 39064
L61131 39112
L61084 39136
" />
<path d="M61679 38993
L61727 38993
L61774 39017
L61798 39041
L61822 39088
L61846 39183
L61846 39302
L61822 39398
L61798 39445
L61774 39469
L61727 39493
L61679 39493
L61631 39469
L61608 39445
L61584 39398
L61560 39302
L61560 39183
L61584 39088
L61608 39041
L61631 39017
L61679 38993
" />
<path d="M49344 39523
L49059 39523
" />
<path d="M49201 39523
L49201 39023
L49154 39094
L49106 39142
L49059 39166
" />
<path d="M49654 39023
L49701 39023
L49749 39047
L49773 39071
L49797 39118
L49820 39213
L49820 39332
L49797 39428
L49773 39475
L49749 39499
L49701 39523
L49654 39523
L49606 39499
L49582 39475
L49559 39428
L49535 39332
L49535 39213
L49559 39118
L49582 39071
L49606 39047
L49654 39023
" />
<path d="M57231 40916
L57475 41007
L57231 41099
" />
<path d="M57582 40809
L57689 41129
L57795 40809
" />
<path d="M57887 41038
L58039 41038
" />
<path d="M57856 41129
L57963 40809
L58070 41129
" />
<path d="M58329 41129
L58176 41129
L58176 40809
" />
<path d="M58435 40809
L58435 41068
L58450 41099
L58466 41114
L58496 41129
L58557 41129
L58588 41114
L58603 41099
L58618 41068
L58618 40809
" />
<path d="M58770 40961
L58877 40961
" />
<path d="M58923 41129
L58770 41129
L58770 40809
L58923 40809
" />
<path d="M60821 21174
L60421 21174
L60421 21022
L60440 20984
L60460 20965
L60498 20946
L60555 20946
L60593 20965
L60612 20984
L60631 21022
L60631 21174
" />
<path d="M60821 20565
L60821 20793
" />
<path d="M60821 20679
L60421 20679
L60479 20717
L60517 20755
L60536 20793
" />
<path d="M60421 20317
L60421 20279
L60440 20241
L60460 20222
L60498 20203
L60574 20184
L60669 20184
L60745 20203
L60783 20222
L60802 20241
L60821 20279
L60821 20317
L60802 20355
L60783 20374
L60745 20393
L60669 20412
L60574 20412
L60498 20393
L60460 20374
L60440 20355
L60421 20317
" />
<path d="M59145 12558
L59169 12582
L59193 12653
L59193 12701
L59169 12772
L59121 12820
L59074 12844
L58979 12868
L58907 12868
L58812 12844
L58764 12820
L58717 12772
L58693 12701
L58693 12653
L58717 12582
L58741 12558
" />
<path d="M58693 12249
L58693 12153
L58717 12106
L58764 12058
L58860 12034
L59026 12034
L59121 12058
L59169 12106
L59193 12153
L59193 12249
L59169 12296
L59121 12344
L59026 12368
L58860 12368
L58764 12344
L58717 12296
L58693 12249
" />
<path d="M59193 11820
L58693 11820
L59193 11534
L58693 11534
" />
<path d="M59193 11296
L58693 11296
L59193 11011
L58693 11011
" />
<path d="M59241 10891
L59241 10511
" />
<path d="M59193 10130
L59193 10415
" />
<path d="M59193 10272
L58693 10272
L58764 10320
L58812 10368
L58836 10415
" />
<path d="M58693 9820
L58693 9772
L58717 9725
L58741 9701
L58788 9677
L58883 9653
L59002 9653
L59098 9677
L59145 9701
L59169 9725
L59193 9772
L59193 9820
L59169 9868
L59145 9891
L59098 9915
L59002 9939
L58883 9939
L58788 9915
L58741 9891
L58717 9868
L58693 9820
" />
<path d="M59223 22155
L59223 22440
" />
<path d="M59223 22298
L58723 22298
L58794 22345
L58842 22393
L58866 22440
" />
<path d="M58723 21845
L58723 21798
L58747 21750
L58771 21726
L58818 21702
L58913 21679
L59032 21679
L59128 21702
L59175 21726
L59199 21750
L59223 21798
L59223 21845
L59199 21893
L59175 21917
L59128 21940
L59032 21964
L58913 21964
L58818 21940
L58771 21917
L58747 21893
L58723 21845
" />
<path d="M60616 14268
L60707 14024
L60799 14268
" />
<path d="M60509 13917
L60829 13810
L60509 13704
" />
<path d="M60738 13612
L60738 13460
" />
<path d="M60829 13643
L60509 13536
L60829 13430
" />
<path d="M60829 13170
L60829 13323
L60509 13323
" />
<path d="M60509 13064
L60768 13064
L60799 13049
L60814 13033
L60829 13003
L60829 12942
L60814 12911
L60799 12896
L60768 12881
L60509 12881
" />
<path d="M60661 12729
L60661 12622
" />
<path d="M60829 12576
L60829 12729
L60509 12729
L60509 12576
" />
<path d="M39415 41121
L39415 40721
L39568 40721
L39606 40740
L39625 40760
L39644 40798
L39644 40855
L39625 40893
L39606 40912
L39568 40931
L39415 40931
" />
<path d="M39834 41121
L39911 41121
L39949 41102
L39968 41083
L40006 41026
L40025 40950
L40025 40798
L40006 40760
L39987 40740
L39949 40721
L39872 40721
L39834 40740
L39815 40760
L39796 40798
L39796 40893
L39815 40931
L39834 40950
L39872 40969
L39949 40969
L39987 40950
L40006 40931
L40025 40893
" />
<path d="M47841 39445
L47817 39469
L47746 39493
L47698 39493
L47627 39469
L47579 39421
L47555 39374
L47531 39279
L47531 39207
L47555 39112
L47579 39064
L47627 39017
L47698 38993
L47746 38993
L47817 39017
L47841 39041
" />
<path d="M48150 38993
L48246 38993
L48293 39017
L48341 39064
L48365 39160
L48365 39326
L48341 39421
L48293 39469
L48246 39493
L48150 39493
L48103 39469
L48055 39421
L48031 39326
L48031 39160
L48055 39064
L48103 39017
L48150 38993
" />
<path d="M48579 39493
L48579 38993
L48865 39493
L48865 38993
" />
<path d="M49103 39493
L49103 38993
L49389 39493
L49389 38993
" />
<path d="M49508 39541
L49889 39541
" />
<path d="M50269 39493
L49984 39493
" />
<path d="M50127 39493
L50127 38993
L50079 39064
L50031 39112
L49984 39136
" />
<path d="M50579 38993
L50627 38993
L50674 39017
L50698 39041
L50722 39088
L50746 39183
L50746 39302
L50722 39398
L50698 39445
L50674 39469
L50627 39493
L50579 39493
L50531 39469
L50508 39445
L50484 39398
L50460 39302
L50460 39183
L50484 39088
L50508 39041
L50531 39017
L50579 38993
" />
<path d="M38244 39523
L37959 39523
" />
<path d="M38101 39523
L38101 39023
L38054 39094
L38006 39142
L37959 39166
" />
<path d="M38554 39023
L38601 39023
L38649 39047
L38673 39071
L38697 39118
L38720 39213
L38720 39332
L38697 39428
L38673 39475
L38649 39499
L38601 39523
L38554 39523
L38506 39499
L38482 39475
L38459 39428
L38435 39332
L38435 39213
L38459 39118
L38482 39071
L38506 39047
L38554 39023
" />
<path d="M46131 40916
L46375 41007
L46131 41099
" />
<path d="M46482 40809
L46589 41129
L46695 40809
" />
<path d="M46787 41038
L46939 41038
" />
<path d="M46756 41129
L46863 40809
L46970 41129
" />
<path d="M47229 41129
L47076 41129
L47076 40809
" />
<path d="M47335 40809
L47335 41068
L47350 41099
L47366 41114
L47396 41129
L47457 41129
L47488 41114
L47503 41099
L47518 41068
L47518 40809
" />
<path d="M47670 40961
L47777 40961
" />
<path d="M47823 41129
L47670 41129
L47670 40809
L47823 40809
" />
<path d="M60821 34074
L60421 34074
L60421 33922
L60440 33884
L60460 33865
L60498 33846
L60555 33846
L60593 33865
L60612 33884
L60631 33922
L60631 34074
" />
<path d="M60821 33465
L60821 33693
" />
<path d="M60821 33579
L60421 33579
L60479 33617
L60517 33655
L60536 33693
" />
<path d="M60421 33331
L60421 33084
L60574 33217
L60574 33160
L60593 33122
L60612 33103
L60650 33084
L60745 33084
L60783 33103
L60802 33122
L60821 33160
L60821 33274
L60802 33312
L60783 33331
" />
<path d="M59145 25458
L59169 25482
L59193 25553
L59193 25601
L59169 25672
L59121 25720
L59074 25744
L58979 25768
L58907 25768
L58812 25744
L58764 25720
L58717 25672
L58693 25601
L58693 25553
L58717 25482
L58741 25458
" />
<path d="M58693 25149
L58693 25053
L58717 25006
L58764 24958
L58860 24934
L59026 24934
L59121 24958
L59169 25006
L59193 25053
L59193 25149
L59169 25196
L59121 25244
L59026 25268
L58860 25268
L58764 25244
L58717 25196
L58693 25149
" />
<path d="M59193 24720
L58693 24720
L59193 24434
L58693 24434
" />
<path d="M59193 24196
L58693 24196
L59193 23911
L58693 23911
" />
<path d="M59241 23791
L59241 23411
" />
<path d="M59193 23030
L59193 23315
" />
<path d="M59193 23172
L58693 23172
L58764 23220
L58812 23268
L58836 23315
" />
<path d="M58693 22720
L58693 22672
L58717 22625
L58741 22601
L58788 22577
L58883 22553
L59002 22553
L59098 22577
L59145 22601
L59169 22625
L59193 22672
L59193 22720
L59169 22768
L59145 22791
L59098 22815
L59002 22839
L58883 22839
L58788 22815
L58741 22791
L58717 22768
L58693 22720
" />
<path d="M59223 35055
L59223 35340
" />
<path d="M59223 35198
L58723 35198
L58794 35245
L58842 35293
L58866 35340
" />
<path d="M58723 34745
L58723 34698
L58747 34650
L58771 34626
L58818 34602
L58913 34579
L59032 34579
L59128 34602
L59175 34626
L59199 34650
L59223 34698
L59223 34745
L59199 34793
L59175 34817
L59128 34840
L59032 34864
L58913 34864
L58818 34840
L58771 34817
L58747 34793
L58723 34745
" />
<path d="M60616 27168
L60707 26924
L60799 27168
" />
<path d="M60509 26817
L60829 26710
L60509 26604
" />
<path d="M60738 26512
L60738 26360
" />
<path d="M60829 26543
L60509 26436
L60829 26330
" />
<path d="M60829 26070
L60829 26223
L60509 26223
" />
<path d="M60509 25964
L60768 25964
L60799 25949
L60814 25933
L60829 25903
L60829 25842
L60814 25811
L60799 25796
L60768 25781
L60509 25781
" />
<path d="M60661 25629
L60661 25522
" />
<path d="M60829 25476
L60829 25629
L60509 25629
L60509 25476
" />
<path d="M48503 8051
L48503 7651
L48655 7651
L48693 7670
L48712 7690
L48731 7728
L48731 7785
L48712 7823
L48693 7842
L48655 7861
L48503 7861
" />
<path d="M49112 8051
L48884 8051
" />
<path d="M48998 8051
L48998 7651
L48960 7709
L48922 7747
L48884 7766
" />
<path d="M49455 7785
L49455 8051
" />
<path d="M49360 7632
L49265 7918
L49512 7918
" />
<path d="M42551 9813
L42527 9837
L42456 9861
L42408 9861
L42337 9837
L42289 9789
L42265 9742
L42241 9647
L42241 9575
L42265 9480
L42289 9432
L42337 9385
L42408 9361
L42456 9361
L42527 9385
L42551 9409
" />
<path d="M42861 9361
L42956 9361
L43003 9385
L43051 9432
L43075 9528
L43075 9694
L43051 9789
L43003 9837
L42956 9861
L42861 9861
L42813 9837
L42765 9789
L42741 9694
L42741 9528
L42765 9432
L42813 9385
L42861 9361
" />
<path d="M43289 9861
L43289 9361
L43575 9861
L43575 9361
" />
<path d="M43813 9861
L43813 9361
L44099 9861
L44099 9361
" />
<path d="M44218 9909
L44599 9909
" />
<path d="M44932 9361
L44837 9361
L44789 9385
L44765 9409
L44718 9480
L44694 9575
L44694 9766
L44718 9813
L44741 9837
L44789 9861
L44884 9861
L44932 9837
L44956 9813
L44980 9766
L44980 9647
L44956 9599
L44932 9575
L44884 9551
L44789 9551
L44741 9575
L44718 9599
L44694 9647
" />
<path d="M50305 9331
L50210 9331
L50162 9355
L50138 9379
L50090 9450
L50067 9545
L50067 9736
L50090 9783
L50114 9807
L50162 9831
L50257 9831
L50305 9807
L50329 9783
L50352 9736
L50352 9617
L50329 9569
L50305 9545
L50257 9521
L50162 9521
L50114 9545
L50090 9569
L50067 9617
" />
<path d="M44841 7766
L45085 7857
L44841 7949
" />
<path d="M45192 7659
L45299 7979
L45405 7659
" />
<path d="M45497 7888
L45649 7888
" />
<path d="M45466 7979
L45573 7659
L45680 7979
" />
<path d="M45939 7979
L45786 7979
L45786 7659
" />
<path d="M46045 7659
L46045 7918
L46060 7949
L46076 7964
L46106 7979
L46167 7979
L46198 7964
L46213 7949
L46228 7918
L46228 7659
" />
<path d="M46380 7811
L46487 7811
" />
<path d="M46533 7979
L46380 7979
L46380 7659
L46533 7659
" />
<path d="M55603 8051
L55603 7651
L55755 7651
L55793 7670
L55812 7690
L55831 7728
L55831 7785
L55812 7823
L55793 7842
L55755 7861
L55603 7861
" />
<path d="M56212 8051
L55984 8051
" />
<path d="M56098 8051
L56098 7651
L56060 7709
L56022 7747
L55984 7766
" />
<path d="M56574 7651
L56384 7651
L56365 7842
L56384 7823
L56422 7804
L56517 7804
L56555 7823
L56574 7842
L56593 7880
L56593 7975
L56574 8013
L56555 8032
L56517 8051
L56422 8051
L56384 8032
L56365 8013
" />
<path d="M49651 9813
L49627 9837
L49556 9861
L49508 9861
L49437 9837
L49389 9789
L49365 9742
L49341 9647
L49341 9575
L49365 9480
L49389 9432
L49437 9385
L49508 9361
L49556 9361
L49627 9385
L49651 9409
" />
<path d="M49961 9361
L50056 9361
L50103 9385
L50151 9432
L50175 9528
L50175 9694
L50151 9789
L50103 9837
L50056 9861
L49961 9861
L49913 9837
L49865 9789
L49841 9694
L49841 9528
L49865 9432
L49913 9385
L49961 9361
" />
<path d="M50389 9861
L50389 9361
L50675 9861
L50675 9361
" />
<path d="M50913 9861
L50913 9361
L51199 9861
L51199 9361
" />
<path d="M51318 9909
L51699 9909
" />
<path d="M52032 9361
L51937 9361
L51889 9385
L51865 9409
L51818 9480
L51794 9575
L51794 9766
L51818 9813
L51841 9837
L51889 9861
L51984 9861
L52032 9837
L52056 9813
L52080 9766
L52080 9647
L52056 9599
L52032 9575
L51984 9551
L51889 9551
L51841 9575
L51818 9599
L51794 9647
" />
<path d="M57405 9331
L57310 9331
L57262 9355
L57238 9379
L57190 9450
L57167 9545
L57167 9736
L57190 9783
L57214 9807
L57262 9831
L57357 9831
L57405 9807
L57429 9783
L57452 9736
L57452 9617
L57429 9569
L57405 9545
L57357 9521
L57262 9521
L57214 9545
L57190 9569
L57167 9617
" />
<path d="M51941 7766
L52185 7857
L51941 7949
" />
<path d="M52292 7659
L52399 7979
L52505 7659
" />
<path d="M52597 7888
L52749 7888
" />
<path d="M52566 7979
L52673 7659
L52780 7979
" />
<path d="M53039 7979
L52886 7979
L52886 7659
" />
<path d="M53145 7659
L53145 7918
L53160 7949
L53176 7964
L53206 7979
L53267 7979
L53298 7964
L53313 7949
L53328 7918
L53328 7659
" />
<path d="M53480 7811
L53587 7811
" />
<path d="M53633 7979
L53480 7979
L53480 7659
L53633 7659
" />
</g> 
</svg>
