G04 #@! TF.FileFunction,Legend,Top*
%FSLAX46Y46*%
G04 Gerber Fmt 4.6, Leading zero omitted, Abs format (unit mm)*
G04 Created by KiCad (PCBNEW 4.0.2-4+6225~38~ubuntu15.04.1-stable) date Sa 02 Apr 2016 14:44:10 CEST*
%MOMM*%
G01*
G04 APERTURE LIST*
%ADD10C,0.150000*%
%ADD11C,0.250000*%
%ADD12C,0.200000*%
%ADD13C,3.000000*%
%ADD14C,4.000000*%
%ADD15R,10.800000X9.400000*%
%ADD16R,1.390000X4.600000*%
%ADD17R,1.300000X1.300000*%
%ADD18C,1.300000*%
%ADD19C,6.000000*%
%ADD20R,1.000000X1.250000*%
%ADD21C,3.649980*%
%ADD22R,1.501140X1.501140*%
%ADD23C,1.501140*%
%ADD24R,1.300000X1.500000*%
%ADD25C,1.651000*%
%ADD26R,1.727200X1.727200*%
%ADD27O,1.727200X1.727200*%
%ADD28C,2.000000*%
%ADD29R,6.000000X8.750000*%
%ADD30R,6.000000X9.000000*%
%ADD31O,3.014980X2.000000*%
%ADD32R,2.000000X1.600000*%
%ADD33R,1.500000X0.400000*%
%ADD34R,1.250000X1.000000*%
%ADD35C,0.889000*%
%ADD36C,0.100000*%
G04 APERTURE END LIST*
D10*
D11*
X53702381Y-74952381D02*
X53226190Y-74952381D01*
X53226190Y-73952381D01*
X54035714Y-74952381D02*
X54035714Y-73952381D01*
X54369048Y-74666667D01*
X54702381Y-73952381D01*
X54702381Y-74952381D01*
X55083333Y-73952381D02*
X55750000Y-73952381D01*
X55321428Y-74952381D01*
X56273809Y-74380952D02*
X56178571Y-74333333D01*
X56130952Y-74285714D01*
X56083333Y-74190476D01*
X56083333Y-74142857D01*
X56130952Y-74047619D01*
X56178571Y-74000000D01*
X56273809Y-73952381D01*
X56464286Y-73952381D01*
X56559524Y-74000000D01*
X56607143Y-74047619D01*
X56654762Y-74142857D01*
X56654762Y-74190476D01*
X56607143Y-74285714D01*
X56559524Y-74333333D01*
X56464286Y-74380952D01*
X56273809Y-74380952D01*
X56178571Y-74428571D01*
X56130952Y-74476190D01*
X56083333Y-74571429D01*
X56083333Y-74761905D01*
X56130952Y-74857143D01*
X56178571Y-74904762D01*
X56273809Y-74952381D01*
X56464286Y-74952381D01*
X56559524Y-74904762D01*
X56607143Y-74857143D01*
X56654762Y-74761905D01*
X56654762Y-74571429D01*
X56607143Y-74476190D01*
X56559524Y-74428571D01*
X56464286Y-74380952D01*
X57273809Y-73952381D02*
X57369048Y-73952381D01*
X57464286Y-74000000D01*
X57511905Y-74047619D01*
X57559524Y-74142857D01*
X57607143Y-74333333D01*
X57607143Y-74571429D01*
X57559524Y-74761905D01*
X57511905Y-74857143D01*
X57464286Y-74904762D01*
X57369048Y-74952381D01*
X57273809Y-74952381D01*
X57178571Y-74904762D01*
X57130952Y-74857143D01*
X57083333Y-74761905D01*
X57035714Y-74571429D01*
X57035714Y-74333333D01*
X57083333Y-74142857D01*
X57130952Y-74047619D01*
X57178571Y-74000000D01*
X57273809Y-73952381D01*
X58511905Y-73952381D02*
X58035714Y-73952381D01*
X57988095Y-74428571D01*
X58035714Y-74380952D01*
X58130952Y-74333333D01*
X58369048Y-74333333D01*
X58464286Y-74380952D01*
X58511905Y-74428571D01*
X58559524Y-74523810D01*
X58559524Y-74761905D01*
X58511905Y-74857143D01*
X58464286Y-74904762D01*
X58369048Y-74952381D01*
X58130952Y-74952381D01*
X58035714Y-74904762D01*
X57988095Y-74857143D01*
X59559524Y-74857143D02*
X59511905Y-74904762D01*
X59369048Y-74952381D01*
X59273810Y-74952381D01*
X59130952Y-74904762D01*
X59035714Y-74809524D01*
X58988095Y-74714286D01*
X58940476Y-74523810D01*
X58940476Y-74380952D01*
X58988095Y-74190476D01*
X59035714Y-74095238D01*
X59130952Y-74000000D01*
X59273810Y-73952381D01*
X59369048Y-73952381D01*
X59511905Y-74000000D01*
X59559524Y-74047619D01*
X59845238Y-73952381D02*
X60416667Y-73952381D01*
X60130952Y-74952381D02*
X60130952Y-73952381D01*
D12*
X50750000Y-61500000D02*
X48250000Y-61500000D01*
X50750000Y-55750000D02*
X50750000Y-61500000D01*
X48250000Y-55750000D02*
X50750000Y-55750000D01*
X48250000Y-61500000D02*
X48250000Y-55750000D01*
X55500000Y-61500000D02*
X55500000Y-61250000D01*
X52750000Y-61500000D02*
X55500000Y-61500000D01*
X52750000Y-55750000D02*
X52750000Y-61500000D01*
X55500000Y-55750000D02*
X52750000Y-55750000D01*
X55500000Y-61500000D02*
X55500000Y-55750000D01*
X46000000Y-72750000D02*
X50750000Y-72750000D01*
X46000000Y-62250000D02*
X46000000Y-72750000D01*
X58000000Y-62250000D02*
X46000000Y-62250000D01*
X58000000Y-72750000D02*
X58000000Y-62250000D01*
X50750000Y-72750000D02*
X58000000Y-72750000D01*
X46500000Y-38250000D02*
X39250000Y-38250000D01*
X39250000Y-38250000D02*
X46500000Y-38250000D01*
X39250000Y-36500000D02*
X39000000Y-36500000D01*
X39250000Y-38250000D02*
X39250000Y-36500000D01*
X27500000Y-47750000D02*
X29000000Y-47750000D01*
X27500000Y-38500000D02*
X27500000Y-47750000D01*
X29000000Y-38500000D02*
X27500000Y-38500000D01*
X46500000Y-47750000D02*
X46500000Y-38250000D01*
X29000000Y-47750000D02*
X46500000Y-47750000D01*
X35250000Y-38500000D02*
X29000000Y-38500000D01*
X35250000Y-36500000D02*
X35250000Y-38500000D01*
X35250000Y-36500000D02*
X39000000Y-36500000D01*
D10*
X18750000Y-28500000D02*
X18750000Y-32500000D01*
X19000000Y-28500000D02*
X19000000Y-32500000D01*
X18500000Y-28500000D02*
X18500000Y-32500000D01*
X18000000Y-32500000D02*
X18000000Y-28500000D01*
X18000000Y-28500000D02*
X25000000Y-28500000D01*
X25000000Y-28500000D02*
X25000000Y-32500000D01*
X25000000Y-32500000D02*
X18000000Y-32500000D01*
X50641000Y-26999000D02*
X46641000Y-26999000D01*
X50641000Y-27249000D02*
X46641000Y-27249000D01*
X50641000Y-26749000D02*
X46641000Y-26749000D01*
X46641000Y-26249000D02*
X50641000Y-26249000D01*
X50641000Y-26249000D02*
X50641000Y-33249000D01*
X50641000Y-33249000D02*
X46641000Y-33249000D01*
X46641000Y-33249000D02*
X46641000Y-26249000D01*
X46840000Y-61005000D02*
X48090000Y-61005000D01*
X46840000Y-61005000D02*
X46840000Y-62505000D01*
X56840000Y-61005000D02*
X56840000Y-62505000D01*
X56840000Y-61005000D02*
X55590000Y-61005000D01*
X45982000Y-59524000D02*
X46982000Y-59524000D01*
X46982000Y-57824000D02*
X45982000Y-57824000D01*
X69165000Y-62315000D02*
X69165000Y-61115000D01*
X70915000Y-61115000D02*
X70915000Y-62315000D01*
X69165000Y-67065000D02*
X69165000Y-65865000D01*
X70915000Y-65865000D02*
X70915000Y-67065000D01*
X69115000Y-72015000D02*
X69115000Y-70815000D01*
X70865000Y-70815000D02*
X70865000Y-72015000D01*
X59500000Y-59900000D02*
X58500000Y-59900000D01*
X58500000Y-61600000D02*
X59500000Y-61600000D01*
X60250000Y-56975000D02*
X58250000Y-56975000D01*
X58250000Y-59025000D02*
X60250000Y-59025000D01*
X42750000Y-63350000D02*
X43750000Y-63350000D01*
X43750000Y-61650000D02*
X42750000Y-61650000D01*
X35000000Y-56150000D02*
X34000000Y-56150000D01*
X34000000Y-57850000D02*
X35000000Y-57850000D01*
X35000000Y-59650000D02*
X34000000Y-59650000D01*
X34000000Y-61350000D02*
X35000000Y-61350000D01*
X35328000Y-63150000D02*
X34328000Y-63150000D01*
X34328000Y-64850000D02*
X35328000Y-64850000D01*
X45250000Y-55071000D02*
X46250000Y-55071000D01*
X46250000Y-53371000D02*
X45250000Y-53371000D01*
X37534000Y-67691000D02*
X37534000Y-68691000D01*
X39234000Y-68691000D02*
X39234000Y-67691000D01*
X34867000Y-67818000D02*
X34867000Y-68818000D01*
X36567000Y-68818000D02*
X36567000Y-67818000D01*
X41000000Y-66350000D02*
X42000000Y-66350000D01*
X42000000Y-64650000D02*
X41000000Y-64650000D01*
X40250000Y-32500000D02*
X40250000Y-28500000D01*
X40000000Y-32500000D02*
X40000000Y-28500000D01*
X40500000Y-32500000D02*
X40500000Y-28500000D01*
X41000000Y-28500000D02*
X41000000Y-32500000D01*
X41000000Y-32500000D02*
X34000000Y-32500000D01*
X34000000Y-32500000D02*
X34000000Y-28500000D01*
X34000000Y-28500000D02*
X41000000Y-28500000D01*
X20761905Y-27952381D02*
X20761905Y-26952381D01*
X21000000Y-26952381D01*
X21142858Y-27000000D01*
X21238096Y-27095238D01*
X21285715Y-27190476D01*
X21333334Y-27380952D01*
X21333334Y-27523810D01*
X21285715Y-27714286D01*
X21238096Y-27809524D01*
X21142858Y-27904762D01*
X21000000Y-27952381D01*
X20761905Y-27952381D01*
X21666667Y-26952381D02*
X22285715Y-26952381D01*
X21952381Y-27333333D01*
X22095239Y-27333333D01*
X22190477Y-27380952D01*
X22238096Y-27428571D01*
X22285715Y-27523810D01*
X22285715Y-27761905D01*
X22238096Y-27857143D01*
X22190477Y-27904762D01*
X22095239Y-27952381D01*
X21809524Y-27952381D01*
X21714286Y-27904762D01*
X21666667Y-27857143D01*
X52593381Y-30987095D02*
X51593381Y-30987095D01*
X51593381Y-30749000D01*
X51641000Y-30606142D01*
X51736238Y-30510904D01*
X51831476Y-30463285D01*
X52021952Y-30415666D01*
X52164810Y-30415666D01*
X52355286Y-30463285D01*
X52450524Y-30510904D01*
X52545762Y-30606142D01*
X52593381Y-30749000D01*
X52593381Y-30987095D01*
X51926714Y-29558523D02*
X52593381Y-29558523D01*
X51545762Y-29796619D02*
X52260048Y-30034714D01*
X52260048Y-29415666D01*
X50488095Y-73952381D02*
X50488095Y-74761905D01*
X50535714Y-74857143D01*
X50583333Y-74904762D01*
X50678571Y-74952381D01*
X50869048Y-74952381D01*
X50964286Y-74904762D01*
X51011905Y-74857143D01*
X51059524Y-74761905D01*
X51059524Y-73952381D01*
X51678571Y-74380952D02*
X51583333Y-74333333D01*
X51535714Y-74285714D01*
X51488095Y-74190476D01*
X51488095Y-74142857D01*
X51535714Y-74047619D01*
X51583333Y-74000000D01*
X51678571Y-73952381D01*
X51869048Y-73952381D01*
X51964286Y-74000000D01*
X52011905Y-74047619D01*
X52059524Y-74142857D01*
X52059524Y-74190476D01*
X52011905Y-74285714D01*
X51964286Y-74333333D01*
X51869048Y-74380952D01*
X51678571Y-74380952D01*
X51583333Y-74428571D01*
X51535714Y-74476190D01*
X51488095Y-74571429D01*
X51488095Y-74761905D01*
X51535714Y-74857143D01*
X51583333Y-74904762D01*
X51678571Y-74952381D01*
X51869048Y-74952381D01*
X51964286Y-74904762D01*
X52011905Y-74857143D01*
X52059524Y-74761905D01*
X52059524Y-74571429D01*
X52011905Y-74476190D01*
X51964286Y-74428571D01*
X51869048Y-74380952D01*
X67285714Y-90452381D02*
X67285714Y-89452381D01*
X67666667Y-89452381D01*
X67761905Y-89500000D01*
X67809524Y-89547619D01*
X67857143Y-89642857D01*
X67857143Y-89785714D01*
X67809524Y-89880952D01*
X67761905Y-89928571D01*
X67666667Y-89976190D01*
X67285714Y-89976190D01*
X68809524Y-90452381D02*
X68238095Y-90452381D01*
X68523809Y-90452381D02*
X68523809Y-89452381D01*
X68428571Y-89595238D01*
X68333333Y-89690476D01*
X68238095Y-89738095D01*
X69428571Y-89452381D02*
X69523810Y-89452381D01*
X69619048Y-89500000D01*
X69666667Y-89547619D01*
X69714286Y-89642857D01*
X69761905Y-89833333D01*
X69761905Y-90071429D01*
X69714286Y-90261905D01*
X69666667Y-90357143D01*
X69619048Y-90404762D01*
X69523810Y-90452381D01*
X69428571Y-90452381D01*
X69333333Y-90404762D01*
X69285714Y-90357143D01*
X69238095Y-90261905D01*
X69190476Y-90071429D01*
X69190476Y-89833333D01*
X69238095Y-89642857D01*
X69285714Y-89547619D01*
X69333333Y-89500000D01*
X69428571Y-89452381D01*
X67285714Y-90452381D02*
X67285714Y-89452381D01*
X67666667Y-89452381D01*
X67761905Y-89500000D01*
X67809524Y-89547619D01*
X67857143Y-89642857D01*
X67857143Y-89785714D01*
X67809524Y-89880952D01*
X67761905Y-89928571D01*
X67666667Y-89976190D01*
X67285714Y-89976190D01*
X68809524Y-90452381D02*
X68238095Y-90452381D01*
X68523809Y-90452381D02*
X68523809Y-89452381D01*
X68428571Y-89595238D01*
X68333333Y-89690476D01*
X68238095Y-89738095D01*
X69428571Y-89452381D02*
X69523810Y-89452381D01*
X69619048Y-89500000D01*
X69666667Y-89547619D01*
X69714286Y-89642857D01*
X69761905Y-89833333D01*
X69761905Y-90071429D01*
X69714286Y-90261905D01*
X69666667Y-90357143D01*
X69619048Y-90404762D01*
X69523810Y-90452381D01*
X69428571Y-90452381D01*
X69333333Y-90404762D01*
X69285714Y-90357143D01*
X69238095Y-90261905D01*
X69190476Y-90071429D01*
X69190476Y-89833333D01*
X69238095Y-89642857D01*
X69285714Y-89547619D01*
X69333333Y-89500000D01*
X69428571Y-89452381D01*
X42089143Y-59281143D02*
X42041524Y-59328762D01*
X41898667Y-59376381D01*
X41803429Y-59376381D01*
X41660571Y-59328762D01*
X41565333Y-59233524D01*
X41517714Y-59138286D01*
X41470095Y-58947810D01*
X41470095Y-58804952D01*
X41517714Y-58614476D01*
X41565333Y-58519238D01*
X41660571Y-58424000D01*
X41803429Y-58376381D01*
X41898667Y-58376381D01*
X42041524Y-58424000D01*
X42089143Y-58471619D01*
X42946286Y-58709714D02*
X42946286Y-59376381D01*
X42708190Y-58328762D02*
X42470095Y-59043048D01*
X43089143Y-59043048D01*
X43898667Y-58709714D02*
X43898667Y-59376381D01*
X43660571Y-58328762D02*
X43422476Y-59043048D01*
X44041524Y-59043048D01*
X5285714Y-7452381D02*
X5285714Y-6452381D01*
X5666667Y-6452381D01*
X5761905Y-6500000D01*
X5809524Y-6547619D01*
X5857143Y-6642857D01*
X5857143Y-6785714D01*
X5809524Y-6880952D01*
X5761905Y-6928571D01*
X5666667Y-6976190D01*
X5285714Y-6976190D01*
X6238095Y-6547619D02*
X6285714Y-6500000D01*
X6380952Y-6452381D01*
X6619048Y-6452381D01*
X6714286Y-6500000D01*
X6761905Y-6547619D01*
X6809524Y-6642857D01*
X6809524Y-6738095D01*
X6761905Y-6880952D01*
X6190476Y-7452381D01*
X6809524Y-7452381D01*
X7761905Y-7452381D02*
X7190476Y-7452381D01*
X7476190Y-7452381D02*
X7476190Y-6452381D01*
X7380952Y-6595238D01*
X7285714Y-6690476D01*
X7190476Y-6738095D01*
X5285714Y-7452381D02*
X5285714Y-6452381D01*
X5666667Y-6452381D01*
X5761905Y-6500000D01*
X5809524Y-6547619D01*
X5857143Y-6642857D01*
X5857143Y-6785714D01*
X5809524Y-6880952D01*
X5761905Y-6928571D01*
X5666667Y-6976190D01*
X5285714Y-6976190D01*
X6238095Y-6547619D02*
X6285714Y-6500000D01*
X6380952Y-6452381D01*
X6619048Y-6452381D01*
X6714286Y-6500000D01*
X6761905Y-6547619D01*
X6809524Y-6642857D01*
X6809524Y-6738095D01*
X6761905Y-6880952D01*
X6190476Y-7452381D01*
X6809524Y-7452381D01*
X7761905Y-7452381D02*
X7190476Y-7452381D01*
X7476190Y-7452381D02*
X7476190Y-6452381D01*
X7380952Y-6595238D01*
X7285714Y-6690476D01*
X7190476Y-6738095D01*
X67285714Y-7452381D02*
X67285714Y-6452381D01*
X67666667Y-6452381D01*
X67761905Y-6500000D01*
X67809524Y-6547619D01*
X67857143Y-6642857D01*
X67857143Y-6785714D01*
X67809524Y-6880952D01*
X67761905Y-6928571D01*
X67666667Y-6976190D01*
X67285714Y-6976190D01*
X68238095Y-6547619D02*
X68285714Y-6500000D01*
X68380952Y-6452381D01*
X68619048Y-6452381D01*
X68714286Y-6500000D01*
X68761905Y-6547619D01*
X68809524Y-6642857D01*
X68809524Y-6738095D01*
X68761905Y-6880952D01*
X68190476Y-7452381D01*
X68809524Y-7452381D01*
X69190476Y-6547619D02*
X69238095Y-6500000D01*
X69333333Y-6452381D01*
X69571429Y-6452381D01*
X69666667Y-6500000D01*
X69714286Y-6547619D01*
X69761905Y-6642857D01*
X69761905Y-6738095D01*
X69714286Y-6880952D01*
X69142857Y-7452381D01*
X69761905Y-7452381D01*
X67285714Y-7452381D02*
X67285714Y-6452381D01*
X67666667Y-6452381D01*
X67761905Y-6500000D01*
X67809524Y-6547619D01*
X67857143Y-6642857D01*
X67857143Y-6785714D01*
X67809524Y-6880952D01*
X67761905Y-6928571D01*
X67666667Y-6976190D01*
X67285714Y-6976190D01*
X68238095Y-6547619D02*
X68285714Y-6500000D01*
X68380952Y-6452381D01*
X68619048Y-6452381D01*
X68714286Y-6500000D01*
X68761905Y-6547619D01*
X68809524Y-6642857D01*
X68809524Y-6738095D01*
X68761905Y-6880952D01*
X68190476Y-7452381D01*
X68809524Y-7452381D01*
X69190476Y-6547619D02*
X69238095Y-6500000D01*
X69333333Y-6452381D01*
X69571429Y-6452381D01*
X69666667Y-6500000D01*
X69714286Y-6547619D01*
X69761905Y-6642857D01*
X69761905Y-6738095D01*
X69714286Y-6880952D01*
X69142857Y-7452381D01*
X69761905Y-7452381D01*
X5285714Y-90452381D02*
X5285714Y-89452381D01*
X5666667Y-89452381D01*
X5761905Y-89500000D01*
X5809524Y-89547619D01*
X5857143Y-89642857D01*
X5857143Y-89785714D01*
X5809524Y-89880952D01*
X5761905Y-89928571D01*
X5666667Y-89976190D01*
X5285714Y-89976190D01*
X6238095Y-89547619D02*
X6285714Y-89500000D01*
X6380952Y-89452381D01*
X6619048Y-89452381D01*
X6714286Y-89500000D01*
X6761905Y-89547619D01*
X6809524Y-89642857D01*
X6809524Y-89738095D01*
X6761905Y-89880952D01*
X6190476Y-90452381D01*
X6809524Y-90452381D01*
X7666667Y-89785714D02*
X7666667Y-90452381D01*
X7428571Y-89404762D02*
X7190476Y-90119048D01*
X7809524Y-90119048D01*
X5285714Y-90452381D02*
X5285714Y-89452381D01*
X5666667Y-89452381D01*
X5761905Y-89500000D01*
X5809524Y-89547619D01*
X5857143Y-89642857D01*
X5857143Y-89785714D01*
X5809524Y-89880952D01*
X5761905Y-89928571D01*
X5666667Y-89976190D01*
X5285714Y-89976190D01*
X6238095Y-89547619D02*
X6285714Y-89500000D01*
X6380952Y-89452381D01*
X6619048Y-89452381D01*
X6714286Y-89500000D01*
X6761905Y-89547619D01*
X6809524Y-89642857D01*
X6809524Y-89738095D01*
X6761905Y-89880952D01*
X6190476Y-90452381D01*
X6809524Y-90452381D01*
X7666667Y-89785714D02*
X7666667Y-90452381D01*
X7428571Y-89404762D02*
X7190476Y-90119048D01*
X7809524Y-90119048D01*
X72592381Y-62357857D02*
X72116190Y-62691191D01*
X72592381Y-62929286D02*
X71592381Y-62929286D01*
X71592381Y-62548333D01*
X71640000Y-62453095D01*
X71687619Y-62405476D01*
X71782857Y-62357857D01*
X71925714Y-62357857D01*
X72020952Y-62405476D01*
X72068571Y-62453095D01*
X72116190Y-62548333D01*
X72116190Y-62929286D01*
X71687619Y-61976905D02*
X71640000Y-61929286D01*
X71592381Y-61834048D01*
X71592381Y-61595952D01*
X71640000Y-61500714D01*
X71687619Y-61453095D01*
X71782857Y-61405476D01*
X71878095Y-61405476D01*
X72020952Y-61453095D01*
X72592381Y-62024524D01*
X72592381Y-61405476D01*
X71592381Y-60548333D02*
X71592381Y-60738810D01*
X71640000Y-60834048D01*
X71687619Y-60881667D01*
X71830476Y-60976905D01*
X72020952Y-61024524D01*
X72401905Y-61024524D01*
X72497143Y-60976905D01*
X72544762Y-60929286D01*
X72592381Y-60834048D01*
X72592381Y-60643571D01*
X72544762Y-60548333D01*
X72497143Y-60500714D01*
X72401905Y-60453095D01*
X72163810Y-60453095D01*
X72068571Y-60500714D01*
X72020952Y-60548333D01*
X71973333Y-60643571D01*
X71973333Y-60834048D01*
X72020952Y-60929286D01*
X72068571Y-60976905D01*
X72163810Y-61024524D01*
X72592381Y-67107857D02*
X72116190Y-67441191D01*
X72592381Y-67679286D02*
X71592381Y-67679286D01*
X71592381Y-67298333D01*
X71640000Y-67203095D01*
X71687619Y-67155476D01*
X71782857Y-67107857D01*
X71925714Y-67107857D01*
X72020952Y-67155476D01*
X72068571Y-67203095D01*
X72116190Y-67298333D01*
X72116190Y-67679286D01*
X71687619Y-66726905D02*
X71640000Y-66679286D01*
X71592381Y-66584048D01*
X71592381Y-66345952D01*
X71640000Y-66250714D01*
X71687619Y-66203095D01*
X71782857Y-66155476D01*
X71878095Y-66155476D01*
X72020952Y-66203095D01*
X72592381Y-66774524D01*
X72592381Y-66155476D01*
X71592381Y-65822143D02*
X71592381Y-65155476D01*
X72592381Y-65584048D01*
X72542381Y-72057857D02*
X72066190Y-72391191D01*
X72542381Y-72629286D02*
X71542381Y-72629286D01*
X71542381Y-72248333D01*
X71590000Y-72153095D01*
X71637619Y-72105476D01*
X71732857Y-72057857D01*
X71875714Y-72057857D01*
X71970952Y-72105476D01*
X72018571Y-72153095D01*
X72066190Y-72248333D01*
X72066190Y-72629286D01*
X71637619Y-71676905D02*
X71590000Y-71629286D01*
X71542381Y-71534048D01*
X71542381Y-71295952D01*
X71590000Y-71200714D01*
X71637619Y-71153095D01*
X71732857Y-71105476D01*
X71828095Y-71105476D01*
X71970952Y-71153095D01*
X72542381Y-71724524D01*
X72542381Y-71105476D01*
X71970952Y-70534048D02*
X71923333Y-70629286D01*
X71875714Y-70676905D01*
X71780476Y-70724524D01*
X71732857Y-70724524D01*
X71637619Y-70676905D01*
X71590000Y-70629286D01*
X71542381Y-70534048D01*
X71542381Y-70343571D01*
X71590000Y-70248333D01*
X71637619Y-70200714D01*
X71732857Y-70153095D01*
X71780476Y-70153095D01*
X71875714Y-70200714D01*
X71923333Y-70248333D01*
X71970952Y-70343571D01*
X71970952Y-70534048D01*
X72018571Y-70629286D01*
X72066190Y-70676905D01*
X72161429Y-70724524D01*
X72351905Y-70724524D01*
X72447143Y-70676905D01*
X72494762Y-70629286D01*
X72542381Y-70534048D01*
X72542381Y-70343571D01*
X72494762Y-70248333D01*
X72447143Y-70200714D01*
X72351905Y-70153095D01*
X72161429Y-70153095D01*
X72066190Y-70200714D01*
X72018571Y-70248333D01*
X71970952Y-70343571D01*
X36607143Y-35952381D02*
X36273809Y-35476190D01*
X36035714Y-35952381D02*
X36035714Y-34952381D01*
X36416667Y-34952381D01*
X36511905Y-35000000D01*
X36559524Y-35047619D01*
X36607143Y-35142857D01*
X36607143Y-35285714D01*
X36559524Y-35380952D01*
X36511905Y-35428571D01*
X36416667Y-35476190D01*
X36035714Y-35476190D01*
X36940476Y-34952381D02*
X37559524Y-34952381D01*
X37226190Y-35333333D01*
X37369048Y-35333333D01*
X37464286Y-35380952D01*
X37511905Y-35428571D01*
X37559524Y-35523810D01*
X37559524Y-35761905D01*
X37511905Y-35857143D01*
X37464286Y-35904762D01*
X37369048Y-35952381D01*
X37083333Y-35952381D01*
X36988095Y-35904762D01*
X36940476Y-35857143D01*
X37940476Y-35047619D02*
X37988095Y-35000000D01*
X38083333Y-34952381D01*
X38321429Y-34952381D01*
X38416667Y-35000000D01*
X38464286Y-35047619D01*
X38511905Y-35142857D01*
X38511905Y-35238095D01*
X38464286Y-35380952D01*
X37892857Y-35952381D01*
X38511905Y-35952381D01*
X59107143Y-63607143D02*
X59059524Y-63654762D01*
X58916667Y-63702381D01*
X58821429Y-63702381D01*
X58678571Y-63654762D01*
X58583333Y-63559524D01*
X58535714Y-63464286D01*
X58488095Y-63273810D01*
X58488095Y-63130952D01*
X58535714Y-62940476D01*
X58583333Y-62845238D01*
X58678571Y-62750000D01*
X58821429Y-62702381D01*
X58916667Y-62702381D01*
X59059524Y-62750000D01*
X59107143Y-62797619D01*
X60059524Y-63702381D02*
X59488095Y-63702381D01*
X59773809Y-63702381D02*
X59773809Y-62702381D01*
X59678571Y-62845238D01*
X59583333Y-62940476D01*
X59488095Y-62988095D01*
X60916667Y-63035714D02*
X60916667Y-63702381D01*
X60678571Y-62654762D02*
X60440476Y-63369048D01*
X61059524Y-63369048D01*
X58107143Y-54607143D02*
X58059524Y-54654762D01*
X57916667Y-54702381D01*
X57821429Y-54702381D01*
X57678571Y-54654762D01*
X57583333Y-54559524D01*
X57535714Y-54464286D01*
X57488095Y-54273810D01*
X57488095Y-54130952D01*
X57535714Y-53940476D01*
X57583333Y-53845238D01*
X57678571Y-53750000D01*
X57821429Y-53702381D01*
X57916667Y-53702381D01*
X58059524Y-53750000D01*
X58107143Y-53797619D01*
X58488095Y-53797619D02*
X58535714Y-53750000D01*
X58630952Y-53702381D01*
X58869048Y-53702381D01*
X58964286Y-53750000D01*
X59011905Y-53797619D01*
X59059524Y-53892857D01*
X59059524Y-53988095D01*
X59011905Y-54130952D01*
X58440476Y-54702381D01*
X59059524Y-54702381D01*
X59440476Y-53797619D02*
X59488095Y-53750000D01*
X59583333Y-53702381D01*
X59821429Y-53702381D01*
X59916667Y-53750000D01*
X59964286Y-53797619D01*
X60011905Y-53892857D01*
X60011905Y-53988095D01*
X59964286Y-54130952D01*
X59392857Y-54702381D01*
X60011905Y-54702381D01*
X39457143Y-62957143D02*
X39409524Y-63004762D01*
X39266667Y-63052381D01*
X39171429Y-63052381D01*
X39028571Y-63004762D01*
X38933333Y-62909524D01*
X38885714Y-62814286D01*
X38838095Y-62623810D01*
X38838095Y-62480952D01*
X38885714Y-62290476D01*
X38933333Y-62195238D01*
X39028571Y-62100000D01*
X39171429Y-62052381D01*
X39266667Y-62052381D01*
X39409524Y-62100000D01*
X39457143Y-62147619D01*
X40361905Y-62052381D02*
X39885714Y-62052381D01*
X39838095Y-62528571D01*
X39885714Y-62480952D01*
X39980952Y-62433333D01*
X40219048Y-62433333D01*
X40314286Y-62480952D01*
X40361905Y-62528571D01*
X40409524Y-62623810D01*
X40409524Y-62861905D01*
X40361905Y-62957143D01*
X40314286Y-63004762D01*
X40219048Y-63052381D01*
X39980952Y-63052381D01*
X39885714Y-63004762D01*
X39838095Y-62957143D01*
X41266667Y-62385714D02*
X41266667Y-63052381D01*
X41028571Y-62004762D02*
X40790476Y-62719048D01*
X41409524Y-62719048D01*
X30529143Y-58469143D02*
X30481524Y-58516762D01*
X30338667Y-58564381D01*
X30243429Y-58564381D01*
X30100571Y-58516762D01*
X30005333Y-58421524D01*
X29957714Y-58326286D01*
X29910095Y-58135810D01*
X29910095Y-57992952D01*
X29957714Y-57802476D01*
X30005333Y-57707238D01*
X30100571Y-57612000D01*
X30243429Y-57564381D01*
X30338667Y-57564381D01*
X30481524Y-57612000D01*
X30529143Y-57659619D01*
X31433905Y-57564381D02*
X30957714Y-57564381D01*
X30910095Y-58040571D01*
X30957714Y-57992952D01*
X31052952Y-57945333D01*
X31291048Y-57945333D01*
X31386286Y-57992952D01*
X31433905Y-58040571D01*
X31481524Y-58135810D01*
X31481524Y-58373905D01*
X31433905Y-58469143D01*
X31386286Y-58516762D01*
X31291048Y-58564381D01*
X31052952Y-58564381D01*
X30957714Y-58516762D01*
X30910095Y-58469143D01*
X32338667Y-57564381D02*
X32148190Y-57564381D01*
X32052952Y-57612000D01*
X32005333Y-57659619D01*
X31910095Y-57802476D01*
X31862476Y-57992952D01*
X31862476Y-58373905D01*
X31910095Y-58469143D01*
X31957714Y-58516762D01*
X32052952Y-58564381D01*
X32243429Y-58564381D01*
X32338667Y-58516762D01*
X32386286Y-58469143D01*
X32433905Y-58373905D01*
X32433905Y-58135810D01*
X32386286Y-58040571D01*
X32338667Y-57992952D01*
X32243429Y-57945333D01*
X32052952Y-57945333D01*
X31957714Y-57992952D01*
X31910095Y-58040571D01*
X31862476Y-58135810D01*
X30629143Y-61013143D02*
X30581524Y-61060762D01*
X30438667Y-61108381D01*
X30343429Y-61108381D01*
X30200571Y-61060762D01*
X30105333Y-60965524D01*
X30057714Y-60870286D01*
X30010095Y-60679810D01*
X30010095Y-60536952D01*
X30057714Y-60346476D01*
X30105333Y-60251238D01*
X30200571Y-60156000D01*
X30343429Y-60108381D01*
X30438667Y-60108381D01*
X30581524Y-60156000D01*
X30629143Y-60203619D01*
X31533905Y-60108381D02*
X31057714Y-60108381D01*
X31010095Y-60584571D01*
X31057714Y-60536952D01*
X31152952Y-60489333D01*
X31391048Y-60489333D01*
X31486286Y-60536952D01*
X31533905Y-60584571D01*
X31581524Y-60679810D01*
X31581524Y-60917905D01*
X31533905Y-61013143D01*
X31486286Y-61060762D01*
X31391048Y-61108381D01*
X31152952Y-61108381D01*
X31057714Y-61060762D01*
X31010095Y-61013143D01*
X32057714Y-61108381D02*
X32248190Y-61108381D01*
X32343429Y-61060762D01*
X32391048Y-61013143D01*
X32486286Y-60870286D01*
X32533905Y-60679810D01*
X32533905Y-60298857D01*
X32486286Y-60203619D01*
X32438667Y-60156000D01*
X32343429Y-60108381D01*
X32152952Y-60108381D01*
X32057714Y-60156000D01*
X32010095Y-60203619D01*
X31962476Y-60298857D01*
X31962476Y-60536952D01*
X32010095Y-60632190D01*
X32057714Y-60679810D01*
X32152952Y-60727429D01*
X32343429Y-60727429D01*
X32438667Y-60679810D01*
X32486286Y-60632190D01*
X32533905Y-60536952D01*
X31057143Y-64357143D02*
X31009524Y-64404762D01*
X30866667Y-64452381D01*
X30771429Y-64452381D01*
X30628571Y-64404762D01*
X30533333Y-64309524D01*
X30485714Y-64214286D01*
X30438095Y-64023810D01*
X30438095Y-63880952D01*
X30485714Y-63690476D01*
X30533333Y-63595238D01*
X30628571Y-63500000D01*
X30771429Y-63452381D01*
X30866667Y-63452381D01*
X31009524Y-63500000D01*
X31057143Y-63547619D01*
X31914286Y-63452381D02*
X31723809Y-63452381D01*
X31628571Y-63500000D01*
X31580952Y-63547619D01*
X31485714Y-63690476D01*
X31438095Y-63880952D01*
X31438095Y-64261905D01*
X31485714Y-64357143D01*
X31533333Y-64404762D01*
X31628571Y-64452381D01*
X31819048Y-64452381D01*
X31914286Y-64404762D01*
X31961905Y-64357143D01*
X32009524Y-64261905D01*
X32009524Y-64023810D01*
X31961905Y-63928571D01*
X31914286Y-63880952D01*
X31819048Y-63833333D01*
X31628571Y-63833333D01*
X31533333Y-63880952D01*
X31485714Y-63928571D01*
X31438095Y-64023810D01*
X32628571Y-63452381D02*
X32723810Y-63452381D01*
X32819048Y-63500000D01*
X32866667Y-63547619D01*
X32914286Y-63642857D01*
X32961905Y-63833333D01*
X32961905Y-64071429D01*
X32914286Y-64261905D01*
X32866667Y-64357143D01*
X32819048Y-64404762D01*
X32723810Y-64452381D01*
X32628571Y-64452381D01*
X32533333Y-64404762D01*
X32485714Y-64357143D01*
X32438095Y-64261905D01*
X32390476Y-64071429D01*
X32390476Y-63833333D01*
X32438095Y-63642857D01*
X32485714Y-63547619D01*
X32533333Y-63500000D01*
X32628571Y-63452381D01*
X41857143Y-54657143D02*
X41809524Y-54704762D01*
X41666667Y-54752381D01*
X41571429Y-54752381D01*
X41428571Y-54704762D01*
X41333333Y-54609524D01*
X41285714Y-54514286D01*
X41238095Y-54323810D01*
X41238095Y-54180952D01*
X41285714Y-53990476D01*
X41333333Y-53895238D01*
X41428571Y-53800000D01*
X41571429Y-53752381D01*
X41666667Y-53752381D01*
X41809524Y-53800000D01*
X41857143Y-53847619D01*
X42714286Y-53752381D02*
X42523809Y-53752381D01*
X42428571Y-53800000D01*
X42380952Y-53847619D01*
X42285714Y-53990476D01*
X42238095Y-54180952D01*
X42238095Y-54561905D01*
X42285714Y-54657143D01*
X42333333Y-54704762D01*
X42428571Y-54752381D01*
X42619048Y-54752381D01*
X42714286Y-54704762D01*
X42761905Y-54657143D01*
X42809524Y-54561905D01*
X42809524Y-54323810D01*
X42761905Y-54228571D01*
X42714286Y-54180952D01*
X42619048Y-54133333D01*
X42428571Y-54133333D01*
X42333333Y-54180952D01*
X42285714Y-54228571D01*
X42238095Y-54323810D01*
X43761905Y-54752381D02*
X43190476Y-54752381D01*
X43476190Y-54752381D02*
X43476190Y-53752381D01*
X43380952Y-53895238D01*
X43285714Y-53990476D01*
X43190476Y-54038095D01*
X38657143Y-72142857D02*
X38704762Y-72190476D01*
X38752381Y-72333333D01*
X38752381Y-72428571D01*
X38704762Y-72571429D01*
X38609524Y-72666667D01*
X38514286Y-72714286D01*
X38323810Y-72761905D01*
X38180952Y-72761905D01*
X37990476Y-72714286D01*
X37895238Y-72666667D01*
X37800000Y-72571429D01*
X37752381Y-72428571D01*
X37752381Y-72333333D01*
X37800000Y-72190476D01*
X37847619Y-72142857D01*
X37752381Y-71285714D02*
X37752381Y-71476191D01*
X37800000Y-71571429D01*
X37847619Y-71619048D01*
X37990476Y-71714286D01*
X38180952Y-71761905D01*
X38561905Y-71761905D01*
X38657143Y-71714286D01*
X38704762Y-71666667D01*
X38752381Y-71571429D01*
X38752381Y-71380952D01*
X38704762Y-71285714D01*
X38657143Y-71238095D01*
X38561905Y-71190476D01*
X38323810Y-71190476D01*
X38228571Y-71238095D01*
X38180952Y-71285714D01*
X38133333Y-71380952D01*
X38133333Y-71571429D01*
X38180952Y-71666667D01*
X38228571Y-71714286D01*
X38323810Y-71761905D01*
X37847619Y-70809524D02*
X37800000Y-70761905D01*
X37752381Y-70666667D01*
X37752381Y-70428571D01*
X37800000Y-70333333D01*
X37847619Y-70285714D01*
X37942857Y-70238095D01*
X38038095Y-70238095D01*
X38180952Y-70285714D01*
X38752381Y-70857143D01*
X38752381Y-70238095D01*
X36457143Y-72142857D02*
X36504762Y-72190476D01*
X36552381Y-72333333D01*
X36552381Y-72428571D01*
X36504762Y-72571429D01*
X36409524Y-72666667D01*
X36314286Y-72714286D01*
X36123810Y-72761905D01*
X35980952Y-72761905D01*
X35790476Y-72714286D01*
X35695238Y-72666667D01*
X35600000Y-72571429D01*
X35552381Y-72428571D01*
X35552381Y-72333333D01*
X35600000Y-72190476D01*
X35647619Y-72142857D01*
X35552381Y-71285714D02*
X35552381Y-71476191D01*
X35600000Y-71571429D01*
X35647619Y-71619048D01*
X35790476Y-71714286D01*
X35980952Y-71761905D01*
X36361905Y-71761905D01*
X36457143Y-71714286D01*
X36504762Y-71666667D01*
X36552381Y-71571429D01*
X36552381Y-71380952D01*
X36504762Y-71285714D01*
X36457143Y-71238095D01*
X36361905Y-71190476D01*
X36123810Y-71190476D01*
X36028571Y-71238095D01*
X35980952Y-71285714D01*
X35933333Y-71380952D01*
X35933333Y-71571429D01*
X35980952Y-71666667D01*
X36028571Y-71714286D01*
X36123810Y-71761905D01*
X35552381Y-70857143D02*
X35552381Y-70238095D01*
X35933333Y-70571429D01*
X35933333Y-70428571D01*
X35980952Y-70333333D01*
X36028571Y-70285714D01*
X36123810Y-70238095D01*
X36361905Y-70238095D01*
X36457143Y-70285714D01*
X36504762Y-70333333D01*
X36552381Y-70428571D01*
X36552381Y-70714286D01*
X36504762Y-70809524D01*
X36457143Y-70857143D01*
X43887143Y-66487143D02*
X43839524Y-66534762D01*
X43696667Y-66582381D01*
X43601429Y-66582381D01*
X43458571Y-66534762D01*
X43363333Y-66439524D01*
X43315714Y-66344286D01*
X43268095Y-66153810D01*
X43268095Y-66010952D01*
X43315714Y-65820476D01*
X43363333Y-65725238D01*
X43458571Y-65630000D01*
X43601429Y-65582381D01*
X43696667Y-65582381D01*
X43839524Y-65630000D01*
X43887143Y-65677619D01*
X44744286Y-65582381D02*
X44553809Y-65582381D01*
X44458571Y-65630000D01*
X44410952Y-65677619D01*
X44315714Y-65820476D01*
X44268095Y-66010952D01*
X44268095Y-66391905D01*
X44315714Y-66487143D01*
X44363333Y-66534762D01*
X44458571Y-66582381D01*
X44649048Y-66582381D01*
X44744286Y-66534762D01*
X44791905Y-66487143D01*
X44839524Y-66391905D01*
X44839524Y-66153810D01*
X44791905Y-66058571D01*
X44744286Y-66010952D01*
X44649048Y-65963333D01*
X44458571Y-65963333D01*
X44363333Y-66010952D01*
X44315714Y-66058571D01*
X44268095Y-66153810D01*
X45744286Y-65582381D02*
X45268095Y-65582381D01*
X45220476Y-66058571D01*
X45268095Y-66010952D01*
X45363333Y-65963333D01*
X45601429Y-65963333D01*
X45696667Y-66010952D01*
X45744286Y-66058571D01*
X45791905Y-66153810D01*
X45791905Y-66391905D01*
X45744286Y-66487143D01*
X45696667Y-66534762D01*
X45601429Y-66582381D01*
X45363333Y-66582381D01*
X45268095Y-66534762D01*
X45220476Y-66487143D01*
X36761905Y-27952381D02*
X36761905Y-26952381D01*
X37000000Y-26952381D01*
X37142858Y-27000000D01*
X37238096Y-27095238D01*
X37285715Y-27190476D01*
X37333334Y-27380952D01*
X37333334Y-27523810D01*
X37285715Y-27714286D01*
X37238096Y-27809524D01*
X37142858Y-27904762D01*
X37000000Y-27952381D01*
X36761905Y-27952381D01*
X38285715Y-27952381D02*
X37714286Y-27952381D01*
X38000000Y-27952381D02*
X38000000Y-26952381D01*
X37904762Y-27095238D01*
X37809524Y-27190476D01*
X37714286Y-27238095D01*
%LPC*%
D13*
X27500000Y-30500000D03*
X15501220Y-30497040D03*
X48641000Y-35749000D03*
X48643960Y-23750220D03*
D14*
X23900000Y-13210000D03*
X49300000Y-13210000D03*
D15*
X51840000Y-67655000D03*
D16*
X49300000Y-58505000D03*
X54380000Y-58505000D03*
D17*
X61200000Y-30200000D03*
D18*
X66200000Y-30200000D03*
D19*
X68500000Y-90000000D03*
D20*
X47482000Y-58674000D03*
X45482000Y-58674000D03*
D21*
X50345480Y-86396000D03*
X62214900Y-86396000D03*
D22*
X60729000Y-80046000D03*
D23*
X59459000Y-77506000D03*
X58189000Y-80046000D03*
X56919000Y-77506000D03*
X55649000Y-80046000D03*
X54379000Y-77506000D03*
X53109000Y-80046000D03*
X51839000Y-77506000D03*
D21*
X33327480Y-86396000D03*
X45196900Y-86396000D03*
D22*
X43711000Y-80046000D03*
D23*
X42441000Y-77506000D03*
X41171000Y-80046000D03*
X39901000Y-77506000D03*
X38631000Y-80046000D03*
X37361000Y-77506000D03*
X36091000Y-80046000D03*
X34821000Y-77506000D03*
D19*
X6500000Y-7000000D03*
X68500000Y-7000000D03*
X6500000Y-90000000D03*
D24*
X70040000Y-60365000D03*
X70040000Y-63065000D03*
X70040000Y-65115000D03*
X70040000Y-67815000D03*
X69990000Y-70065000D03*
X69990000Y-72765000D03*
D25*
X41680000Y-16766000D03*
X31520000Y-16766000D03*
X36600000Y-16766000D03*
X34060000Y-16766000D03*
X39140000Y-16766000D03*
X31520000Y-9654000D03*
X41680000Y-9654000D03*
X36600000Y-9654000D03*
X39140000Y-9654000D03*
X34060000Y-9654000D03*
D26*
X67190000Y-61015000D03*
D27*
X64650000Y-61015000D03*
X67190000Y-63555000D03*
X64650000Y-63555000D03*
X67190000Y-66095000D03*
X64650000Y-66095000D03*
X67190000Y-68635000D03*
X64650000Y-68635000D03*
X67190000Y-71175000D03*
X64650000Y-71175000D03*
X67190000Y-73715000D03*
X64650000Y-73715000D03*
D28*
X9270000Y-23690000D03*
X6730000Y-23690000D03*
X4190000Y-23690000D03*
X4190000Y-26230000D03*
X4190000Y-28770000D03*
X9270000Y-31310000D03*
X6730000Y-31310000D03*
X4190000Y-31310000D03*
X11810000Y-31310000D03*
X11810000Y-23690000D03*
X11810000Y-26230000D03*
X9270000Y-26230000D03*
X6730000Y-26230000D03*
X11810000Y-28770000D03*
X9270000Y-28770000D03*
X6730000Y-28770000D03*
X9270000Y-39190000D03*
X6730000Y-39190000D03*
X4190000Y-39190000D03*
X4190000Y-41730000D03*
X4190000Y-44270000D03*
X9270000Y-46810000D03*
X6730000Y-46810000D03*
X4190000Y-46810000D03*
X11810000Y-46810000D03*
X11810000Y-39190000D03*
X11810000Y-41730000D03*
X9270000Y-41730000D03*
X6730000Y-41730000D03*
X11810000Y-44270000D03*
X9270000Y-44270000D03*
X6730000Y-44270000D03*
X9270000Y-12690000D03*
X6730000Y-12690000D03*
X4190000Y-12690000D03*
X4190000Y-15230000D03*
X4190000Y-17770000D03*
X9270000Y-20310000D03*
X6730000Y-20310000D03*
X4190000Y-20310000D03*
X11810000Y-20310000D03*
X11810000Y-12690000D03*
X11810000Y-15230000D03*
X9270000Y-15230000D03*
X6730000Y-15230000D03*
X11810000Y-17770000D03*
X9270000Y-17770000D03*
X6730000Y-17770000D03*
X65730000Y-20810000D03*
X68270000Y-20810000D03*
X70810000Y-20810000D03*
X70810000Y-18270000D03*
X70810000Y-15730000D03*
X65730000Y-13190000D03*
X68270000Y-13190000D03*
X70810000Y-13190000D03*
X63190000Y-13190000D03*
X63190000Y-20810000D03*
X63190000Y-18270000D03*
X65730000Y-18270000D03*
X68270000Y-18270000D03*
X63190000Y-15730000D03*
X65730000Y-15730000D03*
X68270000Y-15730000D03*
X65730000Y-46810000D03*
X68270000Y-46810000D03*
X70810000Y-46810000D03*
X70810000Y-44270000D03*
X70810000Y-41730000D03*
X65730000Y-39190000D03*
X68270000Y-39190000D03*
X70810000Y-39190000D03*
X63190000Y-39190000D03*
X63190000Y-46810000D03*
X63190000Y-44270000D03*
X65730000Y-44270000D03*
X68270000Y-44270000D03*
X63190000Y-41730000D03*
X65730000Y-41730000D03*
X68270000Y-41730000D03*
D29*
X43035000Y-43055000D03*
D30*
X31435000Y-43055000D03*
D20*
X58000000Y-60750000D03*
X60000000Y-60750000D03*
D31*
X4250000Y-72500000D03*
X4250000Y-76000000D03*
X11250000Y-76000000D03*
X11250000Y-72500000D03*
X4250000Y-65000000D03*
X4250000Y-68500000D03*
X11250000Y-68500000D03*
X11250000Y-65000000D03*
X4250000Y-80000000D03*
X4250000Y-83500000D03*
X11250000Y-83500000D03*
X11250000Y-80000000D03*
D32*
X57250000Y-58000000D03*
X61250000Y-58000000D03*
D20*
X44250000Y-62500000D03*
X42250000Y-62500000D03*
D33*
X35545500Y-41457500D03*
X34745500Y-41457500D03*
D20*
X33500000Y-57000000D03*
X35500000Y-57000000D03*
X33500000Y-60500000D03*
X35500000Y-60500000D03*
X33828000Y-64000000D03*
X35828000Y-64000000D03*
X46750000Y-54221000D03*
X44750000Y-54221000D03*
D34*
X38384000Y-69191000D03*
X38384000Y-67191000D03*
X35717000Y-69318000D03*
X35717000Y-67318000D03*
D20*
X42500000Y-65500000D03*
X40500000Y-65500000D03*
D13*
X31500000Y-30500000D03*
X43498780Y-30502960D03*
D35*
X47750000Y-60500000D03*
X47750000Y-57000000D03*
D28*
X26948000Y-69554000D03*
X43712000Y-69046000D03*
D35*
X51250000Y-60750000D03*
X51250000Y-59500000D03*
X51250000Y-58250000D03*
X51250000Y-57000000D03*
X59586000Y-82078000D03*
X58316000Y-83094000D03*
X56792000Y-84110000D03*
X55268000Y-85126000D03*
X53467000Y-56896000D03*
X53467000Y-60833000D03*
D28*
X30885000Y-75015000D03*
X48030000Y-75015000D03*
D35*
X58000000Y-61000000D03*
X56250000Y-59750000D03*
X56250000Y-61000000D03*
X58000000Y-59750000D03*
X35584000Y-43436000D03*
X13589000Y-56959500D03*
X17081500Y-57023000D03*
X16065500Y-54546500D03*
X22636000Y-66750000D03*
X24000000Y-70250000D03*
X17250000Y-94250000D03*
X2000000Y-78000000D03*
X9750000Y-60750000D03*
X1750000Y-54000000D03*
X2000000Y-63250000D03*
X2500000Y-94000000D03*
X9750000Y-94000000D03*
X18500000Y-75750000D03*
X20000000Y-71750000D03*
X7750000Y-78000000D03*
X50000000Y-73530000D03*
X43750000Y-75360000D03*
X45640000Y-75310000D03*
X45750000Y-61333000D03*
X44226000Y-64508000D03*
X44250000Y-60250000D03*
X45750000Y-60250000D03*
X51500000Y-73500000D03*
X31000000Y-89000000D03*
X59500000Y-89000000D03*
X31000000Y-80500000D03*
X46000000Y-79500000D03*
X65308000Y-56126000D03*
X67848000Y-56126000D03*
X67848000Y-54602000D03*
X65308000Y-54602000D03*
X30891000Y-56761000D03*
X38886000Y-43436000D03*
X27813000Y-57213500D03*
X29321280Y-62567440D03*
X5145560Y-54287040D03*
X24932160Y-90421080D03*
X2392200Y-61968000D03*
X6512080Y-57995440D03*
X58958000Y-85209000D03*
X60482000Y-83685000D03*
X47909000Y-54348000D03*
X34885500Y-70570000D03*
X59681900Y-64438600D03*
X60621700Y-62152600D03*
X61269400Y-60082500D03*
X58450000Y-70985000D03*
X59161200Y-69975800D03*
X59770800Y-68591500D03*
X16921000Y-65988000D03*
X35647500Y-75142000D03*
X31012000Y-69046000D03*
X37846000Y-25908000D03*
X39116000Y-25908000D03*
X40386000Y-25908000D03*
X41656000Y-25908000D03*
X35500000Y-58250000D03*
X40500000Y-67000000D03*
X41656000Y-55626000D03*
X43878500Y-55816500D03*
X37465000Y-60833000D03*
X37235000Y-41404000D03*
X36195000Y-40251000D03*
X36195000Y-38981000D03*
X36195000Y-37711000D03*
X38227000Y-37711000D03*
X38227000Y-38981000D03*
X38227000Y-40251000D03*
X37235000Y-46230000D03*
X38892000Y-64000000D03*
X37114000Y-67048000D03*
D36*
G36*
X34700000Y-52450000D02*
X1050000Y-52450000D01*
X1050000Y-34050000D01*
X34700000Y-34050000D01*
X34700000Y-52450000D01*
X34700000Y-52450000D01*
G37*
X34700000Y-52450000D02*
X1050000Y-52450000D01*
X1050000Y-34050000D01*
X34700000Y-34050000D01*
X34700000Y-52450000D01*
G36*
X73950000Y-52450000D02*
X39800000Y-52450000D01*
X39800000Y-34300000D01*
X73950000Y-34300000D01*
X73950000Y-52450000D01*
X73950000Y-52450000D01*
G37*
X73950000Y-52450000D02*
X39800000Y-52450000D01*
X39800000Y-34300000D01*
X73950000Y-34300000D01*
X73950000Y-52450000D01*
G36*
X73950000Y-25700000D02*
X44300000Y-25700000D01*
X44300000Y-23250000D01*
X44296061Y-23230547D01*
X44284864Y-23214160D01*
X44268173Y-23203419D01*
X44250000Y-23200000D01*
X20050000Y-23200000D01*
X20050000Y-1800000D01*
X73950000Y-1800000D01*
X73950000Y-25700000D01*
X73950000Y-25700000D01*
G37*
X73950000Y-25700000D02*
X44300000Y-25700000D01*
X44300000Y-23250000D01*
X44296061Y-23230547D01*
X44284864Y-23214160D01*
X44268173Y-23203419D01*
X44250000Y-23200000D01*
X20050000Y-23200000D01*
X20050000Y-1800000D01*
X73950000Y-1800000D01*
X73950000Y-25700000D01*
G36*
X14450000Y-27000000D02*
X14453939Y-27019453D01*
X14465136Y-27035840D01*
X14481827Y-27046581D01*
X14500000Y-27050000D01*
X17200000Y-27050000D01*
X17200000Y-32950000D01*
X1050000Y-32950000D01*
X1050000Y-1800000D01*
X14450000Y-1800000D01*
X14450000Y-27000000D01*
X14450000Y-27000000D01*
G37*
X14450000Y-27000000D02*
X14453939Y-27019453D01*
X14465136Y-27035840D01*
X14481827Y-27046581D01*
X14500000Y-27050000D01*
X17200000Y-27050000D01*
X17200000Y-32950000D01*
X1050000Y-32950000D01*
X1050000Y-1800000D01*
X14450000Y-1800000D01*
X14450000Y-27000000D01*
M02*
