G04 (created by PCBNEW (2013-jul-07)-stable) date Di 23 Feb 2016 16:59:05 CET*
%MOIN*%
G04 Gerber Fmt 3.4, Leading zero omitted, Abs format*
%FSLAX34Y34*%
G01*
G70*
G90*
G04 APERTURE LIST*
%ADD10C,0.005*%
%ADD11C,0.00787402*%
%ADD12C,0.011811*%
G04 APERTURE END LIST*
G54D10*
G54D11*
X1370Y-1370D02*
X2629Y-2629D01*
X2629Y-1370D02*
X1370Y-2629D01*
X1370Y-28870D02*
X2629Y-30129D01*
X2629Y-28870D02*
X1370Y-30129D01*
X55620Y-1370D02*
X56879Y-2629D01*
X56879Y-1370D02*
X55620Y-2629D01*
X55620Y-28870D02*
X56879Y-30129D01*
X56879Y-28870D02*
X55620Y-30129D01*
X98620Y-1370D02*
X99879Y-2629D01*
X99879Y-1370D02*
X98620Y-2629D01*
X98620Y-28870D02*
X99879Y-30129D01*
X99879Y-28870D02*
X98620Y-30129D01*
X152870Y-1370D02*
X154129Y-2629D01*
X154129Y-1370D02*
X152870Y-2629D01*
X152870Y-28870D02*
X154129Y-30129D01*
X154129Y-28870D02*
X152870Y-30129D01*
G54D12*
X-4046Y3502D02*
X-4046Y4683D01*
X-3765Y4683D01*
X-3596Y4627D01*
X-3483Y4515D01*
X-3427Y4402D01*
X-3371Y4177D01*
X-3371Y4008D01*
X-3427Y3783D01*
X-3483Y3671D01*
X-3596Y3558D01*
X-3765Y3502D01*
X-4046Y3502D01*
X-2865Y3502D02*
X-2865Y4290D01*
X-2865Y4065D02*
X-2809Y4177D01*
X-2752Y4233D01*
X-2640Y4290D01*
X-2527Y4290D01*
X-2134Y3502D02*
X-2134Y4290D01*
X-2134Y4683D02*
X-2190Y4627D01*
X-2134Y4571D01*
X-2077Y4627D01*
X-2134Y4683D01*
X-2134Y4571D01*
X-1402Y3502D02*
X-1515Y3558D01*
X-1571Y3671D01*
X-1571Y4683D01*
X-784Y3502D02*
X-896Y3558D01*
X-953Y3671D01*
X-953Y4683D01*
X565Y3502D02*
X565Y4683D01*
X959Y3840D01*
X1352Y4683D01*
X1352Y3502D01*
X2421Y3502D02*
X2421Y4121D01*
X2365Y4233D01*
X2252Y4290D01*
X2027Y4290D01*
X1915Y4233D01*
X2421Y3558D02*
X2309Y3502D01*
X2027Y3502D01*
X1915Y3558D01*
X1859Y3671D01*
X1859Y3783D01*
X1915Y3896D01*
X2027Y3952D01*
X2309Y3952D01*
X2421Y4008D01*
X2983Y4290D02*
X2983Y3109D01*
X2983Y4233D02*
X3096Y4290D01*
X3321Y4290D01*
X3433Y4233D01*
X3490Y4177D01*
X3546Y4065D01*
X3546Y3727D01*
X3490Y3615D01*
X3433Y3558D01*
X3321Y3502D01*
X3096Y3502D01*
X2983Y3558D01*
X4052Y3615D02*
X4108Y3558D01*
X4052Y3502D01*
X3996Y3558D01*
X4052Y3615D01*
X4052Y3502D01*
X4052Y4233D02*
X4108Y4177D01*
X4052Y4121D01*
X3996Y4177D01*
X4052Y4233D01*
X4052Y4121D01*
X-6374Y2130D02*
X-5115Y870D01*
X-5115Y2130D02*
X-6374Y870D01*
X-4158Y2203D02*
X-3427Y2203D01*
X-3821Y1753D01*
X-3652Y1753D01*
X-3540Y1697D01*
X-3483Y1641D01*
X-3427Y1528D01*
X-3427Y1247D01*
X-3483Y1134D01*
X-3540Y1078D01*
X-3652Y1022D01*
X-3990Y1022D01*
X-4102Y1078D01*
X-4158Y1134D01*
X-2921Y1134D02*
X-2865Y1078D01*
X-2921Y1022D01*
X-2977Y1078D01*
X-2921Y1134D01*
X-2921Y1022D01*
X-2415Y2091D02*
X-2359Y2147D01*
X-2246Y2203D01*
X-1965Y2203D01*
X-1852Y2147D01*
X-1796Y2091D01*
X-1740Y1978D01*
X-1740Y1866D01*
X-1796Y1697D01*
X-2471Y1022D01*
X-1740Y1022D01*
X-1009Y2203D02*
X-896Y2203D01*
X-784Y2147D01*
X-728Y2091D01*
X-671Y1978D01*
X-615Y1753D01*
X-615Y1472D01*
X-671Y1247D01*
X-728Y1134D01*
X-784Y1078D01*
X-896Y1022D01*
X-1009Y1022D01*
X-1121Y1078D01*
X-1177Y1134D01*
X-1234Y1247D01*
X-1290Y1472D01*
X-1290Y1753D01*
X-1234Y1978D01*
X-1177Y2091D01*
X-1121Y2147D01*
X-1009Y2203D01*
X-109Y1022D02*
X-109Y1809D01*
X-109Y1697D02*
X-53Y1753D01*
X59Y1809D01*
X228Y1809D01*
X340Y1753D01*
X396Y1641D01*
X396Y1022D01*
X396Y1641D02*
X453Y1753D01*
X565Y1809D01*
X734Y1809D01*
X846Y1753D01*
X902Y1641D01*
X902Y1022D01*
X1465Y1022D02*
X1465Y1809D01*
X1465Y1697D02*
X1521Y1753D01*
X1634Y1809D01*
X1802Y1809D01*
X1915Y1753D01*
X1971Y1641D01*
X1971Y1022D01*
X1971Y1641D02*
X2027Y1753D01*
X2140Y1809D01*
X2309Y1809D01*
X2421Y1753D01*
X2477Y1641D01*
X2477Y1022D01*
X4783Y2259D02*
X3771Y741D01*
X6302Y2203D02*
X6414Y2203D01*
X6527Y2147D01*
X6583Y2091D01*
X6639Y1978D01*
X6696Y1753D01*
X6696Y1472D01*
X6639Y1247D01*
X6583Y1134D01*
X6527Y1078D01*
X6414Y1022D01*
X6302Y1022D01*
X6189Y1078D01*
X6133Y1134D01*
X6077Y1247D01*
X6021Y1472D01*
X6021Y1753D01*
X6077Y1978D01*
X6133Y2091D01*
X6189Y2147D01*
X6302Y2203D01*
X7202Y1134D02*
X7258Y1078D01*
X7202Y1022D01*
X7145Y1078D01*
X7202Y1134D01*
X7202Y1022D01*
X8383Y1022D02*
X7708Y1022D01*
X8045Y1022D02*
X8045Y2203D01*
X7933Y2034D01*
X7820Y1922D01*
X7708Y1866D01*
X8833Y2091D02*
X8889Y2147D01*
X9001Y2203D01*
X9283Y2203D01*
X9395Y2147D01*
X9451Y2091D01*
X9508Y1978D01*
X9508Y1866D01*
X9451Y1697D01*
X8777Y1022D01*
X9508Y1022D01*
X10520Y2203D02*
X10295Y2203D01*
X10183Y2147D01*
X10126Y2091D01*
X10014Y1922D01*
X9958Y1697D01*
X9958Y1247D01*
X10014Y1134D01*
X10070Y1078D01*
X10183Y1022D01*
X10408Y1022D01*
X10520Y1078D01*
X10576Y1134D01*
X10633Y1247D01*
X10633Y1528D01*
X10576Y1641D01*
X10520Y1697D01*
X10408Y1753D01*
X10183Y1753D01*
X10070Y1697D01*
X10014Y1641D01*
X9958Y1528D01*
X11082Y2203D02*
X11082Y1978D01*
X11532Y2203D02*
X11532Y1978D01*
X13276Y572D02*
X13220Y628D01*
X13107Y797D01*
X13051Y909D01*
X12995Y1078D01*
X12938Y1359D01*
X12938Y1584D01*
X12995Y1866D01*
X13051Y2034D01*
X13107Y2147D01*
X13220Y2315D01*
X13276Y2372D01*
X13895Y1697D02*
X13782Y1753D01*
X13726Y1809D01*
X13670Y1922D01*
X13670Y1978D01*
X13726Y2091D01*
X13782Y2147D01*
X13895Y2203D01*
X14120Y2203D01*
X14232Y2147D01*
X14288Y2091D01*
X14345Y1978D01*
X14345Y1922D01*
X14288Y1809D01*
X14232Y1753D01*
X14120Y1697D01*
X13895Y1697D01*
X13782Y1641D01*
X13726Y1584D01*
X13670Y1472D01*
X13670Y1247D01*
X13726Y1134D01*
X13782Y1078D01*
X13895Y1022D01*
X14120Y1022D01*
X14232Y1078D01*
X14288Y1134D01*
X14345Y1247D01*
X14345Y1472D01*
X14288Y1584D01*
X14232Y1641D01*
X14120Y1697D01*
X15751Y1022D02*
X15751Y2203D01*
X16257Y1022D02*
X16257Y1641D01*
X16201Y1753D01*
X16088Y1809D01*
X15919Y1809D01*
X15807Y1753D01*
X15751Y1697D01*
X16988Y1022D02*
X16876Y1078D01*
X16819Y1134D01*
X16763Y1247D01*
X16763Y1584D01*
X16819Y1697D01*
X16876Y1753D01*
X16988Y1809D01*
X17157Y1809D01*
X17269Y1753D01*
X17325Y1697D01*
X17382Y1584D01*
X17382Y1247D01*
X17325Y1134D01*
X17269Y1078D01*
X17157Y1022D01*
X16988Y1022D01*
X18057Y1022D02*
X17944Y1078D01*
X17888Y1191D01*
X17888Y2203D01*
X18956Y1078D02*
X18844Y1022D01*
X18619Y1022D01*
X18507Y1078D01*
X18450Y1191D01*
X18450Y1641D01*
X18507Y1753D01*
X18619Y1809D01*
X18844Y1809D01*
X18956Y1753D01*
X19013Y1641D01*
X19013Y1528D01*
X18450Y1416D01*
X19463Y1078D02*
X19575Y1022D01*
X19800Y1022D01*
X19913Y1078D01*
X19969Y1191D01*
X19969Y1247D01*
X19913Y1359D01*
X19800Y1416D01*
X19631Y1416D01*
X19519Y1472D01*
X19463Y1584D01*
X19463Y1641D01*
X19519Y1753D01*
X19631Y1809D01*
X19800Y1809D01*
X19913Y1753D01*
X20363Y572D02*
X20419Y628D01*
X20531Y797D01*
X20588Y909D01*
X20644Y1078D01*
X20700Y1359D01*
X20700Y1584D01*
X20644Y1866D01*
X20588Y2034D01*
X20531Y2147D01*
X20419Y2315D01*
X20363Y2372D01*
M02*
