G04 #@! TF.FileFunction,Soldermask,Top*
%FSLAX46Y46*%
G04 Gerber Fmt 4.6, Leading zero omitted, Abs format (unit mm)*
G04 Created by KiCad (PCBNEW 4.0.2-4+6225~38~ubuntu15.04.1-stable) date Sa 02 Apr 2016 14:44:10 CEST*
%MOMM*%
G01*
G04 APERTURE LIST*
%ADD10C,0.150000*%
%ADD11C,3.000000*%
%ADD12C,4.000000*%
%ADD13R,10.800000X9.400000*%
%ADD14R,1.390000X4.600000*%
%ADD15R,1.300000X1.300000*%
%ADD16C,1.300000*%
%ADD17C,6.000000*%
%ADD18R,1.000000X1.250000*%
%ADD19C,3.649980*%
%ADD20R,1.501140X1.501140*%
%ADD21C,1.501140*%
%ADD22R,1.300000X1.500000*%
%ADD23C,1.651000*%
%ADD24R,1.727200X1.727200*%
%ADD25O,1.727200X1.727200*%
%ADD26C,2.000000*%
%ADD27R,6.000000X8.750000*%
%ADD28R,6.000000X9.000000*%
%ADD29O,3.014980X2.000000*%
%ADD30R,2.000000X1.600000*%
%ADD31R,1.500000X0.400000*%
%ADD32R,1.250000X1.000000*%
%ADD33C,0.889000*%
%ADD34C,0.100000*%
G04 APERTURE END LIST*
D10*
D11*
X27500000Y-30500000D03*
X15501220Y-30497040D03*
X48641000Y-35749000D03*
X48643960Y-23750220D03*
D12*
X23900000Y-13210000D03*
X49300000Y-13210000D03*
D13*
X51840000Y-67655000D03*
D14*
X49300000Y-58505000D03*
X54380000Y-58505000D03*
D15*
X61200000Y-30200000D03*
D16*
X66200000Y-30200000D03*
D17*
X68500000Y-90000000D03*
D18*
X47482000Y-58674000D03*
X45482000Y-58674000D03*
D19*
X50345480Y-86396000D03*
X62214900Y-86396000D03*
D20*
X60729000Y-80046000D03*
D21*
X59459000Y-77506000D03*
X58189000Y-80046000D03*
X56919000Y-77506000D03*
X55649000Y-80046000D03*
X54379000Y-77506000D03*
X53109000Y-80046000D03*
X51839000Y-77506000D03*
D19*
X33327480Y-86396000D03*
X45196900Y-86396000D03*
D20*
X43711000Y-80046000D03*
D21*
X42441000Y-77506000D03*
X41171000Y-80046000D03*
X39901000Y-77506000D03*
X38631000Y-80046000D03*
X37361000Y-77506000D03*
X36091000Y-80046000D03*
X34821000Y-77506000D03*
D17*
X6500000Y-7000000D03*
X68500000Y-7000000D03*
X6500000Y-90000000D03*
D22*
X70040000Y-60365000D03*
X70040000Y-63065000D03*
X70040000Y-65115000D03*
X70040000Y-67815000D03*
X69990000Y-70065000D03*
X69990000Y-72765000D03*
D23*
X41680000Y-16766000D03*
X31520000Y-16766000D03*
X36600000Y-16766000D03*
X34060000Y-16766000D03*
X39140000Y-16766000D03*
X31520000Y-9654000D03*
X41680000Y-9654000D03*
X36600000Y-9654000D03*
X39140000Y-9654000D03*
X34060000Y-9654000D03*
D24*
X67190000Y-61015000D03*
D25*
X64650000Y-61015000D03*
X67190000Y-63555000D03*
X64650000Y-63555000D03*
X67190000Y-66095000D03*
X64650000Y-66095000D03*
X67190000Y-68635000D03*
X64650000Y-68635000D03*
X67190000Y-71175000D03*
X64650000Y-71175000D03*
X67190000Y-73715000D03*
X64650000Y-73715000D03*
D26*
X9270000Y-23690000D03*
X6730000Y-23690000D03*
X4190000Y-23690000D03*
X4190000Y-26230000D03*
X4190000Y-28770000D03*
X9270000Y-31310000D03*
X6730000Y-31310000D03*
X4190000Y-31310000D03*
X11810000Y-31310000D03*
X11810000Y-23690000D03*
X11810000Y-26230000D03*
X9270000Y-26230000D03*
X6730000Y-26230000D03*
X11810000Y-28770000D03*
X9270000Y-28770000D03*
X6730000Y-28770000D03*
X9270000Y-39190000D03*
X6730000Y-39190000D03*
X4190000Y-39190000D03*
X4190000Y-41730000D03*
X4190000Y-44270000D03*
X9270000Y-46810000D03*
X6730000Y-46810000D03*
X4190000Y-46810000D03*
X11810000Y-46810000D03*
X11810000Y-39190000D03*
X11810000Y-41730000D03*
X9270000Y-41730000D03*
X6730000Y-41730000D03*
X11810000Y-44270000D03*
X9270000Y-44270000D03*
X6730000Y-44270000D03*
X9270000Y-12690000D03*
X6730000Y-12690000D03*
X4190000Y-12690000D03*
X4190000Y-15230000D03*
X4190000Y-17770000D03*
X9270000Y-20310000D03*
X6730000Y-20310000D03*
X4190000Y-20310000D03*
X11810000Y-20310000D03*
X11810000Y-12690000D03*
X11810000Y-15230000D03*
X9270000Y-15230000D03*
X6730000Y-15230000D03*
X11810000Y-17770000D03*
X9270000Y-17770000D03*
X6730000Y-17770000D03*
X65730000Y-20810000D03*
X68270000Y-20810000D03*
X70810000Y-20810000D03*
X70810000Y-18270000D03*
X70810000Y-15730000D03*
X65730000Y-13190000D03*
X68270000Y-13190000D03*
X70810000Y-13190000D03*
X63190000Y-13190000D03*
X63190000Y-20810000D03*
X63190000Y-18270000D03*
X65730000Y-18270000D03*
X68270000Y-18270000D03*
X63190000Y-15730000D03*
X65730000Y-15730000D03*
X68270000Y-15730000D03*
X65730000Y-46810000D03*
X68270000Y-46810000D03*
X70810000Y-46810000D03*
X70810000Y-44270000D03*
X70810000Y-41730000D03*
X65730000Y-39190000D03*
X68270000Y-39190000D03*
X70810000Y-39190000D03*
X63190000Y-39190000D03*
X63190000Y-46810000D03*
X63190000Y-44270000D03*
X65730000Y-44270000D03*
X68270000Y-44270000D03*
X63190000Y-41730000D03*
X65730000Y-41730000D03*
X68270000Y-41730000D03*
D27*
X43035000Y-43055000D03*
D28*
X31435000Y-43055000D03*
D18*
X58000000Y-60750000D03*
X60000000Y-60750000D03*
D29*
X4250000Y-72500000D03*
X4250000Y-76000000D03*
X11250000Y-76000000D03*
X11250000Y-72500000D03*
X4250000Y-65000000D03*
X4250000Y-68500000D03*
X11250000Y-68500000D03*
X11250000Y-65000000D03*
X4250000Y-80000000D03*
X4250000Y-83500000D03*
X11250000Y-83500000D03*
X11250000Y-80000000D03*
D30*
X57250000Y-58000000D03*
X61250000Y-58000000D03*
D18*
X44250000Y-62500000D03*
X42250000Y-62500000D03*
D31*
X35545500Y-41457500D03*
X34745500Y-41457500D03*
D18*
X33500000Y-57000000D03*
X35500000Y-57000000D03*
X33500000Y-60500000D03*
X35500000Y-60500000D03*
X33828000Y-64000000D03*
X35828000Y-64000000D03*
X46750000Y-54221000D03*
X44750000Y-54221000D03*
D32*
X38384000Y-69191000D03*
X38384000Y-67191000D03*
X35717000Y-69318000D03*
X35717000Y-67318000D03*
D18*
X42500000Y-65500000D03*
X40500000Y-65500000D03*
D11*
X31500000Y-30500000D03*
X43498780Y-30502960D03*
D33*
X47750000Y-60500000D03*
X47750000Y-57000000D03*
D26*
X26948000Y-69554000D03*
X43712000Y-69046000D03*
D33*
X51250000Y-60750000D03*
X51250000Y-59500000D03*
X51250000Y-58250000D03*
X51250000Y-57000000D03*
X59586000Y-82078000D03*
X58316000Y-83094000D03*
X56792000Y-84110000D03*
X55268000Y-85126000D03*
X53467000Y-56896000D03*
X53467000Y-60833000D03*
D26*
X30885000Y-75015000D03*
X48030000Y-75015000D03*
D33*
X58000000Y-61000000D03*
X56250000Y-59750000D03*
X56250000Y-61000000D03*
X58000000Y-59750000D03*
X35584000Y-43436000D03*
X13589000Y-56959500D03*
X17081500Y-57023000D03*
X16065500Y-54546500D03*
X22636000Y-66750000D03*
X24000000Y-70250000D03*
X17250000Y-94250000D03*
X2000000Y-78000000D03*
X9750000Y-60750000D03*
X1750000Y-54000000D03*
X2000000Y-63250000D03*
X2500000Y-94000000D03*
X9750000Y-94000000D03*
X18500000Y-75750000D03*
X20000000Y-71750000D03*
X7750000Y-78000000D03*
X50000000Y-73530000D03*
X43750000Y-75360000D03*
X45640000Y-75310000D03*
X45750000Y-61333000D03*
X44226000Y-64508000D03*
X44250000Y-60250000D03*
X45750000Y-60250000D03*
X51500000Y-73500000D03*
X31000000Y-89000000D03*
X59500000Y-89000000D03*
X31000000Y-80500000D03*
X46000000Y-79500000D03*
X65308000Y-56126000D03*
X67848000Y-56126000D03*
X67848000Y-54602000D03*
X65308000Y-54602000D03*
X30891000Y-56761000D03*
X38886000Y-43436000D03*
X27813000Y-57213500D03*
X29321280Y-62567440D03*
X5145560Y-54287040D03*
X24932160Y-90421080D03*
X2392200Y-61968000D03*
X6512080Y-57995440D03*
X58958000Y-85209000D03*
X60482000Y-83685000D03*
X47909000Y-54348000D03*
X34885500Y-70570000D03*
X59681900Y-64438600D03*
X60621700Y-62152600D03*
X61269400Y-60082500D03*
X58450000Y-70985000D03*
X59161200Y-69975800D03*
X59770800Y-68591500D03*
X16921000Y-65988000D03*
X35647500Y-75142000D03*
X31012000Y-69046000D03*
X37846000Y-25908000D03*
X39116000Y-25908000D03*
X40386000Y-25908000D03*
X41656000Y-25908000D03*
X35500000Y-58250000D03*
X40500000Y-67000000D03*
X41656000Y-55626000D03*
X43878500Y-55816500D03*
X37465000Y-60833000D03*
X37235000Y-41404000D03*
X36195000Y-40251000D03*
X36195000Y-38981000D03*
X36195000Y-37711000D03*
X38227000Y-37711000D03*
X38227000Y-38981000D03*
X38227000Y-40251000D03*
X37235000Y-46230000D03*
X38892000Y-64000000D03*
X37114000Y-67048000D03*
D34*
G36*
X34700000Y-52450000D02*
X1050000Y-52450000D01*
X1050000Y-34050000D01*
X34700000Y-34050000D01*
X34700000Y-52450000D01*
X34700000Y-52450000D01*
G37*
X34700000Y-52450000D02*
X1050000Y-52450000D01*
X1050000Y-34050000D01*
X34700000Y-34050000D01*
X34700000Y-52450000D01*
G36*
X73950000Y-52450000D02*
X39800000Y-52450000D01*
X39800000Y-34300000D01*
X73950000Y-34300000D01*
X73950000Y-52450000D01*
X73950000Y-52450000D01*
G37*
X73950000Y-52450000D02*
X39800000Y-52450000D01*
X39800000Y-34300000D01*
X73950000Y-34300000D01*
X73950000Y-52450000D01*
G36*
X73950000Y-25700000D02*
X44300000Y-25700000D01*
X44300000Y-23250000D01*
X44296061Y-23230547D01*
X44284864Y-23214160D01*
X44268173Y-23203419D01*
X44250000Y-23200000D01*
X20050000Y-23200000D01*
X20050000Y-1800000D01*
X73950000Y-1800000D01*
X73950000Y-25700000D01*
X73950000Y-25700000D01*
G37*
X73950000Y-25700000D02*
X44300000Y-25700000D01*
X44300000Y-23250000D01*
X44296061Y-23230547D01*
X44284864Y-23214160D01*
X44268173Y-23203419D01*
X44250000Y-23200000D01*
X20050000Y-23200000D01*
X20050000Y-1800000D01*
X73950000Y-1800000D01*
X73950000Y-25700000D01*
G36*
X14450000Y-27000000D02*
X14453939Y-27019453D01*
X14465136Y-27035840D01*
X14481827Y-27046581D01*
X14500000Y-27050000D01*
X17200000Y-27050000D01*
X17200000Y-32950000D01*
X1050000Y-32950000D01*
X1050000Y-1800000D01*
X14450000Y-1800000D01*
X14450000Y-27000000D01*
X14450000Y-27000000D01*
G37*
X14450000Y-27000000D02*
X14453939Y-27019453D01*
X14465136Y-27035840D01*
X14481827Y-27046581D01*
X14500000Y-27050000D01*
X17200000Y-27050000D01*
X17200000Y-32950000D01*
X1050000Y-32950000D01*
X1050000Y-1800000D01*
X14450000Y-1800000D01*
X14450000Y-27000000D01*
M02*
