%FSAX25Y25*%
%MOIN*%
G70*
G01*
G75*
G04 Layer_Color=16711935*
%ADD10R,0.90000X0.25000*%
%ADD11R,0.07874X0.07874*%
%ADD12R,0.07480X0.17323*%
%ADD13R,0.02559X0.04724*%
%ADD14R,0.02756X0.01969*%
%ADD15R,0.18504X0.17716*%
%ADD16R,0.21654X0.27559*%
%ADD17C,0.03937*%
%ADD18R,0.07874X0.15748*%
%ADD19R,0.03937X0.44094*%
%ADD20R,0.03937X0.25984*%
%ADD21R,0.10630X0.05118*%
%ADD22R,0.06300X0.05000*%
%ADD23R,0.03740X0.03937*%
%ADD24R,0.04724X0.02559*%
%ADD25R,0.01969X0.02756*%
%ADD26R,0.17716X0.18504*%
%ADD27R,0.07874X0.07874*%
%ADD28P,0.07072X4X90.0*%
%ADD29C,0.02400*%
%ADD30C,0.01200*%
%ADD31C,0.01000*%
%ADD32C,0.00800*%
%ADD33C,0.31496*%
%ADD34C,0.08700*%
%ADD35C,0.47244*%
%ADD36C,0.01575*%
%ADD37C,0.02400*%
%ADD38C,0.03800*%
%ADD39C,0.00700*%
%ADD40R,0.03937X0.06299*%
%ADD41R,0.02362X0.02362*%
%ADD42R,0.12205X0.20394*%
%ADD43O,0.06693X0.01378*%
%ADD44R,0.03347X0.03150*%
%ADD45R,0.03000X0.03000*%
%ADD46R,0.03150X0.03347*%
%ADD47C,0.01600*%
%ADD48C,0.00799*%
%ADD49C,0.00500*%
%ADD50C,0.00787*%
%ADD51C,0.00709*%
%ADD52C,0.00669*%
%ADD53C,0.01400*%
%ADD54R,0.12400X0.02000*%
%ADD55R,0.01762X0.02224*%
%ADD56R,0.02224X0.01762*%
%ADD57R,0.02000X0.12400*%
%ADD58R,0.30000X0.10000*%
%ADD59R,0.05118X0.04854*%
%ADD60R,0.05118X0.04854*%
%ADD61R,0.04854X0.05118*%
%ADD62R,0.08268X0.08268*%
%ADD63R,0.07874X0.17716*%
%ADD64R,0.02953X0.05118*%
%ADD65R,0.03150X0.02362*%
%ADD66R,0.18898X0.18110*%
%ADD67R,0.22047X0.27953*%
%ADD68C,0.07874*%
%ADD69R,0.08268X0.16142*%
%ADD70R,0.04331X0.44488*%
%ADD71R,0.04331X0.26378*%
%ADD72R,0.11024X0.05512*%
%ADD73R,0.06694X0.05394*%
%ADD74R,0.04134X0.04331*%
%ADD75R,0.05118X0.02953*%
%ADD76R,0.02362X0.03150*%
%ADD77R,0.18110X0.18898*%
%ADD78R,0.08268X0.08268*%
%ADD79C,0.31890*%
%ADD80C,0.09094*%
%ADD81C,0.47638*%
%ADD82C,0.01969*%
%ADD83C,0.02794*%
%ADD84C,0.04194*%
%ADD85R,0.04331X0.06693*%
%ADD86R,0.02756X0.02756*%
%ADD87R,0.12598X0.20787*%
%ADD88O,0.07087X0.01772*%
%ADD89R,0.03740X0.03543*%
%ADD90R,0.03394X0.03394*%
%ADD91R,0.03543X0.03740*%
%ADD92R,0.01969X0.01969*%
%ADD93C,0.00984*%
%ADD94R,0.06800X0.02000*%
G54D31*
X0497200Y0080717D02*
Y0101050D01*
X0413200Y0080717D02*
Y0101050D01*
X0040000Y0080717D02*
X0700200D01*
X0040000Y0060383D02*
X0700000D01*
X0040000Y0040050D02*
X0440500D01*
X0040050Y0101050D02*
X0700200D01*
X0040050Y0040050D02*
Y0101050D01*
Y0040050D02*
X0197600D01*
X0040000D02*
Y0101050D01*
X0286500Y0040050D02*
Y0101050D01*
X0700200Y0040050D02*
Y0101050D01*
X0440500Y0040050D02*
X0700200D01*
X0559400Y0039400D02*
Y0059683D01*
G54D32*
X0126900Y0073549D02*
Y0067551D01*
Y0069550D01*
X0130899Y0073549D01*
X0127900Y0070550D01*
X0130899Y0067551D01*
X0135897D02*
X0133898D01*
X0132898Y0068550D01*
Y0070550D01*
X0133898Y0071549D01*
X0135897D01*
X0136897Y0070550D01*
Y0069550D01*
X0132898D01*
X0141895Y0067551D02*
X0139896D01*
X0138896Y0068550D01*
Y0070550D01*
X0139896Y0071549D01*
X0141895D01*
X0142895Y0070550D01*
Y0069550D01*
X0138896D01*
X0144894Y0065551D02*
Y0071549D01*
X0147893D01*
X0148893Y0070550D01*
Y0068550D01*
X0147893Y0067551D01*
X0144894D01*
X0150892Y0070550D02*
X0154891D01*
X0159889Y0073549D02*
X0157890D01*
X0156890Y0072549D01*
Y0068550D01*
X0157890Y0067551D01*
X0159889D01*
X0160889Y0068550D01*
Y0072549D01*
X0159889Y0073549D01*
X0162888Y0071549D02*
Y0068550D01*
X0163888Y0067551D01*
X0166887D01*
Y0071549D01*
X0169886Y0072549D02*
Y0071549D01*
X0168886D01*
X0170886D01*
X0169886D01*
Y0068550D01*
X0170886Y0067551D01*
X0179883Y0073549D02*
Y0067551D01*
X0183882D01*
X0186881Y0071549D02*
X0188880D01*
X0189880Y0070550D01*
Y0067551D01*
X0186881D01*
X0185881Y0068550D01*
X0186881Y0069550D01*
X0189880D01*
X0191879Y0071549D02*
Y0068550D01*
X0192879Y0067551D01*
X0195878D01*
Y0066551D01*
X0194878Y0065551D01*
X0193878D01*
X0195878Y0067551D02*
Y0071549D01*
X0200876Y0067551D02*
X0198877D01*
X0197877Y0068550D01*
Y0070550D01*
X0198877Y0071549D01*
X0200876D01*
X0201876Y0070550D01*
Y0069550D01*
X0197877D01*
X0203875Y0071549D02*
Y0067551D01*
Y0069550D01*
X0204875Y0070550D01*
X0205874Y0071549D01*
X0206874D01*
X0567400Y0087833D02*
Y0093831D01*
X0571399Y0087833D01*
Y0093831D01*
X0574398Y0087833D02*
X0576397D01*
X0577397Y0088833D01*
Y0090832D01*
X0576397Y0091832D01*
X0574398D01*
X0573398Y0090832D01*
Y0088833D01*
X0574398Y0087833D01*
X0580396Y0092832D02*
Y0091832D01*
X0579396D01*
X0581395D01*
X0580396D01*
Y0088833D01*
X0581395Y0087833D01*
X0590393Y0093831D02*
X0592392D01*
X0591392D01*
Y0087833D01*
X0590393D01*
X0592392D01*
X0595391D02*
Y0091832D01*
X0598390D01*
X0599390Y0090832D01*
Y0087833D01*
X0607387Y0093831D02*
Y0089833D01*
X0609386Y0087833D01*
X0611386Y0089833D01*
Y0093831D01*
X0616384Y0087833D02*
X0614385D01*
X0613385Y0088833D01*
Y0090832D01*
X0614385Y0091832D01*
X0616384D01*
X0617384Y0090832D01*
Y0089833D01*
X0613385D01*
X0619383Y0091832D02*
Y0087833D01*
Y0089833D01*
X0620383Y0090832D01*
X0621383Y0091832D01*
X0622382D01*
X0625381Y0087833D02*
X0628380D01*
X0629380Y0088833D01*
X0628380Y0089833D01*
X0626381D01*
X0625381Y0090832D01*
X0626381Y0091832D01*
X0629380D01*
X0631379Y0087833D02*
X0633379D01*
X0632379D01*
Y0091832D01*
X0631379D01*
X0637377Y0087833D02*
X0639377D01*
X0640376Y0088833D01*
Y0090832D01*
X0639377Y0091832D01*
X0637377D01*
X0636378Y0090832D01*
Y0088833D01*
X0637377Y0087833D01*
X0642376D02*
Y0091832D01*
X0645375D01*
X0646374Y0090832D01*
Y0087833D01*
X0652373Y0092832D02*
X0651373Y0093831D01*
X0649373D01*
X0648374Y0092832D01*
Y0088833D01*
X0649373Y0087833D01*
X0651373D01*
X0652373Y0088833D01*
X0655372Y0087833D02*
X0657371D01*
X0658371Y0088833D01*
Y0090832D01*
X0657371Y0091832D01*
X0655372D01*
X0654372Y0090832D01*
Y0088833D01*
X0655372Y0087833D01*
X0660370D02*
Y0091832D01*
X0663369D01*
X0664369Y0090832D01*
Y0087833D01*
X0667368Y0092832D02*
Y0091832D01*
X0666368D01*
X0668367D01*
X0667368D01*
Y0088833D01*
X0668367Y0087833D01*
X0671366Y0091832D02*
Y0087833D01*
Y0089833D01*
X0672366Y0090832D01*
X0673366Y0091832D01*
X0674365D01*
X0678364Y0087833D02*
X0680364D01*
X0681363Y0088833D01*
Y0090832D01*
X0680364Y0091832D01*
X0678364D01*
X0677364Y0090832D01*
Y0088833D01*
X0678364Y0087833D01*
X0683362D02*
X0685362D01*
X0684362D01*
Y0093831D01*
X0683362D01*
X0520799Y0092832D02*
X0519799Y0093831D01*
X0517800D01*
X0516800Y0092832D01*
Y0091832D01*
X0517800Y0090832D01*
X0519799D01*
X0520799Y0089833D01*
Y0088833D01*
X0519799Y0087833D01*
X0517800D01*
X0516800Y0088833D01*
X0522798Y0093831D02*
Y0089833D01*
X0524797Y0087833D01*
X0526797Y0089833D01*
Y0093831D01*
X0528796Y0087833D02*
Y0093831D01*
X0532795Y0087833D01*
Y0093831D01*
X0540792Y0087833D02*
Y0093831D01*
X0543791D01*
X0544791Y0092832D01*
Y0090832D01*
X0543791Y0089833D01*
X0540792D01*
X0542792D02*
X0544791Y0087833D01*
X0550789Y0093831D02*
X0546790D01*
Y0087833D01*
X0550789D01*
X0546790Y0090832D02*
X0548790D01*
X0552788Y0093831D02*
Y0089833D01*
X0554788Y0087833D01*
X0556787Y0089833D01*
Y0093831D01*
X0558786Y0091832D02*
X0559786D01*
Y0090832D01*
X0558786D01*
Y0091832D01*
Y0088833D02*
X0559786D01*
Y0087833D01*
X0558786D01*
Y0088833D01*
X0433000Y0087833D02*
Y0093831D01*
X0435999D01*
X0436999Y0092832D01*
Y0090832D01*
X0435999Y0089833D01*
X0433000D01*
X0434999D02*
X0436999Y0087833D01*
X0442997Y0093831D02*
X0438998D01*
Y0087833D01*
X0442997D01*
X0438998Y0090832D02*
X0440997D01*
X0444996Y0093831D02*
Y0089833D01*
X0446995Y0087833D01*
X0448995Y0089833D01*
Y0093831D01*
X0450994Y0091832D02*
X0451994D01*
Y0090832D01*
X0450994D01*
Y0091832D01*
Y0088833D02*
X0451994D01*
Y0087833D01*
X0450994D01*
Y0088833D01*
X0130899Y0051965D02*
X0129899Y0052965D01*
X0127900D01*
X0126900Y0051965D01*
Y0050965D01*
X0127900Y0049966D01*
X0129899D01*
X0130899Y0048966D01*
Y0047966D01*
X0129899Y0046966D01*
X0127900D01*
X0126900Y0047966D01*
X0132898Y0052965D02*
Y0048966D01*
X0134897Y0046966D01*
X0136897Y0048966D01*
Y0052965D01*
X0142895D02*
X0140895Y0051965D01*
X0138896Y0049966D01*
Y0047966D01*
X0139896Y0046966D01*
X0141895D01*
X0142895Y0047966D01*
Y0048966D01*
X0141895Y0049966D01*
X0138896D01*
X0144894Y0051965D02*
X0145894Y0052965D01*
X0147893D01*
X0148893Y0051965D01*
Y0047966D01*
X0147893Y0046966D01*
X0145894D01*
X0144894Y0047966D01*
Y0051965D01*
X0150892Y0046966D02*
X0152892D01*
X0151892D01*
Y0052965D01*
X0150892Y0051965D01*
X0155891Y0046966D02*
X0157890D01*
X0156890D01*
Y0052965D01*
X0155891Y0051965D01*
X0164888Y0052965D02*
X0160889D01*
Y0049966D01*
X0162888Y0050965D01*
X0163888D01*
X0164888Y0049966D01*
Y0047966D01*
X0163888Y0046966D01*
X0161889D01*
X0160889Y0047966D01*
X0166887Y0052965D02*
X0170886D01*
Y0051965D01*
X0166887Y0047966D01*
Y0046966D01*
X0172885D02*
Y0050965D01*
X0174884Y0052965D01*
X0176884Y0050965D01*
Y0046966D01*
Y0049966D01*
X0172885D01*
X0178883Y0046966D02*
Y0047966D01*
X0179883D01*
Y0046966D01*
X0178883D01*
X0187880Y0051965D02*
X0186881Y0052965D01*
X0184881D01*
X0183882Y0051965D01*
Y0047966D01*
X0184881Y0046966D01*
X0186881D01*
X0187880Y0047966D01*
Y0049966D01*
X0185881D01*
X0189880Y0052965D02*
Y0046966D01*
Y0048966D01*
X0193878Y0052965D01*
X0190879Y0049966D01*
X0193878Y0046966D01*
X0198877Y0052965D02*
X0196877D01*
X0195878Y0051965D01*
Y0047966D01*
X0196877Y0046966D01*
X0198877D01*
X0199876Y0047966D01*
Y0051965D01*
X0198877Y0052965D01*
X0381150Y0051965D02*
X0382150Y0052965D01*
X0384149D01*
X0385149Y0051965D01*
Y0050965D01*
X0384149Y0049966D01*
X0383149D01*
X0384149D01*
X0385149Y0048966D01*
Y0047966D01*
X0384149Y0046966D01*
X0382150D01*
X0381150Y0047966D01*
X0387148Y0046966D02*
X0391147Y0050965D01*
X0393146Y0046966D02*
X0395146D01*
X0394146D01*
Y0052965D01*
X0393146Y0051965D01*
X0398145D02*
X0399144Y0052965D01*
X0401144D01*
X0402143Y0051965D01*
Y0050965D01*
X0401144Y0049966D01*
X0400144D01*
X0401144D01*
X0402143Y0048966D01*
Y0047966D01*
X0401144Y0046966D01*
X0399144D01*
X0398145Y0047966D01*
X0404143Y0046966D02*
X0408141Y0050965D01*
X0414139Y0046966D02*
X0410141D01*
X0414139Y0050965D01*
Y0051965D01*
X0413140Y0052965D01*
X0411140D01*
X0410141Y0051965D01*
X0416139D02*
X0417138Y0052965D01*
X0419138D01*
X0420137Y0051965D01*
Y0047966D01*
X0419138Y0046966D01*
X0417138D01*
X0416139Y0047966D01*
Y0051965D01*
X0422137Y0046966D02*
X0424136D01*
X0423136D01*
Y0052965D01*
X0422137Y0051965D01*
X0431134Y0052965D02*
X0427135D01*
Y0049966D01*
X0429135Y0050965D01*
X0430134D01*
X0431134Y0049966D01*
Y0047966D01*
X0430134Y0046966D01*
X0428135D01*
X0427135Y0047966D01*
X0298199Y0051965D02*
X0297199Y0052965D01*
X0295200D01*
X0294200Y0051965D01*
Y0047966D01*
X0295200Y0046966D01*
X0297199D01*
X0298199Y0047966D01*
Y0049966D01*
X0296199D01*
X0304197Y0052965D02*
X0300198D01*
Y0046966D01*
X0304197D01*
X0300198Y0049966D02*
X0302197D01*
X0306196Y0046966D02*
Y0052965D01*
X0310195Y0046966D01*
Y0052965D01*
X0316193D02*
X0312194D01*
Y0046966D01*
X0316193D01*
X0312194Y0049966D02*
X0314194D01*
X0318192Y0046966D02*
Y0052965D01*
X0321191D01*
X0322191Y0051965D01*
Y0049966D01*
X0321191Y0048966D01*
X0318192D01*
X0320192D02*
X0322191Y0046966D01*
X0324190D02*
Y0050965D01*
X0326190Y0052965D01*
X0328189Y0050965D01*
Y0046966D01*
Y0049966D01*
X0324190D01*
X0330188Y0052965D02*
X0334187D01*
X0332188D01*
Y0046966D01*
X0340185Y0052965D02*
X0336186D01*
Y0046966D01*
X0340185D01*
X0336186Y0049966D02*
X0338186D01*
X0342184Y0052965D02*
Y0046966D01*
X0345183D01*
X0346183Y0047966D01*
Y0051965D01*
X0345183Y0052965D01*
X0342184D01*
X0372175Y0050965D02*
X0373175D01*
Y0049966D01*
X0372175D01*
Y0050965D01*
Y0047966D02*
X0373175D01*
Y0046966D01*
X0372175D01*
Y0047966D01*
X0046350Y0087833D02*
Y0091832D01*
X0048349Y0093831D01*
X0050349Y0091832D01*
Y0087833D01*
Y0090832D01*
X0046350D01*
X0052348Y0093831D02*
Y0087833D01*
X0056347D01*
X0058346Y0093831D02*
Y0087833D01*
X0062345D01*
X0070342D02*
Y0091832D01*
X0072342Y0093831D01*
X0074341Y0091832D01*
Y0087833D01*
Y0090832D01*
X0070342D01*
X0076340Y0087833D02*
Y0093831D01*
X0079339D01*
X0080339Y0092832D01*
Y0090832D01*
X0079339Y0089833D01*
X0076340D01*
X0078340D02*
X0080339Y0087833D01*
X0082338Y0093831D02*
X0086337D01*
X0084338D01*
Y0087833D01*
X0088336Y0093831D02*
Y0087833D01*
X0090336Y0089833D01*
X0092335Y0087833D01*
Y0093831D01*
X0097334D02*
X0095334D01*
X0094335Y0092832D01*
Y0088833D01*
X0095334Y0087833D01*
X0097334D01*
X0098333Y0088833D01*
Y0092832D01*
X0097334Y0093831D01*
X0100332Y0087833D02*
Y0093831D01*
X0103332D01*
X0104331Y0092832D01*
Y0090832D01*
X0103332Y0089833D01*
X0100332D01*
X0102332D02*
X0104331Y0087833D01*
X0106331Y0093831D02*
Y0087833D01*
Y0089833D01*
X0110329Y0093831D01*
X0107330Y0090832D01*
X0110329Y0087833D01*
X0118327Y0093831D02*
Y0089833D01*
X0120326Y0087833D01*
X0122325Y0089833D01*
Y0093831D01*
X0124325D02*
X0126324D01*
X0125324D01*
Y0087833D01*
X0124325D01*
X0126324D01*
X0133322Y0093831D02*
X0129323D01*
Y0087833D01*
X0133322D01*
X0129323Y0090832D02*
X0131323D01*
X0135321Y0093831D02*
Y0087833D01*
X0137321Y0089833D01*
X0139320Y0087833D01*
Y0093831D01*
X0145318D02*
X0141319D01*
Y0087833D01*
X0145318D01*
X0141319Y0090832D02*
X0143319D01*
X0147317Y0093831D02*
Y0087833D01*
X0150316D01*
X0151316Y0088833D01*
Y0092832D01*
X0150316Y0093831D01*
X0147317D01*
X0163312D02*
X0159313D01*
Y0090832D01*
X0161313D01*
X0159313D01*
Y0087833D01*
X0165312D02*
Y0093831D01*
X0168310D01*
X0169310Y0092832D01*
Y0090832D01*
X0168310Y0089833D01*
X0165312D01*
X0167311D02*
X0169310Y0087833D01*
X0174309Y0093831D02*
X0172309D01*
X0171310Y0092832D01*
Y0088833D01*
X0172309Y0087833D01*
X0174309D01*
X0175308Y0088833D01*
Y0092832D01*
X0174309Y0093831D01*
X0177308Y0087833D02*
Y0093831D01*
X0179307Y0091832D01*
X0181306Y0093831D01*
Y0087833D01*
X0189304Y0093831D02*
X0193303D01*
X0191303D01*
Y0087833D01*
X0198301Y0093831D02*
X0196301D01*
X0195302Y0092832D01*
Y0088833D01*
X0196301Y0087833D01*
X0198301D01*
X0199301Y0088833D01*
Y0092832D01*
X0198301Y0093831D01*
X0201300Y0087833D02*
Y0093831D01*
X0204299D01*
X0205299Y0092832D01*
Y0090832D01*
X0204299Y0089833D01*
X0201300D01*
X0217295Y0092832D02*
X0216295Y0093831D01*
X0214296D01*
X0213296Y0092832D01*
Y0091832D01*
X0214296Y0090832D01*
X0216295D01*
X0217295Y0089833D01*
Y0088833D01*
X0216295Y0087833D01*
X0214296D01*
X0213296Y0088833D01*
X0219294Y0093831D02*
X0221293D01*
X0220294D01*
Y0087833D01*
X0219294D01*
X0221293D01*
X0224292Y0093831D02*
Y0087833D01*
X0227291D01*
X0228291Y0088833D01*
Y0092832D01*
X0227291Y0093831D01*
X0224292D01*
X0234289D02*
X0230291D01*
Y0087833D01*
X0234289D01*
X0230291Y0090832D02*
X0232290D01*
X0462150Y0087833D02*
Y0091832D01*
X0464149Y0093831D01*
X0466149Y0091832D01*
Y0087833D01*
Y0090832D01*
X0462150D01*
X0352549Y0092832D02*
X0351549Y0093831D01*
X0349550D01*
X0348550Y0092832D01*
Y0091832D01*
X0349550Y0090832D01*
X0351549D01*
X0352549Y0089833D01*
Y0088833D01*
X0351549Y0087833D01*
X0349550D01*
X0348550Y0088833D01*
X0354548Y0093831D02*
Y0089833D01*
X0356547Y0087833D01*
X0358547Y0089833D01*
Y0093831D01*
X0364545D02*
X0362545Y0092832D01*
X0360546Y0090832D01*
Y0088833D01*
X0361546Y0087833D01*
X0363545D01*
X0364545Y0088833D01*
Y0089833D01*
X0363545Y0090832D01*
X0360546D01*
X0366544Y0092832D02*
X0367544Y0093831D01*
X0369543D01*
X0370543Y0092832D01*
Y0088833D01*
X0369543Y0087833D01*
X0367544D01*
X0366544Y0088833D01*
Y0092832D01*
X0372542Y0087833D02*
X0374542D01*
X0373542D01*
Y0093831D01*
X0372542Y0092832D01*
X0377541Y0087833D02*
X0379540D01*
X0378540D01*
Y0093831D01*
X0377541Y0092832D01*
X0386538Y0093831D02*
X0382539D01*
Y0090832D01*
X0384538Y0091832D01*
X0385538D01*
X0386538Y0090832D01*
Y0088833D01*
X0385538Y0087833D01*
X0383539D01*
X0382539Y0088833D01*
X0388537Y0093831D02*
X0392536D01*
Y0092832D01*
X0388537Y0088833D01*
Y0087833D01*
X0294000Y0093831D02*
Y0087833D01*
X0296999D01*
X0297999Y0088833D01*
Y0089833D01*
X0296999Y0090832D01*
X0294000D01*
X0296999D01*
X0297999Y0091832D01*
Y0092832D01*
X0296999Y0093831D01*
X0294000D01*
X0302997D02*
X0300998D01*
X0299998Y0092832D01*
Y0088833D01*
X0300998Y0087833D01*
X0302997D01*
X0303997Y0088833D01*
Y0092832D01*
X0302997Y0093831D01*
X0305996Y0087833D02*
Y0091832D01*
X0307996Y0093831D01*
X0309995Y0091832D01*
Y0087833D01*
Y0090832D01*
X0305996D01*
X0311994Y0087833D02*
Y0093831D01*
X0314993D01*
X0315993Y0092832D01*
Y0090832D01*
X0314993Y0089833D01*
X0311994D01*
X0313994D02*
X0315993Y0087833D01*
X0317992Y0093831D02*
Y0087833D01*
X0320991D01*
X0321991Y0088833D01*
Y0092832D01*
X0320991Y0093831D01*
X0317992D01*
X0330988Y0087833D02*
Y0093831D01*
X0332987D02*
Y0087833D01*
X0329988Y0091832D02*
X0332987D01*
X0333987D01*
X0329988Y0089833D02*
X0333987D01*
X0335986Y0091832D02*
X0336986D01*
Y0090832D01*
X0335986D01*
Y0091832D01*
Y0088833D02*
X0336986D01*
Y0087833D01*
X0335986D01*
Y0088833D01*
X0046350Y0073549D02*
Y0067551D01*
X0050349D01*
X0052348D02*
Y0071549D01*
X0054347Y0073549D01*
X0056347Y0071549D01*
Y0067551D01*
Y0070550D01*
X0052348D01*
X0058346Y0073549D02*
Y0072549D01*
X0060346Y0070550D01*
X0062345Y0072549D01*
Y0073549D01*
X0060346Y0070550D02*
Y0067551D01*
X0068343Y0073549D02*
X0064344D01*
Y0067551D01*
X0068343D01*
X0064344Y0070550D02*
X0066343D01*
X0070342Y0067551D02*
Y0073549D01*
X0073341D01*
X0074341Y0072549D01*
Y0070550D01*
X0073341Y0069550D01*
X0070342D01*
X0072342D02*
X0074341Y0067551D01*
X0082338D02*
Y0073549D01*
X0086337Y0067551D01*
Y0073549D01*
X0088336Y0067551D02*
Y0071549D01*
X0090336Y0073549D01*
X0092335Y0071549D01*
Y0067551D01*
Y0070550D01*
X0088336D01*
X0094335Y0067551D02*
Y0073549D01*
X0096334Y0071549D01*
X0098333Y0073549D01*
Y0067551D01*
X0104331Y0073549D02*
X0100332D01*
Y0067551D01*
X0104331D01*
X0100332Y0070550D02*
X0102332D01*
X0112329Y0069550D02*
X0116327D01*
X0112329Y0071549D02*
X0116327D01*
X0046350Y0046966D02*
Y0052965D01*
X0049349D01*
X0050349Y0051965D01*
Y0049966D01*
X0049349Y0048966D01*
X0046350D01*
X0052348Y0052965D02*
Y0046966D01*
X0056347D01*
X0061345Y0052965D02*
X0059346D01*
X0058346Y0051965D01*
Y0047966D01*
X0059346Y0046966D01*
X0061345D01*
X0062345Y0047966D01*
Y0051965D01*
X0061345Y0052965D01*
X0064344D02*
X0068343D01*
X0066343D01*
Y0046966D01*
X0076340D02*
Y0052965D01*
X0080339Y0046966D01*
Y0052965D01*
X0082338Y0046966D02*
Y0050965D01*
X0084338Y0052965D01*
X0086337Y0050965D01*
Y0046966D01*
Y0049966D01*
X0082338D01*
X0088336Y0046966D02*
Y0052965D01*
X0090336Y0050965D01*
X0092335Y0052965D01*
Y0046966D01*
X0098333Y0052965D02*
X0094335D01*
Y0046966D01*
X0098333D01*
X0094335Y0049966D02*
X0096334D01*
X0106331Y0048966D02*
X0110329D01*
X0106331Y0050965D02*
X0110329D01*
X0454050Y0051965D02*
X0455050Y0052965D01*
X0457049D01*
X0458049Y0051965D01*
Y0050965D01*
X0457049Y0049966D01*
X0456049D01*
X0457049D01*
X0458049Y0048966D01*
Y0047966D01*
X0457049Y0046966D01*
X0455050D01*
X0454050Y0047966D01*
X0460048Y0050965D02*
X0461048D01*
Y0049966D01*
X0460048D01*
Y0050965D01*
Y0047966D02*
X0461048D01*
Y0046966D01*
X0460048D01*
Y0047966D01*
X0469045Y0046966D02*
X0465046D01*
X0469045Y0050965D01*
Y0051965D01*
X0468046Y0052965D01*
X0466046D01*
X0465046Y0051965D01*
X0471044Y0047966D02*
X0472044Y0046966D01*
X0474044D01*
X0475043Y0047966D01*
Y0051965D01*
X0474044Y0052965D01*
X0472044D01*
X0471044Y0051965D01*
Y0050965D01*
X0472044Y0049966D01*
X0475043D01*
X0477043Y0050965D02*
X0478042D01*
Y0049966D01*
X0477043D01*
Y0050965D01*
Y0047966D02*
X0478042D01*
Y0046966D01*
X0477043D01*
Y0047966D01*
X0482041Y0051965D02*
X0483041Y0052965D01*
X0485040D01*
X0486040Y0051965D01*
Y0047966D01*
X0485040Y0046966D01*
X0483041D01*
X0482041Y0047966D01*
Y0051965D01*
X0492038Y0052965D02*
X0488039D01*
Y0049966D01*
X0490038Y0050965D01*
X0491038D01*
X0492038Y0049966D01*
Y0047966D01*
X0491038Y0046966D01*
X0489039D01*
X0488039Y0047966D01*
X0500035Y0046966D02*
Y0052965D01*
X0503034D01*
X0504034Y0051965D01*
Y0049966D01*
X0503034Y0048966D01*
X0500035D01*
X0506033Y0046966D02*
Y0052965D01*
X0508033Y0050965D01*
X0510032Y0052965D01*
Y0046966D01*
X0580500Y0052965D02*
X0584499D01*
X0582499D01*
Y0046966D01*
X0590497Y0052965D02*
X0586498D01*
Y0046966D01*
X0590497D01*
X0586498Y0049966D02*
X0588497D01*
X0592496Y0052965D02*
X0596495Y0046966D01*
Y0052965D02*
X0592496Y0046966D01*
X0598494D02*
Y0050965D01*
X0600493Y0052965D01*
X0602493Y0050965D01*
Y0046966D01*
Y0049966D01*
X0598494D01*
X0608491Y0051965D02*
X0607491Y0052965D01*
X0605492D01*
X0604492Y0051965D01*
Y0050965D01*
X0605492Y0049966D01*
X0607491D01*
X0608491Y0048966D01*
Y0047966D01*
X0607491Y0046966D01*
X0605492D01*
X0604492Y0047966D01*
X0616488Y0052965D02*
X0618488D01*
X0617488D01*
Y0046966D01*
X0616488D01*
X0618488D01*
X0621487D02*
Y0052965D01*
X0625486Y0046966D01*
Y0052965D01*
X0631484Y0051965D02*
X0630484Y0052965D01*
X0628484D01*
X0627485Y0051965D01*
Y0050965D01*
X0628484Y0049966D01*
X0630484D01*
X0631484Y0048966D01*
Y0047966D01*
X0630484Y0046966D01*
X0628484D01*
X0627485Y0047966D01*
X0633483Y0052965D02*
X0637482D01*
X0635482D01*
Y0046966D01*
X0639481D02*
Y0052965D01*
X0642480D01*
X0643480Y0051965D01*
Y0049966D01*
X0642480Y0048966D01*
X0639481D01*
X0641480D02*
X0643480Y0046966D01*
X0645479Y0052965D02*
Y0047966D01*
X0646479Y0046966D01*
X0648478D01*
X0649478Y0047966D01*
Y0052965D01*
X0651477Y0046966D02*
Y0052965D01*
X0653476Y0050965D01*
X0655476Y0052965D01*
Y0046966D01*
X0661474Y0052965D02*
X0657475D01*
Y0046966D01*
X0661474D01*
X0657475Y0049966D02*
X0659474D01*
X0663473Y0046966D02*
Y0052965D01*
X0667472Y0046966D01*
Y0052965D01*
X0669471D02*
X0673470D01*
X0671471D01*
Y0046966D01*
X0679468Y0051965D02*
X0678468Y0052965D01*
X0676469D01*
X0675469Y0051965D01*
Y0050965D01*
X0676469Y0049966D01*
X0678468D01*
X0679468Y0048966D01*
Y0047966D01*
X0678468Y0046966D01*
X0676469D01*
X0675469Y0047966D01*
G54D39*
X0068850Y0153400D02*
G03*
X0069200Y0153050I0000350J0000000D01*
G01*
X0068850Y0153400D02*
G03*
X0069200Y0153050I0000350J0000000D01*
G01*
Y0518750D02*
G03*
X0068850Y0518400I0000000J-0000350D01*
G01*
X0069200Y0518750D02*
G03*
X0068850Y0518400I0000000J-0000350D01*
G01*
X0454200Y0153050D02*
G03*
X0454550Y0153400I0000000J0000350D01*
G01*
X0454200Y0153050D02*
G03*
X0454550Y0153400I0000000J0000350D01*
G01*
Y0518400D02*
G03*
X0454200Y0518750I-0000350J0000000D01*
G01*
X0454550Y0518400D02*
G03*
X0454200Y0518750I-0000350J0000000D01*
G01*
X0068850Y0153400D02*
Y0518400D01*
X0069200Y0153050D02*
X0454200D01*
X0069200Y0518750D02*
X0454200D01*
X0454550Y0153400D02*
Y0518400D01*
M02*
