%FSAX25Y25*%
%MOIN*%
G70*
G01*
G75*
G04 Layer_Color=1462238*
%ADD10R,0.90000X0.25000*%
%ADD11R,0.07874X0.07874*%
%ADD12R,0.07480X0.17323*%
%ADD13R,0.02559X0.04724*%
%ADD14R,0.02756X0.01969*%
%ADD15R,0.18504X0.17716*%
%ADD16R,0.21654X0.27559*%
%ADD17C,0.03937*%
%ADD18R,0.07874X0.15748*%
%ADD19R,0.03937X0.44094*%
%ADD20R,0.03937X0.25984*%
%ADD21R,0.10630X0.05118*%
%ADD22R,0.06300X0.05000*%
%ADD23R,0.03740X0.03937*%
%ADD24R,0.04724X0.02559*%
%ADD25R,0.01969X0.02756*%
%ADD26R,0.17716X0.18504*%
%ADD27R,0.07874X0.07874*%
%ADD28P,0.07072X4X90.0*%
%ADD29C,0.02400*%
%ADD30C,0.01200*%
%ADD31C,0.01000*%
%ADD32C,0.00800*%
%ADD33C,0.31496*%
%ADD34C,0.08700*%
%ADD35C,0.47244*%
%ADD36C,0.01575*%
%ADD37C,0.02400*%
%ADD38C,0.03800*%
%ADD39C,0.00700*%
%ADD40R,0.03937X0.06299*%
%ADD41R,0.02362X0.02362*%
%ADD42R,0.12205X0.20394*%
%ADD43O,0.06693X0.01378*%
%ADD44R,0.03347X0.03150*%
%ADD45R,0.03000X0.03000*%
%ADD46R,0.03150X0.03347*%
%ADD47C,0.01600*%
%ADD48C,0.00799*%
%ADD49C,0.00500*%
%ADD50C,0.00787*%
%ADD51C,0.00709*%
%ADD52C,0.00669*%
%ADD53C,0.01400*%
%ADD54R,0.12400X0.02000*%
%ADD55R,0.01762X0.02224*%
%ADD56R,0.02224X0.01762*%
%ADD57R,0.02000X0.12400*%
%ADD58R,0.30000X0.10000*%
%ADD59R,0.05118X0.04854*%
%ADD60R,0.05118X0.04854*%
%ADD61R,0.04854X0.05118*%
%ADD62R,0.08268X0.08268*%
%ADD63R,0.07874X0.17716*%
%ADD64R,0.02953X0.05118*%
%ADD65R,0.03150X0.02362*%
%ADD66R,0.18898X0.18110*%
%ADD67R,0.22047X0.27953*%
%ADD68C,0.07874*%
%ADD69R,0.08268X0.16142*%
%ADD70R,0.04331X0.44488*%
%ADD71R,0.04331X0.26378*%
%ADD72R,0.11024X0.05512*%
%ADD73R,0.06694X0.05394*%
%ADD74R,0.04134X0.04331*%
%ADD75R,0.05118X0.02953*%
%ADD76R,0.02362X0.03150*%
%ADD77R,0.18110X0.18898*%
%ADD78R,0.08268X0.08268*%
%ADD79C,0.31890*%
%ADD80C,0.09094*%
%ADD81C,0.47638*%
%ADD82C,0.01969*%
%ADD83C,0.02794*%
%ADD84C,0.04194*%
%ADD85R,0.04331X0.06693*%
%ADD86R,0.02756X0.02756*%
%ADD87R,0.12598X0.20787*%
%ADD88O,0.07087X0.01772*%
%ADD89R,0.03740X0.03543*%
%ADD90R,0.03394X0.03394*%
%ADD91R,0.03543X0.03740*%
%ADD92R,0.01969X0.01969*%
%ADD93C,0.00984*%
%ADD94R,0.06800X0.02000*%
G54D31*
X0497200Y0080717D02*
Y0101050D01*
X0413200Y0080717D02*
Y0101050D01*
X0040000Y0080717D02*
X0700200D01*
X0040000Y0060383D02*
X0700000D01*
X0040000Y0040050D02*
X0440500D01*
X0040050Y0101050D02*
X0700200D01*
X0040050Y0040050D02*
Y0101050D01*
Y0040050D02*
X0197600D01*
X0040000D02*
Y0101050D01*
X0286500Y0040050D02*
Y0101050D01*
X0700200Y0040050D02*
Y0101050D01*
X0440500Y0040050D02*
X0700200D01*
X0559400Y0039400D02*
Y0059683D01*
G54D32*
X0126900Y0073549D02*
Y0067551D01*
X0129899D01*
X0130899Y0068550D01*
Y0069550D01*
X0129899Y0070550D01*
X0126900D01*
X0129899D01*
X0130899Y0071549D01*
Y0072549D01*
X0129899Y0073549D01*
X0126900D01*
X0133898Y0067551D02*
X0135897D01*
X0136897Y0068550D01*
Y0070550D01*
X0135897Y0071549D01*
X0133898D01*
X0132898Y0070550D01*
Y0068550D01*
X0133898Y0067551D01*
X0139896Y0072549D02*
Y0071549D01*
X0138896D01*
X0140895D01*
X0139896D01*
Y0068550D01*
X0140895Y0067551D01*
X0144894Y0072549D02*
Y0071549D01*
X0143895D01*
X0145894D01*
X0144894D01*
Y0068550D01*
X0145894Y0067551D01*
X0149893D02*
X0151892D01*
X0152892Y0068550D01*
Y0070550D01*
X0151892Y0071549D01*
X0149893D01*
X0148893Y0070550D01*
Y0068550D01*
X0149893Y0067551D01*
X0154891D02*
Y0071549D01*
X0155891D01*
X0156890Y0070550D01*
Y0067551D01*
Y0070550D01*
X0157890Y0071549D01*
X0158890Y0070550D01*
Y0067551D01*
X0169886Y0073549D02*
X0167887D01*
X0166887Y0072549D01*
Y0068550D01*
X0167887Y0067551D01*
X0169886D01*
X0170886Y0068550D01*
Y0072549D01*
X0169886Y0073549D01*
X0172885Y0071549D02*
X0174884Y0067551D01*
X0176884Y0071549D01*
X0181882Y0067551D02*
X0179883D01*
X0178883Y0068550D01*
Y0070550D01*
X0179883Y0071549D01*
X0181882D01*
X0182882Y0070550D01*
Y0069550D01*
X0178883D01*
X0184881Y0071549D02*
Y0067551D01*
Y0069550D01*
X0185881Y0070550D01*
X0186881Y0071549D01*
X0187880D01*
X0190879Y0067551D02*
X0192879D01*
X0191879D01*
Y0073549D01*
X0190879D01*
X0196877Y0071549D02*
X0198877D01*
X0199876Y0070550D01*
Y0067551D01*
X0196877D01*
X0195878Y0068550D01*
X0196877Y0069550D01*
X0199876D01*
X0201876Y0071549D02*
Y0068550D01*
X0202875Y0067551D01*
X0205874D01*
Y0066551D01*
X0204875Y0065551D01*
X0203875D01*
X0205874Y0067551D02*
Y0071549D01*
X0567400Y0087833D02*
Y0093831D01*
X0571399Y0087833D01*
Y0093831D01*
X0574398Y0087833D02*
X0576397D01*
X0577397Y0088833D01*
Y0090832D01*
X0576397Y0091832D01*
X0574398D01*
X0573398Y0090832D01*
Y0088833D01*
X0574398Y0087833D01*
X0580396Y0092832D02*
Y0091832D01*
X0579396D01*
X0581395D01*
X0580396D01*
Y0088833D01*
X0581395Y0087833D01*
X0590393Y0093831D02*
X0592392D01*
X0591392D01*
Y0087833D01*
X0590393D01*
X0592392D01*
X0595391D02*
Y0091832D01*
X0598390D01*
X0599390Y0090832D01*
Y0087833D01*
X0607387Y0093831D02*
Y0089833D01*
X0609386Y0087833D01*
X0611386Y0089833D01*
Y0093831D01*
X0616384Y0087833D02*
X0614385D01*
X0613385Y0088833D01*
Y0090832D01*
X0614385Y0091832D01*
X0616384D01*
X0617384Y0090832D01*
Y0089833D01*
X0613385D01*
X0619383Y0091832D02*
Y0087833D01*
Y0089833D01*
X0620383Y0090832D01*
X0621383Y0091832D01*
X0622382D01*
X0625381Y0087833D02*
X0628380D01*
X0629380Y0088833D01*
X0628380Y0089833D01*
X0626381D01*
X0625381Y0090832D01*
X0626381Y0091832D01*
X0629380D01*
X0631379Y0087833D02*
X0633379D01*
X0632379D01*
Y0091832D01*
X0631379D01*
X0637377Y0087833D02*
X0639377D01*
X0640376Y0088833D01*
Y0090832D01*
X0639377Y0091832D01*
X0637377D01*
X0636378Y0090832D01*
Y0088833D01*
X0637377Y0087833D01*
X0642376D02*
Y0091832D01*
X0645375D01*
X0646374Y0090832D01*
Y0087833D01*
X0652373Y0092832D02*
X0651373Y0093831D01*
X0649373D01*
X0648374Y0092832D01*
Y0088833D01*
X0649373Y0087833D01*
X0651373D01*
X0652373Y0088833D01*
X0655372Y0087833D02*
X0657371D01*
X0658371Y0088833D01*
Y0090832D01*
X0657371Y0091832D01*
X0655372D01*
X0654372Y0090832D01*
Y0088833D01*
X0655372Y0087833D01*
X0660370D02*
Y0091832D01*
X0663369D01*
X0664369Y0090832D01*
Y0087833D01*
X0667368Y0092832D02*
Y0091832D01*
X0666368D01*
X0668367D01*
X0667368D01*
Y0088833D01*
X0668367Y0087833D01*
X0671366Y0091832D02*
Y0087833D01*
Y0089833D01*
X0672366Y0090832D01*
X0673366Y0091832D01*
X0674365D01*
X0678364Y0087833D02*
X0680364D01*
X0681363Y0088833D01*
Y0090832D01*
X0680364Y0091832D01*
X0678364D01*
X0677364Y0090832D01*
Y0088833D01*
X0678364Y0087833D01*
X0683362D02*
X0685362D01*
X0684362D01*
Y0093831D01*
X0683362D01*
X0520799Y0092832D02*
X0519799Y0093831D01*
X0517800D01*
X0516800Y0092832D01*
Y0091832D01*
X0517800Y0090832D01*
X0519799D01*
X0520799Y0089833D01*
Y0088833D01*
X0519799Y0087833D01*
X0517800D01*
X0516800Y0088833D01*
X0522798Y0093831D02*
Y0089833D01*
X0524797Y0087833D01*
X0526797Y0089833D01*
Y0093831D01*
X0528796Y0087833D02*
Y0093831D01*
X0532795Y0087833D01*
Y0093831D01*
X0540792Y0087833D02*
Y0093831D01*
X0543791D01*
X0544791Y0092832D01*
Y0090832D01*
X0543791Y0089833D01*
X0540792D01*
X0542792D02*
X0544791Y0087833D01*
X0550789Y0093831D02*
X0546790D01*
Y0087833D01*
X0550789D01*
X0546790Y0090832D02*
X0548790D01*
X0552788Y0093831D02*
Y0089833D01*
X0554788Y0087833D01*
X0556787Y0089833D01*
Y0093831D01*
X0558786Y0091832D02*
X0559786D01*
Y0090832D01*
X0558786D01*
Y0091832D01*
Y0088833D02*
X0559786D01*
Y0087833D01*
X0558786D01*
Y0088833D01*
X0433000Y0087833D02*
Y0093831D01*
X0435999D01*
X0436999Y0092832D01*
Y0090832D01*
X0435999Y0089833D01*
X0433000D01*
X0434999D02*
X0436999Y0087833D01*
X0442997Y0093831D02*
X0438998D01*
Y0087833D01*
X0442997D01*
X0438998Y0090832D02*
X0440997D01*
X0444996Y0093831D02*
Y0089833D01*
X0446995Y0087833D01*
X0448995Y0089833D01*
Y0093831D01*
X0450994Y0091832D02*
X0451994D01*
Y0090832D01*
X0450994D01*
Y0091832D01*
Y0088833D02*
X0451994D01*
Y0087833D01*
X0450994D01*
Y0088833D01*
X0130899Y0051965D02*
X0129899Y0052965D01*
X0127900D01*
X0126900Y0051965D01*
Y0050965D01*
X0127900Y0049966D01*
X0129899D01*
X0130899Y0048966D01*
Y0047966D01*
X0129899Y0046966D01*
X0127900D01*
X0126900Y0047966D01*
X0132898Y0052965D02*
Y0048966D01*
X0134897Y0046966D01*
X0136897Y0048966D01*
Y0052965D01*
X0142895D02*
X0140895Y0051965D01*
X0138896Y0049966D01*
Y0047966D01*
X0139896Y0046966D01*
X0141895D01*
X0142895Y0047966D01*
Y0048966D01*
X0141895Y0049966D01*
X0138896D01*
X0144894Y0051965D02*
X0145894Y0052965D01*
X0147893D01*
X0148893Y0051965D01*
Y0047966D01*
X0147893Y0046966D01*
X0145894D01*
X0144894Y0047966D01*
Y0051965D01*
X0150892Y0046966D02*
X0152892D01*
X0151892D01*
Y0052965D01*
X0150892Y0051965D01*
X0155891Y0046966D02*
X0157890D01*
X0156890D01*
Y0052965D01*
X0155891Y0051965D01*
X0164888Y0052965D02*
X0160889D01*
Y0049966D01*
X0162888Y0050965D01*
X0163888D01*
X0164888Y0049966D01*
Y0047966D01*
X0163888Y0046966D01*
X0161889D01*
X0160889Y0047966D01*
X0166887Y0052965D02*
X0170886D01*
Y0051965D01*
X0166887Y0047966D01*
Y0046966D01*
X0172885D02*
Y0050965D01*
X0174884Y0052965D01*
X0176884Y0050965D01*
Y0046966D01*
Y0049966D01*
X0172885D01*
X0178883Y0046966D02*
Y0047966D01*
X0179883D01*
Y0046966D01*
X0178883D01*
X0187880Y0051965D02*
X0186881Y0052965D01*
X0184881D01*
X0183882Y0051965D01*
Y0047966D01*
X0184881Y0046966D01*
X0186881D01*
X0187880Y0047966D01*
Y0049966D01*
X0185881D01*
X0189880Y0052965D02*
Y0046966D01*
X0192879D01*
X0193878Y0047966D01*
Y0048966D01*
X0192879Y0049966D01*
X0189880D01*
X0192879D01*
X0193878Y0050965D01*
Y0051965D01*
X0192879Y0052965D01*
X0189880D01*
X0198877D02*
X0196877D01*
X0195878Y0051965D01*
Y0047966D01*
X0196877Y0046966D01*
X0198877D01*
X0199876Y0047966D01*
Y0051965D01*
X0198877Y0052965D01*
X0381150Y0051965D02*
X0382150Y0052965D01*
X0384149D01*
X0385149Y0051965D01*
Y0050965D01*
X0384149Y0049966D01*
X0383149D01*
X0384149D01*
X0385149Y0048966D01*
Y0047966D01*
X0384149Y0046966D01*
X0382150D01*
X0381150Y0047966D01*
X0387148Y0046966D02*
X0391147Y0050965D01*
X0393146Y0046966D02*
X0395146D01*
X0394146D01*
Y0052965D01*
X0393146Y0051965D01*
X0398145D02*
X0399144Y0052965D01*
X0401144D01*
X0402143Y0051965D01*
Y0050965D01*
X0401144Y0049966D01*
X0400144D01*
X0401144D01*
X0402143Y0048966D01*
Y0047966D01*
X0401144Y0046966D01*
X0399144D01*
X0398145Y0047966D01*
X0404143Y0046966D02*
X0408141Y0050965D01*
X0414139Y0046966D02*
X0410141D01*
X0414139Y0050965D01*
Y0051965D01*
X0413140Y0052965D01*
X0411140D01*
X0410141Y0051965D01*
X0416139D02*
X0417138Y0052965D01*
X0419138D01*
X0420137Y0051965D01*
Y0047966D01*
X0419138Y0046966D01*
X0417138D01*
X0416139Y0047966D01*
Y0051965D01*
X0422137Y0046966D02*
X0424136D01*
X0423136D01*
Y0052965D01*
X0422137Y0051965D01*
X0431134Y0052965D02*
X0427135D01*
Y0049966D01*
X0429135Y0050965D01*
X0430134D01*
X0431134Y0049966D01*
Y0047966D01*
X0430134Y0046966D01*
X0428135D01*
X0427135Y0047966D01*
X0298199Y0051965D02*
X0297199Y0052965D01*
X0295200D01*
X0294200Y0051965D01*
Y0047966D01*
X0295200Y0046966D01*
X0297199D01*
X0298199Y0047966D01*
Y0049966D01*
X0296199D01*
X0304197Y0052965D02*
X0300198D01*
Y0046966D01*
X0304197D01*
X0300198Y0049966D02*
X0302197D01*
X0306196Y0046966D02*
Y0052965D01*
X0310195Y0046966D01*
Y0052965D01*
X0316193D02*
X0312194D01*
Y0046966D01*
X0316193D01*
X0312194Y0049966D02*
X0314194D01*
X0318192Y0046966D02*
Y0052965D01*
X0321191D01*
X0322191Y0051965D01*
Y0049966D01*
X0321191Y0048966D01*
X0318192D01*
X0320192D02*
X0322191Y0046966D01*
X0324190D02*
Y0050965D01*
X0326190Y0052965D01*
X0328189Y0050965D01*
Y0046966D01*
Y0049966D01*
X0324190D01*
X0330188Y0052965D02*
X0334187D01*
X0332188D01*
Y0046966D01*
X0340185Y0052965D02*
X0336186D01*
Y0046966D01*
X0340185D01*
X0336186Y0049966D02*
X0338186D01*
X0342184Y0052965D02*
Y0046966D01*
X0345183D01*
X0346183Y0047966D01*
Y0051965D01*
X0345183Y0052965D01*
X0342184D01*
X0372175Y0050965D02*
X0373175D01*
Y0049966D01*
X0372175D01*
Y0050965D01*
Y0047966D02*
X0373175D01*
Y0046966D01*
X0372175D01*
Y0047966D01*
X0046350Y0087833D02*
Y0091832D01*
X0048349Y0093831D01*
X0050349Y0091832D01*
Y0087833D01*
Y0090832D01*
X0046350D01*
X0052348Y0093831D02*
Y0087833D01*
X0056347D01*
X0058346Y0093831D02*
Y0087833D01*
X0062345D01*
X0070342D02*
Y0091832D01*
X0072342Y0093831D01*
X0074341Y0091832D01*
Y0087833D01*
Y0090832D01*
X0070342D01*
X0076340Y0087833D02*
Y0093831D01*
X0079339D01*
X0080339Y0092832D01*
Y0090832D01*
X0079339Y0089833D01*
X0076340D01*
X0078340D02*
X0080339Y0087833D01*
X0082338Y0093831D02*
X0086337D01*
X0084338D01*
Y0087833D01*
X0088336Y0093831D02*
Y0087833D01*
X0090336Y0089833D01*
X0092335Y0087833D01*
Y0093831D01*
X0097334D02*
X0095334D01*
X0094335Y0092832D01*
Y0088833D01*
X0095334Y0087833D01*
X0097334D01*
X0098333Y0088833D01*
Y0092832D01*
X0097334Y0093831D01*
X0100332Y0087833D02*
Y0093831D01*
X0103332D01*
X0104331Y0092832D01*
Y0090832D01*
X0103332Y0089833D01*
X0100332D01*
X0102332D02*
X0104331Y0087833D01*
X0106331Y0093831D02*
Y0087833D01*
Y0089833D01*
X0110329Y0093831D01*
X0107330Y0090832D01*
X0110329Y0087833D01*
X0118327Y0093831D02*
Y0089833D01*
X0120326Y0087833D01*
X0122325Y0089833D01*
Y0093831D01*
X0124325D02*
X0126324D01*
X0125324D01*
Y0087833D01*
X0124325D01*
X0126324D01*
X0133322Y0093831D02*
X0129323D01*
Y0087833D01*
X0133322D01*
X0129323Y0090832D02*
X0131323D01*
X0135321Y0093831D02*
Y0087833D01*
X0137321Y0089833D01*
X0139320Y0087833D01*
Y0093831D01*
X0145318D02*
X0141319D01*
Y0087833D01*
X0145318D01*
X0141319Y0090832D02*
X0143319D01*
X0147317Y0093831D02*
Y0087833D01*
X0150316D01*
X0151316Y0088833D01*
Y0092832D01*
X0150316Y0093831D01*
X0147317D01*
X0163312D02*
X0159313D01*
Y0090832D01*
X0161313D01*
X0159313D01*
Y0087833D01*
X0165312D02*
Y0093831D01*
X0168310D01*
X0169310Y0092832D01*
Y0090832D01*
X0168310Y0089833D01*
X0165312D01*
X0167311D02*
X0169310Y0087833D01*
X0174309Y0093831D02*
X0172309D01*
X0171310Y0092832D01*
Y0088833D01*
X0172309Y0087833D01*
X0174309D01*
X0175308Y0088833D01*
Y0092832D01*
X0174309Y0093831D01*
X0177308Y0087833D02*
Y0093831D01*
X0179307Y0091832D01*
X0181306Y0093831D01*
Y0087833D01*
X0189304Y0093831D02*
X0193303D01*
X0191303D01*
Y0087833D01*
X0198301Y0093831D02*
X0196301D01*
X0195302Y0092832D01*
Y0088833D01*
X0196301Y0087833D01*
X0198301D01*
X0199301Y0088833D01*
Y0092832D01*
X0198301Y0093831D01*
X0201300Y0087833D02*
Y0093831D01*
X0204299D01*
X0205299Y0092832D01*
Y0090832D01*
X0204299Y0089833D01*
X0201300D01*
X0217295Y0092832D02*
X0216295Y0093831D01*
X0214296D01*
X0213296Y0092832D01*
Y0091832D01*
X0214296Y0090832D01*
X0216295D01*
X0217295Y0089833D01*
Y0088833D01*
X0216295Y0087833D01*
X0214296D01*
X0213296Y0088833D01*
X0219294Y0093831D02*
X0221293D01*
X0220294D01*
Y0087833D01*
X0219294D01*
X0221293D01*
X0224292Y0093831D02*
Y0087833D01*
X0227291D01*
X0228291Y0088833D01*
Y0092832D01*
X0227291Y0093831D01*
X0224292D01*
X0234289D02*
X0230291D01*
Y0087833D01*
X0234289D01*
X0230291Y0090832D02*
X0232290D01*
X0462150Y0087833D02*
Y0091832D01*
X0464149Y0093831D01*
X0466149Y0091832D01*
Y0087833D01*
Y0090832D01*
X0462150D01*
X0352549Y0092832D02*
X0351549Y0093831D01*
X0349550D01*
X0348550Y0092832D01*
Y0091832D01*
X0349550Y0090832D01*
X0351549D01*
X0352549Y0089833D01*
Y0088833D01*
X0351549Y0087833D01*
X0349550D01*
X0348550Y0088833D01*
X0354548Y0093831D02*
Y0089833D01*
X0356547Y0087833D01*
X0358547Y0089833D01*
Y0093831D01*
X0364545D02*
X0362545Y0092832D01*
X0360546Y0090832D01*
Y0088833D01*
X0361546Y0087833D01*
X0363545D01*
X0364545Y0088833D01*
Y0089833D01*
X0363545Y0090832D01*
X0360546D01*
X0366544Y0092832D02*
X0367544Y0093831D01*
X0369543D01*
X0370543Y0092832D01*
Y0088833D01*
X0369543Y0087833D01*
X0367544D01*
X0366544Y0088833D01*
Y0092832D01*
X0372542Y0087833D02*
X0374542D01*
X0373542D01*
Y0093831D01*
X0372542Y0092832D01*
X0377541Y0087833D02*
X0379540D01*
X0378540D01*
Y0093831D01*
X0377541Y0092832D01*
X0386538Y0093831D02*
X0382539D01*
Y0090832D01*
X0384538Y0091832D01*
X0385538D01*
X0386538Y0090832D01*
Y0088833D01*
X0385538Y0087833D01*
X0383539D01*
X0382539Y0088833D01*
X0388537Y0093831D02*
X0392536D01*
Y0092832D01*
X0388537Y0088833D01*
Y0087833D01*
X0294000Y0093831D02*
Y0087833D01*
X0296999D01*
X0297999Y0088833D01*
Y0089833D01*
X0296999Y0090832D01*
X0294000D01*
X0296999D01*
X0297999Y0091832D01*
Y0092832D01*
X0296999Y0093831D01*
X0294000D01*
X0302997D02*
X0300998D01*
X0299998Y0092832D01*
Y0088833D01*
X0300998Y0087833D01*
X0302997D01*
X0303997Y0088833D01*
Y0092832D01*
X0302997Y0093831D01*
X0305996Y0087833D02*
Y0091832D01*
X0307996Y0093831D01*
X0309995Y0091832D01*
Y0087833D01*
Y0090832D01*
X0305996D01*
X0311994Y0087833D02*
Y0093831D01*
X0314993D01*
X0315993Y0092832D01*
Y0090832D01*
X0314993Y0089833D01*
X0311994D01*
X0313994D02*
X0315993Y0087833D01*
X0317992Y0093831D02*
Y0087833D01*
X0320991D01*
X0321991Y0088833D01*
Y0092832D01*
X0320991Y0093831D01*
X0317992D01*
X0330988Y0087833D02*
Y0093831D01*
X0332987D02*
Y0087833D01*
X0329988Y0091832D02*
X0332987D01*
X0333987D01*
X0329988Y0089833D02*
X0333987D01*
X0335986Y0091832D02*
X0336986D01*
Y0090832D01*
X0335986D01*
Y0091832D01*
Y0088833D02*
X0336986D01*
Y0087833D01*
X0335986D01*
Y0088833D01*
X0046350Y0073549D02*
Y0067551D01*
X0050349D01*
X0052348D02*
Y0071549D01*
X0054347Y0073549D01*
X0056347Y0071549D01*
Y0067551D01*
Y0070550D01*
X0052348D01*
X0058346Y0073549D02*
Y0072549D01*
X0060346Y0070550D01*
X0062345Y0072549D01*
Y0073549D01*
X0060346Y0070550D02*
Y0067551D01*
X0068343Y0073549D02*
X0064344D01*
Y0067551D01*
X0068343D01*
X0064344Y0070550D02*
X0066343D01*
X0070342Y0067551D02*
Y0073549D01*
X0073341D01*
X0074341Y0072549D01*
Y0070550D01*
X0073341Y0069550D01*
X0070342D01*
X0072342D02*
X0074341Y0067551D01*
X0082338D02*
Y0073549D01*
X0086337Y0067551D01*
Y0073549D01*
X0088336Y0067551D02*
Y0071549D01*
X0090336Y0073549D01*
X0092335Y0071549D01*
Y0067551D01*
Y0070550D01*
X0088336D01*
X0094335Y0067551D02*
Y0073549D01*
X0096334Y0071549D01*
X0098333Y0073549D01*
Y0067551D01*
X0104331Y0073549D02*
X0100332D01*
Y0067551D01*
X0104331D01*
X0100332Y0070550D02*
X0102332D01*
X0112329Y0069550D02*
X0116327D01*
X0112329Y0071549D02*
X0116327D01*
X0046350Y0046966D02*
Y0052965D01*
X0049349D01*
X0050349Y0051965D01*
Y0049966D01*
X0049349Y0048966D01*
X0046350D01*
X0052348Y0052965D02*
Y0046966D01*
X0056347D01*
X0061345Y0052965D02*
X0059346D01*
X0058346Y0051965D01*
Y0047966D01*
X0059346Y0046966D01*
X0061345D01*
X0062345Y0047966D01*
Y0051965D01*
X0061345Y0052965D01*
X0064344D02*
X0068343D01*
X0066343D01*
Y0046966D01*
X0076340D02*
Y0052965D01*
X0080339Y0046966D01*
Y0052965D01*
X0082338Y0046966D02*
Y0050965D01*
X0084338Y0052965D01*
X0086337Y0050965D01*
Y0046966D01*
Y0049966D01*
X0082338D01*
X0088336Y0046966D02*
Y0052965D01*
X0090336Y0050965D01*
X0092335Y0052965D01*
Y0046966D01*
X0098333Y0052965D02*
X0094335D01*
Y0046966D01*
X0098333D01*
X0094335Y0049966D02*
X0096334D01*
X0106331Y0048966D02*
X0110329D01*
X0106331Y0050965D02*
X0110329D01*
X0454050Y0051965D02*
X0455050Y0052965D01*
X0457049D01*
X0458049Y0051965D01*
Y0050965D01*
X0457049Y0049966D01*
X0456049D01*
X0457049D01*
X0458049Y0048966D01*
Y0047966D01*
X0457049Y0046966D01*
X0455050D01*
X0454050Y0047966D01*
X0460048Y0050965D02*
X0461048D01*
Y0049966D01*
X0460048D01*
Y0050965D01*
Y0047966D02*
X0461048D01*
Y0046966D01*
X0460048D01*
Y0047966D01*
X0469045Y0046966D02*
X0465046D01*
X0469045Y0050965D01*
Y0051965D01*
X0468046Y0052965D01*
X0466046D01*
X0465046Y0051965D01*
X0471044Y0047966D02*
X0472044Y0046966D01*
X0474044D01*
X0475043Y0047966D01*
Y0051965D01*
X0474044Y0052965D01*
X0472044D01*
X0471044Y0051965D01*
Y0050965D01*
X0472044Y0049966D01*
X0475043D01*
X0477043Y0050965D02*
X0478042D01*
Y0049966D01*
X0477043D01*
Y0050965D01*
Y0047966D02*
X0478042D01*
Y0046966D01*
X0477043D01*
Y0047966D01*
X0482041Y0051965D02*
X0483041Y0052965D01*
X0485040D01*
X0486040Y0051965D01*
Y0047966D01*
X0485040Y0046966D01*
X0483041D01*
X0482041Y0047966D01*
Y0051965D01*
X0492038Y0052965D02*
X0488039D01*
Y0049966D01*
X0490038Y0050965D01*
X0491038D01*
X0492038Y0049966D01*
Y0047966D01*
X0491038Y0046966D01*
X0489039D01*
X0488039Y0047966D01*
X0500035Y0046966D02*
Y0052965D01*
X0503034D01*
X0504034Y0051965D01*
Y0049966D01*
X0503034Y0048966D01*
X0500035D01*
X0506033Y0046966D02*
Y0052965D01*
X0508033Y0050965D01*
X0510032Y0052965D01*
Y0046966D01*
X0580500Y0052965D02*
X0584499D01*
X0582499D01*
Y0046966D01*
X0590497Y0052965D02*
X0586498D01*
Y0046966D01*
X0590497D01*
X0586498Y0049966D02*
X0588497D01*
X0592496Y0052965D02*
X0596495Y0046966D01*
Y0052965D02*
X0592496Y0046966D01*
X0598494D02*
Y0050965D01*
X0600493Y0052965D01*
X0602493Y0050965D01*
Y0046966D01*
Y0049966D01*
X0598494D01*
X0608491Y0051965D02*
X0607491Y0052965D01*
X0605492D01*
X0604492Y0051965D01*
Y0050965D01*
X0605492Y0049966D01*
X0607491D01*
X0608491Y0048966D01*
Y0047966D01*
X0607491Y0046966D01*
X0605492D01*
X0604492Y0047966D01*
X0616488Y0052965D02*
X0618488D01*
X0617488D01*
Y0046966D01*
X0616488D01*
X0618488D01*
X0621487D02*
Y0052965D01*
X0625486Y0046966D01*
Y0052965D01*
X0631484Y0051965D02*
X0630484Y0052965D01*
X0628484D01*
X0627485Y0051965D01*
Y0050965D01*
X0628484Y0049966D01*
X0630484D01*
X0631484Y0048966D01*
Y0047966D01*
X0630484Y0046966D01*
X0628484D01*
X0627485Y0047966D01*
X0633483Y0052965D02*
X0637482D01*
X0635482D01*
Y0046966D01*
X0639481D02*
Y0052965D01*
X0642480D01*
X0643480Y0051965D01*
Y0049966D01*
X0642480Y0048966D01*
X0639481D01*
X0641480D02*
X0643480Y0046966D01*
X0645479Y0052965D02*
Y0047966D01*
X0646479Y0046966D01*
X0648478D01*
X0649478Y0047966D01*
Y0052965D01*
X0651477Y0046966D02*
Y0052965D01*
X0653476Y0050965D01*
X0655476Y0052965D01*
Y0046966D01*
X0661474Y0052965D02*
X0657475D01*
Y0046966D01*
X0661474D01*
X0657475Y0049966D02*
X0659474D01*
X0663473Y0046966D02*
Y0052965D01*
X0667472Y0046966D01*
Y0052965D01*
X0669471D02*
X0673470D01*
X0671471D01*
Y0046966D01*
X0679468Y0051965D02*
X0678468Y0052965D01*
X0676469D01*
X0675469Y0051965D01*
Y0050965D01*
X0676469Y0049966D01*
X0678468D01*
X0679468Y0048966D01*
Y0047966D01*
X0678468Y0046966D01*
X0676469D01*
X0675469Y0047966D01*
G54D39*
X0293750Y0378800D02*
Y0386294D01*
X0287650D02*
Y0391904D01*
Y0378800D02*
Y0386294D01*
X0293750D02*
Y0391904D01*
X0233650Y0336896D02*
Y0342506D01*
X0239750D02*
Y0350000D01*
Y0336896D02*
Y0342506D01*
X0233650D02*
Y0350000D01*
X0253700Y0293600D02*
X0256100D01*
Y0297100D01*
X0251300Y0293600D02*
Y0297100D01*
Y0293600D02*
X0253700D01*
X0251300Y0304000D02*
X0253700D01*
X0251300Y0300500D02*
Y0304000D01*
X0256100Y0300500D02*
Y0304000D01*
X0253700D02*
X0256100D01*
X0239750Y0328294D02*
Y0333904D01*
X0233650Y0320800D02*
Y0328294D01*
Y0333904D01*
X0239750Y0320800D02*
Y0328294D01*
X0242700Y0328000D02*
Y0331400D01*
Y0328000D02*
X0246700D01*
X0250700D01*
Y0331400D01*
Y0339400D02*
Y0342800D01*
X0246700D02*
X0250700D01*
X0242700D02*
X0246700D01*
X0242700Y0339400D02*
Y0342800D01*
X0259700Y0295700D02*
X0262100D01*
Y0299200D01*
X0257300Y0295700D02*
Y0299200D01*
Y0295700D02*
X0259700D01*
X0257300Y0306100D02*
X0259700D01*
X0257300Y0302600D02*
Y0306100D01*
X0262100Y0302600D02*
Y0306100D01*
X0259700D02*
X0262100D01*
X0211213Y0255280D02*
X0223557D01*
Y0258451D01*
X0211213Y0255280D02*
Y0258451D01*
Y0270349D02*
Y0273520D01*
X0223557Y0270349D02*
Y0273520D01*
X0211213D02*
X0223557D01*
X0225213Y0255280D02*
X0237557D01*
Y0258451D01*
X0225213Y0255280D02*
Y0258451D01*
Y0270349D02*
Y0273520D01*
X0237557Y0270349D02*
Y0273520D01*
X0225213D02*
X0237557D01*
X0248200Y0303900D02*
Y0305400D01*
X0250700Y0307900D01*
Y0306400D02*
Y0307900D01*
X0249200D02*
X0250700Y0306400D01*
X0249200Y0307900D02*
X0250700D01*
X0368200Y0328900D02*
X0372700D01*
X0366200Y0330900D02*
X0368200Y0328900D01*
X0366200Y0329400D02*
Y0330900D01*
Y0329400D02*
X0367700Y0330900D01*
X0366200D02*
X0367700D01*
X0380534Y0351732D02*
X0381201Y0352399D01*
X0382534D01*
X0383200Y0351732D01*
Y0351066D01*
X0382534Y0350399D01*
X0381201D01*
X0380534Y0349733D01*
Y0349066D01*
X0381201Y0348400D01*
X0382534D01*
X0383200Y0349066D01*
X0379201Y0348400D02*
X0377868D01*
X0378535D01*
Y0352399D01*
X0379201Y0351732D01*
X0281701Y0390400D02*
X0285700D01*
Y0388401D01*
X0285034Y0387734D01*
X0282368D01*
X0281701Y0388401D01*
Y0390400D01*
X0282368Y0386401D02*
X0281701Y0385735D01*
Y0384402D01*
X0282368Y0383735D01*
X0283034D01*
X0283701Y0384402D01*
Y0385068D01*
Y0384402D01*
X0284367Y0383735D01*
X0285034D01*
X0285700Y0384402D01*
Y0385735D01*
X0285034Y0386401D01*
X0234701Y0358900D02*
X0238700D01*
Y0356901D01*
X0238034Y0356234D01*
X0235368D01*
X0234701Y0356901D01*
Y0358900D01*
X0238700Y0352902D02*
X0234701D01*
X0236701Y0354901D01*
Y0352236D01*
X0254701Y0359463D02*
X0258034D01*
X0258700Y0358797D01*
Y0357464D01*
X0258034Y0356797D01*
X0254701D01*
X0258700Y0355464D02*
Y0354131D01*
Y0354798D01*
X0254701D01*
X0255368Y0355464D01*
X0203298Y0320935D02*
X0199300D01*
Y0318936D01*
X0199966Y0318270D01*
X0201299D01*
X0201965Y0318936D01*
Y0320935D01*
Y0319602D02*
X0203298Y0318270D01*
Y0314271D02*
Y0316937D01*
X0200633Y0314271D01*
X0199966D01*
X0199300Y0314937D01*
Y0316270D01*
X0199966Y0316937D01*
X0199300Y0312938D02*
Y0310272D01*
X0199966D01*
X0202632Y0312938D01*
X0203298D01*
X0255200Y0291300D02*
X0251201D01*
Y0289301D01*
X0251868Y0288634D01*
X0253201D01*
X0253867Y0289301D01*
Y0291300D01*
Y0289967D02*
X0255200Y0288634D01*
X0251201Y0284635D02*
X0251868Y0285968D01*
X0253201Y0287301D01*
X0254534D01*
X0255200Y0286635D01*
Y0285302D01*
X0254534Y0284635D01*
X0253867D01*
X0253201Y0285302D01*
Y0287301D01*
X0358534Y0368232D02*
X0359201Y0368899D01*
X0360534D01*
X0361200Y0368232D01*
Y0367566D01*
X0360534Y0366899D01*
X0359201D01*
X0358534Y0366233D01*
Y0365566D01*
X0359201Y0364900D01*
X0360534D01*
X0361200Y0365566D01*
X0357201Y0368232D02*
X0356535Y0368899D01*
X0355202D01*
X0354536Y0368232D01*
Y0367566D01*
X0355202Y0366899D01*
X0355868D01*
X0355202D01*
X0354536Y0366233D01*
Y0365566D01*
X0355202Y0364900D01*
X0356535D01*
X0357201Y0365566D01*
X0343534Y0387232D02*
X0344201Y0387899D01*
X0345534D01*
X0346200Y0387232D01*
Y0386566D01*
X0345534Y0385899D01*
X0344201D01*
X0343534Y0385233D01*
Y0384566D01*
X0344201Y0383900D01*
X0345534D01*
X0346200Y0384566D01*
X0339535Y0383900D02*
X0342201D01*
X0339535Y0386566D01*
Y0387232D01*
X0340202Y0387899D01*
X0341535D01*
X0342201Y0387232D01*
X0279034Y0358232D02*
X0279701Y0358899D01*
X0281034D01*
X0281700Y0358232D01*
Y0355566D01*
X0281034Y0354900D01*
X0279701D01*
X0279034Y0355566D01*
X0277701Y0354900D02*
X0276368D01*
X0277035D01*
Y0358899D01*
X0277701Y0358232D01*
X0274369Y0358899D02*
X0271703D01*
Y0358232D01*
X0274369Y0355566D01*
Y0354900D01*
X0335700Y0331900D02*
Y0335899D01*
X0333701D01*
X0333034Y0335232D01*
Y0333899D01*
X0333701Y0333233D01*
X0335700D01*
X0334367D02*
X0333034Y0331900D01*
X0329035D02*
X0331701D01*
X0329035Y0334566D01*
Y0335232D01*
X0329702Y0335899D01*
X0331035D01*
X0331701Y0335232D01*
X0327703D02*
X0327036Y0335899D01*
X0325703D01*
X0325037Y0335232D01*
Y0334566D01*
X0325703Y0333899D01*
X0326370D01*
X0325703D01*
X0325037Y0333233D01*
Y0332566D01*
X0325703Y0331900D01*
X0327036D01*
X0327703Y0332566D01*
X0335700Y0320900D02*
Y0324899D01*
X0333701D01*
X0333034Y0324232D01*
Y0322899D01*
X0333701Y0322233D01*
X0335700D01*
X0334367D02*
X0333034Y0320900D01*
X0329035D02*
X0331701D01*
X0329035Y0323566D01*
Y0324232D01*
X0329702Y0324899D01*
X0331035D01*
X0331701Y0324232D01*
X0325037Y0320900D02*
X0327703D01*
X0325037Y0323566D01*
Y0324232D01*
X0325703Y0324899D01*
X0327036D01*
X0327703Y0324232D01*
X0297700Y0295900D02*
X0293701D01*
Y0293901D01*
X0294368Y0293234D01*
X0295701D01*
X0296367Y0293901D01*
Y0295900D01*
Y0294567D02*
X0297700Y0293234D01*
Y0289235D02*
Y0291901D01*
X0295034Y0289235D01*
X0294368D01*
X0293701Y0289902D01*
Y0291235D01*
X0294368Y0291901D01*
X0297700Y0287903D02*
Y0286570D01*
Y0287236D01*
X0293701D01*
X0294368Y0287903D01*
X0336140Y0348463D02*
Y0352462D01*
X0334141D01*
X0333474Y0351795D01*
Y0350462D01*
X0334141Y0349796D01*
X0336140D01*
X0334807D02*
X0333474Y0348463D01*
X0329476D02*
X0332141D01*
X0329476Y0351129D01*
Y0351795D01*
X0330142Y0352462D01*
X0331475D01*
X0332141Y0351795D01*
X0328143D02*
X0327476Y0352462D01*
X0326143D01*
X0325477Y0351795D01*
Y0349129D01*
X0326143Y0348463D01*
X0327476D01*
X0328143Y0349129D01*
Y0351795D01*
X0360700Y0343400D02*
Y0347399D01*
X0358701D01*
X0358034Y0346732D01*
Y0345399D01*
X0358701Y0344733D01*
X0360700D01*
X0359367D02*
X0358034Y0343400D01*
X0356701D02*
X0355368D01*
X0356035D01*
Y0347399D01*
X0356701Y0346732D01*
X0353369Y0344066D02*
X0352703Y0343400D01*
X0351370D01*
X0350703Y0344066D01*
Y0346732D01*
X0351370Y0347399D01*
X0352703D01*
X0353369Y0346732D01*
Y0346066D01*
X0352703Y0345399D01*
X0350703D01*
X0335700Y0359400D02*
Y0363399D01*
X0333701D01*
X0333034Y0362732D01*
Y0361399D01*
X0333701Y0360733D01*
X0335700D01*
X0334367D02*
X0333034Y0359400D01*
X0331701D02*
X0330368D01*
X0331035D01*
Y0363399D01*
X0331701Y0362732D01*
X0328369D02*
X0327703Y0363399D01*
X0326370D01*
X0325703Y0362732D01*
Y0362066D01*
X0326370Y0361399D01*
X0325703Y0360733D01*
Y0360066D01*
X0326370Y0359400D01*
X0327703D01*
X0328369Y0360066D01*
Y0360733D01*
X0327703Y0361399D01*
X0328369Y0362066D01*
Y0362732D01*
X0327703Y0361399D02*
X0326370D01*
X0304200Y0295900D02*
X0300201D01*
Y0293901D01*
X0300868Y0293234D01*
X0302201D01*
X0302867Y0293901D01*
Y0295900D01*
Y0294567D02*
X0304200Y0293234D01*
Y0291901D02*
Y0290568D01*
Y0291235D01*
X0300201D01*
X0300868Y0291901D01*
X0300201Y0285903D02*
X0300868Y0287236D01*
X0302201Y0288569D01*
X0303534D01*
X0304200Y0287903D01*
Y0286570D01*
X0303534Y0285903D01*
X0302867D01*
X0302201Y0286570D01*
Y0288569D01*
X0308200Y0392400D02*
X0304201D01*
Y0390401D01*
X0304868Y0389734D01*
X0306201D01*
X0306867Y0390401D01*
Y0392400D01*
Y0391067D02*
X0308200Y0389734D01*
Y0388401D02*
Y0387068D01*
Y0387735D01*
X0304201D01*
X0304868Y0388401D01*
X0304201Y0382403D02*
Y0385069D01*
X0306201D01*
X0305534Y0383736D01*
Y0383070D01*
X0306201Y0382403D01*
X0307534D01*
X0308200Y0383070D01*
Y0384403D01*
X0307534Y0385069D01*
X0298700Y0368900D02*
X0294701D01*
Y0366901D01*
X0295368Y0366234D01*
X0296701D01*
X0297367Y0366901D01*
Y0368900D01*
Y0367567D02*
X0298700Y0366234D01*
X0298034Y0364901D02*
X0298700Y0364235D01*
Y0362902D01*
X0298034Y0362235D01*
X0295368D01*
X0294701Y0362902D01*
Y0364235D01*
X0295368Y0364901D01*
X0296034D01*
X0296701Y0364235D01*
Y0362235D01*
X0234701Y0317900D02*
X0238700D01*
Y0315901D01*
X0238034Y0315234D01*
X0235368D01*
X0234701Y0315901D01*
Y0317900D01*
Y0311235D02*
Y0313901D01*
X0236701D01*
X0236034Y0312568D01*
Y0311902D01*
X0236701Y0311235D01*
X0238034D01*
X0238700Y0311902D01*
Y0313235D01*
X0238034Y0313901D01*
X0333534Y0312732D02*
X0334201Y0313399D01*
X0335534D01*
X0336200Y0312732D01*
Y0310066D01*
X0335534Y0309400D01*
X0334201D01*
X0333534Y0310066D01*
X0332201Y0312732D02*
X0331535Y0313399D01*
X0330202D01*
X0329536Y0312732D01*
Y0312066D01*
X0330202Y0311399D01*
X0330868D01*
X0330202D01*
X0329536Y0310733D01*
Y0310066D01*
X0330202Y0309400D01*
X0331535D01*
X0332201Y0310066D01*
X0328203Y0312732D02*
X0327536Y0313399D01*
X0326203D01*
X0325537Y0312732D01*
Y0310066D01*
X0326203Y0309400D01*
X0327536D01*
X0328203Y0310066D01*
Y0312732D01*
X0333534Y0346232D02*
X0334201Y0346899D01*
X0335534D01*
X0336200Y0346232D01*
Y0343566D01*
X0335534Y0342900D01*
X0334201D01*
X0333534Y0343566D01*
X0329536Y0342900D02*
X0332201D01*
X0329536Y0345566D01*
Y0346232D01*
X0330202Y0346899D01*
X0331535D01*
X0332201Y0346232D01*
X0328203Y0343566D02*
X0327536Y0342900D01*
X0326203D01*
X0325537Y0343566D01*
Y0346232D01*
X0326203Y0346899D01*
X0327536D01*
X0328203Y0346232D01*
Y0345566D01*
X0327536Y0344899D01*
X0325537D01*
X0333534Y0329732D02*
X0334201Y0330399D01*
X0335534D01*
X0336200Y0329732D01*
Y0327066D01*
X0335534Y0326400D01*
X0334201D01*
X0333534Y0327066D01*
X0329536Y0326400D02*
X0332201D01*
X0329536Y0329066D01*
Y0329732D01*
X0330202Y0330399D01*
X0331535D01*
X0332201Y0329732D01*
X0328203D02*
X0327536Y0330399D01*
X0326203D01*
X0325537Y0329732D01*
Y0329066D01*
X0326203Y0328399D01*
X0325537Y0327733D01*
Y0327066D01*
X0326203Y0326400D01*
X0327536D01*
X0328203Y0327066D01*
Y0327733D01*
X0327536Y0328399D01*
X0328203Y0329066D01*
Y0329732D01*
X0327536Y0328399D02*
X0326203D01*
X0333034Y0357232D02*
X0333701Y0357899D01*
X0335034D01*
X0335700Y0357232D01*
Y0354566D01*
X0335034Y0353900D01*
X0333701D01*
X0333034Y0354566D01*
X0329035Y0353900D02*
X0331701D01*
X0329035Y0356566D01*
Y0357232D01*
X0329702Y0357899D01*
X0331035D01*
X0331701Y0357232D01*
X0327703Y0357899D02*
X0325037D01*
Y0357232D01*
X0327703Y0354566D01*
Y0353900D01*
X0358534Y0341232D02*
X0359201Y0341899D01*
X0360534D01*
X0361200Y0341232D01*
Y0338566D01*
X0360534Y0337900D01*
X0359201D01*
X0358534Y0338566D01*
X0354536Y0337900D02*
X0357201D01*
X0354536Y0340566D01*
Y0341232D01*
X0355202Y0341899D01*
X0356535D01*
X0357201Y0341232D01*
X0350537Y0341899D02*
X0351870Y0341232D01*
X0353203Y0339899D01*
Y0338566D01*
X0352536Y0337900D01*
X0351203D01*
X0350537Y0338566D01*
Y0339233D01*
X0351203Y0339899D01*
X0353203D01*
X0289034Y0310732D02*
X0289701Y0311399D01*
X0291034D01*
X0291700Y0310732D01*
Y0308066D01*
X0291034Y0307400D01*
X0289701D01*
X0289034Y0308066D01*
X0285035Y0307400D02*
X0287701D01*
X0285035Y0310066D01*
Y0310732D01*
X0285702Y0311399D01*
X0287035D01*
X0287701Y0310732D01*
X0281703Y0307400D02*
Y0311399D01*
X0283703Y0309399D01*
X0281037D01*
X0333534Y0368232D02*
X0334201Y0368899D01*
X0335534D01*
X0336200Y0368232D01*
Y0365566D01*
X0335534Y0364900D01*
X0334201D01*
X0333534Y0365566D01*
X0329536Y0364900D02*
X0332201D01*
X0329536Y0367566D01*
Y0368232D01*
X0330202Y0368899D01*
X0331535D01*
X0332201Y0368232D01*
X0328203D02*
X0327536Y0368899D01*
X0326203D01*
X0325537Y0368232D01*
Y0367566D01*
X0326203Y0366899D01*
X0326870D01*
X0326203D01*
X0325537Y0366233D01*
Y0365566D01*
X0326203Y0364900D01*
X0327536D01*
X0328203Y0365566D01*
X0305368Y0334797D02*
X0304701Y0335464D01*
Y0336796D01*
X0305368Y0337463D01*
X0308033D01*
X0308700Y0336796D01*
Y0335464D01*
X0308033Y0334797D01*
X0308700Y0330799D02*
Y0333464D01*
X0306034Y0330799D01*
X0305368D01*
X0304701Y0331465D01*
Y0332798D01*
X0305368Y0333464D01*
X0308700Y0326800D02*
Y0329466D01*
X0306034Y0326800D01*
X0305368D01*
X0304701Y0327466D01*
Y0328799D01*
X0305368Y0329466D01*
X0333034Y0340795D02*
X0333701Y0341462D01*
X0335034D01*
X0335700Y0340795D01*
Y0338129D01*
X0335034Y0337463D01*
X0333701D01*
X0333034Y0338129D01*
X0329036Y0337463D02*
X0331701D01*
X0329036Y0340129D01*
Y0340795D01*
X0329702Y0341462D01*
X0331035D01*
X0331701Y0340795D01*
X0327703Y0337463D02*
X0326370D01*
X0327036D01*
Y0341462D01*
X0327703Y0340795D01*
X0242801Y0314510D02*
X0242134Y0315176D01*
Y0316509D01*
X0242801Y0317176D01*
X0245467D01*
X0246133Y0316509D01*
Y0315176D01*
X0245467Y0314510D01*
X0246133Y0313177D02*
Y0311844D01*
Y0312510D01*
X0242134D01*
X0242801Y0313177D01*
X0245467Y0309845D02*
X0246133Y0309178D01*
Y0307845D01*
X0245467Y0307179D01*
X0242801D01*
X0242134Y0307845D01*
Y0309178D01*
X0242801Y0309845D01*
X0243467D01*
X0244134Y0309178D01*
Y0307179D01*
X0247368Y0363234D02*
X0246701Y0363901D01*
Y0365234D01*
X0247368Y0365900D01*
X0250034D01*
X0250700Y0365234D01*
Y0363901D01*
X0250034Y0363234D01*
X0250700Y0361901D02*
Y0360568D01*
Y0361235D01*
X0246701D01*
X0247368Y0361901D01*
Y0358569D02*
X0246701Y0357903D01*
Y0356570D01*
X0247368Y0355903D01*
X0248034D01*
X0248701Y0356570D01*
X0249367Y0355903D01*
X0250034D01*
X0250700Y0356570D01*
Y0357903D01*
X0250034Y0358569D01*
X0249367D01*
X0248701Y0357903D01*
X0248034Y0358569D01*
X0247368D01*
X0248701Y0357903D02*
Y0356570D01*
X0241868Y0352234D02*
X0241201Y0352901D01*
Y0354234D01*
X0241868Y0354900D01*
X0244534D01*
X0245200Y0354234D01*
Y0352901D01*
X0244534Y0352234D01*
X0245200Y0350901D02*
Y0349568D01*
Y0350235D01*
X0241201D01*
X0241868Y0350901D01*
X0241201Y0344903D02*
X0241868Y0346236D01*
X0243201Y0347569D01*
X0244534D01*
X0245200Y0346903D01*
Y0345570D01*
X0244534Y0344903D01*
X0243867D01*
X0243201Y0345570D01*
Y0347569D01*
X0323700Y0301773D02*
X0319701D01*
Y0299774D01*
X0320368Y0299108D01*
X0321701D01*
X0322367Y0299774D01*
Y0301773D01*
Y0300440D02*
X0323700Y0299108D01*
Y0297775D02*
Y0296442D01*
Y0297108D01*
X0319701D01*
X0320368Y0297775D01*
X0319701Y0294442D02*
Y0291776D01*
X0320368D01*
X0323034Y0294442D01*
X0323700D01*
X0335700Y0314900D02*
Y0318899D01*
X0333701D01*
X0333034Y0318232D01*
Y0316899D01*
X0333701Y0316233D01*
X0335700D01*
X0334367D02*
X0333034Y0314900D01*
X0331701D02*
X0330368D01*
X0331035D01*
Y0318899D01*
X0331701Y0318232D01*
X0326370Y0314900D02*
Y0318899D01*
X0328369Y0316899D01*
X0325703D01*
X0324200Y0381400D02*
X0320201D01*
Y0379401D01*
X0320868Y0378734D01*
X0322201D01*
X0322867Y0379401D01*
Y0381400D01*
Y0380067D02*
X0324200Y0378734D01*
Y0377401D02*
Y0376068D01*
Y0376735D01*
X0320201D01*
X0320868Y0377401D01*
Y0374069D02*
X0320201Y0373403D01*
Y0372070D01*
X0320868Y0371403D01*
X0321534D01*
X0322201Y0372070D01*
Y0372736D01*
Y0372070D01*
X0322867Y0371403D01*
X0323534D01*
X0324200Y0372070D01*
Y0373403D01*
X0323534Y0374069D01*
X0327200Y0285900D02*
Y0289899D01*
X0325201D01*
X0324534Y0289232D01*
Y0287899D01*
X0325201Y0287233D01*
X0327200D01*
X0325867D02*
X0324534Y0285900D01*
X0323201D02*
X0321868D01*
X0322535D01*
Y0289899D01*
X0323201Y0289232D01*
X0317203Y0285900D02*
X0319869D01*
X0317203Y0288566D01*
Y0289232D01*
X0317870Y0289899D01*
X0319203D01*
X0319869Y0289232D01*
X0337200Y0297900D02*
Y0301899D01*
X0335201D01*
X0334534Y0301232D01*
Y0299899D01*
X0335201Y0299233D01*
X0337200D01*
X0335867D02*
X0334534Y0297900D01*
X0333201D02*
X0331868D01*
X0332535D01*
Y0301899D01*
X0333201Y0301232D01*
X0329869Y0297900D02*
X0328536D01*
X0329203D01*
Y0301899D01*
X0329869Y0301232D01*
X0273200Y0311400D02*
X0269201D01*
Y0309401D01*
X0269868Y0308734D01*
X0271201D01*
X0271867Y0309401D01*
Y0311400D01*
Y0310067D02*
X0273200Y0308734D01*
Y0307401D02*
Y0306068D01*
Y0306735D01*
X0269201D01*
X0269868Y0307401D01*
Y0304069D02*
X0269201Y0303403D01*
Y0302070D01*
X0269868Y0301403D01*
X0272534D01*
X0273200Y0302070D01*
Y0303403D01*
X0272534Y0304069D01*
X0269868D01*
X0262200Y0294400D02*
X0258201D01*
Y0292401D01*
X0258868Y0291734D01*
X0260201D01*
X0260867Y0292401D01*
Y0294400D01*
Y0293067D02*
X0262200Y0291734D01*
X0258868Y0290401D02*
X0258201Y0289735D01*
Y0288402D01*
X0258868Y0287736D01*
X0259534D01*
X0260201Y0288402D01*
X0260867Y0287736D01*
X0261534D01*
X0262200Y0288402D01*
Y0289735D01*
X0261534Y0290401D01*
X0260867D01*
X0260201Y0289735D01*
X0259534Y0290401D01*
X0258868D01*
X0260201Y0289735D02*
Y0288402D01*
X0202806Y0387400D02*
X0198808D01*
Y0385401D01*
X0199474Y0384734D01*
X0200807D01*
X0201473Y0385401D01*
Y0387400D01*
Y0386067D02*
X0202806Y0384734D01*
Y0381402D02*
X0198808D01*
X0200807Y0383401D01*
Y0380735D01*
X0203298Y0372935D02*
X0199300D01*
Y0370936D01*
X0199966Y0370270D01*
X0201299D01*
X0201965Y0370936D01*
Y0372935D01*
Y0371603D02*
X0203298Y0370270D01*
X0199300Y0366271D02*
Y0368937D01*
X0201299D01*
X0200633Y0367604D01*
Y0366937D01*
X0201299Y0366271D01*
X0202632D01*
X0203298Y0366937D01*
Y0368270D01*
X0202632Y0368937D01*
X0180800Y0406500D02*
Y0410499D01*
X0178801D01*
X0178134Y0409832D01*
Y0408499D01*
X0178801Y0407833D01*
X0180800D01*
X0179467D02*
X0178134Y0406500D01*
X0176801Y0409832D02*
X0176135Y0410499D01*
X0174802D01*
X0174135Y0409832D01*
Y0409166D01*
X0174802Y0408499D01*
X0175468D01*
X0174802D01*
X0174135Y0407833D01*
Y0407166D01*
X0174802Y0406500D01*
X0176135D01*
X0176801Y0407166D01*
X0210300Y0406500D02*
Y0410499D01*
X0208301D01*
X0207634Y0409832D01*
Y0408499D01*
X0208301Y0407833D01*
X0210300D01*
X0208967D02*
X0207634Y0406500D01*
X0203636D02*
X0206301D01*
X0203636Y0409166D01*
Y0409832D01*
X0204302Y0410499D01*
X0205635D01*
X0206301Y0409832D01*
X0340868Y0330734D02*
X0340201Y0331401D01*
Y0332734D01*
X0340868Y0333400D01*
X0343534D01*
X0344200Y0332734D01*
Y0331401D01*
X0343534Y0330734D01*
X0344200Y0326735D02*
Y0329401D01*
X0341534Y0326735D01*
X0340868D01*
X0340201Y0327402D01*
Y0328735D01*
X0340868Y0329401D01*
Y0325403D02*
X0340201Y0324736D01*
Y0323403D01*
X0340868Y0322737D01*
X0343534D01*
X0344200Y0323403D01*
Y0324736D01*
X0343534Y0325403D01*
X0340868D01*
X0245534Y0302149D02*
X0246201Y0302815D01*
X0247534D01*
X0248200Y0302149D01*
Y0299483D01*
X0247534Y0298816D01*
X0246201D01*
X0245534Y0299483D01*
X0244201Y0298816D02*
X0242868D01*
X0243535D01*
Y0302815D01*
X0244201Y0302149D01*
X0238203Y0302815D02*
X0240869D01*
Y0300816D01*
X0239536Y0301482D01*
X0238870D01*
X0238203Y0300816D01*
Y0299483D01*
X0238870Y0298816D01*
X0240203D01*
X0240869Y0299483D01*
X0219034Y0248732D02*
X0219701Y0249399D01*
X0221034D01*
X0221700Y0248732D01*
Y0246066D01*
X0221034Y0245400D01*
X0219701D01*
X0219034Y0246066D01*
X0217701Y0245400D02*
X0216368D01*
X0217035D01*
Y0249399D01*
X0217701Y0248732D01*
X0214369Y0245400D02*
X0213036D01*
X0213703D01*
Y0249399D01*
X0214369Y0248732D01*
X0234034D02*
X0234701Y0249399D01*
X0236034D01*
X0236700Y0248732D01*
Y0246066D01*
X0236034Y0245400D01*
X0234701D01*
X0234034Y0246066D01*
X0232701Y0245400D02*
X0231368D01*
X0232035D01*
Y0249399D01*
X0232701Y0248732D01*
X0229369D02*
X0228703Y0249399D01*
X0227370D01*
X0226703Y0248732D01*
Y0246066D01*
X0227370Y0245400D01*
X0228703D01*
X0229369Y0246066D01*
Y0248732D01*
X0206200Y0276400D02*
Y0280399D01*
X0204201D01*
X0203534Y0279732D01*
Y0278399D01*
X0204201Y0277733D01*
X0206200D01*
X0204867D02*
X0203534Y0276400D01*
X0199536D02*
X0202201D01*
X0199536Y0279066D01*
Y0279732D01*
X0200202Y0280399D01*
X0201535D01*
X0202201Y0279732D01*
X0196203Y0276400D02*
Y0280399D01*
X0198203Y0278399D01*
X0195537D01*
X0205200Y0259400D02*
Y0263399D01*
X0203201D01*
X0202534Y0262732D01*
Y0261399D01*
X0203201Y0260733D01*
X0205200D01*
X0203867D02*
X0202534Y0259400D01*
X0198536D02*
X0201201D01*
X0198536Y0262066D01*
Y0262732D01*
X0199202Y0263399D01*
X0200535D01*
X0201201Y0262732D01*
X0194537Y0263399D02*
X0197203D01*
Y0261399D01*
X0195870Y0262066D01*
X0195203D01*
X0194537Y0261399D01*
Y0260066D01*
X0195203Y0259400D01*
X0196536D01*
X0197203Y0260066D01*
X0203298Y0306802D02*
X0199300D01*
Y0304802D01*
X0199966Y0304136D01*
X0201299D01*
X0201965Y0304802D01*
Y0306802D01*
Y0305469D02*
X0203298Y0304136D01*
Y0300137D02*
Y0302803D01*
X0200633Y0300137D01*
X0199966D01*
X0199300Y0300803D01*
Y0302136D01*
X0199966Y0302803D01*
X0199300Y0296138D02*
X0199966Y0297471D01*
X0201299Y0298804D01*
X0202632D01*
X0203298Y0298138D01*
Y0296805D01*
X0202632Y0296138D01*
X0201965D01*
X0201299Y0296805D01*
Y0298804D01*
X0400200Y0348900D02*
Y0352899D01*
X0398867Y0351566D01*
X0397534Y0352899D01*
Y0348900D01*
X0394202Y0352899D02*
X0395535D01*
X0396201Y0352232D01*
Y0349566D01*
X0395535Y0348900D01*
X0394202D01*
X0393535Y0349566D01*
Y0352232D01*
X0394202Y0352899D01*
X0392203D02*
Y0348900D01*
X0390203D01*
X0389537Y0349566D01*
Y0352232D01*
X0390203Y0352899D01*
X0392203D01*
X0385538D02*
X0388204D01*
Y0348900D01*
X0385538D01*
X0388204Y0350899D02*
X0386871D01*
X0381200Y0369899D02*
Y0365900D01*
X0379201D01*
X0378534Y0366566D01*
Y0369232D01*
X0379201Y0369899D01*
X0381200D01*
X0377201D02*
X0375868D01*
X0376535D01*
Y0365900D01*
X0377201D01*
X0375868D01*
X0373869Y0369899D02*
X0371203D01*
X0372536D01*
Y0365900D01*
X0369870Y0369899D02*
Y0365900D01*
Y0367899D01*
X0367204D01*
Y0369899D01*
Y0365900D01*
X0359034Y0387899D02*
X0361700D01*
Y0383900D01*
X0359034D01*
X0361700Y0385899D02*
X0360367D01*
X0357701Y0383900D02*
Y0387899D01*
X0355035Y0383900D01*
Y0387899D01*
X0332201Y0380901D02*
Y0382234D01*
X0332868Y0382900D01*
X0335534D01*
X0336200Y0382234D01*
Y0380901D01*
X0335534Y0380234D01*
X0332868D01*
X0332201Y0380901D01*
Y0376236D02*
Y0378901D01*
X0334201D01*
Y0377568D01*
Y0378901D01*
X0336200D01*
X0332201Y0372237D02*
Y0374903D01*
X0334201D01*
Y0373570D01*
Y0374903D01*
X0336200D01*
X0364701Y0380401D02*
Y0381734D01*
X0365368Y0382400D01*
X0368034D01*
X0368700Y0381734D01*
Y0380401D01*
X0368034Y0379734D01*
X0365368D01*
X0364701Y0380401D01*
X0368700Y0378401D02*
X0364701D01*
X0368700Y0375735D01*
X0364701D01*
X0345701Y0358901D02*
Y0360234D01*
X0346368Y0360900D01*
X0349034D01*
X0349700Y0360234D01*
Y0358901D01*
X0349034Y0358234D01*
X0346368D01*
X0345701Y0358901D01*
Y0354236D02*
Y0356901D01*
X0347701D01*
Y0355568D01*
Y0356901D01*
X0349700D01*
X0345701Y0350237D02*
Y0352903D01*
X0347701D01*
Y0351570D01*
Y0352903D01*
X0349700D01*
X0389868Y0343234D02*
X0389201Y0343901D01*
Y0345234D01*
X0389868Y0345900D01*
X0392534D01*
X0393200Y0345234D01*
Y0343901D01*
X0392534Y0343234D01*
X0389868Y0339235D02*
X0389201Y0339902D01*
Y0341235D01*
X0389868Y0341901D01*
X0392534D01*
X0393200Y0341235D01*
Y0339902D01*
X0392534Y0339235D01*
X0393200Y0337903D02*
X0389201D01*
X0390534Y0336570D01*
X0389201Y0335237D01*
X0393200D01*
X0385700Y0329399D02*
Y0325400D01*
X0383701D01*
X0383034Y0326066D01*
Y0328732D01*
X0383701Y0329399D01*
X0385700D01*
X0379035Y0328732D02*
X0379702Y0329399D01*
X0381035D01*
X0381701Y0328732D01*
Y0326066D01*
X0381035Y0325400D01*
X0379702D01*
X0379035Y0326066D01*
X0377703Y0325400D02*
Y0329399D01*
X0376370Y0328066D01*
X0375037Y0329399D01*
Y0325400D01*
G54D50*
X0362389Y0342550D02*
Y0345699D01*
X0363570D01*
X0271401Y0313172D02*
X0283999D01*
X0271401Y0351754D02*
X0283999D01*
X0205921Y0315120D02*
Y0315680D01*
X0208479Y0315120D02*
Y0315680D01*
X0351389Y0359050D02*
Y0362199D01*
X0352570D01*
X0337889Y0378050D02*
Y0381199D01*
X0339070D01*
X0287920Y0356621D02*
X0288480D01*
X0287920Y0359179D02*
X0288480D01*
X0319420Y0333183D02*
X0319980D01*
X0319420Y0335742D02*
X0319980D01*
X0313914Y0321183D02*
X0314474D01*
X0313914Y0323743D02*
X0314474D01*
X0296979Y0302620D02*
Y0303180D01*
X0294421Y0302620D02*
Y0303180D01*
X0319140Y0348463D02*
X0319700D01*
X0319140Y0351022D02*
X0319700D01*
X0344420Y0346743D02*
X0344980D01*
X0344420Y0344183D02*
X0344980D01*
X0319420Y0358621D02*
X0319980D01*
X0319420Y0361179D02*
X0319980D01*
X0303480Y0302620D02*
Y0303180D01*
X0300921Y0302620D02*
Y0303180D01*
X0298920Y0387120D02*
Y0387680D01*
X0301480Y0387120D02*
Y0387680D01*
X0289421Y0365183D02*
Y0365743D01*
X0291980Y0365183D02*
Y0365743D01*
X0319420Y0313680D02*
X0319980D01*
X0319420Y0311121D02*
X0319980D01*
X0319140Y0346022D02*
X0319700D01*
X0319140Y0343463D02*
X0319700D01*
X0319420Y0330743D02*
X0319980D01*
X0319420Y0328183D02*
X0319980D01*
X0319140Y0356022D02*
X0319700D01*
X0319140Y0353463D02*
X0319700D01*
X0344420Y0339183D02*
X0344980D01*
X0344420Y0341742D02*
X0344980D01*
X0298920Y0309120D02*
X0299480D01*
X0298920Y0311680D02*
X0299480D01*
X0319420Y0366179D02*
X0319980D01*
X0319420Y0363620D02*
X0319980D01*
X0310420Y0332183D02*
Y0332743D01*
X0312980Y0332183D02*
Y0332743D01*
X0319420Y0340742D02*
X0319980D01*
X0319420Y0338183D02*
X0319980D01*
X0249480Y0321620D02*
Y0322180D01*
X0246920Y0321620D02*
Y0322180D01*
X0249979Y0348620D02*
Y0349180D01*
X0247421Y0348620D02*
Y0349180D01*
X0315421Y0303620D02*
Y0304180D01*
X0317980Y0303620D02*
Y0304180D01*
X0313920Y0318679D02*
X0314480D01*
X0313920Y0316121D02*
X0314480D01*
X0315421Y0375120D02*
Y0375680D01*
X0317980Y0375120D02*
Y0375680D01*
X0312420Y0293121D02*
X0312980D01*
X0312420Y0295679D02*
X0312980D01*
X0333420Y0303621D02*
X0333980D01*
X0333420Y0306179D02*
X0333980D01*
X0263920Y0305120D02*
Y0305680D01*
X0266479Y0305120D02*
Y0305680D01*
X0208479Y0381620D02*
Y0382180D01*
X0205921Y0381620D02*
Y0382180D01*
Y0369120D02*
Y0369680D01*
X0208479Y0369120D02*
Y0369680D01*
X0180480Y0398620D02*
Y0399180D01*
X0177920Y0398620D02*
Y0399180D01*
X0209980Y0398620D02*
Y0399180D01*
X0207420Y0398620D02*
Y0399180D01*
X0345920Y0327620D02*
Y0328180D01*
X0348480Y0327620D02*
Y0328180D01*
X0256420Y0310179D02*
X0256980D01*
X0256420Y0307621D02*
X0256980D01*
X0194420Y0271620D02*
X0194980D01*
X0194420Y0274180D02*
X0194980D01*
X0194420Y0265620D02*
X0194980D01*
X0194420Y0268179D02*
X0194980D01*
X0208479Y0301620D02*
Y0302180D01*
X0205921Y0301620D02*
Y0302180D01*
G54D93*
X0289708Y0351361D02*
G03*
X0289708Y0351361I-0000492J0000000D01*
G01*
G54D94*
X0290700Y0378800D02*
D03*
X0236700Y0350000D02*
D03*
Y0320800D02*
D03*
M02*
