M48
;Layer_Color=9474304
;FILE_FORMAT=2:5
INCH
;TYPE=PLATED
T1F00S00C0.00787
T2F00S00C0.01000
T3F00S00C0.01400
T4F00S00C0.02400
T5F00S00C0.06300
T6F00S00C0.12598
T7F00S00C0.27000
%
T01
X0273763Y0324589
X0277700
X0281637
Y0328526
Y0332463
Y0336400
Y0340337
X0277700
X0273763
Y0336400
X0277700
Y0332463
Y0328526
X0273763
Y0332463
T02
X0315200Y0233400
X0350200
X0355700
X0361200
X0383700Y0231400
Y0226400
X0388700
X0393200
X0393700Y0231400
X0388700
Y0236400
X0383700
X0393700
Y0221400
X0388700
Y0216400
X0383700
Y0221400
X0393700Y0216400
Y0292400
X0388700
X0383700
Y0297400
X0388700
Y0302400
X0393200
X0393700Y0307400
X0388700
Y0312400
X0383700
Y0307400
Y0302400
X0393700Y0297400
Y0312400
X0347700Y0287400
X0338200
X0332700
X0327200
X0322200
X0303200
X0310200Y0308900
X0265200Y0312187
Y0298400
X0267200Y0280400
X0262200
X0257200
X0252200
X0247200
X0242200
X0237200
X0232200
X0227200
X0222200
Y0275400
X0217200
X0227200
X0232200
X0237200
X0242200
X0247200
X0252200
X0257200
X0262200
X0267200
X0265200Y0252400
X0261200
X0257200
Y0247400
X0261200
X0265200
Y0242400
X0260200
Y0237400
Y0232400
X0265200
Y0237400
X0274700Y0246400
X0281251
X0291200Y0243900
Y0238900
X0296200
X0296700Y0243900
Y0248900
Y0254400
Y0259400
X0291200
X0291164Y0254259
X0291200Y0248900
Y0233400
X0296200
X0304700
X0310200
X0252200Y0247400
X0247200
X0242200
X0237200
X0232200
X0227200
X0222200
X0217200
X0212200
Y0252400
X0217200
X0222200
X0227200
X0232200
X0237200
X0242200
X0247200
X0252200
X0239200Y0283900
X0234700
X0230200
Y0288900
X0234700
X0239200
Y0293900
X0234700
X0230200
X0234700Y0298900
X0220700Y0300400
Y0303900
X0216700
X0212700
Y0299400
Y0294900
X0216700Y0297900
X0194600Y0292900
X0189600
X0184600
Y0287400
X0189600
X0194600
Y0281900
X0189600
X0184600
X0186200Y0259800
Y0254800
Y0249800
X0180700
Y0254800
Y0259800
X0191700
Y0254800
Y0249800
X0162100
Y0254800
Y0259800
X0156600
Y0254800
Y0249800
X0184600Y0308900
X0189600
X0194600
X0245001Y0305203
X0149200Y0272900
X0138700Y0276400
X0133700
X0128700
Y0281400
X0123700
X0118700
Y0276400
X0113700
Y0281400
X0123700Y0275900
X0133700Y0281400
X0138700
X0151100Y0259800
Y0254800
Y0249800
X0140700Y0387400
Y0392400
X0135700
X0130700
X0125700
X0120700
X0115700
Y0387400
X0120700
X0125700
X0130700
X0135700
X0170700Y0390400
X0183200Y0386900
X0188200
X0193200
Y0381400
X0188200
X0183200
Y0375900
X0188200
X0193200
Y0359900
X0188200
X0183200
Y0354400
X0188200
X0193200
Y0348900
X0188200
X0183200
X0211200Y0348400
Y0353400
Y0358900
X0216700
X0222200
Y0353400
Y0348400
Y0343400
Y0338400
X0224200Y0333400
X0228200Y0333516
X0229700Y0338400
Y0343400
Y0348400
Y0353400
X0233200Y0360900
X0237200Y0357400
X0241200Y0353900
X0244700Y0372400
Y0377400
Y0381900
Y0386400
X0249700
X0254700
X0259700
X0264700
X0269700
Y0391400
X0264700
X0259700
X0254700
X0249700
X0244700
X0239700
Y0386400
Y0381900
X0235200
X0234700Y0386400
X0229700
Y0391400
X0224700
X0234700
X0239700Y0377400
X0221200
Y0372400
X0216200Y0376900
Y0381900
X0211200Y0379400
Y0384900
Y0369400
Y0364400
X0216700
X0229700Y0364900
Y0328400
Y0323900
Y0318900
X0222200
Y0313900
Y0323900
Y0328900
X0211200
Y0333900
Y0338400
Y0323900
Y0318900
Y0313900
X0194600Y0314400
X0189600
X0184600
Y0319900
X0189600
X0194600
X0251200Y0314400
X0253700Y0331400
X0252200Y0337900
X0258700Y0338900
X0295700Y0341463
X0294700Y0349463
X0309980Y0349743
X0312200Y0354743
X0311700Y0359900
X0308200Y0374900
X0290700Y0408900
X0269700Y0415900
Y0420400
X0264700
Y0415900
X0259700
Y0420400
X0254700
Y0415900
X0249700
Y0420400
X0244700
Y0415900
X0239700
Y0420400
X0234700
Y0415900
X0229700
Y0420400
X0224700
Y0415900
X0219700
Y0420400
X0214700
Y0415900
X0199200Y0414900
Y0409900
X0193700
Y0414900
Y0419900
X0188200
Y0414900
Y0409900
X0170200Y0410400
Y0415400
Y0420400
X0164700
Y0415400
Y0410400
X0159200
Y0415400
Y0420400
X0199200Y0419900
X0328200Y0432400
X0333200
X0337700
X0383700Y0436400
Y0441400
X0388700
Y0436400
X0393700
Y0441400
X0393200Y0446400
X0388700
Y0451400
Y0456400
X0383700
Y0451400
Y0446400
X0393700Y0451400
Y0456400
Y0381400
X0388700
X0383700
Y0376400
X0388700
Y0371400
X0393200
X0393700Y0376400
Y0366400
X0388700
X0383700
Y0361400
X0388700
X0393700
X0383700Y0371400
X0381200Y0337400
X0354200Y0334900
X0347200Y0335900
X0358700Y0351400
X0349700Y0364900
X0337889Y0377400
X0333200
X0328700
X0320700Y0317400
T03
X0169700Y0277900
X0178700Y0272900
X0202708
X0207700Y0294900
X0226200Y0308400
X0244444Y0319144
X0256700Y0324900
X0258700Y0330900
X0255200Y0341900
X0258700Y0347400
X0248700Y0355400
X0226200Y0361900
X0207755
X0207700Y0388900
X0208700Y0396095
Y0401705
X0179200Y0401656
Y0396144
X0207700Y0321900
T04
X0323700Y0304900
X0343200
X0400200Y0252900
T05
X0386700Y0245400
Y0280400
X0356200Y0304900
X0277700Y0366900
X0360700Y0323400
X0386200Y0389900
Y0424900
T06
X0429700Y0173400
X0089200
X0429700Y0498400
X0089200
T07
X0419200Y0227400
Y0302400
Y0371400
Y0446400
M30
