G04 #@! TF.FileFunction,Soldermask,Bot*
%FSLAX46Y46*%
G04 Gerber Fmt 4.6, Leading zero omitted, Abs format (unit mm)*
G04 Created by KiCad (PCBNEW 4.0.2+e4-6225~38~ubuntu16.10.1-stable) date Mi 04 Jan 2017 00:52:02 CET*
%MOMM*%
G01*
G04 APERTURE LIST*
%ADD10C,0.150000*%
%ADD11R,1.100000X1.900000*%
%ADD12C,6.000000*%
%ADD13R,1.250000X1.000000*%
%ADD14C,2.000000*%
%ADD15R,0.800100X0.800100*%
%ADD16R,1.270000X3.270000*%
%ADD17R,1.000000X1.250000*%
%ADD18C,0.050000*%
%ADD19R,1.200000X1.600000*%
%ADD20R,1.600000X2.000000*%
%ADD21R,1.500000X1.250000*%
%ADD22R,2.301240X0.500380*%
%ADD23R,2.499360X1.998980*%
%ADD24C,0.899160*%
%ADD25R,1.300000X0.250000*%
%ADD26R,0.250000X1.300000*%
%ADD27R,1.400000X0.800000*%
%ADD28R,1.050000X1.050000*%
%ADD29C,1.050000*%
%ADD30R,1.600000X1.000000*%
%ADD31R,1.000000X1.600000*%
%ADD32R,2.500000X1.000000*%
%ADD33R,0.890000X0.420000*%
%ADD34R,0.825000X0.712500*%
%ADD35R,1.500000X0.600000*%
%ADD36R,1.300000X0.420000*%
%ADD37R,3.500000X1.600000*%
%ADD38R,1.300000X1.000000*%
%ADD39R,1.000000X1.300000*%
%ADD40C,3.500000*%
%ADD41R,0.750000X0.800000*%
%ADD42R,0.900000X0.900000*%
%ADD43C,1.300000*%
%ADD44C,4.000000*%
%ADD45R,1.200000X0.250000*%
%ADD46R,0.250000X1.200000*%
%ADD47R,1.575000X1.287500*%
%ADD48R,0.405000X1.300000*%
%ADD49R,2.235000X1.725000*%
%ADD50R,0.420000X1.300000*%
%ADD51R,1.450000X0.450000*%
%ADD52C,1.500000*%
%ADD53R,0.900000X0.800000*%
%ADD54R,0.650000X1.060000*%
%ADD55R,1.700000X1.700000*%
%ADD56R,0.600000X0.700000*%
%ADD57O,1.700000X1.700000*%
%ADD58R,0.800000X0.300000*%
%ADD59R,0.300000X0.800000*%
%ADD60R,0.600000X0.800000*%
%ADD61R,0.800000X0.900000*%
%ADD62C,0.889000*%
%ADD63C,0.600000*%
G04 APERTURE END LIST*
D10*
D11*
X58770000Y-37383600D03*
X56230000Y-33116400D03*
X58770000Y-33116400D03*
X56230000Y-37383600D03*
D12*
X85000000Y-94000000D03*
D13*
X61800000Y-27800000D03*
X61800000Y-25800000D03*
D12*
X6000000Y-6000000D03*
X85000000Y-6000000D03*
X6000000Y-94000000D03*
D14*
X84270000Y-60190000D03*
X81730000Y-60190000D03*
X79190000Y-60190000D03*
X79190000Y-62730000D03*
X79190000Y-65270000D03*
X84270000Y-67810000D03*
X81730000Y-67810000D03*
X79190000Y-67810000D03*
X86810000Y-67810000D03*
X86810000Y-60190000D03*
X86810000Y-62730000D03*
X84270000Y-62730000D03*
X81730000Y-62730000D03*
X86810000Y-65270000D03*
X84270000Y-65270000D03*
X81730000Y-65270000D03*
X84270000Y-11190000D03*
X81730000Y-11190000D03*
X79190000Y-11190000D03*
X79190000Y-13730000D03*
X79190000Y-16270000D03*
X84270000Y-18810000D03*
X81730000Y-18810000D03*
X79190000Y-18810000D03*
X86810000Y-18810000D03*
X86810000Y-11190000D03*
X86810000Y-13730000D03*
X84270000Y-13730000D03*
X81730000Y-13730000D03*
X86810000Y-16270000D03*
X84270000Y-16270000D03*
X81730000Y-16270000D03*
X9270000Y-60190000D03*
X6730000Y-60190000D03*
X4190000Y-60190000D03*
X4190000Y-62730000D03*
X4190000Y-65270000D03*
X9270000Y-67810000D03*
X6730000Y-67810000D03*
X4190000Y-67810000D03*
X11810000Y-67810000D03*
X11810000Y-60190000D03*
X11810000Y-62730000D03*
X9270000Y-62730000D03*
X6730000Y-62730000D03*
X11810000Y-65270000D03*
X9270000Y-65270000D03*
X6730000Y-65270000D03*
X6730000Y-18810000D03*
X9270000Y-18810000D03*
X11810000Y-18810000D03*
X11810000Y-16270000D03*
X11810000Y-13730000D03*
X6730000Y-11190000D03*
X9270000Y-11190000D03*
X11810000Y-11190000D03*
X4190000Y-11190000D03*
X4190000Y-18810000D03*
X4190000Y-16270000D03*
X6730000Y-16270000D03*
X9270000Y-16270000D03*
X4190000Y-13730000D03*
X6730000Y-13730000D03*
X9270000Y-13730000D03*
D15*
X60500760Y-22300000D03*
X60500760Y-24200000D03*
X58501780Y-23250000D03*
D16*
X55260000Y-12600000D03*
X57800000Y-12600000D03*
X60340000Y-12600000D03*
D17*
X55500000Y-68900000D03*
X53500000Y-68900000D03*
D13*
X50300000Y-43200000D03*
X50300000Y-41200000D03*
X74000000Y-24000000D03*
X74000000Y-26000000D03*
D17*
X21800000Y-50600000D03*
X19800000Y-50600000D03*
X21800000Y-55100000D03*
X19800000Y-55100000D03*
D13*
X35900000Y-43200000D03*
X35900000Y-41200000D03*
X34800000Y-53900000D03*
X34800000Y-51900000D03*
D18*
X60650000Y-33250000D03*
X59850000Y-33250000D03*
D17*
X109300000Y-50750000D03*
X107300000Y-50750000D03*
D19*
X75900000Y-51450000D03*
X78100000Y-51450000D03*
D20*
X88600000Y-39200000D03*
X85000000Y-39200000D03*
D21*
X76250000Y-27500000D03*
X78750000Y-27500000D03*
D22*
X82550680Y-29399800D03*
X82550680Y-30199900D03*
X82550680Y-31000000D03*
X82550680Y-31800100D03*
X82550680Y-32600200D03*
D23*
X82649740Y-26549920D03*
X88148840Y-26549920D03*
X82649740Y-35450080D03*
X88148840Y-35450080D03*
D24*
X85149100Y-28800360D03*
X85149100Y-33199640D03*
D25*
X61650000Y-36750000D03*
X61650000Y-36250000D03*
X61650000Y-35750000D03*
X61650000Y-35250000D03*
X61650000Y-34750000D03*
X61650000Y-34250000D03*
X61650000Y-33750000D03*
X61650000Y-33250000D03*
X61650000Y-32750000D03*
X61650000Y-32250000D03*
X61650000Y-31750000D03*
X61650000Y-31250000D03*
D26*
X63250000Y-29650000D03*
X63750000Y-29650000D03*
X64250000Y-29650000D03*
X64750000Y-29650000D03*
X65250000Y-29650000D03*
X65750000Y-29650000D03*
X66250000Y-29650000D03*
X66750000Y-29650000D03*
X67250000Y-29650000D03*
X67750000Y-29650000D03*
X68250000Y-29650000D03*
X68750000Y-29650000D03*
D25*
X70350000Y-31250000D03*
X70350000Y-31750000D03*
X70350000Y-32250000D03*
X70350000Y-32750000D03*
X70350000Y-33250000D03*
X70350000Y-33750000D03*
X70350000Y-34250000D03*
X70350000Y-34750000D03*
X70350000Y-35250000D03*
X70350000Y-35750000D03*
X70350000Y-36250000D03*
X70350000Y-36750000D03*
D26*
X68750000Y-38350000D03*
X68250000Y-38350000D03*
X67750000Y-38350000D03*
X67250000Y-38350000D03*
X66750000Y-38350000D03*
X66250000Y-38350000D03*
X65750000Y-38350000D03*
X65250000Y-38350000D03*
X64750000Y-38350000D03*
X64250000Y-38350000D03*
X63750000Y-38350000D03*
X63250000Y-38350000D03*
D27*
X76050000Y-31200000D03*
X79050000Y-30000000D03*
X76050000Y-30000000D03*
X79050000Y-31200000D03*
X21800000Y-52300000D03*
X18800000Y-53500000D03*
X21800000Y-53500000D03*
X18800000Y-52300000D03*
D28*
X76300000Y-42700000D03*
D29*
X75030000Y-42700000D03*
X73760000Y-42700000D03*
X72490000Y-42700000D03*
X71220000Y-42700000D03*
X75030000Y-41430000D03*
X73760000Y-41430000D03*
X72490000Y-41430000D03*
X71220000Y-41430000D03*
X76300000Y-41430000D03*
D30*
X76000000Y-49100000D03*
X76000000Y-46100000D03*
D31*
X78300000Y-46500000D03*
X81300000Y-46500000D03*
D17*
X79100000Y-48600000D03*
X81100000Y-48600000D03*
D13*
X85800000Y-42400000D03*
X85800000Y-44400000D03*
D32*
X88400000Y-46300000D03*
X88400000Y-43300000D03*
D33*
X79306344Y-44645279D03*
X79306344Y-43995279D03*
X79306344Y-43345279D03*
X79306344Y-42695279D03*
X79306344Y-42045279D03*
X79306344Y-41395279D03*
X83516344Y-41395279D03*
X83516344Y-42045279D03*
X83516344Y-42695279D03*
X83516344Y-43345279D03*
X83516344Y-43995279D03*
X83516344Y-44645279D03*
D34*
X81823844Y-41951529D03*
X81823844Y-42664029D03*
X81823844Y-43376529D03*
X81823844Y-44089029D03*
X80998844Y-41951529D03*
X80998844Y-42664029D03*
X80998844Y-43376529D03*
X80998844Y-44089029D03*
D31*
X23700000Y-34400000D03*
X26700000Y-34400000D03*
D17*
X21400000Y-43700000D03*
X23400000Y-43700000D03*
D13*
X27900000Y-46450000D03*
X27900000Y-48450000D03*
D32*
X30800000Y-44500000D03*
X30800000Y-47500000D03*
D13*
X34000000Y-46900000D03*
X34000000Y-44900000D03*
D33*
X21395000Y-48725000D03*
X21395000Y-48075000D03*
X21395000Y-47425000D03*
X21395000Y-46775000D03*
X21395000Y-46125000D03*
X21395000Y-45475000D03*
X25605000Y-45475000D03*
X25605000Y-46125000D03*
X25605000Y-46775000D03*
X25605000Y-47425000D03*
X25605000Y-48075000D03*
X25605000Y-48725000D03*
D34*
X23912500Y-46031250D03*
X23912500Y-46743750D03*
X23912500Y-47456250D03*
X23912500Y-48168750D03*
X23087500Y-46031250D03*
X23087500Y-46743750D03*
X23087500Y-47456250D03*
X23087500Y-48168750D03*
D13*
X73100000Y-38200000D03*
X73100000Y-36200000D03*
D17*
X69900000Y-27000000D03*
X67900000Y-27000000D03*
X59500000Y-30500000D03*
X57500000Y-30500000D03*
D13*
X61500000Y-38600000D03*
X61500000Y-40600000D03*
D17*
X69900000Y-25100000D03*
X67900000Y-25100000D03*
D35*
X47550000Y-41655000D03*
X47550000Y-42925000D03*
X47550000Y-44195000D03*
X47550000Y-45465000D03*
X47550000Y-46735000D03*
X47550000Y-48005000D03*
X47550000Y-49275000D03*
X47550000Y-50545000D03*
X38250000Y-50545000D03*
X38250000Y-49275000D03*
X38250000Y-48005000D03*
X38250000Y-46735000D03*
X38250000Y-45465000D03*
X38250000Y-44195000D03*
X38250000Y-42925000D03*
X38250000Y-41655000D03*
D36*
X31675000Y-51925000D03*
X31675000Y-52575000D03*
X31675000Y-53225000D03*
X31675000Y-53875000D03*
X29325000Y-53875000D03*
X29325000Y-53225000D03*
X29325000Y-52575000D03*
X29325000Y-51925000D03*
D37*
X20100000Y-39300000D03*
X25500000Y-39300000D03*
X82750000Y-51250000D03*
X88150000Y-51250000D03*
D38*
X11000000Y-77850000D03*
X11000000Y-75750000D03*
X21400000Y-65450000D03*
X21400000Y-63350000D03*
D39*
X44250000Y-27200000D03*
X42150000Y-27200000D03*
X54800000Y-60000000D03*
X52700000Y-60000000D03*
X57850000Y-17700000D03*
X55750000Y-17700000D03*
D38*
X39200000Y-53150000D03*
X39200000Y-55250000D03*
X72000000Y-23950000D03*
X72000000Y-26050000D03*
X78800000Y-35250000D03*
X78800000Y-33150000D03*
X76800000Y-33150000D03*
X76800000Y-35250000D03*
X68100000Y-44350000D03*
X68100000Y-42250000D03*
X63600000Y-22650000D03*
X63600000Y-24750000D03*
X65700000Y-22650000D03*
X65700000Y-24750000D03*
X24100000Y-58650000D03*
X24100000Y-56550000D03*
D39*
X44250000Y-29200000D03*
X42150000Y-29200000D03*
D38*
X47800000Y-24850000D03*
X47800000Y-22750000D03*
D40*
X56950000Y-90000000D03*
X36050000Y-90000000D03*
D41*
X54500000Y-35000000D03*
X54500000Y-33500000D03*
X54500000Y-36500000D03*
X54500000Y-38000000D03*
D42*
X49650000Y-23800000D03*
X51550000Y-23800000D03*
X48100000Y-63750000D03*
X48100000Y-65650000D03*
X49650000Y-65700000D03*
X51550000Y-65700000D03*
X57700000Y-72450000D03*
X57700000Y-74350000D03*
D43*
X8040000Y-43325000D03*
X8040000Y-49415000D03*
X8040000Y-45355000D03*
X8040000Y-47385000D03*
X9820000Y-44345000D03*
X9820000Y-46375000D03*
X9820000Y-48405000D03*
X9820000Y-50435000D03*
D44*
X5500000Y-24775000D03*
D14*
X8930000Y-55000000D03*
D43*
X9820000Y-34685000D03*
X9820000Y-32655000D03*
X9820000Y-30625000D03*
X9820000Y-28595000D03*
X8040000Y-31635000D03*
X8040000Y-29605000D03*
X8040000Y-33665000D03*
X8040000Y-27575000D03*
D44*
X5500000Y-53225000D03*
D14*
X8930000Y-23000000D03*
D42*
X37850000Y-72200000D03*
X39750000Y-72200000D03*
D38*
X36400000Y-70250000D03*
X36400000Y-68150000D03*
D45*
X44050000Y-75050000D03*
X44050000Y-74550000D03*
X44050000Y-74050000D03*
X44050000Y-73550000D03*
X44050000Y-73050000D03*
X44050000Y-72550000D03*
X44050000Y-72050000D03*
X44050000Y-71550000D03*
X44050000Y-71050000D03*
X44050000Y-70550000D03*
X44050000Y-70050000D03*
X44050000Y-69550000D03*
D46*
X45200000Y-68650000D03*
X45700000Y-68650000D03*
X46200000Y-68650000D03*
X46700000Y-68650000D03*
X47200000Y-68650000D03*
X47700000Y-68650000D03*
X48200000Y-68650000D03*
D45*
X49350000Y-69550000D03*
X49350000Y-70050000D03*
X49350000Y-70550000D03*
X49350000Y-71050000D03*
X49350000Y-71550000D03*
X49350000Y-72050000D03*
X49350000Y-72550000D03*
X49350000Y-73050000D03*
X49350000Y-73550000D03*
X49350000Y-74050000D03*
X49350000Y-74550000D03*
X49350000Y-75050000D03*
D46*
X48200000Y-75950000D03*
X47700000Y-75950000D03*
X47200000Y-75950000D03*
X46700000Y-75950000D03*
X46200000Y-75950000D03*
X45700000Y-75950000D03*
X45200000Y-75950000D03*
D47*
X47487500Y-70368750D03*
X47487500Y-71656250D03*
X47487500Y-72943750D03*
X47487500Y-74231250D03*
X45912500Y-70368750D03*
X45912500Y-71656250D03*
X45912500Y-72943750D03*
X45912500Y-74231250D03*
D48*
X19525000Y-24350000D03*
X20175000Y-24350000D03*
X20825000Y-24350000D03*
X21475000Y-24350000D03*
X21475000Y-27835000D03*
X20825000Y-27835000D03*
X20175000Y-27835000D03*
X19525000Y-27835000D03*
D49*
X20500000Y-25700000D03*
D13*
X44500000Y-65700000D03*
X44500000Y-63700000D03*
D17*
X29500000Y-22750000D03*
X27500000Y-22750000D03*
D38*
X39500000Y-68150000D03*
X39500000Y-66050000D03*
X31500000Y-35750000D03*
X31500000Y-33650000D03*
D39*
X70050000Y-13500000D03*
X67950000Y-13500000D03*
X25800000Y-22750000D03*
X23700000Y-22750000D03*
X31300000Y-25250000D03*
X29200000Y-25250000D03*
X25300000Y-30500000D03*
X23200000Y-30500000D03*
D38*
X30600000Y-29350000D03*
X30600000Y-31450000D03*
D39*
X31300000Y-27500000D03*
X29200000Y-27500000D03*
D48*
X21475000Y-34000000D03*
X20825000Y-34000000D03*
X20175000Y-34000000D03*
X19525000Y-34000000D03*
X19525000Y-30515000D03*
X20175000Y-30515000D03*
X20825000Y-30515000D03*
X21475000Y-30515000D03*
D49*
X20500000Y-32650000D03*
D50*
X25325000Y-25325000D03*
X25975000Y-25325000D03*
X26625000Y-25325000D03*
X27275000Y-25325000D03*
X27275000Y-27675000D03*
X26625000Y-27675000D03*
X25975000Y-27675000D03*
X25325000Y-27675000D03*
D17*
X70000000Y-71800000D03*
X68000000Y-71800000D03*
D38*
X68200000Y-76250000D03*
X68200000Y-74150000D03*
D51*
X76400000Y-74225000D03*
X76400000Y-74875000D03*
X76400000Y-75525000D03*
X76400000Y-76175000D03*
X72000000Y-76175000D03*
X72000000Y-75525000D03*
X72000000Y-74875000D03*
X72000000Y-74225000D03*
D52*
X76888154Y-84361846D03*
X66111846Y-95138154D03*
X66111846Y-84361846D03*
D10*
G36*
X72702082Y-89750000D02*
X71500000Y-90952082D01*
X70297918Y-89750000D01*
X71500000Y-88547918D01*
X72702082Y-89750000D01*
X72702082Y-89750000D01*
G37*
D52*
X76888154Y-95138154D03*
D13*
X59550000Y-48025000D03*
X59550000Y-50025000D03*
X28600000Y-31400000D03*
X28600000Y-29400000D03*
D17*
X69125000Y-53275000D03*
X67125000Y-53275000D03*
X62900000Y-46050000D03*
X60900000Y-46050000D03*
D13*
X57700000Y-81200000D03*
X57700000Y-83200000D03*
D53*
X26600000Y-51950000D03*
X26600000Y-53850000D03*
X24600000Y-52900000D03*
X60800000Y-83850000D03*
X60800000Y-85750000D03*
X58800000Y-84800000D03*
D38*
X57375000Y-51475000D03*
X57375000Y-49375000D03*
D39*
X57150000Y-46075000D03*
X59250000Y-46075000D03*
X67025000Y-51400000D03*
X69125000Y-51400000D03*
X66975000Y-46500000D03*
X64875000Y-46500000D03*
X69250000Y-48900000D03*
X67150000Y-48900000D03*
D36*
X62175000Y-50675000D03*
X62175000Y-50025000D03*
X62175000Y-49375000D03*
X62175000Y-48725000D03*
X64525000Y-48725000D03*
X64525000Y-49375000D03*
X64525000Y-50025000D03*
X64525000Y-50675000D03*
D38*
X66000000Y-70950000D03*
X66000000Y-73050000D03*
D54*
X65450000Y-68600000D03*
X64500000Y-68600000D03*
X63550000Y-68600000D03*
X63550000Y-66400000D03*
X65450000Y-66400000D03*
D13*
X46400000Y-65700000D03*
X46400000Y-63700000D03*
D17*
X55500000Y-71300000D03*
X53500000Y-71300000D03*
D13*
X55500000Y-78200000D03*
X55500000Y-76200000D03*
X53600000Y-78100000D03*
X53600000Y-76100000D03*
D31*
X45500000Y-79200000D03*
X42500000Y-79200000D03*
D42*
X55450000Y-74600000D03*
X53550000Y-74600000D03*
D52*
X16000000Y-75880000D03*
X16000000Y-91120000D03*
X8380000Y-83500000D03*
D55*
X16000000Y-83500000D03*
D52*
X23620000Y-83500000D03*
D31*
X49900000Y-79200000D03*
X46900000Y-79200000D03*
D17*
X51250000Y-51050000D03*
X53250000Y-51050000D03*
D31*
X51600000Y-53600000D03*
X54600000Y-53600000D03*
D36*
X30425000Y-64475000D03*
X30425000Y-63825000D03*
X30425000Y-63175000D03*
X30425000Y-62525000D03*
X32775000Y-62525000D03*
X32775000Y-63175000D03*
X32775000Y-63825000D03*
X32775000Y-64475000D03*
D51*
X48600000Y-57425000D03*
X48600000Y-58075000D03*
X48600000Y-58725000D03*
X48600000Y-59375000D03*
X44200000Y-59375000D03*
X44200000Y-58725000D03*
X44200000Y-58075000D03*
X44200000Y-57425000D03*
D17*
X3800000Y-73600000D03*
X5800000Y-73600000D03*
D38*
X20000000Y-94450000D03*
X20000000Y-96550000D03*
D17*
X26000000Y-97000000D03*
X24000000Y-97000000D03*
X60000000Y-98000000D03*
X58000000Y-98000000D03*
X72200000Y-61400000D03*
X70200000Y-61400000D03*
X49000000Y-13100000D03*
X51000000Y-13100000D03*
X30000000Y-71000000D03*
X28000000Y-71000000D03*
D13*
X41100000Y-57400000D03*
X41100000Y-59400000D03*
D39*
X31750000Y-59500000D03*
X33850000Y-59500000D03*
D38*
X32000000Y-67450000D03*
X32000000Y-69550000D03*
D10*
G36*
X65683883Y-74609010D02*
X66390990Y-75316117D01*
X65683883Y-76023224D01*
X64976776Y-75316117D01*
X65683883Y-74609010D01*
X65683883Y-74609010D01*
G37*
G36*
X63916117Y-76376776D02*
X64623224Y-77083883D01*
X63916117Y-77790990D01*
X63209010Y-77083883D01*
X63916117Y-76376776D01*
X63916117Y-76376776D01*
G37*
D56*
X37700000Y-61700000D03*
X39100000Y-61700000D03*
D55*
X19500000Y-71000000D03*
D57*
X22040000Y-71000000D03*
D55*
X37000000Y-26200000D03*
D57*
X37000000Y-28740000D03*
D58*
X25850000Y-94600000D03*
X24150000Y-95100000D03*
X24150000Y-94100000D03*
X25850000Y-95100000D03*
X24150000Y-94600000D03*
X25850000Y-94100000D03*
X59850000Y-95000000D03*
X58150000Y-95500000D03*
X58150000Y-94500000D03*
X59850000Y-95500000D03*
X58150000Y-95000000D03*
X59850000Y-94500000D03*
X72050000Y-59400000D03*
X70350000Y-59900000D03*
X70350000Y-58900000D03*
X72050000Y-59900000D03*
X70350000Y-59400000D03*
X72050000Y-58900000D03*
X49150000Y-15700000D03*
X50850000Y-15200000D03*
X50850000Y-16200000D03*
X49150000Y-15200000D03*
X50850000Y-15700000D03*
X49150000Y-16200000D03*
X3950000Y-76600000D03*
X5650000Y-76100000D03*
X5650000Y-77100000D03*
X3950000Y-76100000D03*
X5650000Y-76600000D03*
X3950000Y-77100000D03*
D13*
X84600000Y-80000000D03*
X84600000Y-82000000D03*
D59*
X86800000Y-79550000D03*
X87300000Y-81250000D03*
X86300000Y-81250000D03*
X87300000Y-79550000D03*
X86800000Y-81250000D03*
X86300000Y-79550000D03*
D38*
X23800000Y-64750000D03*
X23800000Y-62650000D03*
D30*
X2500000Y-82000000D03*
X2500000Y-85000000D03*
D17*
X59500000Y-28250000D03*
X57500000Y-28250000D03*
X59600000Y-42600000D03*
X57600000Y-42600000D03*
X63100000Y-42100000D03*
X65100000Y-42100000D03*
D60*
X62350000Y-73550000D03*
X63650000Y-73550000D03*
X63000000Y-71950000D03*
D61*
X49850000Y-25800000D03*
X51750000Y-25800000D03*
X50800000Y-27800000D03*
D62*
X30000000Y-85500000D03*
X29000000Y-78000000D03*
X20500000Y-82000000D03*
D63*
X41900000Y-73600000D03*
D62*
X67400000Y-77600000D03*
X49700000Y-80900000D03*
X43500000Y-80800000D03*
X65000000Y-98000000D03*
X68000000Y-96500000D03*
X69500000Y-96500000D03*
X70500000Y-97500000D03*
X72500000Y-97500000D03*
X73500000Y-96500000D03*
X75000000Y-96500000D03*
X89000000Y-98000000D03*
X79500000Y-96000000D03*
X79500000Y-94000000D03*
X80500000Y-91000000D03*
X80500000Y-89500000D03*
X80500000Y-88000000D03*
X80500000Y-86500000D03*
X89000000Y-89500000D03*
X89000000Y-84000000D03*
X79000000Y-85500000D03*
X14000000Y-95000000D03*
X12500000Y-95000000D03*
X10500000Y-95000000D03*
X10500000Y-92500000D03*
X12500000Y-92500000D03*
X14000000Y-92500000D03*
X2000000Y-88000000D03*
X2000000Y-98000000D03*
X16000000Y-98000000D03*
X25500000Y-84000000D03*
X22500000Y-81500000D03*
X25500000Y-81500000D03*
X21000000Y-76500000D03*
X19500000Y-75000000D03*
X17500000Y-74500000D03*
X15500000Y-73000000D03*
X34500000Y-72500000D03*
X59400000Y-77800000D03*
X59800000Y-79300000D03*
X58400000Y-79300000D03*
X57100000Y-79300000D03*
X9500000Y-90500000D03*
X8000000Y-89000000D03*
X3500000Y-88000000D03*
X7000000Y-87000000D03*
D63*
X46500000Y-77600000D03*
D62*
X32500000Y-72500000D03*
X28500000Y-74000000D03*
X30500000Y-74000000D03*
X30500000Y-72500000D03*
X55900000Y-21700000D03*
X57450000Y-48050000D03*
X13500000Y-79500000D03*
X40400000Y-29400000D03*
X47800000Y-26200000D03*
X53750000Y-26500000D03*
X49400000Y-30400000D03*
X42200000Y-31200000D03*
X48600000Y-36800000D03*
X41000000Y-35500000D03*
D63*
X43250000Y-18250000D03*
X42500000Y-5000000D03*
X44250000Y-5000000D03*
X44250000Y-7000000D03*
X42500000Y-7000000D03*
X42500000Y-8750000D03*
X44250000Y-8750000D03*
X44250000Y-10500000D03*
X42500000Y-10500000D03*
X42500000Y-12500000D03*
X44250000Y-12500000D03*
X43250000Y-15750000D03*
X43250000Y-19250000D03*
X46250000Y-15750000D03*
X40500000Y-15750000D03*
D62*
X39600000Y-26200000D03*
X52400000Y-57800000D03*
X64250000Y-70500000D03*
X62000000Y-75000000D03*
X62500000Y-76500000D03*
X44100000Y-68400000D03*
X45912500Y-70368750D03*
X42700000Y-66200000D03*
X56000000Y-72400000D03*
X57200000Y-78100000D03*
X53600000Y-79300000D03*
X36800000Y-71550000D03*
X34700000Y-70400000D03*
X41200000Y-66200000D03*
X47487500Y-74231250D03*
X47487500Y-72943750D03*
X47487500Y-71656250D03*
X47487500Y-70368750D03*
X45912500Y-71656250D03*
X45912500Y-72943750D03*
X45912500Y-74231250D03*
X58400000Y-69600000D03*
X16500000Y-23250000D03*
X22500000Y-26500000D03*
X23450000Y-52900000D03*
X18350000Y-50600000D03*
X18400000Y-55100000D03*
X27750000Y-50450000D03*
X25700000Y-50550000D03*
X23200000Y-50300000D03*
X23300000Y-42400000D03*
X24250000Y-40900000D03*
X26850000Y-40950000D03*
X25050000Y-43700000D03*
X28400000Y-43700000D03*
X28350000Y-39150000D03*
X28200000Y-34650000D03*
X23900000Y-37450000D03*
X26750000Y-37450000D03*
X34000000Y-43500000D03*
X30400000Y-43300000D03*
X39500000Y-51300000D03*
X37500000Y-51500000D03*
X35700000Y-50900000D03*
X17700000Y-25100000D03*
X32000000Y-26500000D03*
X19750000Y-22000000D03*
X22250000Y-22000000D03*
D63*
X60250000Y-35650000D03*
X60250000Y-37300000D03*
X53250000Y-33000000D03*
X53600000Y-35800000D03*
X53250000Y-38750000D03*
X59850000Y-33250000D03*
X60000000Y-39000000D03*
X58900000Y-39000000D03*
X55350000Y-39000000D03*
X59850000Y-32600000D03*
X57700000Y-31750000D03*
X55400000Y-31800000D03*
X70100000Y-40300000D03*
X68000000Y-36700000D03*
X80300000Y-28800000D03*
D62*
X20100000Y-66300000D03*
X27000000Y-58500000D03*
X27000000Y-59500000D03*
X27000000Y-60500000D03*
X11000000Y-73000000D03*
D63*
X74300000Y-35300000D03*
X72700000Y-33900000D03*
X68450000Y-34100000D03*
X67750000Y-32000000D03*
X74900000Y-30000000D03*
X74300000Y-33200000D03*
X60800000Y-86900000D03*
D62*
X53300000Y-83300000D03*
X60400000Y-81600000D03*
X59800000Y-92400000D03*
X50800000Y-82200000D03*
D63*
X39800000Y-76600000D03*
D62*
X42000000Y-69700000D03*
D63*
X47400000Y-77700000D03*
D62*
X63950000Y-26600000D03*
X12200000Y-53800000D03*
X40200000Y-69700000D03*
X33400000Y-71200000D03*
X63400000Y-27850000D03*
D63*
X38000000Y-71000000D03*
X44500000Y-67200000D03*
D62*
X17000000Y-54500000D03*
D63*
X84500000Y-41900000D03*
D62*
X71200000Y-57800000D03*
X88400000Y-80600000D03*
X61200000Y-68800000D03*
X70000000Y-69000000D03*
X37600000Y-55000000D03*
X30400000Y-49000000D03*
X31800000Y-49000000D03*
X33200000Y-49000000D03*
X34200000Y-48400000D03*
X35900000Y-54100000D03*
X34400000Y-41300000D03*
X73150000Y-71200000D03*
X60400000Y-29400000D03*
X88000000Y-86000000D03*
X27500000Y-98500000D03*
X61500000Y-98000000D03*
X74600000Y-38300000D03*
X70900000Y-27800000D03*
X61600000Y-42600000D03*
X20000000Y-93000000D03*
X31400000Y-80500000D03*
X32900000Y-80700000D03*
X25000000Y-93400000D03*
X21600000Y-85400000D03*
X40250000Y-79300000D03*
X50000000Y-68100000D03*
X51700000Y-72700000D03*
X32000000Y-96000000D03*
X55500000Y-96000000D03*
X38000000Y-68500000D03*
X15000000Y-70500000D03*
D63*
X46900000Y-67000000D03*
D62*
X58600000Y-71000000D03*
X44500000Y-40000000D03*
X83500000Y-39500000D03*
X85000000Y-37500000D03*
X83500000Y-38000000D03*
X17200000Y-29800000D03*
X25300000Y-31700000D03*
X74600000Y-72600000D03*
X59000000Y-96500000D03*
X59600000Y-72600000D03*
X50800000Y-69200000D03*
X76400000Y-77400000D03*
X18900000Y-29800000D03*
X41950000Y-75050000D03*
X51700000Y-76100000D03*
X70750000Y-51000000D03*
X53750000Y-55150000D03*
X5300000Y-80500000D03*
X4800000Y-75100000D03*
X46100000Y-80900000D03*
X20500000Y-84500000D03*
X52000000Y-73800000D03*
X36700000Y-62500000D03*
X50700000Y-58700000D03*
X46000000Y-52200000D03*
X54600000Y-51200000D03*
X62000000Y-47300000D03*
X57500000Y-56500000D03*
X73850000Y-50350000D03*
X25000000Y-72500000D03*
X68450000Y-46850000D03*
X62950000Y-47275000D03*
X60200000Y-40600000D03*
X73900000Y-22700000D03*
X71000000Y-22600000D03*
X49700000Y-50700000D03*
X24000000Y-55100000D03*
X42600000Y-51900000D03*
X80000000Y-23600000D03*
X60250000Y-26000000D03*
X57250000Y-23250000D03*
X56000000Y-46000000D03*
X50150000Y-44550000D03*
X65100000Y-43300000D03*
X69400000Y-45200000D03*
X80400000Y-32600000D03*
X75600000Y-33400000D03*
X58250000Y-53000000D03*
X56500000Y-42750000D03*
X56250000Y-29250000D03*
D63*
X82250000Y-48750000D03*
X82500000Y-46000000D03*
D62*
X74400000Y-46400000D03*
X74200000Y-36600000D03*
X70300000Y-53200000D03*
X70500000Y-49000000D03*
X66600000Y-26200000D03*
D63*
X80998844Y-44089029D03*
X81823844Y-44089029D03*
X81823844Y-43376529D03*
X80998844Y-43376529D03*
X80998844Y-42664029D03*
X81823844Y-42664029D03*
X81823844Y-41951529D03*
X80998844Y-41951529D03*
D62*
X53750000Y-58250000D03*
X33800000Y-67600000D03*
D63*
X65550000Y-31400000D03*
D62*
X68000000Y-23150000D03*
X48900000Y-53400000D03*
X44100000Y-55600000D03*
D63*
X70700000Y-29200000D03*
D62*
X39800000Y-39100000D03*
X44600000Y-36300000D03*
D63*
X26600000Y-46050000D03*
D62*
X72800000Y-21900000D03*
M02*
