G04 #@! TF.FileFunction,Copper,L2,Inr*
%FSLAX46Y46*%
G04 Gerber Fmt 4.6, Leading zero omitted, Abs format (unit mm)*
G04 Created by KiCad (PCBNEW 4.0.2+e4-6225~38~ubuntu16.10.1-stable) date Mi 04 Jan 2017 00:52:02 CET*
%MOMM*%
G01*
G04 APERTURE LIST*
%ADD10C,0.150000*%
%ADD11C,6.000000*%
%ADD12C,2.000000*%
%ADD13R,1.050000X1.050000*%
%ADD14C,1.050000*%
%ADD15C,3.500000*%
%ADD16C,1.300000*%
%ADD17C,4.000000*%
%ADD18C,1.500000*%
%ADD19R,1.700000X1.700000*%
%ADD20O,1.700000X1.700000*%
%ADD21C,0.889000*%
%ADD22C,0.600000*%
%ADD23C,0.254000*%
%ADD24C,0.762000*%
%ADD25C,0.400000*%
%ADD26C,0.200000*%
%ADD27C,0.508000*%
%ADD28C,1.270000*%
%ADD29C,0.100000*%
G04 APERTURE END LIST*
D10*
D11*
X85000000Y-94000000D03*
X6000000Y-6000000D03*
X85000000Y-6000000D03*
X6000000Y-94000000D03*
D12*
X84270000Y-60190000D03*
X81730000Y-60190000D03*
X79190000Y-60190000D03*
X79190000Y-62730000D03*
X79190000Y-65270000D03*
X84270000Y-67810000D03*
X81730000Y-67810000D03*
X79190000Y-67810000D03*
X86810000Y-67810000D03*
X86810000Y-60190000D03*
X86810000Y-62730000D03*
X84270000Y-62730000D03*
X81730000Y-62730000D03*
X86810000Y-65270000D03*
X84270000Y-65270000D03*
X81730000Y-65270000D03*
X84270000Y-11190000D03*
X81730000Y-11190000D03*
X79190000Y-11190000D03*
X79190000Y-13730000D03*
X79190000Y-16270000D03*
X84270000Y-18810000D03*
X81730000Y-18810000D03*
X79190000Y-18810000D03*
X86810000Y-18810000D03*
X86810000Y-11190000D03*
X86810000Y-13730000D03*
X84270000Y-13730000D03*
X81730000Y-13730000D03*
X86810000Y-16270000D03*
X84270000Y-16270000D03*
X81730000Y-16270000D03*
X9270000Y-60190000D03*
X6730000Y-60190000D03*
X4190000Y-60190000D03*
X4190000Y-62730000D03*
X4190000Y-65270000D03*
X9270000Y-67810000D03*
X6730000Y-67810000D03*
X4190000Y-67810000D03*
X11810000Y-67810000D03*
X11810000Y-60190000D03*
X11810000Y-62730000D03*
X9270000Y-62730000D03*
X6730000Y-62730000D03*
X11810000Y-65270000D03*
X9270000Y-65270000D03*
X6730000Y-65270000D03*
X6730000Y-18810000D03*
X9270000Y-18810000D03*
X11810000Y-18810000D03*
X11810000Y-16270000D03*
X11810000Y-13730000D03*
X6730000Y-11190000D03*
X9270000Y-11190000D03*
X11810000Y-11190000D03*
X4190000Y-11190000D03*
X4190000Y-18810000D03*
X4190000Y-16270000D03*
X6730000Y-16270000D03*
X9270000Y-16270000D03*
X4190000Y-13730000D03*
X6730000Y-13730000D03*
X9270000Y-13730000D03*
D13*
X76300000Y-42700000D03*
D14*
X75030000Y-42700000D03*
X73760000Y-42700000D03*
X72490000Y-42700000D03*
X71220000Y-42700000D03*
X75030000Y-41430000D03*
X73760000Y-41430000D03*
X72490000Y-41430000D03*
X71220000Y-41430000D03*
X76300000Y-41430000D03*
D15*
X56950000Y-90000000D03*
X36050000Y-90000000D03*
D16*
X8040000Y-43325000D03*
X8040000Y-49415000D03*
X8040000Y-45355000D03*
X8040000Y-47385000D03*
X9820000Y-44345000D03*
X9820000Y-46375000D03*
X9820000Y-48405000D03*
X9820000Y-50435000D03*
D17*
X5500000Y-24775000D03*
D12*
X8930000Y-55000000D03*
D16*
X9820000Y-34685000D03*
X9820000Y-32655000D03*
X9820000Y-30625000D03*
X9820000Y-28595000D03*
X8040000Y-31635000D03*
X8040000Y-29605000D03*
X8040000Y-33665000D03*
X8040000Y-27575000D03*
D17*
X5500000Y-53225000D03*
D12*
X8930000Y-23000000D03*
D18*
X76888154Y-84361846D03*
X66111846Y-95138154D03*
X66111846Y-84361846D03*
D10*
G36*
X72702082Y-89750000D02*
X71500000Y-90952082D01*
X70297918Y-89750000D01*
X71500000Y-88547918D01*
X72702082Y-89750000D01*
X72702082Y-89750000D01*
G37*
D18*
X76888154Y-95138154D03*
X16000000Y-75880000D03*
X16000000Y-91120000D03*
X8380000Y-83500000D03*
D19*
X16000000Y-83500000D03*
D18*
X23620000Y-83500000D03*
D19*
X19500000Y-71000000D03*
D20*
X22040000Y-71000000D03*
D19*
X37000000Y-26200000D03*
D20*
X37000000Y-28740000D03*
D21*
X30000000Y-85500000D03*
X29000000Y-78000000D03*
X20500000Y-82000000D03*
D22*
X41900000Y-73600000D03*
D21*
X67400000Y-77600000D03*
X49700000Y-80900000D03*
X43500000Y-80800000D03*
X65000000Y-98000000D03*
X68000000Y-96500000D03*
X69500000Y-96500000D03*
X70500000Y-97500000D03*
X72500000Y-97500000D03*
X73500000Y-96500000D03*
X75000000Y-96500000D03*
X89000000Y-98000000D03*
X79500000Y-96000000D03*
X79500000Y-94000000D03*
X80500000Y-91000000D03*
X80500000Y-89500000D03*
X80500000Y-88000000D03*
X80500000Y-86500000D03*
X89000000Y-89500000D03*
X89000000Y-84000000D03*
X79000000Y-85500000D03*
X14000000Y-95000000D03*
X12500000Y-95000000D03*
X10500000Y-95000000D03*
X10500000Y-92500000D03*
X12500000Y-92500000D03*
X14000000Y-92500000D03*
X2000000Y-88000000D03*
X2000000Y-98000000D03*
X16000000Y-98000000D03*
X25500000Y-84000000D03*
X22500000Y-81500000D03*
X25500000Y-81500000D03*
X21000000Y-76500000D03*
X19500000Y-75000000D03*
X17500000Y-74500000D03*
X15500000Y-73000000D03*
X34500000Y-72500000D03*
X59400000Y-77800000D03*
X59800000Y-79300000D03*
X58400000Y-79300000D03*
X57100000Y-79300000D03*
X9500000Y-90500000D03*
X8000000Y-89000000D03*
X3500000Y-88000000D03*
X7000000Y-87000000D03*
D22*
X46500000Y-77600000D03*
D21*
X32500000Y-72500000D03*
X28500000Y-74000000D03*
X30500000Y-74000000D03*
X30500000Y-72500000D03*
X55900000Y-21700000D03*
X57450000Y-48050000D03*
X13500000Y-79500000D03*
X40400000Y-29400000D03*
X47800000Y-26200000D03*
X53750000Y-26500000D03*
X49400000Y-30400000D03*
X42200000Y-31200000D03*
X48600000Y-36800000D03*
X41000000Y-35500000D03*
D22*
X43250000Y-18250000D03*
X42500000Y-5000000D03*
X44250000Y-5000000D03*
X44250000Y-7000000D03*
X42500000Y-7000000D03*
X42500000Y-8750000D03*
X44250000Y-8750000D03*
X44250000Y-10500000D03*
X42500000Y-10500000D03*
X42500000Y-12500000D03*
X44250000Y-12500000D03*
X43250000Y-15750000D03*
X43250000Y-19250000D03*
X46250000Y-15750000D03*
X40500000Y-15750000D03*
D21*
X39600000Y-26200000D03*
X52400000Y-57800000D03*
X64250000Y-70500000D03*
X62000000Y-75000000D03*
X62500000Y-76500000D03*
X44100000Y-68400000D03*
X45912500Y-70368750D03*
X42700000Y-66200000D03*
X56000000Y-72400000D03*
X57200000Y-78100000D03*
X53600000Y-79300000D03*
X36800000Y-71550000D03*
X34700000Y-70400000D03*
X41200000Y-66200000D03*
X47487500Y-74231250D03*
X47487500Y-72943750D03*
X47487500Y-71656250D03*
X47487500Y-70368750D03*
X45912500Y-71656250D03*
X45912500Y-72943750D03*
X45912500Y-74231250D03*
X58400000Y-69600000D03*
X16500000Y-23250000D03*
X22500000Y-26500000D03*
X23450000Y-52900000D03*
X18350000Y-50600000D03*
X18400000Y-55100000D03*
X27750000Y-50450000D03*
X25700000Y-50550000D03*
X23200000Y-50300000D03*
X23300000Y-42400000D03*
X24250000Y-40900000D03*
X26850000Y-40950000D03*
X25050000Y-43700000D03*
X28400000Y-43700000D03*
X28350000Y-39150000D03*
X28200000Y-34650000D03*
X23900000Y-37450000D03*
X26750000Y-37450000D03*
X34000000Y-43500000D03*
X30400000Y-43300000D03*
X39500000Y-51300000D03*
X37500000Y-51500000D03*
X35700000Y-50900000D03*
X17700000Y-25100000D03*
X32000000Y-26500000D03*
X19750000Y-22000000D03*
X22250000Y-22000000D03*
D22*
X60250000Y-35650000D03*
X60250000Y-37300000D03*
X53250000Y-33000000D03*
X53600000Y-35800000D03*
X53250000Y-38750000D03*
X59850000Y-33250000D03*
X60000000Y-39000000D03*
X58900000Y-39000000D03*
X55350000Y-39000000D03*
X59850000Y-32600000D03*
X57700000Y-31750000D03*
X55400000Y-31800000D03*
X70100000Y-40300000D03*
X68000000Y-36700000D03*
X80300000Y-28800000D03*
D21*
X20100000Y-66300000D03*
X27000000Y-58500000D03*
X27000000Y-59500000D03*
X27000000Y-60500000D03*
X11000000Y-73000000D03*
D22*
X74300000Y-35300000D03*
X72700000Y-33900000D03*
X68450000Y-34100000D03*
X67750000Y-32000000D03*
X74900000Y-30000000D03*
X74300000Y-33200000D03*
X60800000Y-86900000D03*
D21*
X53300000Y-83300000D03*
X60400000Y-81600000D03*
X59800000Y-92400000D03*
X50800000Y-82200000D03*
D22*
X39800000Y-76600000D03*
D21*
X42000000Y-69700000D03*
D22*
X47400000Y-77700000D03*
D21*
X63950000Y-26600000D03*
X12200000Y-53800000D03*
X40200000Y-69700000D03*
X33400000Y-71200000D03*
X63400000Y-27850000D03*
D22*
X38000000Y-71000000D03*
X44500000Y-67200000D03*
D21*
X17000000Y-54500000D03*
D22*
X84500000Y-41900000D03*
D21*
X71200000Y-57800000D03*
X88400000Y-80600000D03*
X61200000Y-68800000D03*
X70000000Y-69000000D03*
X37600000Y-55000000D03*
X30400000Y-49000000D03*
X31800000Y-49000000D03*
X33200000Y-49000000D03*
X34200000Y-48400000D03*
X35900000Y-54100000D03*
X34400000Y-41300000D03*
X73150000Y-71200000D03*
X60400000Y-29400000D03*
X88000000Y-86000000D03*
X27500000Y-98500000D03*
X61500000Y-98000000D03*
X74600000Y-38300000D03*
X70900000Y-27800000D03*
X61600000Y-42600000D03*
X20000000Y-93000000D03*
X31400000Y-80500000D03*
X32900000Y-80700000D03*
X25000000Y-93400000D03*
X21600000Y-85400000D03*
X40250000Y-79300000D03*
X50000000Y-68100000D03*
X51700000Y-72700000D03*
X32000000Y-96000000D03*
X55500000Y-96000000D03*
X38000000Y-68500000D03*
X15000000Y-70500000D03*
D22*
X46900000Y-67000000D03*
D21*
X58600000Y-71000000D03*
X44500000Y-40000000D03*
X83500000Y-39500000D03*
X85000000Y-37500000D03*
X83500000Y-38000000D03*
X17200000Y-29800000D03*
X25300000Y-31700000D03*
X74600000Y-72600000D03*
X59000000Y-96500000D03*
X59600000Y-72600000D03*
X50800000Y-69200000D03*
X76400000Y-77400000D03*
X18900000Y-29800000D03*
X41950000Y-75050000D03*
X51700000Y-76100000D03*
X70750000Y-51000000D03*
X53750000Y-55150000D03*
X5300000Y-80500000D03*
X4800000Y-75100000D03*
X46100000Y-80900000D03*
X20500000Y-84500000D03*
X52000000Y-73800000D03*
X36700000Y-62500000D03*
X50700000Y-58700000D03*
X46000000Y-52200000D03*
X54600000Y-51200000D03*
X62000000Y-47300000D03*
X57500000Y-56500000D03*
X73850000Y-50350000D03*
X25000000Y-72500000D03*
X68450000Y-46850000D03*
X62950000Y-47275000D03*
X60200000Y-40600000D03*
X73900000Y-22700000D03*
X71000000Y-22600000D03*
X49700000Y-50700000D03*
X24000000Y-55100000D03*
X42600000Y-51900000D03*
X80000000Y-23600000D03*
X60250000Y-26000000D03*
X57250000Y-23250000D03*
X56000000Y-46000000D03*
X50150000Y-44550000D03*
X65100000Y-43300000D03*
X69400000Y-45200000D03*
X80400000Y-32600000D03*
X75600000Y-33400000D03*
X58250000Y-53000000D03*
X56500000Y-42750000D03*
X56250000Y-29250000D03*
D22*
X82250000Y-48750000D03*
X82500000Y-46000000D03*
D21*
X74400000Y-46400000D03*
X74200000Y-36600000D03*
X70300000Y-53200000D03*
X70500000Y-49000000D03*
X66600000Y-26200000D03*
D22*
X80998844Y-44089029D03*
X81823844Y-44089029D03*
X81823844Y-43376529D03*
X80998844Y-43376529D03*
X80998844Y-42664029D03*
X81823844Y-42664029D03*
X81823844Y-41951529D03*
X80998844Y-41951529D03*
D21*
X53750000Y-58250000D03*
X33800000Y-67600000D03*
D22*
X65550000Y-31400000D03*
D21*
X68000000Y-23150000D03*
X48900000Y-53400000D03*
X44100000Y-55600000D03*
D22*
X70700000Y-29200000D03*
D21*
X39800000Y-39100000D03*
X44600000Y-36300000D03*
D22*
X26600000Y-46050000D03*
D21*
X72800000Y-21900000D03*
D23*
X44250000Y-5000000D02*
X42500000Y-5000000D01*
X42500000Y-7000000D02*
X44250000Y-7000000D01*
X44250000Y-8750000D02*
X42500000Y-8750000D01*
X42500000Y-10500000D02*
X44250000Y-10500000D01*
X44250000Y-12500000D02*
X42500000Y-12500000D01*
X43250000Y-19250000D02*
X43250000Y-15750000D01*
X40500000Y-15750000D02*
X46250000Y-15750000D01*
D24*
X52400000Y-57800000D02*
X52400000Y-59600000D01*
X42700000Y-65300000D02*
X42700000Y-66200000D01*
X44100000Y-63900000D02*
X42700000Y-65300000D01*
X48100000Y-63900000D02*
X44100000Y-63900000D01*
X52400000Y-59600000D02*
X48100000Y-63900000D01*
D25*
X62000000Y-76000000D02*
X62000000Y-75000000D01*
X62500000Y-76500000D02*
X62000000Y-76000000D01*
D26*
X45668750Y-70368750D02*
X44100000Y-68700000D01*
X44100000Y-68700000D02*
X44100000Y-68400000D01*
D27*
X45900000Y-70350000D02*
X45900000Y-70356250D01*
X45900000Y-70356250D02*
X45912500Y-70368750D01*
D26*
X45912500Y-70368750D02*
X45668750Y-70368750D01*
D24*
X37000000Y-71550000D02*
X36800000Y-71550000D01*
X36800000Y-71550000D02*
X35650000Y-70400000D01*
X35650000Y-70400000D02*
X34700000Y-70400000D01*
D26*
X42700000Y-66200000D02*
X41500000Y-66500000D01*
X41500000Y-66500000D02*
X41200000Y-66200000D01*
D27*
X47500000Y-74243750D02*
X47500000Y-74250000D01*
X47487500Y-74231250D02*
X47500000Y-74243750D01*
X47493750Y-72950000D02*
X47500000Y-72950000D01*
X47493750Y-72950000D02*
X47487500Y-72943750D01*
X47493750Y-71650000D02*
X47500000Y-71650000D01*
X47487500Y-71656250D02*
X47493750Y-71650000D01*
X47500000Y-70350000D02*
X47500000Y-70356250D01*
X47500000Y-70356250D02*
X47487500Y-70368750D01*
X45900000Y-71650000D02*
X45906250Y-71650000D01*
X45906250Y-71650000D02*
X45912500Y-71656250D01*
X45906250Y-72950000D02*
X45900000Y-72950000D01*
X45912500Y-72943750D02*
X45906250Y-72950000D01*
X45900000Y-74250000D02*
X45900000Y-74243750D01*
X45900000Y-74243750D02*
X45912500Y-74231250D01*
D25*
X18350000Y-55050000D02*
X18350000Y-50600000D01*
X18400000Y-55100000D02*
X18350000Y-55050000D01*
X25800000Y-50450000D02*
X27750000Y-50450000D01*
X25700000Y-50550000D02*
X25800000Y-50450000D01*
X23200000Y-42500000D02*
X23200000Y-50300000D01*
X23300000Y-42400000D02*
X23200000Y-42500000D01*
X26800000Y-40900000D02*
X24250000Y-40900000D01*
X26850000Y-40950000D02*
X26800000Y-40900000D01*
X28400000Y-43700000D02*
X25050000Y-43700000D01*
X28350000Y-34800000D02*
X28350000Y-39150000D01*
X28200000Y-34650000D02*
X28350000Y-34800000D01*
X23900000Y-37450000D02*
X26750000Y-37450000D01*
D24*
X30600000Y-43500000D02*
X34000000Y-43500000D01*
X30400000Y-43300000D02*
X30600000Y-43500000D01*
D27*
X37500000Y-51500000D02*
X36900000Y-50900000D01*
X36900000Y-50900000D02*
X35700000Y-50900000D01*
X18400000Y-23350000D02*
X19750000Y-22000000D01*
X18400000Y-24400000D02*
X18400000Y-23350000D01*
X17700000Y-25100000D02*
X18400000Y-24400000D01*
D23*
X32000000Y-26500000D02*
X29750000Y-24250000D01*
X29750000Y-24250000D02*
X24500000Y-24250000D01*
X24500000Y-24250000D02*
X22250000Y-22000000D01*
D24*
X22250000Y-22000000D02*
X19750000Y-22000000D01*
D26*
X59850000Y-32600000D02*
X59850000Y-32100000D01*
X59850000Y-32100000D02*
X59550000Y-31800000D01*
X57750000Y-31800000D02*
X57700000Y-31750000D01*
X59550000Y-31800000D02*
X57750000Y-31800000D01*
X57700000Y-31750000D02*
X59500000Y-31750000D01*
X59500000Y-31750000D02*
X59850000Y-32100000D01*
D23*
X60250000Y-35600000D02*
X60250000Y-35250000D01*
X59850000Y-33600000D02*
X59850000Y-32600000D01*
X60500000Y-34250000D02*
X59850000Y-33600000D01*
X60550000Y-34250000D02*
X60500000Y-34250000D01*
X60650000Y-34350000D02*
X60550000Y-34250000D01*
X60650000Y-34850000D02*
X60650000Y-34350000D01*
X60250000Y-35250000D02*
X60650000Y-34850000D01*
X60250000Y-38750000D02*
X60250000Y-35600000D01*
X60250000Y-37300000D02*
X60250000Y-38750000D01*
X55400000Y-31800000D02*
X54450000Y-31800000D01*
X54450000Y-31800000D02*
X53250000Y-33000000D01*
X53250000Y-35800000D02*
X53250000Y-33000000D01*
X53250000Y-38750000D02*
X53250000Y-35800000D01*
X53250000Y-35800000D02*
X53600000Y-35800000D01*
X55400000Y-31800000D02*
X57650000Y-31800000D01*
X57650000Y-31800000D02*
X57700000Y-31750000D01*
X59500000Y-31750000D02*
X59850000Y-32100000D01*
X59850000Y-32100000D02*
X59850000Y-32600000D01*
X58900000Y-39000000D02*
X57300000Y-39000000D01*
X60000000Y-39000000D02*
X58900000Y-39000000D01*
X55350000Y-39000000D02*
X57300000Y-39000000D01*
D28*
X57500000Y-56500000D02*
X50500000Y-56500000D01*
X50500000Y-56500000D02*
X49500000Y-57500000D01*
X49500000Y-57500000D02*
X36000000Y-57500000D01*
X36000000Y-57500000D02*
X25000000Y-68500000D01*
X25000000Y-68500000D02*
X25000000Y-72500000D01*
D24*
X25000000Y-72500000D02*
X25000000Y-68500000D01*
X36000000Y-57500000D02*
X49500000Y-57500000D01*
X49500000Y-57500000D02*
X50500000Y-56500000D01*
X55700000Y-46000000D02*
X56000000Y-46000000D01*
X54250000Y-44550000D02*
X55700000Y-46000000D01*
X50150000Y-44550000D02*
X54250000Y-44550000D01*
X67100000Y-43300000D02*
X65100000Y-43300000D01*
X69400000Y-45200000D02*
X67100000Y-43300000D01*
D29*
G36*
X32700000Y-40000000D02*
X32703939Y-40019453D01*
X32715136Y-40035840D01*
X32731827Y-40046581D01*
X32750000Y-40050000D01*
X40200000Y-40050000D01*
X40200000Y-56450000D01*
X1050000Y-56450000D01*
X1050000Y-53670589D01*
X3249610Y-53670589D01*
X3591431Y-54497858D01*
X4223813Y-55131345D01*
X5050484Y-55474608D01*
X5945589Y-55475390D01*
X6497003Y-55247550D01*
X7679783Y-55247550D01*
X7869684Y-55707143D01*
X8221007Y-56059081D01*
X8680269Y-56249783D01*
X9177550Y-56250217D01*
X9637143Y-56060316D01*
X9989081Y-55708993D01*
X10179783Y-55249731D01*
X10179793Y-55237539D01*
X23305380Y-55237539D01*
X23410888Y-55492889D01*
X23606084Y-55688425D01*
X23861249Y-55794379D01*
X24137539Y-55794620D01*
X24392889Y-55689112D01*
X24588425Y-55493916D01*
X24694379Y-55238751D01*
X24694467Y-55137539D01*
X36905380Y-55137539D01*
X37010888Y-55392889D01*
X37206084Y-55588425D01*
X37461249Y-55694379D01*
X37737539Y-55694620D01*
X37992889Y-55589112D01*
X38188425Y-55393916D01*
X38294379Y-55138751D01*
X38294620Y-54862461D01*
X38189112Y-54607111D01*
X37993916Y-54411575D01*
X37738751Y-54305621D01*
X37462461Y-54305380D01*
X37207111Y-54410888D01*
X37011575Y-54606084D01*
X36905621Y-54861249D01*
X36905380Y-55137539D01*
X24694467Y-55137539D01*
X24694620Y-54962461D01*
X24589112Y-54707111D01*
X24393916Y-54511575D01*
X24138751Y-54405621D01*
X23862461Y-54405380D01*
X23607111Y-54510888D01*
X23411575Y-54706084D01*
X23305621Y-54961249D01*
X23305380Y-55237539D01*
X10179793Y-55237539D01*
X10180217Y-54752450D01*
X10132737Y-54637539D01*
X16305380Y-54637539D01*
X16410888Y-54892889D01*
X16606084Y-55088425D01*
X16861249Y-55194379D01*
X17137539Y-55194620D01*
X17392889Y-55089112D01*
X17588425Y-54893916D01*
X17694379Y-54638751D01*
X17694620Y-54362461D01*
X17643004Y-54237539D01*
X35205380Y-54237539D01*
X35310888Y-54492889D01*
X35506084Y-54688425D01*
X35761249Y-54794379D01*
X36037539Y-54794620D01*
X36292889Y-54689112D01*
X36488425Y-54493916D01*
X36594379Y-54238751D01*
X36594620Y-53962461D01*
X36489112Y-53707111D01*
X36293916Y-53511575D01*
X36038751Y-53405621D01*
X35762461Y-53405380D01*
X35507111Y-53510888D01*
X35311575Y-53706084D01*
X35205621Y-53961249D01*
X35205380Y-54237539D01*
X17643004Y-54237539D01*
X17589112Y-54107111D01*
X17393916Y-53911575D01*
X17138751Y-53805621D01*
X16862461Y-53805380D01*
X16607111Y-53910888D01*
X16411575Y-54106084D01*
X16305621Y-54361249D01*
X16305380Y-54637539D01*
X10132737Y-54637539D01*
X9990316Y-54292857D01*
X9638993Y-53940919D01*
X9630854Y-53937539D01*
X11505380Y-53937539D01*
X11610888Y-54192889D01*
X11806084Y-54388425D01*
X12061249Y-54494379D01*
X12337539Y-54494620D01*
X12592889Y-54389112D01*
X12788425Y-54193916D01*
X12894379Y-53938751D01*
X12894620Y-53662461D01*
X12789112Y-53407111D01*
X12593916Y-53211575D01*
X12338751Y-53105621D01*
X12062461Y-53105380D01*
X11807111Y-53210888D01*
X11611575Y-53406084D01*
X11505621Y-53661249D01*
X11505380Y-53937539D01*
X9630854Y-53937539D01*
X9179731Y-53750217D01*
X8682450Y-53749783D01*
X8222857Y-53939684D01*
X7870919Y-54291007D01*
X7680217Y-54750269D01*
X7679783Y-55247550D01*
X6497003Y-55247550D01*
X6772858Y-55133569D01*
X7406345Y-54501187D01*
X7749608Y-53674516D01*
X7750390Y-52779411D01*
X7408569Y-51952142D01*
X6776187Y-51318655D01*
X5949516Y-50975392D01*
X5054411Y-50974610D01*
X4227142Y-51316431D01*
X3593655Y-51948813D01*
X3250392Y-52775484D01*
X3249610Y-53670589D01*
X1050000Y-53670589D01*
X1050000Y-50382103D01*
X7532517Y-50382103D01*
X7604634Y-50567153D01*
X8078684Y-50646058D01*
X8475366Y-50567153D01*
X8547483Y-50382103D01*
X8040000Y-49874619D01*
X7532517Y-50382103D01*
X1050000Y-50382103D01*
X1050000Y-49453684D01*
X6808942Y-49453684D01*
X6887847Y-49850366D01*
X7072897Y-49922483D01*
X7580381Y-49415000D01*
X8499619Y-49415000D01*
X9007103Y-49922483D01*
X9093068Y-49888981D01*
X9057462Y-49924525D01*
X8920157Y-50255194D01*
X8919844Y-50613236D01*
X9056572Y-50944143D01*
X9309525Y-51197538D01*
X9640194Y-51334843D01*
X9998236Y-51335156D01*
X10329143Y-51198428D01*
X10582538Y-50945475D01*
X10719843Y-50614806D01*
X10720156Y-50256764D01*
X10583428Y-49925857D01*
X10330475Y-49672462D01*
X9999806Y-49535157D01*
X9641764Y-49534844D01*
X9310857Y-49671572D01*
X9204189Y-49778054D01*
X9271058Y-49376316D01*
X9209623Y-49067461D01*
X9309525Y-49167538D01*
X9640194Y-49304843D01*
X9998236Y-49305156D01*
X10329143Y-49168428D01*
X10360085Y-49137539D01*
X29705380Y-49137539D01*
X29810888Y-49392889D01*
X30006084Y-49588425D01*
X30261249Y-49694379D01*
X30537539Y-49694620D01*
X30792889Y-49589112D01*
X30988425Y-49393916D01*
X31094379Y-49138751D01*
X31094380Y-49137539D01*
X31105380Y-49137539D01*
X31210888Y-49392889D01*
X31406084Y-49588425D01*
X31661249Y-49694379D01*
X31937539Y-49694620D01*
X32192889Y-49589112D01*
X32388425Y-49393916D01*
X32494379Y-49138751D01*
X32494380Y-49137539D01*
X32505380Y-49137539D01*
X32610888Y-49392889D01*
X32806084Y-49588425D01*
X33061249Y-49694379D01*
X33337539Y-49694620D01*
X33592889Y-49589112D01*
X33788425Y-49393916D01*
X33894379Y-49138751D01*
X33894478Y-49025130D01*
X34061249Y-49094379D01*
X34337539Y-49094620D01*
X34592889Y-48989112D01*
X34788425Y-48793916D01*
X34894379Y-48538751D01*
X34894620Y-48262461D01*
X34789112Y-48007111D01*
X34593916Y-47811575D01*
X34338751Y-47705621D01*
X34062461Y-47705380D01*
X33807111Y-47810888D01*
X33611575Y-48006084D01*
X33505621Y-48261249D01*
X33505522Y-48374870D01*
X33338751Y-48305621D01*
X33062461Y-48305380D01*
X32807111Y-48410888D01*
X32611575Y-48606084D01*
X32505621Y-48861249D01*
X32505380Y-49137539D01*
X32494380Y-49137539D01*
X32494620Y-48862461D01*
X32389112Y-48607111D01*
X32193916Y-48411575D01*
X31938751Y-48305621D01*
X31662461Y-48305380D01*
X31407111Y-48410888D01*
X31211575Y-48606084D01*
X31105621Y-48861249D01*
X31105380Y-49137539D01*
X31094380Y-49137539D01*
X31094620Y-48862461D01*
X30989112Y-48607111D01*
X30793916Y-48411575D01*
X30538751Y-48305621D01*
X30262461Y-48305380D01*
X30007111Y-48410888D01*
X29811575Y-48606084D01*
X29705621Y-48861249D01*
X29705380Y-49137539D01*
X10360085Y-49137539D01*
X10582538Y-48915475D01*
X10719843Y-48584806D01*
X10720156Y-48226764D01*
X10583428Y-47895857D01*
X10330475Y-47642462D01*
X9999806Y-47505157D01*
X9641764Y-47504844D01*
X9310857Y-47641572D01*
X9057462Y-47894525D01*
X8920157Y-48225194D01*
X8919844Y-48583236D01*
X9056572Y-48914143D01*
X9077246Y-48934853D01*
X9007103Y-48907517D01*
X8499619Y-49415000D01*
X7580381Y-49415000D01*
X7072897Y-48907517D01*
X6887847Y-48979634D01*
X6808942Y-49453684D01*
X1050000Y-49453684D01*
X1050000Y-47563236D01*
X7139844Y-47563236D01*
X7276572Y-47894143D01*
X7529525Y-48147538D01*
X7741607Y-48235601D01*
X7604634Y-48262847D01*
X7532517Y-48447897D01*
X8040000Y-48955381D01*
X8547483Y-48447897D01*
X8475366Y-48262847D01*
X8330561Y-48238744D01*
X8549143Y-48148428D01*
X8802538Y-47895475D01*
X8939843Y-47564806D01*
X8940156Y-47206764D01*
X8803428Y-46875857D01*
X8550475Y-46622462D01*
X8338393Y-46534399D01*
X8475366Y-46507153D01*
X8547483Y-46322103D01*
X8040000Y-45814619D01*
X7532517Y-46322103D01*
X7604634Y-46507153D01*
X7749439Y-46531256D01*
X7530857Y-46621572D01*
X7277462Y-46874525D01*
X7140157Y-47205194D01*
X7139844Y-47563236D01*
X1050000Y-47563236D01*
X1050000Y-45393684D01*
X6808942Y-45393684D01*
X6887847Y-45790366D01*
X7072897Y-45862483D01*
X7580381Y-45355000D01*
X8499619Y-45355000D01*
X9007103Y-45862483D01*
X9093068Y-45828981D01*
X9057462Y-45864525D01*
X8920157Y-46195194D01*
X8919844Y-46553236D01*
X9056572Y-46884143D01*
X9309525Y-47137538D01*
X9640194Y-47274843D01*
X9998236Y-47275156D01*
X10329143Y-47138428D01*
X10582538Y-46885475D01*
X10719843Y-46554806D01*
X10720156Y-46196764D01*
X10704521Y-46158922D01*
X26049905Y-46158922D01*
X26133461Y-46361143D01*
X26288043Y-46515995D01*
X26490118Y-46599904D01*
X26708922Y-46600095D01*
X26911143Y-46516539D01*
X27065995Y-46361957D01*
X27149904Y-46159882D01*
X27150095Y-45941078D01*
X27066539Y-45738857D01*
X26911957Y-45584005D01*
X26709882Y-45500096D01*
X26491078Y-45499905D01*
X26288857Y-45583461D01*
X26134005Y-45738043D01*
X26050096Y-45940118D01*
X26049905Y-46158922D01*
X10704521Y-46158922D01*
X10583428Y-45865857D01*
X10330475Y-45612462D01*
X9999806Y-45475157D01*
X9641764Y-45474844D01*
X9310857Y-45611572D01*
X9204189Y-45718054D01*
X9271058Y-45316316D01*
X9209623Y-45007461D01*
X9309525Y-45107538D01*
X9640194Y-45244843D01*
X9998236Y-45245156D01*
X10329143Y-45108428D01*
X10582538Y-44855475D01*
X10719843Y-44524806D01*
X10720156Y-44166764D01*
X10583428Y-43835857D01*
X10330475Y-43582462D01*
X9999806Y-43445157D01*
X9641764Y-43444844D01*
X9310857Y-43581572D01*
X9057462Y-43834525D01*
X8920157Y-44165194D01*
X8919844Y-44523236D01*
X9056572Y-44854143D01*
X9077246Y-44874853D01*
X9007103Y-44847517D01*
X8499619Y-45355000D01*
X7580381Y-45355000D01*
X7072897Y-44847517D01*
X6887847Y-44919634D01*
X6808942Y-45393684D01*
X1050000Y-45393684D01*
X1050000Y-43503236D01*
X7139844Y-43503236D01*
X7276572Y-43834143D01*
X7529525Y-44087538D01*
X7741607Y-44175601D01*
X7604634Y-44202847D01*
X7532517Y-44387897D01*
X8040000Y-44895381D01*
X8547483Y-44387897D01*
X8475366Y-44202847D01*
X8330561Y-44178744D01*
X8549143Y-44088428D01*
X8802538Y-43835475D01*
X8939843Y-43504806D01*
X8940156Y-43146764D01*
X8803428Y-42815857D01*
X8550475Y-42562462D01*
X8219806Y-42425157D01*
X7861764Y-42424844D01*
X7530857Y-42561572D01*
X7277462Y-42814525D01*
X7140157Y-43145194D01*
X7139844Y-43503236D01*
X1050000Y-43503236D01*
X1050000Y-41437539D01*
X33705380Y-41437539D01*
X33810888Y-41692889D01*
X34006084Y-41888425D01*
X34261249Y-41994379D01*
X34537539Y-41994620D01*
X34792889Y-41889112D01*
X34988425Y-41693916D01*
X35094379Y-41438751D01*
X35094620Y-41162461D01*
X34989112Y-40907111D01*
X34793916Y-40711575D01*
X34538751Y-40605621D01*
X34262461Y-40605380D01*
X34007111Y-40710888D01*
X33811575Y-40906084D01*
X33705621Y-41161249D01*
X33705380Y-41437539D01*
X1050000Y-41437539D01*
X1050000Y-34632103D01*
X7532517Y-34632103D01*
X7604634Y-34817153D01*
X8078684Y-34896058D01*
X8475366Y-34817153D01*
X8547483Y-34632103D01*
X8040000Y-34124619D01*
X7532517Y-34632103D01*
X1050000Y-34632103D01*
X1050000Y-33703684D01*
X6808942Y-33703684D01*
X6887847Y-34100366D01*
X7072897Y-34172483D01*
X7580381Y-33665000D01*
X8499619Y-33665000D01*
X9007103Y-34172483D01*
X9093068Y-34138981D01*
X9057462Y-34174525D01*
X8920157Y-34505194D01*
X8919844Y-34863236D01*
X9056572Y-35194143D01*
X9309525Y-35447538D01*
X9640194Y-35584843D01*
X9998236Y-35585156D01*
X10329143Y-35448428D01*
X10582538Y-35195475D01*
X10719843Y-34864806D01*
X10720156Y-34506764D01*
X10583428Y-34175857D01*
X10330475Y-33922462D01*
X9999806Y-33785157D01*
X9641764Y-33784844D01*
X9310857Y-33921572D01*
X9204189Y-34028054D01*
X9271058Y-33626316D01*
X9209623Y-33317461D01*
X9309525Y-33417538D01*
X9640194Y-33554843D01*
X9998236Y-33555156D01*
X10329143Y-33418428D01*
X10582538Y-33165475D01*
X10719843Y-32834806D01*
X10720156Y-32476764D01*
X10583428Y-32145857D01*
X10330475Y-31892462D01*
X10198205Y-31837539D01*
X24605380Y-31837539D01*
X24710888Y-32092889D01*
X24906084Y-32288425D01*
X25161249Y-32394379D01*
X25437539Y-32394620D01*
X25692889Y-32289112D01*
X25888425Y-32093916D01*
X25994379Y-31838751D01*
X25994620Y-31562461D01*
X25889112Y-31307111D01*
X25693916Y-31111575D01*
X25438751Y-31005621D01*
X25162461Y-31005380D01*
X24907111Y-31110888D01*
X24711575Y-31306084D01*
X24605621Y-31561249D01*
X24605380Y-31837539D01*
X10198205Y-31837539D01*
X9999806Y-31755157D01*
X9641764Y-31754844D01*
X9310857Y-31891572D01*
X9057462Y-32144525D01*
X8920157Y-32475194D01*
X8919844Y-32833236D01*
X9056572Y-33164143D01*
X9077246Y-33184853D01*
X9007103Y-33157517D01*
X8499619Y-33665000D01*
X7580381Y-33665000D01*
X7072897Y-33157517D01*
X6887847Y-33229634D01*
X6808942Y-33703684D01*
X1050000Y-33703684D01*
X1050000Y-31813236D01*
X7139844Y-31813236D01*
X7276572Y-32144143D01*
X7529525Y-32397538D01*
X7741607Y-32485601D01*
X7604634Y-32512847D01*
X7532517Y-32697897D01*
X8040000Y-33205381D01*
X8547483Y-32697897D01*
X8475366Y-32512847D01*
X8330561Y-32488744D01*
X8549143Y-32398428D01*
X8802538Y-32145475D01*
X8939843Y-31814806D01*
X8940156Y-31456764D01*
X8803428Y-31125857D01*
X8550475Y-30872462D01*
X8338393Y-30784399D01*
X8475366Y-30757153D01*
X8547483Y-30572103D01*
X8040000Y-30064619D01*
X7532517Y-30572103D01*
X7604634Y-30757153D01*
X7749439Y-30781256D01*
X7530857Y-30871572D01*
X7277462Y-31124525D01*
X7140157Y-31455194D01*
X7139844Y-31813236D01*
X1050000Y-31813236D01*
X1050000Y-29643684D01*
X6808942Y-29643684D01*
X6887847Y-30040366D01*
X7072897Y-30112483D01*
X7580381Y-29605000D01*
X8499619Y-29605000D01*
X9007103Y-30112483D01*
X9093068Y-30078981D01*
X9057462Y-30114525D01*
X8920157Y-30445194D01*
X8919844Y-30803236D01*
X9056572Y-31134143D01*
X9309525Y-31387538D01*
X9640194Y-31524843D01*
X9998236Y-31525156D01*
X10329143Y-31388428D01*
X10582538Y-31135475D01*
X10719843Y-30804806D01*
X10720156Y-30446764D01*
X10583428Y-30115857D01*
X10405422Y-29937539D01*
X16505380Y-29937539D01*
X16610888Y-30192889D01*
X16806084Y-30388425D01*
X17061249Y-30494379D01*
X17337539Y-30494620D01*
X17592889Y-30389112D01*
X17788425Y-30193916D01*
X17894379Y-29938751D01*
X17894380Y-29937539D01*
X18205380Y-29937539D01*
X18310888Y-30192889D01*
X18506084Y-30388425D01*
X18761249Y-30494379D01*
X19037539Y-30494620D01*
X19292889Y-30389112D01*
X19488425Y-30193916D01*
X19594379Y-29938751D01*
X19594620Y-29662461D01*
X19489112Y-29407111D01*
X19293916Y-29211575D01*
X19038751Y-29105621D01*
X18762461Y-29105380D01*
X18507111Y-29210888D01*
X18311575Y-29406084D01*
X18205621Y-29661249D01*
X18205380Y-29937539D01*
X17894380Y-29937539D01*
X17894620Y-29662461D01*
X17789112Y-29407111D01*
X17593916Y-29211575D01*
X17338751Y-29105621D01*
X17062461Y-29105380D01*
X16807111Y-29210888D01*
X16611575Y-29406084D01*
X16505621Y-29661249D01*
X16505380Y-29937539D01*
X10405422Y-29937539D01*
X10330475Y-29862462D01*
X9999806Y-29725157D01*
X9641764Y-29724844D01*
X9310857Y-29861572D01*
X9204189Y-29968054D01*
X9271058Y-29566316D01*
X9209623Y-29257461D01*
X9309525Y-29357538D01*
X9640194Y-29494843D01*
X9998236Y-29495156D01*
X10329143Y-29358428D01*
X10582538Y-29105475D01*
X10719843Y-28774806D01*
X10720156Y-28416764D01*
X10583428Y-28085857D01*
X10330475Y-27832462D01*
X9999806Y-27695157D01*
X9641764Y-27694844D01*
X9310857Y-27831572D01*
X9057462Y-28084525D01*
X8920157Y-28415194D01*
X8919844Y-28773236D01*
X9056572Y-29104143D01*
X9077246Y-29124853D01*
X9007103Y-29097517D01*
X8499619Y-29605000D01*
X7580381Y-29605000D01*
X7072897Y-29097517D01*
X6887847Y-29169634D01*
X6808942Y-29643684D01*
X1050000Y-29643684D01*
X1050000Y-27753236D01*
X7139844Y-27753236D01*
X7276572Y-28084143D01*
X7529525Y-28337538D01*
X7741607Y-28425601D01*
X7604634Y-28452847D01*
X7532517Y-28637897D01*
X8040000Y-29145381D01*
X8547483Y-28637897D01*
X8475366Y-28452847D01*
X8330561Y-28428744D01*
X8549143Y-28338428D01*
X8802538Y-28085475D01*
X8939843Y-27754806D01*
X8940156Y-27396764D01*
X8803428Y-27065857D01*
X8550475Y-26812462D01*
X8219806Y-26675157D01*
X7861764Y-26674844D01*
X7530857Y-26811572D01*
X7277462Y-27064525D01*
X7140157Y-27395194D01*
X7139844Y-27753236D01*
X1050000Y-27753236D01*
X1050000Y-25220589D01*
X3249610Y-25220589D01*
X3591431Y-26047858D01*
X4223813Y-26681345D01*
X5050484Y-27024608D01*
X5945589Y-27025390D01*
X6772858Y-26683569D01*
X6818968Y-26637539D01*
X21805380Y-26637539D01*
X21910888Y-26892889D01*
X22106084Y-27088425D01*
X22361249Y-27194379D01*
X22637539Y-27194620D01*
X22892889Y-27089112D01*
X23088425Y-26893916D01*
X23194379Y-26638751D01*
X23194620Y-26362461D01*
X23089112Y-26107111D01*
X22893916Y-25911575D01*
X22638751Y-25805621D01*
X22362461Y-25805380D01*
X22107111Y-25910888D01*
X21911575Y-26106084D01*
X21805621Y-26361249D01*
X21805380Y-26637539D01*
X6818968Y-26637539D01*
X7406345Y-26051187D01*
X7749608Y-25224516D01*
X7750390Y-24329411D01*
X7408569Y-23502142D01*
X7154422Y-23247550D01*
X7679783Y-23247550D01*
X7869684Y-23707143D01*
X8221007Y-24059081D01*
X8680269Y-24249783D01*
X9177550Y-24250217D01*
X9637143Y-24060316D01*
X9989081Y-23708993D01*
X10122560Y-23387539D01*
X15805380Y-23387539D01*
X15910888Y-23642889D01*
X16106084Y-23838425D01*
X16361249Y-23944379D01*
X16637539Y-23944620D01*
X16892889Y-23839112D01*
X17088425Y-23643916D01*
X17194379Y-23388751D01*
X17194620Y-23112461D01*
X17089112Y-22857111D01*
X16893916Y-22661575D01*
X16638751Y-22555621D01*
X16362461Y-22555380D01*
X16107111Y-22660888D01*
X15911575Y-22856084D01*
X15805621Y-23111249D01*
X15805380Y-23387539D01*
X10122560Y-23387539D01*
X10179783Y-23249731D01*
X10180217Y-22752450D01*
X9990316Y-22292857D01*
X9638993Y-21940919D01*
X9179731Y-21750217D01*
X8682450Y-21749783D01*
X8222857Y-21939684D01*
X7870919Y-22291007D01*
X7680217Y-22750269D01*
X7679783Y-23247550D01*
X7154422Y-23247550D01*
X6776187Y-22868655D01*
X5949516Y-22525392D01*
X5054411Y-22524610D01*
X4227142Y-22866431D01*
X3593655Y-23498813D01*
X3250392Y-24325484D01*
X3249610Y-25220589D01*
X1050000Y-25220589D01*
X1050000Y-21300000D01*
X32700000Y-21300000D01*
X32700000Y-40000000D01*
X32700000Y-40000000D01*
G37*
X32700000Y-40000000D02*
X32703939Y-40019453D01*
X32715136Y-40035840D01*
X32731827Y-40046581D01*
X32750000Y-40050000D01*
X40200000Y-40050000D01*
X40200000Y-56450000D01*
X1050000Y-56450000D01*
X1050000Y-53670589D01*
X3249610Y-53670589D01*
X3591431Y-54497858D01*
X4223813Y-55131345D01*
X5050484Y-55474608D01*
X5945589Y-55475390D01*
X6497003Y-55247550D01*
X7679783Y-55247550D01*
X7869684Y-55707143D01*
X8221007Y-56059081D01*
X8680269Y-56249783D01*
X9177550Y-56250217D01*
X9637143Y-56060316D01*
X9989081Y-55708993D01*
X10179783Y-55249731D01*
X10179793Y-55237539D01*
X23305380Y-55237539D01*
X23410888Y-55492889D01*
X23606084Y-55688425D01*
X23861249Y-55794379D01*
X24137539Y-55794620D01*
X24392889Y-55689112D01*
X24588425Y-55493916D01*
X24694379Y-55238751D01*
X24694467Y-55137539D01*
X36905380Y-55137539D01*
X37010888Y-55392889D01*
X37206084Y-55588425D01*
X37461249Y-55694379D01*
X37737539Y-55694620D01*
X37992889Y-55589112D01*
X38188425Y-55393916D01*
X38294379Y-55138751D01*
X38294620Y-54862461D01*
X38189112Y-54607111D01*
X37993916Y-54411575D01*
X37738751Y-54305621D01*
X37462461Y-54305380D01*
X37207111Y-54410888D01*
X37011575Y-54606084D01*
X36905621Y-54861249D01*
X36905380Y-55137539D01*
X24694467Y-55137539D01*
X24694620Y-54962461D01*
X24589112Y-54707111D01*
X24393916Y-54511575D01*
X24138751Y-54405621D01*
X23862461Y-54405380D01*
X23607111Y-54510888D01*
X23411575Y-54706084D01*
X23305621Y-54961249D01*
X23305380Y-55237539D01*
X10179793Y-55237539D01*
X10180217Y-54752450D01*
X10132737Y-54637539D01*
X16305380Y-54637539D01*
X16410888Y-54892889D01*
X16606084Y-55088425D01*
X16861249Y-55194379D01*
X17137539Y-55194620D01*
X17392889Y-55089112D01*
X17588425Y-54893916D01*
X17694379Y-54638751D01*
X17694620Y-54362461D01*
X17643004Y-54237539D01*
X35205380Y-54237539D01*
X35310888Y-54492889D01*
X35506084Y-54688425D01*
X35761249Y-54794379D01*
X36037539Y-54794620D01*
X36292889Y-54689112D01*
X36488425Y-54493916D01*
X36594379Y-54238751D01*
X36594620Y-53962461D01*
X36489112Y-53707111D01*
X36293916Y-53511575D01*
X36038751Y-53405621D01*
X35762461Y-53405380D01*
X35507111Y-53510888D01*
X35311575Y-53706084D01*
X35205621Y-53961249D01*
X35205380Y-54237539D01*
X17643004Y-54237539D01*
X17589112Y-54107111D01*
X17393916Y-53911575D01*
X17138751Y-53805621D01*
X16862461Y-53805380D01*
X16607111Y-53910888D01*
X16411575Y-54106084D01*
X16305621Y-54361249D01*
X16305380Y-54637539D01*
X10132737Y-54637539D01*
X9990316Y-54292857D01*
X9638993Y-53940919D01*
X9630854Y-53937539D01*
X11505380Y-53937539D01*
X11610888Y-54192889D01*
X11806084Y-54388425D01*
X12061249Y-54494379D01*
X12337539Y-54494620D01*
X12592889Y-54389112D01*
X12788425Y-54193916D01*
X12894379Y-53938751D01*
X12894620Y-53662461D01*
X12789112Y-53407111D01*
X12593916Y-53211575D01*
X12338751Y-53105621D01*
X12062461Y-53105380D01*
X11807111Y-53210888D01*
X11611575Y-53406084D01*
X11505621Y-53661249D01*
X11505380Y-53937539D01*
X9630854Y-53937539D01*
X9179731Y-53750217D01*
X8682450Y-53749783D01*
X8222857Y-53939684D01*
X7870919Y-54291007D01*
X7680217Y-54750269D01*
X7679783Y-55247550D01*
X6497003Y-55247550D01*
X6772858Y-55133569D01*
X7406345Y-54501187D01*
X7749608Y-53674516D01*
X7750390Y-52779411D01*
X7408569Y-51952142D01*
X6776187Y-51318655D01*
X5949516Y-50975392D01*
X5054411Y-50974610D01*
X4227142Y-51316431D01*
X3593655Y-51948813D01*
X3250392Y-52775484D01*
X3249610Y-53670589D01*
X1050000Y-53670589D01*
X1050000Y-50382103D01*
X7532517Y-50382103D01*
X7604634Y-50567153D01*
X8078684Y-50646058D01*
X8475366Y-50567153D01*
X8547483Y-50382103D01*
X8040000Y-49874619D01*
X7532517Y-50382103D01*
X1050000Y-50382103D01*
X1050000Y-49453684D01*
X6808942Y-49453684D01*
X6887847Y-49850366D01*
X7072897Y-49922483D01*
X7580381Y-49415000D01*
X8499619Y-49415000D01*
X9007103Y-49922483D01*
X9093068Y-49888981D01*
X9057462Y-49924525D01*
X8920157Y-50255194D01*
X8919844Y-50613236D01*
X9056572Y-50944143D01*
X9309525Y-51197538D01*
X9640194Y-51334843D01*
X9998236Y-51335156D01*
X10329143Y-51198428D01*
X10582538Y-50945475D01*
X10719843Y-50614806D01*
X10720156Y-50256764D01*
X10583428Y-49925857D01*
X10330475Y-49672462D01*
X9999806Y-49535157D01*
X9641764Y-49534844D01*
X9310857Y-49671572D01*
X9204189Y-49778054D01*
X9271058Y-49376316D01*
X9209623Y-49067461D01*
X9309525Y-49167538D01*
X9640194Y-49304843D01*
X9998236Y-49305156D01*
X10329143Y-49168428D01*
X10360085Y-49137539D01*
X29705380Y-49137539D01*
X29810888Y-49392889D01*
X30006084Y-49588425D01*
X30261249Y-49694379D01*
X30537539Y-49694620D01*
X30792889Y-49589112D01*
X30988425Y-49393916D01*
X31094379Y-49138751D01*
X31094380Y-49137539D01*
X31105380Y-49137539D01*
X31210888Y-49392889D01*
X31406084Y-49588425D01*
X31661249Y-49694379D01*
X31937539Y-49694620D01*
X32192889Y-49589112D01*
X32388425Y-49393916D01*
X32494379Y-49138751D01*
X32494380Y-49137539D01*
X32505380Y-49137539D01*
X32610888Y-49392889D01*
X32806084Y-49588425D01*
X33061249Y-49694379D01*
X33337539Y-49694620D01*
X33592889Y-49589112D01*
X33788425Y-49393916D01*
X33894379Y-49138751D01*
X33894478Y-49025130D01*
X34061249Y-49094379D01*
X34337539Y-49094620D01*
X34592889Y-48989112D01*
X34788425Y-48793916D01*
X34894379Y-48538751D01*
X34894620Y-48262461D01*
X34789112Y-48007111D01*
X34593916Y-47811575D01*
X34338751Y-47705621D01*
X34062461Y-47705380D01*
X33807111Y-47810888D01*
X33611575Y-48006084D01*
X33505621Y-48261249D01*
X33505522Y-48374870D01*
X33338751Y-48305621D01*
X33062461Y-48305380D01*
X32807111Y-48410888D01*
X32611575Y-48606084D01*
X32505621Y-48861249D01*
X32505380Y-49137539D01*
X32494380Y-49137539D01*
X32494620Y-48862461D01*
X32389112Y-48607111D01*
X32193916Y-48411575D01*
X31938751Y-48305621D01*
X31662461Y-48305380D01*
X31407111Y-48410888D01*
X31211575Y-48606084D01*
X31105621Y-48861249D01*
X31105380Y-49137539D01*
X31094380Y-49137539D01*
X31094620Y-48862461D01*
X30989112Y-48607111D01*
X30793916Y-48411575D01*
X30538751Y-48305621D01*
X30262461Y-48305380D01*
X30007111Y-48410888D01*
X29811575Y-48606084D01*
X29705621Y-48861249D01*
X29705380Y-49137539D01*
X10360085Y-49137539D01*
X10582538Y-48915475D01*
X10719843Y-48584806D01*
X10720156Y-48226764D01*
X10583428Y-47895857D01*
X10330475Y-47642462D01*
X9999806Y-47505157D01*
X9641764Y-47504844D01*
X9310857Y-47641572D01*
X9057462Y-47894525D01*
X8920157Y-48225194D01*
X8919844Y-48583236D01*
X9056572Y-48914143D01*
X9077246Y-48934853D01*
X9007103Y-48907517D01*
X8499619Y-49415000D01*
X7580381Y-49415000D01*
X7072897Y-48907517D01*
X6887847Y-48979634D01*
X6808942Y-49453684D01*
X1050000Y-49453684D01*
X1050000Y-47563236D01*
X7139844Y-47563236D01*
X7276572Y-47894143D01*
X7529525Y-48147538D01*
X7741607Y-48235601D01*
X7604634Y-48262847D01*
X7532517Y-48447897D01*
X8040000Y-48955381D01*
X8547483Y-48447897D01*
X8475366Y-48262847D01*
X8330561Y-48238744D01*
X8549143Y-48148428D01*
X8802538Y-47895475D01*
X8939843Y-47564806D01*
X8940156Y-47206764D01*
X8803428Y-46875857D01*
X8550475Y-46622462D01*
X8338393Y-46534399D01*
X8475366Y-46507153D01*
X8547483Y-46322103D01*
X8040000Y-45814619D01*
X7532517Y-46322103D01*
X7604634Y-46507153D01*
X7749439Y-46531256D01*
X7530857Y-46621572D01*
X7277462Y-46874525D01*
X7140157Y-47205194D01*
X7139844Y-47563236D01*
X1050000Y-47563236D01*
X1050000Y-45393684D01*
X6808942Y-45393684D01*
X6887847Y-45790366D01*
X7072897Y-45862483D01*
X7580381Y-45355000D01*
X8499619Y-45355000D01*
X9007103Y-45862483D01*
X9093068Y-45828981D01*
X9057462Y-45864525D01*
X8920157Y-46195194D01*
X8919844Y-46553236D01*
X9056572Y-46884143D01*
X9309525Y-47137538D01*
X9640194Y-47274843D01*
X9998236Y-47275156D01*
X10329143Y-47138428D01*
X10582538Y-46885475D01*
X10719843Y-46554806D01*
X10720156Y-46196764D01*
X10704521Y-46158922D01*
X26049905Y-46158922D01*
X26133461Y-46361143D01*
X26288043Y-46515995D01*
X26490118Y-46599904D01*
X26708922Y-46600095D01*
X26911143Y-46516539D01*
X27065995Y-46361957D01*
X27149904Y-46159882D01*
X27150095Y-45941078D01*
X27066539Y-45738857D01*
X26911957Y-45584005D01*
X26709882Y-45500096D01*
X26491078Y-45499905D01*
X26288857Y-45583461D01*
X26134005Y-45738043D01*
X26050096Y-45940118D01*
X26049905Y-46158922D01*
X10704521Y-46158922D01*
X10583428Y-45865857D01*
X10330475Y-45612462D01*
X9999806Y-45475157D01*
X9641764Y-45474844D01*
X9310857Y-45611572D01*
X9204189Y-45718054D01*
X9271058Y-45316316D01*
X9209623Y-45007461D01*
X9309525Y-45107538D01*
X9640194Y-45244843D01*
X9998236Y-45245156D01*
X10329143Y-45108428D01*
X10582538Y-44855475D01*
X10719843Y-44524806D01*
X10720156Y-44166764D01*
X10583428Y-43835857D01*
X10330475Y-43582462D01*
X9999806Y-43445157D01*
X9641764Y-43444844D01*
X9310857Y-43581572D01*
X9057462Y-43834525D01*
X8920157Y-44165194D01*
X8919844Y-44523236D01*
X9056572Y-44854143D01*
X9077246Y-44874853D01*
X9007103Y-44847517D01*
X8499619Y-45355000D01*
X7580381Y-45355000D01*
X7072897Y-44847517D01*
X6887847Y-44919634D01*
X6808942Y-45393684D01*
X1050000Y-45393684D01*
X1050000Y-43503236D01*
X7139844Y-43503236D01*
X7276572Y-43834143D01*
X7529525Y-44087538D01*
X7741607Y-44175601D01*
X7604634Y-44202847D01*
X7532517Y-44387897D01*
X8040000Y-44895381D01*
X8547483Y-44387897D01*
X8475366Y-44202847D01*
X8330561Y-44178744D01*
X8549143Y-44088428D01*
X8802538Y-43835475D01*
X8939843Y-43504806D01*
X8940156Y-43146764D01*
X8803428Y-42815857D01*
X8550475Y-42562462D01*
X8219806Y-42425157D01*
X7861764Y-42424844D01*
X7530857Y-42561572D01*
X7277462Y-42814525D01*
X7140157Y-43145194D01*
X7139844Y-43503236D01*
X1050000Y-43503236D01*
X1050000Y-41437539D01*
X33705380Y-41437539D01*
X33810888Y-41692889D01*
X34006084Y-41888425D01*
X34261249Y-41994379D01*
X34537539Y-41994620D01*
X34792889Y-41889112D01*
X34988425Y-41693916D01*
X35094379Y-41438751D01*
X35094620Y-41162461D01*
X34989112Y-40907111D01*
X34793916Y-40711575D01*
X34538751Y-40605621D01*
X34262461Y-40605380D01*
X34007111Y-40710888D01*
X33811575Y-40906084D01*
X33705621Y-41161249D01*
X33705380Y-41437539D01*
X1050000Y-41437539D01*
X1050000Y-34632103D01*
X7532517Y-34632103D01*
X7604634Y-34817153D01*
X8078684Y-34896058D01*
X8475366Y-34817153D01*
X8547483Y-34632103D01*
X8040000Y-34124619D01*
X7532517Y-34632103D01*
X1050000Y-34632103D01*
X1050000Y-33703684D01*
X6808942Y-33703684D01*
X6887847Y-34100366D01*
X7072897Y-34172483D01*
X7580381Y-33665000D01*
X8499619Y-33665000D01*
X9007103Y-34172483D01*
X9093068Y-34138981D01*
X9057462Y-34174525D01*
X8920157Y-34505194D01*
X8919844Y-34863236D01*
X9056572Y-35194143D01*
X9309525Y-35447538D01*
X9640194Y-35584843D01*
X9998236Y-35585156D01*
X10329143Y-35448428D01*
X10582538Y-35195475D01*
X10719843Y-34864806D01*
X10720156Y-34506764D01*
X10583428Y-34175857D01*
X10330475Y-33922462D01*
X9999806Y-33785157D01*
X9641764Y-33784844D01*
X9310857Y-33921572D01*
X9204189Y-34028054D01*
X9271058Y-33626316D01*
X9209623Y-33317461D01*
X9309525Y-33417538D01*
X9640194Y-33554843D01*
X9998236Y-33555156D01*
X10329143Y-33418428D01*
X10582538Y-33165475D01*
X10719843Y-32834806D01*
X10720156Y-32476764D01*
X10583428Y-32145857D01*
X10330475Y-31892462D01*
X10198205Y-31837539D01*
X24605380Y-31837539D01*
X24710888Y-32092889D01*
X24906084Y-32288425D01*
X25161249Y-32394379D01*
X25437539Y-32394620D01*
X25692889Y-32289112D01*
X25888425Y-32093916D01*
X25994379Y-31838751D01*
X25994620Y-31562461D01*
X25889112Y-31307111D01*
X25693916Y-31111575D01*
X25438751Y-31005621D01*
X25162461Y-31005380D01*
X24907111Y-31110888D01*
X24711575Y-31306084D01*
X24605621Y-31561249D01*
X24605380Y-31837539D01*
X10198205Y-31837539D01*
X9999806Y-31755157D01*
X9641764Y-31754844D01*
X9310857Y-31891572D01*
X9057462Y-32144525D01*
X8920157Y-32475194D01*
X8919844Y-32833236D01*
X9056572Y-33164143D01*
X9077246Y-33184853D01*
X9007103Y-33157517D01*
X8499619Y-33665000D01*
X7580381Y-33665000D01*
X7072897Y-33157517D01*
X6887847Y-33229634D01*
X6808942Y-33703684D01*
X1050000Y-33703684D01*
X1050000Y-31813236D01*
X7139844Y-31813236D01*
X7276572Y-32144143D01*
X7529525Y-32397538D01*
X7741607Y-32485601D01*
X7604634Y-32512847D01*
X7532517Y-32697897D01*
X8040000Y-33205381D01*
X8547483Y-32697897D01*
X8475366Y-32512847D01*
X8330561Y-32488744D01*
X8549143Y-32398428D01*
X8802538Y-32145475D01*
X8939843Y-31814806D01*
X8940156Y-31456764D01*
X8803428Y-31125857D01*
X8550475Y-30872462D01*
X8338393Y-30784399D01*
X8475366Y-30757153D01*
X8547483Y-30572103D01*
X8040000Y-30064619D01*
X7532517Y-30572103D01*
X7604634Y-30757153D01*
X7749439Y-30781256D01*
X7530857Y-30871572D01*
X7277462Y-31124525D01*
X7140157Y-31455194D01*
X7139844Y-31813236D01*
X1050000Y-31813236D01*
X1050000Y-29643684D01*
X6808942Y-29643684D01*
X6887847Y-30040366D01*
X7072897Y-30112483D01*
X7580381Y-29605000D01*
X8499619Y-29605000D01*
X9007103Y-30112483D01*
X9093068Y-30078981D01*
X9057462Y-30114525D01*
X8920157Y-30445194D01*
X8919844Y-30803236D01*
X9056572Y-31134143D01*
X9309525Y-31387538D01*
X9640194Y-31524843D01*
X9998236Y-31525156D01*
X10329143Y-31388428D01*
X10582538Y-31135475D01*
X10719843Y-30804806D01*
X10720156Y-30446764D01*
X10583428Y-30115857D01*
X10405422Y-29937539D01*
X16505380Y-29937539D01*
X16610888Y-30192889D01*
X16806084Y-30388425D01*
X17061249Y-30494379D01*
X17337539Y-30494620D01*
X17592889Y-30389112D01*
X17788425Y-30193916D01*
X17894379Y-29938751D01*
X17894380Y-29937539D01*
X18205380Y-29937539D01*
X18310888Y-30192889D01*
X18506084Y-30388425D01*
X18761249Y-30494379D01*
X19037539Y-30494620D01*
X19292889Y-30389112D01*
X19488425Y-30193916D01*
X19594379Y-29938751D01*
X19594620Y-29662461D01*
X19489112Y-29407111D01*
X19293916Y-29211575D01*
X19038751Y-29105621D01*
X18762461Y-29105380D01*
X18507111Y-29210888D01*
X18311575Y-29406084D01*
X18205621Y-29661249D01*
X18205380Y-29937539D01*
X17894380Y-29937539D01*
X17894620Y-29662461D01*
X17789112Y-29407111D01*
X17593916Y-29211575D01*
X17338751Y-29105621D01*
X17062461Y-29105380D01*
X16807111Y-29210888D01*
X16611575Y-29406084D01*
X16505621Y-29661249D01*
X16505380Y-29937539D01*
X10405422Y-29937539D01*
X10330475Y-29862462D01*
X9999806Y-29725157D01*
X9641764Y-29724844D01*
X9310857Y-29861572D01*
X9204189Y-29968054D01*
X9271058Y-29566316D01*
X9209623Y-29257461D01*
X9309525Y-29357538D01*
X9640194Y-29494843D01*
X9998236Y-29495156D01*
X10329143Y-29358428D01*
X10582538Y-29105475D01*
X10719843Y-28774806D01*
X10720156Y-28416764D01*
X10583428Y-28085857D01*
X10330475Y-27832462D01*
X9999806Y-27695157D01*
X9641764Y-27694844D01*
X9310857Y-27831572D01*
X9057462Y-28084525D01*
X8920157Y-28415194D01*
X8919844Y-28773236D01*
X9056572Y-29104143D01*
X9077246Y-29124853D01*
X9007103Y-29097517D01*
X8499619Y-29605000D01*
X7580381Y-29605000D01*
X7072897Y-29097517D01*
X6887847Y-29169634D01*
X6808942Y-29643684D01*
X1050000Y-29643684D01*
X1050000Y-27753236D01*
X7139844Y-27753236D01*
X7276572Y-28084143D01*
X7529525Y-28337538D01*
X7741607Y-28425601D01*
X7604634Y-28452847D01*
X7532517Y-28637897D01*
X8040000Y-29145381D01*
X8547483Y-28637897D01*
X8475366Y-28452847D01*
X8330561Y-28428744D01*
X8549143Y-28338428D01*
X8802538Y-28085475D01*
X8939843Y-27754806D01*
X8940156Y-27396764D01*
X8803428Y-27065857D01*
X8550475Y-26812462D01*
X8219806Y-26675157D01*
X7861764Y-26674844D01*
X7530857Y-26811572D01*
X7277462Y-27064525D01*
X7140157Y-27395194D01*
X7139844Y-27753236D01*
X1050000Y-27753236D01*
X1050000Y-25220589D01*
X3249610Y-25220589D01*
X3591431Y-26047858D01*
X4223813Y-26681345D01*
X5050484Y-27024608D01*
X5945589Y-27025390D01*
X6772858Y-26683569D01*
X6818968Y-26637539D01*
X21805380Y-26637539D01*
X21910888Y-26892889D01*
X22106084Y-27088425D01*
X22361249Y-27194379D01*
X22637539Y-27194620D01*
X22892889Y-27089112D01*
X23088425Y-26893916D01*
X23194379Y-26638751D01*
X23194620Y-26362461D01*
X23089112Y-26107111D01*
X22893916Y-25911575D01*
X22638751Y-25805621D01*
X22362461Y-25805380D01*
X22107111Y-25910888D01*
X21911575Y-26106084D01*
X21805621Y-26361249D01*
X21805380Y-26637539D01*
X6818968Y-26637539D01*
X7406345Y-26051187D01*
X7749608Y-25224516D01*
X7750390Y-24329411D01*
X7408569Y-23502142D01*
X7154422Y-23247550D01*
X7679783Y-23247550D01*
X7869684Y-23707143D01*
X8221007Y-24059081D01*
X8680269Y-24249783D01*
X9177550Y-24250217D01*
X9637143Y-24060316D01*
X9989081Y-23708993D01*
X10122560Y-23387539D01*
X15805380Y-23387539D01*
X15910888Y-23642889D01*
X16106084Y-23838425D01*
X16361249Y-23944379D01*
X16637539Y-23944620D01*
X16892889Y-23839112D01*
X17088425Y-23643916D01*
X17194379Y-23388751D01*
X17194620Y-23112461D01*
X17089112Y-22857111D01*
X16893916Y-22661575D01*
X16638751Y-22555621D01*
X16362461Y-22555380D01*
X16107111Y-22660888D01*
X15911575Y-22856084D01*
X15805621Y-23111249D01*
X15805380Y-23387539D01*
X10122560Y-23387539D01*
X10179783Y-23249731D01*
X10180217Y-22752450D01*
X9990316Y-22292857D01*
X9638993Y-21940919D01*
X9179731Y-21750217D01*
X8682450Y-21749783D01*
X8222857Y-21939684D01*
X7870919Y-22291007D01*
X7680217Y-22750269D01*
X7679783Y-23247550D01*
X7154422Y-23247550D01*
X6776187Y-22868655D01*
X5949516Y-22525392D01*
X5054411Y-22524610D01*
X4227142Y-22866431D01*
X3593655Y-23498813D01*
X3250392Y-24325484D01*
X3249610Y-25220589D01*
X1050000Y-25220589D01*
X1050000Y-21300000D01*
X32700000Y-21300000D01*
X32700000Y-40000000D01*
G36*
X49160000Y-21000000D02*
X49163939Y-21019453D01*
X49175136Y-21035840D01*
X49191827Y-21046581D01*
X49210000Y-21050000D01*
X55132148Y-21050000D01*
X55050618Y-21131388D01*
X54897675Y-21499716D01*
X54897326Y-21898535D01*
X55049626Y-22267129D01*
X55331388Y-22549382D01*
X55450000Y-22598634D01*
X55450000Y-28632092D01*
X55400618Y-28681388D01*
X55289081Y-28950000D01*
X51750000Y-28950000D01*
X51730547Y-28953939D01*
X51720000Y-28960000D01*
X50720000Y-29710000D01*
X50706801Y-29724823D01*
X50700000Y-29750000D01*
X50700000Y-39200000D01*
X45117908Y-39200000D01*
X45068612Y-39150618D01*
X44700284Y-38997675D01*
X44301465Y-38997326D01*
X43932871Y-39149626D01*
X43882409Y-39200000D01*
X40802413Y-39200000D01*
X40802674Y-38901465D01*
X40650374Y-38532871D01*
X40368612Y-38250618D01*
X40000284Y-38097675D01*
X39601465Y-38097326D01*
X39232871Y-38249626D01*
X38950618Y-38531388D01*
X38797675Y-38899716D01*
X38797412Y-39200000D01*
X33550000Y-39200000D01*
X33550000Y-36498535D01*
X43597326Y-36498535D01*
X43749626Y-36867129D01*
X44031388Y-37149382D01*
X44399716Y-37302325D01*
X44798535Y-37302674D01*
X45167129Y-37150374D01*
X45449382Y-36868612D01*
X45602325Y-36500284D01*
X45602674Y-36101465D01*
X45450374Y-35732871D01*
X45168612Y-35450618D01*
X44800284Y-35297675D01*
X44401465Y-35297326D01*
X44032871Y-35449626D01*
X43750618Y-35731388D01*
X43597675Y-36099716D01*
X43597326Y-36498535D01*
X33550000Y-36498535D01*
X33550000Y-28740000D01*
X35564416Y-28740000D01*
X35671594Y-29278818D01*
X35976810Y-29735606D01*
X36433598Y-30040822D01*
X36972416Y-30148000D01*
X37027584Y-30148000D01*
X37566402Y-30040822D01*
X38023190Y-29735606D01*
X38114777Y-29598535D01*
X39397326Y-29598535D01*
X39549626Y-29967129D01*
X39831388Y-30249382D01*
X40199716Y-30402325D01*
X40598535Y-30402674D01*
X40967129Y-30250374D01*
X41249382Y-29968612D01*
X41402325Y-29600284D01*
X41402674Y-29201465D01*
X41250374Y-28832871D01*
X40968612Y-28550618D01*
X40600284Y-28397675D01*
X40201465Y-28397326D01*
X39832871Y-28549626D01*
X39550618Y-28831388D01*
X39397675Y-29199716D01*
X39397326Y-29598535D01*
X38114777Y-29598535D01*
X38328406Y-29278818D01*
X38435584Y-28740000D01*
X38328406Y-28201182D01*
X38023190Y-27744394D01*
X37819062Y-27608000D01*
X38200002Y-27608000D01*
X38200002Y-27489130D01*
X38323049Y-27366082D01*
X38408000Y-27160993D01*
X38408000Y-26764500D01*
X38268500Y-26625000D01*
X37425000Y-26625000D01*
X37425000Y-27050000D01*
X36575000Y-27050000D01*
X36575000Y-26625000D01*
X35731500Y-26625000D01*
X35592000Y-26764500D01*
X35592000Y-27160993D01*
X35676951Y-27366082D01*
X35799998Y-27489130D01*
X35799998Y-27608000D01*
X36180938Y-27608000D01*
X35976810Y-27744394D01*
X35671594Y-28201182D01*
X35564416Y-28740000D01*
X33550000Y-28740000D01*
X33550000Y-26398535D01*
X38597326Y-26398535D01*
X38749626Y-26767129D01*
X39031388Y-27049382D01*
X39399716Y-27202325D01*
X39798535Y-27202674D01*
X40167129Y-27050374D01*
X40449382Y-26768612D01*
X40602325Y-26400284D01*
X40602326Y-26398535D01*
X46797326Y-26398535D01*
X46949626Y-26767129D01*
X47231388Y-27049382D01*
X47599716Y-27202325D01*
X47998535Y-27202674D01*
X48367129Y-27050374D01*
X48649382Y-26768612D01*
X48678480Y-26698535D01*
X52747326Y-26698535D01*
X52899626Y-27067129D01*
X53181388Y-27349382D01*
X53549716Y-27502325D01*
X53948535Y-27502674D01*
X54317129Y-27350374D01*
X54599382Y-27068612D01*
X54752325Y-26700284D01*
X54752674Y-26301465D01*
X54600374Y-25932871D01*
X54318612Y-25650618D01*
X53950284Y-25497675D01*
X53551465Y-25497326D01*
X53182871Y-25649626D01*
X52900618Y-25931388D01*
X52747675Y-26299716D01*
X52747326Y-26698535D01*
X48678480Y-26698535D01*
X48802325Y-26400284D01*
X48802674Y-26001465D01*
X48650374Y-25632871D01*
X48368612Y-25350618D01*
X48000284Y-25197675D01*
X47601465Y-25197326D01*
X47232871Y-25349626D01*
X46950618Y-25631388D01*
X46797675Y-25999716D01*
X46797326Y-26398535D01*
X40602326Y-26398535D01*
X40602674Y-26001465D01*
X40450374Y-25632871D01*
X40168612Y-25350618D01*
X39800284Y-25197675D01*
X39401465Y-25197326D01*
X39032871Y-25349626D01*
X38750618Y-25631388D01*
X38597675Y-25999716D01*
X38597326Y-26398535D01*
X33550000Y-26398535D01*
X33550000Y-25239007D01*
X35592000Y-25239007D01*
X35592000Y-25635500D01*
X35731500Y-25775000D01*
X36575000Y-25775000D01*
X36575000Y-24931500D01*
X37425000Y-24931500D01*
X37425000Y-25775000D01*
X38268500Y-25775000D01*
X38408000Y-25635500D01*
X38408000Y-25239007D01*
X38323049Y-25033918D01*
X38166082Y-24876950D01*
X37960993Y-24792000D01*
X37564500Y-24792000D01*
X37425000Y-24931500D01*
X36575000Y-24931500D01*
X36435500Y-24792000D01*
X36039007Y-24792000D01*
X35833918Y-24876950D01*
X35676951Y-25033918D01*
X35592000Y-25239007D01*
X33550000Y-25239007D01*
X33550000Y-21300000D01*
X38250000Y-21300000D01*
X38251163Y-21299986D01*
X38289163Y-21299102D01*
X38308519Y-21294712D01*
X38324642Y-21283137D01*
X38334991Y-21266201D01*
X38338000Y-21249116D01*
X38338000Y-4618000D01*
X49160000Y-4618000D01*
X49160000Y-21000000D01*
X49160000Y-21000000D01*
G37*
X49160000Y-21000000D02*
X49163939Y-21019453D01*
X49175136Y-21035840D01*
X49191827Y-21046581D01*
X49210000Y-21050000D01*
X55132148Y-21050000D01*
X55050618Y-21131388D01*
X54897675Y-21499716D01*
X54897326Y-21898535D01*
X55049626Y-22267129D01*
X55331388Y-22549382D01*
X55450000Y-22598634D01*
X55450000Y-28632092D01*
X55400618Y-28681388D01*
X55289081Y-28950000D01*
X51750000Y-28950000D01*
X51730547Y-28953939D01*
X51720000Y-28960000D01*
X50720000Y-29710000D01*
X50706801Y-29724823D01*
X50700000Y-29750000D01*
X50700000Y-39200000D01*
X45117908Y-39200000D01*
X45068612Y-39150618D01*
X44700284Y-38997675D01*
X44301465Y-38997326D01*
X43932871Y-39149626D01*
X43882409Y-39200000D01*
X40802413Y-39200000D01*
X40802674Y-38901465D01*
X40650374Y-38532871D01*
X40368612Y-38250618D01*
X40000284Y-38097675D01*
X39601465Y-38097326D01*
X39232871Y-38249626D01*
X38950618Y-38531388D01*
X38797675Y-38899716D01*
X38797412Y-39200000D01*
X33550000Y-39200000D01*
X33550000Y-36498535D01*
X43597326Y-36498535D01*
X43749626Y-36867129D01*
X44031388Y-37149382D01*
X44399716Y-37302325D01*
X44798535Y-37302674D01*
X45167129Y-37150374D01*
X45449382Y-36868612D01*
X45602325Y-36500284D01*
X45602674Y-36101465D01*
X45450374Y-35732871D01*
X45168612Y-35450618D01*
X44800284Y-35297675D01*
X44401465Y-35297326D01*
X44032871Y-35449626D01*
X43750618Y-35731388D01*
X43597675Y-36099716D01*
X43597326Y-36498535D01*
X33550000Y-36498535D01*
X33550000Y-28740000D01*
X35564416Y-28740000D01*
X35671594Y-29278818D01*
X35976810Y-29735606D01*
X36433598Y-30040822D01*
X36972416Y-30148000D01*
X37027584Y-30148000D01*
X37566402Y-30040822D01*
X38023190Y-29735606D01*
X38114777Y-29598535D01*
X39397326Y-29598535D01*
X39549626Y-29967129D01*
X39831388Y-30249382D01*
X40199716Y-30402325D01*
X40598535Y-30402674D01*
X40967129Y-30250374D01*
X41249382Y-29968612D01*
X41402325Y-29600284D01*
X41402674Y-29201465D01*
X41250374Y-28832871D01*
X40968612Y-28550618D01*
X40600284Y-28397675D01*
X40201465Y-28397326D01*
X39832871Y-28549626D01*
X39550618Y-28831388D01*
X39397675Y-29199716D01*
X39397326Y-29598535D01*
X38114777Y-29598535D01*
X38328406Y-29278818D01*
X38435584Y-28740000D01*
X38328406Y-28201182D01*
X38023190Y-27744394D01*
X37819062Y-27608000D01*
X38200002Y-27608000D01*
X38200002Y-27489130D01*
X38323049Y-27366082D01*
X38408000Y-27160993D01*
X38408000Y-26764500D01*
X38268500Y-26625000D01*
X37425000Y-26625000D01*
X37425000Y-27050000D01*
X36575000Y-27050000D01*
X36575000Y-26625000D01*
X35731500Y-26625000D01*
X35592000Y-26764500D01*
X35592000Y-27160993D01*
X35676951Y-27366082D01*
X35799998Y-27489130D01*
X35799998Y-27608000D01*
X36180938Y-27608000D01*
X35976810Y-27744394D01*
X35671594Y-28201182D01*
X35564416Y-28740000D01*
X33550000Y-28740000D01*
X33550000Y-26398535D01*
X38597326Y-26398535D01*
X38749626Y-26767129D01*
X39031388Y-27049382D01*
X39399716Y-27202325D01*
X39798535Y-27202674D01*
X40167129Y-27050374D01*
X40449382Y-26768612D01*
X40602325Y-26400284D01*
X40602326Y-26398535D01*
X46797326Y-26398535D01*
X46949626Y-26767129D01*
X47231388Y-27049382D01*
X47599716Y-27202325D01*
X47998535Y-27202674D01*
X48367129Y-27050374D01*
X48649382Y-26768612D01*
X48678480Y-26698535D01*
X52747326Y-26698535D01*
X52899626Y-27067129D01*
X53181388Y-27349382D01*
X53549716Y-27502325D01*
X53948535Y-27502674D01*
X54317129Y-27350374D01*
X54599382Y-27068612D01*
X54752325Y-26700284D01*
X54752674Y-26301465D01*
X54600374Y-25932871D01*
X54318612Y-25650618D01*
X53950284Y-25497675D01*
X53551465Y-25497326D01*
X53182871Y-25649626D01*
X52900618Y-25931388D01*
X52747675Y-26299716D01*
X52747326Y-26698535D01*
X48678480Y-26698535D01*
X48802325Y-26400284D01*
X48802674Y-26001465D01*
X48650374Y-25632871D01*
X48368612Y-25350618D01*
X48000284Y-25197675D01*
X47601465Y-25197326D01*
X47232871Y-25349626D01*
X46950618Y-25631388D01*
X46797675Y-25999716D01*
X46797326Y-26398535D01*
X40602326Y-26398535D01*
X40602674Y-26001465D01*
X40450374Y-25632871D01*
X40168612Y-25350618D01*
X39800284Y-25197675D01*
X39401465Y-25197326D01*
X39032871Y-25349626D01*
X38750618Y-25631388D01*
X38597675Y-25999716D01*
X38597326Y-26398535D01*
X33550000Y-26398535D01*
X33550000Y-25239007D01*
X35592000Y-25239007D01*
X35592000Y-25635500D01*
X35731500Y-25775000D01*
X36575000Y-25775000D01*
X36575000Y-24931500D01*
X37425000Y-24931500D01*
X37425000Y-25775000D01*
X38268500Y-25775000D01*
X38408000Y-25635500D01*
X38408000Y-25239007D01*
X38323049Y-25033918D01*
X38166082Y-24876950D01*
X37960993Y-24792000D01*
X37564500Y-24792000D01*
X37425000Y-24931500D01*
X36575000Y-24931500D01*
X36435500Y-24792000D01*
X36039007Y-24792000D01*
X35833918Y-24876950D01*
X35676951Y-25033918D01*
X35592000Y-25239007D01*
X33550000Y-25239007D01*
X33550000Y-21300000D01*
X38250000Y-21300000D01*
X38251163Y-21299986D01*
X38289163Y-21299102D01*
X38308519Y-21294712D01*
X38324642Y-21283137D01*
X38334991Y-21266201D01*
X38338000Y-21249116D01*
X38338000Y-4618000D01*
X49160000Y-4618000D01*
X49160000Y-21000000D01*
G36*
X59800000Y-32120710D02*
X59800000Y-33600000D01*
X59803939Y-33619453D01*
X59814645Y-33635355D01*
X60464645Y-34285355D01*
X60481185Y-34296325D01*
X60500000Y-34300000D01*
X60700000Y-34300000D01*
X60700000Y-34729290D01*
X60214645Y-35214645D01*
X60203675Y-35231185D01*
X60200000Y-35250000D01*
X60200000Y-38679290D01*
X59929290Y-38950000D01*
X53520710Y-38950000D01*
X53300000Y-38729290D01*
X53300000Y-33020710D01*
X54520710Y-31800000D01*
X59479290Y-31800000D01*
X59800000Y-32120710D01*
X59800000Y-32120710D01*
G37*
X59800000Y-32120710D02*
X59800000Y-33600000D01*
X59803939Y-33619453D01*
X59814645Y-33635355D01*
X60464645Y-34285355D01*
X60481185Y-34296325D01*
X60500000Y-34300000D01*
X60700000Y-34300000D01*
X60700000Y-34729290D01*
X60214645Y-35214645D01*
X60203675Y-35231185D01*
X60200000Y-35250000D01*
X60200000Y-38679290D01*
X59929290Y-38950000D01*
X53520710Y-38950000D01*
X53300000Y-38729290D01*
X53300000Y-33020710D01*
X54520710Y-31800000D01*
X59479290Y-31800000D01*
X59800000Y-32120710D01*
G36*
X50110888Y-59092889D02*
X50306084Y-59288425D01*
X50561249Y-59394379D01*
X50837539Y-59394620D01*
X51092889Y-59289112D01*
X51288425Y-59093916D01*
X51306661Y-59050000D01*
X56450000Y-59050000D01*
X56450000Y-68000000D01*
X56453939Y-68019453D01*
X56465136Y-68035840D01*
X56481827Y-68046581D01*
X56500000Y-68050000D01*
X66450000Y-68050000D01*
X66450000Y-78000000D01*
X66453939Y-78019453D01*
X66465136Y-78035840D01*
X66481827Y-78046581D01*
X66500000Y-78050000D01*
X66867900Y-78050000D01*
X67006084Y-78188425D01*
X67261249Y-78294379D01*
X67537539Y-78294620D01*
X67792889Y-78189112D01*
X67932243Y-78050000D01*
X68950000Y-78050000D01*
X68950000Y-85450000D01*
X55050000Y-85450000D01*
X55050000Y-84559886D01*
X65111673Y-84559886D01*
X65263593Y-84927560D01*
X65544652Y-85209110D01*
X65912061Y-85361672D01*
X66309886Y-85362019D01*
X66677560Y-85210099D01*
X66959110Y-84929040D01*
X67111672Y-84561631D01*
X67112019Y-84163806D01*
X66960099Y-83796132D01*
X66679040Y-83514582D01*
X66311631Y-83362020D01*
X65913806Y-83361673D01*
X65546132Y-83513593D01*
X65264582Y-83794652D01*
X65112020Y-84162061D01*
X65111673Y-84559886D01*
X55050000Y-84559886D01*
X55050000Y-84000000D01*
X55046061Y-83980547D01*
X55035355Y-83964645D01*
X52808249Y-81737539D01*
X59705380Y-81737539D01*
X59810888Y-81992889D01*
X60006084Y-82188425D01*
X60261249Y-82294379D01*
X60537539Y-82294620D01*
X60792889Y-82189112D01*
X60988425Y-81993916D01*
X61094379Y-81738751D01*
X61094620Y-81462461D01*
X60989112Y-81207111D01*
X60793916Y-81011575D01*
X60538751Y-80905621D01*
X60262461Y-80905380D01*
X60007111Y-81010888D01*
X59811575Y-81206084D01*
X59705621Y-81461249D01*
X59705380Y-81737539D01*
X52808249Y-81737539D01*
X52535355Y-81464645D01*
X52518815Y-81453675D01*
X52500000Y-81450000D01*
X51020710Y-81450000D01*
X50394566Y-80823856D01*
X50394620Y-80762461D01*
X50289112Y-80507111D01*
X50093916Y-80311575D01*
X49838751Y-80205621D01*
X49562461Y-80205380D01*
X49307111Y-80310888D01*
X49167757Y-80450000D01*
X46632100Y-80450000D01*
X46493916Y-80311575D01*
X46238751Y-80205621D01*
X45962461Y-80205380D01*
X45707111Y-80310888D01*
X45567757Y-80450000D01*
X44106833Y-80450000D01*
X44089112Y-80407111D01*
X43893916Y-80211575D01*
X43638751Y-80105621D01*
X43362461Y-80105380D01*
X43107111Y-80210888D01*
X42911575Y-80406084D01*
X42805621Y-80661249D01*
X42805380Y-80937539D01*
X42810529Y-80950000D01*
X41500000Y-80950000D01*
X41480547Y-80953939D01*
X41464645Y-80964645D01*
X37464645Y-84964645D01*
X37453675Y-84981185D01*
X37450000Y-85000000D01*
X37450000Y-86950000D01*
X17950000Y-86950000D01*
X17950000Y-85537539D01*
X20905380Y-85537539D01*
X21010888Y-85792889D01*
X21206084Y-85988425D01*
X21461249Y-86094379D01*
X21737539Y-86094620D01*
X21992889Y-85989112D01*
X22188425Y-85793916D01*
X22253358Y-85637539D01*
X29305380Y-85637539D01*
X29410888Y-85892889D01*
X29606084Y-86088425D01*
X29861249Y-86194379D01*
X30137539Y-86194620D01*
X30392889Y-86089112D01*
X30588425Y-85893916D01*
X30694379Y-85638751D01*
X30694620Y-85362461D01*
X30589112Y-85107111D01*
X30393916Y-84911575D01*
X30138751Y-84805621D01*
X29862461Y-84805380D01*
X29607111Y-84910888D01*
X29411575Y-85106084D01*
X29305621Y-85361249D01*
X29305380Y-85637539D01*
X22253358Y-85637539D01*
X22294379Y-85538751D01*
X22294620Y-85262461D01*
X22189112Y-85007111D01*
X21993916Y-84811575D01*
X21738751Y-84705621D01*
X21462461Y-84705380D01*
X21207111Y-84810888D01*
X21011575Y-85006084D01*
X20905621Y-85261249D01*
X20905380Y-85537539D01*
X17950000Y-85537539D01*
X17950000Y-84637539D01*
X19805380Y-84637539D01*
X19910888Y-84892889D01*
X20106084Y-85088425D01*
X20361249Y-85194379D01*
X20637539Y-85194620D01*
X20892889Y-85089112D01*
X21088425Y-84893916D01*
X21194379Y-84638751D01*
X21194620Y-84362461D01*
X21089112Y-84107111D01*
X20893916Y-83911575D01*
X20638751Y-83805621D01*
X20362461Y-83805380D01*
X20107111Y-83910888D01*
X19911575Y-84106084D01*
X19805621Y-84361249D01*
X19805380Y-84637539D01*
X17950000Y-84637539D01*
X17950000Y-83698040D01*
X22619827Y-83698040D01*
X22771747Y-84065714D01*
X23052806Y-84347264D01*
X23420215Y-84499826D01*
X23818040Y-84500173D01*
X24185714Y-84348253D01*
X24396796Y-84137539D01*
X24805380Y-84137539D01*
X24910888Y-84392889D01*
X25106084Y-84588425D01*
X25361249Y-84694379D01*
X25637539Y-84694620D01*
X25892889Y-84589112D01*
X26088425Y-84393916D01*
X26194379Y-84138751D01*
X26194620Y-83862461D01*
X26089112Y-83607111D01*
X25893916Y-83411575D01*
X25638751Y-83305621D01*
X25362461Y-83305380D01*
X25107111Y-83410888D01*
X24911575Y-83606084D01*
X24805621Y-83861249D01*
X24805380Y-84137539D01*
X24396796Y-84137539D01*
X24467264Y-84067194D01*
X24619826Y-83699785D01*
X24620173Y-83301960D01*
X24468253Y-82934286D01*
X24187194Y-82652736D01*
X23819785Y-82500174D01*
X23421960Y-82499827D01*
X23054286Y-82651747D01*
X22772736Y-82932806D01*
X22620174Y-83300215D01*
X22619827Y-83698040D01*
X17950000Y-83698040D01*
X17950000Y-82137539D01*
X19805380Y-82137539D01*
X19910888Y-82392889D01*
X20106084Y-82588425D01*
X20361249Y-82694379D01*
X20637539Y-82694620D01*
X20892889Y-82589112D01*
X21088425Y-82393916D01*
X21194379Y-82138751D01*
X21194620Y-81862461D01*
X21101685Y-81637539D01*
X21805380Y-81637539D01*
X21910888Y-81892889D01*
X22106084Y-82088425D01*
X22361249Y-82194379D01*
X22637539Y-82194620D01*
X22892889Y-82089112D01*
X23088425Y-81893916D01*
X23194379Y-81638751D01*
X23194380Y-81637539D01*
X24805380Y-81637539D01*
X24910888Y-81892889D01*
X25106084Y-82088425D01*
X25361249Y-82194379D01*
X25637539Y-82194620D01*
X25892889Y-82089112D01*
X26088425Y-81893916D01*
X26194379Y-81638751D01*
X26194620Y-81362461D01*
X26089112Y-81107111D01*
X25893916Y-80911575D01*
X25638751Y-80805621D01*
X25362461Y-80805380D01*
X25107111Y-80910888D01*
X24911575Y-81106084D01*
X24805621Y-81361249D01*
X24805380Y-81637539D01*
X23194380Y-81637539D01*
X23194620Y-81362461D01*
X23089112Y-81107111D01*
X22893916Y-80911575D01*
X22638751Y-80805621D01*
X22362461Y-80805380D01*
X22107111Y-80910888D01*
X21911575Y-81106084D01*
X21805621Y-81361249D01*
X21805380Y-81637539D01*
X21101685Y-81637539D01*
X21089112Y-81607111D01*
X20893916Y-81411575D01*
X20638751Y-81305621D01*
X20362461Y-81305380D01*
X20107111Y-81410888D01*
X19911575Y-81606084D01*
X19805621Y-81861249D01*
X19805380Y-82137539D01*
X17950000Y-82137539D01*
X17950000Y-80637539D01*
X30705380Y-80637539D01*
X30810888Y-80892889D01*
X31006084Y-81088425D01*
X31261249Y-81194379D01*
X31537539Y-81194620D01*
X31792889Y-81089112D01*
X31988425Y-80893916D01*
X32011834Y-80837539D01*
X32205380Y-80837539D01*
X32310888Y-81092889D01*
X32506084Y-81288425D01*
X32761249Y-81394379D01*
X33037539Y-81394620D01*
X33292889Y-81289112D01*
X33488425Y-81093916D01*
X33594379Y-80838751D01*
X33594620Y-80562461D01*
X33489112Y-80307111D01*
X33293916Y-80111575D01*
X33038751Y-80005621D01*
X32762461Y-80005380D01*
X32507111Y-80110888D01*
X32311575Y-80306084D01*
X32205621Y-80561249D01*
X32205380Y-80837539D01*
X32011834Y-80837539D01*
X32094379Y-80638751D01*
X32094620Y-80362461D01*
X31989112Y-80107111D01*
X31793916Y-79911575D01*
X31538751Y-79805621D01*
X31262461Y-79805380D01*
X31007111Y-79910888D01*
X30811575Y-80106084D01*
X30705621Y-80361249D01*
X30705380Y-80637539D01*
X17950000Y-80637539D01*
X17950000Y-80500000D01*
X17946061Y-80480547D01*
X17934864Y-80464160D01*
X17918173Y-80453419D01*
X17900000Y-80450000D01*
X17550000Y-80450000D01*
X17550000Y-79437539D01*
X39555380Y-79437539D01*
X39660888Y-79692889D01*
X39856084Y-79888425D01*
X40111249Y-79994379D01*
X40387539Y-79994620D01*
X40642889Y-79889112D01*
X40838425Y-79693916D01*
X40944379Y-79438751D01*
X40944380Y-79437539D01*
X56405380Y-79437539D01*
X56510888Y-79692889D01*
X56706084Y-79888425D01*
X56961249Y-79994379D01*
X57237539Y-79994620D01*
X57492889Y-79889112D01*
X57688425Y-79693916D01*
X57750021Y-79545578D01*
X57810888Y-79692889D01*
X58006084Y-79888425D01*
X58261249Y-79994379D01*
X58537539Y-79994620D01*
X58792889Y-79889112D01*
X58988425Y-79693916D01*
X59094379Y-79438751D01*
X59094380Y-79437539D01*
X59105380Y-79437539D01*
X59210888Y-79692889D01*
X59406084Y-79888425D01*
X59661249Y-79994379D01*
X59937539Y-79994620D01*
X60192889Y-79889112D01*
X60388425Y-79693916D01*
X60494379Y-79438751D01*
X60494620Y-79162461D01*
X60389112Y-78907111D01*
X60193916Y-78711575D01*
X59938751Y-78605621D01*
X59662461Y-78605380D01*
X59407111Y-78710888D01*
X59211575Y-78906084D01*
X59105621Y-79161249D01*
X59105380Y-79437539D01*
X59094380Y-79437539D01*
X59094620Y-79162461D01*
X58989112Y-78907111D01*
X58793916Y-78711575D01*
X58538751Y-78605621D01*
X58262461Y-78605380D01*
X58007111Y-78710888D01*
X57811575Y-78906084D01*
X57749979Y-79054422D01*
X57689112Y-78907111D01*
X57493916Y-78711575D01*
X57238751Y-78605621D01*
X56962461Y-78605380D01*
X56707111Y-78710888D01*
X56511575Y-78906084D01*
X56405621Y-79161249D01*
X56405380Y-79437539D01*
X40944380Y-79437539D01*
X40944620Y-79162461D01*
X40839112Y-78907111D01*
X40643916Y-78711575D01*
X40388751Y-78605621D01*
X40112461Y-78605380D01*
X39857111Y-78710888D01*
X39661575Y-78906084D01*
X39555621Y-79161249D01*
X39555380Y-79437539D01*
X17550000Y-79437539D01*
X17550000Y-78137539D01*
X28305380Y-78137539D01*
X28410888Y-78392889D01*
X28606084Y-78588425D01*
X28861249Y-78694379D01*
X29137539Y-78694620D01*
X29392889Y-78589112D01*
X29588425Y-78393916D01*
X29694379Y-78138751D01*
X29694620Y-77862461D01*
X29631180Y-77708922D01*
X45949905Y-77708922D01*
X46033461Y-77911143D01*
X46188043Y-78065995D01*
X46390118Y-78149904D01*
X46608922Y-78150095D01*
X46811143Y-78066539D01*
X46913947Y-77963915D01*
X46933461Y-78011143D01*
X47088043Y-78165995D01*
X47290118Y-78249904D01*
X47508922Y-78250095D01*
X47711143Y-78166539D01*
X47865995Y-78011957D01*
X47896896Y-77937539D01*
X58705380Y-77937539D01*
X58810888Y-78192889D01*
X59006084Y-78388425D01*
X59261249Y-78494379D01*
X59537539Y-78494620D01*
X59792889Y-78389112D01*
X59988425Y-78193916D01*
X60094379Y-77938751D01*
X60094620Y-77662461D01*
X59989112Y-77407111D01*
X59793916Y-77211575D01*
X59538751Y-77105621D01*
X59262461Y-77105380D01*
X59007111Y-77210888D01*
X58811575Y-77406084D01*
X58705621Y-77661249D01*
X58705380Y-77937539D01*
X47896896Y-77937539D01*
X47949904Y-77809882D01*
X47950095Y-77591078D01*
X47866539Y-77388857D01*
X47711957Y-77234005D01*
X47509882Y-77150096D01*
X47291078Y-77149905D01*
X47088857Y-77233461D01*
X46986053Y-77336085D01*
X46966539Y-77288857D01*
X46811957Y-77134005D01*
X46609882Y-77050096D01*
X46391078Y-77049905D01*
X46188857Y-77133461D01*
X46034005Y-77288043D01*
X45950096Y-77490118D01*
X45949905Y-77708922D01*
X29631180Y-77708922D01*
X29589112Y-77607111D01*
X29393916Y-77411575D01*
X29138751Y-77305621D01*
X28862461Y-77305380D01*
X28607111Y-77410888D01*
X28411575Y-77606084D01*
X28305621Y-77861249D01*
X28305380Y-78137539D01*
X17550000Y-78137539D01*
X17550000Y-76637539D01*
X20305380Y-76637539D01*
X20410888Y-76892889D01*
X20606084Y-77088425D01*
X20861249Y-77194379D01*
X21137539Y-77194620D01*
X21392889Y-77089112D01*
X21588425Y-76893916D01*
X21665241Y-76708922D01*
X39249905Y-76708922D01*
X39333461Y-76911143D01*
X39488043Y-77065995D01*
X39690118Y-77149904D01*
X39908922Y-77150095D01*
X40111143Y-77066539D01*
X40265995Y-76911957D01*
X40349904Y-76709882D01*
X40350095Y-76491078D01*
X40266539Y-76288857D01*
X40215311Y-76237539D01*
X51005380Y-76237539D01*
X51110888Y-76492889D01*
X51306084Y-76688425D01*
X51561249Y-76794379D01*
X51837539Y-76794620D01*
X52092889Y-76689112D01*
X52288425Y-76493916D01*
X52394379Y-76238751D01*
X52394620Y-75962461D01*
X52289112Y-75707111D01*
X52093916Y-75511575D01*
X51838751Y-75405621D01*
X51562461Y-75405380D01*
X51307111Y-75510888D01*
X51111575Y-75706084D01*
X51005621Y-75961249D01*
X51005380Y-76237539D01*
X40215311Y-76237539D01*
X40111957Y-76134005D01*
X39909882Y-76050096D01*
X39691078Y-76049905D01*
X39488857Y-76133461D01*
X39334005Y-76288043D01*
X39250096Y-76490118D01*
X39249905Y-76708922D01*
X21665241Y-76708922D01*
X21694379Y-76638751D01*
X21694620Y-76362461D01*
X21589112Y-76107111D01*
X21393916Y-75911575D01*
X21138751Y-75805621D01*
X20862461Y-75805380D01*
X20607111Y-75910888D01*
X20411575Y-76106084D01*
X20305621Y-76361249D01*
X20305380Y-76637539D01*
X17550000Y-76637539D01*
X17550000Y-75194544D01*
X17637539Y-75194620D01*
X17775686Y-75137539D01*
X18805380Y-75137539D01*
X18910888Y-75392889D01*
X19106084Y-75588425D01*
X19361249Y-75694379D01*
X19637539Y-75694620D01*
X19892889Y-75589112D01*
X20088425Y-75393916D01*
X20174120Y-75187539D01*
X41255380Y-75187539D01*
X41360888Y-75442889D01*
X41556084Y-75638425D01*
X41811249Y-75744379D01*
X42087539Y-75744620D01*
X42342889Y-75639112D01*
X42538425Y-75443916D01*
X42644379Y-75188751D01*
X42644620Y-74912461D01*
X42539112Y-74657111D01*
X42343916Y-74461575D01*
X42088751Y-74355621D01*
X41812461Y-74355380D01*
X41557111Y-74460888D01*
X41361575Y-74656084D01*
X41255621Y-74911249D01*
X41255380Y-75187539D01*
X20174120Y-75187539D01*
X20194379Y-75138751D01*
X20194620Y-74862461D01*
X20089112Y-74607111D01*
X19893916Y-74411575D01*
X19638751Y-74305621D01*
X19362461Y-74305380D01*
X19107111Y-74410888D01*
X18911575Y-74606084D01*
X18805621Y-74861249D01*
X18805380Y-75137539D01*
X17775686Y-75137539D01*
X17892889Y-75089112D01*
X18088425Y-74893916D01*
X18194379Y-74638751D01*
X18194620Y-74362461D01*
X18101685Y-74137539D01*
X27805380Y-74137539D01*
X27910888Y-74392889D01*
X28106084Y-74588425D01*
X28361249Y-74694379D01*
X28637539Y-74694620D01*
X28892889Y-74589112D01*
X29088425Y-74393916D01*
X29194379Y-74138751D01*
X29194380Y-74137539D01*
X29805380Y-74137539D01*
X29910888Y-74392889D01*
X30106084Y-74588425D01*
X30361249Y-74694379D01*
X30637539Y-74694620D01*
X30892889Y-74589112D01*
X31088425Y-74393916D01*
X31194379Y-74138751D01*
X31194620Y-73862461D01*
X31131180Y-73708922D01*
X41349905Y-73708922D01*
X41433461Y-73911143D01*
X41588043Y-74065995D01*
X41790118Y-74149904D01*
X42008922Y-74150095D01*
X42211143Y-74066539D01*
X42365995Y-73911957D01*
X42449904Y-73709882D01*
X42450095Y-73491078D01*
X42366539Y-73288857D01*
X42211957Y-73134005D01*
X42009882Y-73050096D01*
X41791078Y-73049905D01*
X41588857Y-73133461D01*
X41434005Y-73288043D01*
X41350096Y-73490118D01*
X41349905Y-73708922D01*
X31131180Y-73708922D01*
X31089112Y-73607111D01*
X30893916Y-73411575D01*
X30638751Y-73305621D01*
X30362461Y-73305380D01*
X30107111Y-73410888D01*
X29911575Y-73606084D01*
X29805621Y-73861249D01*
X29805380Y-74137539D01*
X29194380Y-74137539D01*
X29194620Y-73862461D01*
X29089112Y-73607111D01*
X28893916Y-73411575D01*
X28638751Y-73305621D01*
X28362461Y-73305380D01*
X28107111Y-73410888D01*
X27911575Y-73606084D01*
X27805621Y-73861249D01*
X27805380Y-74137539D01*
X18101685Y-74137539D01*
X18089112Y-74107111D01*
X17893916Y-73911575D01*
X17638751Y-73805621D01*
X17550000Y-73805544D01*
X17550000Y-71564500D01*
X18092000Y-71564500D01*
X18092000Y-71960993D01*
X18176950Y-72166082D01*
X18333918Y-72323049D01*
X18539007Y-72408000D01*
X18935500Y-72408000D01*
X19075000Y-72268500D01*
X19075000Y-71425000D01*
X19925000Y-71425000D01*
X19925000Y-72268500D01*
X20064500Y-72408000D01*
X20460993Y-72408000D01*
X20666082Y-72323049D01*
X20823050Y-72166082D01*
X20908000Y-71960993D01*
X20908000Y-71564500D01*
X20768500Y-71425000D01*
X19925000Y-71425000D01*
X19075000Y-71425000D01*
X18231500Y-71425000D01*
X18092000Y-71564500D01*
X17550000Y-71564500D01*
X17550000Y-70978450D01*
X20940000Y-70978450D01*
X20940000Y-71021550D01*
X21023733Y-71442502D01*
X21262183Y-71799367D01*
X21619048Y-72037817D01*
X22040000Y-72121550D01*
X22460952Y-72037817D01*
X22817817Y-71799367D01*
X23056267Y-71442502D01*
X23140000Y-71021550D01*
X23140000Y-70978450D01*
X23056267Y-70557498D01*
X22817817Y-70200633D01*
X22460952Y-69962183D01*
X22040000Y-69878450D01*
X21619048Y-69962183D01*
X21262183Y-70200633D01*
X21023733Y-70557498D01*
X20940000Y-70978450D01*
X17550000Y-70978450D01*
X17550000Y-70039007D01*
X18092000Y-70039007D01*
X18092000Y-70435500D01*
X18231500Y-70575000D01*
X19075000Y-70575000D01*
X19075000Y-69731500D01*
X19925000Y-69731500D01*
X19925000Y-70575000D01*
X20768500Y-70575000D01*
X20908000Y-70435500D01*
X20908000Y-70039007D01*
X20823050Y-69833918D01*
X20666082Y-69676951D01*
X20460993Y-69592000D01*
X20064500Y-69592000D01*
X19925000Y-69731500D01*
X19075000Y-69731500D01*
X18935500Y-69592000D01*
X18539007Y-69592000D01*
X18333918Y-69676951D01*
X18176950Y-69833918D01*
X18092000Y-70039007D01*
X17550000Y-70039007D01*
X17550000Y-69050000D01*
X24115000Y-69050000D01*
X24115000Y-72500000D01*
X24182367Y-72838675D01*
X24374210Y-73125790D01*
X24661325Y-73317633D01*
X25000000Y-73385000D01*
X25338675Y-73317633D01*
X25625790Y-73125790D01*
X25817633Y-72838675D01*
X25857641Y-72637539D01*
X29805380Y-72637539D01*
X29910888Y-72892889D01*
X30106084Y-73088425D01*
X30361249Y-73194379D01*
X30637539Y-73194620D01*
X30892889Y-73089112D01*
X31088425Y-72893916D01*
X31194379Y-72638751D01*
X31194380Y-72637539D01*
X31805380Y-72637539D01*
X31910888Y-72892889D01*
X32106084Y-73088425D01*
X32361249Y-73194379D01*
X32637539Y-73194620D01*
X32892889Y-73089112D01*
X33088425Y-72893916D01*
X33194379Y-72638751D01*
X33194380Y-72637539D01*
X33805380Y-72637539D01*
X33910888Y-72892889D01*
X34106084Y-73088425D01*
X34361249Y-73194379D01*
X34637539Y-73194620D01*
X34892889Y-73089112D01*
X35088425Y-72893916D01*
X35111834Y-72837539D01*
X51005380Y-72837539D01*
X51110888Y-73092889D01*
X51306084Y-73288425D01*
X51463825Y-73353925D01*
X51411575Y-73406084D01*
X51305621Y-73661249D01*
X51305380Y-73937539D01*
X51410888Y-74192889D01*
X51606084Y-74388425D01*
X51861249Y-74494379D01*
X52137539Y-74494620D01*
X52392889Y-74389112D01*
X52588425Y-74193916D01*
X52694379Y-73938751D01*
X52694620Y-73662461D01*
X52589112Y-73407111D01*
X52393916Y-73211575D01*
X52236175Y-73146075D01*
X52288425Y-73093916D01*
X52394379Y-72838751D01*
X52394467Y-72737539D01*
X58905380Y-72737539D01*
X59010888Y-72992889D01*
X59206084Y-73188425D01*
X59461249Y-73294379D01*
X59737539Y-73294620D01*
X59992889Y-73189112D01*
X60188425Y-72993916D01*
X60294379Y-72738751D01*
X60294620Y-72462461D01*
X60189112Y-72207111D01*
X59993916Y-72011575D01*
X59738751Y-71905621D01*
X59462461Y-71905380D01*
X59207111Y-72010888D01*
X59011575Y-72206084D01*
X58905621Y-72461249D01*
X58905380Y-72737539D01*
X52394467Y-72737539D01*
X52394620Y-72562461D01*
X52289112Y-72307111D01*
X52093916Y-72111575D01*
X51838751Y-72005621D01*
X51562461Y-72005380D01*
X51307111Y-72110888D01*
X51111575Y-72306084D01*
X51005621Y-72561249D01*
X51005380Y-72837539D01*
X35111834Y-72837539D01*
X35194379Y-72638751D01*
X35194620Y-72362461D01*
X35089112Y-72107111D01*
X34893916Y-71911575D01*
X34638751Y-71805621D01*
X34362461Y-71805380D01*
X34107111Y-71910888D01*
X33911575Y-72106084D01*
X33805621Y-72361249D01*
X33805380Y-72637539D01*
X33194380Y-72637539D01*
X33194620Y-72362461D01*
X33089112Y-72107111D01*
X32893916Y-71911575D01*
X32638751Y-71805621D01*
X32362461Y-71805380D01*
X32107111Y-71910888D01*
X31911575Y-72106084D01*
X31805621Y-72361249D01*
X31805380Y-72637539D01*
X31194380Y-72637539D01*
X31194620Y-72362461D01*
X31089112Y-72107111D01*
X30893916Y-71911575D01*
X30638751Y-71805621D01*
X30362461Y-71805380D01*
X30107111Y-71910888D01*
X29911575Y-72106084D01*
X29805621Y-72361249D01*
X29805380Y-72637539D01*
X25857641Y-72637539D01*
X25885000Y-72500000D01*
X25885000Y-71337539D01*
X32705380Y-71337539D01*
X32810888Y-71592889D01*
X33006084Y-71788425D01*
X33261249Y-71894379D01*
X33537539Y-71894620D01*
X33792889Y-71789112D01*
X33988425Y-71593916D01*
X34094379Y-71338751D01*
X34094579Y-71108922D01*
X37449905Y-71108922D01*
X37533461Y-71311143D01*
X37688043Y-71465995D01*
X37890118Y-71549904D01*
X38108922Y-71550095D01*
X38311143Y-71466539D01*
X38465995Y-71311957D01*
X38538419Y-71137539D01*
X57905380Y-71137539D01*
X58010888Y-71392889D01*
X58206084Y-71588425D01*
X58461249Y-71694379D01*
X58737539Y-71694620D01*
X58992889Y-71589112D01*
X59188425Y-71393916D01*
X59294379Y-71138751D01*
X59294620Y-70862461D01*
X59189112Y-70607111D01*
X58993916Y-70411575D01*
X58738751Y-70305621D01*
X58462461Y-70305380D01*
X58207111Y-70410888D01*
X58011575Y-70606084D01*
X57905621Y-70861249D01*
X57905380Y-71137539D01*
X38538419Y-71137539D01*
X38549904Y-71109882D01*
X38550095Y-70891078D01*
X38466539Y-70688857D01*
X38311957Y-70534005D01*
X38109882Y-70450096D01*
X37891078Y-70449905D01*
X37688857Y-70533461D01*
X37534005Y-70688043D01*
X37450096Y-70890118D01*
X37449905Y-71108922D01*
X34094579Y-71108922D01*
X34094620Y-71062461D01*
X33989112Y-70807111D01*
X33793916Y-70611575D01*
X33538751Y-70505621D01*
X33262461Y-70505380D01*
X33007111Y-70610888D01*
X32811575Y-70806084D01*
X32705621Y-71061249D01*
X32705380Y-71337539D01*
X25885000Y-71337539D01*
X25885000Y-69837539D01*
X39505380Y-69837539D01*
X39610888Y-70092889D01*
X39806084Y-70288425D01*
X40061249Y-70394379D01*
X40337539Y-70394620D01*
X40592889Y-70289112D01*
X40788425Y-70093916D01*
X40894379Y-69838751D01*
X40894380Y-69837539D01*
X41305380Y-69837539D01*
X41410888Y-70092889D01*
X41606084Y-70288425D01*
X41861249Y-70394379D01*
X42137539Y-70394620D01*
X42392889Y-70289112D01*
X42588425Y-70093916D01*
X42694379Y-69838751D01*
X42694620Y-69562461D01*
X42589112Y-69307111D01*
X42393916Y-69111575D01*
X42138751Y-69005621D01*
X41862461Y-69005380D01*
X41607111Y-69110888D01*
X41411575Y-69306084D01*
X41305621Y-69561249D01*
X41305380Y-69837539D01*
X40894380Y-69837539D01*
X40894620Y-69562461D01*
X40789112Y-69307111D01*
X40593916Y-69111575D01*
X40338751Y-69005621D01*
X40062461Y-69005380D01*
X39807111Y-69110888D01*
X39611575Y-69306084D01*
X39505621Y-69561249D01*
X39505380Y-69837539D01*
X25885000Y-69837539D01*
X25885000Y-69050000D01*
X36000000Y-69050000D01*
X36019453Y-69046061D01*
X36035840Y-69034864D01*
X36046581Y-69018173D01*
X36050000Y-69000000D01*
X36050000Y-68637539D01*
X37305380Y-68637539D01*
X37410888Y-68892889D01*
X37606084Y-69088425D01*
X37861249Y-69194379D01*
X38137539Y-69194620D01*
X38392889Y-69089112D01*
X38588425Y-68893916D01*
X38694379Y-68638751D01*
X38694620Y-68362461D01*
X38643004Y-68237539D01*
X49305380Y-68237539D01*
X49410888Y-68492889D01*
X49606084Y-68688425D01*
X49861249Y-68794379D01*
X50137539Y-68794620D01*
X50283455Y-68734329D01*
X50211575Y-68806084D01*
X50105621Y-69061249D01*
X50105380Y-69337539D01*
X50210888Y-69592889D01*
X50406084Y-69788425D01*
X50661249Y-69894379D01*
X50937539Y-69894620D01*
X51192889Y-69789112D01*
X51244551Y-69737539D01*
X57705380Y-69737539D01*
X57810888Y-69992889D01*
X58006084Y-70188425D01*
X58261249Y-70294379D01*
X58537539Y-70294620D01*
X58792889Y-70189112D01*
X58988425Y-69993916D01*
X59094379Y-69738751D01*
X59094620Y-69462461D01*
X58989112Y-69207111D01*
X58793916Y-69011575D01*
X58615618Y-68937539D01*
X60505380Y-68937539D01*
X60610888Y-69192889D01*
X60806084Y-69388425D01*
X61061249Y-69494379D01*
X61337539Y-69494620D01*
X61592889Y-69389112D01*
X61788425Y-69193916D01*
X61894379Y-68938751D01*
X61894620Y-68662461D01*
X61789112Y-68407111D01*
X61593916Y-68211575D01*
X61338751Y-68105621D01*
X61062461Y-68105380D01*
X60807111Y-68210888D01*
X60611575Y-68406084D01*
X60505621Y-68661249D01*
X60505380Y-68937539D01*
X58615618Y-68937539D01*
X58538751Y-68905621D01*
X58262461Y-68905380D01*
X58007111Y-69010888D01*
X57811575Y-69206084D01*
X57705621Y-69461249D01*
X57705380Y-69737539D01*
X51244551Y-69737539D01*
X51388425Y-69593916D01*
X51494379Y-69338751D01*
X51494620Y-69062461D01*
X51389112Y-68807111D01*
X51193916Y-68611575D01*
X50938751Y-68505621D01*
X50662461Y-68505380D01*
X50516545Y-68565671D01*
X50588425Y-68493916D01*
X50694379Y-68238751D01*
X50694620Y-67962461D01*
X50589112Y-67707111D01*
X50393916Y-67511575D01*
X50138751Y-67405621D01*
X49862461Y-67405380D01*
X49607111Y-67510888D01*
X49411575Y-67706084D01*
X49305621Y-67961249D01*
X49305380Y-68237539D01*
X38643004Y-68237539D01*
X38589112Y-68107111D01*
X38393916Y-67911575D01*
X38138751Y-67805621D01*
X37862461Y-67805380D01*
X37607111Y-67910888D01*
X37411575Y-68106084D01*
X37305621Y-68361249D01*
X37305380Y-68637539D01*
X36050000Y-68637539D01*
X36050000Y-67308922D01*
X43949905Y-67308922D01*
X44033461Y-67511143D01*
X44188043Y-67665995D01*
X44390118Y-67749904D01*
X44608922Y-67750095D01*
X44811143Y-67666539D01*
X44965995Y-67511957D01*
X45049904Y-67309882D01*
X45050079Y-67108922D01*
X46349905Y-67108922D01*
X46433461Y-67311143D01*
X46588043Y-67465995D01*
X46790118Y-67549904D01*
X47008922Y-67550095D01*
X47211143Y-67466539D01*
X47365995Y-67311957D01*
X47449904Y-67109882D01*
X47450095Y-66891078D01*
X47366539Y-66688857D01*
X47211957Y-66534005D01*
X47009882Y-66450096D01*
X46791078Y-66449905D01*
X46588857Y-66533461D01*
X46434005Y-66688043D01*
X46350096Y-66890118D01*
X46349905Y-67108922D01*
X45050079Y-67108922D01*
X45050095Y-67091078D01*
X44966539Y-66888857D01*
X44811957Y-66734005D01*
X44609882Y-66650096D01*
X44391078Y-66649905D01*
X44188857Y-66733461D01*
X44034005Y-66888043D01*
X43950096Y-67090118D01*
X43949905Y-67308922D01*
X36050000Y-67308922D01*
X36050000Y-62745528D01*
X36110888Y-62892889D01*
X36306084Y-63088425D01*
X36561249Y-63194379D01*
X36837539Y-63194620D01*
X37092889Y-63089112D01*
X37288425Y-62893916D01*
X37394379Y-62638751D01*
X37394620Y-62362461D01*
X37289112Y-62107111D01*
X37093916Y-61911575D01*
X36838751Y-61805621D01*
X36562461Y-61805380D01*
X36307111Y-61910888D01*
X36111575Y-62106084D01*
X36050000Y-62254373D01*
X36050000Y-59050000D01*
X50093167Y-59050000D01*
X50110888Y-59092889D01*
X50110888Y-59092889D01*
G37*
X50110888Y-59092889D02*
X50306084Y-59288425D01*
X50561249Y-59394379D01*
X50837539Y-59394620D01*
X51092889Y-59289112D01*
X51288425Y-59093916D01*
X51306661Y-59050000D01*
X56450000Y-59050000D01*
X56450000Y-68000000D01*
X56453939Y-68019453D01*
X56465136Y-68035840D01*
X56481827Y-68046581D01*
X56500000Y-68050000D01*
X66450000Y-68050000D01*
X66450000Y-78000000D01*
X66453939Y-78019453D01*
X66465136Y-78035840D01*
X66481827Y-78046581D01*
X66500000Y-78050000D01*
X66867900Y-78050000D01*
X67006084Y-78188425D01*
X67261249Y-78294379D01*
X67537539Y-78294620D01*
X67792889Y-78189112D01*
X67932243Y-78050000D01*
X68950000Y-78050000D01*
X68950000Y-85450000D01*
X55050000Y-85450000D01*
X55050000Y-84559886D01*
X65111673Y-84559886D01*
X65263593Y-84927560D01*
X65544652Y-85209110D01*
X65912061Y-85361672D01*
X66309886Y-85362019D01*
X66677560Y-85210099D01*
X66959110Y-84929040D01*
X67111672Y-84561631D01*
X67112019Y-84163806D01*
X66960099Y-83796132D01*
X66679040Y-83514582D01*
X66311631Y-83362020D01*
X65913806Y-83361673D01*
X65546132Y-83513593D01*
X65264582Y-83794652D01*
X65112020Y-84162061D01*
X65111673Y-84559886D01*
X55050000Y-84559886D01*
X55050000Y-84000000D01*
X55046061Y-83980547D01*
X55035355Y-83964645D01*
X52808249Y-81737539D01*
X59705380Y-81737539D01*
X59810888Y-81992889D01*
X60006084Y-82188425D01*
X60261249Y-82294379D01*
X60537539Y-82294620D01*
X60792889Y-82189112D01*
X60988425Y-81993916D01*
X61094379Y-81738751D01*
X61094620Y-81462461D01*
X60989112Y-81207111D01*
X60793916Y-81011575D01*
X60538751Y-80905621D01*
X60262461Y-80905380D01*
X60007111Y-81010888D01*
X59811575Y-81206084D01*
X59705621Y-81461249D01*
X59705380Y-81737539D01*
X52808249Y-81737539D01*
X52535355Y-81464645D01*
X52518815Y-81453675D01*
X52500000Y-81450000D01*
X51020710Y-81450000D01*
X50394566Y-80823856D01*
X50394620Y-80762461D01*
X50289112Y-80507111D01*
X50093916Y-80311575D01*
X49838751Y-80205621D01*
X49562461Y-80205380D01*
X49307111Y-80310888D01*
X49167757Y-80450000D01*
X46632100Y-80450000D01*
X46493916Y-80311575D01*
X46238751Y-80205621D01*
X45962461Y-80205380D01*
X45707111Y-80310888D01*
X45567757Y-80450000D01*
X44106833Y-80450000D01*
X44089112Y-80407111D01*
X43893916Y-80211575D01*
X43638751Y-80105621D01*
X43362461Y-80105380D01*
X43107111Y-80210888D01*
X42911575Y-80406084D01*
X42805621Y-80661249D01*
X42805380Y-80937539D01*
X42810529Y-80950000D01*
X41500000Y-80950000D01*
X41480547Y-80953939D01*
X41464645Y-80964645D01*
X37464645Y-84964645D01*
X37453675Y-84981185D01*
X37450000Y-85000000D01*
X37450000Y-86950000D01*
X17950000Y-86950000D01*
X17950000Y-85537539D01*
X20905380Y-85537539D01*
X21010888Y-85792889D01*
X21206084Y-85988425D01*
X21461249Y-86094379D01*
X21737539Y-86094620D01*
X21992889Y-85989112D01*
X22188425Y-85793916D01*
X22253358Y-85637539D01*
X29305380Y-85637539D01*
X29410888Y-85892889D01*
X29606084Y-86088425D01*
X29861249Y-86194379D01*
X30137539Y-86194620D01*
X30392889Y-86089112D01*
X30588425Y-85893916D01*
X30694379Y-85638751D01*
X30694620Y-85362461D01*
X30589112Y-85107111D01*
X30393916Y-84911575D01*
X30138751Y-84805621D01*
X29862461Y-84805380D01*
X29607111Y-84910888D01*
X29411575Y-85106084D01*
X29305621Y-85361249D01*
X29305380Y-85637539D01*
X22253358Y-85637539D01*
X22294379Y-85538751D01*
X22294620Y-85262461D01*
X22189112Y-85007111D01*
X21993916Y-84811575D01*
X21738751Y-84705621D01*
X21462461Y-84705380D01*
X21207111Y-84810888D01*
X21011575Y-85006084D01*
X20905621Y-85261249D01*
X20905380Y-85537539D01*
X17950000Y-85537539D01*
X17950000Y-84637539D01*
X19805380Y-84637539D01*
X19910888Y-84892889D01*
X20106084Y-85088425D01*
X20361249Y-85194379D01*
X20637539Y-85194620D01*
X20892889Y-85089112D01*
X21088425Y-84893916D01*
X21194379Y-84638751D01*
X21194620Y-84362461D01*
X21089112Y-84107111D01*
X20893916Y-83911575D01*
X20638751Y-83805621D01*
X20362461Y-83805380D01*
X20107111Y-83910888D01*
X19911575Y-84106084D01*
X19805621Y-84361249D01*
X19805380Y-84637539D01*
X17950000Y-84637539D01*
X17950000Y-83698040D01*
X22619827Y-83698040D01*
X22771747Y-84065714D01*
X23052806Y-84347264D01*
X23420215Y-84499826D01*
X23818040Y-84500173D01*
X24185714Y-84348253D01*
X24396796Y-84137539D01*
X24805380Y-84137539D01*
X24910888Y-84392889D01*
X25106084Y-84588425D01*
X25361249Y-84694379D01*
X25637539Y-84694620D01*
X25892889Y-84589112D01*
X26088425Y-84393916D01*
X26194379Y-84138751D01*
X26194620Y-83862461D01*
X26089112Y-83607111D01*
X25893916Y-83411575D01*
X25638751Y-83305621D01*
X25362461Y-83305380D01*
X25107111Y-83410888D01*
X24911575Y-83606084D01*
X24805621Y-83861249D01*
X24805380Y-84137539D01*
X24396796Y-84137539D01*
X24467264Y-84067194D01*
X24619826Y-83699785D01*
X24620173Y-83301960D01*
X24468253Y-82934286D01*
X24187194Y-82652736D01*
X23819785Y-82500174D01*
X23421960Y-82499827D01*
X23054286Y-82651747D01*
X22772736Y-82932806D01*
X22620174Y-83300215D01*
X22619827Y-83698040D01*
X17950000Y-83698040D01*
X17950000Y-82137539D01*
X19805380Y-82137539D01*
X19910888Y-82392889D01*
X20106084Y-82588425D01*
X20361249Y-82694379D01*
X20637539Y-82694620D01*
X20892889Y-82589112D01*
X21088425Y-82393916D01*
X21194379Y-82138751D01*
X21194620Y-81862461D01*
X21101685Y-81637539D01*
X21805380Y-81637539D01*
X21910888Y-81892889D01*
X22106084Y-82088425D01*
X22361249Y-82194379D01*
X22637539Y-82194620D01*
X22892889Y-82089112D01*
X23088425Y-81893916D01*
X23194379Y-81638751D01*
X23194380Y-81637539D01*
X24805380Y-81637539D01*
X24910888Y-81892889D01*
X25106084Y-82088425D01*
X25361249Y-82194379D01*
X25637539Y-82194620D01*
X25892889Y-82089112D01*
X26088425Y-81893916D01*
X26194379Y-81638751D01*
X26194620Y-81362461D01*
X26089112Y-81107111D01*
X25893916Y-80911575D01*
X25638751Y-80805621D01*
X25362461Y-80805380D01*
X25107111Y-80910888D01*
X24911575Y-81106084D01*
X24805621Y-81361249D01*
X24805380Y-81637539D01*
X23194380Y-81637539D01*
X23194620Y-81362461D01*
X23089112Y-81107111D01*
X22893916Y-80911575D01*
X22638751Y-80805621D01*
X22362461Y-80805380D01*
X22107111Y-80910888D01*
X21911575Y-81106084D01*
X21805621Y-81361249D01*
X21805380Y-81637539D01*
X21101685Y-81637539D01*
X21089112Y-81607111D01*
X20893916Y-81411575D01*
X20638751Y-81305621D01*
X20362461Y-81305380D01*
X20107111Y-81410888D01*
X19911575Y-81606084D01*
X19805621Y-81861249D01*
X19805380Y-82137539D01*
X17950000Y-82137539D01*
X17950000Y-80637539D01*
X30705380Y-80637539D01*
X30810888Y-80892889D01*
X31006084Y-81088425D01*
X31261249Y-81194379D01*
X31537539Y-81194620D01*
X31792889Y-81089112D01*
X31988425Y-80893916D01*
X32011834Y-80837539D01*
X32205380Y-80837539D01*
X32310888Y-81092889D01*
X32506084Y-81288425D01*
X32761249Y-81394379D01*
X33037539Y-81394620D01*
X33292889Y-81289112D01*
X33488425Y-81093916D01*
X33594379Y-80838751D01*
X33594620Y-80562461D01*
X33489112Y-80307111D01*
X33293916Y-80111575D01*
X33038751Y-80005621D01*
X32762461Y-80005380D01*
X32507111Y-80110888D01*
X32311575Y-80306084D01*
X32205621Y-80561249D01*
X32205380Y-80837539D01*
X32011834Y-80837539D01*
X32094379Y-80638751D01*
X32094620Y-80362461D01*
X31989112Y-80107111D01*
X31793916Y-79911575D01*
X31538751Y-79805621D01*
X31262461Y-79805380D01*
X31007111Y-79910888D01*
X30811575Y-80106084D01*
X30705621Y-80361249D01*
X30705380Y-80637539D01*
X17950000Y-80637539D01*
X17950000Y-80500000D01*
X17946061Y-80480547D01*
X17934864Y-80464160D01*
X17918173Y-80453419D01*
X17900000Y-80450000D01*
X17550000Y-80450000D01*
X17550000Y-79437539D01*
X39555380Y-79437539D01*
X39660888Y-79692889D01*
X39856084Y-79888425D01*
X40111249Y-79994379D01*
X40387539Y-79994620D01*
X40642889Y-79889112D01*
X40838425Y-79693916D01*
X40944379Y-79438751D01*
X40944380Y-79437539D01*
X56405380Y-79437539D01*
X56510888Y-79692889D01*
X56706084Y-79888425D01*
X56961249Y-79994379D01*
X57237539Y-79994620D01*
X57492889Y-79889112D01*
X57688425Y-79693916D01*
X57750021Y-79545578D01*
X57810888Y-79692889D01*
X58006084Y-79888425D01*
X58261249Y-79994379D01*
X58537539Y-79994620D01*
X58792889Y-79889112D01*
X58988425Y-79693916D01*
X59094379Y-79438751D01*
X59094380Y-79437539D01*
X59105380Y-79437539D01*
X59210888Y-79692889D01*
X59406084Y-79888425D01*
X59661249Y-79994379D01*
X59937539Y-79994620D01*
X60192889Y-79889112D01*
X60388425Y-79693916D01*
X60494379Y-79438751D01*
X60494620Y-79162461D01*
X60389112Y-78907111D01*
X60193916Y-78711575D01*
X59938751Y-78605621D01*
X59662461Y-78605380D01*
X59407111Y-78710888D01*
X59211575Y-78906084D01*
X59105621Y-79161249D01*
X59105380Y-79437539D01*
X59094380Y-79437539D01*
X59094620Y-79162461D01*
X58989112Y-78907111D01*
X58793916Y-78711575D01*
X58538751Y-78605621D01*
X58262461Y-78605380D01*
X58007111Y-78710888D01*
X57811575Y-78906084D01*
X57749979Y-79054422D01*
X57689112Y-78907111D01*
X57493916Y-78711575D01*
X57238751Y-78605621D01*
X56962461Y-78605380D01*
X56707111Y-78710888D01*
X56511575Y-78906084D01*
X56405621Y-79161249D01*
X56405380Y-79437539D01*
X40944380Y-79437539D01*
X40944620Y-79162461D01*
X40839112Y-78907111D01*
X40643916Y-78711575D01*
X40388751Y-78605621D01*
X40112461Y-78605380D01*
X39857111Y-78710888D01*
X39661575Y-78906084D01*
X39555621Y-79161249D01*
X39555380Y-79437539D01*
X17550000Y-79437539D01*
X17550000Y-78137539D01*
X28305380Y-78137539D01*
X28410888Y-78392889D01*
X28606084Y-78588425D01*
X28861249Y-78694379D01*
X29137539Y-78694620D01*
X29392889Y-78589112D01*
X29588425Y-78393916D01*
X29694379Y-78138751D01*
X29694620Y-77862461D01*
X29631180Y-77708922D01*
X45949905Y-77708922D01*
X46033461Y-77911143D01*
X46188043Y-78065995D01*
X46390118Y-78149904D01*
X46608922Y-78150095D01*
X46811143Y-78066539D01*
X46913947Y-77963915D01*
X46933461Y-78011143D01*
X47088043Y-78165995D01*
X47290118Y-78249904D01*
X47508922Y-78250095D01*
X47711143Y-78166539D01*
X47865995Y-78011957D01*
X47896896Y-77937539D01*
X58705380Y-77937539D01*
X58810888Y-78192889D01*
X59006084Y-78388425D01*
X59261249Y-78494379D01*
X59537539Y-78494620D01*
X59792889Y-78389112D01*
X59988425Y-78193916D01*
X60094379Y-77938751D01*
X60094620Y-77662461D01*
X59989112Y-77407111D01*
X59793916Y-77211575D01*
X59538751Y-77105621D01*
X59262461Y-77105380D01*
X59007111Y-77210888D01*
X58811575Y-77406084D01*
X58705621Y-77661249D01*
X58705380Y-77937539D01*
X47896896Y-77937539D01*
X47949904Y-77809882D01*
X47950095Y-77591078D01*
X47866539Y-77388857D01*
X47711957Y-77234005D01*
X47509882Y-77150096D01*
X47291078Y-77149905D01*
X47088857Y-77233461D01*
X46986053Y-77336085D01*
X46966539Y-77288857D01*
X46811957Y-77134005D01*
X46609882Y-77050096D01*
X46391078Y-77049905D01*
X46188857Y-77133461D01*
X46034005Y-77288043D01*
X45950096Y-77490118D01*
X45949905Y-77708922D01*
X29631180Y-77708922D01*
X29589112Y-77607111D01*
X29393916Y-77411575D01*
X29138751Y-77305621D01*
X28862461Y-77305380D01*
X28607111Y-77410888D01*
X28411575Y-77606084D01*
X28305621Y-77861249D01*
X28305380Y-78137539D01*
X17550000Y-78137539D01*
X17550000Y-76637539D01*
X20305380Y-76637539D01*
X20410888Y-76892889D01*
X20606084Y-77088425D01*
X20861249Y-77194379D01*
X21137539Y-77194620D01*
X21392889Y-77089112D01*
X21588425Y-76893916D01*
X21665241Y-76708922D01*
X39249905Y-76708922D01*
X39333461Y-76911143D01*
X39488043Y-77065995D01*
X39690118Y-77149904D01*
X39908922Y-77150095D01*
X40111143Y-77066539D01*
X40265995Y-76911957D01*
X40349904Y-76709882D01*
X40350095Y-76491078D01*
X40266539Y-76288857D01*
X40215311Y-76237539D01*
X51005380Y-76237539D01*
X51110888Y-76492889D01*
X51306084Y-76688425D01*
X51561249Y-76794379D01*
X51837539Y-76794620D01*
X52092889Y-76689112D01*
X52288425Y-76493916D01*
X52394379Y-76238751D01*
X52394620Y-75962461D01*
X52289112Y-75707111D01*
X52093916Y-75511575D01*
X51838751Y-75405621D01*
X51562461Y-75405380D01*
X51307111Y-75510888D01*
X51111575Y-75706084D01*
X51005621Y-75961249D01*
X51005380Y-76237539D01*
X40215311Y-76237539D01*
X40111957Y-76134005D01*
X39909882Y-76050096D01*
X39691078Y-76049905D01*
X39488857Y-76133461D01*
X39334005Y-76288043D01*
X39250096Y-76490118D01*
X39249905Y-76708922D01*
X21665241Y-76708922D01*
X21694379Y-76638751D01*
X21694620Y-76362461D01*
X21589112Y-76107111D01*
X21393916Y-75911575D01*
X21138751Y-75805621D01*
X20862461Y-75805380D01*
X20607111Y-75910888D01*
X20411575Y-76106084D01*
X20305621Y-76361249D01*
X20305380Y-76637539D01*
X17550000Y-76637539D01*
X17550000Y-75194544D01*
X17637539Y-75194620D01*
X17775686Y-75137539D01*
X18805380Y-75137539D01*
X18910888Y-75392889D01*
X19106084Y-75588425D01*
X19361249Y-75694379D01*
X19637539Y-75694620D01*
X19892889Y-75589112D01*
X20088425Y-75393916D01*
X20174120Y-75187539D01*
X41255380Y-75187539D01*
X41360888Y-75442889D01*
X41556084Y-75638425D01*
X41811249Y-75744379D01*
X42087539Y-75744620D01*
X42342889Y-75639112D01*
X42538425Y-75443916D01*
X42644379Y-75188751D01*
X42644620Y-74912461D01*
X42539112Y-74657111D01*
X42343916Y-74461575D01*
X42088751Y-74355621D01*
X41812461Y-74355380D01*
X41557111Y-74460888D01*
X41361575Y-74656084D01*
X41255621Y-74911249D01*
X41255380Y-75187539D01*
X20174120Y-75187539D01*
X20194379Y-75138751D01*
X20194620Y-74862461D01*
X20089112Y-74607111D01*
X19893916Y-74411575D01*
X19638751Y-74305621D01*
X19362461Y-74305380D01*
X19107111Y-74410888D01*
X18911575Y-74606084D01*
X18805621Y-74861249D01*
X18805380Y-75137539D01*
X17775686Y-75137539D01*
X17892889Y-75089112D01*
X18088425Y-74893916D01*
X18194379Y-74638751D01*
X18194620Y-74362461D01*
X18101685Y-74137539D01*
X27805380Y-74137539D01*
X27910888Y-74392889D01*
X28106084Y-74588425D01*
X28361249Y-74694379D01*
X28637539Y-74694620D01*
X28892889Y-74589112D01*
X29088425Y-74393916D01*
X29194379Y-74138751D01*
X29194380Y-74137539D01*
X29805380Y-74137539D01*
X29910888Y-74392889D01*
X30106084Y-74588425D01*
X30361249Y-74694379D01*
X30637539Y-74694620D01*
X30892889Y-74589112D01*
X31088425Y-74393916D01*
X31194379Y-74138751D01*
X31194620Y-73862461D01*
X31131180Y-73708922D01*
X41349905Y-73708922D01*
X41433461Y-73911143D01*
X41588043Y-74065995D01*
X41790118Y-74149904D01*
X42008922Y-74150095D01*
X42211143Y-74066539D01*
X42365995Y-73911957D01*
X42449904Y-73709882D01*
X42450095Y-73491078D01*
X42366539Y-73288857D01*
X42211957Y-73134005D01*
X42009882Y-73050096D01*
X41791078Y-73049905D01*
X41588857Y-73133461D01*
X41434005Y-73288043D01*
X41350096Y-73490118D01*
X41349905Y-73708922D01*
X31131180Y-73708922D01*
X31089112Y-73607111D01*
X30893916Y-73411575D01*
X30638751Y-73305621D01*
X30362461Y-73305380D01*
X30107111Y-73410888D01*
X29911575Y-73606084D01*
X29805621Y-73861249D01*
X29805380Y-74137539D01*
X29194380Y-74137539D01*
X29194620Y-73862461D01*
X29089112Y-73607111D01*
X28893916Y-73411575D01*
X28638751Y-73305621D01*
X28362461Y-73305380D01*
X28107111Y-73410888D01*
X27911575Y-73606084D01*
X27805621Y-73861249D01*
X27805380Y-74137539D01*
X18101685Y-74137539D01*
X18089112Y-74107111D01*
X17893916Y-73911575D01*
X17638751Y-73805621D01*
X17550000Y-73805544D01*
X17550000Y-71564500D01*
X18092000Y-71564500D01*
X18092000Y-71960993D01*
X18176950Y-72166082D01*
X18333918Y-72323049D01*
X18539007Y-72408000D01*
X18935500Y-72408000D01*
X19075000Y-72268500D01*
X19075000Y-71425000D01*
X19925000Y-71425000D01*
X19925000Y-72268500D01*
X20064500Y-72408000D01*
X20460993Y-72408000D01*
X20666082Y-72323049D01*
X20823050Y-72166082D01*
X20908000Y-71960993D01*
X20908000Y-71564500D01*
X20768500Y-71425000D01*
X19925000Y-71425000D01*
X19075000Y-71425000D01*
X18231500Y-71425000D01*
X18092000Y-71564500D01*
X17550000Y-71564500D01*
X17550000Y-70978450D01*
X20940000Y-70978450D01*
X20940000Y-71021550D01*
X21023733Y-71442502D01*
X21262183Y-71799367D01*
X21619048Y-72037817D01*
X22040000Y-72121550D01*
X22460952Y-72037817D01*
X22817817Y-71799367D01*
X23056267Y-71442502D01*
X23140000Y-71021550D01*
X23140000Y-70978450D01*
X23056267Y-70557498D01*
X22817817Y-70200633D01*
X22460952Y-69962183D01*
X22040000Y-69878450D01*
X21619048Y-69962183D01*
X21262183Y-70200633D01*
X21023733Y-70557498D01*
X20940000Y-70978450D01*
X17550000Y-70978450D01*
X17550000Y-70039007D01*
X18092000Y-70039007D01*
X18092000Y-70435500D01*
X18231500Y-70575000D01*
X19075000Y-70575000D01*
X19075000Y-69731500D01*
X19925000Y-69731500D01*
X19925000Y-70575000D01*
X20768500Y-70575000D01*
X20908000Y-70435500D01*
X20908000Y-70039007D01*
X20823050Y-69833918D01*
X20666082Y-69676951D01*
X20460993Y-69592000D01*
X20064500Y-69592000D01*
X19925000Y-69731500D01*
X19075000Y-69731500D01*
X18935500Y-69592000D01*
X18539007Y-69592000D01*
X18333918Y-69676951D01*
X18176950Y-69833918D01*
X18092000Y-70039007D01*
X17550000Y-70039007D01*
X17550000Y-69050000D01*
X24115000Y-69050000D01*
X24115000Y-72500000D01*
X24182367Y-72838675D01*
X24374210Y-73125790D01*
X24661325Y-73317633D01*
X25000000Y-73385000D01*
X25338675Y-73317633D01*
X25625790Y-73125790D01*
X25817633Y-72838675D01*
X25857641Y-72637539D01*
X29805380Y-72637539D01*
X29910888Y-72892889D01*
X30106084Y-73088425D01*
X30361249Y-73194379D01*
X30637539Y-73194620D01*
X30892889Y-73089112D01*
X31088425Y-72893916D01*
X31194379Y-72638751D01*
X31194380Y-72637539D01*
X31805380Y-72637539D01*
X31910888Y-72892889D01*
X32106084Y-73088425D01*
X32361249Y-73194379D01*
X32637539Y-73194620D01*
X32892889Y-73089112D01*
X33088425Y-72893916D01*
X33194379Y-72638751D01*
X33194380Y-72637539D01*
X33805380Y-72637539D01*
X33910888Y-72892889D01*
X34106084Y-73088425D01*
X34361249Y-73194379D01*
X34637539Y-73194620D01*
X34892889Y-73089112D01*
X35088425Y-72893916D01*
X35111834Y-72837539D01*
X51005380Y-72837539D01*
X51110888Y-73092889D01*
X51306084Y-73288425D01*
X51463825Y-73353925D01*
X51411575Y-73406084D01*
X51305621Y-73661249D01*
X51305380Y-73937539D01*
X51410888Y-74192889D01*
X51606084Y-74388425D01*
X51861249Y-74494379D01*
X52137539Y-74494620D01*
X52392889Y-74389112D01*
X52588425Y-74193916D01*
X52694379Y-73938751D01*
X52694620Y-73662461D01*
X52589112Y-73407111D01*
X52393916Y-73211575D01*
X52236175Y-73146075D01*
X52288425Y-73093916D01*
X52394379Y-72838751D01*
X52394467Y-72737539D01*
X58905380Y-72737539D01*
X59010888Y-72992889D01*
X59206084Y-73188425D01*
X59461249Y-73294379D01*
X59737539Y-73294620D01*
X59992889Y-73189112D01*
X60188425Y-72993916D01*
X60294379Y-72738751D01*
X60294620Y-72462461D01*
X60189112Y-72207111D01*
X59993916Y-72011575D01*
X59738751Y-71905621D01*
X59462461Y-71905380D01*
X59207111Y-72010888D01*
X59011575Y-72206084D01*
X58905621Y-72461249D01*
X58905380Y-72737539D01*
X52394467Y-72737539D01*
X52394620Y-72562461D01*
X52289112Y-72307111D01*
X52093916Y-72111575D01*
X51838751Y-72005621D01*
X51562461Y-72005380D01*
X51307111Y-72110888D01*
X51111575Y-72306084D01*
X51005621Y-72561249D01*
X51005380Y-72837539D01*
X35111834Y-72837539D01*
X35194379Y-72638751D01*
X35194620Y-72362461D01*
X35089112Y-72107111D01*
X34893916Y-71911575D01*
X34638751Y-71805621D01*
X34362461Y-71805380D01*
X34107111Y-71910888D01*
X33911575Y-72106084D01*
X33805621Y-72361249D01*
X33805380Y-72637539D01*
X33194380Y-72637539D01*
X33194620Y-72362461D01*
X33089112Y-72107111D01*
X32893916Y-71911575D01*
X32638751Y-71805621D01*
X32362461Y-71805380D01*
X32107111Y-71910888D01*
X31911575Y-72106084D01*
X31805621Y-72361249D01*
X31805380Y-72637539D01*
X31194380Y-72637539D01*
X31194620Y-72362461D01*
X31089112Y-72107111D01*
X30893916Y-71911575D01*
X30638751Y-71805621D01*
X30362461Y-71805380D01*
X30107111Y-71910888D01*
X29911575Y-72106084D01*
X29805621Y-72361249D01*
X29805380Y-72637539D01*
X25857641Y-72637539D01*
X25885000Y-72500000D01*
X25885000Y-71337539D01*
X32705380Y-71337539D01*
X32810888Y-71592889D01*
X33006084Y-71788425D01*
X33261249Y-71894379D01*
X33537539Y-71894620D01*
X33792889Y-71789112D01*
X33988425Y-71593916D01*
X34094379Y-71338751D01*
X34094579Y-71108922D01*
X37449905Y-71108922D01*
X37533461Y-71311143D01*
X37688043Y-71465995D01*
X37890118Y-71549904D01*
X38108922Y-71550095D01*
X38311143Y-71466539D01*
X38465995Y-71311957D01*
X38538419Y-71137539D01*
X57905380Y-71137539D01*
X58010888Y-71392889D01*
X58206084Y-71588425D01*
X58461249Y-71694379D01*
X58737539Y-71694620D01*
X58992889Y-71589112D01*
X59188425Y-71393916D01*
X59294379Y-71138751D01*
X59294620Y-70862461D01*
X59189112Y-70607111D01*
X58993916Y-70411575D01*
X58738751Y-70305621D01*
X58462461Y-70305380D01*
X58207111Y-70410888D01*
X58011575Y-70606084D01*
X57905621Y-70861249D01*
X57905380Y-71137539D01*
X38538419Y-71137539D01*
X38549904Y-71109882D01*
X38550095Y-70891078D01*
X38466539Y-70688857D01*
X38311957Y-70534005D01*
X38109882Y-70450096D01*
X37891078Y-70449905D01*
X37688857Y-70533461D01*
X37534005Y-70688043D01*
X37450096Y-70890118D01*
X37449905Y-71108922D01*
X34094579Y-71108922D01*
X34094620Y-71062461D01*
X33989112Y-70807111D01*
X33793916Y-70611575D01*
X33538751Y-70505621D01*
X33262461Y-70505380D01*
X33007111Y-70610888D01*
X32811575Y-70806084D01*
X32705621Y-71061249D01*
X32705380Y-71337539D01*
X25885000Y-71337539D01*
X25885000Y-69837539D01*
X39505380Y-69837539D01*
X39610888Y-70092889D01*
X39806084Y-70288425D01*
X40061249Y-70394379D01*
X40337539Y-70394620D01*
X40592889Y-70289112D01*
X40788425Y-70093916D01*
X40894379Y-69838751D01*
X40894380Y-69837539D01*
X41305380Y-69837539D01*
X41410888Y-70092889D01*
X41606084Y-70288425D01*
X41861249Y-70394379D01*
X42137539Y-70394620D01*
X42392889Y-70289112D01*
X42588425Y-70093916D01*
X42694379Y-69838751D01*
X42694620Y-69562461D01*
X42589112Y-69307111D01*
X42393916Y-69111575D01*
X42138751Y-69005621D01*
X41862461Y-69005380D01*
X41607111Y-69110888D01*
X41411575Y-69306084D01*
X41305621Y-69561249D01*
X41305380Y-69837539D01*
X40894380Y-69837539D01*
X40894620Y-69562461D01*
X40789112Y-69307111D01*
X40593916Y-69111575D01*
X40338751Y-69005621D01*
X40062461Y-69005380D01*
X39807111Y-69110888D01*
X39611575Y-69306084D01*
X39505621Y-69561249D01*
X39505380Y-69837539D01*
X25885000Y-69837539D01*
X25885000Y-69050000D01*
X36000000Y-69050000D01*
X36019453Y-69046061D01*
X36035840Y-69034864D01*
X36046581Y-69018173D01*
X36050000Y-69000000D01*
X36050000Y-68637539D01*
X37305380Y-68637539D01*
X37410888Y-68892889D01*
X37606084Y-69088425D01*
X37861249Y-69194379D01*
X38137539Y-69194620D01*
X38392889Y-69089112D01*
X38588425Y-68893916D01*
X38694379Y-68638751D01*
X38694620Y-68362461D01*
X38643004Y-68237539D01*
X49305380Y-68237539D01*
X49410888Y-68492889D01*
X49606084Y-68688425D01*
X49861249Y-68794379D01*
X50137539Y-68794620D01*
X50283455Y-68734329D01*
X50211575Y-68806084D01*
X50105621Y-69061249D01*
X50105380Y-69337539D01*
X50210888Y-69592889D01*
X50406084Y-69788425D01*
X50661249Y-69894379D01*
X50937539Y-69894620D01*
X51192889Y-69789112D01*
X51244551Y-69737539D01*
X57705380Y-69737539D01*
X57810888Y-69992889D01*
X58006084Y-70188425D01*
X58261249Y-70294379D01*
X58537539Y-70294620D01*
X58792889Y-70189112D01*
X58988425Y-69993916D01*
X59094379Y-69738751D01*
X59094620Y-69462461D01*
X58989112Y-69207111D01*
X58793916Y-69011575D01*
X58615618Y-68937539D01*
X60505380Y-68937539D01*
X60610888Y-69192889D01*
X60806084Y-69388425D01*
X61061249Y-69494379D01*
X61337539Y-69494620D01*
X61592889Y-69389112D01*
X61788425Y-69193916D01*
X61894379Y-68938751D01*
X61894620Y-68662461D01*
X61789112Y-68407111D01*
X61593916Y-68211575D01*
X61338751Y-68105621D01*
X61062461Y-68105380D01*
X60807111Y-68210888D01*
X60611575Y-68406084D01*
X60505621Y-68661249D01*
X60505380Y-68937539D01*
X58615618Y-68937539D01*
X58538751Y-68905621D01*
X58262461Y-68905380D01*
X58007111Y-69010888D01*
X57811575Y-69206084D01*
X57705621Y-69461249D01*
X57705380Y-69737539D01*
X51244551Y-69737539D01*
X51388425Y-69593916D01*
X51494379Y-69338751D01*
X51494620Y-69062461D01*
X51389112Y-68807111D01*
X51193916Y-68611575D01*
X50938751Y-68505621D01*
X50662461Y-68505380D01*
X50516545Y-68565671D01*
X50588425Y-68493916D01*
X50694379Y-68238751D01*
X50694620Y-67962461D01*
X50589112Y-67707111D01*
X50393916Y-67511575D01*
X50138751Y-67405621D01*
X49862461Y-67405380D01*
X49607111Y-67510888D01*
X49411575Y-67706084D01*
X49305621Y-67961249D01*
X49305380Y-68237539D01*
X38643004Y-68237539D01*
X38589112Y-68107111D01*
X38393916Y-67911575D01*
X38138751Y-67805621D01*
X37862461Y-67805380D01*
X37607111Y-67910888D01*
X37411575Y-68106084D01*
X37305621Y-68361249D01*
X37305380Y-68637539D01*
X36050000Y-68637539D01*
X36050000Y-67308922D01*
X43949905Y-67308922D01*
X44033461Y-67511143D01*
X44188043Y-67665995D01*
X44390118Y-67749904D01*
X44608922Y-67750095D01*
X44811143Y-67666539D01*
X44965995Y-67511957D01*
X45049904Y-67309882D01*
X45050079Y-67108922D01*
X46349905Y-67108922D01*
X46433461Y-67311143D01*
X46588043Y-67465995D01*
X46790118Y-67549904D01*
X47008922Y-67550095D01*
X47211143Y-67466539D01*
X47365995Y-67311957D01*
X47449904Y-67109882D01*
X47450095Y-66891078D01*
X47366539Y-66688857D01*
X47211957Y-66534005D01*
X47009882Y-66450096D01*
X46791078Y-66449905D01*
X46588857Y-66533461D01*
X46434005Y-66688043D01*
X46350096Y-66890118D01*
X46349905Y-67108922D01*
X45050079Y-67108922D01*
X45050095Y-67091078D01*
X44966539Y-66888857D01*
X44811957Y-66734005D01*
X44609882Y-66650096D01*
X44391078Y-66649905D01*
X44188857Y-66733461D01*
X44034005Y-66888043D01*
X43950096Y-67090118D01*
X43949905Y-67308922D01*
X36050000Y-67308922D01*
X36050000Y-62745528D01*
X36110888Y-62892889D01*
X36306084Y-63088425D01*
X36561249Y-63194379D01*
X36837539Y-63194620D01*
X37092889Y-63089112D01*
X37288425Y-62893916D01*
X37394379Y-62638751D01*
X37394620Y-62362461D01*
X37289112Y-62107111D01*
X37093916Y-61911575D01*
X36838751Y-61805621D01*
X36562461Y-61805380D01*
X36307111Y-61910888D01*
X36111575Y-62106084D01*
X36050000Y-62254373D01*
X36050000Y-59050000D01*
X50093167Y-59050000D01*
X50110888Y-59092889D01*
G36*
X89950000Y-55950000D02*
X71000000Y-55950000D01*
X70980547Y-55953939D01*
X70964160Y-55965136D01*
X70953419Y-55981827D01*
X70950000Y-56000000D01*
X70950000Y-56450000D01*
X58375054Y-56450000D01*
X58317633Y-56161325D01*
X58125790Y-55874210D01*
X57838675Y-55682367D01*
X57500000Y-55615000D01*
X54267217Y-55615000D01*
X54338425Y-55543916D01*
X54444379Y-55288751D01*
X54444620Y-55012461D01*
X54339112Y-54757111D01*
X54143916Y-54561575D01*
X53888751Y-54455621D01*
X53612461Y-54455380D01*
X53357111Y-54560888D01*
X53161575Y-54756084D01*
X53055621Y-55011249D01*
X53055380Y-55287539D01*
X53160888Y-55542889D01*
X53232874Y-55615000D01*
X50500005Y-55615000D01*
X50500000Y-55614999D01*
X50161326Y-55682366D01*
X50161324Y-55682367D01*
X50161325Y-55682367D01*
X49874210Y-55874210D01*
X49874208Y-55874213D01*
X49298420Y-56450000D01*
X41050000Y-56450000D01*
X41050000Y-55737539D01*
X43405380Y-55737539D01*
X43510888Y-55992889D01*
X43706084Y-56188425D01*
X43961249Y-56294379D01*
X44237539Y-56294620D01*
X44492889Y-56189112D01*
X44688425Y-55993916D01*
X44794379Y-55738751D01*
X44794620Y-55462461D01*
X44689112Y-55207111D01*
X44493916Y-55011575D01*
X44238751Y-54905621D01*
X43962461Y-54905380D01*
X43707111Y-55010888D01*
X43511575Y-55206084D01*
X43405621Y-55461249D01*
X43405380Y-55737539D01*
X41050000Y-55737539D01*
X41050000Y-53537539D01*
X48205380Y-53537539D01*
X48310888Y-53792889D01*
X48506084Y-53988425D01*
X48761249Y-54094379D01*
X49037539Y-54094620D01*
X49292889Y-53989112D01*
X49488425Y-53793916D01*
X49594379Y-53538751D01*
X49594620Y-53262461D01*
X49489112Y-53007111D01*
X49293916Y-52811575D01*
X49038751Y-52705621D01*
X48762461Y-52705380D01*
X48507111Y-52810888D01*
X48311575Y-53006084D01*
X48205621Y-53261249D01*
X48205380Y-53537539D01*
X41050000Y-53537539D01*
X41050000Y-52337539D01*
X45305380Y-52337539D01*
X45410888Y-52592889D01*
X45606084Y-52788425D01*
X45861249Y-52894379D01*
X46137539Y-52894620D01*
X46392889Y-52789112D01*
X46588425Y-52593916D01*
X46694379Y-52338751D01*
X46694620Y-52062461D01*
X46589112Y-51807111D01*
X46393916Y-51611575D01*
X46138751Y-51505621D01*
X45862461Y-51505380D01*
X45607111Y-51610888D01*
X45411575Y-51806084D01*
X45305621Y-52061249D01*
X45305380Y-52337539D01*
X41050000Y-52337539D01*
X41050000Y-51337539D01*
X53905380Y-51337539D01*
X54010888Y-51592889D01*
X54206084Y-51788425D01*
X54461249Y-51894379D01*
X54737539Y-51894620D01*
X54992889Y-51789112D01*
X55188425Y-51593916D01*
X55294379Y-51338751D01*
X55294554Y-51137539D01*
X70055380Y-51137539D01*
X70160888Y-51392889D01*
X70356084Y-51588425D01*
X70611249Y-51694379D01*
X70887539Y-51694620D01*
X71142889Y-51589112D01*
X71338425Y-51393916D01*
X71444379Y-51138751D01*
X71444620Y-50862461D01*
X71339112Y-50607111D01*
X71219748Y-50487539D01*
X73155380Y-50487539D01*
X73260888Y-50742889D01*
X73456084Y-50938425D01*
X73711249Y-51044379D01*
X73987539Y-51044620D01*
X74242889Y-50939112D01*
X74438425Y-50743916D01*
X74544379Y-50488751D01*
X74544620Y-50212461D01*
X74439112Y-49957111D01*
X74243916Y-49761575D01*
X73988751Y-49655621D01*
X73712461Y-49655380D01*
X73457111Y-49760888D01*
X73261575Y-49956084D01*
X73155621Y-50211249D01*
X73155380Y-50487539D01*
X71219748Y-50487539D01*
X71143916Y-50411575D01*
X70888751Y-50305621D01*
X70612461Y-50305380D01*
X70357111Y-50410888D01*
X70161575Y-50606084D01*
X70055621Y-50861249D01*
X70055380Y-51137539D01*
X55294554Y-51137539D01*
X55294620Y-51062461D01*
X55189112Y-50807111D01*
X54993916Y-50611575D01*
X54738751Y-50505621D01*
X54462461Y-50505380D01*
X54207111Y-50610888D01*
X54011575Y-50806084D01*
X53905621Y-51061249D01*
X53905380Y-51337539D01*
X41050000Y-51337539D01*
X41050000Y-48187539D01*
X56755380Y-48187539D01*
X56860888Y-48442889D01*
X57056084Y-48638425D01*
X57311249Y-48744379D01*
X57587539Y-48744620D01*
X57842889Y-48639112D01*
X58038425Y-48443916D01*
X58144379Y-48188751D01*
X58144620Y-47912461D01*
X58039112Y-47657111D01*
X57843916Y-47461575D01*
X57786032Y-47437539D01*
X61305380Y-47437539D01*
X61410888Y-47692889D01*
X61606084Y-47888425D01*
X61861249Y-47994379D01*
X62137539Y-47994620D01*
X62392889Y-47889112D01*
X62487472Y-47794693D01*
X62556084Y-47863425D01*
X62811249Y-47969379D01*
X63087539Y-47969620D01*
X63342889Y-47864112D01*
X63538425Y-47668916D01*
X63644379Y-47413751D01*
X63644620Y-47137461D01*
X63582674Y-46987539D01*
X67755380Y-46987539D01*
X67860888Y-47242889D01*
X68056084Y-47438425D01*
X68311249Y-47544379D01*
X68587539Y-47544620D01*
X68842889Y-47439112D01*
X69038425Y-47243916D01*
X69144379Y-46988751D01*
X69144620Y-46712461D01*
X69039112Y-46457111D01*
X68843916Y-46261575D01*
X68588751Y-46155621D01*
X68312461Y-46155380D01*
X68057111Y-46260888D01*
X67861575Y-46456084D01*
X67755621Y-46711249D01*
X67755380Y-46987539D01*
X63582674Y-46987539D01*
X63539112Y-46882111D01*
X63343916Y-46686575D01*
X63088751Y-46580621D01*
X62812461Y-46580380D01*
X62557111Y-46685888D01*
X62462528Y-46780307D01*
X62393916Y-46711575D01*
X62138751Y-46605621D01*
X61862461Y-46605380D01*
X61607111Y-46710888D01*
X61411575Y-46906084D01*
X61305621Y-47161249D01*
X61305380Y-47437539D01*
X57786032Y-47437539D01*
X57588751Y-47355621D01*
X57312461Y-47355380D01*
X57057111Y-47460888D01*
X56861575Y-47656084D01*
X56755621Y-47911249D01*
X56755380Y-48187539D01*
X41050000Y-48187539D01*
X41050000Y-42737539D01*
X60905380Y-42737539D01*
X61010888Y-42992889D01*
X61206084Y-43188425D01*
X61461249Y-43294379D01*
X61737539Y-43294620D01*
X61992889Y-43189112D01*
X62188425Y-42993916D01*
X62294379Y-42738751D01*
X62294620Y-42462461D01*
X62189112Y-42207111D01*
X61993916Y-42011575D01*
X61738751Y-41905621D01*
X61462461Y-41905380D01*
X61207111Y-42010888D01*
X61011575Y-42206084D01*
X60905621Y-42461249D01*
X60905380Y-42737539D01*
X41050000Y-42737539D01*
X41050000Y-41583481D01*
X70444866Y-41583481D01*
X70562604Y-41868429D01*
X70780425Y-42086630D01*
X71065167Y-42204865D01*
X71373481Y-42205134D01*
X71658429Y-42087396D01*
X71855152Y-41891016D01*
X72050425Y-42086630D01*
X72335167Y-42204865D01*
X72643481Y-42205134D01*
X72928429Y-42087396D01*
X73125152Y-41891016D01*
X73320425Y-42086630D01*
X73605167Y-42204865D01*
X73913481Y-42205134D01*
X74198429Y-42087396D01*
X74395152Y-41891016D01*
X74590425Y-42086630D01*
X74875167Y-42204865D01*
X75183481Y-42205134D01*
X75468429Y-42087396D01*
X75665152Y-41891016D01*
X75706967Y-41932904D01*
X75682356Y-41937535D01*
X75597268Y-41992288D01*
X75540185Y-42075831D01*
X75520103Y-42175000D01*
X75520103Y-43225000D01*
X75537535Y-43317644D01*
X75592288Y-43402732D01*
X75675831Y-43459815D01*
X75775000Y-43479897D01*
X76825000Y-43479897D01*
X76917644Y-43462465D01*
X77002732Y-43407712D01*
X77059815Y-43324169D01*
X77079897Y-43225000D01*
X77079897Y-42175000D01*
X77062465Y-42082356D01*
X77015212Y-42008922D01*
X83949905Y-42008922D01*
X84033461Y-42211143D01*
X84188043Y-42365995D01*
X84390118Y-42449904D01*
X84608922Y-42450095D01*
X84811143Y-42366539D01*
X84965995Y-42211957D01*
X85049904Y-42009882D01*
X85050095Y-41791078D01*
X84966539Y-41588857D01*
X84811957Y-41434005D01*
X84609882Y-41350096D01*
X84391078Y-41349905D01*
X84188857Y-41433461D01*
X84034005Y-41588043D01*
X83950096Y-41790118D01*
X83949905Y-42008922D01*
X77015212Y-42008922D01*
X77007712Y-41997268D01*
X76924169Y-41940185D01*
X76892351Y-41933742D01*
X76956630Y-41869575D01*
X77074865Y-41584833D01*
X77075134Y-41276519D01*
X76957396Y-40991571D01*
X76739575Y-40773370D01*
X76454833Y-40655135D01*
X76146519Y-40654866D01*
X75861571Y-40772604D01*
X75664848Y-40968984D01*
X75469575Y-40773370D01*
X75184833Y-40655135D01*
X74876519Y-40654866D01*
X74591571Y-40772604D01*
X74394848Y-40968984D01*
X74199575Y-40773370D01*
X73914833Y-40655135D01*
X73606519Y-40654866D01*
X73321571Y-40772604D01*
X73124848Y-40968984D01*
X72929575Y-40773370D01*
X72644833Y-40655135D01*
X72336519Y-40654866D01*
X72051571Y-40772604D01*
X71854848Y-40968984D01*
X71659575Y-40773370D01*
X71374833Y-40655135D01*
X71066519Y-40654866D01*
X70781571Y-40772604D01*
X70563370Y-40990425D01*
X70445135Y-41275167D01*
X70444866Y-41583481D01*
X41050000Y-41583481D01*
X41050000Y-40050000D01*
X43805456Y-40050000D01*
X43805380Y-40137539D01*
X43910888Y-40392889D01*
X44106084Y-40588425D01*
X44361249Y-40694379D01*
X44637539Y-40694620D01*
X44892889Y-40589112D01*
X45073392Y-40408922D01*
X69549905Y-40408922D01*
X69633461Y-40611143D01*
X69788043Y-40765995D01*
X69990118Y-40849904D01*
X70208922Y-40850095D01*
X70411143Y-40766539D01*
X70565995Y-40611957D01*
X70649904Y-40409882D01*
X70650095Y-40191078D01*
X70566539Y-39988857D01*
X70411957Y-39834005D01*
X70209882Y-39750096D01*
X69991078Y-39749905D01*
X69788857Y-39833461D01*
X69634005Y-39988043D01*
X69550096Y-40190118D01*
X69549905Y-40408922D01*
X45073392Y-40408922D01*
X45088425Y-40393916D01*
X45194379Y-40138751D01*
X45194456Y-40050000D01*
X51500000Y-40050000D01*
X51519453Y-40046061D01*
X51535840Y-40034864D01*
X51546581Y-40018173D01*
X51550000Y-40000000D01*
X51550000Y-39637539D01*
X82805380Y-39637539D01*
X82910888Y-39892889D01*
X83106084Y-40088425D01*
X83361249Y-40194379D01*
X83637539Y-40194620D01*
X83892889Y-40089112D01*
X84088425Y-39893916D01*
X84194379Y-39638751D01*
X84194620Y-39362461D01*
X84089112Y-39107111D01*
X83893916Y-38911575D01*
X83638751Y-38805621D01*
X83362461Y-38805380D01*
X83107111Y-38910888D01*
X82911575Y-39106084D01*
X82805621Y-39361249D01*
X82805380Y-39637539D01*
X51550000Y-39637539D01*
X51550000Y-33108922D01*
X52699905Y-33108922D01*
X52700000Y-33109152D01*
X52700000Y-38750000D01*
X52699905Y-38858922D01*
X52700000Y-38859152D01*
X52700000Y-39250000D01*
X52703939Y-39269453D01*
X52714645Y-39285355D01*
X52964645Y-39535355D01*
X52981185Y-39546325D01*
X53000000Y-39550000D01*
X55350093Y-39550000D01*
X55458922Y-39550095D01*
X55459152Y-39550000D01*
X58900093Y-39550000D01*
X59008922Y-39550095D01*
X59009152Y-39550000D01*
X60000093Y-39550000D01*
X60108922Y-39550095D01*
X60109152Y-39550000D01*
X60250000Y-39550000D01*
X60269453Y-39546061D01*
X60285355Y-39535355D01*
X60785355Y-39035355D01*
X60796325Y-39018815D01*
X60800000Y-39000000D01*
X60800000Y-38437539D01*
X73905380Y-38437539D01*
X74010888Y-38692889D01*
X74206084Y-38888425D01*
X74461249Y-38994379D01*
X74737539Y-38994620D01*
X74992889Y-38889112D01*
X75188425Y-38693916D01*
X75294379Y-38438751D01*
X75294620Y-38162461D01*
X75284323Y-38137539D01*
X82805380Y-38137539D01*
X82910888Y-38392889D01*
X83106084Y-38588425D01*
X83361249Y-38694379D01*
X83637539Y-38694620D01*
X83892889Y-38589112D01*
X84088425Y-38393916D01*
X84194379Y-38138751D01*
X84194620Y-37862461D01*
X84101685Y-37637539D01*
X84305380Y-37637539D01*
X84410888Y-37892889D01*
X84606084Y-38088425D01*
X84861249Y-38194379D01*
X85137539Y-38194620D01*
X85392889Y-38089112D01*
X85588425Y-37893916D01*
X85694379Y-37638751D01*
X85694620Y-37362461D01*
X85589112Y-37107111D01*
X85393916Y-36911575D01*
X85138751Y-36805621D01*
X84862461Y-36805380D01*
X84607111Y-36910888D01*
X84411575Y-37106084D01*
X84305621Y-37361249D01*
X84305380Y-37637539D01*
X84101685Y-37637539D01*
X84089112Y-37607111D01*
X83893916Y-37411575D01*
X83638751Y-37305621D01*
X83362461Y-37305380D01*
X83107111Y-37410888D01*
X82911575Y-37606084D01*
X82805621Y-37861249D01*
X82805380Y-38137539D01*
X75284323Y-38137539D01*
X75189112Y-37907111D01*
X74993916Y-37711575D01*
X74738751Y-37605621D01*
X74462461Y-37605380D01*
X74207111Y-37710888D01*
X74011575Y-37906084D01*
X73905621Y-38161249D01*
X73905380Y-38437539D01*
X60800000Y-38437539D01*
X60800000Y-37299907D01*
X60800095Y-37191078D01*
X60800000Y-37190848D01*
X60800000Y-36808922D01*
X67449905Y-36808922D01*
X67533461Y-37011143D01*
X67688043Y-37165995D01*
X67890118Y-37249904D01*
X68108922Y-37250095D01*
X68311143Y-37166539D01*
X68465995Y-37011957D01*
X68549904Y-36809882D01*
X68550095Y-36591078D01*
X68466539Y-36388857D01*
X68311957Y-36234005D01*
X68109882Y-36150096D01*
X67891078Y-36149905D01*
X67688857Y-36233461D01*
X67534005Y-36388043D01*
X67450096Y-36590118D01*
X67449905Y-36808922D01*
X60800000Y-36808922D01*
X60800000Y-35649907D01*
X60800095Y-35541078D01*
X60800000Y-35540848D01*
X60800000Y-35520710D01*
X60911788Y-35408922D01*
X73749905Y-35408922D01*
X73833461Y-35611143D01*
X73988043Y-35765995D01*
X74190118Y-35849904D01*
X74408922Y-35850095D01*
X74611143Y-35766539D01*
X74765995Y-35611957D01*
X74849904Y-35409882D01*
X74850095Y-35191078D01*
X74766539Y-34988857D01*
X74611957Y-34834005D01*
X74409882Y-34750096D01*
X74191078Y-34749905D01*
X73988857Y-34833461D01*
X73834005Y-34988043D01*
X73750096Y-35190118D01*
X73749905Y-35408922D01*
X60911788Y-35408922D01*
X61285355Y-35035355D01*
X61296325Y-35018815D01*
X61300000Y-35000000D01*
X61300000Y-34250000D01*
X61296061Y-34230547D01*
X61285355Y-34214645D01*
X61279632Y-34208922D01*
X67899905Y-34208922D01*
X67983461Y-34411143D01*
X68138043Y-34565995D01*
X68340118Y-34649904D01*
X68558922Y-34650095D01*
X68761143Y-34566539D01*
X68915995Y-34411957D01*
X68999904Y-34209882D01*
X69000079Y-34008922D01*
X72149905Y-34008922D01*
X72233461Y-34211143D01*
X72388043Y-34365995D01*
X72590118Y-34449904D01*
X72808922Y-34450095D01*
X73011143Y-34366539D01*
X73165995Y-34211957D01*
X73249904Y-34009882D01*
X73250095Y-33791078D01*
X73166539Y-33588857D01*
X73011957Y-33434005D01*
X72809882Y-33350096D01*
X72591078Y-33349905D01*
X72388857Y-33433461D01*
X72234005Y-33588043D01*
X72150096Y-33790118D01*
X72149905Y-34008922D01*
X69000079Y-34008922D01*
X69000095Y-33991078D01*
X68916539Y-33788857D01*
X68761957Y-33634005D01*
X68559882Y-33550096D01*
X68341078Y-33549905D01*
X68138857Y-33633461D01*
X67984005Y-33788043D01*
X67900096Y-33990118D01*
X67899905Y-34208922D01*
X61279632Y-34208922D01*
X60399931Y-33329221D01*
X60399948Y-33308922D01*
X73749905Y-33308922D01*
X73833461Y-33511143D01*
X73988043Y-33665995D01*
X74190118Y-33749904D01*
X74408922Y-33750095D01*
X74611143Y-33666539D01*
X74765995Y-33511957D01*
X74838151Y-33338185D01*
X84449398Y-33338185D01*
X84555679Y-33595403D01*
X84752302Y-33792370D01*
X85009334Y-33899099D01*
X85287645Y-33899342D01*
X85544863Y-33793061D01*
X85741830Y-33596438D01*
X85848559Y-33339406D01*
X85848802Y-33061095D01*
X85742521Y-32803877D01*
X85545898Y-32606910D01*
X85288866Y-32500181D01*
X85010555Y-32499938D01*
X84753337Y-32606219D01*
X84556370Y-32802842D01*
X84449641Y-33059874D01*
X84449398Y-33338185D01*
X74838151Y-33338185D01*
X74849904Y-33309882D01*
X74850095Y-33091078D01*
X74766539Y-32888857D01*
X74611957Y-32734005D01*
X74409882Y-32650096D01*
X74191078Y-32649905D01*
X73988857Y-32733461D01*
X73834005Y-32888043D01*
X73750096Y-33090118D01*
X73749905Y-33308922D01*
X60399948Y-33308922D01*
X60400095Y-33141078D01*
X60316539Y-32938857D01*
X60302817Y-32925112D01*
X60315995Y-32911957D01*
X60399904Y-32709882D01*
X60400095Y-32491078D01*
X60316539Y-32288857D01*
X60300000Y-32272289D01*
X60300000Y-32108922D01*
X67199905Y-32108922D01*
X67283461Y-32311143D01*
X67438043Y-32465995D01*
X67640118Y-32549904D01*
X67858922Y-32550095D01*
X68061143Y-32466539D01*
X68215995Y-32311957D01*
X68299904Y-32109882D01*
X68300095Y-31891078D01*
X68216539Y-31688857D01*
X68061957Y-31534005D01*
X67859882Y-31450096D01*
X67641078Y-31449905D01*
X67438857Y-31533461D01*
X67284005Y-31688043D01*
X67200096Y-31890118D01*
X67199905Y-32108922D01*
X60300000Y-32108922D01*
X60300000Y-31750000D01*
X60296061Y-31730547D01*
X60285355Y-31714645D01*
X60079632Y-31508922D01*
X64999905Y-31508922D01*
X65083461Y-31711143D01*
X65238043Y-31865995D01*
X65440118Y-31949904D01*
X65658922Y-31950095D01*
X65861143Y-31866539D01*
X66015995Y-31711957D01*
X66099904Y-31509882D01*
X66100095Y-31291078D01*
X66016539Y-31088857D01*
X65861957Y-30934005D01*
X65659882Y-30850096D01*
X65441078Y-30849905D01*
X65238857Y-30933461D01*
X65084005Y-31088043D01*
X65000096Y-31290118D01*
X64999905Y-31508922D01*
X60079632Y-31508922D01*
X59785355Y-31214645D01*
X59768815Y-31203675D01*
X59750000Y-31200000D01*
X57699907Y-31200000D01*
X57591078Y-31199905D01*
X57590848Y-31200000D01*
X54250000Y-31200000D01*
X54230547Y-31203939D01*
X54214645Y-31214645D01*
X52714645Y-32714645D01*
X52703675Y-32731185D01*
X52700000Y-32750000D01*
X52700000Y-33000093D01*
X52699905Y-33108922D01*
X51550000Y-33108922D01*
X51550000Y-30108922D01*
X74349905Y-30108922D01*
X74433461Y-30311143D01*
X74588043Y-30465995D01*
X74790118Y-30549904D01*
X75008922Y-30550095D01*
X75211143Y-30466539D01*
X75365995Y-30311957D01*
X75449904Y-30109882D01*
X75450095Y-29891078D01*
X75366539Y-29688857D01*
X75211957Y-29534005D01*
X75009882Y-29450096D01*
X74791078Y-29449905D01*
X74588857Y-29533461D01*
X74434005Y-29688043D01*
X74350096Y-29890118D01*
X74349905Y-30108922D01*
X51550000Y-30108922D01*
X51550000Y-30020710D01*
X52020710Y-29550000D01*
X56500000Y-29550000D01*
X56519453Y-29546061D01*
X56531925Y-29537539D01*
X59705380Y-29537539D01*
X59810888Y-29792889D01*
X60006084Y-29988425D01*
X60261249Y-30094379D01*
X60537539Y-30094620D01*
X60792889Y-29989112D01*
X60988425Y-29793916D01*
X61094379Y-29538751D01*
X61094579Y-29308922D01*
X70149905Y-29308922D01*
X70233461Y-29511143D01*
X70388043Y-29665995D01*
X70590118Y-29749904D01*
X70808922Y-29750095D01*
X71011143Y-29666539D01*
X71165995Y-29511957D01*
X71249904Y-29309882D01*
X71250095Y-29091078D01*
X71174830Y-28908922D01*
X79749905Y-28908922D01*
X79833461Y-29111143D01*
X79988043Y-29265995D01*
X80190118Y-29349904D01*
X80408922Y-29350095D01*
X80611143Y-29266539D01*
X80765995Y-29111957D01*
X80837852Y-28938905D01*
X84449398Y-28938905D01*
X84555679Y-29196123D01*
X84752302Y-29393090D01*
X85009334Y-29499819D01*
X85287645Y-29500062D01*
X85544863Y-29393781D01*
X85741830Y-29197158D01*
X85848559Y-28940126D01*
X85848802Y-28661815D01*
X85742521Y-28404597D01*
X85545898Y-28207630D01*
X85288866Y-28100901D01*
X85010555Y-28100658D01*
X84753337Y-28206939D01*
X84556370Y-28403562D01*
X84449641Y-28660594D01*
X84449398Y-28938905D01*
X80837852Y-28938905D01*
X80849904Y-28909882D01*
X80850095Y-28691078D01*
X80766539Y-28488857D01*
X80611957Y-28334005D01*
X80409882Y-28250096D01*
X80191078Y-28249905D01*
X79988857Y-28333461D01*
X79834005Y-28488043D01*
X79750096Y-28690118D01*
X79749905Y-28908922D01*
X71174830Y-28908922D01*
X71166539Y-28888857D01*
X71011957Y-28734005D01*
X70809882Y-28650096D01*
X70591078Y-28649905D01*
X70388857Y-28733461D01*
X70234005Y-28888043D01*
X70150096Y-29090118D01*
X70149905Y-29308922D01*
X61094579Y-29308922D01*
X61094620Y-29262461D01*
X60989112Y-29007111D01*
X60793916Y-28811575D01*
X60538751Y-28705621D01*
X60262461Y-28705380D01*
X60007111Y-28810888D01*
X59811575Y-29006084D01*
X59705621Y-29261249D01*
X59705380Y-29537539D01*
X56531925Y-29537539D01*
X56535840Y-29534864D01*
X56546581Y-29518173D01*
X56550000Y-29500000D01*
X56550000Y-27987539D01*
X62705380Y-27987539D01*
X62810888Y-28242889D01*
X63006084Y-28438425D01*
X63261249Y-28544379D01*
X63537539Y-28544620D01*
X63792889Y-28439112D01*
X63988425Y-28243916D01*
X64094379Y-27988751D01*
X64094423Y-27937539D01*
X70205380Y-27937539D01*
X70310888Y-28192889D01*
X70506084Y-28388425D01*
X70761249Y-28494379D01*
X71037539Y-28494620D01*
X71292889Y-28389112D01*
X71488425Y-28193916D01*
X71594379Y-27938751D01*
X71594620Y-27662461D01*
X71489112Y-27407111D01*
X71293916Y-27211575D01*
X71038751Y-27105621D01*
X70762461Y-27105380D01*
X70507111Y-27210888D01*
X70311575Y-27406084D01*
X70205621Y-27661249D01*
X70205380Y-27937539D01*
X64094423Y-27937539D01*
X64094620Y-27712461D01*
X63989112Y-27457111D01*
X63826676Y-27294392D01*
X64087539Y-27294620D01*
X64342889Y-27189112D01*
X64538425Y-26993916D01*
X64644379Y-26738751D01*
X64644620Y-26462461D01*
X64539112Y-26207111D01*
X64343916Y-26011575D01*
X64088751Y-25905621D01*
X63812461Y-25905380D01*
X63557111Y-26010888D01*
X63361575Y-26206084D01*
X63255621Y-26461249D01*
X63255380Y-26737539D01*
X63360888Y-26992889D01*
X63523324Y-27155608D01*
X63262461Y-27155380D01*
X63007111Y-27260888D01*
X62811575Y-27456084D01*
X62705621Y-27711249D01*
X62705380Y-27987539D01*
X56550000Y-27987539D01*
X56550000Y-23287539D01*
X67305380Y-23287539D01*
X67410888Y-23542889D01*
X67606084Y-23738425D01*
X67861249Y-23844379D01*
X68137539Y-23844620D01*
X68392889Y-23739112D01*
X68588425Y-23543916D01*
X68694379Y-23288751D01*
X68694620Y-23012461D01*
X68589112Y-22757111D01*
X68393916Y-22561575D01*
X68138751Y-22455621D01*
X67862461Y-22455380D01*
X67607111Y-22560888D01*
X67411575Y-22756084D01*
X67305621Y-23011249D01*
X67305380Y-23287539D01*
X56550000Y-23287539D01*
X56550000Y-22037539D01*
X72105380Y-22037539D01*
X72210888Y-22292889D01*
X72406084Y-22488425D01*
X72661249Y-22594379D01*
X72937539Y-22594620D01*
X73192889Y-22489112D01*
X73388425Y-22293916D01*
X73494379Y-22038751D01*
X73494620Y-21762461D01*
X73389112Y-21507111D01*
X73193916Y-21311575D01*
X72938751Y-21205621D01*
X72662461Y-21205380D01*
X72407111Y-21310888D01*
X72211575Y-21506084D01*
X72105621Y-21761249D01*
X72105380Y-22037539D01*
X56550000Y-22037539D01*
X56550000Y-21945627D01*
X56594379Y-21838751D01*
X56594620Y-21562461D01*
X56550000Y-21454472D01*
X56550000Y-21050000D01*
X89950000Y-21050000D01*
X89950000Y-55950000D01*
X89950000Y-55950000D01*
G37*
X89950000Y-55950000D02*
X71000000Y-55950000D01*
X70980547Y-55953939D01*
X70964160Y-55965136D01*
X70953419Y-55981827D01*
X70950000Y-56000000D01*
X70950000Y-56450000D01*
X58375054Y-56450000D01*
X58317633Y-56161325D01*
X58125790Y-55874210D01*
X57838675Y-55682367D01*
X57500000Y-55615000D01*
X54267217Y-55615000D01*
X54338425Y-55543916D01*
X54444379Y-55288751D01*
X54444620Y-55012461D01*
X54339112Y-54757111D01*
X54143916Y-54561575D01*
X53888751Y-54455621D01*
X53612461Y-54455380D01*
X53357111Y-54560888D01*
X53161575Y-54756084D01*
X53055621Y-55011249D01*
X53055380Y-55287539D01*
X53160888Y-55542889D01*
X53232874Y-55615000D01*
X50500005Y-55615000D01*
X50500000Y-55614999D01*
X50161326Y-55682366D01*
X50161324Y-55682367D01*
X50161325Y-55682367D01*
X49874210Y-55874210D01*
X49874208Y-55874213D01*
X49298420Y-56450000D01*
X41050000Y-56450000D01*
X41050000Y-55737539D01*
X43405380Y-55737539D01*
X43510888Y-55992889D01*
X43706084Y-56188425D01*
X43961249Y-56294379D01*
X44237539Y-56294620D01*
X44492889Y-56189112D01*
X44688425Y-55993916D01*
X44794379Y-55738751D01*
X44794620Y-55462461D01*
X44689112Y-55207111D01*
X44493916Y-55011575D01*
X44238751Y-54905621D01*
X43962461Y-54905380D01*
X43707111Y-55010888D01*
X43511575Y-55206084D01*
X43405621Y-55461249D01*
X43405380Y-55737539D01*
X41050000Y-55737539D01*
X41050000Y-53537539D01*
X48205380Y-53537539D01*
X48310888Y-53792889D01*
X48506084Y-53988425D01*
X48761249Y-54094379D01*
X49037539Y-54094620D01*
X49292889Y-53989112D01*
X49488425Y-53793916D01*
X49594379Y-53538751D01*
X49594620Y-53262461D01*
X49489112Y-53007111D01*
X49293916Y-52811575D01*
X49038751Y-52705621D01*
X48762461Y-52705380D01*
X48507111Y-52810888D01*
X48311575Y-53006084D01*
X48205621Y-53261249D01*
X48205380Y-53537539D01*
X41050000Y-53537539D01*
X41050000Y-52337539D01*
X45305380Y-52337539D01*
X45410888Y-52592889D01*
X45606084Y-52788425D01*
X45861249Y-52894379D01*
X46137539Y-52894620D01*
X46392889Y-52789112D01*
X46588425Y-52593916D01*
X46694379Y-52338751D01*
X46694620Y-52062461D01*
X46589112Y-51807111D01*
X46393916Y-51611575D01*
X46138751Y-51505621D01*
X45862461Y-51505380D01*
X45607111Y-51610888D01*
X45411575Y-51806084D01*
X45305621Y-52061249D01*
X45305380Y-52337539D01*
X41050000Y-52337539D01*
X41050000Y-51337539D01*
X53905380Y-51337539D01*
X54010888Y-51592889D01*
X54206084Y-51788425D01*
X54461249Y-51894379D01*
X54737539Y-51894620D01*
X54992889Y-51789112D01*
X55188425Y-51593916D01*
X55294379Y-51338751D01*
X55294554Y-51137539D01*
X70055380Y-51137539D01*
X70160888Y-51392889D01*
X70356084Y-51588425D01*
X70611249Y-51694379D01*
X70887539Y-51694620D01*
X71142889Y-51589112D01*
X71338425Y-51393916D01*
X71444379Y-51138751D01*
X71444620Y-50862461D01*
X71339112Y-50607111D01*
X71219748Y-50487539D01*
X73155380Y-50487539D01*
X73260888Y-50742889D01*
X73456084Y-50938425D01*
X73711249Y-51044379D01*
X73987539Y-51044620D01*
X74242889Y-50939112D01*
X74438425Y-50743916D01*
X74544379Y-50488751D01*
X74544620Y-50212461D01*
X74439112Y-49957111D01*
X74243916Y-49761575D01*
X73988751Y-49655621D01*
X73712461Y-49655380D01*
X73457111Y-49760888D01*
X73261575Y-49956084D01*
X73155621Y-50211249D01*
X73155380Y-50487539D01*
X71219748Y-50487539D01*
X71143916Y-50411575D01*
X70888751Y-50305621D01*
X70612461Y-50305380D01*
X70357111Y-50410888D01*
X70161575Y-50606084D01*
X70055621Y-50861249D01*
X70055380Y-51137539D01*
X55294554Y-51137539D01*
X55294620Y-51062461D01*
X55189112Y-50807111D01*
X54993916Y-50611575D01*
X54738751Y-50505621D01*
X54462461Y-50505380D01*
X54207111Y-50610888D01*
X54011575Y-50806084D01*
X53905621Y-51061249D01*
X53905380Y-51337539D01*
X41050000Y-51337539D01*
X41050000Y-48187539D01*
X56755380Y-48187539D01*
X56860888Y-48442889D01*
X57056084Y-48638425D01*
X57311249Y-48744379D01*
X57587539Y-48744620D01*
X57842889Y-48639112D01*
X58038425Y-48443916D01*
X58144379Y-48188751D01*
X58144620Y-47912461D01*
X58039112Y-47657111D01*
X57843916Y-47461575D01*
X57786032Y-47437539D01*
X61305380Y-47437539D01*
X61410888Y-47692889D01*
X61606084Y-47888425D01*
X61861249Y-47994379D01*
X62137539Y-47994620D01*
X62392889Y-47889112D01*
X62487472Y-47794693D01*
X62556084Y-47863425D01*
X62811249Y-47969379D01*
X63087539Y-47969620D01*
X63342889Y-47864112D01*
X63538425Y-47668916D01*
X63644379Y-47413751D01*
X63644620Y-47137461D01*
X63582674Y-46987539D01*
X67755380Y-46987539D01*
X67860888Y-47242889D01*
X68056084Y-47438425D01*
X68311249Y-47544379D01*
X68587539Y-47544620D01*
X68842889Y-47439112D01*
X69038425Y-47243916D01*
X69144379Y-46988751D01*
X69144620Y-46712461D01*
X69039112Y-46457111D01*
X68843916Y-46261575D01*
X68588751Y-46155621D01*
X68312461Y-46155380D01*
X68057111Y-46260888D01*
X67861575Y-46456084D01*
X67755621Y-46711249D01*
X67755380Y-46987539D01*
X63582674Y-46987539D01*
X63539112Y-46882111D01*
X63343916Y-46686575D01*
X63088751Y-46580621D01*
X62812461Y-46580380D01*
X62557111Y-46685888D01*
X62462528Y-46780307D01*
X62393916Y-46711575D01*
X62138751Y-46605621D01*
X61862461Y-46605380D01*
X61607111Y-46710888D01*
X61411575Y-46906084D01*
X61305621Y-47161249D01*
X61305380Y-47437539D01*
X57786032Y-47437539D01*
X57588751Y-47355621D01*
X57312461Y-47355380D01*
X57057111Y-47460888D01*
X56861575Y-47656084D01*
X56755621Y-47911249D01*
X56755380Y-48187539D01*
X41050000Y-48187539D01*
X41050000Y-42737539D01*
X60905380Y-42737539D01*
X61010888Y-42992889D01*
X61206084Y-43188425D01*
X61461249Y-43294379D01*
X61737539Y-43294620D01*
X61992889Y-43189112D01*
X62188425Y-42993916D01*
X62294379Y-42738751D01*
X62294620Y-42462461D01*
X62189112Y-42207111D01*
X61993916Y-42011575D01*
X61738751Y-41905621D01*
X61462461Y-41905380D01*
X61207111Y-42010888D01*
X61011575Y-42206084D01*
X60905621Y-42461249D01*
X60905380Y-42737539D01*
X41050000Y-42737539D01*
X41050000Y-41583481D01*
X70444866Y-41583481D01*
X70562604Y-41868429D01*
X70780425Y-42086630D01*
X71065167Y-42204865D01*
X71373481Y-42205134D01*
X71658429Y-42087396D01*
X71855152Y-41891016D01*
X72050425Y-42086630D01*
X72335167Y-42204865D01*
X72643481Y-42205134D01*
X72928429Y-42087396D01*
X73125152Y-41891016D01*
X73320425Y-42086630D01*
X73605167Y-42204865D01*
X73913481Y-42205134D01*
X74198429Y-42087396D01*
X74395152Y-41891016D01*
X74590425Y-42086630D01*
X74875167Y-42204865D01*
X75183481Y-42205134D01*
X75468429Y-42087396D01*
X75665152Y-41891016D01*
X75706967Y-41932904D01*
X75682356Y-41937535D01*
X75597268Y-41992288D01*
X75540185Y-42075831D01*
X75520103Y-42175000D01*
X75520103Y-43225000D01*
X75537535Y-43317644D01*
X75592288Y-43402732D01*
X75675831Y-43459815D01*
X75775000Y-43479897D01*
X76825000Y-43479897D01*
X76917644Y-43462465D01*
X77002732Y-43407712D01*
X77059815Y-43324169D01*
X77079897Y-43225000D01*
X77079897Y-42175000D01*
X77062465Y-42082356D01*
X77015212Y-42008922D01*
X83949905Y-42008922D01*
X84033461Y-42211143D01*
X84188043Y-42365995D01*
X84390118Y-42449904D01*
X84608922Y-42450095D01*
X84811143Y-42366539D01*
X84965995Y-42211957D01*
X85049904Y-42009882D01*
X85050095Y-41791078D01*
X84966539Y-41588857D01*
X84811957Y-41434005D01*
X84609882Y-41350096D01*
X84391078Y-41349905D01*
X84188857Y-41433461D01*
X84034005Y-41588043D01*
X83950096Y-41790118D01*
X83949905Y-42008922D01*
X77015212Y-42008922D01*
X77007712Y-41997268D01*
X76924169Y-41940185D01*
X76892351Y-41933742D01*
X76956630Y-41869575D01*
X77074865Y-41584833D01*
X77075134Y-41276519D01*
X76957396Y-40991571D01*
X76739575Y-40773370D01*
X76454833Y-40655135D01*
X76146519Y-40654866D01*
X75861571Y-40772604D01*
X75664848Y-40968984D01*
X75469575Y-40773370D01*
X75184833Y-40655135D01*
X74876519Y-40654866D01*
X74591571Y-40772604D01*
X74394848Y-40968984D01*
X74199575Y-40773370D01*
X73914833Y-40655135D01*
X73606519Y-40654866D01*
X73321571Y-40772604D01*
X73124848Y-40968984D01*
X72929575Y-40773370D01*
X72644833Y-40655135D01*
X72336519Y-40654866D01*
X72051571Y-40772604D01*
X71854848Y-40968984D01*
X71659575Y-40773370D01*
X71374833Y-40655135D01*
X71066519Y-40654866D01*
X70781571Y-40772604D01*
X70563370Y-40990425D01*
X70445135Y-41275167D01*
X70444866Y-41583481D01*
X41050000Y-41583481D01*
X41050000Y-40050000D01*
X43805456Y-40050000D01*
X43805380Y-40137539D01*
X43910888Y-40392889D01*
X44106084Y-40588425D01*
X44361249Y-40694379D01*
X44637539Y-40694620D01*
X44892889Y-40589112D01*
X45073392Y-40408922D01*
X69549905Y-40408922D01*
X69633461Y-40611143D01*
X69788043Y-40765995D01*
X69990118Y-40849904D01*
X70208922Y-40850095D01*
X70411143Y-40766539D01*
X70565995Y-40611957D01*
X70649904Y-40409882D01*
X70650095Y-40191078D01*
X70566539Y-39988857D01*
X70411957Y-39834005D01*
X70209882Y-39750096D01*
X69991078Y-39749905D01*
X69788857Y-39833461D01*
X69634005Y-39988043D01*
X69550096Y-40190118D01*
X69549905Y-40408922D01*
X45073392Y-40408922D01*
X45088425Y-40393916D01*
X45194379Y-40138751D01*
X45194456Y-40050000D01*
X51500000Y-40050000D01*
X51519453Y-40046061D01*
X51535840Y-40034864D01*
X51546581Y-40018173D01*
X51550000Y-40000000D01*
X51550000Y-39637539D01*
X82805380Y-39637539D01*
X82910888Y-39892889D01*
X83106084Y-40088425D01*
X83361249Y-40194379D01*
X83637539Y-40194620D01*
X83892889Y-40089112D01*
X84088425Y-39893916D01*
X84194379Y-39638751D01*
X84194620Y-39362461D01*
X84089112Y-39107111D01*
X83893916Y-38911575D01*
X83638751Y-38805621D01*
X83362461Y-38805380D01*
X83107111Y-38910888D01*
X82911575Y-39106084D01*
X82805621Y-39361249D01*
X82805380Y-39637539D01*
X51550000Y-39637539D01*
X51550000Y-33108922D01*
X52699905Y-33108922D01*
X52700000Y-33109152D01*
X52700000Y-38750000D01*
X52699905Y-38858922D01*
X52700000Y-38859152D01*
X52700000Y-39250000D01*
X52703939Y-39269453D01*
X52714645Y-39285355D01*
X52964645Y-39535355D01*
X52981185Y-39546325D01*
X53000000Y-39550000D01*
X55350093Y-39550000D01*
X55458922Y-39550095D01*
X55459152Y-39550000D01*
X58900093Y-39550000D01*
X59008922Y-39550095D01*
X59009152Y-39550000D01*
X60000093Y-39550000D01*
X60108922Y-39550095D01*
X60109152Y-39550000D01*
X60250000Y-39550000D01*
X60269453Y-39546061D01*
X60285355Y-39535355D01*
X60785355Y-39035355D01*
X60796325Y-39018815D01*
X60800000Y-39000000D01*
X60800000Y-38437539D01*
X73905380Y-38437539D01*
X74010888Y-38692889D01*
X74206084Y-38888425D01*
X74461249Y-38994379D01*
X74737539Y-38994620D01*
X74992889Y-38889112D01*
X75188425Y-38693916D01*
X75294379Y-38438751D01*
X75294620Y-38162461D01*
X75284323Y-38137539D01*
X82805380Y-38137539D01*
X82910888Y-38392889D01*
X83106084Y-38588425D01*
X83361249Y-38694379D01*
X83637539Y-38694620D01*
X83892889Y-38589112D01*
X84088425Y-38393916D01*
X84194379Y-38138751D01*
X84194620Y-37862461D01*
X84101685Y-37637539D01*
X84305380Y-37637539D01*
X84410888Y-37892889D01*
X84606084Y-38088425D01*
X84861249Y-38194379D01*
X85137539Y-38194620D01*
X85392889Y-38089112D01*
X85588425Y-37893916D01*
X85694379Y-37638751D01*
X85694620Y-37362461D01*
X85589112Y-37107111D01*
X85393916Y-36911575D01*
X85138751Y-36805621D01*
X84862461Y-36805380D01*
X84607111Y-36910888D01*
X84411575Y-37106084D01*
X84305621Y-37361249D01*
X84305380Y-37637539D01*
X84101685Y-37637539D01*
X84089112Y-37607111D01*
X83893916Y-37411575D01*
X83638751Y-37305621D01*
X83362461Y-37305380D01*
X83107111Y-37410888D01*
X82911575Y-37606084D01*
X82805621Y-37861249D01*
X82805380Y-38137539D01*
X75284323Y-38137539D01*
X75189112Y-37907111D01*
X74993916Y-37711575D01*
X74738751Y-37605621D01*
X74462461Y-37605380D01*
X74207111Y-37710888D01*
X74011575Y-37906084D01*
X73905621Y-38161249D01*
X73905380Y-38437539D01*
X60800000Y-38437539D01*
X60800000Y-37299907D01*
X60800095Y-37191078D01*
X60800000Y-37190848D01*
X60800000Y-36808922D01*
X67449905Y-36808922D01*
X67533461Y-37011143D01*
X67688043Y-37165995D01*
X67890118Y-37249904D01*
X68108922Y-37250095D01*
X68311143Y-37166539D01*
X68465995Y-37011957D01*
X68549904Y-36809882D01*
X68550095Y-36591078D01*
X68466539Y-36388857D01*
X68311957Y-36234005D01*
X68109882Y-36150096D01*
X67891078Y-36149905D01*
X67688857Y-36233461D01*
X67534005Y-36388043D01*
X67450096Y-36590118D01*
X67449905Y-36808922D01*
X60800000Y-36808922D01*
X60800000Y-35649907D01*
X60800095Y-35541078D01*
X60800000Y-35540848D01*
X60800000Y-35520710D01*
X60911788Y-35408922D01*
X73749905Y-35408922D01*
X73833461Y-35611143D01*
X73988043Y-35765995D01*
X74190118Y-35849904D01*
X74408922Y-35850095D01*
X74611143Y-35766539D01*
X74765995Y-35611957D01*
X74849904Y-35409882D01*
X74850095Y-35191078D01*
X74766539Y-34988857D01*
X74611957Y-34834005D01*
X74409882Y-34750096D01*
X74191078Y-34749905D01*
X73988857Y-34833461D01*
X73834005Y-34988043D01*
X73750096Y-35190118D01*
X73749905Y-35408922D01*
X60911788Y-35408922D01*
X61285355Y-35035355D01*
X61296325Y-35018815D01*
X61300000Y-35000000D01*
X61300000Y-34250000D01*
X61296061Y-34230547D01*
X61285355Y-34214645D01*
X61279632Y-34208922D01*
X67899905Y-34208922D01*
X67983461Y-34411143D01*
X68138043Y-34565995D01*
X68340118Y-34649904D01*
X68558922Y-34650095D01*
X68761143Y-34566539D01*
X68915995Y-34411957D01*
X68999904Y-34209882D01*
X69000079Y-34008922D01*
X72149905Y-34008922D01*
X72233461Y-34211143D01*
X72388043Y-34365995D01*
X72590118Y-34449904D01*
X72808922Y-34450095D01*
X73011143Y-34366539D01*
X73165995Y-34211957D01*
X73249904Y-34009882D01*
X73250095Y-33791078D01*
X73166539Y-33588857D01*
X73011957Y-33434005D01*
X72809882Y-33350096D01*
X72591078Y-33349905D01*
X72388857Y-33433461D01*
X72234005Y-33588043D01*
X72150096Y-33790118D01*
X72149905Y-34008922D01*
X69000079Y-34008922D01*
X69000095Y-33991078D01*
X68916539Y-33788857D01*
X68761957Y-33634005D01*
X68559882Y-33550096D01*
X68341078Y-33549905D01*
X68138857Y-33633461D01*
X67984005Y-33788043D01*
X67900096Y-33990118D01*
X67899905Y-34208922D01*
X61279632Y-34208922D01*
X60399931Y-33329221D01*
X60399948Y-33308922D01*
X73749905Y-33308922D01*
X73833461Y-33511143D01*
X73988043Y-33665995D01*
X74190118Y-33749904D01*
X74408922Y-33750095D01*
X74611143Y-33666539D01*
X74765995Y-33511957D01*
X74838151Y-33338185D01*
X84449398Y-33338185D01*
X84555679Y-33595403D01*
X84752302Y-33792370D01*
X85009334Y-33899099D01*
X85287645Y-33899342D01*
X85544863Y-33793061D01*
X85741830Y-33596438D01*
X85848559Y-33339406D01*
X85848802Y-33061095D01*
X85742521Y-32803877D01*
X85545898Y-32606910D01*
X85288866Y-32500181D01*
X85010555Y-32499938D01*
X84753337Y-32606219D01*
X84556370Y-32802842D01*
X84449641Y-33059874D01*
X84449398Y-33338185D01*
X74838151Y-33338185D01*
X74849904Y-33309882D01*
X74850095Y-33091078D01*
X74766539Y-32888857D01*
X74611957Y-32734005D01*
X74409882Y-32650096D01*
X74191078Y-32649905D01*
X73988857Y-32733461D01*
X73834005Y-32888043D01*
X73750096Y-33090118D01*
X73749905Y-33308922D01*
X60399948Y-33308922D01*
X60400095Y-33141078D01*
X60316539Y-32938857D01*
X60302817Y-32925112D01*
X60315995Y-32911957D01*
X60399904Y-32709882D01*
X60400095Y-32491078D01*
X60316539Y-32288857D01*
X60300000Y-32272289D01*
X60300000Y-32108922D01*
X67199905Y-32108922D01*
X67283461Y-32311143D01*
X67438043Y-32465995D01*
X67640118Y-32549904D01*
X67858922Y-32550095D01*
X68061143Y-32466539D01*
X68215995Y-32311957D01*
X68299904Y-32109882D01*
X68300095Y-31891078D01*
X68216539Y-31688857D01*
X68061957Y-31534005D01*
X67859882Y-31450096D01*
X67641078Y-31449905D01*
X67438857Y-31533461D01*
X67284005Y-31688043D01*
X67200096Y-31890118D01*
X67199905Y-32108922D01*
X60300000Y-32108922D01*
X60300000Y-31750000D01*
X60296061Y-31730547D01*
X60285355Y-31714645D01*
X60079632Y-31508922D01*
X64999905Y-31508922D01*
X65083461Y-31711143D01*
X65238043Y-31865995D01*
X65440118Y-31949904D01*
X65658922Y-31950095D01*
X65861143Y-31866539D01*
X66015995Y-31711957D01*
X66099904Y-31509882D01*
X66100095Y-31291078D01*
X66016539Y-31088857D01*
X65861957Y-30934005D01*
X65659882Y-30850096D01*
X65441078Y-30849905D01*
X65238857Y-30933461D01*
X65084005Y-31088043D01*
X65000096Y-31290118D01*
X64999905Y-31508922D01*
X60079632Y-31508922D01*
X59785355Y-31214645D01*
X59768815Y-31203675D01*
X59750000Y-31200000D01*
X57699907Y-31200000D01*
X57591078Y-31199905D01*
X57590848Y-31200000D01*
X54250000Y-31200000D01*
X54230547Y-31203939D01*
X54214645Y-31214645D01*
X52714645Y-32714645D01*
X52703675Y-32731185D01*
X52700000Y-32750000D01*
X52700000Y-33000093D01*
X52699905Y-33108922D01*
X51550000Y-33108922D01*
X51550000Y-30108922D01*
X74349905Y-30108922D01*
X74433461Y-30311143D01*
X74588043Y-30465995D01*
X74790118Y-30549904D01*
X75008922Y-30550095D01*
X75211143Y-30466539D01*
X75365995Y-30311957D01*
X75449904Y-30109882D01*
X75450095Y-29891078D01*
X75366539Y-29688857D01*
X75211957Y-29534005D01*
X75009882Y-29450096D01*
X74791078Y-29449905D01*
X74588857Y-29533461D01*
X74434005Y-29688043D01*
X74350096Y-29890118D01*
X74349905Y-30108922D01*
X51550000Y-30108922D01*
X51550000Y-30020710D01*
X52020710Y-29550000D01*
X56500000Y-29550000D01*
X56519453Y-29546061D01*
X56531925Y-29537539D01*
X59705380Y-29537539D01*
X59810888Y-29792889D01*
X60006084Y-29988425D01*
X60261249Y-30094379D01*
X60537539Y-30094620D01*
X60792889Y-29989112D01*
X60988425Y-29793916D01*
X61094379Y-29538751D01*
X61094579Y-29308922D01*
X70149905Y-29308922D01*
X70233461Y-29511143D01*
X70388043Y-29665995D01*
X70590118Y-29749904D01*
X70808922Y-29750095D01*
X71011143Y-29666539D01*
X71165995Y-29511957D01*
X71249904Y-29309882D01*
X71250095Y-29091078D01*
X71174830Y-28908922D01*
X79749905Y-28908922D01*
X79833461Y-29111143D01*
X79988043Y-29265995D01*
X80190118Y-29349904D01*
X80408922Y-29350095D01*
X80611143Y-29266539D01*
X80765995Y-29111957D01*
X80837852Y-28938905D01*
X84449398Y-28938905D01*
X84555679Y-29196123D01*
X84752302Y-29393090D01*
X85009334Y-29499819D01*
X85287645Y-29500062D01*
X85544863Y-29393781D01*
X85741830Y-29197158D01*
X85848559Y-28940126D01*
X85848802Y-28661815D01*
X85742521Y-28404597D01*
X85545898Y-28207630D01*
X85288866Y-28100901D01*
X85010555Y-28100658D01*
X84753337Y-28206939D01*
X84556370Y-28403562D01*
X84449641Y-28660594D01*
X84449398Y-28938905D01*
X80837852Y-28938905D01*
X80849904Y-28909882D01*
X80850095Y-28691078D01*
X80766539Y-28488857D01*
X80611957Y-28334005D01*
X80409882Y-28250096D01*
X80191078Y-28249905D01*
X79988857Y-28333461D01*
X79834005Y-28488043D01*
X79750096Y-28690118D01*
X79749905Y-28908922D01*
X71174830Y-28908922D01*
X71166539Y-28888857D01*
X71011957Y-28734005D01*
X70809882Y-28650096D01*
X70591078Y-28649905D01*
X70388857Y-28733461D01*
X70234005Y-28888043D01*
X70150096Y-29090118D01*
X70149905Y-29308922D01*
X61094579Y-29308922D01*
X61094620Y-29262461D01*
X60989112Y-29007111D01*
X60793916Y-28811575D01*
X60538751Y-28705621D01*
X60262461Y-28705380D01*
X60007111Y-28810888D01*
X59811575Y-29006084D01*
X59705621Y-29261249D01*
X59705380Y-29537539D01*
X56531925Y-29537539D01*
X56535840Y-29534864D01*
X56546581Y-29518173D01*
X56550000Y-29500000D01*
X56550000Y-27987539D01*
X62705380Y-27987539D01*
X62810888Y-28242889D01*
X63006084Y-28438425D01*
X63261249Y-28544379D01*
X63537539Y-28544620D01*
X63792889Y-28439112D01*
X63988425Y-28243916D01*
X64094379Y-27988751D01*
X64094423Y-27937539D01*
X70205380Y-27937539D01*
X70310888Y-28192889D01*
X70506084Y-28388425D01*
X70761249Y-28494379D01*
X71037539Y-28494620D01*
X71292889Y-28389112D01*
X71488425Y-28193916D01*
X71594379Y-27938751D01*
X71594620Y-27662461D01*
X71489112Y-27407111D01*
X71293916Y-27211575D01*
X71038751Y-27105621D01*
X70762461Y-27105380D01*
X70507111Y-27210888D01*
X70311575Y-27406084D01*
X70205621Y-27661249D01*
X70205380Y-27937539D01*
X64094423Y-27937539D01*
X64094620Y-27712461D01*
X63989112Y-27457111D01*
X63826676Y-27294392D01*
X64087539Y-27294620D01*
X64342889Y-27189112D01*
X64538425Y-26993916D01*
X64644379Y-26738751D01*
X64644620Y-26462461D01*
X64539112Y-26207111D01*
X64343916Y-26011575D01*
X64088751Y-25905621D01*
X63812461Y-25905380D01*
X63557111Y-26010888D01*
X63361575Y-26206084D01*
X63255621Y-26461249D01*
X63255380Y-26737539D01*
X63360888Y-26992889D01*
X63523324Y-27155608D01*
X63262461Y-27155380D01*
X63007111Y-27260888D01*
X62811575Y-27456084D01*
X62705621Y-27711249D01*
X62705380Y-27987539D01*
X56550000Y-27987539D01*
X56550000Y-23287539D01*
X67305380Y-23287539D01*
X67410888Y-23542889D01*
X67606084Y-23738425D01*
X67861249Y-23844379D01*
X68137539Y-23844620D01*
X68392889Y-23739112D01*
X68588425Y-23543916D01*
X68694379Y-23288751D01*
X68694620Y-23012461D01*
X68589112Y-22757111D01*
X68393916Y-22561575D01*
X68138751Y-22455621D01*
X67862461Y-22455380D01*
X67607111Y-22560888D01*
X67411575Y-22756084D01*
X67305621Y-23011249D01*
X67305380Y-23287539D01*
X56550000Y-23287539D01*
X56550000Y-22037539D01*
X72105380Y-22037539D01*
X72210888Y-22292889D01*
X72406084Y-22488425D01*
X72661249Y-22594379D01*
X72937539Y-22594620D01*
X73192889Y-22489112D01*
X73388425Y-22293916D01*
X73494379Y-22038751D01*
X73494620Y-21762461D01*
X73389112Y-21507111D01*
X73193916Y-21311575D01*
X72938751Y-21205621D01*
X72662461Y-21205380D01*
X72407111Y-21310888D01*
X72211575Y-21506084D01*
X72105621Y-21761249D01*
X72105380Y-22037539D01*
X56550000Y-22037539D01*
X56550000Y-21945627D01*
X56594379Y-21838751D01*
X56594620Y-21562461D01*
X56550000Y-21454472D01*
X56550000Y-21050000D01*
X89950000Y-21050000D01*
X89950000Y-55950000D01*
M02*
