G04 #@! TF.FileFunction,Legend,Top*
%FSLAX46Y46*%
G04 Gerber Fmt 4.6, Leading zero omitted, Abs format (unit mm)*
G04 Created by KiCad (PCBNEW 4.0.2+e4-6225~38~ubuntu16.10.1-stable) date Mi 04 Jan 2017 00:52:02 CET*
%MOMM*%
G01*
G04 APERTURE LIST*
%ADD10C,0.150000*%
%ADD11C,0.200000*%
%ADD12C,0.120000*%
%ADD13C,0.088900*%
%ADD14R,9.400000X10.800000*%
%ADD15R,4.600000X1.390000*%
%ADD16R,0.910000X1.220000*%
%ADD17R,0.405000X1.300000*%
%ADD18R,2.235000X1.725000*%
%ADD19R,1.000000X1.600000*%
%ADD20R,0.450000X1.450000*%
%ADD21C,6.000000*%
%ADD22R,1.000000X1.250000*%
%ADD23C,2.000000*%
%ADD24R,1.250000X1.000000*%
%ADD25R,6.000000X8.750000*%
%ADD26R,6.000000X9.000000*%
%ADD27R,1.500000X0.400000*%
%ADD28R,1.800860X2.499360*%
%ADD29C,0.899160*%
%ADD30R,4.600000X0.800000*%
%ADD31R,0.650000X1.060000*%
%ADD32R,1.050000X1.050000*%
%ADD33C,1.050000*%
%ADD34R,1.400000X6.400000*%
%ADD35R,6.400000X1.400000*%
%ADD36R,1.700000X4.560000*%
%ADD37R,1.200000X0.750000*%
%ADD38R,1.300000X0.750000*%
%ADD39R,0.905000X5.700000*%
%ADD40R,0.425000X4.560000*%
%ADD41R,4.560000X1.700000*%
%ADD42R,0.750000X1.200000*%
%ADD43R,0.750000X1.300000*%
%ADD44R,5.700000X0.905000*%
%ADD45R,4.560000X0.425000*%
%ADD46R,1.000000X1.300000*%
%ADD47R,1.300000X1.000000*%
%ADD48R,1.600000X1.000000*%
%ADD49C,3.500000*%
%ADD50R,0.900000X0.900000*%
%ADD51C,1.300000*%
%ADD52C,4.000000*%
%ADD53R,0.711200X0.457200*%
%ADD54R,0.800000X0.400000*%
%ADD55R,3.048000X1.651000*%
%ADD56R,6.096000X6.096000*%
%ADD57R,2.499360X1.800860*%
%ADD58R,2.499360X2.301240*%
%ADD59C,1.500000*%
%ADD60R,0.900000X0.800000*%
%ADD61R,1.700000X1.700000*%
%ADD62R,0.600000X0.800000*%
%ADD63O,1.700000X1.700000*%
%ADD64R,0.800000X0.900000*%
%ADD65R,0.900000X0.600000*%
%ADD66R,1.060000X0.650000*%
%ADD67R,0.400000X0.800000*%
%ADD68C,0.889000*%
%ADD69C,0.600000*%
%ADD70C,0.100000*%
G04 APERTURE END LIST*
D10*
D11*
X52500000Y-4750000D02*
X45250000Y-4750000D01*
X45250000Y-2900000D02*
X45000000Y-2900000D01*
X45250000Y-4650000D02*
X45250000Y-2900000D01*
X33500000Y-14250000D02*
X35000000Y-14250000D01*
X33500000Y-4900000D02*
X33500000Y-14150000D01*
X35000000Y-4900000D02*
X33500000Y-4900000D01*
X52500000Y-14250000D02*
X52500000Y-4750000D01*
X35000000Y-14250000D02*
X52500000Y-14250000D01*
X41250000Y-4900000D02*
X35000000Y-4900000D01*
X41250000Y-2900000D02*
X41250000Y-4900000D01*
X41250000Y-2900000D02*
X45000000Y-2900000D01*
D10*
X76250000Y-81500000D02*
X76250000Y-80250000D01*
X76250000Y-81500000D02*
X77750000Y-81500000D01*
X76250000Y-71500000D02*
X77750000Y-71500000D01*
X76250000Y-71500000D02*
X76250000Y-72750000D01*
X41600000Y-77200000D02*
X44600000Y-77200000D01*
X41600000Y-75400000D02*
X44600000Y-75400000D01*
X65900000Y-53200000D02*
X65900000Y-54850000D01*
X65900000Y-54850000D02*
X62600000Y-54850000D01*
X62600000Y-54850000D02*
X62600000Y-51550000D01*
X62600000Y-51550000D02*
X65900000Y-51550000D01*
X65900000Y-51550000D02*
X65900000Y-53250000D01*
X44000000Y-80125000D02*
X46000000Y-80125000D01*
X46000000Y-78075000D02*
X44000000Y-78075000D01*
X39625000Y-33075000D02*
X39850000Y-33075000D01*
X39625000Y-28425000D02*
X39850000Y-28425000D01*
X44875000Y-28425000D02*
X44650000Y-28425000D01*
X44875000Y-33075000D02*
X44650000Y-33075000D01*
X39625000Y-33075000D02*
X39625000Y-28425000D01*
X44875000Y-33075000D02*
X44875000Y-28425000D01*
X39850000Y-33075000D02*
X39850000Y-34425000D01*
X42750000Y-25600000D02*
X43750000Y-25600000D01*
X43750000Y-23900000D02*
X42750000Y-23900000D01*
X47000000Y-34650000D02*
X46000000Y-34650000D01*
X46000000Y-36350000D02*
X47000000Y-36350000D01*
X41500000Y-37850000D02*
X42500000Y-37850000D01*
X42500000Y-36150000D02*
X41500000Y-36150000D01*
X45600000Y-22500000D02*
X45600000Y-21500000D01*
X43900000Y-21500000D02*
X43900000Y-22500000D01*
X40900000Y-21500000D02*
X40900000Y-22500000D01*
X42600000Y-22500000D02*
X42600000Y-21500000D01*
X82250000Y-39700000D02*
X82250000Y-38700000D01*
X80550000Y-38700000D02*
X80550000Y-39700000D01*
X48850000Y-33100000D02*
X48850000Y-32100000D01*
X47150000Y-32100000D02*
X47150000Y-33100000D01*
X52300000Y-31250000D02*
X53300000Y-31250000D01*
X53300000Y-29550000D02*
X52300000Y-29550000D01*
X38100000Y-21250000D02*
X38100000Y-20250000D01*
X36400000Y-20250000D02*
X36400000Y-21250000D01*
X35750000Y-30400000D02*
X34750000Y-30400000D01*
X34750000Y-32100000D02*
X35750000Y-32100000D01*
X35750000Y-34150000D02*
X34750000Y-34150000D01*
X34750000Y-35850000D02*
X35750000Y-35850000D01*
X57500000Y-26850000D02*
X58500000Y-26850000D01*
X58500000Y-25150000D02*
X57500000Y-25150000D01*
X35550000Y-37700000D02*
X35550000Y-38700000D01*
X37250000Y-38700000D02*
X37250000Y-37700000D01*
X41150000Y-39500000D02*
X41150000Y-40500000D01*
X42850000Y-40500000D02*
X42850000Y-39500000D01*
X50500000Y-35450000D02*
X51500000Y-35450000D01*
X51500000Y-33750000D02*
X50500000Y-33750000D01*
X53000000Y-23350000D02*
X54000000Y-23350000D01*
X54000000Y-21650000D02*
X53000000Y-21650000D01*
X84650000Y-48250000D02*
X84650000Y-49250000D01*
X86350000Y-49250000D02*
X86350000Y-48250000D01*
X89500060Y-54799140D02*
X89149540Y-54799140D01*
X85999940Y-54799140D02*
X86350460Y-54799140D01*
X89500060Y-50749560D02*
X89149540Y-50749560D01*
X89500060Y-55250440D02*
X89149540Y-55250440D01*
X85999940Y-55250440D02*
X86350460Y-55250440D01*
X85999940Y-50749560D02*
X86350460Y-50749560D01*
X89500060Y-55250440D02*
X89500060Y-50749560D01*
X85999940Y-55250440D02*
X85999940Y-50749560D01*
X85999940Y-42700860D02*
X86350460Y-42700860D01*
X89500060Y-42700860D02*
X89149540Y-42700860D01*
X85999940Y-46750440D02*
X86350460Y-46750440D01*
X85999940Y-42249560D02*
X86350460Y-42249560D01*
X89500060Y-42249560D02*
X89149540Y-42249560D01*
X89500060Y-46750440D02*
X89149540Y-46750440D01*
X85999940Y-42249560D02*
X85999940Y-46750440D01*
X89500060Y-42249560D02*
X89500060Y-46750440D01*
X59000000Y-67600000D02*
X59000000Y-66350000D01*
X59000000Y-67600000D02*
X60500000Y-67600000D01*
X59000000Y-57600000D02*
X60500000Y-57600000D01*
X59000000Y-57600000D02*
X59000000Y-58850000D01*
X32300000Y-57500000D02*
X32300000Y-58750000D01*
X32300000Y-57500000D02*
X30800000Y-57500000D01*
X32300000Y-67500000D02*
X30800000Y-67500000D01*
X32300000Y-67500000D02*
X32300000Y-66250000D01*
X71700000Y-31200000D02*
G75*
G03X71700000Y-31200000I-100000J0D01*
G01*
X71850000Y-30650000D02*
X71850000Y-31150000D01*
X74750000Y-30650000D02*
X71850000Y-30650000D01*
X74750000Y-31150000D02*
X74750000Y-30650000D01*
X71850000Y-31150000D02*
X74750000Y-31150000D01*
X19000000Y-22400000D02*
X18000000Y-22400000D01*
X18000000Y-24100000D02*
X19000000Y-24100000D01*
X74800000Y-45950000D02*
X75800000Y-45950000D01*
X75800000Y-44250000D02*
X74800000Y-44250000D01*
X23032000Y-85560000D02*
X18968000Y-85560000D01*
X23032000Y-92490000D02*
X18968000Y-92490000D01*
X32360000Y-73668000D02*
X32360000Y-77732000D01*
X39290000Y-73668000D02*
X39290000Y-77732000D01*
X68060000Y-80718000D02*
X68060000Y-84782000D01*
X74990000Y-80718000D02*
X74990000Y-84782000D01*
X29500000Y-92750000D02*
X26500000Y-92750000D01*
X26500000Y-92750000D02*
X26500000Y-87750000D01*
X26500000Y-87750000D02*
X32500000Y-87750000D01*
X32500000Y-87750000D02*
X32500000Y-92750000D01*
X32500000Y-92750000D02*
X29500000Y-92750000D01*
X38500000Y-83500000D02*
X38500000Y-86500000D01*
X38500000Y-86500000D02*
X33500000Y-86500000D01*
X33500000Y-86500000D02*
X33500000Y-80500000D01*
X33500000Y-80500000D02*
X38500000Y-80500000D01*
X38500000Y-80500000D02*
X38500000Y-83500000D01*
X64250000Y-88000000D02*
X67250000Y-88000000D01*
X67250000Y-88000000D02*
X67250000Y-93000000D01*
X67250000Y-93000000D02*
X61250000Y-93000000D01*
X61250000Y-93000000D02*
X61250000Y-88000000D01*
X61250000Y-88000000D02*
X64250000Y-88000000D01*
X59500000Y-83750000D02*
X59500000Y-86750000D01*
X59500000Y-86750000D02*
X54500000Y-86750000D01*
X54500000Y-86750000D02*
X54500000Y-80750000D01*
X54500000Y-80750000D02*
X59500000Y-80750000D01*
X59500000Y-80750000D02*
X59500000Y-83750000D01*
X79350000Y-36125000D02*
X78150000Y-36125000D01*
X78150000Y-34375000D02*
X79350000Y-34375000D01*
X39375000Y-36500000D02*
X39375000Y-37700000D01*
X37625000Y-37700000D02*
X37625000Y-36500000D01*
X47675000Y-47600000D02*
X47675000Y-48800000D01*
X45925000Y-48800000D02*
X45925000Y-47600000D01*
X45700000Y-54225000D02*
X46900000Y-54225000D01*
X46900000Y-55975000D02*
X45700000Y-55975000D01*
X43925000Y-18700000D02*
X43925000Y-17500000D01*
X45675000Y-17500000D02*
X45675000Y-18700000D01*
X42575000Y-17500000D02*
X42575000Y-18700000D01*
X40825000Y-18700000D02*
X40825000Y-17500000D01*
X65950000Y-34825000D02*
X64750000Y-34825000D01*
X64750000Y-33075000D02*
X65950000Y-33075000D01*
X50800000Y-25525000D02*
X52000000Y-25525000D01*
X52000000Y-27275000D02*
X50800000Y-27275000D01*
X52000000Y-29275000D02*
X50800000Y-29275000D01*
X50800000Y-27525000D02*
X52000000Y-27525000D01*
X9000000Y-87725000D02*
X11000000Y-87725000D01*
X11000000Y-85675000D02*
X9000000Y-85675000D01*
X17975000Y-77000000D02*
X17975000Y-79000000D01*
X20025000Y-79000000D02*
X20025000Y-77000000D01*
X72525000Y-95750000D02*
X72525000Y-93750000D01*
X70475000Y-93750000D02*
X70475000Y-95750000D01*
X78500000Y-90975000D02*
X76500000Y-90975000D01*
X76500000Y-93025000D02*
X78500000Y-93025000D01*
X78500000Y-86375000D02*
X76500000Y-86375000D01*
X76500000Y-88425000D02*
X78500000Y-88425000D01*
X78500000Y-88675000D02*
X76500000Y-88675000D01*
X76500000Y-90725000D02*
X78500000Y-90725000D01*
X54500000Y-73175000D02*
X53500000Y-73175000D01*
X53500000Y-71825000D02*
X54500000Y-71825000D01*
X64175000Y-78500000D02*
X64175000Y-79500000D01*
X62825000Y-79500000D02*
X62825000Y-78500000D01*
X66175000Y-78500000D02*
X66175000Y-79500000D01*
X64825000Y-79500000D02*
X64825000Y-78500000D01*
X76850000Y-39300000D02*
X77950000Y-39300000D01*
X77950000Y-39300000D02*
X77950000Y-37100000D01*
X77950000Y-37100000D02*
X76850000Y-37100000D01*
X76850000Y-37100000D02*
X76850000Y-39250000D01*
X76850000Y-39250000D02*
X76850000Y-39300000D01*
X81800000Y-23100000D02*
X81800000Y-22900000D01*
X83000000Y-23300000D02*
X83000000Y-23600000D01*
X83000000Y-23600000D02*
X81800000Y-23600000D01*
X81800000Y-22400000D02*
X83000000Y-22400000D01*
X83000000Y-22400000D02*
X83000000Y-22700000D01*
X9476000Y-75603000D02*
X12651000Y-75603000D01*
X12651000Y-75603000D02*
X12651000Y-73825000D01*
X12651000Y-73825000D02*
X9476000Y-73825000D01*
X9476000Y-80175000D02*
X12651000Y-80175000D01*
X12651000Y-80175000D02*
X12651000Y-78397000D01*
X12651000Y-78397000D02*
X9476000Y-78397000D01*
X3380000Y-73571000D02*
X9476000Y-73571000D01*
X9476000Y-73571000D02*
X9476000Y-80429000D01*
X9476000Y-80429000D02*
X1602000Y-80429000D01*
X1475000Y-80429000D02*
X1475000Y-73571000D01*
X1602000Y-73571000D02*
X3380000Y-73571000D01*
X58356184Y-47906138D02*
X58706704Y-47906138D01*
X61856304Y-47906138D02*
X61505784Y-47906138D01*
X58356184Y-51955718D02*
X58706704Y-51955718D01*
X58356184Y-47454838D02*
X58706704Y-47454838D01*
X61856304Y-47454838D02*
X61505784Y-47454838D01*
X61856304Y-51955718D02*
X61505784Y-51955718D01*
X58356184Y-47454838D02*
X58356184Y-51955718D01*
X61856304Y-47454838D02*
X61856304Y-51955718D01*
X59600000Y-55375000D02*
X58400000Y-55375000D01*
X58400000Y-53625000D02*
X59600000Y-53625000D01*
X22599140Y-31099940D02*
X22599140Y-31450460D01*
X22599140Y-34600060D02*
X22599140Y-34249540D01*
X18549560Y-31099940D02*
X18549560Y-31450460D01*
X23050440Y-31099940D02*
X23050440Y-31450460D01*
X23050440Y-34600060D02*
X23050440Y-34249540D01*
X18549560Y-34600060D02*
X18549560Y-34249540D01*
X23050440Y-31099940D02*
X18549560Y-31099940D01*
X23050440Y-34600060D02*
X18549560Y-34600060D01*
X16875000Y-28100000D02*
X16875000Y-26900000D01*
X18625000Y-26900000D02*
X18625000Y-28100000D01*
X26250000Y-31700000D02*
X26250000Y-32700000D01*
X27950000Y-32700000D02*
X27950000Y-31700000D01*
X10000000Y-89850000D02*
X11000000Y-89850000D01*
X11000000Y-88150000D02*
X10000000Y-88150000D01*
X41250000Y-75100000D02*
X41250000Y-74100000D01*
X39550000Y-74100000D02*
X39550000Y-75100000D01*
X22093680Y-29900000D02*
X22093680Y-29700200D01*
X22550720Y-29850000D02*
X22550720Y-29701000D01*
X26696160Y-29900000D02*
X26696160Y-29751000D01*
X22098760Y-26300000D02*
X22098760Y-26449000D01*
X22550720Y-26300000D02*
X22550720Y-26449000D01*
X26701240Y-26300000D02*
X26701240Y-26449000D01*
X22550720Y-30048980D02*
X22550720Y-29850860D01*
X22550720Y-26101020D02*
X22550720Y-26299140D01*
X26696160Y-30096440D02*
X26696160Y-29898320D01*
X22093680Y-30096440D02*
X26696160Y-30096440D01*
X22093680Y-30096440D02*
X22093680Y-29898320D01*
X22098760Y-26101020D02*
X22098760Y-26299140D01*
X22098760Y-26101020D02*
X26701240Y-26101020D01*
X26701240Y-26101020D02*
X26701240Y-26299140D01*
X22243680Y-25550000D02*
X22243680Y-25350200D01*
X22700720Y-25500000D02*
X22700720Y-25351000D01*
X26846160Y-25550000D02*
X26846160Y-25401000D01*
X22248760Y-21950000D02*
X22248760Y-22099000D01*
X22700720Y-21950000D02*
X22700720Y-22099000D01*
X26851240Y-21950000D02*
X26851240Y-22099000D01*
X22700720Y-25698980D02*
X22700720Y-25500860D01*
X22700720Y-21751020D02*
X22700720Y-21949140D01*
X26846160Y-25746440D02*
X26846160Y-25548320D01*
X22243680Y-25746440D02*
X26846160Y-25746440D01*
X22243680Y-25746440D02*
X22243680Y-25548320D01*
X22248760Y-21751020D02*
X22248760Y-21949140D01*
X22248760Y-21751020D02*
X26851240Y-21751020D01*
X26851240Y-21751020D02*
X26851240Y-21949140D01*
X14000000Y-71150000D02*
X13000000Y-71150000D01*
X13000000Y-72850000D02*
X14000000Y-72850000D01*
X14350000Y-90500000D02*
X14350000Y-89500000D01*
X12650000Y-89500000D02*
X12650000Y-90500000D01*
X74750000Y-94700000D02*
X74750000Y-93700000D01*
X73050000Y-93700000D02*
X73050000Y-94700000D01*
X69950000Y-94700000D02*
X69950000Y-93700000D01*
X68250000Y-93700000D02*
X68250000Y-94700000D01*
X47000000Y-36975000D02*
X45000000Y-36975000D01*
X45000000Y-39025000D02*
X47000000Y-39025000D01*
X41050000Y-78700000D02*
X41050000Y-79700000D01*
X42750000Y-79700000D02*
X42750000Y-78700000D01*
X16500060Y-54549140D02*
X16149540Y-54549140D01*
X12999940Y-54549140D02*
X13350460Y-54549140D01*
X16500060Y-50499560D02*
X16149540Y-50499560D01*
X16500060Y-55000440D02*
X16149540Y-55000440D01*
X12999940Y-55000440D02*
X13350460Y-55000440D01*
X12999940Y-50499560D02*
X13350460Y-50499560D01*
X16500060Y-55000440D02*
X16500060Y-50499560D01*
X12999940Y-55000440D02*
X12999940Y-50499560D01*
X12999940Y-43450860D02*
X13350460Y-43450860D01*
X16500060Y-43450860D02*
X16149540Y-43450860D01*
X12999940Y-47500440D02*
X13350460Y-47500440D01*
X12999940Y-42999560D02*
X13350460Y-42999560D01*
X16500060Y-42999560D02*
X16149540Y-42999560D01*
X16500060Y-47500440D02*
X16149540Y-47500440D01*
X12999940Y-42999560D02*
X12999940Y-47500440D01*
X16500060Y-42999560D02*
X16500060Y-47500440D01*
X51100000Y-75400000D02*
X48100000Y-75400000D01*
X51100000Y-77200000D02*
X48100000Y-77200000D01*
X63300000Y-47300000D02*
X63300000Y-45650000D01*
X63300000Y-45650000D02*
X66600000Y-45650000D01*
X66600000Y-45650000D02*
X66600000Y-48950000D01*
X66600000Y-48950000D02*
X63300000Y-48950000D01*
X63300000Y-48950000D02*
X63300000Y-47250000D01*
X55375000Y-47925000D02*
X55250000Y-47925000D01*
X55375000Y-52575000D02*
X55150000Y-52575000D01*
X50125000Y-52575000D02*
X50350000Y-52575000D01*
X50125000Y-47925000D02*
X50350000Y-47925000D01*
X55375000Y-47925000D02*
X55375000Y-52575000D01*
X50125000Y-47925000D02*
X50125000Y-52575000D01*
X55250000Y-47925000D02*
X55250000Y-46575000D01*
X54125000Y-43800000D02*
X54125000Y-42600000D01*
X55875000Y-42600000D02*
X55875000Y-43800000D01*
X52125000Y-43800000D02*
X52125000Y-42600000D01*
X53875000Y-42600000D02*
X53875000Y-43800000D01*
D12*
X61840000Y-38820000D02*
X61840000Y-39750000D01*
X61840000Y-41980000D02*
X61840000Y-41050000D01*
X61840000Y-41980000D02*
X64000000Y-41980000D01*
X61840000Y-38820000D02*
X63300000Y-38820000D01*
D10*
X54950000Y-76600000D02*
X54950000Y-77600000D01*
X56650000Y-77600000D02*
X56650000Y-76600000D01*
X52950000Y-76600000D02*
X52950000Y-77600000D01*
X54650000Y-77600000D02*
X54650000Y-76600000D01*
X53500000Y-73325000D02*
X54500000Y-73325000D01*
X54500000Y-74675000D02*
X53500000Y-74675000D01*
X4525000Y-86000000D02*
X4525000Y-84000000D01*
X2475000Y-84000000D02*
X2475000Y-86000000D01*
X45275000Y-49700000D02*
X45275000Y-50900000D01*
X43525000Y-50900000D02*
X43525000Y-49700000D01*
X80375000Y-26650000D02*
X80375000Y-25450000D01*
X82125000Y-25450000D02*
X82125000Y-26650000D01*
D12*
X49160000Y-27665000D02*
X48550000Y-27665000D01*
X46840000Y-27665000D02*
X47450000Y-27665000D01*
X46840000Y-27665000D02*
X46840000Y-29500000D01*
X49160000Y-29100000D02*
X49160000Y-27665000D01*
X20770000Y-72390000D02*
X23430000Y-72390000D01*
X23430000Y-72390000D02*
X23430000Y-69610000D01*
X23430000Y-69610000D02*
X20770000Y-69610000D01*
X20770000Y-69610000D02*
X20770000Y-72390000D01*
X19500000Y-72390000D02*
X18110000Y-72390000D01*
X18110000Y-72390000D02*
X18110000Y-71000000D01*
X35610000Y-27470000D02*
X35610000Y-30130000D01*
X35610000Y-30130000D02*
X38390000Y-30130000D01*
X38390000Y-30130000D02*
X38390000Y-27470000D01*
X38390000Y-27470000D02*
X35610000Y-27470000D01*
X35610000Y-26200000D02*
X35610000Y-24810000D01*
X35610000Y-24810000D02*
X37000000Y-24810000D01*
X68180000Y-27740000D02*
X67250000Y-27740000D01*
X65020000Y-27740000D02*
X65950000Y-27740000D01*
X65020000Y-27740000D02*
X65020000Y-29900000D01*
X68180000Y-27740000D02*
X68180000Y-29200000D01*
D10*
X51750000Y-105475000D02*
X49750000Y-105475000D01*
X49750000Y-107525000D02*
X51750000Y-107525000D01*
X51750000Y-108225000D02*
X49750000Y-108225000D01*
X49750000Y-110275000D02*
X51750000Y-110275000D01*
X74850000Y-34900000D02*
X74850000Y-35900000D01*
X76550000Y-35900000D02*
X76550000Y-34900000D01*
X41000000Y-107150000D02*
X40000000Y-107150000D01*
X40000000Y-108850000D02*
X41000000Y-108850000D01*
X45750000Y-110050001D02*
X46000000Y-110050001D01*
X45250000Y-110050001D02*
X45000000Y-110050001D01*
X45250000Y-110050001D02*
X45750000Y-109700001D01*
X45750000Y-109700001D02*
X45750000Y-110400001D01*
X45750000Y-110400001D02*
X45250000Y-110050001D01*
X45250000Y-109700001D02*
X45250000Y-110400001D01*
X44200000Y-110850001D02*
X46600000Y-110850001D01*
X44200000Y-109250001D02*
X46600000Y-109250001D01*
X72750000Y-24500000D02*
X72750000Y-25500000D01*
X74450000Y-25500000D02*
X74450000Y-24500000D01*
D12*
X77900000Y-23190000D02*
X76100000Y-23190000D01*
X76100000Y-26410000D02*
X78550000Y-26410000D01*
D10*
X42900000Y-53500000D02*
X43100000Y-53500000D01*
X42700000Y-54700000D02*
X42400000Y-54700000D01*
X42400000Y-54700000D02*
X42400000Y-53500000D01*
X43600000Y-53500000D02*
X43600000Y-54700000D01*
X43600000Y-54700000D02*
X43300000Y-54700000D01*
X48500000Y-51700000D02*
X48500000Y-51900000D01*
X47300000Y-51500000D02*
X47300000Y-51200000D01*
X47300000Y-51200000D02*
X48500000Y-51200000D01*
X48500000Y-52400000D02*
X47300000Y-52400000D01*
X47300000Y-52400000D02*
X47300000Y-52100000D01*
X79650000Y-54900000D02*
X79850000Y-54900000D01*
X79450000Y-56100000D02*
X79150000Y-56100000D01*
X79150000Y-56100000D02*
X79150000Y-54900000D01*
X80350000Y-54900000D02*
X80350000Y-56100000D01*
X80350000Y-56100000D02*
X80050000Y-56100000D01*
X52900000Y-23625000D02*
X54100000Y-23625000D01*
X54100000Y-25375000D02*
X52900000Y-25375000D01*
X77797619Y-76595238D02*
X77750000Y-76690476D01*
X77654762Y-76785714D01*
X77511905Y-76928571D01*
X77464286Y-77023810D01*
X77464286Y-77119048D01*
X77702381Y-77071429D02*
X77654762Y-77166667D01*
X77559524Y-77261905D01*
X77369048Y-77309524D01*
X77035714Y-77309524D01*
X76845238Y-77261905D01*
X76750000Y-77166667D01*
X76702381Y-77071429D01*
X76702381Y-76880952D01*
X76750000Y-76785714D01*
X76845238Y-76690476D01*
X77035714Y-76642857D01*
X77369048Y-76642857D01*
X77559524Y-76690476D01*
X77654762Y-76785714D01*
X77702381Y-76880952D01*
X77702381Y-77071429D01*
X76797619Y-76261905D02*
X76750000Y-76214286D01*
X76702381Y-76119048D01*
X76702381Y-75880952D01*
X76750000Y-75785714D01*
X76797619Y-75738095D01*
X76892857Y-75690476D01*
X76988095Y-75690476D01*
X77130952Y-75738095D01*
X77702381Y-76309524D01*
X77702381Y-75690476D01*
X42385714Y-74752381D02*
X42385714Y-73752381D01*
X42623809Y-73752381D01*
X42766667Y-73800000D01*
X42861905Y-73895238D01*
X42909524Y-73990476D01*
X42957143Y-74180952D01*
X42957143Y-74323810D01*
X42909524Y-74514286D01*
X42861905Y-74609524D01*
X42766667Y-74704762D01*
X42623809Y-74752381D01*
X42385714Y-74752381D01*
X43909524Y-74752381D02*
X43338095Y-74752381D01*
X43623809Y-74752381D02*
X43623809Y-73752381D01*
X43528571Y-73895238D01*
X43433333Y-73990476D01*
X43338095Y-74038095D01*
X44861905Y-74752381D02*
X44290476Y-74752381D01*
X44576190Y-74752381D02*
X44576190Y-73752381D01*
X44480952Y-73895238D01*
X44385714Y-73990476D01*
X44290476Y-74038095D01*
X68154762Y-57128571D02*
X68202381Y-56985714D01*
X68202381Y-56747618D01*
X68154762Y-56652380D01*
X68107143Y-56604761D01*
X68011905Y-56557142D01*
X67916667Y-56557142D01*
X67821429Y-56604761D01*
X67773810Y-56652380D01*
X67726190Y-56747618D01*
X67678571Y-56938095D01*
X67630952Y-57033333D01*
X67583333Y-57080952D01*
X67488095Y-57128571D01*
X67392857Y-57128571D01*
X67297619Y-57080952D01*
X67250000Y-57033333D01*
X67202381Y-56938095D01*
X67202381Y-56699999D01*
X67250000Y-56557142D01*
X68202381Y-56128571D02*
X67535714Y-56128571D01*
X67202381Y-56128571D02*
X67250000Y-56176190D01*
X67297619Y-56128571D01*
X67250000Y-56080952D01*
X67202381Y-56128571D01*
X67297619Y-56128571D01*
X68154762Y-55700000D02*
X68202381Y-55557143D01*
X68202381Y-55319047D01*
X68154762Y-55223809D01*
X68107143Y-55176190D01*
X68011905Y-55128571D01*
X67916667Y-55128571D01*
X67821429Y-55176190D01*
X67773810Y-55223809D01*
X67726190Y-55319047D01*
X67678571Y-55509524D01*
X67630952Y-55604762D01*
X67583333Y-55652381D01*
X67488095Y-55700000D01*
X67392857Y-55700000D01*
X67297619Y-55652381D01*
X67250000Y-55604762D01*
X67202381Y-55509524D01*
X67202381Y-55271428D01*
X67250000Y-55128571D01*
X68154762Y-54747619D02*
X68202381Y-54604762D01*
X68202381Y-54366666D01*
X68154762Y-54271428D01*
X68107143Y-54223809D01*
X68011905Y-54176190D01*
X67916667Y-54176190D01*
X67821429Y-54223809D01*
X67773810Y-54271428D01*
X67726190Y-54366666D01*
X67678571Y-54557143D01*
X67630952Y-54652381D01*
X67583333Y-54700000D01*
X67488095Y-54747619D01*
X67392857Y-54747619D01*
X67297619Y-54700000D01*
X67250000Y-54652381D01*
X67202381Y-54557143D01*
X67202381Y-54319047D01*
X67250000Y-54176190D01*
X67202381Y-53842857D02*
X67202381Y-53176190D01*
X68202381Y-53604762D01*
X68202381Y-52271428D02*
X68202381Y-52842857D01*
X68202381Y-52557143D02*
X67202381Y-52557143D01*
X67345238Y-52652381D01*
X67440476Y-52747619D01*
X67488095Y-52842857D01*
X68202381Y-51842857D02*
X67202381Y-51842857D01*
X67202381Y-51604762D01*
X67250000Y-51461904D01*
X67345238Y-51366666D01*
X67440476Y-51319047D01*
X67630952Y-51271428D01*
X67773810Y-51271428D01*
X67964286Y-51319047D01*
X68059524Y-51366666D01*
X68154762Y-51461904D01*
X68202381Y-51604762D01*
X68202381Y-51842857D01*
X68202381Y-50842857D02*
X67202381Y-50842857D01*
X68202381Y-50271428D01*
X67202381Y-50271428D01*
X68202381Y-49271428D02*
X68202381Y-49842857D01*
X68202381Y-49557143D02*
X67202381Y-49557143D01*
X67345238Y-49652381D01*
X67440476Y-49747619D01*
X67488095Y-49842857D01*
X44357143Y-81757143D02*
X44309524Y-81804762D01*
X44166667Y-81852381D01*
X44071429Y-81852381D01*
X43928571Y-81804762D01*
X43833333Y-81709524D01*
X43785714Y-81614286D01*
X43738095Y-81423810D01*
X43738095Y-81280952D01*
X43785714Y-81090476D01*
X43833333Y-80995238D01*
X43928571Y-80900000D01*
X44071429Y-80852381D01*
X44166667Y-80852381D01*
X44309524Y-80900000D01*
X44357143Y-80947619D01*
X45261905Y-80852381D02*
X44785714Y-80852381D01*
X44738095Y-81328571D01*
X44785714Y-81280952D01*
X44880952Y-81233333D01*
X45119048Y-81233333D01*
X45214286Y-81280952D01*
X45261905Y-81328571D01*
X45309524Y-81423810D01*
X45309524Y-81661905D01*
X45261905Y-81757143D01*
X45214286Y-81804762D01*
X45119048Y-81852381D01*
X44880952Y-81852381D01*
X44785714Y-81804762D01*
X44738095Y-81757143D01*
X45642857Y-80852381D02*
X46309524Y-80852381D01*
X45880952Y-81852381D01*
X38152381Y-31511905D02*
X38961905Y-31511905D01*
X39057143Y-31464286D01*
X39104762Y-31416667D01*
X39152381Y-31321429D01*
X39152381Y-31130952D01*
X39104762Y-31035714D01*
X39057143Y-30988095D01*
X38961905Y-30940476D01*
X38152381Y-30940476D01*
X39152381Y-30416667D02*
X39152381Y-30226191D01*
X39104762Y-30130952D01*
X39057143Y-30083333D01*
X38914286Y-29988095D01*
X38723810Y-29940476D01*
X38342857Y-29940476D01*
X38247619Y-29988095D01*
X38200000Y-30035714D01*
X38152381Y-30130952D01*
X38152381Y-30321429D01*
X38200000Y-30416667D01*
X38247619Y-30464286D01*
X38342857Y-30511905D01*
X38580952Y-30511905D01*
X38676190Y-30464286D01*
X38723810Y-30416667D01*
X38771429Y-30321429D01*
X38771429Y-30130952D01*
X38723810Y-30035714D01*
X38676190Y-29988095D01*
X38580952Y-29940476D01*
D13*
X52994524Y-36852619D02*
X54022619Y-36852619D01*
X54143571Y-36792143D01*
X54204048Y-36731667D01*
X54264524Y-36610714D01*
X54264524Y-36368810D01*
X54204048Y-36247857D01*
X54143571Y-36187381D01*
X54022619Y-36126905D01*
X52994524Y-36126905D01*
X53538810Y-35340714D02*
X53478333Y-35461667D01*
X53417857Y-35522143D01*
X53296905Y-35582619D01*
X53236429Y-35582619D01*
X53115476Y-35522143D01*
X53055000Y-35461667D01*
X52994524Y-35340714D01*
X52994524Y-35098810D01*
X53055000Y-34977857D01*
X53115476Y-34917381D01*
X53236429Y-34856905D01*
X53296905Y-34856905D01*
X53417857Y-34917381D01*
X53478333Y-34977857D01*
X53538810Y-35098810D01*
X53538810Y-35340714D01*
X53599286Y-35461667D01*
X53659762Y-35522143D01*
X53780714Y-35582619D01*
X54022619Y-35582619D01*
X54143571Y-35522143D01*
X54204048Y-35461667D01*
X54264524Y-35340714D01*
X54264524Y-35098810D01*
X54204048Y-34977857D01*
X54143571Y-34917381D01*
X54022619Y-34856905D01*
X53780714Y-34856905D01*
X53659762Y-34917381D01*
X53599286Y-34977857D01*
X53538810Y-35098810D01*
X60523810Y-37910952D02*
X60463333Y-38031905D01*
X60402857Y-38092381D01*
X60281905Y-38152857D01*
X60221429Y-38152857D01*
X60100476Y-38092381D01*
X60040000Y-38031905D01*
X59979524Y-37910952D01*
X59979524Y-37669048D01*
X60040000Y-37548095D01*
X60100476Y-37487619D01*
X60221429Y-37427143D01*
X60281905Y-37427143D01*
X60402857Y-37487619D01*
X60463333Y-37548095D01*
X60523810Y-37669048D01*
X60523810Y-37910952D01*
X60584286Y-38031905D01*
X60644762Y-38092381D01*
X60765714Y-38152857D01*
X61007619Y-38152857D01*
X61128571Y-38092381D01*
X61189048Y-38031905D01*
X61249524Y-37910952D01*
X61249524Y-37669048D01*
X61189048Y-37548095D01*
X61128571Y-37487619D01*
X61007619Y-37427143D01*
X60765714Y-37427143D01*
X60644762Y-37487619D01*
X60584286Y-37548095D01*
X60523810Y-37669048D01*
X61249524Y-36882857D02*
X59979524Y-36882857D01*
X60886667Y-36459524D01*
X59979524Y-36036190D01*
X61249524Y-36036190D01*
X61249524Y-35431428D02*
X59979524Y-35431428D01*
X60584286Y-35431428D02*
X60584286Y-34705714D01*
X61249524Y-34705714D02*
X59979524Y-34705714D01*
X60402857Y-34221904D02*
X60402857Y-33556666D01*
X61249524Y-34221904D01*
X61249524Y-33556666D01*
D10*
X83785714Y-94452381D02*
X83785714Y-93452381D01*
X84166667Y-93452381D01*
X84261905Y-93500000D01*
X84309524Y-93547619D01*
X84357143Y-93642857D01*
X84357143Y-93785714D01*
X84309524Y-93880952D01*
X84261905Y-93928571D01*
X84166667Y-93976190D01*
X83785714Y-93976190D01*
X85309524Y-94452381D02*
X84738095Y-94452381D01*
X85023809Y-94452381D02*
X85023809Y-93452381D01*
X84928571Y-93595238D01*
X84833333Y-93690476D01*
X84738095Y-93738095D01*
X85928571Y-93452381D02*
X86023810Y-93452381D01*
X86119048Y-93500000D01*
X86166667Y-93547619D01*
X86214286Y-93642857D01*
X86261905Y-93833333D01*
X86261905Y-94071429D01*
X86214286Y-94261905D01*
X86166667Y-94357143D01*
X86119048Y-94404762D01*
X86023810Y-94452381D01*
X85928571Y-94452381D01*
X85833333Y-94404762D01*
X85785714Y-94357143D01*
X85738095Y-94261905D01*
X85690476Y-94071429D01*
X85690476Y-93833333D01*
X85738095Y-93642857D01*
X85785714Y-93547619D01*
X85833333Y-93500000D01*
X85928571Y-93452381D01*
X83785714Y-94452381D02*
X83785714Y-93452381D01*
X84166667Y-93452381D01*
X84261905Y-93500000D01*
X84309524Y-93547619D01*
X84357143Y-93642857D01*
X84357143Y-93785714D01*
X84309524Y-93880952D01*
X84261905Y-93928571D01*
X84166667Y-93976190D01*
X83785714Y-93976190D01*
X85309524Y-94452381D02*
X84738095Y-94452381D01*
X85023809Y-94452381D02*
X85023809Y-93452381D01*
X84928571Y-93595238D01*
X84833333Y-93690476D01*
X84738095Y-93738095D01*
X85928571Y-93452381D02*
X86023810Y-93452381D01*
X86119048Y-93500000D01*
X86166667Y-93547619D01*
X86214286Y-93642857D01*
X86261905Y-93833333D01*
X86261905Y-94071429D01*
X86214286Y-94261905D01*
X86166667Y-94357143D01*
X86119048Y-94404762D01*
X86023810Y-94452381D01*
X85928571Y-94452381D01*
X85833333Y-94404762D01*
X85785714Y-94357143D01*
X85738095Y-94261905D01*
X85690476Y-94071429D01*
X85690476Y-93833333D01*
X85738095Y-93642857D01*
X85785714Y-93547619D01*
X85833333Y-93500000D01*
X85928571Y-93452381D01*
X47798143Y-25396857D02*
X47845762Y-25444476D01*
X47893381Y-25587333D01*
X47893381Y-25682571D01*
X47845762Y-25825429D01*
X47750524Y-25920667D01*
X47655286Y-25968286D01*
X47464810Y-26015905D01*
X47321952Y-26015905D01*
X47131476Y-25968286D01*
X47036238Y-25920667D01*
X46941000Y-25825429D01*
X46893381Y-25682571D01*
X46893381Y-25587333D01*
X46941000Y-25444476D01*
X46988619Y-25396857D01*
X46988619Y-25015905D02*
X46941000Y-24968286D01*
X46893381Y-24873048D01*
X46893381Y-24634952D01*
X46941000Y-24539714D01*
X46988619Y-24492095D01*
X47083857Y-24444476D01*
X47179095Y-24444476D01*
X47321952Y-24492095D01*
X47893381Y-25063524D01*
X47893381Y-24444476D01*
X47893381Y-23492095D02*
X47893381Y-24063524D01*
X47893381Y-23777810D02*
X46893381Y-23777810D01*
X47036238Y-23873048D01*
X47131476Y-23968286D01*
X47179095Y-24063524D01*
X48407143Y-34327143D02*
X48359524Y-34374762D01*
X48216667Y-34422381D01*
X48121429Y-34422381D01*
X47978571Y-34374762D01*
X47883333Y-34279524D01*
X47835714Y-34184286D01*
X47788095Y-33993810D01*
X47788095Y-33850952D01*
X47835714Y-33660476D01*
X47883333Y-33565238D01*
X47978571Y-33470000D01*
X48121429Y-33422381D01*
X48216667Y-33422381D01*
X48359524Y-33470000D01*
X48407143Y-33517619D01*
X49359524Y-34422381D02*
X48788095Y-34422381D01*
X49073809Y-34422381D02*
X49073809Y-33422381D01*
X48978571Y-33565238D01*
X48883333Y-33660476D01*
X48788095Y-33708095D01*
X50264286Y-33422381D02*
X49788095Y-33422381D01*
X49740476Y-33898571D01*
X49788095Y-33850952D01*
X49883333Y-33803333D01*
X50121429Y-33803333D01*
X50216667Y-33850952D01*
X50264286Y-33898571D01*
X50311905Y-33993810D01*
X50311905Y-34231905D01*
X50264286Y-34327143D01*
X50216667Y-34374762D01*
X50121429Y-34422381D01*
X49883333Y-34422381D01*
X49788095Y-34374762D01*
X49740476Y-34327143D01*
X4785714Y-6452381D02*
X4785714Y-5452381D01*
X5166667Y-5452381D01*
X5261905Y-5500000D01*
X5309524Y-5547619D01*
X5357143Y-5642857D01*
X5357143Y-5785714D01*
X5309524Y-5880952D01*
X5261905Y-5928571D01*
X5166667Y-5976190D01*
X4785714Y-5976190D01*
X5738095Y-5547619D02*
X5785714Y-5500000D01*
X5880952Y-5452381D01*
X6119048Y-5452381D01*
X6214286Y-5500000D01*
X6261905Y-5547619D01*
X6309524Y-5642857D01*
X6309524Y-5738095D01*
X6261905Y-5880952D01*
X5690476Y-6452381D01*
X6309524Y-6452381D01*
X7261905Y-6452381D02*
X6690476Y-6452381D01*
X6976190Y-6452381D02*
X6976190Y-5452381D01*
X6880952Y-5595238D01*
X6785714Y-5690476D01*
X6690476Y-5738095D01*
X4785714Y-6452381D02*
X4785714Y-5452381D01*
X5166667Y-5452381D01*
X5261905Y-5500000D01*
X5309524Y-5547619D01*
X5357143Y-5642857D01*
X5357143Y-5785714D01*
X5309524Y-5880952D01*
X5261905Y-5928571D01*
X5166667Y-5976190D01*
X4785714Y-5976190D01*
X5738095Y-5547619D02*
X5785714Y-5500000D01*
X5880952Y-5452381D01*
X6119048Y-5452381D01*
X6214286Y-5500000D01*
X6261905Y-5547619D01*
X6309524Y-5642857D01*
X6309524Y-5738095D01*
X6261905Y-5880952D01*
X5690476Y-6452381D01*
X6309524Y-6452381D01*
X7261905Y-6452381D02*
X6690476Y-6452381D01*
X6976190Y-6452381D02*
X6976190Y-5452381D01*
X6880952Y-5595238D01*
X6785714Y-5690476D01*
X6690476Y-5738095D01*
X83785714Y-6452381D02*
X83785714Y-5452381D01*
X84166667Y-5452381D01*
X84261905Y-5500000D01*
X84309524Y-5547619D01*
X84357143Y-5642857D01*
X84357143Y-5785714D01*
X84309524Y-5880952D01*
X84261905Y-5928571D01*
X84166667Y-5976190D01*
X83785714Y-5976190D01*
X84738095Y-5547619D02*
X84785714Y-5500000D01*
X84880952Y-5452381D01*
X85119048Y-5452381D01*
X85214286Y-5500000D01*
X85261905Y-5547619D01*
X85309524Y-5642857D01*
X85309524Y-5738095D01*
X85261905Y-5880952D01*
X84690476Y-6452381D01*
X85309524Y-6452381D01*
X85690476Y-5547619D02*
X85738095Y-5500000D01*
X85833333Y-5452381D01*
X86071429Y-5452381D01*
X86166667Y-5500000D01*
X86214286Y-5547619D01*
X86261905Y-5642857D01*
X86261905Y-5738095D01*
X86214286Y-5880952D01*
X85642857Y-6452381D01*
X86261905Y-6452381D01*
X83785714Y-6452381D02*
X83785714Y-5452381D01*
X84166667Y-5452381D01*
X84261905Y-5500000D01*
X84309524Y-5547619D01*
X84357143Y-5642857D01*
X84357143Y-5785714D01*
X84309524Y-5880952D01*
X84261905Y-5928571D01*
X84166667Y-5976190D01*
X83785714Y-5976190D01*
X84738095Y-5547619D02*
X84785714Y-5500000D01*
X84880952Y-5452381D01*
X85119048Y-5452381D01*
X85214286Y-5500000D01*
X85261905Y-5547619D01*
X85309524Y-5642857D01*
X85309524Y-5738095D01*
X85261905Y-5880952D01*
X84690476Y-6452381D01*
X85309524Y-6452381D01*
X85690476Y-5547619D02*
X85738095Y-5500000D01*
X85833333Y-5452381D01*
X86071429Y-5452381D01*
X86166667Y-5500000D01*
X86214286Y-5547619D01*
X86261905Y-5642857D01*
X86261905Y-5738095D01*
X86214286Y-5880952D01*
X85642857Y-6452381D01*
X86261905Y-6452381D01*
X4785714Y-94452381D02*
X4785714Y-93452381D01*
X5166667Y-93452381D01*
X5261905Y-93500000D01*
X5309524Y-93547619D01*
X5357143Y-93642857D01*
X5357143Y-93785714D01*
X5309524Y-93880952D01*
X5261905Y-93928571D01*
X5166667Y-93976190D01*
X4785714Y-93976190D01*
X5738095Y-93547619D02*
X5785714Y-93500000D01*
X5880952Y-93452381D01*
X6119048Y-93452381D01*
X6214286Y-93500000D01*
X6261905Y-93547619D01*
X6309524Y-93642857D01*
X6309524Y-93738095D01*
X6261905Y-93880952D01*
X5690476Y-94452381D01*
X6309524Y-94452381D01*
X7166667Y-93785714D02*
X7166667Y-94452381D01*
X6928571Y-93404762D02*
X6690476Y-94119048D01*
X7309524Y-94119048D01*
X4785714Y-94452381D02*
X4785714Y-93452381D01*
X5166667Y-93452381D01*
X5261905Y-93500000D01*
X5309524Y-93547619D01*
X5357143Y-93642857D01*
X5357143Y-93785714D01*
X5309524Y-93880952D01*
X5261905Y-93928571D01*
X5166667Y-93976190D01*
X4785714Y-93976190D01*
X5738095Y-93547619D02*
X5785714Y-93500000D01*
X5880952Y-93452381D01*
X6119048Y-93452381D01*
X6214286Y-93500000D01*
X6261905Y-93547619D01*
X6309524Y-93642857D01*
X6309524Y-93738095D01*
X6261905Y-93880952D01*
X5690476Y-94452381D01*
X6309524Y-94452381D01*
X7166667Y-93785714D02*
X7166667Y-94452381D01*
X6928571Y-93404762D02*
X6690476Y-94119048D01*
X7309524Y-94119048D01*
X40107143Y-40357143D02*
X40059524Y-40404762D01*
X39916667Y-40452381D01*
X39821429Y-40452381D01*
X39678571Y-40404762D01*
X39583333Y-40309524D01*
X39535714Y-40214286D01*
X39488095Y-40023810D01*
X39488095Y-39880952D01*
X39535714Y-39690476D01*
X39583333Y-39595238D01*
X39678571Y-39500000D01*
X39821429Y-39452381D01*
X39916667Y-39452381D01*
X40059524Y-39500000D01*
X40107143Y-39547619D01*
X41059524Y-40452381D02*
X40488095Y-40452381D01*
X40773809Y-40452381D02*
X40773809Y-39452381D01*
X40678571Y-39595238D01*
X40583333Y-39690476D01*
X40488095Y-39738095D01*
X41440476Y-39547619D02*
X41488095Y-39500000D01*
X41583333Y-39452381D01*
X41821429Y-39452381D01*
X41916667Y-39500000D01*
X41964286Y-39547619D01*
X42011905Y-39642857D01*
X42011905Y-39738095D01*
X41964286Y-39880952D01*
X41392857Y-40452381D01*
X42011905Y-40452381D01*
X47207143Y-22642857D02*
X47254762Y-22690476D01*
X47302381Y-22833333D01*
X47302381Y-22928571D01*
X47254762Y-23071429D01*
X47159524Y-23166667D01*
X47064286Y-23214286D01*
X46873810Y-23261905D01*
X46730952Y-23261905D01*
X46540476Y-23214286D01*
X46445238Y-23166667D01*
X46350000Y-23071429D01*
X46302381Y-22928571D01*
X46302381Y-22833333D01*
X46350000Y-22690476D01*
X46397619Y-22642857D01*
X46397619Y-22261905D02*
X46350000Y-22214286D01*
X46302381Y-22119048D01*
X46302381Y-21880952D01*
X46350000Y-21785714D01*
X46397619Y-21738095D01*
X46492857Y-21690476D01*
X46588095Y-21690476D01*
X46730952Y-21738095D01*
X47302381Y-22309524D01*
X47302381Y-21690476D01*
X46730952Y-21119048D02*
X46683333Y-21214286D01*
X46635714Y-21261905D01*
X46540476Y-21309524D01*
X46492857Y-21309524D01*
X46397619Y-21261905D01*
X46350000Y-21214286D01*
X46302381Y-21119048D01*
X46302381Y-20928571D01*
X46350000Y-20833333D01*
X46397619Y-20785714D01*
X46492857Y-20738095D01*
X46540476Y-20738095D01*
X46635714Y-20785714D01*
X46683333Y-20833333D01*
X46730952Y-20928571D01*
X46730952Y-21119048D01*
X46778571Y-21214286D01*
X46826190Y-21261905D01*
X46921429Y-21309524D01*
X47111905Y-21309524D01*
X47207143Y-21261905D01*
X47254762Y-21214286D01*
X47302381Y-21119048D01*
X47302381Y-20928571D01*
X47254762Y-20833333D01*
X47207143Y-20785714D01*
X47111905Y-20738095D01*
X46921429Y-20738095D01*
X46826190Y-20785714D01*
X46778571Y-20833333D01*
X46730952Y-20928571D01*
X40007143Y-22642857D02*
X40054762Y-22690476D01*
X40102381Y-22833333D01*
X40102381Y-22928571D01*
X40054762Y-23071429D01*
X39959524Y-23166667D01*
X39864286Y-23214286D01*
X39673810Y-23261905D01*
X39530952Y-23261905D01*
X39340476Y-23214286D01*
X39245238Y-23166667D01*
X39150000Y-23071429D01*
X39102381Y-22928571D01*
X39102381Y-22833333D01*
X39150000Y-22690476D01*
X39197619Y-22642857D01*
X39197619Y-22261905D02*
X39150000Y-22214286D01*
X39102381Y-22119048D01*
X39102381Y-21880952D01*
X39150000Y-21785714D01*
X39197619Y-21738095D01*
X39292857Y-21690476D01*
X39388095Y-21690476D01*
X39530952Y-21738095D01*
X40102381Y-22309524D01*
X40102381Y-21690476D01*
X40102381Y-21214286D02*
X40102381Y-21023810D01*
X40054762Y-20928571D01*
X40007143Y-20880952D01*
X39864286Y-20785714D01*
X39673810Y-20738095D01*
X39292857Y-20738095D01*
X39197619Y-20785714D01*
X39150000Y-20833333D01*
X39102381Y-20928571D01*
X39102381Y-21119048D01*
X39150000Y-21214286D01*
X39197619Y-21261905D01*
X39292857Y-21309524D01*
X39530952Y-21309524D01*
X39626190Y-21261905D01*
X39673810Y-21214286D01*
X39721429Y-21119048D01*
X39721429Y-20928571D01*
X39673810Y-20833333D01*
X39626190Y-20785714D01*
X39530952Y-20738095D01*
X42642143Y-17607381D02*
X42308809Y-17131190D01*
X42070714Y-17607381D02*
X42070714Y-16607381D01*
X42451667Y-16607381D01*
X42546905Y-16655000D01*
X42594524Y-16702619D01*
X42642143Y-16797857D01*
X42642143Y-16940714D01*
X42594524Y-17035952D01*
X42546905Y-17083571D01*
X42451667Y-17131190D01*
X42070714Y-17131190D01*
X42975476Y-16607381D02*
X43594524Y-16607381D01*
X43261190Y-16988333D01*
X43404048Y-16988333D01*
X43499286Y-17035952D01*
X43546905Y-17083571D01*
X43594524Y-17178810D01*
X43594524Y-17416905D01*
X43546905Y-17512143D01*
X43499286Y-17559762D01*
X43404048Y-17607381D01*
X43118333Y-17607381D01*
X43023095Y-17559762D01*
X42975476Y-17512143D01*
X43975476Y-16702619D02*
X44023095Y-16655000D01*
X44118333Y-16607381D01*
X44356429Y-16607381D01*
X44451667Y-16655000D01*
X44499286Y-16702619D01*
X44546905Y-16797857D01*
X44546905Y-16893095D01*
X44499286Y-17035952D01*
X43927857Y-17607381D01*
X44546905Y-17607381D01*
X79257143Y-40592857D02*
X79304762Y-40640476D01*
X79352381Y-40783333D01*
X79352381Y-40878571D01*
X79304762Y-41021429D01*
X79209524Y-41116667D01*
X79114286Y-41164286D01*
X78923810Y-41211905D01*
X78780952Y-41211905D01*
X78590476Y-41164286D01*
X78495238Y-41116667D01*
X78400000Y-41021429D01*
X78352381Y-40878571D01*
X78352381Y-40783333D01*
X78400000Y-40640476D01*
X78447619Y-40592857D01*
X79352381Y-39640476D02*
X79352381Y-40211905D01*
X79352381Y-39926191D02*
X78352381Y-39926191D01*
X78495238Y-40021429D01*
X78590476Y-40116667D01*
X78638095Y-40211905D01*
X78685714Y-38783333D02*
X79352381Y-38783333D01*
X78304762Y-39021429D02*
X79019048Y-39259524D01*
X79019048Y-38640476D01*
X50379143Y-32994857D02*
X50426762Y-33042476D01*
X50474381Y-33185333D01*
X50474381Y-33280571D01*
X50426762Y-33423429D01*
X50331524Y-33518667D01*
X50236286Y-33566286D01*
X50045810Y-33613905D01*
X49902952Y-33613905D01*
X49712476Y-33566286D01*
X49617238Y-33518667D01*
X49522000Y-33423429D01*
X49474381Y-33280571D01*
X49474381Y-33185333D01*
X49522000Y-33042476D01*
X49569619Y-32994857D01*
X49474381Y-32090095D02*
X49474381Y-32566286D01*
X49950571Y-32613905D01*
X49902952Y-32566286D01*
X49855333Y-32471048D01*
X49855333Y-32232952D01*
X49902952Y-32137714D01*
X49950571Y-32090095D01*
X50045810Y-32042476D01*
X50283905Y-32042476D01*
X50379143Y-32090095D01*
X50426762Y-32137714D01*
X50474381Y-32232952D01*
X50474381Y-32471048D01*
X50426762Y-32566286D01*
X50379143Y-32613905D01*
X49474381Y-31423429D02*
X49474381Y-31328190D01*
X49522000Y-31232952D01*
X49569619Y-31185333D01*
X49664857Y-31137714D01*
X49855333Y-31090095D01*
X50093429Y-31090095D01*
X50283905Y-31137714D01*
X50379143Y-31185333D01*
X50426762Y-31232952D01*
X50474381Y-31328190D01*
X50474381Y-31423429D01*
X50426762Y-31518667D01*
X50379143Y-31566286D01*
X50283905Y-31613905D01*
X50093429Y-31661524D01*
X49855333Y-31661524D01*
X49664857Y-31613905D01*
X49569619Y-31566286D01*
X49522000Y-31518667D01*
X49474381Y-31423429D01*
X49007143Y-30857143D02*
X48959524Y-30904762D01*
X48816667Y-30952381D01*
X48721429Y-30952381D01*
X48578571Y-30904762D01*
X48483333Y-30809524D01*
X48435714Y-30714286D01*
X48388095Y-30523810D01*
X48388095Y-30380952D01*
X48435714Y-30190476D01*
X48483333Y-30095238D01*
X48578571Y-30000000D01*
X48721429Y-29952381D01*
X48816667Y-29952381D01*
X48959524Y-30000000D01*
X49007143Y-30047619D01*
X49911905Y-29952381D02*
X49435714Y-29952381D01*
X49388095Y-30428571D01*
X49435714Y-30380952D01*
X49530952Y-30333333D01*
X49769048Y-30333333D01*
X49864286Y-30380952D01*
X49911905Y-30428571D01*
X49959524Y-30523810D01*
X49959524Y-30761905D01*
X49911905Y-30857143D01*
X49864286Y-30904762D01*
X49769048Y-30952381D01*
X49530952Y-30952381D01*
X49435714Y-30904762D01*
X49388095Y-30857143D01*
X50816667Y-30285714D02*
X50816667Y-30952381D01*
X50578571Y-29904762D02*
X50340476Y-30619048D01*
X50959524Y-30619048D01*
X36495143Y-18064857D02*
X36542762Y-18112476D01*
X36590381Y-18255333D01*
X36590381Y-18350571D01*
X36542762Y-18493429D01*
X36447524Y-18588667D01*
X36352286Y-18636286D01*
X36161810Y-18683905D01*
X36018952Y-18683905D01*
X35828476Y-18636286D01*
X35733238Y-18588667D01*
X35638000Y-18493429D01*
X35590381Y-18350571D01*
X35590381Y-18255333D01*
X35638000Y-18112476D01*
X35685619Y-18064857D01*
X35590381Y-17160095D02*
X35590381Y-17636286D01*
X36066571Y-17683905D01*
X36018952Y-17636286D01*
X35971333Y-17541048D01*
X35971333Y-17302952D01*
X36018952Y-17207714D01*
X36066571Y-17160095D01*
X36161810Y-17112476D01*
X36399905Y-17112476D01*
X36495143Y-17160095D01*
X36542762Y-17207714D01*
X36590381Y-17302952D01*
X36590381Y-17541048D01*
X36542762Y-17636286D01*
X36495143Y-17683905D01*
X35590381Y-16255333D02*
X35590381Y-16445810D01*
X35638000Y-16541048D01*
X35685619Y-16588667D01*
X35828476Y-16683905D01*
X36018952Y-16731524D01*
X36399905Y-16731524D01*
X36495143Y-16683905D01*
X36542762Y-16636286D01*
X36590381Y-16541048D01*
X36590381Y-16350571D01*
X36542762Y-16255333D01*
X36495143Y-16207714D01*
X36399905Y-16160095D01*
X36161810Y-16160095D01*
X36066571Y-16207714D01*
X36018952Y-16255333D01*
X35971333Y-16350571D01*
X35971333Y-16541048D01*
X36018952Y-16636286D01*
X36066571Y-16683905D01*
X36161810Y-16731524D01*
X31379143Y-31763143D02*
X31331524Y-31810762D01*
X31188667Y-31858381D01*
X31093429Y-31858381D01*
X30950571Y-31810762D01*
X30855333Y-31715524D01*
X30807714Y-31620286D01*
X30760095Y-31429810D01*
X30760095Y-31286952D01*
X30807714Y-31096476D01*
X30855333Y-31001238D01*
X30950571Y-30906000D01*
X31093429Y-30858381D01*
X31188667Y-30858381D01*
X31331524Y-30906000D01*
X31379143Y-30953619D01*
X32283905Y-30858381D02*
X31807714Y-30858381D01*
X31760095Y-31334571D01*
X31807714Y-31286952D01*
X31902952Y-31239333D01*
X32141048Y-31239333D01*
X32236286Y-31286952D01*
X32283905Y-31334571D01*
X32331524Y-31429810D01*
X32331524Y-31667905D01*
X32283905Y-31763143D01*
X32236286Y-31810762D01*
X32141048Y-31858381D01*
X31902952Y-31858381D01*
X31807714Y-31810762D01*
X31760095Y-31763143D01*
X32807714Y-31858381D02*
X32998190Y-31858381D01*
X33093429Y-31810762D01*
X33141048Y-31763143D01*
X33236286Y-31620286D01*
X33283905Y-31429810D01*
X33283905Y-31048857D01*
X33236286Y-30953619D01*
X33188667Y-30906000D01*
X33093429Y-30858381D01*
X32902952Y-30858381D01*
X32807714Y-30906000D01*
X32760095Y-30953619D01*
X32712476Y-31048857D01*
X32712476Y-31286952D01*
X32760095Y-31382190D01*
X32807714Y-31429810D01*
X32902952Y-31477429D01*
X33093429Y-31477429D01*
X33188667Y-31429810D01*
X33236286Y-31382190D01*
X33283905Y-31286952D01*
X31479143Y-35357143D02*
X31431524Y-35404762D01*
X31288667Y-35452381D01*
X31193429Y-35452381D01*
X31050571Y-35404762D01*
X30955333Y-35309524D01*
X30907714Y-35214286D01*
X30860095Y-35023810D01*
X30860095Y-34880952D01*
X30907714Y-34690476D01*
X30955333Y-34595238D01*
X31050571Y-34500000D01*
X31193429Y-34452381D01*
X31288667Y-34452381D01*
X31431524Y-34500000D01*
X31479143Y-34547619D01*
X32336286Y-34452381D02*
X32145809Y-34452381D01*
X32050571Y-34500000D01*
X32002952Y-34547619D01*
X31907714Y-34690476D01*
X31860095Y-34880952D01*
X31860095Y-35261905D01*
X31907714Y-35357143D01*
X31955333Y-35404762D01*
X32050571Y-35452381D01*
X32241048Y-35452381D01*
X32336286Y-35404762D01*
X32383905Y-35357143D01*
X32431524Y-35261905D01*
X32431524Y-35023810D01*
X32383905Y-34928571D01*
X32336286Y-34880952D01*
X32241048Y-34833333D01*
X32050571Y-34833333D01*
X31955333Y-34880952D01*
X31907714Y-34928571D01*
X31860095Y-35023810D01*
X33050571Y-34452381D02*
X33145810Y-34452381D01*
X33241048Y-34500000D01*
X33288667Y-34547619D01*
X33336286Y-34642857D01*
X33383905Y-34833333D01*
X33383905Y-35071429D01*
X33336286Y-35261905D01*
X33288667Y-35357143D01*
X33241048Y-35404762D01*
X33145810Y-35452381D01*
X33050571Y-35452381D01*
X32955333Y-35404762D01*
X32907714Y-35357143D01*
X32860095Y-35261905D01*
X32812476Y-35071429D01*
X32812476Y-34833333D01*
X32860095Y-34642857D01*
X32907714Y-34547619D01*
X32955333Y-34500000D01*
X33050571Y-34452381D01*
X54107143Y-26436143D02*
X54059524Y-26483762D01*
X53916667Y-26531381D01*
X53821429Y-26531381D01*
X53678571Y-26483762D01*
X53583333Y-26388524D01*
X53535714Y-26293286D01*
X53488095Y-26102810D01*
X53488095Y-25959952D01*
X53535714Y-25769476D01*
X53583333Y-25674238D01*
X53678571Y-25579000D01*
X53821429Y-25531381D01*
X53916667Y-25531381D01*
X54059524Y-25579000D01*
X54107143Y-25626619D01*
X54964286Y-25531381D02*
X54773809Y-25531381D01*
X54678571Y-25579000D01*
X54630952Y-25626619D01*
X54535714Y-25769476D01*
X54488095Y-25959952D01*
X54488095Y-26340905D01*
X54535714Y-26436143D01*
X54583333Y-26483762D01*
X54678571Y-26531381D01*
X54869048Y-26531381D01*
X54964286Y-26483762D01*
X55011905Y-26436143D01*
X55059524Y-26340905D01*
X55059524Y-26102810D01*
X55011905Y-26007571D01*
X54964286Y-25959952D01*
X54869048Y-25912333D01*
X54678571Y-25912333D01*
X54583333Y-25959952D01*
X54535714Y-26007571D01*
X54488095Y-26102810D01*
X56011905Y-26531381D02*
X55440476Y-26531381D01*
X55726190Y-26531381D02*
X55726190Y-25531381D01*
X55630952Y-25674238D01*
X55535714Y-25769476D01*
X55440476Y-25817095D01*
X36673143Y-42151857D02*
X36720762Y-42199476D01*
X36768381Y-42342333D01*
X36768381Y-42437571D01*
X36720762Y-42580429D01*
X36625524Y-42675667D01*
X36530286Y-42723286D01*
X36339810Y-42770905D01*
X36196952Y-42770905D01*
X36006476Y-42723286D01*
X35911238Y-42675667D01*
X35816000Y-42580429D01*
X35768381Y-42437571D01*
X35768381Y-42342333D01*
X35816000Y-42199476D01*
X35863619Y-42151857D01*
X35768381Y-41294714D02*
X35768381Y-41485191D01*
X35816000Y-41580429D01*
X35863619Y-41628048D01*
X36006476Y-41723286D01*
X36196952Y-41770905D01*
X36577905Y-41770905D01*
X36673143Y-41723286D01*
X36720762Y-41675667D01*
X36768381Y-41580429D01*
X36768381Y-41389952D01*
X36720762Y-41294714D01*
X36673143Y-41247095D01*
X36577905Y-41199476D01*
X36339810Y-41199476D01*
X36244571Y-41247095D01*
X36196952Y-41294714D01*
X36149333Y-41389952D01*
X36149333Y-41580429D01*
X36196952Y-41675667D01*
X36244571Y-41723286D01*
X36339810Y-41770905D01*
X35863619Y-40818524D02*
X35816000Y-40770905D01*
X35768381Y-40675667D01*
X35768381Y-40437571D01*
X35816000Y-40342333D01*
X35863619Y-40294714D01*
X35958857Y-40247095D01*
X36054095Y-40247095D01*
X36196952Y-40294714D01*
X36768381Y-40866143D01*
X36768381Y-40247095D01*
X42740143Y-43824857D02*
X42787762Y-43872476D01*
X42835381Y-44015333D01*
X42835381Y-44110571D01*
X42787762Y-44253429D01*
X42692524Y-44348667D01*
X42597286Y-44396286D01*
X42406810Y-44443905D01*
X42263952Y-44443905D01*
X42073476Y-44396286D01*
X41978238Y-44348667D01*
X41883000Y-44253429D01*
X41835381Y-44110571D01*
X41835381Y-44015333D01*
X41883000Y-43872476D01*
X41930619Y-43824857D01*
X41835381Y-42967714D02*
X41835381Y-43158191D01*
X41883000Y-43253429D01*
X41930619Y-43301048D01*
X42073476Y-43396286D01*
X42263952Y-43443905D01*
X42644905Y-43443905D01*
X42740143Y-43396286D01*
X42787762Y-43348667D01*
X42835381Y-43253429D01*
X42835381Y-43062952D01*
X42787762Y-42967714D01*
X42740143Y-42920095D01*
X42644905Y-42872476D01*
X42406810Y-42872476D01*
X42311571Y-42920095D01*
X42263952Y-42967714D01*
X42216333Y-43062952D01*
X42216333Y-43253429D01*
X42263952Y-43348667D01*
X42311571Y-43396286D01*
X42406810Y-43443905D01*
X41835381Y-42539143D02*
X41835381Y-41920095D01*
X42216333Y-42253429D01*
X42216333Y-42110571D01*
X42263952Y-42015333D01*
X42311571Y-41967714D01*
X42406810Y-41920095D01*
X42644905Y-41920095D01*
X42740143Y-41967714D01*
X42787762Y-42015333D01*
X42835381Y-42110571D01*
X42835381Y-42396286D01*
X42787762Y-42491524D01*
X42740143Y-42539143D01*
X53387143Y-35587143D02*
X53339524Y-35634762D01*
X53196667Y-35682381D01*
X53101429Y-35682381D01*
X52958571Y-35634762D01*
X52863333Y-35539524D01*
X52815714Y-35444286D01*
X52768095Y-35253810D01*
X52768095Y-35110952D01*
X52815714Y-34920476D01*
X52863333Y-34825238D01*
X52958571Y-34730000D01*
X53101429Y-34682381D01*
X53196667Y-34682381D01*
X53339524Y-34730000D01*
X53387143Y-34777619D01*
X54244286Y-34682381D02*
X54053809Y-34682381D01*
X53958571Y-34730000D01*
X53910952Y-34777619D01*
X53815714Y-34920476D01*
X53768095Y-35110952D01*
X53768095Y-35491905D01*
X53815714Y-35587143D01*
X53863333Y-35634762D01*
X53958571Y-35682381D01*
X54149048Y-35682381D01*
X54244286Y-35634762D01*
X54291905Y-35587143D01*
X54339524Y-35491905D01*
X54339524Y-35253810D01*
X54291905Y-35158571D01*
X54244286Y-35110952D01*
X54149048Y-35063333D01*
X53958571Y-35063333D01*
X53863333Y-35110952D01*
X53815714Y-35158571D01*
X53768095Y-35253810D01*
X55244286Y-34682381D02*
X54768095Y-34682381D01*
X54720476Y-35158571D01*
X54768095Y-35110952D01*
X54863333Y-35063333D01*
X55101429Y-35063333D01*
X55196667Y-35110952D01*
X55244286Y-35158571D01*
X55291905Y-35253810D01*
X55291905Y-35491905D01*
X55244286Y-35587143D01*
X55196667Y-35634762D01*
X55101429Y-35682381D01*
X54863333Y-35682381D01*
X54768095Y-35634762D01*
X54720476Y-35587143D01*
X49523334Y-25397143D02*
X49475715Y-25444762D01*
X49332858Y-25492381D01*
X49237620Y-25492381D01*
X49094762Y-25444762D01*
X48999524Y-25349524D01*
X48951905Y-25254286D01*
X48904286Y-25063810D01*
X48904286Y-24920952D01*
X48951905Y-24730476D01*
X48999524Y-24635238D01*
X49094762Y-24540000D01*
X49237620Y-24492381D01*
X49332858Y-24492381D01*
X49475715Y-24540000D01*
X49523334Y-24587619D01*
X50428096Y-24492381D02*
X49951905Y-24492381D01*
X49904286Y-24968571D01*
X49951905Y-24920952D01*
X50047143Y-24873333D01*
X50285239Y-24873333D01*
X50380477Y-24920952D01*
X50428096Y-24968571D01*
X50475715Y-25063810D01*
X50475715Y-25301905D01*
X50428096Y-25397143D01*
X50380477Y-25444762D01*
X50285239Y-25492381D01*
X50047143Y-25492381D01*
X49951905Y-25444762D01*
X49904286Y-25397143D01*
X83757143Y-48916666D02*
X83804762Y-48964285D01*
X83852381Y-49107142D01*
X83852381Y-49202380D01*
X83804762Y-49345238D01*
X83709524Y-49440476D01*
X83614286Y-49488095D01*
X83423810Y-49535714D01*
X83280952Y-49535714D01*
X83090476Y-49488095D01*
X82995238Y-49440476D01*
X82900000Y-49345238D01*
X82852381Y-49202380D01*
X82852381Y-49107142D01*
X82900000Y-48964285D01*
X82947619Y-48916666D01*
X83280952Y-48345238D02*
X83233333Y-48440476D01*
X83185714Y-48488095D01*
X83090476Y-48535714D01*
X83042857Y-48535714D01*
X82947619Y-48488095D01*
X82900000Y-48440476D01*
X82852381Y-48345238D01*
X82852381Y-48154761D01*
X82900000Y-48059523D01*
X82947619Y-48011904D01*
X83042857Y-47964285D01*
X83090476Y-47964285D01*
X83185714Y-48011904D01*
X83233333Y-48059523D01*
X83280952Y-48154761D01*
X83280952Y-48345238D01*
X83328571Y-48440476D01*
X83376190Y-48488095D01*
X83471429Y-48535714D01*
X83661905Y-48535714D01*
X83757143Y-48488095D01*
X83804762Y-48440476D01*
X83852381Y-48345238D01*
X83852381Y-48154761D01*
X83804762Y-48059523D01*
X83757143Y-48011904D01*
X83661905Y-47964285D01*
X83471429Y-47964285D01*
X83376190Y-48011904D01*
X83328571Y-48059523D01*
X83280952Y-48154761D01*
X84392381Y-53738095D02*
X83392381Y-53738095D01*
X83392381Y-53500000D01*
X83440000Y-53357142D01*
X83535238Y-53261904D01*
X83630476Y-53214285D01*
X83820952Y-53166666D01*
X83963810Y-53166666D01*
X84154286Y-53214285D01*
X84249524Y-53261904D01*
X84344762Y-53357142D01*
X84392381Y-53500000D01*
X84392381Y-53738095D01*
X84392381Y-52214285D02*
X84392381Y-52785714D01*
X84392381Y-52500000D02*
X83392381Y-52500000D01*
X83535238Y-52595238D01*
X83630476Y-52690476D01*
X83678095Y-52785714D01*
X91152381Y-56161905D02*
X90152381Y-56161905D01*
X91152381Y-55590476D02*
X90580952Y-56019048D01*
X90152381Y-55590476D02*
X90723810Y-56161905D01*
X90816667Y-50338095D02*
X90816667Y-49861904D01*
X91102381Y-50433333D02*
X90102381Y-50100000D01*
X91102381Y-49766666D01*
X92012381Y-45238095D02*
X91012381Y-45238095D01*
X91012381Y-45000000D01*
X91060000Y-44857142D01*
X91155238Y-44761904D01*
X91250476Y-44714285D01*
X91440952Y-44666666D01*
X91583810Y-44666666D01*
X91774286Y-44714285D01*
X91869524Y-44761904D01*
X91964762Y-44857142D01*
X92012381Y-45000000D01*
X92012381Y-45238095D01*
X91107619Y-44285714D02*
X91060000Y-44238095D01*
X91012381Y-44142857D01*
X91012381Y-43904761D01*
X91060000Y-43809523D01*
X91107619Y-43761904D01*
X91202857Y-43714285D01*
X91298095Y-43714285D01*
X91440952Y-43761904D01*
X92012381Y-44333333D01*
X92012381Y-43714285D01*
X85252381Y-41861905D02*
X84252381Y-41861905D01*
X85252381Y-41290476D02*
X84680952Y-41719048D01*
X84252381Y-41290476D02*
X84823810Y-41861905D01*
X85016667Y-47638095D02*
X85016667Y-47161904D01*
X85302381Y-47733333D02*
X84302381Y-47400000D01*
X85302381Y-47066666D01*
X59452381Y-63361905D02*
X60261905Y-63361905D01*
X60357143Y-63314286D01*
X60404762Y-63266667D01*
X60452381Y-63171429D01*
X60452381Y-62980952D01*
X60404762Y-62885714D01*
X60357143Y-62838095D01*
X60261905Y-62790476D01*
X59452381Y-62790476D01*
X59452381Y-62409524D02*
X59452381Y-61790476D01*
X59833333Y-62123810D01*
X59833333Y-61980952D01*
X59880952Y-61885714D01*
X59928571Y-61838095D01*
X60023810Y-61790476D01*
X60261905Y-61790476D01*
X60357143Y-61838095D01*
X60404762Y-61885714D01*
X60452381Y-61980952D01*
X60452381Y-62266667D01*
X60404762Y-62361905D01*
X60357143Y-62409524D01*
X30752381Y-63261905D02*
X31561905Y-63261905D01*
X31657143Y-63214286D01*
X31704762Y-63166667D01*
X31752381Y-63071429D01*
X31752381Y-62880952D01*
X31704762Y-62785714D01*
X31657143Y-62738095D01*
X31561905Y-62690476D01*
X30752381Y-62690476D01*
X30752381Y-61738095D02*
X30752381Y-62214286D01*
X31228571Y-62261905D01*
X31180952Y-62214286D01*
X31133333Y-62119048D01*
X31133333Y-61880952D01*
X31180952Y-61785714D01*
X31228571Y-61738095D01*
X31323810Y-61690476D01*
X31561905Y-61690476D01*
X31657143Y-61738095D01*
X31704762Y-61785714D01*
X31752381Y-61880952D01*
X31752381Y-62119048D01*
X31704762Y-62214286D01*
X31657143Y-62261905D01*
X70202381Y-32188095D02*
X71011905Y-32188095D01*
X71107143Y-32140476D01*
X71154762Y-32092857D01*
X71202381Y-31997619D01*
X71202381Y-31807142D01*
X71154762Y-31711904D01*
X71107143Y-31664285D01*
X71011905Y-31616666D01*
X70202381Y-31616666D01*
X71202381Y-30616666D02*
X71202381Y-31188095D01*
X71202381Y-30902381D02*
X70202381Y-30902381D01*
X70345238Y-30997619D01*
X70440476Y-31092857D01*
X70488095Y-31188095D01*
X70202381Y-29711904D02*
X70202381Y-30188095D01*
X70678571Y-30235714D01*
X70630952Y-30188095D01*
X70583333Y-30092857D01*
X70583333Y-29854761D01*
X70630952Y-29759523D01*
X70678571Y-29711904D01*
X70773810Y-29664285D01*
X71011905Y-29664285D01*
X71107143Y-29711904D01*
X71154762Y-29759523D01*
X71202381Y-29854761D01*
X71202381Y-30092857D01*
X71154762Y-30188095D01*
X71107143Y-30235714D01*
X17857143Y-21507143D02*
X17809524Y-21554762D01*
X17666667Y-21602381D01*
X17571429Y-21602381D01*
X17428571Y-21554762D01*
X17333333Y-21459524D01*
X17285714Y-21364286D01*
X17238095Y-21173810D01*
X17238095Y-21030952D01*
X17285714Y-20840476D01*
X17333333Y-20745238D01*
X17428571Y-20650000D01*
X17571429Y-20602381D01*
X17666667Y-20602381D01*
X17809524Y-20650000D01*
X17857143Y-20697619D01*
X18809524Y-21602381D02*
X18238095Y-21602381D01*
X18523809Y-21602381D02*
X18523809Y-20602381D01*
X18428571Y-20745238D01*
X18333333Y-20840476D01*
X18238095Y-20888095D01*
X19666667Y-20602381D02*
X19476190Y-20602381D01*
X19380952Y-20650000D01*
X19333333Y-20697619D01*
X19238095Y-20840476D01*
X19190476Y-21030952D01*
X19190476Y-21411905D01*
X19238095Y-21507143D01*
X19285714Y-21554762D01*
X19380952Y-21602381D01*
X19571429Y-21602381D01*
X19666667Y-21554762D01*
X19714286Y-21507143D01*
X19761905Y-21411905D01*
X19761905Y-21173810D01*
X19714286Y-21078571D01*
X19666667Y-21030952D01*
X19571429Y-20983333D01*
X19380952Y-20983333D01*
X19285714Y-21030952D01*
X19238095Y-21078571D01*
X19190476Y-21173810D01*
X74180953Y-47557143D02*
X74133334Y-47604762D01*
X73990477Y-47652381D01*
X73895239Y-47652381D01*
X73752381Y-47604762D01*
X73657143Y-47509524D01*
X73609524Y-47414286D01*
X73561905Y-47223810D01*
X73561905Y-47080952D01*
X73609524Y-46890476D01*
X73657143Y-46795238D01*
X73752381Y-46700000D01*
X73895239Y-46652381D01*
X73990477Y-46652381D01*
X74133334Y-46700000D01*
X74180953Y-46747619D01*
X75133334Y-47652381D02*
X74561905Y-47652381D01*
X74847619Y-47652381D02*
X74847619Y-46652381D01*
X74752381Y-46795238D01*
X74657143Y-46890476D01*
X74561905Y-46938095D01*
X75752381Y-46652381D02*
X75847620Y-46652381D01*
X75942858Y-46700000D01*
X75990477Y-46747619D01*
X76038096Y-46842857D01*
X76085715Y-47033333D01*
X76085715Y-47271429D01*
X76038096Y-47461905D01*
X75990477Y-47557143D01*
X75942858Y-47604762D01*
X75847620Y-47652381D01*
X75752381Y-47652381D01*
X75657143Y-47604762D01*
X75609524Y-47557143D01*
X75561905Y-47461905D01*
X75514286Y-47271429D01*
X75514286Y-47033333D01*
X75561905Y-46842857D01*
X75609524Y-46747619D01*
X75657143Y-46700000D01*
X75752381Y-46652381D01*
X76990477Y-46652381D02*
X76514286Y-46652381D01*
X76466667Y-47128571D01*
X76514286Y-47080952D01*
X76609524Y-47033333D01*
X76847620Y-47033333D01*
X76942858Y-47080952D01*
X76990477Y-47128571D01*
X77038096Y-47223810D01*
X77038096Y-47461905D01*
X76990477Y-47557143D01*
X76942858Y-47604762D01*
X76847620Y-47652381D01*
X76609524Y-47652381D01*
X76514286Y-47604762D01*
X76466667Y-47557143D01*
X18302381Y-94002381D02*
X17969047Y-93526190D01*
X17730952Y-94002381D02*
X17730952Y-93002381D01*
X18111905Y-93002381D01*
X18207143Y-93050000D01*
X18254762Y-93097619D01*
X18302381Y-93192857D01*
X18302381Y-93335714D01*
X18254762Y-93430952D01*
X18207143Y-93478571D01*
X18111905Y-93526190D01*
X17730952Y-93526190D01*
X18683333Y-93954762D02*
X18826190Y-94002381D01*
X19064286Y-94002381D01*
X19159524Y-93954762D01*
X19207143Y-93907143D01*
X19254762Y-93811905D01*
X19254762Y-93716667D01*
X19207143Y-93621429D01*
X19159524Y-93573810D01*
X19064286Y-93526190D01*
X18873809Y-93478571D01*
X18778571Y-93430952D01*
X18730952Y-93383333D01*
X18683333Y-93288095D01*
X18683333Y-93192857D01*
X18730952Y-93097619D01*
X18778571Y-93050000D01*
X18873809Y-93002381D01*
X19111905Y-93002381D01*
X19254762Y-93050000D01*
X19683333Y-93478571D02*
X20016667Y-93478571D01*
X20159524Y-94002381D02*
X19683333Y-94002381D01*
X19683333Y-93002381D01*
X20159524Y-93002381D01*
X20588095Y-94002381D02*
X20588095Y-93002381D01*
X21159524Y-94002381D01*
X21159524Y-93002381D01*
X21588095Y-93954762D02*
X21730952Y-94002381D01*
X21969048Y-94002381D01*
X22064286Y-93954762D01*
X22111905Y-93907143D01*
X22159524Y-93811905D01*
X22159524Y-93716667D01*
X22111905Y-93621429D01*
X22064286Y-93573810D01*
X21969048Y-93526190D01*
X21778571Y-93478571D01*
X21683333Y-93430952D01*
X21635714Y-93383333D01*
X21588095Y-93288095D01*
X21588095Y-93192857D01*
X21635714Y-93097619D01*
X21683333Y-93050000D01*
X21778571Y-93002381D01*
X22016667Y-93002381D01*
X22159524Y-93050000D01*
X22588095Y-93478571D02*
X22921429Y-93478571D01*
X23064286Y-94002381D02*
X22588095Y-94002381D01*
X22588095Y-93002381D01*
X23064286Y-93002381D01*
X24016667Y-94002381D02*
X23445238Y-94002381D01*
X23730952Y-94002381D02*
X23730952Y-93002381D01*
X23635714Y-93145238D01*
X23540476Y-93240476D01*
X23445238Y-93288095D01*
X40802381Y-78397619D02*
X40326190Y-78730953D01*
X40802381Y-78969048D02*
X39802381Y-78969048D01*
X39802381Y-78588095D01*
X39850000Y-78492857D01*
X39897619Y-78445238D01*
X39992857Y-78397619D01*
X40135714Y-78397619D01*
X40230952Y-78445238D01*
X40278571Y-78492857D01*
X40326190Y-78588095D01*
X40326190Y-78969048D01*
X40754762Y-78016667D02*
X40802381Y-77873810D01*
X40802381Y-77635714D01*
X40754762Y-77540476D01*
X40707143Y-77492857D01*
X40611905Y-77445238D01*
X40516667Y-77445238D01*
X40421429Y-77492857D01*
X40373810Y-77540476D01*
X40326190Y-77635714D01*
X40278571Y-77826191D01*
X40230952Y-77921429D01*
X40183333Y-77969048D01*
X40088095Y-78016667D01*
X39992857Y-78016667D01*
X39897619Y-77969048D01*
X39850000Y-77921429D01*
X39802381Y-77826191D01*
X39802381Y-77588095D01*
X39850000Y-77445238D01*
X40278571Y-77016667D02*
X40278571Y-76683333D01*
X40802381Y-76540476D02*
X40802381Y-77016667D01*
X39802381Y-77016667D01*
X39802381Y-76540476D01*
X40802381Y-76111905D02*
X39802381Y-76111905D01*
X40802381Y-75540476D01*
X39802381Y-75540476D01*
X40754762Y-75111905D02*
X40802381Y-74969048D01*
X40802381Y-74730952D01*
X40754762Y-74635714D01*
X40707143Y-74588095D01*
X40611905Y-74540476D01*
X40516667Y-74540476D01*
X40421429Y-74588095D01*
X40373810Y-74635714D01*
X40326190Y-74730952D01*
X40278571Y-74921429D01*
X40230952Y-75016667D01*
X40183333Y-75064286D01*
X40088095Y-75111905D01*
X39992857Y-75111905D01*
X39897619Y-75064286D01*
X39850000Y-75016667D01*
X39802381Y-74921429D01*
X39802381Y-74683333D01*
X39850000Y-74540476D01*
X40278571Y-74111905D02*
X40278571Y-73778571D01*
X40802381Y-73635714D02*
X40802381Y-74111905D01*
X39802381Y-74111905D01*
X39802381Y-73635714D01*
X39897619Y-73254762D02*
X39850000Y-73207143D01*
X39802381Y-73111905D01*
X39802381Y-72873809D01*
X39850000Y-72778571D01*
X39897619Y-72730952D01*
X39992857Y-72683333D01*
X40088095Y-72683333D01*
X40230952Y-72730952D01*
X40802381Y-73302381D01*
X40802381Y-72683333D01*
X76502381Y-85447619D02*
X76026190Y-85780953D01*
X76502381Y-86019048D02*
X75502381Y-86019048D01*
X75502381Y-85638095D01*
X75550000Y-85542857D01*
X75597619Y-85495238D01*
X75692857Y-85447619D01*
X75835714Y-85447619D01*
X75930952Y-85495238D01*
X75978571Y-85542857D01*
X76026190Y-85638095D01*
X76026190Y-86019048D01*
X76454762Y-85066667D02*
X76502381Y-84923810D01*
X76502381Y-84685714D01*
X76454762Y-84590476D01*
X76407143Y-84542857D01*
X76311905Y-84495238D01*
X76216667Y-84495238D01*
X76121429Y-84542857D01*
X76073810Y-84590476D01*
X76026190Y-84685714D01*
X75978571Y-84876191D01*
X75930952Y-84971429D01*
X75883333Y-85019048D01*
X75788095Y-85066667D01*
X75692857Y-85066667D01*
X75597619Y-85019048D01*
X75550000Y-84971429D01*
X75502381Y-84876191D01*
X75502381Y-84638095D01*
X75550000Y-84495238D01*
X75978571Y-84066667D02*
X75978571Y-83733333D01*
X76502381Y-83590476D02*
X76502381Y-84066667D01*
X75502381Y-84066667D01*
X75502381Y-83590476D01*
X76502381Y-83161905D02*
X75502381Y-83161905D01*
X76502381Y-82590476D01*
X75502381Y-82590476D01*
X76454762Y-82161905D02*
X76502381Y-82019048D01*
X76502381Y-81780952D01*
X76454762Y-81685714D01*
X76407143Y-81638095D01*
X76311905Y-81590476D01*
X76216667Y-81590476D01*
X76121429Y-81638095D01*
X76073810Y-81685714D01*
X76026190Y-81780952D01*
X75978571Y-81971429D01*
X75930952Y-82066667D01*
X75883333Y-82114286D01*
X75788095Y-82161905D01*
X75692857Y-82161905D01*
X75597619Y-82114286D01*
X75550000Y-82066667D01*
X75502381Y-81971429D01*
X75502381Y-81733333D01*
X75550000Y-81590476D01*
X75978571Y-81161905D02*
X75978571Y-80828571D01*
X76502381Y-80685714D02*
X76502381Y-81161905D01*
X75502381Y-81161905D01*
X75502381Y-80685714D01*
X75502381Y-80352381D02*
X75502381Y-79733333D01*
X75883333Y-80066667D01*
X75883333Y-79923809D01*
X75930952Y-79828571D01*
X75978571Y-79780952D01*
X76073810Y-79733333D01*
X76311905Y-79733333D01*
X76407143Y-79780952D01*
X76454762Y-79828571D01*
X76502381Y-79923809D01*
X76502381Y-80209524D01*
X76454762Y-80304762D01*
X76407143Y-80352381D01*
X23500000Y-94202381D02*
X23500000Y-93202381D01*
X24071429Y-94202381D01*
X24071429Y-93202381D01*
X24404762Y-93202381D02*
X24738095Y-94202381D01*
X25071429Y-93202381D01*
X25404762Y-94202381D02*
X25404762Y-93202381D01*
X25738096Y-93916667D01*
X26071429Y-93202381D01*
X26071429Y-94202381D01*
X26880953Y-93678571D02*
X26547619Y-93678571D01*
X26547619Y-94202381D02*
X26547619Y-93202381D01*
X27023810Y-93202381D01*
X27357143Y-94154762D02*
X27500000Y-94202381D01*
X27738096Y-94202381D01*
X27833334Y-94154762D01*
X27880953Y-94107143D01*
X27928572Y-94011905D01*
X27928572Y-93916667D01*
X27880953Y-93821429D01*
X27833334Y-93773810D01*
X27738096Y-93726190D01*
X27547619Y-93678571D01*
X27452381Y-93630952D01*
X27404762Y-93583333D01*
X27357143Y-93488095D01*
X27357143Y-93392857D01*
X27404762Y-93297619D01*
X27452381Y-93250000D01*
X27547619Y-93202381D01*
X27785715Y-93202381D01*
X27928572Y-93250000D01*
X28833334Y-93202381D02*
X28357143Y-93202381D01*
X28309524Y-93678571D01*
X28357143Y-93630952D01*
X28452381Y-93583333D01*
X28690477Y-93583333D01*
X28785715Y-93630952D01*
X28833334Y-93678571D01*
X28880953Y-93773810D01*
X28880953Y-94011905D01*
X28833334Y-94107143D01*
X28785715Y-94154762D01*
X28690477Y-94202381D01*
X28452381Y-94202381D01*
X28357143Y-94154762D01*
X28309524Y-94107143D01*
X29880953Y-94107143D02*
X29833334Y-94154762D01*
X29690477Y-94202381D01*
X29595239Y-94202381D01*
X29452381Y-94154762D01*
X29357143Y-94059524D01*
X29309524Y-93964286D01*
X29261905Y-93773810D01*
X29261905Y-93630952D01*
X29309524Y-93440476D01*
X29357143Y-93345238D01*
X29452381Y-93250000D01*
X29595239Y-93202381D01*
X29690477Y-93202381D01*
X29833334Y-93250000D01*
X29880953Y-93297619D01*
X30738096Y-93202381D02*
X30547619Y-93202381D01*
X30452381Y-93250000D01*
X30404762Y-93297619D01*
X30309524Y-93440476D01*
X30261905Y-93630952D01*
X30261905Y-94011905D01*
X30309524Y-94107143D01*
X30357143Y-94154762D01*
X30452381Y-94202381D01*
X30642858Y-94202381D01*
X30738096Y-94154762D01*
X30785715Y-94107143D01*
X30833334Y-94011905D01*
X30833334Y-93773810D01*
X30785715Y-93678571D01*
X30738096Y-93630952D01*
X30642858Y-93583333D01*
X30452381Y-93583333D01*
X30357143Y-93630952D01*
X30309524Y-93678571D01*
X30261905Y-93773810D01*
X31166667Y-93202381D02*
X31833334Y-93202381D01*
X31404762Y-94202381D01*
X32404762Y-93202381D02*
X32500001Y-93202381D01*
X32595239Y-93250000D01*
X32642858Y-93297619D01*
X32690477Y-93392857D01*
X32738096Y-93583333D01*
X32738096Y-93821429D01*
X32690477Y-94011905D01*
X32642858Y-94107143D01*
X32595239Y-94154762D01*
X32500001Y-94202381D01*
X32404762Y-94202381D01*
X32309524Y-94154762D01*
X32261905Y-94107143D01*
X32214286Y-94011905D01*
X32166667Y-93821429D01*
X32166667Y-93583333D01*
X32214286Y-93392857D01*
X32261905Y-93297619D01*
X32309524Y-93250000D01*
X32404762Y-93202381D01*
X33166667Y-94202381D02*
X33166667Y-93202381D01*
X33738096Y-94202381D01*
X33738096Y-93202381D01*
X34690477Y-94202381D02*
X34214286Y-94202381D01*
X34214286Y-93202381D01*
X35547620Y-94202381D02*
X34976191Y-94202381D01*
X35261905Y-94202381D02*
X35261905Y-93202381D01*
X35166667Y-93345238D01*
X35071429Y-93440476D01*
X34976191Y-93488095D01*
X39952381Y-89500000D02*
X38952381Y-89500000D01*
X39952381Y-88928571D01*
X38952381Y-88928571D01*
X38952381Y-88595238D02*
X39952381Y-88261905D01*
X38952381Y-87928571D01*
X39952381Y-87595238D02*
X38952381Y-87595238D01*
X39666667Y-87261904D01*
X38952381Y-86928571D01*
X39952381Y-86928571D01*
X39428571Y-86119047D02*
X39428571Y-86452381D01*
X39952381Y-86452381D02*
X38952381Y-86452381D01*
X38952381Y-85976190D01*
X39904762Y-85642857D02*
X39952381Y-85500000D01*
X39952381Y-85261904D01*
X39904762Y-85166666D01*
X39857143Y-85119047D01*
X39761905Y-85071428D01*
X39666667Y-85071428D01*
X39571429Y-85119047D01*
X39523810Y-85166666D01*
X39476190Y-85261904D01*
X39428571Y-85452381D01*
X39380952Y-85547619D01*
X39333333Y-85595238D01*
X39238095Y-85642857D01*
X39142857Y-85642857D01*
X39047619Y-85595238D01*
X39000000Y-85547619D01*
X38952381Y-85452381D01*
X38952381Y-85214285D01*
X39000000Y-85071428D01*
X38952381Y-84166666D02*
X38952381Y-84642857D01*
X39428571Y-84690476D01*
X39380952Y-84642857D01*
X39333333Y-84547619D01*
X39333333Y-84309523D01*
X39380952Y-84214285D01*
X39428571Y-84166666D01*
X39523810Y-84119047D01*
X39761905Y-84119047D01*
X39857143Y-84166666D01*
X39904762Y-84214285D01*
X39952381Y-84309523D01*
X39952381Y-84547619D01*
X39904762Y-84642857D01*
X39857143Y-84690476D01*
X39857143Y-83119047D02*
X39904762Y-83166666D01*
X39952381Y-83309523D01*
X39952381Y-83404761D01*
X39904762Y-83547619D01*
X39809524Y-83642857D01*
X39714286Y-83690476D01*
X39523810Y-83738095D01*
X39380952Y-83738095D01*
X39190476Y-83690476D01*
X39095238Y-83642857D01*
X39000000Y-83547619D01*
X38952381Y-83404761D01*
X38952381Y-83309523D01*
X39000000Y-83166666D01*
X39047619Y-83119047D01*
X38952381Y-82261904D02*
X38952381Y-82452381D01*
X39000000Y-82547619D01*
X39047619Y-82595238D01*
X39190476Y-82690476D01*
X39380952Y-82738095D01*
X39761905Y-82738095D01*
X39857143Y-82690476D01*
X39904762Y-82642857D01*
X39952381Y-82547619D01*
X39952381Y-82357142D01*
X39904762Y-82261904D01*
X39857143Y-82214285D01*
X39761905Y-82166666D01*
X39523810Y-82166666D01*
X39428571Y-82214285D01*
X39380952Y-82261904D01*
X39333333Y-82357142D01*
X39333333Y-82547619D01*
X39380952Y-82642857D01*
X39428571Y-82690476D01*
X39523810Y-82738095D01*
X38952381Y-81833333D02*
X38952381Y-81166666D01*
X39952381Y-81595238D01*
X38952381Y-80595238D02*
X38952381Y-80499999D01*
X39000000Y-80404761D01*
X39047619Y-80357142D01*
X39142857Y-80309523D01*
X39333333Y-80261904D01*
X39571429Y-80261904D01*
X39761905Y-80309523D01*
X39857143Y-80357142D01*
X39904762Y-80404761D01*
X39952381Y-80499999D01*
X39952381Y-80595238D01*
X39904762Y-80690476D01*
X39857143Y-80738095D01*
X39761905Y-80785714D01*
X39571429Y-80833333D01*
X39333333Y-80833333D01*
X39142857Y-80785714D01*
X39047619Y-80738095D01*
X39000000Y-80690476D01*
X38952381Y-80595238D01*
X39952381Y-79833333D02*
X38952381Y-79833333D01*
X39952381Y-79261904D01*
X38952381Y-79261904D01*
X39952381Y-78309523D02*
X39952381Y-78785714D01*
X38952381Y-78785714D01*
X39047619Y-78023809D02*
X39000000Y-77976190D01*
X38952381Y-77880952D01*
X38952381Y-77642856D01*
X39000000Y-77547618D01*
X39047619Y-77499999D01*
X39142857Y-77452380D01*
X39238095Y-77452380D01*
X39380952Y-77499999D01*
X39952381Y-78071428D01*
X39952381Y-77452380D01*
X58250000Y-87452381D02*
X58250000Y-86452381D01*
X58821429Y-87452381D01*
X58821429Y-86452381D01*
X59154762Y-86452381D02*
X59488095Y-87452381D01*
X59821429Y-86452381D01*
X60154762Y-87452381D02*
X60154762Y-86452381D01*
X60488096Y-87166667D01*
X60821429Y-86452381D01*
X60821429Y-87452381D01*
X61630953Y-86928571D02*
X61297619Y-86928571D01*
X61297619Y-87452381D02*
X61297619Y-86452381D01*
X61773810Y-86452381D01*
X62107143Y-87404762D02*
X62250000Y-87452381D01*
X62488096Y-87452381D01*
X62583334Y-87404762D01*
X62630953Y-87357143D01*
X62678572Y-87261905D01*
X62678572Y-87166667D01*
X62630953Y-87071429D01*
X62583334Y-87023810D01*
X62488096Y-86976190D01*
X62297619Y-86928571D01*
X62202381Y-86880952D01*
X62154762Y-86833333D01*
X62107143Y-86738095D01*
X62107143Y-86642857D01*
X62154762Y-86547619D01*
X62202381Y-86500000D01*
X62297619Y-86452381D01*
X62535715Y-86452381D01*
X62678572Y-86500000D01*
X63583334Y-86452381D02*
X63107143Y-86452381D01*
X63059524Y-86928571D01*
X63107143Y-86880952D01*
X63202381Y-86833333D01*
X63440477Y-86833333D01*
X63535715Y-86880952D01*
X63583334Y-86928571D01*
X63630953Y-87023810D01*
X63630953Y-87261905D01*
X63583334Y-87357143D01*
X63535715Y-87404762D01*
X63440477Y-87452381D01*
X63202381Y-87452381D01*
X63107143Y-87404762D01*
X63059524Y-87357143D01*
X64630953Y-87357143D02*
X64583334Y-87404762D01*
X64440477Y-87452381D01*
X64345239Y-87452381D01*
X64202381Y-87404762D01*
X64107143Y-87309524D01*
X64059524Y-87214286D01*
X64011905Y-87023810D01*
X64011905Y-86880952D01*
X64059524Y-86690476D01*
X64107143Y-86595238D01*
X64202381Y-86500000D01*
X64345239Y-86452381D01*
X64440477Y-86452381D01*
X64583334Y-86500000D01*
X64630953Y-86547619D01*
X65488096Y-86452381D02*
X65297619Y-86452381D01*
X65202381Y-86500000D01*
X65154762Y-86547619D01*
X65059524Y-86690476D01*
X65011905Y-86880952D01*
X65011905Y-87261905D01*
X65059524Y-87357143D01*
X65107143Y-87404762D01*
X65202381Y-87452381D01*
X65392858Y-87452381D01*
X65488096Y-87404762D01*
X65535715Y-87357143D01*
X65583334Y-87261905D01*
X65583334Y-87023810D01*
X65535715Y-86928571D01*
X65488096Y-86880952D01*
X65392858Y-86833333D01*
X65202381Y-86833333D01*
X65107143Y-86880952D01*
X65059524Y-86928571D01*
X65011905Y-87023810D01*
X65916667Y-86452381D02*
X66583334Y-86452381D01*
X66154762Y-87452381D01*
X67154762Y-86452381D02*
X67250001Y-86452381D01*
X67345239Y-86500000D01*
X67392858Y-86547619D01*
X67440477Y-86642857D01*
X67488096Y-86833333D01*
X67488096Y-87071429D01*
X67440477Y-87261905D01*
X67392858Y-87357143D01*
X67345239Y-87404762D01*
X67250001Y-87452381D01*
X67154762Y-87452381D01*
X67059524Y-87404762D01*
X67011905Y-87357143D01*
X66964286Y-87261905D01*
X66916667Y-87071429D01*
X66916667Y-86833333D01*
X66964286Y-86642857D01*
X67011905Y-86547619D01*
X67059524Y-86500000D01*
X67154762Y-86452381D01*
X67916667Y-87452381D02*
X67916667Y-86452381D01*
X68488096Y-87452381D01*
X68488096Y-86452381D01*
X69440477Y-87452381D02*
X68964286Y-87452381D01*
X68964286Y-86452381D01*
X69678572Y-86452381D02*
X70297620Y-86452381D01*
X69964286Y-86833333D01*
X70107144Y-86833333D01*
X70202382Y-86880952D01*
X70250001Y-86928571D01*
X70297620Y-87023810D01*
X70297620Y-87261905D01*
X70250001Y-87357143D01*
X70202382Y-87404762D01*
X70107144Y-87452381D01*
X69821429Y-87452381D01*
X69726191Y-87404762D01*
X69678572Y-87357143D01*
X60952381Y-89750000D02*
X59952381Y-89750000D01*
X60952381Y-89178571D01*
X59952381Y-89178571D01*
X59952381Y-88845238D02*
X60952381Y-88511905D01*
X59952381Y-88178571D01*
X60952381Y-87845238D02*
X59952381Y-87845238D01*
X60666667Y-87511904D01*
X59952381Y-87178571D01*
X60952381Y-87178571D01*
X60428571Y-86369047D02*
X60428571Y-86702381D01*
X60952381Y-86702381D02*
X59952381Y-86702381D01*
X59952381Y-86226190D01*
X60904762Y-85892857D02*
X60952381Y-85750000D01*
X60952381Y-85511904D01*
X60904762Y-85416666D01*
X60857143Y-85369047D01*
X60761905Y-85321428D01*
X60666667Y-85321428D01*
X60571429Y-85369047D01*
X60523810Y-85416666D01*
X60476190Y-85511904D01*
X60428571Y-85702381D01*
X60380952Y-85797619D01*
X60333333Y-85845238D01*
X60238095Y-85892857D01*
X60142857Y-85892857D01*
X60047619Y-85845238D01*
X60000000Y-85797619D01*
X59952381Y-85702381D01*
X59952381Y-85464285D01*
X60000000Y-85321428D01*
X59952381Y-84416666D02*
X59952381Y-84892857D01*
X60428571Y-84940476D01*
X60380952Y-84892857D01*
X60333333Y-84797619D01*
X60333333Y-84559523D01*
X60380952Y-84464285D01*
X60428571Y-84416666D01*
X60523810Y-84369047D01*
X60761905Y-84369047D01*
X60857143Y-84416666D01*
X60904762Y-84464285D01*
X60952381Y-84559523D01*
X60952381Y-84797619D01*
X60904762Y-84892857D01*
X60857143Y-84940476D01*
X60857143Y-83369047D02*
X60904762Y-83416666D01*
X60952381Y-83559523D01*
X60952381Y-83654761D01*
X60904762Y-83797619D01*
X60809524Y-83892857D01*
X60714286Y-83940476D01*
X60523810Y-83988095D01*
X60380952Y-83988095D01*
X60190476Y-83940476D01*
X60095238Y-83892857D01*
X60000000Y-83797619D01*
X59952381Y-83654761D01*
X59952381Y-83559523D01*
X60000000Y-83416666D01*
X60047619Y-83369047D01*
X59952381Y-82511904D02*
X59952381Y-82702381D01*
X60000000Y-82797619D01*
X60047619Y-82845238D01*
X60190476Y-82940476D01*
X60380952Y-82988095D01*
X60761905Y-82988095D01*
X60857143Y-82940476D01*
X60904762Y-82892857D01*
X60952381Y-82797619D01*
X60952381Y-82607142D01*
X60904762Y-82511904D01*
X60857143Y-82464285D01*
X60761905Y-82416666D01*
X60523810Y-82416666D01*
X60428571Y-82464285D01*
X60380952Y-82511904D01*
X60333333Y-82607142D01*
X60333333Y-82797619D01*
X60380952Y-82892857D01*
X60428571Y-82940476D01*
X60523810Y-82988095D01*
X59952381Y-82083333D02*
X59952381Y-81416666D01*
X60952381Y-81845238D01*
X59952381Y-80845238D02*
X59952381Y-80749999D01*
X60000000Y-80654761D01*
X60047619Y-80607142D01*
X60142857Y-80559523D01*
X60333333Y-80511904D01*
X60571429Y-80511904D01*
X60761905Y-80559523D01*
X60857143Y-80607142D01*
X60904762Y-80654761D01*
X60952381Y-80749999D01*
X60952381Y-80845238D01*
X60904762Y-80940476D01*
X60857143Y-80988095D01*
X60761905Y-81035714D01*
X60571429Y-81083333D01*
X60333333Y-81083333D01*
X60142857Y-81035714D01*
X60047619Y-80988095D01*
X60000000Y-80940476D01*
X59952381Y-80845238D01*
X60952381Y-80083333D02*
X59952381Y-80083333D01*
X60952381Y-79511904D01*
X59952381Y-79511904D01*
X60952381Y-78559523D02*
X60952381Y-79035714D01*
X59952381Y-79035714D01*
X60285714Y-77797618D02*
X60952381Y-77797618D01*
X59904762Y-78035714D02*
X60619048Y-78273809D01*
X60619048Y-77654761D01*
X78583334Y-33602381D02*
X78250000Y-33126190D01*
X78011905Y-33602381D02*
X78011905Y-32602381D01*
X78392858Y-32602381D01*
X78488096Y-32650000D01*
X78535715Y-32697619D01*
X78583334Y-32792857D01*
X78583334Y-32935714D01*
X78535715Y-33030952D01*
X78488096Y-33078571D01*
X78392858Y-33126190D01*
X78011905Y-33126190D01*
X78964286Y-32697619D02*
X79011905Y-32650000D01*
X79107143Y-32602381D01*
X79345239Y-32602381D01*
X79440477Y-32650000D01*
X79488096Y-32697619D01*
X79535715Y-32792857D01*
X79535715Y-32888095D01*
X79488096Y-33030952D01*
X78916667Y-33602381D01*
X79535715Y-33602381D01*
X36852381Y-37266666D02*
X36376190Y-37600000D01*
X36852381Y-37838095D02*
X35852381Y-37838095D01*
X35852381Y-37457142D01*
X35900000Y-37361904D01*
X35947619Y-37314285D01*
X36042857Y-37266666D01*
X36185714Y-37266666D01*
X36280952Y-37314285D01*
X36328571Y-37361904D01*
X36376190Y-37457142D01*
X36376190Y-37838095D01*
X36280952Y-36695238D02*
X36233333Y-36790476D01*
X36185714Y-36838095D01*
X36090476Y-36885714D01*
X36042857Y-36885714D01*
X35947619Y-36838095D01*
X35900000Y-36790476D01*
X35852381Y-36695238D01*
X35852381Y-36504761D01*
X35900000Y-36409523D01*
X35947619Y-36361904D01*
X36042857Y-36314285D01*
X36090476Y-36314285D01*
X36185714Y-36361904D01*
X36233333Y-36409523D01*
X36280952Y-36504761D01*
X36280952Y-36695238D01*
X36328571Y-36790476D01*
X36376190Y-36838095D01*
X36471429Y-36885714D01*
X36661905Y-36885714D01*
X36757143Y-36838095D01*
X36804762Y-36790476D01*
X36852381Y-36695238D01*
X36852381Y-36504761D01*
X36804762Y-36409523D01*
X36757143Y-36361904D01*
X36661905Y-36314285D01*
X36471429Y-36314285D01*
X36376190Y-36361904D01*
X36328571Y-36409523D01*
X36280952Y-36504761D01*
X45152381Y-48842857D02*
X44676190Y-49176191D01*
X45152381Y-49414286D02*
X44152381Y-49414286D01*
X44152381Y-49033333D01*
X44200000Y-48938095D01*
X44247619Y-48890476D01*
X44342857Y-48842857D01*
X44485714Y-48842857D01*
X44580952Y-48890476D01*
X44628571Y-48938095D01*
X44676190Y-49033333D01*
X44676190Y-49414286D01*
X44247619Y-48461905D02*
X44200000Y-48414286D01*
X44152381Y-48319048D01*
X44152381Y-48080952D01*
X44200000Y-47985714D01*
X44247619Y-47938095D01*
X44342857Y-47890476D01*
X44438095Y-47890476D01*
X44580952Y-47938095D01*
X45152381Y-48509524D01*
X45152381Y-47890476D01*
X45152381Y-47414286D02*
X45152381Y-47223810D01*
X45104762Y-47128571D01*
X45057143Y-47080952D01*
X44914286Y-46985714D01*
X44723810Y-46938095D01*
X44342857Y-46938095D01*
X44247619Y-46985714D01*
X44200000Y-47033333D01*
X44152381Y-47128571D01*
X44152381Y-47319048D01*
X44200000Y-47414286D01*
X44247619Y-47461905D01*
X44342857Y-47509524D01*
X44580952Y-47509524D01*
X44676190Y-47461905D01*
X44723810Y-47414286D01*
X44771429Y-47319048D01*
X44771429Y-47128571D01*
X44723810Y-47033333D01*
X44676190Y-46985714D01*
X44580952Y-46938095D01*
X45657143Y-57652381D02*
X45323809Y-57176190D01*
X45085714Y-57652381D02*
X45085714Y-56652381D01*
X45466667Y-56652381D01*
X45561905Y-56700000D01*
X45609524Y-56747619D01*
X45657143Y-56842857D01*
X45657143Y-56985714D01*
X45609524Y-57080952D01*
X45561905Y-57128571D01*
X45466667Y-57176190D01*
X45085714Y-57176190D01*
X45990476Y-56652381D02*
X46609524Y-56652381D01*
X46276190Y-57033333D01*
X46419048Y-57033333D01*
X46514286Y-57080952D01*
X46561905Y-57128571D01*
X46609524Y-57223810D01*
X46609524Y-57461905D01*
X46561905Y-57557143D01*
X46514286Y-57604762D01*
X46419048Y-57652381D01*
X46133333Y-57652381D01*
X46038095Y-57604762D01*
X45990476Y-57557143D01*
X47228571Y-56652381D02*
X47323810Y-56652381D01*
X47419048Y-56700000D01*
X47466667Y-56747619D01*
X47514286Y-56842857D01*
X47561905Y-57033333D01*
X47561905Y-57271429D01*
X47514286Y-57461905D01*
X47466667Y-57557143D01*
X47419048Y-57604762D01*
X47323810Y-57652381D01*
X47228571Y-57652381D01*
X47133333Y-57604762D01*
X47085714Y-57557143D01*
X47038095Y-57461905D01*
X46990476Y-57271429D01*
X46990476Y-57033333D01*
X47038095Y-56842857D01*
X47085714Y-56747619D01*
X47133333Y-56700000D01*
X47228571Y-56652381D01*
X47352381Y-18742857D02*
X46876190Y-19076191D01*
X47352381Y-19314286D02*
X46352381Y-19314286D01*
X46352381Y-18933333D01*
X46400000Y-18838095D01*
X46447619Y-18790476D01*
X46542857Y-18742857D01*
X46685714Y-18742857D01*
X46780952Y-18790476D01*
X46828571Y-18838095D01*
X46876190Y-18933333D01*
X46876190Y-19314286D01*
X46352381Y-18409524D02*
X46352381Y-17790476D01*
X46733333Y-18123810D01*
X46733333Y-17980952D01*
X46780952Y-17885714D01*
X46828571Y-17838095D01*
X46923810Y-17790476D01*
X47161905Y-17790476D01*
X47257143Y-17838095D01*
X47304762Y-17885714D01*
X47352381Y-17980952D01*
X47352381Y-18266667D01*
X47304762Y-18361905D01*
X47257143Y-18409524D01*
X46352381Y-17457143D02*
X46352381Y-16838095D01*
X46733333Y-17171429D01*
X46733333Y-17028571D01*
X46780952Y-16933333D01*
X46828571Y-16885714D01*
X46923810Y-16838095D01*
X47161905Y-16838095D01*
X47257143Y-16885714D01*
X47304762Y-16933333D01*
X47352381Y-17028571D01*
X47352381Y-17314286D01*
X47304762Y-17409524D01*
X47257143Y-17457143D01*
X40052381Y-18742857D02*
X39576190Y-19076191D01*
X40052381Y-19314286D02*
X39052381Y-19314286D01*
X39052381Y-18933333D01*
X39100000Y-18838095D01*
X39147619Y-18790476D01*
X39242857Y-18742857D01*
X39385714Y-18742857D01*
X39480952Y-18790476D01*
X39528571Y-18838095D01*
X39576190Y-18933333D01*
X39576190Y-19314286D01*
X39052381Y-18409524D02*
X39052381Y-17790476D01*
X39433333Y-18123810D01*
X39433333Y-17980952D01*
X39480952Y-17885714D01*
X39528571Y-17838095D01*
X39623810Y-17790476D01*
X39861905Y-17790476D01*
X39957143Y-17838095D01*
X40004762Y-17885714D01*
X40052381Y-17980952D01*
X40052381Y-18266667D01*
X40004762Y-18361905D01*
X39957143Y-18409524D01*
X39385714Y-16933333D02*
X40052381Y-16933333D01*
X39004762Y-17171429D02*
X39719048Y-17409524D01*
X39719048Y-16790476D01*
X64707143Y-32302381D02*
X64373809Y-31826190D01*
X64135714Y-32302381D02*
X64135714Y-31302381D01*
X64516667Y-31302381D01*
X64611905Y-31350000D01*
X64659524Y-31397619D01*
X64707143Y-31492857D01*
X64707143Y-31635714D01*
X64659524Y-31730952D01*
X64611905Y-31778571D01*
X64516667Y-31826190D01*
X64135714Y-31826190D01*
X65040476Y-31302381D02*
X65659524Y-31302381D01*
X65326190Y-31683333D01*
X65469048Y-31683333D01*
X65564286Y-31730952D01*
X65611905Y-31778571D01*
X65659524Y-31873810D01*
X65659524Y-32111905D01*
X65611905Y-32207143D01*
X65564286Y-32254762D01*
X65469048Y-32302381D01*
X65183333Y-32302381D01*
X65088095Y-32254762D01*
X65040476Y-32207143D01*
X66516667Y-31302381D02*
X66326190Y-31302381D01*
X66230952Y-31350000D01*
X66183333Y-31397619D01*
X66088095Y-31540476D01*
X66040476Y-31730952D01*
X66040476Y-32111905D01*
X66088095Y-32207143D01*
X66135714Y-32254762D01*
X66230952Y-32302381D01*
X66421429Y-32302381D01*
X66516667Y-32254762D01*
X66564286Y-32207143D01*
X66611905Y-32111905D01*
X66611905Y-31873810D01*
X66564286Y-31778571D01*
X66516667Y-31730952D01*
X66421429Y-31683333D01*
X66230952Y-31683333D01*
X66135714Y-31730952D01*
X66088095Y-31778571D01*
X66040476Y-31873810D01*
X50757143Y-28952381D02*
X50423809Y-28476190D01*
X50185714Y-28952381D02*
X50185714Y-27952381D01*
X50566667Y-27952381D01*
X50661905Y-28000000D01*
X50709524Y-28047619D01*
X50757143Y-28142857D01*
X50757143Y-28285714D01*
X50709524Y-28380952D01*
X50661905Y-28428571D01*
X50566667Y-28476190D01*
X50185714Y-28476190D01*
X51614286Y-28285714D02*
X51614286Y-28952381D01*
X51376190Y-27904762D02*
X51138095Y-28619048D01*
X51757143Y-28619048D01*
X52661905Y-28952381D02*
X52090476Y-28952381D01*
X52376190Y-28952381D02*
X52376190Y-27952381D01*
X52280952Y-28095238D01*
X52185714Y-28190476D01*
X52090476Y-28238095D01*
X50757143Y-26752381D02*
X50423809Y-26276190D01*
X50185714Y-26752381D02*
X50185714Y-25752381D01*
X50566667Y-25752381D01*
X50661905Y-25800000D01*
X50709524Y-25847619D01*
X50757143Y-25942857D01*
X50757143Y-26085714D01*
X50709524Y-26180952D01*
X50661905Y-26228571D01*
X50566667Y-26276190D01*
X50185714Y-26276190D01*
X51614286Y-26085714D02*
X51614286Y-26752381D01*
X51376190Y-25704762D02*
X51138095Y-26419048D01*
X51757143Y-26419048D01*
X52042857Y-25752381D02*
X52709524Y-25752381D01*
X52280952Y-26752381D01*
X9357143Y-89357143D02*
X9309524Y-89404762D01*
X9166667Y-89452381D01*
X9071429Y-89452381D01*
X8928571Y-89404762D01*
X8833333Y-89309524D01*
X8785714Y-89214286D01*
X8738095Y-89023810D01*
X8738095Y-88880952D01*
X8785714Y-88690476D01*
X8833333Y-88595238D01*
X8928571Y-88500000D01*
X9071429Y-88452381D01*
X9166667Y-88452381D01*
X9309524Y-88500000D01*
X9357143Y-88547619D01*
X9690476Y-88452381D02*
X10309524Y-88452381D01*
X9976190Y-88833333D01*
X10119048Y-88833333D01*
X10214286Y-88880952D01*
X10261905Y-88928571D01*
X10309524Y-89023810D01*
X10309524Y-89261905D01*
X10261905Y-89357143D01*
X10214286Y-89404762D01*
X10119048Y-89452381D01*
X9833333Y-89452381D01*
X9738095Y-89404762D01*
X9690476Y-89357143D01*
X11214286Y-88452381D02*
X10738095Y-88452381D01*
X10690476Y-88928571D01*
X10738095Y-88880952D01*
X10833333Y-88833333D01*
X11071429Y-88833333D01*
X11166667Y-88880952D01*
X11214286Y-88928571D01*
X11261905Y-89023810D01*
X11261905Y-89261905D01*
X11214286Y-89357143D01*
X11166667Y-89404762D01*
X11071429Y-89452381D01*
X10833333Y-89452381D01*
X10738095Y-89404762D01*
X10690476Y-89357143D01*
X17057143Y-78642857D02*
X17104762Y-78690476D01*
X17152381Y-78833333D01*
X17152381Y-78928571D01*
X17104762Y-79071429D01*
X17009524Y-79166667D01*
X16914286Y-79214286D01*
X16723810Y-79261905D01*
X16580952Y-79261905D01*
X16390476Y-79214286D01*
X16295238Y-79166667D01*
X16200000Y-79071429D01*
X16152381Y-78928571D01*
X16152381Y-78833333D01*
X16200000Y-78690476D01*
X16247619Y-78642857D01*
X16152381Y-78309524D02*
X16152381Y-77690476D01*
X16533333Y-78023810D01*
X16533333Y-77880952D01*
X16580952Y-77785714D01*
X16628571Y-77738095D01*
X16723810Y-77690476D01*
X16961905Y-77690476D01*
X17057143Y-77738095D01*
X17104762Y-77785714D01*
X17152381Y-77880952D01*
X17152381Y-78166667D01*
X17104762Y-78261905D01*
X17057143Y-78309524D01*
X16152381Y-76833333D02*
X16152381Y-77023810D01*
X16200000Y-77119048D01*
X16247619Y-77166667D01*
X16390476Y-77261905D01*
X16580952Y-77309524D01*
X16961905Y-77309524D01*
X17057143Y-77261905D01*
X17104762Y-77214286D01*
X17152381Y-77119048D01*
X17152381Y-76928571D01*
X17104762Y-76833333D01*
X17057143Y-76785714D01*
X16961905Y-76738095D01*
X16723810Y-76738095D01*
X16628571Y-76785714D01*
X16580952Y-76833333D01*
X16533333Y-76928571D01*
X16533333Y-77119048D01*
X16580952Y-77214286D01*
X16628571Y-77261905D01*
X16723810Y-77309524D01*
X74157143Y-95392857D02*
X74204762Y-95440476D01*
X74252381Y-95583333D01*
X74252381Y-95678571D01*
X74204762Y-95821429D01*
X74109524Y-95916667D01*
X74014286Y-95964286D01*
X73823810Y-96011905D01*
X73680952Y-96011905D01*
X73490476Y-95964286D01*
X73395238Y-95916667D01*
X73300000Y-95821429D01*
X73252381Y-95678571D01*
X73252381Y-95583333D01*
X73300000Y-95440476D01*
X73347619Y-95392857D01*
X73585714Y-94535714D02*
X74252381Y-94535714D01*
X73204762Y-94773810D02*
X73919048Y-95011905D01*
X73919048Y-94392857D01*
X73252381Y-93535714D02*
X73252381Y-94011905D01*
X73728571Y-94059524D01*
X73680952Y-94011905D01*
X73633333Y-93916667D01*
X73633333Y-93678571D01*
X73680952Y-93583333D01*
X73728571Y-93535714D01*
X73823810Y-93488095D01*
X74061905Y-93488095D01*
X74157143Y-93535714D01*
X74204762Y-93583333D01*
X74252381Y-93678571D01*
X74252381Y-93916667D01*
X74204762Y-94011905D01*
X74157143Y-94059524D01*
X76857143Y-90057143D02*
X76809524Y-90104762D01*
X76666667Y-90152381D01*
X76571429Y-90152381D01*
X76428571Y-90104762D01*
X76333333Y-90009524D01*
X76285714Y-89914286D01*
X76238095Y-89723810D01*
X76238095Y-89580952D01*
X76285714Y-89390476D01*
X76333333Y-89295238D01*
X76428571Y-89200000D01*
X76571429Y-89152381D01*
X76666667Y-89152381D01*
X76809524Y-89200000D01*
X76857143Y-89247619D01*
X77714286Y-89485714D02*
X77714286Y-90152381D01*
X77476190Y-89104762D02*
X77238095Y-89819048D01*
X77857143Y-89819048D01*
X78666667Y-89152381D02*
X78476190Y-89152381D01*
X78380952Y-89200000D01*
X78333333Y-89247619D01*
X78238095Y-89390476D01*
X78190476Y-89580952D01*
X78190476Y-89961905D01*
X78238095Y-90057143D01*
X78285714Y-90104762D01*
X78380952Y-90152381D01*
X78571429Y-90152381D01*
X78666667Y-90104762D01*
X78714286Y-90057143D01*
X78761905Y-89961905D01*
X78761905Y-89723810D01*
X78714286Y-89628571D01*
X78666667Y-89580952D01*
X78571429Y-89533333D01*
X78380952Y-89533333D01*
X78285714Y-89580952D01*
X78238095Y-89628571D01*
X78190476Y-89723810D01*
X76857143Y-85457143D02*
X76809524Y-85504762D01*
X76666667Y-85552381D01*
X76571429Y-85552381D01*
X76428571Y-85504762D01*
X76333333Y-85409524D01*
X76285714Y-85314286D01*
X76238095Y-85123810D01*
X76238095Y-84980952D01*
X76285714Y-84790476D01*
X76333333Y-84695238D01*
X76428571Y-84600000D01*
X76571429Y-84552381D01*
X76666667Y-84552381D01*
X76809524Y-84600000D01*
X76857143Y-84647619D01*
X77761905Y-84552381D02*
X77285714Y-84552381D01*
X77238095Y-85028571D01*
X77285714Y-84980952D01*
X77380952Y-84933333D01*
X77619048Y-84933333D01*
X77714286Y-84980952D01*
X77761905Y-85028571D01*
X77809524Y-85123810D01*
X77809524Y-85361905D01*
X77761905Y-85457143D01*
X77714286Y-85504762D01*
X77619048Y-85552381D01*
X77380952Y-85552381D01*
X77285714Y-85504762D01*
X77238095Y-85457143D01*
X78761905Y-85552381D02*
X78190476Y-85552381D01*
X78476190Y-85552381D02*
X78476190Y-84552381D01*
X78380952Y-84695238D01*
X78285714Y-84790476D01*
X78190476Y-84838095D01*
X76857143Y-87757143D02*
X76809524Y-87804762D01*
X76666667Y-87852381D01*
X76571429Y-87852381D01*
X76428571Y-87804762D01*
X76333333Y-87709524D01*
X76285714Y-87614286D01*
X76238095Y-87423810D01*
X76238095Y-87280952D01*
X76285714Y-87090476D01*
X76333333Y-86995238D01*
X76428571Y-86900000D01*
X76571429Y-86852381D01*
X76666667Y-86852381D01*
X76809524Y-86900000D01*
X76857143Y-86947619D01*
X77761905Y-86852381D02*
X77285714Y-86852381D01*
X77238095Y-87328571D01*
X77285714Y-87280952D01*
X77380952Y-87233333D01*
X77619048Y-87233333D01*
X77714286Y-87280952D01*
X77761905Y-87328571D01*
X77809524Y-87423810D01*
X77809524Y-87661905D01*
X77761905Y-87757143D01*
X77714286Y-87804762D01*
X77619048Y-87852381D01*
X77380952Y-87852381D01*
X77285714Y-87804762D01*
X77238095Y-87757143D01*
X78190476Y-86947619D02*
X78238095Y-86900000D01*
X78333333Y-86852381D01*
X78571429Y-86852381D01*
X78666667Y-86900000D01*
X78714286Y-86947619D01*
X78761905Y-87042857D01*
X78761905Y-87138095D01*
X78714286Y-87280952D01*
X78142857Y-87852381D01*
X78761905Y-87852381D01*
X52357143Y-71052381D02*
X52023809Y-70576190D01*
X51785714Y-71052381D02*
X51785714Y-70052381D01*
X52166667Y-70052381D01*
X52261905Y-70100000D01*
X52309524Y-70147619D01*
X52357143Y-70242857D01*
X52357143Y-70385714D01*
X52309524Y-70480952D01*
X52261905Y-70528571D01*
X52166667Y-70576190D01*
X51785714Y-70576190D01*
X52785714Y-71052381D02*
X52785714Y-70052381D01*
X53119048Y-70766667D01*
X53452381Y-70052381D01*
X53452381Y-71052381D01*
X53880952Y-70766667D02*
X54357143Y-70766667D01*
X53785714Y-71052381D02*
X54119047Y-70052381D01*
X54452381Y-71052381D01*
X54690476Y-70052381D02*
X55357143Y-71052381D01*
X55357143Y-70052381D02*
X54690476Y-71052381D01*
X55690476Y-70147619D02*
X55738095Y-70100000D01*
X55833333Y-70052381D01*
X56071429Y-70052381D01*
X56166667Y-70100000D01*
X56214286Y-70147619D01*
X56261905Y-70242857D01*
X56261905Y-70338095D01*
X56214286Y-70480952D01*
X55642857Y-71052381D01*
X56261905Y-71052381D01*
X62052381Y-82571428D02*
X61576190Y-82904762D01*
X62052381Y-83142857D02*
X61052381Y-83142857D01*
X61052381Y-82761904D01*
X61100000Y-82666666D01*
X61147619Y-82619047D01*
X61242857Y-82571428D01*
X61385714Y-82571428D01*
X61480952Y-82619047D01*
X61528571Y-82666666D01*
X61576190Y-82761904D01*
X61576190Y-83142857D01*
X61957143Y-81571428D02*
X62004762Y-81619047D01*
X62052381Y-81761904D01*
X62052381Y-81857142D01*
X62004762Y-82000000D01*
X61909524Y-82095238D01*
X61814286Y-82142857D01*
X61623810Y-82190476D01*
X61480952Y-82190476D01*
X61290476Y-82142857D01*
X61195238Y-82095238D01*
X61100000Y-82000000D01*
X61052381Y-81857142D01*
X61052381Y-81761904D01*
X61100000Y-81619047D01*
X61147619Y-81571428D01*
X62052381Y-81142857D02*
X61052381Y-81142857D01*
X61528571Y-81142857D02*
X61528571Y-80571428D01*
X62052381Y-80571428D02*
X61052381Y-80571428D01*
X62004762Y-80142857D02*
X62052381Y-80000000D01*
X62052381Y-79761904D01*
X62004762Y-79666666D01*
X61957143Y-79619047D01*
X61861905Y-79571428D01*
X61766667Y-79571428D01*
X61671429Y-79619047D01*
X61623810Y-79666666D01*
X61576190Y-79761904D01*
X61528571Y-79952381D01*
X61480952Y-80047619D01*
X61433333Y-80095238D01*
X61338095Y-80142857D01*
X61242857Y-80142857D01*
X61147619Y-80095238D01*
X61100000Y-80047619D01*
X61052381Y-79952381D01*
X61052381Y-79714285D01*
X61100000Y-79571428D01*
X61528571Y-79142857D02*
X61528571Y-78809523D01*
X62052381Y-78666666D02*
X62052381Y-79142857D01*
X61052381Y-79142857D01*
X61052381Y-78666666D01*
X62052381Y-78238095D02*
X61052381Y-78238095D01*
X62052381Y-77666666D01*
X61052381Y-77666666D01*
X62004762Y-77238095D02*
X62052381Y-77095238D01*
X62052381Y-76857142D01*
X62004762Y-76761904D01*
X61957143Y-76714285D01*
X61861905Y-76666666D01*
X61766667Y-76666666D01*
X61671429Y-76714285D01*
X61623810Y-76761904D01*
X61576190Y-76857142D01*
X61528571Y-77047619D01*
X61480952Y-77142857D01*
X61433333Y-77190476D01*
X61338095Y-77238095D01*
X61242857Y-77238095D01*
X61147619Y-77190476D01*
X61100000Y-77142857D01*
X61052381Y-77047619D01*
X61052381Y-76809523D01*
X61100000Y-76666666D01*
X61528571Y-76238095D02*
X61528571Y-75904761D01*
X62052381Y-75761904D02*
X62052381Y-76238095D01*
X61052381Y-76238095D01*
X61052381Y-75761904D01*
X62052381Y-74809523D02*
X62052381Y-75380952D01*
X62052381Y-75095238D02*
X61052381Y-75095238D01*
X61195238Y-75190476D01*
X61290476Y-75285714D01*
X61338095Y-75380952D01*
X64052381Y-82571428D02*
X63576190Y-82904762D01*
X64052381Y-83142857D02*
X63052381Y-83142857D01*
X63052381Y-82761904D01*
X63100000Y-82666666D01*
X63147619Y-82619047D01*
X63242857Y-82571428D01*
X63385714Y-82571428D01*
X63480952Y-82619047D01*
X63528571Y-82666666D01*
X63576190Y-82761904D01*
X63576190Y-83142857D01*
X63957143Y-81571428D02*
X64004762Y-81619047D01*
X64052381Y-81761904D01*
X64052381Y-81857142D01*
X64004762Y-82000000D01*
X63909524Y-82095238D01*
X63814286Y-82142857D01*
X63623810Y-82190476D01*
X63480952Y-82190476D01*
X63290476Y-82142857D01*
X63195238Y-82095238D01*
X63100000Y-82000000D01*
X63052381Y-81857142D01*
X63052381Y-81761904D01*
X63100000Y-81619047D01*
X63147619Y-81571428D01*
X64052381Y-81142857D02*
X63052381Y-81142857D01*
X63528571Y-81142857D02*
X63528571Y-80571428D01*
X64052381Y-80571428D02*
X63052381Y-80571428D01*
X64004762Y-80142857D02*
X64052381Y-80000000D01*
X64052381Y-79761904D01*
X64004762Y-79666666D01*
X63957143Y-79619047D01*
X63861905Y-79571428D01*
X63766667Y-79571428D01*
X63671429Y-79619047D01*
X63623810Y-79666666D01*
X63576190Y-79761904D01*
X63528571Y-79952381D01*
X63480952Y-80047619D01*
X63433333Y-80095238D01*
X63338095Y-80142857D01*
X63242857Y-80142857D01*
X63147619Y-80095238D01*
X63100000Y-80047619D01*
X63052381Y-79952381D01*
X63052381Y-79714285D01*
X63100000Y-79571428D01*
X63528571Y-79142857D02*
X63528571Y-78809523D01*
X64052381Y-78666666D02*
X64052381Y-79142857D01*
X63052381Y-79142857D01*
X63052381Y-78666666D01*
X64052381Y-78238095D02*
X63052381Y-78238095D01*
X64052381Y-77666666D01*
X63052381Y-77666666D01*
X64004762Y-77238095D02*
X64052381Y-77095238D01*
X64052381Y-76857142D01*
X64004762Y-76761904D01*
X63957143Y-76714285D01*
X63861905Y-76666666D01*
X63766667Y-76666666D01*
X63671429Y-76714285D01*
X63623810Y-76761904D01*
X63576190Y-76857142D01*
X63528571Y-77047619D01*
X63480952Y-77142857D01*
X63433333Y-77190476D01*
X63338095Y-77238095D01*
X63242857Y-77238095D01*
X63147619Y-77190476D01*
X63100000Y-77142857D01*
X63052381Y-77047619D01*
X63052381Y-76809523D01*
X63100000Y-76666666D01*
X63528571Y-76238095D02*
X63528571Y-75904761D01*
X64052381Y-75761904D02*
X64052381Y-76238095D01*
X63052381Y-76238095D01*
X63052381Y-75761904D01*
X63147619Y-75380952D02*
X63100000Y-75333333D01*
X63052381Y-75238095D01*
X63052381Y-74999999D01*
X63100000Y-74904761D01*
X63147619Y-74857142D01*
X63242857Y-74809523D01*
X63338095Y-74809523D01*
X63480952Y-74857142D01*
X64052381Y-75428571D01*
X64052381Y-74809523D01*
X75747619Y-38771428D02*
X75700000Y-38866666D01*
X75604762Y-38961904D01*
X75461905Y-39104761D01*
X75414286Y-39200000D01*
X75414286Y-39295238D01*
X75652381Y-39247619D02*
X75604762Y-39342857D01*
X75509524Y-39438095D01*
X75319048Y-39485714D01*
X74985714Y-39485714D01*
X74795238Y-39438095D01*
X74700000Y-39342857D01*
X74652381Y-39247619D01*
X74652381Y-39057142D01*
X74700000Y-38961904D01*
X74795238Y-38866666D01*
X74985714Y-38819047D01*
X75319048Y-38819047D01*
X75509524Y-38866666D01*
X75604762Y-38961904D01*
X75652381Y-39057142D01*
X75652381Y-39247619D01*
X75652381Y-37866666D02*
X75652381Y-38438095D01*
X75652381Y-38152381D02*
X74652381Y-38152381D01*
X74795238Y-38247619D01*
X74890476Y-38342857D01*
X74938095Y-38438095D01*
X75652381Y-36914285D02*
X75652381Y-37485714D01*
X75652381Y-37200000D02*
X74652381Y-37200000D01*
X74795238Y-37295238D01*
X74890476Y-37390476D01*
X74938095Y-37485714D01*
X80915619Y-23444428D02*
X80868000Y-23539666D01*
X80772762Y-23634904D01*
X80629905Y-23777761D01*
X80582286Y-23873000D01*
X80582286Y-23968238D01*
X80820381Y-23920619D02*
X80772762Y-24015857D01*
X80677524Y-24111095D01*
X80487048Y-24158714D01*
X80153714Y-24158714D01*
X79963238Y-24111095D01*
X79868000Y-24015857D01*
X79820381Y-23920619D01*
X79820381Y-23730142D01*
X79868000Y-23634904D01*
X79963238Y-23539666D01*
X80153714Y-23492047D01*
X80487048Y-23492047D01*
X80677524Y-23539666D01*
X80772762Y-23634904D01*
X80820381Y-23730142D01*
X80820381Y-23920619D01*
X80820381Y-22539666D02*
X80820381Y-23111095D01*
X80820381Y-22825381D02*
X79820381Y-22825381D01*
X79963238Y-22920619D01*
X80058476Y-23015857D01*
X80106095Y-23111095D01*
X79915619Y-22158714D02*
X79868000Y-22111095D01*
X79820381Y-22015857D01*
X79820381Y-21777761D01*
X79868000Y-21682523D01*
X79915619Y-21634904D01*
X80010857Y-21587285D01*
X80106095Y-21587285D01*
X80248952Y-21634904D01*
X80820381Y-22206333D01*
X80820381Y-21587285D01*
X1133619Y-77095238D02*
X1086000Y-77190476D01*
X990762Y-77285714D01*
X847905Y-77428571D01*
X800286Y-77523810D01*
X800286Y-77619048D01*
X1038381Y-77571429D02*
X990762Y-77666667D01*
X895524Y-77761905D01*
X705048Y-77809524D01*
X371714Y-77809524D01*
X181238Y-77761905D01*
X86000Y-77666667D01*
X38381Y-77571429D01*
X38381Y-77380952D01*
X86000Y-77285714D01*
X181238Y-77190476D01*
X371714Y-77142857D01*
X705048Y-77142857D01*
X895524Y-77190476D01*
X990762Y-77285714D01*
X1038381Y-77380952D01*
X1038381Y-77571429D01*
X1038381Y-76190476D02*
X1038381Y-76761905D01*
X1038381Y-76476191D02*
X38381Y-76476191D01*
X181238Y-76571429D01*
X276476Y-76666667D01*
X324095Y-76761905D01*
X64368625Y-50443373D02*
X63368625Y-50443373D01*
X63368625Y-50205278D01*
X63416244Y-50062420D01*
X63511482Y-49967182D01*
X63606720Y-49919563D01*
X63797196Y-49871944D01*
X63940054Y-49871944D01*
X64130530Y-49919563D01*
X64225768Y-49967182D01*
X64321006Y-50062420D01*
X64368625Y-50205278D01*
X64368625Y-50443373D01*
X63368625Y-49538611D02*
X63368625Y-48871944D01*
X64368625Y-49300516D01*
X57608625Y-47067183D02*
X56608625Y-47067183D01*
X57608625Y-46495754D02*
X57037196Y-46924326D01*
X56608625Y-46495754D02*
X57180054Y-47067183D01*
X57372911Y-52843373D02*
X57372911Y-52367182D01*
X57658625Y-52938611D02*
X56658625Y-52605278D01*
X57658625Y-52271944D01*
X58833334Y-52852381D02*
X58500000Y-52376190D01*
X58261905Y-52852381D02*
X58261905Y-51852381D01*
X58642858Y-51852381D01*
X58738096Y-51900000D01*
X58785715Y-51947619D01*
X58833334Y-52042857D01*
X58833334Y-52185714D01*
X58785715Y-52280952D01*
X58738096Y-52328571D01*
X58642858Y-52376190D01*
X58261905Y-52376190D01*
X59166667Y-51852381D02*
X59785715Y-51852381D01*
X59452381Y-52233333D01*
X59595239Y-52233333D01*
X59690477Y-52280952D01*
X59738096Y-52328571D01*
X59785715Y-52423810D01*
X59785715Y-52661905D01*
X59738096Y-52757143D01*
X59690477Y-52804762D01*
X59595239Y-52852381D01*
X59309524Y-52852381D01*
X59214286Y-52804762D01*
X59166667Y-52757143D01*
X20061905Y-37112381D02*
X20061905Y-36112381D01*
X20300000Y-36112381D01*
X20442858Y-36160000D01*
X20538096Y-36255238D01*
X20585715Y-36350476D01*
X20633334Y-36540952D01*
X20633334Y-36683810D01*
X20585715Y-36874286D01*
X20538096Y-36969524D01*
X20442858Y-37064762D01*
X20300000Y-37112381D01*
X20061905Y-37112381D01*
X21204762Y-36540952D02*
X21109524Y-36493333D01*
X21061905Y-36445714D01*
X21014286Y-36350476D01*
X21014286Y-36302857D01*
X21061905Y-36207619D01*
X21109524Y-36160000D01*
X21204762Y-36112381D01*
X21395239Y-36112381D01*
X21490477Y-36160000D01*
X21538096Y-36207619D01*
X21585715Y-36302857D01*
X21585715Y-36350476D01*
X21538096Y-36445714D01*
X21490477Y-36493333D01*
X21395239Y-36540952D01*
X21204762Y-36540952D01*
X21109524Y-36588571D01*
X21061905Y-36636190D01*
X21014286Y-36731429D01*
X21014286Y-36921905D01*
X21061905Y-37017143D01*
X21109524Y-37064762D01*
X21204762Y-37112381D01*
X21395239Y-37112381D01*
X21490477Y-37064762D01*
X21538096Y-37017143D01*
X21585715Y-36921905D01*
X21585715Y-36731429D01*
X21538096Y-36636190D01*
X21490477Y-36588571D01*
X21395239Y-36540952D01*
X23438095Y-30352381D02*
X23438095Y-29352381D01*
X24009524Y-30352381D02*
X23580952Y-29780952D01*
X24009524Y-29352381D02*
X23438095Y-29923810D01*
X17661905Y-30116667D02*
X18138096Y-30116667D01*
X17566667Y-30402381D02*
X17900000Y-29402381D01*
X18233334Y-30402381D01*
X20302381Y-28142857D02*
X19826190Y-28476191D01*
X20302381Y-28714286D02*
X19302381Y-28714286D01*
X19302381Y-28333333D01*
X19350000Y-28238095D01*
X19397619Y-28190476D01*
X19492857Y-28142857D01*
X19635714Y-28142857D01*
X19730952Y-28190476D01*
X19778571Y-28238095D01*
X19826190Y-28333333D01*
X19826190Y-28714286D01*
X20302381Y-27190476D02*
X20302381Y-27761905D01*
X20302381Y-27476191D02*
X19302381Y-27476191D01*
X19445238Y-27571429D01*
X19540476Y-27666667D01*
X19588095Y-27761905D01*
X20302381Y-26714286D02*
X20302381Y-26523810D01*
X20254762Y-26428571D01*
X20207143Y-26380952D01*
X20064286Y-26285714D01*
X19873810Y-26238095D01*
X19492857Y-26238095D01*
X19397619Y-26285714D01*
X19350000Y-26333333D01*
X19302381Y-26428571D01*
X19302381Y-26619048D01*
X19350000Y-26714286D01*
X19397619Y-26761905D01*
X19492857Y-26809524D01*
X19730952Y-26809524D01*
X19826190Y-26761905D01*
X19873810Y-26714286D01*
X19921429Y-26619048D01*
X19921429Y-26428571D01*
X19873810Y-26333333D01*
X19826190Y-26285714D01*
X19730952Y-26238095D01*
X25357143Y-32842857D02*
X25404762Y-32890476D01*
X25452381Y-33033333D01*
X25452381Y-33128571D01*
X25404762Y-33271429D01*
X25309524Y-33366667D01*
X25214286Y-33414286D01*
X25023810Y-33461905D01*
X24880952Y-33461905D01*
X24690476Y-33414286D01*
X24595238Y-33366667D01*
X24500000Y-33271429D01*
X24452381Y-33128571D01*
X24452381Y-33033333D01*
X24500000Y-32890476D01*
X24547619Y-32842857D01*
X25452381Y-31890476D02*
X25452381Y-32461905D01*
X25452381Y-32176191D02*
X24452381Y-32176191D01*
X24595238Y-32271429D01*
X24690476Y-32366667D01*
X24738095Y-32461905D01*
X24452381Y-31557143D02*
X24452381Y-30890476D01*
X25452381Y-31319048D01*
X9857143Y-91457143D02*
X9809524Y-91504762D01*
X9666667Y-91552381D01*
X9571429Y-91552381D01*
X9428571Y-91504762D01*
X9333333Y-91409524D01*
X9285714Y-91314286D01*
X9238095Y-91123810D01*
X9238095Y-90980952D01*
X9285714Y-90790476D01*
X9333333Y-90695238D01*
X9428571Y-90600000D01*
X9571429Y-90552381D01*
X9666667Y-90552381D01*
X9809524Y-90600000D01*
X9857143Y-90647619D01*
X10190476Y-90552381D02*
X10809524Y-90552381D01*
X10476190Y-90933333D01*
X10619048Y-90933333D01*
X10714286Y-90980952D01*
X10761905Y-91028571D01*
X10809524Y-91123810D01*
X10809524Y-91361905D01*
X10761905Y-91457143D01*
X10714286Y-91504762D01*
X10619048Y-91552381D01*
X10333333Y-91552381D01*
X10238095Y-91504762D01*
X10190476Y-91457143D01*
X11142857Y-90552381D02*
X11809524Y-90552381D01*
X11380952Y-91552381D01*
X42857143Y-75242857D02*
X42904762Y-75290476D01*
X42952381Y-75433333D01*
X42952381Y-75528571D01*
X42904762Y-75671429D01*
X42809524Y-75766667D01*
X42714286Y-75814286D01*
X42523810Y-75861905D01*
X42380952Y-75861905D01*
X42190476Y-75814286D01*
X42095238Y-75766667D01*
X42000000Y-75671429D01*
X41952381Y-75528571D01*
X41952381Y-75433333D01*
X42000000Y-75290476D01*
X42047619Y-75242857D01*
X41952381Y-74909524D02*
X41952381Y-74290476D01*
X42333333Y-74623810D01*
X42333333Y-74480952D01*
X42380952Y-74385714D01*
X42428571Y-74338095D01*
X42523810Y-74290476D01*
X42761905Y-74290476D01*
X42857143Y-74338095D01*
X42904762Y-74385714D01*
X42952381Y-74480952D01*
X42952381Y-74766667D01*
X42904762Y-74861905D01*
X42857143Y-74909524D01*
X42380952Y-73719048D02*
X42333333Y-73814286D01*
X42285714Y-73861905D01*
X42190476Y-73909524D01*
X42142857Y-73909524D01*
X42047619Y-73861905D01*
X42000000Y-73814286D01*
X41952381Y-73719048D01*
X41952381Y-73528571D01*
X42000000Y-73433333D01*
X42047619Y-73385714D01*
X42142857Y-73338095D01*
X42190476Y-73338095D01*
X42285714Y-73385714D01*
X42333333Y-73433333D01*
X42380952Y-73528571D01*
X42380952Y-73719048D01*
X42428571Y-73814286D01*
X42476190Y-73861905D01*
X42571429Y-73909524D01*
X42761905Y-73909524D01*
X42857143Y-73861905D01*
X42904762Y-73814286D01*
X42952381Y-73719048D01*
X42952381Y-73528571D01*
X42904762Y-73433333D01*
X42857143Y-73385714D01*
X42761905Y-73338095D01*
X42571429Y-73338095D01*
X42476190Y-73385714D01*
X42428571Y-73433333D01*
X42380952Y-73528571D01*
X23711905Y-25452381D02*
X23711905Y-24452381D01*
X23950000Y-24452381D01*
X24092858Y-24500000D01*
X24188096Y-24595238D01*
X24235715Y-24690476D01*
X24283334Y-24880952D01*
X24283334Y-25023810D01*
X24235715Y-25214286D01*
X24188096Y-25309524D01*
X24092858Y-25404762D01*
X23950000Y-25452381D01*
X23711905Y-25452381D01*
X25188096Y-24452381D02*
X24711905Y-24452381D01*
X24664286Y-24928571D01*
X24711905Y-24880952D01*
X24807143Y-24833333D01*
X25045239Y-24833333D01*
X25140477Y-24880952D01*
X25188096Y-24928571D01*
X25235715Y-25023810D01*
X25235715Y-25261905D01*
X25188096Y-25357143D01*
X25140477Y-25404762D01*
X25045239Y-25452381D01*
X24807143Y-25452381D01*
X24711905Y-25404762D01*
X24664286Y-25357143D01*
X20888095Y-31852381D02*
X20888095Y-30852381D01*
X21459524Y-31852381D02*
X21030952Y-31280952D01*
X21459524Y-30852381D02*
X20888095Y-31423810D01*
X27161905Y-31466667D02*
X27638096Y-31466667D01*
X27066667Y-31752381D02*
X27400000Y-30752381D01*
X27733334Y-31752381D01*
X23861905Y-21102381D02*
X23861905Y-20102381D01*
X24100000Y-20102381D01*
X24242858Y-20150000D01*
X24338096Y-20245238D01*
X24385715Y-20340476D01*
X24433334Y-20530952D01*
X24433334Y-20673810D01*
X24385715Y-20864286D01*
X24338096Y-20959524D01*
X24242858Y-21054762D01*
X24100000Y-21102381D01*
X23861905Y-21102381D01*
X25290477Y-20102381D02*
X25100000Y-20102381D01*
X25004762Y-20150000D01*
X24957143Y-20197619D01*
X24861905Y-20340476D01*
X24814286Y-20530952D01*
X24814286Y-20911905D01*
X24861905Y-21007143D01*
X24909524Y-21054762D01*
X25004762Y-21102381D01*
X25195239Y-21102381D01*
X25290477Y-21054762D01*
X25338096Y-21007143D01*
X25385715Y-20911905D01*
X25385715Y-20673810D01*
X25338096Y-20578571D01*
X25290477Y-20530952D01*
X25195239Y-20483333D01*
X25004762Y-20483333D01*
X24909524Y-20530952D01*
X24861905Y-20578571D01*
X24814286Y-20673810D01*
X21038095Y-27502381D02*
X21038095Y-26502381D01*
X21609524Y-27502381D02*
X21180952Y-26930952D01*
X21609524Y-26502381D02*
X21038095Y-27073810D01*
X27311905Y-27116667D02*
X27788096Y-27116667D01*
X27216667Y-27402381D02*
X27550000Y-26402381D01*
X27883334Y-27402381D01*
X13333334Y-70257143D02*
X13285715Y-70304762D01*
X13142858Y-70352381D01*
X13047620Y-70352381D01*
X12904762Y-70304762D01*
X12809524Y-70209524D01*
X12761905Y-70114286D01*
X12714286Y-69923810D01*
X12714286Y-69780952D01*
X12761905Y-69590476D01*
X12809524Y-69495238D01*
X12904762Y-69400000D01*
X13047620Y-69352381D01*
X13142858Y-69352381D01*
X13285715Y-69400000D01*
X13333334Y-69447619D01*
X13666667Y-69352381D02*
X14285715Y-69352381D01*
X13952381Y-69733333D01*
X14095239Y-69733333D01*
X14190477Y-69780952D01*
X14238096Y-69828571D01*
X14285715Y-69923810D01*
X14285715Y-70161905D01*
X14238096Y-70257143D01*
X14190477Y-70304762D01*
X14095239Y-70352381D01*
X13809524Y-70352381D01*
X13714286Y-70304762D01*
X13666667Y-70257143D01*
X15957143Y-90642857D02*
X16004762Y-90690476D01*
X16052381Y-90833333D01*
X16052381Y-90928571D01*
X16004762Y-91071429D01*
X15909524Y-91166667D01*
X15814286Y-91214286D01*
X15623810Y-91261905D01*
X15480952Y-91261905D01*
X15290476Y-91214286D01*
X15195238Y-91166667D01*
X15100000Y-91071429D01*
X15052381Y-90928571D01*
X15052381Y-90833333D01*
X15100000Y-90690476D01*
X15147619Y-90642857D01*
X15385714Y-89785714D02*
X16052381Y-89785714D01*
X15004762Y-90023810D02*
X15719048Y-90261905D01*
X15719048Y-89642857D01*
X15385714Y-88833333D02*
X16052381Y-88833333D01*
X15004762Y-89071429D02*
X15719048Y-89309524D01*
X15719048Y-88690476D01*
X76357143Y-94842857D02*
X76404762Y-94890476D01*
X76452381Y-95033333D01*
X76452381Y-95128571D01*
X76404762Y-95271429D01*
X76309524Y-95366667D01*
X76214286Y-95414286D01*
X76023810Y-95461905D01*
X75880952Y-95461905D01*
X75690476Y-95414286D01*
X75595238Y-95366667D01*
X75500000Y-95271429D01*
X75452381Y-95128571D01*
X75452381Y-95033333D01*
X75500000Y-94890476D01*
X75547619Y-94842857D01*
X75452381Y-93938095D02*
X75452381Y-94414286D01*
X75928571Y-94461905D01*
X75880952Y-94414286D01*
X75833333Y-94319048D01*
X75833333Y-94080952D01*
X75880952Y-93985714D01*
X75928571Y-93938095D01*
X76023810Y-93890476D01*
X76261905Y-93890476D01*
X76357143Y-93938095D01*
X76404762Y-93985714D01*
X76452381Y-94080952D01*
X76452381Y-94319048D01*
X76404762Y-94414286D01*
X76357143Y-94461905D01*
X75452381Y-93557143D02*
X75452381Y-92938095D01*
X75833333Y-93271429D01*
X75833333Y-93128571D01*
X75880952Y-93033333D01*
X75928571Y-92985714D01*
X76023810Y-92938095D01*
X76261905Y-92938095D01*
X76357143Y-92985714D01*
X76404762Y-93033333D01*
X76452381Y-93128571D01*
X76452381Y-93414286D01*
X76404762Y-93509524D01*
X76357143Y-93557143D01*
X71557143Y-94842857D02*
X71604762Y-94890476D01*
X71652381Y-95033333D01*
X71652381Y-95128571D01*
X71604762Y-95271429D01*
X71509524Y-95366667D01*
X71414286Y-95414286D01*
X71223810Y-95461905D01*
X71080952Y-95461905D01*
X70890476Y-95414286D01*
X70795238Y-95366667D01*
X70700000Y-95271429D01*
X70652381Y-95128571D01*
X70652381Y-95033333D01*
X70700000Y-94890476D01*
X70747619Y-94842857D01*
X70652381Y-93938095D02*
X70652381Y-94414286D01*
X71128571Y-94461905D01*
X71080952Y-94414286D01*
X71033333Y-94319048D01*
X71033333Y-94080952D01*
X71080952Y-93985714D01*
X71128571Y-93938095D01*
X71223810Y-93890476D01*
X71461905Y-93890476D01*
X71557143Y-93938095D01*
X71604762Y-93985714D01*
X71652381Y-94080952D01*
X71652381Y-94319048D01*
X71604762Y-94414286D01*
X71557143Y-94461905D01*
X70652381Y-92985714D02*
X70652381Y-93461905D01*
X71128571Y-93509524D01*
X71080952Y-93461905D01*
X71033333Y-93366667D01*
X71033333Y-93128571D01*
X71080952Y-93033333D01*
X71128571Y-92985714D01*
X71223810Y-92938095D01*
X71461905Y-92938095D01*
X71557143Y-92985714D01*
X71604762Y-93033333D01*
X71652381Y-93128571D01*
X71652381Y-93366667D01*
X71604762Y-93461905D01*
X71557143Y-93509524D01*
X45357143Y-36057143D02*
X45309524Y-36104762D01*
X45166667Y-36152381D01*
X45071429Y-36152381D01*
X44928571Y-36104762D01*
X44833333Y-36009524D01*
X44785714Y-35914286D01*
X44738095Y-35723810D01*
X44738095Y-35580952D01*
X44785714Y-35390476D01*
X44833333Y-35295238D01*
X44928571Y-35200000D01*
X45071429Y-35152381D01*
X45166667Y-35152381D01*
X45309524Y-35200000D01*
X45357143Y-35247619D01*
X46261905Y-35152381D02*
X45785714Y-35152381D01*
X45738095Y-35628571D01*
X45785714Y-35580952D01*
X45880952Y-35533333D01*
X46119048Y-35533333D01*
X46214286Y-35580952D01*
X46261905Y-35628571D01*
X46309524Y-35723810D01*
X46309524Y-35961905D01*
X46261905Y-36057143D01*
X46214286Y-36104762D01*
X46119048Y-36152381D01*
X45880952Y-36152381D01*
X45785714Y-36104762D01*
X45738095Y-36057143D01*
X46880952Y-35580952D02*
X46785714Y-35533333D01*
X46738095Y-35485714D01*
X46690476Y-35390476D01*
X46690476Y-35342857D01*
X46738095Y-35247619D01*
X46785714Y-35200000D01*
X46880952Y-35152381D01*
X47071429Y-35152381D01*
X47166667Y-35200000D01*
X47214286Y-35247619D01*
X47261905Y-35342857D01*
X47261905Y-35390476D01*
X47214286Y-35485714D01*
X47166667Y-35533333D01*
X47071429Y-35580952D01*
X46880952Y-35580952D01*
X46785714Y-35628571D01*
X46738095Y-35676190D01*
X46690476Y-35771429D01*
X46690476Y-35961905D01*
X46738095Y-36057143D01*
X46785714Y-36104762D01*
X46880952Y-36152381D01*
X47071429Y-36152381D01*
X47166667Y-36104762D01*
X47214286Y-36057143D01*
X47261905Y-35961905D01*
X47261905Y-35771429D01*
X47214286Y-35676190D01*
X47166667Y-35628571D01*
X47071429Y-35580952D01*
X40157143Y-79842857D02*
X40204762Y-79890476D01*
X40252381Y-80033333D01*
X40252381Y-80128571D01*
X40204762Y-80271429D01*
X40109524Y-80366667D01*
X40014286Y-80414286D01*
X39823810Y-80461905D01*
X39680952Y-80461905D01*
X39490476Y-80414286D01*
X39395238Y-80366667D01*
X39300000Y-80271429D01*
X39252381Y-80128571D01*
X39252381Y-80033333D01*
X39300000Y-79890476D01*
X39347619Y-79842857D01*
X39252381Y-78985714D02*
X39252381Y-79176191D01*
X39300000Y-79271429D01*
X39347619Y-79319048D01*
X39490476Y-79414286D01*
X39680952Y-79461905D01*
X40061905Y-79461905D01*
X40157143Y-79414286D01*
X40204762Y-79366667D01*
X40252381Y-79271429D01*
X40252381Y-79080952D01*
X40204762Y-78985714D01*
X40157143Y-78938095D01*
X40061905Y-78890476D01*
X39823810Y-78890476D01*
X39728571Y-78938095D01*
X39680952Y-78985714D01*
X39633333Y-79080952D01*
X39633333Y-79271429D01*
X39680952Y-79366667D01*
X39728571Y-79414286D01*
X39823810Y-79461905D01*
X40252381Y-78414286D02*
X40252381Y-78223810D01*
X40204762Y-78128571D01*
X40157143Y-78080952D01*
X40014286Y-77985714D01*
X39823810Y-77938095D01*
X39442857Y-77938095D01*
X39347619Y-77985714D01*
X39300000Y-78033333D01*
X39252381Y-78128571D01*
X39252381Y-78319048D01*
X39300000Y-78414286D01*
X39347619Y-78461905D01*
X39442857Y-78509524D01*
X39680952Y-78509524D01*
X39776190Y-78461905D01*
X39823810Y-78414286D01*
X39871429Y-78319048D01*
X39871429Y-78128571D01*
X39823810Y-78033333D01*
X39776190Y-77985714D01*
X39680952Y-77938095D01*
X11392381Y-53488095D02*
X10392381Y-53488095D01*
X10392381Y-53250000D01*
X10440000Y-53107142D01*
X10535238Y-53011904D01*
X10630476Y-52964285D01*
X10820952Y-52916666D01*
X10963810Y-52916666D01*
X11154286Y-52964285D01*
X11249524Y-53011904D01*
X11344762Y-53107142D01*
X11392381Y-53250000D01*
X11392381Y-53488095D01*
X11392381Y-52440476D02*
X11392381Y-52250000D01*
X11344762Y-52154761D01*
X11297143Y-52107142D01*
X11154286Y-52011904D01*
X10963810Y-51964285D01*
X10582857Y-51964285D01*
X10487619Y-52011904D01*
X10440000Y-52059523D01*
X10392381Y-52154761D01*
X10392381Y-52345238D01*
X10440000Y-52440476D01*
X10487619Y-52488095D01*
X10582857Y-52535714D01*
X10820952Y-52535714D01*
X10916190Y-52488095D01*
X10963810Y-52440476D01*
X11011429Y-52345238D01*
X11011429Y-52154761D01*
X10963810Y-52059523D01*
X10916190Y-52011904D01*
X10820952Y-51964285D01*
X18152381Y-55911905D02*
X17152381Y-55911905D01*
X18152381Y-55340476D02*
X17580952Y-55769048D01*
X17152381Y-55340476D02*
X17723810Y-55911905D01*
X17816667Y-50088095D02*
X17816667Y-49611904D01*
X18102381Y-50183333D02*
X17102381Y-49850000D01*
X18102381Y-49516666D01*
X19012381Y-46464286D02*
X18012381Y-46464286D01*
X18012381Y-46226191D01*
X18060000Y-46083333D01*
X18155238Y-45988095D01*
X18250476Y-45940476D01*
X18440952Y-45892857D01*
X18583810Y-45892857D01*
X18774286Y-45940476D01*
X18869524Y-45988095D01*
X18964762Y-46083333D01*
X19012381Y-46226191D01*
X19012381Y-46464286D01*
X19012381Y-44940476D02*
X19012381Y-45511905D01*
X19012381Y-45226191D02*
X18012381Y-45226191D01*
X18155238Y-45321429D01*
X18250476Y-45416667D01*
X18298095Y-45511905D01*
X18012381Y-44321429D02*
X18012381Y-44226190D01*
X18060000Y-44130952D01*
X18107619Y-44083333D01*
X18202857Y-44035714D01*
X18393333Y-43988095D01*
X18631429Y-43988095D01*
X18821905Y-44035714D01*
X18917143Y-44083333D01*
X18964762Y-44130952D01*
X19012381Y-44226190D01*
X19012381Y-44321429D01*
X18964762Y-44416667D01*
X18917143Y-44464286D01*
X18821905Y-44511905D01*
X18631429Y-44559524D01*
X18393333Y-44559524D01*
X18202857Y-44511905D01*
X18107619Y-44464286D01*
X18060000Y-44416667D01*
X18012381Y-44321429D01*
X12252381Y-42611905D02*
X11252381Y-42611905D01*
X12252381Y-42040476D02*
X11680952Y-42469048D01*
X11252381Y-42040476D02*
X11823810Y-42611905D01*
X12016667Y-48388095D02*
X12016667Y-47911904D01*
X12302381Y-48483333D02*
X11302381Y-48150000D01*
X12302381Y-47816666D01*
X47885714Y-78752381D02*
X47885714Y-77752381D01*
X48123809Y-77752381D01*
X48266667Y-77800000D01*
X48361905Y-77895238D01*
X48409524Y-77990476D01*
X48457143Y-78180952D01*
X48457143Y-78323810D01*
X48409524Y-78514286D01*
X48361905Y-78609524D01*
X48266667Y-78704762D01*
X48123809Y-78752381D01*
X47885714Y-78752381D01*
X49409524Y-78752381D02*
X48838095Y-78752381D01*
X49123809Y-78752381D02*
X49123809Y-77752381D01*
X49028571Y-77895238D01*
X48933333Y-77990476D01*
X48838095Y-78038095D01*
X49742857Y-77752381D02*
X50361905Y-77752381D01*
X50028571Y-78133333D01*
X50171429Y-78133333D01*
X50266667Y-78180952D01*
X50314286Y-78228571D01*
X50361905Y-78323810D01*
X50361905Y-78561905D01*
X50314286Y-78657143D01*
X50266667Y-78704762D01*
X50171429Y-78752381D01*
X49885714Y-78752381D01*
X49790476Y-78704762D01*
X49742857Y-78657143D01*
X61854762Y-51228571D02*
X61902381Y-51085714D01*
X61902381Y-50847618D01*
X61854762Y-50752380D01*
X61807143Y-50704761D01*
X61711905Y-50657142D01*
X61616667Y-50657142D01*
X61521429Y-50704761D01*
X61473810Y-50752380D01*
X61426190Y-50847618D01*
X61378571Y-51038095D01*
X61330952Y-51133333D01*
X61283333Y-51180952D01*
X61188095Y-51228571D01*
X61092857Y-51228571D01*
X60997619Y-51180952D01*
X60950000Y-51133333D01*
X60902381Y-51038095D01*
X60902381Y-50799999D01*
X60950000Y-50657142D01*
X61902381Y-50228571D02*
X61235714Y-50228571D01*
X60902381Y-50228571D02*
X60950000Y-50276190D01*
X60997619Y-50228571D01*
X60950000Y-50180952D01*
X60902381Y-50228571D01*
X60997619Y-50228571D01*
X61854762Y-49800000D02*
X61902381Y-49657143D01*
X61902381Y-49419047D01*
X61854762Y-49323809D01*
X61807143Y-49276190D01*
X61711905Y-49228571D01*
X61616667Y-49228571D01*
X61521429Y-49276190D01*
X61473810Y-49323809D01*
X61426190Y-49419047D01*
X61378571Y-49609524D01*
X61330952Y-49704762D01*
X61283333Y-49752381D01*
X61188095Y-49800000D01*
X61092857Y-49800000D01*
X60997619Y-49752381D01*
X60950000Y-49704762D01*
X60902381Y-49609524D01*
X60902381Y-49371428D01*
X60950000Y-49228571D01*
X61854762Y-48847619D02*
X61902381Y-48704762D01*
X61902381Y-48466666D01*
X61854762Y-48371428D01*
X61807143Y-48323809D01*
X61711905Y-48276190D01*
X61616667Y-48276190D01*
X61521429Y-48323809D01*
X61473810Y-48371428D01*
X61426190Y-48466666D01*
X61378571Y-48657143D01*
X61330952Y-48752381D01*
X61283333Y-48800000D01*
X61188095Y-48847619D01*
X61092857Y-48847619D01*
X60997619Y-48800000D01*
X60950000Y-48752381D01*
X60902381Y-48657143D01*
X60902381Y-48419047D01*
X60950000Y-48276190D01*
X60902381Y-47942857D02*
X60902381Y-47276190D01*
X61902381Y-47704762D01*
X61902381Y-46371428D02*
X61902381Y-46942857D01*
X61902381Y-46657143D02*
X60902381Y-46657143D01*
X61045238Y-46752381D01*
X61140476Y-46847619D01*
X61188095Y-46942857D01*
X61902381Y-45942857D02*
X60902381Y-45942857D01*
X60902381Y-45704762D01*
X60950000Y-45561904D01*
X61045238Y-45466666D01*
X61140476Y-45419047D01*
X61330952Y-45371428D01*
X61473810Y-45371428D01*
X61664286Y-45419047D01*
X61759524Y-45466666D01*
X61854762Y-45561904D01*
X61902381Y-45704762D01*
X61902381Y-45942857D01*
X61902381Y-44942857D02*
X60902381Y-44942857D01*
X61902381Y-44371428D01*
X60902381Y-44371428D01*
X61235714Y-43466666D02*
X61902381Y-43466666D01*
X60854762Y-43704762D02*
X61569048Y-43942857D01*
X61569048Y-43323809D01*
X55752381Y-51488095D02*
X56561905Y-51488095D01*
X56657143Y-51440476D01*
X56704762Y-51392857D01*
X56752381Y-51297619D01*
X56752381Y-51107142D01*
X56704762Y-51011904D01*
X56657143Y-50964285D01*
X56561905Y-50916666D01*
X55752381Y-50916666D01*
X55847619Y-50488095D02*
X55800000Y-50440476D01*
X55752381Y-50345238D01*
X55752381Y-50107142D01*
X55800000Y-50011904D01*
X55847619Y-49964285D01*
X55942857Y-49916666D01*
X56038095Y-49916666D01*
X56180952Y-49964285D01*
X56752381Y-50535714D01*
X56752381Y-49916666D01*
X55752381Y-49297619D02*
X55752381Y-49202380D01*
X55800000Y-49107142D01*
X55847619Y-49059523D01*
X55942857Y-49011904D01*
X56133333Y-48964285D01*
X56371429Y-48964285D01*
X56561905Y-49011904D01*
X56657143Y-49059523D01*
X56704762Y-49107142D01*
X56752381Y-49202380D01*
X56752381Y-49297619D01*
X56704762Y-49392857D01*
X56657143Y-49440476D01*
X56561905Y-49488095D01*
X56371429Y-49535714D01*
X56133333Y-49535714D01*
X55942857Y-49488095D01*
X55847619Y-49440476D01*
X55800000Y-49392857D01*
X55752381Y-49297619D01*
X57552381Y-43842857D02*
X57076190Y-44176191D01*
X57552381Y-44414286D02*
X56552381Y-44414286D01*
X56552381Y-44033333D01*
X56600000Y-43938095D01*
X56647619Y-43890476D01*
X56742857Y-43842857D01*
X56885714Y-43842857D01*
X56980952Y-43890476D01*
X57028571Y-43938095D01*
X57076190Y-44033333D01*
X57076190Y-44414286D01*
X56885714Y-42985714D02*
X57552381Y-42985714D01*
X56504762Y-43223810D02*
X57219048Y-43461905D01*
X57219048Y-42842857D01*
X56552381Y-41985714D02*
X56552381Y-42461905D01*
X57028571Y-42509524D01*
X56980952Y-42461905D01*
X56933333Y-42366667D01*
X56933333Y-42128571D01*
X56980952Y-42033333D01*
X57028571Y-41985714D01*
X57123810Y-41938095D01*
X57361905Y-41938095D01*
X57457143Y-41985714D01*
X57504762Y-42033333D01*
X57552381Y-42128571D01*
X57552381Y-42366667D01*
X57504762Y-42461905D01*
X57457143Y-42509524D01*
X55552381Y-43842857D02*
X55076190Y-44176191D01*
X55552381Y-44414286D02*
X54552381Y-44414286D01*
X54552381Y-44033333D01*
X54600000Y-43938095D01*
X54647619Y-43890476D01*
X54742857Y-43842857D01*
X54885714Y-43842857D01*
X54980952Y-43890476D01*
X55028571Y-43938095D01*
X55076190Y-44033333D01*
X55076190Y-44414286D01*
X54885714Y-42985714D02*
X55552381Y-42985714D01*
X54504762Y-43223810D02*
X55219048Y-43461905D01*
X55219048Y-42842857D01*
X54552381Y-42033333D02*
X54552381Y-42223810D01*
X54600000Y-42319048D01*
X54647619Y-42366667D01*
X54790476Y-42461905D01*
X54980952Y-42509524D01*
X55361905Y-42509524D01*
X55457143Y-42461905D01*
X55504762Y-42414286D01*
X55552381Y-42319048D01*
X55552381Y-42128571D01*
X55504762Y-42033333D01*
X55457143Y-41985714D01*
X55361905Y-41938095D01*
X55123810Y-41938095D01*
X55028571Y-41985714D01*
X54980952Y-42033333D01*
X54933333Y-42128571D01*
X54933333Y-42319048D01*
X54980952Y-42414286D01*
X55028571Y-42461905D01*
X55123810Y-42509524D01*
X61361905Y-42352381D02*
X61361905Y-43161905D01*
X61409524Y-43257143D01*
X61457143Y-43304762D01*
X61552381Y-43352381D01*
X61742858Y-43352381D01*
X61838096Y-43304762D01*
X61885715Y-43257143D01*
X61933334Y-43161905D01*
X61933334Y-42352381D01*
X62361905Y-42447619D02*
X62409524Y-42400000D01*
X62504762Y-42352381D01*
X62742858Y-42352381D01*
X62838096Y-42400000D01*
X62885715Y-42447619D01*
X62933334Y-42542857D01*
X62933334Y-42638095D01*
X62885715Y-42780952D01*
X62314286Y-43352381D01*
X62933334Y-43352381D01*
X63885715Y-43352381D02*
X63314286Y-43352381D01*
X63600000Y-43352381D02*
X63600000Y-42352381D01*
X63504762Y-42495238D01*
X63409524Y-42590476D01*
X63314286Y-42638095D01*
X54057143Y-77742857D02*
X54104762Y-77790476D01*
X54152381Y-77933333D01*
X54152381Y-78028571D01*
X54104762Y-78171429D01*
X54009524Y-78266667D01*
X53914286Y-78314286D01*
X53723810Y-78361905D01*
X53580952Y-78361905D01*
X53390476Y-78314286D01*
X53295238Y-78266667D01*
X53200000Y-78171429D01*
X53152381Y-78028571D01*
X53152381Y-77933333D01*
X53200000Y-77790476D01*
X53247619Y-77742857D01*
X53152381Y-77409524D02*
X53152381Y-76742857D01*
X54152381Y-77171429D01*
X53152381Y-75885714D02*
X53152381Y-76361905D01*
X53628571Y-76409524D01*
X53580952Y-76361905D01*
X53533333Y-76266667D01*
X53533333Y-76028571D01*
X53580952Y-75933333D01*
X53628571Y-75885714D01*
X53723810Y-75838095D01*
X53961905Y-75838095D01*
X54057143Y-75885714D01*
X54104762Y-75933333D01*
X54152381Y-76028571D01*
X54152381Y-76266667D01*
X54104762Y-76361905D01*
X54057143Y-76409524D01*
X52057143Y-77742857D02*
X52104762Y-77790476D01*
X52152381Y-77933333D01*
X52152381Y-78028571D01*
X52104762Y-78171429D01*
X52009524Y-78266667D01*
X51914286Y-78314286D01*
X51723810Y-78361905D01*
X51580952Y-78361905D01*
X51390476Y-78314286D01*
X51295238Y-78266667D01*
X51200000Y-78171429D01*
X51152381Y-78028571D01*
X51152381Y-77933333D01*
X51200000Y-77790476D01*
X51247619Y-77742857D01*
X51152381Y-77409524D02*
X51152381Y-76742857D01*
X52152381Y-77171429D01*
X51152381Y-75933333D02*
X51152381Y-76123810D01*
X51200000Y-76219048D01*
X51247619Y-76266667D01*
X51390476Y-76361905D01*
X51580952Y-76409524D01*
X51961905Y-76409524D01*
X52057143Y-76361905D01*
X52104762Y-76314286D01*
X52152381Y-76219048D01*
X52152381Y-76028571D01*
X52104762Y-75933333D01*
X52057143Y-75885714D01*
X51961905Y-75838095D01*
X51723810Y-75838095D01*
X51628571Y-75885714D01*
X51580952Y-75933333D01*
X51533333Y-76028571D01*
X51533333Y-76219048D01*
X51580952Y-76314286D01*
X51628571Y-76361905D01*
X51723810Y-76409524D01*
X53357143Y-76352381D02*
X53023809Y-75876190D01*
X52785714Y-76352381D02*
X52785714Y-75352381D01*
X53166667Y-75352381D01*
X53261905Y-75400000D01*
X53309524Y-75447619D01*
X53357143Y-75542857D01*
X53357143Y-75685714D01*
X53309524Y-75780952D01*
X53261905Y-75828571D01*
X53166667Y-75876190D01*
X52785714Y-75876190D01*
X54261905Y-75352381D02*
X53785714Y-75352381D01*
X53738095Y-75828571D01*
X53785714Y-75780952D01*
X53880952Y-75733333D01*
X54119048Y-75733333D01*
X54214286Y-75780952D01*
X54261905Y-75828571D01*
X54309524Y-75923810D01*
X54309524Y-76161905D01*
X54261905Y-76257143D01*
X54214286Y-76304762D01*
X54119048Y-76352381D01*
X53880952Y-76352381D01*
X53785714Y-76304762D01*
X53738095Y-76257143D01*
X54690476Y-75447619D02*
X54738095Y-75400000D01*
X54833333Y-75352381D01*
X55071429Y-75352381D01*
X55166667Y-75400000D01*
X55214286Y-75447619D01*
X55261905Y-75542857D01*
X55261905Y-75638095D01*
X55214286Y-75780952D01*
X54642857Y-76352381D01*
X55261905Y-76352381D01*
X6157143Y-85642857D02*
X6204762Y-85690476D01*
X6252381Y-85833333D01*
X6252381Y-85928571D01*
X6204762Y-86071429D01*
X6109524Y-86166667D01*
X6014286Y-86214286D01*
X5823810Y-86261905D01*
X5680952Y-86261905D01*
X5490476Y-86214286D01*
X5395238Y-86166667D01*
X5300000Y-86071429D01*
X5252381Y-85928571D01*
X5252381Y-85833333D01*
X5300000Y-85690476D01*
X5347619Y-85642857D01*
X5252381Y-85309524D02*
X5252381Y-84690476D01*
X5633333Y-85023810D01*
X5633333Y-84880952D01*
X5680952Y-84785714D01*
X5728571Y-84738095D01*
X5823810Y-84690476D01*
X6061905Y-84690476D01*
X6157143Y-84738095D01*
X6204762Y-84785714D01*
X6252381Y-84880952D01*
X6252381Y-85166667D01*
X6204762Y-85261905D01*
X6157143Y-85309524D01*
X5347619Y-84309524D02*
X5300000Y-84261905D01*
X5252381Y-84166667D01*
X5252381Y-83928571D01*
X5300000Y-83833333D01*
X5347619Y-83785714D01*
X5442857Y-83738095D01*
X5538095Y-83738095D01*
X5680952Y-83785714D01*
X6252381Y-84357143D01*
X6252381Y-83738095D01*
X42180952Y-51847619D02*
X42133333Y-51942857D01*
X42085714Y-51990476D01*
X41990476Y-52038095D01*
X41942857Y-52038095D01*
X41847619Y-51990476D01*
X41800000Y-51942857D01*
X41752381Y-51847619D01*
X41752381Y-51657142D01*
X41800000Y-51561904D01*
X41847619Y-51514285D01*
X41942857Y-51466666D01*
X41990476Y-51466666D01*
X42085714Y-51514285D01*
X42133333Y-51561904D01*
X42180952Y-51657142D01*
X42180952Y-51847619D01*
X42228571Y-51942857D01*
X42276190Y-51990476D01*
X42371429Y-52038095D01*
X42561905Y-52038095D01*
X42657143Y-51990476D01*
X42704762Y-51942857D01*
X42752381Y-51847619D01*
X42752381Y-51657142D01*
X42704762Y-51561904D01*
X42657143Y-51514285D01*
X42561905Y-51466666D01*
X42371429Y-51466666D01*
X42276190Y-51514285D01*
X42228571Y-51561904D01*
X42180952Y-51657142D01*
X41752381Y-50847619D02*
X41752381Y-50752380D01*
X41800000Y-50657142D01*
X41847619Y-50609523D01*
X41942857Y-50561904D01*
X42133333Y-50514285D01*
X42371429Y-50514285D01*
X42561905Y-50561904D01*
X42657143Y-50609523D01*
X42704762Y-50657142D01*
X42752381Y-50752380D01*
X42752381Y-50847619D01*
X42704762Y-50942857D01*
X42657143Y-50990476D01*
X42561905Y-51038095D01*
X42371429Y-51085714D01*
X42133333Y-51085714D01*
X41942857Y-51038095D01*
X41847619Y-50990476D01*
X41800000Y-50942857D01*
X41752381Y-50847619D01*
X42752381Y-50085714D02*
X41752381Y-50085714D01*
X42752381Y-49514285D02*
X42180952Y-49942857D01*
X41752381Y-49514285D02*
X42323810Y-50085714D01*
X42752381Y-48561904D02*
X42752381Y-49133333D01*
X42752381Y-48847619D02*
X41752381Y-48847619D01*
X41895238Y-48942857D01*
X41990476Y-49038095D01*
X42038095Y-49133333D01*
X83802381Y-26692857D02*
X83326190Y-27026191D01*
X83802381Y-27264286D02*
X82802381Y-27264286D01*
X82802381Y-26883333D01*
X82850000Y-26788095D01*
X82897619Y-26740476D01*
X82992857Y-26692857D01*
X83135714Y-26692857D01*
X83230952Y-26740476D01*
X83278571Y-26788095D01*
X83326190Y-26883333D01*
X83326190Y-27264286D01*
X82802381Y-25788095D02*
X82802381Y-26264286D01*
X83278571Y-26311905D01*
X83230952Y-26264286D01*
X83183333Y-26169048D01*
X83183333Y-25930952D01*
X83230952Y-25835714D01*
X83278571Y-25788095D01*
X83373810Y-25740476D01*
X83611905Y-25740476D01*
X83707143Y-25788095D01*
X83754762Y-25835714D01*
X83802381Y-25930952D01*
X83802381Y-26169048D01*
X83754762Y-26264286D01*
X83707143Y-26311905D01*
X82802381Y-24835714D02*
X82802381Y-25311905D01*
X83278571Y-25359524D01*
X83230952Y-25311905D01*
X83183333Y-25216667D01*
X83183333Y-24978571D01*
X83230952Y-24883333D01*
X83278571Y-24835714D01*
X83373810Y-24788095D01*
X83611905Y-24788095D01*
X83707143Y-24835714D01*
X83754762Y-24883333D01*
X83802381Y-24978571D01*
X83802381Y-25216667D01*
X83754762Y-25311905D01*
X83707143Y-25359524D01*
X46047619Y-28495238D02*
X46000000Y-28590476D01*
X45904762Y-28685714D01*
X45761905Y-28828571D01*
X45714286Y-28923810D01*
X45714286Y-29019048D01*
X45952381Y-28971429D02*
X45904762Y-29066667D01*
X45809524Y-29161905D01*
X45619048Y-29209524D01*
X45285714Y-29209524D01*
X45095238Y-29161905D01*
X45000000Y-29066667D01*
X44952381Y-28971429D01*
X44952381Y-28780952D01*
X45000000Y-28685714D01*
X45095238Y-28590476D01*
X45285714Y-28542857D01*
X45619048Y-28542857D01*
X45809524Y-28590476D01*
X45904762Y-28685714D01*
X45952381Y-28780952D01*
X45952381Y-28971429D01*
X45285714Y-27685714D02*
X45952381Y-27685714D01*
X44904762Y-27923810D02*
X45619048Y-28161905D01*
X45619048Y-27542857D01*
X17562381Y-71738095D02*
X16562381Y-71738095D01*
X16562381Y-71357142D01*
X16610000Y-71261904D01*
X16657619Y-71214285D01*
X16752857Y-71166666D01*
X16895714Y-71166666D01*
X16990952Y-71214285D01*
X17038571Y-71261904D01*
X17086190Y-71357142D01*
X17086190Y-71738095D01*
X16895714Y-70309523D02*
X17562381Y-70309523D01*
X16514762Y-70547619D02*
X17229048Y-70785714D01*
X17229048Y-70166666D01*
X36261905Y-24262381D02*
X36261905Y-23262381D01*
X36642858Y-23262381D01*
X36738096Y-23310000D01*
X36785715Y-23357619D01*
X36833334Y-23452857D01*
X36833334Y-23595714D01*
X36785715Y-23690952D01*
X36738096Y-23738571D01*
X36642858Y-23786190D01*
X36261905Y-23786190D01*
X37738096Y-23262381D02*
X37261905Y-23262381D01*
X37214286Y-23738571D01*
X37261905Y-23690952D01*
X37357143Y-23643333D01*
X37595239Y-23643333D01*
X37690477Y-23690952D01*
X37738096Y-23738571D01*
X37785715Y-23833810D01*
X37785715Y-24071905D01*
X37738096Y-24167143D01*
X37690477Y-24214762D01*
X37595239Y-24262381D01*
X37357143Y-24262381D01*
X37261905Y-24214762D01*
X37214286Y-24167143D01*
X63552381Y-29738095D02*
X64361905Y-29738095D01*
X64457143Y-29690476D01*
X64504762Y-29642857D01*
X64552381Y-29547619D01*
X64552381Y-29357142D01*
X64504762Y-29261904D01*
X64457143Y-29214285D01*
X64361905Y-29166666D01*
X63552381Y-29166666D01*
X63647619Y-28738095D02*
X63600000Y-28690476D01*
X63552381Y-28595238D01*
X63552381Y-28357142D01*
X63600000Y-28261904D01*
X63647619Y-28214285D01*
X63742857Y-28166666D01*
X63838095Y-28166666D01*
X63980952Y-28214285D01*
X64552381Y-28785714D01*
X64552381Y-28166666D01*
X64552381Y-27690476D02*
X64552381Y-27500000D01*
X64504762Y-27404761D01*
X64457143Y-27357142D01*
X64314286Y-27261904D01*
X64123810Y-27214285D01*
X63742857Y-27214285D01*
X63647619Y-27261904D01*
X63600000Y-27309523D01*
X63552381Y-27404761D01*
X63552381Y-27595238D01*
X63600000Y-27690476D01*
X63647619Y-27738095D01*
X63742857Y-27785714D01*
X63980952Y-27785714D01*
X64076190Y-27738095D01*
X64123810Y-27690476D01*
X64171429Y-27595238D01*
X64171429Y-27404761D01*
X64123810Y-27309523D01*
X64076190Y-27261904D01*
X63980952Y-27214285D01*
X50107143Y-104557143D02*
X50059524Y-104604762D01*
X49916667Y-104652381D01*
X49821429Y-104652381D01*
X49678571Y-104604762D01*
X49583333Y-104509524D01*
X49535714Y-104414286D01*
X49488095Y-104223810D01*
X49488095Y-104080952D01*
X49535714Y-103890476D01*
X49583333Y-103795238D01*
X49678571Y-103700000D01*
X49821429Y-103652381D01*
X49916667Y-103652381D01*
X50059524Y-103700000D01*
X50107143Y-103747619D01*
X50678571Y-104080952D02*
X50583333Y-104033333D01*
X50535714Y-103985714D01*
X50488095Y-103890476D01*
X50488095Y-103842857D01*
X50535714Y-103747619D01*
X50583333Y-103700000D01*
X50678571Y-103652381D01*
X50869048Y-103652381D01*
X50964286Y-103700000D01*
X51011905Y-103747619D01*
X51059524Y-103842857D01*
X51059524Y-103890476D01*
X51011905Y-103985714D01*
X50964286Y-104033333D01*
X50869048Y-104080952D01*
X50678571Y-104080952D01*
X50583333Y-104128571D01*
X50535714Y-104176190D01*
X50488095Y-104271429D01*
X50488095Y-104461905D01*
X50535714Y-104557143D01*
X50583333Y-104604762D01*
X50678571Y-104652381D01*
X50869048Y-104652381D01*
X50964286Y-104604762D01*
X51011905Y-104557143D01*
X51059524Y-104461905D01*
X51059524Y-104271429D01*
X51011905Y-104176190D01*
X50964286Y-104128571D01*
X50869048Y-104080952D01*
X51630952Y-104080952D02*
X51535714Y-104033333D01*
X51488095Y-103985714D01*
X51440476Y-103890476D01*
X51440476Y-103842857D01*
X51488095Y-103747619D01*
X51535714Y-103700000D01*
X51630952Y-103652381D01*
X51821429Y-103652381D01*
X51916667Y-103700000D01*
X51964286Y-103747619D01*
X52011905Y-103842857D01*
X52011905Y-103890476D01*
X51964286Y-103985714D01*
X51916667Y-104033333D01*
X51821429Y-104080952D01*
X51630952Y-104080952D01*
X51535714Y-104128571D01*
X51488095Y-104176190D01*
X51440476Y-104271429D01*
X51440476Y-104461905D01*
X51488095Y-104557143D01*
X51535714Y-104604762D01*
X51630952Y-104652381D01*
X51821429Y-104652381D01*
X51916667Y-104604762D01*
X51964286Y-104557143D01*
X52011905Y-104461905D01*
X52011905Y-104271429D01*
X51964286Y-104176190D01*
X51916667Y-104128571D01*
X51821429Y-104080952D01*
X50107143Y-107307143D02*
X50059524Y-107354762D01*
X49916667Y-107402381D01*
X49821429Y-107402381D01*
X49678571Y-107354762D01*
X49583333Y-107259524D01*
X49535714Y-107164286D01*
X49488095Y-106973810D01*
X49488095Y-106830952D01*
X49535714Y-106640476D01*
X49583333Y-106545238D01*
X49678571Y-106450000D01*
X49821429Y-106402381D01*
X49916667Y-106402381D01*
X50059524Y-106450000D01*
X50107143Y-106497619D01*
X50678571Y-106830952D02*
X50583333Y-106783333D01*
X50535714Y-106735714D01*
X50488095Y-106640476D01*
X50488095Y-106592857D01*
X50535714Y-106497619D01*
X50583333Y-106450000D01*
X50678571Y-106402381D01*
X50869048Y-106402381D01*
X50964286Y-106450000D01*
X51011905Y-106497619D01*
X51059524Y-106592857D01*
X51059524Y-106640476D01*
X51011905Y-106735714D01*
X50964286Y-106783333D01*
X50869048Y-106830952D01*
X50678571Y-106830952D01*
X50583333Y-106878571D01*
X50535714Y-106926190D01*
X50488095Y-107021429D01*
X50488095Y-107211905D01*
X50535714Y-107307143D01*
X50583333Y-107354762D01*
X50678571Y-107402381D01*
X50869048Y-107402381D01*
X50964286Y-107354762D01*
X51011905Y-107307143D01*
X51059524Y-107211905D01*
X51059524Y-107021429D01*
X51011905Y-106926190D01*
X50964286Y-106878571D01*
X50869048Y-106830952D01*
X51535714Y-107402381D02*
X51726190Y-107402381D01*
X51821429Y-107354762D01*
X51869048Y-107307143D01*
X51964286Y-107164286D01*
X52011905Y-106973810D01*
X52011905Y-106592857D01*
X51964286Y-106497619D01*
X51916667Y-106450000D01*
X51821429Y-106402381D01*
X51630952Y-106402381D01*
X51535714Y-106450000D01*
X51488095Y-106497619D01*
X51440476Y-106592857D01*
X51440476Y-106830952D01*
X51488095Y-106926190D01*
X51535714Y-106973810D01*
X51630952Y-107021429D01*
X51821429Y-107021429D01*
X51916667Y-106973810D01*
X51964286Y-106926190D01*
X52011905Y-106830952D01*
X73957143Y-36042857D02*
X74004762Y-36090476D01*
X74052381Y-36233333D01*
X74052381Y-36328571D01*
X74004762Y-36471429D01*
X73909524Y-36566667D01*
X73814286Y-36614286D01*
X73623810Y-36661905D01*
X73480952Y-36661905D01*
X73290476Y-36614286D01*
X73195238Y-36566667D01*
X73100000Y-36471429D01*
X73052381Y-36328571D01*
X73052381Y-36233333D01*
X73100000Y-36090476D01*
X73147619Y-36042857D01*
X74052381Y-35566667D02*
X74052381Y-35376191D01*
X74004762Y-35280952D01*
X73957143Y-35233333D01*
X73814286Y-35138095D01*
X73623810Y-35090476D01*
X73242857Y-35090476D01*
X73147619Y-35138095D01*
X73100000Y-35185714D01*
X73052381Y-35280952D01*
X73052381Y-35471429D01*
X73100000Y-35566667D01*
X73147619Y-35614286D01*
X73242857Y-35661905D01*
X73480952Y-35661905D01*
X73576190Y-35614286D01*
X73623810Y-35566667D01*
X73671429Y-35471429D01*
X73671429Y-35280952D01*
X73623810Y-35185714D01*
X73576190Y-35138095D01*
X73480952Y-35090476D01*
X73052381Y-34471429D02*
X73052381Y-34376190D01*
X73100000Y-34280952D01*
X73147619Y-34233333D01*
X73242857Y-34185714D01*
X73433333Y-34138095D01*
X73671429Y-34138095D01*
X73861905Y-34185714D01*
X73957143Y-34233333D01*
X74004762Y-34280952D01*
X74052381Y-34376190D01*
X74052381Y-34471429D01*
X74004762Y-34566667D01*
X73957143Y-34614286D01*
X73861905Y-34661905D01*
X73671429Y-34709524D01*
X73433333Y-34709524D01*
X73242857Y-34661905D01*
X73147619Y-34614286D01*
X73100000Y-34566667D01*
X73052381Y-34471429D01*
X39857143Y-106257143D02*
X39809524Y-106304762D01*
X39666667Y-106352381D01*
X39571429Y-106352381D01*
X39428571Y-106304762D01*
X39333333Y-106209524D01*
X39285714Y-106114286D01*
X39238095Y-105923810D01*
X39238095Y-105780952D01*
X39285714Y-105590476D01*
X39333333Y-105495238D01*
X39428571Y-105400000D01*
X39571429Y-105352381D01*
X39666667Y-105352381D01*
X39809524Y-105400000D01*
X39857143Y-105447619D01*
X40333333Y-106352381D02*
X40523809Y-106352381D01*
X40619048Y-106304762D01*
X40666667Y-106257143D01*
X40761905Y-106114286D01*
X40809524Y-105923810D01*
X40809524Y-105542857D01*
X40761905Y-105447619D01*
X40714286Y-105400000D01*
X40619048Y-105352381D01*
X40428571Y-105352381D01*
X40333333Y-105400000D01*
X40285714Y-105447619D01*
X40238095Y-105542857D01*
X40238095Y-105780952D01*
X40285714Y-105876190D01*
X40333333Y-105923810D01*
X40428571Y-105971429D01*
X40619048Y-105971429D01*
X40714286Y-105923810D01*
X40761905Y-105876190D01*
X40809524Y-105780952D01*
X41190476Y-105447619D02*
X41238095Y-105400000D01*
X41333333Y-105352381D01*
X41571429Y-105352381D01*
X41666667Y-105400000D01*
X41714286Y-105447619D01*
X41761905Y-105542857D01*
X41761905Y-105638095D01*
X41714286Y-105780952D01*
X41142857Y-106352381D01*
X41761905Y-106352381D01*
X44761905Y-108652382D02*
X44761905Y-107652382D01*
X45000000Y-107652382D01*
X45142858Y-107700001D01*
X45238096Y-107795239D01*
X45285715Y-107890477D01*
X45333334Y-108080953D01*
X45333334Y-108223811D01*
X45285715Y-108414287D01*
X45238096Y-108509525D01*
X45142858Y-108604763D01*
X45000000Y-108652382D01*
X44761905Y-108652382D01*
X46190477Y-107985715D02*
X46190477Y-108652382D01*
X45952381Y-107604763D02*
X45714286Y-108319049D01*
X46333334Y-108319049D01*
X71857143Y-25642857D02*
X71904762Y-25690476D01*
X71952381Y-25833333D01*
X71952381Y-25928571D01*
X71904762Y-26071429D01*
X71809524Y-26166667D01*
X71714286Y-26214286D01*
X71523810Y-26261905D01*
X71380952Y-26261905D01*
X71190476Y-26214286D01*
X71095238Y-26166667D01*
X71000000Y-26071429D01*
X70952381Y-25928571D01*
X70952381Y-25833333D01*
X71000000Y-25690476D01*
X71047619Y-25642857D01*
X71952381Y-25166667D02*
X71952381Y-24976191D01*
X71904762Y-24880952D01*
X71857143Y-24833333D01*
X71714286Y-24738095D01*
X71523810Y-24690476D01*
X71142857Y-24690476D01*
X71047619Y-24738095D01*
X71000000Y-24785714D01*
X70952381Y-24880952D01*
X70952381Y-25071429D01*
X71000000Y-25166667D01*
X71047619Y-25214286D01*
X71142857Y-25261905D01*
X71380952Y-25261905D01*
X71476190Y-25214286D01*
X71523810Y-25166667D01*
X71571429Y-25071429D01*
X71571429Y-24880952D01*
X71523810Y-24785714D01*
X71476190Y-24738095D01*
X71380952Y-24690476D01*
X70952381Y-24357143D02*
X70952381Y-23738095D01*
X71333333Y-24071429D01*
X71333333Y-23928571D01*
X71380952Y-23833333D01*
X71428571Y-23785714D01*
X71523810Y-23738095D01*
X71761905Y-23738095D01*
X71857143Y-23785714D01*
X71904762Y-23833333D01*
X71952381Y-23928571D01*
X71952381Y-24214286D01*
X71904762Y-24309524D01*
X71857143Y-24357143D01*
X75761905Y-27152381D02*
X75761905Y-27961905D01*
X75809524Y-28057143D01*
X75857143Y-28104762D01*
X75952381Y-28152381D01*
X76142858Y-28152381D01*
X76238096Y-28104762D01*
X76285715Y-28057143D01*
X76333334Y-27961905D01*
X76333334Y-27152381D01*
X76714286Y-27152381D02*
X77333334Y-27152381D01*
X77000000Y-27533333D01*
X77142858Y-27533333D01*
X77238096Y-27580952D01*
X77285715Y-27628571D01*
X77333334Y-27723810D01*
X77333334Y-27961905D01*
X77285715Y-28057143D01*
X77238096Y-28104762D01*
X77142858Y-28152381D01*
X76857143Y-28152381D01*
X76761905Y-28104762D01*
X76714286Y-28057143D01*
X77952381Y-27152381D02*
X78047620Y-27152381D01*
X78142858Y-27200000D01*
X78190477Y-27247619D01*
X78238096Y-27342857D01*
X78285715Y-27533333D01*
X78285715Y-27771429D01*
X78238096Y-27961905D01*
X78190477Y-28057143D01*
X78142858Y-28104762D01*
X78047620Y-28152381D01*
X77952381Y-28152381D01*
X77857143Y-28104762D01*
X77809524Y-28057143D01*
X77761905Y-27961905D01*
X77714286Y-27771429D01*
X77714286Y-27533333D01*
X77761905Y-27342857D01*
X77809524Y-27247619D01*
X77857143Y-27200000D01*
X77952381Y-27152381D01*
X43031762Y-52615619D02*
X42936524Y-52568000D01*
X42841286Y-52472762D01*
X42698429Y-52329905D01*
X42603190Y-52282286D01*
X42507952Y-52282286D01*
X42555571Y-52520381D02*
X42460333Y-52472762D01*
X42365095Y-52377524D01*
X42317476Y-52187048D01*
X42317476Y-51853714D01*
X42365095Y-51663238D01*
X42460333Y-51568000D01*
X42555571Y-51520381D01*
X42746048Y-51520381D01*
X42841286Y-51568000D01*
X42936524Y-51663238D01*
X42984143Y-51853714D01*
X42984143Y-52187048D01*
X42936524Y-52377524D01*
X42841286Y-52472762D01*
X42746048Y-52520381D01*
X42555571Y-52520381D01*
X43317476Y-51520381D02*
X43984143Y-51520381D01*
X43555571Y-52520381D01*
X50479619Y-52022238D02*
X50432000Y-52117476D01*
X50336762Y-52212714D01*
X50193905Y-52355571D01*
X50146286Y-52450810D01*
X50146286Y-52546048D01*
X50384381Y-52498429D02*
X50336762Y-52593667D01*
X50241524Y-52688905D01*
X50051048Y-52736524D01*
X49717714Y-52736524D01*
X49527238Y-52688905D01*
X49432000Y-52593667D01*
X49384381Y-52498429D01*
X49384381Y-52307952D01*
X49432000Y-52212714D01*
X49527238Y-52117476D01*
X49717714Y-52069857D01*
X50051048Y-52069857D01*
X50241524Y-52117476D01*
X50336762Y-52212714D01*
X50384381Y-52307952D01*
X50384381Y-52498429D01*
X50384381Y-51593667D02*
X50384381Y-51403191D01*
X50336762Y-51307952D01*
X50289143Y-51260333D01*
X50146286Y-51165095D01*
X49955810Y-51117476D01*
X49574857Y-51117476D01*
X49479619Y-51165095D01*
X49432000Y-51212714D01*
X49384381Y-51307952D01*
X49384381Y-51498429D01*
X49432000Y-51593667D01*
X49479619Y-51641286D01*
X49574857Y-51688905D01*
X49812952Y-51688905D01*
X49908190Y-51641286D01*
X49955810Y-51593667D01*
X50003429Y-51498429D01*
X50003429Y-51307952D01*
X49955810Y-51212714D01*
X49908190Y-51165095D01*
X49812952Y-51117476D01*
X79305572Y-54015619D02*
X79210334Y-53968000D01*
X79115096Y-53872762D01*
X78972239Y-53729905D01*
X78877000Y-53682286D01*
X78781762Y-53682286D01*
X78829381Y-53920381D02*
X78734143Y-53872762D01*
X78638905Y-53777524D01*
X78591286Y-53587048D01*
X78591286Y-53253714D01*
X78638905Y-53063238D01*
X78734143Y-52968000D01*
X78829381Y-52920381D01*
X79019858Y-52920381D01*
X79115096Y-52968000D01*
X79210334Y-53063238D01*
X79257953Y-53253714D01*
X79257953Y-53587048D01*
X79210334Y-53777524D01*
X79115096Y-53872762D01*
X79019858Y-53920381D01*
X78829381Y-53920381D01*
X80210334Y-53920381D02*
X79638905Y-53920381D01*
X79924619Y-53920381D02*
X79924619Y-52920381D01*
X79829381Y-53063238D01*
X79734143Y-53158476D01*
X79638905Y-53206095D01*
X80543667Y-52920381D02*
X81162715Y-52920381D01*
X80829381Y-53301333D01*
X80972239Y-53301333D01*
X81067477Y-53348952D01*
X81115096Y-53396571D01*
X81162715Y-53491810D01*
X81162715Y-53729905D01*
X81115096Y-53825143D01*
X81067477Y-53872762D01*
X80972239Y-53920381D01*
X80686524Y-53920381D01*
X80591286Y-53872762D01*
X80543667Y-53825143D01*
X52666667Y-26052381D02*
X52666667Y-26766667D01*
X52619047Y-26909524D01*
X52523809Y-27004762D01*
X52380952Y-27052381D01*
X52285714Y-27052381D01*
X53142857Y-27052381D02*
X53142857Y-26052381D01*
X53523810Y-26052381D01*
X53619048Y-26100000D01*
X53666667Y-26147619D01*
X53714286Y-26242857D01*
X53714286Y-26385714D01*
X53666667Y-26480952D01*
X53619048Y-26528571D01*
X53523810Y-26576190D01*
X53142857Y-26576190D01*
X54047619Y-26052381D02*
X54666667Y-26052381D01*
X54333333Y-26433333D01*
X54476191Y-26433333D01*
X54571429Y-26480952D01*
X54619048Y-26528571D01*
X54666667Y-26623810D01*
X54666667Y-26861905D01*
X54619048Y-26957143D01*
X54571429Y-27004762D01*
X54476191Y-27052381D01*
X54190476Y-27052381D01*
X54095238Y-27004762D01*
X54047619Y-26957143D01*
%LPC*%
D14*
X82900000Y-76500000D03*
D15*
X73750000Y-79040000D03*
X73750000Y-73960000D03*
D16*
X41965000Y-76300000D03*
X45235000Y-76300000D03*
D17*
X63275000Y-54950000D03*
X63925000Y-54950000D03*
X64575000Y-54950000D03*
X65225000Y-54950000D03*
X65225000Y-51465000D03*
X64575000Y-51465000D03*
X63925000Y-51465000D03*
X63275000Y-51465000D03*
D18*
X64250000Y-53600000D03*
D19*
X46500000Y-79100000D03*
X43500000Y-79100000D03*
D20*
X40300000Y-33700000D03*
X40950000Y-33700000D03*
X41600000Y-33700000D03*
X42250000Y-33700000D03*
X42900000Y-33700000D03*
X43550000Y-33700000D03*
X44200000Y-33700000D03*
X44200000Y-27800000D03*
X43550000Y-27800000D03*
X42900000Y-27800000D03*
X42250000Y-27800000D03*
X41600000Y-27800000D03*
X40950000Y-27800000D03*
X40300000Y-27800000D03*
D21*
X85000000Y-94000000D03*
D22*
X44250000Y-24750000D03*
X42250000Y-24750000D03*
X45500000Y-35500000D03*
X47500000Y-35500000D03*
D21*
X6000000Y-6000000D03*
X85000000Y-6000000D03*
X6000000Y-94000000D03*
D22*
X43000000Y-37000000D03*
X41000000Y-37000000D03*
D23*
X84270000Y-60190000D03*
X81730000Y-60190000D03*
X79190000Y-60190000D03*
X79190000Y-62730000D03*
X79190000Y-65270000D03*
X84270000Y-67810000D03*
X81730000Y-67810000D03*
X79190000Y-67810000D03*
X86810000Y-67810000D03*
X86810000Y-60190000D03*
X86810000Y-62730000D03*
X84270000Y-62730000D03*
X81730000Y-62730000D03*
X86810000Y-65270000D03*
X84270000Y-65270000D03*
X81730000Y-65270000D03*
X84270000Y-11190000D03*
X81730000Y-11190000D03*
X79190000Y-11190000D03*
X79190000Y-13730000D03*
X79190000Y-16270000D03*
X84270000Y-18810000D03*
X81730000Y-18810000D03*
X79190000Y-18810000D03*
X86810000Y-18810000D03*
X86810000Y-11190000D03*
X86810000Y-13730000D03*
X84270000Y-13730000D03*
X81730000Y-13730000D03*
X86810000Y-16270000D03*
X84270000Y-16270000D03*
X81730000Y-16270000D03*
X9270000Y-60190000D03*
X6730000Y-60190000D03*
X4190000Y-60190000D03*
X4190000Y-62730000D03*
X4190000Y-65270000D03*
X9270000Y-67810000D03*
X6730000Y-67810000D03*
X4190000Y-67810000D03*
X11810000Y-67810000D03*
X11810000Y-60190000D03*
X11810000Y-62730000D03*
X9270000Y-62730000D03*
X6730000Y-62730000D03*
X11810000Y-65270000D03*
X9270000Y-65270000D03*
X6730000Y-65270000D03*
X6730000Y-18810000D03*
X9270000Y-18810000D03*
X11810000Y-18810000D03*
X11810000Y-16270000D03*
X11810000Y-13730000D03*
X6730000Y-11190000D03*
X9270000Y-11190000D03*
X11810000Y-11190000D03*
X4190000Y-11190000D03*
X4190000Y-18810000D03*
X4190000Y-16270000D03*
X6730000Y-16270000D03*
X9270000Y-16270000D03*
X4190000Y-13730000D03*
X6730000Y-13730000D03*
X9270000Y-13730000D03*
D24*
X44750000Y-21000000D03*
X44750000Y-23000000D03*
X41750000Y-23000000D03*
X41750000Y-21000000D03*
D25*
X37500000Y-9600000D03*
D26*
X49100000Y-9600000D03*
D24*
X81400000Y-38200000D03*
X81400000Y-40200000D03*
X48000000Y-31600000D03*
X48000000Y-33600000D03*
D22*
X53800000Y-30400000D03*
X51800000Y-30400000D03*
D27*
X45100000Y-11500000D03*
X45900000Y-11500000D03*
D24*
X37250000Y-19750000D03*
X37250000Y-21750000D03*
D22*
X34250000Y-31250000D03*
X36250000Y-31250000D03*
X34250000Y-35000000D03*
X36250000Y-35000000D03*
X59000000Y-26000000D03*
X57000000Y-26000000D03*
D24*
X36400000Y-39200000D03*
X36400000Y-37200000D03*
X42000000Y-41000000D03*
X42000000Y-39000000D03*
D22*
X52000000Y-34600000D03*
X50000000Y-34600000D03*
X54500000Y-22500000D03*
X52500000Y-22500000D03*
D24*
X85500000Y-49750000D03*
X85500000Y-47750000D03*
D28*
X87750000Y-54998980D03*
X87750000Y-51001020D03*
X87750000Y-42501020D03*
X87750000Y-46498980D03*
D29*
X85149100Y-28800360D03*
X85149100Y-33199640D03*
D30*
X56500000Y-66410000D03*
X56500000Y-65140000D03*
X56500000Y-63870000D03*
X56500000Y-61330000D03*
X56500000Y-60060000D03*
D14*
X65650000Y-62600000D03*
D30*
X56500000Y-58790000D03*
X34800000Y-58690000D03*
X34800000Y-59960000D03*
X34800000Y-61230000D03*
X34800000Y-63770000D03*
X34800000Y-65040000D03*
D14*
X25650000Y-62500000D03*
D30*
X34800000Y-66310000D03*
D31*
X72350000Y-32000000D03*
X73300000Y-32000000D03*
X74250000Y-32000000D03*
X74250000Y-29800000D03*
X72350000Y-29800000D03*
D32*
X76300000Y-42700000D03*
D33*
X75030000Y-42700000D03*
X73760000Y-42700000D03*
X72490000Y-42700000D03*
X71220000Y-42700000D03*
X75030000Y-41430000D03*
X73760000Y-41430000D03*
X72490000Y-41430000D03*
X71220000Y-41430000D03*
X76300000Y-41430000D03*
D22*
X17500000Y-23250000D03*
X19500000Y-23250000D03*
X76300000Y-45100000D03*
X74300000Y-45100000D03*
D34*
X22500000Y-89000000D03*
X19500000Y-89000000D03*
D35*
X35800000Y-74200000D03*
X35800000Y-77200000D03*
X71500000Y-81250000D03*
X71500000Y-84250000D03*
D36*
X26950000Y-90250000D03*
D37*
X32395000Y-92155000D03*
D38*
X32395000Y-90885000D03*
X32395000Y-89615000D03*
X32395000Y-88345000D03*
D36*
X28650000Y-90250000D03*
D39*
X29952500Y-90250000D03*
D40*
X30617500Y-90250000D03*
D41*
X36000000Y-86050000D03*
D42*
X37905000Y-80605000D03*
D43*
X36635000Y-80605000D03*
X35365000Y-80605000D03*
X34095000Y-80605000D03*
D41*
X36000000Y-84350000D03*
D44*
X36000000Y-83047500D03*
D45*
X36000000Y-82382500D03*
D36*
X66800000Y-90500000D03*
D37*
X61355000Y-88595000D03*
D38*
X61355000Y-89865000D03*
X61355000Y-91135000D03*
X61355000Y-92405000D03*
D36*
X65100000Y-90500000D03*
D39*
X63797500Y-90500000D03*
D40*
X63132500Y-90500000D03*
D41*
X57000000Y-86300000D03*
D42*
X58905000Y-80855000D03*
D43*
X57635000Y-80855000D03*
X56365000Y-80855000D03*
X55095000Y-80855000D03*
D41*
X57000000Y-84600000D03*
D44*
X57000000Y-83297500D03*
D45*
X57000000Y-82632500D03*
D46*
X77700000Y-35250000D03*
X79800000Y-35250000D03*
D47*
X38500000Y-38150000D03*
X38500000Y-36050000D03*
X46800000Y-49250000D03*
X46800000Y-47150000D03*
D46*
X47350000Y-55100000D03*
X45250000Y-55100000D03*
D47*
X44800000Y-17050000D03*
X44800000Y-19150000D03*
X41700000Y-19150000D03*
X41700000Y-17050000D03*
D46*
X64300000Y-33950000D03*
X66400000Y-33950000D03*
X52450000Y-26400000D03*
X50350000Y-26400000D03*
X50350000Y-28400000D03*
X52450000Y-28400000D03*
D19*
X11500000Y-86700000D03*
X8500000Y-86700000D03*
D48*
X19000000Y-79500000D03*
X19000000Y-76500000D03*
X71500000Y-93250000D03*
X71500000Y-96250000D03*
D19*
X76000000Y-92000000D03*
X79000000Y-92000000D03*
X76000000Y-87400000D03*
X79000000Y-87400000D03*
X76000000Y-89700000D03*
X79000000Y-89700000D03*
D49*
X56950000Y-90000000D03*
X36050000Y-90000000D03*
D50*
X53050000Y-72500000D03*
X54950000Y-72500000D03*
D51*
X8040000Y-43325000D03*
X8040000Y-49415000D03*
X8040000Y-45355000D03*
X8040000Y-47385000D03*
X9820000Y-44345000D03*
X9820000Y-46375000D03*
X9820000Y-48405000D03*
X9820000Y-50435000D03*
D52*
X5500000Y-24775000D03*
D23*
X8930000Y-55000000D03*
D51*
X9820000Y-34685000D03*
X9820000Y-32655000D03*
X9820000Y-30625000D03*
X9820000Y-28595000D03*
X8040000Y-31635000D03*
X8040000Y-29605000D03*
X8040000Y-33665000D03*
X8040000Y-27575000D03*
D52*
X5500000Y-53225000D03*
D23*
X8930000Y-23000000D03*
D50*
X63500000Y-79950000D03*
X63500000Y-78050000D03*
X65500000Y-79950000D03*
X65500000Y-78050000D03*
D53*
X78416000Y-38860400D03*
X78416000Y-37539600D03*
X76384000Y-38200000D03*
D54*
X81700000Y-23400000D03*
X81700000Y-22600000D03*
X83100000Y-23000000D03*
D55*
X11000000Y-79286000D03*
D56*
X4650000Y-77000000D03*
D55*
X11000000Y-74714000D03*
D28*
X60106244Y-47706298D03*
X60106244Y-51704258D03*
D46*
X57950000Y-54500000D03*
X60050000Y-54500000D03*
D57*
X22798980Y-32850000D03*
X18801020Y-32850000D03*
D47*
X17750000Y-26450000D03*
X17750000Y-28550000D03*
D24*
X27100000Y-33200000D03*
X27100000Y-31200000D03*
D22*
X11500000Y-89000000D03*
X9500000Y-89000000D03*
D24*
X40400000Y-73600000D03*
X40400000Y-75600000D03*
D58*
X22251160Y-28100000D03*
X26548840Y-28100000D03*
X22401160Y-23750000D03*
X26698840Y-23750000D03*
D59*
X76888154Y-84361846D03*
X66111846Y-95138154D03*
X66111846Y-84361846D03*
D10*
G36*
X72702082Y-89750000D02*
X71500000Y-90952082D01*
X70297918Y-89750000D01*
X71500000Y-88547918D01*
X72702082Y-89750000D01*
X72702082Y-89750000D01*
G37*
D59*
X76888154Y-95138154D03*
D22*
X12500000Y-72000000D03*
X14500000Y-72000000D03*
D24*
X13500000Y-89000000D03*
X13500000Y-91000000D03*
X73900000Y-93200000D03*
X73900000Y-95200000D03*
X69100000Y-93200000D03*
X69100000Y-95200000D03*
D19*
X44500000Y-38000000D03*
X47500000Y-38000000D03*
D24*
X41900000Y-80200000D03*
X41900000Y-78200000D03*
D28*
X14750000Y-54748980D03*
X14750000Y-50751020D03*
X14750000Y-43251020D03*
X14750000Y-47248980D03*
D16*
X50735000Y-76300000D03*
X47465000Y-76300000D03*
D17*
X65925000Y-45550000D03*
X65275000Y-45550000D03*
X64625000Y-45550000D03*
X63975000Y-45550000D03*
X63975000Y-49035000D03*
X64625000Y-49035000D03*
X65275000Y-49035000D03*
X65925000Y-49035000D03*
D18*
X64950000Y-46900000D03*
D20*
X54700000Y-47300000D03*
X54050000Y-47300000D03*
X53400000Y-47300000D03*
X52750000Y-47300000D03*
X52100000Y-47300000D03*
X51450000Y-47300000D03*
X50800000Y-47300000D03*
X50800000Y-53200000D03*
X51450000Y-53200000D03*
X52100000Y-53200000D03*
X52750000Y-53200000D03*
X53400000Y-53200000D03*
X54050000Y-53200000D03*
X54700000Y-53200000D03*
D47*
X55000000Y-42150000D03*
X55000000Y-44250000D03*
X53000000Y-42150000D03*
X53000000Y-44250000D03*
D60*
X63600000Y-41350000D03*
X63600000Y-39450000D03*
X61600000Y-40400000D03*
D24*
X55800000Y-78100000D03*
X55800000Y-76100000D03*
X53800000Y-78100000D03*
X53800000Y-76100000D03*
D50*
X54950000Y-74000000D03*
X53050000Y-74000000D03*
D48*
X3500000Y-83500000D03*
X3500000Y-86500000D03*
D59*
X16000000Y-75880000D03*
X16000000Y-91120000D03*
X8380000Y-83500000D03*
D61*
X16000000Y-83500000D03*
D59*
X23620000Y-83500000D03*
D47*
X44400000Y-51350000D03*
X44400000Y-49250000D03*
X81250000Y-25000000D03*
X81250000Y-27100000D03*
D62*
X48650000Y-29200000D03*
X47350000Y-29200000D03*
X48000000Y-27600000D03*
D61*
X19500000Y-71000000D03*
D63*
X22040000Y-71000000D03*
D61*
X37000000Y-26200000D03*
D63*
X37000000Y-28740000D03*
D64*
X65650000Y-29500000D03*
X67550000Y-29500000D03*
X66600000Y-27500000D03*
D19*
X49250000Y-106500000D03*
X52250000Y-106500000D03*
X49250000Y-109250000D03*
X52250000Y-109250000D03*
D24*
X75700000Y-36400000D03*
X75700000Y-34400000D03*
D22*
X39500000Y-108000000D03*
X41500000Y-108000000D03*
D65*
X44357000Y-110050001D03*
X46643000Y-110050001D03*
D24*
X73600000Y-26000000D03*
X73600000Y-24000000D03*
D66*
X78100000Y-25750000D03*
X78100000Y-24800000D03*
X78100000Y-23850000D03*
X75900000Y-23850000D03*
X75900000Y-25750000D03*
D67*
X42600000Y-53400000D03*
X43400000Y-53400000D03*
X43000000Y-54800000D03*
D54*
X48600000Y-51400000D03*
X48600000Y-52200000D03*
X47200000Y-51800000D03*
D67*
X79350000Y-54800000D03*
X80150000Y-54800000D03*
X79750000Y-56200000D03*
D46*
X54550000Y-24500000D03*
X52450000Y-24500000D03*
D68*
X30000000Y-85500000D03*
X29000000Y-78000000D03*
X20500000Y-82000000D03*
D69*
X41900000Y-73600000D03*
D68*
X67400000Y-77600000D03*
X49700000Y-80900000D03*
X43500000Y-80800000D03*
X65000000Y-98000000D03*
X68000000Y-96500000D03*
X69500000Y-96500000D03*
X70500000Y-97500000D03*
X72500000Y-97500000D03*
X73500000Y-96500000D03*
X75000000Y-96500000D03*
X89000000Y-98000000D03*
X79500000Y-96000000D03*
X79500000Y-94000000D03*
X80500000Y-91000000D03*
X80500000Y-89500000D03*
X80500000Y-88000000D03*
X80500000Y-86500000D03*
X89000000Y-89500000D03*
X89000000Y-84000000D03*
X79000000Y-85500000D03*
X14000000Y-95000000D03*
X12500000Y-95000000D03*
X10500000Y-95000000D03*
X10500000Y-92500000D03*
X12500000Y-92500000D03*
X14000000Y-92500000D03*
X2000000Y-88000000D03*
X2000000Y-98000000D03*
X16000000Y-98000000D03*
X25500000Y-84000000D03*
X22500000Y-81500000D03*
X25500000Y-81500000D03*
X21000000Y-76500000D03*
X19500000Y-75000000D03*
X17500000Y-74500000D03*
X15500000Y-73000000D03*
X34500000Y-72500000D03*
X59400000Y-77800000D03*
X59800000Y-79300000D03*
X58400000Y-79300000D03*
X57100000Y-79300000D03*
X9500000Y-90500000D03*
X8000000Y-89000000D03*
X3500000Y-88000000D03*
X7000000Y-87000000D03*
D69*
X46500000Y-77600000D03*
D68*
X32500000Y-72500000D03*
X28500000Y-74000000D03*
X30500000Y-74000000D03*
X30500000Y-72500000D03*
X55900000Y-21700000D03*
X57450000Y-48050000D03*
X13500000Y-79500000D03*
X40400000Y-29400000D03*
X47800000Y-26200000D03*
X53750000Y-26500000D03*
X49400000Y-30400000D03*
X42200000Y-31200000D03*
X48600000Y-36800000D03*
X41000000Y-35500000D03*
D69*
X43250000Y-18250000D03*
X42500000Y-5000000D03*
X44250000Y-5000000D03*
X44250000Y-7000000D03*
X42500000Y-7000000D03*
X42500000Y-8750000D03*
X44250000Y-8750000D03*
X44250000Y-10500000D03*
X42500000Y-10500000D03*
X42500000Y-12500000D03*
X44250000Y-12500000D03*
X43250000Y-15750000D03*
X43250000Y-19250000D03*
X46250000Y-15750000D03*
X40500000Y-15750000D03*
D68*
X39600000Y-26200000D03*
X52400000Y-57800000D03*
X64250000Y-70500000D03*
X62000000Y-75000000D03*
X62500000Y-76500000D03*
X44100000Y-68400000D03*
X45912500Y-70368750D03*
X42700000Y-66200000D03*
X56000000Y-72400000D03*
X57200000Y-78100000D03*
X53600000Y-79300000D03*
X36800000Y-71550000D03*
X34700000Y-70400000D03*
X41200000Y-66200000D03*
X47487500Y-74231250D03*
X47487500Y-72943750D03*
X47487500Y-71656250D03*
X47487500Y-70368750D03*
X45912500Y-71656250D03*
X45912500Y-72943750D03*
X45912500Y-74231250D03*
X58400000Y-69600000D03*
X16500000Y-23250000D03*
X22500000Y-26500000D03*
X23450000Y-52900000D03*
X18350000Y-50600000D03*
X18400000Y-55100000D03*
X27750000Y-50450000D03*
X25700000Y-50550000D03*
X23200000Y-50300000D03*
X23300000Y-42400000D03*
X24250000Y-40900000D03*
X26850000Y-40950000D03*
X25050000Y-43700000D03*
X28400000Y-43700000D03*
X28350000Y-39150000D03*
X28200000Y-34650000D03*
X23900000Y-37450000D03*
X26750000Y-37450000D03*
X34000000Y-43500000D03*
X30400000Y-43300000D03*
X39500000Y-51300000D03*
X37500000Y-51500000D03*
X35700000Y-50900000D03*
X17700000Y-25100000D03*
X32000000Y-26500000D03*
X19750000Y-22000000D03*
X22250000Y-22000000D03*
D69*
X60250000Y-35650000D03*
X60250000Y-37300000D03*
X53250000Y-33000000D03*
X53600000Y-35800000D03*
X53250000Y-38750000D03*
X59850000Y-33250000D03*
X60000000Y-39000000D03*
X58900000Y-39000000D03*
X55350000Y-39000000D03*
X59850000Y-32600000D03*
X57700000Y-31750000D03*
X55400000Y-31800000D03*
X70100000Y-40300000D03*
X68000000Y-36700000D03*
X80300000Y-28800000D03*
D68*
X20100000Y-66300000D03*
X27000000Y-58500000D03*
X27000000Y-59500000D03*
X27000000Y-60500000D03*
X11000000Y-73000000D03*
D69*
X74300000Y-35300000D03*
X72700000Y-33900000D03*
X68450000Y-34100000D03*
X67750000Y-32000000D03*
X74900000Y-30000000D03*
X74300000Y-33200000D03*
X60800000Y-86900000D03*
D68*
X53300000Y-83300000D03*
X60400000Y-81600000D03*
X59800000Y-92400000D03*
X50800000Y-82200000D03*
D69*
X39800000Y-76600000D03*
D68*
X42000000Y-69700000D03*
D69*
X47400000Y-77700000D03*
D68*
X63950000Y-26600000D03*
X12200000Y-53800000D03*
X40200000Y-69700000D03*
X33400000Y-71200000D03*
X63400000Y-27850000D03*
D69*
X38000000Y-71000000D03*
X44500000Y-67200000D03*
D68*
X17000000Y-54500000D03*
D69*
X84500000Y-41900000D03*
D68*
X71200000Y-57800000D03*
X88400000Y-80600000D03*
X61200000Y-68800000D03*
X70000000Y-69000000D03*
X37600000Y-55000000D03*
X30400000Y-49000000D03*
X31800000Y-49000000D03*
X33200000Y-49000000D03*
X34200000Y-48400000D03*
X35900000Y-54100000D03*
X34400000Y-41300000D03*
X73150000Y-71200000D03*
X60400000Y-29400000D03*
X88000000Y-86000000D03*
X27500000Y-98500000D03*
X61500000Y-98000000D03*
X74600000Y-38300000D03*
X70900000Y-27800000D03*
X61600000Y-42600000D03*
X20000000Y-93000000D03*
X31400000Y-80500000D03*
X32900000Y-80700000D03*
X25000000Y-93400000D03*
X21600000Y-85400000D03*
X40250000Y-79300000D03*
X50000000Y-68100000D03*
X51700000Y-72700000D03*
X32000000Y-96000000D03*
X55500000Y-96000000D03*
X38000000Y-68500000D03*
X15000000Y-70500000D03*
D69*
X46900000Y-67000000D03*
D68*
X58600000Y-71000000D03*
X44500000Y-40000000D03*
X83500000Y-39500000D03*
X85000000Y-37500000D03*
X83500000Y-38000000D03*
X17200000Y-29800000D03*
X25300000Y-31700000D03*
X74600000Y-72600000D03*
X59000000Y-96500000D03*
X59600000Y-72600000D03*
X50800000Y-69200000D03*
X76400000Y-77400000D03*
X18900000Y-29800000D03*
X41950000Y-75050000D03*
X51700000Y-76100000D03*
X70750000Y-51000000D03*
X53750000Y-55150000D03*
X5300000Y-80500000D03*
X4800000Y-75100000D03*
X46100000Y-80900000D03*
X20500000Y-84500000D03*
X52000000Y-73800000D03*
X36700000Y-62500000D03*
X50700000Y-58700000D03*
X46000000Y-52200000D03*
X54600000Y-51200000D03*
X62000000Y-47300000D03*
X57500000Y-56500000D03*
X73850000Y-50350000D03*
X25000000Y-72500000D03*
X68450000Y-46850000D03*
X62950000Y-47275000D03*
X60200000Y-40600000D03*
X73900000Y-22700000D03*
X71000000Y-22600000D03*
X49700000Y-50700000D03*
X24000000Y-55100000D03*
X42600000Y-51900000D03*
X80000000Y-23600000D03*
X60250000Y-26000000D03*
X57250000Y-23250000D03*
X56000000Y-46000000D03*
X50150000Y-44550000D03*
X65100000Y-43300000D03*
X69400000Y-45200000D03*
X80400000Y-32600000D03*
X75600000Y-33400000D03*
X58250000Y-53000000D03*
X56500000Y-42750000D03*
X56250000Y-29250000D03*
D69*
X82250000Y-48750000D03*
X82500000Y-46000000D03*
D68*
X74400000Y-46400000D03*
X74200000Y-36600000D03*
X70300000Y-53200000D03*
X70500000Y-49000000D03*
X66600000Y-26200000D03*
D69*
X80998844Y-44089029D03*
X81823844Y-44089029D03*
X81823844Y-43376529D03*
X80998844Y-43376529D03*
X80998844Y-42664029D03*
X81823844Y-42664029D03*
X81823844Y-41951529D03*
X80998844Y-41951529D03*
D68*
X53750000Y-58250000D03*
X33800000Y-67600000D03*
D69*
X65550000Y-31400000D03*
D68*
X68000000Y-23150000D03*
X48900000Y-53400000D03*
X44100000Y-55600000D03*
D69*
X70700000Y-29200000D03*
D68*
X39800000Y-39100000D03*
X44600000Y-36300000D03*
D69*
X26600000Y-46050000D03*
D68*
X72800000Y-21900000D03*
D70*
G36*
X79950000Y-20450000D02*
X47300000Y-20450000D01*
X47300000Y-14750000D01*
X47296061Y-14730547D01*
X47284864Y-14714160D01*
X47268173Y-14703419D01*
X47250000Y-14700000D01*
X45800000Y-14700000D01*
X45800000Y-2300000D01*
X79950000Y-2300000D01*
X79950000Y-20450000D01*
X79950000Y-20450000D01*
G37*
X79950000Y-20450000D02*
X47300000Y-20450000D01*
X47300000Y-14750000D01*
X47296061Y-14730547D01*
X47284864Y-14714160D01*
X47268173Y-14703419D01*
X47250000Y-14700000D01*
X45800000Y-14700000D01*
X45800000Y-2300000D01*
X79950000Y-2300000D01*
X79950000Y-20450000D01*
M02*
