<?xml version="1.0" standalone="no"?>
 <!DOCTYPE svg PUBLIC "-//W3C//DTD SVG 1.1//EN" 
 "http://www.w3.org/Graphics/SVG/1.1/DTD/svg11.dtd"> 
<svg xmlns="http://www.w3.org/2000/svg" version="1.1" 
    width="17.0002cm" height="15.0012cm" viewBox="0 0 66930 59060 ">
<title>SVG Picture created as 6WayEQ-Dwgs_User.svg date 2016/01/21 12:00:08 </title>
  <desc>Picture generated by PCBNEW </desc>
<g style="fill:#000000; fill-opacity:1;stroke:#000000; stroke-opacity:1;
stroke-linecap:round; stroke-linejoin:round; "
 transform="translate(0 0) scale(1 1)">
</g>
<g style="fill:#000000; fill-opacity:0.0; 
stroke:#000000; stroke-width:39.3701; stroke-opacity:1; 
stroke-linecap:round; stroke-linejoin:round;">
<path d="M4000 4000
L62930 4000
L62930 55060
L4000 55060
L4000 4000
" />
<path d="M4700 4700
L62230 4700
L62230 54360
L4700 54360
L4700 4700
" />
<path d="M33460 4000
L33460 4700
" />
<path d="M18872 4552
L18587 4552
" />
<path d="M18730 4552
L18730 4052
L18682 4123
L18634 4171
L18587 4195
" />
<path d="M33460 55060
L33460 54360
" />
<path d="M18872 54912
L18587 54912
" />
<path d="M18730 54912
L18730 54412
L18682 54483
L18634 54531
L18587 54555
" />
<path d="M48047 4100
L48070 4076
L48118 4052
L48237 4052
L48285 4076
L48309 4100
L48332 4147
L48332 4195
L48309 4266
L48023 4552
L48332 4552
" />
<path d="M48047 54460
L48070 54436
L48118 54412
L48237 54412
L48285 54436
L48309 54460
L48332 54507
L48332 54555
L48309 54626
L48023 54912
L48332 54912
" />
<path d="M4000 29530
L4700 29530
" />
<path d="M4230 16829
L4469 16829
" />
<path d="M4183 16972
L4350 16472
L4516 16972
" />
<path d="M62930 29530
L62230 29530
" />
<path d="M62460 16829
L62699 16829
" />
<path d="M62413 16972
L62580 16472
L62746 16972
" />
<path d="M4385 42240
L4457 42264
L4480 42288
L4504 42335
L4504 42407
L4480 42454
L4457 42478
L4409 42502
L4219 42502
L4219 42002
L4385 42002
L4433 42026
L4457 42050
L4480 42097
L4480 42145
L4457 42192
L4433 42216
L4385 42240
L4219 42240
" />
<path d="M62615 42240
L62687 42264
L62710 42288
L62734 42335
L62734 42407
L62710 42454
L62687 42478
L62639 42502
L62449 42502
L62449 42002
L62615 42002
L62663 42026
L62687 42050
L62710 42097
L62710 42145
L62687 42192
L62663 42216
L62615 42240
L62449 42240
" />
<path d="M29380 52802
L29455 52202
L29597 52202
L29680 52231
L29730 52288
L29751 52345
L29765 52460
L29755 52545
L29712 52660
L29676 52717
L29612 52774
L29522 52802
L29380 52802
" />
<path d="M30237 52802
L30276 52488
L30255 52431
L30201 52402
L30087 52402
L30026 52431
" />
<path d="M30240 52774
L30180 52802
L30037 52802
L29983 52774
L29962 52717
L29969 52660
L30005 52602
L30065 52574
L30208 52574
L30269 52545
" />
<path d="M30487 52402
L30715 52402
" />
<path d="M30597 52202
L30533 52717
L30555 52774
L30608 52802
L30665 52802
" />
<path d="M31097 52774
L31037 52802
L30922 52802
L30869 52774
L30847 52717
L30876 52488
L30912 52431
L30972 52402
L31087 52402
L31140 52431
L31162 52488
L31155 52545
L30862 52602
" />
<path d="M31387 52745
L31412 52774
L31380 52802
L31355 52774
L31387 52745
L31380 52802
" />
<path d="M31426 52431
L31451 52460
L31419 52488
L31394 52460
L31426 52431
L31419 52488
" />
<path d="M32162 52260
L32194 52231
L32255 52202
L32397 52202
L32451 52231
L32476 52260
L32497 52317
L32490 52374
L32451 52460
L32065 52802
L32437 52802
" />
<path d="M33008 52802
L32665 52802
" />
<path d="M32837 52802
L32912 52202
L32844 52288
L32780 52345
L32719 52374
" />
<path d="M33772 52402
L33708 52917
L33672 52974
L33612 53002
L33583 53002
" />
<path d="M33797 52202
L33765 52231
L33790 52260
L33822 52231
L33797 52202
L33790 52260
" />
<path d="M34265 52802
L34305 52488
L34283 52431
L34230 52402
L34115 52402
L34055 52431
" />
<path d="M34269 52774
L34208 52802
L34065 52802
L34012 52774
L33990 52717
L33997 52660
L34033 52602
L34094 52574
L34237 52574
L34297 52545
" />
<path d="M34601 52402
L34551 52802
" />
<path d="M34594 52460
L34626 52431
L34687 52402
L34772 52402
L34826 52431
L34847 52488
L34808 52802
" />
<path d="M35590 52260
L35622 52231
L35683 52202
L35826 52202
L35880 52231
L35905 52260
L35926 52317
L35919 52374
L35880 52460
L35494 52802
L35865 52802
" />
<path d="M36312 52202
L36369 52202
L36422 52231
L36447 52260
L36469 52317
L36483 52431
L36465 52574
L36422 52688
L36387 52745
L36355 52774
L36294 52802
L36237 52802
L36183 52774
L36158 52745
L36137 52688
L36122 52574
L36140 52431
L36183 52317
L36219 52260
L36251 52231
L36312 52202
" />
<path d="M37008 52802
L36665 52802
" />
<path d="M36837 52802
L36912 52202
L36844 52288
L36780 52345
L36719 52374
" />
<path d="M37597 52202
L37483 52202
L37422 52231
L37390 52260
L37322 52345
L37280 52460
L37251 52688
L37272 52745
L37297 52774
L37351 52802
L37465 52802
L37526 52774
L37558 52745
L37594 52688
L37612 52545
L37590 52488
L37565 52460
L37512 52431
L37397 52431
L37337 52460
L37305 52488
L37269 52545
" />
<path d="M20972 54002
L20972 53402
" />
<path d="M21315 54002
L21058 53660
" />
<path d="M21315 53402
L20972 53745
" />
<path d="M21572 54002
L21572 53602
" />
<path d="M21572 53402
L21544 53431
L21572 53460
L21601 53431
L21572 53402
L21572 53460
" />
<path d="M22201 53945
L22172 53974
L22087 54002
L22030 54002
L21944 53974
L21887 53917
L21858 53860
L21830 53745
L21830 53660
L21858 53545
L21887 53488
L21944 53431
L22030 53402
L22087 53402
L22172 53431
L22201 53460
" />
<path d="M22715 54002
L22715 53688
L22687 53631
L22630 53602
L22515 53602
L22458 53631
" />
<path d="M22715 53974
L22658 54002
L22515 54002
L22458 53974
L22430 53917
L22430 53860
L22458 53802
L22515 53774
L22658 53774
L22715 53745
" />
<path d="M23258 54002
L23258 53402
" />
<path d="M23258 53974
L23201 54002
L23087 54002
L23030 53974
L23001 53945
L22972 53888
L22972 53717
L23001 53660
L23030 53631
L23087 53602
L23201 53602
L23258 53631
" />
<path d="M24001 53688
L24201 53688
" />
<path d="M24287 54002
L24001 54002
L24001 53402
L24287 53402
" />
<path d="M24544 53945
L24572 53974
L24544 54002
L24515 53974
L24544 53945
L24544 54002
" />
<path d="M24829 54002
L24829 53402
L24972 53402
L25058 53431
L25115 53488
L25144 53545
L25172 53660
L25172 53745
L25144 53860
L25115 53917
L25058 53974
L24972 54002
L24829 54002
" />
<path d="M25429 53945
L25458 53974
L25429 54002
L25401 53974
L25429 53945
L25429 54002
" />
<path d="M25687 53831
L25972 53831
" />
<path d="M25629 54002
L25829 53402
L26029 54002
" />
<path d="M26229 53945
L26258 53974
L26229 54002
L26201 53974
L26229 53945
L26229 54002
" />
<path d="M54522 52802
L54358 52517
" />
<path d="M54180 52802
L54255 52202
L54483 52202
L54537 52231
L54562 52260
L54583 52317
L54572 52402
L54537 52460
L54505 52488
L54444 52517
L54215 52517
" />
<path d="M55012 52774
L54951 52802
L54837 52802
L54783 52774
L54762 52717
L54790 52488
L54826 52431
L54887 52402
L55001 52402
L55055 52431
L55076 52488
L55069 52545
L54776 52602
" />
<path d="M55287 52402
L55380 52802
L55572 52402
" />
<path d="M55758 52745
L55783 52774
L55751 52802
L55726 52774
L55758 52745
L55751 52802
" />
<path d="M55797 52431
L55822 52460
L55790 52488
L55765 52460
L55797 52431
L55790 52488
" />
<path d="M20944 52774
L21030 52802
L21172 52802
L21230 52774
L21258 52745
L21287 52688
L21287 52631
L21258 52574
L21230 52545
L21172 52517
L21058 52488
L21001 52460
L20972 52431
L20944 52374
L20944 52317
L20972 52260
L21001 52231
L21058 52202
L21201 52202
L21287 52231
" />
<path d="M21544 52802
L21544 52402
" />
<path d="M21544 52202
L21515 52231
L21544 52260
L21572 52231
L21544 52202
L21544 52260
" />
<path d="M21772 52402
L22087 52402
L21772 52802
L22087 52802
" />
<path d="M22544 52774
L22487 52802
L22372 52802
L22315 52774
L22287 52717
L22287 52488
L22315 52431
L22372 52402
L22487 52402
L22544 52431
L22572 52488
L22572 52545
L22287 52602
" />
<path d="M22830 52745
L22858 52774
L22830 52802
L22801 52774
L22830 52745
L22830 52802
" />
<path d="M22830 52431
L22858 52460
L22830 52488
L22801 52460
L22830 52431
L22830 52488
" />
<path d="M23572 52202
L23572 52688
L23601 52745
L23630 52774
L23687 52802
L23801 52802
L23858 52774
L23887 52745
L23915 52688
L23915 52202
" />
<path d="M24172 52774
L24230 52802
L24344 52802
L24401 52774
L24430 52717
L24430 52688
L24401 52631
L24344 52602
L24258 52602
L24201 52574
L24172 52517
L24172 52488
L24201 52431
L24258 52402
L24344 52402
L24401 52431
" />
<path d="M24915 52774
L24858 52802
L24744 52802
L24687 52774
L24658 52717
L24658 52488
L24687 52431
L24744 52402
L24858 52402
L24915 52431
L24944 52488
L24944 52545
L24658 52602
" />
<path d="M25201 52802
L25201 52402
" />
<path d="M25201 52517
L25230 52460
L25258 52431
L25315 52402
L25372 52402
" />
<path d="M54172 54002
L54172 53402
" />
<path d="M54715 54002
L54715 53402
" />
<path d="M54715 53974
L54658 54002
L54544 54002
L54487 53974
L54458 53945
L54430 53888
L54430 53717
L54458 53660
L54487 53631
L54544 53602
L54658 53602
L54715 53631
" />
<path d="M55001 53945
L55030 53974
L55001 54002
L54972 53974
L55001 53945
L55001 54002
" />
<path d="M55001 53631
L55030 53660
L55001 53688
L54972 53660
L55001 53631
L55001 53688
" />
<path d="M56058 54002
L55715 54002
" />
<path d="M55887 54002
L55887 53402
L55829 53488
L55772 53545
L55715 53574
" />
<path d="M56744 53374
L56230 54145
" />
<path d="M57258 54002
L56915 54002
" />
<path d="M57087 54002
L57087 53402
L57029 53488
L56972 53545
L56915 53574
" />
<path d="M20969 51002
L21312 51002
" />
<path d="M21065 51602
L21140 51002
" />
<path d="M21437 51602
L21487 51202
" />
<path d="M21512 51002
L21480 51031
L21505 51060
L21537 51031
L21512 51002
L21505 51060
" />
<path d="M21687 51202
L21915 51202
" />
<path d="M21797 51002
L21733 51517
L21755 51574
L21808 51602
L21865 51602
" />
<path d="M22151 51602
L22097 51574
L22076 51517
L22140 51002
" />
<path d="M22612 51574
L22551 51602
L22437 51602
L22383 51574
L22362 51517
L22390 51288
L22426 51231
L22487 51202
L22601 51202
L22655 51231
L22676 51288
L22669 51345
L22376 51402
" />
<path d="M22901 51545
L22926 51574
L22894 51602
L22869 51574
L22901 51545
L22894 51602
" />
<path d="M22940 51231
L22965 51260
L22933 51288
L22908 51260
L22940 51231
L22933 51288
" />
<path d="M21172 48888
L20972 48888
" />
<path d="M20972 49202
L20972 48602
L21258 48602
" />
<path d="M21487 49202
L21487 48802
" />
<path d="M21487 48602
L21458 48631
L21487 48660
L21515 48631
L21487 48602
L21487 48660
" />
<path d="M21858 49202
L21801 49174
L21772 49117
L21772 48602
" />
<path d="M22315 49174
L22258 49202
L22144 49202
L22087 49174
L22058 49117
L22058 48888
L22087 48831
L22144 48802
L22258 48802
L22315 48831
L22344 48888
L22344 48945
L22058 49002
" />
<path d="M22601 49145
L22630 49174
L22601 49202
L22572 49174
L22601 49145
L22601 49202
" />
<path d="M22601 48831
L22630 48860
L22601 48888
L22572 48860
L22601 48831
L22601 48888
" />
<path d="M23601 48602
L23487 48602
L23430 48631
L23401 48660
L23344 48745
L23315 48860
L23315 49088
L23344 49145
L23372 49174
L23430 49202
L23544 49202
L23601 49174
L23630 49145
L23658 49088
L23658 48945
L23630 48888
L23601 48860
L23544 48831
L23430 48831
L23372 48860
L23344 48888
L23315 48945
" />
<path d="M23858 48602
L24001 49202
L24115 48774
L24230 49202
L24372 48602
" />
<path d="M24858 49202
L24858 48888
L24830 48831
L24772 48802
L24658 48802
L24601 48831
" />
<path d="M24858 49174
L24801 49202
L24658 49202
L24601 49174
L24572 49117
L24572 49060
L24601 49002
L24658 48974
L24801 48974
L24858 48945
" />
<path d="M25087 48802
L25230 49202
" />
<path d="M25372 48802
L25230 49202
L25172 49345
L25144 49374
L25087 49402
" />
<path d="M25601 48888
L25801 48888
" />
<path d="M25887 49202
L25601 49202
L25601 48602
L25887 48602
" />
<path d="M26544 49260
L26487 49231
L26430 49174
L26344 49088
L26287 49060
L26230 49060
" />
<path d="M26258 49202
L26201 49174
L26144 49117
L26115 49002
L26115 48802
L26144 48688
L26201 48631
L26258 48602
L26372 48602
L26430 48631
L26487 48688
L26515 48802
L26515 49002
L26487 49117
L26430 49174
L26372 49202
L26258 49202
" />
<path d="M26772 49145
L26801 49174
L26772 49202
L26744 49174
L26772 49145
L26772 49202
" />
<path d="M27058 49202
L27058 48602
" />
<path d="M27115 48974
L27287 49202
" />
<path d="M27287 48802
L27058 49031
" />
<path d="M27544 49202
L27544 48802
" />
<path d="M27544 48602
L27515 48631
L27544 48660
L27572 48631
L27544 48602
L27544 48660
" />
<path d="M28087 49174
L28029 49202
L27915 49202
L27858 49174
L27829 49145
L27801 49088
L27801 48917
L27829 48860
L27858 48831
L27915 48802
L28029 48802
L28087 48831
" />
<path d="M28601 49202
L28601 48888
L28572 48831
L28515 48802
L28401 48802
L28344 48831
" />
<path d="M28601 49174
L28544 49202
L28401 49202
L28344 49174
L28315 49117
L28315 49060
L28344 49002
L28401 48974
L28544 48974
L28601 48945
" />
<path d="M29144 49202
L29144 48602
" />
<path d="M29144 49174
L29087 49202
L28972 49202
L28915 49174
L28887 49145
L28858 49088
L28858 48917
L28887 48860
L28915 48831
L28972 48802
L29087 48802
L29144 48831
" />
<path d="M29287 49260
L29744 49260
" />
<path d="M29887 48802
L29887 49402
" />
<path d="M29887 48831
L29944 48802
L30058 48802
L30115 48831
L30144 48860
L30172 48917
L30172 49088
L30144 49145
L30115 49174
L30058 49202
L29944 49202
L29887 49174
" />
<path d="M30687 49174
L30629 49202
L30515 49202
L30458 49174
L30429 49145
L30401 49088
L30401 48917
L30429 48860
L30458 48831
L30515 48802
L30629 48802
L30687 48831
" />
<path d="M30944 49202
L30944 48602
" />
<path d="M30944 48831
L31001 48802
L31115 48802
L31172 48831
L31201 48860
L31229 48917
L31229 49088
L31201 49145
L31172 49174
L31115 49202
L31001 49202
L30944 49174
" />
<path d="M20944 50374
L21030 50402
L21172 50402
L21230 50374
L21258 50345
L21287 50288
L21287 50231
L21258 50174
L21230 50145
L21172 50117
L21058 50088
L21001 50060
L20972 50031
L20944 49974
L20944 49917
L20972 49860
L21001 49831
L21058 49802
L21201 49802
L21287 49831
" />
<path d="M21544 50402
L21544 49802
" />
<path d="M21801 50402
L21801 50088
L21772 50031
L21715 50002
L21630 50002
L21572 50031
L21544 50060
" />
<path d="M22315 50374
L22258 50402
L22144 50402
L22087 50374
L22058 50317
L22058 50088
L22087 50031
L22144 50002
L22258 50002
L22315 50031
L22344 50088
L22344 50145
L22058 50202
" />
<path d="M22830 50374
L22772 50402
L22658 50402
L22601 50374
L22572 50317
L22572 50088
L22601 50031
L22658 50002
L22772 50002
L22830 50031
L22858 50088
L22858 50145
L22572 50202
" />
<path d="M23030 50002
L23258 50002
" />
<path d="M23115 49802
L23115 50317
L23144 50374
L23201 50402
L23258 50402
" />
<path d="M23458 50345
L23487 50374
L23458 50402
L23430 50374
L23458 50345
L23458 50402
" />
<path d="M23458 50031
L23487 50060
L23458 50088
L23430 50060
L23458 50031
L23458 50088
" />
<path d="M20230 48360
L20230 54360
" />
<path d="M20230 48360
L62230 48360
" />
<path d="M20230 48360
L62230 48360
" />
<path d="M20230 50760
L62230 50760
" />
<path d="M53430 51960
L53430 54360
" />
<path d="M20230 53160
L62230 53160
" />
<path d="M20230 51960
L62230 51960
" />
<path d="M26830 51960
L26830 53160
" />
</g>
<g style="fill:#000000; fill-opacity:0.0; 
stroke:#000000; stroke-width:78.7402; stroke-opacity:1; 
stroke-linecap:round; stroke-linejoin:round;">
<path d="M60800 47000
L60700 47000
" />
<path d="M60800 46400
L60800 47000
" />
<path d="M5500 46400
L60800 46400
" />
<path d="M5500 46900
L5500 46400
" />
<path d="M60800 46900
L5500 46900
" />
<path d="M60800 44300
L60800 45100
" />
<path d="M5500 44300
L60800 44300
" />
<path d="M5500 45100
L5500 44300
" />
<path d="M60800 45100
L5500 45100
" />
</g> 
</svg>
