<?xml version="1.0" standalone="no"?>
 <!DOCTYPE svg PUBLIC "-//W3C//DTD SVG 1.1//EN" 
 "http://www.w3.org/Graphics/SVG/1.1/DTD/svg11.dtd"> 
<svg xmlns="http://www.w3.org/2000/svg" version="1.1" 
    width="17.5006cm" height="15.0012cm" viewBox="0 0 68900 59060 ">
<title>SVG Picture created as Midirelais_POWER_INPUT-Dwgs_User.svg date 2016/02/05 19:54:59 </title>
  <desc>Picture generated by PCBNEW </desc>
<g style="fill:#000000; fill-opacity:1;stroke:#000000; stroke-opacity:1;
stroke-linecap:round; stroke-linejoin:round; "
 transform="translate(0 0) scale(1 1)">
</g>
<g style="fill:#000000; fill-opacity:0.0; 
stroke:#000000; stroke-width:118.11; stroke-opacity:1; 
stroke-linecap:round; stroke-linejoin:round;">
<path d="M7048 26801
L7049 26689
L7021 26633
L6993 26604
L6909 26548
L6796 26519
L6571 26519
L6515 26547
L6487 26575
L6459 26631
L6458 26743
L6486 26800
L6514 26828
L6570 26856
L6711 26857
L6767 26829
L6795 26801
L6824 26744
L6824 26632
L6796 26576
L6768 26547
L6712 26519
" />
<path d="M7050 26239
L7051 26127
L7023 26070
L6995 26042
L6911 25985
L6798 25957
L6573 25956
L6517 25984
L6489 26012
L6460 26068
L6460 26181
L6488 26237
L6516 26265
L6572 26294
L6713 26294
L6769 26266
L6797 26238
L6826 26182
L6826 26070
L6798 26013
L6770 25985
L6714 25957
" />
<path d="M7024 25677
L7052 25677
L7109 25705
L7137 25733
" />
<path d="M7054 25114
L7053 25452
" />
<path d="M7054 25283
L6463 25281
L6547 25337
L6603 25394
L6631 25450
" />
<path d="M6718 24776
L6690 24832
L6662 24860
L6605 24888
L6577 24888
L6521 24859
L6493 24831
L6465 24775
L6465 24662
L6494 24606
L6522 24578
L6578 24550
L6606 24550
L6663 24579
L6691 24607
L6718 24663
L6718 24776
L6746 24832
L6774 24860
L6830 24888
L6943 24889
L6999 24861
L7027 24833
L7056 24777
L7056 24664
L7028 24608
L7000 24580
L6944 24551
L6831 24551
L6775 24579
L6747 24607
L6718 24663
" />
<path d="M6466 24353
L6468 23959
L7058 24214
" />
<path d="M7061 23286
L6667 23285
" />
<path d="M6723 23285
L6695 23257
L6667 23201
L6668 23116
L6696 23060
L6752 23032
L7062 23033
" />
<path d="M6752 23032
L6696 23004
L6668 22947
L6669 22863
L6697 22807
L6753 22779
L7063 22780
" />
<path d="M7063 22499
L6670 22498
" />
<path d="M6726 22498
L6698 22470
L6670 22413
L6670 22329
L6699 22273
L6755 22245
L7064 22246
" />
<path d="M6755 22245
L6699 22216
L6671 22160
L6671 22076
L6700 22020
L6756 21992
L7065 21993
" />
<path d="M7399 4887
L7299 43937
" />
<path d="M12400 4900
L6336 4884
" />
<path d="M12300 43950
L6236 43934
" />
<path d="M7299 43937
L7070 43493
" />
<path d="M7299 43937
L7531 43494
" />
<path d="M7399 4887
L7167 5330
" />
<path d="M7399 4887
L7629 5331
" />
</g> 
</svg>
