<?xml version="1.0" standalone="no"?>
 <!DOCTYPE svg PUBLIC "-//W3C//DTD SVG 1.1//EN" 
 "http://www.w3.org/Graphics/SVG/1.1/DTD/svg11.dtd"> 
<svg xmlns="http://www.w3.org/2000/svg" version="1.1" 
    width="17.5006cm" height="15.0012cm" viewBox="0 0 68900 59060 ">
<title>SVG Picture created as Midirelais_POWER_INPUT-F_Cu.svg date 2016/02/05 19:54:59 </title>
  <desc>Picture generated by PCBNEW </desc>
<g style="fill:#000000; fill-opacity:1;stroke:#000000; stroke-opacity:1;
stroke-linecap:round; stroke-linejoin:round; "
 transform="translate(0 0) scale(1 1)">
</g>
<g style="fill:#000000; fill-opacity:0.0; 
stroke:#000000; stroke-width:59.0551; stroke-opacity:1; 
stroke-linecap:round; stroke-linejoin:round;">
</g>
<g style="fill:#000000; fill-opacity:1.0; 
stroke:#000000; stroke-width:59.0551; stroke-opacity:1; 
stroke-linecap:round; stroke-linejoin:round;">
<polyline style="fill-rule:evenodd;"
points="10379,32995
10379,32604
10520,32604
10520,32995
10379,32995
" /> 
<polyline style="fill-rule:evenodd;"
points="10879,32995
10879,32604
11020,32604
11020,32995
10879,32995
" /> 
<polyline style="fill-rule:evenodd;"
points="11379,32995
11379,32604
11520,32604
11520,32995
11379,32995
" /> 
<polyline style="fill-rule:evenodd;"
points="11879,32995
11879,32604
12020,32604
12020,32995
11879,32995
" /> 
<polyline style="fill-rule:evenodd;"
points="11879,35495
11879,35104
12020,35104
12020,35495
11879,35495
" /> 
<polyline style="fill-rule:evenodd;"
points="11379,35495
11379,35104
11520,35104
11520,35495
11379,35495
" /> 
<polyline style="fill-rule:evenodd;"
points="10879,35495
10879,35104
11020,35104
11020,35495
10879,35495
" /> 
<polyline style="fill-rule:evenodd;"
points="10379,35495
10379,35104
10520,35104
10520,35495
10379,35495
" /> 
<polyline style="fill-rule:evenodd;"
points="14079,33015
14079,32624
14220,32624
14220,33015
14079,33015
" /> 
<polyline style="fill-rule:evenodd;"
points="14579,33015
14579,32624
14720,32624
14720,33015
14579,33015
" /> 
<polyline style="fill-rule:evenodd;"
points="15079,33015
15079,32624
15220,32624
15220,33015
15079,33015
" /> 
<polyline style="fill-rule:evenodd;"
points="15579,33015
15579,32624
15720,32624
15720,33015
15579,33015
" /> 
<polyline style="fill-rule:evenodd;"
points="15579,35515
15579,35124
15720,35124
15720,35515
15579,35515
" /> 
<polyline style="fill-rule:evenodd;"
points="15079,35515
15079,35124
15220,35124
15220,35515
15079,35515
" /> 
<polyline style="fill-rule:evenodd;"
points="14579,35515
14579,35124
14720,35124
14720,35515
14579,35515
" /> 
<polyline style="fill-rule:evenodd;"
points="14079,35515
14079,35124
14220,35124
14220,35515
14079,35515
" /> 
<polyline style="fill-rule:evenodd;"
points="15329,7420
15329,6679
15870,6679
15870,7420
15329,7420
" /> 
<polyline style="fill-rule:evenodd;"
points="16629,7420
16629,6679
17170,6679
17170,7420
16629,7420
" /> 
<polyline style="fill-rule:evenodd;"
points="13579,19829
14320,19829
14320,20370
13579,20370
13579,19829
" /> 
<polyline style="fill-rule:evenodd;"
points="13579,21129
14320,21129
14320,21670
13579,21670
13579,21129
" /> 
<polyline style="fill-rule:evenodd;"
points="19529,30295
19529,29804
19820,29804
19820,30295
19529,30295
" /> 
<polyline style="fill-rule:evenodd;"
points="20279,30295
20279,29804
20570,29804
20570,30295
20279,30295
" /> 
<polyline style="fill-rule:evenodd;"
points="19529,35795
19529,35304
19820,35304
19820,35795
19529,35795
" /> 
<polyline style="fill-rule:evenodd;"
points="20279,35795
20279,35304
20570,35304
20570,35795
20279,35795
" /> 
<polyline style="fill-rule:evenodd;"
points="15954,30979
16445,30979
16445,31270
15954,31270
15954,30979
" /> 
<polyline style="fill-rule:evenodd;"
points="15954,31729
16445,31729
16445,32020
15954,32020
15954,31729
" /> 
<polyline style="fill-rule:evenodd;"
points="17154,30979
17645,30979
17645,31270
17154,31270
17154,30979
" /> 
<polyline style="fill-rule:evenodd;"
points="17154,31729
17645,31729
17645,32020
17154,32020
17154,31729
" /> 
<polyline style="fill-rule:evenodd;"
points="15504,39429
15995,39429
15995,39720
15504,39720
15504,39429
" /> 
<polyline style="fill-rule:evenodd;"
points="15504,40179
15995,40179
15995,40470
15504,40470
15504,40179
" /> 
<polyline style="fill-rule:evenodd;"
points="13154,27129
13645,27129
13645,27420
13154,27420
13154,27129
" /> 
<polyline style="fill-rule:evenodd;"
points="13154,27879
13645,27879
13645,28170
13154,28170
13154,27879
" /> 
<polyline style="fill-rule:evenodd;"
points="18270,28304
18270,28795
17979,28795
17979,28304
18270,28304
" /> 
<polyline style="fill-rule:evenodd;"
points="17520,28304
17520,28795
17229,28795
17229,28304
17520,28304
" /> 
<polyline style="fill-rule:evenodd;"
points="9470,28504
9470,28995
9179,28995
9179,28504
9470,28504
" /> 
<polyline style="fill-rule:evenodd;"
points="8720,28504
8720,28995
8429,28995
8429,28504
8720,28504
" /> 
<circle cx="5950" cy="38400" r="470.472" /> 
<circle cx="22050" cy="31650" r="470.472" /> 
<circle cx="22050" cy="35550" r="470.472" /> 
<circle cx="5900" cy="40550" r="470.472" /> 
<circle cx="22050" cy="33400" r="470.472" /> 
<circle cx="22050" cy="37450" r="470.472" /> 
<polyline style="fill-rule:evenodd;"
points="16898,21615
16898,21084
17351,21084
17351,21615
16898,21615
" /> 
<polyline style="fill-rule:evenodd;"
points="16148,21615
16148,21084
16601,21084
16601,21615
16148,21615
" /> 
<polyline style="fill-rule:evenodd;"
points="17065,9751
16534,9751
16534,9298
17065,9298
17065,9751
" /> 
<polyline style="fill-rule:evenodd;"
points="17065,10501
16534,10501
16534,10048
17065,10048
17065,10501
" /> 
<polyline style="fill-rule:evenodd;"
points="6379,13320
6379,12779
6920,12779
6920,13320
6379,13320
" /> 
<circle cx="7650" cy="13050" r="270.472" /> 
<polyline style="fill-rule:evenodd;"
points="6439,9000
6439,8459
6980,8459
6980,9000
6439,9000
" /> 
<circle cx="7710" cy="8730" r="270.472" /> 
<polyline style="fill-rule:evenodd;"
points="10614,31248
11145,31248
11145,31701
10614,31701
10614,31248
" /> 
<polyline style="fill-rule:evenodd;"
points="10614,30498
11145,30498
11145,30951
10614,30951
10614,30498
" /> 
<polyline style="fill-rule:evenodd;"
points="13684,31248
14215,31248
14215,31701
13684,31701
13684,31248
" /> 
<polyline style="fill-rule:evenodd;"
points="13684,30498
14215,30498
14215,30951
13684,30951
13684,30498
" /> 
<polyline style="fill-rule:evenodd;"
points="10888,37892
11301,37892
11301,39407
10888,39407
10888,37892
" /> 
<polyline style="fill-rule:evenodd;"
points="13998,37892
14411,37892
14411,39407
13998,39407
13998,37892
" /> 
<circle cx="8850" cy="37450" r="590.472" /> 
<circle cx="19650" cy="37450" r="590.472" /> 
<circle cx="8850" cy="31850" r="590.472" /> 
<circle cx="19650" cy="31850" r="590.472" /> 
<polyline style="fill-rule:evenodd;"
points="17265,33901
16734,33901
16734,33448
17265,33448
17265,33901
" /> 
<polyline style="fill-rule:evenodd;"
points="17265,34651
16734,34651
16734,34198
17265,34198
17265,34651
" /> 
<polyline style="fill-rule:evenodd;"
points="13215,33881
12684,33881
12684,33428
13215,33428
13215,33881
" /> 
<polyline style="fill-rule:evenodd;"
points="13215,34631
12684,34631
12684,34178
13215,34178
13215,34631
" /> 
<polyline style="fill-rule:evenodd;"
points="21298,21465
21298,20934
21751,20934
21751,21465
21298,21465
" /> 
<polyline style="fill-rule:evenodd;"
points="20548,21465
20548,20934
21001,20934
21001,21465
20548,21465
" /> 
<polyline style="fill-rule:evenodd;"
points="11884,24898
12415,24898
12415,25351
11884,25351
11884,24898
" /> 
<polyline style="fill-rule:evenodd;"
points="11884,24148
12415,24148
12415,24601
11884,24601
11884,24148
" /> 
<polyline style="fill-rule:evenodd;"
points="13307,17167
14192,17167
14192,18682
13307,18682
13307,17167
" /> 
<polyline style="fill-rule:evenodd;"
points="13307,14017
14192,14017
14192,15532
13307,15532
13307,14017
" /> 
<polyline style="fill-rule:evenodd;"
points="20706,18564
20706,19135
19191,19135
19191,18564
20706,18564
" /> 
<polyline style="fill-rule:evenodd;"
points="23108,18564
23108,19135
21593,19135
21593,18564
23108,18564
" /> 
<polyline style="fill-rule:evenodd;"
points="9635,24506
9064,24506
9064,22991
9635,22991
9635,24506
" /> 
<polyline style="fill-rule:evenodd;"
points="9635,26908
9064,26908
9064,25393
9635,25393
9635,26908
" /> 
<polyline style="fill-rule:evenodd;"
points="19100,9585
18099,9585
18099,9014
19100,9014
19100,9585
" /> 
<polyline style="fill-rule:evenodd;"
points="19100,10685
18099,10685
18099,10114
19100,10114
19100,10685
" /> 
<polyline style="fill-rule:evenodd;"
points="17014,20250
17014,19249
17585,19249
17585,20250
17014,20250
" /> 
<polyline style="fill-rule:evenodd;"
points="15914,20250
15914,19249
16485,19249
16485,20250
15914,20250
" /> 
<polyline style="fill-rule:evenodd;"
points="9708,39218
9708,39631
8391,39631
8391,39218
9708,39218
" /> 
<polyline style="fill-rule:evenodd;"
points="9708,41068
9708,41481
8391,41481
8391,41068
9708,41068
" /> 
<polyline style="fill-rule:evenodd;"
points="13107,11167
13992,11167
13992,12682
13107,12682
13107,11167
" /> 
<polyline style="fill-rule:evenodd;"
points="13107,8017
13992,8017
13992,9532
13107,9532
13107,8017
" /> 
<circle cx="22950" cy="30400" r="470.472" /> 
<polyline style="fill-rule:evenodd;"
points="23145,9929
23145,10770
22754,10770
22754,9929
23145,9929
" /> 
<polyline style="fill-rule:evenodd;"
points="24046,13252
24046,15947
19853,15947
19853,13252
24046,13252
" /> 
<polyline style="fill-rule:evenodd;"
points="21145,9929
21145,10770
20754,10770
20754,9929
21145,9929
" /> 
<polyline style="fill-rule:evenodd;"
points="13929,23154
14770,23154
14770,23545
13929,23545
13929,23154
" /> 
<polyline style="fill-rule:evenodd;"
points="17252,22253
19947,22253
19947,26446
17252,26446
17252,22253
" /> 
<polyline style="fill-rule:evenodd;"
points="13929,25154
14770,25154
14770,25545
13929,25545
13929,25154
" /> 
<polyline style="fill-rule:evenodd;"
points="10275,10906
10924,10906
10924,12225
10275,12225
10275,10906
" /> 
<polyline style="fill-rule:evenodd;"
points="10275,12874
10924,12874
10924,14193
10275,14193
10275,12874
" /> 
<polyline style="fill-rule:evenodd;"
points="12143,6625
12143,7274
10824,7274
10824,6625
12143,6625
" /> 
<polyline style="fill-rule:evenodd;"
points="10175,6625
10175,7274
8856,7274
8856,6625
10175,6625
" /> 
<polyline style="fill-rule:evenodd;"
points="10325,15606
10974,15606
10974,16925
10325,16925
10325,15606
" /> 
<polyline style="fill-rule:evenodd;"
points="10325,17574
10974,17574
10974,18893
10325,18893
10325,17574
" /> 
<polyline style="fill-rule:evenodd;"
points="7125,15606
7774,15606
7774,16925
7125,16925
7125,15606
" /> 
<polyline style="fill-rule:evenodd;"
points="7125,17574
7774,17574
7774,18893
7125,18893
7125,17574
" /> 
<circle cx="6250" cy="42900" r="1151.57" /> 
<circle cx="22900" cy="6300" r="1151.57" /> 
<circle cx="6150" cy="6300" r="1151.57" /> 
<circle cx="22900" cy="42900" r="1151.57" /> 
<circle cx="16300" cy="28550" r="364.173" /> 
<circle cx="15250" cy="30150" r="364.173" /> 
<circle cx="7000" cy="30100" r="364.173" /> 
</g>
<g style="fill:#000000; fill-opacity:1.0; 
stroke:#000000; stroke-width:201.575; stroke-opacity:1; 
stroke-linecap:round; stroke-linejoin:round;">
<path d="M12950 33655
L12950 30900
" />
<path d="M13125 30725
L13950 30725
" />
<path d="M12950 30900
L13125 30725
" />
<path d="M13055 33550
L12950 33655
" />
<path d="M16300 33550
L13055 33550
" />
<path d="M16500 33350
L16300 33550
" />
</g>
<g style="fill:#000000; fill-opacity:1.0; 
stroke:#000000; stroke-width:300; stroke-opacity:1; 
stroke-linecap:round; stroke-linejoin:round;">
<path d="M17375 28550
L16300 28550
" />
<path d="M16300 28550
L16050 28550
" />
</g>
<g style="fill:#000000; fill-opacity:1.0; 
stroke:#000000; stroke-width:201.575; stroke-opacity:1; 
stroke-linecap:round; stroke-linejoin:round;">
<path d="M14150 30925
L14140 30915
" />
<path d="M14150 30925
L14140 30915
" />
<path d="M17000 33675
L16950 33350
" />
<path d="M16950 33350
L16500 33350
" />
</g>
<g style="fill:#000000; fill-opacity:1.0; 
stroke:#000000; stroke-width:300; stroke-opacity:1; 
stroke-linecap:round; stroke-linejoin:round;">
<path d="M20425 30050
L21200 30400
" />
<path d="M21500 30800
L22200 31700
" />
<path d="M21200 30400
L21500 30800
" />
<path d="M22200 31700
L23000 32100
" />
<path d="M23000 32100
L23500 33100
" />
<path d="M23500 33100
L23500 34050
" />
<path d="M23500 34050
L23300 34500
" />
<path d="M23300 34500
L22750 34900
" />
<path d="M22750 34900
L22350 34950
" />
<path d="M22350 34950
L21675 34875
" />
<path d="M15750 40325
L16400 40350
" />
<path d="M21550 34650
L21675 34875
" />
<path d="M21675 34875
L22050 35550
" />
<path d="M21050 34300
L21550 34650
" />
<path d="M20150 34250
L21050 34300
" />
<path d="M18800 34600
L20150 34250
" />
<path d="M18200 35100
L18588 34776
" />
<path d="M18588 34776
L18800 34600
" />
<path d="M17650 36450
L18200 35100
" />
<path d="M17500 37650
L17650 36450
" />
<path d="M17500 38300
L17500 37650
" />
<path d="M17000 39800
L17500 38300
" />
<path d="M16750 40100
L17000 39800
" />
<path d="M16400 40350
L16750 40100
" />
<path d="M5950 40600
L7150 41150
" />
<path d="M13450 40750
L15750 40325
" />
<path d="M11150 41350
L13450 40750
" />
<path d="M9650 41550
L11150 41350
" />
<path d="M9050 41550
L9650 41550
" />
<path d="M8650 41550
L9050 41550
" />
<path d="M8050 41350
L8650 41550
" />
<path d="M7150 41150
L8050 41350
" />
<path d="M22050 35550
L20425 35550
" />
<path d="M8950 39150
L9850 39150
" />
<path d="M10350 38950
L11095 38650
" />
<path d="M9850 39150
L10350 38950
" />
<path d="M6050 38450
L7450 38950
" />
<path d="M8950 39150
L9050 39425
" />
<path d="M7850 39050
L8950 39150
" />
<path d="M7450 38950
L7850 39050
" />
</g>
<g style="fill:#000000; fill-opacity:1.0; 
stroke:#000000; stroke-width:201.575; stroke-opacity:1; 
stroke-linecap:round; stroke-linejoin:round;">
<path d="M14205 38650
L14850 38350
" />
<path d="M15150 36350
L15150 35320
" />
<path d="M15150 37350
L15150 36350
" />
<path d="M15050 38050
L15150 37350
" />
<path d="M14850 38350
L15050 38050
" />
</g>
<g style="fill:#000000; fill-opacity:1.0; 
stroke:#000000; stroke-width:300; stroke-opacity:1; 
stroke-linecap:round; stroke-linejoin:round;">
<path d="M15750 39575
L15650 38950
" />
<path d="M14750 38550
L14205 38650
" />
<path d="M15350 38650
L14750 38550
" />
<path d="M15650 38950
L15350 38650
" />
</g>
<g style="fill:#000000; fill-opacity:1.0; 
stroke:#000000; stroke-width:201.575; stroke-opacity:1; 
stroke-linecap:round; stroke-linejoin:round;">
<path d="M16200 31100
L15250 30150
" />
<path d="M16200 31125
L16200 31100
" />
<path d="M8400 29950
L8400 29700
" />
<path d="M8350 30000
L8400 29950
" />
<path d="M8250 30100
L8350 30000
" />
<path d="M7000 30100
L8250 30100
" />
<path d="M8850 30150
L8400 29700
" />
<path d="M10880 31475
L10175 31475
" />
<path d="M8400 28650
L8575 28750
" />
<path d="M8400 29700
L8400 28650
" />
<path d="M10175 31475
L8400 29700
" />
<path d="M10450 32800
L10450 32270
" />
<path d="M10880 31920
L10880 31475
" />
<path d="M10450 32270
L10880 31920
" />
<path d="M14150 32820
L14150 32320
" />
<path d="M13950 32100
L13950 31475
" />
<path d="M14150 32320
L13950 32100
" />
<path d="M15650 32820
L15650 32425
" />
<path d="M15650 32425
L16200 31875
" />
<path d="M16200 31875
L17400 31875
" />
<path d="M16200 20600
L16200 22650
" />
<path d="M15650 21400
L13950 21400
" />
<path d="M15700 21350
L15650 21400
" />
<path d="M15700 22150
L15700 21350
" />
<path d="M16200 22650
L15700 22150
" />
<path d="M10450 36200
L10200 36800
" />
<path d="M10450 35300
L10450 36200
" />
<path d="M9600 37250
L8850 37450
" />
<path d="M10200 36800
L9600 37250
" />
<path d="M10950 35300
L10950 35800
" />
<path d="M10450 35850
L10450 35300
" />
<path d="M10600 35950
L10450 35850
" />
<path d="M10800 35950
L10600 35950
" />
<path d="M10950 35800
L10800 35950
" />
</g>
<g style="fill:#000000; fill-opacity:1.0; 
stroke:#000000; stroke-width:300; stroke-opacity:1; 
stroke-linecap:round; stroke-linejoin:round;">
<path d="M19949 18850
L19949 18749
" />
<path d="M19650 18450
L19300 18450
" />
<path d="M19949 18749
L19650 18450
" />
<path d="M18600 24350
L19650 24350
" />
<path d="M20050 24750
L20050 25950
" />
<path d="M19650 24350
L20050 24750
" />
<path d="M18600 24350
L19550 24350
" />
<path d="M20050 23850
L20050 22800
" />
<path d="M19550 24350
L20050 23850
" />
</g>
<g style="fill:#000000; fill-opacity:1.0; 
stroke:#000000; stroke-width:201.575; stroke-opacity:1; 
stroke-linecap:round; stroke-linejoin:round;">
<path d="M20775 21200
L20775 21675
" />
<path d="M20775 21675
L20650 21800
" />
<path d="M20775 21200
L20775 20575
" />
<path d="M20775 20575
L20700 20500
" />
<path d="M9350 26151
L10249 26151
" />
<path d="M12025 25250
L12150 25125
" />
<path d="M11150 25250
L12025 25250
" />
<path d="M10249 26151
L11150 25250
" />
<path d="M17125 21350
L17125 21725
" />
<path d="M18600 22250
L18600 24350
" />
<path d="M18250 21900
L18600 22250
" />
<path d="M17300 21900
L18250 21900
" />
<path d="M17125 21725
L17300 21900
" />
<path d="M10650 16137
L10650 13693
" />
<path d="M10650 13693
L10620 13663
" />
<path d="M11450 35300
L11450 34700
" />
<path d="M11950 33250
L11950 32800
" />
<path d="M11800 33800
L11950 33250
" />
<path d="M11500 34250
L11800 33800
" />
<path d="M11450 34700
L11500 34250
" />
<path d="M11450 35300
L11450 35800
" />
<path d="M14000 35900
L14150 35650
" />
<path d="M13600 36100
L14000 35900
" />
<path d="M13150 36200
L13600 36100
" />
<path d="M12050 36200
L13150 36200
" />
<path d="M11600 36050
L12050 36200
" />
<path d="M11450 35800
L11600 36050
" />
<path d="M14650 35320
L14650 35750
" />
<path d="M14150 35850
L14150 35650
" />
<path d="M14150 35650
L14150 35320
" />
<path d="M14250 35950
L14150 35850
" />
<path d="M14550 35950
L14250 35950
" />
<path d="M14650 35750
L14550 35950
" />
<path d="M8850 31850
L8950 32850
" />
<path d="M10700 33700
L11250 33350
" />
<path d="M10350 33750
L10700 33700
" />
<path d="M9600 33600
L10350 33750
" />
<path d="M9250 33350
L9600 33600
" />
<path d="M8950 32850
L9250 33350
" />
<path d="M11450 32800
L11450 33200
" />
<path d="M10950 33050
L10950 32800
" />
<path d="M11000 33250
L10950 33050
" />
<path d="M11050 33350
L11000 33250
" />
<path d="M11250 33350
L11050 33350
" />
<path d="M11400 33300
L11250 33350
" />
<path d="M11450 33200
L11400 33300
" />
</g>
<g style="fill:#000000; fill-opacity:1.0; 
stroke:#000000; stroke-width:300; stroke-opacity:1; 
stroke-linecap:round; stroke-linejoin:round;">
<path d="M19650 31850
L20300 32400
" />
<path d="M21100 33050
L22050 33400
" />
<path d="M20300 32400
L21100 33050
" />
<path d="M19675 30050
L19450 30050
" />
<path d="M19050 31250
L19650 31850
" />
<path d="M19050 30450
L19050 31250
" />
<path d="M19450 30050
L19050 30450
" />
<path d="M19675 35550
L19300 35700
" />
<path d="M19100 36800
L19650 37450
" />
<path d="M19000 36400
L19100 36800
" />
<path d="M19050 36000
L19000 36400
" />
<path d="M19300 35700
L19050 36000
" />
<path d="M19650 37450
L22050 37450
" />
</g>
<g style="fill:#000000; fill-opacity:1.0; 
stroke:#000000; stroke-width:201.575; stroke-opacity:1; 
stroke-linecap:round; stroke-linejoin:round;">
<path d="M14650 32820
L14650 32500
" />
<path d="M15150 32450
L15150 32820
" />
<path d="M14950 32300
L15150 32450
" />
<path d="M14800 32300
L14950 32300
" />
<path d="M14650 32500
L14800 32300
" />
</g>
<g style="fill:#000000; fill-opacity:1.0; 
stroke:#000000; stroke-width:300; stroke-opacity:1; 
stroke-linecap:round; stroke-linejoin:round;">
<path d="M21950 14600
L21950 15850
" />
<path d="M21700 16100
L20550 16100
" />
<path d="M21950 15850
L21700 16100
" />
<path d="M21950 14600
L21950 15550
" />
<path d="M22500 16100
L23450 16100
" />
<path d="M21950 15550
L22500 16100
" />
</g>
<g style="fill:#000000; fill-opacity:1.0; 
stroke:#000000; stroke-width:201.575; stroke-opacity:1; 
stroke-linecap:round; stroke-linejoin:round;">
<path d="M21525 21200
L21525 21725
" />
<path d="M21700 21900
L22000 21900
" />
<path d="M21525 21725
L21700 21900
" />
<path d="M21525 21200
L21525 20725
" />
<path d="M21650 20600
L21950 20600
" />
<path d="M21525 20725
L21650 20600
" />
<path d="M17000 34425
L17775 34425
" />
<path d="M18350 30000
L18125 29775
" />
<path d="M18350 33850
L18350 30000
" />
<path d="M17775 34425
L18350 33850
" />
<path d="M17400 31125
L17400 30550
" />
<path d="M17400 30550
L18125 29825
" />
<path d="M18125 29825
L18125 29775
" />
<path d="M18125 29775
L18125 28550
" />
<path d="M12950 34405
L16980 34405
" />
<path d="M16980 34405
L17000 34425
" />
<path d="M15650 35320
L15650 35550
" />
<path d="M15650 35550
L15850 35750
" />
<path d="M15850 35750
L16650 35750
" />
<path d="M16650 35750
L17000 35400
" />
<path d="M17000 35400
L17000 34425
" />
<path d="M11950 35300
L11950 34950
" />
<path d="M12655 34700
L12950 34405
" />
<path d="M12200 34700
L12655 34700
" />
<path d="M11950 34950
L12200 34700
" />
</g>
<g style="fill:#000000; fill-opacity:1.0; 
stroke:#000000; stroke-width:300; stroke-opacity:1; 
stroke-linecap:round; stroke-linejoin:round;">
<path d="M14425 17925
L14425 18225
" />
<path d="M14425 18225
L14400 18250
" />
<path d="M13750 17925
L14425 17925
" />
<path d="M14425 17925
L14450 17900
" />
<path d="M13750 17925
L14075 17925
" />
<path d="M14075 17925
L14400 18250
" />
<path d="M14400 20000
L14450 20050
" />
<path d="M14400 18250
L14400 20000
" />
</g>
<g style="fill:#000000; fill-opacity:1.0; 
stroke:#000000; stroke-width:59.0551; stroke-opacity:1; 
stroke-linecap:round; stroke-linejoin:round;">
<polyline style="fill-rule:evenodd;"
points="16361,10950
16289,10969
16289,15539
14523,15539
14523,13927
14477,13817
14393,13732
14323,13703
14323,12772
14323,12393
14248,12318
13786,12318
13786,12938
13861,13013
13962,13013
14082,13013
14193,12967
14277,12882
14323,12772
14323,13703
14282,13686
14162,13686
14061,13686
13986,13761
13986,14381
14448,14381
14523,14306
14523,13927
14523,15539
14523,15539
14523,15243
14448,15168
13986,15168
13986,15182
13513,15182
13513,15168
13513,14381
13513,13761
13438,13686
13337,13686
13313,13686
13313,12938
13313,12318
12851,12318
12776,12393
12776,12772
12822,12882
12906,12967
13017,13013
13137,13013
13238,13013
13313,12938
13313,13686
13217,13686
13106,13732
13022,13817
12976,13927
12976,14306
13051,14381
13513,14381
13513,15168
13051,15168
12976,15243
12976,15539
12418,15539
12428,16919
11305,16923
11305,15517
11259,15406
11255,15402
11255,14282
11255,13953
11180,13878
10777,13878
10777,14448
10852,14523
10894,14523
11014,14523
11125,14477
11209,14393
11255,14282
11255,15402
11175,15322
11064,15276
10944,15276
10902,15276
10827,15351
10827,15921
11230,15921
11305,15846
11305,15517
11305,16923
11305,16923
11305,16685
11230,16610
10827,16610
10827,16673
10472,16673
10472,16610
10295,16610
10295,15921
10472,15921
10472,15351
10397,15276
10355,15276
10235,15276
10124,15322
10050,15396
10050,14453
10074,14477
10185,14523
10305,14523
10347,14523
10422,14448
10422,13878
10019,13878
9944,13953
9944,14249
8262,14249
8262,13042
8218,12822
8120,12791
7908,13003
7862,13050
8120,13308
8218,13277
8262,13042
8262,14249
7908,14249
7908,13520
7650,13262
7543,13368
7437,13262
7331,13156
7437,13050
7331,12943
7543,12731
7650,12837
7908,12579
7877,12481
7642,12437
7608,12444
7500,12335
7220,12616
7204,12579
7120,12494
7009,12449
6875,12449
6800,12524
6800,12900
6936,12900
6935,12900
6950,12914
6950,13185
6935,13199
6936,13200
6800,13200
6800,13575
6875,13650
7009,13650
7120,13605
7204,13520
7220,13483
7500,13764
7610,13653
7657,13662
7877,13618
7908,13520
7908,14249
6150,14249
6150,13576
6179,13605
6290,13650
6424,13650
6500,13575
6500,13200
6350,13200
6350,12900
6500,12900
6500,12524
6424,12449
6290,12449
6179,12494
6150,12523
6150,10250
8349,10250
8349,12850
9849,12850
9849,12870
9944,12870
9944,13114
10019,13189
10422,13189
10422,13126
10777,13126
10777,13189
11180,13189
11255,13114
11255,12875
12730,12881
12730,10950
12839,10950
12822,10967
12776,11077
12776,11456
12851,11531
13313,11531
13313,11517
13786,11517
13786,11531
14248,11531
14323,11456
14323,11077
14277,10967
14255,10945
15609,10940
16361,10950
" /> 
</g>
<g style="fill:#000000; fill-opacity:0.0; 
stroke:#000000; stroke-width:201.575; stroke-opacity:1; 
stroke-linecap:round; stroke-linejoin:round;">
<polyline fill="none;"
points="16361,10950
16289,10969
16289,15539
14523,15539
14523,13927
14477,13817
14393,13732
14323,13703
14323,12772
14323,12393
14248,12318
13786,12318
13786,12938
13861,13013
13962,13013
14082,13013
14193,12967
14277,12882
14323,12772
14323,13703
14282,13686
14162,13686
14061,13686
13986,13761
13986,14381
14448,14381
14523,14306
14523,13927
14523,15539
14523,15539
14523,15243
14448,15168
13986,15168
13986,15182
13513,15182
13513,15168
13513,14381
13513,13761
13438,13686
13337,13686
13313,13686
13313,12938
13313,12318
12851,12318
12776,12393
12776,12772
12822,12882
12906,12967
13017,13013
13137,13013
13238,13013
13313,12938
13313,13686
13217,13686
13106,13732
13022,13817
12976,13927
12976,14306
13051,14381
13513,14381
13513,15168
13051,15168
12976,15243
12976,15539
12418,15539
12428,16919
11305,16923
11305,15517
11259,15406
11255,15402
11255,14282
11255,13953
11180,13878
10777,13878
10777,14448
10852,14523
10894,14523
11014,14523
11125,14477
11209,14393
11255,14282
11255,15402
11175,15322
11064,15276
10944,15276
10902,15276
10827,15351
10827,15921
11230,15921
11305,15846
11305,15517
11305,16923
11305,16923
11305,16685
11230,16610
10827,16610
10827,16673
10472,16673
10472,16610
10295,16610
10295,15921
10472,15921
10472,15351
10397,15276
10355,15276
10235,15276
10124,15322
10050,15396
10050,14453
10074,14477
10185,14523
10305,14523
10347,14523
10422,14448
10422,13878
10019,13878
9944,13953
9944,14249
8262,14249
8262,13042
8218,12822
8120,12791
7908,13003
7862,13050
8120,13308
8218,13277
8262,13042
8262,14249
7908,14249
7908,13520
7650,13262
7543,13368
7437,13262
7331,13156
7437,13050
7331,12943
7543,12731
7650,12837
7908,12579
7877,12481
7642,12437
7608,12444
7500,12335
7220,12616
7204,12579
7120,12494
7009,12449
6875,12449
6800,12524
6800,12900
6936,12900
6935,12900
6950,12914
6950,13185
6935,13199
6936,13200
6800,13200
6800,13575
6875,13650
7009,13650
7120,13605
7204,13520
7220,13483
7500,13764
7610,13653
7657,13662
7877,13618
7908,13520
7908,14249
6150,14249
6150,13576
6179,13605
6290,13650
6424,13650
6500,13575
6500,13200
6350,13200
6350,12900
6500,12900
6500,12524
6424,12449
6290,12449
6179,12494
6150,12523
6150,10250
8349,10250
8349,12850
9849,12850
9849,12870
9944,12870
9944,13114
10019,13189
10422,13189
10422,13126
10777,13126
10777,13189
11180,13189
11255,13114
11255,12875
12730,12881
12730,10950
12839,10950
12822,10967
12776,11077
12776,11456
12851,11531
13313,11531
13313,11517
13786,11517
13786,11531
14248,11531
14323,11456
14323,11077
14277,10967
14255,10945
15609,10940
16361,10950
" /> 
</g>
<g style="fill:#000000; fill-opacity:1.0; 
stroke:#000000; stroke-width:59.0551; stroke-opacity:1; 
stroke-linecap:round; stroke-linejoin:round;">
<polyline style="fill-rule:evenodd;"
points="24249,12249
23475,12249
23475,10740
23475,9959
23475,9839
23429,9729
23345,9644
23234,9599
23137,9599
23062,9674
23062,10125
23400,10125
23475,10049
23475,9959
23475,10740
23475,10650
23400,10575
23062,10575
23062,11025
23137,11100
23234,11100
23345,11055
23429,10970
23475,10860
23475,10740
23475,12249
22837,12249
22837,11025
22837,10575
22837,10125
22837,9674
22762,9599
22665,9599
22554,9644
22470,9729
22424,9839
22424,9959
22424,10049
22499,10125
22837,10125
22837,10575
22499,10575
22424,10650
22424,10740
22424,10860
22470,10970
22554,11055
22665,11100
22762,11100
22837,11025
22837,12249
19249,12249
19249,18234
19101,18234
18991,18279
18906,18364
18860,18474
18860,18594
18860,18617
18935,18692
19555,18692
19555,18535
20342,18535
20342,18692
20356,18692
20356,19007
20342,19007
20342,19390
20417,19465
20649,19465
20649,20604
20571,20604
20459,20604
20459,20604
20375,20604
20375,20638
20348,20649
20264,20734
20218,20844
20218,20964
20218,20977
20293,21052
20647,21052
20647,20905
20649,20905
20649,21495
20647,21495
20647,21347
20293,21347
20218,21422
20218,21435
20218,21555
20264,21665
20348,21750
20375,21761
20375,21795
20459,21795
20459,21795
20571,21795
20647,21795
20649,21795
20649,27249
20647,27249
20278,27249
20278,26535
20278,22164
20232,22053
20148,21969
20037,21923
19917,21923
19555,21923
19555,19390
19555,19007
18935,19007
18860,19082
18860,19105
18860,19225
18906,19335
18991,19420
19101,19465
19480,19465
19555,19390
19555,21923
19074,21923
18999,21998
18999,23950
20203,23950
20278,23875
20278,22164
20278,26535
20278,24824
20203,24749
18999,24749
18999,26701
19074,26776
19917,26776
20037,26776
20148,26730
20232,26646
20278,26535
20278,27249
18335,27249
18335,10940
18335,10557
17844,10557
17769,10632
17769,10774
17814,10885
17899,10969
18009,11015
18129,11015
18259,11015
18335,10940
18335,27249
13975,27249
13975,27249
13975,27112
13975,27040
13975,27040
13975,26875
13876,26875
13845,26845
13735,26799
13615,26799
13612,26799
13537,26874
13537,27187
13675,27187
13675,27249
13262,27249
13125,27249
13125,27187
13262,27187
13262,26874
13187,26799
13184,26799
13064,26799
12954,26845
12923,26875
12824,26875
12824,27040
12824,27040
12824,27112
12824,27249
12745,27249
12002,27249
9965,27249
9965,26998
9965,26619
9890,26544
9507,26544
9507,27164
9582,27239
9605,27239
9725,27239
9835,27193
9920,27108
9965,26998
9965,27249
9192,27249
9192,27164
9192,26544
8809,26544
8734,26619
8734,26998
8779,27108
8864,27193
8974,27239
9094,27239
9117,27239
9192,27164
9192,27249
8450,27249
8450,25250
8756,25250
8734,25303
8734,25682
8809,25757
9192,25757
9192,25743
9507,25743
9507,25757
9890,25757
9965,25682
9965,25303
9943,25250
11554,25250
11554,25328
11554,25440
11554,25440
11554,25524
11588,25524
11599,25551
11684,25635
11794,25681
11914,25681
11927,25681
12002,25606
12002,25253
11855,25253
11855,25250
12445,25250
12445,25253
12297,25253
12297,25606
12372,25681
12385,25681
12505,25681
12615,25635
12700,25551
12711,25524
12745,25524
12745,25440
12745,25440
12745,25328
12745,25250
12849,25250
12849,26450
16921,26450
16921,26535
16967,26646
17051,26730
17162,26776
17282,26776
18125,26776
18200,26701
18200,24749
18192,24749
18192,23950
18200,23950
18200,21998
18125,21923
17915,21923
17915,20220
17915,19279
17915,19159
17869,19049
17785,18964
17674,18919
17532,18919
17457,18994
17457,19485
17840,19485
17915,19409
17915,19279
17915,20220
17915,20090
17840,20015
17457,20015
17457,20505
17532,20580
17674,20580
17785,20535
17869,20450
17915,20340
17915,20220
17915,21923
17524,21923
17524,21911
17551,21900
17635,21815
17681,21705
17681,21585
17681,21114
17681,20994
17635,20884
17551,20799
17440,20754
17395,20754
17395,10590
17395,10478
17320,10403
16947,10403
16947,10756
17022,10831
17035,10831
17155,10831
17265,10785
17350,10701
17395,10590
17395,20754
17328,20754
17253,20829
17253,21202
17606,21202
17681,21127
17681,21114
17681,21585
17681,21572
17606,21497
17253,21497
17253,21645
17250,21645
17250,20849
17050,20849
17050,20580
17067,20580
17142,20505
17142,20015
17050,20015
17050,19485
17142,19485
17142,18994
17067,18919
17050,18919
17050,15989
16428,15543
16491,10831
16564,10831
16577,10831
16652,10756
16652,10403
16505,10403
16505,10200
17802,10200
17844,10242
18335,10242
18335,10200
18865,10200
18865,10242
19007,10242
19007,10557
18865,10557
18865,10940
18940,11015
19070,11015
19190,11015
19249,10991
19249,11650
22350,11650
22350,11000
22350,10950
22350,9150
22650,9150
22650,7783
23193,7783
23739,7558
24156,7141
24249,6919
24249,12249
" /> 
</g>
<g style="fill:#000000; fill-opacity:0.0; 
stroke:#000000; stroke-width:201.575; stroke-opacity:1; 
stroke-linecap:round; stroke-linejoin:round;">
<polyline fill="none;"
points="24249,12249
23475,12249
23475,10740
23475,9959
23475,9839
23429,9729
23345,9644
23234,9599
23137,9599
23062,9674
23062,10125
23400,10125
23475,10049
23475,9959
23475,10740
23475,10650
23400,10575
23062,10575
23062,11025
23137,11100
23234,11100
23345,11055
23429,10970
23475,10860
23475,10740
23475,12249
22837,12249
22837,11025
22837,10575
22837,10125
22837,9674
22762,9599
22665,9599
22554,9644
22470,9729
22424,9839
22424,9959
22424,10049
22499,10125
22837,10125
22837,10575
22499,10575
22424,10650
22424,10740
22424,10860
22470,10970
22554,11055
22665,11100
22762,11100
22837,11025
22837,12249
19249,12249
19249,18234
19101,18234
18991,18279
18906,18364
18860,18474
18860,18594
18860,18617
18935,18692
19555,18692
19555,18535
20342,18535
20342,18692
20356,18692
20356,19007
20342,19007
20342,19390
20417,19465
20649,19465
20649,20604
20571,20604
20459,20604
20459,20604
20375,20604
20375,20638
20348,20649
20264,20734
20218,20844
20218,20964
20218,20977
20293,21052
20647,21052
20647,20905
20649,20905
20649,21495
20647,21495
20647,21347
20293,21347
20218,21422
20218,21435
20218,21555
20264,21665
20348,21750
20375,21761
20375,21795
20459,21795
20459,21795
20571,21795
20647,21795
20649,21795
20649,27249
20647,27249
20278,27249
20278,26535
20278,22164
20232,22053
20148,21969
20037,21923
19917,21923
19555,21923
19555,19390
19555,19007
18935,19007
18860,19082
18860,19105
18860,19225
18906,19335
18991,19420
19101,19465
19480,19465
19555,19390
19555,21923
19074,21923
18999,21998
18999,23950
20203,23950
20278,23875
20278,22164
20278,26535
20278,24824
20203,24749
18999,24749
18999,26701
19074,26776
19917,26776
20037,26776
20148,26730
20232,26646
20278,26535
20278,27249
18335,27249
18335,10940
18335,10557
17844,10557
17769,10632
17769,10774
17814,10885
17899,10969
18009,11015
18129,11015
18259,11015
18335,10940
18335,27249
13975,27249
13975,27249
13975,27112
13975,27040
13975,27040
13975,26875
13876,26875
13845,26845
13735,26799
13615,26799
13612,26799
13537,26874
13537,27187
13675,27187
13675,27249
13262,27249
13125,27249
13125,27187
13262,27187
13262,26874
13187,26799
13184,26799
13064,26799
12954,26845
12923,26875
12824,26875
12824,27040
12824,27040
12824,27112
12824,27249
12745,27249
12002,27249
9965,27249
9965,26998
9965,26619
9890,26544
9507,26544
9507,27164
9582,27239
9605,27239
9725,27239
9835,27193
9920,27108
9965,26998
9965,27249
9192,27249
9192,27164
9192,26544
8809,26544
8734,26619
8734,26998
8779,27108
8864,27193
8974,27239
9094,27239
9117,27239
9192,27164
9192,27249
8450,27249
8450,25250
8756,25250
8734,25303
8734,25682
8809,25757
9192,25757
9192,25743
9507,25743
9507,25757
9890,25757
9965,25682
9965,25303
9943,25250
11554,25250
11554,25328
11554,25440
11554,25440
11554,25524
11588,25524
11599,25551
11684,25635
11794,25681
11914,25681
11927,25681
12002,25606
12002,25253
11855,25253
11855,25250
12445,25250
12445,25253
12297,25253
12297,25606
12372,25681
12385,25681
12505,25681
12615,25635
12700,25551
12711,25524
12745,25524
12745,25440
12745,25440
12745,25328
12745,25250
12849,25250
12849,26450
16921,26450
16921,26535
16967,26646
17051,26730
17162,26776
17282,26776
18125,26776
18200,26701
18200,24749
18192,24749
18192,23950
18200,23950
18200,21998
18125,21923
17915,21923
17915,20220
17915,19279
17915,19159
17869,19049
17785,18964
17674,18919
17532,18919
17457,18994
17457,19485
17840,19485
17915,19409
17915,19279
17915,20220
17915,20090
17840,20015
17457,20015
17457,20505
17532,20580
17674,20580
17785,20535
17869,20450
17915,20340
17915,20220
17915,21923
17524,21923
17524,21911
17551,21900
17635,21815
17681,21705
17681,21585
17681,21114
17681,20994
17635,20884
17551,20799
17440,20754
17395,20754
17395,10590
17395,10478
17320,10403
16947,10403
16947,10756
17022,10831
17035,10831
17155,10831
17265,10785
17350,10701
17395,10590
17395,20754
17328,20754
17253,20829
17253,21202
17606,21202
17681,21127
17681,21114
17681,21585
17681,21572
17606,21497
17253,21497
17253,21645
17250,21645
17250,20849
17050,20849
17050,20580
17067,20580
17142,20505
17142,20015
17050,20015
17050,19485
17142,19485
17142,18994
17067,18919
17050,18919
17050,15989
16428,15543
16491,10831
16564,10831
16577,10831
16652,10756
16652,10403
16505,10403
16505,10200
17802,10200
17844,10242
18335,10242
18335,10200
18865,10200
18865,10242
19007,10242
19007,10557
18865,10557
18865,10940
18940,11015
19070,11015
19190,11015
19249,10991
19249,11650
22350,11650
22350,11000
22350,10950
22350,9150
22650,9150
22650,7783
23193,7783
23739,7558
24156,7141
24249,6919
24249,12249
" /> 
</g>
<g style="fill:#000000; fill-opacity:1.0; 
stroke:#000000; stroke-width:59.0551; stroke-opacity:1; 
stroke-linecap:round; stroke-linejoin:round;">
<polyline style="fill-rule:evenodd;"
points="15749,10049
15450,10049
15450,7675
15450,7250
15450,6850
15450,6424
15374,6349
15240,6349
15129,6394
15045,6479
14999,6589
14999,6709
14999,6774
15074,6850
15450,6850
15450,7250
15074,7250
14999,7325
14999,7390
14999,7510
15045,7620
15129,7705
15240,7750
15374,7750
15450,7675
15450,10049
14323,10049
14323,9622
14323,7927
14277,7817
14193,7732
14082,7686
13962,7686
13861,7686
13786,7761
13786,8381
14248,8381
14323,8306
14323,7927
14323,9622
14323,9243
14248,9168
13786,9168
13786,9788
13861,9863
13962,9863
14082,9863
14193,9817
14277,9732
14323,9622
14323,10049
13313,10049
13313,9788
13313,9168
13313,8381
13313,7761
13238,7686
13137,7686
13017,7686
12906,7732
12822,7817
12776,7927
12776,8306
12851,8381
13313,8381
13313,9168
12851,9168
12776,9243
12776,9622
12822,9732
12906,9817
13017,9863
13137,9863
13238,9863
13313,9788
13313,10049
12473,10049
12473,7244
12473,6655
12473,6535
12427,6424
12343,6340
12232,6294
11903,6294
11828,6369
11828,6772
12398,6772
12473,6697
12473,6655
12473,7244
12473,7202
12398,7127
11828,7127
11828,7530
11903,7605
12232,7605
12343,7559
12427,7475
12473,7364
12473,7244
12473,10049
11749,10049
11749,12149
11255,12149
11255,10817
11209,10706
11125,10622
11014,10576
10894,10576
10852,10576
10777,10651
10777,11221
11180,11221
11255,11146
11255,10817
11255,12149
11255,12149
11255,11985
11180,11910
10777,11910
10777,11973
10422,11973
10422,11910
10422,11221
10422,10651
10347,10576
10305,10576
10185,10576
10074,10622
9990,10706
9944,10817
9944,11146
10019,11221
10422,11221
10422,11910
10019,11910
9944,11985
9944,12149
9050,12149
9050,10250
10950,10250
10950,7605
11064,7605
11139,7530
11139,7127
11076,7127
11076,6772
11139,6772
11139,6369
11064,6294
10950,6294
10950,5000
15749,5000
15749,10049
" /> 
</g>
<g style="fill:#000000; fill-opacity:0.0; 
stroke:#000000; stroke-width:201.575; stroke-opacity:1; 
stroke-linecap:round; stroke-linejoin:round;">
<polyline fill="none;"
points="15749,10049
15450,10049
15450,7675
15450,7250
15450,6850
15450,6424
15374,6349
15240,6349
15129,6394
15045,6479
14999,6589
14999,6709
14999,6774
15074,6850
15450,6850
15450,7250
15074,7250
14999,7325
14999,7390
14999,7510
15045,7620
15129,7705
15240,7750
15374,7750
15450,7675
15450,10049
14323,10049
14323,9622
14323,7927
14277,7817
14193,7732
14082,7686
13962,7686
13861,7686
13786,7761
13786,8381
14248,8381
14323,8306
14323,7927
14323,9622
14323,9243
14248,9168
13786,9168
13786,9788
13861,9863
13962,9863
14082,9863
14193,9817
14277,9732
14323,9622
14323,10049
13313,10049
13313,9788
13313,9168
13313,8381
13313,7761
13238,7686
13137,7686
13017,7686
12906,7732
12822,7817
12776,7927
12776,8306
12851,8381
13313,8381
13313,9168
12851,9168
12776,9243
12776,9622
12822,9732
12906,9817
13017,9863
13137,9863
13238,9863
13313,9788
13313,10049
12473,10049
12473,7244
12473,6655
12473,6535
12427,6424
12343,6340
12232,6294
11903,6294
11828,6369
11828,6772
12398,6772
12473,6697
12473,6655
12473,7244
12473,7202
12398,7127
11828,7127
11828,7530
11903,7605
12232,7605
12343,7559
12427,7475
12473,7364
12473,7244
12473,10049
11749,10049
11749,12149
11255,12149
11255,10817
11209,10706
11125,10622
11014,10576
10894,10576
10852,10576
10777,10651
10777,11221
11180,11221
11255,11146
11255,10817
11255,12149
11255,12149
11255,11985
11180,11910
10777,11910
10777,11973
10422,11973
10422,11910
10422,11221
10422,10651
10347,10576
10305,10576
10185,10576
10074,10622
9990,10706
9944,10817
9944,11146
10019,11221
10422,11221
10422,11910
10019,11910
9944,11985
9944,12149
9050,12149
9050,10250
10950,10250
10950,7605
11064,7605
11139,7530
11139,7127
11076,7127
11076,6772
11139,6772
11139,6369
11064,6294
10950,6294
10950,5000
15749,5000
15749,10049
" /> 
</g>
<g style="fill:#000000; fill-opacity:1.0; 
stroke:#000000; stroke-width:59.0551; stroke-opacity:1; 
stroke-linecap:round; stroke-linejoin:round;">
<polyline style="fill-rule:evenodd;"
points="14449,19515
14410,19499
14290,19499
14225,19499
14150,19574
14150,19950
14350,19950
14350,20250
14150,20250
14150,20400
13750,20400
13750,20250
13750,19950
13750,19574
13674,19499
13609,19499
13513,19499
13513,18938
13513,18318
13051,18318
12976,18393
12976,18772
13022,18882
13106,18967
13217,19013
13337,19013
13438,19013
13513,18938
13513,19499
13489,19499
13379,19545
13294,19629
13249,19740
13249,19874
13324,19950
13750,19950
13750,20250
13324,20250
13249,20325
13249,20449
11305,20449
11305,18982
11305,18653
11230,18578
10827,18578
10827,19148
10902,19223
10944,19223
11064,19223
11175,19177
11259,19093
11305,18982
11305,20449
10472,20449
10472,19148
10472,18578
10069,18578
9994,18653
9994,18982
10040,19093
10124,19177
10235,19223
10355,19223
10397,19223
10472,19148
10472,20449
8105,20449
8105,18982
8105,18653
8030,18578
7627,18578
7627,19148
7702,19223
7744,19223
7864,19223
7975,19177
8059,19093
8105,18982
8105,20449
7272,20449
7272,19148
7272,18578
6869,18578
6794,18653
6794,18982
6840,19093
6924,19177
7035,19223
7155,19223
7197,19223
7272,19148
7272,20449
4850,20449
4850,19350
4850,17650
6794,17650
6794,17814
6869,17889
7272,17889
7272,17826
7627,17826
7627,17889
8030,17889
8105,17814
8105,17650
9350,17650
9994,17650
9994,17814
10069,17889
10472,17889
10472,17826
10827,17826
10827,17889
11230,17889
11305,17814
11305,17650
12950,17650
13250,17650
14157,17650
14157,18318
13986,18318
13986,18938
14061,19013
14162,19013
14282,19013
14393,18967
14449,18911
14449,18950
14449,19450
14449,19515
" /> 
</g>
<g style="fill:#000000; fill-opacity:0.0; 
stroke:#000000; stroke-width:201.575; stroke-opacity:1; 
stroke-linecap:round; stroke-linejoin:round;">
<polyline fill="none;"
points="14449,19515
14410,19499
14290,19499
14225,19499
14150,19574
14150,19950
14350,19950
14350,20250
14150,20250
14150,20400
13750,20400
13750,20250
13750,19950
13750,19574
13674,19499
13609,19499
13513,19499
13513,18938
13513,18318
13051,18318
12976,18393
12976,18772
13022,18882
13106,18967
13217,19013
13337,19013
13438,19013
13513,18938
13513,19499
13489,19499
13379,19545
13294,19629
13249,19740
13249,19874
13324,19950
13750,19950
13750,20250
13324,20250
13249,20325
13249,20449
11305,20449
11305,18982
11305,18653
11230,18578
10827,18578
10827,19148
10902,19223
10944,19223
11064,19223
11175,19177
11259,19093
11305,18982
11305,20449
10472,20449
10472,19148
10472,18578
10069,18578
9994,18653
9994,18982
10040,19093
10124,19177
10235,19223
10355,19223
10397,19223
10472,19148
10472,20449
8105,20449
8105,18982
8105,18653
8030,18578
7627,18578
7627,19148
7702,19223
7744,19223
7864,19223
7975,19177
8059,19093
8105,18982
8105,20449
7272,20449
7272,19148
7272,18578
6869,18578
6794,18653
6794,18982
6840,19093
6924,19177
7035,19223
7155,19223
7197,19223
7272,19148
7272,20449
4850,20449
4850,19350
4850,17650
6794,17650
6794,17814
6869,17889
7272,17889
7272,17826
7627,17826
7627,17889
8030,17889
8105,17814
8105,17650
9350,17650
9994,17650
9994,17814
10069,17889
10472,17889
10472,17826
10827,17826
10827,17889
11230,17889
11305,17814
11305,17650
12950,17650
13250,17650
14157,17650
14157,18318
13986,18318
13986,18938
14061,19013
14162,19013
14282,19013
14393,18967
14449,18911
14449,18950
14449,19450
14449,19515
" /> 
</g>
<g style="fill:#000000; fill-opacity:1.0; 
stroke:#000000; stroke-width:59.0551; stroke-opacity:1; 
stroke-linecap:round; stroke-linejoin:round;">
<polyline style="fill-rule:evenodd;"
points="10049,9449
9171,9449
9171,7530
9171,7127
9171,6772
9171,6369
9096,6294
8767,6294
8656,6340
8572,6424
8526,6535
8526,6655
8526,6697
8601,6772
9171,6772
9171,7127
8601,7127
8526,7202
8526,7244
8526,7364
8572,7475
8656,7559
8767,7605
9096,7605
9171,7530
9171,9449
8322,9449
8322,8722
8278,8502
8180,8471
7968,8683
7922,8730
8180,8988
8278,8957
8322,8722
8322,9449
7968,9449
7968,9200
7710,8942
7603,9048
7497,8942
7391,8836
7497,8730
7391,8623
7603,8411
7710,8517
7968,8259
7937,8161
7702,8117
7668,8124
7560,8015
7280,8296
7264,8259
7180,8174
7069,8129
6935,8129
6860,8204
6860,8580
6996,8580
6995,8580
7010,8594
7010,8865
6995,8879
6996,8880
6860,8880
6860,9255
6935,9330
7069,9330
7180,9285
7264,9200
7280,9163
7560,9444
7670,9333
7717,9342
7937,9298
7968,9200
7968,9449
6560,9449
6560,9255
6560,8880
6560,8580
6560,8204
6484,8129
6350,8129
6239,8174
6155,8259
6109,8369
6109,8489
6109,8504
6184,8580
6560,8580
6560,8880
6184,8880
6109,8955
6109,8970
6109,9090
6155,9200
6239,9285
6350,9330
6484,9330
6560,9255
6560,9449
6150,9449
5449,9449
5449,15050
8749,15050
8749,16849
8105,16849
8105,15517
8059,15406
7975,15322
7864,15276
7744,15276
7702,15276
7627,15351
7627,15921
8030,15921
8105,15846
8105,15517
8105,16849
8105,16849
8105,16685
8030,16610
7627,16610
7627,16673
7272,16673
7272,16610
7272,15921
7272,15351
7197,15276
7155,15276
7035,15276
6924,15322
6840,15406
6794,15517
6794,15846
6869,15921
7272,15921
7272,16610
6869,16610
6794,16685
6794,16849
4850,16849
4850,7040
4891,7139
5308,7556
5853,7783
6443,7783
6989,7558
7406,7141
7633,6596
7633,6006
7408,5460
6991,5043
6889,5000
10049,5000
10049,6294
9935,6294
9860,6369
9860,6772
9923,6772
9923,7127
9860,7127
9860,7530
9935,7605
10049,7605
10049,9449
" /> 
</g>
<g style="fill:#000000; fill-opacity:0.0; 
stroke:#000000; stroke-width:201.575; stroke-opacity:1; 
stroke-linecap:round; stroke-linejoin:round;">
<polyline fill="none;"
points="10049,9449
9171,9449
9171,7530
9171,7127
9171,6772
9171,6369
9096,6294
8767,6294
8656,6340
8572,6424
8526,6535
8526,6655
8526,6697
8601,6772
9171,6772
9171,7127
8601,7127
8526,7202
8526,7244
8526,7364
8572,7475
8656,7559
8767,7605
9096,7605
9171,7530
9171,9449
8322,9449
8322,8722
8278,8502
8180,8471
7968,8683
7922,8730
8180,8988
8278,8957
8322,8722
8322,9449
7968,9449
7968,9200
7710,8942
7603,9048
7497,8942
7391,8836
7497,8730
7391,8623
7603,8411
7710,8517
7968,8259
7937,8161
7702,8117
7668,8124
7560,8015
7280,8296
7264,8259
7180,8174
7069,8129
6935,8129
6860,8204
6860,8580
6996,8580
6995,8580
7010,8594
7010,8865
6995,8879
6996,8880
6860,8880
6860,9255
6935,9330
7069,9330
7180,9285
7264,9200
7280,9163
7560,9444
7670,9333
7717,9342
7937,9298
7968,9200
7968,9449
6560,9449
6560,9255
6560,8880
6560,8580
6560,8204
6484,8129
6350,8129
6239,8174
6155,8259
6109,8369
6109,8489
6109,8504
6184,8580
6560,8580
6560,8880
6184,8880
6109,8955
6109,8970
6109,9090
6155,9200
6239,9285
6350,9330
6484,9330
6560,9255
6560,9449
6150,9449
5449,9449
5449,15050
8749,15050
8749,16849
8105,16849
8105,15517
8059,15406
7975,15322
7864,15276
7744,15276
7702,15276
7627,15351
7627,15921
8030,15921
8105,15846
8105,15517
8105,16849
8105,16849
8105,16685
8030,16610
7627,16610
7627,16673
7272,16673
7272,16610
7272,15921
7272,15351
7197,15276
7155,15276
7035,15276
6924,15322
6840,15406
6794,15517
6794,15846
6869,15921
7272,15921
7272,16610
6869,16610
6794,16685
6794,16849
4850,16849
4850,7040
4891,7139
5308,7556
5853,7783
6443,7783
6989,7558
7406,7141
7633,6596
7633,6006
7408,5460
6991,5043
6889,5000
10049,5000
10049,6294
9935,6294
9860,6369
9860,6772
9923,6772
9923,7127
9860,7127
9860,7530
9935,7605
10049,7605
10049,9449
" /> 
</g>
<g style="fill:#000000; fill-opacity:1.0; 
stroke:#000000; stroke-width:59.0551; stroke-opacity:1; 
stroke-linecap:round; stroke-linejoin:round;">
<polyline style="fill-rule:evenodd;"
points="21649,10899
21459,10899
21475,10860
21475,10740
21475,9959
21475,9839
21429,9729
21345,9644
21234,9599
21137,9599
21062,9674
21062,10125
21400,10125
21475,10049
21475,9959
21475,10740
21475,10650
21400,10575
21062,10575
21062,10757
20837,10757
20837,10575
20837,10125
20837,9674
20762,9599
20665,9599
20554,9644
20470,9729
20424,9839
20424,9959
20424,10049
20499,10125
20837,10125
20837,10575
20499,10575
20424,10650
20424,10740
20424,10860
20440,10899
20300,10899
20300,9549
19430,9549
19430,8925
19385,8814
19300,8730
19190,8684
19070,8684
18940,8684
18865,8759
18865,9142
19355,9142
19430,9067
19430,8925
19430,9549
19430,9549
19430,9532
19355,9457
18865,9457
18865,9549
18335,9549
18335,9457
18335,9142
18335,8759
18259,8684
18129,8684
18009,8684
17899,8730
17814,8814
17769,8925
17769,9067
17844,9142
18335,9142
18335,9457
17844,9457
17769,9532
17769,9549
17500,9549
17500,7390
17500,6709
17500,6589
17454,6479
17370,6394
17259,6349
17125,6349
17050,6424
17050,6850
17425,6850
17500,6774
17500,6709
17500,7390
17500,7325
17425,7250
17050,7250
17050,7675
17125,7750
17259,7750
17370,7705
17454,7620
17500,7510
17500,7390
17500,9549
17395,9549
17395,9209
17350,9098
17265,9014
17155,8968
17035,8968
17022,8968
16947,9043
16947,9397
17320,9397
17395,9321
17395,9209
17395,9549
16550,9549
16550,9397
16652,9397
16652,9043
16577,8968
16564,8968
16550,8968
16550,7750
16674,7750
16750,7675
16750,7250
16600,7250
16600,6850
16750,6850
16750,6424
16674,6349
16550,6349
16550,5000
21249,5000
21249,9150
21649,9150
21649,10899
" /> 
</g>
<g style="fill:#000000; fill-opacity:0.0; 
stroke:#000000; stroke-width:201.575; stroke-opacity:1; 
stroke-linecap:round; stroke-linejoin:round;">
<polyline fill="none;"
points="21649,10899
21459,10899
21475,10860
21475,10740
21475,9959
21475,9839
21429,9729
21345,9644
21234,9599
21137,9599
21062,9674
21062,10125
21400,10125
21475,10049
21475,9959
21475,10740
21475,10650
21400,10575
21062,10575
21062,10757
20837,10757
20837,10575
20837,10125
20837,9674
20762,9599
20665,9599
20554,9644
20470,9729
20424,9839
20424,9959
20424,10049
20499,10125
20837,10125
20837,10575
20499,10575
20424,10650
20424,10740
20424,10860
20440,10899
20300,10899
20300,9549
19430,9549
19430,8925
19385,8814
19300,8730
19190,8684
19070,8684
18940,8684
18865,8759
18865,9142
19355,9142
19430,9067
19430,8925
19430,9549
19430,9549
19430,9532
19355,9457
18865,9457
18865,9549
18335,9549
18335,9457
18335,9142
18335,8759
18259,8684
18129,8684
18009,8684
17899,8730
17814,8814
17769,8925
17769,9067
17844,9142
18335,9142
18335,9457
17844,9457
17769,9532
17769,9549
17500,9549
17500,7390
17500,6709
17500,6589
17454,6479
17370,6394
17259,6349
17125,6349
17050,6424
17050,6850
17425,6850
17500,6774
17500,6709
17500,7390
17500,7325
17425,7250
17050,7250
17050,7675
17125,7750
17259,7750
17370,7705
17454,7620
17500,7510
17500,7390
17500,9549
17395,9549
17395,9209
17350,9098
17265,9014
17155,8968
17035,8968
17022,8968
16947,9043
16947,9397
17320,9397
17395,9321
17395,9209
17395,9549
16550,9549
16550,9397
16652,9397
16652,9043
16577,8968
16564,8968
16550,8968
16550,7750
16674,7750
16750,7675
16750,7250
16600,7250
16600,6850
16750,6850
16750,6424
16674,6349
16550,6349
16550,5000
21249,5000
21249,9150
21649,9150
21649,10899
" /> 
</g>
<g style="fill:#000000; fill-opacity:1.0; 
stroke:#000000; stroke-width:59.0551; stroke-opacity:1; 
stroke-linecap:round; stroke-linejoin:round;">
<polyline style="fill-rule:evenodd;"
points="24249,29249
23439,29249
23439,19105
23439,18594
23439,18474
23393,18364
23308,18279
23198,18234
22819,18234
22744,18309
22744,18692
23364,18692
23439,18617
23439,18594
23439,19105
23439,19082
23364,19007
22744,19007
22744,19390
22819,19465
23198,19465
23308,19420
23393,19335
23439,19225
23439,19105
23439,29249
22081,29249
18600,29249
18600,28765
18600,28762
18525,28687
18212,28687
18212,29050
18287,29125
18359,29125
18470,29080
18554,28995
18600,28885
18600,28765
18600,29249
18050,29249
18050,28275
18212,28275
18212,28412
18525,28412
18600,28337
18600,28334
18600,28214
18554,28104
18524,28073
18524,28050
21650,28050
21650,21795
21728,21795
21840,21795
21840,21795
21924,21795
21924,21761
21951,21750
22035,21665
22081,21555
22081,21435
22081,21422
22006,21347
21653,21347
21653,21495
21650,21495
21650,20905
21653,20905
21653,21052
22006,21052
22081,20977
22081,20964
22081,20844
22035,20734
21951,20649
21924,20638
21924,20604
21840,20604
21840,20604
21728,20604
21650,20604
21650,19465
21882,19465
21957,19390
21957,19007
21943,19007
21943,18692
21957,18692
21957,18309
21882,18234
21650,18234
21650,17649
20050,17649
20050,16278
21475,16278
21550,16203
21550,14999
21542,14999
21542,14200
21550,14200
21550,14192
22349,14192
22349,14200
22357,14200
22357,14999
22349,14999
22349,16203
22424,16278
24135,16278
24246,16232
24249,16229
24249,29249
" /> 
</g>
<g style="fill:#000000; fill-opacity:0.0; 
stroke:#000000; stroke-width:201.575; stroke-opacity:1; 
stroke-linecap:round; stroke-linejoin:round;">
<polyline fill="none;"
points="24249,29249
23439,29249
23439,19105
23439,18594
23439,18474
23393,18364
23308,18279
23198,18234
22819,18234
22744,18309
22744,18692
23364,18692
23439,18617
23439,18594
23439,19105
23439,19082
23364,19007
22744,19007
22744,19390
22819,19465
23198,19465
23308,19420
23393,19335
23439,19225
23439,19105
23439,29249
22081,29249
18600,29249
18600,28765
18600,28762
18525,28687
18212,28687
18212,29050
18287,29125
18359,29125
18470,29080
18554,28995
18600,28885
18600,28765
18600,29249
18050,29249
18050,28275
18212,28275
18212,28412
18525,28412
18600,28337
18600,28334
18600,28214
18554,28104
18524,28073
18524,28050
21650,28050
21650,21795
21728,21795
21840,21795
21840,21795
21924,21795
21924,21761
21951,21750
22035,21665
22081,21555
22081,21435
22081,21422
22006,21347
21653,21347
21653,21495
21650,21495
21650,20905
21653,20905
21653,21052
22006,21052
22081,20977
22081,20964
22081,20844
22035,20734
21951,20649
21924,20638
21924,20604
21840,20604
21840,20604
21728,20604
21650,20604
21650,19465
21882,19465
21957,19390
21957,19007
21943,19007
21943,18692
21957,18692
21957,18309
21882,18234
21650,18234
21650,17649
20050,17649
20050,16278
21475,16278
21550,16203
21550,14999
21542,14999
21542,14200
21550,14200
21550,14192
22349,14192
22349,14200
22357,14200
22357,14999
22349,14999
22349,16203
22424,16278
24135,16278
24246,16232
24249,16229
24249,29249
" /> 
</g>
<g style="fill:#000000; fill-opacity:1.0; 
stroke:#000000; stroke-width:59.0551; stroke-opacity:1; 
stroke-linecap:round; stroke-linejoin:round;">
<polyline style="fill-rule:evenodd;"
points="16249,25649
16247,25649
15094,25649
15100,25634
15100,25065
15055,24954
14970,24870
14860,24824
14740,24824
14650,24824
14575,24899
14575,25237
15025,25237
15100,25162
15100,25065
15100,25634
15100,25537
15025,25462
14575,25462
14575,25575
14125,25575
14125,25462
13942,25462
13942,25237
14125,25237
14125,24899
14049,24824
13959,24824
13839,24824
13800,24840
13800,24700
15450,24700
15450,22249
14650,22249
14650,21759
14650,21625
14575,21550
14150,21550
14150,21925
14225,22000
14290,22000
14410,22000
14520,21954
14605,21870
14650,21759
14650,22249
13450,22249
13450,21984
13489,22000
13609,22000
13674,22000
13750,21925
13750,21550
13550,21550
13550,21250
15250,21250
15250,18250
16249,18250
16249,20754
16171,20754
16059,20754
16059,20754
16042,20754
16042,20505
16042,20015
16042,19485
16042,18994
15967,18919
15825,18919
15714,18964
15630,19049
15584,19159
15584,19279
15584,19409
15659,19485
16042,19485
16042,20015
15659,20015
15584,20090
15584,20220
15584,20340
15630,20450
15714,20535
15825,20580
15967,20580
16042,20505
16042,20754
15975,20754
15975,20788
15948,20799
15864,20884
15818,20994
15818,21114
15818,21127
15893,21202
16247,21202
16247,21055
16249,21055
16249,21645
16247,21645
16247,21497
15893,21497
15818,21572
15818,21585
15818,21705
15864,21815
15948,21900
15975,21911
15975,21945
16059,21945
16059,21945
16171,21945
16247,21945
16249,21945
16249,25649
" /> 
</g>
<g style="fill:#000000; fill-opacity:0.0; 
stroke:#000000; stroke-width:201.575; stroke-opacity:1; 
stroke-linecap:round; stroke-linejoin:round;">
<polyline fill="none;"
points="16249,25649
16247,25649
15094,25649
15100,25634
15100,25065
15055,24954
14970,24870
14860,24824
14740,24824
14650,24824
14575,24899
14575,25237
15025,25237
15100,25162
15100,25065
15100,25634
15100,25537
15025,25462
14575,25462
14575,25575
14125,25575
14125,25462
13942,25462
13942,25237
14125,25237
14125,24899
14049,24824
13959,24824
13839,24824
13800,24840
13800,24700
15450,24700
15450,22249
14650,22249
14650,21759
14650,21625
14575,21550
14150,21550
14150,21925
14225,22000
14290,22000
14410,22000
14520,21954
14605,21870
14650,21759
14650,22249
13450,22249
13450,21984
13489,22000
13609,22000
13674,22000
13750,21925
13750,21550
13550,21550
13550,21250
15250,21250
15250,18250
16249,18250
16249,20754
16171,20754
16059,20754
16059,20754
16042,20754
16042,20505
16042,20015
16042,19485
16042,18994
15967,18919
15825,18919
15714,18964
15630,19049
15584,19159
15584,19279
15584,19409
15659,19485
16042,19485
16042,20015
15659,20015
15584,20090
15584,20220
15584,20340
15630,20450
15714,20535
15825,20580
15967,20580
16042,20505
16042,20754
15975,20754
15975,20788
15948,20799
15864,20884
15818,20994
15818,21114
15818,21127
15893,21202
16247,21202
16247,21055
16249,21055
16249,21645
16247,21645
16247,21497
15893,21497
15818,21572
15818,21585
15818,21705
15864,21815
15948,21900
15975,21911
15975,21945
16059,21945
16059,21945
16171,21945
16247,21945
16249,21945
16249,25649
" /> 
</g>
<g style="fill:#000000; fill-opacity:1.0; 
stroke:#000000; stroke-width:59.0551; stroke-opacity:1; 
stroke-linecap:round; stroke-linejoin:round;">
<polyline style="fill-rule:evenodd;"
points="14699,23949
14125,23949
14125,23800
14125,23462
13674,23462
13599,23537
13599,23634
13644,23745
13729,23829
13839,23875
13959,23875
14049,23875
14125,23800
14125,23949
13049,23949
13049,24300
13049,24449
12745,24449
12745,24059
12700,23948
12615,23864
12505,23818
12385,23818
12372,23818
12297,23893
12297,24247
12670,24247
12745,24171
12745,24059
12745,24449
12002,24449
12002,24247
12002,23893
11927,23818
11914,23818
11794,23818
11684,23864
11599,23948
11554,24059
11554,24171
11629,24247
12002,24247
12002,24449
9965,24449
9965,22901
9920,22791
9835,22706
9725,22660
9605,22660
9582,22660
9507,22735
9507,23355
9890,23355
9965,23280
9965,22901
9965,24449
9965,24449
9965,24217
9890,24142
9507,24142
9507,24156
9192,24156
9192,24142
9192,23355
9192,22735
9117,22660
9094,22660
8974,22660
8864,22706
8779,22791
8734,22901
8734,23280
8809,23355
9192,23355
9192,24142
8809,24142
8734,24217
8734,24449
6649,24449
6649,28050
8649,28050
8649,29025
8487,29025
8487,28887
8487,28612
8487,28249
8412,28174
8340,28174
8229,28219
8145,28304
8099,28414
8099,28534
8099,28537
8174,28612
8487,28612
8487,28887
8174,28887
8099,28962
8099,28965
8099,29085
8145,29195
8175,29226
8175,29249
4850,29249
4850,21250
12249,21250
12249,23050
13150,23050
13605,23050
13599,23065
13599,23162
13674,23237
14125,23237
14125,23125
14575,23125
14575,23237
14699,23237
14699,23462
14575,23462
14575,23800
14650,23875
14699,23875
14699,23949
" /> 
</g>
<g style="fill:#000000; fill-opacity:0.0; 
stroke:#000000; stroke-width:201.575; stroke-opacity:1; 
stroke-linecap:round; stroke-linejoin:round;">
<polyline fill="none;"
points="14699,23949
14125,23949
14125,23800
14125,23462
13674,23462
13599,23537
13599,23634
13644,23745
13729,23829
13839,23875
13959,23875
14049,23875
14125,23800
14125,23949
13049,23949
13049,24300
13049,24449
12745,24449
12745,24059
12700,23948
12615,23864
12505,23818
12385,23818
12372,23818
12297,23893
12297,24247
12670,24247
12745,24171
12745,24059
12745,24449
12002,24449
12002,24247
12002,23893
11927,23818
11914,23818
11794,23818
11684,23864
11599,23948
11554,24059
11554,24171
11629,24247
12002,24247
12002,24449
9965,24449
9965,22901
9920,22791
9835,22706
9725,22660
9605,22660
9582,22660
9507,22735
9507,23355
9890,23355
9965,23280
9965,22901
9965,24449
9965,24449
9965,24217
9890,24142
9507,24142
9507,24156
9192,24156
9192,24142
9192,23355
9192,22735
9117,22660
9094,22660
8974,22660
8864,22706
8779,22791
8734,22901
8734,23280
8809,23355
9192,23355
9192,24142
8809,24142
8734,24217
8734,24449
6649,24449
6649,28050
8649,28050
8649,29025
8487,29025
8487,28887
8487,28612
8487,28249
8412,28174
8340,28174
8229,28219
8145,28304
8099,28414
8099,28534
8099,28537
8174,28612
8487,28612
8487,28887
8174,28887
8099,28962
8099,28965
8099,29085
8145,29195
8175,29226
8175,29249
4850,29249
4850,21250
12249,21250
12249,23050
13150,23050
13605,23050
13599,23065
13599,23162
13674,23237
14125,23237
14125,23125
14575,23125
14575,23237
14699,23237
14699,23462
14575,23462
14575,23800
14650,23875
14699,23875
14699,23949
" /> 
</g>
<g style="fill:#000000; fill-opacity:1.0; 
stroke:#000000; stroke-width:59.0551; stroke-opacity:1; 
stroke-linecap:round; stroke-linejoin:round;">
<polyline style="fill-rule:evenodd;"
points="17449,29249
17287,29249
17287,29050
17287,28687
16974,28687
16899,28762
16899,28765
16899,28885
16945,28995
17029,29080
17140,29125
17212,29125
17287,29050
17287,29249
14349,29249
14349,30186
14305,30168
14185,30168
14172,30168
14097,30243
14097,30597
14245,30597
14245,30853
14097,30853
14097,30916
13975,30916
13802,30916
13802,30853
13802,30597
13802,30243
13727,30168
13714,30168
13594,30168
13484,30214
13399,30298
13354,30409
13354,30521
13429,30597
13802,30597
13802,30853
13429,30853
13354,30928
13354,31040
13365,31069
13262,31069
11464,31069
11475,31040
11475,30409
11430,30298
11345,30214
11235,30168
11115,30168
11102,30168
11027,30243
11027,30597
11400,30597
11475,30521
11475,30409
11475,31040
11475,30928
11400,30853
11027,30853
11027,30916
10732,30916
10732,30853
10650,30853
10650,30597
10732,30597
10732,30243
10657,30168
10650,30168
10650,29249
9724,29249
9724,29226
9754,29195
9800,29085
9800,28965
9800,28534
9800,28414
9754,28304
9670,28219
9559,28174
9487,28174
9412,28249
9412,28612
9725,28612
9800,28537
9800,28534
9800,28965
9800,28962
9725,28887
9412,28887
9412,29025
9250,29025
9250,28050
12824,28050
12824,28187
12824,28259
12824,28259
12824,28424
12923,28424
12954,28454
13064,28500
13184,28500
13187,28500
13262,28425
13262,28112
13125,28112
13125,28050
13675,28050
13675,28112
13537,28112
13537,28425
13612,28500
13615,28500
13735,28500
13845,28454
13876,28424
13975,28424
13975,28259
13975,28259
13975,28187
13975,28050
16975,28050
16975,28073
16945,28104
16899,28214
16899,28334
16899,28337
16974,28412
17287,28412
17287,28275
17449,28275
17449,29249
" /> 
</g>
<g style="fill:#000000; fill-opacity:0.0; 
stroke:#000000; stroke-width:201.575; stroke-opacity:1; 
stroke-linecap:round; stroke-linejoin:round;">
<polyline fill="none;"
points="17449,29249
17287,29249
17287,29050
17287,28687
16974,28687
16899,28762
16899,28765
16899,28885
16945,28995
17029,29080
17140,29125
17212,29125
17287,29050
17287,29249
14349,29249
14349,30186
14305,30168
14185,30168
14172,30168
14097,30243
14097,30597
14245,30597
14245,30853
14097,30853
14097,30916
13975,30916
13802,30916
13802,30853
13802,30597
13802,30243
13727,30168
13714,30168
13594,30168
13484,30214
13399,30298
13354,30409
13354,30521
13429,30597
13802,30597
13802,30853
13429,30853
13354,30928
13354,31040
13365,31069
13262,31069
11464,31069
11475,31040
11475,30409
11430,30298
11345,30214
11235,30168
11115,30168
11102,30168
11027,30243
11027,30597
11400,30597
11475,30521
11475,30409
11475,31040
11475,30928
11400,30853
11027,30853
11027,30916
10732,30916
10732,30853
10650,30853
10650,30597
10732,30597
10732,30243
10657,30168
10650,30168
10650,29249
9724,29249
9724,29226
9754,29195
9800,29085
9800,28965
9800,28534
9800,28414
9754,28304
9670,28219
9559,28174
9487,28174
9412,28249
9412,28612
9725,28612
9800,28537
9800,28534
9800,28965
9800,28962
9725,28887
9412,28887
9412,29025
9250,29025
9250,28050
12824,28050
12824,28187
12824,28259
12824,28259
12824,28424
12923,28424
12954,28454
13064,28500
13184,28500
13187,28500
13262,28425
13262,28112
13125,28112
13125,28050
13675,28050
13675,28112
13537,28112
13537,28425
13612,28500
13615,28500
13735,28500
13845,28454
13876,28424
13975,28424
13975,28259
13975,28259
13975,28187
13975,28050
16975,28050
16975,28073
16945,28104
16899,28214
16899,28334
16899,28337
16974,28412
17287,28412
17287,28275
17449,28275
17449,29249
" /> 
</g>
<g style="fill:#FFFFFF; fill-opacity:0.0; 
stroke:#FFFFFF; stroke-width:59.0551; stroke-opacity:1; 
stroke-linecap:round; stroke-linejoin:round;">
</g>
<g style="fill:#FFFFFF; fill-opacity:1.0; 
stroke:#FFFFFF; stroke-width:59.0551; stroke-opacity:1; 
stroke-linecap:round; stroke-linejoin:round;">
<circle cx="6250" cy="42900" r="39.3701" /> 
<circle cx="22900" cy="6300" r="39.3701" /> 
<circle cx="6150" cy="6300" r="39.3701" /> 
<circle cx="22900" cy="42900" r="39.3701" /> 
<circle cx="16300" cy="28550" r="39.3701" /> 
<circle cx="15250" cy="30150" r="39.3701" /> 
<circle cx="7000" cy="30100" r="39.3701" /> 
<circle cx="5950" cy="38400" r="39.3701" /> 
<circle cx="22050" cy="31650" r="39.3701" /> 
<circle cx="22050" cy="35550" r="39.3701" /> 
<circle cx="5900" cy="40550" r="39.3701" /> 
<circle cx="22050" cy="33400" r="39.3701" /> 
<circle cx="22050" cy="37450" r="39.3701" /> 
<circle cx="6650" cy="13050" r="39.3701" /> 
<circle cx="7650" cy="13050" r="39.3701" /> 
<circle cx="6710" cy="8730" r="39.3701" /> 
<circle cx="7710" cy="8730" r="39.3701" /> 
<circle cx="8850" cy="37450" r="39.3701" /> 
<circle cx="19650" cy="37450" r="39.3701" /> 
<circle cx="8850" cy="31850" r="39.3701" /> 
<circle cx="19650" cy="31850" r="39.3701" /> 
<circle cx="22950" cy="30400" r="39.3701" /> 
</g> 
</svg>
